<?xml version="1.0" encoding="utf-8" standalone="no"?>
<!DOCTYPE svg PUBLIC "-//W3C//DTD SVG 1.1//EN"
  "http://www.w3.org/Graphics/SVG/1.1/DTD/svg11.dtd">
<svg xmlns:xlink="http://www.w3.org/1999/xlink" width="571.371312pt" height="345.42825pt" viewBox="0 0 571.371312 345.42825" xmlns="http://www.w3.org/2000/svg" version="1.1">
 <metadata>
  <rdf:RDF xmlns:dc="http://purl.org/dc/elements/1.1/" xmlns:cc="http://creativecommons.org/ns#" xmlns:rdf="http://www.w3.org/1999/02/22-rdf-syntax-ns#">
   <cc:Work>
    <dc:type rdf:resource="http://purl.org/dc/dcmitype/StillImage"/>
    <dc:date>2024-02-23T16:23:39.074177</dc:date>
    <dc:format>image/svg+xml</dc:format>
    <dc:creator>
     <cc:Agent>
      <dc:title>Matplotlib v3.8.2, https://matplotlib.org/</dc:title>
     </cc:Agent>
    </dc:creator>
   </cc:Work>
  </rdf:RDF>
 </metadata>
 <defs>
  <style type="text/css">*{stroke-linejoin: round; stroke-linecap: butt}</style>
 </defs>
 <g id="figure_1">
  <g id="patch_1">
   <path d="M 0 345.42825 
L 571.371312 345.42825 
L 571.371312 -0 
L 0 -0 
L 0 345.42825 
z
" style="fill: none; opacity: 0"/>
  </g>
  <g id="axes_1">
   <g id="patch_2">
    <path d="M 50.595313 162.72 
L 407.715312 162.72 
L 407.715312 41.76 
L 50.595313 41.76 
z
" style="fill: #ffffff"/>
   </g>
   <g id="matplotlib.axis_1">
    <g id="xtick_1">
     <g id="line2d_1">
      <defs>
       <path id="m5580f988b1" d="M 0 0 
L 0 3.5 
" style="stroke: #000000; stroke-width: 0.8"/>
      </defs>
      <g>
       <use xlink:href="#m5580f988b1" x="66.82804" y="162.72" style="stroke: #000000; stroke-width: 0.8"/>
      </g>
     </g>
    </g>
    <g id="xtick_2">
     <g id="line2d_2">
      <g>
       <use xlink:href="#m5580f988b1" x="120.937131" y="162.72" style="stroke: #000000; stroke-width: 0.8"/>
      </g>
     </g>
    </g>
    <g id="xtick_3">
     <g id="line2d_3">
      <g>
       <use xlink:href="#m5580f988b1" x="175.046222" y="162.72" style="stroke: #000000; stroke-width: 0.8"/>
      </g>
     </g>
    </g>
    <g id="xtick_4">
     <g id="line2d_4">
      <g>
       <use xlink:href="#m5580f988b1" x="229.155312" y="162.72" style="stroke: #000000; stroke-width: 0.8"/>
      </g>
     </g>
    </g>
    <g id="xtick_5">
     <g id="line2d_5">
      <g>
       <use xlink:href="#m5580f988b1" x="283.264403" y="162.72" style="stroke: #000000; stroke-width: 0.8"/>
      </g>
     </g>
    </g>
    <g id="xtick_6">
     <g id="line2d_6">
      <g>
       <use xlink:href="#m5580f988b1" x="337.373494" y="162.72" style="stroke: #000000; stroke-width: 0.8"/>
      </g>
     </g>
    </g>
    <g id="xtick_7">
     <g id="line2d_7">
      <g>
       <use xlink:href="#m5580f988b1" x="391.482585" y="162.72" style="stroke: #000000; stroke-width: 0.8"/>
      </g>
     </g>
    </g>
   </g>
   <g id="matplotlib.axis_2">
    <g id="ytick_1">
     <g id="line2d_8">
      <defs>
       <path id="mb24e2ce3c9" d="M 0 0 
L -3.5 0 
" style="stroke: #000000; stroke-width: 0.8"/>
      </defs>
      <g>
       <use xlink:href="#mb24e2ce3c9" x="50.595313" y="139.119151" style="stroke: #000000; stroke-width: 0.8"/>
      </g>
     </g>
     <g id="text_1">
      <!-- 2 -->
      <g transform="translate(37.232813 142.91837) scale(0.1 -0.1)">
       <defs>
        <path id="DejaVuSans-32" d="M 1228 531 
L 3431 531 
L 3431 0 
L 469 0 
L 469 531 
Q 828 903 1448 1529 
Q 2069 2156 2228 2338 
Q 2531 2678 2651 2914 
Q 2772 3150 2772 3378 
Q 2772 3750 2511 3984 
Q 2250 4219 1831 4219 
Q 1534 4219 1204 4116 
Q 875 4013 500 3803 
L 500 4441 
Q 881 4594 1212 4672 
Q 1544 4750 1819 4750 
Q 2544 4750 2975 4387 
Q 3406 4025 3406 3419 
Q 3406 3131 3298 2873 
Q 3191 2616 2906 2266 
Q 2828 2175 2409 1742 
Q 1991 1309 1228 531 
z
" transform="scale(0.015625)"/>
       </defs>
       <use xlink:href="#DejaVuSans-32"/>
      </g>
     </g>
    </g>
    <g id="ytick_2">
     <g id="line2d_9">
      <g>
       <use xlink:href="#mb24e2ce3c9" x="50.595313" y="111.807267" style="stroke: #000000; stroke-width: 0.8"/>
      </g>
     </g>
     <g id="text_2">
      <!-- 4 -->
      <g transform="translate(37.232813 115.606486) scale(0.1 -0.1)">
       <defs>
        <path id="DejaVuSans-34" d="M 2419 4116 
L 825 1625 
L 2419 1625 
L 2419 4116 
z
M 2253 4666 
L 3047 4666 
L 3047 1625 
L 3713 1625 
L 3713 1100 
L 3047 1100 
L 3047 0 
L 2419 0 
L 2419 1100 
L 313 1100 
L 313 1709 
L 2253 4666 
z
" transform="scale(0.015625)"/>
       </defs>
       <use xlink:href="#DejaVuSans-34"/>
      </g>
     </g>
    </g>
    <g id="ytick_3">
     <g id="line2d_10">
      <g>
       <use xlink:href="#mb24e2ce3c9" x="50.595313" y="84.495383" style="stroke: #000000; stroke-width: 0.8"/>
      </g>
     </g>
     <g id="text_3">
      <!-- 6 -->
      <g transform="translate(37.232813 88.294602) scale(0.1 -0.1)">
       <defs>
        <path id="DejaVuSans-36" d="M 2113 2584 
Q 1688 2584 1439 2293 
Q 1191 2003 1191 1497 
Q 1191 994 1439 701 
Q 1688 409 2113 409 
Q 2538 409 2786 701 
Q 3034 994 3034 1497 
Q 3034 2003 2786 2293 
Q 2538 2584 2113 2584 
z
M 3366 4563 
L 3366 3988 
Q 3128 4100 2886 4159 
Q 2644 4219 2406 4219 
Q 1781 4219 1451 3797 
Q 1122 3375 1075 2522 
Q 1259 2794 1537 2939 
Q 1816 3084 2150 3084 
Q 2853 3084 3261 2657 
Q 3669 2231 3669 1497 
Q 3669 778 3244 343 
Q 2819 -91 2113 -91 
Q 1303 -91 875 529 
Q 447 1150 447 2328 
Q 447 3434 972 4092 
Q 1497 4750 2381 4750 
Q 2619 4750 2861 4703 
Q 3103 4656 3366 4563 
z
" transform="scale(0.015625)"/>
       </defs>
       <use xlink:href="#DejaVuSans-36"/>
      </g>
     </g>
    </g>
    <g id="ytick_4">
     <g id="line2d_11">
      <g>
       <use xlink:href="#mb24e2ce3c9" x="50.595313" y="57.183499" style="stroke: #000000; stroke-width: 0.8"/>
      </g>
     </g>
     <g id="text_4">
      <!-- 8 -->
      <g transform="translate(37.232813 60.982718) scale(0.1 -0.1)">
       <defs>
        <path id="DejaVuSans-38" d="M 2034 2216 
Q 1584 2216 1326 1975 
Q 1069 1734 1069 1313 
Q 1069 891 1326 650 
Q 1584 409 2034 409 
Q 2484 409 2743 651 
Q 3003 894 3003 1313 
Q 3003 1734 2745 1975 
Q 2488 2216 2034 2216 
z
M 1403 2484 
Q 997 2584 770 2862 
Q 544 3141 544 3541 
Q 544 4100 942 4425 
Q 1341 4750 2034 4750 
Q 2731 4750 3128 4425 
Q 3525 4100 3525 3541 
Q 3525 3141 3298 2862 
Q 3072 2584 2669 2484 
Q 3125 2378 3379 2068 
Q 3634 1759 3634 1313 
Q 3634 634 3220 271 
Q 2806 -91 2034 -91 
Q 1263 -91 848 271 
Q 434 634 434 1313 
Q 434 1759 690 2068 
Q 947 2378 1403 2484 
z
M 1172 3481 
Q 1172 3119 1398 2916 
Q 1625 2713 2034 2713 
Q 2441 2713 2670 2916 
Q 2900 3119 2900 3481 
Q 2900 3844 2670 4047 
Q 2441 4250 2034 4250 
Q 1625 4250 1398 4047 
Q 1172 3844 1172 3481 
z
" transform="scale(0.015625)"/>
       </defs>
       <use xlink:href="#DejaVuSans-38"/>
      </g>
     </g>
    </g>
    <g id="text_5">
     <!-- $|S_{21}|$ [mV] -->
     <g transform="translate(30.832813 127.19) rotate(-90) scale(0.1 -0.1)">
      <defs>
       <path id="DejaVuSans-7c" d="M 1344 4891 
L 1344 -1509 
L 813 -1509 
L 813 4891 
L 1344 4891 
z
" transform="scale(0.015625)"/>
       <path id="DejaVuSans-Oblique-53" d="M 3859 4513 
L 3738 3897 
Q 3422 4066 3111 4152 
Q 2800 4238 2509 4238 
Q 1944 4238 1609 3991 
Q 1275 3744 1275 3334 
Q 1275 3109 1398 2989 
Q 1522 2869 2034 2731 
L 2413 2638 
Q 3053 2472 3303 2217 
Q 3553 1963 3553 1503 
Q 3553 797 2998 353 
Q 2444 -91 1538 -91 
Q 1166 -91 791 -17 
Q 416 56 38 206 
L 166 856 
Q 513 641 861 531 
Q 1209 422 1556 422 
Q 2147 422 2503 684 
Q 2859 947 2859 1369 
Q 2859 1650 2717 1795 
Q 2575 1941 2106 2059 
L 1728 2156 
Q 1081 2325 845 2545 
Q 609 2766 609 3163 
Q 609 3859 1145 4304 
Q 1681 4750 2541 4750 
Q 2875 4750 3203 4690 
Q 3531 4631 3859 4513 
z
" transform="scale(0.015625)"/>
       <path id="DejaVuSans-31" d="M 794 531 
L 1825 531 
L 1825 4091 
L 703 3866 
L 703 4441 
L 1819 4666 
L 2450 4666 
L 2450 531 
L 3481 531 
L 3481 0 
L 794 0 
L 794 531 
z
" transform="scale(0.015625)"/>
       <path id="DejaVuSans-20" transform="scale(0.015625)"/>
       <path id="DejaVuSans-5b" d="M 550 4863 
L 1875 4863 
L 1875 4416 
L 1125 4416 
L 1125 -397 
L 1875 -397 
L 1875 -844 
L 550 -844 
L 550 4863 
z
" transform="scale(0.015625)"/>
       <path id="DejaVuSans-6d" d="M 3328 2828 
Q 3544 3216 3844 3400 
Q 4144 3584 4550 3584 
Q 5097 3584 5394 3201 
Q 5691 2819 5691 2113 
L 5691 0 
L 5113 0 
L 5113 2094 
Q 5113 2597 4934 2840 
Q 4756 3084 4391 3084 
Q 3944 3084 3684 2787 
Q 3425 2491 3425 1978 
L 3425 0 
L 2847 0 
L 2847 2094 
Q 2847 2600 2669 2842 
Q 2491 3084 2119 3084 
Q 1678 3084 1418 2786 
Q 1159 2488 1159 1978 
L 1159 0 
L 581 0 
L 581 3500 
L 1159 3500 
L 1159 2956 
Q 1356 3278 1631 3431 
Q 1906 3584 2284 3584 
Q 2666 3584 2933 3390 
Q 3200 3197 3328 2828 
z
" transform="scale(0.015625)"/>
       <path id="DejaVuSans-56" d="M 1831 0 
L 50 4666 
L 709 4666 
L 2188 738 
L 3669 4666 
L 4325 4666 
L 2547 0 
L 1831 0 
z
" transform="scale(0.015625)"/>
       <path id="DejaVuSans-5d" d="M 1947 4863 
L 1947 -844 
L 622 -844 
L 622 -397 
L 1369 -397 
L 1369 4416 
L 622 4416 
L 622 4863 
L 1947 4863 
z
" transform="scale(0.015625)"/>
      </defs>
      <use xlink:href="#DejaVuSans-7c" transform="translate(0 0.578125)"/>
      <use xlink:href="#DejaVuSans-Oblique-53" transform="translate(33.691406 0.578125)"/>
      <use xlink:href="#DejaVuSans-32" transform="translate(97.167969 -15.828125) scale(0.7)"/>
      <use xlink:href="#DejaVuSans-31" transform="translate(141.704102 -15.828125) scale(0.7)"/>
      <use xlink:href="#DejaVuSans-7c" transform="translate(188.974609 0.578125)"/>
      <use xlink:href="#DejaVuSans-20" transform="translate(222.666016 0.578125)"/>
      <use xlink:href="#DejaVuSans-5b" transform="translate(254.453125 0.578125)"/>
      <use xlink:href="#DejaVuSans-6d" transform="translate(293.466797 0.578125)"/>
      <use xlink:href="#DejaVuSans-56" transform="translate(390.878906 0.578125)"/>
      <use xlink:href="#DejaVuSans-5d" transform="translate(459.287109 0.578125)"/>
     </g>
    </g>
   </g>
   <g id="line2d_12">
    <path d="M 66.82804 47.258182 
L 68.45947 48.052069 
L 70.0909 49.698247 
L 73.353759 47.39706 
L 74.985189 50.022018 
L 76.616619 48.700338 
L 78.248049 50.349695 
L 79.879479 47.675339 
L 81.510909 48.999636 
L 83.142339 50.517453 
L 84.773768 49.019285 
L 86.405198 48.800552 
L 88.036628 47.860571 
L 89.668058 50.921938 
L 91.299488 49.810817 
L 92.930918 49.045121 
L 94.562348 49.779506 
L 96.193778 49.762061 
L 97.825207 50.363937 
L 99.456637 50.383733 
L 101.088067 50.591687 
L 102.719497 49.938446 
L 104.350927 50.329092 
L 105.982357 50.031853 
L 107.613787 52.256744 
L 109.245217 50.928417 
L 110.876646 50.823302 
L 112.508076 50.406471 
L 114.139506 52.140044 
L 115.770936 50.900807 
L 119.033796 51.894442 
L 120.665226 52.815487 
L 122.296656 52.073546 
L 123.928085 53.125384 
L 127.190945 51.309324 
L 128.822375 52.780591 
L 130.453805 52.69779 
L 132.085235 53.622521 
L 133.716665 53.683663 
L 135.348095 54.417837 
L 136.979524 54.050912 
L 138.610954 52.798024 
L 140.242384 53.465409 
L 143.505244 54.114545 
L 145.136674 53.590971 
L 146.768104 55.140778 
L 148.399534 54.261597 
L 150.030963 54.006582 
L 151.662393 56.072223 
L 153.293823 54.89539 
L 154.925253 55.932663 
L 156.556683 55.352156 
L 158.188113 55.20573 
L 161.450973 55.442332 
L 163.082402 55.70933 
L 164.713832 57.259711 
L 166.345262 57.303744 
L 167.976692 55.717014 
L 169.608122 56.204032 
L 171.239552 55.291062 
L 172.870982 55.742593 
L 174.502412 57.11439 
L 176.133842 55.597304 
L 177.765271 57.087945 
L 179.396701 57.11908 
L 181.028131 56.116475 
L 182.659561 56.341877 
L 184.290991 56.768486 
L 185.922421 56.894717 
L 189.185281 58.457589 
L 190.81671 57.578699 
L 194.07957 57.657945 
L 197.34243 57.89036 
L 200.60529 58.184116 
L 202.23672 57.494695 
L 205.499579 57.724661 
L 207.131009 58.588612 
L 208.762439 60.062387 
L 210.393869 58.623332 
L 212.025299 58.39232 
L 213.656729 60.075919 
L 215.288159 60.019888 
L 216.919588 59.15476 
L 218.551018 59.076256 
L 220.182448 60.073103 
L 221.813878 59.655159 
L 223.445308 59.90656 
L 225.076738 58.729466 
L 226.708168 59.934619 
L 228.339598 59.940826 
L 229.971027 60.589738 
L 231.602457 60.950895 
L 233.233887 59.998337 
L 234.865317 61.037332 
L 236.496747 61.046224 
L 238.128177 60.817291 
L 239.759607 61.183324 
L 241.391037 62.093961 
L 243.022466 62.480371 
L 244.653896 62.175856 
L 246.285326 62.93738 
L 251.179616 63.620542 
L 252.811046 64.932058 
L 254.442476 65.719372 
L 256.073905 64.134905 
L 257.705335 65.405452 
L 259.336765 66.414117 
L 260.968195 67.71655 
L 262.599625 65.95185 
L 264.231055 66.10536 
L 265.862485 68.931589 
L 267.493915 69.021571 
L 269.125344 68.659912 
L 270.756774 69.897304 
L 272.388204 71.699386 
L 274.019634 70.944724 
L 275.651064 73.256097 
L 277.282494 74.08434 
L 278.913924 75.93414 
L 280.545354 78.866063 
L 282.176783 79.853119 
L 283.808213 82.309937 
L 285.439643 85.896818 
L 287.071073 86.959319 
L 290.333933 95.989992 
L 291.965363 103.23181 
L 293.596793 107.992874 
L 295.228223 115.015102 
L 298.491082 130.708214 
L 300.122512 140.482848 
L 301.753942 149.243197 
L 303.385372 157.221818 
L 305.016802 152.968039 
L 306.648232 145.569588 
L 308.279662 135.054535 
L 311.542521 119.819172 
L 314.805381 106.837545 
L 316.436811 102.605431 
L 318.068241 97.559893 
L 321.331101 89.728592 
L 322.96253 88.994306 
L 326.22539 82.609928 
L 327.85682 80.48384 
L 329.48825 79.398971 
L 331.11968 80.142015 
L 332.75111 77.057107 
L 334.38254 77.209313 
L 336.013969 76.518482 
L 337.645399 75.431524 
L 339.276829 74.737485 
L 340.908259 75.294135 
L 342.539689 74.46373 
L 344.171119 73.320473 
L 345.802549 73.20051 
L 347.433979 72.45357 
L 349.065408 71.395153 
L 350.696838 72.357352 
L 352.328268 72.657874 
L 353.959698 72.369515 
L 355.591128 71.217154 
L 357.222558 72.127292 
L 358.853988 71.171825 
L 360.485418 71.397446 
L 362.116847 71.776185 
L 363.748277 71.646384 
L 365.379707 69.940952 
L 367.011137 70.455878 
L 368.642567 71.908263 
L 370.273997 70.67892 
L 371.905427 71.038194 
L 373.536857 72.074609 
L 375.168286 69.808627 
L 376.799716 71.980165 
L 378.431146 70.339471 
L 380.062576 70.931742 
L 381.694006 70.443839 
L 383.325436 72.552146 
L 384.956866 70.518807 
L 386.588296 70.348923 
L 388.219725 70.981415 
L 389.851155 70.005405 
L 391.482585 71.242775 
L 391.482585 71.242775 
" clip-path="url(#p268d6d53c3)" style="fill: none; stroke: #1f77b4; stroke-width: 1.5; stroke-linecap: square"/>
    <defs>
     <path id="m3da7c45486" d="M 0 1.5 
C 0.397805 1.5 0.77937 1.341951 1.06066 1.06066 
C 1.341951 0.77937 1.5 0.397805 1.5 0 
C 1.5 -0.397805 1.341951 -0.77937 1.06066 -1.06066 
C 0.77937 -1.341951 0.397805 -1.5 0 -1.5 
C -0.397805 -1.5 -0.77937 -1.341951 -1.06066 -1.06066 
C -1.341951 -0.77937 -1.5 -0.397805 -1.5 0 
C -1.5 0.397805 -1.341951 0.77937 -1.06066 1.06066 
C -0.77937 1.341951 -0.397805 1.5 0 1.5 
z
" style="stroke: #1f77b4"/>
    </defs>
    <g clip-path="url(#p268d6d53c3)">
     <use xlink:href="#m3da7c45486" x="66.82804" y="47.258182" style="fill: #1f77b4; stroke: #1f77b4"/>
     <use xlink:href="#m3da7c45486" x="68.45947" y="48.052069" style="fill: #1f77b4; stroke: #1f77b4"/>
     <use xlink:href="#m3da7c45486" x="70.0909" y="49.698247" style="fill: #1f77b4; stroke: #1f77b4"/>
     <use xlink:href="#m3da7c45486" x="71.722329" y="48.521475" style="fill: #1f77b4; stroke: #1f77b4"/>
     <use xlink:href="#m3da7c45486" x="73.353759" y="47.39706" style="fill: #1f77b4; stroke: #1f77b4"/>
     <use xlink:href="#m3da7c45486" x="74.985189" y="50.022018" style="fill: #1f77b4; stroke: #1f77b4"/>
     <use xlink:href="#m3da7c45486" x="76.616619" y="48.700338" style="fill: #1f77b4; stroke: #1f77b4"/>
     <use xlink:href="#m3da7c45486" x="78.248049" y="50.349695" style="fill: #1f77b4; stroke: #1f77b4"/>
     <use xlink:href="#m3da7c45486" x="79.879479" y="47.675339" style="fill: #1f77b4; stroke: #1f77b4"/>
     <use xlink:href="#m3da7c45486" x="81.510909" y="48.999636" style="fill: #1f77b4; stroke: #1f77b4"/>
     <use xlink:href="#m3da7c45486" x="83.142339" y="50.517453" style="fill: #1f77b4; stroke: #1f77b4"/>
     <use xlink:href="#m3da7c45486" x="84.773768" y="49.019285" style="fill: #1f77b4; stroke: #1f77b4"/>
     <use xlink:href="#m3da7c45486" x="86.405198" y="48.800552" style="fill: #1f77b4; stroke: #1f77b4"/>
     <use xlink:href="#m3da7c45486" x="88.036628" y="47.860571" style="fill: #1f77b4; stroke: #1f77b4"/>
     <use xlink:href="#m3da7c45486" x="89.668058" y="50.921938" style="fill: #1f77b4; stroke: #1f77b4"/>
     <use xlink:href="#m3da7c45486" x="91.299488" y="49.810817" style="fill: #1f77b4; stroke: #1f77b4"/>
     <use xlink:href="#m3da7c45486" x="92.930918" y="49.045121" style="fill: #1f77b4; stroke: #1f77b4"/>
     <use xlink:href="#m3da7c45486" x="94.562348" y="49.779506" style="fill: #1f77b4; stroke: #1f77b4"/>
     <use xlink:href="#m3da7c45486" x="96.193778" y="49.762061" style="fill: #1f77b4; stroke: #1f77b4"/>
     <use xlink:href="#m3da7c45486" x="97.825207" y="50.363937" style="fill: #1f77b4; stroke: #1f77b4"/>
     <use xlink:href="#m3da7c45486" x="99.456637" y="50.383733" style="fill: #1f77b4; stroke: #1f77b4"/>
     <use xlink:href="#m3da7c45486" x="101.088067" y="50.591687" style="fill: #1f77b4; stroke: #1f77b4"/>
     <use xlink:href="#m3da7c45486" x="102.719497" y="49.938446" style="fill: #1f77b4; stroke: #1f77b4"/>
     <use xlink:href="#m3da7c45486" x="104.350927" y="50.329092" style="fill: #1f77b4; stroke: #1f77b4"/>
     <use xlink:href="#m3da7c45486" x="105.982357" y="50.031853" style="fill: #1f77b4; stroke: #1f77b4"/>
     <use xlink:href="#m3da7c45486" x="107.613787" y="52.256744" style="fill: #1f77b4; stroke: #1f77b4"/>
     <use xlink:href="#m3da7c45486" x="109.245217" y="50.928417" style="fill: #1f77b4; stroke: #1f77b4"/>
     <use xlink:href="#m3da7c45486" x="110.876646" y="50.823302" style="fill: #1f77b4; stroke: #1f77b4"/>
     <use xlink:href="#m3da7c45486" x="112.508076" y="50.406471" style="fill: #1f77b4; stroke: #1f77b4"/>
     <use xlink:href="#m3da7c45486" x="114.139506" y="52.140044" style="fill: #1f77b4; stroke: #1f77b4"/>
     <use xlink:href="#m3da7c45486" x="115.770936" y="50.900807" style="fill: #1f77b4; stroke: #1f77b4"/>
     <use xlink:href="#m3da7c45486" x="117.402366" y="51.414929" style="fill: #1f77b4; stroke: #1f77b4"/>
     <use xlink:href="#m3da7c45486" x="119.033796" y="51.894442" style="fill: #1f77b4; stroke: #1f77b4"/>
     <use xlink:href="#m3da7c45486" x="120.665226" y="52.815487" style="fill: #1f77b4; stroke: #1f77b4"/>
     <use xlink:href="#m3da7c45486" x="122.296656" y="52.073546" style="fill: #1f77b4; stroke: #1f77b4"/>
     <use xlink:href="#m3da7c45486" x="123.928085" y="53.125384" style="fill: #1f77b4; stroke: #1f77b4"/>
     <use xlink:href="#m3da7c45486" x="125.559515" y="52.170639" style="fill: #1f77b4; stroke: #1f77b4"/>
     <use xlink:href="#m3da7c45486" x="127.190945" y="51.309324" style="fill: #1f77b4; stroke: #1f77b4"/>
     <use xlink:href="#m3da7c45486" x="128.822375" y="52.780591" style="fill: #1f77b4; stroke: #1f77b4"/>
     <use xlink:href="#m3da7c45486" x="130.453805" y="52.69779" style="fill: #1f77b4; stroke: #1f77b4"/>
     <use xlink:href="#m3da7c45486" x="132.085235" y="53.622521" style="fill: #1f77b4; stroke: #1f77b4"/>
     <use xlink:href="#m3da7c45486" x="133.716665" y="53.683663" style="fill: #1f77b4; stroke: #1f77b4"/>
     <use xlink:href="#m3da7c45486" x="135.348095" y="54.417837" style="fill: #1f77b4; stroke: #1f77b4"/>
     <use xlink:href="#m3da7c45486" x="136.979524" y="54.050912" style="fill: #1f77b4; stroke: #1f77b4"/>
     <use xlink:href="#m3da7c45486" x="138.610954" y="52.798024" style="fill: #1f77b4; stroke: #1f77b4"/>
     <use xlink:href="#m3da7c45486" x="140.242384" y="53.465409" style="fill: #1f77b4; stroke: #1f77b4"/>
     <use xlink:href="#m3da7c45486" x="141.873814" y="53.743549" style="fill: #1f77b4; stroke: #1f77b4"/>
     <use xlink:href="#m3da7c45486" x="143.505244" y="54.114545" style="fill: #1f77b4; stroke: #1f77b4"/>
     <use xlink:href="#m3da7c45486" x="145.136674" y="53.590971" style="fill: #1f77b4; stroke: #1f77b4"/>
     <use xlink:href="#m3da7c45486" x="146.768104" y="55.140778" style="fill: #1f77b4; stroke: #1f77b4"/>
     <use xlink:href="#m3da7c45486" x="148.399534" y="54.261597" style="fill: #1f77b4; stroke: #1f77b4"/>
     <use xlink:href="#m3da7c45486" x="150.030963" y="54.006582" style="fill: #1f77b4; stroke: #1f77b4"/>
     <use xlink:href="#m3da7c45486" x="151.662393" y="56.072223" style="fill: #1f77b4; stroke: #1f77b4"/>
     <use xlink:href="#m3da7c45486" x="153.293823" y="54.89539" style="fill: #1f77b4; stroke: #1f77b4"/>
     <use xlink:href="#m3da7c45486" x="154.925253" y="55.932663" style="fill: #1f77b4; stroke: #1f77b4"/>
     <use xlink:href="#m3da7c45486" x="156.556683" y="55.352156" style="fill: #1f77b4; stroke: #1f77b4"/>
     <use xlink:href="#m3da7c45486" x="158.188113" y="55.20573" style="fill: #1f77b4; stroke: #1f77b4"/>
     <use xlink:href="#m3da7c45486" x="159.819543" y="55.285476" style="fill: #1f77b4; stroke: #1f77b4"/>
     <use xlink:href="#m3da7c45486" x="161.450973" y="55.442332" style="fill: #1f77b4; stroke: #1f77b4"/>
     <use xlink:href="#m3da7c45486" x="163.082402" y="55.70933" style="fill: #1f77b4; stroke: #1f77b4"/>
     <use xlink:href="#m3da7c45486" x="164.713832" y="57.259711" style="fill: #1f77b4; stroke: #1f77b4"/>
     <use xlink:href="#m3da7c45486" x="166.345262" y="57.303744" style="fill: #1f77b4; stroke: #1f77b4"/>
     <use xlink:href="#m3da7c45486" x="167.976692" y="55.717014" style="fill: #1f77b4; stroke: #1f77b4"/>
     <use xlink:href="#m3da7c45486" x="169.608122" y="56.204032" style="fill: #1f77b4; stroke: #1f77b4"/>
     <use xlink:href="#m3da7c45486" x="171.239552" y="55.291062" style="fill: #1f77b4; stroke: #1f77b4"/>
     <use xlink:href="#m3da7c45486" x="172.870982" y="55.742593" style="fill: #1f77b4; stroke: #1f77b4"/>
     <use xlink:href="#m3da7c45486" x="174.502412" y="57.11439" style="fill: #1f77b4; stroke: #1f77b4"/>
     <use xlink:href="#m3da7c45486" x="176.133842" y="55.597304" style="fill: #1f77b4; stroke: #1f77b4"/>
     <use xlink:href="#m3da7c45486" x="177.765271" y="57.087945" style="fill: #1f77b4; stroke: #1f77b4"/>
     <use xlink:href="#m3da7c45486" x="179.396701" y="57.11908" style="fill: #1f77b4; stroke: #1f77b4"/>
     <use xlink:href="#m3da7c45486" x="181.028131" y="56.116475" style="fill: #1f77b4; stroke: #1f77b4"/>
     <use xlink:href="#m3da7c45486" x="182.659561" y="56.341877" style="fill: #1f77b4; stroke: #1f77b4"/>
     <use xlink:href="#m3da7c45486" x="184.290991" y="56.768486" style="fill: #1f77b4; stroke: #1f77b4"/>
     <use xlink:href="#m3da7c45486" x="185.922421" y="56.894717" style="fill: #1f77b4; stroke: #1f77b4"/>
     <use xlink:href="#m3da7c45486" x="187.553851" y="57.619687" style="fill: #1f77b4; stroke: #1f77b4"/>
     <use xlink:href="#m3da7c45486" x="189.185281" y="58.457589" style="fill: #1f77b4; stroke: #1f77b4"/>
     <use xlink:href="#m3da7c45486" x="190.81671" y="57.578699" style="fill: #1f77b4; stroke: #1f77b4"/>
     <use xlink:href="#m3da7c45486" x="192.44814" y="57.576395" style="fill: #1f77b4; stroke: #1f77b4"/>
     <use xlink:href="#m3da7c45486" x="194.07957" y="57.657945" style="fill: #1f77b4; stroke: #1f77b4"/>
     <use xlink:href="#m3da7c45486" x="195.711" y="57.816437" style="fill: #1f77b4; stroke: #1f77b4"/>
     <use xlink:href="#m3da7c45486" x="197.34243" y="57.89036" style="fill: #1f77b4; stroke: #1f77b4"/>
     <use xlink:href="#m3da7c45486" x="198.97386" y="58.019417" style="fill: #1f77b4; stroke: #1f77b4"/>
     <use xlink:href="#m3da7c45486" x="200.60529" y="58.184116" style="fill: #1f77b4; stroke: #1f77b4"/>
     <use xlink:href="#m3da7c45486" x="202.23672" y="57.494695" style="fill: #1f77b4; stroke: #1f77b4"/>
     <use xlink:href="#m3da7c45486" x="203.868149" y="57.55828" style="fill: #1f77b4; stroke: #1f77b4"/>
     <use xlink:href="#m3da7c45486" x="205.499579" y="57.724661" style="fill: #1f77b4; stroke: #1f77b4"/>
     <use xlink:href="#m3da7c45486" x="207.131009" y="58.588612" style="fill: #1f77b4; stroke: #1f77b4"/>
     <use xlink:href="#m3da7c45486" x="208.762439" y="60.062387" style="fill: #1f77b4; stroke: #1f77b4"/>
     <use xlink:href="#m3da7c45486" x="210.393869" y="58.623332" style="fill: #1f77b4; stroke: #1f77b4"/>
     <use xlink:href="#m3da7c45486" x="212.025299" y="58.39232" style="fill: #1f77b4; stroke: #1f77b4"/>
     <use xlink:href="#m3da7c45486" x="213.656729" y="60.075919" style="fill: #1f77b4; stroke: #1f77b4"/>
     <use xlink:href="#m3da7c45486" x="215.288159" y="60.019888" style="fill: #1f77b4; stroke: #1f77b4"/>
     <use xlink:href="#m3da7c45486" x="216.919588" y="59.15476" style="fill: #1f77b4; stroke: #1f77b4"/>
     <use xlink:href="#m3da7c45486" x="218.551018" y="59.076256" style="fill: #1f77b4; stroke: #1f77b4"/>
     <use xlink:href="#m3da7c45486" x="220.182448" y="60.073103" style="fill: #1f77b4; stroke: #1f77b4"/>
     <use xlink:href="#m3da7c45486" x="221.813878" y="59.655159" style="fill: #1f77b4; stroke: #1f77b4"/>
     <use xlink:href="#m3da7c45486" x="223.445308" y="59.90656" style="fill: #1f77b4; stroke: #1f77b4"/>
     <use xlink:href="#m3da7c45486" x="225.076738" y="58.729466" style="fill: #1f77b4; stroke: #1f77b4"/>
     <use xlink:href="#m3da7c45486" x="226.708168" y="59.934619" style="fill: #1f77b4; stroke: #1f77b4"/>
     <use xlink:href="#m3da7c45486" x="228.339598" y="59.940826" style="fill: #1f77b4; stroke: #1f77b4"/>
     <use xlink:href="#m3da7c45486" x="229.971027" y="60.589738" style="fill: #1f77b4; stroke: #1f77b4"/>
     <use xlink:href="#m3da7c45486" x="231.602457" y="60.950895" style="fill: #1f77b4; stroke: #1f77b4"/>
     <use xlink:href="#m3da7c45486" x="233.233887" y="59.998337" style="fill: #1f77b4; stroke: #1f77b4"/>
     <use xlink:href="#m3da7c45486" x="234.865317" y="61.037332" style="fill: #1f77b4; stroke: #1f77b4"/>
     <use xlink:href="#m3da7c45486" x="236.496747" y="61.046224" style="fill: #1f77b4; stroke: #1f77b4"/>
     <use xlink:href="#m3da7c45486" x="238.128177" y="60.817291" style="fill: #1f77b4; stroke: #1f77b4"/>
     <use xlink:href="#m3da7c45486" x="239.759607" y="61.183324" style="fill: #1f77b4; stroke: #1f77b4"/>
     <use xlink:href="#m3da7c45486" x="241.391037" y="62.093961" style="fill: #1f77b4; stroke: #1f77b4"/>
     <use xlink:href="#m3da7c45486" x="243.022466" y="62.480371" style="fill: #1f77b4; stroke: #1f77b4"/>
     <use xlink:href="#m3da7c45486" x="244.653896" y="62.175856" style="fill: #1f77b4; stroke: #1f77b4"/>
     <use xlink:href="#m3da7c45486" x="246.285326" y="62.93738" style="fill: #1f77b4; stroke: #1f77b4"/>
     <use xlink:href="#m3da7c45486" x="247.916756" y="63.137815" style="fill: #1f77b4; stroke: #1f77b4"/>
     <use xlink:href="#m3da7c45486" x="249.548186" y="63.234785" style="fill: #1f77b4; stroke: #1f77b4"/>
     <use xlink:href="#m3da7c45486" x="251.179616" y="63.620542" style="fill: #1f77b4; stroke: #1f77b4"/>
     <use xlink:href="#m3da7c45486" x="252.811046" y="64.932058" style="fill: #1f77b4; stroke: #1f77b4"/>
     <use xlink:href="#m3da7c45486" x="254.442476" y="65.719372" style="fill: #1f77b4; stroke: #1f77b4"/>
     <use xlink:href="#m3da7c45486" x="256.073905" y="64.134905" style="fill: #1f77b4; stroke: #1f77b4"/>
     <use xlink:href="#m3da7c45486" x="257.705335" y="65.405452" style="fill: #1f77b4; stroke: #1f77b4"/>
     <use xlink:href="#m3da7c45486" x="259.336765" y="66.414117" style="fill: #1f77b4; stroke: #1f77b4"/>
     <use xlink:href="#m3da7c45486" x="260.968195" y="67.71655" style="fill: #1f77b4; stroke: #1f77b4"/>
     <use xlink:href="#m3da7c45486" x="262.599625" y="65.95185" style="fill: #1f77b4; stroke: #1f77b4"/>
     <use xlink:href="#m3da7c45486" x="264.231055" y="66.10536" style="fill: #1f77b4; stroke: #1f77b4"/>
     <use xlink:href="#m3da7c45486" x="265.862485" y="68.931589" style="fill: #1f77b4; stroke: #1f77b4"/>
     <use xlink:href="#m3da7c45486" x="267.493915" y="69.021571" style="fill: #1f77b4; stroke: #1f77b4"/>
     <use xlink:href="#m3da7c45486" x="269.125344" y="68.659912" style="fill: #1f77b4; stroke: #1f77b4"/>
     <use xlink:href="#m3da7c45486" x="270.756774" y="69.897304" style="fill: #1f77b4; stroke: #1f77b4"/>
     <use xlink:href="#m3da7c45486" x="272.388204" y="71.699386" style="fill: #1f77b4; stroke: #1f77b4"/>
     <use xlink:href="#m3da7c45486" x="274.019634" y="70.944724" style="fill: #1f77b4; stroke: #1f77b4"/>
     <use xlink:href="#m3da7c45486" x="275.651064" y="73.256097" style="fill: #1f77b4; stroke: #1f77b4"/>
     <use xlink:href="#m3da7c45486" x="277.282494" y="74.08434" style="fill: #1f77b4; stroke: #1f77b4"/>
     <use xlink:href="#m3da7c45486" x="278.913924" y="75.93414" style="fill: #1f77b4; stroke: #1f77b4"/>
     <use xlink:href="#m3da7c45486" x="280.545354" y="78.866063" style="fill: #1f77b4; stroke: #1f77b4"/>
     <use xlink:href="#m3da7c45486" x="282.176783" y="79.853119" style="fill: #1f77b4; stroke: #1f77b4"/>
     <use xlink:href="#m3da7c45486" x="283.808213" y="82.309937" style="fill: #1f77b4; stroke: #1f77b4"/>
     <use xlink:href="#m3da7c45486" x="285.439643" y="85.896818" style="fill: #1f77b4; stroke: #1f77b4"/>
     <use xlink:href="#m3da7c45486" x="287.071073" y="86.959319" style="fill: #1f77b4; stroke: #1f77b4"/>
     <use xlink:href="#m3da7c45486" x="288.702503" y="91.630329" style="fill: #1f77b4; stroke: #1f77b4"/>
     <use xlink:href="#m3da7c45486" x="290.333933" y="95.989992" style="fill: #1f77b4; stroke: #1f77b4"/>
     <use xlink:href="#m3da7c45486" x="291.965363" y="103.23181" style="fill: #1f77b4; stroke: #1f77b4"/>
     <use xlink:href="#m3da7c45486" x="293.596793" y="107.992874" style="fill: #1f77b4; stroke: #1f77b4"/>
     <use xlink:href="#m3da7c45486" x="295.228223" y="115.015102" style="fill: #1f77b4; stroke: #1f77b4"/>
     <use xlink:href="#m3da7c45486" x="296.859652" y="123.10222" style="fill: #1f77b4; stroke: #1f77b4"/>
     <use xlink:href="#m3da7c45486" x="298.491082" y="130.708214" style="fill: #1f77b4; stroke: #1f77b4"/>
     <use xlink:href="#m3da7c45486" x="300.122512" y="140.482848" style="fill: #1f77b4; stroke: #1f77b4"/>
     <use xlink:href="#m3da7c45486" x="301.753942" y="149.243197" style="fill: #1f77b4; stroke: #1f77b4"/>
     <use xlink:href="#m3da7c45486" x="303.385372" y="157.221818" style="fill: #1f77b4; stroke: #1f77b4"/>
     <use xlink:href="#m3da7c45486" x="305.016802" y="152.968039" style="fill: #1f77b4; stroke: #1f77b4"/>
     <use xlink:href="#m3da7c45486" x="306.648232" y="145.569588" style="fill: #1f77b4; stroke: #1f77b4"/>
     <use xlink:href="#m3da7c45486" x="308.279662" y="135.054535" style="fill: #1f77b4; stroke: #1f77b4"/>
     <use xlink:href="#m3da7c45486" x="309.911091" y="127.628066" style="fill: #1f77b4; stroke: #1f77b4"/>
     <use xlink:href="#m3da7c45486" x="311.542521" y="119.819172" style="fill: #1f77b4; stroke: #1f77b4"/>
     <use xlink:href="#m3da7c45486" x="313.173951" y="113.465121" style="fill: #1f77b4; stroke: #1f77b4"/>
     <use xlink:href="#m3da7c45486" x="314.805381" y="106.837545" style="fill: #1f77b4; stroke: #1f77b4"/>
     <use xlink:href="#m3da7c45486" x="316.436811" y="102.605431" style="fill: #1f77b4; stroke: #1f77b4"/>
     <use xlink:href="#m3da7c45486" x="318.068241" y="97.559893" style="fill: #1f77b4; stroke: #1f77b4"/>
     <use xlink:href="#m3da7c45486" x="319.699671" y="93.774502" style="fill: #1f77b4; stroke: #1f77b4"/>
     <use xlink:href="#m3da7c45486" x="321.331101" y="89.728592" style="fill: #1f77b4; stroke: #1f77b4"/>
     <use xlink:href="#m3da7c45486" x="322.96253" y="88.994306" style="fill: #1f77b4; stroke: #1f77b4"/>
     <use xlink:href="#m3da7c45486" x="324.59396" y="85.867347" style="fill: #1f77b4; stroke: #1f77b4"/>
     <use xlink:href="#m3da7c45486" x="326.22539" y="82.609928" style="fill: #1f77b4; stroke: #1f77b4"/>
     <use xlink:href="#m3da7c45486" x="327.85682" y="80.48384" style="fill: #1f77b4; stroke: #1f77b4"/>
     <use xlink:href="#m3da7c45486" x="329.48825" y="79.398971" style="fill: #1f77b4; stroke: #1f77b4"/>
     <use xlink:href="#m3da7c45486" x="331.11968" y="80.142015" style="fill: #1f77b4; stroke: #1f77b4"/>
     <use xlink:href="#m3da7c45486" x="332.75111" y="77.057107" style="fill: #1f77b4; stroke: #1f77b4"/>
     <use xlink:href="#m3da7c45486" x="334.38254" y="77.209313" style="fill: #1f77b4; stroke: #1f77b4"/>
     <use xlink:href="#m3da7c45486" x="336.013969" y="76.518482" style="fill: #1f77b4; stroke: #1f77b4"/>
     <use xlink:href="#m3da7c45486" x="337.645399" y="75.431524" style="fill: #1f77b4; stroke: #1f77b4"/>
     <use xlink:href="#m3da7c45486" x="339.276829" y="74.737485" style="fill: #1f77b4; stroke: #1f77b4"/>
     <use xlink:href="#m3da7c45486" x="340.908259" y="75.294135" style="fill: #1f77b4; stroke: #1f77b4"/>
     <use xlink:href="#m3da7c45486" x="342.539689" y="74.46373" style="fill: #1f77b4; stroke: #1f77b4"/>
     <use xlink:href="#m3da7c45486" x="344.171119" y="73.320473" style="fill: #1f77b4; stroke: #1f77b4"/>
     <use xlink:href="#m3da7c45486" x="345.802549" y="73.20051" style="fill: #1f77b4; stroke: #1f77b4"/>
     <use xlink:href="#m3da7c45486" x="347.433979" y="72.45357" style="fill: #1f77b4; stroke: #1f77b4"/>
     <use xlink:href="#m3da7c45486" x="349.065408" y="71.395153" style="fill: #1f77b4; stroke: #1f77b4"/>
     <use xlink:href="#m3da7c45486" x="350.696838" y="72.357352" style="fill: #1f77b4; stroke: #1f77b4"/>
     <use xlink:href="#m3da7c45486" x="352.328268" y="72.657874" style="fill: #1f77b4; stroke: #1f77b4"/>
     <use xlink:href="#m3da7c45486" x="353.959698" y="72.369515" style="fill: #1f77b4; stroke: #1f77b4"/>
     <use xlink:href="#m3da7c45486" x="355.591128" y="71.217154" style="fill: #1f77b4; stroke: #1f77b4"/>
     <use xlink:href="#m3da7c45486" x="357.222558" y="72.127292" style="fill: #1f77b4; stroke: #1f77b4"/>
     <use xlink:href="#m3da7c45486" x="358.853988" y="71.171825" style="fill: #1f77b4; stroke: #1f77b4"/>
     <use xlink:href="#m3da7c45486" x="360.485418" y="71.397446" style="fill: #1f77b4; stroke: #1f77b4"/>
     <use xlink:href="#m3da7c45486" x="362.116847" y="71.776185" style="fill: #1f77b4; stroke: #1f77b4"/>
     <use xlink:href="#m3da7c45486" x="363.748277" y="71.646384" style="fill: #1f77b4; stroke: #1f77b4"/>
     <use xlink:href="#m3da7c45486" x="365.379707" y="69.940952" style="fill: #1f77b4; stroke: #1f77b4"/>
     <use xlink:href="#m3da7c45486" x="367.011137" y="70.455878" style="fill: #1f77b4; stroke: #1f77b4"/>
     <use xlink:href="#m3da7c45486" x="368.642567" y="71.908263" style="fill: #1f77b4; stroke: #1f77b4"/>
     <use xlink:href="#m3da7c45486" x="370.273997" y="70.67892" style="fill: #1f77b4; stroke: #1f77b4"/>
     <use xlink:href="#m3da7c45486" x="371.905427" y="71.038194" style="fill: #1f77b4; stroke: #1f77b4"/>
     <use xlink:href="#m3da7c45486" x="373.536857" y="72.074609" style="fill: #1f77b4; stroke: #1f77b4"/>
     <use xlink:href="#m3da7c45486" x="375.168286" y="69.808627" style="fill: #1f77b4; stroke: #1f77b4"/>
     <use xlink:href="#m3da7c45486" x="376.799716" y="71.980165" style="fill: #1f77b4; stroke: #1f77b4"/>
     <use xlink:href="#m3da7c45486" x="378.431146" y="70.339471" style="fill: #1f77b4; stroke: #1f77b4"/>
     <use xlink:href="#m3da7c45486" x="380.062576" y="70.931742" style="fill: #1f77b4; stroke: #1f77b4"/>
     <use xlink:href="#m3da7c45486" x="381.694006" y="70.443839" style="fill: #1f77b4; stroke: #1f77b4"/>
     <use xlink:href="#m3da7c45486" x="383.325436" y="72.552146" style="fill: #1f77b4; stroke: #1f77b4"/>
     <use xlink:href="#m3da7c45486" x="384.956866" y="70.518807" style="fill: #1f77b4; stroke: #1f77b4"/>
     <use xlink:href="#m3da7c45486" x="386.588296" y="70.348923" style="fill: #1f77b4; stroke: #1f77b4"/>
     <use xlink:href="#m3da7c45486" x="388.219725" y="70.981415" style="fill: #1f77b4; stroke: #1f77b4"/>
     <use xlink:href="#m3da7c45486" x="389.851155" y="70.005405" style="fill: #1f77b4; stroke: #1f77b4"/>
     <use xlink:href="#m3da7c45486" x="391.482585" y="71.242775" style="fill: #1f77b4; stroke: #1f77b4"/>
    </g>
   </g>
   <g id="line2d_13">
    <path d="M 66.82804 57.09519 
L 180.895853 57.243192 
L 207.869154 57.495297 
L 223.79315 57.854791 
L 234.517475 58.304161 
L 242.641963 58.856427 
L 248.816574 59.481685 
L 254.016246 60.223036 
L 258.24098 61.037817 
L 261.815755 61.936558 
L 265.06555 62.980069 
L 267.990366 64.164467 
L 270.590202 65.472008 
L 272.865059 66.867501 
L 274.814936 68.296472 
L 276.764813 69.989023 
L 278.71469 72.00235 
L 280.339588 73.975239 
L 281.964485 76.267552 
L 283.589383 78.935339 
L 285.214281 82.042507 
L 286.839178 85.659992 
L 288.464076 89.863349 
L 290.088973 94.727847 
L 291.713871 100.319959 
L 293.338769 106.683969 
L 295.288646 115.338704 
L 297.563503 126.646166 
L 301.138277 144.917175 
L 302.113216 148.854918 
L 302.763175 150.706991 
L 303.088154 151.30416 
L 303.413134 151.644189 
L 303.738113 151.711338 
L 304.063093 151.505109 
L 304.388073 151.040619 
L 305.038032 149.452472 
L 306.01297 145.929613 
L 307.637868 138.703381 
L 310.887663 123.976248 
L 312.83754 116.118131 
L 314.787417 109.206499 
L 316.737294 103.218882 
L 318.362192 98.876524 
L 319.98709 95.059514 
L 321.936967 91.086779 
L 323.886844 87.68327 
L 325.836721 84.760271 
L 327.786598 82.241315 
L 329.736475 80.061777 
L 332.011332 77.876449 
L 334.286189 76.009764 
L 336.886025 74.194805 
L 339.485861 72.656144 
L 342.410677 71.191098 
L 345.660472 69.827231 
L 349.235247 68.579961 
L 353.135001 67.455032 
L 357.684715 66.381635 
L 362.884387 65.39316 
L 369.058998 64.462909 
L 376.208548 63.624044 
L 384.658015 62.864464 
L 391.482585 62.381998 
L 391.482585 62.381998 
" clip-path="url(#p268d6d53c3)" style="fill: none; stroke: #d62728; stroke-width: 1.5; stroke-linecap: square"/>
   </g>
   <g id="patch_3">
    <path d="M 50.595313 162.72 
L 50.595313 41.76 
" style="fill: none; stroke: #000000; stroke-width: 0.8; stroke-linejoin: miter; stroke-linecap: square"/>
   </g>
   <g id="patch_4">
    <path d="M 407.715312 162.72 
L 407.715312 41.76 
" style="fill: none; stroke: #000000; stroke-width: 0.8; stroke-linejoin: miter; stroke-linecap: square"/>
   </g>
   <g id="patch_5">
    <path d="M 50.595312 162.72 
L 407.715313 162.72 
" style="fill: none; stroke: #000000; stroke-width: 0.8; stroke-linejoin: miter; stroke-linecap: square"/>
   </g>
   <g id="patch_6">
    <path d="M 50.595312 41.76 
L 407.715313 41.76 
" style="fill: none; stroke: #000000; stroke-width: 0.8; stroke-linejoin: miter; stroke-linecap: square"/>
   </g>
   <g id="text_6">
    <g id="patch_7">
     <path d="M 425.571312 95.079562 
L 564.171312 95.079562 
Q 568.171312 95.079562 568.171312 91.079562 
L 568.171312 47.808 
Q 568.171312 43.808 564.171312 43.808 
L 425.571312 43.808 
Q 421.571312 43.808 421.571312 47.808 
L 421.571312 91.079562 
Q 421.571312 95.079562 425.571312 95.079562 
z
" style="fill: #ffffff; opacity: 0.5; stroke: #000000; stroke-linejoin: miter"/>
    </g>
    <!-- Summary -->
    <g transform="translate(425.571312 55.406437) scale(0.1 -0.1)">
     <defs>
      <path id="DejaVuSans-53" d="M 3425 4513 
L 3425 3897 
Q 3066 4069 2747 4153 
Q 2428 4238 2131 4238 
Q 1616 4238 1336 4038 
Q 1056 3838 1056 3469 
Q 1056 3159 1242 3001 
Q 1428 2844 1947 2747 
L 2328 2669 
Q 3034 2534 3370 2195 
Q 3706 1856 3706 1288 
Q 3706 609 3251 259 
Q 2797 -91 1919 -91 
Q 1588 -91 1214 -16 
Q 841 59 441 206 
L 441 856 
Q 825 641 1194 531 
Q 1563 422 1919 422 
Q 2459 422 2753 634 
Q 3047 847 3047 1241 
Q 3047 1584 2836 1778 
Q 2625 1972 2144 2069 
L 1759 2144 
Q 1053 2284 737 2584 
Q 422 2884 422 3419 
Q 422 4038 858 4394 
Q 1294 4750 2059 4750 
Q 2388 4750 2728 4690 
Q 3069 4631 3425 4513 
z
" transform="scale(0.015625)"/>
      <path id="DejaVuSans-75" d="M 544 1381 
L 544 3500 
L 1119 3500 
L 1119 1403 
Q 1119 906 1312 657 
Q 1506 409 1894 409 
Q 2359 409 2629 706 
Q 2900 1003 2900 1516 
L 2900 3500 
L 3475 3500 
L 3475 0 
L 2900 0 
L 2900 538 
Q 2691 219 2414 64 
Q 2138 -91 1772 -91 
Q 1169 -91 856 284 
Q 544 659 544 1381 
z
M 1991 3584 
L 1991 3584 
z
" transform="scale(0.015625)"/>
      <path id="DejaVuSans-61" d="M 2194 1759 
Q 1497 1759 1228 1600 
Q 959 1441 959 1056 
Q 959 750 1161 570 
Q 1363 391 1709 391 
Q 2188 391 2477 730 
Q 2766 1069 2766 1631 
L 2766 1759 
L 2194 1759 
z
M 3341 1997 
L 3341 0 
L 2766 0 
L 2766 531 
Q 2569 213 2275 61 
Q 1981 -91 1556 -91 
Q 1019 -91 701 211 
Q 384 513 384 1019 
Q 384 1609 779 1909 
Q 1175 2209 1959 2209 
L 2766 2209 
L 2766 2266 
Q 2766 2663 2505 2880 
Q 2244 3097 1772 3097 
Q 1472 3097 1187 3025 
Q 903 2953 641 2809 
L 641 3341 
Q 956 3463 1253 3523 
Q 1550 3584 1831 3584 
Q 2591 3584 2966 3190 
Q 3341 2797 3341 1997 
z
" transform="scale(0.015625)"/>
      <path id="DejaVuSans-72" d="M 2631 2963 
Q 2534 3019 2420 3045 
Q 2306 3072 2169 3072 
Q 1681 3072 1420 2755 
Q 1159 2438 1159 1844 
L 1159 0 
L 581 0 
L 581 3500 
L 1159 3500 
L 1159 2956 
Q 1341 3275 1631 3429 
Q 1922 3584 2338 3584 
Q 2397 3584 2469 3576 
Q 2541 3569 2628 3553 
L 2631 2963 
z
" transform="scale(0.015625)"/>
      <path id="DejaVuSans-79" d="M 2059 -325 
Q 1816 -950 1584 -1140 
Q 1353 -1331 966 -1331 
L 506 -1331 
L 506 -850 
L 844 -850 
Q 1081 -850 1212 -737 
Q 1344 -625 1503 -206 
L 1606 56 
L 191 3500 
L 800 3500 
L 1894 763 
L 2988 3500 
L 3597 3500 
L 2059 -325 
z
" transform="scale(0.015625)"/>
     </defs>
     <use xlink:href="#DejaVuSans-53"/>
     <use xlink:href="#DejaVuSans-75" x="63.476562"/>
     <use xlink:href="#DejaVuSans-6d" x="126.855469"/>
     <use xlink:href="#DejaVuSans-6d" x="224.267578"/>
     <use xlink:href="#DejaVuSans-61" x="321.679688"/>
     <use xlink:href="#DejaVuSans-72" x="382.958984"/>
     <use xlink:href="#DejaVuSans-79" x="424.072266"/>
    </g>
    <!-- $Q_I$: 14.1$\pm$1.0 k -->
    <g transform="translate(425.571312 66.60425) scale(0.1 -0.1)">
     <defs>
      <path id="DejaVuSans-Oblique-51" d="M 2309 -84 
Q 2275 -88 2237 -89 
Q 2200 -91 2125 -91 
Q 1250 -91 756 411 
Q 263 913 263 1797 
Q 263 2319 452 2844 
Q 641 3369 978 3788 
Q 1369 4269 1858 4509 
Q 2347 4750 2938 4750 
Q 3794 4750 4287 4245 
Q 4781 3741 4781 2869 
Q 4781 1928 4265 1147 
Q 3750 366 2919 44 
L 3553 -825 
L 2847 -825 
L 2309 -84 
z
M 2919 4238 
Q 2400 4238 2003 3986 
Q 1606 3734 1313 3219 
Q 1125 2891 1026 2522 
Q 928 2153 928 1778 
Q 928 1128 1239 775 
Q 1550 422 2119 422 
Q 2631 422 3032 676 
Q 3434 931 3719 1434 
Q 3909 1772 4009 2142 
Q 4109 2513 4109 2881 
Q 4109 3528 3796 3883 
Q 3484 4238 2919 4238 
z
" transform="scale(0.015625)"/>
      <path id="DejaVuSans-Oblique-49" d="M 1081 4666 
L 1716 4666 
L 806 0 
L 172 0 
L 1081 4666 
z
" transform="scale(0.015625)"/>
      <path id="DejaVuSans-3a" d="M 750 794 
L 1409 794 
L 1409 0 
L 750 0 
L 750 794 
z
M 750 3309 
L 1409 3309 
L 1409 2516 
L 750 2516 
L 750 3309 
z
" transform="scale(0.015625)"/>
      <path id="DejaVuSans-2e" d="M 684 794 
L 1344 794 
L 1344 0 
L 684 0 
L 684 794 
z
" transform="scale(0.015625)"/>
      <path id="DejaVuSans-b1" d="M 2944 4013 
L 2944 2803 
L 4684 2803 
L 4684 2272 
L 2944 2272 
L 2944 1063 
L 2419 1063 
L 2419 2272 
L 678 2272 
L 678 2803 
L 2419 2803 
L 2419 4013 
L 2944 4013 
z
M 678 531 
L 4684 531 
L 4684 0 
L 678 0 
L 678 531 
z
" transform="scale(0.015625)"/>
      <path id="DejaVuSans-30" d="M 2034 4250 
Q 1547 4250 1301 3770 
Q 1056 3291 1056 2328 
Q 1056 1369 1301 889 
Q 1547 409 2034 409 
Q 2525 409 2770 889 
Q 3016 1369 3016 2328 
Q 3016 3291 2770 3770 
Q 2525 4250 2034 4250 
z
M 2034 4750 
Q 2819 4750 3233 4129 
Q 3647 3509 3647 2328 
Q 3647 1150 3233 529 
Q 2819 -91 2034 -91 
Q 1250 -91 836 529 
Q 422 1150 422 2328 
Q 422 3509 836 4129 
Q 1250 4750 2034 4750 
z
" transform="scale(0.015625)"/>
      <path id="DejaVuSans-6b" d="M 581 4863 
L 1159 4863 
L 1159 1991 
L 2875 3500 
L 3609 3500 
L 1753 1863 
L 3688 0 
L 2938 0 
L 1159 1709 
L 1159 0 
L 581 0 
L 581 4863 
z
" transform="scale(0.015625)"/>
     </defs>
     <use xlink:href="#DejaVuSans-Oblique-51" transform="translate(0 0.015625)"/>
     <use xlink:href="#DejaVuSans-Oblique-49" transform="translate(78.710938 -16.390625) scale(0.7)"/>
     <use xlink:href="#DejaVuSans-3a" transform="translate(102.089844 0.015625)"/>
     <use xlink:href="#DejaVuSans-20" transform="translate(135.78125 0.015625)"/>
     <use xlink:href="#DejaVuSans-31" transform="translate(167.568359 0.015625)"/>
     <use xlink:href="#DejaVuSans-34" transform="translate(231.191406 0.015625)"/>
     <use xlink:href="#DejaVuSans-2e" transform="translate(294.814453 0.015625)"/>
     <use xlink:href="#DejaVuSans-31" transform="translate(326.601562 0.015625)"/>
     <use xlink:href="#DejaVuSans-b1" transform="translate(390.224609 0.015625)"/>
     <use xlink:href="#DejaVuSans-31" transform="translate(474.013672 0.015625)"/>
     <use xlink:href="#DejaVuSans-2e" transform="translate(537.636719 0.015625)"/>
     <use xlink:href="#DejaVuSans-30" transform="translate(569.423828 0.015625)"/>
     <use xlink:href="#DejaVuSans-20" transform="translate(633.046875 0.015625)"/>
     <use xlink:href="#DejaVuSans-6b" transform="translate(664.833984 0.015625)"/>
    </g>
    <!-- $Q_C$: 2.225$\pm$0.028 k -->
    <g transform="translate(425.571312 77.802062) scale(0.1 -0.1)">
     <defs>
      <path id="DejaVuSans-Oblique-43" d="M 4447 4306 
L 4319 3641 
Q 4019 3944 3683 4091 
Q 3347 4238 2956 4238 
Q 2422 4238 2017 3981 
Q 1613 3725 1319 3200 
Q 1131 2863 1032 2486 
Q 934 2109 934 1728 
Q 934 1091 1264 756 
Q 1594 422 2222 422 
Q 2656 422 3056 561 
Q 3456 700 3834 978 
L 3688 231 
Q 3316 72 2936 -9 
Q 2556 -91 2175 -91 
Q 1278 -91 773 396 
Q 269 884 269 1753 
Q 269 2309 461 2846 
Q 653 3384 1013 3828 
Q 1394 4300 1883 4525 
Q 2372 4750 3022 4750 
Q 3422 4750 3780 4639 
Q 4138 4528 4447 4306 
z
" transform="scale(0.015625)"/>
      <path id="DejaVuSans-35" d="M 691 4666 
L 3169 4666 
L 3169 4134 
L 1269 4134 
L 1269 2991 
Q 1406 3038 1543 3061 
Q 1681 3084 1819 3084 
Q 2600 3084 3056 2656 
Q 3513 2228 3513 1497 
Q 3513 744 3044 326 
Q 2575 -91 1722 -91 
Q 1428 -91 1123 -41 
Q 819 9 494 109 
L 494 744 
Q 775 591 1075 516 
Q 1375 441 1709 441 
Q 2250 441 2565 725 
Q 2881 1009 2881 1497 
Q 2881 1984 2565 2268 
Q 2250 2553 1709 2553 
Q 1456 2553 1204 2497 
Q 953 2441 691 2322 
L 691 4666 
z
" transform="scale(0.015625)"/>
     </defs>
     <use xlink:href="#DejaVuSans-Oblique-51" transform="translate(0 0.015625)"/>
     <use xlink:href="#DejaVuSans-Oblique-43" transform="translate(78.710938 -16.390625) scale(0.7)"/>
     <use xlink:href="#DejaVuSans-3a" transform="translate(130.322266 0.015625)"/>
     <use xlink:href="#DejaVuSans-20" transform="translate(164.013672 0.015625)"/>
     <use xlink:href="#DejaVuSans-32" transform="translate(195.800781 0.015625)"/>
     <use xlink:href="#DejaVuSans-2e" transform="translate(259.423828 0.015625)"/>
     <use xlink:href="#DejaVuSans-32" transform="translate(285.710938 0.015625)"/>
     <use xlink:href="#DejaVuSans-32" transform="translate(349.333984 0.015625)"/>
     <use xlink:href="#DejaVuSans-35" transform="translate(412.957031 0.015625)"/>
     <use xlink:href="#DejaVuSans-b1" transform="translate(476.580078 0.015625)"/>
     <use xlink:href="#DejaVuSans-30" transform="translate(560.369141 0.015625)"/>
     <use xlink:href="#DejaVuSans-2e" transform="translate(623.992188 0.015625)"/>
     <use xlink:href="#DejaVuSans-30" transform="translate(655.779297 0.015625)"/>
     <use xlink:href="#DejaVuSans-32" transform="translate(719.402344 0.015625)"/>
     <use xlink:href="#DejaVuSans-38" transform="translate(783.025391 0.015625)"/>
     <use xlink:href="#DejaVuSans-20" transform="translate(846.648438 0.015625)"/>
     <use xlink:href="#DejaVuSans-6b" transform="translate(878.435547 0.015625)"/>
    </g>
    <!-- $f_{res}$: 6.106704$\pm$2.7e-05 GHz -->
    <g transform="translate(425.571312 88.999875) scale(0.1 -0.1)">
     <defs>
      <path id="DejaVuSans-Oblique-66" d="M 3059 4863 
L 2969 4384 
L 2419 4384 
Q 2106 4384 1964 4261 
Q 1822 4138 1753 3809 
L 1691 3500 
L 2638 3500 
L 2553 3053 
L 1606 3053 
L 1013 0 
L 434 0 
L 1031 3053 
L 481 3053 
L 563 3500 
L 1113 3500 
L 1159 3744 
Q 1278 4363 1576 4613 
Q 1875 4863 2516 4863 
L 3059 4863 
z
" transform="scale(0.015625)"/>
      <path id="DejaVuSans-Oblique-72" d="M 2853 2969 
Q 2766 3016 2653 3041 
Q 2541 3066 2413 3066 
Q 1953 3066 1609 2717 
Q 1266 2369 1153 1784 
L 800 0 
L 225 0 
L 909 3500 
L 1484 3500 
L 1375 2956 
Q 1603 3259 1920 3421 
Q 2238 3584 2597 3584 
Q 2691 3584 2781 3573 
Q 2872 3563 2963 3538 
L 2853 2969 
z
" transform="scale(0.015625)"/>
      <path id="DejaVuSans-Oblique-65" d="M 3078 2063 
Q 3088 2113 3092 2166 
Q 3097 2219 3097 2272 
Q 3097 2653 2873 2875 
Q 2650 3097 2266 3097 
Q 1838 3097 1509 2826 
Q 1181 2556 1013 2059 
L 3078 2063 
z
M 3578 1613 
L 903 1613 
Q 884 1494 878 1425 
Q 872 1356 872 1306 
Q 872 872 1139 634 
Q 1406 397 1894 397 
Q 2269 397 2603 481 
Q 2938 566 3225 728 
L 3116 159 
Q 2806 34 2476 -28 
Q 2147 -91 1806 -91 
Q 1078 -91 686 257 
Q 294 606 294 1247 
Q 294 1794 489 2264 
Q 684 2734 1063 3103 
Q 1306 3334 1642 3459 
Q 1978 3584 2356 3584 
Q 2950 3584 3301 3228 
Q 3653 2872 3653 2272 
Q 3653 2128 3634 1964 
Q 3616 1800 3578 1613 
z
" transform="scale(0.015625)"/>
      <path id="DejaVuSans-Oblique-73" d="M 3200 3397 
L 3091 2853 
Q 2863 2978 2609 3040 
Q 2356 3103 2088 3103 
Q 1634 3103 1373 2948 
Q 1113 2794 1113 2528 
Q 1113 2219 1719 2053 
Q 1766 2041 1788 2034 
L 1972 1978 
Q 2547 1819 2739 1644 
Q 2931 1469 2931 1166 
Q 2931 609 2489 259 
Q 2047 -91 1331 -91 
Q 1053 -91 747 -37 
Q 441 16 72 128 
L 184 722 
Q 500 559 806 475 
Q 1113 391 1394 391 
Q 1816 391 2080 572 
Q 2344 753 2344 1031 
Q 2344 1331 1650 1516 
L 1591 1531 
L 1394 1581 
Q 956 1697 753 1886 
Q 550 2075 550 2369 
Q 550 2928 970 3256 
Q 1391 3584 2113 3584 
Q 2397 3584 2667 3537 
Q 2938 3491 3200 3397 
z
" transform="scale(0.015625)"/>
      <path id="DejaVuSans-37" d="M 525 4666 
L 3525 4666 
L 3525 4397 
L 1831 0 
L 1172 0 
L 2766 4134 
L 525 4134 
L 525 4666 
z
" transform="scale(0.015625)"/>
      <path id="DejaVuSans-65" d="M 3597 1894 
L 3597 1613 
L 953 1613 
Q 991 1019 1311 708 
Q 1631 397 2203 397 
Q 2534 397 2845 478 
Q 3156 559 3463 722 
L 3463 178 
Q 3153 47 2828 -22 
Q 2503 -91 2169 -91 
Q 1331 -91 842 396 
Q 353 884 353 1716 
Q 353 2575 817 3079 
Q 1281 3584 2069 3584 
Q 2775 3584 3186 3129 
Q 3597 2675 3597 1894 
z
M 3022 2063 
Q 3016 2534 2758 2815 
Q 2500 3097 2075 3097 
Q 1594 3097 1305 2825 
Q 1016 2553 972 2059 
L 3022 2063 
z
" transform="scale(0.015625)"/>
      <path id="DejaVuSans-2d" d="M 313 2009 
L 1997 2009 
L 1997 1497 
L 313 1497 
L 313 2009 
z
" transform="scale(0.015625)"/>
      <path id="DejaVuSans-47" d="M 3809 666 
L 3809 1919 
L 2778 1919 
L 2778 2438 
L 4434 2438 
L 4434 434 
Q 4069 175 3628 42 
Q 3188 -91 2688 -91 
Q 1594 -91 976 548 
Q 359 1188 359 2328 
Q 359 3472 976 4111 
Q 1594 4750 2688 4750 
Q 3144 4750 3555 4637 
Q 3966 4525 4313 4306 
L 4313 3634 
Q 3963 3931 3569 4081 
Q 3175 4231 2741 4231 
Q 1884 4231 1454 3753 
Q 1025 3275 1025 2328 
Q 1025 1384 1454 906 
Q 1884 428 2741 428 
Q 3075 428 3337 486 
Q 3600 544 3809 666 
z
" transform="scale(0.015625)"/>
      <path id="DejaVuSans-48" d="M 628 4666 
L 1259 4666 
L 1259 2753 
L 3553 2753 
L 3553 4666 
L 4184 4666 
L 4184 0 
L 3553 0 
L 3553 2222 
L 1259 2222 
L 1259 0 
L 628 0 
L 628 4666 
z
" transform="scale(0.015625)"/>
      <path id="DejaVuSans-7a" d="M 353 3500 
L 3084 3500 
L 3084 2975 
L 922 459 
L 3084 459 
L 3084 0 
L 275 0 
L 275 525 
L 2438 3041 
L 353 3041 
L 353 3500 
z
" transform="scale(0.015625)"/>
     </defs>
     <use xlink:href="#DejaVuSans-Oblique-66" transform="translate(0 0.015625)"/>
     <use xlink:href="#DejaVuSans-Oblique-72" transform="translate(35.205078 -16.390625) scale(0.7)"/>
     <use xlink:href="#DejaVuSans-Oblique-65" transform="translate(63.984375 -16.390625) scale(0.7)"/>
     <use xlink:href="#DejaVuSans-Oblique-73" transform="translate(107.050781 -16.390625) scale(0.7)"/>
     <use xlink:href="#DejaVuSans-3a" transform="translate(146.254883 0.015625)"/>
     <use xlink:href="#DejaVuSans-20" transform="translate(179.946289 0.015625)"/>
     <use xlink:href="#DejaVuSans-36" transform="translate(211.733398 0.015625)"/>
     <use xlink:href="#DejaVuSans-2e" transform="translate(275.356445 0.015625)"/>
     <use xlink:href="#DejaVuSans-31" transform="translate(307.143555 0.015625)"/>
     <use xlink:href="#DejaVuSans-30" transform="translate(370.766602 0.015625)"/>
     <use xlink:href="#DejaVuSans-36" transform="translate(434.389648 0.015625)"/>
     <use xlink:href="#DejaVuSans-37" transform="translate(498.012695 0.015625)"/>
     <use xlink:href="#DejaVuSans-30" transform="translate(561.635742 0.015625)"/>
     <use xlink:href="#DejaVuSans-34" transform="translate(625.258789 0.015625)"/>
     <use xlink:href="#DejaVuSans-b1" transform="translate(688.881836 0.015625)"/>
     <use xlink:href="#DejaVuSans-32" transform="translate(772.670898 0.015625)"/>
     <use xlink:href="#DejaVuSans-2e" transform="translate(836.293945 0.015625)"/>
     <use xlink:href="#DejaVuSans-37" transform="translate(860.331055 0.015625)"/>
     <use xlink:href="#DejaVuSans-65" transform="translate(923.954102 0.015625)"/>
     <use xlink:href="#DejaVuSans-2d" transform="translate(985.477539 0.015625)"/>
     <use xlink:href="#DejaVuSans-30" transform="translate(1021.561523 0.015625)"/>
     <use xlink:href="#DejaVuSans-35" transform="translate(1085.18457 0.015625)"/>
     <use xlink:href="#DejaVuSans-20" transform="translate(1148.807617 0.015625)"/>
     <use xlink:href="#DejaVuSans-47" transform="translate(1180.594727 0.015625)"/>
     <use xlink:href="#DejaVuSans-48" transform="translate(1258.084961 0.015625)"/>
     <use xlink:href="#DejaVuSans-7a" transform="translate(1333.280273 0.015625)"/>
    </g>
   </g>
  </g>
  <g id="axes_2">
   <g id="patch_8">
    <path d="M 50.595313 307.872 
L 407.715312 307.872 
L 407.715312 186.912 
L 50.595313 186.912 
z
" style="fill: #ffffff"/>
   </g>
   <g id="matplotlib.axis_3">
    <g id="xtick_8">
     <g id="line2d_14">
      <g>
       <use xlink:href="#m5580f988b1" x="66.82804" y="307.872" style="stroke: #000000; stroke-width: 0.8"/>
      </g>
     </g>
     <g id="text_7">
      <!-- 85 -->
      <g transform="translate(60.46554 322.470438) scale(0.1 -0.1)">
       <use xlink:href="#DejaVuSans-38"/>
       <use xlink:href="#DejaVuSans-35" x="63.623047"/>
      </g>
     </g>
    </g>
    <g id="xtick_9">
     <g id="line2d_15">
      <g>
       <use xlink:href="#m5580f988b1" x="120.937131" y="307.872" style="stroke: #000000; stroke-width: 0.8"/>
      </g>
     </g>
     <g id="text_8">
      <!-- 90 -->
      <g transform="translate(114.574631 322.470438) scale(0.1 -0.1)">
       <defs>
        <path id="DejaVuSans-39" d="M 703 97 
L 703 672 
Q 941 559 1184 500 
Q 1428 441 1663 441 
Q 2288 441 2617 861 
Q 2947 1281 2994 2138 
Q 2813 1869 2534 1725 
Q 2256 1581 1919 1581 
Q 1219 1581 811 2004 
Q 403 2428 403 3163 
Q 403 3881 828 4315 
Q 1253 4750 1959 4750 
Q 2769 4750 3195 4129 
Q 3622 3509 3622 2328 
Q 3622 1225 3098 567 
Q 2575 -91 1691 -91 
Q 1453 -91 1209 -44 
Q 966 3 703 97 
z
M 1959 2075 
Q 2384 2075 2632 2365 
Q 2881 2656 2881 3163 
Q 2881 3666 2632 3958 
Q 2384 4250 1959 4250 
Q 1534 4250 1286 3958 
Q 1038 3666 1038 3163 
Q 1038 2656 1286 2365 
Q 1534 2075 1959 2075 
z
" transform="scale(0.015625)"/>
       </defs>
       <use xlink:href="#DejaVuSans-39"/>
       <use xlink:href="#DejaVuSans-30" x="63.623047"/>
      </g>
     </g>
    </g>
    <g id="xtick_10">
     <g id="line2d_16">
      <g>
       <use xlink:href="#m5580f988b1" x="175.046222" y="307.872" style="stroke: #000000; stroke-width: 0.8"/>
      </g>
     </g>
     <g id="text_9">
      <!-- 95 -->
      <g transform="translate(168.683722 322.470438) scale(0.1 -0.1)">
       <use xlink:href="#DejaVuSans-39"/>
       <use xlink:href="#DejaVuSans-35" x="63.623047"/>
      </g>
     </g>
    </g>
    <g id="xtick_11">
     <g id="line2d_17">
      <g>
       <use xlink:href="#m5580f988b1" x="229.155312" y="307.872" style="stroke: #000000; stroke-width: 0.8"/>
      </g>
     </g>
     <g id="text_10">
      <!-- 100 -->
      <g transform="translate(219.611562 322.470438) scale(0.1 -0.1)">
       <use xlink:href="#DejaVuSans-31"/>
       <use xlink:href="#DejaVuSans-30" x="63.623047"/>
       <use xlink:href="#DejaVuSans-30" x="127.246094"/>
      </g>
     </g>
    </g>
    <g id="xtick_12">
     <g id="line2d_18">
      <g>
       <use xlink:href="#m5580f988b1" x="283.264403" y="307.872" style="stroke: #000000; stroke-width: 0.8"/>
      </g>
     </g>
     <g id="text_11">
      <!-- 105 -->
      <g transform="translate(273.720653 322.470438) scale(0.1 -0.1)">
       <use xlink:href="#DejaVuSans-31"/>
       <use xlink:href="#DejaVuSans-30" x="63.623047"/>
       <use xlink:href="#DejaVuSans-35" x="127.246094"/>
      </g>
     </g>
    </g>
    <g id="xtick_13">
     <g id="line2d_19">
      <g>
       <use xlink:href="#m5580f988b1" x="337.373494" y="307.872" style="stroke: #000000; stroke-width: 0.8"/>
      </g>
     </g>
     <g id="text_12">
      <!-- 110 -->
      <g transform="translate(327.829744 322.470438) scale(0.1 -0.1)">
       <use xlink:href="#DejaVuSans-31"/>
       <use xlink:href="#DejaVuSans-31" x="63.623047"/>
       <use xlink:href="#DejaVuSans-30" x="127.246094"/>
      </g>
     </g>
    </g>
    <g id="xtick_14">
     <g id="line2d_20">
      <g>
       <use xlink:href="#m5580f988b1" x="391.482585" y="307.872" style="stroke: #000000; stroke-width: 0.8"/>
      </g>
     </g>
     <g id="text_13">
      <!-- 115 -->
      <g transform="translate(381.938835 322.470438) scale(0.1 -0.1)">
       <use xlink:href="#DejaVuSans-31"/>
       <use xlink:href="#DejaVuSans-31" x="63.623047"/>
       <use xlink:href="#DejaVuSans-35" x="127.246094"/>
      </g>
     </g>
    </g>
    <g id="text_14">
     <!-- Frequency [MHz] -->
     <g transform="translate(187.136562 336.148562) scale(0.1 -0.1)">
      <defs>
       <path id="DejaVuSans-46" d="M 628 4666 
L 3309 4666 
L 3309 4134 
L 1259 4134 
L 1259 2759 
L 3109 2759 
L 3109 2228 
L 1259 2228 
L 1259 0 
L 628 0 
L 628 4666 
z
" transform="scale(0.015625)"/>
       <path id="DejaVuSans-71" d="M 947 1747 
Q 947 1113 1208 752 
Q 1469 391 1925 391 
Q 2381 391 2643 752 
Q 2906 1113 2906 1747 
Q 2906 2381 2643 2742 
Q 2381 3103 1925 3103 
Q 1469 3103 1208 2742 
Q 947 2381 947 1747 
z
M 2906 525 
Q 2725 213 2448 61 
Q 2172 -91 1784 -91 
Q 1150 -91 751 415 
Q 353 922 353 1747 
Q 353 2572 751 3078 
Q 1150 3584 1784 3584 
Q 2172 3584 2448 3432 
Q 2725 3281 2906 2969 
L 2906 3500 
L 3481 3500 
L 3481 -1331 
L 2906 -1331 
L 2906 525 
z
" transform="scale(0.015625)"/>
       <path id="DejaVuSans-6e" d="M 3513 2113 
L 3513 0 
L 2938 0 
L 2938 2094 
Q 2938 2591 2744 2837 
Q 2550 3084 2163 3084 
Q 1697 3084 1428 2787 
Q 1159 2491 1159 1978 
L 1159 0 
L 581 0 
L 581 3500 
L 1159 3500 
L 1159 2956 
Q 1366 3272 1645 3428 
Q 1925 3584 2291 3584 
Q 2894 3584 3203 3211 
Q 3513 2838 3513 2113 
z
" transform="scale(0.015625)"/>
       <path id="DejaVuSans-63" d="M 3122 3366 
L 3122 2828 
Q 2878 2963 2633 3030 
Q 2388 3097 2138 3097 
Q 1578 3097 1268 2742 
Q 959 2388 959 1747 
Q 959 1106 1268 751 
Q 1578 397 2138 397 
Q 2388 397 2633 464 
Q 2878 531 3122 666 
L 3122 134 
Q 2881 22 2623 -34 
Q 2366 -91 2075 -91 
Q 1284 -91 818 406 
Q 353 903 353 1747 
Q 353 2603 823 3093 
Q 1294 3584 2113 3584 
Q 2378 3584 2631 3529 
Q 2884 3475 3122 3366 
z
" transform="scale(0.015625)"/>
       <path id="DejaVuSans-4d" d="M 628 4666 
L 1569 4666 
L 2759 1491 
L 3956 4666 
L 4897 4666 
L 4897 0 
L 4281 0 
L 4281 4097 
L 3078 897 
L 2444 897 
L 1241 4097 
L 1241 0 
L 628 0 
L 628 4666 
z
" transform="scale(0.015625)"/>
      </defs>
      <use xlink:href="#DejaVuSans-46"/>
      <use xlink:href="#DejaVuSans-72" x="50.269531"/>
      <use xlink:href="#DejaVuSans-65" x="89.132812"/>
      <use xlink:href="#DejaVuSans-71" x="150.65625"/>
      <use xlink:href="#DejaVuSans-75" x="214.132812"/>
      <use xlink:href="#DejaVuSans-65" x="277.511719"/>
      <use xlink:href="#DejaVuSans-6e" x="339.035156"/>
      <use xlink:href="#DejaVuSans-63" x="402.414062"/>
      <use xlink:href="#DejaVuSans-79" x="457.394531"/>
      <use xlink:href="#DejaVuSans-20" x="516.574219"/>
      <use xlink:href="#DejaVuSans-5b" x="548.361328"/>
      <use xlink:href="#DejaVuSans-4d" x="587.375"/>
      <use xlink:href="#DejaVuSans-48" x="673.654297"/>
      <use xlink:href="#DejaVuSans-7a" x="748.849609"/>
      <use xlink:href="#DejaVuSans-5d" x="801.339844"/>
     </g>
    </g>
    <g id="text_15">
     <!-- +6 GHz -->
     <g transform="translate(369.277812 335.148562) scale(0.1 -0.1)">
      <defs>
       <path id="DejaVuSans-2b" d="M 2944 4013 
L 2944 2272 
L 4684 2272 
L 4684 1741 
L 2944 1741 
L 2944 0 
L 2419 0 
L 2419 1741 
L 678 1741 
L 678 2272 
L 2419 2272 
L 2419 4013 
L 2944 4013 
z
" transform="scale(0.015625)"/>
      </defs>
      <use xlink:href="#DejaVuSans-2b"/>
      <use xlink:href="#DejaVuSans-36" x="83.789062"/>
      <use xlink:href="#DejaVuSans-20" x="147.412109"/>
      <use xlink:href="#DejaVuSans-47" x="179.199219"/>
      <use xlink:href="#DejaVuSans-48" x="256.689453"/>
      <use xlink:href="#DejaVuSans-7a" x="331.884766"/>
     </g>
    </g>
   </g>
   <g id="matplotlib.axis_4">
    <g id="ytick_5">
     <g id="line2d_21">
      <g>
       <use xlink:href="#mb24e2ce3c9" x="50.595313" y="277.965133" style="stroke: #000000; stroke-width: 0.8"/>
      </g>
     </g>
     <g id="text_16">
      <!-- -100 -->
      <g transform="translate(20.9 281.764352) scale(0.1 -0.1)">
       <use xlink:href="#DejaVuSans-2d"/>
       <use xlink:href="#DejaVuSans-31" x="36.083984"/>
       <use xlink:href="#DejaVuSans-30" x="99.707031"/>
       <use xlink:href="#DejaVuSans-30" x="163.330078"/>
      </g>
     </g>
    </g>
    <g id="ytick_6">
     <g id="line2d_22">
      <g>
       <use xlink:href="#mb24e2ce3c9" x="50.595313" y="247.408048" style="stroke: #000000; stroke-width: 0.8"/>
      </g>
     </g>
     <g id="text_17">
      <!-- 0 -->
      <g transform="translate(37.232813 251.207267) scale(0.1 -0.1)">
       <use xlink:href="#DejaVuSans-30"/>
      </g>
     </g>
    </g>
    <g id="ytick_7">
     <g id="line2d_23">
      <g>
       <use xlink:href="#mb24e2ce3c9" x="50.595313" y="216.850964" style="stroke: #000000; stroke-width: 0.8"/>
      </g>
     </g>
     <g id="text_18">
      <!-- 100 -->
      <g transform="translate(24.507813 220.650182) scale(0.1 -0.1)">
       <use xlink:href="#DejaVuSans-31"/>
       <use xlink:href="#DejaVuSans-30" x="63.623047"/>
       <use xlink:href="#DejaVuSans-30" x="127.246094"/>
      </g>
     </g>
    </g>
    <g id="text_19">
     <!-- $\angle S_{21}$ [deg] -->
     <g transform="translate(14.8 274.592) rotate(-90) scale(0.1 -0.1)">
      <defs>
       <path id="DejaVuSans-2220" d="M 5028 631 
L 5028 0 
L 547 0 
L 3525 4666 
L 4281 4666 
L 1716 631 
L 5028 631 
z
" transform="scale(0.015625)"/>
       <path id="DejaVuSans-64" d="M 2906 2969 
L 2906 4863 
L 3481 4863 
L 3481 0 
L 2906 0 
L 2906 525 
Q 2725 213 2448 61 
Q 2172 -91 1784 -91 
Q 1150 -91 751 415 
Q 353 922 353 1747 
Q 353 2572 751 3078 
Q 1150 3584 1784 3584 
Q 2172 3584 2448 3432 
Q 2725 3281 2906 2969 
z
M 947 1747 
Q 947 1113 1208 752 
Q 1469 391 1925 391 
Q 2381 391 2643 752 
Q 2906 1113 2906 1747 
Q 2906 2381 2643 2742 
Q 2381 3103 1925 3103 
Q 1469 3103 1208 2742 
Q 947 2381 947 1747 
z
" transform="scale(0.015625)"/>
       <path id="DejaVuSans-67" d="M 2906 1791 
Q 2906 2416 2648 2759 
Q 2391 3103 1925 3103 
Q 1463 3103 1205 2759 
Q 947 2416 947 1791 
Q 947 1169 1205 825 
Q 1463 481 1925 481 
Q 2391 481 2648 825 
Q 2906 1169 2906 1791 
z
M 3481 434 
Q 3481 -459 3084 -895 
Q 2688 -1331 1869 -1331 
Q 1566 -1331 1297 -1286 
Q 1028 -1241 775 -1147 
L 775 -588 
Q 1028 -725 1275 -790 
Q 1522 -856 1778 -856 
Q 2344 -856 2625 -561 
Q 2906 -266 2906 331 
L 2906 616 
Q 2728 306 2450 153 
Q 2172 0 1784 0 
Q 1141 0 747 490 
Q 353 981 353 1791 
Q 353 2603 747 3093 
Q 1141 3584 1784 3584 
Q 2172 3584 2450 3431 
Q 2728 3278 2906 2969 
L 2906 3500 
L 3481 3500 
L 3481 434 
z
" transform="scale(0.015625)"/>
      </defs>
      <use xlink:href="#DejaVuSans-2220" transform="translate(0 0.015625)"/>
      <use xlink:href="#DejaVuSans-Oblique-53" transform="translate(89.648438 0.015625)"/>
      <use xlink:href="#DejaVuSans-32" transform="translate(153.125 -16.390625) scale(0.7)"/>
      <use xlink:href="#DejaVuSans-31" transform="translate(197.661133 -16.390625) scale(0.7)"/>
      <use xlink:href="#DejaVuSans-20" transform="translate(244.931641 0.015625)"/>
      <use xlink:href="#DejaVuSans-5b" transform="translate(276.71875 0.015625)"/>
      <use xlink:href="#DejaVuSans-64" transform="translate(315.732422 0.015625)"/>
      <use xlink:href="#DejaVuSans-65" transform="translate(379.208984 0.015625)"/>
      <use xlink:href="#DejaVuSans-67" transform="translate(440.732422 0.015625)"/>
      <use xlink:href="#DejaVuSans-5d" transform="translate(504.208984 0.015625)"/>
     </g>
    </g>
   </g>
   <g id="line2d_24">
    <path d="M 66.82804 276.899905 
L 70.0909 277.55747 
L 71.722329 277.43003 
L 73.353759 277.681319 
L 74.985189 278.107159 
L 76.616619 278.055376 
L 78.248049 278.388707 
L 79.879479 278.546734 
L 81.510909 278.947524 
L 83.142339 278.914799 
L 84.773768 279.132051 
L 86.405198 279.505326 
L 88.036628 279.606234 
L 89.668058 279.965375 
L 91.299488 280.011144 
L 94.562348 280.652577 
L 99.456637 280.964614 
L 105.982357 282.00704 
L 107.613787 282.033908 
L 110.876646 282.371317 
L 112.508076 282.833586 
L 114.139506 282.861106 
L 115.770936 283.232477 
L 117.402366 283.389079 
L 119.033796 283.234496 
L 122.296656 284.001361 
L 123.928085 284.129821 
L 125.559515 284.1222 
L 130.453805 284.829748 
L 132.085235 285.422319 
L 133.716665 285.38208 
L 136.979524 285.733158 
L 138.610954 285.724054 
L 140.242384 285.851259 
L 143.505244 286.527401 
L 145.136674 286.562989 
L 151.662393 287.29639 
L 154.925253 287.558717 
L 156.556683 287.983688 
L 158.188113 287.865239 
L 161.450973 288.282654 
L 163.082402 288.479369 
L 164.713832 288.877784 
L 166.345262 288.800221 
L 167.976692 289.175674 
L 169.608122 289.389382 
L 171.239552 289.774853 
L 172.870982 289.69282 
L 174.502412 289.966071 
L 176.133842 289.967915 
L 179.396701 290.500206 
L 182.659561 290.810979 
L 184.290991 290.793964 
L 187.553851 291.642515 
L 190.81671 291.791844 
L 192.44814 292.09302 
L 195.711 292.449789 
L 197.34243 292.482018 
L 198.97386 292.848855 
L 200.60529 293.089991 
L 202.23672 293.471633 
L 208.762439 294.381422 
L 210.393869 294.349224 
L 212.025299 294.75651 
L 220.182448 296.04517 
L 221.813878 296.083353 
L 223.445308 296.586285 
L 225.076738 296.743161 
L 233.233887 298.126317 
L 234.865317 298.510492 
L 238.128177 298.91141 
L 239.759607 299.378651 
L 247.916756 300.648026 
L 249.548186 301.111508 
L 251.179616 301.348031 
L 252.811046 301.714119 
L 254.442476 301.851333 
L 256.073905 302.332345 
L 257.705335 192.603087 
L 264.231055 194.36701 
L 265.862485 194.850406 
L 267.493915 195.077879 
L 269.125344 195.736741 
L 270.756774 196.161822 
L 274.019634 197.387434 
L 275.651064 197.71973 
L 277.282494 198.292568 
L 280.545354 199.716891 
L 282.176783 200.788854 
L 283.808213 201.117019 
L 285.439643 201.895234 
L 288.702503 204.026547 
L 291.965363 205.763225 
L 293.596793 207.074724 
L 295.228223 208.198573 
L 296.859652 208.874528 
L 298.491082 210.231649 
L 300.122512 209.627995 
L 301.753942 208.390658 
L 303.385372 196.608956 
L 305.016802 294.304159 
L 306.648232 288.440201 
L 308.279662 287.33705 
L 309.911091 287.51509 
L 311.542521 288.920962 
L 313.173951 289.720194 
L 314.805381 290.167141 
L 318.068241 292.356972 
L 321.331101 294.406674 
L 322.96253 294.755361 
L 324.59396 295.891215 
L 326.22539 296.48595 
L 327.85682 296.859805 
L 329.48825 297.701928 
L 331.11968 298.30377 
L 332.75111 298.437354 
L 337.645399 300.079441 
L 339.276829 300.346695 
L 340.908259 300.931867 
L 345.802549 302.051651 
L 347.433979 192.485679 
L 352.328268 193.612601 
L 355.591128 193.968137 
L 357.222558 194.511896 
L 358.853988 194.858238 
L 362.116847 195.390749 
L 363.748277 195.722967 
L 365.379707 195.828104 
L 367.011137 196.160302 
L 368.642567 196.277426 
L 370.273997 196.897334 
L 371.905427 196.938332 
L 375.168286 197.613467 
L 378.431146 197.949204 
L 388.219725 199.528773 
L 389.851155 199.482932 
L 391.482585 199.716531 
L 391.482585 199.716531 
" clip-path="url(#pd688caccf0)" style="fill: none; stroke: #1f77b4; stroke-width: 1.5; stroke-linecap: square"/>
    <g clip-path="url(#pd688caccf0)">
     <use xlink:href="#m3da7c45486" x="66.82804" y="276.899905" style="fill: #1f77b4; stroke: #1f77b4"/>
     <use xlink:href="#m3da7c45486" x="68.45947" y="277.175985" style="fill: #1f77b4; stroke: #1f77b4"/>
     <use xlink:href="#m3da7c45486" x="70.0909" y="277.55747" style="fill: #1f77b4; stroke: #1f77b4"/>
     <use xlink:href="#m3da7c45486" x="71.722329" y="277.43003" style="fill: #1f77b4; stroke: #1f77b4"/>
     <use xlink:href="#m3da7c45486" x="73.353759" y="277.681319" style="fill: #1f77b4; stroke: #1f77b4"/>
     <use xlink:href="#m3da7c45486" x="74.985189" y="278.107159" style="fill: #1f77b4; stroke: #1f77b4"/>
     <use xlink:href="#m3da7c45486" x="76.616619" y="278.055376" style="fill: #1f77b4; stroke: #1f77b4"/>
     <use xlink:href="#m3da7c45486" x="78.248049" y="278.388707" style="fill: #1f77b4; stroke: #1f77b4"/>
     <use xlink:href="#m3da7c45486" x="79.879479" y="278.546734" style="fill: #1f77b4; stroke: #1f77b4"/>
     <use xlink:href="#m3da7c45486" x="81.510909" y="278.947524" style="fill: #1f77b4; stroke: #1f77b4"/>
     <use xlink:href="#m3da7c45486" x="83.142339" y="278.914799" style="fill: #1f77b4; stroke: #1f77b4"/>
     <use xlink:href="#m3da7c45486" x="84.773768" y="279.132051" style="fill: #1f77b4; stroke: #1f77b4"/>
     <use xlink:href="#m3da7c45486" x="86.405198" y="279.505326" style="fill: #1f77b4; stroke: #1f77b4"/>
     <use xlink:href="#m3da7c45486" x="88.036628" y="279.606234" style="fill: #1f77b4; stroke: #1f77b4"/>
     <use xlink:href="#m3da7c45486" x="89.668058" y="279.965375" style="fill: #1f77b4; stroke: #1f77b4"/>
     <use xlink:href="#m3da7c45486" x="91.299488" y="280.011144" style="fill: #1f77b4; stroke: #1f77b4"/>
     <use xlink:href="#m3da7c45486" x="92.930918" y="280.34092" style="fill: #1f77b4; stroke: #1f77b4"/>
     <use xlink:href="#m3da7c45486" x="94.562348" y="280.652577" style="fill: #1f77b4; stroke: #1f77b4"/>
     <use xlink:href="#m3da7c45486" x="96.193778" y="280.733437" style="fill: #1f77b4; stroke: #1f77b4"/>
     <use xlink:href="#m3da7c45486" x="97.825207" y="280.870545" style="fill: #1f77b4; stroke: #1f77b4"/>
     <use xlink:href="#m3da7c45486" x="99.456637" y="280.964614" style="fill: #1f77b4; stroke: #1f77b4"/>
     <use xlink:href="#m3da7c45486" x="101.088067" y="281.248079" style="fill: #1f77b4; stroke: #1f77b4"/>
     <use xlink:href="#m3da7c45486" x="102.719497" y="281.482001" style="fill: #1f77b4; stroke: #1f77b4"/>
     <use xlink:href="#m3da7c45486" x="104.350927" y="281.762234" style="fill: #1f77b4; stroke: #1f77b4"/>
     <use xlink:href="#m3da7c45486" x="105.982357" y="282.00704" style="fill: #1f77b4; stroke: #1f77b4"/>
     <use xlink:href="#m3da7c45486" x="107.613787" y="282.033908" style="fill: #1f77b4; stroke: #1f77b4"/>
     <use xlink:href="#m3da7c45486" x="109.245217" y="282.245797" style="fill: #1f77b4; stroke: #1f77b4"/>
     <use xlink:href="#m3da7c45486" x="110.876646" y="282.371317" style="fill: #1f77b4; stroke: #1f77b4"/>
     <use xlink:href="#m3da7c45486" x="112.508076" y="282.833586" style="fill: #1f77b4; stroke: #1f77b4"/>
     <use xlink:href="#m3da7c45486" x="114.139506" y="282.861106" style="fill: #1f77b4; stroke: #1f77b4"/>
     <use xlink:href="#m3da7c45486" x="115.770936" y="283.232477" style="fill: #1f77b4; stroke: #1f77b4"/>
     <use xlink:href="#m3da7c45486" x="117.402366" y="283.389079" style="fill: #1f77b4; stroke: #1f77b4"/>
     <use xlink:href="#m3da7c45486" x="119.033796" y="283.234496" style="fill: #1f77b4; stroke: #1f77b4"/>
     <use xlink:href="#m3da7c45486" x="120.665226" y="283.587282" style="fill: #1f77b4; stroke: #1f77b4"/>
     <use xlink:href="#m3da7c45486" x="122.296656" y="284.001361" style="fill: #1f77b4; stroke: #1f77b4"/>
     <use xlink:href="#m3da7c45486" x="123.928085" y="284.129821" style="fill: #1f77b4; stroke: #1f77b4"/>
     <use xlink:href="#m3da7c45486" x="125.559515" y="284.1222" style="fill: #1f77b4; stroke: #1f77b4"/>
     <use xlink:href="#m3da7c45486" x="127.190945" y="284.368131" style="fill: #1f77b4; stroke: #1f77b4"/>
     <use xlink:href="#m3da7c45486" x="128.822375" y="284.620793" style="fill: #1f77b4; stroke: #1f77b4"/>
     <use xlink:href="#m3da7c45486" x="130.453805" y="284.829748" style="fill: #1f77b4; stroke: #1f77b4"/>
     <use xlink:href="#m3da7c45486" x="132.085235" y="285.422319" style="fill: #1f77b4; stroke: #1f77b4"/>
     <use xlink:href="#m3da7c45486" x="133.716665" y="285.38208" style="fill: #1f77b4; stroke: #1f77b4"/>
     <use xlink:href="#m3da7c45486" x="135.348095" y="285.571797" style="fill: #1f77b4; stroke: #1f77b4"/>
     <use xlink:href="#m3da7c45486" x="136.979524" y="285.733158" style="fill: #1f77b4; stroke: #1f77b4"/>
     <use xlink:href="#m3da7c45486" x="138.610954" y="285.724054" style="fill: #1f77b4; stroke: #1f77b4"/>
     <use xlink:href="#m3da7c45486" x="140.242384" y="285.851259" style="fill: #1f77b4; stroke: #1f77b4"/>
     <use xlink:href="#m3da7c45486" x="141.873814" y="286.155408" style="fill: #1f77b4; stroke: #1f77b4"/>
     <use xlink:href="#m3da7c45486" x="143.505244" y="286.527401" style="fill: #1f77b4; stroke: #1f77b4"/>
     <use xlink:href="#m3da7c45486" x="145.136674" y="286.562989" style="fill: #1f77b4; stroke: #1f77b4"/>
     <use xlink:href="#m3da7c45486" x="146.768104" y="286.77327" style="fill: #1f77b4; stroke: #1f77b4"/>
     <use xlink:href="#m3da7c45486" x="148.399534" y="286.952463" style="fill: #1f77b4; stroke: #1f77b4"/>
     <use xlink:href="#m3da7c45486" x="150.030963" y="287.221723" style="fill: #1f77b4; stroke: #1f77b4"/>
     <use xlink:href="#m3da7c45486" x="151.662393" y="287.29639" style="fill: #1f77b4; stroke: #1f77b4"/>
     <use xlink:href="#m3da7c45486" x="153.293823" y="287.420751" style="fill: #1f77b4; stroke: #1f77b4"/>
     <use xlink:href="#m3da7c45486" x="154.925253" y="287.558717" style="fill: #1f77b4; stroke: #1f77b4"/>
     <use xlink:href="#m3da7c45486" x="156.556683" y="287.983688" style="fill: #1f77b4; stroke: #1f77b4"/>
     <use xlink:href="#m3da7c45486" x="158.188113" y="287.865239" style="fill: #1f77b4; stroke: #1f77b4"/>
     <use xlink:href="#m3da7c45486" x="159.819543" y="288.108477" style="fill: #1f77b4; stroke: #1f77b4"/>
     <use xlink:href="#m3da7c45486" x="161.450973" y="288.282654" style="fill: #1f77b4; stroke: #1f77b4"/>
     <use xlink:href="#m3da7c45486" x="163.082402" y="288.479369" style="fill: #1f77b4; stroke: #1f77b4"/>
     <use xlink:href="#m3da7c45486" x="164.713832" y="288.877784" style="fill: #1f77b4; stroke: #1f77b4"/>
     <use xlink:href="#m3da7c45486" x="166.345262" y="288.800221" style="fill: #1f77b4; stroke: #1f77b4"/>
     <use xlink:href="#m3da7c45486" x="167.976692" y="289.175674" style="fill: #1f77b4; stroke: #1f77b4"/>
     <use xlink:href="#m3da7c45486" x="169.608122" y="289.389382" style="fill: #1f77b4; stroke: #1f77b4"/>
     <use xlink:href="#m3da7c45486" x="171.239552" y="289.774853" style="fill: #1f77b4; stroke: #1f77b4"/>
     <use xlink:href="#m3da7c45486" x="172.870982" y="289.69282" style="fill: #1f77b4; stroke: #1f77b4"/>
     <use xlink:href="#m3da7c45486" x="174.502412" y="289.966071" style="fill: #1f77b4; stroke: #1f77b4"/>
     <use xlink:href="#m3da7c45486" x="176.133842" y="289.967915" style="fill: #1f77b4; stroke: #1f77b4"/>
     <use xlink:href="#m3da7c45486" x="177.765271" y="290.27979" style="fill: #1f77b4; stroke: #1f77b4"/>
     <use xlink:href="#m3da7c45486" x="179.396701" y="290.500206" style="fill: #1f77b4; stroke: #1f77b4"/>
     <use xlink:href="#m3da7c45486" x="181.028131" y="290.670577" style="fill: #1f77b4; stroke: #1f77b4"/>
     <use xlink:href="#m3da7c45486" x="182.659561" y="290.810979" style="fill: #1f77b4; stroke: #1f77b4"/>
     <use xlink:href="#m3da7c45486" x="184.290991" y="290.793964" style="fill: #1f77b4; stroke: #1f77b4"/>
     <use xlink:href="#m3da7c45486" x="185.922421" y="291.207822" style="fill: #1f77b4; stroke: #1f77b4"/>
     <use xlink:href="#m3da7c45486" x="187.553851" y="291.642515" style="fill: #1f77b4; stroke: #1f77b4"/>
     <use xlink:href="#m3da7c45486" x="189.185281" y="291.682345" style="fill: #1f77b4; stroke: #1f77b4"/>
     <use xlink:href="#m3da7c45486" x="190.81671" y="291.791844" style="fill: #1f77b4; stroke: #1f77b4"/>
     <use xlink:href="#m3da7c45486" x="192.44814" y="292.09302" style="fill: #1f77b4; stroke: #1f77b4"/>
     <use xlink:href="#m3da7c45486" x="194.07957" y="292.280275" style="fill: #1f77b4; stroke: #1f77b4"/>
     <use xlink:href="#m3da7c45486" x="195.711" y="292.449789" style="fill: #1f77b4; stroke: #1f77b4"/>
     <use xlink:href="#m3da7c45486" x="197.34243" y="292.482018" style="fill: #1f77b4; stroke: #1f77b4"/>
     <use xlink:href="#m3da7c45486" x="198.97386" y="292.848855" style="fill: #1f77b4; stroke: #1f77b4"/>
     <use xlink:href="#m3da7c45486" x="200.60529" y="293.089991" style="fill: #1f77b4; stroke: #1f77b4"/>
     <use xlink:href="#m3da7c45486" x="202.23672" y="293.471633" style="fill: #1f77b4; stroke: #1f77b4"/>
     <use xlink:href="#m3da7c45486" x="203.868149" y="293.673065" style="fill: #1f77b4; stroke: #1f77b4"/>
     <use xlink:href="#m3da7c45486" x="205.499579" y="293.792979" style="fill: #1f77b4; stroke: #1f77b4"/>
     <use xlink:href="#m3da7c45486" x="207.131009" y="294.117362" style="fill: #1f77b4; stroke: #1f77b4"/>
     <use xlink:href="#m3da7c45486" x="208.762439" y="294.381422" style="fill: #1f77b4; stroke: #1f77b4"/>
     <use xlink:href="#m3da7c45486" x="210.393869" y="294.349224" style="fill: #1f77b4; stroke: #1f77b4"/>
     <use xlink:href="#m3da7c45486" x="212.025299" y="294.75651" style="fill: #1f77b4; stroke: #1f77b4"/>
     <use xlink:href="#m3da7c45486" x="213.656729" y="295.024784" style="fill: #1f77b4; stroke: #1f77b4"/>
     <use xlink:href="#m3da7c45486" x="215.288159" y="295.35862" style="fill: #1f77b4; stroke: #1f77b4"/>
     <use xlink:href="#m3da7c45486" x="216.919588" y="295.476982" style="fill: #1f77b4; stroke: #1f77b4"/>
     <use xlink:href="#m3da7c45486" x="218.551018" y="295.924144" style="fill: #1f77b4; stroke: #1f77b4"/>
     <use xlink:href="#m3da7c45486" x="220.182448" y="296.04517" style="fill: #1f77b4; stroke: #1f77b4"/>
     <use xlink:href="#m3da7c45486" x="221.813878" y="296.083353" style="fill: #1f77b4; stroke: #1f77b4"/>
     <use xlink:href="#m3da7c45486" x="223.445308" y="296.586285" style="fill: #1f77b4; stroke: #1f77b4"/>
     <use xlink:href="#m3da7c45486" x="225.076738" y="296.743161" style="fill: #1f77b4; stroke: #1f77b4"/>
     <use xlink:href="#m3da7c45486" x="226.708168" y="297.015034" style="fill: #1f77b4; stroke: #1f77b4"/>
     <use xlink:href="#m3da7c45486" x="228.339598" y="297.320598" style="fill: #1f77b4; stroke: #1f77b4"/>
     <use xlink:href="#m3da7c45486" x="229.971027" y="297.496771" style="fill: #1f77b4; stroke: #1f77b4"/>
     <use xlink:href="#m3da7c45486" x="231.602457" y="297.787207" style="fill: #1f77b4; stroke: #1f77b4"/>
     <use xlink:href="#m3da7c45486" x="233.233887" y="298.126317" style="fill: #1f77b4; stroke: #1f77b4"/>
     <use xlink:href="#m3da7c45486" x="234.865317" y="298.510492" style="fill: #1f77b4; stroke: #1f77b4"/>
     <use xlink:href="#m3da7c45486" x="236.496747" y="298.748514" style="fill: #1f77b4; stroke: #1f77b4"/>
     <use xlink:href="#m3da7c45486" x="238.128177" y="298.91141" style="fill: #1f77b4; stroke: #1f77b4"/>
     <use xlink:href="#m3da7c45486" x="239.759607" y="299.378651" style="fill: #1f77b4; stroke: #1f77b4"/>
     <use xlink:href="#m3da7c45486" x="241.391037" y="299.610952" style="fill: #1f77b4; stroke: #1f77b4"/>
     <use xlink:href="#m3da7c45486" x="243.022466" y="299.749027" style="fill: #1f77b4; stroke: #1f77b4"/>
     <use xlink:href="#m3da7c45486" x="244.653896" y="300.081726" style="fill: #1f77b4; stroke: #1f77b4"/>
     <use xlink:href="#m3da7c45486" x="246.285326" y="300.317761" style="fill: #1f77b4; stroke: #1f77b4"/>
     <use xlink:href="#m3da7c45486" x="247.916756" y="300.648026" style="fill: #1f77b4; stroke: #1f77b4"/>
     <use xlink:href="#m3da7c45486" x="249.548186" y="301.111508" style="fill: #1f77b4; stroke: #1f77b4"/>
     <use xlink:href="#m3da7c45486" x="251.179616" y="301.348031" style="fill: #1f77b4; stroke: #1f77b4"/>
     <use xlink:href="#m3da7c45486" x="252.811046" y="301.714119" style="fill: #1f77b4; stroke: #1f77b4"/>
     <use xlink:href="#m3da7c45486" x="254.442476" y="301.851333" style="fill: #1f77b4; stroke: #1f77b4"/>
     <use xlink:href="#m3da7c45486" x="256.073905" y="302.332345" style="fill: #1f77b4; stroke: #1f77b4"/>
     <use xlink:href="#m3da7c45486" x="257.705335" y="192.603087" style="fill: #1f77b4; stroke: #1f77b4"/>
     <use xlink:href="#m3da7c45486" x="259.336765" y="193.025181" style="fill: #1f77b4; stroke: #1f77b4"/>
     <use xlink:href="#m3da7c45486" x="260.968195" y="193.514112" style="fill: #1f77b4; stroke: #1f77b4"/>
     <use xlink:href="#m3da7c45486" x="262.599625" y="193.916836" style="fill: #1f77b4; stroke: #1f77b4"/>
     <use xlink:href="#m3da7c45486" x="264.231055" y="194.36701" style="fill: #1f77b4; stroke: #1f77b4"/>
     <use xlink:href="#m3da7c45486" x="265.862485" y="194.850406" style="fill: #1f77b4; stroke: #1f77b4"/>
     <use xlink:href="#m3da7c45486" x="267.493915" y="195.077879" style="fill: #1f77b4; stroke: #1f77b4"/>
     <use xlink:href="#m3da7c45486" x="269.125344" y="195.736741" style="fill: #1f77b4; stroke: #1f77b4"/>
     <use xlink:href="#m3da7c45486" x="270.756774" y="196.161822" style="fill: #1f77b4; stroke: #1f77b4"/>
     <use xlink:href="#m3da7c45486" x="272.388204" y="196.822038" style="fill: #1f77b4; stroke: #1f77b4"/>
     <use xlink:href="#m3da7c45486" x="274.019634" y="197.387434" style="fill: #1f77b4; stroke: #1f77b4"/>
     <use xlink:href="#m3da7c45486" x="275.651064" y="197.71973" style="fill: #1f77b4; stroke: #1f77b4"/>
     <use xlink:href="#m3da7c45486" x="277.282494" y="198.292568" style="fill: #1f77b4; stroke: #1f77b4"/>
     <use xlink:href="#m3da7c45486" x="278.913924" y="199.059747" style="fill: #1f77b4; stroke: #1f77b4"/>
     <use xlink:href="#m3da7c45486" x="280.545354" y="199.716891" style="fill: #1f77b4; stroke: #1f77b4"/>
     <use xlink:href="#m3da7c45486" x="282.176783" y="200.788854" style="fill: #1f77b4; stroke: #1f77b4"/>
     <use xlink:href="#m3da7c45486" x="283.808213" y="201.117019" style="fill: #1f77b4; stroke: #1f77b4"/>
     <use xlink:href="#m3da7c45486" x="285.439643" y="201.895234" style="fill: #1f77b4; stroke: #1f77b4"/>
     <use xlink:href="#m3da7c45486" x="287.071073" y="202.969419" style="fill: #1f77b4; stroke: #1f77b4"/>
     <use xlink:href="#m3da7c45486" x="288.702503" y="204.026547" style="fill: #1f77b4; stroke: #1f77b4"/>
     <use xlink:href="#m3da7c45486" x="290.333933" y="204.878998" style="fill: #1f77b4; stroke: #1f77b4"/>
     <use xlink:href="#m3da7c45486" x="291.965363" y="205.763225" style="fill: #1f77b4; stroke: #1f77b4"/>
     <use xlink:href="#m3da7c45486" x="293.596793" y="207.074724" style="fill: #1f77b4; stroke: #1f77b4"/>
     <use xlink:href="#m3da7c45486" x="295.228223" y="208.198573" style="fill: #1f77b4; stroke: #1f77b4"/>
     <use xlink:href="#m3da7c45486" x="296.859652" y="208.874528" style="fill: #1f77b4; stroke: #1f77b4"/>
     <use xlink:href="#m3da7c45486" x="298.491082" y="210.231649" style="fill: #1f77b4; stroke: #1f77b4"/>
     <use xlink:href="#m3da7c45486" x="300.122512" y="209.627995" style="fill: #1f77b4; stroke: #1f77b4"/>
     <use xlink:href="#m3da7c45486" x="301.753942" y="208.390658" style="fill: #1f77b4; stroke: #1f77b4"/>
     <use xlink:href="#m3da7c45486" x="303.385372" y="196.608956" style="fill: #1f77b4; stroke: #1f77b4"/>
     <use xlink:href="#m3da7c45486" x="305.016802" y="294.304159" style="fill: #1f77b4; stroke: #1f77b4"/>
     <use xlink:href="#m3da7c45486" x="306.648232" y="288.440201" style="fill: #1f77b4; stroke: #1f77b4"/>
     <use xlink:href="#m3da7c45486" x="308.279662" y="287.33705" style="fill: #1f77b4; stroke: #1f77b4"/>
     <use xlink:href="#m3da7c45486" x="309.911091" y="287.51509" style="fill: #1f77b4; stroke: #1f77b4"/>
     <use xlink:href="#m3da7c45486" x="311.542521" y="288.920962" style="fill: #1f77b4; stroke: #1f77b4"/>
     <use xlink:href="#m3da7c45486" x="313.173951" y="289.720194" style="fill: #1f77b4; stroke: #1f77b4"/>
     <use xlink:href="#m3da7c45486" x="314.805381" y="290.167141" style="fill: #1f77b4; stroke: #1f77b4"/>
     <use xlink:href="#m3da7c45486" x="316.436811" y="291.327263" style="fill: #1f77b4; stroke: #1f77b4"/>
     <use xlink:href="#m3da7c45486" x="318.068241" y="292.356972" style="fill: #1f77b4; stroke: #1f77b4"/>
     <use xlink:href="#m3da7c45486" x="319.699671" y="293.377942" style="fill: #1f77b4; stroke: #1f77b4"/>
     <use xlink:href="#m3da7c45486" x="321.331101" y="294.406674" style="fill: #1f77b4; stroke: #1f77b4"/>
     <use xlink:href="#m3da7c45486" x="322.96253" y="294.755361" style="fill: #1f77b4; stroke: #1f77b4"/>
     <use xlink:href="#m3da7c45486" x="324.59396" y="295.891215" style="fill: #1f77b4; stroke: #1f77b4"/>
     <use xlink:href="#m3da7c45486" x="326.22539" y="296.48595" style="fill: #1f77b4; stroke: #1f77b4"/>
     <use xlink:href="#m3da7c45486" x="327.85682" y="296.859805" style="fill: #1f77b4; stroke: #1f77b4"/>
     <use xlink:href="#m3da7c45486" x="329.48825" y="297.701928" style="fill: #1f77b4; stroke: #1f77b4"/>
     <use xlink:href="#m3da7c45486" x="331.11968" y="298.30377" style="fill: #1f77b4; stroke: #1f77b4"/>
     <use xlink:href="#m3da7c45486" x="332.75111" y="298.437354" style="fill: #1f77b4; stroke: #1f77b4"/>
     <use xlink:href="#m3da7c45486" x="334.38254" y="298.987581" style="fill: #1f77b4; stroke: #1f77b4"/>
     <use xlink:href="#m3da7c45486" x="336.013969" y="299.581257" style="fill: #1f77b4; stroke: #1f77b4"/>
     <use xlink:href="#m3da7c45486" x="337.645399" y="300.079441" style="fill: #1f77b4; stroke: #1f77b4"/>
     <use xlink:href="#m3da7c45486" x="339.276829" y="300.346695" style="fill: #1f77b4; stroke: #1f77b4"/>
     <use xlink:href="#m3da7c45486" x="340.908259" y="300.931867" style="fill: #1f77b4; stroke: #1f77b4"/>
     <use xlink:href="#m3da7c45486" x="342.539689" y="301.337922" style="fill: #1f77b4; stroke: #1f77b4"/>
     <use xlink:href="#m3da7c45486" x="344.171119" y="301.756469" style="fill: #1f77b4; stroke: #1f77b4"/>
     <use xlink:href="#m3da7c45486" x="345.802549" y="302.051651" style="fill: #1f77b4; stroke: #1f77b4"/>
     <use xlink:href="#m3da7c45486" x="347.433979" y="192.485679" style="fill: #1f77b4; stroke: #1f77b4"/>
     <use xlink:href="#m3da7c45486" x="349.065408" y="192.849259" style="fill: #1f77b4; stroke: #1f77b4"/>
     <use xlink:href="#m3da7c45486" x="350.696838" y="193.239518" style="fill: #1f77b4; stroke: #1f77b4"/>
     <use xlink:href="#m3da7c45486" x="352.328268" y="193.612601" style="fill: #1f77b4; stroke: #1f77b4"/>
     <use xlink:href="#m3da7c45486" x="353.959698" y="193.785058" style="fill: #1f77b4; stroke: #1f77b4"/>
     <use xlink:href="#m3da7c45486" x="355.591128" y="193.968137" style="fill: #1f77b4; stroke: #1f77b4"/>
     <use xlink:href="#m3da7c45486" x="357.222558" y="194.511896" style="fill: #1f77b4; stroke: #1f77b4"/>
     <use xlink:href="#m3da7c45486" x="358.853988" y="194.858238" style="fill: #1f77b4; stroke: #1f77b4"/>
     <use xlink:href="#m3da7c45486" x="360.485418" y="195.075119" style="fill: #1f77b4; stroke: #1f77b4"/>
     <use xlink:href="#m3da7c45486" x="362.116847" y="195.390749" style="fill: #1f77b4; stroke: #1f77b4"/>
     <use xlink:href="#m3da7c45486" x="363.748277" y="195.722967" style="fill: #1f77b4; stroke: #1f77b4"/>
     <use xlink:href="#m3da7c45486" x="365.379707" y="195.828104" style="fill: #1f77b4; stroke: #1f77b4"/>
     <use xlink:href="#m3da7c45486" x="367.011137" y="196.160302" style="fill: #1f77b4; stroke: #1f77b4"/>
     <use xlink:href="#m3da7c45486" x="368.642567" y="196.277426" style="fill: #1f77b4; stroke: #1f77b4"/>
     <use xlink:href="#m3da7c45486" x="370.273997" y="196.897334" style="fill: #1f77b4; stroke: #1f77b4"/>
     <use xlink:href="#m3da7c45486" x="371.905427" y="196.938332" style="fill: #1f77b4; stroke: #1f77b4"/>
     <use xlink:href="#m3da7c45486" x="373.536857" y="197.255788" style="fill: #1f77b4; stroke: #1f77b4"/>
     <use xlink:href="#m3da7c45486" x="375.168286" y="197.613467" style="fill: #1f77b4; stroke: #1f77b4"/>
     <use xlink:href="#m3da7c45486" x="376.799716" y="197.731471" style="fill: #1f77b4; stroke: #1f77b4"/>
     <use xlink:href="#m3da7c45486" x="378.431146" y="197.949204" style="fill: #1f77b4; stroke: #1f77b4"/>
     <use xlink:href="#m3da7c45486" x="380.062576" y="198.194868" style="fill: #1f77b4; stroke: #1f77b4"/>
     <use xlink:href="#m3da7c45486" x="381.694006" y="198.515744" style="fill: #1f77b4; stroke: #1f77b4"/>
     <use xlink:href="#m3da7c45486" x="383.325436" y="198.720626" style="fill: #1f77b4; stroke: #1f77b4"/>
     <use xlink:href="#m3da7c45486" x="384.956866" y="198.868809" style="fill: #1f77b4; stroke: #1f77b4"/>
     <use xlink:href="#m3da7c45486" x="386.588296" y="199.129043" style="fill: #1f77b4; stroke: #1f77b4"/>
     <use xlink:href="#m3da7c45486" x="388.219725" y="199.528773" style="fill: #1f77b4; stroke: #1f77b4"/>
     <use xlink:href="#m3da7c45486" x="389.851155" y="199.482932" style="fill: #1f77b4; stroke: #1f77b4"/>
     <use xlink:href="#m3da7c45486" x="391.482585" y="199.716531" style="fill: #1f77b4; stroke: #1f77b4"/>
    </g>
   </g>
   <g id="line2d_25">
    <path d="M 66.82804 276.882084 
L 130.849006 284.554434 
L 171.796426 289.671923 
L 199.419686 293.333751 
L 219.243437 296.172384 
L 234.192495 298.529914 
L 245.566779 300.541333 
L 254.341226 302.303726 
L 254.666205 302.373818 
L 254.991185 192.438807 
L 262.140734 194.107025 
L 267.990366 195.687433 
L 273.190038 197.323899 
L 277.739751 198.999761 
L 281.639506 200.67062 
L 285.214281 202.429268 
L 289.114035 204.601485 
L 295.288646 208.111767 
L 296.588564 208.614534 
L 297.563503 208.81696 
L 298.538441 208.772983 
L 299.1884 208.537656 
L 299.838359 208.06356 
L 300.488318 207.256853 
L 301.138277 205.986575 
L 301.788236 204.084273 
L 302.438195 201.383169 
L 303.413134 195.857234 
L 303.738113 193.804107 
L 304.063093 301.788312 
L 305.038032 296.623574 
L 305.687991 294.202784 
L 306.33795 292.515537 
L 306.987909 291.385707 
L 307.637868 290.65792 
L 308.287827 290.216557 
L 308.937786 289.98005 
L 309.912724 289.889543 
L 311.212643 290.081118 
L 312.83754 290.597604 
L 315.437376 291.698454 
L 323.561865 295.270094 
L 328.111578 296.97261 
L 332.986271 298.554934 
L 338.510923 300.108868 
L 345.010513 301.696071 
L 347.935329 302.345597 
L 348.260308 192.410182 
L 356.709776 194.112002 
L 367.109121 195.968356 
L 380.108302 198.053789 
L 391.482585 199.740928 
L 391.482585 199.740928 
" clip-path="url(#pd688caccf0)" style="fill: none; stroke: #d62728; stroke-width: 1.5; stroke-linecap: square"/>
   </g>
   <g id="patch_9">
    <path d="M 50.595313 307.872 
L 50.595313 186.912 
" style="fill: none; stroke: #000000; stroke-width: 0.8; stroke-linejoin: miter; stroke-linecap: square"/>
   </g>
   <g id="patch_10">
    <path d="M 407.715312 307.872 
L 407.715312 186.912 
" style="fill: none; stroke: #000000; stroke-width: 0.8; stroke-linejoin: miter; stroke-linecap: square"/>
   </g>
   <g id="patch_11">
    <path d="M 50.595312 307.872 
L 407.715313 307.872 
" style="fill: none; stroke: #000000; stroke-width: 0.8; stroke-linejoin: miter; stroke-linecap: square"/>
   </g>
   <g id="patch_12">
    <path d="M 50.595312 186.912 
L 407.715313 186.912 
" style="fill: none; stroke: #000000; stroke-width: 0.8; stroke-linejoin: miter; stroke-linecap: square"/>
   </g>
  </g>
  <g id="text_20">
   <!-- S21 One-tone -->
   <g transform="translate(182.144375 16.318125) scale(0.12 -0.12)">
    <defs>
     <path id="DejaVuSans-4f" d="M 2522 4238 
Q 1834 4238 1429 3725 
Q 1025 3213 1025 2328 
Q 1025 1447 1429 934 
Q 1834 422 2522 422 
Q 3209 422 3611 934 
Q 4013 1447 4013 2328 
Q 4013 3213 3611 3725 
Q 3209 4238 2522 4238 
z
M 2522 4750 
Q 3503 4750 4090 4092 
Q 4678 3434 4678 2328 
Q 4678 1225 4090 567 
Q 3503 -91 2522 -91 
Q 1538 -91 948 565 
Q 359 1222 359 2328 
Q 359 3434 948 4092 
Q 1538 4750 2522 4750 
z
" transform="scale(0.015625)"/>
     <path id="DejaVuSans-74" d="M 1172 4494 
L 1172 3500 
L 2356 3500 
L 2356 3053 
L 1172 3053 
L 1172 1153 
Q 1172 725 1289 603 
Q 1406 481 1766 481 
L 2356 481 
L 2356 0 
L 1766 0 
Q 1100 0 847 248 
Q 594 497 594 1153 
L 594 3053 
L 172 3053 
L 172 3500 
L 594 3500 
L 594 4494 
L 1172 4494 
z
" transform="scale(0.015625)"/>
     <path id="DejaVuSans-6f" d="M 1959 3097 
Q 1497 3097 1228 2736 
Q 959 2375 959 1747 
Q 959 1119 1226 758 
Q 1494 397 1959 397 
Q 2419 397 2687 759 
Q 2956 1122 2956 1747 
Q 2956 2369 2687 2733 
Q 2419 3097 1959 3097 
z
M 1959 3584 
Q 2709 3584 3137 3096 
Q 3566 2609 3566 1747 
Q 3566 888 3137 398 
Q 2709 -91 1959 -91 
Q 1206 -91 779 398 
Q 353 888 353 1747 
Q 353 2609 779 3096 
Q 1206 3584 1959 3584 
z
" transform="scale(0.015625)"/>
    </defs>
    <use xlink:href="#DejaVuSans-53"/>
    <use xlink:href="#DejaVuSans-32" x="63.476562"/>
    <use xlink:href="#DejaVuSans-31" x="127.099609"/>
    <use xlink:href="#DejaVuSans-20" x="190.722656"/>
    <use xlink:href="#DejaVuSans-4f" x="222.509766"/>
    <use xlink:href="#DejaVuSans-6e" x="301.220703"/>
    <use xlink:href="#DejaVuSans-65" x="364.599609"/>
    <use xlink:href="#DejaVuSans-2d" x="426.123047"/>
    <use xlink:href="#DejaVuSans-74" x="462.207031"/>
    <use xlink:href="#DejaVuSans-6f" x="501.416016"/>
    <use xlink:href="#DejaVuSans-6e" x="562.597656"/>
    <use xlink:href="#DejaVuSans-65" x="625.976562"/>
   </g>
   <!-- tuid: 20240223-162326-864-4bc36b -->
   <g transform="translate(114.075313 29.7555) scale(0.12 -0.12)">
    <defs>
     <path id="DejaVuSans-69" d="M 603 3500 
L 1178 3500 
L 1178 0 
L 603 0 
L 603 3500 
z
M 603 4863 
L 1178 4863 
L 1178 4134 
L 603 4134 
L 603 4863 
z
" transform="scale(0.015625)"/>
     <path id="DejaVuSans-33" d="M 2597 2516 
Q 3050 2419 3304 2112 
Q 3559 1806 3559 1356 
Q 3559 666 3084 287 
Q 2609 -91 1734 -91 
Q 1441 -91 1130 -33 
Q 819 25 488 141 
L 488 750 
Q 750 597 1062 519 
Q 1375 441 1716 441 
Q 2309 441 2620 675 
Q 2931 909 2931 1356 
Q 2931 1769 2642 2001 
Q 2353 2234 1838 2234 
L 1294 2234 
L 1294 2753 
L 1863 2753 
Q 2328 2753 2575 2939 
Q 2822 3125 2822 3475 
Q 2822 3834 2567 4026 
Q 2313 4219 1838 4219 
Q 1578 4219 1281 4162 
Q 984 4106 628 3988 
L 628 4550 
Q 988 4650 1302 4700 
Q 1616 4750 1894 4750 
Q 2613 4750 3031 4423 
Q 3450 4097 3450 3541 
Q 3450 3153 3228 2886 
Q 3006 2619 2597 2516 
z
" transform="scale(0.015625)"/>
     <path id="DejaVuSans-62" d="M 3116 1747 
Q 3116 2381 2855 2742 
Q 2594 3103 2138 3103 
Q 1681 3103 1420 2742 
Q 1159 2381 1159 1747 
Q 1159 1113 1420 752 
Q 1681 391 2138 391 
Q 2594 391 2855 752 
Q 3116 1113 3116 1747 
z
M 1159 2969 
Q 1341 3281 1617 3432 
Q 1894 3584 2278 3584 
Q 2916 3584 3314 3078 
Q 3713 2572 3713 1747 
Q 3713 922 3314 415 
Q 2916 -91 2278 -91 
Q 1894 -91 1617 61 
Q 1341 213 1159 525 
L 1159 0 
L 581 0 
L 581 4863 
L 1159 4863 
L 1159 2969 
z
" transform="scale(0.015625)"/>
    </defs>
    <use xlink:href="#DejaVuSans-74"/>
    <use xlink:href="#DejaVuSans-75" x="39.208984"/>
    <use xlink:href="#DejaVuSans-69" x="102.587891"/>
    <use xlink:href="#DejaVuSans-64" x="130.371094"/>
    <use xlink:href="#DejaVuSans-3a" x="193.847656"/>
    <use xlink:href="#DejaVuSans-20" x="227.539062"/>
    <use xlink:href="#DejaVuSans-32" x="259.326172"/>
    <use xlink:href="#DejaVuSans-30" x="322.949219"/>
    <use xlink:href="#DejaVuSans-32" x="386.572266"/>
    <use xlink:href="#DejaVuSans-34" x="450.195312"/>
    <use xlink:href="#DejaVuSans-30" x="513.818359"/>
    <use xlink:href="#DejaVuSans-32" x="577.441406"/>
    <use xlink:href="#DejaVuSans-32" x="641.064453"/>
    <use xlink:href="#DejaVuSans-33" x="704.6875"/>
    <use xlink:href="#DejaVuSans-2d" x="768.310547"/>
    <use xlink:href="#DejaVuSans-31" x="804.394531"/>
    <use xlink:href="#DejaVuSans-36" x="868.017578"/>
    <use xlink:href="#DejaVuSans-32" x="931.640625"/>
    <use xlink:href="#DejaVuSans-33" x="995.263672"/>
    <use xlink:href="#DejaVuSans-32" x="1058.886719"/>
    <use xlink:href="#DejaVuSans-36" x="1122.509766"/>
    <use xlink:href="#DejaVuSans-2d" x="1186.132812"/>
    <use xlink:href="#DejaVuSans-38" x="1222.216797"/>
    <use xlink:href="#DejaVuSans-36" x="1285.839844"/>
    <use xlink:href="#DejaVuSans-34" x="1349.462891"/>
    <use xlink:href="#DejaVuSans-2d" x="1413.085938"/>
    <use xlink:href="#DejaVuSans-34" x="1449.169922"/>
    <use xlink:href="#DejaVuSans-62" x="1512.792969"/>
    <use xlink:href="#DejaVuSans-63" x="1576.269531"/>
    <use xlink:href="#DejaVuSans-33" x="1631.25"/>
    <use xlink:href="#DejaVuSans-36" x="1694.873047"/>
    <use xlink:href="#DejaVuSans-62" x="1758.496094"/>
   </g>
  </g>
 </g>
 <defs>
  <clipPath id="p268d6d53c3">
   <rect x="50.595313" y="41.76" width="357.12" height="120.96"/>
  </clipPath>
  <clipPath id="pd688caccf0">
   <rect x="50.595313" y="186.912" width="357.12" height="120.96"/>
  </clipPath>
 </defs>
</svg>
