<?xml version="1.0" encoding="utf-8" standalone="no"?>
<!DOCTYPE svg PUBLIC "-//W3C//DTD SVG 1.1//EN"
  "http://www.w3.org/Graphics/SVG/1.1/DTD/svg11.dtd">
<svg xmlns:xlink="http://www.w3.org/1999/xlink" width="578.249437pt" height="345.42825pt" viewBox="0 0 578.249437 345.42825" xmlns="http://www.w3.org/2000/svg" version="1.1">
 <metadata>
  <rdf:RDF xmlns:dc="http://purl.org/dc/elements/1.1/" xmlns:cc="http://creativecommons.org/ns#" xmlns:rdf="http://www.w3.org/1999/02/22-rdf-syntax-ns#">
   <cc:Work>
    <dc:type rdf:resource="http://purl.org/dc/dcmitype/StillImage"/>
    <dc:date>2024-03-21T18:24:49.458241</dc:date>
    <dc:format>image/svg+xml</dc:format>
    <dc:creator>
     <cc:Agent>
      <dc:title>Matplotlib v3.8.2, https://matplotlib.org/</dc:title>
     </cc:Agent>
    </dc:creator>
   </cc:Work>
  </rdf:RDF>
 </metadata>
 <defs>
  <style type="text/css">*{stroke-linejoin: round; stroke-linecap: butt}</style>
 </defs>
 <g id="figure_1">
  <g id="patch_1">
   <path d="M 0 345.42825 
L 578.249437 345.42825 
L 578.249437 -0 
L 0 -0 
L 0 345.42825 
z
" style="fill: none; opacity: 0"/>
  </g>
  <g id="axes_1">
   <g id="patch_2">
    <path d="M 50.573438 307.872 
L 407.693438 307.872 
L 407.693438 41.76 
L 50.573438 41.76 
z
" style="fill: #ffffff"/>
   </g>
   <g id="matplotlib.axis_1">
    <g id="xtick_1">
     <g id="line2d_1">
      <defs>
       <path id="m8fb283b171" d="M 0 0 
L 0 3.5 
" style="stroke: #000000; stroke-width: 0.8"/>
      </defs>
      <g>
       <use xlink:href="#m8fb283b171" x="64.738057" y="307.872" style="stroke: #000000; stroke-width: 0.8"/>
      </g>
     </g>
     <g id="text_1">
      <!-- -600 -->
      <g transform="translate(53.390401 322.470438) scale(0.1 -0.1)">
       <defs>
        <path id="DejaVuSans-2d" d="M 313 2009 
L 1997 2009 
L 1997 1497 
L 313 1497 
L 313 2009 
z
" transform="scale(0.015625)"/>
        <path id="DejaVuSans-36" d="M 2113 2584 
Q 1688 2584 1439 2293 
Q 1191 2003 1191 1497 
Q 1191 994 1439 701 
Q 1688 409 2113 409 
Q 2538 409 2786 701 
Q 3034 994 3034 1497 
Q 3034 2003 2786 2293 
Q 2538 2584 2113 2584 
z
M 3366 4563 
L 3366 3988 
Q 3128 4100 2886 4159 
Q 2644 4219 2406 4219 
Q 1781 4219 1451 3797 
Q 1122 3375 1075 2522 
Q 1259 2794 1537 2939 
Q 1816 3084 2150 3084 
Q 2853 3084 3261 2657 
Q 3669 2231 3669 1497 
Q 3669 778 3244 343 
Q 2819 -91 2113 -91 
Q 1303 -91 875 529 
Q 447 1150 447 2328 
Q 447 3434 972 4092 
Q 1497 4750 2381 4750 
Q 2619 4750 2861 4703 
Q 3103 4656 3366 4563 
z
" transform="scale(0.015625)"/>
        <path id="DejaVuSans-30" d="M 2034 4250 
Q 1547 4250 1301 3770 
Q 1056 3291 1056 2328 
Q 1056 1369 1301 889 
Q 1547 409 2034 409 
Q 2525 409 2770 889 
Q 3016 1369 3016 2328 
Q 3016 3291 2770 3770 
Q 2525 4250 2034 4250 
z
M 2034 4750 
Q 2819 4750 3233 4129 
Q 3647 3509 3647 2328 
Q 3647 1150 3233 529 
Q 2819 -91 2034 -91 
Q 1250 -91 836 529 
Q 422 1150 422 2328 
Q 422 3509 836 4129 
Q 1250 4750 2034 4750 
z
" transform="scale(0.015625)"/>
       </defs>
       <use xlink:href="#DejaVuSans-2d"/>
       <use xlink:href="#DejaVuSans-36" x="36.083984"/>
       <use xlink:href="#DejaVuSans-30" x="99.707031"/>
       <use xlink:href="#DejaVuSans-30" x="163.330078"/>
      </g>
     </g>
    </g>
    <g id="xtick_2">
     <g id="line2d_2">
      <g>
       <use xlink:href="#m8fb283b171" x="115.364411" y="307.872" style="stroke: #000000; stroke-width: 0.8"/>
      </g>
     </g>
     <g id="text_2">
      <!-- -500 -->
      <g transform="translate(104.016754 322.470438) scale(0.1 -0.1)">
       <defs>
        <path id="DejaVuSans-35" d="M 691 4666 
L 3169 4666 
L 3169 4134 
L 1269 4134 
L 1269 2991 
Q 1406 3038 1543 3061 
Q 1681 3084 1819 3084 
Q 2600 3084 3056 2656 
Q 3513 2228 3513 1497 
Q 3513 744 3044 326 
Q 2575 -91 1722 -91 
Q 1428 -91 1123 -41 
Q 819 9 494 109 
L 494 744 
Q 775 591 1075 516 
Q 1375 441 1709 441 
Q 2250 441 2565 725 
Q 2881 1009 2881 1497 
Q 2881 1984 2565 2268 
Q 2250 2553 1709 2553 
Q 1456 2553 1204 2497 
Q 953 2441 691 2322 
L 691 4666 
z
" transform="scale(0.015625)"/>
       </defs>
       <use xlink:href="#DejaVuSans-2d"/>
       <use xlink:href="#DejaVuSans-35" x="36.083984"/>
       <use xlink:href="#DejaVuSans-30" x="99.707031"/>
       <use xlink:href="#DejaVuSans-30" x="163.330078"/>
      </g>
     </g>
    </g>
    <g id="xtick_3">
     <g id="line2d_3">
      <g>
       <use xlink:href="#m8fb283b171" x="165.990764" y="307.872" style="stroke: #000000; stroke-width: 0.8"/>
      </g>
     </g>
     <g id="text_3">
      <!-- -400 -->
      <g transform="translate(154.643108 322.470438) scale(0.1 -0.1)">
       <defs>
        <path id="DejaVuSans-34" d="M 2419 4116 
L 825 1625 
L 2419 1625 
L 2419 4116 
z
M 2253 4666 
L 3047 4666 
L 3047 1625 
L 3713 1625 
L 3713 1100 
L 3047 1100 
L 3047 0 
L 2419 0 
L 2419 1100 
L 313 1100 
L 313 1709 
L 2253 4666 
z
" transform="scale(0.015625)"/>
       </defs>
       <use xlink:href="#DejaVuSans-2d"/>
       <use xlink:href="#DejaVuSans-34" x="36.083984"/>
       <use xlink:href="#DejaVuSans-30" x="99.707031"/>
       <use xlink:href="#DejaVuSans-30" x="163.330078"/>
      </g>
     </g>
    </g>
    <g id="xtick_4">
     <g id="line2d_4">
      <g>
       <use xlink:href="#m8fb283b171" x="216.617117" y="307.872" style="stroke: #000000; stroke-width: 0.8"/>
      </g>
     </g>
     <g id="text_4">
      <!-- -300 -->
      <g transform="translate(205.269461 322.470438) scale(0.1 -0.1)">
       <defs>
        <path id="DejaVuSans-33" d="M 2597 2516 
Q 3050 2419 3304 2112 
Q 3559 1806 3559 1356 
Q 3559 666 3084 287 
Q 2609 -91 1734 -91 
Q 1441 -91 1130 -33 
Q 819 25 488 141 
L 488 750 
Q 750 597 1062 519 
Q 1375 441 1716 441 
Q 2309 441 2620 675 
Q 2931 909 2931 1356 
Q 2931 1769 2642 2001 
Q 2353 2234 1838 2234 
L 1294 2234 
L 1294 2753 
L 1863 2753 
Q 2328 2753 2575 2939 
Q 2822 3125 2822 3475 
Q 2822 3834 2567 4026 
Q 2313 4219 1838 4219 
Q 1578 4219 1281 4162 
Q 984 4106 628 3988 
L 628 4550 
Q 988 4650 1302 4700 
Q 1616 4750 1894 4750 
Q 2613 4750 3031 4423 
Q 3450 4097 3450 3541 
Q 3450 3153 3228 2886 
Q 3006 2619 2597 2516 
z
" transform="scale(0.015625)"/>
       </defs>
       <use xlink:href="#DejaVuSans-2d"/>
       <use xlink:href="#DejaVuSans-33" x="36.083984"/>
       <use xlink:href="#DejaVuSans-30" x="99.707031"/>
       <use xlink:href="#DejaVuSans-30" x="163.330078"/>
      </g>
     </g>
    </g>
    <g id="xtick_5">
     <g id="line2d_5">
      <g>
       <use xlink:href="#m8fb283b171" x="267.243471" y="307.872" style="stroke: #000000; stroke-width: 0.8"/>
      </g>
     </g>
     <g id="text_5">
      <!-- -200 -->
      <g transform="translate(255.895815 322.470438) scale(0.1 -0.1)">
       <defs>
        <path id="DejaVuSans-32" d="M 1228 531 
L 3431 531 
L 3431 0 
L 469 0 
L 469 531 
Q 828 903 1448 1529 
Q 2069 2156 2228 2338 
Q 2531 2678 2651 2914 
Q 2772 3150 2772 3378 
Q 2772 3750 2511 3984 
Q 2250 4219 1831 4219 
Q 1534 4219 1204 4116 
Q 875 4013 500 3803 
L 500 4441 
Q 881 4594 1212 4672 
Q 1544 4750 1819 4750 
Q 2544 4750 2975 4387 
Q 3406 4025 3406 3419 
Q 3406 3131 3298 2873 
Q 3191 2616 2906 2266 
Q 2828 2175 2409 1742 
Q 1991 1309 1228 531 
z
" transform="scale(0.015625)"/>
       </defs>
       <use xlink:href="#DejaVuSans-2d"/>
       <use xlink:href="#DejaVuSans-32" x="36.083984"/>
       <use xlink:href="#DejaVuSans-30" x="99.707031"/>
       <use xlink:href="#DejaVuSans-30" x="163.330078"/>
      </g>
     </g>
    </g>
    <g id="xtick_6">
     <g id="line2d_6">
      <g>
       <use xlink:href="#m8fb283b171" x="317.869824" y="307.872" style="stroke: #000000; stroke-width: 0.8"/>
      </g>
     </g>
     <g id="text_6">
      <!-- -100 -->
      <g transform="translate(306.522168 322.470438) scale(0.1 -0.1)">
       <defs>
        <path id="DejaVuSans-31" d="M 794 531 
L 1825 531 
L 1825 4091 
L 703 3866 
L 703 4441 
L 1819 4666 
L 2450 4666 
L 2450 531 
L 3481 531 
L 3481 0 
L 794 0 
L 794 531 
z
" transform="scale(0.015625)"/>
       </defs>
       <use xlink:href="#DejaVuSans-2d"/>
       <use xlink:href="#DejaVuSans-31" x="36.083984"/>
       <use xlink:href="#DejaVuSans-30" x="99.707031"/>
       <use xlink:href="#DejaVuSans-30" x="163.330078"/>
      </g>
     </g>
    </g>
    <g id="xtick_7">
     <g id="line2d_7">
      <g>
       <use xlink:href="#m8fb283b171" x="368.496178" y="307.872" style="stroke: #000000; stroke-width: 0.8"/>
      </g>
     </g>
     <g id="text_7">
      <!-- 0 -->
      <g transform="translate(365.314928 322.470438) scale(0.1 -0.1)">
       <use xlink:href="#DejaVuSans-30"/>
      </g>
     </g>
    </g>
    <g id="text_8">
     <!-- Re$(S_{21})$ [mV] -->
     <g transform="translate(197.133438 336.148562) scale(0.1 -0.1)">
      <defs>
       <path id="DejaVuSans-52" d="M 2841 2188 
Q 3044 2119 3236 1894 
Q 3428 1669 3622 1275 
L 4263 0 
L 3584 0 
L 2988 1197 
Q 2756 1666 2539 1819 
Q 2322 1972 1947 1972 
L 1259 1972 
L 1259 0 
L 628 0 
L 628 4666 
L 2053 4666 
Q 2853 4666 3247 4331 
Q 3641 3997 3641 3322 
Q 3641 2881 3436 2590 
Q 3231 2300 2841 2188 
z
M 1259 4147 
L 1259 2491 
L 2053 2491 
Q 2509 2491 2742 2702 
Q 2975 2913 2975 3322 
Q 2975 3731 2742 3939 
Q 2509 4147 2053 4147 
L 1259 4147 
z
" transform="scale(0.015625)"/>
       <path id="DejaVuSans-65" d="M 3597 1894 
L 3597 1613 
L 953 1613 
Q 991 1019 1311 708 
Q 1631 397 2203 397 
Q 2534 397 2845 478 
Q 3156 559 3463 722 
L 3463 178 
Q 3153 47 2828 -22 
Q 2503 -91 2169 -91 
Q 1331 -91 842 396 
Q 353 884 353 1716 
Q 353 2575 817 3079 
Q 1281 3584 2069 3584 
Q 2775 3584 3186 3129 
Q 3597 2675 3597 1894 
z
M 3022 2063 
Q 3016 2534 2758 2815 
Q 2500 3097 2075 3097 
Q 1594 3097 1305 2825 
Q 1016 2553 972 2059 
L 3022 2063 
z
" transform="scale(0.015625)"/>
       <path id="DejaVuSans-28" d="M 1984 4856 
Q 1566 4138 1362 3434 
Q 1159 2731 1159 2009 
Q 1159 1288 1364 580 
Q 1569 -128 1984 -844 
L 1484 -844 
Q 1016 -109 783 600 
Q 550 1309 550 2009 
Q 550 2706 781 3412 
Q 1013 4119 1484 4856 
L 1984 4856 
z
" transform="scale(0.015625)"/>
       <path id="DejaVuSans-Oblique-53" d="M 3859 4513 
L 3738 3897 
Q 3422 4066 3111 4152 
Q 2800 4238 2509 4238 
Q 1944 4238 1609 3991 
Q 1275 3744 1275 3334 
Q 1275 3109 1398 2989 
Q 1522 2869 2034 2731 
L 2413 2638 
Q 3053 2472 3303 2217 
Q 3553 1963 3553 1503 
Q 3553 797 2998 353 
Q 2444 -91 1538 -91 
Q 1166 -91 791 -17 
Q 416 56 38 206 
L 166 856 
Q 513 641 861 531 
Q 1209 422 1556 422 
Q 2147 422 2503 684 
Q 2859 947 2859 1369 
Q 2859 1650 2717 1795 
Q 2575 1941 2106 2059 
L 1728 2156 
Q 1081 2325 845 2545 
Q 609 2766 609 3163 
Q 609 3859 1145 4304 
Q 1681 4750 2541 4750 
Q 2875 4750 3203 4690 
Q 3531 4631 3859 4513 
z
" transform="scale(0.015625)"/>
       <path id="DejaVuSans-29" d="M 513 4856 
L 1013 4856 
Q 1481 4119 1714 3412 
Q 1947 2706 1947 2009 
Q 1947 1309 1714 600 
Q 1481 -109 1013 -844 
L 513 -844 
Q 928 -128 1133 580 
Q 1338 1288 1338 2009 
Q 1338 2731 1133 3434 
Q 928 4138 513 4856 
z
" transform="scale(0.015625)"/>
       <path id="DejaVuSans-20" transform="scale(0.015625)"/>
       <path id="DejaVuSans-5b" d="M 550 4863 
L 1875 4863 
L 1875 4416 
L 1125 4416 
L 1125 -397 
L 1875 -397 
L 1875 -844 
L 550 -844 
L 550 4863 
z
" transform="scale(0.015625)"/>
       <path id="DejaVuSans-6d" d="M 3328 2828 
Q 3544 3216 3844 3400 
Q 4144 3584 4550 3584 
Q 5097 3584 5394 3201 
Q 5691 2819 5691 2113 
L 5691 0 
L 5113 0 
L 5113 2094 
Q 5113 2597 4934 2840 
Q 4756 3084 4391 3084 
Q 3944 3084 3684 2787 
Q 3425 2491 3425 1978 
L 3425 0 
L 2847 0 
L 2847 2094 
Q 2847 2600 2669 2842 
Q 2491 3084 2119 3084 
Q 1678 3084 1418 2786 
Q 1159 2488 1159 1978 
L 1159 0 
L 581 0 
L 581 3500 
L 1159 3500 
L 1159 2956 
Q 1356 3278 1631 3431 
Q 1906 3584 2284 3584 
Q 2666 3584 2933 3390 
Q 3200 3197 3328 2828 
z
" transform="scale(0.015625)"/>
       <path id="DejaVuSans-56" d="M 1831 0 
L 50 4666 
L 709 4666 
L 2188 738 
L 3669 4666 
L 4325 4666 
L 2547 0 
L 1831 0 
z
" transform="scale(0.015625)"/>
       <path id="DejaVuSans-5d" d="M 1947 4863 
L 1947 -844 
L 622 -844 
L 622 -397 
L 1369 -397 
L 1369 4416 
L 622 4416 
L 622 4863 
L 1947 4863 
z
" transform="scale(0.015625)"/>
      </defs>
      <use xlink:href="#DejaVuSans-52" transform="translate(0 0.015625)"/>
      <use xlink:href="#DejaVuSans-65" transform="translate(69.482422 0.015625)"/>
      <use xlink:href="#DejaVuSans-28" transform="translate(131.005859 0.015625)"/>
      <use xlink:href="#DejaVuSans-Oblique-53" transform="translate(170.019531 0.015625)"/>
      <use xlink:href="#DejaVuSans-32" transform="translate(233.496094 -16.390625) scale(0.7)"/>
      <use xlink:href="#DejaVuSans-31" transform="translate(278.032227 -16.390625) scale(0.7)"/>
      <use xlink:href="#DejaVuSans-29" transform="translate(325.302734 0.015625)"/>
      <use xlink:href="#DejaVuSans-20" transform="translate(364.316406 0.015625)"/>
      <use xlink:href="#DejaVuSans-5b" transform="translate(396.103516 0.015625)"/>
      <use xlink:href="#DejaVuSans-6d" transform="translate(435.117188 0.015625)"/>
      <use xlink:href="#DejaVuSans-56" transform="translate(532.529297 0.015625)"/>
      <use xlink:href="#DejaVuSans-5d" transform="translate(600.9375 0.015625)"/>
     </g>
    </g>
   </g>
   <g id="matplotlib.axis_2">
    <g id="ytick_1">
     <g id="line2d_8">
      <defs>
       <path id="ma81a2796bc" d="M 0 0 
L -3.5 0 
" style="stroke: #000000; stroke-width: 0.8"/>
      </defs>
      <g>
       <use xlink:href="#ma81a2796bc" x="50.573438" y="291.406814" style="stroke: #000000; stroke-width: 0.8"/>
      </g>
     </g>
     <g id="text_9">
      <!-- -500 -->
      <g transform="translate(20.878125 295.206033) scale(0.1 -0.1)">
       <use xlink:href="#DejaVuSans-2d"/>
       <use xlink:href="#DejaVuSans-35" x="36.083984"/>
       <use xlink:href="#DejaVuSans-30" x="99.707031"/>
       <use xlink:href="#DejaVuSans-30" x="163.330078"/>
      </g>
     </g>
    </g>
    <g id="ytick_2">
     <g id="line2d_9">
      <g>
       <use xlink:href="#ma81a2796bc" x="50.573438" y="261.422402" style="stroke: #000000; stroke-width: 0.8"/>
      </g>
     </g>
     <g id="text_10">
      <!-- -400 -->
      <g transform="translate(20.878125 265.22162) scale(0.1 -0.1)">
       <use xlink:href="#DejaVuSans-2d"/>
       <use xlink:href="#DejaVuSans-34" x="36.083984"/>
       <use xlink:href="#DejaVuSans-30" x="99.707031"/>
       <use xlink:href="#DejaVuSans-30" x="163.330078"/>
      </g>
     </g>
    </g>
    <g id="ytick_3">
     <g id="line2d_10">
      <g>
       <use xlink:href="#ma81a2796bc" x="50.573438" y="231.437989" style="stroke: #000000; stroke-width: 0.8"/>
      </g>
     </g>
     <g id="text_11">
      <!-- -300 -->
      <g transform="translate(20.878125 235.237208) scale(0.1 -0.1)">
       <use xlink:href="#DejaVuSans-2d"/>
       <use xlink:href="#DejaVuSans-33" x="36.083984"/>
       <use xlink:href="#DejaVuSans-30" x="99.707031"/>
       <use xlink:href="#DejaVuSans-30" x="163.330078"/>
      </g>
     </g>
    </g>
    <g id="ytick_4">
     <g id="line2d_11">
      <g>
       <use xlink:href="#ma81a2796bc" x="50.573438" y="201.453577" style="stroke: #000000; stroke-width: 0.8"/>
      </g>
     </g>
     <g id="text_12">
      <!-- -200 -->
      <g transform="translate(20.878125 205.252796) scale(0.1 -0.1)">
       <use xlink:href="#DejaVuSans-2d"/>
       <use xlink:href="#DejaVuSans-32" x="36.083984"/>
       <use xlink:href="#DejaVuSans-30" x="99.707031"/>
       <use xlink:href="#DejaVuSans-30" x="163.330078"/>
      </g>
     </g>
    </g>
    <g id="ytick_5">
     <g id="line2d_12">
      <g>
       <use xlink:href="#ma81a2796bc" x="50.573438" y="171.469165" style="stroke: #000000; stroke-width: 0.8"/>
      </g>
     </g>
     <g id="text_13">
      <!-- -100 -->
      <g transform="translate(20.878125 175.268384) scale(0.1 -0.1)">
       <use xlink:href="#DejaVuSans-2d"/>
       <use xlink:href="#DejaVuSans-31" x="36.083984"/>
       <use xlink:href="#DejaVuSans-30" x="99.707031"/>
       <use xlink:href="#DejaVuSans-30" x="163.330078"/>
      </g>
     </g>
    </g>
    <g id="ytick_6">
     <g id="line2d_13">
      <g>
       <use xlink:href="#ma81a2796bc" x="50.573438" y="141.484753" style="stroke: #000000; stroke-width: 0.8"/>
      </g>
     </g>
     <g id="text_14">
      <!-- 0 -->
      <g transform="translate(37.210938 145.283971) scale(0.1 -0.1)">
       <use xlink:href="#DejaVuSans-30"/>
      </g>
     </g>
    </g>
    <g id="ytick_7">
     <g id="line2d_14">
      <g>
       <use xlink:href="#ma81a2796bc" x="50.573438" y="111.50034" style="stroke: #000000; stroke-width: 0.8"/>
      </g>
     </g>
     <g id="text_15">
      <!-- 100 -->
      <g transform="translate(24.485938 115.299559) scale(0.1 -0.1)">
       <use xlink:href="#DejaVuSans-31"/>
       <use xlink:href="#DejaVuSans-30" x="63.623047"/>
       <use xlink:href="#DejaVuSans-30" x="127.246094"/>
      </g>
     </g>
    </g>
    <g id="ytick_8">
     <g id="line2d_15">
      <g>
       <use xlink:href="#ma81a2796bc" x="50.573438" y="81.515928" style="stroke: #000000; stroke-width: 0.8"/>
      </g>
     </g>
     <g id="text_16">
      <!-- 200 -->
      <g transform="translate(24.485938 85.315147) scale(0.1 -0.1)">
       <use xlink:href="#DejaVuSans-32"/>
       <use xlink:href="#DejaVuSans-30" x="63.623047"/>
       <use xlink:href="#DejaVuSans-30" x="127.246094"/>
      </g>
     </g>
    </g>
    <g id="ytick_9">
     <g id="line2d_16">
      <g>
       <use xlink:href="#ma81a2796bc" x="50.573438" y="51.531516" style="stroke: #000000; stroke-width: 0.8"/>
      </g>
     </g>
     <g id="text_17">
      <!-- 300 -->
      <g transform="translate(24.485938 55.330734) scale(0.1 -0.1)">
       <use xlink:href="#DejaVuSans-33"/>
       <use xlink:href="#DejaVuSans-30" x="63.623047"/>
       <use xlink:href="#DejaVuSans-30" x="127.246094"/>
      </g>
     </g>
    </g>
    <g id="text_18">
     <!-- Im$(S_{21})$ [mV] -->
     <g transform="translate(14.798438 206.466) rotate(-90) scale(0.1 -0.1)">
      <defs>
       <path id="DejaVuSans-49" d="M 628 4666 
L 1259 4666 
L 1259 0 
L 628 0 
L 628 4666 
z
" transform="scale(0.015625)"/>
      </defs>
      <use xlink:href="#DejaVuSans-49" transform="translate(0 0.015625)"/>
      <use xlink:href="#DejaVuSans-6d" transform="translate(25.867188 0.015625)"/>
      <use xlink:href="#DejaVuSans-28" transform="translate(123.279297 0.015625)"/>
      <use xlink:href="#DejaVuSans-Oblique-53" transform="translate(162.292969 0.015625)"/>
      <use xlink:href="#DejaVuSans-32" transform="translate(225.769531 -16.390625) scale(0.7)"/>
      <use xlink:href="#DejaVuSans-31" transform="translate(270.305664 -16.390625) scale(0.7)"/>
      <use xlink:href="#DejaVuSans-29" transform="translate(317.576172 0.015625)"/>
      <use xlink:href="#DejaVuSans-20" transform="translate(356.589844 0.015625)"/>
      <use xlink:href="#DejaVuSans-5b" transform="translate(388.376953 0.015625)"/>
      <use xlink:href="#DejaVuSans-6d" transform="translate(427.390625 0.015625)"/>
      <use xlink:href="#DejaVuSans-56" transform="translate(524.802734 0.015625)"/>
      <use xlink:href="#DejaVuSans-5d" transform="translate(593.210938 0.015625)"/>
     </g>
    </g>
   </g>
   <g id="line2d_17">
    <path d="M 391.46071 294.125865 
L 381.15956 294.928906 
L 367.955183 295.552724 
L 358.027023 295.776 
L 344.823288 295.620533 
L 338.110582 295.45252 
L 328.046522 294.991856 
L 318.045555 294.322439 
L 301.16243 292.616863 
L 290.908039 291.313705 
L 277.277838 289.179004 
L 263.607688 286.546216 
L 246.386075 282.660924 
L 239.31372 280.89863 
L 228.693249 277.988307 
L 214.456958 273.548838 
L 203.406675 269.816637 
L 192.178363 265.598901 
L 184.52511 262.510101 
L 172.66669 257.347649 
L 164.609654 253.557673 
L 160.392394 251.492798 
L 151.956609 247.048923 
L 147.592749 244.633274 
L 138.666421 239.338992 
L 129.384097 233.386032 
L 124.604082 230.042243 
L 119.795049 226.442345 
L 114.819628 222.571162 
L 109.871566 218.343182 
L 104.8901 213.806442 
L 99.777562 208.815956 
L 94.877572 203.360377 
L 89.862965 197.279626 
L 85.225325 190.593625 
L 80.754983 183.113661 
L 76.841731 174.894953 
L 73.696012 165.69713 
L 71.627535 155.389258 
L 71.118678 144.156637 
L 72.677468 131.857667 
L 77.177384 118.49745 
L 85.231644 104.627617 
L 97.790614 90.731469 
L 115.217942 77.604112 
L 137.713256 66.364325 
L 164.947416 58.102364 
L 195.777335 53.856 
L 228.404205 54.662564 
L 260.419797 60.637096 
L 289.565485 71.295251 
L 313.415471 85.406943 
L 330.816641 101.510776 
L 341.773046 117.901031 
L 346.563975 133.158197 
L 346.975303 146.411351 
L 344.174096 158.330393 
L 339.230015 168.659367 
L 332.814093 177.319563 
L 325.477073 184.526129 
L 317.654768 190.364715 
L 309.826899 195.04452 
L 302.003925 198.888035 
L 294.305098 201.789568 
L 286.942352 204.156725 
L 279.901961 205.904135 
L 273.257068 207.191874 
L 266.977164 208.077247 
L 260.91239 208.670527 
L 255.193215 208.978545 
L 249.9486 209.099552 
L 244.844951 208.97328 
L 240.097921 208.688022 
L 235.559728 208.273691 
L 231.242894 207.756261 
L 227.134469 207.148034 
L 219.520751 205.543825 
L 212.721682 203.777053 
L 206.476736 201.741341 
L 198.361449 198.475934 
L 193.442039 196.083136 
L 188.839536 193.648357 
L 184.668984 191.122263 
L 180.873661 188.55261 
L 173.998351 183.192235 
L 170.989243 180.437912 
L 169.530556 179.118423 
L 168.27192 177.660424 
L 165.572301 174.909885 
L 163.27216 172.086065 
L 161.096585 169.262875 
L 157.201102 163.529771 
L 153.476876 156.239024 
L 152.226504 153.269894 
L 151.728638 151.821252 
L 151.102117 150.405729 
L 149.635529 145.952147 
L 148.593822 141.578601 
L 147.852253 137.179361 
L 147.432543 134.189467 
L 147.092713 129.773842 
L 146.994973 126.816844 
L 147.116883 122.435677 
L 147.316349 119.463272 
L 147.64986 116.484155 
L 147.803294 115.013925 
L 148.154313 113.510972 
L 148.596738 110.581199 
L 150.517033 103.150332 
L 150.517033 103.150332 
" clip-path="url(#p1e6ec91cc8)" style="fill: none; stroke: #1f77b4; stroke-width: 1.5; stroke-linecap: square"/>
    <defs>
     <path id="mf74719af37" d="M 0 1.5 
C 0.397805 1.5 0.77937 1.341951 1.06066 1.06066 
C 1.341951 0.77937 1.5 0.397805 1.5 0 
C 1.5 -0.397805 1.341951 -0.77937 1.06066 -1.06066 
C 0.77937 -1.341951 0.397805 -1.5 0 -1.5 
C -0.397805 -1.5 -0.77937 -1.341951 -1.06066 -1.06066 
C -1.341951 -0.77937 -1.5 -0.397805 -1.5 0 
C -1.5 0.397805 -1.341951 0.77937 -1.06066 1.06066 
C -0.77937 1.341951 -0.397805 1.5 0 1.5 
z
" style="stroke: #1f77b4"/>
    </defs>
    <g clip-path="url(#p1e6ec91cc8)">
     <use xlink:href="#mf74719af37" x="391.46071" y="294.125865" style="fill: #1f77b4; stroke: #1f77b4"/>
     <use xlink:href="#mf74719af37" x="387.861097" y="294.424904" style="fill: #1f77b4; stroke: #1f77b4"/>
     <use xlink:href="#mf74719af37" x="384.505895" y="294.710443" style="fill: #1f77b4; stroke: #1f77b4"/>
     <use xlink:href="#mf74719af37" x="381.15956" y="294.928906" style="fill: #1f77b4; stroke: #1f77b4"/>
     <use xlink:href="#mf74719af37" x="377.8354" y="295.096575" style="fill: #1f77b4; stroke: #1f77b4"/>
     <use xlink:href="#mf74719af37" x="374.505342" y="295.29683" style="fill: #1f77b4; stroke: #1f77b4"/>
     <use xlink:href="#mf74719af37" x="371.177461" y="295.434117" style="fill: #1f77b4; stroke: #1f77b4"/>
     <use xlink:href="#mf74719af37" x="367.955183" y="295.552724" style="fill: #1f77b4; stroke: #1f77b4"/>
     <use xlink:href="#mf74719af37" x="364.622076" y="295.644541" style="fill: #1f77b4; stroke: #1f77b4"/>
     <use xlink:href="#mf74719af37" x="361.321749" y="295.676583" style="fill: #1f77b4; stroke: #1f77b4"/>
     <use xlink:href="#mf74719af37" x="358.027023" y="295.776" style="fill: #1f77b4; stroke: #1f77b4"/>
     <use xlink:href="#mf74719af37" x="354.788292" y="295.763646" style="fill: #1f77b4; stroke: #1f77b4"/>
     <use xlink:href="#mf74719af37" x="351.393446" y="295.760825" style="fill: #1f77b4; stroke: #1f77b4"/>
     <use xlink:href="#mf74719af37" x="348.095443" y="295.707609" style="fill: #1f77b4; stroke: #1f77b4"/>
     <use xlink:href="#mf74719af37" x="344.823288" y="295.620533" style="fill: #1f77b4; stroke: #1f77b4"/>
     <use xlink:href="#mf74719af37" x="341.47697" y="295.568171" style="fill: #1f77b4; stroke: #1f77b4"/>
     <use xlink:href="#mf74719af37" x="338.110582" y="295.45252" style="fill: #1f77b4; stroke: #1f77b4"/>
     <use xlink:href="#mf74719af37" x="334.783851" y="295.327623" style="fill: #1f77b4; stroke: #1f77b4"/>
     <use xlink:href="#mf74719af37" x="331.454243" y="295.192795" style="fill: #1f77b4; stroke: #1f77b4"/>
     <use xlink:href="#mf74719af37" x="328.046522" y="294.991856" style="fill: #1f77b4; stroke: #1f77b4"/>
     <use xlink:href="#mf74719af37" x="324.766003" y="294.800934" style="fill: #1f77b4; stroke: #1f77b4"/>
     <use xlink:href="#mf74719af37" x="321.427483" y="294.55735" style="fill: #1f77b4; stroke: #1f77b4"/>
     <use xlink:href="#mf74719af37" x="318.045555" y="294.322439" style="fill: #1f77b4; stroke: #1f77b4"/>
     <use xlink:href="#mf74719af37" x="314.693575" y="294.005043" style="fill: #1f77b4; stroke: #1f77b4"/>
     <use xlink:href="#mf74719af37" x="311.321244" y="293.68981" style="fill: #1f77b4; stroke: #1f77b4"/>
     <use xlink:href="#mf74719af37" x="307.93554" y="293.362659" style="fill: #1f77b4; stroke: #1f77b4"/>
     <use xlink:href="#mf74719af37" x="304.478635" y="292.964112" style="fill: #1f77b4; stroke: #1f77b4"/>
     <use xlink:href="#mf74719af37" x="301.16243" y="292.616863" style="fill: #1f77b4; stroke: #1f77b4"/>
     <use xlink:href="#mf74719af37" x="297.685972" y="292.196963" style="fill: #1f77b4; stroke: #1f77b4"/>
     <use xlink:href="#mf74719af37" x="294.363861" y="291.713639" style="fill: #1f77b4; stroke: #1f77b4"/>
     <use xlink:href="#mf74719af37" x="290.908039" y="291.313705" style="fill: #1f77b4; stroke: #1f77b4"/>
     <use xlink:href="#mf74719af37" x="287.489817" y="290.785938" style="fill: #1f77b4; stroke: #1f77b4"/>
     <use xlink:href="#mf74719af37" x="284.153607" y="290.241068" style="fill: #1f77b4; stroke: #1f77b4"/>
     <use xlink:href="#mf74719af37" x="280.80157" y="289.717805" style="fill: #1f77b4; stroke: #1f77b4"/>
     <use xlink:href="#mf74719af37" x="277.277838" y="289.179004" style="fill: #1f77b4; stroke: #1f77b4"/>
     <use xlink:href="#mf74719af37" x="273.892693" y="288.533718" style="fill: #1f77b4; stroke: #1f77b4"/>
     <use xlink:href="#mf74719af37" x="270.557351" y="287.905165" style="fill: #1f77b4; stroke: #1f77b4"/>
     <use xlink:href="#mf74719af37" x="267.059939" y="287.260865" style="fill: #1f77b4; stroke: #1f77b4"/>
     <use xlink:href="#mf74719af37" x="263.607688" y="286.546216" style="fill: #1f77b4; stroke: #1f77b4"/>
     <use xlink:href="#mf74719af37" x="260.171343" y="285.784448" style="fill: #1f77b4; stroke: #1f77b4"/>
     <use xlink:href="#mf74719af37" x="256.770375" y="285.089923" style="fill: #1f77b4; stroke: #1f77b4"/>
     <use xlink:href="#mf74719af37" x="253.273381" y="284.291033" style="fill: #1f77b4; stroke: #1f77b4"/>
     <use xlink:href="#mf74719af37" x="249.777813" y="283.464945" style="fill: #1f77b4; stroke: #1f77b4"/>
     <use xlink:href="#mf74719af37" x="246.386075" y="282.660924" style="fill: #1f77b4; stroke: #1f77b4"/>
     <use xlink:href="#mf74719af37" x="242.774098" y="281.787853" style="fill: #1f77b4; stroke: #1f77b4"/>
     <use xlink:href="#mf74719af37" x="239.31372" y="280.89863" style="fill: #1f77b4; stroke: #1f77b4"/>
     <use xlink:href="#mf74719af37" x="235.815516" y="279.941216" style="fill: #1f77b4; stroke: #1f77b4"/>
     <use xlink:href="#mf74719af37" x="232.30014" y="278.980659" style="fill: #1f77b4; stroke: #1f77b4"/>
     <use xlink:href="#mf74719af37" x="228.693249" y="277.988307" style="fill: #1f77b4; stroke: #1f77b4"/>
     <use xlink:href="#mf74719af37" x="225.147879" y="276.901061" style="fill: #1f77b4; stroke: #1f77b4"/>
     <use xlink:href="#mf74719af37" x="221.569349" y="275.863237" style="fill: #1f77b4; stroke: #1f77b4"/>
     <use xlink:href="#mf74719af37" x="218.057004" y="274.714648" style="fill: #1f77b4; stroke: #1f77b4"/>
     <use xlink:href="#mf74719af37" x="214.456958" y="273.548838" style="fill: #1f77b4; stroke: #1f77b4"/>
     <use xlink:href="#mf74719af37" x="210.828419" y="272.352404" style="fill: #1f77b4; stroke: #1f77b4"/>
     <use xlink:href="#mf74719af37" x="207.093354" y="271.101281" style="fill: #1f77b4; stroke: #1f77b4"/>
     <use xlink:href="#mf74719af37" x="203.406675" y="269.816637" style="fill: #1f77b4; stroke: #1f77b4"/>
     <use xlink:href="#mf74719af37" x="199.793832" y="268.487907" style="fill: #1f77b4; stroke: #1f77b4"/>
     <use xlink:href="#mf74719af37" x="195.988289" y="267.092384" style="fill: #1f77b4; stroke: #1f77b4"/>
     <use xlink:href="#mf74719af37" x="192.178363" y="265.598901" style="fill: #1f77b4; stroke: #1f77b4"/>
     <use xlink:href="#mf74719af37" x="188.329348" y="264.101223" style="fill: #1f77b4; stroke: #1f77b4"/>
     <use xlink:href="#mf74719af37" x="184.52511" y="262.510101" style="fill: #1f77b4; stroke: #1f77b4"/>
     <use xlink:href="#mf74719af37" x="180.676532" y="260.861336" style="fill: #1f77b4; stroke: #1f77b4"/>
     <use xlink:href="#mf74719af37" x="176.631873" y="259.139482" style="fill: #1f77b4; stroke: #1f77b4"/>
     <use xlink:href="#mf74719af37" x="172.66669" y="257.347649" style="fill: #1f77b4; stroke: #1f77b4"/>
     <use xlink:href="#mf74719af37" x="168.64611" y="255.484202" style="fill: #1f77b4; stroke: #1f77b4"/>
     <use xlink:href="#mf74719af37" x="164.609654" y="253.557673" style="fill: #1f77b4; stroke: #1f77b4"/>
     <use xlink:href="#mf74719af37" x="160.392394" y="251.492798" style="fill: #1f77b4; stroke: #1f77b4"/>
     <use xlink:href="#mf74719af37" x="156.277519" y="249.34767" style="fill: #1f77b4; stroke: #1f77b4"/>
     <use xlink:href="#mf74719af37" x="151.956609" y="247.048923" style="fill: #1f77b4; stroke: #1f77b4"/>
     <use xlink:href="#mf74719af37" x="147.592749" y="244.633274" style="fill: #1f77b4; stroke: #1f77b4"/>
     <use xlink:href="#mf74719af37" x="143.166075" y="242.050231" style="fill: #1f77b4; stroke: #1f77b4"/>
     <use xlink:href="#mf74719af37" x="138.666421" y="239.338992" style="fill: #1f77b4; stroke: #1f77b4"/>
     <use xlink:href="#mf74719af37" x="134.047603" y="236.434724" style="fill: #1f77b4; stroke: #1f77b4"/>
     <use xlink:href="#mf74719af37" x="129.384097" y="233.386032" style="fill: #1f77b4; stroke: #1f77b4"/>
     <use xlink:href="#mf74719af37" x="124.604082" y="230.042243" style="fill: #1f77b4; stroke: #1f77b4"/>
     <use xlink:href="#mf74719af37" x="119.795049" y="226.442345" style="fill: #1f77b4; stroke: #1f77b4"/>
     <use xlink:href="#mf74719af37" x="114.819628" y="222.571162" style="fill: #1f77b4; stroke: #1f77b4"/>
     <use xlink:href="#mf74719af37" x="109.871566" y="218.343182" style="fill: #1f77b4; stroke: #1f77b4"/>
     <use xlink:href="#mf74719af37" x="104.8901" y="213.806442" style="fill: #1f77b4; stroke: #1f77b4"/>
     <use xlink:href="#mf74719af37" x="99.777562" y="208.815956" style="fill: #1f77b4; stroke: #1f77b4"/>
     <use xlink:href="#mf74719af37" x="94.877572" y="203.360377" style="fill: #1f77b4; stroke: #1f77b4"/>
     <use xlink:href="#mf74719af37" x="89.862965" y="197.279626" style="fill: #1f77b4; stroke: #1f77b4"/>
     <use xlink:href="#mf74719af37" x="85.225325" y="190.593625" style="fill: #1f77b4; stroke: #1f77b4"/>
     <use xlink:href="#mf74719af37" x="80.754983" y="183.113661" style="fill: #1f77b4; stroke: #1f77b4"/>
     <use xlink:href="#mf74719af37" x="76.841731" y="174.894953" style="fill: #1f77b4; stroke: #1f77b4"/>
     <use xlink:href="#mf74719af37" x="73.696012" y="165.69713" style="fill: #1f77b4; stroke: #1f77b4"/>
     <use xlink:href="#mf74719af37" x="71.627535" y="155.389258" style="fill: #1f77b4; stroke: #1f77b4"/>
     <use xlink:href="#mf74719af37" x="71.118678" y="144.156637" style="fill: #1f77b4; stroke: #1f77b4"/>
     <use xlink:href="#mf74719af37" x="72.677468" y="131.857667" style="fill: #1f77b4; stroke: #1f77b4"/>
     <use xlink:href="#mf74719af37" x="77.177384" y="118.49745" style="fill: #1f77b4; stroke: #1f77b4"/>
     <use xlink:href="#mf74719af37" x="85.231644" y="104.627617" style="fill: #1f77b4; stroke: #1f77b4"/>
     <use xlink:href="#mf74719af37" x="97.790614" y="90.731469" style="fill: #1f77b4; stroke: #1f77b4"/>
     <use xlink:href="#mf74719af37" x="115.217942" y="77.604112" style="fill: #1f77b4; stroke: #1f77b4"/>
     <use xlink:href="#mf74719af37" x="137.713256" y="66.364325" style="fill: #1f77b4; stroke: #1f77b4"/>
     <use xlink:href="#mf74719af37" x="164.947416" y="58.102364" style="fill: #1f77b4; stroke: #1f77b4"/>
     <use xlink:href="#mf74719af37" x="195.777335" y="53.856" style="fill: #1f77b4; stroke: #1f77b4"/>
     <use xlink:href="#mf74719af37" x="228.404205" y="54.662564" style="fill: #1f77b4; stroke: #1f77b4"/>
     <use xlink:href="#mf74719af37" x="260.419797" y="60.637096" style="fill: #1f77b4; stroke: #1f77b4"/>
     <use xlink:href="#mf74719af37" x="289.565485" y="71.295251" style="fill: #1f77b4; stroke: #1f77b4"/>
     <use xlink:href="#mf74719af37" x="313.415471" y="85.406943" style="fill: #1f77b4; stroke: #1f77b4"/>
     <use xlink:href="#mf74719af37" x="330.816641" y="101.510776" style="fill: #1f77b4; stroke: #1f77b4"/>
     <use xlink:href="#mf74719af37" x="341.773046" y="117.901031" style="fill: #1f77b4; stroke: #1f77b4"/>
     <use xlink:href="#mf74719af37" x="346.563975" y="133.158197" style="fill: #1f77b4; stroke: #1f77b4"/>
     <use xlink:href="#mf74719af37" x="346.975303" y="146.411351" style="fill: #1f77b4; stroke: #1f77b4"/>
     <use xlink:href="#mf74719af37" x="344.174096" y="158.330393" style="fill: #1f77b4; stroke: #1f77b4"/>
     <use xlink:href="#mf74719af37" x="339.230015" y="168.659367" style="fill: #1f77b4; stroke: #1f77b4"/>
     <use xlink:href="#mf74719af37" x="332.814093" y="177.319563" style="fill: #1f77b4; stroke: #1f77b4"/>
     <use xlink:href="#mf74719af37" x="325.477073" y="184.526129" style="fill: #1f77b4; stroke: #1f77b4"/>
     <use xlink:href="#mf74719af37" x="317.654768" y="190.364715" style="fill: #1f77b4; stroke: #1f77b4"/>
     <use xlink:href="#mf74719af37" x="309.826899" y="195.04452" style="fill: #1f77b4; stroke: #1f77b4"/>
     <use xlink:href="#mf74719af37" x="302.003925" y="198.888035" style="fill: #1f77b4; stroke: #1f77b4"/>
     <use xlink:href="#mf74719af37" x="294.305098" y="201.789568" style="fill: #1f77b4; stroke: #1f77b4"/>
     <use xlink:href="#mf74719af37" x="286.942352" y="204.156725" style="fill: #1f77b4; stroke: #1f77b4"/>
     <use xlink:href="#mf74719af37" x="279.901961" y="205.904135" style="fill: #1f77b4; stroke: #1f77b4"/>
     <use xlink:href="#mf74719af37" x="273.257068" y="207.191874" style="fill: #1f77b4; stroke: #1f77b4"/>
     <use xlink:href="#mf74719af37" x="266.977164" y="208.077247" style="fill: #1f77b4; stroke: #1f77b4"/>
     <use xlink:href="#mf74719af37" x="260.91239" y="208.670527" style="fill: #1f77b4; stroke: #1f77b4"/>
     <use xlink:href="#mf74719af37" x="255.193215" y="208.978545" style="fill: #1f77b4; stroke: #1f77b4"/>
     <use xlink:href="#mf74719af37" x="249.9486" y="209.099552" style="fill: #1f77b4; stroke: #1f77b4"/>
     <use xlink:href="#mf74719af37" x="244.844951" y="208.97328" style="fill: #1f77b4; stroke: #1f77b4"/>
     <use xlink:href="#mf74719af37" x="240.097921" y="208.688022" style="fill: #1f77b4; stroke: #1f77b4"/>
     <use xlink:href="#mf74719af37" x="235.559728" y="208.273691" style="fill: #1f77b4; stroke: #1f77b4"/>
     <use xlink:href="#mf74719af37" x="231.242894" y="207.756261" style="fill: #1f77b4; stroke: #1f77b4"/>
     <use xlink:href="#mf74719af37" x="227.134469" y="207.148034" style="fill: #1f77b4; stroke: #1f77b4"/>
     <use xlink:href="#mf74719af37" x="223.232266" y="206.337057" style="fill: #1f77b4; stroke: #1f77b4"/>
     <use xlink:href="#mf74719af37" x="219.520751" y="205.543825" style="fill: #1f77b4; stroke: #1f77b4"/>
     <use xlink:href="#mf74719af37" x="216.02302" y="204.681716" style="fill: #1f77b4; stroke: #1f77b4"/>
     <use xlink:href="#mf74719af37" x="212.721682" y="203.777053" style="fill: #1f77b4; stroke: #1f77b4"/>
     <use xlink:href="#mf74719af37" x="209.645012" y="202.780628" style="fill: #1f77b4; stroke: #1f77b4"/>
     <use xlink:href="#mf74719af37" x="206.476736" y="201.741341" style="fill: #1f77b4; stroke: #1f77b4"/>
     <use xlink:href="#mf74719af37" x="203.781437" y="200.674718" style="fill: #1f77b4; stroke: #1f77b4"/>
     <use xlink:href="#mf74719af37" x="200.879403" y="199.553527" style="fill: #1f77b4; stroke: #1f77b4"/>
     <use xlink:href="#mf74719af37" x="198.361449" y="198.475934" style="fill: #1f77b4; stroke: #1f77b4"/>
     <use xlink:href="#mf74719af37" x="195.839158" y="197.300258" style="fill: #1f77b4; stroke: #1f77b4"/>
     <use xlink:href="#mf74719af37" x="193.442039" y="196.083136" style="fill: #1f77b4; stroke: #1f77b4"/>
     <use xlink:href="#mf74719af37" x="191.108506" y="194.875881" style="fill: #1f77b4; stroke: #1f77b4"/>
     <use xlink:href="#mf74719af37" x="188.839536" y="193.648357" style="fill: #1f77b4; stroke: #1f77b4"/>
     <use xlink:href="#mf74719af37" x="186.707414" y="192.392601" style="fill: #1f77b4; stroke: #1f77b4"/>
     <use xlink:href="#mf74719af37" x="184.668984" y="191.122263" style="fill: #1f77b4; stroke: #1f77b4"/>
     <use xlink:href="#mf74719af37" x="182.698623" y="189.823814" style="fill: #1f77b4; stroke: #1f77b4"/>
     <use xlink:href="#mf74719af37" x="180.873661" y="188.55261" style="fill: #1f77b4; stroke: #1f77b4"/>
     <use xlink:href="#mf74719af37" x="179.091622" y="187.177952" style="fill: #1f77b4; stroke: #1f77b4"/>
     <use xlink:href="#mf74719af37" x="177.263907" y="185.861026" style="fill: #1f77b4; stroke: #1f77b4"/>
     <use xlink:href="#mf74719af37" x="175.647817" y="184.528439" style="fill: #1f77b4; stroke: #1f77b4"/>
     <use xlink:href="#mf74719af37" x="173.998351" y="183.192235" style="fill: #1f77b4; stroke: #1f77b4"/>
     <use xlink:href="#mf74719af37" x="172.454266" y="181.849116" style="fill: #1f77b4; stroke: #1f77b4"/>
     <use xlink:href="#mf74719af37" x="170.989243" y="180.437912" style="fill: #1f77b4; stroke: #1f77b4"/>
     <use xlink:href="#mf74719af37" x="169.530556" y="179.118423" style="fill: #1f77b4; stroke: #1f77b4"/>
     <use xlink:href="#mf74719af37" x="168.27192" y="177.660424" style="fill: #1f77b4; stroke: #1f77b4"/>
     <use xlink:href="#mf74719af37" x="166.918167" y="176.320513" style="fill: #1f77b4; stroke: #1f77b4"/>
     <use xlink:href="#mf74719af37" x="165.572301" y="174.909885" style="fill: #1f77b4; stroke: #1f77b4"/>
     <use xlink:href="#mf74719af37" x="164.37027" y="173.504922" style="fill: #1f77b4; stroke: #1f77b4"/>
     <use xlink:href="#mf74719af37" x="163.27216" y="172.086065" style="fill: #1f77b4; stroke: #1f77b4"/>
     <use xlink:href="#mf74719af37" x="162.138434" y="170.69016" style="fill: #1f77b4; stroke: #1f77b4"/>
     <use xlink:href="#mf74719af37" x="161.096585" y="169.262875" style="fill: #1f77b4; stroke: #1f77b4"/>
     <use xlink:href="#mf74719af37" x="160.092123" y="167.808317" style="fill: #1f77b4; stroke: #1f77b4"/>
     <use xlink:href="#mf74719af37" x="159.110051" y="166.379463" style="fill: #1f77b4; stroke: #1f77b4"/>
     <use xlink:href="#mf74719af37" x="158.118939" y="164.951575" style="fill: #1f77b4; stroke: #1f77b4"/>
     <use xlink:href="#mf74719af37" x="157.201102" y="163.529771" style="fill: #1f77b4; stroke: #1f77b4"/>
     <use xlink:href="#mf74719af37" x="156.451162" y="162.07771" style="fill: #1f77b4; stroke: #1f77b4"/>
     <use xlink:href="#mf74719af37" x="155.589078" y="160.595148" style="fill: #1f77b4; stroke: #1f77b4"/>
     <use xlink:href="#mf74719af37" x="154.854542" y="159.119406" style="fill: #1f77b4; stroke: #1f77b4"/>
     <use xlink:href="#mf74719af37" x="154.170258" y="157.673655" style="fill: #1f77b4; stroke: #1f77b4"/>
     <use xlink:href="#mf74719af37" x="153.476876" y="156.239024" style="fill: #1f77b4; stroke: #1f77b4"/>
     <use xlink:href="#mf74719af37" x="152.852801" y="154.776728" style="fill: #1f77b4; stroke: #1f77b4"/>
     <use xlink:href="#mf74719af37" x="152.226504" y="153.269894" style="fill: #1f77b4; stroke: #1f77b4"/>
     <use xlink:href="#mf74719af37" x="151.728638" y="151.821252" style="fill: #1f77b4; stroke: #1f77b4"/>
     <use xlink:href="#mf74719af37" x="151.102117" y="150.405729" style="fill: #1f77b4; stroke: #1f77b4"/>
     <use xlink:href="#mf74719af37" x="150.586464" y="148.913521" style="fill: #1f77b4; stroke: #1f77b4"/>
     <use xlink:href="#mf74719af37" x="150.161653" y="147.490958" style="fill: #1f77b4; stroke: #1f77b4"/>
     <use xlink:href="#mf74719af37" x="149.635529" y="145.952147" style="fill: #1f77b4; stroke: #1f77b4"/>
     <use xlink:href="#mf74719af37" x="149.275199" y="144.504809" style="fill: #1f77b4; stroke: #1f77b4"/>
     <use xlink:href="#mf74719af37" x="148.940703" y="143.008013" style="fill: #1f77b4; stroke: #1f77b4"/>
     <use xlink:href="#mf74719af37" x="148.593822" y="141.578601" style="fill: #1f77b4; stroke: #1f77b4"/>
     <use xlink:href="#mf74719af37" x="148.325004" y="140.133067" style="fill: #1f77b4; stroke: #1f77b4"/>
     <use xlink:href="#mf74719af37" x="148.027188" y="138.625081" style="fill: #1f77b4; stroke: #1f77b4"/>
     <use xlink:href="#mf74719af37" x="147.852253" y="137.179361" style="fill: #1f77b4; stroke: #1f77b4"/>
     <use xlink:href="#mf74719af37" x="147.623359" y="135.671734" style="fill: #1f77b4; stroke: #1f77b4"/>
     <use xlink:href="#mf74719af37" x="147.432543" y="134.189467" style="fill: #1f77b4; stroke: #1f77b4"/>
     <use xlink:href="#mf74719af37" x="147.358281" y="132.766173" style="fill: #1f77b4; stroke: #1f77b4"/>
     <use xlink:href="#mf74719af37" x="147.249311" y="131.276953" style="fill: #1f77b4; stroke: #1f77b4"/>
     <use xlink:href="#mf74719af37" x="147.092713" y="129.773842" style="fill: #1f77b4; stroke: #1f77b4"/>
     <use xlink:href="#mf74719af37" x="147.007724" y="128.370021" style="fill: #1f77b4; stroke: #1f77b4"/>
     <use xlink:href="#mf74719af37" x="146.994973" y="126.816844" style="fill: #1f77b4; stroke: #1f77b4"/>
     <use xlink:href="#mf74719af37" x="147.017074" y="125.374933" style="fill: #1f77b4; stroke: #1f77b4"/>
     <use xlink:href="#mf74719af37" x="147.030704" y="123.905962" style="fill: #1f77b4; stroke: #1f77b4"/>
     <use xlink:href="#mf74719af37" x="147.116883" y="122.435677" style="fill: #1f77b4; stroke: #1f77b4"/>
     <use xlink:href="#mf74719af37" x="147.20066" y="120.93055" style="fill: #1f77b4; stroke: #1f77b4"/>
     <use xlink:href="#mf74719af37" x="147.316349" y="119.463272" style="fill: #1f77b4; stroke: #1f77b4"/>
     <use xlink:href="#mf74719af37" x="147.522896" y="117.968734" style="fill: #1f77b4; stroke: #1f77b4"/>
     <use xlink:href="#mf74719af37" x="147.64986" y="116.484155" style="fill: #1f77b4; stroke: #1f77b4"/>
     <use xlink:href="#mf74719af37" x="147.803294" y="115.013925" style="fill: #1f77b4; stroke: #1f77b4"/>
     <use xlink:href="#mf74719af37" x="148.154313" y="113.510972" style="fill: #1f77b4; stroke: #1f77b4"/>
     <use xlink:href="#mf74719af37" x="148.320867" y="112.123959" style="fill: #1f77b4; stroke: #1f77b4"/>
     <use xlink:href="#mf74719af37" x="148.596738" y="110.581199" style="fill: #1f77b4; stroke: #1f77b4"/>
     <use xlink:href="#mf74719af37" x="148.96598" y="109.0962" style="fill: #1f77b4; stroke: #1f77b4"/>
     <use xlink:href="#mf74719af37" x="149.313597" y="107.571074" style="fill: #1f77b4; stroke: #1f77b4"/>
     <use xlink:href="#mf74719af37" x="149.658131" y="106.138073" style="fill: #1f77b4; stroke: #1f77b4"/>
     <use xlink:href="#mf74719af37" x="150.073556" y="104.658201" style="fill: #1f77b4; stroke: #1f77b4"/>
     <use xlink:href="#mf74719af37" x="150.517033" y="103.150332" style="fill: #1f77b4; stroke: #1f77b4"/>
    </g>
   </g>
   <g id="line2d_18">
    <path d="M 381.236162 293.796014 
L 371.23464 294.295681 
L 361.124905 294.585257 
L 350.910401 294.661015 
L 340.593414 294.518889 
L 330.174834 294.154336 
L 319.653859 293.562155 
L 309.027627 292.736253 
L 298.29077 291.669333 
L 288.076924 290.437045 
L 277.747562 288.974195 
L 267.288989 287.269319 
L 256.683073 285.307896 
L 246.585312 283.219556 
L 236.312564 280.869573 
L 226.539399 278.417613 
L 216.555304 275.688187 
L 207.061979 272.874346 
L 197.316453 269.753401 
L 188.058501 266.557785 
L 179.31539 263.318957 
L 170.290079 259.731916 
L 161.807325 256.113326 
L 153.91998 252.51065 
L 146.689161 248.983027 
L 139.237015 245.094048 
L 132.52716 241.342729 
L 126.633791 237.825094 
L 120.612874 233.984468 
L 115.505043 230.501339 
L 110.326332 226.725177 
L 105.09407 222.616431 
L 100.886988 219.059427 
L 96.681165 215.233718 
L 92.501997 211.109483 
L 88.38316 206.653552 
L 85.359779 203.072031 
L 82.41846 199.266707 
L 79.58779 195.219893 
L 76.902413 190.91307 
L 74.404154 186.327143 
L 72.867047 183.105279 
L 71.452533 179.745169 
L 70.18005 176.241366 
L 69.071404 172.588743 
L 68.150985 168.782653 
L 67.445982 164.819133 
L 66.986586 160.695142 
L 66.806165 156.408857 
L 66.941407 151.960015 
L 67.432397 147.350317 
L 68.322605 142.58389 
L 69.658762 137.667823 
L 70.509499 135.15684 
L 71.490569 132.612745 
L 72.60857 130.037524 
L 73.870211 127.43347 
L 75.282281 124.803197 
L 76.851617 122.149668 
L 78.585063 119.476214 
L 80.489423 116.78655 
L 82.571407 114.084802 
L 84.837578 111.375518 
L 87.29428 108.663685 
L 89.947573 105.954742 
L 92.803147 103.254588 
L 95.866246 100.569587 
L 99.141573 97.906567 
L 102.633195 95.272816 
L 106.344447 92.676066 
L 110.277824 90.124477 
L 114.434883 87.626606 
L 118.816132 85.191376 
L 123.420934 82.828026 
L 128.247403 80.546058 
L 133.292318 78.355178 
L 138.551034 76.265216 
L 144.017414 74.286049 
L 149.683772 72.427509 
L 155.540834 70.699284 
L 161.577718 69.110813 
L 167.781936 67.671181 
L 174.139422 66.389001 
L 180.634585 65.272304 
L 187.250388 64.328427 
L 193.968452 63.563906 
L 200.769191 62.984375 
L 207.63197 62.594472 
L 214.535284 62.397762 
L 221.456959 62.396668 
L 228.374368 62.592422 
L 235.264663 62.985034 
L 242.105008 63.573275 
L 248.872818 64.354683 
L 255.545998 65.325588 
L 262.103169 66.481154 
L 268.52388 67.815444 
L 274.78881 69.321491 
L 280.87994 70.991393 
L 286.780708 72.816417 
L 292.476129 74.787109 
L 297.952898 76.893416 
L 303.199449 79.124806 
L 308.205998 81.470393 
L 312.964555 83.919061 
L 317.468902 86.459579 
L 321.714557 89.080717 
L 325.698712 91.771348 
L 329.42015 94.520544 
L 332.879153 97.317663 
L 336.077392 100.152423 
L 339.017812 103.014963 
L 341.704505 105.895901 
L 344.142589 108.78637 
L 346.338079 111.67805 
L 348.297763 114.563194 
L 350.029078 117.434635 
L 351.539998 120.285792 
L 352.838918 123.110666 
L 353.934558 125.903834 
L 354.835863 128.66043 
L 355.551918 131.376131 
L 356.091871 134.047128 
L 356.464863 136.670108 
L 356.679965 139.242221 
L 356.74613 141.761054 
L 356.672141 144.224602 
L 356.466578 146.631237 
L 356.137783 148.979681 
L 355.693837 151.268974 
L 355.142537 153.498446 
L 353.74757 157.77655 
L 352.009155 161.813467 
L 349.978501 165.611731 
L 347.701771 169.176258 
L 345.220248 172.51377 
L 342.570583 175.632305 
L 339.785106 178.540815 
L 336.892175 181.248825 
L 333.916528 183.766177 
L 330.87964 186.102812 
L 327.800061 188.268609 
L 323.134898 191.218114 
L 318.453434 193.836452 
L 313.790435 196.153257 
L 309.172769 198.196079 
L 304.620892 199.990286 
L 300.150086 201.559078 
L 294.333858 203.336342 
L 288.698677 204.794762 
L 283.254337 205.973272 
L 278.005027 206.905752 
L 271.717639 207.76984 
L 265.729464 208.344328 
L 260.030597 208.67039 
L 254.608615 208.782593 
L 248.448371 208.675557 
L 242.642558 208.34394 
L 237.16692 207.82191 
L 231.165031 207.00942 
L 225.546463 206.012167 
L 220.27967 204.859453 
L 214.654751 203.381996 
L 209.414128 201.761028 
L 204.524347 200.019468 
L 199.956028 198.175824 
L 195.168938 195.998358 
L 190.724173 193.728127 
L 186.594076 191.379247 
L 182.345091 188.691107 
L 178.426705 185.933036 
L 174.814568 183.11565 
L 171.487697 180.247747 
L 168.427935 177.336708 
L 165.351944 174.092199 
L 162.561908 170.810184 
L 160.042079 167.496778 
L 157.778769 164.157299 
L 155.760012 160.796437 
L 153.975297 157.418377 
L 152.415343 154.026899 
L 150.960253 150.315853 
L 149.753344 146.597066 
L 148.78616 142.874352 
L 148.051126 139.151277 
L 147.541414 135.431203 
L 147.250824 131.717319 
L 147.173686 128.012675 
L 147.304778 124.320198 
L 147.67617 120.337021 
L 148.280528 116.374913 
L 149.112479 112.437247 
L 150.166952 108.527297 
L 151.439123 104.64826 
L 152.924371 100.803254 
L 153.423543 99.627496 
L 153.423543 99.627496 
" clip-path="url(#p1e6ec91cc8)" style="fill: none; stroke: #d62728; stroke-width: 1.5; stroke-linecap: square"/>
   </g>
   <g id="patch_3">
    <path d="M 50.573438 307.872 
L 50.573438 41.76 
" style="fill: none; stroke: #000000; stroke-width: 0.8; stroke-linejoin: miter; stroke-linecap: square"/>
   </g>
   <g id="patch_4">
    <path d="M 407.693438 307.872 
L 407.693438 41.76 
" style="fill: none; stroke: #000000; stroke-width: 0.8; stroke-linejoin: miter; stroke-linecap: square"/>
   </g>
   <g id="patch_5">
    <path d="M 50.573438 307.872 
L 407.693437 307.872 
" style="fill: none; stroke: #000000; stroke-width: 0.8; stroke-linejoin: miter; stroke-linecap: square"/>
   </g>
   <g id="patch_6">
    <path d="M 50.573438 41.76 
L 407.693437 41.76 
" style="fill: none; stroke: #000000; stroke-width: 0.8; stroke-linejoin: miter; stroke-linecap: square"/>
   </g>
   <g id="text_19">
    <g id="patch_7">
     <path d="M 425.549438 102.337163 
L 571.049438 102.337163 
Q 575.049438 102.337163 575.049438 98.337163 
L 575.049438 55.0656 
Q 575.049438 51.0656 571.049438 51.0656 
L 425.549438 51.0656 
Q 421.549438 51.0656 421.549438 55.0656 
L 421.549438 98.337163 
Q 421.549438 102.337163 425.549438 102.337163 
z
" style="fill: #ffffff; opacity: 0.5; stroke: #000000; stroke-linejoin: miter"/>
    </g>
    <!-- Summary -->
    <g transform="translate(425.549438 62.664038) scale(0.1 -0.1)">
     <defs>
      <path id="DejaVuSans-53" d="M 3425 4513 
L 3425 3897 
Q 3066 4069 2747 4153 
Q 2428 4238 2131 4238 
Q 1616 4238 1336 4038 
Q 1056 3838 1056 3469 
Q 1056 3159 1242 3001 
Q 1428 2844 1947 2747 
L 2328 2669 
Q 3034 2534 3370 2195 
Q 3706 1856 3706 1288 
Q 3706 609 3251 259 
Q 2797 -91 1919 -91 
Q 1588 -91 1214 -16 
Q 841 59 441 206 
L 441 856 
Q 825 641 1194 531 
Q 1563 422 1919 422 
Q 2459 422 2753 634 
Q 3047 847 3047 1241 
Q 3047 1584 2836 1778 
Q 2625 1972 2144 2069 
L 1759 2144 
Q 1053 2284 737 2584 
Q 422 2884 422 3419 
Q 422 4038 858 4394 
Q 1294 4750 2059 4750 
Q 2388 4750 2728 4690 
Q 3069 4631 3425 4513 
z
" transform="scale(0.015625)"/>
      <path id="DejaVuSans-75" d="M 544 1381 
L 544 3500 
L 1119 3500 
L 1119 1403 
Q 1119 906 1312 657 
Q 1506 409 1894 409 
Q 2359 409 2629 706 
Q 2900 1003 2900 1516 
L 2900 3500 
L 3475 3500 
L 3475 0 
L 2900 0 
L 2900 538 
Q 2691 219 2414 64 
Q 2138 -91 1772 -91 
Q 1169 -91 856 284 
Q 544 659 544 1381 
z
M 1991 3584 
L 1991 3584 
z
" transform="scale(0.015625)"/>
      <path id="DejaVuSans-61" d="M 2194 1759 
Q 1497 1759 1228 1600 
Q 959 1441 959 1056 
Q 959 750 1161 570 
Q 1363 391 1709 391 
Q 2188 391 2477 730 
Q 2766 1069 2766 1631 
L 2766 1759 
L 2194 1759 
z
M 3341 1997 
L 3341 0 
L 2766 0 
L 2766 531 
Q 2569 213 2275 61 
Q 1981 -91 1556 -91 
Q 1019 -91 701 211 
Q 384 513 384 1019 
Q 384 1609 779 1909 
Q 1175 2209 1959 2209 
L 2766 2209 
L 2766 2266 
Q 2766 2663 2505 2880 
Q 2244 3097 1772 3097 
Q 1472 3097 1187 3025 
Q 903 2953 641 2809 
L 641 3341 
Q 956 3463 1253 3523 
Q 1550 3584 1831 3584 
Q 2591 3584 2966 3190 
Q 3341 2797 3341 1997 
z
" transform="scale(0.015625)"/>
      <path id="DejaVuSans-72" d="M 2631 2963 
Q 2534 3019 2420 3045 
Q 2306 3072 2169 3072 
Q 1681 3072 1420 2755 
Q 1159 2438 1159 1844 
L 1159 0 
L 581 0 
L 581 3500 
L 1159 3500 
L 1159 2956 
Q 1341 3275 1631 3429 
Q 1922 3584 2338 3584 
Q 2397 3584 2469 3576 
Q 2541 3569 2628 3553 
L 2631 2963 
z
" transform="scale(0.015625)"/>
      <path id="DejaVuSans-79" d="M 2059 -325 
Q 1816 -950 1584 -1140 
Q 1353 -1331 966 -1331 
L 506 -1331 
L 506 -850 
L 844 -850 
Q 1081 -850 1212 -737 
Q 1344 -625 1503 -206 
L 1606 56 
L 191 3500 
L 800 3500 
L 1894 763 
L 2988 3500 
L 3597 3500 
L 2059 -325 
z
" transform="scale(0.015625)"/>
     </defs>
     <use xlink:href="#DejaVuSans-53"/>
     <use xlink:href="#DejaVuSans-75" x="63.476562"/>
     <use xlink:href="#DejaVuSans-6d" x="126.855469"/>
     <use xlink:href="#DejaVuSans-6d" x="224.267578"/>
     <use xlink:href="#DejaVuSans-61" x="321.679688"/>
     <use xlink:href="#DejaVuSans-72" x="382.958984"/>
     <use xlink:href="#DejaVuSans-79" x="424.072266"/>
    </g>
    <!-- $Q_I$: 54.8$\pm$5.7 k -->
    <g transform="translate(425.549438 73.86185) scale(0.1 -0.1)">
     <defs>
      <path id="DejaVuSans-Oblique-51" d="M 2309 -84 
Q 2275 -88 2237 -89 
Q 2200 -91 2125 -91 
Q 1250 -91 756 411 
Q 263 913 263 1797 
Q 263 2319 452 2844 
Q 641 3369 978 3788 
Q 1369 4269 1858 4509 
Q 2347 4750 2938 4750 
Q 3794 4750 4287 4245 
Q 4781 3741 4781 2869 
Q 4781 1928 4265 1147 
Q 3750 366 2919 44 
L 3553 -825 
L 2847 -825 
L 2309 -84 
z
M 2919 4238 
Q 2400 4238 2003 3986 
Q 1606 3734 1313 3219 
Q 1125 2891 1026 2522 
Q 928 2153 928 1778 
Q 928 1128 1239 775 
Q 1550 422 2119 422 
Q 2631 422 3032 676 
Q 3434 931 3719 1434 
Q 3909 1772 4009 2142 
Q 4109 2513 4109 2881 
Q 4109 3528 3796 3883 
Q 3484 4238 2919 4238 
z
" transform="scale(0.015625)"/>
      <path id="DejaVuSans-Oblique-49" d="M 1081 4666 
L 1716 4666 
L 806 0 
L 172 0 
L 1081 4666 
z
" transform="scale(0.015625)"/>
      <path id="DejaVuSans-3a" d="M 750 794 
L 1409 794 
L 1409 0 
L 750 0 
L 750 794 
z
M 750 3309 
L 1409 3309 
L 1409 2516 
L 750 2516 
L 750 3309 
z
" transform="scale(0.015625)"/>
      <path id="DejaVuSans-2e" d="M 684 794 
L 1344 794 
L 1344 0 
L 684 0 
L 684 794 
z
" transform="scale(0.015625)"/>
      <path id="DejaVuSans-38" d="M 2034 2216 
Q 1584 2216 1326 1975 
Q 1069 1734 1069 1313 
Q 1069 891 1326 650 
Q 1584 409 2034 409 
Q 2484 409 2743 651 
Q 3003 894 3003 1313 
Q 3003 1734 2745 1975 
Q 2488 2216 2034 2216 
z
M 1403 2484 
Q 997 2584 770 2862 
Q 544 3141 544 3541 
Q 544 4100 942 4425 
Q 1341 4750 2034 4750 
Q 2731 4750 3128 4425 
Q 3525 4100 3525 3541 
Q 3525 3141 3298 2862 
Q 3072 2584 2669 2484 
Q 3125 2378 3379 2068 
Q 3634 1759 3634 1313 
Q 3634 634 3220 271 
Q 2806 -91 2034 -91 
Q 1263 -91 848 271 
Q 434 634 434 1313 
Q 434 1759 690 2068 
Q 947 2378 1403 2484 
z
M 1172 3481 
Q 1172 3119 1398 2916 
Q 1625 2713 2034 2713 
Q 2441 2713 2670 2916 
Q 2900 3119 2900 3481 
Q 2900 3844 2670 4047 
Q 2441 4250 2034 4250 
Q 1625 4250 1398 4047 
Q 1172 3844 1172 3481 
z
" transform="scale(0.015625)"/>
      <path id="DejaVuSans-b1" d="M 2944 4013 
L 2944 2803 
L 4684 2803 
L 4684 2272 
L 2944 2272 
L 2944 1063 
L 2419 1063 
L 2419 2272 
L 678 2272 
L 678 2803 
L 2419 2803 
L 2419 4013 
L 2944 4013 
z
M 678 531 
L 4684 531 
L 4684 0 
L 678 0 
L 678 531 
z
" transform="scale(0.015625)"/>
      <path id="DejaVuSans-37" d="M 525 4666 
L 3525 4666 
L 3525 4397 
L 1831 0 
L 1172 0 
L 2766 4134 
L 525 4134 
L 525 4666 
z
" transform="scale(0.015625)"/>
      <path id="DejaVuSans-6b" d="M 581 4863 
L 1159 4863 
L 1159 1991 
L 2875 3500 
L 3609 3500 
L 1753 1863 
L 3688 0 
L 2938 0 
L 1159 1709 
L 1159 0 
L 581 0 
L 581 4863 
z
" transform="scale(0.015625)"/>
     </defs>
     <use xlink:href="#DejaVuSans-Oblique-51" transform="translate(0 0.015625)"/>
     <use xlink:href="#DejaVuSans-Oblique-49" transform="translate(78.710938 -16.390625) scale(0.7)"/>
     <use xlink:href="#DejaVuSans-3a" transform="translate(102.089844 0.015625)"/>
     <use xlink:href="#DejaVuSans-20" transform="translate(135.78125 0.015625)"/>
     <use xlink:href="#DejaVuSans-35" transform="translate(167.568359 0.015625)"/>
     <use xlink:href="#DejaVuSans-34" transform="translate(231.191406 0.015625)"/>
     <use xlink:href="#DejaVuSans-2e" transform="translate(294.814453 0.015625)"/>
     <use xlink:href="#DejaVuSans-38" transform="translate(323.976562 0.015625)"/>
     <use xlink:href="#DejaVuSans-b1" transform="translate(387.599609 0.015625)"/>
     <use xlink:href="#DejaVuSans-35" transform="translate(471.388672 0.015625)"/>
     <use xlink:href="#DejaVuSans-2e" transform="translate(535.011719 0.015625)"/>
     <use xlink:href="#DejaVuSans-37" transform="translate(559.048828 0.015625)"/>
     <use xlink:href="#DejaVuSans-20" transform="translate(622.671875 0.015625)"/>
     <use xlink:href="#DejaVuSans-6b" transform="translate(654.458984 0.015625)"/>
    </g>
    <!-- $Q_C$: 3.548$\pm$0.027 k -->
    <g transform="translate(425.549438 85.059663) scale(0.1 -0.1)">
     <defs>
      <path id="DejaVuSans-Oblique-43" d="M 4447 4306 
L 4319 3641 
Q 4019 3944 3683 4091 
Q 3347 4238 2956 4238 
Q 2422 4238 2017 3981 
Q 1613 3725 1319 3200 
Q 1131 2863 1032 2486 
Q 934 2109 934 1728 
Q 934 1091 1264 756 
Q 1594 422 2222 422 
Q 2656 422 3056 561 
Q 3456 700 3834 978 
L 3688 231 
Q 3316 72 2936 -9 
Q 2556 -91 2175 -91 
Q 1278 -91 773 396 
Q 269 884 269 1753 
Q 269 2309 461 2846 
Q 653 3384 1013 3828 
Q 1394 4300 1883 4525 
Q 2372 4750 3022 4750 
Q 3422 4750 3780 4639 
Q 4138 4528 4447 4306 
z
" transform="scale(0.015625)"/>
     </defs>
     <use xlink:href="#DejaVuSans-Oblique-51" transform="translate(0 0.015625)"/>
     <use xlink:href="#DejaVuSans-Oblique-43" transform="translate(78.710938 -16.390625) scale(0.7)"/>
     <use xlink:href="#DejaVuSans-3a" transform="translate(130.322266 0.015625)"/>
     <use xlink:href="#DejaVuSans-20" transform="translate(164.013672 0.015625)"/>
     <use xlink:href="#DejaVuSans-33" transform="translate(195.800781 0.015625)"/>
     <use xlink:href="#DejaVuSans-2e" transform="translate(259.423828 0.015625)"/>
     <use xlink:href="#DejaVuSans-35" transform="translate(291.210938 0.015625)"/>
     <use xlink:href="#DejaVuSans-34" transform="translate(354.833984 0.015625)"/>
     <use xlink:href="#DejaVuSans-38" transform="translate(418.457031 0.015625)"/>
     <use xlink:href="#DejaVuSans-b1" transform="translate(482.080078 0.015625)"/>
     <use xlink:href="#DejaVuSans-30" transform="translate(565.869141 0.015625)"/>
     <use xlink:href="#DejaVuSans-2e" transform="translate(629.492188 0.015625)"/>
     <use xlink:href="#DejaVuSans-30" transform="translate(661.279297 0.015625)"/>
     <use xlink:href="#DejaVuSans-32" transform="translate(724.902344 0.015625)"/>
     <use xlink:href="#DejaVuSans-37" transform="translate(788.525391 0.015625)"/>
     <use xlink:href="#DejaVuSans-20" transform="translate(852.148438 0.015625)"/>
     <use xlink:href="#DejaVuSans-6b" transform="translate(883.935547 0.015625)"/>
    </g>
    <!-- $f_{res}$: 5.8344035$\pm$6.9e-06 GHz -->
    <g transform="translate(425.549438 96.257475) scale(0.1 -0.1)">
     <defs>
      <path id="DejaVuSans-Oblique-66" d="M 3059 4863 
L 2969 4384 
L 2419 4384 
Q 2106 4384 1964 4261 
Q 1822 4138 1753 3809 
L 1691 3500 
L 2638 3500 
L 2553 3053 
L 1606 3053 
L 1013 0 
L 434 0 
L 1031 3053 
L 481 3053 
L 563 3500 
L 1113 3500 
L 1159 3744 
Q 1278 4363 1576 4613 
Q 1875 4863 2516 4863 
L 3059 4863 
z
" transform="scale(0.015625)"/>
      <path id="DejaVuSans-Oblique-72" d="M 2853 2969 
Q 2766 3016 2653 3041 
Q 2541 3066 2413 3066 
Q 1953 3066 1609 2717 
Q 1266 2369 1153 1784 
L 800 0 
L 225 0 
L 909 3500 
L 1484 3500 
L 1375 2956 
Q 1603 3259 1920 3421 
Q 2238 3584 2597 3584 
Q 2691 3584 2781 3573 
Q 2872 3563 2963 3538 
L 2853 2969 
z
" transform="scale(0.015625)"/>
      <path id="DejaVuSans-Oblique-65" d="M 3078 2063 
Q 3088 2113 3092 2166 
Q 3097 2219 3097 2272 
Q 3097 2653 2873 2875 
Q 2650 3097 2266 3097 
Q 1838 3097 1509 2826 
Q 1181 2556 1013 2059 
L 3078 2063 
z
M 3578 1613 
L 903 1613 
Q 884 1494 878 1425 
Q 872 1356 872 1306 
Q 872 872 1139 634 
Q 1406 397 1894 397 
Q 2269 397 2603 481 
Q 2938 566 3225 728 
L 3116 159 
Q 2806 34 2476 -28 
Q 2147 -91 1806 -91 
Q 1078 -91 686 257 
Q 294 606 294 1247 
Q 294 1794 489 2264 
Q 684 2734 1063 3103 
Q 1306 3334 1642 3459 
Q 1978 3584 2356 3584 
Q 2950 3584 3301 3228 
Q 3653 2872 3653 2272 
Q 3653 2128 3634 1964 
Q 3616 1800 3578 1613 
z
" transform="scale(0.015625)"/>
      <path id="DejaVuSans-Oblique-73" d="M 3200 3397 
L 3091 2853 
Q 2863 2978 2609 3040 
Q 2356 3103 2088 3103 
Q 1634 3103 1373 2948 
Q 1113 2794 1113 2528 
Q 1113 2219 1719 2053 
Q 1766 2041 1788 2034 
L 1972 1978 
Q 2547 1819 2739 1644 
Q 2931 1469 2931 1166 
Q 2931 609 2489 259 
Q 2047 -91 1331 -91 
Q 1053 -91 747 -37 
Q 441 16 72 128 
L 184 722 
Q 500 559 806 475 
Q 1113 391 1394 391 
Q 1816 391 2080 572 
Q 2344 753 2344 1031 
Q 2344 1331 1650 1516 
L 1591 1531 
L 1394 1581 
Q 956 1697 753 1886 
Q 550 2075 550 2369 
Q 550 2928 970 3256 
Q 1391 3584 2113 3584 
Q 2397 3584 2667 3537 
Q 2938 3491 3200 3397 
z
" transform="scale(0.015625)"/>
      <path id="DejaVuSans-39" d="M 703 97 
L 703 672 
Q 941 559 1184 500 
Q 1428 441 1663 441 
Q 2288 441 2617 861 
Q 2947 1281 2994 2138 
Q 2813 1869 2534 1725 
Q 2256 1581 1919 1581 
Q 1219 1581 811 2004 
Q 403 2428 403 3163 
Q 403 3881 828 4315 
Q 1253 4750 1959 4750 
Q 2769 4750 3195 4129 
Q 3622 3509 3622 2328 
Q 3622 1225 3098 567 
Q 2575 -91 1691 -91 
Q 1453 -91 1209 -44 
Q 966 3 703 97 
z
M 1959 2075 
Q 2384 2075 2632 2365 
Q 2881 2656 2881 3163 
Q 2881 3666 2632 3958 
Q 2384 4250 1959 4250 
Q 1534 4250 1286 3958 
Q 1038 3666 1038 3163 
Q 1038 2656 1286 2365 
Q 1534 2075 1959 2075 
z
" transform="scale(0.015625)"/>
      <path id="DejaVuSans-47" d="M 3809 666 
L 3809 1919 
L 2778 1919 
L 2778 2438 
L 4434 2438 
L 4434 434 
Q 4069 175 3628 42 
Q 3188 -91 2688 -91 
Q 1594 -91 976 548 
Q 359 1188 359 2328 
Q 359 3472 976 4111 
Q 1594 4750 2688 4750 
Q 3144 4750 3555 4637 
Q 3966 4525 4313 4306 
L 4313 3634 
Q 3963 3931 3569 4081 
Q 3175 4231 2741 4231 
Q 1884 4231 1454 3753 
Q 1025 3275 1025 2328 
Q 1025 1384 1454 906 
Q 1884 428 2741 428 
Q 3075 428 3337 486 
Q 3600 544 3809 666 
z
" transform="scale(0.015625)"/>
      <path id="DejaVuSans-48" d="M 628 4666 
L 1259 4666 
L 1259 2753 
L 3553 2753 
L 3553 4666 
L 4184 4666 
L 4184 0 
L 3553 0 
L 3553 2222 
L 1259 2222 
L 1259 0 
L 628 0 
L 628 4666 
z
" transform="scale(0.015625)"/>
      <path id="DejaVuSans-7a" d="M 353 3500 
L 3084 3500 
L 3084 2975 
L 922 459 
L 3084 459 
L 3084 0 
L 275 0 
L 275 525 
L 2438 3041 
L 353 3041 
L 353 3500 
z
" transform="scale(0.015625)"/>
     </defs>
     <use xlink:href="#DejaVuSans-Oblique-66" transform="translate(0 0.015625)"/>
     <use xlink:href="#DejaVuSans-Oblique-72" transform="translate(35.205078 -16.390625) scale(0.7)"/>
     <use xlink:href="#DejaVuSans-Oblique-65" transform="translate(63.984375 -16.390625) scale(0.7)"/>
     <use xlink:href="#DejaVuSans-Oblique-73" transform="translate(107.050781 -16.390625) scale(0.7)"/>
     <use xlink:href="#DejaVuSans-3a" transform="translate(146.254883 0.015625)"/>
     <use xlink:href="#DejaVuSans-20" transform="translate(179.946289 0.015625)"/>
     <use xlink:href="#DejaVuSans-35" transform="translate(211.733398 0.015625)"/>
     <use xlink:href="#DejaVuSans-2e" transform="translate(275.356445 0.015625)"/>
     <use xlink:href="#DejaVuSans-38" transform="translate(304.518555 0.015625)"/>
     <use xlink:href="#DejaVuSans-33" transform="translate(368.141602 0.015625)"/>
     <use xlink:href="#DejaVuSans-34" transform="translate(431.764648 0.015625)"/>
     <use xlink:href="#DejaVuSans-34" transform="translate(495.387695 0.015625)"/>
     <use xlink:href="#DejaVuSans-30" transform="translate(559.010742 0.015625)"/>
     <use xlink:href="#DejaVuSans-33" transform="translate(622.633789 0.015625)"/>
     <use xlink:href="#DejaVuSans-35" transform="translate(686.256836 0.015625)"/>
     <use xlink:href="#DejaVuSans-b1" transform="translate(749.879883 0.015625)"/>
     <use xlink:href="#DejaVuSans-36" transform="translate(833.668945 0.015625)"/>
     <use xlink:href="#DejaVuSans-2e" transform="translate(897.291992 0.015625)"/>
     <use xlink:href="#DejaVuSans-39" transform="translate(929.079102 0.015625)"/>
     <use xlink:href="#DejaVuSans-65" transform="translate(992.702148 0.015625)"/>
     <use xlink:href="#DejaVuSans-2d" transform="translate(1054.225586 0.015625)"/>
     <use xlink:href="#DejaVuSans-30" transform="translate(1090.30957 0.015625)"/>
     <use xlink:href="#DejaVuSans-36" transform="translate(1153.932617 0.015625)"/>
     <use xlink:href="#DejaVuSans-20" transform="translate(1217.555664 0.015625)"/>
     <use xlink:href="#DejaVuSans-47" transform="translate(1249.342773 0.015625)"/>
     <use xlink:href="#DejaVuSans-48" transform="translate(1326.833008 0.015625)"/>
     <use xlink:href="#DejaVuSans-7a" transform="translate(1402.02832 0.015625)"/>
    </g>
   </g>
  </g>
  <g id="text_20">
   <!-- S21 One-tone -->
   <g transform="translate(182.1225 16.318125) scale(0.12 -0.12)">
    <defs>
     <path id="DejaVuSans-4f" d="M 2522 4238 
Q 1834 4238 1429 3725 
Q 1025 3213 1025 2328 
Q 1025 1447 1429 934 
Q 1834 422 2522 422 
Q 3209 422 3611 934 
Q 4013 1447 4013 2328 
Q 4013 3213 3611 3725 
Q 3209 4238 2522 4238 
z
M 2522 4750 
Q 3503 4750 4090 4092 
Q 4678 3434 4678 2328 
Q 4678 1225 4090 567 
Q 3503 -91 2522 -91 
Q 1538 -91 948 565 
Q 359 1222 359 2328 
Q 359 3434 948 4092 
Q 1538 4750 2522 4750 
z
" transform="scale(0.015625)"/>
     <path id="DejaVuSans-6e" d="M 3513 2113 
L 3513 0 
L 2938 0 
L 2938 2094 
Q 2938 2591 2744 2837 
Q 2550 3084 2163 3084 
Q 1697 3084 1428 2787 
Q 1159 2491 1159 1978 
L 1159 0 
L 581 0 
L 581 3500 
L 1159 3500 
L 1159 2956 
Q 1366 3272 1645 3428 
Q 1925 3584 2291 3584 
Q 2894 3584 3203 3211 
Q 3513 2838 3513 2113 
z
" transform="scale(0.015625)"/>
     <path id="DejaVuSans-74" d="M 1172 4494 
L 1172 3500 
L 2356 3500 
L 2356 3053 
L 1172 3053 
L 1172 1153 
Q 1172 725 1289 603 
Q 1406 481 1766 481 
L 2356 481 
L 2356 0 
L 1766 0 
Q 1100 0 847 248 
Q 594 497 594 1153 
L 594 3053 
L 172 3053 
L 172 3500 
L 594 3500 
L 594 4494 
L 1172 4494 
z
" transform="scale(0.015625)"/>
     <path id="DejaVuSans-6f" d="M 1959 3097 
Q 1497 3097 1228 2736 
Q 959 2375 959 1747 
Q 959 1119 1226 758 
Q 1494 397 1959 397 
Q 2419 397 2687 759 
Q 2956 1122 2956 1747 
Q 2956 2369 2687 2733 
Q 2419 3097 1959 3097 
z
M 1959 3584 
Q 2709 3584 3137 3096 
Q 3566 2609 3566 1747 
Q 3566 888 3137 398 
Q 2709 -91 1959 -91 
Q 1206 -91 779 398 
Q 353 888 353 1747 
Q 353 2609 779 3096 
Q 1206 3584 1959 3584 
z
" transform="scale(0.015625)"/>
    </defs>
    <use xlink:href="#DejaVuSans-53"/>
    <use xlink:href="#DejaVuSans-32" x="63.476562"/>
    <use xlink:href="#DejaVuSans-31" x="127.099609"/>
    <use xlink:href="#DejaVuSans-20" x="190.722656"/>
    <use xlink:href="#DejaVuSans-4f" x="222.509766"/>
    <use xlink:href="#DejaVuSans-6e" x="301.220703"/>
    <use xlink:href="#DejaVuSans-65" x="364.599609"/>
    <use xlink:href="#DejaVuSans-2d" x="426.123047"/>
    <use xlink:href="#DejaVuSans-74" x="462.207031"/>
    <use xlink:href="#DejaVuSans-6f" x="501.416016"/>
    <use xlink:href="#DejaVuSans-6e" x="562.597656"/>
    <use xlink:href="#DejaVuSans-65" x="625.976562"/>
   </g>
   <!-- tuid: 20240321-182436-637-06bbb6 -->
   <g transform="translate(113.543438 29.7555) scale(0.12 -0.12)">
    <defs>
     <path id="DejaVuSans-69" d="M 603 3500 
L 1178 3500 
L 1178 0 
L 603 0 
L 603 3500 
z
M 603 4863 
L 1178 4863 
L 1178 4134 
L 603 4134 
L 603 4863 
z
" transform="scale(0.015625)"/>
     <path id="DejaVuSans-64" d="M 2906 2969 
L 2906 4863 
L 3481 4863 
L 3481 0 
L 2906 0 
L 2906 525 
Q 2725 213 2448 61 
Q 2172 -91 1784 -91 
Q 1150 -91 751 415 
Q 353 922 353 1747 
Q 353 2572 751 3078 
Q 1150 3584 1784 3584 
Q 2172 3584 2448 3432 
Q 2725 3281 2906 2969 
z
M 947 1747 
Q 947 1113 1208 752 
Q 1469 391 1925 391 
Q 2381 391 2643 752 
Q 2906 1113 2906 1747 
Q 2906 2381 2643 2742 
Q 2381 3103 1925 3103 
Q 1469 3103 1208 2742 
Q 947 2381 947 1747 
z
" transform="scale(0.015625)"/>
     <path id="DejaVuSans-62" d="M 3116 1747 
Q 3116 2381 2855 2742 
Q 2594 3103 2138 3103 
Q 1681 3103 1420 2742 
Q 1159 2381 1159 1747 
Q 1159 1113 1420 752 
Q 1681 391 2138 391 
Q 2594 391 2855 752 
Q 3116 1113 3116 1747 
z
M 1159 2969 
Q 1341 3281 1617 3432 
Q 1894 3584 2278 3584 
Q 2916 3584 3314 3078 
Q 3713 2572 3713 1747 
Q 3713 922 3314 415 
Q 2916 -91 2278 -91 
Q 1894 -91 1617 61 
Q 1341 213 1159 525 
L 1159 0 
L 581 0 
L 581 4863 
L 1159 4863 
L 1159 2969 
z
" transform="scale(0.015625)"/>
    </defs>
    <use xlink:href="#DejaVuSans-74"/>
    <use xlink:href="#DejaVuSans-75" x="39.208984"/>
    <use xlink:href="#DejaVuSans-69" x="102.587891"/>
    <use xlink:href="#DejaVuSans-64" x="130.371094"/>
    <use xlink:href="#DejaVuSans-3a" x="193.847656"/>
    <use xlink:href="#DejaVuSans-20" x="227.539062"/>
    <use xlink:href="#DejaVuSans-32" x="259.326172"/>
    <use xlink:href="#DejaVuSans-30" x="322.949219"/>
    <use xlink:href="#DejaVuSans-32" x="386.572266"/>
    <use xlink:href="#DejaVuSans-34" x="450.195312"/>
    <use xlink:href="#DejaVuSans-30" x="513.818359"/>
    <use xlink:href="#DejaVuSans-33" x="577.441406"/>
    <use xlink:href="#DejaVuSans-32" x="641.064453"/>
    <use xlink:href="#DejaVuSans-31" x="704.6875"/>
    <use xlink:href="#DejaVuSans-2d" x="768.310547"/>
    <use xlink:href="#DejaVuSans-31" x="804.394531"/>
    <use xlink:href="#DejaVuSans-38" x="868.017578"/>
    <use xlink:href="#DejaVuSans-32" x="931.640625"/>
    <use xlink:href="#DejaVuSans-34" x="995.263672"/>
    <use xlink:href="#DejaVuSans-33" x="1058.886719"/>
    <use xlink:href="#DejaVuSans-36" x="1122.509766"/>
    <use xlink:href="#DejaVuSans-2d" x="1186.132812"/>
    <use xlink:href="#DejaVuSans-36" x="1222.216797"/>
    <use xlink:href="#DejaVuSans-33" x="1285.839844"/>
    <use xlink:href="#DejaVuSans-37" x="1349.462891"/>
    <use xlink:href="#DejaVuSans-2d" x="1413.085938"/>
    <use xlink:href="#DejaVuSans-30" x="1449.169922"/>
    <use xlink:href="#DejaVuSans-36" x="1512.792969"/>
    <use xlink:href="#DejaVuSans-62" x="1576.416016"/>
    <use xlink:href="#DejaVuSans-62" x="1639.892578"/>
    <use xlink:href="#DejaVuSans-62" x="1703.369141"/>
    <use xlink:href="#DejaVuSans-36" x="1766.845703"/>
   </g>
  </g>
 </g>
 <defs>
  <clipPath id="p1e6ec91cc8">
   <rect x="50.573438" y="41.76" width="357.12" height="266.112"/>
  </clipPath>
 </defs>
</svg>
