<?xml version="1.0" encoding="utf-8" standalone="no"?>
<!DOCTYPE svg PUBLIC "-//W3C//DTD SVG 1.1//EN"
  "http://www.w3.org/Graphics/SVG/1.1/DTD/svg11.dtd">
<svg xmlns:xlink="http://www.w3.org/1999/xlink" width="650.374125pt" height="341.48425pt" viewBox="0 0 650.374125 341.48425" xmlns="http://www.w3.org/2000/svg" version="1.1">
 <metadata>
  <rdf:RDF xmlns:dc="http://purl.org/dc/elements/1.1/" xmlns:cc="http://creativecommons.org/ns#" xmlns:rdf="http://www.w3.org/1999/02/22-rdf-syntax-ns#">
   <cc:Work>
    <dc:type rdf:resource="http://purl.org/dc/dcmitype/StillImage"/>
    <dc:date>2024-01-04T15:13:37.408206</dc:date>
    <dc:format>image/svg+xml</dc:format>
    <dc:creator>
     <cc:Agent>
      <dc:title>Matplotlib v3.8.1, https://matplotlib.org/</dc:title>
     </cc:Agent>
    </dc:creator>
   </cc:Work>
  </rdf:RDF>
 </metadata>
 <defs>
  <style type="text/css">*{stroke-linejoin: round; stroke-linecap: butt}</style>
 </defs>
 <g id="figure_1">
  <g id="patch_1">
   <path d="M 0 341.48425 
L 650.374125 341.48425 
L 650.374125 -0 
L 0 -0 
L 0 341.48425 
z
" style="fill: none; opacity: 0"/>
  </g>
  <g id="axes_1">
   <g id="patch_2">
    <path d="M 69.653125 303.928 
L 443.673125 303.928 
L 443.673125 49.824 
L 69.653125 49.824 
z
" style="fill: #ffffff"/>
   </g>
   <g id="matplotlib.axis_1">
    <g id="xtick_1">
     <g id="line2d_1">
      <defs>
       <path id="m17443c8b86" d="M 0 0 
L 0 3.5 
" style="stroke: #000000; stroke-width: 0.8"/>
      </defs>
      <g>
       <use xlink:href="#m17443c8b86" x="72.302417" y="303.928" style="stroke: #000000; stroke-width: 0.8"/>
      </g>
     </g>
     <g id="text_1">
      <!-- 3.90 -->
      <g transform="translate(61.169604 318.526437) scale(0.1 -0.1)">
       <defs>
        <path id="DejaVuSans-33" d="M 2597 2516 
Q 3050 2419 3304 2112 
Q 3559 1806 3559 1356 
Q 3559 666 3084 287 
Q 2609 -91 1734 -91 
Q 1441 -91 1130 -33 
Q 819 25 488 141 
L 488 750 
Q 750 597 1062 519 
Q 1375 441 1716 441 
Q 2309 441 2620 675 
Q 2931 909 2931 1356 
Q 2931 1769 2642 2001 
Q 2353 2234 1838 2234 
L 1294 2234 
L 1294 2753 
L 1863 2753 
Q 2328 2753 2575 2939 
Q 2822 3125 2822 3475 
Q 2822 3834 2567 4026 
Q 2313 4219 1838 4219 
Q 1578 4219 1281 4162 
Q 984 4106 628 3988 
L 628 4550 
Q 988 4650 1302 4700 
Q 1616 4750 1894 4750 
Q 2613 4750 3031 4423 
Q 3450 4097 3450 3541 
Q 3450 3153 3228 2886 
Q 3006 2619 2597 2516 
z
" transform="scale(0.015625)"/>
        <path id="DejaVuSans-2e" d="M 684 794 
L 1344 794 
L 1344 0 
L 684 0 
L 684 794 
z
" transform="scale(0.015625)"/>
        <path id="DejaVuSans-39" d="M 703 97 
L 703 672 
Q 941 559 1184 500 
Q 1428 441 1663 441 
Q 2288 441 2617 861 
Q 2947 1281 2994 2138 
Q 2813 1869 2534 1725 
Q 2256 1581 1919 1581 
Q 1219 1581 811 2004 
Q 403 2428 403 3163 
Q 403 3881 828 4315 
Q 1253 4750 1959 4750 
Q 2769 4750 3195 4129 
Q 3622 3509 3622 2328 
Q 3622 1225 3098 567 
Q 2575 -91 1691 -91 
Q 1453 -91 1209 -44 
Q 966 3 703 97 
z
M 1959 2075 
Q 2384 2075 2632 2365 
Q 2881 2656 2881 3163 
Q 2881 3666 2632 3958 
Q 2384 4250 1959 4250 
Q 1534 4250 1286 3958 
Q 1038 3666 1038 3163 
Q 1038 2656 1286 2365 
Q 1534 2075 1959 2075 
z
" transform="scale(0.015625)"/>
        <path id="DejaVuSans-30" d="M 2034 4250 
Q 1547 4250 1301 3770 
Q 1056 3291 1056 2328 
Q 1056 1369 1301 889 
Q 1547 409 2034 409 
Q 2525 409 2770 889 
Q 3016 1369 3016 2328 
Q 3016 3291 2770 3770 
Q 2525 4250 2034 4250 
z
M 2034 4750 
Q 2819 4750 3233 4129 
Q 3647 3509 3647 2328 
Q 3647 1150 3233 529 
Q 2819 -91 2034 -91 
Q 1250 -91 836 529 
Q 422 1150 422 2328 
Q 422 3509 836 4129 
Q 1250 4750 2034 4750 
z
" transform="scale(0.015625)"/>
       </defs>
       <use xlink:href="#DejaVuSans-33"/>
       <use xlink:href="#DejaVuSans-2e" x="63.623047"/>
       <use xlink:href="#DejaVuSans-39" x="95.410156"/>
       <use xlink:href="#DejaVuSans-30" x="159.033203"/>
      </g>
     </g>
    </g>
    <g id="xtick_2">
     <g id="line2d_2">
      <g>
       <use xlink:href="#m17443c8b86" x="114.804689" y="303.928" style="stroke: #000000; stroke-width: 0.8"/>
      </g>
     </g>
     <g id="text_2">
      <!-- 3.95 -->
      <g transform="translate(103.671877 318.526437) scale(0.1 -0.1)">
       <defs>
        <path id="DejaVuSans-35" d="M 691 4666 
L 3169 4666 
L 3169 4134 
L 1269 4134 
L 1269 2991 
Q 1406 3038 1543 3061 
Q 1681 3084 1819 3084 
Q 2600 3084 3056 2656 
Q 3513 2228 3513 1497 
Q 3513 744 3044 326 
Q 2575 -91 1722 -91 
Q 1428 -91 1123 -41 
Q 819 9 494 109 
L 494 744 
Q 775 591 1075 516 
Q 1375 441 1709 441 
Q 2250 441 2565 725 
Q 2881 1009 2881 1497 
Q 2881 1984 2565 2268 
Q 2250 2553 1709 2553 
Q 1456 2553 1204 2497 
Q 953 2441 691 2322 
L 691 4666 
z
" transform="scale(0.015625)"/>
       </defs>
       <use xlink:href="#DejaVuSans-33"/>
       <use xlink:href="#DejaVuSans-2e" x="63.623047"/>
       <use xlink:href="#DejaVuSans-39" x="95.410156"/>
       <use xlink:href="#DejaVuSans-35" x="159.033203"/>
      </g>
     </g>
    </g>
    <g id="xtick_3">
     <g id="line2d_3">
      <g>
       <use xlink:href="#m17443c8b86" x="157.306962" y="303.928" style="stroke: #000000; stroke-width: 0.8"/>
      </g>
     </g>
     <g id="text_3">
      <!-- 4.00 -->
      <g transform="translate(146.174149 318.526437) scale(0.1 -0.1)">
       <defs>
        <path id="DejaVuSans-34" d="M 2419 4116 
L 825 1625 
L 2419 1625 
L 2419 4116 
z
M 2253 4666 
L 3047 4666 
L 3047 1625 
L 3713 1625 
L 3713 1100 
L 3047 1100 
L 3047 0 
L 2419 0 
L 2419 1100 
L 313 1100 
L 313 1709 
L 2253 4666 
z
" transform="scale(0.015625)"/>
       </defs>
       <use xlink:href="#DejaVuSans-34"/>
       <use xlink:href="#DejaVuSans-2e" x="63.623047"/>
       <use xlink:href="#DejaVuSans-30" x="95.410156"/>
       <use xlink:href="#DejaVuSans-30" x="159.033203"/>
      </g>
     </g>
    </g>
    <g id="xtick_4">
     <g id="line2d_4">
      <g>
       <use xlink:href="#m17443c8b86" x="199.809235" y="303.928" style="stroke: #000000; stroke-width: 0.8"/>
      </g>
     </g>
     <g id="text_4">
      <!-- 4.05 -->
      <g transform="translate(188.676422 318.526437) scale(0.1 -0.1)">
       <use xlink:href="#DejaVuSans-34"/>
       <use xlink:href="#DejaVuSans-2e" x="63.623047"/>
       <use xlink:href="#DejaVuSans-30" x="95.410156"/>
       <use xlink:href="#DejaVuSans-35" x="159.033203"/>
      </g>
     </g>
    </g>
    <g id="xtick_5">
     <g id="line2d_5">
      <g>
       <use xlink:href="#m17443c8b86" x="242.311507" y="303.928" style="stroke: #000000; stroke-width: 0.8"/>
      </g>
     </g>
     <g id="text_5">
      <!-- 4.10 -->
      <g transform="translate(231.178695 318.526437) scale(0.1 -0.1)">
       <defs>
        <path id="DejaVuSans-31" d="M 794 531 
L 1825 531 
L 1825 4091 
L 703 3866 
L 703 4441 
L 1819 4666 
L 2450 4666 
L 2450 531 
L 3481 531 
L 3481 0 
L 794 0 
L 794 531 
z
" transform="scale(0.015625)"/>
       </defs>
       <use xlink:href="#DejaVuSans-34"/>
       <use xlink:href="#DejaVuSans-2e" x="63.623047"/>
       <use xlink:href="#DejaVuSans-31" x="95.410156"/>
       <use xlink:href="#DejaVuSans-30" x="159.033203"/>
      </g>
     </g>
    </g>
    <g id="xtick_6">
     <g id="line2d_6">
      <g>
       <use xlink:href="#m17443c8b86" x="284.81378" y="303.928" style="stroke: #000000; stroke-width: 0.8"/>
      </g>
     </g>
     <g id="text_6">
      <!-- 4.15 -->
      <g transform="translate(273.680968 318.526437) scale(0.1 -0.1)">
       <use xlink:href="#DejaVuSans-34"/>
       <use xlink:href="#DejaVuSans-2e" x="63.623047"/>
       <use xlink:href="#DejaVuSans-31" x="95.410156"/>
       <use xlink:href="#DejaVuSans-35" x="159.033203"/>
      </g>
     </g>
    </g>
    <g id="xtick_7">
     <g id="line2d_7">
      <g>
       <use xlink:href="#m17443c8b86" x="327.316053" y="303.928" style="stroke: #000000; stroke-width: 0.8"/>
      </g>
     </g>
     <g id="text_7">
      <!-- 4.20 -->
      <g transform="translate(316.18324 318.526437) scale(0.1 -0.1)">
       <defs>
        <path id="DejaVuSans-32" d="M 1228 531 
L 3431 531 
L 3431 0 
L 469 0 
L 469 531 
Q 828 903 1448 1529 
Q 2069 2156 2228 2338 
Q 2531 2678 2651 2914 
Q 2772 3150 2772 3378 
Q 2772 3750 2511 3984 
Q 2250 4219 1831 4219 
Q 1534 4219 1204 4116 
Q 875 4013 500 3803 
L 500 4441 
Q 881 4594 1212 4672 
Q 1544 4750 1819 4750 
Q 2544 4750 2975 4387 
Q 3406 4025 3406 3419 
Q 3406 3131 3298 2873 
Q 3191 2616 2906 2266 
Q 2828 2175 2409 1742 
Q 1991 1309 1228 531 
z
" transform="scale(0.015625)"/>
       </defs>
       <use xlink:href="#DejaVuSans-34"/>
       <use xlink:href="#DejaVuSans-2e" x="63.623047"/>
       <use xlink:href="#DejaVuSans-32" x="95.410156"/>
       <use xlink:href="#DejaVuSans-30" x="159.033203"/>
      </g>
     </g>
    </g>
    <g id="xtick_8">
     <g id="line2d_8">
      <g>
       <use xlink:href="#m17443c8b86" x="369.818326" y="303.928" style="stroke: #000000; stroke-width: 0.8"/>
      </g>
     </g>
     <g id="text_8">
      <!-- 4.25 -->
      <g transform="translate(358.685513 318.526437) scale(0.1 -0.1)">
       <use xlink:href="#DejaVuSans-34"/>
       <use xlink:href="#DejaVuSans-2e" x="63.623047"/>
       <use xlink:href="#DejaVuSans-32" x="95.410156"/>
       <use xlink:href="#DejaVuSans-35" x="159.033203"/>
      </g>
     </g>
    </g>
    <g id="xtick_9">
     <g id="line2d_9">
      <g>
       <use xlink:href="#m17443c8b86" x="412.320598" y="303.928" style="stroke: #000000; stroke-width: 0.8"/>
      </g>
     </g>
     <g id="text_9">
      <!-- 4.30 -->
      <g transform="translate(401.187786 318.526437) scale(0.1 -0.1)">
       <use xlink:href="#DejaVuSans-34"/>
       <use xlink:href="#DejaVuSans-2e" x="63.623047"/>
       <use xlink:href="#DejaVuSans-33" x="95.410156"/>
       <use xlink:href="#DejaVuSans-30" x="159.033203"/>
      </g>
     </g>
    </g>
    <g id="text_10">
     <!-- Frequency [Hz] -->
     <g transform="translate(218.958438 332.204562) scale(0.1 -0.1)">
      <defs>
       <path id="DejaVuSans-46" d="M 628 4666 
L 3309 4666 
L 3309 4134 
L 1259 4134 
L 1259 2759 
L 3109 2759 
L 3109 2228 
L 1259 2228 
L 1259 0 
L 628 0 
L 628 4666 
z
" transform="scale(0.015625)"/>
       <path id="DejaVuSans-72" d="M 2631 2963 
Q 2534 3019 2420 3045 
Q 2306 3072 2169 3072 
Q 1681 3072 1420 2755 
Q 1159 2438 1159 1844 
L 1159 0 
L 581 0 
L 581 3500 
L 1159 3500 
L 1159 2956 
Q 1341 3275 1631 3429 
Q 1922 3584 2338 3584 
Q 2397 3584 2469 3576 
Q 2541 3569 2628 3553 
L 2631 2963 
z
" transform="scale(0.015625)"/>
       <path id="DejaVuSans-65" d="M 3597 1894 
L 3597 1613 
L 953 1613 
Q 991 1019 1311 708 
Q 1631 397 2203 397 
Q 2534 397 2845 478 
Q 3156 559 3463 722 
L 3463 178 
Q 3153 47 2828 -22 
Q 2503 -91 2169 -91 
Q 1331 -91 842 396 
Q 353 884 353 1716 
Q 353 2575 817 3079 
Q 1281 3584 2069 3584 
Q 2775 3584 3186 3129 
Q 3597 2675 3597 1894 
z
M 3022 2063 
Q 3016 2534 2758 2815 
Q 2500 3097 2075 3097 
Q 1594 3097 1305 2825 
Q 1016 2553 972 2059 
L 3022 2063 
z
" transform="scale(0.015625)"/>
       <path id="DejaVuSans-71" d="M 947 1747 
Q 947 1113 1208 752 
Q 1469 391 1925 391 
Q 2381 391 2643 752 
Q 2906 1113 2906 1747 
Q 2906 2381 2643 2742 
Q 2381 3103 1925 3103 
Q 1469 3103 1208 2742 
Q 947 2381 947 1747 
z
M 2906 525 
Q 2725 213 2448 61 
Q 2172 -91 1784 -91 
Q 1150 -91 751 415 
Q 353 922 353 1747 
Q 353 2572 751 3078 
Q 1150 3584 1784 3584 
Q 2172 3584 2448 3432 
Q 2725 3281 2906 2969 
L 2906 3500 
L 3481 3500 
L 3481 -1331 
L 2906 -1331 
L 2906 525 
z
" transform="scale(0.015625)"/>
       <path id="DejaVuSans-75" d="M 544 1381 
L 544 3500 
L 1119 3500 
L 1119 1403 
Q 1119 906 1312 657 
Q 1506 409 1894 409 
Q 2359 409 2629 706 
Q 2900 1003 2900 1516 
L 2900 3500 
L 3475 3500 
L 3475 0 
L 2900 0 
L 2900 538 
Q 2691 219 2414 64 
Q 2138 -91 1772 -91 
Q 1169 -91 856 284 
Q 544 659 544 1381 
z
M 1991 3584 
L 1991 3584 
z
" transform="scale(0.015625)"/>
       <path id="DejaVuSans-6e" d="M 3513 2113 
L 3513 0 
L 2938 0 
L 2938 2094 
Q 2938 2591 2744 2837 
Q 2550 3084 2163 3084 
Q 1697 3084 1428 2787 
Q 1159 2491 1159 1978 
L 1159 0 
L 581 0 
L 581 3500 
L 1159 3500 
L 1159 2956 
Q 1366 3272 1645 3428 
Q 1925 3584 2291 3584 
Q 2894 3584 3203 3211 
Q 3513 2838 3513 2113 
z
" transform="scale(0.015625)"/>
       <path id="DejaVuSans-63" d="M 3122 3366 
L 3122 2828 
Q 2878 2963 2633 3030 
Q 2388 3097 2138 3097 
Q 1578 3097 1268 2742 
Q 959 2388 959 1747 
Q 959 1106 1268 751 
Q 1578 397 2138 397 
Q 2388 397 2633 464 
Q 2878 531 3122 666 
L 3122 134 
Q 2881 22 2623 -34 
Q 2366 -91 2075 -91 
Q 1284 -91 818 406 
Q 353 903 353 1747 
Q 353 2603 823 3093 
Q 1294 3584 2113 3584 
Q 2378 3584 2631 3529 
Q 2884 3475 3122 3366 
z
" transform="scale(0.015625)"/>
       <path id="DejaVuSans-79" d="M 2059 -325 
Q 1816 -950 1584 -1140 
Q 1353 -1331 966 -1331 
L 506 -1331 
L 506 -850 
L 844 -850 
Q 1081 -850 1212 -737 
Q 1344 -625 1503 -206 
L 1606 56 
L 191 3500 
L 800 3500 
L 1894 763 
L 2988 3500 
L 3597 3500 
L 2059 -325 
z
" transform="scale(0.015625)"/>
       <path id="DejaVuSans-20" transform="scale(0.015625)"/>
       <path id="DejaVuSans-5b" d="M 550 4863 
L 1875 4863 
L 1875 4416 
L 1125 4416 
L 1125 -397 
L 1875 -397 
L 1875 -844 
L 550 -844 
L 550 4863 
z
" transform="scale(0.015625)"/>
       <path id="DejaVuSans-48" d="M 628 4666 
L 1259 4666 
L 1259 2753 
L 3553 2753 
L 3553 4666 
L 4184 4666 
L 4184 0 
L 3553 0 
L 3553 2222 
L 1259 2222 
L 1259 0 
L 628 0 
L 628 4666 
z
" transform="scale(0.015625)"/>
       <path id="DejaVuSans-7a" d="M 353 3500 
L 3084 3500 
L 3084 2975 
L 922 459 
L 3084 459 
L 3084 0 
L 275 0 
L 275 525 
L 2438 3041 
L 353 3041 
L 353 3500 
z
" transform="scale(0.015625)"/>
       <path id="DejaVuSans-5d" d="M 1947 4863 
L 1947 -844 
L 622 -844 
L 622 -397 
L 1369 -397 
L 1369 4416 
L 622 4416 
L 622 4863 
L 1947 4863 
z
" transform="scale(0.015625)"/>
      </defs>
      <use xlink:href="#DejaVuSans-46"/>
      <use xlink:href="#DejaVuSans-72" x="50.269531"/>
      <use xlink:href="#DejaVuSans-65" x="89.132812"/>
      <use xlink:href="#DejaVuSans-71" x="150.65625"/>
      <use xlink:href="#DejaVuSans-75" x="214.132812"/>
      <use xlink:href="#DejaVuSans-65" x="277.511719"/>
      <use xlink:href="#DejaVuSans-6e" x="339.035156"/>
      <use xlink:href="#DejaVuSans-63" x="402.414062"/>
      <use xlink:href="#DejaVuSans-79" x="457.394531"/>
      <use xlink:href="#DejaVuSans-20" x="516.574219"/>
      <use xlink:href="#DejaVuSans-5b" x="548.361328"/>
      <use xlink:href="#DejaVuSans-48" x="587.375"/>
      <use xlink:href="#DejaVuSans-7a" x="662.570312"/>
      <use xlink:href="#DejaVuSans-5d" x="715.060547"/>
     </g>
    </g>
    <g id="text_11">
     <!-- 1e9 -->
     <g transform="translate(424.795 331.204562) scale(0.1 -0.1)">
      <use xlink:href="#DejaVuSans-31"/>
      <use xlink:href="#DejaVuSans-65" x="63.623047"/>
      <use xlink:href="#DejaVuSans-39" x="125.146484"/>
     </g>
    </g>
   </g>
   <g id="matplotlib.axis_2">
    <g id="ytick_1">
     <g id="line2d_10">
      <defs>
       <path id="m1b22d2dea8" d="M 0 0 
L -3.5 0 
" style="stroke: #000000; stroke-width: 0.8"/>
      </defs>
      <g>
       <use xlink:href="#m1b22d2dea8" x="69.653125" y="294.015033" style="stroke: #000000; stroke-width: 0.8"/>
      </g>
     </g>
     <g id="text_12">
      <!-- 0.00176 -->
      <g transform="translate(21.3 297.814252) scale(0.1 -0.1)">
       <defs>
        <path id="DejaVuSans-37" d="M 525 4666 
L 3525 4666 
L 3525 4397 
L 1831 0 
L 1172 0 
L 2766 4134 
L 525 4134 
L 525 4666 
z
" transform="scale(0.015625)"/>
        <path id="DejaVuSans-36" d="M 2113 2584 
Q 1688 2584 1439 2293 
Q 1191 2003 1191 1497 
Q 1191 994 1439 701 
Q 1688 409 2113 409 
Q 2538 409 2786 701 
Q 3034 994 3034 1497 
Q 3034 2003 2786 2293 
Q 2538 2584 2113 2584 
z
M 3366 4563 
L 3366 3988 
Q 3128 4100 2886 4159 
Q 2644 4219 2406 4219 
Q 1781 4219 1451 3797 
Q 1122 3375 1075 2522 
Q 1259 2794 1537 2939 
Q 1816 3084 2150 3084 
Q 2853 3084 3261 2657 
Q 3669 2231 3669 1497 
Q 3669 778 3244 343 
Q 2819 -91 2113 -91 
Q 1303 -91 875 529 
Q 447 1150 447 2328 
Q 447 3434 972 4092 
Q 1497 4750 2381 4750 
Q 2619 4750 2861 4703 
Q 3103 4656 3366 4563 
z
" transform="scale(0.015625)"/>
       </defs>
       <use xlink:href="#DejaVuSans-30"/>
       <use xlink:href="#DejaVuSans-2e" x="63.623047"/>
       <use xlink:href="#DejaVuSans-30" x="95.410156"/>
       <use xlink:href="#DejaVuSans-30" x="159.033203"/>
       <use xlink:href="#DejaVuSans-31" x="222.65625"/>
       <use xlink:href="#DejaVuSans-37" x="286.279297"/>
       <use xlink:href="#DejaVuSans-36" x="349.902344"/>
      </g>
     </g>
    </g>
    <g id="ytick_2">
     <g id="line2d_11">
      <g>
       <use xlink:href="#m1b22d2dea8" x="69.653125" y="247.344394" style="stroke: #000000; stroke-width: 0.8"/>
      </g>
     </g>
     <g id="text_13">
      <!-- 0.00178 -->
      <g transform="translate(21.3 251.143613) scale(0.1 -0.1)">
       <defs>
        <path id="DejaVuSans-38" d="M 2034 2216 
Q 1584 2216 1326 1975 
Q 1069 1734 1069 1313 
Q 1069 891 1326 650 
Q 1584 409 2034 409 
Q 2484 409 2743 651 
Q 3003 894 3003 1313 
Q 3003 1734 2745 1975 
Q 2488 2216 2034 2216 
z
M 1403 2484 
Q 997 2584 770 2862 
Q 544 3141 544 3541 
Q 544 4100 942 4425 
Q 1341 4750 2034 4750 
Q 2731 4750 3128 4425 
Q 3525 4100 3525 3541 
Q 3525 3141 3298 2862 
Q 3072 2584 2669 2484 
Q 3125 2378 3379 2068 
Q 3634 1759 3634 1313 
Q 3634 634 3220 271 
Q 2806 -91 2034 -91 
Q 1263 -91 848 271 
Q 434 634 434 1313 
Q 434 1759 690 2068 
Q 947 2378 1403 2484 
z
M 1172 3481 
Q 1172 3119 1398 2916 
Q 1625 2713 2034 2713 
Q 2441 2713 2670 2916 
Q 2900 3119 2900 3481 
Q 2900 3844 2670 4047 
Q 2441 4250 2034 4250 
Q 1625 4250 1398 4047 
Q 1172 3844 1172 3481 
z
" transform="scale(0.015625)"/>
       </defs>
       <use xlink:href="#DejaVuSans-30"/>
       <use xlink:href="#DejaVuSans-2e" x="63.623047"/>
       <use xlink:href="#DejaVuSans-30" x="95.410156"/>
       <use xlink:href="#DejaVuSans-30" x="159.033203"/>
       <use xlink:href="#DejaVuSans-31" x="222.65625"/>
       <use xlink:href="#DejaVuSans-37" x="286.279297"/>
       <use xlink:href="#DejaVuSans-38" x="349.902344"/>
      </g>
     </g>
    </g>
    <g id="ytick_3">
     <g id="line2d_12">
      <g>
       <use xlink:href="#m1b22d2dea8" x="69.653125" y="200.673755" style="stroke: #000000; stroke-width: 0.8"/>
      </g>
     </g>
     <g id="text_14">
      <!-- 0.00180 -->
      <g transform="translate(21.3 204.472974) scale(0.1 -0.1)">
       <use xlink:href="#DejaVuSans-30"/>
       <use xlink:href="#DejaVuSans-2e" x="63.623047"/>
       <use xlink:href="#DejaVuSans-30" x="95.410156"/>
       <use xlink:href="#DejaVuSans-30" x="159.033203"/>
       <use xlink:href="#DejaVuSans-31" x="222.65625"/>
       <use xlink:href="#DejaVuSans-38" x="286.279297"/>
       <use xlink:href="#DejaVuSans-30" x="349.902344"/>
      </g>
     </g>
    </g>
    <g id="ytick_4">
     <g id="line2d_13">
      <g>
       <use xlink:href="#m1b22d2dea8" x="69.653125" y="154.003116" style="stroke: #000000; stroke-width: 0.8"/>
      </g>
     </g>
     <g id="text_15">
      <!-- 0.00182 -->
      <g transform="translate(21.3 157.802335) scale(0.1 -0.1)">
       <use xlink:href="#DejaVuSans-30"/>
       <use xlink:href="#DejaVuSans-2e" x="63.623047"/>
       <use xlink:href="#DejaVuSans-30" x="95.410156"/>
       <use xlink:href="#DejaVuSans-30" x="159.033203"/>
       <use xlink:href="#DejaVuSans-31" x="222.65625"/>
       <use xlink:href="#DejaVuSans-38" x="286.279297"/>
       <use xlink:href="#DejaVuSans-32" x="349.902344"/>
      </g>
     </g>
    </g>
    <g id="ytick_5">
     <g id="line2d_14">
      <g>
       <use xlink:href="#m1b22d2dea8" x="69.653125" y="107.332477" style="stroke: #000000; stroke-width: 0.8"/>
      </g>
     </g>
     <g id="text_16">
      <!-- 0.00184 -->
      <g transform="translate(21.3 111.131696) scale(0.1 -0.1)">
       <use xlink:href="#DejaVuSans-30"/>
       <use xlink:href="#DejaVuSans-2e" x="63.623047"/>
       <use xlink:href="#DejaVuSans-30" x="95.410156"/>
       <use xlink:href="#DejaVuSans-30" x="159.033203"/>
       <use xlink:href="#DejaVuSans-31" x="222.65625"/>
       <use xlink:href="#DejaVuSans-38" x="286.279297"/>
       <use xlink:href="#DejaVuSans-34" x="349.902344"/>
      </g>
     </g>
    </g>
    <g id="ytick_6">
     <g id="line2d_15">
      <g>
       <use xlink:href="#m1b22d2dea8" x="69.653125" y="60.661838" style="stroke: #000000; stroke-width: 0.8"/>
      </g>
     </g>
     <g id="text_17">
      <!-- 0.00186 -->
      <g transform="translate(21.3 64.461057) scale(0.1 -0.1)">
       <use xlink:href="#DejaVuSans-30"/>
       <use xlink:href="#DejaVuSans-2e" x="63.623047"/>
       <use xlink:href="#DejaVuSans-30" x="95.410156"/>
       <use xlink:href="#DejaVuSans-30" x="159.033203"/>
       <use xlink:href="#DejaVuSans-31" x="222.65625"/>
       <use xlink:href="#DejaVuSans-38" x="286.279297"/>
       <use xlink:href="#DejaVuSans-36" x="349.902344"/>
      </g>
     </g>
    </g>
    <g id="text_18">
     <!-- Magnitude, $|S_{21}|$ [V] -->
     <g transform="translate(14.9 226.626) rotate(-90) scale(0.1 -0.1)">
      <defs>
       <path id="DejaVuSans-4d" d="M 628 4666 
L 1569 4666 
L 2759 1491 
L 3956 4666 
L 4897 4666 
L 4897 0 
L 4281 0 
L 4281 4097 
L 3078 897 
L 2444 897 
L 1241 4097 
L 1241 0 
L 628 0 
L 628 4666 
z
" transform="scale(0.015625)"/>
       <path id="DejaVuSans-61" d="M 2194 1759 
Q 1497 1759 1228 1600 
Q 959 1441 959 1056 
Q 959 750 1161 570 
Q 1363 391 1709 391 
Q 2188 391 2477 730 
Q 2766 1069 2766 1631 
L 2766 1759 
L 2194 1759 
z
M 3341 1997 
L 3341 0 
L 2766 0 
L 2766 531 
Q 2569 213 2275 61 
Q 1981 -91 1556 -91 
Q 1019 -91 701 211 
Q 384 513 384 1019 
Q 384 1609 779 1909 
Q 1175 2209 1959 2209 
L 2766 2209 
L 2766 2266 
Q 2766 2663 2505 2880 
Q 2244 3097 1772 3097 
Q 1472 3097 1187 3025 
Q 903 2953 641 2809 
L 641 3341 
Q 956 3463 1253 3523 
Q 1550 3584 1831 3584 
Q 2591 3584 2966 3190 
Q 3341 2797 3341 1997 
z
" transform="scale(0.015625)"/>
       <path id="DejaVuSans-67" d="M 2906 1791 
Q 2906 2416 2648 2759 
Q 2391 3103 1925 3103 
Q 1463 3103 1205 2759 
Q 947 2416 947 1791 
Q 947 1169 1205 825 
Q 1463 481 1925 481 
Q 2391 481 2648 825 
Q 2906 1169 2906 1791 
z
M 3481 434 
Q 3481 -459 3084 -895 
Q 2688 -1331 1869 -1331 
Q 1566 -1331 1297 -1286 
Q 1028 -1241 775 -1147 
L 775 -588 
Q 1028 -725 1275 -790 
Q 1522 -856 1778 -856 
Q 2344 -856 2625 -561 
Q 2906 -266 2906 331 
L 2906 616 
Q 2728 306 2450 153 
Q 2172 0 1784 0 
Q 1141 0 747 490 
Q 353 981 353 1791 
Q 353 2603 747 3093 
Q 1141 3584 1784 3584 
Q 2172 3584 2450 3431 
Q 2728 3278 2906 2969 
L 2906 3500 
L 3481 3500 
L 3481 434 
z
" transform="scale(0.015625)"/>
       <path id="DejaVuSans-69" d="M 603 3500 
L 1178 3500 
L 1178 0 
L 603 0 
L 603 3500 
z
M 603 4863 
L 1178 4863 
L 1178 4134 
L 603 4134 
L 603 4863 
z
" transform="scale(0.015625)"/>
       <path id="DejaVuSans-74" d="M 1172 4494 
L 1172 3500 
L 2356 3500 
L 2356 3053 
L 1172 3053 
L 1172 1153 
Q 1172 725 1289 603 
Q 1406 481 1766 481 
L 2356 481 
L 2356 0 
L 1766 0 
Q 1100 0 847 248 
Q 594 497 594 1153 
L 594 3053 
L 172 3053 
L 172 3500 
L 594 3500 
L 594 4494 
L 1172 4494 
z
" transform="scale(0.015625)"/>
       <path id="DejaVuSans-64" d="M 2906 2969 
L 2906 4863 
L 3481 4863 
L 3481 0 
L 2906 0 
L 2906 525 
Q 2725 213 2448 61 
Q 2172 -91 1784 -91 
Q 1150 -91 751 415 
Q 353 922 353 1747 
Q 353 2572 751 3078 
Q 1150 3584 1784 3584 
Q 2172 3584 2448 3432 
Q 2725 3281 2906 2969 
z
M 947 1747 
Q 947 1113 1208 752 
Q 1469 391 1925 391 
Q 2381 391 2643 752 
Q 2906 1113 2906 1747 
Q 2906 2381 2643 2742 
Q 2381 3103 1925 3103 
Q 1469 3103 1208 2742 
Q 947 2381 947 1747 
z
" transform="scale(0.015625)"/>
       <path id="DejaVuSans-2c" d="M 750 794 
L 1409 794 
L 1409 256 
L 897 -744 
L 494 -744 
L 750 256 
L 750 794 
z
" transform="scale(0.015625)"/>
       <path id="DejaVuSans-7c" d="M 1344 4891 
L 1344 -1509 
L 813 -1509 
L 813 4891 
L 1344 4891 
z
" transform="scale(0.015625)"/>
       <path id="DejaVuSans-Oblique-53" d="M 3859 4513 
L 3738 3897 
Q 3422 4066 3111 4152 
Q 2800 4238 2509 4238 
Q 1944 4238 1609 3991 
Q 1275 3744 1275 3334 
Q 1275 3109 1398 2989 
Q 1522 2869 2034 2731 
L 2413 2638 
Q 3053 2472 3303 2217 
Q 3553 1963 3553 1503 
Q 3553 797 2998 353 
Q 2444 -91 1538 -91 
Q 1166 -91 791 -17 
Q 416 56 38 206 
L 166 856 
Q 513 641 861 531 
Q 1209 422 1556 422 
Q 2147 422 2503 684 
Q 2859 947 2859 1369 
Q 2859 1650 2717 1795 
Q 2575 1941 2106 2059 
L 1728 2156 
Q 1081 2325 845 2545 
Q 609 2766 609 3163 
Q 609 3859 1145 4304 
Q 1681 4750 2541 4750 
Q 2875 4750 3203 4690 
Q 3531 4631 3859 4513 
z
" transform="scale(0.015625)"/>
       <path id="DejaVuSans-56" d="M 1831 0 
L 50 4666 
L 709 4666 
L 2188 738 
L 3669 4666 
L 4325 4666 
L 2547 0 
L 1831 0 
z
" transform="scale(0.015625)"/>
      </defs>
      <use xlink:href="#DejaVuSans-4d" transform="translate(0 0.578125)"/>
      <use xlink:href="#DejaVuSans-61" transform="translate(86.279297 0.578125)"/>
      <use xlink:href="#DejaVuSans-67" transform="translate(147.558594 0.578125)"/>
      <use xlink:href="#DejaVuSans-6e" transform="translate(211.035156 0.578125)"/>
      <use xlink:href="#DejaVuSans-69" transform="translate(274.414062 0.578125)"/>
      <use xlink:href="#DejaVuSans-74" transform="translate(302.197266 0.578125)"/>
      <use xlink:href="#DejaVuSans-75" transform="translate(341.40625 0.578125)"/>
      <use xlink:href="#DejaVuSans-64" transform="translate(404.785156 0.578125)"/>
      <use xlink:href="#DejaVuSans-65" transform="translate(468.261719 0.578125)"/>
      <use xlink:href="#DejaVuSans-2c" transform="translate(529.785156 0.578125)"/>
      <use xlink:href="#DejaVuSans-20" transform="translate(561.572266 0.578125)"/>
      <use xlink:href="#DejaVuSans-7c" transform="translate(593.359375 0.578125)"/>
      <use xlink:href="#DejaVuSans-Oblique-53" transform="translate(627.050781 0.578125)"/>
      <use xlink:href="#DejaVuSans-32" transform="translate(690.527344 -15.828125) scale(0.7)"/>
      <use xlink:href="#DejaVuSans-31" transform="translate(735.063477 -15.828125) scale(0.7)"/>
      <use xlink:href="#DejaVuSans-7c" transform="translate(782.333984 0.578125)"/>
      <use xlink:href="#DejaVuSans-20" transform="translate(816.025391 0.578125)"/>
      <use xlink:href="#DejaVuSans-5b" transform="translate(847.8125 0.578125)"/>
      <use xlink:href="#DejaVuSans-56" transform="translate(886.826172 0.578125)"/>
      <use xlink:href="#DejaVuSans-5d" transform="translate(955.234375 0.578125)"/>
     </g>
    </g>
   </g>
   <g id="line2d_16">
    <defs>
     <path id="m6fdcddd0b6" d="M 0 1.5 
C 0.397805 1.5 0.77937 1.341951 1.06066 1.06066 
C 1.341951 0.77937 1.5 0.397805 1.5 0 
C 1.5 -0.397805 1.341951 -0.77937 1.06066 -1.06066 
C 0.77937 -1.341951 0.397805 -1.5 0 -1.5 
C -0.397805 -1.5 -0.77937 -1.341951 -1.06066 -1.06066 
C -1.341951 -0.77937 -1.5 -0.397805 -1.5 0 
C -1.5 0.397805 -1.341951 0.77937 -1.06066 1.06066 
C -0.77937 1.341951 -0.397805 1.5 0 1.5 
z
" style="stroke: #1f77b4"/>
    </defs>
    <g clip-path="url(#pb7e1692b6c)">
     <use xlink:href="#m6fdcddd0b6" x="86.654034" y="158.361437" style="fill: #1f77b4; stroke: #1f77b4"/>
     <use xlink:href="#m6fdcddd0b6" x="90.088561" y="251.804836" style="fill: #1f77b4; stroke: #1f77b4"/>
     <use xlink:href="#m6fdcddd0b6" x="93.523088" y="128.642577" style="fill: #1f77b4; stroke: #1f77b4"/>
     <use xlink:href="#m6fdcddd0b6" x="96.957615" y="161.482009" style="fill: #1f77b4; stroke: #1f77b4"/>
     <use xlink:href="#m6fdcddd0b6" x="100.392142" y="193.338439" style="fill: #1f77b4; stroke: #1f77b4"/>
     <use xlink:href="#m6fdcddd0b6" x="103.82667" y="204.598759" style="fill: #1f77b4; stroke: #1f77b4"/>
     <use xlink:href="#m6fdcddd0b6" x="107.261197" y="151.205517" style="fill: #1f77b4; stroke: #1f77b4"/>
     <use xlink:href="#m6fdcddd0b6" x="110.695724" y="189.336679" style="fill: #1f77b4; stroke: #1f77b4"/>
     <use xlink:href="#m6fdcddd0b6" x="114.130251" y="135.199143" style="fill: #1f77b4; stroke: #1f77b4"/>
     <use xlink:href="#m6fdcddd0b6" x="117.564778" y="135.615168" style="fill: #1f77b4; stroke: #1f77b4"/>
     <use xlink:href="#m6fdcddd0b6" x="120.999305" y="192.033485" style="fill: #1f77b4; stroke: #1f77b4"/>
     <use xlink:href="#m6fdcddd0b6" x="124.433832" y="115.964319" style="fill: #1f77b4; stroke: #1f77b4"/>
     <use xlink:href="#m6fdcddd0b6" x="127.868359" y="120.790375" style="fill: #1f77b4; stroke: #1f77b4"/>
     <use xlink:href="#m6fdcddd0b6" x="131.302886" y="162.674649" style="fill: #1f77b4; stroke: #1f77b4"/>
     <use xlink:href="#m6fdcddd0b6" x="134.737413" y="67.202047" style="fill: #1f77b4; stroke: #1f77b4"/>
     <use xlink:href="#m6fdcddd0b6" x="138.17194" y="165.475128" style="fill: #1f77b4; stroke: #1f77b4"/>
     <use xlink:href="#m6fdcddd0b6" x="141.606468" y="152.370183" style="fill: #1f77b4; stroke: #1f77b4"/>
     <use xlink:href="#m6fdcddd0b6" x="145.040995" y="199.008226" style="fill: #1f77b4; stroke: #1f77b4"/>
     <use xlink:href="#m6fdcddd0b6" x="148.475522" y="218.882018" style="fill: #1f77b4; stroke: #1f77b4"/>
     <use xlink:href="#m6fdcddd0b6" x="151.910049" y="171.534252" style="fill: #1f77b4; stroke: #1f77b4"/>
     <use xlink:href="#m6fdcddd0b6" x="155.344576" y="130.732414" style="fill: #1f77b4; stroke: #1f77b4"/>
     <use xlink:href="#m6fdcddd0b6" x="158.779103" y="199.06206" style="fill: #1f77b4; stroke: #1f77b4"/>
     <use xlink:href="#m6fdcddd0b6" x="162.21363" y="153.093818" style="fill: #1f77b4; stroke: #1f77b4"/>
     <use xlink:href="#m6fdcddd0b6" x="165.648157" y="195.397893" style="fill: #1f77b4; stroke: #1f77b4"/>
     <use xlink:href="#m6fdcddd0b6" x="169.082684" y="172.344635" style="fill: #1f77b4; stroke: #1f77b4"/>
     <use xlink:href="#m6fdcddd0b6" x="172.517211" y="128.316899" style="fill: #1f77b4; stroke: #1f77b4"/>
     <use xlink:href="#m6fdcddd0b6" x="175.951738" y="140.739945" style="fill: #1f77b4; stroke: #1f77b4"/>
     <use xlink:href="#m6fdcddd0b6" x="179.386265" y="168.331765" style="fill: #1f77b4; stroke: #1f77b4"/>
     <use xlink:href="#m6fdcddd0b6" x="182.820793" y="239.537791" style="fill: #1f77b4; stroke: #1f77b4"/>
     <use xlink:href="#m6fdcddd0b6" x="186.25532" y="137.081771" style="fill: #1f77b4; stroke: #1f77b4"/>
     <use xlink:href="#m6fdcddd0b6" x="189.689847" y="195.667336" style="fill: #1f77b4; stroke: #1f77b4"/>
     <use xlink:href="#m6fdcddd0b6" x="193.124374" y="104.347281" style="fill: #1f77b4; stroke: #1f77b4"/>
     <use xlink:href="#m6fdcddd0b6" x="196.558901" y="122.864617" style="fill: #1f77b4; stroke: #1f77b4"/>
     <use xlink:href="#m6fdcddd0b6" x="199.993428" y="137.875795" style="fill: #1f77b4; stroke: #1f77b4"/>
     <use xlink:href="#m6fdcddd0b6" x="203.427955" y="186.79924" style="fill: #1f77b4; stroke: #1f77b4"/>
     <use xlink:href="#m6fdcddd0b6" x="206.862482" y="189.461147" style="fill: #1f77b4; stroke: #1f77b4"/>
     <use xlink:href="#m6fdcddd0b6" x="210.297009" y="196.852168" style="fill: #1f77b4; stroke: #1f77b4"/>
     <use xlink:href="#m6fdcddd0b6" x="213.731536" y="114.561637" style="fill: #1f77b4; stroke: #1f77b4"/>
     <use xlink:href="#m6fdcddd0b6" x="217.166063" y="152.75754" style="fill: #1f77b4; stroke: #1f77b4"/>
     <use xlink:href="#m6fdcddd0b6" x="220.600591" y="175.708646" style="fill: #1f77b4; stroke: #1f77b4"/>
     <use xlink:href="#m6fdcddd0b6" x="224.035118" y="165.781816" style="fill: #1f77b4; stroke: #1f77b4"/>
     <use xlink:href="#m6fdcddd0b6" x="227.469645" y="143.528418" style="fill: #1f77b4; stroke: #1f77b4"/>
     <use xlink:href="#m6fdcddd0b6" x="230.904172" y="155.329523" style="fill: #1f77b4; stroke: #1f77b4"/>
     <use xlink:href="#m6fdcddd0b6" x="234.338699" y="127.355682" style="fill: #1f77b4; stroke: #1f77b4"/>
     <use xlink:href="#m6fdcddd0b6" x="237.773226" y="103.773888" style="fill: #1f77b4; stroke: #1f77b4"/>
     <use xlink:href="#m6fdcddd0b6" x="241.207753" y="141.383208" style="fill: #1f77b4; stroke: #1f77b4"/>
     <use xlink:href="#m6fdcddd0b6" x="244.64228" y="210.077218" style="fill: #1f77b4; stroke: #1f77b4"/>
     <use xlink:href="#m6fdcddd0b6" x="248.076807" y="165.825767" style="fill: #1f77b4; stroke: #1f77b4"/>
     <use xlink:href="#m6fdcddd0b6" x="251.511334" y="195.479408" style="fill: #1f77b4; stroke: #1f77b4"/>
     <use xlink:href="#m6fdcddd0b6" x="254.945861" y="172.333735" style="fill: #1f77b4; stroke: #1f77b4"/>
     <use xlink:href="#m6fdcddd0b6" x="258.380389" y="194.328722" style="fill: #1f77b4; stroke: #1f77b4"/>
     <use xlink:href="#m6fdcddd0b6" x="261.814916" y="180.649718" style="fill: #1f77b4; stroke: #1f77b4"/>
     <use xlink:href="#m6fdcddd0b6" x="265.249443" y="152.498924" style="fill: #1f77b4; stroke: #1f77b4"/>
     <use xlink:href="#m6fdcddd0b6" x="268.68397" y="171.15646" style="fill: #1f77b4; stroke: #1f77b4"/>
     <use xlink:href="#m6fdcddd0b6" x="272.118497" y="189.095345" style="fill: #1f77b4; stroke: #1f77b4"/>
     <use xlink:href="#m6fdcddd0b6" x="275.553024" y="184.504315" style="fill: #1f77b4; stroke: #1f77b4"/>
     <use xlink:href="#m6fdcddd0b6" x="278.987551" y="174.010864" style="fill: #1f77b4; stroke: #1f77b4"/>
     <use xlink:href="#m6fdcddd0b6" x="282.422078" y="133.107519" style="fill: #1f77b4; stroke: #1f77b4"/>
     <use xlink:href="#m6fdcddd0b6" x="285.856605" y="192.159844" style="fill: #1f77b4; stroke: #1f77b4"/>
     <use xlink:href="#m6fdcddd0b6" x="289.291132" y="196.564611" style="fill: #1f77b4; stroke: #1f77b4"/>
     <use xlink:href="#m6fdcddd0b6" x="292.725659" y="167.008995" style="fill: #1f77b4; stroke: #1f77b4"/>
     <use xlink:href="#m6fdcddd0b6" x="296.160187" y="266.869819" style="fill: #1f77b4; stroke: #1f77b4"/>
     <use xlink:href="#m6fdcddd0b6" x="299.594714" y="198.802154" style="fill: #1f77b4; stroke: #1f77b4"/>
     <use xlink:href="#m6fdcddd0b6" x="303.029241" y="184.829997" style="fill: #1f77b4; stroke: #1f77b4"/>
     <use xlink:href="#m6fdcddd0b6" x="306.463768" y="292.377818" style="fill: #1f77b4; stroke: #1f77b4"/>
     <use xlink:href="#m6fdcddd0b6" x="309.898295" y="144.039531" style="fill: #1f77b4; stroke: #1f77b4"/>
     <use xlink:href="#m6fdcddd0b6" x="313.332822" y="200.500077" style="fill: #1f77b4; stroke: #1f77b4"/>
     <use xlink:href="#m6fdcddd0b6" x="316.767349" y="160.627107" style="fill: #1f77b4; stroke: #1f77b4"/>
     <use xlink:href="#m6fdcddd0b6" x="320.201876" y="215.66034" style="fill: #1f77b4; stroke: #1f77b4"/>
     <use xlink:href="#m6fdcddd0b6" x="323.636403" y="181.132198" style="fill: #1f77b4; stroke: #1f77b4"/>
     <use xlink:href="#m6fdcddd0b6" x="327.07093" y="178.526297" style="fill: #1f77b4; stroke: #1f77b4"/>
     <use xlink:href="#m6fdcddd0b6" x="330.505457" y="208.088215" style="fill: #1f77b4; stroke: #1f77b4"/>
     <use xlink:href="#m6fdcddd0b6" x="333.939985" y="200.544995" style="fill: #1f77b4; stroke: #1f77b4"/>
     <use xlink:href="#m6fdcddd0b6" x="337.374512" y="182.818589" style="fill: #1f77b4; stroke: #1f77b4"/>
     <use xlink:href="#m6fdcddd0b6" x="340.809039" y="87.41766" style="fill: #1f77b4; stroke: #1f77b4"/>
     <use xlink:href="#m6fdcddd0b6" x="344.243566" y="102.66662" style="fill: #1f77b4; stroke: #1f77b4"/>
     <use xlink:href="#m6fdcddd0b6" x="347.678093" y="232.737762" style="fill: #1f77b4; stroke: #1f77b4"/>
     <use xlink:href="#m6fdcddd0b6" x="351.11262" y="163.112249" style="fill: #1f77b4; stroke: #1f77b4"/>
     <use xlink:href="#m6fdcddd0b6" x="354.547147" y="158.940024" style="fill: #1f77b4; stroke: #1f77b4"/>
     <use xlink:href="#m6fdcddd0b6" x="357.981674" y="164.706537" style="fill: #1f77b4; stroke: #1f77b4"/>
     <use xlink:href="#m6fdcddd0b6" x="361.416201" y="199.709126" style="fill: #1f77b4; stroke: #1f77b4"/>
     <use xlink:href="#m6fdcddd0b6" x="364.850728" y="187.763401" style="fill: #1f77b4; stroke: #1f77b4"/>
     <use xlink:href="#m6fdcddd0b6" x="368.285255" y="210.398618" style="fill: #1f77b4; stroke: #1f77b4"/>
     <use xlink:href="#m6fdcddd0b6" x="371.719782" y="189.001588" style="fill: #1f77b4; stroke: #1f77b4"/>
     <use xlink:href="#m6fdcddd0b6" x="375.15431" y="136.85135" style="fill: #1f77b4; stroke: #1f77b4"/>
     <use xlink:href="#m6fdcddd0b6" x="378.588837" y="106.501962" style="fill: #1f77b4; stroke: #1f77b4"/>
     <use xlink:href="#m6fdcddd0b6" x="382.023364" y="214.233232" style="fill: #1f77b4; stroke: #1f77b4"/>
     <use xlink:href="#m6fdcddd0b6" x="385.457891" y="137.73549" style="fill: #1f77b4; stroke: #1f77b4"/>
     <use xlink:href="#m6fdcddd0b6" x="388.892418" y="77.403966" style="fill: #1f77b4; stroke: #1f77b4"/>
     <use xlink:href="#m6fdcddd0b6" x="392.326945" y="165.14049" style="fill: #1f77b4; stroke: #1f77b4"/>
     <use xlink:href="#m6fdcddd0b6" x="395.761472" y="133.298964" style="fill: #1f77b4; stroke: #1f77b4"/>
     <use xlink:href="#m6fdcddd0b6" x="399.195999" y="221.772749" style="fill: #1f77b4; stroke: #1f77b4"/>
     <use xlink:href="#m6fdcddd0b6" x="402.630526" y="151.014765" style="fill: #1f77b4; stroke: #1f77b4"/>
     <use xlink:href="#m6fdcddd0b6" x="406.065053" y="241.531091" style="fill: #1f77b4; stroke: #1f77b4"/>
     <use xlink:href="#m6fdcddd0b6" x="409.49958" y="141.919014" style="fill: #1f77b4; stroke: #1f77b4"/>
     <use xlink:href="#m6fdcddd0b6" x="412.934108" y="192.752426" style="fill: #1f77b4; stroke: #1f77b4"/>
     <use xlink:href="#m6fdcddd0b6" x="416.368635" y="156.081676" style="fill: #1f77b4; stroke: #1f77b4"/>
     <use xlink:href="#m6fdcddd0b6" x="419.803162" y="94.795749" style="fill: #1f77b4; stroke: #1f77b4"/>
     <use xlink:href="#m6fdcddd0b6" x="423.237689" y="189.102967" style="fill: #1f77b4; stroke: #1f77b4"/>
     <use xlink:href="#m6fdcddd0b6" x="426.672216" y="231.739916" style="fill: #1f77b4; stroke: #1f77b4"/>
    </g>
   </g>
   <g id="line2d_17">
    <path d="M 86.654034 170.886187 
L 106.054471 170.690586 
L 113.882717 170.416871 
L 118.307378 170.058785 
L 121.030247 169.643507 
L 123.072398 169.120344 
L 124.433832 168.583693 
L 125.795266 167.781396 
L 126.816342 166.888252 
L 127.497059 166.072282 
L 128.177776 164.992038 
L 128.858493 163.523248 
L 129.53921 161.462151 
L 130.219927 158.459741 
L 130.900644 153.889964 
L 131.581361 146.583052 
L 132.262078 134.337524 
L 132.942796 113.560269 
L 133.963871 68.571756 
L 134.30423 61.374182 
L 134.644588 65.011237 
L 135.325305 93.618407 
L 136.006022 121.559608 
L 136.68674 139.09594 
L 137.367457 149.389555 
L 138.048174 155.618637 
L 138.728891 159.579305 
L 139.409608 162.221139 
L 140.090325 164.058367 
L 140.771042 165.382034 
L 141.792118 166.762967 
L 142.813193 167.694539 
L 143.834269 168.351148 
L 145.195703 168.961886 
L 146.897496 169.468765 
L 149.280006 169.912292 
L 152.683591 170.274071 
L 157.788969 170.552073 
L 166.297933 170.755187 
L 182.975501 170.890111 
L 227.222111 170.964613 
L 426.672216 170.989924 
L 426.672216 170.989924 
" clip-path="url(#pb7e1692b6c)" style="fill: none; stroke: #d62728; stroke-width: 1.5; stroke-linecap: square"/>
   </g>
   <g id="patch_3">
    <path d="M 69.653125 303.928 
L 69.653125 49.824 
" style="fill: none; stroke: #000000; stroke-width: 0.8; stroke-linejoin: miter; stroke-linecap: square"/>
   </g>
   <g id="patch_4">
    <path d="M 443.673125 303.928 
L 443.673125 49.824 
" style="fill: none; stroke: #000000; stroke-width: 0.8; stroke-linejoin: miter; stroke-linecap: square"/>
   </g>
   <g id="patch_5">
    <path d="M 69.653125 303.928 
L 443.673125 303.928 
" style="fill: none; stroke: #000000; stroke-width: 0.8; stroke-linejoin: miter; stroke-linecap: square"/>
   </g>
   <g id="patch_6">
    <path d="M 69.653125 49.824 
L 443.673125 49.824 
" style="fill: none; stroke: #000000; stroke-width: 0.8; stroke-linejoin: miter; stroke-linecap: square"/>
   </g>
   <g id="text_19">
    <g id="patch_7">
     <path d="M 462.374125 109.821075 
L 643.174125 109.821075 
Q 647.174125 109.821075 647.174125 105.821075 
L 647.174125 62.5292 
Q 647.174125 58.5292 643.174125 58.5292 
L 462.374125 58.5292 
Q 458.374125 58.5292 458.374125 62.5292 
L 458.374125 105.821075 
Q 458.374125 109.821075 462.374125 109.821075 
z
" style="fill: #ffffff; opacity: 0.5; stroke: #000000; stroke-linejoin: miter"/>
    </g>
    <!-- Summary -->
    <g transform="translate(462.374125 70.127638) scale(0.1 -0.1)">
     <defs>
      <path id="DejaVuSans-53" d="M 3425 4513 
L 3425 3897 
Q 3066 4069 2747 4153 
Q 2428 4238 2131 4238 
Q 1616 4238 1336 4038 
Q 1056 3838 1056 3469 
Q 1056 3159 1242 3001 
Q 1428 2844 1947 2747 
L 2328 2669 
Q 3034 2534 3370 2195 
Q 3706 1856 3706 1288 
Q 3706 609 3251 259 
Q 2797 -91 1919 -91 
Q 1588 -91 1214 -16 
Q 841 59 441 206 
L 441 856 
Q 825 641 1194 531 
Q 1563 422 1919 422 
Q 2459 422 2753 634 
Q 3047 847 3047 1241 
Q 3047 1584 2836 1778 
Q 2625 1972 2144 2069 
L 1759 2144 
Q 1053 2284 737 2584 
Q 422 2884 422 3419 
Q 422 4038 858 4394 
Q 1294 4750 2059 4750 
Q 2388 4750 2728 4690 
Q 3069 4631 3425 4513 
z
" transform="scale(0.015625)"/>
      <path id="DejaVuSans-6d" d="M 3328 2828 
Q 3544 3216 3844 3400 
Q 4144 3584 4550 3584 
Q 5097 3584 5394 3201 
Q 5691 2819 5691 2113 
L 5691 0 
L 5113 0 
L 5113 2094 
Q 5113 2597 4934 2840 
Q 4756 3084 4391 3084 
Q 3944 3084 3684 2787 
Q 3425 2491 3425 1978 
L 3425 0 
L 2847 0 
L 2847 2094 
Q 2847 2600 2669 2842 
Q 2491 3084 2119 3084 
Q 1678 3084 1418 2786 
Q 1159 2488 1159 1978 
L 1159 0 
L 581 0 
L 581 3500 
L 1159 3500 
L 1159 2956 
Q 1356 3278 1631 3431 
Q 1906 3584 2284 3584 
Q 2666 3584 2933 3390 
Q 3200 3197 3328 2828 
z
" transform="scale(0.015625)"/>
     </defs>
     <use xlink:href="#DejaVuSans-53"/>
     <use xlink:href="#DejaVuSans-75" x="63.476562"/>
     <use xlink:href="#DejaVuSans-6d" x="126.855469"/>
     <use xlink:href="#DejaVuSans-6d" x="224.267578"/>
     <use xlink:href="#DejaVuSans-61" x="321.679688"/>
     <use xlink:href="#DejaVuSans-72" x="382.958984"/>
     <use xlink:href="#DejaVuSans-79" x="424.072266"/>
    </g>
    <!-- Frequency 0-1: 3.9730$\pm$0.0037 GHz -->
    <g transform="translate(462.374125 81.32545) scale(0.1 -0.1)">
     <defs>
      <path id="DejaVuSans-2d" d="M 313 2009 
L 1997 2009 
L 1997 1497 
L 313 1497 
L 313 2009 
z
" transform="scale(0.015625)"/>
      <path id="DejaVuSans-3a" d="M 750 794 
L 1409 794 
L 1409 0 
L 750 0 
L 750 794 
z
M 750 3309 
L 1409 3309 
L 1409 2516 
L 750 2516 
L 750 3309 
z
" transform="scale(0.015625)"/>
      <path id="DejaVuSans-b1" d="M 2944 4013 
L 2944 2803 
L 4684 2803 
L 4684 2272 
L 2944 2272 
L 2944 1063 
L 2419 1063 
L 2419 2272 
L 678 2272 
L 678 2803 
L 2419 2803 
L 2419 4013 
L 2944 4013 
z
M 678 531 
L 4684 531 
L 4684 0 
L 678 0 
L 678 531 
z
" transform="scale(0.015625)"/>
      <path id="DejaVuSans-47" d="M 3809 666 
L 3809 1919 
L 2778 1919 
L 2778 2438 
L 4434 2438 
L 4434 434 
Q 4069 175 3628 42 
Q 3188 -91 2688 -91 
Q 1594 -91 976 548 
Q 359 1188 359 2328 
Q 359 3472 976 4111 
Q 1594 4750 2688 4750 
Q 3144 4750 3555 4637 
Q 3966 4525 4313 4306 
L 4313 3634 
Q 3963 3931 3569 4081 
Q 3175 4231 2741 4231 
Q 1884 4231 1454 3753 
Q 1025 3275 1025 2328 
Q 1025 1384 1454 906 
Q 1884 428 2741 428 
Q 3075 428 3337 486 
Q 3600 544 3809 666 
z
" transform="scale(0.015625)"/>
     </defs>
     <use xlink:href="#DejaVuSans-46" transform="translate(0 0.78125)"/>
     <use xlink:href="#DejaVuSans-72" transform="translate(57.519531 0.78125)"/>
     <use xlink:href="#DejaVuSans-65" transform="translate(98.632812 0.78125)"/>
     <use xlink:href="#DejaVuSans-71" transform="translate(160.15625 0.78125)"/>
     <use xlink:href="#DejaVuSans-75" transform="translate(223.632812 0.78125)"/>
     <use xlink:href="#DejaVuSans-65" transform="translate(287.011719 0.78125)"/>
     <use xlink:href="#DejaVuSans-6e" transform="translate(348.535156 0.78125)"/>
     <use xlink:href="#DejaVuSans-63" transform="translate(411.914062 0.78125)"/>
     <use xlink:href="#DejaVuSans-79" transform="translate(466.894531 0.78125)"/>
     <use xlink:href="#DejaVuSans-20" transform="translate(526.074219 0.78125)"/>
     <use xlink:href="#DejaVuSans-30" transform="translate(557.861328 0.78125)"/>
     <use xlink:href="#DejaVuSans-2d" transform="translate(621.484375 0.78125)"/>
     <use xlink:href="#DejaVuSans-31" transform="translate(657.568359 0.78125)"/>
     <use xlink:href="#DejaVuSans-3a" transform="translate(721.191406 0.78125)"/>
     <use xlink:href="#DejaVuSans-20" transform="translate(754.882812 0.78125)"/>
     <use xlink:href="#DejaVuSans-33" transform="translate(786.669922 0.78125)"/>
     <use xlink:href="#DejaVuSans-2e" transform="translate(850.292969 0.78125)"/>
     <use xlink:href="#DejaVuSans-39" transform="translate(882.080078 0.78125)"/>
     <use xlink:href="#DejaVuSans-37" transform="translate(945.703125 0.78125)"/>
     <use xlink:href="#DejaVuSans-33" transform="translate(1009.326172 0.78125)"/>
     <use xlink:href="#DejaVuSans-30" transform="translate(1072.949219 0.78125)"/>
     <use xlink:href="#DejaVuSans-b1" transform="translate(1136.572266 0.78125)"/>
     <use xlink:href="#DejaVuSans-30" transform="translate(1220.361328 0.78125)"/>
     <use xlink:href="#DejaVuSans-2e" transform="translate(1283.984375 0.78125)"/>
     <use xlink:href="#DejaVuSans-30" transform="translate(1315.771484 0.78125)"/>
     <use xlink:href="#DejaVuSans-30" transform="translate(1379.394531 0.78125)"/>
     <use xlink:href="#DejaVuSans-33" transform="translate(1443.017578 0.78125)"/>
     <use xlink:href="#DejaVuSans-37" transform="translate(1506.640625 0.78125)"/>
     <use xlink:href="#DejaVuSans-20" transform="translate(1570.263672 0.78125)"/>
     <use xlink:href="#DejaVuSans-47" transform="translate(1602.050781 0.78125)"/>
     <use xlink:href="#DejaVuSans-48" transform="translate(1679.541016 0.78125)"/>
     <use xlink:href="#DejaVuSans-7a" transform="translate(1754.736328 0.78125)"/>
    </g>
    <!-- Peak width: 3.1$\pm$4.3 MHz -->
    <g transform="translate(462.374125 92.543575) scale(0.1 -0.1)">
     <defs>
      <path id="DejaVuSans-50" d="M 1259 4147 
L 1259 2394 
L 2053 2394 
Q 2494 2394 2734 2622 
Q 2975 2850 2975 3272 
Q 2975 3691 2734 3919 
Q 2494 4147 2053 4147 
L 1259 4147 
z
M 628 4666 
L 2053 4666 
Q 2838 4666 3239 4311 
Q 3641 3956 3641 3272 
Q 3641 2581 3239 2228 
Q 2838 1875 2053 1875 
L 1259 1875 
L 1259 0 
L 628 0 
L 628 4666 
z
" transform="scale(0.015625)"/>
      <path id="DejaVuSans-6b" d="M 581 4863 
L 1159 4863 
L 1159 1991 
L 2875 3500 
L 3609 3500 
L 1753 1863 
L 3688 0 
L 2938 0 
L 1159 1709 
L 1159 0 
L 581 0 
L 581 4863 
z
" transform="scale(0.015625)"/>
      <path id="DejaVuSans-77" d="M 269 3500 
L 844 3500 
L 1563 769 
L 2278 3500 
L 2956 3500 
L 3675 769 
L 4391 3500 
L 4966 3500 
L 4050 0 
L 3372 0 
L 2619 2869 
L 1863 0 
L 1184 0 
L 269 3500 
z
" transform="scale(0.015625)"/>
      <path id="DejaVuSans-68" d="M 3513 2113 
L 3513 0 
L 2938 0 
L 2938 2094 
Q 2938 2591 2744 2837 
Q 2550 3084 2163 3084 
Q 1697 3084 1428 2787 
Q 1159 2491 1159 1978 
L 1159 0 
L 581 0 
L 581 4863 
L 1159 4863 
L 1159 2956 
Q 1366 3272 1645 3428 
Q 1925 3584 2291 3584 
Q 2894 3584 3203 3211 
Q 3513 2838 3513 2113 
z
" transform="scale(0.015625)"/>
     </defs>
     <use xlink:href="#DejaVuSans-50" transform="translate(0 0.015625)"/>
     <use xlink:href="#DejaVuSans-65" transform="translate(60.302734 0.015625)"/>
     <use xlink:href="#DejaVuSans-61" transform="translate(121.826172 0.015625)"/>
     <use xlink:href="#DejaVuSans-6b" transform="translate(183.105469 0.015625)"/>
     <use xlink:href="#DejaVuSans-20" transform="translate(241.015625 0.015625)"/>
     <use xlink:href="#DejaVuSans-77" transform="translate(272.802734 0.015625)"/>
     <use xlink:href="#DejaVuSans-69" transform="translate(354.589844 0.015625)"/>
     <use xlink:href="#DejaVuSans-64" transform="translate(382.373047 0.015625)"/>
     <use xlink:href="#DejaVuSans-74" transform="translate(445.849609 0.015625)"/>
     <use xlink:href="#DejaVuSans-68" transform="translate(485.058594 0.015625)"/>
     <use xlink:href="#DejaVuSans-3a" transform="translate(548.4375 0.015625)"/>
     <use xlink:href="#DejaVuSans-20" transform="translate(582.128906 0.015625)"/>
     <use xlink:href="#DejaVuSans-33" transform="translate(613.916016 0.015625)"/>
     <use xlink:href="#DejaVuSans-2e" transform="translate(677.539062 0.015625)"/>
     <use xlink:href="#DejaVuSans-31" transform="translate(709.326172 0.015625)"/>
     <use xlink:href="#DejaVuSans-b1" transform="translate(772.949219 0.015625)"/>
     <use xlink:href="#DejaVuSans-34" transform="translate(856.738281 0.015625)"/>
     <use xlink:href="#DejaVuSans-2e" transform="translate(920.361328 0.015625)"/>
     <use xlink:href="#DejaVuSans-33" transform="translate(952.148438 0.015625)"/>
     <use xlink:href="#DejaVuSans-20" transform="translate(1015.771484 0.015625)"/>
     <use xlink:href="#DejaVuSans-4d" transform="translate(1047.558594 0.015625)"/>
     <use xlink:href="#DejaVuSans-48" transform="translate(1133.837891 0.015625)"/>
     <use xlink:href="#DejaVuSans-7a" transform="translate(1209.033203 0.015625)"/>
    </g>
    <!--  -->
    <g transform="translate(462.374125 103.741388) scale(0.1 -0.1)"/>
   </g>
  </g>
  <g id="text_20">
   <!-- S21 Two-tone -->
   <g transform="translate(183.674375 16.318125) scale(0.12 -0.12)">
    <defs>
     <path id="DejaVuSans-54" d="M -19 4666 
L 3928 4666 
L 3928 4134 
L 2272 4134 
L 2272 0 
L 1638 0 
L 1638 4134 
L -19 4134 
L -19 4666 
z
" transform="scale(0.015625)"/>
     <path id="DejaVuSans-6f" d="M 1959 3097 
Q 1497 3097 1228 2736 
Q 959 2375 959 1747 
Q 959 1119 1226 758 
Q 1494 397 1959 397 
Q 2419 397 2687 759 
Q 2956 1122 2956 1747 
Q 2956 2369 2687 2733 
Q 2419 3097 1959 3097 
z
M 1959 3584 
Q 2709 3584 3137 3096 
Q 3566 2609 3566 1747 
Q 3566 888 3137 398 
Q 2709 -91 1959 -91 
Q 1206 -91 779 398 
Q 353 888 353 1747 
Q 353 2609 779 3096 
Q 1206 3584 1959 3584 
z
" transform="scale(0.015625)"/>
    </defs>
    <use xlink:href="#DejaVuSans-53"/>
    <use xlink:href="#DejaVuSans-32" x="63.476562"/>
    <use xlink:href="#DejaVuSans-31" x="127.099609"/>
    <use xlink:href="#DejaVuSans-20" x="190.722656"/>
    <use xlink:href="#DejaVuSans-54" x="222.509766"/>
    <use xlink:href="#DejaVuSans-77" x="267.09375"/>
    <use xlink:href="#DejaVuSans-6f" x="348.880859"/>
    <use xlink:href="#DejaVuSans-2d" x="411.9375"/>
    <use xlink:href="#DejaVuSans-74" x="448.021484"/>
    <use xlink:href="#DejaVuSans-6f" x="487.230469"/>
    <use xlink:href="#DejaVuSans-6e" x="548.412109"/>
    <use xlink:href="#DejaVuSans-65" x="611.791016"/>
   </g>
   <!-- tuid: 20240104-151305-153-cb0ec0 -->
   <g transform="translate(115.38875 29.7555) scale(0.12 -0.12)">
    <defs>
     <path id="DejaVuSans-62" d="M 3116 1747 
Q 3116 2381 2855 2742 
Q 2594 3103 2138 3103 
Q 1681 3103 1420 2742 
Q 1159 2381 1159 1747 
Q 1159 1113 1420 752 
Q 1681 391 2138 391 
Q 2594 391 2855 752 
Q 3116 1113 3116 1747 
z
M 1159 2969 
Q 1341 3281 1617 3432 
Q 1894 3584 2278 3584 
Q 2916 3584 3314 3078 
Q 3713 2572 3713 1747 
Q 3713 922 3314 415 
Q 2916 -91 2278 -91 
Q 1894 -91 1617 61 
Q 1341 213 1159 525 
L 1159 0 
L 581 0 
L 581 4863 
L 1159 4863 
L 1159 2969 
z
" transform="scale(0.015625)"/>
    </defs>
    <use xlink:href="#DejaVuSans-74"/>
    <use xlink:href="#DejaVuSans-75" x="39.208984"/>
    <use xlink:href="#DejaVuSans-69" x="102.587891"/>
    <use xlink:href="#DejaVuSans-64" x="130.371094"/>
    <use xlink:href="#DejaVuSans-3a" x="193.847656"/>
    <use xlink:href="#DejaVuSans-20" x="227.539062"/>
    <use xlink:href="#DejaVuSans-32" x="259.326172"/>
    <use xlink:href="#DejaVuSans-30" x="322.949219"/>
    <use xlink:href="#DejaVuSans-32" x="386.572266"/>
    <use xlink:href="#DejaVuSans-34" x="450.195312"/>
    <use xlink:href="#DejaVuSans-30" x="513.818359"/>
    <use xlink:href="#DejaVuSans-31" x="577.441406"/>
    <use xlink:href="#DejaVuSans-30" x="641.064453"/>
    <use xlink:href="#DejaVuSans-34" x="704.6875"/>
    <use xlink:href="#DejaVuSans-2d" x="768.310547"/>
    <use xlink:href="#DejaVuSans-31" x="804.394531"/>
    <use xlink:href="#DejaVuSans-35" x="868.017578"/>
    <use xlink:href="#DejaVuSans-31" x="931.640625"/>
    <use xlink:href="#DejaVuSans-33" x="995.263672"/>
    <use xlink:href="#DejaVuSans-30" x="1058.886719"/>
    <use xlink:href="#DejaVuSans-35" x="1122.509766"/>
    <use xlink:href="#DejaVuSans-2d" x="1186.132812"/>
    <use xlink:href="#DejaVuSans-31" x="1222.216797"/>
    <use xlink:href="#DejaVuSans-35" x="1285.839844"/>
    <use xlink:href="#DejaVuSans-33" x="1349.462891"/>
    <use xlink:href="#DejaVuSans-2d" x="1413.085938"/>
    <use xlink:href="#DejaVuSans-63" x="1449.169922"/>
    <use xlink:href="#DejaVuSans-62" x="1504.150391"/>
    <use xlink:href="#DejaVuSans-30" x="1567.626953"/>
    <use xlink:href="#DejaVuSans-65" x="1631.25"/>
    <use xlink:href="#DejaVuSans-63" x="1692.773438"/>
    <use xlink:href="#DejaVuSans-30" x="1747.753906"/>
   </g>
  </g>
 </g>
 <defs>
  <clipPath id="pb7e1692b6c">
   <rect x="69.653125" y="49.824" width="374.02" height="254.104"/>
  </clipPath>
 </defs>
</svg>
