<?xml version="1.0" encoding="utf-8" standalone="no"?>
<!DOCTYPE svg PUBLIC "-//W3C//DTD SVG 1.1//EN"
  "http://www.w3.org/Graphics/SVG/1.1/DTD/svg11.dtd">
<svg xmlns:xlink="http://www.w3.org/1999/xlink" width="568.965063pt" height="345.42825pt" viewBox="0 0 568.965063 345.42825" xmlns="http://www.w3.org/2000/svg" version="1.1">
 <metadata>
  <rdf:RDF xmlns:dc="http://purl.org/dc/elements/1.1/" xmlns:cc="http://creativecommons.org/ns#" xmlns:rdf="http://www.w3.org/1999/02/22-rdf-syntax-ns#">
   <cc:Work>
    <dc:type rdf:resource="http://purl.org/dc/dcmitype/StillImage"/>
    <dc:date>2024-01-03T19:01:05.833752</dc:date>
    <dc:format>image/svg+xml</dc:format>
    <dc:creator>
     <cc:Agent>
      <dc:title>Matplotlib v3.8.1, https://matplotlib.org/</dc:title>
     </cc:Agent>
    </dc:creator>
   </cc:Work>
  </rdf:RDF>
 </metadata>
 <defs>
  <style type="text/css">*{stroke-linejoin: round; stroke-linecap: butt}</style>
 </defs>
 <g id="figure_1">
  <g id="patch_1">
   <path d="M 0 345.42825 
L 568.965063 345.42825 
L 568.965063 -0 
L 0 -0 
L 0 345.42825 
z
" style="fill: none; opacity: 0"/>
  </g>
  <g id="axes_1">
   <g id="patch_2">
    <path d="M 47.389063 162.72 
L 404.509063 162.72 
L 404.509063 41.76 
L 47.389063 41.76 
z
" style="fill: #ffffff"/>
   </g>
   <g id="matplotlib.axis_1">
    <g id="xtick_1">
     <g id="line2d_1">
      <defs>
       <path id="mbf468602d4" d="M 0 0 
L 0 3.5 
" style="stroke: #000000; stroke-width: 0.8"/>
      </defs>
      <g>
       <use xlink:href="#mbf468602d4" x="79.854517" y="162.72" style="stroke: #000000; stroke-width: 0.8"/>
      </g>
     </g>
    </g>
    <g id="xtick_2">
     <g id="line2d_2">
      <g>
       <use xlink:href="#mbf468602d4" x="144.785426" y="162.72" style="stroke: #000000; stroke-width: 0.8"/>
      </g>
     </g>
    </g>
    <g id="xtick_3">
     <g id="line2d_3">
      <g>
       <use xlink:href="#mbf468602d4" x="209.716335" y="162.72" style="stroke: #000000; stroke-width: 0.8"/>
      </g>
     </g>
    </g>
    <g id="xtick_4">
     <g id="line2d_4">
      <g>
       <use xlink:href="#mbf468602d4" x="274.647244" y="162.72" style="stroke: #000000; stroke-width: 0.8"/>
      </g>
     </g>
    </g>
    <g id="xtick_5">
     <g id="line2d_5">
      <g>
       <use xlink:href="#mbf468602d4" x="339.578153" y="162.72" style="stroke: #000000; stroke-width: 0.8"/>
      </g>
     </g>
    </g>
    <g id="xtick_6">
     <g id="line2d_6">
      <g>
       <use xlink:href="#mbf468602d4" x="404.509063" y="162.72" style="stroke: #000000; stroke-width: 0.8"/>
      </g>
     </g>
    </g>
   </g>
   <g id="matplotlib.axis_2">
    <g id="ytick_1">
     <g id="line2d_7">
      <defs>
       <path id="m3a76ebc89c" d="M 0 0 
L -3.5 0 
" style="stroke: #000000; stroke-width: 0.8"/>
      </defs>
      <g>
       <use xlink:href="#m3a76ebc89c" x="47.389063" y="153.907176" style="stroke: #000000; stroke-width: 0.8"/>
      </g>
     </g>
     <g id="text_1">
      <!-- -0.6 -->
      <g transform="translate(20.878125 157.706395) scale(0.1 -0.1)">
       <defs>
        <path id="DejaVuSans-2d" d="M 313 2009 
L 1997 2009 
L 1997 1497 
L 313 1497 
L 313 2009 
z
" transform="scale(0.015625)"/>
        <path id="DejaVuSans-30" d="M 2034 4250 
Q 1547 4250 1301 3770 
Q 1056 3291 1056 2328 
Q 1056 1369 1301 889 
Q 1547 409 2034 409 
Q 2525 409 2770 889 
Q 3016 1369 3016 2328 
Q 3016 3291 2770 3770 
Q 2525 4250 2034 4250 
z
M 2034 4750 
Q 2819 4750 3233 4129 
Q 3647 3509 3647 2328 
Q 3647 1150 3233 529 
Q 2819 -91 2034 -91 
Q 1250 -91 836 529 
Q 422 1150 422 2328 
Q 422 3509 836 4129 
Q 1250 4750 2034 4750 
z
" transform="scale(0.015625)"/>
        <path id="DejaVuSans-2e" d="M 684 794 
L 1344 794 
L 1344 0 
L 684 0 
L 684 794 
z
" transform="scale(0.015625)"/>
        <path id="DejaVuSans-36" d="M 2113 2584 
Q 1688 2584 1439 2293 
Q 1191 2003 1191 1497 
Q 1191 994 1439 701 
Q 1688 409 2113 409 
Q 2538 409 2786 701 
Q 3034 994 3034 1497 
Q 3034 2003 2786 2293 
Q 2538 2584 2113 2584 
z
M 3366 4563 
L 3366 3988 
Q 3128 4100 2886 4159 
Q 2644 4219 2406 4219 
Q 1781 4219 1451 3797 
Q 1122 3375 1075 2522 
Q 1259 2794 1537 2939 
Q 1816 3084 2150 3084 
Q 2853 3084 3261 2657 
Q 3669 2231 3669 1497 
Q 3669 778 3244 343 
Q 2819 -91 2113 -91 
Q 1303 -91 875 529 
Q 447 1150 447 2328 
Q 447 3434 972 4092 
Q 1497 4750 2381 4750 
Q 2619 4750 2861 4703 
Q 3103 4656 3366 4563 
z
" transform="scale(0.015625)"/>
       </defs>
       <use xlink:href="#DejaVuSans-2d"/>
       <use xlink:href="#DejaVuSans-30" x="36.083984"/>
       <use xlink:href="#DejaVuSans-2e" x="99.707031"/>
       <use xlink:href="#DejaVuSans-36" x="131.494141"/>
      </g>
     </g>
    </g>
    <g id="ytick_2">
     <g id="line2d_8">
      <g>
       <use xlink:href="#m3a76ebc89c" x="47.389063" y="117.293004" style="stroke: #000000; stroke-width: 0.8"/>
      </g>
     </g>
     <g id="text_2">
      <!-- -0.4 -->
      <g transform="translate(20.878125 121.092223) scale(0.1 -0.1)">
       <defs>
        <path id="DejaVuSans-34" d="M 2419 4116 
L 825 1625 
L 2419 1625 
L 2419 4116 
z
M 2253 4666 
L 3047 4666 
L 3047 1625 
L 3713 1625 
L 3713 1100 
L 3047 1100 
L 3047 0 
L 2419 0 
L 2419 1100 
L 313 1100 
L 313 1709 
L 2253 4666 
z
" transform="scale(0.015625)"/>
       </defs>
       <use xlink:href="#DejaVuSans-2d"/>
       <use xlink:href="#DejaVuSans-30" x="36.083984"/>
       <use xlink:href="#DejaVuSans-2e" x="99.707031"/>
       <use xlink:href="#DejaVuSans-34" x="131.494141"/>
      </g>
     </g>
    </g>
    <g id="ytick_3">
     <g id="line2d_9">
      <g>
       <use xlink:href="#m3a76ebc89c" x="47.389063" y="80.678832" style="stroke: #000000; stroke-width: 0.8"/>
      </g>
     </g>
     <g id="text_3">
      <!-- -0.2 -->
      <g transform="translate(20.878125 84.478051) scale(0.1 -0.1)">
       <defs>
        <path id="DejaVuSans-32" d="M 1228 531 
L 3431 531 
L 3431 0 
L 469 0 
L 469 531 
Q 828 903 1448 1529 
Q 2069 2156 2228 2338 
Q 2531 2678 2651 2914 
Q 2772 3150 2772 3378 
Q 2772 3750 2511 3984 
Q 2250 4219 1831 4219 
Q 1534 4219 1204 4116 
Q 875 4013 500 3803 
L 500 4441 
Q 881 4594 1212 4672 
Q 1544 4750 1819 4750 
Q 2544 4750 2975 4387 
Q 3406 4025 3406 3419 
Q 3406 3131 3298 2873 
Q 3191 2616 2906 2266 
Q 2828 2175 2409 1742 
Q 1991 1309 1228 531 
z
" transform="scale(0.015625)"/>
       </defs>
       <use xlink:href="#DejaVuSans-2d"/>
       <use xlink:href="#DejaVuSans-30" x="36.083984"/>
       <use xlink:href="#DejaVuSans-2e" x="99.707031"/>
       <use xlink:href="#DejaVuSans-32" x="131.494141"/>
      </g>
     </g>
    </g>
    <g id="ytick_4">
     <g id="line2d_10">
      <g>
       <use xlink:href="#m3a76ebc89c" x="47.389063" y="44.064661" style="stroke: #000000; stroke-width: 0.8"/>
      </g>
     </g>
     <g id="text_4">
      <!-- 0 -->
      <g transform="translate(34.026563 47.86388) scale(0.1 -0.1)">
       <use xlink:href="#DejaVuSans-30"/>
      </g>
     </g>
    </g>
    <g id="text_5">
     <!-- Re$(S_{21})$ [V] -->
     <g transform="translate(14.798438 129.39) rotate(-90) scale(0.1 -0.1)">
      <defs>
       <path id="DejaVuSans-52" d="M 2841 2188 
Q 3044 2119 3236 1894 
Q 3428 1669 3622 1275 
L 4263 0 
L 3584 0 
L 2988 1197 
Q 2756 1666 2539 1819 
Q 2322 1972 1947 1972 
L 1259 1972 
L 1259 0 
L 628 0 
L 628 4666 
L 2053 4666 
Q 2853 4666 3247 4331 
Q 3641 3997 3641 3322 
Q 3641 2881 3436 2590 
Q 3231 2300 2841 2188 
z
M 1259 4147 
L 1259 2491 
L 2053 2491 
Q 2509 2491 2742 2702 
Q 2975 2913 2975 3322 
Q 2975 3731 2742 3939 
Q 2509 4147 2053 4147 
L 1259 4147 
z
" transform="scale(0.015625)"/>
       <path id="DejaVuSans-65" d="M 3597 1894 
L 3597 1613 
L 953 1613 
Q 991 1019 1311 708 
Q 1631 397 2203 397 
Q 2534 397 2845 478 
Q 3156 559 3463 722 
L 3463 178 
Q 3153 47 2828 -22 
Q 2503 -91 2169 -91 
Q 1331 -91 842 396 
Q 353 884 353 1716 
Q 353 2575 817 3079 
Q 1281 3584 2069 3584 
Q 2775 3584 3186 3129 
Q 3597 2675 3597 1894 
z
M 3022 2063 
Q 3016 2534 2758 2815 
Q 2500 3097 2075 3097 
Q 1594 3097 1305 2825 
Q 1016 2553 972 2059 
L 3022 2063 
z
" transform="scale(0.015625)"/>
       <path id="DejaVuSans-28" d="M 1984 4856 
Q 1566 4138 1362 3434 
Q 1159 2731 1159 2009 
Q 1159 1288 1364 580 
Q 1569 -128 1984 -844 
L 1484 -844 
Q 1016 -109 783 600 
Q 550 1309 550 2009 
Q 550 2706 781 3412 
Q 1013 4119 1484 4856 
L 1984 4856 
z
" transform="scale(0.015625)"/>
       <path id="DejaVuSans-Oblique-53" d="M 3859 4513 
L 3738 3897 
Q 3422 4066 3111 4152 
Q 2800 4238 2509 4238 
Q 1944 4238 1609 3991 
Q 1275 3744 1275 3334 
Q 1275 3109 1398 2989 
Q 1522 2869 2034 2731 
L 2413 2638 
Q 3053 2472 3303 2217 
Q 3553 1963 3553 1503 
Q 3553 797 2998 353 
Q 2444 -91 1538 -91 
Q 1166 -91 791 -17 
Q 416 56 38 206 
L 166 856 
Q 513 641 861 531 
Q 1209 422 1556 422 
Q 2147 422 2503 684 
Q 2859 947 2859 1369 
Q 2859 1650 2717 1795 
Q 2575 1941 2106 2059 
L 1728 2156 
Q 1081 2325 845 2545 
Q 609 2766 609 3163 
Q 609 3859 1145 4304 
Q 1681 4750 2541 4750 
Q 2875 4750 3203 4690 
Q 3531 4631 3859 4513 
z
" transform="scale(0.015625)"/>
       <path id="DejaVuSans-31" d="M 794 531 
L 1825 531 
L 1825 4091 
L 703 3866 
L 703 4441 
L 1819 4666 
L 2450 4666 
L 2450 531 
L 3481 531 
L 3481 0 
L 794 0 
L 794 531 
z
" transform="scale(0.015625)"/>
       <path id="DejaVuSans-29" d="M 513 4856 
L 1013 4856 
Q 1481 4119 1714 3412 
Q 1947 2706 1947 2009 
Q 1947 1309 1714 600 
Q 1481 -109 1013 -844 
L 513 -844 
Q 928 -128 1133 580 
Q 1338 1288 1338 2009 
Q 1338 2731 1133 3434 
Q 928 4138 513 4856 
z
" transform="scale(0.015625)"/>
       <path id="DejaVuSans-20" transform="scale(0.015625)"/>
       <path id="DejaVuSans-5b" d="M 550 4863 
L 1875 4863 
L 1875 4416 
L 1125 4416 
L 1125 -397 
L 1875 -397 
L 1875 -844 
L 550 -844 
L 550 4863 
z
" transform="scale(0.015625)"/>
       <path id="DejaVuSans-56" d="M 1831 0 
L 50 4666 
L 709 4666 
L 2188 738 
L 3669 4666 
L 4325 4666 
L 2547 0 
L 1831 0 
z
" transform="scale(0.015625)"/>
       <path id="DejaVuSans-5d" d="M 1947 4863 
L 1947 -844 
L 622 -844 
L 622 -397 
L 1369 -397 
L 1369 4416 
L 622 4416 
L 622 4863 
L 1947 4863 
z
" transform="scale(0.015625)"/>
      </defs>
      <use xlink:href="#DejaVuSans-52" transform="translate(0 0.015625)"/>
      <use xlink:href="#DejaVuSans-65" transform="translate(69.482422 0.015625)"/>
      <use xlink:href="#DejaVuSans-28" transform="translate(131.005859 0.015625)"/>
      <use xlink:href="#DejaVuSans-Oblique-53" transform="translate(170.019531 0.015625)"/>
      <use xlink:href="#DejaVuSans-32" transform="translate(233.496094 -16.390625) scale(0.7)"/>
      <use xlink:href="#DejaVuSans-31" transform="translate(278.032227 -16.390625) scale(0.7)"/>
      <use xlink:href="#DejaVuSans-29" transform="translate(325.302734 0.015625)"/>
      <use xlink:href="#DejaVuSans-20" transform="translate(364.316406 0.015625)"/>
      <use xlink:href="#DejaVuSans-5b" transform="translate(396.103516 0.015625)"/>
      <use xlink:href="#DejaVuSans-56" transform="translate(435.117188 0.015625)"/>
      <use xlink:href="#DejaVuSans-5d" transform="translate(503.525391 0.015625)"/>
     </g>
    </g>
   </g>
   <g id="line2d_11">
    <path d="M 63.62179 144.176716 
L 76.673229 146.801166 
L 78.304659 147.041167 
L 83.198948 148.067554 
L 101.144677 151.251336 
L 115.827546 153.137781 
L 119.090406 153.454485 
L 123.984695 153.692119 
L 128.878985 153.652354 
L 132.141845 153.476739 
L 135.404704 153.138188 
L 140.298994 152.053965 
L 141.930424 151.599916 
L 145.193284 150.356425 
L 148.456143 148.681285 
L 150.087573 147.620725 
L 151.719003 146.417232 
L 153.350433 145.05069 
L 154.981863 143.506665 
L 156.613293 141.763899 
L 158.244723 139.807566 
L 159.876152 137.569499 
L 161.507582 135.095965 
L 163.139012 132.339043 
L 164.770442 129.235127 
L 166.401872 125.882471 
L 168.033302 122.192784 
L 171.296162 113.817878 
L 174.559021 104.160748 
L 182.716171 78.548127 
L 184.347601 73.980698 
L 185.979031 69.853216 
L 187.61046 66.294262 
L 189.24189 63.351643 
L 190.87332 61.137143 
L 192.50475 59.646338 
L 194.13618 58.898487 
L 195.76761 58.910978 
L 197.39904 59.579247 
L 199.03047 60.938113 
L 200.661899 62.715411 
L 202.293329 64.993847 
L 203.924759 67.593011 
L 207.187619 73.418808 
L 213.713338 85.602389 
L 216.976198 91.324416 
L 220.239058 96.549065 
L 223.501918 101.332239 
L 225.133348 103.52578 
L 231.659067 111.253947 
L 234.921927 114.63165 
L 239.816216 119.014236 
L 241.447646 120.382907 
L 247.973366 125.117023 
L 249.604796 126.214839 
L 257.761945 130.862699 
L 262.656235 133.302338 
L 267.550524 135.42436 
L 277.339104 139.094826 
L 292.021973 143.370323 
L 308.336271 146.945546 
L 323.01914 149.427337 
L 331.17629 150.476039 
L 334.439149 150.948716 
L 339.333439 151.450165 
L 342.596299 151.850566 
L 349.122018 152.460059 
L 357.279168 153.191171 
L 370.330607 154.135884 
L 373.593466 154.281289 
L 378.487756 154.599132 
L 381.750616 154.716179 
L 385.013475 154.897829 
L 388.276335 155.026421 
L 388.276335 155.026421 
" clip-path="url(#p131812ca11)" style="fill: none; stroke: #1f77b4; stroke-width: 1.5; stroke-linecap: square"/>
    <defs>
     <path id="m1bdc817a49" d="M 0 1.5 
C 0.397805 1.5 0.77937 1.341951 1.06066 1.06066 
C 1.341951 0.77937 1.5 0.397805 1.5 0 
C 1.5 -0.397805 1.341951 -0.77937 1.06066 -1.06066 
C 0.77937 -1.341951 0.397805 -1.5 0 -1.5 
C -0.397805 -1.5 -0.77937 -1.341951 -1.06066 -1.06066 
C -1.341951 -0.77937 -1.5 -0.397805 -1.5 0 
C -1.5 0.397805 -1.341951 0.77937 -1.06066 1.06066 
C -0.77937 1.341951 -0.397805 1.5 0 1.5 
z
" style="stroke: #1f77b4"/>
    </defs>
    <g clip-path="url(#p131812ca11)">
     <use xlink:href="#m1bdc817a49" x="63.62179" y="144.176716" style="fill: #1f77b4; stroke: #1f77b4"/>
     <use xlink:href="#m1bdc817a49" x="65.25322" y="144.510311" style="fill: #1f77b4; stroke: #1f77b4"/>
     <use xlink:href="#m1bdc817a49" x="66.88465" y="144.77207" style="fill: #1f77b4; stroke: #1f77b4"/>
     <use xlink:href="#m1bdc817a49" x="68.516079" y="145.108672" style="fill: #1f77b4; stroke: #1f77b4"/>
     <use xlink:href="#m1bdc817a49" x="70.147509" y="145.462569" style="fill: #1f77b4; stroke: #1f77b4"/>
     <use xlink:href="#m1bdc817a49" x="71.778939" y="145.77414" style="fill: #1f77b4; stroke: #1f77b4"/>
     <use xlink:href="#m1bdc817a49" x="73.410369" y="146.112045" style="fill: #1f77b4; stroke: #1f77b4"/>
     <use xlink:href="#m1bdc817a49" x="75.041799" y="146.471878" style="fill: #1f77b4; stroke: #1f77b4"/>
     <use xlink:href="#m1bdc817a49" x="76.673229" y="146.801166" style="fill: #1f77b4; stroke: #1f77b4"/>
     <use xlink:href="#m1bdc817a49" x="78.304659" y="147.041167" style="fill: #1f77b4; stroke: #1f77b4"/>
     <use xlink:href="#m1bdc817a49" x="79.936089" y="147.401593" style="fill: #1f77b4; stroke: #1f77b4"/>
     <use xlink:href="#m1bdc817a49" x="81.567518" y="147.685221" style="fill: #1f77b4; stroke: #1f77b4"/>
     <use xlink:href="#m1bdc817a49" x="83.198948" y="148.067554" style="fill: #1f77b4; stroke: #1f77b4"/>
     <use xlink:href="#m1bdc817a49" x="84.830378" y="148.360916" style="fill: #1f77b4; stroke: #1f77b4"/>
     <use xlink:href="#m1bdc817a49" x="86.461808" y="148.657041" style="fill: #1f77b4; stroke: #1f77b4"/>
     <use xlink:href="#m1bdc817a49" x="88.093238" y="148.952381" style="fill: #1f77b4; stroke: #1f77b4"/>
     <use xlink:href="#m1bdc817a49" x="89.724668" y="149.263491" style="fill: #1f77b4; stroke: #1f77b4"/>
     <use xlink:href="#m1bdc817a49" x="91.356098" y="149.544749" style="fill: #1f77b4; stroke: #1f77b4"/>
     <use xlink:href="#m1bdc817a49" x="92.987528" y="149.872754" style="fill: #1f77b4; stroke: #1f77b4"/>
     <use xlink:href="#m1bdc817a49" x="94.618957" y="150.140584" style="fill: #1f77b4; stroke: #1f77b4"/>
     <use xlink:href="#m1bdc817a49" x="96.250387" y="150.416549" style="fill: #1f77b4; stroke: #1f77b4"/>
     <use xlink:href="#m1bdc817a49" x="97.881817" y="150.712364" style="fill: #1f77b4; stroke: #1f77b4"/>
     <use xlink:href="#m1bdc817a49" x="99.513247" y="150.953736" style="fill: #1f77b4; stroke: #1f77b4"/>
     <use xlink:href="#m1bdc817a49" x="101.144677" y="151.251336" style="fill: #1f77b4; stroke: #1f77b4"/>
     <use xlink:href="#m1bdc817a49" x="102.776107" y="151.471956" style="fill: #1f77b4; stroke: #1f77b4"/>
     <use xlink:href="#m1bdc817a49" x="104.407537" y="151.713621" style="fill: #1f77b4; stroke: #1f77b4"/>
     <use xlink:href="#m1bdc817a49" x="106.038967" y="152.006265" style="fill: #1f77b4; stroke: #1f77b4"/>
     <use xlink:href="#m1bdc817a49" x="107.670396" y="152.220228" style="fill: #1f77b4; stroke: #1f77b4"/>
     <use xlink:href="#m1bdc817a49" x="109.301826" y="152.452969" style="fill: #1f77b4; stroke: #1f77b4"/>
     <use xlink:href="#m1bdc817a49" x="110.933256" y="152.620375" style="fill: #1f77b4; stroke: #1f77b4"/>
     <use xlink:href="#m1bdc817a49" x="112.564686" y="152.848627" style="fill: #1f77b4; stroke: #1f77b4"/>
     <use xlink:href="#m1bdc817a49" x="114.196116" y="152.998281" style="fill: #1f77b4; stroke: #1f77b4"/>
     <use xlink:href="#m1bdc817a49" x="115.827546" y="153.137781" style="fill: #1f77b4; stroke: #1f77b4"/>
     <use xlink:href="#m1bdc817a49" x="117.458976" y="153.327604" style="fill: #1f77b4; stroke: #1f77b4"/>
     <use xlink:href="#m1bdc817a49" x="119.090406" y="153.454485" style="fill: #1f77b4; stroke: #1f77b4"/>
     <use xlink:href="#m1bdc817a49" x="120.721835" y="153.569636" style="fill: #1f77b4; stroke: #1f77b4"/>
     <use xlink:href="#m1bdc817a49" x="122.353265" y="153.637999" style="fill: #1f77b4; stroke: #1f77b4"/>
     <use xlink:href="#m1bdc817a49" x="123.984695" y="153.692119" style="fill: #1f77b4; stroke: #1f77b4"/>
     <use xlink:href="#m1bdc817a49" x="125.616125" y="153.706696" style="fill: #1f77b4; stroke: #1f77b4"/>
     <use xlink:href="#m1bdc817a49" x="127.247555" y="153.732362" style="fill: #1f77b4; stroke: #1f77b4"/>
     <use xlink:href="#m1bdc817a49" x="128.878985" y="153.652354" style="fill: #1f77b4; stroke: #1f77b4"/>
     <use xlink:href="#m1bdc817a49" x="130.510415" y="153.593279" style="fill: #1f77b4; stroke: #1f77b4"/>
     <use xlink:href="#m1bdc817a49" x="132.141845" y="153.476739" style="fill: #1f77b4; stroke: #1f77b4"/>
     <use xlink:href="#m1bdc817a49" x="133.773274" y="153.344524" style="fill: #1f77b4; stroke: #1f77b4"/>
     <use xlink:href="#m1bdc817a49" x="135.404704" y="153.138188" style="fill: #1f77b4; stroke: #1f77b4"/>
     <use xlink:href="#m1bdc817a49" x="137.036134" y="152.812184" style="fill: #1f77b4; stroke: #1f77b4"/>
     <use xlink:href="#m1bdc817a49" x="138.667564" y="152.494683" style="fill: #1f77b4; stroke: #1f77b4"/>
     <use xlink:href="#m1bdc817a49" x="140.298994" y="152.053965" style="fill: #1f77b4; stroke: #1f77b4"/>
     <use xlink:href="#m1bdc817a49" x="141.930424" y="151.599916" style="fill: #1f77b4; stroke: #1f77b4"/>
     <use xlink:href="#m1bdc817a49" x="143.561854" y="151.020245" style="fill: #1f77b4; stroke: #1f77b4"/>
     <use xlink:href="#m1bdc817a49" x="145.193284" y="150.356425" style="fill: #1f77b4; stroke: #1f77b4"/>
     <use xlink:href="#m1bdc817a49" x="146.824713" y="149.570015" style="fill: #1f77b4; stroke: #1f77b4"/>
     <use xlink:href="#m1bdc817a49" x="148.456143" y="148.681285" style="fill: #1f77b4; stroke: #1f77b4"/>
     <use xlink:href="#m1bdc817a49" x="150.087573" y="147.620725" style="fill: #1f77b4; stroke: #1f77b4"/>
     <use xlink:href="#m1bdc817a49" x="151.719003" y="146.417232" style="fill: #1f77b4; stroke: #1f77b4"/>
     <use xlink:href="#m1bdc817a49" x="153.350433" y="145.05069" style="fill: #1f77b4; stroke: #1f77b4"/>
     <use xlink:href="#m1bdc817a49" x="154.981863" y="143.506665" style="fill: #1f77b4; stroke: #1f77b4"/>
     <use xlink:href="#m1bdc817a49" x="156.613293" y="141.763899" style="fill: #1f77b4; stroke: #1f77b4"/>
     <use xlink:href="#m1bdc817a49" x="158.244723" y="139.807566" style="fill: #1f77b4; stroke: #1f77b4"/>
     <use xlink:href="#m1bdc817a49" x="159.876152" y="137.569499" style="fill: #1f77b4; stroke: #1f77b4"/>
     <use xlink:href="#m1bdc817a49" x="161.507582" y="135.095965" style="fill: #1f77b4; stroke: #1f77b4"/>
     <use xlink:href="#m1bdc817a49" x="163.139012" y="132.339043" style="fill: #1f77b4; stroke: #1f77b4"/>
     <use xlink:href="#m1bdc817a49" x="164.770442" y="129.235127" style="fill: #1f77b4; stroke: #1f77b4"/>
     <use xlink:href="#m1bdc817a49" x="166.401872" y="125.882471" style="fill: #1f77b4; stroke: #1f77b4"/>
     <use xlink:href="#m1bdc817a49" x="168.033302" y="122.192784" style="fill: #1f77b4; stroke: #1f77b4"/>
     <use xlink:href="#m1bdc817a49" x="169.664732" y="118.113218" style="fill: #1f77b4; stroke: #1f77b4"/>
     <use xlink:href="#m1bdc817a49" x="171.296162" y="113.817878" style="fill: #1f77b4; stroke: #1f77b4"/>
     <use xlink:href="#m1bdc817a49" x="172.927592" y="109.114825" style="fill: #1f77b4; stroke: #1f77b4"/>
     <use xlink:href="#m1bdc817a49" x="174.559021" y="104.160748" style="fill: #1f77b4; stroke: #1f77b4"/>
     <use xlink:href="#m1bdc817a49" x="176.190451" y="99.044956" style="fill: #1f77b4; stroke: #1f77b4"/>
     <use xlink:href="#m1bdc817a49" x="177.821881" y="93.826035" style="fill: #1f77b4; stroke: #1f77b4"/>
     <use xlink:href="#m1bdc817a49" x="179.453311" y="88.587271" style="fill: #1f77b4; stroke: #1f77b4"/>
     <use xlink:href="#m1bdc817a49" x="181.084741" y="83.402482" style="fill: #1f77b4; stroke: #1f77b4"/>
     <use xlink:href="#m1bdc817a49" x="182.716171" y="78.548127" style="fill: #1f77b4; stroke: #1f77b4"/>
     <use xlink:href="#m1bdc817a49" x="184.347601" y="73.980698" style="fill: #1f77b4; stroke: #1f77b4"/>
     <use xlink:href="#m1bdc817a49" x="185.979031" y="69.853216" style="fill: #1f77b4; stroke: #1f77b4"/>
     <use xlink:href="#m1bdc817a49" x="187.61046" y="66.294262" style="fill: #1f77b4; stroke: #1f77b4"/>
     <use xlink:href="#m1bdc817a49" x="189.24189" y="63.351643" style="fill: #1f77b4; stroke: #1f77b4"/>
     <use xlink:href="#m1bdc817a49" x="190.87332" y="61.137143" style="fill: #1f77b4; stroke: #1f77b4"/>
     <use xlink:href="#m1bdc817a49" x="192.50475" y="59.646338" style="fill: #1f77b4; stroke: #1f77b4"/>
     <use xlink:href="#m1bdc817a49" x="194.13618" y="58.898487" style="fill: #1f77b4; stroke: #1f77b4"/>
     <use xlink:href="#m1bdc817a49" x="195.76761" y="58.910978" style="fill: #1f77b4; stroke: #1f77b4"/>
     <use xlink:href="#m1bdc817a49" x="197.39904" y="59.579247" style="fill: #1f77b4; stroke: #1f77b4"/>
     <use xlink:href="#m1bdc817a49" x="199.03047" y="60.938113" style="fill: #1f77b4; stroke: #1f77b4"/>
     <use xlink:href="#m1bdc817a49" x="200.661899" y="62.715411" style="fill: #1f77b4; stroke: #1f77b4"/>
     <use xlink:href="#m1bdc817a49" x="202.293329" y="64.993847" style="fill: #1f77b4; stroke: #1f77b4"/>
     <use xlink:href="#m1bdc817a49" x="203.924759" y="67.593011" style="fill: #1f77b4; stroke: #1f77b4"/>
     <use xlink:href="#m1bdc817a49" x="205.556189" y="70.446942" style="fill: #1f77b4; stroke: #1f77b4"/>
     <use xlink:href="#m1bdc817a49" x="207.187619" y="73.418808" style="fill: #1f77b4; stroke: #1f77b4"/>
     <use xlink:href="#m1bdc817a49" x="208.819049" y="76.515437" style="fill: #1f77b4; stroke: #1f77b4"/>
     <use xlink:href="#m1bdc817a49" x="210.450479" y="79.583812" style="fill: #1f77b4; stroke: #1f77b4"/>
     <use xlink:href="#m1bdc817a49" x="212.081909" y="82.638183" style="fill: #1f77b4; stroke: #1f77b4"/>
     <use xlink:href="#m1bdc817a49" x="213.713338" y="85.602389" style="fill: #1f77b4; stroke: #1f77b4"/>
     <use xlink:href="#m1bdc817a49" x="215.344768" y="88.542916" style="fill: #1f77b4; stroke: #1f77b4"/>
     <use xlink:href="#m1bdc817a49" x="216.976198" y="91.324416" style="fill: #1f77b4; stroke: #1f77b4"/>
     <use xlink:href="#m1bdc817a49" x="218.607628" y="94.025298" style="fill: #1f77b4; stroke: #1f77b4"/>
     <use xlink:href="#m1bdc817a49" x="220.239058" y="96.549065" style="fill: #1f77b4; stroke: #1f77b4"/>
     <use xlink:href="#m1bdc817a49" x="221.870488" y="99.003352" style="fill: #1f77b4; stroke: #1f77b4"/>
     <use xlink:href="#m1bdc817a49" x="223.501918" y="101.332239" style="fill: #1f77b4; stroke: #1f77b4"/>
     <use xlink:href="#m1bdc817a49" x="225.133348" y="103.52578" style="fill: #1f77b4; stroke: #1f77b4"/>
     <use xlink:href="#m1bdc817a49" x="226.764777" y="105.490092" style="fill: #1f77b4; stroke: #1f77b4"/>
     <use xlink:href="#m1bdc817a49" x="228.396207" y="107.521743" style="fill: #1f77b4; stroke: #1f77b4"/>
     <use xlink:href="#m1bdc817a49" x="230.027637" y="109.412699" style="fill: #1f77b4; stroke: #1f77b4"/>
     <use xlink:href="#m1bdc817a49" x="231.659067" y="111.253947" style="fill: #1f77b4; stroke: #1f77b4"/>
     <use xlink:href="#m1bdc817a49" x="233.290497" y="112.972558" style="fill: #1f77b4; stroke: #1f77b4"/>
     <use xlink:href="#m1bdc817a49" x="234.921927" y="114.63165" style="fill: #1f77b4; stroke: #1f77b4"/>
     <use xlink:href="#m1bdc817a49" x="236.553357" y="116.12679" style="fill: #1f77b4; stroke: #1f77b4"/>
     <use xlink:href="#m1bdc817a49" x="238.184787" y="117.594741" style="fill: #1f77b4; stroke: #1f77b4"/>
     <use xlink:href="#m1bdc817a49" x="239.816216" y="119.014236" style="fill: #1f77b4; stroke: #1f77b4"/>
     <use xlink:href="#m1bdc817a49" x="241.447646" y="120.382907" style="fill: #1f77b4; stroke: #1f77b4"/>
     <use xlink:href="#m1bdc817a49" x="243.079076" y="121.59245" style="fill: #1f77b4; stroke: #1f77b4"/>
     <use xlink:href="#m1bdc817a49" x="244.710506" y="122.799301" style="fill: #1f77b4; stroke: #1f77b4"/>
     <use xlink:href="#m1bdc817a49" x="246.341936" y="124.034834" style="fill: #1f77b4; stroke: #1f77b4"/>
     <use xlink:href="#m1bdc817a49" x="247.973366" y="125.117023" style="fill: #1f77b4; stroke: #1f77b4"/>
     <use xlink:href="#m1bdc817a49" x="249.604796" y="126.214839" style="fill: #1f77b4; stroke: #1f77b4"/>
     <use xlink:href="#m1bdc817a49" x="251.236226" y="127.153141" style="fill: #1f77b4; stroke: #1f77b4"/>
     <use xlink:href="#m1bdc817a49" x="252.867655" y="128.14762" style="fill: #1f77b4; stroke: #1f77b4"/>
     <use xlink:href="#m1bdc817a49" x="254.499085" y="129.124174" style="fill: #1f77b4; stroke: #1f77b4"/>
     <use xlink:href="#m1bdc817a49" x="256.130515" y="130.030693" style="fill: #1f77b4; stroke: #1f77b4"/>
     <use xlink:href="#m1bdc817a49" x="257.761945" y="130.862699" style="fill: #1f77b4; stroke: #1f77b4"/>
     <use xlink:href="#m1bdc817a49" x="259.393375" y="131.708357" style="fill: #1f77b4; stroke: #1f77b4"/>
     <use xlink:href="#m1bdc817a49" x="261.024805" y="132.502989" style="fill: #1f77b4; stroke: #1f77b4"/>
     <use xlink:href="#m1bdc817a49" x="262.656235" y="133.302338" style="fill: #1f77b4; stroke: #1f77b4"/>
     <use xlink:href="#m1bdc817a49" x="264.287665" y="134.024361" style="fill: #1f77b4; stroke: #1f77b4"/>
     <use xlink:href="#m1bdc817a49" x="265.919094" y="134.690236" style="fill: #1f77b4; stroke: #1f77b4"/>
     <use xlink:href="#m1bdc817a49" x="267.550524" y="135.42436" style="fill: #1f77b4; stroke: #1f77b4"/>
     <use xlink:href="#m1bdc817a49" x="269.181954" y="136.044224" style="fill: #1f77b4; stroke: #1f77b4"/>
     <use xlink:href="#m1bdc817a49" x="270.813384" y="136.723592" style="fill: #1f77b4; stroke: #1f77b4"/>
     <use xlink:href="#m1bdc817a49" x="272.444814" y="137.334655" style="fill: #1f77b4; stroke: #1f77b4"/>
     <use xlink:href="#m1bdc817a49" x="274.076244" y="137.896384" style="fill: #1f77b4; stroke: #1f77b4"/>
     <use xlink:href="#m1bdc817a49" x="275.707674" y="138.481636" style="fill: #1f77b4; stroke: #1f77b4"/>
     <use xlink:href="#m1bdc817a49" x="277.339104" y="139.094826" style="fill: #1f77b4; stroke: #1f77b4"/>
     <use xlink:href="#m1bdc817a49" x="278.970533" y="139.580544" style="fill: #1f77b4; stroke: #1f77b4"/>
     <use xlink:href="#m1bdc817a49" x="280.601963" y="140.137491" style="fill: #1f77b4; stroke: #1f77b4"/>
     <use xlink:href="#m1bdc817a49" x="282.233393" y="140.605651" style="fill: #1f77b4; stroke: #1f77b4"/>
     <use xlink:href="#m1bdc817a49" x="283.864823" y="141.11242" style="fill: #1f77b4; stroke: #1f77b4"/>
     <use xlink:href="#m1bdc817a49" x="285.496253" y="141.622885" style="fill: #1f77b4; stroke: #1f77b4"/>
     <use xlink:href="#m1bdc817a49" x="287.127683" y="142.057965" style="fill: #1f77b4; stroke: #1f77b4"/>
     <use xlink:href="#m1bdc817a49" x="288.759113" y="142.52744" style="fill: #1f77b4; stroke: #1f77b4"/>
     <use xlink:href="#m1bdc817a49" x="290.390543" y="142.933095" style="fill: #1f77b4; stroke: #1f77b4"/>
     <use xlink:href="#m1bdc817a49" x="292.021973" y="143.370323" style="fill: #1f77b4; stroke: #1f77b4"/>
     <use xlink:href="#m1bdc817a49" x="293.653402" y="143.739058" style="fill: #1f77b4; stroke: #1f77b4"/>
     <use xlink:href="#m1bdc817a49" x="295.284832" y="144.142893" style="fill: #1f77b4; stroke: #1f77b4"/>
     <use xlink:href="#m1bdc817a49" x="296.916262" y="144.501565" style="fill: #1f77b4; stroke: #1f77b4"/>
     <use xlink:href="#m1bdc817a49" x="298.547692" y="144.892585" style="fill: #1f77b4; stroke: #1f77b4"/>
     <use xlink:href="#m1bdc817a49" x="300.179122" y="145.246851" style="fill: #1f77b4; stroke: #1f77b4"/>
     <use xlink:href="#m1bdc817a49" x="301.810552" y="145.628776" style="fill: #1f77b4; stroke: #1f77b4"/>
     <use xlink:href="#m1bdc817a49" x="303.441982" y="145.962889" style="fill: #1f77b4; stroke: #1f77b4"/>
     <use xlink:href="#m1bdc817a49" x="305.073412" y="146.284759" style="fill: #1f77b4; stroke: #1f77b4"/>
     <use xlink:href="#m1bdc817a49" x="306.704841" y="146.583726" style="fill: #1f77b4; stroke: #1f77b4"/>
     <use xlink:href="#m1bdc817a49" x="308.336271" y="146.945546" style="fill: #1f77b4; stroke: #1f77b4"/>
     <use xlink:href="#m1bdc817a49" x="309.967701" y="147.230226" style="fill: #1f77b4; stroke: #1f77b4"/>
     <use xlink:href="#m1bdc817a49" x="311.599131" y="147.525596" style="fill: #1f77b4; stroke: #1f77b4"/>
     <use xlink:href="#m1bdc817a49" x="313.230561" y="147.833355" style="fill: #1f77b4; stroke: #1f77b4"/>
     <use xlink:href="#m1bdc817a49" x="314.861991" y="148.117625" style="fill: #1f77b4; stroke: #1f77b4"/>
     <use xlink:href="#m1bdc817a49" x="316.493421" y="148.334505" style="fill: #1f77b4; stroke: #1f77b4"/>
     <use xlink:href="#m1bdc817a49" x="318.124851" y="148.646798" style="fill: #1f77b4; stroke: #1f77b4"/>
     <use xlink:href="#m1bdc817a49" x="319.75628" y="148.864737" style="fill: #1f77b4; stroke: #1f77b4"/>
     <use xlink:href="#m1bdc817a49" x="321.38771" y="149.176075" style="fill: #1f77b4; stroke: #1f77b4"/>
     <use xlink:href="#m1bdc817a49" x="323.01914" y="149.427337" style="fill: #1f77b4; stroke: #1f77b4"/>
     <use xlink:href="#m1bdc817a49" x="324.65057" y="149.615081" style="fill: #1f77b4; stroke: #1f77b4"/>
     <use xlink:href="#m1bdc817a49" x="326.282" y="149.830766" style="fill: #1f77b4; stroke: #1f77b4"/>
     <use xlink:href="#m1bdc817a49" x="327.91343" y="150.074936" style="fill: #1f77b4; stroke: #1f77b4"/>
     <use xlink:href="#m1bdc817a49" x="329.54486" y="150.281065" style="fill: #1f77b4; stroke: #1f77b4"/>
     <use xlink:href="#m1bdc817a49" x="331.17629" y="150.476039" style="fill: #1f77b4; stroke: #1f77b4"/>
     <use xlink:href="#m1bdc817a49" x="332.807719" y="150.734747" style="fill: #1f77b4; stroke: #1f77b4"/>
     <use xlink:href="#m1bdc817a49" x="334.439149" y="150.948716" style="fill: #1f77b4; stroke: #1f77b4"/>
     <use xlink:href="#m1bdc817a49" x="336.070579" y="151.093886" style="fill: #1f77b4; stroke: #1f77b4"/>
     <use xlink:href="#m1bdc817a49" x="337.702009" y="151.30324" style="fill: #1f77b4; stroke: #1f77b4"/>
     <use xlink:href="#m1bdc817a49" x="339.333439" y="151.450165" style="fill: #1f77b4; stroke: #1f77b4"/>
     <use xlink:href="#m1bdc817a49" x="340.964869" y="151.689869" style="fill: #1f77b4; stroke: #1f77b4"/>
     <use xlink:href="#m1bdc817a49" x="342.596299" y="151.850566" style="fill: #1f77b4; stroke: #1f77b4"/>
     <use xlink:href="#m1bdc817a49" x="344.227729" y="151.979146" style="fill: #1f77b4; stroke: #1f77b4"/>
     <use xlink:href="#m1bdc817a49" x="345.859158" y="152.159513" style="fill: #1f77b4; stroke: #1f77b4"/>
     <use xlink:href="#m1bdc817a49" x="347.490588" y="152.313734" style="fill: #1f77b4; stroke: #1f77b4"/>
     <use xlink:href="#m1bdc817a49" x="349.122018" y="152.460059" style="fill: #1f77b4; stroke: #1f77b4"/>
     <use xlink:href="#m1bdc817a49" x="350.753448" y="152.623655" style="fill: #1f77b4; stroke: #1f77b4"/>
     <use xlink:href="#m1bdc817a49" x="352.384878" y="152.813647" style="fill: #1f77b4; stroke: #1f77b4"/>
     <use xlink:href="#m1bdc817a49" x="354.016308" y="152.945048" style="fill: #1f77b4; stroke: #1f77b4"/>
     <use xlink:href="#m1bdc817a49" x="355.647738" y="153.046895" style="fill: #1f77b4; stroke: #1f77b4"/>
     <use xlink:href="#m1bdc817a49" x="357.279168" y="153.191171" style="fill: #1f77b4; stroke: #1f77b4"/>
     <use xlink:href="#m1bdc817a49" x="358.910597" y="153.320516" style="fill: #1f77b4; stroke: #1f77b4"/>
     <use xlink:href="#m1bdc817a49" x="360.542027" y="153.451488" style="fill: #1f77b4; stroke: #1f77b4"/>
     <use xlink:href="#m1bdc817a49" x="362.173457" y="153.570522" style="fill: #1f77b4; stroke: #1f77b4"/>
     <use xlink:href="#m1bdc817a49" x="363.804887" y="153.701861" style="fill: #1f77b4; stroke: #1f77b4"/>
     <use xlink:href="#m1bdc817a49" x="365.436317" y="153.793859" style="fill: #1f77b4; stroke: #1f77b4"/>
     <use xlink:href="#m1bdc817a49" x="367.067747" y="153.94812" style="fill: #1f77b4; stroke: #1f77b4"/>
     <use xlink:href="#m1bdc817a49" x="368.699177" y="153.992543" style="fill: #1f77b4; stroke: #1f77b4"/>
     <use xlink:href="#m1bdc817a49" x="370.330607" y="154.135884" style="fill: #1f77b4; stroke: #1f77b4"/>
     <use xlink:href="#m1bdc817a49" x="371.962036" y="154.186588" style="fill: #1f77b4; stroke: #1f77b4"/>
     <use xlink:href="#m1bdc817a49" x="373.593466" y="154.281289" style="fill: #1f77b4; stroke: #1f77b4"/>
     <use xlink:href="#m1bdc817a49" x="375.224896" y="154.40106" style="fill: #1f77b4; stroke: #1f77b4"/>
     <use xlink:href="#m1bdc817a49" x="376.856326" y="154.471641" style="fill: #1f77b4; stroke: #1f77b4"/>
     <use xlink:href="#m1bdc817a49" x="378.487756" y="154.599132" style="fill: #1f77b4; stroke: #1f77b4"/>
     <use xlink:href="#m1bdc817a49" x="380.119186" y="154.631458" style="fill: #1f77b4; stroke: #1f77b4"/>
     <use xlink:href="#m1bdc817a49" x="381.750616" y="154.716179" style="fill: #1f77b4; stroke: #1f77b4"/>
     <use xlink:href="#m1bdc817a49" x="383.382046" y="154.834745" style="fill: #1f77b4; stroke: #1f77b4"/>
     <use xlink:href="#m1bdc817a49" x="385.013475" y="154.897829" style="fill: #1f77b4; stroke: #1f77b4"/>
     <use xlink:href="#m1bdc817a49" x="386.644905" y="154.926148" style="fill: #1f77b4; stroke: #1f77b4"/>
     <use xlink:href="#m1bdc817a49" x="388.276335" y="155.026421" style="fill: #1f77b4; stroke: #1f77b4"/>
    </g>
   </g>
   <g id="line2d_12">
    <path d="M 63.62179 150.229373 
L 79.870766 152.289841 
L 91.895008 153.602712 
L 101.319415 154.418248 
L 108.793944 154.855436 
L 114.968555 155.010094 
L 120.168227 154.937176 
L 124.71794 154.667837 
L 128.942674 154.191938 
L 132.517449 153.571343 
L 135.767244 152.789258 
L 138.69206 151.867252 
L 141.291896 150.838177 
L 143.891732 149.57374 
L 146.166589 148.239928 
L 148.441446 146.657803 
L 150.716302 144.787408 
L 152.66618 142.920242 
L 154.616057 140.775434 
L 156.565934 138.317549 
L 158.515811 135.50847 
L 160.465688 132.308297 
L 162.415565 128.676918 
L 164.365443 124.576513 
L 166.31532 119.975269 
L 168.265197 114.852588 
L 170.540053 108.215105 
L 172.81491 100.90837 
L 175.739726 90.720568 
L 182.889275 65.362085 
L 184.839153 59.501178 
L 186.46405 55.338712 
L 187.763968 52.573854 
L 189.063886 50.364405 
L 190.038825 49.090775 
L 191.013764 48.152854 
L 191.988702 47.550458 
L 192.963641 47.277661 
L 193.938579 47.323293 
L 194.913518 47.67161 
L 195.888456 48.303092 
L 196.863395 49.195311 
L 198.163313 50.748047 
L 199.463231 52.659726 
L 201.088129 55.460357 
L 203.038006 59.27237 
L 205.962822 65.547951 
L 214.08731 83.319666 
L 217.337105 89.773151 
L 220.261921 95.107358 
L 223.186737 99.981731 
L 226.111552 104.412325 
L 229.036368 108.428686 
L 231.961184 112.066301 
L 234.885999 115.362074 
L 238.135795 118.666541 
L 241.38559 121.638519 
L 244.635385 124.318795 
L 248.21016 126.972965 
L 251.784935 129.359077 
L 255.684689 131.697895 
L 259.909423 133.964095 
L 264.459136 136.139204 
L 269.333829 138.210799 
L 274.533501 140.171509 
L 280.058153 142.017979 
L 286.232764 143.840131 
L 292.732355 145.528448 
L 299.881904 147.159558 
L 307.681413 148.715002 
L 316.45586 150.234265 
L 326.205246 151.68667 
L 336.92957 153.048909 
L 348.628833 154.303248 
L 361.303035 155.435758 
L 375.277154 156.456059 
L 388.276335 157.221818 
L 388.276335 157.221818 
" clip-path="url(#p131812ca11)" style="fill: none; stroke: #d62728; stroke-width: 1.5; stroke-linecap: square"/>
   </g>
   <g id="patch_3">
    <path d="M 47.389063 162.72 
L 47.389063 41.76 
" style="fill: none; stroke: #000000; stroke-width: 0.8; stroke-linejoin: miter; stroke-linecap: square"/>
   </g>
   <g id="patch_4">
    <path d="M 404.509063 162.72 
L 404.509063 41.76 
" style="fill: none; stroke: #000000; stroke-width: 0.8; stroke-linejoin: miter; stroke-linecap: square"/>
   </g>
   <g id="patch_5">
    <path d="M 47.389063 162.72 
L 404.509063 162.72 
" style="fill: none; stroke: #000000; stroke-width: 0.8; stroke-linejoin: miter; stroke-linecap: square"/>
   </g>
   <g id="patch_6">
    <path d="M 47.389063 41.76 
L 404.509063 41.76 
" style="fill: none; stroke: #000000; stroke-width: 0.8; stroke-linejoin: miter; stroke-linecap: square"/>
   </g>
   <g id="text_6">
    <g id="patch_7">
     <path d="M 422.365063 95.079562 
L 561.765062 95.079562 
Q 565.765062 95.079562 565.765062 91.079562 
L 565.765062 47.808 
Q 565.765062 43.808 561.765062 43.808 
L 422.365063 43.808 
Q 418.365063 43.808 418.365063 47.808 
L 418.365063 91.079562 
Q 418.365063 95.079562 422.365063 95.079562 
z
" style="fill: #ffffff; opacity: 0.5; stroke: #000000; stroke-linejoin: miter"/>
    </g>
    <!-- Summary -->
    <g transform="translate(422.365063 55.406437) scale(0.1 -0.1)">
     <defs>
      <path id="DejaVuSans-53" d="M 3425 4513 
L 3425 3897 
Q 3066 4069 2747 4153 
Q 2428 4238 2131 4238 
Q 1616 4238 1336 4038 
Q 1056 3838 1056 3469 
Q 1056 3159 1242 3001 
Q 1428 2844 1947 2747 
L 2328 2669 
Q 3034 2534 3370 2195 
Q 3706 1856 3706 1288 
Q 3706 609 3251 259 
Q 2797 -91 1919 -91 
Q 1588 -91 1214 -16 
Q 841 59 441 206 
L 441 856 
Q 825 641 1194 531 
Q 1563 422 1919 422 
Q 2459 422 2753 634 
Q 3047 847 3047 1241 
Q 3047 1584 2836 1778 
Q 2625 1972 2144 2069 
L 1759 2144 
Q 1053 2284 737 2584 
Q 422 2884 422 3419 
Q 422 4038 858 4394 
Q 1294 4750 2059 4750 
Q 2388 4750 2728 4690 
Q 3069 4631 3425 4513 
z
" transform="scale(0.015625)"/>
      <path id="DejaVuSans-75" d="M 544 1381 
L 544 3500 
L 1119 3500 
L 1119 1403 
Q 1119 906 1312 657 
Q 1506 409 1894 409 
Q 2359 409 2629 706 
Q 2900 1003 2900 1516 
L 2900 3500 
L 3475 3500 
L 3475 0 
L 2900 0 
L 2900 538 
Q 2691 219 2414 64 
Q 2138 -91 1772 -91 
Q 1169 -91 856 284 
Q 544 659 544 1381 
z
M 1991 3584 
L 1991 3584 
z
" transform="scale(0.015625)"/>
      <path id="DejaVuSans-6d" d="M 3328 2828 
Q 3544 3216 3844 3400 
Q 4144 3584 4550 3584 
Q 5097 3584 5394 3201 
Q 5691 2819 5691 2113 
L 5691 0 
L 5113 0 
L 5113 2094 
Q 5113 2597 4934 2840 
Q 4756 3084 4391 3084 
Q 3944 3084 3684 2787 
Q 3425 2491 3425 1978 
L 3425 0 
L 2847 0 
L 2847 2094 
Q 2847 2600 2669 2842 
Q 2491 3084 2119 3084 
Q 1678 3084 1418 2786 
Q 1159 2488 1159 1978 
L 1159 0 
L 581 0 
L 581 3500 
L 1159 3500 
L 1159 2956 
Q 1356 3278 1631 3431 
Q 1906 3584 2284 3584 
Q 2666 3584 2933 3390 
Q 3200 3197 3328 2828 
z
" transform="scale(0.015625)"/>
      <path id="DejaVuSans-61" d="M 2194 1759 
Q 1497 1759 1228 1600 
Q 959 1441 959 1056 
Q 959 750 1161 570 
Q 1363 391 1709 391 
Q 2188 391 2477 730 
Q 2766 1069 2766 1631 
L 2766 1759 
L 2194 1759 
z
M 3341 1997 
L 3341 0 
L 2766 0 
L 2766 531 
Q 2569 213 2275 61 
Q 1981 -91 1556 -91 
Q 1019 -91 701 211 
Q 384 513 384 1019 
Q 384 1609 779 1909 
Q 1175 2209 1959 2209 
L 2766 2209 
L 2766 2266 
Q 2766 2663 2505 2880 
Q 2244 3097 1772 3097 
Q 1472 3097 1187 3025 
Q 903 2953 641 2809 
L 641 3341 
Q 956 3463 1253 3523 
Q 1550 3584 1831 3584 
Q 2591 3584 2966 3190 
Q 3341 2797 3341 1997 
z
" transform="scale(0.015625)"/>
      <path id="DejaVuSans-72" d="M 2631 2963 
Q 2534 3019 2420 3045 
Q 2306 3072 2169 3072 
Q 1681 3072 1420 2755 
Q 1159 2438 1159 1844 
L 1159 0 
L 581 0 
L 581 3500 
L 1159 3500 
L 1159 2956 
Q 1341 3275 1631 3429 
Q 1922 3584 2338 3584 
Q 2397 3584 2469 3576 
Q 2541 3569 2628 3553 
L 2631 2963 
z
" transform="scale(0.015625)"/>
      <path id="DejaVuSans-79" d="M 2059 -325 
Q 1816 -950 1584 -1140 
Q 1353 -1331 966 -1331 
L 506 -1331 
L 506 -850 
L 844 -850 
Q 1081 -850 1212 -737 
Q 1344 -625 1503 -206 
L 1606 56 
L 191 3500 
L 800 3500 
L 1894 763 
L 2988 3500 
L 3597 3500 
L 2059 -325 
z
" transform="scale(0.015625)"/>
     </defs>
     <use xlink:href="#DejaVuSans-53"/>
     <use xlink:href="#DejaVuSans-75" x="63.476562"/>
     <use xlink:href="#DejaVuSans-6d" x="126.855469"/>
     <use xlink:href="#DejaVuSans-6d" x="224.267578"/>
     <use xlink:href="#DejaVuSans-61" x="321.679688"/>
     <use xlink:href="#DejaVuSans-72" x="382.958984"/>
     <use xlink:href="#DejaVuSans-79" x="424.072266"/>
    </g>
    <!-- $Q_I$: 76$\pm$14 k -->
    <g transform="translate(422.365063 66.60425) scale(0.1 -0.1)">
     <defs>
      <path id="DejaVuSans-Oblique-51" d="M 2309 -84 
Q 2275 -88 2237 -89 
Q 2200 -91 2125 -91 
Q 1250 -91 756 411 
Q 263 913 263 1797 
Q 263 2319 452 2844 
Q 641 3369 978 3788 
Q 1369 4269 1858 4509 
Q 2347 4750 2938 4750 
Q 3794 4750 4287 4245 
Q 4781 3741 4781 2869 
Q 4781 1928 4265 1147 
Q 3750 366 2919 44 
L 3553 -825 
L 2847 -825 
L 2309 -84 
z
M 2919 4238 
Q 2400 4238 2003 3986 
Q 1606 3734 1313 3219 
Q 1125 2891 1026 2522 
Q 928 2153 928 1778 
Q 928 1128 1239 775 
Q 1550 422 2119 422 
Q 2631 422 3032 676 
Q 3434 931 3719 1434 
Q 3909 1772 4009 2142 
Q 4109 2513 4109 2881 
Q 4109 3528 3796 3883 
Q 3484 4238 2919 4238 
z
" transform="scale(0.015625)"/>
      <path id="DejaVuSans-Oblique-49" d="M 1081 4666 
L 1716 4666 
L 806 0 
L 172 0 
L 1081 4666 
z
" transform="scale(0.015625)"/>
      <path id="DejaVuSans-3a" d="M 750 794 
L 1409 794 
L 1409 0 
L 750 0 
L 750 794 
z
M 750 3309 
L 1409 3309 
L 1409 2516 
L 750 2516 
L 750 3309 
z
" transform="scale(0.015625)"/>
      <path id="DejaVuSans-37" d="M 525 4666 
L 3525 4666 
L 3525 4397 
L 1831 0 
L 1172 0 
L 2766 4134 
L 525 4134 
L 525 4666 
z
" transform="scale(0.015625)"/>
      <path id="DejaVuSans-b1" d="M 2944 4013 
L 2944 2803 
L 4684 2803 
L 4684 2272 
L 2944 2272 
L 2944 1063 
L 2419 1063 
L 2419 2272 
L 678 2272 
L 678 2803 
L 2419 2803 
L 2419 4013 
L 2944 4013 
z
M 678 531 
L 4684 531 
L 4684 0 
L 678 0 
L 678 531 
z
" transform="scale(0.015625)"/>
      <path id="DejaVuSans-6b" d="M 581 4863 
L 1159 4863 
L 1159 1991 
L 2875 3500 
L 3609 3500 
L 1753 1863 
L 3688 0 
L 2938 0 
L 1159 1709 
L 1159 0 
L 581 0 
L 581 4863 
z
" transform="scale(0.015625)"/>
     </defs>
     <use xlink:href="#DejaVuSans-Oblique-51" transform="translate(0 0.015625)"/>
     <use xlink:href="#DejaVuSans-Oblique-49" transform="translate(78.710938 -16.390625) scale(0.7)"/>
     <use xlink:href="#DejaVuSans-3a" transform="translate(102.089844 0.015625)"/>
     <use xlink:href="#DejaVuSans-20" transform="translate(135.78125 0.015625)"/>
     <use xlink:href="#DejaVuSans-37" transform="translate(167.568359 0.015625)"/>
     <use xlink:href="#DejaVuSans-36" transform="translate(231.191406 0.015625)"/>
     <use xlink:href="#DejaVuSans-b1" transform="translate(294.814453 0.015625)"/>
     <use xlink:href="#DejaVuSans-31" transform="translate(378.603516 0.015625)"/>
     <use xlink:href="#DejaVuSans-34" transform="translate(442.226562 0.015625)"/>
     <use xlink:href="#DejaVuSans-20" transform="translate(505.849609 0.015625)"/>
     <use xlink:href="#DejaVuSans-6b" transform="translate(537.636719 0.015625)"/>
    </g>
    <!-- $Q_C$: 4.072$\pm$0.054 k -->
    <g transform="translate(422.365063 77.802062) scale(0.1 -0.1)">
     <defs>
      <path id="DejaVuSans-Oblique-43" d="M 4447 4306 
L 4319 3641 
Q 4019 3944 3683 4091 
Q 3347 4238 2956 4238 
Q 2422 4238 2017 3981 
Q 1613 3725 1319 3200 
Q 1131 2863 1032 2486 
Q 934 2109 934 1728 
Q 934 1091 1264 756 
Q 1594 422 2222 422 
Q 2656 422 3056 561 
Q 3456 700 3834 978 
L 3688 231 
Q 3316 72 2936 -9 
Q 2556 -91 2175 -91 
Q 1278 -91 773 396 
Q 269 884 269 1753 
Q 269 2309 461 2846 
Q 653 3384 1013 3828 
Q 1394 4300 1883 4525 
Q 2372 4750 3022 4750 
Q 3422 4750 3780 4639 
Q 4138 4528 4447 4306 
z
" transform="scale(0.015625)"/>
      <path id="DejaVuSans-35" d="M 691 4666 
L 3169 4666 
L 3169 4134 
L 1269 4134 
L 1269 2991 
Q 1406 3038 1543 3061 
Q 1681 3084 1819 3084 
Q 2600 3084 3056 2656 
Q 3513 2228 3513 1497 
Q 3513 744 3044 326 
Q 2575 -91 1722 -91 
Q 1428 -91 1123 -41 
Q 819 9 494 109 
L 494 744 
Q 775 591 1075 516 
Q 1375 441 1709 441 
Q 2250 441 2565 725 
Q 2881 1009 2881 1497 
Q 2881 1984 2565 2268 
Q 2250 2553 1709 2553 
Q 1456 2553 1204 2497 
Q 953 2441 691 2322 
L 691 4666 
z
" transform="scale(0.015625)"/>
     </defs>
     <use xlink:href="#DejaVuSans-Oblique-51" transform="translate(0 0.015625)"/>
     <use xlink:href="#DejaVuSans-Oblique-43" transform="translate(78.710938 -16.390625) scale(0.7)"/>
     <use xlink:href="#DejaVuSans-3a" transform="translate(130.322266 0.015625)"/>
     <use xlink:href="#DejaVuSans-20" transform="translate(164.013672 0.015625)"/>
     <use xlink:href="#DejaVuSans-34" transform="translate(195.800781 0.015625)"/>
     <use xlink:href="#DejaVuSans-2e" transform="translate(259.423828 0.015625)"/>
     <use xlink:href="#DejaVuSans-30" transform="translate(291.210938 0.015625)"/>
     <use xlink:href="#DejaVuSans-37" transform="translate(354.833984 0.015625)"/>
     <use xlink:href="#DejaVuSans-32" transform="translate(418.457031 0.015625)"/>
     <use xlink:href="#DejaVuSans-b1" transform="translate(482.080078 0.015625)"/>
     <use xlink:href="#DejaVuSans-30" transform="translate(565.869141 0.015625)"/>
     <use xlink:href="#DejaVuSans-2e" transform="translate(629.492188 0.015625)"/>
     <use xlink:href="#DejaVuSans-30" transform="translate(661.279297 0.015625)"/>
     <use xlink:href="#DejaVuSans-35" transform="translate(724.902344 0.015625)"/>
     <use xlink:href="#DejaVuSans-34" transform="translate(788.525391 0.015625)"/>
     <use xlink:href="#DejaVuSans-20" transform="translate(852.148438 0.015625)"/>
     <use xlink:href="#DejaVuSans-6b" transform="translate(883.935547 0.015625)"/>
    </g>
    <!-- $f_{res}$: 6.007316$\pm$1.3e-05 GHz -->
    <g transform="translate(422.365063 88.999875) scale(0.1 -0.1)">
     <defs>
      <path id="DejaVuSans-Oblique-66" d="M 3059 4863 
L 2969 4384 
L 2419 4384 
Q 2106 4384 1964 4261 
Q 1822 4138 1753 3809 
L 1691 3500 
L 2638 3500 
L 2553 3053 
L 1606 3053 
L 1013 0 
L 434 0 
L 1031 3053 
L 481 3053 
L 563 3500 
L 1113 3500 
L 1159 3744 
Q 1278 4363 1576 4613 
Q 1875 4863 2516 4863 
L 3059 4863 
z
" transform="scale(0.015625)"/>
      <path id="DejaVuSans-Oblique-72" d="M 2853 2969 
Q 2766 3016 2653 3041 
Q 2541 3066 2413 3066 
Q 1953 3066 1609 2717 
Q 1266 2369 1153 1784 
L 800 0 
L 225 0 
L 909 3500 
L 1484 3500 
L 1375 2956 
Q 1603 3259 1920 3421 
Q 2238 3584 2597 3584 
Q 2691 3584 2781 3573 
Q 2872 3563 2963 3538 
L 2853 2969 
z
" transform="scale(0.015625)"/>
      <path id="DejaVuSans-Oblique-65" d="M 3078 2063 
Q 3088 2113 3092 2166 
Q 3097 2219 3097 2272 
Q 3097 2653 2873 2875 
Q 2650 3097 2266 3097 
Q 1838 3097 1509 2826 
Q 1181 2556 1013 2059 
L 3078 2063 
z
M 3578 1613 
L 903 1613 
Q 884 1494 878 1425 
Q 872 1356 872 1306 
Q 872 872 1139 634 
Q 1406 397 1894 397 
Q 2269 397 2603 481 
Q 2938 566 3225 728 
L 3116 159 
Q 2806 34 2476 -28 
Q 2147 -91 1806 -91 
Q 1078 -91 686 257 
Q 294 606 294 1247 
Q 294 1794 489 2264 
Q 684 2734 1063 3103 
Q 1306 3334 1642 3459 
Q 1978 3584 2356 3584 
Q 2950 3584 3301 3228 
Q 3653 2872 3653 2272 
Q 3653 2128 3634 1964 
Q 3616 1800 3578 1613 
z
" transform="scale(0.015625)"/>
      <path id="DejaVuSans-Oblique-73" d="M 3200 3397 
L 3091 2853 
Q 2863 2978 2609 3040 
Q 2356 3103 2088 3103 
Q 1634 3103 1373 2948 
Q 1113 2794 1113 2528 
Q 1113 2219 1719 2053 
Q 1766 2041 1788 2034 
L 1972 1978 
Q 2547 1819 2739 1644 
Q 2931 1469 2931 1166 
Q 2931 609 2489 259 
Q 2047 -91 1331 -91 
Q 1053 -91 747 -37 
Q 441 16 72 128 
L 184 722 
Q 500 559 806 475 
Q 1113 391 1394 391 
Q 1816 391 2080 572 
Q 2344 753 2344 1031 
Q 2344 1331 1650 1516 
L 1591 1531 
L 1394 1581 
Q 956 1697 753 1886 
Q 550 2075 550 2369 
Q 550 2928 970 3256 
Q 1391 3584 2113 3584 
Q 2397 3584 2667 3537 
Q 2938 3491 3200 3397 
z
" transform="scale(0.015625)"/>
      <path id="DejaVuSans-33" d="M 2597 2516 
Q 3050 2419 3304 2112 
Q 3559 1806 3559 1356 
Q 3559 666 3084 287 
Q 2609 -91 1734 -91 
Q 1441 -91 1130 -33 
Q 819 25 488 141 
L 488 750 
Q 750 597 1062 519 
Q 1375 441 1716 441 
Q 2309 441 2620 675 
Q 2931 909 2931 1356 
Q 2931 1769 2642 2001 
Q 2353 2234 1838 2234 
L 1294 2234 
L 1294 2753 
L 1863 2753 
Q 2328 2753 2575 2939 
Q 2822 3125 2822 3475 
Q 2822 3834 2567 4026 
Q 2313 4219 1838 4219 
Q 1578 4219 1281 4162 
Q 984 4106 628 3988 
L 628 4550 
Q 988 4650 1302 4700 
Q 1616 4750 1894 4750 
Q 2613 4750 3031 4423 
Q 3450 4097 3450 3541 
Q 3450 3153 3228 2886 
Q 3006 2619 2597 2516 
z
" transform="scale(0.015625)"/>
      <path id="DejaVuSans-47" d="M 3809 666 
L 3809 1919 
L 2778 1919 
L 2778 2438 
L 4434 2438 
L 4434 434 
Q 4069 175 3628 42 
Q 3188 -91 2688 -91 
Q 1594 -91 976 548 
Q 359 1188 359 2328 
Q 359 3472 976 4111 
Q 1594 4750 2688 4750 
Q 3144 4750 3555 4637 
Q 3966 4525 4313 4306 
L 4313 3634 
Q 3963 3931 3569 4081 
Q 3175 4231 2741 4231 
Q 1884 4231 1454 3753 
Q 1025 3275 1025 2328 
Q 1025 1384 1454 906 
Q 1884 428 2741 428 
Q 3075 428 3337 486 
Q 3600 544 3809 666 
z
" transform="scale(0.015625)"/>
      <path id="DejaVuSans-48" d="M 628 4666 
L 1259 4666 
L 1259 2753 
L 3553 2753 
L 3553 4666 
L 4184 4666 
L 4184 0 
L 3553 0 
L 3553 2222 
L 1259 2222 
L 1259 0 
L 628 0 
L 628 4666 
z
" transform="scale(0.015625)"/>
      <path id="DejaVuSans-7a" d="M 353 3500 
L 3084 3500 
L 3084 2975 
L 922 459 
L 3084 459 
L 3084 0 
L 275 0 
L 275 525 
L 2438 3041 
L 353 3041 
L 353 3500 
z
" transform="scale(0.015625)"/>
     </defs>
     <use xlink:href="#DejaVuSans-Oblique-66" transform="translate(0 0.015625)"/>
     <use xlink:href="#DejaVuSans-Oblique-72" transform="translate(35.205078 -16.390625) scale(0.7)"/>
     <use xlink:href="#DejaVuSans-Oblique-65" transform="translate(63.984375 -16.390625) scale(0.7)"/>
     <use xlink:href="#DejaVuSans-Oblique-73" transform="translate(107.050781 -16.390625) scale(0.7)"/>
     <use xlink:href="#DejaVuSans-3a" transform="translate(146.254883 0.015625)"/>
     <use xlink:href="#DejaVuSans-20" transform="translate(179.946289 0.015625)"/>
     <use xlink:href="#DejaVuSans-36" transform="translate(211.733398 0.015625)"/>
     <use xlink:href="#DejaVuSans-2e" transform="translate(275.356445 0.015625)"/>
     <use xlink:href="#DejaVuSans-30" transform="translate(307.143555 0.015625)"/>
     <use xlink:href="#DejaVuSans-30" transform="translate(370.766602 0.015625)"/>
     <use xlink:href="#DejaVuSans-37" transform="translate(434.389648 0.015625)"/>
     <use xlink:href="#DejaVuSans-33" transform="translate(498.012695 0.015625)"/>
     <use xlink:href="#DejaVuSans-31" transform="translate(561.635742 0.015625)"/>
     <use xlink:href="#DejaVuSans-36" transform="translate(625.258789 0.015625)"/>
     <use xlink:href="#DejaVuSans-b1" transform="translate(688.881836 0.015625)"/>
     <use xlink:href="#DejaVuSans-31" transform="translate(772.670898 0.015625)"/>
     <use xlink:href="#DejaVuSans-2e" transform="translate(836.293945 0.015625)"/>
     <use xlink:href="#DejaVuSans-33" transform="translate(868.081055 0.015625)"/>
     <use xlink:href="#DejaVuSans-65" transform="translate(931.704102 0.015625)"/>
     <use xlink:href="#DejaVuSans-2d" transform="translate(993.227539 0.015625)"/>
     <use xlink:href="#DejaVuSans-30" transform="translate(1029.311523 0.015625)"/>
     <use xlink:href="#DejaVuSans-35" transform="translate(1092.93457 0.015625)"/>
     <use xlink:href="#DejaVuSans-20" transform="translate(1156.557617 0.015625)"/>
     <use xlink:href="#DejaVuSans-47" transform="translate(1188.344727 0.015625)"/>
     <use xlink:href="#DejaVuSans-48" transform="translate(1265.834961 0.015625)"/>
     <use xlink:href="#DejaVuSans-7a" transform="translate(1341.030273 0.015625)"/>
    </g>
   </g>
  </g>
  <g id="axes_2">
   <g id="patch_8">
    <path d="M 47.389063 307.872 
L 404.509063 307.872 
L 404.509063 186.912 
L 47.389063 186.912 
z
" style="fill: #ffffff"/>
   </g>
   <g id="matplotlib.axis_3">
    <g id="xtick_7">
     <g id="line2d_13">
      <g>
       <use xlink:href="#mbf468602d4" x="79.854517" y="307.872" style="stroke: #000000; stroke-width: 0.8"/>
      </g>
     </g>
     <g id="text_7">
      <!-- 4 -->
      <g transform="translate(76.673267 322.470438) scale(0.1 -0.1)">
       <use xlink:href="#DejaVuSans-34"/>
      </g>
     </g>
    </g>
    <g id="xtick_8">
     <g id="line2d_14">
      <g>
       <use xlink:href="#mbf468602d4" x="144.785426" y="307.872" style="stroke: #000000; stroke-width: 0.8"/>
      </g>
     </g>
     <g id="text_8">
      <!-- 6 -->
      <g transform="translate(141.604176 322.470438) scale(0.1 -0.1)">
       <use xlink:href="#DejaVuSans-36"/>
      </g>
     </g>
    </g>
    <g id="xtick_9">
     <g id="line2d_15">
      <g>
       <use xlink:href="#mbf468602d4" x="209.716335" y="307.872" style="stroke: #000000; stroke-width: 0.8"/>
      </g>
     </g>
     <g id="text_9">
      <!-- 8 -->
      <g transform="translate(206.535085 322.470438) scale(0.1 -0.1)">
       <defs>
        <path id="DejaVuSans-38" d="M 2034 2216 
Q 1584 2216 1326 1975 
Q 1069 1734 1069 1313 
Q 1069 891 1326 650 
Q 1584 409 2034 409 
Q 2484 409 2743 651 
Q 3003 894 3003 1313 
Q 3003 1734 2745 1975 
Q 2488 2216 2034 2216 
z
M 1403 2484 
Q 997 2584 770 2862 
Q 544 3141 544 3541 
Q 544 4100 942 4425 
Q 1341 4750 2034 4750 
Q 2731 4750 3128 4425 
Q 3525 4100 3525 3541 
Q 3525 3141 3298 2862 
Q 3072 2584 2669 2484 
Q 3125 2378 3379 2068 
Q 3634 1759 3634 1313 
Q 3634 634 3220 271 
Q 2806 -91 2034 -91 
Q 1263 -91 848 271 
Q 434 634 434 1313 
Q 434 1759 690 2068 
Q 947 2378 1403 2484 
z
M 1172 3481 
Q 1172 3119 1398 2916 
Q 1625 2713 2034 2713 
Q 2441 2713 2670 2916 
Q 2900 3119 2900 3481 
Q 2900 3844 2670 4047 
Q 2441 4250 2034 4250 
Q 1625 4250 1398 4047 
Q 1172 3844 1172 3481 
z
" transform="scale(0.015625)"/>
       </defs>
       <use xlink:href="#DejaVuSans-38"/>
      </g>
     </g>
    </g>
    <g id="xtick_10">
     <g id="line2d_16">
      <g>
       <use xlink:href="#mbf468602d4" x="274.647244" y="307.872" style="stroke: #000000; stroke-width: 0.8"/>
      </g>
     </g>
     <g id="text_10">
      <!-- 10 -->
      <g transform="translate(268.284744 322.470438) scale(0.1 -0.1)">
       <use xlink:href="#DejaVuSans-31"/>
       <use xlink:href="#DejaVuSans-30" x="63.623047"/>
      </g>
     </g>
    </g>
    <g id="xtick_11">
     <g id="line2d_17">
      <g>
       <use xlink:href="#mbf468602d4" x="339.578153" y="307.872" style="stroke: #000000; stroke-width: 0.8"/>
      </g>
     </g>
     <g id="text_11">
      <!-- 12 -->
      <g transform="translate(333.215653 322.470438) scale(0.1 -0.1)">
       <use xlink:href="#DejaVuSans-31"/>
       <use xlink:href="#DejaVuSans-32" x="63.623047"/>
      </g>
     </g>
    </g>
    <g id="xtick_12">
     <g id="line2d_18">
      <g>
       <use xlink:href="#mbf468602d4" x="404.509063" y="307.872" style="stroke: #000000; stroke-width: 0.8"/>
      </g>
     </g>
     <g id="text_12">
      <!-- 14 -->
      <g transform="translate(398.146563 322.470438) scale(0.1 -0.1)">
       <use xlink:href="#DejaVuSans-31"/>
       <use xlink:href="#DejaVuSans-34" x="63.623047"/>
      </g>
     </g>
    </g>
    <g id="text_13">
     <!-- Frequency [MHz] -->
     <g transform="translate(183.930313 336.148562) scale(0.1 -0.1)">
      <defs>
       <path id="DejaVuSans-46" d="M 628 4666 
L 3309 4666 
L 3309 4134 
L 1259 4134 
L 1259 2759 
L 3109 2759 
L 3109 2228 
L 1259 2228 
L 1259 0 
L 628 0 
L 628 4666 
z
" transform="scale(0.015625)"/>
       <path id="DejaVuSans-71" d="M 947 1747 
Q 947 1113 1208 752 
Q 1469 391 1925 391 
Q 2381 391 2643 752 
Q 2906 1113 2906 1747 
Q 2906 2381 2643 2742 
Q 2381 3103 1925 3103 
Q 1469 3103 1208 2742 
Q 947 2381 947 1747 
z
M 2906 525 
Q 2725 213 2448 61 
Q 2172 -91 1784 -91 
Q 1150 -91 751 415 
Q 353 922 353 1747 
Q 353 2572 751 3078 
Q 1150 3584 1784 3584 
Q 2172 3584 2448 3432 
Q 2725 3281 2906 2969 
L 2906 3500 
L 3481 3500 
L 3481 -1331 
L 2906 -1331 
L 2906 525 
z
" transform="scale(0.015625)"/>
       <path id="DejaVuSans-6e" d="M 3513 2113 
L 3513 0 
L 2938 0 
L 2938 2094 
Q 2938 2591 2744 2837 
Q 2550 3084 2163 3084 
Q 1697 3084 1428 2787 
Q 1159 2491 1159 1978 
L 1159 0 
L 581 0 
L 581 3500 
L 1159 3500 
L 1159 2956 
Q 1366 3272 1645 3428 
Q 1925 3584 2291 3584 
Q 2894 3584 3203 3211 
Q 3513 2838 3513 2113 
z
" transform="scale(0.015625)"/>
       <path id="DejaVuSans-63" d="M 3122 3366 
L 3122 2828 
Q 2878 2963 2633 3030 
Q 2388 3097 2138 3097 
Q 1578 3097 1268 2742 
Q 959 2388 959 1747 
Q 959 1106 1268 751 
Q 1578 397 2138 397 
Q 2388 397 2633 464 
Q 2878 531 3122 666 
L 3122 134 
Q 2881 22 2623 -34 
Q 2366 -91 2075 -91 
Q 1284 -91 818 406 
Q 353 903 353 1747 
Q 353 2603 823 3093 
Q 1294 3584 2113 3584 
Q 2378 3584 2631 3529 
Q 2884 3475 3122 3366 
z
" transform="scale(0.015625)"/>
       <path id="DejaVuSans-4d" d="M 628 4666 
L 1569 4666 
L 2759 1491 
L 3956 4666 
L 4897 4666 
L 4897 0 
L 4281 0 
L 4281 4097 
L 3078 897 
L 2444 897 
L 1241 4097 
L 1241 0 
L 628 0 
L 628 4666 
z
" transform="scale(0.015625)"/>
      </defs>
      <use xlink:href="#DejaVuSans-46"/>
      <use xlink:href="#DejaVuSans-72" x="50.269531"/>
      <use xlink:href="#DejaVuSans-65" x="89.132812"/>
      <use xlink:href="#DejaVuSans-71" x="150.65625"/>
      <use xlink:href="#DejaVuSans-75" x="214.132812"/>
      <use xlink:href="#DejaVuSans-65" x="277.511719"/>
      <use xlink:href="#DejaVuSans-6e" x="339.035156"/>
      <use xlink:href="#DejaVuSans-63" x="402.414062"/>
      <use xlink:href="#DejaVuSans-79" x="457.394531"/>
      <use xlink:href="#DejaVuSans-20" x="516.574219"/>
      <use xlink:href="#DejaVuSans-5b" x="548.361328"/>
      <use xlink:href="#DejaVuSans-4d" x="587.375"/>
      <use xlink:href="#DejaVuSans-48" x="673.654297"/>
      <use xlink:href="#DejaVuSans-7a" x="748.849609"/>
      <use xlink:href="#DejaVuSans-5d" x="801.339844"/>
     </g>
    </g>
    <g id="text_14">
     <!-- +6 GHz -->
     <g transform="translate(366.071563 335.148562) scale(0.1 -0.1)">
      <defs>
       <path id="DejaVuSans-2b" d="M 2944 4013 
L 2944 2272 
L 4684 2272 
L 4684 1741 
L 2944 1741 
L 2944 0 
L 2419 0 
L 2419 1741 
L 678 1741 
L 678 2272 
L 2419 2272 
L 2419 4013 
L 2944 4013 
z
" transform="scale(0.015625)"/>
      </defs>
      <use xlink:href="#DejaVuSans-2b"/>
      <use xlink:href="#DejaVuSans-36" x="83.789062"/>
      <use xlink:href="#DejaVuSans-20" x="147.412109"/>
      <use xlink:href="#DejaVuSans-47" x="179.199219"/>
      <use xlink:href="#DejaVuSans-48" x="256.689453"/>
      <use xlink:href="#DejaVuSans-7a" x="331.884766"/>
     </g>
    </g>
   </g>
   <g id="matplotlib.axis_4">
    <g id="ytick_5">
     <g id="line2d_19">
      <g>
       <use xlink:href="#m3a76ebc89c" x="47.389063" y="297.863974" style="stroke: #000000; stroke-width: 0.8"/>
      </g>
     </g>
     <g id="text_15">
      <!-- -0.4 -->
      <g transform="translate(20.878125 301.663193) scale(0.1 -0.1)">
       <use xlink:href="#DejaVuSans-2d"/>
       <use xlink:href="#DejaVuSans-30" x="36.083984"/>
       <use xlink:href="#DejaVuSans-2e" x="99.707031"/>
       <use xlink:href="#DejaVuSans-34" x="131.494141"/>
      </g>
     </g>
    </g>
    <g id="ytick_6">
     <g id="line2d_20">
      <g>
       <use xlink:href="#m3a76ebc89c" x="47.389063" y="264.468316" style="stroke: #000000; stroke-width: 0.8"/>
      </g>
     </g>
     <g id="text_16">
      <!-- -0.2 -->
      <g transform="translate(20.878125 268.267534) scale(0.1 -0.1)">
       <use xlink:href="#DejaVuSans-2d"/>
       <use xlink:href="#DejaVuSans-30" x="36.083984"/>
       <use xlink:href="#DejaVuSans-2e" x="99.707031"/>
       <use xlink:href="#DejaVuSans-32" x="131.494141"/>
      </g>
     </g>
    </g>
    <g id="ytick_7">
     <g id="line2d_21">
      <g>
       <use xlink:href="#m3a76ebc89c" x="47.389063" y="231.072657" style="stroke: #000000; stroke-width: 0.8"/>
      </g>
     </g>
     <g id="text_17">
      <!-- 0 -->
      <g transform="translate(34.026563 234.871876) scale(0.1 -0.1)">
       <use xlink:href="#DejaVuSans-30"/>
      </g>
     </g>
    </g>
    <g id="ytick_8">
     <g id="line2d_22">
      <g>
       <use xlink:href="#m3a76ebc89c" x="47.389063" y="197.676999" style="stroke: #000000; stroke-width: 0.8"/>
      </g>
     </g>
     <g id="text_18">
      <!-- 0.2 -->
      <g transform="translate(24.485938 201.476217) scale(0.1 -0.1)">
       <use xlink:href="#DejaVuSans-30"/>
       <use xlink:href="#DejaVuSans-2e" x="63.623047"/>
       <use xlink:href="#DejaVuSans-32" x="95.410156"/>
      </g>
     </g>
    </g>
    <g id="text_19">
     <!-- Im$(S_{21})$ [V] -->
     <g transform="translate(14.798438 274.142) rotate(-90) scale(0.1 -0.1)">
      <defs>
       <path id="DejaVuSans-49" d="M 628 4666 
L 1259 4666 
L 1259 0 
L 628 0 
L 628 4666 
z
" transform="scale(0.015625)"/>
      </defs>
      <use xlink:href="#DejaVuSans-49" transform="translate(0 0.015625)"/>
      <use xlink:href="#DejaVuSans-6d" transform="translate(25.867188 0.015625)"/>
      <use xlink:href="#DejaVuSans-28" transform="translate(123.279297 0.015625)"/>
      <use xlink:href="#DejaVuSans-Oblique-53" transform="translate(162.292969 0.015625)"/>
      <use xlink:href="#DejaVuSans-32" transform="translate(225.769531 -16.390625) scale(0.7)"/>
      <use xlink:href="#DejaVuSans-31" transform="translate(270.305664 -16.390625) scale(0.7)"/>
      <use xlink:href="#DejaVuSans-29" transform="translate(317.576172 0.015625)"/>
      <use xlink:href="#DejaVuSans-20" transform="translate(356.589844 0.015625)"/>
      <use xlink:href="#DejaVuSans-5b" transform="translate(388.376953 0.015625)"/>
      <use xlink:href="#DejaVuSans-56" transform="translate(427.390625 0.015625)"/>
      <use xlink:href="#DejaVuSans-5d" transform="translate(495.798828 0.015625)"/>
     </g>
    </g>
   </g>
   <g id="line2d_23">
    <path d="M 63.62179 276.263875 
L 71.778939 273.041158 
L 75.041799 271.656313 
L 81.567518 268.745328 
L 94.618957 262.190637 
L 99.513247 259.374276 
L 107.670396 254.286659 
L 112.564686 250.937387 
L 120.721835 244.709331 
L 128.878985 237.492178 
L 132.141845 234.311604 
L 137.036134 229.135192 
L 141.930424 223.543505 
L 145.193284 219.476251 
L 151.719003 211.011788 
L 158.244723 202.406934 
L 161.507582 198.469521 
L 163.139012 196.718172 
L 164.770442 195.1905 
L 166.401872 193.920419 
L 168.033302 192.955026 
L 169.664732 192.464705 
L 171.296162 192.410182 
L 172.927592 193.053143 
L 174.559021 194.276927 
L 176.190451 196.199946 
L 177.821881 198.820156 
L 179.453311 202.246607 
L 181.084741 206.274384 
L 182.716171 210.961427 
L 184.347601 216.229518 
L 187.61046 228.013752 
L 197.39904 266.179803 
L 199.03047 271.7572 
L 200.661899 276.907914 
L 202.293329 281.509233 
L 203.924759 285.630992 
L 205.556189 289.192301 
L 207.187619 292.191911 
L 208.819049 294.768913 
L 210.450479 296.833057 
L 212.081909 298.540971 
L 213.713338 299.849209 
L 215.344768 300.827501 
L 216.976198 301.544305 
L 218.607628 302.010996 
L 220.239058 302.286504 
L 223.501918 302.350102 
L 226.764777 301.890744 
L 230.027637 301.082778 
L 233.290497 300.034924 
L 243.079076 296.023643 
L 251.236226 292.320739 
L 259.393375 288.562324 
L 275.707674 281.273409 
L 282.233393 278.47139 
L 293.653402 273.846022 
L 309.967701 267.512804 
L 319.75628 263.940116 
L 331.17629 259.863596 
L 334.439149 258.78065 
L 344.227729 255.442957 
L 358.910597 250.570344 
L 362.173457 249.575219 
L 367.067747 247.946622 
L 375.224896 245.41356 
L 381.750616 243.368253 
L 386.644905 241.921541 
L 388.276335 241.379932 
L 388.276335 241.379932 
" clip-path="url(#pec47f1cfc0)" style="fill: none; stroke: #1f77b4; stroke-width: 1.5; stroke-linecap: square"/>
    <g clip-path="url(#pec47f1cfc0)">
     <use xlink:href="#m1bdc817a49" x="63.62179" y="276.263875" style="fill: #1f77b4; stroke: #1f77b4"/>
     <use xlink:href="#m1bdc817a49" x="65.25322" y="275.635534" style="fill: #1f77b4; stroke: #1f77b4"/>
     <use xlink:href="#m1bdc817a49" x="66.88465" y="274.963374" style="fill: #1f77b4; stroke: #1f77b4"/>
     <use xlink:href="#m1bdc817a49" x="68.516079" y="274.36117" style="fill: #1f77b4; stroke: #1f77b4"/>
     <use xlink:href="#m1bdc817a49" x="70.147509" y="273.647686" style="fill: #1f77b4; stroke: #1f77b4"/>
     <use xlink:href="#m1bdc817a49" x="71.778939" y="273.041158" style="fill: #1f77b4; stroke: #1f77b4"/>
     <use xlink:href="#m1bdc817a49" x="73.410369" y="272.28991" style="fill: #1f77b4; stroke: #1f77b4"/>
     <use xlink:href="#m1bdc817a49" x="75.041799" y="271.656313" style="fill: #1f77b4; stroke: #1f77b4"/>
     <use xlink:href="#m1bdc817a49" x="76.673229" y="270.939031" style="fill: #1f77b4; stroke: #1f77b4"/>
     <use xlink:href="#m1bdc817a49" x="78.304659" y="270.237508" style="fill: #1f77b4; stroke: #1f77b4"/>
     <use xlink:href="#m1bdc817a49" x="79.936089" y="269.521369" style="fill: #1f77b4; stroke: #1f77b4"/>
     <use xlink:href="#m1bdc817a49" x="81.567518" y="268.745328" style="fill: #1f77b4; stroke: #1f77b4"/>
     <use xlink:href="#m1bdc817a49" x="83.198948" y="267.939157" style="fill: #1f77b4; stroke: #1f77b4"/>
     <use xlink:href="#m1bdc817a49" x="84.830378" y="267.175608" style="fill: #1f77b4; stroke: #1f77b4"/>
     <use xlink:href="#m1bdc817a49" x="86.461808" y="266.339585" style="fill: #1f77b4; stroke: #1f77b4"/>
     <use xlink:href="#m1bdc817a49" x="88.093238" y="265.540441" style="fill: #1f77b4; stroke: #1f77b4"/>
     <use xlink:href="#m1bdc817a49" x="89.724668" y="264.73875" style="fill: #1f77b4; stroke: #1f77b4"/>
     <use xlink:href="#m1bdc817a49" x="91.356098" y="263.844197" style="fill: #1f77b4; stroke: #1f77b4"/>
     <use xlink:href="#m1bdc817a49" x="92.987528" y="262.98459" style="fill: #1f77b4; stroke: #1f77b4"/>
     <use xlink:href="#m1bdc817a49" x="94.618957" y="262.190637" style="fill: #1f77b4; stroke: #1f77b4"/>
     <use xlink:href="#m1bdc817a49" x="96.250387" y="261.280096" style="fill: #1f77b4; stroke: #1f77b4"/>
     <use xlink:href="#m1bdc817a49" x="97.881817" y="260.250914" style="fill: #1f77b4; stroke: #1f77b4"/>
     <use xlink:href="#m1bdc817a49" x="99.513247" y="259.374276" style="fill: #1f77b4; stroke: #1f77b4"/>
     <use xlink:href="#m1bdc817a49" x="101.144677" y="258.369712" style="fill: #1f77b4; stroke: #1f77b4"/>
     <use xlink:href="#m1bdc817a49" x="102.776107" y="257.465609" style="fill: #1f77b4; stroke: #1f77b4"/>
     <use xlink:href="#m1bdc817a49" x="104.407537" y="256.437614" style="fill: #1f77b4; stroke: #1f77b4"/>
     <use xlink:href="#m1bdc817a49" x="106.038967" y="255.348423" style="fill: #1f77b4; stroke: #1f77b4"/>
     <use xlink:href="#m1bdc817a49" x="107.670396" y="254.286659" style="fill: #1f77b4; stroke: #1f77b4"/>
     <use xlink:href="#m1bdc817a49" x="109.301826" y="253.205262" style="fill: #1f77b4; stroke: #1f77b4"/>
     <use xlink:href="#m1bdc817a49" x="110.933256" y="252.079412" style="fill: #1f77b4; stroke: #1f77b4"/>
     <use xlink:href="#m1bdc817a49" x="112.564686" y="250.937387" style="fill: #1f77b4; stroke: #1f77b4"/>
     <use xlink:href="#m1bdc817a49" x="114.196116" y="249.712708" style="fill: #1f77b4; stroke: #1f77b4"/>
     <use xlink:href="#m1bdc817a49" x="115.827546" y="248.501667" style="fill: #1f77b4; stroke: #1f77b4"/>
     <use xlink:href="#m1bdc817a49" x="117.458976" y="247.306011" style="fill: #1f77b4; stroke: #1f77b4"/>
     <use xlink:href="#m1bdc817a49" x="119.090406" y="245.979195" style="fill: #1f77b4; stroke: #1f77b4"/>
     <use xlink:href="#m1bdc817a49" x="120.721835" y="244.709331" style="fill: #1f77b4; stroke: #1f77b4"/>
     <use xlink:href="#m1bdc817a49" x="122.353265" y="243.287232" style="fill: #1f77b4; stroke: #1f77b4"/>
     <use xlink:href="#m1bdc817a49" x="123.984695" y="241.8833" style="fill: #1f77b4; stroke: #1f77b4"/>
     <use xlink:href="#m1bdc817a49" x="125.616125" y="240.535658" style="fill: #1f77b4; stroke: #1f77b4"/>
     <use xlink:href="#m1bdc817a49" x="127.247555" y="239.040305" style="fill: #1f77b4; stroke: #1f77b4"/>
     <use xlink:href="#m1bdc817a49" x="128.878985" y="237.492178" style="fill: #1f77b4; stroke: #1f77b4"/>
     <use xlink:href="#m1bdc817a49" x="130.510415" y="235.934819" style="fill: #1f77b4; stroke: #1f77b4"/>
     <use xlink:href="#m1bdc817a49" x="132.141845" y="234.311604" style="fill: #1f77b4; stroke: #1f77b4"/>
     <use xlink:href="#m1bdc817a49" x="133.773274" y="232.6104" style="fill: #1f77b4; stroke: #1f77b4"/>
     <use xlink:href="#m1bdc817a49" x="135.404704" y="230.902957" style="fill: #1f77b4; stroke: #1f77b4"/>
     <use xlink:href="#m1bdc817a49" x="137.036134" y="229.135192" style="fill: #1f77b4; stroke: #1f77b4"/>
     <use xlink:href="#m1bdc817a49" x="138.667564" y="227.322528" style="fill: #1f77b4; stroke: #1f77b4"/>
     <use xlink:href="#m1bdc817a49" x="140.298994" y="225.408104" style="fill: #1f77b4; stroke: #1f77b4"/>
     <use xlink:href="#m1bdc817a49" x="141.930424" y="223.543505" style="fill: #1f77b4; stroke: #1f77b4"/>
     <use xlink:href="#m1bdc817a49" x="143.561854" y="221.555032" style="fill: #1f77b4; stroke: #1f77b4"/>
     <use xlink:href="#m1bdc817a49" x="145.193284" y="219.476251" style="fill: #1f77b4; stroke: #1f77b4"/>
     <use xlink:href="#m1bdc817a49" x="146.824713" y="217.384732" style="fill: #1f77b4; stroke: #1f77b4"/>
     <use xlink:href="#m1bdc817a49" x="148.456143" y="215.341552" style="fill: #1f77b4; stroke: #1f77b4"/>
     <use xlink:href="#m1bdc817a49" x="150.087573" y="213.186308" style="fill: #1f77b4; stroke: #1f77b4"/>
     <use xlink:href="#m1bdc817a49" x="151.719003" y="211.011788" style="fill: #1f77b4; stroke: #1f77b4"/>
     <use xlink:href="#m1bdc817a49" x="153.350433" y="208.824689" style="fill: #1f77b4; stroke: #1f77b4"/>
     <use xlink:href="#m1bdc817a49" x="154.981863" y="206.662036" style="fill: #1f77b4; stroke: #1f77b4"/>
     <use xlink:href="#m1bdc817a49" x="156.613293" y="204.51936" style="fill: #1f77b4; stroke: #1f77b4"/>
     <use xlink:href="#m1bdc817a49" x="158.244723" y="202.406934" style="fill: #1f77b4; stroke: #1f77b4"/>
     <use xlink:href="#m1bdc817a49" x="159.876152" y="200.376385" style="fill: #1f77b4; stroke: #1f77b4"/>
     <use xlink:href="#m1bdc817a49" x="161.507582" y="198.469521" style="fill: #1f77b4; stroke: #1f77b4"/>
     <use xlink:href="#m1bdc817a49" x="163.139012" y="196.718172" style="fill: #1f77b4; stroke: #1f77b4"/>
     <use xlink:href="#m1bdc817a49" x="164.770442" y="195.1905" style="fill: #1f77b4; stroke: #1f77b4"/>
     <use xlink:href="#m1bdc817a49" x="166.401872" y="193.920419" style="fill: #1f77b4; stroke: #1f77b4"/>
     <use xlink:href="#m1bdc817a49" x="168.033302" y="192.955026" style="fill: #1f77b4; stroke: #1f77b4"/>
     <use xlink:href="#m1bdc817a49" x="169.664732" y="192.464705" style="fill: #1f77b4; stroke: #1f77b4"/>
     <use xlink:href="#m1bdc817a49" x="171.296162" y="192.410182" style="fill: #1f77b4; stroke: #1f77b4"/>
     <use xlink:href="#m1bdc817a49" x="172.927592" y="193.053143" style="fill: #1f77b4; stroke: #1f77b4"/>
     <use xlink:href="#m1bdc817a49" x="174.559021" y="194.276927" style="fill: #1f77b4; stroke: #1f77b4"/>
     <use xlink:href="#m1bdc817a49" x="176.190451" y="196.199946" style="fill: #1f77b4; stroke: #1f77b4"/>
     <use xlink:href="#m1bdc817a49" x="177.821881" y="198.820156" style="fill: #1f77b4; stroke: #1f77b4"/>
     <use xlink:href="#m1bdc817a49" x="179.453311" y="202.246607" style="fill: #1f77b4; stroke: #1f77b4"/>
     <use xlink:href="#m1bdc817a49" x="181.084741" y="206.274384" style="fill: #1f77b4; stroke: #1f77b4"/>
     <use xlink:href="#m1bdc817a49" x="182.716171" y="210.961427" style="fill: #1f77b4; stroke: #1f77b4"/>
     <use xlink:href="#m1bdc817a49" x="184.347601" y="216.229518" style="fill: #1f77b4; stroke: #1f77b4"/>
     <use xlink:href="#m1bdc817a49" x="185.979031" y="221.968776" style="fill: #1f77b4; stroke: #1f77b4"/>
     <use xlink:href="#m1bdc817a49" x="187.61046" y="228.013752" style="fill: #1f77b4; stroke: #1f77b4"/>
     <use xlink:href="#m1bdc817a49" x="189.24189" y="234.413924" style="fill: #1f77b4; stroke: #1f77b4"/>
     <use xlink:href="#m1bdc817a49" x="190.87332" y="240.917019" style="fill: #1f77b4; stroke: #1f77b4"/>
     <use xlink:href="#m1bdc817a49" x="192.50475" y="247.465909" style="fill: #1f77b4; stroke: #1f77b4"/>
     <use xlink:href="#m1bdc817a49" x="194.13618" y="253.94058" style="fill: #1f77b4; stroke: #1f77b4"/>
     <use xlink:href="#m1bdc817a49" x="195.76761" y="260.169353" style="fill: #1f77b4; stroke: #1f77b4"/>
     <use xlink:href="#m1bdc817a49" x="197.39904" y="266.179803" style="fill: #1f77b4; stroke: #1f77b4"/>
     <use xlink:href="#m1bdc817a49" x="199.03047" y="271.7572" style="fill: #1f77b4; stroke: #1f77b4"/>
     <use xlink:href="#m1bdc817a49" x="200.661899" y="276.907914" style="fill: #1f77b4; stroke: #1f77b4"/>
     <use xlink:href="#m1bdc817a49" x="202.293329" y="281.509233" style="fill: #1f77b4; stroke: #1f77b4"/>
     <use xlink:href="#m1bdc817a49" x="203.924759" y="285.630992" style="fill: #1f77b4; stroke: #1f77b4"/>
     <use xlink:href="#m1bdc817a49" x="205.556189" y="289.192301" style="fill: #1f77b4; stroke: #1f77b4"/>
     <use xlink:href="#m1bdc817a49" x="207.187619" y="292.191911" style="fill: #1f77b4; stroke: #1f77b4"/>
     <use xlink:href="#m1bdc817a49" x="208.819049" y="294.768913" style="fill: #1f77b4; stroke: #1f77b4"/>
     <use xlink:href="#m1bdc817a49" x="210.450479" y="296.833057" style="fill: #1f77b4; stroke: #1f77b4"/>
     <use xlink:href="#m1bdc817a49" x="212.081909" y="298.540971" style="fill: #1f77b4; stroke: #1f77b4"/>
     <use xlink:href="#m1bdc817a49" x="213.713338" y="299.849209" style="fill: #1f77b4; stroke: #1f77b4"/>
     <use xlink:href="#m1bdc817a49" x="215.344768" y="300.827501" style="fill: #1f77b4; stroke: #1f77b4"/>
     <use xlink:href="#m1bdc817a49" x="216.976198" y="301.544305" style="fill: #1f77b4; stroke: #1f77b4"/>
     <use xlink:href="#m1bdc817a49" x="218.607628" y="302.010996" style="fill: #1f77b4; stroke: #1f77b4"/>
     <use xlink:href="#m1bdc817a49" x="220.239058" y="302.286504" style="fill: #1f77b4; stroke: #1f77b4"/>
     <use xlink:href="#m1bdc817a49" x="221.870488" y="302.373818" style="fill: #1f77b4; stroke: #1f77b4"/>
     <use xlink:href="#m1bdc817a49" x="223.501918" y="302.350102" style="fill: #1f77b4; stroke: #1f77b4"/>
     <use xlink:href="#m1bdc817a49" x="225.133348" y="302.161918" style="fill: #1f77b4; stroke: #1f77b4"/>
     <use xlink:href="#m1bdc817a49" x="226.764777" y="301.890744" style="fill: #1f77b4; stroke: #1f77b4"/>
     <use xlink:href="#m1bdc817a49" x="228.396207" y="301.517396" style="fill: #1f77b4; stroke: #1f77b4"/>
     <use xlink:href="#m1bdc817a49" x="230.027637" y="301.082778" style="fill: #1f77b4; stroke: #1f77b4"/>
     <use xlink:href="#m1bdc817a49" x="231.659067" y="300.579445" style="fill: #1f77b4; stroke: #1f77b4"/>
     <use xlink:href="#m1bdc817a49" x="233.290497" y="300.034924" style="fill: #1f77b4; stroke: #1f77b4"/>
     <use xlink:href="#m1bdc817a49" x="234.921927" y="299.385336" style="fill: #1f77b4; stroke: #1f77b4"/>
     <use xlink:href="#m1bdc817a49" x="236.553357" y="298.760478" style="fill: #1f77b4; stroke: #1f77b4"/>
     <use xlink:href="#m1bdc817a49" x="238.184787" y="298.131876" style="fill: #1f77b4; stroke: #1f77b4"/>
     <use xlink:href="#m1bdc817a49" x="239.816216" y="297.388934" style="fill: #1f77b4; stroke: #1f77b4"/>
     <use xlink:href="#m1bdc817a49" x="241.447646" y="296.683906" style="fill: #1f77b4; stroke: #1f77b4"/>
     <use xlink:href="#m1bdc817a49" x="243.079076" y="296.023643" style="fill: #1f77b4; stroke: #1f77b4"/>
     <use xlink:href="#m1bdc817a49" x="244.710506" y="295.300975" style="fill: #1f77b4; stroke: #1f77b4"/>
     <use xlink:href="#m1bdc817a49" x="246.341936" y="294.502792" style="fill: #1f77b4; stroke: #1f77b4"/>
     <use xlink:href="#m1bdc817a49" x="247.973366" y="293.786522" style="fill: #1f77b4; stroke: #1f77b4"/>
     <use xlink:href="#m1bdc817a49" x="249.604796" y="293.039463" style="fill: #1f77b4; stroke: #1f77b4"/>
     <use xlink:href="#m1bdc817a49" x="251.236226" y="292.320739" style="fill: #1f77b4; stroke: #1f77b4"/>
     <use xlink:href="#m1bdc817a49" x="252.867655" y="291.548078" style="fill: #1f77b4; stroke: #1f77b4"/>
     <use xlink:href="#m1bdc817a49" x="254.499085" y="290.804785" style="fill: #1f77b4; stroke: #1f77b4"/>
     <use xlink:href="#m1bdc817a49" x="256.130515" y="290.058634" style="fill: #1f77b4; stroke: #1f77b4"/>
     <use xlink:href="#m1bdc817a49" x="257.761945" y="289.287778" style="fill: #1f77b4; stroke: #1f77b4"/>
     <use xlink:href="#m1bdc817a49" x="259.393375" y="288.562324" style="fill: #1f77b4; stroke: #1f77b4"/>
     <use xlink:href="#m1bdc817a49" x="261.024805" y="287.822075" style="fill: #1f77b4; stroke: #1f77b4"/>
     <use xlink:href="#m1bdc817a49" x="262.656235" y="287.028027" style="fill: #1f77b4; stroke: #1f77b4"/>
     <use xlink:href="#m1bdc817a49" x="264.287665" y="286.290238" style="fill: #1f77b4; stroke: #1f77b4"/>
     <use xlink:href="#m1bdc817a49" x="265.919094" y="285.607867" style="fill: #1f77b4; stroke: #1f77b4"/>
     <use xlink:href="#m1bdc817a49" x="267.550524" y="284.860959" style="fill: #1f77b4; stroke: #1f77b4"/>
     <use xlink:href="#m1bdc817a49" x="269.181954" y="284.132361" style="fill: #1f77b4; stroke: #1f77b4"/>
     <use xlink:href="#m1bdc817a49" x="270.813384" y="283.398302" style="fill: #1f77b4; stroke: #1f77b4"/>
     <use xlink:href="#m1bdc817a49" x="272.444814" y="282.679196" style="fill: #1f77b4; stroke: #1f77b4"/>
     <use xlink:href="#m1bdc817a49" x="274.076244" y="281.98498" style="fill: #1f77b4; stroke: #1f77b4"/>
     <use xlink:href="#m1bdc817a49" x="275.707674" y="281.273409" style="fill: #1f77b4; stroke: #1f77b4"/>
     <use xlink:href="#m1bdc817a49" x="277.339104" y="280.547305" style="fill: #1f77b4; stroke: #1f77b4"/>
     <use xlink:href="#m1bdc817a49" x="278.970533" y="279.868819" style="fill: #1f77b4; stroke: #1f77b4"/>
     <use xlink:href="#m1bdc817a49" x="280.601963" y="279.16857" style="fill: #1f77b4; stroke: #1f77b4"/>
     <use xlink:href="#m1bdc817a49" x="282.233393" y="278.47139" style="fill: #1f77b4; stroke: #1f77b4"/>
     <use xlink:href="#m1bdc817a49" x="283.864823" y="277.796393" style="fill: #1f77b4; stroke: #1f77b4"/>
     <use xlink:href="#m1bdc817a49" x="285.496253" y="277.110311" style="fill: #1f77b4; stroke: #1f77b4"/>
     <use xlink:href="#m1bdc817a49" x="287.127683" y="276.418707" style="fill: #1f77b4; stroke: #1f77b4"/>
     <use xlink:href="#m1bdc817a49" x="288.759113" y="275.801117" style="fill: #1f77b4; stroke: #1f77b4"/>
     <use xlink:href="#m1bdc817a49" x="290.390543" y="275.122943" style="fill: #1f77b4; stroke: #1f77b4"/>
     <use xlink:href="#m1bdc817a49" x="292.021973" y="274.441066" style="fill: #1f77b4; stroke: #1f77b4"/>
     <use xlink:href="#m1bdc817a49" x="293.653402" y="273.846022" style="fill: #1f77b4; stroke: #1f77b4"/>
     <use xlink:href="#m1bdc817a49" x="295.284832" y="273.201688" style="fill: #1f77b4; stroke: #1f77b4"/>
     <use xlink:href="#m1bdc817a49" x="296.916262" y="272.544542" style="fill: #1f77b4; stroke: #1f77b4"/>
     <use xlink:href="#m1bdc817a49" x="298.547692" y="271.902996" style="fill: #1f77b4; stroke: #1f77b4"/>
     <use xlink:href="#m1bdc817a49" x="300.179122" y="271.262123" style="fill: #1f77b4; stroke: #1f77b4"/>
     <use xlink:href="#m1bdc817a49" x="301.810552" y="270.649714" style="fill: #1f77b4; stroke: #1f77b4"/>
     <use xlink:href="#m1bdc817a49" x="303.441982" y="270.024958" style="fill: #1f77b4; stroke: #1f77b4"/>
     <use xlink:href="#m1bdc817a49" x="305.073412" y="269.35529" style="fill: #1f77b4; stroke: #1f77b4"/>
     <use xlink:href="#m1bdc817a49" x="306.704841" y="268.743473" style="fill: #1f77b4; stroke: #1f77b4"/>
     <use xlink:href="#m1bdc817a49" x="308.336271" y="268.11127" style="fill: #1f77b4; stroke: #1f77b4"/>
     <use xlink:href="#m1bdc817a49" x="309.967701" y="267.512804" style="fill: #1f77b4; stroke: #1f77b4"/>
     <use xlink:href="#m1bdc817a49" x="311.599131" y="266.898917" style="fill: #1f77b4; stroke: #1f77b4"/>
     <use xlink:href="#m1bdc817a49" x="313.230561" y="266.34402" style="fill: #1f77b4; stroke: #1f77b4"/>
     <use xlink:href="#m1bdc817a49" x="314.861991" y="265.736496" style="fill: #1f77b4; stroke: #1f77b4"/>
     <use xlink:href="#m1bdc817a49" x="316.493421" y="265.128951" style="fill: #1f77b4; stroke: #1f77b4"/>
     <use xlink:href="#m1bdc817a49" x="318.124851" y="264.549508" style="fill: #1f77b4; stroke: #1f77b4"/>
     <use xlink:href="#m1bdc817a49" x="319.75628" y="263.940116" style="fill: #1f77b4; stroke: #1f77b4"/>
     <use xlink:href="#m1bdc817a49" x="321.38771" y="263.345584" style="fill: #1f77b4; stroke: #1f77b4"/>
     <use xlink:href="#m1bdc817a49" x="323.01914" y="262.764321" style="fill: #1f77b4; stroke: #1f77b4"/>
     <use xlink:href="#m1bdc817a49" x="324.65057" y="262.185078" style="fill: #1f77b4; stroke: #1f77b4"/>
     <use xlink:href="#m1bdc817a49" x="326.282" y="261.592785" style="fill: #1f77b4; stroke: #1f77b4"/>
     <use xlink:href="#m1bdc817a49" x="327.91343" y="261.026451" style="fill: #1f77b4; stroke: #1f77b4"/>
     <use xlink:href="#m1bdc817a49" x="329.54486" y="260.459648" style="fill: #1f77b4; stroke: #1f77b4"/>
     <use xlink:href="#m1bdc817a49" x="331.17629" y="259.863596" style="fill: #1f77b4; stroke: #1f77b4"/>
     <use xlink:href="#m1bdc817a49" x="332.807719" y="259.354186" style="fill: #1f77b4; stroke: #1f77b4"/>
     <use xlink:href="#m1bdc817a49" x="334.439149" y="258.78065" style="fill: #1f77b4; stroke: #1f77b4"/>
     <use xlink:href="#m1bdc817a49" x="336.070579" y="258.207063" style="fill: #1f77b4; stroke: #1f77b4"/>
     <use xlink:href="#m1bdc817a49" x="337.702009" y="257.694895" style="fill: #1f77b4; stroke: #1f77b4"/>
     <use xlink:href="#m1bdc817a49" x="339.333439" y="257.095077" style="fill: #1f77b4; stroke: #1f77b4"/>
     <use xlink:href="#m1bdc817a49" x="340.964869" y="256.529123" style="fill: #1f77b4; stroke: #1f77b4"/>
     <use xlink:href="#m1bdc817a49" x="342.596299" y="255.991584" style="fill: #1f77b4; stroke: #1f77b4"/>
     <use xlink:href="#m1bdc817a49" x="344.227729" y="255.442957" style="fill: #1f77b4; stroke: #1f77b4"/>
     <use xlink:href="#m1bdc817a49" x="345.859158" y="254.892862" style="fill: #1f77b4; stroke: #1f77b4"/>
     <use xlink:href="#m1bdc817a49" x="347.490588" y="254.351686" style="fill: #1f77b4; stroke: #1f77b4"/>
     <use xlink:href="#m1bdc817a49" x="349.122018" y="253.786429" style="fill: #1f77b4; stroke: #1f77b4"/>
     <use xlink:href="#m1bdc817a49" x="350.753448" y="253.263685" style="fill: #1f77b4; stroke: #1f77b4"/>
     <use xlink:href="#m1bdc817a49" x="352.384878" y="252.745644" style="fill: #1f77b4; stroke: #1f77b4"/>
     <use xlink:href="#m1bdc817a49" x="354.016308" y="252.219379" style="fill: #1f77b4; stroke: #1f77b4"/>
     <use xlink:href="#m1bdc817a49" x="355.647738" y="251.636357" style="fill: #1f77b4; stroke: #1f77b4"/>
     <use xlink:href="#m1bdc817a49" x="357.279168" y="251.143985" style="fill: #1f77b4; stroke: #1f77b4"/>
     <use xlink:href="#m1bdc817a49" x="358.910597" y="250.570344" style="fill: #1f77b4; stroke: #1f77b4"/>
     <use xlink:href="#m1bdc817a49" x="360.542027" y="250.125334" style="fill: #1f77b4; stroke: #1f77b4"/>
     <use xlink:href="#m1bdc817a49" x="362.173457" y="249.575219" style="fill: #1f77b4; stroke: #1f77b4"/>
     <use xlink:href="#m1bdc817a49" x="363.804887" y="249.00102" style="fill: #1f77b4; stroke: #1f77b4"/>
     <use xlink:href="#m1bdc817a49" x="365.436317" y="248.488653" style="fill: #1f77b4; stroke: #1f77b4"/>
     <use xlink:href="#m1bdc817a49" x="367.067747" y="247.946622" style="fill: #1f77b4; stroke: #1f77b4"/>
     <use xlink:href="#m1bdc817a49" x="368.699177" y="247.461562" style="fill: #1f77b4; stroke: #1f77b4"/>
     <use xlink:href="#m1bdc817a49" x="370.330607" y="246.913248" style="fill: #1f77b4; stroke: #1f77b4"/>
     <use xlink:href="#m1bdc817a49" x="371.962036" y="246.434059" style="fill: #1f77b4; stroke: #1f77b4"/>
     <use xlink:href="#m1bdc817a49" x="373.593466" y="245.920586" style="fill: #1f77b4; stroke: #1f77b4"/>
     <use xlink:href="#m1bdc817a49" x="375.224896" y="245.41356" style="fill: #1f77b4; stroke: #1f77b4"/>
     <use xlink:href="#m1bdc817a49" x="376.856326" y="244.875103" style="fill: #1f77b4; stroke: #1f77b4"/>
     <use xlink:href="#m1bdc817a49" x="378.487756" y="244.393705" style="fill: #1f77b4; stroke: #1f77b4"/>
     <use xlink:href="#m1bdc817a49" x="380.119186" y="243.867375" style="fill: #1f77b4; stroke: #1f77b4"/>
     <use xlink:href="#m1bdc817a49" x="381.750616" y="243.368253" style="fill: #1f77b4; stroke: #1f77b4"/>
     <use xlink:href="#m1bdc817a49" x="383.382046" y="242.914164" style="fill: #1f77b4; stroke: #1f77b4"/>
     <use xlink:href="#m1bdc817a49" x="385.013475" y="242.350374" style="fill: #1f77b4; stroke: #1f77b4"/>
     <use xlink:href="#m1bdc817a49" x="386.644905" y="241.921541" style="fill: #1f77b4; stroke: #1f77b4"/>
     <use xlink:href="#m1bdc817a49" x="388.276335" y="241.379932" style="fill: #1f77b4; stroke: #1f77b4"/>
    </g>
   </g>
   <g id="line2d_24">
    <path d="M 63.62179 273.934488 
L 72.396237 270.948305 
L 80.520725 267.949773 
L 87.995254 264.95196 
L 94.819824 261.974539 
L 100.994435 259.045141 
L 106.844067 256.025606 
L 112.368719 252.917072 
L 117.568391 249.724873 
L 122.443084 246.45979 
L 126.992797 243.139316 
L 131.217531 239.788733 
L 135.442265 236.151122 
L 139.666999 232.199543 
L 143.566753 228.256238 
L 147.791487 223.661617 
L 152.3412 218.375672 
L 164.040463 204.55297 
L 166.31532 202.333856 
L 168.265197 200.762076 
L 169.890094 199.766916 
L 171.190013 199.227419 
L 172.489931 198.958297 
L 173.464869 198.958268 
L 174.439808 199.150338 
L 175.414746 199.551314 
L 176.389685 200.177126 
L 177.364624 201.042268 
L 178.339562 202.15919 
L 179.63948 204.056501 
L 180.939398 206.432123 
L 182.239316 209.28686 
L 183.864214 213.506198 
L 185.489112 218.388928 
L 187.438989 224.980958 
L 190.038825 234.622964 
L 196.213436 257.8637 
L 198.488293 265.42091 
L 200.43817 271.180183 
L 202.388047 276.217123 
L 204.012945 279.857191 
L 205.637842 283.006298 
L 207.26274 285.691902 
L 208.887637 287.948972 
L 210.512535 289.816418 
L 212.137433 291.334379 
L 213.76233 292.542291 
L 215.387228 293.477604 
L 217.012126 294.175018 
L 218.962003 294.742091 
L 220.91188 295.060205 
L 223.186737 295.172087 
L 225.461593 295.057718 
L 228.061429 294.708683 
L 231.311225 294.024336 
L 235.210979 292.945584 
L 240.085672 291.345199 
L 247.235221 288.734851 
L 276.158399 277.947163 
L 287.857662 273.92956 
L 300.206884 269.9311 
L 313.531044 265.858844 
L 328.155123 261.628339 
L 344.404099 257.163616 
L 362.927932 252.312178 
L 383.726622 247.099864 
L 388.276335 245.98708 
L 388.276335 245.98708 
" clip-path="url(#pec47f1cfc0)" style="fill: none; stroke: #d62728; stroke-width: 1.5; stroke-linecap: square"/>
   </g>
   <g id="patch_9">
    <path d="M 47.389063 307.872 
L 47.389063 186.912 
" style="fill: none; stroke: #000000; stroke-width: 0.8; stroke-linejoin: miter; stroke-linecap: square"/>
   </g>
   <g id="patch_10">
    <path d="M 404.509063 307.872 
L 404.509063 186.912 
" style="fill: none; stroke: #000000; stroke-width: 0.8; stroke-linejoin: miter; stroke-linecap: square"/>
   </g>
   <g id="patch_11">
    <path d="M 47.389063 307.872 
L 404.509063 307.872 
" style="fill: none; stroke: #000000; stroke-width: 0.8; stroke-linejoin: miter; stroke-linecap: square"/>
   </g>
   <g id="patch_12">
    <path d="M 47.389063 186.912 
L 404.509063 186.912 
" style="fill: none; stroke: #000000; stroke-width: 0.8; stroke-linejoin: miter; stroke-linecap: square"/>
   </g>
  </g>
  <g id="text_20">
   <!-- S21 resonator spectroscopy -->
   <g transform="translate(136.404688 16.318125) scale(0.12 -0.12)">
    <defs>
     <path id="DejaVuSans-73" d="M 2834 3397 
L 2834 2853 
Q 2591 2978 2328 3040 
Q 2066 3103 1784 3103 
Q 1356 3103 1142 2972 
Q 928 2841 928 2578 
Q 928 2378 1081 2264 
Q 1234 2150 1697 2047 
L 1894 2003 
Q 2506 1872 2764 1633 
Q 3022 1394 3022 966 
Q 3022 478 2636 193 
Q 2250 -91 1575 -91 
Q 1294 -91 989 -36 
Q 684 19 347 128 
L 347 722 
Q 666 556 975 473 
Q 1284 391 1588 391 
Q 1994 391 2212 530 
Q 2431 669 2431 922 
Q 2431 1156 2273 1281 
Q 2116 1406 1581 1522 
L 1381 1569 
Q 847 1681 609 1914 
Q 372 2147 372 2553 
Q 372 3047 722 3315 
Q 1072 3584 1716 3584 
Q 2034 3584 2315 3537 
Q 2597 3491 2834 3397 
z
" transform="scale(0.015625)"/>
     <path id="DejaVuSans-6f" d="M 1959 3097 
Q 1497 3097 1228 2736 
Q 959 2375 959 1747 
Q 959 1119 1226 758 
Q 1494 397 1959 397 
Q 2419 397 2687 759 
Q 2956 1122 2956 1747 
Q 2956 2369 2687 2733 
Q 2419 3097 1959 3097 
z
M 1959 3584 
Q 2709 3584 3137 3096 
Q 3566 2609 3566 1747 
Q 3566 888 3137 398 
Q 2709 -91 1959 -91 
Q 1206 -91 779 398 
Q 353 888 353 1747 
Q 353 2609 779 3096 
Q 1206 3584 1959 3584 
z
" transform="scale(0.015625)"/>
     <path id="DejaVuSans-74" d="M 1172 4494 
L 1172 3500 
L 2356 3500 
L 2356 3053 
L 1172 3053 
L 1172 1153 
Q 1172 725 1289 603 
Q 1406 481 1766 481 
L 2356 481 
L 2356 0 
L 1766 0 
Q 1100 0 847 248 
Q 594 497 594 1153 
L 594 3053 
L 172 3053 
L 172 3500 
L 594 3500 
L 594 4494 
L 1172 4494 
z
" transform="scale(0.015625)"/>
     <path id="DejaVuSans-70" d="M 1159 525 
L 1159 -1331 
L 581 -1331 
L 581 3500 
L 1159 3500 
L 1159 2969 
Q 1341 3281 1617 3432 
Q 1894 3584 2278 3584 
Q 2916 3584 3314 3078 
Q 3713 2572 3713 1747 
Q 3713 922 3314 415 
Q 2916 -91 2278 -91 
Q 1894 -91 1617 61 
Q 1341 213 1159 525 
z
M 3116 1747 
Q 3116 2381 2855 2742 
Q 2594 3103 2138 3103 
Q 1681 3103 1420 2742 
Q 1159 2381 1159 1747 
Q 1159 1113 1420 752 
Q 1681 391 2138 391 
Q 2594 391 2855 752 
Q 3116 1113 3116 1747 
z
" transform="scale(0.015625)"/>
    </defs>
    <use xlink:href="#DejaVuSans-53"/>
    <use xlink:href="#DejaVuSans-32" x="63.476562"/>
    <use xlink:href="#DejaVuSans-31" x="127.099609"/>
    <use xlink:href="#DejaVuSans-20" x="190.722656"/>
    <use xlink:href="#DejaVuSans-72" x="222.509766"/>
    <use xlink:href="#DejaVuSans-65" x="261.373047"/>
    <use xlink:href="#DejaVuSans-73" x="322.896484"/>
    <use xlink:href="#DejaVuSans-6f" x="374.996094"/>
    <use xlink:href="#DejaVuSans-6e" x="436.177734"/>
    <use xlink:href="#DejaVuSans-61" x="499.556641"/>
    <use xlink:href="#DejaVuSans-74" x="560.835938"/>
    <use xlink:href="#DejaVuSans-6f" x="600.044922"/>
    <use xlink:href="#DejaVuSans-72" x="661.226562"/>
    <use xlink:href="#DejaVuSans-20" x="702.339844"/>
    <use xlink:href="#DejaVuSans-73" x="734.126953"/>
    <use xlink:href="#DejaVuSans-70" x="786.226562"/>
    <use xlink:href="#DejaVuSans-65" x="849.703125"/>
    <use xlink:href="#DejaVuSans-63" x="911.226562"/>
    <use xlink:href="#DejaVuSans-74" x="966.207031"/>
    <use xlink:href="#DejaVuSans-72" x="1005.416016"/>
    <use xlink:href="#DejaVuSans-6f" x="1044.279297"/>
    <use xlink:href="#DejaVuSans-73" x="1105.460938"/>
    <use xlink:href="#DejaVuSans-63" x="1157.560547"/>
    <use xlink:href="#DejaVuSans-6f" x="1212.541016"/>
    <use xlink:href="#DejaVuSans-70" x="1273.722656"/>
    <use xlink:href="#DejaVuSans-79" x="1337.199219"/>
   </g>
   <!-- tuid: 20240103-190033-970-2b8a6e -->
   <g transform="translate(110.608438 29.7555) scale(0.12 -0.12)">
    <defs>
     <path id="DejaVuSans-69" d="M 603 3500 
L 1178 3500 
L 1178 0 
L 603 0 
L 603 3500 
z
M 603 4863 
L 1178 4863 
L 1178 4134 
L 603 4134 
L 603 4863 
z
" transform="scale(0.015625)"/>
     <path id="DejaVuSans-64" d="M 2906 2969 
L 2906 4863 
L 3481 4863 
L 3481 0 
L 2906 0 
L 2906 525 
Q 2725 213 2448 61 
Q 2172 -91 1784 -91 
Q 1150 -91 751 415 
Q 353 922 353 1747 
Q 353 2572 751 3078 
Q 1150 3584 1784 3584 
Q 2172 3584 2448 3432 
Q 2725 3281 2906 2969 
z
M 947 1747 
Q 947 1113 1208 752 
Q 1469 391 1925 391 
Q 2381 391 2643 752 
Q 2906 1113 2906 1747 
Q 2906 2381 2643 2742 
Q 2381 3103 1925 3103 
Q 1469 3103 1208 2742 
Q 947 2381 947 1747 
z
" transform="scale(0.015625)"/>
     <path id="DejaVuSans-39" d="M 703 97 
L 703 672 
Q 941 559 1184 500 
Q 1428 441 1663 441 
Q 2288 441 2617 861 
Q 2947 1281 2994 2138 
Q 2813 1869 2534 1725 
Q 2256 1581 1919 1581 
Q 1219 1581 811 2004 
Q 403 2428 403 3163 
Q 403 3881 828 4315 
Q 1253 4750 1959 4750 
Q 2769 4750 3195 4129 
Q 3622 3509 3622 2328 
Q 3622 1225 3098 567 
Q 2575 -91 1691 -91 
Q 1453 -91 1209 -44 
Q 966 3 703 97 
z
M 1959 2075 
Q 2384 2075 2632 2365 
Q 2881 2656 2881 3163 
Q 2881 3666 2632 3958 
Q 2384 4250 1959 4250 
Q 1534 4250 1286 3958 
Q 1038 3666 1038 3163 
Q 1038 2656 1286 2365 
Q 1534 2075 1959 2075 
z
" transform="scale(0.015625)"/>
     <path id="DejaVuSans-62" d="M 3116 1747 
Q 3116 2381 2855 2742 
Q 2594 3103 2138 3103 
Q 1681 3103 1420 2742 
Q 1159 2381 1159 1747 
Q 1159 1113 1420 752 
Q 1681 391 2138 391 
Q 2594 391 2855 752 
Q 3116 1113 3116 1747 
z
M 1159 2969 
Q 1341 3281 1617 3432 
Q 1894 3584 2278 3584 
Q 2916 3584 3314 3078 
Q 3713 2572 3713 1747 
Q 3713 922 3314 415 
Q 2916 -91 2278 -91 
Q 1894 -91 1617 61 
Q 1341 213 1159 525 
L 1159 0 
L 581 0 
L 581 4863 
L 1159 4863 
L 1159 2969 
z
" transform="scale(0.015625)"/>
    </defs>
    <use xlink:href="#DejaVuSans-74"/>
    <use xlink:href="#DejaVuSans-75" x="39.208984"/>
    <use xlink:href="#DejaVuSans-69" x="102.587891"/>
    <use xlink:href="#DejaVuSans-64" x="130.371094"/>
    <use xlink:href="#DejaVuSans-3a" x="193.847656"/>
    <use xlink:href="#DejaVuSans-20" x="227.539062"/>
    <use xlink:href="#DejaVuSans-32" x="259.326172"/>
    <use xlink:href="#DejaVuSans-30" x="322.949219"/>
    <use xlink:href="#DejaVuSans-32" x="386.572266"/>
    <use xlink:href="#DejaVuSans-34" x="450.195312"/>
    <use xlink:href="#DejaVuSans-30" x="513.818359"/>
    <use xlink:href="#DejaVuSans-31" x="577.441406"/>
    <use xlink:href="#DejaVuSans-30" x="641.064453"/>
    <use xlink:href="#DejaVuSans-33" x="704.6875"/>
    <use xlink:href="#DejaVuSans-2d" x="768.310547"/>
    <use xlink:href="#DejaVuSans-31" x="804.394531"/>
    <use xlink:href="#DejaVuSans-39" x="868.017578"/>
    <use xlink:href="#DejaVuSans-30" x="931.640625"/>
    <use xlink:href="#DejaVuSans-30" x="995.263672"/>
    <use xlink:href="#DejaVuSans-33" x="1058.886719"/>
    <use xlink:href="#DejaVuSans-33" x="1122.509766"/>
    <use xlink:href="#DejaVuSans-2d" x="1186.132812"/>
    <use xlink:href="#DejaVuSans-39" x="1222.216797"/>
    <use xlink:href="#DejaVuSans-37" x="1285.839844"/>
    <use xlink:href="#DejaVuSans-30" x="1349.462891"/>
    <use xlink:href="#DejaVuSans-2d" x="1413.085938"/>
    <use xlink:href="#DejaVuSans-32" x="1449.169922"/>
    <use xlink:href="#DejaVuSans-62" x="1512.792969"/>
    <use xlink:href="#DejaVuSans-38" x="1576.269531"/>
    <use xlink:href="#DejaVuSans-61" x="1639.892578"/>
    <use xlink:href="#DejaVuSans-36" x="1701.171875"/>
    <use xlink:href="#DejaVuSans-65" x="1764.794922"/>
   </g>
  </g>
 </g>
 <defs>
  <clipPath id="p131812ca11">
   <rect x="47.389063" y="41.76" width="357.12" height="120.96"/>
  </clipPath>
  <clipPath id="pec47f1cfc0">
   <rect x="47.389063" y="186.912" width="357.12" height="120.96"/>
  </clipPath>
 </defs>
</svg>
