<?xml version="1.0" encoding="utf-8" standalone="no"?>
<!DOCTYPE svg PUBLIC "-//W3C//DTD SVG 1.1//EN"
  "http://www.w3.org/Graphics/SVG/1.1/DTD/svg11.dtd">
<svg xmlns:xlink="http://www.w3.org/1999/xlink" width="577.749437pt" height="345.42825pt" viewBox="0 0 577.749437 345.42825" xmlns="http://www.w3.org/2000/svg" version="1.1">
 <metadata>
  <rdf:RDF xmlns:dc="http://purl.org/dc/elements/1.1/" xmlns:cc="http://creativecommons.org/ns#" xmlns:rdf="http://www.w3.org/1999/02/22-rdf-syntax-ns#">
   <cc:Work>
    <dc:type rdf:resource="http://purl.org/dc/dcmitype/StillImage"/>
    <dc:date>2024-03-18T13:13:49.077432</dc:date>
    <dc:format>image/svg+xml</dc:format>
    <dc:creator>
     <cc:Agent>
      <dc:title>Matplotlib v3.8.3, https://matplotlib.org/</dc:title>
     </cc:Agent>
    </dc:creator>
   </cc:Work>
  </rdf:RDF>
 </metadata>
 <defs>
  <style type="text/css">*{stroke-linejoin: round; stroke-linecap: butt}</style>
 </defs>
 <g id="figure_1">
  <g id="patch_1">
   <path d="M 0 345.42825 
L 577.749437 345.42825 
L 577.749437 -0 
L 0 -0 
L 0 345.42825 
z
" style="fill: none; opacity: 0"/>
  </g>
  <g id="axes_1">
   <g id="patch_2">
    <path d="M 50.573438 307.872 
L 407.693438 307.872 
L 407.693438 41.76 
L 50.573438 41.76 
z
" style="fill: #ffffff"/>
   </g>
   <g id="matplotlib.axis_1">
    <g id="xtick_1">
     <g id="line2d_1">
      <defs>
       <path id="m76695ceff1" d="M 0 0 
L 0 3.5 
" style="stroke: #000000; stroke-width: 0.8"/>
      </defs>
      <g>
       <use xlink:href="#m76695ceff1" x="71.993137" y="307.872" style="stroke: #000000; stroke-width: 0.8"/>
      </g>
     </g>
     <g id="text_1">
      <!-- -300 -->
      <g transform="translate(60.645481 322.470438) scale(0.1 -0.1)">
       <defs>
        <path id="DejaVuSans-2d" d="M 313 2009 
L 1997 2009 
L 1997 1497 
L 313 1497 
L 313 2009 
z
" transform="scale(0.015625)"/>
        <path id="DejaVuSans-33" d="M 2597 2516 
Q 3050 2419 3304 2112 
Q 3559 1806 3559 1356 
Q 3559 666 3084 287 
Q 2609 -91 1734 -91 
Q 1441 -91 1130 -33 
Q 819 25 488 141 
L 488 750 
Q 750 597 1062 519 
Q 1375 441 1716 441 
Q 2309 441 2620 675 
Q 2931 909 2931 1356 
Q 2931 1769 2642 2001 
Q 2353 2234 1838 2234 
L 1294 2234 
L 1294 2753 
L 1863 2753 
Q 2328 2753 2575 2939 
Q 2822 3125 2822 3475 
Q 2822 3834 2567 4026 
Q 2313 4219 1838 4219 
Q 1578 4219 1281 4162 
Q 984 4106 628 3988 
L 628 4550 
Q 988 4650 1302 4700 
Q 1616 4750 1894 4750 
Q 2613 4750 3031 4423 
Q 3450 4097 3450 3541 
Q 3450 3153 3228 2886 
Q 3006 2619 2597 2516 
z
" transform="scale(0.015625)"/>
        <path id="DejaVuSans-30" d="M 2034 4250 
Q 1547 4250 1301 3770 
Q 1056 3291 1056 2328 
Q 1056 1369 1301 889 
Q 1547 409 2034 409 
Q 2525 409 2770 889 
Q 3016 1369 3016 2328 
Q 3016 3291 2770 3770 
Q 2525 4250 2034 4250 
z
M 2034 4750 
Q 2819 4750 3233 4129 
Q 3647 3509 3647 2328 
Q 3647 1150 3233 529 
Q 2819 -91 2034 -91 
Q 1250 -91 836 529 
Q 422 1150 422 2328 
Q 422 3509 836 4129 
Q 1250 4750 2034 4750 
z
" transform="scale(0.015625)"/>
       </defs>
       <use xlink:href="#DejaVuSans-2d"/>
       <use xlink:href="#DejaVuSans-33" x="36.083984"/>
       <use xlink:href="#DejaVuSans-30" x="99.707031"/>
       <use xlink:href="#DejaVuSans-30" x="163.330078"/>
      </g>
     </g>
    </g>
    <g id="xtick_2">
     <g id="line2d_2">
      <g>
       <use xlink:href="#m76695ceff1" x="134.491909" y="307.872" style="stroke: #000000; stroke-width: 0.8"/>
      </g>
     </g>
     <g id="text_2">
      <!-- -250 -->
      <g transform="translate(123.144252 322.470438) scale(0.1 -0.1)">
       <defs>
        <path id="DejaVuSans-32" d="M 1228 531 
L 3431 531 
L 3431 0 
L 469 0 
L 469 531 
Q 828 903 1448 1529 
Q 2069 2156 2228 2338 
Q 2531 2678 2651 2914 
Q 2772 3150 2772 3378 
Q 2772 3750 2511 3984 
Q 2250 4219 1831 4219 
Q 1534 4219 1204 4116 
Q 875 4013 500 3803 
L 500 4441 
Q 881 4594 1212 4672 
Q 1544 4750 1819 4750 
Q 2544 4750 2975 4387 
Q 3406 4025 3406 3419 
Q 3406 3131 3298 2873 
Q 3191 2616 2906 2266 
Q 2828 2175 2409 1742 
Q 1991 1309 1228 531 
z
" transform="scale(0.015625)"/>
        <path id="DejaVuSans-35" d="M 691 4666 
L 3169 4666 
L 3169 4134 
L 1269 4134 
L 1269 2991 
Q 1406 3038 1543 3061 
Q 1681 3084 1819 3084 
Q 2600 3084 3056 2656 
Q 3513 2228 3513 1497 
Q 3513 744 3044 326 
Q 2575 -91 1722 -91 
Q 1428 -91 1123 -41 
Q 819 9 494 109 
L 494 744 
Q 775 591 1075 516 
Q 1375 441 1709 441 
Q 2250 441 2565 725 
Q 2881 1009 2881 1497 
Q 2881 1984 2565 2268 
Q 2250 2553 1709 2553 
Q 1456 2553 1204 2497 
Q 953 2441 691 2322 
L 691 4666 
z
" transform="scale(0.015625)"/>
       </defs>
       <use xlink:href="#DejaVuSans-2d"/>
       <use xlink:href="#DejaVuSans-32" x="36.083984"/>
       <use xlink:href="#DejaVuSans-35" x="99.707031"/>
       <use xlink:href="#DejaVuSans-30" x="163.330078"/>
      </g>
     </g>
    </g>
    <g id="xtick_3">
     <g id="line2d_3">
      <g>
       <use xlink:href="#m76695ceff1" x="196.99068" y="307.872" style="stroke: #000000; stroke-width: 0.8"/>
      </g>
     </g>
     <g id="text_3">
      <!-- -200 -->
      <g transform="translate(185.643024 322.470438) scale(0.1 -0.1)">
       <use xlink:href="#DejaVuSans-2d"/>
       <use xlink:href="#DejaVuSans-32" x="36.083984"/>
       <use xlink:href="#DejaVuSans-30" x="99.707031"/>
       <use xlink:href="#DejaVuSans-30" x="163.330078"/>
      </g>
     </g>
    </g>
    <g id="xtick_4">
     <g id="line2d_4">
      <g>
       <use xlink:href="#m76695ceff1" x="259.489451" y="307.872" style="stroke: #000000; stroke-width: 0.8"/>
      </g>
     </g>
     <g id="text_4">
      <!-- -150 -->
      <g transform="translate(248.141795 322.470438) scale(0.1 -0.1)">
       <defs>
        <path id="DejaVuSans-31" d="M 794 531 
L 1825 531 
L 1825 4091 
L 703 3866 
L 703 4441 
L 1819 4666 
L 2450 4666 
L 2450 531 
L 3481 531 
L 3481 0 
L 794 0 
L 794 531 
z
" transform="scale(0.015625)"/>
       </defs>
       <use xlink:href="#DejaVuSans-2d"/>
       <use xlink:href="#DejaVuSans-31" x="36.083984"/>
       <use xlink:href="#DejaVuSans-35" x="99.707031"/>
       <use xlink:href="#DejaVuSans-30" x="163.330078"/>
      </g>
     </g>
    </g>
    <g id="xtick_5">
     <g id="line2d_5">
      <g>
       <use xlink:href="#m76695ceff1" x="321.988223" y="307.872" style="stroke: #000000; stroke-width: 0.8"/>
      </g>
     </g>
     <g id="text_5">
      <!-- -100 -->
      <g transform="translate(310.640566 322.470438) scale(0.1 -0.1)">
       <use xlink:href="#DejaVuSans-2d"/>
       <use xlink:href="#DejaVuSans-31" x="36.083984"/>
       <use xlink:href="#DejaVuSans-30" x="99.707031"/>
       <use xlink:href="#DejaVuSans-30" x="163.330078"/>
      </g>
     </g>
    </g>
    <g id="xtick_6">
     <g id="line2d_6">
      <g>
       <use xlink:href="#m76695ceff1" x="384.486994" y="307.872" style="stroke: #000000; stroke-width: 0.8"/>
      </g>
     </g>
     <g id="text_6">
      <!-- -50 -->
      <g transform="translate(376.320588 322.470438) scale(0.1 -0.1)">
       <use xlink:href="#DejaVuSans-2d"/>
       <use xlink:href="#DejaVuSans-35" x="36.083984"/>
       <use xlink:href="#DejaVuSans-30" x="99.707031"/>
      </g>
     </g>
    </g>
    <g id="text_7">
     <!-- Re$(S_{21})$ [mV] -->
     <g transform="translate(197.133438 336.148562) scale(0.1 -0.1)">
      <defs>
       <path id="DejaVuSans-52" d="M 2841 2188 
Q 3044 2119 3236 1894 
Q 3428 1669 3622 1275 
L 4263 0 
L 3584 0 
L 2988 1197 
Q 2756 1666 2539 1819 
Q 2322 1972 1947 1972 
L 1259 1972 
L 1259 0 
L 628 0 
L 628 4666 
L 2053 4666 
Q 2853 4666 3247 4331 
Q 3641 3997 3641 3322 
Q 3641 2881 3436 2590 
Q 3231 2300 2841 2188 
z
M 1259 4147 
L 1259 2491 
L 2053 2491 
Q 2509 2491 2742 2702 
Q 2975 2913 2975 3322 
Q 2975 3731 2742 3939 
Q 2509 4147 2053 4147 
L 1259 4147 
z
" transform="scale(0.015625)"/>
       <path id="DejaVuSans-65" d="M 3597 1894 
L 3597 1613 
L 953 1613 
Q 991 1019 1311 708 
Q 1631 397 2203 397 
Q 2534 397 2845 478 
Q 3156 559 3463 722 
L 3463 178 
Q 3153 47 2828 -22 
Q 2503 -91 2169 -91 
Q 1331 -91 842 396 
Q 353 884 353 1716 
Q 353 2575 817 3079 
Q 1281 3584 2069 3584 
Q 2775 3584 3186 3129 
Q 3597 2675 3597 1894 
z
M 3022 2063 
Q 3016 2534 2758 2815 
Q 2500 3097 2075 3097 
Q 1594 3097 1305 2825 
Q 1016 2553 972 2059 
L 3022 2063 
z
" transform="scale(0.015625)"/>
       <path id="DejaVuSans-28" d="M 1984 4856 
Q 1566 4138 1362 3434 
Q 1159 2731 1159 2009 
Q 1159 1288 1364 580 
Q 1569 -128 1984 -844 
L 1484 -844 
Q 1016 -109 783 600 
Q 550 1309 550 2009 
Q 550 2706 781 3412 
Q 1013 4119 1484 4856 
L 1984 4856 
z
" transform="scale(0.015625)"/>
       <path id="DejaVuSans-Oblique-53" d="M 3859 4513 
L 3738 3897 
Q 3422 4066 3111 4152 
Q 2800 4238 2509 4238 
Q 1944 4238 1609 3991 
Q 1275 3744 1275 3334 
Q 1275 3109 1398 2989 
Q 1522 2869 2034 2731 
L 2413 2638 
Q 3053 2472 3303 2217 
Q 3553 1963 3553 1503 
Q 3553 797 2998 353 
Q 2444 -91 1538 -91 
Q 1166 -91 791 -17 
Q 416 56 38 206 
L 166 856 
Q 513 641 861 531 
Q 1209 422 1556 422 
Q 2147 422 2503 684 
Q 2859 947 2859 1369 
Q 2859 1650 2717 1795 
Q 2575 1941 2106 2059 
L 1728 2156 
Q 1081 2325 845 2545 
Q 609 2766 609 3163 
Q 609 3859 1145 4304 
Q 1681 4750 2541 4750 
Q 2875 4750 3203 4690 
Q 3531 4631 3859 4513 
z
" transform="scale(0.015625)"/>
       <path id="DejaVuSans-29" d="M 513 4856 
L 1013 4856 
Q 1481 4119 1714 3412 
Q 1947 2706 1947 2009 
Q 1947 1309 1714 600 
Q 1481 -109 1013 -844 
L 513 -844 
Q 928 -128 1133 580 
Q 1338 1288 1338 2009 
Q 1338 2731 1133 3434 
Q 928 4138 513 4856 
z
" transform="scale(0.015625)"/>
       <path id="DejaVuSans-20" transform="scale(0.015625)"/>
       <path id="DejaVuSans-5b" d="M 550 4863 
L 1875 4863 
L 1875 4416 
L 1125 4416 
L 1125 -397 
L 1875 -397 
L 1875 -844 
L 550 -844 
L 550 4863 
z
" transform="scale(0.015625)"/>
       <path id="DejaVuSans-6d" d="M 3328 2828 
Q 3544 3216 3844 3400 
Q 4144 3584 4550 3584 
Q 5097 3584 5394 3201 
Q 5691 2819 5691 2113 
L 5691 0 
L 5113 0 
L 5113 2094 
Q 5113 2597 4934 2840 
Q 4756 3084 4391 3084 
Q 3944 3084 3684 2787 
Q 3425 2491 3425 1978 
L 3425 0 
L 2847 0 
L 2847 2094 
Q 2847 2600 2669 2842 
Q 2491 3084 2119 3084 
Q 1678 3084 1418 2786 
Q 1159 2488 1159 1978 
L 1159 0 
L 581 0 
L 581 3500 
L 1159 3500 
L 1159 2956 
Q 1356 3278 1631 3431 
Q 1906 3584 2284 3584 
Q 2666 3584 2933 3390 
Q 3200 3197 3328 2828 
z
" transform="scale(0.015625)"/>
       <path id="DejaVuSans-56" d="M 1831 0 
L 50 4666 
L 709 4666 
L 2188 738 
L 3669 4666 
L 4325 4666 
L 2547 0 
L 1831 0 
z
" transform="scale(0.015625)"/>
       <path id="DejaVuSans-5d" d="M 1947 4863 
L 1947 -844 
L 622 -844 
L 622 -397 
L 1369 -397 
L 1369 4416 
L 622 4416 
L 622 4863 
L 1947 4863 
z
" transform="scale(0.015625)"/>
      </defs>
      <use xlink:href="#DejaVuSans-52" transform="translate(0 0.015625)"/>
      <use xlink:href="#DejaVuSans-65" transform="translate(69.482422 0.015625)"/>
      <use xlink:href="#DejaVuSans-28" transform="translate(131.005859 0.015625)"/>
      <use xlink:href="#DejaVuSans-Oblique-53" transform="translate(170.019531 0.015625)"/>
      <use xlink:href="#DejaVuSans-32" transform="translate(233.496094 -16.390625) scale(0.7)"/>
      <use xlink:href="#DejaVuSans-31" transform="translate(278.032227 -16.390625) scale(0.7)"/>
      <use xlink:href="#DejaVuSans-29" transform="translate(325.302734 0.015625)"/>
      <use xlink:href="#DejaVuSans-20" transform="translate(364.316406 0.015625)"/>
      <use xlink:href="#DejaVuSans-5b" transform="translate(396.103516 0.015625)"/>
      <use xlink:href="#DejaVuSans-6d" transform="translate(435.117188 0.015625)"/>
      <use xlink:href="#DejaVuSans-56" transform="translate(532.529297 0.015625)"/>
      <use xlink:href="#DejaVuSans-5d" transform="translate(600.9375 0.015625)"/>
     </g>
    </g>
   </g>
   <g id="matplotlib.axis_2">
    <g id="ytick_1">
     <g id="line2d_7">
      <defs>
       <path id="m90822e1f73" d="M 0 0 
L -3.5 0 
" style="stroke: #000000; stroke-width: 0.8"/>
      </defs>
      <g>
       <use xlink:href="#m90822e1f73" x="50.573438" y="266.575349" style="stroke: #000000; stroke-width: 0.8"/>
      </g>
     </g>
     <g id="text_8">
      <!-- -200 -->
      <g transform="translate(20.878125 270.374568) scale(0.1 -0.1)">
       <use xlink:href="#DejaVuSans-2d"/>
       <use xlink:href="#DejaVuSans-32" x="36.083984"/>
       <use xlink:href="#DejaVuSans-30" x="99.707031"/>
       <use xlink:href="#DejaVuSans-30" x="163.330078"/>
      </g>
     </g>
    </g>
    <g id="ytick_2">
     <g id="line2d_8">
      <g>
       <use xlink:href="#m90822e1f73" x="50.573438" y="216.4988" style="stroke: #000000; stroke-width: 0.8"/>
      </g>
     </g>
     <g id="text_9">
      <!-- -100 -->
      <g transform="translate(20.878125 220.298019) scale(0.1 -0.1)">
       <use xlink:href="#DejaVuSans-2d"/>
       <use xlink:href="#DejaVuSans-31" x="36.083984"/>
       <use xlink:href="#DejaVuSans-30" x="99.707031"/>
       <use xlink:href="#DejaVuSans-30" x="163.330078"/>
      </g>
     </g>
    </g>
    <g id="ytick_3">
     <g id="line2d_9">
      <g>
       <use xlink:href="#m90822e1f73" x="50.573438" y="166.422251" style="stroke: #000000; stroke-width: 0.8"/>
      </g>
     </g>
     <g id="text_10">
      <!-- 0 -->
      <g transform="translate(37.210938 170.22147) scale(0.1 -0.1)">
       <use xlink:href="#DejaVuSans-30"/>
      </g>
     </g>
    </g>
    <g id="ytick_4">
     <g id="line2d_10">
      <g>
       <use xlink:href="#m90822e1f73" x="50.573438" y="116.345702" style="stroke: #000000; stroke-width: 0.8"/>
      </g>
     </g>
     <g id="text_11">
      <!-- 100 -->
      <g transform="translate(24.485938 120.144921) scale(0.1 -0.1)">
       <use xlink:href="#DejaVuSans-31"/>
       <use xlink:href="#DejaVuSans-30" x="63.623047"/>
       <use xlink:href="#DejaVuSans-30" x="127.246094"/>
      </g>
     </g>
    </g>
    <g id="ytick_5">
     <g id="line2d_11">
      <g>
       <use xlink:href="#m90822e1f73" x="50.573438" y="66.269153" style="stroke: #000000; stroke-width: 0.8"/>
      </g>
     </g>
     <g id="text_12">
      <!-- 200 -->
      <g transform="translate(24.485938 70.068372) scale(0.1 -0.1)">
       <use xlink:href="#DejaVuSans-32"/>
       <use xlink:href="#DejaVuSans-30" x="63.623047"/>
       <use xlink:href="#DejaVuSans-30" x="127.246094"/>
      </g>
     </g>
    </g>
    <g id="text_13">
     <!-- Im$(S_{21})$ [mV] -->
     <g transform="translate(14.798438 206.466) rotate(-90) scale(0.1 -0.1)">
      <defs>
       <path id="DejaVuSans-49" d="M 628 4666 
L 1259 4666 
L 1259 0 
L 628 0 
L 628 4666 
z
" transform="scale(0.015625)"/>
      </defs>
      <use xlink:href="#DejaVuSans-49" transform="translate(0 0.015625)"/>
      <use xlink:href="#DejaVuSans-6d" transform="translate(25.867188 0.015625)"/>
      <use xlink:href="#DejaVuSans-28" transform="translate(123.279297 0.015625)"/>
      <use xlink:href="#DejaVuSans-Oblique-53" transform="translate(162.292969 0.015625)"/>
      <use xlink:href="#DejaVuSans-32" transform="translate(225.769531 -16.390625) scale(0.7)"/>
      <use xlink:href="#DejaVuSans-31" transform="translate(270.305664 -16.390625) scale(0.7)"/>
      <use xlink:href="#DejaVuSans-29" transform="translate(317.576172 0.015625)"/>
      <use xlink:href="#DejaVuSans-20" transform="translate(356.589844 0.015625)"/>
      <use xlink:href="#DejaVuSans-5b" transform="translate(388.376953 0.015625)"/>
      <use xlink:href="#DejaVuSans-6d" transform="translate(427.390625 0.015625)"/>
      <use xlink:href="#DejaVuSans-56" transform="translate(524.802734 0.015625)"/>
      <use xlink:href="#DejaVuSans-5d" transform="translate(593.210938 0.015625)"/>
     </g>
    </g>
   </g>
   <g id="line2d_12">
    <path d="M 344.316378 285.487482 
L 336.055638 284.853311 
L 325.16834 283.69967 
L 318.005406 282.727169 
L 314.436497 282.325275 
L 307.399226 281.289844 
L 297.126778 279.766121 
L 293.822036 279.171566 
L 290.231225 278.720265 
L 266.643261 274.133981 
L 246.900404 269.706408 
L 243.456265 268.924052 
L 233.778315 266.366175 
L 230.52736 265.520085 
L 224.057917 263.700697 
L 220.744468 262.788155 
L 202.095209 256.849519 
L 183.497354 250.192698 
L 180.269995 248.93915 
L 177.509837 247.705795 
L 174.485631 246.550874 
L 165.423843 242.70302 
L 159.732726 239.974354 
L 153.482681 237.189864 
L 150.893269 235.792302 
L 142.004424 231.31098 
L 136.323615 228.155849 
L 133.481293 226.613865 
L 119.265797 217.721865 
L 113.247329 213.85651 
L 107.649361 209.660071 
L 101.472668 205.279602 
L 98.71326 202.771407 
L 95.761658 200.335966 
L 86.517911 191.85972 
L 83.520866 188.645499 
L 80.664759 185.161683 
L 77.834376 181.475044 
L 72.213186 172.910135 
L 69.576897 167.770469 
L 67.666029 161.939753 
L 66.806165 155.527592 
L 67.264047 148.105888 
L 69.658488 139.50274 
L 75.017245 129.469357 
L 86.774684 117.709505 
L 109.223041 104.983649 
L 145.544187 93.56401 
L 194.746549 86.920548 
L 252.853611 88.104913 
L 308.901394 98.463299 
L 352.331 116.922901 
L 374.375286 139.873567 
L 373.789134 161.813762 
L 355.834307 179.937468 
L 327.549965 192.293777 
L 298.390872 198.86495 
L 272.459936 201.61466 
L 251.265752 202.040365 
L 233.530193 201.530939 
L 218.739914 200.293705 
L 205.962628 198.615763 
L 195.204023 196.513142 
L 185.971199 194.307486 
L 178.42818 192.04095 
L 171.619046 189.788845 
L 165.858775 187.577067 
L 160.626109 185.30449 
L 156.048281 183.00776 
L 152.199554 180.769165 
L 145.602252 176.382991 
L 140.137419 172.119328 
L 138.044074 169.930986 
L 134.568369 165.81439 
L 133.183792 163.713017 
L 131.719383 161.707495 
L 129.571252 157.650792 
L 128.823895 155.595318 
L 128.363988 153.669497 
L 127.236245 149.864421 
L 126.896118 146.002385 
L 127.077831 144.148634 
L 126.946081 142.237264 
L 127.118869 140.370516 
L 128.325695 134.905771 
L 128.712068 133.086798 
L 130.072095 129.57651 
L 130.880416 127.702465 
L 134.694145 120.841076 
L 138.330836 115.686292 
L 145.944443 107.596887 
L 152.813713 101.343878 
L 158.781999 96.762984 
L 165.096113 92.390397 
L 171.624944 88.074623 
L 174.146053 86.73245 
L 178.884921 83.960982 
L 184.028634 81.29029 
L 186.453795 79.99514 
L 189.189644 78.720134 
L 191.58108 77.414409 
L 205.572593 71.251987 
L 217.295547 66.595975 
L 236.217305 60.269615 
L 242.574905 58.339786 
L 245.909542 57.488747 
L 249.158155 56.492893 
L 255.785897 54.742987 
L 259.261473 53.856 
L 259.261473 53.856 
" clip-path="url(#pacabd3eee0)" style="fill: none; stroke: #1f77b4; stroke-width: 1.5; stroke-linecap: square"/>
    <defs>
     <path id="m4e55f1a5d7" d="M 0 1.5 
C 0.397805 1.5 0.77937 1.341951 1.06066 1.06066 
C 1.341951 0.77937 1.5 0.397805 1.5 0 
C 1.5 -0.397805 1.341951 -0.77937 1.06066 -1.06066 
C 0.77937 -1.341951 0.397805 -1.5 0 -1.5 
C -0.397805 -1.5 -0.77937 -1.341951 -1.06066 -1.06066 
C -1.341951 -0.77937 -1.5 -0.397805 -1.5 0 
C -1.5 0.397805 -1.341951 0.77937 -1.06066 1.06066 
C -0.77937 1.341951 -0.397805 1.5 0 1.5 
z
" style="stroke: #1f77b4"/>
    </defs>
    <g clip-path="url(#pacabd3eee0)">
     <use xlink:href="#m4e55f1a5d7" x="344.316378" y="285.487482" style="fill: #1f77b4; stroke: #1f77b4"/>
     <use xlink:href="#m4e55f1a5d7" x="339.955654" y="285.163752" style="fill: #1f77b4; stroke: #1f77b4"/>
     <use xlink:href="#m4e55f1a5d7" x="336.055638" y="284.853311" style="fill: #1f77b4; stroke: #1f77b4"/>
     <use xlink:href="#m4e55f1a5d7" x="332.134777" y="284.454179" style="fill: #1f77b4; stroke: #1f77b4"/>
     <use xlink:href="#m4e55f1a5d7" x="328.51317" y="284.043234" style="fill: #1f77b4; stroke: #1f77b4"/>
     <use xlink:href="#m4e55f1a5d7" x="325.16834" y="283.69967" style="fill: #1f77b4; stroke: #1f77b4"/>
     <use xlink:href="#m4e55f1a5d7" x="321.481163" y="283.188806" style="fill: #1f77b4; stroke: #1f77b4"/>
     <use xlink:href="#m4e55f1a5d7" x="318.005406" y="282.727169" style="fill: #1f77b4; stroke: #1f77b4"/>
     <use xlink:href="#m4e55f1a5d7" x="314.436497" y="282.325275" style="fill: #1f77b4; stroke: #1f77b4"/>
     <use xlink:href="#m4e55f1a5d7" x="310.873912" y="281.754546" style="fill: #1f77b4; stroke: #1f77b4"/>
     <use xlink:href="#m4e55f1a5d7" x="307.399226" y="281.289844" style="fill: #1f77b4; stroke: #1f77b4"/>
     <use xlink:href="#m4e55f1a5d7" x="304.206976" y="280.838097" style="fill: #1f77b4; stroke: #1f77b4"/>
     <use xlink:href="#m4e55f1a5d7" x="300.637371" y="280.306362" style="fill: #1f77b4; stroke: #1f77b4"/>
     <use xlink:href="#m4e55f1a5d7" x="297.126778" y="279.766121" style="fill: #1f77b4; stroke: #1f77b4"/>
     <use xlink:href="#m4e55f1a5d7" x="293.822036" y="279.171566" style="fill: #1f77b4; stroke: #1f77b4"/>
     <use xlink:href="#m4e55f1a5d7" x="290.231225" y="278.720265" style="fill: #1f77b4; stroke: #1f77b4"/>
     <use xlink:href="#m4e55f1a5d7" x="286.870847" y="278.07723" style="fill: #1f77b4; stroke: #1f77b4"/>
     <use xlink:href="#m4e55f1a5d7" x="283.506351" y="277.438614" style="fill: #1f77b4; stroke: #1f77b4"/>
     <use xlink:href="#m4e55f1a5d7" x="280.277639" y="276.825902" style="fill: #1f77b4; stroke: #1f77b4"/>
     <use xlink:href="#m4e55f1a5d7" x="276.757359" y="276.161368" style="fill: #1f77b4; stroke: #1f77b4"/>
     <use xlink:href="#m4e55f1a5d7" x="273.465866" y="275.507263" style="fill: #1f77b4; stroke: #1f77b4"/>
     <use xlink:href="#m4e55f1a5d7" x="270.174492" y="274.848913" style="fill: #1f77b4; stroke: #1f77b4"/>
     <use xlink:href="#m4e55f1a5d7" x="266.643261" y="274.133981" style="fill: #1f77b4; stroke: #1f77b4"/>
     <use xlink:href="#m4e55f1a5d7" x="263.512941" y="273.446455" style="fill: #1f77b4; stroke: #1f77b4"/>
     <use xlink:href="#m4e55f1a5d7" x="259.925758" y="272.710272" style="fill: #1f77b4; stroke: #1f77b4"/>
     <use xlink:href="#m4e55f1a5d7" x="256.710779" y="272.000025" style="fill: #1f77b4; stroke: #1f77b4"/>
     <use xlink:href="#m4e55f1a5d7" x="253.519867" y="271.295826" style="fill: #1f77b4; stroke: #1f77b4"/>
     <use xlink:href="#m4e55f1a5d7" x="250.176528" y="270.523102" style="fill: #1f77b4; stroke: #1f77b4"/>
     <use xlink:href="#m4e55f1a5d7" x="246.900404" y="269.706408" style="fill: #1f77b4; stroke: #1f77b4"/>
     <use xlink:href="#m4e55f1a5d7" x="243.456265" y="268.924052" style="fill: #1f77b4; stroke: #1f77b4"/>
     <use xlink:href="#m4e55f1a5d7" x="240.301541" y="268.05359" style="fill: #1f77b4; stroke: #1f77b4"/>
     <use xlink:href="#m4e55f1a5d7" x="237.014303" y="267.201537" style="fill: #1f77b4; stroke: #1f77b4"/>
     <use xlink:href="#m4e55f1a5d7" x="233.778315" y="266.366175" style="fill: #1f77b4; stroke: #1f77b4"/>
     <use xlink:href="#m4e55f1a5d7" x="230.52736" y="265.520085" style="fill: #1f77b4; stroke: #1f77b4"/>
     <use xlink:href="#m4e55f1a5d7" x="227.453713" y="264.603101" style="fill: #1f77b4; stroke: #1f77b4"/>
     <use xlink:href="#m4e55f1a5d7" x="224.057917" y="263.700697" style="fill: #1f77b4; stroke: #1f77b4"/>
     <use xlink:href="#m4e55f1a5d7" x="220.744468" y="262.788155" style="fill: #1f77b4; stroke: #1f77b4"/>
     <use xlink:href="#m4e55f1a5d7" x="217.663854" y="261.82284" style="fill: #1f77b4; stroke: #1f77b4"/>
     <use xlink:href="#m4e55f1a5d7" x="214.581513" y="260.851673" style="fill: #1f77b4; stroke: #1f77b4"/>
     <use xlink:href="#m4e55f1a5d7" x="211.430572" y="259.835244" style="fill: #1f77b4; stroke: #1f77b4"/>
     <use xlink:href="#m4e55f1a5d7" x="208.228615" y="258.935723" style="fill: #1f77b4; stroke: #1f77b4"/>
     <use xlink:href="#m4e55f1a5d7" x="205.156881" y="257.889639" style="fill: #1f77b4; stroke: #1f77b4"/>
     <use xlink:href="#m4e55f1a5d7" x="202.095209" y="256.849519" style="fill: #1f77b4; stroke: #1f77b4"/>
     <use xlink:href="#m4e55f1a5d7" x="198.99831" y="255.74795" style="fill: #1f77b4; stroke: #1f77b4"/>
     <use xlink:href="#m4e55f1a5d7" x="195.916426" y="254.689989" style="fill: #1f77b4; stroke: #1f77b4"/>
     <use xlink:href="#m4e55f1a5d7" x="192.777314" y="253.566156" style="fill: #1f77b4; stroke: #1f77b4"/>
     <use xlink:href="#m4e55f1a5d7" x="189.67543" y="252.421557" style="fill: #1f77b4; stroke: #1f77b4"/>
     <use xlink:href="#m4e55f1a5d7" x="186.644441" y="251.289448" style="fill: #1f77b4; stroke: #1f77b4"/>
     <use xlink:href="#m4e55f1a5d7" x="183.497354" y="250.192698" style="fill: #1f77b4; stroke: #1f77b4"/>
     <use xlink:href="#m4e55f1a5d7" x="180.269995" y="248.93915" style="fill: #1f77b4; stroke: #1f77b4"/>
     <use xlink:href="#m4e55f1a5d7" x="177.509837" y="247.705795" style="fill: #1f77b4; stroke: #1f77b4"/>
     <use xlink:href="#m4e55f1a5d7" x="174.485631" y="246.550874" style="fill: #1f77b4; stroke: #1f77b4"/>
     <use xlink:href="#m4e55f1a5d7" x="171.401026" y="245.237773" style="fill: #1f77b4; stroke: #1f77b4"/>
     <use xlink:href="#m4e55f1a5d7" x="168.649958" y="244.041338" style="fill: #1f77b4; stroke: #1f77b4"/>
     <use xlink:href="#m4e55f1a5d7" x="165.423843" y="242.70302" style="fill: #1f77b4; stroke: #1f77b4"/>
     <use xlink:href="#m4e55f1a5d7" x="162.53966" y="241.270696" style="fill: #1f77b4; stroke: #1f77b4"/>
     <use xlink:href="#m4e55f1a5d7" x="159.732726" y="239.974354" style="fill: #1f77b4; stroke: #1f77b4"/>
     <use xlink:href="#m4e55f1a5d7" x="156.751295" y="238.635252" style="fill: #1f77b4; stroke: #1f77b4"/>
     <use xlink:href="#m4e55f1a5d7" x="153.482681" y="237.189864" style="fill: #1f77b4; stroke: #1f77b4"/>
     <use xlink:href="#m4e55f1a5d7" x="150.893269" y="235.792302" style="fill: #1f77b4; stroke: #1f77b4"/>
     <use xlink:href="#m4e55f1a5d7" x="147.848539" y="234.283294" style="fill: #1f77b4; stroke: #1f77b4"/>
     <use xlink:href="#m4e55f1a5d7" x="144.992325" y="232.888239" style="fill: #1f77b4; stroke: #1f77b4"/>
     <use xlink:href="#m4e55f1a5d7" x="142.004424" y="231.31098" style="fill: #1f77b4; stroke: #1f77b4"/>
     <use xlink:href="#m4e55f1a5d7" x="139.281655" y="229.753242" style="fill: #1f77b4; stroke: #1f77b4"/>
     <use xlink:href="#m4e55f1a5d7" x="136.323615" y="228.155849" style="fill: #1f77b4; stroke: #1f77b4"/>
     <use xlink:href="#m4e55f1a5d7" x="133.481293" y="226.613865" style="fill: #1f77b4; stroke: #1f77b4"/>
     <use xlink:href="#m4e55f1a5d7" x="130.671276" y="224.872566" style="fill: #1f77b4; stroke: #1f77b4"/>
     <use xlink:href="#m4e55f1a5d7" x="127.794231" y="223.191536" style="fill: #1f77b4; stroke: #1f77b4"/>
     <use xlink:href="#m4e55f1a5d7" x="125.064011" y="221.422905" style="fill: #1f77b4; stroke: #1f77b4"/>
     <use xlink:href="#m4e55f1a5d7" x="122.200318" y="219.650578" style="fill: #1f77b4; stroke: #1f77b4"/>
     <use xlink:href="#m4e55f1a5d7" x="119.265797" y="217.721865" style="fill: #1f77b4; stroke: #1f77b4"/>
     <use xlink:href="#m4e55f1a5d7" x="116.36004" y="215.870735" style="fill: #1f77b4; stroke: #1f77b4"/>
     <use xlink:href="#m4e55f1a5d7" x="113.247329" y="213.85651" style="fill: #1f77b4; stroke: #1f77b4"/>
     <use xlink:href="#m4e55f1a5d7" x="110.529657" y="211.822065" style="fill: #1f77b4; stroke: #1f77b4"/>
     <use xlink:href="#m4e55f1a5d7" x="107.649361" y="209.660071" style="fill: #1f77b4; stroke: #1f77b4"/>
     <use xlink:href="#m4e55f1a5d7" x="104.640522" y="207.56449" style="fill: #1f77b4; stroke: #1f77b4"/>
     <use xlink:href="#m4e55f1a5d7" x="101.472668" y="205.279602" style="fill: #1f77b4; stroke: #1f77b4"/>
     <use xlink:href="#m4e55f1a5d7" x="98.71326" y="202.771407" style="fill: #1f77b4; stroke: #1f77b4"/>
     <use xlink:href="#m4e55f1a5d7" x="95.761658" y="200.335966" style="fill: #1f77b4; stroke: #1f77b4"/>
     <use xlink:href="#m4e55f1a5d7" x="92.786737" y="197.591131" style="fill: #1f77b4; stroke: #1f77b4"/>
     <use xlink:href="#m4e55f1a5d7" x="89.690069" y="194.837981" style="fill: #1f77b4; stroke: #1f77b4"/>
     <use xlink:href="#m4e55f1a5d7" x="86.517911" y="191.85972" style="fill: #1f77b4; stroke: #1f77b4"/>
     <use xlink:href="#m4e55f1a5d7" x="83.520866" y="188.645499" style="fill: #1f77b4; stroke: #1f77b4"/>
     <use xlink:href="#m4e55f1a5d7" x="80.664759" y="185.161683" style="fill: #1f77b4; stroke: #1f77b4"/>
     <use xlink:href="#m4e55f1a5d7" x="77.834376" y="181.475044" style="fill: #1f77b4; stroke: #1f77b4"/>
     <use xlink:href="#m4e55f1a5d7" x="75.117204" y="177.339771" style="fill: #1f77b4; stroke: #1f77b4"/>
     <use xlink:href="#m4e55f1a5d7" x="72.213186" y="172.910135" style="fill: #1f77b4; stroke: #1f77b4"/>
     <use xlink:href="#m4e55f1a5d7" x="69.576897" y="167.770469" style="fill: #1f77b4; stroke: #1f77b4"/>
     <use xlink:href="#m4e55f1a5d7" x="67.666029" y="161.939753" style="fill: #1f77b4; stroke: #1f77b4"/>
     <use xlink:href="#m4e55f1a5d7" x="66.806165" y="155.527592" style="fill: #1f77b4; stroke: #1f77b4"/>
     <use xlink:href="#m4e55f1a5d7" x="67.264047" y="148.105888" style="fill: #1f77b4; stroke: #1f77b4"/>
     <use xlink:href="#m4e55f1a5d7" x="69.658488" y="139.50274" style="fill: #1f77b4; stroke: #1f77b4"/>
     <use xlink:href="#m4e55f1a5d7" x="75.017245" y="129.469357" style="fill: #1f77b4; stroke: #1f77b4"/>
     <use xlink:href="#m4e55f1a5d7" x="86.774684" y="117.709505" style="fill: #1f77b4; stroke: #1f77b4"/>
     <use xlink:href="#m4e55f1a5d7" x="109.223041" y="104.983649" style="fill: #1f77b4; stroke: #1f77b4"/>
     <use xlink:href="#m4e55f1a5d7" x="145.544187" y="93.56401" style="fill: #1f77b4; stroke: #1f77b4"/>
     <use xlink:href="#m4e55f1a5d7" x="194.746549" y="86.920548" style="fill: #1f77b4; stroke: #1f77b4"/>
     <use xlink:href="#m4e55f1a5d7" x="252.853611" y="88.104913" style="fill: #1f77b4; stroke: #1f77b4"/>
     <use xlink:href="#m4e55f1a5d7" x="308.901394" y="98.463299" style="fill: #1f77b4; stroke: #1f77b4"/>
     <use xlink:href="#m4e55f1a5d7" x="352.331" y="116.922901" style="fill: #1f77b4; stroke: #1f77b4"/>
     <use xlink:href="#m4e55f1a5d7" x="374.375286" y="139.873567" style="fill: #1f77b4; stroke: #1f77b4"/>
     <use xlink:href="#m4e55f1a5d7" x="373.789134" y="161.813762" style="fill: #1f77b4; stroke: #1f77b4"/>
     <use xlink:href="#m4e55f1a5d7" x="355.834307" y="179.937468" style="fill: #1f77b4; stroke: #1f77b4"/>
     <use xlink:href="#m4e55f1a5d7" x="327.549965" y="192.293777" style="fill: #1f77b4; stroke: #1f77b4"/>
     <use xlink:href="#m4e55f1a5d7" x="298.390872" y="198.86495" style="fill: #1f77b4; stroke: #1f77b4"/>
     <use xlink:href="#m4e55f1a5d7" x="272.459936" y="201.61466" style="fill: #1f77b4; stroke: #1f77b4"/>
     <use xlink:href="#m4e55f1a5d7" x="251.265752" y="202.040365" style="fill: #1f77b4; stroke: #1f77b4"/>
     <use xlink:href="#m4e55f1a5d7" x="233.530193" y="201.530939" style="fill: #1f77b4; stroke: #1f77b4"/>
     <use xlink:href="#m4e55f1a5d7" x="218.739914" y="200.293705" style="fill: #1f77b4; stroke: #1f77b4"/>
     <use xlink:href="#m4e55f1a5d7" x="205.962628" y="198.615763" style="fill: #1f77b4; stroke: #1f77b4"/>
     <use xlink:href="#m4e55f1a5d7" x="195.204023" y="196.513142" style="fill: #1f77b4; stroke: #1f77b4"/>
     <use xlink:href="#m4e55f1a5d7" x="185.971199" y="194.307486" style="fill: #1f77b4; stroke: #1f77b4"/>
     <use xlink:href="#m4e55f1a5d7" x="178.42818" y="192.04095" style="fill: #1f77b4; stroke: #1f77b4"/>
     <use xlink:href="#m4e55f1a5d7" x="171.619046" y="189.788845" style="fill: #1f77b4; stroke: #1f77b4"/>
     <use xlink:href="#m4e55f1a5d7" x="165.858775" y="187.577067" style="fill: #1f77b4; stroke: #1f77b4"/>
     <use xlink:href="#m4e55f1a5d7" x="160.626109" y="185.30449" style="fill: #1f77b4; stroke: #1f77b4"/>
     <use xlink:href="#m4e55f1a5d7" x="156.048281" y="183.00776" style="fill: #1f77b4; stroke: #1f77b4"/>
     <use xlink:href="#m4e55f1a5d7" x="152.199554" y="180.769165" style="fill: #1f77b4; stroke: #1f77b4"/>
     <use xlink:href="#m4e55f1a5d7" x="148.718494" y="178.500641" style="fill: #1f77b4; stroke: #1f77b4"/>
     <use xlink:href="#m4e55f1a5d7" x="145.602252" y="176.382991" style="fill: #1f77b4; stroke: #1f77b4"/>
     <use xlink:href="#m4e55f1a5d7" x="142.784558" y="174.247898" style="fill: #1f77b4; stroke: #1f77b4"/>
     <use xlink:href="#m4e55f1a5d7" x="140.137419" y="172.119328" style="fill: #1f77b4; stroke: #1f77b4"/>
     <use xlink:href="#m4e55f1a5d7" x="138.044074" y="169.930986" style="fill: #1f77b4; stroke: #1f77b4"/>
     <use xlink:href="#m4e55f1a5d7" x="136.283827" y="167.830605" style="fill: #1f77b4; stroke: #1f77b4"/>
     <use xlink:href="#m4e55f1a5d7" x="134.568369" y="165.81439" style="fill: #1f77b4; stroke: #1f77b4"/>
     <use xlink:href="#m4e55f1a5d7" x="133.183792" y="163.713017" style="fill: #1f77b4; stroke: #1f77b4"/>
     <use xlink:href="#m4e55f1a5d7" x="131.719383" y="161.707495" style="fill: #1f77b4; stroke: #1f77b4"/>
     <use xlink:href="#m4e55f1a5d7" x="130.665052" y="159.658891" style="fill: #1f77b4; stroke: #1f77b4"/>
     <use xlink:href="#m4e55f1a5d7" x="129.571252" y="157.650792" style="fill: #1f77b4; stroke: #1f77b4"/>
     <use xlink:href="#m4e55f1a5d7" x="128.823895" y="155.595318" style="fill: #1f77b4; stroke: #1f77b4"/>
     <use xlink:href="#m4e55f1a5d7" x="128.363988" y="153.669497" style="fill: #1f77b4; stroke: #1f77b4"/>
     <use xlink:href="#m4e55f1a5d7" x="127.792653" y="151.781781" style="fill: #1f77b4; stroke: #1f77b4"/>
     <use xlink:href="#m4e55f1a5d7" x="127.236245" y="149.864421" style="fill: #1f77b4; stroke: #1f77b4"/>
     <use xlink:href="#m4e55f1a5d7" x="127.035978" y="147.914387" style="fill: #1f77b4; stroke: #1f77b4"/>
     <use xlink:href="#m4e55f1a5d7" x="126.896118" y="146.002385" style="fill: #1f77b4; stroke: #1f77b4"/>
     <use xlink:href="#m4e55f1a5d7" x="127.077831" y="144.148634" style="fill: #1f77b4; stroke: #1f77b4"/>
     <use xlink:href="#m4e55f1a5d7" x="126.946081" y="142.237264" style="fill: #1f77b4; stroke: #1f77b4"/>
     <use xlink:href="#m4e55f1a5d7" x="127.118869" y="140.370516" style="fill: #1f77b4; stroke: #1f77b4"/>
     <use xlink:href="#m4e55f1a5d7" x="127.536643" y="138.59925" style="fill: #1f77b4; stroke: #1f77b4"/>
     <use xlink:href="#m4e55f1a5d7" x="127.942943" y="136.778672" style="fill: #1f77b4; stroke: #1f77b4"/>
     <use xlink:href="#m4e55f1a5d7" x="128.325695" y="134.905771" style="fill: #1f77b4; stroke: #1f77b4"/>
     <use xlink:href="#m4e55f1a5d7" x="128.712068" y="133.086798" style="fill: #1f77b4; stroke: #1f77b4"/>
     <use xlink:href="#m4e55f1a5d7" x="129.400344" y="131.254182" style="fill: #1f77b4; stroke: #1f77b4"/>
     <use xlink:href="#m4e55f1a5d7" x="130.072095" y="129.57651" style="fill: #1f77b4; stroke: #1f77b4"/>
     <use xlink:href="#m4e55f1a5d7" x="130.880416" y="127.702465" style="fill: #1f77b4; stroke: #1f77b4"/>
     <use xlink:href="#m4e55f1a5d7" x="131.840738" y="126.002946" style="fill: #1f77b4; stroke: #1f77b4"/>
     <use xlink:href="#m4e55f1a5d7" x="132.747677" y="124.282338" style="fill: #1f77b4; stroke: #1f77b4"/>
     <use xlink:href="#m4e55f1a5d7" x="133.711271" y="122.515369" style="fill: #1f77b4; stroke: #1f77b4"/>
     <use xlink:href="#m4e55f1a5d7" x="134.694145" y="120.841076" style="fill: #1f77b4; stroke: #1f77b4"/>
     <use xlink:href="#m4e55f1a5d7" x="135.935203" y="119.083746" style="fill: #1f77b4; stroke: #1f77b4"/>
     <use xlink:href="#m4e55f1a5d7" x="137.227463" y="117.390215" style="fill: #1f77b4; stroke: #1f77b4"/>
     <use xlink:href="#m4e55f1a5d7" x="138.330836" y="115.686292" style="fill: #1f77b4; stroke: #1f77b4"/>
     <use xlink:href="#m4e55f1a5d7" x="139.768106" y="114.140771" style="fill: #1f77b4; stroke: #1f77b4"/>
     <use xlink:href="#m4e55f1a5d7" x="141.320643" y="112.408341" style="fill: #1f77b4; stroke: #1f77b4"/>
     <use xlink:href="#m4e55f1a5d7" x="142.86022" y="110.846581" style="fill: #1f77b4; stroke: #1f77b4"/>
     <use xlink:href="#m4e55f1a5d7" x="144.225833" y="109.298699" style="fill: #1f77b4; stroke: #1f77b4"/>
     <use xlink:href="#m4e55f1a5d7" x="145.944443" y="107.596887" style="fill: #1f77b4; stroke: #1f77b4"/>
     <use xlink:href="#m4e55f1a5d7" x="147.631852" y="106.081023" style="fill: #1f77b4; stroke: #1f77b4"/>
     <use xlink:href="#m4e55f1a5d7" x="149.347708" y="104.439314" style="fill: #1f77b4; stroke: #1f77b4"/>
     <use xlink:href="#m4e55f1a5d7" x="151.144184" y="102.892082" style="fill: #1f77b4; stroke: #1f77b4"/>
     <use xlink:href="#m4e55f1a5d7" x="152.813713" y="101.343878" style="fill: #1f77b4; stroke: #1f77b4"/>
     <use xlink:href="#m4e55f1a5d7" x="154.806807" y="99.799225" style="fill: #1f77b4; stroke: #1f77b4"/>
     <use xlink:href="#m4e55f1a5d7" x="156.818699" y="98.248073" style="fill: #1f77b4; stroke: #1f77b4"/>
     <use xlink:href="#m4e55f1a5d7" x="158.781999" y="96.762984" style="fill: #1f77b4; stroke: #1f77b4"/>
     <use xlink:href="#m4e55f1a5d7" x="160.806315" y="95.326056" style="fill: #1f77b4; stroke: #1f77b4"/>
     <use xlink:href="#m4e55f1a5d7" x="162.860807" y="93.822438" style="fill: #1f77b4; stroke: #1f77b4"/>
     <use xlink:href="#m4e55f1a5d7" x="165.096113" y="92.390397" style="fill: #1f77b4; stroke: #1f77b4"/>
     <use xlink:href="#m4e55f1a5d7" x="167.310722" y="90.892406" style="fill: #1f77b4; stroke: #1f77b4"/>
     <use xlink:href="#m4e55f1a5d7" x="169.480124" y="89.506107" style="fill: #1f77b4; stroke: #1f77b4"/>
     <use xlink:href="#m4e55f1a5d7" x="171.624944" y="88.074623" style="fill: #1f77b4; stroke: #1f77b4"/>
     <use xlink:href="#m4e55f1a5d7" x="174.146053" y="86.73245" style="fill: #1f77b4; stroke: #1f77b4"/>
     <use xlink:href="#m4e55f1a5d7" x="176.528346" y="85.310842" style="fill: #1f77b4; stroke: #1f77b4"/>
     <use xlink:href="#m4e55f1a5d7" x="178.884921" y="83.960982" style="fill: #1f77b4; stroke: #1f77b4"/>
     <use xlink:href="#m4e55f1a5d7" x="181.380131" y="82.716172" style="fill: #1f77b4; stroke: #1f77b4"/>
     <use xlink:href="#m4e55f1a5d7" x="184.028634" y="81.29029" style="fill: #1f77b4; stroke: #1f77b4"/>
     <use xlink:href="#m4e55f1a5d7" x="186.453795" y="79.99514" style="fill: #1f77b4; stroke: #1f77b4"/>
     <use xlink:href="#m4e55f1a5d7" x="189.189644" y="78.720134" style="fill: #1f77b4; stroke: #1f77b4"/>
     <use xlink:href="#m4e55f1a5d7" x="191.58108" y="77.414409" style="fill: #1f77b4; stroke: #1f77b4"/>
     <use xlink:href="#m4e55f1a5d7" x="194.425086" y="76.139471" style="fill: #1f77b4; stroke: #1f77b4"/>
     <use xlink:href="#m4e55f1a5d7" x="197.16007" y="74.822364" style="fill: #1f77b4; stroke: #1f77b4"/>
     <use xlink:href="#m4e55f1a5d7" x="199.911221" y="73.659571" style="fill: #1f77b4; stroke: #1f77b4"/>
     <use xlink:href="#m4e55f1a5d7" x="202.684264" y="72.470256" style="fill: #1f77b4; stroke: #1f77b4"/>
     <use xlink:href="#m4e55f1a5d7" x="205.572593" y="71.251987" style="fill: #1f77b4; stroke: #1f77b4"/>
     <use xlink:href="#m4e55f1a5d7" x="208.58563" y="70.067935" style="fill: #1f77b4; stroke: #1f77b4"/>
     <use xlink:href="#m4e55f1a5d7" x="211.258548" y="68.928884" style="fill: #1f77b4; stroke: #1f77b4"/>
     <use xlink:href="#m4e55f1a5d7" x="214.178368" y="67.765924" style="fill: #1f77b4; stroke: #1f77b4"/>
     <use xlink:href="#m4e55f1a5d7" x="217.295547" y="66.595975" style="fill: #1f77b4; stroke: #1f77b4"/>
     <use xlink:href="#m4e55f1a5d7" x="220.483123" y="65.524193" style="fill: #1f77b4; stroke: #1f77b4"/>
     <use xlink:href="#m4e55f1a5d7" x="223.609385" y="64.389452" style="fill: #1f77b4; stroke: #1f77b4"/>
     <use xlink:href="#m4e55f1a5d7" x="226.696125" y="63.359238" style="fill: #1f77b4; stroke: #1f77b4"/>
     <use xlink:href="#m4e55f1a5d7" x="229.937242" y="62.3276" style="fill: #1f77b4; stroke: #1f77b4"/>
     <use xlink:href="#m4e55f1a5d7" x="232.800745" y="61.289573" style="fill: #1f77b4; stroke: #1f77b4"/>
     <use xlink:href="#m4e55f1a5d7" x="236.217305" y="60.269615" style="fill: #1f77b4; stroke: #1f77b4"/>
     <use xlink:href="#m4e55f1a5d7" x="239.40061" y="59.309478" style="fill: #1f77b4; stroke: #1f77b4"/>
     <use xlink:href="#m4e55f1a5d7" x="242.574905" y="58.339786" style="fill: #1f77b4; stroke: #1f77b4"/>
     <use xlink:href="#m4e55f1a5d7" x="245.909542" y="57.488747" style="fill: #1f77b4; stroke: #1f77b4"/>
     <use xlink:href="#m4e55f1a5d7" x="249.158155" y="56.492893" style="fill: #1f77b4; stroke: #1f77b4"/>
     <use xlink:href="#m4e55f1a5d7" x="252.598063" y="55.555672" style="fill: #1f77b4; stroke: #1f77b4"/>
     <use xlink:href="#m4e55f1a5d7" x="255.785897" y="54.742987" style="fill: #1f77b4; stroke: #1f77b4"/>
     <use xlink:href="#m4e55f1a5d7" x="259.261473" y="53.856" style="fill: #1f77b4; stroke: #1f77b4"/>
    </g>
   </g>
   <g id="line2d_13">
    <path d="M 338.708366 295.776 
L 325.765812 294.015719 
L 312.967842 292.04791 
L 300.331349 289.873772 
L 287.872694 287.494555 
L 276.323465 285.069072 
L 264.958283 282.464021 
L 253.789088 279.680271 
L 242.827112 276.718494 
L 232.082781 273.579068 
L 222.2161 270.474478 
L 212.556049 267.213206 
L 203.108665 263.79413 
L 193.878892 260.215307 
L 184.870403 256.473699 
L 176.66408 252.830717 
L 168.65285 249.036831 
L 160.835576 245.084858 
L 153.747809 241.265056 
L 146.820803 237.289818 
L 140.048844 233.144831 
L 133.928849 229.15143 
L 127.926982 224.976611 
L 122.034486 220.592972 
L 116.721059 216.359563 
L 111.957869 212.299014 
L 107.255338 207.995981 
L 103.075883 203.872164 
L 99.408717 199.963481 
L 95.799953 195.775459 
L 92.710455 191.831255 
L 90.137466 188.197982 
L 88.070633 184.957485 
L 86.104501 181.488286 
L 84.632124 178.520955 
L 83.281821 175.355735 
L 82.095724 171.962439 
L 81.348063 169.246442 
L 80.757347 166.364516 
L 80.365104 163.296696 
L 80.224809 160.020408 
L 80.304615 157.708007 
L 80.552048 155.283562 
L 80.997314 152.738367 
L 81.676481 150.063274 
L 82.632675 147.248821 
L 83.917511 144.285458 
L 85.592795 141.163885 
L 87.732517 137.875579 
L 90.425155 134.413568 
L 93.776245 130.773552 
L 95.737031 128.886563 
L 97.911134 126.955513 
L 100.317763 124.981437 
L 102.977685 122.965962 
L 105.913272 120.911434 
L 109.14853 118.821046 
L 112.709087 116.699007 
L 116.622133 114.550721 
L 120.916303 112.382988 
L 125.621465 110.204232 
L 130.768418 108.024749 
L 136.388444 105.856972 
L 142.512708 103.715745 
L 149.171467 101.618603 
L 156.393048 99.586036 
L 164.20258 97.641717 
L 172.62044 95.812681 
L 181.660419 94.129398 
L 191.327605 92.625722 
L 201.616021 91.338655 
L 212.506103 90.307888 
L 223.962135 89.575051 
L 235.929832 89.182659 
L 248.334291 89.172706 
L 261.078625 89.58493 
L 274.043565 90.454786 
L 287.088363 91.811222 
L 300.053236 93.674406 
L 312.76348 96.053598 
L 325.035241 98.945388 
L 336.682683 102.332534 
L 347.526084 106.183584 
L 357.400232 110.453429 
L 366.162333 115.084791 
L 373.698688 120.010573 
L 379.929491 125.156867 
L 384.811328 130.446336 
L 388.337247 135.801669 
L 390.534549 141.148784 
L 391.46071 146.41955 
L 391.197979 151.55384 
L 389.84728 156.50086 
L 387.522002 161.21977 
L 384.342147 165.679661 
L 380.429201 169.85904 
L 375.901912 173.744948 
L 370.873057 177.331854 
L 365.447157 180.620452 
L 359.71906 183.616457 
L 353.773235 186.329462 
L 347.683637 188.771917 
L 341.514002 190.958231 
L 335.318433 192.904031 
L 329.142173 194.625551 
L 323.022475 196.139155 
L 316.989511 197.460971 
L 311.067259 198.606623 
L 305.274356 199.591043 
L 294.12905 201.131759 
L 283.623683 202.185227 
L 273.785081 202.838948 
L 264.611178 203.166554 
L 256.081496 203.229238 
L 248.164551 203.07743 
L 240.822952 202.752456 
L 234.016815 202.288056 
L 224.724062 201.388741 
L 216.416179 200.308543 
L 208.974184 199.100397 
L 202.292031 197.80314 
L 196.276701 196.445283 
L 189.15543 194.575912 
L 182.915209 192.670363 
L 177.423058 190.751739 
L 172.569785 188.835208 
L 168.265524 186.930593 
L 163.545383 184.575807 
L 159.450071 182.256163 
L 155.885468 179.97493 
L 152.775844 177.733109 
L 150.059771 175.530337 
L 147.249902 172.9369 
L 144.86457 170.395237 
L 142.847471 167.902207 
L 141.153074 165.454603 
L 139.744219 163.049327 
L 138.590309 160.68348 
L 137.532658 157.969615 
L 136.754307 155.301992 
L 136.227948 152.677251 
L 135.930982 150.092454 
L 135.844545 147.54504 
L 135.9833 144.676655 
L 136.356481 141.851381 
L 136.947446 139.066836 
L 137.742146 136.321024 
L 138.864881 133.276225 
L 140.215857 130.276414 
L 141.782711 127.320042 
L 143.763959 124.084656 
L 145.986027 120.900125 
L 148.438007 117.765528 
L 151.389359 114.374411 
L 154.596148 111.04248 
L 158.048423 107.769551 
L 162.084026 104.266452 
L 166.390617 100.833999 
L 170.958562 97.472782 
L 176.191762 93.912756 
L 181.710608 90.438436 
L 187.505078 87.051172 
L 194.042554 83.502405 
L 200.877096 80.058283 
L 207.997545 76.720862 
L 215.392991 73.492256 
L 223.609647 70.156221 
L 232.116593 66.950212 
L 240.900843 63.876861 
L 249.949442 60.938766 
L 259.878049 57.956741 
L 261.138451 57.595161 
L 261.138451 57.595161 
" clip-path="url(#pacabd3eee0)" style="fill: none; stroke: #d62728; stroke-width: 1.5; stroke-linecap: square"/>
   </g>
   <g id="patch_3">
    <path d="M 50.573438 307.872 
L 50.573438 41.76 
" style="fill: none; stroke: #000000; stroke-width: 0.8; stroke-linejoin: miter; stroke-linecap: square"/>
   </g>
   <g id="patch_4">
    <path d="M 407.693438 307.872 
L 407.693438 41.76 
" style="fill: none; stroke: #000000; stroke-width: 0.8; stroke-linejoin: miter; stroke-linecap: square"/>
   </g>
   <g id="patch_5">
    <path d="M 50.573438 307.872 
L 407.693437 307.872 
" style="fill: none; stroke: #000000; stroke-width: 0.8; stroke-linejoin: miter; stroke-linecap: square"/>
   </g>
   <g id="patch_6">
    <path d="M 50.573438 41.76 
L 407.693437 41.76 
" style="fill: none; stroke: #000000; stroke-width: 0.8; stroke-linejoin: miter; stroke-linecap: square"/>
   </g>
   <g id="text_14">
    <g id="patch_7">
     <path d="M 425.549438 102.337163 
L 570.549438 102.337163 
Q 574.549438 102.337163 574.549438 98.337163 
L 574.549438 55.0656 
Q 574.549438 51.0656 570.549438 51.0656 
L 425.549438 51.0656 
Q 421.549438 51.0656 421.549438 55.0656 
L 421.549438 98.337163 
Q 421.549438 102.337163 425.549438 102.337163 
z
" style="fill: #ffffff; opacity: 0.5; stroke: #000000; stroke-linejoin: miter"/>
    </g>
    <!-- Summary -->
    <g transform="translate(425.549438 62.664038) scale(0.1 -0.1)">
     <defs>
      <path id="DejaVuSans-53" d="M 3425 4513 
L 3425 3897 
Q 3066 4069 2747 4153 
Q 2428 4238 2131 4238 
Q 1616 4238 1336 4038 
Q 1056 3838 1056 3469 
Q 1056 3159 1242 3001 
Q 1428 2844 1947 2747 
L 2328 2669 
Q 3034 2534 3370 2195 
Q 3706 1856 3706 1288 
Q 3706 609 3251 259 
Q 2797 -91 1919 -91 
Q 1588 -91 1214 -16 
Q 841 59 441 206 
L 441 856 
Q 825 641 1194 531 
Q 1563 422 1919 422 
Q 2459 422 2753 634 
Q 3047 847 3047 1241 
Q 3047 1584 2836 1778 
Q 2625 1972 2144 2069 
L 1759 2144 
Q 1053 2284 737 2584 
Q 422 2884 422 3419 
Q 422 4038 858 4394 
Q 1294 4750 2059 4750 
Q 2388 4750 2728 4690 
Q 3069 4631 3425 4513 
z
" transform="scale(0.015625)"/>
      <path id="DejaVuSans-75" d="M 544 1381 
L 544 3500 
L 1119 3500 
L 1119 1403 
Q 1119 906 1312 657 
Q 1506 409 1894 409 
Q 2359 409 2629 706 
Q 2900 1003 2900 1516 
L 2900 3500 
L 3475 3500 
L 3475 0 
L 2900 0 
L 2900 538 
Q 2691 219 2414 64 
Q 2138 -91 1772 -91 
Q 1169 -91 856 284 
Q 544 659 544 1381 
z
M 1991 3584 
L 1991 3584 
z
" transform="scale(0.015625)"/>
      <path id="DejaVuSans-61" d="M 2194 1759 
Q 1497 1759 1228 1600 
Q 959 1441 959 1056 
Q 959 750 1161 570 
Q 1363 391 1709 391 
Q 2188 391 2477 730 
Q 2766 1069 2766 1631 
L 2766 1759 
L 2194 1759 
z
M 3341 1997 
L 3341 0 
L 2766 0 
L 2766 531 
Q 2569 213 2275 61 
Q 1981 -91 1556 -91 
Q 1019 -91 701 211 
Q 384 513 384 1019 
Q 384 1609 779 1909 
Q 1175 2209 1959 2209 
L 2766 2209 
L 2766 2266 
Q 2766 2663 2505 2880 
Q 2244 3097 1772 3097 
Q 1472 3097 1187 3025 
Q 903 2953 641 2809 
L 641 3341 
Q 956 3463 1253 3523 
Q 1550 3584 1831 3584 
Q 2591 3584 2966 3190 
Q 3341 2797 3341 1997 
z
" transform="scale(0.015625)"/>
      <path id="DejaVuSans-72" d="M 2631 2963 
Q 2534 3019 2420 3045 
Q 2306 3072 2169 3072 
Q 1681 3072 1420 2755 
Q 1159 2438 1159 1844 
L 1159 0 
L 581 0 
L 581 3500 
L 1159 3500 
L 1159 2956 
Q 1341 3275 1631 3429 
Q 1922 3584 2338 3584 
Q 2397 3584 2469 3576 
Q 2541 3569 2628 3553 
L 2631 2963 
z
" transform="scale(0.015625)"/>
      <path id="DejaVuSans-79" d="M 2059 -325 
Q 1816 -950 1584 -1140 
Q 1353 -1331 966 -1331 
L 506 -1331 
L 506 -850 
L 844 -850 
Q 1081 -850 1212 -737 
Q 1344 -625 1503 -206 
L 1606 56 
L 191 3500 
L 800 3500 
L 1894 763 
L 2988 3500 
L 3597 3500 
L 2059 -325 
z
" transform="scale(0.015625)"/>
     </defs>
     <use xlink:href="#DejaVuSans-53"/>
     <use xlink:href="#DejaVuSans-75" x="63.476562"/>
     <use xlink:href="#DejaVuSans-6d" x="126.855469"/>
     <use xlink:href="#DejaVuSans-6d" x="224.267578"/>
     <use xlink:href="#DejaVuSans-61" x="321.679688"/>
     <use xlink:href="#DejaVuSans-72" x="382.958984"/>
     <use xlink:href="#DejaVuSans-79" x="424.072266"/>
    </g>
    <!-- $Q_I$: 33.9$\pm$2.2 k -->
    <g transform="translate(425.549438 73.86185) scale(0.1 -0.1)">
     <defs>
      <path id="DejaVuSans-Oblique-51" d="M 2309 -84 
Q 2275 -88 2237 -89 
Q 2200 -91 2125 -91 
Q 1250 -91 756 411 
Q 263 913 263 1797 
Q 263 2319 452 2844 
Q 641 3369 978 3788 
Q 1369 4269 1858 4509 
Q 2347 4750 2938 4750 
Q 3794 4750 4287 4245 
Q 4781 3741 4781 2869 
Q 4781 1928 4265 1147 
Q 3750 366 2919 44 
L 3553 -825 
L 2847 -825 
L 2309 -84 
z
M 2919 4238 
Q 2400 4238 2003 3986 
Q 1606 3734 1313 3219 
Q 1125 2891 1026 2522 
Q 928 2153 928 1778 
Q 928 1128 1239 775 
Q 1550 422 2119 422 
Q 2631 422 3032 676 
Q 3434 931 3719 1434 
Q 3909 1772 4009 2142 
Q 4109 2513 4109 2881 
Q 4109 3528 3796 3883 
Q 3484 4238 2919 4238 
z
" transform="scale(0.015625)"/>
      <path id="DejaVuSans-Oblique-49" d="M 1081 4666 
L 1716 4666 
L 806 0 
L 172 0 
L 1081 4666 
z
" transform="scale(0.015625)"/>
      <path id="DejaVuSans-3a" d="M 750 794 
L 1409 794 
L 1409 0 
L 750 0 
L 750 794 
z
M 750 3309 
L 1409 3309 
L 1409 2516 
L 750 2516 
L 750 3309 
z
" transform="scale(0.015625)"/>
      <path id="DejaVuSans-2e" d="M 684 794 
L 1344 794 
L 1344 0 
L 684 0 
L 684 794 
z
" transform="scale(0.015625)"/>
      <path id="DejaVuSans-39" d="M 703 97 
L 703 672 
Q 941 559 1184 500 
Q 1428 441 1663 441 
Q 2288 441 2617 861 
Q 2947 1281 2994 2138 
Q 2813 1869 2534 1725 
Q 2256 1581 1919 1581 
Q 1219 1581 811 2004 
Q 403 2428 403 3163 
Q 403 3881 828 4315 
Q 1253 4750 1959 4750 
Q 2769 4750 3195 4129 
Q 3622 3509 3622 2328 
Q 3622 1225 3098 567 
Q 2575 -91 1691 -91 
Q 1453 -91 1209 -44 
Q 966 3 703 97 
z
M 1959 2075 
Q 2384 2075 2632 2365 
Q 2881 2656 2881 3163 
Q 2881 3666 2632 3958 
Q 2384 4250 1959 4250 
Q 1534 4250 1286 3958 
Q 1038 3666 1038 3163 
Q 1038 2656 1286 2365 
Q 1534 2075 1959 2075 
z
" transform="scale(0.015625)"/>
      <path id="DejaVuSans-b1" d="M 2944 4013 
L 2944 2803 
L 4684 2803 
L 4684 2272 
L 2944 2272 
L 2944 1063 
L 2419 1063 
L 2419 2272 
L 678 2272 
L 678 2803 
L 2419 2803 
L 2419 4013 
L 2944 4013 
z
M 678 531 
L 4684 531 
L 4684 0 
L 678 0 
L 678 531 
z
" transform="scale(0.015625)"/>
      <path id="DejaVuSans-6b" d="M 581 4863 
L 1159 4863 
L 1159 1991 
L 2875 3500 
L 3609 3500 
L 1753 1863 
L 3688 0 
L 2938 0 
L 1159 1709 
L 1159 0 
L 581 0 
L 581 4863 
z
" transform="scale(0.015625)"/>
     </defs>
     <use xlink:href="#DejaVuSans-Oblique-51" transform="translate(0 0.015625)"/>
     <use xlink:href="#DejaVuSans-Oblique-49" transform="translate(78.710938 -16.390625) scale(0.7)"/>
     <use xlink:href="#DejaVuSans-3a" transform="translate(102.089844 0.015625)"/>
     <use xlink:href="#DejaVuSans-20" transform="translate(135.78125 0.015625)"/>
     <use xlink:href="#DejaVuSans-33" transform="translate(167.568359 0.015625)"/>
     <use xlink:href="#DejaVuSans-33" transform="translate(231.191406 0.015625)"/>
     <use xlink:href="#DejaVuSans-2e" transform="translate(294.814453 0.015625)"/>
     <use xlink:href="#DejaVuSans-39" transform="translate(326.601562 0.015625)"/>
     <use xlink:href="#DejaVuSans-b1" transform="translate(390.224609 0.015625)"/>
     <use xlink:href="#DejaVuSans-32" transform="translate(474.013672 0.015625)"/>
     <use xlink:href="#DejaVuSans-2e" transform="translate(537.636719 0.015625)"/>
     <use xlink:href="#DejaVuSans-32" transform="translate(563.923828 0.015625)"/>
     <use xlink:href="#DejaVuSans-20" transform="translate(627.546875 0.015625)"/>
     <use xlink:href="#DejaVuSans-6b" transform="translate(659.333984 0.015625)"/>
    </g>
    <!-- $Q_C$: 8.43$\pm$0.12 k -->
    <g transform="translate(425.549438 85.059663) scale(0.1 -0.1)">
     <defs>
      <path id="DejaVuSans-Oblique-43" d="M 4447 4306 
L 4319 3641 
Q 4019 3944 3683 4091 
Q 3347 4238 2956 4238 
Q 2422 4238 2017 3981 
Q 1613 3725 1319 3200 
Q 1131 2863 1032 2486 
Q 934 2109 934 1728 
Q 934 1091 1264 756 
Q 1594 422 2222 422 
Q 2656 422 3056 561 
Q 3456 700 3834 978 
L 3688 231 
Q 3316 72 2936 -9 
Q 2556 -91 2175 -91 
Q 1278 -91 773 396 
Q 269 884 269 1753 
Q 269 2309 461 2846 
Q 653 3384 1013 3828 
Q 1394 4300 1883 4525 
Q 2372 4750 3022 4750 
Q 3422 4750 3780 4639 
Q 4138 4528 4447 4306 
z
" transform="scale(0.015625)"/>
      <path id="DejaVuSans-38" d="M 2034 2216 
Q 1584 2216 1326 1975 
Q 1069 1734 1069 1313 
Q 1069 891 1326 650 
Q 1584 409 2034 409 
Q 2484 409 2743 651 
Q 3003 894 3003 1313 
Q 3003 1734 2745 1975 
Q 2488 2216 2034 2216 
z
M 1403 2484 
Q 997 2584 770 2862 
Q 544 3141 544 3541 
Q 544 4100 942 4425 
Q 1341 4750 2034 4750 
Q 2731 4750 3128 4425 
Q 3525 4100 3525 3541 
Q 3525 3141 3298 2862 
Q 3072 2584 2669 2484 
Q 3125 2378 3379 2068 
Q 3634 1759 3634 1313 
Q 3634 634 3220 271 
Q 2806 -91 2034 -91 
Q 1263 -91 848 271 
Q 434 634 434 1313 
Q 434 1759 690 2068 
Q 947 2378 1403 2484 
z
M 1172 3481 
Q 1172 3119 1398 2916 
Q 1625 2713 2034 2713 
Q 2441 2713 2670 2916 
Q 2900 3119 2900 3481 
Q 2900 3844 2670 4047 
Q 2441 4250 2034 4250 
Q 1625 4250 1398 4047 
Q 1172 3844 1172 3481 
z
" transform="scale(0.015625)"/>
      <path id="DejaVuSans-34" d="M 2419 4116 
L 825 1625 
L 2419 1625 
L 2419 4116 
z
M 2253 4666 
L 3047 4666 
L 3047 1625 
L 3713 1625 
L 3713 1100 
L 3047 1100 
L 3047 0 
L 2419 0 
L 2419 1100 
L 313 1100 
L 313 1709 
L 2253 4666 
z
" transform="scale(0.015625)"/>
     </defs>
     <use xlink:href="#DejaVuSans-Oblique-51" transform="translate(0 0.015625)"/>
     <use xlink:href="#DejaVuSans-Oblique-43" transform="translate(78.710938 -16.390625) scale(0.7)"/>
     <use xlink:href="#DejaVuSans-3a" transform="translate(130.322266 0.015625)"/>
     <use xlink:href="#DejaVuSans-20" transform="translate(164.013672 0.015625)"/>
     <use xlink:href="#DejaVuSans-38" transform="translate(195.800781 0.015625)"/>
     <use xlink:href="#DejaVuSans-2e" transform="translate(259.423828 0.015625)"/>
     <use xlink:href="#DejaVuSans-34" transform="translate(291.210938 0.015625)"/>
     <use xlink:href="#DejaVuSans-33" transform="translate(354.833984 0.015625)"/>
     <use xlink:href="#DejaVuSans-b1" transform="translate(418.457031 0.015625)"/>
     <use xlink:href="#DejaVuSans-30" transform="translate(502.246094 0.015625)"/>
     <use xlink:href="#DejaVuSans-2e" transform="translate(565.869141 0.015625)"/>
     <use xlink:href="#DejaVuSans-31" transform="translate(597.65625 0.015625)"/>
     <use xlink:href="#DejaVuSans-32" transform="translate(661.279297 0.015625)"/>
     <use xlink:href="#DejaVuSans-20" transform="translate(724.902344 0.015625)"/>
     <use xlink:href="#DejaVuSans-6b" transform="translate(756.689453 0.015625)"/>
    </g>
    <!-- $f_{res}$: 5.7209340$\pm$7.4e-06 GHz -->
    <g transform="translate(425.549438 96.257475) scale(0.1 -0.1)">
     <defs>
      <path id="DejaVuSans-Oblique-66" d="M 3059 4863 
L 2969 4384 
L 2419 4384 
Q 2106 4384 1964 4261 
Q 1822 4138 1753 3809 
L 1691 3500 
L 2638 3500 
L 2553 3053 
L 1606 3053 
L 1013 0 
L 434 0 
L 1031 3053 
L 481 3053 
L 563 3500 
L 1113 3500 
L 1159 3744 
Q 1278 4363 1576 4613 
Q 1875 4863 2516 4863 
L 3059 4863 
z
" transform="scale(0.015625)"/>
      <path id="DejaVuSans-Oblique-72" d="M 2853 2969 
Q 2766 3016 2653 3041 
Q 2541 3066 2413 3066 
Q 1953 3066 1609 2717 
Q 1266 2369 1153 1784 
L 800 0 
L 225 0 
L 909 3500 
L 1484 3500 
L 1375 2956 
Q 1603 3259 1920 3421 
Q 2238 3584 2597 3584 
Q 2691 3584 2781 3573 
Q 2872 3563 2963 3538 
L 2853 2969 
z
" transform="scale(0.015625)"/>
      <path id="DejaVuSans-Oblique-65" d="M 3078 2063 
Q 3088 2113 3092 2166 
Q 3097 2219 3097 2272 
Q 3097 2653 2873 2875 
Q 2650 3097 2266 3097 
Q 1838 3097 1509 2826 
Q 1181 2556 1013 2059 
L 3078 2063 
z
M 3578 1613 
L 903 1613 
Q 884 1494 878 1425 
Q 872 1356 872 1306 
Q 872 872 1139 634 
Q 1406 397 1894 397 
Q 2269 397 2603 481 
Q 2938 566 3225 728 
L 3116 159 
Q 2806 34 2476 -28 
Q 2147 -91 1806 -91 
Q 1078 -91 686 257 
Q 294 606 294 1247 
Q 294 1794 489 2264 
Q 684 2734 1063 3103 
Q 1306 3334 1642 3459 
Q 1978 3584 2356 3584 
Q 2950 3584 3301 3228 
Q 3653 2872 3653 2272 
Q 3653 2128 3634 1964 
Q 3616 1800 3578 1613 
z
" transform="scale(0.015625)"/>
      <path id="DejaVuSans-Oblique-73" d="M 3200 3397 
L 3091 2853 
Q 2863 2978 2609 3040 
Q 2356 3103 2088 3103 
Q 1634 3103 1373 2948 
Q 1113 2794 1113 2528 
Q 1113 2219 1719 2053 
Q 1766 2041 1788 2034 
L 1972 1978 
Q 2547 1819 2739 1644 
Q 2931 1469 2931 1166 
Q 2931 609 2489 259 
Q 2047 -91 1331 -91 
Q 1053 -91 747 -37 
Q 441 16 72 128 
L 184 722 
Q 500 559 806 475 
Q 1113 391 1394 391 
Q 1816 391 2080 572 
Q 2344 753 2344 1031 
Q 2344 1331 1650 1516 
L 1591 1531 
L 1394 1581 
Q 956 1697 753 1886 
Q 550 2075 550 2369 
Q 550 2928 970 3256 
Q 1391 3584 2113 3584 
Q 2397 3584 2667 3537 
Q 2938 3491 3200 3397 
z
" transform="scale(0.015625)"/>
      <path id="DejaVuSans-37" d="M 525 4666 
L 3525 4666 
L 3525 4397 
L 1831 0 
L 1172 0 
L 2766 4134 
L 525 4134 
L 525 4666 
z
" transform="scale(0.015625)"/>
      <path id="DejaVuSans-36" d="M 2113 2584 
Q 1688 2584 1439 2293 
Q 1191 2003 1191 1497 
Q 1191 994 1439 701 
Q 1688 409 2113 409 
Q 2538 409 2786 701 
Q 3034 994 3034 1497 
Q 3034 2003 2786 2293 
Q 2538 2584 2113 2584 
z
M 3366 4563 
L 3366 3988 
Q 3128 4100 2886 4159 
Q 2644 4219 2406 4219 
Q 1781 4219 1451 3797 
Q 1122 3375 1075 2522 
Q 1259 2794 1537 2939 
Q 1816 3084 2150 3084 
Q 2853 3084 3261 2657 
Q 3669 2231 3669 1497 
Q 3669 778 3244 343 
Q 2819 -91 2113 -91 
Q 1303 -91 875 529 
Q 447 1150 447 2328 
Q 447 3434 972 4092 
Q 1497 4750 2381 4750 
Q 2619 4750 2861 4703 
Q 3103 4656 3366 4563 
z
" transform="scale(0.015625)"/>
      <path id="DejaVuSans-47" d="M 3809 666 
L 3809 1919 
L 2778 1919 
L 2778 2438 
L 4434 2438 
L 4434 434 
Q 4069 175 3628 42 
Q 3188 -91 2688 -91 
Q 1594 -91 976 548 
Q 359 1188 359 2328 
Q 359 3472 976 4111 
Q 1594 4750 2688 4750 
Q 3144 4750 3555 4637 
Q 3966 4525 4313 4306 
L 4313 3634 
Q 3963 3931 3569 4081 
Q 3175 4231 2741 4231 
Q 1884 4231 1454 3753 
Q 1025 3275 1025 2328 
Q 1025 1384 1454 906 
Q 1884 428 2741 428 
Q 3075 428 3337 486 
Q 3600 544 3809 666 
z
" transform="scale(0.015625)"/>
      <path id="DejaVuSans-48" d="M 628 4666 
L 1259 4666 
L 1259 2753 
L 3553 2753 
L 3553 4666 
L 4184 4666 
L 4184 0 
L 3553 0 
L 3553 2222 
L 1259 2222 
L 1259 0 
L 628 0 
L 628 4666 
z
" transform="scale(0.015625)"/>
      <path id="DejaVuSans-7a" d="M 353 3500 
L 3084 3500 
L 3084 2975 
L 922 459 
L 3084 459 
L 3084 0 
L 275 0 
L 275 525 
L 2438 3041 
L 353 3041 
L 353 3500 
z
" transform="scale(0.015625)"/>
     </defs>
     <use xlink:href="#DejaVuSans-Oblique-66" transform="translate(0 0.015625)"/>
     <use xlink:href="#DejaVuSans-Oblique-72" transform="translate(35.205078 -16.390625) scale(0.7)"/>
     <use xlink:href="#DejaVuSans-Oblique-65" transform="translate(63.984375 -16.390625) scale(0.7)"/>
     <use xlink:href="#DejaVuSans-Oblique-73" transform="translate(107.050781 -16.390625) scale(0.7)"/>
     <use xlink:href="#DejaVuSans-3a" transform="translate(146.254883 0.015625)"/>
     <use xlink:href="#DejaVuSans-20" transform="translate(179.946289 0.015625)"/>
     <use xlink:href="#DejaVuSans-35" transform="translate(211.733398 0.015625)"/>
     <use xlink:href="#DejaVuSans-2e" transform="translate(275.356445 0.015625)"/>
     <use xlink:href="#DejaVuSans-37" transform="translate(299.393555 0.015625)"/>
     <use xlink:href="#DejaVuSans-32" transform="translate(363.016602 0.015625)"/>
     <use xlink:href="#DejaVuSans-30" transform="translate(426.639648 0.015625)"/>
     <use xlink:href="#DejaVuSans-39" transform="translate(490.262695 0.015625)"/>
     <use xlink:href="#DejaVuSans-33" transform="translate(553.885742 0.015625)"/>
     <use xlink:href="#DejaVuSans-34" transform="translate(617.508789 0.015625)"/>
     <use xlink:href="#DejaVuSans-30" transform="translate(681.131836 0.015625)"/>
     <use xlink:href="#DejaVuSans-b1" transform="translate(744.754883 0.015625)"/>
     <use xlink:href="#DejaVuSans-37" transform="translate(828.543945 0.015625)"/>
     <use xlink:href="#DejaVuSans-2e" transform="translate(892.166992 0.015625)"/>
     <use xlink:href="#DejaVuSans-34" transform="translate(923.954102 0.015625)"/>
     <use xlink:href="#DejaVuSans-65" transform="translate(987.577148 0.015625)"/>
     <use xlink:href="#DejaVuSans-2d" transform="translate(1049.100586 0.015625)"/>
     <use xlink:href="#DejaVuSans-30" transform="translate(1085.18457 0.015625)"/>
     <use xlink:href="#DejaVuSans-36" transform="translate(1148.807617 0.015625)"/>
     <use xlink:href="#DejaVuSans-20" transform="translate(1212.430664 0.015625)"/>
     <use xlink:href="#DejaVuSans-47" transform="translate(1244.217773 0.015625)"/>
     <use xlink:href="#DejaVuSans-48" transform="translate(1321.708008 0.015625)"/>
     <use xlink:href="#DejaVuSans-7a" transform="translate(1396.90332 0.015625)"/>
    </g>
   </g>
  </g>
  <g id="text_15">
   <!-- S21 One-tone -->
   <g transform="translate(182.1225 16.318125) scale(0.12 -0.12)">
    <defs>
     <path id="DejaVuSans-4f" d="M 2522 4238 
Q 1834 4238 1429 3725 
Q 1025 3213 1025 2328 
Q 1025 1447 1429 934 
Q 1834 422 2522 422 
Q 3209 422 3611 934 
Q 4013 1447 4013 2328 
Q 4013 3213 3611 3725 
Q 3209 4238 2522 4238 
z
M 2522 4750 
Q 3503 4750 4090 4092 
Q 4678 3434 4678 2328 
Q 4678 1225 4090 567 
Q 3503 -91 2522 -91 
Q 1538 -91 948 565 
Q 359 1222 359 2328 
Q 359 3434 948 4092 
Q 1538 4750 2522 4750 
z
" transform="scale(0.015625)"/>
     <path id="DejaVuSans-6e" d="M 3513 2113 
L 3513 0 
L 2938 0 
L 2938 2094 
Q 2938 2591 2744 2837 
Q 2550 3084 2163 3084 
Q 1697 3084 1428 2787 
Q 1159 2491 1159 1978 
L 1159 0 
L 581 0 
L 581 3500 
L 1159 3500 
L 1159 2956 
Q 1366 3272 1645 3428 
Q 1925 3584 2291 3584 
Q 2894 3584 3203 3211 
Q 3513 2838 3513 2113 
z
" transform="scale(0.015625)"/>
     <path id="DejaVuSans-74" d="M 1172 4494 
L 1172 3500 
L 2356 3500 
L 2356 3053 
L 1172 3053 
L 1172 1153 
Q 1172 725 1289 603 
Q 1406 481 1766 481 
L 2356 481 
L 2356 0 
L 1766 0 
Q 1100 0 847 248 
Q 594 497 594 1153 
L 594 3053 
L 172 3053 
L 172 3500 
L 594 3500 
L 594 4494 
L 1172 4494 
z
" transform="scale(0.015625)"/>
     <path id="DejaVuSans-6f" d="M 1959 3097 
Q 1497 3097 1228 2736 
Q 959 2375 959 1747 
Q 959 1119 1226 758 
Q 1494 397 1959 397 
Q 2419 397 2687 759 
Q 2956 1122 2956 1747 
Q 2956 2369 2687 2733 
Q 2419 3097 1959 3097 
z
M 1959 3584 
Q 2709 3584 3137 3096 
Q 3566 2609 3566 1747 
Q 3566 888 3137 398 
Q 2709 -91 1959 -91 
Q 1206 -91 779 398 
Q 353 888 353 1747 
Q 353 2609 779 3096 
Q 1206 3584 1959 3584 
z
" transform="scale(0.015625)"/>
    </defs>
    <use xlink:href="#DejaVuSans-53"/>
    <use xlink:href="#DejaVuSans-32" x="63.476562"/>
    <use xlink:href="#DejaVuSans-31" x="127.099609"/>
    <use xlink:href="#DejaVuSans-20" x="190.722656"/>
    <use xlink:href="#DejaVuSans-4f" x="222.509766"/>
    <use xlink:href="#DejaVuSans-6e" x="301.220703"/>
    <use xlink:href="#DejaVuSans-65" x="364.599609"/>
    <use xlink:href="#DejaVuSans-2d" x="426.123047"/>
    <use xlink:href="#DejaVuSans-74" x="462.207031"/>
    <use xlink:href="#DejaVuSans-6f" x="501.416016"/>
    <use xlink:href="#DejaVuSans-6e" x="562.597656"/>
    <use xlink:href="#DejaVuSans-65" x="625.976562"/>
   </g>
   <!-- tuid: 20240318-131319-819-f628f5 -->
   <g transform="translate(116.92875 29.7555) scale(0.12 -0.12)">
    <defs>
     <path id="DejaVuSans-69" d="M 603 3500 
L 1178 3500 
L 1178 0 
L 603 0 
L 603 3500 
z
M 603 4863 
L 1178 4863 
L 1178 4134 
L 603 4134 
L 603 4863 
z
" transform="scale(0.015625)"/>
     <path id="DejaVuSans-64" d="M 2906 2969 
L 2906 4863 
L 3481 4863 
L 3481 0 
L 2906 0 
L 2906 525 
Q 2725 213 2448 61 
Q 2172 -91 1784 -91 
Q 1150 -91 751 415 
Q 353 922 353 1747 
Q 353 2572 751 3078 
Q 1150 3584 1784 3584 
Q 2172 3584 2448 3432 
Q 2725 3281 2906 2969 
z
M 947 1747 
Q 947 1113 1208 752 
Q 1469 391 1925 391 
Q 2381 391 2643 752 
Q 2906 1113 2906 1747 
Q 2906 2381 2643 2742 
Q 2381 3103 1925 3103 
Q 1469 3103 1208 2742 
Q 947 2381 947 1747 
z
" transform="scale(0.015625)"/>
     <path id="DejaVuSans-66" d="M 2375 4863 
L 2375 4384 
L 1825 4384 
Q 1516 4384 1395 4259 
Q 1275 4134 1275 3809 
L 1275 3500 
L 2222 3500 
L 2222 3053 
L 1275 3053 
L 1275 0 
L 697 0 
L 697 3053 
L 147 3053 
L 147 3500 
L 697 3500 
L 697 3744 
Q 697 4328 969 4595 
Q 1241 4863 1831 4863 
L 2375 4863 
z
" transform="scale(0.015625)"/>
    </defs>
    <use xlink:href="#DejaVuSans-74"/>
    <use xlink:href="#DejaVuSans-75" x="39.208984"/>
    <use xlink:href="#DejaVuSans-69" x="102.587891"/>
    <use xlink:href="#DejaVuSans-64" x="130.371094"/>
    <use xlink:href="#DejaVuSans-3a" x="193.847656"/>
    <use xlink:href="#DejaVuSans-20" x="227.539062"/>
    <use xlink:href="#DejaVuSans-32" x="259.326172"/>
    <use xlink:href="#DejaVuSans-30" x="322.949219"/>
    <use xlink:href="#DejaVuSans-32" x="386.572266"/>
    <use xlink:href="#DejaVuSans-34" x="450.195312"/>
    <use xlink:href="#DejaVuSans-30" x="513.818359"/>
    <use xlink:href="#DejaVuSans-33" x="577.441406"/>
    <use xlink:href="#DejaVuSans-31" x="641.064453"/>
    <use xlink:href="#DejaVuSans-38" x="704.6875"/>
    <use xlink:href="#DejaVuSans-2d" x="768.310547"/>
    <use xlink:href="#DejaVuSans-31" x="804.394531"/>
    <use xlink:href="#DejaVuSans-33" x="868.017578"/>
    <use xlink:href="#DejaVuSans-31" x="931.640625"/>
    <use xlink:href="#DejaVuSans-33" x="995.263672"/>
    <use xlink:href="#DejaVuSans-31" x="1058.886719"/>
    <use xlink:href="#DejaVuSans-39" x="1122.509766"/>
    <use xlink:href="#DejaVuSans-2d" x="1186.132812"/>
    <use xlink:href="#DejaVuSans-38" x="1222.216797"/>
    <use xlink:href="#DejaVuSans-31" x="1285.839844"/>
    <use xlink:href="#DejaVuSans-39" x="1349.462891"/>
    <use xlink:href="#DejaVuSans-2d" x="1413.085938"/>
    <use xlink:href="#DejaVuSans-66" x="1449.169922"/>
    <use xlink:href="#DejaVuSans-36" x="1484.375"/>
    <use xlink:href="#DejaVuSans-32" x="1547.998047"/>
    <use xlink:href="#DejaVuSans-38" x="1611.621094"/>
    <use xlink:href="#DejaVuSans-66" x="1675.244141"/>
    <use xlink:href="#DejaVuSans-35" x="1710.449219"/>
   </g>
  </g>
 </g>
 <defs>
  <clipPath id="pacabd3eee0">
   <rect x="50.573438" y="41.76" width="357.12" height="266.112"/>
  </clipPath>
 </defs>
</svg>
