<?xml version="1.0" encoding="utf-8" standalone="no"?>
<!DOCTYPE svg PUBLIC "-//W3C//DTD SVG 1.1//EN"
  "http://www.w3.org/Graphics/SVG/1.1/DTD/svg11.dtd">
<svg xmlns:xlink="http://www.w3.org/1999/xlink" width="562.408812pt" height="345.450125pt" viewBox="0 0 562.408812 345.450125" xmlns="http://www.w3.org/2000/svg" version="1.1">
 <metadata>
  <rdf:RDF xmlns:dc="http://purl.org/dc/elements/1.1/" xmlns:cc="http://creativecommons.org/ns#" xmlns:rdf="http://www.w3.org/1999/02/22-rdf-syntax-ns#">
   <cc:Work>
    <dc:type rdf:resource="http://purl.org/dc/dcmitype/StillImage"/>
    <dc:date>2024-03-04T13:55:41.358806</dc:date>
    <dc:format>image/svg+xml</dc:format>
    <dc:creator>
     <cc:Agent>
      <dc:title>Matplotlib v3.8.2, https://matplotlib.org/</dc:title>
     </cc:Agent>
    </dc:creator>
   </cc:Work>
  </rdf:RDF>
 </metadata>
 <defs>
  <style type="text/css">*{stroke-linejoin: round; stroke-linecap: butt}</style>
 </defs>
 <g id="figure_1">
  <g id="patch_1">
   <path d="M 0 345.450125 
L 562.408812 345.450125 
L 562.408812 0 
L 0 0 
L 0 345.450125 
z
" style="fill: none; opacity: 0"/>
  </g>
  <g id="axes_1">
   <g id="patch_2">
    <path d="M 44.232813 307.872 
L 401.352813 307.872 
L 401.352813 41.76 
L 44.232813 41.76 
z
" style="fill: #ffffff"/>
   </g>
   <g id="matplotlib.axis_1">
    <g id="xtick_1">
     <g id="line2d_1">
      <defs>
       <path id="m11c2ec9052" d="M 0 0 
L 0 3.5 
" style="stroke: #000000; stroke-width: 0.8"/>
      </defs>
      <g>
       <use xlink:href="#m11c2ec9052" x="64.787022" y="307.872" style="stroke: #000000; stroke-width: 0.8"/>
      </g>
     </g>
     <g id="text_1">
      <!-- -40 -->
      <g transform="translate(56.620616 322.470437) scale(0.1 -0.1)">
       <defs>
        <path id="DejaVuSans-2d" d="M 313 2009 
L 1997 2009 
L 1997 1497 
L 313 1497 
L 313 2009 
z
" transform="scale(0.015625)"/>
        <path id="DejaVuSans-34" d="M 2419 4116 
L 825 1625 
L 2419 1625 
L 2419 4116 
z
M 2253 4666 
L 3047 4666 
L 3047 1625 
L 3713 1625 
L 3713 1100 
L 3047 1100 
L 3047 0 
L 2419 0 
L 2419 1100 
L 313 1100 
L 313 1709 
L 2253 4666 
z
" transform="scale(0.015625)"/>
        <path id="DejaVuSans-30" d="M 2034 4250 
Q 1547 4250 1301 3770 
Q 1056 3291 1056 2328 
Q 1056 1369 1301 889 
Q 1547 409 2034 409 
Q 2525 409 2770 889 
Q 3016 1369 3016 2328 
Q 3016 3291 2770 3770 
Q 2525 4250 2034 4250 
z
M 2034 4750 
Q 2819 4750 3233 4129 
Q 3647 3509 3647 2328 
Q 3647 1150 3233 529 
Q 2819 -91 2034 -91 
Q 1250 -91 836 529 
Q 422 1150 422 2328 
Q 422 3509 836 4129 
Q 1250 4750 2034 4750 
z
" transform="scale(0.015625)"/>
       </defs>
       <use xlink:href="#DejaVuSans-2d"/>
       <use xlink:href="#DejaVuSans-34" x="36.083984"/>
       <use xlink:href="#DejaVuSans-30" x="99.707031"/>
      </g>
     </g>
    </g>
    <g id="xtick_2">
     <g id="line2d_2">
      <g>
       <use xlink:href="#m11c2ec9052" x="109.577271" y="307.872" style="stroke: #000000; stroke-width: 0.8"/>
      </g>
     </g>
     <g id="text_2">
      <!-- -30 -->
      <g transform="translate(101.410865 322.470437) scale(0.1 -0.1)">
       <defs>
        <path id="DejaVuSans-33" d="M 2597 2516 
Q 3050 2419 3304 2112 
Q 3559 1806 3559 1356 
Q 3559 666 3084 287 
Q 2609 -91 1734 -91 
Q 1441 -91 1130 -33 
Q 819 25 488 141 
L 488 750 
Q 750 597 1062 519 
Q 1375 441 1716 441 
Q 2309 441 2620 675 
Q 2931 909 2931 1356 
Q 2931 1769 2642 2001 
Q 2353 2234 1838 2234 
L 1294 2234 
L 1294 2753 
L 1863 2753 
Q 2328 2753 2575 2939 
Q 2822 3125 2822 3475 
Q 2822 3834 2567 4026 
Q 2313 4219 1838 4219 
Q 1578 4219 1281 4162 
Q 984 4106 628 3988 
L 628 4550 
Q 988 4650 1302 4700 
Q 1616 4750 1894 4750 
Q 2613 4750 3031 4423 
Q 3450 4097 3450 3541 
Q 3450 3153 3228 2886 
Q 3006 2619 2597 2516 
z
" transform="scale(0.015625)"/>
       </defs>
       <use xlink:href="#DejaVuSans-2d"/>
       <use xlink:href="#DejaVuSans-33" x="36.083984"/>
       <use xlink:href="#DejaVuSans-30" x="99.707031"/>
      </g>
     </g>
    </g>
    <g id="xtick_3">
     <g id="line2d_3">
      <g>
       <use xlink:href="#m11c2ec9052" x="154.36752" y="307.872" style="stroke: #000000; stroke-width: 0.8"/>
      </g>
     </g>
     <g id="text_3">
      <!-- -20 -->
      <g transform="translate(146.201114 322.470437) scale(0.1 -0.1)">
       <defs>
        <path id="DejaVuSans-32" d="M 1228 531 
L 3431 531 
L 3431 0 
L 469 0 
L 469 531 
Q 828 903 1448 1529 
Q 2069 2156 2228 2338 
Q 2531 2678 2651 2914 
Q 2772 3150 2772 3378 
Q 2772 3750 2511 3984 
Q 2250 4219 1831 4219 
Q 1534 4219 1204 4116 
Q 875 4013 500 3803 
L 500 4441 
Q 881 4594 1212 4672 
Q 1544 4750 1819 4750 
Q 2544 4750 2975 4387 
Q 3406 4025 3406 3419 
Q 3406 3131 3298 2873 
Q 3191 2616 2906 2266 
Q 2828 2175 2409 1742 
Q 1991 1309 1228 531 
z
" transform="scale(0.015625)"/>
       </defs>
       <use xlink:href="#DejaVuSans-2d"/>
       <use xlink:href="#DejaVuSans-32" x="36.083984"/>
       <use xlink:href="#DejaVuSans-30" x="99.707031"/>
      </g>
     </g>
    </g>
    <g id="xtick_4">
     <g id="line2d_4">
      <g>
       <use xlink:href="#m11c2ec9052" x="199.157769" y="307.872" style="stroke: #000000; stroke-width: 0.8"/>
      </g>
     </g>
     <g id="text_4">
      <!-- -10 -->
      <g transform="translate(190.991363 322.470437) scale(0.1 -0.1)">
       <defs>
        <path id="DejaVuSans-31" d="M 794 531 
L 1825 531 
L 1825 4091 
L 703 3866 
L 703 4441 
L 1819 4666 
L 2450 4666 
L 2450 531 
L 3481 531 
L 3481 0 
L 794 0 
L 794 531 
z
" transform="scale(0.015625)"/>
       </defs>
       <use xlink:href="#DejaVuSans-2d"/>
       <use xlink:href="#DejaVuSans-31" x="36.083984"/>
       <use xlink:href="#DejaVuSans-30" x="99.707031"/>
      </g>
     </g>
    </g>
    <g id="xtick_5">
     <g id="line2d_5">
      <g>
       <use xlink:href="#m11c2ec9052" x="243.948018" y="307.872" style="stroke: #000000; stroke-width: 0.8"/>
      </g>
     </g>
     <g id="text_5">
      <!-- 0 -->
      <g transform="translate(240.766768 322.470437) scale(0.1 -0.1)">
       <use xlink:href="#DejaVuSans-30"/>
      </g>
     </g>
    </g>
    <g id="xtick_6">
     <g id="line2d_6">
      <g>
       <use xlink:href="#m11c2ec9052" x="288.738267" y="307.872" style="stroke: #000000; stroke-width: 0.8"/>
      </g>
     </g>
     <g id="text_6">
      <!-- 10 -->
      <g transform="translate(282.375767 322.470437) scale(0.1 -0.1)">
       <use xlink:href="#DejaVuSans-31"/>
       <use xlink:href="#DejaVuSans-30" x="63.623047"/>
      </g>
     </g>
    </g>
    <g id="xtick_7">
     <g id="line2d_7">
      <g>
       <use xlink:href="#m11c2ec9052" x="333.528516" y="307.872" style="stroke: #000000; stroke-width: 0.8"/>
      </g>
     </g>
     <g id="text_7">
      <!-- 20 -->
      <g transform="translate(327.166016 322.470437) scale(0.1 -0.1)">
       <use xlink:href="#DejaVuSans-32"/>
       <use xlink:href="#DejaVuSans-30" x="63.623047"/>
      </g>
     </g>
    </g>
    <g id="xtick_8">
     <g id="line2d_8">
      <g>
       <use xlink:href="#m11c2ec9052" x="378.318765" y="307.872" style="stroke: #000000; stroke-width: 0.8"/>
      </g>
     </g>
     <g id="text_8">
      <!-- 30 -->
      <g transform="translate(371.956265 322.470437) scale(0.1 -0.1)">
       <use xlink:href="#DejaVuSans-33"/>
       <use xlink:href="#DejaVuSans-30" x="63.623047"/>
      </g>
     </g>
    </g>
    <g id="text_9">
     <!-- Re$(S_{21})$ [μV] -->
     <g transform="translate(192.442813 336.150125) scale(0.1 -0.1)">
      <defs>
       <path id="DejaVuSans-52" d="M 2841 2188 
Q 3044 2119 3236 1894 
Q 3428 1669 3622 1275 
L 4263 0 
L 3584 0 
L 2988 1197 
Q 2756 1666 2539 1819 
Q 2322 1972 1947 1972 
L 1259 1972 
L 1259 0 
L 628 0 
L 628 4666 
L 2053 4666 
Q 2853 4666 3247 4331 
Q 3641 3997 3641 3322 
Q 3641 2881 3436 2590 
Q 3231 2300 2841 2188 
z
M 1259 4147 
L 1259 2491 
L 2053 2491 
Q 2509 2491 2742 2702 
Q 2975 2913 2975 3322 
Q 2975 3731 2742 3939 
Q 2509 4147 2053 4147 
L 1259 4147 
z
" transform="scale(0.015625)"/>
       <path id="DejaVuSans-65" d="M 3597 1894 
L 3597 1613 
L 953 1613 
Q 991 1019 1311 708 
Q 1631 397 2203 397 
Q 2534 397 2845 478 
Q 3156 559 3463 722 
L 3463 178 
Q 3153 47 2828 -22 
Q 2503 -91 2169 -91 
Q 1331 -91 842 396 
Q 353 884 353 1716 
Q 353 2575 817 3079 
Q 1281 3584 2069 3584 
Q 2775 3584 3186 3129 
Q 3597 2675 3597 1894 
z
M 3022 2063 
Q 3016 2534 2758 2815 
Q 2500 3097 2075 3097 
Q 1594 3097 1305 2825 
Q 1016 2553 972 2059 
L 3022 2063 
z
" transform="scale(0.015625)"/>
       <path id="DejaVuSans-28" d="M 1984 4856 
Q 1566 4138 1362 3434 
Q 1159 2731 1159 2009 
Q 1159 1288 1364 580 
Q 1569 -128 1984 -844 
L 1484 -844 
Q 1016 -109 783 600 
Q 550 1309 550 2009 
Q 550 2706 781 3412 
Q 1013 4119 1484 4856 
L 1984 4856 
z
" transform="scale(0.015625)"/>
       <path id="DejaVuSans-Oblique-53" d="M 3859 4513 
L 3738 3897 
Q 3422 4066 3111 4152 
Q 2800 4238 2509 4238 
Q 1944 4238 1609 3991 
Q 1275 3744 1275 3334 
Q 1275 3109 1398 2989 
Q 1522 2869 2034 2731 
L 2413 2638 
Q 3053 2472 3303 2217 
Q 3553 1963 3553 1503 
Q 3553 797 2998 353 
Q 2444 -91 1538 -91 
Q 1166 -91 791 -17 
Q 416 56 38 206 
L 166 856 
Q 513 641 861 531 
Q 1209 422 1556 422 
Q 2147 422 2503 684 
Q 2859 947 2859 1369 
Q 2859 1650 2717 1795 
Q 2575 1941 2106 2059 
L 1728 2156 
Q 1081 2325 845 2545 
Q 609 2766 609 3163 
Q 609 3859 1145 4304 
Q 1681 4750 2541 4750 
Q 2875 4750 3203 4690 
Q 3531 4631 3859 4513 
z
" transform="scale(0.015625)"/>
       <path id="DejaVuSans-29" d="M 513 4856 
L 1013 4856 
Q 1481 4119 1714 3412 
Q 1947 2706 1947 2009 
Q 1947 1309 1714 600 
Q 1481 -109 1013 -844 
L 513 -844 
Q 928 -128 1133 580 
Q 1338 1288 1338 2009 
Q 1338 2731 1133 3434 
Q 928 4138 513 4856 
z
" transform="scale(0.015625)"/>
       <path id="DejaVuSans-20" transform="scale(0.015625)"/>
       <path id="DejaVuSans-5b" d="M 550 4863 
L 1875 4863 
L 1875 4416 
L 1125 4416 
L 1125 -397 
L 1875 -397 
L 1875 -844 
L 550 -844 
L 550 4863 
z
" transform="scale(0.015625)"/>
       <path id="DejaVuSans-3bc" d="M 544 -1331 
L 544 3500 
L 1119 3500 
L 1119 1325 
Q 1119 872 1334 640 
Q 1550 409 1972 409 
Q 2434 409 2667 671 
Q 2900 934 2900 1459 
L 2900 3500 
L 3475 3500 
L 3475 806 
Q 3475 619 3529 530 
Q 3584 441 3700 441 
Q 3728 441 3778 458 
Q 3828 475 3916 513 
L 3916 50 
Q 3788 -22 3673 -56 
Q 3559 -91 3450 -91 
Q 3234 -91 3106 31 
Q 2978 153 2931 403 
Q 2775 156 2548 32 
Q 2322 -91 2016 -91 
Q 1697 -91 1473 31 
Q 1250 153 1119 397 
L 1119 -1331 
L 544 -1331 
z
" transform="scale(0.015625)"/>
       <path id="DejaVuSans-56" d="M 1831 0 
L 50 4666 
L 709 4666 
L 2188 738 
L 3669 4666 
L 4325 4666 
L 2547 0 
L 1831 0 
z
" transform="scale(0.015625)"/>
       <path id="DejaVuSans-5d" d="M 1947 4863 
L 1947 -844 
L 622 -844 
L 622 -397 
L 1369 -397 
L 1369 4416 
L 622 4416 
L 622 4863 
L 1947 4863 
z
" transform="scale(0.015625)"/>
      </defs>
      <use xlink:href="#DejaVuSans-52" transform="translate(0 0.015625)"/>
      <use xlink:href="#DejaVuSans-65" transform="translate(69.482422 0.015625)"/>
      <use xlink:href="#DejaVuSans-28" transform="translate(131.005859 0.015625)"/>
      <use xlink:href="#DejaVuSans-Oblique-53" transform="translate(170.019531 0.015625)"/>
      <use xlink:href="#DejaVuSans-32" transform="translate(233.496094 -16.390625) scale(0.7)"/>
      <use xlink:href="#DejaVuSans-31" transform="translate(278.032227 -16.390625) scale(0.7)"/>
      <use xlink:href="#DejaVuSans-29" transform="translate(325.302734 0.015625)"/>
      <use xlink:href="#DejaVuSans-20" transform="translate(364.316406 0.015625)"/>
      <use xlink:href="#DejaVuSans-5b" transform="translate(396.103516 0.015625)"/>
      <use xlink:href="#DejaVuSans-3bc" transform="translate(435.117188 0.015625)"/>
      <use xlink:href="#DejaVuSans-56" transform="translate(498.740234 0.015625)"/>
      <use xlink:href="#DejaVuSans-5d" transform="translate(567.148438 0.015625)"/>
     </g>
    </g>
   </g>
   <g id="matplotlib.axis_2">
    <g id="ytick_1">
     <g id="line2d_9">
      <defs>
       <path id="m245938eec5" d="M 0 0 
L -3.5 0 
" style="stroke: #000000; stroke-width: 0.8"/>
      </defs>
      <g>
       <use xlink:href="#m245938eec5" x="44.232813" y="284.844072" style="stroke: #000000; stroke-width: 0.8"/>
      </g>
     </g>
     <g id="text_10">
      <!-- -20 -->
      <g transform="translate(20.9 288.64329) scale(0.1 -0.1)">
       <use xlink:href="#DejaVuSans-2d"/>
       <use xlink:href="#DejaVuSans-32" x="36.083984"/>
       <use xlink:href="#DejaVuSans-30" x="99.707031"/>
      </g>
     </g>
    </g>
    <g id="ytick_2">
     <g id="line2d_10">
      <g>
       <use xlink:href="#m245938eec5" x="44.232813" y="246.083695" style="stroke: #000000; stroke-width: 0.8"/>
      </g>
     </g>
     <g id="text_11">
      <!-- -10 -->
      <g transform="translate(20.9 249.882914) scale(0.1 -0.1)">
       <use xlink:href="#DejaVuSans-2d"/>
       <use xlink:href="#DejaVuSans-31" x="36.083984"/>
       <use xlink:href="#DejaVuSans-30" x="99.707031"/>
      </g>
     </g>
    </g>
    <g id="ytick_3">
     <g id="line2d_11">
      <g>
       <use xlink:href="#m245938eec5" x="44.232813" y="207.323318" style="stroke: #000000; stroke-width: 0.8"/>
      </g>
     </g>
     <g id="text_12">
      <!-- 0 -->
      <g transform="translate(30.870313 211.122537) scale(0.1 -0.1)">
       <use xlink:href="#DejaVuSans-30"/>
      </g>
     </g>
    </g>
    <g id="ytick_4">
     <g id="line2d_12">
      <g>
       <use xlink:href="#m245938eec5" x="44.232813" y="168.562941" style="stroke: #000000; stroke-width: 0.8"/>
      </g>
     </g>
     <g id="text_13">
      <!-- 10 -->
      <g transform="translate(24.507812 172.36216) scale(0.1 -0.1)">
       <use xlink:href="#DejaVuSans-31"/>
       <use xlink:href="#DejaVuSans-30" x="63.623047"/>
      </g>
     </g>
    </g>
    <g id="ytick_5">
     <g id="line2d_13">
      <g>
       <use xlink:href="#m245938eec5" x="44.232813" y="129.802565" style="stroke: #000000; stroke-width: 0.8"/>
      </g>
     </g>
     <g id="text_14">
      <!-- 20 -->
      <g transform="translate(24.507812 133.601783) scale(0.1 -0.1)">
       <use xlink:href="#DejaVuSans-32"/>
       <use xlink:href="#DejaVuSans-30" x="63.623047"/>
      </g>
     </g>
    </g>
    <g id="ytick_6">
     <g id="line2d_14">
      <g>
       <use xlink:href="#m245938eec5" x="44.232813" y="91.042188" style="stroke: #000000; stroke-width: 0.8"/>
      </g>
     </g>
     <g id="text_15">
      <!-- 30 -->
      <g transform="translate(24.507812 94.841407) scale(0.1 -0.1)">
       <use xlink:href="#DejaVuSans-33"/>
       <use xlink:href="#DejaVuSans-30" x="63.623047"/>
      </g>
     </g>
    </g>
    <g id="ytick_7">
     <g id="line2d_15">
      <g>
       <use xlink:href="#m245938eec5" x="44.232813" y="52.281811" style="stroke: #000000; stroke-width: 0.8"/>
      </g>
     </g>
     <g id="text_16">
      <!-- 40 -->
      <g transform="translate(24.507812 56.08103) scale(0.1 -0.1)">
       <use xlink:href="#DejaVuSans-34"/>
       <use xlink:href="#DejaVuSans-30" x="63.623047"/>
      </g>
     </g>
    </g>
    <g id="text_17">
     <!-- Im$(S_{21})$ [μV] -->
     <g transform="translate(14.8 204.766) rotate(-90) scale(0.1 -0.1)">
      <defs>
       <path id="DejaVuSans-49" d="M 628 4666 
L 1259 4666 
L 1259 0 
L 628 0 
L 628 4666 
z
" transform="scale(0.015625)"/>
       <path id="DejaVuSans-6d" d="M 3328 2828 
Q 3544 3216 3844 3400 
Q 4144 3584 4550 3584 
Q 5097 3584 5394 3201 
Q 5691 2819 5691 2113 
L 5691 0 
L 5113 0 
L 5113 2094 
Q 5113 2597 4934 2840 
Q 4756 3084 4391 3084 
Q 3944 3084 3684 2787 
Q 3425 2491 3425 1978 
L 3425 0 
L 2847 0 
L 2847 2094 
Q 2847 2600 2669 2842 
Q 2491 3084 2119 3084 
Q 1678 3084 1418 2786 
Q 1159 2488 1159 1978 
L 1159 0 
L 581 0 
L 581 3500 
L 1159 3500 
L 1159 2956 
Q 1356 3278 1631 3431 
Q 1906 3584 2284 3584 
Q 2666 3584 2933 3390 
Q 3200 3197 3328 2828 
z
" transform="scale(0.015625)"/>
      </defs>
      <use xlink:href="#DejaVuSans-49" transform="translate(0 0.015625)"/>
      <use xlink:href="#DejaVuSans-6d" transform="translate(25.867188 0.015625)"/>
      <use xlink:href="#DejaVuSans-28" transform="translate(123.279297 0.015625)"/>
      <use xlink:href="#DejaVuSans-Oblique-53" transform="translate(162.292969 0.015625)"/>
      <use xlink:href="#DejaVuSans-32" transform="translate(225.769531 -16.390625) scale(0.7)"/>
      <use xlink:href="#DejaVuSans-31" transform="translate(270.305664 -16.390625) scale(0.7)"/>
      <use xlink:href="#DejaVuSans-29" transform="translate(317.576172 0.015625)"/>
      <use xlink:href="#DejaVuSans-20" transform="translate(356.589844 0.015625)"/>
      <use xlink:href="#DejaVuSans-5b" transform="translate(388.376953 0.015625)"/>
      <use xlink:href="#DejaVuSans-3bc" transform="translate(427.390625 0.015625)"/>
      <use xlink:href="#DejaVuSans-56" transform="translate(491.013672 0.015625)"/>
      <use xlink:href="#DejaVuSans-5d" transform="translate(559.421875 0.015625)"/>
     </g>
    </g>
   </g>
   <g id="line2d_16">
    <path d="M 225.042901 119.470251 
L 229.415438 113.322619 
L 224.196838 116.756204 
L 222.037921 120.691572 
L 214.295721 114.960515 
L 216.979781 108.440491 
L 211.921641 107.010882 
L 207.494401 117.488366 
L 205.506883 107.496886 
L 201.597492 102.504302 
L 192.174108 97.117235 
L 196.470062 106.285033 
L 182.054181 97.110923 
L 195.817281 108.686649 
L 174.446914 100.377247 
L 180.723092 108.828663 
L 160.840626 96.369294 
L 165.169402 94.434746 
L 166.478611 102.564264 
L 167.747704 103.441595 
L 153.703799 105.527624 
L 165.949822 103.359543 
L 160.636404 94.677748 
L 150.782696 97.164573 
L 147.675604 104.044366 
L 147.609962 93.292322 
L 139.247802 97.764188 
L 128.150528 104.47672 
L 135.436875 104.905918 
L 132.745521 101.166214 
L 130.874703 104.334706 
L 118.843842 105.309869 
L 126.090074 102.557952 
L 117.881081 116.670996 
L 115.919092 101.134655 
L 121.374735 102.463276 
L 102.258102 117.986993 
L 112.206629 108.049163 
L 106.342541 111.003056 
L 95.325497 103.962313 
L 95.405727 114.632305 
L 93.961586 124.620629 
L 87.915157 115.266634 
L 89.085787 122.064375 
L 89.858913 121.931829 
L 89.435882 119.145197 
L 81.398289 125.018268 
L 89.049319 128.376112 
L 80.286009 129.010442 
L 78.189087 121.196511 
L 75.439385 129.632148 
L 76.073931 127.937446 
L 74.921536 139.074506 
L 73.021543 143.221317 
L 84.910177 146.910528 
L 72.711563 144.6099 
L 71.347652 145.133774 
L 76.941875 142.205128 
L 74.870481 154.408871 
L 62.817739 145.780727 
L 61.424654 150.574491 
L 60.46554 161.298132 
L 65.746136 152.196607 
L 68.787584 156.374977 
L 68.922516 161.323379 
L 67.179336 163.450434 
L 75.676428 163.27055 
L 83.024771 174.511753 
L 81.303472 175.903491 
L 72.379702 170.390189 
L 72.56569 175.565813 
L 75.964527 172.403633 
L 75.162226 183.685863 
L 75.738424 187.85161 
L 72.988721 195.952724 
L 70.826157 178.53233 
L 76.690244 200.465616 
L 74.615203 203.261715 
L 81.624392 206.651118 
L 88.735692 208.973837 
L 88.93262 200.042729 
L 95.540659 206.84047 
L 89.950083 209.289424 
L 89.742214 204.808091 
L 98.589401 208.62038 
L 99.398995 209.731246 
L 107.403766 215.443368 
L 97.433359 221.079749 
L 117.490871 217.35898 
L 108.275356 219.861584 
L 106.492061 223.222584 
L 113.012576 227.173731 
L 112.739064 230.231767 
L 128.066651 230.982864 
L 134.99561 236.025942 
L 137.44992 227.495629 
L 135.39676 236.660272 
L 141.80787 243.716793 
L 152.989022 237.329316 
L 146.906125 246.121565 
L 161.690336 252.490108 
L 164.607792 243.783067 
L 168.407779 247.576421 
L 184.738241 262.598355 
L 187.487944 255.904758 
L 192.702897 262.320638 
L 208.471749 268.976365 
L 203.486545 274.369744 
L 191.842247 291.067444 
L 195.46354 285.068138 
L 188.82268 291.272576 
L 188.891969 288.981415 
L 185.128451 292.089946 
L 196.65605 291.12425 
L 199.004603 295.776 
L 185.639006 282.24048 
L 196.028797 280.432167 
L 205.423007 285.661442 
L 203.333378 276.026575 
L 211.046404 282.67599 
L 215.163664 272.018622 
L 229.192982 270.361791 
L 220.280153 275.701521 
L 229.229451 272.176415 
L 239.072219 265.444948 
L 223.708164 267.897058 
L 234.852848 270.033581 
L 238.109458 260.439741 
L 250.814981 258.325309 
L 254.560266 266.341215 
L 263.097472 248.857703 
L 266.58748 250.533469 
L 255.803831 255.78799 
L 267.546593 254.626631 
L 274.439084 246.806389 
L 277.039267 251.622244 
L 291.65937 255.80377 
L 284.486074 251.37293 
L 286.415242 244.187018 
L 300.532084 247.917254 
L 303.030156 246.673842 
L 310.783297 249.918075 
L 303.952802 246.787453 
L 308.489447 228.445546 
L 315.582513 227.303121 
L 306.873905 232.709124 
L 317.715902 225.89876 
L 320.684414 229.083031 
L 330.122386 230.582069 
L 324.145247 228.025815 
L 334.71738 227.268407 
L 323.532581 224.64588 
L 342.065723 213.575094 
L 337.416027 220.748383 
L 341.996433 216.592104 
L 336.898178 214.922649 
L 339.06439 208.307949 
L 338.535601 201.967809 
L 354.556083 196.893173 
L 350.482584 202.605295 
L 351.299472 194.529427 
L 344.097002 199.660869 
L 360.598864 190.467824 
L 343.805256 195.425694 
L 356.105982 188.451225 
L 361.244352 180.943413 
L 365.861226 178.671188 
L 363.957586 181.094895 
L 364.712478 175.155551 
L 369.300178 175.139771 
L 374.690179 161.156118 
L 372.841241 167.328997 
L 379.62068 161.096156 
L 376.451593 165.19563 
L 369.307472 155.933156 
L 367.677343 161.288664 
L 364.096165 155.803765 
L 372.170226 148.598917 
L 370.091538 146.288822 
L 363.271984 138.509606 
L 374.070219 142.44813 
L 375.025686 137.749041 
L 370.489042 134.186066 
L 365.861226 131.569851 
L 385.120085 126.529929 
L 370.117066 126.555176 
L 361.696557 134.223936 
L 361.827843 128.073149 
L 362.980238 120.802028 
L 366.080036 111.321799 
L 358.148201 107.635744 
L 354.745718 114.745916 
L 362.035712 113.783376 
L 349.855331 117.358975 
L 350.77433 101.301916 
L 360.908844 100.279415 
L 352.882192 107.821941 
L 352.980656 95.624509 
L 352.980656 95.624509 
" clip-path="url(#p597eb61100)" style="fill: none; stroke: #1f77b4; stroke-width: 1.5; stroke-linecap: square"/>
    <defs>
     <path id="mf221d90de6" d="M 0 1.5 
C 0.397805 1.5 0.77937 1.341951 1.06066 1.06066 
C 1.341951 0.77937 1.5 0.397805 1.5 0 
C 1.5 -0.397805 1.341951 -0.77937 1.06066 -1.06066 
C 0.77937 -1.341951 0.397805 -1.5 0 -1.5 
C -0.397805 -1.5 -0.77937 -1.341951 -1.06066 -1.06066 
C -1.341951 -0.77937 -1.5 -0.397805 -1.5 0 
C -1.5 0.397805 -1.341951 0.77937 -1.06066 1.06066 
C -0.77937 1.341951 -0.397805 1.5 0 1.5 
z
" style="stroke: #1f77b4"/>
    </defs>
    <g clip-path="url(#p597eb61100)">
     <use xlink:href="#mf221d90de6" x="225.042901" y="119.470251" style="fill: #1f77b4; stroke: #1f77b4"/>
     <use xlink:href="#mf221d90de6" x="229.415438" y="113.322619" style="fill: #1f77b4; stroke: #1f77b4"/>
     <use xlink:href="#mf221d90de6" x="224.196838" y="116.756204" style="fill: #1f77b4; stroke: #1f77b4"/>
     <use xlink:href="#mf221d90de6" x="222.037921" y="120.691572" style="fill: #1f77b4; stroke: #1f77b4"/>
     <use xlink:href="#mf221d90de6" x="214.295721" y="114.960515" style="fill: #1f77b4; stroke: #1f77b4"/>
     <use xlink:href="#mf221d90de6" x="216.979781" y="108.440491" style="fill: #1f77b4; stroke: #1f77b4"/>
     <use xlink:href="#mf221d90de6" x="211.921641" y="107.010882" style="fill: #1f77b4; stroke: #1f77b4"/>
     <use xlink:href="#mf221d90de6" x="207.494401" y="117.488366" style="fill: #1f77b4; stroke: #1f77b4"/>
     <use xlink:href="#mf221d90de6" x="205.506883" y="107.496886" style="fill: #1f77b4; stroke: #1f77b4"/>
     <use xlink:href="#mf221d90de6" x="201.597492" y="102.504302" style="fill: #1f77b4; stroke: #1f77b4"/>
     <use xlink:href="#mf221d90de6" x="192.174108" y="97.117235" style="fill: #1f77b4; stroke: #1f77b4"/>
     <use xlink:href="#mf221d90de6" x="196.470062" y="106.285033" style="fill: #1f77b4; stroke: #1f77b4"/>
     <use xlink:href="#mf221d90de6" x="182.054181" y="97.110923" style="fill: #1f77b4; stroke: #1f77b4"/>
     <use xlink:href="#mf221d90de6" x="195.817281" y="108.686649" style="fill: #1f77b4; stroke: #1f77b4"/>
     <use xlink:href="#mf221d90de6" x="174.446914" y="100.377247" style="fill: #1f77b4; stroke: #1f77b4"/>
     <use xlink:href="#mf221d90de6" x="180.723092" y="108.828663" style="fill: #1f77b4; stroke: #1f77b4"/>
     <use xlink:href="#mf221d90de6" x="160.840626" y="96.369294" style="fill: #1f77b4; stroke: #1f77b4"/>
     <use xlink:href="#mf221d90de6" x="165.169402" y="94.434746" style="fill: #1f77b4; stroke: #1f77b4"/>
     <use xlink:href="#mf221d90de6" x="166.478611" y="102.564264" style="fill: #1f77b4; stroke: #1f77b4"/>
     <use xlink:href="#mf221d90de6" x="167.747704" y="103.441595" style="fill: #1f77b4; stroke: #1f77b4"/>
     <use xlink:href="#mf221d90de6" x="153.703799" y="105.527624" style="fill: #1f77b4; stroke: #1f77b4"/>
     <use xlink:href="#mf221d90de6" x="165.949822" y="103.359543" style="fill: #1f77b4; stroke: #1f77b4"/>
     <use xlink:href="#mf221d90de6" x="160.636404" y="94.677748" style="fill: #1f77b4; stroke: #1f77b4"/>
     <use xlink:href="#mf221d90de6" x="150.782696" y="97.164573" style="fill: #1f77b4; stroke: #1f77b4"/>
     <use xlink:href="#mf221d90de6" x="147.675604" y="104.044366" style="fill: #1f77b4; stroke: #1f77b4"/>
     <use xlink:href="#mf221d90de6" x="147.609962" y="93.292322" style="fill: #1f77b4; stroke: #1f77b4"/>
     <use xlink:href="#mf221d90de6" x="139.247802" y="97.764188" style="fill: #1f77b4; stroke: #1f77b4"/>
     <use xlink:href="#mf221d90de6" x="128.150528" y="104.47672" style="fill: #1f77b4; stroke: #1f77b4"/>
     <use xlink:href="#mf221d90de6" x="135.436875" y="104.905918" style="fill: #1f77b4; stroke: #1f77b4"/>
     <use xlink:href="#mf221d90de6" x="132.745521" y="101.166214" style="fill: #1f77b4; stroke: #1f77b4"/>
     <use xlink:href="#mf221d90de6" x="130.874703" y="104.334706" style="fill: #1f77b4; stroke: #1f77b4"/>
     <use xlink:href="#mf221d90de6" x="118.843842" y="105.309869" style="fill: #1f77b4; stroke: #1f77b4"/>
     <use xlink:href="#mf221d90de6" x="126.090074" y="102.557952" style="fill: #1f77b4; stroke: #1f77b4"/>
     <use xlink:href="#mf221d90de6" x="117.881081" y="116.670996" style="fill: #1f77b4; stroke: #1f77b4"/>
     <use xlink:href="#mf221d90de6" x="115.919092" y="101.134655" style="fill: #1f77b4; stroke: #1f77b4"/>
     <use xlink:href="#mf221d90de6" x="121.374735" y="102.463276" style="fill: #1f77b4; stroke: #1f77b4"/>
     <use xlink:href="#mf221d90de6" x="102.258102" y="117.986993" style="fill: #1f77b4; stroke: #1f77b4"/>
     <use xlink:href="#mf221d90de6" x="112.206629" y="108.049163" style="fill: #1f77b4; stroke: #1f77b4"/>
     <use xlink:href="#mf221d90de6" x="106.342541" y="111.003056" style="fill: #1f77b4; stroke: #1f77b4"/>
     <use xlink:href="#mf221d90de6" x="95.325497" y="103.962313" style="fill: #1f77b4; stroke: #1f77b4"/>
     <use xlink:href="#mf221d90de6" x="95.405727" y="114.632305" style="fill: #1f77b4; stroke: #1f77b4"/>
     <use xlink:href="#mf221d90de6" x="93.961586" y="124.620629" style="fill: #1f77b4; stroke: #1f77b4"/>
     <use xlink:href="#mf221d90de6" x="87.915157" y="115.266634" style="fill: #1f77b4; stroke: #1f77b4"/>
     <use xlink:href="#mf221d90de6" x="89.085787" y="122.064375" style="fill: #1f77b4; stroke: #1f77b4"/>
     <use xlink:href="#mf221d90de6" x="89.858913" y="121.931829" style="fill: #1f77b4; stroke: #1f77b4"/>
     <use xlink:href="#mf221d90de6" x="89.435882" y="119.145197" style="fill: #1f77b4; stroke: #1f77b4"/>
     <use xlink:href="#mf221d90de6" x="81.398289" y="125.018268" style="fill: #1f77b4; stroke: #1f77b4"/>
     <use xlink:href="#mf221d90de6" x="89.049319" y="128.376112" style="fill: #1f77b4; stroke: #1f77b4"/>
     <use xlink:href="#mf221d90de6" x="80.286009" y="129.010442" style="fill: #1f77b4; stroke: #1f77b4"/>
     <use xlink:href="#mf221d90de6" x="78.189087" y="121.196511" style="fill: #1f77b4; stroke: #1f77b4"/>
     <use xlink:href="#mf221d90de6" x="75.439385" y="129.632148" style="fill: #1f77b4; stroke: #1f77b4"/>
     <use xlink:href="#mf221d90de6" x="76.073931" y="127.937446" style="fill: #1f77b4; stroke: #1f77b4"/>
     <use xlink:href="#mf221d90de6" x="74.921536" y="139.074506" style="fill: #1f77b4; stroke: #1f77b4"/>
     <use xlink:href="#mf221d90de6" x="73.021543" y="143.221317" style="fill: #1f77b4; stroke: #1f77b4"/>
     <use xlink:href="#mf221d90de6" x="84.910177" y="146.910528" style="fill: #1f77b4; stroke: #1f77b4"/>
     <use xlink:href="#mf221d90de6" x="72.711563" y="144.6099" style="fill: #1f77b4; stroke: #1f77b4"/>
     <use xlink:href="#mf221d90de6" x="71.347652" y="145.133774" style="fill: #1f77b4; stroke: #1f77b4"/>
     <use xlink:href="#mf221d90de6" x="76.941875" y="142.205128" style="fill: #1f77b4; stroke: #1f77b4"/>
     <use xlink:href="#mf221d90de6" x="74.870481" y="154.408871" style="fill: #1f77b4; stroke: #1f77b4"/>
     <use xlink:href="#mf221d90de6" x="62.817739" y="145.780727" style="fill: #1f77b4; stroke: #1f77b4"/>
     <use xlink:href="#mf221d90de6" x="61.424654" y="150.574491" style="fill: #1f77b4; stroke: #1f77b4"/>
     <use xlink:href="#mf221d90de6" x="60.46554" y="161.298132" style="fill: #1f77b4; stroke: #1f77b4"/>
     <use xlink:href="#mf221d90de6" x="65.746136" y="152.196607" style="fill: #1f77b4; stroke: #1f77b4"/>
     <use xlink:href="#mf221d90de6" x="68.787584" y="156.374977" style="fill: #1f77b4; stroke: #1f77b4"/>
     <use xlink:href="#mf221d90de6" x="68.922516" y="161.323379" style="fill: #1f77b4; stroke: #1f77b4"/>
     <use xlink:href="#mf221d90de6" x="67.179336" y="163.450434" style="fill: #1f77b4; stroke: #1f77b4"/>
     <use xlink:href="#mf221d90de6" x="75.676428" y="163.27055" style="fill: #1f77b4; stroke: #1f77b4"/>
     <use xlink:href="#mf221d90de6" x="83.024771" y="174.511753" style="fill: #1f77b4; stroke: #1f77b4"/>
     <use xlink:href="#mf221d90de6" x="81.303472" y="175.903491" style="fill: #1f77b4; stroke: #1f77b4"/>
     <use xlink:href="#mf221d90de6" x="72.379702" y="170.390189" style="fill: #1f77b4; stroke: #1f77b4"/>
     <use xlink:href="#mf221d90de6" x="72.56569" y="175.565813" style="fill: #1f77b4; stroke: #1f77b4"/>
     <use xlink:href="#mf221d90de6" x="75.964527" y="172.403633" style="fill: #1f77b4; stroke: #1f77b4"/>
     <use xlink:href="#mf221d90de6" x="75.162226" y="183.685863" style="fill: #1f77b4; stroke: #1f77b4"/>
     <use xlink:href="#mf221d90de6" x="75.738424" y="187.85161" style="fill: #1f77b4; stroke: #1f77b4"/>
     <use xlink:href="#mf221d90de6" x="72.988721" y="195.952724" style="fill: #1f77b4; stroke: #1f77b4"/>
     <use xlink:href="#mf221d90de6" x="70.826157" y="178.53233" style="fill: #1f77b4; stroke: #1f77b4"/>
     <use xlink:href="#mf221d90de6" x="76.310975" y="198.985514" style="fill: #1f77b4; stroke: #1f77b4"/>
     <use xlink:href="#mf221d90de6" x="76.690244" y="200.465616" style="fill: #1f77b4; stroke: #1f77b4"/>
     <use xlink:href="#mf221d90de6" x="74.615203" y="203.261715" style="fill: #1f77b4; stroke: #1f77b4"/>
     <use xlink:href="#mf221d90de6" x="81.624392" y="206.651118" style="fill: #1f77b4; stroke: #1f77b4"/>
     <use xlink:href="#mf221d90de6" x="88.735692" y="208.973837" style="fill: #1f77b4; stroke: #1f77b4"/>
     <use xlink:href="#mf221d90de6" x="88.93262" y="200.042729" style="fill: #1f77b4; stroke: #1f77b4"/>
     <use xlink:href="#mf221d90de6" x="95.540659" y="206.84047" style="fill: #1f77b4; stroke: #1f77b4"/>
     <use xlink:href="#mf221d90de6" x="89.950083" y="209.289424" style="fill: #1f77b4; stroke: #1f77b4"/>
     <use xlink:href="#mf221d90de6" x="89.742214" y="204.808091" style="fill: #1f77b4; stroke: #1f77b4"/>
     <use xlink:href="#mf221d90de6" x="98.589401" y="208.62038" style="fill: #1f77b4; stroke: #1f77b4"/>
     <use xlink:href="#mf221d90de6" x="99.398995" y="209.731246" style="fill: #1f77b4; stroke: #1f77b4"/>
     <use xlink:href="#mf221d90de6" x="107.403766" y="215.443368" style="fill: #1f77b4; stroke: #1f77b4"/>
     <use xlink:href="#mf221d90de6" x="97.433359" y="221.079749" style="fill: #1f77b4; stroke: #1f77b4"/>
     <use xlink:href="#mf221d90de6" x="117.490871" y="217.35898" style="fill: #1f77b4; stroke: #1f77b4"/>
     <use xlink:href="#mf221d90de6" x="108.275356" y="219.861584" style="fill: #1f77b4; stroke: #1f77b4"/>
     <use xlink:href="#mf221d90de6" x="106.492061" y="223.222584" style="fill: #1f77b4; stroke: #1f77b4"/>
     <use xlink:href="#mf221d90de6" x="113.012576" y="227.173731" style="fill: #1f77b4; stroke: #1f77b4"/>
     <use xlink:href="#mf221d90de6" x="112.739064" y="230.231767" style="fill: #1f77b4; stroke: #1f77b4"/>
     <use xlink:href="#mf221d90de6" x="119.861305" y="230.547354" style="fill: #1f77b4; stroke: #1f77b4"/>
     <use xlink:href="#mf221d90de6" x="128.066651" y="230.982864" style="fill: #1f77b4; stroke: #1f77b4"/>
     <use xlink:href="#mf221d90de6" x="134.99561" y="236.025942" style="fill: #1f77b4; stroke: #1f77b4"/>
     <use xlink:href="#mf221d90de6" x="137.44992" y="227.495629" style="fill: #1f77b4; stroke: #1f77b4"/>
     <use xlink:href="#mf221d90de6" x="135.39676" y="236.660272" style="fill: #1f77b4; stroke: #1f77b4"/>
     <use xlink:href="#mf221d90de6" x="141.80787" y="243.716793" style="fill: #1f77b4; stroke: #1f77b4"/>
     <use xlink:href="#mf221d90de6" x="152.989022" y="237.329316" style="fill: #1f77b4; stroke: #1f77b4"/>
     <use xlink:href="#mf221d90de6" x="146.906125" y="246.121565" style="fill: #1f77b4; stroke: #1f77b4"/>
     <use xlink:href="#mf221d90de6" x="161.690336" y="252.490108" style="fill: #1f77b4; stroke: #1f77b4"/>
     <use xlink:href="#mf221d90de6" x="164.607792" y="243.783067" style="fill: #1f77b4; stroke: #1f77b4"/>
     <use xlink:href="#mf221d90de6" x="168.407779" y="247.576421" style="fill: #1f77b4; stroke: #1f77b4"/>
     <use xlink:href="#mf221d90de6" x="184.738241" y="262.598355" style="fill: #1f77b4; stroke: #1f77b4"/>
     <use xlink:href="#mf221d90de6" x="187.487944" y="255.904758" style="fill: #1f77b4; stroke: #1f77b4"/>
     <use xlink:href="#mf221d90de6" x="192.702897" y="262.320638" style="fill: #1f77b4; stroke: #1f77b4"/>
     <use xlink:href="#mf221d90de6" x="208.471749" y="268.976365" style="fill: #1f77b4; stroke: #1f77b4"/>
     <use xlink:href="#mf221d90de6" x="203.486545" y="274.369744" style="fill: #1f77b4; stroke: #1f77b4"/>
     <use xlink:href="#mf221d90de6" x="191.842247" y="291.067444" style="fill: #1f77b4; stroke: #1f77b4"/>
     <use xlink:href="#mf221d90de6" x="195.46354" y="285.068138" style="fill: #1f77b4; stroke: #1f77b4"/>
     <use xlink:href="#mf221d90de6" x="188.82268" y="291.272576" style="fill: #1f77b4; stroke: #1f77b4"/>
     <use xlink:href="#mf221d90de6" x="188.891969" y="288.981415" style="fill: #1f77b4; stroke: #1f77b4"/>
     <use xlink:href="#mf221d90de6" x="185.128451" y="292.089946" style="fill: #1f77b4; stroke: #1f77b4"/>
     <use xlink:href="#mf221d90de6" x="196.65605" y="291.12425" style="fill: #1f77b4; stroke: #1f77b4"/>
     <use xlink:href="#mf221d90de6" x="199.004603" y="295.776" style="fill: #1f77b4; stroke: #1f77b4"/>
     <use xlink:href="#mf221d90de6" x="185.639006" y="282.24048" style="fill: #1f77b4; stroke: #1f77b4"/>
     <use xlink:href="#mf221d90de6" x="196.028797" y="280.432167" style="fill: #1f77b4; stroke: #1f77b4"/>
     <use xlink:href="#mf221d90de6" x="205.423007" y="285.661442" style="fill: #1f77b4; stroke: #1f77b4"/>
     <use xlink:href="#mf221d90de6" x="203.333378" y="276.026575" style="fill: #1f77b4; stroke: #1f77b4"/>
     <use xlink:href="#mf221d90de6" x="211.046404" y="282.67599" style="fill: #1f77b4; stroke: #1f77b4"/>
     <use xlink:href="#mf221d90de6" x="215.163664" y="272.018622" style="fill: #1f77b4; stroke: #1f77b4"/>
     <use xlink:href="#mf221d90de6" x="229.192982" y="270.361791" style="fill: #1f77b4; stroke: #1f77b4"/>
     <use xlink:href="#mf221d90de6" x="220.280153" y="275.701521" style="fill: #1f77b4; stroke: #1f77b4"/>
     <use xlink:href="#mf221d90de6" x="229.229451" y="272.176415" style="fill: #1f77b4; stroke: #1f77b4"/>
     <use xlink:href="#mf221d90de6" x="239.072219" y="265.444948" style="fill: #1f77b4; stroke: #1f77b4"/>
     <use xlink:href="#mf221d90de6" x="223.708164" y="267.897058" style="fill: #1f77b4; stroke: #1f77b4"/>
     <use xlink:href="#mf221d90de6" x="234.852848" y="270.033581" style="fill: #1f77b4; stroke: #1f77b4"/>
     <use xlink:href="#mf221d90de6" x="238.109458" y="260.439741" style="fill: #1f77b4; stroke: #1f77b4"/>
     <use xlink:href="#mf221d90de6" x="250.814981" y="258.325309" style="fill: #1f77b4; stroke: #1f77b4"/>
     <use xlink:href="#mf221d90de6" x="254.560266" y="266.341215" style="fill: #1f77b4; stroke: #1f77b4"/>
     <use xlink:href="#mf221d90de6" x="263.097472" y="248.857703" style="fill: #1f77b4; stroke: #1f77b4"/>
     <use xlink:href="#mf221d90de6" x="266.58748" y="250.533469" style="fill: #1f77b4; stroke: #1f77b4"/>
     <use xlink:href="#mf221d90de6" x="255.803831" y="255.78799" style="fill: #1f77b4; stroke: #1f77b4"/>
     <use xlink:href="#mf221d90de6" x="267.546593" y="254.626631" style="fill: #1f77b4; stroke: #1f77b4"/>
     <use xlink:href="#mf221d90de6" x="274.439084" y="246.806389" style="fill: #1f77b4; stroke: #1f77b4"/>
     <use xlink:href="#mf221d90de6" x="277.039267" y="251.622244" style="fill: #1f77b4; stroke: #1f77b4"/>
     <use xlink:href="#mf221d90de6" x="291.65937" y="255.80377" style="fill: #1f77b4; stroke: #1f77b4"/>
     <use xlink:href="#mf221d90de6" x="284.486074" y="251.37293" style="fill: #1f77b4; stroke: #1f77b4"/>
     <use xlink:href="#mf221d90de6" x="286.415242" y="244.187018" style="fill: #1f77b4; stroke: #1f77b4"/>
     <use xlink:href="#mf221d90de6" x="300.532084" y="247.917254" style="fill: #1f77b4; stroke: #1f77b4"/>
     <use xlink:href="#mf221d90de6" x="303.030156" y="246.673842" style="fill: #1f77b4; stroke: #1f77b4"/>
     <use xlink:href="#mf221d90de6" x="310.783297" y="249.918075" style="fill: #1f77b4; stroke: #1f77b4"/>
     <use xlink:href="#mf221d90de6" x="303.952802" y="246.787453" style="fill: #1f77b4; stroke: #1f77b4"/>
     <use xlink:href="#mf221d90de6" x="308.489447" y="228.445546" style="fill: #1f77b4; stroke: #1f77b4"/>
     <use xlink:href="#mf221d90de6" x="315.582513" y="227.303121" style="fill: #1f77b4; stroke: #1f77b4"/>
     <use xlink:href="#mf221d90de6" x="306.873905" y="232.709124" style="fill: #1f77b4; stroke: #1f77b4"/>
     <use xlink:href="#mf221d90de6" x="317.715902" y="225.89876" style="fill: #1f77b4; stroke: #1f77b4"/>
     <use xlink:href="#mf221d90de6" x="320.684414" y="229.083031" style="fill: #1f77b4; stroke: #1f77b4"/>
     <use xlink:href="#mf221d90de6" x="330.122386" y="230.582069" style="fill: #1f77b4; stroke: #1f77b4"/>
     <use xlink:href="#mf221d90de6" x="324.145247" y="228.025815" style="fill: #1f77b4; stroke: #1f77b4"/>
     <use xlink:href="#mf221d90de6" x="334.71738" y="227.268407" style="fill: #1f77b4; stroke: #1f77b4"/>
     <use xlink:href="#mf221d90de6" x="323.532581" y="224.64588" style="fill: #1f77b4; stroke: #1f77b4"/>
     <use xlink:href="#mf221d90de6" x="342.065723" y="213.575094" style="fill: #1f77b4; stroke: #1f77b4"/>
     <use xlink:href="#mf221d90de6" x="337.416027" y="220.748383" style="fill: #1f77b4; stroke: #1f77b4"/>
     <use xlink:href="#mf221d90de6" x="341.996433" y="216.592104" style="fill: #1f77b4; stroke: #1f77b4"/>
     <use xlink:href="#mf221d90de6" x="336.898178" y="214.922649" style="fill: #1f77b4; stroke: #1f77b4"/>
     <use xlink:href="#mf221d90de6" x="339.06439" y="208.307949" style="fill: #1f77b4; stroke: #1f77b4"/>
     <use xlink:href="#mf221d90de6" x="338.535601" y="201.967809" style="fill: #1f77b4; stroke: #1f77b4"/>
     <use xlink:href="#mf221d90de6" x="354.556083" y="196.893173" style="fill: #1f77b4; stroke: #1f77b4"/>
     <use xlink:href="#mf221d90de6" x="350.482584" y="202.605295" style="fill: #1f77b4; stroke: #1f77b4"/>
     <use xlink:href="#mf221d90de6" x="351.299472" y="194.529427" style="fill: #1f77b4; stroke: #1f77b4"/>
     <use xlink:href="#mf221d90de6" x="344.097002" y="199.660869" style="fill: #1f77b4; stroke: #1f77b4"/>
     <use xlink:href="#mf221d90de6" x="360.598864" y="190.467824" style="fill: #1f77b4; stroke: #1f77b4"/>
     <use xlink:href="#mf221d90de6" x="343.805256" y="195.425694" style="fill: #1f77b4; stroke: #1f77b4"/>
     <use xlink:href="#mf221d90de6" x="356.105982" y="188.451225" style="fill: #1f77b4; stroke: #1f77b4"/>
     <use xlink:href="#mf221d90de6" x="361.244352" y="180.943413" style="fill: #1f77b4; stroke: #1f77b4"/>
     <use xlink:href="#mf221d90de6" x="365.861226" y="178.671188" style="fill: #1f77b4; stroke: #1f77b4"/>
     <use xlink:href="#mf221d90de6" x="363.957586" y="181.094895" style="fill: #1f77b4; stroke: #1f77b4"/>
     <use xlink:href="#mf221d90de6" x="364.712478" y="175.155551" style="fill: #1f77b4; stroke: #1f77b4"/>
     <use xlink:href="#mf221d90de6" x="369.300178" y="175.139771" style="fill: #1f77b4; stroke: #1f77b4"/>
     <use xlink:href="#mf221d90de6" x="374.690179" y="161.156118" style="fill: #1f77b4; stroke: #1f77b4"/>
     <use xlink:href="#mf221d90de6" x="372.841241" y="167.328997" style="fill: #1f77b4; stroke: #1f77b4"/>
     <use xlink:href="#mf221d90de6" x="379.62068" y="161.096156" style="fill: #1f77b4; stroke: #1f77b4"/>
     <use xlink:href="#mf221d90de6" x="376.451593" y="165.19563" style="fill: #1f77b4; stroke: #1f77b4"/>
     <use xlink:href="#mf221d90de6" x="369.307472" y="155.933156" style="fill: #1f77b4; stroke: #1f77b4"/>
     <use xlink:href="#mf221d90de6" x="367.677343" y="161.288664" style="fill: #1f77b4; stroke: #1f77b4"/>
     <use xlink:href="#mf221d90de6" x="364.096165" y="155.803765" style="fill: #1f77b4; stroke: #1f77b4"/>
     <use xlink:href="#mf221d90de6" x="372.170226" y="148.598917" style="fill: #1f77b4; stroke: #1f77b4"/>
     <use xlink:href="#mf221d90de6" x="370.091538" y="146.288822" style="fill: #1f77b4; stroke: #1f77b4"/>
     <use xlink:href="#mf221d90de6" x="363.271984" y="138.509606" style="fill: #1f77b4; stroke: #1f77b4"/>
     <use xlink:href="#mf221d90de6" x="374.070219" y="142.44813" style="fill: #1f77b4; stroke: #1f77b4"/>
     <use xlink:href="#mf221d90de6" x="375.025686" y="137.749041" style="fill: #1f77b4; stroke: #1f77b4"/>
     <use xlink:href="#mf221d90de6" x="370.489042" y="134.186066" style="fill: #1f77b4; stroke: #1f77b4"/>
     <use xlink:href="#mf221d90de6" x="365.861226" y="131.569851" style="fill: #1f77b4; stroke: #1f77b4"/>
     <use xlink:href="#mf221d90de6" x="385.120085" y="126.529929" style="fill: #1f77b4; stroke: #1f77b4"/>
     <use xlink:href="#mf221d90de6" x="370.117066" y="126.555176" style="fill: #1f77b4; stroke: #1f77b4"/>
     <use xlink:href="#mf221d90de6" x="361.696557" y="134.223936" style="fill: #1f77b4; stroke: #1f77b4"/>
     <use xlink:href="#mf221d90de6" x="361.827843" y="128.073149" style="fill: #1f77b4; stroke: #1f77b4"/>
     <use xlink:href="#mf221d90de6" x="362.980238" y="120.802028" style="fill: #1f77b4; stroke: #1f77b4"/>
     <use xlink:href="#mf221d90de6" x="366.080036" y="111.321799" style="fill: #1f77b4; stroke: #1f77b4"/>
     <use xlink:href="#mf221d90de6" x="358.148201" y="107.635744" style="fill: #1f77b4; stroke: #1f77b4"/>
     <use xlink:href="#mf221d90de6" x="354.745718" y="114.745916" style="fill: #1f77b4; stroke: #1f77b4"/>
     <use xlink:href="#mf221d90de6" x="362.035712" y="113.783376" style="fill: #1f77b4; stroke: #1f77b4"/>
     <use xlink:href="#mf221d90de6" x="349.855331" y="117.358975" style="fill: #1f77b4; stroke: #1f77b4"/>
     <use xlink:href="#mf221d90de6" x="350.77433" y="101.301916" style="fill: #1f77b4; stroke: #1f77b4"/>
     <use xlink:href="#mf221d90de6" x="360.908844" y="100.279415" style="fill: #1f77b4; stroke: #1f77b4"/>
     <use xlink:href="#mf221d90de6" x="352.882192" y="107.821941" style="fill: #1f77b4; stroke: #1f77b4"/>
     <use xlink:href="#mf221d90de6" x="352.980656" y="95.624509" style="fill: #1f77b4; stroke: #1f77b4"/>
    </g>
   </g>
   <g id="line2d_17">
    <path d="M 235.186436 53.856 
L 228.206492 54.521082 
L 221.286682 55.430707 
L 214.4391 56.581683 
L 207.675664 57.970361 
L 201.00809 59.59264 
L 194.447875 61.443974 
L 188.006275 63.519385 
L 181.694281 65.813463 
L 175.522604 68.320386 
L 169.501652 71.033922 
L 163.641511 73.947446 
L 157.95193 77.053948 
L 152.442301 80.346049 
L 147.703223 83.421922 
L 143.119538 86.632667 
L 138.69707 89.972411 
L 134.441388 93.435084 
L 130.357791 97.014424 
L 126.451306 100.703987 
L 122.726681 104.497155 
L 119.188377 108.387146 
L 115.840563 112.367022 
L 112.687113 116.429698 
L 109.731601 120.567953 
L 106.977296 124.774439 
L 104.42716 129.041689 
L 102.083844 133.362132 
L 99.94969 137.728096 
L 98.026726 142.131822 
L 96.316666 146.565474 
L 94.820913 151.02115 
L 93.540556 155.49089 
L 92.476378 159.966689 
L 91.62885 164.440504 
L 90.998142 168.90427 
L 90.584125 173.349906 
L 90.386374 177.769327 
L 90.404178 182.154458 
L 90.636543 186.497241 
L 91.082203 190.789649 
L 91.739629 195.023699 
L 92.607036 199.191458 
L 93.682397 203.285064 
L 94.963454 207.296733 
L 96.447732 211.218774 
L 98.132551 215.043605 
L 100.015041 218.763765 
L 102.09216 222.371933 
L 104.360709 225.86094 
L 106.817348 229.223797 
L 109.458616 232.453702 
L 112.280946 235.544073 
L 115.280685 238.488563 
L 118.454112 241.28109 
L 121.797449 243.915861 
L 125.306885 246.387402 
L 128.978582 248.690591 
L 132.808688 250.820693 
L 136.793347 252.773391 
L 140.928699 254.544832 
L 145.21088 256.131662 
L 149.636013 257.531067 
L 154.200195 258.740821 
L 158.899473 259.75932 
L 163.729811 260.58563 
L 168.687053 261.219519 
L 173.766867 261.661492 
L 179.622474 261.93092 
L 185.620457 261.962066 
L 191.753213 261.759174 
L 198.012355 261.327729 
L 204.388541 260.674403 
L 211.59771 259.697748 
L 218.922259 258.468858 
L 226.343861 257.001009 
L 234.59503 255.127262 
L 242.907871 253.00091 
L 251.248255 250.641348 
L 259.578967 248.067232 
L 268.609171 245.03464 
L 277.526305 241.78695 
L 285.553617 238.634996 
L 293.396567 235.326033 
L 301.013471 231.867447 
L 307.708257 228.597739 
L 314.155331 225.210976 
L 320.328886 221.708527 
L 325.63187 218.457985 
L 330.67912 215.114557 
L 335.457145 211.67849 
L 339.954177 208.150205 
L 343.707441 204.937138 
L 347.224644 201.652646 
L 350.500674 198.297931 
L 353.531285 194.874603 
L 356.313027 191.384704 
L 358.843176 187.830736 
L 361.11967 184.215663 
L 363.141039 180.542913 
L 364.906355 176.816363 
L 366.240599 173.514879 
L 367.378429 170.178647 
L 368.320058 166.811043 
L 369.065912 163.415654 
L 369.616617 159.996262 
L 369.972988 156.556829 
L 370.143582 152.606808 
L 370.063383 148.64239 
L 369.734397 144.670179 
L 369.158881 140.696961 
L 368.339343 136.729675 
L 367.27853 132.775382 
L 365.979423 128.84124 
L 364.445238 124.934471 
L 362.679421 121.062343 
L 360.685649 117.232138 
L 358.467828 113.451136 
L 356.659907 110.65204 
L 356.659907 110.65204 
" clip-path="url(#p597eb61100)" style="fill: none; stroke: #d62728; stroke-width: 1.5; stroke-linecap: square"/>
   </g>
   <g id="patch_3">
    <path d="M 44.232813 307.872 
L 44.232813 41.76 
" style="fill: none; stroke: #000000; stroke-width: 0.8; stroke-linejoin: miter; stroke-linecap: square"/>
   </g>
   <g id="patch_4">
    <path d="M 401.352813 307.872 
L 401.352813 41.76 
" style="fill: none; stroke: #000000; stroke-width: 0.8; stroke-linejoin: miter; stroke-linecap: square"/>
   </g>
   <g id="patch_5">
    <path d="M 44.232812 307.872 
L 401.352813 307.872 
" style="fill: none; stroke: #000000; stroke-width: 0.8; stroke-linejoin: miter; stroke-linecap: square"/>
   </g>
   <g id="patch_6">
    <path d="M 44.232812 41.76 
L 401.352813 41.76 
" style="fill: none; stroke: #000000; stroke-width: 0.8; stroke-linejoin: miter; stroke-linecap: square"/>
   </g>
   <g id="text_18">
    <g id="patch_7">
     <path d="M 419.208813 102.337162 
L 555.208813 102.337162 
Q 559.208813 102.337162 559.208813 98.337162 
L 559.208813 55.0656 
Q 559.208813 51.0656 555.208813 51.0656 
L 419.208813 51.0656 
Q 415.208813 51.0656 415.208813 55.0656 
L 415.208813 98.337162 
Q 415.208813 102.337162 419.208813 102.337162 
z
" style="fill: #ffffff; opacity: 0.5; stroke: #000000; stroke-linejoin: miter"/>
    </g>
    <!-- Summary -->
    <g transform="translate(419.208813 62.664037) scale(0.1 -0.1)">
     <defs>
      <path id="DejaVuSans-53" d="M 3425 4513 
L 3425 3897 
Q 3066 4069 2747 4153 
Q 2428 4238 2131 4238 
Q 1616 4238 1336 4038 
Q 1056 3838 1056 3469 
Q 1056 3159 1242 3001 
Q 1428 2844 1947 2747 
L 2328 2669 
Q 3034 2534 3370 2195 
Q 3706 1856 3706 1288 
Q 3706 609 3251 259 
Q 2797 -91 1919 -91 
Q 1588 -91 1214 -16 
Q 841 59 441 206 
L 441 856 
Q 825 641 1194 531 
Q 1563 422 1919 422 
Q 2459 422 2753 634 
Q 3047 847 3047 1241 
Q 3047 1584 2836 1778 
Q 2625 1972 2144 2069 
L 1759 2144 
Q 1053 2284 737 2584 
Q 422 2884 422 3419 
Q 422 4038 858 4394 
Q 1294 4750 2059 4750 
Q 2388 4750 2728 4690 
Q 3069 4631 3425 4513 
z
" transform="scale(0.015625)"/>
      <path id="DejaVuSans-75" d="M 544 1381 
L 544 3500 
L 1119 3500 
L 1119 1403 
Q 1119 906 1312 657 
Q 1506 409 1894 409 
Q 2359 409 2629 706 
Q 2900 1003 2900 1516 
L 2900 3500 
L 3475 3500 
L 3475 0 
L 2900 0 
L 2900 538 
Q 2691 219 2414 64 
Q 2138 -91 1772 -91 
Q 1169 -91 856 284 
Q 544 659 544 1381 
z
M 1991 3584 
L 1991 3584 
z
" transform="scale(0.015625)"/>
      <path id="DejaVuSans-61" d="M 2194 1759 
Q 1497 1759 1228 1600 
Q 959 1441 959 1056 
Q 959 750 1161 570 
Q 1363 391 1709 391 
Q 2188 391 2477 730 
Q 2766 1069 2766 1631 
L 2766 1759 
L 2194 1759 
z
M 3341 1997 
L 3341 0 
L 2766 0 
L 2766 531 
Q 2569 213 2275 61 
Q 1981 -91 1556 -91 
Q 1019 -91 701 211 
Q 384 513 384 1019 
Q 384 1609 779 1909 
Q 1175 2209 1959 2209 
L 2766 2209 
L 2766 2266 
Q 2766 2663 2505 2880 
Q 2244 3097 1772 3097 
Q 1472 3097 1187 3025 
Q 903 2953 641 2809 
L 641 3341 
Q 956 3463 1253 3523 
Q 1550 3584 1831 3584 
Q 2591 3584 2966 3190 
Q 3341 2797 3341 1997 
z
" transform="scale(0.015625)"/>
      <path id="DejaVuSans-72" d="M 2631 2963 
Q 2534 3019 2420 3045 
Q 2306 3072 2169 3072 
Q 1681 3072 1420 2755 
Q 1159 2438 1159 1844 
L 1159 0 
L 581 0 
L 581 3500 
L 1159 3500 
L 1159 2956 
Q 1341 3275 1631 3429 
Q 1922 3584 2338 3584 
Q 2397 3584 2469 3576 
Q 2541 3569 2628 3553 
L 2631 2963 
z
" transform="scale(0.015625)"/>
      <path id="DejaVuSans-79" d="M 2059 -325 
Q 1816 -950 1584 -1140 
Q 1353 -1331 966 -1331 
L 506 -1331 
L 506 -850 
L 844 -850 
Q 1081 -850 1212 -737 
Q 1344 -625 1503 -206 
L 1606 56 
L 191 3500 
L 800 3500 
L 1894 763 
L 2988 3500 
L 3597 3500 
L 2059 -325 
z
" transform="scale(0.015625)"/>
     </defs>
     <use xlink:href="#DejaVuSans-53"/>
     <use xlink:href="#DejaVuSans-75" x="63.476562"/>
     <use xlink:href="#DejaVuSans-6d" x="126.855469"/>
     <use xlink:href="#DejaVuSans-6d" x="224.267578"/>
     <use xlink:href="#DejaVuSans-61" x="321.679688"/>
     <use xlink:href="#DejaVuSans-72" x="382.958984"/>
     <use xlink:href="#DejaVuSans-79" x="424.072266"/>
    </g>
    <!-- $Q_I$: 2.12$\pm$0.20 k -->
    <g transform="translate(419.208813 73.86185) scale(0.1 -0.1)">
     <defs>
      <path id="DejaVuSans-Oblique-51" d="M 2309 -84 
Q 2275 -88 2237 -89 
Q 2200 -91 2125 -91 
Q 1250 -91 756 411 
Q 263 913 263 1797 
Q 263 2319 452 2844 
Q 641 3369 978 3788 
Q 1369 4269 1858 4509 
Q 2347 4750 2938 4750 
Q 3794 4750 4287 4245 
Q 4781 3741 4781 2869 
Q 4781 1928 4265 1147 
Q 3750 366 2919 44 
L 3553 -825 
L 2847 -825 
L 2309 -84 
z
M 2919 4238 
Q 2400 4238 2003 3986 
Q 1606 3734 1313 3219 
Q 1125 2891 1026 2522 
Q 928 2153 928 1778 
Q 928 1128 1239 775 
Q 1550 422 2119 422 
Q 2631 422 3032 676 
Q 3434 931 3719 1434 
Q 3909 1772 4009 2142 
Q 4109 2513 4109 2881 
Q 4109 3528 3796 3883 
Q 3484 4238 2919 4238 
z
" transform="scale(0.015625)"/>
      <path id="DejaVuSans-Oblique-49" d="M 1081 4666 
L 1716 4666 
L 806 0 
L 172 0 
L 1081 4666 
z
" transform="scale(0.015625)"/>
      <path id="DejaVuSans-3a" d="M 750 794 
L 1409 794 
L 1409 0 
L 750 0 
L 750 794 
z
M 750 3309 
L 1409 3309 
L 1409 2516 
L 750 2516 
L 750 3309 
z
" transform="scale(0.015625)"/>
      <path id="DejaVuSans-2e" d="M 684 794 
L 1344 794 
L 1344 0 
L 684 0 
L 684 794 
z
" transform="scale(0.015625)"/>
      <path id="DejaVuSans-b1" d="M 2944 4013 
L 2944 2803 
L 4684 2803 
L 4684 2272 
L 2944 2272 
L 2944 1063 
L 2419 1063 
L 2419 2272 
L 678 2272 
L 678 2803 
L 2419 2803 
L 2419 4013 
L 2944 4013 
z
M 678 531 
L 4684 531 
L 4684 0 
L 678 0 
L 678 531 
z
" transform="scale(0.015625)"/>
      <path id="DejaVuSans-6b" d="M 581 4863 
L 1159 4863 
L 1159 1991 
L 2875 3500 
L 3609 3500 
L 1753 1863 
L 3688 0 
L 2938 0 
L 1159 1709 
L 1159 0 
L 581 0 
L 581 4863 
z
" transform="scale(0.015625)"/>
     </defs>
     <use xlink:href="#DejaVuSans-Oblique-51" transform="translate(0 0.015625)"/>
     <use xlink:href="#DejaVuSans-Oblique-49" transform="translate(78.710938 -16.390625) scale(0.7)"/>
     <use xlink:href="#DejaVuSans-3a" transform="translate(102.089844 0.015625)"/>
     <use xlink:href="#DejaVuSans-20" transform="translate(135.78125 0.015625)"/>
     <use xlink:href="#DejaVuSans-32" transform="translate(167.568359 0.015625)"/>
     <use xlink:href="#DejaVuSans-2e" transform="translate(231.191406 0.015625)"/>
     <use xlink:href="#DejaVuSans-31" transform="translate(262.978516 0.015625)"/>
     <use xlink:href="#DejaVuSans-32" transform="translate(326.601562 0.015625)"/>
     <use xlink:href="#DejaVuSans-b1" transform="translate(390.224609 0.015625)"/>
     <use xlink:href="#DejaVuSans-30" transform="translate(474.013672 0.015625)"/>
     <use xlink:href="#DejaVuSans-2e" transform="translate(537.636719 0.015625)"/>
     <use xlink:href="#DejaVuSans-32" transform="translate(563.923828 0.015625)"/>
     <use xlink:href="#DejaVuSans-30" transform="translate(627.546875 0.015625)"/>
     <use xlink:href="#DejaVuSans-20" transform="translate(691.169922 0.015625)"/>
     <use xlink:href="#DejaVuSans-6b" transform="translate(722.957031 0.015625)"/>
    </g>
    <!-- $Q_C$: 744$\pm$57  -->
    <g transform="translate(419.208813 85.059662) scale(0.1 -0.1)">
     <defs>
      <path id="DejaVuSans-Oblique-43" d="M 4447 4306 
L 4319 3641 
Q 4019 3944 3683 4091 
Q 3347 4238 2956 4238 
Q 2422 4238 2017 3981 
Q 1613 3725 1319 3200 
Q 1131 2863 1032 2486 
Q 934 2109 934 1728 
Q 934 1091 1264 756 
Q 1594 422 2222 422 
Q 2656 422 3056 561 
Q 3456 700 3834 978 
L 3688 231 
Q 3316 72 2936 -9 
Q 2556 -91 2175 -91 
Q 1278 -91 773 396 
Q 269 884 269 1753 
Q 269 2309 461 2846 
Q 653 3384 1013 3828 
Q 1394 4300 1883 4525 
Q 2372 4750 3022 4750 
Q 3422 4750 3780 4639 
Q 4138 4528 4447 4306 
z
" transform="scale(0.015625)"/>
      <path id="DejaVuSans-37" d="M 525 4666 
L 3525 4666 
L 3525 4397 
L 1831 0 
L 1172 0 
L 2766 4134 
L 525 4134 
L 525 4666 
z
" transform="scale(0.015625)"/>
      <path id="DejaVuSans-35" d="M 691 4666 
L 3169 4666 
L 3169 4134 
L 1269 4134 
L 1269 2991 
Q 1406 3038 1543 3061 
Q 1681 3084 1819 3084 
Q 2600 3084 3056 2656 
Q 3513 2228 3513 1497 
Q 3513 744 3044 326 
Q 2575 -91 1722 -91 
Q 1428 -91 1123 -41 
Q 819 9 494 109 
L 494 744 
Q 775 591 1075 516 
Q 1375 441 1709 441 
Q 2250 441 2565 725 
Q 2881 1009 2881 1497 
Q 2881 1984 2565 2268 
Q 2250 2553 1709 2553 
Q 1456 2553 1204 2497 
Q 953 2441 691 2322 
L 691 4666 
z
" transform="scale(0.015625)"/>
     </defs>
     <use xlink:href="#DejaVuSans-Oblique-51" transform="translate(0 0.78125)"/>
     <use xlink:href="#DejaVuSans-Oblique-43" transform="translate(78.710938 -15.625) scale(0.7)"/>
     <use xlink:href="#DejaVuSans-3a" transform="translate(130.322266 0.78125)"/>
     <use xlink:href="#DejaVuSans-20" transform="translate(164.013672 0.78125)"/>
     <use xlink:href="#DejaVuSans-37" transform="translate(195.800781 0.78125)"/>
     <use xlink:href="#DejaVuSans-34" transform="translate(259.423828 0.78125)"/>
     <use xlink:href="#DejaVuSans-34" transform="translate(323.046875 0.78125)"/>
     <use xlink:href="#DejaVuSans-b1" transform="translate(386.669922 0.78125)"/>
     <use xlink:href="#DejaVuSans-35" transform="translate(470.458984 0.78125)"/>
     <use xlink:href="#DejaVuSans-37" transform="translate(526.832031 0.78125)"/>
     <use xlink:href="#DejaVuSans-20" transform="translate(590.455078 0.78125)"/>
    </g>
    <!-- $f_{res}$: 5.45263$\pm$0.00037 GHz -->
    <g transform="translate(419.208813 96.257475) scale(0.1 -0.1)">
     <defs>
      <path id="DejaVuSans-Oblique-66" d="M 3059 4863 
L 2969 4384 
L 2419 4384 
Q 2106 4384 1964 4261 
Q 1822 4138 1753 3809 
L 1691 3500 
L 2638 3500 
L 2553 3053 
L 1606 3053 
L 1013 0 
L 434 0 
L 1031 3053 
L 481 3053 
L 563 3500 
L 1113 3500 
L 1159 3744 
Q 1278 4363 1576 4613 
Q 1875 4863 2516 4863 
L 3059 4863 
z
" transform="scale(0.015625)"/>
      <path id="DejaVuSans-Oblique-72" d="M 2853 2969 
Q 2766 3016 2653 3041 
Q 2541 3066 2413 3066 
Q 1953 3066 1609 2717 
Q 1266 2369 1153 1784 
L 800 0 
L 225 0 
L 909 3500 
L 1484 3500 
L 1375 2956 
Q 1603 3259 1920 3421 
Q 2238 3584 2597 3584 
Q 2691 3584 2781 3573 
Q 2872 3563 2963 3538 
L 2853 2969 
z
" transform="scale(0.015625)"/>
      <path id="DejaVuSans-Oblique-65" d="M 3078 2063 
Q 3088 2113 3092 2166 
Q 3097 2219 3097 2272 
Q 3097 2653 2873 2875 
Q 2650 3097 2266 3097 
Q 1838 3097 1509 2826 
Q 1181 2556 1013 2059 
L 3078 2063 
z
M 3578 1613 
L 903 1613 
Q 884 1494 878 1425 
Q 872 1356 872 1306 
Q 872 872 1139 634 
Q 1406 397 1894 397 
Q 2269 397 2603 481 
Q 2938 566 3225 728 
L 3116 159 
Q 2806 34 2476 -28 
Q 2147 -91 1806 -91 
Q 1078 -91 686 257 
Q 294 606 294 1247 
Q 294 1794 489 2264 
Q 684 2734 1063 3103 
Q 1306 3334 1642 3459 
Q 1978 3584 2356 3584 
Q 2950 3584 3301 3228 
Q 3653 2872 3653 2272 
Q 3653 2128 3634 1964 
Q 3616 1800 3578 1613 
z
" transform="scale(0.015625)"/>
      <path id="DejaVuSans-Oblique-73" d="M 3200 3397 
L 3091 2853 
Q 2863 2978 2609 3040 
Q 2356 3103 2088 3103 
Q 1634 3103 1373 2948 
Q 1113 2794 1113 2528 
Q 1113 2219 1719 2053 
Q 1766 2041 1788 2034 
L 1972 1978 
Q 2547 1819 2739 1644 
Q 2931 1469 2931 1166 
Q 2931 609 2489 259 
Q 2047 -91 1331 -91 
Q 1053 -91 747 -37 
Q 441 16 72 128 
L 184 722 
Q 500 559 806 475 
Q 1113 391 1394 391 
Q 1816 391 2080 572 
Q 2344 753 2344 1031 
Q 2344 1331 1650 1516 
L 1591 1531 
L 1394 1581 
Q 956 1697 753 1886 
Q 550 2075 550 2369 
Q 550 2928 970 3256 
Q 1391 3584 2113 3584 
Q 2397 3584 2667 3537 
Q 2938 3491 3200 3397 
z
" transform="scale(0.015625)"/>
      <path id="DejaVuSans-36" d="M 2113 2584 
Q 1688 2584 1439 2293 
Q 1191 2003 1191 1497 
Q 1191 994 1439 701 
Q 1688 409 2113 409 
Q 2538 409 2786 701 
Q 3034 994 3034 1497 
Q 3034 2003 2786 2293 
Q 2538 2584 2113 2584 
z
M 3366 4563 
L 3366 3988 
Q 3128 4100 2886 4159 
Q 2644 4219 2406 4219 
Q 1781 4219 1451 3797 
Q 1122 3375 1075 2522 
Q 1259 2794 1537 2939 
Q 1816 3084 2150 3084 
Q 2853 3084 3261 2657 
Q 3669 2231 3669 1497 
Q 3669 778 3244 343 
Q 2819 -91 2113 -91 
Q 1303 -91 875 529 
Q 447 1150 447 2328 
Q 447 3434 972 4092 
Q 1497 4750 2381 4750 
Q 2619 4750 2861 4703 
Q 3103 4656 3366 4563 
z
" transform="scale(0.015625)"/>
      <path id="DejaVuSans-47" d="M 3809 666 
L 3809 1919 
L 2778 1919 
L 2778 2438 
L 4434 2438 
L 4434 434 
Q 4069 175 3628 42 
Q 3188 -91 2688 -91 
Q 1594 -91 976 548 
Q 359 1188 359 2328 
Q 359 3472 976 4111 
Q 1594 4750 2688 4750 
Q 3144 4750 3555 4637 
Q 3966 4525 4313 4306 
L 4313 3634 
Q 3963 3931 3569 4081 
Q 3175 4231 2741 4231 
Q 1884 4231 1454 3753 
Q 1025 3275 1025 2328 
Q 1025 1384 1454 906 
Q 1884 428 2741 428 
Q 3075 428 3337 486 
Q 3600 544 3809 666 
z
" transform="scale(0.015625)"/>
      <path id="DejaVuSans-48" d="M 628 4666 
L 1259 4666 
L 1259 2753 
L 3553 2753 
L 3553 4666 
L 4184 4666 
L 4184 0 
L 3553 0 
L 3553 2222 
L 1259 2222 
L 1259 0 
L 628 0 
L 628 4666 
z
" transform="scale(0.015625)"/>
      <path id="DejaVuSans-7a" d="M 353 3500 
L 3084 3500 
L 3084 2975 
L 922 459 
L 3084 459 
L 3084 0 
L 275 0 
L 275 525 
L 2438 3041 
L 353 3041 
L 353 3500 
z
" transform="scale(0.015625)"/>
     </defs>
     <use xlink:href="#DejaVuSans-Oblique-66" transform="translate(0 0.015625)"/>
     <use xlink:href="#DejaVuSans-Oblique-72" transform="translate(35.205078 -16.390625) scale(0.7)"/>
     <use xlink:href="#DejaVuSans-Oblique-65" transform="translate(63.984375 -16.390625) scale(0.7)"/>
     <use xlink:href="#DejaVuSans-Oblique-73" transform="translate(107.050781 -16.390625) scale(0.7)"/>
     <use xlink:href="#DejaVuSans-3a" transform="translate(146.254883 0.015625)"/>
     <use xlink:href="#DejaVuSans-20" transform="translate(179.946289 0.015625)"/>
     <use xlink:href="#DejaVuSans-35" transform="translate(211.733398 0.015625)"/>
     <use xlink:href="#DejaVuSans-2e" transform="translate(275.356445 0.015625)"/>
     <use xlink:href="#DejaVuSans-34" transform="translate(307.143555 0.015625)"/>
     <use xlink:href="#DejaVuSans-35" transform="translate(370.766602 0.015625)"/>
     <use xlink:href="#DejaVuSans-32" transform="translate(434.389648 0.015625)"/>
     <use xlink:href="#DejaVuSans-36" transform="translate(498.012695 0.015625)"/>
     <use xlink:href="#DejaVuSans-33" transform="translate(561.635742 0.015625)"/>
     <use xlink:href="#DejaVuSans-b1" transform="translate(625.258789 0.015625)"/>
     <use xlink:href="#DejaVuSans-30" transform="translate(709.047852 0.015625)"/>
     <use xlink:href="#DejaVuSans-2e" transform="translate(772.670898 0.015625)"/>
     <use xlink:href="#DejaVuSans-30" transform="translate(804.458008 0.015625)"/>
     <use xlink:href="#DejaVuSans-30" transform="translate(868.081055 0.015625)"/>
     <use xlink:href="#DejaVuSans-30" transform="translate(931.704102 0.015625)"/>
     <use xlink:href="#DejaVuSans-33" transform="translate(995.327148 0.015625)"/>
     <use xlink:href="#DejaVuSans-37" transform="translate(1058.950195 0.015625)"/>
     <use xlink:href="#DejaVuSans-20" transform="translate(1122.573242 0.015625)"/>
     <use xlink:href="#DejaVuSans-47" transform="translate(1154.360352 0.015625)"/>
     <use xlink:href="#DejaVuSans-48" transform="translate(1231.850586 0.015625)"/>
     <use xlink:href="#DejaVuSans-7a" transform="translate(1307.045898 0.015625)"/>
    </g>
   </g>
  </g>
  <g id="text_19">
   <!-- S21 One-tone -->
   <g transform="translate(175.781875 16.318125) scale(0.12 -0.12)">
    <defs>
     <path id="DejaVuSans-4f" d="M 2522 4238 
Q 1834 4238 1429 3725 
Q 1025 3213 1025 2328 
Q 1025 1447 1429 934 
Q 1834 422 2522 422 
Q 3209 422 3611 934 
Q 4013 1447 4013 2328 
Q 4013 3213 3611 3725 
Q 3209 4238 2522 4238 
z
M 2522 4750 
Q 3503 4750 4090 4092 
Q 4678 3434 4678 2328 
Q 4678 1225 4090 567 
Q 3503 -91 2522 -91 
Q 1538 -91 948 565 
Q 359 1222 359 2328 
Q 359 3434 948 4092 
Q 1538 4750 2522 4750 
z
" transform="scale(0.015625)"/>
     <path id="DejaVuSans-6e" d="M 3513 2113 
L 3513 0 
L 2938 0 
L 2938 2094 
Q 2938 2591 2744 2837 
Q 2550 3084 2163 3084 
Q 1697 3084 1428 2787 
Q 1159 2491 1159 1978 
L 1159 0 
L 581 0 
L 581 3500 
L 1159 3500 
L 1159 2956 
Q 1366 3272 1645 3428 
Q 1925 3584 2291 3584 
Q 2894 3584 3203 3211 
Q 3513 2838 3513 2113 
z
" transform="scale(0.015625)"/>
     <path id="DejaVuSans-74" d="M 1172 4494 
L 1172 3500 
L 2356 3500 
L 2356 3053 
L 1172 3053 
L 1172 1153 
Q 1172 725 1289 603 
Q 1406 481 1766 481 
L 2356 481 
L 2356 0 
L 1766 0 
Q 1100 0 847 248 
Q 594 497 594 1153 
L 594 3053 
L 172 3053 
L 172 3500 
L 594 3500 
L 594 4494 
L 1172 4494 
z
" transform="scale(0.015625)"/>
     <path id="DejaVuSans-6f" d="M 1959 3097 
Q 1497 3097 1228 2736 
Q 959 2375 959 1747 
Q 959 1119 1226 758 
Q 1494 397 1959 397 
Q 2419 397 2687 759 
Q 2956 1122 2956 1747 
Q 2956 2369 2687 2733 
Q 2419 3097 1959 3097 
z
M 1959 3584 
Q 2709 3584 3137 3096 
Q 3566 2609 3566 1747 
Q 3566 888 3137 398 
Q 2709 -91 1959 -91 
Q 1206 -91 779 398 
Q 353 888 353 1747 
Q 353 2609 779 3096 
Q 1206 3584 1959 3584 
z
" transform="scale(0.015625)"/>
    </defs>
    <use xlink:href="#DejaVuSans-53"/>
    <use xlink:href="#DejaVuSans-32" x="63.476562"/>
    <use xlink:href="#DejaVuSans-31" x="127.099609"/>
    <use xlink:href="#DejaVuSans-20" x="190.722656"/>
    <use xlink:href="#DejaVuSans-4f" x="222.509766"/>
    <use xlink:href="#DejaVuSans-6e" x="301.220703"/>
    <use xlink:href="#DejaVuSans-65" x="364.599609"/>
    <use xlink:href="#DejaVuSans-2d" x="426.123047"/>
    <use xlink:href="#DejaVuSans-74" x="462.207031"/>
    <use xlink:href="#DejaVuSans-6f" x="501.416016"/>
    <use xlink:href="#DejaVuSans-6e" x="562.597656"/>
    <use xlink:href="#DejaVuSans-65" x="625.976562"/>
   </g>
   <!-- tuid: 20240304-135528-513-a7a2db -->
   <g transform="translate(107.475625 29.7555) scale(0.12 -0.12)">
    <defs>
     <path id="DejaVuSans-69" d="M 603 3500 
L 1178 3500 
L 1178 0 
L 603 0 
L 603 3500 
z
M 603 4863 
L 1178 4863 
L 1178 4134 
L 603 4134 
L 603 4863 
z
" transform="scale(0.015625)"/>
     <path id="DejaVuSans-64" d="M 2906 2969 
L 2906 4863 
L 3481 4863 
L 3481 0 
L 2906 0 
L 2906 525 
Q 2725 213 2448 61 
Q 2172 -91 1784 -91 
Q 1150 -91 751 415 
Q 353 922 353 1747 
Q 353 2572 751 3078 
Q 1150 3584 1784 3584 
Q 2172 3584 2448 3432 
Q 2725 3281 2906 2969 
z
M 947 1747 
Q 947 1113 1208 752 
Q 1469 391 1925 391 
Q 2381 391 2643 752 
Q 2906 1113 2906 1747 
Q 2906 2381 2643 2742 
Q 2381 3103 1925 3103 
Q 1469 3103 1208 2742 
Q 947 2381 947 1747 
z
" transform="scale(0.015625)"/>
     <path id="DejaVuSans-38" d="M 2034 2216 
Q 1584 2216 1326 1975 
Q 1069 1734 1069 1313 
Q 1069 891 1326 650 
Q 1584 409 2034 409 
Q 2484 409 2743 651 
Q 3003 894 3003 1313 
Q 3003 1734 2745 1975 
Q 2488 2216 2034 2216 
z
M 1403 2484 
Q 997 2584 770 2862 
Q 544 3141 544 3541 
Q 544 4100 942 4425 
Q 1341 4750 2034 4750 
Q 2731 4750 3128 4425 
Q 3525 4100 3525 3541 
Q 3525 3141 3298 2862 
Q 3072 2584 2669 2484 
Q 3125 2378 3379 2068 
Q 3634 1759 3634 1313 
Q 3634 634 3220 271 
Q 2806 -91 2034 -91 
Q 1263 -91 848 271 
Q 434 634 434 1313 
Q 434 1759 690 2068 
Q 947 2378 1403 2484 
z
M 1172 3481 
Q 1172 3119 1398 2916 
Q 1625 2713 2034 2713 
Q 2441 2713 2670 2916 
Q 2900 3119 2900 3481 
Q 2900 3844 2670 4047 
Q 2441 4250 2034 4250 
Q 1625 4250 1398 4047 
Q 1172 3844 1172 3481 
z
" transform="scale(0.015625)"/>
     <path id="DejaVuSans-62" d="M 3116 1747 
Q 3116 2381 2855 2742 
Q 2594 3103 2138 3103 
Q 1681 3103 1420 2742 
Q 1159 2381 1159 1747 
Q 1159 1113 1420 752 
Q 1681 391 2138 391 
Q 2594 391 2855 752 
Q 3116 1113 3116 1747 
z
M 1159 2969 
Q 1341 3281 1617 3432 
Q 1894 3584 2278 3584 
Q 2916 3584 3314 3078 
Q 3713 2572 3713 1747 
Q 3713 922 3314 415 
Q 2916 -91 2278 -91 
Q 1894 -91 1617 61 
Q 1341 213 1159 525 
L 1159 0 
L 581 0 
L 581 4863 
L 1159 4863 
L 1159 2969 
z
" transform="scale(0.015625)"/>
    </defs>
    <use xlink:href="#DejaVuSans-74"/>
    <use xlink:href="#DejaVuSans-75" x="39.208984"/>
    <use xlink:href="#DejaVuSans-69" x="102.587891"/>
    <use xlink:href="#DejaVuSans-64" x="130.371094"/>
    <use xlink:href="#DejaVuSans-3a" x="193.847656"/>
    <use xlink:href="#DejaVuSans-20" x="227.539062"/>
    <use xlink:href="#DejaVuSans-32" x="259.326172"/>
    <use xlink:href="#DejaVuSans-30" x="322.949219"/>
    <use xlink:href="#DejaVuSans-32" x="386.572266"/>
    <use xlink:href="#DejaVuSans-34" x="450.195312"/>
    <use xlink:href="#DejaVuSans-30" x="513.818359"/>
    <use xlink:href="#DejaVuSans-33" x="577.441406"/>
    <use xlink:href="#DejaVuSans-30" x="641.064453"/>
    <use xlink:href="#DejaVuSans-34" x="704.6875"/>
    <use xlink:href="#DejaVuSans-2d" x="768.310547"/>
    <use xlink:href="#DejaVuSans-31" x="804.394531"/>
    <use xlink:href="#DejaVuSans-33" x="868.017578"/>
    <use xlink:href="#DejaVuSans-35" x="931.640625"/>
    <use xlink:href="#DejaVuSans-35" x="995.263672"/>
    <use xlink:href="#DejaVuSans-32" x="1058.886719"/>
    <use xlink:href="#DejaVuSans-38" x="1122.509766"/>
    <use xlink:href="#DejaVuSans-2d" x="1186.132812"/>
    <use xlink:href="#DejaVuSans-35" x="1222.216797"/>
    <use xlink:href="#DejaVuSans-31" x="1285.839844"/>
    <use xlink:href="#DejaVuSans-33" x="1349.462891"/>
    <use xlink:href="#DejaVuSans-2d" x="1413.085938"/>
    <use xlink:href="#DejaVuSans-61" x="1449.169922"/>
    <use xlink:href="#DejaVuSans-37" x="1510.449219"/>
    <use xlink:href="#DejaVuSans-61" x="1574.072266"/>
    <use xlink:href="#DejaVuSans-32" x="1635.351562"/>
    <use xlink:href="#DejaVuSans-64" x="1698.974609"/>
    <use xlink:href="#DejaVuSans-62" x="1762.451172"/>
   </g>
  </g>
 </g>
 <defs>
  <clipPath id="p597eb61100">
   <rect x="44.232813" y="41.76" width="357.12" height="266.112"/>
  </clipPath>
 </defs>
</svg>
