<?xml version="1.0" encoding="utf-8" standalone="no"?>
<!DOCTYPE svg PUBLIC "-//W3C//DTD SVG 1.1//EN"
  "http://www.w3.org/Graphics/SVG/1.1/DTD/svg11.dtd">
<svg xmlns:xlink="http://www.w3.org/1999/xlink" width="558.424437pt" height="345.42825pt" viewBox="0 0 558.424437 345.42825" xmlns="http://www.w3.org/2000/svg" version="1.1">
 <metadata>
  <rdf:RDF xmlns:dc="http://purl.org/dc/elements/1.1/" xmlns:cc="http://creativecommons.org/ns#" xmlns:rdf="http://www.w3.org/1999/02/22-rdf-syntax-ns#">
   <cc:Work>
    <dc:type rdf:resource="http://purl.org/dc/dcmitype/StillImage"/>
    <dc:date>2024-02-22T16:58:46.339943</dc:date>
    <dc:format>image/svg+xml</dc:format>
    <dc:creator>
     <cc:Agent>
      <dc:title>Matplotlib v3.8.2, https://matplotlib.org/</dc:title>
     </cc:Agent>
    </dc:creator>
   </cc:Work>
  </rdf:RDF>
 </metadata>
 <defs>
  <style type="text/css">*{stroke-linejoin: round; stroke-linecap: butt}</style>
 </defs>
 <g id="figure_1">
  <g id="patch_1">
   <path d="M 0 345.42825 
L 558.424437 345.42825 
L 558.424437 -0 
L 0 -0 
L 0 345.42825 
z
" style="fill: none; opacity: 0"/>
  </g>
  <g id="axes_1">
   <g id="patch_2">
    <path d="M 37.848438 307.872 
L 394.968438 307.872 
L 394.968438 41.76 
L 37.848438 41.76 
z
" style="fill: #ffffff"/>
   </g>
   <g id="matplotlib.axis_1">
    <g id="xtick_1">
     <g id="line2d_1">
      <defs>
       <path id="mb11f07b0a0" d="M 0 0 
L 0 3.5 
" style="stroke: #000000; stroke-width: 0.8"/>
      </defs>
      <g>
       <use xlink:href="#mb11f07b0a0" x="51.092381" y="307.872" style="stroke: #000000; stroke-width: 0.8"/>
      </g>
     </g>
     <g id="text_1">
      <!-- -4 -->
      <g transform="translate(46.107225 322.470438) scale(0.1 -0.1)">
       <defs>
        <path id="DejaVuSans-2d" d="M 313 2009 
L 1997 2009 
L 1997 1497 
L 313 1497 
L 313 2009 
z
" transform="scale(0.015625)"/>
        <path id="DejaVuSans-34" d="M 2419 4116 
L 825 1625 
L 2419 1625 
L 2419 4116 
z
M 2253 4666 
L 3047 4666 
L 3047 1625 
L 3713 1625 
L 3713 1100 
L 3047 1100 
L 3047 0 
L 2419 0 
L 2419 1100 
L 313 1100 
L 313 1709 
L 2253 4666 
z
" transform="scale(0.015625)"/>
       </defs>
       <use xlink:href="#DejaVuSans-2d"/>
       <use xlink:href="#DejaVuSans-34" x="36.083984"/>
      </g>
     </g>
    </g>
    <g id="xtick_2">
     <g id="line2d_2">
      <g>
       <use xlink:href="#mb11f07b0a0" x="93.248546" y="307.872" style="stroke: #000000; stroke-width: 0.8"/>
      </g>
     </g>
     <g id="text_2">
      <!-- -3 -->
      <g transform="translate(88.26339 322.470438) scale(0.1 -0.1)">
       <defs>
        <path id="DejaVuSans-33" d="M 2597 2516 
Q 3050 2419 3304 2112 
Q 3559 1806 3559 1356 
Q 3559 666 3084 287 
Q 2609 -91 1734 -91 
Q 1441 -91 1130 -33 
Q 819 25 488 141 
L 488 750 
Q 750 597 1062 519 
Q 1375 441 1716 441 
Q 2309 441 2620 675 
Q 2931 909 2931 1356 
Q 2931 1769 2642 2001 
Q 2353 2234 1838 2234 
L 1294 2234 
L 1294 2753 
L 1863 2753 
Q 2328 2753 2575 2939 
Q 2822 3125 2822 3475 
Q 2822 3834 2567 4026 
Q 2313 4219 1838 4219 
Q 1578 4219 1281 4162 
Q 984 4106 628 3988 
L 628 4550 
Q 988 4650 1302 4700 
Q 1616 4750 1894 4750 
Q 2613 4750 3031 4423 
Q 3450 4097 3450 3541 
Q 3450 3153 3228 2886 
Q 3006 2619 2597 2516 
z
" transform="scale(0.015625)"/>
       </defs>
       <use xlink:href="#DejaVuSans-2d"/>
       <use xlink:href="#DejaVuSans-33" x="36.083984"/>
      </g>
     </g>
    </g>
    <g id="xtick_3">
     <g id="line2d_3">
      <g>
       <use xlink:href="#mb11f07b0a0" x="135.404712" y="307.872" style="stroke: #000000; stroke-width: 0.8"/>
      </g>
     </g>
     <g id="text_3">
      <!-- -2 -->
      <g transform="translate(130.419555 322.470438) scale(0.1 -0.1)">
       <defs>
        <path id="DejaVuSans-32" d="M 1228 531 
L 3431 531 
L 3431 0 
L 469 0 
L 469 531 
Q 828 903 1448 1529 
Q 2069 2156 2228 2338 
Q 2531 2678 2651 2914 
Q 2772 3150 2772 3378 
Q 2772 3750 2511 3984 
Q 2250 4219 1831 4219 
Q 1534 4219 1204 4116 
Q 875 4013 500 3803 
L 500 4441 
Q 881 4594 1212 4672 
Q 1544 4750 1819 4750 
Q 2544 4750 2975 4387 
Q 3406 4025 3406 3419 
Q 3406 3131 3298 2873 
Q 3191 2616 2906 2266 
Q 2828 2175 2409 1742 
Q 1991 1309 1228 531 
z
" transform="scale(0.015625)"/>
       </defs>
       <use xlink:href="#DejaVuSans-2d"/>
       <use xlink:href="#DejaVuSans-32" x="36.083984"/>
      </g>
     </g>
    </g>
    <g id="xtick_4">
     <g id="line2d_4">
      <g>
       <use xlink:href="#mb11f07b0a0" x="177.560877" y="307.872" style="stroke: #000000; stroke-width: 0.8"/>
      </g>
     </g>
     <g id="text_4">
      <!-- -1 -->
      <g transform="translate(172.575721 322.470438) scale(0.1 -0.1)">
       <defs>
        <path id="DejaVuSans-31" d="M 794 531 
L 1825 531 
L 1825 4091 
L 703 3866 
L 703 4441 
L 1819 4666 
L 2450 4666 
L 2450 531 
L 3481 531 
L 3481 0 
L 794 0 
L 794 531 
z
" transform="scale(0.015625)"/>
       </defs>
       <use xlink:href="#DejaVuSans-2d"/>
       <use xlink:href="#DejaVuSans-31" x="36.083984"/>
      </g>
     </g>
    </g>
    <g id="xtick_5">
     <g id="line2d_5">
      <g>
       <use xlink:href="#mb11f07b0a0" x="219.717042" y="307.872" style="stroke: #000000; stroke-width: 0.8"/>
      </g>
     </g>
     <g id="text_5">
      <!-- 0 -->
      <g transform="translate(216.535792 322.470438) scale(0.1 -0.1)">
       <defs>
        <path id="DejaVuSans-30" d="M 2034 4250 
Q 1547 4250 1301 3770 
Q 1056 3291 1056 2328 
Q 1056 1369 1301 889 
Q 1547 409 2034 409 
Q 2525 409 2770 889 
Q 3016 1369 3016 2328 
Q 3016 3291 2770 3770 
Q 2525 4250 2034 4250 
z
M 2034 4750 
Q 2819 4750 3233 4129 
Q 3647 3509 3647 2328 
Q 3647 1150 3233 529 
Q 2819 -91 2034 -91 
Q 1250 -91 836 529 
Q 422 1150 422 2328 
Q 422 3509 836 4129 
Q 1250 4750 2034 4750 
z
" transform="scale(0.015625)"/>
       </defs>
       <use xlink:href="#DejaVuSans-30"/>
      </g>
     </g>
    </g>
    <g id="xtick_6">
     <g id="line2d_6">
      <g>
       <use xlink:href="#mb11f07b0a0" x="261.873207" y="307.872" style="stroke: #000000; stroke-width: 0.8"/>
      </g>
     </g>
     <g id="text_6">
      <!-- 1 -->
      <g transform="translate(258.691957 322.470438) scale(0.1 -0.1)">
       <use xlink:href="#DejaVuSans-31"/>
      </g>
     </g>
    </g>
    <g id="xtick_7">
     <g id="line2d_7">
      <g>
       <use xlink:href="#mb11f07b0a0" x="304.029372" y="307.872" style="stroke: #000000; stroke-width: 0.8"/>
      </g>
     </g>
     <g id="text_7">
      <!-- 2 -->
      <g transform="translate(300.848122 322.470438) scale(0.1 -0.1)">
       <use xlink:href="#DejaVuSans-32"/>
      </g>
     </g>
    </g>
    <g id="xtick_8">
     <g id="line2d_8">
      <g>
       <use xlink:href="#mb11f07b0a0" x="346.185538" y="307.872" style="stroke: #000000; stroke-width: 0.8"/>
      </g>
     </g>
     <g id="text_8">
      <!-- 3 -->
      <g transform="translate(343.004288 322.470438) scale(0.1 -0.1)">
       <use xlink:href="#DejaVuSans-33"/>
      </g>
     </g>
    </g>
    <g id="xtick_9">
     <g id="line2d_9">
      <g>
       <use xlink:href="#mb11f07b0a0" x="388.341703" y="307.872" style="stroke: #000000; stroke-width: 0.8"/>
      </g>
     </g>
     <g id="text_9">
      <!-- 4 -->
      <g transform="translate(385.160453 322.470438) scale(0.1 -0.1)">
       <use xlink:href="#DejaVuSans-34"/>
      </g>
     </g>
    </g>
    <g id="text_10">
     <!-- Re$(S_{21})$ [mV] -->
     <g transform="translate(184.408438 336.148562) scale(0.1 -0.1)">
      <defs>
       <path id="DejaVuSans-52" d="M 2841 2188 
Q 3044 2119 3236 1894 
Q 3428 1669 3622 1275 
L 4263 0 
L 3584 0 
L 2988 1197 
Q 2756 1666 2539 1819 
Q 2322 1972 1947 1972 
L 1259 1972 
L 1259 0 
L 628 0 
L 628 4666 
L 2053 4666 
Q 2853 4666 3247 4331 
Q 3641 3997 3641 3322 
Q 3641 2881 3436 2590 
Q 3231 2300 2841 2188 
z
M 1259 4147 
L 1259 2491 
L 2053 2491 
Q 2509 2491 2742 2702 
Q 2975 2913 2975 3322 
Q 2975 3731 2742 3939 
Q 2509 4147 2053 4147 
L 1259 4147 
z
" transform="scale(0.015625)"/>
       <path id="DejaVuSans-65" d="M 3597 1894 
L 3597 1613 
L 953 1613 
Q 991 1019 1311 708 
Q 1631 397 2203 397 
Q 2534 397 2845 478 
Q 3156 559 3463 722 
L 3463 178 
Q 3153 47 2828 -22 
Q 2503 -91 2169 -91 
Q 1331 -91 842 396 
Q 353 884 353 1716 
Q 353 2575 817 3079 
Q 1281 3584 2069 3584 
Q 2775 3584 3186 3129 
Q 3597 2675 3597 1894 
z
M 3022 2063 
Q 3016 2534 2758 2815 
Q 2500 3097 2075 3097 
Q 1594 3097 1305 2825 
Q 1016 2553 972 2059 
L 3022 2063 
z
" transform="scale(0.015625)"/>
       <path id="DejaVuSans-28" d="M 1984 4856 
Q 1566 4138 1362 3434 
Q 1159 2731 1159 2009 
Q 1159 1288 1364 580 
Q 1569 -128 1984 -844 
L 1484 -844 
Q 1016 -109 783 600 
Q 550 1309 550 2009 
Q 550 2706 781 3412 
Q 1013 4119 1484 4856 
L 1984 4856 
z
" transform="scale(0.015625)"/>
       <path id="DejaVuSans-Oblique-53" d="M 3859 4513 
L 3738 3897 
Q 3422 4066 3111 4152 
Q 2800 4238 2509 4238 
Q 1944 4238 1609 3991 
Q 1275 3744 1275 3334 
Q 1275 3109 1398 2989 
Q 1522 2869 2034 2731 
L 2413 2638 
Q 3053 2472 3303 2217 
Q 3553 1963 3553 1503 
Q 3553 797 2998 353 
Q 2444 -91 1538 -91 
Q 1166 -91 791 -17 
Q 416 56 38 206 
L 166 856 
Q 513 641 861 531 
Q 1209 422 1556 422 
Q 2147 422 2503 684 
Q 2859 947 2859 1369 
Q 2859 1650 2717 1795 
Q 2575 1941 2106 2059 
L 1728 2156 
Q 1081 2325 845 2545 
Q 609 2766 609 3163 
Q 609 3859 1145 4304 
Q 1681 4750 2541 4750 
Q 2875 4750 3203 4690 
Q 3531 4631 3859 4513 
z
" transform="scale(0.015625)"/>
       <path id="DejaVuSans-29" d="M 513 4856 
L 1013 4856 
Q 1481 4119 1714 3412 
Q 1947 2706 1947 2009 
Q 1947 1309 1714 600 
Q 1481 -109 1013 -844 
L 513 -844 
Q 928 -128 1133 580 
Q 1338 1288 1338 2009 
Q 1338 2731 1133 3434 
Q 928 4138 513 4856 
z
" transform="scale(0.015625)"/>
       <path id="DejaVuSans-20" transform="scale(0.015625)"/>
       <path id="DejaVuSans-5b" d="M 550 4863 
L 1875 4863 
L 1875 4416 
L 1125 4416 
L 1125 -397 
L 1875 -397 
L 1875 -844 
L 550 -844 
L 550 4863 
z
" transform="scale(0.015625)"/>
       <path id="DejaVuSans-6d" d="M 3328 2828 
Q 3544 3216 3844 3400 
Q 4144 3584 4550 3584 
Q 5097 3584 5394 3201 
Q 5691 2819 5691 2113 
L 5691 0 
L 5113 0 
L 5113 2094 
Q 5113 2597 4934 2840 
Q 4756 3084 4391 3084 
Q 3944 3084 3684 2787 
Q 3425 2491 3425 1978 
L 3425 0 
L 2847 0 
L 2847 2094 
Q 2847 2600 2669 2842 
Q 2491 3084 2119 3084 
Q 1678 3084 1418 2786 
Q 1159 2488 1159 1978 
L 1159 0 
L 581 0 
L 581 3500 
L 1159 3500 
L 1159 2956 
Q 1356 3278 1631 3431 
Q 1906 3584 2284 3584 
Q 2666 3584 2933 3390 
Q 3200 3197 3328 2828 
z
" transform="scale(0.015625)"/>
       <path id="DejaVuSans-56" d="M 1831 0 
L 50 4666 
L 709 4666 
L 2188 738 
L 3669 4666 
L 4325 4666 
L 2547 0 
L 1831 0 
z
" transform="scale(0.015625)"/>
       <path id="DejaVuSans-5d" d="M 1947 4863 
L 1947 -844 
L 622 -844 
L 622 -397 
L 1369 -397 
L 1369 4416 
L 622 4416 
L 622 4863 
L 1947 4863 
z
" transform="scale(0.015625)"/>
      </defs>
      <use xlink:href="#DejaVuSans-52" transform="translate(0 0.015625)"/>
      <use xlink:href="#DejaVuSans-65" transform="translate(69.482422 0.015625)"/>
      <use xlink:href="#DejaVuSans-28" transform="translate(131.005859 0.015625)"/>
      <use xlink:href="#DejaVuSans-Oblique-53" transform="translate(170.019531 0.015625)"/>
      <use xlink:href="#DejaVuSans-32" transform="translate(233.496094 -16.390625) scale(0.7)"/>
      <use xlink:href="#DejaVuSans-31" transform="translate(278.032227 -16.390625) scale(0.7)"/>
      <use xlink:href="#DejaVuSans-29" transform="translate(325.302734 0.015625)"/>
      <use xlink:href="#DejaVuSans-20" transform="translate(364.316406 0.015625)"/>
      <use xlink:href="#DejaVuSans-5b" transform="translate(396.103516 0.015625)"/>
      <use xlink:href="#DejaVuSans-6d" transform="translate(435.117188 0.015625)"/>
      <use xlink:href="#DejaVuSans-56" transform="translate(532.529297 0.015625)"/>
      <use xlink:href="#DejaVuSans-5d" transform="translate(600.9375 0.015625)"/>
     </g>
    </g>
   </g>
   <g id="matplotlib.axis_2">
    <g id="ytick_1">
     <g id="line2d_10">
      <defs>
       <path id="m98f00b882c" d="M 0 0 
L -3.5 0 
" style="stroke: #000000; stroke-width: 0.8"/>
      </defs>
      <g>
       <use xlink:href="#m98f00b882c" x="37.848438" y="293.45512" style="stroke: #000000; stroke-width: 0.8"/>
      </g>
     </g>
     <g id="text_11">
      <!-- -4 -->
      <g transform="translate(20.878125 297.254339) scale(0.1 -0.1)">
       <use xlink:href="#DejaVuSans-2d"/>
       <use xlink:href="#DejaVuSans-34" x="36.083984"/>
      </g>
     </g>
    </g>
    <g id="ytick_2">
     <g id="line2d_11">
      <g>
       <use xlink:href="#m98f00b882c" x="37.848438" y="250.864639" style="stroke: #000000; stroke-width: 0.8"/>
      </g>
     </g>
     <g id="text_12">
      <!-- -3 -->
      <g transform="translate(20.878125 254.663858) scale(0.1 -0.1)">
       <use xlink:href="#DejaVuSans-2d"/>
       <use xlink:href="#DejaVuSans-33" x="36.083984"/>
      </g>
     </g>
    </g>
    <g id="ytick_3">
     <g id="line2d_12">
      <g>
       <use xlink:href="#m98f00b882c" x="37.848438" y="208.274157" style="stroke: #000000; stroke-width: 0.8"/>
      </g>
     </g>
     <g id="text_13">
      <!-- -2 -->
      <g transform="translate(20.878125 212.073376) scale(0.1 -0.1)">
       <use xlink:href="#DejaVuSans-2d"/>
       <use xlink:href="#DejaVuSans-32" x="36.083984"/>
      </g>
     </g>
    </g>
    <g id="ytick_4">
     <g id="line2d_13">
      <g>
       <use xlink:href="#m98f00b882c" x="37.848438" y="165.683676" style="stroke: #000000; stroke-width: 0.8"/>
      </g>
     </g>
     <g id="text_14">
      <!-- -1 -->
      <g transform="translate(20.878125 169.482895) scale(0.1 -0.1)">
       <use xlink:href="#DejaVuSans-2d"/>
       <use xlink:href="#DejaVuSans-31" x="36.083984"/>
      </g>
     </g>
    </g>
    <g id="ytick_5">
     <g id="line2d_14">
      <g>
       <use xlink:href="#m98f00b882c" x="37.848438" y="123.093194" style="stroke: #000000; stroke-width: 0.8"/>
      </g>
     </g>
     <g id="text_15">
      <!-- 0 -->
      <g transform="translate(24.485938 126.892413) scale(0.1 -0.1)">
       <use xlink:href="#DejaVuSans-30"/>
      </g>
     </g>
    </g>
    <g id="ytick_6">
     <g id="line2d_15">
      <g>
       <use xlink:href="#m98f00b882c" x="37.848438" y="80.502713" style="stroke: #000000; stroke-width: 0.8"/>
      </g>
     </g>
     <g id="text_16">
      <!-- 1 -->
      <g transform="translate(24.485938 84.301932) scale(0.1 -0.1)">
       <use xlink:href="#DejaVuSans-31"/>
      </g>
     </g>
    </g>
    <g id="text_17">
     <!-- Im$(S_{21})$ [mV] -->
     <g transform="translate(14.798438 206.466) rotate(-90) scale(0.1 -0.1)">
      <defs>
       <path id="DejaVuSans-49" d="M 628 4666 
L 1259 4666 
L 1259 0 
L 628 0 
L 628 4666 
z
" transform="scale(0.015625)"/>
      </defs>
      <use xlink:href="#DejaVuSans-49" transform="translate(0 0.015625)"/>
      <use xlink:href="#DejaVuSans-6d" transform="translate(25.867188 0.015625)"/>
      <use xlink:href="#DejaVuSans-28" transform="translate(123.279297 0.015625)"/>
      <use xlink:href="#DejaVuSans-Oblique-53" transform="translate(162.292969 0.015625)"/>
      <use xlink:href="#DejaVuSans-32" transform="translate(225.769531 -16.390625) scale(0.7)"/>
      <use xlink:href="#DejaVuSans-31" transform="translate(270.305664 -16.390625) scale(0.7)"/>
      <use xlink:href="#DejaVuSans-29" transform="translate(317.576172 0.015625)"/>
      <use xlink:href="#DejaVuSans-20" transform="translate(356.589844 0.015625)"/>
      <use xlink:href="#DejaVuSans-5b" transform="translate(388.376953 0.015625)"/>
      <use xlink:href="#DejaVuSans-6d" transform="translate(427.390625 0.015625)"/>
      <use xlink:href="#DejaVuSans-56" transform="translate(524.802734 0.015625)"/>
      <use xlink:href="#DejaVuSans-5d" transform="translate(593.210938 0.015625)"/>
     </g>
    </g>
   </g>
   <g id="line2d_16">
    <path d="M 329.076982 53.856 
L 330.33276 55.033418 
L 334.352382 57.740504 
L 335.737316 62.45703 
L 339.481317 62.143521 
L 342.344569 67.534587 
L 344.962844 69.580075 
L 347.454475 72.87368 
L 351.70887 80.598037 
L 352.84892 82.887416 
L 355.669707 85.363344 
L 355.840123 89.340415 
L 359.789561 90.354337 
L 359.514526 93.653528 
L 359.995193 97.624908 
L 361.611378 100.801665 
L 365.938193 104.293544 
L 365.112358 109.455522 
L 366.052748 110.560316 
L 366.337523 114.186697 
L 366.445838 117.858009 
L 368.966455 121.66479 
L 368.080445 125.340347 
L 371.191156 130.044473 
L 369.709893 132.813312 
L 370.244001 134.475308 
L 370.803369 138.986882 
L 371.037555 141.939971 
L 370.016364 146.62455 
L 370.01138 152.150389 
L 370.38295 153.301456 
L 368.259439 156.539154 
L 368.009148 162.575039 
L 367.108371 165.067498 
L 366.319472 168.960615 
L 364.667659 171.955275 
L 364.181278 176.20701 
L 363.057178 178.082884 
L 362.324151 181.917963 
L 359.533864 188.276355 
L 360.150226 188.552507 
L 357.574498 193.378537 
L 356.93467 194.894213 
L 354.277452 199.166296 
L 352.956514 201.696165 
L 352.4964 204.666045 
L 352.954228 208.564998 
L 349.918356 212.805331 
L 346.394228 214.337538 
L 343.153383 219.980631 
L 342.333716 223.870274 
L 337.510923 226.070321 
L 336.417787 228.905906 
L 333.848733 230.152391 
L 330.412902 234.828823 
L 328.598303 237.809699 
L 327.382663 239.012865 
L 324.735453 240.965379 
L 316.814089 248.706808 
L 315.154141 252.681101 
L 311.725128 253.71481 
L 308.763878 257.094959 
L 308.696309 257.858123 
L 307.012729 258.7865 
L 302.724972 260.934822 
L 297.149412 261.812369 
L 297.431026 264.46383 
L 294.270055 266.301712 
L 292.694533 268.693499 
L 287.34728 269.531972 
L 283.154811 272.708157 
L 279.518754 274.908672 
L 276.036495 274.939996 
L 272.73362 278.144269 
L 269.577797 280.909748 
L 266.956742 281.635294 
L 265.575361 283.807523 
L 259.860194 283.056208 
L 254.951626 286.088798 
L 252.622493 287.108691 
L 248.869153 289.712682 
L 244.328427 290.77451 
L 240.422 290.241536 
L 235.762313 291.017809 
L 230.049432 292.474114 
L 222.03665 293.858898 
L 215.768799 295.776 
L 209.160362 295.233486 
L 198.240257 295.23048 
L 185.517137 293.900656 
L 171.610051 288.073375 
L 157.738922 265.757471 
L 149.187636 221.442793 
L 188.719039 188.078644 
L 231.24664 202.81003 
L 241.777928 228.78704 
L 237.699561 244.051025 
L 233.39612 254.934402 
L 229.424812 263.120263 
L 221.00541 266.266196 
L 216.964627 269.670989 
L 212.84949 271.395633 
L 207.825688 272.795938 
L 203.47658 273.557386 
L 200.905435 275.15378 
L 196.461337 274.189544 
L 191.571582 274.529779 
L 187.379567 274.112509 
L 185.342201 276.385107 
L 183.377037 275.125723 
L 178.390583 276.9952 
L 177.462869 275.344616 
L 169.85501 274.098537 
L 167.058081 273.068886 
L 164.368448 271.619852 
L 162.2721 274.024685 
L 158.317998 271.818729 
L 156.001407 269.234505 
L 151.460753 268.627117 
L 150.978408 267.218406 
L 146.928924 268.019219 
L 142.802727 265.218817 
L 140.496701 261.792541 
L 138.466893 261.762455 
L 135.975509 260.711623 
L 133.147256 259.216784 
L 132.005065 258.86367 
L 126.053148 257.399105 
L 124.979134 254.324413 
L 121.706017 252.089349 
L 116.779317 251.037425 
L 116.572253 249.813495 
L 113.375304 248.049839 
L 110.335777 246.7222 
L 107.627547 243.872643 
L 108.512445 241.951421 
L 103.997318 239.261167 
L 100.457323 237.298208 
L 98.694569 235.489423 
L 96.228382 231.569049 
L 97.652517 230.493187 
L 91.756441 229.047431 
L 91.679686 226.299877 
L 88.351841 223.920927 
L 85.650273 221.824807 
L 83.854332 218.629876 
L 82.264888 212.627864 
L 79.749492 211.878827 
L 78.587376 211.957048 
L 76.635547 208.366849 
L 74.487539 203.46265 
L 72.198472 202.010017 
L 72.013794 199.266801 
L 69.166647 196.41456 
L 69.899828 194.231304 
L 68.44473 192.034503 
L 67.152171 187.097221 
L 66.282625 186.282218 
L 64.037125 183.03293 
L 62.548489 179.00788 
L 62.400386 176.934169 
L 62.035932 174.071598 
L 58.287586 170.828438 
L 60.236243 168.171692 
L 59.362033 164.873593 
L 57.657674 165.210364 
L 56.726861 162.45275 
L 57.545683 155.993696 
L 57.173341 154.784268 
L 55.001784 151.005804 
L 55.976174 148.136512 
L 57.395562 146.240258 
L 55.286817 142.382168 
L 56.180426 140.3114 
L 54.524278 135.239159 
L 54.331249 133.167206 
L 54.348198 129.416695 
L 55.668755 126.568085 
L 55.543234 123.900999 
L 54.081165 119.585961 
L 54.803061 118.582702 
L 54.711407 113.299693 
L 55.312199 109.906052 
L 54.805347 106.927225 
L 54.631687 103.207174 
L 56.201577 100.712521 
L 55.323217 96.893702 
L 57.373104 95.682953 
L 57.038172 92.316942 
L 58.540101 89.583141 
L 57.721382 86.610431 
L 58.946917 84.077068 
L 58.946917 84.077068 
" clip-path="url(#pd3fdb127db)" style="fill: none; stroke: #1f77b4; stroke-width: 1.5; stroke-linecap: square"/>
    <defs>
     <path id="me22455c954" d="M 0 1.5 
C 0.397805 1.5 0.77937 1.341951 1.06066 1.06066 
C 1.341951 0.77937 1.5 0.397805 1.5 0 
C 1.5 -0.397805 1.341951 -0.77937 1.06066 -1.06066 
C 0.77937 -1.341951 0.397805 -1.5 0 -1.5 
C -0.397805 -1.5 -0.77937 -1.341951 -1.06066 -1.06066 
C -1.341951 -0.77937 -1.5 -0.397805 -1.5 0 
C -1.5 0.397805 -1.341951 0.77937 -1.06066 1.06066 
C -0.77937 1.341951 -0.397805 1.5 0 1.5 
z
" style="stroke: #1f77b4"/>
    </defs>
    <g clip-path="url(#pd3fdb127db)">
     <use xlink:href="#me22455c954" x="329.076982" y="53.856" style="fill: #1f77b4; stroke: #1f77b4"/>
     <use xlink:href="#me22455c954" x="330.33276" y="55.033418" style="fill: #1f77b4; stroke: #1f77b4"/>
     <use xlink:href="#me22455c954" x="334.352382" y="57.740504" style="fill: #1f77b4; stroke: #1f77b4"/>
     <use xlink:href="#me22455c954" x="335.737316" y="62.45703" style="fill: #1f77b4; stroke: #1f77b4"/>
     <use xlink:href="#me22455c954" x="339.481317" y="62.143521" style="fill: #1f77b4; stroke: #1f77b4"/>
     <use xlink:href="#me22455c954" x="341.15633" y="65.408268" style="fill: #1f77b4; stroke: #1f77b4"/>
     <use xlink:href="#me22455c954" x="342.344569" y="67.534587" style="fill: #1f77b4; stroke: #1f77b4"/>
     <use xlink:href="#me22455c954" x="344.962844" y="69.580075" style="fill: #1f77b4; stroke: #1f77b4"/>
     <use xlink:href="#me22455c954" x="347.454475" y="72.87368" style="fill: #1f77b4; stroke: #1f77b4"/>
     <use xlink:href="#me22455c954" x="350.44641" y="78.155857" style="fill: #1f77b4; stroke: #1f77b4"/>
     <use xlink:href="#me22455c954" x="351.70887" y="80.598037" style="fill: #1f77b4; stroke: #1f77b4"/>
     <use xlink:href="#me22455c954" x="352.84892" y="82.887416" style="fill: #1f77b4; stroke: #1f77b4"/>
     <use xlink:href="#me22455c954" x="355.669707" y="85.363344" style="fill: #1f77b4; stroke: #1f77b4"/>
     <use xlink:href="#me22455c954" x="355.840123" y="89.340415" style="fill: #1f77b4; stroke: #1f77b4"/>
     <use xlink:href="#me22455c954" x="359.789561" y="90.354337" style="fill: #1f77b4; stroke: #1f77b4"/>
     <use xlink:href="#me22455c954" x="359.514526" y="93.653528" style="fill: #1f77b4; stroke: #1f77b4"/>
     <use xlink:href="#me22455c954" x="359.995193" y="97.624908" style="fill: #1f77b4; stroke: #1f77b4"/>
     <use xlink:href="#me22455c954" x="361.611378" y="100.801665" style="fill: #1f77b4; stroke: #1f77b4"/>
     <use xlink:href="#me22455c954" x="365.938193" y="104.293544" style="fill: #1f77b4; stroke: #1f77b4"/>
     <use xlink:href="#me22455c954" x="365.112358" y="109.455522" style="fill: #1f77b4; stroke: #1f77b4"/>
     <use xlink:href="#me22455c954" x="366.052748" y="110.560316" style="fill: #1f77b4; stroke: #1f77b4"/>
     <use xlink:href="#me22455c954" x="366.337523" y="114.186697" style="fill: #1f77b4; stroke: #1f77b4"/>
     <use xlink:href="#me22455c954" x="366.445838" y="117.858009" style="fill: #1f77b4; stroke: #1f77b4"/>
     <use xlink:href="#me22455c954" x="368.966455" y="121.66479" style="fill: #1f77b4; stroke: #1f77b4"/>
     <use xlink:href="#me22455c954" x="368.080445" y="125.340347" style="fill: #1f77b4; stroke: #1f77b4"/>
     <use xlink:href="#me22455c954" x="371.191156" y="130.044473" style="fill: #1f77b4; stroke: #1f77b4"/>
     <use xlink:href="#me22455c954" x="369.709893" y="132.813312" style="fill: #1f77b4; stroke: #1f77b4"/>
     <use xlink:href="#me22455c954" x="370.244001" y="134.475308" style="fill: #1f77b4; stroke: #1f77b4"/>
     <use xlink:href="#me22455c954" x="370.803369" y="138.986882" style="fill: #1f77b4; stroke: #1f77b4"/>
     <use xlink:href="#me22455c954" x="371.037555" y="141.939971" style="fill: #1f77b4; stroke: #1f77b4"/>
     <use xlink:href="#me22455c954" x="370.016364" y="146.62455" style="fill: #1f77b4; stroke: #1f77b4"/>
     <use xlink:href="#me22455c954" x="370.01138" y="152.150389" style="fill: #1f77b4; stroke: #1f77b4"/>
     <use xlink:href="#me22455c954" x="370.38295" y="153.301456" style="fill: #1f77b4; stroke: #1f77b4"/>
     <use xlink:href="#me22455c954" x="368.259439" y="156.539154" style="fill: #1f77b4; stroke: #1f77b4"/>
     <use xlink:href="#me22455c954" x="368.009148" y="162.575039" style="fill: #1f77b4; stroke: #1f77b4"/>
     <use xlink:href="#me22455c954" x="367.108371" y="165.067498" style="fill: #1f77b4; stroke: #1f77b4"/>
     <use xlink:href="#me22455c954" x="366.319472" y="168.960615" style="fill: #1f77b4; stroke: #1f77b4"/>
     <use xlink:href="#me22455c954" x="364.667659" y="171.955275" style="fill: #1f77b4; stroke: #1f77b4"/>
     <use xlink:href="#me22455c954" x="364.181278" y="176.20701" style="fill: #1f77b4; stroke: #1f77b4"/>
     <use xlink:href="#me22455c954" x="363.057178" y="178.082884" style="fill: #1f77b4; stroke: #1f77b4"/>
     <use xlink:href="#me22455c954" x="362.324151" y="181.917963" style="fill: #1f77b4; stroke: #1f77b4"/>
     <use xlink:href="#me22455c954" x="359.533864" y="188.276355" style="fill: #1f77b4; stroke: #1f77b4"/>
     <use xlink:href="#me22455c954" x="360.150226" y="188.552507" style="fill: #1f77b4; stroke: #1f77b4"/>
     <use xlink:href="#me22455c954" x="357.574498" y="193.378537" style="fill: #1f77b4; stroke: #1f77b4"/>
     <use xlink:href="#me22455c954" x="356.93467" y="194.894213" style="fill: #1f77b4; stroke: #1f77b4"/>
     <use xlink:href="#me22455c954" x="354.277452" y="199.166296" style="fill: #1f77b4; stroke: #1f77b4"/>
     <use xlink:href="#me22455c954" x="352.956514" y="201.696165" style="fill: #1f77b4; stroke: #1f77b4"/>
     <use xlink:href="#me22455c954" x="352.4964" y="204.666045" style="fill: #1f77b4; stroke: #1f77b4"/>
     <use xlink:href="#me22455c954" x="352.954228" y="208.564998" style="fill: #1f77b4; stroke: #1f77b4"/>
     <use xlink:href="#me22455c954" x="349.918356" y="212.805331" style="fill: #1f77b4; stroke: #1f77b4"/>
     <use xlink:href="#me22455c954" x="346.394228" y="214.337538" style="fill: #1f77b4; stroke: #1f77b4"/>
     <use xlink:href="#me22455c954" x="344.324756" y="218.060366" style="fill: #1f77b4; stroke: #1f77b4"/>
     <use xlink:href="#me22455c954" x="343.153383" y="219.980631" style="fill: #1f77b4; stroke: #1f77b4"/>
     <use xlink:href="#me22455c954" x="342.333716" y="223.870274" style="fill: #1f77b4; stroke: #1f77b4"/>
     <use xlink:href="#me22455c954" x="337.510923" y="226.070321" style="fill: #1f77b4; stroke: #1f77b4"/>
     <use xlink:href="#me22455c954" x="336.417787" y="228.905906" style="fill: #1f77b4; stroke: #1f77b4"/>
     <use xlink:href="#me22455c954" x="333.848733" y="230.152391" style="fill: #1f77b4; stroke: #1f77b4"/>
     <use xlink:href="#me22455c954" x="330.412902" y="234.828823" style="fill: #1f77b4; stroke: #1f77b4"/>
     <use xlink:href="#me22455c954" x="328.598303" y="237.809699" style="fill: #1f77b4; stroke: #1f77b4"/>
     <use xlink:href="#me22455c954" x="327.382663" y="239.012865" style="fill: #1f77b4; stroke: #1f77b4"/>
     <use xlink:href="#me22455c954" x="324.735453" y="240.965379" style="fill: #1f77b4; stroke: #1f77b4"/>
     <use xlink:href="#me22455c954" x="321.65033" y="243.94973" style="fill: #1f77b4; stroke: #1f77b4"/>
     <use xlink:href="#me22455c954" x="320.306543" y="245.39274" style="fill: #1f77b4; stroke: #1f77b4"/>
     <use xlink:href="#me22455c954" x="316.814089" y="248.706808" style="fill: #1f77b4; stroke: #1f77b4"/>
     <use xlink:href="#me22455c954" x="315.154141" y="252.681101" style="fill: #1f77b4; stroke: #1f77b4"/>
     <use xlink:href="#me22455c954" x="311.725128" y="253.71481" style="fill: #1f77b4; stroke: #1f77b4"/>
     <use xlink:href="#me22455c954" x="308.763878" y="257.094959" style="fill: #1f77b4; stroke: #1f77b4"/>
     <use xlink:href="#me22455c954" x="308.696309" y="257.858123" style="fill: #1f77b4; stroke: #1f77b4"/>
     <use xlink:href="#me22455c954" x="307.012729" y="258.7865" style="fill: #1f77b4; stroke: #1f77b4"/>
     <use xlink:href="#me22455c954" x="302.724972" y="260.934822" style="fill: #1f77b4; stroke: #1f77b4"/>
     <use xlink:href="#me22455c954" x="297.149412" y="261.812369" style="fill: #1f77b4; stroke: #1f77b4"/>
     <use xlink:href="#me22455c954" x="297.431026" y="264.46383" style="fill: #1f77b4; stroke: #1f77b4"/>
     <use xlink:href="#me22455c954" x="294.270055" y="266.301712" style="fill: #1f77b4; stroke: #1f77b4"/>
     <use xlink:href="#me22455c954" x="292.694533" y="268.693499" style="fill: #1f77b4; stroke: #1f77b4"/>
     <use xlink:href="#me22455c954" x="287.34728" y="269.531972" style="fill: #1f77b4; stroke: #1f77b4"/>
     <use xlink:href="#me22455c954" x="285.084161" y="271.292164" style="fill: #1f77b4; stroke: #1f77b4"/>
     <use xlink:href="#me22455c954" x="283.154811" y="272.708157" style="fill: #1f77b4; stroke: #1f77b4"/>
     <use xlink:href="#me22455c954" x="279.518754" y="274.908672" style="fill: #1f77b4; stroke: #1f77b4"/>
     <use xlink:href="#me22455c954" x="276.036495" y="274.939996" style="fill: #1f77b4; stroke: #1f77b4"/>
     <use xlink:href="#me22455c954" x="272.73362" y="278.144269" style="fill: #1f77b4; stroke: #1f77b4"/>
     <use xlink:href="#me22455c954" x="269.577797" y="280.909748" style="fill: #1f77b4; stroke: #1f77b4"/>
     <use xlink:href="#me22455c954" x="266.956742" y="281.635294" style="fill: #1f77b4; stroke: #1f77b4"/>
     <use xlink:href="#me22455c954" x="265.575361" y="283.807523" style="fill: #1f77b4; stroke: #1f77b4"/>
     <use xlink:href="#me22455c954" x="259.860194" y="283.056208" style="fill: #1f77b4; stroke: #1f77b4"/>
     <use xlink:href="#me22455c954" x="254.951626" y="286.088798" style="fill: #1f77b4; stroke: #1f77b4"/>
     <use xlink:href="#me22455c954" x="252.622493" y="287.108691" style="fill: #1f77b4; stroke: #1f77b4"/>
     <use xlink:href="#me22455c954" x="248.869153" y="289.712682" style="fill: #1f77b4; stroke: #1f77b4"/>
     <use xlink:href="#me22455c954" x="244.328427" y="290.77451" style="fill: #1f77b4; stroke: #1f77b4"/>
     <use xlink:href="#me22455c954" x="240.422" y="290.241536" style="fill: #1f77b4; stroke: #1f77b4"/>
     <use xlink:href="#me22455c954" x="235.762313" y="291.017809" style="fill: #1f77b4; stroke: #1f77b4"/>
     <use xlink:href="#me22455c954" x="230.049432" y="292.474114" style="fill: #1f77b4; stroke: #1f77b4"/>
     <use xlink:href="#me22455c954" x="222.03665" y="293.858898" style="fill: #1f77b4; stroke: #1f77b4"/>
     <use xlink:href="#me22455c954" x="215.768799" y="295.776" style="fill: #1f77b4; stroke: #1f77b4"/>
     <use xlink:href="#me22455c954" x="209.160362" y="295.233486" style="fill: #1f77b4; stroke: #1f77b4"/>
     <use xlink:href="#me22455c954" x="198.240257" y="295.23048" style="fill: #1f77b4; stroke: #1f77b4"/>
     <use xlink:href="#me22455c954" x="185.517137" y="293.900656" style="fill: #1f77b4; stroke: #1f77b4"/>
     <use xlink:href="#me22455c954" x="171.610051" y="288.073375" style="fill: #1f77b4; stroke: #1f77b4"/>
     <use xlink:href="#me22455c954" x="157.738922" y="265.757471" style="fill: #1f77b4; stroke: #1f77b4"/>
     <use xlink:href="#me22455c954" x="149.187636" y="221.442793" style="fill: #1f77b4; stroke: #1f77b4"/>
     <use xlink:href="#me22455c954" x="188.719039" y="188.078644" style="fill: #1f77b4; stroke: #1f77b4"/>
     <use xlink:href="#me22455c954" x="231.24664" y="202.81003" style="fill: #1f77b4; stroke: #1f77b4"/>
     <use xlink:href="#me22455c954" x="241.777928" y="228.78704" style="fill: #1f77b4; stroke: #1f77b4"/>
     <use xlink:href="#me22455c954" x="237.699561" y="244.051025" style="fill: #1f77b4; stroke: #1f77b4"/>
     <use xlink:href="#me22455c954" x="233.39612" y="254.934402" style="fill: #1f77b4; stroke: #1f77b4"/>
     <use xlink:href="#me22455c954" x="229.424812" y="263.120263" style="fill: #1f77b4; stroke: #1f77b4"/>
     <use xlink:href="#me22455c954" x="221.00541" y="266.266196" style="fill: #1f77b4; stroke: #1f77b4"/>
     <use xlink:href="#me22455c954" x="216.964627" y="269.670989" style="fill: #1f77b4; stroke: #1f77b4"/>
     <use xlink:href="#me22455c954" x="212.84949" y="271.395633" style="fill: #1f77b4; stroke: #1f77b4"/>
     <use xlink:href="#me22455c954" x="207.825688" y="272.795938" style="fill: #1f77b4; stroke: #1f77b4"/>
     <use xlink:href="#me22455c954" x="203.47658" y="273.557386" style="fill: #1f77b4; stroke: #1f77b4"/>
     <use xlink:href="#me22455c954" x="200.905435" y="275.15378" style="fill: #1f77b4; stroke: #1f77b4"/>
     <use xlink:href="#me22455c954" x="196.461337" y="274.189544" style="fill: #1f77b4; stroke: #1f77b4"/>
     <use xlink:href="#me22455c954" x="191.571582" y="274.529779" style="fill: #1f77b4; stroke: #1f77b4"/>
     <use xlink:href="#me22455c954" x="187.379567" y="274.112509" style="fill: #1f77b4; stroke: #1f77b4"/>
     <use xlink:href="#me22455c954" x="185.342201" y="276.385107" style="fill: #1f77b4; stroke: #1f77b4"/>
     <use xlink:href="#me22455c954" x="183.377037" y="275.125723" style="fill: #1f77b4; stroke: #1f77b4"/>
     <use xlink:href="#me22455c954" x="178.390583" y="276.9952" style="fill: #1f77b4; stroke: #1f77b4"/>
     <use xlink:href="#me22455c954" x="177.462869" y="275.344616" style="fill: #1f77b4; stroke: #1f77b4"/>
     <use xlink:href="#me22455c954" x="169.85501" y="274.098537" style="fill: #1f77b4; stroke: #1f77b4"/>
     <use xlink:href="#me22455c954" x="167.058081" y="273.068886" style="fill: #1f77b4; stroke: #1f77b4"/>
     <use xlink:href="#me22455c954" x="164.368448" y="271.619852" style="fill: #1f77b4; stroke: #1f77b4"/>
     <use xlink:href="#me22455c954" x="162.2721" y="274.024685" style="fill: #1f77b4; stroke: #1f77b4"/>
     <use xlink:href="#me22455c954" x="158.317998" y="271.818729" style="fill: #1f77b4; stroke: #1f77b4"/>
     <use xlink:href="#me22455c954" x="156.001407" y="269.234505" style="fill: #1f77b4; stroke: #1f77b4"/>
     <use xlink:href="#me22455c954" x="151.460753" y="268.627117" style="fill: #1f77b4; stroke: #1f77b4"/>
     <use xlink:href="#me22455c954" x="150.978408" y="267.218406" style="fill: #1f77b4; stroke: #1f77b4"/>
     <use xlink:href="#me22455c954" x="146.928924" y="268.019219" style="fill: #1f77b4; stroke: #1f77b4"/>
     <use xlink:href="#me22455c954" x="142.802727" y="265.218817" style="fill: #1f77b4; stroke: #1f77b4"/>
     <use xlink:href="#me22455c954" x="140.496701" y="261.792541" style="fill: #1f77b4; stroke: #1f77b4"/>
     <use xlink:href="#me22455c954" x="138.466893" y="261.762455" style="fill: #1f77b4; stroke: #1f77b4"/>
     <use xlink:href="#me22455c954" x="135.975509" y="260.711623" style="fill: #1f77b4; stroke: #1f77b4"/>
     <use xlink:href="#me22455c954" x="133.147256" y="259.216784" style="fill: #1f77b4; stroke: #1f77b4"/>
     <use xlink:href="#me22455c954" x="132.005065" y="258.86367" style="fill: #1f77b4; stroke: #1f77b4"/>
     <use xlink:href="#me22455c954" x="126.053148" y="257.399105" style="fill: #1f77b4; stroke: #1f77b4"/>
     <use xlink:href="#me22455c954" x="124.979134" y="254.324413" style="fill: #1f77b4; stroke: #1f77b4"/>
     <use xlink:href="#me22455c954" x="121.706017" y="252.089349" style="fill: #1f77b4; stroke: #1f77b4"/>
     <use xlink:href="#me22455c954" x="116.779317" y="251.037425" style="fill: #1f77b4; stroke: #1f77b4"/>
     <use xlink:href="#me22455c954" x="116.572253" y="249.813495" style="fill: #1f77b4; stroke: #1f77b4"/>
     <use xlink:href="#me22455c954" x="113.375304" y="248.049839" style="fill: #1f77b4; stroke: #1f77b4"/>
     <use xlink:href="#me22455c954" x="110.335777" y="246.7222" style="fill: #1f77b4; stroke: #1f77b4"/>
     <use xlink:href="#me22455c954" x="107.627547" y="243.872643" style="fill: #1f77b4; stroke: #1f77b4"/>
     <use xlink:href="#me22455c954" x="108.512445" y="241.951421" style="fill: #1f77b4; stroke: #1f77b4"/>
     <use xlink:href="#me22455c954" x="103.997318" y="239.261167" style="fill: #1f77b4; stroke: #1f77b4"/>
     <use xlink:href="#me22455c954" x="100.457323" y="237.298208" style="fill: #1f77b4; stroke: #1f77b4"/>
     <use xlink:href="#me22455c954" x="98.694569" y="235.489423" style="fill: #1f77b4; stroke: #1f77b4"/>
     <use xlink:href="#me22455c954" x="96.228382" y="231.569049" style="fill: #1f77b4; stroke: #1f77b4"/>
     <use xlink:href="#me22455c954" x="97.652517" y="230.493187" style="fill: #1f77b4; stroke: #1f77b4"/>
     <use xlink:href="#me22455c954" x="91.756441" y="229.047431" style="fill: #1f77b4; stroke: #1f77b4"/>
     <use xlink:href="#me22455c954" x="91.679686" y="226.299877" style="fill: #1f77b4; stroke: #1f77b4"/>
     <use xlink:href="#me22455c954" x="88.351841" y="223.920927" style="fill: #1f77b4; stroke: #1f77b4"/>
     <use xlink:href="#me22455c954" x="85.650273" y="221.824807" style="fill: #1f77b4; stroke: #1f77b4"/>
     <use xlink:href="#me22455c954" x="84.012433" y="218.786495" style="fill: #1f77b4; stroke: #1f77b4"/>
     <use xlink:href="#me22455c954" x="83.854332" y="218.629876" style="fill: #1f77b4; stroke: #1f77b4"/>
     <use xlink:href="#me22455c954" x="82.264888" y="212.627864" style="fill: #1f77b4; stroke: #1f77b4"/>
     <use xlink:href="#me22455c954" x="79.749492" y="211.878827" style="fill: #1f77b4; stroke: #1f77b4"/>
     <use xlink:href="#me22455c954" x="78.587376" y="211.957048" style="fill: #1f77b4; stroke: #1f77b4"/>
     <use xlink:href="#me22455c954" x="76.635547" y="208.366849" style="fill: #1f77b4; stroke: #1f77b4"/>
     <use xlink:href="#me22455c954" x="74.487539" y="203.46265" style="fill: #1f77b4; stroke: #1f77b4"/>
     <use xlink:href="#me22455c954" x="72.198472" y="202.010017" style="fill: #1f77b4; stroke: #1f77b4"/>
     <use xlink:href="#me22455c954" x="72.013794" y="199.266801" style="fill: #1f77b4; stroke: #1f77b4"/>
     <use xlink:href="#me22455c954" x="69.166647" y="196.41456" style="fill: #1f77b4; stroke: #1f77b4"/>
     <use xlink:href="#me22455c954" x="69.899828" y="194.231304" style="fill: #1f77b4; stroke: #1f77b4"/>
     <use xlink:href="#me22455c954" x="68.44473" y="192.034503" style="fill: #1f77b4; stroke: #1f77b4"/>
     <use xlink:href="#me22455c954" x="67.152171" y="187.097221" style="fill: #1f77b4; stroke: #1f77b4"/>
     <use xlink:href="#me22455c954" x="66.282625" y="186.282218" style="fill: #1f77b4; stroke: #1f77b4"/>
     <use xlink:href="#me22455c954" x="64.037125" y="183.03293" style="fill: #1f77b4; stroke: #1f77b4"/>
     <use xlink:href="#me22455c954" x="62.548489" y="179.00788" style="fill: #1f77b4; stroke: #1f77b4"/>
     <use xlink:href="#me22455c954" x="62.400386" y="176.934169" style="fill: #1f77b4; stroke: #1f77b4"/>
     <use xlink:href="#me22455c954" x="62.035932" y="174.071598" style="fill: #1f77b4; stroke: #1f77b4"/>
     <use xlink:href="#me22455c954" x="58.287586" y="170.828438" style="fill: #1f77b4; stroke: #1f77b4"/>
     <use xlink:href="#me22455c954" x="60.236243" y="168.171692" style="fill: #1f77b4; stroke: #1f77b4"/>
     <use xlink:href="#me22455c954" x="59.362033" y="164.873593" style="fill: #1f77b4; stroke: #1f77b4"/>
     <use xlink:href="#me22455c954" x="57.657674" y="165.210364" style="fill: #1f77b4; stroke: #1f77b4"/>
     <use xlink:href="#me22455c954" x="56.726861" y="162.45275" style="fill: #1f77b4; stroke: #1f77b4"/>
     <use xlink:href="#me22455c954" x="57.545683" y="155.993696" style="fill: #1f77b4; stroke: #1f77b4"/>
     <use xlink:href="#me22455c954" x="57.173341" y="154.784268" style="fill: #1f77b4; stroke: #1f77b4"/>
     <use xlink:href="#me22455c954" x="55.001784" y="151.005804" style="fill: #1f77b4; stroke: #1f77b4"/>
     <use xlink:href="#me22455c954" x="55.976174" y="148.136512" style="fill: #1f77b4; stroke: #1f77b4"/>
     <use xlink:href="#me22455c954" x="57.395562" y="146.240258" style="fill: #1f77b4; stroke: #1f77b4"/>
     <use xlink:href="#me22455c954" x="55.286817" y="142.382168" style="fill: #1f77b4; stroke: #1f77b4"/>
     <use xlink:href="#me22455c954" x="56.180426" y="140.3114" style="fill: #1f77b4; stroke: #1f77b4"/>
     <use xlink:href="#me22455c954" x="54.524278" y="135.239159" style="fill: #1f77b4; stroke: #1f77b4"/>
     <use xlink:href="#me22455c954" x="54.331249" y="133.167206" style="fill: #1f77b4; stroke: #1f77b4"/>
     <use xlink:href="#me22455c954" x="54.348198" y="129.416695" style="fill: #1f77b4; stroke: #1f77b4"/>
     <use xlink:href="#me22455c954" x="55.668755" y="126.568085" style="fill: #1f77b4; stroke: #1f77b4"/>
     <use xlink:href="#me22455c954" x="55.543234" y="123.900999" style="fill: #1f77b4; stroke: #1f77b4"/>
     <use xlink:href="#me22455c954" x="54.081165" y="119.585961" style="fill: #1f77b4; stroke: #1f77b4"/>
     <use xlink:href="#me22455c954" x="54.803061" y="118.582702" style="fill: #1f77b4; stroke: #1f77b4"/>
     <use xlink:href="#me22455c954" x="54.638936" y="113.333264" style="fill: #1f77b4; stroke: #1f77b4"/>
     <use xlink:href="#me22455c954" x="54.711407" y="113.299693" style="fill: #1f77b4; stroke: #1f77b4"/>
     <use xlink:href="#me22455c954" x="55.312199" y="109.906052" style="fill: #1f77b4; stroke: #1f77b4"/>
     <use xlink:href="#me22455c954" x="54.805347" y="106.927225" style="fill: #1f77b4; stroke: #1f77b4"/>
     <use xlink:href="#me22455c954" x="54.631687" y="103.207174" style="fill: #1f77b4; stroke: #1f77b4"/>
     <use xlink:href="#me22455c954" x="56.201577" y="100.712521" style="fill: #1f77b4; stroke: #1f77b4"/>
     <use xlink:href="#me22455c954" x="55.323217" y="96.893702" style="fill: #1f77b4; stroke: #1f77b4"/>
     <use xlink:href="#me22455c954" x="57.373104" y="95.682953" style="fill: #1f77b4; stroke: #1f77b4"/>
     <use xlink:href="#me22455c954" x="57.038172" y="92.316942" style="fill: #1f77b4; stroke: #1f77b4"/>
     <use xlink:href="#me22455c954" x="58.540101" y="89.583141" style="fill: #1f77b4; stroke: #1f77b4"/>
     <use xlink:href="#me22455c954" x="57.721382" y="86.610431" style="fill: #1f77b4; stroke: #1f77b4"/>
     <use xlink:href="#me22455c954" x="58.946917" y="84.077068" style="fill: #1f77b4; stroke: #1f77b4"/>
    </g>
   </g>
   <g id="line2d_17">
    <path d="M 365.220172 59.29596 
L 367.618987 65.105026 
L 369.791937 71.007338 
L 371.735499 76.99407 
L 373.446486 83.056276 
L 374.922047 89.184898 
L 376.159677 95.370784 
L 377.15721 101.6047 
L 377.91283 107.877349 
L 378.425063 114.179383 
L 378.692783 120.501417 
L 378.71521 126.83405 
L 378.491903 133.167873 
L 378.022763 139.493493 
L 377.308026 145.801544 
L 376.348258 152.082704 
L 375.275693 157.705103 
L 374.006233 163.291523 
L 372.540944 168.835331 
L 370.881085 174.329965 
L 369.028099 179.768947 
L 366.983604 185.145894 
L 364.749379 190.454528 
L 362.327353 195.68869 
L 359.719588 200.842354 
L 356.928257 205.909636 
L 353.955624 210.884812 
L 350.804013 215.762335 
L 347.475775 220.536847 
L 343.973245 225.203204 
L 340.29869 229.756495 
L 336.454244 234.192065 
L 332.441826 238.505548 
L 328.263029 242.692896 
L 323.918987 246.750419 
L 319.41019 250.674838 
L 314.73624 254.463334 
L 309.895515 258.113624 
L 304.884708 261.624043 
L 299.698171 264.993645 
L 294.326964 268.222325 
L 288.757442 271.310945 
L 282.969102 274.261458 
L 276.931186 277.07695 
L 270.597131 279.761437 
L 264.661015 282.040983 
L 258.357325 284.221469 
L 252.447196 286.04485 
L 246.040033 287.776478 
L 240.006931 289.161933 
L 234.455667 290.208995 
L 229.555941 290.933666 
L 224.11901 291.495105 
L 219.589245 291.747547 
L 214.568425 291.77475 
L 210.889816 291.610934 
L 206.896692 291.242215 
L 202.540394 290.594781 
L 197.768552 289.564618 
L 195.21059 288.862126 
L 192.530308 288.00441 
L 189.723538 286.96331 
L 186.788361 285.705393 
L 183.726359 284.191118 
L 180.544359 282.374023 
L 177.256832 280.200057 
L 173.889113 277.607268 
L 170.481618 274.526232 
L 167.095147 270.881774 
L 163.817198 266.596815 
L 160.768788 261.599442 
L 158.110583 255.834451 
L 156.046055 249.280421 
L 154.818022 241.972357 
L 154.693846 234.027629 
L 155.934883 225.669193 
L 158.749229 217.235689 
L 163.234245 209.165957 
L 169.325165 201.949735 
L 176.772146 196.048974 
L 185.162917 191.810927 
L 193.99022 189.403702 
L 202.742107 188.797877 
L 210.983476 189.796969 
L 218.405118 192.098989 
L 224.83449 195.363691 
L 230.217586 199.266074 
L 234.586955 203.528459 
L 238.028501 207.932948 
L 240.654166 212.320397 
L 242.582709 216.582284 
L 243.927905 220.650135 
L 244.792363 224.485263 
L 245.265102 228.070054 
L 245.421375 231.401143 
L 245.323676 234.484334 
L 245.023281 237.330989 
L 244.561912 239.955524 
L 243.973324 242.373737 
L 243.284727 244.60172 
L 242.518 246.655184 
L 240.816945 250.297285 
L 238.972918 253.407091 
L 237.051861 256.074434 
L 235.09595 258.373104 
L 233.131989 260.363159 
L 231.176798 262.093342 
L 228.281833 264.285955 
L 225.44732 266.085604 
L 222.679983 267.569883 
L 219.98043 268.7972 
L 216.481987 270.109366 
L 213.090184 271.121469 
L 209.794521 271.890452 
L 205.794805 272.572753 
L 201.911976 273.000012 
L 198.131207 273.215235 
L 193.711959 273.237489 
L 189.405296 273.03948 
L 184.505789 272.56845 
L 179.725885 271.870677 
L 175.053844 270.970842 
L 169.835483 269.718625 
L 164.737607 268.247638 
L 159.753964 266.57404 
L 154.880485 264.71062 
L 150.114734 262.667802 
L 144.88057 260.166022 
L 139.780928 257.458845 
L 134.816593 254.555531 
L 129.989171 251.464372 
L 125.300869 248.192983 
L 120.754335 244.748495 
L 116.352529 241.137713 
L 112.098631 237.367214 
L 107.995958 233.443432 
L 104.047907 229.372714 
L 100.257905 225.161366 
L 96.629365 220.815685 
L 93.165656 216.34198 
L 89.870075 211.746597 
L 86.745819 207.035923 
L 83.795973 202.2164 
L 81.023485 197.294529 
L 78.431156 192.276873 
L 76.021627 187.17006 
L 73.797364 181.980778 
L 71.760654 176.715778 
L 69.913592 171.381867 
L 68.258077 165.985907 
L 66.795803 160.53481 
L 65.528252 155.035531 
L 64.456695 149.495065 
L 63.497215 143.299232 
L 62.782112 137.070899 
L 62.312159 130.819769 
L 62.087781 124.555559 
L 62.109052 118.287989 
L 62.375689 112.02677 
L 62.887056 105.781587 
L 63.642159 99.562092 
L 64.639647 93.377885 
L 65.877813 87.238502 
L 67.354597 81.153404 
L 69.067584 75.13196 
L 70.011804 72.148009 
L 70.011804 72.148009 
" clip-path="url(#pd3fdb127db)" style="fill: none; stroke: #d62728; stroke-width: 1.5; stroke-linecap: square"/>
   </g>
   <g id="patch_3">
    <path d="M 37.848438 307.872 
L 37.848438 41.76 
" style="fill: none; stroke: #000000; stroke-width: 0.8; stroke-linejoin: miter; stroke-linecap: square"/>
   </g>
   <g id="patch_4">
    <path d="M 394.968438 307.872 
L 394.968438 41.76 
" style="fill: none; stroke: #000000; stroke-width: 0.8; stroke-linejoin: miter; stroke-linecap: square"/>
   </g>
   <g id="patch_5">
    <path d="M 37.848437 307.872 
L 394.968437 307.872 
" style="fill: none; stroke: #000000; stroke-width: 0.8; stroke-linejoin: miter; stroke-linecap: square"/>
   </g>
   <g id="patch_6">
    <path d="M 37.848437 41.76 
L 394.968437 41.76 
" style="fill: none; stroke: #000000; stroke-width: 0.8; stroke-linejoin: miter; stroke-linecap: square"/>
   </g>
   <g id="text_18">
    <g id="patch_7">
     <path d="M 412.824438 102.337163 
L 551.224438 102.337163 
Q 555.224438 102.337163 555.224438 98.337163 
L 555.224438 55.0656 
Q 555.224438 51.0656 551.224438 51.0656 
L 412.824438 51.0656 
Q 408.824438 51.0656 408.824438 55.0656 
L 408.824438 98.337163 
Q 408.824438 102.337163 412.824438 102.337163 
z
" style="fill: #ffffff; opacity: 0.5; stroke: #000000; stroke-linejoin: miter"/>
    </g>
    <!-- Summary -->
    <g transform="translate(412.824438 62.664038) scale(0.1 -0.1)">
     <defs>
      <path id="DejaVuSans-53" d="M 3425 4513 
L 3425 3897 
Q 3066 4069 2747 4153 
Q 2428 4238 2131 4238 
Q 1616 4238 1336 4038 
Q 1056 3838 1056 3469 
Q 1056 3159 1242 3001 
Q 1428 2844 1947 2747 
L 2328 2669 
Q 3034 2534 3370 2195 
Q 3706 1856 3706 1288 
Q 3706 609 3251 259 
Q 2797 -91 1919 -91 
Q 1588 -91 1214 -16 
Q 841 59 441 206 
L 441 856 
Q 825 641 1194 531 
Q 1563 422 1919 422 
Q 2459 422 2753 634 
Q 3047 847 3047 1241 
Q 3047 1584 2836 1778 
Q 2625 1972 2144 2069 
L 1759 2144 
Q 1053 2284 737 2584 
Q 422 2884 422 3419 
Q 422 4038 858 4394 
Q 1294 4750 2059 4750 
Q 2388 4750 2728 4690 
Q 3069 4631 3425 4513 
z
" transform="scale(0.015625)"/>
      <path id="DejaVuSans-75" d="M 544 1381 
L 544 3500 
L 1119 3500 
L 1119 1403 
Q 1119 906 1312 657 
Q 1506 409 1894 409 
Q 2359 409 2629 706 
Q 2900 1003 2900 1516 
L 2900 3500 
L 3475 3500 
L 3475 0 
L 2900 0 
L 2900 538 
Q 2691 219 2414 64 
Q 2138 -91 1772 -91 
Q 1169 -91 856 284 
Q 544 659 544 1381 
z
M 1991 3584 
L 1991 3584 
z
" transform="scale(0.015625)"/>
      <path id="DejaVuSans-61" d="M 2194 1759 
Q 1497 1759 1228 1600 
Q 959 1441 959 1056 
Q 959 750 1161 570 
Q 1363 391 1709 391 
Q 2188 391 2477 730 
Q 2766 1069 2766 1631 
L 2766 1759 
L 2194 1759 
z
M 3341 1997 
L 3341 0 
L 2766 0 
L 2766 531 
Q 2569 213 2275 61 
Q 1981 -91 1556 -91 
Q 1019 -91 701 211 
Q 384 513 384 1019 
Q 384 1609 779 1909 
Q 1175 2209 1959 2209 
L 2766 2209 
L 2766 2266 
Q 2766 2663 2505 2880 
Q 2244 3097 1772 3097 
Q 1472 3097 1187 3025 
Q 903 2953 641 2809 
L 641 3341 
Q 956 3463 1253 3523 
Q 1550 3584 1831 3584 
Q 2591 3584 2966 3190 
Q 3341 2797 3341 1997 
z
" transform="scale(0.015625)"/>
      <path id="DejaVuSans-72" d="M 2631 2963 
Q 2534 3019 2420 3045 
Q 2306 3072 2169 3072 
Q 1681 3072 1420 2755 
Q 1159 2438 1159 1844 
L 1159 0 
L 581 0 
L 581 3500 
L 1159 3500 
L 1159 2956 
Q 1341 3275 1631 3429 
Q 1922 3584 2338 3584 
Q 2397 3584 2469 3576 
Q 2541 3569 2628 3553 
L 2631 2963 
z
" transform="scale(0.015625)"/>
      <path id="DejaVuSans-79" d="M 2059 -325 
Q 1816 -950 1584 -1140 
Q 1353 -1331 966 -1331 
L 506 -1331 
L 506 -850 
L 844 -850 
Q 1081 -850 1212 -737 
Q 1344 -625 1503 -206 
L 1606 56 
L 191 3500 
L 800 3500 
L 1894 763 
L 2988 3500 
L 3597 3500 
L 2059 -325 
z
" transform="scale(0.015625)"/>
     </defs>
     <use xlink:href="#DejaVuSans-53"/>
     <use xlink:href="#DejaVuSans-75" x="63.476562"/>
     <use xlink:href="#DejaVuSans-6d" x="126.855469"/>
     <use xlink:href="#DejaVuSans-6d" x="224.267578"/>
     <use xlink:href="#DejaVuSans-61" x="321.679688"/>
     <use xlink:href="#DejaVuSans-72" x="382.958984"/>
     <use xlink:href="#DejaVuSans-79" x="424.072266"/>
    </g>
    <!-- $Q_I$: 12.3$\pm$1.6 k -->
    <g transform="translate(412.824438 73.86185) scale(0.1 -0.1)">
     <defs>
      <path id="DejaVuSans-Oblique-51" d="M 2309 -84 
Q 2275 -88 2237 -89 
Q 2200 -91 2125 -91 
Q 1250 -91 756 411 
Q 263 913 263 1797 
Q 263 2319 452 2844 
Q 641 3369 978 3788 
Q 1369 4269 1858 4509 
Q 2347 4750 2938 4750 
Q 3794 4750 4287 4245 
Q 4781 3741 4781 2869 
Q 4781 1928 4265 1147 
Q 3750 366 2919 44 
L 3553 -825 
L 2847 -825 
L 2309 -84 
z
M 2919 4238 
Q 2400 4238 2003 3986 
Q 1606 3734 1313 3219 
Q 1125 2891 1026 2522 
Q 928 2153 928 1778 
Q 928 1128 1239 775 
Q 1550 422 2119 422 
Q 2631 422 3032 676 
Q 3434 931 3719 1434 
Q 3909 1772 4009 2142 
Q 4109 2513 4109 2881 
Q 4109 3528 3796 3883 
Q 3484 4238 2919 4238 
z
" transform="scale(0.015625)"/>
      <path id="DejaVuSans-Oblique-49" d="M 1081 4666 
L 1716 4666 
L 806 0 
L 172 0 
L 1081 4666 
z
" transform="scale(0.015625)"/>
      <path id="DejaVuSans-3a" d="M 750 794 
L 1409 794 
L 1409 0 
L 750 0 
L 750 794 
z
M 750 3309 
L 1409 3309 
L 1409 2516 
L 750 2516 
L 750 3309 
z
" transform="scale(0.015625)"/>
      <path id="DejaVuSans-2e" d="M 684 794 
L 1344 794 
L 1344 0 
L 684 0 
L 684 794 
z
" transform="scale(0.015625)"/>
      <path id="DejaVuSans-b1" d="M 2944 4013 
L 2944 2803 
L 4684 2803 
L 4684 2272 
L 2944 2272 
L 2944 1063 
L 2419 1063 
L 2419 2272 
L 678 2272 
L 678 2803 
L 2419 2803 
L 2419 4013 
L 2944 4013 
z
M 678 531 
L 4684 531 
L 4684 0 
L 678 0 
L 678 531 
z
" transform="scale(0.015625)"/>
      <path id="DejaVuSans-36" d="M 2113 2584 
Q 1688 2584 1439 2293 
Q 1191 2003 1191 1497 
Q 1191 994 1439 701 
Q 1688 409 2113 409 
Q 2538 409 2786 701 
Q 3034 994 3034 1497 
Q 3034 2003 2786 2293 
Q 2538 2584 2113 2584 
z
M 3366 4563 
L 3366 3988 
Q 3128 4100 2886 4159 
Q 2644 4219 2406 4219 
Q 1781 4219 1451 3797 
Q 1122 3375 1075 2522 
Q 1259 2794 1537 2939 
Q 1816 3084 2150 3084 
Q 2853 3084 3261 2657 
Q 3669 2231 3669 1497 
Q 3669 778 3244 343 
Q 2819 -91 2113 -91 
Q 1303 -91 875 529 
Q 447 1150 447 2328 
Q 447 3434 972 4092 
Q 1497 4750 2381 4750 
Q 2619 4750 2861 4703 
Q 3103 4656 3366 4563 
z
" transform="scale(0.015625)"/>
      <path id="DejaVuSans-6b" d="M 581 4863 
L 1159 4863 
L 1159 1991 
L 2875 3500 
L 3609 3500 
L 1753 1863 
L 3688 0 
L 2938 0 
L 1159 1709 
L 1159 0 
L 581 0 
L 581 4863 
z
" transform="scale(0.015625)"/>
     </defs>
     <use xlink:href="#DejaVuSans-Oblique-51" transform="translate(0 0.015625)"/>
     <use xlink:href="#DejaVuSans-Oblique-49" transform="translate(78.710938 -16.390625) scale(0.7)"/>
     <use xlink:href="#DejaVuSans-3a" transform="translate(102.089844 0.015625)"/>
     <use xlink:href="#DejaVuSans-20" transform="translate(135.78125 0.015625)"/>
     <use xlink:href="#DejaVuSans-31" transform="translate(167.568359 0.015625)"/>
     <use xlink:href="#DejaVuSans-32" transform="translate(231.191406 0.015625)"/>
     <use xlink:href="#DejaVuSans-2e" transform="translate(294.814453 0.015625)"/>
     <use xlink:href="#DejaVuSans-33" transform="translate(326.601562 0.015625)"/>
     <use xlink:href="#DejaVuSans-b1" transform="translate(390.224609 0.015625)"/>
     <use xlink:href="#DejaVuSans-31" transform="translate(474.013672 0.015625)"/>
     <use xlink:href="#DejaVuSans-2e" transform="translate(537.636719 0.015625)"/>
     <use xlink:href="#DejaVuSans-36" transform="translate(569.423828 0.015625)"/>
     <use xlink:href="#DejaVuSans-20" transform="translate(633.046875 0.015625)"/>
     <use xlink:href="#DejaVuSans-6b" transform="translate(664.833984 0.015625)"/>
    </g>
    <!-- $Q_C$: 9.82$\pm$0.59 k -->
    <g transform="translate(412.824438 85.059663) scale(0.1 -0.1)">
     <defs>
      <path id="DejaVuSans-Oblique-43" d="M 4447 4306 
L 4319 3641 
Q 4019 3944 3683 4091 
Q 3347 4238 2956 4238 
Q 2422 4238 2017 3981 
Q 1613 3725 1319 3200 
Q 1131 2863 1032 2486 
Q 934 2109 934 1728 
Q 934 1091 1264 756 
Q 1594 422 2222 422 
Q 2656 422 3056 561 
Q 3456 700 3834 978 
L 3688 231 
Q 3316 72 2936 -9 
Q 2556 -91 2175 -91 
Q 1278 -91 773 396 
Q 269 884 269 1753 
Q 269 2309 461 2846 
Q 653 3384 1013 3828 
Q 1394 4300 1883 4525 
Q 2372 4750 3022 4750 
Q 3422 4750 3780 4639 
Q 4138 4528 4447 4306 
z
" transform="scale(0.015625)"/>
      <path id="DejaVuSans-39" d="M 703 97 
L 703 672 
Q 941 559 1184 500 
Q 1428 441 1663 441 
Q 2288 441 2617 861 
Q 2947 1281 2994 2138 
Q 2813 1869 2534 1725 
Q 2256 1581 1919 1581 
Q 1219 1581 811 2004 
Q 403 2428 403 3163 
Q 403 3881 828 4315 
Q 1253 4750 1959 4750 
Q 2769 4750 3195 4129 
Q 3622 3509 3622 2328 
Q 3622 1225 3098 567 
Q 2575 -91 1691 -91 
Q 1453 -91 1209 -44 
Q 966 3 703 97 
z
M 1959 2075 
Q 2384 2075 2632 2365 
Q 2881 2656 2881 3163 
Q 2881 3666 2632 3958 
Q 2384 4250 1959 4250 
Q 1534 4250 1286 3958 
Q 1038 3666 1038 3163 
Q 1038 2656 1286 2365 
Q 1534 2075 1959 2075 
z
" transform="scale(0.015625)"/>
      <path id="DejaVuSans-38" d="M 2034 2216 
Q 1584 2216 1326 1975 
Q 1069 1734 1069 1313 
Q 1069 891 1326 650 
Q 1584 409 2034 409 
Q 2484 409 2743 651 
Q 3003 894 3003 1313 
Q 3003 1734 2745 1975 
Q 2488 2216 2034 2216 
z
M 1403 2484 
Q 997 2584 770 2862 
Q 544 3141 544 3541 
Q 544 4100 942 4425 
Q 1341 4750 2034 4750 
Q 2731 4750 3128 4425 
Q 3525 4100 3525 3541 
Q 3525 3141 3298 2862 
Q 3072 2584 2669 2484 
Q 3125 2378 3379 2068 
Q 3634 1759 3634 1313 
Q 3634 634 3220 271 
Q 2806 -91 2034 -91 
Q 1263 -91 848 271 
Q 434 634 434 1313 
Q 434 1759 690 2068 
Q 947 2378 1403 2484 
z
M 1172 3481 
Q 1172 3119 1398 2916 
Q 1625 2713 2034 2713 
Q 2441 2713 2670 2916 
Q 2900 3119 2900 3481 
Q 2900 3844 2670 4047 
Q 2441 4250 2034 4250 
Q 1625 4250 1398 4047 
Q 1172 3844 1172 3481 
z
" transform="scale(0.015625)"/>
      <path id="DejaVuSans-35" d="M 691 4666 
L 3169 4666 
L 3169 4134 
L 1269 4134 
L 1269 2991 
Q 1406 3038 1543 3061 
Q 1681 3084 1819 3084 
Q 2600 3084 3056 2656 
Q 3513 2228 3513 1497 
Q 3513 744 3044 326 
Q 2575 -91 1722 -91 
Q 1428 -91 1123 -41 
Q 819 9 494 109 
L 494 744 
Q 775 591 1075 516 
Q 1375 441 1709 441 
Q 2250 441 2565 725 
Q 2881 1009 2881 1497 
Q 2881 1984 2565 2268 
Q 2250 2553 1709 2553 
Q 1456 2553 1204 2497 
Q 953 2441 691 2322 
L 691 4666 
z
" transform="scale(0.015625)"/>
     </defs>
     <use xlink:href="#DejaVuSans-Oblique-51" transform="translate(0 0.015625)"/>
     <use xlink:href="#DejaVuSans-Oblique-43" transform="translate(78.710938 -16.390625) scale(0.7)"/>
     <use xlink:href="#DejaVuSans-3a" transform="translate(130.322266 0.015625)"/>
     <use xlink:href="#DejaVuSans-20" transform="translate(164.013672 0.015625)"/>
     <use xlink:href="#DejaVuSans-39" transform="translate(195.800781 0.015625)"/>
     <use xlink:href="#DejaVuSans-2e" transform="translate(259.423828 0.015625)"/>
     <use xlink:href="#DejaVuSans-38" transform="translate(288.585938 0.015625)"/>
     <use xlink:href="#DejaVuSans-32" transform="translate(352.208984 0.015625)"/>
     <use xlink:href="#DejaVuSans-b1" transform="translate(415.832031 0.015625)"/>
     <use xlink:href="#DejaVuSans-30" transform="translate(499.621094 0.015625)"/>
     <use xlink:href="#DejaVuSans-2e" transform="translate(563.244141 0.015625)"/>
     <use xlink:href="#DejaVuSans-35" transform="translate(595.03125 0.015625)"/>
     <use xlink:href="#DejaVuSans-39" transform="translate(653.154297 0.015625)"/>
     <use xlink:href="#DejaVuSans-20" transform="translate(716.777344 0.015625)"/>
     <use xlink:href="#DejaVuSans-6b" transform="translate(748.564453 0.015625)"/>
    </g>
    <!-- $f_{res}$: 5.719767$\pm$3.8e-05 GHz -->
    <g transform="translate(412.824438 96.257475) scale(0.1 -0.1)">
     <defs>
      <path id="DejaVuSans-Oblique-66" d="M 3059 4863 
L 2969 4384 
L 2419 4384 
Q 2106 4384 1964 4261 
Q 1822 4138 1753 3809 
L 1691 3500 
L 2638 3500 
L 2553 3053 
L 1606 3053 
L 1013 0 
L 434 0 
L 1031 3053 
L 481 3053 
L 563 3500 
L 1113 3500 
L 1159 3744 
Q 1278 4363 1576 4613 
Q 1875 4863 2516 4863 
L 3059 4863 
z
" transform="scale(0.015625)"/>
      <path id="DejaVuSans-Oblique-72" d="M 2853 2969 
Q 2766 3016 2653 3041 
Q 2541 3066 2413 3066 
Q 1953 3066 1609 2717 
Q 1266 2369 1153 1784 
L 800 0 
L 225 0 
L 909 3500 
L 1484 3500 
L 1375 2956 
Q 1603 3259 1920 3421 
Q 2238 3584 2597 3584 
Q 2691 3584 2781 3573 
Q 2872 3563 2963 3538 
L 2853 2969 
z
" transform="scale(0.015625)"/>
      <path id="DejaVuSans-Oblique-65" d="M 3078 2063 
Q 3088 2113 3092 2166 
Q 3097 2219 3097 2272 
Q 3097 2653 2873 2875 
Q 2650 3097 2266 3097 
Q 1838 3097 1509 2826 
Q 1181 2556 1013 2059 
L 3078 2063 
z
M 3578 1613 
L 903 1613 
Q 884 1494 878 1425 
Q 872 1356 872 1306 
Q 872 872 1139 634 
Q 1406 397 1894 397 
Q 2269 397 2603 481 
Q 2938 566 3225 728 
L 3116 159 
Q 2806 34 2476 -28 
Q 2147 -91 1806 -91 
Q 1078 -91 686 257 
Q 294 606 294 1247 
Q 294 1794 489 2264 
Q 684 2734 1063 3103 
Q 1306 3334 1642 3459 
Q 1978 3584 2356 3584 
Q 2950 3584 3301 3228 
Q 3653 2872 3653 2272 
Q 3653 2128 3634 1964 
Q 3616 1800 3578 1613 
z
" transform="scale(0.015625)"/>
      <path id="DejaVuSans-Oblique-73" d="M 3200 3397 
L 3091 2853 
Q 2863 2978 2609 3040 
Q 2356 3103 2088 3103 
Q 1634 3103 1373 2948 
Q 1113 2794 1113 2528 
Q 1113 2219 1719 2053 
Q 1766 2041 1788 2034 
L 1972 1978 
Q 2547 1819 2739 1644 
Q 2931 1469 2931 1166 
Q 2931 609 2489 259 
Q 2047 -91 1331 -91 
Q 1053 -91 747 -37 
Q 441 16 72 128 
L 184 722 
Q 500 559 806 475 
Q 1113 391 1394 391 
Q 1816 391 2080 572 
Q 2344 753 2344 1031 
Q 2344 1331 1650 1516 
L 1591 1531 
L 1394 1581 
Q 956 1697 753 1886 
Q 550 2075 550 2369 
Q 550 2928 970 3256 
Q 1391 3584 2113 3584 
Q 2397 3584 2667 3537 
Q 2938 3491 3200 3397 
z
" transform="scale(0.015625)"/>
      <path id="DejaVuSans-37" d="M 525 4666 
L 3525 4666 
L 3525 4397 
L 1831 0 
L 1172 0 
L 2766 4134 
L 525 4134 
L 525 4666 
z
" transform="scale(0.015625)"/>
      <path id="DejaVuSans-47" d="M 3809 666 
L 3809 1919 
L 2778 1919 
L 2778 2438 
L 4434 2438 
L 4434 434 
Q 4069 175 3628 42 
Q 3188 -91 2688 -91 
Q 1594 -91 976 548 
Q 359 1188 359 2328 
Q 359 3472 976 4111 
Q 1594 4750 2688 4750 
Q 3144 4750 3555 4637 
Q 3966 4525 4313 4306 
L 4313 3634 
Q 3963 3931 3569 4081 
Q 3175 4231 2741 4231 
Q 1884 4231 1454 3753 
Q 1025 3275 1025 2328 
Q 1025 1384 1454 906 
Q 1884 428 2741 428 
Q 3075 428 3337 486 
Q 3600 544 3809 666 
z
" transform="scale(0.015625)"/>
      <path id="DejaVuSans-48" d="M 628 4666 
L 1259 4666 
L 1259 2753 
L 3553 2753 
L 3553 4666 
L 4184 4666 
L 4184 0 
L 3553 0 
L 3553 2222 
L 1259 2222 
L 1259 0 
L 628 0 
L 628 4666 
z
" transform="scale(0.015625)"/>
      <path id="DejaVuSans-7a" d="M 353 3500 
L 3084 3500 
L 3084 2975 
L 922 459 
L 3084 459 
L 3084 0 
L 275 0 
L 275 525 
L 2438 3041 
L 353 3041 
L 353 3500 
z
" transform="scale(0.015625)"/>
     </defs>
     <use xlink:href="#DejaVuSans-Oblique-66" transform="translate(0 0.015625)"/>
     <use xlink:href="#DejaVuSans-Oblique-72" transform="translate(35.205078 -16.390625) scale(0.7)"/>
     <use xlink:href="#DejaVuSans-Oblique-65" transform="translate(63.984375 -16.390625) scale(0.7)"/>
     <use xlink:href="#DejaVuSans-Oblique-73" transform="translate(107.050781 -16.390625) scale(0.7)"/>
     <use xlink:href="#DejaVuSans-3a" transform="translate(146.254883 0.015625)"/>
     <use xlink:href="#DejaVuSans-20" transform="translate(179.946289 0.015625)"/>
     <use xlink:href="#DejaVuSans-35" transform="translate(211.733398 0.015625)"/>
     <use xlink:href="#DejaVuSans-2e" transform="translate(275.356445 0.015625)"/>
     <use xlink:href="#DejaVuSans-37" transform="translate(299.393555 0.015625)"/>
     <use xlink:href="#DejaVuSans-31" transform="translate(363.016602 0.015625)"/>
     <use xlink:href="#DejaVuSans-39" transform="translate(426.639648 0.015625)"/>
     <use xlink:href="#DejaVuSans-37" transform="translate(490.262695 0.015625)"/>
     <use xlink:href="#DejaVuSans-36" transform="translate(553.885742 0.015625)"/>
     <use xlink:href="#DejaVuSans-37" transform="translate(617.508789 0.015625)"/>
     <use xlink:href="#DejaVuSans-b1" transform="translate(681.131836 0.015625)"/>
     <use xlink:href="#DejaVuSans-33" transform="translate(764.920898 0.015625)"/>
     <use xlink:href="#DejaVuSans-2e" transform="translate(828.543945 0.015625)"/>
     <use xlink:href="#DejaVuSans-38" transform="translate(857.706055 0.015625)"/>
     <use xlink:href="#DejaVuSans-65" transform="translate(921.329102 0.015625)"/>
     <use xlink:href="#DejaVuSans-2d" transform="translate(982.852539 0.015625)"/>
     <use xlink:href="#DejaVuSans-30" transform="translate(1018.936523 0.015625)"/>
     <use xlink:href="#DejaVuSans-35" transform="translate(1082.55957 0.015625)"/>
     <use xlink:href="#DejaVuSans-20" transform="translate(1146.182617 0.015625)"/>
     <use xlink:href="#DejaVuSans-47" transform="translate(1177.969727 0.015625)"/>
     <use xlink:href="#DejaVuSans-48" transform="translate(1255.459961 0.015625)"/>
     <use xlink:href="#DejaVuSans-7a" transform="translate(1330.655273 0.015625)"/>
    </g>
   </g>
  </g>
  <g id="text_19">
   <!-- S21 One-tone -->
   <g transform="translate(169.3975 16.318125) scale(0.12 -0.12)">
    <defs>
     <path id="DejaVuSans-4f" d="M 2522 4238 
Q 1834 4238 1429 3725 
Q 1025 3213 1025 2328 
Q 1025 1447 1429 934 
Q 1834 422 2522 422 
Q 3209 422 3611 934 
Q 4013 1447 4013 2328 
Q 4013 3213 3611 3725 
Q 3209 4238 2522 4238 
z
M 2522 4750 
Q 3503 4750 4090 4092 
Q 4678 3434 4678 2328 
Q 4678 1225 4090 567 
Q 3503 -91 2522 -91 
Q 1538 -91 948 565 
Q 359 1222 359 2328 
Q 359 3434 948 4092 
Q 1538 4750 2522 4750 
z
" transform="scale(0.015625)"/>
     <path id="DejaVuSans-6e" d="M 3513 2113 
L 3513 0 
L 2938 0 
L 2938 2094 
Q 2938 2591 2744 2837 
Q 2550 3084 2163 3084 
Q 1697 3084 1428 2787 
Q 1159 2491 1159 1978 
L 1159 0 
L 581 0 
L 581 3500 
L 1159 3500 
L 1159 2956 
Q 1366 3272 1645 3428 
Q 1925 3584 2291 3584 
Q 2894 3584 3203 3211 
Q 3513 2838 3513 2113 
z
" transform="scale(0.015625)"/>
     <path id="DejaVuSans-74" d="M 1172 4494 
L 1172 3500 
L 2356 3500 
L 2356 3053 
L 1172 3053 
L 1172 1153 
Q 1172 725 1289 603 
Q 1406 481 1766 481 
L 2356 481 
L 2356 0 
L 1766 0 
Q 1100 0 847 248 
Q 594 497 594 1153 
L 594 3053 
L 172 3053 
L 172 3500 
L 594 3500 
L 594 4494 
L 1172 4494 
z
" transform="scale(0.015625)"/>
     <path id="DejaVuSans-6f" d="M 1959 3097 
Q 1497 3097 1228 2736 
Q 959 2375 959 1747 
Q 959 1119 1226 758 
Q 1494 397 1959 397 
Q 2419 397 2687 759 
Q 2956 1122 2956 1747 
Q 2956 2369 2687 2733 
Q 2419 3097 1959 3097 
z
M 1959 3584 
Q 2709 3584 3137 3096 
Q 3566 2609 3566 1747 
Q 3566 888 3137 398 
Q 2709 -91 1959 -91 
Q 1206 -91 779 398 
Q 353 888 353 1747 
Q 353 2609 779 3096 
Q 1206 3584 1959 3584 
z
" transform="scale(0.015625)"/>
    </defs>
    <use xlink:href="#DejaVuSans-53"/>
    <use xlink:href="#DejaVuSans-32" x="63.476562"/>
    <use xlink:href="#DejaVuSans-31" x="127.099609"/>
    <use xlink:href="#DejaVuSans-20" x="190.722656"/>
    <use xlink:href="#DejaVuSans-4f" x="222.509766"/>
    <use xlink:href="#DejaVuSans-6e" x="301.220703"/>
    <use xlink:href="#DejaVuSans-65" x="364.599609"/>
    <use xlink:href="#DejaVuSans-2d" x="426.123047"/>
    <use xlink:href="#DejaVuSans-74" x="462.207031"/>
    <use xlink:href="#DejaVuSans-6f" x="501.416016"/>
    <use xlink:href="#DejaVuSans-6e" x="562.597656"/>
    <use xlink:href="#DejaVuSans-65" x="625.976562"/>
   </g>
   <!-- tuid: 20240222-165809-098-d298c5 -->
   <g transform="translate(101.32 29.7555) scale(0.12 -0.12)">
    <defs>
     <path id="DejaVuSans-69" d="M 603 3500 
L 1178 3500 
L 1178 0 
L 603 0 
L 603 3500 
z
M 603 4863 
L 1178 4863 
L 1178 4134 
L 603 4134 
L 603 4863 
z
" transform="scale(0.015625)"/>
     <path id="DejaVuSans-64" d="M 2906 2969 
L 2906 4863 
L 3481 4863 
L 3481 0 
L 2906 0 
L 2906 525 
Q 2725 213 2448 61 
Q 2172 -91 1784 -91 
Q 1150 -91 751 415 
Q 353 922 353 1747 
Q 353 2572 751 3078 
Q 1150 3584 1784 3584 
Q 2172 3584 2448 3432 
Q 2725 3281 2906 2969 
z
M 947 1747 
Q 947 1113 1208 752 
Q 1469 391 1925 391 
Q 2381 391 2643 752 
Q 2906 1113 2906 1747 
Q 2906 2381 2643 2742 
Q 2381 3103 1925 3103 
Q 1469 3103 1208 2742 
Q 947 2381 947 1747 
z
" transform="scale(0.015625)"/>
     <path id="DejaVuSans-63" d="M 3122 3366 
L 3122 2828 
Q 2878 2963 2633 3030 
Q 2388 3097 2138 3097 
Q 1578 3097 1268 2742 
Q 959 2388 959 1747 
Q 959 1106 1268 751 
Q 1578 397 2138 397 
Q 2388 397 2633 464 
Q 2878 531 3122 666 
L 3122 134 
Q 2881 22 2623 -34 
Q 2366 -91 2075 -91 
Q 1284 -91 818 406 
Q 353 903 353 1747 
Q 353 2603 823 3093 
Q 1294 3584 2113 3584 
Q 2378 3584 2631 3529 
Q 2884 3475 3122 3366 
z
" transform="scale(0.015625)"/>
    </defs>
    <use xlink:href="#DejaVuSans-74"/>
    <use xlink:href="#DejaVuSans-75" x="39.208984"/>
    <use xlink:href="#DejaVuSans-69" x="102.587891"/>
    <use xlink:href="#DejaVuSans-64" x="130.371094"/>
    <use xlink:href="#DejaVuSans-3a" x="193.847656"/>
    <use xlink:href="#DejaVuSans-20" x="227.539062"/>
    <use xlink:href="#DejaVuSans-32" x="259.326172"/>
    <use xlink:href="#DejaVuSans-30" x="322.949219"/>
    <use xlink:href="#DejaVuSans-32" x="386.572266"/>
    <use xlink:href="#DejaVuSans-34" x="450.195312"/>
    <use xlink:href="#DejaVuSans-30" x="513.818359"/>
    <use xlink:href="#DejaVuSans-32" x="577.441406"/>
    <use xlink:href="#DejaVuSans-32" x="641.064453"/>
    <use xlink:href="#DejaVuSans-32" x="704.6875"/>
    <use xlink:href="#DejaVuSans-2d" x="768.310547"/>
    <use xlink:href="#DejaVuSans-31" x="804.394531"/>
    <use xlink:href="#DejaVuSans-36" x="868.017578"/>
    <use xlink:href="#DejaVuSans-35" x="931.640625"/>
    <use xlink:href="#DejaVuSans-38" x="995.263672"/>
    <use xlink:href="#DejaVuSans-30" x="1058.886719"/>
    <use xlink:href="#DejaVuSans-39" x="1122.509766"/>
    <use xlink:href="#DejaVuSans-2d" x="1186.132812"/>
    <use xlink:href="#DejaVuSans-30" x="1222.216797"/>
    <use xlink:href="#DejaVuSans-39" x="1285.839844"/>
    <use xlink:href="#DejaVuSans-38" x="1349.462891"/>
    <use xlink:href="#DejaVuSans-2d" x="1413.085938"/>
    <use xlink:href="#DejaVuSans-64" x="1449.169922"/>
    <use xlink:href="#DejaVuSans-32" x="1512.646484"/>
    <use xlink:href="#DejaVuSans-39" x="1576.269531"/>
    <use xlink:href="#DejaVuSans-38" x="1639.892578"/>
    <use xlink:href="#DejaVuSans-63" x="1703.515625"/>
    <use xlink:href="#DejaVuSans-35" x="1758.496094"/>
   </g>
  </g>
 </g>
 <defs>
  <clipPath id="pd3fdb127db">
   <rect x="37.848438" y="41.76" width="357.12" height="266.112"/>
  </clipPath>
 </defs>
</svg>
