<?xml version="1.0" encoding="utf-8" standalone="no"?>
<!DOCTYPE svg PUBLIC "-//W3C//DTD SVG 1.1//EN"
  "http://www.w3.org/Graphics/SVG/1.1/DTD/svg11.dtd">
<svg xmlns:xlink="http://www.w3.org/1999/xlink" width="647.026pt" height="345.42825pt" viewBox="0 0 647.026 345.42825" xmlns="http://www.w3.org/2000/svg" version="1.1">
 <metadata>
  <rdf:RDF xmlns:dc="http://purl.org/dc/elements/1.1/" xmlns:cc="http://creativecommons.org/ns#" xmlns:rdf="http://www.w3.org/1999/02/22-rdf-syntax-ns#">
   <cc:Work>
    <dc:type rdf:resource="http://purl.org/dc/dcmitype/StillImage"/>
    <dc:date>2024-03-04T14:02:06.937118</dc:date>
    <dc:format>image/svg+xml</dc:format>
    <dc:creator>
     <cc:Agent>
      <dc:title>Matplotlib v3.8.2, https://matplotlib.org/</dc:title>
     </cc:Agent>
    </dc:creator>
   </cc:Work>
  </rdf:RDF>
 </metadata>
 <defs>
  <style type="text/css">*{stroke-linejoin: round; stroke-linecap: butt}</style>
 </defs>
 <g id="figure_1">
  <g id="patch_1">
   <path d="M 0 345.42825 
L 647.026 345.42825 
L 647.026 -0 
L 0 -0 
L 0 345.42825 
z
" style="fill: none; opacity: 0"/>
  </g>
  <g id="axes_1">
   <g id="patch_2">
    <path d="M 46.965625 307.872 
L 404.085625 307.872 
L 404.085625 41.76 
L 46.965625 41.76 
z
" style="fill: #ffffff"/>
   </g>
   <g id="matplotlib.axis_1">
    <g id="xtick_1">
     <g id="line2d_1">
      <defs>
       <path id="m31a637849b" d="M 0 0 
L 0 3.5 
" style="stroke: #000000; stroke-width: 0.8"/>
      </defs>
      <g>
       <use xlink:href="#m31a637849b" x="63.061199" y="307.872" style="stroke: #000000; stroke-width: 0.8"/>
      </g>
     </g>
     <g id="text_1">
      <!-- 447 -->
      <g transform="translate(53.517449 322.470438) scale(0.1 -0.1)">
       <defs>
        <path id="DejaVuSans-34" d="M 2419 4116 
L 825 1625 
L 2419 1625 
L 2419 4116 
z
M 2253 4666 
L 3047 4666 
L 3047 1625 
L 3713 1625 
L 3713 1100 
L 3047 1100 
L 3047 0 
L 2419 0 
L 2419 1100 
L 313 1100 
L 313 1709 
L 2253 4666 
z
" transform="scale(0.015625)"/>
        <path id="DejaVuSans-37" d="M 525 4666 
L 3525 4666 
L 3525 4397 
L 1831 0 
L 1172 0 
L 2766 4134 
L 525 4134 
L 525 4666 
z
" transform="scale(0.015625)"/>
       </defs>
       <use xlink:href="#DejaVuSans-34"/>
       <use xlink:href="#DejaVuSans-34" x="63.623047"/>
       <use xlink:href="#DejaVuSans-37" x="127.246094"/>
      </g>
     </g>
    </g>
    <g id="xtick_2">
     <g id="line2d_2">
      <g>
       <use xlink:href="#m31a637849b" x="117.17029" y="307.872" style="stroke: #000000; stroke-width: 0.8"/>
      </g>
     </g>
     <g id="text_2">
      <!-- 448 -->
      <g transform="translate(107.62654 322.470438) scale(0.1 -0.1)">
       <defs>
        <path id="DejaVuSans-38" d="M 2034 2216 
Q 1584 2216 1326 1975 
Q 1069 1734 1069 1313 
Q 1069 891 1326 650 
Q 1584 409 2034 409 
Q 2484 409 2743 651 
Q 3003 894 3003 1313 
Q 3003 1734 2745 1975 
Q 2488 2216 2034 2216 
z
M 1403 2484 
Q 997 2584 770 2862 
Q 544 3141 544 3541 
Q 544 4100 942 4425 
Q 1341 4750 2034 4750 
Q 2731 4750 3128 4425 
Q 3525 4100 3525 3541 
Q 3525 3141 3298 2862 
Q 3072 2584 2669 2484 
Q 3125 2378 3379 2068 
Q 3634 1759 3634 1313 
Q 3634 634 3220 271 
Q 2806 -91 2034 -91 
Q 1263 -91 848 271 
Q 434 634 434 1313 
Q 434 1759 690 2068 
Q 947 2378 1403 2484 
z
M 1172 3481 
Q 1172 3119 1398 2916 
Q 1625 2713 2034 2713 
Q 2441 2713 2670 2916 
Q 2900 3119 2900 3481 
Q 2900 3844 2670 4047 
Q 2441 4250 2034 4250 
Q 1625 4250 1398 4047 
Q 1172 3844 1172 3481 
z
" transform="scale(0.015625)"/>
       </defs>
       <use xlink:href="#DejaVuSans-34"/>
       <use xlink:href="#DejaVuSans-34" x="63.623047"/>
       <use xlink:href="#DejaVuSans-38" x="127.246094"/>
      </g>
     </g>
    </g>
    <g id="xtick_3">
     <g id="line2d_3">
      <g>
       <use xlink:href="#m31a637849b" x="171.279381" y="307.872" style="stroke: #000000; stroke-width: 0.8"/>
      </g>
     </g>
     <g id="text_3">
      <!-- 449 -->
      <g transform="translate(161.735631 322.470438) scale(0.1 -0.1)">
       <defs>
        <path id="DejaVuSans-39" d="M 703 97 
L 703 672 
Q 941 559 1184 500 
Q 1428 441 1663 441 
Q 2288 441 2617 861 
Q 2947 1281 2994 2138 
Q 2813 1869 2534 1725 
Q 2256 1581 1919 1581 
Q 1219 1581 811 2004 
Q 403 2428 403 3163 
Q 403 3881 828 4315 
Q 1253 4750 1959 4750 
Q 2769 4750 3195 4129 
Q 3622 3509 3622 2328 
Q 3622 1225 3098 567 
Q 2575 -91 1691 -91 
Q 1453 -91 1209 -44 
Q 966 3 703 97 
z
M 1959 2075 
Q 2384 2075 2632 2365 
Q 2881 2656 2881 3163 
Q 2881 3666 2632 3958 
Q 2384 4250 1959 4250 
Q 1534 4250 1286 3958 
Q 1038 3666 1038 3163 
Q 1038 2656 1286 2365 
Q 1534 2075 1959 2075 
z
" transform="scale(0.015625)"/>
       </defs>
       <use xlink:href="#DejaVuSans-34"/>
       <use xlink:href="#DejaVuSans-34" x="63.623047"/>
       <use xlink:href="#DejaVuSans-39" x="127.246094"/>
      </g>
     </g>
    </g>
    <g id="xtick_4">
     <g id="line2d_4">
      <g>
       <use xlink:href="#m31a637849b" x="225.388472" y="307.872" style="stroke: #000000; stroke-width: 0.8"/>
      </g>
     </g>
     <g id="text_4">
      <!-- 450 -->
      <g transform="translate(215.844722 322.470438) scale(0.1 -0.1)">
       <defs>
        <path id="DejaVuSans-35" d="M 691 4666 
L 3169 4666 
L 3169 4134 
L 1269 4134 
L 1269 2991 
Q 1406 3038 1543 3061 
Q 1681 3084 1819 3084 
Q 2600 3084 3056 2656 
Q 3513 2228 3513 1497 
Q 3513 744 3044 326 
Q 2575 -91 1722 -91 
Q 1428 -91 1123 -41 
Q 819 9 494 109 
L 494 744 
Q 775 591 1075 516 
Q 1375 441 1709 441 
Q 2250 441 2565 725 
Q 2881 1009 2881 1497 
Q 2881 1984 2565 2268 
Q 2250 2553 1709 2553 
Q 1456 2553 1204 2497 
Q 953 2441 691 2322 
L 691 4666 
z
" transform="scale(0.015625)"/>
        <path id="DejaVuSans-30" d="M 2034 4250 
Q 1547 4250 1301 3770 
Q 1056 3291 1056 2328 
Q 1056 1369 1301 889 
Q 1547 409 2034 409 
Q 2525 409 2770 889 
Q 3016 1369 3016 2328 
Q 3016 3291 2770 3770 
Q 2525 4250 2034 4250 
z
M 2034 4750 
Q 2819 4750 3233 4129 
Q 3647 3509 3647 2328 
Q 3647 1150 3233 529 
Q 2819 -91 2034 -91 
Q 1250 -91 836 529 
Q 422 1150 422 2328 
Q 422 3509 836 4129 
Q 1250 4750 2034 4750 
z
" transform="scale(0.015625)"/>
       </defs>
       <use xlink:href="#DejaVuSans-34"/>
       <use xlink:href="#DejaVuSans-35" x="63.623047"/>
       <use xlink:href="#DejaVuSans-30" x="127.246094"/>
      </g>
     </g>
    </g>
    <g id="xtick_5">
     <g id="line2d_5">
      <g>
       <use xlink:href="#m31a637849b" x="279.497563" y="307.872" style="stroke: #000000; stroke-width: 0.8"/>
      </g>
     </g>
     <g id="text_5">
      <!-- 451 -->
      <g transform="translate(269.953813 322.470438) scale(0.1 -0.1)">
       <defs>
        <path id="DejaVuSans-31" d="M 794 531 
L 1825 531 
L 1825 4091 
L 703 3866 
L 703 4441 
L 1819 4666 
L 2450 4666 
L 2450 531 
L 3481 531 
L 3481 0 
L 794 0 
L 794 531 
z
" transform="scale(0.015625)"/>
       </defs>
       <use xlink:href="#DejaVuSans-34"/>
       <use xlink:href="#DejaVuSans-35" x="63.623047"/>
       <use xlink:href="#DejaVuSans-31" x="127.246094"/>
      </g>
     </g>
    </g>
    <g id="xtick_6">
     <g id="line2d_6">
      <g>
       <use xlink:href="#m31a637849b" x="333.606654" y="307.872" style="stroke: #000000; stroke-width: 0.8"/>
      </g>
     </g>
     <g id="text_6">
      <!-- 452 -->
      <g transform="translate(324.062904 322.470438) scale(0.1 -0.1)">
       <defs>
        <path id="DejaVuSans-32" d="M 1228 531 
L 3431 531 
L 3431 0 
L 469 0 
L 469 531 
Q 828 903 1448 1529 
Q 2069 2156 2228 2338 
Q 2531 2678 2651 2914 
Q 2772 3150 2772 3378 
Q 2772 3750 2511 3984 
Q 2250 4219 1831 4219 
Q 1534 4219 1204 4116 
Q 875 4013 500 3803 
L 500 4441 
Q 881 4594 1212 4672 
Q 1544 4750 1819 4750 
Q 2544 4750 2975 4387 
Q 3406 4025 3406 3419 
Q 3406 3131 3298 2873 
Q 3191 2616 2906 2266 
Q 2828 2175 2409 1742 
Q 1991 1309 1228 531 
z
" transform="scale(0.015625)"/>
       </defs>
       <use xlink:href="#DejaVuSans-34"/>
       <use xlink:href="#DejaVuSans-35" x="63.623047"/>
       <use xlink:href="#DejaVuSans-32" x="127.246094"/>
      </g>
     </g>
    </g>
    <g id="xtick_7">
     <g id="line2d_7">
      <g>
       <use xlink:href="#m31a637849b" x="387.715745" y="307.872" style="stroke: #000000; stroke-width: 0.8"/>
      </g>
     </g>
     <g id="text_7">
      <!-- 453 -->
      <g transform="translate(378.171995 322.470438) scale(0.1 -0.1)">
       <defs>
        <path id="DejaVuSans-33" d="M 2597 2516 
Q 3050 2419 3304 2112 
Q 3559 1806 3559 1356 
Q 3559 666 3084 287 
Q 2609 -91 1734 -91 
Q 1441 -91 1130 -33 
Q 819 25 488 141 
L 488 750 
Q 750 597 1062 519 
Q 1375 441 1716 441 
Q 2309 441 2620 675 
Q 2931 909 2931 1356 
Q 2931 1769 2642 2001 
Q 2353 2234 1838 2234 
L 1294 2234 
L 1294 2753 
L 1863 2753 
Q 2328 2753 2575 2939 
Q 2822 3125 2822 3475 
Q 2822 3834 2567 4026 
Q 2313 4219 1838 4219 
Q 1578 4219 1281 4162 
Q 984 4106 628 3988 
L 628 4550 
Q 988 4650 1302 4700 
Q 1616 4750 1894 4750 
Q 2613 4750 3031 4423 
Q 3450 4097 3450 3541 
Q 3450 3153 3228 2886 
Q 3006 2619 2597 2516 
z
" transform="scale(0.015625)"/>
       </defs>
       <use xlink:href="#DejaVuSans-34"/>
       <use xlink:href="#DejaVuSans-35" x="63.623047"/>
       <use xlink:href="#DejaVuSans-33" x="127.246094"/>
      </g>
     </g>
    </g>
    <g id="text_8">
     <!-- Frequency [MHz] -->
     <g transform="translate(183.506875 336.148562) scale(0.1 -0.1)">
      <defs>
       <path id="DejaVuSans-46" d="M 628 4666 
L 3309 4666 
L 3309 4134 
L 1259 4134 
L 1259 2759 
L 3109 2759 
L 3109 2228 
L 1259 2228 
L 1259 0 
L 628 0 
L 628 4666 
z
" transform="scale(0.015625)"/>
       <path id="DejaVuSans-72" d="M 2631 2963 
Q 2534 3019 2420 3045 
Q 2306 3072 2169 3072 
Q 1681 3072 1420 2755 
Q 1159 2438 1159 1844 
L 1159 0 
L 581 0 
L 581 3500 
L 1159 3500 
L 1159 2956 
Q 1341 3275 1631 3429 
Q 1922 3584 2338 3584 
Q 2397 3584 2469 3576 
Q 2541 3569 2628 3553 
L 2631 2963 
z
" transform="scale(0.015625)"/>
       <path id="DejaVuSans-65" d="M 3597 1894 
L 3597 1613 
L 953 1613 
Q 991 1019 1311 708 
Q 1631 397 2203 397 
Q 2534 397 2845 478 
Q 3156 559 3463 722 
L 3463 178 
Q 3153 47 2828 -22 
Q 2503 -91 2169 -91 
Q 1331 -91 842 396 
Q 353 884 353 1716 
Q 353 2575 817 3079 
Q 1281 3584 2069 3584 
Q 2775 3584 3186 3129 
Q 3597 2675 3597 1894 
z
M 3022 2063 
Q 3016 2534 2758 2815 
Q 2500 3097 2075 3097 
Q 1594 3097 1305 2825 
Q 1016 2553 972 2059 
L 3022 2063 
z
" transform="scale(0.015625)"/>
       <path id="DejaVuSans-71" d="M 947 1747 
Q 947 1113 1208 752 
Q 1469 391 1925 391 
Q 2381 391 2643 752 
Q 2906 1113 2906 1747 
Q 2906 2381 2643 2742 
Q 2381 3103 1925 3103 
Q 1469 3103 1208 2742 
Q 947 2381 947 1747 
z
M 2906 525 
Q 2725 213 2448 61 
Q 2172 -91 1784 -91 
Q 1150 -91 751 415 
Q 353 922 353 1747 
Q 353 2572 751 3078 
Q 1150 3584 1784 3584 
Q 2172 3584 2448 3432 
Q 2725 3281 2906 2969 
L 2906 3500 
L 3481 3500 
L 3481 -1331 
L 2906 -1331 
L 2906 525 
z
" transform="scale(0.015625)"/>
       <path id="DejaVuSans-75" d="M 544 1381 
L 544 3500 
L 1119 3500 
L 1119 1403 
Q 1119 906 1312 657 
Q 1506 409 1894 409 
Q 2359 409 2629 706 
Q 2900 1003 2900 1516 
L 2900 3500 
L 3475 3500 
L 3475 0 
L 2900 0 
L 2900 538 
Q 2691 219 2414 64 
Q 2138 -91 1772 -91 
Q 1169 -91 856 284 
Q 544 659 544 1381 
z
M 1991 3584 
L 1991 3584 
z
" transform="scale(0.015625)"/>
       <path id="DejaVuSans-6e" d="M 3513 2113 
L 3513 0 
L 2938 0 
L 2938 2094 
Q 2938 2591 2744 2837 
Q 2550 3084 2163 3084 
Q 1697 3084 1428 2787 
Q 1159 2491 1159 1978 
L 1159 0 
L 581 0 
L 581 3500 
L 1159 3500 
L 1159 2956 
Q 1366 3272 1645 3428 
Q 1925 3584 2291 3584 
Q 2894 3584 3203 3211 
Q 3513 2838 3513 2113 
z
" transform="scale(0.015625)"/>
       <path id="DejaVuSans-63" d="M 3122 3366 
L 3122 2828 
Q 2878 2963 2633 3030 
Q 2388 3097 2138 3097 
Q 1578 3097 1268 2742 
Q 959 2388 959 1747 
Q 959 1106 1268 751 
Q 1578 397 2138 397 
Q 2388 397 2633 464 
Q 2878 531 3122 666 
L 3122 134 
Q 2881 22 2623 -34 
Q 2366 -91 2075 -91 
Q 1284 -91 818 406 
Q 353 903 353 1747 
Q 353 2603 823 3093 
Q 1294 3584 2113 3584 
Q 2378 3584 2631 3529 
Q 2884 3475 3122 3366 
z
" transform="scale(0.015625)"/>
       <path id="DejaVuSans-79" d="M 2059 -325 
Q 1816 -950 1584 -1140 
Q 1353 -1331 966 -1331 
L 506 -1331 
L 506 -850 
L 844 -850 
Q 1081 -850 1212 -737 
Q 1344 -625 1503 -206 
L 1606 56 
L 191 3500 
L 800 3500 
L 1894 763 
L 2988 3500 
L 3597 3500 
L 2059 -325 
z
" transform="scale(0.015625)"/>
       <path id="DejaVuSans-20" transform="scale(0.015625)"/>
       <path id="DejaVuSans-5b" d="M 550 4863 
L 1875 4863 
L 1875 4416 
L 1125 4416 
L 1125 -397 
L 1875 -397 
L 1875 -844 
L 550 -844 
L 550 4863 
z
" transform="scale(0.015625)"/>
       <path id="DejaVuSans-4d" d="M 628 4666 
L 1569 4666 
L 2759 1491 
L 3956 4666 
L 4897 4666 
L 4897 0 
L 4281 0 
L 4281 4097 
L 3078 897 
L 2444 897 
L 1241 4097 
L 1241 0 
L 628 0 
L 628 4666 
z
" transform="scale(0.015625)"/>
       <path id="DejaVuSans-48" d="M 628 4666 
L 1259 4666 
L 1259 2753 
L 3553 2753 
L 3553 4666 
L 4184 4666 
L 4184 0 
L 3553 0 
L 3553 2222 
L 1259 2222 
L 1259 0 
L 628 0 
L 628 4666 
z
" transform="scale(0.015625)"/>
       <path id="DejaVuSans-7a" d="M 353 3500 
L 3084 3500 
L 3084 2975 
L 922 459 
L 3084 459 
L 3084 0 
L 275 0 
L 275 525 
L 2438 3041 
L 353 3041 
L 353 3500 
z
" transform="scale(0.015625)"/>
       <path id="DejaVuSans-5d" d="M 1947 4863 
L 1947 -844 
L 622 -844 
L 622 -397 
L 1369 -397 
L 1369 4416 
L 622 4416 
L 622 4863 
L 1947 4863 
z
" transform="scale(0.015625)"/>
      </defs>
      <use xlink:href="#DejaVuSans-46"/>
      <use xlink:href="#DejaVuSans-72" x="50.269531"/>
      <use xlink:href="#DejaVuSans-65" x="89.132812"/>
      <use xlink:href="#DejaVuSans-71" x="150.65625"/>
      <use xlink:href="#DejaVuSans-75" x="214.132812"/>
      <use xlink:href="#DejaVuSans-65" x="277.511719"/>
      <use xlink:href="#DejaVuSans-6e" x="339.035156"/>
      <use xlink:href="#DejaVuSans-63" x="402.414062"/>
      <use xlink:href="#DejaVuSans-79" x="457.394531"/>
      <use xlink:href="#DejaVuSans-20" x="516.574219"/>
      <use xlink:href="#DejaVuSans-5b" x="548.361328"/>
      <use xlink:href="#DejaVuSans-4d" x="587.375"/>
      <use xlink:href="#DejaVuSans-48" x="673.654297"/>
      <use xlink:href="#DejaVuSans-7a" x="748.849609"/>
      <use xlink:href="#DejaVuSans-5d" x="801.339844"/>
     </g>
    </g>
    <g id="text_9">
     <!-- +5 GHz -->
     <g transform="translate(365.648125 335.148562) scale(0.1 -0.1)">
      <defs>
       <path id="DejaVuSans-2b" d="M 2944 4013 
L 2944 2272 
L 4684 2272 
L 4684 1741 
L 2944 1741 
L 2944 0 
L 2419 0 
L 2419 1741 
L 678 1741 
L 678 2272 
L 2419 2272 
L 2419 4013 
L 2944 4013 
z
" transform="scale(0.015625)"/>
       <path id="DejaVuSans-47" d="M 3809 666 
L 3809 1919 
L 2778 1919 
L 2778 2438 
L 4434 2438 
L 4434 434 
Q 4069 175 3628 42 
Q 3188 -91 2688 -91 
Q 1594 -91 976 548 
Q 359 1188 359 2328 
Q 359 3472 976 4111 
Q 1594 4750 2688 4750 
Q 3144 4750 3555 4637 
Q 3966 4525 4313 4306 
L 4313 3634 
Q 3963 3931 3569 4081 
Q 3175 4231 2741 4231 
Q 1884 4231 1454 3753 
Q 1025 3275 1025 2328 
Q 1025 1384 1454 906 
Q 1884 428 2741 428 
Q 3075 428 3337 486 
Q 3600 544 3809 666 
z
" transform="scale(0.015625)"/>
      </defs>
      <use xlink:href="#DejaVuSans-2b"/>
      <use xlink:href="#DejaVuSans-35" x="83.789062"/>
      <use xlink:href="#DejaVuSans-20" x="147.412109"/>
      <use xlink:href="#DejaVuSans-47" x="179.199219"/>
      <use xlink:href="#DejaVuSans-48" x="256.689453"/>
      <use xlink:href="#DejaVuSans-7a" x="331.884766"/>
     </g>
    </g>
   </g>
   <g id="matplotlib.axis_2">
    <g id="ytick_1">
     <g id="line2d_8">
      <defs>
       <path id="m2cb018dba7" d="M 0 0 
L -3.5 0 
" style="stroke: #000000; stroke-width: 0.8"/>
      </defs>
      <g>
       <use xlink:href="#m2cb018dba7" x="46.965625" y="307.108494" style="stroke: #000000; stroke-width: 0.8"/>
      </g>
     </g>
     <g id="text_10">
      <!-- 0 -->
      <g transform="translate(33.603125 310.907712) scale(0.1 -0.1)">
       <use xlink:href="#DejaVuSans-30"/>
      </g>
     </g>
    </g>
    <g id="ytick_2">
     <g id="line2d_9">
      <g>
       <use xlink:href="#m2cb018dba7" x="46.965625" y="254.530618" style="stroke: #000000; stroke-width: 0.8"/>
      </g>
     </g>
     <g id="text_11">
      <!-- 50 -->
      <g transform="translate(27.240625 258.329837) scale(0.1 -0.1)">
       <use xlink:href="#DejaVuSans-35"/>
       <use xlink:href="#DejaVuSans-30" x="63.623047"/>
      </g>
     </g>
    </g>
    <g id="ytick_3">
     <g id="line2d_10">
      <g>
       <use xlink:href="#m2cb018dba7" x="46.965625" y="201.952743" style="stroke: #000000; stroke-width: 0.8"/>
      </g>
     </g>
     <g id="text_12">
      <!-- 100 -->
      <g transform="translate(20.878125 205.751961) scale(0.1 -0.1)">
       <use xlink:href="#DejaVuSans-31"/>
       <use xlink:href="#DejaVuSans-30" x="63.623047"/>
       <use xlink:href="#DejaVuSans-30" x="127.246094"/>
      </g>
     </g>
    </g>
    <g id="ytick_4">
     <g id="line2d_11">
      <g>
       <use xlink:href="#m2cb018dba7" x="46.965625" y="149.374867" style="stroke: #000000; stroke-width: 0.8"/>
      </g>
     </g>
     <g id="text_13">
      <!-- 150 -->
      <g transform="translate(20.878125 153.174086) scale(0.1 -0.1)">
       <use xlink:href="#DejaVuSans-31"/>
       <use xlink:href="#DejaVuSans-35" x="63.623047"/>
       <use xlink:href="#DejaVuSans-30" x="127.246094"/>
      </g>
     </g>
    </g>
    <g id="ytick_5">
     <g id="line2d_12">
      <g>
       <use xlink:href="#m2cb018dba7" x="46.965625" y="96.796992" style="stroke: #000000; stroke-width: 0.8"/>
      </g>
     </g>
     <g id="text_14">
      <!-- 200 -->
      <g transform="translate(20.878125 100.59621) scale(0.1 -0.1)">
       <use xlink:href="#DejaVuSans-32"/>
       <use xlink:href="#DejaVuSans-30" x="63.623047"/>
       <use xlink:href="#DejaVuSans-30" x="127.246094"/>
      </g>
     </g>
    </g>
    <g id="ytick_6">
     <g id="line2d_13">
      <g>
       <use xlink:href="#m2cb018dba7" x="46.965625" y="44.219116" style="stroke: #000000; stroke-width: 0.8"/>
      </g>
     </g>
     <g id="text_15">
      <!-- 250 -->
      <g transform="translate(20.878125 48.018335) scale(0.1 -0.1)">
       <use xlink:href="#DejaVuSans-32"/>
       <use xlink:href="#DejaVuSans-35" x="63.623047"/>
       <use xlink:href="#DejaVuSans-30" x="127.246094"/>
      </g>
     </g>
    </g>
    <g id="text_16">
     <!-- Magnitude0 [μV] -->
     <g transform="translate(14.798438 216.579281) rotate(-90) scale(0.1 -0.1)">
      <defs>
       <path id="DejaVuSans-61" d="M 2194 1759 
Q 1497 1759 1228 1600 
Q 959 1441 959 1056 
Q 959 750 1161 570 
Q 1363 391 1709 391 
Q 2188 391 2477 730 
Q 2766 1069 2766 1631 
L 2766 1759 
L 2194 1759 
z
M 3341 1997 
L 3341 0 
L 2766 0 
L 2766 531 
Q 2569 213 2275 61 
Q 1981 -91 1556 -91 
Q 1019 -91 701 211 
Q 384 513 384 1019 
Q 384 1609 779 1909 
Q 1175 2209 1959 2209 
L 2766 2209 
L 2766 2266 
Q 2766 2663 2505 2880 
Q 2244 3097 1772 3097 
Q 1472 3097 1187 3025 
Q 903 2953 641 2809 
L 641 3341 
Q 956 3463 1253 3523 
Q 1550 3584 1831 3584 
Q 2591 3584 2966 3190 
Q 3341 2797 3341 1997 
z
" transform="scale(0.015625)"/>
       <path id="DejaVuSans-67" d="M 2906 1791 
Q 2906 2416 2648 2759 
Q 2391 3103 1925 3103 
Q 1463 3103 1205 2759 
Q 947 2416 947 1791 
Q 947 1169 1205 825 
Q 1463 481 1925 481 
Q 2391 481 2648 825 
Q 2906 1169 2906 1791 
z
M 3481 434 
Q 3481 -459 3084 -895 
Q 2688 -1331 1869 -1331 
Q 1566 -1331 1297 -1286 
Q 1028 -1241 775 -1147 
L 775 -588 
Q 1028 -725 1275 -790 
Q 1522 -856 1778 -856 
Q 2344 -856 2625 -561 
Q 2906 -266 2906 331 
L 2906 616 
Q 2728 306 2450 153 
Q 2172 0 1784 0 
Q 1141 0 747 490 
Q 353 981 353 1791 
Q 353 2603 747 3093 
Q 1141 3584 1784 3584 
Q 2172 3584 2450 3431 
Q 2728 3278 2906 2969 
L 2906 3500 
L 3481 3500 
L 3481 434 
z
" transform="scale(0.015625)"/>
       <path id="DejaVuSans-69" d="M 603 3500 
L 1178 3500 
L 1178 0 
L 603 0 
L 603 3500 
z
M 603 4863 
L 1178 4863 
L 1178 4134 
L 603 4134 
L 603 4863 
z
" transform="scale(0.015625)"/>
       <path id="DejaVuSans-74" d="M 1172 4494 
L 1172 3500 
L 2356 3500 
L 2356 3053 
L 1172 3053 
L 1172 1153 
Q 1172 725 1289 603 
Q 1406 481 1766 481 
L 2356 481 
L 2356 0 
L 1766 0 
Q 1100 0 847 248 
Q 594 497 594 1153 
L 594 3053 
L 172 3053 
L 172 3500 
L 594 3500 
L 594 4494 
L 1172 4494 
z
" transform="scale(0.015625)"/>
       <path id="DejaVuSans-64" d="M 2906 2969 
L 2906 4863 
L 3481 4863 
L 3481 0 
L 2906 0 
L 2906 525 
Q 2725 213 2448 61 
Q 2172 -91 1784 -91 
Q 1150 -91 751 415 
Q 353 922 353 1747 
Q 353 2572 751 3078 
Q 1150 3584 1784 3584 
Q 2172 3584 2448 3432 
Q 2725 3281 2906 2969 
z
M 947 1747 
Q 947 1113 1208 752 
Q 1469 391 1925 391 
Q 2381 391 2643 752 
Q 2906 1113 2906 1747 
Q 2906 2381 2643 2742 
Q 2381 3103 1925 3103 
Q 1469 3103 1208 2742 
Q 947 2381 947 1747 
z
" transform="scale(0.015625)"/>
       <path id="DejaVuSans-3bc" d="M 544 -1331 
L 544 3500 
L 1119 3500 
L 1119 1325 
Q 1119 872 1334 640 
Q 1550 409 1972 409 
Q 2434 409 2667 671 
Q 2900 934 2900 1459 
L 2900 3500 
L 3475 3500 
L 3475 806 
Q 3475 619 3529 530 
Q 3584 441 3700 441 
Q 3728 441 3778 458 
Q 3828 475 3916 513 
L 3916 50 
Q 3788 -22 3673 -56 
Q 3559 -91 3450 -91 
Q 3234 -91 3106 31 
Q 2978 153 2931 403 
Q 2775 156 2548 32 
Q 2322 -91 2016 -91 
Q 1697 -91 1473 31 
Q 1250 153 1119 397 
L 1119 -1331 
L 544 -1331 
z
" transform="scale(0.015625)"/>
       <path id="DejaVuSans-56" d="M 1831 0 
L 50 4666 
L 709 4666 
L 2188 738 
L 3669 4666 
L 4325 4666 
L 2547 0 
L 1831 0 
z
" transform="scale(0.015625)"/>
      </defs>
      <use xlink:href="#DejaVuSans-4d"/>
      <use xlink:href="#DejaVuSans-61" x="86.279297"/>
      <use xlink:href="#DejaVuSans-67" x="147.558594"/>
      <use xlink:href="#DejaVuSans-6e" x="211.035156"/>
      <use xlink:href="#DejaVuSans-69" x="274.414062"/>
      <use xlink:href="#DejaVuSans-74" x="302.197266"/>
      <use xlink:href="#DejaVuSans-75" x="341.40625"/>
      <use xlink:href="#DejaVuSans-64" x="404.785156"/>
      <use xlink:href="#DejaVuSans-65" x="468.261719"/>
      <use xlink:href="#DejaVuSans-30" x="529.785156"/>
      <use xlink:href="#DejaVuSans-20" x="593.408203"/>
      <use xlink:href="#DejaVuSans-5b" x="625.195312"/>
      <use xlink:href="#DejaVuSans-3bc" x="664.208984"/>
      <use xlink:href="#DejaVuSans-56" x="727.832031"/>
      <use xlink:href="#DejaVuSans-5d" x="796.240234"/>
     </g>
    </g>
   </g>
   <g id="line2d_14">
    <path d="M 63.198352 268.515249 
L 74.393337 270.755966 
L 85.588321 269.770836 
L 96.783305 274.066268 
L 107.97829 277.32791 
L 119.173274 277.42303 
L 130.368258 278.818079 
L 141.563243 277.101803 
L 152.758227 280.427986 
L 163.953211 283.068425 
L 175.148196 283.117534 
L 186.34318 283.950479 
L 197.538164 287.832568 
L 208.733149 288.440125 
L 219.928133 284.233325 
L 231.123117 285.04757 
L 242.318101 280.395302 
L 253.513086 284.011417 
L 264.70807 286.074583 
L 275.903054 286.88183 
L 287.098039 284.434501 
L 298.293023 288.762564 
L 309.488007 290.20441 
L 320.682992 288.508496 
L 331.877976 295.776 
L 343.07296 292.154908 
L 354.267945 289.397868 
L 365.462929 289.104263 
L 376.657913 295.496198 
L 387.852898 292.1244 
" clip-path="url(#pea687915a1)" style="fill: none; stroke: #440154; stroke-width: 1.5; stroke-linecap: square"/>
   </g>
   <g id="line2d_15">
    <path d="M 63.198352 263.011307 
L 74.393337 261.94138 
L 85.588321 261.518537 
L 96.783305 265.166924 
L 107.97829 264.758391 
L 119.173274 270.781209 
L 130.368258 269.899841 
L 141.563243 271.939231 
L 152.758227 275.455842 
L 163.953211 278.892113 
L 175.148196 281.531541 
L 186.34318 283.233393 
L 197.538164 284.44237 
L 208.733149 282.583498 
L 219.928133 283.018258 
L 231.123117 275.574222 
L 242.318101 278.567783 
L 253.513086 275.981531 
L 264.70807 278.346093 
L 275.903054 281.905176 
L 287.098039 281.136436 
L 298.293023 284.878612 
L 309.488007 284.105471 
L 320.682992 285.917914 
L 331.877976 288.037659 
L 343.07296 286.097379 
L 354.267945 289.853057 
L 365.462929 286.651165 
L 376.657913 287.370124 
L 387.852898 289.653057 
" clip-path="url(#pea687915a1)" style="fill: none; stroke: #470d60; stroke-width: 1.5; stroke-linecap: square"/>
   </g>
   <g id="line2d_16">
    <path d="M 63.198352 251.72439 
L 74.393337 258.087007 
L 85.588321 255.348545 
L 96.783305 257.974008 
L 107.97829 257.360802 
L 119.173274 263.169952 
L 130.368258 264.138202 
L 141.563243 268.634265 
L 152.758227 273.055428 
L 163.953211 274.435667 
L 175.148196 275.488413 
L 186.34318 279.383955 
L 197.538164 277.736275 
L 208.733149 282.158785 
L 219.928133 278.610941 
L 231.123117 269.358073 
L 242.318101 268.543939 
L 253.513086 270.587383 
L 264.70807 270.602151 
L 275.903054 273.846514 
L 287.098039 279.487754 
L 298.293023 279.568359 
L 309.488007 282.491576 
L 320.682992 283.473664 
L 331.877976 283.903263 
L 343.07296 284.649604 
L 354.267945 283.793356 
L 365.462929 286.608289 
L 376.657913 284.382984 
L 387.852898 285.830716 
" clip-path="url(#pea687915a1)" style="fill: none; stroke: #481a6c; stroke-width: 1.5; stroke-linecap: square"/>
   </g>
   <g id="line2d_17">
    <path d="M 63.198352 247.062914 
L 74.393337 243.81843 
L 85.588321 251.152803 
L 96.783305 252.220005 
L 107.97829 251.481429 
L 119.173274 258.050571 
L 130.368258 258.633388 
L 141.563243 258.167902 
L 152.758227 261.424522 
L 163.953211 264.311228 
L 175.148196 270.054775 
L 186.34318 273.90624 
L 197.538164 273.038701 
L 208.733149 279.162604 
L 219.928133 272.732989 
L 231.123117 271.483168 
L 242.318101 266.033168 
L 253.513086 264.219413 
L 264.70807 268.553065 
L 275.903054 273.695846 
L 287.098039 272.942553 
L 298.293023 274.661205 
L 309.488007 276.522269 
L 320.682992 283.610004 
L 331.877976 281.426047 
L 343.07296 281.447002 
L 354.267945 282.419899 
L 365.462929 283.026914 
L 376.657913 281.192408 
L 387.852898 277.263865 
" clip-path="url(#pea687915a1)" style="fill: none; stroke: #482576; stroke-width: 1.5; stroke-linecap: square"/>
   </g>
   <g id="line2d_18">
    <path d="M 63.198352 234.01844 
L 74.393337 243.74387 
L 85.588321 245.770715 
L 96.783305 244.978134 
L 107.97829 246.168169 
L 119.173274 248.113232 
L 130.368258 253.518001 
L 141.563243 254.997974 
L 152.758227 257.336742 
L 163.953211 258.993367 
L 175.148196 264.389324 
L 186.34318 266.703357 
L 197.538164 267.459887 
L 208.733149 270.445817 
L 219.928133 266.513738 
L 231.123117 263.161358 
L 242.318101 257.906856 
L 253.513086 260.727127 
L 264.70807 258.779009 
L 275.903054 266.949871 
L 287.098039 267.107562 
L 298.293023 270.615676 
L 309.488007 273.419453 
L 320.682992 275.723579 
L 331.877976 278.306111 
L 343.07296 277.555321 
L 354.267945 280.898829 
L 365.462929 278.483396 
L 376.657913 276.189716 
L 387.852898 278.756531 
" clip-path="url(#pea687915a1)" style="fill: none; stroke: #46307e; stroke-width: 1.5; stroke-linecap: square"/>
   </g>
   <g id="line2d_19">
    <path d="M 63.198352 235.391575 
L 74.393337 234.258884 
L 85.588321 236.579249 
L 96.783305 237.126448 
L 107.97829 240.517693 
L 119.173274 243.35033 
L 130.368258 246.356012 
L 141.563243 250.098257 
L 152.758227 252.715781 
L 163.953211 257.270072 
L 175.148196 262.458948 
L 186.34318 267.229954 
L 197.538164 268.821525 
L 208.733149 267.181035 
L 219.928133 261.707741 
L 231.123117 256.281784 
L 242.318101 251.70979 
L 253.513086 254.716736 
L 264.70807 256.332256 
L 275.903054 262.353542 
L 287.098039 267.472521 
L 298.293023 266.234148 
L 309.488007 265.663681 
L 320.682992 270.572571 
L 331.877976 274.586334 
L 343.07296 275.090327 
L 354.267945 274.333186 
L 365.462929 270.952507 
L 376.657913 278.066818 
L 387.852898 275.923969 
" clip-path="url(#pea687915a1)" style="fill: none; stroke: #443b84; stroke-width: 1.5; stroke-linecap: square"/>
   </g>
   <g id="line2d_20">
    <path d="M 63.198352 224.59753 
L 74.393337 228.514456 
L 85.588321 226.607842 
L 96.783305 232.845024 
L 107.97829 238.249648 
L 119.173274 239.03887 
L 130.368258 241.624577 
L 141.563243 246.125668 
L 152.758227 244.210024 
L 163.953211 252.537665 
L 175.148196 254.576194 
L 186.34318 258.553775 
L 197.538164 265.776603 
L 208.733149 266.519295 
L 219.928133 258.418458 
L 231.123117 254.270482 
L 242.318101 249.519047 
L 253.513086 246.998249 
L 264.70807 252.60196 
L 275.903054 257.49139 
L 287.098039 260.749153 
L 298.293023 260.981769 
L 309.488007 267.769977 
L 320.682992 272.337196 
L 331.877976 267.634247 
L 343.07296 274.366577 
L 354.267945 267.826623 
L 365.462929 269.81081 
L 376.657913 269.576463 
L 387.852898 271.906335 
" clip-path="url(#pea687915a1)" style="fill: none; stroke: #404588; stroke-width: 1.5; stroke-linecap: square"/>
   </g>
   <g id="line2d_21">
    <path d="M 63.198352 219.189445 
L 74.393337 215.860291 
L 85.588321 222.713907 
L 96.783305 228.07804 
L 107.97829 229.73485 
L 119.173274 231.495288 
L 130.368258 229.600388 
L 141.563243 237.464636 
L 152.758227 244.089152 
L 163.953211 248.615052 
L 175.148196 252.538585 
L 186.34318 257.960302 
L 197.538164 260.475117 
L 208.733149 261.282308 
L 219.928133 250.248132 
L 231.123117 245.048437 
L 242.318101 241.108066 
L 253.513086 242.665273 
L 264.70807 244.532566 
L 275.903054 252.829016 
L 287.098039 255.147952 
L 298.293023 256.856271 
L 309.488007 260.773404 
L 320.682992 265.619407 
L 331.877976 267.889821 
L 343.07296 267.497278 
L 354.267945 266.812988 
L 365.462929 265.773874 
L 376.657913 264.870481 
L 387.852898 266.260508 
" clip-path="url(#pea687915a1)" style="fill: none; stroke: #3c4f8a; stroke-width: 1.5; stroke-linecap: square"/>
   </g>
   <g id="line2d_22">
    <path d="M 63.198352 209.426484 
L 74.393337 209.046141 
L 85.588321 215.923816 
L 96.783305 215.28443 
L 107.97829 220.211295 
L 119.173274 226.444047 
L 130.368258 231.131121 
L 141.563243 232.281486 
L 152.758227 237.786622 
L 163.953211 242.773986 
L 175.148196 246.148295 
L 186.34318 252.753047 
L 197.538164 257.44827 
L 208.733149 253.636559 
L 219.928133 248.62127 
L 231.123117 238.503905 
L 242.318101 241.549544 
L 253.513086 241.206743 
L 264.70807 241.90904 
L 275.903054 248.537756 
L 287.098039 249.722736 
L 298.293023 255.833687 
L 309.488007 258.96342 
L 320.682992 263.283554 
L 331.877976 261.232262 
L 343.07296 265.872905 
L 354.267945 264.621059 
L 365.462929 262.597003 
L 376.657913 268.200357 
L 387.852898 264.491482 
" clip-path="url(#pea687915a1)" style="fill: none; stroke: #38598c; stroke-width: 1.5; stroke-linecap: square"/>
   </g>
   <g id="line2d_23">
    <path d="M 63.198352 201.040833 
L 74.393337 202.969327 
L 85.588321 206.056675 
L 96.783305 210.000017 
L 107.97829 217.017437 
L 119.173274 219.451156 
L 130.368258 223.777853 
L 141.563243 228.493997 
L 152.758227 232.772687 
L 163.953211 237.232281 
L 175.148196 241.051936 
L 186.34318 245.96768 
L 197.538164 250.271944 
L 208.733149 248.394997 
L 219.928133 248.05449 
L 231.123117 237.27897 
L 242.318101 230.433496 
L 253.513086 233.447609 
L 264.70807 239.394061 
L 275.903054 241.238116 
L 287.098039 247.331669 
L 298.293023 249.359178 
L 309.488007 257.623344 
L 320.682992 259.901377 
L 331.877976 259.214016 
L 343.07296 261.185062 
L 354.267945 263.862354 
L 365.462929 263.049842 
L 376.657913 261.051169 
L 387.852898 261.509069 
" clip-path="url(#pea687915a1)" style="fill: none; stroke: #33628d; stroke-width: 1.5; stroke-linecap: square"/>
   </g>
   <g id="line2d_24">
    <path d="M 63.198352 191.136525 
L 74.393337 197.368248 
L 85.588321 198.969238 
L 96.783305 205.052588 
L 107.97829 209.550211 
L 119.173274 212.780713 
L 130.368258 214.85888 
L 141.563243 224.652036 
L 152.758227 227.463205 
L 163.953211 230.996321 
L 175.148196 237.390622 
L 186.34318 246.959208 
L 197.538164 248.209293 
L 208.733149 247.095612 
L 219.928133 240.992559 
L 231.123117 233.734517 
L 242.318101 224.125716 
L 253.513086 229.068721 
L 264.70807 229.577928 
L 275.903054 238.524649 
L 287.098039 240.240978 
L 298.293023 249.349382 
L 309.488007 249.162105 
L 320.682992 252.682744 
L 331.877976 260.012516 
L 343.07296 257.064841 
L 354.267945 257.01097 
L 365.462929 259.411371 
L 376.657913 258.800814 
L 387.852898 255.329358 
" clip-path="url(#pea687915a1)" style="fill: none; stroke: #2f6b8e; stroke-width: 1.5; stroke-linecap: square"/>
   </g>
   <g id="line2d_25">
    <path d="M 63.198352 188.539893 
L 74.393337 189.450429 
L 85.588321 193.534282 
L 96.783305 200.712063 
L 107.97829 202.914348 
L 119.173274 206.3544 
L 130.368258 212.910055 
L 141.563243 215.744563 
L 152.758227 217.220611 
L 163.953211 224.229346 
L 175.148196 235.375711 
L 186.34318 238.85231 
L 197.538164 241.32981 
L 208.733149 242.973935 
L 219.928133 238.069436 
L 231.123117 226.265211 
L 242.318101 219.543835 
L 253.513086 219.714037 
L 264.70807 230.900462 
L 275.903054 235.568788 
L 287.098039 241.958364 
L 298.293023 243.007108 
L 309.488007 250.28021 
L 320.682992 252.956585 
L 331.877976 255.8556 
L 343.07296 253.962487 
L 354.267945 255.803667 
L 365.462929 251.988406 
L 376.657913 254.45934 
L 387.852898 250.516128 
" clip-path="url(#pea687915a1)" style="fill: none; stroke: #2c738e; stroke-width: 1.5; stroke-linecap: square"/>
   </g>
   <g id="line2d_26">
    <path d="M 63.198352 180.286343 
L 74.393337 181.741221 
L 85.588321 186.191251 
L 96.783305 190.405632 
L 107.97829 194.305756 
L 119.173274 200.357488 
L 130.368258 206.334985 
L 141.563243 210.785002 
L 152.758227 216.522407 
L 163.953211 220.040365 
L 175.148196 224.403228 
L 186.34318 236.722124 
L 197.538164 240.94291 
L 208.733149 241.4285 
L 219.928133 227.298786 
L 231.123117 219.140561 
L 242.318101 214.73886 
L 253.513086 222.116199 
L 264.70807 224.726515 
L 275.903054 231.359839 
L 287.098039 234.620393 
L 298.293023 239.488035 
L 309.488007 246.944074 
L 320.682992 243.062922 
L 331.877976 248.817412 
L 343.07296 252.414647 
L 354.267945 257.430199 
L 365.462929 251.358527 
L 376.657913 248.248959 
L 387.852898 248.508289 
" clip-path="url(#pea687915a1)" style="fill: none; stroke: #297b8e; stroke-width: 1.5; stroke-linecap: square"/>
   </g>
   <g id="line2d_27">
    <path d="M 63.198352 172.782683 
L 74.393337 175.152104 
L 85.588321 178.088983 
L 96.783305 181.398096 
L 107.97829 188.648075 
L 119.173274 194.540528 
L 130.368258 198.320194 
L 141.563243 203.270514 
L 152.758227 210.841894 
L 163.953211 214.959327 
L 175.148196 226.021939 
L 186.34318 233.722613 
L 197.538164 236.725964 
L 208.733149 232.689735 
L 219.928133 229.518132 
L 231.123117 215.430999 
L 242.318101 208.593417 
L 253.513086 213.694145 
L 264.70807 215.346538 
L 275.903054 224.397704 
L 287.098039 232.897945 
L 298.293023 232.756593 
L 309.488007 240.285652 
L 320.682992 242.609137 
L 331.877976 248.440626 
L 343.07296 245.0333 
L 354.267945 248.561214 
L 365.462929 247.199039 
L 376.657913 247.210018 
L 387.852898 247.10856 
" clip-path="url(#pea687915a1)" style="fill: none; stroke: #25838e; stroke-width: 1.5; stroke-linecap: square"/>
   </g>
   <g id="line2d_28">
    <path d="M 63.198352 166.925991 
L 74.393337 166.980734 
L 85.588321 168.141774 
L 96.783305 179.239766 
L 107.97829 180.839189 
L 119.173274 184.355034 
L 130.368258 189.873893 
L 141.563243 196.756944 
L 152.758227 205.565124 
L 163.953211 210.100341 
L 175.148196 218.283136 
L 186.34318 222.281703 
L 197.538164 233.643331 
L 208.733149 236.229485 
L 219.928133 223.13554 
L 231.123117 210.003688 
L 242.318101 201.556863 
L 253.513086 205.603823 
L 264.70807 212.734153 
L 275.903054 215.24117 
L 287.098039 223.128657 
L 298.293023 227.550966 
L 309.488007 233.025205 
L 320.682992 240.687098 
L 331.877976 243.031185 
L 343.07296 242.432103 
L 354.267945 242.163715 
L 365.462929 246.604245 
L 376.657913 241.692117 
L 387.852898 243.213354 
" clip-path="url(#pea687915a1)" style="fill: none; stroke: #228c8d; stroke-width: 1.5; stroke-linecap: square"/>
   </g>
   <g id="line2d_29">
    <path d="M 63.198352 152.979493 
L 74.393337 157.754517 
L 85.588321 167.095373 
L 96.783305 172.878142 
L 107.97829 171.765205 
L 119.173274 181.060018 
L 130.368258 184.883475 
L 141.563243 192.118556 
L 152.758227 193.797852 
L 163.953211 204.52518 
L 175.148196 213.425066 
L 186.34318 219.328462 
L 197.538164 226.523097 
L 208.733149 225.811602 
L 219.928133 216.88941 
L 231.123117 204.05157 
L 242.318101 198.560374 
L 253.513086 200.905722 
L 264.70807 208.459588 
L 275.903054 213.224507 
L 287.098039 219.223812 
L 298.293023 226.769551 
L 309.488007 231.622959 
L 320.682992 236.188704 
L 331.877976 238.615035 
L 343.07296 241.467784 
L 354.267945 237.723833 
L 365.462929 241.056066 
L 376.657913 236.207872 
L 387.852898 236.352016 
" clip-path="url(#pea687915a1)" style="fill: none; stroke: #1f948c; stroke-width: 1.5; stroke-linecap: square"/>
   </g>
   <g id="line2d_30">
    <path d="M 63.198352 149.562539 
L 74.393337 152.293444 
L 85.588321 154.114164 
L 96.783305 160.000519 
L 107.97829 168.075996 
L 119.173274 170.175984 
L 130.368258 177.499539 
L 141.563243 187.95784 
L 152.758227 192.013722 
L 163.953211 198.595514 
L 175.148196 208.314014 
L 186.34318 213.554078 
L 197.538164 221.481841 
L 208.733149 223.38969 
L 219.928133 212.748575 
L 231.123117 195.886687 
L 242.318101 190.646485 
L 253.513086 191.809627 
L 264.70807 203.283666 
L 275.903054 210.23666 
L 287.098039 215.35414 
L 298.293023 219.146514 
L 309.488007 226.176095 
L 320.682992 232.679318 
L 331.877976 230.006892 
L 343.07296 234.798081 
L 354.267945 235.23978 
L 365.462929 235.116969 
L 376.657913 236.226659 
L 387.852898 235.300117 
" clip-path="url(#pea687915a1)" style="fill: none; stroke: #1e9d89; stroke-width: 1.5; stroke-linecap: square"/>
   </g>
   <g id="line2d_31">
    <path d="M 63.198352 140.109775 
L 74.393337 143.040188 
L 85.588321 152.600889 
L 96.783305 153.264088 
L 107.97829 161.099919 
L 119.173274 168.975215 
L 130.368258 173.025398 
L 141.563243 180.928943 
L 152.758227 186.727836 
L 163.953211 197.076751 
L 175.148196 202.182867 
L 186.34318 215.410055 
L 197.538164 218.097688 
L 208.733149 221.31139 
L 219.928133 207.357812 
L 231.123117 195.684781 
L 242.318101 186.797017 
L 253.513086 187.022932 
L 264.70807 195.365285 
L 275.903054 204.229219 
L 287.098039 210.54479 
L 298.293023 219.698396 
L 309.488007 222.720107 
L 320.682992 227.973738 
L 331.877976 230.026733 
L 343.07296 235.22408 
L 354.267945 232.389994 
L 365.462929 231.717454 
L 376.657913 227.897146 
L 387.852898 229.387122 
" clip-path="url(#pea687915a1)" style="fill: none; stroke: #21a585; stroke-width: 1.5; stroke-linecap: square"/>
   </g>
   <g id="line2d_32">
    <path d="M 63.198352 131.911572 
L 74.393337 136.886539 
L 85.588321 142.221786 
L 96.783305 150.127674 
L 107.97829 158.114527 
L 119.173274 161.017942 
L 130.368258 171.520911 
L 141.563243 175.792073 
L 152.758227 184.564437 
L 163.953211 191.441719 
L 175.148196 197.757435 
L 186.34318 208.759453 
L 197.538164 216.481429 
L 208.733149 215.360772 
L 219.928133 202.732435 
L 231.123117 186.326513 
L 242.318101 181.51195 
L 253.513086 181.615243 
L 264.70807 191.678603 
L 275.903054 201.969933 
L 287.098039 208.203235 
L 298.293023 217.616553 
L 309.488007 223.383235 
L 320.682992 222.292689 
L 331.877976 226.625467 
L 343.07296 230.763522 
L 354.267945 228.650276 
L 365.462929 229.507137 
L 376.657913 228.704901 
L 387.852898 222.441294 
" clip-path="url(#pea687915a1)" style="fill: none; stroke: #26ad81; stroke-width: 1.5; stroke-linecap: square"/>
   </g>
   <g id="line2d_33">
    <path d="M 63.198352 128.484507 
L 74.393337 131.739493 
L 85.588321 136.522731 
L 96.783305 146.389489 
L 107.97829 146.531203 
L 119.173274 155.456396 
L 130.368258 162.892194 
L 141.563243 172.36669 
L 152.758227 176.561791 
L 163.953211 185.230921 
L 175.148196 196.337005 
L 186.34318 206.195892 
L 197.538164 207.175172 
L 208.733149 209.016235 
L 219.928133 197.927448 
L 231.123117 183.716916 
L 242.318101 174.443146 
L 253.513086 179.667795 
L 264.70807 185.133583 
L 275.903054 196.485774 
L 287.098039 203.74398 
L 298.293023 211.734039 
L 309.488007 213.175545 
L 320.682992 220.161074 
L 331.877976 223.457705 
L 343.07296 225.622225 
L 354.267945 226.463114 
L 365.462929 223.791302 
L 376.657913 220.812383 
L 387.852898 224.037127 
" clip-path="url(#pea687915a1)" style="fill: none; stroke: #31b57b; stroke-width: 1.5; stroke-linecap: square"/>
   </g>
   <g id="line2d_34">
    <path d="M 63.198352 119.528062 
L 74.393337 121.075132 
L 85.588321 126.944222 
L 96.783305 132.25759 
L 107.97829 143.167491 
L 119.173274 150.121166 
L 130.368258 155.828295 
L 141.563243 163.908173 
L 152.758227 169.684198 
L 163.953211 181.5575 
L 175.148196 190.019822 
L 186.34318 201.457301 
L 197.538164 205.348987 
L 208.733149 208.472069 
L 219.928133 193.946622 
L 231.123117 172.836675 
L 242.318101 169.837572 
L 253.513086 171.613813 
L 264.70807 183.391244 
L 275.903054 191.036558 
L 287.098039 197.289369 
L 298.293023 204.631722 
L 309.488007 211.306187 
L 320.682992 215.164518 
L 331.877976 219.380668 
L 343.07296 226.251058 
L 354.267945 223.474074 
L 365.462929 221.332991 
L 376.657913 219.521532 
L 387.852898 215.963354 
" clip-path="url(#pea687915a1)" style="fill: none; stroke: #3fbc73; stroke-width: 1.5; stroke-linecap: square"/>
   </g>
   <g id="line2d_35">
    <path d="M 63.198352 110.35146 
L 74.393337 117.783176 
L 85.588321 121.609698 
L 96.783305 122.282157 
L 107.97829 133.896524 
L 119.173274 139.837917 
L 130.368258 145.533658 
L 141.563243 158.439577 
L 152.758227 165.027395 
L 163.953211 175.793378 
L 175.148196 184.595884 
L 186.34318 192.703705 
L 197.538164 205.047915 
L 208.733149 205.269347 
L 219.928133 187.302631 
L 231.123117 172.80673 
L 242.318101 166.028172 
L 253.513086 164.31214 
L 264.70807 175.82293 
L 275.903054 188.046995 
L 287.098039 191.749599 
L 298.293023 203.787094 
L 309.488007 208.779356 
L 320.682992 216.914859 
L 331.877976 217.616354 
L 343.07296 221.788936 
L 354.267945 217.761099 
L 365.462929 219.970761 
L 376.657913 219.880799 
L 387.852898 211.306296 
" clip-path="url(#pea687915a1)" style="fill: none; stroke: #50c46a; stroke-width: 1.5; stroke-linecap: square"/>
   </g>
   <g id="line2d_36">
    <path d="M 63.198352 104.27267 
L 74.393337 109.279593 
L 85.588321 117.885786 
L 96.783305 118.409844 
L 107.97829 130.775209 
L 119.173274 134.813308 
L 130.368258 147.070269 
L 141.563243 154.10269 
L 152.758227 163.355353 
L 163.953211 172.124339 
L 175.148196 183.411572 
L 186.34318 191.96469 
L 197.538164 202.657151 
L 208.733149 201.084983 
L 219.928133 186.566144 
L 231.123117 172.290966 
L 242.318101 160.513555 
L 253.513086 159.967569 
L 264.70807 170.602947 
L 275.903054 180.590933 
L 287.098039 193.169877 
L 298.293023 199.14174 
L 309.488007 204.605095 
L 320.682992 210.379587 
L 331.877976 214.541627 
L 343.07296 214.714053 
L 354.267945 220.377327 
L 365.462929 217.500764 
L 376.657913 216.296929 
L 387.852898 210.344925 
" clip-path="url(#pea687915a1)" style="fill: none; stroke: #63cb5f; stroke-width: 1.5; stroke-linecap: square"/>
   </g>
   <g id="line2d_37">
    <path d="M 63.198352 100.466627 
L 74.393337 99.786391 
L 85.588321 106.922672 
L 96.783305 116.135456 
L 107.97829 126.529262 
L 119.173274 135.330922 
L 130.368258 139.583472 
L 141.563243 146.138575 
L 152.758227 155.148551 
L 163.953211 169.206077 
L 175.148196 175.140065 
L 186.34318 188.978735 
L 197.538164 194.651768 
L 208.733149 196.160271 
L 219.928133 181.852362 
L 231.123117 157.382554 
L 242.318101 156.505144 
L 253.513086 157.913231 
L 264.70807 165.866765 
L 275.903054 180.968038 
L 287.098039 187.710122 
L 298.293023 194.519463 
L 309.488007 201.512116 
L 320.682992 209.631024 
L 331.877976 207.613299 
L 343.07296 214.674288 
L 354.267945 215.637082 
L 365.462929 209.386472 
L 376.657913 212.246036 
L 387.852898 210.839391 
" clip-path="url(#pea687915a1)" style="fill: none; stroke: #77d153; stroke-width: 1.5; stroke-linecap: square"/>
   </g>
   <g id="line2d_38">
    <path d="M 63.198352 90.642988 
L 74.393337 99.928848 
L 85.588321 102.780977 
L 96.783305 112.594468 
L 107.97829 115.637543 
L 119.173274 122.781192 
L 130.368258 131.570688 
L 141.563243 141.40443 
L 152.758227 152.41441 
L 163.953211 163.143859 
L 175.148196 170.244342 
L 186.34318 181.978856 
L 197.538164 193.909676 
L 208.733149 189.665881 
L 219.928133 173.758565 
L 231.123117 155.820817 
L 242.318101 149.891394 
L 253.513086 154.047763 
L 264.70807 161.954083 
L 275.903054 171.396834 
L 287.098039 186.255536 
L 298.293023 189.905576 
L 309.488007 194.3939 
L 320.682992 204.475002 
L 331.877976 205.365535 
L 343.07296 211.420622 
L 354.267945 207.41745 
L 365.462929 210.536622 
L 376.657913 209.115778 
L 387.852898 205.981224 
" clip-path="url(#pea687915a1)" style="fill: none; stroke: #8bd646; stroke-width: 1.5; stroke-linecap: square"/>
   </g>
   <g id="line2d_39">
    <path d="M 63.198352 81.943362 
L 74.393337 85.535643 
L 85.588321 92.548981 
L 96.783305 100.093309 
L 107.97829 107.317459 
L 119.173274 118.466412 
L 130.368258 129.167271 
L 141.563243 136.793483 
L 152.758227 146.003498 
L 163.953211 156.04667 
L 175.148196 165.672868 
L 186.34318 178.702176 
L 197.538164 186.35773 
L 208.733149 188.337822 
L 219.928133 170.140632 
L 231.123117 152.016103 
L 242.318101 140.844706 
L 253.513086 144.589055 
L 264.70807 155.499663 
L 275.903054 166.387303 
L 287.098039 181.930174 
L 298.293023 187.846777 
L 309.488007 193.763733 
L 320.682992 202.660274 
L 331.877976 202.817183 
L 343.07296 206.339005 
L 354.267945 207.684813 
L 365.462929 206.943694 
L 376.657913 203.616752 
L 387.852898 201.077515 
" clip-path="url(#pea687915a1)" style="fill: none; stroke: #a2da37; stroke-width: 1.5; stroke-linecap: square"/>
   </g>
   <g id="line2d_40">
    <path d="M 63.198352 72.919148 
L 74.393337 82.314077 
L 85.588321 89.854775 
L 96.783305 99.557638 
L 107.97829 101.299658 
L 119.173274 110.987136 
L 130.368258 122.698836 
L 141.563243 131.607419 
L 152.758227 144.592271 
L 163.953211 151.669078 
L 175.148196 161.907495 
L 186.34318 175.874508 
L 197.538164 184.819074 
L 208.733149 183.657469 
L 219.928133 168.095053 
L 231.123117 144.7812 
L 242.318101 139.504419 
L 253.513086 143.593094 
L 264.70807 150.567853 
L 275.903054 164.709839 
L 287.098039 174.661016 
L 298.293023 179.367565 
L 309.488007 190.696485 
L 320.682992 192.780361 
L 331.877976 196.654468 
L 343.07296 204.156866 
L 354.267945 202.447153 
L 365.462929 202.728126 
L 376.657913 203.128647 
L 387.852898 197.996286 
" clip-path="url(#pea687915a1)" style="fill: none; stroke: #bade28; stroke-width: 1.5; stroke-linecap: square"/>
   </g>
   <g id="line2d_41">
    <path d="M 63.198352 67.971331 
L 74.393337 71.835745 
L 85.588321 79.377041 
L 96.783305 87.402973 
L 107.97829 96.846682 
L 119.173274 105.454667 
L 130.368258 110.371008 
L 141.563243 124.635195 
L 152.758227 138.152461 
L 163.953211 146.572044 
L 175.148196 159.451694 
L 186.34318 173.500244 
L 197.538164 180.398824 
L 208.733149 180.694231 
L 219.928133 160.761252 
L 231.123117 143.239522 
L 242.318101 131.353221 
L 253.513086 136.46792 
L 264.70807 151.394164 
L 275.903054 160.108827 
L 287.098039 168.335077 
L 298.293023 181.893599 
L 309.488007 188.31276 
L 320.682992 193.976367 
L 331.877976 194.956285 
L 343.07296 202.703054 
L 354.267945 199.829115 
L 365.462929 202.459044 
L 376.657913 198.988433 
L 387.852898 191.343905 
" clip-path="url(#pea687915a1)" style="fill: none; stroke: #d2e21b; stroke-width: 1.5; stroke-linecap: square"/>
   </g>
   <g id="line2d_42">
    <path d="M 63.198352 59.517003 
L 74.393337 70.19135 
L 85.588321 75.292267 
L 96.783305 82.054964 
L 107.97829 95.806614 
L 119.173274 99.508617 
L 130.368258 111.884286 
L 141.563243 123.443377 
L 152.758227 130.051583 
L 163.953211 143.761395 
L 175.148196 158.135968 
L 186.34318 169.155668 
L 197.538164 173.529162 
L 208.733149 173.075168 
L 219.928133 158.215392 
L 231.123117 135.914292 
L 242.318101 126.532484 
L 253.513086 132.065441 
L 264.70807 141.793653 
L 275.903054 155.217285 
L 287.098039 164.572337 
L 298.293023 176.451865 
L 309.488007 181.876504 
L 320.682992 187.729247 
L 331.877976 191.854429 
L 343.07296 194.642957 
L 354.267945 197.290967 
L 365.462929 199.192104 
L 376.657913 192.650062 
L 387.852898 193.225955 
" clip-path="url(#pea687915a1)" style="fill: none; stroke: #eae51a; stroke-width: 1.5; stroke-linecap: square"/>
   </g>
   <g id="line2d_43">
    <path d="M 63.198352 53.856 
L 74.393337 60.536252 
L 85.588321 69.11254 
L 96.783305 77.492276 
L 107.97829 85.644145 
L 119.173274 93.361012 
L 130.368258 106.448188 
L 141.563243 117.232245 
L 152.758227 127.973492 
L 163.953211 139.765421 
L 175.148196 153.898598 
L 186.34318 165.79751 
L 197.538164 171.038724 
L 208.733149 177.154376 
L 219.928133 154.66646 
L 231.123117 134.866568 
L 242.318101 119.821462 
L 253.513086 128.00922 
L 264.70807 141.452814 
L 275.903054 153.372607 
L 287.098039 162.608164 
L 298.293023 172.801274 
L 309.488007 179.947293 
L 320.682992 183.668801 
L 331.877976 190.89122 
L 343.07296 194.884904 
L 354.267945 193.495089 
L 365.462929 193.269525 
L 376.657913 190.186426 
L 387.852898 188.033542 
" clip-path="url(#pea687915a1)" style="fill: none; stroke: #fde725; stroke-width: 1.5; stroke-linecap: square"/>
   </g>
   <g id="patch_3">
    <path d="M 46.965625 307.872 
L 46.965625 41.76 
" style="fill: none; stroke: #000000; stroke-width: 0.8; stroke-linejoin: miter; stroke-linecap: square"/>
   </g>
   <g id="patch_4">
    <path d="M 404.085625 307.872 
L 404.085625 41.76 
" style="fill: none; stroke: #000000; stroke-width: 0.8; stroke-linejoin: miter; stroke-linecap: square"/>
   </g>
   <g id="patch_5">
    <path d="M 46.965625 307.872 
L 404.085625 307.872 
" style="fill: none; stroke: #000000; stroke-width: 0.8; stroke-linejoin: miter; stroke-linecap: square"/>
   </g>
   <g id="patch_6">
    <path d="M 46.965625 41.76 
L 404.085625 41.76 
" style="fill: none; stroke: #000000; stroke-width: 0.8; stroke-linejoin: miter; stroke-linecap: square"/>
   </g>
   <g id="legend_1">
    <g id="patch_7">
     <path d="M 423.941625 307.872 
L 637.826 307.872 
Q 639.826 307.872 639.826 305.872 
L 639.826 145.412625 
Q 639.826 143.412625 637.826 143.412625 
L 423.941625 143.412625 
Q 421.941625 143.412625 421.941625 145.412625 
L 421.941625 305.872 
Q 421.941625 307.872 423.941625 307.872 
z
" style="fill: #ffffff; opacity: 0.8; stroke: #cccccc; stroke-linejoin: miter"/>
    </g>
    <g id="text_17">
     <!-- Readout pulse amplitude () -->
     <g transform="translate(462.783031 155.011063) scale(0.1 -0.1)">
      <defs>
       <path id="DejaVuSans-52" d="M 2841 2188 
Q 3044 2119 3236 1894 
Q 3428 1669 3622 1275 
L 4263 0 
L 3584 0 
L 2988 1197 
Q 2756 1666 2539 1819 
Q 2322 1972 1947 1972 
L 1259 1972 
L 1259 0 
L 628 0 
L 628 4666 
L 2053 4666 
Q 2853 4666 3247 4331 
Q 3641 3997 3641 3322 
Q 3641 2881 3436 2590 
Q 3231 2300 2841 2188 
z
M 1259 4147 
L 1259 2491 
L 2053 2491 
Q 2509 2491 2742 2702 
Q 2975 2913 2975 3322 
Q 2975 3731 2742 3939 
Q 2509 4147 2053 4147 
L 1259 4147 
z
" transform="scale(0.015625)"/>
       <path id="DejaVuSans-6f" d="M 1959 3097 
Q 1497 3097 1228 2736 
Q 959 2375 959 1747 
Q 959 1119 1226 758 
Q 1494 397 1959 397 
Q 2419 397 2687 759 
Q 2956 1122 2956 1747 
Q 2956 2369 2687 2733 
Q 2419 3097 1959 3097 
z
M 1959 3584 
Q 2709 3584 3137 3096 
Q 3566 2609 3566 1747 
Q 3566 888 3137 398 
Q 2709 -91 1959 -91 
Q 1206 -91 779 398 
Q 353 888 353 1747 
Q 353 2609 779 3096 
Q 1206 3584 1959 3584 
z
" transform="scale(0.015625)"/>
       <path id="DejaVuSans-70" d="M 1159 525 
L 1159 -1331 
L 581 -1331 
L 581 3500 
L 1159 3500 
L 1159 2969 
Q 1341 3281 1617 3432 
Q 1894 3584 2278 3584 
Q 2916 3584 3314 3078 
Q 3713 2572 3713 1747 
Q 3713 922 3314 415 
Q 2916 -91 2278 -91 
Q 1894 -91 1617 61 
Q 1341 213 1159 525 
z
M 3116 1747 
Q 3116 2381 2855 2742 
Q 2594 3103 2138 3103 
Q 1681 3103 1420 2742 
Q 1159 2381 1159 1747 
Q 1159 1113 1420 752 
Q 1681 391 2138 391 
Q 2594 391 2855 752 
Q 3116 1113 3116 1747 
z
" transform="scale(0.015625)"/>
       <path id="DejaVuSans-6c" d="M 603 4863 
L 1178 4863 
L 1178 0 
L 603 0 
L 603 4863 
z
" transform="scale(0.015625)"/>
       <path id="DejaVuSans-73" d="M 2834 3397 
L 2834 2853 
Q 2591 2978 2328 3040 
Q 2066 3103 1784 3103 
Q 1356 3103 1142 2972 
Q 928 2841 928 2578 
Q 928 2378 1081 2264 
Q 1234 2150 1697 2047 
L 1894 2003 
Q 2506 1872 2764 1633 
Q 3022 1394 3022 966 
Q 3022 478 2636 193 
Q 2250 -91 1575 -91 
Q 1294 -91 989 -36 
Q 684 19 347 128 
L 347 722 
Q 666 556 975 473 
Q 1284 391 1588 391 
Q 1994 391 2212 530 
Q 2431 669 2431 922 
Q 2431 1156 2273 1281 
Q 2116 1406 1581 1522 
L 1381 1569 
Q 847 1681 609 1914 
Q 372 2147 372 2553 
Q 372 3047 722 3315 
Q 1072 3584 1716 3584 
Q 2034 3584 2315 3537 
Q 2597 3491 2834 3397 
z
" transform="scale(0.015625)"/>
       <path id="DejaVuSans-6d" d="M 3328 2828 
Q 3544 3216 3844 3400 
Q 4144 3584 4550 3584 
Q 5097 3584 5394 3201 
Q 5691 2819 5691 2113 
L 5691 0 
L 5113 0 
L 5113 2094 
Q 5113 2597 4934 2840 
Q 4756 3084 4391 3084 
Q 3944 3084 3684 2787 
Q 3425 2491 3425 1978 
L 3425 0 
L 2847 0 
L 2847 2094 
Q 2847 2600 2669 2842 
Q 2491 3084 2119 3084 
Q 1678 3084 1418 2786 
Q 1159 2488 1159 1978 
L 1159 0 
L 581 0 
L 581 3500 
L 1159 3500 
L 1159 2956 
Q 1356 3278 1631 3431 
Q 1906 3584 2284 3584 
Q 2666 3584 2933 3390 
Q 3200 3197 3328 2828 
z
" transform="scale(0.015625)"/>
       <path id="DejaVuSans-28" d="M 1984 4856 
Q 1566 4138 1362 3434 
Q 1159 2731 1159 2009 
Q 1159 1288 1364 580 
Q 1569 -128 1984 -844 
L 1484 -844 
Q 1016 -109 783 600 
Q 550 1309 550 2009 
Q 550 2706 781 3412 
Q 1013 4119 1484 4856 
L 1984 4856 
z
" transform="scale(0.015625)"/>
       <path id="DejaVuSans-29" d="M 513 4856 
L 1013 4856 
Q 1481 4119 1714 3412 
Q 1947 2706 1947 2009 
Q 1947 1309 1714 600 
Q 1481 -109 1013 -844 
L 513 -844 
Q 928 -128 1133 580 
Q 1338 1288 1338 2009 
Q 1338 2731 1133 3434 
Q 928 4138 513 4856 
z
" transform="scale(0.015625)"/>
      </defs>
      <use xlink:href="#DejaVuSans-52"/>
      <use xlink:href="#DejaVuSans-65" x="64.982422"/>
      <use xlink:href="#DejaVuSans-61" x="126.505859"/>
      <use xlink:href="#DejaVuSans-64" x="187.785156"/>
      <use xlink:href="#DejaVuSans-6f" x="251.261719"/>
      <use xlink:href="#DejaVuSans-75" x="312.443359"/>
      <use xlink:href="#DejaVuSans-74" x="375.822266"/>
      <use xlink:href="#DejaVuSans-20" x="415.03125"/>
      <use xlink:href="#DejaVuSans-70" x="446.818359"/>
      <use xlink:href="#DejaVuSans-75" x="510.294922"/>
      <use xlink:href="#DejaVuSans-6c" x="573.673828"/>
      <use xlink:href="#DejaVuSans-73" x="601.457031"/>
      <use xlink:href="#DejaVuSans-65" x="653.556641"/>
      <use xlink:href="#DejaVuSans-20" x="715.080078"/>
      <use xlink:href="#DejaVuSans-61" x="746.867188"/>
      <use xlink:href="#DejaVuSans-6d" x="808.146484"/>
      <use xlink:href="#DejaVuSans-70" x="905.558594"/>
      <use xlink:href="#DejaVuSans-6c" x="969.035156"/>
      <use xlink:href="#DejaVuSans-69" x="996.818359"/>
      <use xlink:href="#DejaVuSans-74" x="1024.601562"/>
      <use xlink:href="#DejaVuSans-75" x="1063.810547"/>
      <use xlink:href="#DejaVuSans-64" x="1127.189453"/>
      <use xlink:href="#DejaVuSans-65" x="1190.666016"/>
      <use xlink:href="#DejaVuSans-20" x="1252.189453"/>
      <use xlink:href="#DejaVuSans-28" x="1283.976562"/>
      <use xlink:href="#DejaVuSans-29" x="1322.990234"/>
     </g>
    </g>
    <g id="line2d_44">
     <path d="M 425.941625 166.189188 
L 435.941625 166.189188 
L 445.941625 166.189188 
" style="fill: none; stroke: #440154; stroke-width: 1.5; stroke-linecap: square"/>
    </g>
    <g id="text_18">
     <!-- 0.1 -->
     <g transform="translate(453.941625 169.689188) scale(0.1 -0.1)">
      <defs>
       <path id="DejaVuSans-2e" d="M 684 794 
L 1344 794 
L 1344 0 
L 684 0 
L 684 794 
z
" transform="scale(0.015625)"/>
      </defs>
      <use xlink:href="#DejaVuSans-30"/>
      <use xlink:href="#DejaVuSans-2e" x="63.623047"/>
      <use xlink:href="#DejaVuSans-31" x="95.410156"/>
     </g>
    </g>
    <g id="line2d_45">
     <path d="M 425.941625 180.867313 
L 435.941625 180.867313 
L 445.941625 180.867313 
" style="fill: none; stroke: #470d60; stroke-width: 1.5; stroke-linecap: square"/>
    </g>
    <g id="text_19">
     <!-- 0.121 -->
     <g transform="translate(453.941625 184.367313) scale(0.1 -0.1)">
      <use xlink:href="#DejaVuSans-30"/>
      <use xlink:href="#DejaVuSans-2e" x="63.623047"/>
      <use xlink:href="#DejaVuSans-31" x="95.410156"/>
      <use xlink:href="#DejaVuSans-32" x="159.033203"/>
      <use xlink:href="#DejaVuSans-31" x="222.65625"/>
     </g>
    </g>
    <g id="line2d_46">
     <path d="M 425.941625 195.545438 
L 435.941625 195.545438 
L 445.941625 195.545438 
" style="fill: none; stroke: #481a6c; stroke-width: 1.5; stroke-linecap: square"/>
    </g>
    <g id="text_20">
     <!-- 0.141 -->
     <g transform="translate(453.941625 199.045438) scale(0.1 -0.1)">
      <use xlink:href="#DejaVuSans-30"/>
      <use xlink:href="#DejaVuSans-2e" x="63.623047"/>
      <use xlink:href="#DejaVuSans-31" x="95.410156"/>
      <use xlink:href="#DejaVuSans-34" x="159.033203"/>
      <use xlink:href="#DejaVuSans-31" x="222.65625"/>
     </g>
    </g>
    <g id="line2d_47">
     <path d="M 425.941625 210.223563 
L 435.941625 210.223563 
L 445.941625 210.223563 
" style="fill: none; stroke: #482576; stroke-width: 1.5; stroke-linecap: square"/>
    </g>
    <g id="text_21">
     <!-- 0.162 -->
     <g transform="translate(453.941625 213.723563) scale(0.1 -0.1)">
      <defs>
       <path id="DejaVuSans-36" d="M 2113 2584 
Q 1688 2584 1439 2293 
Q 1191 2003 1191 1497 
Q 1191 994 1439 701 
Q 1688 409 2113 409 
Q 2538 409 2786 701 
Q 3034 994 3034 1497 
Q 3034 2003 2786 2293 
Q 2538 2584 2113 2584 
z
M 3366 4563 
L 3366 3988 
Q 3128 4100 2886 4159 
Q 2644 4219 2406 4219 
Q 1781 4219 1451 3797 
Q 1122 3375 1075 2522 
Q 1259 2794 1537 2939 
Q 1816 3084 2150 3084 
Q 2853 3084 3261 2657 
Q 3669 2231 3669 1497 
Q 3669 778 3244 343 
Q 2819 -91 2113 -91 
Q 1303 -91 875 529 
Q 447 1150 447 2328 
Q 447 3434 972 4092 
Q 1497 4750 2381 4750 
Q 2619 4750 2861 4703 
Q 3103 4656 3366 4563 
z
" transform="scale(0.015625)"/>
      </defs>
      <use xlink:href="#DejaVuSans-30"/>
      <use xlink:href="#DejaVuSans-2e" x="63.623047"/>
      <use xlink:href="#DejaVuSans-31" x="95.410156"/>
      <use xlink:href="#DejaVuSans-36" x="159.033203"/>
      <use xlink:href="#DejaVuSans-32" x="222.65625"/>
     </g>
    </g>
    <g id="line2d_48">
     <path d="M 425.941625 224.901688 
L 435.941625 224.901688 
L 445.941625 224.901688 
" style="fill: none; stroke: #46307e; stroke-width: 1.5; stroke-linecap: square"/>
    </g>
    <g id="text_22">
     <!-- 0.183 -->
     <g transform="translate(453.941625 228.401688) scale(0.1 -0.1)">
      <use xlink:href="#DejaVuSans-30"/>
      <use xlink:href="#DejaVuSans-2e" x="63.623047"/>
      <use xlink:href="#DejaVuSans-31" x="95.410156"/>
      <use xlink:href="#DejaVuSans-38" x="159.033203"/>
      <use xlink:href="#DejaVuSans-33" x="222.65625"/>
     </g>
    </g>
    <g id="line2d_49">
     <path d="M 425.941625 239.579813 
L 435.941625 239.579813 
L 445.941625 239.579813 
" style="fill: none; stroke: #443b84; stroke-width: 1.5; stroke-linecap: square"/>
    </g>
    <g id="text_23">
     <!-- 0.203 -->
     <g transform="translate(453.941625 243.079813) scale(0.1 -0.1)">
      <use xlink:href="#DejaVuSans-30"/>
      <use xlink:href="#DejaVuSans-2e" x="63.623047"/>
      <use xlink:href="#DejaVuSans-32" x="95.410156"/>
      <use xlink:href="#DejaVuSans-30" x="159.033203"/>
      <use xlink:href="#DejaVuSans-33" x="222.65625"/>
     </g>
    </g>
    <g id="line2d_50">
     <path d="M 425.941625 254.257938 
L 435.941625 254.257938 
L 445.941625 254.257938 
" style="fill: none; stroke: #404588; stroke-width: 1.5; stroke-linecap: square"/>
    </g>
    <g id="text_24">
     <!-- 0.224 -->
     <g transform="translate(453.941625 257.757938) scale(0.1 -0.1)">
      <use xlink:href="#DejaVuSans-30"/>
      <use xlink:href="#DejaVuSans-2e" x="63.623047"/>
      <use xlink:href="#DejaVuSans-32" x="95.410156"/>
      <use xlink:href="#DejaVuSans-32" x="159.033203"/>
      <use xlink:href="#DejaVuSans-34" x="222.65625"/>
     </g>
    </g>
    <g id="line2d_51">
     <path d="M 425.941625 268.936062 
L 435.941625 268.936062 
L 445.941625 268.936062 
" style="fill: none; stroke: #3c4f8a; stroke-width: 1.5; stroke-linecap: square"/>
    </g>
    <g id="text_25">
     <!-- 0.245 -->
     <g transform="translate(453.941625 272.436062) scale(0.1 -0.1)">
      <use xlink:href="#DejaVuSans-30"/>
      <use xlink:href="#DejaVuSans-2e" x="63.623047"/>
      <use xlink:href="#DejaVuSans-32" x="95.410156"/>
      <use xlink:href="#DejaVuSans-34" x="159.033203"/>
      <use xlink:href="#DejaVuSans-35" x="222.65625"/>
     </g>
    </g>
    <g id="line2d_52">
     <path d="M 425.941625 283.614188 
L 435.941625 283.614188 
L 445.941625 283.614188 
" style="fill: none; stroke: #38598c; stroke-width: 1.5; stroke-linecap: square"/>
    </g>
    <g id="text_26">
     <!-- 0.266 -->
     <g transform="translate(453.941625 287.114188) scale(0.1 -0.1)">
      <use xlink:href="#DejaVuSans-30"/>
      <use xlink:href="#DejaVuSans-2e" x="63.623047"/>
      <use xlink:href="#DejaVuSans-32" x="95.410156"/>
      <use xlink:href="#DejaVuSans-36" x="159.033203"/>
      <use xlink:href="#DejaVuSans-36" x="222.65625"/>
     </g>
    </g>
    <g id="line2d_53">
     <path d="M 425.941625 298.292312 
L 435.941625 298.292312 
L 445.941625 298.292312 
" style="fill: none; stroke: #33628d; stroke-width: 1.5; stroke-linecap: square"/>
    </g>
    <g id="text_27">
     <!-- 0.286 -->
     <g transform="translate(453.941625 301.792312) scale(0.1 -0.1)">
      <use xlink:href="#DejaVuSans-30"/>
      <use xlink:href="#DejaVuSans-2e" x="63.623047"/>
      <use xlink:href="#DejaVuSans-32" x="95.410156"/>
      <use xlink:href="#DejaVuSans-38" x="159.033203"/>
      <use xlink:href="#DejaVuSans-36" x="222.65625"/>
     </g>
    </g>
    <g id="line2d_54">
     <path d="M 502.56975 166.189188 
L 512.56975 166.189188 
L 522.56975 166.189188 
" style="fill: none; stroke: #2f6b8e; stroke-width: 1.5; stroke-linecap: square"/>
    </g>
    <g id="text_28">
     <!-- 0.307 -->
     <g transform="translate(530.56975 169.689188) scale(0.1 -0.1)">
      <use xlink:href="#DejaVuSans-30"/>
      <use xlink:href="#DejaVuSans-2e" x="63.623047"/>
      <use xlink:href="#DejaVuSans-33" x="95.410156"/>
      <use xlink:href="#DejaVuSans-30" x="159.033203"/>
      <use xlink:href="#DejaVuSans-37" x="222.65625"/>
     </g>
    </g>
    <g id="line2d_55">
     <path d="M 502.56975 180.867313 
L 512.56975 180.867313 
L 522.56975 180.867313 
" style="fill: none; stroke: #2c738e; stroke-width: 1.5; stroke-linecap: square"/>
    </g>
    <g id="text_29">
     <!-- 0.328 -->
     <g transform="translate(530.56975 184.367313) scale(0.1 -0.1)">
      <use xlink:href="#DejaVuSans-30"/>
      <use xlink:href="#DejaVuSans-2e" x="63.623047"/>
      <use xlink:href="#DejaVuSans-33" x="95.410156"/>
      <use xlink:href="#DejaVuSans-32" x="159.033203"/>
      <use xlink:href="#DejaVuSans-38" x="222.65625"/>
     </g>
    </g>
    <g id="line2d_56">
     <path d="M 502.56975 195.545438 
L 512.56975 195.545438 
L 522.56975 195.545438 
" style="fill: none; stroke: #297b8e; stroke-width: 1.5; stroke-linecap: square"/>
    </g>
    <g id="text_30">
     <!-- 0.348 -->
     <g transform="translate(530.56975 199.045438) scale(0.1 -0.1)">
      <use xlink:href="#DejaVuSans-30"/>
      <use xlink:href="#DejaVuSans-2e" x="63.623047"/>
      <use xlink:href="#DejaVuSans-33" x="95.410156"/>
      <use xlink:href="#DejaVuSans-34" x="159.033203"/>
      <use xlink:href="#DejaVuSans-38" x="222.65625"/>
     </g>
    </g>
    <g id="line2d_57">
     <path d="M 502.56975 210.223563 
L 512.56975 210.223563 
L 522.56975 210.223563 
" style="fill: none; stroke: #25838e; stroke-width: 1.5; stroke-linecap: square"/>
    </g>
    <g id="text_31">
     <!-- 0.369 -->
     <g transform="translate(530.56975 213.723563) scale(0.1 -0.1)">
      <use xlink:href="#DejaVuSans-30"/>
      <use xlink:href="#DejaVuSans-2e" x="63.623047"/>
      <use xlink:href="#DejaVuSans-33" x="95.410156"/>
      <use xlink:href="#DejaVuSans-36" x="159.033203"/>
      <use xlink:href="#DejaVuSans-39" x="222.65625"/>
     </g>
    </g>
    <g id="line2d_58">
     <path d="M 502.56975 224.901688 
L 512.56975 224.901688 
L 522.56975 224.901688 
" style="fill: none; stroke: #228c8d; stroke-width: 1.5; stroke-linecap: square"/>
    </g>
    <g id="text_32">
     <!-- 0.39 -->
     <g transform="translate(530.56975 228.401688) scale(0.1 -0.1)">
      <use xlink:href="#DejaVuSans-30"/>
      <use xlink:href="#DejaVuSans-2e" x="63.623047"/>
      <use xlink:href="#DejaVuSans-33" x="95.410156"/>
      <use xlink:href="#DejaVuSans-39" x="159.033203"/>
     </g>
    </g>
    <g id="line2d_59">
     <path d="M 502.56975 239.579813 
L 512.56975 239.579813 
L 522.56975 239.579813 
" style="fill: none; stroke: #1f948c; stroke-width: 1.5; stroke-linecap: square"/>
    </g>
    <g id="text_33">
     <!-- 0.41 -->
     <g transform="translate(530.56975 243.079813) scale(0.1 -0.1)">
      <use xlink:href="#DejaVuSans-30"/>
      <use xlink:href="#DejaVuSans-2e" x="63.623047"/>
      <use xlink:href="#DejaVuSans-34" x="95.410156"/>
      <use xlink:href="#DejaVuSans-31" x="159.033203"/>
     </g>
    </g>
    <g id="line2d_60">
     <path d="M 502.56975 254.257938 
L 512.56975 254.257938 
L 522.56975 254.257938 
" style="fill: none; stroke: #1e9d89; stroke-width: 1.5; stroke-linecap: square"/>
    </g>
    <g id="text_34">
     <!-- 0.431 -->
     <g transform="translate(530.56975 257.757938) scale(0.1 -0.1)">
      <use xlink:href="#DejaVuSans-30"/>
      <use xlink:href="#DejaVuSans-2e" x="63.623047"/>
      <use xlink:href="#DejaVuSans-34" x="95.410156"/>
      <use xlink:href="#DejaVuSans-33" x="159.033203"/>
      <use xlink:href="#DejaVuSans-31" x="222.65625"/>
     </g>
    </g>
    <g id="line2d_61">
     <path d="M 502.56975 268.936062 
L 512.56975 268.936062 
L 522.56975 268.936062 
" style="fill: none; stroke: #21a585; stroke-width: 1.5; stroke-linecap: square"/>
    </g>
    <g id="text_35">
     <!-- 0.452 -->
     <g transform="translate(530.56975 272.436062) scale(0.1 -0.1)">
      <use xlink:href="#DejaVuSans-30"/>
      <use xlink:href="#DejaVuSans-2e" x="63.623047"/>
      <use xlink:href="#DejaVuSans-34" x="95.410156"/>
      <use xlink:href="#DejaVuSans-35" x="159.033203"/>
      <use xlink:href="#DejaVuSans-32" x="222.65625"/>
     </g>
    </g>
    <g id="line2d_62">
     <path d="M 502.56975 283.614188 
L 512.56975 283.614188 
L 522.56975 283.614188 
" style="fill: none; stroke: #26ad81; stroke-width: 1.5; stroke-linecap: square"/>
    </g>
    <g id="text_36">
     <!-- 0.472 -->
     <g transform="translate(530.56975 287.114188) scale(0.1 -0.1)">
      <use xlink:href="#DejaVuSans-30"/>
      <use xlink:href="#DejaVuSans-2e" x="63.623047"/>
      <use xlink:href="#DejaVuSans-34" x="95.410156"/>
      <use xlink:href="#DejaVuSans-37" x="159.033203"/>
      <use xlink:href="#DejaVuSans-32" x="222.65625"/>
     </g>
    </g>
    <g id="line2d_63">
     <path d="M 502.56975 298.292312 
L 512.56975 298.292312 
L 522.56975 298.292312 
" style="fill: none; stroke: #31b57b; stroke-width: 1.5; stroke-linecap: square"/>
    </g>
    <g id="text_37">
     <!-- 0.493 -->
     <g transform="translate(530.56975 301.792312) scale(0.1 -0.1)">
      <use xlink:href="#DejaVuSans-30"/>
      <use xlink:href="#DejaVuSans-2e" x="63.623047"/>
      <use xlink:href="#DejaVuSans-34" x="95.410156"/>
      <use xlink:href="#DejaVuSans-39" x="159.033203"/>
      <use xlink:href="#DejaVuSans-33" x="222.65625"/>
     </g>
    </g>
    <g id="line2d_64">
     <path d="M 579.197875 166.189188 
L 589.197875 166.189188 
L 599.197875 166.189188 
" style="fill: none; stroke: #3fbc73; stroke-width: 1.5; stroke-linecap: square"/>
    </g>
    <g id="text_38">
     <!-- 0.514 -->
     <g transform="translate(607.197875 169.689188) scale(0.1 -0.1)">
      <use xlink:href="#DejaVuSans-30"/>
      <use xlink:href="#DejaVuSans-2e" x="63.623047"/>
      <use xlink:href="#DejaVuSans-35" x="95.410156"/>
      <use xlink:href="#DejaVuSans-31" x="159.033203"/>
      <use xlink:href="#DejaVuSans-34" x="222.65625"/>
     </g>
    </g>
    <g id="line2d_65">
     <path d="M 579.197875 180.867313 
L 589.197875 180.867313 
L 599.197875 180.867313 
" style="fill: none; stroke: #50c46a; stroke-width: 1.5; stroke-linecap: square"/>
    </g>
    <g id="text_39">
     <!-- 0.534 -->
     <g transform="translate(607.197875 184.367313) scale(0.1 -0.1)">
      <use xlink:href="#DejaVuSans-30"/>
      <use xlink:href="#DejaVuSans-2e" x="63.623047"/>
      <use xlink:href="#DejaVuSans-35" x="95.410156"/>
      <use xlink:href="#DejaVuSans-33" x="159.033203"/>
      <use xlink:href="#DejaVuSans-34" x="222.65625"/>
     </g>
    </g>
    <g id="line2d_66">
     <path d="M 579.197875 195.545438 
L 589.197875 195.545438 
L 599.197875 195.545438 
" style="fill: none; stroke: #63cb5f; stroke-width: 1.5; stroke-linecap: square"/>
    </g>
    <g id="text_40">
     <!-- 0.555 -->
     <g transform="translate(607.197875 199.045438) scale(0.1 -0.1)">
      <use xlink:href="#DejaVuSans-30"/>
      <use xlink:href="#DejaVuSans-2e" x="63.623047"/>
      <use xlink:href="#DejaVuSans-35" x="95.410156"/>
      <use xlink:href="#DejaVuSans-35" x="159.033203"/>
      <use xlink:href="#DejaVuSans-35" x="222.65625"/>
     </g>
    </g>
    <g id="line2d_67">
     <path d="M 579.197875 210.223563 
L 589.197875 210.223563 
L 599.197875 210.223563 
" style="fill: none; stroke: #77d153; stroke-width: 1.5; stroke-linecap: square"/>
    </g>
    <g id="text_41">
     <!-- 0.576 -->
     <g transform="translate(607.197875 213.723563) scale(0.1 -0.1)">
      <use xlink:href="#DejaVuSans-30"/>
      <use xlink:href="#DejaVuSans-2e" x="63.623047"/>
      <use xlink:href="#DejaVuSans-35" x="95.410156"/>
      <use xlink:href="#DejaVuSans-37" x="159.033203"/>
      <use xlink:href="#DejaVuSans-36" x="222.65625"/>
     </g>
    </g>
    <g id="line2d_68">
     <path d="M 579.197875 224.901688 
L 589.197875 224.901688 
L 599.197875 224.901688 
" style="fill: none; stroke: #8bd646; stroke-width: 1.5; stroke-linecap: square"/>
    </g>
    <g id="text_42">
     <!-- 0.597 -->
     <g transform="translate(607.197875 228.401688) scale(0.1 -0.1)">
      <use xlink:href="#DejaVuSans-30"/>
      <use xlink:href="#DejaVuSans-2e" x="63.623047"/>
      <use xlink:href="#DejaVuSans-35" x="95.410156"/>
      <use xlink:href="#DejaVuSans-39" x="159.033203"/>
      <use xlink:href="#DejaVuSans-37" x="222.65625"/>
     </g>
    </g>
    <g id="line2d_69">
     <path d="M 579.197875 239.579813 
L 589.197875 239.579813 
L 599.197875 239.579813 
" style="fill: none; stroke: #a2da37; stroke-width: 1.5; stroke-linecap: square"/>
    </g>
    <g id="text_43">
     <!-- 0.617 -->
     <g transform="translate(607.197875 243.079813) scale(0.1 -0.1)">
      <use xlink:href="#DejaVuSans-30"/>
      <use xlink:href="#DejaVuSans-2e" x="63.623047"/>
      <use xlink:href="#DejaVuSans-36" x="95.410156"/>
      <use xlink:href="#DejaVuSans-31" x="159.033203"/>
      <use xlink:href="#DejaVuSans-37" x="222.65625"/>
     </g>
    </g>
    <g id="line2d_70">
     <path d="M 579.197875 254.257938 
L 589.197875 254.257938 
L 599.197875 254.257938 
" style="fill: none; stroke: #bade28; stroke-width: 1.5; stroke-linecap: square"/>
    </g>
    <g id="text_44">
     <!-- 0.638 -->
     <g transform="translate(607.197875 257.757938) scale(0.1 -0.1)">
      <use xlink:href="#DejaVuSans-30"/>
      <use xlink:href="#DejaVuSans-2e" x="63.623047"/>
      <use xlink:href="#DejaVuSans-36" x="95.410156"/>
      <use xlink:href="#DejaVuSans-33" x="159.033203"/>
      <use xlink:href="#DejaVuSans-38" x="222.65625"/>
     </g>
    </g>
    <g id="line2d_71">
     <path d="M 579.197875 268.936062 
L 589.197875 268.936062 
L 599.197875 268.936062 
" style="fill: none; stroke: #d2e21b; stroke-width: 1.5; stroke-linecap: square"/>
    </g>
    <g id="text_45">
     <!-- 0.659 -->
     <g transform="translate(607.197875 272.436062) scale(0.1 -0.1)">
      <use xlink:href="#DejaVuSans-30"/>
      <use xlink:href="#DejaVuSans-2e" x="63.623047"/>
      <use xlink:href="#DejaVuSans-36" x="95.410156"/>
      <use xlink:href="#DejaVuSans-35" x="159.033203"/>
      <use xlink:href="#DejaVuSans-39" x="222.65625"/>
     </g>
    </g>
    <g id="line2d_72">
     <path d="M 579.197875 283.614188 
L 589.197875 283.614188 
L 599.197875 283.614188 
" style="fill: none; stroke: #eae51a; stroke-width: 1.5; stroke-linecap: square"/>
    </g>
    <g id="text_46">
     <!-- 0.679 -->
     <g transform="translate(607.197875 287.114188) scale(0.1 -0.1)">
      <use xlink:href="#DejaVuSans-30"/>
      <use xlink:href="#DejaVuSans-2e" x="63.623047"/>
      <use xlink:href="#DejaVuSans-36" x="95.410156"/>
      <use xlink:href="#DejaVuSans-37" x="159.033203"/>
      <use xlink:href="#DejaVuSans-39" x="222.65625"/>
     </g>
    </g>
    <g id="line2d_73">
     <path d="M 579.197875 298.292312 
L 589.197875 298.292312 
L 599.197875 298.292312 
" style="fill: none; stroke: #fde725; stroke-width: 1.5; stroke-linecap: square"/>
    </g>
    <g id="text_47">
     <!-- 0.7 -->
     <g transform="translate(607.197875 301.792312) scale(0.1 -0.1)">
      <use xlink:href="#DejaVuSans-30"/>
      <use xlink:href="#DejaVuSans-2e" x="63.623047"/>
      <use xlink:href="#DejaVuSans-37" x="95.410156"/>
     </g>
    </g>
   </g>
  </g>
  <g id="text_48">
   <!-- x0x1-y0 One-tone-powerDep -->
   <g transform="translate(132.961563 16.318125) scale(0.12 -0.12)">
    <defs>
     <path id="DejaVuSans-78" d="M 3513 3500 
L 2247 1797 
L 3578 0 
L 2900 0 
L 1881 1375 
L 863 0 
L 184 0 
L 1544 1831 
L 300 3500 
L 978 3500 
L 1906 2253 
L 2834 3500 
L 3513 3500 
z
" transform="scale(0.015625)"/>
     <path id="DejaVuSans-2d" d="M 313 2009 
L 1997 2009 
L 1997 1497 
L 313 1497 
L 313 2009 
z
" transform="scale(0.015625)"/>
     <path id="DejaVuSans-4f" d="M 2522 4238 
Q 1834 4238 1429 3725 
Q 1025 3213 1025 2328 
Q 1025 1447 1429 934 
Q 1834 422 2522 422 
Q 3209 422 3611 934 
Q 4013 1447 4013 2328 
Q 4013 3213 3611 3725 
Q 3209 4238 2522 4238 
z
M 2522 4750 
Q 3503 4750 4090 4092 
Q 4678 3434 4678 2328 
Q 4678 1225 4090 567 
Q 3503 -91 2522 -91 
Q 1538 -91 948 565 
Q 359 1222 359 2328 
Q 359 3434 948 4092 
Q 1538 4750 2522 4750 
z
" transform="scale(0.015625)"/>
     <path id="DejaVuSans-77" d="M 269 3500 
L 844 3500 
L 1563 769 
L 2278 3500 
L 2956 3500 
L 3675 769 
L 4391 3500 
L 4966 3500 
L 4050 0 
L 3372 0 
L 2619 2869 
L 1863 0 
L 1184 0 
L 269 3500 
z
" transform="scale(0.015625)"/>
     <path id="DejaVuSans-44" d="M 1259 4147 
L 1259 519 
L 2022 519 
Q 2988 519 3436 956 
Q 3884 1394 3884 2338 
Q 3884 3275 3436 3711 
Q 2988 4147 2022 4147 
L 1259 4147 
z
M 628 4666 
L 1925 4666 
Q 3281 4666 3915 4102 
Q 4550 3538 4550 2338 
Q 4550 1131 3912 565 
Q 3275 0 1925 0 
L 628 0 
L 628 4666 
z
" transform="scale(0.015625)"/>
    </defs>
    <use xlink:href="#DejaVuSans-78"/>
    <use xlink:href="#DejaVuSans-30" x="59.179688"/>
    <use xlink:href="#DejaVuSans-78" x="122.802734"/>
    <use xlink:href="#DejaVuSans-31" x="181.982422"/>
    <use xlink:href="#DejaVuSans-2d" x="245.605469"/>
    <use xlink:href="#DejaVuSans-79" x="279.939453"/>
    <use xlink:href="#DejaVuSans-30" x="339.119141"/>
    <use xlink:href="#DejaVuSans-20" x="402.742188"/>
    <use xlink:href="#DejaVuSans-4f" x="434.529297"/>
    <use xlink:href="#DejaVuSans-6e" x="513.240234"/>
    <use xlink:href="#DejaVuSans-65" x="576.619141"/>
    <use xlink:href="#DejaVuSans-2d" x="638.142578"/>
    <use xlink:href="#DejaVuSans-74" x="674.226562"/>
    <use xlink:href="#DejaVuSans-6f" x="713.435547"/>
    <use xlink:href="#DejaVuSans-6e" x="774.617188"/>
    <use xlink:href="#DejaVuSans-65" x="837.996094"/>
    <use xlink:href="#DejaVuSans-2d" x="899.519531"/>
    <use xlink:href="#DejaVuSans-70" x="935.603516"/>
    <use xlink:href="#DejaVuSans-6f" x="999.080078"/>
    <use xlink:href="#DejaVuSans-77" x="1060.261719"/>
    <use xlink:href="#DejaVuSans-65" x="1142.048828"/>
    <use xlink:href="#DejaVuSans-72" x="1203.572266"/>
    <use xlink:href="#DejaVuSans-44" x="1244.685547"/>
    <use xlink:href="#DejaVuSans-65" x="1321.6875"/>
    <use xlink:href="#DejaVuSans-70" x="1383.210938"/>
   </g>
   <!-- tuid: 20240304-140127-164-7ae852 -->
   <g transform="translate(110.176563 29.7555) scale(0.12 -0.12)">
    <defs>
     <path id="DejaVuSans-3a" d="M 750 794 
L 1409 794 
L 1409 0 
L 750 0 
L 750 794 
z
M 750 3309 
L 1409 3309 
L 1409 2516 
L 750 2516 
L 750 3309 
z
" transform="scale(0.015625)"/>
    </defs>
    <use xlink:href="#DejaVuSans-74"/>
    <use xlink:href="#DejaVuSans-75" x="39.208984"/>
    <use xlink:href="#DejaVuSans-69" x="102.587891"/>
    <use xlink:href="#DejaVuSans-64" x="130.371094"/>
    <use xlink:href="#DejaVuSans-3a" x="193.847656"/>
    <use xlink:href="#DejaVuSans-20" x="227.539062"/>
    <use xlink:href="#DejaVuSans-32" x="259.326172"/>
    <use xlink:href="#DejaVuSans-30" x="322.949219"/>
    <use xlink:href="#DejaVuSans-32" x="386.572266"/>
    <use xlink:href="#DejaVuSans-34" x="450.195312"/>
    <use xlink:href="#DejaVuSans-30" x="513.818359"/>
    <use xlink:href="#DejaVuSans-33" x="577.441406"/>
    <use xlink:href="#DejaVuSans-30" x="641.064453"/>
    <use xlink:href="#DejaVuSans-34" x="704.6875"/>
    <use xlink:href="#DejaVuSans-2d" x="768.310547"/>
    <use xlink:href="#DejaVuSans-31" x="804.394531"/>
    <use xlink:href="#DejaVuSans-34" x="868.017578"/>
    <use xlink:href="#DejaVuSans-30" x="931.640625"/>
    <use xlink:href="#DejaVuSans-31" x="995.263672"/>
    <use xlink:href="#DejaVuSans-32" x="1058.886719"/>
    <use xlink:href="#DejaVuSans-37" x="1122.509766"/>
    <use xlink:href="#DejaVuSans-2d" x="1186.132812"/>
    <use xlink:href="#DejaVuSans-31" x="1222.216797"/>
    <use xlink:href="#DejaVuSans-36" x="1285.839844"/>
    <use xlink:href="#DejaVuSans-34" x="1349.462891"/>
    <use xlink:href="#DejaVuSans-2d" x="1413.085938"/>
    <use xlink:href="#DejaVuSans-37" x="1449.169922"/>
    <use xlink:href="#DejaVuSans-61" x="1512.792969"/>
    <use xlink:href="#DejaVuSans-65" x="1574.072266"/>
    <use xlink:href="#DejaVuSans-38" x="1635.595703"/>
    <use xlink:href="#DejaVuSans-35" x="1699.21875"/>
    <use xlink:href="#DejaVuSans-32" x="1762.841797"/>
   </g>
  </g>
 </g>
 <defs>
  <clipPath id="pea687915a1">
   <rect x="46.965625" y="41.76" width="357.12" height="266.112"/>
  </clipPath>
 </defs>
</svg>
