<?xml version="1.0" encoding="utf-8" standalone="no"?>
<!DOCTYPE svg PUBLIC "-//W3C//DTD SVG 1.1//EN"
  "http://www.w3.org/Graphics/SVG/1.1/DTD/svg11.dtd">
<svg xmlns:xlink="http://www.w3.org/1999/xlink" width="650.633813pt" height="345.42825pt" viewBox="0 0 650.633813 345.42825" xmlns="http://www.w3.org/2000/svg" version="1.1">
 <metadata>
  <rdf:RDF xmlns:dc="http://purl.org/dc/elements/1.1/" xmlns:cc="http://creativecommons.org/ns#" xmlns:rdf="http://www.w3.org/1999/02/22-rdf-syntax-ns#">
   <cc:Work>
    <dc:type rdf:resource="http://purl.org/dc/dcmitype/StillImage"/>
    <dc:date>2024-02-23T16:49:36.890008</dc:date>
    <dc:format>image/svg+xml</dc:format>
    <dc:creator>
     <cc:Agent>
      <dc:title>Matplotlib v3.8.2, https://matplotlib.org/</dc:title>
     </cc:Agent>
    </dc:creator>
   </cc:Work>
  </rdf:RDF>
 </metadata>
 <defs>
  <style type="text/css">*{stroke-linejoin: round; stroke-linecap: butt}</style>
 </defs>
 <g id="figure_1">
  <g id="patch_1">
   <path d="M 0 345.42825 
L 650.633813 345.42825 
L 650.633813 -0 
L 0 -0 
L 0 345.42825 
z
" style="fill: none; opacity: 0"/>
  </g>
  <g id="axes_1">
   <g id="patch_2">
    <path d="M 50.573438 307.872 
L 407.693438 307.872 
L 407.693438 41.76 
L 50.573438 41.76 
z
" style="fill: #ffffff"/>
   </g>
   <g id="matplotlib.axis_1">
    <g id="xtick_1">
     <g id="line2d_1">
      <defs>
       <path id="m31731aa280" d="M 0 0 
L 0 3.5 
" style="stroke: #000000; stroke-width: 0.8"/>
      </defs>
      <g>
       <use xlink:href="#m31731aa280" x="65.917252" y="307.872" style="stroke: #000000; stroke-width: 0.8"/>
      </g>
     </g>
     <g id="text_1">
      <!-- 5 -->
      <g transform="translate(62.736002 322.470438) scale(0.1 -0.1)">
       <defs>
        <path id="DejaVuSans-35" d="M 691 4666 
L 3169 4666 
L 3169 4134 
L 1269 4134 
L 1269 2991 
Q 1406 3038 1543 3061 
Q 1681 3084 1819 3084 
Q 2600 3084 3056 2656 
Q 3513 2228 3513 1497 
Q 3513 744 3044 326 
Q 2575 -91 1722 -91 
Q 1428 -91 1123 -41 
Q 819 9 494 109 
L 494 744 
Q 775 591 1075 516 
Q 1375 441 1709 441 
Q 2250 441 2565 725 
Q 2881 1009 2881 1497 
Q 2881 1984 2565 2268 
Q 2250 2553 1709 2553 
Q 1456 2553 1204 2497 
Q 953 2441 691 2322 
L 691 4666 
z
" transform="scale(0.015625)"/>
       </defs>
       <use xlink:href="#DejaVuSans-35"/>
      </g>
     </g>
    </g>
    <g id="xtick_2">
     <g id="line2d_2">
      <g>
       <use xlink:href="#m31731aa280" x="120.026343" y="307.872" style="stroke: #000000; stroke-width: 0.8"/>
      </g>
     </g>
     <g id="text_2">
      <!-- 6 -->
      <g transform="translate(116.845093 322.470438) scale(0.1 -0.1)">
       <defs>
        <path id="DejaVuSans-36" d="M 2113 2584 
Q 1688 2584 1439 2293 
Q 1191 2003 1191 1497 
Q 1191 994 1439 701 
Q 1688 409 2113 409 
Q 2538 409 2786 701 
Q 3034 994 3034 1497 
Q 3034 2003 2786 2293 
Q 2538 2584 2113 2584 
z
M 3366 4563 
L 3366 3988 
Q 3128 4100 2886 4159 
Q 2644 4219 2406 4219 
Q 1781 4219 1451 3797 
Q 1122 3375 1075 2522 
Q 1259 2794 1537 2939 
Q 1816 3084 2150 3084 
Q 2853 3084 3261 2657 
Q 3669 2231 3669 1497 
Q 3669 778 3244 343 
Q 2819 -91 2113 -91 
Q 1303 -91 875 529 
Q 447 1150 447 2328 
Q 447 3434 972 4092 
Q 1497 4750 2381 4750 
Q 2619 4750 2861 4703 
Q 3103 4656 3366 4563 
z
" transform="scale(0.015625)"/>
       </defs>
       <use xlink:href="#DejaVuSans-36"/>
      </g>
     </g>
    </g>
    <g id="xtick_3">
     <g id="line2d_3">
      <g>
       <use xlink:href="#m31731aa280" x="174.135434" y="307.872" style="stroke: #000000; stroke-width: 0.8"/>
      </g>
     </g>
     <g id="text_3">
      <!-- 7 -->
      <g transform="translate(170.954184 322.470438) scale(0.1 -0.1)">
       <defs>
        <path id="DejaVuSans-37" d="M 525 4666 
L 3525 4666 
L 3525 4397 
L 1831 0 
L 1172 0 
L 2766 4134 
L 525 4134 
L 525 4666 
z
" transform="scale(0.015625)"/>
       </defs>
       <use xlink:href="#DejaVuSans-37"/>
      </g>
     </g>
    </g>
    <g id="xtick_4">
     <g id="line2d_4">
      <g>
       <use xlink:href="#m31731aa280" x="228.244525" y="307.872" style="stroke: #000000; stroke-width: 0.8"/>
      </g>
     </g>
     <g id="text_4">
      <!-- 8 -->
      <g transform="translate(225.063275 322.470438) scale(0.1 -0.1)">
       <defs>
        <path id="DejaVuSans-38" d="M 2034 2216 
Q 1584 2216 1326 1975 
Q 1069 1734 1069 1313 
Q 1069 891 1326 650 
Q 1584 409 2034 409 
Q 2484 409 2743 651 
Q 3003 894 3003 1313 
Q 3003 1734 2745 1975 
Q 2488 2216 2034 2216 
z
M 1403 2484 
Q 997 2584 770 2862 
Q 544 3141 544 3541 
Q 544 4100 942 4425 
Q 1341 4750 2034 4750 
Q 2731 4750 3128 4425 
Q 3525 4100 3525 3541 
Q 3525 3141 3298 2862 
Q 3072 2584 2669 2484 
Q 3125 2378 3379 2068 
Q 3634 1759 3634 1313 
Q 3634 634 3220 271 
Q 2806 -91 2034 -91 
Q 1263 -91 848 271 
Q 434 634 434 1313 
Q 434 1759 690 2068 
Q 947 2378 1403 2484 
z
M 1172 3481 
Q 1172 3119 1398 2916 
Q 1625 2713 2034 2713 
Q 2441 2713 2670 2916 
Q 2900 3119 2900 3481 
Q 2900 3844 2670 4047 
Q 2441 4250 2034 4250 
Q 1625 4250 1398 4047 
Q 1172 3844 1172 3481 
z
" transform="scale(0.015625)"/>
       </defs>
       <use xlink:href="#DejaVuSans-38"/>
      </g>
     </g>
    </g>
    <g id="xtick_5">
     <g id="line2d_5">
      <g>
       <use xlink:href="#m31731aa280" x="282.353616" y="307.872" style="stroke: #000000; stroke-width: 0.8"/>
      </g>
     </g>
     <g id="text_5">
      <!-- 9 -->
      <g transform="translate(279.172366 322.470438) scale(0.1 -0.1)">
       <defs>
        <path id="DejaVuSans-39" d="M 703 97 
L 703 672 
Q 941 559 1184 500 
Q 1428 441 1663 441 
Q 2288 441 2617 861 
Q 2947 1281 2994 2138 
Q 2813 1869 2534 1725 
Q 2256 1581 1919 1581 
Q 1219 1581 811 2004 
Q 403 2428 403 3163 
Q 403 3881 828 4315 
Q 1253 4750 1959 4750 
Q 2769 4750 3195 4129 
Q 3622 3509 3622 2328 
Q 3622 1225 3098 567 
Q 2575 -91 1691 -91 
Q 1453 -91 1209 -44 
Q 966 3 703 97 
z
M 1959 2075 
Q 2384 2075 2632 2365 
Q 2881 2656 2881 3163 
Q 2881 3666 2632 3958 
Q 2384 4250 1959 4250 
Q 1534 4250 1286 3958 
Q 1038 3666 1038 3163 
Q 1038 2656 1286 2365 
Q 1534 2075 1959 2075 
z
" transform="scale(0.015625)"/>
       </defs>
       <use xlink:href="#DejaVuSans-39"/>
      </g>
     </g>
    </g>
    <g id="xtick_6">
     <g id="line2d_6">
      <g>
       <use xlink:href="#m31731aa280" x="336.462707" y="307.872" style="stroke: #000000; stroke-width: 0.8"/>
      </g>
     </g>
     <g id="text_6">
      <!-- 10 -->
      <g transform="translate(330.100207 322.470438) scale(0.1 -0.1)">
       <defs>
        <path id="DejaVuSans-31" d="M 794 531 
L 1825 531 
L 1825 4091 
L 703 3866 
L 703 4441 
L 1819 4666 
L 2450 4666 
L 2450 531 
L 3481 531 
L 3481 0 
L 794 0 
L 794 531 
z
" transform="scale(0.015625)"/>
        <path id="DejaVuSans-30" d="M 2034 4250 
Q 1547 4250 1301 3770 
Q 1056 3291 1056 2328 
Q 1056 1369 1301 889 
Q 1547 409 2034 409 
Q 2525 409 2770 889 
Q 3016 1369 3016 2328 
Q 3016 3291 2770 3770 
Q 2525 4250 2034 4250 
z
M 2034 4750 
Q 2819 4750 3233 4129 
Q 3647 3509 3647 2328 
Q 3647 1150 3233 529 
Q 2819 -91 2034 -91 
Q 1250 -91 836 529 
Q 422 1150 422 2328 
Q 422 3509 836 4129 
Q 1250 4750 2034 4750 
z
" transform="scale(0.015625)"/>
       </defs>
       <use xlink:href="#DejaVuSans-31"/>
       <use xlink:href="#DejaVuSans-30" x="63.623047"/>
      </g>
     </g>
    </g>
    <g id="xtick_7">
     <g id="line2d_7">
      <g>
       <use xlink:href="#m31731aa280" x="390.571797" y="307.872" style="stroke: #000000; stroke-width: 0.8"/>
      </g>
     </g>
     <g id="text_7">
      <!-- 11 -->
      <g transform="translate(384.209297 322.470438) scale(0.1 -0.1)">
       <use xlink:href="#DejaVuSans-31"/>
       <use xlink:href="#DejaVuSans-31" x="63.623047"/>
      </g>
     </g>
    </g>
    <g id="text_8">
     <!-- Frequency [MHz] -->
     <g transform="translate(187.114688 336.148562) scale(0.1 -0.1)">
      <defs>
       <path id="DejaVuSans-46" d="M 628 4666 
L 3309 4666 
L 3309 4134 
L 1259 4134 
L 1259 2759 
L 3109 2759 
L 3109 2228 
L 1259 2228 
L 1259 0 
L 628 0 
L 628 4666 
z
" transform="scale(0.015625)"/>
       <path id="DejaVuSans-72" d="M 2631 2963 
Q 2534 3019 2420 3045 
Q 2306 3072 2169 3072 
Q 1681 3072 1420 2755 
Q 1159 2438 1159 1844 
L 1159 0 
L 581 0 
L 581 3500 
L 1159 3500 
L 1159 2956 
Q 1341 3275 1631 3429 
Q 1922 3584 2338 3584 
Q 2397 3584 2469 3576 
Q 2541 3569 2628 3553 
L 2631 2963 
z
" transform="scale(0.015625)"/>
       <path id="DejaVuSans-65" d="M 3597 1894 
L 3597 1613 
L 953 1613 
Q 991 1019 1311 708 
Q 1631 397 2203 397 
Q 2534 397 2845 478 
Q 3156 559 3463 722 
L 3463 178 
Q 3153 47 2828 -22 
Q 2503 -91 2169 -91 
Q 1331 -91 842 396 
Q 353 884 353 1716 
Q 353 2575 817 3079 
Q 1281 3584 2069 3584 
Q 2775 3584 3186 3129 
Q 3597 2675 3597 1894 
z
M 3022 2063 
Q 3016 2534 2758 2815 
Q 2500 3097 2075 3097 
Q 1594 3097 1305 2825 
Q 1016 2553 972 2059 
L 3022 2063 
z
" transform="scale(0.015625)"/>
       <path id="DejaVuSans-71" d="M 947 1747 
Q 947 1113 1208 752 
Q 1469 391 1925 391 
Q 2381 391 2643 752 
Q 2906 1113 2906 1747 
Q 2906 2381 2643 2742 
Q 2381 3103 1925 3103 
Q 1469 3103 1208 2742 
Q 947 2381 947 1747 
z
M 2906 525 
Q 2725 213 2448 61 
Q 2172 -91 1784 -91 
Q 1150 -91 751 415 
Q 353 922 353 1747 
Q 353 2572 751 3078 
Q 1150 3584 1784 3584 
Q 2172 3584 2448 3432 
Q 2725 3281 2906 2969 
L 2906 3500 
L 3481 3500 
L 3481 -1331 
L 2906 -1331 
L 2906 525 
z
" transform="scale(0.015625)"/>
       <path id="DejaVuSans-75" d="M 544 1381 
L 544 3500 
L 1119 3500 
L 1119 1403 
Q 1119 906 1312 657 
Q 1506 409 1894 409 
Q 2359 409 2629 706 
Q 2900 1003 2900 1516 
L 2900 3500 
L 3475 3500 
L 3475 0 
L 2900 0 
L 2900 538 
Q 2691 219 2414 64 
Q 2138 -91 1772 -91 
Q 1169 -91 856 284 
Q 544 659 544 1381 
z
M 1991 3584 
L 1991 3584 
z
" transform="scale(0.015625)"/>
       <path id="DejaVuSans-6e" d="M 3513 2113 
L 3513 0 
L 2938 0 
L 2938 2094 
Q 2938 2591 2744 2837 
Q 2550 3084 2163 3084 
Q 1697 3084 1428 2787 
Q 1159 2491 1159 1978 
L 1159 0 
L 581 0 
L 581 3500 
L 1159 3500 
L 1159 2956 
Q 1366 3272 1645 3428 
Q 1925 3584 2291 3584 
Q 2894 3584 3203 3211 
Q 3513 2838 3513 2113 
z
" transform="scale(0.015625)"/>
       <path id="DejaVuSans-63" d="M 3122 3366 
L 3122 2828 
Q 2878 2963 2633 3030 
Q 2388 3097 2138 3097 
Q 1578 3097 1268 2742 
Q 959 2388 959 1747 
Q 959 1106 1268 751 
Q 1578 397 2138 397 
Q 2388 397 2633 464 
Q 2878 531 3122 666 
L 3122 134 
Q 2881 22 2623 -34 
Q 2366 -91 2075 -91 
Q 1284 -91 818 406 
Q 353 903 353 1747 
Q 353 2603 823 3093 
Q 1294 3584 2113 3584 
Q 2378 3584 2631 3529 
Q 2884 3475 3122 3366 
z
" transform="scale(0.015625)"/>
       <path id="DejaVuSans-79" d="M 2059 -325 
Q 1816 -950 1584 -1140 
Q 1353 -1331 966 -1331 
L 506 -1331 
L 506 -850 
L 844 -850 
Q 1081 -850 1212 -737 
Q 1344 -625 1503 -206 
L 1606 56 
L 191 3500 
L 800 3500 
L 1894 763 
L 2988 3500 
L 3597 3500 
L 2059 -325 
z
" transform="scale(0.015625)"/>
       <path id="DejaVuSans-20" transform="scale(0.015625)"/>
       <path id="DejaVuSans-5b" d="M 550 4863 
L 1875 4863 
L 1875 4416 
L 1125 4416 
L 1125 -397 
L 1875 -397 
L 1875 -844 
L 550 -844 
L 550 4863 
z
" transform="scale(0.015625)"/>
       <path id="DejaVuSans-4d" d="M 628 4666 
L 1569 4666 
L 2759 1491 
L 3956 4666 
L 4897 4666 
L 4897 0 
L 4281 0 
L 4281 4097 
L 3078 897 
L 2444 897 
L 1241 4097 
L 1241 0 
L 628 0 
L 628 4666 
z
" transform="scale(0.015625)"/>
       <path id="DejaVuSans-48" d="M 628 4666 
L 1259 4666 
L 1259 2753 
L 3553 2753 
L 3553 4666 
L 4184 4666 
L 4184 0 
L 3553 0 
L 3553 2222 
L 1259 2222 
L 1259 0 
L 628 0 
L 628 4666 
z
" transform="scale(0.015625)"/>
       <path id="DejaVuSans-7a" d="M 353 3500 
L 3084 3500 
L 3084 2975 
L 922 459 
L 3084 459 
L 3084 0 
L 275 0 
L 275 525 
L 2438 3041 
L 353 3041 
L 353 3500 
z
" transform="scale(0.015625)"/>
       <path id="DejaVuSans-5d" d="M 1947 4863 
L 1947 -844 
L 622 -844 
L 622 -397 
L 1369 -397 
L 1369 4416 
L 622 4416 
L 622 4863 
L 1947 4863 
z
" transform="scale(0.015625)"/>
      </defs>
      <use xlink:href="#DejaVuSans-46"/>
      <use xlink:href="#DejaVuSans-72" x="50.269531"/>
      <use xlink:href="#DejaVuSans-65" x="89.132812"/>
      <use xlink:href="#DejaVuSans-71" x="150.65625"/>
      <use xlink:href="#DejaVuSans-75" x="214.132812"/>
      <use xlink:href="#DejaVuSans-65" x="277.511719"/>
      <use xlink:href="#DejaVuSans-6e" x="339.035156"/>
      <use xlink:href="#DejaVuSans-63" x="402.414062"/>
      <use xlink:href="#DejaVuSans-79" x="457.394531"/>
      <use xlink:href="#DejaVuSans-20" x="516.574219"/>
      <use xlink:href="#DejaVuSans-5b" x="548.361328"/>
      <use xlink:href="#DejaVuSans-4d" x="587.375"/>
      <use xlink:href="#DejaVuSans-48" x="673.654297"/>
      <use xlink:href="#DejaVuSans-7a" x="748.849609"/>
      <use xlink:href="#DejaVuSans-5d" x="801.339844"/>
     </g>
    </g>
    <g id="text_9">
     <!-- +6 GHz -->
     <g transform="translate(369.255938 335.148562) scale(0.1 -0.1)">
      <defs>
       <path id="DejaVuSans-2b" d="M 2944 4013 
L 2944 2272 
L 4684 2272 
L 4684 1741 
L 2944 1741 
L 2944 0 
L 2419 0 
L 2419 1741 
L 678 1741 
L 678 2272 
L 2419 2272 
L 2419 4013 
L 2944 4013 
z
" transform="scale(0.015625)"/>
       <path id="DejaVuSans-47" d="M 3809 666 
L 3809 1919 
L 2778 1919 
L 2778 2438 
L 4434 2438 
L 4434 434 
Q 4069 175 3628 42 
Q 3188 -91 2688 -91 
Q 1594 -91 976 548 
Q 359 1188 359 2328 
Q 359 3472 976 4111 
Q 1594 4750 2688 4750 
Q 3144 4750 3555 4637 
Q 3966 4525 4313 4306 
L 4313 3634 
Q 3963 3931 3569 4081 
Q 3175 4231 2741 4231 
Q 1884 4231 1454 3753 
Q 1025 3275 1025 2328 
Q 1025 1384 1454 906 
Q 1884 428 2741 428 
Q 3075 428 3337 486 
Q 3600 544 3809 666 
z
" transform="scale(0.015625)"/>
      </defs>
      <use xlink:href="#DejaVuSans-2b"/>
      <use xlink:href="#DejaVuSans-36" x="83.789062"/>
      <use xlink:href="#DejaVuSans-20" x="147.412109"/>
      <use xlink:href="#DejaVuSans-47" x="179.199219"/>
      <use xlink:href="#DejaVuSans-48" x="256.689453"/>
      <use xlink:href="#DejaVuSans-7a" x="331.884766"/>
     </g>
    </g>
   </g>
   <g id="matplotlib.axis_2">
    <g id="ytick_1">
     <g id="line2d_8">
      <defs>
       <path id="mf2156196e4" d="M 0 0 
L -3.5 0 
" style="stroke: #000000; stroke-width: 0.8"/>
      </defs>
      <g>
       <use xlink:href="#mf2156196e4" x="50.573438" y="275.619552" style="stroke: #000000; stroke-width: 0.8"/>
      </g>
     </g>
     <g id="text_10">
      <!-- -150 -->
      <g transform="translate(20.878125 279.41877) scale(0.1 -0.1)">
       <defs>
        <path id="DejaVuSans-2d" d="M 313 2009 
L 1997 2009 
L 1997 1497 
L 313 1497 
L 313 2009 
z
" transform="scale(0.015625)"/>
       </defs>
       <use xlink:href="#DejaVuSans-2d"/>
       <use xlink:href="#DejaVuSans-31" x="36.083984"/>
       <use xlink:href="#DejaVuSans-35" x="99.707031"/>
       <use xlink:href="#DejaVuSans-30" x="163.330078"/>
      </g>
     </g>
    </g>
    <g id="ytick_2">
     <g id="line2d_9">
      <g>
       <use xlink:href="#mf2156196e4" x="50.573438" y="242.00482" style="stroke: #000000; stroke-width: 0.8"/>
      </g>
     </g>
     <g id="text_11">
      <!-- -100 -->
      <g transform="translate(20.878125 245.804039) scale(0.1 -0.1)">
       <use xlink:href="#DejaVuSans-2d"/>
       <use xlink:href="#DejaVuSans-31" x="36.083984"/>
       <use xlink:href="#DejaVuSans-30" x="99.707031"/>
       <use xlink:href="#DejaVuSans-30" x="163.330078"/>
      </g>
     </g>
    </g>
    <g id="ytick_3">
     <g id="line2d_10">
      <g>
       <use xlink:href="#mf2156196e4" x="50.573438" y="208.390089" style="stroke: #000000; stroke-width: 0.8"/>
      </g>
     </g>
     <g id="text_12">
      <!-- -50 -->
      <g transform="translate(27.240625 212.189308) scale(0.1 -0.1)">
       <use xlink:href="#DejaVuSans-2d"/>
       <use xlink:href="#DejaVuSans-35" x="36.083984"/>
       <use xlink:href="#DejaVuSans-30" x="99.707031"/>
      </g>
     </g>
    </g>
    <g id="ytick_4">
     <g id="line2d_11">
      <g>
       <use xlink:href="#mf2156196e4" x="50.573438" y="174.775357" style="stroke: #000000; stroke-width: 0.8"/>
      </g>
     </g>
     <g id="text_13">
      <!-- 0 -->
      <g transform="translate(37.210938 178.574576) scale(0.1 -0.1)">
       <use xlink:href="#DejaVuSans-30"/>
      </g>
     </g>
    </g>
    <g id="ytick_5">
     <g id="line2d_12">
      <g>
       <use xlink:href="#mf2156196e4" x="50.573438" y="141.160626" style="stroke: #000000; stroke-width: 0.8"/>
      </g>
     </g>
     <g id="text_14">
      <!-- 50 -->
      <g transform="translate(30.848438 144.959845) scale(0.1 -0.1)">
       <use xlink:href="#DejaVuSans-35"/>
       <use xlink:href="#DejaVuSans-30" x="63.623047"/>
      </g>
     </g>
    </g>
    <g id="ytick_6">
     <g id="line2d_13">
      <g>
       <use xlink:href="#mf2156196e4" x="50.573438" y="107.545894" style="stroke: #000000; stroke-width: 0.8"/>
      </g>
     </g>
     <g id="text_15">
      <!-- 100 -->
      <g transform="translate(24.485938 111.345113) scale(0.1 -0.1)">
       <use xlink:href="#DejaVuSans-31"/>
       <use xlink:href="#DejaVuSans-30" x="63.623047"/>
       <use xlink:href="#DejaVuSans-30" x="127.246094"/>
      </g>
     </g>
    </g>
    <g id="ytick_7">
     <g id="line2d_14">
      <g>
       <use xlink:href="#mf2156196e4" x="50.573438" y="73.931163" style="stroke: #000000; stroke-width: 0.8"/>
      </g>
     </g>
     <g id="text_16">
      <!-- 150 -->
      <g transform="translate(24.485938 77.730382) scale(0.1 -0.1)">
       <use xlink:href="#DejaVuSans-31"/>
       <use xlink:href="#DejaVuSans-35" x="63.623047"/>
       <use xlink:href="#DejaVuSans-30" x="127.246094"/>
      </g>
     </g>
    </g>
    <g id="text_17">
     <!-- Phase0 [deg] -->
     <g transform="translate(14.798438 207.841781) rotate(-90) scale(0.1 -0.1)">
      <defs>
       <path id="DejaVuSans-50" d="M 1259 4147 
L 1259 2394 
L 2053 2394 
Q 2494 2394 2734 2622 
Q 2975 2850 2975 3272 
Q 2975 3691 2734 3919 
Q 2494 4147 2053 4147 
L 1259 4147 
z
M 628 4666 
L 2053 4666 
Q 2838 4666 3239 4311 
Q 3641 3956 3641 3272 
Q 3641 2581 3239 2228 
Q 2838 1875 2053 1875 
L 1259 1875 
L 1259 0 
L 628 0 
L 628 4666 
z
" transform="scale(0.015625)"/>
       <path id="DejaVuSans-68" d="M 3513 2113 
L 3513 0 
L 2938 0 
L 2938 2094 
Q 2938 2591 2744 2837 
Q 2550 3084 2163 3084 
Q 1697 3084 1428 2787 
Q 1159 2491 1159 1978 
L 1159 0 
L 581 0 
L 581 4863 
L 1159 4863 
L 1159 2956 
Q 1366 3272 1645 3428 
Q 1925 3584 2291 3584 
Q 2894 3584 3203 3211 
Q 3513 2838 3513 2113 
z
" transform="scale(0.015625)"/>
       <path id="DejaVuSans-61" d="M 2194 1759 
Q 1497 1759 1228 1600 
Q 959 1441 959 1056 
Q 959 750 1161 570 
Q 1363 391 1709 391 
Q 2188 391 2477 730 
Q 2766 1069 2766 1631 
L 2766 1759 
L 2194 1759 
z
M 3341 1997 
L 3341 0 
L 2766 0 
L 2766 531 
Q 2569 213 2275 61 
Q 1981 -91 1556 -91 
Q 1019 -91 701 211 
Q 384 513 384 1019 
Q 384 1609 779 1909 
Q 1175 2209 1959 2209 
L 2766 2209 
L 2766 2266 
Q 2766 2663 2505 2880 
Q 2244 3097 1772 3097 
Q 1472 3097 1187 3025 
Q 903 2953 641 2809 
L 641 3341 
Q 956 3463 1253 3523 
Q 1550 3584 1831 3584 
Q 2591 3584 2966 3190 
Q 3341 2797 3341 1997 
z
" transform="scale(0.015625)"/>
       <path id="DejaVuSans-73" d="M 2834 3397 
L 2834 2853 
Q 2591 2978 2328 3040 
Q 2066 3103 1784 3103 
Q 1356 3103 1142 2972 
Q 928 2841 928 2578 
Q 928 2378 1081 2264 
Q 1234 2150 1697 2047 
L 1894 2003 
Q 2506 1872 2764 1633 
Q 3022 1394 3022 966 
Q 3022 478 2636 193 
Q 2250 -91 1575 -91 
Q 1294 -91 989 -36 
Q 684 19 347 128 
L 347 722 
Q 666 556 975 473 
Q 1284 391 1588 391 
Q 1994 391 2212 530 
Q 2431 669 2431 922 
Q 2431 1156 2273 1281 
Q 2116 1406 1581 1522 
L 1381 1569 
Q 847 1681 609 1914 
Q 372 2147 372 2553 
Q 372 3047 722 3315 
Q 1072 3584 1716 3584 
Q 2034 3584 2315 3537 
Q 2597 3491 2834 3397 
z
" transform="scale(0.015625)"/>
       <path id="DejaVuSans-64" d="M 2906 2969 
L 2906 4863 
L 3481 4863 
L 3481 0 
L 2906 0 
L 2906 525 
Q 2725 213 2448 61 
Q 2172 -91 1784 -91 
Q 1150 -91 751 415 
Q 353 922 353 1747 
Q 353 2572 751 3078 
Q 1150 3584 1784 3584 
Q 2172 3584 2448 3432 
Q 2725 3281 2906 2969 
z
M 947 1747 
Q 947 1113 1208 752 
Q 1469 391 1925 391 
Q 2381 391 2643 752 
Q 2906 1113 2906 1747 
Q 2906 2381 2643 2742 
Q 2381 3103 1925 3103 
Q 1469 3103 1208 2742 
Q 947 2381 947 1747 
z
" transform="scale(0.015625)"/>
       <path id="DejaVuSans-67" d="M 2906 1791 
Q 2906 2416 2648 2759 
Q 2391 3103 1925 3103 
Q 1463 3103 1205 2759 
Q 947 2416 947 1791 
Q 947 1169 1205 825 
Q 1463 481 1925 481 
Q 2391 481 2648 825 
Q 2906 1169 2906 1791 
z
M 3481 434 
Q 3481 -459 3084 -895 
Q 2688 -1331 1869 -1331 
Q 1566 -1331 1297 -1286 
Q 1028 -1241 775 -1147 
L 775 -588 
Q 1028 -725 1275 -790 
Q 1522 -856 1778 -856 
Q 2344 -856 2625 -561 
Q 2906 -266 2906 331 
L 2906 616 
Q 2728 306 2450 153 
Q 2172 0 1784 0 
Q 1141 0 747 490 
Q 353 981 353 1791 
Q 353 2603 747 3093 
Q 1141 3584 1784 3584 
Q 2172 3584 2450 3431 
Q 2728 3278 2906 2969 
L 2906 3500 
L 3481 3500 
L 3481 434 
z
" transform="scale(0.015625)"/>
      </defs>
      <use xlink:href="#DejaVuSans-50"/>
      <use xlink:href="#DejaVuSans-68" x="60.302734"/>
      <use xlink:href="#DejaVuSans-61" x="123.681641"/>
      <use xlink:href="#DejaVuSans-73" x="184.960938"/>
      <use xlink:href="#DejaVuSans-65" x="237.060547"/>
      <use xlink:href="#DejaVuSans-30" x="298.583984"/>
      <use xlink:href="#DejaVuSans-20" x="362.207031"/>
      <use xlink:href="#DejaVuSans-5b" x="393.994141"/>
      <use xlink:href="#DejaVuSans-64" x="433.007812"/>
      <use xlink:href="#DejaVuSans-65" x="496.484375"/>
      <use xlink:href="#DejaVuSans-67" x="558.007812"/>
      <use xlink:href="#DejaVuSans-5d" x="621.484375"/>
     </g>
    </g>
   </g>
   <g id="line2d_15">
    <path d="M 66.806165 271.405329 
L 78.001149 272.723219 
L 89.196133 274.385887 
L 100.391118 276.20958 
L 111.586102 278.165676 
L 122.781086 279.212546 
L 133.976071 282.177055 
L 145.171055 284.634504 
L 156.366039 287.36092 
L 167.561024 290.360327 
L 178.756008 294.609548 
L 189.950992 57.466323 
L 201.145977 61.071809 
L 212.340961 65.979147 
L 223.535945 64.95024 
L 234.73093 287.046488 
L 245.925914 245.636834 
L 257.120898 237.903253 
L 268.315883 240.892982 
L 279.510867 242.904509 
L 290.705851 246.812628 
L 301.900836 249.246719 
L 313.09582 252.379697 
L 324.290804 254.536129 
L 335.485789 257.045369 
L 346.680773 259.143879 
L 357.875757 260.235708 
L 369.070742 261.382827 
L 380.265726 263.346815 
L 391.46071 264.999353 
" clip-path="url(#p9aeb8414c2)" style="fill: none; stroke: #440154; stroke-width: 1.5; stroke-linecap: square"/>
   </g>
   <g id="line2d_16">
    <path d="M 66.806165 271.647509 
L 78.001149 272.715823 
L 89.196133 274.351659 
L 100.391118 276.079438 
L 111.586102 277.74777 
L 122.781086 279.305721 
L 133.976071 281.886256 
L 145.171055 284.377195 
L 156.366039 286.754503 
L 167.561024 290.798186 
L 178.756008 294.758482 
L 189.950992 57.163868 
L 201.145977 61.508637 
L 212.340961 65.106695 
L 223.535945 66.231135 
L 234.73093 292.396568 
L 245.925914 247.042228 
L 257.120898 237.663871 
L 268.315883 240.622933 
L 279.510867 244.20995 
L 290.705851 245.975764 
L 301.900836 249.812873 
L 313.09582 251.817496 
L 324.290804 254.886205 
L 335.485789 256.986554 
L 346.680773 258.504766 
L 357.875757 260.35656 
L 369.070742 261.563936 
L 380.265726 263.843408 
L 391.46071 264.327906 
" clip-path="url(#p9aeb8414c2)" style="fill: none; stroke: #470d60; stroke-width: 1.5; stroke-linecap: square"/>
   </g>
   <g id="line2d_17">
    <path d="M 66.806165 271.961594 
L 78.001149 272.64786 
L 89.196133 273.95851 
L 100.391118 275.809289 
L 111.586102 277.59106 
L 122.781086 279.738321 
L 133.976071 281.375888 
L 145.171055 284.262816 
L 156.366039 286.972271 
L 167.561024 289.891161 
L 178.756008 294.564291 
L 189.950992 56.625537 
L 201.145977 61.555138 
L 212.340961 65.531424 
L 223.535945 66.869963 
L 234.73093 284.121096 
L 245.925914 244.217647 
L 257.120898 238.075761 
L 268.315883 240.8897 
L 279.510867 243.072264 
L 290.705851 246.50987 
L 301.900836 249.553909 
L 313.09582 252.458424 
L 324.290804 254.502421 
L 335.485789 256.7825 
L 346.680773 258.877559 
L 357.875757 260.250186 
L 369.070742 261.266152 
L 380.265726 262.637237 
L 391.46071 264.449312 
" clip-path="url(#p9aeb8414c2)" style="fill: none; stroke: #481a6c; stroke-width: 1.5; stroke-linecap: square"/>
   </g>
   <g id="line2d_18">
    <path d="M 66.806165 271.628811 
L 78.001149 273.086866 
L 89.196133 274.432063 
L 100.391118 275.803609 
L 111.586102 277.712599 
L 122.781086 279.704753 
L 133.976071 282.234107 
L 145.171055 284.155514 
L 156.366039 286.854406 
L 167.561024 290.646963 
L 178.756008 294.230793 
L 189.950992 56.631557 
L 201.145977 61.689469 
L 212.340961 65.103227 
L 223.535945 66.713155 
L 234.73093 287.007 
L 245.925914 245.521597 
L 257.120898 238.51874 
L 268.315883 240.309529 
L 279.510867 243.175408 
L 290.705851 246.222981 
L 301.900836 249.102687 
L 313.09582 251.880877 
L 324.290804 254.965229 
L 335.485789 256.358255 
L 346.680773 258.388352 
L 357.875757 259.950153 
L 369.070742 261.323042 
L 380.265726 263.063878 
L 391.46071 264.795097 
" clip-path="url(#p9aeb8414c2)" style="fill: none; stroke: #482576; stroke-width: 1.5; stroke-linecap: square"/>
   </g>
   <g id="line2d_19">
    <path d="M 66.806165 271.457023 
L 78.001149 273.059897 
L 89.196133 274.688992 
L 100.391118 276.045795 
L 111.586102 277.597704 
L 122.781086 279.524273 
L 133.976071 282.022482 
L 145.171055 284.363639 
L 156.366039 287.677196 
L 167.561024 290.20428 
L 178.756008 294.465533 
L 189.950992 56.542203 
L 201.145977 61.413588 
L 212.340961 66.155793 
L 223.535945 66.708635 
L 234.73093 277.473506 
L 245.925914 241.377878 
L 257.120898 237.843268 
L 268.315883 239.942301 
L 279.510867 243.255203 
L 290.705851 246.441551 
L 301.900836 249.754513 
L 313.09582 251.856948 
L 324.290804 253.896018 
L 335.485789 256.771119 
L 346.680773 258.938554 
L 357.875757 259.759709 
L 369.070742 261.756318 
L 380.265726 263.097927 
L 391.46071 264.521387 
" clip-path="url(#p9aeb8414c2)" style="fill: none; stroke: #46307e; stroke-width: 1.5; stroke-linecap: square"/>
   </g>
   <g id="line2d_20">
    <path d="M 66.806165 271.406682 
L 78.001149 272.993306 
L 89.196133 274.441322 
L 100.391118 275.892592 
L 111.586102 277.732334 
L 122.781086 279.370917 
L 133.976071 281.789819 
L 145.171055 284.322652 
L 156.366039 287.061606 
L 167.561024 290.810041 
L 178.756008 294.492349 
L 189.950992 56.982041 
L 201.145977 60.809427 
L 212.340961 65.158119 
L 223.535945 63.247676 
L 234.73093 279.917875 
L 245.925914 242.971464 
L 257.120898 238.050717 
L 268.315883 240.24001 
L 279.510867 243.080746 
L 290.705851 246.639556 
L 301.900836 249.523633 
L 313.09582 251.926124 
L 324.290804 254.098613 
L 335.485789 256.617029 
L 346.680773 258.229716 
L 357.875757 259.449278 
L 369.070742 261.967876 
L 380.265726 263.394381 
L 391.46071 264.466923 
" clip-path="url(#p9aeb8414c2)" style="fill: none; stroke: #443b84; stroke-width: 1.5; stroke-linecap: square"/>
   </g>
   <g id="line2d_21">
    <path d="M 66.806165 271.357425 
L 78.001149 272.818708 
L 89.196133 274.297543 
L 100.391118 276.04197 
L 111.586102 277.598386 
L 122.781086 279.584773 
L 133.976071 281.940203 
L 145.171055 284.398353 
L 156.366039 287.177196 
L 167.561024 290.613584 
L 178.756008 294.228171 
L 189.950992 56.87412 
L 201.145977 61.616736 
L 212.340961 63.231175 
L 223.535945 64.926857 
L 234.73093 273.40005 
L 245.925914 242.717123 
L 257.120898 238.264294 
L 268.315883 240.472896 
L 279.510867 243.252169 
L 290.705851 246.804818 
L 301.900836 249.579596 
L 313.09582 252.112297 
L 324.290804 254.22212 
L 335.485789 256.736449 
L 346.680773 258.420217 
L 357.875757 260.146435 
L 369.070742 261.636386 
L 380.265726 263.167473 
L 391.46071 264.367584 
" clip-path="url(#p9aeb8414c2)" style="fill: none; stroke: #404588; stroke-width: 1.5; stroke-linecap: square"/>
   </g>
   <g id="line2d_22">
    <path d="M 66.806165 271.236249 
L 78.001149 272.903873 
L 89.196133 274.562793 
L 100.391118 275.726829 
L 111.586102 277.554607 
L 122.781086 279.845132 
L 133.976071 281.952242 
L 145.171055 284.333177 
L 156.366039 287.237203 
L 167.561024 290.426425 
L 178.756008 294.639496 
L 189.950992 57.339419 
L 201.145977 60.81926 
L 212.340961 64.784879 
L 223.535945 64.787414 
L 234.73093 273.135946 
L 245.925914 239.664 
L 257.120898 237.999873 
L 268.315883 240.527441 
L 279.510867 243.091431 
L 290.705851 246.859518 
L 301.900836 249.656502 
L 313.09582 252.076159 
L 324.290804 254.388853 
L 335.485789 256.329416 
L 346.680773 258.445688 
L 357.875757 260.005765 
L 369.070742 261.780005 
L 380.265726 263.046039 
L 391.46071 264.572338 
" clip-path="url(#p9aeb8414c2)" style="fill: none; stroke: #3c4f8a; stroke-width: 1.5; stroke-linecap: square"/>
   </g>
   <g id="line2d_23">
    <path d="M 66.806165 271.608647 
L 78.001149 272.752346 
L 89.196133 274.283139 
L 100.391118 275.760443 
L 111.586102 277.725066 
L 122.781086 279.867986 
L 133.976071 281.899374 
L 145.171055 284.648769 
L 156.366039 287.333671 
L 167.561024 290.802215 
L 178.756008 294.994523 
L 189.950992 56.976372 
L 201.145977 61.865066 
L 212.340961 65.642634 
L 223.535945 60.803758 
L 234.73093 266.0138 
L 245.925914 239.700195 
L 257.120898 238.67963 
L 268.315883 240.781128 
L 279.510867 243.952431 
L 290.705851 247.393943 
L 301.900836 249.774789 
L 313.09582 252.584023 
L 324.290804 254.68483 
L 335.485789 256.604397 
L 346.680773 258.311457 
L 357.875757 260.407108 
L 369.070742 261.549719 
L 380.265726 263.006667 
L 391.46071 264.517509 
" clip-path="url(#p9aeb8414c2)" style="fill: none; stroke: #38598c; stroke-width: 1.5; stroke-linecap: square"/>
   </g>
   <g id="line2d_24">
    <path d="M 66.806165 271.391574 
L 78.001149 272.97369 
L 89.196133 274.429964 
L 100.391118 276.01668 
L 111.586102 277.922848 
L 122.781086 279.871315 
L 133.976071 282.23555 
L 145.171055 284.681289 
L 156.366039 287.251946 
L 167.561024 290.815057 
L 178.756008 294.962906 
L 189.950992 57.446702 
L 201.145977 62.363989 
L 212.340961 58.211105 
L 223.535945 291.847334 
L 234.73093 254.548457 
L 245.925914 241.503769 
L 257.120898 238.811557 
L 268.315883 240.713689 
L 279.510867 243.372712 
L 290.705851 247.40142 
L 301.900836 250.174568 
L 313.09582 252.185042 
L 324.290804 254.497858 
L 335.485789 256.645966 
L 346.680773 258.39309 
L 357.875757 259.805936 
L 369.070742 261.411676 
L 380.265726 262.986276 
L 391.46071 264.430795 
" clip-path="url(#p9aeb8414c2)" style="fill: none; stroke: #33628d; stroke-width: 1.5; stroke-linecap: square"/>
   </g>
   <g id="line2d_25">
    <path d="M 66.806165 271.441535 
L 78.001149 273.087062 
L 89.196133 274.252414 
L 100.391118 276.011938 
L 111.586102 277.857031 
L 122.781086 279.730249 
L 133.976071 281.976394 
L 145.171055 284.295616 
L 156.366039 287.665638 
L 167.561024 291.367222 
L 178.756008 295.167945 
L 189.950992 56.769527 
L 201.145977 57.641168 
L 212.340961 54.748411 
L 223.535945 270.516131 
L 234.73093 250.564088 
L 245.925914 241.175961 
L 257.120898 239.38618 
L 268.315883 241.158262 
L 279.510867 244.053789 
L 290.705851 246.660698 
L 301.900836 250.008409 
L 313.09582 252.274861 
L 324.290804 254.649604 
L 335.485789 256.664445 
L 346.680773 258.654187 
L 357.875757 260.155835 
L 369.070742 261.729052 
L 380.265726 262.87104 
L 391.46071 264.505942 
" clip-path="url(#p9aeb8414c2)" style="fill: none; stroke: #2f6b8e; stroke-width: 1.5; stroke-linecap: square"/>
   </g>
   <g id="line2d_26">
    <path d="M 66.806165 271.60915 
L 78.001149 272.941593 
L 89.196133 274.478624 
L 100.391118 275.917395 
L 111.586102 277.748665 
L 122.781086 279.795968 
L 133.976071 282.225516 
L 145.171055 284.65882 
L 156.366039 287.828716 
L 167.561024 291.413124 
L 178.756008 294.986671 
L 189.950992 56.55482 
L 201.145977 54.156352 
L 212.340961 295.776 
L 223.535945 282.373739 
L 234.73093 252.763122 
L 245.925914 243.595094 
L 257.120898 242.281683 
L 268.315883 241.431074 
L 279.510867 243.818203 
L 290.705851 247.264704 
L 301.900836 249.866849 
L 313.09582 252.367965 
L 324.290804 254.472955 
L 335.485789 256.813604 
L 346.680773 258.59265 
L 357.875757 259.999302 
L 369.070742 261.701974 
L 380.265726 263.14288 
L 391.46071 264.681764 
" clip-path="url(#p9aeb8414c2)" style="fill: none; stroke: #2c738e; stroke-width: 1.5; stroke-linecap: square"/>
   </g>
   <g id="line2d_27">
    <path d="M 66.806165 271.500489 
L 78.001149 272.83219 
L 89.196133 274.422233 
L 100.391118 275.843729 
L 111.586102 277.827491 
L 122.781086 279.655635 
L 133.976071 282.147836 
L 145.171055 285.024785 
L 156.366039 288.044667 
L 167.561024 291.898082 
L 178.756008 295.606639 
L 189.950992 56.681247 
L 201.145977 57.971404 
L 212.340961 289.001998 
L 223.535945 262.303977 
L 234.73093 247.751071 
L 245.925914 241.969143 
L 257.120898 242.489156 
L 268.315883 243.750099 
L 279.510867 244.054672 
L 290.705851 247.319256 
L 301.900836 249.910134 
L 313.09582 252.00818 
L 324.290804 254.552973 
L 335.485789 256.509368 
L 346.680773 258.597313 
L 357.875757 260.127977 
L 369.070742 261.630969 
L 380.265726 263.072133 
L 391.46071 264.424475 
" clip-path="url(#p9aeb8414c2)" style="fill: none; stroke: #297b8e; stroke-width: 1.5; stroke-linecap: square"/>
   </g>
   <g id="line2d_28">
    <path d="M 66.806165 271.6848 
L 78.001149 272.864098 
L 89.196133 274.5695 
L 100.391118 275.885164 
L 111.586102 277.865541 
L 122.781086 280.027551 
L 133.976071 282.408957 
L 145.171055 285.16118 
L 156.366039 287.782816 
L 167.561024 291.467257 
L 178.756008 54.651461 
L 189.950992 57.072203 
L 201.145977 55.643398 
L 212.340961 275.90643 
L 223.535945 247.313278 
L 234.73093 244.776933 
L 245.925914 241.460352 
L 257.120898 241.745754 
L 268.315883 244.717148 
L 279.510867 245.031812 
L 290.705851 247.444706 
L 301.900836 249.871508 
L 313.09582 252.461773 
L 324.290804 254.714885 
L 335.485789 256.652252 
L 346.680773 258.532345 
L 357.875757 260.114826 
L 369.070742 261.757645 
L 380.265726 263.019585 
L 391.46071 264.577551 
" clip-path="url(#p9aeb8414c2)" style="fill: none; stroke: #25838e; stroke-width: 1.5; stroke-linecap: square"/>
   </g>
   <g id="line2d_29">
    <path d="M 66.806165 271.577769 
L 78.001149 272.924479 
L 89.196133 274.505089 
L 100.391118 275.961049 
L 111.586102 277.686012 
L 122.781086 280.028181 
L 133.976071 282.406087 
L 145.171055 285.015674 
L 156.366039 288.000218 
L 167.561024 293.087899 
L 178.756008 54.664107 
L 189.950992 57.485129 
L 201.145977 295.180708 
L 212.340961 264.635818 
L 223.535945 246.224106 
L 234.73093 242.793341 
L 245.925914 243.606506 
L 257.120898 241.131733 
L 268.315883 244.298181 
L 279.510867 246.297421 
L 290.705851 247.641597 
L 301.900836 249.918487 
L 313.09582 252.899904 
L 324.290804 254.510077 
L 335.485789 256.734451 
L 346.680773 258.448136 
L 357.875757 260.178421 
L 369.070742 261.815907 
L 380.265726 263.139429 
L 391.46071 264.231691 
" clip-path="url(#p9aeb8414c2)" style="fill: none; stroke: #228c8d; stroke-width: 1.5; stroke-linecap: square"/>
   </g>
   <g id="line2d_30">
    <path d="M 66.806165 271.545425 
L 78.001149 272.973489 
L 89.196133 274.649978 
L 100.391118 276.108618 
L 111.586102 277.86459 
L 122.781086 279.888284 
L 133.976071 282.505097 
L 145.171055 285.058486 
L 156.366039 289.283315 
L 167.561024 293.958404 
L 178.756008 54.745523 
L 189.950992 55.273872 
L 201.145977 282.613703 
L 212.340961 267.085128 
L 223.535945 246.860929 
L 234.73093 242.611462 
L 245.925914 243.78844 
L 257.120898 242.29837 
L 268.315883 244.239048 
L 279.510867 247.78175 
L 290.705851 249.107787 
L 301.900836 250.441452 
L 313.09582 252.843993 
L 324.290804 254.587999 
L 335.485789 256.73771 
L 346.680773 258.42037 
L 357.875757 260.126527 
L 369.070742 261.870908 
L 380.265726 263.065226 
L 391.46071 264.428905 
" clip-path="url(#p9aeb8414c2)" style="fill: none; stroke: #1f948c; stroke-width: 1.5; stroke-linecap: square"/>
   </g>
   <g id="line2d_31">
    <path d="M 66.806165 271.69919 
L 78.001149 272.916931 
L 89.196133 274.603147 
L 100.391118 276.312485 
L 111.586102 278.013074 
L 122.781086 280.072731 
L 133.976071 282.805996 
L 145.171055 285.596408 
L 156.366039 289.925933 
L 167.561024 294.666466 
L 178.756008 55.486036 
L 189.950992 295.681038 
L 201.145977 280.119879 
L 212.340961 249.176772 
L 223.535945 242.712949 
L 234.73093 242.179008 
L 245.925914 242.609134 
L 257.120898 244.243312 
L 268.315883 244.073326 
L 279.510867 247.117154 
L 290.705851 249.334882 
L 301.900836 250.368723 
L 313.09582 252.686814 
L 324.290804 254.63931 
L 335.485789 256.75045 
L 346.680773 258.61378 
L 357.875757 260.394116 
L 369.070742 261.814991 
L 380.265726 263.196397 
L 391.46071 264.564607 
" clip-path="url(#p9aeb8414c2)" style="fill: none; stroke: #1e9d89; stroke-width: 1.5; stroke-linecap: square"/>
   </g>
   <g id="line2d_32">
    <path d="M 66.806165 271.749316 
L 78.001149 272.887185 
L 89.196133 274.670515 
L 100.391118 276.156902 
L 111.586102 277.948649 
L 122.781086 280.515926 
L 133.976071 282.990426 
L 145.171055 286.364826 
L 156.366039 290.556083 
L 167.561024 294.128222 
L 178.756008 57.267035 
L 189.950992 294.535585 
L 201.145977 263.749228 
L 212.340961 243.438102 
L 223.535945 241.659176 
L 234.73093 241.700584 
L 245.925914 243.684419 
L 257.120898 245.491605 
L 268.315883 244.863641 
L 279.510867 247.392384 
L 290.705851 250.801518 
L 301.900836 251.533173 
L 313.09582 253.094461 
L 324.290804 254.907394 
L 335.485789 257.17061 
L 346.680773 258.630423 
L 357.875757 260.317249 
L 369.070742 261.774467 
L 380.265726 263.107045 
L 391.46071 264.5854 
" clip-path="url(#p9aeb8414c2)" style="fill: none; stroke: #21a585; stroke-width: 1.5; stroke-linecap: square"/>
   </g>
   <g id="line2d_33">
    <path d="M 66.806165 271.873678 
L 78.001149 273.096522 
L 89.196133 274.8114 
L 100.391118 276.25059 
L 111.586102 278.269964 
L 122.781086 280.340303 
L 133.976071 284.174 
L 145.171055 286.295102 
L 156.366039 292.117538 
L 167.561024 294.989937 
L 178.756008 59.704751 
L 189.950992 292.389129 
L 201.145977 253.719707 
L 212.340961 244.021067 
L 223.535945 240.525998 
L 234.73093 241.744956 
L 245.925914 243.221676 
L 257.120898 245.266575 
L 268.315883 247.021281 
L 279.510867 247.224814 
L 290.705851 250.636656 
L 301.900836 252.360652 
L 313.09582 253.454289 
L 324.290804 255.161144 
L 335.485789 257.205594 
L 346.680773 258.693829 
L 357.875757 260.35113 
L 369.070742 261.964754 
L 380.265726 263.501311 
L 391.46071 264.629663 
" clip-path="url(#p9aeb8414c2)" style="fill: none; stroke: #26ad81; stroke-width: 1.5; stroke-linecap: square"/>
   </g>
   <g id="line2d_34">
    <path d="M 66.806165 271.797684 
L 78.001149 273.188245 
L 89.196133 274.696747 
L 100.391118 276.432783 
L 111.586102 278.390091 
L 122.781086 280.648898 
L 133.976071 284.183588 
L 145.171055 288.312282 
L 156.366039 292.481811 
L 167.561024 56.13617 
L 178.756008 59.722511 
L 189.950992 292.911391 
L 201.145977 250.029512 
L 212.340961 242.195302 
L 223.535945 240.0834 
L 234.73093 241.395458 
L 245.925914 244.019315 
L 257.120898 245.220697 
L 268.315883 247.967643 
L 279.510867 248.721624 
L 290.705851 250.088574 
L 301.900836 253.015512 
L 313.09582 253.500329 
L 324.290804 255.250063 
L 335.485789 257.051193 
L 346.680773 258.638414 
L 357.875757 260.678724 
L 369.070742 261.950444 
L 380.265726 263.21668 
L 391.46071 264.694356 
" clip-path="url(#p9aeb8414c2)" style="fill: none; stroke: #31b57b; stroke-width: 1.5; stroke-linecap: square"/>
   </g>
   <g id="line2d_35">
    <path d="M 66.806165 271.795023 
L 78.001149 273.272228 
L 89.196133 274.720186 
L 100.391118 276.284572 
L 111.586102 278.716963 
L 122.781086 281.102392 
L 133.976071 284.096824 
L 145.171055 288.27161 
L 156.366039 293.456336 
L 167.561024 58.80266 
L 178.756008 61.519084 
L 189.950992 290.897873 
L 201.145977 250.07678 
L 212.340961 239.432741 
L 223.535945 239.462973 
L 234.73093 242.004948 
L 245.925914 243.877304 
L 257.120898 246.010879 
L 268.315883 247.966427 
L 279.510867 249.723491 
L 290.705851 250.318402 
L 301.900836 252.576713 
L 313.09582 253.800892 
L 324.290804 255.455468 
L 335.485789 257.540648 
L 346.680773 258.752424 
L 357.875757 260.561813 
L 369.070742 261.858428 
L 380.265726 263.295509 
L 391.46071 264.533511 
" clip-path="url(#p9aeb8414c2)" style="fill: none; stroke: #3fbc73; stroke-width: 1.5; stroke-linecap: square"/>
   </g>
   <g id="line2d_36">
    <path d="M 66.806165 271.773275 
L 78.001149 273.614998 
L 89.196133 274.751894 
L 100.391118 276.669776 
L 111.586102 279.100624 
L 122.781086 281.389429 
L 133.976071 284.348365 
L 145.171055 288.666633 
L 156.366039 294.42759 
L 167.561024 59.601144 
L 178.756008 63.162611 
L 189.950992 293.027269 
L 201.145977 247.648333 
L 212.340961 239.675389 
L 223.535945 239.461277 
L 234.73093 241.722425 
L 245.925914 244.246879 
L 257.120898 246.200804 
L 268.315883 248.67204 
L 279.510867 250.301852 
L 290.705851 250.545738 
L 301.900836 252.343289 
L 313.09582 254.547452 
L 324.290804 255.816232 
L 335.485789 257.409132 
L 346.680773 259.140083 
L 357.875757 260.644919 
L 369.070742 261.999827 
L 380.265726 263.250558 
L 391.46071 264.836609 
" clip-path="url(#p9aeb8414c2)" style="fill: none; stroke: #50c46a; stroke-width: 1.5; stroke-linecap: square"/>
   </g>
   <g id="line2d_37">
    <path d="M 66.806165 271.787656 
L 78.001149 273.255096 
L 89.196133 274.968216 
L 100.391118 276.583511 
L 111.586102 279.416174 
L 122.781086 281.816714 
L 133.976071 285.802639 
L 145.171055 289.664386 
L 156.366039 55.73954 
L 167.561024 61.075441 
L 178.756008 63.421877 
L 189.950992 291.450999 
L 201.145977 249.39151 
L 212.340961 238.434924 
L 223.535945 239.508854 
L 234.73093 241.898774 
L 245.925914 244.485465 
L 257.120898 246.511976 
L 268.315883 248.945094 
L 279.510867 250.105523 
L 290.705851 251.544682 
L 301.900836 252.822427 
L 313.09582 254.555589 
L 324.290804 256.159285 
L 335.485789 257.661611 
L 346.680773 259.100403 
L 357.875757 260.734004 
L 369.070742 261.959142 
L 380.265726 263.379208 
L 391.46071 264.611474 
" clip-path="url(#p9aeb8414c2)" style="fill: none; stroke: #63cb5f; stroke-width: 1.5; stroke-linecap: square"/>
   </g>
   <g id="line2d_38">
    <path d="M 66.806165 271.750634 
L 78.001149 273.174066 
L 89.196133 274.981652 
L 100.391118 277.312602 
L 111.586102 279.415258 
L 122.781086 281.809751 
L 133.976071 286.288125 
L 145.171055 290.936979 
L 156.366039 57.189506 
L 167.561024 61.209698 
L 178.756008 63.935375 
L 189.950992 294.751991 
L 201.145977 246.50477 
L 212.340961 237.659027 
L 223.535945 239.016435 
L 234.73093 241.784852 
L 245.925914 244.777471 
L 257.120898 246.676449 
L 268.315883 248.95742 
L 279.510867 250.595853 
L 290.705851 251.760909 
L 301.900836 253.253394 
L 313.09582 254.998846 
L 324.290804 256.760909 
L 335.485789 257.736784 
L 346.680773 259.397351 
L 357.875757 260.89422 
L 369.070742 262.161278 
L 380.265726 263.29383 
L 391.46071 264.747729 
" clip-path="url(#p9aeb8414c2)" style="fill: none; stroke: #77d153; stroke-width: 1.5; stroke-linecap: square"/>
   </g>
   <g id="line2d_39">
    <path d="M 66.806165 272.014896 
L 78.001149 273.562922 
L 89.196133 275.387609 
L 100.391118 277.460081 
L 111.586102 279.492432 
L 122.781086 282.584757 
L 133.976071 286.453467 
L 145.171055 293.912936 
L 156.366039 57.960253 
L 167.561024 62.558069 
L 178.756008 64.176356 
L 189.950992 295.065684 
L 201.145977 245.887131 
L 212.340961 237.921328 
L 223.535945 238.771328 
L 234.73093 241.756041 
L 245.925914 244.322194 
L 257.120898 247.256505 
L 268.315883 248.837876 
L 279.510867 250.817746 
L 290.705851 252.889268 
L 301.900836 253.625109 
L 313.09582 255.070076 
L 324.290804 256.97101 
L 335.485789 257.507772 
L 346.680773 259.778748 
L 357.875757 260.818831 
L 369.070742 262.1083 
L 380.265726 263.642804 
L 391.46071 264.793147 
" clip-path="url(#p9aeb8414c2)" style="fill: none; stroke: #8bd646; stroke-width: 1.5; stroke-linecap: square"/>
   </g>
   <g id="line2d_40">
    <path d="M 66.806165 272.071363 
L 78.001149 273.64799 
L 89.196133 275.711878 
L 100.391118 277.4574 
L 111.586102 279.924344 
L 122.781086 283.04925 
L 133.976071 287.176344 
L 145.171055 295.220701 
L 156.366039 57.250713 
L 167.561024 63.133478 
L 178.756008 65.212715 
L 189.950992 292.405088 
L 201.145977 246.03294 
L 212.340961 236.834348 
L 223.535945 238.777844 
L 234.73093 241.718455 
L 245.925914 244.545359 
L 257.120898 247.081806 
L 268.315883 249.041897 
L 279.510867 251.431044 
L 290.705851 253.326011 
L 301.900836 254.143062 
L 313.09582 255.634828 
L 324.290804 256.907184 
L 335.485789 258.427893 
L 346.680773 259.722878 
L 357.875757 260.998258 
L 369.070742 262.424489 
L 380.265726 263.599134 
L 391.46071 264.892979 
" clip-path="url(#p9aeb8414c2)" style="fill: none; stroke: #a2da37; stroke-width: 1.5; stroke-linecap: square"/>
   </g>
   <g id="line2d_41">
    <path d="M 66.806165 271.958193 
L 78.001149 274.027955 
L 89.196133 275.577991 
L 100.391118 277.290953 
L 111.586102 279.738025 
L 122.781086 283.516621 
L 133.976071 289.588094 
L 145.171055 295.754852 
L 156.366039 58.808434 
L 167.561024 62.919528 
L 178.756008 65.351913 
L 189.950992 291.035969 
L 201.145977 246.157516 
L 212.340961 237.118636 
L 223.535945 238.510245 
L 234.73093 241.910166 
L 245.925914 244.738629 
L 257.120898 247.051118 
L 268.315883 249.180475 
L 279.510867 251.027185 
L 290.705851 253.209374 
L 301.900836 254.603155 
L 313.09582 256.071069 
L 324.290804 257.707594 
L 335.485789 258.230904 
L 346.680773 259.322932 
L 357.875757 261.076824 
L 369.070742 262.585035 
L 380.265726 263.821389 
L 391.46071 264.85042 
" clip-path="url(#p9aeb8414c2)" style="fill: none; stroke: #bade28; stroke-width: 1.5; stroke-linecap: square"/>
   </g>
   <g id="line2d_42">
    <path d="M 66.806165 272.192978 
L 78.001149 274.003073 
L 89.196133 275.421235 
L 100.391118 277.520183 
L 111.586102 279.873227 
L 122.781086 285.467144 
L 133.976071 291.125649 
L 145.171055 53.856 
L 156.366039 58.936841 
L 167.561024 63.088876 
L 178.756008 65.31928 
L 189.950992 294.248857 
L 201.145977 245.272982 
L 212.340961 236.676279 
L 223.535945 238.457294 
L 234.73093 241.751761 
L 245.925914 244.348714 
L 257.120898 246.810285 
L 268.315883 249.314798 
L 279.510867 251.626879 
L 290.705851 253.209863 
L 301.900836 254.691455 
L 313.09582 255.969622 
L 324.290804 258.087834 
L 335.485789 258.747835 
L 346.680773 259.435529 
L 357.875757 261.052561 
L 369.070742 262.38531 
L 380.265726 263.90462 
L 391.46071 264.961087 
" clip-path="url(#p9aeb8414c2)" style="fill: none; stroke: #d2e21b; stroke-width: 1.5; stroke-linecap: square"/>
   </g>
   <g id="line2d_43">
    <path d="M 66.806165 272.39764 
L 78.001149 274.109001 
L 89.196133 275.788864 
L 100.391118 278.136274 
L 111.586102 281.279954 
L 122.781086 286.39203 
L 133.976071 292.321387 
L 145.171055 53.90764 
L 156.366039 58.821474 
L 167.561024 63.35397 
L 178.756008 65.734347 
L 189.950992 294.483224 
L 201.145977 247.324923 
L 212.340961 236.607767 
L 223.535945 238.619304 
L 234.73093 241.559866 
L 245.925914 244.807956 
L 257.120898 247.417079 
L 268.315883 249.6257 
L 279.510867 251.628969 
L 290.705851 253.05041 
L 301.900836 255.340083 
L 313.09582 255.42869 
L 324.290804 258.017797 
L 335.485789 259.525425 
L 346.680773 260.248063 
L 357.875757 261.197498 
L 369.070742 262.811532 
L 380.265726 264.093096 
L 391.46071 265.138849 
" clip-path="url(#p9aeb8414c2)" style="fill: none; stroke: #eae51a; stroke-width: 1.5; stroke-linecap: square"/>
   </g>
   <g id="line2d_44">
    <path d="M 66.806165 272.853092 
L 78.001149 274.7613 
L 89.196133 276.341342 
L 100.391118 278.166823 
L 111.586102 283.052235 
L 122.781086 287.322845 
L 133.976071 292.403169 
L 145.171055 54.239598 
L 156.366039 58.911485 
L 167.561024 63.723064 
L 178.756008 66.024426 
L 189.950992 54.500559 
L 201.145977 245.339521 
L 212.340961 237.24246 
L 223.535945 238.08346 
L 234.73093 241.45327 
L 245.925914 244.514388 
L 257.120898 247.172232 
L 268.315883 249.718762 
L 279.510867 251.541917 
L 290.705851 253.448602 
L 301.900836 255.644815 
L 313.09582 256.328825 
L 324.290804 257.797428 
L 335.485789 259.403389 
L 346.680773 260.434861 
L 357.875757 261.331015 
L 369.070742 262.697526 
L 380.265726 264.268094 
L 391.46071 265.301934 
" clip-path="url(#p9aeb8414c2)" style="fill: none; stroke: #fde725; stroke-width: 1.5; stroke-linecap: square"/>
   </g>
   <g id="patch_3">
    <path d="M 50.573438 307.872 
L 50.573438 41.76 
" style="fill: none; stroke: #000000; stroke-width: 0.8; stroke-linejoin: miter; stroke-linecap: square"/>
   </g>
   <g id="patch_4">
    <path d="M 407.693438 307.872 
L 407.693438 41.76 
" style="fill: none; stroke: #000000; stroke-width: 0.8; stroke-linejoin: miter; stroke-linecap: square"/>
   </g>
   <g id="patch_5">
    <path d="M 50.573437 307.872 
L 407.693437 307.872 
" style="fill: none; stroke: #000000; stroke-width: 0.8; stroke-linejoin: miter; stroke-linecap: square"/>
   </g>
   <g id="patch_6">
    <path d="M 50.573437 41.76 
L 407.693437 41.76 
" style="fill: none; stroke: #000000; stroke-width: 0.8; stroke-linejoin: miter; stroke-linecap: square"/>
   </g>
   <g id="legend_1">
    <g id="patch_7">
     <path d="M 427.549438 307.872 
L 641.433812 307.872 
Q 643.433812 307.872 643.433812 305.872 
L 643.433812 145.412625 
Q 643.433812 143.412625 641.433812 143.412625 
L 427.549438 143.412625 
Q 425.549438 143.412625 425.549438 145.412625 
L 425.549438 305.872 
Q 425.549438 307.872 427.549438 307.872 
z
" style="fill: #ffffff; opacity: 0.8; stroke: #cccccc; stroke-linejoin: miter"/>
    </g>
    <g id="text_18">
     <!-- Readout pulse amplitude () -->
     <g transform="translate(466.390844 155.011063) scale(0.1 -0.1)">
      <defs>
       <path id="DejaVuSans-52" d="M 2841 2188 
Q 3044 2119 3236 1894 
Q 3428 1669 3622 1275 
L 4263 0 
L 3584 0 
L 2988 1197 
Q 2756 1666 2539 1819 
Q 2322 1972 1947 1972 
L 1259 1972 
L 1259 0 
L 628 0 
L 628 4666 
L 2053 4666 
Q 2853 4666 3247 4331 
Q 3641 3997 3641 3322 
Q 3641 2881 3436 2590 
Q 3231 2300 2841 2188 
z
M 1259 4147 
L 1259 2491 
L 2053 2491 
Q 2509 2491 2742 2702 
Q 2975 2913 2975 3322 
Q 2975 3731 2742 3939 
Q 2509 4147 2053 4147 
L 1259 4147 
z
" transform="scale(0.015625)"/>
       <path id="DejaVuSans-6f" d="M 1959 3097 
Q 1497 3097 1228 2736 
Q 959 2375 959 1747 
Q 959 1119 1226 758 
Q 1494 397 1959 397 
Q 2419 397 2687 759 
Q 2956 1122 2956 1747 
Q 2956 2369 2687 2733 
Q 2419 3097 1959 3097 
z
M 1959 3584 
Q 2709 3584 3137 3096 
Q 3566 2609 3566 1747 
Q 3566 888 3137 398 
Q 2709 -91 1959 -91 
Q 1206 -91 779 398 
Q 353 888 353 1747 
Q 353 2609 779 3096 
Q 1206 3584 1959 3584 
z
" transform="scale(0.015625)"/>
       <path id="DejaVuSans-74" d="M 1172 4494 
L 1172 3500 
L 2356 3500 
L 2356 3053 
L 1172 3053 
L 1172 1153 
Q 1172 725 1289 603 
Q 1406 481 1766 481 
L 2356 481 
L 2356 0 
L 1766 0 
Q 1100 0 847 248 
Q 594 497 594 1153 
L 594 3053 
L 172 3053 
L 172 3500 
L 594 3500 
L 594 4494 
L 1172 4494 
z
" transform="scale(0.015625)"/>
       <path id="DejaVuSans-70" d="M 1159 525 
L 1159 -1331 
L 581 -1331 
L 581 3500 
L 1159 3500 
L 1159 2969 
Q 1341 3281 1617 3432 
Q 1894 3584 2278 3584 
Q 2916 3584 3314 3078 
Q 3713 2572 3713 1747 
Q 3713 922 3314 415 
Q 2916 -91 2278 -91 
Q 1894 -91 1617 61 
Q 1341 213 1159 525 
z
M 3116 1747 
Q 3116 2381 2855 2742 
Q 2594 3103 2138 3103 
Q 1681 3103 1420 2742 
Q 1159 2381 1159 1747 
Q 1159 1113 1420 752 
Q 1681 391 2138 391 
Q 2594 391 2855 752 
Q 3116 1113 3116 1747 
z
" transform="scale(0.015625)"/>
       <path id="DejaVuSans-6c" d="M 603 4863 
L 1178 4863 
L 1178 0 
L 603 0 
L 603 4863 
z
" transform="scale(0.015625)"/>
       <path id="DejaVuSans-6d" d="M 3328 2828 
Q 3544 3216 3844 3400 
Q 4144 3584 4550 3584 
Q 5097 3584 5394 3201 
Q 5691 2819 5691 2113 
L 5691 0 
L 5113 0 
L 5113 2094 
Q 5113 2597 4934 2840 
Q 4756 3084 4391 3084 
Q 3944 3084 3684 2787 
Q 3425 2491 3425 1978 
L 3425 0 
L 2847 0 
L 2847 2094 
Q 2847 2600 2669 2842 
Q 2491 3084 2119 3084 
Q 1678 3084 1418 2786 
Q 1159 2488 1159 1978 
L 1159 0 
L 581 0 
L 581 3500 
L 1159 3500 
L 1159 2956 
Q 1356 3278 1631 3431 
Q 1906 3584 2284 3584 
Q 2666 3584 2933 3390 
Q 3200 3197 3328 2828 
z
" transform="scale(0.015625)"/>
       <path id="DejaVuSans-69" d="M 603 3500 
L 1178 3500 
L 1178 0 
L 603 0 
L 603 3500 
z
M 603 4863 
L 1178 4863 
L 1178 4134 
L 603 4134 
L 603 4863 
z
" transform="scale(0.015625)"/>
       <path id="DejaVuSans-28" d="M 1984 4856 
Q 1566 4138 1362 3434 
Q 1159 2731 1159 2009 
Q 1159 1288 1364 580 
Q 1569 -128 1984 -844 
L 1484 -844 
Q 1016 -109 783 600 
Q 550 1309 550 2009 
Q 550 2706 781 3412 
Q 1013 4119 1484 4856 
L 1984 4856 
z
" transform="scale(0.015625)"/>
       <path id="DejaVuSans-29" d="M 513 4856 
L 1013 4856 
Q 1481 4119 1714 3412 
Q 1947 2706 1947 2009 
Q 1947 1309 1714 600 
Q 1481 -109 1013 -844 
L 513 -844 
Q 928 -128 1133 580 
Q 1338 1288 1338 2009 
Q 1338 2731 1133 3434 
Q 928 4138 513 4856 
z
" transform="scale(0.015625)"/>
      </defs>
      <use xlink:href="#DejaVuSans-52"/>
      <use xlink:href="#DejaVuSans-65" x="64.982422"/>
      <use xlink:href="#DejaVuSans-61" x="126.505859"/>
      <use xlink:href="#DejaVuSans-64" x="187.785156"/>
      <use xlink:href="#DejaVuSans-6f" x="251.261719"/>
      <use xlink:href="#DejaVuSans-75" x="312.443359"/>
      <use xlink:href="#DejaVuSans-74" x="375.822266"/>
      <use xlink:href="#DejaVuSans-20" x="415.03125"/>
      <use xlink:href="#DejaVuSans-70" x="446.818359"/>
      <use xlink:href="#DejaVuSans-75" x="510.294922"/>
      <use xlink:href="#DejaVuSans-6c" x="573.673828"/>
      <use xlink:href="#DejaVuSans-73" x="601.457031"/>
      <use xlink:href="#DejaVuSans-65" x="653.556641"/>
      <use xlink:href="#DejaVuSans-20" x="715.080078"/>
      <use xlink:href="#DejaVuSans-61" x="746.867188"/>
      <use xlink:href="#DejaVuSans-6d" x="808.146484"/>
      <use xlink:href="#DejaVuSans-70" x="905.558594"/>
      <use xlink:href="#DejaVuSans-6c" x="969.035156"/>
      <use xlink:href="#DejaVuSans-69" x="996.818359"/>
      <use xlink:href="#DejaVuSans-74" x="1024.601562"/>
      <use xlink:href="#DejaVuSans-75" x="1063.810547"/>
      <use xlink:href="#DejaVuSans-64" x="1127.189453"/>
      <use xlink:href="#DejaVuSans-65" x="1190.666016"/>
      <use xlink:href="#DejaVuSans-20" x="1252.189453"/>
      <use xlink:href="#DejaVuSans-28" x="1283.976562"/>
      <use xlink:href="#DejaVuSans-29" x="1322.990234"/>
     </g>
    </g>
    <g id="line2d_45">
     <path d="M 429.549438 166.189188 
L 439.549438 166.189188 
L 449.549438 166.189188 
" style="fill: none; stroke: #440154; stroke-width: 1.5; stroke-linecap: square"/>
    </g>
    <g id="text_19">
     <!-- 0.1 -->
     <g transform="translate(457.549438 169.689188) scale(0.1 -0.1)">
      <defs>
       <path id="DejaVuSans-2e" d="M 684 794 
L 1344 794 
L 1344 0 
L 684 0 
L 684 794 
z
" transform="scale(0.015625)"/>
      </defs>
      <use xlink:href="#DejaVuSans-30"/>
      <use xlink:href="#DejaVuSans-2e" x="63.623047"/>
      <use xlink:href="#DejaVuSans-31" x="95.410156"/>
     </g>
    </g>
    <g id="line2d_46">
     <path d="M 429.549438 180.867313 
L 439.549438 180.867313 
L 449.549438 180.867313 
" style="fill: none; stroke: #470d60; stroke-width: 1.5; stroke-linecap: square"/>
    </g>
    <g id="text_20">
     <!-- 0.121 -->
     <g transform="translate(457.549438 184.367313) scale(0.1 -0.1)">
      <defs>
       <path id="DejaVuSans-32" d="M 1228 531 
L 3431 531 
L 3431 0 
L 469 0 
L 469 531 
Q 828 903 1448 1529 
Q 2069 2156 2228 2338 
Q 2531 2678 2651 2914 
Q 2772 3150 2772 3378 
Q 2772 3750 2511 3984 
Q 2250 4219 1831 4219 
Q 1534 4219 1204 4116 
Q 875 4013 500 3803 
L 500 4441 
Q 881 4594 1212 4672 
Q 1544 4750 1819 4750 
Q 2544 4750 2975 4387 
Q 3406 4025 3406 3419 
Q 3406 3131 3298 2873 
Q 3191 2616 2906 2266 
Q 2828 2175 2409 1742 
Q 1991 1309 1228 531 
z
" transform="scale(0.015625)"/>
      </defs>
      <use xlink:href="#DejaVuSans-30"/>
      <use xlink:href="#DejaVuSans-2e" x="63.623047"/>
      <use xlink:href="#DejaVuSans-31" x="95.410156"/>
      <use xlink:href="#DejaVuSans-32" x="159.033203"/>
      <use xlink:href="#DejaVuSans-31" x="222.65625"/>
     </g>
    </g>
    <g id="line2d_47">
     <path d="M 429.549438 195.545438 
L 439.549438 195.545438 
L 449.549438 195.545438 
" style="fill: none; stroke: #481a6c; stroke-width: 1.5; stroke-linecap: square"/>
    </g>
    <g id="text_21">
     <!-- 0.141 -->
     <g transform="translate(457.549438 199.045438) scale(0.1 -0.1)">
      <defs>
       <path id="DejaVuSans-34" d="M 2419 4116 
L 825 1625 
L 2419 1625 
L 2419 4116 
z
M 2253 4666 
L 3047 4666 
L 3047 1625 
L 3713 1625 
L 3713 1100 
L 3047 1100 
L 3047 0 
L 2419 0 
L 2419 1100 
L 313 1100 
L 313 1709 
L 2253 4666 
z
" transform="scale(0.015625)"/>
      </defs>
      <use xlink:href="#DejaVuSans-30"/>
      <use xlink:href="#DejaVuSans-2e" x="63.623047"/>
      <use xlink:href="#DejaVuSans-31" x="95.410156"/>
      <use xlink:href="#DejaVuSans-34" x="159.033203"/>
      <use xlink:href="#DejaVuSans-31" x="222.65625"/>
     </g>
    </g>
    <g id="line2d_48">
     <path d="M 429.549438 210.223563 
L 439.549438 210.223563 
L 449.549438 210.223563 
" style="fill: none; stroke: #482576; stroke-width: 1.5; stroke-linecap: square"/>
    </g>
    <g id="text_22">
     <!-- 0.162 -->
     <g transform="translate(457.549438 213.723563) scale(0.1 -0.1)">
      <use xlink:href="#DejaVuSans-30"/>
      <use xlink:href="#DejaVuSans-2e" x="63.623047"/>
      <use xlink:href="#DejaVuSans-31" x="95.410156"/>
      <use xlink:href="#DejaVuSans-36" x="159.033203"/>
      <use xlink:href="#DejaVuSans-32" x="222.65625"/>
     </g>
    </g>
    <g id="line2d_49">
     <path d="M 429.549438 224.901688 
L 439.549438 224.901688 
L 449.549438 224.901688 
" style="fill: none; stroke: #46307e; stroke-width: 1.5; stroke-linecap: square"/>
    </g>
    <g id="text_23">
     <!-- 0.183 -->
     <g transform="translate(457.549438 228.401688) scale(0.1 -0.1)">
      <defs>
       <path id="DejaVuSans-33" d="M 2597 2516 
Q 3050 2419 3304 2112 
Q 3559 1806 3559 1356 
Q 3559 666 3084 287 
Q 2609 -91 1734 -91 
Q 1441 -91 1130 -33 
Q 819 25 488 141 
L 488 750 
Q 750 597 1062 519 
Q 1375 441 1716 441 
Q 2309 441 2620 675 
Q 2931 909 2931 1356 
Q 2931 1769 2642 2001 
Q 2353 2234 1838 2234 
L 1294 2234 
L 1294 2753 
L 1863 2753 
Q 2328 2753 2575 2939 
Q 2822 3125 2822 3475 
Q 2822 3834 2567 4026 
Q 2313 4219 1838 4219 
Q 1578 4219 1281 4162 
Q 984 4106 628 3988 
L 628 4550 
Q 988 4650 1302 4700 
Q 1616 4750 1894 4750 
Q 2613 4750 3031 4423 
Q 3450 4097 3450 3541 
Q 3450 3153 3228 2886 
Q 3006 2619 2597 2516 
z
" transform="scale(0.015625)"/>
      </defs>
      <use xlink:href="#DejaVuSans-30"/>
      <use xlink:href="#DejaVuSans-2e" x="63.623047"/>
      <use xlink:href="#DejaVuSans-31" x="95.410156"/>
      <use xlink:href="#DejaVuSans-38" x="159.033203"/>
      <use xlink:href="#DejaVuSans-33" x="222.65625"/>
     </g>
    </g>
    <g id="line2d_50">
     <path d="M 429.549438 239.579813 
L 439.549438 239.579813 
L 449.549438 239.579813 
" style="fill: none; stroke: #443b84; stroke-width: 1.5; stroke-linecap: square"/>
    </g>
    <g id="text_24">
     <!-- 0.203 -->
     <g transform="translate(457.549438 243.079813) scale(0.1 -0.1)">
      <use xlink:href="#DejaVuSans-30"/>
      <use xlink:href="#DejaVuSans-2e" x="63.623047"/>
      <use xlink:href="#DejaVuSans-32" x="95.410156"/>
      <use xlink:href="#DejaVuSans-30" x="159.033203"/>
      <use xlink:href="#DejaVuSans-33" x="222.65625"/>
     </g>
    </g>
    <g id="line2d_51">
     <path d="M 429.549438 254.257938 
L 439.549438 254.257938 
L 449.549438 254.257938 
" style="fill: none; stroke: #404588; stroke-width: 1.5; stroke-linecap: square"/>
    </g>
    <g id="text_25">
     <!-- 0.224 -->
     <g transform="translate(457.549438 257.757938) scale(0.1 -0.1)">
      <use xlink:href="#DejaVuSans-30"/>
      <use xlink:href="#DejaVuSans-2e" x="63.623047"/>
      <use xlink:href="#DejaVuSans-32" x="95.410156"/>
      <use xlink:href="#DejaVuSans-32" x="159.033203"/>
      <use xlink:href="#DejaVuSans-34" x="222.65625"/>
     </g>
    </g>
    <g id="line2d_52">
     <path d="M 429.549438 268.936062 
L 439.549438 268.936062 
L 449.549438 268.936062 
" style="fill: none; stroke: #3c4f8a; stroke-width: 1.5; stroke-linecap: square"/>
    </g>
    <g id="text_26">
     <!-- 0.245 -->
     <g transform="translate(457.549438 272.436062) scale(0.1 -0.1)">
      <use xlink:href="#DejaVuSans-30"/>
      <use xlink:href="#DejaVuSans-2e" x="63.623047"/>
      <use xlink:href="#DejaVuSans-32" x="95.410156"/>
      <use xlink:href="#DejaVuSans-34" x="159.033203"/>
      <use xlink:href="#DejaVuSans-35" x="222.65625"/>
     </g>
    </g>
    <g id="line2d_53">
     <path d="M 429.549438 283.614188 
L 439.549438 283.614188 
L 449.549438 283.614188 
" style="fill: none; stroke: #38598c; stroke-width: 1.5; stroke-linecap: square"/>
    </g>
    <g id="text_27">
     <!-- 0.266 -->
     <g transform="translate(457.549438 287.114188) scale(0.1 -0.1)">
      <use xlink:href="#DejaVuSans-30"/>
      <use xlink:href="#DejaVuSans-2e" x="63.623047"/>
      <use xlink:href="#DejaVuSans-32" x="95.410156"/>
      <use xlink:href="#DejaVuSans-36" x="159.033203"/>
      <use xlink:href="#DejaVuSans-36" x="222.65625"/>
     </g>
    </g>
    <g id="line2d_54">
     <path d="M 429.549438 298.292312 
L 439.549438 298.292312 
L 449.549438 298.292312 
" style="fill: none; stroke: #33628d; stroke-width: 1.5; stroke-linecap: square"/>
    </g>
    <g id="text_28">
     <!-- 0.286 -->
     <g transform="translate(457.549438 301.792312) scale(0.1 -0.1)">
      <use xlink:href="#DejaVuSans-30"/>
      <use xlink:href="#DejaVuSans-2e" x="63.623047"/>
      <use xlink:href="#DejaVuSans-32" x="95.410156"/>
      <use xlink:href="#DejaVuSans-38" x="159.033203"/>
      <use xlink:href="#DejaVuSans-36" x="222.65625"/>
     </g>
    </g>
    <g id="line2d_55">
     <path d="M 506.177563 166.189188 
L 516.177563 166.189188 
L 526.177563 166.189188 
" style="fill: none; stroke: #2f6b8e; stroke-width: 1.5; stroke-linecap: square"/>
    </g>
    <g id="text_29">
     <!-- 0.307 -->
     <g transform="translate(534.177563 169.689188) scale(0.1 -0.1)">
      <use xlink:href="#DejaVuSans-30"/>
      <use xlink:href="#DejaVuSans-2e" x="63.623047"/>
      <use xlink:href="#DejaVuSans-33" x="95.410156"/>
      <use xlink:href="#DejaVuSans-30" x="159.033203"/>
      <use xlink:href="#DejaVuSans-37" x="222.65625"/>
     </g>
    </g>
    <g id="line2d_56">
     <path d="M 506.177563 180.867313 
L 516.177563 180.867313 
L 526.177563 180.867313 
" style="fill: none; stroke: #2c738e; stroke-width: 1.5; stroke-linecap: square"/>
    </g>
    <g id="text_30">
     <!-- 0.328 -->
     <g transform="translate(534.177563 184.367313) scale(0.1 -0.1)">
      <use xlink:href="#DejaVuSans-30"/>
      <use xlink:href="#DejaVuSans-2e" x="63.623047"/>
      <use xlink:href="#DejaVuSans-33" x="95.410156"/>
      <use xlink:href="#DejaVuSans-32" x="159.033203"/>
      <use xlink:href="#DejaVuSans-38" x="222.65625"/>
     </g>
    </g>
    <g id="line2d_57">
     <path d="M 506.177563 195.545438 
L 516.177563 195.545438 
L 526.177563 195.545438 
" style="fill: none; stroke: #297b8e; stroke-width: 1.5; stroke-linecap: square"/>
    </g>
    <g id="text_31">
     <!-- 0.348 -->
     <g transform="translate(534.177563 199.045438) scale(0.1 -0.1)">
      <use xlink:href="#DejaVuSans-30"/>
      <use xlink:href="#DejaVuSans-2e" x="63.623047"/>
      <use xlink:href="#DejaVuSans-33" x="95.410156"/>
      <use xlink:href="#DejaVuSans-34" x="159.033203"/>
      <use xlink:href="#DejaVuSans-38" x="222.65625"/>
     </g>
    </g>
    <g id="line2d_58">
     <path d="M 506.177563 210.223563 
L 516.177563 210.223563 
L 526.177563 210.223563 
" style="fill: none; stroke: #25838e; stroke-width: 1.5; stroke-linecap: square"/>
    </g>
    <g id="text_32">
     <!-- 0.369 -->
     <g transform="translate(534.177563 213.723563) scale(0.1 -0.1)">
      <use xlink:href="#DejaVuSans-30"/>
      <use xlink:href="#DejaVuSans-2e" x="63.623047"/>
      <use xlink:href="#DejaVuSans-33" x="95.410156"/>
      <use xlink:href="#DejaVuSans-36" x="159.033203"/>
      <use xlink:href="#DejaVuSans-39" x="222.65625"/>
     </g>
    </g>
    <g id="line2d_59">
     <path d="M 506.177563 224.901688 
L 516.177563 224.901688 
L 526.177563 224.901688 
" style="fill: none; stroke: #228c8d; stroke-width: 1.5; stroke-linecap: square"/>
    </g>
    <g id="text_33">
     <!-- 0.39 -->
     <g transform="translate(534.177563 228.401688) scale(0.1 -0.1)">
      <use xlink:href="#DejaVuSans-30"/>
      <use xlink:href="#DejaVuSans-2e" x="63.623047"/>
      <use xlink:href="#DejaVuSans-33" x="95.410156"/>
      <use xlink:href="#DejaVuSans-39" x="159.033203"/>
     </g>
    </g>
    <g id="line2d_60">
     <path d="M 506.177563 239.579813 
L 516.177563 239.579813 
L 526.177563 239.579813 
" style="fill: none; stroke: #1f948c; stroke-width: 1.5; stroke-linecap: square"/>
    </g>
    <g id="text_34">
     <!-- 0.41 -->
     <g transform="translate(534.177563 243.079813) scale(0.1 -0.1)">
      <use xlink:href="#DejaVuSans-30"/>
      <use xlink:href="#DejaVuSans-2e" x="63.623047"/>
      <use xlink:href="#DejaVuSans-34" x="95.410156"/>
      <use xlink:href="#DejaVuSans-31" x="159.033203"/>
     </g>
    </g>
    <g id="line2d_61">
     <path d="M 506.177563 254.257938 
L 516.177563 254.257938 
L 526.177563 254.257938 
" style="fill: none; stroke: #1e9d89; stroke-width: 1.5; stroke-linecap: square"/>
    </g>
    <g id="text_35">
     <!-- 0.431 -->
     <g transform="translate(534.177563 257.757938) scale(0.1 -0.1)">
      <use xlink:href="#DejaVuSans-30"/>
      <use xlink:href="#DejaVuSans-2e" x="63.623047"/>
      <use xlink:href="#DejaVuSans-34" x="95.410156"/>
      <use xlink:href="#DejaVuSans-33" x="159.033203"/>
      <use xlink:href="#DejaVuSans-31" x="222.65625"/>
     </g>
    </g>
    <g id="line2d_62">
     <path d="M 506.177563 268.936062 
L 516.177563 268.936062 
L 526.177563 268.936062 
" style="fill: none; stroke: #21a585; stroke-width: 1.5; stroke-linecap: square"/>
    </g>
    <g id="text_36">
     <!-- 0.452 -->
     <g transform="translate(534.177563 272.436062) scale(0.1 -0.1)">
      <use xlink:href="#DejaVuSans-30"/>
      <use xlink:href="#DejaVuSans-2e" x="63.623047"/>
      <use xlink:href="#DejaVuSans-34" x="95.410156"/>
      <use xlink:href="#DejaVuSans-35" x="159.033203"/>
      <use xlink:href="#DejaVuSans-32" x="222.65625"/>
     </g>
    </g>
    <g id="line2d_63">
     <path d="M 506.177563 283.614188 
L 516.177563 283.614188 
L 526.177563 283.614188 
" style="fill: none; stroke: #26ad81; stroke-width: 1.5; stroke-linecap: square"/>
    </g>
    <g id="text_37">
     <!-- 0.472 -->
     <g transform="translate(534.177563 287.114188) scale(0.1 -0.1)">
      <use xlink:href="#DejaVuSans-30"/>
      <use xlink:href="#DejaVuSans-2e" x="63.623047"/>
      <use xlink:href="#DejaVuSans-34" x="95.410156"/>
      <use xlink:href="#DejaVuSans-37" x="159.033203"/>
      <use xlink:href="#DejaVuSans-32" x="222.65625"/>
     </g>
    </g>
    <g id="line2d_64">
     <path d="M 506.177563 298.292312 
L 516.177563 298.292312 
L 526.177563 298.292312 
" style="fill: none; stroke: #31b57b; stroke-width: 1.5; stroke-linecap: square"/>
    </g>
    <g id="text_38">
     <!-- 0.493 -->
     <g transform="translate(534.177563 301.792312) scale(0.1 -0.1)">
      <use xlink:href="#DejaVuSans-30"/>
      <use xlink:href="#DejaVuSans-2e" x="63.623047"/>
      <use xlink:href="#DejaVuSans-34" x="95.410156"/>
      <use xlink:href="#DejaVuSans-39" x="159.033203"/>
      <use xlink:href="#DejaVuSans-33" x="222.65625"/>
     </g>
    </g>
    <g id="line2d_65">
     <path d="M 582.805687 166.189188 
L 592.805687 166.189188 
L 602.805687 166.189188 
" style="fill: none; stroke: #3fbc73; stroke-width: 1.5; stroke-linecap: square"/>
    </g>
    <g id="text_39">
     <!-- 0.514 -->
     <g transform="translate(610.805687 169.689188) scale(0.1 -0.1)">
      <use xlink:href="#DejaVuSans-30"/>
      <use xlink:href="#DejaVuSans-2e" x="63.623047"/>
      <use xlink:href="#DejaVuSans-35" x="95.410156"/>
      <use xlink:href="#DejaVuSans-31" x="159.033203"/>
      <use xlink:href="#DejaVuSans-34" x="222.65625"/>
     </g>
    </g>
    <g id="line2d_66">
     <path d="M 582.805687 180.867313 
L 592.805687 180.867313 
L 602.805687 180.867313 
" style="fill: none; stroke: #50c46a; stroke-width: 1.5; stroke-linecap: square"/>
    </g>
    <g id="text_40">
     <!-- 0.534 -->
     <g transform="translate(610.805687 184.367313) scale(0.1 -0.1)">
      <use xlink:href="#DejaVuSans-30"/>
      <use xlink:href="#DejaVuSans-2e" x="63.623047"/>
      <use xlink:href="#DejaVuSans-35" x="95.410156"/>
      <use xlink:href="#DejaVuSans-33" x="159.033203"/>
      <use xlink:href="#DejaVuSans-34" x="222.65625"/>
     </g>
    </g>
    <g id="line2d_67">
     <path d="M 582.805687 195.545438 
L 592.805687 195.545438 
L 602.805687 195.545438 
" style="fill: none; stroke: #63cb5f; stroke-width: 1.5; stroke-linecap: square"/>
    </g>
    <g id="text_41">
     <!-- 0.555 -->
     <g transform="translate(610.805687 199.045438) scale(0.1 -0.1)">
      <use xlink:href="#DejaVuSans-30"/>
      <use xlink:href="#DejaVuSans-2e" x="63.623047"/>
      <use xlink:href="#DejaVuSans-35" x="95.410156"/>
      <use xlink:href="#DejaVuSans-35" x="159.033203"/>
      <use xlink:href="#DejaVuSans-35" x="222.65625"/>
     </g>
    </g>
    <g id="line2d_68">
     <path d="M 582.805687 210.223563 
L 592.805687 210.223563 
L 602.805687 210.223563 
" style="fill: none; stroke: #77d153; stroke-width: 1.5; stroke-linecap: square"/>
    </g>
    <g id="text_42">
     <!-- 0.576 -->
     <g transform="translate(610.805687 213.723563) scale(0.1 -0.1)">
      <use xlink:href="#DejaVuSans-30"/>
      <use xlink:href="#DejaVuSans-2e" x="63.623047"/>
      <use xlink:href="#DejaVuSans-35" x="95.410156"/>
      <use xlink:href="#DejaVuSans-37" x="159.033203"/>
      <use xlink:href="#DejaVuSans-36" x="222.65625"/>
     </g>
    </g>
    <g id="line2d_69">
     <path d="M 582.805687 224.901688 
L 592.805687 224.901688 
L 602.805687 224.901688 
" style="fill: none; stroke: #8bd646; stroke-width: 1.5; stroke-linecap: square"/>
    </g>
    <g id="text_43">
     <!-- 0.597 -->
     <g transform="translate(610.805687 228.401688) scale(0.1 -0.1)">
      <use xlink:href="#DejaVuSans-30"/>
      <use xlink:href="#DejaVuSans-2e" x="63.623047"/>
      <use xlink:href="#DejaVuSans-35" x="95.410156"/>
      <use xlink:href="#DejaVuSans-39" x="159.033203"/>
      <use xlink:href="#DejaVuSans-37" x="222.65625"/>
     </g>
    </g>
    <g id="line2d_70">
     <path d="M 582.805687 239.579813 
L 592.805687 239.579813 
L 602.805687 239.579813 
" style="fill: none; stroke: #a2da37; stroke-width: 1.5; stroke-linecap: square"/>
    </g>
    <g id="text_44">
     <!-- 0.617 -->
     <g transform="translate(610.805687 243.079813) scale(0.1 -0.1)">
      <use xlink:href="#DejaVuSans-30"/>
      <use xlink:href="#DejaVuSans-2e" x="63.623047"/>
      <use xlink:href="#DejaVuSans-36" x="95.410156"/>
      <use xlink:href="#DejaVuSans-31" x="159.033203"/>
      <use xlink:href="#DejaVuSans-37" x="222.65625"/>
     </g>
    </g>
    <g id="line2d_71">
     <path d="M 582.805687 254.257938 
L 592.805687 254.257938 
L 602.805687 254.257938 
" style="fill: none; stroke: #bade28; stroke-width: 1.5; stroke-linecap: square"/>
    </g>
    <g id="text_45">
     <!-- 0.638 -->
     <g transform="translate(610.805687 257.757938) scale(0.1 -0.1)">
      <use xlink:href="#DejaVuSans-30"/>
      <use xlink:href="#DejaVuSans-2e" x="63.623047"/>
      <use xlink:href="#DejaVuSans-36" x="95.410156"/>
      <use xlink:href="#DejaVuSans-33" x="159.033203"/>
      <use xlink:href="#DejaVuSans-38" x="222.65625"/>
     </g>
    </g>
    <g id="line2d_72">
     <path d="M 582.805687 268.936062 
L 592.805687 268.936062 
L 602.805687 268.936062 
" style="fill: none; stroke: #d2e21b; stroke-width: 1.5; stroke-linecap: square"/>
    </g>
    <g id="text_46">
     <!-- 0.659 -->
     <g transform="translate(610.805687 272.436062) scale(0.1 -0.1)">
      <use xlink:href="#DejaVuSans-30"/>
      <use xlink:href="#DejaVuSans-2e" x="63.623047"/>
      <use xlink:href="#DejaVuSans-36" x="95.410156"/>
      <use xlink:href="#DejaVuSans-35" x="159.033203"/>
      <use xlink:href="#DejaVuSans-39" x="222.65625"/>
     </g>
    </g>
    <g id="line2d_73">
     <path d="M 582.805687 283.614188 
L 592.805687 283.614188 
L 602.805687 283.614188 
" style="fill: none; stroke: #eae51a; stroke-width: 1.5; stroke-linecap: square"/>
    </g>
    <g id="text_47">
     <!-- 0.679 -->
     <g transform="translate(610.805687 287.114188) scale(0.1 -0.1)">
      <use xlink:href="#DejaVuSans-30"/>
      <use xlink:href="#DejaVuSans-2e" x="63.623047"/>
      <use xlink:href="#DejaVuSans-36" x="95.410156"/>
      <use xlink:href="#DejaVuSans-37" x="159.033203"/>
      <use xlink:href="#DejaVuSans-39" x="222.65625"/>
     </g>
    </g>
    <g id="line2d_74">
     <path d="M 582.805687 298.292312 
L 592.805687 298.292312 
L 602.805687 298.292312 
" style="fill: none; stroke: #fde725; stroke-width: 1.5; stroke-linecap: square"/>
    </g>
    <g id="text_48">
     <!-- 0.7 -->
     <g transform="translate(610.805687 301.792312) scale(0.1 -0.1)">
      <use xlink:href="#DejaVuSans-30"/>
      <use xlink:href="#DejaVuSans-2e" x="63.623047"/>
      <use xlink:href="#DejaVuSans-37" x="95.410156"/>
     </g>
    </g>
   </g>
  </g>
  <g id="text_49">
   <!-- x0x1-y1 One-tone-powerDep -->
   <g transform="translate(136.569375 16.318125) scale(0.12 -0.12)">
    <defs>
     <path id="DejaVuSans-78" d="M 3513 3500 
L 2247 1797 
L 3578 0 
L 2900 0 
L 1881 1375 
L 863 0 
L 184 0 
L 1544 1831 
L 300 3500 
L 978 3500 
L 1906 2253 
L 2834 3500 
L 3513 3500 
z
" transform="scale(0.015625)"/>
     <path id="DejaVuSans-4f" d="M 2522 4238 
Q 1834 4238 1429 3725 
Q 1025 3213 1025 2328 
Q 1025 1447 1429 934 
Q 1834 422 2522 422 
Q 3209 422 3611 934 
Q 4013 1447 4013 2328 
Q 4013 3213 3611 3725 
Q 3209 4238 2522 4238 
z
M 2522 4750 
Q 3503 4750 4090 4092 
Q 4678 3434 4678 2328 
Q 4678 1225 4090 567 
Q 3503 -91 2522 -91 
Q 1538 -91 948 565 
Q 359 1222 359 2328 
Q 359 3434 948 4092 
Q 1538 4750 2522 4750 
z
" transform="scale(0.015625)"/>
     <path id="DejaVuSans-77" d="M 269 3500 
L 844 3500 
L 1563 769 
L 2278 3500 
L 2956 3500 
L 3675 769 
L 4391 3500 
L 4966 3500 
L 4050 0 
L 3372 0 
L 2619 2869 
L 1863 0 
L 1184 0 
L 269 3500 
z
" transform="scale(0.015625)"/>
     <path id="DejaVuSans-44" d="M 1259 4147 
L 1259 519 
L 2022 519 
Q 2988 519 3436 956 
Q 3884 1394 3884 2338 
Q 3884 3275 3436 3711 
Q 2988 4147 2022 4147 
L 1259 4147 
z
M 628 4666 
L 1925 4666 
Q 3281 4666 3915 4102 
Q 4550 3538 4550 2338 
Q 4550 1131 3912 565 
Q 3275 0 1925 0 
L 628 0 
L 628 4666 
z
" transform="scale(0.015625)"/>
    </defs>
    <use xlink:href="#DejaVuSans-78"/>
    <use xlink:href="#DejaVuSans-30" x="59.179688"/>
    <use xlink:href="#DejaVuSans-78" x="122.802734"/>
    <use xlink:href="#DejaVuSans-31" x="181.982422"/>
    <use xlink:href="#DejaVuSans-2d" x="245.605469"/>
    <use xlink:href="#DejaVuSans-79" x="279.939453"/>
    <use xlink:href="#DejaVuSans-31" x="339.119141"/>
    <use xlink:href="#DejaVuSans-20" x="402.742188"/>
    <use xlink:href="#DejaVuSans-4f" x="434.529297"/>
    <use xlink:href="#DejaVuSans-6e" x="513.240234"/>
    <use xlink:href="#DejaVuSans-65" x="576.619141"/>
    <use xlink:href="#DejaVuSans-2d" x="638.142578"/>
    <use xlink:href="#DejaVuSans-74" x="674.226562"/>
    <use xlink:href="#DejaVuSans-6f" x="713.435547"/>
    <use xlink:href="#DejaVuSans-6e" x="774.617188"/>
    <use xlink:href="#DejaVuSans-65" x="837.996094"/>
    <use xlink:href="#DejaVuSans-2d" x="899.519531"/>
    <use xlink:href="#DejaVuSans-70" x="935.603516"/>
    <use xlink:href="#DejaVuSans-6f" x="999.080078"/>
    <use xlink:href="#DejaVuSans-77" x="1060.261719"/>
    <use xlink:href="#DejaVuSans-65" x="1142.048828"/>
    <use xlink:href="#DejaVuSans-72" x="1203.572266"/>
    <use xlink:href="#DejaVuSans-44" x="1244.685547"/>
    <use xlink:href="#DejaVuSans-65" x="1321.6875"/>
    <use xlink:href="#DejaVuSans-70" x="1383.210938"/>
   </g>
   <!-- tuid: 20240223-164855-787-f8b201 -->
   <g transform="translate(115.231875 29.7555) scale(0.12 -0.12)">
    <defs>
     <path id="DejaVuSans-3a" d="M 750 794 
L 1409 794 
L 1409 0 
L 750 0 
L 750 794 
z
M 750 3309 
L 1409 3309 
L 1409 2516 
L 750 2516 
L 750 3309 
z
" transform="scale(0.015625)"/>
     <path id="DejaVuSans-66" d="M 2375 4863 
L 2375 4384 
L 1825 4384 
Q 1516 4384 1395 4259 
Q 1275 4134 1275 3809 
L 1275 3500 
L 2222 3500 
L 2222 3053 
L 1275 3053 
L 1275 0 
L 697 0 
L 697 3053 
L 147 3053 
L 147 3500 
L 697 3500 
L 697 3744 
Q 697 4328 969 4595 
Q 1241 4863 1831 4863 
L 2375 4863 
z
" transform="scale(0.015625)"/>
     <path id="DejaVuSans-62" d="M 3116 1747 
Q 3116 2381 2855 2742 
Q 2594 3103 2138 3103 
Q 1681 3103 1420 2742 
Q 1159 2381 1159 1747 
Q 1159 1113 1420 752 
Q 1681 391 2138 391 
Q 2594 391 2855 752 
Q 3116 1113 3116 1747 
z
M 1159 2969 
Q 1341 3281 1617 3432 
Q 1894 3584 2278 3584 
Q 2916 3584 3314 3078 
Q 3713 2572 3713 1747 
Q 3713 922 3314 415 
Q 2916 -91 2278 -91 
Q 1894 -91 1617 61 
Q 1341 213 1159 525 
L 1159 0 
L 581 0 
L 581 4863 
L 1159 4863 
L 1159 2969 
z
" transform="scale(0.015625)"/>
    </defs>
    <use xlink:href="#DejaVuSans-74"/>
    <use xlink:href="#DejaVuSans-75" x="39.208984"/>
    <use xlink:href="#DejaVuSans-69" x="102.587891"/>
    <use xlink:href="#DejaVuSans-64" x="130.371094"/>
    <use xlink:href="#DejaVuSans-3a" x="193.847656"/>
    <use xlink:href="#DejaVuSans-20" x="227.539062"/>
    <use xlink:href="#DejaVuSans-32" x="259.326172"/>
    <use xlink:href="#DejaVuSans-30" x="322.949219"/>
    <use xlink:href="#DejaVuSans-32" x="386.572266"/>
    <use xlink:href="#DejaVuSans-34" x="450.195312"/>
    <use xlink:href="#DejaVuSans-30" x="513.818359"/>
    <use xlink:href="#DejaVuSans-32" x="577.441406"/>
    <use xlink:href="#DejaVuSans-32" x="641.064453"/>
    <use xlink:href="#DejaVuSans-33" x="704.6875"/>
    <use xlink:href="#DejaVuSans-2d" x="768.310547"/>
    <use xlink:href="#DejaVuSans-31" x="804.394531"/>
    <use xlink:href="#DejaVuSans-36" x="868.017578"/>
    <use xlink:href="#DejaVuSans-34" x="931.640625"/>
    <use xlink:href="#DejaVuSans-38" x="995.263672"/>
    <use xlink:href="#DejaVuSans-35" x="1058.886719"/>
    <use xlink:href="#DejaVuSans-35" x="1122.509766"/>
    <use xlink:href="#DejaVuSans-2d" x="1186.132812"/>
    <use xlink:href="#DejaVuSans-37" x="1222.216797"/>
    <use xlink:href="#DejaVuSans-38" x="1285.839844"/>
    <use xlink:href="#DejaVuSans-37" x="1349.462891"/>
    <use xlink:href="#DejaVuSans-2d" x="1413.085938"/>
    <use xlink:href="#DejaVuSans-66" x="1449.169922"/>
    <use xlink:href="#DejaVuSans-38" x="1484.375"/>
    <use xlink:href="#DejaVuSans-62" x="1547.998047"/>
    <use xlink:href="#DejaVuSans-32" x="1611.474609"/>
    <use xlink:href="#DejaVuSans-30" x="1675.097656"/>
    <use xlink:href="#DejaVuSans-31" x="1738.720703"/>
   </g>
  </g>
 </g>
 <defs>
  <clipPath id="p9aeb8414c2">
   <rect x="50.573438" y="41.76" width="357.12" height="266.112"/>
  </clipPath>
 </defs>
</svg>
