<?xml version="1.0" encoding="utf-8" standalone="no"?>
<!DOCTYPE svg PUBLIC "-//W3C//DTD SVG 1.1//EN"
  "http://www.w3.org/Graphics/SVG/1.1/DTD/svg11.dtd">
<svg xmlns:xlink="http://www.w3.org/1999/xlink" width="574.265062pt" height="345.42825pt" viewBox="0 0 574.265062 345.42825" xmlns="http://www.w3.org/2000/svg" version="1.1">
 <metadata>
  <rdf:RDF xmlns:dc="http://purl.org/dc/elements/1.1/" xmlns:cc="http://creativecommons.org/ns#" xmlns:rdf="http://www.w3.org/1999/02/22-rdf-syntax-ns#">
   <cc:Work>
    <dc:type rdf:resource="http://purl.org/dc/dcmitype/StillImage"/>
    <dc:date>2024-01-23T14:14:56.276222</dc:date>
    <dc:format>image/svg+xml</dc:format>
    <dc:creator>
     <cc:Agent>
      <dc:title>Matplotlib v3.8.1, https://matplotlib.org/</dc:title>
     </cc:Agent>
    </dc:creator>
   </cc:Work>
  </rdf:RDF>
 </metadata>
 <defs>
  <style type="text/css">*{stroke-linejoin: round; stroke-linecap: butt}</style>
 </defs>
 <g id="figure_1">
  <g id="patch_1">
   <path d="M 0 345.42825 
L 574.265062 345.42825 
L 574.265062 -0 
L 0 -0 
L 0 345.42825 
z
" style="fill: none; opacity: 0"/>
  </g>
  <g id="axes_1">
   <g id="patch_2">
    <path d="M 47.389063 307.872 
L 404.509063 307.872 
L 404.509063 41.76 
L 47.389063 41.76 
z
" style="fill: #ffffff"/>
   </g>
   <g id="matplotlib.axis_1">
    <g id="xtick_1">
     <g id="line2d_1">
      <defs>
       <path id="m693512eb8b" d="M 0 0 
L 0 3.5 
" style="stroke: #000000; stroke-width: 0.8"/>
      </defs>
      <g>
       <use xlink:href="#m693512eb8b" x="85.177806" y="307.872" style="stroke: #000000; stroke-width: 0.8"/>
      </g>
     </g>
     <g id="text_1">
      <!-- -0.8 -->
      <g transform="translate(75.422337 322.470438) scale(0.1 -0.1)">
       <defs>
        <path id="DejaVuSans-2d" d="M 313 2009 
L 1997 2009 
L 1997 1497 
L 313 1497 
L 313 2009 
z
" transform="scale(0.015625)"/>
        <path id="DejaVuSans-30" d="M 2034 4250 
Q 1547 4250 1301 3770 
Q 1056 3291 1056 2328 
Q 1056 1369 1301 889 
Q 1547 409 2034 409 
Q 2525 409 2770 889 
Q 3016 1369 3016 2328 
Q 3016 3291 2770 3770 
Q 2525 4250 2034 4250 
z
M 2034 4750 
Q 2819 4750 3233 4129 
Q 3647 3509 3647 2328 
Q 3647 1150 3233 529 
Q 2819 -91 2034 -91 
Q 1250 -91 836 529 
Q 422 1150 422 2328 
Q 422 3509 836 4129 
Q 1250 4750 2034 4750 
z
" transform="scale(0.015625)"/>
        <path id="DejaVuSans-2e" d="M 684 794 
L 1344 794 
L 1344 0 
L 684 0 
L 684 794 
z
" transform="scale(0.015625)"/>
        <path id="DejaVuSans-38" d="M 2034 2216 
Q 1584 2216 1326 1975 
Q 1069 1734 1069 1313 
Q 1069 891 1326 650 
Q 1584 409 2034 409 
Q 2484 409 2743 651 
Q 3003 894 3003 1313 
Q 3003 1734 2745 1975 
Q 2488 2216 2034 2216 
z
M 1403 2484 
Q 997 2584 770 2862 
Q 544 3141 544 3541 
Q 544 4100 942 4425 
Q 1341 4750 2034 4750 
Q 2731 4750 3128 4425 
Q 3525 4100 3525 3541 
Q 3525 3141 3298 2862 
Q 3072 2584 2669 2484 
Q 3125 2378 3379 2068 
Q 3634 1759 3634 1313 
Q 3634 634 3220 271 
Q 2806 -91 2034 -91 
Q 1263 -91 848 271 
Q 434 634 434 1313 
Q 434 1759 690 2068 
Q 947 2378 1403 2484 
z
M 1172 3481 
Q 1172 3119 1398 2916 
Q 1625 2713 2034 2713 
Q 2441 2713 2670 2916 
Q 2900 3119 2900 3481 
Q 2900 3844 2670 4047 
Q 2441 4250 2034 4250 
Q 1625 4250 1398 4047 
Q 1172 3844 1172 3481 
z
" transform="scale(0.015625)"/>
       </defs>
       <use xlink:href="#DejaVuSans-2d"/>
       <use xlink:href="#DejaVuSans-30" x="36.083984"/>
       <use xlink:href="#DejaVuSans-2e" x="99.707031"/>
       <use xlink:href="#DejaVuSans-38" x="131.494141"/>
      </g>
     </g>
    </g>
    <g id="xtick_2">
     <g id="line2d_2">
      <g>
       <use xlink:href="#m693512eb8b" x="132.003237" y="307.872" style="stroke: #000000; stroke-width: 0.8"/>
      </g>
     </g>
     <g id="text_2">
      <!-- -0.6 -->
      <g transform="translate(122.247769 322.470438) scale(0.1 -0.1)">
       <defs>
        <path id="DejaVuSans-36" d="M 2113 2584 
Q 1688 2584 1439 2293 
Q 1191 2003 1191 1497 
Q 1191 994 1439 701 
Q 1688 409 2113 409 
Q 2538 409 2786 701 
Q 3034 994 3034 1497 
Q 3034 2003 2786 2293 
Q 2538 2584 2113 2584 
z
M 3366 4563 
L 3366 3988 
Q 3128 4100 2886 4159 
Q 2644 4219 2406 4219 
Q 1781 4219 1451 3797 
Q 1122 3375 1075 2522 
Q 1259 2794 1537 2939 
Q 1816 3084 2150 3084 
Q 2853 3084 3261 2657 
Q 3669 2231 3669 1497 
Q 3669 778 3244 343 
Q 2819 -91 2113 -91 
Q 1303 -91 875 529 
Q 447 1150 447 2328 
Q 447 3434 972 4092 
Q 1497 4750 2381 4750 
Q 2619 4750 2861 4703 
Q 3103 4656 3366 4563 
z
" transform="scale(0.015625)"/>
       </defs>
       <use xlink:href="#DejaVuSans-2d"/>
       <use xlink:href="#DejaVuSans-30" x="36.083984"/>
       <use xlink:href="#DejaVuSans-2e" x="99.707031"/>
       <use xlink:href="#DejaVuSans-36" x="131.494141"/>
      </g>
     </g>
    </g>
    <g id="xtick_3">
     <g id="line2d_3">
      <g>
       <use xlink:href="#m693512eb8b" x="178.828669" y="307.872" style="stroke: #000000; stroke-width: 0.8"/>
      </g>
     </g>
     <g id="text_3">
      <!-- -0.4 -->
      <g transform="translate(169.0732 322.470438) scale(0.1 -0.1)">
       <defs>
        <path id="DejaVuSans-34" d="M 2419 4116 
L 825 1625 
L 2419 1625 
L 2419 4116 
z
M 2253 4666 
L 3047 4666 
L 3047 1625 
L 3713 1625 
L 3713 1100 
L 3047 1100 
L 3047 0 
L 2419 0 
L 2419 1100 
L 313 1100 
L 313 1709 
L 2253 4666 
z
" transform="scale(0.015625)"/>
       </defs>
       <use xlink:href="#DejaVuSans-2d"/>
       <use xlink:href="#DejaVuSans-30" x="36.083984"/>
       <use xlink:href="#DejaVuSans-2e" x="99.707031"/>
       <use xlink:href="#DejaVuSans-34" x="131.494141"/>
      </g>
     </g>
    </g>
    <g id="xtick_4">
     <g id="line2d_4">
      <g>
       <use xlink:href="#m693512eb8b" x="225.6541" y="307.872" style="stroke: #000000; stroke-width: 0.8"/>
      </g>
     </g>
     <g id="text_4">
      <!-- -0.2 -->
      <g transform="translate(215.898631 322.470438) scale(0.1 -0.1)">
       <defs>
        <path id="DejaVuSans-32" d="M 1228 531 
L 3431 531 
L 3431 0 
L 469 0 
L 469 531 
Q 828 903 1448 1529 
Q 2069 2156 2228 2338 
Q 2531 2678 2651 2914 
Q 2772 3150 2772 3378 
Q 2772 3750 2511 3984 
Q 2250 4219 1831 4219 
Q 1534 4219 1204 4116 
Q 875 4013 500 3803 
L 500 4441 
Q 881 4594 1212 4672 
Q 1544 4750 1819 4750 
Q 2544 4750 2975 4387 
Q 3406 4025 3406 3419 
Q 3406 3131 3298 2873 
Q 3191 2616 2906 2266 
Q 2828 2175 2409 1742 
Q 1991 1309 1228 531 
z
" transform="scale(0.015625)"/>
       </defs>
       <use xlink:href="#DejaVuSans-2d"/>
       <use xlink:href="#DejaVuSans-30" x="36.083984"/>
       <use xlink:href="#DejaVuSans-2e" x="99.707031"/>
       <use xlink:href="#DejaVuSans-32" x="131.494141"/>
      </g>
     </g>
    </g>
    <g id="xtick_5">
     <g id="line2d_5">
      <g>
       <use xlink:href="#m693512eb8b" x="272.479532" y="307.872" style="stroke: #000000; stroke-width: 0.8"/>
      </g>
     </g>
     <g id="text_5">
      <!-- 0 -->
      <g transform="translate(269.298282 322.470438) scale(0.1 -0.1)">
       <use xlink:href="#DejaVuSans-30"/>
      </g>
     </g>
    </g>
    <g id="xtick_6">
     <g id="line2d_6">
      <g>
       <use xlink:href="#m693512eb8b" x="319.304963" y="307.872" style="stroke: #000000; stroke-width: 0.8"/>
      </g>
     </g>
     <g id="text_6">
      <!-- 0.2 -->
      <g transform="translate(311.353401 322.470438) scale(0.1 -0.1)">
       <use xlink:href="#DejaVuSans-30"/>
       <use xlink:href="#DejaVuSans-2e" x="63.623047"/>
       <use xlink:href="#DejaVuSans-32" x="95.410156"/>
      </g>
     </g>
    </g>
    <g id="xtick_7">
     <g id="line2d_7">
      <g>
       <use xlink:href="#m693512eb8b" x="366.130394" y="307.872" style="stroke: #000000; stroke-width: 0.8"/>
      </g>
     </g>
     <g id="text_7">
      <!-- 0.4 -->
      <g transform="translate(358.178832 322.470438) scale(0.1 -0.1)">
       <use xlink:href="#DejaVuSans-30"/>
       <use xlink:href="#DejaVuSans-2e" x="63.623047"/>
       <use xlink:href="#DejaVuSans-34" x="95.410156"/>
      </g>
     </g>
    </g>
    <g id="text_8">
     <!-- Re$(S_{21})$ [mV] -->
     <g transform="translate(193.949063 336.148562) scale(0.1 -0.1)">
      <defs>
       <path id="DejaVuSans-52" d="M 2841 2188 
Q 3044 2119 3236 1894 
Q 3428 1669 3622 1275 
L 4263 0 
L 3584 0 
L 2988 1197 
Q 2756 1666 2539 1819 
Q 2322 1972 1947 1972 
L 1259 1972 
L 1259 0 
L 628 0 
L 628 4666 
L 2053 4666 
Q 2853 4666 3247 4331 
Q 3641 3997 3641 3322 
Q 3641 2881 3436 2590 
Q 3231 2300 2841 2188 
z
M 1259 4147 
L 1259 2491 
L 2053 2491 
Q 2509 2491 2742 2702 
Q 2975 2913 2975 3322 
Q 2975 3731 2742 3939 
Q 2509 4147 2053 4147 
L 1259 4147 
z
" transform="scale(0.015625)"/>
       <path id="DejaVuSans-65" d="M 3597 1894 
L 3597 1613 
L 953 1613 
Q 991 1019 1311 708 
Q 1631 397 2203 397 
Q 2534 397 2845 478 
Q 3156 559 3463 722 
L 3463 178 
Q 3153 47 2828 -22 
Q 2503 -91 2169 -91 
Q 1331 -91 842 396 
Q 353 884 353 1716 
Q 353 2575 817 3079 
Q 1281 3584 2069 3584 
Q 2775 3584 3186 3129 
Q 3597 2675 3597 1894 
z
M 3022 2063 
Q 3016 2534 2758 2815 
Q 2500 3097 2075 3097 
Q 1594 3097 1305 2825 
Q 1016 2553 972 2059 
L 3022 2063 
z
" transform="scale(0.015625)"/>
       <path id="DejaVuSans-28" d="M 1984 4856 
Q 1566 4138 1362 3434 
Q 1159 2731 1159 2009 
Q 1159 1288 1364 580 
Q 1569 -128 1984 -844 
L 1484 -844 
Q 1016 -109 783 600 
Q 550 1309 550 2009 
Q 550 2706 781 3412 
Q 1013 4119 1484 4856 
L 1984 4856 
z
" transform="scale(0.015625)"/>
       <path id="DejaVuSans-Oblique-53" d="M 3859 4513 
L 3738 3897 
Q 3422 4066 3111 4152 
Q 2800 4238 2509 4238 
Q 1944 4238 1609 3991 
Q 1275 3744 1275 3334 
Q 1275 3109 1398 2989 
Q 1522 2869 2034 2731 
L 2413 2638 
Q 3053 2472 3303 2217 
Q 3553 1963 3553 1503 
Q 3553 797 2998 353 
Q 2444 -91 1538 -91 
Q 1166 -91 791 -17 
Q 416 56 38 206 
L 166 856 
Q 513 641 861 531 
Q 1209 422 1556 422 
Q 2147 422 2503 684 
Q 2859 947 2859 1369 
Q 2859 1650 2717 1795 
Q 2575 1941 2106 2059 
L 1728 2156 
Q 1081 2325 845 2545 
Q 609 2766 609 3163 
Q 609 3859 1145 4304 
Q 1681 4750 2541 4750 
Q 2875 4750 3203 4690 
Q 3531 4631 3859 4513 
z
" transform="scale(0.015625)"/>
       <path id="DejaVuSans-31" d="M 794 531 
L 1825 531 
L 1825 4091 
L 703 3866 
L 703 4441 
L 1819 4666 
L 2450 4666 
L 2450 531 
L 3481 531 
L 3481 0 
L 794 0 
L 794 531 
z
" transform="scale(0.015625)"/>
       <path id="DejaVuSans-29" d="M 513 4856 
L 1013 4856 
Q 1481 4119 1714 3412 
Q 1947 2706 1947 2009 
Q 1947 1309 1714 600 
Q 1481 -109 1013 -844 
L 513 -844 
Q 928 -128 1133 580 
Q 1338 1288 1338 2009 
Q 1338 2731 1133 3434 
Q 928 4138 513 4856 
z
" transform="scale(0.015625)"/>
       <path id="DejaVuSans-20" transform="scale(0.015625)"/>
       <path id="DejaVuSans-5b" d="M 550 4863 
L 1875 4863 
L 1875 4416 
L 1125 4416 
L 1125 -397 
L 1875 -397 
L 1875 -844 
L 550 -844 
L 550 4863 
z
" transform="scale(0.015625)"/>
       <path id="DejaVuSans-6d" d="M 3328 2828 
Q 3544 3216 3844 3400 
Q 4144 3584 4550 3584 
Q 5097 3584 5394 3201 
Q 5691 2819 5691 2113 
L 5691 0 
L 5113 0 
L 5113 2094 
Q 5113 2597 4934 2840 
Q 4756 3084 4391 3084 
Q 3944 3084 3684 2787 
Q 3425 2491 3425 1978 
L 3425 0 
L 2847 0 
L 2847 2094 
Q 2847 2600 2669 2842 
Q 2491 3084 2119 3084 
Q 1678 3084 1418 2786 
Q 1159 2488 1159 1978 
L 1159 0 
L 581 0 
L 581 3500 
L 1159 3500 
L 1159 2956 
Q 1356 3278 1631 3431 
Q 1906 3584 2284 3584 
Q 2666 3584 2933 3390 
Q 3200 3197 3328 2828 
z
" transform="scale(0.015625)"/>
       <path id="DejaVuSans-56" d="M 1831 0 
L 50 4666 
L 709 4666 
L 2188 738 
L 3669 4666 
L 4325 4666 
L 2547 0 
L 1831 0 
z
" transform="scale(0.015625)"/>
       <path id="DejaVuSans-5d" d="M 1947 4863 
L 1947 -844 
L 622 -844 
L 622 -397 
L 1369 -397 
L 1369 4416 
L 622 4416 
L 622 4863 
L 1947 4863 
z
" transform="scale(0.015625)"/>
      </defs>
      <use xlink:href="#DejaVuSans-52" transform="translate(0 0.015625)"/>
      <use xlink:href="#DejaVuSans-65" transform="translate(69.482422 0.015625)"/>
      <use xlink:href="#DejaVuSans-28" transform="translate(131.005859 0.015625)"/>
      <use xlink:href="#DejaVuSans-Oblique-53" transform="translate(170.019531 0.015625)"/>
      <use xlink:href="#DejaVuSans-32" transform="translate(233.496094 -16.390625) scale(0.7)"/>
      <use xlink:href="#DejaVuSans-31" transform="translate(278.032227 -16.390625) scale(0.7)"/>
      <use xlink:href="#DejaVuSans-29" transform="translate(325.302734 0.015625)"/>
      <use xlink:href="#DejaVuSans-20" transform="translate(364.316406 0.015625)"/>
      <use xlink:href="#DejaVuSans-5b" transform="translate(396.103516 0.015625)"/>
      <use xlink:href="#DejaVuSans-6d" transform="translate(435.117188 0.015625)"/>
      <use xlink:href="#DejaVuSans-56" transform="translate(532.529297 0.015625)"/>
      <use xlink:href="#DejaVuSans-5d" transform="translate(600.9375 0.015625)"/>
     </g>
    </g>
   </g>
   <g id="matplotlib.axis_2">
    <g id="ytick_1">
     <g id="line2d_8">
      <defs>
       <path id="m2ca1c4c974" d="M 0 0 
L -3.5 0 
" style="stroke: #000000; stroke-width: 0.8"/>
      </defs>
      <g>
       <use xlink:href="#m2ca1c4c974" x="47.389063" y="287.667672" style="stroke: #000000; stroke-width: 0.8"/>
      </g>
     </g>
     <g id="text_9">
      <!-- -2.2 -->
      <g transform="translate(20.878125 291.46689) scale(0.1 -0.1)">
       <use xlink:href="#DejaVuSans-2d"/>
       <use xlink:href="#DejaVuSans-32" x="36.083984"/>
       <use xlink:href="#DejaVuSans-2e" x="99.707031"/>
       <use xlink:href="#DejaVuSans-32" x="131.494141"/>
      </g>
     </g>
    </g>
    <g id="ytick_2">
     <g id="line2d_9">
      <g>
       <use xlink:href="#m2ca1c4c974" x="47.389063" y="251.124853" style="stroke: #000000; stroke-width: 0.8"/>
      </g>
     </g>
     <g id="text_10">
      <!-- -2 -->
      <g transform="translate(30.41875 254.924072) scale(0.1 -0.1)">
       <use xlink:href="#DejaVuSans-2d"/>
       <use xlink:href="#DejaVuSans-32" x="36.083984"/>
      </g>
     </g>
    </g>
    <g id="ytick_3">
     <g id="line2d_10">
      <g>
       <use xlink:href="#m2ca1c4c974" x="47.389063" y="214.582034" style="stroke: #000000; stroke-width: 0.8"/>
      </g>
     </g>
     <g id="text_11">
      <!-- -1.8 -->
      <g transform="translate(20.878125 218.381253) scale(0.1 -0.1)">
       <use xlink:href="#DejaVuSans-2d"/>
       <use xlink:href="#DejaVuSans-31" x="36.083984"/>
       <use xlink:href="#DejaVuSans-2e" x="99.707031"/>
       <use xlink:href="#DejaVuSans-38" x="131.494141"/>
      </g>
     </g>
    </g>
    <g id="ytick_4">
     <g id="line2d_11">
      <g>
       <use xlink:href="#m2ca1c4c974" x="47.389063" y="178.039216" style="stroke: #000000; stroke-width: 0.8"/>
      </g>
     </g>
     <g id="text_12">
      <!-- -1.6 -->
      <g transform="translate(20.878125 181.838435) scale(0.1 -0.1)">
       <use xlink:href="#DejaVuSans-2d"/>
       <use xlink:href="#DejaVuSans-31" x="36.083984"/>
       <use xlink:href="#DejaVuSans-2e" x="99.707031"/>
       <use xlink:href="#DejaVuSans-36" x="131.494141"/>
      </g>
     </g>
    </g>
    <g id="ytick_5">
     <g id="line2d_12">
      <g>
       <use xlink:href="#m2ca1c4c974" x="47.389063" y="141.496397" style="stroke: #000000; stroke-width: 0.8"/>
      </g>
     </g>
     <g id="text_13">
      <!-- -1.4 -->
      <g transform="translate(20.878125 145.295616) scale(0.1 -0.1)">
       <use xlink:href="#DejaVuSans-2d"/>
       <use xlink:href="#DejaVuSans-31" x="36.083984"/>
       <use xlink:href="#DejaVuSans-2e" x="99.707031"/>
       <use xlink:href="#DejaVuSans-34" x="131.494141"/>
      </g>
     </g>
    </g>
    <g id="ytick_6">
     <g id="line2d_13">
      <g>
       <use xlink:href="#m2ca1c4c974" x="47.389063" y="104.953579" style="stroke: #000000; stroke-width: 0.8"/>
      </g>
     </g>
     <g id="text_14">
      <!-- -1.2 -->
      <g transform="translate(20.878125 108.752798) scale(0.1 -0.1)">
       <use xlink:href="#DejaVuSans-2d"/>
       <use xlink:href="#DejaVuSans-31" x="36.083984"/>
       <use xlink:href="#DejaVuSans-2e" x="99.707031"/>
       <use xlink:href="#DejaVuSans-32" x="131.494141"/>
      </g>
     </g>
    </g>
    <g id="ytick_7">
     <g id="line2d_14">
      <g>
       <use xlink:href="#m2ca1c4c974" x="47.389063" y="68.41076" style="stroke: #000000; stroke-width: 0.8"/>
      </g>
     </g>
     <g id="text_15">
      <!-- -1 -->
      <g transform="translate(30.41875 72.209979) scale(0.1 -0.1)">
       <use xlink:href="#DejaVuSans-2d"/>
       <use xlink:href="#DejaVuSans-31" x="36.083984"/>
      </g>
     </g>
    </g>
    <g id="text_16">
     <!-- Im$(S_{21})$ [mV] -->
     <g transform="translate(14.798438 206.466) rotate(-90) scale(0.1 -0.1)">
      <defs>
       <path id="DejaVuSans-49" d="M 628 4666 
L 1259 4666 
L 1259 0 
L 628 0 
L 628 4666 
z
" transform="scale(0.015625)"/>
      </defs>
      <use xlink:href="#DejaVuSans-49" transform="translate(0 0.015625)"/>
      <use xlink:href="#DejaVuSans-6d" transform="translate(25.867188 0.015625)"/>
      <use xlink:href="#DejaVuSans-28" transform="translate(123.279297 0.015625)"/>
      <use xlink:href="#DejaVuSans-Oblique-53" transform="translate(162.292969 0.015625)"/>
      <use xlink:href="#DejaVuSans-32" transform="translate(225.769531 -16.390625) scale(0.7)"/>
      <use xlink:href="#DejaVuSans-31" transform="translate(270.305664 -16.390625) scale(0.7)"/>
      <use xlink:href="#DejaVuSans-29" transform="translate(317.576172 0.015625)"/>
      <use xlink:href="#DejaVuSans-20" transform="translate(356.589844 0.015625)"/>
      <use xlink:href="#DejaVuSans-5b" transform="translate(388.376953 0.015625)"/>
      <use xlink:href="#DejaVuSans-6d" transform="translate(427.390625 0.015625)"/>
      <use xlink:href="#DejaVuSans-56" transform="translate(524.802734 0.015625)"/>
      <use xlink:href="#DejaVuSans-5d" transform="translate(593.210938 0.015625)"/>
     </g>
    </g>
   </g>
   <g id="line2d_15">
    <path d="M 376.012713 270.20892 
L 388.276335 264.454463 
L 359.720523 259.266703 
L 377.531115 244.307216 
L 381.675075 267.880042 
L 359.211424 267.231423 
L 348.852031 260.535179 
L 382.950746 248.700765 
L 372.661504 266.57487 
L 368.433922 263.192136 
L 346.665421 264.263844 
L 380.654081 262.976723 
L 352.775882 271.790597 
L 349.702733 263.993289 
L 355.345778 262.497102 
L 345.359759 275.152902 
L 328.890159 253.031435 
L 346.911965 249.512629 
L 317.091919 275.290361 
L 343.126381 274.216669 
L 341.910186 278.649889 
L 338.49518 271.490686 
L 326.530969 267.974657 
L 337.182655 275.960799 
L 334.586326 287.856307 
L 307.414714 261.479346 
L 303.36988 276.307126 
L 307.405564 264.221198 
L 294.556084 266.116672 
L 295.613679 276.730612 
L 281.406178 273.054313 
L 298.723174 272.94383 
L 284.876592 272.909118 
L 285.166852 260.41339 
L 279.65267 267.459927 
L 293.134013 282.187736 
L 270.58369 282.070707 
L 277.055832 266.399128 
L 279.532703 275.314759 
L 284.359105 283.266982 
L 261.385846 267.92487 
L 256.708133 272.197621 
L 231.133715 266.640327 
L 248.670059 295.164077 
L 246.315444 287.263029 
L 235.713066 277.569254 
L 233.957271 274.609213 
L 231.078815 295.776 
L 234.325307 275.535726 
L 196.531747 281.231074 
L 209.722829 280.642358 
L 205.040794 260.539345 
L 166.976799 276.821855 
L 163.970496 275.363554 
L 159.645314 247.102426 
L 152.698131 264.304308 
L 140.956825 251.25061 
L 135.487123 258.652995 
L 115.694272 251.303769 
L 114.291771 243.638167 
L 100.844233 239.720074 
L 84.820191 219.408987 
L 76.416624 193.080227 
L 66.733827 177.77838 
L 75.308704 167.286824 
L 63.62179 145.398027 
L 110.024793 143.169714 
L 74.66515 122.679514 
L 120.353432 99.787837 
L 125.079946 91.672169 
L 142.924088 55.430651 
L 172.67627 59.351521 
L 205.649528 69.702047 
L 226.087203 58.186388 
L 235.35418 63.237481 
L 263.566357 61.048244 
L 259.440188 81.274634 
L 302.972614 101.272321 
L 324.928183 73.092914 
L 338.218137 112.939523 
L 340.266988 103.508964 
L 358.795605 106.775662 
L 322.434538 126.285992 
L 331.992029 131.501124 
L 341.410745 152.849208 
L 329.933266 154.654034 
L 332.614742 182.794563 
L 318.83831 169.573056 
L 316.17488 179.079188 
L 337.27746 175.249957 
L 341.093543 191.785568 
L 303.799424 190.247132 
L 306.333991 186.209828 
L 328.294897 193.817906 
L 312.964734 198.746416 
L 306.424729 191.961905 
L 291.401601 203.63347 
L 299.035293 212.305125 
L 295.479986 205.154451 
L 304.159072 204.626829 
L 297.898906 207.217733 
L 278.783923 199.964312 
L 272.95991 219.769199 
L 301.531734 203.503548 
L 255.746105 234.841351 
L 268.074794 210.816277 
L 261.716519 216.624489 
L 268.469772 226.274031 
L 289.709603 211.568834 
L 272.90628 223.765443 
L 253.076321 215.585906 
L 251.92443 224.352771 
L 263.835267 233.501864 
L 265.655112 217.188807 
L 255.780418 239.799614 
L 241.693901 220.218868 
L 259.313866 235.503458 
L 236.716523 217.825128 
L 227.259936 226.238922 
L 237.274422 231.601233 
L 239.71393 230.415669 
L 233.153591 242.049944 
L 224.577189 247.582641 
L 226.238941 227.341375 
L 264.75866 237.990028 
L 239.349961 234.223279 
L 222.515121 224.698899 
L 207.015682 234.04833 
L 214.998347 227.989796 
L 227.893323 222.72567 
L 215.455342 232.120525 
L 219.748499 237.750812 
L 227.755818 235.149594 
L 218.534845 229.0861 
L 204.477812 227.128739 
L 200.318601 229.126961 
L 206.237673 223.650001 
L 201.010193 240.787419 
L 200.785508 233.411811 
L 191.394243 225.744623 
L 191.145158 230.760806 
L 180.471613 234.298852 
L 193.406493 239.861104 
L 204.034034 238.703905 
L 191.277071 228.369446 
L 202.677537 217.170757 
L 161.070182 244.962381 
L 181.931556 230.736606 
L 175.361813 242.143171 
L 178.944315 224.405136 
L 175.118065 222.492802 
L 172.685674 239.874195 
L 161.279108 245.577477 
L 170.454331 229.422112 
L 183.377265 240.424034 
L 155.560575 219.234039 
L 150.831773 236.956998 
L 172.708804 228.097304 
L 136.741952 232.076887 
L 144.7785 238.816372 
L 130.089096 248.219557 
L 162.653905 230.260159 
L 150.786785 217.654345 
L 144.774433 217.845162 
L 141.839552 245.863108 
L 133.054477 234.123507 
L 141.14491 212.560407 
L 142.727107 228.481913 
L 132.254356 217.737257 
L 116.794821 235.782741 
L 134.355819 235.774806 
L 143.952707 236.985164 
L 129.842806 223.815032 
L 116.829642 229.442146 
L 123.171396 234.272867 
L 141.12788 238.034261 
L 135.257609 231.371737 
L 118.202659 233.397926 
L 126.216587 227.399295 
L 119.864666 237.855543 
L 111.955456 229.952115 
L 100.499073 238.800107 
L 118.52952 217.775143 
L 100.239567 231.987627 
L 98.156657 230.893703 
L 117.214961 224.576713 
L 103.095656 222.782201 
L 109.084879 204.481435 
L 98.010002 221.255666 
L 106.779318 221.1793 
L 85.641663 230.895091 
L 109.903047 222.419014 
L 74.769867 231.012914 
L 105.117565 217.658312 
L 101.89344 202.40407 
L 90.599979 217.230462 
L 87.305195 212.733967 
L 89.17867 217.295918 
L 80.379362 229.161078 
L 72.254617 219.203492 
L 72.254617 219.203492 
" clip-path="url(#p2255150424)" style="fill: none; stroke: #1f77b4; stroke-width: 1.5; stroke-linecap: square"/>
    <defs>
     <path id="mea576b30a7" d="M 0 1.5 
C 0.397805 1.5 0.77937 1.341951 1.06066 1.06066 
C 1.341951 0.77937 1.5 0.397805 1.5 0 
C 1.5 -0.397805 1.341951 -0.77937 1.06066 -1.06066 
C 0.77937 -1.341951 0.397805 -1.5 0 -1.5 
C -0.397805 -1.5 -0.77937 -1.341951 -1.06066 -1.06066 
C -1.341951 -0.77937 -1.5 -0.397805 -1.5 0 
C -1.5 0.397805 -1.341951 0.77937 -1.06066 1.06066 
C -0.77937 1.341951 -0.397805 1.5 0 1.5 
z
" style="stroke: #1f77b4"/>
    </defs>
    <g clip-path="url(#p2255150424)">
     <use xlink:href="#mea576b30a7" x="376.012713" y="270.20892" style="fill: #1f77b4; stroke: #1f77b4"/>
     <use xlink:href="#mea576b30a7" x="388.276335" y="264.454463" style="fill: #1f77b4; stroke: #1f77b4"/>
     <use xlink:href="#mea576b30a7" x="359.720523" y="259.266703" style="fill: #1f77b4; stroke: #1f77b4"/>
     <use xlink:href="#mea576b30a7" x="377.531115" y="244.307216" style="fill: #1f77b4; stroke: #1f77b4"/>
     <use xlink:href="#mea576b30a7" x="381.675075" y="267.880042" style="fill: #1f77b4; stroke: #1f77b4"/>
     <use xlink:href="#mea576b30a7" x="359.211424" y="267.231423" style="fill: #1f77b4; stroke: #1f77b4"/>
     <use xlink:href="#mea576b30a7" x="348.852031" y="260.535179" style="fill: #1f77b4; stroke: #1f77b4"/>
     <use xlink:href="#mea576b30a7" x="382.950746" y="248.700765" style="fill: #1f77b4; stroke: #1f77b4"/>
     <use xlink:href="#mea576b30a7" x="372.661504" y="266.57487" style="fill: #1f77b4; stroke: #1f77b4"/>
     <use xlink:href="#mea576b30a7" x="368.433922" y="263.192136" style="fill: #1f77b4; stroke: #1f77b4"/>
     <use xlink:href="#mea576b30a7" x="346.665421" y="264.263844" style="fill: #1f77b4; stroke: #1f77b4"/>
     <use xlink:href="#mea576b30a7" x="380.654081" y="262.976723" style="fill: #1f77b4; stroke: #1f77b4"/>
     <use xlink:href="#mea576b30a7" x="352.775882" y="271.790597" style="fill: #1f77b4; stroke: #1f77b4"/>
     <use xlink:href="#mea576b30a7" x="349.702733" y="263.993289" style="fill: #1f77b4; stroke: #1f77b4"/>
     <use xlink:href="#mea576b30a7" x="355.345778" y="262.497102" style="fill: #1f77b4; stroke: #1f77b4"/>
     <use xlink:href="#mea576b30a7" x="345.359759" y="275.152902" style="fill: #1f77b4; stroke: #1f77b4"/>
     <use xlink:href="#mea576b30a7" x="328.890159" y="253.031435" style="fill: #1f77b4; stroke: #1f77b4"/>
     <use xlink:href="#mea576b30a7" x="346.911965" y="249.512629" style="fill: #1f77b4; stroke: #1f77b4"/>
     <use xlink:href="#mea576b30a7" x="317.091919" y="275.290361" style="fill: #1f77b4; stroke: #1f77b4"/>
     <use xlink:href="#mea576b30a7" x="343.126381" y="274.216669" style="fill: #1f77b4; stroke: #1f77b4"/>
     <use xlink:href="#mea576b30a7" x="341.910186" y="278.649889" style="fill: #1f77b4; stroke: #1f77b4"/>
     <use xlink:href="#mea576b30a7" x="338.49518" y="271.490686" style="fill: #1f77b4; stroke: #1f77b4"/>
     <use xlink:href="#mea576b30a7" x="326.530969" y="267.974657" style="fill: #1f77b4; stroke: #1f77b4"/>
     <use xlink:href="#mea576b30a7" x="337.182655" y="275.960799" style="fill: #1f77b4; stroke: #1f77b4"/>
     <use xlink:href="#mea576b30a7" x="334.586326" y="287.856307" style="fill: #1f77b4; stroke: #1f77b4"/>
     <use xlink:href="#mea576b30a7" x="307.414714" y="261.479346" style="fill: #1f77b4; stroke: #1f77b4"/>
     <use xlink:href="#mea576b30a7" x="303.36988" y="276.307126" style="fill: #1f77b4; stroke: #1f77b4"/>
     <use xlink:href="#mea576b30a7" x="307.405564" y="264.221198" style="fill: #1f77b4; stroke: #1f77b4"/>
     <use xlink:href="#mea576b30a7" x="294.556084" y="266.116672" style="fill: #1f77b4; stroke: #1f77b4"/>
     <use xlink:href="#mea576b30a7" x="295.613679" y="276.730612" style="fill: #1f77b4; stroke: #1f77b4"/>
     <use xlink:href="#mea576b30a7" x="281.406178" y="273.054313" style="fill: #1f77b4; stroke: #1f77b4"/>
     <use xlink:href="#mea576b30a7" x="298.723174" y="272.94383" style="fill: #1f77b4; stroke: #1f77b4"/>
     <use xlink:href="#mea576b30a7" x="284.876592" y="272.909118" style="fill: #1f77b4; stroke: #1f77b4"/>
     <use xlink:href="#mea576b30a7" x="285.166852" y="260.41339" style="fill: #1f77b4; stroke: #1f77b4"/>
     <use xlink:href="#mea576b30a7" x="279.65267" y="267.459927" style="fill: #1f77b4; stroke: #1f77b4"/>
     <use xlink:href="#mea576b30a7" x="293.134013" y="282.187736" style="fill: #1f77b4; stroke: #1f77b4"/>
     <use xlink:href="#mea576b30a7" x="270.58369" y="282.070707" style="fill: #1f77b4; stroke: #1f77b4"/>
     <use xlink:href="#mea576b30a7" x="277.055832" y="266.399128" style="fill: #1f77b4; stroke: #1f77b4"/>
     <use xlink:href="#mea576b30a7" x="279.532703" y="275.314759" style="fill: #1f77b4; stroke: #1f77b4"/>
     <use xlink:href="#mea576b30a7" x="284.359105" y="283.266982" style="fill: #1f77b4; stroke: #1f77b4"/>
     <use xlink:href="#mea576b30a7" x="261.385846" y="267.92487" style="fill: #1f77b4; stroke: #1f77b4"/>
     <use xlink:href="#mea576b30a7" x="256.708133" y="272.197621" style="fill: #1f77b4; stroke: #1f77b4"/>
     <use xlink:href="#mea576b30a7" x="231.133715" y="266.640327" style="fill: #1f77b4; stroke: #1f77b4"/>
     <use xlink:href="#mea576b30a7" x="248.670059" y="295.164077" style="fill: #1f77b4; stroke: #1f77b4"/>
     <use xlink:href="#mea576b30a7" x="246.315444" y="287.263029" style="fill: #1f77b4; stroke: #1f77b4"/>
     <use xlink:href="#mea576b30a7" x="235.713066" y="277.569254" style="fill: #1f77b4; stroke: #1f77b4"/>
     <use xlink:href="#mea576b30a7" x="233.957271" y="274.609213" style="fill: #1f77b4; stroke: #1f77b4"/>
     <use xlink:href="#mea576b30a7" x="231.078815" y="295.776" style="fill: #1f77b4; stroke: #1f77b4"/>
     <use xlink:href="#mea576b30a7" x="234.325307" y="275.535726" style="fill: #1f77b4; stroke: #1f77b4"/>
     <use xlink:href="#mea576b30a7" x="196.531747" y="281.231074" style="fill: #1f77b4; stroke: #1f77b4"/>
     <use xlink:href="#mea576b30a7" x="209.722829" y="280.642358" style="fill: #1f77b4; stroke: #1f77b4"/>
     <use xlink:href="#mea576b30a7" x="205.040794" y="260.539345" style="fill: #1f77b4; stroke: #1f77b4"/>
     <use xlink:href="#mea576b30a7" x="166.976799" y="276.821855" style="fill: #1f77b4; stroke: #1f77b4"/>
     <use xlink:href="#mea576b30a7" x="163.970496" y="275.363554" style="fill: #1f77b4; stroke: #1f77b4"/>
     <use xlink:href="#mea576b30a7" x="159.645314" y="247.102426" style="fill: #1f77b4; stroke: #1f77b4"/>
     <use xlink:href="#mea576b30a7" x="152.698131" y="264.304308" style="fill: #1f77b4; stroke: #1f77b4"/>
     <use xlink:href="#mea576b30a7" x="140.956825" y="251.25061" style="fill: #1f77b4; stroke: #1f77b4"/>
     <use xlink:href="#mea576b30a7" x="135.487123" y="258.652995" style="fill: #1f77b4; stroke: #1f77b4"/>
     <use xlink:href="#mea576b30a7" x="115.694272" y="251.303769" style="fill: #1f77b4; stroke: #1f77b4"/>
     <use xlink:href="#mea576b30a7" x="114.291771" y="243.638167" style="fill: #1f77b4; stroke: #1f77b4"/>
     <use xlink:href="#mea576b30a7" x="100.844233" y="239.720074" style="fill: #1f77b4; stroke: #1f77b4"/>
     <use xlink:href="#mea576b30a7" x="84.820191" y="219.408987" style="fill: #1f77b4; stroke: #1f77b4"/>
     <use xlink:href="#mea576b30a7" x="76.416624" y="193.080227" style="fill: #1f77b4; stroke: #1f77b4"/>
     <use xlink:href="#mea576b30a7" x="66.733827" y="177.77838" style="fill: #1f77b4; stroke: #1f77b4"/>
     <use xlink:href="#mea576b30a7" x="75.308704" y="167.286824" style="fill: #1f77b4; stroke: #1f77b4"/>
     <use xlink:href="#mea576b30a7" x="63.62179" y="145.398027" style="fill: #1f77b4; stroke: #1f77b4"/>
     <use xlink:href="#mea576b30a7" x="110.024793" y="143.169714" style="fill: #1f77b4; stroke: #1f77b4"/>
     <use xlink:href="#mea576b30a7" x="74.66515" y="122.679514" style="fill: #1f77b4; stroke: #1f77b4"/>
     <use xlink:href="#mea576b30a7" x="120.353432" y="99.787837" style="fill: #1f77b4; stroke: #1f77b4"/>
     <use xlink:href="#mea576b30a7" x="125.079946" y="91.672169" style="fill: #1f77b4; stroke: #1f77b4"/>
     <use xlink:href="#mea576b30a7" x="142.924088" y="55.430651" style="fill: #1f77b4; stroke: #1f77b4"/>
     <use xlink:href="#mea576b30a7" x="172.67627" y="59.351521" style="fill: #1f77b4; stroke: #1f77b4"/>
     <use xlink:href="#mea576b30a7" x="205.649528" y="69.702047" style="fill: #1f77b4; stroke: #1f77b4"/>
     <use xlink:href="#mea576b30a7" x="226.087203" y="58.186388" style="fill: #1f77b4; stroke: #1f77b4"/>
     <use xlink:href="#mea576b30a7" x="235.35418" y="63.237481" style="fill: #1f77b4; stroke: #1f77b4"/>
     <use xlink:href="#mea576b30a7" x="263.566357" y="61.048244" style="fill: #1f77b4; stroke: #1f77b4"/>
     <use xlink:href="#mea576b30a7" x="259.440188" y="81.274634" style="fill: #1f77b4; stroke: #1f77b4"/>
     <use xlink:href="#mea576b30a7" x="302.972614" y="101.272321" style="fill: #1f77b4; stroke: #1f77b4"/>
     <use xlink:href="#mea576b30a7" x="324.928183" y="73.092914" style="fill: #1f77b4; stroke: #1f77b4"/>
     <use xlink:href="#mea576b30a7" x="338.218137" y="112.939523" style="fill: #1f77b4; stroke: #1f77b4"/>
     <use xlink:href="#mea576b30a7" x="340.266988" y="103.508964" style="fill: #1f77b4; stroke: #1f77b4"/>
     <use xlink:href="#mea576b30a7" x="358.795605" y="106.775662" style="fill: #1f77b4; stroke: #1f77b4"/>
     <use xlink:href="#mea576b30a7" x="322.434538" y="126.285992" style="fill: #1f77b4; stroke: #1f77b4"/>
     <use xlink:href="#mea576b30a7" x="331.992029" y="131.501124" style="fill: #1f77b4; stroke: #1f77b4"/>
     <use xlink:href="#mea576b30a7" x="341.410745" y="152.849208" style="fill: #1f77b4; stroke: #1f77b4"/>
     <use xlink:href="#mea576b30a7" x="329.933266" y="154.654034" style="fill: #1f77b4; stroke: #1f77b4"/>
     <use xlink:href="#mea576b30a7" x="332.614742" y="182.794563" style="fill: #1f77b4; stroke: #1f77b4"/>
     <use xlink:href="#mea576b30a7" x="318.83831" y="169.573056" style="fill: #1f77b4; stroke: #1f77b4"/>
     <use xlink:href="#mea576b30a7" x="316.17488" y="179.079188" style="fill: #1f77b4; stroke: #1f77b4"/>
     <use xlink:href="#mea576b30a7" x="337.27746" y="175.249957" style="fill: #1f77b4; stroke: #1f77b4"/>
     <use xlink:href="#mea576b30a7" x="341.093543" y="191.785568" style="fill: #1f77b4; stroke: #1f77b4"/>
     <use xlink:href="#mea576b30a7" x="303.799424" y="190.247132" style="fill: #1f77b4; stroke: #1f77b4"/>
     <use xlink:href="#mea576b30a7" x="306.333991" y="186.209828" style="fill: #1f77b4; stroke: #1f77b4"/>
     <use xlink:href="#mea576b30a7" x="328.294897" y="193.817906" style="fill: #1f77b4; stroke: #1f77b4"/>
     <use xlink:href="#mea576b30a7" x="312.964734" y="198.746416" style="fill: #1f77b4; stroke: #1f77b4"/>
     <use xlink:href="#mea576b30a7" x="306.424729" y="191.961905" style="fill: #1f77b4; stroke: #1f77b4"/>
     <use xlink:href="#mea576b30a7" x="291.401601" y="203.63347" style="fill: #1f77b4; stroke: #1f77b4"/>
     <use xlink:href="#mea576b30a7" x="299.035293" y="212.305125" style="fill: #1f77b4; stroke: #1f77b4"/>
     <use xlink:href="#mea576b30a7" x="295.479986" y="205.154451" style="fill: #1f77b4; stroke: #1f77b4"/>
     <use xlink:href="#mea576b30a7" x="304.159072" y="204.626829" style="fill: #1f77b4; stroke: #1f77b4"/>
     <use xlink:href="#mea576b30a7" x="297.898906" y="207.217733" style="fill: #1f77b4; stroke: #1f77b4"/>
     <use xlink:href="#mea576b30a7" x="278.783923" y="199.964312" style="fill: #1f77b4; stroke: #1f77b4"/>
     <use xlink:href="#mea576b30a7" x="272.95991" y="219.769199" style="fill: #1f77b4; stroke: #1f77b4"/>
     <use xlink:href="#mea576b30a7" x="301.531734" y="203.503548" style="fill: #1f77b4; stroke: #1f77b4"/>
     <use xlink:href="#mea576b30a7" x="255.746105" y="234.841351" style="fill: #1f77b4; stroke: #1f77b4"/>
     <use xlink:href="#mea576b30a7" x="268.074794" y="210.816277" style="fill: #1f77b4; stroke: #1f77b4"/>
     <use xlink:href="#mea576b30a7" x="261.716519" y="216.624489" style="fill: #1f77b4; stroke: #1f77b4"/>
     <use xlink:href="#mea576b30a7" x="268.469772" y="226.274031" style="fill: #1f77b4; stroke: #1f77b4"/>
     <use xlink:href="#mea576b30a7" x="289.709603" y="211.568834" style="fill: #1f77b4; stroke: #1f77b4"/>
     <use xlink:href="#mea576b30a7" x="272.90628" y="223.765443" style="fill: #1f77b4; stroke: #1f77b4"/>
     <use xlink:href="#mea576b30a7" x="253.076321" y="215.585906" style="fill: #1f77b4; stroke: #1f77b4"/>
     <use xlink:href="#mea576b30a7" x="251.92443" y="224.352771" style="fill: #1f77b4; stroke: #1f77b4"/>
     <use xlink:href="#mea576b30a7" x="263.835267" y="233.501864" style="fill: #1f77b4; stroke: #1f77b4"/>
     <use xlink:href="#mea576b30a7" x="265.655112" y="217.188807" style="fill: #1f77b4; stroke: #1f77b4"/>
     <use xlink:href="#mea576b30a7" x="255.780418" y="239.799614" style="fill: #1f77b4; stroke: #1f77b4"/>
     <use xlink:href="#mea576b30a7" x="241.693901" y="220.218868" style="fill: #1f77b4; stroke: #1f77b4"/>
     <use xlink:href="#mea576b30a7" x="259.313866" y="235.503458" style="fill: #1f77b4; stroke: #1f77b4"/>
     <use xlink:href="#mea576b30a7" x="236.716523" y="217.825128" style="fill: #1f77b4; stroke: #1f77b4"/>
     <use xlink:href="#mea576b30a7" x="227.259936" y="226.238922" style="fill: #1f77b4; stroke: #1f77b4"/>
     <use xlink:href="#mea576b30a7" x="237.274422" y="231.601233" style="fill: #1f77b4; stroke: #1f77b4"/>
     <use xlink:href="#mea576b30a7" x="239.71393" y="230.415669" style="fill: #1f77b4; stroke: #1f77b4"/>
     <use xlink:href="#mea576b30a7" x="233.153591" y="242.049944" style="fill: #1f77b4; stroke: #1f77b4"/>
     <use xlink:href="#mea576b30a7" x="224.577189" y="247.582641" style="fill: #1f77b4; stroke: #1f77b4"/>
     <use xlink:href="#mea576b30a7" x="226.238941" y="227.341375" style="fill: #1f77b4; stroke: #1f77b4"/>
     <use xlink:href="#mea576b30a7" x="264.75866" y="237.990028" style="fill: #1f77b4; stroke: #1f77b4"/>
     <use xlink:href="#mea576b30a7" x="239.349961" y="234.223279" style="fill: #1f77b4; stroke: #1f77b4"/>
     <use xlink:href="#mea576b30a7" x="222.515121" y="224.698899" style="fill: #1f77b4; stroke: #1f77b4"/>
     <use xlink:href="#mea576b30a7" x="207.015682" y="234.04833" style="fill: #1f77b4; stroke: #1f77b4"/>
     <use xlink:href="#mea576b30a7" x="214.998347" y="227.989796" style="fill: #1f77b4; stroke: #1f77b4"/>
     <use xlink:href="#mea576b30a7" x="227.893323" y="222.72567" style="fill: #1f77b4; stroke: #1f77b4"/>
     <use xlink:href="#mea576b30a7" x="215.455342" y="232.120525" style="fill: #1f77b4; stroke: #1f77b4"/>
     <use xlink:href="#mea576b30a7" x="219.748499" y="237.750812" style="fill: #1f77b4; stroke: #1f77b4"/>
     <use xlink:href="#mea576b30a7" x="227.755818" y="235.149594" style="fill: #1f77b4; stroke: #1f77b4"/>
     <use xlink:href="#mea576b30a7" x="218.534845" y="229.0861" style="fill: #1f77b4; stroke: #1f77b4"/>
     <use xlink:href="#mea576b30a7" x="204.477812" y="227.128739" style="fill: #1f77b4; stroke: #1f77b4"/>
     <use xlink:href="#mea576b30a7" x="200.318601" y="229.126961" style="fill: #1f77b4; stroke: #1f77b4"/>
     <use xlink:href="#mea576b30a7" x="206.237673" y="223.650001" style="fill: #1f77b4; stroke: #1f77b4"/>
     <use xlink:href="#mea576b30a7" x="201.010193" y="240.787419" style="fill: #1f77b4; stroke: #1f77b4"/>
     <use xlink:href="#mea576b30a7" x="200.785508" y="233.411811" style="fill: #1f77b4; stroke: #1f77b4"/>
     <use xlink:href="#mea576b30a7" x="191.394243" y="225.744623" style="fill: #1f77b4; stroke: #1f77b4"/>
     <use xlink:href="#mea576b30a7" x="191.145158" y="230.760806" style="fill: #1f77b4; stroke: #1f77b4"/>
     <use xlink:href="#mea576b30a7" x="180.471613" y="234.298852" style="fill: #1f77b4; stroke: #1f77b4"/>
     <use xlink:href="#mea576b30a7" x="193.406493" y="239.861104" style="fill: #1f77b4; stroke: #1f77b4"/>
     <use xlink:href="#mea576b30a7" x="204.034034" y="238.703905" style="fill: #1f77b4; stroke: #1f77b4"/>
     <use xlink:href="#mea576b30a7" x="191.277071" y="228.369446" style="fill: #1f77b4; stroke: #1f77b4"/>
     <use xlink:href="#mea576b30a7" x="202.677537" y="217.170757" style="fill: #1f77b4; stroke: #1f77b4"/>
     <use xlink:href="#mea576b30a7" x="161.070182" y="244.962381" style="fill: #1f77b4; stroke: #1f77b4"/>
     <use xlink:href="#mea576b30a7" x="181.931556" y="230.736606" style="fill: #1f77b4; stroke: #1f77b4"/>
     <use xlink:href="#mea576b30a7" x="175.361813" y="242.143171" style="fill: #1f77b4; stroke: #1f77b4"/>
     <use xlink:href="#mea576b30a7" x="178.944315" y="224.405136" style="fill: #1f77b4; stroke: #1f77b4"/>
     <use xlink:href="#mea576b30a7" x="175.118065" y="222.492802" style="fill: #1f77b4; stroke: #1f77b4"/>
     <use xlink:href="#mea576b30a7" x="172.685674" y="239.874195" style="fill: #1f77b4; stroke: #1f77b4"/>
     <use xlink:href="#mea576b30a7" x="161.279108" y="245.577477" style="fill: #1f77b4; stroke: #1f77b4"/>
     <use xlink:href="#mea576b30a7" x="170.454331" y="229.422112" style="fill: #1f77b4; stroke: #1f77b4"/>
     <use xlink:href="#mea576b30a7" x="183.377265" y="240.424034" style="fill: #1f77b4; stroke: #1f77b4"/>
     <use xlink:href="#mea576b30a7" x="155.560575" y="219.234039" style="fill: #1f77b4; stroke: #1f77b4"/>
     <use xlink:href="#mea576b30a7" x="150.831773" y="236.956998" style="fill: #1f77b4; stroke: #1f77b4"/>
     <use xlink:href="#mea576b30a7" x="172.708804" y="228.097304" style="fill: #1f77b4; stroke: #1f77b4"/>
     <use xlink:href="#mea576b30a7" x="136.741952" y="232.076887" style="fill: #1f77b4; stroke: #1f77b4"/>
     <use xlink:href="#mea576b30a7" x="144.7785" y="238.816372" style="fill: #1f77b4; stroke: #1f77b4"/>
     <use xlink:href="#mea576b30a7" x="130.089096" y="248.219557" style="fill: #1f77b4; stroke: #1f77b4"/>
     <use xlink:href="#mea576b30a7" x="162.653905" y="230.260159" style="fill: #1f77b4; stroke: #1f77b4"/>
     <use xlink:href="#mea576b30a7" x="150.786785" y="217.654345" style="fill: #1f77b4; stroke: #1f77b4"/>
     <use xlink:href="#mea576b30a7" x="144.774433" y="217.845162" style="fill: #1f77b4; stroke: #1f77b4"/>
     <use xlink:href="#mea576b30a7" x="141.839552" y="245.863108" style="fill: #1f77b4; stroke: #1f77b4"/>
     <use xlink:href="#mea576b30a7" x="133.054477" y="234.123507" style="fill: #1f77b4; stroke: #1f77b4"/>
     <use xlink:href="#mea576b30a7" x="141.14491" y="212.560407" style="fill: #1f77b4; stroke: #1f77b4"/>
     <use xlink:href="#mea576b30a7" x="142.727107" y="228.481913" style="fill: #1f77b4; stroke: #1f77b4"/>
     <use xlink:href="#mea576b30a7" x="132.254356" y="217.737257" style="fill: #1f77b4; stroke: #1f77b4"/>
     <use xlink:href="#mea576b30a7" x="116.794821" y="235.782741" style="fill: #1f77b4; stroke: #1f77b4"/>
     <use xlink:href="#mea576b30a7" x="134.355819" y="235.774806" style="fill: #1f77b4; stroke: #1f77b4"/>
     <use xlink:href="#mea576b30a7" x="143.952707" y="236.985164" style="fill: #1f77b4; stroke: #1f77b4"/>
     <use xlink:href="#mea576b30a7" x="129.842806" y="223.815032" style="fill: #1f77b4; stroke: #1f77b4"/>
     <use xlink:href="#mea576b30a7" x="116.829642" y="229.442146" style="fill: #1f77b4; stroke: #1f77b4"/>
     <use xlink:href="#mea576b30a7" x="123.171396" y="234.272867" style="fill: #1f77b4; stroke: #1f77b4"/>
     <use xlink:href="#mea576b30a7" x="141.12788" y="238.034261" style="fill: #1f77b4; stroke: #1f77b4"/>
     <use xlink:href="#mea576b30a7" x="135.257609" y="231.371737" style="fill: #1f77b4; stroke: #1f77b4"/>
     <use xlink:href="#mea576b30a7" x="118.202659" y="233.397926" style="fill: #1f77b4; stroke: #1f77b4"/>
     <use xlink:href="#mea576b30a7" x="126.216587" y="227.399295" style="fill: #1f77b4; stroke: #1f77b4"/>
     <use xlink:href="#mea576b30a7" x="119.864666" y="237.855543" style="fill: #1f77b4; stroke: #1f77b4"/>
     <use xlink:href="#mea576b30a7" x="111.955456" y="229.952115" style="fill: #1f77b4; stroke: #1f77b4"/>
     <use xlink:href="#mea576b30a7" x="100.499073" y="238.800107" style="fill: #1f77b4; stroke: #1f77b4"/>
     <use xlink:href="#mea576b30a7" x="118.52952" y="217.775143" style="fill: #1f77b4; stroke: #1f77b4"/>
     <use xlink:href="#mea576b30a7" x="100.239567" y="231.987627" style="fill: #1f77b4; stroke: #1f77b4"/>
     <use xlink:href="#mea576b30a7" x="98.156657" y="230.893703" style="fill: #1f77b4; stroke: #1f77b4"/>
     <use xlink:href="#mea576b30a7" x="117.214961" y="224.576713" style="fill: #1f77b4; stroke: #1f77b4"/>
     <use xlink:href="#mea576b30a7" x="103.095656" y="222.782201" style="fill: #1f77b4; stroke: #1f77b4"/>
     <use xlink:href="#mea576b30a7" x="109.084879" y="204.481435" style="fill: #1f77b4; stroke: #1f77b4"/>
     <use xlink:href="#mea576b30a7" x="98.010002" y="221.255666" style="fill: #1f77b4; stroke: #1f77b4"/>
     <use xlink:href="#mea576b30a7" x="106.779318" y="221.1793" style="fill: #1f77b4; stroke: #1f77b4"/>
     <use xlink:href="#mea576b30a7" x="85.641663" y="230.895091" style="fill: #1f77b4; stroke: #1f77b4"/>
     <use xlink:href="#mea576b30a7" x="109.903047" y="222.419014" style="fill: #1f77b4; stroke: #1f77b4"/>
     <use xlink:href="#mea576b30a7" x="74.769867" y="231.012914" style="fill: #1f77b4; stroke: #1f77b4"/>
     <use xlink:href="#mea576b30a7" x="105.117565" y="217.658312" style="fill: #1f77b4; stroke: #1f77b4"/>
     <use xlink:href="#mea576b30a7" x="101.89344" y="202.40407" style="fill: #1f77b4; stroke: #1f77b4"/>
     <use xlink:href="#mea576b30a7" x="90.599979" y="217.230462" style="fill: #1f77b4; stroke: #1f77b4"/>
     <use xlink:href="#mea576b30a7" x="87.305195" y="212.733967" style="fill: #1f77b4; stroke: #1f77b4"/>
     <use xlink:href="#mea576b30a7" x="89.17867" y="217.295918" style="fill: #1f77b4; stroke: #1f77b4"/>
     <use xlink:href="#mea576b30a7" x="80.379362" y="229.161078" style="fill: #1f77b4; stroke: #1f77b4"/>
     <use xlink:href="#mea576b30a7" x="72.254617" y="219.203492" style="fill: #1f77b4; stroke: #1f77b4"/>
    </g>
   </g>
   <g id="line2d_16">
    <path d="M 382.100488 260.380004 
L 369.469271 263.354814 
L 356.689517 266.134249 
L 344.221332 268.620153 
L 332.078424 270.819611 
L 320.29193 272.733623 
L 308.918373 274.35888 
L 298.047877 275.69109 
L 287.81101 276.729953 
L 277.56501 277.540964 
L 268.225024 278.063357 
L 259.100604 278.357413 
L 250.285134 278.423045 
L 241.894857 278.271941 
L 234.066378 277.930818 
L 225.726241 277.341459 
L 218.124736 276.588992 
L 210.06235 275.552752 
L 202.961168 274.424948 
L 195.486247 273.006839 
L 189.221721 271.625197 
L 182.692963 269.986506 
L 175.891934 268.050264 
L 168.814107 265.769403 
L 163.324242 263.800098 
L 157.681826 261.580379 
L 151.892809 259.081328 
L 145.967014 256.271006 
L 139.919156 253.114339 
L 133.77007 249.573102 
L 129.628108 246.978377 
L 125.46422 244.181553 
L 121.291113 241.169266 
L 117.123841 237.927796 
L 112.980095 234.443213 
L 108.880503 230.701565 
L 104.848939 226.689124 
L 100.912826 222.392688 
L 97.103424 217.799965 
L 93.456079 212.900021 
L 90.010422 207.683827 
L 86.81047 202.144886 
L 83.904618 196.279953 
L 82.578262 193.225309 
L 81.345466 190.089831 
L 80.213403 186.874397 
L 79.189447 183.580245 
L 78.28115 180.209007 
L 77.49621 176.762738 
L 76.842437 173.243941 
L 76.327713 169.655593 
L 75.959943 166.001175 
L 75.747003 162.28469 
L 75.696686 158.510682 
L 75.816637 154.684257 
L 76.114286 150.811091 
L 76.596776 146.897435 
L 77.270886 142.950123 
L 78.142951 138.976558 
L 79.218783 134.984705 
L 80.503582 130.983071 
L 82.001859 126.980672 
L 83.717347 122.987002 
L 85.652928 119.011986 
L 87.810551 115.065923 
L 90.191168 111.159429 
L 92.79467 107.303362 
L 95.619835 103.508749 
L 98.664286 99.786696 
L 101.924461 96.148302 
L 105.395603 92.604564 
L 109.07175 89.16628 
L 112.945758 85.843949 
L 117.009326 82.647676 
L 121.253045 79.587073 
L 125.666455 76.671172 
L 130.238128 73.908335 
L 134.95575 71.306179 
L 139.80623 68.871503 
L 144.775807 66.610234 
L 149.850172 64.527377 
L 155.014596 62.626979 
L 160.25406 60.912106 
L 165.553387 59.384835 
L 170.897371 58.046258 
L 176.27091 56.896492 
L 181.659122 55.934712 
L 187.047467 55.159183 
L 192.421847 54.567311 
L 197.768707 54.155697 
L 203.075119 53.920199 
L 208.328853 53.856 
L 213.518439 53.957681 
L 218.633214 54.219291 
L 223.663358 54.634429 
L 228.599919 55.196313 
L 233.43482 55.897858 
L 238.160868 56.731746 
L 242.771739 57.690495 
L 247.261968 58.766523 
L 251.626919 59.952211 
L 255.862755 61.239951 
L 259.966408 62.622207 
L 263.935531 64.091549 
L 267.768459 65.6407 
L 271.464163 67.262566 
L 275.022201 68.950267 
L 281.726171 72.496858 
L 287.886785 76.230499 
L 293.516863 80.105716 
L 298.63423 84.08173 
L 303.260462 88.122466 
L 307.41978 92.196421 
L 311.138108 96.276426 
L 314.44228 100.339344 
L 317.359408 104.365726 
L 319.916368 108.339453 
L 322.139415 112.247368 
L 324.053891 116.078929 
L 325.68402 119.825878 
L 327.052771 123.481925 
L 328.181778 127.042477 
L 329.091303 130.504378 
L 329.800233 133.865684 
L 330.326101 137.12547 
L 330.806805 141.824802 
L 330.961349 146.298166 
L 330.83339 150.550609 
L 330.461258 154.588983 
L 329.878494 158.421357 
L 329.114376 162.056561 
L 328.194413 165.503835 
L 327.140796 168.772579 
L 325.561024 172.869341 
L 323.816473 176.686983 
L 321.939285 180.24622 
L 319.956044 183.566606 
L 317.360965 187.408922 
L 314.668964 190.939306 
L 311.907389 194.187421 
L 309.097759 197.179948 
L 305.686323 200.467096 
L 302.252304 203.457081 
L 298.812413 206.181867 
L 294.80809 209.062651 
L 290.826547 211.658692 
L 286.31629 214.318845 
L 281.857535 216.691507 
L 276.909659 219.060616 
L 272.037574 221.152081 
L 266.714174 223.19257 
L 260.966357 225.138091 
L 255.327779 226.812221 
L 249.295059 228.370519 
L 242.890578 229.785155 
L 236.134813 231.033456 
L 229.514086 232.034243 
L 222.557739 232.867321 
L 215.280548 233.517262 
L 207.695523 233.970934 
L 199.814078 234.216918 
L 191.646277 234.244982 
L 183.201105 234.045637 
L 174.486767 233.609777 
L 165.510973 232.92839 
L 156.679411 232.03752 
L 147.588977 230.900471 
L 138.247999 229.506532 
L 128.665142 227.84473 
L 119.224373 225.982272 
L 109.549581 223.84459 
L 100.01546 221.512751 
L 90.258736 218.895386 
L 80.645123 216.087015 
L 80.291773 215.979433 
L 80.291773 215.979433 
" clip-path="url(#p2255150424)" style="fill: none; stroke: #d62728; stroke-width: 1.5; stroke-linecap: square"/>
   </g>
   <g id="patch_3">
    <path d="M 47.389063 307.872 
L 47.389063 41.76 
" style="fill: none; stroke: #000000; stroke-width: 0.8; stroke-linejoin: miter; stroke-linecap: square"/>
   </g>
   <g id="patch_4">
    <path d="M 404.509063 307.872 
L 404.509063 41.76 
" style="fill: none; stroke: #000000; stroke-width: 0.8; stroke-linejoin: miter; stroke-linecap: square"/>
   </g>
   <g id="patch_5">
    <path d="M 47.389063 307.872 
L 404.509063 307.872 
" style="fill: none; stroke: #000000; stroke-width: 0.8; stroke-linejoin: miter; stroke-linecap: square"/>
   </g>
   <g id="patch_6">
    <path d="M 47.389063 41.76 
L 404.509063 41.76 
" style="fill: none; stroke: #000000; stroke-width: 0.8; stroke-linejoin: miter; stroke-linecap: square"/>
   </g>
   <g id="text_17">
    <g id="patch_7">
     <path d="M 422.365063 102.337163 
L 567.065063 102.337163 
Q 571.065063 102.337163 571.065063 98.337163 
L 571.065063 55.0656 
Q 571.065063 51.0656 567.065063 51.0656 
L 422.365063 51.0656 
Q 418.365063 51.0656 418.365063 55.0656 
L 418.365063 98.337163 
Q 418.365063 102.337163 422.365063 102.337163 
z
" style="fill: #ffffff; opacity: 0.5; stroke: #000000; stroke-linejoin: miter"/>
    </g>
    <!-- Summary -->
    <g transform="translate(422.365063 62.664038) scale(0.1 -0.1)">
     <defs>
      <path id="DejaVuSans-53" d="M 3425 4513 
L 3425 3897 
Q 3066 4069 2747 4153 
Q 2428 4238 2131 4238 
Q 1616 4238 1336 4038 
Q 1056 3838 1056 3469 
Q 1056 3159 1242 3001 
Q 1428 2844 1947 2747 
L 2328 2669 
Q 3034 2534 3370 2195 
Q 3706 1856 3706 1288 
Q 3706 609 3251 259 
Q 2797 -91 1919 -91 
Q 1588 -91 1214 -16 
Q 841 59 441 206 
L 441 856 
Q 825 641 1194 531 
Q 1563 422 1919 422 
Q 2459 422 2753 634 
Q 3047 847 3047 1241 
Q 3047 1584 2836 1778 
Q 2625 1972 2144 2069 
L 1759 2144 
Q 1053 2284 737 2584 
Q 422 2884 422 3419 
Q 422 4038 858 4394 
Q 1294 4750 2059 4750 
Q 2388 4750 2728 4690 
Q 3069 4631 3425 4513 
z
" transform="scale(0.015625)"/>
      <path id="DejaVuSans-75" d="M 544 1381 
L 544 3500 
L 1119 3500 
L 1119 1403 
Q 1119 906 1312 657 
Q 1506 409 1894 409 
Q 2359 409 2629 706 
Q 2900 1003 2900 1516 
L 2900 3500 
L 3475 3500 
L 3475 0 
L 2900 0 
L 2900 538 
Q 2691 219 2414 64 
Q 2138 -91 1772 -91 
Q 1169 -91 856 284 
Q 544 659 544 1381 
z
M 1991 3584 
L 1991 3584 
z
" transform="scale(0.015625)"/>
      <path id="DejaVuSans-61" d="M 2194 1759 
Q 1497 1759 1228 1600 
Q 959 1441 959 1056 
Q 959 750 1161 570 
Q 1363 391 1709 391 
Q 2188 391 2477 730 
Q 2766 1069 2766 1631 
L 2766 1759 
L 2194 1759 
z
M 3341 1997 
L 3341 0 
L 2766 0 
L 2766 531 
Q 2569 213 2275 61 
Q 1981 -91 1556 -91 
Q 1019 -91 701 211 
Q 384 513 384 1019 
Q 384 1609 779 1909 
Q 1175 2209 1959 2209 
L 2766 2209 
L 2766 2266 
Q 2766 2663 2505 2880 
Q 2244 3097 1772 3097 
Q 1472 3097 1187 3025 
Q 903 2953 641 2809 
L 641 3341 
Q 956 3463 1253 3523 
Q 1550 3584 1831 3584 
Q 2591 3584 2966 3190 
Q 3341 2797 3341 1997 
z
" transform="scale(0.015625)"/>
      <path id="DejaVuSans-72" d="M 2631 2963 
Q 2534 3019 2420 3045 
Q 2306 3072 2169 3072 
Q 1681 3072 1420 2755 
Q 1159 2438 1159 1844 
L 1159 0 
L 581 0 
L 581 3500 
L 1159 3500 
L 1159 2956 
Q 1341 3275 1631 3429 
Q 1922 3584 2338 3584 
Q 2397 3584 2469 3576 
Q 2541 3569 2628 3553 
L 2631 2963 
z
" transform="scale(0.015625)"/>
      <path id="DejaVuSans-79" d="M 2059 -325 
Q 1816 -950 1584 -1140 
Q 1353 -1331 966 -1331 
L 506 -1331 
L 506 -850 
L 844 -850 
Q 1081 -850 1212 -737 
Q 1344 -625 1503 -206 
L 1606 56 
L 191 3500 
L 800 3500 
L 1894 763 
L 2988 3500 
L 3597 3500 
L 2059 -325 
z
" transform="scale(0.015625)"/>
     </defs>
     <use xlink:href="#DejaVuSans-53"/>
     <use xlink:href="#DejaVuSans-75" x="63.476562"/>
     <use xlink:href="#DejaVuSans-6d" x="126.855469"/>
     <use xlink:href="#DejaVuSans-6d" x="224.267578"/>
     <use xlink:href="#DejaVuSans-61" x="321.679688"/>
     <use xlink:href="#DejaVuSans-72" x="382.958984"/>
     <use xlink:href="#DejaVuSans-79" x="424.072266"/>
    </g>
    <!-- $Q_I$: 12.04$\pm$0.32 k -->
    <g transform="translate(422.365063 73.86185) scale(0.1 -0.1)">
     <defs>
      <path id="DejaVuSans-Oblique-51" d="M 2309 -84 
Q 2275 -88 2237 -89 
Q 2200 -91 2125 -91 
Q 1250 -91 756 411 
Q 263 913 263 1797 
Q 263 2319 452 2844 
Q 641 3369 978 3788 
Q 1369 4269 1858 4509 
Q 2347 4750 2938 4750 
Q 3794 4750 4287 4245 
Q 4781 3741 4781 2869 
Q 4781 1928 4265 1147 
Q 3750 366 2919 44 
L 3553 -825 
L 2847 -825 
L 2309 -84 
z
M 2919 4238 
Q 2400 4238 2003 3986 
Q 1606 3734 1313 3219 
Q 1125 2891 1026 2522 
Q 928 2153 928 1778 
Q 928 1128 1239 775 
Q 1550 422 2119 422 
Q 2631 422 3032 676 
Q 3434 931 3719 1434 
Q 3909 1772 4009 2142 
Q 4109 2513 4109 2881 
Q 4109 3528 3796 3883 
Q 3484 4238 2919 4238 
z
" transform="scale(0.015625)"/>
      <path id="DejaVuSans-Oblique-49" d="M 1081 4666 
L 1716 4666 
L 806 0 
L 172 0 
L 1081 4666 
z
" transform="scale(0.015625)"/>
      <path id="DejaVuSans-3a" d="M 750 794 
L 1409 794 
L 1409 0 
L 750 0 
L 750 794 
z
M 750 3309 
L 1409 3309 
L 1409 2516 
L 750 2516 
L 750 3309 
z
" transform="scale(0.015625)"/>
      <path id="DejaVuSans-b1" d="M 2944 4013 
L 2944 2803 
L 4684 2803 
L 4684 2272 
L 2944 2272 
L 2944 1063 
L 2419 1063 
L 2419 2272 
L 678 2272 
L 678 2803 
L 2419 2803 
L 2419 4013 
L 2944 4013 
z
M 678 531 
L 4684 531 
L 4684 0 
L 678 0 
L 678 531 
z
" transform="scale(0.015625)"/>
      <path id="DejaVuSans-33" d="M 2597 2516 
Q 3050 2419 3304 2112 
Q 3559 1806 3559 1356 
Q 3559 666 3084 287 
Q 2609 -91 1734 -91 
Q 1441 -91 1130 -33 
Q 819 25 488 141 
L 488 750 
Q 750 597 1062 519 
Q 1375 441 1716 441 
Q 2309 441 2620 675 
Q 2931 909 2931 1356 
Q 2931 1769 2642 2001 
Q 2353 2234 1838 2234 
L 1294 2234 
L 1294 2753 
L 1863 2753 
Q 2328 2753 2575 2939 
Q 2822 3125 2822 3475 
Q 2822 3834 2567 4026 
Q 2313 4219 1838 4219 
Q 1578 4219 1281 4162 
Q 984 4106 628 3988 
L 628 4550 
Q 988 4650 1302 4700 
Q 1616 4750 1894 4750 
Q 2613 4750 3031 4423 
Q 3450 4097 3450 3541 
Q 3450 3153 3228 2886 
Q 3006 2619 2597 2516 
z
" transform="scale(0.015625)"/>
      <path id="DejaVuSans-6b" d="M 581 4863 
L 1159 4863 
L 1159 1991 
L 2875 3500 
L 3609 3500 
L 1753 1863 
L 3688 0 
L 2938 0 
L 1159 1709 
L 1159 0 
L 581 0 
L 581 4863 
z
" transform="scale(0.015625)"/>
     </defs>
     <use xlink:href="#DejaVuSans-Oblique-51" transform="translate(0 0.015625)"/>
     <use xlink:href="#DejaVuSans-Oblique-49" transform="translate(78.710938 -16.390625) scale(0.7)"/>
     <use xlink:href="#DejaVuSans-3a" transform="translate(102.089844 0.015625)"/>
     <use xlink:href="#DejaVuSans-20" transform="translate(135.78125 0.015625)"/>
     <use xlink:href="#DejaVuSans-31" transform="translate(167.568359 0.015625)"/>
     <use xlink:href="#DejaVuSans-32" transform="translate(231.191406 0.015625)"/>
     <use xlink:href="#DejaVuSans-2e" transform="translate(294.814453 0.015625)"/>
     <use xlink:href="#DejaVuSans-30" transform="translate(326.601562 0.015625)"/>
     <use xlink:href="#DejaVuSans-34" transform="translate(390.224609 0.015625)"/>
     <use xlink:href="#DejaVuSans-b1" transform="translate(453.847656 0.015625)"/>
     <use xlink:href="#DejaVuSans-30" transform="translate(537.636719 0.015625)"/>
     <use xlink:href="#DejaVuSans-2e" transform="translate(601.259766 0.015625)"/>
     <use xlink:href="#DejaVuSans-33" transform="translate(633.046875 0.015625)"/>
     <use xlink:href="#DejaVuSans-32" transform="translate(696.669922 0.015625)"/>
     <use xlink:href="#DejaVuSans-20" transform="translate(760.292969 0.015625)"/>
     <use xlink:href="#DejaVuSans-6b" transform="translate(792.080078 0.015625)"/>
    </g>
    <!-- $Q_C$: 11.69$\pm$0.20 k -->
    <g transform="translate(422.365063 85.059663) scale(0.1 -0.1)">
     <defs>
      <path id="DejaVuSans-Oblique-43" d="M 4447 4306 
L 4319 3641 
Q 4019 3944 3683 4091 
Q 3347 4238 2956 4238 
Q 2422 4238 2017 3981 
Q 1613 3725 1319 3200 
Q 1131 2863 1032 2486 
Q 934 2109 934 1728 
Q 934 1091 1264 756 
Q 1594 422 2222 422 
Q 2656 422 3056 561 
Q 3456 700 3834 978 
L 3688 231 
Q 3316 72 2936 -9 
Q 2556 -91 2175 -91 
Q 1278 -91 773 396 
Q 269 884 269 1753 
Q 269 2309 461 2846 
Q 653 3384 1013 3828 
Q 1394 4300 1883 4525 
Q 2372 4750 3022 4750 
Q 3422 4750 3780 4639 
Q 4138 4528 4447 4306 
z
" transform="scale(0.015625)"/>
      <path id="DejaVuSans-39" d="M 703 97 
L 703 672 
Q 941 559 1184 500 
Q 1428 441 1663 441 
Q 2288 441 2617 861 
Q 2947 1281 2994 2138 
Q 2813 1869 2534 1725 
Q 2256 1581 1919 1581 
Q 1219 1581 811 2004 
Q 403 2428 403 3163 
Q 403 3881 828 4315 
Q 1253 4750 1959 4750 
Q 2769 4750 3195 4129 
Q 3622 3509 3622 2328 
Q 3622 1225 3098 567 
Q 2575 -91 1691 -91 
Q 1453 -91 1209 -44 
Q 966 3 703 97 
z
M 1959 2075 
Q 2384 2075 2632 2365 
Q 2881 2656 2881 3163 
Q 2881 3666 2632 3958 
Q 2384 4250 1959 4250 
Q 1534 4250 1286 3958 
Q 1038 3666 1038 3163 
Q 1038 2656 1286 2365 
Q 1534 2075 1959 2075 
z
" transform="scale(0.015625)"/>
     </defs>
     <use xlink:href="#DejaVuSans-Oblique-51" transform="translate(0 0.015625)"/>
     <use xlink:href="#DejaVuSans-Oblique-43" transform="translate(78.710938 -16.390625) scale(0.7)"/>
     <use xlink:href="#DejaVuSans-3a" transform="translate(130.322266 0.015625)"/>
     <use xlink:href="#DejaVuSans-20" transform="translate(164.013672 0.015625)"/>
     <use xlink:href="#DejaVuSans-31" transform="translate(195.800781 0.015625)"/>
     <use xlink:href="#DejaVuSans-31" transform="translate(259.423828 0.015625)"/>
     <use xlink:href="#DejaVuSans-2e" transform="translate(323.046875 0.015625)"/>
     <use xlink:href="#DejaVuSans-36" transform="translate(354.833984 0.015625)"/>
     <use xlink:href="#DejaVuSans-39" transform="translate(418.457031 0.015625)"/>
     <use xlink:href="#DejaVuSans-b1" transform="translate(482.080078 0.015625)"/>
     <use xlink:href="#DejaVuSans-30" transform="translate(565.869141 0.015625)"/>
     <use xlink:href="#DejaVuSans-2e" transform="translate(629.492188 0.015625)"/>
     <use xlink:href="#DejaVuSans-32" transform="translate(655.779297 0.015625)"/>
     <use xlink:href="#DejaVuSans-30" transform="translate(719.402344 0.015625)"/>
     <use xlink:href="#DejaVuSans-20" transform="translate(783.025391 0.015625)"/>
     <use xlink:href="#DejaVuSans-6b" transform="translate(814.8125 0.015625)"/>
    </g>
    <!-- $f_{res}$: 5.7198396$\pm$8.8e-06 GHz -->
    <g transform="translate(422.365063 96.257475) scale(0.1 -0.1)">
     <defs>
      <path id="DejaVuSans-Oblique-66" d="M 3059 4863 
L 2969 4384 
L 2419 4384 
Q 2106 4384 1964 4261 
Q 1822 4138 1753 3809 
L 1691 3500 
L 2638 3500 
L 2553 3053 
L 1606 3053 
L 1013 0 
L 434 0 
L 1031 3053 
L 481 3053 
L 563 3500 
L 1113 3500 
L 1159 3744 
Q 1278 4363 1576 4613 
Q 1875 4863 2516 4863 
L 3059 4863 
z
" transform="scale(0.015625)"/>
      <path id="DejaVuSans-Oblique-72" d="M 2853 2969 
Q 2766 3016 2653 3041 
Q 2541 3066 2413 3066 
Q 1953 3066 1609 2717 
Q 1266 2369 1153 1784 
L 800 0 
L 225 0 
L 909 3500 
L 1484 3500 
L 1375 2956 
Q 1603 3259 1920 3421 
Q 2238 3584 2597 3584 
Q 2691 3584 2781 3573 
Q 2872 3563 2963 3538 
L 2853 2969 
z
" transform="scale(0.015625)"/>
      <path id="DejaVuSans-Oblique-65" d="M 3078 2063 
Q 3088 2113 3092 2166 
Q 3097 2219 3097 2272 
Q 3097 2653 2873 2875 
Q 2650 3097 2266 3097 
Q 1838 3097 1509 2826 
Q 1181 2556 1013 2059 
L 3078 2063 
z
M 3578 1613 
L 903 1613 
Q 884 1494 878 1425 
Q 872 1356 872 1306 
Q 872 872 1139 634 
Q 1406 397 1894 397 
Q 2269 397 2603 481 
Q 2938 566 3225 728 
L 3116 159 
Q 2806 34 2476 -28 
Q 2147 -91 1806 -91 
Q 1078 -91 686 257 
Q 294 606 294 1247 
Q 294 1794 489 2264 
Q 684 2734 1063 3103 
Q 1306 3334 1642 3459 
Q 1978 3584 2356 3584 
Q 2950 3584 3301 3228 
Q 3653 2872 3653 2272 
Q 3653 2128 3634 1964 
Q 3616 1800 3578 1613 
z
" transform="scale(0.015625)"/>
      <path id="DejaVuSans-Oblique-73" d="M 3200 3397 
L 3091 2853 
Q 2863 2978 2609 3040 
Q 2356 3103 2088 3103 
Q 1634 3103 1373 2948 
Q 1113 2794 1113 2528 
Q 1113 2219 1719 2053 
Q 1766 2041 1788 2034 
L 1972 1978 
Q 2547 1819 2739 1644 
Q 2931 1469 2931 1166 
Q 2931 609 2489 259 
Q 2047 -91 1331 -91 
Q 1053 -91 747 -37 
Q 441 16 72 128 
L 184 722 
Q 500 559 806 475 
Q 1113 391 1394 391 
Q 1816 391 2080 572 
Q 2344 753 2344 1031 
Q 2344 1331 1650 1516 
L 1591 1531 
L 1394 1581 
Q 956 1697 753 1886 
Q 550 2075 550 2369 
Q 550 2928 970 3256 
Q 1391 3584 2113 3584 
Q 2397 3584 2667 3537 
Q 2938 3491 3200 3397 
z
" transform="scale(0.015625)"/>
      <path id="DejaVuSans-35" d="M 691 4666 
L 3169 4666 
L 3169 4134 
L 1269 4134 
L 1269 2991 
Q 1406 3038 1543 3061 
Q 1681 3084 1819 3084 
Q 2600 3084 3056 2656 
Q 3513 2228 3513 1497 
Q 3513 744 3044 326 
Q 2575 -91 1722 -91 
Q 1428 -91 1123 -41 
Q 819 9 494 109 
L 494 744 
Q 775 591 1075 516 
Q 1375 441 1709 441 
Q 2250 441 2565 725 
Q 2881 1009 2881 1497 
Q 2881 1984 2565 2268 
Q 2250 2553 1709 2553 
Q 1456 2553 1204 2497 
Q 953 2441 691 2322 
L 691 4666 
z
" transform="scale(0.015625)"/>
      <path id="DejaVuSans-37" d="M 525 4666 
L 3525 4666 
L 3525 4397 
L 1831 0 
L 1172 0 
L 2766 4134 
L 525 4134 
L 525 4666 
z
" transform="scale(0.015625)"/>
      <path id="DejaVuSans-47" d="M 3809 666 
L 3809 1919 
L 2778 1919 
L 2778 2438 
L 4434 2438 
L 4434 434 
Q 4069 175 3628 42 
Q 3188 -91 2688 -91 
Q 1594 -91 976 548 
Q 359 1188 359 2328 
Q 359 3472 976 4111 
Q 1594 4750 2688 4750 
Q 3144 4750 3555 4637 
Q 3966 4525 4313 4306 
L 4313 3634 
Q 3963 3931 3569 4081 
Q 3175 4231 2741 4231 
Q 1884 4231 1454 3753 
Q 1025 3275 1025 2328 
Q 1025 1384 1454 906 
Q 1884 428 2741 428 
Q 3075 428 3337 486 
Q 3600 544 3809 666 
z
" transform="scale(0.015625)"/>
      <path id="DejaVuSans-48" d="M 628 4666 
L 1259 4666 
L 1259 2753 
L 3553 2753 
L 3553 4666 
L 4184 4666 
L 4184 0 
L 3553 0 
L 3553 2222 
L 1259 2222 
L 1259 0 
L 628 0 
L 628 4666 
z
" transform="scale(0.015625)"/>
      <path id="DejaVuSans-7a" d="M 353 3500 
L 3084 3500 
L 3084 2975 
L 922 459 
L 3084 459 
L 3084 0 
L 275 0 
L 275 525 
L 2438 3041 
L 353 3041 
L 353 3500 
z
" transform="scale(0.015625)"/>
     </defs>
     <use xlink:href="#DejaVuSans-Oblique-66" transform="translate(0 0.015625)"/>
     <use xlink:href="#DejaVuSans-Oblique-72" transform="translate(35.205078 -16.390625) scale(0.7)"/>
     <use xlink:href="#DejaVuSans-Oblique-65" transform="translate(63.984375 -16.390625) scale(0.7)"/>
     <use xlink:href="#DejaVuSans-Oblique-73" transform="translate(107.050781 -16.390625) scale(0.7)"/>
     <use xlink:href="#DejaVuSans-3a" transform="translate(146.254883 0.015625)"/>
     <use xlink:href="#DejaVuSans-20" transform="translate(179.946289 0.015625)"/>
     <use xlink:href="#DejaVuSans-35" transform="translate(211.733398 0.015625)"/>
     <use xlink:href="#DejaVuSans-2e" transform="translate(275.356445 0.015625)"/>
     <use xlink:href="#DejaVuSans-37" transform="translate(299.393555 0.015625)"/>
     <use xlink:href="#DejaVuSans-31" transform="translate(363.016602 0.015625)"/>
     <use xlink:href="#DejaVuSans-39" transform="translate(426.639648 0.015625)"/>
     <use xlink:href="#DejaVuSans-38" transform="translate(490.262695 0.015625)"/>
     <use xlink:href="#DejaVuSans-33" transform="translate(553.885742 0.015625)"/>
     <use xlink:href="#DejaVuSans-39" transform="translate(617.508789 0.015625)"/>
     <use xlink:href="#DejaVuSans-36" transform="translate(681.131836 0.015625)"/>
     <use xlink:href="#DejaVuSans-b1" transform="translate(744.754883 0.015625)"/>
     <use xlink:href="#DejaVuSans-38" transform="translate(828.543945 0.015625)"/>
     <use xlink:href="#DejaVuSans-2e" transform="translate(892.166992 0.015625)"/>
     <use xlink:href="#DejaVuSans-38" transform="translate(921.329102 0.015625)"/>
     <use xlink:href="#DejaVuSans-65" transform="translate(984.952148 0.015625)"/>
     <use xlink:href="#DejaVuSans-2d" transform="translate(1046.475586 0.015625)"/>
     <use xlink:href="#DejaVuSans-30" transform="translate(1082.55957 0.015625)"/>
     <use xlink:href="#DejaVuSans-36" transform="translate(1146.182617 0.015625)"/>
     <use xlink:href="#DejaVuSans-20" transform="translate(1209.805664 0.015625)"/>
     <use xlink:href="#DejaVuSans-47" transform="translate(1241.592773 0.015625)"/>
     <use xlink:href="#DejaVuSans-48" transform="translate(1319.083008 0.015625)"/>
     <use xlink:href="#DejaVuSans-7a" transform="translate(1394.27832 0.015625)"/>
    </g>
   </g>
  </g>
  <g id="text_18">
   <!-- S21 resonator spectroscopy -->
   <g transform="translate(136.404688 16.318125) scale(0.12 -0.12)">
    <defs>
     <path id="DejaVuSans-73" d="M 2834 3397 
L 2834 2853 
Q 2591 2978 2328 3040 
Q 2066 3103 1784 3103 
Q 1356 3103 1142 2972 
Q 928 2841 928 2578 
Q 928 2378 1081 2264 
Q 1234 2150 1697 2047 
L 1894 2003 
Q 2506 1872 2764 1633 
Q 3022 1394 3022 966 
Q 3022 478 2636 193 
Q 2250 -91 1575 -91 
Q 1294 -91 989 -36 
Q 684 19 347 128 
L 347 722 
Q 666 556 975 473 
Q 1284 391 1588 391 
Q 1994 391 2212 530 
Q 2431 669 2431 922 
Q 2431 1156 2273 1281 
Q 2116 1406 1581 1522 
L 1381 1569 
Q 847 1681 609 1914 
Q 372 2147 372 2553 
Q 372 3047 722 3315 
Q 1072 3584 1716 3584 
Q 2034 3584 2315 3537 
Q 2597 3491 2834 3397 
z
" transform="scale(0.015625)"/>
     <path id="DejaVuSans-6f" d="M 1959 3097 
Q 1497 3097 1228 2736 
Q 959 2375 959 1747 
Q 959 1119 1226 758 
Q 1494 397 1959 397 
Q 2419 397 2687 759 
Q 2956 1122 2956 1747 
Q 2956 2369 2687 2733 
Q 2419 3097 1959 3097 
z
M 1959 3584 
Q 2709 3584 3137 3096 
Q 3566 2609 3566 1747 
Q 3566 888 3137 398 
Q 2709 -91 1959 -91 
Q 1206 -91 779 398 
Q 353 888 353 1747 
Q 353 2609 779 3096 
Q 1206 3584 1959 3584 
z
" transform="scale(0.015625)"/>
     <path id="DejaVuSans-6e" d="M 3513 2113 
L 3513 0 
L 2938 0 
L 2938 2094 
Q 2938 2591 2744 2837 
Q 2550 3084 2163 3084 
Q 1697 3084 1428 2787 
Q 1159 2491 1159 1978 
L 1159 0 
L 581 0 
L 581 3500 
L 1159 3500 
L 1159 2956 
Q 1366 3272 1645 3428 
Q 1925 3584 2291 3584 
Q 2894 3584 3203 3211 
Q 3513 2838 3513 2113 
z
" transform="scale(0.015625)"/>
     <path id="DejaVuSans-74" d="M 1172 4494 
L 1172 3500 
L 2356 3500 
L 2356 3053 
L 1172 3053 
L 1172 1153 
Q 1172 725 1289 603 
Q 1406 481 1766 481 
L 2356 481 
L 2356 0 
L 1766 0 
Q 1100 0 847 248 
Q 594 497 594 1153 
L 594 3053 
L 172 3053 
L 172 3500 
L 594 3500 
L 594 4494 
L 1172 4494 
z
" transform="scale(0.015625)"/>
     <path id="DejaVuSans-70" d="M 1159 525 
L 1159 -1331 
L 581 -1331 
L 581 3500 
L 1159 3500 
L 1159 2969 
Q 1341 3281 1617 3432 
Q 1894 3584 2278 3584 
Q 2916 3584 3314 3078 
Q 3713 2572 3713 1747 
Q 3713 922 3314 415 
Q 2916 -91 2278 -91 
Q 1894 -91 1617 61 
Q 1341 213 1159 525 
z
M 3116 1747 
Q 3116 2381 2855 2742 
Q 2594 3103 2138 3103 
Q 1681 3103 1420 2742 
Q 1159 2381 1159 1747 
Q 1159 1113 1420 752 
Q 1681 391 2138 391 
Q 2594 391 2855 752 
Q 3116 1113 3116 1747 
z
" transform="scale(0.015625)"/>
     <path id="DejaVuSans-63" d="M 3122 3366 
L 3122 2828 
Q 2878 2963 2633 3030 
Q 2388 3097 2138 3097 
Q 1578 3097 1268 2742 
Q 959 2388 959 1747 
Q 959 1106 1268 751 
Q 1578 397 2138 397 
Q 2388 397 2633 464 
Q 2878 531 3122 666 
L 3122 134 
Q 2881 22 2623 -34 
Q 2366 -91 2075 -91 
Q 1284 -91 818 406 
Q 353 903 353 1747 
Q 353 2603 823 3093 
Q 1294 3584 2113 3584 
Q 2378 3584 2631 3529 
Q 2884 3475 3122 3366 
z
" transform="scale(0.015625)"/>
    </defs>
    <use xlink:href="#DejaVuSans-53"/>
    <use xlink:href="#DejaVuSans-32" x="63.476562"/>
    <use xlink:href="#DejaVuSans-31" x="127.099609"/>
    <use xlink:href="#DejaVuSans-20" x="190.722656"/>
    <use xlink:href="#DejaVuSans-72" x="222.509766"/>
    <use xlink:href="#DejaVuSans-65" x="261.373047"/>
    <use xlink:href="#DejaVuSans-73" x="322.896484"/>
    <use xlink:href="#DejaVuSans-6f" x="374.996094"/>
    <use xlink:href="#DejaVuSans-6e" x="436.177734"/>
    <use xlink:href="#DejaVuSans-61" x="499.556641"/>
    <use xlink:href="#DejaVuSans-74" x="560.835938"/>
    <use xlink:href="#DejaVuSans-6f" x="600.044922"/>
    <use xlink:href="#DejaVuSans-72" x="661.226562"/>
    <use xlink:href="#DejaVuSans-20" x="702.339844"/>
    <use xlink:href="#DejaVuSans-73" x="734.126953"/>
    <use xlink:href="#DejaVuSans-70" x="786.226562"/>
    <use xlink:href="#DejaVuSans-65" x="849.703125"/>
    <use xlink:href="#DejaVuSans-63" x="911.226562"/>
    <use xlink:href="#DejaVuSans-74" x="966.207031"/>
    <use xlink:href="#DejaVuSans-72" x="1005.416016"/>
    <use xlink:href="#DejaVuSans-6f" x="1044.279297"/>
    <use xlink:href="#DejaVuSans-73" x="1105.460938"/>
    <use xlink:href="#DejaVuSans-63" x="1157.560547"/>
    <use xlink:href="#DejaVuSans-6f" x="1212.541016"/>
    <use xlink:href="#DejaVuSans-70" x="1273.722656"/>
    <use xlink:href="#DejaVuSans-79" x="1337.199219"/>
   </g>
   <!-- tuid: 20240123-141439-805-3c9987 -->
   <g transform="translate(110.852188 29.7555) scale(0.12 -0.12)">
    <defs>
     <path id="DejaVuSans-69" d="M 603 3500 
L 1178 3500 
L 1178 0 
L 603 0 
L 603 3500 
z
M 603 4863 
L 1178 4863 
L 1178 4134 
L 603 4134 
L 603 4863 
z
" transform="scale(0.015625)"/>
     <path id="DejaVuSans-64" d="M 2906 2969 
L 2906 4863 
L 3481 4863 
L 3481 0 
L 2906 0 
L 2906 525 
Q 2725 213 2448 61 
Q 2172 -91 1784 -91 
Q 1150 -91 751 415 
Q 353 922 353 1747 
Q 353 2572 751 3078 
Q 1150 3584 1784 3584 
Q 2172 3584 2448 3432 
Q 2725 3281 2906 2969 
z
M 947 1747 
Q 947 1113 1208 752 
Q 1469 391 1925 391 
Q 2381 391 2643 752 
Q 2906 1113 2906 1747 
Q 2906 2381 2643 2742 
Q 2381 3103 1925 3103 
Q 1469 3103 1208 2742 
Q 947 2381 947 1747 
z
" transform="scale(0.015625)"/>
    </defs>
    <use xlink:href="#DejaVuSans-74"/>
    <use xlink:href="#DejaVuSans-75" x="39.208984"/>
    <use xlink:href="#DejaVuSans-69" x="102.587891"/>
    <use xlink:href="#DejaVuSans-64" x="130.371094"/>
    <use xlink:href="#DejaVuSans-3a" x="193.847656"/>
    <use xlink:href="#DejaVuSans-20" x="227.539062"/>
    <use xlink:href="#DejaVuSans-32" x="259.326172"/>
    <use xlink:href="#DejaVuSans-30" x="322.949219"/>
    <use xlink:href="#DejaVuSans-32" x="386.572266"/>
    <use xlink:href="#DejaVuSans-34" x="450.195312"/>
    <use xlink:href="#DejaVuSans-30" x="513.818359"/>
    <use xlink:href="#DejaVuSans-31" x="577.441406"/>
    <use xlink:href="#DejaVuSans-32" x="641.064453"/>
    <use xlink:href="#DejaVuSans-33" x="704.6875"/>
    <use xlink:href="#DejaVuSans-2d" x="768.310547"/>
    <use xlink:href="#DejaVuSans-31" x="804.394531"/>
    <use xlink:href="#DejaVuSans-34" x="868.017578"/>
    <use xlink:href="#DejaVuSans-31" x="931.640625"/>
    <use xlink:href="#DejaVuSans-34" x="995.263672"/>
    <use xlink:href="#DejaVuSans-33" x="1058.886719"/>
    <use xlink:href="#DejaVuSans-39" x="1122.509766"/>
    <use xlink:href="#DejaVuSans-2d" x="1186.132812"/>
    <use xlink:href="#DejaVuSans-38" x="1222.216797"/>
    <use xlink:href="#DejaVuSans-30" x="1285.839844"/>
    <use xlink:href="#DejaVuSans-35" x="1349.462891"/>
    <use xlink:href="#DejaVuSans-2d" x="1413.085938"/>
    <use xlink:href="#DejaVuSans-33" x="1449.169922"/>
    <use xlink:href="#DejaVuSans-63" x="1512.792969"/>
    <use xlink:href="#DejaVuSans-39" x="1567.773438"/>
    <use xlink:href="#DejaVuSans-39" x="1631.396484"/>
    <use xlink:href="#DejaVuSans-38" x="1695.019531"/>
    <use xlink:href="#DejaVuSans-37" x="1758.642578"/>
   </g>
  </g>
 </g>
 <defs>
  <clipPath id="p2255150424">
   <rect x="47.389063" y="41.76" width="357.12" height="266.112"/>
  </clipPath>
 </defs>
</svg>
