<?xml version="1.0" encoding="utf-8" standalone="no"?>
<!DOCTYPE svg PUBLIC "-//W3C//DTD SVG 1.1//EN"
  "http://www.w3.org/Graphics/SVG/1.1/DTD/svg11.dtd">
<svg xmlns:xlink="http://www.w3.org/1999/xlink" width="624.026pt" height="345.42825pt" viewBox="0 0 624.026 345.42825" xmlns="http://www.w3.org/2000/svg" version="1.1">
 <metadata>
  <rdf:RDF xmlns:dc="http://purl.org/dc/elements/1.1/" xmlns:cc="http://creativecommons.org/ns#" xmlns:rdf="http://www.w3.org/1999/02/22-rdf-syntax-ns#">
   <cc:Work>
    <dc:type rdf:resource="http://purl.org/dc/dcmitype/StillImage"/>
    <dc:date>2024-01-04T16:35:08.416185</dc:date>
    <dc:format>image/svg+xml</dc:format>
    <dc:creator>
     <cc:Agent>
      <dc:title>Matplotlib v3.8.1, https://matplotlib.org/</dc:title>
     </cc:Agent>
    </dc:creator>
   </cc:Work>
  </rdf:RDF>
 </metadata>
 <defs>
  <style type="text/css">*{stroke-linejoin: round; stroke-linecap: butt}</style>
 </defs>
 <g id="figure_1">
  <g id="patch_1">
   <path d="M 0 345.42825 
L 624.026 345.42825 
L 624.026 -0 
L 0 -0 
L 0 345.42825 
z
" style="fill: none; opacity: 0"/>
  </g>
  <g id="axes_1">
   <g id="patch_2">
    <path d="M 53.75 307.872 
L 410.87 307.872 
L 410.87 41.76 
L 53.75 41.76 
z
" style="fill: #ffffff"/>
   </g>
   <g id="matplotlib.axis_1">
    <g id="xtick_1">
     <g id="line2d_1">
      <defs>
       <path id="m99782d165a" d="M 0 0 
L 0 3.5 
" style="stroke: #000000; stroke-width: 0.8"/>
      </defs>
      <g>
       <use xlink:href="#m99782d165a" x="69.171091" y="307.872" style="stroke: #000000; stroke-width: 0.8"/>
      </g>
     </g>
     <g id="text_1">
      <!-- 0 -->
      <g transform="translate(65.989841 322.470438) scale(0.1 -0.1)">
       <defs>
        <path id="DejaVuSans-30" d="M 2034 4250 
Q 1547 4250 1301 3770 
Q 1056 3291 1056 2328 
Q 1056 1369 1301 889 
Q 1547 409 2034 409 
Q 2525 409 2770 889 
Q 3016 1369 3016 2328 
Q 3016 3291 2770 3770 
Q 2525 4250 2034 4250 
z
M 2034 4750 
Q 2819 4750 3233 4129 
Q 3647 3509 3647 2328 
Q 3647 1150 3233 529 
Q 2819 -91 2034 -91 
Q 1250 -91 836 529 
Q 422 1150 422 2328 
Q 422 3509 836 4129 
Q 1250 4750 2034 4750 
z
" transform="scale(0.015625)"/>
       </defs>
       <use xlink:href="#DejaVuSans-30"/>
      </g>
     </g>
    </g>
    <g id="xtick_2">
     <g id="line2d_2">
      <g>
       <use xlink:href="#m99782d165a" x="109.752909" y="307.872" style="stroke: #000000; stroke-width: 0.8"/>
      </g>
     </g>
     <g id="text_2">
      <!-- 2 -->
      <g transform="translate(106.571659 322.470438) scale(0.1 -0.1)">
       <defs>
        <path id="DejaVuSans-32" d="M 1228 531 
L 3431 531 
L 3431 0 
L 469 0 
L 469 531 
Q 828 903 1448 1529 
Q 2069 2156 2228 2338 
Q 2531 2678 2651 2914 
Q 2772 3150 2772 3378 
Q 2772 3750 2511 3984 
Q 2250 4219 1831 4219 
Q 1534 4219 1204 4116 
Q 875 4013 500 3803 
L 500 4441 
Q 881 4594 1212 4672 
Q 1544 4750 1819 4750 
Q 2544 4750 2975 4387 
Q 3406 4025 3406 3419 
Q 3406 3131 3298 2873 
Q 3191 2616 2906 2266 
Q 2828 2175 2409 1742 
Q 1991 1309 1228 531 
z
" transform="scale(0.015625)"/>
       </defs>
       <use xlink:href="#DejaVuSans-32"/>
      </g>
     </g>
    </g>
    <g id="xtick_3">
     <g id="line2d_3">
      <g>
       <use xlink:href="#m99782d165a" x="150.334727" y="307.872" style="stroke: #000000; stroke-width: 0.8"/>
      </g>
     </g>
     <g id="text_3">
      <!-- 4 -->
      <g transform="translate(147.153477 322.470438) scale(0.1 -0.1)">
       <defs>
        <path id="DejaVuSans-34" d="M 2419 4116 
L 825 1625 
L 2419 1625 
L 2419 4116 
z
M 2253 4666 
L 3047 4666 
L 3047 1625 
L 3713 1625 
L 3713 1100 
L 3047 1100 
L 3047 0 
L 2419 0 
L 2419 1100 
L 313 1100 
L 313 1709 
L 2253 4666 
z
" transform="scale(0.015625)"/>
       </defs>
       <use xlink:href="#DejaVuSans-34"/>
      </g>
     </g>
    </g>
    <g id="xtick_4">
     <g id="line2d_4">
      <g>
       <use xlink:href="#m99782d165a" x="190.916545" y="307.872" style="stroke: #000000; stroke-width: 0.8"/>
      </g>
     </g>
     <g id="text_4">
      <!-- 6 -->
      <g transform="translate(187.735295 322.470438) scale(0.1 -0.1)">
       <defs>
        <path id="DejaVuSans-36" d="M 2113 2584 
Q 1688 2584 1439 2293 
Q 1191 2003 1191 1497 
Q 1191 994 1439 701 
Q 1688 409 2113 409 
Q 2538 409 2786 701 
Q 3034 994 3034 1497 
Q 3034 2003 2786 2293 
Q 2538 2584 2113 2584 
z
M 3366 4563 
L 3366 3988 
Q 3128 4100 2886 4159 
Q 2644 4219 2406 4219 
Q 1781 4219 1451 3797 
Q 1122 3375 1075 2522 
Q 1259 2794 1537 2939 
Q 1816 3084 2150 3084 
Q 2853 3084 3261 2657 
Q 3669 2231 3669 1497 
Q 3669 778 3244 343 
Q 2819 -91 2113 -91 
Q 1303 -91 875 529 
Q 447 1150 447 2328 
Q 447 3434 972 4092 
Q 1497 4750 2381 4750 
Q 2619 4750 2861 4703 
Q 3103 4656 3366 4563 
z
" transform="scale(0.015625)"/>
       </defs>
       <use xlink:href="#DejaVuSans-36"/>
      </g>
     </g>
    </g>
    <g id="xtick_5">
     <g id="line2d_5">
      <g>
       <use xlink:href="#m99782d165a" x="231.498364" y="307.872" style="stroke: #000000; stroke-width: 0.8"/>
      </g>
     </g>
     <g id="text_5">
      <!-- 8 -->
      <g transform="translate(228.317114 322.470438) scale(0.1 -0.1)">
       <defs>
        <path id="DejaVuSans-38" d="M 2034 2216 
Q 1584 2216 1326 1975 
Q 1069 1734 1069 1313 
Q 1069 891 1326 650 
Q 1584 409 2034 409 
Q 2484 409 2743 651 
Q 3003 894 3003 1313 
Q 3003 1734 2745 1975 
Q 2488 2216 2034 2216 
z
M 1403 2484 
Q 997 2584 770 2862 
Q 544 3141 544 3541 
Q 544 4100 942 4425 
Q 1341 4750 2034 4750 
Q 2731 4750 3128 4425 
Q 3525 4100 3525 3541 
Q 3525 3141 3298 2862 
Q 3072 2584 2669 2484 
Q 3125 2378 3379 2068 
Q 3634 1759 3634 1313 
Q 3634 634 3220 271 
Q 2806 -91 2034 -91 
Q 1263 -91 848 271 
Q 434 634 434 1313 
Q 434 1759 690 2068 
Q 947 2378 1403 2484 
z
M 1172 3481 
Q 1172 3119 1398 2916 
Q 1625 2713 2034 2713 
Q 2441 2713 2670 2916 
Q 2900 3119 2900 3481 
Q 2900 3844 2670 4047 
Q 2441 4250 2034 4250 
Q 1625 4250 1398 4047 
Q 1172 3844 1172 3481 
z
" transform="scale(0.015625)"/>
       </defs>
       <use xlink:href="#DejaVuSans-38"/>
      </g>
     </g>
    </g>
    <g id="xtick_6">
     <g id="line2d_6">
      <g>
       <use xlink:href="#m99782d165a" x="272.080182" y="307.872" style="stroke: #000000; stroke-width: 0.8"/>
      </g>
     </g>
     <g id="text_6">
      <!-- 10 -->
      <g transform="translate(265.717682 322.470438) scale(0.1 -0.1)">
       <defs>
        <path id="DejaVuSans-31" d="M 794 531 
L 1825 531 
L 1825 4091 
L 703 3866 
L 703 4441 
L 1819 4666 
L 2450 4666 
L 2450 531 
L 3481 531 
L 3481 0 
L 794 0 
L 794 531 
z
" transform="scale(0.015625)"/>
       </defs>
       <use xlink:href="#DejaVuSans-31"/>
       <use xlink:href="#DejaVuSans-30" x="63.623047"/>
      </g>
     </g>
    </g>
    <g id="xtick_7">
     <g id="line2d_7">
      <g>
       <use xlink:href="#m99782d165a" x="312.662" y="307.872" style="stroke: #000000; stroke-width: 0.8"/>
      </g>
     </g>
     <g id="text_7">
      <!-- 12 -->
      <g transform="translate(306.2995 322.470438) scale(0.1 -0.1)">
       <use xlink:href="#DejaVuSans-31"/>
       <use xlink:href="#DejaVuSans-32" x="63.623047"/>
      </g>
     </g>
    </g>
    <g id="xtick_8">
     <g id="line2d_8">
      <g>
       <use xlink:href="#m99782d165a" x="353.243818" y="307.872" style="stroke: #000000; stroke-width: 0.8"/>
      </g>
     </g>
     <g id="text_8">
      <!-- 14 -->
      <g transform="translate(346.881318 322.470438) scale(0.1 -0.1)">
       <use xlink:href="#DejaVuSans-31"/>
       <use xlink:href="#DejaVuSans-34" x="63.623047"/>
      </g>
     </g>
    </g>
    <g id="xtick_9">
     <g id="line2d_9">
      <g>
       <use xlink:href="#m99782d165a" x="393.825636" y="307.872" style="stroke: #000000; stroke-width: 0.8"/>
      </g>
     </g>
     <g id="text_9">
      <!-- 16 -->
      <g transform="translate(387.463136 322.470438) scale(0.1 -0.1)">
       <use xlink:href="#DejaVuSans-31"/>
       <use xlink:href="#DejaVuSans-36" x="63.623047"/>
      </g>
     </g>
    </g>
    <g id="text_10">
     <!-- Time [μs] -->
     <g transform="translate(208.799844 336.148562) scale(0.1 -0.1)">
      <defs>
       <path id="DejaVuSans-54" d="M -19 4666 
L 3928 4666 
L 3928 4134 
L 2272 4134 
L 2272 0 
L 1638 0 
L 1638 4134 
L -19 4134 
L -19 4666 
z
" transform="scale(0.015625)"/>
       <path id="DejaVuSans-69" d="M 603 3500 
L 1178 3500 
L 1178 0 
L 603 0 
L 603 3500 
z
M 603 4863 
L 1178 4863 
L 1178 4134 
L 603 4134 
L 603 4863 
z
" transform="scale(0.015625)"/>
       <path id="DejaVuSans-6d" d="M 3328 2828 
Q 3544 3216 3844 3400 
Q 4144 3584 4550 3584 
Q 5097 3584 5394 3201 
Q 5691 2819 5691 2113 
L 5691 0 
L 5113 0 
L 5113 2094 
Q 5113 2597 4934 2840 
Q 4756 3084 4391 3084 
Q 3944 3084 3684 2787 
Q 3425 2491 3425 1978 
L 3425 0 
L 2847 0 
L 2847 2094 
Q 2847 2600 2669 2842 
Q 2491 3084 2119 3084 
Q 1678 3084 1418 2786 
Q 1159 2488 1159 1978 
L 1159 0 
L 581 0 
L 581 3500 
L 1159 3500 
L 1159 2956 
Q 1356 3278 1631 3431 
Q 1906 3584 2284 3584 
Q 2666 3584 2933 3390 
Q 3200 3197 3328 2828 
z
" transform="scale(0.015625)"/>
       <path id="DejaVuSans-65" d="M 3597 1894 
L 3597 1613 
L 953 1613 
Q 991 1019 1311 708 
Q 1631 397 2203 397 
Q 2534 397 2845 478 
Q 3156 559 3463 722 
L 3463 178 
Q 3153 47 2828 -22 
Q 2503 -91 2169 -91 
Q 1331 -91 842 396 
Q 353 884 353 1716 
Q 353 2575 817 3079 
Q 1281 3584 2069 3584 
Q 2775 3584 3186 3129 
Q 3597 2675 3597 1894 
z
M 3022 2063 
Q 3016 2534 2758 2815 
Q 2500 3097 2075 3097 
Q 1594 3097 1305 2825 
Q 1016 2553 972 2059 
L 3022 2063 
z
" transform="scale(0.015625)"/>
       <path id="DejaVuSans-20" transform="scale(0.015625)"/>
       <path id="DejaVuSans-5b" d="M 550 4863 
L 1875 4863 
L 1875 4416 
L 1125 4416 
L 1125 -397 
L 1875 -397 
L 1875 -844 
L 550 -844 
L 550 4863 
z
" transform="scale(0.015625)"/>
       <path id="DejaVuSans-3bc" d="M 544 -1331 
L 544 3500 
L 1119 3500 
L 1119 1325 
Q 1119 872 1334 640 
Q 1550 409 1972 409 
Q 2434 409 2667 671 
Q 2900 934 2900 1459 
L 2900 3500 
L 3475 3500 
L 3475 806 
Q 3475 619 3529 530 
Q 3584 441 3700 441 
Q 3728 441 3778 458 
Q 3828 475 3916 513 
L 3916 50 
Q 3788 -22 3673 -56 
Q 3559 -91 3450 -91 
Q 3234 -91 3106 31 
Q 2978 153 2931 403 
Q 2775 156 2548 32 
Q 2322 -91 2016 -91 
Q 1697 -91 1473 31 
Q 1250 153 1119 397 
L 1119 -1331 
L 544 -1331 
z
" transform="scale(0.015625)"/>
       <path id="DejaVuSans-73" d="M 2834 3397 
L 2834 2853 
Q 2591 2978 2328 3040 
Q 2066 3103 1784 3103 
Q 1356 3103 1142 2972 
Q 928 2841 928 2578 
Q 928 2378 1081 2264 
Q 1234 2150 1697 2047 
L 1894 2003 
Q 2506 1872 2764 1633 
Q 3022 1394 3022 966 
Q 3022 478 2636 193 
Q 2250 -91 1575 -91 
Q 1294 -91 989 -36 
Q 684 19 347 128 
L 347 722 
Q 666 556 975 473 
Q 1284 391 1588 391 
Q 1994 391 2212 530 
Q 2431 669 2431 922 
Q 2431 1156 2273 1281 
Q 2116 1406 1581 1522 
L 1381 1569 
Q 847 1681 609 1914 
Q 372 2147 372 2553 
Q 372 3047 722 3315 
Q 1072 3584 1716 3584 
Q 2034 3584 2315 3537 
Q 2597 3491 2834 3397 
z
" transform="scale(0.015625)"/>
       <path id="DejaVuSans-5d" d="M 1947 4863 
L 1947 -844 
L 622 -844 
L 622 -397 
L 1369 -397 
L 1369 4416 
L 622 4416 
L 622 4863 
L 1947 4863 
z
" transform="scale(0.015625)"/>
      </defs>
      <use xlink:href="#DejaVuSans-54"/>
      <use xlink:href="#DejaVuSans-69" x="57.958984"/>
      <use xlink:href="#DejaVuSans-6d" x="85.742188"/>
      <use xlink:href="#DejaVuSans-65" x="183.154297"/>
      <use xlink:href="#DejaVuSans-20" x="244.677734"/>
      <use xlink:href="#DejaVuSans-5b" x="276.464844"/>
      <use xlink:href="#DejaVuSans-3bc" x="315.478516"/>
      <use xlink:href="#DejaVuSans-73" x="379.101562"/>
      <use xlink:href="#DejaVuSans-5d" x="431.201172"/>
     </g>
    </g>
   </g>
   <g id="matplotlib.axis_2">
    <g id="ytick_1">
     <g id="line2d_10">
      <defs>
       <path id="m25437060c1" d="M 0 0 
L -3.5 0 
" style="stroke: #000000; stroke-width: 0.8"/>
      </defs>
      <g>
       <use xlink:href="#m25437060c1" x="53.75" y="276.699848" style="stroke: #000000; stroke-width: 0.8"/>
      </g>
     </g>
     <g id="text_11">
      <!-- 1000 -->
      <g transform="translate(21.3 280.499067) scale(0.1 -0.1)">
       <use xlink:href="#DejaVuSans-31"/>
       <use xlink:href="#DejaVuSans-30" x="63.623047"/>
       <use xlink:href="#DejaVuSans-30" x="127.246094"/>
       <use xlink:href="#DejaVuSans-30" x="190.869141"/>
      </g>
     </g>
    </g>
    <g id="ytick_2">
     <g id="line2d_11">
      <g>
       <use xlink:href="#m25437060c1" x="53.75" y="237.927354" style="stroke: #000000; stroke-width: 0.8"/>
      </g>
     </g>
     <g id="text_12">
      <!-- 1100 -->
      <g transform="translate(21.3 241.726573) scale(0.1 -0.1)">
       <use xlink:href="#DejaVuSans-31"/>
       <use xlink:href="#DejaVuSans-31" x="63.623047"/>
       <use xlink:href="#DejaVuSans-30" x="127.246094"/>
       <use xlink:href="#DejaVuSans-30" x="190.869141"/>
      </g>
     </g>
    </g>
    <g id="ytick_3">
     <g id="line2d_12">
      <g>
       <use xlink:href="#m25437060c1" x="53.75" y="199.15486" style="stroke: #000000; stroke-width: 0.8"/>
      </g>
     </g>
     <g id="text_13">
      <!-- 1200 -->
      <g transform="translate(21.3 202.954079) scale(0.1 -0.1)">
       <use xlink:href="#DejaVuSans-31"/>
       <use xlink:href="#DejaVuSans-32" x="63.623047"/>
       <use xlink:href="#DejaVuSans-30" x="127.246094"/>
       <use xlink:href="#DejaVuSans-30" x="190.869141"/>
      </g>
     </g>
    </g>
    <g id="ytick_4">
     <g id="line2d_13">
      <g>
       <use xlink:href="#m25437060c1" x="53.75" y="160.382366" style="stroke: #000000; stroke-width: 0.8"/>
      </g>
     </g>
     <g id="text_14">
      <!-- 1300 -->
      <g transform="translate(21.3 164.181585) scale(0.1 -0.1)">
       <defs>
        <path id="DejaVuSans-33" d="M 2597 2516 
Q 3050 2419 3304 2112 
Q 3559 1806 3559 1356 
Q 3559 666 3084 287 
Q 2609 -91 1734 -91 
Q 1441 -91 1130 -33 
Q 819 25 488 141 
L 488 750 
Q 750 597 1062 519 
Q 1375 441 1716 441 
Q 2309 441 2620 675 
Q 2931 909 2931 1356 
Q 2931 1769 2642 2001 
Q 2353 2234 1838 2234 
L 1294 2234 
L 1294 2753 
L 1863 2753 
Q 2328 2753 2575 2939 
Q 2822 3125 2822 3475 
Q 2822 3834 2567 4026 
Q 2313 4219 1838 4219 
Q 1578 4219 1281 4162 
Q 984 4106 628 3988 
L 628 4550 
Q 988 4650 1302 4700 
Q 1616 4750 1894 4750 
Q 2613 4750 3031 4423 
Q 3450 4097 3450 3541 
Q 3450 3153 3228 2886 
Q 3006 2619 2597 2516 
z
" transform="scale(0.015625)"/>
       </defs>
       <use xlink:href="#DejaVuSans-31"/>
       <use xlink:href="#DejaVuSans-33" x="63.623047"/>
       <use xlink:href="#DejaVuSans-30" x="127.246094"/>
       <use xlink:href="#DejaVuSans-30" x="190.869141"/>
      </g>
     </g>
    </g>
    <g id="ytick_5">
     <g id="line2d_14">
      <g>
       <use xlink:href="#m25437060c1" x="53.75" y="121.609872" style="stroke: #000000; stroke-width: 0.8"/>
      </g>
     </g>
     <g id="text_15">
      <!-- 1400 -->
      <g transform="translate(21.3 125.409091) scale(0.1 -0.1)">
       <use xlink:href="#DejaVuSans-31"/>
       <use xlink:href="#DejaVuSans-34" x="63.623047"/>
       <use xlink:href="#DejaVuSans-30" x="127.246094"/>
       <use xlink:href="#DejaVuSans-30" x="190.869141"/>
      </g>
     </g>
    </g>
    <g id="ytick_6">
     <g id="line2d_15">
      <g>
       <use xlink:href="#m25437060c1" x="53.75" y="82.837378" style="stroke: #000000; stroke-width: 0.8"/>
      </g>
     </g>
     <g id="text_16">
      <!-- 1500 -->
      <g transform="translate(21.3 86.636597) scale(0.1 -0.1)">
       <defs>
        <path id="DejaVuSans-35" d="M 691 4666 
L 3169 4666 
L 3169 4134 
L 1269 4134 
L 1269 2991 
Q 1406 3038 1543 3061 
Q 1681 3084 1819 3084 
Q 2600 3084 3056 2656 
Q 3513 2228 3513 1497 
Q 3513 744 3044 326 
Q 2575 -91 1722 -91 
Q 1428 -91 1123 -41 
Q 819 9 494 109 
L 494 744 
Q 775 591 1075 516 
Q 1375 441 1709 441 
Q 2250 441 2565 725 
Q 2881 1009 2881 1497 
Q 2881 1984 2565 2268 
Q 2250 2553 1709 2553 
Q 1456 2553 1204 2497 
Q 953 2441 691 2322 
L 691 4666 
z
" transform="scale(0.015625)"/>
       </defs>
       <use xlink:href="#DejaVuSans-31"/>
       <use xlink:href="#DejaVuSans-35" x="63.623047"/>
       <use xlink:href="#DejaVuSans-30" x="127.246094"/>
       <use xlink:href="#DejaVuSans-30" x="190.869141"/>
      </g>
     </g>
    </g>
    <g id="ytick_7">
     <g id="line2d_16">
      <g>
       <use xlink:href="#m25437060c1" x="53.75" y="44.064885" style="stroke: #000000; stroke-width: 0.8"/>
      </g>
     </g>
     <g id="text_17">
      <!-- 1600 -->
      <g transform="translate(21.3 47.864103) scale(0.1 -0.1)">
       <use xlink:href="#DejaVuSans-31"/>
       <use xlink:href="#DejaVuSans-36" x="63.623047"/>
       <use xlink:href="#DejaVuSans-30" x="127.246094"/>
       <use xlink:href="#DejaVuSans-30" x="190.869141"/>
      </g>
     </g>
    </g>
    <g id="text_18">
     <!-- Magnitude |$S_{21}|$ [μV] -->
     <g transform="translate(14.9 226.166) rotate(-90) scale(0.1 -0.1)">
      <defs>
       <path id="DejaVuSans-4d" d="M 628 4666 
L 1569 4666 
L 2759 1491 
L 3956 4666 
L 4897 4666 
L 4897 0 
L 4281 0 
L 4281 4097 
L 3078 897 
L 2444 897 
L 1241 4097 
L 1241 0 
L 628 0 
L 628 4666 
z
" transform="scale(0.015625)"/>
       <path id="DejaVuSans-61" d="M 2194 1759 
Q 1497 1759 1228 1600 
Q 959 1441 959 1056 
Q 959 750 1161 570 
Q 1363 391 1709 391 
Q 2188 391 2477 730 
Q 2766 1069 2766 1631 
L 2766 1759 
L 2194 1759 
z
M 3341 1997 
L 3341 0 
L 2766 0 
L 2766 531 
Q 2569 213 2275 61 
Q 1981 -91 1556 -91 
Q 1019 -91 701 211 
Q 384 513 384 1019 
Q 384 1609 779 1909 
Q 1175 2209 1959 2209 
L 2766 2209 
L 2766 2266 
Q 2766 2663 2505 2880 
Q 2244 3097 1772 3097 
Q 1472 3097 1187 3025 
Q 903 2953 641 2809 
L 641 3341 
Q 956 3463 1253 3523 
Q 1550 3584 1831 3584 
Q 2591 3584 2966 3190 
Q 3341 2797 3341 1997 
z
" transform="scale(0.015625)"/>
       <path id="DejaVuSans-67" d="M 2906 1791 
Q 2906 2416 2648 2759 
Q 2391 3103 1925 3103 
Q 1463 3103 1205 2759 
Q 947 2416 947 1791 
Q 947 1169 1205 825 
Q 1463 481 1925 481 
Q 2391 481 2648 825 
Q 2906 1169 2906 1791 
z
M 3481 434 
Q 3481 -459 3084 -895 
Q 2688 -1331 1869 -1331 
Q 1566 -1331 1297 -1286 
Q 1028 -1241 775 -1147 
L 775 -588 
Q 1028 -725 1275 -790 
Q 1522 -856 1778 -856 
Q 2344 -856 2625 -561 
Q 2906 -266 2906 331 
L 2906 616 
Q 2728 306 2450 153 
Q 2172 0 1784 0 
Q 1141 0 747 490 
Q 353 981 353 1791 
Q 353 2603 747 3093 
Q 1141 3584 1784 3584 
Q 2172 3584 2450 3431 
Q 2728 3278 2906 2969 
L 2906 3500 
L 3481 3500 
L 3481 434 
z
" transform="scale(0.015625)"/>
       <path id="DejaVuSans-6e" d="M 3513 2113 
L 3513 0 
L 2938 0 
L 2938 2094 
Q 2938 2591 2744 2837 
Q 2550 3084 2163 3084 
Q 1697 3084 1428 2787 
Q 1159 2491 1159 1978 
L 1159 0 
L 581 0 
L 581 3500 
L 1159 3500 
L 1159 2956 
Q 1366 3272 1645 3428 
Q 1925 3584 2291 3584 
Q 2894 3584 3203 3211 
Q 3513 2838 3513 2113 
z
" transform="scale(0.015625)"/>
       <path id="DejaVuSans-74" d="M 1172 4494 
L 1172 3500 
L 2356 3500 
L 2356 3053 
L 1172 3053 
L 1172 1153 
Q 1172 725 1289 603 
Q 1406 481 1766 481 
L 2356 481 
L 2356 0 
L 1766 0 
Q 1100 0 847 248 
Q 594 497 594 1153 
L 594 3053 
L 172 3053 
L 172 3500 
L 594 3500 
L 594 4494 
L 1172 4494 
z
" transform="scale(0.015625)"/>
       <path id="DejaVuSans-75" d="M 544 1381 
L 544 3500 
L 1119 3500 
L 1119 1403 
Q 1119 906 1312 657 
Q 1506 409 1894 409 
Q 2359 409 2629 706 
Q 2900 1003 2900 1516 
L 2900 3500 
L 3475 3500 
L 3475 0 
L 2900 0 
L 2900 538 
Q 2691 219 2414 64 
Q 2138 -91 1772 -91 
Q 1169 -91 856 284 
Q 544 659 544 1381 
z
M 1991 3584 
L 1991 3584 
z
" transform="scale(0.015625)"/>
       <path id="DejaVuSans-64" d="M 2906 2969 
L 2906 4863 
L 3481 4863 
L 3481 0 
L 2906 0 
L 2906 525 
Q 2725 213 2448 61 
Q 2172 -91 1784 -91 
Q 1150 -91 751 415 
Q 353 922 353 1747 
Q 353 2572 751 3078 
Q 1150 3584 1784 3584 
Q 2172 3584 2448 3432 
Q 2725 3281 2906 2969 
z
M 947 1747 
Q 947 1113 1208 752 
Q 1469 391 1925 391 
Q 2381 391 2643 752 
Q 2906 1113 2906 1747 
Q 2906 2381 2643 2742 
Q 2381 3103 1925 3103 
Q 1469 3103 1208 2742 
Q 947 2381 947 1747 
z
" transform="scale(0.015625)"/>
       <path id="DejaVuSans-7c" d="M 1344 4891 
L 1344 -1509 
L 813 -1509 
L 813 4891 
L 1344 4891 
z
" transform="scale(0.015625)"/>
       <path id="DejaVuSans-Oblique-53" d="M 3859 4513 
L 3738 3897 
Q 3422 4066 3111 4152 
Q 2800 4238 2509 4238 
Q 1944 4238 1609 3991 
Q 1275 3744 1275 3334 
Q 1275 3109 1398 2989 
Q 1522 2869 2034 2731 
L 2413 2638 
Q 3053 2472 3303 2217 
Q 3553 1963 3553 1503 
Q 3553 797 2998 353 
Q 2444 -91 1538 -91 
Q 1166 -91 791 -17 
Q 416 56 38 206 
L 166 856 
Q 513 641 861 531 
Q 1209 422 1556 422 
Q 2147 422 2503 684 
Q 2859 947 2859 1369 
Q 2859 1650 2717 1795 
Q 2575 1941 2106 2059 
L 1728 2156 
Q 1081 2325 845 2545 
Q 609 2766 609 3163 
Q 609 3859 1145 4304 
Q 1681 4750 2541 4750 
Q 2875 4750 3203 4690 
Q 3531 4631 3859 4513 
z
" transform="scale(0.015625)"/>
       <path id="DejaVuSans-56" d="M 1831 0 
L 50 4666 
L 709 4666 
L 2188 738 
L 3669 4666 
L 4325 4666 
L 2547 0 
L 1831 0 
z
" transform="scale(0.015625)"/>
      </defs>
      <use xlink:href="#DejaVuSans-4d" transform="translate(0 0.578125)"/>
      <use xlink:href="#DejaVuSans-61" transform="translate(86.279297 0.578125)"/>
      <use xlink:href="#DejaVuSans-67" transform="translate(147.558594 0.578125)"/>
      <use xlink:href="#DejaVuSans-6e" transform="translate(211.035156 0.578125)"/>
      <use xlink:href="#DejaVuSans-69" transform="translate(274.414062 0.578125)"/>
      <use xlink:href="#DejaVuSans-74" transform="translate(302.197266 0.578125)"/>
      <use xlink:href="#DejaVuSans-75" transform="translate(341.40625 0.578125)"/>
      <use xlink:href="#DejaVuSans-64" transform="translate(404.785156 0.578125)"/>
      <use xlink:href="#DejaVuSans-65" transform="translate(468.261719 0.578125)"/>
      <use xlink:href="#DejaVuSans-20" transform="translate(529.785156 0.578125)"/>
      <use xlink:href="#DejaVuSans-7c" transform="translate(561.572266 0.578125)"/>
      <use xlink:href="#DejaVuSans-Oblique-53" transform="translate(595.263672 0.578125)"/>
      <use xlink:href="#DejaVuSans-32" transform="translate(658.740234 -15.828125) scale(0.7)"/>
      <use xlink:href="#DejaVuSans-31" transform="translate(703.276367 -15.828125) scale(0.7)"/>
      <use xlink:href="#DejaVuSans-7c" transform="translate(750.546875 0.578125)"/>
      <use xlink:href="#DejaVuSans-20" transform="translate(784.238281 0.578125)"/>
      <use xlink:href="#DejaVuSans-5b" transform="translate(816.025391 0.578125)"/>
      <use xlink:href="#DejaVuSans-3bc" transform="translate(855.039062 0.578125)"/>
      <use xlink:href="#DejaVuSans-56" transform="translate(918.662109 0.578125)"/>
      <use xlink:href="#DejaVuSans-5d" transform="translate(987.070312 0.578125)"/>
     </g>
    </g>
   </g>
   <g id="line2d_17">
    <defs>
     <path id="m5f82c9dcc5" d="M 0 1.5 
C 0.397805 1.5 0.77937 1.341951 1.06066 1.06066 
C 1.341951 0.77937 1.5 0.397805 1.5 0 
C 1.5 -0.397805 1.341951 -0.77937 1.06066 -1.06066 
C 0.77937 -1.341951 0.397805 -1.5 0 -1.5 
C -0.397805 -1.5 -0.77937 -1.341951 -1.06066 -1.06066 
C -1.341951 -0.77937 -1.5 -0.397805 -1.5 0 
C -1.5 0.397805 -1.341951 0.77937 -1.06066 1.06066 
C -0.77937 1.341951 -0.397805 1.5 0 1.5 
z
" style="stroke: #1f77b4"/>
    </defs>
    <g clip-path="url(#p330e702e69)">
     <use xlink:href="#m5f82c9dcc5" x="69.982727" y="100.303576" style="fill: #1f77b4; stroke: #1f77b4"/>
     <use xlink:href="#m5f82c9dcc5" x="73.229273" y="287.826008" style="fill: #1f77b4; stroke: #1f77b4"/>
     <use xlink:href="#m5f82c9dcc5" x="76.475818" y="54.768722" style="fill: #1f77b4; stroke: #1f77b4"/>
     <use xlink:href="#m5f82c9dcc5" x="79.722364" y="275.967682" style="fill: #1f77b4; stroke: #1f77b4"/>
     <use xlink:href="#m5f82c9dcc5" x="82.968909" y="129.74242" style="fill: #1f77b4; stroke: #1f77b4"/>
     <use xlink:href="#m5f82c9dcc5" x="86.215455" y="205.461626" style="fill: #1f77b4; stroke: #1f77b4"/>
     <use xlink:href="#m5f82c9dcc5" x="89.462" y="208.247638" style="fill: #1f77b4; stroke: #1f77b4"/>
     <use xlink:href="#m5f82c9dcc5" x="92.708545" y="102.953316" style="fill: #1f77b4; stroke: #1f77b4"/>
     <use xlink:href="#m5f82c9dcc5" x="95.955091" y="269.098868" style="fill: #1f77b4; stroke: #1f77b4"/>
     <use xlink:href="#m5f82c9dcc5" x="99.201636" y="78.501328" style="fill: #1f77b4; stroke: #1f77b4"/>
     <use xlink:href="#m5f82c9dcc5" x="102.448182" y="258.933759" style="fill: #1f77b4; stroke: #1f77b4"/>
     <use xlink:href="#m5f82c9dcc5" x="105.694727" y="97.056804" style="fill: #1f77b4; stroke: #1f77b4"/>
     <use xlink:href="#m5f82c9dcc5" x="108.941273" y="194.984305" style="fill: #1f77b4; stroke: #1f77b4"/>
     <use xlink:href="#m5f82c9dcc5" x="112.187818" y="172.802" style="fill: #1f77b4; stroke: #1f77b4"/>
     <use xlink:href="#m5f82c9dcc5" x="115.434364" y="129.755949" style="fill: #1f77b4; stroke: #1f77b4"/>
     <use xlink:href="#m5f82c9dcc5" x="118.680909" y="252.308287" style="fill: #1f77b4; stroke: #1f77b4"/>
     <use xlink:href="#m5f82c9dcc5" x="121.927455" y="93.528064" style="fill: #1f77b4; stroke: #1f77b4"/>
     <use xlink:href="#m5f82c9dcc5" x="125.174" y="239.109405" style="fill: #1f77b4; stroke: #1f77b4"/>
     <use xlink:href="#m5f82c9dcc5" x="128.420545" y="109.120986" style="fill: #1f77b4; stroke: #1f77b4"/>
     <use xlink:href="#m5f82c9dcc5" x="131.667091" y="220.564384" style="fill: #1f77b4; stroke: #1f77b4"/>
     <use xlink:href="#m5f82c9dcc5" x="134.913636" y="171.380801" style="fill: #1f77b4; stroke: #1f77b4"/>
     <use xlink:href="#m5f82c9dcc5" x="138.160182" y="149.739649" style="fill: #1f77b4; stroke: #1f77b4"/>
     <use xlink:href="#m5f82c9dcc5" x="141.406727" y="213.462046" style="fill: #1f77b4; stroke: #1f77b4"/>
     <use xlink:href="#m5f82c9dcc5" x="144.653273" y="112.127938" style="fill: #1f77b4; stroke: #1f77b4"/>
     <use xlink:href="#m5f82c9dcc5" x="147.899818" y="237.983765" style="fill: #1f77b4; stroke: #1f77b4"/>
     <use xlink:href="#m5f82c9dcc5" x="151.146364" y="111.65658" style="fill: #1f77b4; stroke: #1f77b4"/>
     <use xlink:href="#m5f82c9dcc5" x="154.392909" y="215.006755" style="fill: #1f77b4; stroke: #1f77b4"/>
     <use xlink:href="#m5f82c9dcc5" x="157.639455" y="156.312271" style="fill: #1f77b4; stroke: #1f77b4"/>
     <use xlink:href="#m5f82c9dcc5" x="160.886" y="169.295494" style="fill: #1f77b4; stroke: #1f77b4"/>
     <use xlink:href="#m5f82c9dcc5" x="164.132545" y="193.083756" style="fill: #1f77b4; stroke: #1f77b4"/>
     <use xlink:href="#m5f82c9dcc5" x="167.379091" y="134.653124" style="fill: #1f77b4; stroke: #1f77b4"/>
     <use xlink:href="#m5f82c9dcc5" x="170.625636" y="215.10977" style="fill: #1f77b4; stroke: #1f77b4"/>
     <use xlink:href="#m5f82c9dcc5" x="173.872182" y="121.974581" style="fill: #1f77b4; stroke: #1f77b4"/>
     <use xlink:href="#m5f82c9dcc5" x="177.118727" y="209.136056" style="fill: #1f77b4; stroke: #1f77b4"/>
     <use xlink:href="#m5f82c9dcc5" x="180.365273" y="157.436742" style="fill: #1f77b4; stroke: #1f77b4"/>
     <use xlink:href="#m5f82c9dcc5" x="183.611818" y="179.976602" style="fill: #1f77b4; stroke: #1f77b4"/>
     <use xlink:href="#m5f82c9dcc5" x="186.858364" y="185.047599" style="fill: #1f77b4; stroke: #1f77b4"/>
     <use xlink:href="#m5f82c9dcc5" x="190.104909" y="150.72196" style="fill: #1f77b4; stroke: #1f77b4"/>
     <use xlink:href="#m5f82c9dcc5" x="193.351455" y="205.160514" style="fill: #1f77b4; stroke: #1f77b4"/>
     <use xlink:href="#m5f82c9dcc5" x="196.598" y="133.351189" style="fill: #1f77b4; stroke: #1f77b4"/>
     <use xlink:href="#m5f82c9dcc5" x="199.844545" y="206.666726" style="fill: #1f77b4; stroke: #1f77b4"/>
     <use xlink:href="#m5f82c9dcc5" x="203.091091" y="141.733021" style="fill: #1f77b4; stroke: #1f77b4"/>
     <use xlink:href="#m5f82c9dcc5" x="206.337636" y="183.274617" style="fill: #1f77b4; stroke: #1f77b4"/>
     <use xlink:href="#m5f82c9dcc5" x="209.584182" y="168.837745" style="fill: #1f77b4; stroke: #1f77b4"/>
     <use xlink:href="#m5f82c9dcc5" x="212.830727" y="156.559011" style="fill: #1f77b4; stroke: #1f77b4"/>
     <use xlink:href="#m5f82c9dcc5" x="216.077273" y="197.887712" style="fill: #1f77b4; stroke: #1f77b4"/>
     <use xlink:href="#m5f82c9dcc5" x="219.323818" y="147.494961" style="fill: #1f77b4; stroke: #1f77b4"/>
     <use xlink:href="#m5f82c9dcc5" x="222.570364" y="190.647963" style="fill: #1f77b4; stroke: #1f77b4"/>
     <use xlink:href="#m5f82c9dcc5" x="225.816909" y="149.837548" style="fill: #1f77b4; stroke: #1f77b4"/>
     <use xlink:href="#m5f82c9dcc5" x="229.063455" y="193.548455" style="fill: #1f77b4; stroke: #1f77b4"/>
     <use xlink:href="#m5f82c9dcc5" x="232.31" y="155.818603" style="fill: #1f77b4; stroke: #1f77b4"/>
     <use xlink:href="#m5f82c9dcc5" x="235.556545" y="177.174243" style="fill: #1f77b4; stroke: #1f77b4"/>
     <use xlink:href="#m5f82c9dcc5" x="238.803091" y="179.47003" style="fill: #1f77b4; stroke: #1f77b4"/>
     <use xlink:href="#m5f82c9dcc5" x="242.049636" y="154.648276" style="fill: #1f77b4; stroke: #1f77b4"/>
     <use xlink:href="#m5f82c9dcc5" x="245.296182" y="192.126481" style="fill: #1f77b4; stroke: #1f77b4"/>
     <use xlink:href="#m5f82c9dcc5" x="248.542727" y="158.021359" style="fill: #1f77b4; stroke: #1f77b4"/>
     <use xlink:href="#m5f82c9dcc5" x="251.789273" y="180.881796" style="fill: #1f77b4; stroke: #1f77b4"/>
     <use xlink:href="#m5f82c9dcc5" x="255.035818" y="168.179032" style="fill: #1f77b4; stroke: #1f77b4"/>
     <use xlink:href="#m5f82c9dcc5" x="258.282364" y="180.231577" style="fill: #1f77b4; stroke: #1f77b4"/>
     <use xlink:href="#m5f82c9dcc5" x="261.528909" y="177.068681" style="fill: #1f77b4; stroke: #1f77b4"/>
     <use xlink:href="#m5f82c9dcc5" x="264.775455" y="161.154683" style="fill: #1f77b4; stroke: #1f77b4"/>
     <use xlink:href="#m5f82c9dcc5" x="268.022" y="185.854765" style="fill: #1f77b4; stroke: #1f77b4"/>
     <use xlink:href="#m5f82c9dcc5" x="271.268545" y="154.195998" style="fill: #1f77b4; stroke: #1f77b4"/>
     <use xlink:href="#m5f82c9dcc5" x="274.515091" y="189.634733" style="fill: #1f77b4; stroke: #1f77b4"/>
     <use xlink:href="#m5f82c9dcc5" x="277.761636" y="165.090179" style="fill: #1f77b4; stroke: #1f77b4"/>
     <use xlink:href="#m5f82c9dcc5" x="281.008182" y="180.296832" style="fill: #1f77b4; stroke: #1f77b4"/>
     <use xlink:href="#m5f82c9dcc5" x="284.254727" y="169.375375" style="fill: #1f77b4; stroke: #1f77b4"/>
     <use xlink:href="#m5f82c9dcc5" x="287.501273" y="162.296963" style="fill: #1f77b4; stroke: #1f77b4"/>
     <use xlink:href="#m5f82c9dcc5" x="290.747818" y="171.882079" style="fill: #1f77b4; stroke: #1f77b4"/>
     <use xlink:href="#m5f82c9dcc5" x="293.994364" y="152.570809" style="fill: #1f77b4; stroke: #1f77b4"/>
     <use xlink:href="#m5f82c9dcc5" x="297.240909" y="187.379145" style="fill: #1f77b4; stroke: #1f77b4"/>
     <use xlink:href="#m5f82c9dcc5" x="300.487455" y="159.431385" style="fill: #1f77b4; stroke: #1f77b4"/>
     <use xlink:href="#m5f82c9dcc5" x="303.734" y="171.84826" style="fill: #1f77b4; stroke: #1f77b4"/>
     <use xlink:href="#m5f82c9dcc5" x="306.980545" y="169.579763" style="fill: #1f77b4; stroke: #1f77b4"/>
     <use xlink:href="#m5f82c9dcc5" x="310.227091" y="166.851911" style="fill: #1f77b4; stroke: #1f77b4"/>
     <use xlink:href="#m5f82c9dcc5" x="313.473636" y="175.624381" style="fill: #1f77b4; stroke: #1f77b4"/>
     <use xlink:href="#m5f82c9dcc5" x="316.720182" y="160.368462" style="fill: #1f77b4; stroke: #1f77b4"/>
     <use xlink:href="#m5f82c9dcc5" x="319.966727" y="175.663251" style="fill: #1f77b4; stroke: #1f77b4"/>
     <use xlink:href="#m5f82c9dcc5" x="323.213273" y="160.118205" style="fill: #1f77b4; stroke: #1f77b4"/>
     <use xlink:href="#m5f82c9dcc5" x="326.459818" y="172.800433" style="fill: #1f77b4; stroke: #1f77b4"/>
     <use xlink:href="#m5f82c9dcc5" x="329.706364" y="168.67909" style="fill: #1f77b4; stroke: #1f77b4"/>
     <use xlink:href="#m5f82c9dcc5" x="332.952909" y="175.545521" style="fill: #1f77b4; stroke: #1f77b4"/>
     <use xlink:href="#m5f82c9dcc5" x="336.199455" y="176.106029" style="fill: #1f77b4; stroke: #1f77b4"/>
     <use xlink:href="#m5f82c9dcc5" x="339.446" y="165.048485" style="fill: #1f77b4; stroke: #1f77b4"/>
     <use xlink:href="#m5f82c9dcc5" x="342.692545" y="181.389087" style="fill: #1f77b4; stroke: #1f77b4"/>
     <use xlink:href="#m5f82c9dcc5" x="345.939091" y="164.06426" style="fill: #1f77b4; stroke: #1f77b4"/>
     <use xlink:href="#m5f82c9dcc5" x="349.185636" y="171.365611" style="fill: #1f77b4; stroke: #1f77b4"/>
     <use xlink:href="#m5f82c9dcc5" x="352.432182" y="171.488141" style="fill: #1f77b4; stroke: #1f77b4"/>
     <use xlink:href="#m5f82c9dcc5" x="355.678727" y="176.147957" style="fill: #1f77b4; stroke: #1f77b4"/>
     <use xlink:href="#m5f82c9dcc5" x="358.925273" y="169.824747" style="fill: #1f77b4; stroke: #1f77b4"/>
     <use xlink:href="#m5f82c9dcc5" x="362.171818" y="165.965573" style="fill: #1f77b4; stroke: #1f77b4"/>
     <use xlink:href="#m5f82c9dcc5" x="365.418364" y="171.350393" style="fill: #1f77b4; stroke: #1f77b4"/>
     <use xlink:href="#m5f82c9dcc5" x="368.664909" y="160.604161" style="fill: #1f77b4; stroke: #1f77b4"/>
     <use xlink:href="#m5f82c9dcc5" x="371.911455" y="180.972001" style="fill: #1f77b4; stroke: #1f77b4"/>
     <use xlink:href="#m5f82c9dcc5" x="375.158" y="174.386638" style="fill: #1f77b4; stroke: #1f77b4"/>
     <use xlink:href="#m5f82c9dcc5" x="378.404545" y="170.400924" style="fill: #1f77b4; stroke: #1f77b4"/>
     <use xlink:href="#m5f82c9dcc5" x="381.651091" y="168.453073" style="fill: #1f77b4; stroke: #1f77b4"/>
     <use xlink:href="#m5f82c9dcc5" x="384.897636" y="164.434754" style="fill: #1f77b4; stroke: #1f77b4"/>
     <use xlink:href="#m5f82c9dcc5" x="388.144182" y="177.79383" style="fill: #1f77b4; stroke: #1f77b4"/>
     <use xlink:href="#m5f82c9dcc5" x="391.390727" y="163.412265" style="fill: #1f77b4; stroke: #1f77b4"/>
     <use xlink:href="#m5f82c9dcc5" x="394.637273" y="174.102647" style="fill: #1f77b4; stroke: #1f77b4"/>
    </g>
   </g>
   <g id="line2d_18">
    <path d="M 69.982727 72.207349 
L 70.632686 127.833909 
L 71.932604 255.639234 
L 72.257584 277.214504 
L 72.582563 290.913173 
L 72.907543 295.776 
L 73.232523 291.500752 
L 73.557502 278.460307 
L 74.207461 230.713192 
L 75.832359 80.845673 
L 76.157338 63.528192 
L 76.482318 54.322721 
L 76.807297 53.856 
L 77.132277 62.10702 
L 77.457256 78.412676 
L 78.107215 129.685595 
L 79.407133 248.746418 
L 79.732113 269.080507 
L 80.057093 282.145088 
L 80.382072 287.023783 
L 80.707052 283.40907 
L 81.032031 271.621081 
L 81.68199 227.734636 
L 83.306888 88.132005 
L 83.631867 71.738901 
L 83.956847 62.847072 
L 84.281826 62.064024 
L 84.606806 69.396043 
L 84.931785 84.251548 
L 85.581744 131.501819 
L 86.881663 242.400999 
L 87.206642 261.559128 
L 87.531622 274.009297 
L 87.856601 278.87683 
L 88.181581 275.851207 
L 88.50656 265.205352 
L 89.156519 224.878007 
L 90.781417 94.855255 
L 91.106396 79.344321 
L 91.431376 70.768787 
L 91.756355 69.716443 
L 92.081335 76.217127 
L 92.406314 89.744063 
L 93.056274 133.278147 
L 94.356192 236.560843 
L 94.681171 254.605354 
L 95.006151 266.461241 
L 95.33113 271.29432 
L 95.65611 268.793056 
L 95.981089 259.188205 
L 96.631048 222.141278 
L 98.255946 101.057762 
L 98.580925 86.38804 
L 98.905905 78.12948 
L 99.230885 76.849845 
L 99.555864 82.599168 
L 99.880844 94.909345 
L 100.530803 135.010951 
L 101.830721 231.186974 
L 102.48068 259.459431 
L 102.805659 264.238105 
L 103.130639 262.202606 
L 103.455618 253.546081 
L 104.105577 219.522086 
L 105.730475 106.778762 
L 106.055455 92.910576 
L 106.380434 84.967962 
L 106.705414 83.498485 
L 107.030393 88.569369 
L 107.355373 99.76559 
L 108.005332 136.697321 
L 109.30525 226.243344 
L 109.955209 252.965237 
L 110.280188 257.672548 
L 110.605168 256.049818 
L 110.930147 248.256715 
L 111.580106 217.01779 
L 113.205004 112.054605 
L 113.529984 98.949592 
L 113.854963 91.320424 
L 114.179943 89.694427 
L 114.504922 94.153333 
L 114.829902 104.330089 
L 115.479861 138.334979 
L 116.779779 221.696614 
L 117.429738 246.942695 
L 117.754717 251.564357 
L 118.079697 250.306506 
L 118.404676 243.299075 
L 118.729656 231.094739 
L 119.379615 195.131735 
L 120.679533 116.918967 
L 121.004513 104.540093 
L 121.329492 97.220614 
L 121.654472 95.467681 
L 121.979451 99.375146 
L 122.304431 108.619269 
L 122.95439 139.922203 
L 124.254308 217.515959 
L 124.904267 241.358334 
L 125.229247 245.882441 
L 125.554226 244.946235 
L 125.879206 238.653296 
L 126.204185 227.501175 
L 126.854144 194.318631 
L 128.154062 121.403037 
L 128.479042 109.714605 
L 128.804021 102.699991 
L 129.129001 100.84633 
L 129.45398 104.257464 
L 129.77896 112.648726 
L 130.428919 141.457764 
L 132.053817 226.989033 
L 132.378796 236.181001 
L 132.703776 240.597764 
L 133.028755 239.944212 
L 133.353735 234.30063 
L 133.678714 224.114407 
L 134.328673 193.503163 
L 135.628591 125.535699 
L 135.953571 114.503351 
L 136.27855 107.78788 
L 136.60353 105.856644 
L 136.928509 108.82159 
L 137.253489 116.433258 
L 137.903448 142.940865 
L 139.528346 222.661543 
L 139.853325 231.381707 
L 140.178305 235.683217 
L 140.503284 235.277192 
L 140.828264 230.223384 
L 141.153243 220.923563 
L 141.803202 192.68981 
L 143.10312 129.3437 
L 143.4281 118.934408 
L 143.753079 112.51161 
L 144.078059 110.523199 
L 144.403038 113.087553 
L 144.728018 119.986897 
L 145.377977 144.371082 
L 147.002875 218.665379 
L 147.327854 226.933481 
L 147.652834 231.113491 
L 147.977813 230.923385 
L 148.302793 226.404867 
L 148.627772 217.918251 
L 149.277731 191.882429 
L 150.577649 132.851803 
L 150.902629 123.033854 
L 151.227609 116.89665 
L 151.552588 114.86898 
L 151.877568 117.074173 
L 152.202547 123.322944 
L 152.852506 145.748321 
L 154.477404 214.975832 
L 154.802383 222.811232 
L 155.127363 226.864966 
L 155.452342 226.862368 
L 155.777322 222.829343 
L 156.102301 215.088547 
L 156.75226 191.084324 
L 158.052179 136.082927 
L 158.377158 126.825913 
L 158.702138 120.966728 
L 159.027117 118.915478 
L 159.352097 120.799138 
L 159.677076 126.453998 
L 160.327035 147.072769 
L 161.951933 211.56999 
L 162.276912 218.991621 
L 162.601892 222.915595 
L 162.926871 223.075007 
L 163.251851 219.481975 
L 163.57683 212.424982 
L 164.22679 190.298302 
L 165.526708 139.058289 
L 165.851687 130.333076 
L 166.176667 124.743952 
L 166.501646 122.682786 
L 166.826626 124.279058 
L 167.151605 129.39199 
L 167.801564 148.344857 
L 169.426462 208.426615 
L 169.751441 215.452941 
L 170.076421 219.244807 
L 170.4014 219.543373 
L 170.72638 216.348785 
L 171.05136 209.91853 
L 171.701319 189.526725 
L 173.001237 141.797521 
L 173.326216 133.576229 
L 173.651196 128.248913 
L 173.976175 126.189687 
L 174.301155 127.529536 
L 174.626134 132.148211 
L 175.276093 149.565225 
L 176.900991 205.526017 
L 177.225971 212.175007 
L 177.55095 215.833411 
L 177.87593 216.250675 
L 178.200909 213.416604 
L 178.525889 207.56059 
L 179.175848 188.771561 
L 180.475766 144.318787 
L 180.800745 136.574761 
L 181.125725 131.500787 
L 181.450704 129.453734 
L 181.775684 130.565221 
L 182.100663 134.733344 
L 182.750622 150.734689 
L 184.37552 202.849952 
L 184.7005 209.139051 
L 185.025479 212.663503 
L 185.350459 213.181188 
L 185.675438 210.673027 
L 186.000418 205.342976 
L 186.650377 188.034426 
L 187.950295 146.638891 
L 188.600254 134.517434 
L 188.925233 132.491333 
L 189.250213 133.399862 
L 189.575192 137.157489 
L 190.225152 151.854213 
L 191.850049 200.38151 
L 192.175029 206.327627 
L 192.500008 209.718385 
L 192.824988 210.320189 
L 193.149967 208.106381 
L 193.474947 203.257898 
L 194.124906 187.316625 
L 195.424824 148.773376 
L 196.074783 137.31548 
L 196.399762 135.31781 
L 196.724742 136.046365 
L 197.049722 139.430192 
L 197.699681 152.924886 
L 199.324578 198.105025 
L 199.649558 203.724515 
L 199.974537 206.982486 
L 200.299517 207.653895 
L 200.624496 205.705675 
L 200.949476 201.297954 
L 201.599435 186.619187 
L 202.899353 150.736618 
L 203.549312 139.910406 
L 203.874292 137.947481 
L 204.199271 138.516835 
L 204.524251 141.560473 
L 204.84923 146.83849 
L 205.499189 162.353337 
L 206.799107 196.005984 
L 207.124087 201.314642 
L 207.449066 204.441285 
L 207.774046 205.169406 
L 208.099025 203.460568 
L 208.424005 199.456109 
L 209.073964 185.942896 
L 210.373882 152.541908 
L 211.023841 142.316621 
L 211.348821 140.393719 
L 211.6738 140.822632 
L 211.99878 143.556852 
L 212.323759 148.380341 
L 212.973718 162.696357 
L 214.273636 194.070943 
L 214.598616 199.084 
L 214.923595 202.081245 
L 215.248575 202.85465 
L 215.573554 201.361336 
L 215.898534 197.725682 
L 216.548493 185.288322 
L 218.173391 148.484628 
L 218.49837 144.547534 
L 218.82335 142.669013 
L 219.148329 142.974405 
L 219.473309 145.42737 
L 219.798288 149.833586 
L 220.448247 163.040908 
L 221.748165 192.287453 
L 222.073145 197.019574 
L 222.398124 199.889748 
L 222.723104 200.698333 
L 223.048084 199.39883 
L 223.373063 196.100335 
L 224.023022 184.655847 
L 225.64792 150.351169 
L 225.972899 146.615625 
L 226.297879 144.785022 
L 226.622858 144.982145 
L 226.947838 147.179617 
L 227.272817 151.202874 
L 227.922776 163.385026 
L 229.222695 190.643986 
L 229.547674 195.109273 
L 229.872654 197.855034 
L 230.197633 198.689891 
L 230.522613 197.564453 
L 230.847592 194.574056 
L 231.497551 184.04569 
L 233.122449 152.07488 
L 233.447428 148.532506 
L 233.772408 146.752633 
L 234.097387 146.855212 
L 234.422367 148.820752 
L 234.747346 152.492647 
L 235.397305 163.727014 
L 236.697224 189.129867 
L 237.022203 193.341862 
L 237.347183 195.966142 
L 237.672162 196.81944 
L 237.997142 195.850121 
L 238.322121 193.141147 
L 238.97208 183.457922 
L 240.596978 153.666408 
L 240.921957 150.308978 
L 241.246937 148.582006 
L 241.571916 148.602382 
L 241.896896 150.357528 
L 242.221876 153.707149 
L 242.871835 164.065421 
L 244.171753 187.735215 
L 244.496732 191.706912 
L 244.821712 194.21286 
L 245.146691 195.077741 
L 245.471671 194.24824 
L 245.79665 191.796207 
L 246.446609 182.892495 
L 248.071507 155.135625 
L 248.396486 151.955091 
L 248.721466 150.282625 
L 249.046446 150.231879 
L 249.371425 151.79631 
L 249.696405 154.850432 
L 250.346364 164.399007 
L 251.646282 186.450885 
L 251.971261 190.194732 
L 252.296241 192.585676 
L 252.62122 193.456154 
L 252.9462 192.751676 
L 253.271179 190.534124 
L 253.921138 182.349251 
L 255.546036 156.491683 
L 255.871016 153.480189 
L 256.195995 151.863339 
L 256.520975 151.751407 
L 256.845954 153.143097 
L 257.170934 155.926356 
L 257.820893 164.726729 
L 259.120811 185.268414 
L 259.44579 188.796327 
L 259.77077 191.075726 
L 260.095749 191.946603 
L 260.420729 191.353728 
L 260.745708 189.350058 
L 261.395667 181.827941 
L 263.020565 157.743066 
L 263.345545 154.892964 
L 263.670524 153.332405 
L 263.995504 153.168182 
L 264.320483 154.403541 
L 264.645463 156.938603 
L 265.295422 165.047713 
L 266.59534 184.179969 
L 266.920319 187.503346 
L 267.245299 189.674757 
L 267.570278 190.541539 
L 267.895258 190.048105 
L 268.220238 188.239429 
L 268.870197 181.328237 
L 270.495094 158.897637 
L 270.820074 156.201496 
L 271.145053 154.697525 
L 271.470033 154.488962 
L 271.795012 155.582963 
L 272.119992 157.890676 
L 272.769951 165.36124 
L 274.069869 183.178308 
L 274.719828 188.375083 
L 275.044808 189.233908 
L 275.369787 188.8289 
L 275.694767 187.197907 
L 276.344726 180.849749 
L 277.969623 159.962683 
L 278.294603 157.413299 
L 278.619582 155.965882 
L 278.944562 155.720077 
L 279.269541 156.686376 
L 279.594521 158.785909 
L 280.24448 165.666726 
L 281.544398 182.256727 
L 282.194357 187.169546 
L 282.519337 188.017119 
L 282.844316 187.69057 
L 283.169296 186.221399 
L 283.819255 180.392027 
L 285.444152 160.944956 
L 285.769132 158.535357 
L 286.094111 157.144178 
L 286.419091 156.867451 
L 286.74407 157.718497 
L 287.06905 159.627472 
L 287.719009 165.963709 
L 289.018927 181.409028 
L 289.668886 186.051483 
L 289.993866 186.885014 
L 290.318845 186.627914 
L 290.643825 185.306037 
L 291.293784 179.954581 
L 292.918681 161.85071 
L 293.243661 159.57416 
L 293.56864 158.238659 
L 293.89362 157.936627 
L 294.2186 158.683764 
L 294.543579 160.418378 
L 295.193538 166.251831 
L 296.493456 180.629481 
L 297.143415 185.014692 
L 297.468395 185.831844 
L 297.793374 185.636053 
L 298.118354 184.448166 
L 298.443333 182.361981 
L 299.093292 176.185669 
L 300.39321 162.68574 
L 300.71819 160.535741 
L 301.04317 159.25515 
L 301.368149 158.932796 
L 301.693129 159.586353 
L 302.018108 161.161488 
L 302.668067 166.530829 
L 304.292965 182.367132 
L 304.617944 184.053401 
L 304.942924 184.852235 
L 305.267903 184.710411 
L 305.592883 183.644339 
L 305.917862 181.738414 
L 306.567821 176.040144 
L 307.86774 163.455411 
L 308.192719 161.425705 
L 308.517699 160.199081 
L 308.842678 159.860814 
L 309.167658 160.430192 
L 309.492637 161.859516 
L 310.142596 166.800522 
L 311.767494 181.562061 
L 312.092473 183.162236 
L 312.417453 183.941173 
L 312.742432 183.846696 
L 313.067412 182.891299 
L 313.392391 181.150824 
L 314.042351 175.894601 
L 315.342269 164.164694 
L 315.667248 162.249259 
L 315.992228 161.075513 
L 316.317207 160.725221 
L 316.642187 161.218971 
L 316.967166 162.515039 
L 317.617125 167.060802 
L 319.242023 180.818562 
L 319.567002 182.336199 
L 319.891982 183.093976 
L 320.216962 183.040885 
L 320.541941 182.185975 
L 320.866921 180.597311 
L 321.51688 175.749783 
L 322.816798 164.818188 
L 323.141777 163.011242 
L 323.466757 161.889161 
L 323.791736 161.530267 
L 324.116716 161.956163 
L 324.441695 163.130497 
L 325.091654 167.311622 
L 326.716552 180.132046 
L 327.041532 181.570641 
L 327.366511 182.306273 
L 327.691491 182.289207 
L 328.01647 181.52547 
L 328.34145 180.076059 
L 328.991409 175.60633 
L 330.291327 165.420153 
L 330.616306 163.716145 
L 330.941286 162.644421 
L 331.266265 162.279925 
L 331.591245 162.645027 
L 331.916224 163.708205 
L 332.566183 167.552991 
L 334.191081 179.498261 
L 334.516061 180.861233 
L 334.84104 181.573985 
L 335.16602 181.588129 
L 335.490999 180.907053 
L 335.815979 179.585337 
L 336.465938 175.464789 
L 337.765856 165.974533 
L 338.090835 164.368144 
L 338.415815 163.345387 
L 338.740794 162.977909 
L 339.065774 163.288628 
L 339.390753 164.250354 
L 340.040713 167.784965 
L 341.66561 178.913262 
L 341.99059 180.203954 
L 342.315569 180.893304 
L 342.640549 180.934341 
L 342.965528 180.32815 
L 343.290508 179.123493 
L 343.940467 175.325619 
L 345.240385 166.484974 
L 345.565364 164.971111 
L 345.890344 163.995873 
L 346.215324 163.627692 
L 346.540303 163.889843 
L 346.865283 164.759019 
L 347.515242 168.007639 
L 349.140139 178.373394 
L 349.465119 179.59506 
L 349.790098 180.260679 
L 350.115078 180.324739 
L 350.440057 179.786336 
L 350.765037 178.68895 
L 351.414996 175.189209 
L 352.714914 166.954854 
L 353.364873 164.599431 
L 353.689853 164.23252 
L 354.014832 164.451376 
L 354.339812 165.236163 
L 354.989771 168.221144 
L 356.614668 177.875268 
L 356.939648 179.031073 
L 357.264627 179.672796 
L 357.589607 179.756421 
L 357.914586 179.279326 
L 358.239566 178.280211 
L 358.889525 175.055878 
L 360.189443 167.387296 
L 360.839402 165.15937 
L 361.164382 164.795426 
L 361.489361 164.975761 
L 361.814341 165.683641 
L 362.4643 168.425638 
L 364.089197 177.415744 
L 364.414177 178.508756 
L 364.739156 179.126564 
L 365.064136 179.226666 
L 365.389115 178.804969 
L 365.714095 177.895847 
L 366.364054 174.925886 
L 367.663972 167.78519 
L 368.313931 165.678771 
L 368.638911 165.319245 
L 368.96389 165.465382 
L 369.28887 166.10321 
L 369.938829 168.621306 
L 371.563726 176.991912 
L 371.888706 178.025104 
L 372.213686 178.619101 
L 372.538665 178.732927 
L 372.863645 178.361241 
L 373.188624 177.534502 
L 373.838583 174.799442 
L 375.138501 168.151207 
L 375.78846 166.1605 
L 376.11344 165.806625 
L 376.438419 165.922471 
L 376.763399 166.496527 
L 377.413358 168.808351 
L 379.038256 176.601077 
L 379.363235 177.577321 
L 379.688215 178.147718 
L 380.013194 178.272821 
L 380.338174 177.946236 
L 380.663153 177.194885 
L 381.313112 174.676708 
L 382.61303 168.48782 
L 383.262989 166.607229 
L 383.587969 166.260039 
L 383.912948 166.349126 
L 384.237928 166.865161 
L 384.887887 168.986992 
L 386.837764 177.162808 
L 387.162744 177.70991 
L 387.487723 177.844117 
L 387.812703 177.558161 
L 388.137682 176.875771 
L 388.787641 174.557805 
L 390.412539 167.743648 
L 390.737518 167.021442 
L 391.062498 166.681798 
L 391.387477 166.747312 
L 391.712457 167.210589 
L 392.362416 169.157462 
L 394.312293 176.779153 
L 394.637273 177.303339 
L 394.637273 177.303339 
" clip-path="url(#p330e702e69)" style="fill: none; stroke: #d62728; stroke-width: 1.5; stroke-linecap: square"/>
   </g>
   <g id="patch_3">
    <path d="M 53.75 307.872 
L 53.75 41.76 
" style="fill: none; stroke: #000000; stroke-width: 0.8; stroke-linejoin: miter; stroke-linecap: square"/>
   </g>
   <g id="patch_4">
    <path d="M 410.87 307.872 
L 410.87 41.76 
" style="fill: none; stroke: #000000; stroke-width: 0.8; stroke-linejoin: miter; stroke-linecap: square"/>
   </g>
   <g id="patch_5">
    <path d="M 53.75 307.872 
L 410.87 307.872 
" style="fill: none; stroke: #000000; stroke-width: 0.8; stroke-linejoin: miter; stroke-linecap: square"/>
   </g>
   <g id="patch_6">
    <path d="M 53.75 41.76 
L 410.87 41.76 
" style="fill: none; stroke: #000000; stroke-width: 0.8; stroke-linejoin: miter; stroke-linecap: square"/>
   </g>
   <g id="text_19">
    <g id="patch_7">
     <path d="M 428.726 138.497163 
L 616.826 138.497163 
Q 620.826 138.497163 620.826 134.497163 
L 620.826 55.0656 
Q 620.826 51.0656 616.826 51.0656 
L 428.726 51.0656 
Q 424.726 51.0656 424.726 55.0656 
L 424.726 134.497163 
Q 424.726 138.497163 428.726 138.497163 
z
" style="fill: #ffffff; opacity: 0.5; stroke: #000000; stroke-linejoin: miter"/>
    </g>
    <!-- Summary -->
    <g transform="translate(428.726 62.664038) scale(0.1 -0.1)">
     <defs>
      <path id="DejaVuSans-53" d="M 3425 4513 
L 3425 3897 
Q 3066 4069 2747 4153 
Q 2428 4238 2131 4238 
Q 1616 4238 1336 4038 
Q 1056 3838 1056 3469 
Q 1056 3159 1242 3001 
Q 1428 2844 1947 2747 
L 2328 2669 
Q 3034 2534 3370 2195 
Q 3706 1856 3706 1288 
Q 3706 609 3251 259 
Q 2797 -91 1919 -91 
Q 1588 -91 1214 -16 
Q 841 59 441 206 
L 441 856 
Q 825 641 1194 531 
Q 1563 422 1919 422 
Q 2459 422 2753 634 
Q 3047 847 3047 1241 
Q 3047 1584 2836 1778 
Q 2625 1972 2144 2069 
L 1759 2144 
Q 1053 2284 737 2584 
Q 422 2884 422 3419 
Q 422 4038 858 4394 
Q 1294 4750 2059 4750 
Q 2388 4750 2728 4690 
Q 3069 4631 3425 4513 
z
" transform="scale(0.015625)"/>
      <path id="DejaVuSans-72" d="M 2631 2963 
Q 2534 3019 2420 3045 
Q 2306 3072 2169 3072 
Q 1681 3072 1420 2755 
Q 1159 2438 1159 1844 
L 1159 0 
L 581 0 
L 581 3500 
L 1159 3500 
L 1159 2956 
Q 1341 3275 1631 3429 
Q 1922 3584 2338 3584 
Q 2397 3584 2469 3576 
Q 2541 3569 2628 3553 
L 2631 2963 
z
" transform="scale(0.015625)"/>
      <path id="DejaVuSans-79" d="M 2059 -325 
Q 1816 -950 1584 -1140 
Q 1353 -1331 966 -1331 
L 506 -1331 
L 506 -850 
L 844 -850 
Q 1081 -850 1212 -737 
Q 1344 -625 1503 -206 
L 1606 56 
L 191 3500 
L 800 3500 
L 1894 763 
L 2988 3500 
L 3597 3500 
L 2059 -325 
z
" transform="scale(0.015625)"/>
     </defs>
     <use xlink:href="#DejaVuSans-53"/>
     <use xlink:href="#DejaVuSans-75" x="63.476562"/>
     <use xlink:href="#DejaVuSans-6d" x="126.855469"/>
     <use xlink:href="#DejaVuSans-6d" x="224.267578"/>
     <use xlink:href="#DejaVuSans-61" x="321.679688"/>
     <use xlink:href="#DejaVuSans-72" x="382.958984"/>
     <use xlink:href="#DejaVuSans-79" x="424.072266"/>
    </g>
    <!-- $T_2^*$: 5.04$\pm$0.19 μs -->
    <g transform="translate(428.726 75.663725) scale(0.1 -0.1)">
     <defs>
      <path id="DejaVuSans-Oblique-54" d="M 378 4666 
L 4325 4666 
L 4225 4134 
L 2559 4134 
L 1759 0 
L 1125 0 
L 1925 4134 
L 275 4134 
L 378 4666 
z
" transform="scale(0.015625)"/>
      <path id="DejaVuSans-2a" d="M 3009 3897 
L 1888 3291 
L 3009 2681 
L 2828 2375 
L 1778 3009 
L 1778 1831 
L 1422 1831 
L 1422 3009 
L 372 2375 
L 191 2681 
L 1313 3291 
L 191 3897 
L 372 4206 
L 1422 3572 
L 1422 4750 
L 1778 4750 
L 1778 3572 
L 2828 4206 
L 3009 3897 
z
" transform="scale(0.015625)"/>
      <path id="DejaVuSans-3a" d="M 750 794 
L 1409 794 
L 1409 0 
L 750 0 
L 750 794 
z
M 750 3309 
L 1409 3309 
L 1409 2516 
L 750 2516 
L 750 3309 
z
" transform="scale(0.015625)"/>
      <path id="DejaVuSans-2e" d="M 684 794 
L 1344 794 
L 1344 0 
L 684 0 
L 684 794 
z
" transform="scale(0.015625)"/>
      <path id="DejaVuSans-b1" d="M 2944 4013 
L 2944 2803 
L 4684 2803 
L 4684 2272 
L 2944 2272 
L 2944 1063 
L 2419 1063 
L 2419 2272 
L 678 2272 
L 678 2803 
L 2419 2803 
L 2419 4013 
L 2944 4013 
z
M 678 531 
L 4684 531 
L 4684 0 
L 678 0 
L 678 531 
z
" transform="scale(0.015625)"/>
      <path id="DejaVuSans-39" d="M 703 97 
L 703 672 
Q 941 559 1184 500 
Q 1428 441 1663 441 
Q 2288 441 2617 861 
Q 2947 1281 2994 2138 
Q 2813 1869 2534 1725 
Q 2256 1581 1919 1581 
Q 1219 1581 811 2004 
Q 403 2428 403 3163 
Q 403 3881 828 4315 
Q 1253 4750 1959 4750 
Q 2769 4750 3195 4129 
Q 3622 3509 3622 2328 
Q 3622 1225 3098 567 
Q 2575 -91 1691 -91 
Q 1453 -91 1209 -44 
Q 966 3 703 97 
z
M 1959 2075 
Q 2384 2075 2632 2365 
Q 2881 2656 2881 3163 
Q 2881 3666 2632 3958 
Q 2384 4250 1959 4250 
Q 1534 4250 1286 3958 
Q 1038 3666 1038 3163 
Q 1038 2656 1286 2365 
Q 1534 2075 1959 2075 
z
" transform="scale(0.015625)"/>
     </defs>
     <use xlink:href="#DejaVuSans-Oblique-54" transform="translate(0 0.765625)"/>
     <use xlink:href="#DejaVuSans-2a" transform="translate(81.738451 39.046875) scale(0.7)"/>
     <use xlink:href="#DejaVuSans-32" transform="translate(61.083984 -26.578125) scale(0.7)"/>
     <use xlink:href="#DejaVuSans-3a" transform="translate(133.110521 0.765625)"/>
     <use xlink:href="#DejaVuSans-20" transform="translate(166.801927 0.765625)"/>
     <use xlink:href="#DejaVuSans-35" transform="translate(198.589036 0.765625)"/>
     <use xlink:href="#DejaVuSans-2e" transform="translate(262.212083 0.765625)"/>
     <use xlink:href="#DejaVuSans-30" transform="translate(293.999193 0.765625)"/>
     <use xlink:href="#DejaVuSans-34" transform="translate(357.62224 0.765625)"/>
     <use xlink:href="#DejaVuSans-b1" transform="translate(421.245286 0.765625)"/>
     <use xlink:href="#DejaVuSans-30" transform="translate(505.034349 0.765625)"/>
     <use xlink:href="#DejaVuSans-2e" transform="translate(568.657396 0.765625)"/>
     <use xlink:href="#DejaVuSans-31" transform="translate(600.444505 0.765625)"/>
     <use xlink:href="#DejaVuSans-39" transform="translate(664.067552 0.765625)"/>
     <use xlink:href="#DejaVuSans-20" transform="translate(727.690599 0.765625)"/>
     <use xlink:href="#DejaVuSans-3bc" transform="translate(759.477708 0.765625)"/>
     <use xlink:href="#DejaVuSans-73" transform="translate(823.100755 0.765625)"/>
    </g>
    <!--  -->
    <g transform="translate(428.726 87.58185) scale(0.1 -0.1)"/>
    <!-- artificial detuning: 200 kHz -->
    <g transform="translate(428.726 98.779663) scale(0.1 -0.1)">
     <defs>
      <path id="DejaVuSans-66" d="M 2375 4863 
L 2375 4384 
L 1825 4384 
Q 1516 4384 1395 4259 
Q 1275 4134 1275 3809 
L 1275 3500 
L 2222 3500 
L 2222 3053 
L 1275 3053 
L 1275 0 
L 697 0 
L 697 3053 
L 147 3053 
L 147 3500 
L 697 3500 
L 697 3744 
Q 697 4328 969 4595 
Q 1241 4863 1831 4863 
L 2375 4863 
z
" transform="scale(0.015625)"/>
      <path id="DejaVuSans-63" d="M 3122 3366 
L 3122 2828 
Q 2878 2963 2633 3030 
Q 2388 3097 2138 3097 
Q 1578 3097 1268 2742 
Q 959 2388 959 1747 
Q 959 1106 1268 751 
Q 1578 397 2138 397 
Q 2388 397 2633 464 
Q 2878 531 3122 666 
L 3122 134 
Q 2881 22 2623 -34 
Q 2366 -91 2075 -91 
Q 1284 -91 818 406 
Q 353 903 353 1747 
Q 353 2603 823 3093 
Q 1294 3584 2113 3584 
Q 2378 3584 2631 3529 
Q 2884 3475 3122 3366 
z
" transform="scale(0.015625)"/>
      <path id="DejaVuSans-6c" d="M 603 4863 
L 1178 4863 
L 1178 0 
L 603 0 
L 603 4863 
z
" transform="scale(0.015625)"/>
      <path id="DejaVuSans-6b" d="M 581 4863 
L 1159 4863 
L 1159 1991 
L 2875 3500 
L 3609 3500 
L 1753 1863 
L 3688 0 
L 2938 0 
L 1159 1709 
L 1159 0 
L 581 0 
L 581 4863 
z
" transform="scale(0.015625)"/>
      <path id="DejaVuSans-48" d="M 628 4666 
L 1259 4666 
L 1259 2753 
L 3553 2753 
L 3553 4666 
L 4184 4666 
L 4184 0 
L 3553 0 
L 3553 2222 
L 1259 2222 
L 1259 0 
L 628 0 
L 628 4666 
z
" transform="scale(0.015625)"/>
      <path id="DejaVuSans-7a" d="M 353 3500 
L 3084 3500 
L 3084 2975 
L 922 459 
L 3084 459 
L 3084 0 
L 275 0 
L 275 525 
L 2438 3041 
L 353 3041 
L 353 3500 
z
" transform="scale(0.015625)"/>
     </defs>
     <use xlink:href="#DejaVuSans-61"/>
     <use xlink:href="#DejaVuSans-72" x="61.279297"/>
     <use xlink:href="#DejaVuSans-74" x="102.392578"/>
     <use xlink:href="#DejaVuSans-69" x="141.601562"/>
     <use xlink:href="#DejaVuSans-66" x="169.384766"/>
     <use xlink:href="#DejaVuSans-69" x="204.589844"/>
     <use xlink:href="#DejaVuSans-63" x="232.373047"/>
     <use xlink:href="#DejaVuSans-69" x="287.353516"/>
     <use xlink:href="#DejaVuSans-61" x="315.136719"/>
     <use xlink:href="#DejaVuSans-6c" x="376.416016"/>
     <use xlink:href="#DejaVuSans-20" x="404.199219"/>
     <use xlink:href="#DejaVuSans-64" x="435.986328"/>
     <use xlink:href="#DejaVuSans-65" x="499.462891"/>
     <use xlink:href="#DejaVuSans-74" x="560.986328"/>
     <use xlink:href="#DejaVuSans-75" x="600.195312"/>
     <use xlink:href="#DejaVuSans-6e" x="663.574219"/>
     <use xlink:href="#DejaVuSans-69" x="726.953125"/>
     <use xlink:href="#DejaVuSans-6e" x="754.736328"/>
     <use xlink:href="#DejaVuSans-67" x="818.115234"/>
     <use xlink:href="#DejaVuSans-3a" x="881.591797"/>
     <use xlink:href="#DejaVuSans-20" x="915.283203"/>
     <use xlink:href="#DejaVuSans-32" x="947.070312"/>
     <use xlink:href="#DejaVuSans-30" x="1010.693359"/>
     <use xlink:href="#DejaVuSans-30" x="1074.316406"/>
     <use xlink:href="#DejaVuSans-20" x="1137.939453"/>
     <use xlink:href="#DejaVuSans-6b" x="1169.726562"/>
     <use xlink:href="#DejaVuSans-48" x="1227.636719"/>
     <use xlink:href="#DejaVuSans-7a" x="1302.832031"/>
    </g>
    <!-- fitted detuning: 2.7097$\pm$0.0013 MHz -->
    <g transform="translate(428.726 109.97935) scale(0.1 -0.1)">
     <defs>
      <path id="DejaVuSans-37" d="M 525 4666 
L 3525 4666 
L 3525 4397 
L 1831 0 
L 1172 0 
L 2766 4134 
L 525 4134 
L 525 4666 
z
" transform="scale(0.015625)"/>
     </defs>
     <use xlink:href="#DejaVuSans-66" transform="translate(0 0.015625)"/>
     <use xlink:href="#DejaVuSans-69" transform="translate(35.205078 0.015625)"/>
     <use xlink:href="#DejaVuSans-74" transform="translate(62.988281 0.015625)"/>
     <use xlink:href="#DejaVuSans-74" transform="translate(102.197266 0.015625)"/>
     <use xlink:href="#DejaVuSans-65" transform="translate(141.40625 0.015625)"/>
     <use xlink:href="#DejaVuSans-64" transform="translate(202.929688 0.015625)"/>
     <use xlink:href="#DejaVuSans-20" transform="translate(266.40625 0.015625)"/>
     <use xlink:href="#DejaVuSans-64" transform="translate(298.193359 0.015625)"/>
     <use xlink:href="#DejaVuSans-65" transform="translate(361.669922 0.015625)"/>
     <use xlink:href="#DejaVuSans-74" transform="translate(423.193359 0.015625)"/>
     <use xlink:href="#DejaVuSans-75" transform="translate(462.402344 0.015625)"/>
     <use xlink:href="#DejaVuSans-6e" transform="translate(525.78125 0.015625)"/>
     <use xlink:href="#DejaVuSans-69" transform="translate(589.160156 0.015625)"/>
     <use xlink:href="#DejaVuSans-6e" transform="translate(616.943359 0.015625)"/>
     <use xlink:href="#DejaVuSans-67" transform="translate(680.322266 0.015625)"/>
     <use xlink:href="#DejaVuSans-3a" transform="translate(743.798828 0.015625)"/>
     <use xlink:href="#DejaVuSans-20" transform="translate(777.490234 0.015625)"/>
     <use xlink:href="#DejaVuSans-32" transform="translate(809.277344 0.015625)"/>
     <use xlink:href="#DejaVuSans-2e" transform="translate(872.900391 0.015625)"/>
     <use xlink:href="#DejaVuSans-37" transform="translate(896.9375 0.015625)"/>
     <use xlink:href="#DejaVuSans-30" transform="translate(960.560547 0.015625)"/>
     <use xlink:href="#DejaVuSans-39" transform="translate(1024.183594 0.015625)"/>
     <use xlink:href="#DejaVuSans-37" transform="translate(1087.806641 0.015625)"/>
     <use xlink:href="#DejaVuSans-b1" transform="translate(1151.429688 0.015625)"/>
     <use xlink:href="#DejaVuSans-30" transform="translate(1235.21875 0.015625)"/>
     <use xlink:href="#DejaVuSans-2e" transform="translate(1298.841797 0.015625)"/>
     <use xlink:href="#DejaVuSans-30" transform="translate(1330.628906 0.015625)"/>
     <use xlink:href="#DejaVuSans-30" transform="translate(1394.251953 0.015625)"/>
     <use xlink:href="#DejaVuSans-31" transform="translate(1457.875 0.015625)"/>
     <use xlink:href="#DejaVuSans-33" transform="translate(1521.498047 0.015625)"/>
     <use xlink:href="#DejaVuSans-20" transform="translate(1585.121094 0.015625)"/>
     <use xlink:href="#DejaVuSans-4d" transform="translate(1616.908203 0.015625)"/>
     <use xlink:href="#DejaVuSans-48" transform="translate(1703.1875 0.015625)"/>
     <use xlink:href="#DejaVuSans-7a" transform="translate(1778.382812 0.015625)"/>
    </g>
    <!-- actual detuning: 2.5097$\pm$0.0013 MHz -->
    <g transform="translate(428.726 121.19935) scale(0.1 -0.1)">
     <use xlink:href="#DejaVuSans-61" transform="translate(0 0.015625)"/>
     <use xlink:href="#DejaVuSans-63" transform="translate(61.279297 0.015625)"/>
     <use xlink:href="#DejaVuSans-74" transform="translate(116.259766 0.015625)"/>
     <use xlink:href="#DejaVuSans-75" transform="translate(155.46875 0.015625)"/>
     <use xlink:href="#DejaVuSans-61" transform="translate(218.847656 0.015625)"/>
     <use xlink:href="#DejaVuSans-6c" transform="translate(280.126953 0.015625)"/>
     <use xlink:href="#DejaVuSans-20" transform="translate(307.910156 0.015625)"/>
     <use xlink:href="#DejaVuSans-64" transform="translate(339.697266 0.015625)"/>
     <use xlink:href="#DejaVuSans-65" transform="translate(403.173828 0.015625)"/>
     <use xlink:href="#DejaVuSans-74" transform="translate(464.697266 0.015625)"/>
     <use xlink:href="#DejaVuSans-75" transform="translate(503.90625 0.015625)"/>
     <use xlink:href="#DejaVuSans-6e" transform="translate(567.285156 0.015625)"/>
     <use xlink:href="#DejaVuSans-69" transform="translate(630.664062 0.015625)"/>
     <use xlink:href="#DejaVuSans-6e" transform="translate(658.447266 0.015625)"/>
     <use xlink:href="#DejaVuSans-67" transform="translate(721.826172 0.015625)"/>
     <use xlink:href="#DejaVuSans-3a" transform="translate(785.302734 0.015625)"/>
     <use xlink:href="#DejaVuSans-20" transform="translate(818.994141 0.015625)"/>
     <use xlink:href="#DejaVuSans-32" transform="translate(850.78125 0.015625)"/>
     <use xlink:href="#DejaVuSans-2e" transform="translate(914.404297 0.015625)"/>
     <use xlink:href="#DejaVuSans-35" transform="translate(946.191406 0.015625)"/>
     <use xlink:href="#DejaVuSans-30" transform="translate(1009.814453 0.015625)"/>
     <use xlink:href="#DejaVuSans-39" transform="translate(1073.4375 0.015625)"/>
     <use xlink:href="#DejaVuSans-37" transform="translate(1137.060547 0.015625)"/>
     <use xlink:href="#DejaVuSans-b1" transform="translate(1200.683594 0.015625)"/>
     <use xlink:href="#DejaVuSans-30" transform="translate(1284.472656 0.015625)"/>
     <use xlink:href="#DejaVuSans-2e" transform="translate(1348.095703 0.015625)"/>
     <use xlink:href="#DejaVuSans-30" transform="translate(1379.882812 0.015625)"/>
     <use xlink:href="#DejaVuSans-30" transform="translate(1443.505859 0.015625)"/>
     <use xlink:href="#DejaVuSans-31" transform="translate(1507.128906 0.015625)"/>
     <use xlink:href="#DejaVuSans-33" transform="translate(1570.751953 0.015625)"/>
     <use xlink:href="#DejaVuSans-20" transform="translate(1634.375 0.015625)"/>
     <use xlink:href="#DejaVuSans-4d" transform="translate(1666.162109 0.015625)"/>
     <use xlink:href="#DejaVuSans-48" transform="translate(1752.441406 0.015625)"/>
     <use xlink:href="#DejaVuSans-7a" transform="translate(1827.636719 0.015625)"/>
    </g>
    <!--  -->
    <g transform="translate(428.726 132.417475) scale(0.1 -0.1)"/>
   </g>
  </g>
  <g id="text_20">
   <!--  ramsey -->
   <g transform="translate(202.286563 16.318125) scale(0.12 -0.12)">
    <use xlink:href="#DejaVuSans-20"/>
    <use xlink:href="#DejaVuSans-72" x="31.787109"/>
    <use xlink:href="#DejaVuSans-61" x="72.900391"/>
    <use xlink:href="#DejaVuSans-6d" x="134.179688"/>
    <use xlink:href="#DejaVuSans-73" x="231.591797"/>
    <use xlink:href="#DejaVuSans-65" x="283.691406"/>
    <use xlink:href="#DejaVuSans-79" x="345.214844"/>
   </g>
   <!-- tuid: 20240104-163335-739-3ae48b -->
   <g transform="translate(116.969375 29.7555) scale(0.12 -0.12)">
    <defs>
     <path id="DejaVuSans-2d" d="M 313 2009 
L 1997 2009 
L 1997 1497 
L 313 1497 
L 313 2009 
z
" transform="scale(0.015625)"/>
     <path id="DejaVuSans-62" d="M 3116 1747 
Q 3116 2381 2855 2742 
Q 2594 3103 2138 3103 
Q 1681 3103 1420 2742 
Q 1159 2381 1159 1747 
Q 1159 1113 1420 752 
Q 1681 391 2138 391 
Q 2594 391 2855 752 
Q 3116 1113 3116 1747 
z
M 1159 2969 
Q 1341 3281 1617 3432 
Q 1894 3584 2278 3584 
Q 2916 3584 3314 3078 
Q 3713 2572 3713 1747 
Q 3713 922 3314 415 
Q 2916 -91 2278 -91 
Q 1894 -91 1617 61 
Q 1341 213 1159 525 
L 1159 0 
L 581 0 
L 581 4863 
L 1159 4863 
L 1159 2969 
z
" transform="scale(0.015625)"/>
    </defs>
    <use xlink:href="#DejaVuSans-74"/>
    <use xlink:href="#DejaVuSans-75" x="39.208984"/>
    <use xlink:href="#DejaVuSans-69" x="102.587891"/>
    <use xlink:href="#DejaVuSans-64" x="130.371094"/>
    <use xlink:href="#DejaVuSans-3a" x="193.847656"/>
    <use xlink:href="#DejaVuSans-20" x="227.539062"/>
    <use xlink:href="#DejaVuSans-32" x="259.326172"/>
    <use xlink:href="#DejaVuSans-30" x="322.949219"/>
    <use xlink:href="#DejaVuSans-32" x="386.572266"/>
    <use xlink:href="#DejaVuSans-34" x="450.195312"/>
    <use xlink:href="#DejaVuSans-30" x="513.818359"/>
    <use xlink:href="#DejaVuSans-31" x="577.441406"/>
    <use xlink:href="#DejaVuSans-30" x="641.064453"/>
    <use xlink:href="#DejaVuSans-34" x="704.6875"/>
    <use xlink:href="#DejaVuSans-2d" x="768.310547"/>
    <use xlink:href="#DejaVuSans-31" x="804.394531"/>
    <use xlink:href="#DejaVuSans-36" x="868.017578"/>
    <use xlink:href="#DejaVuSans-33" x="931.640625"/>
    <use xlink:href="#DejaVuSans-33" x="995.263672"/>
    <use xlink:href="#DejaVuSans-33" x="1058.886719"/>
    <use xlink:href="#DejaVuSans-35" x="1122.509766"/>
    <use xlink:href="#DejaVuSans-2d" x="1186.132812"/>
    <use xlink:href="#DejaVuSans-37" x="1222.216797"/>
    <use xlink:href="#DejaVuSans-33" x="1285.839844"/>
    <use xlink:href="#DejaVuSans-39" x="1349.462891"/>
    <use xlink:href="#DejaVuSans-2d" x="1413.085938"/>
    <use xlink:href="#DejaVuSans-33" x="1449.169922"/>
    <use xlink:href="#DejaVuSans-61" x="1512.792969"/>
    <use xlink:href="#DejaVuSans-65" x="1574.072266"/>
    <use xlink:href="#DejaVuSans-34" x="1635.595703"/>
    <use xlink:href="#DejaVuSans-38" x="1699.21875"/>
    <use xlink:href="#DejaVuSans-62" x="1762.841797"/>
   </g>
  </g>
 </g>
 <defs>
  <clipPath id="p330e702e69">
   <rect x="53.75" y="41.76" width="357.12" height="266.112"/>
  </clipPath>
 </defs>
</svg>
