<?xml version="1.0" encoding="utf-8" standalone="no"?>
<!DOCTYPE svg PUBLIC "-//W3C//DTD SVG 1.1//EN"
  "http://www.w3.org/Graphics/SVG/1.1/DTD/svg11.dtd">
<svg xmlns:xlink="http://www.w3.org/1999/xlink" width="572.171312pt" height="345.42825pt" viewBox="0 0 572.171312 345.42825" xmlns="http://www.w3.org/2000/svg" version="1.1">
 <metadata>
  <rdf:RDF xmlns:dc="http://purl.org/dc/elements/1.1/" xmlns:cc="http://creativecommons.org/ns#" xmlns:rdf="http://www.w3.org/1999/02/22-rdf-syntax-ns#">
   <cc:Work>
    <dc:type rdf:resource="http://purl.org/dc/dcmitype/StillImage"/>
    <dc:date>2024-02-23T10:29:41.258032</dc:date>
    <dc:format>image/svg+xml</dc:format>
    <dc:creator>
     <cc:Agent>
      <dc:title>Matplotlib v3.8.2, https://matplotlib.org/</dc:title>
     </cc:Agent>
    </dc:creator>
   </cc:Work>
  </rdf:RDF>
 </metadata>
 <defs>
  <style type="text/css">*{stroke-linejoin: round; stroke-linecap: butt}</style>
 </defs>
 <g id="figure_1">
  <g id="patch_1">
   <path d="M 0 345.42825 
L 572.171312 345.42825 
L 572.171312 -0 
L 0 -0 
L 0 345.42825 
z
" style="fill: none; opacity: 0"/>
  </g>
  <g id="axes_1">
   <g id="patch_2">
    <path d="M 50.595313 162.72 
L 407.715312 162.72 
L 407.715312 41.76 
L 50.595313 41.76 
z
" style="fill: #ffffff"/>
   </g>
   <g id="matplotlib.axis_1">
    <g id="xtick_1">
     <g id="line2d_1">
      <defs>
       <path id="m7607df7c5f" d="M 0 0 
L 0 3.5 
" style="stroke: #000000; stroke-width: 0.8"/>
      </defs>
      <g>
       <use xlink:href="#m7607df7c5f" x="99.293494" y="162.72" style="stroke: #000000; stroke-width: 0.8"/>
      </g>
     </g>
    </g>
    <g id="xtick_2">
     <g id="line2d_2">
      <g>
       <use xlink:href="#m7607df7c5f" x="164.224403" y="162.72" style="stroke: #000000; stroke-width: 0.8"/>
      </g>
     </g>
    </g>
    <g id="xtick_3">
     <g id="line2d_3">
      <g>
       <use xlink:href="#m7607df7c5f" x="229.155313" y="162.72" style="stroke: #000000; stroke-width: 0.8"/>
      </g>
     </g>
    </g>
    <g id="xtick_4">
     <g id="line2d_4">
      <g>
       <use xlink:href="#m7607df7c5f" x="294.086222" y="162.72" style="stroke: #000000; stroke-width: 0.8"/>
      </g>
     </g>
    </g>
    <g id="xtick_5">
     <g id="line2d_5">
      <g>
       <use xlink:href="#m7607df7c5f" x="359.017131" y="162.72" style="stroke: #000000; stroke-width: 0.8"/>
      </g>
     </g>
    </g>
   </g>
   <g id="matplotlib.axis_2">
    <g id="ytick_1">
     <g id="line2d_6">
      <defs>
       <path id="m772b205fe2" d="M 0 0 
L -3.5 0 
" style="stroke: #000000; stroke-width: 0.8"/>
      </defs>
      <g>
       <use xlink:href="#m772b205fe2" x="50.595313" y="151.440146" style="stroke: #000000; stroke-width: 0.8"/>
      </g>
     </g>
     <g id="text_1">
      <!-- 2 -->
      <g transform="translate(37.232813 155.239365) scale(0.1 -0.1)">
       <defs>
        <path id="DejaVuSans-32" d="M 1228 531 
L 3431 531 
L 3431 0 
L 469 0 
L 469 531 
Q 828 903 1448 1529 
Q 2069 2156 2228 2338 
Q 2531 2678 2651 2914 
Q 2772 3150 2772 3378 
Q 2772 3750 2511 3984 
Q 2250 4219 1831 4219 
Q 1534 4219 1204 4116 
Q 875 4013 500 3803 
L 500 4441 
Q 881 4594 1212 4672 
Q 1544 4750 1819 4750 
Q 2544 4750 2975 4387 
Q 3406 4025 3406 3419 
Q 3406 3131 3298 2873 
Q 3191 2616 2906 2266 
Q 2828 2175 2409 1742 
Q 1991 1309 1228 531 
z
" transform="scale(0.015625)"/>
       </defs>
       <use xlink:href="#DejaVuSans-32"/>
      </g>
     </g>
    </g>
    <g id="ytick_2">
     <g id="line2d_7">
      <g>
       <use xlink:href="#m772b205fe2" x="50.595313" y="127.126307" style="stroke: #000000; stroke-width: 0.8"/>
      </g>
     </g>
     <g id="text_2">
      <!-- 4 -->
      <g transform="translate(37.232813 130.925526) scale(0.1 -0.1)">
       <defs>
        <path id="DejaVuSans-34" d="M 2419 4116 
L 825 1625 
L 2419 1625 
L 2419 4116 
z
M 2253 4666 
L 3047 4666 
L 3047 1625 
L 3713 1625 
L 3713 1100 
L 3047 1100 
L 3047 0 
L 2419 0 
L 2419 1100 
L 313 1100 
L 313 1709 
L 2253 4666 
z
" transform="scale(0.015625)"/>
       </defs>
       <use xlink:href="#DejaVuSans-34"/>
      </g>
     </g>
    </g>
    <g id="ytick_3">
     <g id="line2d_8">
      <g>
       <use xlink:href="#m772b205fe2" x="50.595313" y="102.812469" style="stroke: #000000; stroke-width: 0.8"/>
      </g>
     </g>
     <g id="text_3">
      <!-- 6 -->
      <g transform="translate(37.232813 106.611687) scale(0.1 -0.1)">
       <defs>
        <path id="DejaVuSans-36" d="M 2113 2584 
Q 1688 2584 1439 2293 
Q 1191 2003 1191 1497 
Q 1191 994 1439 701 
Q 1688 409 2113 409 
Q 2538 409 2786 701 
Q 3034 994 3034 1497 
Q 3034 2003 2786 2293 
Q 2538 2584 2113 2584 
z
M 3366 4563 
L 3366 3988 
Q 3128 4100 2886 4159 
Q 2644 4219 2406 4219 
Q 1781 4219 1451 3797 
Q 1122 3375 1075 2522 
Q 1259 2794 1537 2939 
Q 1816 3084 2150 3084 
Q 2853 3084 3261 2657 
Q 3669 2231 3669 1497 
Q 3669 778 3244 343 
Q 2819 -91 2113 -91 
Q 1303 -91 875 529 
Q 447 1150 447 2328 
Q 447 3434 972 4092 
Q 1497 4750 2381 4750 
Q 2619 4750 2861 4703 
Q 3103 4656 3366 4563 
z
" transform="scale(0.015625)"/>
       </defs>
       <use xlink:href="#DejaVuSans-36"/>
      </g>
     </g>
    </g>
    <g id="ytick_4">
     <g id="line2d_9">
      <g>
       <use xlink:href="#m772b205fe2" x="50.595313" y="78.49863" style="stroke: #000000; stroke-width: 0.8"/>
      </g>
     </g>
     <g id="text_4">
      <!-- 8 -->
      <g transform="translate(37.232813 82.297848) scale(0.1 -0.1)">
       <defs>
        <path id="DejaVuSans-38" d="M 2034 2216 
Q 1584 2216 1326 1975 
Q 1069 1734 1069 1313 
Q 1069 891 1326 650 
Q 1584 409 2034 409 
Q 2484 409 2743 651 
Q 3003 894 3003 1313 
Q 3003 1734 2745 1975 
Q 2488 2216 2034 2216 
z
M 1403 2484 
Q 997 2584 770 2862 
Q 544 3141 544 3541 
Q 544 4100 942 4425 
Q 1341 4750 2034 4750 
Q 2731 4750 3128 4425 
Q 3525 4100 3525 3541 
Q 3525 3141 3298 2862 
Q 3072 2584 2669 2484 
Q 3125 2378 3379 2068 
Q 3634 1759 3634 1313 
Q 3634 634 3220 271 
Q 2806 -91 2034 -91 
Q 1263 -91 848 271 
Q 434 634 434 1313 
Q 434 1759 690 2068 
Q 947 2378 1403 2484 
z
M 1172 3481 
Q 1172 3119 1398 2916 
Q 1625 2713 2034 2713 
Q 2441 2713 2670 2916 
Q 2900 3119 2900 3481 
Q 2900 3844 2670 4047 
Q 2441 4250 2034 4250 
Q 1625 4250 1398 4047 
Q 1172 3844 1172 3481 
z
" transform="scale(0.015625)"/>
       </defs>
       <use xlink:href="#DejaVuSans-38"/>
      </g>
     </g>
    </g>
    <g id="ytick_5">
     <g id="line2d_10">
      <g>
       <use xlink:href="#m772b205fe2" x="50.595313" y="54.184791" style="stroke: #000000; stroke-width: 0.8"/>
      </g>
     </g>
     <g id="text_5">
      <!-- 10 -->
      <g transform="translate(30.870313 57.98401) scale(0.1 -0.1)">
       <defs>
        <path id="DejaVuSans-31" d="M 794 531 
L 1825 531 
L 1825 4091 
L 703 3866 
L 703 4441 
L 1819 4666 
L 2450 4666 
L 2450 531 
L 3481 531 
L 3481 0 
L 794 0 
L 794 531 
z
" transform="scale(0.015625)"/>
        <path id="DejaVuSans-30" d="M 2034 4250 
Q 1547 4250 1301 3770 
Q 1056 3291 1056 2328 
Q 1056 1369 1301 889 
Q 1547 409 2034 409 
Q 2525 409 2770 889 
Q 3016 1369 3016 2328 
Q 3016 3291 2770 3770 
Q 2525 4250 2034 4250 
z
M 2034 4750 
Q 2819 4750 3233 4129 
Q 3647 3509 3647 2328 
Q 3647 1150 3233 529 
Q 2819 -91 2034 -91 
Q 1250 -91 836 529 
Q 422 1150 422 2328 
Q 422 3509 836 4129 
Q 1250 4750 2034 4750 
z
" transform="scale(0.015625)"/>
       </defs>
       <use xlink:href="#DejaVuSans-31"/>
       <use xlink:href="#DejaVuSans-30" x="63.623047"/>
      </g>
     </g>
    </g>
    <g id="text_6">
     <!-- $|S_{21}|$ [mV] -->
     <g transform="translate(24.470313 127.19) rotate(-90) scale(0.1 -0.1)">
      <defs>
       <path id="DejaVuSans-7c" d="M 1344 4891 
L 1344 -1509 
L 813 -1509 
L 813 4891 
L 1344 4891 
z
" transform="scale(0.015625)"/>
       <path id="DejaVuSans-Oblique-53" d="M 3859 4513 
L 3738 3897 
Q 3422 4066 3111 4152 
Q 2800 4238 2509 4238 
Q 1944 4238 1609 3991 
Q 1275 3744 1275 3334 
Q 1275 3109 1398 2989 
Q 1522 2869 2034 2731 
L 2413 2638 
Q 3053 2472 3303 2217 
Q 3553 1963 3553 1503 
Q 3553 797 2998 353 
Q 2444 -91 1538 -91 
Q 1166 -91 791 -17 
Q 416 56 38 206 
L 166 856 
Q 513 641 861 531 
Q 1209 422 1556 422 
Q 2147 422 2503 684 
Q 2859 947 2859 1369 
Q 2859 1650 2717 1795 
Q 2575 1941 2106 2059 
L 1728 2156 
Q 1081 2325 845 2545 
Q 609 2766 609 3163 
Q 609 3859 1145 4304 
Q 1681 4750 2541 4750 
Q 2875 4750 3203 4690 
Q 3531 4631 3859 4513 
z
" transform="scale(0.015625)"/>
       <path id="DejaVuSans-20" transform="scale(0.015625)"/>
       <path id="DejaVuSans-5b" d="M 550 4863 
L 1875 4863 
L 1875 4416 
L 1125 4416 
L 1125 -397 
L 1875 -397 
L 1875 -844 
L 550 -844 
L 550 4863 
z
" transform="scale(0.015625)"/>
       <path id="DejaVuSans-6d" d="M 3328 2828 
Q 3544 3216 3844 3400 
Q 4144 3584 4550 3584 
Q 5097 3584 5394 3201 
Q 5691 2819 5691 2113 
L 5691 0 
L 5113 0 
L 5113 2094 
Q 5113 2597 4934 2840 
Q 4756 3084 4391 3084 
Q 3944 3084 3684 2787 
Q 3425 2491 3425 1978 
L 3425 0 
L 2847 0 
L 2847 2094 
Q 2847 2600 2669 2842 
Q 2491 3084 2119 3084 
Q 1678 3084 1418 2786 
Q 1159 2488 1159 1978 
L 1159 0 
L 581 0 
L 581 3500 
L 1159 3500 
L 1159 2956 
Q 1356 3278 1631 3431 
Q 1906 3584 2284 3584 
Q 2666 3584 2933 3390 
Q 3200 3197 3328 2828 
z
" transform="scale(0.015625)"/>
       <path id="DejaVuSans-56" d="M 1831 0 
L 50 4666 
L 709 4666 
L 2188 738 
L 3669 4666 
L 4325 4666 
L 2547 0 
L 1831 0 
z
" transform="scale(0.015625)"/>
       <path id="DejaVuSans-5d" d="M 1947 4863 
L 1947 -844 
L 622 -844 
L 622 -397 
L 1369 -397 
L 1369 4416 
L 622 4416 
L 622 4863 
L 1947 4863 
z
" transform="scale(0.015625)"/>
      </defs>
      <use xlink:href="#DejaVuSans-7c" transform="translate(0 0.578125)"/>
      <use xlink:href="#DejaVuSans-Oblique-53" transform="translate(33.691406 0.578125)"/>
      <use xlink:href="#DejaVuSans-32" transform="translate(97.167969 -15.828125) scale(0.7)"/>
      <use xlink:href="#DejaVuSans-31" transform="translate(141.704102 -15.828125) scale(0.7)"/>
      <use xlink:href="#DejaVuSans-7c" transform="translate(188.974609 0.578125)"/>
      <use xlink:href="#DejaVuSans-20" transform="translate(222.666016 0.578125)"/>
      <use xlink:href="#DejaVuSans-5b" transform="translate(254.453125 0.578125)"/>
      <use xlink:href="#DejaVuSans-6d" transform="translate(293.466797 0.578125)"/>
      <use xlink:href="#DejaVuSans-56" transform="translate(390.878906 0.578125)"/>
      <use xlink:href="#DejaVuSans-5d" transform="translate(459.287109 0.578125)"/>
     </g>
    </g>
   </g>
   <g id="line2d_11">
    <path d="M 66.82804 58.264439 
L 68.45947 57.957746 
L 70.0909 58.962623 
L 71.722329 57.963243 
L 73.353759 59.949103 
L 74.985189 57.538044 
L 76.616619 56.559827 
L 78.248049 57.889864 
L 79.879479 56.156967 
L 81.510909 55.828733 
L 83.142339 56.164962 
L 84.773768 58.379107 
L 86.405198 59.305871 
L 88.036628 55.564214 
L 89.668058 58.849592 
L 91.299488 58.382886 
L 92.930918 56.890466 
L 94.562348 58.210051 
L 96.193778 57.302466 
L 99.456637 56.586886 
L 101.088067 57.070512 
L 102.719497 55.914758 
L 104.350927 55.879591 
L 105.982357 56.180623 
L 107.613787 56.300637 
L 109.245217 56.140154 
L 110.876646 55.36016 
L 112.508076 56.326643 
L 114.139506 56.444662 
L 115.770936 55.961773 
L 117.402366 57.683745 
L 119.033796 57.736578 
L 120.665226 53.96101 
L 122.296656 54.815676 
L 123.928085 53.831789 
L 125.559515 54.07511 
L 127.190945 55.999713 
L 128.822375 55.285458 
L 130.453805 57.352033 
L 132.085235 55.173764 
L 133.716665 53.90466 
L 135.348095 53.290482 
L 136.979524 53.866651 
L 138.610954 52.997788 
L 140.242384 54.419812 
L 143.505244 53.845802 
L 145.136674 54.458467 
L 146.768104 54.127737 
L 148.399534 52.031364 
L 150.030963 54.033696 
L 151.662393 55.709788 
L 153.293823 52.126254 
L 154.925253 53.914334 
L 156.556683 54.005949 
L 158.188113 55.616857 
L 161.450973 53.199049 
L 163.082402 54.718413 
L 164.713832 52.704264 
L 166.345262 52.299636 
L 169.608122 53.403457 
L 171.239552 52.661088 
L 172.870982 51.722425 
L 174.502412 51.242853 
L 176.133842 52.125498 
L 177.765271 50.994911 
L 179.396701 51.75593 
L 181.028131 50.884862 
L 182.659561 51.434572 
L 184.290991 53.358136 
L 185.922421 52.773852 
L 187.553851 52.488784 
L 189.185281 53.888897 
L 190.81671 54.420486 
L 192.44814 54.648628 
L 194.07957 53.443776 
L 195.711 54.188472 
L 197.34243 54.577641 
L 198.97386 53.323223 
L 200.60529 52.772836 
L 202.23672 53.791696 
L 203.868149 53.446656 
L 205.499579 54.052818 
L 207.131009 52.690513 
L 208.762439 53.076894 
L 210.393869 53.616791 
L 212.025299 51.65092 
L 213.656729 54.862725 
L 215.288159 52.678927 
L 216.919588 54.092302 
L 218.551018 53.96387 
L 220.182448 52.659222 
L 221.813878 54.828693 
L 223.445308 53.989118 
L 225.076738 52.726675 
L 226.708168 53.599586 
L 228.339598 51.085764 
L 229.971027 52.65026 
L 231.602457 52.704674 
L 233.233887 54.632953 
L 234.865317 53.084324 
L 236.496747 53.37663 
L 238.128177 52.441713 
L 241.391037 53.811356 
L 243.022466 52.468488 
L 244.653896 55.259037 
L 246.285326 52.24242 
L 247.916756 53.202703 
L 249.548186 52.175413 
L 251.179616 52.968665 
L 252.811046 52.993659 
L 254.442476 52.848908 
L 257.705335 53.518974 
L 259.336765 55.297832 
L 260.968195 52.722984 
L 262.599625 53.080341 
L 264.231055 53.646603 
L 265.862485 53.294194 
L 267.493915 52.569664 
L 269.125344 54.775075 
L 270.756774 53.84328 
L 272.388204 53.466932 
L 274.019634 54.560547 
L 275.651064 52.52668 
L 277.282494 53.223312 
L 278.913924 52.688414 
L 280.545354 53.916804 
L 282.176783 53.485942 
L 283.808213 53.445132 
L 285.439643 53.104957 
L 287.071073 50.76889 
L 288.702503 52.719777 
L 290.333933 50.604179 
L 291.965363 52.188043 
L 293.596793 53.153054 
L 295.228223 50.514868 
L 296.859652 52.153483 
L 298.491082 50.207103 
L 300.122512 50.194255 
L 301.753942 50.796609 
L 303.385372 48.897926 
L 305.016802 47.258182 
L 308.279662 50.869865 
L 309.911091 52.176763 
L 311.542521 58.209897 
L 313.173951 68.643965 
L 314.805381 90.207507 
L 318.068241 152.962936 
L 319.699671 148.386956 
L 322.96253 111.923023 
L 324.59396 102.652105 
L 326.22539 94.970295 
L 327.85682 89.490103 
L 329.48825 84.574167 
L 331.11968 80.526125 
L 332.75111 77.34872 
L 334.38254 73.355026 
L 336.013969 73.708898 
L 337.645399 72.747054 
L 339.276829 68.763276 
L 340.908259 69.253993 
L 342.539689 68.599239 
L 344.171119 67.169147 
L 345.802549 65.304283 
L 347.433979 64.051134 
L 349.065408 67.294187 
L 350.696838 64.751675 
L 352.328268 63.698595 
L 353.959698 62.271194 
L 355.591128 63.614362 
L 357.222558 62.152381 
L 358.853988 61.127363 
L 360.485418 60.333735 
L 362.116847 60.859995 
L 363.748277 59.886868 
L 365.379707 62.44736 
L 367.011137 58.978571 
L 368.642567 58.378191 
L 370.273997 60.192065 
L 371.905427 58.673042 
L 373.536857 57.646754 
L 375.168286 60.188273 
L 376.799716 59.136937 
L 378.431146 59.678469 
L 380.062576 56.176835 
L 381.694006 57.908754 
L 383.325436 57.577837 
L 384.956866 56.215303 
L 386.588296 58.517398 
L 388.219725 56.057366 
L 389.851155 56.87053 
L 391.482585 56.863553 
L 391.482585 56.863553 
" clip-path="url(#p0bc849a2d5)" style="fill: none; stroke: #1f77b4; stroke-width: 1.5; stroke-linecap: square"/>
    <defs>
     <path id="m286e048bf1" d="M 0 1.5 
C 0.397805 1.5 0.77937 1.341951 1.06066 1.06066 
C 1.341951 0.77937 1.5 0.397805 1.5 0 
C 1.5 -0.397805 1.341951 -0.77937 1.06066 -1.06066 
C 0.77937 -1.341951 0.397805 -1.5 0 -1.5 
C -0.397805 -1.5 -0.77937 -1.341951 -1.06066 -1.06066 
C -1.341951 -0.77937 -1.5 -0.397805 -1.5 0 
C -1.5 0.397805 -1.341951 0.77937 -1.06066 1.06066 
C -0.77937 1.341951 -0.397805 1.5 0 1.5 
z
" style="stroke: #1f77b4"/>
    </defs>
    <g clip-path="url(#p0bc849a2d5)">
     <use xlink:href="#m286e048bf1" x="66.82804" y="58.264439" style="fill: #1f77b4; stroke: #1f77b4"/>
     <use xlink:href="#m286e048bf1" x="68.45947" y="57.957746" style="fill: #1f77b4; stroke: #1f77b4"/>
     <use xlink:href="#m286e048bf1" x="70.0909" y="58.962623" style="fill: #1f77b4; stroke: #1f77b4"/>
     <use xlink:href="#m286e048bf1" x="71.722329" y="57.963243" style="fill: #1f77b4; stroke: #1f77b4"/>
     <use xlink:href="#m286e048bf1" x="73.353759" y="59.949103" style="fill: #1f77b4; stroke: #1f77b4"/>
     <use xlink:href="#m286e048bf1" x="74.985189" y="57.538044" style="fill: #1f77b4; stroke: #1f77b4"/>
     <use xlink:href="#m286e048bf1" x="76.616619" y="56.559827" style="fill: #1f77b4; stroke: #1f77b4"/>
     <use xlink:href="#m286e048bf1" x="78.248049" y="57.889864" style="fill: #1f77b4; stroke: #1f77b4"/>
     <use xlink:href="#m286e048bf1" x="79.879479" y="56.156967" style="fill: #1f77b4; stroke: #1f77b4"/>
     <use xlink:href="#m286e048bf1" x="81.510909" y="55.828733" style="fill: #1f77b4; stroke: #1f77b4"/>
     <use xlink:href="#m286e048bf1" x="83.142339" y="56.164962" style="fill: #1f77b4; stroke: #1f77b4"/>
     <use xlink:href="#m286e048bf1" x="84.773768" y="58.379107" style="fill: #1f77b4; stroke: #1f77b4"/>
     <use xlink:href="#m286e048bf1" x="86.405198" y="59.305871" style="fill: #1f77b4; stroke: #1f77b4"/>
     <use xlink:href="#m286e048bf1" x="88.036628" y="55.564214" style="fill: #1f77b4; stroke: #1f77b4"/>
     <use xlink:href="#m286e048bf1" x="89.668058" y="58.849592" style="fill: #1f77b4; stroke: #1f77b4"/>
     <use xlink:href="#m286e048bf1" x="91.299488" y="58.382886" style="fill: #1f77b4; stroke: #1f77b4"/>
     <use xlink:href="#m286e048bf1" x="92.930918" y="56.890466" style="fill: #1f77b4; stroke: #1f77b4"/>
     <use xlink:href="#m286e048bf1" x="94.562348" y="58.210051" style="fill: #1f77b4; stroke: #1f77b4"/>
     <use xlink:href="#m286e048bf1" x="96.193778" y="57.302466" style="fill: #1f77b4; stroke: #1f77b4"/>
     <use xlink:href="#m286e048bf1" x="97.825207" y="56.995595" style="fill: #1f77b4; stroke: #1f77b4"/>
     <use xlink:href="#m286e048bf1" x="99.456637" y="56.586886" style="fill: #1f77b4; stroke: #1f77b4"/>
     <use xlink:href="#m286e048bf1" x="101.088067" y="57.070512" style="fill: #1f77b4; stroke: #1f77b4"/>
     <use xlink:href="#m286e048bf1" x="102.719497" y="55.914758" style="fill: #1f77b4; stroke: #1f77b4"/>
     <use xlink:href="#m286e048bf1" x="104.350927" y="55.879591" style="fill: #1f77b4; stroke: #1f77b4"/>
     <use xlink:href="#m286e048bf1" x="105.982357" y="56.180623" style="fill: #1f77b4; stroke: #1f77b4"/>
     <use xlink:href="#m286e048bf1" x="107.613787" y="56.300637" style="fill: #1f77b4; stroke: #1f77b4"/>
     <use xlink:href="#m286e048bf1" x="109.245217" y="56.140154" style="fill: #1f77b4; stroke: #1f77b4"/>
     <use xlink:href="#m286e048bf1" x="110.876646" y="55.36016" style="fill: #1f77b4; stroke: #1f77b4"/>
     <use xlink:href="#m286e048bf1" x="112.508076" y="56.326643" style="fill: #1f77b4; stroke: #1f77b4"/>
     <use xlink:href="#m286e048bf1" x="114.139506" y="56.444662" style="fill: #1f77b4; stroke: #1f77b4"/>
     <use xlink:href="#m286e048bf1" x="115.770936" y="55.961773" style="fill: #1f77b4; stroke: #1f77b4"/>
     <use xlink:href="#m286e048bf1" x="117.402366" y="57.683745" style="fill: #1f77b4; stroke: #1f77b4"/>
     <use xlink:href="#m286e048bf1" x="119.033796" y="57.736578" style="fill: #1f77b4; stroke: #1f77b4"/>
     <use xlink:href="#m286e048bf1" x="120.665226" y="53.96101" style="fill: #1f77b4; stroke: #1f77b4"/>
     <use xlink:href="#m286e048bf1" x="122.296656" y="54.815676" style="fill: #1f77b4; stroke: #1f77b4"/>
     <use xlink:href="#m286e048bf1" x="123.928085" y="53.831789" style="fill: #1f77b4; stroke: #1f77b4"/>
     <use xlink:href="#m286e048bf1" x="125.559515" y="54.07511" style="fill: #1f77b4; stroke: #1f77b4"/>
     <use xlink:href="#m286e048bf1" x="127.190945" y="55.999713" style="fill: #1f77b4; stroke: #1f77b4"/>
     <use xlink:href="#m286e048bf1" x="128.822375" y="55.285458" style="fill: #1f77b4; stroke: #1f77b4"/>
     <use xlink:href="#m286e048bf1" x="130.453805" y="57.352033" style="fill: #1f77b4; stroke: #1f77b4"/>
     <use xlink:href="#m286e048bf1" x="132.085235" y="55.173764" style="fill: #1f77b4; stroke: #1f77b4"/>
     <use xlink:href="#m286e048bf1" x="133.716665" y="53.90466" style="fill: #1f77b4; stroke: #1f77b4"/>
     <use xlink:href="#m286e048bf1" x="135.348095" y="53.290482" style="fill: #1f77b4; stroke: #1f77b4"/>
     <use xlink:href="#m286e048bf1" x="136.979524" y="53.866651" style="fill: #1f77b4; stroke: #1f77b4"/>
     <use xlink:href="#m286e048bf1" x="138.610954" y="52.997788" style="fill: #1f77b4; stroke: #1f77b4"/>
     <use xlink:href="#m286e048bf1" x="140.242384" y="54.419812" style="fill: #1f77b4; stroke: #1f77b4"/>
     <use xlink:href="#m286e048bf1" x="141.873814" y="54.141532" style="fill: #1f77b4; stroke: #1f77b4"/>
     <use xlink:href="#m286e048bf1" x="143.505244" y="53.845802" style="fill: #1f77b4; stroke: #1f77b4"/>
     <use xlink:href="#m286e048bf1" x="145.136674" y="54.458467" style="fill: #1f77b4; stroke: #1f77b4"/>
     <use xlink:href="#m286e048bf1" x="146.768104" y="54.127737" style="fill: #1f77b4; stroke: #1f77b4"/>
     <use xlink:href="#m286e048bf1" x="148.399534" y="52.031364" style="fill: #1f77b4; stroke: #1f77b4"/>
     <use xlink:href="#m286e048bf1" x="150.030963" y="54.033696" style="fill: #1f77b4; stroke: #1f77b4"/>
     <use xlink:href="#m286e048bf1" x="151.662393" y="55.709788" style="fill: #1f77b4; stroke: #1f77b4"/>
     <use xlink:href="#m286e048bf1" x="153.293823" y="52.126254" style="fill: #1f77b4; stroke: #1f77b4"/>
     <use xlink:href="#m286e048bf1" x="154.925253" y="53.914334" style="fill: #1f77b4; stroke: #1f77b4"/>
     <use xlink:href="#m286e048bf1" x="156.556683" y="54.005949" style="fill: #1f77b4; stroke: #1f77b4"/>
     <use xlink:href="#m286e048bf1" x="158.188113" y="55.616857" style="fill: #1f77b4; stroke: #1f77b4"/>
     <use xlink:href="#m286e048bf1" x="159.819543" y="54.389139" style="fill: #1f77b4; stroke: #1f77b4"/>
     <use xlink:href="#m286e048bf1" x="161.450973" y="53.199049" style="fill: #1f77b4; stroke: #1f77b4"/>
     <use xlink:href="#m286e048bf1" x="163.082402" y="54.718413" style="fill: #1f77b4; stroke: #1f77b4"/>
     <use xlink:href="#m286e048bf1" x="164.713832" y="52.704264" style="fill: #1f77b4; stroke: #1f77b4"/>
     <use xlink:href="#m286e048bf1" x="166.345262" y="52.299636" style="fill: #1f77b4; stroke: #1f77b4"/>
     <use xlink:href="#m286e048bf1" x="167.976692" y="52.882012" style="fill: #1f77b4; stroke: #1f77b4"/>
     <use xlink:href="#m286e048bf1" x="169.608122" y="53.403457" style="fill: #1f77b4; stroke: #1f77b4"/>
     <use xlink:href="#m286e048bf1" x="171.239552" y="52.661088" style="fill: #1f77b4; stroke: #1f77b4"/>
     <use xlink:href="#m286e048bf1" x="172.870982" y="51.722425" style="fill: #1f77b4; stroke: #1f77b4"/>
     <use xlink:href="#m286e048bf1" x="174.502412" y="51.242853" style="fill: #1f77b4; stroke: #1f77b4"/>
     <use xlink:href="#m286e048bf1" x="176.133842" y="52.125498" style="fill: #1f77b4; stroke: #1f77b4"/>
     <use xlink:href="#m286e048bf1" x="177.765271" y="50.994911" style="fill: #1f77b4; stroke: #1f77b4"/>
     <use xlink:href="#m286e048bf1" x="179.396701" y="51.75593" style="fill: #1f77b4; stroke: #1f77b4"/>
     <use xlink:href="#m286e048bf1" x="181.028131" y="50.884862" style="fill: #1f77b4; stroke: #1f77b4"/>
     <use xlink:href="#m286e048bf1" x="182.659561" y="51.434572" style="fill: #1f77b4; stroke: #1f77b4"/>
     <use xlink:href="#m286e048bf1" x="184.290991" y="53.358136" style="fill: #1f77b4; stroke: #1f77b4"/>
     <use xlink:href="#m286e048bf1" x="185.922421" y="52.773852" style="fill: #1f77b4; stroke: #1f77b4"/>
     <use xlink:href="#m286e048bf1" x="187.553851" y="52.488784" style="fill: #1f77b4; stroke: #1f77b4"/>
     <use xlink:href="#m286e048bf1" x="189.185281" y="53.888897" style="fill: #1f77b4; stroke: #1f77b4"/>
     <use xlink:href="#m286e048bf1" x="190.81671" y="54.420486" style="fill: #1f77b4; stroke: #1f77b4"/>
     <use xlink:href="#m286e048bf1" x="192.44814" y="54.648628" style="fill: #1f77b4; stroke: #1f77b4"/>
     <use xlink:href="#m286e048bf1" x="194.07957" y="53.443776" style="fill: #1f77b4; stroke: #1f77b4"/>
     <use xlink:href="#m286e048bf1" x="195.711" y="54.188472" style="fill: #1f77b4; stroke: #1f77b4"/>
     <use xlink:href="#m286e048bf1" x="197.34243" y="54.577641" style="fill: #1f77b4; stroke: #1f77b4"/>
     <use xlink:href="#m286e048bf1" x="198.97386" y="53.323223" style="fill: #1f77b4; stroke: #1f77b4"/>
     <use xlink:href="#m286e048bf1" x="200.60529" y="52.772836" style="fill: #1f77b4; stroke: #1f77b4"/>
     <use xlink:href="#m286e048bf1" x="202.23672" y="53.791696" style="fill: #1f77b4; stroke: #1f77b4"/>
     <use xlink:href="#m286e048bf1" x="203.868149" y="53.446656" style="fill: #1f77b4; stroke: #1f77b4"/>
     <use xlink:href="#m286e048bf1" x="205.499579" y="54.052818" style="fill: #1f77b4; stroke: #1f77b4"/>
     <use xlink:href="#m286e048bf1" x="207.131009" y="52.690513" style="fill: #1f77b4; stroke: #1f77b4"/>
     <use xlink:href="#m286e048bf1" x="208.762439" y="53.076894" style="fill: #1f77b4; stroke: #1f77b4"/>
     <use xlink:href="#m286e048bf1" x="210.393869" y="53.616791" style="fill: #1f77b4; stroke: #1f77b4"/>
     <use xlink:href="#m286e048bf1" x="212.025299" y="51.65092" style="fill: #1f77b4; stroke: #1f77b4"/>
     <use xlink:href="#m286e048bf1" x="213.656729" y="54.862725" style="fill: #1f77b4; stroke: #1f77b4"/>
     <use xlink:href="#m286e048bf1" x="215.288159" y="52.678927" style="fill: #1f77b4; stroke: #1f77b4"/>
     <use xlink:href="#m286e048bf1" x="216.919588" y="54.092302" style="fill: #1f77b4; stroke: #1f77b4"/>
     <use xlink:href="#m286e048bf1" x="218.551018" y="53.96387" style="fill: #1f77b4; stroke: #1f77b4"/>
     <use xlink:href="#m286e048bf1" x="220.182448" y="52.659222" style="fill: #1f77b4; stroke: #1f77b4"/>
     <use xlink:href="#m286e048bf1" x="221.813878" y="54.828693" style="fill: #1f77b4; stroke: #1f77b4"/>
     <use xlink:href="#m286e048bf1" x="223.445308" y="53.989118" style="fill: #1f77b4; stroke: #1f77b4"/>
     <use xlink:href="#m286e048bf1" x="225.076738" y="52.726675" style="fill: #1f77b4; stroke: #1f77b4"/>
     <use xlink:href="#m286e048bf1" x="226.708168" y="53.599586" style="fill: #1f77b4; stroke: #1f77b4"/>
     <use xlink:href="#m286e048bf1" x="228.339598" y="51.085764" style="fill: #1f77b4; stroke: #1f77b4"/>
     <use xlink:href="#m286e048bf1" x="229.971027" y="52.65026" style="fill: #1f77b4; stroke: #1f77b4"/>
     <use xlink:href="#m286e048bf1" x="231.602457" y="52.704674" style="fill: #1f77b4; stroke: #1f77b4"/>
     <use xlink:href="#m286e048bf1" x="233.233887" y="54.632953" style="fill: #1f77b4; stroke: #1f77b4"/>
     <use xlink:href="#m286e048bf1" x="234.865317" y="53.084324" style="fill: #1f77b4; stroke: #1f77b4"/>
     <use xlink:href="#m286e048bf1" x="236.496747" y="53.37663" style="fill: #1f77b4; stroke: #1f77b4"/>
     <use xlink:href="#m286e048bf1" x="238.128177" y="52.441713" style="fill: #1f77b4; stroke: #1f77b4"/>
     <use xlink:href="#m286e048bf1" x="239.759607" y="53.173762" style="fill: #1f77b4; stroke: #1f77b4"/>
     <use xlink:href="#m286e048bf1" x="241.391037" y="53.811356" style="fill: #1f77b4; stroke: #1f77b4"/>
     <use xlink:href="#m286e048bf1" x="243.022466" y="52.468488" style="fill: #1f77b4; stroke: #1f77b4"/>
     <use xlink:href="#m286e048bf1" x="244.653896" y="55.259037" style="fill: #1f77b4; stroke: #1f77b4"/>
     <use xlink:href="#m286e048bf1" x="246.285326" y="52.24242" style="fill: #1f77b4; stroke: #1f77b4"/>
     <use xlink:href="#m286e048bf1" x="247.916756" y="53.202703" style="fill: #1f77b4; stroke: #1f77b4"/>
     <use xlink:href="#m286e048bf1" x="249.548186" y="52.175413" style="fill: #1f77b4; stroke: #1f77b4"/>
     <use xlink:href="#m286e048bf1" x="251.179616" y="52.968665" style="fill: #1f77b4; stroke: #1f77b4"/>
     <use xlink:href="#m286e048bf1" x="252.811046" y="52.993659" style="fill: #1f77b4; stroke: #1f77b4"/>
     <use xlink:href="#m286e048bf1" x="254.442476" y="52.848908" style="fill: #1f77b4; stroke: #1f77b4"/>
     <use xlink:href="#m286e048bf1" x="256.073905" y="53.174406" style="fill: #1f77b4; stroke: #1f77b4"/>
     <use xlink:href="#m286e048bf1" x="257.705335" y="53.518974" style="fill: #1f77b4; stroke: #1f77b4"/>
     <use xlink:href="#m286e048bf1" x="259.336765" y="55.297832" style="fill: #1f77b4; stroke: #1f77b4"/>
     <use xlink:href="#m286e048bf1" x="260.968195" y="52.722984" style="fill: #1f77b4; stroke: #1f77b4"/>
     <use xlink:href="#m286e048bf1" x="262.599625" y="53.080341" style="fill: #1f77b4; stroke: #1f77b4"/>
     <use xlink:href="#m286e048bf1" x="264.231055" y="53.646603" style="fill: #1f77b4; stroke: #1f77b4"/>
     <use xlink:href="#m286e048bf1" x="265.862485" y="53.294194" style="fill: #1f77b4; stroke: #1f77b4"/>
     <use xlink:href="#m286e048bf1" x="267.493915" y="52.569664" style="fill: #1f77b4; stroke: #1f77b4"/>
     <use xlink:href="#m286e048bf1" x="269.125344" y="54.775075" style="fill: #1f77b4; stroke: #1f77b4"/>
     <use xlink:href="#m286e048bf1" x="270.756774" y="53.84328" style="fill: #1f77b4; stroke: #1f77b4"/>
     <use xlink:href="#m286e048bf1" x="272.388204" y="53.466932" style="fill: #1f77b4; stroke: #1f77b4"/>
     <use xlink:href="#m286e048bf1" x="274.019634" y="54.560547" style="fill: #1f77b4; stroke: #1f77b4"/>
     <use xlink:href="#m286e048bf1" x="275.651064" y="52.52668" style="fill: #1f77b4; stroke: #1f77b4"/>
     <use xlink:href="#m286e048bf1" x="277.282494" y="53.223312" style="fill: #1f77b4; stroke: #1f77b4"/>
     <use xlink:href="#m286e048bf1" x="278.913924" y="52.688414" style="fill: #1f77b4; stroke: #1f77b4"/>
     <use xlink:href="#m286e048bf1" x="280.545354" y="53.916804" style="fill: #1f77b4; stroke: #1f77b4"/>
     <use xlink:href="#m286e048bf1" x="282.176783" y="53.485942" style="fill: #1f77b4; stroke: #1f77b4"/>
     <use xlink:href="#m286e048bf1" x="283.808213" y="53.445132" style="fill: #1f77b4; stroke: #1f77b4"/>
     <use xlink:href="#m286e048bf1" x="285.439643" y="53.104957" style="fill: #1f77b4; stroke: #1f77b4"/>
     <use xlink:href="#m286e048bf1" x="287.071073" y="50.76889" style="fill: #1f77b4; stroke: #1f77b4"/>
     <use xlink:href="#m286e048bf1" x="288.702503" y="52.719777" style="fill: #1f77b4; stroke: #1f77b4"/>
     <use xlink:href="#m286e048bf1" x="290.333933" y="50.604179" style="fill: #1f77b4; stroke: #1f77b4"/>
     <use xlink:href="#m286e048bf1" x="291.965363" y="52.188043" style="fill: #1f77b4; stroke: #1f77b4"/>
     <use xlink:href="#m286e048bf1" x="293.596793" y="53.153054" style="fill: #1f77b4; stroke: #1f77b4"/>
     <use xlink:href="#m286e048bf1" x="295.228223" y="50.514868" style="fill: #1f77b4; stroke: #1f77b4"/>
     <use xlink:href="#m286e048bf1" x="296.859652" y="52.153483" style="fill: #1f77b4; stroke: #1f77b4"/>
     <use xlink:href="#m286e048bf1" x="298.491082" y="50.207103" style="fill: #1f77b4; stroke: #1f77b4"/>
     <use xlink:href="#m286e048bf1" x="300.122512" y="50.194255" style="fill: #1f77b4; stroke: #1f77b4"/>
     <use xlink:href="#m286e048bf1" x="301.753942" y="50.796609" style="fill: #1f77b4; stroke: #1f77b4"/>
     <use xlink:href="#m286e048bf1" x="303.385372" y="48.897926" style="fill: #1f77b4; stroke: #1f77b4"/>
     <use xlink:href="#m286e048bf1" x="305.016802" y="47.258182" style="fill: #1f77b4; stroke: #1f77b4"/>
     <use xlink:href="#m286e048bf1" x="306.648232" y="48.984705" style="fill: #1f77b4; stroke: #1f77b4"/>
     <use xlink:href="#m286e048bf1" x="308.279662" y="50.869865" style="fill: #1f77b4; stroke: #1f77b4"/>
     <use xlink:href="#m286e048bf1" x="309.911091" y="52.176763" style="fill: #1f77b4; stroke: #1f77b4"/>
     <use xlink:href="#m286e048bf1" x="311.542521" y="58.209897" style="fill: #1f77b4; stroke: #1f77b4"/>
     <use xlink:href="#m286e048bf1" x="313.173951" y="68.643965" style="fill: #1f77b4; stroke: #1f77b4"/>
     <use xlink:href="#m286e048bf1" x="314.805381" y="90.207507" style="fill: #1f77b4; stroke: #1f77b4"/>
     <use xlink:href="#m286e048bf1" x="316.436811" y="120.639676" style="fill: #1f77b4; stroke: #1f77b4"/>
     <use xlink:href="#m286e048bf1" x="318.068241" y="152.962936" style="fill: #1f77b4; stroke: #1f77b4"/>
     <use xlink:href="#m286e048bf1" x="319.699671" y="148.386956" style="fill: #1f77b4; stroke: #1f77b4"/>
     <use xlink:href="#m286e048bf1" x="321.331101" y="130.104957" style="fill: #1f77b4; stroke: #1f77b4"/>
     <use xlink:href="#m286e048bf1" x="322.96253" y="111.923023" style="fill: #1f77b4; stroke: #1f77b4"/>
     <use xlink:href="#m286e048bf1" x="324.59396" y="102.652105" style="fill: #1f77b4; stroke: #1f77b4"/>
     <use xlink:href="#m286e048bf1" x="326.22539" y="94.970295" style="fill: #1f77b4; stroke: #1f77b4"/>
     <use xlink:href="#m286e048bf1" x="327.85682" y="89.490103" style="fill: #1f77b4; stroke: #1f77b4"/>
     <use xlink:href="#m286e048bf1" x="329.48825" y="84.574167" style="fill: #1f77b4; stroke: #1f77b4"/>
     <use xlink:href="#m286e048bf1" x="331.11968" y="80.526125" style="fill: #1f77b4; stroke: #1f77b4"/>
     <use xlink:href="#m286e048bf1" x="332.75111" y="77.34872" style="fill: #1f77b4; stroke: #1f77b4"/>
     <use xlink:href="#m286e048bf1" x="334.38254" y="73.355026" style="fill: #1f77b4; stroke: #1f77b4"/>
     <use xlink:href="#m286e048bf1" x="336.013969" y="73.708898" style="fill: #1f77b4; stroke: #1f77b4"/>
     <use xlink:href="#m286e048bf1" x="337.645399" y="72.747054" style="fill: #1f77b4; stroke: #1f77b4"/>
     <use xlink:href="#m286e048bf1" x="339.276829" y="68.763276" style="fill: #1f77b4; stroke: #1f77b4"/>
     <use xlink:href="#m286e048bf1" x="340.908259" y="69.253993" style="fill: #1f77b4; stroke: #1f77b4"/>
     <use xlink:href="#m286e048bf1" x="342.539689" y="68.599239" style="fill: #1f77b4; stroke: #1f77b4"/>
     <use xlink:href="#m286e048bf1" x="344.171119" y="67.169147" style="fill: #1f77b4; stroke: #1f77b4"/>
     <use xlink:href="#m286e048bf1" x="345.802549" y="65.304283" style="fill: #1f77b4; stroke: #1f77b4"/>
     <use xlink:href="#m286e048bf1" x="347.433979" y="64.051134" style="fill: #1f77b4; stroke: #1f77b4"/>
     <use xlink:href="#m286e048bf1" x="349.065408" y="67.294187" style="fill: #1f77b4; stroke: #1f77b4"/>
     <use xlink:href="#m286e048bf1" x="350.696838" y="64.751675" style="fill: #1f77b4; stroke: #1f77b4"/>
     <use xlink:href="#m286e048bf1" x="352.328268" y="63.698595" style="fill: #1f77b4; stroke: #1f77b4"/>
     <use xlink:href="#m286e048bf1" x="353.959698" y="62.271194" style="fill: #1f77b4; stroke: #1f77b4"/>
     <use xlink:href="#m286e048bf1" x="355.591128" y="63.614362" style="fill: #1f77b4; stroke: #1f77b4"/>
     <use xlink:href="#m286e048bf1" x="357.222558" y="62.152381" style="fill: #1f77b4; stroke: #1f77b4"/>
     <use xlink:href="#m286e048bf1" x="358.853988" y="61.127363" style="fill: #1f77b4; stroke: #1f77b4"/>
     <use xlink:href="#m286e048bf1" x="360.485418" y="60.333735" style="fill: #1f77b4; stroke: #1f77b4"/>
     <use xlink:href="#m286e048bf1" x="362.116847" y="60.859995" style="fill: #1f77b4; stroke: #1f77b4"/>
     <use xlink:href="#m286e048bf1" x="363.748277" y="59.886868" style="fill: #1f77b4; stroke: #1f77b4"/>
     <use xlink:href="#m286e048bf1" x="365.379707" y="62.44736" style="fill: #1f77b4; stroke: #1f77b4"/>
     <use xlink:href="#m286e048bf1" x="367.011137" y="58.978571" style="fill: #1f77b4; stroke: #1f77b4"/>
     <use xlink:href="#m286e048bf1" x="368.642567" y="58.378191" style="fill: #1f77b4; stroke: #1f77b4"/>
     <use xlink:href="#m286e048bf1" x="370.273997" y="60.192065" style="fill: #1f77b4; stroke: #1f77b4"/>
     <use xlink:href="#m286e048bf1" x="371.905427" y="58.673042" style="fill: #1f77b4; stroke: #1f77b4"/>
     <use xlink:href="#m286e048bf1" x="373.536857" y="57.646754" style="fill: #1f77b4; stroke: #1f77b4"/>
     <use xlink:href="#m286e048bf1" x="375.168286" y="60.188273" style="fill: #1f77b4; stroke: #1f77b4"/>
     <use xlink:href="#m286e048bf1" x="376.799716" y="59.136937" style="fill: #1f77b4; stroke: #1f77b4"/>
     <use xlink:href="#m286e048bf1" x="378.431146" y="59.678469" style="fill: #1f77b4; stroke: #1f77b4"/>
     <use xlink:href="#m286e048bf1" x="380.062576" y="56.176835" style="fill: #1f77b4; stroke: #1f77b4"/>
     <use xlink:href="#m286e048bf1" x="381.694006" y="57.908754" style="fill: #1f77b4; stroke: #1f77b4"/>
     <use xlink:href="#m286e048bf1" x="383.325436" y="57.577837" style="fill: #1f77b4; stroke: #1f77b4"/>
     <use xlink:href="#m286e048bf1" x="384.956866" y="56.215303" style="fill: #1f77b4; stroke: #1f77b4"/>
     <use xlink:href="#m286e048bf1" x="386.588296" y="58.517398" style="fill: #1f77b4; stroke: #1f77b4"/>
     <use xlink:href="#m286e048bf1" x="388.219725" y="56.057366" style="fill: #1f77b4; stroke: #1f77b4"/>
     <use xlink:href="#m286e048bf1" x="389.851155" y="56.87053" style="fill: #1f77b4; stroke: #1f77b4"/>
     <use xlink:href="#m286e048bf1" x="391.482585" y="56.863553" style="fill: #1f77b4; stroke: #1f77b4"/>
    </g>
   </g>
   <g id="line2d_12">
    <path d="M 66.82804 55.771046 
L 143.848187 55.156844 
L 190.645239 54.575978 
L 221.193314 53.988708 
L 242.641963 53.364891 
L 258.24098 52.698561 
L 269.940243 51.990479 
L 279.364649 51.209702 
L 287.489137 50.320443 
L 301.463257 48.680421 
L 303.413134 48.76646 
L 304.713052 49.018468 
L 305.687991 49.372472 
L 306.662929 49.93348 
L 307.637868 50.788849 
L 308.612806 52.065334 
L 309.262765 53.238288 
L 309.912724 54.752596 
L 310.562684 56.702474 
L 311.212643 59.206742 
L 311.862602 62.412445 
L 312.512561 66.495925 
L 313.16252 71.65798 
L 313.812479 78.107992 
L 314.787417 90.582397 
L 315.762356 106.562572 
L 318.362192 154.193118 
L 318.687172 156.866675 
L 319.012151 157.221818 
L 319.337131 155.374968 
L 319.98709 148.02342 
L 321.936967 123.547203 
L 322.911905 113.951776 
L 323.886844 106.14907 
L 324.861783 99.818714 
L 325.836721 94.657248 
L 326.81166 90.414202 
L 328.111578 85.852256 
L 329.411496 82.232798 
L 330.711414 79.312901 
L 332.011332 76.92082 
L 333.31125 74.933572 
L 334.936148 72.884928 
L 336.561046 71.205611 
L 338.510923 69.556263 
L 340.4608 68.207782 
L 342.735656 66.918599 
L 345.335493 65.724024 
L 348.260308 64.64097 
L 351.510104 63.673365 
L 355.409858 62.747777 
L 359.959571 61.897903 
L 365.484223 61.096167 
L 372.308793 60.34072 
L 380.758261 59.640314 
L 391.482585 58.987246 
L 391.482585 58.987246 
" clip-path="url(#p0bc849a2d5)" style="fill: none; stroke: #d62728; stroke-width: 1.5; stroke-linecap: square"/>
   </g>
   <g id="patch_3">
    <path d="M 50.595313 162.72 
L 50.595313 41.76 
" style="fill: none; stroke: #000000; stroke-width: 0.8; stroke-linejoin: miter; stroke-linecap: square"/>
   </g>
   <g id="patch_4">
    <path d="M 407.715312 162.72 
L 407.715312 41.76 
" style="fill: none; stroke: #000000; stroke-width: 0.8; stroke-linejoin: miter; stroke-linecap: square"/>
   </g>
   <g id="patch_5">
    <path d="M 50.595313 162.72 
L 407.715313 162.72 
" style="fill: none; stroke: #000000; stroke-width: 0.8; stroke-linejoin: miter; stroke-linecap: square"/>
   </g>
   <g id="patch_6">
    <path d="M 50.595313 41.76 
L 407.715313 41.76 
" style="fill: none; stroke: #000000; stroke-width: 0.8; stroke-linejoin: miter; stroke-linecap: square"/>
   </g>
   <g id="text_7">
    <g id="patch_7">
     <path d="M 425.571312 95.079562 
L 564.971312 95.079562 
Q 568.971312 95.079562 568.971312 91.079562 
L 568.971312 47.808 
Q 568.971312 43.808 564.971312 43.808 
L 425.571312 43.808 
Q 421.571312 43.808 421.571312 47.808 
L 421.571312 91.079562 
Q 421.571312 95.079562 425.571312 95.079562 
z
" style="fill: #ffffff; opacity: 0.5; stroke: #000000; stroke-linejoin: miter"/>
    </g>
    <!-- Summary -->
    <g transform="translate(425.571312 55.406437) scale(0.1 -0.1)">
     <defs>
      <path id="DejaVuSans-53" d="M 3425 4513 
L 3425 3897 
Q 3066 4069 2747 4153 
Q 2428 4238 2131 4238 
Q 1616 4238 1336 4038 
Q 1056 3838 1056 3469 
Q 1056 3159 1242 3001 
Q 1428 2844 1947 2747 
L 2328 2669 
Q 3034 2534 3370 2195 
Q 3706 1856 3706 1288 
Q 3706 609 3251 259 
Q 2797 -91 1919 -91 
Q 1588 -91 1214 -16 
Q 841 59 441 206 
L 441 856 
Q 825 641 1194 531 
Q 1563 422 1919 422 
Q 2459 422 2753 634 
Q 3047 847 3047 1241 
Q 3047 1584 2836 1778 
Q 2625 1972 2144 2069 
L 1759 2144 
Q 1053 2284 737 2584 
Q 422 2884 422 3419 
Q 422 4038 858 4394 
Q 1294 4750 2059 4750 
Q 2388 4750 2728 4690 
Q 3069 4631 3425 4513 
z
" transform="scale(0.015625)"/>
      <path id="DejaVuSans-75" d="M 544 1381 
L 544 3500 
L 1119 3500 
L 1119 1403 
Q 1119 906 1312 657 
Q 1506 409 1894 409 
Q 2359 409 2629 706 
Q 2900 1003 2900 1516 
L 2900 3500 
L 3475 3500 
L 3475 0 
L 2900 0 
L 2900 538 
Q 2691 219 2414 64 
Q 2138 -91 1772 -91 
Q 1169 -91 856 284 
Q 544 659 544 1381 
z
M 1991 3584 
L 1991 3584 
z
" transform="scale(0.015625)"/>
      <path id="DejaVuSans-61" d="M 2194 1759 
Q 1497 1759 1228 1600 
Q 959 1441 959 1056 
Q 959 750 1161 570 
Q 1363 391 1709 391 
Q 2188 391 2477 730 
Q 2766 1069 2766 1631 
L 2766 1759 
L 2194 1759 
z
M 3341 1997 
L 3341 0 
L 2766 0 
L 2766 531 
Q 2569 213 2275 61 
Q 1981 -91 1556 -91 
Q 1019 -91 701 211 
Q 384 513 384 1019 
Q 384 1609 779 1909 
Q 1175 2209 1959 2209 
L 2766 2209 
L 2766 2266 
Q 2766 2663 2505 2880 
Q 2244 3097 1772 3097 
Q 1472 3097 1187 3025 
Q 903 2953 641 2809 
L 641 3341 
Q 956 3463 1253 3523 
Q 1550 3584 1831 3584 
Q 2591 3584 2966 3190 
Q 3341 2797 3341 1997 
z
" transform="scale(0.015625)"/>
      <path id="DejaVuSans-72" d="M 2631 2963 
Q 2534 3019 2420 3045 
Q 2306 3072 2169 3072 
Q 1681 3072 1420 2755 
Q 1159 2438 1159 1844 
L 1159 0 
L 581 0 
L 581 3500 
L 1159 3500 
L 1159 2956 
Q 1341 3275 1631 3429 
Q 1922 3584 2338 3584 
Q 2397 3584 2469 3576 
Q 2541 3569 2628 3553 
L 2631 2963 
z
" transform="scale(0.015625)"/>
      <path id="DejaVuSans-79" d="M 2059 -325 
Q 1816 -950 1584 -1140 
Q 1353 -1331 966 -1331 
L 506 -1331 
L 506 -850 
L 844 -850 
Q 1081 -850 1212 -737 
Q 1344 -625 1503 -206 
L 1606 56 
L 191 3500 
L 800 3500 
L 1894 763 
L 2988 3500 
L 3597 3500 
L 2059 -325 
z
" transform="scale(0.015625)"/>
     </defs>
     <use xlink:href="#DejaVuSans-53"/>
     <use xlink:href="#DejaVuSans-75" x="63.476562"/>
     <use xlink:href="#DejaVuSans-6d" x="126.855469"/>
     <use xlink:href="#DejaVuSans-6d" x="224.267578"/>
     <use xlink:href="#DejaVuSans-61" x="321.679688"/>
     <use xlink:href="#DejaVuSans-72" x="382.958984"/>
     <use xlink:href="#DejaVuSans-79" x="424.072266"/>
    </g>
    <!-- $Q_I$: 21.7$\pm$1.2 k -->
    <g transform="translate(425.571312 66.60425) scale(0.1 -0.1)">
     <defs>
      <path id="DejaVuSans-Oblique-51" d="M 2309 -84 
Q 2275 -88 2237 -89 
Q 2200 -91 2125 -91 
Q 1250 -91 756 411 
Q 263 913 263 1797 
Q 263 2319 452 2844 
Q 641 3369 978 3788 
Q 1369 4269 1858 4509 
Q 2347 4750 2938 4750 
Q 3794 4750 4287 4245 
Q 4781 3741 4781 2869 
Q 4781 1928 4265 1147 
Q 3750 366 2919 44 
L 3553 -825 
L 2847 -825 
L 2309 -84 
z
M 2919 4238 
Q 2400 4238 2003 3986 
Q 1606 3734 1313 3219 
Q 1125 2891 1026 2522 
Q 928 2153 928 1778 
Q 928 1128 1239 775 
Q 1550 422 2119 422 
Q 2631 422 3032 676 
Q 3434 931 3719 1434 
Q 3909 1772 4009 2142 
Q 4109 2513 4109 2881 
Q 4109 3528 3796 3883 
Q 3484 4238 2919 4238 
z
" transform="scale(0.015625)"/>
      <path id="DejaVuSans-Oblique-49" d="M 1081 4666 
L 1716 4666 
L 806 0 
L 172 0 
L 1081 4666 
z
" transform="scale(0.015625)"/>
      <path id="DejaVuSans-3a" d="M 750 794 
L 1409 794 
L 1409 0 
L 750 0 
L 750 794 
z
M 750 3309 
L 1409 3309 
L 1409 2516 
L 750 2516 
L 750 3309 
z
" transform="scale(0.015625)"/>
      <path id="DejaVuSans-2e" d="M 684 794 
L 1344 794 
L 1344 0 
L 684 0 
L 684 794 
z
" transform="scale(0.015625)"/>
      <path id="DejaVuSans-37" d="M 525 4666 
L 3525 4666 
L 3525 4397 
L 1831 0 
L 1172 0 
L 2766 4134 
L 525 4134 
L 525 4666 
z
" transform="scale(0.015625)"/>
      <path id="DejaVuSans-b1" d="M 2944 4013 
L 2944 2803 
L 4684 2803 
L 4684 2272 
L 2944 2272 
L 2944 1063 
L 2419 1063 
L 2419 2272 
L 678 2272 
L 678 2803 
L 2419 2803 
L 2419 4013 
L 2944 4013 
z
M 678 531 
L 4684 531 
L 4684 0 
L 678 0 
L 678 531 
z
" transform="scale(0.015625)"/>
      <path id="DejaVuSans-6b" d="M 581 4863 
L 1159 4863 
L 1159 1991 
L 2875 3500 
L 3609 3500 
L 1753 1863 
L 3688 0 
L 2938 0 
L 1159 1709 
L 1159 0 
L 581 0 
L 581 4863 
z
" transform="scale(0.015625)"/>
     </defs>
     <use xlink:href="#DejaVuSans-Oblique-51" transform="translate(0 0.015625)"/>
     <use xlink:href="#DejaVuSans-Oblique-49" transform="translate(78.710938 -16.390625) scale(0.7)"/>
     <use xlink:href="#DejaVuSans-3a" transform="translate(102.089844 0.015625)"/>
     <use xlink:href="#DejaVuSans-20" transform="translate(135.78125 0.015625)"/>
     <use xlink:href="#DejaVuSans-32" transform="translate(167.568359 0.015625)"/>
     <use xlink:href="#DejaVuSans-31" transform="translate(231.191406 0.015625)"/>
     <use xlink:href="#DejaVuSans-2e" transform="translate(294.814453 0.015625)"/>
     <use xlink:href="#DejaVuSans-37" transform="translate(318.851562 0.015625)"/>
     <use xlink:href="#DejaVuSans-b1" transform="translate(382.474609 0.015625)"/>
     <use xlink:href="#DejaVuSans-31" transform="translate(466.263672 0.015625)"/>
     <use xlink:href="#DejaVuSans-2e" transform="translate(529.886719 0.015625)"/>
     <use xlink:href="#DejaVuSans-32" transform="translate(556.173828 0.015625)"/>
     <use xlink:href="#DejaVuSans-20" transform="translate(619.796875 0.015625)"/>
     <use xlink:href="#DejaVuSans-6b" transform="translate(651.583984 0.015625)"/>
    </g>
    <!-- $Q_C$: 4.217$\pm$0.042 k -->
    <g transform="translate(425.571312 77.802062) scale(0.1 -0.1)">
     <defs>
      <path id="DejaVuSans-Oblique-43" d="M 4447 4306 
L 4319 3641 
Q 4019 3944 3683 4091 
Q 3347 4238 2956 4238 
Q 2422 4238 2017 3981 
Q 1613 3725 1319 3200 
Q 1131 2863 1032 2486 
Q 934 2109 934 1728 
Q 934 1091 1264 756 
Q 1594 422 2222 422 
Q 2656 422 3056 561 
Q 3456 700 3834 978 
L 3688 231 
Q 3316 72 2936 -9 
Q 2556 -91 2175 -91 
Q 1278 -91 773 396 
Q 269 884 269 1753 
Q 269 2309 461 2846 
Q 653 3384 1013 3828 
Q 1394 4300 1883 4525 
Q 2372 4750 3022 4750 
Q 3422 4750 3780 4639 
Q 4138 4528 4447 4306 
z
" transform="scale(0.015625)"/>
     </defs>
     <use xlink:href="#DejaVuSans-Oblique-51" transform="translate(0 0.015625)"/>
     <use xlink:href="#DejaVuSans-Oblique-43" transform="translate(78.710938 -16.390625) scale(0.7)"/>
     <use xlink:href="#DejaVuSans-3a" transform="translate(130.322266 0.015625)"/>
     <use xlink:href="#DejaVuSans-20" transform="translate(164.013672 0.015625)"/>
     <use xlink:href="#DejaVuSans-34" transform="translate(195.800781 0.015625)"/>
     <use xlink:href="#DejaVuSans-2e" transform="translate(259.423828 0.015625)"/>
     <use xlink:href="#DejaVuSans-32" transform="translate(285.710938 0.015625)"/>
     <use xlink:href="#DejaVuSans-31" transform="translate(349.333984 0.015625)"/>
     <use xlink:href="#DejaVuSans-37" transform="translate(412.957031 0.015625)"/>
     <use xlink:href="#DejaVuSans-b1" transform="translate(476.580078 0.015625)"/>
     <use xlink:href="#DejaVuSans-30" transform="translate(560.369141 0.015625)"/>
     <use xlink:href="#DejaVuSans-2e" transform="translate(623.992188 0.015625)"/>
     <use xlink:href="#DejaVuSans-30" transform="translate(655.779297 0.015625)"/>
     <use xlink:href="#DejaVuSans-34" transform="translate(719.402344 0.015625)"/>
     <use xlink:href="#DejaVuSans-32" transform="translate(783.025391 0.015625)"/>
     <use xlink:href="#DejaVuSans-20" transform="translate(846.648438 0.015625)"/>
     <use xlink:href="#DejaVuSans-6b" transform="translate(878.435547 0.015625)"/>
    </g>
    <!-- $f_{res}$: 5.913522$\pm$1.1e-05 GHz -->
    <g transform="translate(425.571312 88.999875) scale(0.1 -0.1)">
     <defs>
      <path id="DejaVuSans-Oblique-66" d="M 3059 4863 
L 2969 4384 
L 2419 4384 
Q 2106 4384 1964 4261 
Q 1822 4138 1753 3809 
L 1691 3500 
L 2638 3500 
L 2553 3053 
L 1606 3053 
L 1013 0 
L 434 0 
L 1031 3053 
L 481 3053 
L 563 3500 
L 1113 3500 
L 1159 3744 
Q 1278 4363 1576 4613 
Q 1875 4863 2516 4863 
L 3059 4863 
z
" transform="scale(0.015625)"/>
      <path id="DejaVuSans-Oblique-72" d="M 2853 2969 
Q 2766 3016 2653 3041 
Q 2541 3066 2413 3066 
Q 1953 3066 1609 2717 
Q 1266 2369 1153 1784 
L 800 0 
L 225 0 
L 909 3500 
L 1484 3500 
L 1375 2956 
Q 1603 3259 1920 3421 
Q 2238 3584 2597 3584 
Q 2691 3584 2781 3573 
Q 2872 3563 2963 3538 
L 2853 2969 
z
" transform="scale(0.015625)"/>
      <path id="DejaVuSans-Oblique-65" d="M 3078 2063 
Q 3088 2113 3092 2166 
Q 3097 2219 3097 2272 
Q 3097 2653 2873 2875 
Q 2650 3097 2266 3097 
Q 1838 3097 1509 2826 
Q 1181 2556 1013 2059 
L 3078 2063 
z
M 3578 1613 
L 903 1613 
Q 884 1494 878 1425 
Q 872 1356 872 1306 
Q 872 872 1139 634 
Q 1406 397 1894 397 
Q 2269 397 2603 481 
Q 2938 566 3225 728 
L 3116 159 
Q 2806 34 2476 -28 
Q 2147 -91 1806 -91 
Q 1078 -91 686 257 
Q 294 606 294 1247 
Q 294 1794 489 2264 
Q 684 2734 1063 3103 
Q 1306 3334 1642 3459 
Q 1978 3584 2356 3584 
Q 2950 3584 3301 3228 
Q 3653 2872 3653 2272 
Q 3653 2128 3634 1964 
Q 3616 1800 3578 1613 
z
" transform="scale(0.015625)"/>
      <path id="DejaVuSans-Oblique-73" d="M 3200 3397 
L 3091 2853 
Q 2863 2978 2609 3040 
Q 2356 3103 2088 3103 
Q 1634 3103 1373 2948 
Q 1113 2794 1113 2528 
Q 1113 2219 1719 2053 
Q 1766 2041 1788 2034 
L 1972 1978 
Q 2547 1819 2739 1644 
Q 2931 1469 2931 1166 
Q 2931 609 2489 259 
Q 2047 -91 1331 -91 
Q 1053 -91 747 -37 
Q 441 16 72 128 
L 184 722 
Q 500 559 806 475 
Q 1113 391 1394 391 
Q 1816 391 2080 572 
Q 2344 753 2344 1031 
Q 2344 1331 1650 1516 
L 1591 1531 
L 1394 1581 
Q 956 1697 753 1886 
Q 550 2075 550 2369 
Q 550 2928 970 3256 
Q 1391 3584 2113 3584 
Q 2397 3584 2667 3537 
Q 2938 3491 3200 3397 
z
" transform="scale(0.015625)"/>
      <path id="DejaVuSans-35" d="M 691 4666 
L 3169 4666 
L 3169 4134 
L 1269 4134 
L 1269 2991 
Q 1406 3038 1543 3061 
Q 1681 3084 1819 3084 
Q 2600 3084 3056 2656 
Q 3513 2228 3513 1497 
Q 3513 744 3044 326 
Q 2575 -91 1722 -91 
Q 1428 -91 1123 -41 
Q 819 9 494 109 
L 494 744 
Q 775 591 1075 516 
Q 1375 441 1709 441 
Q 2250 441 2565 725 
Q 2881 1009 2881 1497 
Q 2881 1984 2565 2268 
Q 2250 2553 1709 2553 
Q 1456 2553 1204 2497 
Q 953 2441 691 2322 
L 691 4666 
z
" transform="scale(0.015625)"/>
      <path id="DejaVuSans-39" d="M 703 97 
L 703 672 
Q 941 559 1184 500 
Q 1428 441 1663 441 
Q 2288 441 2617 861 
Q 2947 1281 2994 2138 
Q 2813 1869 2534 1725 
Q 2256 1581 1919 1581 
Q 1219 1581 811 2004 
Q 403 2428 403 3163 
Q 403 3881 828 4315 
Q 1253 4750 1959 4750 
Q 2769 4750 3195 4129 
Q 3622 3509 3622 2328 
Q 3622 1225 3098 567 
Q 2575 -91 1691 -91 
Q 1453 -91 1209 -44 
Q 966 3 703 97 
z
M 1959 2075 
Q 2384 2075 2632 2365 
Q 2881 2656 2881 3163 
Q 2881 3666 2632 3958 
Q 2384 4250 1959 4250 
Q 1534 4250 1286 3958 
Q 1038 3666 1038 3163 
Q 1038 2656 1286 2365 
Q 1534 2075 1959 2075 
z
" transform="scale(0.015625)"/>
      <path id="DejaVuSans-33" d="M 2597 2516 
Q 3050 2419 3304 2112 
Q 3559 1806 3559 1356 
Q 3559 666 3084 287 
Q 2609 -91 1734 -91 
Q 1441 -91 1130 -33 
Q 819 25 488 141 
L 488 750 
Q 750 597 1062 519 
Q 1375 441 1716 441 
Q 2309 441 2620 675 
Q 2931 909 2931 1356 
Q 2931 1769 2642 2001 
Q 2353 2234 1838 2234 
L 1294 2234 
L 1294 2753 
L 1863 2753 
Q 2328 2753 2575 2939 
Q 2822 3125 2822 3475 
Q 2822 3834 2567 4026 
Q 2313 4219 1838 4219 
Q 1578 4219 1281 4162 
Q 984 4106 628 3988 
L 628 4550 
Q 988 4650 1302 4700 
Q 1616 4750 1894 4750 
Q 2613 4750 3031 4423 
Q 3450 4097 3450 3541 
Q 3450 3153 3228 2886 
Q 3006 2619 2597 2516 
z
" transform="scale(0.015625)"/>
      <path id="DejaVuSans-65" d="M 3597 1894 
L 3597 1613 
L 953 1613 
Q 991 1019 1311 708 
Q 1631 397 2203 397 
Q 2534 397 2845 478 
Q 3156 559 3463 722 
L 3463 178 
Q 3153 47 2828 -22 
Q 2503 -91 2169 -91 
Q 1331 -91 842 396 
Q 353 884 353 1716 
Q 353 2575 817 3079 
Q 1281 3584 2069 3584 
Q 2775 3584 3186 3129 
Q 3597 2675 3597 1894 
z
M 3022 2063 
Q 3016 2534 2758 2815 
Q 2500 3097 2075 3097 
Q 1594 3097 1305 2825 
Q 1016 2553 972 2059 
L 3022 2063 
z
" transform="scale(0.015625)"/>
      <path id="DejaVuSans-2d" d="M 313 2009 
L 1997 2009 
L 1997 1497 
L 313 1497 
L 313 2009 
z
" transform="scale(0.015625)"/>
      <path id="DejaVuSans-47" d="M 3809 666 
L 3809 1919 
L 2778 1919 
L 2778 2438 
L 4434 2438 
L 4434 434 
Q 4069 175 3628 42 
Q 3188 -91 2688 -91 
Q 1594 -91 976 548 
Q 359 1188 359 2328 
Q 359 3472 976 4111 
Q 1594 4750 2688 4750 
Q 3144 4750 3555 4637 
Q 3966 4525 4313 4306 
L 4313 3634 
Q 3963 3931 3569 4081 
Q 3175 4231 2741 4231 
Q 1884 4231 1454 3753 
Q 1025 3275 1025 2328 
Q 1025 1384 1454 906 
Q 1884 428 2741 428 
Q 3075 428 3337 486 
Q 3600 544 3809 666 
z
" transform="scale(0.015625)"/>
      <path id="DejaVuSans-48" d="M 628 4666 
L 1259 4666 
L 1259 2753 
L 3553 2753 
L 3553 4666 
L 4184 4666 
L 4184 0 
L 3553 0 
L 3553 2222 
L 1259 2222 
L 1259 0 
L 628 0 
L 628 4666 
z
" transform="scale(0.015625)"/>
      <path id="DejaVuSans-7a" d="M 353 3500 
L 3084 3500 
L 3084 2975 
L 922 459 
L 3084 459 
L 3084 0 
L 275 0 
L 275 525 
L 2438 3041 
L 353 3041 
L 353 3500 
z
" transform="scale(0.015625)"/>
     </defs>
     <use xlink:href="#DejaVuSans-Oblique-66" transform="translate(0 0.015625)"/>
     <use xlink:href="#DejaVuSans-Oblique-72" transform="translate(35.205078 -16.390625) scale(0.7)"/>
     <use xlink:href="#DejaVuSans-Oblique-65" transform="translate(63.984375 -16.390625) scale(0.7)"/>
     <use xlink:href="#DejaVuSans-Oblique-73" transform="translate(107.050781 -16.390625) scale(0.7)"/>
     <use xlink:href="#DejaVuSans-3a" transform="translate(146.254883 0.015625)"/>
     <use xlink:href="#DejaVuSans-20" transform="translate(179.946289 0.015625)"/>
     <use xlink:href="#DejaVuSans-35" transform="translate(211.733398 0.015625)"/>
     <use xlink:href="#DejaVuSans-2e" transform="translate(275.356445 0.015625)"/>
     <use xlink:href="#DejaVuSans-39" transform="translate(307.143555 0.015625)"/>
     <use xlink:href="#DejaVuSans-31" transform="translate(370.766602 0.015625)"/>
     <use xlink:href="#DejaVuSans-33" transform="translate(434.389648 0.015625)"/>
     <use xlink:href="#DejaVuSans-35" transform="translate(498.012695 0.015625)"/>
     <use xlink:href="#DejaVuSans-32" transform="translate(561.635742 0.015625)"/>
     <use xlink:href="#DejaVuSans-32" transform="translate(625.258789 0.015625)"/>
     <use xlink:href="#DejaVuSans-b1" transform="translate(688.881836 0.015625)"/>
     <use xlink:href="#DejaVuSans-31" transform="translate(772.670898 0.015625)"/>
     <use xlink:href="#DejaVuSans-2e" transform="translate(836.293945 0.015625)"/>
     <use xlink:href="#DejaVuSans-31" transform="translate(868.081055 0.015625)"/>
     <use xlink:href="#DejaVuSans-65" transform="translate(931.704102 0.015625)"/>
     <use xlink:href="#DejaVuSans-2d" transform="translate(993.227539 0.015625)"/>
     <use xlink:href="#DejaVuSans-30" transform="translate(1029.311523 0.015625)"/>
     <use xlink:href="#DejaVuSans-35" transform="translate(1092.93457 0.015625)"/>
     <use xlink:href="#DejaVuSans-20" transform="translate(1156.557617 0.015625)"/>
     <use xlink:href="#DejaVuSans-47" transform="translate(1188.344727 0.015625)"/>
     <use xlink:href="#DejaVuSans-48" transform="translate(1265.834961 0.015625)"/>
     <use xlink:href="#DejaVuSans-7a" transform="translate(1341.030273 0.015625)"/>
    </g>
   </g>
  </g>
  <g id="axes_2">
   <g id="patch_8">
    <path d="M 50.595313 307.872 
L 407.715312 307.872 
L 407.715312 186.912 
L 50.595313 186.912 
z
" style="fill: #ffffff"/>
   </g>
   <g id="matplotlib.axis_3">
    <g id="xtick_6">
     <g id="line2d_13">
      <g>
       <use xlink:href="#m7607df7c5f" x="99.293494" y="307.872" style="stroke: #000000; stroke-width: 0.8"/>
      </g>
     </g>
     <g id="text_8">
      <!-- 880 -->
      <g transform="translate(89.749744 322.470438) scale(0.1 -0.1)">
       <use xlink:href="#DejaVuSans-38"/>
       <use xlink:href="#DejaVuSans-38" x="63.623047"/>
       <use xlink:href="#DejaVuSans-30" x="127.246094"/>
      </g>
     </g>
    </g>
    <g id="xtick_7">
     <g id="line2d_14">
      <g>
       <use xlink:href="#m7607df7c5f" x="164.224403" y="307.872" style="stroke: #000000; stroke-width: 0.8"/>
      </g>
     </g>
     <g id="text_9">
      <!-- 890 -->
      <g transform="translate(154.680653 322.470438) scale(0.1 -0.1)">
       <use xlink:href="#DejaVuSans-38"/>
       <use xlink:href="#DejaVuSans-39" x="63.623047"/>
       <use xlink:href="#DejaVuSans-30" x="127.246094"/>
      </g>
     </g>
    </g>
    <g id="xtick_8">
     <g id="line2d_15">
      <g>
       <use xlink:href="#m7607df7c5f" x="229.155313" y="307.872" style="stroke: #000000; stroke-width: 0.8"/>
      </g>
     </g>
     <g id="text_10">
      <!-- 900 -->
      <g transform="translate(219.611563 322.470438) scale(0.1 -0.1)">
       <use xlink:href="#DejaVuSans-39"/>
       <use xlink:href="#DejaVuSans-30" x="63.623047"/>
       <use xlink:href="#DejaVuSans-30" x="127.246094"/>
      </g>
     </g>
    </g>
    <g id="xtick_9">
     <g id="line2d_16">
      <g>
       <use xlink:href="#m7607df7c5f" x="294.086222" y="307.872" style="stroke: #000000; stroke-width: 0.8"/>
      </g>
     </g>
     <g id="text_11">
      <!-- 910 -->
      <g transform="translate(284.542472 322.470438) scale(0.1 -0.1)">
       <use xlink:href="#DejaVuSans-39"/>
       <use xlink:href="#DejaVuSans-31" x="63.623047"/>
       <use xlink:href="#DejaVuSans-30" x="127.246094"/>
      </g>
     </g>
    </g>
    <g id="xtick_10">
     <g id="line2d_17">
      <g>
       <use xlink:href="#m7607df7c5f" x="359.017131" y="307.872" style="stroke: #000000; stroke-width: 0.8"/>
      </g>
     </g>
     <g id="text_12">
      <!-- 920 -->
      <g transform="translate(349.473381 322.470438) scale(0.1 -0.1)">
       <use xlink:href="#DejaVuSans-39"/>
       <use xlink:href="#DejaVuSans-32" x="63.623047"/>
       <use xlink:href="#DejaVuSans-30" x="127.246094"/>
      </g>
     </g>
    </g>
    <g id="text_13">
     <!-- Frequency [MHz] -->
     <g transform="translate(187.136562 336.148562) scale(0.1 -0.1)">
      <defs>
       <path id="DejaVuSans-46" d="M 628 4666 
L 3309 4666 
L 3309 4134 
L 1259 4134 
L 1259 2759 
L 3109 2759 
L 3109 2228 
L 1259 2228 
L 1259 0 
L 628 0 
L 628 4666 
z
" transform="scale(0.015625)"/>
       <path id="DejaVuSans-71" d="M 947 1747 
Q 947 1113 1208 752 
Q 1469 391 1925 391 
Q 2381 391 2643 752 
Q 2906 1113 2906 1747 
Q 2906 2381 2643 2742 
Q 2381 3103 1925 3103 
Q 1469 3103 1208 2742 
Q 947 2381 947 1747 
z
M 2906 525 
Q 2725 213 2448 61 
Q 2172 -91 1784 -91 
Q 1150 -91 751 415 
Q 353 922 353 1747 
Q 353 2572 751 3078 
Q 1150 3584 1784 3584 
Q 2172 3584 2448 3432 
Q 2725 3281 2906 2969 
L 2906 3500 
L 3481 3500 
L 3481 -1331 
L 2906 -1331 
L 2906 525 
z
" transform="scale(0.015625)"/>
       <path id="DejaVuSans-6e" d="M 3513 2113 
L 3513 0 
L 2938 0 
L 2938 2094 
Q 2938 2591 2744 2837 
Q 2550 3084 2163 3084 
Q 1697 3084 1428 2787 
Q 1159 2491 1159 1978 
L 1159 0 
L 581 0 
L 581 3500 
L 1159 3500 
L 1159 2956 
Q 1366 3272 1645 3428 
Q 1925 3584 2291 3584 
Q 2894 3584 3203 3211 
Q 3513 2838 3513 2113 
z
" transform="scale(0.015625)"/>
       <path id="DejaVuSans-63" d="M 3122 3366 
L 3122 2828 
Q 2878 2963 2633 3030 
Q 2388 3097 2138 3097 
Q 1578 3097 1268 2742 
Q 959 2388 959 1747 
Q 959 1106 1268 751 
Q 1578 397 2138 397 
Q 2388 397 2633 464 
Q 2878 531 3122 666 
L 3122 134 
Q 2881 22 2623 -34 
Q 2366 -91 2075 -91 
Q 1284 -91 818 406 
Q 353 903 353 1747 
Q 353 2603 823 3093 
Q 1294 3584 2113 3584 
Q 2378 3584 2631 3529 
Q 2884 3475 3122 3366 
z
" transform="scale(0.015625)"/>
       <path id="DejaVuSans-4d" d="M 628 4666 
L 1569 4666 
L 2759 1491 
L 3956 4666 
L 4897 4666 
L 4897 0 
L 4281 0 
L 4281 4097 
L 3078 897 
L 2444 897 
L 1241 4097 
L 1241 0 
L 628 0 
L 628 4666 
z
" transform="scale(0.015625)"/>
      </defs>
      <use xlink:href="#DejaVuSans-46"/>
      <use xlink:href="#DejaVuSans-72" x="50.269531"/>
      <use xlink:href="#DejaVuSans-65" x="89.132812"/>
      <use xlink:href="#DejaVuSans-71" x="150.65625"/>
      <use xlink:href="#DejaVuSans-75" x="214.132812"/>
      <use xlink:href="#DejaVuSans-65" x="277.511719"/>
      <use xlink:href="#DejaVuSans-6e" x="339.035156"/>
      <use xlink:href="#DejaVuSans-63" x="402.414062"/>
      <use xlink:href="#DejaVuSans-79" x="457.394531"/>
      <use xlink:href="#DejaVuSans-20" x="516.574219"/>
      <use xlink:href="#DejaVuSans-5b" x="548.361328"/>
      <use xlink:href="#DejaVuSans-4d" x="587.375"/>
      <use xlink:href="#DejaVuSans-48" x="673.654297"/>
      <use xlink:href="#DejaVuSans-7a" x="748.849609"/>
      <use xlink:href="#DejaVuSans-5d" x="801.339844"/>
     </g>
    </g>
    <g id="text_14">
     <!-- +5 GHz -->
     <g transform="translate(369.277812 335.148562) scale(0.1 -0.1)">
      <defs>
       <path id="DejaVuSans-2b" d="M 2944 4013 
L 2944 2272 
L 4684 2272 
L 4684 1741 
L 2944 1741 
L 2944 0 
L 2419 0 
L 2419 1741 
L 678 1741 
L 678 2272 
L 2419 2272 
L 2419 4013 
L 2944 4013 
z
" transform="scale(0.015625)"/>
      </defs>
      <use xlink:href="#DejaVuSans-2b"/>
      <use xlink:href="#DejaVuSans-35" x="83.789062"/>
      <use xlink:href="#DejaVuSans-20" x="147.412109"/>
      <use xlink:href="#DejaVuSans-47" x="179.199219"/>
      <use xlink:href="#DejaVuSans-48" x="256.689453"/>
      <use xlink:href="#DejaVuSans-7a" x="331.884766"/>
     </g>
    </g>
   </g>
   <g id="matplotlib.axis_4">
    <g id="ytick_6">
     <g id="line2d_18">
      <g>
       <use xlink:href="#m772b205fe2" x="50.595313" y="277.937957" style="stroke: #000000; stroke-width: 0.8"/>
      </g>
     </g>
     <g id="text_15">
      <!-- -100 -->
      <g transform="translate(20.9 281.737175) scale(0.1 -0.1)">
       <use xlink:href="#DejaVuSans-2d"/>
       <use xlink:href="#DejaVuSans-31" x="36.083984"/>
       <use xlink:href="#DejaVuSans-30" x="99.707031"/>
       <use xlink:href="#DejaVuSans-30" x="163.330078"/>
      </g>
     </g>
    </g>
    <g id="ytick_7">
     <g id="line2d_19">
      <g>
       <use xlink:href="#m772b205fe2" x="50.595313" y="247.374814" style="stroke: #000000; stroke-width: 0.8"/>
      </g>
     </g>
     <g id="text_16">
      <!-- 0 -->
      <g transform="translate(37.232813 251.174033) scale(0.1 -0.1)">
       <use xlink:href="#DejaVuSans-30"/>
      </g>
     </g>
    </g>
    <g id="ytick_8">
     <g id="line2d_20">
      <g>
       <use xlink:href="#m772b205fe2" x="50.595313" y="216.811672" style="stroke: #000000; stroke-width: 0.8"/>
      </g>
     </g>
     <g id="text_17">
      <!-- 100 -->
      <g transform="translate(24.507813 220.610891) scale(0.1 -0.1)">
       <use xlink:href="#DejaVuSans-31"/>
       <use xlink:href="#DejaVuSans-30" x="63.623047"/>
       <use xlink:href="#DejaVuSans-30" x="127.246094"/>
      </g>
     </g>
    </g>
    <g id="text_18">
     <!-- $\angle S_{21}$ [deg] -->
     <g transform="translate(14.8 274.592) rotate(-90) scale(0.1 -0.1)">
      <defs>
       <path id="DejaVuSans-2220" d="M 5028 631 
L 5028 0 
L 547 0 
L 3525 4666 
L 4281 4666 
L 1716 631 
L 5028 631 
z
" transform="scale(0.015625)"/>
       <path id="DejaVuSans-64" d="M 2906 2969 
L 2906 4863 
L 3481 4863 
L 3481 0 
L 2906 0 
L 2906 525 
Q 2725 213 2448 61 
Q 2172 -91 1784 -91 
Q 1150 -91 751 415 
Q 353 922 353 1747 
Q 353 2572 751 3078 
Q 1150 3584 1784 3584 
Q 2172 3584 2448 3432 
Q 2725 3281 2906 2969 
z
M 947 1747 
Q 947 1113 1208 752 
Q 1469 391 1925 391 
Q 2381 391 2643 752 
Q 2906 1113 2906 1747 
Q 2906 2381 2643 2742 
Q 2381 3103 1925 3103 
Q 1469 3103 1208 2742 
Q 947 2381 947 1747 
z
" transform="scale(0.015625)"/>
       <path id="DejaVuSans-67" d="M 2906 1791 
Q 2906 2416 2648 2759 
Q 2391 3103 1925 3103 
Q 1463 3103 1205 2759 
Q 947 2416 947 1791 
Q 947 1169 1205 825 
Q 1463 481 1925 481 
Q 2391 481 2648 825 
Q 2906 1169 2906 1791 
z
M 3481 434 
Q 3481 -459 3084 -895 
Q 2688 -1331 1869 -1331 
Q 1566 -1331 1297 -1286 
Q 1028 -1241 775 -1147 
L 775 -588 
Q 1028 -725 1275 -790 
Q 1522 -856 1778 -856 
Q 2344 -856 2625 -561 
Q 2906 -266 2906 331 
L 2906 616 
Q 2728 306 2450 153 
Q 2172 0 1784 0 
Q 1141 0 747 490 
Q 353 981 353 1791 
Q 353 2603 747 3093 
Q 1141 3584 1784 3584 
Q 2172 3584 2450 3431 
Q 2728 3278 2906 2969 
L 2906 3500 
L 3481 3500 
L 3481 434 
z
" transform="scale(0.015625)"/>
      </defs>
      <use xlink:href="#DejaVuSans-2220" transform="translate(0 0.015625)"/>
      <use xlink:href="#DejaVuSans-Oblique-53" transform="translate(89.648438 0.015625)"/>
      <use xlink:href="#DejaVuSans-32" transform="translate(153.125 -16.390625) scale(0.7)"/>
      <use xlink:href="#DejaVuSans-31" transform="translate(197.661133 -16.390625) scale(0.7)"/>
      <use xlink:href="#DejaVuSans-20" transform="translate(244.931641 0.015625)"/>
      <use xlink:href="#DejaVuSans-5b" transform="translate(276.71875 0.015625)"/>
      <use xlink:href="#DejaVuSans-64" transform="translate(315.732422 0.015625)"/>
      <use xlink:href="#DejaVuSans-65" transform="translate(379.208984 0.015625)"/>
      <use xlink:href="#DejaVuSans-67" transform="translate(440.732422 0.015625)"/>
      <use xlink:href="#DejaVuSans-5d" transform="translate(504.208984 0.015625)"/>
     </g>
    </g>
   </g>
   <g id="line2d_21">
    <path d="M 66.82804 244.674637 
L 70.0909 244.775152 
L 71.722329 245.161846 
L 73.353759 245.675295 
L 74.985189 246.061499 
L 79.879479 246.638756 
L 83.142339 247.369527 
L 84.773768 247.847013 
L 86.405198 247.745799 
L 88.036628 248.760425 
L 89.668058 248.66707 
L 92.930918 249.19384 
L 94.562348 249.750838 
L 96.193778 249.992666 
L 97.825207 250.088783 
L 99.456637 250.759172 
L 101.088067 250.772594 
L 102.719497 251.113351 
L 107.613787 252.460858 
L 109.245217 252.353016 
L 110.876646 252.896265 
L 112.508076 253.043 
L 114.139506 253.521162 
L 115.770936 253.631209 
L 117.402366 254.026017 
L 119.033796 254.207598 
L 120.665226 254.71905 
L 122.296656 254.872374 
L 123.928085 255.163519 
L 125.559515 255.329169 
L 127.190945 255.899136 
L 128.822375 255.776893 
L 130.453805 256.530106 
L 132.085235 256.696125 
L 133.716665 257.047539 
L 135.348095 257.20073 
L 136.979524 257.628388 
L 138.610954 257.831624 
L 140.242384 258.390979 
L 141.873814 258.425047 
L 143.505244 258.959476 
L 148.399534 259.855774 
L 150.030963 259.897582 
L 151.662393 260.392251 
L 153.293823 260.671318 
L 154.925253 260.764172 
L 156.556683 261.22347 
L 159.819543 261.767257 
L 161.450973 262.347815 
L 163.082402 262.681284 
L 164.713832 262.640078 
L 166.345262 263.137384 
L 167.976692 263.340332 
L 169.608122 263.78043 
L 171.239552 264.071806 
L 172.870982 264.184716 
L 174.502412 264.5697 
L 176.133842 264.832504 
L 179.396701 265.842769 
L 181.028131 266.05832 
L 182.659561 266.501807 
L 184.290991 266.715331 
L 185.922421 267.051911 
L 187.553851 267.234052 
L 189.185281 267.569526 
L 190.81671 268.077004 
L 192.44814 268.39072 
L 194.07957 268.515278 
L 195.711 268.801977 
L 198.97386 269.599369 
L 202.23672 270.044432 
L 207.131009 271.096417 
L 210.393869 271.632842 
L 212.025299 272.138258 
L 213.656729 272.490515 
L 215.288159 272.524755 
L 216.919588 272.988132 
L 220.182448 273.624389 
L 221.813878 274.012165 
L 223.445308 274.105164 
L 225.076738 274.8067 
L 226.708168 275.007071 
L 228.339598 275.456597 
L 233.233887 276.070252 
L 236.496747 277.100819 
L 238.128177 277.356168 
L 239.759607 277.411459 
L 241.391037 277.690569 
L 243.022466 278.118049 
L 246.285326 278.666396 
L 247.916756 279.068582 
L 249.548186 279.198582 
L 252.811046 280.032973 
L 254.442476 280.098989 
L 257.705335 280.946424 
L 259.336765 281.023021 
L 260.968195 281.601779 
L 262.599625 281.909982 
L 264.231055 281.986262 
L 265.862485 282.355869 
L 267.493915 282.853861 
L 269.125344 283.065603 
L 272.388204 283.959148 
L 274.019634 284.068163 
L 277.282494 284.885059 
L 278.913924 285.031959 
L 282.176783 286.033796 
L 283.808213 285.865846 
L 285.439643 286.85452 
L 288.702503 287.267422 
L 290.333933 288.149761 
L 291.965363 288.228188 
L 293.596793 289.088138 
L 296.859652 289.885455 
L 298.491082 290.713714 
L 301.753942 291.856539 
L 303.385372 292.634394 
L 305.016802 293.647717 
L 309.911091 297.884912 
L 311.542521 300.664817 
L 313.173951 193.33703 
L 316.436811 200.508386 
L 318.068241 195.197823 
L 319.699671 285.079807 
L 321.331101 280.951 
L 322.96253 282.936877 
L 324.59396 283.637013 
L 326.22539 285.098729 
L 327.85682 285.849675 
L 329.48825 287.375803 
L 331.11968 287.530822 
L 332.75111 287.877199 
L 336.013969 289.541989 
L 337.645399 290.00739 
L 339.276829 290.872172 
L 340.908259 290.990202 
L 342.539689 291.634105 
L 344.171119 292.100195 
L 345.802549 292.414941 
L 347.433979 292.894618 
L 349.065408 293.023837 
L 350.696838 293.544314 
L 352.328268 293.773457 
L 355.591128 294.589954 
L 357.222558 294.852326 
L 358.853988 295.572059 
L 360.485418 295.96047 
L 362.116847 295.961918 
L 363.748277 296.820286 
L 365.379707 296.774834 
L 370.273997 297.786977 
L 371.905427 298.076677 
L 373.536857 298.583214 
L 375.168286 298.840363 
L 376.799716 299.313529 
L 378.431146 298.899438 
L 380.062576 299.784487 
L 383.325436 300.356802 
L 384.956866 300.662631 
L 386.588296 300.7886 
L 388.219725 301.336186 
L 391.482585 301.870522 
L 391.482585 301.870522 
" clip-path="url(#p8f83ff3203)" style="fill: none; stroke: #1f77b4; stroke-width: 1.5; stroke-linecap: square"/>
    <g clip-path="url(#p8f83ff3203)">
     <use xlink:href="#m286e048bf1" x="66.82804" y="244.674637" style="fill: #1f77b4; stroke: #1f77b4"/>
     <use xlink:href="#m286e048bf1" x="68.45947" y="244.752263" style="fill: #1f77b4; stroke: #1f77b4"/>
     <use xlink:href="#m286e048bf1" x="70.0909" y="244.775152" style="fill: #1f77b4; stroke: #1f77b4"/>
     <use xlink:href="#m286e048bf1" x="71.722329" y="245.161846" style="fill: #1f77b4; stroke: #1f77b4"/>
     <use xlink:href="#m286e048bf1" x="73.353759" y="245.675295" style="fill: #1f77b4; stroke: #1f77b4"/>
     <use xlink:href="#m286e048bf1" x="74.985189" y="246.061499" style="fill: #1f77b4; stroke: #1f77b4"/>
     <use xlink:href="#m286e048bf1" x="76.616619" y="246.217658" style="fill: #1f77b4; stroke: #1f77b4"/>
     <use xlink:href="#m286e048bf1" x="78.248049" y="246.458831" style="fill: #1f77b4; stroke: #1f77b4"/>
     <use xlink:href="#m286e048bf1" x="79.879479" y="246.638756" style="fill: #1f77b4; stroke: #1f77b4"/>
     <use xlink:href="#m286e048bf1" x="81.510909" y="246.995158" style="fill: #1f77b4; stroke: #1f77b4"/>
     <use xlink:href="#m286e048bf1" x="83.142339" y="247.369527" style="fill: #1f77b4; stroke: #1f77b4"/>
     <use xlink:href="#m286e048bf1" x="84.773768" y="247.847013" style="fill: #1f77b4; stroke: #1f77b4"/>
     <use xlink:href="#m286e048bf1" x="86.405198" y="247.745799" style="fill: #1f77b4; stroke: #1f77b4"/>
     <use xlink:href="#m286e048bf1" x="88.036628" y="248.760425" style="fill: #1f77b4; stroke: #1f77b4"/>
     <use xlink:href="#m286e048bf1" x="89.668058" y="248.66707" style="fill: #1f77b4; stroke: #1f77b4"/>
     <use xlink:href="#m286e048bf1" x="91.299488" y="248.929969" style="fill: #1f77b4; stroke: #1f77b4"/>
     <use xlink:href="#m286e048bf1" x="92.930918" y="249.19384" style="fill: #1f77b4; stroke: #1f77b4"/>
     <use xlink:href="#m286e048bf1" x="94.562348" y="249.750838" style="fill: #1f77b4; stroke: #1f77b4"/>
     <use xlink:href="#m286e048bf1" x="96.193778" y="249.992666" style="fill: #1f77b4; stroke: #1f77b4"/>
     <use xlink:href="#m286e048bf1" x="97.825207" y="250.088783" style="fill: #1f77b4; stroke: #1f77b4"/>
     <use xlink:href="#m286e048bf1" x="99.456637" y="250.759172" style="fill: #1f77b4; stroke: #1f77b4"/>
     <use xlink:href="#m286e048bf1" x="101.088067" y="250.772594" style="fill: #1f77b4; stroke: #1f77b4"/>
     <use xlink:href="#m286e048bf1" x="102.719497" y="251.113351" style="fill: #1f77b4; stroke: #1f77b4"/>
     <use xlink:href="#m286e048bf1" x="104.350927" y="251.584002" style="fill: #1f77b4; stroke: #1f77b4"/>
     <use xlink:href="#m286e048bf1" x="105.982357" y="251.945122" style="fill: #1f77b4; stroke: #1f77b4"/>
     <use xlink:href="#m286e048bf1" x="107.613787" y="252.460858" style="fill: #1f77b4; stroke: #1f77b4"/>
     <use xlink:href="#m286e048bf1" x="109.245217" y="252.353016" style="fill: #1f77b4; stroke: #1f77b4"/>
     <use xlink:href="#m286e048bf1" x="110.876646" y="252.896265" style="fill: #1f77b4; stroke: #1f77b4"/>
     <use xlink:href="#m286e048bf1" x="112.508076" y="253.043" style="fill: #1f77b4; stroke: #1f77b4"/>
     <use xlink:href="#m286e048bf1" x="114.139506" y="253.521162" style="fill: #1f77b4; stroke: #1f77b4"/>
     <use xlink:href="#m286e048bf1" x="115.770936" y="253.631209" style="fill: #1f77b4; stroke: #1f77b4"/>
     <use xlink:href="#m286e048bf1" x="117.402366" y="254.026017" style="fill: #1f77b4; stroke: #1f77b4"/>
     <use xlink:href="#m286e048bf1" x="119.033796" y="254.207598" style="fill: #1f77b4; stroke: #1f77b4"/>
     <use xlink:href="#m286e048bf1" x="120.665226" y="254.71905" style="fill: #1f77b4; stroke: #1f77b4"/>
     <use xlink:href="#m286e048bf1" x="122.296656" y="254.872374" style="fill: #1f77b4; stroke: #1f77b4"/>
     <use xlink:href="#m286e048bf1" x="123.928085" y="255.163519" style="fill: #1f77b4; stroke: #1f77b4"/>
     <use xlink:href="#m286e048bf1" x="125.559515" y="255.329169" style="fill: #1f77b4; stroke: #1f77b4"/>
     <use xlink:href="#m286e048bf1" x="127.190945" y="255.899136" style="fill: #1f77b4; stroke: #1f77b4"/>
     <use xlink:href="#m286e048bf1" x="128.822375" y="255.776893" style="fill: #1f77b4; stroke: #1f77b4"/>
     <use xlink:href="#m286e048bf1" x="130.453805" y="256.530106" style="fill: #1f77b4; stroke: #1f77b4"/>
     <use xlink:href="#m286e048bf1" x="132.085235" y="256.696125" style="fill: #1f77b4; stroke: #1f77b4"/>
     <use xlink:href="#m286e048bf1" x="133.716665" y="257.047539" style="fill: #1f77b4; stroke: #1f77b4"/>
     <use xlink:href="#m286e048bf1" x="135.348095" y="257.20073" style="fill: #1f77b4; stroke: #1f77b4"/>
     <use xlink:href="#m286e048bf1" x="136.979524" y="257.628388" style="fill: #1f77b4; stroke: #1f77b4"/>
     <use xlink:href="#m286e048bf1" x="138.610954" y="257.831624" style="fill: #1f77b4; stroke: #1f77b4"/>
     <use xlink:href="#m286e048bf1" x="140.242384" y="258.390979" style="fill: #1f77b4; stroke: #1f77b4"/>
     <use xlink:href="#m286e048bf1" x="141.873814" y="258.425047" style="fill: #1f77b4; stroke: #1f77b4"/>
     <use xlink:href="#m286e048bf1" x="143.505244" y="258.959476" style="fill: #1f77b4; stroke: #1f77b4"/>
     <use xlink:href="#m286e048bf1" x="145.136674" y="259.245" style="fill: #1f77b4; stroke: #1f77b4"/>
     <use xlink:href="#m286e048bf1" x="146.768104" y="259.568136" style="fill: #1f77b4; stroke: #1f77b4"/>
     <use xlink:href="#m286e048bf1" x="148.399534" y="259.855774" style="fill: #1f77b4; stroke: #1f77b4"/>
     <use xlink:href="#m286e048bf1" x="150.030963" y="259.897582" style="fill: #1f77b4; stroke: #1f77b4"/>
     <use xlink:href="#m286e048bf1" x="151.662393" y="260.392251" style="fill: #1f77b4; stroke: #1f77b4"/>
     <use xlink:href="#m286e048bf1" x="153.293823" y="260.671318" style="fill: #1f77b4; stroke: #1f77b4"/>
     <use xlink:href="#m286e048bf1" x="154.925253" y="260.764172" style="fill: #1f77b4; stroke: #1f77b4"/>
     <use xlink:href="#m286e048bf1" x="156.556683" y="261.22347" style="fill: #1f77b4; stroke: #1f77b4"/>
     <use xlink:href="#m286e048bf1" x="158.188113" y="261.469183" style="fill: #1f77b4; stroke: #1f77b4"/>
     <use xlink:href="#m286e048bf1" x="159.819543" y="261.767257" style="fill: #1f77b4; stroke: #1f77b4"/>
     <use xlink:href="#m286e048bf1" x="161.450973" y="262.347815" style="fill: #1f77b4; stroke: #1f77b4"/>
     <use xlink:href="#m286e048bf1" x="163.082402" y="262.681284" style="fill: #1f77b4; stroke: #1f77b4"/>
     <use xlink:href="#m286e048bf1" x="164.713832" y="262.640078" style="fill: #1f77b4; stroke: #1f77b4"/>
     <use xlink:href="#m286e048bf1" x="166.345262" y="263.137384" style="fill: #1f77b4; stroke: #1f77b4"/>
     <use xlink:href="#m286e048bf1" x="167.976692" y="263.340332" style="fill: #1f77b4; stroke: #1f77b4"/>
     <use xlink:href="#m286e048bf1" x="169.608122" y="263.78043" style="fill: #1f77b4; stroke: #1f77b4"/>
     <use xlink:href="#m286e048bf1" x="171.239552" y="264.071806" style="fill: #1f77b4; stroke: #1f77b4"/>
     <use xlink:href="#m286e048bf1" x="172.870982" y="264.184716" style="fill: #1f77b4; stroke: #1f77b4"/>
     <use xlink:href="#m286e048bf1" x="174.502412" y="264.5697" style="fill: #1f77b4; stroke: #1f77b4"/>
     <use xlink:href="#m286e048bf1" x="176.133842" y="264.832504" style="fill: #1f77b4; stroke: #1f77b4"/>
     <use xlink:href="#m286e048bf1" x="177.765271" y="265.36301" style="fill: #1f77b4; stroke: #1f77b4"/>
     <use xlink:href="#m286e048bf1" x="179.396701" y="265.842769" style="fill: #1f77b4; stroke: #1f77b4"/>
     <use xlink:href="#m286e048bf1" x="181.028131" y="266.05832" style="fill: #1f77b4; stroke: #1f77b4"/>
     <use xlink:href="#m286e048bf1" x="182.659561" y="266.501807" style="fill: #1f77b4; stroke: #1f77b4"/>
     <use xlink:href="#m286e048bf1" x="184.290991" y="266.715331" style="fill: #1f77b4; stroke: #1f77b4"/>
     <use xlink:href="#m286e048bf1" x="185.922421" y="267.051911" style="fill: #1f77b4; stroke: #1f77b4"/>
     <use xlink:href="#m286e048bf1" x="187.553851" y="267.234052" style="fill: #1f77b4; stroke: #1f77b4"/>
     <use xlink:href="#m286e048bf1" x="189.185281" y="267.569526" style="fill: #1f77b4; stroke: #1f77b4"/>
     <use xlink:href="#m286e048bf1" x="190.81671" y="268.077004" style="fill: #1f77b4; stroke: #1f77b4"/>
     <use xlink:href="#m286e048bf1" x="192.44814" y="268.39072" style="fill: #1f77b4; stroke: #1f77b4"/>
     <use xlink:href="#m286e048bf1" x="194.07957" y="268.515278" style="fill: #1f77b4; stroke: #1f77b4"/>
     <use xlink:href="#m286e048bf1" x="195.711" y="268.801977" style="fill: #1f77b4; stroke: #1f77b4"/>
     <use xlink:href="#m286e048bf1" x="197.34243" y="269.238575" style="fill: #1f77b4; stroke: #1f77b4"/>
     <use xlink:href="#m286e048bf1" x="198.97386" y="269.599369" style="fill: #1f77b4; stroke: #1f77b4"/>
     <use xlink:href="#m286e048bf1" x="200.60529" y="269.832574" style="fill: #1f77b4; stroke: #1f77b4"/>
     <use xlink:href="#m286e048bf1" x="202.23672" y="270.044432" style="fill: #1f77b4; stroke: #1f77b4"/>
     <use xlink:href="#m286e048bf1" x="203.868149" y="270.423451" style="fill: #1f77b4; stroke: #1f77b4"/>
     <use xlink:href="#m286e048bf1" x="205.499579" y="270.737191" style="fill: #1f77b4; stroke: #1f77b4"/>
     <use xlink:href="#m286e048bf1" x="207.131009" y="271.096417" style="fill: #1f77b4; stroke: #1f77b4"/>
     <use xlink:href="#m286e048bf1" x="208.762439" y="271.345924" style="fill: #1f77b4; stroke: #1f77b4"/>
     <use xlink:href="#m286e048bf1" x="210.393869" y="271.632842" style="fill: #1f77b4; stroke: #1f77b4"/>
     <use xlink:href="#m286e048bf1" x="212.025299" y="272.138258" style="fill: #1f77b4; stroke: #1f77b4"/>
     <use xlink:href="#m286e048bf1" x="213.656729" y="272.490515" style="fill: #1f77b4; stroke: #1f77b4"/>
     <use xlink:href="#m286e048bf1" x="215.288159" y="272.524755" style="fill: #1f77b4; stroke: #1f77b4"/>
     <use xlink:href="#m286e048bf1" x="216.919588" y="272.988132" style="fill: #1f77b4; stroke: #1f77b4"/>
     <use xlink:href="#m286e048bf1" x="218.551018" y="273.251755" style="fill: #1f77b4; stroke: #1f77b4"/>
     <use xlink:href="#m286e048bf1" x="220.182448" y="273.624389" style="fill: #1f77b4; stroke: #1f77b4"/>
     <use xlink:href="#m286e048bf1" x="221.813878" y="274.012165" style="fill: #1f77b4; stroke: #1f77b4"/>
     <use xlink:href="#m286e048bf1" x="223.445308" y="274.105164" style="fill: #1f77b4; stroke: #1f77b4"/>
     <use xlink:href="#m286e048bf1" x="225.076738" y="274.8067" style="fill: #1f77b4; stroke: #1f77b4"/>
     <use xlink:href="#m286e048bf1" x="226.708168" y="275.007071" style="fill: #1f77b4; stroke: #1f77b4"/>
     <use xlink:href="#m286e048bf1" x="228.339598" y="275.456597" style="fill: #1f77b4; stroke: #1f77b4"/>
     <use xlink:href="#m286e048bf1" x="229.971027" y="275.690372" style="fill: #1f77b4; stroke: #1f77b4"/>
     <use xlink:href="#m286e048bf1" x="231.602457" y="275.837969" style="fill: #1f77b4; stroke: #1f77b4"/>
     <use xlink:href="#m286e048bf1" x="233.233887" y="276.070252" style="fill: #1f77b4; stroke: #1f77b4"/>
     <use xlink:href="#m286e048bf1" x="234.865317" y="276.577676" style="fill: #1f77b4; stroke: #1f77b4"/>
     <use xlink:href="#m286e048bf1" x="236.496747" y="277.100819" style="fill: #1f77b4; stroke: #1f77b4"/>
     <use xlink:href="#m286e048bf1" x="238.128177" y="277.356168" style="fill: #1f77b4; stroke: #1f77b4"/>
     <use xlink:href="#m286e048bf1" x="239.759607" y="277.411459" style="fill: #1f77b4; stroke: #1f77b4"/>
     <use xlink:href="#m286e048bf1" x="241.391037" y="277.690569" style="fill: #1f77b4; stroke: #1f77b4"/>
     <use xlink:href="#m286e048bf1" x="243.022466" y="278.118049" style="fill: #1f77b4; stroke: #1f77b4"/>
     <use xlink:href="#m286e048bf1" x="244.653896" y="278.388958" style="fill: #1f77b4; stroke: #1f77b4"/>
     <use xlink:href="#m286e048bf1" x="246.285326" y="278.666396" style="fill: #1f77b4; stroke: #1f77b4"/>
     <use xlink:href="#m286e048bf1" x="247.916756" y="279.068582" style="fill: #1f77b4; stroke: #1f77b4"/>
     <use xlink:href="#m286e048bf1" x="249.548186" y="279.198582" style="fill: #1f77b4; stroke: #1f77b4"/>
     <use xlink:href="#m286e048bf1" x="251.179616" y="279.606587" style="fill: #1f77b4; stroke: #1f77b4"/>
     <use xlink:href="#m286e048bf1" x="252.811046" y="280.032973" style="fill: #1f77b4; stroke: #1f77b4"/>
     <use xlink:href="#m286e048bf1" x="254.442476" y="280.098989" style="fill: #1f77b4; stroke: #1f77b4"/>
     <use xlink:href="#m286e048bf1" x="256.073905" y="280.520747" style="fill: #1f77b4; stroke: #1f77b4"/>
     <use xlink:href="#m286e048bf1" x="257.705335" y="280.946424" style="fill: #1f77b4; stroke: #1f77b4"/>
     <use xlink:href="#m286e048bf1" x="259.336765" y="281.023021" style="fill: #1f77b4; stroke: #1f77b4"/>
     <use xlink:href="#m286e048bf1" x="260.968195" y="281.601779" style="fill: #1f77b4; stroke: #1f77b4"/>
     <use xlink:href="#m286e048bf1" x="262.599625" y="281.909982" style="fill: #1f77b4; stroke: #1f77b4"/>
     <use xlink:href="#m286e048bf1" x="264.231055" y="281.986262" style="fill: #1f77b4; stroke: #1f77b4"/>
     <use xlink:href="#m286e048bf1" x="265.862485" y="282.355869" style="fill: #1f77b4; stroke: #1f77b4"/>
     <use xlink:href="#m286e048bf1" x="267.493915" y="282.853861" style="fill: #1f77b4; stroke: #1f77b4"/>
     <use xlink:href="#m286e048bf1" x="269.125344" y="283.065603" style="fill: #1f77b4; stroke: #1f77b4"/>
     <use xlink:href="#m286e048bf1" x="270.756774" y="283.535873" style="fill: #1f77b4; stroke: #1f77b4"/>
     <use xlink:href="#m286e048bf1" x="272.388204" y="283.959148" style="fill: #1f77b4; stroke: #1f77b4"/>
     <use xlink:href="#m286e048bf1" x="274.019634" y="284.068163" style="fill: #1f77b4; stroke: #1f77b4"/>
     <use xlink:href="#m286e048bf1" x="275.651064" y="284.512096" style="fill: #1f77b4; stroke: #1f77b4"/>
     <use xlink:href="#m286e048bf1" x="277.282494" y="284.885059" style="fill: #1f77b4; stroke: #1f77b4"/>
     <use xlink:href="#m286e048bf1" x="278.913924" y="285.031959" style="fill: #1f77b4; stroke: #1f77b4"/>
     <use xlink:href="#m286e048bf1" x="280.545354" y="285.528242" style="fill: #1f77b4; stroke: #1f77b4"/>
     <use xlink:href="#m286e048bf1" x="282.176783" y="286.033796" style="fill: #1f77b4; stroke: #1f77b4"/>
     <use xlink:href="#m286e048bf1" x="283.808213" y="285.865846" style="fill: #1f77b4; stroke: #1f77b4"/>
     <use xlink:href="#m286e048bf1" x="285.439643" y="286.85452" style="fill: #1f77b4; stroke: #1f77b4"/>
     <use xlink:href="#m286e048bf1" x="287.071073" y="287.065428" style="fill: #1f77b4; stroke: #1f77b4"/>
     <use xlink:href="#m286e048bf1" x="288.702503" y="287.267422" style="fill: #1f77b4; stroke: #1f77b4"/>
     <use xlink:href="#m286e048bf1" x="290.333933" y="288.149761" style="fill: #1f77b4; stroke: #1f77b4"/>
     <use xlink:href="#m286e048bf1" x="291.965363" y="288.228188" style="fill: #1f77b4; stroke: #1f77b4"/>
     <use xlink:href="#m286e048bf1" x="293.596793" y="289.088138" style="fill: #1f77b4; stroke: #1f77b4"/>
     <use xlink:href="#m286e048bf1" x="295.228223" y="289.516245" style="fill: #1f77b4; stroke: #1f77b4"/>
     <use xlink:href="#m286e048bf1" x="296.859652" y="289.885455" style="fill: #1f77b4; stroke: #1f77b4"/>
     <use xlink:href="#m286e048bf1" x="298.491082" y="290.713714" style="fill: #1f77b4; stroke: #1f77b4"/>
     <use xlink:href="#m286e048bf1" x="300.122512" y="291.276096" style="fill: #1f77b4; stroke: #1f77b4"/>
     <use xlink:href="#m286e048bf1" x="301.753942" y="291.856539" style="fill: #1f77b4; stroke: #1f77b4"/>
     <use xlink:href="#m286e048bf1" x="303.385372" y="292.634394" style="fill: #1f77b4; stroke: #1f77b4"/>
     <use xlink:href="#m286e048bf1" x="305.016802" y="293.647717" style="fill: #1f77b4; stroke: #1f77b4"/>
     <use xlink:href="#m286e048bf1" x="306.648232" y="295.027141" style="fill: #1f77b4; stroke: #1f77b4"/>
     <use xlink:href="#m286e048bf1" x="308.279662" y="296.498296" style="fill: #1f77b4; stroke: #1f77b4"/>
     <use xlink:href="#m286e048bf1" x="309.911091" y="297.884912" style="fill: #1f77b4; stroke: #1f77b4"/>
     <use xlink:href="#m286e048bf1" x="311.542521" y="300.664817" style="fill: #1f77b4; stroke: #1f77b4"/>
     <use xlink:href="#m286e048bf1" x="313.173951" y="193.33703" style="fill: #1f77b4; stroke: #1f77b4"/>
     <use xlink:href="#m286e048bf1" x="314.805381" y="196.941459" style="fill: #1f77b4; stroke: #1f77b4"/>
     <use xlink:href="#m286e048bf1" x="316.436811" y="200.508386" style="fill: #1f77b4; stroke: #1f77b4"/>
     <use xlink:href="#m286e048bf1" x="318.068241" y="195.197823" style="fill: #1f77b4; stroke: #1f77b4"/>
     <use xlink:href="#m286e048bf1" x="319.699671" y="285.079807" style="fill: #1f77b4; stroke: #1f77b4"/>
     <use xlink:href="#m286e048bf1" x="321.331101" y="280.951" style="fill: #1f77b4; stroke: #1f77b4"/>
     <use xlink:href="#m286e048bf1" x="322.96253" y="282.936877" style="fill: #1f77b4; stroke: #1f77b4"/>
     <use xlink:href="#m286e048bf1" x="324.59396" y="283.637013" style="fill: #1f77b4; stroke: #1f77b4"/>
     <use xlink:href="#m286e048bf1" x="326.22539" y="285.098729" style="fill: #1f77b4; stroke: #1f77b4"/>
     <use xlink:href="#m286e048bf1" x="327.85682" y="285.849675" style="fill: #1f77b4; stroke: #1f77b4"/>
     <use xlink:href="#m286e048bf1" x="329.48825" y="287.375803" style="fill: #1f77b4; stroke: #1f77b4"/>
     <use xlink:href="#m286e048bf1" x="331.11968" y="287.530822" style="fill: #1f77b4; stroke: #1f77b4"/>
     <use xlink:href="#m286e048bf1" x="332.75111" y="287.877199" style="fill: #1f77b4; stroke: #1f77b4"/>
     <use xlink:href="#m286e048bf1" x="334.38254" y="288.666393" style="fill: #1f77b4; stroke: #1f77b4"/>
     <use xlink:href="#m286e048bf1" x="336.013969" y="289.541989" style="fill: #1f77b4; stroke: #1f77b4"/>
     <use xlink:href="#m286e048bf1" x="337.645399" y="290.00739" style="fill: #1f77b4; stroke: #1f77b4"/>
     <use xlink:href="#m286e048bf1" x="339.276829" y="290.872172" style="fill: #1f77b4; stroke: #1f77b4"/>
     <use xlink:href="#m286e048bf1" x="340.908259" y="290.990202" style="fill: #1f77b4; stroke: #1f77b4"/>
     <use xlink:href="#m286e048bf1" x="342.539689" y="291.634105" style="fill: #1f77b4; stroke: #1f77b4"/>
     <use xlink:href="#m286e048bf1" x="344.171119" y="292.100195" style="fill: #1f77b4; stroke: #1f77b4"/>
     <use xlink:href="#m286e048bf1" x="345.802549" y="292.414941" style="fill: #1f77b4; stroke: #1f77b4"/>
     <use xlink:href="#m286e048bf1" x="347.433979" y="292.894618" style="fill: #1f77b4; stroke: #1f77b4"/>
     <use xlink:href="#m286e048bf1" x="349.065408" y="293.023837" style="fill: #1f77b4; stroke: #1f77b4"/>
     <use xlink:href="#m286e048bf1" x="350.696838" y="293.544314" style="fill: #1f77b4; stroke: #1f77b4"/>
     <use xlink:href="#m286e048bf1" x="352.328268" y="293.773457" style="fill: #1f77b4; stroke: #1f77b4"/>
     <use xlink:href="#m286e048bf1" x="353.959698" y="294.204804" style="fill: #1f77b4; stroke: #1f77b4"/>
     <use xlink:href="#m286e048bf1" x="355.591128" y="294.589954" style="fill: #1f77b4; stroke: #1f77b4"/>
     <use xlink:href="#m286e048bf1" x="357.222558" y="294.852326" style="fill: #1f77b4; stroke: #1f77b4"/>
     <use xlink:href="#m286e048bf1" x="358.853988" y="295.572059" style="fill: #1f77b4; stroke: #1f77b4"/>
     <use xlink:href="#m286e048bf1" x="360.485418" y="295.96047" style="fill: #1f77b4; stroke: #1f77b4"/>
     <use xlink:href="#m286e048bf1" x="362.116847" y="295.961918" style="fill: #1f77b4; stroke: #1f77b4"/>
     <use xlink:href="#m286e048bf1" x="363.748277" y="296.820286" style="fill: #1f77b4; stroke: #1f77b4"/>
     <use xlink:href="#m286e048bf1" x="365.379707" y="296.774834" style="fill: #1f77b4; stroke: #1f77b4"/>
     <use xlink:href="#m286e048bf1" x="367.011137" y="297.142771" style="fill: #1f77b4; stroke: #1f77b4"/>
     <use xlink:href="#m286e048bf1" x="368.642567" y="297.40283" style="fill: #1f77b4; stroke: #1f77b4"/>
     <use xlink:href="#m286e048bf1" x="370.273997" y="297.786977" style="fill: #1f77b4; stroke: #1f77b4"/>
     <use xlink:href="#m286e048bf1" x="371.905427" y="298.076677" style="fill: #1f77b4; stroke: #1f77b4"/>
     <use xlink:href="#m286e048bf1" x="373.536857" y="298.583214" style="fill: #1f77b4; stroke: #1f77b4"/>
     <use xlink:href="#m286e048bf1" x="375.168286" y="298.840363" style="fill: #1f77b4; stroke: #1f77b4"/>
     <use xlink:href="#m286e048bf1" x="376.799716" y="299.313529" style="fill: #1f77b4; stroke: #1f77b4"/>
     <use xlink:href="#m286e048bf1" x="378.431146" y="298.899438" style="fill: #1f77b4; stroke: #1f77b4"/>
     <use xlink:href="#m286e048bf1" x="380.062576" y="299.784487" style="fill: #1f77b4; stroke: #1f77b4"/>
     <use xlink:href="#m286e048bf1" x="381.694006" y="300.024668" style="fill: #1f77b4; stroke: #1f77b4"/>
     <use xlink:href="#m286e048bf1" x="383.325436" y="300.356802" style="fill: #1f77b4; stroke: #1f77b4"/>
     <use xlink:href="#m286e048bf1" x="384.956866" y="300.662631" style="fill: #1f77b4; stroke: #1f77b4"/>
     <use xlink:href="#m286e048bf1" x="386.588296" y="300.7886" style="fill: #1f77b4; stroke: #1f77b4"/>
     <use xlink:href="#m286e048bf1" x="388.219725" y="301.336186" style="fill: #1f77b4; stroke: #1f77b4"/>
     <use xlink:href="#m286e048bf1" x="389.851155" y="301.656056" style="fill: #1f77b4; stroke: #1f77b4"/>
     <use xlink:href="#m286e048bf1" x="391.482585" y="301.870522" style="fill: #1f77b4; stroke: #1f77b4"/>
    </g>
   </g>
   <g id="line2d_22">
    <path d="M 66.82804 244.809318 
L 177.646058 265.205936 
L 227.042946 274.499859 
L 253.691267 279.71812 
L 269.940243 283.107448 
L 280.664567 285.555817 
L 288.139096 287.477202 
L 293.663748 289.121003 
L 297.888482 290.613642 
L 301.138277 292.002482 
L 303.738113 293.361103 
L 305.687991 294.603131 
L 307.312888 295.8514 
L 308.937786 297.372439 
L 310.237704 298.855079 
L 311.537622 300.644975 
L 312.512561 302.227047 
L 312.83754 192.775679 
L 314.462438 195.968622 
L 316.087335 199.079777 
L 316.737294 199.753095 
L 317.062274 199.757279 
L 317.387254 199.383901 
L 317.712233 198.431387 
L 318.037213 196.589383 
L 318.362192 193.456946 
L 318.687172 298.871153 
L 319.337131 288.804843 
L 319.66211 285.527006 
L 319.98709 283.47924 
L 320.312069 282.266143 
L 320.637049 281.583578 
L 320.962028 281.23735 
L 321.287008 281.107495 
L 321.936967 281.223991 
L 322.911905 281.832704 
L 328.111578 285.706539 
L 330.386435 286.998317 
L 333.31125 288.375652 
L 336.561046 289.653253 
L 340.785779 291.062278 
L 346.310431 292.645671 
L 353.459981 294.446728 
L 363.209367 296.660628 
L 377.183486 299.589443 
L 391.157606 302.373818 
L 391.482585 192.410182 
L 391.482585 192.410182 
" clip-path="url(#p8f83ff3203)" style="fill: none; stroke: #d62728; stroke-width: 1.5; stroke-linecap: square"/>
   </g>
   <g id="patch_9">
    <path d="M 50.595313 307.872 
L 50.595313 186.912 
" style="fill: none; stroke: #000000; stroke-width: 0.8; stroke-linejoin: miter; stroke-linecap: square"/>
   </g>
   <g id="patch_10">
    <path d="M 407.715312 307.872 
L 407.715312 186.912 
" style="fill: none; stroke: #000000; stroke-width: 0.8; stroke-linejoin: miter; stroke-linecap: square"/>
   </g>
   <g id="patch_11">
    <path d="M 50.595313 307.872 
L 407.715313 307.872 
" style="fill: none; stroke: #000000; stroke-width: 0.8; stroke-linejoin: miter; stroke-linecap: square"/>
   </g>
   <g id="patch_12">
    <path d="M 50.595313 186.912 
L 407.715313 186.912 
" style="fill: none; stroke: #000000; stroke-width: 0.8; stroke-linejoin: miter; stroke-linecap: square"/>
   </g>
  </g>
  <g id="text_19">
   <!-- S21 One-tone -->
   <g transform="translate(182.144375 16.318125) scale(0.12 -0.12)">
    <defs>
     <path id="DejaVuSans-4f" d="M 2522 4238 
Q 1834 4238 1429 3725 
Q 1025 3213 1025 2328 
Q 1025 1447 1429 934 
Q 1834 422 2522 422 
Q 3209 422 3611 934 
Q 4013 1447 4013 2328 
Q 4013 3213 3611 3725 
Q 3209 4238 2522 4238 
z
M 2522 4750 
Q 3503 4750 4090 4092 
Q 4678 3434 4678 2328 
Q 4678 1225 4090 567 
Q 3503 -91 2522 -91 
Q 1538 -91 948 565 
Q 359 1222 359 2328 
Q 359 3434 948 4092 
Q 1538 4750 2522 4750 
z
" transform="scale(0.015625)"/>
     <path id="DejaVuSans-74" d="M 1172 4494 
L 1172 3500 
L 2356 3500 
L 2356 3053 
L 1172 3053 
L 1172 1153 
Q 1172 725 1289 603 
Q 1406 481 1766 481 
L 2356 481 
L 2356 0 
L 1766 0 
Q 1100 0 847 248 
Q 594 497 594 1153 
L 594 3053 
L 172 3053 
L 172 3500 
L 594 3500 
L 594 4494 
L 1172 4494 
z
" transform="scale(0.015625)"/>
     <path id="DejaVuSans-6f" d="M 1959 3097 
Q 1497 3097 1228 2736 
Q 959 2375 959 1747 
Q 959 1119 1226 758 
Q 1494 397 1959 397 
Q 2419 397 2687 759 
Q 2956 1122 2956 1747 
Q 2956 2369 2687 2733 
Q 2419 3097 1959 3097 
z
M 1959 3584 
Q 2709 3584 3137 3096 
Q 3566 2609 3566 1747 
Q 3566 888 3137 398 
Q 2709 -91 1959 -91 
Q 1206 -91 779 398 
Q 353 888 353 1747 
Q 353 2609 779 3096 
Q 1206 3584 1959 3584 
z
" transform="scale(0.015625)"/>
    </defs>
    <use xlink:href="#DejaVuSans-53"/>
    <use xlink:href="#DejaVuSans-32" x="63.476562"/>
    <use xlink:href="#DejaVuSans-31" x="127.099609"/>
    <use xlink:href="#DejaVuSans-20" x="190.722656"/>
    <use xlink:href="#DejaVuSans-4f" x="222.509766"/>
    <use xlink:href="#DejaVuSans-6e" x="301.220703"/>
    <use xlink:href="#DejaVuSans-65" x="364.599609"/>
    <use xlink:href="#DejaVuSans-2d" x="426.123047"/>
    <use xlink:href="#DejaVuSans-74" x="462.207031"/>
    <use xlink:href="#DejaVuSans-6f" x="501.416016"/>
    <use xlink:href="#DejaVuSans-6e" x="562.597656"/>
    <use xlink:href="#DejaVuSans-65" x="625.976562"/>
   </g>
   <!-- tuid: 20240223-102935-504-780c0b -->
   <g transform="translate(114.066875 29.7555) scale(0.12 -0.12)">
    <defs>
     <path id="DejaVuSans-69" d="M 603 3500 
L 1178 3500 
L 1178 0 
L 603 0 
L 603 3500 
z
M 603 4863 
L 1178 4863 
L 1178 4134 
L 603 4134 
L 603 4863 
z
" transform="scale(0.015625)"/>
     <path id="DejaVuSans-62" d="M 3116 1747 
Q 3116 2381 2855 2742 
Q 2594 3103 2138 3103 
Q 1681 3103 1420 2742 
Q 1159 2381 1159 1747 
Q 1159 1113 1420 752 
Q 1681 391 2138 391 
Q 2594 391 2855 752 
Q 3116 1113 3116 1747 
z
M 1159 2969 
Q 1341 3281 1617 3432 
Q 1894 3584 2278 3584 
Q 2916 3584 3314 3078 
Q 3713 2572 3713 1747 
Q 3713 922 3314 415 
Q 2916 -91 2278 -91 
Q 1894 -91 1617 61 
Q 1341 213 1159 525 
L 1159 0 
L 581 0 
L 581 4863 
L 1159 4863 
L 1159 2969 
z
" transform="scale(0.015625)"/>
    </defs>
    <use xlink:href="#DejaVuSans-74"/>
    <use xlink:href="#DejaVuSans-75" x="39.208984"/>
    <use xlink:href="#DejaVuSans-69" x="102.587891"/>
    <use xlink:href="#DejaVuSans-64" x="130.371094"/>
    <use xlink:href="#DejaVuSans-3a" x="193.847656"/>
    <use xlink:href="#DejaVuSans-20" x="227.539062"/>
    <use xlink:href="#DejaVuSans-32" x="259.326172"/>
    <use xlink:href="#DejaVuSans-30" x="322.949219"/>
    <use xlink:href="#DejaVuSans-32" x="386.572266"/>
    <use xlink:href="#DejaVuSans-34" x="450.195312"/>
    <use xlink:href="#DejaVuSans-30" x="513.818359"/>
    <use xlink:href="#DejaVuSans-32" x="577.441406"/>
    <use xlink:href="#DejaVuSans-32" x="641.064453"/>
    <use xlink:href="#DejaVuSans-33" x="704.6875"/>
    <use xlink:href="#DejaVuSans-2d" x="768.310547"/>
    <use xlink:href="#DejaVuSans-31" x="804.394531"/>
    <use xlink:href="#DejaVuSans-30" x="868.017578"/>
    <use xlink:href="#DejaVuSans-32" x="931.640625"/>
    <use xlink:href="#DejaVuSans-39" x="995.263672"/>
    <use xlink:href="#DejaVuSans-33" x="1058.886719"/>
    <use xlink:href="#DejaVuSans-35" x="1122.509766"/>
    <use xlink:href="#DejaVuSans-2d" x="1186.132812"/>
    <use xlink:href="#DejaVuSans-35" x="1222.216797"/>
    <use xlink:href="#DejaVuSans-30" x="1285.839844"/>
    <use xlink:href="#DejaVuSans-34" x="1349.462891"/>
    <use xlink:href="#DejaVuSans-2d" x="1413.085938"/>
    <use xlink:href="#DejaVuSans-37" x="1449.169922"/>
    <use xlink:href="#DejaVuSans-38" x="1512.792969"/>
    <use xlink:href="#DejaVuSans-30" x="1576.416016"/>
    <use xlink:href="#DejaVuSans-63" x="1640.039062"/>
    <use xlink:href="#DejaVuSans-30" x="1695.019531"/>
    <use xlink:href="#DejaVuSans-62" x="1758.642578"/>
   </g>
  </g>
 </g>
 <defs>
  <clipPath id="p0bc849a2d5">
   <rect x="50.595313" y="41.76" width="357.12" height="120.96"/>
  </clipPath>
  <clipPath id="p8f83ff3203">
   <rect x="50.595313" y="186.912" width="357.12" height="120.96"/>
  </clipPath>
 </defs>
</svg>
