<?xml version="1.0" encoding="utf-8" standalone="no"?>
<!DOCTYPE svg PUBLIC "-//W3C//DTD SVG 1.1//EN"
  "http://www.w3.org/Graphics/SVG/1.1/DTD/svg11.dtd">
<svg xmlns:xlink="http://www.w3.org/1999/xlink" width="640.6635pt" height="345.42825pt" viewBox="0 0 640.6635 345.42825" xmlns="http://www.w3.org/2000/svg" version="1.1">
 <metadata>
  <rdf:RDF xmlns:dc="http://purl.org/dc/elements/1.1/" xmlns:cc="http://creativecommons.org/ns#" xmlns:rdf="http://www.w3.org/1999/02/22-rdf-syntax-ns#">
   <cc:Work>
    <dc:type rdf:resource="http://purl.org/dc/dcmitype/StillImage"/>
    <dc:date>2024-02-26T10:55:54.779820</dc:date>
    <dc:format>image/svg+xml</dc:format>
    <dc:creator>
     <cc:Agent>
      <dc:title>Matplotlib v3.8.2, https://matplotlib.org/</dc:title>
     </cc:Agent>
    </dc:creator>
   </cc:Work>
  </rdf:RDF>
 </metadata>
 <defs>
  <style type="text/css">*{stroke-linejoin: round; stroke-linecap: butt}</style>
 </defs>
 <g id="figure_1">
  <g id="patch_1">
   <path d="M 0 345.42825 
L 640.6635 345.42825 
L 640.6635 -0 
L 0 -0 
L 0 345.42825 
z
" style="fill: none; opacity: 0"/>
  </g>
  <g id="axes_1">
   <g id="patch_2">
    <path d="M 40.603125 307.872 
L 397.723125 307.872 
L 397.723125 41.76 
L 40.603125 41.76 
z
" style="fill: #ffffff"/>
   </g>
   <g id="matplotlib.axis_1">
    <g id="xtick_1">
     <g id="line2d_1">
      <defs>
       <path id="m98d1de8e7b" d="M 0 0 
L 0 3.5 
" style="stroke: #000000; stroke-width: 0.8"/>
      </defs>
      <g>
       <use xlink:href="#m98d1de8e7b" x="70.560951" y="307.872" style="stroke: #000000; stroke-width: 0.8"/>
      </g>
     </g>
     <g id="text_1">
      <!-- 835 -->
      <g transform="translate(61.017201 322.470438) scale(0.1 -0.1)">
       <defs>
        <path id="DejaVuSans-38" d="M 2034 2216 
Q 1584 2216 1326 1975 
Q 1069 1734 1069 1313 
Q 1069 891 1326 650 
Q 1584 409 2034 409 
Q 2484 409 2743 651 
Q 3003 894 3003 1313 
Q 3003 1734 2745 1975 
Q 2488 2216 2034 2216 
z
M 1403 2484 
Q 997 2584 770 2862 
Q 544 3141 544 3541 
Q 544 4100 942 4425 
Q 1341 4750 2034 4750 
Q 2731 4750 3128 4425 
Q 3525 4100 3525 3541 
Q 3525 3141 3298 2862 
Q 3072 2584 2669 2484 
Q 3125 2378 3379 2068 
Q 3634 1759 3634 1313 
Q 3634 634 3220 271 
Q 2806 -91 2034 -91 
Q 1263 -91 848 271 
Q 434 634 434 1313 
Q 434 1759 690 2068 
Q 947 2378 1403 2484 
z
M 1172 3481 
Q 1172 3119 1398 2916 
Q 1625 2713 2034 2713 
Q 2441 2713 2670 2916 
Q 2900 3119 2900 3481 
Q 2900 3844 2670 4047 
Q 2441 4250 2034 4250 
Q 1625 4250 1398 4047 
Q 1172 3844 1172 3481 
z
" transform="scale(0.015625)"/>
        <path id="DejaVuSans-33" d="M 2597 2516 
Q 3050 2419 3304 2112 
Q 3559 1806 3559 1356 
Q 3559 666 3084 287 
Q 2609 -91 1734 -91 
Q 1441 -91 1130 -33 
Q 819 25 488 141 
L 488 750 
Q 750 597 1062 519 
Q 1375 441 1716 441 
Q 2309 441 2620 675 
Q 2931 909 2931 1356 
Q 2931 1769 2642 2001 
Q 2353 2234 1838 2234 
L 1294 2234 
L 1294 2753 
L 1863 2753 
Q 2328 2753 2575 2939 
Q 2822 3125 2822 3475 
Q 2822 3834 2567 4026 
Q 2313 4219 1838 4219 
Q 1578 4219 1281 4162 
Q 984 4106 628 3988 
L 628 4550 
Q 988 4650 1302 4700 
Q 1616 4750 1894 4750 
Q 2613 4750 3031 4423 
Q 3450 4097 3450 3541 
Q 3450 3153 3228 2886 
Q 3006 2619 2597 2516 
z
" transform="scale(0.015625)"/>
        <path id="DejaVuSans-35" d="M 691 4666 
L 3169 4666 
L 3169 4134 
L 1269 4134 
L 1269 2991 
Q 1406 3038 1543 3061 
Q 1681 3084 1819 3084 
Q 2600 3084 3056 2656 
Q 3513 2228 3513 1497 
Q 3513 744 3044 326 
Q 2575 -91 1722 -91 
Q 1428 -91 1123 -41 
Q 819 9 494 109 
L 494 744 
Q 775 591 1075 516 
Q 1375 441 1709 441 
Q 2250 441 2565 725 
Q 2881 1009 2881 1497 
Q 2881 1984 2565 2268 
Q 2250 2553 1709 2553 
Q 1456 2553 1204 2497 
Q 953 2441 691 2322 
L 691 4666 
z
" transform="scale(0.015625)"/>
       </defs>
       <use xlink:href="#DejaVuSans-38"/>
       <use xlink:href="#DejaVuSans-33" x="63.623047"/>
       <use xlink:href="#DejaVuSans-35" x="127.246094"/>
      </g>
     </g>
    </g>
    <g id="xtick_2">
     <g id="line2d_2">
      <g>
       <use xlink:href="#m98d1de8e7b" x="124.670042" y="307.872" style="stroke: #000000; stroke-width: 0.8"/>
      </g>
     </g>
     <g id="text_2">
      <!-- 836 -->
      <g transform="translate(115.126292 322.470438) scale(0.1 -0.1)">
       <defs>
        <path id="DejaVuSans-36" d="M 2113 2584 
Q 1688 2584 1439 2293 
Q 1191 2003 1191 1497 
Q 1191 994 1439 701 
Q 1688 409 2113 409 
Q 2538 409 2786 701 
Q 3034 994 3034 1497 
Q 3034 2003 2786 2293 
Q 2538 2584 2113 2584 
z
M 3366 4563 
L 3366 3988 
Q 3128 4100 2886 4159 
Q 2644 4219 2406 4219 
Q 1781 4219 1451 3797 
Q 1122 3375 1075 2522 
Q 1259 2794 1537 2939 
Q 1816 3084 2150 3084 
Q 2853 3084 3261 2657 
Q 3669 2231 3669 1497 
Q 3669 778 3244 343 
Q 2819 -91 2113 -91 
Q 1303 -91 875 529 
Q 447 1150 447 2328 
Q 447 3434 972 4092 
Q 1497 4750 2381 4750 
Q 2619 4750 2861 4703 
Q 3103 4656 3366 4563 
z
" transform="scale(0.015625)"/>
       </defs>
       <use xlink:href="#DejaVuSans-38"/>
       <use xlink:href="#DejaVuSans-33" x="63.623047"/>
       <use xlink:href="#DejaVuSans-36" x="127.246094"/>
      </g>
     </g>
    </g>
    <g id="xtick_3">
     <g id="line2d_3">
      <g>
       <use xlink:href="#m98d1de8e7b" x="178.779133" y="307.872" style="stroke: #000000; stroke-width: 0.8"/>
      </g>
     </g>
     <g id="text_3">
      <!-- 837 -->
      <g transform="translate(169.235383 322.470438) scale(0.1 -0.1)">
       <defs>
        <path id="DejaVuSans-37" d="M 525 4666 
L 3525 4666 
L 3525 4397 
L 1831 0 
L 1172 0 
L 2766 4134 
L 525 4134 
L 525 4666 
z
" transform="scale(0.015625)"/>
       </defs>
       <use xlink:href="#DejaVuSans-38"/>
       <use xlink:href="#DejaVuSans-33" x="63.623047"/>
       <use xlink:href="#DejaVuSans-37" x="127.246094"/>
      </g>
     </g>
    </g>
    <g id="xtick_4">
     <g id="line2d_4">
      <g>
       <use xlink:href="#m98d1de8e7b" x="232.888223" y="307.872" style="stroke: #000000; stroke-width: 0.8"/>
      </g>
     </g>
     <g id="text_4">
      <!-- 838 -->
      <g transform="translate(223.344473 322.470438) scale(0.1 -0.1)">
       <use xlink:href="#DejaVuSans-38"/>
       <use xlink:href="#DejaVuSans-33" x="63.623047"/>
       <use xlink:href="#DejaVuSans-38" x="127.246094"/>
      </g>
     </g>
    </g>
    <g id="xtick_5">
     <g id="line2d_5">
      <g>
       <use xlink:href="#m98d1de8e7b" x="286.997314" y="307.872" style="stroke: #000000; stroke-width: 0.8"/>
      </g>
     </g>
     <g id="text_5">
      <!-- 839 -->
      <g transform="translate(277.453564 322.470438) scale(0.1 -0.1)">
       <defs>
        <path id="DejaVuSans-39" d="M 703 97 
L 703 672 
Q 941 559 1184 500 
Q 1428 441 1663 441 
Q 2288 441 2617 861 
Q 2947 1281 2994 2138 
Q 2813 1869 2534 1725 
Q 2256 1581 1919 1581 
Q 1219 1581 811 2004 
Q 403 2428 403 3163 
Q 403 3881 828 4315 
Q 1253 4750 1959 4750 
Q 2769 4750 3195 4129 
Q 3622 3509 3622 2328 
Q 3622 1225 3098 567 
Q 2575 -91 1691 -91 
Q 1453 -91 1209 -44 
Q 966 3 703 97 
z
M 1959 2075 
Q 2384 2075 2632 2365 
Q 2881 2656 2881 3163 
Q 2881 3666 2632 3958 
Q 2384 4250 1959 4250 
Q 1534 4250 1286 3958 
Q 1038 3666 1038 3163 
Q 1038 2656 1286 2365 
Q 1534 2075 1959 2075 
z
" transform="scale(0.015625)"/>
       </defs>
       <use xlink:href="#DejaVuSans-38"/>
       <use xlink:href="#DejaVuSans-33" x="63.623047"/>
       <use xlink:href="#DejaVuSans-39" x="127.246094"/>
      </g>
     </g>
    </g>
    <g id="xtick_6">
     <g id="line2d_6">
      <g>
       <use xlink:href="#m98d1de8e7b" x="341.106405" y="307.872" style="stroke: #000000; stroke-width: 0.8"/>
      </g>
     </g>
     <g id="text_6">
      <!-- 840 -->
      <g transform="translate(331.562655 322.470438) scale(0.1 -0.1)">
       <defs>
        <path id="DejaVuSans-34" d="M 2419 4116 
L 825 1625 
L 2419 1625 
L 2419 4116 
z
M 2253 4666 
L 3047 4666 
L 3047 1625 
L 3713 1625 
L 3713 1100 
L 3047 1100 
L 3047 0 
L 2419 0 
L 2419 1100 
L 313 1100 
L 313 1709 
L 2253 4666 
z
" transform="scale(0.015625)"/>
        <path id="DejaVuSans-30" d="M 2034 4250 
Q 1547 4250 1301 3770 
Q 1056 3291 1056 2328 
Q 1056 1369 1301 889 
Q 1547 409 2034 409 
Q 2525 409 2770 889 
Q 3016 1369 3016 2328 
Q 3016 3291 2770 3770 
Q 2525 4250 2034 4250 
z
M 2034 4750 
Q 2819 4750 3233 4129 
Q 3647 3509 3647 2328 
Q 3647 1150 3233 529 
Q 2819 -91 2034 -91 
Q 1250 -91 836 529 
Q 422 1150 422 2328 
Q 422 3509 836 4129 
Q 1250 4750 2034 4750 
z
" transform="scale(0.015625)"/>
       </defs>
       <use xlink:href="#DejaVuSans-38"/>
       <use xlink:href="#DejaVuSans-34" x="63.623047"/>
       <use xlink:href="#DejaVuSans-30" x="127.246094"/>
      </g>
     </g>
    </g>
    <g id="xtick_7">
     <g id="line2d_7">
      <g>
       <use xlink:href="#m98d1de8e7b" x="395.215496" y="307.872" style="stroke: #000000; stroke-width: 0.8"/>
      </g>
     </g>
     <g id="text_7">
      <!-- 841 -->
      <g transform="translate(385.671746 322.470438) scale(0.1 -0.1)">
       <defs>
        <path id="DejaVuSans-31" d="M 794 531 
L 1825 531 
L 1825 4091 
L 703 3866 
L 703 4441 
L 1819 4666 
L 2450 4666 
L 2450 531 
L 3481 531 
L 3481 0 
L 794 0 
L 794 531 
z
" transform="scale(0.015625)"/>
       </defs>
       <use xlink:href="#DejaVuSans-38"/>
       <use xlink:href="#DejaVuSans-34" x="63.623047"/>
       <use xlink:href="#DejaVuSans-31" x="127.246094"/>
      </g>
     </g>
    </g>
    <g id="text_8">
     <!-- Frequency [MHz] -->
     <g transform="translate(177.144375 336.148562) scale(0.1 -0.1)">
      <defs>
       <path id="DejaVuSans-46" d="M 628 4666 
L 3309 4666 
L 3309 4134 
L 1259 4134 
L 1259 2759 
L 3109 2759 
L 3109 2228 
L 1259 2228 
L 1259 0 
L 628 0 
L 628 4666 
z
" transform="scale(0.015625)"/>
       <path id="DejaVuSans-72" d="M 2631 2963 
Q 2534 3019 2420 3045 
Q 2306 3072 2169 3072 
Q 1681 3072 1420 2755 
Q 1159 2438 1159 1844 
L 1159 0 
L 581 0 
L 581 3500 
L 1159 3500 
L 1159 2956 
Q 1341 3275 1631 3429 
Q 1922 3584 2338 3584 
Q 2397 3584 2469 3576 
Q 2541 3569 2628 3553 
L 2631 2963 
z
" transform="scale(0.015625)"/>
       <path id="DejaVuSans-65" d="M 3597 1894 
L 3597 1613 
L 953 1613 
Q 991 1019 1311 708 
Q 1631 397 2203 397 
Q 2534 397 2845 478 
Q 3156 559 3463 722 
L 3463 178 
Q 3153 47 2828 -22 
Q 2503 -91 2169 -91 
Q 1331 -91 842 396 
Q 353 884 353 1716 
Q 353 2575 817 3079 
Q 1281 3584 2069 3584 
Q 2775 3584 3186 3129 
Q 3597 2675 3597 1894 
z
M 3022 2063 
Q 3016 2534 2758 2815 
Q 2500 3097 2075 3097 
Q 1594 3097 1305 2825 
Q 1016 2553 972 2059 
L 3022 2063 
z
" transform="scale(0.015625)"/>
       <path id="DejaVuSans-71" d="M 947 1747 
Q 947 1113 1208 752 
Q 1469 391 1925 391 
Q 2381 391 2643 752 
Q 2906 1113 2906 1747 
Q 2906 2381 2643 2742 
Q 2381 3103 1925 3103 
Q 1469 3103 1208 2742 
Q 947 2381 947 1747 
z
M 2906 525 
Q 2725 213 2448 61 
Q 2172 -91 1784 -91 
Q 1150 -91 751 415 
Q 353 922 353 1747 
Q 353 2572 751 3078 
Q 1150 3584 1784 3584 
Q 2172 3584 2448 3432 
Q 2725 3281 2906 2969 
L 2906 3500 
L 3481 3500 
L 3481 -1331 
L 2906 -1331 
L 2906 525 
z
" transform="scale(0.015625)"/>
       <path id="DejaVuSans-75" d="M 544 1381 
L 544 3500 
L 1119 3500 
L 1119 1403 
Q 1119 906 1312 657 
Q 1506 409 1894 409 
Q 2359 409 2629 706 
Q 2900 1003 2900 1516 
L 2900 3500 
L 3475 3500 
L 3475 0 
L 2900 0 
L 2900 538 
Q 2691 219 2414 64 
Q 2138 -91 1772 -91 
Q 1169 -91 856 284 
Q 544 659 544 1381 
z
M 1991 3584 
L 1991 3584 
z
" transform="scale(0.015625)"/>
       <path id="DejaVuSans-6e" d="M 3513 2113 
L 3513 0 
L 2938 0 
L 2938 2094 
Q 2938 2591 2744 2837 
Q 2550 3084 2163 3084 
Q 1697 3084 1428 2787 
Q 1159 2491 1159 1978 
L 1159 0 
L 581 0 
L 581 3500 
L 1159 3500 
L 1159 2956 
Q 1366 3272 1645 3428 
Q 1925 3584 2291 3584 
Q 2894 3584 3203 3211 
Q 3513 2838 3513 2113 
z
" transform="scale(0.015625)"/>
       <path id="DejaVuSans-63" d="M 3122 3366 
L 3122 2828 
Q 2878 2963 2633 3030 
Q 2388 3097 2138 3097 
Q 1578 3097 1268 2742 
Q 959 2388 959 1747 
Q 959 1106 1268 751 
Q 1578 397 2138 397 
Q 2388 397 2633 464 
Q 2878 531 3122 666 
L 3122 134 
Q 2881 22 2623 -34 
Q 2366 -91 2075 -91 
Q 1284 -91 818 406 
Q 353 903 353 1747 
Q 353 2603 823 3093 
Q 1294 3584 2113 3584 
Q 2378 3584 2631 3529 
Q 2884 3475 3122 3366 
z
" transform="scale(0.015625)"/>
       <path id="DejaVuSans-79" d="M 2059 -325 
Q 1816 -950 1584 -1140 
Q 1353 -1331 966 -1331 
L 506 -1331 
L 506 -850 
L 844 -850 
Q 1081 -850 1212 -737 
Q 1344 -625 1503 -206 
L 1606 56 
L 191 3500 
L 800 3500 
L 1894 763 
L 2988 3500 
L 3597 3500 
L 2059 -325 
z
" transform="scale(0.015625)"/>
       <path id="DejaVuSans-20" transform="scale(0.015625)"/>
       <path id="DejaVuSans-5b" d="M 550 4863 
L 1875 4863 
L 1875 4416 
L 1125 4416 
L 1125 -397 
L 1875 -397 
L 1875 -844 
L 550 -844 
L 550 4863 
z
" transform="scale(0.015625)"/>
       <path id="DejaVuSans-4d" d="M 628 4666 
L 1569 4666 
L 2759 1491 
L 3956 4666 
L 4897 4666 
L 4897 0 
L 4281 0 
L 4281 4097 
L 3078 897 
L 2444 897 
L 1241 4097 
L 1241 0 
L 628 0 
L 628 4666 
z
" transform="scale(0.015625)"/>
       <path id="DejaVuSans-48" d="M 628 4666 
L 1259 4666 
L 1259 2753 
L 3553 2753 
L 3553 4666 
L 4184 4666 
L 4184 0 
L 3553 0 
L 3553 2222 
L 1259 2222 
L 1259 0 
L 628 0 
L 628 4666 
z
" transform="scale(0.015625)"/>
       <path id="DejaVuSans-7a" d="M 353 3500 
L 3084 3500 
L 3084 2975 
L 922 459 
L 3084 459 
L 3084 0 
L 275 0 
L 275 525 
L 2438 3041 
L 353 3041 
L 353 3500 
z
" transform="scale(0.015625)"/>
       <path id="DejaVuSans-5d" d="M 1947 4863 
L 1947 -844 
L 622 -844 
L 622 -397 
L 1369 -397 
L 1369 4416 
L 622 4416 
L 622 4863 
L 1947 4863 
z
" transform="scale(0.015625)"/>
      </defs>
      <use xlink:href="#DejaVuSans-46"/>
      <use xlink:href="#DejaVuSans-72" x="50.269531"/>
      <use xlink:href="#DejaVuSans-65" x="89.132812"/>
      <use xlink:href="#DejaVuSans-71" x="150.65625"/>
      <use xlink:href="#DejaVuSans-75" x="214.132812"/>
      <use xlink:href="#DejaVuSans-65" x="277.511719"/>
      <use xlink:href="#DejaVuSans-6e" x="339.035156"/>
      <use xlink:href="#DejaVuSans-63" x="402.414062"/>
      <use xlink:href="#DejaVuSans-79" x="457.394531"/>
      <use xlink:href="#DejaVuSans-20" x="516.574219"/>
      <use xlink:href="#DejaVuSans-5b" x="548.361328"/>
      <use xlink:href="#DejaVuSans-4d" x="587.375"/>
      <use xlink:href="#DejaVuSans-48" x="673.654297"/>
      <use xlink:href="#DejaVuSans-7a" x="748.849609"/>
      <use xlink:href="#DejaVuSans-5d" x="801.339844"/>
     </g>
    </g>
    <g id="text_9">
     <!-- +5 GHz -->
     <g transform="translate(359.285625 335.148562) scale(0.1 -0.1)">
      <defs>
       <path id="DejaVuSans-2b" d="M 2944 4013 
L 2944 2272 
L 4684 2272 
L 4684 1741 
L 2944 1741 
L 2944 0 
L 2419 0 
L 2419 1741 
L 678 1741 
L 678 2272 
L 2419 2272 
L 2419 4013 
L 2944 4013 
z
" transform="scale(0.015625)"/>
       <path id="DejaVuSans-47" d="M 3809 666 
L 3809 1919 
L 2778 1919 
L 2778 2438 
L 4434 2438 
L 4434 434 
Q 4069 175 3628 42 
Q 3188 -91 2688 -91 
Q 1594 -91 976 548 
Q 359 1188 359 2328 
Q 359 3472 976 4111 
Q 1594 4750 2688 4750 
Q 3144 4750 3555 4637 
Q 3966 4525 4313 4306 
L 4313 3634 
Q 3963 3931 3569 4081 
Q 3175 4231 2741 4231 
Q 1884 4231 1454 3753 
Q 1025 3275 1025 2328 
Q 1025 1384 1454 906 
Q 1884 428 2741 428 
Q 3075 428 3337 486 
Q 3600 544 3809 666 
z
" transform="scale(0.015625)"/>
      </defs>
      <use xlink:href="#DejaVuSans-2b"/>
      <use xlink:href="#DejaVuSans-35" x="83.789062"/>
      <use xlink:href="#DejaVuSans-20" x="147.412109"/>
      <use xlink:href="#DejaVuSans-47" x="179.199219"/>
      <use xlink:href="#DejaVuSans-48" x="256.689453"/>
      <use xlink:href="#DejaVuSans-7a" x="331.884766"/>
     </g>
    </g>
   </g>
   <g id="matplotlib.axis_2">
    <g id="ytick_1">
     <g id="line2d_8">
      <defs>
       <path id="m0f7ba7862f" d="M 0 0 
L -3.5 0 
" style="stroke: #000000; stroke-width: 0.8"/>
      </defs>
      <g>
       <use xlink:href="#m0f7ba7862f" x="40.603125" y="299.819945" style="stroke: #000000; stroke-width: 0.8"/>
      </g>
     </g>
     <g id="text_10">
      <!-- 0 -->
      <g transform="translate(27.240625 303.619164) scale(0.1 -0.1)">
       <use xlink:href="#DejaVuSans-30"/>
      </g>
     </g>
    </g>
    <g id="ytick_2">
     <g id="line2d_9">
      <g>
       <use xlink:href="#m0f7ba7862f" x="40.603125" y="263.136231" style="stroke: #000000; stroke-width: 0.8"/>
      </g>
     </g>
     <g id="text_11">
      <!-- 10 -->
      <g transform="translate(20.878125 266.935449) scale(0.1 -0.1)">
       <use xlink:href="#DejaVuSans-31"/>
       <use xlink:href="#DejaVuSans-30" x="63.623047"/>
      </g>
     </g>
    </g>
    <g id="ytick_3">
     <g id="line2d_10">
      <g>
       <use xlink:href="#m0f7ba7862f" x="40.603125" y="226.452517" style="stroke: #000000; stroke-width: 0.8"/>
      </g>
     </g>
     <g id="text_12">
      <!-- 20 -->
      <g transform="translate(20.878125 230.251735) scale(0.1 -0.1)">
       <defs>
        <path id="DejaVuSans-32" d="M 1228 531 
L 3431 531 
L 3431 0 
L 469 0 
L 469 531 
Q 828 903 1448 1529 
Q 2069 2156 2228 2338 
Q 2531 2678 2651 2914 
Q 2772 3150 2772 3378 
Q 2772 3750 2511 3984 
Q 2250 4219 1831 4219 
Q 1534 4219 1204 4116 
Q 875 4013 500 3803 
L 500 4441 
Q 881 4594 1212 4672 
Q 1544 4750 1819 4750 
Q 2544 4750 2975 4387 
Q 3406 4025 3406 3419 
Q 3406 3131 3298 2873 
Q 3191 2616 2906 2266 
Q 2828 2175 2409 1742 
Q 1991 1309 1228 531 
z
" transform="scale(0.015625)"/>
       </defs>
       <use xlink:href="#DejaVuSans-32"/>
       <use xlink:href="#DejaVuSans-30" x="63.623047"/>
      </g>
     </g>
    </g>
    <g id="ytick_4">
     <g id="line2d_11">
      <g>
       <use xlink:href="#m0f7ba7862f" x="40.603125" y="189.768802" style="stroke: #000000; stroke-width: 0.8"/>
      </g>
     </g>
     <g id="text_13">
      <!-- 30 -->
      <g transform="translate(20.878125 193.568021) scale(0.1 -0.1)">
       <use xlink:href="#DejaVuSans-33"/>
       <use xlink:href="#DejaVuSans-30" x="63.623047"/>
      </g>
     </g>
    </g>
    <g id="ytick_5">
     <g id="line2d_12">
      <g>
       <use xlink:href="#m0f7ba7862f" x="40.603125" y="153.085088" style="stroke: #000000; stroke-width: 0.8"/>
      </g>
     </g>
     <g id="text_14">
      <!-- 40 -->
      <g transform="translate(20.878125 156.884307) scale(0.1 -0.1)">
       <use xlink:href="#DejaVuSans-34"/>
       <use xlink:href="#DejaVuSans-30" x="63.623047"/>
      </g>
     </g>
    </g>
    <g id="ytick_6">
     <g id="line2d_13">
      <g>
       <use xlink:href="#m0f7ba7862f" x="40.603125" y="116.401374" style="stroke: #000000; stroke-width: 0.8"/>
      </g>
     </g>
     <g id="text_15">
      <!-- 50 -->
      <g transform="translate(20.878125 120.200593) scale(0.1 -0.1)">
       <use xlink:href="#DejaVuSans-35"/>
       <use xlink:href="#DejaVuSans-30" x="63.623047"/>
      </g>
     </g>
    </g>
    <g id="ytick_7">
     <g id="line2d_14">
      <g>
       <use xlink:href="#m0f7ba7862f" x="40.603125" y="79.71766" style="stroke: #000000; stroke-width: 0.8"/>
      </g>
     </g>
     <g id="text_16">
      <!-- 60 -->
      <g transform="translate(20.878125 83.516879) scale(0.1 -0.1)">
       <use xlink:href="#DejaVuSans-36"/>
       <use xlink:href="#DejaVuSans-30" x="63.623047"/>
      </g>
     </g>
    </g>
    <g id="ytick_8">
     <g id="line2d_15">
      <g>
       <use xlink:href="#m0f7ba7862f" x="40.603125" y="43.033946" style="stroke: #000000; stroke-width: 0.8"/>
      </g>
     </g>
     <g id="text_17">
      <!-- 70 -->
      <g transform="translate(20.878125 46.833165) scale(0.1 -0.1)">
       <use xlink:href="#DejaVuSans-37"/>
       <use xlink:href="#DejaVuSans-30" x="63.623047"/>
      </g>
     </g>
    </g>
    <g id="text_18">
     <!-- Magnitude0 [mV] -->
     <g transform="translate(14.798438 218.268344) rotate(-90) scale(0.1 -0.1)">
      <defs>
       <path id="DejaVuSans-61" d="M 2194 1759 
Q 1497 1759 1228 1600 
Q 959 1441 959 1056 
Q 959 750 1161 570 
Q 1363 391 1709 391 
Q 2188 391 2477 730 
Q 2766 1069 2766 1631 
L 2766 1759 
L 2194 1759 
z
M 3341 1997 
L 3341 0 
L 2766 0 
L 2766 531 
Q 2569 213 2275 61 
Q 1981 -91 1556 -91 
Q 1019 -91 701 211 
Q 384 513 384 1019 
Q 384 1609 779 1909 
Q 1175 2209 1959 2209 
L 2766 2209 
L 2766 2266 
Q 2766 2663 2505 2880 
Q 2244 3097 1772 3097 
Q 1472 3097 1187 3025 
Q 903 2953 641 2809 
L 641 3341 
Q 956 3463 1253 3523 
Q 1550 3584 1831 3584 
Q 2591 3584 2966 3190 
Q 3341 2797 3341 1997 
z
" transform="scale(0.015625)"/>
       <path id="DejaVuSans-67" d="M 2906 1791 
Q 2906 2416 2648 2759 
Q 2391 3103 1925 3103 
Q 1463 3103 1205 2759 
Q 947 2416 947 1791 
Q 947 1169 1205 825 
Q 1463 481 1925 481 
Q 2391 481 2648 825 
Q 2906 1169 2906 1791 
z
M 3481 434 
Q 3481 -459 3084 -895 
Q 2688 -1331 1869 -1331 
Q 1566 -1331 1297 -1286 
Q 1028 -1241 775 -1147 
L 775 -588 
Q 1028 -725 1275 -790 
Q 1522 -856 1778 -856 
Q 2344 -856 2625 -561 
Q 2906 -266 2906 331 
L 2906 616 
Q 2728 306 2450 153 
Q 2172 0 1784 0 
Q 1141 0 747 490 
Q 353 981 353 1791 
Q 353 2603 747 3093 
Q 1141 3584 1784 3584 
Q 2172 3584 2450 3431 
Q 2728 3278 2906 2969 
L 2906 3500 
L 3481 3500 
L 3481 434 
z
" transform="scale(0.015625)"/>
       <path id="DejaVuSans-69" d="M 603 3500 
L 1178 3500 
L 1178 0 
L 603 0 
L 603 3500 
z
M 603 4863 
L 1178 4863 
L 1178 4134 
L 603 4134 
L 603 4863 
z
" transform="scale(0.015625)"/>
       <path id="DejaVuSans-74" d="M 1172 4494 
L 1172 3500 
L 2356 3500 
L 2356 3053 
L 1172 3053 
L 1172 1153 
Q 1172 725 1289 603 
Q 1406 481 1766 481 
L 2356 481 
L 2356 0 
L 1766 0 
Q 1100 0 847 248 
Q 594 497 594 1153 
L 594 3053 
L 172 3053 
L 172 3500 
L 594 3500 
L 594 4494 
L 1172 4494 
z
" transform="scale(0.015625)"/>
       <path id="DejaVuSans-64" d="M 2906 2969 
L 2906 4863 
L 3481 4863 
L 3481 0 
L 2906 0 
L 2906 525 
Q 2725 213 2448 61 
Q 2172 -91 1784 -91 
Q 1150 -91 751 415 
Q 353 922 353 1747 
Q 353 2572 751 3078 
Q 1150 3584 1784 3584 
Q 2172 3584 2448 3432 
Q 2725 3281 2906 2969 
z
M 947 1747 
Q 947 1113 1208 752 
Q 1469 391 1925 391 
Q 2381 391 2643 752 
Q 2906 1113 2906 1747 
Q 2906 2381 2643 2742 
Q 2381 3103 1925 3103 
Q 1469 3103 1208 2742 
Q 947 2381 947 1747 
z
" transform="scale(0.015625)"/>
       <path id="DejaVuSans-6d" d="M 3328 2828 
Q 3544 3216 3844 3400 
Q 4144 3584 4550 3584 
Q 5097 3584 5394 3201 
Q 5691 2819 5691 2113 
L 5691 0 
L 5113 0 
L 5113 2094 
Q 5113 2597 4934 2840 
Q 4756 3084 4391 3084 
Q 3944 3084 3684 2787 
Q 3425 2491 3425 1978 
L 3425 0 
L 2847 0 
L 2847 2094 
Q 2847 2600 2669 2842 
Q 2491 3084 2119 3084 
Q 1678 3084 1418 2786 
Q 1159 2488 1159 1978 
L 1159 0 
L 581 0 
L 581 3500 
L 1159 3500 
L 1159 2956 
Q 1356 3278 1631 3431 
Q 1906 3584 2284 3584 
Q 2666 3584 2933 3390 
Q 3200 3197 3328 2828 
z
" transform="scale(0.015625)"/>
       <path id="DejaVuSans-56" d="M 1831 0 
L 50 4666 
L 709 4666 
L 2188 738 
L 3669 4666 
L 4325 4666 
L 2547 0 
L 1831 0 
z
" transform="scale(0.015625)"/>
      </defs>
      <use xlink:href="#DejaVuSans-4d"/>
      <use xlink:href="#DejaVuSans-61" x="86.279297"/>
      <use xlink:href="#DejaVuSans-67" x="147.558594"/>
      <use xlink:href="#DejaVuSans-6e" x="211.035156"/>
      <use xlink:href="#DejaVuSans-69" x="274.414062"/>
      <use xlink:href="#DejaVuSans-74" x="302.197266"/>
      <use xlink:href="#DejaVuSans-75" x="341.40625"/>
      <use xlink:href="#DejaVuSans-64" x="404.785156"/>
      <use xlink:href="#DejaVuSans-65" x="468.261719"/>
      <use xlink:href="#DejaVuSans-30" x="529.785156"/>
      <use xlink:href="#DejaVuSans-20" x="593.408203"/>
      <use xlink:href="#DejaVuSans-5b" x="625.195312"/>
      <use xlink:href="#DejaVuSans-6d" x="664.208984"/>
      <use xlink:href="#DejaVuSans-56" x="761.621094"/>
      <use xlink:href="#DejaVuSans-5d" x="830.029297"/>
     </g>
    </g>
   </g>
   <g id="line2d_16">
    <path d="M 56.835852 266.540686 
L 68.030837 266.132324 
L 79.225821 265.833506 
L 90.420805 265.613537 
L 101.61579 265.029443 
L 112.810774 265.30842 
L 124.005758 264.327574 
L 135.200743 263.980305 
L 146.395727 264.240409 
L 157.590711 264.680902 
L 168.785696 265.373669 
L 179.98068 266.009045 
L 191.175664 269.386806 
L 202.370649 272.669332 
L 213.565633 278.941752 
L 224.760617 284.337096 
L 235.955601 290.442607 
L 247.150586 294.915972 
L 258.34557 295.776 
L 269.540554 293.590495 
L 280.735539 290.867831 
L 291.930523 288.642771 
L 303.125507 286.662135 
L 314.320492 285.241208 
L 325.515476 283.650361 
L 336.71046 282.611992 
L 347.905445 282.20288 
L 359.100429 280.963013 
L 370.295413 280.143585 
L 381.490398 279.599898 
" clip-path="url(#p3560108385)" style="fill: none; stroke: #440154; stroke-width: 1.5; stroke-linecap: square"/>
   </g>
   <g id="line2d_17">
    <path d="M 56.835852 259.899773 
L 68.030837 259.871589 
L 79.225821 259.229703 
L 90.420805 258.582058 
L 101.61579 257.940859 
L 112.810774 257.279967 
L 124.005758 257.305716 
L 135.200743 256.616208 
L 146.395727 256.837537 
L 157.590711 256.931452 
L 168.785696 259.338056 
L 179.98068 259.148651 
L 191.175664 263.505869 
L 202.370649 269.231842 
L 213.565633 274.127851 
L 224.760617 281.252079 
L 235.955601 288.641214 
L 247.150586 293.923066 
L 258.34557 294.682365 
L 269.540554 291.506261 
L 280.735539 288.866402 
L 291.930523 286.18634 
L 303.125507 283.79147 
L 314.320492 282.05406 
L 325.515476 280.430525 
L 336.71046 278.543314 
L 347.905445 277.528837 
L 359.100429 277.015928 
L 370.295413 275.562499 
L 381.490398 274.939137 
" clip-path="url(#p3560108385)" style="fill: none; stroke: #470d60; stroke-width: 1.5; stroke-linecap: square"/>
   </g>
   <g id="line2d_18">
    <path d="M 56.835852 252.725485 
L 68.030837 252.71217 
L 79.225821 251.764725 
L 90.420805 250.963346 
L 101.61579 251.016994 
L 112.810774 250.847455 
L 124.005758 250.354871 
L 135.200743 250.044104 
L 146.395727 249.157398 
L 157.590711 250.67523 
L 168.785696 250.14379 
L 179.98068 252.75879 
L 191.175664 257.487988 
L 202.370649 263.136658 
L 213.565633 272.326615 
L 224.760617 279.662772 
L 235.955601 287.364508 
L 247.150586 293.349596 
L 258.34557 294.634077 
L 269.540554 290.492832 
L 280.735539 286.940754 
L 291.930523 283.626619 
L 303.125507 281.323534 
L 314.320492 278.600922 
L 325.515476 277.289032 
L 336.71046 276.001961 
L 347.905445 273.981559 
L 359.100429 272.76183 
L 370.295413 272.146238 
L 381.490398 270.368875 
" clip-path="url(#p3560108385)" style="fill: none; stroke: #481a6c; stroke-width: 1.5; stroke-linecap: square"/>
   </g>
   <g id="line2d_19">
    <path d="M 56.835852 245.927894 
L 68.030837 245.360015 
L 79.225821 244.91369 
L 90.420805 244.420103 
L 101.61579 243.502079 
L 112.810774 244.520211 
L 124.005758 242.941176 
L 135.200743 242.971473 
L 146.395727 242.53813 
L 157.590711 242.473461 
L 168.785696 244.671974 
L 179.98068 246.161711 
L 191.175664 250.596119 
L 202.370649 259.714193 
L 213.565633 267.68645 
L 224.760617 276.234613 
L 235.955601 286.32218 
L 247.150586 292.236187 
L 258.34557 292.618962 
L 269.540554 289.0014 
L 280.735539 285.095495 
L 291.930523 281.253872 
L 303.125507 278.559281 
L 314.320492 275.698776 
L 325.515476 273.302487 
L 336.71046 271.590923 
L 347.905445 270.411334 
L 359.100429 269.055528 
L 370.295413 267.964959 
L 381.490398 266.163618 
" clip-path="url(#p3560108385)" style="fill: none; stroke: #482576; stroke-width: 1.5; stroke-linecap: square"/>
   </g>
   <g id="line2d_20">
    <path d="M 56.835852 239.155723 
L 68.030837 238.816511 
L 79.225821 237.842184 
L 90.420805 237.250294 
L 101.61579 236.531362 
L 112.810774 236.297235 
L 124.005758 235.599164 
L 135.200743 235.365203 
L 146.395727 235.751673 
L 157.590711 235.632208 
L 168.785696 238.482937 
L 179.98068 242.893088 
L 191.175664 251.536983 
L 202.370649 257.291083 
L 213.565633 265.383194 
L 224.760617 276.944431 
L 235.955601 285.312693 
L 247.150586 291.2187 
L 258.34557 292.662035 
L 269.540554 287.19369 
L 280.735539 282.487261 
L 291.930523 279.019432 
L 303.125507 275.114171 
L 314.320492 272.392063 
L 325.515476 269.629334 
L 336.71046 268.149331 
L 347.905445 265.930439 
L 359.100429 264.381926 
L 370.295413 263.885895 
L 381.490398 262.178268 
" clip-path="url(#p3560108385)" style="fill: none; stroke: #46307e; stroke-width: 1.5; stroke-linecap: square"/>
   </g>
   <g id="line2d_21">
    <path d="M 56.835852 232.114187 
L 68.030837 231.430729 
L 79.225821 230.620317 
L 90.420805 229.895075 
L 101.61579 229.943649 
L 112.810774 229.222536 
L 124.005758 228.322365 
L 135.200743 227.284905 
L 146.395727 228.012197 
L 157.590711 230.169533 
L 168.785696 235.335755 
L 179.98068 235.11939 
L 191.175664 246.445753 
L 202.370649 255.730689 
L 213.565633 264.94049 
L 224.760617 275.243761 
L 235.955601 285.687127 
L 247.150586 290.721309 
L 258.34557 290.614254 
L 269.540554 285.363858 
L 280.735539 279.963548 
L 291.930523 276.487947 
L 303.125507 272.72925 
L 314.320492 268.786315 
L 325.515476 266.67208 
L 336.71046 264.847535 
L 347.905445 262.79496 
L 359.100429 260.804058 
L 370.295413 259.01578 
L 381.490398 257.805415 
" clip-path="url(#p3560108385)" style="fill: none; stroke: #443b84; stroke-width: 1.5; stroke-linecap: square"/>
   </g>
   <g id="line2d_22">
    <path d="M 56.835852 225.403249 
L 68.030837 224.554071 
L 79.225821 223.795713 
L 90.420805 223.436541 
L 101.61579 221.827656 
L 112.810774 221.199829 
L 124.005758 221.317699 
L 135.200743 220.968816 
L 146.395727 222.084374 
L 157.590711 225.368084 
L 168.785696 230.359046 
L 179.98068 236.997436 
L 191.175664 249.022315 
L 202.370649 257.016193 
L 213.565633 266.864524 
L 224.760617 276.420209 
L 235.955601 284.128574 
L 247.150586 290.288554 
L 258.34557 285.577827 
L 269.540554 284.005898 
L 280.735539 278.505526 
L 291.930523 273.36167 
L 303.125507 269.580534 
L 314.320492 266.279025 
L 325.515476 262.732327 
L 336.71046 260.722732 
L 347.905445 258.781604 
L 359.100429 256.751113 
L 370.295413 255.186959 
L 381.490398 254.101708 
" clip-path="url(#p3560108385)" style="fill: none; stroke: #404588; stroke-width: 1.5; stroke-linecap: square"/>
   </g>
   <g id="line2d_23">
    <path d="M 56.835852 218.799349 
L 68.030837 217.716632 
L 79.225821 216.929624 
L 90.420805 215.752602 
L 101.61579 214.727127 
L 112.810774 214.715274 
L 124.005758 213.294331 
L 135.200743 213.949298 
L 146.395727 218.724126 
L 157.590711 219.831727 
L 168.785696 222.515682 
L 179.98068 231.373245 
L 191.175664 244.210577 
L 202.370649 260.661714 
L 213.565633 268.704212 
L 224.760617 276.10419 
L 235.955601 283.423505 
L 247.150586 288.478367 
L 258.34557 284.865462 
L 269.540554 279.348823 
L 280.735539 276.323686 
L 291.930523 271.16795 
L 303.125507 265.878939 
L 314.320492 262.983127 
L 325.515476 259.900482 
L 336.71046 257.072485 
L 347.905445 254.74333 
L 359.100429 252.731692 
L 370.295413 250.749351 
L 381.490398 249.521071 
" clip-path="url(#p3560108385)" style="fill: none; stroke: #3c4f8a; stroke-width: 1.5; stroke-linecap: square"/>
   </g>
   <g id="line2d_24">
    <path d="M 56.835852 211.629394 
L 68.030837 211.549486 
L 79.225821 210.225882 
L 90.420805 209.076452 
L 101.61579 208.211738 
L 112.810774 207.348816 
L 124.005758 207.832631 
L 135.200743 208.794471 
L 146.395727 212.335833 
L 157.590711 215.619521 
L 168.785696 228.167304 
L 179.98068 236.195391 
L 191.175664 257.735963 
L 202.370649 266.991115 
L 213.565633 274.967358 
L 224.760617 279.677918 
L 235.955601 283.62016 
L 247.150586 286.015118 
L 258.34557 282.410365 
L 269.540554 277.164277 
L 280.735539 273.441309 
L 291.930523 267.888233 
L 303.125507 263.96976 
L 314.320492 259.963368 
L 325.515476 256.197585 
L 336.71046 253.254005 
L 347.905445 250.636657 
L 359.100429 248.899994 
L 370.295413 247.729782 
L 381.490398 244.689073 
" clip-path="url(#p3560108385)" style="fill: none; stroke: #38598c; stroke-width: 1.5; stroke-linecap: square"/>
   </g>
   <g id="line2d_25">
    <path d="M 56.835852 204.607581 
L 68.030837 203.27581 
L 79.225821 202.631899 
L 90.420805 201.217967 
L 101.61579 200.98643 
L 112.810774 200.642567 
L 124.005758 200.798636 
L 135.200743 202.433141 
L 146.395727 206.088732 
L 157.590711 215.546127 
L 168.785696 223.349271 
L 179.98068 247.234804 
L 191.175664 265.637544 
L 202.370649 273.066442 
L 213.565633 278.497015 
L 224.760617 280.418462 
L 235.955601 283.517285 
L 247.150586 282.007929 
L 258.34557 281.071019 
L 269.540554 275.132558 
L 280.735539 267.955102 
L 291.930523 264.802178 
L 303.125507 259.903857 
L 314.320492 256.202932 
L 325.515476 253.324725 
L 336.71046 249.30796 
L 347.905445 247.59673 
L 359.100429 244.924269 
L 370.295413 242.993337 
L 381.490398 241.122621 
" clip-path="url(#p3560108385)" style="fill: none; stroke: #33628d; stroke-width: 1.5; stroke-linecap: square"/>
   </g>
   <g id="line2d_26">
    <path d="M 56.835852 198.236198 
L 68.030837 197.125501 
L 79.225821 195.620547 
L 90.420805 195.531802 
L 101.61579 193.962314 
L 112.810774 194.175456 
L 124.005758 195.41376 
L 135.200743 201.871281 
L 146.395727 203.772532 
L 157.590711 213.000718 
L 168.785696 232.407814 
L 179.98068 255.849047 
L 191.175664 268.22668 
L 202.370649 273.988519 
L 213.565633 278.060791 
L 224.760617 277.141501 
L 235.955601 280.809619 
L 247.150586 280.368181 
L 258.34557 278.058964 
L 269.540554 271.154507 
L 280.735539 264.710264 
L 291.930523 261.124187 
L 303.125507 256.435717 
L 314.320492 252.597448 
L 325.515476 249.039996 
L 336.71046 245.122402 
L 347.905445 244.194721 
L 359.100429 240.434235 
L 370.295413 238.995947 
L 381.490398 236.14497 
" clip-path="url(#p3560108385)" style="fill: none; stroke: #2f6b8e; stroke-width: 1.5; stroke-linecap: square"/>
   </g>
   <g id="line2d_27">
    <path d="M 56.835852 191.493901 
L 68.030837 189.889057 
L 79.225821 188.551494 
L 90.420805 187.658903 
L 101.61579 186.820465 
L 112.810774 187.706833 
L 124.005758 190.448619 
L 135.200743 199.145921 
L 146.395727 198.411586 
L 157.590711 214.782801 
L 168.785696 248.802412 
L 179.98068 259.85764 
L 191.175664 272.685627 
L 202.370649 277.0826 
L 213.565633 275.76815 
L 224.760617 274.137391 
L 235.955601 276.046474 
L 247.150586 277.873156 
L 258.34557 277.402646 
L 269.540554 267.041092 
L 280.735539 263.366841 
L 291.930523 258.828994 
L 303.125507 253.457866 
L 314.320492 249.93985 
L 325.515476 246.23686 
L 336.71046 242.880539 
L 347.905445 239.190076 
L 359.100429 236.936334 
L 370.295413 234.103755 
L 381.490398 232.705009 
" clip-path="url(#p3560108385)" style="fill: none; stroke: #2c738e; stroke-width: 1.5; stroke-linecap: square"/>
   </g>
   <g id="line2d_28">
    <path d="M 56.835852 184.412742 
L 68.030837 183.650775 
L 79.225821 181.473881 
L 90.420805 181.459142 
L 101.61579 181.481364 
L 112.810774 181.930468 
L 124.005758 185.497587 
L 135.200743 192.922225 
L 146.395727 201.059915 
L 157.590711 217.335772 
L 168.785696 253.108742 
L 179.98068 267.866804 
L 191.175664 274.667317 
L 202.370649 277.849508 
L 213.565633 277.756701 
L 224.760617 271.705022 
L 235.955601 268.2492 
L 247.150586 271.64026 
L 258.34557 271.520142 
L 269.540554 267.261234 
L 280.735539 258.078628 
L 291.930523 251.545027 
L 303.125507 249.179287 
L 314.320492 245.713059 
L 325.515476 242.317878 
L 336.71046 238.506672 
L 347.905445 235.225113 
L 359.100429 233.151755 
L 370.295413 230.594104 
L 381.490398 228.758642 
" clip-path="url(#p3560108385)" style="fill: none; stroke: #297b8e; stroke-width: 1.5; stroke-linecap: square"/>
   </g>
   <g id="line2d_29">
    <path d="M 56.835852 177.810203 
L 68.030837 176.002507 
L 79.225821 175.042767 
L 90.420805 173.710378 
L 101.61579 174.284306 
L 112.810774 176.055483 
L 124.005758 182.746535 
L 135.200743 183.192467 
L 146.395727 206.4866 
L 157.590711 240.358043 
L 168.785696 256.595621 
L 179.98068 266.888234 
L 191.175664 274.504612 
L 202.370649 275.647883 
L 213.565633 271.369946 
L 224.760617 267.847716 
L 235.955601 265.725977 
L 247.150586 262.58043 
L 258.34557 262.32579 
L 269.540554 259.584184 
L 280.735539 256.911925 
L 291.930523 249.012675 
L 303.125507 244.60842 
L 314.320492 242.209092 
L 325.515476 237.336061 
L 336.71046 234.660497 
L 347.905445 232.036051 
L 359.100429 228.574838 
L 370.295413 226.333045 
L 381.490398 223.80197 
" clip-path="url(#p3560108385)" style="fill: none; stroke: #25838e; stroke-width: 1.5; stroke-linecap: square"/>
   </g>
   <g id="line2d_30">
    <path d="M 56.835852 169.871558 
L 68.030837 168.82427 
L 79.225821 168.256933 
L 90.420805 166.741029 
L 101.61579 167.646673 
L 112.810774 171.695511 
L 124.005758 178.492947 
L 135.200743 182.713532 
L 146.395727 204.283898 
L 157.590711 238.226684 
L 168.785696 261.36663 
L 179.98068 270.9848 
L 191.175664 276.43263 
L 202.370649 273.428525 
L 213.565633 270.116901 
L 224.760617 266.251826 
L 235.955601 262.244421 
L 247.150586 259.550096 
L 258.34557 255.385868 
L 269.540554 255.930614 
L 280.735539 249.398553 
L 291.930523 247.845678 
L 303.125507 240.10047 
L 314.320492 235.027819 
L 325.515476 232.535777 
L 336.71046 230.772501 
L 347.905445 227.08166 
L 359.100429 224.752858 
L 370.295413 221.41613 
L 381.490398 219.97692 
" clip-path="url(#p3560108385)" style="fill: none; stroke: #228c8d; stroke-width: 1.5; stroke-linecap: square"/>
   </g>
   <g id="line2d_31">
    <path d="M 56.835852 163.529557 
L 68.030837 162.309317 
L 79.225821 161.340915 
L 90.420805 160.63966 
L 101.61579 162.096648 
L 112.810774 162.869436 
L 124.005758 169.814504 
L 135.200743 187.534651 
L 146.395727 215.535881 
L 157.590711 233.295959 
L 168.785696 256.928057 
L 179.98068 271.015807 
L 191.175664 276.171013 
L 202.370649 274.146753 
L 213.565633 266.919093 
L 224.760617 263.538433 
L 235.955601 259.673142 
L 247.150586 253.865533 
L 258.34557 255.185063 
L 269.540554 250.522392 
L 280.735539 247.156764 
L 291.930523 242.580635 
L 303.125507 237.216647 
L 314.320492 231.589563 
L 325.515476 229.510085 
L 336.71046 226.420597 
L 347.905445 223.556966 
L 359.100429 220.746823 
L 370.295413 217.205813 
L 381.490398 215.293247 
" clip-path="url(#p3560108385)" style="fill: none; stroke: #1f948c; stroke-width: 1.5; stroke-linecap: square"/>
   </g>
   <g id="line2d_32">
    <path d="M 56.835852 157.143991 
L 68.030837 156.324421 
L 79.225821 154.611413 
L 90.420805 154.083806 
L 101.61579 154.370323 
L 112.810774 158.120703 
L 124.005758 163.430153 
L 135.200743 182.15068 
L 146.395727 209.491968 
L 157.590711 233.168277 
L 168.785696 253.514887 
L 179.98068 271.12895 
L 191.175664 276.416345 
L 202.370649 272.520872 
L 213.565633 265.111243 
L 224.760617 257.790404 
L 235.955601 250.90431 
L 247.150586 248.146549 
L 258.34557 246.842689 
L 269.540554 247.150617 
L 280.735539 245.122379 
L 291.930523 239.805697 
L 303.125507 231.648706 
L 314.320492 227.920427 
L 325.515476 222.940251 
L 336.71046 222.275359 
L 347.905445 219.44153 
L 359.100429 216.799365 
L 370.295413 213.598561 
L 381.490398 211.244434 
" clip-path="url(#p3560108385)" style="fill: none; stroke: #1e9d89; stroke-width: 1.5; stroke-linecap: square"/>
   </g>
   <g id="line2d_33">
    <path d="M 56.835852 149.822832 
L 68.030837 148.178415 
L 79.225821 146.870994 
L 90.420805 146.785238 
L 101.61579 146.849955 
L 112.810774 150.401893 
L 124.005758 158.549728 
L 135.200743 178.844351 
L 146.395727 205.541881 
L 157.590711 228.401471 
L 168.785696 254.225878 
L 179.98068 274.854222 
L 191.175664 273.833563 
L 202.370649 269.946108 
L 213.565633 264.808071 
L 224.760617 253.606806 
L 235.955601 247.953801 
L 247.150586 245.607305 
L 258.34557 242.546601 
L 269.540554 236.601937 
L 280.735539 235.874967 
L 291.930523 232.310469 
L 303.125507 226.754126 
L 314.320492 225.134964 
L 325.515476 220.257431 
L 336.71046 217.36721 
L 347.905445 213.592342 
L 359.100429 212.202738 
L 370.295413 208.762391 
L 381.490398 207.132945 
" clip-path="url(#p3560108385)" style="fill: none; stroke: #21a585; stroke-width: 1.5; stroke-linecap: square"/>
   </g>
   <g id="line2d_34">
    <path d="M 56.835852 143.331669 
L 68.030837 141.071506 
L 79.225821 139.952508 
L 90.420805 139.871974 
L 101.61579 140.324021 
L 112.810774 144.462865 
L 124.005758 155.937219 
L 135.200743 173.847262 
L 146.395727 201.88924 
L 157.590711 232.686405 
L 168.785696 253.249239 
L 179.98068 270.981047 
L 191.175664 274.526127 
L 202.370649 268.000404 
L 213.565633 260.390579 
L 224.760617 252.446679 
L 235.955601 244.316587 
L 247.150586 237.429128 
L 258.34557 236.863271 
L 269.540554 234.905401 
L 280.735539 231.749763 
L 291.930523 228.473406 
L 303.125507 224.852692 
L 314.320492 219.700021 
L 325.515476 217.000447 
L 336.71046 211.495919 
L 347.905445 209.053781 
L 359.100429 207.551308 
L 370.295413 205.065582 
L 381.490398 202.431839 
" clip-path="url(#p3560108385)" style="fill: none; stroke: #26ad81; stroke-width: 1.5; stroke-linecap: square"/>
   </g>
   <g id="line2d_35">
    <path d="M 56.835852 135.883467 
L 68.030837 134.779825 
L 79.225821 133.229344 
L 90.420805 132.361352 
L 101.61579 134.036697 
L 112.810774 137.509133 
L 124.005758 150.162073 
L 135.200743 168.331603 
L 146.395727 191.752188 
L 157.590711 226.905332 
L 168.785696 251.019087 
L 179.98068 269.151567 
L 191.175664 274.27305 
L 202.370649 265.194923 
L 213.565633 259.439536 
L 224.760617 247.088473 
L 235.955601 239.646983 
L 247.150586 238.439259 
L 258.34557 231.78863 
L 269.540554 228.433648 
L 280.735539 226.83595 
L 291.930523 221.887088 
L 303.125507 217.91086 
L 314.320492 216.787535 
L 325.515476 210.858961 
L 336.71046 209.812502 
L 347.905445 205.384783 
L 359.100429 202.215402 
L 370.295413 200.298158 
L 381.490398 198.655951 
" clip-path="url(#p3560108385)" style="fill: none; stroke: #31b57b; stroke-width: 1.5; stroke-linecap: square"/>
   </g>
   <g id="line2d_36">
    <path d="M 56.835852 129.119854 
L 68.030837 127.074592 
L 79.225821 125.651492 
L 90.420805 124.990477 
L 101.61579 124.818088 
L 112.810774 130.225709 
L 124.005758 140.703459 
L 135.200743 157.860042 
L 146.395727 188.965682 
L 157.590711 220.019413 
L 168.785696 246.764172 
L 179.98068 271.514595 
L 191.175664 275.207056 
L 202.370649 264.776874 
L 213.565633 254.977447 
L 224.760617 246.924377 
L 235.955601 238.430575 
L 247.150586 231.524703 
L 258.34557 225.027756 
L 269.540554 224.258884 
L 280.735539 220.142501 
L 291.930523 218.204459 
L 303.125507 214.153417 
L 314.320492 212.554837 
L 325.515476 208.355033 
L 336.71046 203.356576 
L 347.905445 200.189916 
L 359.100429 198.185808 
L 370.295413 196.286332 
L 381.490398 193.663995 
" clip-path="url(#p3560108385)" style="fill: none; stroke: #3fbc73; stroke-width: 1.5; stroke-linecap: square"/>
   </g>
   <g id="line2d_37">
    <path d="M 56.835852 122.603806 
L 68.030837 118.71296 
L 79.225821 119.044849 
L 90.420805 117.811175 
L 101.61579 117.986924 
L 112.810774 122.597064 
L 124.005758 134.760773 
L 135.200743 153.67012 
L 146.395727 186.581067 
L 157.590711 217.142326 
L 168.785696 250.58435 
L 179.98068 273.064392 
L 191.175664 273.383671 
L 202.370649 263.205136 
L 213.565633 254.886199 
L 224.760617 244.562185 
L 235.955601 234.825227 
L 247.150586 229.117069 
L 258.34557 224.029218 
L 269.540554 221.043028 
L 280.735539 216.92634 
L 291.930523 212.646238 
L 303.125507 210.222156 
L 314.320492 206.277612 
L 325.515476 203.674553 
L 336.71046 198.674495 
L 347.905445 195.721907 
L 359.100429 193.569955 
L 370.295413 190.020508 
L 381.490398 189.297144 
" clip-path="url(#p3560108385)" style="fill: none; stroke: #50c46a; stroke-width: 1.5; stroke-linecap: square"/>
   </g>
   <g id="line2d_38">
    <path d="M 56.835852 114.834794 
L 68.030837 111.947174 
L 79.225821 109.981243 
L 90.420805 108.603767 
L 101.61579 109.15282 
L 112.810774 115.079116 
L 124.005758 126.271117 
L 135.200743 146.640029 
L 146.395727 174.329079 
L 157.590711 209.671111 
L 168.785696 242.850204 
L 179.98068 270.336743 
L 191.175664 271.922046 
L 202.370649 260.874179 
L 213.565633 251.42795 
L 224.760617 241.256104 
L 235.955601 232.117232 
L 247.150586 224.100584 
L 258.34557 219.723408 
L 269.540554 214.442935 
L 280.735539 210.868504 
L 291.930523 211.285779 
L 303.125507 205.083321 
L 314.320492 201.210608 
L 325.515476 197.887619 
L 336.71046 194.463285 
L 347.905445 191.935209 
L 359.100429 190.092291 
L 370.295413 186.13378 
L 381.490398 184.323072 
" clip-path="url(#p3560108385)" style="fill: none; stroke: #63cb5f; stroke-width: 1.5; stroke-linecap: square"/>
   </g>
   <g id="line2d_39">
    <path d="M 56.835852 107.937958 
L 68.030837 103.969266 
L 79.225821 101.538709 
L 90.420805 99.917604 
L 101.61579 101.140856 
L 112.810774 108.000408 
L 124.005758 119.813296 
L 135.200743 137.979889 
L 146.395727 167.384257 
L 157.590711 201.240009 
L 168.785696 246.205158 
L 179.98068 268.896804 
L 191.175664 272.099433 
L 202.370649 260.254666 
L 213.565633 248.94217 
L 224.760617 238.610619 
L 235.955601 228.023702 
L 247.150586 221.360409 
L 258.34557 215.067911 
L 269.540554 209.516398 
L 280.735539 206.228877 
L 291.930523 203.23602 
L 303.125507 201.500953 
L 314.320492 195.281557 
L 325.515476 192.727946 
L 336.71046 190.927444 
L 347.905445 186.960823 
L 359.100429 184.6791 
L 370.295413 181.732054 
L 381.490398 178.944082 
" clip-path="url(#p3560108385)" style="fill: none; stroke: #77d153; stroke-width: 1.5; stroke-linecap: square"/>
   </g>
   <g id="line2d_40">
    <path d="M 56.835852 101.103274 
L 68.030837 96.984857 
L 79.225821 93.795862 
L 90.420805 90.624106 
L 101.61579 93.67945 
L 112.810774 100.328473 
L 124.005758 111.456684 
L 135.200743 130.967606 
L 146.395727 168.01776 
L 157.590711 204.172096 
L 168.785696 239.120576 
L 179.98068 269.156735 
L 191.175664 272.904853 
L 202.370649 259.212951 
L 213.565633 248.613446 
L 224.760617 239.909236 
L 235.955601 228.697871 
L 247.150586 218.086929 
L 258.34557 209.842972 
L 269.540554 204.02992 
L 280.735539 203.092786 
L 291.930523 198.791182 
L 303.125507 194.806618 
L 314.320492 189.200231 
L 325.515476 187.878256 
L 336.71046 185.272305 
L 347.905445 181.726198 
L 359.100429 179.406338 
L 370.295413 177.198339 
L 381.490398 174.243612 
" clip-path="url(#p3560108385)" style="fill: none; stroke: #8bd646; stroke-width: 1.5; stroke-linecap: square"/>
   </g>
   <g id="line2d_41">
    <path d="M 56.835852 92.939945 
L 68.030837 88.578635 
L 79.225821 84.572231 
L 90.420805 84.167072 
L 101.61579 86.442492 
L 112.810774 92.011561 
L 124.005758 105.64771 
L 135.200743 127.903754 
L 146.395727 159.330629 
L 157.590711 198.232028 
L 168.785696 236.224923 
L 179.98068 268.762993 
L 191.175664 271.327633 
L 202.370649 256.545271 
L 213.565633 246.928398 
L 224.760617 234.467686 
L 235.955601 224.868467 
L 247.150586 215.116398 
L 258.34557 208.237422 
L 269.540554 200.232221 
L 280.735539 199.013723 
L 291.930523 196.066336 
L 303.125507 189.534044 
L 314.320492 186.825704 
L 325.515476 183.185898 
L 336.71046 181.44476 
L 347.905445 176.647632 
L 359.100429 175.758425 
L 370.295413 172.880078 
L 381.490398 168.585311 
" clip-path="url(#p3560108385)" style="fill: none; stroke: #a2da37; stroke-width: 1.5; stroke-linecap: square"/>
   </g>
   <g id="line2d_42">
    <path d="M 56.835852 84.712862 
L 68.030837 80.943143 
L 79.225821 76.095256 
L 90.420805 76.790681 
L 101.61579 79.248627 
L 112.810774 84.761576 
L 124.005758 97.968166 
L 135.200743 121.528967 
L 146.395727 149.761129 
L 157.590711 193.450413 
L 168.785696 229.530703 
L 179.98068 263.969346 
L 191.175664 272.39175 
L 202.370649 257.324808 
L 213.565633 242.3066 
L 224.760617 230.559312 
L 235.955601 220.36262 
L 247.150586 212.06441 
L 258.34557 205.502629 
L 269.540554 198.356843 
L 280.735539 191.775236 
L 291.930523 189.570417 
L 303.125507 185.409897 
L 314.320492 181.974576 
L 325.515476 179.819644 
L 336.71046 174.198431 
L 347.905445 173.928911 
L 359.100429 170.044204 
L 370.295413 167.044055 
L 381.490398 165.090062 
" clip-path="url(#p3560108385)" style="fill: none; stroke: #bade28; stroke-width: 1.5; stroke-linecap: square"/>
   </g>
   <g id="line2d_43">
    <path d="M 56.835852 76.026319 
L 68.030837 72.379324 
L 79.225821 69.727849 
L 90.420805 69.741126 
L 101.61579 71.237541 
L 112.810774 77.161154 
L 124.005758 91.471293 
L 135.200743 112.861367 
L 146.395727 146.217606 
L 157.590711 186.124017 
L 168.785696 226.999405 
L 179.98068 259.781898 
L 191.175664 271.798404 
L 202.370649 256.263114 
L 213.565633 237.984737 
L 224.760617 227.81366 
L 235.955601 220.233713 
L 247.150586 210.49424 
L 258.34557 199.529219 
L 269.540554 192.265331 
L 280.735539 190.408321 
L 291.930523 186.109592 
L 303.125507 180.049649 
L 314.320492 179.062687 
L 325.515476 173.788485 
L 336.71046 170.808094 
L 347.905445 169.181916 
L 359.100429 165.205886 
L 370.295413 161.491502 
L 381.490398 161.799764 
" clip-path="url(#p3560108385)" style="fill: none; stroke: #d2e21b; stroke-width: 1.5; stroke-linecap: square"/>
   </g>
   <g id="line2d_44">
    <path d="M 56.835852 67.022566 
L 68.030837 64.234841 
L 79.225821 62.335615 
L 90.420805 61.980713 
L 101.61579 63.813105 
L 112.810774 70.365535 
L 124.005758 83.624889 
L 135.200743 104.92676 
L 146.395727 141.687953 
L 157.590711 182.66718 
L 168.785696 225.970417 
L 179.98068 261.337313 
L 191.175664 272.49865 
L 202.370649 256.477303 
L 213.565633 238.143268 
L 224.760617 226.946447 
L 235.955601 215.737508 
L 247.150586 203.702433 
L 258.34557 197.629284 
L 269.540554 190.160264 
L 280.735539 184.097616 
L 291.930523 179.513024 
L 303.125507 176.943151 
L 314.320492 173.603322 
L 325.515476 168.518721 
L 336.71046 165.608301 
L 347.905445 163.711494 
L 359.100429 160.449771 
L 370.295413 157.515068 
L 381.490398 157.219771 
" clip-path="url(#p3560108385)" style="fill: none; stroke: #eae51a; stroke-width: 1.5; stroke-linecap: square"/>
   </g>
   <g id="line2d_45">
    <path d="M 56.835852 59.560327 
L 68.030837 56.830481 
L 79.225821 54.382069 
L 90.420805 53.856 
L 101.61579 56.704048 
L 112.810774 64.144896 
L 124.005758 78.178407 
L 135.200743 100.095397 
L 146.395727 135.261833 
L 157.590711 179.450567 
L 168.785696 225.626014 
L 179.98068 258.27637 
L 191.175664 271.273921 
L 202.370649 254.736218 
L 213.565633 237.274783 
L 224.760617 220.560218 
L 235.955601 213.500378 
L 247.150586 204.058569 
L 258.34557 194.250222 
L 269.540554 186.075217 
L 280.735539 181.945108 
L 291.930523 174.463853 
L 303.125507 173.159963 
L 314.320492 167.239409 
L 325.515476 163.325619 
L 336.71046 161.845544 
L 347.905445 159.15613 
L 359.100429 156.288645 
L 370.295413 153.91803 
L 381.490398 150.875368 
" clip-path="url(#p3560108385)" style="fill: none; stroke: #fde725; stroke-width: 1.5; stroke-linecap: square"/>
   </g>
   <g id="patch_3">
    <path d="M 40.603125 307.872 
L 40.603125 41.76 
" style="fill: none; stroke: #000000; stroke-width: 0.8; stroke-linejoin: miter; stroke-linecap: square"/>
   </g>
   <g id="patch_4">
    <path d="M 397.723125 307.872 
L 397.723125 41.76 
" style="fill: none; stroke: #000000; stroke-width: 0.8; stroke-linejoin: miter; stroke-linecap: square"/>
   </g>
   <g id="patch_5">
    <path d="M 40.603125 307.872 
L 397.723125 307.872 
" style="fill: none; stroke: #000000; stroke-width: 0.8; stroke-linejoin: miter; stroke-linecap: square"/>
   </g>
   <g id="patch_6">
    <path d="M 40.603125 41.76 
L 397.723125 41.76 
" style="fill: none; stroke: #000000; stroke-width: 0.8; stroke-linejoin: miter; stroke-linecap: square"/>
   </g>
   <g id="legend_1">
    <g id="patch_7">
     <path d="M 417.579125 307.872 
L 631.4635 307.872 
Q 633.4635 307.872 633.4635 305.872 
L 633.4635 145.412625 
Q 633.4635 143.412625 631.4635 143.412625 
L 417.579125 143.412625 
Q 415.579125 143.412625 415.579125 145.412625 
L 415.579125 305.872 
Q 415.579125 307.872 417.579125 307.872 
z
" style="fill: #ffffff; opacity: 0.8; stroke: #cccccc; stroke-linejoin: miter"/>
    </g>
    <g id="text_19">
     <!-- Readout pulse amplitude () -->
     <g transform="translate(456.420531 155.011063) scale(0.1 -0.1)">
      <defs>
       <path id="DejaVuSans-52" d="M 2841 2188 
Q 3044 2119 3236 1894 
Q 3428 1669 3622 1275 
L 4263 0 
L 3584 0 
L 2988 1197 
Q 2756 1666 2539 1819 
Q 2322 1972 1947 1972 
L 1259 1972 
L 1259 0 
L 628 0 
L 628 4666 
L 2053 4666 
Q 2853 4666 3247 4331 
Q 3641 3997 3641 3322 
Q 3641 2881 3436 2590 
Q 3231 2300 2841 2188 
z
M 1259 4147 
L 1259 2491 
L 2053 2491 
Q 2509 2491 2742 2702 
Q 2975 2913 2975 3322 
Q 2975 3731 2742 3939 
Q 2509 4147 2053 4147 
L 1259 4147 
z
" transform="scale(0.015625)"/>
       <path id="DejaVuSans-6f" d="M 1959 3097 
Q 1497 3097 1228 2736 
Q 959 2375 959 1747 
Q 959 1119 1226 758 
Q 1494 397 1959 397 
Q 2419 397 2687 759 
Q 2956 1122 2956 1747 
Q 2956 2369 2687 2733 
Q 2419 3097 1959 3097 
z
M 1959 3584 
Q 2709 3584 3137 3096 
Q 3566 2609 3566 1747 
Q 3566 888 3137 398 
Q 2709 -91 1959 -91 
Q 1206 -91 779 398 
Q 353 888 353 1747 
Q 353 2609 779 3096 
Q 1206 3584 1959 3584 
z
" transform="scale(0.015625)"/>
       <path id="DejaVuSans-70" d="M 1159 525 
L 1159 -1331 
L 581 -1331 
L 581 3500 
L 1159 3500 
L 1159 2969 
Q 1341 3281 1617 3432 
Q 1894 3584 2278 3584 
Q 2916 3584 3314 3078 
Q 3713 2572 3713 1747 
Q 3713 922 3314 415 
Q 2916 -91 2278 -91 
Q 1894 -91 1617 61 
Q 1341 213 1159 525 
z
M 3116 1747 
Q 3116 2381 2855 2742 
Q 2594 3103 2138 3103 
Q 1681 3103 1420 2742 
Q 1159 2381 1159 1747 
Q 1159 1113 1420 752 
Q 1681 391 2138 391 
Q 2594 391 2855 752 
Q 3116 1113 3116 1747 
z
" transform="scale(0.015625)"/>
       <path id="DejaVuSans-6c" d="M 603 4863 
L 1178 4863 
L 1178 0 
L 603 0 
L 603 4863 
z
" transform="scale(0.015625)"/>
       <path id="DejaVuSans-73" d="M 2834 3397 
L 2834 2853 
Q 2591 2978 2328 3040 
Q 2066 3103 1784 3103 
Q 1356 3103 1142 2972 
Q 928 2841 928 2578 
Q 928 2378 1081 2264 
Q 1234 2150 1697 2047 
L 1894 2003 
Q 2506 1872 2764 1633 
Q 3022 1394 3022 966 
Q 3022 478 2636 193 
Q 2250 -91 1575 -91 
Q 1294 -91 989 -36 
Q 684 19 347 128 
L 347 722 
Q 666 556 975 473 
Q 1284 391 1588 391 
Q 1994 391 2212 530 
Q 2431 669 2431 922 
Q 2431 1156 2273 1281 
Q 2116 1406 1581 1522 
L 1381 1569 
Q 847 1681 609 1914 
Q 372 2147 372 2553 
Q 372 3047 722 3315 
Q 1072 3584 1716 3584 
Q 2034 3584 2315 3537 
Q 2597 3491 2834 3397 
z
" transform="scale(0.015625)"/>
       <path id="DejaVuSans-28" d="M 1984 4856 
Q 1566 4138 1362 3434 
Q 1159 2731 1159 2009 
Q 1159 1288 1364 580 
Q 1569 -128 1984 -844 
L 1484 -844 
Q 1016 -109 783 600 
Q 550 1309 550 2009 
Q 550 2706 781 3412 
Q 1013 4119 1484 4856 
L 1984 4856 
z
" transform="scale(0.015625)"/>
       <path id="DejaVuSans-29" d="M 513 4856 
L 1013 4856 
Q 1481 4119 1714 3412 
Q 1947 2706 1947 2009 
Q 1947 1309 1714 600 
Q 1481 -109 1013 -844 
L 513 -844 
Q 928 -128 1133 580 
Q 1338 1288 1338 2009 
Q 1338 2731 1133 3434 
Q 928 4138 513 4856 
z
" transform="scale(0.015625)"/>
      </defs>
      <use xlink:href="#DejaVuSans-52"/>
      <use xlink:href="#DejaVuSans-65" x="64.982422"/>
      <use xlink:href="#DejaVuSans-61" x="126.505859"/>
      <use xlink:href="#DejaVuSans-64" x="187.785156"/>
      <use xlink:href="#DejaVuSans-6f" x="251.261719"/>
      <use xlink:href="#DejaVuSans-75" x="312.443359"/>
      <use xlink:href="#DejaVuSans-74" x="375.822266"/>
      <use xlink:href="#DejaVuSans-20" x="415.03125"/>
      <use xlink:href="#DejaVuSans-70" x="446.818359"/>
      <use xlink:href="#DejaVuSans-75" x="510.294922"/>
      <use xlink:href="#DejaVuSans-6c" x="573.673828"/>
      <use xlink:href="#DejaVuSans-73" x="601.457031"/>
      <use xlink:href="#DejaVuSans-65" x="653.556641"/>
      <use xlink:href="#DejaVuSans-20" x="715.080078"/>
      <use xlink:href="#DejaVuSans-61" x="746.867188"/>
      <use xlink:href="#DejaVuSans-6d" x="808.146484"/>
      <use xlink:href="#DejaVuSans-70" x="905.558594"/>
      <use xlink:href="#DejaVuSans-6c" x="969.035156"/>
      <use xlink:href="#DejaVuSans-69" x="996.818359"/>
      <use xlink:href="#DejaVuSans-74" x="1024.601562"/>
      <use xlink:href="#DejaVuSans-75" x="1063.810547"/>
      <use xlink:href="#DejaVuSans-64" x="1127.189453"/>
      <use xlink:href="#DejaVuSans-65" x="1190.666016"/>
      <use xlink:href="#DejaVuSans-20" x="1252.189453"/>
      <use xlink:href="#DejaVuSans-28" x="1283.976562"/>
      <use xlink:href="#DejaVuSans-29" x="1322.990234"/>
     </g>
    </g>
    <g id="line2d_46">
     <path d="M 419.579125 166.189188 
L 429.579125 166.189188 
L 439.579125 166.189188 
" style="fill: none; stroke: #440154; stroke-width: 1.5; stroke-linecap: square"/>
    </g>
    <g id="text_20">
     <!-- 0.1 -->
     <g transform="translate(447.579125 169.689188) scale(0.1 -0.1)">
      <defs>
       <path id="DejaVuSans-2e" d="M 684 794 
L 1344 794 
L 1344 0 
L 684 0 
L 684 794 
z
" transform="scale(0.015625)"/>
      </defs>
      <use xlink:href="#DejaVuSans-30"/>
      <use xlink:href="#DejaVuSans-2e" x="63.623047"/>
      <use xlink:href="#DejaVuSans-31" x="95.410156"/>
     </g>
    </g>
    <g id="line2d_47">
     <path d="M 419.579125 180.867313 
L 429.579125 180.867313 
L 439.579125 180.867313 
" style="fill: none; stroke: #470d60; stroke-width: 1.5; stroke-linecap: square"/>
    </g>
    <g id="text_21">
     <!-- 0.121 -->
     <g transform="translate(447.579125 184.367313) scale(0.1 -0.1)">
      <use xlink:href="#DejaVuSans-30"/>
      <use xlink:href="#DejaVuSans-2e" x="63.623047"/>
      <use xlink:href="#DejaVuSans-31" x="95.410156"/>
      <use xlink:href="#DejaVuSans-32" x="159.033203"/>
      <use xlink:href="#DejaVuSans-31" x="222.65625"/>
     </g>
    </g>
    <g id="line2d_48">
     <path d="M 419.579125 195.545438 
L 429.579125 195.545438 
L 439.579125 195.545438 
" style="fill: none; stroke: #481a6c; stroke-width: 1.5; stroke-linecap: square"/>
    </g>
    <g id="text_22">
     <!-- 0.141 -->
     <g transform="translate(447.579125 199.045438) scale(0.1 -0.1)">
      <use xlink:href="#DejaVuSans-30"/>
      <use xlink:href="#DejaVuSans-2e" x="63.623047"/>
      <use xlink:href="#DejaVuSans-31" x="95.410156"/>
      <use xlink:href="#DejaVuSans-34" x="159.033203"/>
      <use xlink:href="#DejaVuSans-31" x="222.65625"/>
     </g>
    </g>
    <g id="line2d_49">
     <path d="M 419.579125 210.223563 
L 429.579125 210.223563 
L 439.579125 210.223563 
" style="fill: none; stroke: #482576; stroke-width: 1.5; stroke-linecap: square"/>
    </g>
    <g id="text_23">
     <!-- 0.162 -->
     <g transform="translate(447.579125 213.723563) scale(0.1 -0.1)">
      <use xlink:href="#DejaVuSans-30"/>
      <use xlink:href="#DejaVuSans-2e" x="63.623047"/>
      <use xlink:href="#DejaVuSans-31" x="95.410156"/>
      <use xlink:href="#DejaVuSans-36" x="159.033203"/>
      <use xlink:href="#DejaVuSans-32" x="222.65625"/>
     </g>
    </g>
    <g id="line2d_50">
     <path d="M 419.579125 224.901688 
L 429.579125 224.901688 
L 439.579125 224.901688 
" style="fill: none; stroke: #46307e; stroke-width: 1.5; stroke-linecap: square"/>
    </g>
    <g id="text_24">
     <!-- 0.183 -->
     <g transform="translate(447.579125 228.401688) scale(0.1 -0.1)">
      <use xlink:href="#DejaVuSans-30"/>
      <use xlink:href="#DejaVuSans-2e" x="63.623047"/>
      <use xlink:href="#DejaVuSans-31" x="95.410156"/>
      <use xlink:href="#DejaVuSans-38" x="159.033203"/>
      <use xlink:href="#DejaVuSans-33" x="222.65625"/>
     </g>
    </g>
    <g id="line2d_51">
     <path d="M 419.579125 239.579813 
L 429.579125 239.579813 
L 439.579125 239.579813 
" style="fill: none; stroke: #443b84; stroke-width: 1.5; stroke-linecap: square"/>
    </g>
    <g id="text_25">
     <!-- 0.203 -->
     <g transform="translate(447.579125 243.079813) scale(0.1 -0.1)">
      <use xlink:href="#DejaVuSans-30"/>
      <use xlink:href="#DejaVuSans-2e" x="63.623047"/>
      <use xlink:href="#DejaVuSans-32" x="95.410156"/>
      <use xlink:href="#DejaVuSans-30" x="159.033203"/>
      <use xlink:href="#DejaVuSans-33" x="222.65625"/>
     </g>
    </g>
    <g id="line2d_52">
     <path d="M 419.579125 254.257938 
L 429.579125 254.257938 
L 439.579125 254.257938 
" style="fill: none; stroke: #404588; stroke-width: 1.5; stroke-linecap: square"/>
    </g>
    <g id="text_26">
     <!-- 0.224 -->
     <g transform="translate(447.579125 257.757938) scale(0.1 -0.1)">
      <use xlink:href="#DejaVuSans-30"/>
      <use xlink:href="#DejaVuSans-2e" x="63.623047"/>
      <use xlink:href="#DejaVuSans-32" x="95.410156"/>
      <use xlink:href="#DejaVuSans-32" x="159.033203"/>
      <use xlink:href="#DejaVuSans-34" x="222.65625"/>
     </g>
    </g>
    <g id="line2d_53">
     <path d="M 419.579125 268.936062 
L 429.579125 268.936062 
L 439.579125 268.936062 
" style="fill: none; stroke: #3c4f8a; stroke-width: 1.5; stroke-linecap: square"/>
    </g>
    <g id="text_27">
     <!-- 0.245 -->
     <g transform="translate(447.579125 272.436062) scale(0.1 -0.1)">
      <use xlink:href="#DejaVuSans-30"/>
      <use xlink:href="#DejaVuSans-2e" x="63.623047"/>
      <use xlink:href="#DejaVuSans-32" x="95.410156"/>
      <use xlink:href="#DejaVuSans-34" x="159.033203"/>
      <use xlink:href="#DejaVuSans-35" x="222.65625"/>
     </g>
    </g>
    <g id="line2d_54">
     <path d="M 419.579125 283.614188 
L 429.579125 283.614188 
L 439.579125 283.614188 
" style="fill: none; stroke: #38598c; stroke-width: 1.5; stroke-linecap: square"/>
    </g>
    <g id="text_28">
     <!-- 0.266 -->
     <g transform="translate(447.579125 287.114188) scale(0.1 -0.1)">
      <use xlink:href="#DejaVuSans-30"/>
      <use xlink:href="#DejaVuSans-2e" x="63.623047"/>
      <use xlink:href="#DejaVuSans-32" x="95.410156"/>
      <use xlink:href="#DejaVuSans-36" x="159.033203"/>
      <use xlink:href="#DejaVuSans-36" x="222.65625"/>
     </g>
    </g>
    <g id="line2d_55">
     <path d="M 419.579125 298.292312 
L 429.579125 298.292312 
L 439.579125 298.292312 
" style="fill: none; stroke: #33628d; stroke-width: 1.5; stroke-linecap: square"/>
    </g>
    <g id="text_29">
     <!-- 0.286 -->
     <g transform="translate(447.579125 301.792312) scale(0.1 -0.1)">
      <use xlink:href="#DejaVuSans-30"/>
      <use xlink:href="#DejaVuSans-2e" x="63.623047"/>
      <use xlink:href="#DejaVuSans-32" x="95.410156"/>
      <use xlink:href="#DejaVuSans-38" x="159.033203"/>
      <use xlink:href="#DejaVuSans-36" x="222.65625"/>
     </g>
    </g>
    <g id="line2d_56">
     <path d="M 496.20725 166.189188 
L 506.20725 166.189188 
L 516.20725 166.189188 
" style="fill: none; stroke: #2f6b8e; stroke-width: 1.5; stroke-linecap: square"/>
    </g>
    <g id="text_30">
     <!-- 0.307 -->
     <g transform="translate(524.20725 169.689188) scale(0.1 -0.1)">
      <use xlink:href="#DejaVuSans-30"/>
      <use xlink:href="#DejaVuSans-2e" x="63.623047"/>
      <use xlink:href="#DejaVuSans-33" x="95.410156"/>
      <use xlink:href="#DejaVuSans-30" x="159.033203"/>
      <use xlink:href="#DejaVuSans-37" x="222.65625"/>
     </g>
    </g>
    <g id="line2d_57">
     <path d="M 496.20725 180.867313 
L 506.20725 180.867313 
L 516.20725 180.867313 
" style="fill: none; stroke: #2c738e; stroke-width: 1.5; stroke-linecap: square"/>
    </g>
    <g id="text_31">
     <!-- 0.328 -->
     <g transform="translate(524.20725 184.367313) scale(0.1 -0.1)">
      <use xlink:href="#DejaVuSans-30"/>
      <use xlink:href="#DejaVuSans-2e" x="63.623047"/>
      <use xlink:href="#DejaVuSans-33" x="95.410156"/>
      <use xlink:href="#DejaVuSans-32" x="159.033203"/>
      <use xlink:href="#DejaVuSans-38" x="222.65625"/>
     </g>
    </g>
    <g id="line2d_58">
     <path d="M 496.20725 195.545438 
L 506.20725 195.545438 
L 516.20725 195.545438 
" style="fill: none; stroke: #297b8e; stroke-width: 1.5; stroke-linecap: square"/>
    </g>
    <g id="text_32">
     <!-- 0.348 -->
     <g transform="translate(524.20725 199.045438) scale(0.1 -0.1)">
      <use xlink:href="#DejaVuSans-30"/>
      <use xlink:href="#DejaVuSans-2e" x="63.623047"/>
      <use xlink:href="#DejaVuSans-33" x="95.410156"/>
      <use xlink:href="#DejaVuSans-34" x="159.033203"/>
      <use xlink:href="#DejaVuSans-38" x="222.65625"/>
     </g>
    </g>
    <g id="line2d_59">
     <path d="M 496.20725 210.223563 
L 506.20725 210.223563 
L 516.20725 210.223563 
" style="fill: none; stroke: #25838e; stroke-width: 1.5; stroke-linecap: square"/>
    </g>
    <g id="text_33">
     <!-- 0.369 -->
     <g transform="translate(524.20725 213.723563) scale(0.1 -0.1)">
      <use xlink:href="#DejaVuSans-30"/>
      <use xlink:href="#DejaVuSans-2e" x="63.623047"/>
      <use xlink:href="#DejaVuSans-33" x="95.410156"/>
      <use xlink:href="#DejaVuSans-36" x="159.033203"/>
      <use xlink:href="#DejaVuSans-39" x="222.65625"/>
     </g>
    </g>
    <g id="line2d_60">
     <path d="M 496.20725 224.901688 
L 506.20725 224.901688 
L 516.20725 224.901688 
" style="fill: none; stroke: #228c8d; stroke-width: 1.5; stroke-linecap: square"/>
    </g>
    <g id="text_34">
     <!-- 0.39 -->
     <g transform="translate(524.20725 228.401688) scale(0.1 -0.1)">
      <use xlink:href="#DejaVuSans-30"/>
      <use xlink:href="#DejaVuSans-2e" x="63.623047"/>
      <use xlink:href="#DejaVuSans-33" x="95.410156"/>
      <use xlink:href="#DejaVuSans-39" x="159.033203"/>
     </g>
    </g>
    <g id="line2d_61">
     <path d="M 496.20725 239.579813 
L 506.20725 239.579813 
L 516.20725 239.579813 
" style="fill: none; stroke: #1f948c; stroke-width: 1.5; stroke-linecap: square"/>
    </g>
    <g id="text_35">
     <!-- 0.41 -->
     <g transform="translate(524.20725 243.079813) scale(0.1 -0.1)">
      <use xlink:href="#DejaVuSans-30"/>
      <use xlink:href="#DejaVuSans-2e" x="63.623047"/>
      <use xlink:href="#DejaVuSans-34" x="95.410156"/>
      <use xlink:href="#DejaVuSans-31" x="159.033203"/>
     </g>
    </g>
    <g id="line2d_62">
     <path d="M 496.20725 254.257938 
L 506.20725 254.257938 
L 516.20725 254.257938 
" style="fill: none; stroke: #1e9d89; stroke-width: 1.5; stroke-linecap: square"/>
    </g>
    <g id="text_36">
     <!-- 0.431 -->
     <g transform="translate(524.20725 257.757938) scale(0.1 -0.1)">
      <use xlink:href="#DejaVuSans-30"/>
      <use xlink:href="#DejaVuSans-2e" x="63.623047"/>
      <use xlink:href="#DejaVuSans-34" x="95.410156"/>
      <use xlink:href="#DejaVuSans-33" x="159.033203"/>
      <use xlink:href="#DejaVuSans-31" x="222.65625"/>
     </g>
    </g>
    <g id="line2d_63">
     <path d="M 496.20725 268.936062 
L 506.20725 268.936062 
L 516.20725 268.936062 
" style="fill: none; stroke: #21a585; stroke-width: 1.5; stroke-linecap: square"/>
    </g>
    <g id="text_37">
     <!-- 0.452 -->
     <g transform="translate(524.20725 272.436062) scale(0.1 -0.1)">
      <use xlink:href="#DejaVuSans-30"/>
      <use xlink:href="#DejaVuSans-2e" x="63.623047"/>
      <use xlink:href="#DejaVuSans-34" x="95.410156"/>
      <use xlink:href="#DejaVuSans-35" x="159.033203"/>
      <use xlink:href="#DejaVuSans-32" x="222.65625"/>
     </g>
    </g>
    <g id="line2d_64">
     <path d="M 496.20725 283.614188 
L 506.20725 283.614188 
L 516.20725 283.614188 
" style="fill: none; stroke: #26ad81; stroke-width: 1.5; stroke-linecap: square"/>
    </g>
    <g id="text_38">
     <!-- 0.472 -->
     <g transform="translate(524.20725 287.114188) scale(0.1 -0.1)">
      <use xlink:href="#DejaVuSans-30"/>
      <use xlink:href="#DejaVuSans-2e" x="63.623047"/>
      <use xlink:href="#DejaVuSans-34" x="95.410156"/>
      <use xlink:href="#DejaVuSans-37" x="159.033203"/>
      <use xlink:href="#DejaVuSans-32" x="222.65625"/>
     </g>
    </g>
    <g id="line2d_65">
     <path d="M 496.20725 298.292312 
L 506.20725 298.292312 
L 516.20725 298.292312 
" style="fill: none; stroke: #31b57b; stroke-width: 1.5; stroke-linecap: square"/>
    </g>
    <g id="text_39">
     <!-- 0.493 -->
     <g transform="translate(524.20725 301.792312) scale(0.1 -0.1)">
      <use xlink:href="#DejaVuSans-30"/>
      <use xlink:href="#DejaVuSans-2e" x="63.623047"/>
      <use xlink:href="#DejaVuSans-34" x="95.410156"/>
      <use xlink:href="#DejaVuSans-39" x="159.033203"/>
      <use xlink:href="#DejaVuSans-33" x="222.65625"/>
     </g>
    </g>
    <g id="line2d_66">
     <path d="M 572.835375 166.189188 
L 582.835375 166.189188 
L 592.835375 166.189188 
" style="fill: none; stroke: #3fbc73; stroke-width: 1.5; stroke-linecap: square"/>
    </g>
    <g id="text_40">
     <!-- 0.514 -->
     <g transform="translate(600.835375 169.689188) scale(0.1 -0.1)">
      <use xlink:href="#DejaVuSans-30"/>
      <use xlink:href="#DejaVuSans-2e" x="63.623047"/>
      <use xlink:href="#DejaVuSans-35" x="95.410156"/>
      <use xlink:href="#DejaVuSans-31" x="159.033203"/>
      <use xlink:href="#DejaVuSans-34" x="222.65625"/>
     </g>
    </g>
    <g id="line2d_67">
     <path d="M 572.835375 180.867313 
L 582.835375 180.867313 
L 592.835375 180.867313 
" style="fill: none; stroke: #50c46a; stroke-width: 1.5; stroke-linecap: square"/>
    </g>
    <g id="text_41">
     <!-- 0.534 -->
     <g transform="translate(600.835375 184.367313) scale(0.1 -0.1)">
      <use xlink:href="#DejaVuSans-30"/>
      <use xlink:href="#DejaVuSans-2e" x="63.623047"/>
      <use xlink:href="#DejaVuSans-35" x="95.410156"/>
      <use xlink:href="#DejaVuSans-33" x="159.033203"/>
      <use xlink:href="#DejaVuSans-34" x="222.65625"/>
     </g>
    </g>
    <g id="line2d_68">
     <path d="M 572.835375 195.545438 
L 582.835375 195.545438 
L 592.835375 195.545438 
" style="fill: none; stroke: #63cb5f; stroke-width: 1.5; stroke-linecap: square"/>
    </g>
    <g id="text_42">
     <!-- 0.555 -->
     <g transform="translate(600.835375 199.045438) scale(0.1 -0.1)">
      <use xlink:href="#DejaVuSans-30"/>
      <use xlink:href="#DejaVuSans-2e" x="63.623047"/>
      <use xlink:href="#DejaVuSans-35" x="95.410156"/>
      <use xlink:href="#DejaVuSans-35" x="159.033203"/>
      <use xlink:href="#DejaVuSans-35" x="222.65625"/>
     </g>
    </g>
    <g id="line2d_69">
     <path d="M 572.835375 210.223563 
L 582.835375 210.223563 
L 592.835375 210.223563 
" style="fill: none; stroke: #77d153; stroke-width: 1.5; stroke-linecap: square"/>
    </g>
    <g id="text_43">
     <!-- 0.576 -->
     <g transform="translate(600.835375 213.723563) scale(0.1 -0.1)">
      <use xlink:href="#DejaVuSans-30"/>
      <use xlink:href="#DejaVuSans-2e" x="63.623047"/>
      <use xlink:href="#DejaVuSans-35" x="95.410156"/>
      <use xlink:href="#DejaVuSans-37" x="159.033203"/>
      <use xlink:href="#DejaVuSans-36" x="222.65625"/>
     </g>
    </g>
    <g id="line2d_70">
     <path d="M 572.835375 224.901688 
L 582.835375 224.901688 
L 592.835375 224.901688 
" style="fill: none; stroke: #8bd646; stroke-width: 1.5; stroke-linecap: square"/>
    </g>
    <g id="text_44">
     <!-- 0.597 -->
     <g transform="translate(600.835375 228.401688) scale(0.1 -0.1)">
      <use xlink:href="#DejaVuSans-30"/>
      <use xlink:href="#DejaVuSans-2e" x="63.623047"/>
      <use xlink:href="#DejaVuSans-35" x="95.410156"/>
      <use xlink:href="#DejaVuSans-39" x="159.033203"/>
      <use xlink:href="#DejaVuSans-37" x="222.65625"/>
     </g>
    </g>
    <g id="line2d_71">
     <path d="M 572.835375 239.579813 
L 582.835375 239.579813 
L 592.835375 239.579813 
" style="fill: none; stroke: #a2da37; stroke-width: 1.5; stroke-linecap: square"/>
    </g>
    <g id="text_45">
     <!-- 0.617 -->
     <g transform="translate(600.835375 243.079813) scale(0.1 -0.1)">
      <use xlink:href="#DejaVuSans-30"/>
      <use xlink:href="#DejaVuSans-2e" x="63.623047"/>
      <use xlink:href="#DejaVuSans-36" x="95.410156"/>
      <use xlink:href="#DejaVuSans-31" x="159.033203"/>
      <use xlink:href="#DejaVuSans-37" x="222.65625"/>
     </g>
    </g>
    <g id="line2d_72">
     <path d="M 572.835375 254.257938 
L 582.835375 254.257938 
L 592.835375 254.257938 
" style="fill: none; stroke: #bade28; stroke-width: 1.5; stroke-linecap: square"/>
    </g>
    <g id="text_46">
     <!-- 0.638 -->
     <g transform="translate(600.835375 257.757938) scale(0.1 -0.1)">
      <use xlink:href="#DejaVuSans-30"/>
      <use xlink:href="#DejaVuSans-2e" x="63.623047"/>
      <use xlink:href="#DejaVuSans-36" x="95.410156"/>
      <use xlink:href="#DejaVuSans-33" x="159.033203"/>
      <use xlink:href="#DejaVuSans-38" x="222.65625"/>
     </g>
    </g>
    <g id="line2d_73">
     <path d="M 572.835375 268.936062 
L 582.835375 268.936062 
L 592.835375 268.936062 
" style="fill: none; stroke: #d2e21b; stroke-width: 1.5; stroke-linecap: square"/>
    </g>
    <g id="text_47">
     <!-- 0.659 -->
     <g transform="translate(600.835375 272.436062) scale(0.1 -0.1)">
      <use xlink:href="#DejaVuSans-30"/>
      <use xlink:href="#DejaVuSans-2e" x="63.623047"/>
      <use xlink:href="#DejaVuSans-36" x="95.410156"/>
      <use xlink:href="#DejaVuSans-35" x="159.033203"/>
      <use xlink:href="#DejaVuSans-39" x="222.65625"/>
     </g>
    </g>
    <g id="line2d_74">
     <path d="M 572.835375 283.614188 
L 582.835375 283.614188 
L 592.835375 283.614188 
" style="fill: none; stroke: #eae51a; stroke-width: 1.5; stroke-linecap: square"/>
    </g>
    <g id="text_48">
     <!-- 0.679 -->
     <g transform="translate(600.835375 287.114188) scale(0.1 -0.1)">
      <use xlink:href="#DejaVuSans-30"/>
      <use xlink:href="#DejaVuSans-2e" x="63.623047"/>
      <use xlink:href="#DejaVuSans-36" x="95.410156"/>
      <use xlink:href="#DejaVuSans-37" x="159.033203"/>
      <use xlink:href="#DejaVuSans-39" x="222.65625"/>
     </g>
    </g>
    <g id="line2d_75">
     <path d="M 572.835375 298.292312 
L 582.835375 298.292312 
L 592.835375 298.292312 
" style="fill: none; stroke: #fde725; stroke-width: 1.5; stroke-linecap: square"/>
    </g>
    <g id="text_49">
     <!-- 0.7 -->
     <g transform="translate(600.835375 301.792312) scale(0.1 -0.1)">
      <use xlink:href="#DejaVuSans-30"/>
      <use xlink:href="#DejaVuSans-2e" x="63.623047"/>
      <use xlink:href="#DejaVuSans-37" x="95.410156"/>
     </g>
    </g>
   </g>
  </g>
  <g id="text_50">
   <!-- x0x1-y0 One-tone-powerDep -->
   <g transform="translate(126.599063 16.318125) scale(0.12 -0.12)">
    <defs>
     <path id="DejaVuSans-78" d="M 3513 3500 
L 2247 1797 
L 3578 0 
L 2900 0 
L 1881 1375 
L 863 0 
L 184 0 
L 1544 1831 
L 300 3500 
L 978 3500 
L 1906 2253 
L 2834 3500 
L 3513 3500 
z
" transform="scale(0.015625)"/>
     <path id="DejaVuSans-2d" d="M 313 2009 
L 1997 2009 
L 1997 1497 
L 313 1497 
L 313 2009 
z
" transform="scale(0.015625)"/>
     <path id="DejaVuSans-4f" d="M 2522 4238 
Q 1834 4238 1429 3725 
Q 1025 3213 1025 2328 
Q 1025 1447 1429 934 
Q 1834 422 2522 422 
Q 3209 422 3611 934 
Q 4013 1447 4013 2328 
Q 4013 3213 3611 3725 
Q 3209 4238 2522 4238 
z
M 2522 4750 
Q 3503 4750 4090 4092 
Q 4678 3434 4678 2328 
Q 4678 1225 4090 567 
Q 3503 -91 2522 -91 
Q 1538 -91 948 565 
Q 359 1222 359 2328 
Q 359 3434 948 4092 
Q 1538 4750 2522 4750 
z
" transform="scale(0.015625)"/>
     <path id="DejaVuSans-77" d="M 269 3500 
L 844 3500 
L 1563 769 
L 2278 3500 
L 2956 3500 
L 3675 769 
L 4391 3500 
L 4966 3500 
L 4050 0 
L 3372 0 
L 2619 2869 
L 1863 0 
L 1184 0 
L 269 3500 
z
" transform="scale(0.015625)"/>
     <path id="DejaVuSans-44" d="M 1259 4147 
L 1259 519 
L 2022 519 
Q 2988 519 3436 956 
Q 3884 1394 3884 2338 
Q 3884 3275 3436 3711 
Q 2988 4147 2022 4147 
L 1259 4147 
z
M 628 4666 
L 1925 4666 
Q 3281 4666 3915 4102 
Q 4550 3538 4550 2338 
Q 4550 1131 3912 565 
Q 3275 0 1925 0 
L 628 0 
L 628 4666 
z
" transform="scale(0.015625)"/>
    </defs>
    <use xlink:href="#DejaVuSans-78"/>
    <use xlink:href="#DejaVuSans-30" x="59.179688"/>
    <use xlink:href="#DejaVuSans-78" x="122.802734"/>
    <use xlink:href="#DejaVuSans-31" x="181.982422"/>
    <use xlink:href="#DejaVuSans-2d" x="245.605469"/>
    <use xlink:href="#DejaVuSans-79" x="279.939453"/>
    <use xlink:href="#DejaVuSans-30" x="339.119141"/>
    <use xlink:href="#DejaVuSans-20" x="402.742188"/>
    <use xlink:href="#DejaVuSans-4f" x="434.529297"/>
    <use xlink:href="#DejaVuSans-6e" x="513.240234"/>
    <use xlink:href="#DejaVuSans-65" x="576.619141"/>
    <use xlink:href="#DejaVuSans-2d" x="638.142578"/>
    <use xlink:href="#DejaVuSans-74" x="674.226562"/>
    <use xlink:href="#DejaVuSans-6f" x="713.435547"/>
    <use xlink:href="#DejaVuSans-6e" x="774.617188"/>
    <use xlink:href="#DejaVuSans-65" x="837.996094"/>
    <use xlink:href="#DejaVuSans-2d" x="899.519531"/>
    <use xlink:href="#DejaVuSans-70" x="935.603516"/>
    <use xlink:href="#DejaVuSans-6f" x="999.080078"/>
    <use xlink:href="#DejaVuSans-77" x="1060.261719"/>
    <use xlink:href="#DejaVuSans-65" x="1142.048828"/>
    <use xlink:href="#DejaVuSans-72" x="1203.572266"/>
    <use xlink:href="#DejaVuSans-44" x="1244.685547"/>
    <use xlink:href="#DejaVuSans-65" x="1321.6875"/>
    <use xlink:href="#DejaVuSans-70" x="1383.210938"/>
   </g>
   <!-- tuid: 20240226-105514-320-21a4ab -->
   <g transform="translate(103.8375 29.7555) scale(0.12 -0.12)">
    <defs>
     <path id="DejaVuSans-3a" d="M 750 794 
L 1409 794 
L 1409 0 
L 750 0 
L 750 794 
z
M 750 3309 
L 1409 3309 
L 1409 2516 
L 750 2516 
L 750 3309 
z
" transform="scale(0.015625)"/>
     <path id="DejaVuSans-62" d="M 3116 1747 
Q 3116 2381 2855 2742 
Q 2594 3103 2138 3103 
Q 1681 3103 1420 2742 
Q 1159 2381 1159 1747 
Q 1159 1113 1420 752 
Q 1681 391 2138 391 
Q 2594 391 2855 752 
Q 3116 1113 3116 1747 
z
M 1159 2969 
Q 1341 3281 1617 3432 
Q 1894 3584 2278 3584 
Q 2916 3584 3314 3078 
Q 3713 2572 3713 1747 
Q 3713 922 3314 415 
Q 2916 -91 2278 -91 
Q 1894 -91 1617 61 
Q 1341 213 1159 525 
L 1159 0 
L 581 0 
L 581 4863 
L 1159 4863 
L 1159 2969 
z
" transform="scale(0.015625)"/>
    </defs>
    <use xlink:href="#DejaVuSans-74"/>
    <use xlink:href="#DejaVuSans-75" x="39.208984"/>
    <use xlink:href="#DejaVuSans-69" x="102.587891"/>
    <use xlink:href="#DejaVuSans-64" x="130.371094"/>
    <use xlink:href="#DejaVuSans-3a" x="193.847656"/>
    <use xlink:href="#DejaVuSans-20" x="227.539062"/>
    <use xlink:href="#DejaVuSans-32" x="259.326172"/>
    <use xlink:href="#DejaVuSans-30" x="322.949219"/>
    <use xlink:href="#DejaVuSans-32" x="386.572266"/>
    <use xlink:href="#DejaVuSans-34" x="450.195312"/>
    <use xlink:href="#DejaVuSans-30" x="513.818359"/>
    <use xlink:href="#DejaVuSans-32" x="577.441406"/>
    <use xlink:href="#DejaVuSans-32" x="641.064453"/>
    <use xlink:href="#DejaVuSans-36" x="704.6875"/>
    <use xlink:href="#DejaVuSans-2d" x="768.310547"/>
    <use xlink:href="#DejaVuSans-31" x="804.394531"/>
    <use xlink:href="#DejaVuSans-30" x="868.017578"/>
    <use xlink:href="#DejaVuSans-35" x="931.640625"/>
    <use xlink:href="#DejaVuSans-35" x="995.263672"/>
    <use xlink:href="#DejaVuSans-31" x="1058.886719"/>
    <use xlink:href="#DejaVuSans-34" x="1122.509766"/>
    <use xlink:href="#DejaVuSans-2d" x="1186.132812"/>
    <use xlink:href="#DejaVuSans-33" x="1222.216797"/>
    <use xlink:href="#DejaVuSans-32" x="1285.839844"/>
    <use xlink:href="#DejaVuSans-30" x="1349.462891"/>
    <use xlink:href="#DejaVuSans-2d" x="1413.085938"/>
    <use xlink:href="#DejaVuSans-32" x="1449.169922"/>
    <use xlink:href="#DejaVuSans-31" x="1512.792969"/>
    <use xlink:href="#DejaVuSans-61" x="1576.416016"/>
    <use xlink:href="#DejaVuSans-34" x="1637.695312"/>
    <use xlink:href="#DejaVuSans-61" x="1701.318359"/>
    <use xlink:href="#DejaVuSans-62" x="1762.597656"/>
   </g>
  </g>
 </g>
 <defs>
  <clipPath id="p3560108385">
   <rect x="40.603125" y="41.76" width="357.12" height="266.112"/>
  </clipPath>
 </defs>
</svg>
