<?xml version="1.0" encoding="utf-8" standalone="no"?>
<!DOCTYPE svg PUBLIC "-//W3C//DTD SVG 1.1//EN"
  "http://www.w3.org/Graphics/SVG/1.1/DTD/svg11.dtd">
<svg xmlns:xlink="http://www.w3.org/1999/xlink" width="592.85725pt" height="345.42825pt" viewBox="0 0 592.85725 345.42825" xmlns="http://www.w3.org/2000/svg" version="1.1">
 <metadata>
  <rdf:RDF xmlns:dc="http://purl.org/dc/elements/1.1/" xmlns:cc="http://creativecommons.org/ns#" xmlns:rdf="http://www.w3.org/1999/02/22-rdf-syntax-ns#">
   <cc:Work>
    <dc:type rdf:resource="http://purl.org/dc/dcmitype/StillImage"/>
    <dc:date>2024-03-04T11:32:23.442021</dc:date>
    <dc:format>image/svg+xml</dc:format>
    <dc:creator>
     <cc:Agent>
      <dc:title>Matplotlib v3.8.1, https://matplotlib.org/</dc:title>
     </cc:Agent>
    </dc:creator>
   </cc:Work>
  </rdf:RDF>
 </metadata>
 <defs>
  <style type="text/css">*{stroke-linejoin: round; stroke-linecap: butt}</style>
 </defs>
 <g id="figure_1">
  <g id="patch_1">
   <path d="M 0 345.42825 
L 592.85725 345.42825 
L 592.85725 -0 
L 0 -0 
L 0 345.42825 
z
" style="fill: none; opacity: 0"/>
  </g>
  <g id="axes_1">
   <g id="patch_2">
    <path d="M 50.573438 307.872 
L 407.693438 307.872 
L 407.693438 41.76 
L 50.573438 41.76 
z
" style="fill: #ffffff"/>
   </g>
   <g id="matplotlib.axis_1">
    <g id="xtick_1">
     <g id="line2d_1">
      <defs>
       <path id="ma98cbcb0e8" d="M 0 0 
L 0 3.5 
" style="stroke: #000000; stroke-width: 0.8"/>
      </defs>
      <g>
       <use xlink:href="#ma98cbcb0e8" x="118.846252" y="307.872" style="stroke: #000000; stroke-width: 0.8"/>
      </g>
     </g>
     <g id="text_1">
      <!-- -200 -->
      <g transform="translate(107.498596 322.470438) scale(0.1 -0.1)">
       <defs>
        <path id="DejaVuSans-2d" d="M 313 2009 
L 1997 2009 
L 1997 1497 
L 313 1497 
L 313 2009 
z
" transform="scale(0.015625)"/>
        <path id="DejaVuSans-32" d="M 1228 531 
L 3431 531 
L 3431 0 
L 469 0 
L 469 531 
Q 828 903 1448 1529 
Q 2069 2156 2228 2338 
Q 2531 2678 2651 2914 
Q 2772 3150 2772 3378 
Q 2772 3750 2511 3984 
Q 2250 4219 1831 4219 
Q 1534 4219 1204 4116 
Q 875 4013 500 3803 
L 500 4441 
Q 881 4594 1212 4672 
Q 1544 4750 1819 4750 
Q 2544 4750 2975 4387 
Q 3406 4025 3406 3419 
Q 3406 3131 3298 2873 
Q 3191 2616 2906 2266 
Q 2828 2175 2409 1742 
Q 1991 1309 1228 531 
z
" transform="scale(0.015625)"/>
        <path id="DejaVuSans-30" d="M 2034 4250 
Q 1547 4250 1301 3770 
Q 1056 3291 1056 2328 
Q 1056 1369 1301 889 
Q 1547 409 2034 409 
Q 2525 409 2770 889 
Q 3016 1369 3016 2328 
Q 3016 3291 2770 3770 
Q 2525 4250 2034 4250 
z
M 2034 4750 
Q 2819 4750 3233 4129 
Q 3647 3509 3647 2328 
Q 3647 1150 3233 529 
Q 2819 -91 2034 -91 
Q 1250 -91 836 529 
Q 422 1150 422 2328 
Q 422 3509 836 4129 
Q 1250 4750 2034 4750 
z
" transform="scale(0.015625)"/>
       </defs>
       <use xlink:href="#DejaVuSans-2d"/>
       <use xlink:href="#DejaVuSans-32" x="36.083984"/>
       <use xlink:href="#DejaVuSans-30" x="99.707031"/>
       <use xlink:href="#DejaVuSans-30" x="163.330078"/>
      </g>
     </g>
    </g>
    <g id="xtick_2">
     <g id="line2d_2">
      <g>
       <use xlink:href="#ma98cbcb0e8" x="193.376762" y="307.872" style="stroke: #000000; stroke-width: 0.8"/>
      </g>
     </g>
     <g id="text_2">
      <!-- -150 -->
      <g transform="translate(182.029106 322.470438) scale(0.1 -0.1)">
       <defs>
        <path id="DejaVuSans-31" d="M 794 531 
L 1825 531 
L 1825 4091 
L 703 3866 
L 703 4441 
L 1819 4666 
L 2450 4666 
L 2450 531 
L 3481 531 
L 3481 0 
L 794 0 
L 794 531 
z
" transform="scale(0.015625)"/>
        <path id="DejaVuSans-35" d="M 691 4666 
L 3169 4666 
L 3169 4134 
L 1269 4134 
L 1269 2991 
Q 1406 3038 1543 3061 
Q 1681 3084 1819 3084 
Q 2600 3084 3056 2656 
Q 3513 2228 3513 1497 
Q 3513 744 3044 326 
Q 2575 -91 1722 -91 
Q 1428 -91 1123 -41 
Q 819 9 494 109 
L 494 744 
Q 775 591 1075 516 
Q 1375 441 1709 441 
Q 2250 441 2565 725 
Q 2881 1009 2881 1497 
Q 2881 1984 2565 2268 
Q 2250 2553 1709 2553 
Q 1456 2553 1204 2497 
Q 953 2441 691 2322 
L 691 4666 
z
" transform="scale(0.015625)"/>
       </defs>
       <use xlink:href="#DejaVuSans-2d"/>
       <use xlink:href="#DejaVuSans-31" x="36.083984"/>
       <use xlink:href="#DejaVuSans-35" x="99.707031"/>
       <use xlink:href="#DejaVuSans-30" x="163.330078"/>
      </g>
     </g>
    </g>
    <g id="xtick_3">
     <g id="line2d_3">
      <g>
       <use xlink:href="#ma98cbcb0e8" x="267.907272" y="307.872" style="stroke: #000000; stroke-width: 0.8"/>
      </g>
     </g>
     <g id="text_3">
      <!-- -100 -->
      <g transform="translate(256.559616 322.470438) scale(0.1 -0.1)">
       <use xlink:href="#DejaVuSans-2d"/>
       <use xlink:href="#DejaVuSans-31" x="36.083984"/>
       <use xlink:href="#DejaVuSans-30" x="99.707031"/>
       <use xlink:href="#DejaVuSans-30" x="163.330078"/>
      </g>
     </g>
    </g>
    <g id="xtick_4">
     <g id="line2d_4">
      <g>
       <use xlink:href="#ma98cbcb0e8" x="342.437782" y="307.872" style="stroke: #000000; stroke-width: 0.8"/>
      </g>
     </g>
     <g id="text_4">
      <!-- -50 -->
      <g transform="translate(334.271376 322.470438) scale(0.1 -0.1)">
       <use xlink:href="#DejaVuSans-2d"/>
       <use xlink:href="#DejaVuSans-35" x="36.083984"/>
       <use xlink:href="#DejaVuSans-30" x="99.707031"/>
      </g>
     </g>
    </g>
    <g id="text_5">
     <!-- Re$(S_{21})$ [mV] -->
     <g transform="translate(197.133438 336.148562) scale(0.1 -0.1)">
      <defs>
       <path id="DejaVuSans-52" d="M 2841 2188 
Q 3044 2119 3236 1894 
Q 3428 1669 3622 1275 
L 4263 0 
L 3584 0 
L 2988 1197 
Q 2756 1666 2539 1819 
Q 2322 1972 1947 1972 
L 1259 1972 
L 1259 0 
L 628 0 
L 628 4666 
L 2053 4666 
Q 2853 4666 3247 4331 
Q 3641 3997 3641 3322 
Q 3641 2881 3436 2590 
Q 3231 2300 2841 2188 
z
M 1259 4147 
L 1259 2491 
L 2053 2491 
Q 2509 2491 2742 2702 
Q 2975 2913 2975 3322 
Q 2975 3731 2742 3939 
Q 2509 4147 2053 4147 
L 1259 4147 
z
" transform="scale(0.015625)"/>
       <path id="DejaVuSans-65" d="M 3597 1894 
L 3597 1613 
L 953 1613 
Q 991 1019 1311 708 
Q 1631 397 2203 397 
Q 2534 397 2845 478 
Q 3156 559 3463 722 
L 3463 178 
Q 3153 47 2828 -22 
Q 2503 -91 2169 -91 
Q 1331 -91 842 396 
Q 353 884 353 1716 
Q 353 2575 817 3079 
Q 1281 3584 2069 3584 
Q 2775 3584 3186 3129 
Q 3597 2675 3597 1894 
z
M 3022 2063 
Q 3016 2534 2758 2815 
Q 2500 3097 2075 3097 
Q 1594 3097 1305 2825 
Q 1016 2553 972 2059 
L 3022 2063 
z
" transform="scale(0.015625)"/>
       <path id="DejaVuSans-28" d="M 1984 4856 
Q 1566 4138 1362 3434 
Q 1159 2731 1159 2009 
Q 1159 1288 1364 580 
Q 1569 -128 1984 -844 
L 1484 -844 
Q 1016 -109 783 600 
Q 550 1309 550 2009 
Q 550 2706 781 3412 
Q 1013 4119 1484 4856 
L 1984 4856 
z
" transform="scale(0.015625)"/>
       <path id="DejaVuSans-Oblique-53" d="M 3859 4513 
L 3738 3897 
Q 3422 4066 3111 4152 
Q 2800 4238 2509 4238 
Q 1944 4238 1609 3991 
Q 1275 3744 1275 3334 
Q 1275 3109 1398 2989 
Q 1522 2869 2034 2731 
L 2413 2638 
Q 3053 2472 3303 2217 
Q 3553 1963 3553 1503 
Q 3553 797 2998 353 
Q 2444 -91 1538 -91 
Q 1166 -91 791 -17 
Q 416 56 38 206 
L 166 856 
Q 513 641 861 531 
Q 1209 422 1556 422 
Q 2147 422 2503 684 
Q 2859 947 2859 1369 
Q 2859 1650 2717 1795 
Q 2575 1941 2106 2059 
L 1728 2156 
Q 1081 2325 845 2545 
Q 609 2766 609 3163 
Q 609 3859 1145 4304 
Q 1681 4750 2541 4750 
Q 2875 4750 3203 4690 
Q 3531 4631 3859 4513 
z
" transform="scale(0.015625)"/>
       <path id="DejaVuSans-29" d="M 513 4856 
L 1013 4856 
Q 1481 4119 1714 3412 
Q 1947 2706 1947 2009 
Q 1947 1309 1714 600 
Q 1481 -109 1013 -844 
L 513 -844 
Q 928 -128 1133 580 
Q 1338 1288 1338 2009 
Q 1338 2731 1133 3434 
Q 928 4138 513 4856 
z
" transform="scale(0.015625)"/>
       <path id="DejaVuSans-20" transform="scale(0.015625)"/>
       <path id="DejaVuSans-5b" d="M 550 4863 
L 1875 4863 
L 1875 4416 
L 1125 4416 
L 1125 -397 
L 1875 -397 
L 1875 -844 
L 550 -844 
L 550 4863 
z
" transform="scale(0.015625)"/>
       <path id="DejaVuSans-6d" d="M 3328 2828 
Q 3544 3216 3844 3400 
Q 4144 3584 4550 3584 
Q 5097 3584 5394 3201 
Q 5691 2819 5691 2113 
L 5691 0 
L 5113 0 
L 5113 2094 
Q 5113 2597 4934 2840 
Q 4756 3084 4391 3084 
Q 3944 3084 3684 2787 
Q 3425 2491 3425 1978 
L 3425 0 
L 2847 0 
L 2847 2094 
Q 2847 2600 2669 2842 
Q 2491 3084 2119 3084 
Q 1678 3084 1418 2786 
Q 1159 2488 1159 1978 
L 1159 0 
L 581 0 
L 581 3500 
L 1159 3500 
L 1159 2956 
Q 1356 3278 1631 3431 
Q 1906 3584 2284 3584 
Q 2666 3584 2933 3390 
Q 3200 3197 3328 2828 
z
" transform="scale(0.015625)"/>
       <path id="DejaVuSans-56" d="M 1831 0 
L 50 4666 
L 709 4666 
L 2188 738 
L 3669 4666 
L 4325 4666 
L 2547 0 
L 1831 0 
z
" transform="scale(0.015625)"/>
       <path id="DejaVuSans-5d" d="M 1947 4863 
L 1947 -844 
L 622 -844 
L 622 -397 
L 1369 -397 
L 1369 4416 
L 622 4416 
L 622 4863 
L 1947 4863 
z
" transform="scale(0.015625)"/>
      </defs>
      <use xlink:href="#DejaVuSans-52" transform="translate(0 0.015625)"/>
      <use xlink:href="#DejaVuSans-65" transform="translate(69.482422 0.015625)"/>
      <use xlink:href="#DejaVuSans-28" transform="translate(131.005859 0.015625)"/>
      <use xlink:href="#DejaVuSans-Oblique-53" transform="translate(170.019531 0.015625)"/>
      <use xlink:href="#DejaVuSans-32" transform="translate(233.496094 -16.390625) scale(0.7)"/>
      <use xlink:href="#DejaVuSans-31" transform="translate(278.032227 -16.390625) scale(0.7)"/>
      <use xlink:href="#DejaVuSans-29" transform="translate(325.302734 0.015625)"/>
      <use xlink:href="#DejaVuSans-20" transform="translate(364.316406 0.015625)"/>
      <use xlink:href="#DejaVuSans-5b" transform="translate(396.103516 0.015625)"/>
      <use xlink:href="#DejaVuSans-6d" transform="translate(435.117188 0.015625)"/>
      <use xlink:href="#DejaVuSans-56" transform="translate(532.529297 0.015625)"/>
      <use xlink:href="#DejaVuSans-5d" transform="translate(600.9375 0.015625)"/>
     </g>
    </g>
   </g>
   <g id="matplotlib.axis_2">
    <g id="ytick_1">
     <g id="line2d_5">
      <defs>
       <path id="mcc4718d5aa" d="M 0 0 
L -3.5 0 
" style="stroke: #000000; stroke-width: 0.8"/>
      </defs>
      <g>
       <use xlink:href="#mcc4718d5aa" x="50.573438" y="279.352345" style="stroke: #000000; stroke-width: 0.8"/>
      </g>
     </g>
     <g id="text_6">
      <!-- -200 -->
      <g transform="translate(20.878125 283.151564) scale(0.1 -0.1)">
       <use xlink:href="#DejaVuSans-2d"/>
       <use xlink:href="#DejaVuSans-32" x="36.083984"/>
       <use xlink:href="#DejaVuSans-30" x="99.707031"/>
       <use xlink:href="#DejaVuSans-30" x="163.330078"/>
      </g>
     </g>
    </g>
    <g id="ytick_2">
     <g id="line2d_6">
      <g>
       <use xlink:href="#mcc4718d5aa" x="50.573438" y="246.676733" style="stroke: #000000; stroke-width: 0.8"/>
      </g>
     </g>
     <g id="text_7">
      <!-- -150 -->
      <g transform="translate(20.878125 250.475952) scale(0.1 -0.1)">
       <use xlink:href="#DejaVuSans-2d"/>
       <use xlink:href="#DejaVuSans-31" x="36.083984"/>
       <use xlink:href="#DejaVuSans-35" x="99.707031"/>
       <use xlink:href="#DejaVuSans-30" x="163.330078"/>
      </g>
     </g>
    </g>
    <g id="ytick_3">
     <g id="line2d_7">
      <g>
       <use xlink:href="#mcc4718d5aa" x="50.573438" y="214.001122" style="stroke: #000000; stroke-width: 0.8"/>
      </g>
     </g>
     <g id="text_8">
      <!-- -100 -->
      <g transform="translate(20.878125 217.800341) scale(0.1 -0.1)">
       <use xlink:href="#DejaVuSans-2d"/>
       <use xlink:href="#DejaVuSans-31" x="36.083984"/>
       <use xlink:href="#DejaVuSans-30" x="99.707031"/>
       <use xlink:href="#DejaVuSans-30" x="163.330078"/>
      </g>
     </g>
    </g>
    <g id="ytick_4">
     <g id="line2d_8">
      <g>
       <use xlink:href="#mcc4718d5aa" x="50.573438" y="181.32551" style="stroke: #000000; stroke-width: 0.8"/>
      </g>
     </g>
     <g id="text_9">
      <!-- -50 -->
      <g transform="translate(27.240625 185.124729) scale(0.1 -0.1)">
       <use xlink:href="#DejaVuSans-2d"/>
       <use xlink:href="#DejaVuSans-35" x="36.083984"/>
       <use xlink:href="#DejaVuSans-30" x="99.707031"/>
      </g>
     </g>
    </g>
    <g id="ytick_5">
     <g id="line2d_9">
      <g>
       <use xlink:href="#mcc4718d5aa" x="50.573438" y="148.649899" style="stroke: #000000; stroke-width: 0.8"/>
      </g>
     </g>
     <g id="text_10">
      <!-- 0 -->
      <g transform="translate(37.210938 152.449118) scale(0.1 -0.1)">
       <use xlink:href="#DejaVuSans-30"/>
      </g>
     </g>
    </g>
    <g id="ytick_6">
     <g id="line2d_10">
      <g>
       <use xlink:href="#mcc4718d5aa" x="50.573438" y="115.974287" style="stroke: #000000; stroke-width: 0.8"/>
      </g>
     </g>
     <g id="text_11">
      <!-- 50 -->
      <g transform="translate(30.848438 119.773506) scale(0.1 -0.1)">
       <use xlink:href="#DejaVuSans-35"/>
       <use xlink:href="#DejaVuSans-30" x="63.623047"/>
      </g>
     </g>
    </g>
    <g id="ytick_7">
     <g id="line2d_11">
      <g>
       <use xlink:href="#mcc4718d5aa" x="50.573438" y="83.298676" style="stroke: #000000; stroke-width: 0.8"/>
      </g>
     </g>
     <g id="text_12">
      <!-- 100 -->
      <g transform="translate(24.485938 87.097894) scale(0.1 -0.1)">
       <use xlink:href="#DejaVuSans-31"/>
       <use xlink:href="#DejaVuSans-30" x="63.623047"/>
       <use xlink:href="#DejaVuSans-30" x="127.246094"/>
      </g>
     </g>
    </g>
    <g id="ytick_8">
     <g id="line2d_12">
      <g>
       <use xlink:href="#mcc4718d5aa" x="50.573438" y="50.623064" style="stroke: #000000; stroke-width: 0.8"/>
      </g>
     </g>
     <g id="text_13">
      <!-- 150 -->
      <g transform="translate(24.485938 54.422283) scale(0.1 -0.1)">
       <use xlink:href="#DejaVuSans-31"/>
       <use xlink:href="#DejaVuSans-35" x="63.623047"/>
       <use xlink:href="#DejaVuSans-30" x="127.246094"/>
      </g>
     </g>
    </g>
    <g id="text_14">
     <!-- Im$(S_{21})$ [mV] -->
     <g transform="translate(14.798438 206.466) rotate(-90) scale(0.1 -0.1)">
      <defs>
       <path id="DejaVuSans-49" d="M 628 4666 
L 1259 4666 
L 1259 0 
L 628 0 
L 628 4666 
z
" transform="scale(0.015625)"/>
      </defs>
      <use xlink:href="#DejaVuSans-49" transform="translate(0 0.015625)"/>
      <use xlink:href="#DejaVuSans-6d" transform="translate(25.867188 0.015625)"/>
      <use xlink:href="#DejaVuSans-28" transform="translate(123.279297 0.015625)"/>
      <use xlink:href="#DejaVuSans-Oblique-53" transform="translate(162.292969 0.015625)"/>
      <use xlink:href="#DejaVuSans-32" transform="translate(225.769531 -16.390625) scale(0.7)"/>
      <use xlink:href="#DejaVuSans-31" transform="translate(270.305664 -16.390625) scale(0.7)"/>
      <use xlink:href="#DejaVuSans-29" transform="translate(317.576172 0.015625)"/>
      <use xlink:href="#DejaVuSans-20" transform="translate(356.589844 0.015625)"/>
      <use xlink:href="#DejaVuSans-5b" transform="translate(388.376953 0.015625)"/>
      <use xlink:href="#DejaVuSans-6d" transform="translate(427.390625 0.015625)"/>
      <use xlink:href="#DejaVuSans-56" transform="translate(524.802734 0.015625)"/>
      <use xlink:href="#DejaVuSans-5d" transform="translate(593.210938 0.015625)"/>
     </g>
    </g>
   </g>
   <g id="line2d_13">
    <path d="M 273.485577 295.776 
L 269.559224 294.515754 
L 261.865775 292.356591 
L 254.246563 290.058563 
L 251.149305 288.809596 
L 247.328913 287.716429 
L 243.90315 286.521833 
L 240.675722 285.191494 
L 236.942709 284.026327 
L 223.79573 278.754458 
L 220.503372 277.55112 
L 211.066686 273.447503 
L 208.129292 272.084016 
L 205.279909 270.638603 
L 199.30194 267.871022 
L 196.641258 266.428279 
L 190.903592 263.576713 
L 188.1977 262.149921 
L 183.034268 259.120454 
L 180.305842 257.787356 
L 175.249386 254.793503 
L 173.334565 253.260007 
L 168.265052 250.261156 
L 166.211872 248.66052 
L 161.591844 245.61425 
L 159.757885 244.007684 
L 155.463713 240.890083 
L 153.362247 239.314598 
L 151.755602 237.769851 
L 149.409367 236.149604 
L 147.927578 234.455295 
L 144.249757 231.198036 
L 141.062525 227.996886 
L 139.19883 226.330002 
L 137.984031 224.807218 
L 135.757135 223.005604 
L 134.886172 221.466065 
L 133.433774 219.888677 
L 132.036935 218.100376 
L 130.619733 216.536298 
L 127.026543 211.518874 
L 126.269659 209.837784 
L 124.648633 208.170074 
L 122.975616 204.888715 
L 121.540324 203.139348 
L 120.659036 201.353528 
L 119.689285 199.677351 
L 119.389435 198.167385 
L 118.134096 196.38885 
L 117.518496 194.737657 
L 115.89868 191.180989 
L 114.066341 187.662178 
L 114.020041 186.100378 
L 112.639703 184.009764 
L 112.636744 182.487993 
L 111.298721 180.487185 
L 110.79677 178.645983 
L 110.566502 176.850221 
L 109.651444 174.823955 
L 108.970788 172.682654 
L 108.521896 170.739131 
L 107.636897 168.662449 
L 105.924226 165.731396 
L 104.518486 162.987834 
L 102.195112 159.350798 
L 101.229202 156.326397 
L 100.585479 153.606029 
L 98.369636 149.042664 
L 97.981432 146.047827 
L 94.01233 138.645355 
L 90.378579 129.311679 
L 90.776369 123.016904 
L 92.610375 117.329293 
L 96.191851 110.750388 
L 101.623306 103.949407 
L 109.358139 98.180343 
L 121.203002 88.866863 
L 136.292 80.703875 
L 157.618999 72.120007 
L 186.855975 64.956293 
L 223.453897 59.669394 
L 266.512572 58.745916 
L 310.330678 63.199757 
L 349.635791 73.630075 
L 377.622844 88.353337 
L 391.215073 104.705465 
L 391.46071 120.276619 
L 382.783769 134.038307 
L 368.529215 144.476634 
L 350.610768 152.471928 
L 332.966097 157.708257 
L 315.855783 160.950497 
L 300.937328 162.82522 
L 287.106387 163.689218 
L 274.391316 163.694887 
L 264.04911 163.282508 
L 254.583404 162.4364 
L 241.8019 160.419632 
L 235.98903 159.184963 
L 222.477835 155.0321 
L 215.438896 151.959463 
L 213.503953 150.633337 
L 210.506189 149.226201 
L 208.181775 147.755569 
L 204.719857 145.088029 
L 203.276507 143.666997 
L 202.384493 142.541228 
L 200.811234 140.984881 
L 199.893786 139.822311 
L 198.824246 137.460624 
L 197.849344 135.987192 
L 197.49549 134.890079 
L 197.404003 133.593282 
L 197.052398 132.544071 
L 196.907364 131.373588 
L 196.620984 130.181905 
L 196.925564 129.048745 
L 197.013606 126.882317 
L 197.315474 125.810184 
L 197.538965 123.582368 
L 198.461362 121.544101 
L 199.012128 120.611987 
L 199.177668 119.480589 
L 199.794994 118.503208 
L 200.233471 117.542203 
L 201.414247 115.469221 
L 203.027927 114.04412 
L 203.831206 113.020053 
L 204.818032 112.479416 
L 205.19362 111.25113 
L 205.861472 110.38201 
L 208.05348 109.311521 
L 208.546398 108.026238 
L 209.714108 107.396283 
L 210.931135 107.378978 
L 211.658378 106.252578 
L 212.819659 105.909084 
L 213.656532 105.11043 
L 214.943395 104.826505 
L 217.042149 103.813397 
L 219.749114 100.828869 
L 220.602848 100.272327 
L 221.704599 99.406161 
L 222.777969 99.025967 
L 223.586537 98.288873 
L 227.86472 95.325904 
L 228.937989 94.337368 
L 234.327323 90.659245 
L 235.455834 89.795629 
L 236.662728 89.247052 
L 237.672567 88.438881 
L 239.983239 87.115217 
L 241.378378 86.466914 
L 242.318664 85.839373 
L 244.822317 84.429517 
L 244.822317 84.429517 
" clip-path="url(#p219372aa0f)" style="fill: none; stroke: #1f77b4; stroke-width: 1.5; stroke-linecap: square"/>
    <defs>
     <path id="m786d35353e" d="M 0 1.5 
C 0.397805 1.5 0.77937 1.341951 1.06066 1.06066 
C 1.341951 0.77937 1.5 0.397805 1.5 0 
C 1.5 -0.397805 1.341951 -0.77937 1.06066 -1.06066 
C 0.77937 -1.341951 0.397805 -1.5 0 -1.5 
C -0.397805 -1.5 -0.77937 -1.341951 -1.06066 -1.06066 
C -1.341951 -0.77937 -1.5 -0.397805 -1.5 0 
C -1.5 0.397805 -1.341951 0.77937 -1.06066 1.06066 
C -0.77937 1.341951 -0.397805 1.5 0 1.5 
z
" style="stroke: #1f77b4"/>
    </defs>
    <g clip-path="url(#p219372aa0f)">
     <use xlink:href="#m786d35353e" x="273.485577" y="295.776" style="fill: #1f77b4; stroke: #1f77b4"/>
     <use xlink:href="#m786d35353e" x="269.559224" y="294.515754" style="fill: #1f77b4; stroke: #1f77b4"/>
     <use xlink:href="#m786d35353e" x="265.756529" y="293.488229" style="fill: #1f77b4; stroke: #1f77b4"/>
     <use xlink:href="#m786d35353e" x="261.865775" y="292.356591" style="fill: #1f77b4; stroke: #1f77b4"/>
     <use xlink:href="#m786d35353e" x="258.385194" y="291.329301" style="fill: #1f77b4; stroke: #1f77b4"/>
     <use xlink:href="#m786d35353e" x="254.246563" y="290.058563" style="fill: #1f77b4; stroke: #1f77b4"/>
     <use xlink:href="#m786d35353e" x="251.149305" y="288.809596" style="fill: #1f77b4; stroke: #1f77b4"/>
     <use xlink:href="#m786d35353e" x="247.328913" y="287.716429" style="fill: #1f77b4; stroke: #1f77b4"/>
     <use xlink:href="#m786d35353e" x="243.90315" y="286.521833" style="fill: #1f77b4; stroke: #1f77b4"/>
     <use xlink:href="#m786d35353e" x="240.675722" y="285.191494" style="fill: #1f77b4; stroke: #1f77b4"/>
     <use xlink:href="#m786d35353e" x="236.942709" y="284.026327" style="fill: #1f77b4; stroke: #1f77b4"/>
     <use xlink:href="#m786d35353e" x="233.568227" y="282.646276" style="fill: #1f77b4; stroke: #1f77b4"/>
     <use xlink:href="#m786d35353e" x="230.342236" y="281.423332" style="fill: #1f77b4; stroke: #1f77b4"/>
     <use xlink:href="#m786d35353e" x="227.248181" y="280.019926" style="fill: #1f77b4; stroke: #1f77b4"/>
     <use xlink:href="#m786d35353e" x="223.79573" y="278.754458" style="fill: #1f77b4; stroke: #1f77b4"/>
     <use xlink:href="#m786d35353e" x="220.503372" y="277.55112" style="fill: #1f77b4; stroke: #1f77b4"/>
     <use xlink:href="#m786d35353e" x="217.209015" y="276.160117" style="fill: #1f77b4; stroke: #1f77b4"/>
     <use xlink:href="#m786d35353e" x="214.11512" y="274.805991" style="fill: #1f77b4; stroke: #1f77b4"/>
     <use xlink:href="#m786d35353e" x="211.066686" y="273.447503" style="fill: #1f77b4; stroke: #1f77b4"/>
     <use xlink:href="#m786d35353e" x="208.129292" y="272.084016" style="fill: #1f77b4; stroke: #1f77b4"/>
     <use xlink:href="#m786d35353e" x="205.279909" y="270.638603" style="fill: #1f77b4; stroke: #1f77b4"/>
     <use xlink:href="#m786d35353e" x="202.248833" y="269.254261" style="fill: #1f77b4; stroke: #1f77b4"/>
     <use xlink:href="#m786d35353e" x="199.30194" y="267.871022" style="fill: #1f77b4; stroke: #1f77b4"/>
     <use xlink:href="#m786d35353e" x="196.641258" y="266.428279" style="fill: #1f77b4; stroke: #1f77b4"/>
     <use xlink:href="#m786d35353e" x="193.584923" y="264.962311" style="fill: #1f77b4; stroke: #1f77b4"/>
     <use xlink:href="#m786d35353e" x="190.903592" y="263.576713" style="fill: #1f77b4; stroke: #1f77b4"/>
     <use xlink:href="#m786d35353e" x="188.1977" y="262.149921" style="fill: #1f77b4; stroke: #1f77b4"/>
     <use xlink:href="#m786d35353e" x="185.778948" y="260.681522" style="fill: #1f77b4; stroke: #1f77b4"/>
     <use xlink:href="#m786d35353e" x="183.034268" y="259.120454" style="fill: #1f77b4; stroke: #1f77b4"/>
     <use xlink:href="#m786d35353e" x="180.305842" y="257.787356" style="fill: #1f77b4; stroke: #1f77b4"/>
     <use xlink:href="#m786d35353e" x="177.902599" y="256.35489" style="fill: #1f77b4; stroke: #1f77b4"/>
     <use xlink:href="#m786d35353e" x="175.249386" y="254.793503" style="fill: #1f77b4; stroke: #1f77b4"/>
     <use xlink:href="#m786d35353e" x="173.334565" y="253.260007" style="fill: #1f77b4; stroke: #1f77b4"/>
     <use xlink:href="#m786d35353e" x="170.763193" y="251.783423" style="fill: #1f77b4; stroke: #1f77b4"/>
     <use xlink:href="#m786d35353e" x="168.265052" y="250.261156" style="fill: #1f77b4; stroke: #1f77b4"/>
     <use xlink:href="#m786d35353e" x="166.211872" y="248.66052" style="fill: #1f77b4; stroke: #1f77b4"/>
     <use xlink:href="#m786d35353e" x="163.824257" y="247.129579" style="fill: #1f77b4; stroke: #1f77b4"/>
     <use xlink:href="#m786d35353e" x="161.591844" y="245.61425" style="fill: #1f77b4; stroke: #1f77b4"/>
     <use xlink:href="#m786d35353e" x="159.757885" y="244.007684" style="fill: #1f77b4; stroke: #1f77b4"/>
     <use xlink:href="#m786d35353e" x="157.69186" y="242.539855" style="fill: #1f77b4; stroke: #1f77b4"/>
     <use xlink:href="#m786d35353e" x="155.463713" y="240.890083" style="fill: #1f77b4; stroke: #1f77b4"/>
     <use xlink:href="#m786d35353e" x="153.362247" y="239.314598" style="fill: #1f77b4; stroke: #1f77b4"/>
     <use xlink:href="#m786d35353e" x="151.755602" y="237.769851" style="fill: #1f77b4; stroke: #1f77b4"/>
     <use xlink:href="#m786d35353e" x="149.409367" y="236.149604" style="fill: #1f77b4; stroke: #1f77b4"/>
     <use xlink:href="#m786d35353e" x="147.927578" y="234.455295" style="fill: #1f77b4; stroke: #1f77b4"/>
     <use xlink:href="#m786d35353e" x="145.928184" y="232.75418" style="fill: #1f77b4; stroke: #1f77b4"/>
     <use xlink:href="#m786d35353e" x="144.249757" y="231.198036" style="fill: #1f77b4; stroke: #1f77b4"/>
     <use xlink:href="#m786d35353e" x="142.639092" y="229.559144" style="fill: #1f77b4; stroke: #1f77b4"/>
     <use xlink:href="#m786d35353e" x="141.062525" y="227.996886" style="fill: #1f77b4; stroke: #1f77b4"/>
     <use xlink:href="#m786d35353e" x="139.19883" y="226.330002" style="fill: #1f77b4; stroke: #1f77b4"/>
     <use xlink:href="#m786d35353e" x="137.984031" y="224.807218" style="fill: #1f77b4; stroke: #1f77b4"/>
     <use xlink:href="#m786d35353e" x="135.757135" y="223.005604" style="fill: #1f77b4; stroke: #1f77b4"/>
     <use xlink:href="#m786d35353e" x="134.886172" y="221.466065" style="fill: #1f77b4; stroke: #1f77b4"/>
     <use xlink:href="#m786d35353e" x="133.433774" y="219.888677" style="fill: #1f77b4; stroke: #1f77b4"/>
     <use xlink:href="#m786d35353e" x="132.036935" y="218.100376" style="fill: #1f77b4; stroke: #1f77b4"/>
     <use xlink:href="#m786d35353e" x="130.619733" y="216.536298" style="fill: #1f77b4; stroke: #1f77b4"/>
     <use xlink:href="#m786d35353e" x="129.507199" y="215.02728" style="fill: #1f77b4; stroke: #1f77b4"/>
     <use xlink:href="#m786d35353e" x="128.07941" y="213.156105" style="fill: #1f77b4; stroke: #1f77b4"/>
     <use xlink:href="#m786d35353e" x="127.026543" y="211.518874" style="fill: #1f77b4; stroke: #1f77b4"/>
     <use xlink:href="#m786d35353e" x="126.269659" y="209.837784" style="fill: #1f77b4; stroke: #1f77b4"/>
     <use xlink:href="#m786d35353e" x="124.648633" y="208.170074" style="fill: #1f77b4; stroke: #1f77b4"/>
     <use xlink:href="#m786d35353e" x="123.917645" y="206.623394" style="fill: #1f77b4; stroke: #1f77b4"/>
     <use xlink:href="#m786d35353e" x="122.975616" y="204.888715" style="fill: #1f77b4; stroke: #1f77b4"/>
     <use xlink:href="#m786d35353e" x="121.540324" y="203.139348" style="fill: #1f77b4; stroke: #1f77b4"/>
     <use xlink:href="#m786d35353e" x="120.659036" y="201.353528" style="fill: #1f77b4; stroke: #1f77b4"/>
     <use xlink:href="#m786d35353e" x="119.689285" y="199.677351" style="fill: #1f77b4; stroke: #1f77b4"/>
     <use xlink:href="#m786d35353e" x="119.389435" y="198.167385" style="fill: #1f77b4; stroke: #1f77b4"/>
     <use xlink:href="#m786d35353e" x="118.134096" y="196.38885" style="fill: #1f77b4; stroke: #1f77b4"/>
     <use xlink:href="#m786d35353e" x="117.518496" y="194.737657" style="fill: #1f77b4; stroke: #1f77b4"/>
     <use xlink:href="#m786d35353e" x="116.764343" y="193.068248" style="fill: #1f77b4; stroke: #1f77b4"/>
     <use xlink:href="#m786d35353e" x="115.89868" y="191.180989" style="fill: #1f77b4; stroke: #1f77b4"/>
     <use xlink:href="#m786d35353e" x="114.930377" y="189.370317" style="fill: #1f77b4; stroke: #1f77b4"/>
     <use xlink:href="#m786d35353e" x="114.066341" y="187.662178" style="fill: #1f77b4; stroke: #1f77b4"/>
     <use xlink:href="#m786d35353e" x="114.020041" y="186.100378" style="fill: #1f77b4; stroke: #1f77b4"/>
     <use xlink:href="#m786d35353e" x="112.639703" y="184.009764" style="fill: #1f77b4; stroke: #1f77b4"/>
     <use xlink:href="#m786d35353e" x="112.636744" y="182.487993" style="fill: #1f77b4; stroke: #1f77b4"/>
     <use xlink:href="#m786d35353e" x="111.298721" y="180.487185" style="fill: #1f77b4; stroke: #1f77b4"/>
     <use xlink:href="#m786d35353e" x="110.79677" y="178.645983" style="fill: #1f77b4; stroke: #1f77b4"/>
     <use xlink:href="#m786d35353e" x="110.566502" y="176.850221" style="fill: #1f77b4; stroke: #1f77b4"/>
     <use xlink:href="#m786d35353e" x="109.651444" y="174.823955" style="fill: #1f77b4; stroke: #1f77b4"/>
     <use xlink:href="#m786d35353e" x="108.970788" y="172.682654" style="fill: #1f77b4; stroke: #1f77b4"/>
     <use xlink:href="#m786d35353e" x="108.521896" y="170.739131" style="fill: #1f77b4; stroke: #1f77b4"/>
     <use xlink:href="#m786d35353e" x="107.636897" y="168.662449" style="fill: #1f77b4; stroke: #1f77b4"/>
     <use xlink:href="#m786d35353e" x="105.924226" y="165.731396" style="fill: #1f77b4; stroke: #1f77b4"/>
     <use xlink:href="#m786d35353e" x="104.518486" y="162.987834" style="fill: #1f77b4; stroke: #1f77b4"/>
     <use xlink:href="#m786d35353e" x="102.195112" y="159.350798" style="fill: #1f77b4; stroke: #1f77b4"/>
     <use xlink:href="#m786d35353e" x="101.229202" y="156.326397" style="fill: #1f77b4; stroke: #1f77b4"/>
     <use xlink:href="#m786d35353e" x="100.585479" y="153.606029" style="fill: #1f77b4; stroke: #1f77b4"/>
     <use xlink:href="#m786d35353e" x="98.369636" y="149.042664" style="fill: #1f77b4; stroke: #1f77b4"/>
     <use xlink:href="#m786d35353e" x="97.981432" y="146.047827" style="fill: #1f77b4; stroke: #1f77b4"/>
     <use xlink:href="#m786d35353e" x="94.01233" y="138.645355" style="fill: #1f77b4; stroke: #1f77b4"/>
     <use xlink:href="#m786d35353e" x="90.378579" y="129.311679" style="fill: #1f77b4; stroke: #1f77b4"/>
     <use xlink:href="#m786d35353e" x="90.776369" y="123.016904" style="fill: #1f77b4; stroke: #1f77b4"/>
     <use xlink:href="#m786d35353e" x="92.610375" y="117.329293" style="fill: #1f77b4; stroke: #1f77b4"/>
     <use xlink:href="#m786d35353e" x="96.191851" y="110.750388" style="fill: #1f77b4; stroke: #1f77b4"/>
     <use xlink:href="#m786d35353e" x="101.623306" y="103.949407" style="fill: #1f77b4; stroke: #1f77b4"/>
     <use xlink:href="#m786d35353e" x="109.358139" y="98.180343" style="fill: #1f77b4; stroke: #1f77b4"/>
     <use xlink:href="#m786d35353e" x="121.203002" y="88.866863" style="fill: #1f77b4; stroke: #1f77b4"/>
     <use xlink:href="#m786d35353e" x="136.292" y="80.703875" style="fill: #1f77b4; stroke: #1f77b4"/>
     <use xlink:href="#m786d35353e" x="157.618999" y="72.120007" style="fill: #1f77b4; stroke: #1f77b4"/>
     <use xlink:href="#m786d35353e" x="186.855975" y="64.956293" style="fill: #1f77b4; stroke: #1f77b4"/>
     <use xlink:href="#m786d35353e" x="223.453897" y="59.669394" style="fill: #1f77b4; stroke: #1f77b4"/>
     <use xlink:href="#m786d35353e" x="266.512572" y="58.745916" style="fill: #1f77b4; stroke: #1f77b4"/>
     <use xlink:href="#m786d35353e" x="310.330678" y="63.199757" style="fill: #1f77b4; stroke: #1f77b4"/>
     <use xlink:href="#m786d35353e" x="349.635791" y="73.630075" style="fill: #1f77b4; stroke: #1f77b4"/>
     <use xlink:href="#m786d35353e" x="377.622844" y="88.353337" style="fill: #1f77b4; stroke: #1f77b4"/>
     <use xlink:href="#m786d35353e" x="391.215073" y="104.705465" style="fill: #1f77b4; stroke: #1f77b4"/>
     <use xlink:href="#m786d35353e" x="391.46071" y="120.276619" style="fill: #1f77b4; stroke: #1f77b4"/>
     <use xlink:href="#m786d35353e" x="382.783769" y="134.038307" style="fill: #1f77b4; stroke: #1f77b4"/>
     <use xlink:href="#m786d35353e" x="368.529215" y="144.476634" style="fill: #1f77b4; stroke: #1f77b4"/>
     <use xlink:href="#m786d35353e" x="350.610768" y="152.471928" style="fill: #1f77b4; stroke: #1f77b4"/>
     <use xlink:href="#m786d35353e" x="332.966097" y="157.708257" style="fill: #1f77b4; stroke: #1f77b4"/>
     <use xlink:href="#m786d35353e" x="315.855783" y="160.950497" style="fill: #1f77b4; stroke: #1f77b4"/>
     <use xlink:href="#m786d35353e" x="300.937328" y="162.82522" style="fill: #1f77b4; stroke: #1f77b4"/>
     <use xlink:href="#m786d35353e" x="287.106387" y="163.689218" style="fill: #1f77b4; stroke: #1f77b4"/>
     <use xlink:href="#m786d35353e" x="274.391316" y="163.694887" style="fill: #1f77b4; stroke: #1f77b4"/>
     <use xlink:href="#m786d35353e" x="264.04911" y="163.282508" style="fill: #1f77b4; stroke: #1f77b4"/>
     <use xlink:href="#m786d35353e" x="254.583404" y="162.4364" style="fill: #1f77b4; stroke: #1f77b4"/>
     <use xlink:href="#m786d35353e" x="249.016494" y="161.577821" style="fill: #1f77b4; stroke: #1f77b4"/>
     <use xlink:href="#m786d35353e" x="241.8019" y="160.419632" style="fill: #1f77b4; stroke: #1f77b4"/>
     <use xlink:href="#m786d35353e" x="235.98903" y="159.184963" style="fill: #1f77b4; stroke: #1f77b4"/>
     <use xlink:href="#m786d35353e" x="231.550225" y="157.858135" style="fill: #1f77b4; stroke: #1f77b4"/>
     <use xlink:href="#m786d35353e" x="226.59047" y="156.366457" style="fill: #1f77b4; stroke: #1f77b4"/>
     <use xlink:href="#m786d35353e" x="222.477835" y="155.0321" style="fill: #1f77b4; stroke: #1f77b4"/>
     <use xlink:href="#m786d35353e" x="218.821776" y="153.467535" style="fill: #1f77b4; stroke: #1f77b4"/>
     <use xlink:href="#m786d35353e" x="215.438896" y="151.959463" style="fill: #1f77b4; stroke: #1f77b4"/>
     <use xlink:href="#m786d35353e" x="213.503953" y="150.633337" style="fill: #1f77b4; stroke: #1f77b4"/>
     <use xlink:href="#m786d35353e" x="210.506189" y="149.226201" style="fill: #1f77b4; stroke: #1f77b4"/>
     <use xlink:href="#m786d35353e" x="208.181775" y="147.755569" style="fill: #1f77b4; stroke: #1f77b4"/>
     <use xlink:href="#m786d35353e" x="206.383501" y="146.407749" style="fill: #1f77b4; stroke: #1f77b4"/>
     <use xlink:href="#m786d35353e" x="204.719857" y="145.088029" style="fill: #1f77b4; stroke: #1f77b4"/>
     <use xlink:href="#m786d35353e" x="203.276507" y="143.666997" style="fill: #1f77b4; stroke: #1f77b4"/>
     <use xlink:href="#m786d35353e" x="202.384493" y="142.541228" style="fill: #1f77b4; stroke: #1f77b4"/>
     <use xlink:href="#m786d35353e" x="200.811234" y="140.984881" style="fill: #1f77b4; stroke: #1f77b4"/>
     <use xlink:href="#m786d35353e" x="199.893786" y="139.822311" style="fill: #1f77b4; stroke: #1f77b4"/>
     <use xlink:href="#m786d35353e" x="199.406222" y="138.61877" style="fill: #1f77b4; stroke: #1f77b4"/>
     <use xlink:href="#m786d35353e" x="198.824246" y="137.460624" style="fill: #1f77b4; stroke: #1f77b4"/>
     <use xlink:href="#m786d35353e" x="197.849344" y="135.987192" style="fill: #1f77b4; stroke: #1f77b4"/>
     <use xlink:href="#m786d35353e" x="197.49549" y="134.890079" style="fill: #1f77b4; stroke: #1f77b4"/>
     <use xlink:href="#m786d35353e" x="197.404003" y="133.593282" style="fill: #1f77b4; stroke: #1f77b4"/>
     <use xlink:href="#m786d35353e" x="197.052398" y="132.544071" style="fill: #1f77b4; stroke: #1f77b4"/>
     <use xlink:href="#m786d35353e" x="196.907364" y="131.373588" style="fill: #1f77b4; stroke: #1f77b4"/>
     <use xlink:href="#m786d35353e" x="196.620984" y="130.181905" style="fill: #1f77b4; stroke: #1f77b4"/>
     <use xlink:href="#m786d35353e" x="196.925564" y="129.048745" style="fill: #1f77b4; stroke: #1f77b4"/>
     <use xlink:href="#m786d35353e" x="196.953594" y="127.917074" style="fill: #1f77b4; stroke: #1f77b4"/>
     <use xlink:href="#m786d35353e" x="197.013606" y="126.882317" style="fill: #1f77b4; stroke: #1f77b4"/>
     <use xlink:href="#m786d35353e" x="197.315474" y="125.810184" style="fill: #1f77b4; stroke: #1f77b4"/>
     <use xlink:href="#m786d35353e" x="197.387315" y="124.715213" style="fill: #1f77b4; stroke: #1f77b4"/>
     <use xlink:href="#m786d35353e" x="197.538965" y="123.582368" style="fill: #1f77b4; stroke: #1f77b4"/>
     <use xlink:href="#m786d35353e" x="198.009234" y="122.426109" style="fill: #1f77b4; stroke: #1f77b4"/>
     <use xlink:href="#m786d35353e" x="198.461362" y="121.544101" style="fill: #1f77b4; stroke: #1f77b4"/>
     <use xlink:href="#m786d35353e" x="199.012128" y="120.611987" style="fill: #1f77b4; stroke: #1f77b4"/>
     <use xlink:href="#m786d35353e" x="199.177668" y="119.480589" style="fill: #1f77b4; stroke: #1f77b4"/>
     <use xlink:href="#m786d35353e" x="199.794994" y="118.503208" style="fill: #1f77b4; stroke: #1f77b4"/>
     <use xlink:href="#m786d35353e" x="200.233471" y="117.542203" style="fill: #1f77b4; stroke: #1f77b4"/>
     <use xlink:href="#m786d35353e" x="200.817446" y="116.567602" style="fill: #1f77b4; stroke: #1f77b4"/>
     <use xlink:href="#m786d35353e" x="201.414247" y="115.469221" style="fill: #1f77b4; stroke: #1f77b4"/>
     <use xlink:href="#m786d35353e" x="202.234344" y="114.800431" style="fill: #1f77b4; stroke: #1f77b4"/>
     <use xlink:href="#m786d35353e" x="203.027927" y="114.04412" style="fill: #1f77b4; stroke: #1f77b4"/>
     <use xlink:href="#m786d35353e" x="203.831206" y="113.020053" style="fill: #1f77b4; stroke: #1f77b4"/>
     <use xlink:href="#m786d35353e" x="204.818032" y="112.479416" style="fill: #1f77b4; stroke: #1f77b4"/>
     <use xlink:href="#m786d35353e" x="205.19362" y="111.25113" style="fill: #1f77b4; stroke: #1f77b4"/>
     <use xlink:href="#m786d35353e" x="205.861472" y="110.38201" style="fill: #1f77b4; stroke: #1f77b4"/>
     <use xlink:href="#m786d35353e" x="207.046846" y="109.819182" style="fill: #1f77b4; stroke: #1f77b4"/>
     <use xlink:href="#m786d35353e" x="208.05348" y="109.311521" style="fill: #1f77b4; stroke: #1f77b4"/>
     <use xlink:href="#m786d35353e" x="208.546398" y="108.026238" style="fill: #1f77b4; stroke: #1f77b4"/>
     <use xlink:href="#m786d35353e" x="209.714108" y="107.396283" style="fill: #1f77b4; stroke: #1f77b4"/>
     <use xlink:href="#m786d35353e" x="210.931135" y="107.378978" style="fill: #1f77b4; stroke: #1f77b4"/>
     <use xlink:href="#m786d35353e" x="211.658378" y="106.252578" style="fill: #1f77b4; stroke: #1f77b4"/>
     <use xlink:href="#m786d35353e" x="212.819659" y="105.909084" style="fill: #1f77b4; stroke: #1f77b4"/>
     <use xlink:href="#m786d35353e" x="213.656532" y="105.11043" style="fill: #1f77b4; stroke: #1f77b4"/>
     <use xlink:href="#m786d35353e" x="214.943395" y="104.826505" style="fill: #1f77b4; stroke: #1f77b4"/>
     <use xlink:href="#m786d35353e" x="216.083816" y="104.210296" style="fill: #1f77b4; stroke: #1f77b4"/>
     <use xlink:href="#m786d35353e" x="217.042149" y="103.813397" style="fill: #1f77b4; stroke: #1f77b4"/>
     <use xlink:href="#m786d35353e" x="217.859935" y="102.943725" style="fill: #1f77b4; stroke: #1f77b4"/>
     <use xlink:href="#m786d35353e" x="218.709919" y="101.950287" style="fill: #1f77b4; stroke: #1f77b4"/>
     <use xlink:href="#m786d35353e" x="219.749114" y="100.828869" style="fill: #1f77b4; stroke: #1f77b4"/>
     <use xlink:href="#m786d35353e" x="220.602848" y="100.272327" style="fill: #1f77b4; stroke: #1f77b4"/>
     <use xlink:href="#m786d35353e" x="221.704599" y="99.406161" style="fill: #1f77b4; stroke: #1f77b4"/>
     <use xlink:href="#m786d35353e" x="222.777969" y="99.025967" style="fill: #1f77b4; stroke: #1f77b4"/>
     <use xlink:href="#m786d35353e" x="223.586537" y="98.288873" style="fill: #1f77b4; stroke: #1f77b4"/>
     <use xlink:href="#m786d35353e" x="224.594824" y="97.592797" style="fill: #1f77b4; stroke: #1f77b4"/>
     <use xlink:href="#m786d35353e" x="225.745286" y="96.809059" style="fill: #1f77b4; stroke: #1f77b4"/>
     <use xlink:href="#m786d35353e" x="226.82895" y="95.944377" style="fill: #1f77b4; stroke: #1f77b4"/>
     <use xlink:href="#m786d35353e" x="227.86472" y="95.325904" style="fill: #1f77b4; stroke: #1f77b4"/>
     <use xlink:href="#m786d35353e" x="228.937989" y="94.337368" style="fill: #1f77b4; stroke: #1f77b4"/>
     <use xlink:href="#m786d35353e" x="229.996904" y="93.624501" style="fill: #1f77b4; stroke: #1f77b4"/>
     <use xlink:href="#m786d35353e" x="230.977426" y="92.88668" style="fill: #1f77b4; stroke: #1f77b4"/>
     <use xlink:href="#m786d35353e" x="232.009424" y="92.220765" style="fill: #1f77b4; stroke: #1f77b4"/>
     <use xlink:href="#m786d35353e" x="233.328494" y="91.496375" style="fill: #1f77b4; stroke: #1f77b4"/>
     <use xlink:href="#m786d35353e" x="234.327323" y="90.659245" style="fill: #1f77b4; stroke: #1f77b4"/>
     <use xlink:href="#m786d35353e" x="235.455834" y="89.795629" style="fill: #1f77b4; stroke: #1f77b4"/>
     <use xlink:href="#m786d35353e" x="236.662728" y="89.247052" style="fill: #1f77b4; stroke: #1f77b4"/>
     <use xlink:href="#m786d35353e" x="237.672567" y="88.438881" style="fill: #1f77b4; stroke: #1f77b4"/>
     <use xlink:href="#m786d35353e" x="238.866921" y="87.750343" style="fill: #1f77b4; stroke: #1f77b4"/>
     <use xlink:href="#m786d35353e" x="239.983239" y="87.115217" style="fill: #1f77b4; stroke: #1f77b4"/>
     <use xlink:href="#m786d35353e" x="241.378378" y="86.466914" style="fill: #1f77b4; stroke: #1f77b4"/>
     <use xlink:href="#m786d35353e" x="242.318664" y="85.839373" style="fill: #1f77b4; stroke: #1f77b4"/>
     <use xlink:href="#m786d35353e" x="243.656564" y="85.087686" style="fill: #1f77b4; stroke: #1f77b4"/>
     <use xlink:href="#m786d35353e" x="244.822317" y="84.429517" style="fill: #1f77b4; stroke: #1f77b4"/>
    </g>
   </g>
   <g id="line2d_14">
    <path d="M 291.648664 266.448724 
L 280.186068 264.22397 
L 269.428116 261.91654 
L 258.808022 259.420547 
L 248.334276 256.736118 
L 238.01415 253.863015 
L 227.853488 250.800481 
L 217.856455 247.547039 
L 208.538511 244.286512 
L 199.369273 240.84925 
L 190.346337 237.23062 
L 181.464555 233.424054 
L 173.198236 229.648169 
L 165.039907 225.685868 
L 156.975317 221.522692 
L 148.985592 217.138906 
L 141.51248 212.787322 
L 134.058613 208.18543 
L 127.060491 203.60614 
L 120.49298 199.057525 
L 113.862889 194.188806 
L 107.62604 189.31656 
L 102.273759 184.868039 
L 97.343246 180.505357 
L 92.856753 176.262852 
L 88.841515 172.187598 
L 85.324899 168.340788 
L 81.832837 164.182136 
L 78.891895 160.325073 
L 76.509497 156.87061 
L 74.22635 153.165042 
L 72.503529 149.99586 
L 70.908397 146.622173 
L 69.483991 143.020581 
L 68.560626 140.154315 
L 67.79354 137.133456 
L 67.218209 133.945445 
L 66.877597 130.577166 
L 66.823679 127.015211 
L 66.977508 124.526391 
L 67.308086 121.941782 
L 67.839942 119.257853 
L 68.600766 116.471471 
L 69.621743 113.580091 
L 70.937894 110.581987 
L 72.588399 107.476538 
L 74.61689 104.26459 
L 77.071679 100.948886 
L 80.005872 97.534588 
L 83.477316 94.029899 
L 87.5483 90.446778 
L 92.284916 86.801757 
L 97.755963 83.11685 
L 104.031255 79.420501 
L 107.49201 77.578921 
L 111.179203 75.74855 
L 115.100624 73.935166 
L 119.26351 72.145113 
L 123.674387 70.38531 
L 128.338893 68.66326 
L 133.26159 66.98705 
L 138.445762 65.365337 
L 143.893196 63.807327 
L 149.60396 62.322733 
L 155.576172 60.92173 
L 161.805778 59.614874 
L 168.286323 58.413023 
L 175.008752 57.327222 
L 181.961225 56.368579 
L 189.128966 55.548118 
L 196.494157 54.876615 
L 204.035877 54.364414 
L 211.73011 54.021241 
L 219.549818 53.856 
L 227.465086 53.876568 
L 235.443358 54.089598 
L 243.449742 54.500328 
L 251.447405 55.11241 
L 259.398036 55.92776 
L 267.262376 56.94644 
L 275.0008 58.166586 
L 282.573938 59.584363 
L 289.9433 61.193981 
L 297.071914 62.987748 
L 303.924925 64.956171 
L 310.470157 67.088107 
L 316.678604 69.370943 
L 322.524845 71.79082 
L 327.987366 74.332866 
L 333.04878 76.981465 
L 337.695946 79.720516 
L 341.919983 82.533698 
L 345.716195 85.404729 
L 349.083896 88.317599 
L 352.026174 91.256785 
L 354.549585 94.207441 
L 356.663798 97.155555 
L 358.381217 100.088071 
L 359.71658 102.992988 
L 360.68655 105.859418 
L 361.309325 108.677627 
L 361.604249 111.439036 
L 361.591462 114.136216 
L 361.291568 116.762849 
L 360.725348 119.313683 
L 359.913498 121.784471 
L 358.876407 124.171904 
L 357.633976 126.473535 
L 356.205464 128.687702 
L 354.609366 130.813449 
L 352.863325 132.850447 
L 350.984063 134.798923 
L 348.987345 136.659581 
L 346.88795 138.433541 
L 344.699666 140.12227 
L 340.106703 143.251313 
L 335.299542 146.063371 
L 330.354916 148.577514 
L 325.336524 150.814089 
L 320.296501 152.793855 
L 315.276909 154.537346 
L 310.311174 156.064434 
L 305.42541 157.39403 
L 298.289031 159.056659 
L 291.423402 160.369344 
L 284.856333 161.380438 
L 278.601638 162.132169 
L 272.663129 162.661121 
L 265.230765 163.073665 
L 258.334506 163.208308 
L 251.946037 163.115965 
L 246.032926 162.837963 
L 239.258584 162.279868 
L 233.109416 161.535698 
L 227.524291 160.645744 
L 222.447134 159.641318 
L 216.954215 158.31893 
L 212.043005 156.899069 
L 207.646644 155.406143 
L 203.707478 153.858639 
L 199.62379 152.00285 
L 196.027982 150.108685 
L 192.863553 148.18862 
L 190.0828 146.251958 
L 187.645298 144.305686 
L 185.516647 142.355088 
L 183.424567 140.125646 
L 181.660304 137.900295 
L 180.192334 135.682394 
L 178.993869 133.474459 
L 178.042018 131.278392 
L 177.317109 129.095646 
L 176.751784 126.657367 
L 176.431388 124.238601 
L 176.338015 121.840309 
L 176.456191 119.463259 
L 176.819307 116.847768 
L 177.410992 114.260008 
L 178.217328 111.70061 
L 179.337749 108.918715 
L 180.689045 106.172543 
L 182.258808 103.462777 
L 184.207594 100.548977 
L 186.390754 97.680169 
L 189.00737 94.624085 
L 191.87321 91.622965 
L 195.225149 88.453784 
L 198.84002 85.351151 
L 202.7061 82.316557 
L 207.114865 79.142421 
L 211.787362 76.04999 
L 217.049148 72.843569 
L 222.584878 69.734521 
L 228.382142 66.72511 
L 228.752882 66.540381 
L 228.752882 66.540381 
" clip-path="url(#p219372aa0f)" style="fill: none; stroke: #d62728; stroke-width: 1.5; stroke-linecap: square"/>
   </g>
   <g id="patch_3">
    <path d="M 50.573438 307.872 
L 50.573438 41.76 
" style="fill: none; stroke: #000000; stroke-width: 0.8; stroke-linejoin: miter; stroke-linecap: square"/>
   </g>
   <g id="patch_4">
    <path d="M 407.693438 307.872 
L 407.693438 41.76 
" style="fill: none; stroke: #000000; stroke-width: 0.8; stroke-linejoin: miter; stroke-linecap: square"/>
   </g>
   <g id="patch_5">
    <path d="M 50.573438 307.872 
L 407.693438 307.872 
" style="fill: none; stroke: #000000; stroke-width: 0.8; stroke-linejoin: miter; stroke-linecap: square"/>
   </g>
   <g id="patch_6">
    <path d="M 50.573438 41.76 
L 407.693438 41.76 
" style="fill: none; stroke: #000000; stroke-width: 0.8; stroke-linejoin: miter; stroke-linecap: square"/>
   </g>
   <g id="text_15">
    <g id="patch_7">
     <path d="M 425.549438 79.941538 
L 585.65725 79.941538 
Q 589.65725 79.941538 589.65725 75.941538 
L 589.65725 55.0656 
Q 589.65725 51.0656 585.65725 51.0656 
L 425.549438 51.0656 
Q 421.549438 51.0656 421.549438 55.0656 
L 421.549438 75.941538 
Q 421.549438 79.941538 425.549438 79.941538 
z
" style="fill: #ffffff; opacity: 0.5; stroke: #000000; stroke-linejoin: miter"/>
    </g>
    <!-- Warning: fit failed. lmfit was not -->
    <g transform="translate(425.549438 62.664038) scale(0.1 -0.1)">
     <defs>
      <path id="DejaVuSans-57" d="M 213 4666 
L 850 4666 
L 1831 722 
L 2809 4666 
L 3519 4666 
L 4500 722 
L 5478 4666 
L 6119 4666 
L 4947 0 
L 4153 0 
L 3169 4050 
L 2175 0 
L 1381 0 
L 213 4666 
z
" transform="scale(0.015625)"/>
      <path id="DejaVuSans-61" d="M 2194 1759 
Q 1497 1759 1228 1600 
Q 959 1441 959 1056 
Q 959 750 1161 570 
Q 1363 391 1709 391 
Q 2188 391 2477 730 
Q 2766 1069 2766 1631 
L 2766 1759 
L 2194 1759 
z
M 3341 1997 
L 3341 0 
L 2766 0 
L 2766 531 
Q 2569 213 2275 61 
Q 1981 -91 1556 -91 
Q 1019 -91 701 211 
Q 384 513 384 1019 
Q 384 1609 779 1909 
Q 1175 2209 1959 2209 
L 2766 2209 
L 2766 2266 
Q 2766 2663 2505 2880 
Q 2244 3097 1772 3097 
Q 1472 3097 1187 3025 
Q 903 2953 641 2809 
L 641 3341 
Q 956 3463 1253 3523 
Q 1550 3584 1831 3584 
Q 2591 3584 2966 3190 
Q 3341 2797 3341 1997 
z
" transform="scale(0.015625)"/>
      <path id="DejaVuSans-72" d="M 2631 2963 
Q 2534 3019 2420 3045 
Q 2306 3072 2169 3072 
Q 1681 3072 1420 2755 
Q 1159 2438 1159 1844 
L 1159 0 
L 581 0 
L 581 3500 
L 1159 3500 
L 1159 2956 
Q 1341 3275 1631 3429 
Q 1922 3584 2338 3584 
Q 2397 3584 2469 3576 
Q 2541 3569 2628 3553 
L 2631 2963 
z
" transform="scale(0.015625)"/>
      <path id="DejaVuSans-6e" d="M 3513 2113 
L 3513 0 
L 2938 0 
L 2938 2094 
Q 2938 2591 2744 2837 
Q 2550 3084 2163 3084 
Q 1697 3084 1428 2787 
Q 1159 2491 1159 1978 
L 1159 0 
L 581 0 
L 581 3500 
L 1159 3500 
L 1159 2956 
Q 1366 3272 1645 3428 
Q 1925 3584 2291 3584 
Q 2894 3584 3203 3211 
Q 3513 2838 3513 2113 
z
" transform="scale(0.015625)"/>
      <path id="DejaVuSans-69" d="M 603 3500 
L 1178 3500 
L 1178 0 
L 603 0 
L 603 3500 
z
M 603 4863 
L 1178 4863 
L 1178 4134 
L 603 4134 
L 603 4863 
z
" transform="scale(0.015625)"/>
      <path id="DejaVuSans-67" d="M 2906 1791 
Q 2906 2416 2648 2759 
Q 2391 3103 1925 3103 
Q 1463 3103 1205 2759 
Q 947 2416 947 1791 
Q 947 1169 1205 825 
Q 1463 481 1925 481 
Q 2391 481 2648 825 
Q 2906 1169 2906 1791 
z
M 3481 434 
Q 3481 -459 3084 -895 
Q 2688 -1331 1869 -1331 
Q 1566 -1331 1297 -1286 
Q 1028 -1241 775 -1147 
L 775 -588 
Q 1028 -725 1275 -790 
Q 1522 -856 1778 -856 
Q 2344 -856 2625 -561 
Q 2906 -266 2906 331 
L 2906 616 
Q 2728 306 2450 153 
Q 2172 0 1784 0 
Q 1141 0 747 490 
Q 353 981 353 1791 
Q 353 2603 747 3093 
Q 1141 3584 1784 3584 
Q 2172 3584 2450 3431 
Q 2728 3278 2906 2969 
L 2906 3500 
L 3481 3500 
L 3481 434 
z
" transform="scale(0.015625)"/>
      <path id="DejaVuSans-3a" d="M 750 794 
L 1409 794 
L 1409 0 
L 750 0 
L 750 794 
z
M 750 3309 
L 1409 3309 
L 1409 2516 
L 750 2516 
L 750 3309 
z
" transform="scale(0.015625)"/>
      <path id="DejaVuSans-66" d="M 2375 4863 
L 2375 4384 
L 1825 4384 
Q 1516 4384 1395 4259 
Q 1275 4134 1275 3809 
L 1275 3500 
L 2222 3500 
L 2222 3053 
L 1275 3053 
L 1275 0 
L 697 0 
L 697 3053 
L 147 3053 
L 147 3500 
L 697 3500 
L 697 3744 
Q 697 4328 969 4595 
Q 1241 4863 1831 4863 
L 2375 4863 
z
" transform="scale(0.015625)"/>
      <path id="DejaVuSans-74" d="M 1172 4494 
L 1172 3500 
L 2356 3500 
L 2356 3053 
L 1172 3053 
L 1172 1153 
Q 1172 725 1289 603 
Q 1406 481 1766 481 
L 2356 481 
L 2356 0 
L 1766 0 
Q 1100 0 847 248 
Q 594 497 594 1153 
L 594 3053 
L 172 3053 
L 172 3500 
L 594 3500 
L 594 4494 
L 1172 4494 
z
" transform="scale(0.015625)"/>
      <path id="DejaVuSans-6c" d="M 603 4863 
L 1178 4863 
L 1178 0 
L 603 0 
L 603 4863 
z
" transform="scale(0.015625)"/>
      <path id="DejaVuSans-64" d="M 2906 2969 
L 2906 4863 
L 3481 4863 
L 3481 0 
L 2906 0 
L 2906 525 
Q 2725 213 2448 61 
Q 2172 -91 1784 -91 
Q 1150 -91 751 415 
Q 353 922 353 1747 
Q 353 2572 751 3078 
Q 1150 3584 1784 3584 
Q 2172 3584 2448 3432 
Q 2725 3281 2906 2969 
z
M 947 1747 
Q 947 1113 1208 752 
Q 1469 391 1925 391 
Q 2381 391 2643 752 
Q 2906 1113 2906 1747 
Q 2906 2381 2643 2742 
Q 2381 3103 1925 3103 
Q 1469 3103 1208 2742 
Q 947 2381 947 1747 
z
" transform="scale(0.015625)"/>
      <path id="DejaVuSans-2e" d="M 684 794 
L 1344 794 
L 1344 0 
L 684 0 
L 684 794 
z
" transform="scale(0.015625)"/>
      <path id="DejaVuSans-77" d="M 269 3500 
L 844 3500 
L 1563 769 
L 2278 3500 
L 2956 3500 
L 3675 769 
L 4391 3500 
L 4966 3500 
L 4050 0 
L 3372 0 
L 2619 2869 
L 1863 0 
L 1184 0 
L 269 3500 
z
" transform="scale(0.015625)"/>
      <path id="DejaVuSans-73" d="M 2834 3397 
L 2834 2853 
Q 2591 2978 2328 3040 
Q 2066 3103 1784 3103 
Q 1356 3103 1142 2972 
Q 928 2841 928 2578 
Q 928 2378 1081 2264 
Q 1234 2150 1697 2047 
L 1894 2003 
Q 2506 1872 2764 1633 
Q 3022 1394 3022 966 
Q 3022 478 2636 193 
Q 2250 -91 1575 -91 
Q 1294 -91 989 -36 
Q 684 19 347 128 
L 347 722 
Q 666 556 975 473 
Q 1284 391 1588 391 
Q 1994 391 2212 530 
Q 2431 669 2431 922 
Q 2431 1156 2273 1281 
Q 2116 1406 1581 1522 
L 1381 1569 
Q 847 1681 609 1914 
Q 372 2147 372 2553 
Q 372 3047 722 3315 
Q 1072 3584 1716 3584 
Q 2034 3584 2315 3537 
Q 2597 3491 2834 3397 
z
" transform="scale(0.015625)"/>
      <path id="DejaVuSans-6f" d="M 1959 3097 
Q 1497 3097 1228 2736 
Q 959 2375 959 1747 
Q 959 1119 1226 758 
Q 1494 397 1959 397 
Q 2419 397 2687 759 
Q 2956 1122 2956 1747 
Q 2956 2369 2687 2733 
Q 2419 3097 1959 3097 
z
M 1959 3584 
Q 2709 3584 3137 3096 
Q 3566 2609 3566 1747 
Q 3566 888 3137 398 
Q 2709 -91 1959 -91 
Q 1206 -91 779 398 
Q 353 888 353 1747 
Q 353 2609 779 3096 
Q 1206 3584 1959 3584 
z
" transform="scale(0.015625)"/>
     </defs>
     <use xlink:href="#DejaVuSans-57"/>
     <use xlink:href="#DejaVuSans-61" x="92.501953"/>
     <use xlink:href="#DejaVuSans-72" x="153.78125"/>
     <use xlink:href="#DejaVuSans-6e" x="193.144531"/>
     <use xlink:href="#DejaVuSans-69" x="256.523438"/>
     <use xlink:href="#DejaVuSans-6e" x="284.306641"/>
     <use xlink:href="#DejaVuSans-67" x="347.685547"/>
     <use xlink:href="#DejaVuSans-3a" x="411.162109"/>
     <use xlink:href="#DejaVuSans-20" x="444.853516"/>
     <use xlink:href="#DejaVuSans-66" x="476.640625"/>
     <use xlink:href="#DejaVuSans-69" x="511.845703"/>
     <use xlink:href="#DejaVuSans-74" x="539.628906"/>
     <use xlink:href="#DejaVuSans-20" x="578.837891"/>
     <use xlink:href="#DejaVuSans-66" x="610.625"/>
     <use xlink:href="#DejaVuSans-61" x="645.830078"/>
     <use xlink:href="#DejaVuSans-69" x="707.109375"/>
     <use xlink:href="#DejaVuSans-6c" x="734.892578"/>
     <use xlink:href="#DejaVuSans-65" x="762.675781"/>
     <use xlink:href="#DejaVuSans-64" x="824.199219"/>
     <use xlink:href="#DejaVuSans-2e" x="887.675781"/>
     <use xlink:href="#DejaVuSans-20" x="919.462891"/>
     <use xlink:href="#DejaVuSans-6c" x="951.25"/>
     <use xlink:href="#DejaVuSans-6d" x="979.033203"/>
     <use xlink:href="#DejaVuSans-66" x="1076.445312"/>
     <use xlink:href="#DejaVuSans-69" x="1111.650391"/>
     <use xlink:href="#DejaVuSans-74" x="1139.433594"/>
     <use xlink:href="#DejaVuSans-20" x="1178.642578"/>
     <use xlink:href="#DejaVuSans-77" x="1210.429688"/>
     <use xlink:href="#DejaVuSans-61" x="1292.216797"/>
     <use xlink:href="#DejaVuSans-73" x="1353.496094"/>
     <use xlink:href="#DejaVuSans-20" x="1405.595703"/>
     <use xlink:href="#DejaVuSans-6e" x="1437.382812"/>
     <use xlink:href="#DejaVuSans-6f" x="1500.761719"/>
     <use xlink:href="#DejaVuSans-74" x="1561.943359"/>
    </g>
    <!-- able to fit the data. -->
    <g transform="translate(425.549438 73.86185) scale(0.1 -0.1)">
     <defs>
      <path id="DejaVuSans-62" d="M 3116 1747 
Q 3116 2381 2855 2742 
Q 2594 3103 2138 3103 
Q 1681 3103 1420 2742 
Q 1159 2381 1159 1747 
Q 1159 1113 1420 752 
Q 1681 391 2138 391 
Q 2594 391 2855 752 
Q 3116 1113 3116 1747 
z
M 1159 2969 
Q 1341 3281 1617 3432 
Q 1894 3584 2278 3584 
Q 2916 3584 3314 3078 
Q 3713 2572 3713 1747 
Q 3713 922 3314 415 
Q 2916 -91 2278 -91 
Q 1894 -91 1617 61 
Q 1341 213 1159 525 
L 1159 0 
L 581 0 
L 581 4863 
L 1159 4863 
L 1159 2969 
z
" transform="scale(0.015625)"/>
      <path id="DejaVuSans-68" d="M 3513 2113 
L 3513 0 
L 2938 0 
L 2938 2094 
Q 2938 2591 2744 2837 
Q 2550 3084 2163 3084 
Q 1697 3084 1428 2787 
Q 1159 2491 1159 1978 
L 1159 0 
L 581 0 
L 581 4863 
L 1159 4863 
L 1159 2956 
Q 1366 3272 1645 3428 
Q 1925 3584 2291 3584 
Q 2894 3584 3203 3211 
Q 3513 2838 3513 2113 
z
" transform="scale(0.015625)"/>
     </defs>
     <use xlink:href="#DejaVuSans-61"/>
     <use xlink:href="#DejaVuSans-62" x="61.279297"/>
     <use xlink:href="#DejaVuSans-6c" x="124.755859"/>
     <use xlink:href="#DejaVuSans-65" x="152.539062"/>
     <use xlink:href="#DejaVuSans-20" x="214.0625"/>
     <use xlink:href="#DejaVuSans-74" x="245.849609"/>
     <use xlink:href="#DejaVuSans-6f" x="285.058594"/>
     <use xlink:href="#DejaVuSans-20" x="346.240234"/>
     <use xlink:href="#DejaVuSans-66" x="378.027344"/>
     <use xlink:href="#DejaVuSans-69" x="413.232422"/>
     <use xlink:href="#DejaVuSans-74" x="441.015625"/>
     <use xlink:href="#DejaVuSans-20" x="480.224609"/>
     <use xlink:href="#DejaVuSans-74" x="512.011719"/>
     <use xlink:href="#DejaVuSans-68" x="551.220703"/>
     <use xlink:href="#DejaVuSans-65" x="614.599609"/>
     <use xlink:href="#DejaVuSans-20" x="676.123047"/>
     <use xlink:href="#DejaVuSans-64" x="707.910156"/>
     <use xlink:href="#DejaVuSans-61" x="771.386719"/>
     <use xlink:href="#DejaVuSans-74" x="832.666016"/>
     <use xlink:href="#DejaVuSans-61" x="871.875"/>
     <use xlink:href="#DejaVuSans-2e" x="933.154297"/>
    </g>
   </g>
  </g>
  <g id="text_16">
   <!-- S21 One-tone -->
   <g transform="translate(182.1225 16.318125) scale(0.12 -0.12)">
    <defs>
     <path id="DejaVuSans-53" d="M 3425 4513 
L 3425 3897 
Q 3066 4069 2747 4153 
Q 2428 4238 2131 4238 
Q 1616 4238 1336 4038 
Q 1056 3838 1056 3469 
Q 1056 3159 1242 3001 
Q 1428 2844 1947 2747 
L 2328 2669 
Q 3034 2534 3370 2195 
Q 3706 1856 3706 1288 
Q 3706 609 3251 259 
Q 2797 -91 1919 -91 
Q 1588 -91 1214 -16 
Q 841 59 441 206 
L 441 856 
Q 825 641 1194 531 
Q 1563 422 1919 422 
Q 2459 422 2753 634 
Q 3047 847 3047 1241 
Q 3047 1584 2836 1778 
Q 2625 1972 2144 2069 
L 1759 2144 
Q 1053 2284 737 2584 
Q 422 2884 422 3419 
Q 422 4038 858 4394 
Q 1294 4750 2059 4750 
Q 2388 4750 2728 4690 
Q 3069 4631 3425 4513 
z
" transform="scale(0.015625)"/>
     <path id="DejaVuSans-4f" d="M 2522 4238 
Q 1834 4238 1429 3725 
Q 1025 3213 1025 2328 
Q 1025 1447 1429 934 
Q 1834 422 2522 422 
Q 3209 422 3611 934 
Q 4013 1447 4013 2328 
Q 4013 3213 3611 3725 
Q 3209 4238 2522 4238 
z
M 2522 4750 
Q 3503 4750 4090 4092 
Q 4678 3434 4678 2328 
Q 4678 1225 4090 567 
Q 3503 -91 2522 -91 
Q 1538 -91 948 565 
Q 359 1222 359 2328 
Q 359 3434 948 4092 
Q 1538 4750 2522 4750 
z
" transform="scale(0.015625)"/>
    </defs>
    <use xlink:href="#DejaVuSans-53"/>
    <use xlink:href="#DejaVuSans-32" x="63.476562"/>
    <use xlink:href="#DejaVuSans-31" x="127.099609"/>
    <use xlink:href="#DejaVuSans-20" x="190.722656"/>
    <use xlink:href="#DejaVuSans-4f" x="222.509766"/>
    <use xlink:href="#DejaVuSans-6e" x="301.220703"/>
    <use xlink:href="#DejaVuSans-65" x="364.599609"/>
    <use xlink:href="#DejaVuSans-2d" x="426.123047"/>
    <use xlink:href="#DejaVuSans-74" x="462.207031"/>
    <use xlink:href="#DejaVuSans-6f" x="501.416016"/>
    <use xlink:href="#DejaVuSans-6e" x="562.597656"/>
    <use xlink:href="#DejaVuSans-65" x="625.976562"/>
   </g>
   <!-- tuid: 20240304-113205-184-f8810b -->
   <g transform="translate(115.231875 29.7555) scale(0.12 -0.12)">
    <defs>
     <path id="DejaVuSans-75" d="M 544 1381 
L 544 3500 
L 1119 3500 
L 1119 1403 
Q 1119 906 1312 657 
Q 1506 409 1894 409 
Q 2359 409 2629 706 
Q 2900 1003 2900 1516 
L 2900 3500 
L 3475 3500 
L 3475 0 
L 2900 0 
L 2900 538 
Q 2691 219 2414 64 
Q 2138 -91 1772 -91 
Q 1169 -91 856 284 
Q 544 659 544 1381 
z
M 1991 3584 
L 1991 3584 
z
" transform="scale(0.015625)"/>
     <path id="DejaVuSans-34" d="M 2419 4116 
L 825 1625 
L 2419 1625 
L 2419 4116 
z
M 2253 4666 
L 3047 4666 
L 3047 1625 
L 3713 1625 
L 3713 1100 
L 3047 1100 
L 3047 0 
L 2419 0 
L 2419 1100 
L 313 1100 
L 313 1709 
L 2253 4666 
z
" transform="scale(0.015625)"/>
     <path id="DejaVuSans-33" d="M 2597 2516 
Q 3050 2419 3304 2112 
Q 3559 1806 3559 1356 
Q 3559 666 3084 287 
Q 2609 -91 1734 -91 
Q 1441 -91 1130 -33 
Q 819 25 488 141 
L 488 750 
Q 750 597 1062 519 
Q 1375 441 1716 441 
Q 2309 441 2620 675 
Q 2931 909 2931 1356 
Q 2931 1769 2642 2001 
Q 2353 2234 1838 2234 
L 1294 2234 
L 1294 2753 
L 1863 2753 
Q 2328 2753 2575 2939 
Q 2822 3125 2822 3475 
Q 2822 3834 2567 4026 
Q 2313 4219 1838 4219 
Q 1578 4219 1281 4162 
Q 984 4106 628 3988 
L 628 4550 
Q 988 4650 1302 4700 
Q 1616 4750 1894 4750 
Q 2613 4750 3031 4423 
Q 3450 4097 3450 3541 
Q 3450 3153 3228 2886 
Q 3006 2619 2597 2516 
z
" transform="scale(0.015625)"/>
     <path id="DejaVuSans-38" d="M 2034 2216 
Q 1584 2216 1326 1975 
Q 1069 1734 1069 1313 
Q 1069 891 1326 650 
Q 1584 409 2034 409 
Q 2484 409 2743 651 
Q 3003 894 3003 1313 
Q 3003 1734 2745 1975 
Q 2488 2216 2034 2216 
z
M 1403 2484 
Q 997 2584 770 2862 
Q 544 3141 544 3541 
Q 544 4100 942 4425 
Q 1341 4750 2034 4750 
Q 2731 4750 3128 4425 
Q 3525 4100 3525 3541 
Q 3525 3141 3298 2862 
Q 3072 2584 2669 2484 
Q 3125 2378 3379 2068 
Q 3634 1759 3634 1313 
Q 3634 634 3220 271 
Q 2806 -91 2034 -91 
Q 1263 -91 848 271 
Q 434 634 434 1313 
Q 434 1759 690 2068 
Q 947 2378 1403 2484 
z
M 1172 3481 
Q 1172 3119 1398 2916 
Q 1625 2713 2034 2713 
Q 2441 2713 2670 2916 
Q 2900 3119 2900 3481 
Q 2900 3844 2670 4047 
Q 2441 4250 2034 4250 
Q 1625 4250 1398 4047 
Q 1172 3844 1172 3481 
z
" transform="scale(0.015625)"/>
    </defs>
    <use xlink:href="#DejaVuSans-74"/>
    <use xlink:href="#DejaVuSans-75" x="39.208984"/>
    <use xlink:href="#DejaVuSans-69" x="102.587891"/>
    <use xlink:href="#DejaVuSans-64" x="130.371094"/>
    <use xlink:href="#DejaVuSans-3a" x="193.847656"/>
    <use xlink:href="#DejaVuSans-20" x="227.539062"/>
    <use xlink:href="#DejaVuSans-32" x="259.326172"/>
    <use xlink:href="#DejaVuSans-30" x="322.949219"/>
    <use xlink:href="#DejaVuSans-32" x="386.572266"/>
    <use xlink:href="#DejaVuSans-34" x="450.195312"/>
    <use xlink:href="#DejaVuSans-30" x="513.818359"/>
    <use xlink:href="#DejaVuSans-33" x="577.441406"/>
    <use xlink:href="#DejaVuSans-30" x="641.064453"/>
    <use xlink:href="#DejaVuSans-34" x="704.6875"/>
    <use xlink:href="#DejaVuSans-2d" x="768.310547"/>
    <use xlink:href="#DejaVuSans-31" x="804.394531"/>
    <use xlink:href="#DejaVuSans-31" x="868.017578"/>
    <use xlink:href="#DejaVuSans-33" x="931.640625"/>
    <use xlink:href="#DejaVuSans-32" x="995.263672"/>
    <use xlink:href="#DejaVuSans-30" x="1058.886719"/>
    <use xlink:href="#DejaVuSans-35" x="1122.509766"/>
    <use xlink:href="#DejaVuSans-2d" x="1186.132812"/>
    <use xlink:href="#DejaVuSans-31" x="1222.216797"/>
    <use xlink:href="#DejaVuSans-38" x="1285.839844"/>
    <use xlink:href="#DejaVuSans-34" x="1349.462891"/>
    <use xlink:href="#DejaVuSans-2d" x="1413.085938"/>
    <use xlink:href="#DejaVuSans-66" x="1449.169922"/>
    <use xlink:href="#DejaVuSans-38" x="1484.375"/>
    <use xlink:href="#DejaVuSans-38" x="1547.998047"/>
    <use xlink:href="#DejaVuSans-31" x="1611.621094"/>
    <use xlink:href="#DejaVuSans-30" x="1675.244141"/>
    <use xlink:href="#DejaVuSans-62" x="1738.867188"/>
   </g>
  </g>
 </g>
 <defs>
  <clipPath id="p219372aa0f">
   <rect x="50.573438" y="41.76" width="357.12" height="266.112"/>
  </clipPath>
 </defs>
</svg>
