<?xml version="1.0" encoding="utf-8" standalone="no"?>
<!DOCTYPE svg PUBLIC "-//W3C//DTD SVG 1.1//EN"
  "http://www.w3.org/Graphics/SVG/1.1/DTD/svg11.dtd">
<svg xmlns:xlink="http://www.w3.org/1999/xlink" width="571.871312pt" height="345.42825pt" viewBox="0 0 571.871312 345.42825" xmlns="http://www.w3.org/2000/svg" version="1.1">
 <metadata>
  <rdf:RDF xmlns:dc="http://purl.org/dc/elements/1.1/" xmlns:cc="http://creativecommons.org/ns#" xmlns:rdf="http://www.w3.org/1999/02/22-rdf-syntax-ns#">
   <cc:Work>
    <dc:type rdf:resource="http://purl.org/dc/dcmitype/StillImage"/>
    <dc:date>2024-03-04T11:31:46.971778</dc:date>
    <dc:format>image/svg+xml</dc:format>
    <dc:creator>
     <cc:Agent>
      <dc:title>Matplotlib v3.8.1, https://matplotlib.org/</dc:title>
     </cc:Agent>
    </dc:creator>
   </cc:Work>
  </rdf:RDF>
 </metadata>
 <defs>
  <style type="text/css">*{stroke-linejoin: round; stroke-linecap: butt}</style>
 </defs>
 <g id="figure_1">
  <g id="patch_1">
   <path d="M 0 345.42825 
L 571.871312 345.42825 
L 571.871312 -0 
L 0 -0 
L 0 345.42825 
z
" style="fill: none; opacity: 0"/>
  </g>
  <g id="axes_1">
   <g id="patch_2">
    <path d="M 50.595313 162.72 
L 407.715312 162.72 
L 407.715312 41.76 
L 50.595313 41.76 
z
" style="fill: #ffffff"/>
   </g>
   <g id="matplotlib.axis_1">
    <g id="xtick_1">
     <g id="line2d_1">
      <defs>
       <path id="m5ebe354c1d" d="M 0 0 
L 0 3.5 
" style="stroke: #000000; stroke-width: 0.8"/>
      </defs>
      <g>
       <use xlink:href="#m5ebe354c1d" x="66.82804" y="162.72" style="stroke: #000000; stroke-width: 0.8"/>
      </g>
     </g>
    </g>
    <g id="xtick_2">
     <g id="line2d_2">
      <g>
       <use xlink:href="#m5ebe354c1d" x="107.409858" y="162.72" style="stroke: #000000; stroke-width: 0.8"/>
      </g>
     </g>
    </g>
    <g id="xtick_3">
     <g id="line2d_3">
      <g>
       <use xlink:href="#m5ebe354c1d" x="147.991676" y="162.72" style="stroke: #000000; stroke-width: 0.8"/>
      </g>
     </g>
    </g>
    <g id="xtick_4">
     <g id="line2d_4">
      <g>
       <use xlink:href="#m5ebe354c1d" x="188.573494" y="162.72" style="stroke: #000000; stroke-width: 0.8"/>
      </g>
     </g>
    </g>
    <g id="xtick_5">
     <g id="line2d_5">
      <g>
       <use xlink:href="#m5ebe354c1d" x="229.155312" y="162.72" style="stroke: #000000; stroke-width: 0.8"/>
      </g>
     </g>
    </g>
    <g id="xtick_6">
     <g id="line2d_6">
      <g>
       <use xlink:href="#m5ebe354c1d" x="269.737131" y="162.72" style="stroke: #000000; stroke-width: 0.8"/>
      </g>
     </g>
    </g>
    <g id="xtick_7">
     <g id="line2d_7">
      <g>
       <use xlink:href="#m5ebe354c1d" x="310.318949" y="162.72" style="stroke: #000000; stroke-width: 0.8"/>
      </g>
     </g>
    </g>
    <g id="xtick_8">
     <g id="line2d_8">
      <g>
       <use xlink:href="#m5ebe354c1d" x="350.900767" y="162.72" style="stroke: #000000; stroke-width: 0.8"/>
      </g>
     </g>
    </g>
    <g id="xtick_9">
     <g id="line2d_9">
      <g>
       <use xlink:href="#m5ebe354c1d" x="391.482585" y="162.72" style="stroke: #000000; stroke-width: 0.8"/>
      </g>
     </g>
    </g>
   </g>
   <g id="matplotlib.axis_2">
    <g id="ytick_1">
     <g id="line2d_10">
      <defs>
       <path id="m9e00bcae85" d="M 0 0 
L -3.5 0 
" style="stroke: #000000; stroke-width: 0.8"/>
      </defs>
      <g>
       <use xlink:href="#m9e00bcae85" x="50.595313" y="162.10277" style="stroke: #000000; stroke-width: 0.8"/>
      </g>
     </g>
     <g id="text_1">
      <!-- 0 -->
      <g transform="translate(37.232813 165.901988) scale(0.1 -0.1)">
       <defs>
        <path id="DejaVuSans-30" d="M 2034 4250 
Q 1547 4250 1301 3770 
Q 1056 3291 1056 2328 
Q 1056 1369 1301 889 
Q 1547 409 2034 409 
Q 2525 409 2770 889 
Q 3016 1369 3016 2328 
Q 3016 3291 2770 3770 
Q 2525 4250 2034 4250 
z
M 2034 4750 
Q 2819 4750 3233 4129 
Q 3647 3509 3647 2328 
Q 3647 1150 3233 529 
Q 2819 -91 2034 -91 
Q 1250 -91 836 529 
Q 422 1150 422 2328 
Q 422 3509 836 4129 
Q 1250 4750 2034 4750 
z
" transform="scale(0.015625)"/>
       </defs>
       <use xlink:href="#DejaVuSans-30"/>
      </g>
     </g>
    </g>
    <g id="ytick_2">
     <g id="line2d_11">
      <g>
       <use xlink:href="#m9e00bcae85" x="50.595313" y="136.842311" style="stroke: #000000; stroke-width: 0.8"/>
      </g>
     </g>
     <g id="text_2">
      <!-- 50 -->
      <g transform="translate(30.870313 140.64153) scale(0.1 -0.1)">
       <defs>
        <path id="DejaVuSans-35" d="M 691 4666 
L 3169 4666 
L 3169 4134 
L 1269 4134 
L 1269 2991 
Q 1406 3038 1543 3061 
Q 1681 3084 1819 3084 
Q 2600 3084 3056 2656 
Q 3513 2228 3513 1497 
Q 3513 744 3044 326 
Q 2575 -91 1722 -91 
Q 1428 -91 1123 -41 
Q 819 9 494 109 
L 494 744 
Q 775 591 1075 516 
Q 1375 441 1709 441 
Q 2250 441 2565 725 
Q 2881 1009 2881 1497 
Q 2881 1984 2565 2268 
Q 2250 2553 1709 2553 
Q 1456 2553 1204 2497 
Q 953 2441 691 2322 
L 691 4666 
z
" transform="scale(0.015625)"/>
       </defs>
       <use xlink:href="#DejaVuSans-35"/>
       <use xlink:href="#DejaVuSans-30" x="63.623047"/>
      </g>
     </g>
    </g>
    <g id="ytick_3">
     <g id="line2d_12">
      <g>
       <use xlink:href="#m9e00bcae85" x="50.595313" y="111.581853" style="stroke: #000000; stroke-width: 0.8"/>
      </g>
     </g>
     <g id="text_3">
      <!-- 100 -->
      <g transform="translate(24.507813 115.381071) scale(0.1 -0.1)">
       <defs>
        <path id="DejaVuSans-31" d="M 794 531 
L 1825 531 
L 1825 4091 
L 703 3866 
L 703 4441 
L 1819 4666 
L 2450 4666 
L 2450 531 
L 3481 531 
L 3481 0 
L 794 0 
L 794 531 
z
" transform="scale(0.015625)"/>
       </defs>
       <use xlink:href="#DejaVuSans-31"/>
       <use xlink:href="#DejaVuSans-30" x="63.623047"/>
       <use xlink:href="#DejaVuSans-30" x="127.246094"/>
      </g>
     </g>
    </g>
    <g id="ytick_4">
     <g id="line2d_13">
      <g>
       <use xlink:href="#m9e00bcae85" x="50.595313" y="86.321394" style="stroke: #000000; stroke-width: 0.8"/>
      </g>
     </g>
     <g id="text_4">
      <!-- 150 -->
      <g transform="translate(24.507813 90.120613) scale(0.1 -0.1)">
       <use xlink:href="#DejaVuSans-31"/>
       <use xlink:href="#DejaVuSans-35" x="63.623047"/>
       <use xlink:href="#DejaVuSans-30" x="127.246094"/>
      </g>
     </g>
    </g>
    <g id="ytick_5">
     <g id="line2d_14">
      <g>
       <use xlink:href="#m9e00bcae85" x="50.595313" y="61.060936" style="stroke: #000000; stroke-width: 0.8"/>
      </g>
     </g>
     <g id="text_5">
      <!-- 200 -->
      <g transform="translate(24.507813 64.860154) scale(0.1 -0.1)">
       <defs>
        <path id="DejaVuSans-32" d="M 1228 531 
L 3431 531 
L 3431 0 
L 469 0 
L 469 531 
Q 828 903 1448 1529 
Q 2069 2156 2228 2338 
Q 2531 2678 2651 2914 
Q 2772 3150 2772 3378 
Q 2772 3750 2511 3984 
Q 2250 4219 1831 4219 
Q 1534 4219 1204 4116 
Q 875 4013 500 3803 
L 500 4441 
Q 881 4594 1212 4672 
Q 1544 4750 1819 4750 
Q 2544 4750 2975 4387 
Q 3406 4025 3406 3419 
Q 3406 3131 3298 2873 
Q 3191 2616 2906 2266 
Q 2828 2175 2409 1742 
Q 1991 1309 1228 531 
z
" transform="scale(0.015625)"/>
       </defs>
       <use xlink:href="#DejaVuSans-32"/>
       <use xlink:href="#DejaVuSans-30" x="63.623047"/>
       <use xlink:href="#DejaVuSans-30" x="127.246094"/>
      </g>
     </g>
    </g>
    <g id="text_6">
     <!-- $|S_{21}|$ [mV] -->
     <g transform="translate(18.107813 127.19) rotate(-90) scale(0.1 -0.1)">
      <defs>
       <path id="DejaVuSans-7c" d="M 1344 4891 
L 1344 -1509 
L 813 -1509 
L 813 4891 
L 1344 4891 
z
" transform="scale(0.015625)"/>
       <path id="DejaVuSans-Oblique-53" d="M 3859 4513 
L 3738 3897 
Q 3422 4066 3111 4152 
Q 2800 4238 2509 4238 
Q 1944 4238 1609 3991 
Q 1275 3744 1275 3334 
Q 1275 3109 1398 2989 
Q 1522 2869 2034 2731 
L 2413 2638 
Q 3053 2472 3303 2217 
Q 3553 1963 3553 1503 
Q 3553 797 2998 353 
Q 2444 -91 1538 -91 
Q 1166 -91 791 -17 
Q 416 56 38 206 
L 166 856 
Q 513 641 861 531 
Q 1209 422 1556 422 
Q 2147 422 2503 684 
Q 2859 947 2859 1369 
Q 2859 1650 2717 1795 
Q 2575 1941 2106 2059 
L 1728 2156 
Q 1081 2325 845 2545 
Q 609 2766 609 3163 
Q 609 3859 1145 4304 
Q 1681 4750 2541 4750 
Q 2875 4750 3203 4690 
Q 3531 4631 3859 4513 
z
" transform="scale(0.015625)"/>
       <path id="DejaVuSans-20" transform="scale(0.015625)"/>
       <path id="DejaVuSans-5b" d="M 550 4863 
L 1875 4863 
L 1875 4416 
L 1125 4416 
L 1125 -397 
L 1875 -397 
L 1875 -844 
L 550 -844 
L 550 4863 
z
" transform="scale(0.015625)"/>
       <path id="DejaVuSans-6d" d="M 3328 2828 
Q 3544 3216 3844 3400 
Q 4144 3584 4550 3584 
Q 5097 3584 5394 3201 
Q 5691 2819 5691 2113 
L 5691 0 
L 5113 0 
L 5113 2094 
Q 5113 2597 4934 2840 
Q 4756 3084 4391 3084 
Q 3944 3084 3684 2787 
Q 3425 2491 3425 1978 
L 3425 0 
L 2847 0 
L 2847 2094 
Q 2847 2600 2669 2842 
Q 2491 3084 2119 3084 
Q 1678 3084 1418 2786 
Q 1159 2488 1159 1978 
L 1159 0 
L 581 0 
L 581 3500 
L 1159 3500 
L 1159 2956 
Q 1356 3278 1631 3431 
Q 1906 3584 2284 3584 
Q 2666 3584 2933 3390 
Q 3200 3197 3328 2828 
z
" transform="scale(0.015625)"/>
       <path id="DejaVuSans-56" d="M 1831 0 
L 50 4666 
L 709 4666 
L 2188 738 
L 3669 4666 
L 4325 4666 
L 2547 0 
L 1831 0 
z
" transform="scale(0.015625)"/>
       <path id="DejaVuSans-5d" d="M 1947 4863 
L 1947 -844 
L 622 -844 
L 622 -397 
L 1369 -397 
L 1369 4416 
L 622 4416 
L 622 4863 
L 1947 4863 
z
" transform="scale(0.015625)"/>
      </defs>
      <use xlink:href="#DejaVuSans-7c" transform="translate(0 0.578125)"/>
      <use xlink:href="#DejaVuSans-Oblique-53" transform="translate(33.691406 0.578125)"/>
      <use xlink:href="#DejaVuSans-32" transform="translate(97.167969 -15.828125) scale(0.7)"/>
      <use xlink:href="#DejaVuSans-31" transform="translate(141.704102 -15.828125) scale(0.7)"/>
      <use xlink:href="#DejaVuSans-7c" transform="translate(188.974609 0.578125)"/>
      <use xlink:href="#DejaVuSans-20" transform="translate(222.666016 0.578125)"/>
      <use xlink:href="#DejaVuSans-5b" transform="translate(254.453125 0.578125)"/>
      <use xlink:href="#DejaVuSans-6d" transform="translate(293.466797 0.578125)"/>
      <use xlink:href="#DejaVuSans-56" transform="translate(390.878906 0.578125)"/>
      <use xlink:href="#DejaVuSans-5d" transform="translate(459.287109 0.578125)"/>
     </g>
    </g>
   </g>
   <g id="line2d_15">
    <path d="M 66.82804 78.799583 
L 70.0909 78.214869 
L 78.248049 76.981794 
L 83.142339 76.290959 
L 84.773768 76.173641 
L 91.299488 75.265349 
L 97.825207 74.499183 
L 99.456637 74.22871 
L 101.088067 74.10207 
L 104.350927 73.63477 
L 109.245217 73.109441 
L 112.508076 72.618002 
L 115.770936 72.257695 
L 119.033796 71.77315 
L 122.296656 71.349648 
L 141.873814 68.438695 
L 146.768104 67.281064 
L 148.399534 67.046289 
L 153.293823 65.89221 
L 163.082402 63.850563 
L 164.713832 63.428135 
L 166.345262 62.772866 
L 167.976692 62.435415 
L 169.608122 61.850548 
L 172.870982 60.381432 
L 176.133842 59.097116 
L 177.765271 58.459903 
L 179.396701 57.696127 
L 185.922421 55.395896 
L 189.185281 53.505064 
L 192.44814 51.977607 
L 195.711 49.931199 
L 197.34243 49.271157 
L 198.97386 48.461734 
L 202.23672 47.45834 
L 203.868149 47.258182 
L 205.499579 47.322033 
L 207.131009 48.028313 
L 208.762439 49.30283 
L 210.393869 51.364596 
L 212.025299 54.592205 
L 213.656729 58.966381 
L 215.288159 65.079176 
L 216.919588 72.940611 
L 220.182448 93.210277 
L 225.076738 128.101027 
L 226.708168 139.506687 
L 228.339598 148.778769 
L 229.971027 153.42098 
L 231.602457 151.493889 
L 236.496747 135.14851 
L 238.128177 129.89537 
L 239.759607 126.254786 
L 241.391037 122.246145 
L 243.022466 118.622945 
L 244.653896 115.814169 
L 247.916756 110.528264 
L 249.548186 108.381051 
L 251.179616 106.623932 
L 252.811046 104.57289 
L 254.442476 102.804769 
L 256.073905 101.59016 
L 257.705335 99.827132 
L 260.968195 97.815488 
L 262.599625 96.356804 
L 264.231055 95.607824 
L 265.862485 94.416667 
L 267.493915 93.594419 
L 269.125344 92.384914 
L 274.019634 90.21585 
L 275.651064 89.71451 
L 280.545354 87.534711 
L 282.176783 86.71429 
L 285.439643 85.764139 
L 287.071073 85.389438 
L 288.702503 84.845417 
L 291.965363 84.161047 
L 293.596793 83.525023 
L 295.228223 83.434145 
L 296.859652 83.078674 
L 300.122512 82.203239 
L 301.753942 81.841898 
L 303.385372 81.34241 
L 305.016802 81.018196 
L 306.648232 80.420623 
L 309.911091 79.575313 
L 313.173951 78.78616 
L 316.436811 78.321026 
L 322.96253 76.639921 
L 326.22539 76.177785 
L 327.85682 75.885221 
L 332.75111 74.671764 
L 339.276829 73.313223 
L 353.959698 70.230757 
L 358.853988 69.230588 
L 365.379707 67.81463 
L 367.011137 67.557162 
L 371.905427 66.477671 
L 384.956866 63.722221 
L 388.219725 62.98052 
L 391.482585 62.290461 
L 391.482585 62.290461 
" clip-path="url(#p7489758630)" style="fill: none; stroke: #1f77b4; stroke-width: 1.5; stroke-linecap: square"/>
    <defs>
     <path id="mf26c9c30b6" d="M 0 1.5 
C 0.397805 1.5 0.77937 1.341951 1.06066 1.06066 
C 1.341951 0.77937 1.5 0.397805 1.5 0 
C 1.5 -0.397805 1.341951 -0.77937 1.06066 -1.06066 
C 0.77937 -1.341951 0.397805 -1.5 0 -1.5 
C -0.397805 -1.5 -0.77937 -1.341951 -1.06066 -1.06066 
C -1.341951 -0.77937 -1.5 -0.397805 -1.5 0 
C -1.5 0.397805 -1.341951 0.77937 -1.06066 1.06066 
C -0.77937 1.341951 -0.397805 1.5 0 1.5 
z
" style="stroke: #1f77b4"/>
    </defs>
    <g clip-path="url(#p7489758630)">
     <use xlink:href="#mf26c9c30b6" x="66.82804" y="78.799583" style="fill: #1f77b4; stroke: #1f77b4"/>
     <use xlink:href="#mf26c9c30b6" x="68.45947" y="78.471906" style="fill: #1f77b4; stroke: #1f77b4"/>
     <use xlink:href="#mf26c9c30b6" x="70.0909" y="78.214869" style="fill: #1f77b4; stroke: #1f77b4"/>
     <use xlink:href="#mf26c9c30b6" x="71.722329" y="77.95158" style="fill: #1f77b4; stroke: #1f77b4"/>
     <use xlink:href="#mf26c9c30b6" x="73.353759" y="77.714834" style="fill: #1f77b4; stroke: #1f77b4"/>
     <use xlink:href="#mf26c9c30b6" x="74.985189" y="77.498473" style="fill: #1f77b4; stroke: #1f77b4"/>
     <use xlink:href="#mf26c9c30b6" x="76.616619" y="77.211827" style="fill: #1f77b4; stroke: #1f77b4"/>
     <use xlink:href="#mf26c9c30b6" x="78.248049" y="76.981794" style="fill: #1f77b4; stroke: #1f77b4"/>
     <use xlink:href="#mf26c9c30b6" x="79.879479" y="76.748084" style="fill: #1f77b4; stroke: #1f77b4"/>
     <use xlink:href="#mf26c9c30b6" x="81.510909" y="76.54709" style="fill: #1f77b4; stroke: #1f77b4"/>
     <use xlink:href="#mf26c9c30b6" x="83.142339" y="76.290959" style="fill: #1f77b4; stroke: #1f77b4"/>
     <use xlink:href="#mf26c9c30b6" x="84.773768" y="76.173641" style="fill: #1f77b4; stroke: #1f77b4"/>
     <use xlink:href="#mf26c9c30b6" x="86.405198" y="75.933524" style="fill: #1f77b4; stroke: #1f77b4"/>
     <use xlink:href="#mf26c9c30b6" x="88.036628" y="75.718154" style="fill: #1f77b4; stroke: #1f77b4"/>
     <use xlink:href="#mf26c9c30b6" x="89.668058" y="75.482137" style="fill: #1f77b4; stroke: #1f77b4"/>
     <use xlink:href="#mf26c9c30b6" x="91.299488" y="75.265349" style="fill: #1f77b4; stroke: #1f77b4"/>
     <use xlink:href="#mf26c9c30b6" x="92.930918" y="75.092385" style="fill: #1f77b4; stroke: #1f77b4"/>
     <use xlink:href="#mf26c9c30b6" x="94.562348" y="74.814212" style="fill: #1f77b4; stroke: #1f77b4"/>
     <use xlink:href="#mf26c9c30b6" x="96.193778" y="74.686541" style="fill: #1f77b4; stroke: #1f77b4"/>
     <use xlink:href="#mf26c9c30b6" x="97.825207" y="74.499183" style="fill: #1f77b4; stroke: #1f77b4"/>
     <use xlink:href="#mf26c9c30b6" x="99.456637" y="74.22871" style="fill: #1f77b4; stroke: #1f77b4"/>
     <use xlink:href="#mf26c9c30b6" x="101.088067" y="74.10207" style="fill: #1f77b4; stroke: #1f77b4"/>
     <use xlink:href="#mf26c9c30b6" x="102.719497" y="73.8491" style="fill: #1f77b4; stroke: #1f77b4"/>
     <use xlink:href="#mf26c9c30b6" x="104.350927" y="73.63477" style="fill: #1f77b4; stroke: #1f77b4"/>
     <use xlink:href="#mf26c9c30b6" x="105.982357" y="73.482551" style="fill: #1f77b4; stroke: #1f77b4"/>
     <use xlink:href="#mf26c9c30b6" x="107.613787" y="73.282824" style="fill: #1f77b4; stroke: #1f77b4"/>
     <use xlink:href="#mf26c9c30b6" x="109.245217" y="73.109441" style="fill: #1f77b4; stroke: #1f77b4"/>
     <use xlink:href="#mf26c9c30b6" x="110.876646" y="72.825211" style="fill: #1f77b4; stroke: #1f77b4"/>
     <use xlink:href="#mf26c9c30b6" x="112.508076" y="72.618002" style="fill: #1f77b4; stroke: #1f77b4"/>
     <use xlink:href="#mf26c9c30b6" x="114.139506" y="72.464455" style="fill: #1f77b4; stroke: #1f77b4"/>
     <use xlink:href="#mf26c9c30b6" x="115.770936" y="72.257695" style="fill: #1f77b4; stroke: #1f77b4"/>
     <use xlink:href="#mf26c9c30b6" x="117.402366" y="71.996539" style="fill: #1f77b4; stroke: #1f77b4"/>
     <use xlink:href="#mf26c9c30b6" x="119.033796" y="71.77315" style="fill: #1f77b4; stroke: #1f77b4"/>
     <use xlink:href="#mf26c9c30b6" x="120.665226" y="71.597645" style="fill: #1f77b4; stroke: #1f77b4"/>
     <use xlink:href="#mf26c9c30b6" x="122.296656" y="71.349648" style="fill: #1f77b4; stroke: #1f77b4"/>
     <use xlink:href="#mf26c9c30b6" x="123.928085" y="71.110755" style="fill: #1f77b4; stroke: #1f77b4"/>
     <use xlink:href="#mf26c9c30b6" x="125.559515" y="70.891854" style="fill: #1f77b4; stroke: #1f77b4"/>
     <use xlink:href="#mf26c9c30b6" x="127.190945" y="70.646844" style="fill: #1f77b4; stroke: #1f77b4"/>
     <use xlink:href="#mf26c9c30b6" x="128.822375" y="70.47113" style="fill: #1f77b4; stroke: #1f77b4"/>
     <use xlink:href="#mf26c9c30b6" x="130.453805" y="70.213012" style="fill: #1f77b4; stroke: #1f77b4"/>
     <use xlink:href="#mf26c9c30b6" x="132.085235" y="69.939287" style="fill: #1f77b4; stroke: #1f77b4"/>
     <use xlink:href="#mf26c9c30b6" x="133.716665" y="69.742948" style="fill: #1f77b4; stroke: #1f77b4"/>
     <use xlink:href="#mf26c9c30b6" x="135.348095" y="69.482326" style="fill: #1f77b4; stroke: #1f77b4"/>
     <use xlink:href="#mf26c9c30b6" x="136.979524" y="69.268073" style="fill: #1f77b4; stroke: #1f77b4"/>
     <use xlink:href="#mf26c9c30b6" x="138.610954" y="68.961024" style="fill: #1f77b4; stroke: #1f77b4"/>
     <use xlink:href="#mf26c9c30b6" x="140.242384" y="68.731378" style="fill: #1f77b4; stroke: #1f77b4"/>
     <use xlink:href="#mf26c9c30b6" x="141.873814" y="68.438695" style="fill: #1f77b4; stroke: #1f77b4"/>
     <use xlink:href="#mf26c9c30b6" x="143.505244" y="68.021126" style="fill: #1f77b4; stroke: #1f77b4"/>
     <use xlink:href="#mf26c9c30b6" x="145.136674" y="67.56565" style="fill: #1f77b4; stroke: #1f77b4"/>
     <use xlink:href="#mf26c9c30b6" x="146.768104" y="67.281064" style="fill: #1f77b4; stroke: #1f77b4"/>
     <use xlink:href="#mf26c9c30b6" x="148.399534" y="67.046289" style="fill: #1f77b4; stroke: #1f77b4"/>
     <use xlink:href="#mf26c9c30b6" x="150.030963" y="66.631681" style="fill: #1f77b4; stroke: #1f77b4"/>
     <use xlink:href="#mf26c9c30b6" x="151.662393" y="66.269595" style="fill: #1f77b4; stroke: #1f77b4"/>
     <use xlink:href="#mf26c9c30b6" x="153.293823" y="65.89221" style="fill: #1f77b4; stroke: #1f77b4"/>
     <use xlink:href="#mf26c9c30b6" x="154.925253" y="65.558285" style="fill: #1f77b4; stroke: #1f77b4"/>
     <use xlink:href="#mf26c9c30b6" x="156.556683" y="65.194006" style="fill: #1f77b4; stroke: #1f77b4"/>
     <use xlink:href="#mf26c9c30b6" x="158.188113" y="64.804786" style="fill: #1f77b4; stroke: #1f77b4"/>
     <use xlink:href="#mf26c9c30b6" x="159.819543" y="64.50565" style="fill: #1f77b4; stroke: #1f77b4"/>
     <use xlink:href="#mf26c9c30b6" x="161.450973" y="64.176874" style="fill: #1f77b4; stroke: #1f77b4"/>
     <use xlink:href="#mf26c9c30b6" x="163.082402" y="63.850563" style="fill: #1f77b4; stroke: #1f77b4"/>
     <use xlink:href="#mf26c9c30b6" x="164.713832" y="63.428135" style="fill: #1f77b4; stroke: #1f77b4"/>
     <use xlink:href="#mf26c9c30b6" x="166.345262" y="62.772866" style="fill: #1f77b4; stroke: #1f77b4"/>
     <use xlink:href="#mf26c9c30b6" x="167.976692" y="62.435415" style="fill: #1f77b4; stroke: #1f77b4"/>
     <use xlink:href="#mf26c9c30b6" x="169.608122" y="61.850548" style="fill: #1f77b4; stroke: #1f77b4"/>
     <use xlink:href="#mf26c9c30b6" x="171.239552" y="61.101887" style="fill: #1f77b4; stroke: #1f77b4"/>
     <use xlink:href="#mf26c9c30b6" x="172.870982" y="60.381432" style="fill: #1f77b4; stroke: #1f77b4"/>
     <use xlink:href="#mf26c9c30b6" x="174.502412" y="59.781081" style="fill: #1f77b4; stroke: #1f77b4"/>
     <use xlink:href="#mf26c9c30b6" x="176.133842" y="59.097116" style="fill: #1f77b4; stroke: #1f77b4"/>
     <use xlink:href="#mf26c9c30b6" x="177.765271" y="58.459903" style="fill: #1f77b4; stroke: #1f77b4"/>
     <use xlink:href="#mf26c9c30b6" x="179.396701" y="57.696127" style="fill: #1f77b4; stroke: #1f77b4"/>
     <use xlink:href="#mf26c9c30b6" x="181.028131" y="57.127906" style="fill: #1f77b4; stroke: #1f77b4"/>
     <use xlink:href="#mf26c9c30b6" x="182.659561" y="56.663873" style="fill: #1f77b4; stroke: #1f77b4"/>
     <use xlink:href="#mf26c9c30b6" x="184.290991" y="56.068124" style="fill: #1f77b4; stroke: #1f77b4"/>
     <use xlink:href="#mf26c9c30b6" x="185.922421" y="55.395896" style="fill: #1f77b4; stroke: #1f77b4"/>
     <use xlink:href="#mf26c9c30b6" x="187.553851" y="54.38916" style="fill: #1f77b4; stroke: #1f77b4"/>
     <use xlink:href="#mf26c9c30b6" x="189.185281" y="53.505064" style="fill: #1f77b4; stroke: #1f77b4"/>
     <use xlink:href="#mf26c9c30b6" x="190.81671" y="52.762142" style="fill: #1f77b4; stroke: #1f77b4"/>
     <use xlink:href="#mf26c9c30b6" x="192.44814" y="51.977607" style="fill: #1f77b4; stroke: #1f77b4"/>
     <use xlink:href="#mf26c9c30b6" x="194.07957" y="50.961197" style="fill: #1f77b4; stroke: #1f77b4"/>
     <use xlink:href="#mf26c9c30b6" x="195.711" y="49.931199" style="fill: #1f77b4; stroke: #1f77b4"/>
     <use xlink:href="#mf26c9c30b6" x="197.34243" y="49.271157" style="fill: #1f77b4; stroke: #1f77b4"/>
     <use xlink:href="#mf26c9c30b6" x="198.97386" y="48.461734" style="fill: #1f77b4; stroke: #1f77b4"/>
     <use xlink:href="#mf26c9c30b6" x="200.60529" y="47.953128" style="fill: #1f77b4; stroke: #1f77b4"/>
     <use xlink:href="#mf26c9c30b6" x="202.23672" y="47.45834" style="fill: #1f77b4; stroke: #1f77b4"/>
     <use xlink:href="#mf26c9c30b6" x="203.868149" y="47.258182" style="fill: #1f77b4; stroke: #1f77b4"/>
     <use xlink:href="#mf26c9c30b6" x="205.499579" y="47.322033" style="fill: #1f77b4; stroke: #1f77b4"/>
     <use xlink:href="#mf26c9c30b6" x="207.131009" y="48.028313" style="fill: #1f77b4; stroke: #1f77b4"/>
     <use xlink:href="#mf26c9c30b6" x="208.762439" y="49.30283" style="fill: #1f77b4; stroke: #1f77b4"/>
     <use xlink:href="#mf26c9c30b6" x="210.393869" y="51.364596" style="fill: #1f77b4; stroke: #1f77b4"/>
     <use xlink:href="#mf26c9c30b6" x="212.025299" y="54.592205" style="fill: #1f77b4; stroke: #1f77b4"/>
     <use xlink:href="#mf26c9c30b6" x="213.656729" y="58.966381" style="fill: #1f77b4; stroke: #1f77b4"/>
     <use xlink:href="#mf26c9c30b6" x="215.288159" y="65.079176" style="fill: #1f77b4; stroke: #1f77b4"/>
     <use xlink:href="#mf26c9c30b6" x="216.919588" y="72.940611" style="fill: #1f77b4; stroke: #1f77b4"/>
     <use xlink:href="#mf26c9c30b6" x="218.551018" y="82.764119" style="fill: #1f77b4; stroke: #1f77b4"/>
     <use xlink:href="#mf26c9c30b6" x="220.182448" y="93.210277" style="fill: #1f77b4; stroke: #1f77b4"/>
     <use xlink:href="#mf26c9c30b6" x="221.813878" y="105.058584" style="fill: #1f77b4; stroke: #1f77b4"/>
     <use xlink:href="#mf26c9c30b6" x="223.445308" y="116.861073" style="fill: #1f77b4; stroke: #1f77b4"/>
     <use xlink:href="#mf26c9c30b6" x="225.076738" y="128.101027" style="fill: #1f77b4; stroke: #1f77b4"/>
     <use xlink:href="#mf26c9c30b6" x="226.708168" y="139.506687" style="fill: #1f77b4; stroke: #1f77b4"/>
     <use xlink:href="#mf26c9c30b6" x="228.339598" y="148.778769" style="fill: #1f77b4; stroke: #1f77b4"/>
     <use xlink:href="#mf26c9c30b6" x="229.971027" y="153.42098" style="fill: #1f77b4; stroke: #1f77b4"/>
     <use xlink:href="#mf26c9c30b6" x="231.602457" y="151.493889" style="fill: #1f77b4; stroke: #1f77b4"/>
     <use xlink:href="#mf26c9c30b6" x="233.233887" y="145.980091" style="fill: #1f77b4; stroke: #1f77b4"/>
     <use xlink:href="#mf26c9c30b6" x="234.865317" y="140.314493" style="fill: #1f77b4; stroke: #1f77b4"/>
     <use xlink:href="#mf26c9c30b6" x="236.496747" y="135.14851" style="fill: #1f77b4; stroke: #1f77b4"/>
     <use xlink:href="#mf26c9c30b6" x="238.128177" y="129.89537" style="fill: #1f77b4; stroke: #1f77b4"/>
     <use xlink:href="#mf26c9c30b6" x="239.759607" y="126.254786" style="fill: #1f77b4; stroke: #1f77b4"/>
     <use xlink:href="#mf26c9c30b6" x="241.391037" y="122.246145" style="fill: #1f77b4; stroke: #1f77b4"/>
     <use xlink:href="#mf26c9c30b6" x="243.022466" y="118.622945" style="fill: #1f77b4; stroke: #1f77b4"/>
     <use xlink:href="#mf26c9c30b6" x="244.653896" y="115.814169" style="fill: #1f77b4; stroke: #1f77b4"/>
     <use xlink:href="#mf26c9c30b6" x="246.285326" y="113.25977" style="fill: #1f77b4; stroke: #1f77b4"/>
     <use xlink:href="#mf26c9c30b6" x="247.916756" y="110.528264" style="fill: #1f77b4; stroke: #1f77b4"/>
     <use xlink:href="#mf26c9c30b6" x="249.548186" y="108.381051" style="fill: #1f77b4; stroke: #1f77b4"/>
     <use xlink:href="#mf26c9c30b6" x="251.179616" y="106.623932" style="fill: #1f77b4; stroke: #1f77b4"/>
     <use xlink:href="#mf26c9c30b6" x="252.811046" y="104.57289" style="fill: #1f77b4; stroke: #1f77b4"/>
     <use xlink:href="#mf26c9c30b6" x="254.442476" y="102.804769" style="fill: #1f77b4; stroke: #1f77b4"/>
     <use xlink:href="#mf26c9c30b6" x="256.073905" y="101.59016" style="fill: #1f77b4; stroke: #1f77b4"/>
     <use xlink:href="#mf26c9c30b6" x="257.705335" y="99.827132" style="fill: #1f77b4; stroke: #1f77b4"/>
     <use xlink:href="#mf26c9c30b6" x="259.336765" y="98.80636" style="fill: #1f77b4; stroke: #1f77b4"/>
     <use xlink:href="#mf26c9c30b6" x="260.968195" y="97.815488" style="fill: #1f77b4; stroke: #1f77b4"/>
     <use xlink:href="#mf26c9c30b6" x="262.599625" y="96.356804" style="fill: #1f77b4; stroke: #1f77b4"/>
     <use xlink:href="#mf26c9c30b6" x="264.231055" y="95.607824" style="fill: #1f77b4; stroke: #1f77b4"/>
     <use xlink:href="#mf26c9c30b6" x="265.862485" y="94.416667" style="fill: #1f77b4; stroke: #1f77b4"/>
     <use xlink:href="#mf26c9c30b6" x="267.493915" y="93.594419" style="fill: #1f77b4; stroke: #1f77b4"/>
     <use xlink:href="#mf26c9c30b6" x="269.125344" y="92.384914" style="fill: #1f77b4; stroke: #1f77b4"/>
     <use xlink:href="#mf26c9c30b6" x="270.756774" y="91.629381" style="fill: #1f77b4; stroke: #1f77b4"/>
     <use xlink:href="#mf26c9c30b6" x="272.388204" y="90.827172" style="fill: #1f77b4; stroke: #1f77b4"/>
     <use xlink:href="#mf26c9c30b6" x="274.019634" y="90.21585" style="fill: #1f77b4; stroke: #1f77b4"/>
     <use xlink:href="#mf26c9c30b6" x="275.651064" y="89.71451" style="fill: #1f77b4; stroke: #1f77b4"/>
     <use xlink:href="#mf26c9c30b6" x="277.282494" y="89.005818" style="fill: #1f77b4; stroke: #1f77b4"/>
     <use xlink:href="#mf26c9c30b6" x="278.913924" y="88.314673" style="fill: #1f77b4; stroke: #1f77b4"/>
     <use xlink:href="#mf26c9c30b6" x="280.545354" y="87.534711" style="fill: #1f77b4; stroke: #1f77b4"/>
     <use xlink:href="#mf26c9c30b6" x="282.176783" y="86.71429" style="fill: #1f77b4; stroke: #1f77b4"/>
     <use xlink:href="#mf26c9c30b6" x="283.808213" y="86.192753" style="fill: #1f77b4; stroke: #1f77b4"/>
     <use xlink:href="#mf26c9c30b6" x="285.439643" y="85.764139" style="fill: #1f77b4; stroke: #1f77b4"/>
     <use xlink:href="#mf26c9c30b6" x="287.071073" y="85.389438" style="fill: #1f77b4; stroke: #1f77b4"/>
     <use xlink:href="#mf26c9c30b6" x="288.702503" y="84.845417" style="fill: #1f77b4; stroke: #1f77b4"/>
     <use xlink:href="#mf26c9c30b6" x="290.333933" y="84.495827" style="fill: #1f77b4; stroke: #1f77b4"/>
     <use xlink:href="#mf26c9c30b6" x="291.965363" y="84.161047" style="fill: #1f77b4; stroke: #1f77b4"/>
     <use xlink:href="#mf26c9c30b6" x="293.596793" y="83.525023" style="fill: #1f77b4; stroke: #1f77b4"/>
     <use xlink:href="#mf26c9c30b6" x="295.228223" y="83.434145" style="fill: #1f77b4; stroke: #1f77b4"/>
     <use xlink:href="#mf26c9c30b6" x="296.859652" y="83.078674" style="fill: #1f77b4; stroke: #1f77b4"/>
     <use xlink:href="#mf26c9c30b6" x="298.491082" y="82.597987" style="fill: #1f77b4; stroke: #1f77b4"/>
     <use xlink:href="#mf26c9c30b6" x="300.122512" y="82.203239" style="fill: #1f77b4; stroke: #1f77b4"/>
     <use xlink:href="#mf26c9c30b6" x="301.753942" y="81.841898" style="fill: #1f77b4; stroke: #1f77b4"/>
     <use xlink:href="#mf26c9c30b6" x="303.385372" y="81.34241" style="fill: #1f77b4; stroke: #1f77b4"/>
     <use xlink:href="#mf26c9c30b6" x="305.016802" y="81.018196" style="fill: #1f77b4; stroke: #1f77b4"/>
     <use xlink:href="#mf26c9c30b6" x="306.648232" y="80.420623" style="fill: #1f77b4; stroke: #1f77b4"/>
     <use xlink:href="#mf26c9c30b6" x="308.279662" y="80.036754" style="fill: #1f77b4; stroke: #1f77b4"/>
     <use xlink:href="#mf26c9c30b6" x="309.911091" y="79.575313" style="fill: #1f77b4; stroke: #1f77b4"/>
     <use xlink:href="#mf26c9c30b6" x="311.542521" y="79.141129" style="fill: #1f77b4; stroke: #1f77b4"/>
     <use xlink:href="#mf26c9c30b6" x="313.173951" y="78.78616" style="fill: #1f77b4; stroke: #1f77b4"/>
     <use xlink:href="#mf26c9c30b6" x="314.805381" y="78.588402" style="fill: #1f77b4; stroke: #1f77b4"/>
     <use xlink:href="#mf26c9c30b6" x="316.436811" y="78.321026" style="fill: #1f77b4; stroke: #1f77b4"/>
     <use xlink:href="#mf26c9c30b6" x="318.068241" y="77.907368" style="fill: #1f77b4; stroke: #1f77b4"/>
     <use xlink:href="#mf26c9c30b6" x="319.699671" y="77.405949" style="fill: #1f77b4; stroke: #1f77b4"/>
     <use xlink:href="#mf26c9c30b6" x="321.331101" y="77.169591" style="fill: #1f77b4; stroke: #1f77b4"/>
     <use xlink:href="#mf26c9c30b6" x="322.96253" y="76.639921" style="fill: #1f77b4; stroke: #1f77b4"/>
     <use xlink:href="#mf26c9c30b6" x="324.59396" y="76.429289" style="fill: #1f77b4; stroke: #1f77b4"/>
     <use xlink:href="#mf26c9c30b6" x="326.22539" y="76.177785" style="fill: #1f77b4; stroke: #1f77b4"/>
     <use xlink:href="#mf26c9c30b6" x="327.85682" y="75.885221" style="fill: #1f77b4; stroke: #1f77b4"/>
     <use xlink:href="#mf26c9c30b6" x="329.48825" y="75.464294" style="fill: #1f77b4; stroke: #1f77b4"/>
     <use xlink:href="#mf26c9c30b6" x="331.11968" y="75.044273" style="fill: #1f77b4; stroke: #1f77b4"/>
     <use xlink:href="#mf26c9c30b6" x="332.75111" y="74.671764" style="fill: #1f77b4; stroke: #1f77b4"/>
     <use xlink:href="#mf26c9c30b6" x="334.38254" y="74.358809" style="fill: #1f77b4; stroke: #1f77b4"/>
     <use xlink:href="#mf26c9c30b6" x="336.013969" y="73.959594" style="fill: #1f77b4; stroke: #1f77b4"/>
     <use xlink:href="#mf26c9c30b6" x="337.645399" y="73.623121" style="fill: #1f77b4; stroke: #1f77b4"/>
     <use xlink:href="#mf26c9c30b6" x="339.276829" y="73.313223" style="fill: #1f77b4; stroke: #1f77b4"/>
     <use xlink:href="#mf26c9c30b6" x="340.908259" y="72.960958" style="fill: #1f77b4; stroke: #1f77b4"/>
     <use xlink:href="#mf26c9c30b6" x="342.539689" y="72.633604" style="fill: #1f77b4; stroke: #1f77b4"/>
     <use xlink:href="#mf26c9c30b6" x="344.171119" y="72.253823" style="fill: #1f77b4; stroke: #1f77b4"/>
     <use xlink:href="#mf26c9c30b6" x="345.802549" y="71.943755" style="fill: #1f77b4; stroke: #1f77b4"/>
     <use xlink:href="#mf26c9c30b6" x="347.433979" y="71.546463" style="fill: #1f77b4; stroke: #1f77b4"/>
     <use xlink:href="#mf26c9c30b6" x="349.065408" y="71.216357" style="fill: #1f77b4; stroke: #1f77b4"/>
     <use xlink:href="#mf26c9c30b6" x="350.696838" y="70.948837" style="fill: #1f77b4; stroke: #1f77b4"/>
     <use xlink:href="#mf26c9c30b6" x="352.328268" y="70.46241" style="fill: #1f77b4; stroke: #1f77b4"/>
     <use xlink:href="#mf26c9c30b6" x="353.959698" y="70.230757" style="fill: #1f77b4; stroke: #1f77b4"/>
     <use xlink:href="#mf26c9c30b6" x="355.591128" y="69.922142" style="fill: #1f77b4; stroke: #1f77b4"/>
     <use xlink:href="#mf26c9c30b6" x="357.222558" y="69.530875" style="fill: #1f77b4; stroke: #1f77b4"/>
     <use xlink:href="#mf26c9c30b6" x="358.853988" y="69.230588" style="fill: #1f77b4; stroke: #1f77b4"/>
     <use xlink:href="#mf26c9c30b6" x="360.485418" y="68.850506" style="fill: #1f77b4; stroke: #1f77b4"/>
     <use xlink:href="#mf26c9c30b6" x="362.116847" y="68.482637" style="fill: #1f77b4; stroke: #1f77b4"/>
     <use xlink:href="#mf26c9c30b6" x="363.748277" y="68.199727" style="fill: #1f77b4; stroke: #1f77b4"/>
     <use xlink:href="#mf26c9c30b6" x="365.379707" y="67.81463" style="fill: #1f77b4; stroke: #1f77b4"/>
     <use xlink:href="#mf26c9c30b6" x="367.011137" y="67.557162" style="fill: #1f77b4; stroke: #1f77b4"/>
     <use xlink:href="#mf26c9c30b6" x="368.642567" y="67.159953" style="fill: #1f77b4; stroke: #1f77b4"/>
     <use xlink:href="#mf26c9c30b6" x="370.273997" y="66.84856" style="fill: #1f77b4; stroke: #1f77b4"/>
     <use xlink:href="#mf26c9c30b6" x="371.905427" y="66.477671" style="fill: #1f77b4; stroke: #1f77b4"/>
     <use xlink:href="#mf26c9c30b6" x="373.536857" y="66.147129" style="fill: #1f77b4; stroke: #1f77b4"/>
     <use xlink:href="#mf26c9c30b6" x="375.168286" y="65.798857" style="fill: #1f77b4; stroke: #1f77b4"/>
     <use xlink:href="#mf26c9c30b6" x="376.799716" y="65.452016" style="fill: #1f77b4; stroke: #1f77b4"/>
     <use xlink:href="#mf26c9c30b6" x="378.431146" y="65.074313" style="fill: #1f77b4; stroke: #1f77b4"/>
     <use xlink:href="#mf26c9c30b6" x="380.062576" y="64.757846" style="fill: #1f77b4; stroke: #1f77b4"/>
     <use xlink:href="#mf26c9c30b6" x="381.694006" y="64.400546" style="fill: #1f77b4; stroke: #1f77b4"/>
     <use xlink:href="#mf26c9c30b6" x="383.325436" y="64.053962" style="fill: #1f77b4; stroke: #1f77b4"/>
     <use xlink:href="#mf26c9c30b6" x="384.956866" y="63.722221" style="fill: #1f77b4; stroke: #1f77b4"/>
     <use xlink:href="#mf26c9c30b6" x="386.588296" y="63.329807" style="fill: #1f77b4; stroke: #1f77b4"/>
     <use xlink:href="#mf26c9c30b6" x="388.219725" y="62.98052" style="fill: #1f77b4; stroke: #1f77b4"/>
     <use xlink:href="#mf26c9c30b6" x="389.851155" y="62.68087" style="fill: #1f77b4; stroke: #1f77b4"/>
     <use xlink:href="#mf26c9c30b6" x="391.482585" y="62.290461" style="fill: #1f77b4; stroke: #1f77b4"/>
    </g>
   </g>
   <g id="line2d_16">
    <path d="M 66.82804 68.250018 
L 88.926647 67.412836 
L 106.800521 66.522039 
L 121.4246 65.581082 
L 133.773822 64.570898 
L 144.173167 63.503951 
L 152.947614 62.391921 
L 160.747122 61.184528 
L 167.571693 59.905977 
L 173.746303 58.51989 
L 179.270955 57.050232 
L 184.470628 55.432068 
L 189.6703 53.566561 
L 196.49487 50.837409 
L 200.394625 49.370361 
L 202.669481 48.732598 
L 204.294379 48.485679 
L 205.594297 48.485103 
L 206.894215 48.732615 
L 207.869154 49.13372 
L 208.844092 49.770353 
L 209.819031 50.697355 
L 210.793969 51.978182 
L 211.768908 53.684197 
L 212.743846 55.892576 
L 213.718785 58.682271 
L 214.693724 62.127609 
L 215.668662 66.289452 
L 216.96858 73.011879 
L 218.268498 81.056237 
L 219.893396 92.723829 
L 222.493232 113.611872 
L 225.418048 136.867753 
L 227.042946 148.252362 
L 228.017884 153.997789 
L 228.667843 156.672885 
L 228.992823 157.221818 
L 229.317802 157.038998 
L 229.642782 156.241743 
L 230.292741 153.722716 
L 233.542536 139.76667 
L 235.167434 133.891024 
L 236.792331 128.779218 
L 238.417229 124.330993 
L 240.042127 120.448639 
L 241.992004 116.416387 
L 243.941881 112.951053 
L 245.891758 109.952012 
L 247.841635 107.338558 
L 250.116492 104.691267 
L 252.391349 102.399879 
L 254.666205 100.40086 
L 257.266041 98.410598 
L 260.190857 96.478032 
L 263.115673 94.808961 
L 266.365468 93.204504 
L 269.940243 91.68526 
L 273.839997 90.263378 
L 278.389711 88.851071 
L 283.264403 87.57002 
L 288.789055 86.344566 
L 295.288646 85.140516 
L 302.763175 83.997118 
L 311.212643 82.937205 
L 320.962028 81.941058 
L 332.661291 80.979182 
L 346.310431 80.087191 
L 362.884387 79.237094 
L 382.708138 78.450238 
L 391.482585 78.160336 
L 391.482585 78.160336 
" clip-path="url(#p7489758630)" style="fill: none; stroke: #d62728; stroke-width: 1.5; stroke-linecap: square"/>
   </g>
   <g id="patch_3">
    <path d="M 50.595313 162.72 
L 50.595313 41.76 
" style="fill: none; stroke: #000000; stroke-width: 0.8; stroke-linejoin: miter; stroke-linecap: square"/>
   </g>
   <g id="patch_4">
    <path d="M 407.715312 162.72 
L 407.715312 41.76 
" style="fill: none; stroke: #000000; stroke-width: 0.8; stroke-linejoin: miter; stroke-linecap: square"/>
   </g>
   <g id="patch_5">
    <path d="M 50.595312 162.72 
L 407.715312 162.72 
" style="fill: none; stroke: #000000; stroke-width: 0.8; stroke-linejoin: miter; stroke-linecap: square"/>
   </g>
   <g id="patch_6">
    <path d="M 50.595312 41.76 
L 407.715312 41.76 
" style="fill: none; stroke: #000000; stroke-width: 0.8; stroke-linejoin: miter; stroke-linecap: square"/>
   </g>
   <g id="text_7">
    <g id="patch_7">
     <path d="M 425.571312 95.079562 
L 564.671312 95.079562 
Q 568.671312 95.079562 568.671312 91.079562 
L 568.671312 47.808 
Q 568.671312 43.808 564.671312 43.808 
L 425.571312 43.808 
Q 421.571312 43.808 421.571312 47.808 
L 421.571312 91.079562 
Q 421.571312 95.079562 425.571312 95.079562 
z
" style="fill: #ffffff; opacity: 0.5; stroke: #000000; stroke-linejoin: miter"/>
    </g>
    <!-- Summary -->
    <g transform="translate(425.571312 55.406437) scale(0.1 -0.1)">
     <defs>
      <path id="DejaVuSans-53" d="M 3425 4513 
L 3425 3897 
Q 3066 4069 2747 4153 
Q 2428 4238 2131 4238 
Q 1616 4238 1336 4038 
Q 1056 3838 1056 3469 
Q 1056 3159 1242 3001 
Q 1428 2844 1947 2747 
L 2328 2669 
Q 3034 2534 3370 2195 
Q 3706 1856 3706 1288 
Q 3706 609 3251 259 
Q 2797 -91 1919 -91 
Q 1588 -91 1214 -16 
Q 841 59 441 206 
L 441 856 
Q 825 641 1194 531 
Q 1563 422 1919 422 
Q 2459 422 2753 634 
Q 3047 847 3047 1241 
Q 3047 1584 2836 1778 
Q 2625 1972 2144 2069 
L 1759 2144 
Q 1053 2284 737 2584 
Q 422 2884 422 3419 
Q 422 4038 858 4394 
Q 1294 4750 2059 4750 
Q 2388 4750 2728 4690 
Q 3069 4631 3425 4513 
z
" transform="scale(0.015625)"/>
      <path id="DejaVuSans-75" d="M 544 1381 
L 544 3500 
L 1119 3500 
L 1119 1403 
Q 1119 906 1312 657 
Q 1506 409 1894 409 
Q 2359 409 2629 706 
Q 2900 1003 2900 1516 
L 2900 3500 
L 3475 3500 
L 3475 0 
L 2900 0 
L 2900 538 
Q 2691 219 2414 64 
Q 2138 -91 1772 -91 
Q 1169 -91 856 284 
Q 544 659 544 1381 
z
M 1991 3584 
L 1991 3584 
z
" transform="scale(0.015625)"/>
      <path id="DejaVuSans-61" d="M 2194 1759 
Q 1497 1759 1228 1600 
Q 959 1441 959 1056 
Q 959 750 1161 570 
Q 1363 391 1709 391 
Q 2188 391 2477 730 
Q 2766 1069 2766 1631 
L 2766 1759 
L 2194 1759 
z
M 3341 1997 
L 3341 0 
L 2766 0 
L 2766 531 
Q 2569 213 2275 61 
Q 1981 -91 1556 -91 
Q 1019 -91 701 211 
Q 384 513 384 1019 
Q 384 1609 779 1909 
Q 1175 2209 1959 2209 
L 2766 2209 
L 2766 2266 
Q 2766 2663 2505 2880 
Q 2244 3097 1772 3097 
Q 1472 3097 1187 3025 
Q 903 2953 641 2809 
L 641 3341 
Q 956 3463 1253 3523 
Q 1550 3584 1831 3584 
Q 2591 3584 2966 3190 
Q 3341 2797 3341 1997 
z
" transform="scale(0.015625)"/>
      <path id="DejaVuSans-72" d="M 2631 2963 
Q 2534 3019 2420 3045 
Q 2306 3072 2169 3072 
Q 1681 3072 1420 2755 
Q 1159 2438 1159 1844 
L 1159 0 
L 581 0 
L 581 3500 
L 1159 3500 
L 1159 2956 
Q 1341 3275 1631 3429 
Q 1922 3584 2338 3584 
Q 2397 3584 2469 3576 
Q 2541 3569 2628 3553 
L 2631 2963 
z
" transform="scale(0.015625)"/>
      <path id="DejaVuSans-79" d="M 2059 -325 
Q 1816 -950 1584 -1140 
Q 1353 -1331 966 -1331 
L 506 -1331 
L 506 -850 
L 844 -850 
Q 1081 -850 1212 -737 
Q 1344 -625 1503 -206 
L 1606 56 
L 191 3500 
L 800 3500 
L 1894 763 
L 2988 3500 
L 3597 3500 
L 2059 -325 
z
" transform="scale(0.015625)"/>
     </defs>
     <use xlink:href="#DejaVuSans-53"/>
     <use xlink:href="#DejaVuSans-75" x="63.476562"/>
     <use xlink:href="#DejaVuSans-6d" x="126.855469"/>
     <use xlink:href="#DejaVuSans-6d" x="224.267578"/>
     <use xlink:href="#DejaVuSans-61" x="321.679688"/>
     <use xlink:href="#DejaVuSans-72" x="382.958984"/>
     <use xlink:href="#DejaVuSans-79" x="424.072266"/>
    </g>
    <!-- $Q_I$: 58$\pm$16 k -->
    <g transform="translate(425.571312 66.60425) scale(0.1 -0.1)">
     <defs>
      <path id="DejaVuSans-Oblique-51" d="M 2309 -84 
Q 2275 -88 2237 -89 
Q 2200 -91 2125 -91 
Q 1250 -91 756 411 
Q 263 913 263 1797 
Q 263 2319 452 2844 
Q 641 3369 978 3788 
Q 1369 4269 1858 4509 
Q 2347 4750 2938 4750 
Q 3794 4750 4287 4245 
Q 4781 3741 4781 2869 
Q 4781 1928 4265 1147 
Q 3750 366 2919 44 
L 3553 -825 
L 2847 -825 
L 2309 -84 
z
M 2919 4238 
Q 2400 4238 2003 3986 
Q 1606 3734 1313 3219 
Q 1125 2891 1026 2522 
Q 928 2153 928 1778 
Q 928 1128 1239 775 
Q 1550 422 2119 422 
Q 2631 422 3032 676 
Q 3434 931 3719 1434 
Q 3909 1772 4009 2142 
Q 4109 2513 4109 2881 
Q 4109 3528 3796 3883 
Q 3484 4238 2919 4238 
z
" transform="scale(0.015625)"/>
      <path id="DejaVuSans-Oblique-49" d="M 1081 4666 
L 1716 4666 
L 806 0 
L 172 0 
L 1081 4666 
z
" transform="scale(0.015625)"/>
      <path id="DejaVuSans-3a" d="M 750 794 
L 1409 794 
L 1409 0 
L 750 0 
L 750 794 
z
M 750 3309 
L 1409 3309 
L 1409 2516 
L 750 2516 
L 750 3309 
z
" transform="scale(0.015625)"/>
      <path id="DejaVuSans-38" d="M 2034 2216 
Q 1584 2216 1326 1975 
Q 1069 1734 1069 1313 
Q 1069 891 1326 650 
Q 1584 409 2034 409 
Q 2484 409 2743 651 
Q 3003 894 3003 1313 
Q 3003 1734 2745 1975 
Q 2488 2216 2034 2216 
z
M 1403 2484 
Q 997 2584 770 2862 
Q 544 3141 544 3541 
Q 544 4100 942 4425 
Q 1341 4750 2034 4750 
Q 2731 4750 3128 4425 
Q 3525 4100 3525 3541 
Q 3525 3141 3298 2862 
Q 3072 2584 2669 2484 
Q 3125 2378 3379 2068 
Q 3634 1759 3634 1313 
Q 3634 634 3220 271 
Q 2806 -91 2034 -91 
Q 1263 -91 848 271 
Q 434 634 434 1313 
Q 434 1759 690 2068 
Q 947 2378 1403 2484 
z
M 1172 3481 
Q 1172 3119 1398 2916 
Q 1625 2713 2034 2713 
Q 2441 2713 2670 2916 
Q 2900 3119 2900 3481 
Q 2900 3844 2670 4047 
Q 2441 4250 2034 4250 
Q 1625 4250 1398 4047 
Q 1172 3844 1172 3481 
z
" transform="scale(0.015625)"/>
      <path id="DejaVuSans-b1" d="M 2944 4013 
L 2944 2803 
L 4684 2803 
L 4684 2272 
L 2944 2272 
L 2944 1063 
L 2419 1063 
L 2419 2272 
L 678 2272 
L 678 2803 
L 2419 2803 
L 2419 4013 
L 2944 4013 
z
M 678 531 
L 4684 531 
L 4684 0 
L 678 0 
L 678 531 
z
" transform="scale(0.015625)"/>
      <path id="DejaVuSans-36" d="M 2113 2584 
Q 1688 2584 1439 2293 
Q 1191 2003 1191 1497 
Q 1191 994 1439 701 
Q 1688 409 2113 409 
Q 2538 409 2786 701 
Q 3034 994 3034 1497 
Q 3034 2003 2786 2293 
Q 2538 2584 2113 2584 
z
M 3366 4563 
L 3366 3988 
Q 3128 4100 2886 4159 
Q 2644 4219 2406 4219 
Q 1781 4219 1451 3797 
Q 1122 3375 1075 2522 
Q 1259 2794 1537 2939 
Q 1816 3084 2150 3084 
Q 2853 3084 3261 2657 
Q 3669 2231 3669 1497 
Q 3669 778 3244 343 
Q 2819 -91 2113 -91 
Q 1303 -91 875 529 
Q 447 1150 447 2328 
Q 447 3434 972 4092 
Q 1497 4750 2381 4750 
Q 2619 4750 2861 4703 
Q 3103 4656 3366 4563 
z
" transform="scale(0.015625)"/>
      <path id="DejaVuSans-6b" d="M 581 4863 
L 1159 4863 
L 1159 1991 
L 2875 3500 
L 3609 3500 
L 1753 1863 
L 3688 0 
L 2938 0 
L 1159 1709 
L 1159 0 
L 581 0 
L 581 4863 
z
" transform="scale(0.015625)"/>
     </defs>
     <use xlink:href="#DejaVuSans-Oblique-51" transform="translate(0 0.015625)"/>
     <use xlink:href="#DejaVuSans-Oblique-49" transform="translate(78.710938 -16.390625) scale(0.7)"/>
     <use xlink:href="#DejaVuSans-3a" transform="translate(102.089844 0.015625)"/>
     <use xlink:href="#DejaVuSans-20" transform="translate(135.78125 0.015625)"/>
     <use xlink:href="#DejaVuSans-35" transform="translate(167.568359 0.015625)"/>
     <use xlink:href="#DejaVuSans-38" transform="translate(231.191406 0.015625)"/>
     <use xlink:href="#DejaVuSans-b1" transform="translate(294.814453 0.015625)"/>
     <use xlink:href="#DejaVuSans-31" transform="translate(378.603516 0.015625)"/>
     <use xlink:href="#DejaVuSans-36" transform="translate(442.226562 0.015625)"/>
     <use xlink:href="#DejaVuSans-20" transform="translate(505.849609 0.015625)"/>
     <use xlink:href="#DejaVuSans-6b" transform="translate(537.636719 0.015625)"/>
    </g>
    <!-- $Q_C$: 4.329$\pm$0.099 k -->
    <g transform="translate(425.571312 77.802062) scale(0.1 -0.1)">
     <defs>
      <path id="DejaVuSans-Oblique-43" d="M 4447 4306 
L 4319 3641 
Q 4019 3944 3683 4091 
Q 3347 4238 2956 4238 
Q 2422 4238 2017 3981 
Q 1613 3725 1319 3200 
Q 1131 2863 1032 2486 
Q 934 2109 934 1728 
Q 934 1091 1264 756 
Q 1594 422 2222 422 
Q 2656 422 3056 561 
Q 3456 700 3834 978 
L 3688 231 
Q 3316 72 2936 -9 
Q 2556 -91 2175 -91 
Q 1278 -91 773 396 
Q 269 884 269 1753 
Q 269 2309 461 2846 
Q 653 3384 1013 3828 
Q 1394 4300 1883 4525 
Q 2372 4750 3022 4750 
Q 3422 4750 3780 4639 
Q 4138 4528 4447 4306 
z
" transform="scale(0.015625)"/>
      <path id="DejaVuSans-34" d="M 2419 4116 
L 825 1625 
L 2419 1625 
L 2419 4116 
z
M 2253 4666 
L 3047 4666 
L 3047 1625 
L 3713 1625 
L 3713 1100 
L 3047 1100 
L 3047 0 
L 2419 0 
L 2419 1100 
L 313 1100 
L 313 1709 
L 2253 4666 
z
" transform="scale(0.015625)"/>
      <path id="DejaVuSans-2e" d="M 684 794 
L 1344 794 
L 1344 0 
L 684 0 
L 684 794 
z
" transform="scale(0.015625)"/>
      <path id="DejaVuSans-33" d="M 2597 2516 
Q 3050 2419 3304 2112 
Q 3559 1806 3559 1356 
Q 3559 666 3084 287 
Q 2609 -91 1734 -91 
Q 1441 -91 1130 -33 
Q 819 25 488 141 
L 488 750 
Q 750 597 1062 519 
Q 1375 441 1716 441 
Q 2309 441 2620 675 
Q 2931 909 2931 1356 
Q 2931 1769 2642 2001 
Q 2353 2234 1838 2234 
L 1294 2234 
L 1294 2753 
L 1863 2753 
Q 2328 2753 2575 2939 
Q 2822 3125 2822 3475 
Q 2822 3834 2567 4026 
Q 2313 4219 1838 4219 
Q 1578 4219 1281 4162 
Q 984 4106 628 3988 
L 628 4550 
Q 988 4650 1302 4700 
Q 1616 4750 1894 4750 
Q 2613 4750 3031 4423 
Q 3450 4097 3450 3541 
Q 3450 3153 3228 2886 
Q 3006 2619 2597 2516 
z
" transform="scale(0.015625)"/>
      <path id="DejaVuSans-39" d="M 703 97 
L 703 672 
Q 941 559 1184 500 
Q 1428 441 1663 441 
Q 2288 441 2617 861 
Q 2947 1281 2994 2138 
Q 2813 1869 2534 1725 
Q 2256 1581 1919 1581 
Q 1219 1581 811 2004 
Q 403 2428 403 3163 
Q 403 3881 828 4315 
Q 1253 4750 1959 4750 
Q 2769 4750 3195 4129 
Q 3622 3509 3622 2328 
Q 3622 1225 3098 567 
Q 2575 -91 1691 -91 
Q 1453 -91 1209 -44 
Q 966 3 703 97 
z
M 1959 2075 
Q 2384 2075 2632 2365 
Q 2881 2656 2881 3163 
Q 2881 3666 2632 3958 
Q 2384 4250 1959 4250 
Q 1534 4250 1286 3958 
Q 1038 3666 1038 3163 
Q 1038 2656 1286 2365 
Q 1534 2075 1959 2075 
z
" transform="scale(0.015625)"/>
     </defs>
     <use xlink:href="#DejaVuSans-Oblique-51" transform="translate(0 0.015625)"/>
     <use xlink:href="#DejaVuSans-Oblique-43" transform="translate(78.710938 -16.390625) scale(0.7)"/>
     <use xlink:href="#DejaVuSans-3a" transform="translate(130.322266 0.015625)"/>
     <use xlink:href="#DejaVuSans-20" transform="translate(164.013672 0.015625)"/>
     <use xlink:href="#DejaVuSans-34" transform="translate(195.800781 0.015625)"/>
     <use xlink:href="#DejaVuSans-2e" transform="translate(259.423828 0.015625)"/>
     <use xlink:href="#DejaVuSans-33" transform="translate(291.210938 0.015625)"/>
     <use xlink:href="#DejaVuSans-32" transform="translate(354.833984 0.015625)"/>
     <use xlink:href="#DejaVuSans-39" transform="translate(416.707031 0.015625)"/>
     <use xlink:href="#DejaVuSans-b1" transform="translate(480.330078 0.015625)"/>
     <use xlink:href="#DejaVuSans-30" transform="translate(564.119141 0.015625)"/>
     <use xlink:href="#DejaVuSans-2e" transform="translate(627.742188 0.015625)"/>
     <use xlink:href="#DejaVuSans-30" transform="translate(659.529297 0.015625)"/>
     <use xlink:href="#DejaVuSans-39" transform="translate(723.152344 0.015625)"/>
     <use xlink:href="#DejaVuSans-39" transform="translate(786.775391 0.015625)"/>
     <use xlink:href="#DejaVuSans-20" transform="translate(850.398438 0.015625)"/>
     <use xlink:href="#DejaVuSans-6b" transform="translate(882.185547 0.015625)"/>
    </g>
    <!-- $f_{res}$: 5.834416$\pm$1.6e-05 GHz -->
    <g transform="translate(425.571312 88.999875) scale(0.1 -0.1)">
     <defs>
      <path id="DejaVuSans-Oblique-66" d="M 3059 4863 
L 2969 4384 
L 2419 4384 
Q 2106 4384 1964 4261 
Q 1822 4138 1753 3809 
L 1691 3500 
L 2638 3500 
L 2553 3053 
L 1606 3053 
L 1013 0 
L 434 0 
L 1031 3053 
L 481 3053 
L 563 3500 
L 1113 3500 
L 1159 3744 
Q 1278 4363 1576 4613 
Q 1875 4863 2516 4863 
L 3059 4863 
z
" transform="scale(0.015625)"/>
      <path id="DejaVuSans-Oblique-72" d="M 2853 2969 
Q 2766 3016 2653 3041 
Q 2541 3066 2413 3066 
Q 1953 3066 1609 2717 
Q 1266 2369 1153 1784 
L 800 0 
L 225 0 
L 909 3500 
L 1484 3500 
L 1375 2956 
Q 1603 3259 1920 3421 
Q 2238 3584 2597 3584 
Q 2691 3584 2781 3573 
Q 2872 3563 2963 3538 
L 2853 2969 
z
" transform="scale(0.015625)"/>
      <path id="DejaVuSans-Oblique-65" d="M 3078 2063 
Q 3088 2113 3092 2166 
Q 3097 2219 3097 2272 
Q 3097 2653 2873 2875 
Q 2650 3097 2266 3097 
Q 1838 3097 1509 2826 
Q 1181 2556 1013 2059 
L 3078 2063 
z
M 3578 1613 
L 903 1613 
Q 884 1494 878 1425 
Q 872 1356 872 1306 
Q 872 872 1139 634 
Q 1406 397 1894 397 
Q 2269 397 2603 481 
Q 2938 566 3225 728 
L 3116 159 
Q 2806 34 2476 -28 
Q 2147 -91 1806 -91 
Q 1078 -91 686 257 
Q 294 606 294 1247 
Q 294 1794 489 2264 
Q 684 2734 1063 3103 
Q 1306 3334 1642 3459 
Q 1978 3584 2356 3584 
Q 2950 3584 3301 3228 
Q 3653 2872 3653 2272 
Q 3653 2128 3634 1964 
Q 3616 1800 3578 1613 
z
" transform="scale(0.015625)"/>
      <path id="DejaVuSans-Oblique-73" d="M 3200 3397 
L 3091 2853 
Q 2863 2978 2609 3040 
Q 2356 3103 2088 3103 
Q 1634 3103 1373 2948 
Q 1113 2794 1113 2528 
Q 1113 2219 1719 2053 
Q 1766 2041 1788 2034 
L 1972 1978 
Q 2547 1819 2739 1644 
Q 2931 1469 2931 1166 
Q 2931 609 2489 259 
Q 2047 -91 1331 -91 
Q 1053 -91 747 -37 
Q 441 16 72 128 
L 184 722 
Q 500 559 806 475 
Q 1113 391 1394 391 
Q 1816 391 2080 572 
Q 2344 753 2344 1031 
Q 2344 1331 1650 1516 
L 1591 1531 
L 1394 1581 
Q 956 1697 753 1886 
Q 550 2075 550 2369 
Q 550 2928 970 3256 
Q 1391 3584 2113 3584 
Q 2397 3584 2667 3537 
Q 2938 3491 3200 3397 
z
" transform="scale(0.015625)"/>
      <path id="DejaVuSans-65" d="M 3597 1894 
L 3597 1613 
L 953 1613 
Q 991 1019 1311 708 
Q 1631 397 2203 397 
Q 2534 397 2845 478 
Q 3156 559 3463 722 
L 3463 178 
Q 3153 47 2828 -22 
Q 2503 -91 2169 -91 
Q 1331 -91 842 396 
Q 353 884 353 1716 
Q 353 2575 817 3079 
Q 1281 3584 2069 3584 
Q 2775 3584 3186 3129 
Q 3597 2675 3597 1894 
z
M 3022 2063 
Q 3016 2534 2758 2815 
Q 2500 3097 2075 3097 
Q 1594 3097 1305 2825 
Q 1016 2553 972 2059 
L 3022 2063 
z
" transform="scale(0.015625)"/>
      <path id="DejaVuSans-2d" d="M 313 2009 
L 1997 2009 
L 1997 1497 
L 313 1497 
L 313 2009 
z
" transform="scale(0.015625)"/>
      <path id="DejaVuSans-47" d="M 3809 666 
L 3809 1919 
L 2778 1919 
L 2778 2438 
L 4434 2438 
L 4434 434 
Q 4069 175 3628 42 
Q 3188 -91 2688 -91 
Q 1594 -91 976 548 
Q 359 1188 359 2328 
Q 359 3472 976 4111 
Q 1594 4750 2688 4750 
Q 3144 4750 3555 4637 
Q 3966 4525 4313 4306 
L 4313 3634 
Q 3963 3931 3569 4081 
Q 3175 4231 2741 4231 
Q 1884 4231 1454 3753 
Q 1025 3275 1025 2328 
Q 1025 1384 1454 906 
Q 1884 428 2741 428 
Q 3075 428 3337 486 
Q 3600 544 3809 666 
z
" transform="scale(0.015625)"/>
      <path id="DejaVuSans-48" d="M 628 4666 
L 1259 4666 
L 1259 2753 
L 3553 2753 
L 3553 4666 
L 4184 4666 
L 4184 0 
L 3553 0 
L 3553 2222 
L 1259 2222 
L 1259 0 
L 628 0 
L 628 4666 
z
" transform="scale(0.015625)"/>
      <path id="DejaVuSans-7a" d="M 353 3500 
L 3084 3500 
L 3084 2975 
L 922 459 
L 3084 459 
L 3084 0 
L 275 0 
L 275 525 
L 2438 3041 
L 353 3041 
L 353 3500 
z
" transform="scale(0.015625)"/>
     </defs>
     <use xlink:href="#DejaVuSans-Oblique-66" transform="translate(0 0.015625)"/>
     <use xlink:href="#DejaVuSans-Oblique-72" transform="translate(35.205078 -16.390625) scale(0.7)"/>
     <use xlink:href="#DejaVuSans-Oblique-65" transform="translate(63.984375 -16.390625) scale(0.7)"/>
     <use xlink:href="#DejaVuSans-Oblique-73" transform="translate(107.050781 -16.390625) scale(0.7)"/>
     <use xlink:href="#DejaVuSans-3a" transform="translate(146.254883 0.015625)"/>
     <use xlink:href="#DejaVuSans-20" transform="translate(179.946289 0.015625)"/>
     <use xlink:href="#DejaVuSans-35" transform="translate(211.733398 0.015625)"/>
     <use xlink:href="#DejaVuSans-2e" transform="translate(275.356445 0.015625)"/>
     <use xlink:href="#DejaVuSans-38" transform="translate(304.518555 0.015625)"/>
     <use xlink:href="#DejaVuSans-33" transform="translate(368.141602 0.015625)"/>
     <use xlink:href="#DejaVuSans-34" transform="translate(431.764648 0.015625)"/>
     <use xlink:href="#DejaVuSans-34" transform="translate(495.387695 0.015625)"/>
     <use xlink:href="#DejaVuSans-31" transform="translate(559.010742 0.015625)"/>
     <use xlink:href="#DejaVuSans-36" transform="translate(622.633789 0.015625)"/>
     <use xlink:href="#DejaVuSans-b1" transform="translate(686.256836 0.015625)"/>
     <use xlink:href="#DejaVuSans-31" transform="translate(770.045898 0.015625)"/>
     <use xlink:href="#DejaVuSans-2e" transform="translate(833.668945 0.015625)"/>
     <use xlink:href="#DejaVuSans-36" transform="translate(865.456055 0.015625)"/>
     <use xlink:href="#DejaVuSans-65" transform="translate(929.079102 0.015625)"/>
     <use xlink:href="#DejaVuSans-2d" transform="translate(990.602539 0.015625)"/>
     <use xlink:href="#DejaVuSans-30" transform="translate(1026.686523 0.015625)"/>
     <use xlink:href="#DejaVuSans-35" transform="translate(1090.30957 0.015625)"/>
     <use xlink:href="#DejaVuSans-20" transform="translate(1153.932617 0.015625)"/>
     <use xlink:href="#DejaVuSans-47" transform="translate(1185.719727 0.015625)"/>
     <use xlink:href="#DejaVuSans-48" transform="translate(1263.209961 0.015625)"/>
     <use xlink:href="#DejaVuSans-7a" transform="translate(1338.405273 0.015625)"/>
    </g>
   </g>
  </g>
  <g id="axes_2">
   <g id="patch_8">
    <path d="M 50.595313 307.872 
L 407.715312 307.872 
L 407.715312 186.912 
L 50.595313 186.912 
z
" style="fill: #ffffff"/>
   </g>
   <g id="matplotlib.axis_3">
    <g id="xtick_10">
     <g id="line2d_17">
      <g>
       <use xlink:href="#m5ebe354c1d" x="66.82804" y="307.872" style="stroke: #000000; stroke-width: 0.8"/>
      </g>
     </g>
     <g id="text_8">
      <!-- 825 -->
      <g transform="translate(57.28429 322.470438) scale(0.1 -0.1)">
       <use xlink:href="#DejaVuSans-38"/>
       <use xlink:href="#DejaVuSans-32" x="63.623047"/>
       <use xlink:href="#DejaVuSans-35" x="127.246094"/>
      </g>
     </g>
    </g>
    <g id="xtick_11">
     <g id="line2d_18">
      <g>
       <use xlink:href="#m5ebe354c1d" x="107.409858" y="307.872" style="stroke: #000000; stroke-width: 0.8"/>
      </g>
     </g>
     <g id="text_9">
      <!-- 827.5 -->
      <g transform="translate(93.095795 322.470438) scale(0.1 -0.1)">
       <defs>
        <path id="DejaVuSans-37" d="M 525 4666 
L 3525 4666 
L 3525 4397 
L 1831 0 
L 1172 0 
L 2766 4134 
L 525 4134 
L 525 4666 
z
" transform="scale(0.015625)"/>
       </defs>
       <use xlink:href="#DejaVuSans-38"/>
       <use xlink:href="#DejaVuSans-32" x="63.623047"/>
       <use xlink:href="#DejaVuSans-37" x="127.246094"/>
       <use xlink:href="#DejaVuSans-2e" x="190.869141"/>
       <use xlink:href="#DejaVuSans-35" x="222.65625"/>
      </g>
     </g>
    </g>
    <g id="xtick_12">
     <g id="line2d_19">
      <g>
       <use xlink:href="#m5ebe354c1d" x="147.991676" y="307.872" style="stroke: #000000; stroke-width: 0.8"/>
      </g>
     </g>
     <g id="text_10">
      <!-- 830 -->
      <g transform="translate(138.447926 322.470438) scale(0.1 -0.1)">
       <use xlink:href="#DejaVuSans-38"/>
       <use xlink:href="#DejaVuSans-33" x="63.623047"/>
       <use xlink:href="#DejaVuSans-30" x="127.246094"/>
      </g>
     </g>
    </g>
    <g id="xtick_13">
     <g id="line2d_20">
      <g>
       <use xlink:href="#m5ebe354c1d" x="188.573494" y="307.872" style="stroke: #000000; stroke-width: 0.8"/>
      </g>
     </g>
     <g id="text_11">
      <!-- 832.5 -->
      <g transform="translate(174.259432 322.470438) scale(0.1 -0.1)">
       <use xlink:href="#DejaVuSans-38"/>
       <use xlink:href="#DejaVuSans-33" x="63.623047"/>
       <use xlink:href="#DejaVuSans-32" x="127.246094"/>
       <use xlink:href="#DejaVuSans-2e" x="190.869141"/>
       <use xlink:href="#DejaVuSans-35" x="222.65625"/>
      </g>
     </g>
    </g>
    <g id="xtick_14">
     <g id="line2d_21">
      <g>
       <use xlink:href="#m5ebe354c1d" x="229.155312" y="307.872" style="stroke: #000000; stroke-width: 0.8"/>
      </g>
     </g>
     <g id="text_12">
      <!-- 835 -->
      <g transform="translate(219.611562 322.470438) scale(0.1 -0.1)">
       <use xlink:href="#DejaVuSans-38"/>
       <use xlink:href="#DejaVuSans-33" x="63.623047"/>
       <use xlink:href="#DejaVuSans-35" x="127.246094"/>
      </g>
     </g>
    </g>
    <g id="xtick_15">
     <g id="line2d_22">
      <g>
       <use xlink:href="#m5ebe354c1d" x="269.737131" y="307.872" style="stroke: #000000; stroke-width: 0.8"/>
      </g>
     </g>
     <g id="text_13">
      <!-- 837.5 -->
      <g transform="translate(255.423068 322.470438) scale(0.1 -0.1)">
       <use xlink:href="#DejaVuSans-38"/>
       <use xlink:href="#DejaVuSans-33" x="63.623047"/>
       <use xlink:href="#DejaVuSans-37" x="127.246094"/>
       <use xlink:href="#DejaVuSans-2e" x="190.869141"/>
       <use xlink:href="#DejaVuSans-35" x="222.65625"/>
      </g>
     </g>
    </g>
    <g id="xtick_16">
     <g id="line2d_23">
      <g>
       <use xlink:href="#m5ebe354c1d" x="310.318949" y="307.872" style="stroke: #000000; stroke-width: 0.8"/>
      </g>
     </g>
     <g id="text_14">
      <!-- 840 -->
      <g transform="translate(300.775199 322.470438) scale(0.1 -0.1)">
       <use xlink:href="#DejaVuSans-38"/>
       <use xlink:href="#DejaVuSans-34" x="63.623047"/>
       <use xlink:href="#DejaVuSans-30" x="127.246094"/>
      </g>
     </g>
    </g>
    <g id="xtick_17">
     <g id="line2d_24">
      <g>
       <use xlink:href="#m5ebe354c1d" x="350.900767" y="307.872" style="stroke: #000000; stroke-width: 0.8"/>
      </g>
     </g>
     <g id="text_15">
      <!-- 842.5 -->
      <g transform="translate(336.586705 322.470438) scale(0.1 -0.1)">
       <use xlink:href="#DejaVuSans-38"/>
       <use xlink:href="#DejaVuSans-34" x="63.623047"/>
       <use xlink:href="#DejaVuSans-32" x="127.246094"/>
       <use xlink:href="#DejaVuSans-2e" x="190.869141"/>
       <use xlink:href="#DejaVuSans-35" x="222.65625"/>
      </g>
     </g>
    </g>
    <g id="xtick_18">
     <g id="line2d_25">
      <g>
       <use xlink:href="#m5ebe354c1d" x="391.482585" y="307.872" style="stroke: #000000; stroke-width: 0.8"/>
      </g>
     </g>
     <g id="text_16">
      <!-- 845 -->
      <g transform="translate(381.938835 322.470438) scale(0.1 -0.1)">
       <use xlink:href="#DejaVuSans-38"/>
       <use xlink:href="#DejaVuSans-34" x="63.623047"/>
       <use xlink:href="#DejaVuSans-35" x="127.246094"/>
      </g>
     </g>
    </g>
    <g id="text_17">
     <!-- Frequency [MHz] -->
     <g transform="translate(187.136562 336.148562) scale(0.1 -0.1)">
      <defs>
       <path id="DejaVuSans-46" d="M 628 4666 
L 3309 4666 
L 3309 4134 
L 1259 4134 
L 1259 2759 
L 3109 2759 
L 3109 2228 
L 1259 2228 
L 1259 0 
L 628 0 
L 628 4666 
z
" transform="scale(0.015625)"/>
       <path id="DejaVuSans-71" d="M 947 1747 
Q 947 1113 1208 752 
Q 1469 391 1925 391 
Q 2381 391 2643 752 
Q 2906 1113 2906 1747 
Q 2906 2381 2643 2742 
Q 2381 3103 1925 3103 
Q 1469 3103 1208 2742 
Q 947 2381 947 1747 
z
M 2906 525 
Q 2725 213 2448 61 
Q 2172 -91 1784 -91 
Q 1150 -91 751 415 
Q 353 922 353 1747 
Q 353 2572 751 3078 
Q 1150 3584 1784 3584 
Q 2172 3584 2448 3432 
Q 2725 3281 2906 2969 
L 2906 3500 
L 3481 3500 
L 3481 -1331 
L 2906 -1331 
L 2906 525 
z
" transform="scale(0.015625)"/>
       <path id="DejaVuSans-6e" d="M 3513 2113 
L 3513 0 
L 2938 0 
L 2938 2094 
Q 2938 2591 2744 2837 
Q 2550 3084 2163 3084 
Q 1697 3084 1428 2787 
Q 1159 2491 1159 1978 
L 1159 0 
L 581 0 
L 581 3500 
L 1159 3500 
L 1159 2956 
Q 1366 3272 1645 3428 
Q 1925 3584 2291 3584 
Q 2894 3584 3203 3211 
Q 3513 2838 3513 2113 
z
" transform="scale(0.015625)"/>
       <path id="DejaVuSans-63" d="M 3122 3366 
L 3122 2828 
Q 2878 2963 2633 3030 
Q 2388 3097 2138 3097 
Q 1578 3097 1268 2742 
Q 959 2388 959 1747 
Q 959 1106 1268 751 
Q 1578 397 2138 397 
Q 2388 397 2633 464 
Q 2878 531 3122 666 
L 3122 134 
Q 2881 22 2623 -34 
Q 2366 -91 2075 -91 
Q 1284 -91 818 406 
Q 353 903 353 1747 
Q 353 2603 823 3093 
Q 1294 3584 2113 3584 
Q 2378 3584 2631 3529 
Q 2884 3475 3122 3366 
z
" transform="scale(0.015625)"/>
       <path id="DejaVuSans-4d" d="M 628 4666 
L 1569 4666 
L 2759 1491 
L 3956 4666 
L 4897 4666 
L 4897 0 
L 4281 0 
L 4281 4097 
L 3078 897 
L 2444 897 
L 1241 4097 
L 1241 0 
L 628 0 
L 628 4666 
z
" transform="scale(0.015625)"/>
      </defs>
      <use xlink:href="#DejaVuSans-46"/>
      <use xlink:href="#DejaVuSans-72" x="50.269531"/>
      <use xlink:href="#DejaVuSans-65" x="89.132812"/>
      <use xlink:href="#DejaVuSans-71" x="150.65625"/>
      <use xlink:href="#DejaVuSans-75" x="214.132812"/>
      <use xlink:href="#DejaVuSans-65" x="277.511719"/>
      <use xlink:href="#DejaVuSans-6e" x="339.035156"/>
      <use xlink:href="#DejaVuSans-63" x="402.414062"/>
      <use xlink:href="#DejaVuSans-79" x="457.394531"/>
      <use xlink:href="#DejaVuSans-20" x="516.574219"/>
      <use xlink:href="#DejaVuSans-5b" x="548.361328"/>
      <use xlink:href="#DejaVuSans-4d" x="587.375"/>
      <use xlink:href="#DejaVuSans-48" x="673.654297"/>
      <use xlink:href="#DejaVuSans-7a" x="748.849609"/>
      <use xlink:href="#DejaVuSans-5d" x="801.339844"/>
     </g>
    </g>
    <g id="text_18">
     <!-- +5 GHz -->
     <g transform="translate(369.277812 335.148562) scale(0.1 -0.1)">
      <defs>
       <path id="DejaVuSans-2b" d="M 2944 4013 
L 2944 2272 
L 4684 2272 
L 4684 1741 
L 2944 1741 
L 2944 0 
L 2419 0 
L 2419 1741 
L 678 1741 
L 678 2272 
L 2419 2272 
L 2419 4013 
L 2944 4013 
z
" transform="scale(0.015625)"/>
      </defs>
      <use xlink:href="#DejaVuSans-2b"/>
      <use xlink:href="#DejaVuSans-35" x="83.789062"/>
      <use xlink:href="#DejaVuSans-20" x="147.412109"/>
      <use xlink:href="#DejaVuSans-47" x="179.199219"/>
      <use xlink:href="#DejaVuSans-48" x="256.689453"/>
      <use xlink:href="#DejaVuSans-7a" x="331.884766"/>
     </g>
    </g>
   </g>
   <g id="matplotlib.axis_4">
    <g id="ytick_6">
     <g id="line2d_26">
      <g>
       <use xlink:href="#m9e00bcae85" x="50.595313" y="291.047794" style="stroke: #000000; stroke-width: 0.8"/>
      </g>
     </g>
     <g id="text_19">
      <!-- -150 -->
      <g transform="translate(20.9 294.847012) scale(0.1 -0.1)">
       <use xlink:href="#DejaVuSans-2d"/>
       <use xlink:href="#DejaVuSans-31" x="36.083984"/>
       <use xlink:href="#DejaVuSans-35" x="99.707031"/>
       <use xlink:href="#DejaVuSans-30" x="163.330078"/>
      </g>
     </g>
    </g>
    <g id="ytick_7">
     <g id="line2d_27">
      <g>
       <use xlink:href="#m9e00bcae85" x="50.595313" y="255.938873" style="stroke: #000000; stroke-width: 0.8"/>
      </g>
     </g>
     <g id="text_20">
      <!-- -100 -->
      <g transform="translate(20.9 259.738092) scale(0.1 -0.1)">
       <use xlink:href="#DejaVuSans-2d"/>
       <use xlink:href="#DejaVuSans-31" x="36.083984"/>
       <use xlink:href="#DejaVuSans-30" x="99.707031"/>
       <use xlink:href="#DejaVuSans-30" x="163.330078"/>
      </g>
     </g>
    </g>
    <g id="ytick_8">
     <g id="line2d_28">
      <g>
       <use xlink:href="#m9e00bcae85" x="50.595313" y="220.829953" style="stroke: #000000; stroke-width: 0.8"/>
      </g>
     </g>
     <g id="text_21">
      <!-- -50 -->
      <g transform="translate(27.2625 224.629172) scale(0.1 -0.1)">
       <use xlink:href="#DejaVuSans-2d"/>
       <use xlink:href="#DejaVuSans-35" x="36.083984"/>
       <use xlink:href="#DejaVuSans-30" x="99.707031"/>
      </g>
     </g>
    </g>
    <g id="text_22">
     <!-- $\angle S_{21}$ [deg] -->
     <g transform="translate(14.8 274.592) rotate(-90) scale(0.1 -0.1)">
      <defs>
       <path id="DejaVuSans-2220" d="M 5028 631 
L 5028 0 
L 547 0 
L 3525 4666 
L 4281 4666 
L 1716 631 
L 5028 631 
z
" transform="scale(0.015625)"/>
       <path id="DejaVuSans-64" d="M 2906 2969 
L 2906 4863 
L 3481 4863 
L 3481 0 
L 2906 0 
L 2906 525 
Q 2725 213 2448 61 
Q 2172 -91 1784 -91 
Q 1150 -91 751 415 
Q 353 922 353 1747 
Q 353 2572 751 3078 
Q 1150 3584 1784 3584 
Q 2172 3584 2448 3432 
Q 2725 3281 2906 2969 
z
M 947 1747 
Q 947 1113 1208 752 
Q 1469 391 1925 391 
Q 2381 391 2643 752 
Q 2906 1113 2906 1747 
Q 2906 2381 2643 2742 
Q 2381 3103 1925 3103 
Q 1469 3103 1208 2742 
Q 947 2381 947 1747 
z
" transform="scale(0.015625)"/>
       <path id="DejaVuSans-67" d="M 2906 1791 
Q 2906 2416 2648 2759 
Q 2391 3103 1925 3103 
Q 1463 3103 1205 2759 
Q 947 2416 947 1791 
Q 947 1169 1205 825 
Q 1463 481 1925 481 
Q 2391 481 2648 825 
Q 2906 1169 2906 1791 
z
M 3481 434 
Q 3481 -459 3084 -895 
Q 2688 -1331 1869 -1331 
Q 1566 -1331 1297 -1286 
Q 1028 -1241 775 -1147 
L 775 -588 
Q 1028 -725 1275 -790 
Q 1522 -856 1778 -856 
Q 2344 -856 2625 -561 
Q 2906 -266 2906 331 
L 2906 616 
Q 2728 306 2450 153 
Q 2172 0 1784 0 
Q 1141 0 747 490 
Q 353 981 353 1791 
Q 353 2603 747 3093 
Q 1141 3584 1784 3584 
Q 2172 3584 2450 3431 
Q 2728 3278 2906 2969 
L 2906 3500 
L 3481 3500 
L 3481 434 
z
" transform="scale(0.015625)"/>
      </defs>
      <use xlink:href="#DejaVuSans-2220" transform="translate(0 0.015625)"/>
      <use xlink:href="#DejaVuSans-Oblique-53" transform="translate(89.648438 0.015625)"/>
      <use xlink:href="#DejaVuSans-32" transform="translate(153.125 -16.390625) scale(0.7)"/>
      <use xlink:href="#DejaVuSans-31" transform="translate(197.661133 -16.390625) scale(0.7)"/>
      <use xlink:href="#DejaVuSans-20" transform="translate(244.931641 0.015625)"/>
      <use xlink:href="#DejaVuSans-5b" transform="translate(276.71875 0.015625)"/>
      <use xlink:href="#DejaVuSans-64" transform="translate(315.732422 0.015625)"/>
      <use xlink:href="#DejaVuSans-65" transform="translate(379.208984 0.015625)"/>
      <use xlink:href="#DejaVuSans-67" transform="translate(440.732422 0.015625)"/>
      <use xlink:href="#DejaVuSans-5d" transform="translate(504.208984 0.015625)"/>
     </g>
    </g>
   </g>
   <g id="line2d_29">
    <path d="M 66.82804 192.410182 
L 70.0909 193.328103 
L 79.879479 195.829252 
L 110.876646 203.966184 
L 138.610954 211.692131 
L 145.136674 213.709591 
L 146.768104 214.302761 
L 148.399534 214.680925 
L 153.293823 216.36409 
L 163.082402 219.542127 
L 164.713832 220.142078 
L 166.345262 220.863274 
L 169.608122 222.106202 
L 174.502412 224.482783 
L 177.765271 226.08968 
L 179.396701 226.993093 
L 184.290991 229.259454 
L 185.922421 230.175458 
L 190.81671 233.450357 
L 192.44814 234.654174 
L 194.07957 236.14001 
L 200.60529 242.905109 
L 202.23672 244.98184 
L 203.868149 247.434562 
L 207.131009 253.135538 
L 208.762439 256.549191 
L 210.393869 260.238141 
L 213.656729 269.027974 
L 215.288159 274.12602 
L 221.813878 295.873338 
L 223.445308 299.82211 
L 225.076738 302.373818 
L 226.708168 301.801881 
L 228.339598 293.371496 
L 229.971027 266.931737 
L 231.602457 238.438861 
L 233.233887 225.703062 
L 234.865317 221.455736 
L 236.496747 220.08677 
L 238.128177 219.679922 
L 239.759607 219.760719 
L 241.391037 220.285791 
L 257.705335 227.027087 
L 260.968195 228.074219 
L 264.231055 229.288253 
L 272.388204 232.024242 
L 280.545354 234.477497 
L 282.176783 235.037698 
L 283.808213 235.423838 
L 285.439643 235.934139 
L 290.333933 237.175149 
L 293.596793 238.057476 
L 295.228223 238.391395 
L 303.385372 240.536254 
L 306.648232 241.420839 
L 311.542521 242.742796 
L 321.331101 245.122621 
L 324.59396 245.935585 
L 332.75111 247.960007 
L 340.908259 249.993045 
L 363.748277 255.529004 
L 391.482585 262.152434 
L 391.482585 262.152434 
" clip-path="url(#p5791a34f99)" style="fill: none; stroke: #1f77b4; stroke-width: 1.5; stroke-linecap: square"/>
    <g clip-path="url(#p5791a34f99)">
     <use xlink:href="#mf26c9c30b6" x="66.82804" y="192.410182" style="fill: #1f77b4; stroke: #1f77b4"/>
     <use xlink:href="#mf26c9c30b6" x="68.45947" y="192.906441" style="fill: #1f77b4; stroke: #1f77b4"/>
     <use xlink:href="#mf26c9c30b6" x="70.0909" y="193.328103" style="fill: #1f77b4; stroke: #1f77b4"/>
     <use xlink:href="#mf26c9c30b6" x="71.722329" y="193.727246" style="fill: #1f77b4; stroke: #1f77b4"/>
     <use xlink:href="#mf26c9c30b6" x="73.353759" y="194.129875" style="fill: #1f77b4; stroke: #1f77b4"/>
     <use xlink:href="#mf26c9c30b6" x="74.985189" y="194.589299" style="fill: #1f77b4; stroke: #1f77b4"/>
     <use xlink:href="#mf26c9c30b6" x="76.616619" y="195.030991" style="fill: #1f77b4; stroke: #1f77b4"/>
     <use xlink:href="#mf26c9c30b6" x="78.248049" y="195.423872" style="fill: #1f77b4; stroke: #1f77b4"/>
     <use xlink:href="#mf26c9c30b6" x="79.879479" y="195.829252" style="fill: #1f77b4; stroke: #1f77b4"/>
     <use xlink:href="#mf26c9c30b6" x="81.510909" y="196.251748" style="fill: #1f77b4; stroke: #1f77b4"/>
     <use xlink:href="#mf26c9c30b6" x="83.142339" y="196.693629" style="fill: #1f77b4; stroke: #1f77b4"/>
     <use xlink:href="#mf26c9c30b6" x="84.773768" y="197.122511" style="fill: #1f77b4; stroke: #1f77b4"/>
     <use xlink:href="#mf26c9c30b6" x="86.405198" y="197.540917" style="fill: #1f77b4; stroke: #1f77b4"/>
     <use xlink:href="#mf26c9c30b6" x="88.036628" y="197.96377" style="fill: #1f77b4; stroke: #1f77b4"/>
     <use xlink:href="#mf26c9c30b6" x="89.668058" y="198.396137" style="fill: #1f77b4; stroke: #1f77b4"/>
     <use xlink:href="#mf26c9c30b6" x="91.299488" y="198.818264" style="fill: #1f77b4; stroke: #1f77b4"/>
     <use xlink:href="#mf26c9c30b6" x="92.930918" y="199.246793" style="fill: #1f77b4; stroke: #1f77b4"/>
     <use xlink:href="#mf26c9c30b6" x="94.562348" y="199.652013" style="fill: #1f77b4; stroke: #1f77b4"/>
     <use xlink:href="#mf26c9c30b6" x="96.193778" y="200.091838" style="fill: #1f77b4; stroke: #1f77b4"/>
     <use xlink:href="#mf26c9c30b6" x="97.825207" y="200.525128" style="fill: #1f77b4; stroke: #1f77b4"/>
     <use xlink:href="#mf26c9c30b6" x="99.456637" y="200.94668" style="fill: #1f77b4; stroke: #1f77b4"/>
     <use xlink:href="#mf26c9c30b6" x="101.088067" y="201.377045" style="fill: #1f77b4; stroke: #1f77b4"/>
     <use xlink:href="#mf26c9c30b6" x="102.719497" y="201.818308" style="fill: #1f77b4; stroke: #1f77b4"/>
     <use xlink:href="#mf26c9c30b6" x="104.350927" y="202.235813" style="fill: #1f77b4; stroke: #1f77b4"/>
     <use xlink:href="#mf26c9c30b6" x="105.982357" y="202.652579" style="fill: #1f77b4; stroke: #1f77b4"/>
     <use xlink:href="#mf26c9c30b6" x="107.613787" y="203.115398" style="fill: #1f77b4; stroke: #1f77b4"/>
     <use xlink:href="#mf26c9c30b6" x="109.245217" y="203.543584" style="fill: #1f77b4; stroke: #1f77b4"/>
     <use xlink:href="#mf26c9c30b6" x="110.876646" y="203.966184" style="fill: #1f77b4; stroke: #1f77b4"/>
     <use xlink:href="#mf26c9c30b6" x="112.508076" y="204.414052" style="fill: #1f77b4; stroke: #1f77b4"/>
     <use xlink:href="#mf26c9c30b6" x="114.139506" y="204.868728" style="fill: #1f77b4; stroke: #1f77b4"/>
     <use xlink:href="#mf26c9c30b6" x="115.770936" y="205.317175" style="fill: #1f77b4; stroke: #1f77b4"/>
     <use xlink:href="#mf26c9c30b6" x="117.402366" y="205.726748" style="fill: #1f77b4; stroke: #1f77b4"/>
     <use xlink:href="#mf26c9c30b6" x="119.033796" y="206.199075" style="fill: #1f77b4; stroke: #1f77b4"/>
     <use xlink:href="#mf26c9c30b6" x="120.665226" y="206.631874" style="fill: #1f77b4; stroke: #1f77b4"/>
     <use xlink:href="#mf26c9c30b6" x="122.296656" y="207.062535" style="fill: #1f77b4; stroke: #1f77b4"/>
     <use xlink:href="#mf26c9c30b6" x="123.928085" y="207.513856" style="fill: #1f77b4; stroke: #1f77b4"/>
     <use xlink:href="#mf26c9c30b6" x="125.559515" y="207.979427" style="fill: #1f77b4; stroke: #1f77b4"/>
     <use xlink:href="#mf26c9c30b6" x="127.190945" y="208.438872" style="fill: #1f77b4; stroke: #1f77b4"/>
     <use xlink:href="#mf26c9c30b6" x="128.822375" y="208.897717" style="fill: #1f77b4; stroke: #1f77b4"/>
     <use xlink:href="#mf26c9c30b6" x="130.453805" y="209.335941" style="fill: #1f77b4; stroke: #1f77b4"/>
     <use xlink:href="#mf26c9c30b6" x="132.085235" y="209.858326" style="fill: #1f77b4; stroke: #1f77b4"/>
     <use xlink:href="#mf26c9c30b6" x="133.716665" y="210.275823" style="fill: #1f77b4; stroke: #1f77b4"/>
     <use xlink:href="#mf26c9c30b6" x="135.348095" y="210.775973" style="fill: #1f77b4; stroke: #1f77b4"/>
     <use xlink:href="#mf26c9c30b6" x="136.979524" y="211.190728" style="fill: #1f77b4; stroke: #1f77b4"/>
     <use xlink:href="#mf26c9c30b6" x="138.610954" y="211.692131" style="fill: #1f77b4; stroke: #1f77b4"/>
     <use xlink:href="#mf26c9c30b6" x="140.242384" y="212.170498" style="fill: #1f77b4; stroke: #1f77b4"/>
     <use xlink:href="#mf26c9c30b6" x="141.873814" y="212.667997" style="fill: #1f77b4; stroke: #1f77b4"/>
     <use xlink:href="#mf26c9c30b6" x="143.505244" y="213.173246" style="fill: #1f77b4; stroke: #1f77b4"/>
     <use xlink:href="#mf26c9c30b6" x="145.136674" y="213.709591" style="fill: #1f77b4; stroke: #1f77b4"/>
     <use xlink:href="#mf26c9c30b6" x="146.768104" y="214.302761" style="fill: #1f77b4; stroke: #1f77b4"/>
     <use xlink:href="#mf26c9c30b6" x="148.399534" y="214.680925" style="fill: #1f77b4; stroke: #1f77b4"/>
     <use xlink:href="#mf26c9c30b6" x="150.030963" y="215.268179" style="fill: #1f77b4; stroke: #1f77b4"/>
     <use xlink:href="#mf26c9c30b6" x="151.662393" y="215.782824" style="fill: #1f77b4; stroke: #1f77b4"/>
     <use xlink:href="#mf26c9c30b6" x="153.293823" y="216.36409" style="fill: #1f77b4; stroke: #1f77b4"/>
     <use xlink:href="#mf26c9c30b6" x="154.925253" y="216.875797" style="fill: #1f77b4; stroke: #1f77b4"/>
     <use xlink:href="#mf26c9c30b6" x="156.556683" y="217.427908" style="fill: #1f77b4; stroke: #1f77b4"/>
     <use xlink:href="#mf26c9c30b6" x="158.188113" y="217.98579" style="fill: #1f77b4; stroke: #1f77b4"/>
     <use xlink:href="#mf26c9c30b6" x="159.819543" y="218.477625" style="fill: #1f77b4; stroke: #1f77b4"/>
     <use xlink:href="#mf26c9c30b6" x="161.450973" y="219.023825" style="fill: #1f77b4; stroke: #1f77b4"/>
     <use xlink:href="#mf26c9c30b6" x="163.082402" y="219.542127" style="fill: #1f77b4; stroke: #1f77b4"/>
     <use xlink:href="#mf26c9c30b6" x="164.713832" y="220.142078" style="fill: #1f77b4; stroke: #1f77b4"/>
     <use xlink:href="#mf26c9c30b6" x="166.345262" y="220.863274" style="fill: #1f77b4; stroke: #1f77b4"/>
     <use xlink:href="#mf26c9c30b6" x="167.976692" y="221.449057" style="fill: #1f77b4; stroke: #1f77b4"/>
     <use xlink:href="#mf26c9c30b6" x="169.608122" y="222.106202" style="fill: #1f77b4; stroke: #1f77b4"/>
     <use xlink:href="#mf26c9c30b6" x="171.239552" y="222.938397" style="fill: #1f77b4; stroke: #1f77b4"/>
     <use xlink:href="#mf26c9c30b6" x="172.870982" y="223.710601" style="fill: #1f77b4; stroke: #1f77b4"/>
     <use xlink:href="#mf26c9c30b6" x="174.502412" y="224.482783" style="fill: #1f77b4; stroke: #1f77b4"/>
     <use xlink:href="#mf26c9c30b6" x="176.133842" y="225.268477" style="fill: #1f77b4; stroke: #1f77b4"/>
     <use xlink:href="#mf26c9c30b6" x="177.765271" y="226.08968" style="fill: #1f77b4; stroke: #1f77b4"/>
     <use xlink:href="#mf26c9c30b6" x="179.396701" y="226.993093" style="fill: #1f77b4; stroke: #1f77b4"/>
     <use xlink:href="#mf26c9c30b6" x="181.028131" y="227.719912" style="fill: #1f77b4; stroke: #1f77b4"/>
     <use xlink:href="#mf26c9c30b6" x="182.659561" y="228.462953" style="fill: #1f77b4; stroke: #1f77b4"/>
     <use xlink:href="#mf26c9c30b6" x="184.290991" y="229.259454" style="fill: #1f77b4; stroke: #1f77b4"/>
     <use xlink:href="#mf26c9c30b6" x="185.922421" y="230.175458" style="fill: #1f77b4; stroke: #1f77b4"/>
     <use xlink:href="#mf26c9c30b6" x="187.553851" y="231.250204" style="fill: #1f77b4; stroke: #1f77b4"/>
     <use xlink:href="#mf26c9c30b6" x="189.185281" y="232.369655" style="fill: #1f77b4; stroke: #1f77b4"/>
     <use xlink:href="#mf26c9c30b6" x="190.81671" y="233.450357" style="fill: #1f77b4; stroke: #1f77b4"/>
     <use xlink:href="#mf26c9c30b6" x="192.44814" y="234.654174" style="fill: #1f77b4; stroke: #1f77b4"/>
     <use xlink:href="#mf26c9c30b6" x="194.07957" y="236.14001" style="fill: #1f77b4; stroke: #1f77b4"/>
     <use xlink:href="#mf26c9c30b6" x="195.711" y="237.793184" style="fill: #1f77b4; stroke: #1f77b4"/>
     <use xlink:href="#mf26c9c30b6" x="197.34243" y="239.289974" style="fill: #1f77b4; stroke: #1f77b4"/>
     <use xlink:href="#mf26c9c30b6" x="198.97386" y="241.081178" style="fill: #1f77b4; stroke: #1f77b4"/>
     <use xlink:href="#mf26c9c30b6" x="200.60529" y="242.905109" style="fill: #1f77b4; stroke: #1f77b4"/>
     <use xlink:href="#mf26c9c30b6" x="202.23672" y="244.98184" style="fill: #1f77b4; stroke: #1f77b4"/>
     <use xlink:href="#mf26c9c30b6" x="203.868149" y="247.434562" style="fill: #1f77b4; stroke: #1f77b4"/>
     <use xlink:href="#mf26c9c30b6" x="205.499579" y="250.211918" style="fill: #1f77b4; stroke: #1f77b4"/>
     <use xlink:href="#mf26c9c30b6" x="207.131009" y="253.135538" style="fill: #1f77b4; stroke: #1f77b4"/>
     <use xlink:href="#mf26c9c30b6" x="208.762439" y="256.549191" style="fill: #1f77b4; stroke: #1f77b4"/>
     <use xlink:href="#mf26c9c30b6" x="210.393869" y="260.238141" style="fill: #1f77b4; stroke: #1f77b4"/>
     <use xlink:href="#mf26c9c30b6" x="212.025299" y="264.478626" style="fill: #1f77b4; stroke: #1f77b4"/>
     <use xlink:href="#mf26c9c30b6" x="213.656729" y="269.027974" style="fill: #1f77b4; stroke: #1f77b4"/>
     <use xlink:href="#mf26c9c30b6" x="215.288159" y="274.12602" style="fill: #1f77b4; stroke: #1f77b4"/>
     <use xlink:href="#mf26c9c30b6" x="216.919588" y="279.640546" style="fill: #1f77b4; stroke: #1f77b4"/>
     <use xlink:href="#mf26c9c30b6" x="218.551018" y="285.465524" style="fill: #1f77b4; stroke: #1f77b4"/>
     <use xlink:href="#mf26c9c30b6" x="220.182448" y="290.807438" style="fill: #1f77b4; stroke: #1f77b4"/>
     <use xlink:href="#mf26c9c30b6" x="221.813878" y="295.873338" style="fill: #1f77b4; stroke: #1f77b4"/>
     <use xlink:href="#mf26c9c30b6" x="223.445308" y="299.82211" style="fill: #1f77b4; stroke: #1f77b4"/>
     <use xlink:href="#mf26c9c30b6" x="225.076738" y="302.373818" style="fill: #1f77b4; stroke: #1f77b4"/>
     <use xlink:href="#mf26c9c30b6" x="226.708168" y="301.801881" style="fill: #1f77b4; stroke: #1f77b4"/>
     <use xlink:href="#mf26c9c30b6" x="228.339598" y="293.371496" style="fill: #1f77b4; stroke: #1f77b4"/>
     <use xlink:href="#mf26c9c30b6" x="229.971027" y="266.931737" style="fill: #1f77b4; stroke: #1f77b4"/>
     <use xlink:href="#mf26c9c30b6" x="231.602457" y="238.438861" style="fill: #1f77b4; stroke: #1f77b4"/>
     <use xlink:href="#mf26c9c30b6" x="233.233887" y="225.703062" style="fill: #1f77b4; stroke: #1f77b4"/>
     <use xlink:href="#mf26c9c30b6" x="234.865317" y="221.455736" style="fill: #1f77b4; stroke: #1f77b4"/>
     <use xlink:href="#mf26c9c30b6" x="236.496747" y="220.08677" style="fill: #1f77b4; stroke: #1f77b4"/>
     <use xlink:href="#mf26c9c30b6" x="238.128177" y="219.679922" style="fill: #1f77b4; stroke: #1f77b4"/>
     <use xlink:href="#mf26c9c30b6" x="239.759607" y="219.760719" style="fill: #1f77b4; stroke: #1f77b4"/>
     <use xlink:href="#mf26c9c30b6" x="241.391037" y="220.285791" style="fill: #1f77b4; stroke: #1f77b4"/>
     <use xlink:href="#mf26c9c30b6" x="243.022466" y="220.960377" style="fill: #1f77b4; stroke: #1f77b4"/>
     <use xlink:href="#mf26c9c30b6" x="244.653896" y="221.581934" style="fill: #1f77b4; stroke: #1f77b4"/>
     <use xlink:href="#mf26c9c30b6" x="246.285326" y="222.243302" style="fill: #1f77b4; stroke: #1f77b4"/>
     <use xlink:href="#mf26c9c30b6" x="247.916756" y="222.94605" style="fill: #1f77b4; stroke: #1f77b4"/>
     <use xlink:href="#mf26c9c30b6" x="249.548186" y="223.701321" style="fill: #1f77b4; stroke: #1f77b4"/>
     <use xlink:href="#mf26c9c30b6" x="251.179616" y="224.315843" style="fill: #1f77b4; stroke: #1f77b4"/>
     <use xlink:href="#mf26c9c30b6" x="252.811046" y="225.117557" style="fill: #1f77b4; stroke: #1f77b4"/>
     <use xlink:href="#mf26c9c30b6" x="254.442476" y="225.69965" style="fill: #1f77b4; stroke: #1f77b4"/>
     <use xlink:href="#mf26c9c30b6" x="256.073905" y="226.256412" style="fill: #1f77b4; stroke: #1f77b4"/>
     <use xlink:href="#mf26c9c30b6" x="257.705335" y="227.027087" style="fill: #1f77b4; stroke: #1f77b4"/>
     <use xlink:href="#mf26c9c30b6" x="259.336765" y="227.534328" style="fill: #1f77b4; stroke: #1f77b4"/>
     <use xlink:href="#mf26c9c30b6" x="260.968195" y="228.074219" style="fill: #1f77b4; stroke: #1f77b4"/>
     <use xlink:href="#mf26c9c30b6" x="262.599625" y="228.709749" style="fill: #1f77b4; stroke: #1f77b4"/>
     <use xlink:href="#mf26c9c30b6" x="264.231055" y="229.288253" style="fill: #1f77b4; stroke: #1f77b4"/>
     <use xlink:href="#mf26c9c30b6" x="265.862485" y="229.847103" style="fill: #1f77b4; stroke: #1f77b4"/>
     <use xlink:href="#mf26c9c30b6" x="267.493915" y="230.360598" style="fill: #1f77b4; stroke: #1f77b4"/>
     <use xlink:href="#mf26c9c30b6" x="269.125344" y="230.987495" style="fill: #1f77b4; stroke: #1f77b4"/>
     <use xlink:href="#mf26c9c30b6" x="270.756774" y="231.508173" style="fill: #1f77b4; stroke: #1f77b4"/>
     <use xlink:href="#mf26c9c30b6" x="272.388204" y="232.024242" style="fill: #1f77b4; stroke: #1f77b4"/>
     <use xlink:href="#mf26c9c30b6" x="274.019634" y="232.492914" style="fill: #1f77b4; stroke: #1f77b4"/>
     <use xlink:href="#mf26c9c30b6" x="275.651064" y="232.960529" style="fill: #1f77b4; stroke: #1f77b4"/>
     <use xlink:href="#mf26c9c30b6" x="277.282494" y="233.469797" style="fill: #1f77b4; stroke: #1f77b4"/>
     <use xlink:href="#mf26c9c30b6" x="278.913924" y="233.913643" style="fill: #1f77b4; stroke: #1f77b4"/>
     <use xlink:href="#mf26c9c30b6" x="280.545354" y="234.477497" style="fill: #1f77b4; stroke: #1f77b4"/>
     <use xlink:href="#mf26c9c30b6" x="282.176783" y="235.037698" style="fill: #1f77b4; stroke: #1f77b4"/>
     <use xlink:href="#mf26c9c30b6" x="283.808213" y="235.423838" style="fill: #1f77b4; stroke: #1f77b4"/>
     <use xlink:href="#mf26c9c30b6" x="285.439643" y="235.934139" style="fill: #1f77b4; stroke: #1f77b4"/>
     <use xlink:href="#mf26c9c30b6" x="287.071073" y="236.310071" style="fill: #1f77b4; stroke: #1f77b4"/>
     <use xlink:href="#mf26c9c30b6" x="288.702503" y="236.789099" style="fill: #1f77b4; stroke: #1f77b4"/>
     <use xlink:href="#mf26c9c30b6" x="290.333933" y="237.175149" style="fill: #1f77b4; stroke: #1f77b4"/>
     <use xlink:href="#mf26c9c30b6" x="291.965363" y="237.621987" style="fill: #1f77b4; stroke: #1f77b4"/>
     <use xlink:href="#mf26c9c30b6" x="293.596793" y="238.057476" style="fill: #1f77b4; stroke: #1f77b4"/>
     <use xlink:href="#mf26c9c30b6" x="295.228223" y="238.391395" style="fill: #1f77b4; stroke: #1f77b4"/>
     <use xlink:href="#mf26c9c30b6" x="296.859652" y="238.839891" style="fill: #1f77b4; stroke: #1f77b4"/>
     <use xlink:href="#mf26c9c30b6" x="298.491082" y="239.243032" style="fill: #1f77b4; stroke: #1f77b4"/>
     <use xlink:href="#mf26c9c30b6" x="300.122512" y="239.658712" style="fill: #1f77b4; stroke: #1f77b4"/>
     <use xlink:href="#mf26c9c30b6" x="301.753942" y="240.116311" style="fill: #1f77b4; stroke: #1f77b4"/>
     <use xlink:href="#mf26c9c30b6" x="303.385372" y="240.536254" style="fill: #1f77b4; stroke: #1f77b4"/>
     <use xlink:href="#mf26c9c30b6" x="305.016802" y="240.943969" style="fill: #1f77b4; stroke: #1f77b4"/>
     <use xlink:href="#mf26c9c30b6" x="306.648232" y="241.420839" style="fill: #1f77b4; stroke: #1f77b4"/>
     <use xlink:href="#mf26c9c30b6" x="308.279662" y="241.893131" style="fill: #1f77b4; stroke: #1f77b4"/>
     <use xlink:href="#mf26c9c30b6" x="309.911091" y="242.293494" style="fill: #1f77b4; stroke: #1f77b4"/>
     <use xlink:href="#mf26c9c30b6" x="311.542521" y="242.742796" style="fill: #1f77b4; stroke: #1f77b4"/>
     <use xlink:href="#mf26c9c30b6" x="313.173951" y="243.127391" style="fill: #1f77b4; stroke: #1f77b4"/>
     <use xlink:href="#mf26c9c30b6" x="314.805381" y="243.482013" style="fill: #1f77b4; stroke: #1f77b4"/>
     <use xlink:href="#mf26c9c30b6" x="316.436811" y="243.875426" style="fill: #1f77b4; stroke: #1f77b4"/>
     <use xlink:href="#mf26c9c30b6" x="318.068241" y="244.317467" style="fill: #1f77b4; stroke: #1f77b4"/>
     <use xlink:href="#mf26c9c30b6" x="319.699671" y="244.735796" style="fill: #1f77b4; stroke: #1f77b4"/>
     <use xlink:href="#mf26c9c30b6" x="321.331101" y="245.122621" style="fill: #1f77b4; stroke: #1f77b4"/>
     <use xlink:href="#mf26c9c30b6" x="322.96253" y="245.565504" style="fill: #1f77b4; stroke: #1f77b4"/>
     <use xlink:href="#mf26c9c30b6" x="324.59396" y="245.935585" style="fill: #1f77b4; stroke: #1f77b4"/>
     <use xlink:href="#mf26c9c30b6" x="326.22539" y="246.322021" style="fill: #1f77b4; stroke: #1f77b4"/>
     <use xlink:href="#mf26c9c30b6" x="327.85682" y="246.719219" style="fill: #1f77b4; stroke: #1f77b4"/>
     <use xlink:href="#mf26c9c30b6" x="329.48825" y="247.109574" style="fill: #1f77b4; stroke: #1f77b4"/>
     <use xlink:href="#mf26c9c30b6" x="331.11968" y="247.54033" style="fill: #1f77b4; stroke: #1f77b4"/>
     <use xlink:href="#mf26c9c30b6" x="332.75111" y="247.960007" style="fill: #1f77b4; stroke: #1f77b4"/>
     <use xlink:href="#mf26c9c30b6" x="334.38254" y="248.385404" style="fill: #1f77b4; stroke: #1f77b4"/>
     <use xlink:href="#mf26c9c30b6" x="336.013969" y="248.760288" style="fill: #1f77b4; stroke: #1f77b4"/>
     <use xlink:href="#mf26c9c30b6" x="337.645399" y="249.157695" style="fill: #1f77b4; stroke: #1f77b4"/>
     <use xlink:href="#mf26c9c30b6" x="339.276829" y="249.580799" style="fill: #1f77b4; stroke: #1f77b4"/>
     <use xlink:href="#mf26c9c30b6" x="340.908259" y="249.993045" style="fill: #1f77b4; stroke: #1f77b4"/>
     <use xlink:href="#mf26c9c30b6" x="342.539689" y="250.39583" style="fill: #1f77b4; stroke: #1f77b4"/>
     <use xlink:href="#mf26c9c30b6" x="344.171119" y="250.804115" style="fill: #1f77b4; stroke: #1f77b4"/>
     <use xlink:href="#mf26c9c30b6" x="345.802549" y="251.18726" style="fill: #1f77b4; stroke: #1f77b4"/>
     <use xlink:href="#mf26c9c30b6" x="347.433979" y="251.578984" style="fill: #1f77b4; stroke: #1f77b4"/>
     <use xlink:href="#mf26c9c30b6" x="349.065408" y="251.971829" style="fill: #1f77b4; stroke: #1f77b4"/>
     <use xlink:href="#mf26c9c30b6" x="350.696838" y="252.395783" style="fill: #1f77b4; stroke: #1f77b4"/>
     <use xlink:href="#mf26c9c30b6" x="352.328268" y="252.778789" style="fill: #1f77b4; stroke: #1f77b4"/>
     <use xlink:href="#mf26c9c30b6" x="353.959698" y="253.19362" style="fill: #1f77b4; stroke: #1f77b4"/>
     <use xlink:href="#mf26c9c30b6" x="355.591128" y="253.553944" style="fill: #1f77b4; stroke: #1f77b4"/>
     <use xlink:href="#mf26c9c30b6" x="357.222558" y="253.958076" style="fill: #1f77b4; stroke: #1f77b4"/>
     <use xlink:href="#mf26c9c30b6" x="358.853988" y="254.350165" style="fill: #1f77b4; stroke: #1f77b4"/>
     <use xlink:href="#mf26c9c30b6" x="360.485418" y="254.746512" style="fill: #1f77b4; stroke: #1f77b4"/>
     <use xlink:href="#mf26c9c30b6" x="362.116847" y="255.120664" style="fill: #1f77b4; stroke: #1f77b4"/>
     <use xlink:href="#mf26c9c30b6" x="363.748277" y="255.529004" style="fill: #1f77b4; stroke: #1f77b4"/>
     <use xlink:href="#mf26c9c30b6" x="365.379707" y="255.91465" style="fill: #1f77b4; stroke: #1f77b4"/>
     <use xlink:href="#mf26c9c30b6" x="367.011137" y="256.318477" style="fill: #1f77b4; stroke: #1f77b4"/>
     <use xlink:href="#mf26c9c30b6" x="368.642567" y="256.701829" style="fill: #1f77b4; stroke: #1f77b4"/>
     <use xlink:href="#mf26c9c30b6" x="370.273997" y="257.061717" style="fill: #1f77b4; stroke: #1f77b4"/>
     <use xlink:href="#mf26c9c30b6" x="371.905427" y="257.486259" style="fill: #1f77b4; stroke: #1f77b4"/>
     <use xlink:href="#mf26c9c30b6" x="373.536857" y="257.835941" style="fill: #1f77b4; stroke: #1f77b4"/>
     <use xlink:href="#mf26c9c30b6" x="375.168286" y="258.250187" style="fill: #1f77b4; stroke: #1f77b4"/>
     <use xlink:href="#mf26c9c30b6" x="376.799716" y="258.620631" style="fill: #1f77b4; stroke: #1f77b4"/>
     <use xlink:href="#mf26c9c30b6" x="378.431146" y="259.070333" style="fill: #1f77b4; stroke: #1f77b4"/>
     <use xlink:href="#mf26c9c30b6" x="380.062576" y="259.407448" style="fill: #1f77b4; stroke: #1f77b4"/>
     <use xlink:href="#mf26c9c30b6" x="381.694006" y="259.796096" style="fill: #1f77b4; stroke: #1f77b4"/>
     <use xlink:href="#mf26c9c30b6" x="383.325436" y="260.157766" style="fill: #1f77b4; stroke: #1f77b4"/>
     <use xlink:href="#mf26c9c30b6" x="384.956866" y="260.573822" style="fill: #1f77b4; stroke: #1f77b4"/>
     <use xlink:href="#mf26c9c30b6" x="386.588296" y="260.958856" style="fill: #1f77b4; stroke: #1f77b4"/>
     <use xlink:href="#mf26c9c30b6" x="388.219725" y="261.315304" style="fill: #1f77b4; stroke: #1f77b4"/>
     <use xlink:href="#mf26c9c30b6" x="389.851155" y="261.737436" style="fill: #1f77b4; stroke: #1f77b4"/>
     <use xlink:href="#mf26c9c30b6" x="391.482585" y="262.152434" style="fill: #1f77b4; stroke: #1f77b4"/>
    </g>
   </g>
   <g id="line2d_30">
    <path d="M 66.82804 193.040195 
L 94.451299 200.128523 
L 115.249989 205.686448 
L 131.173986 210.161937 
L 143.848187 213.947687 
L 153.922552 217.179068 
L 162.37202 220.120404 
L 169.19659 222.723331 
L 175.046222 225.187352 
L 179.920914 227.471213 
L 184.145648 229.68367 
L 187.720423 231.78294 
L 190.970218 233.930325 
L 193.895034 236.116629 
L 196.49487 238.320056 
L 199.094706 240.837328 
L 201.369563 243.366786 
L 203.31944 245.838449 
L 205.269317 248.653803 
L 207.219195 251.884802 
L 209.169072 255.612361 
L 211.118949 259.917852 
L 213.068826 264.863479 
L 215.018703 270.456628 
L 217.618539 278.732171 
L 221.843273 292.33125 
L 223.143191 295.839076 
L 224.11813 297.976209 
L 224.768089 299.047219 
L 225.418048 299.703308 
L 225.743027 299.816281 
L 226.068007 299.735848 
L 226.392987 299.404495 
L 226.717966 298.737573 
L 227.042946 297.606136 
L 227.367925 295.806506 
L 227.692905 293.005754 
L 228.017884 288.649389 
L 228.342864 281.849491 
L 228.667843 271.503464 
L 229.642782 231.192392 
L 229.967761 223.288279 
L 230.292741 218.144485 
L 230.9427 212.494351 
L 231.592659 209.882553 
L 232.242618 208.665791 
L 232.892577 208.170529 
L 233.542536 208.08179 
L 234.192495 208.235721 
L 235.167434 208.730152 
L 236.792331 209.895089 
L 245.891758 216.978687 
L 249.466533 219.30848 
L 253.366287 221.574343 
L 257.591021 223.771036 
L 262.465714 226.04993 
L 267.990366 228.384551 
L 274.489956 230.884391 
L 282.289465 233.632796 
L 291.388892 236.597474 
L 302.438195 239.959061 
L 316.087335 243.871942 
L 333.31125 248.566756 
L 355.084878 254.26127 
L 383.683077 261.498104 
L 391.482585 263.43995 
L 391.482585 263.43995 
" clip-path="url(#p5791a34f99)" style="fill: none; stroke: #d62728; stroke-width: 1.5; stroke-linecap: square"/>
   </g>
   <g id="patch_9">
    <path d="M 50.595313 307.872 
L 50.595313 186.912 
" style="fill: none; stroke: #000000; stroke-width: 0.8; stroke-linejoin: miter; stroke-linecap: square"/>
   </g>
   <g id="patch_10">
    <path d="M 407.715312 307.872 
L 407.715312 186.912 
" style="fill: none; stroke: #000000; stroke-width: 0.8; stroke-linejoin: miter; stroke-linecap: square"/>
   </g>
   <g id="patch_11">
    <path d="M 50.595312 307.872 
L 407.715312 307.872 
" style="fill: none; stroke: #000000; stroke-width: 0.8; stroke-linejoin: miter; stroke-linecap: square"/>
   </g>
   <g id="patch_12">
    <path d="M 50.595312 186.912 
L 407.715312 186.912 
" style="fill: none; stroke: #000000; stroke-width: 0.8; stroke-linejoin: miter; stroke-linecap: square"/>
   </g>
  </g>
  <g id="text_23">
   <!-- S21 One-tone -->
   <g transform="translate(182.144375 16.318125) scale(0.12 -0.12)">
    <defs>
     <path id="DejaVuSans-4f" d="M 2522 4238 
Q 1834 4238 1429 3725 
Q 1025 3213 1025 2328 
Q 1025 1447 1429 934 
Q 1834 422 2522 422 
Q 3209 422 3611 934 
Q 4013 1447 4013 2328 
Q 4013 3213 3611 3725 
Q 3209 4238 2522 4238 
z
M 2522 4750 
Q 3503 4750 4090 4092 
Q 4678 3434 4678 2328 
Q 4678 1225 4090 567 
Q 3503 -91 2522 -91 
Q 1538 -91 948 565 
Q 359 1222 359 2328 
Q 359 3434 948 4092 
Q 1538 4750 2522 4750 
z
" transform="scale(0.015625)"/>
     <path id="DejaVuSans-74" d="M 1172 4494 
L 1172 3500 
L 2356 3500 
L 2356 3053 
L 1172 3053 
L 1172 1153 
Q 1172 725 1289 603 
Q 1406 481 1766 481 
L 2356 481 
L 2356 0 
L 1766 0 
Q 1100 0 847 248 
Q 594 497 594 1153 
L 594 3053 
L 172 3053 
L 172 3500 
L 594 3500 
L 594 4494 
L 1172 4494 
z
" transform="scale(0.015625)"/>
     <path id="DejaVuSans-6f" d="M 1959 3097 
Q 1497 3097 1228 2736 
Q 959 2375 959 1747 
Q 959 1119 1226 758 
Q 1494 397 1959 397 
Q 2419 397 2687 759 
Q 2956 1122 2956 1747 
Q 2956 2369 2687 2733 
Q 2419 3097 1959 3097 
z
M 1959 3584 
Q 2709 3584 3137 3096 
Q 3566 2609 3566 1747 
Q 3566 888 3137 398 
Q 2709 -91 1959 -91 
Q 1206 -91 779 398 
Q 353 888 353 1747 
Q 353 2609 779 3096 
Q 1206 3584 1959 3584 
z
" transform="scale(0.015625)"/>
    </defs>
    <use xlink:href="#DejaVuSans-53"/>
    <use xlink:href="#DejaVuSans-32" x="63.476562"/>
    <use xlink:href="#DejaVuSans-31" x="127.099609"/>
    <use xlink:href="#DejaVuSans-20" x="190.722656"/>
    <use xlink:href="#DejaVuSans-4f" x="222.509766"/>
    <use xlink:href="#DejaVuSans-6e" x="301.220703"/>
    <use xlink:href="#DejaVuSans-65" x="364.599609"/>
    <use xlink:href="#DejaVuSans-2d" x="426.123047"/>
    <use xlink:href="#DejaVuSans-74" x="462.207031"/>
    <use xlink:href="#DejaVuSans-6f" x="501.416016"/>
    <use xlink:href="#DejaVuSans-6e" x="562.597656"/>
    <use xlink:href="#DejaVuSans-65" x="625.976562"/>
   </g>
   <!-- tuid: 20240304-113132-624-8b63a7 -->
   <g transform="translate(113.689063 29.7555) scale(0.12 -0.12)">
    <defs>
     <path id="DejaVuSans-69" d="M 603 3500 
L 1178 3500 
L 1178 0 
L 603 0 
L 603 3500 
z
M 603 4863 
L 1178 4863 
L 1178 4134 
L 603 4134 
L 603 4863 
z
" transform="scale(0.015625)"/>
     <path id="DejaVuSans-62" d="M 3116 1747 
Q 3116 2381 2855 2742 
Q 2594 3103 2138 3103 
Q 1681 3103 1420 2742 
Q 1159 2381 1159 1747 
Q 1159 1113 1420 752 
Q 1681 391 2138 391 
Q 2594 391 2855 752 
Q 3116 1113 3116 1747 
z
M 1159 2969 
Q 1341 3281 1617 3432 
Q 1894 3584 2278 3584 
Q 2916 3584 3314 3078 
Q 3713 2572 3713 1747 
Q 3713 922 3314 415 
Q 2916 -91 2278 -91 
Q 1894 -91 1617 61 
Q 1341 213 1159 525 
L 1159 0 
L 581 0 
L 581 4863 
L 1159 4863 
L 1159 2969 
z
" transform="scale(0.015625)"/>
    </defs>
    <use xlink:href="#DejaVuSans-74"/>
    <use xlink:href="#DejaVuSans-75" x="39.208984"/>
    <use xlink:href="#DejaVuSans-69" x="102.587891"/>
    <use xlink:href="#DejaVuSans-64" x="130.371094"/>
    <use xlink:href="#DejaVuSans-3a" x="193.847656"/>
    <use xlink:href="#DejaVuSans-20" x="227.539062"/>
    <use xlink:href="#DejaVuSans-32" x="259.326172"/>
    <use xlink:href="#DejaVuSans-30" x="322.949219"/>
    <use xlink:href="#DejaVuSans-32" x="386.572266"/>
    <use xlink:href="#DejaVuSans-34" x="450.195312"/>
    <use xlink:href="#DejaVuSans-30" x="513.818359"/>
    <use xlink:href="#DejaVuSans-33" x="577.441406"/>
    <use xlink:href="#DejaVuSans-30" x="641.064453"/>
    <use xlink:href="#DejaVuSans-34" x="704.6875"/>
    <use xlink:href="#DejaVuSans-2d" x="768.310547"/>
    <use xlink:href="#DejaVuSans-31" x="804.394531"/>
    <use xlink:href="#DejaVuSans-31" x="868.017578"/>
    <use xlink:href="#DejaVuSans-33" x="931.640625"/>
    <use xlink:href="#DejaVuSans-31" x="995.263672"/>
    <use xlink:href="#DejaVuSans-33" x="1058.886719"/>
    <use xlink:href="#DejaVuSans-32" x="1122.509766"/>
    <use xlink:href="#DejaVuSans-2d" x="1186.132812"/>
    <use xlink:href="#DejaVuSans-36" x="1222.216797"/>
    <use xlink:href="#DejaVuSans-32" x="1285.839844"/>
    <use xlink:href="#DejaVuSans-34" x="1349.462891"/>
    <use xlink:href="#DejaVuSans-2d" x="1413.085938"/>
    <use xlink:href="#DejaVuSans-38" x="1449.169922"/>
    <use xlink:href="#DejaVuSans-62" x="1512.792969"/>
    <use xlink:href="#DejaVuSans-36" x="1576.269531"/>
    <use xlink:href="#DejaVuSans-33" x="1639.892578"/>
    <use xlink:href="#DejaVuSans-61" x="1703.515625"/>
    <use xlink:href="#DejaVuSans-37" x="1764.794922"/>
   </g>
  </g>
 </g>
 <defs>
  <clipPath id="p7489758630">
   <rect x="50.595313" y="41.76" width="357.12" height="120.96"/>
  </clipPath>
  <clipPath id="p5791a34f99">
   <rect x="50.595313" y="186.912" width="357.12" height="120.96"/>
  </clipPath>
 </defs>
</svg>
