<?xml version="1.0" encoding="utf-8" standalone="no"?>
<!DOCTYPE svg PUBLIC "-//W3C//DTD SVG 1.1//EN"
  "http://www.w3.org/Graphics/SVG/1.1/DTD/svg11.dtd">
<svg xmlns:xlink="http://www.w3.org/1999/xlink" width="578.571312pt" height="345.42825pt" viewBox="0 0 578.571312 345.42825" xmlns="http://www.w3.org/2000/svg" version="1.1">
 <metadata>
  <rdf:RDF xmlns:dc="http://purl.org/dc/elements/1.1/" xmlns:cc="http://creativecommons.org/ns#" xmlns:rdf="http://www.w3.org/1999/02/22-rdf-syntax-ns#">
   <cc:Work>
    <dc:type rdf:resource="http://purl.org/dc/dcmitype/StillImage"/>
    <dc:date>2024-01-05T14:36:52.258871</dc:date>
    <dc:format>image/svg+xml</dc:format>
    <dc:creator>
     <cc:Agent>
      <dc:title>Matplotlib v3.8.1, https://matplotlib.org/</dc:title>
     </cc:Agent>
    </dc:creator>
   </cc:Work>
  </rdf:RDF>
 </metadata>
 <defs>
  <style type="text/css">*{stroke-linejoin: round; stroke-linecap: butt}</style>
 </defs>
 <g id="figure_1">
  <g id="patch_1">
   <path d="M 0 345.42825 
L 578.571312 345.42825 
L 578.571312 -0 
L 0 -0 
L 0 345.42825 
z
" style="fill: none; opacity: 0"/>
  </g>
  <g id="axes_1">
   <g id="patch_2">
    <path d="M 50.595313 162.72 
L 407.715312 162.72 
L 407.715312 41.76 
L 50.595313 41.76 
z
" style="fill: #ffffff"/>
   </g>
   <g id="matplotlib.axis_1">
    <g id="xtick_1">
     <g id="line2d_1">
      <defs>
       <path id="m8f9282d2c8" d="M 0 0 
L 0 3.5 
" style="stroke: #000000; stroke-width: 0.8"/>
      </defs>
      <g>
       <use xlink:href="#m8f9282d2c8" x="83.060767" y="162.72" style="stroke: #000000; stroke-width: 0.8"/>
      </g>
     </g>
    </g>
    <g id="xtick_2">
     <g id="line2d_2">
      <g>
       <use xlink:href="#m8f9282d2c8" x="147.991676" y="162.72" style="stroke: #000000; stroke-width: 0.8"/>
      </g>
     </g>
    </g>
    <g id="xtick_3">
     <g id="line2d_3">
      <g>
       <use xlink:href="#m8f9282d2c8" x="212.922585" y="162.72" style="stroke: #000000; stroke-width: 0.8"/>
      </g>
     </g>
    </g>
    <g id="xtick_4">
     <g id="line2d_4">
      <g>
       <use xlink:href="#m8f9282d2c8" x="277.853494" y="162.72" style="stroke: #000000; stroke-width: 0.8"/>
      </g>
     </g>
    </g>
    <g id="xtick_5">
     <g id="line2d_5">
      <g>
       <use xlink:href="#m8f9282d2c8" x="342.784403" y="162.72" style="stroke: #000000; stroke-width: 0.8"/>
      </g>
     </g>
    </g>
    <g id="xtick_6">
     <g id="line2d_6">
      <g>
       <use xlink:href="#m8f9282d2c8" x="407.715312" y="162.72" style="stroke: #000000; stroke-width: 0.8"/>
      </g>
     </g>
    </g>
   </g>
   <g id="matplotlib.axis_2">
    <g id="ytick_1">
     <g id="line2d_7">
      <defs>
       <path id="mff6d84cd9b" d="M 0 0 
L -3.5 0 
" style="stroke: #000000; stroke-width: 0.8"/>
      </defs>
      <g>
       <use xlink:href="#mff6d84cd9b" x="50.595313" y="149.764185" style="stroke: #000000; stroke-width: 0.8"/>
      </g>
     </g>
     <g id="text_1">
      <!-- 20 -->
      <g transform="translate(30.870313 153.563404) scale(0.1 -0.1)">
       <defs>
        <path id="DejaVuSans-32" d="M 1228 531 
L 3431 531 
L 3431 0 
L 469 0 
L 469 531 
Q 828 903 1448 1529 
Q 2069 2156 2228 2338 
Q 2531 2678 2651 2914 
Q 2772 3150 2772 3378 
Q 2772 3750 2511 3984 
Q 2250 4219 1831 4219 
Q 1534 4219 1204 4116 
Q 875 4013 500 3803 
L 500 4441 
Q 881 4594 1212 4672 
Q 1544 4750 1819 4750 
Q 2544 4750 2975 4387 
Q 3406 4025 3406 3419 
Q 3406 3131 3298 2873 
Q 3191 2616 2906 2266 
Q 2828 2175 2409 1742 
Q 1991 1309 1228 531 
z
" transform="scale(0.015625)"/>
        <path id="DejaVuSans-30" d="M 2034 4250 
Q 1547 4250 1301 3770 
Q 1056 3291 1056 2328 
Q 1056 1369 1301 889 
Q 1547 409 2034 409 
Q 2525 409 2770 889 
Q 3016 1369 3016 2328 
Q 3016 3291 2770 3770 
Q 2525 4250 2034 4250 
z
M 2034 4750 
Q 2819 4750 3233 4129 
Q 3647 3509 3647 2328 
Q 3647 1150 3233 529 
Q 2819 -91 2034 -91 
Q 1250 -91 836 529 
Q 422 1150 422 2328 
Q 422 3509 836 4129 
Q 1250 4750 2034 4750 
z
" transform="scale(0.015625)"/>
       </defs>
       <use xlink:href="#DejaVuSans-32"/>
       <use xlink:href="#DejaVuSans-30" x="63.623047"/>
      </g>
     </g>
    </g>
    <g id="ytick_2">
     <g id="line2d_8">
      <g>
       <use xlink:href="#mff6d84cd9b" x="50.595313" y="126.503179" style="stroke: #000000; stroke-width: 0.8"/>
      </g>
     </g>
     <g id="text_2">
      <!-- 40 -->
      <g transform="translate(30.870313 130.302398) scale(0.1 -0.1)">
       <defs>
        <path id="DejaVuSans-34" d="M 2419 4116 
L 825 1625 
L 2419 1625 
L 2419 4116 
z
M 2253 4666 
L 3047 4666 
L 3047 1625 
L 3713 1625 
L 3713 1100 
L 3047 1100 
L 3047 0 
L 2419 0 
L 2419 1100 
L 313 1100 
L 313 1709 
L 2253 4666 
z
" transform="scale(0.015625)"/>
       </defs>
       <use xlink:href="#DejaVuSans-34"/>
       <use xlink:href="#DejaVuSans-30" x="63.623047"/>
      </g>
     </g>
    </g>
    <g id="ytick_3">
     <g id="line2d_9">
      <g>
       <use xlink:href="#mff6d84cd9b" x="50.595313" y="103.242174" style="stroke: #000000; stroke-width: 0.8"/>
      </g>
     </g>
     <g id="text_3">
      <!-- 60 -->
      <g transform="translate(30.870313 107.041393) scale(0.1 -0.1)">
       <defs>
        <path id="DejaVuSans-36" d="M 2113 2584 
Q 1688 2584 1439 2293 
Q 1191 2003 1191 1497 
Q 1191 994 1439 701 
Q 1688 409 2113 409 
Q 2538 409 2786 701 
Q 3034 994 3034 1497 
Q 3034 2003 2786 2293 
Q 2538 2584 2113 2584 
z
M 3366 4563 
L 3366 3988 
Q 3128 4100 2886 4159 
Q 2644 4219 2406 4219 
Q 1781 4219 1451 3797 
Q 1122 3375 1075 2522 
Q 1259 2794 1537 2939 
Q 1816 3084 2150 3084 
Q 2853 3084 3261 2657 
Q 3669 2231 3669 1497 
Q 3669 778 3244 343 
Q 2819 -91 2113 -91 
Q 1303 -91 875 529 
Q 447 1150 447 2328 
Q 447 3434 972 4092 
Q 1497 4750 2381 4750 
Q 2619 4750 2861 4703 
Q 3103 4656 3366 4563 
z
" transform="scale(0.015625)"/>
       </defs>
       <use xlink:href="#DejaVuSans-36"/>
       <use xlink:href="#DejaVuSans-30" x="63.623047"/>
      </g>
     </g>
    </g>
    <g id="ytick_4">
     <g id="line2d_10">
      <g>
       <use xlink:href="#mff6d84cd9b" x="50.595313" y="79.981169" style="stroke: #000000; stroke-width: 0.8"/>
      </g>
     </g>
     <g id="text_4">
      <!-- 80 -->
      <g transform="translate(30.870313 83.780388) scale(0.1 -0.1)">
       <defs>
        <path id="DejaVuSans-38" d="M 2034 2216 
Q 1584 2216 1326 1975 
Q 1069 1734 1069 1313 
Q 1069 891 1326 650 
Q 1584 409 2034 409 
Q 2484 409 2743 651 
Q 3003 894 3003 1313 
Q 3003 1734 2745 1975 
Q 2488 2216 2034 2216 
z
M 1403 2484 
Q 997 2584 770 2862 
Q 544 3141 544 3541 
Q 544 4100 942 4425 
Q 1341 4750 2034 4750 
Q 2731 4750 3128 4425 
Q 3525 4100 3525 3541 
Q 3525 3141 3298 2862 
Q 3072 2584 2669 2484 
Q 3125 2378 3379 2068 
Q 3634 1759 3634 1313 
Q 3634 634 3220 271 
Q 2806 -91 2034 -91 
Q 1263 -91 848 271 
Q 434 634 434 1313 
Q 434 1759 690 2068 
Q 947 2378 1403 2484 
z
M 1172 3481 
Q 1172 3119 1398 2916 
Q 1625 2713 2034 2713 
Q 2441 2713 2670 2916 
Q 2900 3119 2900 3481 
Q 2900 3844 2670 4047 
Q 2441 4250 2034 4250 
Q 1625 4250 1398 4047 
Q 1172 3844 1172 3481 
z
" transform="scale(0.015625)"/>
       </defs>
       <use xlink:href="#DejaVuSans-38"/>
       <use xlink:href="#DejaVuSans-30" x="63.623047"/>
      </g>
     </g>
    </g>
    <g id="ytick_5">
     <g id="line2d_11">
      <g>
       <use xlink:href="#mff6d84cd9b" x="50.595313" y="56.720163" style="stroke: #000000; stroke-width: 0.8"/>
      </g>
     </g>
     <g id="text_5">
      <!-- 100 -->
      <g transform="translate(24.507813 60.519382) scale(0.1 -0.1)">
       <defs>
        <path id="DejaVuSans-31" d="M 794 531 
L 1825 531 
L 1825 4091 
L 703 3866 
L 703 4441 
L 1819 4666 
L 2450 4666 
L 2450 531 
L 3481 531 
L 3481 0 
L 794 0 
L 794 531 
z
" transform="scale(0.015625)"/>
       </defs>
       <use xlink:href="#DejaVuSans-31"/>
       <use xlink:href="#DejaVuSans-30" x="63.623047"/>
       <use xlink:href="#DejaVuSans-30" x="127.246094"/>
      </g>
     </g>
    </g>
    <g id="text_6">
     <!-- $|S_{21}|$ [mV] -->
     <g transform="translate(18.107813 127.19) rotate(-90) scale(0.1 -0.1)">
      <defs>
       <path id="DejaVuSans-7c" d="M 1344 4891 
L 1344 -1509 
L 813 -1509 
L 813 4891 
L 1344 4891 
z
" transform="scale(0.015625)"/>
       <path id="DejaVuSans-Oblique-53" d="M 3859 4513 
L 3738 3897 
Q 3422 4066 3111 4152 
Q 2800 4238 2509 4238 
Q 1944 4238 1609 3991 
Q 1275 3744 1275 3334 
Q 1275 3109 1398 2989 
Q 1522 2869 2034 2731 
L 2413 2638 
Q 3053 2472 3303 2217 
Q 3553 1963 3553 1503 
Q 3553 797 2998 353 
Q 2444 -91 1538 -91 
Q 1166 -91 791 -17 
Q 416 56 38 206 
L 166 856 
Q 513 641 861 531 
Q 1209 422 1556 422 
Q 2147 422 2503 684 
Q 2859 947 2859 1369 
Q 2859 1650 2717 1795 
Q 2575 1941 2106 2059 
L 1728 2156 
Q 1081 2325 845 2545 
Q 609 2766 609 3163 
Q 609 3859 1145 4304 
Q 1681 4750 2541 4750 
Q 2875 4750 3203 4690 
Q 3531 4631 3859 4513 
z
" transform="scale(0.015625)"/>
       <path id="DejaVuSans-20" transform="scale(0.015625)"/>
       <path id="DejaVuSans-5b" d="M 550 4863 
L 1875 4863 
L 1875 4416 
L 1125 4416 
L 1125 -397 
L 1875 -397 
L 1875 -844 
L 550 -844 
L 550 4863 
z
" transform="scale(0.015625)"/>
       <path id="DejaVuSans-6d" d="M 3328 2828 
Q 3544 3216 3844 3400 
Q 4144 3584 4550 3584 
Q 5097 3584 5394 3201 
Q 5691 2819 5691 2113 
L 5691 0 
L 5113 0 
L 5113 2094 
Q 5113 2597 4934 2840 
Q 4756 3084 4391 3084 
Q 3944 3084 3684 2787 
Q 3425 2491 3425 1978 
L 3425 0 
L 2847 0 
L 2847 2094 
Q 2847 2600 2669 2842 
Q 2491 3084 2119 3084 
Q 1678 3084 1418 2786 
Q 1159 2488 1159 1978 
L 1159 0 
L 581 0 
L 581 3500 
L 1159 3500 
L 1159 2956 
Q 1356 3278 1631 3431 
Q 1906 3584 2284 3584 
Q 2666 3584 2933 3390 
Q 3200 3197 3328 2828 
z
" transform="scale(0.015625)"/>
       <path id="DejaVuSans-56" d="M 1831 0 
L 50 4666 
L 709 4666 
L 2188 738 
L 3669 4666 
L 4325 4666 
L 2547 0 
L 1831 0 
z
" transform="scale(0.015625)"/>
       <path id="DejaVuSans-5d" d="M 1947 4863 
L 1947 -844 
L 622 -844 
L 622 -397 
L 1369 -397 
L 1369 4416 
L 622 4416 
L 622 4863 
L 1947 4863 
z
" transform="scale(0.015625)"/>
      </defs>
      <use xlink:href="#DejaVuSans-7c" transform="translate(0 0.578125)"/>
      <use xlink:href="#DejaVuSans-Oblique-53" transform="translate(33.691406 0.578125)"/>
      <use xlink:href="#DejaVuSans-32" transform="translate(97.167969 -15.828125) scale(0.7)"/>
      <use xlink:href="#DejaVuSans-31" transform="translate(141.704102 -15.828125) scale(0.7)"/>
      <use xlink:href="#DejaVuSans-7c" transform="translate(188.974609 0.578125)"/>
      <use xlink:href="#DejaVuSans-20" transform="translate(222.666016 0.578125)"/>
      <use xlink:href="#DejaVuSans-5b" transform="translate(254.453125 0.578125)"/>
      <use xlink:href="#DejaVuSans-6d" transform="translate(293.466797 0.578125)"/>
      <use xlink:href="#DejaVuSans-56" transform="translate(390.878906 0.578125)"/>
      <use xlink:href="#DejaVuSans-5d" transform="translate(459.287109 0.578125)"/>
     </g>
    </g>
   </g>
   <g id="line2d_12">
    <path d="M 66.82804 47.973658 
L 68.45947 47.945861 
L 70.0909 48.051499 
L 71.722329 47.950876 
L 76.616619 48.103126 
L 78.248049 47.960938 
L 81.510909 48.066236 
L 86.405198 48.043597 
L 97.825207 48.97654 
L 102.719497 49.752657 
L 104.350927 49.797855 
L 105.982357 49.970978 
L 107.613787 50.393246 
L 109.245217 50.628922 
L 110.876646 51.058586 
L 112.508076 51.165314 
L 114.139506 51.765521 
L 115.770936 51.921238 
L 117.402366 52.340494 
L 119.033796 52.51663 
L 122.296656 53.398079 
L 123.928085 53.781706 
L 125.559515 54.433262 
L 127.190945 54.840673 
L 128.822375 55.388601 
L 130.453805 56.125428 
L 132.085235 56.69706 
L 133.716665 57.386644 
L 135.348095 58.235701 
L 136.979524 59.297129 
L 138.610954 59.864838 
L 140.242384 60.798614 
L 141.873814 61.555223 
L 143.505244 62.962243 
L 145.136674 63.878501 
L 146.768104 64.965469 
L 148.399534 66.318938 
L 153.293823 71.195555 
L 158.188113 76.918445 
L 159.819543 79.289203 
L 164.713832 87.567513 
L 167.976692 94.04784 
L 171.239552 101.284966 
L 174.502412 110.273635 
L 176.133842 114.527718 
L 177.765271 119.175047 
L 179.396701 124.497576 
L 182.659561 133.869781 
L 184.290991 139.434912 
L 185.922421 144.139463 
L 189.185281 152.668314 
L 190.81671 155.376407 
L 192.44814 156.644957 
L 194.07957 155.978362 
L 195.711 153.720137 
L 197.34243 150.561272 
L 198.97386 146.559 
L 202.23672 137.661877 
L 205.499579 129.379858 
L 207.131009 125.793476 
L 210.393869 117.994737 
L 213.656729 110.916896 
L 215.288159 107.814061 
L 216.919588 105.094642 
L 218.551018 102.035805 
L 220.182448 99.844843 
L 226.708168 90.298928 
L 231.602457 84.66255 
L 234.865317 82.298229 
L 236.496747 80.81318 
L 238.128177 79.780208 
L 239.759607 78.979566 
L 243.022466 76.213983 
L 244.653896 75.598313 
L 247.916756 73.793939 
L 249.548186 72.714335 
L 251.179616 71.969338 
L 252.811046 71.391341 
L 256.073905 69.743242 
L 257.705335 69.226705 
L 259.336765 68.41845 
L 260.968195 68.050704 
L 264.231055 66.759347 
L 265.862485 66.472819 
L 267.493915 65.828132 
L 269.125344 65.376803 
L 270.756774 65.088953 
L 272.388204 64.263261 
L 274.019634 64.34545 
L 278.913924 62.862394 
L 280.545354 62.4871 
L 283.808213 61.991098 
L 285.439643 61.558857 
L 287.071073 61.271522 
L 288.702503 61.121823 
L 290.333933 60.82331 
L 291.965363 60.906462 
L 295.228223 60.126294 
L 296.859652 59.962871 
L 303.385372 58.876154 
L 305.016802 58.683112 
L 306.648232 58.322944 
L 308.279662 58.568212 
L 311.542521 58.056481 
L 313.173951 58.011599 
L 314.805381 57.782747 
L 318.068241 57.659323 
L 319.699671 57.72373 
L 322.96253 57.334727 
L 324.59396 57.023109 
L 326.22539 57.122246 
L 329.48825 57.046152 
L 331.11968 57.071945 
L 332.75111 56.966599 
L 334.38254 56.686086 
L 339.276829 56.53318 
L 342.539689 56.364552 
L 344.171119 56.114865 
L 345.802549 56.10616 
L 347.433979 55.90702 
L 352.328268 55.727161 
L 353.959698 55.511605 
L 378.431146 54.384548 
L 380.062576 54.427417 
L 388.219725 54.108183 
L 391.482585 54.120268 
L 391.482585 54.120268 
" clip-path="url(#pbc51cf5f5d)" style="fill: none; stroke: #1f77b4; stroke-width: 1.5; stroke-linecap: square"/>
    <defs>
     <path id="m0d8d366668" d="M 0 1.5 
C 0.397805 1.5 0.77937 1.341951 1.06066 1.06066 
C 1.341951 0.77937 1.5 0.397805 1.5 0 
C 1.5 -0.397805 1.341951 -0.77937 1.06066 -1.06066 
C 0.77937 -1.341951 0.397805 -1.5 0 -1.5 
C -0.397805 -1.5 -0.77937 -1.341951 -1.06066 -1.06066 
C -1.341951 -0.77937 -1.5 -0.397805 -1.5 0 
C -1.5 0.397805 -1.341951 0.77937 -1.06066 1.06066 
C -0.77937 1.341951 -0.397805 1.5 0 1.5 
z
" style="stroke: #1f77b4"/>
    </defs>
    <g clip-path="url(#pbc51cf5f5d)">
     <use xlink:href="#m0d8d366668" x="66.82804" y="47.973658" style="fill: #1f77b4; stroke: #1f77b4"/>
     <use xlink:href="#m0d8d366668" x="68.45947" y="47.945861" style="fill: #1f77b4; stroke: #1f77b4"/>
     <use xlink:href="#m0d8d366668" x="70.0909" y="48.051499" style="fill: #1f77b4; stroke: #1f77b4"/>
     <use xlink:href="#m0d8d366668" x="71.722329" y="47.950876" style="fill: #1f77b4; stroke: #1f77b4"/>
     <use xlink:href="#m0d8d366668" x="73.353759" y="47.993952" style="fill: #1f77b4; stroke: #1f77b4"/>
     <use xlink:href="#m0d8d366668" x="74.985189" y="48.012471" style="fill: #1f77b4; stroke: #1f77b4"/>
     <use xlink:href="#m0d8d366668" x="76.616619" y="48.103126" style="fill: #1f77b4; stroke: #1f77b4"/>
     <use xlink:href="#m0d8d366668" x="78.248049" y="47.960938" style="fill: #1f77b4; stroke: #1f77b4"/>
     <use xlink:href="#m0d8d366668" x="79.879479" y="48.059519" style="fill: #1f77b4; stroke: #1f77b4"/>
     <use xlink:href="#m0d8d366668" x="81.510909" y="48.066236" style="fill: #1f77b4; stroke: #1f77b4"/>
     <use xlink:href="#m0d8d366668" x="83.142339" y="48.047715" style="fill: #1f77b4; stroke: #1f77b4"/>
     <use xlink:href="#m0d8d366668" x="84.773768" y="48.085194" style="fill: #1f77b4; stroke: #1f77b4"/>
     <use xlink:href="#m0d8d366668" x="86.405198" y="48.043597" style="fill: #1f77b4; stroke: #1f77b4"/>
     <use xlink:href="#m0d8d366668" x="88.036628" y="48.165205" style="fill: #1f77b4; stroke: #1f77b4"/>
     <use xlink:href="#m0d8d366668" x="89.668058" y="48.285045" style="fill: #1f77b4; stroke: #1f77b4"/>
     <use xlink:href="#m0d8d366668" x="91.299488" y="48.343115" style="fill: #1f77b4; stroke: #1f77b4"/>
     <use xlink:href="#m0d8d366668" x="92.930918" y="48.636349" style="fill: #1f77b4; stroke: #1f77b4"/>
     <use xlink:href="#m0d8d366668" x="94.562348" y="48.639132" style="fill: #1f77b4; stroke: #1f77b4"/>
     <use xlink:href="#m0d8d366668" x="96.193778" y="48.796017" style="fill: #1f77b4; stroke: #1f77b4"/>
     <use xlink:href="#m0d8d366668" x="97.825207" y="48.97654" style="fill: #1f77b4; stroke: #1f77b4"/>
     <use xlink:href="#m0d8d366668" x="99.456637" y="49.243982" style="fill: #1f77b4; stroke: #1f77b4"/>
     <use xlink:href="#m0d8d366668" x="101.088067" y="49.414205" style="fill: #1f77b4; stroke: #1f77b4"/>
     <use xlink:href="#m0d8d366668" x="102.719497" y="49.752657" style="fill: #1f77b4; stroke: #1f77b4"/>
     <use xlink:href="#m0d8d366668" x="104.350927" y="49.797855" style="fill: #1f77b4; stroke: #1f77b4"/>
     <use xlink:href="#m0d8d366668" x="105.982357" y="49.970978" style="fill: #1f77b4; stroke: #1f77b4"/>
     <use xlink:href="#m0d8d366668" x="107.613787" y="50.393246" style="fill: #1f77b4; stroke: #1f77b4"/>
     <use xlink:href="#m0d8d366668" x="109.245217" y="50.628922" style="fill: #1f77b4; stroke: #1f77b4"/>
     <use xlink:href="#m0d8d366668" x="110.876646" y="51.058586" style="fill: #1f77b4; stroke: #1f77b4"/>
     <use xlink:href="#m0d8d366668" x="112.508076" y="51.165314" style="fill: #1f77b4; stroke: #1f77b4"/>
     <use xlink:href="#m0d8d366668" x="114.139506" y="51.765521" style="fill: #1f77b4; stroke: #1f77b4"/>
     <use xlink:href="#m0d8d366668" x="115.770936" y="51.921238" style="fill: #1f77b4; stroke: #1f77b4"/>
     <use xlink:href="#m0d8d366668" x="117.402366" y="52.340494" style="fill: #1f77b4; stroke: #1f77b4"/>
     <use xlink:href="#m0d8d366668" x="119.033796" y="52.51663" style="fill: #1f77b4; stroke: #1f77b4"/>
     <use xlink:href="#m0d8d366668" x="120.665226" y="52.999931" style="fill: #1f77b4; stroke: #1f77b4"/>
     <use xlink:href="#m0d8d366668" x="122.296656" y="53.398079" style="fill: #1f77b4; stroke: #1f77b4"/>
     <use xlink:href="#m0d8d366668" x="123.928085" y="53.781706" style="fill: #1f77b4; stroke: #1f77b4"/>
     <use xlink:href="#m0d8d366668" x="125.559515" y="54.433262" style="fill: #1f77b4; stroke: #1f77b4"/>
     <use xlink:href="#m0d8d366668" x="127.190945" y="54.840673" style="fill: #1f77b4; stroke: #1f77b4"/>
     <use xlink:href="#m0d8d366668" x="128.822375" y="55.388601" style="fill: #1f77b4; stroke: #1f77b4"/>
     <use xlink:href="#m0d8d366668" x="130.453805" y="56.125428" style="fill: #1f77b4; stroke: #1f77b4"/>
     <use xlink:href="#m0d8d366668" x="132.085235" y="56.69706" style="fill: #1f77b4; stroke: #1f77b4"/>
     <use xlink:href="#m0d8d366668" x="133.716665" y="57.386644" style="fill: #1f77b4; stroke: #1f77b4"/>
     <use xlink:href="#m0d8d366668" x="135.348095" y="58.235701" style="fill: #1f77b4; stroke: #1f77b4"/>
     <use xlink:href="#m0d8d366668" x="136.979524" y="59.297129" style="fill: #1f77b4; stroke: #1f77b4"/>
     <use xlink:href="#m0d8d366668" x="138.610954" y="59.864838" style="fill: #1f77b4; stroke: #1f77b4"/>
     <use xlink:href="#m0d8d366668" x="140.242384" y="60.798614" style="fill: #1f77b4; stroke: #1f77b4"/>
     <use xlink:href="#m0d8d366668" x="141.873814" y="61.555223" style="fill: #1f77b4; stroke: #1f77b4"/>
     <use xlink:href="#m0d8d366668" x="143.505244" y="62.962243" style="fill: #1f77b4; stroke: #1f77b4"/>
     <use xlink:href="#m0d8d366668" x="145.136674" y="63.878501" style="fill: #1f77b4; stroke: #1f77b4"/>
     <use xlink:href="#m0d8d366668" x="146.768104" y="64.965469" style="fill: #1f77b4; stroke: #1f77b4"/>
     <use xlink:href="#m0d8d366668" x="148.399534" y="66.318938" style="fill: #1f77b4; stroke: #1f77b4"/>
     <use xlink:href="#m0d8d366668" x="150.030963" y="67.941092" style="fill: #1f77b4; stroke: #1f77b4"/>
     <use xlink:href="#m0d8d366668" x="151.662393" y="69.606919" style="fill: #1f77b4; stroke: #1f77b4"/>
     <use xlink:href="#m0d8d366668" x="153.293823" y="71.195555" style="fill: #1f77b4; stroke: #1f77b4"/>
     <use xlink:href="#m0d8d366668" x="154.925253" y="73.114222" style="fill: #1f77b4; stroke: #1f77b4"/>
     <use xlink:href="#m0d8d366668" x="156.556683" y="74.901833" style="fill: #1f77b4; stroke: #1f77b4"/>
     <use xlink:href="#m0d8d366668" x="158.188113" y="76.918445" style="fill: #1f77b4; stroke: #1f77b4"/>
     <use xlink:href="#m0d8d366668" x="159.819543" y="79.289203" style="fill: #1f77b4; stroke: #1f77b4"/>
     <use xlink:href="#m0d8d366668" x="161.450973" y="82.093224" style="fill: #1f77b4; stroke: #1f77b4"/>
     <use xlink:href="#m0d8d366668" x="163.082402" y="85.018412" style="fill: #1f77b4; stroke: #1f77b4"/>
     <use xlink:href="#m0d8d366668" x="164.713832" y="87.567513" style="fill: #1f77b4; stroke: #1f77b4"/>
     <use xlink:href="#m0d8d366668" x="166.345262" y="90.775582" style="fill: #1f77b4; stroke: #1f77b4"/>
     <use xlink:href="#m0d8d366668" x="167.976692" y="94.04784" style="fill: #1f77b4; stroke: #1f77b4"/>
     <use xlink:href="#m0d8d366668" x="169.608122" y="97.756167" style="fill: #1f77b4; stroke: #1f77b4"/>
     <use xlink:href="#m0d8d366668" x="171.239552" y="101.284966" style="fill: #1f77b4; stroke: #1f77b4"/>
     <use xlink:href="#m0d8d366668" x="172.870982" y="105.843957" style="fill: #1f77b4; stroke: #1f77b4"/>
     <use xlink:href="#m0d8d366668" x="174.502412" y="110.273635" style="fill: #1f77b4; stroke: #1f77b4"/>
     <use xlink:href="#m0d8d366668" x="176.133842" y="114.527718" style="fill: #1f77b4; stroke: #1f77b4"/>
     <use xlink:href="#m0d8d366668" x="177.765271" y="119.175047" style="fill: #1f77b4; stroke: #1f77b4"/>
     <use xlink:href="#m0d8d366668" x="179.396701" y="124.497576" style="fill: #1f77b4; stroke: #1f77b4"/>
     <use xlink:href="#m0d8d366668" x="181.028131" y="129.336609" style="fill: #1f77b4; stroke: #1f77b4"/>
     <use xlink:href="#m0d8d366668" x="182.659561" y="133.869781" style="fill: #1f77b4; stroke: #1f77b4"/>
     <use xlink:href="#m0d8d366668" x="184.290991" y="139.434912" style="fill: #1f77b4; stroke: #1f77b4"/>
     <use xlink:href="#m0d8d366668" x="185.922421" y="144.139463" style="fill: #1f77b4; stroke: #1f77b4"/>
     <use xlink:href="#m0d8d366668" x="187.553851" y="148.297747" style="fill: #1f77b4; stroke: #1f77b4"/>
     <use xlink:href="#m0d8d366668" x="189.185281" y="152.668314" style="fill: #1f77b4; stroke: #1f77b4"/>
     <use xlink:href="#m0d8d366668" x="190.81671" y="155.376407" style="fill: #1f77b4; stroke: #1f77b4"/>
     <use xlink:href="#m0d8d366668" x="192.44814" y="156.644957" style="fill: #1f77b4; stroke: #1f77b4"/>
     <use xlink:href="#m0d8d366668" x="194.07957" y="155.978362" style="fill: #1f77b4; stroke: #1f77b4"/>
     <use xlink:href="#m0d8d366668" x="195.711" y="153.720137" style="fill: #1f77b4; stroke: #1f77b4"/>
     <use xlink:href="#m0d8d366668" x="197.34243" y="150.561272" style="fill: #1f77b4; stroke: #1f77b4"/>
     <use xlink:href="#m0d8d366668" x="198.97386" y="146.559" style="fill: #1f77b4; stroke: #1f77b4"/>
     <use xlink:href="#m0d8d366668" x="200.60529" y="141.976149" style="fill: #1f77b4; stroke: #1f77b4"/>
     <use xlink:href="#m0d8d366668" x="202.23672" y="137.661877" style="fill: #1f77b4; stroke: #1f77b4"/>
     <use xlink:href="#m0d8d366668" x="203.868149" y="133.532541" style="fill: #1f77b4; stroke: #1f77b4"/>
     <use xlink:href="#m0d8d366668" x="205.499579" y="129.379858" style="fill: #1f77b4; stroke: #1f77b4"/>
     <use xlink:href="#m0d8d366668" x="207.131009" y="125.793476" style="fill: #1f77b4; stroke: #1f77b4"/>
     <use xlink:href="#m0d8d366668" x="208.762439" y="121.849813" style="fill: #1f77b4; stroke: #1f77b4"/>
     <use xlink:href="#m0d8d366668" x="210.393869" y="117.994737" style="fill: #1f77b4; stroke: #1f77b4"/>
     <use xlink:href="#m0d8d366668" x="212.025299" y="114.481271" style="fill: #1f77b4; stroke: #1f77b4"/>
     <use xlink:href="#m0d8d366668" x="213.656729" y="110.916896" style="fill: #1f77b4; stroke: #1f77b4"/>
     <use xlink:href="#m0d8d366668" x="215.288159" y="107.814061" style="fill: #1f77b4; stroke: #1f77b4"/>
     <use xlink:href="#m0d8d366668" x="216.919588" y="105.094642" style="fill: #1f77b4; stroke: #1f77b4"/>
     <use xlink:href="#m0d8d366668" x="218.551018" y="102.035805" style="fill: #1f77b4; stroke: #1f77b4"/>
     <use xlink:href="#m0d8d366668" x="220.182448" y="99.844843" style="fill: #1f77b4; stroke: #1f77b4"/>
     <use xlink:href="#m0d8d366668" x="221.813878" y="97.411502" style="fill: #1f77b4; stroke: #1f77b4"/>
     <use xlink:href="#m0d8d366668" x="223.445308" y="94.794888" style="fill: #1f77b4; stroke: #1f77b4"/>
     <use xlink:href="#m0d8d366668" x="225.076738" y="92.509691" style="fill: #1f77b4; stroke: #1f77b4"/>
     <use xlink:href="#m0d8d366668" x="226.708168" y="90.298928" style="fill: #1f77b4; stroke: #1f77b4"/>
     <use xlink:href="#m0d8d366668" x="228.339598" y="88.423617" style="fill: #1f77b4; stroke: #1f77b4"/>
     <use xlink:href="#m0d8d366668" x="229.971027" y="86.462383" style="fill: #1f77b4; stroke: #1f77b4"/>
     <use xlink:href="#m0d8d366668" x="231.602457" y="84.66255" style="fill: #1f77b4; stroke: #1f77b4"/>
     <use xlink:href="#m0d8d366668" x="233.233887" y="83.462494" style="fill: #1f77b4; stroke: #1f77b4"/>
     <use xlink:href="#m0d8d366668" x="234.865317" y="82.298229" style="fill: #1f77b4; stroke: #1f77b4"/>
     <use xlink:href="#m0d8d366668" x="236.496747" y="80.81318" style="fill: #1f77b4; stroke: #1f77b4"/>
     <use xlink:href="#m0d8d366668" x="238.128177" y="79.780208" style="fill: #1f77b4; stroke: #1f77b4"/>
     <use xlink:href="#m0d8d366668" x="239.759607" y="78.979566" style="fill: #1f77b4; stroke: #1f77b4"/>
     <use xlink:href="#m0d8d366668" x="241.391037" y="77.575092" style="fill: #1f77b4; stroke: #1f77b4"/>
     <use xlink:href="#m0d8d366668" x="243.022466" y="76.213983" style="fill: #1f77b4; stroke: #1f77b4"/>
     <use xlink:href="#m0d8d366668" x="244.653896" y="75.598313" style="fill: #1f77b4; stroke: #1f77b4"/>
     <use xlink:href="#m0d8d366668" x="246.285326" y="74.754738" style="fill: #1f77b4; stroke: #1f77b4"/>
     <use xlink:href="#m0d8d366668" x="247.916756" y="73.793939" style="fill: #1f77b4; stroke: #1f77b4"/>
     <use xlink:href="#m0d8d366668" x="249.548186" y="72.714335" style="fill: #1f77b4; stroke: #1f77b4"/>
     <use xlink:href="#m0d8d366668" x="251.179616" y="71.969338" style="fill: #1f77b4; stroke: #1f77b4"/>
     <use xlink:href="#m0d8d366668" x="252.811046" y="71.391341" style="fill: #1f77b4; stroke: #1f77b4"/>
     <use xlink:href="#m0d8d366668" x="254.442476" y="70.550792" style="fill: #1f77b4; stroke: #1f77b4"/>
     <use xlink:href="#m0d8d366668" x="256.073905" y="69.743242" style="fill: #1f77b4; stroke: #1f77b4"/>
     <use xlink:href="#m0d8d366668" x="257.705335" y="69.226705" style="fill: #1f77b4; stroke: #1f77b4"/>
     <use xlink:href="#m0d8d366668" x="259.336765" y="68.41845" style="fill: #1f77b4; stroke: #1f77b4"/>
     <use xlink:href="#m0d8d366668" x="260.968195" y="68.050704" style="fill: #1f77b4; stroke: #1f77b4"/>
     <use xlink:href="#m0d8d366668" x="262.599625" y="67.409518" style="fill: #1f77b4; stroke: #1f77b4"/>
     <use xlink:href="#m0d8d366668" x="264.231055" y="66.759347" style="fill: #1f77b4; stroke: #1f77b4"/>
     <use xlink:href="#m0d8d366668" x="265.862485" y="66.472819" style="fill: #1f77b4; stroke: #1f77b4"/>
     <use xlink:href="#m0d8d366668" x="267.493915" y="65.828132" style="fill: #1f77b4; stroke: #1f77b4"/>
     <use xlink:href="#m0d8d366668" x="269.125344" y="65.376803" style="fill: #1f77b4; stroke: #1f77b4"/>
     <use xlink:href="#m0d8d366668" x="270.756774" y="65.088953" style="fill: #1f77b4; stroke: #1f77b4"/>
     <use xlink:href="#m0d8d366668" x="272.388204" y="64.263261" style="fill: #1f77b4; stroke: #1f77b4"/>
     <use xlink:href="#m0d8d366668" x="274.019634" y="64.34545" style="fill: #1f77b4; stroke: #1f77b4"/>
     <use xlink:href="#m0d8d366668" x="275.651064" y="63.848033" style="fill: #1f77b4; stroke: #1f77b4"/>
     <use xlink:href="#m0d8d366668" x="277.282494" y="63.257851" style="fill: #1f77b4; stroke: #1f77b4"/>
     <use xlink:href="#m0d8d366668" x="278.913924" y="62.862394" style="fill: #1f77b4; stroke: #1f77b4"/>
     <use xlink:href="#m0d8d366668" x="280.545354" y="62.4871" style="fill: #1f77b4; stroke: #1f77b4"/>
     <use xlink:href="#m0d8d366668" x="282.176783" y="62.276082" style="fill: #1f77b4; stroke: #1f77b4"/>
     <use xlink:href="#m0d8d366668" x="283.808213" y="61.991098" style="fill: #1f77b4; stroke: #1f77b4"/>
     <use xlink:href="#m0d8d366668" x="285.439643" y="61.558857" style="fill: #1f77b4; stroke: #1f77b4"/>
     <use xlink:href="#m0d8d366668" x="287.071073" y="61.271522" style="fill: #1f77b4; stroke: #1f77b4"/>
     <use xlink:href="#m0d8d366668" x="288.702503" y="61.121823" style="fill: #1f77b4; stroke: #1f77b4"/>
     <use xlink:href="#m0d8d366668" x="290.333933" y="60.82331" style="fill: #1f77b4; stroke: #1f77b4"/>
     <use xlink:href="#m0d8d366668" x="291.965363" y="60.906462" style="fill: #1f77b4; stroke: #1f77b4"/>
     <use xlink:href="#m0d8d366668" x="293.596793" y="60.459676" style="fill: #1f77b4; stroke: #1f77b4"/>
     <use xlink:href="#m0d8d366668" x="295.228223" y="60.126294" style="fill: #1f77b4; stroke: #1f77b4"/>
     <use xlink:href="#m0d8d366668" x="296.859652" y="59.962871" style="fill: #1f77b4; stroke: #1f77b4"/>
     <use xlink:href="#m0d8d366668" x="298.491082" y="59.676291" style="fill: #1f77b4; stroke: #1f77b4"/>
     <use xlink:href="#m0d8d366668" x="300.122512" y="59.3638" style="fill: #1f77b4; stroke: #1f77b4"/>
     <use xlink:href="#m0d8d366668" x="301.753942" y="59.201523" style="fill: #1f77b4; stroke: #1f77b4"/>
     <use xlink:href="#m0d8d366668" x="303.385372" y="58.876154" style="fill: #1f77b4; stroke: #1f77b4"/>
     <use xlink:href="#m0d8d366668" x="305.016802" y="58.683112" style="fill: #1f77b4; stroke: #1f77b4"/>
     <use xlink:href="#m0d8d366668" x="306.648232" y="58.322944" style="fill: #1f77b4; stroke: #1f77b4"/>
     <use xlink:href="#m0d8d366668" x="308.279662" y="58.568212" style="fill: #1f77b4; stroke: #1f77b4"/>
     <use xlink:href="#m0d8d366668" x="309.911091" y="58.290553" style="fill: #1f77b4; stroke: #1f77b4"/>
     <use xlink:href="#m0d8d366668" x="311.542521" y="58.056481" style="fill: #1f77b4; stroke: #1f77b4"/>
     <use xlink:href="#m0d8d366668" x="313.173951" y="58.011599" style="fill: #1f77b4; stroke: #1f77b4"/>
     <use xlink:href="#m0d8d366668" x="314.805381" y="57.782747" style="fill: #1f77b4; stroke: #1f77b4"/>
     <use xlink:href="#m0d8d366668" x="316.436811" y="57.701681" style="fill: #1f77b4; stroke: #1f77b4"/>
     <use xlink:href="#m0d8d366668" x="318.068241" y="57.659323" style="fill: #1f77b4; stroke: #1f77b4"/>
     <use xlink:href="#m0d8d366668" x="319.699671" y="57.72373" style="fill: #1f77b4; stroke: #1f77b4"/>
     <use xlink:href="#m0d8d366668" x="321.331101" y="57.536083" style="fill: #1f77b4; stroke: #1f77b4"/>
     <use xlink:href="#m0d8d366668" x="322.96253" y="57.334727" style="fill: #1f77b4; stroke: #1f77b4"/>
     <use xlink:href="#m0d8d366668" x="324.59396" y="57.023109" style="fill: #1f77b4; stroke: #1f77b4"/>
     <use xlink:href="#m0d8d366668" x="326.22539" y="57.122246" style="fill: #1f77b4; stroke: #1f77b4"/>
     <use xlink:href="#m0d8d366668" x="327.85682" y="57.03464" style="fill: #1f77b4; stroke: #1f77b4"/>
     <use xlink:href="#m0d8d366668" x="329.48825" y="57.046152" style="fill: #1f77b4; stroke: #1f77b4"/>
     <use xlink:href="#m0d8d366668" x="331.11968" y="57.071945" style="fill: #1f77b4; stroke: #1f77b4"/>
     <use xlink:href="#m0d8d366668" x="332.75111" y="56.966599" style="fill: #1f77b4; stroke: #1f77b4"/>
     <use xlink:href="#m0d8d366668" x="334.38254" y="56.686086" style="fill: #1f77b4; stroke: #1f77b4"/>
     <use xlink:href="#m0d8d366668" x="336.013969" y="56.601622" style="fill: #1f77b4; stroke: #1f77b4"/>
     <use xlink:href="#m0d8d366668" x="337.645399" y="56.605208" style="fill: #1f77b4; stroke: #1f77b4"/>
     <use xlink:href="#m0d8d366668" x="339.276829" y="56.53318" style="fill: #1f77b4; stroke: #1f77b4"/>
     <use xlink:href="#m0d8d366668" x="340.908259" y="56.503185" style="fill: #1f77b4; stroke: #1f77b4"/>
     <use xlink:href="#m0d8d366668" x="342.539689" y="56.364552" style="fill: #1f77b4; stroke: #1f77b4"/>
     <use xlink:href="#m0d8d366668" x="344.171119" y="56.114865" style="fill: #1f77b4; stroke: #1f77b4"/>
     <use xlink:href="#m0d8d366668" x="345.802549" y="56.10616" style="fill: #1f77b4; stroke: #1f77b4"/>
     <use xlink:href="#m0d8d366668" x="347.433979" y="55.90702" style="fill: #1f77b4; stroke: #1f77b4"/>
     <use xlink:href="#m0d8d366668" x="349.065408" y="55.846058" style="fill: #1f77b4; stroke: #1f77b4"/>
     <use xlink:href="#m0d8d366668" x="350.696838" y="55.847712" style="fill: #1f77b4; stroke: #1f77b4"/>
     <use xlink:href="#m0d8d366668" x="352.328268" y="55.727161" style="fill: #1f77b4; stroke: #1f77b4"/>
     <use xlink:href="#m0d8d366668" x="353.959698" y="55.511605" style="fill: #1f77b4; stroke: #1f77b4"/>
     <use xlink:href="#m0d8d366668" x="355.591128" y="55.435172" style="fill: #1f77b4; stroke: #1f77b4"/>
     <use xlink:href="#m0d8d366668" x="357.222558" y="55.417292" style="fill: #1f77b4; stroke: #1f77b4"/>
     <use xlink:href="#m0d8d366668" x="358.853988" y="55.335236" style="fill: #1f77b4; stroke: #1f77b4"/>
     <use xlink:href="#m0d8d366668" x="360.485418" y="55.232727" style="fill: #1f77b4; stroke: #1f77b4"/>
     <use xlink:href="#m0d8d366668" x="362.116847" y="55.025903" style="fill: #1f77b4; stroke: #1f77b4"/>
     <use xlink:href="#m0d8d366668" x="363.748277" y="55.069066" style="fill: #1f77b4; stroke: #1f77b4"/>
     <use xlink:href="#m0d8d366668" x="365.379707" y="54.984581" style="fill: #1f77b4; stroke: #1f77b4"/>
     <use xlink:href="#m0d8d366668" x="367.011137" y="54.997855" style="fill: #1f77b4; stroke: #1f77b4"/>
     <use xlink:href="#m0d8d366668" x="368.642567" y="54.918494" style="fill: #1f77b4; stroke: #1f77b4"/>
     <use xlink:href="#m0d8d366668" x="370.273997" y="54.825151" style="fill: #1f77b4; stroke: #1f77b4"/>
     <use xlink:href="#m0d8d366668" x="371.905427" y="54.642802" style="fill: #1f77b4; stroke: #1f77b4"/>
     <use xlink:href="#m0d8d366668" x="373.536857" y="54.642309" style="fill: #1f77b4; stroke: #1f77b4"/>
     <use xlink:href="#m0d8d366668" x="375.168286" y="54.569874" style="fill: #1f77b4; stroke: #1f77b4"/>
     <use xlink:href="#m0d8d366668" x="376.799716" y="54.494581" style="fill: #1f77b4; stroke: #1f77b4"/>
     <use xlink:href="#m0d8d366668" x="378.431146" y="54.384548" style="fill: #1f77b4; stroke: #1f77b4"/>
     <use xlink:href="#m0d8d366668" x="380.062576" y="54.427417" style="fill: #1f77b4; stroke: #1f77b4"/>
     <use xlink:href="#m0d8d366668" x="381.694006" y="54.355114" style="fill: #1f77b4; stroke: #1f77b4"/>
     <use xlink:href="#m0d8d366668" x="383.325436" y="54.270799" style="fill: #1f77b4; stroke: #1f77b4"/>
     <use xlink:href="#m0d8d366668" x="384.956866" y="54.24955" style="fill: #1f77b4; stroke: #1f77b4"/>
     <use xlink:href="#m0d8d366668" x="386.588296" y="54.220048" style="fill: #1f77b4; stroke: #1f77b4"/>
     <use xlink:href="#m0d8d366668" x="388.219725" y="54.108183" style="fill: #1f77b4; stroke: #1f77b4"/>
     <use xlink:href="#m0d8d366668" x="389.851155" y="54.146236" style="fill: #1f77b4; stroke: #1f77b4"/>
     <use xlink:href="#m0d8d366668" x="391.482585" y="54.120268" style="fill: #1f77b4; stroke: #1f77b4"/>
    </g>
   </g>
   <g id="line2d_13">
    <path d="M 66.82804 47.258182 
L 79.827221 47.789845 
L 90.226566 48.429412 
L 98.676033 49.160321 
L 105.825583 49.989811 
L 112.000194 50.91912 
L 117.524846 51.972688 
L 122.399539 53.127886 
L 126.624272 54.345457 
L 130.524027 55.690386 
L 134.098801 57.150224 
L 137.348597 58.703629 
L 140.598392 60.51345 
L 143.523208 62.400362 
L 146.448023 64.573311 
L 149.04786 66.78219 
L 151.647696 69.290146 
L 154.247532 72.137611 
L 156.522389 74.941993 
L 158.797245 78.070648 
L 161.072102 81.554953 
L 163.346959 85.425499 
L 165.621815 89.710244 
L 167.896672 94.432049 
L 170.496508 100.381771 
L 173.096344 106.922838 
L 176.02116 114.951822 
L 179.270955 124.577803 
L 187.720423 150.090835 
L 189.020341 153.207004 
L 189.99528 155.097075 
L 190.970218 156.455113 
L 191.620177 156.999288 
L 192.270136 157.221818 
L 192.920095 157.114458 
L 193.570055 156.690002 
L 194.220014 155.979192 
L 195.194952 154.467846 
L 196.49487 151.848368 
L 198.119768 147.995318 
L 201.694543 138.73067 
L 205.594297 128.803882 
L 208.519113 121.906712 
L 211.443928 115.585896 
L 214.043765 110.464341 
L 216.643601 105.796929 
L 219.243437 101.558128 
L 221.843273 97.716448 
L 224.443109 94.23812 
L 227.367925 90.71731 
L 230.292741 87.567685 
L 233.217557 84.746733 
L 236.142372 82.215967 
L 239.392168 79.702703 
L 242.641963 77.464009 
L 246.216738 75.275985 
L 250.116492 73.170912 
L 254.016246 71.316866 
L 258.24098 69.548759 
L 262.790693 67.881001 
L 267.665386 66.322251 
L 273.190038 64.792549 
L 279.364649 63.327187 
L 286.189219 61.950276 
L 293.663748 60.676114 
L 302.113216 59.468533 
L 311.537622 58.349287 
L 322.261946 57.300551 
L 334.611168 56.317757 
L 349.235247 55.38513 
L 366.459162 54.520077 
L 386.932872 53.724137 
L 391.482585 53.573536 
L 391.482585 53.573536 
" clip-path="url(#pbc51cf5f5d)" style="fill: none; stroke: #d62728; stroke-width: 1.5; stroke-linecap: square"/>
   </g>
   <g id="patch_3">
    <path d="M 50.595313 162.72 
L 50.595313 41.76 
" style="fill: none; stroke: #000000; stroke-width: 0.8; stroke-linejoin: miter; stroke-linecap: square"/>
   </g>
   <g id="patch_4">
    <path d="M 407.715312 162.72 
L 407.715312 41.76 
" style="fill: none; stroke: #000000; stroke-width: 0.8; stroke-linejoin: miter; stroke-linecap: square"/>
   </g>
   <g id="patch_5">
    <path d="M 50.595312 162.72 
L 407.715312 162.72 
" style="fill: none; stroke: #000000; stroke-width: 0.8; stroke-linejoin: miter; stroke-linecap: square"/>
   </g>
   <g id="patch_6">
    <path d="M 50.595312 41.76 
L 407.715312 41.76 
" style="fill: none; stroke: #000000; stroke-width: 0.8; stroke-linejoin: miter; stroke-linecap: square"/>
   </g>
   <g id="text_7">
    <g id="patch_7">
     <path d="M 425.571312 95.079562 
L 571.371312 95.079562 
Q 575.371312 95.079562 575.371312 91.079562 
L 575.371312 47.808 
Q 575.371312 43.808 571.371312 43.808 
L 425.571312 43.808 
Q 421.571312 43.808 421.571312 47.808 
L 421.571312 91.079562 
Q 421.571312 95.079562 425.571312 95.079562 
z
" style="fill: #ffffff; opacity: 0.5; stroke: #000000; stroke-linejoin: miter"/>
    </g>
    <!-- Summary -->
    <g transform="translate(425.571312 55.406437) scale(0.1 -0.1)">
     <defs>
      <path id="DejaVuSans-53" d="M 3425 4513 
L 3425 3897 
Q 3066 4069 2747 4153 
Q 2428 4238 2131 4238 
Q 1616 4238 1336 4038 
Q 1056 3838 1056 3469 
Q 1056 3159 1242 3001 
Q 1428 2844 1947 2747 
L 2328 2669 
Q 3034 2534 3370 2195 
Q 3706 1856 3706 1288 
Q 3706 609 3251 259 
Q 2797 -91 1919 -91 
Q 1588 -91 1214 -16 
Q 841 59 441 206 
L 441 856 
Q 825 641 1194 531 
Q 1563 422 1919 422 
Q 2459 422 2753 634 
Q 3047 847 3047 1241 
Q 3047 1584 2836 1778 
Q 2625 1972 2144 2069 
L 1759 2144 
Q 1053 2284 737 2584 
Q 422 2884 422 3419 
Q 422 4038 858 4394 
Q 1294 4750 2059 4750 
Q 2388 4750 2728 4690 
Q 3069 4631 3425 4513 
z
" transform="scale(0.015625)"/>
      <path id="DejaVuSans-75" d="M 544 1381 
L 544 3500 
L 1119 3500 
L 1119 1403 
Q 1119 906 1312 657 
Q 1506 409 1894 409 
Q 2359 409 2629 706 
Q 2900 1003 2900 1516 
L 2900 3500 
L 3475 3500 
L 3475 0 
L 2900 0 
L 2900 538 
Q 2691 219 2414 64 
Q 2138 -91 1772 -91 
Q 1169 -91 856 284 
Q 544 659 544 1381 
z
M 1991 3584 
L 1991 3584 
z
" transform="scale(0.015625)"/>
      <path id="DejaVuSans-61" d="M 2194 1759 
Q 1497 1759 1228 1600 
Q 959 1441 959 1056 
Q 959 750 1161 570 
Q 1363 391 1709 391 
Q 2188 391 2477 730 
Q 2766 1069 2766 1631 
L 2766 1759 
L 2194 1759 
z
M 3341 1997 
L 3341 0 
L 2766 0 
L 2766 531 
Q 2569 213 2275 61 
Q 1981 -91 1556 -91 
Q 1019 -91 701 211 
Q 384 513 384 1019 
Q 384 1609 779 1909 
Q 1175 2209 1959 2209 
L 2766 2209 
L 2766 2266 
Q 2766 2663 2505 2880 
Q 2244 3097 1772 3097 
Q 1472 3097 1187 3025 
Q 903 2953 641 2809 
L 641 3341 
Q 956 3463 1253 3523 
Q 1550 3584 1831 3584 
Q 2591 3584 2966 3190 
Q 3341 2797 3341 1997 
z
" transform="scale(0.015625)"/>
      <path id="DejaVuSans-72" d="M 2631 2963 
Q 2534 3019 2420 3045 
Q 2306 3072 2169 3072 
Q 1681 3072 1420 2755 
Q 1159 2438 1159 1844 
L 1159 0 
L 581 0 
L 581 3500 
L 1159 3500 
L 1159 2956 
Q 1341 3275 1631 3429 
Q 1922 3584 2338 3584 
Q 2397 3584 2469 3576 
Q 2541 3569 2628 3553 
L 2631 2963 
z
" transform="scale(0.015625)"/>
      <path id="DejaVuSans-79" d="M 2059 -325 
Q 1816 -950 1584 -1140 
Q 1353 -1331 966 -1331 
L 506 -1331 
L 506 -850 
L 844 -850 
Q 1081 -850 1212 -737 
Q 1344 -625 1503 -206 
L 1606 56 
L 191 3500 
L 800 3500 
L 1894 763 
L 2988 3500 
L 3597 3500 
L 2059 -325 
z
" transform="scale(0.015625)"/>
     </defs>
     <use xlink:href="#DejaVuSans-53"/>
     <use xlink:href="#DejaVuSans-75" x="63.476562"/>
     <use xlink:href="#DejaVuSans-6d" x="126.855469"/>
     <use xlink:href="#DejaVuSans-6d" x="224.267578"/>
     <use xlink:href="#DejaVuSans-61" x="321.679688"/>
     <use xlink:href="#DejaVuSans-72" x="382.958984"/>
     <use xlink:href="#DejaVuSans-79" x="424.072266"/>
    </g>
    <!-- $Q_I$: 21.90$\pm$0.23 k -->
    <g transform="translate(425.571312 66.60425) scale(0.1 -0.1)">
     <defs>
      <path id="DejaVuSans-Oblique-51" d="M 2309 -84 
Q 2275 -88 2237 -89 
Q 2200 -91 2125 -91 
Q 1250 -91 756 411 
Q 263 913 263 1797 
Q 263 2319 452 2844 
Q 641 3369 978 3788 
Q 1369 4269 1858 4509 
Q 2347 4750 2938 4750 
Q 3794 4750 4287 4245 
Q 4781 3741 4781 2869 
Q 4781 1928 4265 1147 
Q 3750 366 2919 44 
L 3553 -825 
L 2847 -825 
L 2309 -84 
z
M 2919 4238 
Q 2400 4238 2003 3986 
Q 1606 3734 1313 3219 
Q 1125 2891 1026 2522 
Q 928 2153 928 1778 
Q 928 1128 1239 775 
Q 1550 422 2119 422 
Q 2631 422 3032 676 
Q 3434 931 3719 1434 
Q 3909 1772 4009 2142 
Q 4109 2513 4109 2881 
Q 4109 3528 3796 3883 
Q 3484 4238 2919 4238 
z
" transform="scale(0.015625)"/>
      <path id="DejaVuSans-Oblique-49" d="M 1081 4666 
L 1716 4666 
L 806 0 
L 172 0 
L 1081 4666 
z
" transform="scale(0.015625)"/>
      <path id="DejaVuSans-3a" d="M 750 794 
L 1409 794 
L 1409 0 
L 750 0 
L 750 794 
z
M 750 3309 
L 1409 3309 
L 1409 2516 
L 750 2516 
L 750 3309 
z
" transform="scale(0.015625)"/>
      <path id="DejaVuSans-2e" d="M 684 794 
L 1344 794 
L 1344 0 
L 684 0 
L 684 794 
z
" transform="scale(0.015625)"/>
      <path id="DejaVuSans-39" d="M 703 97 
L 703 672 
Q 941 559 1184 500 
Q 1428 441 1663 441 
Q 2288 441 2617 861 
Q 2947 1281 2994 2138 
Q 2813 1869 2534 1725 
Q 2256 1581 1919 1581 
Q 1219 1581 811 2004 
Q 403 2428 403 3163 
Q 403 3881 828 4315 
Q 1253 4750 1959 4750 
Q 2769 4750 3195 4129 
Q 3622 3509 3622 2328 
Q 3622 1225 3098 567 
Q 2575 -91 1691 -91 
Q 1453 -91 1209 -44 
Q 966 3 703 97 
z
M 1959 2075 
Q 2384 2075 2632 2365 
Q 2881 2656 2881 3163 
Q 2881 3666 2632 3958 
Q 2384 4250 1959 4250 
Q 1534 4250 1286 3958 
Q 1038 3666 1038 3163 
Q 1038 2656 1286 2365 
Q 1534 2075 1959 2075 
z
" transform="scale(0.015625)"/>
      <path id="DejaVuSans-b1" d="M 2944 4013 
L 2944 2803 
L 4684 2803 
L 4684 2272 
L 2944 2272 
L 2944 1063 
L 2419 1063 
L 2419 2272 
L 678 2272 
L 678 2803 
L 2419 2803 
L 2419 4013 
L 2944 4013 
z
M 678 531 
L 4684 531 
L 4684 0 
L 678 0 
L 678 531 
z
" transform="scale(0.015625)"/>
      <path id="DejaVuSans-33" d="M 2597 2516 
Q 3050 2419 3304 2112 
Q 3559 1806 3559 1356 
Q 3559 666 3084 287 
Q 2609 -91 1734 -91 
Q 1441 -91 1130 -33 
Q 819 25 488 141 
L 488 750 
Q 750 597 1062 519 
Q 1375 441 1716 441 
Q 2309 441 2620 675 
Q 2931 909 2931 1356 
Q 2931 1769 2642 2001 
Q 2353 2234 1838 2234 
L 1294 2234 
L 1294 2753 
L 1863 2753 
Q 2328 2753 2575 2939 
Q 2822 3125 2822 3475 
Q 2822 3834 2567 4026 
Q 2313 4219 1838 4219 
Q 1578 4219 1281 4162 
Q 984 4106 628 3988 
L 628 4550 
Q 988 4650 1302 4700 
Q 1616 4750 1894 4750 
Q 2613 4750 3031 4423 
Q 3450 4097 3450 3541 
Q 3450 3153 3228 2886 
Q 3006 2619 2597 2516 
z
" transform="scale(0.015625)"/>
      <path id="DejaVuSans-6b" d="M 581 4863 
L 1159 4863 
L 1159 1991 
L 2875 3500 
L 3609 3500 
L 1753 1863 
L 3688 0 
L 2938 0 
L 1159 1709 
L 1159 0 
L 581 0 
L 581 4863 
z
" transform="scale(0.015625)"/>
     </defs>
     <use xlink:href="#DejaVuSans-Oblique-51" transform="translate(0 0.015625)"/>
     <use xlink:href="#DejaVuSans-Oblique-49" transform="translate(78.710938 -16.390625) scale(0.7)"/>
     <use xlink:href="#DejaVuSans-3a" transform="translate(102.089844 0.015625)"/>
     <use xlink:href="#DejaVuSans-20" transform="translate(135.78125 0.015625)"/>
     <use xlink:href="#DejaVuSans-32" transform="translate(167.568359 0.015625)"/>
     <use xlink:href="#DejaVuSans-31" transform="translate(231.191406 0.015625)"/>
     <use xlink:href="#DejaVuSans-2e" transform="translate(294.814453 0.015625)"/>
     <use xlink:href="#DejaVuSans-39" transform="translate(326.601562 0.015625)"/>
     <use xlink:href="#DejaVuSans-30" transform="translate(390.224609 0.015625)"/>
     <use xlink:href="#DejaVuSans-b1" transform="translate(453.847656 0.015625)"/>
     <use xlink:href="#DejaVuSans-30" transform="translate(537.636719 0.015625)"/>
     <use xlink:href="#DejaVuSans-2e" transform="translate(601.259766 0.015625)"/>
     <use xlink:href="#DejaVuSans-32" transform="translate(627.546875 0.015625)"/>
     <use xlink:href="#DejaVuSans-33" transform="translate(691.169922 0.015625)"/>
     <use xlink:href="#DejaVuSans-20" transform="translate(754.792969 0.015625)"/>
     <use xlink:href="#DejaVuSans-6b" transform="translate(786.580078 0.015625)"/>
    </g>
    <!-- $Q_C$: 3.2259$\pm$0.0075 k -->
    <g transform="translate(425.571312 77.802062) scale(0.1 -0.1)">
     <defs>
      <path id="DejaVuSans-Oblique-43" d="M 4447 4306 
L 4319 3641 
Q 4019 3944 3683 4091 
Q 3347 4238 2956 4238 
Q 2422 4238 2017 3981 
Q 1613 3725 1319 3200 
Q 1131 2863 1032 2486 
Q 934 2109 934 1728 
Q 934 1091 1264 756 
Q 1594 422 2222 422 
Q 2656 422 3056 561 
Q 3456 700 3834 978 
L 3688 231 
Q 3316 72 2936 -9 
Q 2556 -91 2175 -91 
Q 1278 -91 773 396 
Q 269 884 269 1753 
Q 269 2309 461 2846 
Q 653 3384 1013 3828 
Q 1394 4300 1883 4525 
Q 2372 4750 3022 4750 
Q 3422 4750 3780 4639 
Q 4138 4528 4447 4306 
z
" transform="scale(0.015625)"/>
      <path id="DejaVuSans-35" d="M 691 4666 
L 3169 4666 
L 3169 4134 
L 1269 4134 
L 1269 2991 
Q 1406 3038 1543 3061 
Q 1681 3084 1819 3084 
Q 2600 3084 3056 2656 
Q 3513 2228 3513 1497 
Q 3513 744 3044 326 
Q 2575 -91 1722 -91 
Q 1428 -91 1123 -41 
Q 819 9 494 109 
L 494 744 
Q 775 591 1075 516 
Q 1375 441 1709 441 
Q 2250 441 2565 725 
Q 2881 1009 2881 1497 
Q 2881 1984 2565 2268 
Q 2250 2553 1709 2553 
Q 1456 2553 1204 2497 
Q 953 2441 691 2322 
L 691 4666 
z
" transform="scale(0.015625)"/>
      <path id="DejaVuSans-37" d="M 525 4666 
L 3525 4666 
L 3525 4397 
L 1831 0 
L 1172 0 
L 2766 4134 
L 525 4134 
L 525 4666 
z
" transform="scale(0.015625)"/>
     </defs>
     <use xlink:href="#DejaVuSans-Oblique-51" transform="translate(0 0.015625)"/>
     <use xlink:href="#DejaVuSans-Oblique-43" transform="translate(78.710938 -16.390625) scale(0.7)"/>
     <use xlink:href="#DejaVuSans-3a" transform="translate(130.322266 0.015625)"/>
     <use xlink:href="#DejaVuSans-20" transform="translate(164.013672 0.015625)"/>
     <use xlink:href="#DejaVuSans-33" transform="translate(195.800781 0.015625)"/>
     <use xlink:href="#DejaVuSans-2e" transform="translate(259.423828 0.015625)"/>
     <use xlink:href="#DejaVuSans-32" transform="translate(285.710938 0.015625)"/>
     <use xlink:href="#DejaVuSans-32" transform="translate(349.333984 0.015625)"/>
     <use xlink:href="#DejaVuSans-35" transform="translate(412.957031 0.015625)"/>
     <use xlink:href="#DejaVuSans-39" transform="translate(471.080078 0.015625)"/>
     <use xlink:href="#DejaVuSans-b1" transform="translate(534.703125 0.015625)"/>
     <use xlink:href="#DejaVuSans-30" transform="translate(618.492188 0.015625)"/>
     <use xlink:href="#DejaVuSans-2e" transform="translate(682.115234 0.015625)"/>
     <use xlink:href="#DejaVuSans-30" transform="translate(713.902344 0.015625)"/>
     <use xlink:href="#DejaVuSans-30" transform="translate(777.525391 0.015625)"/>
     <use xlink:href="#DejaVuSans-37" transform="translate(841.148438 0.015625)"/>
     <use xlink:href="#DejaVuSans-35" transform="translate(904.771484 0.015625)"/>
     <use xlink:href="#DejaVuSans-20" transform="translate(968.394531 0.015625)"/>
     <use xlink:href="#DejaVuSans-6b" transform="translate(1000.181641 0.015625)"/>
    </g>
    <!-- $f_{res}$: 6.0071866$\pm$2.9e-06 GHz -->
    <g transform="translate(425.571312 88.999875) scale(0.1 -0.1)">
     <defs>
      <path id="DejaVuSans-Oblique-66" d="M 3059 4863 
L 2969 4384 
L 2419 4384 
Q 2106 4384 1964 4261 
Q 1822 4138 1753 3809 
L 1691 3500 
L 2638 3500 
L 2553 3053 
L 1606 3053 
L 1013 0 
L 434 0 
L 1031 3053 
L 481 3053 
L 563 3500 
L 1113 3500 
L 1159 3744 
Q 1278 4363 1576 4613 
Q 1875 4863 2516 4863 
L 3059 4863 
z
" transform="scale(0.015625)"/>
      <path id="DejaVuSans-Oblique-72" d="M 2853 2969 
Q 2766 3016 2653 3041 
Q 2541 3066 2413 3066 
Q 1953 3066 1609 2717 
Q 1266 2369 1153 1784 
L 800 0 
L 225 0 
L 909 3500 
L 1484 3500 
L 1375 2956 
Q 1603 3259 1920 3421 
Q 2238 3584 2597 3584 
Q 2691 3584 2781 3573 
Q 2872 3563 2963 3538 
L 2853 2969 
z
" transform="scale(0.015625)"/>
      <path id="DejaVuSans-Oblique-65" d="M 3078 2063 
Q 3088 2113 3092 2166 
Q 3097 2219 3097 2272 
Q 3097 2653 2873 2875 
Q 2650 3097 2266 3097 
Q 1838 3097 1509 2826 
Q 1181 2556 1013 2059 
L 3078 2063 
z
M 3578 1613 
L 903 1613 
Q 884 1494 878 1425 
Q 872 1356 872 1306 
Q 872 872 1139 634 
Q 1406 397 1894 397 
Q 2269 397 2603 481 
Q 2938 566 3225 728 
L 3116 159 
Q 2806 34 2476 -28 
Q 2147 -91 1806 -91 
Q 1078 -91 686 257 
Q 294 606 294 1247 
Q 294 1794 489 2264 
Q 684 2734 1063 3103 
Q 1306 3334 1642 3459 
Q 1978 3584 2356 3584 
Q 2950 3584 3301 3228 
Q 3653 2872 3653 2272 
Q 3653 2128 3634 1964 
Q 3616 1800 3578 1613 
z
" transform="scale(0.015625)"/>
      <path id="DejaVuSans-Oblique-73" d="M 3200 3397 
L 3091 2853 
Q 2863 2978 2609 3040 
Q 2356 3103 2088 3103 
Q 1634 3103 1373 2948 
Q 1113 2794 1113 2528 
Q 1113 2219 1719 2053 
Q 1766 2041 1788 2034 
L 1972 1978 
Q 2547 1819 2739 1644 
Q 2931 1469 2931 1166 
Q 2931 609 2489 259 
Q 2047 -91 1331 -91 
Q 1053 -91 747 -37 
Q 441 16 72 128 
L 184 722 
Q 500 559 806 475 
Q 1113 391 1394 391 
Q 1816 391 2080 572 
Q 2344 753 2344 1031 
Q 2344 1331 1650 1516 
L 1591 1531 
L 1394 1581 
Q 956 1697 753 1886 
Q 550 2075 550 2369 
Q 550 2928 970 3256 
Q 1391 3584 2113 3584 
Q 2397 3584 2667 3537 
Q 2938 3491 3200 3397 
z
" transform="scale(0.015625)"/>
      <path id="DejaVuSans-65" d="M 3597 1894 
L 3597 1613 
L 953 1613 
Q 991 1019 1311 708 
Q 1631 397 2203 397 
Q 2534 397 2845 478 
Q 3156 559 3463 722 
L 3463 178 
Q 3153 47 2828 -22 
Q 2503 -91 2169 -91 
Q 1331 -91 842 396 
Q 353 884 353 1716 
Q 353 2575 817 3079 
Q 1281 3584 2069 3584 
Q 2775 3584 3186 3129 
Q 3597 2675 3597 1894 
z
M 3022 2063 
Q 3016 2534 2758 2815 
Q 2500 3097 2075 3097 
Q 1594 3097 1305 2825 
Q 1016 2553 972 2059 
L 3022 2063 
z
" transform="scale(0.015625)"/>
      <path id="DejaVuSans-2d" d="M 313 2009 
L 1997 2009 
L 1997 1497 
L 313 1497 
L 313 2009 
z
" transform="scale(0.015625)"/>
      <path id="DejaVuSans-47" d="M 3809 666 
L 3809 1919 
L 2778 1919 
L 2778 2438 
L 4434 2438 
L 4434 434 
Q 4069 175 3628 42 
Q 3188 -91 2688 -91 
Q 1594 -91 976 548 
Q 359 1188 359 2328 
Q 359 3472 976 4111 
Q 1594 4750 2688 4750 
Q 3144 4750 3555 4637 
Q 3966 4525 4313 4306 
L 4313 3634 
Q 3963 3931 3569 4081 
Q 3175 4231 2741 4231 
Q 1884 4231 1454 3753 
Q 1025 3275 1025 2328 
Q 1025 1384 1454 906 
Q 1884 428 2741 428 
Q 3075 428 3337 486 
Q 3600 544 3809 666 
z
" transform="scale(0.015625)"/>
      <path id="DejaVuSans-48" d="M 628 4666 
L 1259 4666 
L 1259 2753 
L 3553 2753 
L 3553 4666 
L 4184 4666 
L 4184 0 
L 3553 0 
L 3553 2222 
L 1259 2222 
L 1259 0 
L 628 0 
L 628 4666 
z
" transform="scale(0.015625)"/>
      <path id="DejaVuSans-7a" d="M 353 3500 
L 3084 3500 
L 3084 2975 
L 922 459 
L 3084 459 
L 3084 0 
L 275 0 
L 275 525 
L 2438 3041 
L 353 3041 
L 353 3500 
z
" transform="scale(0.015625)"/>
     </defs>
     <use xlink:href="#DejaVuSans-Oblique-66" transform="translate(0 0.015625)"/>
     <use xlink:href="#DejaVuSans-Oblique-72" transform="translate(35.205078 -16.390625) scale(0.7)"/>
     <use xlink:href="#DejaVuSans-Oblique-65" transform="translate(63.984375 -16.390625) scale(0.7)"/>
     <use xlink:href="#DejaVuSans-Oblique-73" transform="translate(107.050781 -16.390625) scale(0.7)"/>
     <use xlink:href="#DejaVuSans-3a" transform="translate(146.254883 0.015625)"/>
     <use xlink:href="#DejaVuSans-20" transform="translate(179.946289 0.015625)"/>
     <use xlink:href="#DejaVuSans-36" transform="translate(211.733398 0.015625)"/>
     <use xlink:href="#DejaVuSans-2e" transform="translate(275.356445 0.015625)"/>
     <use xlink:href="#DejaVuSans-30" transform="translate(307.143555 0.015625)"/>
     <use xlink:href="#DejaVuSans-30" transform="translate(370.766602 0.015625)"/>
     <use xlink:href="#DejaVuSans-37" transform="translate(434.389648 0.015625)"/>
     <use xlink:href="#DejaVuSans-31" transform="translate(498.012695 0.015625)"/>
     <use xlink:href="#DejaVuSans-38" transform="translate(561.635742 0.015625)"/>
     <use xlink:href="#DejaVuSans-36" transform="translate(625.258789 0.015625)"/>
     <use xlink:href="#DejaVuSans-36" transform="translate(688.881836 0.015625)"/>
     <use xlink:href="#DejaVuSans-b1" transform="translate(752.504883 0.015625)"/>
     <use xlink:href="#DejaVuSans-32" transform="translate(836.293945 0.015625)"/>
     <use xlink:href="#DejaVuSans-2e" transform="translate(899.916992 0.015625)"/>
     <use xlink:href="#DejaVuSans-39" transform="translate(931.704102 0.015625)"/>
     <use xlink:href="#DejaVuSans-65" transform="translate(995.327148 0.015625)"/>
     <use xlink:href="#DejaVuSans-2d" transform="translate(1056.850586 0.015625)"/>
     <use xlink:href="#DejaVuSans-30" transform="translate(1092.93457 0.015625)"/>
     <use xlink:href="#DejaVuSans-36" transform="translate(1156.557617 0.015625)"/>
     <use xlink:href="#DejaVuSans-20" transform="translate(1220.180664 0.015625)"/>
     <use xlink:href="#DejaVuSans-47" transform="translate(1251.967773 0.015625)"/>
     <use xlink:href="#DejaVuSans-48" transform="translate(1329.458008 0.015625)"/>
     <use xlink:href="#DejaVuSans-7a" transform="translate(1404.65332 0.015625)"/>
    </g>
   </g>
  </g>
  <g id="axes_2">
   <g id="patch_8">
    <path d="M 50.595313 307.872 
L 407.715312 307.872 
L 407.715312 186.912 
L 50.595313 186.912 
z
" style="fill: #ffffff"/>
   </g>
   <g id="matplotlib.axis_3">
    <g id="xtick_7">
     <g id="line2d_14">
      <g>
       <use xlink:href="#m8f9282d2c8" x="83.060767" y="307.872" style="stroke: #000000; stroke-width: 0.8"/>
      </g>
     </g>
     <g id="text_8">
      <!-- 4 -->
      <g transform="translate(79.879517 322.470438) scale(0.1 -0.1)">
       <use xlink:href="#DejaVuSans-34"/>
      </g>
     </g>
    </g>
    <g id="xtick_8">
     <g id="line2d_15">
      <g>
       <use xlink:href="#m8f9282d2c8" x="147.991676" y="307.872" style="stroke: #000000; stroke-width: 0.8"/>
      </g>
     </g>
     <g id="text_9">
      <!-- 6 -->
      <g transform="translate(144.810426 322.470438) scale(0.1 -0.1)">
       <use xlink:href="#DejaVuSans-36"/>
      </g>
     </g>
    </g>
    <g id="xtick_9">
     <g id="line2d_16">
      <g>
       <use xlink:href="#m8f9282d2c8" x="212.922585" y="307.872" style="stroke: #000000; stroke-width: 0.8"/>
      </g>
     </g>
     <g id="text_10">
      <!-- 8 -->
      <g transform="translate(209.741335 322.470438) scale(0.1 -0.1)">
       <use xlink:href="#DejaVuSans-38"/>
      </g>
     </g>
    </g>
    <g id="xtick_10">
     <g id="line2d_17">
      <g>
       <use xlink:href="#m8f9282d2c8" x="277.853494" y="307.872" style="stroke: #000000; stroke-width: 0.8"/>
      </g>
     </g>
     <g id="text_11">
      <!-- 10 -->
      <g transform="translate(271.490994 322.470438) scale(0.1 -0.1)">
       <use xlink:href="#DejaVuSans-31"/>
       <use xlink:href="#DejaVuSans-30" x="63.623047"/>
      </g>
     </g>
    </g>
    <g id="xtick_11">
     <g id="line2d_18">
      <g>
       <use xlink:href="#m8f9282d2c8" x="342.784403" y="307.872" style="stroke: #000000; stroke-width: 0.8"/>
      </g>
     </g>
     <g id="text_12">
      <!-- 12 -->
      <g transform="translate(336.421903 322.470438) scale(0.1 -0.1)">
       <use xlink:href="#DejaVuSans-31"/>
       <use xlink:href="#DejaVuSans-32" x="63.623047"/>
      </g>
     </g>
    </g>
    <g id="xtick_12">
     <g id="line2d_19">
      <g>
       <use xlink:href="#m8f9282d2c8" x="407.715312" y="307.872" style="stroke: #000000; stroke-width: 0.8"/>
      </g>
     </g>
     <g id="text_13">
      <!-- 14 -->
      <g transform="translate(401.352812 322.470438) scale(0.1 -0.1)">
       <use xlink:href="#DejaVuSans-31"/>
       <use xlink:href="#DejaVuSans-34" x="63.623047"/>
      </g>
     </g>
    </g>
    <g id="text_14">
     <!-- Frequency [MHz] -->
     <g transform="translate(187.136562 336.148562) scale(0.1 -0.1)">
      <defs>
       <path id="DejaVuSans-46" d="M 628 4666 
L 3309 4666 
L 3309 4134 
L 1259 4134 
L 1259 2759 
L 3109 2759 
L 3109 2228 
L 1259 2228 
L 1259 0 
L 628 0 
L 628 4666 
z
" transform="scale(0.015625)"/>
       <path id="DejaVuSans-71" d="M 947 1747 
Q 947 1113 1208 752 
Q 1469 391 1925 391 
Q 2381 391 2643 752 
Q 2906 1113 2906 1747 
Q 2906 2381 2643 2742 
Q 2381 3103 1925 3103 
Q 1469 3103 1208 2742 
Q 947 2381 947 1747 
z
M 2906 525 
Q 2725 213 2448 61 
Q 2172 -91 1784 -91 
Q 1150 -91 751 415 
Q 353 922 353 1747 
Q 353 2572 751 3078 
Q 1150 3584 1784 3584 
Q 2172 3584 2448 3432 
Q 2725 3281 2906 2969 
L 2906 3500 
L 3481 3500 
L 3481 -1331 
L 2906 -1331 
L 2906 525 
z
" transform="scale(0.015625)"/>
       <path id="DejaVuSans-6e" d="M 3513 2113 
L 3513 0 
L 2938 0 
L 2938 2094 
Q 2938 2591 2744 2837 
Q 2550 3084 2163 3084 
Q 1697 3084 1428 2787 
Q 1159 2491 1159 1978 
L 1159 0 
L 581 0 
L 581 3500 
L 1159 3500 
L 1159 2956 
Q 1366 3272 1645 3428 
Q 1925 3584 2291 3584 
Q 2894 3584 3203 3211 
Q 3513 2838 3513 2113 
z
" transform="scale(0.015625)"/>
       <path id="DejaVuSans-63" d="M 3122 3366 
L 3122 2828 
Q 2878 2963 2633 3030 
Q 2388 3097 2138 3097 
Q 1578 3097 1268 2742 
Q 959 2388 959 1747 
Q 959 1106 1268 751 
Q 1578 397 2138 397 
Q 2388 397 2633 464 
Q 2878 531 3122 666 
L 3122 134 
Q 2881 22 2623 -34 
Q 2366 -91 2075 -91 
Q 1284 -91 818 406 
Q 353 903 353 1747 
Q 353 2603 823 3093 
Q 1294 3584 2113 3584 
Q 2378 3584 2631 3529 
Q 2884 3475 3122 3366 
z
" transform="scale(0.015625)"/>
       <path id="DejaVuSans-4d" d="M 628 4666 
L 1569 4666 
L 2759 1491 
L 3956 4666 
L 4897 4666 
L 4897 0 
L 4281 0 
L 4281 4097 
L 3078 897 
L 2444 897 
L 1241 4097 
L 1241 0 
L 628 0 
L 628 4666 
z
" transform="scale(0.015625)"/>
      </defs>
      <use xlink:href="#DejaVuSans-46"/>
      <use xlink:href="#DejaVuSans-72" x="50.269531"/>
      <use xlink:href="#DejaVuSans-65" x="89.132812"/>
      <use xlink:href="#DejaVuSans-71" x="150.65625"/>
      <use xlink:href="#DejaVuSans-75" x="214.132812"/>
      <use xlink:href="#DejaVuSans-65" x="277.511719"/>
      <use xlink:href="#DejaVuSans-6e" x="339.035156"/>
      <use xlink:href="#DejaVuSans-63" x="402.414062"/>
      <use xlink:href="#DejaVuSans-79" x="457.394531"/>
      <use xlink:href="#DejaVuSans-20" x="516.574219"/>
      <use xlink:href="#DejaVuSans-5b" x="548.361328"/>
      <use xlink:href="#DejaVuSans-4d" x="587.375"/>
      <use xlink:href="#DejaVuSans-48" x="673.654297"/>
      <use xlink:href="#DejaVuSans-7a" x="748.849609"/>
      <use xlink:href="#DejaVuSans-5d" x="801.339844"/>
     </g>
    </g>
    <g id="text_15">
     <!-- +6 GHz -->
     <g transform="translate(369.277812 335.148562) scale(0.1 -0.1)">
      <defs>
       <path id="DejaVuSans-2b" d="M 2944 4013 
L 2944 2272 
L 4684 2272 
L 4684 1741 
L 2944 1741 
L 2944 0 
L 2419 0 
L 2419 1741 
L 678 1741 
L 678 2272 
L 2419 2272 
L 2419 4013 
L 2944 4013 
z
" transform="scale(0.015625)"/>
      </defs>
      <use xlink:href="#DejaVuSans-2b"/>
      <use xlink:href="#DejaVuSans-36" x="83.789062"/>
      <use xlink:href="#DejaVuSans-20" x="147.412109"/>
      <use xlink:href="#DejaVuSans-47" x="179.199219"/>
      <use xlink:href="#DejaVuSans-48" x="256.689453"/>
      <use xlink:href="#DejaVuSans-7a" x="331.884766"/>
     </g>
    </g>
   </g>
   <g id="matplotlib.axis_4">
    <g id="ytick_6">
     <g id="line2d_20">
      <g>
       <use xlink:href="#mff6d84cd9b" x="50.595313" y="277.991567" style="stroke: #000000; stroke-width: 0.8"/>
      </g>
     </g>
     <g id="text_16">
      <!-- -100 -->
      <g transform="translate(20.9 281.790785) scale(0.1 -0.1)">
       <use xlink:href="#DejaVuSans-2d"/>
       <use xlink:href="#DejaVuSans-31" x="36.083984"/>
       <use xlink:href="#DejaVuSans-30" x="99.707031"/>
       <use xlink:href="#DejaVuSans-30" x="163.330078"/>
      </g>
     </g>
    </g>
    <g id="ytick_7">
     <g id="line2d_21">
      <g>
       <use xlink:href="#mff6d84cd9b" x="50.595313" y="247.423122" style="stroke: #000000; stroke-width: 0.8"/>
      </g>
     </g>
     <g id="text_17">
      <!-- 0 -->
      <g transform="translate(37.232813 251.22234) scale(0.1 -0.1)">
       <use xlink:href="#DejaVuSans-30"/>
      </g>
     </g>
    </g>
    <g id="ytick_8">
     <g id="line2d_22">
      <g>
       <use xlink:href="#mff6d84cd9b" x="50.595313" y="216.854677" style="stroke: #000000; stroke-width: 0.8"/>
      </g>
     </g>
     <g id="text_18">
      <!-- 100 -->
      <g transform="translate(24.507813 220.653895) scale(0.1 -0.1)">
       <use xlink:href="#DejaVuSans-31"/>
       <use xlink:href="#DejaVuSans-30" x="63.623047"/>
       <use xlink:href="#DejaVuSans-30" x="127.246094"/>
      </g>
     </g>
    </g>
    <g id="text_19">
     <!-- $\angle S_{21}$ [deg] -->
     <g transform="translate(14.8 274.592) rotate(-90) scale(0.1 -0.1)">
      <defs>
       <path id="DejaVuSans-2220" d="M 5028 631 
L 5028 0 
L 547 0 
L 3525 4666 
L 4281 4666 
L 1716 631 
L 5028 631 
z
" transform="scale(0.015625)"/>
       <path id="DejaVuSans-64" d="M 2906 2969 
L 2906 4863 
L 3481 4863 
L 3481 0 
L 2906 0 
L 2906 525 
Q 2725 213 2448 61 
Q 2172 -91 1784 -91 
Q 1150 -91 751 415 
Q 353 922 353 1747 
Q 353 2572 751 3078 
Q 1150 3584 1784 3584 
Q 2172 3584 2448 3432 
Q 2725 3281 2906 2969 
z
M 947 1747 
Q 947 1113 1208 752 
Q 1469 391 1925 391 
Q 2381 391 2643 752 
Q 2906 1113 2906 1747 
Q 2906 2381 2643 2742 
Q 2381 3103 1925 3103 
Q 1469 3103 1208 2742 
Q 947 2381 947 1747 
z
" transform="scale(0.015625)"/>
       <path id="DejaVuSans-67" d="M 2906 1791 
Q 2906 2416 2648 2759 
Q 2391 3103 1925 3103 
Q 1463 3103 1205 2759 
Q 947 2416 947 1791 
Q 947 1169 1205 825 
Q 1463 481 1925 481 
Q 2391 481 2648 825 
Q 2906 1169 2906 1791 
z
M 3481 434 
Q 3481 -459 3084 -895 
Q 2688 -1331 1869 -1331 
Q 1566 -1331 1297 -1286 
Q 1028 -1241 775 -1147 
L 775 -588 
Q 1028 -725 1275 -790 
Q 1522 -856 1778 -856 
Q 2344 -856 2625 -561 
Q 2906 -266 2906 331 
L 2906 616 
Q 2728 306 2450 153 
Q 2172 0 1784 0 
Q 1141 0 747 490 
Q 353 981 353 1791 
Q 353 2603 747 3093 
Q 1141 3584 1784 3584 
Q 2172 3584 2450 3431 
Q 2728 3278 2906 2969 
L 2906 3500 
L 3481 3500 
L 3481 434 
z
" transform="scale(0.015625)"/>
      </defs>
      <use xlink:href="#DejaVuSans-2220" transform="translate(0 0.015625)"/>
      <use xlink:href="#DejaVuSans-Oblique-53" transform="translate(89.648438 0.015625)"/>
      <use xlink:href="#DejaVuSans-32" transform="translate(153.125 -16.390625) scale(0.7)"/>
      <use xlink:href="#DejaVuSans-31" transform="translate(197.661133 -16.390625) scale(0.7)"/>
      <use xlink:href="#DejaVuSans-20" transform="translate(244.931641 0.015625)"/>
      <use xlink:href="#DejaVuSans-5b" transform="translate(276.71875 0.015625)"/>
      <use xlink:href="#DejaVuSans-64" transform="translate(315.732422 0.015625)"/>
      <use xlink:href="#DejaVuSans-65" transform="translate(379.208984 0.015625)"/>
      <use xlink:href="#DejaVuSans-67" transform="translate(440.732422 0.015625)"/>
      <use xlink:href="#DejaVuSans-5d" transform="translate(504.208984 0.015625)"/>
     </g>
    </g>
   </g>
   <g id="line2d_23">
    <path d="M 66.82804 291.120651 
L 71.722329 291.263485 
L 79.879479 291.812736 
L 83.142339 291.974996 
L 94.562348 293.055058 
L 96.193778 293.291166 
L 97.825207 293.400991 
L 101.088067 293.875981 
L 105.982357 294.443294 
L 109.245217 294.957479 
L 115.770936 295.864943 
L 127.190945 297.411983 
L 141.873814 299.957928 
L 145.136674 300.656274 
L 148.399534 301.320228 
L 151.662393 302.075284 
L 153.293823 192.423813 
L 156.556683 193.26177 
L 159.819543 194.050959 
L 163.082402 195.01294 
L 176.133842 198.647088 
L 179.396701 199.180743 
L 181.028131 199.227274 
L 182.659561 199.10811 
L 184.290991 198.614709 
L 185.922421 197.795079 
L 187.553851 196.421371 
L 189.185281 193.654108 
L 190.81671 299.863047 
L 194.07957 289.971959 
L 195.711 285.808338 
L 197.34243 283.130693 
L 198.97386 281.259118 
L 200.60529 280.178128 
L 202.23672 279.56781 
L 205.499579 279.198944 
L 208.762439 279.469005 
L 212.025299 279.959078 
L 220.182448 281.546157 
L 225.076738 282.609456 
L 229.971027 283.66244 
L 246.285326 286.116039 
L 264.231055 288.326961 
L 267.493915 288.651664 
L 277.282494 289.638359 
L 311.542521 292.377774 
L 319.699671 292.824351 
L 324.59396 293.190924 
L 332.75111 293.548433 
L 336.013969 293.865606 
L 339.276829 294.00507 
L 350.696838 294.711055 
L 357.222558 295.131767 
L 391.482585 297.096798 
L 391.482585 297.096798 
" clip-path="url(#p7507a1e141)" style="fill: none; stroke: #1f77b4; stroke-width: 1.5; stroke-linecap: square"/>
    <g clip-path="url(#p7507a1e141)">
     <use xlink:href="#m0d8d366668" x="66.82804" y="291.120651" style="fill: #1f77b4; stroke: #1f77b4"/>
     <use xlink:href="#m0d8d366668" x="68.45947" y="291.139919" style="fill: #1f77b4; stroke: #1f77b4"/>
     <use xlink:href="#m0d8d366668" x="70.0909" y="291.203376" style="fill: #1f77b4; stroke: #1f77b4"/>
     <use xlink:href="#m0d8d366668" x="71.722329" y="291.263485" style="fill: #1f77b4; stroke: #1f77b4"/>
     <use xlink:href="#m0d8d366668" x="73.353759" y="291.38311" style="fill: #1f77b4; stroke: #1f77b4"/>
     <use xlink:href="#m0d8d366668" x="74.985189" y="291.458138" style="fill: #1f77b4; stroke: #1f77b4"/>
     <use xlink:href="#m0d8d366668" x="76.616619" y="291.55735" style="fill: #1f77b4; stroke: #1f77b4"/>
     <use xlink:href="#m0d8d366668" x="78.248049" y="291.733065" style="fill: #1f77b4; stroke: #1f77b4"/>
     <use xlink:href="#m0d8d366668" x="79.879479" y="291.812736" style="fill: #1f77b4; stroke: #1f77b4"/>
     <use xlink:href="#m0d8d366668" x="81.510909" y="291.867819" style="fill: #1f77b4; stroke: #1f77b4"/>
     <use xlink:href="#m0d8d366668" x="83.142339" y="291.974996" style="fill: #1f77b4; stroke: #1f77b4"/>
     <use xlink:href="#m0d8d366668" x="84.773768" y="292.117278" style="fill: #1f77b4; stroke: #1f77b4"/>
     <use xlink:href="#m0d8d366668" x="86.405198" y="292.221133" style="fill: #1f77b4; stroke: #1f77b4"/>
     <use xlink:href="#m0d8d366668" x="88.036628" y="292.371548" style="fill: #1f77b4; stroke: #1f77b4"/>
     <use xlink:href="#m0d8d366668" x="89.668058" y="292.503789" style="fill: #1f77b4; stroke: #1f77b4"/>
     <use xlink:href="#m0d8d366668" x="91.299488" y="292.701358" style="fill: #1f77b4; stroke: #1f77b4"/>
     <use xlink:href="#m0d8d366668" x="92.930918" y="292.902806" style="fill: #1f77b4; stroke: #1f77b4"/>
     <use xlink:href="#m0d8d366668" x="94.562348" y="293.055058" style="fill: #1f77b4; stroke: #1f77b4"/>
     <use xlink:href="#m0d8d366668" x="96.193778" y="293.291166" style="fill: #1f77b4; stroke: #1f77b4"/>
     <use xlink:href="#m0d8d366668" x="97.825207" y="293.400991" style="fill: #1f77b4; stroke: #1f77b4"/>
     <use xlink:href="#m0d8d366668" x="99.456637" y="293.681945" style="fill: #1f77b4; stroke: #1f77b4"/>
     <use xlink:href="#m0d8d366668" x="101.088067" y="293.875981" style="fill: #1f77b4; stroke: #1f77b4"/>
     <use xlink:href="#m0d8d366668" x="102.719497" y="294.057969" style="fill: #1f77b4; stroke: #1f77b4"/>
     <use xlink:href="#m0d8d366668" x="104.350927" y="294.288149" style="fill: #1f77b4; stroke: #1f77b4"/>
     <use xlink:href="#m0d8d366668" x="105.982357" y="294.443294" style="fill: #1f77b4; stroke: #1f77b4"/>
     <use xlink:href="#m0d8d366668" x="107.613787" y="294.743907" style="fill: #1f77b4; stroke: #1f77b4"/>
     <use xlink:href="#m0d8d366668" x="109.245217" y="294.957479" style="fill: #1f77b4; stroke: #1f77b4"/>
     <use xlink:href="#m0d8d366668" x="110.876646" y="295.210033" style="fill: #1f77b4; stroke: #1f77b4"/>
     <use xlink:href="#m0d8d366668" x="112.508076" y="295.453002" style="fill: #1f77b4; stroke: #1f77b4"/>
     <use xlink:href="#m0d8d366668" x="114.139506" y="295.611483" style="fill: #1f77b4; stroke: #1f77b4"/>
     <use xlink:href="#m0d8d366668" x="115.770936" y="295.864943" style="fill: #1f77b4; stroke: #1f77b4"/>
     <use xlink:href="#m0d8d366668" x="117.402366" y="296.07646" style="fill: #1f77b4; stroke: #1f77b4"/>
     <use xlink:href="#m0d8d366668" x="119.033796" y="296.2612" style="fill: #1f77b4; stroke: #1f77b4"/>
     <use xlink:href="#m0d8d366668" x="120.665226" y="296.461041" style="fill: #1f77b4; stroke: #1f77b4"/>
     <use xlink:href="#m0d8d366668" x="122.296656" y="296.714389" style="fill: #1f77b4; stroke: #1f77b4"/>
     <use xlink:href="#m0d8d366668" x="123.928085" y="296.947466" style="fill: #1f77b4; stroke: #1f77b4"/>
     <use xlink:href="#m0d8d366668" x="125.559515" y="297.228571" style="fill: #1f77b4; stroke: #1f77b4"/>
     <use xlink:href="#m0d8d366668" x="127.190945" y="297.411983" style="fill: #1f77b4; stroke: #1f77b4"/>
     <use xlink:href="#m0d8d366668" x="128.822375" y="297.691756" style="fill: #1f77b4; stroke: #1f77b4"/>
     <use xlink:href="#m0d8d366668" x="130.453805" y="298.009821" style="fill: #1f77b4; stroke: #1f77b4"/>
     <use xlink:href="#m0d8d366668" x="132.085235" y="298.234263" style="fill: #1f77b4; stroke: #1f77b4"/>
     <use xlink:href="#m0d8d366668" x="133.716665" y="298.479557" style="fill: #1f77b4; stroke: #1f77b4"/>
     <use xlink:href="#m0d8d366668" x="135.348095" y="298.791064" style="fill: #1f77b4; stroke: #1f77b4"/>
     <use xlink:href="#m0d8d366668" x="136.979524" y="299.183711" style="fill: #1f77b4; stroke: #1f77b4"/>
     <use xlink:href="#m0d8d366668" x="138.610954" y="299.396568" style="fill: #1f77b4; stroke: #1f77b4"/>
     <use xlink:href="#m0d8d366668" x="140.242384" y="299.67987" style="fill: #1f77b4; stroke: #1f77b4"/>
     <use xlink:href="#m0d8d366668" x="141.873814" y="299.957928" style="fill: #1f77b4; stroke: #1f77b4"/>
     <use xlink:href="#m0d8d366668" x="143.505244" y="300.332223" style="fill: #1f77b4; stroke: #1f77b4"/>
     <use xlink:href="#m0d8d366668" x="145.136674" y="300.656274" style="fill: #1f77b4; stroke: #1f77b4"/>
     <use xlink:href="#m0d8d366668" x="146.768104" y="300.933223" style="fill: #1f77b4; stroke: #1f77b4"/>
     <use xlink:href="#m0d8d366668" x="148.399534" y="301.320228" style="fill: #1f77b4; stroke: #1f77b4"/>
     <use xlink:href="#m0d8d366668" x="150.030963" y="301.700614" style="fill: #1f77b4; stroke: #1f77b4"/>
     <use xlink:href="#m0d8d366668" x="151.662393" y="302.075284" style="fill: #1f77b4; stroke: #1f77b4"/>
     <use xlink:href="#m0d8d366668" x="153.293823" y="192.423813" style="fill: #1f77b4; stroke: #1f77b4"/>
     <use xlink:href="#m0d8d366668" x="154.925253" y="192.862017" style="fill: #1f77b4; stroke: #1f77b4"/>
     <use xlink:href="#m0d8d366668" x="156.556683" y="193.26177" style="fill: #1f77b4; stroke: #1f77b4"/>
     <use xlink:href="#m0d8d366668" x="158.188113" y="193.622367" style="fill: #1f77b4; stroke: #1f77b4"/>
     <use xlink:href="#m0d8d366668" x="159.819543" y="194.050959" style="fill: #1f77b4; stroke: #1f77b4"/>
     <use xlink:href="#m0d8d366668" x="161.450973" y="194.573666" style="fill: #1f77b4; stroke: #1f77b4"/>
     <use xlink:href="#m0d8d366668" x="163.082402" y="195.01294" style="fill: #1f77b4; stroke: #1f77b4"/>
     <use xlink:href="#m0d8d366668" x="164.713832" y="195.480653" style="fill: #1f77b4; stroke: #1f77b4"/>
     <use xlink:href="#m0d8d366668" x="166.345262" y="195.941231" style="fill: #1f77b4; stroke: #1f77b4"/>
     <use xlink:href="#m0d8d366668" x="167.976692" y="196.42401" style="fill: #1f77b4; stroke: #1f77b4"/>
     <use xlink:href="#m0d8d366668" x="169.608122" y="196.880008" style="fill: #1f77b4; stroke: #1f77b4"/>
     <use xlink:href="#m0d8d366668" x="171.239552" y="197.35751" style="fill: #1f77b4; stroke: #1f77b4"/>
     <use xlink:href="#m0d8d366668" x="172.870982" y="197.843643" style="fill: #1f77b4; stroke: #1f77b4"/>
     <use xlink:href="#m0d8d366668" x="174.502412" y="198.257859" style="fill: #1f77b4; stroke: #1f77b4"/>
     <use xlink:href="#m0d8d366668" x="176.133842" y="198.647088" style="fill: #1f77b4; stroke: #1f77b4"/>
     <use xlink:href="#m0d8d366668" x="177.765271" y="198.940593" style="fill: #1f77b4; stroke: #1f77b4"/>
     <use xlink:href="#m0d8d366668" x="179.396701" y="199.180743" style="fill: #1f77b4; stroke: #1f77b4"/>
     <use xlink:href="#m0d8d366668" x="181.028131" y="199.227274" style="fill: #1f77b4; stroke: #1f77b4"/>
     <use xlink:href="#m0d8d366668" x="182.659561" y="199.10811" style="fill: #1f77b4; stroke: #1f77b4"/>
     <use xlink:href="#m0d8d366668" x="184.290991" y="198.614709" style="fill: #1f77b4; stroke: #1f77b4"/>
     <use xlink:href="#m0d8d366668" x="185.922421" y="197.795079" style="fill: #1f77b4; stroke: #1f77b4"/>
     <use xlink:href="#m0d8d366668" x="187.553851" y="196.421371" style="fill: #1f77b4; stroke: #1f77b4"/>
     <use xlink:href="#m0d8d366668" x="189.185281" y="193.654108" style="fill: #1f77b4; stroke: #1f77b4"/>
     <use xlink:href="#m0d8d366668" x="190.81671" y="299.863047" style="fill: #1f77b4; stroke: #1f77b4"/>
     <use xlink:href="#m0d8d366668" x="192.44814" y="295.024936" style="fill: #1f77b4; stroke: #1f77b4"/>
     <use xlink:href="#m0d8d366668" x="194.07957" y="289.971959" style="fill: #1f77b4; stroke: #1f77b4"/>
     <use xlink:href="#m0d8d366668" x="195.711" y="285.808338" style="fill: #1f77b4; stroke: #1f77b4"/>
     <use xlink:href="#m0d8d366668" x="197.34243" y="283.130693" style="fill: #1f77b4; stroke: #1f77b4"/>
     <use xlink:href="#m0d8d366668" x="198.97386" y="281.259118" style="fill: #1f77b4; stroke: #1f77b4"/>
     <use xlink:href="#m0d8d366668" x="200.60529" y="280.178128" style="fill: #1f77b4; stroke: #1f77b4"/>
     <use xlink:href="#m0d8d366668" x="202.23672" y="279.56781" style="fill: #1f77b4; stroke: #1f77b4"/>
     <use xlink:href="#m0d8d366668" x="203.868149" y="279.327651" style="fill: #1f77b4; stroke: #1f77b4"/>
     <use xlink:href="#m0d8d366668" x="205.499579" y="279.198944" style="fill: #1f77b4; stroke: #1f77b4"/>
     <use xlink:href="#m0d8d366668" x="207.131009" y="279.290723" style="fill: #1f77b4; stroke: #1f77b4"/>
     <use xlink:href="#m0d8d366668" x="208.762439" y="279.469005" style="fill: #1f77b4; stroke: #1f77b4"/>
     <use xlink:href="#m0d8d366668" x="210.393869" y="279.685229" style="fill: #1f77b4; stroke: #1f77b4"/>
     <use xlink:href="#m0d8d366668" x="212.025299" y="279.959078" style="fill: #1f77b4; stroke: #1f77b4"/>
     <use xlink:href="#m0d8d366668" x="213.656729" y="280.258361" style="fill: #1f77b4; stroke: #1f77b4"/>
     <use xlink:href="#m0d8d366668" x="215.288159" y="280.604704" style="fill: #1f77b4; stroke: #1f77b4"/>
     <use xlink:href="#m0d8d366668" x="216.919588" y="280.900182" style="fill: #1f77b4; stroke: #1f77b4"/>
     <use xlink:href="#m0d8d366668" x="218.551018" y="281.24337" style="fill: #1f77b4; stroke: #1f77b4"/>
     <use xlink:href="#m0d8d366668" x="220.182448" y="281.546157" style="fill: #1f77b4; stroke: #1f77b4"/>
     <use xlink:href="#m0d8d366668" x="221.813878" y="281.868298" style="fill: #1f77b4; stroke: #1f77b4"/>
     <use xlink:href="#m0d8d366668" x="223.445308" y="282.252548" style="fill: #1f77b4; stroke: #1f77b4"/>
     <use xlink:href="#m0d8d366668" x="225.076738" y="282.609456" style="fill: #1f77b4; stroke: #1f77b4"/>
     <use xlink:href="#m0d8d366668" x="226.708168" y="282.984796" style="fill: #1f77b4; stroke: #1f77b4"/>
     <use xlink:href="#m0d8d366668" x="228.339598" y="283.278252" style="fill: #1f77b4; stroke: #1f77b4"/>
     <use xlink:href="#m0d8d366668" x="229.971027" y="283.66244" style="fill: #1f77b4; stroke: #1f77b4"/>
     <use xlink:href="#m0d8d366668" x="231.602457" y="283.915798" style="fill: #1f77b4; stroke: #1f77b4"/>
     <use xlink:href="#m0d8d366668" x="233.233887" y="284.148325" style="fill: #1f77b4; stroke: #1f77b4"/>
     <use xlink:href="#m0d8d366668" x="234.865317" y="284.38985" style="fill: #1f77b4; stroke: #1f77b4"/>
     <use xlink:href="#m0d8d366668" x="236.496747" y="284.70969" style="fill: #1f77b4; stroke: #1f77b4"/>
     <use xlink:href="#m0d8d366668" x="238.128177" y="284.943082" style="fill: #1f77b4; stroke: #1f77b4"/>
     <use xlink:href="#m0d8d366668" x="239.759607" y="285.121149" style="fill: #1f77b4; stroke: #1f77b4"/>
     <use xlink:href="#m0d8d366668" x="241.391037" y="285.410714" style="fill: #1f77b4; stroke: #1f77b4"/>
     <use xlink:href="#m0d8d366668" x="243.022466" y="285.712075" style="fill: #1f77b4; stroke: #1f77b4"/>
     <use xlink:href="#m0d8d366668" x="244.653896" y="285.881473" style="fill: #1f77b4; stroke: #1f77b4"/>
     <use xlink:href="#m0d8d366668" x="246.285326" y="286.116039" style="fill: #1f77b4; stroke: #1f77b4"/>
     <use xlink:href="#m0d8d366668" x="247.916756" y="286.323359" style="fill: #1f77b4; stroke: #1f77b4"/>
     <use xlink:href="#m0d8d366668" x="249.548186" y="286.523834" style="fill: #1f77b4; stroke: #1f77b4"/>
     <use xlink:href="#m0d8d366668" x="251.179616" y="286.791417" style="fill: #1f77b4; stroke: #1f77b4"/>
     <use xlink:href="#m0d8d366668" x="252.811046" y="286.954335" style="fill: #1f77b4; stroke: #1f77b4"/>
     <use xlink:href="#m0d8d366668" x="254.442476" y="287.190857" style="fill: #1f77b4; stroke: #1f77b4"/>
     <use xlink:href="#m0d8d366668" x="256.073905" y="287.429667" style="fill: #1f77b4; stroke: #1f77b4"/>
     <use xlink:href="#m0d8d366668" x="257.705335" y="287.550951" style="fill: #1f77b4; stroke: #1f77b4"/>
     <use xlink:href="#m0d8d366668" x="259.336765" y="287.796805" style="fill: #1f77b4; stroke: #1f77b4"/>
     <use xlink:href="#m0d8d366668" x="260.968195" y="287.875779" style="fill: #1f77b4; stroke: #1f77b4"/>
     <use xlink:href="#m0d8d366668" x="262.599625" y="288.103024" style="fill: #1f77b4; stroke: #1f77b4"/>
     <use xlink:href="#m0d8d366668" x="264.231055" y="288.326961" style="fill: #1f77b4; stroke: #1f77b4"/>
     <use xlink:href="#m0d8d366668" x="265.862485" y="288.450742" style="fill: #1f77b4; stroke: #1f77b4"/>
     <use xlink:href="#m0d8d366668" x="267.493915" y="288.651664" style="fill: #1f77b4; stroke: #1f77b4"/>
     <use xlink:href="#m0d8d366668" x="269.125344" y="288.828407" style="fill: #1f77b4; stroke: #1f77b4"/>
     <use xlink:href="#m0d8d366668" x="270.756774" y="288.995623" style="fill: #1f77b4; stroke: #1f77b4"/>
     <use xlink:href="#m0d8d366668" x="272.388204" y="289.166641" style="fill: #1f77b4; stroke: #1f77b4"/>
     <use xlink:href="#m0d8d366668" x="274.019634" y="289.258839" style="fill: #1f77b4; stroke: #1f77b4"/>
     <use xlink:href="#m0d8d366668" x="275.651064" y="289.433039" style="fill: #1f77b4; stroke: #1f77b4"/>
     <use xlink:href="#m0d8d366668" x="277.282494" y="289.638359" style="fill: #1f77b4; stroke: #1f77b4"/>
     <use xlink:href="#m0d8d366668" x="278.913924" y="289.7726" style="fill: #1f77b4; stroke: #1f77b4"/>
     <use xlink:href="#m0d8d366668" x="280.545354" y="289.934833" style="fill: #1f77b4; stroke: #1f77b4"/>
     <use xlink:href="#m0d8d366668" x="282.176783" y="290.063818" style="fill: #1f77b4; stroke: #1f77b4"/>
     <use xlink:href="#m0d8d366668" x="283.808213" y="290.224159" style="fill: #1f77b4; stroke: #1f77b4"/>
     <use xlink:href="#m0d8d366668" x="285.439643" y="290.331565" style="fill: #1f77b4; stroke: #1f77b4"/>
     <use xlink:href="#m0d8d366668" x="287.071073" y="290.483204" style="fill: #1f77b4; stroke: #1f77b4"/>
     <use xlink:href="#m0d8d366668" x="288.702503" y="290.62599" style="fill: #1f77b4; stroke: #1f77b4"/>
     <use xlink:href="#m0d8d366668" x="290.333933" y="290.754631" style="fill: #1f77b4; stroke: #1f77b4"/>
     <use xlink:href="#m0d8d366668" x="291.965363" y="290.818812" style="fill: #1f77b4; stroke: #1f77b4"/>
     <use xlink:href="#m0d8d366668" x="293.596793" y="291.024705" style="fill: #1f77b4; stroke: #1f77b4"/>
     <use xlink:href="#m0d8d366668" x="295.228223" y="291.099165" style="fill: #1f77b4; stroke: #1f77b4"/>
     <use xlink:href="#m0d8d366668" x="296.859652" y="291.267585" style="fill: #1f77b4; stroke: #1f77b4"/>
     <use xlink:href="#m0d8d366668" x="298.491082" y="291.403835" style="fill: #1f77b4; stroke: #1f77b4"/>
     <use xlink:href="#m0d8d366668" x="300.122512" y="291.53336" style="fill: #1f77b4; stroke: #1f77b4"/>
     <use xlink:href="#m0d8d366668" x="301.753942" y="291.608708" style="fill: #1f77b4; stroke: #1f77b4"/>
     <use xlink:href="#m0d8d366668" x="303.385372" y="291.802696" style="fill: #1f77b4; stroke: #1f77b4"/>
     <use xlink:href="#m0d8d366668" x="305.016802" y="291.891576" style="fill: #1f77b4; stroke: #1f77b4"/>
     <use xlink:href="#m0d8d366668" x="306.648232" y="292.073639" style="fill: #1f77b4; stroke: #1f77b4"/>
     <use xlink:href="#m0d8d366668" x="308.279662" y="292.133497" style="fill: #1f77b4; stroke: #1f77b4"/>
     <use xlink:href="#m0d8d366668" x="309.911091" y="292.232872" style="fill: #1f77b4; stroke: #1f77b4"/>
     <use xlink:href="#m0d8d366668" x="311.542521" y="292.377774" style="fill: #1f77b4; stroke: #1f77b4"/>
     <use xlink:href="#m0d8d366668" x="313.173951" y="292.449506" style="fill: #1f77b4; stroke: #1f77b4"/>
     <use xlink:href="#m0d8d366668" x="314.805381" y="292.566758" style="fill: #1f77b4; stroke: #1f77b4"/>
     <use xlink:href="#m0d8d366668" x="316.436811" y="292.663202" style="fill: #1f77b4; stroke: #1f77b4"/>
     <use xlink:href="#m0d8d366668" x="318.068241" y="292.774723" style="fill: #1f77b4; stroke: #1f77b4"/>
     <use xlink:href="#m0d8d366668" x="319.699671" y="292.824351" style="fill: #1f77b4; stroke: #1f77b4"/>
     <use xlink:href="#m0d8d366668" x="321.331101" y="292.95834" style="fill: #1f77b4; stroke: #1f77b4"/>
     <use xlink:href="#m0d8d366668" x="322.96253" y="293.06383" style="fill: #1f77b4; stroke: #1f77b4"/>
     <use xlink:href="#m0d8d366668" x="324.59396" y="293.190924" style="fill: #1f77b4; stroke: #1f77b4"/>
     <use xlink:href="#m0d8d366668" x="326.22539" y="293.24097" style="fill: #1f77b4; stroke: #1f77b4"/>
     <use xlink:href="#m0d8d366668" x="327.85682" y="293.374394" style="fill: #1f77b4; stroke: #1f77b4"/>
     <use xlink:href="#m0d8d366668" x="329.48825" y="293.401507" style="fill: #1f77b4; stroke: #1f77b4"/>
     <use xlink:href="#m0d8d366668" x="331.11968" y="293.482772" style="fill: #1f77b4; stroke: #1f77b4"/>
     <use xlink:href="#m0d8d366668" x="332.75111" y="293.548433" style="fill: #1f77b4; stroke: #1f77b4"/>
     <use xlink:href="#m0d8d366668" x="334.38254" y="293.708176" style="fill: #1f77b4; stroke: #1f77b4"/>
     <use xlink:href="#m0d8d366668" x="336.013969" y="293.865606" style="fill: #1f77b4; stroke: #1f77b4"/>
     <use xlink:href="#m0d8d366668" x="337.645399" y="293.898057" style="fill: #1f77b4; stroke: #1f77b4"/>
     <use xlink:href="#m0d8d366668" x="339.276829" y="294.00507" style="fill: #1f77b4; stroke: #1f77b4"/>
     <use xlink:href="#m0d8d366668" x="340.908259" y="294.090899" style="fill: #1f77b4; stroke: #1f77b4"/>
     <use xlink:href="#m0d8d366668" x="342.539689" y="294.172701" style="fill: #1f77b4; stroke: #1f77b4"/>
     <use xlink:href="#m0d8d366668" x="344.171119" y="294.332216" style="fill: #1f77b4; stroke: #1f77b4"/>
     <use xlink:href="#m0d8d366668" x="345.802549" y="294.446984" style="fill: #1f77b4; stroke: #1f77b4"/>
     <use xlink:href="#m0d8d366668" x="347.433979" y="294.508998" style="fill: #1f77b4; stroke: #1f77b4"/>
     <use xlink:href="#m0d8d366668" x="349.065408" y="294.607648" style="fill: #1f77b4; stroke: #1f77b4"/>
     <use xlink:href="#m0d8d366668" x="350.696838" y="294.711055" style="fill: #1f77b4; stroke: #1f77b4"/>
     <use xlink:href="#m0d8d366668" x="352.328268" y="294.837463" style="fill: #1f77b4; stroke: #1f77b4"/>
     <use xlink:href="#m0d8d366668" x="353.959698" y="294.974222" style="fill: #1f77b4; stroke: #1f77b4"/>
     <use xlink:href="#m0d8d366668" x="355.591128" y="295.082773" style="fill: #1f77b4; stroke: #1f77b4"/>
     <use xlink:href="#m0d8d366668" x="357.222558" y="295.131767" style="fill: #1f77b4; stroke: #1f77b4"/>
     <use xlink:href="#m0d8d366668" x="358.853988" y="295.22912" style="fill: #1f77b4; stroke: #1f77b4"/>
     <use xlink:href="#m0d8d366668" x="360.485418" y="295.320055" style="fill: #1f77b4; stroke: #1f77b4"/>
     <use xlink:href="#m0d8d366668" x="362.116847" y="295.454657" style="fill: #1f77b4; stroke: #1f77b4"/>
     <use xlink:href="#m0d8d366668" x="363.748277" y="295.539999" style="fill: #1f77b4; stroke: #1f77b4"/>
     <use xlink:href="#m0d8d366668" x="365.379707" y="295.616498" style="fill: #1f77b4; stroke: #1f77b4"/>
     <use xlink:href="#m0d8d366668" x="367.011137" y="295.682675" style="fill: #1f77b4; stroke: #1f77b4"/>
     <use xlink:href="#m0d8d366668" x="368.642567" y="295.79534" style="fill: #1f77b4; stroke: #1f77b4"/>
     <use xlink:href="#m0d8d366668" x="370.273997" y="295.893304" style="fill: #1f77b4; stroke: #1f77b4"/>
     <use xlink:href="#m0d8d366668" x="371.905427" y="296.014183" style="fill: #1f77b4; stroke: #1f77b4"/>
     <use xlink:href="#m0d8d366668" x="373.536857" y="296.099028" style="fill: #1f77b4; stroke: #1f77b4"/>
     <use xlink:href="#m0d8d366668" x="375.168286" y="296.225848" style="fill: #1f77b4; stroke: #1f77b4"/>
     <use xlink:href="#m0d8d366668" x="376.799716" y="296.276282" style="fill: #1f77b4; stroke: #1f77b4"/>
     <use xlink:href="#m0d8d366668" x="378.431146" y="296.380057" style="fill: #1f77b4; stroke: #1f77b4"/>
     <use xlink:href="#m0d8d366668" x="380.062576" y="296.475054" style="fill: #1f77b4; stroke: #1f77b4"/>
     <use xlink:href="#m0d8d366668" x="381.694006" y="296.579466" style="fill: #1f77b4; stroke: #1f77b4"/>
     <use xlink:href="#m0d8d366668" x="383.325436" y="296.647735" style="fill: #1f77b4; stroke: #1f77b4"/>
     <use xlink:href="#m0d8d366668" x="384.956866" y="296.748103" style="fill: #1f77b4; stroke: #1f77b4"/>
     <use xlink:href="#m0d8d366668" x="386.588296" y="296.853603" style="fill: #1f77b4; stroke: #1f77b4"/>
     <use xlink:href="#m0d8d366668" x="388.219725" y="296.926124" style="fill: #1f77b4; stroke: #1f77b4"/>
     <use xlink:href="#m0d8d366668" x="389.851155" y="297.003379" style="fill: #1f77b4; stroke: #1f77b4"/>
     <use xlink:href="#m0d8d366668" x="391.482585" y="297.096798" style="fill: #1f77b4; stroke: #1f77b4"/>
    </g>
   </g>
   <g id="line2d_24">
    <path d="M 66.82804 291.049359 
L 86.001832 292.576307 
L 101.275869 294.007116 
L 113.950071 295.411714 
L 124.674395 296.822387 
L 133.773822 298.240379 
L 141.89831 299.733671 
L 149.04786 301.270369 
L 153.597573 302.373818 
L 153.922552 192.410182 
L 160.747122 194.268237 
L 171.146467 197.386584 
L 175.696181 198.619978 
L 178.620996 199.187879 
L 180.570874 199.367538 
L 182.195771 199.317807 
L 183.495689 199.085435 
L 184.795607 198.60912 
L 185.770546 198.033474 
L 186.745484 197.208152 
L 187.720423 196.059795 
L 188.695362 194.501368 
L 189.6703 192.447398 
L 189.99528 301.689165 
L 190.970218 298.925562 
L 192.920095 292.455311 
L 194.220014 288.437278 
L 195.194952 285.982495 
L 196.169891 284.05309 
L 197.144829 282.587736 
L 198.119768 281.497938 
L 199.094706 280.700313 
L 200.394625 279.975841 
L 201.694543 279.531834 
L 203.31944 279.248643 
L 205.269317 279.173664 
L 207.544174 279.314437 
L 210.793969 279.755408 
L 215.993642 280.719121 
L 232.892577 283.976528 
L 241.992004 285.449314 
L 252.066369 286.848037 
L 263.440652 288.195822 
L 276.764813 289.543893 
L 292.68881 290.924698 
L 312.187581 292.384662 
L 336.561046 293.978041 
L 367.75908 295.78487 
L 391.482585 297.047418 
L 391.482585 297.047418 
" clip-path="url(#p7507a1e141)" style="fill: none; stroke: #d62728; stroke-width: 1.5; stroke-linecap: square"/>
   </g>
   <g id="patch_9">
    <path d="M 50.595313 307.872 
L 50.595313 186.912 
" style="fill: none; stroke: #000000; stroke-width: 0.8; stroke-linejoin: miter; stroke-linecap: square"/>
   </g>
   <g id="patch_10">
    <path d="M 407.715312 307.872 
L 407.715312 186.912 
" style="fill: none; stroke: #000000; stroke-width: 0.8; stroke-linejoin: miter; stroke-linecap: square"/>
   </g>
   <g id="patch_11">
    <path d="M 50.595312 307.872 
L 407.715312 307.872 
" style="fill: none; stroke: #000000; stroke-width: 0.8; stroke-linejoin: miter; stroke-linecap: square"/>
   </g>
   <g id="patch_12">
    <path d="M 50.595312 186.912 
L 407.715312 186.912 
" style="fill: none; stroke: #000000; stroke-width: 0.8; stroke-linejoin: miter; stroke-linecap: square"/>
   </g>
  </g>
  <g id="text_20">
   <!-- S21 resonator spectroscopy -->
   <g transform="translate(139.610938 16.318125) scale(0.12 -0.12)">
    <defs>
     <path id="DejaVuSans-73" d="M 2834 3397 
L 2834 2853 
Q 2591 2978 2328 3040 
Q 2066 3103 1784 3103 
Q 1356 3103 1142 2972 
Q 928 2841 928 2578 
Q 928 2378 1081 2264 
Q 1234 2150 1697 2047 
L 1894 2003 
Q 2506 1872 2764 1633 
Q 3022 1394 3022 966 
Q 3022 478 2636 193 
Q 2250 -91 1575 -91 
Q 1294 -91 989 -36 
Q 684 19 347 128 
L 347 722 
Q 666 556 975 473 
Q 1284 391 1588 391 
Q 1994 391 2212 530 
Q 2431 669 2431 922 
Q 2431 1156 2273 1281 
Q 2116 1406 1581 1522 
L 1381 1569 
Q 847 1681 609 1914 
Q 372 2147 372 2553 
Q 372 3047 722 3315 
Q 1072 3584 1716 3584 
Q 2034 3584 2315 3537 
Q 2597 3491 2834 3397 
z
" transform="scale(0.015625)"/>
     <path id="DejaVuSans-6f" d="M 1959 3097 
Q 1497 3097 1228 2736 
Q 959 2375 959 1747 
Q 959 1119 1226 758 
Q 1494 397 1959 397 
Q 2419 397 2687 759 
Q 2956 1122 2956 1747 
Q 2956 2369 2687 2733 
Q 2419 3097 1959 3097 
z
M 1959 3584 
Q 2709 3584 3137 3096 
Q 3566 2609 3566 1747 
Q 3566 888 3137 398 
Q 2709 -91 1959 -91 
Q 1206 -91 779 398 
Q 353 888 353 1747 
Q 353 2609 779 3096 
Q 1206 3584 1959 3584 
z
" transform="scale(0.015625)"/>
     <path id="DejaVuSans-74" d="M 1172 4494 
L 1172 3500 
L 2356 3500 
L 2356 3053 
L 1172 3053 
L 1172 1153 
Q 1172 725 1289 603 
Q 1406 481 1766 481 
L 2356 481 
L 2356 0 
L 1766 0 
Q 1100 0 847 248 
Q 594 497 594 1153 
L 594 3053 
L 172 3053 
L 172 3500 
L 594 3500 
L 594 4494 
L 1172 4494 
z
" transform="scale(0.015625)"/>
     <path id="DejaVuSans-70" d="M 1159 525 
L 1159 -1331 
L 581 -1331 
L 581 3500 
L 1159 3500 
L 1159 2969 
Q 1341 3281 1617 3432 
Q 1894 3584 2278 3584 
Q 2916 3584 3314 3078 
Q 3713 2572 3713 1747 
Q 3713 922 3314 415 
Q 2916 -91 2278 -91 
Q 1894 -91 1617 61 
Q 1341 213 1159 525 
z
M 3116 1747 
Q 3116 2381 2855 2742 
Q 2594 3103 2138 3103 
Q 1681 3103 1420 2742 
Q 1159 2381 1159 1747 
Q 1159 1113 1420 752 
Q 1681 391 2138 391 
Q 2594 391 2855 752 
Q 3116 1113 3116 1747 
z
" transform="scale(0.015625)"/>
    </defs>
    <use xlink:href="#DejaVuSans-53"/>
    <use xlink:href="#DejaVuSans-32" x="63.476562"/>
    <use xlink:href="#DejaVuSans-31" x="127.099609"/>
    <use xlink:href="#DejaVuSans-20" x="190.722656"/>
    <use xlink:href="#DejaVuSans-72" x="222.509766"/>
    <use xlink:href="#DejaVuSans-65" x="261.373047"/>
    <use xlink:href="#DejaVuSans-73" x="322.896484"/>
    <use xlink:href="#DejaVuSans-6f" x="374.996094"/>
    <use xlink:href="#DejaVuSans-6e" x="436.177734"/>
    <use xlink:href="#DejaVuSans-61" x="499.556641"/>
    <use xlink:href="#DejaVuSans-74" x="560.835938"/>
    <use xlink:href="#DejaVuSans-6f" x="600.044922"/>
    <use xlink:href="#DejaVuSans-72" x="661.226562"/>
    <use xlink:href="#DejaVuSans-20" x="702.339844"/>
    <use xlink:href="#DejaVuSans-73" x="734.126953"/>
    <use xlink:href="#DejaVuSans-70" x="786.226562"/>
    <use xlink:href="#DejaVuSans-65" x="849.703125"/>
    <use xlink:href="#DejaVuSans-63" x="911.226562"/>
    <use xlink:href="#DejaVuSans-74" x="966.207031"/>
    <use xlink:href="#DejaVuSans-72" x="1005.416016"/>
    <use xlink:href="#DejaVuSans-6f" x="1044.279297"/>
    <use xlink:href="#DejaVuSans-73" x="1105.460938"/>
    <use xlink:href="#DejaVuSans-63" x="1157.560547"/>
    <use xlink:href="#DejaVuSans-6f" x="1212.541016"/>
    <use xlink:href="#DejaVuSans-70" x="1273.722656"/>
    <use xlink:href="#DejaVuSans-79" x="1337.199219"/>
   </g>
   <!-- tuid: 20240105-143624-177-574e56 -->
   <g transform="translate(113.665625 29.7555) scale(0.12 -0.12)">
    <defs>
     <path id="DejaVuSans-69" d="M 603 3500 
L 1178 3500 
L 1178 0 
L 603 0 
L 603 3500 
z
M 603 4863 
L 1178 4863 
L 1178 4134 
L 603 4134 
L 603 4863 
z
" transform="scale(0.015625)"/>
    </defs>
    <use xlink:href="#DejaVuSans-74"/>
    <use xlink:href="#DejaVuSans-75" x="39.208984"/>
    <use xlink:href="#DejaVuSans-69" x="102.587891"/>
    <use xlink:href="#DejaVuSans-64" x="130.371094"/>
    <use xlink:href="#DejaVuSans-3a" x="193.847656"/>
    <use xlink:href="#DejaVuSans-20" x="227.539062"/>
    <use xlink:href="#DejaVuSans-32" x="259.326172"/>
    <use xlink:href="#DejaVuSans-30" x="322.949219"/>
    <use xlink:href="#DejaVuSans-32" x="386.572266"/>
    <use xlink:href="#DejaVuSans-34" x="450.195312"/>
    <use xlink:href="#DejaVuSans-30" x="513.818359"/>
    <use xlink:href="#DejaVuSans-31" x="577.441406"/>
    <use xlink:href="#DejaVuSans-30" x="641.064453"/>
    <use xlink:href="#DejaVuSans-35" x="704.6875"/>
    <use xlink:href="#DejaVuSans-2d" x="768.310547"/>
    <use xlink:href="#DejaVuSans-31" x="804.394531"/>
    <use xlink:href="#DejaVuSans-34" x="868.017578"/>
    <use xlink:href="#DejaVuSans-33" x="931.640625"/>
    <use xlink:href="#DejaVuSans-36" x="995.263672"/>
    <use xlink:href="#DejaVuSans-32" x="1058.886719"/>
    <use xlink:href="#DejaVuSans-34" x="1122.509766"/>
    <use xlink:href="#DejaVuSans-2d" x="1186.132812"/>
    <use xlink:href="#DejaVuSans-31" x="1222.216797"/>
    <use xlink:href="#DejaVuSans-37" x="1285.839844"/>
    <use xlink:href="#DejaVuSans-37" x="1349.462891"/>
    <use xlink:href="#DejaVuSans-2d" x="1413.085938"/>
    <use xlink:href="#DejaVuSans-35" x="1449.169922"/>
    <use xlink:href="#DejaVuSans-37" x="1512.792969"/>
    <use xlink:href="#DejaVuSans-34" x="1576.416016"/>
    <use xlink:href="#DejaVuSans-65" x="1640.039062"/>
    <use xlink:href="#DejaVuSans-35" x="1701.5625"/>
    <use xlink:href="#DejaVuSans-36" x="1765.185547"/>
   </g>
  </g>
 </g>
 <defs>
  <clipPath id="pbc51cf5f5d">
   <rect x="50.595313" y="41.76" width="357.12" height="120.96"/>
  </clipPath>
  <clipPath id="p7507a1e141">
   <rect x="50.595313" y="186.912" width="357.12" height="120.96"/>
  </clipPath>
 </defs>
</svg>
