<?xml version="1.0" encoding="utf-8" standalone="no"?>
<!DOCTYPE svg PUBLIC "-//W3C//DTD SVG 1.1//EN"
  "http://www.w3.org/Graphics/SVG/1.1/DTD/svg11.dtd">
<svg xmlns:xlink="http://www.w3.org/1999/xlink" width="572.186937pt" height="345.42825pt" viewBox="0 0 572.186937 345.42825" xmlns="http://www.w3.org/2000/svg" version="1.1">
 <metadata>
  <rdf:RDF xmlns:dc="http://purl.org/dc/elements/1.1/" xmlns:cc="http://creativecommons.org/ns#" xmlns:rdf="http://www.w3.org/1999/02/22-rdf-syntax-ns#">
   <cc:Work>
    <dc:type rdf:resource="http://purl.org/dc/dcmitype/StillImage"/>
    <dc:date>2024-01-05T14:36:53.004239</dc:date>
    <dc:format>image/svg+xml</dc:format>
    <dc:creator>
     <cc:Agent>
      <dc:title>Matplotlib v3.8.1, https://matplotlib.org/</dc:title>
     </cc:Agent>
    </dc:creator>
   </cc:Work>
  </rdf:RDF>
 </metadata>
 <defs>
  <style type="text/css">*{stroke-linejoin: round; stroke-linecap: butt}</style>
 </defs>
 <g id="figure_1">
  <g id="patch_1">
   <path d="M 0 345.42825 
L 572.186937 345.42825 
L 572.186937 -0 
L 0 -0 
L 0 345.42825 
z
" style="fill: none; opacity: 0"/>
  </g>
  <g id="axes_1">
   <g id="patch_2">
    <path d="M 44.210938 307.872 
L 401.330938 307.872 
L 401.330938 41.76 
L 44.210938 41.76 
z
" style="fill: #ffffff"/>
   </g>
   <g id="matplotlib.axis_1">
    <g id="xtick_1">
     <g id="line2d_1">
      <defs>
       <path id="m1863c1fe89" d="M 0 0 
L 0 3.5 
" style="stroke: #000000; stroke-width: 0.8"/>
      </defs>
      <g>
       <use xlink:href="#m1863c1fe89" x="52.767828" y="307.872" style="stroke: #000000; stroke-width: 0.8"/>
      </g>
     </g>
     <g id="text_1">
      <!-- -100 -->
      <g transform="translate(41.420171 322.470438) scale(0.1 -0.1)">
       <defs>
        <path id="DejaVuSans-2d" d="M 313 2009 
L 1997 2009 
L 1997 1497 
L 313 1497 
L 313 2009 
z
" transform="scale(0.015625)"/>
        <path id="DejaVuSans-31" d="M 794 531 
L 1825 531 
L 1825 4091 
L 703 3866 
L 703 4441 
L 1819 4666 
L 2450 4666 
L 2450 531 
L 3481 531 
L 3481 0 
L 794 0 
L 794 531 
z
" transform="scale(0.015625)"/>
        <path id="DejaVuSans-30" d="M 2034 4250 
Q 1547 4250 1301 3770 
Q 1056 3291 1056 2328 
Q 1056 1369 1301 889 
Q 1547 409 2034 409 
Q 2525 409 2770 889 
Q 3016 1369 3016 2328 
Q 3016 3291 2770 3770 
Q 2525 4250 2034 4250 
z
M 2034 4750 
Q 2819 4750 3233 4129 
Q 3647 3509 3647 2328 
Q 3647 1150 3233 529 
Q 2819 -91 2034 -91 
Q 1250 -91 836 529 
Q 422 1150 422 2328 
Q 422 3509 836 4129 
Q 1250 4750 2034 4750 
z
" transform="scale(0.015625)"/>
       </defs>
       <use xlink:href="#DejaVuSans-2d"/>
       <use xlink:href="#DejaVuSans-31" x="36.083984"/>
       <use xlink:href="#DejaVuSans-30" x="99.707031"/>
       <use xlink:href="#DejaVuSans-30" x="163.330078"/>
      </g>
     </g>
    </g>
    <g id="xtick_2">
     <g id="line2d_2">
      <g>
       <use xlink:href="#m1863c1fe89" x="124.653306" y="307.872" style="stroke: #000000; stroke-width: 0.8"/>
      </g>
     </g>
     <g id="text_2">
      <!-- -80 -->
      <g transform="translate(116.486899 322.470438) scale(0.1 -0.1)">
       <defs>
        <path id="DejaVuSans-38" d="M 2034 2216 
Q 1584 2216 1326 1975 
Q 1069 1734 1069 1313 
Q 1069 891 1326 650 
Q 1584 409 2034 409 
Q 2484 409 2743 651 
Q 3003 894 3003 1313 
Q 3003 1734 2745 1975 
Q 2488 2216 2034 2216 
z
M 1403 2484 
Q 997 2584 770 2862 
Q 544 3141 544 3541 
Q 544 4100 942 4425 
Q 1341 4750 2034 4750 
Q 2731 4750 3128 4425 
Q 3525 4100 3525 3541 
Q 3525 3141 3298 2862 
Q 3072 2584 2669 2484 
Q 3125 2378 3379 2068 
Q 3634 1759 3634 1313 
Q 3634 634 3220 271 
Q 2806 -91 2034 -91 
Q 1263 -91 848 271 
Q 434 634 434 1313 
Q 434 1759 690 2068 
Q 947 2378 1403 2484 
z
M 1172 3481 
Q 1172 3119 1398 2916 
Q 1625 2713 2034 2713 
Q 2441 2713 2670 2916 
Q 2900 3119 2900 3481 
Q 2900 3844 2670 4047 
Q 2441 4250 2034 4250 
Q 1625 4250 1398 4047 
Q 1172 3844 1172 3481 
z
" transform="scale(0.015625)"/>
       </defs>
       <use xlink:href="#DejaVuSans-2d"/>
       <use xlink:href="#DejaVuSans-38" x="36.083984"/>
       <use xlink:href="#DejaVuSans-30" x="99.707031"/>
      </g>
     </g>
    </g>
    <g id="xtick_3">
     <g id="line2d_3">
      <g>
       <use xlink:href="#m1863c1fe89" x="196.538783" y="307.872" style="stroke: #000000; stroke-width: 0.8"/>
      </g>
     </g>
     <g id="text_3">
      <!-- -60 -->
      <g transform="translate(188.372377 322.470438) scale(0.1 -0.1)">
       <defs>
        <path id="DejaVuSans-36" d="M 2113 2584 
Q 1688 2584 1439 2293 
Q 1191 2003 1191 1497 
Q 1191 994 1439 701 
Q 1688 409 2113 409 
Q 2538 409 2786 701 
Q 3034 994 3034 1497 
Q 3034 2003 2786 2293 
Q 2538 2584 2113 2584 
z
M 3366 4563 
L 3366 3988 
Q 3128 4100 2886 4159 
Q 2644 4219 2406 4219 
Q 1781 4219 1451 3797 
Q 1122 3375 1075 2522 
Q 1259 2794 1537 2939 
Q 1816 3084 2150 3084 
Q 2853 3084 3261 2657 
Q 3669 2231 3669 1497 
Q 3669 778 3244 343 
Q 2819 -91 2113 -91 
Q 1303 -91 875 529 
Q 447 1150 447 2328 
Q 447 3434 972 4092 
Q 1497 4750 2381 4750 
Q 2619 4750 2861 4703 
Q 3103 4656 3366 4563 
z
" transform="scale(0.015625)"/>
       </defs>
       <use xlink:href="#DejaVuSans-2d"/>
       <use xlink:href="#DejaVuSans-36" x="36.083984"/>
       <use xlink:href="#DejaVuSans-30" x="99.707031"/>
      </g>
     </g>
    </g>
    <g id="xtick_4">
     <g id="line2d_4">
      <g>
       <use xlink:href="#m1863c1fe89" x="268.424261" y="307.872" style="stroke: #000000; stroke-width: 0.8"/>
      </g>
     </g>
     <g id="text_4">
      <!-- -40 -->
      <g transform="translate(260.257855 322.470438) scale(0.1 -0.1)">
       <defs>
        <path id="DejaVuSans-34" d="M 2419 4116 
L 825 1625 
L 2419 1625 
L 2419 4116 
z
M 2253 4666 
L 3047 4666 
L 3047 1625 
L 3713 1625 
L 3713 1100 
L 3047 1100 
L 3047 0 
L 2419 0 
L 2419 1100 
L 313 1100 
L 313 1709 
L 2253 4666 
z
" transform="scale(0.015625)"/>
       </defs>
       <use xlink:href="#DejaVuSans-2d"/>
       <use xlink:href="#DejaVuSans-34" x="36.083984"/>
       <use xlink:href="#DejaVuSans-30" x="99.707031"/>
      </g>
     </g>
    </g>
    <g id="xtick_5">
     <g id="line2d_5">
      <g>
       <use xlink:href="#m1863c1fe89" x="340.309739" y="307.872" style="stroke: #000000; stroke-width: 0.8"/>
      </g>
     </g>
     <g id="text_5">
      <!-- -20 -->
      <g transform="translate(332.143333 322.470438) scale(0.1 -0.1)">
       <defs>
        <path id="DejaVuSans-32" d="M 1228 531 
L 3431 531 
L 3431 0 
L 469 0 
L 469 531 
Q 828 903 1448 1529 
Q 2069 2156 2228 2338 
Q 2531 2678 2651 2914 
Q 2772 3150 2772 3378 
Q 2772 3750 2511 3984 
Q 2250 4219 1831 4219 
Q 1534 4219 1204 4116 
Q 875 4013 500 3803 
L 500 4441 
Q 881 4594 1212 4672 
Q 1544 4750 1819 4750 
Q 2544 4750 2975 4387 
Q 3406 4025 3406 3419 
Q 3406 3131 3298 2873 
Q 3191 2616 2906 2266 
Q 2828 2175 2409 1742 
Q 1991 1309 1228 531 
z
" transform="scale(0.015625)"/>
       </defs>
       <use xlink:href="#DejaVuSans-2d"/>
       <use xlink:href="#DejaVuSans-32" x="36.083984"/>
       <use xlink:href="#DejaVuSans-30" x="99.707031"/>
      </g>
     </g>
    </g>
    <g id="text_6">
     <!-- Re$(S_{21})$ [mV] -->
     <g transform="translate(190.770938 336.148562) scale(0.1 -0.1)">
      <defs>
       <path id="DejaVuSans-52" d="M 2841 2188 
Q 3044 2119 3236 1894 
Q 3428 1669 3622 1275 
L 4263 0 
L 3584 0 
L 2988 1197 
Q 2756 1666 2539 1819 
Q 2322 1972 1947 1972 
L 1259 1972 
L 1259 0 
L 628 0 
L 628 4666 
L 2053 4666 
Q 2853 4666 3247 4331 
Q 3641 3997 3641 3322 
Q 3641 2881 3436 2590 
Q 3231 2300 2841 2188 
z
M 1259 4147 
L 1259 2491 
L 2053 2491 
Q 2509 2491 2742 2702 
Q 2975 2913 2975 3322 
Q 2975 3731 2742 3939 
Q 2509 4147 2053 4147 
L 1259 4147 
z
" transform="scale(0.015625)"/>
       <path id="DejaVuSans-65" d="M 3597 1894 
L 3597 1613 
L 953 1613 
Q 991 1019 1311 708 
Q 1631 397 2203 397 
Q 2534 397 2845 478 
Q 3156 559 3463 722 
L 3463 178 
Q 3153 47 2828 -22 
Q 2503 -91 2169 -91 
Q 1331 -91 842 396 
Q 353 884 353 1716 
Q 353 2575 817 3079 
Q 1281 3584 2069 3584 
Q 2775 3584 3186 3129 
Q 3597 2675 3597 1894 
z
M 3022 2063 
Q 3016 2534 2758 2815 
Q 2500 3097 2075 3097 
Q 1594 3097 1305 2825 
Q 1016 2553 972 2059 
L 3022 2063 
z
" transform="scale(0.015625)"/>
       <path id="DejaVuSans-28" d="M 1984 4856 
Q 1566 4138 1362 3434 
Q 1159 2731 1159 2009 
Q 1159 1288 1364 580 
Q 1569 -128 1984 -844 
L 1484 -844 
Q 1016 -109 783 600 
Q 550 1309 550 2009 
Q 550 2706 781 3412 
Q 1013 4119 1484 4856 
L 1984 4856 
z
" transform="scale(0.015625)"/>
       <path id="DejaVuSans-Oblique-53" d="M 3859 4513 
L 3738 3897 
Q 3422 4066 3111 4152 
Q 2800 4238 2509 4238 
Q 1944 4238 1609 3991 
Q 1275 3744 1275 3334 
Q 1275 3109 1398 2989 
Q 1522 2869 2034 2731 
L 2413 2638 
Q 3053 2472 3303 2217 
Q 3553 1963 3553 1503 
Q 3553 797 2998 353 
Q 2444 -91 1538 -91 
Q 1166 -91 791 -17 
Q 416 56 38 206 
L 166 856 
Q 513 641 861 531 
Q 1209 422 1556 422 
Q 2147 422 2503 684 
Q 2859 947 2859 1369 
Q 2859 1650 2717 1795 
Q 2575 1941 2106 2059 
L 1728 2156 
Q 1081 2325 845 2545 
Q 609 2766 609 3163 
Q 609 3859 1145 4304 
Q 1681 4750 2541 4750 
Q 2875 4750 3203 4690 
Q 3531 4631 3859 4513 
z
" transform="scale(0.015625)"/>
       <path id="DejaVuSans-29" d="M 513 4856 
L 1013 4856 
Q 1481 4119 1714 3412 
Q 1947 2706 1947 2009 
Q 1947 1309 1714 600 
Q 1481 -109 1013 -844 
L 513 -844 
Q 928 -128 1133 580 
Q 1338 1288 1338 2009 
Q 1338 2731 1133 3434 
Q 928 4138 513 4856 
z
" transform="scale(0.015625)"/>
       <path id="DejaVuSans-20" transform="scale(0.015625)"/>
       <path id="DejaVuSans-5b" d="M 550 4863 
L 1875 4863 
L 1875 4416 
L 1125 4416 
L 1125 -397 
L 1875 -397 
L 1875 -844 
L 550 -844 
L 550 4863 
z
" transform="scale(0.015625)"/>
       <path id="DejaVuSans-6d" d="M 3328 2828 
Q 3544 3216 3844 3400 
Q 4144 3584 4550 3584 
Q 5097 3584 5394 3201 
Q 5691 2819 5691 2113 
L 5691 0 
L 5113 0 
L 5113 2094 
Q 5113 2597 4934 2840 
Q 4756 3084 4391 3084 
Q 3944 3084 3684 2787 
Q 3425 2491 3425 1978 
L 3425 0 
L 2847 0 
L 2847 2094 
Q 2847 2600 2669 2842 
Q 2491 3084 2119 3084 
Q 1678 3084 1418 2786 
Q 1159 2488 1159 1978 
L 1159 0 
L 581 0 
L 581 3500 
L 1159 3500 
L 1159 2956 
Q 1356 3278 1631 3431 
Q 1906 3584 2284 3584 
Q 2666 3584 2933 3390 
Q 3200 3197 3328 2828 
z
" transform="scale(0.015625)"/>
       <path id="DejaVuSans-56" d="M 1831 0 
L 50 4666 
L 709 4666 
L 2188 738 
L 3669 4666 
L 4325 4666 
L 2547 0 
L 1831 0 
z
" transform="scale(0.015625)"/>
       <path id="DejaVuSans-5d" d="M 1947 4863 
L 1947 -844 
L 622 -844 
L 622 -397 
L 1369 -397 
L 1369 4416 
L 622 4416 
L 622 4863 
L 1947 4863 
z
" transform="scale(0.015625)"/>
      </defs>
      <use xlink:href="#DejaVuSans-52" transform="translate(0 0.015625)"/>
      <use xlink:href="#DejaVuSans-65" transform="translate(69.482422 0.015625)"/>
      <use xlink:href="#DejaVuSans-28" transform="translate(131.005859 0.015625)"/>
      <use xlink:href="#DejaVuSans-Oblique-53" transform="translate(170.019531 0.015625)"/>
      <use xlink:href="#DejaVuSans-32" transform="translate(233.496094 -16.390625) scale(0.7)"/>
      <use xlink:href="#DejaVuSans-31" transform="translate(278.032227 -16.390625) scale(0.7)"/>
      <use xlink:href="#DejaVuSans-29" transform="translate(325.302734 0.015625)"/>
      <use xlink:href="#DejaVuSans-20" transform="translate(364.316406 0.015625)"/>
      <use xlink:href="#DejaVuSans-5b" transform="translate(396.103516 0.015625)"/>
      <use xlink:href="#DejaVuSans-6d" transform="translate(435.117188 0.015625)"/>
      <use xlink:href="#DejaVuSans-56" transform="translate(532.529297 0.015625)"/>
      <use xlink:href="#DejaVuSans-5d" transform="translate(600.9375 0.015625)"/>
     </g>
    </g>
   </g>
   <g id="matplotlib.axis_2">
    <g id="ytick_1">
     <g id="line2d_6">
      <defs>
       <path id="m31db4dec17" d="M 0 0 
L -3.5 0 
" style="stroke: #000000; stroke-width: 0.8"/>
      </defs>
      <g>
       <use xlink:href="#m31db4dec17" x="44.210938" y="273.098572" style="stroke: #000000; stroke-width: 0.8"/>
      </g>
     </g>
     <g id="text_7">
      <!-- -60 -->
      <g transform="translate(20.878125 276.89779) scale(0.1 -0.1)">
       <use xlink:href="#DejaVuSans-2d"/>
       <use xlink:href="#DejaVuSans-36" x="36.083984"/>
       <use xlink:href="#DejaVuSans-30" x="99.707031"/>
      </g>
     </g>
    </g>
    <g id="ytick_2">
     <g id="line2d_7">
      <g>
       <use xlink:href="#m31db4dec17" x="44.210938" y="216.728289" style="stroke: #000000; stroke-width: 0.8"/>
      </g>
     </g>
     <g id="text_8">
      <!-- -40 -->
      <g transform="translate(20.878125 220.527508) scale(0.1 -0.1)">
       <use xlink:href="#DejaVuSans-2d"/>
       <use xlink:href="#DejaVuSans-34" x="36.083984"/>
       <use xlink:href="#DejaVuSans-30" x="99.707031"/>
      </g>
     </g>
    </g>
    <g id="ytick_3">
     <g id="line2d_8">
      <g>
       <use xlink:href="#m31db4dec17" x="44.210938" y="160.358006" style="stroke: #000000; stroke-width: 0.8"/>
      </g>
     </g>
     <g id="text_9">
      <!-- -20 -->
      <g transform="translate(20.878125 164.157225) scale(0.1 -0.1)">
       <use xlink:href="#DejaVuSans-2d"/>
       <use xlink:href="#DejaVuSans-32" x="36.083984"/>
       <use xlink:href="#DejaVuSans-30" x="99.707031"/>
      </g>
     </g>
    </g>
    <g id="ytick_4">
     <g id="line2d_9">
      <g>
       <use xlink:href="#m31db4dec17" x="44.210938" y="103.987723" style="stroke: #000000; stroke-width: 0.8"/>
      </g>
     </g>
     <g id="text_10">
      <!-- 0 -->
      <g transform="translate(30.848437 107.786942) scale(0.1 -0.1)">
       <use xlink:href="#DejaVuSans-30"/>
      </g>
     </g>
    </g>
    <g id="ytick_5">
     <g id="line2d_10">
      <g>
       <use xlink:href="#m31db4dec17" x="44.210938" y="47.617441" style="stroke: #000000; stroke-width: 0.8"/>
      </g>
     </g>
     <g id="text_11">
      <!-- 20 -->
      <g transform="translate(24.485937 51.416659) scale(0.1 -0.1)">
       <use xlink:href="#DejaVuSans-32"/>
       <use xlink:href="#DejaVuSans-30" x="63.623047"/>
      </g>
     </g>
    </g>
    <g id="text_12">
     <!-- Im$(S_{21})$ [mV] -->
     <g transform="translate(14.798437 206.466) rotate(-90) scale(0.1 -0.1)">
      <defs>
       <path id="DejaVuSans-49" d="M 628 4666 
L 1259 4666 
L 1259 0 
L 628 0 
L 628 4666 
z
" transform="scale(0.015625)"/>
      </defs>
      <use xlink:href="#DejaVuSans-49" transform="translate(0 0.015625)"/>
      <use xlink:href="#DejaVuSans-6d" transform="translate(25.867188 0.015625)"/>
      <use xlink:href="#DejaVuSans-28" transform="translate(123.279297 0.015625)"/>
      <use xlink:href="#DejaVuSans-Oblique-53" transform="translate(162.292969 0.015625)"/>
      <use xlink:href="#DejaVuSans-32" transform="translate(225.769531 -16.390625) scale(0.7)"/>
      <use xlink:href="#DejaVuSans-31" transform="translate(270.305664 -16.390625) scale(0.7)"/>
      <use xlink:href="#DejaVuSans-29" transform="translate(317.576172 0.015625)"/>
      <use xlink:href="#DejaVuSans-20" transform="translate(356.589844 0.015625)"/>
      <use xlink:href="#DejaVuSans-5b" transform="translate(388.376953 0.015625)"/>
      <use xlink:href="#DejaVuSans-6d" transform="translate(427.390625 0.015625)"/>
      <use xlink:href="#DejaVuSans-56" transform="translate(524.802734 0.015625)"/>
      <use xlink:href="#DejaVuSans-5d" transform="translate(593.210938 0.015625)"/>
     </g>
    </g>
   </g>
   <g id="line2d_11">
    <path d="M 103.760478 286.578287 
L 103.435891 286.352625 
L 102.8568 285.320914 
L 101.815301 284.632672 
L 99.428382 281.828949 
L 98.376477 280.308846 
L 95.776718 278.028993 
L 95.020619 276.762221 
L 89.928679 270.937487 
L 87.164048 266.522963 
L 84.999067 263.563224 
L 83.455154 260.233308 
L 81.742916 257.98305 
L 79.545755 254.286083 
L 78.835582 252.431432 
L 75.018793 244.78976 
L 74.099565 241.656878 
L 71.946357 238.111566 
L 70.924762 235.557772 
L 69.276187 230.509711 
L 67.997029 226.984492 
L 66.98725 222.661748 
L 65.224992 218.794602 
L 65.629866 215.774654 
L 64.05089 211.691745 
L 63.628513 208.025547 
L 62.75925 204.989088 
L 62.719625 201.463539 
L 62.123288 197.17918 
L 61.70043 193.23076 
L 61.966106 180.429691 
L 62.458082 174.982384 
L 63.042379 171.132248 
L 65.148967 161.623047 
L 67.774396 151.498047 
L 69.68929 146.767389 
L 71.181041 142.238545 
L 74.533149 136.104896 
L 76.650015 130.974108 
L 79.494433 126.58296 
L 83.11311 120.602377 
L 87.739131 114.82701 
L 92.664588 109.296685 
L 97.502664 103.65109 
L 103.53925 97.600364 
L 109.323258 92.291277 
L 115.911457 87.745081 
L 123.801008 82.605851 
L 133.341932 76.708279 
L 143.241576 72.286784 
L 152.173055 67.747653 
L 163.190329 63.960052 
L 174.538569 60.399603 
L 199.312779 55.431592 
L 214.527197 54.196305 
L 229.01485 54.068535 
L 242.793961 54.488575 
L 257.247659 56.378275 
L 273.325916 59.586706 
L 287.309426 63.75393 
L 299.957435 68.526624 
L 314.85519 75.705507 
L 327.129076 82.763928 
L 337.783399 90.349276 
L 349.445848 100.458102 
L 358.245858 110.273161 
L 366.050835 120.309076 
L 372.320546 130.985509 
L 377.489967 142.041027 
L 380.881484 152.573794 
L 383.298546 163.989157 
L 383.896187 175.884593 
L 383.621725 186.705525 
L 381.903489 196.698813 
L 379.679362 206.637601 
L 376.265667 214.926331 
L 371.707418 223.872306 
L 366.631241 232.471995 
L 361.002779 240.064172 
L 354.748294 247.600251 
L 348.087905 253.810177 
L 342.066491 259.152405 
L 334.871193 264.982163 
L 322.085668 273.056371 
L 314.09645 277.261151 
L 306.617816 280.672369 
L 292.30257 286.182569 
L 284.338464 288.251435 
L 278.224004 290.582563 
L 273.214551 291.686384 
L 268.077679 292.5859 
L 261.279462 293.543534 
L 246.092671 295.140992 
L 239.495068 295.565096 
L 231.219287 295.230683 
L 226.547683 295.390701 
L 221.716002 295.776 
L 216.559539 294.878968 
L 208.235713 293.960661 
L 203.318365 293.242064 
L 200.599152 293.044102 
L 195.562002 292.150252 
L 193.716872 292.041138 
L 184.849595 289.824148 
L 182.562925 289.057233 
L 178.465004 288.086549 
L 175.113821 286.994919 
L 172.256651 285.696239 
L 168.152791 285.226321 
L 167.124864 284.08023 
L 157.059742 280.745926 
L 154.106553 279.480998 
L 149.270474 276.886307 
L 146.894531 276.286832 
L 144.313389 274.91868 
L 142.184044 273.427143 
L 139.879815 272.315275 
L 139.297423 271.40746 
L 135.709107 269.537358 
L 133.992573 269.101694 
L 131.575105 267.23224 
L 125.657408 263.985838 
L 121.079759 261.048292 
L 118.090001 259.154051 
L 118.045788 258.03484 
L 116.219652 257.094139 
L 114.007368 255.477165 
L 113.10195 254.576991 
L 111.225365 253.299981 
L 109.969002 252.102246 
L 108.661005 250.644048 
L 108.30205 249.887524 
L 106.390703 248.294662 
L 104.752777 247.096802 
L 102.604918 245.724339 
L 102.354737 244.909538 
L 100.516068 242.76766 
L 99.767769 241.601533 
L 96.488116 238.884637 
L 92.302581 233.64657 
L 88.981295 230.598668 
L 87.906088 228.944432 
L 86.790616 228.254551 
L 85.733361 226.879266 
L 84.818415 225.363969 
L 83.371875 223.630951 
L 81.584122 221.830076 
L 77.889974 216.955756 
L 76.203808 215.132563 
L 75.640321 213.807241 
L 74.790349 212.731301 
L 74.306793 211.718711 
L 72.182303 208.67753 
L 70.743048 206.993533 
L 70.109307 205.695673 
L 68.969241 203.811673 
L 68.385706 203.099192 
L 67.323016 201.59055 
L 66.777852 200.087557 
L 64.388509 195.991038 
L 63.601535 194.368952 
L 62.798609 193.320348 
L 62.411481 192.082756 
L 61.740706 190.637412 
L 61.740706 190.637412 
" clip-path="url(#p4a86425f4a)" style="fill: none; stroke: #1f77b4; stroke-width: 1.5; stroke-linecap: square"/>
    <defs>
     <path id="m7ba1c2cf2e" d="M 0 1.5 
C 0.397805 1.5 0.77937 1.341951 1.06066 1.06066 
C 1.341951 0.77937 1.5 0.397805 1.5 0 
C 1.5 -0.397805 1.341951 -0.77937 1.06066 -1.06066 
C 0.77937 -1.341951 0.397805 -1.5 0 -1.5 
C -0.397805 -1.5 -0.77937 -1.341951 -1.06066 -1.06066 
C -1.341951 -0.77937 -1.5 -0.397805 -1.5 0 
C -1.5 0.397805 -1.341951 0.77937 -1.06066 1.06066 
C -0.77937 1.341951 -0.397805 1.5 0 1.5 
z
" style="stroke: #1f77b4"/>
    </defs>
    <g clip-path="url(#p4a86425f4a)">
     <use xlink:href="#m7ba1c2cf2e" x="103.760478" y="286.578287" style="fill: #1f77b4; stroke: #1f77b4"/>
     <use xlink:href="#m7ba1c2cf2e" x="103.435891" y="286.352625" style="fill: #1f77b4; stroke: #1f77b4"/>
     <use xlink:href="#m7ba1c2cf2e" x="102.8568" y="285.320914" style="fill: #1f77b4; stroke: #1f77b4"/>
     <use xlink:href="#m7ba1c2cf2e" x="101.815301" y="284.632672" style="fill: #1f77b4; stroke: #1f77b4"/>
     <use xlink:href="#m7ba1c2cf2e" x="100.356584" y="282.904467" style="fill: #1f77b4; stroke: #1f77b4"/>
     <use xlink:href="#m7ba1c2cf2e" x="99.428382" y="281.828949" style="fill: #1f77b4; stroke: #1f77b4"/>
     <use xlink:href="#m7ba1c2cf2e" x="98.376477" y="280.308846" style="fill: #1f77b4; stroke: #1f77b4"/>
     <use xlink:href="#m7ba1c2cf2e" x="95.776718" y="278.028993" style="fill: #1f77b4; stroke: #1f77b4"/>
     <use xlink:href="#m7ba1c2cf2e" x="95.020619" y="276.762221" style="fill: #1f77b4; stroke: #1f77b4"/>
     <use xlink:href="#m7ba1c2cf2e" x="94.346337" y="275.9699" style="fill: #1f77b4; stroke: #1f77b4"/>
     <use xlink:href="#m7ba1c2cf2e" x="92.962903" y="274.466724" style="fill: #1f77b4; stroke: #1f77b4"/>
     <use xlink:href="#m7ba1c2cf2e" x="91.30361" y="272.376984" style="fill: #1f77b4; stroke: #1f77b4"/>
     <use xlink:href="#m7ba1c2cf2e" x="89.928679" y="270.937487" style="fill: #1f77b4; stroke: #1f77b4"/>
     <use xlink:href="#m7ba1c2cf2e" x="88.427524" y="268.600744" style="fill: #1f77b4; stroke: #1f77b4"/>
     <use xlink:href="#m7ba1c2cf2e" x="87.164048" y="266.522963" style="fill: #1f77b4; stroke: #1f77b4"/>
     <use xlink:href="#m7ba1c2cf2e" x="84.999067" y="263.563224" style="fill: #1f77b4; stroke: #1f77b4"/>
     <use xlink:href="#m7ba1c2cf2e" x="83.455154" y="260.233308" style="fill: #1f77b4; stroke: #1f77b4"/>
     <use xlink:href="#m7ba1c2cf2e" x="81.742916" y="257.98305" style="fill: #1f77b4; stroke: #1f77b4"/>
     <use xlink:href="#m7ba1c2cf2e" x="79.545755" y="254.286083" style="fill: #1f77b4; stroke: #1f77b4"/>
     <use xlink:href="#m7ba1c2cf2e" x="78.835582" y="252.431432" style="fill: #1f77b4; stroke: #1f77b4"/>
     <use xlink:href="#m7ba1c2cf2e" x="76.56713" y="247.908206" style="fill: #1f77b4; stroke: #1f77b4"/>
     <use xlink:href="#m7ba1c2cf2e" x="75.018793" y="244.78976" style="fill: #1f77b4; stroke: #1f77b4"/>
     <use xlink:href="#m7ba1c2cf2e" x="74.099565" y="241.656878" style="fill: #1f77b4; stroke: #1f77b4"/>
     <use xlink:href="#m7ba1c2cf2e" x="71.946357" y="238.111566" style="fill: #1f77b4; stroke: #1f77b4"/>
     <use xlink:href="#m7ba1c2cf2e" x="70.924762" y="235.557772" style="fill: #1f77b4; stroke: #1f77b4"/>
     <use xlink:href="#m7ba1c2cf2e" x="69.276187" y="230.509711" style="fill: #1f77b4; stroke: #1f77b4"/>
     <use xlink:href="#m7ba1c2cf2e" x="67.997029" y="226.984492" style="fill: #1f77b4; stroke: #1f77b4"/>
     <use xlink:href="#m7ba1c2cf2e" x="66.98725" y="222.661748" style="fill: #1f77b4; stroke: #1f77b4"/>
     <use xlink:href="#m7ba1c2cf2e" x="65.224992" y="218.794602" style="fill: #1f77b4; stroke: #1f77b4"/>
     <use xlink:href="#m7ba1c2cf2e" x="65.629866" y="215.774654" style="fill: #1f77b4; stroke: #1f77b4"/>
     <use xlink:href="#m7ba1c2cf2e" x="64.05089" y="211.691745" style="fill: #1f77b4; stroke: #1f77b4"/>
     <use xlink:href="#m7ba1c2cf2e" x="63.628513" y="208.025547" style="fill: #1f77b4; stroke: #1f77b4"/>
     <use xlink:href="#m7ba1c2cf2e" x="62.75925" y="204.989088" style="fill: #1f77b4; stroke: #1f77b4"/>
     <use xlink:href="#m7ba1c2cf2e" x="62.719625" y="201.463539" style="fill: #1f77b4; stroke: #1f77b4"/>
     <use xlink:href="#m7ba1c2cf2e" x="62.123288" y="197.17918" style="fill: #1f77b4; stroke: #1f77b4"/>
     <use xlink:href="#m7ba1c2cf2e" x="61.70043" y="193.23076" style="fill: #1f77b4; stroke: #1f77b4"/>
     <use xlink:href="#m7ba1c2cf2e" x="61.843944" y="188.34473" style="fill: #1f77b4; stroke: #1f77b4"/>
     <use xlink:href="#m7ba1c2cf2e" x="61.94404" y="185.183218" style="fill: #1f77b4; stroke: #1f77b4"/>
     <use xlink:href="#m7ba1c2cf2e" x="61.966106" y="180.429691" style="fill: #1f77b4; stroke: #1f77b4"/>
     <use xlink:href="#m7ba1c2cf2e" x="62.458082" y="174.982384" style="fill: #1f77b4; stroke: #1f77b4"/>
     <use xlink:href="#m7ba1c2cf2e" x="63.042379" y="171.132248" style="fill: #1f77b4; stroke: #1f77b4"/>
     <use xlink:href="#m7ba1c2cf2e" x="63.954114" y="166.915969" style="fill: #1f77b4; stroke: #1f77b4"/>
     <use xlink:href="#m7ba1c2cf2e" x="65.148967" y="161.623047" style="fill: #1f77b4; stroke: #1f77b4"/>
     <use xlink:href="#m7ba1c2cf2e" x="66.812056" y="155.031661" style="fill: #1f77b4; stroke: #1f77b4"/>
     <use xlink:href="#m7ba1c2cf2e" x="67.774396" y="151.498047" style="fill: #1f77b4; stroke: #1f77b4"/>
     <use xlink:href="#m7ba1c2cf2e" x="69.68929" y="146.767389" style="fill: #1f77b4; stroke: #1f77b4"/>
     <use xlink:href="#m7ba1c2cf2e" x="71.181041" y="142.238545" style="fill: #1f77b4; stroke: #1f77b4"/>
     <use xlink:href="#m7ba1c2cf2e" x="74.533149" y="136.104896" style="fill: #1f77b4; stroke: #1f77b4"/>
     <use xlink:href="#m7ba1c2cf2e" x="76.650015" y="130.974108" style="fill: #1f77b4; stroke: #1f77b4"/>
     <use xlink:href="#m7ba1c2cf2e" x="79.494433" y="126.58296" style="fill: #1f77b4; stroke: #1f77b4"/>
     <use xlink:href="#m7ba1c2cf2e" x="83.11311" y="120.602377" style="fill: #1f77b4; stroke: #1f77b4"/>
     <use xlink:href="#m7ba1c2cf2e" x="87.739131" y="114.82701" style="fill: #1f77b4; stroke: #1f77b4"/>
     <use xlink:href="#m7ba1c2cf2e" x="92.664588" y="109.296685" style="fill: #1f77b4; stroke: #1f77b4"/>
     <use xlink:href="#m7ba1c2cf2e" x="97.502664" y="103.65109" style="fill: #1f77b4; stroke: #1f77b4"/>
     <use xlink:href="#m7ba1c2cf2e" x="103.53925" y="97.600364" style="fill: #1f77b4; stroke: #1f77b4"/>
     <use xlink:href="#m7ba1c2cf2e" x="109.323258" y="92.291277" style="fill: #1f77b4; stroke: #1f77b4"/>
     <use xlink:href="#m7ba1c2cf2e" x="115.911457" y="87.745081" style="fill: #1f77b4; stroke: #1f77b4"/>
     <use xlink:href="#m7ba1c2cf2e" x="123.801008" y="82.605851" style="fill: #1f77b4; stroke: #1f77b4"/>
     <use xlink:href="#m7ba1c2cf2e" x="133.341932" y="76.708279" style="fill: #1f77b4; stroke: #1f77b4"/>
     <use xlink:href="#m7ba1c2cf2e" x="143.241576" y="72.286784" style="fill: #1f77b4; stroke: #1f77b4"/>
     <use xlink:href="#m7ba1c2cf2e" x="152.173055" y="67.747653" style="fill: #1f77b4; stroke: #1f77b4"/>
     <use xlink:href="#m7ba1c2cf2e" x="163.190329" y="63.960052" style="fill: #1f77b4; stroke: #1f77b4"/>
     <use xlink:href="#m7ba1c2cf2e" x="174.538569" y="60.399603" style="fill: #1f77b4; stroke: #1f77b4"/>
     <use xlink:href="#m7ba1c2cf2e" x="187.153419" y="57.83662" style="fill: #1f77b4; stroke: #1f77b4"/>
     <use xlink:href="#m7ba1c2cf2e" x="199.312779" y="55.431592" style="fill: #1f77b4; stroke: #1f77b4"/>
     <use xlink:href="#m7ba1c2cf2e" x="214.527197" y="54.196305" style="fill: #1f77b4; stroke: #1f77b4"/>
     <use xlink:href="#m7ba1c2cf2e" x="229.01485" y="54.068535" style="fill: #1f77b4; stroke: #1f77b4"/>
     <use xlink:href="#m7ba1c2cf2e" x="242.793961" y="54.488575" style="fill: #1f77b4; stroke: #1f77b4"/>
     <use xlink:href="#m7ba1c2cf2e" x="257.247659" y="56.378275" style="fill: #1f77b4; stroke: #1f77b4"/>
     <use xlink:href="#m7ba1c2cf2e" x="273.325916" y="59.586706" style="fill: #1f77b4; stroke: #1f77b4"/>
     <use xlink:href="#m7ba1c2cf2e" x="287.309426" y="63.75393" style="fill: #1f77b4; stroke: #1f77b4"/>
     <use xlink:href="#m7ba1c2cf2e" x="299.957435" y="68.526624" style="fill: #1f77b4; stroke: #1f77b4"/>
     <use xlink:href="#m7ba1c2cf2e" x="314.85519" y="75.705507" style="fill: #1f77b4; stroke: #1f77b4"/>
     <use xlink:href="#m7ba1c2cf2e" x="327.129076" y="82.763928" style="fill: #1f77b4; stroke: #1f77b4"/>
     <use xlink:href="#m7ba1c2cf2e" x="337.783399" y="90.349276" style="fill: #1f77b4; stroke: #1f77b4"/>
     <use xlink:href="#m7ba1c2cf2e" x="349.445848" y="100.458102" style="fill: #1f77b4; stroke: #1f77b4"/>
     <use xlink:href="#m7ba1c2cf2e" x="358.245858" y="110.273161" style="fill: #1f77b4; stroke: #1f77b4"/>
     <use xlink:href="#m7ba1c2cf2e" x="366.050835" y="120.309076" style="fill: #1f77b4; stroke: #1f77b4"/>
     <use xlink:href="#m7ba1c2cf2e" x="372.320546" y="130.985509" style="fill: #1f77b4; stroke: #1f77b4"/>
     <use xlink:href="#m7ba1c2cf2e" x="377.489967" y="142.041027" style="fill: #1f77b4; stroke: #1f77b4"/>
     <use xlink:href="#m7ba1c2cf2e" x="380.881484" y="152.573794" style="fill: #1f77b4; stroke: #1f77b4"/>
     <use xlink:href="#m7ba1c2cf2e" x="383.298546" y="163.989157" style="fill: #1f77b4; stroke: #1f77b4"/>
     <use xlink:href="#m7ba1c2cf2e" x="383.896187" y="175.884593" style="fill: #1f77b4; stroke: #1f77b4"/>
     <use xlink:href="#m7ba1c2cf2e" x="383.621725" y="186.705525" style="fill: #1f77b4; stroke: #1f77b4"/>
     <use xlink:href="#m7ba1c2cf2e" x="381.903489" y="196.698813" style="fill: #1f77b4; stroke: #1f77b4"/>
     <use xlink:href="#m7ba1c2cf2e" x="379.679362" y="206.637601" style="fill: #1f77b4; stroke: #1f77b4"/>
     <use xlink:href="#m7ba1c2cf2e" x="376.265667" y="214.926331" style="fill: #1f77b4; stroke: #1f77b4"/>
     <use xlink:href="#m7ba1c2cf2e" x="371.707418" y="223.872306" style="fill: #1f77b4; stroke: #1f77b4"/>
     <use xlink:href="#m7ba1c2cf2e" x="366.631241" y="232.471995" style="fill: #1f77b4; stroke: #1f77b4"/>
     <use xlink:href="#m7ba1c2cf2e" x="361.002779" y="240.064172" style="fill: #1f77b4; stroke: #1f77b4"/>
     <use xlink:href="#m7ba1c2cf2e" x="354.748294" y="247.600251" style="fill: #1f77b4; stroke: #1f77b4"/>
     <use xlink:href="#m7ba1c2cf2e" x="348.087905" y="253.810177" style="fill: #1f77b4; stroke: #1f77b4"/>
     <use xlink:href="#m7ba1c2cf2e" x="342.066491" y="259.152405" style="fill: #1f77b4; stroke: #1f77b4"/>
     <use xlink:href="#m7ba1c2cf2e" x="334.871193" y="264.982163" style="fill: #1f77b4; stroke: #1f77b4"/>
     <use xlink:href="#m7ba1c2cf2e" x="328.837979" y="268.845624" style="fill: #1f77b4; stroke: #1f77b4"/>
     <use xlink:href="#m7ba1c2cf2e" x="322.085668" y="273.056371" style="fill: #1f77b4; stroke: #1f77b4"/>
     <use xlink:href="#m7ba1c2cf2e" x="314.09645" y="277.261151" style="fill: #1f77b4; stroke: #1f77b4"/>
     <use xlink:href="#m7ba1c2cf2e" x="306.617816" y="280.672369" style="fill: #1f77b4; stroke: #1f77b4"/>
     <use xlink:href="#m7ba1c2cf2e" x="298.783044" y="283.659216" style="fill: #1f77b4; stroke: #1f77b4"/>
     <use xlink:href="#m7ba1c2cf2e" x="292.30257" y="286.182569" style="fill: #1f77b4; stroke: #1f77b4"/>
     <use xlink:href="#m7ba1c2cf2e" x="284.338464" y="288.251435" style="fill: #1f77b4; stroke: #1f77b4"/>
     <use xlink:href="#m7ba1c2cf2e" x="278.224004" y="290.582563" style="fill: #1f77b4; stroke: #1f77b4"/>
     <use xlink:href="#m7ba1c2cf2e" x="273.214551" y="291.686384" style="fill: #1f77b4; stroke: #1f77b4"/>
     <use xlink:href="#m7ba1c2cf2e" x="268.077679" y="292.5859" style="fill: #1f77b4; stroke: #1f77b4"/>
     <use xlink:href="#m7ba1c2cf2e" x="261.279462" y="293.543534" style="fill: #1f77b4; stroke: #1f77b4"/>
     <use xlink:href="#m7ba1c2cf2e" x="256.345242" y="294.055322" style="fill: #1f77b4; stroke: #1f77b4"/>
     <use xlink:href="#m7ba1c2cf2e" x="252.529786" y="294.424248" style="fill: #1f77b4; stroke: #1f77b4"/>
     <use xlink:href="#m7ba1c2cf2e" x="246.092671" y="295.140992" style="fill: #1f77b4; stroke: #1f77b4"/>
     <use xlink:href="#m7ba1c2cf2e" x="239.495068" y="295.565096" style="fill: #1f77b4; stroke: #1f77b4"/>
     <use xlink:href="#m7ba1c2cf2e" x="236.02701" y="295.456278" style="fill: #1f77b4; stroke: #1f77b4"/>
     <use xlink:href="#m7ba1c2cf2e" x="231.219287" y="295.230683" style="fill: #1f77b4; stroke: #1f77b4"/>
     <use xlink:href="#m7ba1c2cf2e" x="226.547683" y="295.390701" style="fill: #1f77b4; stroke: #1f77b4"/>
     <use xlink:href="#m7ba1c2cf2e" x="221.716002" y="295.776" style="fill: #1f77b4; stroke: #1f77b4"/>
     <use xlink:href="#m7ba1c2cf2e" x="216.559539" y="294.878968" style="fill: #1f77b4; stroke: #1f77b4"/>
     <use xlink:href="#m7ba1c2cf2e" x="213.171791" y="294.527314" style="fill: #1f77b4; stroke: #1f77b4"/>
     <use xlink:href="#m7ba1c2cf2e" x="208.235713" y="293.960661" style="fill: #1f77b4; stroke: #1f77b4"/>
     <use xlink:href="#m7ba1c2cf2e" x="203.318365" y="293.242064" style="fill: #1f77b4; stroke: #1f77b4"/>
     <use xlink:href="#m7ba1c2cf2e" x="200.599152" y="293.044102" style="fill: #1f77b4; stroke: #1f77b4"/>
     <use xlink:href="#m7ba1c2cf2e" x="195.562002" y="292.150252" style="fill: #1f77b4; stroke: #1f77b4"/>
     <use xlink:href="#m7ba1c2cf2e" x="193.716872" y="292.041138" style="fill: #1f77b4; stroke: #1f77b4"/>
     <use xlink:href="#m7ba1c2cf2e" x="189.270492" y="290.93746" style="fill: #1f77b4; stroke: #1f77b4"/>
     <use xlink:href="#m7ba1c2cf2e" x="184.849595" y="289.824148" style="fill: #1f77b4; stroke: #1f77b4"/>
     <use xlink:href="#m7ba1c2cf2e" x="182.562925" y="289.057233" style="fill: #1f77b4; stroke: #1f77b4"/>
     <use xlink:href="#m7ba1c2cf2e" x="178.465004" y="288.086549" style="fill: #1f77b4; stroke: #1f77b4"/>
     <use xlink:href="#m7ba1c2cf2e" x="175.113821" y="286.994919" style="fill: #1f77b4; stroke: #1f77b4"/>
     <use xlink:href="#m7ba1c2cf2e" x="172.256651" y="285.696239" style="fill: #1f77b4; stroke: #1f77b4"/>
     <use xlink:href="#m7ba1c2cf2e" x="168.152791" y="285.226321" style="fill: #1f77b4; stroke: #1f77b4"/>
     <use xlink:href="#m7ba1c2cf2e" x="167.124864" y="284.08023" style="fill: #1f77b4; stroke: #1f77b4"/>
     <use xlink:href="#m7ba1c2cf2e" x="163.720731" y="282.975427" style="fill: #1f77b4; stroke: #1f77b4"/>
     <use xlink:href="#m7ba1c2cf2e" x="159.70454" y="281.634173" style="fill: #1f77b4; stroke: #1f77b4"/>
     <use xlink:href="#m7ba1c2cf2e" x="157.059742" y="280.745926" style="fill: #1f77b4; stroke: #1f77b4"/>
     <use xlink:href="#m7ba1c2cf2e" x="154.106553" y="279.480998" style="fill: #1f77b4; stroke: #1f77b4"/>
     <use xlink:href="#m7ba1c2cf2e" x="151.969604" y="278.317955" style="fill: #1f77b4; stroke: #1f77b4"/>
     <use xlink:href="#m7ba1c2cf2e" x="149.270474" y="276.886307" style="fill: #1f77b4; stroke: #1f77b4"/>
     <use xlink:href="#m7ba1c2cf2e" x="146.894531" y="276.286832" style="fill: #1f77b4; stroke: #1f77b4"/>
     <use xlink:href="#m7ba1c2cf2e" x="144.313389" y="274.91868" style="fill: #1f77b4; stroke: #1f77b4"/>
     <use xlink:href="#m7ba1c2cf2e" x="142.184044" y="273.427143" style="fill: #1f77b4; stroke: #1f77b4"/>
     <use xlink:href="#m7ba1c2cf2e" x="139.879815" y="272.315275" style="fill: #1f77b4; stroke: #1f77b4"/>
     <use xlink:href="#m7ba1c2cf2e" x="139.297423" y="271.40746" style="fill: #1f77b4; stroke: #1f77b4"/>
     <use xlink:href="#m7ba1c2cf2e" x="135.709107" y="269.537358" style="fill: #1f77b4; stroke: #1f77b4"/>
     <use xlink:href="#m7ba1c2cf2e" x="133.992573" y="269.101694" style="fill: #1f77b4; stroke: #1f77b4"/>
     <use xlink:href="#m7ba1c2cf2e" x="131.575105" y="267.23224" style="fill: #1f77b4; stroke: #1f77b4"/>
     <use xlink:href="#m7ba1c2cf2e" x="129.248775" y="265.924877" style="fill: #1f77b4; stroke: #1f77b4"/>
     <use xlink:href="#m7ba1c2cf2e" x="126.94508" y="264.721509" style="fill: #1f77b4; stroke: #1f77b4"/>
     <use xlink:href="#m7ba1c2cf2e" x="125.657408" y="263.985838" style="fill: #1f77b4; stroke: #1f77b4"/>
     <use xlink:href="#m7ba1c2cf2e" x="122.589658" y="261.937601" style="fill: #1f77b4; stroke: #1f77b4"/>
     <use xlink:href="#m7ba1c2cf2e" x="121.079759" y="261.048292" style="fill: #1f77b4; stroke: #1f77b4"/>
     <use xlink:href="#m7ba1c2cf2e" x="118.090001" y="259.154051" style="fill: #1f77b4; stroke: #1f77b4"/>
     <use xlink:href="#m7ba1c2cf2e" x="118.045788" y="258.03484" style="fill: #1f77b4; stroke: #1f77b4"/>
     <use xlink:href="#m7ba1c2cf2e" x="116.219652" y="257.094139" style="fill: #1f77b4; stroke: #1f77b4"/>
     <use xlink:href="#m7ba1c2cf2e" x="114.007368" y="255.477165" style="fill: #1f77b4; stroke: #1f77b4"/>
     <use xlink:href="#m7ba1c2cf2e" x="113.10195" y="254.576991" style="fill: #1f77b4; stroke: #1f77b4"/>
     <use xlink:href="#m7ba1c2cf2e" x="111.225365" y="253.299981" style="fill: #1f77b4; stroke: #1f77b4"/>
     <use xlink:href="#m7ba1c2cf2e" x="109.969002" y="252.102246" style="fill: #1f77b4; stroke: #1f77b4"/>
     <use xlink:href="#m7ba1c2cf2e" x="108.661005" y="250.644048" style="fill: #1f77b4; stroke: #1f77b4"/>
     <use xlink:href="#m7ba1c2cf2e" x="108.30205" y="249.887524" style="fill: #1f77b4; stroke: #1f77b4"/>
     <use xlink:href="#m7ba1c2cf2e" x="106.390703" y="248.294662" style="fill: #1f77b4; stroke: #1f77b4"/>
     <use xlink:href="#m7ba1c2cf2e" x="104.752777" y="247.096802" style="fill: #1f77b4; stroke: #1f77b4"/>
     <use xlink:href="#m7ba1c2cf2e" x="102.604918" y="245.724339" style="fill: #1f77b4; stroke: #1f77b4"/>
     <use xlink:href="#m7ba1c2cf2e" x="102.354737" y="244.909538" style="fill: #1f77b4; stroke: #1f77b4"/>
     <use xlink:href="#m7ba1c2cf2e" x="100.759502" y="243.159667" style="fill: #1f77b4; stroke: #1f77b4"/>
     <use xlink:href="#m7ba1c2cf2e" x="100.516068" y="242.76766" style="fill: #1f77b4; stroke: #1f77b4"/>
     <use xlink:href="#m7ba1c2cf2e" x="99.767769" y="241.601533" style="fill: #1f77b4; stroke: #1f77b4"/>
     <use xlink:href="#m7ba1c2cf2e" x="98.827616" y="240.806275" style="fill: #1f77b4; stroke: #1f77b4"/>
     <use xlink:href="#m7ba1c2cf2e" x="96.488116" y="238.884637" style="fill: #1f77b4; stroke: #1f77b4"/>
     <use xlink:href="#m7ba1c2cf2e" x="94.724306" y="236.750259" style="fill: #1f77b4; stroke: #1f77b4"/>
     <use xlink:href="#m7ba1c2cf2e" x="94.420946" y="236.284686" style="fill: #1f77b4; stroke: #1f77b4"/>
     <use xlink:href="#m7ba1c2cf2e" x="93.198834" y="234.840606" style="fill: #1f77b4; stroke: #1f77b4"/>
     <use xlink:href="#m7ba1c2cf2e" x="92.302581" y="233.64657" style="fill: #1f77b4; stroke: #1f77b4"/>
     <use xlink:href="#m7ba1c2cf2e" x="91.152312" y="232.626428" style="fill: #1f77b4; stroke: #1f77b4"/>
     <use xlink:href="#m7ba1c2cf2e" x="88.981295" y="230.598668" style="fill: #1f77b4; stroke: #1f77b4"/>
     <use xlink:href="#m7ba1c2cf2e" x="87.906088" y="228.944432" style="fill: #1f77b4; stroke: #1f77b4"/>
     <use xlink:href="#m7ba1c2cf2e" x="86.790616" y="228.254551" style="fill: #1f77b4; stroke: #1f77b4"/>
     <use xlink:href="#m7ba1c2cf2e" x="85.733361" y="226.879266" style="fill: #1f77b4; stroke: #1f77b4"/>
     <use xlink:href="#m7ba1c2cf2e" x="84.818415" y="225.363969" style="fill: #1f77b4; stroke: #1f77b4"/>
     <use xlink:href="#m7ba1c2cf2e" x="83.371875" y="223.630951" style="fill: #1f77b4; stroke: #1f77b4"/>
     <use xlink:href="#m7ba1c2cf2e" x="81.584122" y="221.830076" style="fill: #1f77b4; stroke: #1f77b4"/>
     <use xlink:href="#m7ba1c2cf2e" x="80.443456" y="220.296623" style="fill: #1f77b4; stroke: #1f77b4"/>
     <use xlink:href="#m7ba1c2cf2e" x="79.979339" y="219.586011" style="fill: #1f77b4; stroke: #1f77b4"/>
     <use xlink:href="#m7ba1c2cf2e" x="78.932714" y="218.215821" style="fill: #1f77b4; stroke: #1f77b4"/>
     <use xlink:href="#m7ba1c2cf2e" x="77.889974" y="216.955756" style="fill: #1f77b4; stroke: #1f77b4"/>
     <use xlink:href="#m7ba1c2cf2e" x="76.203808" y="215.132563" style="fill: #1f77b4; stroke: #1f77b4"/>
     <use xlink:href="#m7ba1c2cf2e" x="75.640321" y="213.807241" style="fill: #1f77b4; stroke: #1f77b4"/>
     <use xlink:href="#m7ba1c2cf2e" x="74.790349" y="212.731301" style="fill: #1f77b4; stroke: #1f77b4"/>
     <use xlink:href="#m7ba1c2cf2e" x="74.306793" y="211.718711" style="fill: #1f77b4; stroke: #1f77b4"/>
     <use xlink:href="#m7ba1c2cf2e" x="73.202267" y="210.08337" style="fill: #1f77b4; stroke: #1f77b4"/>
     <use xlink:href="#m7ba1c2cf2e" x="72.182303" y="208.67753" style="fill: #1f77b4; stroke: #1f77b4"/>
     <use xlink:href="#m7ba1c2cf2e" x="70.743048" y="206.993533" style="fill: #1f77b4; stroke: #1f77b4"/>
     <use xlink:href="#m7ba1c2cf2e" x="70.109307" y="205.695673" style="fill: #1f77b4; stroke: #1f77b4"/>
     <use xlink:href="#m7ba1c2cf2e" x="68.969241" y="203.811673" style="fill: #1f77b4; stroke: #1f77b4"/>
     <use xlink:href="#m7ba1c2cf2e" x="68.385706" y="203.099192" style="fill: #1f77b4; stroke: #1f77b4"/>
     <use xlink:href="#m7ba1c2cf2e" x="67.323016" y="201.59055" style="fill: #1f77b4; stroke: #1f77b4"/>
     <use xlink:href="#m7ba1c2cf2e" x="66.777852" y="200.087557" style="fill: #1f77b4; stroke: #1f77b4"/>
     <use xlink:href="#m7ba1c2cf2e" x="65.842385" y="198.528689" style="fill: #1f77b4; stroke: #1f77b4"/>
     <use xlink:href="#m7ba1c2cf2e" x="65.128669" y="197.535745" style="fill: #1f77b4; stroke: #1f77b4"/>
     <use xlink:href="#m7ba1c2cf2e" x="64.388509" y="195.991038" style="fill: #1f77b4; stroke: #1f77b4"/>
     <use xlink:href="#m7ba1c2cf2e" x="63.601535" y="194.368952" style="fill: #1f77b4; stroke: #1f77b4"/>
     <use xlink:href="#m7ba1c2cf2e" x="62.798609" y="193.320348" style="fill: #1f77b4; stroke: #1f77b4"/>
     <use xlink:href="#m7ba1c2cf2e" x="62.411481" y="192.082756" style="fill: #1f77b4; stroke: #1f77b4"/>
     <use xlink:href="#m7ba1c2cf2e" x="61.740706" y="190.637412" style="fill: #1f77b4; stroke: #1f77b4"/>
    </g>
   </g>
   <g id="line2d_12">
    <path d="M 102.951559 288.611572 
L 98.527367 283.256689 
L 94.446257 277.983262 
L 90.426361 272.415911 
L 86.764647 266.955914 
L 83.462133 261.642814 
L 80.253382 256.041914 
L 77.414442 250.631137 
L 74.937926 245.462015 
L 72.581919 240.03427 
L 70.584958 234.910489 
L 68.7273 229.542999 
L 67.034661 223.913753 
L 65.693214 218.674767 
L 64.531499 213.199728 
L 63.68551 208.203969 
L 63.022477 203.006358 
L 62.568547 197.596924 
L 62.368467 192.78425 
L 62.365273 187.802871 
L 62.582894 182.647321 
L 63.048129 177.312778 
L 63.646499 172.727741 
L 64.456757 168.014056 
L 65.499892 163.170877 
L 66.798817 158.198327 
L 68.378492 153.09773 
L 70.266014 147.871881 
L 72.017305 143.604038 
L 74.000381 139.262263 
L 76.232212 134.850909 
L 78.730665 130.375508 
L 81.514473 125.842936 
L 84.60316 121.261598 
L 88.016943 116.641629 
L 91.776591 111.995103 
L 95.903236 107.336258 
L 99.251852 103.843952 
L 102.827778 100.361998 
L 106.639783 96.899259 
L 110.696389 93.465539 
L 115.005757 90.071626 
L 119.575547 86.72934 
L 124.412776 83.451568 
L 129.523648 80.252288 
L 134.91337 77.146582 
L 140.585951 74.150637 
L 146.543992 71.281722 
L 152.788452 68.558146 
L 159.318411 65.999189 
L 166.130827 63.625007 
L 173.220288 61.456501 
L 180.578771 59.515158 
L 188.19541 57.822845 
L 196.056293 56.401579 
L 204.144278 55.273247 
L 209.65245 54.694385 
L 215.245585 54.261438 
L 220.916068 53.980378 
L 226.655598 53.856922 
L 232.45519 53.896481 
L 238.3052 54.104105 
L 244.195336 54.48443 
L 250.114696 55.041621 
L 256.051805 55.779325 
L 261.994655 56.700613 
L 267.930769 57.807939 
L 273.847255 59.103086 
L 279.73088 60.587134 
L 285.568147 62.260419 
L 291.345375 64.122506 
L 297.048789 66.172164 
L 302.664613 68.407355 
L 308.179167 70.825221 
L 313.578962 73.422091 
L 318.850799 76.193487 
L 323.981867 79.13414 
L 328.959839 82.238023 
L 333.772961 85.498383 
L 338.410138 88.907781 
L 342.861015 92.45815 
L 347.116047 96.140846 
L 351.166563 99.946713 
L 355.004818 103.866154 
L 358.624037 107.889196 
L 362.018447 112.005572 
L 365.183299 116.204793 
L 368.114877 120.476224 
L 370.810497 124.809162 
L 373.268497 129.192909 
L 375.488217 133.616845 
L 377.469968 138.070491 
L 379.214993 142.543581 
L 380.725421 147.026112 
L 382.004219 151.508402 
L 383.05513 155.981135 
L 383.882613 160.435405 
L 384.491779 164.862747 
L 384.888327 169.255167 
L 385.078472 173.605168 
L 385.068879 177.905758 
L 384.866599 182.15047 
L 384.479 186.33336 
L 383.913705 190.449013 
L 383.178535 194.492534 
L 382.281445 198.459544 
L 381.230479 202.346165 
L 380.03371 206.149006 
L 378.699206 209.865148 
L 377.234978 213.49212 
L 374.8127 218.76103 
L 372.142526 223.819607 
L 369.249803 228.664522 
L 366.158871 233.294137 
L 362.892926 237.708312 
L 359.473931 241.908232 
L 355.922542 245.896223 
L 352.258082 249.675595 
L 348.498525 253.250479 
L 344.660506 256.62569 
L 340.759345 259.806594 
L 336.809084 262.798992 
L 331.487675 266.506255 
L 326.128793 269.90447 
L 320.75616 273.009202 
L 315.390332 275.836158 
L 310.048976 278.400965 
L 304.747148 280.718991 
L 299.497563 282.805208 
L 293.025051 285.108998 
L 286.66737 287.100163 
L 280.437393 288.804168 
L 274.344722 290.244863 
L 268.396207 291.444461 
L 261.454553 292.594619 
L 254.731278 293.459783 
L 248.227604 294.06947 
L 241.942334 294.450305 
L 234.881409 294.637183 
L 228.106363 294.578911 
L 221.608214 294.305268 
L 214.507736 293.76222 
L 207.739331 293.005903 
L 201.286162 292.06556 
L 194.382118 290.818897 
L 187.832032 289.40165 
L 181.61312 287.839659 
L 175.065287 285.960816 
L 168.871595 283.955345 
L 162.436605 281.627969 
L 156.366888 279.195707 
L 150.127934 276.444838 
L 144.255082 273.61161 
L 138.270486 270.468048 
L 132.644801 267.26336 
L 126.952332 263.758919 
L 121.606058 260.212032 
L 116.227889 256.376415 
L 111.179972 252.513919 
L 106.127428 248.373017 
L 101.101428 243.95758 
L 96.397217 239.532425 
L 91.736609 234.841909 
L 87.37782 230.150518 
L 83.077325 225.201134 
L 78.85701 219.997171 
L 74.92643 214.801533 
L 71.08747 209.356819 
L 67.522381 203.924308 
L 64.060872 198.2471 
L 60.721196 192.327798 
L 60.443665 191.813863 
L 60.443665 191.813863 
" clip-path="url(#p4a86425f4a)" style="fill: none; stroke: #d62728; stroke-width: 1.5; stroke-linecap: square"/>
   </g>
   <g id="patch_3">
    <path d="M 44.210938 307.872 
L 44.210938 41.76 
" style="fill: none; stroke: #000000; stroke-width: 0.8; stroke-linejoin: miter; stroke-linecap: square"/>
   </g>
   <g id="patch_4">
    <path d="M 401.330938 307.872 
L 401.330938 41.76 
" style="fill: none; stroke: #000000; stroke-width: 0.8; stroke-linejoin: miter; stroke-linecap: square"/>
   </g>
   <g id="patch_5">
    <path d="M 44.210937 307.872 
L 401.330937 307.872 
" style="fill: none; stroke: #000000; stroke-width: 0.8; stroke-linejoin: miter; stroke-linecap: square"/>
   </g>
   <g id="patch_6">
    <path d="M 44.210937 41.76 
L 401.330937 41.76 
" style="fill: none; stroke: #000000; stroke-width: 0.8; stroke-linejoin: miter; stroke-linecap: square"/>
   </g>
   <g id="text_13">
    <g id="patch_7">
     <path d="M 419.186937 102.337163 
L 564.986938 102.337163 
Q 568.986938 102.337163 568.986938 98.337163 
L 568.986938 55.0656 
Q 568.986938 51.0656 564.986938 51.0656 
L 419.186937 51.0656 
Q 415.186937 51.0656 415.186937 55.0656 
L 415.186937 98.337163 
Q 415.186937 102.337163 419.186937 102.337163 
z
" style="fill: #ffffff; opacity: 0.5; stroke: #000000; stroke-linejoin: miter"/>
    </g>
    <!-- Summary -->
    <g transform="translate(419.186937 62.664038) scale(0.1 -0.1)">
     <defs>
      <path id="DejaVuSans-53" d="M 3425 4513 
L 3425 3897 
Q 3066 4069 2747 4153 
Q 2428 4238 2131 4238 
Q 1616 4238 1336 4038 
Q 1056 3838 1056 3469 
Q 1056 3159 1242 3001 
Q 1428 2844 1947 2747 
L 2328 2669 
Q 3034 2534 3370 2195 
Q 3706 1856 3706 1288 
Q 3706 609 3251 259 
Q 2797 -91 1919 -91 
Q 1588 -91 1214 -16 
Q 841 59 441 206 
L 441 856 
Q 825 641 1194 531 
Q 1563 422 1919 422 
Q 2459 422 2753 634 
Q 3047 847 3047 1241 
Q 3047 1584 2836 1778 
Q 2625 1972 2144 2069 
L 1759 2144 
Q 1053 2284 737 2584 
Q 422 2884 422 3419 
Q 422 4038 858 4394 
Q 1294 4750 2059 4750 
Q 2388 4750 2728 4690 
Q 3069 4631 3425 4513 
z
" transform="scale(0.015625)"/>
      <path id="DejaVuSans-75" d="M 544 1381 
L 544 3500 
L 1119 3500 
L 1119 1403 
Q 1119 906 1312 657 
Q 1506 409 1894 409 
Q 2359 409 2629 706 
Q 2900 1003 2900 1516 
L 2900 3500 
L 3475 3500 
L 3475 0 
L 2900 0 
L 2900 538 
Q 2691 219 2414 64 
Q 2138 -91 1772 -91 
Q 1169 -91 856 284 
Q 544 659 544 1381 
z
M 1991 3584 
L 1991 3584 
z
" transform="scale(0.015625)"/>
      <path id="DejaVuSans-61" d="M 2194 1759 
Q 1497 1759 1228 1600 
Q 959 1441 959 1056 
Q 959 750 1161 570 
Q 1363 391 1709 391 
Q 2188 391 2477 730 
Q 2766 1069 2766 1631 
L 2766 1759 
L 2194 1759 
z
M 3341 1997 
L 3341 0 
L 2766 0 
L 2766 531 
Q 2569 213 2275 61 
Q 1981 -91 1556 -91 
Q 1019 -91 701 211 
Q 384 513 384 1019 
Q 384 1609 779 1909 
Q 1175 2209 1959 2209 
L 2766 2209 
L 2766 2266 
Q 2766 2663 2505 2880 
Q 2244 3097 1772 3097 
Q 1472 3097 1187 3025 
Q 903 2953 641 2809 
L 641 3341 
Q 956 3463 1253 3523 
Q 1550 3584 1831 3584 
Q 2591 3584 2966 3190 
Q 3341 2797 3341 1997 
z
" transform="scale(0.015625)"/>
      <path id="DejaVuSans-72" d="M 2631 2963 
Q 2534 3019 2420 3045 
Q 2306 3072 2169 3072 
Q 1681 3072 1420 2755 
Q 1159 2438 1159 1844 
L 1159 0 
L 581 0 
L 581 3500 
L 1159 3500 
L 1159 2956 
Q 1341 3275 1631 3429 
Q 1922 3584 2338 3584 
Q 2397 3584 2469 3576 
Q 2541 3569 2628 3553 
L 2631 2963 
z
" transform="scale(0.015625)"/>
      <path id="DejaVuSans-79" d="M 2059 -325 
Q 1816 -950 1584 -1140 
Q 1353 -1331 966 -1331 
L 506 -1331 
L 506 -850 
L 844 -850 
Q 1081 -850 1212 -737 
Q 1344 -625 1503 -206 
L 1606 56 
L 191 3500 
L 800 3500 
L 1894 763 
L 2988 3500 
L 3597 3500 
L 2059 -325 
z
" transform="scale(0.015625)"/>
     </defs>
     <use xlink:href="#DejaVuSans-53"/>
     <use xlink:href="#DejaVuSans-75" x="63.476562"/>
     <use xlink:href="#DejaVuSans-6d" x="126.855469"/>
     <use xlink:href="#DejaVuSans-6d" x="224.267578"/>
     <use xlink:href="#DejaVuSans-61" x="321.679688"/>
     <use xlink:href="#DejaVuSans-72" x="382.958984"/>
     <use xlink:href="#DejaVuSans-79" x="424.072266"/>
    </g>
    <!-- $Q_I$: 21.90$\pm$0.23 k -->
    <g transform="translate(419.186937 73.86185) scale(0.1 -0.1)">
     <defs>
      <path id="DejaVuSans-Oblique-51" d="M 2309 -84 
Q 2275 -88 2237 -89 
Q 2200 -91 2125 -91 
Q 1250 -91 756 411 
Q 263 913 263 1797 
Q 263 2319 452 2844 
Q 641 3369 978 3788 
Q 1369 4269 1858 4509 
Q 2347 4750 2938 4750 
Q 3794 4750 4287 4245 
Q 4781 3741 4781 2869 
Q 4781 1928 4265 1147 
Q 3750 366 2919 44 
L 3553 -825 
L 2847 -825 
L 2309 -84 
z
M 2919 4238 
Q 2400 4238 2003 3986 
Q 1606 3734 1313 3219 
Q 1125 2891 1026 2522 
Q 928 2153 928 1778 
Q 928 1128 1239 775 
Q 1550 422 2119 422 
Q 2631 422 3032 676 
Q 3434 931 3719 1434 
Q 3909 1772 4009 2142 
Q 4109 2513 4109 2881 
Q 4109 3528 3796 3883 
Q 3484 4238 2919 4238 
z
" transform="scale(0.015625)"/>
      <path id="DejaVuSans-Oblique-49" d="M 1081 4666 
L 1716 4666 
L 806 0 
L 172 0 
L 1081 4666 
z
" transform="scale(0.015625)"/>
      <path id="DejaVuSans-3a" d="M 750 794 
L 1409 794 
L 1409 0 
L 750 0 
L 750 794 
z
M 750 3309 
L 1409 3309 
L 1409 2516 
L 750 2516 
L 750 3309 
z
" transform="scale(0.015625)"/>
      <path id="DejaVuSans-2e" d="M 684 794 
L 1344 794 
L 1344 0 
L 684 0 
L 684 794 
z
" transform="scale(0.015625)"/>
      <path id="DejaVuSans-39" d="M 703 97 
L 703 672 
Q 941 559 1184 500 
Q 1428 441 1663 441 
Q 2288 441 2617 861 
Q 2947 1281 2994 2138 
Q 2813 1869 2534 1725 
Q 2256 1581 1919 1581 
Q 1219 1581 811 2004 
Q 403 2428 403 3163 
Q 403 3881 828 4315 
Q 1253 4750 1959 4750 
Q 2769 4750 3195 4129 
Q 3622 3509 3622 2328 
Q 3622 1225 3098 567 
Q 2575 -91 1691 -91 
Q 1453 -91 1209 -44 
Q 966 3 703 97 
z
M 1959 2075 
Q 2384 2075 2632 2365 
Q 2881 2656 2881 3163 
Q 2881 3666 2632 3958 
Q 2384 4250 1959 4250 
Q 1534 4250 1286 3958 
Q 1038 3666 1038 3163 
Q 1038 2656 1286 2365 
Q 1534 2075 1959 2075 
z
" transform="scale(0.015625)"/>
      <path id="DejaVuSans-b1" d="M 2944 4013 
L 2944 2803 
L 4684 2803 
L 4684 2272 
L 2944 2272 
L 2944 1063 
L 2419 1063 
L 2419 2272 
L 678 2272 
L 678 2803 
L 2419 2803 
L 2419 4013 
L 2944 4013 
z
M 678 531 
L 4684 531 
L 4684 0 
L 678 0 
L 678 531 
z
" transform="scale(0.015625)"/>
      <path id="DejaVuSans-33" d="M 2597 2516 
Q 3050 2419 3304 2112 
Q 3559 1806 3559 1356 
Q 3559 666 3084 287 
Q 2609 -91 1734 -91 
Q 1441 -91 1130 -33 
Q 819 25 488 141 
L 488 750 
Q 750 597 1062 519 
Q 1375 441 1716 441 
Q 2309 441 2620 675 
Q 2931 909 2931 1356 
Q 2931 1769 2642 2001 
Q 2353 2234 1838 2234 
L 1294 2234 
L 1294 2753 
L 1863 2753 
Q 2328 2753 2575 2939 
Q 2822 3125 2822 3475 
Q 2822 3834 2567 4026 
Q 2313 4219 1838 4219 
Q 1578 4219 1281 4162 
Q 984 4106 628 3988 
L 628 4550 
Q 988 4650 1302 4700 
Q 1616 4750 1894 4750 
Q 2613 4750 3031 4423 
Q 3450 4097 3450 3541 
Q 3450 3153 3228 2886 
Q 3006 2619 2597 2516 
z
" transform="scale(0.015625)"/>
      <path id="DejaVuSans-6b" d="M 581 4863 
L 1159 4863 
L 1159 1991 
L 2875 3500 
L 3609 3500 
L 1753 1863 
L 3688 0 
L 2938 0 
L 1159 1709 
L 1159 0 
L 581 0 
L 581 4863 
z
" transform="scale(0.015625)"/>
     </defs>
     <use xlink:href="#DejaVuSans-Oblique-51" transform="translate(0 0.015625)"/>
     <use xlink:href="#DejaVuSans-Oblique-49" transform="translate(78.710938 -16.390625) scale(0.7)"/>
     <use xlink:href="#DejaVuSans-3a" transform="translate(102.089844 0.015625)"/>
     <use xlink:href="#DejaVuSans-20" transform="translate(135.78125 0.015625)"/>
     <use xlink:href="#DejaVuSans-32" transform="translate(167.568359 0.015625)"/>
     <use xlink:href="#DejaVuSans-31" transform="translate(231.191406 0.015625)"/>
     <use xlink:href="#DejaVuSans-2e" transform="translate(294.814453 0.015625)"/>
     <use xlink:href="#DejaVuSans-39" transform="translate(326.601562 0.015625)"/>
     <use xlink:href="#DejaVuSans-30" transform="translate(390.224609 0.015625)"/>
     <use xlink:href="#DejaVuSans-b1" transform="translate(453.847656 0.015625)"/>
     <use xlink:href="#DejaVuSans-30" transform="translate(537.636719 0.015625)"/>
     <use xlink:href="#DejaVuSans-2e" transform="translate(601.259766 0.015625)"/>
     <use xlink:href="#DejaVuSans-32" transform="translate(627.546875 0.015625)"/>
     <use xlink:href="#DejaVuSans-33" transform="translate(691.169922 0.015625)"/>
     <use xlink:href="#DejaVuSans-20" transform="translate(754.792969 0.015625)"/>
     <use xlink:href="#DejaVuSans-6b" transform="translate(786.580078 0.015625)"/>
    </g>
    <!-- $Q_C$: 3.2259$\pm$0.0075 k -->
    <g transform="translate(419.186937 85.059663) scale(0.1 -0.1)">
     <defs>
      <path id="DejaVuSans-Oblique-43" d="M 4447 4306 
L 4319 3641 
Q 4019 3944 3683 4091 
Q 3347 4238 2956 4238 
Q 2422 4238 2017 3981 
Q 1613 3725 1319 3200 
Q 1131 2863 1032 2486 
Q 934 2109 934 1728 
Q 934 1091 1264 756 
Q 1594 422 2222 422 
Q 2656 422 3056 561 
Q 3456 700 3834 978 
L 3688 231 
Q 3316 72 2936 -9 
Q 2556 -91 2175 -91 
Q 1278 -91 773 396 
Q 269 884 269 1753 
Q 269 2309 461 2846 
Q 653 3384 1013 3828 
Q 1394 4300 1883 4525 
Q 2372 4750 3022 4750 
Q 3422 4750 3780 4639 
Q 4138 4528 4447 4306 
z
" transform="scale(0.015625)"/>
      <path id="DejaVuSans-35" d="M 691 4666 
L 3169 4666 
L 3169 4134 
L 1269 4134 
L 1269 2991 
Q 1406 3038 1543 3061 
Q 1681 3084 1819 3084 
Q 2600 3084 3056 2656 
Q 3513 2228 3513 1497 
Q 3513 744 3044 326 
Q 2575 -91 1722 -91 
Q 1428 -91 1123 -41 
Q 819 9 494 109 
L 494 744 
Q 775 591 1075 516 
Q 1375 441 1709 441 
Q 2250 441 2565 725 
Q 2881 1009 2881 1497 
Q 2881 1984 2565 2268 
Q 2250 2553 1709 2553 
Q 1456 2553 1204 2497 
Q 953 2441 691 2322 
L 691 4666 
z
" transform="scale(0.015625)"/>
      <path id="DejaVuSans-37" d="M 525 4666 
L 3525 4666 
L 3525 4397 
L 1831 0 
L 1172 0 
L 2766 4134 
L 525 4134 
L 525 4666 
z
" transform="scale(0.015625)"/>
     </defs>
     <use xlink:href="#DejaVuSans-Oblique-51" transform="translate(0 0.015625)"/>
     <use xlink:href="#DejaVuSans-Oblique-43" transform="translate(78.710938 -16.390625) scale(0.7)"/>
     <use xlink:href="#DejaVuSans-3a" transform="translate(130.322266 0.015625)"/>
     <use xlink:href="#DejaVuSans-20" transform="translate(164.013672 0.015625)"/>
     <use xlink:href="#DejaVuSans-33" transform="translate(195.800781 0.015625)"/>
     <use xlink:href="#DejaVuSans-2e" transform="translate(259.423828 0.015625)"/>
     <use xlink:href="#DejaVuSans-32" transform="translate(285.710938 0.015625)"/>
     <use xlink:href="#DejaVuSans-32" transform="translate(349.333984 0.015625)"/>
     <use xlink:href="#DejaVuSans-35" transform="translate(412.957031 0.015625)"/>
     <use xlink:href="#DejaVuSans-39" transform="translate(471.080078 0.015625)"/>
     <use xlink:href="#DejaVuSans-b1" transform="translate(534.703125 0.015625)"/>
     <use xlink:href="#DejaVuSans-30" transform="translate(618.492188 0.015625)"/>
     <use xlink:href="#DejaVuSans-2e" transform="translate(682.115234 0.015625)"/>
     <use xlink:href="#DejaVuSans-30" transform="translate(713.902344 0.015625)"/>
     <use xlink:href="#DejaVuSans-30" transform="translate(777.525391 0.015625)"/>
     <use xlink:href="#DejaVuSans-37" transform="translate(841.148438 0.015625)"/>
     <use xlink:href="#DejaVuSans-35" transform="translate(904.771484 0.015625)"/>
     <use xlink:href="#DejaVuSans-20" transform="translate(968.394531 0.015625)"/>
     <use xlink:href="#DejaVuSans-6b" transform="translate(1000.181641 0.015625)"/>
    </g>
    <!-- $f_{res}$: 6.0071866$\pm$2.9e-06 GHz -->
    <g transform="translate(419.186937 96.257475) scale(0.1 -0.1)">
     <defs>
      <path id="DejaVuSans-Oblique-66" d="M 3059 4863 
L 2969 4384 
L 2419 4384 
Q 2106 4384 1964 4261 
Q 1822 4138 1753 3809 
L 1691 3500 
L 2638 3500 
L 2553 3053 
L 1606 3053 
L 1013 0 
L 434 0 
L 1031 3053 
L 481 3053 
L 563 3500 
L 1113 3500 
L 1159 3744 
Q 1278 4363 1576 4613 
Q 1875 4863 2516 4863 
L 3059 4863 
z
" transform="scale(0.015625)"/>
      <path id="DejaVuSans-Oblique-72" d="M 2853 2969 
Q 2766 3016 2653 3041 
Q 2541 3066 2413 3066 
Q 1953 3066 1609 2717 
Q 1266 2369 1153 1784 
L 800 0 
L 225 0 
L 909 3500 
L 1484 3500 
L 1375 2956 
Q 1603 3259 1920 3421 
Q 2238 3584 2597 3584 
Q 2691 3584 2781 3573 
Q 2872 3563 2963 3538 
L 2853 2969 
z
" transform="scale(0.015625)"/>
      <path id="DejaVuSans-Oblique-65" d="M 3078 2063 
Q 3088 2113 3092 2166 
Q 3097 2219 3097 2272 
Q 3097 2653 2873 2875 
Q 2650 3097 2266 3097 
Q 1838 3097 1509 2826 
Q 1181 2556 1013 2059 
L 3078 2063 
z
M 3578 1613 
L 903 1613 
Q 884 1494 878 1425 
Q 872 1356 872 1306 
Q 872 872 1139 634 
Q 1406 397 1894 397 
Q 2269 397 2603 481 
Q 2938 566 3225 728 
L 3116 159 
Q 2806 34 2476 -28 
Q 2147 -91 1806 -91 
Q 1078 -91 686 257 
Q 294 606 294 1247 
Q 294 1794 489 2264 
Q 684 2734 1063 3103 
Q 1306 3334 1642 3459 
Q 1978 3584 2356 3584 
Q 2950 3584 3301 3228 
Q 3653 2872 3653 2272 
Q 3653 2128 3634 1964 
Q 3616 1800 3578 1613 
z
" transform="scale(0.015625)"/>
      <path id="DejaVuSans-Oblique-73" d="M 3200 3397 
L 3091 2853 
Q 2863 2978 2609 3040 
Q 2356 3103 2088 3103 
Q 1634 3103 1373 2948 
Q 1113 2794 1113 2528 
Q 1113 2219 1719 2053 
Q 1766 2041 1788 2034 
L 1972 1978 
Q 2547 1819 2739 1644 
Q 2931 1469 2931 1166 
Q 2931 609 2489 259 
Q 2047 -91 1331 -91 
Q 1053 -91 747 -37 
Q 441 16 72 128 
L 184 722 
Q 500 559 806 475 
Q 1113 391 1394 391 
Q 1816 391 2080 572 
Q 2344 753 2344 1031 
Q 2344 1331 1650 1516 
L 1591 1531 
L 1394 1581 
Q 956 1697 753 1886 
Q 550 2075 550 2369 
Q 550 2928 970 3256 
Q 1391 3584 2113 3584 
Q 2397 3584 2667 3537 
Q 2938 3491 3200 3397 
z
" transform="scale(0.015625)"/>
      <path id="DejaVuSans-47" d="M 3809 666 
L 3809 1919 
L 2778 1919 
L 2778 2438 
L 4434 2438 
L 4434 434 
Q 4069 175 3628 42 
Q 3188 -91 2688 -91 
Q 1594 -91 976 548 
Q 359 1188 359 2328 
Q 359 3472 976 4111 
Q 1594 4750 2688 4750 
Q 3144 4750 3555 4637 
Q 3966 4525 4313 4306 
L 4313 3634 
Q 3963 3931 3569 4081 
Q 3175 4231 2741 4231 
Q 1884 4231 1454 3753 
Q 1025 3275 1025 2328 
Q 1025 1384 1454 906 
Q 1884 428 2741 428 
Q 3075 428 3337 486 
Q 3600 544 3809 666 
z
" transform="scale(0.015625)"/>
      <path id="DejaVuSans-48" d="M 628 4666 
L 1259 4666 
L 1259 2753 
L 3553 2753 
L 3553 4666 
L 4184 4666 
L 4184 0 
L 3553 0 
L 3553 2222 
L 1259 2222 
L 1259 0 
L 628 0 
L 628 4666 
z
" transform="scale(0.015625)"/>
      <path id="DejaVuSans-7a" d="M 353 3500 
L 3084 3500 
L 3084 2975 
L 922 459 
L 3084 459 
L 3084 0 
L 275 0 
L 275 525 
L 2438 3041 
L 353 3041 
L 353 3500 
z
" transform="scale(0.015625)"/>
     </defs>
     <use xlink:href="#DejaVuSans-Oblique-66" transform="translate(0 0.015625)"/>
     <use xlink:href="#DejaVuSans-Oblique-72" transform="translate(35.205078 -16.390625) scale(0.7)"/>
     <use xlink:href="#DejaVuSans-Oblique-65" transform="translate(63.984375 -16.390625) scale(0.7)"/>
     <use xlink:href="#DejaVuSans-Oblique-73" transform="translate(107.050781 -16.390625) scale(0.7)"/>
     <use xlink:href="#DejaVuSans-3a" transform="translate(146.254883 0.015625)"/>
     <use xlink:href="#DejaVuSans-20" transform="translate(179.946289 0.015625)"/>
     <use xlink:href="#DejaVuSans-36" transform="translate(211.733398 0.015625)"/>
     <use xlink:href="#DejaVuSans-2e" transform="translate(275.356445 0.015625)"/>
     <use xlink:href="#DejaVuSans-30" transform="translate(307.143555 0.015625)"/>
     <use xlink:href="#DejaVuSans-30" transform="translate(370.766602 0.015625)"/>
     <use xlink:href="#DejaVuSans-37" transform="translate(434.389648 0.015625)"/>
     <use xlink:href="#DejaVuSans-31" transform="translate(498.012695 0.015625)"/>
     <use xlink:href="#DejaVuSans-38" transform="translate(561.635742 0.015625)"/>
     <use xlink:href="#DejaVuSans-36" transform="translate(625.258789 0.015625)"/>
     <use xlink:href="#DejaVuSans-36" transform="translate(688.881836 0.015625)"/>
     <use xlink:href="#DejaVuSans-b1" transform="translate(752.504883 0.015625)"/>
     <use xlink:href="#DejaVuSans-32" transform="translate(836.293945 0.015625)"/>
     <use xlink:href="#DejaVuSans-2e" transform="translate(899.916992 0.015625)"/>
     <use xlink:href="#DejaVuSans-39" transform="translate(931.704102 0.015625)"/>
     <use xlink:href="#DejaVuSans-65" transform="translate(995.327148 0.015625)"/>
     <use xlink:href="#DejaVuSans-2d" transform="translate(1056.850586 0.015625)"/>
     <use xlink:href="#DejaVuSans-30" transform="translate(1092.93457 0.015625)"/>
     <use xlink:href="#DejaVuSans-36" transform="translate(1156.557617 0.015625)"/>
     <use xlink:href="#DejaVuSans-20" transform="translate(1220.180664 0.015625)"/>
     <use xlink:href="#DejaVuSans-47" transform="translate(1251.967773 0.015625)"/>
     <use xlink:href="#DejaVuSans-48" transform="translate(1329.458008 0.015625)"/>
     <use xlink:href="#DejaVuSans-7a" transform="translate(1404.65332 0.015625)"/>
    </g>
   </g>
  </g>
  <g id="text_14">
   <!-- S21 resonator spectroscopy -->
   <g transform="translate(133.226562 16.318125) scale(0.12 -0.12)">
    <defs>
     <path id="DejaVuSans-73" d="M 2834 3397 
L 2834 2853 
Q 2591 2978 2328 3040 
Q 2066 3103 1784 3103 
Q 1356 3103 1142 2972 
Q 928 2841 928 2578 
Q 928 2378 1081 2264 
Q 1234 2150 1697 2047 
L 1894 2003 
Q 2506 1872 2764 1633 
Q 3022 1394 3022 966 
Q 3022 478 2636 193 
Q 2250 -91 1575 -91 
Q 1294 -91 989 -36 
Q 684 19 347 128 
L 347 722 
Q 666 556 975 473 
Q 1284 391 1588 391 
Q 1994 391 2212 530 
Q 2431 669 2431 922 
Q 2431 1156 2273 1281 
Q 2116 1406 1581 1522 
L 1381 1569 
Q 847 1681 609 1914 
Q 372 2147 372 2553 
Q 372 3047 722 3315 
Q 1072 3584 1716 3584 
Q 2034 3584 2315 3537 
Q 2597 3491 2834 3397 
z
" transform="scale(0.015625)"/>
     <path id="DejaVuSans-6f" d="M 1959 3097 
Q 1497 3097 1228 2736 
Q 959 2375 959 1747 
Q 959 1119 1226 758 
Q 1494 397 1959 397 
Q 2419 397 2687 759 
Q 2956 1122 2956 1747 
Q 2956 2369 2687 2733 
Q 2419 3097 1959 3097 
z
M 1959 3584 
Q 2709 3584 3137 3096 
Q 3566 2609 3566 1747 
Q 3566 888 3137 398 
Q 2709 -91 1959 -91 
Q 1206 -91 779 398 
Q 353 888 353 1747 
Q 353 2609 779 3096 
Q 1206 3584 1959 3584 
z
" transform="scale(0.015625)"/>
     <path id="DejaVuSans-6e" d="M 3513 2113 
L 3513 0 
L 2938 0 
L 2938 2094 
Q 2938 2591 2744 2837 
Q 2550 3084 2163 3084 
Q 1697 3084 1428 2787 
Q 1159 2491 1159 1978 
L 1159 0 
L 581 0 
L 581 3500 
L 1159 3500 
L 1159 2956 
Q 1366 3272 1645 3428 
Q 1925 3584 2291 3584 
Q 2894 3584 3203 3211 
Q 3513 2838 3513 2113 
z
" transform="scale(0.015625)"/>
     <path id="DejaVuSans-74" d="M 1172 4494 
L 1172 3500 
L 2356 3500 
L 2356 3053 
L 1172 3053 
L 1172 1153 
Q 1172 725 1289 603 
Q 1406 481 1766 481 
L 2356 481 
L 2356 0 
L 1766 0 
Q 1100 0 847 248 
Q 594 497 594 1153 
L 594 3053 
L 172 3053 
L 172 3500 
L 594 3500 
L 594 4494 
L 1172 4494 
z
" transform="scale(0.015625)"/>
     <path id="DejaVuSans-70" d="M 1159 525 
L 1159 -1331 
L 581 -1331 
L 581 3500 
L 1159 3500 
L 1159 2969 
Q 1341 3281 1617 3432 
Q 1894 3584 2278 3584 
Q 2916 3584 3314 3078 
Q 3713 2572 3713 1747 
Q 3713 922 3314 415 
Q 2916 -91 2278 -91 
Q 1894 -91 1617 61 
Q 1341 213 1159 525 
z
M 3116 1747 
Q 3116 2381 2855 2742 
Q 2594 3103 2138 3103 
Q 1681 3103 1420 2742 
Q 1159 2381 1159 1747 
Q 1159 1113 1420 752 
Q 1681 391 2138 391 
Q 2594 391 2855 752 
Q 3116 1113 3116 1747 
z
" transform="scale(0.015625)"/>
     <path id="DejaVuSans-63" d="M 3122 3366 
L 3122 2828 
Q 2878 2963 2633 3030 
Q 2388 3097 2138 3097 
Q 1578 3097 1268 2742 
Q 959 2388 959 1747 
Q 959 1106 1268 751 
Q 1578 397 2138 397 
Q 2388 397 2633 464 
Q 2878 531 3122 666 
L 3122 134 
Q 2881 22 2623 -34 
Q 2366 -91 2075 -91 
Q 1284 -91 818 406 
Q 353 903 353 1747 
Q 353 2603 823 3093 
Q 1294 3584 2113 3584 
Q 2378 3584 2631 3529 
Q 2884 3475 3122 3366 
z
" transform="scale(0.015625)"/>
    </defs>
    <use xlink:href="#DejaVuSans-53"/>
    <use xlink:href="#DejaVuSans-32" x="63.476562"/>
    <use xlink:href="#DejaVuSans-31" x="127.099609"/>
    <use xlink:href="#DejaVuSans-20" x="190.722656"/>
    <use xlink:href="#DejaVuSans-72" x="222.509766"/>
    <use xlink:href="#DejaVuSans-65" x="261.373047"/>
    <use xlink:href="#DejaVuSans-73" x="322.896484"/>
    <use xlink:href="#DejaVuSans-6f" x="374.996094"/>
    <use xlink:href="#DejaVuSans-6e" x="436.177734"/>
    <use xlink:href="#DejaVuSans-61" x="499.556641"/>
    <use xlink:href="#DejaVuSans-74" x="560.835938"/>
    <use xlink:href="#DejaVuSans-6f" x="600.044922"/>
    <use xlink:href="#DejaVuSans-72" x="661.226562"/>
    <use xlink:href="#DejaVuSans-20" x="702.339844"/>
    <use xlink:href="#DejaVuSans-73" x="734.126953"/>
    <use xlink:href="#DejaVuSans-70" x="786.226562"/>
    <use xlink:href="#DejaVuSans-65" x="849.703125"/>
    <use xlink:href="#DejaVuSans-63" x="911.226562"/>
    <use xlink:href="#DejaVuSans-74" x="966.207031"/>
    <use xlink:href="#DejaVuSans-72" x="1005.416016"/>
    <use xlink:href="#DejaVuSans-6f" x="1044.279297"/>
    <use xlink:href="#DejaVuSans-73" x="1105.460938"/>
    <use xlink:href="#DejaVuSans-63" x="1157.560547"/>
    <use xlink:href="#DejaVuSans-6f" x="1212.541016"/>
    <use xlink:href="#DejaVuSans-70" x="1273.722656"/>
    <use xlink:href="#DejaVuSans-79" x="1337.199219"/>
   </g>
   <!-- tuid: 20240105-143624-177-574e56 -->
   <g transform="translate(107.28125 29.7555) scale(0.12 -0.12)">
    <defs>
     <path id="DejaVuSans-69" d="M 603 3500 
L 1178 3500 
L 1178 0 
L 603 0 
L 603 3500 
z
M 603 4863 
L 1178 4863 
L 1178 4134 
L 603 4134 
L 603 4863 
z
" transform="scale(0.015625)"/>
     <path id="DejaVuSans-64" d="M 2906 2969 
L 2906 4863 
L 3481 4863 
L 3481 0 
L 2906 0 
L 2906 525 
Q 2725 213 2448 61 
Q 2172 -91 1784 -91 
Q 1150 -91 751 415 
Q 353 922 353 1747 
Q 353 2572 751 3078 
Q 1150 3584 1784 3584 
Q 2172 3584 2448 3432 
Q 2725 3281 2906 2969 
z
M 947 1747 
Q 947 1113 1208 752 
Q 1469 391 1925 391 
Q 2381 391 2643 752 
Q 2906 1113 2906 1747 
Q 2906 2381 2643 2742 
Q 2381 3103 1925 3103 
Q 1469 3103 1208 2742 
Q 947 2381 947 1747 
z
" transform="scale(0.015625)"/>
    </defs>
    <use xlink:href="#DejaVuSans-74"/>
    <use xlink:href="#DejaVuSans-75" x="39.208984"/>
    <use xlink:href="#DejaVuSans-69" x="102.587891"/>
    <use xlink:href="#DejaVuSans-64" x="130.371094"/>
    <use xlink:href="#DejaVuSans-3a" x="193.847656"/>
    <use xlink:href="#DejaVuSans-20" x="227.539062"/>
    <use xlink:href="#DejaVuSans-32" x="259.326172"/>
    <use xlink:href="#DejaVuSans-30" x="322.949219"/>
    <use xlink:href="#DejaVuSans-32" x="386.572266"/>
    <use xlink:href="#DejaVuSans-34" x="450.195312"/>
    <use xlink:href="#DejaVuSans-30" x="513.818359"/>
    <use xlink:href="#DejaVuSans-31" x="577.441406"/>
    <use xlink:href="#DejaVuSans-30" x="641.064453"/>
    <use xlink:href="#DejaVuSans-35" x="704.6875"/>
    <use xlink:href="#DejaVuSans-2d" x="768.310547"/>
    <use xlink:href="#DejaVuSans-31" x="804.394531"/>
    <use xlink:href="#DejaVuSans-34" x="868.017578"/>
    <use xlink:href="#DejaVuSans-33" x="931.640625"/>
    <use xlink:href="#DejaVuSans-36" x="995.263672"/>
    <use xlink:href="#DejaVuSans-32" x="1058.886719"/>
    <use xlink:href="#DejaVuSans-34" x="1122.509766"/>
    <use xlink:href="#DejaVuSans-2d" x="1186.132812"/>
    <use xlink:href="#DejaVuSans-31" x="1222.216797"/>
    <use xlink:href="#DejaVuSans-37" x="1285.839844"/>
    <use xlink:href="#DejaVuSans-37" x="1349.462891"/>
    <use xlink:href="#DejaVuSans-2d" x="1413.085938"/>
    <use xlink:href="#DejaVuSans-35" x="1449.169922"/>
    <use xlink:href="#DejaVuSans-37" x="1512.792969"/>
    <use xlink:href="#DejaVuSans-34" x="1576.416016"/>
    <use xlink:href="#DejaVuSans-65" x="1640.039062"/>
    <use xlink:href="#DejaVuSans-35" x="1701.5625"/>
    <use xlink:href="#DejaVuSans-36" x="1765.185547"/>
   </g>
  </g>
 </g>
 <defs>
  <clipPath id="p4a86425f4a">
   <rect x="44.210938" y="41.76" width="357.12" height="266.112"/>
  </clipPath>
 </defs>
</svg>
