<?xml version="1.0" encoding="utf-8" standalone="no"?>
<!DOCTYPE svg PUBLIC "-//W3C//DTD SVG 1.1//EN"
  "http://www.w3.org/Graphics/SVG/1.1/DTD/svg11.dtd">
<svg xmlns:xlink="http://www.w3.org/1999/xlink" width="572.186937pt" height="345.42825pt" viewBox="0 0 572.186937 345.42825" xmlns="http://www.w3.org/2000/svg" version="1.1">
 <metadata>
  <rdf:RDF xmlns:dc="http://purl.org/dc/elements/1.1/" xmlns:cc="http://creativecommons.org/ns#" xmlns:rdf="http://www.w3.org/1999/02/22-rdf-syntax-ns#">
   <cc:Work>
    <dc:type rdf:resource="http://purl.org/dc/dcmitype/StillImage"/>
    <dc:date>2024-01-03T15:56:41.592297</dc:date>
    <dc:format>image/svg+xml</dc:format>
    <dc:creator>
     <cc:Agent>
      <dc:title>Matplotlib v3.8.1, https://matplotlib.org/</dc:title>
     </cc:Agent>
    </dc:creator>
   </cc:Work>
  </rdf:RDF>
 </metadata>
 <defs>
  <style type="text/css">*{stroke-linejoin: round; stroke-linecap: butt}</style>
 </defs>
 <g id="figure_1">
  <g id="patch_1">
   <path d="M 0 345.42825 
L 572.186937 345.42825 
L 572.186937 -0 
L 0 -0 
L 0 345.42825 
z
" style="fill: none; opacity: 0"/>
  </g>
  <g id="axes_1">
   <g id="patch_2">
    <path d="M 44.210938 162.72 
L 401.330938 162.72 
L 401.330938 41.76 
L 44.210938 41.76 
z
" style="fill: #ffffff"/>
   </g>
   <g id="matplotlib.axis_1">
    <g id="xtick_1">
     <g id="line2d_1">
      <defs>
       <path id="m2d3433ba45" d="M 0 0 
L 0 3.5 
" style="stroke: #000000; stroke-width: 0.8"/>
      </defs>
      <g>
       <use xlink:href="#m2d3433ba45" x="50.704028" y="162.72" style="stroke: #000000; stroke-width: 0.8"/>
      </g>
     </g>
    </g>
    <g id="xtick_2">
     <g id="line2d_2">
      <g>
       <use xlink:href="#m2d3433ba45" x="115.634937" y="162.72" style="stroke: #000000; stroke-width: 0.8"/>
      </g>
     </g>
    </g>
    <g id="xtick_3">
     <g id="line2d_3">
      <g>
       <use xlink:href="#m2d3433ba45" x="180.565847" y="162.72" style="stroke: #000000; stroke-width: 0.8"/>
      </g>
     </g>
    </g>
    <g id="xtick_4">
     <g id="line2d_4">
      <g>
       <use xlink:href="#m2d3433ba45" x="245.496756" y="162.72" style="stroke: #000000; stroke-width: 0.8"/>
      </g>
     </g>
    </g>
    <g id="xtick_5">
     <g id="line2d_5">
      <g>
       <use xlink:href="#m2d3433ba45" x="310.427665" y="162.72" style="stroke: #000000; stroke-width: 0.8"/>
      </g>
     </g>
    </g>
    <g id="xtick_6">
     <g id="line2d_6">
      <g>
       <use xlink:href="#m2d3433ba45" x="375.358574" y="162.72" style="stroke: #000000; stroke-width: 0.8"/>
      </g>
     </g>
    </g>
   </g>
   <g id="matplotlib.axis_2">
    <g id="ytick_1">
     <g id="line2d_7">
      <defs>
       <path id="m7b79eaedb6" d="M 0 0 
L -3.5 0 
" style="stroke: #000000; stroke-width: 0.8"/>
      </defs>
      <g>
       <use xlink:href="#m7b79eaedb6" x="44.210938" y="139.91345" style="stroke: #000000; stroke-width: 0.8"/>
      </g>
     </g>
     <g id="text_1">
      <!-- -60 -->
      <g transform="translate(20.878125 143.712669) scale(0.1 -0.1)">
       <defs>
        <path id="DejaVuSans-2d" d="M 313 2009 
L 1997 2009 
L 1997 1497 
L 313 1497 
L 313 2009 
z
" transform="scale(0.015625)"/>
        <path id="DejaVuSans-36" d="M 2113 2584 
Q 1688 2584 1439 2293 
Q 1191 2003 1191 1497 
Q 1191 994 1439 701 
Q 1688 409 2113 409 
Q 2538 409 2786 701 
Q 3034 994 3034 1497 
Q 3034 2003 2786 2293 
Q 2538 2584 2113 2584 
z
M 3366 4563 
L 3366 3988 
Q 3128 4100 2886 4159 
Q 2644 4219 2406 4219 
Q 1781 4219 1451 3797 
Q 1122 3375 1075 2522 
Q 1259 2794 1537 2939 
Q 1816 3084 2150 3084 
Q 2853 3084 3261 2657 
Q 3669 2231 3669 1497 
Q 3669 778 3244 343 
Q 2819 -91 2113 -91 
Q 1303 -91 875 529 
Q 447 1150 447 2328 
Q 447 3434 972 4092 
Q 1497 4750 2381 4750 
Q 2619 4750 2861 4703 
Q 3103 4656 3366 4563 
z
" transform="scale(0.015625)"/>
        <path id="DejaVuSans-30" d="M 2034 4250 
Q 1547 4250 1301 3770 
Q 1056 3291 1056 2328 
Q 1056 1369 1301 889 
Q 1547 409 2034 409 
Q 2525 409 2770 889 
Q 3016 1369 3016 2328 
Q 3016 3291 2770 3770 
Q 2525 4250 2034 4250 
z
M 2034 4750 
Q 2819 4750 3233 4129 
Q 3647 3509 3647 2328 
Q 3647 1150 3233 529 
Q 2819 -91 2034 -91 
Q 1250 -91 836 529 
Q 422 1150 422 2328 
Q 422 3509 836 4129 
Q 1250 4750 2034 4750 
z
" transform="scale(0.015625)"/>
       </defs>
       <use xlink:href="#DejaVuSans-2d"/>
       <use xlink:href="#DejaVuSans-36" x="36.083984"/>
       <use xlink:href="#DejaVuSans-30" x="99.707031"/>
      </g>
     </g>
    </g>
    <g id="ytick_2">
     <g id="line2d_8">
      <g>
       <use xlink:href="#m7b79eaedb6" x="44.210938" y="107.030868" style="stroke: #000000; stroke-width: 0.8"/>
      </g>
     </g>
     <g id="text_2">
      <!-- -40 -->
      <g transform="translate(20.878125 110.830087) scale(0.1 -0.1)">
       <defs>
        <path id="DejaVuSans-34" d="M 2419 4116 
L 825 1625 
L 2419 1625 
L 2419 4116 
z
M 2253 4666 
L 3047 4666 
L 3047 1625 
L 3713 1625 
L 3713 1100 
L 3047 1100 
L 3047 0 
L 2419 0 
L 2419 1100 
L 313 1100 
L 313 1709 
L 2253 4666 
z
" transform="scale(0.015625)"/>
       </defs>
       <use xlink:href="#DejaVuSans-2d"/>
       <use xlink:href="#DejaVuSans-34" x="36.083984"/>
       <use xlink:href="#DejaVuSans-30" x="99.707031"/>
      </g>
     </g>
    </g>
    <g id="ytick_3">
     <g id="line2d_9">
      <g>
       <use xlink:href="#m7b79eaedb6" x="44.210938" y="74.148286" style="stroke: #000000; stroke-width: 0.8"/>
      </g>
     </g>
     <g id="text_3">
      <!-- -20 -->
      <g transform="translate(20.878125 77.947504) scale(0.1 -0.1)">
       <defs>
        <path id="DejaVuSans-32" d="M 1228 531 
L 3431 531 
L 3431 0 
L 469 0 
L 469 531 
Q 828 903 1448 1529 
Q 2069 2156 2228 2338 
Q 2531 2678 2651 2914 
Q 2772 3150 2772 3378 
Q 2772 3750 2511 3984 
Q 2250 4219 1831 4219 
Q 1534 4219 1204 4116 
Q 875 4013 500 3803 
L 500 4441 
Q 881 4594 1212 4672 
Q 1544 4750 1819 4750 
Q 2544 4750 2975 4387 
Q 3406 4025 3406 3419 
Q 3406 3131 3298 2873 
Q 3191 2616 2906 2266 
Q 2828 2175 2409 1742 
Q 1991 1309 1228 531 
z
" transform="scale(0.015625)"/>
       </defs>
       <use xlink:href="#DejaVuSans-2d"/>
       <use xlink:href="#DejaVuSans-32" x="36.083984"/>
       <use xlink:href="#DejaVuSans-30" x="99.707031"/>
      </g>
     </g>
    </g>
    <g id="text_4">
     <!-- Re$(S_{21})$ [mV] -->
     <g transform="translate(14.798437 134.24) rotate(-90) scale(0.1 -0.1)">
      <defs>
       <path id="DejaVuSans-52" d="M 2841 2188 
Q 3044 2119 3236 1894 
Q 3428 1669 3622 1275 
L 4263 0 
L 3584 0 
L 2988 1197 
Q 2756 1666 2539 1819 
Q 2322 1972 1947 1972 
L 1259 1972 
L 1259 0 
L 628 0 
L 628 4666 
L 2053 4666 
Q 2853 4666 3247 4331 
Q 3641 3997 3641 3322 
Q 3641 2881 3436 2590 
Q 3231 2300 2841 2188 
z
M 1259 4147 
L 1259 2491 
L 2053 2491 
Q 2509 2491 2742 2702 
Q 2975 2913 2975 3322 
Q 2975 3731 2742 3939 
Q 2509 4147 2053 4147 
L 1259 4147 
z
" transform="scale(0.015625)"/>
       <path id="DejaVuSans-65" d="M 3597 1894 
L 3597 1613 
L 953 1613 
Q 991 1019 1311 708 
Q 1631 397 2203 397 
Q 2534 397 2845 478 
Q 3156 559 3463 722 
L 3463 178 
Q 3153 47 2828 -22 
Q 2503 -91 2169 -91 
Q 1331 -91 842 396 
Q 353 884 353 1716 
Q 353 2575 817 3079 
Q 1281 3584 2069 3584 
Q 2775 3584 3186 3129 
Q 3597 2675 3597 1894 
z
M 3022 2063 
Q 3016 2534 2758 2815 
Q 2500 3097 2075 3097 
Q 1594 3097 1305 2825 
Q 1016 2553 972 2059 
L 3022 2063 
z
" transform="scale(0.015625)"/>
       <path id="DejaVuSans-28" d="M 1984 4856 
Q 1566 4138 1362 3434 
Q 1159 2731 1159 2009 
Q 1159 1288 1364 580 
Q 1569 -128 1984 -844 
L 1484 -844 
Q 1016 -109 783 600 
Q 550 1309 550 2009 
Q 550 2706 781 3412 
Q 1013 4119 1484 4856 
L 1984 4856 
z
" transform="scale(0.015625)"/>
       <path id="DejaVuSans-Oblique-53" d="M 3859 4513 
L 3738 3897 
Q 3422 4066 3111 4152 
Q 2800 4238 2509 4238 
Q 1944 4238 1609 3991 
Q 1275 3744 1275 3334 
Q 1275 3109 1398 2989 
Q 1522 2869 2034 2731 
L 2413 2638 
Q 3053 2472 3303 2217 
Q 3553 1963 3553 1503 
Q 3553 797 2998 353 
Q 2444 -91 1538 -91 
Q 1166 -91 791 -17 
Q 416 56 38 206 
L 166 856 
Q 513 641 861 531 
Q 1209 422 1556 422 
Q 2147 422 2503 684 
Q 2859 947 2859 1369 
Q 2859 1650 2717 1795 
Q 2575 1941 2106 2059 
L 1728 2156 
Q 1081 2325 845 2545 
Q 609 2766 609 3163 
Q 609 3859 1145 4304 
Q 1681 4750 2541 4750 
Q 2875 4750 3203 4690 
Q 3531 4631 3859 4513 
z
" transform="scale(0.015625)"/>
       <path id="DejaVuSans-31" d="M 794 531 
L 1825 531 
L 1825 4091 
L 703 3866 
L 703 4441 
L 1819 4666 
L 2450 4666 
L 2450 531 
L 3481 531 
L 3481 0 
L 794 0 
L 794 531 
z
" transform="scale(0.015625)"/>
       <path id="DejaVuSans-29" d="M 513 4856 
L 1013 4856 
Q 1481 4119 1714 3412 
Q 1947 2706 1947 2009 
Q 1947 1309 1714 600 
Q 1481 -109 1013 -844 
L 513 -844 
Q 928 -128 1133 580 
Q 1338 1288 1338 2009 
Q 1338 2731 1133 3434 
Q 928 4138 513 4856 
z
" transform="scale(0.015625)"/>
       <path id="DejaVuSans-20" transform="scale(0.015625)"/>
       <path id="DejaVuSans-5b" d="M 550 4863 
L 1875 4863 
L 1875 4416 
L 1125 4416 
L 1125 -397 
L 1875 -397 
L 1875 -844 
L 550 -844 
L 550 4863 
z
" transform="scale(0.015625)"/>
       <path id="DejaVuSans-6d" d="M 3328 2828 
Q 3544 3216 3844 3400 
Q 4144 3584 4550 3584 
Q 5097 3584 5394 3201 
Q 5691 2819 5691 2113 
L 5691 0 
L 5113 0 
L 5113 2094 
Q 5113 2597 4934 2840 
Q 4756 3084 4391 3084 
Q 3944 3084 3684 2787 
Q 3425 2491 3425 1978 
L 3425 0 
L 2847 0 
L 2847 2094 
Q 2847 2600 2669 2842 
Q 2491 3084 2119 3084 
Q 1678 3084 1418 2786 
Q 1159 2488 1159 1978 
L 1159 0 
L 581 0 
L 581 3500 
L 1159 3500 
L 1159 2956 
Q 1356 3278 1631 3431 
Q 1906 3584 2284 3584 
Q 2666 3584 2933 3390 
Q 3200 3197 3328 2828 
z
" transform="scale(0.015625)"/>
       <path id="DejaVuSans-56" d="M 1831 0 
L 50 4666 
L 709 4666 
L 2188 738 
L 3669 4666 
L 4325 4666 
L 2547 0 
L 1831 0 
z
" transform="scale(0.015625)"/>
       <path id="DejaVuSans-5d" d="M 1947 4863 
L 1947 -844 
L 622 -844 
L 622 -397 
L 1369 -397 
L 1369 4416 
L 622 4416 
L 622 4863 
L 1947 4863 
z
" transform="scale(0.015625)"/>
      </defs>
      <use xlink:href="#DejaVuSans-52" transform="translate(0 0.015625)"/>
      <use xlink:href="#DejaVuSans-65" transform="translate(69.482422 0.015625)"/>
      <use xlink:href="#DejaVuSans-28" transform="translate(131.005859 0.015625)"/>
      <use xlink:href="#DejaVuSans-Oblique-53" transform="translate(170.019531 0.015625)"/>
      <use xlink:href="#DejaVuSans-32" transform="translate(233.496094 -16.390625) scale(0.7)"/>
      <use xlink:href="#DejaVuSans-31" transform="translate(278.032227 -16.390625) scale(0.7)"/>
      <use xlink:href="#DejaVuSans-29" transform="translate(325.302734 0.015625)"/>
      <use xlink:href="#DejaVuSans-20" transform="translate(364.316406 0.015625)"/>
      <use xlink:href="#DejaVuSans-5b" transform="translate(396.103516 0.015625)"/>
      <use xlink:href="#DejaVuSans-6d" transform="translate(435.117188 0.015625)"/>
      <use xlink:href="#DejaVuSans-56" transform="translate(532.529297 0.015625)"/>
      <use xlink:href="#DejaVuSans-5d" transform="translate(600.9375 0.015625)"/>
     </g>
    </g>
   </g>
   <g id="line2d_10">
    <path d="M 60.443665 157.139966 
L 62.075095 157.221818 
L 63.706525 156.866494 
L 65.337954 156.687685 
L 66.969384 156.368704 
L 68.600814 155.702703 
L 70.232244 154.671606 
L 71.863674 154.127602 
L 73.495104 153.200951 
L 75.126534 152.675622 
L 76.757964 151.498974 
L 78.389393 151.248187 
L 81.652253 148.858337 
L 83.283683 148.248497 
L 88.177973 145.482917 
L 89.809403 144.065905 
L 93.072262 142.578487 
L 96.335122 139.858999 
L 97.966552 137.944682 
L 99.597982 137.564261 
L 101.229412 135.373242 
L 102.860842 134.806401 
L 104.492271 133.351125 
L 106.123701 132.27302 
L 107.755131 129.687365 
L 109.386561 127.797665 
L 111.017991 126.207582 
L 112.649421 125.677669 
L 114.280851 123.409926 
L 115.912281 122.715563 
L 117.54371 119.881618 
L 119.17514 118.335624 
L 120.80657 116.052629 
L 122.438 114.1106 
L 124.06943 111.583589 
L 125.70086 110.466228 
L 127.33229 108.470553 
L 128.96372 106.074642 
L 130.595149 104.321813 
L 132.226579 101.748756 
L 133.858009 99.44572 
L 135.489439 96.898654 
L 137.120869 94.841359 
L 138.752299 92.133311 
L 140.383729 90.094828 
L 142.015159 87.571346 
L 145.278018 83.489645 
L 146.909448 79.955371 
L 148.540878 77.832845 
L 150.172308 75.161342 
L 151.803738 73.227213 
L 155.066598 67.626083 
L 156.698027 65.508129 
L 158.329457 62.294198 
L 159.960887 59.997993 
L 161.592317 58.485939 
L 164.855177 53.793509 
L 166.486607 52.826574 
L 168.118037 51.363653 
L 169.749467 50.692918 
L 173.012326 48.235096 
L 174.643756 48.193537 
L 176.275186 47.954127 
L 177.906616 48.150322 
L 179.538046 48.774429 
L 181.169476 49.522958 
L 182.800906 50.600446 
L 187.695195 55.47268 
L 189.326625 58.341338 
L 190.958055 60.313227 
L 195.852345 68.881977 
L 197.483774 73.087488 
L 199.115204 75.204152 
L 202.378064 81.664796 
L 204.009494 86.42655 
L 205.640924 89.805806 
L 207.272354 92.256199 
L 208.903784 96.682827 
L 210.535213 99.917189 
L 213.798073 105.565106 
L 215.429503 109.217259 
L 217.060933 110.927212 
L 218.692363 114.154381 
L 220.323793 115.821607 
L 223.586652 120.16778 
L 225.218082 123.427553 
L 226.849512 125.096986 
L 228.480942 126.458627 
L 230.112372 129.533436 
L 231.743802 130.665991 
L 233.375232 132.057187 
L 235.006662 134.305698 
L 236.638091 136.140419 
L 238.269521 137.625211 
L 239.900951 138.72288 
L 241.532381 139.334679 
L 243.163811 140.125746 
L 246.426671 142.633137 
L 248.058101 143.617039 
L 249.68953 144.199209 
L 252.95239 146.075192 
L 254.58382 146.621543 
L 256.21525 147.424331 
L 257.84668 147.696559 
L 261.10954 149.87455 
L 262.740969 150.355163 
L 266.003829 150.81324 
L 267.635259 151.528284 
L 269.266689 151.762476 
L 270.898119 152.233058 
L 277.423838 153.417298 
L 279.055268 153.399318 
L 282.318128 153.783904 
L 283.949558 153.886666 
L 285.580988 153.806197 
L 287.212418 154.03962 
L 288.843848 153.70375 
L 290.475277 154.008328 
L 297.000997 154.097029 
L 298.632427 153.920995 
L 300.263857 154.029498 
L 301.895287 153.548149 
L 306.789576 153.199 
L 308.421006 153.303242 
L 310.052436 153.194672 
L 311.683866 152.898454 
L 313.315296 152.892139 
L 314.946726 152.648001 
L 316.578155 152.51734 
L 318.209585 152.223921 
L 319.841015 152.180777 
L 331.261024 150.613845 
L 332.892454 150.212572 
L 334.523884 150.254439 
L 336.155314 149.884756 
L 342.681033 148.79292 
L 344.312463 148.299931 
L 345.943893 148.205051 
L 349.206753 147.615421 
L 350.838183 147.49818 
L 352.469613 146.869536 
L 355.732472 146.586554 
L 358.995332 145.853294 
L 360.626762 145.553044 
L 362.258192 145.068307 
L 363.889622 145.012726 
L 365.521052 144.520024 
L 367.152482 144.28344 
L 378.572491 141.602017 
L 380.203921 141.072933 
L 381.83535 141.168778 
L 383.46678 140.528358 
L 385.09821 140.131503 
L 385.09821 140.131503 
" clip-path="url(#pe4b6ebd875)" style="fill: none; stroke: #1f77b4; stroke-width: 1.5; stroke-linecap: square"/>
    <defs>
     <path id="m229966e28b" d="M 0 1.5 
C 0.397805 1.5 0.77937 1.341951 1.06066 1.06066 
C 1.341951 0.77937 1.5 0.397805 1.5 0 
C 1.5 -0.397805 1.341951 -0.77937 1.06066 -1.06066 
C 0.77937 -1.341951 0.397805 -1.5 0 -1.5 
C -0.397805 -1.5 -0.77937 -1.341951 -1.06066 -1.06066 
C -1.341951 -0.77937 -1.5 -0.397805 -1.5 0 
C -1.5 0.397805 -1.341951 0.77937 -1.06066 1.06066 
C -0.77937 1.341951 -0.397805 1.5 0 1.5 
z
" style="stroke: #1f77b4"/>
    </defs>
    <g clip-path="url(#pe4b6ebd875)">
     <use xlink:href="#m229966e28b" x="60.443665" y="157.139966" style="fill: #1f77b4; stroke: #1f77b4"/>
     <use xlink:href="#m229966e28b" x="62.075095" y="157.221818" style="fill: #1f77b4; stroke: #1f77b4"/>
     <use xlink:href="#m229966e28b" x="63.706525" y="156.866494" style="fill: #1f77b4; stroke: #1f77b4"/>
     <use xlink:href="#m229966e28b" x="65.337954" y="156.687685" style="fill: #1f77b4; stroke: #1f77b4"/>
     <use xlink:href="#m229966e28b" x="66.969384" y="156.368704" style="fill: #1f77b4; stroke: #1f77b4"/>
     <use xlink:href="#m229966e28b" x="68.600814" y="155.702703" style="fill: #1f77b4; stroke: #1f77b4"/>
     <use xlink:href="#m229966e28b" x="70.232244" y="154.671606" style="fill: #1f77b4; stroke: #1f77b4"/>
     <use xlink:href="#m229966e28b" x="71.863674" y="154.127602" style="fill: #1f77b4; stroke: #1f77b4"/>
     <use xlink:href="#m229966e28b" x="73.495104" y="153.200951" style="fill: #1f77b4; stroke: #1f77b4"/>
     <use xlink:href="#m229966e28b" x="75.126534" y="152.675622" style="fill: #1f77b4; stroke: #1f77b4"/>
     <use xlink:href="#m229966e28b" x="76.757964" y="151.498974" style="fill: #1f77b4; stroke: #1f77b4"/>
     <use xlink:href="#m229966e28b" x="78.389393" y="151.248187" style="fill: #1f77b4; stroke: #1f77b4"/>
     <use xlink:href="#m229966e28b" x="80.020823" y="150.112205" style="fill: #1f77b4; stroke: #1f77b4"/>
     <use xlink:href="#m229966e28b" x="81.652253" y="148.858337" style="fill: #1f77b4; stroke: #1f77b4"/>
     <use xlink:href="#m229966e28b" x="83.283683" y="148.248497" style="fill: #1f77b4; stroke: #1f77b4"/>
     <use xlink:href="#m229966e28b" x="84.915113" y="147.306891" style="fill: #1f77b4; stroke: #1f77b4"/>
     <use xlink:href="#m229966e28b" x="86.546543" y="146.31415" style="fill: #1f77b4; stroke: #1f77b4"/>
     <use xlink:href="#m229966e28b" x="88.177973" y="145.482917" style="fill: #1f77b4; stroke: #1f77b4"/>
     <use xlink:href="#m229966e28b" x="89.809403" y="144.065905" style="fill: #1f77b4; stroke: #1f77b4"/>
     <use xlink:href="#m229966e28b" x="91.440832" y="143.327552" style="fill: #1f77b4; stroke: #1f77b4"/>
     <use xlink:href="#m229966e28b" x="93.072262" y="142.578487" style="fill: #1f77b4; stroke: #1f77b4"/>
     <use xlink:href="#m229966e28b" x="94.703692" y="141.253645" style="fill: #1f77b4; stroke: #1f77b4"/>
     <use xlink:href="#m229966e28b" x="96.335122" y="139.858999" style="fill: #1f77b4; stroke: #1f77b4"/>
     <use xlink:href="#m229966e28b" x="97.966552" y="137.944682" style="fill: #1f77b4; stroke: #1f77b4"/>
     <use xlink:href="#m229966e28b" x="99.597982" y="137.564261" style="fill: #1f77b4; stroke: #1f77b4"/>
     <use xlink:href="#m229966e28b" x="101.229412" y="135.373242" style="fill: #1f77b4; stroke: #1f77b4"/>
     <use xlink:href="#m229966e28b" x="102.860842" y="134.806401" style="fill: #1f77b4; stroke: #1f77b4"/>
     <use xlink:href="#m229966e28b" x="104.492271" y="133.351125" style="fill: #1f77b4; stroke: #1f77b4"/>
     <use xlink:href="#m229966e28b" x="106.123701" y="132.27302" style="fill: #1f77b4; stroke: #1f77b4"/>
     <use xlink:href="#m229966e28b" x="107.755131" y="129.687365" style="fill: #1f77b4; stroke: #1f77b4"/>
     <use xlink:href="#m229966e28b" x="109.386561" y="127.797665" style="fill: #1f77b4; stroke: #1f77b4"/>
     <use xlink:href="#m229966e28b" x="111.017991" y="126.207582" style="fill: #1f77b4; stroke: #1f77b4"/>
     <use xlink:href="#m229966e28b" x="112.649421" y="125.677669" style="fill: #1f77b4; stroke: #1f77b4"/>
     <use xlink:href="#m229966e28b" x="114.280851" y="123.409926" style="fill: #1f77b4; stroke: #1f77b4"/>
     <use xlink:href="#m229966e28b" x="115.912281" y="122.715563" style="fill: #1f77b4; stroke: #1f77b4"/>
     <use xlink:href="#m229966e28b" x="117.54371" y="119.881618" style="fill: #1f77b4; stroke: #1f77b4"/>
     <use xlink:href="#m229966e28b" x="119.17514" y="118.335624" style="fill: #1f77b4; stroke: #1f77b4"/>
     <use xlink:href="#m229966e28b" x="120.80657" y="116.052629" style="fill: #1f77b4; stroke: #1f77b4"/>
     <use xlink:href="#m229966e28b" x="122.438" y="114.1106" style="fill: #1f77b4; stroke: #1f77b4"/>
     <use xlink:href="#m229966e28b" x="124.06943" y="111.583589" style="fill: #1f77b4; stroke: #1f77b4"/>
     <use xlink:href="#m229966e28b" x="125.70086" y="110.466228" style="fill: #1f77b4; stroke: #1f77b4"/>
     <use xlink:href="#m229966e28b" x="127.33229" y="108.470553" style="fill: #1f77b4; stroke: #1f77b4"/>
     <use xlink:href="#m229966e28b" x="128.96372" y="106.074642" style="fill: #1f77b4; stroke: #1f77b4"/>
     <use xlink:href="#m229966e28b" x="130.595149" y="104.321813" style="fill: #1f77b4; stroke: #1f77b4"/>
     <use xlink:href="#m229966e28b" x="132.226579" y="101.748756" style="fill: #1f77b4; stroke: #1f77b4"/>
     <use xlink:href="#m229966e28b" x="133.858009" y="99.44572" style="fill: #1f77b4; stroke: #1f77b4"/>
     <use xlink:href="#m229966e28b" x="135.489439" y="96.898654" style="fill: #1f77b4; stroke: #1f77b4"/>
     <use xlink:href="#m229966e28b" x="137.120869" y="94.841359" style="fill: #1f77b4; stroke: #1f77b4"/>
     <use xlink:href="#m229966e28b" x="138.752299" y="92.133311" style="fill: #1f77b4; stroke: #1f77b4"/>
     <use xlink:href="#m229966e28b" x="140.383729" y="90.094828" style="fill: #1f77b4; stroke: #1f77b4"/>
     <use xlink:href="#m229966e28b" x="142.015159" y="87.571346" style="fill: #1f77b4; stroke: #1f77b4"/>
     <use xlink:href="#m229966e28b" x="143.646588" y="85.534428" style="fill: #1f77b4; stroke: #1f77b4"/>
     <use xlink:href="#m229966e28b" x="145.278018" y="83.489645" style="fill: #1f77b4; stroke: #1f77b4"/>
     <use xlink:href="#m229966e28b" x="146.909448" y="79.955371" style="fill: #1f77b4; stroke: #1f77b4"/>
     <use xlink:href="#m229966e28b" x="148.540878" y="77.832845" style="fill: #1f77b4; stroke: #1f77b4"/>
     <use xlink:href="#m229966e28b" x="150.172308" y="75.161342" style="fill: #1f77b4; stroke: #1f77b4"/>
     <use xlink:href="#m229966e28b" x="151.803738" y="73.227213" style="fill: #1f77b4; stroke: #1f77b4"/>
     <use xlink:href="#m229966e28b" x="153.435168" y="70.416237" style="fill: #1f77b4; stroke: #1f77b4"/>
     <use xlink:href="#m229966e28b" x="155.066598" y="67.626083" style="fill: #1f77b4; stroke: #1f77b4"/>
     <use xlink:href="#m229966e28b" x="156.698027" y="65.508129" style="fill: #1f77b4; stroke: #1f77b4"/>
     <use xlink:href="#m229966e28b" x="158.329457" y="62.294198" style="fill: #1f77b4; stroke: #1f77b4"/>
     <use xlink:href="#m229966e28b" x="159.960887" y="59.997993" style="fill: #1f77b4; stroke: #1f77b4"/>
     <use xlink:href="#m229966e28b" x="161.592317" y="58.485939" style="fill: #1f77b4; stroke: #1f77b4"/>
     <use xlink:href="#m229966e28b" x="163.223747" y="56.109076" style="fill: #1f77b4; stroke: #1f77b4"/>
     <use xlink:href="#m229966e28b" x="164.855177" y="53.793509" style="fill: #1f77b4; stroke: #1f77b4"/>
     <use xlink:href="#m229966e28b" x="166.486607" y="52.826574" style="fill: #1f77b4; stroke: #1f77b4"/>
     <use xlink:href="#m229966e28b" x="168.118037" y="51.363653" style="fill: #1f77b4; stroke: #1f77b4"/>
     <use xlink:href="#m229966e28b" x="169.749467" y="50.692918" style="fill: #1f77b4; stroke: #1f77b4"/>
     <use xlink:href="#m229966e28b" x="171.380896" y="49.395849" style="fill: #1f77b4; stroke: #1f77b4"/>
     <use xlink:href="#m229966e28b" x="173.012326" y="48.235096" style="fill: #1f77b4; stroke: #1f77b4"/>
     <use xlink:href="#m229966e28b" x="174.643756" y="48.193537" style="fill: #1f77b4; stroke: #1f77b4"/>
     <use xlink:href="#m229966e28b" x="176.275186" y="47.954127" style="fill: #1f77b4; stroke: #1f77b4"/>
     <use xlink:href="#m229966e28b" x="177.906616" y="48.150322" style="fill: #1f77b4; stroke: #1f77b4"/>
     <use xlink:href="#m229966e28b" x="179.538046" y="48.774429" style="fill: #1f77b4; stroke: #1f77b4"/>
     <use xlink:href="#m229966e28b" x="181.169476" y="49.522958" style="fill: #1f77b4; stroke: #1f77b4"/>
     <use xlink:href="#m229966e28b" x="182.800906" y="50.600446" style="fill: #1f77b4; stroke: #1f77b4"/>
     <use xlink:href="#m229966e28b" x="184.432335" y="52.260975" style="fill: #1f77b4; stroke: #1f77b4"/>
     <use xlink:href="#m229966e28b" x="186.063765" y="53.812901" style="fill: #1f77b4; stroke: #1f77b4"/>
     <use xlink:href="#m229966e28b" x="187.695195" y="55.47268" style="fill: #1f77b4; stroke: #1f77b4"/>
     <use xlink:href="#m229966e28b" x="189.326625" y="58.341338" style="fill: #1f77b4; stroke: #1f77b4"/>
     <use xlink:href="#m229966e28b" x="190.958055" y="60.313227" style="fill: #1f77b4; stroke: #1f77b4"/>
     <use xlink:href="#m229966e28b" x="192.589485" y="63.216852" style="fill: #1f77b4; stroke: #1f77b4"/>
     <use xlink:href="#m229966e28b" x="194.220915" y="66.199022" style="fill: #1f77b4; stroke: #1f77b4"/>
     <use xlink:href="#m229966e28b" x="195.852345" y="68.881977" style="fill: #1f77b4; stroke: #1f77b4"/>
     <use xlink:href="#m229966e28b" x="197.483774" y="73.087488" style="fill: #1f77b4; stroke: #1f77b4"/>
     <use xlink:href="#m229966e28b" x="199.115204" y="75.204152" style="fill: #1f77b4; stroke: #1f77b4"/>
     <use xlink:href="#m229966e28b" x="200.746634" y="78.520943" style="fill: #1f77b4; stroke: #1f77b4"/>
     <use xlink:href="#m229966e28b" x="202.378064" y="81.664796" style="fill: #1f77b4; stroke: #1f77b4"/>
     <use xlink:href="#m229966e28b" x="204.009494" y="86.42655" style="fill: #1f77b4; stroke: #1f77b4"/>
     <use xlink:href="#m229966e28b" x="205.640924" y="89.805806" style="fill: #1f77b4; stroke: #1f77b4"/>
     <use xlink:href="#m229966e28b" x="207.272354" y="92.256199" style="fill: #1f77b4; stroke: #1f77b4"/>
     <use xlink:href="#m229966e28b" x="208.903784" y="96.682827" style="fill: #1f77b4; stroke: #1f77b4"/>
     <use xlink:href="#m229966e28b" x="210.535213" y="99.917189" style="fill: #1f77b4; stroke: #1f77b4"/>
     <use xlink:href="#m229966e28b" x="212.166643" y="102.665839" style="fill: #1f77b4; stroke: #1f77b4"/>
     <use xlink:href="#m229966e28b" x="213.798073" y="105.565106" style="fill: #1f77b4; stroke: #1f77b4"/>
     <use xlink:href="#m229966e28b" x="215.429503" y="109.217259" style="fill: #1f77b4; stroke: #1f77b4"/>
     <use xlink:href="#m229966e28b" x="217.060933" y="110.927212" style="fill: #1f77b4; stroke: #1f77b4"/>
     <use xlink:href="#m229966e28b" x="218.692363" y="114.154381" style="fill: #1f77b4; stroke: #1f77b4"/>
     <use xlink:href="#m229966e28b" x="220.323793" y="115.821607" style="fill: #1f77b4; stroke: #1f77b4"/>
     <use xlink:href="#m229966e28b" x="221.955223" y="117.952733" style="fill: #1f77b4; stroke: #1f77b4"/>
     <use xlink:href="#m229966e28b" x="223.586652" y="120.16778" style="fill: #1f77b4; stroke: #1f77b4"/>
     <use xlink:href="#m229966e28b" x="225.218082" y="123.427553" style="fill: #1f77b4; stroke: #1f77b4"/>
     <use xlink:href="#m229966e28b" x="226.849512" y="125.096986" style="fill: #1f77b4; stroke: #1f77b4"/>
     <use xlink:href="#m229966e28b" x="228.480942" y="126.458627" style="fill: #1f77b4; stroke: #1f77b4"/>
     <use xlink:href="#m229966e28b" x="230.112372" y="129.533436" style="fill: #1f77b4; stroke: #1f77b4"/>
     <use xlink:href="#m229966e28b" x="231.743802" y="130.665991" style="fill: #1f77b4; stroke: #1f77b4"/>
     <use xlink:href="#m229966e28b" x="233.375232" y="132.057187" style="fill: #1f77b4; stroke: #1f77b4"/>
     <use xlink:href="#m229966e28b" x="235.006662" y="134.305698" style="fill: #1f77b4; stroke: #1f77b4"/>
     <use xlink:href="#m229966e28b" x="236.638091" y="136.140419" style="fill: #1f77b4; stroke: #1f77b4"/>
     <use xlink:href="#m229966e28b" x="238.269521" y="137.625211" style="fill: #1f77b4; stroke: #1f77b4"/>
     <use xlink:href="#m229966e28b" x="239.900951" y="138.72288" style="fill: #1f77b4; stroke: #1f77b4"/>
     <use xlink:href="#m229966e28b" x="241.532381" y="139.334679" style="fill: #1f77b4; stroke: #1f77b4"/>
     <use xlink:href="#m229966e28b" x="243.163811" y="140.125746" style="fill: #1f77b4; stroke: #1f77b4"/>
     <use xlink:href="#m229966e28b" x="244.795241" y="141.389298" style="fill: #1f77b4; stroke: #1f77b4"/>
     <use xlink:href="#m229966e28b" x="246.426671" y="142.633137" style="fill: #1f77b4; stroke: #1f77b4"/>
     <use xlink:href="#m229966e28b" x="248.058101" y="143.617039" style="fill: #1f77b4; stroke: #1f77b4"/>
     <use xlink:href="#m229966e28b" x="249.68953" y="144.199209" style="fill: #1f77b4; stroke: #1f77b4"/>
     <use xlink:href="#m229966e28b" x="251.32096" y="145.126375" style="fill: #1f77b4; stroke: #1f77b4"/>
     <use xlink:href="#m229966e28b" x="252.95239" y="146.075192" style="fill: #1f77b4; stroke: #1f77b4"/>
     <use xlink:href="#m229966e28b" x="254.58382" y="146.621543" style="fill: #1f77b4; stroke: #1f77b4"/>
     <use xlink:href="#m229966e28b" x="256.21525" y="147.424331" style="fill: #1f77b4; stroke: #1f77b4"/>
     <use xlink:href="#m229966e28b" x="257.84668" y="147.696559" style="fill: #1f77b4; stroke: #1f77b4"/>
     <use xlink:href="#m229966e28b" x="259.47811" y="148.754813" style="fill: #1f77b4; stroke: #1f77b4"/>
     <use xlink:href="#m229966e28b" x="261.10954" y="149.87455" style="fill: #1f77b4; stroke: #1f77b4"/>
     <use xlink:href="#m229966e28b" x="262.740969" y="150.355163" style="fill: #1f77b4; stroke: #1f77b4"/>
     <use xlink:href="#m229966e28b" x="264.372399" y="150.62567" style="fill: #1f77b4; stroke: #1f77b4"/>
     <use xlink:href="#m229966e28b" x="266.003829" y="150.81324" style="fill: #1f77b4; stroke: #1f77b4"/>
     <use xlink:href="#m229966e28b" x="267.635259" y="151.528284" style="fill: #1f77b4; stroke: #1f77b4"/>
     <use xlink:href="#m229966e28b" x="269.266689" y="151.762476" style="fill: #1f77b4; stroke: #1f77b4"/>
     <use xlink:href="#m229966e28b" x="270.898119" y="152.233058" style="fill: #1f77b4; stroke: #1f77b4"/>
     <use xlink:href="#m229966e28b" x="272.529549" y="152.546544" style="fill: #1f77b4; stroke: #1f77b4"/>
     <use xlink:href="#m229966e28b" x="274.160979" y="152.798325" style="fill: #1f77b4; stroke: #1f77b4"/>
     <use xlink:href="#m229966e28b" x="275.792408" y="153.081063" style="fill: #1f77b4; stroke: #1f77b4"/>
     <use xlink:href="#m229966e28b" x="277.423838" y="153.417298" style="fill: #1f77b4; stroke: #1f77b4"/>
     <use xlink:href="#m229966e28b" x="279.055268" y="153.399318" style="fill: #1f77b4; stroke: #1f77b4"/>
     <use xlink:href="#m229966e28b" x="280.686698" y="153.612143" style="fill: #1f77b4; stroke: #1f77b4"/>
     <use xlink:href="#m229966e28b" x="282.318128" y="153.783904" style="fill: #1f77b4; stroke: #1f77b4"/>
     <use xlink:href="#m229966e28b" x="283.949558" y="153.886666" style="fill: #1f77b4; stroke: #1f77b4"/>
     <use xlink:href="#m229966e28b" x="285.580988" y="153.806197" style="fill: #1f77b4; stroke: #1f77b4"/>
     <use xlink:href="#m229966e28b" x="287.212418" y="154.03962" style="fill: #1f77b4; stroke: #1f77b4"/>
     <use xlink:href="#m229966e28b" x="288.843848" y="153.70375" style="fill: #1f77b4; stroke: #1f77b4"/>
     <use xlink:href="#m229966e28b" x="290.475277" y="154.008328" style="fill: #1f77b4; stroke: #1f77b4"/>
     <use xlink:href="#m229966e28b" x="292.106707" y="154.016037" style="fill: #1f77b4; stroke: #1f77b4"/>
     <use xlink:href="#m229966e28b" x="293.738137" y="154.077754" style="fill: #1f77b4; stroke: #1f77b4"/>
     <use xlink:href="#m229966e28b" x="295.369567" y="154.117026" style="fill: #1f77b4; stroke: #1f77b4"/>
     <use xlink:href="#m229966e28b" x="297.000997" y="154.097029" style="fill: #1f77b4; stroke: #1f77b4"/>
     <use xlink:href="#m229966e28b" x="298.632427" y="153.920995" style="fill: #1f77b4; stroke: #1f77b4"/>
     <use xlink:href="#m229966e28b" x="300.263857" y="154.029498" style="fill: #1f77b4; stroke: #1f77b4"/>
     <use xlink:href="#m229966e28b" x="301.895287" y="153.548149" style="fill: #1f77b4; stroke: #1f77b4"/>
     <use xlink:href="#m229966e28b" x="303.526716" y="153.440828" style="fill: #1f77b4; stroke: #1f77b4"/>
     <use xlink:href="#m229966e28b" x="305.158146" y="153.425223" style="fill: #1f77b4; stroke: #1f77b4"/>
     <use xlink:href="#m229966e28b" x="306.789576" y="153.199" style="fill: #1f77b4; stroke: #1f77b4"/>
     <use xlink:href="#m229966e28b" x="308.421006" y="153.303242" style="fill: #1f77b4; stroke: #1f77b4"/>
     <use xlink:href="#m229966e28b" x="310.052436" y="153.194672" style="fill: #1f77b4; stroke: #1f77b4"/>
     <use xlink:href="#m229966e28b" x="311.683866" y="152.898454" style="fill: #1f77b4; stroke: #1f77b4"/>
     <use xlink:href="#m229966e28b" x="313.315296" y="152.892139" style="fill: #1f77b4; stroke: #1f77b4"/>
     <use xlink:href="#m229966e28b" x="314.946726" y="152.648001" style="fill: #1f77b4; stroke: #1f77b4"/>
     <use xlink:href="#m229966e28b" x="316.578155" y="152.51734" style="fill: #1f77b4; stroke: #1f77b4"/>
     <use xlink:href="#m229966e28b" x="318.209585" y="152.223921" style="fill: #1f77b4; stroke: #1f77b4"/>
     <use xlink:href="#m229966e28b" x="319.841015" y="152.180777" style="fill: #1f77b4; stroke: #1f77b4"/>
     <use xlink:href="#m229966e28b" x="321.472445" y="151.968987" style="fill: #1f77b4; stroke: #1f77b4"/>
     <use xlink:href="#m229966e28b" x="323.103875" y="151.751162" style="fill: #1f77b4; stroke: #1f77b4"/>
     <use xlink:href="#m229966e28b" x="324.735305" y="151.484301" style="fill: #1f77b4; stroke: #1f77b4"/>
     <use xlink:href="#m229966e28b" x="326.366735" y="151.226634" style="fill: #1f77b4; stroke: #1f77b4"/>
     <use xlink:href="#m229966e28b" x="327.998165" y="151.076149" style="fill: #1f77b4; stroke: #1f77b4"/>
     <use xlink:href="#m229966e28b" x="329.629594" y="150.810505" style="fill: #1f77b4; stroke: #1f77b4"/>
     <use xlink:href="#m229966e28b" x="331.261024" y="150.613845" style="fill: #1f77b4; stroke: #1f77b4"/>
     <use xlink:href="#m229966e28b" x="332.892454" y="150.212572" style="fill: #1f77b4; stroke: #1f77b4"/>
     <use xlink:href="#m229966e28b" x="334.523884" y="150.254439" style="fill: #1f77b4; stroke: #1f77b4"/>
     <use xlink:href="#m229966e28b" x="336.155314" y="149.884756" style="fill: #1f77b4; stroke: #1f77b4"/>
     <use xlink:href="#m229966e28b" x="337.786744" y="149.631384" style="fill: #1f77b4; stroke: #1f77b4"/>
     <use xlink:href="#m229966e28b" x="339.418174" y="149.287108" style="fill: #1f77b4; stroke: #1f77b4"/>
     <use xlink:href="#m229966e28b" x="341.049604" y="149.03103" style="fill: #1f77b4; stroke: #1f77b4"/>
     <use xlink:href="#m229966e28b" x="342.681033" y="148.79292" style="fill: #1f77b4; stroke: #1f77b4"/>
     <use xlink:href="#m229966e28b" x="344.312463" y="148.299931" style="fill: #1f77b4; stroke: #1f77b4"/>
     <use xlink:href="#m229966e28b" x="345.943893" y="148.205051" style="fill: #1f77b4; stroke: #1f77b4"/>
     <use xlink:href="#m229966e28b" x="347.575323" y="147.92638" style="fill: #1f77b4; stroke: #1f77b4"/>
     <use xlink:href="#m229966e28b" x="349.206753" y="147.615421" style="fill: #1f77b4; stroke: #1f77b4"/>
     <use xlink:href="#m229966e28b" x="350.838183" y="147.49818" style="fill: #1f77b4; stroke: #1f77b4"/>
     <use xlink:href="#m229966e28b" x="352.469613" y="146.869536" style="fill: #1f77b4; stroke: #1f77b4"/>
     <use xlink:href="#m229966e28b" x="354.101043" y="146.720862" style="fill: #1f77b4; stroke: #1f77b4"/>
     <use xlink:href="#m229966e28b" x="355.732472" y="146.586554" style="fill: #1f77b4; stroke: #1f77b4"/>
     <use xlink:href="#m229966e28b" x="357.363902" y="146.180073" style="fill: #1f77b4; stroke: #1f77b4"/>
     <use xlink:href="#m229966e28b" x="358.995332" y="145.853294" style="fill: #1f77b4; stroke: #1f77b4"/>
     <use xlink:href="#m229966e28b" x="360.626762" y="145.553044" style="fill: #1f77b4; stroke: #1f77b4"/>
     <use xlink:href="#m229966e28b" x="362.258192" y="145.068307" style="fill: #1f77b4; stroke: #1f77b4"/>
     <use xlink:href="#m229966e28b" x="363.889622" y="145.012726" style="fill: #1f77b4; stroke: #1f77b4"/>
     <use xlink:href="#m229966e28b" x="365.521052" y="144.520024" style="fill: #1f77b4; stroke: #1f77b4"/>
     <use xlink:href="#m229966e28b" x="367.152482" y="144.28344" style="fill: #1f77b4; stroke: #1f77b4"/>
     <use xlink:href="#m229966e28b" x="368.783911" y="143.900417" style="fill: #1f77b4; stroke: #1f77b4"/>
     <use xlink:href="#m229966e28b" x="370.415341" y="143.596242" style="fill: #1f77b4; stroke: #1f77b4"/>
     <use xlink:href="#m229966e28b" x="372.046771" y="143.103405" style="fill: #1f77b4; stroke: #1f77b4"/>
     <use xlink:href="#m229966e28b" x="373.678201" y="142.729543" style="fill: #1f77b4; stroke: #1f77b4"/>
     <use xlink:href="#m229966e28b" x="375.309631" y="142.421749" style="fill: #1f77b4; stroke: #1f77b4"/>
     <use xlink:href="#m229966e28b" x="376.941061" y="141.994314" style="fill: #1f77b4; stroke: #1f77b4"/>
     <use xlink:href="#m229966e28b" x="378.572491" y="141.602017" style="fill: #1f77b4; stroke: #1f77b4"/>
     <use xlink:href="#m229966e28b" x="380.203921" y="141.072933" style="fill: #1f77b4; stroke: #1f77b4"/>
     <use xlink:href="#m229966e28b" x="381.83535" y="141.168778" style="fill: #1f77b4; stroke: #1f77b4"/>
     <use xlink:href="#m229966e28b" x="383.46678" y="140.528358" style="fill: #1f77b4; stroke: #1f77b4"/>
     <use xlink:href="#m229966e28b" x="385.09821" y="140.131503" style="fill: #1f77b4; stroke: #1f77b4"/>
    </g>
   </g>
   <g id="line2d_11">
    <path d="M 60.443665 156.841473 
L 66.618276 154.574926 
L 72.467907 152.179832 
L 77.992559 149.666282 
L 83.192232 147.048029 
L 88.066924 144.342976 
L 92.616638 141.57355 
L 97.166351 138.540905 
L 101.391085 135.463779 
L 105.615819 132.109298 
L 109.515573 128.74342 
L 113.415327 125.096376 
L 117.315082 121.146309 
L 121.214836 116.872607 
L 125.11459 112.257694 
L 129.014345 107.289648 
L 132.914099 101.965878 
L 137.138833 95.811128 
L 141.688546 88.782002 
L 147.863157 78.778599 
L 155.662666 66.148075 
L 159.23744 60.78286 
L 162.162256 56.805546 
L 164.437113 54.063109 
L 166.38699 52.012357 
L 168.336867 50.281945 
L 169.961765 49.112798 
L 171.586662 48.213682 
L 173.21156 47.60255 
L 174.511478 47.331036 
L 175.811396 47.2592 
L 177.111314 47.391182 
L 178.411232 47.729288 
L 179.71115 48.273893 
L 181.011069 49.023398 
L 182.635966 50.242787 
L 184.260864 51.765399 
L 185.885761 53.575615 
L 187.835639 56.099703 
L 190.110495 59.478222 
L 192.710331 63.821889 
L 195.635147 69.18339 
L 199.534901 76.832393 
L 210.259226 98.159403 
L 214.15898 105.288107 
L 217.733755 111.334746 
L 220.98355 116.388233 
L 224.233345 121.008496 
L 227.158161 124.800312 
L 230.082977 128.256328 
L 233.007793 131.392248 
L 235.932608 134.226602 
L 238.857424 136.779403 
L 242.107219 139.310563 
L 245.357014 141.547209 
L 248.60681 143.51602 
L 251.856605 145.242094 
L 255.43138 146.888127 
L 259.006155 148.296827 
L 262.905909 149.59275 
L 267.130643 150.746075 
L 271.355376 151.670592 
L 275.90509 152.44281 
L 280.779783 153.046735 
L 285.979455 153.471057 
L 291.829087 153.716422 
L 298.003698 153.749271 
L 304.828268 153.558339 
L 312.302797 153.120566 
L 320.427285 152.419947 
L 329.526711 151.406415 
L 339.601077 150.053484 
L 350.650381 148.342377 
L 362.999603 146.201075 
L 376.648743 143.605333 
L 385.09821 141.896982 
L 385.09821 141.896982 
" clip-path="url(#pe4b6ebd875)" style="fill: none; stroke: #d62728; stroke-width: 1.5; stroke-linecap: square"/>
   </g>
   <g id="patch_3">
    <path d="M 44.210938 162.72 
L 44.210938 41.76 
" style="fill: none; stroke: #000000; stroke-width: 0.8; stroke-linejoin: miter; stroke-linecap: square"/>
   </g>
   <g id="patch_4">
    <path d="M 401.330938 162.72 
L 401.330938 41.76 
" style="fill: none; stroke: #000000; stroke-width: 0.8; stroke-linejoin: miter; stroke-linecap: square"/>
   </g>
   <g id="patch_5">
    <path d="M 44.210938 162.72 
L 401.330937 162.72 
" style="fill: none; stroke: #000000; stroke-width: 0.8; stroke-linejoin: miter; stroke-linecap: square"/>
   </g>
   <g id="patch_6">
    <path d="M 44.210938 41.76 
L 401.330937 41.76 
" style="fill: none; stroke: #000000; stroke-width: 0.8; stroke-linejoin: miter; stroke-linecap: square"/>
   </g>
   <g id="text_5">
    <g id="patch_7">
     <path d="M 419.186937 95.079562 
L 564.986938 95.079562 
Q 568.986938 95.079562 568.986938 91.079562 
L 568.986938 47.808 
Q 568.986938 43.808 564.986938 43.808 
L 419.186937 43.808 
Q 415.186937 43.808 415.186937 47.808 
L 415.186937 91.079562 
Q 415.186937 95.079562 419.186937 95.079562 
z
" style="fill: #ffffff; opacity: 0.5; stroke: #000000; stroke-linejoin: miter"/>
    </g>
    <!-- Summary -->
    <g transform="translate(419.186937 55.406437) scale(0.1 -0.1)">
     <defs>
      <path id="DejaVuSans-53" d="M 3425 4513 
L 3425 3897 
Q 3066 4069 2747 4153 
Q 2428 4238 2131 4238 
Q 1616 4238 1336 4038 
Q 1056 3838 1056 3469 
Q 1056 3159 1242 3001 
Q 1428 2844 1947 2747 
L 2328 2669 
Q 3034 2534 3370 2195 
Q 3706 1856 3706 1288 
Q 3706 609 3251 259 
Q 2797 -91 1919 -91 
Q 1588 -91 1214 -16 
Q 841 59 441 206 
L 441 856 
Q 825 641 1194 531 
Q 1563 422 1919 422 
Q 2459 422 2753 634 
Q 3047 847 3047 1241 
Q 3047 1584 2836 1778 
Q 2625 1972 2144 2069 
L 1759 2144 
Q 1053 2284 737 2584 
Q 422 2884 422 3419 
Q 422 4038 858 4394 
Q 1294 4750 2059 4750 
Q 2388 4750 2728 4690 
Q 3069 4631 3425 4513 
z
" transform="scale(0.015625)"/>
      <path id="DejaVuSans-75" d="M 544 1381 
L 544 3500 
L 1119 3500 
L 1119 1403 
Q 1119 906 1312 657 
Q 1506 409 1894 409 
Q 2359 409 2629 706 
Q 2900 1003 2900 1516 
L 2900 3500 
L 3475 3500 
L 3475 0 
L 2900 0 
L 2900 538 
Q 2691 219 2414 64 
Q 2138 -91 1772 -91 
Q 1169 -91 856 284 
Q 544 659 544 1381 
z
M 1991 3584 
L 1991 3584 
z
" transform="scale(0.015625)"/>
      <path id="DejaVuSans-61" d="M 2194 1759 
Q 1497 1759 1228 1600 
Q 959 1441 959 1056 
Q 959 750 1161 570 
Q 1363 391 1709 391 
Q 2188 391 2477 730 
Q 2766 1069 2766 1631 
L 2766 1759 
L 2194 1759 
z
M 3341 1997 
L 3341 0 
L 2766 0 
L 2766 531 
Q 2569 213 2275 61 
Q 1981 -91 1556 -91 
Q 1019 -91 701 211 
Q 384 513 384 1019 
Q 384 1609 779 1909 
Q 1175 2209 1959 2209 
L 2766 2209 
L 2766 2266 
Q 2766 2663 2505 2880 
Q 2244 3097 1772 3097 
Q 1472 3097 1187 3025 
Q 903 2953 641 2809 
L 641 3341 
Q 956 3463 1253 3523 
Q 1550 3584 1831 3584 
Q 2591 3584 2966 3190 
Q 3341 2797 3341 1997 
z
" transform="scale(0.015625)"/>
      <path id="DejaVuSans-72" d="M 2631 2963 
Q 2534 3019 2420 3045 
Q 2306 3072 2169 3072 
Q 1681 3072 1420 2755 
Q 1159 2438 1159 1844 
L 1159 0 
L 581 0 
L 581 3500 
L 1159 3500 
L 1159 2956 
Q 1341 3275 1631 3429 
Q 1922 3584 2338 3584 
Q 2397 3584 2469 3576 
Q 2541 3569 2628 3553 
L 2631 2963 
z
" transform="scale(0.015625)"/>
      <path id="DejaVuSans-79" d="M 2059 -325 
Q 1816 -950 1584 -1140 
Q 1353 -1331 966 -1331 
L 506 -1331 
L 506 -850 
L 844 -850 
Q 1081 -850 1212 -737 
Q 1344 -625 1503 -206 
L 1606 56 
L 191 3500 
L 800 3500 
L 1894 763 
L 2988 3500 
L 3597 3500 
L 2059 -325 
z
" transform="scale(0.015625)"/>
     </defs>
     <use xlink:href="#DejaVuSans-53"/>
     <use xlink:href="#DejaVuSans-75" x="63.476562"/>
     <use xlink:href="#DejaVuSans-6d" x="126.855469"/>
     <use xlink:href="#DejaVuSans-6d" x="224.267578"/>
     <use xlink:href="#DejaVuSans-61" x="321.679688"/>
     <use xlink:href="#DejaVuSans-72" x="382.958984"/>
     <use xlink:href="#DejaVuSans-79" x="424.072266"/>
    </g>
    <!-- $Q_I$: 20.57$\pm$0.23 k -->
    <g transform="translate(419.186937 66.60425) scale(0.1 -0.1)">
     <defs>
      <path id="DejaVuSans-Oblique-51" d="M 2309 -84 
Q 2275 -88 2237 -89 
Q 2200 -91 2125 -91 
Q 1250 -91 756 411 
Q 263 913 263 1797 
Q 263 2319 452 2844 
Q 641 3369 978 3788 
Q 1369 4269 1858 4509 
Q 2347 4750 2938 4750 
Q 3794 4750 4287 4245 
Q 4781 3741 4781 2869 
Q 4781 1928 4265 1147 
Q 3750 366 2919 44 
L 3553 -825 
L 2847 -825 
L 2309 -84 
z
M 2919 4238 
Q 2400 4238 2003 3986 
Q 1606 3734 1313 3219 
Q 1125 2891 1026 2522 
Q 928 2153 928 1778 
Q 928 1128 1239 775 
Q 1550 422 2119 422 
Q 2631 422 3032 676 
Q 3434 931 3719 1434 
Q 3909 1772 4009 2142 
Q 4109 2513 4109 2881 
Q 4109 3528 3796 3883 
Q 3484 4238 2919 4238 
z
" transform="scale(0.015625)"/>
      <path id="DejaVuSans-Oblique-49" d="M 1081 4666 
L 1716 4666 
L 806 0 
L 172 0 
L 1081 4666 
z
" transform="scale(0.015625)"/>
      <path id="DejaVuSans-3a" d="M 750 794 
L 1409 794 
L 1409 0 
L 750 0 
L 750 794 
z
M 750 3309 
L 1409 3309 
L 1409 2516 
L 750 2516 
L 750 3309 
z
" transform="scale(0.015625)"/>
      <path id="DejaVuSans-2e" d="M 684 794 
L 1344 794 
L 1344 0 
L 684 0 
L 684 794 
z
" transform="scale(0.015625)"/>
      <path id="DejaVuSans-35" d="M 691 4666 
L 3169 4666 
L 3169 4134 
L 1269 4134 
L 1269 2991 
Q 1406 3038 1543 3061 
Q 1681 3084 1819 3084 
Q 2600 3084 3056 2656 
Q 3513 2228 3513 1497 
Q 3513 744 3044 326 
Q 2575 -91 1722 -91 
Q 1428 -91 1123 -41 
Q 819 9 494 109 
L 494 744 
Q 775 591 1075 516 
Q 1375 441 1709 441 
Q 2250 441 2565 725 
Q 2881 1009 2881 1497 
Q 2881 1984 2565 2268 
Q 2250 2553 1709 2553 
Q 1456 2553 1204 2497 
Q 953 2441 691 2322 
L 691 4666 
z
" transform="scale(0.015625)"/>
      <path id="DejaVuSans-37" d="M 525 4666 
L 3525 4666 
L 3525 4397 
L 1831 0 
L 1172 0 
L 2766 4134 
L 525 4134 
L 525 4666 
z
" transform="scale(0.015625)"/>
      <path id="DejaVuSans-b1" d="M 2944 4013 
L 2944 2803 
L 4684 2803 
L 4684 2272 
L 2944 2272 
L 2944 1063 
L 2419 1063 
L 2419 2272 
L 678 2272 
L 678 2803 
L 2419 2803 
L 2419 4013 
L 2944 4013 
z
M 678 531 
L 4684 531 
L 4684 0 
L 678 0 
L 678 531 
z
" transform="scale(0.015625)"/>
      <path id="DejaVuSans-33" d="M 2597 2516 
Q 3050 2419 3304 2112 
Q 3559 1806 3559 1356 
Q 3559 666 3084 287 
Q 2609 -91 1734 -91 
Q 1441 -91 1130 -33 
Q 819 25 488 141 
L 488 750 
Q 750 597 1062 519 
Q 1375 441 1716 441 
Q 2309 441 2620 675 
Q 2931 909 2931 1356 
Q 2931 1769 2642 2001 
Q 2353 2234 1838 2234 
L 1294 2234 
L 1294 2753 
L 1863 2753 
Q 2328 2753 2575 2939 
Q 2822 3125 2822 3475 
Q 2822 3834 2567 4026 
Q 2313 4219 1838 4219 
Q 1578 4219 1281 4162 
Q 984 4106 628 3988 
L 628 4550 
Q 988 4650 1302 4700 
Q 1616 4750 1894 4750 
Q 2613 4750 3031 4423 
Q 3450 4097 3450 3541 
Q 3450 3153 3228 2886 
Q 3006 2619 2597 2516 
z
" transform="scale(0.015625)"/>
      <path id="DejaVuSans-6b" d="M 581 4863 
L 1159 4863 
L 1159 1991 
L 2875 3500 
L 3609 3500 
L 1753 1863 
L 3688 0 
L 2938 0 
L 1159 1709 
L 1159 0 
L 581 0 
L 581 4863 
z
" transform="scale(0.015625)"/>
     </defs>
     <use xlink:href="#DejaVuSans-Oblique-51" transform="translate(0 0.015625)"/>
     <use xlink:href="#DejaVuSans-Oblique-49" transform="translate(78.710938 -16.390625) scale(0.7)"/>
     <use xlink:href="#DejaVuSans-3a" transform="translate(102.089844 0.015625)"/>
     <use xlink:href="#DejaVuSans-20" transform="translate(135.78125 0.015625)"/>
     <use xlink:href="#DejaVuSans-32" transform="translate(167.568359 0.015625)"/>
     <use xlink:href="#DejaVuSans-30" transform="translate(231.191406 0.015625)"/>
     <use xlink:href="#DejaVuSans-2e" transform="translate(294.814453 0.015625)"/>
     <use xlink:href="#DejaVuSans-35" transform="translate(326.601562 0.015625)"/>
     <use xlink:href="#DejaVuSans-37" transform="translate(382.974609 0.015625)"/>
     <use xlink:href="#DejaVuSans-b1" transform="translate(446.597656 0.015625)"/>
     <use xlink:href="#DejaVuSans-30" transform="translate(530.386719 0.015625)"/>
     <use xlink:href="#DejaVuSans-2e" transform="translate(594.009766 0.015625)"/>
     <use xlink:href="#DejaVuSans-32" transform="translate(620.296875 0.015625)"/>
     <use xlink:href="#DejaVuSans-33" transform="translate(683.919922 0.015625)"/>
     <use xlink:href="#DejaVuSans-20" transform="translate(747.542969 0.015625)"/>
     <use xlink:href="#DejaVuSans-6b" transform="translate(779.330078 0.015625)"/>
    </g>
    <!-- $Q_C$: 2.4013$\pm$0.0056 k -->
    <g transform="translate(419.186937 77.802062) scale(0.1 -0.1)">
     <defs>
      <path id="DejaVuSans-Oblique-43" d="M 4447 4306 
L 4319 3641 
Q 4019 3944 3683 4091 
Q 3347 4238 2956 4238 
Q 2422 4238 2017 3981 
Q 1613 3725 1319 3200 
Q 1131 2863 1032 2486 
Q 934 2109 934 1728 
Q 934 1091 1264 756 
Q 1594 422 2222 422 
Q 2656 422 3056 561 
Q 3456 700 3834 978 
L 3688 231 
Q 3316 72 2936 -9 
Q 2556 -91 2175 -91 
Q 1278 -91 773 396 
Q 269 884 269 1753 
Q 269 2309 461 2846 
Q 653 3384 1013 3828 
Q 1394 4300 1883 4525 
Q 2372 4750 3022 4750 
Q 3422 4750 3780 4639 
Q 4138 4528 4447 4306 
z
" transform="scale(0.015625)"/>
     </defs>
     <use xlink:href="#DejaVuSans-Oblique-51" transform="translate(0 0.015625)"/>
     <use xlink:href="#DejaVuSans-Oblique-43" transform="translate(78.710938 -16.390625) scale(0.7)"/>
     <use xlink:href="#DejaVuSans-3a" transform="translate(130.322266 0.015625)"/>
     <use xlink:href="#DejaVuSans-20" transform="translate(164.013672 0.015625)"/>
     <use xlink:href="#DejaVuSans-32" transform="translate(195.800781 0.015625)"/>
     <use xlink:href="#DejaVuSans-2e" transform="translate(259.423828 0.015625)"/>
     <use xlink:href="#DejaVuSans-34" transform="translate(291.210938 0.015625)"/>
     <use xlink:href="#DejaVuSans-30" transform="translate(354.833984 0.015625)"/>
     <use xlink:href="#DejaVuSans-31" transform="translate(418.457031 0.015625)"/>
     <use xlink:href="#DejaVuSans-33" transform="translate(482.080078 0.015625)"/>
     <use xlink:href="#DejaVuSans-b1" transform="translate(545.703125 0.015625)"/>
     <use xlink:href="#DejaVuSans-30" transform="translate(629.492188 0.015625)"/>
     <use xlink:href="#DejaVuSans-2e" transform="translate(693.115234 0.015625)"/>
     <use xlink:href="#DejaVuSans-30" transform="translate(724.902344 0.015625)"/>
     <use xlink:href="#DejaVuSans-30" transform="translate(788.525391 0.015625)"/>
     <use xlink:href="#DejaVuSans-35" transform="translate(852.148438 0.015625)"/>
     <use xlink:href="#DejaVuSans-36" transform="translate(915.771484 0.015625)"/>
     <use xlink:href="#DejaVuSans-20" transform="translate(979.394531 0.015625)"/>
     <use xlink:href="#DejaVuSans-6b" transform="translate(1011.181641 0.015625)"/>
    </g>
    <!-- $f_{res}$: 6.1060230$\pm$3.9e-06 GHz -->
    <g transform="translate(419.186937 88.999875) scale(0.1 -0.1)">
     <defs>
      <path id="DejaVuSans-Oblique-66" d="M 3059 4863 
L 2969 4384 
L 2419 4384 
Q 2106 4384 1964 4261 
Q 1822 4138 1753 3809 
L 1691 3500 
L 2638 3500 
L 2553 3053 
L 1606 3053 
L 1013 0 
L 434 0 
L 1031 3053 
L 481 3053 
L 563 3500 
L 1113 3500 
L 1159 3744 
Q 1278 4363 1576 4613 
Q 1875 4863 2516 4863 
L 3059 4863 
z
" transform="scale(0.015625)"/>
      <path id="DejaVuSans-Oblique-72" d="M 2853 2969 
Q 2766 3016 2653 3041 
Q 2541 3066 2413 3066 
Q 1953 3066 1609 2717 
Q 1266 2369 1153 1784 
L 800 0 
L 225 0 
L 909 3500 
L 1484 3500 
L 1375 2956 
Q 1603 3259 1920 3421 
Q 2238 3584 2597 3584 
Q 2691 3584 2781 3573 
Q 2872 3563 2963 3538 
L 2853 2969 
z
" transform="scale(0.015625)"/>
      <path id="DejaVuSans-Oblique-65" d="M 3078 2063 
Q 3088 2113 3092 2166 
Q 3097 2219 3097 2272 
Q 3097 2653 2873 2875 
Q 2650 3097 2266 3097 
Q 1838 3097 1509 2826 
Q 1181 2556 1013 2059 
L 3078 2063 
z
M 3578 1613 
L 903 1613 
Q 884 1494 878 1425 
Q 872 1356 872 1306 
Q 872 872 1139 634 
Q 1406 397 1894 397 
Q 2269 397 2603 481 
Q 2938 566 3225 728 
L 3116 159 
Q 2806 34 2476 -28 
Q 2147 -91 1806 -91 
Q 1078 -91 686 257 
Q 294 606 294 1247 
Q 294 1794 489 2264 
Q 684 2734 1063 3103 
Q 1306 3334 1642 3459 
Q 1978 3584 2356 3584 
Q 2950 3584 3301 3228 
Q 3653 2872 3653 2272 
Q 3653 2128 3634 1964 
Q 3616 1800 3578 1613 
z
" transform="scale(0.015625)"/>
      <path id="DejaVuSans-Oblique-73" d="M 3200 3397 
L 3091 2853 
Q 2863 2978 2609 3040 
Q 2356 3103 2088 3103 
Q 1634 3103 1373 2948 
Q 1113 2794 1113 2528 
Q 1113 2219 1719 2053 
Q 1766 2041 1788 2034 
L 1972 1978 
Q 2547 1819 2739 1644 
Q 2931 1469 2931 1166 
Q 2931 609 2489 259 
Q 2047 -91 1331 -91 
Q 1053 -91 747 -37 
Q 441 16 72 128 
L 184 722 
Q 500 559 806 475 
Q 1113 391 1394 391 
Q 1816 391 2080 572 
Q 2344 753 2344 1031 
Q 2344 1331 1650 1516 
L 1591 1531 
L 1394 1581 
Q 956 1697 753 1886 
Q 550 2075 550 2369 
Q 550 2928 970 3256 
Q 1391 3584 2113 3584 
Q 2397 3584 2667 3537 
Q 2938 3491 3200 3397 
z
" transform="scale(0.015625)"/>
      <path id="DejaVuSans-39" d="M 703 97 
L 703 672 
Q 941 559 1184 500 
Q 1428 441 1663 441 
Q 2288 441 2617 861 
Q 2947 1281 2994 2138 
Q 2813 1869 2534 1725 
Q 2256 1581 1919 1581 
Q 1219 1581 811 2004 
Q 403 2428 403 3163 
Q 403 3881 828 4315 
Q 1253 4750 1959 4750 
Q 2769 4750 3195 4129 
Q 3622 3509 3622 2328 
Q 3622 1225 3098 567 
Q 2575 -91 1691 -91 
Q 1453 -91 1209 -44 
Q 966 3 703 97 
z
M 1959 2075 
Q 2384 2075 2632 2365 
Q 2881 2656 2881 3163 
Q 2881 3666 2632 3958 
Q 2384 4250 1959 4250 
Q 1534 4250 1286 3958 
Q 1038 3666 1038 3163 
Q 1038 2656 1286 2365 
Q 1534 2075 1959 2075 
z
" transform="scale(0.015625)"/>
      <path id="DejaVuSans-47" d="M 3809 666 
L 3809 1919 
L 2778 1919 
L 2778 2438 
L 4434 2438 
L 4434 434 
Q 4069 175 3628 42 
Q 3188 -91 2688 -91 
Q 1594 -91 976 548 
Q 359 1188 359 2328 
Q 359 3472 976 4111 
Q 1594 4750 2688 4750 
Q 3144 4750 3555 4637 
Q 3966 4525 4313 4306 
L 4313 3634 
Q 3963 3931 3569 4081 
Q 3175 4231 2741 4231 
Q 1884 4231 1454 3753 
Q 1025 3275 1025 2328 
Q 1025 1384 1454 906 
Q 1884 428 2741 428 
Q 3075 428 3337 486 
Q 3600 544 3809 666 
z
" transform="scale(0.015625)"/>
      <path id="DejaVuSans-48" d="M 628 4666 
L 1259 4666 
L 1259 2753 
L 3553 2753 
L 3553 4666 
L 4184 4666 
L 4184 0 
L 3553 0 
L 3553 2222 
L 1259 2222 
L 1259 0 
L 628 0 
L 628 4666 
z
" transform="scale(0.015625)"/>
      <path id="DejaVuSans-7a" d="M 353 3500 
L 3084 3500 
L 3084 2975 
L 922 459 
L 3084 459 
L 3084 0 
L 275 0 
L 275 525 
L 2438 3041 
L 353 3041 
L 353 3500 
z
" transform="scale(0.015625)"/>
     </defs>
     <use xlink:href="#DejaVuSans-Oblique-66" transform="translate(0 0.015625)"/>
     <use xlink:href="#DejaVuSans-Oblique-72" transform="translate(35.205078 -16.390625) scale(0.7)"/>
     <use xlink:href="#DejaVuSans-Oblique-65" transform="translate(63.984375 -16.390625) scale(0.7)"/>
     <use xlink:href="#DejaVuSans-Oblique-73" transform="translate(107.050781 -16.390625) scale(0.7)"/>
     <use xlink:href="#DejaVuSans-3a" transform="translate(146.254883 0.015625)"/>
     <use xlink:href="#DejaVuSans-20" transform="translate(179.946289 0.015625)"/>
     <use xlink:href="#DejaVuSans-36" transform="translate(211.733398 0.015625)"/>
     <use xlink:href="#DejaVuSans-2e" transform="translate(275.356445 0.015625)"/>
     <use xlink:href="#DejaVuSans-31" transform="translate(307.143555 0.015625)"/>
     <use xlink:href="#DejaVuSans-30" transform="translate(370.766602 0.015625)"/>
     <use xlink:href="#DejaVuSans-36" transform="translate(434.389648 0.015625)"/>
     <use xlink:href="#DejaVuSans-30" transform="translate(498.012695 0.015625)"/>
     <use xlink:href="#DejaVuSans-32" transform="translate(561.635742 0.015625)"/>
     <use xlink:href="#DejaVuSans-33" transform="translate(625.258789 0.015625)"/>
     <use xlink:href="#DejaVuSans-30" transform="translate(688.881836 0.015625)"/>
     <use xlink:href="#DejaVuSans-b1" transform="translate(752.504883 0.015625)"/>
     <use xlink:href="#DejaVuSans-33" transform="translate(836.293945 0.015625)"/>
     <use xlink:href="#DejaVuSans-2e" transform="translate(899.916992 0.015625)"/>
     <use xlink:href="#DejaVuSans-39" transform="translate(931.704102 0.015625)"/>
     <use xlink:href="#DejaVuSans-65" transform="translate(995.327148 0.015625)"/>
     <use xlink:href="#DejaVuSans-2d" transform="translate(1056.850586 0.015625)"/>
     <use xlink:href="#DejaVuSans-30" transform="translate(1092.93457 0.015625)"/>
     <use xlink:href="#DejaVuSans-36" transform="translate(1156.557617 0.015625)"/>
     <use xlink:href="#DejaVuSans-20" transform="translate(1220.180664 0.015625)"/>
     <use xlink:href="#DejaVuSans-47" transform="translate(1251.967773 0.015625)"/>
     <use xlink:href="#DejaVuSans-48" transform="translate(1329.458008 0.015625)"/>
     <use xlink:href="#DejaVuSans-7a" transform="translate(1404.65332 0.015625)"/>
    </g>
   </g>
  </g>
  <g id="axes_2">
   <g id="patch_8">
    <path d="M 44.210938 307.872 
L 401.330938 307.872 
L 401.330938 186.912 
L 44.210938 186.912 
z
" style="fill: #ffffff"/>
   </g>
   <g id="matplotlib.axis_3">
    <g id="xtick_7">
     <g id="line2d_12">
      <g>
       <use xlink:href="#m2d3433ba45" x="50.704028" y="307.872" style="stroke: #000000; stroke-width: 0.8"/>
      </g>
     </g>
     <g id="text_6">
      <!-- 102 -->
      <g transform="translate(41.160278 322.470438) scale(0.1 -0.1)">
       <use xlink:href="#DejaVuSans-31"/>
       <use xlink:href="#DejaVuSans-30" x="63.623047"/>
       <use xlink:href="#DejaVuSans-32" x="127.246094"/>
      </g>
     </g>
    </g>
    <g id="xtick_8">
     <g id="line2d_13">
      <g>
       <use xlink:href="#m2d3433ba45" x="115.634937" y="307.872" style="stroke: #000000; stroke-width: 0.8"/>
      </g>
     </g>
     <g id="text_7">
      <!-- 104 -->
      <g transform="translate(106.091187 322.470438) scale(0.1 -0.1)">
       <use xlink:href="#DejaVuSans-31"/>
       <use xlink:href="#DejaVuSans-30" x="63.623047"/>
       <use xlink:href="#DejaVuSans-34" x="127.246094"/>
      </g>
     </g>
    </g>
    <g id="xtick_9">
     <g id="line2d_14">
      <g>
       <use xlink:href="#m2d3433ba45" x="180.565847" y="307.872" style="stroke: #000000; stroke-width: 0.8"/>
      </g>
     </g>
     <g id="text_8">
      <!-- 106 -->
      <g transform="translate(171.022097 322.470438) scale(0.1 -0.1)">
       <use xlink:href="#DejaVuSans-31"/>
       <use xlink:href="#DejaVuSans-30" x="63.623047"/>
       <use xlink:href="#DejaVuSans-36" x="127.246094"/>
      </g>
     </g>
    </g>
    <g id="xtick_10">
     <g id="line2d_15">
      <g>
       <use xlink:href="#m2d3433ba45" x="245.496756" y="307.872" style="stroke: #000000; stroke-width: 0.8"/>
      </g>
     </g>
     <g id="text_9">
      <!-- 108 -->
      <g transform="translate(235.953006 322.470438) scale(0.1 -0.1)">
       <defs>
        <path id="DejaVuSans-38" d="M 2034 2216 
Q 1584 2216 1326 1975 
Q 1069 1734 1069 1313 
Q 1069 891 1326 650 
Q 1584 409 2034 409 
Q 2484 409 2743 651 
Q 3003 894 3003 1313 
Q 3003 1734 2745 1975 
Q 2488 2216 2034 2216 
z
M 1403 2484 
Q 997 2584 770 2862 
Q 544 3141 544 3541 
Q 544 4100 942 4425 
Q 1341 4750 2034 4750 
Q 2731 4750 3128 4425 
Q 3525 4100 3525 3541 
Q 3525 3141 3298 2862 
Q 3072 2584 2669 2484 
Q 3125 2378 3379 2068 
Q 3634 1759 3634 1313 
Q 3634 634 3220 271 
Q 2806 -91 2034 -91 
Q 1263 -91 848 271 
Q 434 634 434 1313 
Q 434 1759 690 2068 
Q 947 2378 1403 2484 
z
M 1172 3481 
Q 1172 3119 1398 2916 
Q 1625 2713 2034 2713 
Q 2441 2713 2670 2916 
Q 2900 3119 2900 3481 
Q 2900 3844 2670 4047 
Q 2441 4250 2034 4250 
Q 1625 4250 1398 4047 
Q 1172 3844 1172 3481 
z
" transform="scale(0.015625)"/>
       </defs>
       <use xlink:href="#DejaVuSans-31"/>
       <use xlink:href="#DejaVuSans-30" x="63.623047"/>
       <use xlink:href="#DejaVuSans-38" x="127.246094"/>
      </g>
     </g>
    </g>
    <g id="xtick_11">
     <g id="line2d_16">
      <g>
       <use xlink:href="#m2d3433ba45" x="310.427665" y="307.872" style="stroke: #000000; stroke-width: 0.8"/>
      </g>
     </g>
     <g id="text_10">
      <!-- 110 -->
      <g transform="translate(300.883915 322.470438) scale(0.1 -0.1)">
       <use xlink:href="#DejaVuSans-31"/>
       <use xlink:href="#DejaVuSans-31" x="63.623047"/>
       <use xlink:href="#DejaVuSans-30" x="127.246094"/>
      </g>
     </g>
    </g>
    <g id="xtick_12">
     <g id="line2d_17">
      <g>
       <use xlink:href="#m2d3433ba45" x="375.358574" y="307.872" style="stroke: #000000; stroke-width: 0.8"/>
      </g>
     </g>
     <g id="text_11">
      <!-- 112 -->
      <g transform="translate(365.814824 322.470438) scale(0.1 -0.1)">
       <use xlink:href="#DejaVuSans-31"/>
       <use xlink:href="#DejaVuSans-31" x="63.623047"/>
       <use xlink:href="#DejaVuSans-32" x="127.246094"/>
      </g>
     </g>
    </g>
    <g id="text_12">
     <!-- Frequency [MHz] -->
     <g transform="translate(180.752187 336.148562) scale(0.1 -0.1)">
      <defs>
       <path id="DejaVuSans-46" d="M 628 4666 
L 3309 4666 
L 3309 4134 
L 1259 4134 
L 1259 2759 
L 3109 2759 
L 3109 2228 
L 1259 2228 
L 1259 0 
L 628 0 
L 628 4666 
z
" transform="scale(0.015625)"/>
       <path id="DejaVuSans-71" d="M 947 1747 
Q 947 1113 1208 752 
Q 1469 391 1925 391 
Q 2381 391 2643 752 
Q 2906 1113 2906 1747 
Q 2906 2381 2643 2742 
Q 2381 3103 1925 3103 
Q 1469 3103 1208 2742 
Q 947 2381 947 1747 
z
M 2906 525 
Q 2725 213 2448 61 
Q 2172 -91 1784 -91 
Q 1150 -91 751 415 
Q 353 922 353 1747 
Q 353 2572 751 3078 
Q 1150 3584 1784 3584 
Q 2172 3584 2448 3432 
Q 2725 3281 2906 2969 
L 2906 3500 
L 3481 3500 
L 3481 -1331 
L 2906 -1331 
L 2906 525 
z
" transform="scale(0.015625)"/>
       <path id="DejaVuSans-6e" d="M 3513 2113 
L 3513 0 
L 2938 0 
L 2938 2094 
Q 2938 2591 2744 2837 
Q 2550 3084 2163 3084 
Q 1697 3084 1428 2787 
Q 1159 2491 1159 1978 
L 1159 0 
L 581 0 
L 581 3500 
L 1159 3500 
L 1159 2956 
Q 1366 3272 1645 3428 
Q 1925 3584 2291 3584 
Q 2894 3584 3203 3211 
Q 3513 2838 3513 2113 
z
" transform="scale(0.015625)"/>
       <path id="DejaVuSans-63" d="M 3122 3366 
L 3122 2828 
Q 2878 2963 2633 3030 
Q 2388 3097 2138 3097 
Q 1578 3097 1268 2742 
Q 959 2388 959 1747 
Q 959 1106 1268 751 
Q 1578 397 2138 397 
Q 2388 397 2633 464 
Q 2878 531 3122 666 
L 3122 134 
Q 2881 22 2623 -34 
Q 2366 -91 2075 -91 
Q 1284 -91 818 406 
Q 353 903 353 1747 
Q 353 2603 823 3093 
Q 1294 3584 2113 3584 
Q 2378 3584 2631 3529 
Q 2884 3475 3122 3366 
z
" transform="scale(0.015625)"/>
       <path id="DejaVuSans-4d" d="M 628 4666 
L 1569 4666 
L 2759 1491 
L 3956 4666 
L 4897 4666 
L 4897 0 
L 4281 0 
L 4281 4097 
L 3078 897 
L 2444 897 
L 1241 4097 
L 1241 0 
L 628 0 
L 628 4666 
z
" transform="scale(0.015625)"/>
      </defs>
      <use xlink:href="#DejaVuSans-46"/>
      <use xlink:href="#DejaVuSans-72" x="50.269531"/>
      <use xlink:href="#DejaVuSans-65" x="89.132812"/>
      <use xlink:href="#DejaVuSans-71" x="150.65625"/>
      <use xlink:href="#DejaVuSans-75" x="214.132812"/>
      <use xlink:href="#DejaVuSans-65" x="277.511719"/>
      <use xlink:href="#DejaVuSans-6e" x="339.035156"/>
      <use xlink:href="#DejaVuSans-63" x="402.414062"/>
      <use xlink:href="#DejaVuSans-79" x="457.394531"/>
      <use xlink:href="#DejaVuSans-20" x="516.574219"/>
      <use xlink:href="#DejaVuSans-5b" x="548.361328"/>
      <use xlink:href="#DejaVuSans-4d" x="587.375"/>
      <use xlink:href="#DejaVuSans-48" x="673.654297"/>
      <use xlink:href="#DejaVuSans-7a" x="748.849609"/>
      <use xlink:href="#DejaVuSans-5d" x="801.339844"/>
     </g>
    </g>
    <g id="text_13">
     <!-- +6 GHz -->
     <g transform="translate(362.893438 335.148562) scale(0.1 -0.1)">
      <defs>
       <path id="DejaVuSans-2b" d="M 2944 4013 
L 2944 2272 
L 4684 2272 
L 4684 1741 
L 2944 1741 
L 2944 0 
L 2419 0 
L 2419 1741 
L 678 1741 
L 678 2272 
L 2419 2272 
L 2419 4013 
L 2944 4013 
z
" transform="scale(0.015625)"/>
      </defs>
      <use xlink:href="#DejaVuSans-2b"/>
      <use xlink:href="#DejaVuSans-36" x="83.789062"/>
      <use xlink:href="#DejaVuSans-20" x="147.412109"/>
      <use xlink:href="#DejaVuSans-47" x="179.199219"/>
      <use xlink:href="#DejaVuSans-48" x="256.689453"/>
      <use xlink:href="#DejaVuSans-7a" x="331.884766"/>
     </g>
    </g>
   </g>
   <g id="matplotlib.axis_4">
    <g id="ytick_4">
     <g id="line2d_18">
      <g>
       <use xlink:href="#m7b79eaedb6" x="44.210938" y="279.605077" style="stroke: #000000; stroke-width: 0.8"/>
      </g>
     </g>
     <g id="text_14">
      <!-- 0 -->
      <g transform="translate(30.848437 283.404295) scale(0.1 -0.1)">
       <use xlink:href="#DejaVuSans-30"/>
      </g>
     </g>
    </g>
    <g id="ytick_5">
     <g id="line2d_19">
      <g>
       <use xlink:href="#m7b79eaedb6" x="44.210938" y="246.121847" style="stroke: #000000; stroke-width: 0.8"/>
      </g>
     </g>
     <g id="text_15">
      <!-- 20 -->
      <g transform="translate(24.485937 249.921066) scale(0.1 -0.1)">
       <use xlink:href="#DejaVuSans-32"/>
       <use xlink:href="#DejaVuSans-30" x="63.623047"/>
      </g>
     </g>
    </g>
    <g id="ytick_6">
     <g id="line2d_20">
      <g>
       <use xlink:href="#m7b79eaedb6" x="44.210938" y="212.638617" style="stroke: #000000; stroke-width: 0.8"/>
      </g>
     </g>
     <g id="text_16">
      <!-- 40 -->
      <g transform="translate(24.485937 216.437836) scale(0.1 -0.1)">
       <use xlink:href="#DejaVuSans-34"/>
       <use xlink:href="#DejaVuSans-30" x="63.623047"/>
      </g>
     </g>
    </g>
    <g id="text_17">
     <!-- Im$(S_{21})$ [mV] -->
     <g transform="translate(18.40625 279.042) rotate(-90) scale(0.1 -0.1)">
      <defs>
       <path id="DejaVuSans-49" d="M 628 4666 
L 1259 4666 
L 1259 0 
L 628 0 
L 628 4666 
z
" transform="scale(0.015625)"/>
      </defs>
      <use xlink:href="#DejaVuSans-49" transform="translate(0 0.015625)"/>
      <use xlink:href="#DejaVuSans-6d" transform="translate(25.867188 0.015625)"/>
      <use xlink:href="#DejaVuSans-28" transform="translate(123.279297 0.015625)"/>
      <use xlink:href="#DejaVuSans-Oblique-53" transform="translate(162.292969 0.015625)"/>
      <use xlink:href="#DejaVuSans-32" transform="translate(225.769531 -16.390625) scale(0.7)"/>
      <use xlink:href="#DejaVuSans-31" transform="translate(270.305664 -16.390625) scale(0.7)"/>
      <use xlink:href="#DejaVuSans-29" transform="translate(317.576172 0.015625)"/>
      <use xlink:href="#DejaVuSans-20" transform="translate(356.589844 0.015625)"/>
      <use xlink:href="#DejaVuSans-5b" transform="translate(388.376953 0.015625)"/>
      <use xlink:href="#DejaVuSans-6d" transform="translate(427.390625 0.015625)"/>
      <use xlink:href="#DejaVuSans-56" transform="translate(524.802734 0.015625)"/>
      <use xlink:href="#DejaVuSans-5d" transform="translate(593.210938 0.015625)"/>
     </g>
    </g>
   </g>
   <g id="line2d_21">
    <path d="M 60.443665 221.150928 
L 62.075095 220.846174 
L 66.969384 219.393119 
L 68.600814 218.696476 
L 76.757964 214.050827 
L 78.389393 213.567366 
L 81.652253 211.588437 
L 83.283683 210.888309 
L 88.177973 208.342523 
L 89.809403 207.287669 
L 91.440832 206.637501 
L 93.072262 206.119689 
L 94.703692 205.291943 
L 96.335122 204.222853 
L 97.966552 202.895132 
L 99.597982 202.7257 
L 101.229412 201.471062 
L 102.860842 200.880831 
L 104.492271 200.018833 
L 106.123701 199.602811 
L 109.386561 197.697963 
L 111.017991 196.889999 
L 112.649421 196.860499 
L 114.280851 195.914285 
L 115.912281 195.772584 
L 117.54371 194.86612 
L 119.17514 194.256553 
L 120.80657 193.963327 
L 124.06943 193.076613 
L 125.70086 193.048983 
L 127.33229 192.787573 
L 128.96372 192.804663 
L 130.595149 192.624757 
L 133.858009 192.805621 
L 135.489439 193.042839 
L 137.120869 193.398337 
L 138.752299 193.917481 
L 140.383729 194.25021 
L 142.015159 195.221758 
L 143.646588 195.598002 
L 145.278018 196.338484 
L 146.909448 198.020235 
L 148.540878 199.184729 
L 150.172308 200.492253 
L 151.803738 201.620305 
L 153.435168 203.672716 
L 155.066598 205.947349 
L 156.698027 207.579749 
L 158.329457 210.738545 
L 159.960887 213.476912 
L 161.592317 215.626633 
L 163.223747 219.191462 
L 164.855177 223.183096 
L 166.486607 225.562037 
L 169.749467 232.416805 
L 171.380896 235.873503 
L 173.012326 241.352138 
L 174.643756 243.434507 
L 177.906616 253.325409 
L 179.538046 256.645848 
L 182.800906 264.768257 
L 184.432335 269.452794 
L 189.326625 280.026739 
L 190.958055 282.793628 
L 192.589485 286.267919 
L 194.220915 289.269778 
L 195.852345 290.956206 
L 197.483774 294.253049 
L 199.115204 295.457133 
L 200.746634 297.12941 
L 202.378064 298.44796 
L 204.009494 300.181742 
L 205.640924 301.228128 
L 207.272354 301.312691 
L 208.903784 302.07027 
L 210.535213 302.373818 
L 213.798073 302.098657 
L 215.429503 301.494196 
L 217.060933 301.379901 
L 218.692363 300.335645 
L 220.323793 299.887561 
L 226.849512 295.635174 
L 228.480942 294.958016 
L 230.112372 293.324232 
L 233.375232 291.243473 
L 238.269521 286.28657 
L 241.532381 284.546233 
L 244.795241 282.003254 
L 248.058101 279.062682 
L 251.32096 276.524785 
L 252.95239 274.989416 
L 254.58382 273.90558 
L 256.21525 272.163725 
L 257.84668 271.533063 
L 259.47811 269.813334 
L 261.10954 267.463932 
L 264.372399 265.628272 
L 266.003829 264.303361 
L 267.635259 262.496807 
L 270.898119 260.388071 
L 272.529549 258.538802 
L 274.160979 257.695749 
L 275.792408 255.795929 
L 277.423838 254.499964 
L 279.055268 253.82468 
L 280.686698 252.533992 
L 283.949558 250.528931 
L 285.580988 249.892255 
L 287.212418 248.194759 
L 288.843848 247.375183 
L 290.475277 245.657651 
L 292.106707 245.245907 
L 293.738137 243.672019 
L 295.369567 242.803983 
L 297.000997 241.554609 
L 298.632427 240.94591 
L 300.263857 239.380675 
L 301.895287 239.610172 
L 303.526716 238.562739 
L 305.158146 237.023934 
L 306.789576 236.402759 
L 308.421006 235.462757 
L 310.052436 235.137505 
L 311.683866 233.809406 
L 314.946726 231.992955 
L 316.578155 230.779296 
L 321.472445 228.909546 
L 323.103875 227.983807 
L 324.735305 227.407324 
L 327.998165 225.422934 
L 331.261024 223.631355 
L 334.523884 222.272222 
L 336.155314 221.350873 
L 337.786744 220.949492 
L 339.418174 220.147536 
L 342.681033 218.953086 
L 344.312463 218.096809 
L 345.943893 217.450734 
L 347.575323 217.082543 
L 349.206753 216.428713 
L 350.838183 216.022439 
L 355.732472 213.951277 
L 357.363902 213.394061 
L 358.995332 213.145635 
L 360.626762 212.278759 
L 362.258192 211.588389 
L 363.889622 211.158345 
L 368.783911 209.202287 
L 370.415341 208.247151 
L 372.046771 208.007469 
L 376.941061 206.176227 
L 378.572491 205.419011 
L 381.83535 204.519297 
L 383.46678 204.200273 
L 385.09821 203.500026 
L 385.09821 203.500026 
" clip-path="url(#p940e04546e)" style="fill: none; stroke: #1f77b4; stroke-width: 1.5; stroke-linecap: square"/>
    <g clip-path="url(#p940e04546e)">
     <use xlink:href="#m229966e28b" x="60.443665" y="221.150928" style="fill: #1f77b4; stroke: #1f77b4"/>
     <use xlink:href="#m229966e28b" x="62.075095" y="220.846174" style="fill: #1f77b4; stroke: #1f77b4"/>
     <use xlink:href="#m229966e28b" x="63.706525" y="220.387934" style="fill: #1f77b4; stroke: #1f77b4"/>
     <use xlink:href="#m229966e28b" x="65.337954" y="220.035703" style="fill: #1f77b4; stroke: #1f77b4"/>
     <use xlink:href="#m229966e28b" x="66.969384" y="219.393119" style="fill: #1f77b4; stroke: #1f77b4"/>
     <use xlink:href="#m229966e28b" x="68.600814" y="218.696476" style="fill: #1f77b4; stroke: #1f77b4"/>
     <use xlink:href="#m229966e28b" x="70.232244" y="217.757728" style="fill: #1f77b4; stroke: #1f77b4"/>
     <use xlink:href="#m229966e28b" x="71.863674" y="216.859131" style="fill: #1f77b4; stroke: #1f77b4"/>
     <use xlink:href="#m229966e28b" x="73.495104" y="215.87033" style="fill: #1f77b4; stroke: #1f77b4"/>
     <use xlink:href="#m229966e28b" x="75.126534" y="215.057218" style="fill: #1f77b4; stroke: #1f77b4"/>
     <use xlink:href="#m229966e28b" x="76.757964" y="214.050827" style="fill: #1f77b4; stroke: #1f77b4"/>
     <use xlink:href="#m229966e28b" x="78.389393" y="213.567366" style="fill: #1f77b4; stroke: #1f77b4"/>
     <use xlink:href="#m229966e28b" x="80.020823" y="212.626689" style="fill: #1f77b4; stroke: #1f77b4"/>
     <use xlink:href="#m229966e28b" x="81.652253" y="211.588437" style="fill: #1f77b4; stroke: #1f77b4"/>
     <use xlink:href="#m229966e28b" x="83.283683" y="210.888309" style="fill: #1f77b4; stroke: #1f77b4"/>
     <use xlink:href="#m229966e28b" x="84.915113" y="210.031511" style="fill: #1f77b4; stroke: #1f77b4"/>
     <use xlink:href="#m229966e28b" x="86.546543" y="209.088835" style="fill: #1f77b4; stroke: #1f77b4"/>
     <use xlink:href="#m229966e28b" x="88.177973" y="208.342523" style="fill: #1f77b4; stroke: #1f77b4"/>
     <use xlink:href="#m229966e28b" x="89.809403" y="207.287669" style="fill: #1f77b4; stroke: #1f77b4"/>
     <use xlink:href="#m229966e28b" x="91.440832" y="206.637501" style="fill: #1f77b4; stroke: #1f77b4"/>
     <use xlink:href="#m229966e28b" x="93.072262" y="206.119689" style="fill: #1f77b4; stroke: #1f77b4"/>
     <use xlink:href="#m229966e28b" x="94.703692" y="205.291943" style="fill: #1f77b4; stroke: #1f77b4"/>
     <use xlink:href="#m229966e28b" x="96.335122" y="204.222853" style="fill: #1f77b4; stroke: #1f77b4"/>
     <use xlink:href="#m229966e28b" x="97.966552" y="202.895132" style="fill: #1f77b4; stroke: #1f77b4"/>
     <use xlink:href="#m229966e28b" x="99.597982" y="202.7257" style="fill: #1f77b4; stroke: #1f77b4"/>
     <use xlink:href="#m229966e28b" x="101.229412" y="201.471062" style="fill: #1f77b4; stroke: #1f77b4"/>
     <use xlink:href="#m229966e28b" x="102.860842" y="200.880831" style="fill: #1f77b4; stroke: #1f77b4"/>
     <use xlink:href="#m229966e28b" x="104.492271" y="200.018833" style="fill: #1f77b4; stroke: #1f77b4"/>
     <use xlink:href="#m229966e28b" x="106.123701" y="199.602811" style="fill: #1f77b4; stroke: #1f77b4"/>
     <use xlink:href="#m229966e28b" x="107.755131" y="198.589252" style="fill: #1f77b4; stroke: #1f77b4"/>
     <use xlink:href="#m229966e28b" x="109.386561" y="197.697963" style="fill: #1f77b4; stroke: #1f77b4"/>
     <use xlink:href="#m229966e28b" x="111.017991" y="196.889999" style="fill: #1f77b4; stroke: #1f77b4"/>
     <use xlink:href="#m229966e28b" x="112.649421" y="196.860499" style="fill: #1f77b4; stroke: #1f77b4"/>
     <use xlink:href="#m229966e28b" x="114.280851" y="195.914285" style="fill: #1f77b4; stroke: #1f77b4"/>
     <use xlink:href="#m229966e28b" x="115.912281" y="195.772584" style="fill: #1f77b4; stroke: #1f77b4"/>
     <use xlink:href="#m229966e28b" x="117.54371" y="194.86612" style="fill: #1f77b4; stroke: #1f77b4"/>
     <use xlink:href="#m229966e28b" x="119.17514" y="194.256553" style="fill: #1f77b4; stroke: #1f77b4"/>
     <use xlink:href="#m229966e28b" x="120.80657" y="193.963327" style="fill: #1f77b4; stroke: #1f77b4"/>
     <use xlink:href="#m229966e28b" x="122.438" y="193.476883" style="fill: #1f77b4; stroke: #1f77b4"/>
     <use xlink:href="#m229966e28b" x="124.06943" y="193.076613" style="fill: #1f77b4; stroke: #1f77b4"/>
     <use xlink:href="#m229966e28b" x="125.70086" y="193.048983" style="fill: #1f77b4; stroke: #1f77b4"/>
     <use xlink:href="#m229966e28b" x="127.33229" y="192.787573" style="fill: #1f77b4; stroke: #1f77b4"/>
     <use xlink:href="#m229966e28b" x="128.96372" y="192.804663" style="fill: #1f77b4; stroke: #1f77b4"/>
     <use xlink:href="#m229966e28b" x="130.595149" y="192.624757" style="fill: #1f77b4; stroke: #1f77b4"/>
     <use xlink:href="#m229966e28b" x="132.226579" y="192.699849" style="fill: #1f77b4; stroke: #1f77b4"/>
     <use xlink:href="#m229966e28b" x="133.858009" y="192.805621" style="fill: #1f77b4; stroke: #1f77b4"/>
     <use xlink:href="#m229966e28b" x="135.489439" y="193.042839" style="fill: #1f77b4; stroke: #1f77b4"/>
     <use xlink:href="#m229966e28b" x="137.120869" y="193.398337" style="fill: #1f77b4; stroke: #1f77b4"/>
     <use xlink:href="#m229966e28b" x="138.752299" y="193.917481" style="fill: #1f77b4; stroke: #1f77b4"/>
     <use xlink:href="#m229966e28b" x="140.383729" y="194.25021" style="fill: #1f77b4; stroke: #1f77b4"/>
     <use xlink:href="#m229966e28b" x="142.015159" y="195.221758" style="fill: #1f77b4; stroke: #1f77b4"/>
     <use xlink:href="#m229966e28b" x="143.646588" y="195.598002" style="fill: #1f77b4; stroke: #1f77b4"/>
     <use xlink:href="#m229966e28b" x="145.278018" y="196.338484" style="fill: #1f77b4; stroke: #1f77b4"/>
     <use xlink:href="#m229966e28b" x="146.909448" y="198.020235" style="fill: #1f77b4; stroke: #1f77b4"/>
     <use xlink:href="#m229966e28b" x="148.540878" y="199.184729" style="fill: #1f77b4; stroke: #1f77b4"/>
     <use xlink:href="#m229966e28b" x="150.172308" y="200.492253" style="fill: #1f77b4; stroke: #1f77b4"/>
     <use xlink:href="#m229966e28b" x="151.803738" y="201.620305" style="fill: #1f77b4; stroke: #1f77b4"/>
     <use xlink:href="#m229966e28b" x="153.435168" y="203.672716" style="fill: #1f77b4; stroke: #1f77b4"/>
     <use xlink:href="#m229966e28b" x="155.066598" y="205.947349" style="fill: #1f77b4; stroke: #1f77b4"/>
     <use xlink:href="#m229966e28b" x="156.698027" y="207.579749" style="fill: #1f77b4; stroke: #1f77b4"/>
     <use xlink:href="#m229966e28b" x="158.329457" y="210.738545" style="fill: #1f77b4; stroke: #1f77b4"/>
     <use xlink:href="#m229966e28b" x="159.960887" y="213.476912" style="fill: #1f77b4; stroke: #1f77b4"/>
     <use xlink:href="#m229966e28b" x="161.592317" y="215.626633" style="fill: #1f77b4; stroke: #1f77b4"/>
     <use xlink:href="#m229966e28b" x="163.223747" y="219.191462" style="fill: #1f77b4; stroke: #1f77b4"/>
     <use xlink:href="#m229966e28b" x="164.855177" y="223.183096" style="fill: #1f77b4; stroke: #1f77b4"/>
     <use xlink:href="#m229966e28b" x="166.486607" y="225.562037" style="fill: #1f77b4; stroke: #1f77b4"/>
     <use xlink:href="#m229966e28b" x="168.118037" y="228.864665" style="fill: #1f77b4; stroke: #1f77b4"/>
     <use xlink:href="#m229966e28b" x="169.749467" y="232.416805" style="fill: #1f77b4; stroke: #1f77b4"/>
     <use xlink:href="#m229966e28b" x="171.380896" y="235.873503" style="fill: #1f77b4; stroke: #1f77b4"/>
     <use xlink:href="#m229966e28b" x="173.012326" y="241.352138" style="fill: #1f77b4; stroke: #1f77b4"/>
     <use xlink:href="#m229966e28b" x="174.643756" y="243.434507" style="fill: #1f77b4; stroke: #1f77b4"/>
     <use xlink:href="#m229966e28b" x="176.275186" y="248.429046" style="fill: #1f77b4; stroke: #1f77b4"/>
     <use xlink:href="#m229966e28b" x="177.906616" y="253.325409" style="fill: #1f77b4; stroke: #1f77b4"/>
     <use xlink:href="#m229966e28b" x="179.538046" y="256.645848" style="fill: #1f77b4; stroke: #1f77b4"/>
     <use xlink:href="#m229966e28b" x="181.169476" y="260.571879" style="fill: #1f77b4; stroke: #1f77b4"/>
     <use xlink:href="#m229966e28b" x="182.800906" y="264.768257" style="fill: #1f77b4; stroke: #1f77b4"/>
     <use xlink:href="#m229966e28b" x="184.432335" y="269.452794" style="fill: #1f77b4; stroke: #1f77b4"/>
     <use xlink:href="#m229966e28b" x="186.063765" y="273.014238" style="fill: #1f77b4; stroke: #1f77b4"/>
     <use xlink:href="#m229966e28b" x="187.695195" y="276.40662" style="fill: #1f77b4; stroke: #1f77b4"/>
     <use xlink:href="#m229966e28b" x="189.326625" y="280.026739" style="fill: #1f77b4; stroke: #1f77b4"/>
     <use xlink:href="#m229966e28b" x="190.958055" y="282.793628" style="fill: #1f77b4; stroke: #1f77b4"/>
     <use xlink:href="#m229966e28b" x="192.589485" y="286.267919" style="fill: #1f77b4; stroke: #1f77b4"/>
     <use xlink:href="#m229966e28b" x="194.220915" y="289.269778" style="fill: #1f77b4; stroke: #1f77b4"/>
     <use xlink:href="#m229966e28b" x="195.852345" y="290.956206" style="fill: #1f77b4; stroke: #1f77b4"/>
     <use xlink:href="#m229966e28b" x="197.483774" y="294.253049" style="fill: #1f77b4; stroke: #1f77b4"/>
     <use xlink:href="#m229966e28b" x="199.115204" y="295.457133" style="fill: #1f77b4; stroke: #1f77b4"/>
     <use xlink:href="#m229966e28b" x="200.746634" y="297.12941" style="fill: #1f77b4; stroke: #1f77b4"/>
     <use xlink:href="#m229966e28b" x="202.378064" y="298.44796" style="fill: #1f77b4; stroke: #1f77b4"/>
     <use xlink:href="#m229966e28b" x="204.009494" y="300.181742" style="fill: #1f77b4; stroke: #1f77b4"/>
     <use xlink:href="#m229966e28b" x="205.640924" y="301.228128" style="fill: #1f77b4; stroke: #1f77b4"/>
     <use xlink:href="#m229966e28b" x="207.272354" y="301.312691" style="fill: #1f77b4; stroke: #1f77b4"/>
     <use xlink:href="#m229966e28b" x="208.903784" y="302.07027" style="fill: #1f77b4; stroke: #1f77b4"/>
     <use xlink:href="#m229966e28b" x="210.535213" y="302.373818" style="fill: #1f77b4; stroke: #1f77b4"/>
     <use xlink:href="#m229966e28b" x="212.166643" y="302.231912" style="fill: #1f77b4; stroke: #1f77b4"/>
     <use xlink:href="#m229966e28b" x="213.798073" y="302.098657" style="fill: #1f77b4; stroke: #1f77b4"/>
     <use xlink:href="#m229966e28b" x="215.429503" y="301.494196" style="fill: #1f77b4; stroke: #1f77b4"/>
     <use xlink:href="#m229966e28b" x="217.060933" y="301.379901" style="fill: #1f77b4; stroke: #1f77b4"/>
     <use xlink:href="#m229966e28b" x="218.692363" y="300.335645" style="fill: #1f77b4; stroke: #1f77b4"/>
     <use xlink:href="#m229966e28b" x="220.323793" y="299.887561" style="fill: #1f77b4; stroke: #1f77b4"/>
     <use xlink:href="#m229966e28b" x="221.955223" y="298.81159" style="fill: #1f77b4; stroke: #1f77b4"/>
     <use xlink:href="#m229966e28b" x="223.586652" y="297.649013" style="fill: #1f77b4; stroke: #1f77b4"/>
     <use xlink:href="#m229966e28b" x="225.218082" y="296.610752" style="fill: #1f77b4; stroke: #1f77b4"/>
     <use xlink:href="#m229966e28b" x="226.849512" y="295.635174" style="fill: #1f77b4; stroke: #1f77b4"/>
     <use xlink:href="#m229966e28b" x="228.480942" y="294.958016" style="fill: #1f77b4; stroke: #1f77b4"/>
     <use xlink:href="#m229966e28b" x="230.112372" y="293.324232" style="fill: #1f77b4; stroke: #1f77b4"/>
     <use xlink:href="#m229966e28b" x="231.743802" y="292.256534" style="fill: #1f77b4; stroke: #1f77b4"/>
     <use xlink:href="#m229966e28b" x="233.375232" y="291.243473" style="fill: #1f77b4; stroke: #1f77b4"/>
     <use xlink:href="#m229966e28b" x="235.006662" y="289.602595" style="fill: #1f77b4; stroke: #1f77b4"/>
     <use xlink:href="#m229966e28b" x="236.638091" y="287.896617" style="fill: #1f77b4; stroke: #1f77b4"/>
     <use xlink:href="#m229966e28b" x="238.269521" y="286.28657" style="fill: #1f77b4; stroke: #1f77b4"/>
     <use xlink:href="#m229966e28b" x="239.900951" y="285.46737" style="fill: #1f77b4; stroke: #1f77b4"/>
     <use xlink:href="#m229966e28b" x="241.532381" y="284.546233" style="fill: #1f77b4; stroke: #1f77b4"/>
     <use xlink:href="#m229966e28b" x="243.163811" y="283.25724" style="fill: #1f77b4; stroke: #1f77b4"/>
     <use xlink:href="#m229966e28b" x="244.795241" y="282.003254" style="fill: #1f77b4; stroke: #1f77b4"/>
     <use xlink:href="#m229966e28b" x="246.426671" y="280.48353" style="fill: #1f77b4; stroke: #1f77b4"/>
     <use xlink:href="#m229966e28b" x="248.058101" y="279.062682" style="fill: #1f77b4; stroke: #1f77b4"/>
     <use xlink:href="#m229966e28b" x="249.68953" y="277.825148" style="fill: #1f77b4; stroke: #1f77b4"/>
     <use xlink:href="#m229966e28b" x="251.32096" y="276.524785" style="fill: #1f77b4; stroke: #1f77b4"/>
     <use xlink:href="#m229966e28b" x="252.95239" y="274.989416" style="fill: #1f77b4; stroke: #1f77b4"/>
     <use xlink:href="#m229966e28b" x="254.58382" y="273.90558" style="fill: #1f77b4; stroke: #1f77b4"/>
     <use xlink:href="#m229966e28b" x="256.21525" y="272.163725" style="fill: #1f77b4; stroke: #1f77b4"/>
     <use xlink:href="#m229966e28b" x="257.84668" y="271.533063" style="fill: #1f77b4; stroke: #1f77b4"/>
     <use xlink:href="#m229966e28b" x="259.47811" y="269.813334" style="fill: #1f77b4; stroke: #1f77b4"/>
     <use xlink:href="#m229966e28b" x="261.10954" y="267.463932" style="fill: #1f77b4; stroke: #1f77b4"/>
     <use xlink:href="#m229966e28b" x="262.740969" y="266.607257" style="fill: #1f77b4; stroke: #1f77b4"/>
     <use xlink:href="#m229966e28b" x="264.372399" y="265.628272" style="fill: #1f77b4; stroke: #1f77b4"/>
     <use xlink:href="#m229966e28b" x="266.003829" y="264.303361" style="fill: #1f77b4; stroke: #1f77b4"/>
     <use xlink:href="#m229966e28b" x="267.635259" y="262.496807" style="fill: #1f77b4; stroke: #1f77b4"/>
     <use xlink:href="#m229966e28b" x="269.266689" y="261.477884" style="fill: #1f77b4; stroke: #1f77b4"/>
     <use xlink:href="#m229966e28b" x="270.898119" y="260.388071" style="fill: #1f77b4; stroke: #1f77b4"/>
     <use xlink:href="#m229966e28b" x="272.529549" y="258.538802" style="fill: #1f77b4; stroke: #1f77b4"/>
     <use xlink:href="#m229966e28b" x="274.160979" y="257.695749" style="fill: #1f77b4; stroke: #1f77b4"/>
     <use xlink:href="#m229966e28b" x="275.792408" y="255.795929" style="fill: #1f77b4; stroke: #1f77b4"/>
     <use xlink:href="#m229966e28b" x="277.423838" y="254.499964" style="fill: #1f77b4; stroke: #1f77b4"/>
     <use xlink:href="#m229966e28b" x="279.055268" y="253.82468" style="fill: #1f77b4; stroke: #1f77b4"/>
     <use xlink:href="#m229966e28b" x="280.686698" y="252.533992" style="fill: #1f77b4; stroke: #1f77b4"/>
     <use xlink:href="#m229966e28b" x="282.318128" y="251.564116" style="fill: #1f77b4; stroke: #1f77b4"/>
     <use xlink:href="#m229966e28b" x="283.949558" y="250.528931" style="fill: #1f77b4; stroke: #1f77b4"/>
     <use xlink:href="#m229966e28b" x="285.580988" y="249.892255" style="fill: #1f77b4; stroke: #1f77b4"/>
     <use xlink:href="#m229966e28b" x="287.212418" y="248.194759" style="fill: #1f77b4; stroke: #1f77b4"/>
     <use xlink:href="#m229966e28b" x="288.843848" y="247.375183" style="fill: #1f77b4; stroke: #1f77b4"/>
     <use xlink:href="#m229966e28b" x="290.475277" y="245.657651" style="fill: #1f77b4; stroke: #1f77b4"/>
     <use xlink:href="#m229966e28b" x="292.106707" y="245.245907" style="fill: #1f77b4; stroke: #1f77b4"/>
     <use xlink:href="#m229966e28b" x="293.738137" y="243.672019" style="fill: #1f77b4; stroke: #1f77b4"/>
     <use xlink:href="#m229966e28b" x="295.369567" y="242.803983" style="fill: #1f77b4; stroke: #1f77b4"/>
     <use xlink:href="#m229966e28b" x="297.000997" y="241.554609" style="fill: #1f77b4; stroke: #1f77b4"/>
     <use xlink:href="#m229966e28b" x="298.632427" y="240.94591" style="fill: #1f77b4; stroke: #1f77b4"/>
     <use xlink:href="#m229966e28b" x="300.263857" y="239.380675" style="fill: #1f77b4; stroke: #1f77b4"/>
     <use xlink:href="#m229966e28b" x="301.895287" y="239.610172" style="fill: #1f77b4; stroke: #1f77b4"/>
     <use xlink:href="#m229966e28b" x="303.526716" y="238.562739" style="fill: #1f77b4; stroke: #1f77b4"/>
     <use xlink:href="#m229966e28b" x="305.158146" y="237.023934" style="fill: #1f77b4; stroke: #1f77b4"/>
     <use xlink:href="#m229966e28b" x="306.789576" y="236.402759" style="fill: #1f77b4; stroke: #1f77b4"/>
     <use xlink:href="#m229966e28b" x="308.421006" y="235.462757" style="fill: #1f77b4; stroke: #1f77b4"/>
     <use xlink:href="#m229966e28b" x="310.052436" y="235.137505" style="fill: #1f77b4; stroke: #1f77b4"/>
     <use xlink:href="#m229966e28b" x="311.683866" y="233.809406" style="fill: #1f77b4; stroke: #1f77b4"/>
     <use xlink:href="#m229966e28b" x="313.315296" y="232.884787" style="fill: #1f77b4; stroke: #1f77b4"/>
     <use xlink:href="#m229966e28b" x="314.946726" y="231.992955" style="fill: #1f77b4; stroke: #1f77b4"/>
     <use xlink:href="#m229966e28b" x="316.578155" y="230.779296" style="fill: #1f77b4; stroke: #1f77b4"/>
     <use xlink:href="#m229966e28b" x="318.209585" y="230.156099" style="fill: #1f77b4; stroke: #1f77b4"/>
     <use xlink:href="#m229966e28b" x="319.841015" y="229.572231" style="fill: #1f77b4; stroke: #1f77b4"/>
     <use xlink:href="#m229966e28b" x="321.472445" y="228.909546" style="fill: #1f77b4; stroke: #1f77b4"/>
     <use xlink:href="#m229966e28b" x="323.103875" y="227.983807" style="fill: #1f77b4; stroke: #1f77b4"/>
     <use xlink:href="#m229966e28b" x="324.735305" y="227.407324" style="fill: #1f77b4; stroke: #1f77b4"/>
     <use xlink:href="#m229966e28b" x="326.366735" y="226.361007" style="fill: #1f77b4; stroke: #1f77b4"/>
     <use xlink:href="#m229966e28b" x="327.998165" y="225.422934" style="fill: #1f77b4; stroke: #1f77b4"/>
     <use xlink:href="#m229966e28b" x="329.629594" y="224.503167" style="fill: #1f77b4; stroke: #1f77b4"/>
     <use xlink:href="#m229966e28b" x="331.261024" y="223.631355" style="fill: #1f77b4; stroke: #1f77b4"/>
     <use xlink:href="#m229966e28b" x="332.892454" y="222.935235" style="fill: #1f77b4; stroke: #1f77b4"/>
     <use xlink:href="#m229966e28b" x="334.523884" y="222.272222" style="fill: #1f77b4; stroke: #1f77b4"/>
     <use xlink:href="#m229966e28b" x="336.155314" y="221.350873" style="fill: #1f77b4; stroke: #1f77b4"/>
     <use xlink:href="#m229966e28b" x="337.786744" y="220.949492" style="fill: #1f77b4; stroke: #1f77b4"/>
     <use xlink:href="#m229966e28b" x="339.418174" y="220.147536" style="fill: #1f77b4; stroke: #1f77b4"/>
     <use xlink:href="#m229966e28b" x="341.049604" y="219.587174" style="fill: #1f77b4; stroke: #1f77b4"/>
     <use xlink:href="#m229966e28b" x="342.681033" y="218.953086" style="fill: #1f77b4; stroke: #1f77b4"/>
     <use xlink:href="#m229966e28b" x="344.312463" y="218.096809" style="fill: #1f77b4; stroke: #1f77b4"/>
     <use xlink:href="#m229966e28b" x="345.943893" y="217.450734" style="fill: #1f77b4; stroke: #1f77b4"/>
     <use xlink:href="#m229966e28b" x="347.575323" y="217.082543" style="fill: #1f77b4; stroke: #1f77b4"/>
     <use xlink:href="#m229966e28b" x="349.206753" y="216.428713" style="fill: #1f77b4; stroke: #1f77b4"/>
     <use xlink:href="#m229966e28b" x="350.838183" y="216.022439" style="fill: #1f77b4; stroke: #1f77b4"/>
     <use xlink:href="#m229966e28b" x="352.469613" y="215.294259" style="fill: #1f77b4; stroke: #1f77b4"/>
     <use xlink:href="#m229966e28b" x="354.101043" y="214.480281" style="fill: #1f77b4; stroke: #1f77b4"/>
     <use xlink:href="#m229966e28b" x="355.732472" y="213.951277" style="fill: #1f77b4; stroke: #1f77b4"/>
     <use xlink:href="#m229966e28b" x="357.363902" y="213.394061" style="fill: #1f77b4; stroke: #1f77b4"/>
     <use xlink:href="#m229966e28b" x="358.995332" y="213.145635" style="fill: #1f77b4; stroke: #1f77b4"/>
     <use xlink:href="#m229966e28b" x="360.626762" y="212.278759" style="fill: #1f77b4; stroke: #1f77b4"/>
     <use xlink:href="#m229966e28b" x="362.258192" y="211.588389" style="fill: #1f77b4; stroke: #1f77b4"/>
     <use xlink:href="#m229966e28b" x="363.889622" y="211.158345" style="fill: #1f77b4; stroke: #1f77b4"/>
     <use xlink:href="#m229966e28b" x="365.521052" y="210.50117" style="fill: #1f77b4; stroke: #1f77b4"/>
     <use xlink:href="#m229966e28b" x="367.152482" y="209.954727" style="fill: #1f77b4; stroke: #1f77b4"/>
     <use xlink:href="#m229966e28b" x="368.783911" y="209.202287" style="fill: #1f77b4; stroke: #1f77b4"/>
     <use xlink:href="#m229966e28b" x="370.415341" y="208.247151" style="fill: #1f77b4; stroke: #1f77b4"/>
     <use xlink:href="#m229966e28b" x="372.046771" y="208.007469" style="fill: #1f77b4; stroke: #1f77b4"/>
     <use xlink:href="#m229966e28b" x="373.678201" y="207.410154" style="fill: #1f77b4; stroke: #1f77b4"/>
     <use xlink:href="#m229966e28b" x="375.309631" y="206.87367" style="fill: #1f77b4; stroke: #1f77b4"/>
     <use xlink:href="#m229966e28b" x="376.941061" y="206.176227" style="fill: #1f77b4; stroke: #1f77b4"/>
     <use xlink:href="#m229966e28b" x="378.572491" y="205.419011" style="fill: #1f77b4; stroke: #1f77b4"/>
     <use xlink:href="#m229966e28b" x="380.203921" y="204.935921" style="fill: #1f77b4; stroke: #1f77b4"/>
     <use xlink:href="#m229966e28b" x="381.83535" y="204.519297" style="fill: #1f77b4; stroke: #1f77b4"/>
     <use xlink:href="#m229966e28b" x="383.46678" y="204.200273" style="fill: #1f77b4; stroke: #1f77b4"/>
     <use xlink:href="#m229966e28b" x="385.09821" y="203.500026" style="fill: #1f77b4; stroke: #1f77b4"/>
    </g>
   </g>
   <g id="line2d_22">
    <path d="M 60.443665 222.950734 
L 78.317539 213.75511 
L 96.841372 204.262956 
L 104.64088 200.510481 
L 110.490512 197.924417 
L 115.365204 196.002034 
L 119.589938 194.574392 
L 123.164713 193.592178 
L 126.414508 192.9237 
L 129.339324 192.54292 
L 131.93916 192.411407 
L 134.538996 192.505361 
L 136.813853 192.798027 
L 139.08871 193.311744 
L 141.363566 194.071531 
L 143.313444 194.938427 
L 145.263321 196.022175 
L 147.213198 197.33968 
L 149.163075 198.907493 
L 151.112952 200.741312 
L 153.062829 202.855387 
L 155.012707 205.261827 
L 157.287563 208.450892 
L 159.56242 212.058145 
L 161.837277 216.082543 
L 164.437113 221.176832 
L 167.036949 226.762159 
L 169.961765 233.555336 
L 173.861519 243.239381 
L 184.585843 270.316799 
L 187.510659 276.90783 
L 190.110495 282.214362 
L 192.385352 286.362931 
L 194.335229 289.520738 
L 196.285106 292.295981 
L 198.234983 294.683176 
L 200.184861 296.684513 
L 201.809758 298.063761 
L 203.434656 299.189233 
L 205.059553 300.071245 
L 206.684451 300.721839 
L 208.309349 301.154333 
L 209.934246 301.382908 
L 211.884123 301.408711 
L 213.834001 301.187673 
L 215.783878 300.745172 
L 218.058734 299.981765 
L 220.333591 298.987362 
L 222.933427 297.611945 
L 225.858243 295.815041 
L 229.433018 293.340791 
L 233.657752 290.135405 
L 239.507383 285.395285 
L 262.905909 266.123251 
L 270.380438 260.406294 
L 277.529987 255.220253 
L 284.679537 250.310914 
L 291.829087 245.667722 
L 299.303616 241.080733 
L 307.103124 236.56359 
L 315.227612 232.125511 
L 323.67708 227.772304 
L 332.451527 223.507261 
L 341.550954 219.331913 
L 351.30034 215.109827 
L 361.374705 210.992647 
L 372.099029 206.856489 
L 383.148333 202.834869 
L 385.09821 202.148666 
L 385.09821 202.148666 
" clip-path="url(#p940e04546e)" style="fill: none; stroke: #d62728; stroke-width: 1.5; stroke-linecap: square"/>
   </g>
   <g id="patch_9">
    <path d="M 44.210938 307.872 
L 44.210938 186.912 
" style="fill: none; stroke: #000000; stroke-width: 0.8; stroke-linejoin: miter; stroke-linecap: square"/>
   </g>
   <g id="patch_10">
    <path d="M 401.330938 307.872 
L 401.330938 186.912 
" style="fill: none; stroke: #000000; stroke-width: 0.8; stroke-linejoin: miter; stroke-linecap: square"/>
   </g>
   <g id="patch_11">
    <path d="M 44.210938 307.872 
L 401.330937 307.872 
" style="fill: none; stroke: #000000; stroke-width: 0.8; stroke-linejoin: miter; stroke-linecap: square"/>
   </g>
   <g id="patch_12">
    <path d="M 44.210938 186.912 
L 401.330937 186.912 
" style="fill: none; stroke: #000000; stroke-width: 0.8; stroke-linejoin: miter; stroke-linecap: square"/>
   </g>
  </g>
  <g id="text_18">
   <!-- S21 resonator spectroscopy -->
   <g transform="translate(133.226562 16.318125) scale(0.12 -0.12)">
    <defs>
     <path id="DejaVuSans-73" d="M 2834 3397 
L 2834 2853 
Q 2591 2978 2328 3040 
Q 2066 3103 1784 3103 
Q 1356 3103 1142 2972 
Q 928 2841 928 2578 
Q 928 2378 1081 2264 
Q 1234 2150 1697 2047 
L 1894 2003 
Q 2506 1872 2764 1633 
Q 3022 1394 3022 966 
Q 3022 478 2636 193 
Q 2250 -91 1575 -91 
Q 1294 -91 989 -36 
Q 684 19 347 128 
L 347 722 
Q 666 556 975 473 
Q 1284 391 1588 391 
Q 1994 391 2212 530 
Q 2431 669 2431 922 
Q 2431 1156 2273 1281 
Q 2116 1406 1581 1522 
L 1381 1569 
Q 847 1681 609 1914 
Q 372 2147 372 2553 
Q 372 3047 722 3315 
Q 1072 3584 1716 3584 
Q 2034 3584 2315 3537 
Q 2597 3491 2834 3397 
z
" transform="scale(0.015625)"/>
     <path id="DejaVuSans-6f" d="M 1959 3097 
Q 1497 3097 1228 2736 
Q 959 2375 959 1747 
Q 959 1119 1226 758 
Q 1494 397 1959 397 
Q 2419 397 2687 759 
Q 2956 1122 2956 1747 
Q 2956 2369 2687 2733 
Q 2419 3097 1959 3097 
z
M 1959 3584 
Q 2709 3584 3137 3096 
Q 3566 2609 3566 1747 
Q 3566 888 3137 398 
Q 2709 -91 1959 -91 
Q 1206 -91 779 398 
Q 353 888 353 1747 
Q 353 2609 779 3096 
Q 1206 3584 1959 3584 
z
" transform="scale(0.015625)"/>
     <path id="DejaVuSans-74" d="M 1172 4494 
L 1172 3500 
L 2356 3500 
L 2356 3053 
L 1172 3053 
L 1172 1153 
Q 1172 725 1289 603 
Q 1406 481 1766 481 
L 2356 481 
L 2356 0 
L 1766 0 
Q 1100 0 847 248 
Q 594 497 594 1153 
L 594 3053 
L 172 3053 
L 172 3500 
L 594 3500 
L 594 4494 
L 1172 4494 
z
" transform="scale(0.015625)"/>
     <path id="DejaVuSans-70" d="M 1159 525 
L 1159 -1331 
L 581 -1331 
L 581 3500 
L 1159 3500 
L 1159 2969 
Q 1341 3281 1617 3432 
Q 1894 3584 2278 3584 
Q 2916 3584 3314 3078 
Q 3713 2572 3713 1747 
Q 3713 922 3314 415 
Q 2916 -91 2278 -91 
Q 1894 -91 1617 61 
Q 1341 213 1159 525 
z
M 3116 1747 
Q 3116 2381 2855 2742 
Q 2594 3103 2138 3103 
Q 1681 3103 1420 2742 
Q 1159 2381 1159 1747 
Q 1159 1113 1420 752 
Q 1681 391 2138 391 
Q 2594 391 2855 752 
Q 3116 1113 3116 1747 
z
" transform="scale(0.015625)"/>
    </defs>
    <use xlink:href="#DejaVuSans-53"/>
    <use xlink:href="#DejaVuSans-32" x="63.476562"/>
    <use xlink:href="#DejaVuSans-31" x="127.099609"/>
    <use xlink:href="#DejaVuSans-20" x="190.722656"/>
    <use xlink:href="#DejaVuSans-72" x="222.509766"/>
    <use xlink:href="#DejaVuSans-65" x="261.373047"/>
    <use xlink:href="#DejaVuSans-73" x="322.896484"/>
    <use xlink:href="#DejaVuSans-6f" x="374.996094"/>
    <use xlink:href="#DejaVuSans-6e" x="436.177734"/>
    <use xlink:href="#DejaVuSans-61" x="499.556641"/>
    <use xlink:href="#DejaVuSans-74" x="560.835938"/>
    <use xlink:href="#DejaVuSans-6f" x="600.044922"/>
    <use xlink:href="#DejaVuSans-72" x="661.226562"/>
    <use xlink:href="#DejaVuSans-20" x="702.339844"/>
    <use xlink:href="#DejaVuSans-73" x="734.126953"/>
    <use xlink:href="#DejaVuSans-70" x="786.226562"/>
    <use xlink:href="#DejaVuSans-65" x="849.703125"/>
    <use xlink:href="#DejaVuSans-63" x="911.226562"/>
    <use xlink:href="#DejaVuSans-74" x="966.207031"/>
    <use xlink:href="#DejaVuSans-72" x="1005.416016"/>
    <use xlink:href="#DejaVuSans-6f" x="1044.279297"/>
    <use xlink:href="#DejaVuSans-73" x="1105.460938"/>
    <use xlink:href="#DejaVuSans-63" x="1157.560547"/>
    <use xlink:href="#DejaVuSans-6f" x="1212.541016"/>
    <use xlink:href="#DejaVuSans-70" x="1273.722656"/>
    <use xlink:href="#DejaVuSans-79" x="1337.199219"/>
   </g>
   <!-- tuid: 20240103-155618-385-648806 -->
   <g transform="translate(107.155625 29.7555) scale(0.12 -0.12)">
    <defs>
     <path id="DejaVuSans-69" d="M 603 3500 
L 1178 3500 
L 1178 0 
L 603 0 
L 603 3500 
z
M 603 4863 
L 1178 4863 
L 1178 4134 
L 603 4134 
L 603 4863 
z
" transform="scale(0.015625)"/>
     <path id="DejaVuSans-64" d="M 2906 2969 
L 2906 4863 
L 3481 4863 
L 3481 0 
L 2906 0 
L 2906 525 
Q 2725 213 2448 61 
Q 2172 -91 1784 -91 
Q 1150 -91 751 415 
Q 353 922 353 1747 
Q 353 2572 751 3078 
Q 1150 3584 1784 3584 
Q 2172 3584 2448 3432 
Q 2725 3281 2906 2969 
z
M 947 1747 
Q 947 1113 1208 752 
Q 1469 391 1925 391 
Q 2381 391 2643 752 
Q 2906 1113 2906 1747 
Q 2906 2381 2643 2742 
Q 2381 3103 1925 3103 
Q 1469 3103 1208 2742 
Q 947 2381 947 1747 
z
" transform="scale(0.015625)"/>
    </defs>
    <use xlink:href="#DejaVuSans-74"/>
    <use xlink:href="#DejaVuSans-75" x="39.208984"/>
    <use xlink:href="#DejaVuSans-69" x="102.587891"/>
    <use xlink:href="#DejaVuSans-64" x="130.371094"/>
    <use xlink:href="#DejaVuSans-3a" x="193.847656"/>
    <use xlink:href="#DejaVuSans-20" x="227.539062"/>
    <use xlink:href="#DejaVuSans-32" x="259.326172"/>
    <use xlink:href="#DejaVuSans-30" x="322.949219"/>
    <use xlink:href="#DejaVuSans-32" x="386.572266"/>
    <use xlink:href="#DejaVuSans-34" x="450.195312"/>
    <use xlink:href="#DejaVuSans-30" x="513.818359"/>
    <use xlink:href="#DejaVuSans-31" x="577.441406"/>
    <use xlink:href="#DejaVuSans-30" x="641.064453"/>
    <use xlink:href="#DejaVuSans-33" x="704.6875"/>
    <use xlink:href="#DejaVuSans-2d" x="768.310547"/>
    <use xlink:href="#DejaVuSans-31" x="804.394531"/>
    <use xlink:href="#DejaVuSans-35" x="868.017578"/>
    <use xlink:href="#DejaVuSans-35" x="931.640625"/>
    <use xlink:href="#DejaVuSans-36" x="995.263672"/>
    <use xlink:href="#DejaVuSans-31" x="1058.886719"/>
    <use xlink:href="#DejaVuSans-38" x="1122.509766"/>
    <use xlink:href="#DejaVuSans-2d" x="1186.132812"/>
    <use xlink:href="#DejaVuSans-33" x="1222.216797"/>
    <use xlink:href="#DejaVuSans-38" x="1285.839844"/>
    <use xlink:href="#DejaVuSans-35" x="1349.462891"/>
    <use xlink:href="#DejaVuSans-2d" x="1413.085938"/>
    <use xlink:href="#DejaVuSans-36" x="1449.169922"/>
    <use xlink:href="#DejaVuSans-34" x="1512.792969"/>
    <use xlink:href="#DejaVuSans-38" x="1576.416016"/>
    <use xlink:href="#DejaVuSans-38" x="1640.039062"/>
    <use xlink:href="#DejaVuSans-30" x="1703.662109"/>
    <use xlink:href="#DejaVuSans-36" x="1767.285156"/>
   </g>
  </g>
 </g>
 <defs>
  <clipPath id="pe4b6ebd875">
   <rect x="44.210938" y="41.76" width="357.12" height="120.96"/>
  </clipPath>
  <clipPath id="p940e04546e">
   <rect x="44.210938" y="186.912" width="357.12" height="120.96"/>
  </clipPath>
 </defs>
</svg>
