<?xml version="1.0" encoding="utf-8" standalone="no"?>
<!DOCTYPE svg PUBLIC "-//W3C//DTD SVG 1.1//EN"
  "http://www.w3.org/Graphics/SVG/1.1/DTD/svg11.dtd">
<svg xmlns:xlink="http://www.w3.org/1999/xlink" width="540.486937pt" height="345.42825pt" viewBox="0 0 540.486937 345.42825" xmlns="http://www.w3.org/2000/svg" version="1.1">
 <metadata>
  <rdf:RDF xmlns:dc="http://purl.org/dc/elements/1.1/" xmlns:cc="http://creativecommons.org/ns#" xmlns:rdf="http://www.w3.org/1999/02/22-rdf-syntax-ns#">
   <cc:Work>
    <dc:type rdf:resource="http://purl.org/dc/dcmitype/StillImage"/>
    <dc:date>2024-02-20T14:59:12.819055</dc:date>
    <dc:format>image/svg+xml</dc:format>
    <dc:creator>
     <cc:Agent>
      <dc:title>Matplotlib v3.8.2, https://matplotlib.org/</dc:title>
     </cc:Agent>
    </dc:creator>
   </cc:Work>
  </rdf:RDF>
 </metadata>
 <defs>
  <style type="text/css">*{stroke-linejoin: round; stroke-linecap: butt}</style>
 </defs>
 <g id="figure_1">
  <g id="patch_1">
   <path d="M 0 345.42825 
L 540.486937 345.42825 
L 540.486937 -0 
L 0 -0 
L 0 345.42825 
z
" style="fill: none; opacity: 0"/>
  </g>
  <g id="axes_1">
   <g id="patch_2">
    <path d="M 44.210938 307.872 
L 401.330938 307.872 
L 401.330938 41.76 
L 44.210938 41.76 
z
" style="fill: #ffffff"/>
   </g>
   <g id="matplotlib.axis_1">
    <g id="xtick_1">
     <g id="line2d_1">
      <defs>
       <path id="ma8145731e3" d="M 0 0 
L 0 3.5 
" style="stroke: #000000; stroke-width: 0.8"/>
      </defs>
      <g>
       <use xlink:href="#ma8145731e3" x="63.887415" y="307.872" style="stroke: #000000; stroke-width: 0.8"/>
      </g>
     </g>
     <g id="text_1">
      <!-- -10 -->
      <g transform="translate(55.721008 322.470438) scale(0.1 -0.1)">
       <defs>
        <path id="DejaVuSans-2d" d="M 313 2009 
L 1997 2009 
L 1997 1497 
L 313 1497 
L 313 2009 
z
" transform="scale(0.015625)"/>
        <path id="DejaVuSans-31" d="M 794 531 
L 1825 531 
L 1825 4091 
L 703 3866 
L 703 4441 
L 1819 4666 
L 2450 4666 
L 2450 531 
L 3481 531 
L 3481 0 
L 794 0 
L 794 531 
z
" transform="scale(0.015625)"/>
        <path id="DejaVuSans-30" d="M 2034 4250 
Q 1547 4250 1301 3770 
Q 1056 3291 1056 2328 
Q 1056 1369 1301 889 
Q 1547 409 2034 409 
Q 2525 409 2770 889 
Q 3016 1369 3016 2328 
Q 3016 3291 2770 3770 
Q 2525 4250 2034 4250 
z
M 2034 4750 
Q 2819 4750 3233 4129 
Q 3647 3509 3647 2328 
Q 3647 1150 3233 529 
Q 2819 -91 2034 -91 
Q 1250 -91 836 529 
Q 422 1150 422 2328 
Q 422 3509 836 4129 
Q 1250 4750 2034 4750 
z
" transform="scale(0.015625)"/>
       </defs>
       <use xlink:href="#DejaVuSans-2d"/>
       <use xlink:href="#DejaVuSans-31" x="36.083984"/>
       <use xlink:href="#DejaVuSans-30" x="99.707031"/>
      </g>
     </g>
    </g>
    <g id="xtick_2">
     <g id="line2d_2">
      <g>
       <use xlink:href="#ma8145731e3" x="143.220683" y="307.872" style="stroke: #000000; stroke-width: 0.8"/>
      </g>
     </g>
     <g id="text_2">
      <!-- -5 -->
      <g transform="translate(138.235527 322.470438) scale(0.1 -0.1)">
       <defs>
        <path id="DejaVuSans-35" d="M 691 4666 
L 3169 4666 
L 3169 4134 
L 1269 4134 
L 1269 2991 
Q 1406 3038 1543 3061 
Q 1681 3084 1819 3084 
Q 2600 3084 3056 2656 
Q 3513 2228 3513 1497 
Q 3513 744 3044 326 
Q 2575 -91 1722 -91 
Q 1428 -91 1123 -41 
Q 819 9 494 109 
L 494 744 
Q 775 591 1075 516 
Q 1375 441 1709 441 
Q 2250 441 2565 725 
Q 2881 1009 2881 1497 
Q 2881 1984 2565 2268 
Q 2250 2553 1709 2553 
Q 1456 2553 1204 2497 
Q 953 2441 691 2322 
L 691 4666 
z
" transform="scale(0.015625)"/>
       </defs>
       <use xlink:href="#DejaVuSans-2d"/>
       <use xlink:href="#DejaVuSans-35" x="36.083984"/>
      </g>
     </g>
    </g>
    <g id="xtick_3">
     <g id="line2d_3">
      <g>
       <use xlink:href="#ma8145731e3" x="222.553951" y="307.872" style="stroke: #000000; stroke-width: 0.8"/>
      </g>
     </g>
     <g id="text_3">
      <!-- 0 -->
      <g transform="translate(219.372701 322.470438) scale(0.1 -0.1)">
       <use xlink:href="#DejaVuSans-30"/>
      </g>
     </g>
    </g>
    <g id="xtick_4">
     <g id="line2d_4">
      <g>
       <use xlink:href="#ma8145731e3" x="301.887219" y="307.872" style="stroke: #000000; stroke-width: 0.8"/>
      </g>
     </g>
     <g id="text_4">
      <!-- 5 -->
      <g transform="translate(298.705969 322.470438) scale(0.1 -0.1)">
       <use xlink:href="#DejaVuSans-35"/>
      </g>
     </g>
    </g>
    <g id="xtick_5">
     <g id="line2d_5">
      <g>
       <use xlink:href="#ma8145731e3" x="381.220488" y="307.872" style="stroke: #000000; stroke-width: 0.8"/>
      </g>
     </g>
     <g id="text_5">
      <!-- 10 -->
      <g transform="translate(374.857988 322.470438) scale(0.1 -0.1)">
       <use xlink:href="#DejaVuSans-31"/>
       <use xlink:href="#DejaVuSans-30" x="63.623047"/>
      </g>
     </g>
    </g>
    <g id="text_6">
     <!-- Re$(S_{21})$ [mV] -->
     <g transform="translate(190.770938 336.148562) scale(0.1 -0.1)">
      <defs>
       <path id="DejaVuSans-52" d="M 2841 2188 
Q 3044 2119 3236 1894 
Q 3428 1669 3622 1275 
L 4263 0 
L 3584 0 
L 2988 1197 
Q 2756 1666 2539 1819 
Q 2322 1972 1947 1972 
L 1259 1972 
L 1259 0 
L 628 0 
L 628 4666 
L 2053 4666 
Q 2853 4666 3247 4331 
Q 3641 3997 3641 3322 
Q 3641 2881 3436 2590 
Q 3231 2300 2841 2188 
z
M 1259 4147 
L 1259 2491 
L 2053 2491 
Q 2509 2491 2742 2702 
Q 2975 2913 2975 3322 
Q 2975 3731 2742 3939 
Q 2509 4147 2053 4147 
L 1259 4147 
z
" transform="scale(0.015625)"/>
       <path id="DejaVuSans-65" d="M 3597 1894 
L 3597 1613 
L 953 1613 
Q 991 1019 1311 708 
Q 1631 397 2203 397 
Q 2534 397 2845 478 
Q 3156 559 3463 722 
L 3463 178 
Q 3153 47 2828 -22 
Q 2503 -91 2169 -91 
Q 1331 -91 842 396 
Q 353 884 353 1716 
Q 353 2575 817 3079 
Q 1281 3584 2069 3584 
Q 2775 3584 3186 3129 
Q 3597 2675 3597 1894 
z
M 3022 2063 
Q 3016 2534 2758 2815 
Q 2500 3097 2075 3097 
Q 1594 3097 1305 2825 
Q 1016 2553 972 2059 
L 3022 2063 
z
" transform="scale(0.015625)"/>
       <path id="DejaVuSans-28" d="M 1984 4856 
Q 1566 4138 1362 3434 
Q 1159 2731 1159 2009 
Q 1159 1288 1364 580 
Q 1569 -128 1984 -844 
L 1484 -844 
Q 1016 -109 783 600 
Q 550 1309 550 2009 
Q 550 2706 781 3412 
Q 1013 4119 1484 4856 
L 1984 4856 
z
" transform="scale(0.015625)"/>
       <path id="DejaVuSans-Oblique-53" d="M 3859 4513 
L 3738 3897 
Q 3422 4066 3111 4152 
Q 2800 4238 2509 4238 
Q 1944 4238 1609 3991 
Q 1275 3744 1275 3334 
Q 1275 3109 1398 2989 
Q 1522 2869 2034 2731 
L 2413 2638 
Q 3053 2472 3303 2217 
Q 3553 1963 3553 1503 
Q 3553 797 2998 353 
Q 2444 -91 1538 -91 
Q 1166 -91 791 -17 
Q 416 56 38 206 
L 166 856 
Q 513 641 861 531 
Q 1209 422 1556 422 
Q 2147 422 2503 684 
Q 2859 947 2859 1369 
Q 2859 1650 2717 1795 
Q 2575 1941 2106 2059 
L 1728 2156 
Q 1081 2325 845 2545 
Q 609 2766 609 3163 
Q 609 3859 1145 4304 
Q 1681 4750 2541 4750 
Q 2875 4750 3203 4690 
Q 3531 4631 3859 4513 
z
" transform="scale(0.015625)"/>
       <path id="DejaVuSans-32" d="M 1228 531 
L 3431 531 
L 3431 0 
L 469 0 
L 469 531 
Q 828 903 1448 1529 
Q 2069 2156 2228 2338 
Q 2531 2678 2651 2914 
Q 2772 3150 2772 3378 
Q 2772 3750 2511 3984 
Q 2250 4219 1831 4219 
Q 1534 4219 1204 4116 
Q 875 4013 500 3803 
L 500 4441 
Q 881 4594 1212 4672 
Q 1544 4750 1819 4750 
Q 2544 4750 2975 4387 
Q 3406 4025 3406 3419 
Q 3406 3131 3298 2873 
Q 3191 2616 2906 2266 
Q 2828 2175 2409 1742 
Q 1991 1309 1228 531 
z
" transform="scale(0.015625)"/>
       <path id="DejaVuSans-29" d="M 513 4856 
L 1013 4856 
Q 1481 4119 1714 3412 
Q 1947 2706 1947 2009 
Q 1947 1309 1714 600 
Q 1481 -109 1013 -844 
L 513 -844 
Q 928 -128 1133 580 
Q 1338 1288 1338 2009 
Q 1338 2731 1133 3434 
Q 928 4138 513 4856 
z
" transform="scale(0.015625)"/>
       <path id="DejaVuSans-20" transform="scale(0.015625)"/>
       <path id="DejaVuSans-5b" d="M 550 4863 
L 1875 4863 
L 1875 4416 
L 1125 4416 
L 1125 -397 
L 1875 -397 
L 1875 -844 
L 550 -844 
L 550 4863 
z
" transform="scale(0.015625)"/>
       <path id="DejaVuSans-6d" d="M 3328 2828 
Q 3544 3216 3844 3400 
Q 4144 3584 4550 3584 
Q 5097 3584 5394 3201 
Q 5691 2819 5691 2113 
L 5691 0 
L 5113 0 
L 5113 2094 
Q 5113 2597 4934 2840 
Q 4756 3084 4391 3084 
Q 3944 3084 3684 2787 
Q 3425 2491 3425 1978 
L 3425 0 
L 2847 0 
L 2847 2094 
Q 2847 2600 2669 2842 
Q 2491 3084 2119 3084 
Q 1678 3084 1418 2786 
Q 1159 2488 1159 1978 
L 1159 0 
L 581 0 
L 581 3500 
L 1159 3500 
L 1159 2956 
Q 1356 3278 1631 3431 
Q 1906 3584 2284 3584 
Q 2666 3584 2933 3390 
Q 3200 3197 3328 2828 
z
" transform="scale(0.015625)"/>
       <path id="DejaVuSans-56" d="M 1831 0 
L 50 4666 
L 709 4666 
L 2188 738 
L 3669 4666 
L 4325 4666 
L 2547 0 
L 1831 0 
z
" transform="scale(0.015625)"/>
       <path id="DejaVuSans-5d" d="M 1947 4863 
L 1947 -844 
L 622 -844 
L 622 -397 
L 1369 -397 
L 1369 4416 
L 622 4416 
L 622 4863 
L 1947 4863 
z
" transform="scale(0.015625)"/>
      </defs>
      <use xlink:href="#DejaVuSans-52" transform="translate(0 0.015625)"/>
      <use xlink:href="#DejaVuSans-65" transform="translate(69.482422 0.015625)"/>
      <use xlink:href="#DejaVuSans-28" transform="translate(131.005859 0.015625)"/>
      <use xlink:href="#DejaVuSans-Oblique-53" transform="translate(170.019531 0.015625)"/>
      <use xlink:href="#DejaVuSans-32" transform="translate(233.496094 -16.390625) scale(0.7)"/>
      <use xlink:href="#DejaVuSans-31" transform="translate(278.032227 -16.390625) scale(0.7)"/>
      <use xlink:href="#DejaVuSans-29" transform="translate(325.302734 0.015625)"/>
      <use xlink:href="#DejaVuSans-20" transform="translate(364.316406 0.015625)"/>
      <use xlink:href="#DejaVuSans-5b" transform="translate(396.103516 0.015625)"/>
      <use xlink:href="#DejaVuSans-6d" transform="translate(435.117188 0.015625)"/>
      <use xlink:href="#DejaVuSans-56" transform="translate(532.529297 0.015625)"/>
      <use xlink:href="#DejaVuSans-5d" transform="translate(600.9375 0.015625)"/>
     </g>
    </g>
   </g>
   <g id="matplotlib.axis_2">
    <g id="ytick_1">
     <g id="line2d_6">
      <defs>
       <path id="m13bf3e963d" d="M 0 0 
L -3.5 0 
" style="stroke: #000000; stroke-width: 0.8"/>
      </defs>
      <g>
       <use xlink:href="#m13bf3e963d" x="44.210938" y="293.157718" style="stroke: #000000; stroke-width: 0.8"/>
      </g>
     </g>
     <g id="text_7">
      <!-- -10 -->
      <g transform="translate(20.878125 296.956937) scale(0.1 -0.1)">
       <use xlink:href="#DejaVuSans-2d"/>
       <use xlink:href="#DejaVuSans-31" x="36.083984"/>
       <use xlink:href="#DejaVuSans-30" x="99.707031"/>
      </g>
     </g>
    </g>
    <g id="ytick_2">
     <g id="line2d_7">
      <g>
       <use xlink:href="#m13bf3e963d" x="44.210938" y="234.157737" style="stroke: #000000; stroke-width: 0.8"/>
      </g>
     </g>
     <g id="text_8">
      <!-- -5 -->
      <g transform="translate(27.240625 237.956956) scale(0.1 -0.1)">
       <use xlink:href="#DejaVuSans-2d"/>
       <use xlink:href="#DejaVuSans-35" x="36.083984"/>
      </g>
     </g>
    </g>
    <g id="ytick_3">
     <g id="line2d_8">
      <g>
       <use xlink:href="#m13bf3e963d" x="44.210938" y="175.157756" style="stroke: #000000; stroke-width: 0.8"/>
      </g>
     </g>
     <g id="text_9">
      <!-- 0 -->
      <g transform="translate(30.848437 178.956975) scale(0.1 -0.1)">
       <use xlink:href="#DejaVuSans-30"/>
      </g>
     </g>
    </g>
    <g id="ytick_4">
     <g id="line2d_9">
      <g>
       <use xlink:href="#m13bf3e963d" x="44.210938" y="116.157775" style="stroke: #000000; stroke-width: 0.8"/>
      </g>
     </g>
     <g id="text_10">
      <!-- 5 -->
      <g transform="translate(30.848437 119.956994) scale(0.1 -0.1)">
       <use xlink:href="#DejaVuSans-35"/>
      </g>
     </g>
    </g>
    <g id="ytick_5">
     <g id="line2d_10">
      <g>
       <use xlink:href="#m13bf3e963d" x="44.210938" y="57.157794" style="stroke: #000000; stroke-width: 0.8"/>
      </g>
     </g>
     <g id="text_11">
      <!-- 10 -->
      <g transform="translate(24.485937 60.957013) scale(0.1 -0.1)">
       <use xlink:href="#DejaVuSans-31"/>
       <use xlink:href="#DejaVuSans-30" x="63.623047"/>
      </g>
     </g>
    </g>
    <g id="text_12">
     <!-- Im$(S_{21})$ [mV] -->
     <g transform="translate(14.798437 206.466) rotate(-90) scale(0.1 -0.1)">
      <defs>
       <path id="DejaVuSans-49" d="M 628 4666 
L 1259 4666 
L 1259 0 
L 628 0 
L 628 4666 
z
" transform="scale(0.015625)"/>
      </defs>
      <use xlink:href="#DejaVuSans-49" transform="translate(0 0.015625)"/>
      <use xlink:href="#DejaVuSans-6d" transform="translate(25.867188 0.015625)"/>
      <use xlink:href="#DejaVuSans-28" transform="translate(123.279297 0.015625)"/>
      <use xlink:href="#DejaVuSans-Oblique-53" transform="translate(162.292969 0.015625)"/>
      <use xlink:href="#DejaVuSans-32" transform="translate(225.769531 -16.390625) scale(0.7)"/>
      <use xlink:href="#DejaVuSans-31" transform="translate(270.305664 -16.390625) scale(0.7)"/>
      <use xlink:href="#DejaVuSans-29" transform="translate(317.576172 0.015625)"/>
      <use xlink:href="#DejaVuSans-20" transform="translate(356.589844 0.015625)"/>
      <use xlink:href="#DejaVuSans-5b" transform="translate(388.376953 0.015625)"/>
      <use xlink:href="#DejaVuSans-6d" transform="translate(427.390625 0.015625)"/>
      <use xlink:href="#DejaVuSans-56" transform="translate(524.802734 0.015625)"/>
      <use xlink:href="#DejaVuSans-5d" transform="translate(593.210938 0.015625)"/>
     </g>
    </g>
   </g>
   <g id="line2d_11">
    <path d="M 119.042879 267.945101 
L 111.210694 262.7626 
L 104.111536 257.489388 
L 96.583836 251.641977 
L 89.135551 244.501414 
L 85.099886 238.536836 
L 79.070461 231.675567 
L 74.619264 224.193127 
L 70.735093 216.942848 
L 68.107948 209.7381 
L 64.552043 201.337656 
L 62.989391 193.752703 
L 60.893097 185.956586 
L 60.443665 177.760537 
L 61.373848 169.674842 
L 60.716932 161.698341 
L 63.80595 154.338046 
L 66.116524 146.68086 
L 67.511662 138.743717 
L 71.252976 131.493259 
L 76.92861 124.162133 
L 81.067226 116.941936 
L 86.384927 110.000757 
L 91.946065 103.332318 
L 98.010924 96.951379 
L 105.922625 91.697083 
L 113.271913 85.851871 
L 122.841237 81.01031 
L 130.304425 76.039091 
L 138.538098 72.094085 
L 148.947971 67.314164 
L 168.352055 61.540236 
L 178.557294 59.716168 
L 188.766556 57.654685 
L 199.350904 56.285563 
L 210.106821 55.282347 
L 220.519105 55.124485 
L 230.594709 54.654356 
L 241.780603 55.112331 
L 252.144942 56.380061 
L 262.530574 59.22678 
L 272.397908 61.094655 
L 282.514469 63.26637 
L 292.163317 66.267172 
L 302.95382 70.065569 
L 319.915687 78.653078 
L 329.221476 83.849792 
L 336.676311 90.021438 
L 343.625177 95.101647 
L 356.840921 107.767289 
L 361.87022 114.461311 
L 367.602043 121.19471 
L 371.431875 128.19578 
L 376.131861 136.058022 
L 379.252465 143.129883 
L 381.727395 151.322559 
L 383.443009 159.345484 
L 384.141789 167.28994 
L 384.135255 174.853521 
L 384.480015 183.402936 
L 381.120153 198.89768 
L 379.145115 205.749612 
L 375.653625 213.83367 
L 372.430249 221.736987 
L 368.268434 228.970278 
L 363.353752 235.10493 
L 356.995522 242.391817 
L 350.515126 248.944922 
L 343.844915 254.915501 
L 336.459507 260.371071 
L 329.007741 266.392903 
L 321.049099 270.793745 
L 311.126681 275.466411 
L 303.069533 279.462396 
L 293.407253 283.038717 
L 283.463984 286.30603 
L 274.098861 289.198569 
L 263.708997 291.711146 
L 253.134744 293.29115 
L 232.132364 295.363274 
L 222.198816 295.701854 
L 200.115472 294.442113 
L 189.235304 293.481699 
L 179.300845 290.981115 
L 168.523531 289.420466 
L 158.615034 286.331014 
L 149.884968 282.919466 
L 131.108752 275.160614 
L 122.694787 270.240589 
L 114.517569 265.207346 
L 107.772005 259.218946 
L 99.120637 253.779837 
L 92.003264 247.199212 
L 86.893826 240.91491 
L 81.602033 234.205248 
L 76.446243 226.981463 
L 71.716825 219.657234 
L 67.983654 212.134529 
L 64.863919 204.876992 
L 62.714263 196.631602 
L 60.48213 181.57076 
L 60.931221 165.441733 
L 62.018703 157.485296 
L 63.849694 149.71307 
L 70.90682 134.274882 
L 73.369395 127.496715 
L 78.369429 119.76368 
L 83.929455 113.050007 
L 89.131842 106.433647 
L 95.762607 99.562441 
L 109.453274 88.113911 
L 118.570139 82.701918 
L 127.128951 78.097856 
L 134.815596 73.441887 
L 144.430389 69.275401 
L 153.916276 65.542446 
L 173.206224 59.61884 
L 184.131873 57.831835 
L 195.271399 56.656839 
L 204.366635 55.536963 
L 215.935677 53.856 
L 226.174532 54.388222 
L 237.246127 55.206881 
L 258.723581 57.263135 
L 288.29995 64.361288 
L 297.446273 68.020025 
L 307.431142 72.522568 
L 316.700721 76.431526 
L 325.543195 80.931351 
L 333.043343 86.644653 
L 340.706476 92.188112 
L 354.637553 104.534583 
L 359.842435 110.910705 
L 365.675748 117.848968 
L 370.695552 124.433414 
L 373.669883 132.057264 
L 377.942667 140.032926 
L 380.790274 147.352085 
L 382.325224 154.78282 
L 382.853966 163.107706 
L 385.09821 171.19933 
L 384.62804 179.181976 
L 383.933713 187.260468 
L 383.498922 195.116827 
L 380.830561 202.810915 
L 377.822125 210.019937 
L 370.490134 225.004321 
L 364.995222 232.319353 
L 360.295131 239.478336 
L 354.479549 245.251921 
L 341.256918 257.969821 
L 332.742679 262.999894 
L 325.186881 268.737652 
L 317.008346 273.634123 
L 289.141095 285.621092 
L 279.23094 288.4784 
L 268.356578 291.023957 
L 258.847197 292.935703 
L 248.563729 294.51815 
L 236.996885 295.3282 
L 225.906264 295.699839 
L 216.435147 295.713694 
L 205.231538 295.364217 
L 194.658514 293.519388 
L 185.34428 292.265925 
L 163.250015 287.947273 
L 154.761972 285.098001 
L 145.231024 280.775666 
L 136.507887 276.498124 
L 127.131342 272.84689 
L 118.565132 267.259514 
L 111.246454 261.834334 
L 103.285358 256.687752 
L 96.919962 249.967472 
L 89.289493 243.940969 
L 83.050418 236.96609 
L 78.870539 230.936687 
L 74.294098 223.592841 
L 70.40328 216.623257 
L 70.40328 216.623257 
" clip-path="url(#p78f8411c07)" style="fill: none; stroke: #1f77b4; stroke-width: 1.5; stroke-linecap: square"/>
    <defs>
     <path id="mba90140ce4" d="M 0 1.5 
C 0.397805 1.5 0.77937 1.341951 1.06066 1.06066 
C 1.341951 0.77937 1.5 0.397805 1.5 0 
C 1.5 -0.397805 1.341951 -0.77937 1.06066 -1.06066 
C 0.77937 -1.341951 0.397805 -1.5 0 -1.5 
C -0.397805 -1.5 -0.77937 -1.341951 -1.06066 -1.06066 
C -1.341951 -0.77937 -1.5 -0.397805 -1.5 0 
C -1.5 0.397805 -1.341951 0.77937 -1.06066 1.06066 
C -0.77937 1.341951 -0.397805 1.5 0 1.5 
z
" style="stroke: #1f77b4"/>
    </defs>
    <g clip-path="url(#p78f8411c07)">
     <use xlink:href="#mba90140ce4" x="119.042879" y="267.945101" style="fill: #1f77b4; stroke: #1f77b4"/>
     <use xlink:href="#mba90140ce4" x="111.210694" y="262.7626" style="fill: #1f77b4; stroke: #1f77b4"/>
     <use xlink:href="#mba90140ce4" x="104.111536" y="257.489388" style="fill: #1f77b4; stroke: #1f77b4"/>
     <use xlink:href="#mba90140ce4" x="96.583836" y="251.641977" style="fill: #1f77b4; stroke: #1f77b4"/>
     <use xlink:href="#mba90140ce4" x="89.135551" y="244.501414" style="fill: #1f77b4; stroke: #1f77b4"/>
     <use xlink:href="#mba90140ce4" x="85.099886" y="238.536836" style="fill: #1f77b4; stroke: #1f77b4"/>
     <use xlink:href="#mba90140ce4" x="79.070461" y="231.675567" style="fill: #1f77b4; stroke: #1f77b4"/>
     <use xlink:href="#mba90140ce4" x="74.619264" y="224.193127" style="fill: #1f77b4; stroke: #1f77b4"/>
     <use xlink:href="#mba90140ce4" x="70.735093" y="216.942848" style="fill: #1f77b4; stroke: #1f77b4"/>
     <use xlink:href="#mba90140ce4" x="68.107948" y="209.7381" style="fill: #1f77b4; stroke: #1f77b4"/>
     <use xlink:href="#mba90140ce4" x="64.552043" y="201.337656" style="fill: #1f77b4; stroke: #1f77b4"/>
     <use xlink:href="#mba90140ce4" x="62.989391" y="193.752703" style="fill: #1f77b4; stroke: #1f77b4"/>
     <use xlink:href="#mba90140ce4" x="60.893097" y="185.956586" style="fill: #1f77b4; stroke: #1f77b4"/>
     <use xlink:href="#mba90140ce4" x="60.443665" y="177.760537" style="fill: #1f77b4; stroke: #1f77b4"/>
     <use xlink:href="#mba90140ce4" x="61.373848" y="169.674842" style="fill: #1f77b4; stroke: #1f77b4"/>
     <use xlink:href="#mba90140ce4" x="60.716932" y="161.698341" style="fill: #1f77b4; stroke: #1f77b4"/>
     <use xlink:href="#mba90140ce4" x="63.80595" y="154.338046" style="fill: #1f77b4; stroke: #1f77b4"/>
     <use xlink:href="#mba90140ce4" x="66.116524" y="146.68086" style="fill: #1f77b4; stroke: #1f77b4"/>
     <use xlink:href="#mba90140ce4" x="67.511662" y="138.743717" style="fill: #1f77b4; stroke: #1f77b4"/>
     <use xlink:href="#mba90140ce4" x="71.252976" y="131.493259" style="fill: #1f77b4; stroke: #1f77b4"/>
     <use xlink:href="#mba90140ce4" x="76.92861" y="124.162133" style="fill: #1f77b4; stroke: #1f77b4"/>
     <use xlink:href="#mba90140ce4" x="81.067226" y="116.941936" style="fill: #1f77b4; stroke: #1f77b4"/>
     <use xlink:href="#mba90140ce4" x="86.384927" y="110.000757" style="fill: #1f77b4; stroke: #1f77b4"/>
     <use xlink:href="#mba90140ce4" x="91.946065" y="103.332318" style="fill: #1f77b4; stroke: #1f77b4"/>
     <use xlink:href="#mba90140ce4" x="98.010924" y="96.951379" style="fill: #1f77b4; stroke: #1f77b4"/>
     <use xlink:href="#mba90140ce4" x="105.922625" y="91.697083" style="fill: #1f77b4; stroke: #1f77b4"/>
     <use xlink:href="#mba90140ce4" x="113.271913" y="85.851871" style="fill: #1f77b4; stroke: #1f77b4"/>
     <use xlink:href="#mba90140ce4" x="122.841237" y="81.01031" style="fill: #1f77b4; stroke: #1f77b4"/>
     <use xlink:href="#mba90140ce4" x="130.304425" y="76.039091" style="fill: #1f77b4; stroke: #1f77b4"/>
     <use xlink:href="#mba90140ce4" x="138.538098" y="72.094085" style="fill: #1f77b4; stroke: #1f77b4"/>
     <use xlink:href="#mba90140ce4" x="148.947971" y="67.314164" style="fill: #1f77b4; stroke: #1f77b4"/>
     <use xlink:href="#mba90140ce4" x="158.405908" y="64.488722" style="fill: #1f77b4; stroke: #1f77b4"/>
     <use xlink:href="#mba90140ce4" x="168.352055" y="61.540236" style="fill: #1f77b4; stroke: #1f77b4"/>
     <use xlink:href="#mba90140ce4" x="178.557294" y="59.716168" style="fill: #1f77b4; stroke: #1f77b4"/>
     <use xlink:href="#mba90140ce4" x="188.766556" y="57.654685" style="fill: #1f77b4; stroke: #1f77b4"/>
     <use xlink:href="#mba90140ce4" x="199.350904" y="56.285563" style="fill: #1f77b4; stroke: #1f77b4"/>
     <use xlink:href="#mba90140ce4" x="210.106821" y="55.282347" style="fill: #1f77b4; stroke: #1f77b4"/>
     <use xlink:href="#mba90140ce4" x="220.519105" y="55.124485" style="fill: #1f77b4; stroke: #1f77b4"/>
     <use xlink:href="#mba90140ce4" x="230.594709" y="54.654356" style="fill: #1f77b4; stroke: #1f77b4"/>
     <use xlink:href="#mba90140ce4" x="241.780603" y="55.112331" style="fill: #1f77b4; stroke: #1f77b4"/>
     <use xlink:href="#mba90140ce4" x="252.144942" y="56.380061" style="fill: #1f77b4; stroke: #1f77b4"/>
     <use xlink:href="#mba90140ce4" x="262.530574" y="59.22678" style="fill: #1f77b4; stroke: #1f77b4"/>
     <use xlink:href="#mba90140ce4" x="272.397908" y="61.094655" style="fill: #1f77b4; stroke: #1f77b4"/>
     <use xlink:href="#mba90140ce4" x="282.514469" y="63.26637" style="fill: #1f77b4; stroke: #1f77b4"/>
     <use xlink:href="#mba90140ce4" x="292.163317" y="66.267172" style="fill: #1f77b4; stroke: #1f77b4"/>
     <use xlink:href="#mba90140ce4" x="302.95382" y="70.065569" style="fill: #1f77b4; stroke: #1f77b4"/>
     <use xlink:href="#mba90140ce4" x="312.067081" y="74.724233" style="fill: #1f77b4; stroke: #1f77b4"/>
     <use xlink:href="#mba90140ce4" x="319.915687" y="78.653078" style="fill: #1f77b4; stroke: #1f77b4"/>
     <use xlink:href="#mba90140ce4" x="329.221476" y="83.849792" style="fill: #1f77b4; stroke: #1f77b4"/>
     <use xlink:href="#mba90140ce4" x="336.676311" y="90.021438" style="fill: #1f77b4; stroke: #1f77b4"/>
     <use xlink:href="#mba90140ce4" x="343.625177" y="95.101647" style="fill: #1f77b4; stroke: #1f77b4"/>
     <use xlink:href="#mba90140ce4" x="349.292889" y="100.572992" style="fill: #1f77b4; stroke: #1f77b4"/>
     <use xlink:href="#mba90140ce4" x="356.840921" y="107.767289" style="fill: #1f77b4; stroke: #1f77b4"/>
     <use xlink:href="#mba90140ce4" x="361.87022" y="114.461311" style="fill: #1f77b4; stroke: #1f77b4"/>
     <use xlink:href="#mba90140ce4" x="367.602043" y="121.19471" style="fill: #1f77b4; stroke: #1f77b4"/>
     <use xlink:href="#mba90140ce4" x="371.431875" y="128.19578" style="fill: #1f77b4; stroke: #1f77b4"/>
     <use xlink:href="#mba90140ce4" x="376.131861" y="136.058022" style="fill: #1f77b4; stroke: #1f77b4"/>
     <use xlink:href="#mba90140ce4" x="379.252465" y="143.129883" style="fill: #1f77b4; stroke: #1f77b4"/>
     <use xlink:href="#mba90140ce4" x="381.727395" y="151.322559" style="fill: #1f77b4; stroke: #1f77b4"/>
     <use xlink:href="#mba90140ce4" x="383.443009" y="159.345484" style="fill: #1f77b4; stroke: #1f77b4"/>
     <use xlink:href="#mba90140ce4" x="384.141789" y="167.28994" style="fill: #1f77b4; stroke: #1f77b4"/>
     <use xlink:href="#mba90140ce4" x="384.135255" y="174.853521" style="fill: #1f77b4; stroke: #1f77b4"/>
     <use xlink:href="#mba90140ce4" x="384.480015" y="183.402936" style="fill: #1f77b4; stroke: #1f77b4"/>
     <use xlink:href="#mba90140ce4" x="382.962901" y="190.175277" style="fill: #1f77b4; stroke: #1f77b4"/>
     <use xlink:href="#mba90140ce4" x="381.120153" y="198.89768" style="fill: #1f77b4; stroke: #1f77b4"/>
     <use xlink:href="#mba90140ce4" x="379.145115" y="205.749612" style="fill: #1f77b4; stroke: #1f77b4"/>
     <use xlink:href="#mba90140ce4" x="375.653625" y="213.83367" style="fill: #1f77b4; stroke: #1f77b4"/>
     <use xlink:href="#mba90140ce4" x="372.430249" y="221.736987" style="fill: #1f77b4; stroke: #1f77b4"/>
     <use xlink:href="#mba90140ce4" x="368.268434" y="228.970278" style="fill: #1f77b4; stroke: #1f77b4"/>
     <use xlink:href="#mba90140ce4" x="363.353752" y="235.10493" style="fill: #1f77b4; stroke: #1f77b4"/>
     <use xlink:href="#mba90140ce4" x="356.995522" y="242.391817" style="fill: #1f77b4; stroke: #1f77b4"/>
     <use xlink:href="#mba90140ce4" x="350.515126" y="248.944922" style="fill: #1f77b4; stroke: #1f77b4"/>
     <use xlink:href="#mba90140ce4" x="343.844915" y="254.915501" style="fill: #1f77b4; stroke: #1f77b4"/>
     <use xlink:href="#mba90140ce4" x="336.459507" y="260.371071" style="fill: #1f77b4; stroke: #1f77b4"/>
     <use xlink:href="#mba90140ce4" x="329.007741" y="266.392903" style="fill: #1f77b4; stroke: #1f77b4"/>
     <use xlink:href="#mba90140ce4" x="321.049099" y="270.793745" style="fill: #1f77b4; stroke: #1f77b4"/>
     <use xlink:href="#mba90140ce4" x="311.126681" y="275.466411" style="fill: #1f77b4; stroke: #1f77b4"/>
     <use xlink:href="#mba90140ce4" x="303.069533" y="279.462396" style="fill: #1f77b4; stroke: #1f77b4"/>
     <use xlink:href="#mba90140ce4" x="293.407253" y="283.038717" style="fill: #1f77b4; stroke: #1f77b4"/>
     <use xlink:href="#mba90140ce4" x="283.463984" y="286.30603" style="fill: #1f77b4; stroke: #1f77b4"/>
     <use xlink:href="#mba90140ce4" x="274.098861" y="289.198569" style="fill: #1f77b4; stroke: #1f77b4"/>
     <use xlink:href="#mba90140ce4" x="263.708997" y="291.711146" style="fill: #1f77b4; stroke: #1f77b4"/>
     <use xlink:href="#mba90140ce4" x="253.134744" y="293.29115" style="fill: #1f77b4; stroke: #1f77b4"/>
     <use xlink:href="#mba90140ce4" x="243.356142" y="294.268033" style="fill: #1f77b4; stroke: #1f77b4"/>
     <use xlink:href="#mba90140ce4" x="232.132364" y="295.363274" style="fill: #1f77b4; stroke: #1f77b4"/>
     <use xlink:href="#mba90140ce4" x="222.198816" y="295.701854" style="fill: #1f77b4; stroke: #1f77b4"/>
     <use xlink:href="#mba90140ce4" x="211.030753" y="295.088588" style="fill: #1f77b4; stroke: #1f77b4"/>
     <use xlink:href="#mba90140ce4" x="200.115472" y="294.442113" style="fill: #1f77b4; stroke: #1f77b4"/>
     <use xlink:href="#mba90140ce4" x="189.235304" y="293.481699" style="fill: #1f77b4; stroke: #1f77b4"/>
     <use xlink:href="#mba90140ce4" x="179.300845" y="290.981115" style="fill: #1f77b4; stroke: #1f77b4"/>
     <use xlink:href="#mba90140ce4" x="168.523531" y="289.420466" style="fill: #1f77b4; stroke: #1f77b4"/>
     <use xlink:href="#mba90140ce4" x="158.615034" y="286.331014" style="fill: #1f77b4; stroke: #1f77b4"/>
     <use xlink:href="#mba90140ce4" x="149.884968" y="282.919466" style="fill: #1f77b4; stroke: #1f77b4"/>
     <use xlink:href="#mba90140ce4" x="140.147172" y="278.920109" style="fill: #1f77b4; stroke: #1f77b4"/>
     <use xlink:href="#mba90140ce4" x="131.108752" y="275.160614" style="fill: #1f77b4; stroke: #1f77b4"/>
     <use xlink:href="#mba90140ce4" x="122.694787" y="270.240589" style="fill: #1f77b4; stroke: #1f77b4"/>
     <use xlink:href="#mba90140ce4" x="114.517569" y="265.207346" style="fill: #1f77b4; stroke: #1f77b4"/>
     <use xlink:href="#mba90140ce4" x="107.772005" y="259.218946" style="fill: #1f77b4; stroke: #1f77b4"/>
     <use xlink:href="#mba90140ce4" x="99.120637" y="253.779837" style="fill: #1f77b4; stroke: #1f77b4"/>
     <use xlink:href="#mba90140ce4" x="92.003264" y="247.199212" style="fill: #1f77b4; stroke: #1f77b4"/>
     <use xlink:href="#mba90140ce4" x="86.893826" y="240.91491" style="fill: #1f77b4; stroke: #1f77b4"/>
     <use xlink:href="#mba90140ce4" x="81.602033" y="234.205248" style="fill: #1f77b4; stroke: #1f77b4"/>
     <use xlink:href="#mba90140ce4" x="76.446243" y="226.981463" style="fill: #1f77b4; stroke: #1f77b4"/>
     <use xlink:href="#mba90140ce4" x="71.716825" y="219.657234" style="fill: #1f77b4; stroke: #1f77b4"/>
     <use xlink:href="#mba90140ce4" x="67.983654" y="212.134529" style="fill: #1f77b4; stroke: #1f77b4"/>
     <use xlink:href="#mba90140ce4" x="64.863919" y="204.876992" style="fill: #1f77b4; stroke: #1f77b4"/>
     <use xlink:href="#mba90140ce4" x="62.714263" y="196.631602" style="fill: #1f77b4; stroke: #1f77b4"/>
     <use xlink:href="#mba90140ce4" x="61.598105" y="189.246937" style="fill: #1f77b4; stroke: #1f77b4"/>
     <use xlink:href="#mba90140ce4" x="60.48213" y="181.57076" style="fill: #1f77b4; stroke: #1f77b4"/>
     <use xlink:href="#mba90140ce4" x="60.730117" y="173.196129" style="fill: #1f77b4; stroke: #1f77b4"/>
     <use xlink:href="#mba90140ce4" x="60.931221" y="165.441733" style="fill: #1f77b4; stroke: #1f77b4"/>
     <use xlink:href="#mba90140ce4" x="62.018703" y="157.485296" style="fill: #1f77b4; stroke: #1f77b4"/>
     <use xlink:href="#mba90140ce4" x="63.849694" y="149.71307" style="fill: #1f77b4; stroke: #1f77b4"/>
     <use xlink:href="#mba90140ce4" x="67.209401" y="142.428633" style="fill: #1f77b4; stroke: #1f77b4"/>
     <use xlink:href="#mba90140ce4" x="70.90682" y="134.274882" style="fill: #1f77b4; stroke: #1f77b4"/>
     <use xlink:href="#mba90140ce4" x="73.369395" y="127.496715" style="fill: #1f77b4; stroke: #1f77b4"/>
     <use xlink:href="#mba90140ce4" x="78.369429" y="119.76368" style="fill: #1f77b4; stroke: #1f77b4"/>
     <use xlink:href="#mba90140ce4" x="83.929455" y="113.050007" style="fill: #1f77b4; stroke: #1f77b4"/>
     <use xlink:href="#mba90140ce4" x="89.131842" y="106.433647" style="fill: #1f77b4; stroke: #1f77b4"/>
     <use xlink:href="#mba90140ce4" x="95.762607" y="99.562441" style="fill: #1f77b4; stroke: #1f77b4"/>
     <use xlink:href="#mba90140ce4" x="102.749384" y="93.704982" style="fill: #1f77b4; stroke: #1f77b4"/>
     <use xlink:href="#mba90140ce4" x="109.453274" y="88.113911" style="fill: #1f77b4; stroke: #1f77b4"/>
     <use xlink:href="#mba90140ce4" x="118.570139" y="82.701918" style="fill: #1f77b4; stroke: #1f77b4"/>
     <use xlink:href="#mba90140ce4" x="127.128951" y="78.097856" style="fill: #1f77b4; stroke: #1f77b4"/>
     <use xlink:href="#mba90140ce4" x="134.815596" y="73.441887" style="fill: #1f77b4; stroke: #1f77b4"/>
     <use xlink:href="#mba90140ce4" x="144.430389" y="69.275401" style="fill: #1f77b4; stroke: #1f77b4"/>
     <use xlink:href="#mba90140ce4" x="153.916276" y="65.542446" style="fill: #1f77b4; stroke: #1f77b4"/>
     <use xlink:href="#mba90140ce4" x="163.554365" y="62.563371" style="fill: #1f77b4; stroke: #1f77b4"/>
     <use xlink:href="#mba90140ce4" x="173.206224" y="59.61884" style="fill: #1f77b4; stroke: #1f77b4"/>
     <use xlink:href="#mba90140ce4" x="184.131873" y="57.831835" style="fill: #1f77b4; stroke: #1f77b4"/>
     <use xlink:href="#mba90140ce4" x="195.271399" y="56.656839" style="fill: #1f77b4; stroke: #1f77b4"/>
     <use xlink:href="#mba90140ce4" x="204.366635" y="55.536963" style="fill: #1f77b4; stroke: #1f77b4"/>
     <use xlink:href="#mba90140ce4" x="215.935677" y="53.856" style="fill: #1f77b4; stroke: #1f77b4"/>
     <use xlink:href="#mba90140ce4" x="226.174532" y="54.388222" style="fill: #1f77b4; stroke: #1f77b4"/>
     <use xlink:href="#mba90140ce4" x="237.246127" y="55.206881" style="fill: #1f77b4; stroke: #1f77b4"/>
     <use xlink:href="#mba90140ce4" x="248.456926" y="56.253371" style="fill: #1f77b4; stroke: #1f77b4"/>
     <use xlink:href="#mba90140ce4" x="258.723581" y="57.263135" style="fill: #1f77b4; stroke: #1f77b4"/>
     <use xlink:href="#mba90140ce4" x="268.764894" y="59.674983" style="fill: #1f77b4; stroke: #1f77b4"/>
     <use xlink:href="#mba90140ce4" x="278.560402" y="61.933345" style="fill: #1f77b4; stroke: #1f77b4"/>
     <use xlink:href="#mba90140ce4" x="288.29995" y="64.361288" style="fill: #1f77b4; stroke: #1f77b4"/>
     <use xlink:href="#mba90140ce4" x="297.446273" y="68.020025" style="fill: #1f77b4; stroke: #1f77b4"/>
     <use xlink:href="#mba90140ce4" x="307.431142" y="72.522568" style="fill: #1f77b4; stroke: #1f77b4"/>
     <use xlink:href="#mba90140ce4" x="316.700721" y="76.431526" style="fill: #1f77b4; stroke: #1f77b4"/>
     <use xlink:href="#mba90140ce4" x="325.543195" y="80.931351" style="fill: #1f77b4; stroke: #1f77b4"/>
     <use xlink:href="#mba90140ce4" x="333.043343" y="86.644653" style="fill: #1f77b4; stroke: #1f77b4"/>
     <use xlink:href="#mba90140ce4" x="340.706476" y="92.188112" style="fill: #1f77b4; stroke: #1f77b4"/>
     <use xlink:href="#mba90140ce4" x="347.632053" y="98.395498" style="fill: #1f77b4; stroke: #1f77b4"/>
     <use xlink:href="#mba90140ce4" x="354.637553" y="104.534583" style="fill: #1f77b4; stroke: #1f77b4"/>
     <use xlink:href="#mba90140ce4" x="359.842435" y="110.910705" style="fill: #1f77b4; stroke: #1f77b4"/>
     <use xlink:href="#mba90140ce4" x="365.675748" y="117.848968" style="fill: #1f77b4; stroke: #1f77b4"/>
     <use xlink:href="#mba90140ce4" x="370.695552" y="124.433414" style="fill: #1f77b4; stroke: #1f77b4"/>
     <use xlink:href="#mba90140ce4" x="373.669883" y="132.057264" style="fill: #1f77b4; stroke: #1f77b4"/>
     <use xlink:href="#mba90140ce4" x="377.942667" y="140.032926" style="fill: #1f77b4; stroke: #1f77b4"/>
     <use xlink:href="#mba90140ce4" x="380.790274" y="147.352085" style="fill: #1f77b4; stroke: #1f77b4"/>
     <use xlink:href="#mba90140ce4" x="382.325224" y="154.78282" style="fill: #1f77b4; stroke: #1f77b4"/>
     <use xlink:href="#mba90140ce4" x="382.853966" y="163.107706" style="fill: #1f77b4; stroke: #1f77b4"/>
     <use xlink:href="#mba90140ce4" x="385.09821" y="171.19933" style="fill: #1f77b4; stroke: #1f77b4"/>
     <use xlink:href="#mba90140ce4" x="384.62804" y="179.181976" style="fill: #1f77b4; stroke: #1f77b4"/>
     <use xlink:href="#mba90140ce4" x="383.933713" y="187.260468" style="fill: #1f77b4; stroke: #1f77b4"/>
     <use xlink:href="#mba90140ce4" x="383.498922" y="195.116827" style="fill: #1f77b4; stroke: #1f77b4"/>
     <use xlink:href="#mba90140ce4" x="380.830561" y="202.810915" style="fill: #1f77b4; stroke: #1f77b4"/>
     <use xlink:href="#mba90140ce4" x="377.822125" y="210.019937" style="fill: #1f77b4; stroke: #1f77b4"/>
     <use xlink:href="#mba90140ce4" x="373.82093" y="218.087984" style="fill: #1f77b4; stroke: #1f77b4"/>
     <use xlink:href="#mba90140ce4" x="370.490134" y="225.004321" style="fill: #1f77b4; stroke: #1f77b4"/>
     <use xlink:href="#mba90140ce4" x="364.995222" y="232.319353" style="fill: #1f77b4; stroke: #1f77b4"/>
     <use xlink:href="#mba90140ce4" x="360.295131" y="239.478336" style="fill: #1f77b4; stroke: #1f77b4"/>
     <use xlink:href="#mba90140ce4" x="354.479549" y="245.251921" style="fill: #1f77b4; stroke: #1f77b4"/>
     <use xlink:href="#mba90140ce4" x="347.815659" y="251.58881" style="fill: #1f77b4; stroke: #1f77b4"/>
     <use xlink:href="#mba90140ce4" x="341.256918" y="257.969821" style="fill: #1f77b4; stroke: #1f77b4"/>
     <use xlink:href="#mba90140ce4" x="332.742679" y="262.999894" style="fill: #1f77b4; stroke: #1f77b4"/>
     <use xlink:href="#mba90140ce4" x="325.186881" y="268.737652" style="fill: #1f77b4; stroke: #1f77b4"/>
     <use xlink:href="#mba90140ce4" x="317.008346" y="273.634123" style="fill: #1f77b4; stroke: #1f77b4"/>
     <use xlink:href="#mba90140ce4" x="306.858516" y="278.021243" style="fill: #1f77b4; stroke: #1f77b4"/>
     <use xlink:href="#mba90140ce4" x="298.961701" y="281.359601" style="fill: #1f77b4; stroke: #1f77b4"/>
     <use xlink:href="#mba90140ce4" x="289.141095" y="285.621092" style="fill: #1f77b4; stroke: #1f77b4"/>
     <use xlink:href="#mba90140ce4" x="279.23094" y="288.4784" style="fill: #1f77b4; stroke: #1f77b4"/>
     <use xlink:href="#mba90140ce4" x="268.356578" y="291.023957" style="fill: #1f77b4; stroke: #1f77b4"/>
     <use xlink:href="#mba90140ce4" x="258.847197" y="292.935703" style="fill: #1f77b4; stroke: #1f77b4"/>
     <use xlink:href="#mba90140ce4" x="248.563729" y="294.51815" style="fill: #1f77b4; stroke: #1f77b4"/>
     <use xlink:href="#mba90140ce4" x="236.996885" y="295.3282" style="fill: #1f77b4; stroke: #1f77b4"/>
     <use xlink:href="#mba90140ce4" x="225.906264" y="295.699839" style="fill: #1f77b4; stroke: #1f77b4"/>
     <use xlink:href="#mba90140ce4" x="216.435147" y="295.713694" style="fill: #1f77b4; stroke: #1f77b4"/>
     <use xlink:href="#mba90140ce4" x="205.231538" y="295.364217" style="fill: #1f77b4; stroke: #1f77b4"/>
     <use xlink:href="#mba90140ce4" x="194.658514" y="293.519388" style="fill: #1f77b4; stroke: #1f77b4"/>
     <use xlink:href="#mba90140ce4" x="185.34428" y="292.265925" style="fill: #1f77b4; stroke: #1f77b4"/>
     <use xlink:href="#mba90140ce4" x="173.829574" y="290.069342" style="fill: #1f77b4; stroke: #1f77b4"/>
     <use xlink:href="#mba90140ce4" x="163.250015" y="287.947273" style="fill: #1f77b4; stroke: #1f77b4"/>
     <use xlink:href="#mba90140ce4" x="154.761972" y="285.098001" style="fill: #1f77b4; stroke: #1f77b4"/>
     <use xlink:href="#mba90140ce4" x="145.231024" y="280.775666" style="fill: #1f77b4; stroke: #1f77b4"/>
     <use xlink:href="#mba90140ce4" x="136.507887" y="276.498124" style="fill: #1f77b4; stroke: #1f77b4"/>
     <use xlink:href="#mba90140ce4" x="127.131342" y="272.84689" style="fill: #1f77b4; stroke: #1f77b4"/>
     <use xlink:href="#mba90140ce4" x="118.565132" y="267.259514" style="fill: #1f77b4; stroke: #1f77b4"/>
     <use xlink:href="#mba90140ce4" x="111.246454" y="261.834334" style="fill: #1f77b4; stroke: #1f77b4"/>
     <use xlink:href="#mba90140ce4" x="103.285358" y="256.687752" style="fill: #1f77b4; stroke: #1f77b4"/>
     <use xlink:href="#mba90140ce4" x="96.919962" y="249.967472" style="fill: #1f77b4; stroke: #1f77b4"/>
     <use xlink:href="#mba90140ce4" x="89.289493" y="243.940969" style="fill: #1f77b4; stroke: #1f77b4"/>
     <use xlink:href="#mba90140ce4" x="83.050418" y="236.96609" style="fill: #1f77b4; stroke: #1f77b4"/>
     <use xlink:href="#mba90140ce4" x="78.870539" y="230.936687" style="fill: #1f77b4; stroke: #1f77b4"/>
     <use xlink:href="#mba90140ce4" x="74.294098" y="223.592841" style="fill: #1f77b4; stroke: #1f77b4"/>
     <use xlink:href="#mba90140ce4" x="70.40328" y="216.623257" style="fill: #1f77b4; stroke: #1f77b4"/>
    </g>
   </g>
   <g id="line2d_12">
    <path d="M 118.991898 267.753724 
L 114.175318 264.653838 
L 109.526352 261.415473 
L 105.052194 258.043635 
L 100.759766 254.54354 
L 96.655712 250.920602 
L 92.74638 247.180423 
L 89.037823 243.328789 
L 85.535777 239.371657 
L 82.245664 235.315148 
L 79.172574 231.165535 
L 76.321265 226.929239 
L 73.696148 222.61281 
L 71.301288 218.222926 
L 69.140392 213.766378 
L 67.216804 209.250059 
L 65.533503 204.680955 
L 64.093096 200.066133 
L 62.897812 195.412734 
L 61.949504 190.727954 
L 61.24964 186.019041 
L 60.799307 181.29328 
L 60.599202 176.557981 
L 60.649639 171.820469 
L 60.950541 167.088073 
L 61.501446 162.368115 
L 62.301503 157.667896 
L 63.349478 152.994688 
L 64.643751 148.355719 
L 66.182323 143.758168 
L 67.962816 139.209147 
L 69.982479 134.715693 
L 72.238188 130.284759 
L 74.726457 125.923199 
L 77.443439 121.637762 
L 80.384932 117.435078 
L 83.546389 113.32165 
L 86.922921 109.303841 
L 90.509306 105.387869 
L 94.299999 101.579791 
L 98.289136 97.885501 
L 102.470551 94.310714 
L 106.837774 90.860962 
L 111.384052 87.541582 
L 116.102355 84.357712 
L 120.985383 81.314277 
L 126.025585 78.415988 
L 131.215166 75.667329 
L 136.546098 73.072554 
L 142.010136 70.635679 
L 147.598829 68.360475 
L 153.303532 66.250463 
L 159.11542 64.308909 
L 165.025505 62.538819 
L 171.024644 60.942932 
L 177.103557 59.523719 
L 183.252842 58.283376 
L 189.462985 57.223826 
L 195.724381 56.346708 
L 202.027344 55.653382 
L 208.362124 55.144921 
L 214.71892 54.822114 
L 221.087899 54.685462 
L 227.45921 54.735179 
L 233.822994 54.971189 
L 240.169408 55.393129 
L 246.488633 56.000349 
L 252.770894 56.79191 
L 259.006471 57.76659 
L 265.185718 58.922882 
L 271.299074 60.259001 
L 277.337082 61.77288 
L 283.290401 63.46218 
L 289.149819 65.324289 
L 294.906271 67.356328 
L 300.550852 69.555154 
L 306.074827 71.917369 
L 311.469651 74.439319 
L 316.726976 77.117105 
L 321.838668 79.946585 
L 326.796817 82.923384 
L 331.593752 86.042898 
L 336.222051 89.300303 
L 340.674551 92.690561 
L 344.944364 96.208428 
L 349.024882 99.848464 
L 352.90979 103.605039 
L 356.593077 107.472342 
L 360.069043 111.444393 
L 363.332308 115.515046 
L 366.377822 119.678006 
L 369.200872 123.926834 
L 371.797088 128.254958 
L 374.162452 132.655682 
L 376.293302 137.122201 
L 378.186339 141.647604 
L 379.838633 146.224891 
L 381.247624 150.846983 
L 382.411132 155.506729 
L 383.327354 160.19692 
L 383.994869 164.910303 
L 384.412643 169.639584 
L 384.580028 174.377448 
L 384.49676 179.116567 
L 384.162968 183.849608 
L 383.579164 188.569249 
L 382.746251 193.268189 
L 381.665512 197.939159 
L 380.338619 202.574932 
L 378.767621 207.168337 
L 376.954946 211.712267 
L 374.903396 216.199693 
L 372.616143 220.623671 
L 370.096722 224.977357 
L 367.349029 229.254016 
L 364.377312 233.447031 
L 361.186166 237.549914 
L 357.780526 241.556317 
L 354.165657 245.460041 
L 350.347151 249.255048 
L 346.330912 252.935463 
L 342.123152 256.495594 
L 337.730377 259.929931 
L 333.159382 263.233159 
L 328.417237 266.400169 
L 323.511275 269.426058 
L 318.449084 272.306145 
L 313.238494 275.035973 
L 307.887565 277.611317 
L 302.404573 280.028192 
L 296.797998 282.282857 
L 291.076513 284.371822 
L 285.248967 286.291855 
L 279.324375 288.039984 
L 273.311902 289.613501 
L 267.220847 291.009973 
L 261.060632 292.227235 
L 254.840787 293.263405 
L 248.570934 294.116876 
L 242.26077 294.786326 
L 235.920057 295.27072 
L 229.558605 295.569304 
L 223.186254 295.681615 
L 216.812861 295.607478 
L 210.448287 295.347006 
L 204.102377 294.9006 
L 197.784949 294.268948 
L 191.505776 293.453025 
L 185.274573 292.454093 
L 179.100978 291.273695 
L 172.994544 289.913655 
L 166.964717 288.376075 
L 161.020827 286.663332 
L 155.172069 284.778074 
L 149.427492 282.723215 
L 143.795985 280.501934 
L 138.28626 278.117664 
L 132.906841 275.574092 
L 127.666053 272.875152 
L 122.572004 270.025018 
L 117.632575 267.028096 
L 112.85541 263.889022 
L 108.2479 260.612651 
L 103.817175 257.204049 
L 99.570091 253.668489 
L 95.513219 250.011438 
L 91.652839 246.238553 
L 87.994923 242.355669 
L 84.545132 238.368793 
L 81.308806 234.28409 
L 78.290952 230.107878 
L 75.496242 225.846618 
L 72.929002 221.506901 
L 70.593204 217.095439 
L 68.492465 212.619055 
L 66.630037 208.084676 
L 65.008804 203.499314 
L 63.631275 198.870062 
L 62.499584 194.204081 
L 61.615485 189.50859 
L 60.980347 184.790852 
L 60.595156 180.058165 
L 60.46051 175.31785 
L 60.57662 170.57724 
L 60.943308 165.843669 
L 61.56001 161.12446 
L 62.425774 156.426914 
L 63.539264 151.758297 
L 64.898758 147.125833 
L 66.502158 142.536689 
L 68.346984 137.997963 
L 70.430385 133.516678 
L 72.74914 129.099767 
L 75.299665 124.754063 
L 78.078016 120.48629 
L 81.079898 116.303051 
L 84.300668 112.210819 
L 87.735347 108.215924 
L 91.378623 104.324548 
L 95.224863 100.542711 
L 99.268117 96.876266 
L 103.502134 93.330885 
L 107.920364 89.912054 
L 112.515976 86.625063 
L 117.28186 83.475 
L 122.210647 80.466737 
L 127.294713 77.60493 
L 132.526195 74.894008 
L 137.897001 72.338167 
L 143.398823 69.941361 
L 149.023153 67.7073 
L 154.76129 65.639441 
L 160.604358 63.740986 
L 166.54332 62.014872 
L 172.568988 60.463773 
L 178.672043 59.090088 
L 184.843044 57.895945 
L 191.072444 56.883194 
L 197.350607 56.053402 
L 203.667823 55.407854 
L 210.014317 54.947553 
L 216.380274 54.673211 
L 222.755844 54.585254 
L 229.131166 54.683821 
L 235.496376 54.968761 
L 241.841628 55.439636 
L 248.157104 56.095717 
L 254.433036 56.935993 
L 260.659714 57.959165 
L 266.827504 59.163653 
L 272.926865 60.547594 
L 278.94836 62.10885 
L 284.882673 63.845006 
L 290.720624 65.75338 
L 296.45318 67.83102 
L 302.071471 70.074715 
L 307.566805 72.480994 
L 312.93068 75.046137 
L 318.154796 77.766177 
L 323.231071 80.636908 
L 328.15165 83.653891 
L 332.908919 86.812459 
L 337.495518 90.107728 
L 341.904349 93.534601 
L 346.12859 97.087779 
L 350.161704 100.761765 
L 353.99745 104.550878 
L 357.629893 108.449257 
L 361.053411 112.450872 
L 364.262705 116.549534 
L 367.25281 120.738903 
L 370.019097 125.012499 
L 372.557284 129.363712 
L 374.863443 133.785811 
L 376.934003 138.271956 
L 378.76576 142.815208 
L 380.355877 147.408539 
L 381.701891 152.044844 
L 382.801719 156.71695 
L 383.653656 161.41763 
L 384.256382 166.139613 
L 384.608962 170.875595 
L 384.710848 175.618247 
L 384.56188 180.360235 
L 384.162286 185.094222 
L 383.512681 189.812885 
L 382.614068 194.508923 
L 381.467835 199.175072 
L 380.075752 203.804113 
L 378.439971 208.388884 
L 376.563019 212.922294 
L 374.447798 217.397327 
L 372.097578 221.80706 
L 369.515992 226.144671 
L 366.707031 230.40345 
L 363.675038 234.576806 
L 360.424703 238.658284 
L 356.96105 242.641567 
L 353.289437 246.520494 
L 349.41554 250.289062 
L 345.345351 253.94144 
L 341.085164 257.471977 
L 336.641568 260.87521 
L 332.021436 264.145872 
L 327.231912 267.278904 
L 322.280404 270.269457 
L 317.174571 273.112903 
L 311.92231 275.804841 
L 306.531745 278.341106 
L 301.011213 280.717773 
L 295.369253 282.931164 
L 289.614592 284.977852 
L 283.756132 286.85467 
L 277.802934 288.558713 
L 271.764206 290.087343 
L 265.649291 291.438193 
L 259.467646 292.609172 
L 253.228835 293.598466 
L 246.942507 294.404544 
L 240.618388 295.026156 
L 234.266259 295.462339 
L 227.895949 295.712417 
L 221.517311 295.776 
L 215.140212 295.652989 
L 208.774519 295.343571 
L 202.430079 294.848224 
L 196.116707 294.167713 
L 189.84417 293.303087 
L 183.622171 292.255683 
L 177.460338 291.027119 
L 171.368202 289.619294 
L 165.355189 288.034384 
L 159.430602 286.274839 
L 153.603607 284.34338 
L 147.883219 282.242992 
L 142.278288 279.976923 
L 136.797487 277.548678 
L 131.449296 274.96201 
L 126.241989 272.220921 
L 121.183623 269.329648 
L 116.282026 266.292663 
L 111.544781 263.114663 
L 106.979219 259.800563 
L 102.592404 256.355488 
L 98.391125 252.784766 
L 94.381882 249.09392 
L 90.57088 245.288659 
L 86.964016 241.374868 
L 83.566872 237.358601 
L 80.384706 233.246069 
L 77.422443 229.043634 
L 74.684666 224.757796 
L 72.175615 220.395184 
L 69.899172 215.962546 
L 69.899172 215.962546 
" clip-path="url(#p78f8411c07)" style="fill: none; stroke: #d62728; stroke-width: 1.5; stroke-linecap: square"/>
   </g>
   <g id="patch_3">
    <path d="M 44.210938 307.872 
L 44.210938 41.76 
" style="fill: none; stroke: #000000; stroke-width: 0.8; stroke-linejoin: miter; stroke-linecap: square"/>
   </g>
   <g id="patch_4">
    <path d="M 401.330938 307.872 
L 401.330938 41.76 
" style="fill: none; stroke: #000000; stroke-width: 0.8; stroke-linejoin: miter; stroke-linecap: square"/>
   </g>
   <g id="patch_5">
    <path d="M 44.210938 307.872 
L 401.330938 307.872 
" style="fill: none; stroke: #000000; stroke-width: 0.8; stroke-linejoin: miter; stroke-linecap: square"/>
   </g>
   <g id="patch_6">
    <path d="M 44.210938 41.76 
L 401.330938 41.76 
" style="fill: none; stroke: #000000; stroke-width: 0.8; stroke-linejoin: miter; stroke-linecap: square"/>
   </g>
   <g id="text_13">
    <g id="patch_7">
     <path d="M 419.186937 102.337163 
L 533.286938 102.337163 
Q 537.286938 102.337163 537.286938 98.337163 
L 537.286938 55.0656 
Q 537.286938 51.0656 533.286938 51.0656 
L 419.186937 51.0656 
Q 415.186937 51.0656 415.186937 55.0656 
L 415.186937 98.337163 
Q 415.186937 102.337163 419.186937 102.337163 
z
" style="fill: #ffffff; opacity: 0.5; stroke: #000000; stroke-linejoin: miter"/>
    </g>
    <!-- Summary -->
    <g transform="translate(419.186937 62.664038) scale(0.1 -0.1)">
     <defs>
      <path id="DejaVuSans-53" d="M 3425 4513 
L 3425 3897 
Q 3066 4069 2747 4153 
Q 2428 4238 2131 4238 
Q 1616 4238 1336 4038 
Q 1056 3838 1056 3469 
Q 1056 3159 1242 3001 
Q 1428 2844 1947 2747 
L 2328 2669 
Q 3034 2534 3370 2195 
Q 3706 1856 3706 1288 
Q 3706 609 3251 259 
Q 2797 -91 1919 -91 
Q 1588 -91 1214 -16 
Q 841 59 441 206 
L 441 856 
Q 825 641 1194 531 
Q 1563 422 1919 422 
Q 2459 422 2753 634 
Q 3047 847 3047 1241 
Q 3047 1584 2836 1778 
Q 2625 1972 2144 2069 
L 1759 2144 
Q 1053 2284 737 2584 
Q 422 2884 422 3419 
Q 422 4038 858 4394 
Q 1294 4750 2059 4750 
Q 2388 4750 2728 4690 
Q 3069 4631 3425 4513 
z
" transform="scale(0.015625)"/>
      <path id="DejaVuSans-75" d="M 544 1381 
L 544 3500 
L 1119 3500 
L 1119 1403 
Q 1119 906 1312 657 
Q 1506 409 1894 409 
Q 2359 409 2629 706 
Q 2900 1003 2900 1516 
L 2900 3500 
L 3475 3500 
L 3475 0 
L 2900 0 
L 2900 538 
Q 2691 219 2414 64 
Q 2138 -91 1772 -91 
Q 1169 -91 856 284 
Q 544 659 544 1381 
z
M 1991 3584 
L 1991 3584 
z
" transform="scale(0.015625)"/>
      <path id="DejaVuSans-61" d="M 2194 1759 
Q 1497 1759 1228 1600 
Q 959 1441 959 1056 
Q 959 750 1161 570 
Q 1363 391 1709 391 
Q 2188 391 2477 730 
Q 2766 1069 2766 1631 
L 2766 1759 
L 2194 1759 
z
M 3341 1997 
L 3341 0 
L 2766 0 
L 2766 531 
Q 2569 213 2275 61 
Q 1981 -91 1556 -91 
Q 1019 -91 701 211 
Q 384 513 384 1019 
Q 384 1609 779 1909 
Q 1175 2209 1959 2209 
L 2766 2209 
L 2766 2266 
Q 2766 2663 2505 2880 
Q 2244 3097 1772 3097 
Q 1472 3097 1187 3025 
Q 903 2953 641 2809 
L 641 3341 
Q 956 3463 1253 3523 
Q 1550 3584 1831 3584 
Q 2591 3584 2966 3190 
Q 3341 2797 3341 1997 
z
" transform="scale(0.015625)"/>
      <path id="DejaVuSans-72" d="M 2631 2963 
Q 2534 3019 2420 3045 
Q 2306 3072 2169 3072 
Q 1681 3072 1420 2755 
Q 1159 2438 1159 1844 
L 1159 0 
L 581 0 
L 581 3500 
L 1159 3500 
L 1159 2956 
Q 1341 3275 1631 3429 
Q 1922 3584 2338 3584 
Q 2397 3584 2469 3576 
Q 2541 3569 2628 3553 
L 2631 2963 
z
" transform="scale(0.015625)"/>
      <path id="DejaVuSans-79" d="M 2059 -325 
Q 1816 -950 1584 -1140 
Q 1353 -1331 966 -1331 
L 506 -1331 
L 506 -850 
L 844 -850 
Q 1081 -850 1212 -737 
Q 1344 -625 1503 -206 
L 1606 56 
L 191 3500 
L 800 3500 
L 1894 763 
L 2988 3500 
L 3597 3500 
L 2059 -325 
z
" transform="scale(0.015625)"/>
     </defs>
     <use xlink:href="#DejaVuSans-53"/>
     <use xlink:href="#DejaVuSans-75" x="63.476562"/>
     <use xlink:href="#DejaVuSans-6d" x="126.855469"/>
     <use xlink:href="#DejaVuSans-6d" x="224.267578"/>
     <use xlink:href="#DejaVuSans-61" x="321.679688"/>
     <use xlink:href="#DejaVuSans-72" x="382.958984"/>
     <use xlink:href="#DejaVuSans-79" x="424.072266"/>
    </g>
    <!-- $Q_I$: 1.2e+02$\pm$1.5e+05  -->
    <g transform="translate(419.186937 73.86185) scale(0.1 -0.1)">
     <defs>
      <path id="DejaVuSans-Oblique-51" d="M 2309 -84 
Q 2275 -88 2237 -89 
Q 2200 -91 2125 -91 
Q 1250 -91 756 411 
Q 263 913 263 1797 
Q 263 2319 452 2844 
Q 641 3369 978 3788 
Q 1369 4269 1858 4509 
Q 2347 4750 2938 4750 
Q 3794 4750 4287 4245 
Q 4781 3741 4781 2869 
Q 4781 1928 4265 1147 
Q 3750 366 2919 44 
L 3553 -825 
L 2847 -825 
L 2309 -84 
z
M 2919 4238 
Q 2400 4238 2003 3986 
Q 1606 3734 1313 3219 
Q 1125 2891 1026 2522 
Q 928 2153 928 1778 
Q 928 1128 1239 775 
Q 1550 422 2119 422 
Q 2631 422 3032 676 
Q 3434 931 3719 1434 
Q 3909 1772 4009 2142 
Q 4109 2513 4109 2881 
Q 4109 3528 3796 3883 
Q 3484 4238 2919 4238 
z
" transform="scale(0.015625)"/>
      <path id="DejaVuSans-Oblique-49" d="M 1081 4666 
L 1716 4666 
L 806 0 
L 172 0 
L 1081 4666 
z
" transform="scale(0.015625)"/>
      <path id="DejaVuSans-3a" d="M 750 794 
L 1409 794 
L 1409 0 
L 750 0 
L 750 794 
z
M 750 3309 
L 1409 3309 
L 1409 2516 
L 750 2516 
L 750 3309 
z
" transform="scale(0.015625)"/>
      <path id="DejaVuSans-2e" d="M 684 794 
L 1344 794 
L 1344 0 
L 684 0 
L 684 794 
z
" transform="scale(0.015625)"/>
      <path id="DejaVuSans-2b" d="M 2944 4013 
L 2944 2272 
L 4684 2272 
L 4684 1741 
L 2944 1741 
L 2944 0 
L 2419 0 
L 2419 1741 
L 678 1741 
L 678 2272 
L 2419 2272 
L 2419 4013 
L 2944 4013 
z
" transform="scale(0.015625)"/>
      <path id="DejaVuSans-b1" d="M 2944 4013 
L 2944 2803 
L 4684 2803 
L 4684 2272 
L 2944 2272 
L 2944 1063 
L 2419 1063 
L 2419 2272 
L 678 2272 
L 678 2803 
L 2419 2803 
L 2419 4013 
L 2944 4013 
z
M 678 531 
L 4684 531 
L 4684 0 
L 678 0 
L 678 531 
z
" transform="scale(0.015625)"/>
     </defs>
     <use xlink:href="#DejaVuSans-Oblique-51" transform="translate(0 0.78125)"/>
     <use xlink:href="#DejaVuSans-Oblique-49" transform="translate(78.710938 -15.625) scale(0.7)"/>
     <use xlink:href="#DejaVuSans-3a" transform="translate(102.089844 0.78125)"/>
     <use xlink:href="#DejaVuSans-20" transform="translate(135.78125 0.78125)"/>
     <use xlink:href="#DejaVuSans-31" transform="translate(167.568359 0.78125)"/>
     <use xlink:href="#DejaVuSans-2e" transform="translate(231.191406 0.78125)"/>
     <use xlink:href="#DejaVuSans-32" transform="translate(257.478516 0.78125)"/>
     <use xlink:href="#DejaVuSans-65" transform="translate(321.101562 0.78125)"/>
     <use xlink:href="#DejaVuSans-2b" transform="translate(382.625 0.78125)"/>
     <use xlink:href="#DejaVuSans-30" transform="translate(466.414062 0.78125)"/>
     <use xlink:href="#DejaVuSans-32" transform="translate(530.037109 0.78125)"/>
     <use xlink:href="#DejaVuSans-b1" transform="translate(593.660156 0.78125)"/>
     <use xlink:href="#DejaVuSans-31" transform="translate(677.449219 0.78125)"/>
     <use xlink:href="#DejaVuSans-2e" transform="translate(741.072266 0.78125)"/>
     <use xlink:href="#DejaVuSans-35" transform="translate(772.859375 0.78125)"/>
     <use xlink:href="#DejaVuSans-65" transform="translate(836.482422 0.78125)"/>
     <use xlink:href="#DejaVuSans-2b" transform="translate(898.005859 0.78125)"/>
     <use xlink:href="#DejaVuSans-30" transform="translate(981.794922 0.78125)"/>
     <use xlink:href="#DejaVuSans-35" transform="translate(1045.417969 0.78125)"/>
     <use xlink:href="#DejaVuSans-20" transform="translate(1109.041016 0.78125)"/>
    </g>
    <!-- $Q_C$: 1.5$\pm$8.8e+03 M -->
    <g transform="translate(419.186937 85.059663) scale(0.1 -0.1)">
     <defs>
      <path id="DejaVuSans-Oblique-43" d="M 4447 4306 
L 4319 3641 
Q 4019 3944 3683 4091 
Q 3347 4238 2956 4238 
Q 2422 4238 2017 3981 
Q 1613 3725 1319 3200 
Q 1131 2863 1032 2486 
Q 934 2109 934 1728 
Q 934 1091 1264 756 
Q 1594 422 2222 422 
Q 2656 422 3056 561 
Q 3456 700 3834 978 
L 3688 231 
Q 3316 72 2936 -9 
Q 2556 -91 2175 -91 
Q 1278 -91 773 396 
Q 269 884 269 1753 
Q 269 2309 461 2846 
Q 653 3384 1013 3828 
Q 1394 4300 1883 4525 
Q 2372 4750 3022 4750 
Q 3422 4750 3780 4639 
Q 4138 4528 4447 4306 
z
" transform="scale(0.015625)"/>
      <path id="DejaVuSans-38" d="M 2034 2216 
Q 1584 2216 1326 1975 
Q 1069 1734 1069 1313 
Q 1069 891 1326 650 
Q 1584 409 2034 409 
Q 2484 409 2743 651 
Q 3003 894 3003 1313 
Q 3003 1734 2745 1975 
Q 2488 2216 2034 2216 
z
M 1403 2484 
Q 997 2584 770 2862 
Q 544 3141 544 3541 
Q 544 4100 942 4425 
Q 1341 4750 2034 4750 
Q 2731 4750 3128 4425 
Q 3525 4100 3525 3541 
Q 3525 3141 3298 2862 
Q 3072 2584 2669 2484 
Q 3125 2378 3379 2068 
Q 3634 1759 3634 1313 
Q 3634 634 3220 271 
Q 2806 -91 2034 -91 
Q 1263 -91 848 271 
Q 434 634 434 1313 
Q 434 1759 690 2068 
Q 947 2378 1403 2484 
z
M 1172 3481 
Q 1172 3119 1398 2916 
Q 1625 2713 2034 2713 
Q 2441 2713 2670 2916 
Q 2900 3119 2900 3481 
Q 2900 3844 2670 4047 
Q 2441 4250 2034 4250 
Q 1625 4250 1398 4047 
Q 1172 3844 1172 3481 
z
" transform="scale(0.015625)"/>
      <path id="DejaVuSans-33" d="M 2597 2516 
Q 3050 2419 3304 2112 
Q 3559 1806 3559 1356 
Q 3559 666 3084 287 
Q 2609 -91 1734 -91 
Q 1441 -91 1130 -33 
Q 819 25 488 141 
L 488 750 
Q 750 597 1062 519 
Q 1375 441 1716 441 
Q 2309 441 2620 675 
Q 2931 909 2931 1356 
Q 2931 1769 2642 2001 
Q 2353 2234 1838 2234 
L 1294 2234 
L 1294 2753 
L 1863 2753 
Q 2328 2753 2575 2939 
Q 2822 3125 2822 3475 
Q 2822 3834 2567 4026 
Q 2313 4219 1838 4219 
Q 1578 4219 1281 4162 
Q 984 4106 628 3988 
L 628 4550 
Q 988 4650 1302 4700 
Q 1616 4750 1894 4750 
Q 2613 4750 3031 4423 
Q 3450 4097 3450 3541 
Q 3450 3153 3228 2886 
Q 3006 2619 2597 2516 
z
" transform="scale(0.015625)"/>
      <path id="DejaVuSans-4d" d="M 628 4666 
L 1569 4666 
L 2759 1491 
L 3956 4666 
L 4897 4666 
L 4897 0 
L 4281 0 
L 4281 4097 
L 3078 897 
L 2444 897 
L 1241 4097 
L 1241 0 
L 628 0 
L 628 4666 
z
" transform="scale(0.015625)"/>
     </defs>
     <use xlink:href="#DejaVuSans-Oblique-51" transform="translate(0 0.78125)"/>
     <use xlink:href="#DejaVuSans-Oblique-43" transform="translate(78.710938 -15.625) scale(0.7)"/>
     <use xlink:href="#DejaVuSans-3a" transform="translate(130.322266 0.78125)"/>
     <use xlink:href="#DejaVuSans-20" transform="translate(164.013672 0.78125)"/>
     <use xlink:href="#DejaVuSans-31" transform="translate(195.800781 0.78125)"/>
     <use xlink:href="#DejaVuSans-2e" transform="translate(259.423828 0.78125)"/>
     <use xlink:href="#DejaVuSans-35" transform="translate(291.210938 0.78125)"/>
     <use xlink:href="#DejaVuSans-b1" transform="translate(354.833984 0.78125)"/>
     <use xlink:href="#DejaVuSans-38" transform="translate(438.623047 0.78125)"/>
     <use xlink:href="#DejaVuSans-2e" transform="translate(502.246094 0.78125)"/>
     <use xlink:href="#DejaVuSans-38" transform="translate(531.408203 0.78125)"/>
     <use xlink:href="#DejaVuSans-65" transform="translate(595.03125 0.78125)"/>
     <use xlink:href="#DejaVuSans-2b" transform="translate(656.554688 0.78125)"/>
     <use xlink:href="#DejaVuSans-30" transform="translate(740.34375 0.78125)"/>
     <use xlink:href="#DejaVuSans-33" transform="translate(803.966797 0.78125)"/>
     <use xlink:href="#DejaVuSans-20" transform="translate(867.589844 0.78125)"/>
     <use xlink:href="#DejaVuSans-4d" transform="translate(899.376953 0.78125)"/>
    </g>
    <!-- $f_{res}$: 6$\pm$28 GHz -->
    <g transform="translate(419.186937 96.257475) scale(0.1 -0.1)">
     <defs>
      <path id="DejaVuSans-Oblique-66" d="M 3059 4863 
L 2969 4384 
L 2419 4384 
Q 2106 4384 1964 4261 
Q 1822 4138 1753 3809 
L 1691 3500 
L 2638 3500 
L 2553 3053 
L 1606 3053 
L 1013 0 
L 434 0 
L 1031 3053 
L 481 3053 
L 563 3500 
L 1113 3500 
L 1159 3744 
Q 1278 4363 1576 4613 
Q 1875 4863 2516 4863 
L 3059 4863 
z
" transform="scale(0.015625)"/>
      <path id="DejaVuSans-Oblique-72" d="M 2853 2969 
Q 2766 3016 2653 3041 
Q 2541 3066 2413 3066 
Q 1953 3066 1609 2717 
Q 1266 2369 1153 1784 
L 800 0 
L 225 0 
L 909 3500 
L 1484 3500 
L 1375 2956 
Q 1603 3259 1920 3421 
Q 2238 3584 2597 3584 
Q 2691 3584 2781 3573 
Q 2872 3563 2963 3538 
L 2853 2969 
z
" transform="scale(0.015625)"/>
      <path id="DejaVuSans-Oblique-65" d="M 3078 2063 
Q 3088 2113 3092 2166 
Q 3097 2219 3097 2272 
Q 3097 2653 2873 2875 
Q 2650 3097 2266 3097 
Q 1838 3097 1509 2826 
Q 1181 2556 1013 2059 
L 3078 2063 
z
M 3578 1613 
L 903 1613 
Q 884 1494 878 1425 
Q 872 1356 872 1306 
Q 872 872 1139 634 
Q 1406 397 1894 397 
Q 2269 397 2603 481 
Q 2938 566 3225 728 
L 3116 159 
Q 2806 34 2476 -28 
Q 2147 -91 1806 -91 
Q 1078 -91 686 257 
Q 294 606 294 1247 
Q 294 1794 489 2264 
Q 684 2734 1063 3103 
Q 1306 3334 1642 3459 
Q 1978 3584 2356 3584 
Q 2950 3584 3301 3228 
Q 3653 2872 3653 2272 
Q 3653 2128 3634 1964 
Q 3616 1800 3578 1613 
z
" transform="scale(0.015625)"/>
      <path id="DejaVuSans-Oblique-73" d="M 3200 3397 
L 3091 2853 
Q 2863 2978 2609 3040 
Q 2356 3103 2088 3103 
Q 1634 3103 1373 2948 
Q 1113 2794 1113 2528 
Q 1113 2219 1719 2053 
Q 1766 2041 1788 2034 
L 1972 1978 
Q 2547 1819 2739 1644 
Q 2931 1469 2931 1166 
Q 2931 609 2489 259 
Q 2047 -91 1331 -91 
Q 1053 -91 747 -37 
Q 441 16 72 128 
L 184 722 
Q 500 559 806 475 
Q 1113 391 1394 391 
Q 1816 391 2080 572 
Q 2344 753 2344 1031 
Q 2344 1331 1650 1516 
L 1591 1531 
L 1394 1581 
Q 956 1697 753 1886 
Q 550 2075 550 2369 
Q 550 2928 970 3256 
Q 1391 3584 2113 3584 
Q 2397 3584 2667 3537 
Q 2938 3491 3200 3397 
z
" transform="scale(0.015625)"/>
      <path id="DejaVuSans-36" d="M 2113 2584 
Q 1688 2584 1439 2293 
Q 1191 2003 1191 1497 
Q 1191 994 1439 701 
Q 1688 409 2113 409 
Q 2538 409 2786 701 
Q 3034 994 3034 1497 
Q 3034 2003 2786 2293 
Q 2538 2584 2113 2584 
z
M 3366 4563 
L 3366 3988 
Q 3128 4100 2886 4159 
Q 2644 4219 2406 4219 
Q 1781 4219 1451 3797 
Q 1122 3375 1075 2522 
Q 1259 2794 1537 2939 
Q 1816 3084 2150 3084 
Q 2853 3084 3261 2657 
Q 3669 2231 3669 1497 
Q 3669 778 3244 343 
Q 2819 -91 2113 -91 
Q 1303 -91 875 529 
Q 447 1150 447 2328 
Q 447 3434 972 4092 
Q 1497 4750 2381 4750 
Q 2619 4750 2861 4703 
Q 3103 4656 3366 4563 
z
" transform="scale(0.015625)"/>
      <path id="DejaVuSans-47" d="M 3809 666 
L 3809 1919 
L 2778 1919 
L 2778 2438 
L 4434 2438 
L 4434 434 
Q 4069 175 3628 42 
Q 3188 -91 2688 -91 
Q 1594 -91 976 548 
Q 359 1188 359 2328 
Q 359 3472 976 4111 
Q 1594 4750 2688 4750 
Q 3144 4750 3555 4637 
Q 3966 4525 4313 4306 
L 4313 3634 
Q 3963 3931 3569 4081 
Q 3175 4231 2741 4231 
Q 1884 4231 1454 3753 
Q 1025 3275 1025 2328 
Q 1025 1384 1454 906 
Q 1884 428 2741 428 
Q 3075 428 3337 486 
Q 3600 544 3809 666 
z
" transform="scale(0.015625)"/>
      <path id="DejaVuSans-48" d="M 628 4666 
L 1259 4666 
L 1259 2753 
L 3553 2753 
L 3553 4666 
L 4184 4666 
L 4184 0 
L 3553 0 
L 3553 2222 
L 1259 2222 
L 1259 0 
L 628 0 
L 628 4666 
z
" transform="scale(0.015625)"/>
      <path id="DejaVuSans-7a" d="M 353 3500 
L 3084 3500 
L 3084 2975 
L 922 459 
L 3084 459 
L 3084 0 
L 275 0 
L 275 525 
L 2438 3041 
L 353 3041 
L 353 3500 
z
" transform="scale(0.015625)"/>
     </defs>
     <use xlink:href="#DejaVuSans-Oblique-66" transform="translate(0 0.015625)"/>
     <use xlink:href="#DejaVuSans-Oblique-72" transform="translate(35.205078 -16.390625) scale(0.7)"/>
     <use xlink:href="#DejaVuSans-Oblique-65" transform="translate(63.984375 -16.390625) scale(0.7)"/>
     <use xlink:href="#DejaVuSans-Oblique-73" transform="translate(107.050781 -16.390625) scale(0.7)"/>
     <use xlink:href="#DejaVuSans-3a" transform="translate(146.254883 0.015625)"/>
     <use xlink:href="#DejaVuSans-20" transform="translate(179.946289 0.015625)"/>
     <use xlink:href="#DejaVuSans-36" transform="translate(211.733398 0.015625)"/>
     <use xlink:href="#DejaVuSans-b1" transform="translate(275.356445 0.015625)"/>
     <use xlink:href="#DejaVuSans-32" transform="translate(359.145508 0.015625)"/>
     <use xlink:href="#DejaVuSans-38" transform="translate(422.768555 0.015625)"/>
     <use xlink:href="#DejaVuSans-20" transform="translate(486.391602 0.015625)"/>
     <use xlink:href="#DejaVuSans-47" transform="translate(518.178711 0.015625)"/>
     <use xlink:href="#DejaVuSans-48" transform="translate(595.668945 0.015625)"/>
     <use xlink:href="#DejaVuSans-7a" transform="translate(670.864258 0.015625)"/>
    </g>
   </g>
  </g>
  <g id="text_14">
   <!-- S21 One-tone -->
   <g transform="translate(175.76 16.318125) scale(0.12 -0.12)">
    <defs>
     <path id="DejaVuSans-4f" d="M 2522 4238 
Q 1834 4238 1429 3725 
Q 1025 3213 1025 2328 
Q 1025 1447 1429 934 
Q 1834 422 2522 422 
Q 3209 422 3611 934 
Q 4013 1447 4013 2328 
Q 4013 3213 3611 3725 
Q 3209 4238 2522 4238 
z
M 2522 4750 
Q 3503 4750 4090 4092 
Q 4678 3434 4678 2328 
Q 4678 1225 4090 567 
Q 3503 -91 2522 -91 
Q 1538 -91 948 565 
Q 359 1222 359 2328 
Q 359 3434 948 4092 
Q 1538 4750 2522 4750 
z
" transform="scale(0.015625)"/>
     <path id="DejaVuSans-6e" d="M 3513 2113 
L 3513 0 
L 2938 0 
L 2938 2094 
Q 2938 2591 2744 2837 
Q 2550 3084 2163 3084 
Q 1697 3084 1428 2787 
Q 1159 2491 1159 1978 
L 1159 0 
L 581 0 
L 581 3500 
L 1159 3500 
L 1159 2956 
Q 1366 3272 1645 3428 
Q 1925 3584 2291 3584 
Q 2894 3584 3203 3211 
Q 3513 2838 3513 2113 
z
" transform="scale(0.015625)"/>
     <path id="DejaVuSans-74" d="M 1172 4494 
L 1172 3500 
L 2356 3500 
L 2356 3053 
L 1172 3053 
L 1172 1153 
Q 1172 725 1289 603 
Q 1406 481 1766 481 
L 2356 481 
L 2356 0 
L 1766 0 
Q 1100 0 847 248 
Q 594 497 594 1153 
L 594 3053 
L 172 3053 
L 172 3500 
L 594 3500 
L 594 4494 
L 1172 4494 
z
" transform="scale(0.015625)"/>
     <path id="DejaVuSans-6f" d="M 1959 3097 
Q 1497 3097 1228 2736 
Q 959 2375 959 1747 
Q 959 1119 1226 758 
Q 1494 397 1959 397 
Q 2419 397 2687 759 
Q 2956 1122 2956 1747 
Q 2956 2369 2687 2733 
Q 2419 3097 1959 3097 
z
M 1959 3584 
Q 2709 3584 3137 3096 
Q 3566 2609 3566 1747 
Q 3566 888 3137 398 
Q 2709 -91 1959 -91 
Q 1206 -91 779 398 
Q 353 888 353 1747 
Q 353 2609 779 3096 
Q 1206 3584 1959 3584 
z
" transform="scale(0.015625)"/>
    </defs>
    <use xlink:href="#DejaVuSans-53"/>
    <use xlink:href="#DejaVuSans-32" x="63.476562"/>
    <use xlink:href="#DejaVuSans-31" x="127.099609"/>
    <use xlink:href="#DejaVuSans-20" x="190.722656"/>
    <use xlink:href="#DejaVuSans-4f" x="222.509766"/>
    <use xlink:href="#DejaVuSans-6e" x="301.220703"/>
    <use xlink:href="#DejaVuSans-65" x="364.599609"/>
    <use xlink:href="#DejaVuSans-2d" x="426.123047"/>
    <use xlink:href="#DejaVuSans-74" x="462.207031"/>
    <use xlink:href="#DejaVuSans-6f" x="501.416016"/>
    <use xlink:href="#DejaVuSans-6e" x="562.597656"/>
    <use xlink:href="#DejaVuSans-65" x="625.976562"/>
   </g>
   <!-- tuid: 20240220-145838-432-63a8bf -->
   <g transform="translate(109.01 29.7555) scale(0.12 -0.12)">
    <defs>
     <path id="DejaVuSans-69" d="M 603 3500 
L 1178 3500 
L 1178 0 
L 603 0 
L 603 3500 
z
M 603 4863 
L 1178 4863 
L 1178 4134 
L 603 4134 
L 603 4863 
z
" transform="scale(0.015625)"/>
     <path id="DejaVuSans-64" d="M 2906 2969 
L 2906 4863 
L 3481 4863 
L 3481 0 
L 2906 0 
L 2906 525 
Q 2725 213 2448 61 
Q 2172 -91 1784 -91 
Q 1150 -91 751 415 
Q 353 922 353 1747 
Q 353 2572 751 3078 
Q 1150 3584 1784 3584 
Q 2172 3584 2448 3432 
Q 2725 3281 2906 2969 
z
M 947 1747 
Q 947 1113 1208 752 
Q 1469 391 1925 391 
Q 2381 391 2643 752 
Q 2906 1113 2906 1747 
Q 2906 2381 2643 2742 
Q 2381 3103 1925 3103 
Q 1469 3103 1208 2742 
Q 947 2381 947 1747 
z
" transform="scale(0.015625)"/>
     <path id="DejaVuSans-34" d="M 2419 4116 
L 825 1625 
L 2419 1625 
L 2419 4116 
z
M 2253 4666 
L 3047 4666 
L 3047 1625 
L 3713 1625 
L 3713 1100 
L 3047 1100 
L 3047 0 
L 2419 0 
L 2419 1100 
L 313 1100 
L 313 1709 
L 2253 4666 
z
" transform="scale(0.015625)"/>
     <path id="DejaVuSans-62" d="M 3116 1747 
Q 3116 2381 2855 2742 
Q 2594 3103 2138 3103 
Q 1681 3103 1420 2742 
Q 1159 2381 1159 1747 
Q 1159 1113 1420 752 
Q 1681 391 2138 391 
Q 2594 391 2855 752 
Q 3116 1113 3116 1747 
z
M 1159 2969 
Q 1341 3281 1617 3432 
Q 1894 3584 2278 3584 
Q 2916 3584 3314 3078 
Q 3713 2572 3713 1747 
Q 3713 922 3314 415 
Q 2916 -91 2278 -91 
Q 1894 -91 1617 61 
Q 1341 213 1159 525 
L 1159 0 
L 581 0 
L 581 4863 
L 1159 4863 
L 1159 2969 
z
" transform="scale(0.015625)"/>
     <path id="DejaVuSans-66" d="M 2375 4863 
L 2375 4384 
L 1825 4384 
Q 1516 4384 1395 4259 
Q 1275 4134 1275 3809 
L 1275 3500 
L 2222 3500 
L 2222 3053 
L 1275 3053 
L 1275 0 
L 697 0 
L 697 3053 
L 147 3053 
L 147 3500 
L 697 3500 
L 697 3744 
Q 697 4328 969 4595 
Q 1241 4863 1831 4863 
L 2375 4863 
z
" transform="scale(0.015625)"/>
    </defs>
    <use xlink:href="#DejaVuSans-74"/>
    <use xlink:href="#DejaVuSans-75" x="39.208984"/>
    <use xlink:href="#DejaVuSans-69" x="102.587891"/>
    <use xlink:href="#DejaVuSans-64" x="130.371094"/>
    <use xlink:href="#DejaVuSans-3a" x="193.847656"/>
    <use xlink:href="#DejaVuSans-20" x="227.539062"/>
    <use xlink:href="#DejaVuSans-32" x="259.326172"/>
    <use xlink:href="#DejaVuSans-30" x="322.949219"/>
    <use xlink:href="#DejaVuSans-32" x="386.572266"/>
    <use xlink:href="#DejaVuSans-34" x="450.195312"/>
    <use xlink:href="#DejaVuSans-30" x="513.818359"/>
    <use xlink:href="#DejaVuSans-32" x="577.441406"/>
    <use xlink:href="#DejaVuSans-32" x="641.064453"/>
    <use xlink:href="#DejaVuSans-30" x="704.6875"/>
    <use xlink:href="#DejaVuSans-2d" x="768.310547"/>
    <use xlink:href="#DejaVuSans-31" x="804.394531"/>
    <use xlink:href="#DejaVuSans-34" x="868.017578"/>
    <use xlink:href="#DejaVuSans-35" x="931.640625"/>
    <use xlink:href="#DejaVuSans-38" x="995.263672"/>
    <use xlink:href="#DejaVuSans-33" x="1058.886719"/>
    <use xlink:href="#DejaVuSans-38" x="1122.509766"/>
    <use xlink:href="#DejaVuSans-2d" x="1186.132812"/>
    <use xlink:href="#DejaVuSans-34" x="1222.216797"/>
    <use xlink:href="#DejaVuSans-33" x="1285.839844"/>
    <use xlink:href="#DejaVuSans-32" x="1349.462891"/>
    <use xlink:href="#DejaVuSans-2d" x="1413.085938"/>
    <use xlink:href="#DejaVuSans-36" x="1449.169922"/>
    <use xlink:href="#DejaVuSans-33" x="1512.792969"/>
    <use xlink:href="#DejaVuSans-61" x="1576.416016"/>
    <use xlink:href="#DejaVuSans-38" x="1637.695312"/>
    <use xlink:href="#DejaVuSans-62" x="1701.318359"/>
    <use xlink:href="#DejaVuSans-66" x="1764.794922"/>
   </g>
  </g>
 </g>
 <defs>
  <clipPath id="p78f8411c07">
   <rect x="44.210938" y="41.76" width="357.12" height="266.112"/>
  </clipPath>
 </defs>
</svg>
