<?xml version="1.0" encoding="utf-8" standalone="no"?>
<!DOCTYPE svg PUBLIC "-//W3C//DTD SVG 1.1//EN"
  "http://www.w3.org/Graphics/SVG/1.1/DTD/svg11.dtd">
<svg xmlns:xlink="http://www.w3.org/1999/xlink" width="556.3885pt" height="345.42825pt" viewBox="0 0 556.3885 345.42825" xmlns="http://www.w3.org/2000/svg" version="1.1">
 <metadata>
  <rdf:RDF xmlns:dc="http://purl.org/dc/elements/1.1/" xmlns:cc="http://creativecommons.org/ns#" xmlns:rdf="http://www.w3.org/1999/02/22-rdf-syntax-ns#">
   <cc:Work>
    <dc:type rdf:resource="http://purl.org/dc/dcmitype/StillImage"/>
    <dc:date>2024-02-20T14:59:12.288568</dc:date>
    <dc:format>image/svg+xml</dc:format>
    <dc:creator>
     <cc:Agent>
      <dc:title>Matplotlib v3.8.2, https://matplotlib.org/</dc:title>
     </cc:Agent>
    </dc:creator>
   </cc:Work>
  </rdf:RDF>
 </metadata>
 <defs>
  <style type="text/css">*{stroke-linejoin: round; stroke-linecap: butt}</style>
 </defs>
 <g id="figure_1">
  <g id="patch_1">
   <path d="M 0 345.42825 
L 556.3885 345.42825 
L 556.3885 -0 
L 0 -0 
L 0 345.42825 
z
" style="fill: none; opacity: 0"/>
  </g>
  <g id="axes_1">
   <g id="patch_2">
    <path d="M 60.1125 162.72 
L 417.2325 162.72 
L 417.2325 41.76 
L 60.1125 41.76 
z
" style="fill: #ffffff"/>
   </g>
   <g id="matplotlib.axis_1">
    <g id="xtick_1">
     <g id="line2d_1">
      <defs>
       <path id="mc297276665" d="M 0 0 
L 0 3.5 
" style="stroke: #000000; stroke-width: 0.8"/>
      </defs>
      <g>
       <use xlink:href="#mc297276665" x="108.810682" y="162.72" style="stroke: #000000; stroke-width: 0.8"/>
      </g>
     </g>
    </g>
    <g id="xtick_2">
     <g id="line2d_2">
      <g>
       <use xlink:href="#mc297276665" x="173.741591" y="162.72" style="stroke: #000000; stroke-width: 0.8"/>
      </g>
     </g>
    </g>
    <g id="xtick_3">
     <g id="line2d_3">
      <g>
       <use xlink:href="#mc297276665" x="238.6725" y="162.72" style="stroke: #000000; stroke-width: 0.8"/>
      </g>
     </g>
    </g>
    <g id="xtick_4">
     <g id="line2d_4">
      <g>
       <use xlink:href="#mc297276665" x="303.603409" y="162.72" style="stroke: #000000; stroke-width: 0.8"/>
      </g>
     </g>
    </g>
    <g id="xtick_5">
     <g id="line2d_5">
      <g>
       <use xlink:href="#mc297276665" x="368.534318" y="162.72" style="stroke: #000000; stroke-width: 0.8"/>
      </g>
     </g>
    </g>
   </g>
   <g id="matplotlib.axis_2">
    <g id="ytick_1">
     <g id="line2d_6">
      <defs>
       <path id="md704da15f3" d="M 0 0 
L -3.5 0 
" style="stroke: #000000; stroke-width: 0.8"/>
      </defs>
      <g>
       <use xlink:href="#md704da15f3" x="60.1125" y="151.714826" style="stroke: #000000; stroke-width: 0.8"/>
      </g>
     </g>
     <g id="text_1">
      <!-- 10150 -->
      <g transform="translate(21.3 155.514045) scale(0.1 -0.1)">
       <defs>
        <path id="DejaVuSans-31" d="M 794 531 
L 1825 531 
L 1825 4091 
L 703 3866 
L 703 4441 
L 1819 4666 
L 2450 4666 
L 2450 531 
L 3481 531 
L 3481 0 
L 794 0 
L 794 531 
z
" transform="scale(0.015625)"/>
        <path id="DejaVuSans-30" d="M 2034 4250 
Q 1547 4250 1301 3770 
Q 1056 3291 1056 2328 
Q 1056 1369 1301 889 
Q 1547 409 2034 409 
Q 2525 409 2770 889 
Q 3016 1369 3016 2328 
Q 3016 3291 2770 3770 
Q 2525 4250 2034 4250 
z
M 2034 4750 
Q 2819 4750 3233 4129 
Q 3647 3509 3647 2328 
Q 3647 1150 3233 529 
Q 2819 -91 2034 -91 
Q 1250 -91 836 529 
Q 422 1150 422 2328 
Q 422 3509 836 4129 
Q 1250 4750 2034 4750 
z
" transform="scale(0.015625)"/>
        <path id="DejaVuSans-35" d="M 691 4666 
L 3169 4666 
L 3169 4134 
L 1269 4134 
L 1269 2991 
Q 1406 3038 1543 3061 
Q 1681 3084 1819 3084 
Q 2600 3084 3056 2656 
Q 3513 2228 3513 1497 
Q 3513 744 3044 326 
Q 2575 -91 1722 -91 
Q 1428 -91 1123 -41 
Q 819 9 494 109 
L 494 744 
Q 775 591 1075 516 
Q 1375 441 1709 441 
Q 2250 441 2565 725 
Q 2881 1009 2881 1497 
Q 2881 1984 2565 2268 
Q 2250 2553 1709 2553 
Q 1456 2553 1204 2497 
Q 953 2441 691 2322 
L 691 4666 
z
" transform="scale(0.015625)"/>
       </defs>
       <use xlink:href="#DejaVuSans-31"/>
       <use xlink:href="#DejaVuSans-30" x="63.623047"/>
       <use xlink:href="#DejaVuSans-31" x="127.246094"/>
       <use xlink:href="#DejaVuSans-35" x="190.869141"/>
       <use xlink:href="#DejaVuSans-30" x="254.492188"/>
      </g>
     </g>
    </g>
    <g id="ytick_2">
     <g id="line2d_7">
      <g>
       <use xlink:href="#md704da15f3" x="60.1125" y="114.574773" style="stroke: #000000; stroke-width: 0.8"/>
      </g>
     </g>
     <g id="text_2">
      <!-- 10200 -->
      <g transform="translate(21.3 118.373992) scale(0.1 -0.1)">
       <defs>
        <path id="DejaVuSans-32" d="M 1228 531 
L 3431 531 
L 3431 0 
L 469 0 
L 469 531 
Q 828 903 1448 1529 
Q 2069 2156 2228 2338 
Q 2531 2678 2651 2914 
Q 2772 3150 2772 3378 
Q 2772 3750 2511 3984 
Q 2250 4219 1831 4219 
Q 1534 4219 1204 4116 
Q 875 4013 500 3803 
L 500 4441 
Q 881 4594 1212 4672 
Q 1544 4750 1819 4750 
Q 2544 4750 2975 4387 
Q 3406 4025 3406 3419 
Q 3406 3131 3298 2873 
Q 3191 2616 2906 2266 
Q 2828 2175 2409 1742 
Q 1991 1309 1228 531 
z
" transform="scale(0.015625)"/>
       </defs>
       <use xlink:href="#DejaVuSans-31"/>
       <use xlink:href="#DejaVuSans-30" x="63.623047"/>
       <use xlink:href="#DejaVuSans-32" x="127.246094"/>
       <use xlink:href="#DejaVuSans-30" x="190.869141"/>
       <use xlink:href="#DejaVuSans-30" x="254.492188"/>
      </g>
     </g>
    </g>
    <g id="ytick_3">
     <g id="line2d_8">
      <g>
       <use xlink:href="#md704da15f3" x="60.1125" y="77.434721" style="stroke: #000000; stroke-width: 0.8"/>
      </g>
     </g>
     <g id="text_3">
      <!-- 10250 -->
      <g transform="translate(21.3 81.233939) scale(0.1 -0.1)">
       <use xlink:href="#DejaVuSans-31"/>
       <use xlink:href="#DejaVuSans-30" x="63.623047"/>
       <use xlink:href="#DejaVuSans-32" x="127.246094"/>
       <use xlink:href="#DejaVuSans-35" x="190.869141"/>
       <use xlink:href="#DejaVuSans-30" x="254.492188"/>
      </g>
     </g>
    </g>
    <g id="text_4">
     <!-- $|S_{21}|$ [μV] -->
     <g transform="translate(14.9 125.49) rotate(-90) scale(0.1 -0.1)">
      <defs>
       <path id="DejaVuSans-7c" d="M 1344 4891 
L 1344 -1509 
L 813 -1509 
L 813 4891 
L 1344 4891 
z
" transform="scale(0.015625)"/>
       <path id="DejaVuSans-Oblique-53" d="M 3859 4513 
L 3738 3897 
Q 3422 4066 3111 4152 
Q 2800 4238 2509 4238 
Q 1944 4238 1609 3991 
Q 1275 3744 1275 3334 
Q 1275 3109 1398 2989 
Q 1522 2869 2034 2731 
L 2413 2638 
Q 3053 2472 3303 2217 
Q 3553 1963 3553 1503 
Q 3553 797 2998 353 
Q 2444 -91 1538 -91 
Q 1166 -91 791 -17 
Q 416 56 38 206 
L 166 856 
Q 513 641 861 531 
Q 1209 422 1556 422 
Q 2147 422 2503 684 
Q 2859 947 2859 1369 
Q 2859 1650 2717 1795 
Q 2575 1941 2106 2059 
L 1728 2156 
Q 1081 2325 845 2545 
Q 609 2766 609 3163 
Q 609 3859 1145 4304 
Q 1681 4750 2541 4750 
Q 2875 4750 3203 4690 
Q 3531 4631 3859 4513 
z
" transform="scale(0.015625)"/>
       <path id="DejaVuSans-20" transform="scale(0.015625)"/>
       <path id="DejaVuSans-5b" d="M 550 4863 
L 1875 4863 
L 1875 4416 
L 1125 4416 
L 1125 -397 
L 1875 -397 
L 1875 -844 
L 550 -844 
L 550 4863 
z
" transform="scale(0.015625)"/>
       <path id="DejaVuSans-3bc" d="M 544 -1331 
L 544 3500 
L 1119 3500 
L 1119 1325 
Q 1119 872 1334 640 
Q 1550 409 1972 409 
Q 2434 409 2667 671 
Q 2900 934 2900 1459 
L 2900 3500 
L 3475 3500 
L 3475 806 
Q 3475 619 3529 530 
Q 3584 441 3700 441 
Q 3728 441 3778 458 
Q 3828 475 3916 513 
L 3916 50 
Q 3788 -22 3673 -56 
Q 3559 -91 3450 -91 
Q 3234 -91 3106 31 
Q 2978 153 2931 403 
Q 2775 156 2548 32 
Q 2322 -91 2016 -91 
Q 1697 -91 1473 31 
Q 1250 153 1119 397 
L 1119 -1331 
L 544 -1331 
z
" transform="scale(0.015625)"/>
       <path id="DejaVuSans-56" d="M 1831 0 
L 50 4666 
L 709 4666 
L 2188 738 
L 3669 4666 
L 4325 4666 
L 2547 0 
L 1831 0 
z
" transform="scale(0.015625)"/>
       <path id="DejaVuSans-5d" d="M 1947 4863 
L 1947 -844 
L 622 -844 
L 622 -397 
L 1369 -397 
L 1369 4416 
L 622 4416 
L 622 4863 
L 1947 4863 
z
" transform="scale(0.015625)"/>
      </defs>
      <use xlink:href="#DejaVuSans-7c" transform="translate(0 0.578125)"/>
      <use xlink:href="#DejaVuSans-Oblique-53" transform="translate(33.691406 0.578125)"/>
      <use xlink:href="#DejaVuSans-32" transform="translate(97.167969 -15.828125) scale(0.7)"/>
      <use xlink:href="#DejaVuSans-31" transform="translate(141.704102 -15.828125) scale(0.7)"/>
      <use xlink:href="#DejaVuSans-7c" transform="translate(188.974609 0.578125)"/>
      <use xlink:href="#DejaVuSans-20" transform="translate(222.666016 0.578125)"/>
      <use xlink:href="#DejaVuSans-5b" transform="translate(254.453125 0.578125)"/>
      <use xlink:href="#DejaVuSans-3bc" transform="translate(293.466797 0.578125)"/>
      <use xlink:href="#DejaVuSans-56" transform="translate(357.089844 0.578125)"/>
      <use xlink:href="#DejaVuSans-5d" transform="translate(425.498047 0.578125)"/>
     </g>
    </g>
   </g>
   <g id="line2d_9">
    <path d="M 76.345227 101.761566 
L 77.976657 102.847773 
L 79.608087 101.247289 
L 81.239517 78.06471 
L 82.870947 70.971041 
L 84.502377 119.756058 
L 86.133807 89.924325 
L 87.765236 108.807243 
L 89.396666 112.601906 
L 91.028096 140.149623 
L 92.659526 112.887849 
L 94.290956 129.939765 
L 95.922386 92.487649 
L 97.553816 100.14665 
L 99.185246 137.572315 
L 100.816675 67.481479 
L 102.448105 144.646537 
L 104.079535 151.296402 
L 105.710965 79.453366 
L 107.342395 93.34012 
L 108.973825 155.691579 
L 110.605255 121.240891 
L 112.236685 110.850346 
L 113.868114 86.60492 
L 115.499544 60.214098 
L 117.130974 113.862175 
L 118.762404 89.957139 
L 120.393834 146.978276 
L 122.025264 102.883616 
L 123.656694 104.212798 
L 125.288124 77.986012 
L 126.919553 104.892228 
L 128.550983 102.214856 
L 130.182413 137.923139 
L 131.813843 127.177109 
L 133.445273 129.796652 
L 135.076703 122.611473 
L 136.708133 134.539215 
L 138.339563 96.211115 
L 139.970992 80.957127 
L 141.602422 86.927228 
L 143.233852 157.221818 
L 144.865282 141.30321 
L 146.496712 108.914337 
L 148.128142 101.354302 
L 149.759572 79.854554 
L 151.391002 106.202547 
L 153.022431 96.419477 
L 154.653861 77.110051 
L 156.285291 123.726994 
L 157.916721 106.802752 
L 159.548151 124.921325 
L 161.179581 107.05814 
L 162.811011 132.271428 
L 164.442441 98.418374 
L 166.07387 120.364666 
L 167.7053 91.737146 
L 169.33673 83.262988 
L 170.96816 89.851153 
L 172.59959 93.602062 
L 175.86245 126.655248 
L 177.49388 92.791849 
L 179.12531 122.295306 
L 180.756739 118.903845 
L 182.388169 111.578403 
L 184.019599 121.538547 
L 185.651029 86.636536 
L 187.282459 74.723648 
L 188.913889 95.808157 
L 190.545319 106.555974 
L 192.176749 110.836655 
L 193.808178 111.565889 
L 195.439608 127.452773 
L 197.071038 87.131433 
L 198.702468 107.941531 
L 200.333898 137.008286 
L 201.965328 120.208625 
L 203.596758 133.326671 
L 205.228188 135.684745 
L 206.859617 117.642888 
L 208.491047 105.439142 
L 211.753907 130.261498 
L 213.385337 111.021834 
L 215.016767 102.965307 
L 216.648197 122.338801 
L 218.279627 109.161332 
L 219.911056 81.166901 
L 221.542486 124.188127 
L 223.173916 66.593112 
L 224.805346 79.589686 
L 226.436776 102.347667 
L 228.068206 105.153902 
L 229.699636 78.290433 
L 231.331066 96.416263 
L 232.962495 94.216207 
L 234.593925 149.534885 
L 236.225355 82.837866 
L 237.856785 80.662813 
L 239.488215 110.312414 
L 241.119645 117.582546 
L 242.751075 112.961623 
L 244.382505 94.356679 
L 246.013934 89.748765 
L 247.645364 75.491206 
L 249.276794 87.098407 
L 250.908224 103.944976 
L 252.539654 92.983998 
L 254.171084 114.319081 
L 255.802514 100.060918 
L 257.433944 93.761359 
L 259.065373 90.678522 
L 260.696803 132.451567 
L 262.328233 139.68482 
L 263.959663 89.885843 
L 265.591093 93.632135 
L 267.222523 114.73754 
L 268.853953 93.101847 
L 270.485383 83.369756 
L 272.116812 91.97299 
L 273.748242 71.532596 
L 275.379672 103.630077 
L 277.011102 122.300603 
L 278.642532 83.9705 
L 280.273962 88.417082 
L 281.905392 79.442493 
L 283.536822 84.237668 
L 285.168251 59.961353 
L 286.799681 89.681558 
L 288.431111 123.04435 
L 290.062541 113.120199 
L 291.693971 49.006048 
L 293.325401 86.903173 
L 294.956831 109.063868 
L 296.588261 108.606002 
L 298.21969 79.043202 
L 299.85112 106.514342 
L 301.48255 96.780501 
L 303.11398 67.630247 
L 304.74541 89.991992 
L 306.37684 106.21838 
L 308.00827 72.148501 
L 309.6397 47.258182 
L 311.27113 88.449284 
L 312.902559 83.639341 
L 314.533989 99.23919 
L 316.165419 75.371522 
L 317.796849 97.385163 
L 319.428279 81.405753 
L 321.059709 56.108851 
L 322.691139 114.201098 
L 324.322569 87.98254 
L 325.953998 79.296167 
L 327.585428 102.247316 
L 329.216858 148.4246 
L 330.848288 77.519812 
L 332.479718 99.382068 
L 334.111148 97.798699 
L 335.742578 52.434568 
L 337.374008 79.662041 
L 339.005437 98.176771 
L 340.636867 111.426198 
L 342.268297 87.812423 
L 343.899727 113.84654 
L 345.531157 76.979135 
L 347.162587 100.782532 
L 348.794017 105.848998 
L 350.425447 71.672385 
L 352.056876 128.957728 
L 353.688306 89.349371 
L 355.319736 76.618625 
L 356.951166 107.96005 
L 358.582596 109.00407 
L 360.214026 70.787029 
L 361.845456 80.208087 
L 363.476886 88.791043 
L 365.108315 84.91293 
L 366.739745 79.470394 
L 368.371175 96.346804 
L 370.002605 101.487572 
L 371.634035 96.833828 
L 373.265465 80.90631 
L 374.896895 126.78566 
L 378.159754 106.416201 
L 379.791184 67.613942 
L 381.422614 77.483408 
L 383.054044 121.001222 
L 384.685474 146.450976 
L 386.316904 90.355988 
L 387.948334 120.562763 
L 389.579764 146.362952 
L 391.211193 107.184675 
L 392.842623 156.575054 
L 394.474053 97.047325 
L 396.105483 89.121786 
L 397.736913 103.287032 
L 399.368343 110.176916 
L 400.999773 104.977407 
L 400.999773 104.977407 
" clip-path="url(#pe25143d633)" style="fill: none; stroke: #1f77b4; stroke-width: 1.5; stroke-linecap: square"/>
    <defs>
     <path id="ma8e88de30c" d="M 0 1.5 
C 0.397805 1.5 0.77937 1.341951 1.06066 1.06066 
C 1.341951 0.77937 1.5 0.397805 1.5 0 
C 1.5 -0.397805 1.341951 -0.77937 1.06066 -1.06066 
C 0.77937 -1.341951 0.397805 -1.5 0 -1.5 
C -0.397805 -1.5 -0.77937 -1.341951 -1.06066 -1.06066 
C -1.341951 -0.77937 -1.5 -0.397805 -1.5 0 
C -1.5 0.397805 -1.341951 0.77937 -1.06066 1.06066 
C -0.77937 1.341951 -0.397805 1.5 0 1.5 
z
" style="stroke: #1f77b4"/>
    </defs>
    <g clip-path="url(#pe25143d633)">
     <use xlink:href="#ma8e88de30c" x="76.345227" y="101.761566" style="fill: #1f77b4; stroke: #1f77b4"/>
     <use xlink:href="#ma8e88de30c" x="77.976657" y="102.847773" style="fill: #1f77b4; stroke: #1f77b4"/>
     <use xlink:href="#ma8e88de30c" x="79.608087" y="101.247289" style="fill: #1f77b4; stroke: #1f77b4"/>
     <use xlink:href="#ma8e88de30c" x="81.239517" y="78.06471" style="fill: #1f77b4; stroke: #1f77b4"/>
     <use xlink:href="#ma8e88de30c" x="82.870947" y="70.971041" style="fill: #1f77b4; stroke: #1f77b4"/>
     <use xlink:href="#ma8e88de30c" x="84.502377" y="119.756058" style="fill: #1f77b4; stroke: #1f77b4"/>
     <use xlink:href="#ma8e88de30c" x="86.133807" y="89.924325" style="fill: #1f77b4; stroke: #1f77b4"/>
     <use xlink:href="#ma8e88de30c" x="87.765236" y="108.807243" style="fill: #1f77b4; stroke: #1f77b4"/>
     <use xlink:href="#ma8e88de30c" x="89.396666" y="112.601906" style="fill: #1f77b4; stroke: #1f77b4"/>
     <use xlink:href="#ma8e88de30c" x="91.028096" y="140.149623" style="fill: #1f77b4; stroke: #1f77b4"/>
     <use xlink:href="#ma8e88de30c" x="92.659526" y="112.887849" style="fill: #1f77b4; stroke: #1f77b4"/>
     <use xlink:href="#ma8e88de30c" x="94.290956" y="129.939765" style="fill: #1f77b4; stroke: #1f77b4"/>
     <use xlink:href="#ma8e88de30c" x="95.922386" y="92.487649" style="fill: #1f77b4; stroke: #1f77b4"/>
     <use xlink:href="#ma8e88de30c" x="97.553816" y="100.14665" style="fill: #1f77b4; stroke: #1f77b4"/>
     <use xlink:href="#ma8e88de30c" x="99.185246" y="137.572315" style="fill: #1f77b4; stroke: #1f77b4"/>
     <use xlink:href="#ma8e88de30c" x="100.816675" y="67.481479" style="fill: #1f77b4; stroke: #1f77b4"/>
     <use xlink:href="#ma8e88de30c" x="102.448105" y="144.646537" style="fill: #1f77b4; stroke: #1f77b4"/>
     <use xlink:href="#ma8e88de30c" x="104.079535" y="151.296402" style="fill: #1f77b4; stroke: #1f77b4"/>
     <use xlink:href="#ma8e88de30c" x="105.710965" y="79.453366" style="fill: #1f77b4; stroke: #1f77b4"/>
     <use xlink:href="#ma8e88de30c" x="107.342395" y="93.34012" style="fill: #1f77b4; stroke: #1f77b4"/>
     <use xlink:href="#ma8e88de30c" x="108.973825" y="155.691579" style="fill: #1f77b4; stroke: #1f77b4"/>
     <use xlink:href="#ma8e88de30c" x="110.605255" y="121.240891" style="fill: #1f77b4; stroke: #1f77b4"/>
     <use xlink:href="#ma8e88de30c" x="112.236685" y="110.850346" style="fill: #1f77b4; stroke: #1f77b4"/>
     <use xlink:href="#ma8e88de30c" x="113.868114" y="86.60492" style="fill: #1f77b4; stroke: #1f77b4"/>
     <use xlink:href="#ma8e88de30c" x="115.499544" y="60.214098" style="fill: #1f77b4; stroke: #1f77b4"/>
     <use xlink:href="#ma8e88de30c" x="117.130974" y="113.862175" style="fill: #1f77b4; stroke: #1f77b4"/>
     <use xlink:href="#ma8e88de30c" x="118.762404" y="89.957139" style="fill: #1f77b4; stroke: #1f77b4"/>
     <use xlink:href="#ma8e88de30c" x="120.393834" y="146.978276" style="fill: #1f77b4; stroke: #1f77b4"/>
     <use xlink:href="#ma8e88de30c" x="122.025264" y="102.883616" style="fill: #1f77b4; stroke: #1f77b4"/>
     <use xlink:href="#ma8e88de30c" x="123.656694" y="104.212798" style="fill: #1f77b4; stroke: #1f77b4"/>
     <use xlink:href="#ma8e88de30c" x="125.288124" y="77.986012" style="fill: #1f77b4; stroke: #1f77b4"/>
     <use xlink:href="#ma8e88de30c" x="126.919553" y="104.892228" style="fill: #1f77b4; stroke: #1f77b4"/>
     <use xlink:href="#ma8e88de30c" x="128.550983" y="102.214856" style="fill: #1f77b4; stroke: #1f77b4"/>
     <use xlink:href="#ma8e88de30c" x="130.182413" y="137.923139" style="fill: #1f77b4; stroke: #1f77b4"/>
     <use xlink:href="#ma8e88de30c" x="131.813843" y="127.177109" style="fill: #1f77b4; stroke: #1f77b4"/>
     <use xlink:href="#ma8e88de30c" x="133.445273" y="129.796652" style="fill: #1f77b4; stroke: #1f77b4"/>
     <use xlink:href="#ma8e88de30c" x="135.076703" y="122.611473" style="fill: #1f77b4; stroke: #1f77b4"/>
     <use xlink:href="#ma8e88de30c" x="136.708133" y="134.539215" style="fill: #1f77b4; stroke: #1f77b4"/>
     <use xlink:href="#ma8e88de30c" x="138.339563" y="96.211115" style="fill: #1f77b4; stroke: #1f77b4"/>
     <use xlink:href="#ma8e88de30c" x="139.970992" y="80.957127" style="fill: #1f77b4; stroke: #1f77b4"/>
     <use xlink:href="#ma8e88de30c" x="141.602422" y="86.927228" style="fill: #1f77b4; stroke: #1f77b4"/>
     <use xlink:href="#ma8e88de30c" x="143.233852" y="157.221818" style="fill: #1f77b4; stroke: #1f77b4"/>
     <use xlink:href="#ma8e88de30c" x="144.865282" y="141.30321" style="fill: #1f77b4; stroke: #1f77b4"/>
     <use xlink:href="#ma8e88de30c" x="146.496712" y="108.914337" style="fill: #1f77b4; stroke: #1f77b4"/>
     <use xlink:href="#ma8e88de30c" x="148.128142" y="101.354302" style="fill: #1f77b4; stroke: #1f77b4"/>
     <use xlink:href="#ma8e88de30c" x="149.759572" y="79.854554" style="fill: #1f77b4; stroke: #1f77b4"/>
     <use xlink:href="#ma8e88de30c" x="151.391002" y="106.202547" style="fill: #1f77b4; stroke: #1f77b4"/>
     <use xlink:href="#ma8e88de30c" x="153.022431" y="96.419477" style="fill: #1f77b4; stroke: #1f77b4"/>
     <use xlink:href="#ma8e88de30c" x="154.653861" y="77.110051" style="fill: #1f77b4; stroke: #1f77b4"/>
     <use xlink:href="#ma8e88de30c" x="156.285291" y="123.726994" style="fill: #1f77b4; stroke: #1f77b4"/>
     <use xlink:href="#ma8e88de30c" x="157.916721" y="106.802752" style="fill: #1f77b4; stroke: #1f77b4"/>
     <use xlink:href="#ma8e88de30c" x="159.548151" y="124.921325" style="fill: #1f77b4; stroke: #1f77b4"/>
     <use xlink:href="#ma8e88de30c" x="161.179581" y="107.05814" style="fill: #1f77b4; stroke: #1f77b4"/>
     <use xlink:href="#ma8e88de30c" x="162.811011" y="132.271428" style="fill: #1f77b4; stroke: #1f77b4"/>
     <use xlink:href="#ma8e88de30c" x="164.442441" y="98.418374" style="fill: #1f77b4; stroke: #1f77b4"/>
     <use xlink:href="#ma8e88de30c" x="166.07387" y="120.364666" style="fill: #1f77b4; stroke: #1f77b4"/>
     <use xlink:href="#ma8e88de30c" x="167.7053" y="91.737146" style="fill: #1f77b4; stroke: #1f77b4"/>
     <use xlink:href="#ma8e88de30c" x="169.33673" y="83.262988" style="fill: #1f77b4; stroke: #1f77b4"/>
     <use xlink:href="#ma8e88de30c" x="170.96816" y="89.851153" style="fill: #1f77b4; stroke: #1f77b4"/>
     <use xlink:href="#ma8e88de30c" x="172.59959" y="93.602062" style="fill: #1f77b4; stroke: #1f77b4"/>
     <use xlink:href="#ma8e88de30c" x="174.23102" y="110.177909" style="fill: #1f77b4; stroke: #1f77b4"/>
     <use xlink:href="#ma8e88de30c" x="175.86245" y="126.655248" style="fill: #1f77b4; stroke: #1f77b4"/>
     <use xlink:href="#ma8e88de30c" x="177.49388" y="92.791849" style="fill: #1f77b4; stroke: #1f77b4"/>
     <use xlink:href="#ma8e88de30c" x="179.12531" y="122.295306" style="fill: #1f77b4; stroke: #1f77b4"/>
     <use xlink:href="#ma8e88de30c" x="180.756739" y="118.903845" style="fill: #1f77b4; stroke: #1f77b4"/>
     <use xlink:href="#ma8e88de30c" x="182.388169" y="111.578403" style="fill: #1f77b4; stroke: #1f77b4"/>
     <use xlink:href="#ma8e88de30c" x="184.019599" y="121.538547" style="fill: #1f77b4; stroke: #1f77b4"/>
     <use xlink:href="#ma8e88de30c" x="185.651029" y="86.636536" style="fill: #1f77b4; stroke: #1f77b4"/>
     <use xlink:href="#ma8e88de30c" x="187.282459" y="74.723648" style="fill: #1f77b4; stroke: #1f77b4"/>
     <use xlink:href="#ma8e88de30c" x="188.913889" y="95.808157" style="fill: #1f77b4; stroke: #1f77b4"/>
     <use xlink:href="#ma8e88de30c" x="190.545319" y="106.555974" style="fill: #1f77b4; stroke: #1f77b4"/>
     <use xlink:href="#ma8e88de30c" x="192.176749" y="110.836655" style="fill: #1f77b4; stroke: #1f77b4"/>
     <use xlink:href="#ma8e88de30c" x="193.808178" y="111.565889" style="fill: #1f77b4; stroke: #1f77b4"/>
     <use xlink:href="#ma8e88de30c" x="195.439608" y="127.452773" style="fill: #1f77b4; stroke: #1f77b4"/>
     <use xlink:href="#ma8e88de30c" x="197.071038" y="87.131433" style="fill: #1f77b4; stroke: #1f77b4"/>
     <use xlink:href="#ma8e88de30c" x="198.702468" y="107.941531" style="fill: #1f77b4; stroke: #1f77b4"/>
     <use xlink:href="#ma8e88de30c" x="200.333898" y="137.008286" style="fill: #1f77b4; stroke: #1f77b4"/>
     <use xlink:href="#ma8e88de30c" x="201.965328" y="120.208625" style="fill: #1f77b4; stroke: #1f77b4"/>
     <use xlink:href="#ma8e88de30c" x="203.596758" y="133.326671" style="fill: #1f77b4; stroke: #1f77b4"/>
     <use xlink:href="#ma8e88de30c" x="205.228188" y="135.684745" style="fill: #1f77b4; stroke: #1f77b4"/>
     <use xlink:href="#ma8e88de30c" x="206.859617" y="117.642888" style="fill: #1f77b4; stroke: #1f77b4"/>
     <use xlink:href="#ma8e88de30c" x="208.491047" y="105.439142" style="fill: #1f77b4; stroke: #1f77b4"/>
     <use xlink:href="#ma8e88de30c" x="210.122477" y="118.180061" style="fill: #1f77b4; stroke: #1f77b4"/>
     <use xlink:href="#ma8e88de30c" x="211.753907" y="130.261498" style="fill: #1f77b4; stroke: #1f77b4"/>
     <use xlink:href="#ma8e88de30c" x="213.385337" y="111.021834" style="fill: #1f77b4; stroke: #1f77b4"/>
     <use xlink:href="#ma8e88de30c" x="215.016767" y="102.965307" style="fill: #1f77b4; stroke: #1f77b4"/>
     <use xlink:href="#ma8e88de30c" x="216.648197" y="122.338801" style="fill: #1f77b4; stroke: #1f77b4"/>
     <use xlink:href="#ma8e88de30c" x="218.279627" y="109.161332" style="fill: #1f77b4; stroke: #1f77b4"/>
     <use xlink:href="#ma8e88de30c" x="219.911056" y="81.166901" style="fill: #1f77b4; stroke: #1f77b4"/>
     <use xlink:href="#ma8e88de30c" x="221.542486" y="124.188127" style="fill: #1f77b4; stroke: #1f77b4"/>
     <use xlink:href="#ma8e88de30c" x="223.173916" y="66.593112" style="fill: #1f77b4; stroke: #1f77b4"/>
     <use xlink:href="#ma8e88de30c" x="224.805346" y="79.589686" style="fill: #1f77b4; stroke: #1f77b4"/>
     <use xlink:href="#ma8e88de30c" x="226.436776" y="102.347667" style="fill: #1f77b4; stroke: #1f77b4"/>
     <use xlink:href="#ma8e88de30c" x="228.068206" y="105.153902" style="fill: #1f77b4; stroke: #1f77b4"/>
     <use xlink:href="#ma8e88de30c" x="229.699636" y="78.290433" style="fill: #1f77b4; stroke: #1f77b4"/>
     <use xlink:href="#ma8e88de30c" x="231.331066" y="96.416263" style="fill: #1f77b4; stroke: #1f77b4"/>
     <use xlink:href="#ma8e88de30c" x="232.962495" y="94.216207" style="fill: #1f77b4; stroke: #1f77b4"/>
     <use xlink:href="#ma8e88de30c" x="234.593925" y="149.534885" style="fill: #1f77b4; stroke: #1f77b4"/>
     <use xlink:href="#ma8e88de30c" x="236.225355" y="82.837866" style="fill: #1f77b4; stroke: #1f77b4"/>
     <use xlink:href="#ma8e88de30c" x="237.856785" y="80.662813" style="fill: #1f77b4; stroke: #1f77b4"/>
     <use xlink:href="#ma8e88de30c" x="239.488215" y="110.312414" style="fill: #1f77b4; stroke: #1f77b4"/>
     <use xlink:href="#ma8e88de30c" x="241.119645" y="117.582546" style="fill: #1f77b4; stroke: #1f77b4"/>
     <use xlink:href="#ma8e88de30c" x="242.751075" y="112.961623" style="fill: #1f77b4; stroke: #1f77b4"/>
     <use xlink:href="#ma8e88de30c" x="244.382505" y="94.356679" style="fill: #1f77b4; stroke: #1f77b4"/>
     <use xlink:href="#ma8e88de30c" x="246.013934" y="89.748765" style="fill: #1f77b4; stroke: #1f77b4"/>
     <use xlink:href="#ma8e88de30c" x="247.645364" y="75.491206" style="fill: #1f77b4; stroke: #1f77b4"/>
     <use xlink:href="#ma8e88de30c" x="249.276794" y="87.098407" style="fill: #1f77b4; stroke: #1f77b4"/>
     <use xlink:href="#ma8e88de30c" x="250.908224" y="103.944976" style="fill: #1f77b4; stroke: #1f77b4"/>
     <use xlink:href="#ma8e88de30c" x="252.539654" y="92.983998" style="fill: #1f77b4; stroke: #1f77b4"/>
     <use xlink:href="#ma8e88de30c" x="254.171084" y="114.319081" style="fill: #1f77b4; stroke: #1f77b4"/>
     <use xlink:href="#ma8e88de30c" x="255.802514" y="100.060918" style="fill: #1f77b4; stroke: #1f77b4"/>
     <use xlink:href="#ma8e88de30c" x="257.433944" y="93.761359" style="fill: #1f77b4; stroke: #1f77b4"/>
     <use xlink:href="#ma8e88de30c" x="259.065373" y="90.678522" style="fill: #1f77b4; stroke: #1f77b4"/>
     <use xlink:href="#ma8e88de30c" x="260.696803" y="132.451567" style="fill: #1f77b4; stroke: #1f77b4"/>
     <use xlink:href="#ma8e88de30c" x="262.328233" y="139.68482" style="fill: #1f77b4; stroke: #1f77b4"/>
     <use xlink:href="#ma8e88de30c" x="263.959663" y="89.885843" style="fill: #1f77b4; stroke: #1f77b4"/>
     <use xlink:href="#ma8e88de30c" x="265.591093" y="93.632135" style="fill: #1f77b4; stroke: #1f77b4"/>
     <use xlink:href="#ma8e88de30c" x="267.222523" y="114.73754" style="fill: #1f77b4; stroke: #1f77b4"/>
     <use xlink:href="#ma8e88de30c" x="268.853953" y="93.101847" style="fill: #1f77b4; stroke: #1f77b4"/>
     <use xlink:href="#ma8e88de30c" x="270.485383" y="83.369756" style="fill: #1f77b4; stroke: #1f77b4"/>
     <use xlink:href="#ma8e88de30c" x="272.116812" y="91.97299" style="fill: #1f77b4; stroke: #1f77b4"/>
     <use xlink:href="#ma8e88de30c" x="273.748242" y="71.532596" style="fill: #1f77b4; stroke: #1f77b4"/>
     <use xlink:href="#ma8e88de30c" x="275.379672" y="103.630077" style="fill: #1f77b4; stroke: #1f77b4"/>
     <use xlink:href="#ma8e88de30c" x="277.011102" y="122.300603" style="fill: #1f77b4; stroke: #1f77b4"/>
     <use xlink:href="#ma8e88de30c" x="278.642532" y="83.9705" style="fill: #1f77b4; stroke: #1f77b4"/>
     <use xlink:href="#ma8e88de30c" x="280.273962" y="88.417082" style="fill: #1f77b4; stroke: #1f77b4"/>
     <use xlink:href="#ma8e88de30c" x="281.905392" y="79.442493" style="fill: #1f77b4; stroke: #1f77b4"/>
     <use xlink:href="#ma8e88de30c" x="283.536822" y="84.237668" style="fill: #1f77b4; stroke: #1f77b4"/>
     <use xlink:href="#ma8e88de30c" x="285.168251" y="59.961353" style="fill: #1f77b4; stroke: #1f77b4"/>
     <use xlink:href="#ma8e88de30c" x="286.799681" y="89.681558" style="fill: #1f77b4; stroke: #1f77b4"/>
     <use xlink:href="#ma8e88de30c" x="288.431111" y="123.04435" style="fill: #1f77b4; stroke: #1f77b4"/>
     <use xlink:href="#ma8e88de30c" x="290.062541" y="113.120199" style="fill: #1f77b4; stroke: #1f77b4"/>
     <use xlink:href="#ma8e88de30c" x="291.693971" y="49.006048" style="fill: #1f77b4; stroke: #1f77b4"/>
     <use xlink:href="#ma8e88de30c" x="293.325401" y="86.903173" style="fill: #1f77b4; stroke: #1f77b4"/>
     <use xlink:href="#ma8e88de30c" x="294.956831" y="109.063868" style="fill: #1f77b4; stroke: #1f77b4"/>
     <use xlink:href="#ma8e88de30c" x="296.588261" y="108.606002" style="fill: #1f77b4; stroke: #1f77b4"/>
     <use xlink:href="#ma8e88de30c" x="298.21969" y="79.043202" style="fill: #1f77b4; stroke: #1f77b4"/>
     <use xlink:href="#ma8e88de30c" x="299.85112" y="106.514342" style="fill: #1f77b4; stroke: #1f77b4"/>
     <use xlink:href="#ma8e88de30c" x="301.48255" y="96.780501" style="fill: #1f77b4; stroke: #1f77b4"/>
     <use xlink:href="#ma8e88de30c" x="303.11398" y="67.630247" style="fill: #1f77b4; stroke: #1f77b4"/>
     <use xlink:href="#ma8e88de30c" x="304.74541" y="89.991992" style="fill: #1f77b4; stroke: #1f77b4"/>
     <use xlink:href="#ma8e88de30c" x="306.37684" y="106.21838" style="fill: #1f77b4; stroke: #1f77b4"/>
     <use xlink:href="#ma8e88de30c" x="308.00827" y="72.148501" style="fill: #1f77b4; stroke: #1f77b4"/>
     <use xlink:href="#ma8e88de30c" x="309.6397" y="47.258182" style="fill: #1f77b4; stroke: #1f77b4"/>
     <use xlink:href="#ma8e88de30c" x="311.27113" y="88.449284" style="fill: #1f77b4; stroke: #1f77b4"/>
     <use xlink:href="#ma8e88de30c" x="312.902559" y="83.639341" style="fill: #1f77b4; stroke: #1f77b4"/>
     <use xlink:href="#ma8e88de30c" x="314.533989" y="99.23919" style="fill: #1f77b4; stroke: #1f77b4"/>
     <use xlink:href="#ma8e88de30c" x="316.165419" y="75.371522" style="fill: #1f77b4; stroke: #1f77b4"/>
     <use xlink:href="#ma8e88de30c" x="317.796849" y="97.385163" style="fill: #1f77b4; stroke: #1f77b4"/>
     <use xlink:href="#ma8e88de30c" x="319.428279" y="81.405753" style="fill: #1f77b4; stroke: #1f77b4"/>
     <use xlink:href="#ma8e88de30c" x="321.059709" y="56.108851" style="fill: #1f77b4; stroke: #1f77b4"/>
     <use xlink:href="#ma8e88de30c" x="322.691139" y="114.201098" style="fill: #1f77b4; stroke: #1f77b4"/>
     <use xlink:href="#ma8e88de30c" x="324.322569" y="87.98254" style="fill: #1f77b4; stroke: #1f77b4"/>
     <use xlink:href="#ma8e88de30c" x="325.953998" y="79.296167" style="fill: #1f77b4; stroke: #1f77b4"/>
     <use xlink:href="#ma8e88de30c" x="327.585428" y="102.247316" style="fill: #1f77b4; stroke: #1f77b4"/>
     <use xlink:href="#ma8e88de30c" x="329.216858" y="148.4246" style="fill: #1f77b4; stroke: #1f77b4"/>
     <use xlink:href="#ma8e88de30c" x="330.848288" y="77.519812" style="fill: #1f77b4; stroke: #1f77b4"/>
     <use xlink:href="#ma8e88de30c" x="332.479718" y="99.382068" style="fill: #1f77b4; stroke: #1f77b4"/>
     <use xlink:href="#ma8e88de30c" x="334.111148" y="97.798699" style="fill: #1f77b4; stroke: #1f77b4"/>
     <use xlink:href="#ma8e88de30c" x="335.742578" y="52.434568" style="fill: #1f77b4; stroke: #1f77b4"/>
     <use xlink:href="#ma8e88de30c" x="337.374008" y="79.662041" style="fill: #1f77b4; stroke: #1f77b4"/>
     <use xlink:href="#ma8e88de30c" x="339.005437" y="98.176771" style="fill: #1f77b4; stroke: #1f77b4"/>
     <use xlink:href="#ma8e88de30c" x="340.636867" y="111.426198" style="fill: #1f77b4; stroke: #1f77b4"/>
     <use xlink:href="#ma8e88de30c" x="342.268297" y="87.812423" style="fill: #1f77b4; stroke: #1f77b4"/>
     <use xlink:href="#ma8e88de30c" x="343.899727" y="113.84654" style="fill: #1f77b4; stroke: #1f77b4"/>
     <use xlink:href="#ma8e88de30c" x="345.531157" y="76.979135" style="fill: #1f77b4; stroke: #1f77b4"/>
     <use xlink:href="#ma8e88de30c" x="347.162587" y="100.782532" style="fill: #1f77b4; stroke: #1f77b4"/>
     <use xlink:href="#ma8e88de30c" x="348.794017" y="105.848998" style="fill: #1f77b4; stroke: #1f77b4"/>
     <use xlink:href="#ma8e88de30c" x="350.425447" y="71.672385" style="fill: #1f77b4; stroke: #1f77b4"/>
     <use xlink:href="#ma8e88de30c" x="352.056876" y="128.957728" style="fill: #1f77b4; stroke: #1f77b4"/>
     <use xlink:href="#ma8e88de30c" x="353.688306" y="89.349371" style="fill: #1f77b4; stroke: #1f77b4"/>
     <use xlink:href="#ma8e88de30c" x="355.319736" y="76.618625" style="fill: #1f77b4; stroke: #1f77b4"/>
     <use xlink:href="#ma8e88de30c" x="356.951166" y="107.96005" style="fill: #1f77b4; stroke: #1f77b4"/>
     <use xlink:href="#ma8e88de30c" x="358.582596" y="109.00407" style="fill: #1f77b4; stroke: #1f77b4"/>
     <use xlink:href="#ma8e88de30c" x="360.214026" y="70.787029" style="fill: #1f77b4; stroke: #1f77b4"/>
     <use xlink:href="#ma8e88de30c" x="361.845456" y="80.208087" style="fill: #1f77b4; stroke: #1f77b4"/>
     <use xlink:href="#ma8e88de30c" x="363.476886" y="88.791043" style="fill: #1f77b4; stroke: #1f77b4"/>
     <use xlink:href="#ma8e88de30c" x="365.108315" y="84.91293" style="fill: #1f77b4; stroke: #1f77b4"/>
     <use xlink:href="#ma8e88de30c" x="366.739745" y="79.470394" style="fill: #1f77b4; stroke: #1f77b4"/>
     <use xlink:href="#ma8e88de30c" x="368.371175" y="96.346804" style="fill: #1f77b4; stroke: #1f77b4"/>
     <use xlink:href="#ma8e88de30c" x="370.002605" y="101.487572" style="fill: #1f77b4; stroke: #1f77b4"/>
     <use xlink:href="#ma8e88de30c" x="371.634035" y="96.833828" style="fill: #1f77b4; stroke: #1f77b4"/>
     <use xlink:href="#ma8e88de30c" x="373.265465" y="80.90631" style="fill: #1f77b4; stroke: #1f77b4"/>
     <use xlink:href="#ma8e88de30c" x="374.896895" y="126.78566" style="fill: #1f77b4; stroke: #1f77b4"/>
     <use xlink:href="#ma8e88de30c" x="376.528325" y="116.252734" style="fill: #1f77b4; stroke: #1f77b4"/>
     <use xlink:href="#ma8e88de30c" x="378.159754" y="106.416201" style="fill: #1f77b4; stroke: #1f77b4"/>
     <use xlink:href="#ma8e88de30c" x="379.791184" y="67.613942" style="fill: #1f77b4; stroke: #1f77b4"/>
     <use xlink:href="#ma8e88de30c" x="381.422614" y="77.483408" style="fill: #1f77b4; stroke: #1f77b4"/>
     <use xlink:href="#ma8e88de30c" x="383.054044" y="121.001222" style="fill: #1f77b4; stroke: #1f77b4"/>
     <use xlink:href="#ma8e88de30c" x="384.685474" y="146.450976" style="fill: #1f77b4; stroke: #1f77b4"/>
     <use xlink:href="#ma8e88de30c" x="386.316904" y="90.355988" style="fill: #1f77b4; stroke: #1f77b4"/>
     <use xlink:href="#ma8e88de30c" x="387.948334" y="120.562763" style="fill: #1f77b4; stroke: #1f77b4"/>
     <use xlink:href="#ma8e88de30c" x="389.579764" y="146.362952" style="fill: #1f77b4; stroke: #1f77b4"/>
     <use xlink:href="#ma8e88de30c" x="391.211193" y="107.184675" style="fill: #1f77b4; stroke: #1f77b4"/>
     <use xlink:href="#ma8e88de30c" x="392.842623" y="156.575054" style="fill: #1f77b4; stroke: #1f77b4"/>
     <use xlink:href="#ma8e88de30c" x="394.474053" y="97.047325" style="fill: #1f77b4; stroke: #1f77b4"/>
     <use xlink:href="#ma8e88de30c" x="396.105483" y="89.121786" style="fill: #1f77b4; stroke: #1f77b4"/>
     <use xlink:href="#ma8e88de30c" x="397.736913" y="103.287032" style="fill: #1f77b4; stroke: #1f77b4"/>
     <use xlink:href="#ma8e88de30c" x="399.368343" y="110.176916" style="fill: #1f77b4; stroke: #1f77b4"/>
     <use xlink:href="#ma8e88de30c" x="400.999773" y="104.977407" style="fill: #1f77b4; stroke: #1f77b4"/>
    </g>
   </g>
   <g id="line2d_10">
    <path d="M 76.345227 109.50323 
L 378.901165 97.844447 
L 400.999773 96.982508 
L 400.999773 96.982508 
" clip-path="url(#pe25143d633)" style="fill: none; stroke: #d62728; stroke-width: 1.5; stroke-linecap: square"/>
   </g>
   <g id="patch_3">
    <path d="M 60.1125 162.72 
L 60.1125 41.76 
" style="fill: none; stroke: #000000; stroke-width: 0.8; stroke-linejoin: miter; stroke-linecap: square"/>
   </g>
   <g id="patch_4">
    <path d="M 417.2325 162.72 
L 417.2325 41.76 
" style="fill: none; stroke: #000000; stroke-width: 0.8; stroke-linejoin: miter; stroke-linecap: square"/>
   </g>
   <g id="patch_5">
    <path d="M 60.1125 162.72 
L 417.2325 162.72 
" style="fill: none; stroke: #000000; stroke-width: 0.8; stroke-linejoin: miter; stroke-linecap: square"/>
   </g>
   <g id="patch_6">
    <path d="M 60.1125 41.76 
L 417.2325 41.76 
" style="fill: none; stroke: #000000; stroke-width: 0.8; stroke-linejoin: miter; stroke-linecap: square"/>
   </g>
   <g id="text_5">
    <g id="patch_7">
     <path d="M 435.0885 95.079562 
L 549.1885 95.079562 
Q 553.1885 95.079562 553.1885 91.079562 
L 553.1885 47.808 
Q 553.1885 43.808 549.1885 43.808 
L 435.0885 43.808 
Q 431.0885 43.808 431.0885 47.808 
L 431.0885 91.079562 
Q 431.0885 95.079562 435.0885 95.079562 
z
" style="fill: #ffffff; opacity: 0.5; stroke: #000000; stroke-linejoin: miter"/>
    </g>
    <!-- Summary -->
    <g transform="translate(435.0885 55.406437) scale(0.1 -0.1)">
     <defs>
      <path id="DejaVuSans-53" d="M 3425 4513 
L 3425 3897 
Q 3066 4069 2747 4153 
Q 2428 4238 2131 4238 
Q 1616 4238 1336 4038 
Q 1056 3838 1056 3469 
Q 1056 3159 1242 3001 
Q 1428 2844 1947 2747 
L 2328 2669 
Q 3034 2534 3370 2195 
Q 3706 1856 3706 1288 
Q 3706 609 3251 259 
Q 2797 -91 1919 -91 
Q 1588 -91 1214 -16 
Q 841 59 441 206 
L 441 856 
Q 825 641 1194 531 
Q 1563 422 1919 422 
Q 2459 422 2753 634 
Q 3047 847 3047 1241 
Q 3047 1584 2836 1778 
Q 2625 1972 2144 2069 
L 1759 2144 
Q 1053 2284 737 2584 
Q 422 2884 422 3419 
Q 422 4038 858 4394 
Q 1294 4750 2059 4750 
Q 2388 4750 2728 4690 
Q 3069 4631 3425 4513 
z
" transform="scale(0.015625)"/>
      <path id="DejaVuSans-75" d="M 544 1381 
L 544 3500 
L 1119 3500 
L 1119 1403 
Q 1119 906 1312 657 
Q 1506 409 1894 409 
Q 2359 409 2629 706 
Q 2900 1003 2900 1516 
L 2900 3500 
L 3475 3500 
L 3475 0 
L 2900 0 
L 2900 538 
Q 2691 219 2414 64 
Q 2138 -91 1772 -91 
Q 1169 -91 856 284 
Q 544 659 544 1381 
z
M 1991 3584 
L 1991 3584 
z
" transform="scale(0.015625)"/>
      <path id="DejaVuSans-6d" d="M 3328 2828 
Q 3544 3216 3844 3400 
Q 4144 3584 4550 3584 
Q 5097 3584 5394 3201 
Q 5691 2819 5691 2113 
L 5691 0 
L 5113 0 
L 5113 2094 
Q 5113 2597 4934 2840 
Q 4756 3084 4391 3084 
Q 3944 3084 3684 2787 
Q 3425 2491 3425 1978 
L 3425 0 
L 2847 0 
L 2847 2094 
Q 2847 2600 2669 2842 
Q 2491 3084 2119 3084 
Q 1678 3084 1418 2786 
Q 1159 2488 1159 1978 
L 1159 0 
L 581 0 
L 581 3500 
L 1159 3500 
L 1159 2956 
Q 1356 3278 1631 3431 
Q 1906 3584 2284 3584 
Q 2666 3584 2933 3390 
Q 3200 3197 3328 2828 
z
" transform="scale(0.015625)"/>
      <path id="DejaVuSans-61" d="M 2194 1759 
Q 1497 1759 1228 1600 
Q 959 1441 959 1056 
Q 959 750 1161 570 
Q 1363 391 1709 391 
Q 2188 391 2477 730 
Q 2766 1069 2766 1631 
L 2766 1759 
L 2194 1759 
z
M 3341 1997 
L 3341 0 
L 2766 0 
L 2766 531 
Q 2569 213 2275 61 
Q 1981 -91 1556 -91 
Q 1019 -91 701 211 
Q 384 513 384 1019 
Q 384 1609 779 1909 
Q 1175 2209 1959 2209 
L 2766 2209 
L 2766 2266 
Q 2766 2663 2505 2880 
Q 2244 3097 1772 3097 
Q 1472 3097 1187 3025 
Q 903 2953 641 2809 
L 641 3341 
Q 956 3463 1253 3523 
Q 1550 3584 1831 3584 
Q 2591 3584 2966 3190 
Q 3341 2797 3341 1997 
z
" transform="scale(0.015625)"/>
      <path id="DejaVuSans-72" d="M 2631 2963 
Q 2534 3019 2420 3045 
Q 2306 3072 2169 3072 
Q 1681 3072 1420 2755 
Q 1159 2438 1159 1844 
L 1159 0 
L 581 0 
L 581 3500 
L 1159 3500 
L 1159 2956 
Q 1341 3275 1631 3429 
Q 1922 3584 2338 3584 
Q 2397 3584 2469 3576 
Q 2541 3569 2628 3553 
L 2631 2963 
z
" transform="scale(0.015625)"/>
      <path id="DejaVuSans-79" d="M 2059 -325 
Q 1816 -950 1584 -1140 
Q 1353 -1331 966 -1331 
L 506 -1331 
L 506 -850 
L 844 -850 
Q 1081 -850 1212 -737 
Q 1344 -625 1503 -206 
L 1606 56 
L 191 3500 
L 800 3500 
L 1894 763 
L 2988 3500 
L 3597 3500 
L 2059 -325 
z
" transform="scale(0.015625)"/>
     </defs>
     <use xlink:href="#DejaVuSans-53"/>
     <use xlink:href="#DejaVuSans-75" x="63.476562"/>
     <use xlink:href="#DejaVuSans-6d" x="126.855469"/>
     <use xlink:href="#DejaVuSans-6d" x="224.267578"/>
     <use xlink:href="#DejaVuSans-61" x="321.679688"/>
     <use xlink:href="#DejaVuSans-72" x="382.958984"/>
     <use xlink:href="#DejaVuSans-79" x="424.072266"/>
    </g>
    <!-- $Q_I$: 1.2e+02$\pm$1.5e+05  -->
    <g transform="translate(435.0885 66.60425) scale(0.1 -0.1)">
     <defs>
      <path id="DejaVuSans-Oblique-51" d="M 2309 -84 
Q 2275 -88 2237 -89 
Q 2200 -91 2125 -91 
Q 1250 -91 756 411 
Q 263 913 263 1797 
Q 263 2319 452 2844 
Q 641 3369 978 3788 
Q 1369 4269 1858 4509 
Q 2347 4750 2938 4750 
Q 3794 4750 4287 4245 
Q 4781 3741 4781 2869 
Q 4781 1928 4265 1147 
Q 3750 366 2919 44 
L 3553 -825 
L 2847 -825 
L 2309 -84 
z
M 2919 4238 
Q 2400 4238 2003 3986 
Q 1606 3734 1313 3219 
Q 1125 2891 1026 2522 
Q 928 2153 928 1778 
Q 928 1128 1239 775 
Q 1550 422 2119 422 
Q 2631 422 3032 676 
Q 3434 931 3719 1434 
Q 3909 1772 4009 2142 
Q 4109 2513 4109 2881 
Q 4109 3528 3796 3883 
Q 3484 4238 2919 4238 
z
" transform="scale(0.015625)"/>
      <path id="DejaVuSans-Oblique-49" d="M 1081 4666 
L 1716 4666 
L 806 0 
L 172 0 
L 1081 4666 
z
" transform="scale(0.015625)"/>
      <path id="DejaVuSans-3a" d="M 750 794 
L 1409 794 
L 1409 0 
L 750 0 
L 750 794 
z
M 750 3309 
L 1409 3309 
L 1409 2516 
L 750 2516 
L 750 3309 
z
" transform="scale(0.015625)"/>
      <path id="DejaVuSans-2e" d="M 684 794 
L 1344 794 
L 1344 0 
L 684 0 
L 684 794 
z
" transform="scale(0.015625)"/>
      <path id="DejaVuSans-65" d="M 3597 1894 
L 3597 1613 
L 953 1613 
Q 991 1019 1311 708 
Q 1631 397 2203 397 
Q 2534 397 2845 478 
Q 3156 559 3463 722 
L 3463 178 
Q 3153 47 2828 -22 
Q 2503 -91 2169 -91 
Q 1331 -91 842 396 
Q 353 884 353 1716 
Q 353 2575 817 3079 
Q 1281 3584 2069 3584 
Q 2775 3584 3186 3129 
Q 3597 2675 3597 1894 
z
M 3022 2063 
Q 3016 2534 2758 2815 
Q 2500 3097 2075 3097 
Q 1594 3097 1305 2825 
Q 1016 2553 972 2059 
L 3022 2063 
z
" transform="scale(0.015625)"/>
      <path id="DejaVuSans-2b" d="M 2944 4013 
L 2944 2272 
L 4684 2272 
L 4684 1741 
L 2944 1741 
L 2944 0 
L 2419 0 
L 2419 1741 
L 678 1741 
L 678 2272 
L 2419 2272 
L 2419 4013 
L 2944 4013 
z
" transform="scale(0.015625)"/>
      <path id="DejaVuSans-b1" d="M 2944 4013 
L 2944 2803 
L 4684 2803 
L 4684 2272 
L 2944 2272 
L 2944 1063 
L 2419 1063 
L 2419 2272 
L 678 2272 
L 678 2803 
L 2419 2803 
L 2419 4013 
L 2944 4013 
z
M 678 531 
L 4684 531 
L 4684 0 
L 678 0 
L 678 531 
z
" transform="scale(0.015625)"/>
     </defs>
     <use xlink:href="#DejaVuSans-Oblique-51" transform="translate(0 0.78125)"/>
     <use xlink:href="#DejaVuSans-Oblique-49" transform="translate(78.710938 -15.625) scale(0.7)"/>
     <use xlink:href="#DejaVuSans-3a" transform="translate(102.089844 0.78125)"/>
     <use xlink:href="#DejaVuSans-20" transform="translate(135.78125 0.78125)"/>
     <use xlink:href="#DejaVuSans-31" transform="translate(167.568359 0.78125)"/>
     <use xlink:href="#DejaVuSans-2e" transform="translate(231.191406 0.78125)"/>
     <use xlink:href="#DejaVuSans-32" transform="translate(257.478516 0.78125)"/>
     <use xlink:href="#DejaVuSans-65" transform="translate(321.101562 0.78125)"/>
     <use xlink:href="#DejaVuSans-2b" transform="translate(382.625 0.78125)"/>
     <use xlink:href="#DejaVuSans-30" transform="translate(466.414062 0.78125)"/>
     <use xlink:href="#DejaVuSans-32" transform="translate(530.037109 0.78125)"/>
     <use xlink:href="#DejaVuSans-b1" transform="translate(593.660156 0.78125)"/>
     <use xlink:href="#DejaVuSans-31" transform="translate(677.449219 0.78125)"/>
     <use xlink:href="#DejaVuSans-2e" transform="translate(741.072266 0.78125)"/>
     <use xlink:href="#DejaVuSans-35" transform="translate(772.859375 0.78125)"/>
     <use xlink:href="#DejaVuSans-65" transform="translate(836.482422 0.78125)"/>
     <use xlink:href="#DejaVuSans-2b" transform="translate(898.005859 0.78125)"/>
     <use xlink:href="#DejaVuSans-30" transform="translate(981.794922 0.78125)"/>
     <use xlink:href="#DejaVuSans-35" transform="translate(1045.417969 0.78125)"/>
     <use xlink:href="#DejaVuSans-20" transform="translate(1109.041016 0.78125)"/>
    </g>
    <!-- $Q_C$: 1.5$\pm$8.8e+03 M -->
    <g transform="translate(435.0885 77.802062) scale(0.1 -0.1)">
     <defs>
      <path id="DejaVuSans-Oblique-43" d="M 4447 4306 
L 4319 3641 
Q 4019 3944 3683 4091 
Q 3347 4238 2956 4238 
Q 2422 4238 2017 3981 
Q 1613 3725 1319 3200 
Q 1131 2863 1032 2486 
Q 934 2109 934 1728 
Q 934 1091 1264 756 
Q 1594 422 2222 422 
Q 2656 422 3056 561 
Q 3456 700 3834 978 
L 3688 231 
Q 3316 72 2936 -9 
Q 2556 -91 2175 -91 
Q 1278 -91 773 396 
Q 269 884 269 1753 
Q 269 2309 461 2846 
Q 653 3384 1013 3828 
Q 1394 4300 1883 4525 
Q 2372 4750 3022 4750 
Q 3422 4750 3780 4639 
Q 4138 4528 4447 4306 
z
" transform="scale(0.015625)"/>
      <path id="DejaVuSans-38" d="M 2034 2216 
Q 1584 2216 1326 1975 
Q 1069 1734 1069 1313 
Q 1069 891 1326 650 
Q 1584 409 2034 409 
Q 2484 409 2743 651 
Q 3003 894 3003 1313 
Q 3003 1734 2745 1975 
Q 2488 2216 2034 2216 
z
M 1403 2484 
Q 997 2584 770 2862 
Q 544 3141 544 3541 
Q 544 4100 942 4425 
Q 1341 4750 2034 4750 
Q 2731 4750 3128 4425 
Q 3525 4100 3525 3541 
Q 3525 3141 3298 2862 
Q 3072 2584 2669 2484 
Q 3125 2378 3379 2068 
Q 3634 1759 3634 1313 
Q 3634 634 3220 271 
Q 2806 -91 2034 -91 
Q 1263 -91 848 271 
Q 434 634 434 1313 
Q 434 1759 690 2068 
Q 947 2378 1403 2484 
z
M 1172 3481 
Q 1172 3119 1398 2916 
Q 1625 2713 2034 2713 
Q 2441 2713 2670 2916 
Q 2900 3119 2900 3481 
Q 2900 3844 2670 4047 
Q 2441 4250 2034 4250 
Q 1625 4250 1398 4047 
Q 1172 3844 1172 3481 
z
" transform="scale(0.015625)"/>
      <path id="DejaVuSans-33" d="M 2597 2516 
Q 3050 2419 3304 2112 
Q 3559 1806 3559 1356 
Q 3559 666 3084 287 
Q 2609 -91 1734 -91 
Q 1441 -91 1130 -33 
Q 819 25 488 141 
L 488 750 
Q 750 597 1062 519 
Q 1375 441 1716 441 
Q 2309 441 2620 675 
Q 2931 909 2931 1356 
Q 2931 1769 2642 2001 
Q 2353 2234 1838 2234 
L 1294 2234 
L 1294 2753 
L 1863 2753 
Q 2328 2753 2575 2939 
Q 2822 3125 2822 3475 
Q 2822 3834 2567 4026 
Q 2313 4219 1838 4219 
Q 1578 4219 1281 4162 
Q 984 4106 628 3988 
L 628 4550 
Q 988 4650 1302 4700 
Q 1616 4750 1894 4750 
Q 2613 4750 3031 4423 
Q 3450 4097 3450 3541 
Q 3450 3153 3228 2886 
Q 3006 2619 2597 2516 
z
" transform="scale(0.015625)"/>
      <path id="DejaVuSans-4d" d="M 628 4666 
L 1569 4666 
L 2759 1491 
L 3956 4666 
L 4897 4666 
L 4897 0 
L 4281 0 
L 4281 4097 
L 3078 897 
L 2444 897 
L 1241 4097 
L 1241 0 
L 628 0 
L 628 4666 
z
" transform="scale(0.015625)"/>
     </defs>
     <use xlink:href="#DejaVuSans-Oblique-51" transform="translate(0 0.78125)"/>
     <use xlink:href="#DejaVuSans-Oblique-43" transform="translate(78.710938 -15.625) scale(0.7)"/>
     <use xlink:href="#DejaVuSans-3a" transform="translate(130.322266 0.78125)"/>
     <use xlink:href="#DejaVuSans-20" transform="translate(164.013672 0.78125)"/>
     <use xlink:href="#DejaVuSans-31" transform="translate(195.800781 0.78125)"/>
     <use xlink:href="#DejaVuSans-2e" transform="translate(259.423828 0.78125)"/>
     <use xlink:href="#DejaVuSans-35" transform="translate(291.210938 0.78125)"/>
     <use xlink:href="#DejaVuSans-b1" transform="translate(354.833984 0.78125)"/>
     <use xlink:href="#DejaVuSans-38" transform="translate(438.623047 0.78125)"/>
     <use xlink:href="#DejaVuSans-2e" transform="translate(502.246094 0.78125)"/>
     <use xlink:href="#DejaVuSans-38" transform="translate(531.408203 0.78125)"/>
     <use xlink:href="#DejaVuSans-65" transform="translate(595.03125 0.78125)"/>
     <use xlink:href="#DejaVuSans-2b" transform="translate(656.554688 0.78125)"/>
     <use xlink:href="#DejaVuSans-30" transform="translate(740.34375 0.78125)"/>
     <use xlink:href="#DejaVuSans-33" transform="translate(803.966797 0.78125)"/>
     <use xlink:href="#DejaVuSans-20" transform="translate(867.589844 0.78125)"/>
     <use xlink:href="#DejaVuSans-4d" transform="translate(899.376953 0.78125)"/>
    </g>
    <!-- $f_{res}$: 6$\pm$28 GHz -->
    <g transform="translate(435.0885 88.999875) scale(0.1 -0.1)">
     <defs>
      <path id="DejaVuSans-Oblique-66" d="M 3059 4863 
L 2969 4384 
L 2419 4384 
Q 2106 4384 1964 4261 
Q 1822 4138 1753 3809 
L 1691 3500 
L 2638 3500 
L 2553 3053 
L 1606 3053 
L 1013 0 
L 434 0 
L 1031 3053 
L 481 3053 
L 563 3500 
L 1113 3500 
L 1159 3744 
Q 1278 4363 1576 4613 
Q 1875 4863 2516 4863 
L 3059 4863 
z
" transform="scale(0.015625)"/>
      <path id="DejaVuSans-Oblique-72" d="M 2853 2969 
Q 2766 3016 2653 3041 
Q 2541 3066 2413 3066 
Q 1953 3066 1609 2717 
Q 1266 2369 1153 1784 
L 800 0 
L 225 0 
L 909 3500 
L 1484 3500 
L 1375 2956 
Q 1603 3259 1920 3421 
Q 2238 3584 2597 3584 
Q 2691 3584 2781 3573 
Q 2872 3563 2963 3538 
L 2853 2969 
z
" transform="scale(0.015625)"/>
      <path id="DejaVuSans-Oblique-65" d="M 3078 2063 
Q 3088 2113 3092 2166 
Q 3097 2219 3097 2272 
Q 3097 2653 2873 2875 
Q 2650 3097 2266 3097 
Q 1838 3097 1509 2826 
Q 1181 2556 1013 2059 
L 3078 2063 
z
M 3578 1613 
L 903 1613 
Q 884 1494 878 1425 
Q 872 1356 872 1306 
Q 872 872 1139 634 
Q 1406 397 1894 397 
Q 2269 397 2603 481 
Q 2938 566 3225 728 
L 3116 159 
Q 2806 34 2476 -28 
Q 2147 -91 1806 -91 
Q 1078 -91 686 257 
Q 294 606 294 1247 
Q 294 1794 489 2264 
Q 684 2734 1063 3103 
Q 1306 3334 1642 3459 
Q 1978 3584 2356 3584 
Q 2950 3584 3301 3228 
Q 3653 2872 3653 2272 
Q 3653 2128 3634 1964 
Q 3616 1800 3578 1613 
z
" transform="scale(0.015625)"/>
      <path id="DejaVuSans-Oblique-73" d="M 3200 3397 
L 3091 2853 
Q 2863 2978 2609 3040 
Q 2356 3103 2088 3103 
Q 1634 3103 1373 2948 
Q 1113 2794 1113 2528 
Q 1113 2219 1719 2053 
Q 1766 2041 1788 2034 
L 1972 1978 
Q 2547 1819 2739 1644 
Q 2931 1469 2931 1166 
Q 2931 609 2489 259 
Q 2047 -91 1331 -91 
Q 1053 -91 747 -37 
Q 441 16 72 128 
L 184 722 
Q 500 559 806 475 
Q 1113 391 1394 391 
Q 1816 391 2080 572 
Q 2344 753 2344 1031 
Q 2344 1331 1650 1516 
L 1591 1531 
L 1394 1581 
Q 956 1697 753 1886 
Q 550 2075 550 2369 
Q 550 2928 970 3256 
Q 1391 3584 2113 3584 
Q 2397 3584 2667 3537 
Q 2938 3491 3200 3397 
z
" transform="scale(0.015625)"/>
      <path id="DejaVuSans-36" d="M 2113 2584 
Q 1688 2584 1439 2293 
Q 1191 2003 1191 1497 
Q 1191 994 1439 701 
Q 1688 409 2113 409 
Q 2538 409 2786 701 
Q 3034 994 3034 1497 
Q 3034 2003 2786 2293 
Q 2538 2584 2113 2584 
z
M 3366 4563 
L 3366 3988 
Q 3128 4100 2886 4159 
Q 2644 4219 2406 4219 
Q 1781 4219 1451 3797 
Q 1122 3375 1075 2522 
Q 1259 2794 1537 2939 
Q 1816 3084 2150 3084 
Q 2853 3084 3261 2657 
Q 3669 2231 3669 1497 
Q 3669 778 3244 343 
Q 2819 -91 2113 -91 
Q 1303 -91 875 529 
Q 447 1150 447 2328 
Q 447 3434 972 4092 
Q 1497 4750 2381 4750 
Q 2619 4750 2861 4703 
Q 3103 4656 3366 4563 
z
" transform="scale(0.015625)"/>
      <path id="DejaVuSans-47" d="M 3809 666 
L 3809 1919 
L 2778 1919 
L 2778 2438 
L 4434 2438 
L 4434 434 
Q 4069 175 3628 42 
Q 3188 -91 2688 -91 
Q 1594 -91 976 548 
Q 359 1188 359 2328 
Q 359 3472 976 4111 
Q 1594 4750 2688 4750 
Q 3144 4750 3555 4637 
Q 3966 4525 4313 4306 
L 4313 3634 
Q 3963 3931 3569 4081 
Q 3175 4231 2741 4231 
Q 1884 4231 1454 3753 
Q 1025 3275 1025 2328 
Q 1025 1384 1454 906 
Q 1884 428 2741 428 
Q 3075 428 3337 486 
Q 3600 544 3809 666 
z
" transform="scale(0.015625)"/>
      <path id="DejaVuSans-48" d="M 628 4666 
L 1259 4666 
L 1259 2753 
L 3553 2753 
L 3553 4666 
L 4184 4666 
L 4184 0 
L 3553 0 
L 3553 2222 
L 1259 2222 
L 1259 0 
L 628 0 
L 628 4666 
z
" transform="scale(0.015625)"/>
      <path id="DejaVuSans-7a" d="M 353 3500 
L 3084 3500 
L 3084 2975 
L 922 459 
L 3084 459 
L 3084 0 
L 275 0 
L 275 525 
L 2438 3041 
L 353 3041 
L 353 3500 
z
" transform="scale(0.015625)"/>
     </defs>
     <use xlink:href="#DejaVuSans-Oblique-66" transform="translate(0 0.015625)"/>
     <use xlink:href="#DejaVuSans-Oblique-72" transform="translate(35.205078 -16.390625) scale(0.7)"/>
     <use xlink:href="#DejaVuSans-Oblique-65" transform="translate(63.984375 -16.390625) scale(0.7)"/>
     <use xlink:href="#DejaVuSans-Oblique-73" transform="translate(107.050781 -16.390625) scale(0.7)"/>
     <use xlink:href="#DejaVuSans-3a" transform="translate(146.254883 0.015625)"/>
     <use xlink:href="#DejaVuSans-20" transform="translate(179.946289 0.015625)"/>
     <use xlink:href="#DejaVuSans-36" transform="translate(211.733398 0.015625)"/>
     <use xlink:href="#DejaVuSans-b1" transform="translate(275.356445 0.015625)"/>
     <use xlink:href="#DejaVuSans-32" transform="translate(359.145508 0.015625)"/>
     <use xlink:href="#DejaVuSans-38" transform="translate(422.768555 0.015625)"/>
     <use xlink:href="#DejaVuSans-20" transform="translate(486.391602 0.015625)"/>
     <use xlink:href="#DejaVuSans-47" transform="translate(518.178711 0.015625)"/>
     <use xlink:href="#DejaVuSans-48" transform="translate(595.668945 0.015625)"/>
     <use xlink:href="#DejaVuSans-7a" transform="translate(670.864258 0.015625)"/>
    </g>
   </g>
  </g>
  <g id="axes_2">
   <g id="patch_8">
    <path d="M 60.1125 307.872 
L 417.2325 307.872 
L 417.2325 186.912 
L 60.1125 186.912 
z
" style="fill: #ffffff"/>
   </g>
   <g id="matplotlib.axis_3">
    <g id="xtick_6">
     <g id="line2d_11">
      <g>
       <use xlink:href="#mc297276665" x="108.810682" y="307.872" style="stroke: #000000; stroke-width: 0.8"/>
      </g>
     </g>
     <g id="text_6">
      <!-- 896 -->
      <g transform="translate(99.266932 322.470438) scale(0.1 -0.1)">
       <defs>
        <path id="DejaVuSans-39" d="M 703 97 
L 703 672 
Q 941 559 1184 500 
Q 1428 441 1663 441 
Q 2288 441 2617 861 
Q 2947 1281 2994 2138 
Q 2813 1869 2534 1725 
Q 2256 1581 1919 1581 
Q 1219 1581 811 2004 
Q 403 2428 403 3163 
Q 403 3881 828 4315 
Q 1253 4750 1959 4750 
Q 2769 4750 3195 4129 
Q 3622 3509 3622 2328 
Q 3622 1225 3098 567 
Q 2575 -91 1691 -91 
Q 1453 -91 1209 -44 
Q 966 3 703 97 
z
M 1959 2075 
Q 2384 2075 2632 2365 
Q 2881 2656 2881 3163 
Q 2881 3666 2632 3958 
Q 2384 4250 1959 4250 
Q 1534 4250 1286 3958 
Q 1038 3666 1038 3163 
Q 1038 2656 1286 2365 
Q 1534 2075 1959 2075 
z
" transform="scale(0.015625)"/>
       </defs>
       <use xlink:href="#DejaVuSans-38"/>
       <use xlink:href="#DejaVuSans-39" x="63.623047"/>
       <use xlink:href="#DejaVuSans-36" x="127.246094"/>
      </g>
     </g>
    </g>
    <g id="xtick_7">
     <g id="line2d_12">
      <g>
       <use xlink:href="#mc297276665" x="173.741591" y="307.872" style="stroke: #000000; stroke-width: 0.8"/>
      </g>
     </g>
     <g id="text_7">
      <!-- 898 -->
      <g transform="translate(164.197841 322.470438) scale(0.1 -0.1)">
       <use xlink:href="#DejaVuSans-38"/>
       <use xlink:href="#DejaVuSans-39" x="63.623047"/>
       <use xlink:href="#DejaVuSans-38" x="127.246094"/>
      </g>
     </g>
    </g>
    <g id="xtick_8">
     <g id="line2d_13">
      <g>
       <use xlink:href="#mc297276665" x="238.6725" y="307.872" style="stroke: #000000; stroke-width: 0.8"/>
      </g>
     </g>
     <g id="text_8">
      <!-- 900 -->
      <g transform="translate(229.12875 322.470438) scale(0.1 -0.1)">
       <use xlink:href="#DejaVuSans-39"/>
       <use xlink:href="#DejaVuSans-30" x="63.623047"/>
       <use xlink:href="#DejaVuSans-30" x="127.246094"/>
      </g>
     </g>
    </g>
    <g id="xtick_9">
     <g id="line2d_14">
      <g>
       <use xlink:href="#mc297276665" x="303.603409" y="307.872" style="stroke: #000000; stroke-width: 0.8"/>
      </g>
     </g>
     <g id="text_9">
      <!-- 902 -->
      <g transform="translate(294.059659 322.470438) scale(0.1 -0.1)">
       <use xlink:href="#DejaVuSans-39"/>
       <use xlink:href="#DejaVuSans-30" x="63.623047"/>
       <use xlink:href="#DejaVuSans-32" x="127.246094"/>
      </g>
     </g>
    </g>
    <g id="xtick_10">
     <g id="line2d_15">
      <g>
       <use xlink:href="#mc297276665" x="368.534318" y="307.872" style="stroke: #000000; stroke-width: 0.8"/>
      </g>
     </g>
     <g id="text_10">
      <!-- 904 -->
      <g transform="translate(358.990568 322.470438) scale(0.1 -0.1)">
       <defs>
        <path id="DejaVuSans-34" d="M 2419 4116 
L 825 1625 
L 2419 1625 
L 2419 4116 
z
M 2253 4666 
L 3047 4666 
L 3047 1625 
L 3713 1625 
L 3713 1100 
L 3047 1100 
L 3047 0 
L 2419 0 
L 2419 1100 
L 313 1100 
L 313 1709 
L 2253 4666 
z
" transform="scale(0.015625)"/>
       </defs>
       <use xlink:href="#DejaVuSans-39"/>
       <use xlink:href="#DejaVuSans-30" x="63.623047"/>
       <use xlink:href="#DejaVuSans-34" x="127.246094"/>
      </g>
     </g>
    </g>
    <g id="text_11">
     <!-- Frequency [MHz] -->
     <g transform="translate(196.65375 336.148562) scale(0.1 -0.1)">
      <defs>
       <path id="DejaVuSans-46" d="M 628 4666 
L 3309 4666 
L 3309 4134 
L 1259 4134 
L 1259 2759 
L 3109 2759 
L 3109 2228 
L 1259 2228 
L 1259 0 
L 628 0 
L 628 4666 
z
" transform="scale(0.015625)"/>
       <path id="DejaVuSans-71" d="M 947 1747 
Q 947 1113 1208 752 
Q 1469 391 1925 391 
Q 2381 391 2643 752 
Q 2906 1113 2906 1747 
Q 2906 2381 2643 2742 
Q 2381 3103 1925 3103 
Q 1469 3103 1208 2742 
Q 947 2381 947 1747 
z
M 2906 525 
Q 2725 213 2448 61 
Q 2172 -91 1784 -91 
Q 1150 -91 751 415 
Q 353 922 353 1747 
Q 353 2572 751 3078 
Q 1150 3584 1784 3584 
Q 2172 3584 2448 3432 
Q 2725 3281 2906 2969 
L 2906 3500 
L 3481 3500 
L 3481 -1331 
L 2906 -1331 
L 2906 525 
z
" transform="scale(0.015625)"/>
       <path id="DejaVuSans-6e" d="M 3513 2113 
L 3513 0 
L 2938 0 
L 2938 2094 
Q 2938 2591 2744 2837 
Q 2550 3084 2163 3084 
Q 1697 3084 1428 2787 
Q 1159 2491 1159 1978 
L 1159 0 
L 581 0 
L 581 3500 
L 1159 3500 
L 1159 2956 
Q 1366 3272 1645 3428 
Q 1925 3584 2291 3584 
Q 2894 3584 3203 3211 
Q 3513 2838 3513 2113 
z
" transform="scale(0.015625)"/>
       <path id="DejaVuSans-63" d="M 3122 3366 
L 3122 2828 
Q 2878 2963 2633 3030 
Q 2388 3097 2138 3097 
Q 1578 3097 1268 2742 
Q 959 2388 959 1747 
Q 959 1106 1268 751 
Q 1578 397 2138 397 
Q 2388 397 2633 464 
Q 2878 531 3122 666 
L 3122 134 
Q 2881 22 2623 -34 
Q 2366 -91 2075 -91 
Q 1284 -91 818 406 
Q 353 903 353 1747 
Q 353 2603 823 3093 
Q 1294 3584 2113 3584 
Q 2378 3584 2631 3529 
Q 2884 3475 3122 3366 
z
" transform="scale(0.015625)"/>
      </defs>
      <use xlink:href="#DejaVuSans-46"/>
      <use xlink:href="#DejaVuSans-72" x="50.269531"/>
      <use xlink:href="#DejaVuSans-65" x="89.132812"/>
      <use xlink:href="#DejaVuSans-71" x="150.65625"/>
      <use xlink:href="#DejaVuSans-75" x="214.132812"/>
      <use xlink:href="#DejaVuSans-65" x="277.511719"/>
      <use xlink:href="#DejaVuSans-6e" x="339.035156"/>
      <use xlink:href="#DejaVuSans-63" x="402.414062"/>
      <use xlink:href="#DejaVuSans-79" x="457.394531"/>
      <use xlink:href="#DejaVuSans-20" x="516.574219"/>
      <use xlink:href="#DejaVuSans-5b" x="548.361328"/>
      <use xlink:href="#DejaVuSans-4d" x="587.375"/>
      <use xlink:href="#DejaVuSans-48" x="673.654297"/>
      <use xlink:href="#DejaVuSans-7a" x="748.849609"/>
      <use xlink:href="#DejaVuSans-5d" x="801.339844"/>
     </g>
    </g>
    <g id="text_12">
     <!-- +5 GHz -->
     <g transform="translate(378.795 335.148562) scale(0.1 -0.1)">
      <use xlink:href="#DejaVuSans-2b"/>
      <use xlink:href="#DejaVuSans-35" x="83.789062"/>
      <use xlink:href="#DejaVuSans-20" x="147.412109"/>
      <use xlink:href="#DejaVuSans-47" x="179.199219"/>
      <use xlink:href="#DejaVuSans-48" x="256.689453"/>
      <use xlink:href="#DejaVuSans-7a" x="331.884766"/>
     </g>
    </g>
   </g>
   <g id="matplotlib.axis_4">
    <g id="ytick_4">
     <g id="line2d_16">
      <g>
       <use xlink:href="#md704da15f3" x="60.1125" y="277.949756" style="stroke: #000000; stroke-width: 0.8"/>
      </g>
     </g>
     <g id="text_13">
      <!-- -100 -->
      <g transform="translate(30.417188 281.748975) scale(0.1 -0.1)">
       <defs>
        <path id="DejaVuSans-2d" d="M 313 2009 
L 1997 2009 
L 1997 1497 
L 313 1497 
L 313 2009 
z
" transform="scale(0.015625)"/>
       </defs>
       <use xlink:href="#DejaVuSans-2d"/>
       <use xlink:href="#DejaVuSans-31" x="36.083984"/>
       <use xlink:href="#DejaVuSans-30" x="99.707031"/>
       <use xlink:href="#DejaVuSans-30" x="163.330078"/>
      </g>
     </g>
    </g>
    <g id="ytick_5">
     <g id="line2d_17">
      <g>
       <use xlink:href="#md704da15f3" x="60.1125" y="247.390612" style="stroke: #000000; stroke-width: 0.8"/>
      </g>
     </g>
     <g id="text_14">
      <!-- 0 -->
      <g transform="translate(46.75 251.189831) scale(0.1 -0.1)">
       <use xlink:href="#DejaVuSans-30"/>
      </g>
     </g>
    </g>
    <g id="ytick_6">
     <g id="line2d_18">
      <g>
       <use xlink:href="#md704da15f3" x="60.1125" y="216.831468" style="stroke: #000000; stroke-width: 0.8"/>
      </g>
     </g>
     <g id="text_15">
      <!-- 100 -->
      <g transform="translate(34.025 220.630687) scale(0.1 -0.1)">
       <use xlink:href="#DejaVuSans-31"/>
       <use xlink:href="#DejaVuSans-30" x="63.623047"/>
       <use xlink:href="#DejaVuSans-30" x="127.246094"/>
      </g>
     </g>
    </g>
    <g id="text_16">
     <!-- $\angle S_{21}$ [deg] -->
     <g transform="translate(24.317188 274.592) rotate(-90) scale(0.1 -0.1)">
      <defs>
       <path id="DejaVuSans-2220" d="M 5028 631 
L 5028 0 
L 547 0 
L 3525 4666 
L 4281 4666 
L 1716 631 
L 5028 631 
z
" transform="scale(0.015625)"/>
       <path id="DejaVuSans-64" d="M 2906 2969 
L 2906 4863 
L 3481 4863 
L 3481 0 
L 2906 0 
L 2906 525 
Q 2725 213 2448 61 
Q 2172 -91 1784 -91 
Q 1150 -91 751 415 
Q 353 922 353 1747 
Q 353 2572 751 3078 
Q 1150 3584 1784 3584 
Q 2172 3584 2448 3432 
Q 2725 3281 2906 2969 
z
M 947 1747 
Q 947 1113 1208 752 
Q 1469 391 1925 391 
Q 2381 391 2643 752 
Q 2906 1113 2906 1747 
Q 2906 2381 2643 2742 
Q 2381 3103 1925 3103 
Q 1469 3103 1208 2742 
Q 947 2381 947 1747 
z
" transform="scale(0.015625)"/>
       <path id="DejaVuSans-67" d="M 2906 1791 
Q 2906 2416 2648 2759 
Q 2391 3103 1925 3103 
Q 1463 3103 1205 2759 
Q 947 2416 947 1791 
Q 947 1169 1205 825 
Q 1463 481 1925 481 
Q 2391 481 2648 825 
Q 2906 1169 2906 1791 
z
M 3481 434 
Q 3481 -459 3084 -895 
Q 2688 -1331 1869 -1331 
Q 1566 -1331 1297 -1286 
Q 1028 -1241 775 -1147 
L 775 -588 
Q 1028 -725 1275 -790 
Q 1522 -856 1778 -856 
Q 2344 -856 2625 -561 
Q 2906 -266 2906 331 
L 2906 616 
Q 2728 306 2450 153 
Q 2172 0 1784 0 
Q 1141 0 747 490 
Q 353 981 353 1791 
Q 353 2603 747 3093 
Q 1141 3584 1784 3584 
Q 2172 3584 2450 3431 
Q 2728 3278 2906 2969 
L 2906 3500 
L 3481 3500 
L 3481 434 
z
" transform="scale(0.015625)"/>
      </defs>
      <use xlink:href="#DejaVuSans-2220" transform="translate(0 0.015625)"/>
      <use xlink:href="#DejaVuSans-Oblique-53" transform="translate(89.648438 0.015625)"/>
      <use xlink:href="#DejaVuSans-32" transform="translate(153.125 -16.390625) scale(0.7)"/>
      <use xlink:href="#DejaVuSans-31" transform="translate(197.661133 -16.390625) scale(0.7)"/>
      <use xlink:href="#DejaVuSans-20" transform="translate(244.931641 0.015625)"/>
      <use xlink:href="#DejaVuSans-5b" transform="translate(276.71875 0.015625)"/>
      <use xlink:href="#DejaVuSans-64" transform="translate(315.732422 0.015625)"/>
      <use xlink:href="#DejaVuSans-65" transform="translate(379.208984 0.015625)"/>
      <use xlink:href="#DejaVuSans-67" transform="translate(440.732422 0.015625)"/>
      <use xlink:href="#DejaVuSans-5d" transform="translate(504.208984 0.015625)"/>
     </g>
    </g>
   </g>
   <g id="line2d_19">
    <path d="M 76.345227 287.019947 
L 81.239517 290.409174 
L 82.870947 291.717131 
L 84.502377 292.679593 
L 89.396666 296.19092 
L 91.028096 297.276869 
L 92.659526 298.558787 
L 97.553816 302.019127 
L 99.185246 193.184475 
L 149.759572 228.944541 
L 151.391002 230.136235 
L 153.022431 231.157899 
L 156.285291 233.611833 
L 159.548151 235.669738 
L 161.179581 236.997127 
L 166.07387 240.366828 
L 167.7053 241.615619 
L 169.33673 242.694503 
L 174.23102 246.245908 
L 175.86245 247.346284 
L 177.49388 248.587555 
L 179.12531 249.583207 
L 180.756739 250.868933 
L 182.388169 251.888441 
L 187.282459 255.460612 
L 188.913889 256.494436 
L 192.176749 258.938528 
L 198.702468 263.44955 
L 200.333898 264.719979 
L 203.596758 266.938452 
L 210.122477 271.563758 
L 211.753907 272.632346 
L 213.385337 273.857455 
L 215.016767 274.932204 
L 221.542486 279.637047 
L 228.068206 284.235042 
L 234.593925 288.779998 
L 237.856785 291.219882 
L 241.119645 293.415056 
L 249.276794 299.267867 
L 252.539654 301.466366 
L 254.171084 192.66952 
L 260.696803 197.217773 
L 262.328233 198.473275 
L 263.959663 199.488344 
L 267.222523 201.877711 
L 270.485383 204.216333 
L 285.168251 214.50227 
L 288.431111 216.91823 
L 290.062541 217.915952 
L 291.693971 219.177315 
L 294.956831 221.477928 
L 298.21969 223.815088 
L 314.533989 235.310539 
L 319.428279 238.742745 
L 322.691139 240.978612 
L 324.322569 242.224129 
L 329.216858 245.626809 
L 335.742578 250.28364 
L 368.371175 273.332976 
L 370.002605 274.531762 
L 371.634035 275.554432 
L 374.896895 277.931881 
L 376.528325 278.956729 
L 379.791184 281.420371 
L 381.422614 282.422207 
L 387.948334 287.123489 
L 392.842623 290.575799 
L 396.105483 292.989608 
L 397.736913 293.973635 
L 400.999773 296.24691 
L 400.999773 296.24691 
" clip-path="url(#p05dfbab859)" style="fill: none; stroke: #1f77b4; stroke-width: 1.5; stroke-linecap: square"/>
    <g clip-path="url(#p05dfbab859)">
     <use xlink:href="#ma8e88de30c" x="76.345227" y="287.019947" style="fill: #1f77b4; stroke: #1f77b4"/>
     <use xlink:href="#ma8e88de30c" x="77.976657" y="288.152495" style="fill: #1f77b4; stroke: #1f77b4"/>
     <use xlink:href="#ma8e88de30c" x="79.608087" y="289.236386" style="fill: #1f77b4; stroke: #1f77b4"/>
     <use xlink:href="#ma8e88de30c" x="81.239517" y="290.409174" style="fill: #1f77b4; stroke: #1f77b4"/>
     <use xlink:href="#ma8e88de30c" x="82.870947" y="291.717131" style="fill: #1f77b4; stroke: #1f77b4"/>
     <use xlink:href="#ma8e88de30c" x="84.502377" y="292.679593" style="fill: #1f77b4; stroke: #1f77b4"/>
     <use xlink:href="#ma8e88de30c" x="86.133807" y="293.868681" style="fill: #1f77b4; stroke: #1f77b4"/>
     <use xlink:href="#ma8e88de30c" x="87.765236" y="295.055986" style="fill: #1f77b4; stroke: #1f77b4"/>
     <use xlink:href="#ma8e88de30c" x="89.396666" y="296.19092" style="fill: #1f77b4; stroke: #1f77b4"/>
     <use xlink:href="#ma8e88de30c" x="91.028096" y="297.276869" style="fill: #1f77b4; stroke: #1f77b4"/>
     <use xlink:href="#ma8e88de30c" x="92.659526" y="298.558787" style="fill: #1f77b4; stroke: #1f77b4"/>
     <use xlink:href="#ma8e88de30c" x="94.290956" y="299.67557" style="fill: #1f77b4; stroke: #1f77b4"/>
     <use xlink:href="#ma8e88de30c" x="95.922386" y="300.828604" style="fill: #1f77b4; stroke: #1f77b4"/>
     <use xlink:href="#ma8e88de30c" x="97.553816" y="302.019127" style="fill: #1f77b4; stroke: #1f77b4"/>
     <use xlink:href="#ma8e88de30c" x="99.185246" y="193.184475" style="fill: #1f77b4; stroke: #1f77b4"/>
     <use xlink:href="#ma8e88de30c" x="100.816675" y="194.334065" style="fill: #1f77b4; stroke: #1f77b4"/>
     <use xlink:href="#ma8e88de30c" x="102.448105" y="195.44042" style="fill: #1f77b4; stroke: #1f77b4"/>
     <use xlink:href="#ma8e88de30c" x="104.079535" y="196.587192" style="fill: #1f77b4; stroke: #1f77b4"/>
     <use xlink:href="#ma8e88de30c" x="105.710965" y="197.740101" style="fill: #1f77b4; stroke: #1f77b4"/>
     <use xlink:href="#ma8e88de30c" x="107.342395" y="198.865398" style="fill: #1f77b4; stroke: #1f77b4"/>
     <use xlink:href="#ma8e88de30c" x="108.973825" y="200.089415" style="fill: #1f77b4; stroke: #1f77b4"/>
     <use xlink:href="#ma8e88de30c" x="110.605255" y="201.23224" style="fill: #1f77b4; stroke: #1f77b4"/>
     <use xlink:href="#ma8e88de30c" x="112.236685" y="202.394577" style="fill: #1f77b4; stroke: #1f77b4"/>
     <use xlink:href="#ma8e88de30c" x="113.868114" y="203.532525" style="fill: #1f77b4; stroke: #1f77b4"/>
     <use xlink:href="#ma8e88de30c" x="115.499544" y="204.661692" style="fill: #1f77b4; stroke: #1f77b4"/>
     <use xlink:href="#ma8e88de30c" x="117.130974" y="205.798609" style="fill: #1f77b4; stroke: #1f77b4"/>
     <use xlink:href="#ma8e88de30c" x="118.762404" y="206.959716" style="fill: #1f77b4; stroke: #1f77b4"/>
     <use xlink:href="#ma8e88de30c" x="120.393834" y="208.205822" style="fill: #1f77b4; stroke: #1f77b4"/>
     <use xlink:href="#ma8e88de30c" x="122.025264" y="209.286613" style="fill: #1f77b4; stroke: #1f77b4"/>
     <use xlink:href="#ma8e88de30c" x="123.656694" y="210.344874" style="fill: #1f77b4; stroke: #1f77b4"/>
     <use xlink:href="#ma8e88de30c" x="125.288124" y="211.663302" style="fill: #1f77b4; stroke: #1f77b4"/>
     <use xlink:href="#ma8e88de30c" x="126.919553" y="212.761078" style="fill: #1f77b4; stroke: #1f77b4"/>
     <use xlink:href="#ma8e88de30c" x="128.550983" y="213.917978" style="fill: #1f77b4; stroke: #1f77b4"/>
     <use xlink:href="#ma8e88de30c" x="130.182413" y="215.05152" style="fill: #1f77b4; stroke: #1f77b4"/>
     <use xlink:href="#ma8e88de30c" x="131.813843" y="216.198683" style="fill: #1f77b4; stroke: #1f77b4"/>
     <use xlink:href="#ma8e88de30c" x="133.445273" y="217.363309" style="fill: #1f77b4; stroke: #1f77b4"/>
     <use xlink:href="#ma8e88de30c" x="135.076703" y="218.53799" style="fill: #1f77b4; stroke: #1f77b4"/>
     <use xlink:href="#ma8e88de30c" x="136.708133" y="219.66665" style="fill: #1f77b4; stroke: #1f77b4"/>
     <use xlink:href="#ma8e88de30c" x="138.339563" y="220.755547" style="fill: #1f77b4; stroke: #1f77b4"/>
     <use xlink:href="#ma8e88de30c" x="139.970992" y="221.963142" style="fill: #1f77b4; stroke: #1f77b4"/>
     <use xlink:href="#ma8e88de30c" x="141.602422" y="223.09504" style="fill: #1f77b4; stroke: #1f77b4"/>
     <use xlink:href="#ma8e88de30c" x="143.233852" y="224.282871" style="fill: #1f77b4; stroke: #1f77b4"/>
     <use xlink:href="#ma8e88de30c" x="144.865282" y="225.389069" style="fill: #1f77b4; stroke: #1f77b4"/>
     <use xlink:href="#ma8e88de30c" x="146.496712" y="226.527566" style="fill: #1f77b4; stroke: #1f77b4"/>
     <use xlink:href="#ma8e88de30c" x="148.128142" y="227.657707" style="fill: #1f77b4; stroke: #1f77b4"/>
     <use xlink:href="#ma8e88de30c" x="149.759572" y="228.944541" style="fill: #1f77b4; stroke: #1f77b4"/>
     <use xlink:href="#ma8e88de30c" x="151.391002" y="230.136235" style="fill: #1f77b4; stroke: #1f77b4"/>
     <use xlink:href="#ma8e88de30c" x="153.022431" y="231.157899" style="fill: #1f77b4; stroke: #1f77b4"/>
     <use xlink:href="#ma8e88de30c" x="154.653861" y="232.411782" style="fill: #1f77b4; stroke: #1f77b4"/>
     <use xlink:href="#ma8e88de30c" x="156.285291" y="233.611833" style="fill: #1f77b4; stroke: #1f77b4"/>
     <use xlink:href="#ma8e88de30c" x="157.916721" y="234.665566" style="fill: #1f77b4; stroke: #1f77b4"/>
     <use xlink:href="#ma8e88de30c" x="159.548151" y="235.669738" style="fill: #1f77b4; stroke: #1f77b4"/>
     <use xlink:href="#ma8e88de30c" x="161.179581" y="236.997127" style="fill: #1f77b4; stroke: #1f77b4"/>
     <use xlink:href="#ma8e88de30c" x="162.811011" y="238.112042" style="fill: #1f77b4; stroke: #1f77b4"/>
     <use xlink:href="#ma8e88de30c" x="164.442441" y="239.269045" style="fill: #1f77b4; stroke: #1f77b4"/>
     <use xlink:href="#ma8e88de30c" x="166.07387" y="240.366828" style="fill: #1f77b4; stroke: #1f77b4"/>
     <use xlink:href="#ma8e88de30c" x="167.7053" y="241.615619" style="fill: #1f77b4; stroke: #1f77b4"/>
     <use xlink:href="#ma8e88de30c" x="169.33673" y="242.694503" style="fill: #1f77b4; stroke: #1f77b4"/>
     <use xlink:href="#ma8e88de30c" x="170.96816" y="243.911672" style="fill: #1f77b4; stroke: #1f77b4"/>
     <use xlink:href="#ma8e88de30c" x="172.59959" y="245.090093" style="fill: #1f77b4; stroke: #1f77b4"/>
     <use xlink:href="#ma8e88de30c" x="174.23102" y="246.245908" style="fill: #1f77b4; stroke: #1f77b4"/>
     <use xlink:href="#ma8e88de30c" x="175.86245" y="247.346284" style="fill: #1f77b4; stroke: #1f77b4"/>
     <use xlink:href="#ma8e88de30c" x="177.49388" y="248.587555" style="fill: #1f77b4; stroke: #1f77b4"/>
     <use xlink:href="#ma8e88de30c" x="179.12531" y="249.583207" style="fill: #1f77b4; stroke: #1f77b4"/>
     <use xlink:href="#ma8e88de30c" x="180.756739" y="250.868933" style="fill: #1f77b4; stroke: #1f77b4"/>
     <use xlink:href="#ma8e88de30c" x="182.388169" y="251.888441" style="fill: #1f77b4; stroke: #1f77b4"/>
     <use xlink:href="#ma8e88de30c" x="184.019599" y="253.123993" style="fill: #1f77b4; stroke: #1f77b4"/>
     <use xlink:href="#ma8e88de30c" x="185.651029" y="254.321304" style="fill: #1f77b4; stroke: #1f77b4"/>
     <use xlink:href="#ma8e88de30c" x="187.282459" y="255.460612" style="fill: #1f77b4; stroke: #1f77b4"/>
     <use xlink:href="#ma8e88de30c" x="188.913889" y="256.494436" style="fill: #1f77b4; stroke: #1f77b4"/>
     <use xlink:href="#ma8e88de30c" x="190.545319" y="257.755911" style="fill: #1f77b4; stroke: #1f77b4"/>
     <use xlink:href="#ma8e88de30c" x="192.176749" y="258.938528" style="fill: #1f77b4; stroke: #1f77b4"/>
     <use xlink:href="#ma8e88de30c" x="193.808178" y="260.067444" style="fill: #1f77b4; stroke: #1f77b4"/>
     <use xlink:href="#ma8e88de30c" x="195.439608" y="261.193953" style="fill: #1f77b4; stroke: #1f77b4"/>
     <use xlink:href="#ma8e88de30c" x="197.071038" y="262.379913" style="fill: #1f77b4; stroke: #1f77b4"/>
     <use xlink:href="#ma8e88de30c" x="198.702468" y="263.44955" style="fill: #1f77b4; stroke: #1f77b4"/>
     <use xlink:href="#ma8e88de30c" x="200.333898" y="264.719979" style="fill: #1f77b4; stroke: #1f77b4"/>
     <use xlink:href="#ma8e88de30c" x="201.965328" y="265.769097" style="fill: #1f77b4; stroke: #1f77b4"/>
     <use xlink:href="#ma8e88de30c" x="203.596758" y="266.938452" style="fill: #1f77b4; stroke: #1f77b4"/>
     <use xlink:href="#ma8e88de30c" x="205.228188" y="268.11783" style="fill: #1f77b4; stroke: #1f77b4"/>
     <use xlink:href="#ma8e88de30c" x="206.859617" y="269.216066" style="fill: #1f77b4; stroke: #1f77b4"/>
     <use xlink:href="#ma8e88de30c" x="208.491047" y="270.397472" style="fill: #1f77b4; stroke: #1f77b4"/>
     <use xlink:href="#ma8e88de30c" x="210.122477" y="271.563758" style="fill: #1f77b4; stroke: #1f77b4"/>
     <use xlink:href="#ma8e88de30c" x="211.753907" y="272.632346" style="fill: #1f77b4; stroke: #1f77b4"/>
     <use xlink:href="#ma8e88de30c" x="213.385337" y="273.857455" style="fill: #1f77b4; stroke: #1f77b4"/>
     <use xlink:href="#ma8e88de30c" x="215.016767" y="274.932204" style="fill: #1f77b4; stroke: #1f77b4"/>
     <use xlink:href="#ma8e88de30c" x="216.648197" y="276.142849" style="fill: #1f77b4; stroke: #1f77b4"/>
     <use xlink:href="#ma8e88de30c" x="218.279627" y="277.327507" style="fill: #1f77b4; stroke: #1f77b4"/>
     <use xlink:href="#ma8e88de30c" x="219.911056" y="278.508305" style="fill: #1f77b4; stroke: #1f77b4"/>
     <use xlink:href="#ma8e88de30c" x="221.542486" y="279.637047" style="fill: #1f77b4; stroke: #1f77b4"/>
     <use xlink:href="#ma8e88de30c" x="223.173916" y="280.814687" style="fill: #1f77b4; stroke: #1f77b4"/>
     <use xlink:href="#ma8e88de30c" x="224.805346" y="281.970562" style="fill: #1f77b4; stroke: #1f77b4"/>
     <use xlink:href="#ma8e88de30c" x="226.436776" y="283.033057" style="fill: #1f77b4; stroke: #1f77b4"/>
     <use xlink:href="#ma8e88de30c" x="228.068206" y="284.235042" style="fill: #1f77b4; stroke: #1f77b4"/>
     <use xlink:href="#ma8e88de30c" x="229.699636" y="285.350544" style="fill: #1f77b4; stroke: #1f77b4"/>
     <use xlink:href="#ma8e88de30c" x="231.331066" y="286.503823" style="fill: #1f77b4; stroke: #1f77b4"/>
     <use xlink:href="#ma8e88de30c" x="232.962495" y="287.64948" style="fill: #1f77b4; stroke: #1f77b4"/>
     <use xlink:href="#ma8e88de30c" x="234.593925" y="288.779998" style="fill: #1f77b4; stroke: #1f77b4"/>
     <use xlink:href="#ma8e88de30c" x="236.225355" y="289.996388" style="fill: #1f77b4; stroke: #1f77b4"/>
     <use xlink:href="#ma8e88de30c" x="237.856785" y="291.219882" style="fill: #1f77b4; stroke: #1f77b4"/>
     <use xlink:href="#ma8e88de30c" x="239.488215" y="292.283493" style="fill: #1f77b4; stroke: #1f77b4"/>
     <use xlink:href="#ma8e88de30c" x="241.119645" y="293.415056" style="fill: #1f77b4; stroke: #1f77b4"/>
     <use xlink:href="#ma8e88de30c" x="242.751075" y="294.605073" style="fill: #1f77b4; stroke: #1f77b4"/>
     <use xlink:href="#ma8e88de30c" x="244.382505" y="295.784781" style="fill: #1f77b4; stroke: #1f77b4"/>
     <use xlink:href="#ma8e88de30c" x="246.013934" y="296.947988" style="fill: #1f77b4; stroke: #1f77b4"/>
     <use xlink:href="#ma8e88de30c" x="247.645364" y="298.051441" style="fill: #1f77b4; stroke: #1f77b4"/>
     <use xlink:href="#ma8e88de30c" x="249.276794" y="299.267867" style="fill: #1f77b4; stroke: #1f77b4"/>
     <use xlink:href="#ma8e88de30c" x="250.908224" y="300.34566" style="fill: #1f77b4; stroke: #1f77b4"/>
     <use xlink:href="#ma8e88de30c" x="252.539654" y="301.466366" style="fill: #1f77b4; stroke: #1f77b4"/>
     <use xlink:href="#ma8e88de30c" x="254.171084" y="192.66952" style="fill: #1f77b4; stroke: #1f77b4"/>
     <use xlink:href="#ma8e88de30c" x="255.802514" y="193.796399" style="fill: #1f77b4; stroke: #1f77b4"/>
     <use xlink:href="#ma8e88de30c" x="257.433944" y="194.957224" style="fill: #1f77b4; stroke: #1f77b4"/>
     <use xlink:href="#ma8e88de30c" x="259.065373" y="196.101898" style="fill: #1f77b4; stroke: #1f77b4"/>
     <use xlink:href="#ma8e88de30c" x="260.696803" y="197.217773" style="fill: #1f77b4; stroke: #1f77b4"/>
     <use xlink:href="#ma8e88de30c" x="262.328233" y="198.473275" style="fill: #1f77b4; stroke: #1f77b4"/>
     <use xlink:href="#ma8e88de30c" x="263.959663" y="199.488344" style="fill: #1f77b4; stroke: #1f77b4"/>
     <use xlink:href="#ma8e88de30c" x="265.591093" y="200.733077" style="fill: #1f77b4; stroke: #1f77b4"/>
     <use xlink:href="#ma8e88de30c" x="267.222523" y="201.877711" style="fill: #1f77b4; stroke: #1f77b4"/>
     <use xlink:href="#ma8e88de30c" x="268.853953" y="202.990198" style="fill: #1f77b4; stroke: #1f77b4"/>
     <use xlink:href="#ma8e88de30c" x="270.485383" y="204.216333" style="fill: #1f77b4; stroke: #1f77b4"/>
     <use xlink:href="#ma8e88de30c" x="272.116812" y="205.351379" style="fill: #1f77b4; stroke: #1f77b4"/>
     <use xlink:href="#ma8e88de30c" x="273.748242" y="206.435588" style="fill: #1f77b4; stroke: #1f77b4"/>
     <use xlink:href="#ma8e88de30c" x="275.379672" y="207.691225" style="fill: #1f77b4; stroke: #1f77b4"/>
     <use xlink:href="#ma8e88de30c" x="277.011102" y="208.833168" style="fill: #1f77b4; stroke: #1f77b4"/>
     <use xlink:href="#ma8e88de30c" x="278.642532" y="209.90059" style="fill: #1f77b4; stroke: #1f77b4"/>
     <use xlink:href="#ma8e88de30c" x="280.273962" y="211.100196" style="fill: #1f77b4; stroke: #1f77b4"/>
     <use xlink:href="#ma8e88de30c" x="281.905392" y="212.256622" style="fill: #1f77b4; stroke: #1f77b4"/>
     <use xlink:href="#ma8e88de30c" x="283.536822" y="213.3811" style="fill: #1f77b4; stroke: #1f77b4"/>
     <use xlink:href="#ma8e88de30c" x="285.168251" y="214.50227" style="fill: #1f77b4; stroke: #1f77b4"/>
     <use xlink:href="#ma8e88de30c" x="286.799681" y="215.704522" style="fill: #1f77b4; stroke: #1f77b4"/>
     <use xlink:href="#ma8e88de30c" x="288.431111" y="216.91823" style="fill: #1f77b4; stroke: #1f77b4"/>
     <use xlink:href="#ma8e88de30c" x="290.062541" y="217.915952" style="fill: #1f77b4; stroke: #1f77b4"/>
     <use xlink:href="#ma8e88de30c" x="291.693971" y="219.177315" style="fill: #1f77b4; stroke: #1f77b4"/>
     <use xlink:href="#ma8e88de30c" x="293.325401" y="220.277692" style="fill: #1f77b4; stroke: #1f77b4"/>
     <use xlink:href="#ma8e88de30c" x="294.956831" y="221.477928" style="fill: #1f77b4; stroke: #1f77b4"/>
     <use xlink:href="#ma8e88de30c" x="296.588261" y="222.699639" style="fill: #1f77b4; stroke: #1f77b4"/>
     <use xlink:href="#ma8e88de30c" x="298.21969" y="223.815088" style="fill: #1f77b4; stroke: #1f77b4"/>
     <use xlink:href="#ma8e88de30c" x="299.85112" y="224.951855" style="fill: #1f77b4; stroke: #1f77b4"/>
     <use xlink:href="#ma8e88de30c" x="301.48255" y="226.059432" style="fill: #1f77b4; stroke: #1f77b4"/>
     <use xlink:href="#ma8e88de30c" x="303.11398" y="227.164175" style="fill: #1f77b4; stroke: #1f77b4"/>
     <use xlink:href="#ma8e88de30c" x="304.74541" y="228.281486" style="fill: #1f77b4; stroke: #1f77b4"/>
     <use xlink:href="#ma8e88de30c" x="306.37684" y="229.54177" style="fill: #1f77b4; stroke: #1f77b4"/>
     <use xlink:href="#ma8e88de30c" x="308.00827" y="230.688301" style="fill: #1f77b4; stroke: #1f77b4"/>
     <use xlink:href="#ma8e88de30c" x="309.6397" y="231.837928" style="fill: #1f77b4; stroke: #1f77b4"/>
     <use xlink:href="#ma8e88de30c" x="311.27113" y="232.988682" style="fill: #1f77b4; stroke: #1f77b4"/>
     <use xlink:href="#ma8e88de30c" x="312.902559" y="234.141068" style="fill: #1f77b4; stroke: #1f77b4"/>
     <use xlink:href="#ma8e88de30c" x="314.533989" y="235.310539" style="fill: #1f77b4; stroke: #1f77b4"/>
     <use xlink:href="#ma8e88de30c" x="316.165419" y="236.476585" style="fill: #1f77b4; stroke: #1f77b4"/>
     <use xlink:href="#ma8e88de30c" x="317.796849" y="237.556644" style="fill: #1f77b4; stroke: #1f77b4"/>
     <use xlink:href="#ma8e88de30c" x="319.428279" y="238.742745" style="fill: #1f77b4; stroke: #1f77b4"/>
     <use xlink:href="#ma8e88de30c" x="321.059709" y="239.835866" style="fill: #1f77b4; stroke: #1f77b4"/>
     <use xlink:href="#ma8e88de30c" x="322.691139" y="240.978612" style="fill: #1f77b4; stroke: #1f77b4"/>
     <use xlink:href="#ma8e88de30c" x="324.322569" y="242.224129" style="fill: #1f77b4; stroke: #1f77b4"/>
     <use xlink:href="#ma8e88de30c" x="325.953998" y="243.328036" style="fill: #1f77b4; stroke: #1f77b4"/>
     <use xlink:href="#ma8e88de30c" x="327.585428" y="244.417156" style="fill: #1f77b4; stroke: #1f77b4"/>
     <use xlink:href="#ma8e88de30c" x="329.216858" y="245.626809" style="fill: #1f77b4; stroke: #1f77b4"/>
     <use xlink:href="#ma8e88de30c" x="330.848288" y="246.817469" style="fill: #1f77b4; stroke: #1f77b4"/>
     <use xlink:href="#ma8e88de30c" x="332.479718" y="247.974964" style="fill: #1f77b4; stroke: #1f77b4"/>
     <use xlink:href="#ma8e88de30c" x="334.111148" y="249.150299" style="fill: #1f77b4; stroke: #1f77b4"/>
     <use xlink:href="#ma8e88de30c" x="335.742578" y="250.28364" style="fill: #1f77b4; stroke: #1f77b4"/>
     <use xlink:href="#ma8e88de30c" x="337.374008" y="251.430697" style="fill: #1f77b4; stroke: #1f77b4"/>
     <use xlink:href="#ma8e88de30c" x="339.005437" y="252.524402" style="fill: #1f77b4; stroke: #1f77b4"/>
     <use xlink:href="#ma8e88de30c" x="340.636867" y="253.773646" style="fill: #1f77b4; stroke: #1f77b4"/>
     <use xlink:href="#ma8e88de30c" x="342.268297" y="254.839038" style="fill: #1f77b4; stroke: #1f77b4"/>
     <use xlink:href="#ma8e88de30c" x="343.899727" y="256.054527" style="fill: #1f77b4; stroke: #1f77b4"/>
     <use xlink:href="#ma8e88de30c" x="345.531157" y="257.207634" style="fill: #1f77b4; stroke: #1f77b4"/>
     <use xlink:href="#ma8e88de30c" x="347.162587" y="258.25223" style="fill: #1f77b4; stroke: #1f77b4"/>
     <use xlink:href="#ma8e88de30c" x="348.794017" y="259.420938" style="fill: #1f77b4; stroke: #1f77b4"/>
     <use xlink:href="#ma8e88de30c" x="350.425447" y="260.582929" style="fill: #1f77b4; stroke: #1f77b4"/>
     <use xlink:href="#ma8e88de30c" x="352.056876" y="261.749892" style="fill: #1f77b4; stroke: #1f77b4"/>
     <use xlink:href="#ma8e88de30c" x="353.688306" y="262.913984" style="fill: #1f77b4; stroke: #1f77b4"/>
     <use xlink:href="#ma8e88de30c" x="355.319736" y="264.04499" style="fill: #1f77b4; stroke: #1f77b4"/>
     <use xlink:href="#ma8e88de30c" x="356.951166" y="265.309562" style="fill: #1f77b4; stroke: #1f77b4"/>
     <use xlink:href="#ma8e88de30c" x="358.582596" y="266.29162" style="fill: #1f77b4; stroke: #1f77b4"/>
     <use xlink:href="#ma8e88de30c" x="360.214026" y="267.514818" style="fill: #1f77b4; stroke: #1f77b4"/>
     <use xlink:href="#ma8e88de30c" x="361.845456" y="268.658828" style="fill: #1f77b4; stroke: #1f77b4"/>
     <use xlink:href="#ma8e88de30c" x="363.476886" y="269.887422" style="fill: #1f77b4; stroke: #1f77b4"/>
     <use xlink:href="#ma8e88de30c" x="365.108315" y="270.949387" style="fill: #1f77b4; stroke: #1f77b4"/>
     <use xlink:href="#ma8e88de30c" x="366.739745" y="272.080792" style="fill: #1f77b4; stroke: #1f77b4"/>
     <use xlink:href="#ma8e88de30c" x="368.371175" y="273.332976" style="fill: #1f77b4; stroke: #1f77b4"/>
     <use xlink:href="#ma8e88de30c" x="370.002605" y="274.531762" style="fill: #1f77b4; stroke: #1f77b4"/>
     <use xlink:href="#ma8e88de30c" x="371.634035" y="275.554432" style="fill: #1f77b4; stroke: #1f77b4"/>
     <use xlink:href="#ma8e88de30c" x="373.265465" y="276.763174" style="fill: #1f77b4; stroke: #1f77b4"/>
     <use xlink:href="#ma8e88de30c" x="374.896895" y="277.931881" style="fill: #1f77b4; stroke: #1f77b4"/>
     <use xlink:href="#ma8e88de30c" x="376.528325" y="278.956729" style="fill: #1f77b4; stroke: #1f77b4"/>
     <use xlink:href="#ma8e88de30c" x="378.159754" y="280.242347" style="fill: #1f77b4; stroke: #1f77b4"/>
     <use xlink:href="#ma8e88de30c" x="379.791184" y="281.420371" style="fill: #1f77b4; stroke: #1f77b4"/>
     <use xlink:href="#ma8e88de30c" x="381.422614" y="282.422207" style="fill: #1f77b4; stroke: #1f77b4"/>
     <use xlink:href="#ma8e88de30c" x="383.054044" y="283.623548" style="fill: #1f77b4; stroke: #1f77b4"/>
     <use xlink:href="#ma8e88de30c" x="384.685474" y="284.755499" style="fill: #1f77b4; stroke: #1f77b4"/>
     <use xlink:href="#ma8e88de30c" x="386.316904" y="285.893993" style="fill: #1f77b4; stroke: #1f77b4"/>
     <use xlink:href="#ma8e88de30c" x="387.948334" y="287.123489" style="fill: #1f77b4; stroke: #1f77b4"/>
     <use xlink:href="#ma8e88de30c" x="389.579764" y="288.242823" style="fill: #1f77b4; stroke: #1f77b4"/>
     <use xlink:href="#ma8e88de30c" x="391.211193" y="289.382475" style="fill: #1f77b4; stroke: #1f77b4"/>
     <use xlink:href="#ma8e88de30c" x="392.842623" y="290.575799" style="fill: #1f77b4; stroke: #1f77b4"/>
     <use xlink:href="#ma8e88de30c" x="394.474053" y="291.774286" style="fill: #1f77b4; stroke: #1f77b4"/>
     <use xlink:href="#ma8e88de30c" x="396.105483" y="292.989608" style="fill: #1f77b4; stroke: #1f77b4"/>
     <use xlink:href="#ma8e88de30c" x="397.736913" y="293.973635" style="fill: #1f77b4; stroke: #1f77b4"/>
     <use xlink:href="#ma8e88de30c" x="399.368343" y="295.150015" style="fill: #1f77b4; stroke: #1f77b4"/>
     <use xlink:href="#ma8e88de30c" x="400.999773" y="296.24691" style="fill: #1f77b4; stroke: #1f77b4"/>
    </g>
   </g>
   <g id="line2d_20">
    <path d="M 76.345227 287.041953 
L 97.793876 302.19353 
L 98.118855 192.410182 
L 253.784048 302.373818 
L 254.109027 192.59047 
L 400.999773 296.35567 
L 400.999773 296.35567 
" clip-path="url(#p05dfbab859)" style="fill: none; stroke: #d62728; stroke-width: 1.5; stroke-linecap: square"/>
   </g>
   <g id="patch_9">
    <path d="M 60.1125 307.872 
L 60.1125 186.912 
" style="fill: none; stroke: #000000; stroke-width: 0.8; stroke-linejoin: miter; stroke-linecap: square"/>
   </g>
   <g id="patch_10">
    <path d="M 417.2325 307.872 
L 417.2325 186.912 
" style="fill: none; stroke: #000000; stroke-width: 0.8; stroke-linejoin: miter; stroke-linecap: square"/>
   </g>
   <g id="patch_11">
    <path d="M 60.1125 307.872 
L 417.2325 307.872 
" style="fill: none; stroke: #000000; stroke-width: 0.8; stroke-linejoin: miter; stroke-linecap: square"/>
   </g>
   <g id="patch_12">
    <path d="M 60.1125 186.912 
L 417.2325 186.912 
" style="fill: none; stroke: #000000; stroke-width: 0.8; stroke-linejoin: miter; stroke-linecap: square"/>
   </g>
  </g>
  <g id="text_17">
   <!-- S21 One-tone -->
   <g transform="translate(191.661563 16.318125) scale(0.12 -0.12)">
    <defs>
     <path id="DejaVuSans-4f" d="M 2522 4238 
Q 1834 4238 1429 3725 
Q 1025 3213 1025 2328 
Q 1025 1447 1429 934 
Q 1834 422 2522 422 
Q 3209 422 3611 934 
Q 4013 1447 4013 2328 
Q 4013 3213 3611 3725 
Q 3209 4238 2522 4238 
z
M 2522 4750 
Q 3503 4750 4090 4092 
Q 4678 3434 4678 2328 
Q 4678 1225 4090 567 
Q 3503 -91 2522 -91 
Q 1538 -91 948 565 
Q 359 1222 359 2328 
Q 359 3434 948 4092 
Q 1538 4750 2522 4750 
z
" transform="scale(0.015625)"/>
     <path id="DejaVuSans-74" d="M 1172 4494 
L 1172 3500 
L 2356 3500 
L 2356 3053 
L 1172 3053 
L 1172 1153 
Q 1172 725 1289 603 
Q 1406 481 1766 481 
L 2356 481 
L 2356 0 
L 1766 0 
Q 1100 0 847 248 
Q 594 497 594 1153 
L 594 3053 
L 172 3053 
L 172 3500 
L 594 3500 
L 594 4494 
L 1172 4494 
z
" transform="scale(0.015625)"/>
     <path id="DejaVuSans-6f" d="M 1959 3097 
Q 1497 3097 1228 2736 
Q 959 2375 959 1747 
Q 959 1119 1226 758 
Q 1494 397 1959 397 
Q 2419 397 2687 759 
Q 2956 1122 2956 1747 
Q 2956 2369 2687 2733 
Q 2419 3097 1959 3097 
z
M 1959 3584 
Q 2709 3584 3137 3096 
Q 3566 2609 3566 1747 
Q 3566 888 3137 398 
Q 2709 -91 1959 -91 
Q 1206 -91 779 398 
Q 353 888 353 1747 
Q 353 2609 779 3096 
Q 1206 3584 1959 3584 
z
" transform="scale(0.015625)"/>
    </defs>
    <use xlink:href="#DejaVuSans-53"/>
    <use xlink:href="#DejaVuSans-32" x="63.476562"/>
    <use xlink:href="#DejaVuSans-31" x="127.099609"/>
    <use xlink:href="#DejaVuSans-20" x="190.722656"/>
    <use xlink:href="#DejaVuSans-4f" x="222.509766"/>
    <use xlink:href="#DejaVuSans-6e" x="301.220703"/>
    <use xlink:href="#DejaVuSans-65" x="364.599609"/>
    <use xlink:href="#DejaVuSans-2d" x="426.123047"/>
    <use xlink:href="#DejaVuSans-74" x="462.207031"/>
    <use xlink:href="#DejaVuSans-6f" x="501.416016"/>
    <use xlink:href="#DejaVuSans-6e" x="562.597656"/>
    <use xlink:href="#DejaVuSans-65" x="625.976562"/>
   </g>
   <!-- tuid: 20240220-145838-432-63a8bf -->
   <g transform="translate(124.911563 29.7555) scale(0.12 -0.12)">
    <defs>
     <path id="DejaVuSans-69" d="M 603 3500 
L 1178 3500 
L 1178 0 
L 603 0 
L 603 3500 
z
M 603 4863 
L 1178 4863 
L 1178 4134 
L 603 4134 
L 603 4863 
z
" transform="scale(0.015625)"/>
     <path id="DejaVuSans-62" d="M 3116 1747 
Q 3116 2381 2855 2742 
Q 2594 3103 2138 3103 
Q 1681 3103 1420 2742 
Q 1159 2381 1159 1747 
Q 1159 1113 1420 752 
Q 1681 391 2138 391 
Q 2594 391 2855 752 
Q 3116 1113 3116 1747 
z
M 1159 2969 
Q 1341 3281 1617 3432 
Q 1894 3584 2278 3584 
Q 2916 3584 3314 3078 
Q 3713 2572 3713 1747 
Q 3713 922 3314 415 
Q 2916 -91 2278 -91 
Q 1894 -91 1617 61 
Q 1341 213 1159 525 
L 1159 0 
L 581 0 
L 581 4863 
L 1159 4863 
L 1159 2969 
z
" transform="scale(0.015625)"/>
     <path id="DejaVuSans-66" d="M 2375 4863 
L 2375 4384 
L 1825 4384 
Q 1516 4384 1395 4259 
Q 1275 4134 1275 3809 
L 1275 3500 
L 2222 3500 
L 2222 3053 
L 1275 3053 
L 1275 0 
L 697 0 
L 697 3053 
L 147 3053 
L 147 3500 
L 697 3500 
L 697 3744 
Q 697 4328 969 4595 
Q 1241 4863 1831 4863 
L 2375 4863 
z
" transform="scale(0.015625)"/>
    </defs>
    <use xlink:href="#DejaVuSans-74"/>
    <use xlink:href="#DejaVuSans-75" x="39.208984"/>
    <use xlink:href="#DejaVuSans-69" x="102.587891"/>
    <use xlink:href="#DejaVuSans-64" x="130.371094"/>
    <use xlink:href="#DejaVuSans-3a" x="193.847656"/>
    <use xlink:href="#DejaVuSans-20" x="227.539062"/>
    <use xlink:href="#DejaVuSans-32" x="259.326172"/>
    <use xlink:href="#DejaVuSans-30" x="322.949219"/>
    <use xlink:href="#DejaVuSans-32" x="386.572266"/>
    <use xlink:href="#DejaVuSans-34" x="450.195312"/>
    <use xlink:href="#DejaVuSans-30" x="513.818359"/>
    <use xlink:href="#DejaVuSans-32" x="577.441406"/>
    <use xlink:href="#DejaVuSans-32" x="641.064453"/>
    <use xlink:href="#DejaVuSans-30" x="704.6875"/>
    <use xlink:href="#DejaVuSans-2d" x="768.310547"/>
    <use xlink:href="#DejaVuSans-31" x="804.394531"/>
    <use xlink:href="#DejaVuSans-34" x="868.017578"/>
    <use xlink:href="#DejaVuSans-35" x="931.640625"/>
    <use xlink:href="#DejaVuSans-38" x="995.263672"/>
    <use xlink:href="#DejaVuSans-33" x="1058.886719"/>
    <use xlink:href="#DejaVuSans-38" x="1122.509766"/>
    <use xlink:href="#DejaVuSans-2d" x="1186.132812"/>
    <use xlink:href="#DejaVuSans-34" x="1222.216797"/>
    <use xlink:href="#DejaVuSans-33" x="1285.839844"/>
    <use xlink:href="#DejaVuSans-32" x="1349.462891"/>
    <use xlink:href="#DejaVuSans-2d" x="1413.085938"/>
    <use xlink:href="#DejaVuSans-36" x="1449.169922"/>
    <use xlink:href="#DejaVuSans-33" x="1512.792969"/>
    <use xlink:href="#DejaVuSans-61" x="1576.416016"/>
    <use xlink:href="#DejaVuSans-38" x="1637.695312"/>
    <use xlink:href="#DejaVuSans-62" x="1701.318359"/>
    <use xlink:href="#DejaVuSans-66" x="1764.794922"/>
   </g>
  </g>
 </g>
 <defs>
  <clipPath id="pe25143d633">
   <rect x="60.1125" y="41.76" width="357.12" height="120.96"/>
  </clipPath>
  <clipPath id="p05dfbab859">
   <rect x="60.1125" y="186.912" width="357.12" height="120.96"/>
  </clipPath>
 </defs>
</svg>
