<?xml version="1.0" encoding="utf-8" standalone="no"?>
<!DOCTYPE svg PUBLIC "-//W3C//DTD SVG 1.1//EN"
  "http://www.w3.org/Graphics/SVG/1.1/DTD/svg11.dtd">
<svg xmlns:xlink="http://www.w3.org/1999/xlink" width="574.765062pt" height="345.42825pt" viewBox="0 0 574.765062 345.42825" xmlns="http://www.w3.org/2000/svg" version="1.1">
 <metadata>
  <rdf:RDF xmlns:dc="http://purl.org/dc/elements/1.1/" xmlns:cc="http://creativecommons.org/ns#" xmlns:rdf="http://www.w3.org/1999/02/22-rdf-syntax-ns#">
   <cc:Work>
    <dc:type rdf:resource="http://purl.org/dc/dcmitype/StillImage"/>
    <dc:date>2024-03-21T18:27:12.934552</dc:date>
    <dc:format>image/svg+xml</dc:format>
    <dc:creator>
     <cc:Agent>
      <dc:title>Matplotlib v3.8.2, https://matplotlib.org/</dc:title>
     </cc:Agent>
    </dc:creator>
   </cc:Work>
  </rdf:RDF>
 </metadata>
 <defs>
  <style type="text/css">*{stroke-linejoin: round; stroke-linecap: butt}</style>
 </defs>
 <g id="figure_1">
  <g id="patch_1">
   <path d="M 0 345.42825 
L 574.765062 345.42825 
L 574.765062 -0 
L 0 -0 
L 0 345.42825 
z
" style="fill: none; opacity: 0"/>
  </g>
  <g id="axes_1">
   <g id="patch_2">
    <path d="M 47.389063 162.72 
L 404.509063 162.72 
L 404.509063 41.76 
L 47.389063 41.76 
z
" style="fill: #ffffff"/>
   </g>
   <g id="matplotlib.axis_1">
    <g id="xtick_1">
     <g id="line2d_1">
      <defs>
       <path id="m7ff66c385b" d="M 0 0 
L 0 3.5 
" style="stroke: #000000; stroke-width: 0.8"/>
      </defs>
      <g>
       <use xlink:href="#m7ff66c385b" x="67.517644" y="162.72" style="stroke: #000000; stroke-width: 0.8"/>
      </g>
     </g>
    </g>
    <g id="xtick_2">
     <g id="line2d_2">
      <g>
       <use xlink:href="#m7ff66c385b" x="108.099463" y="162.72" style="stroke: #000000; stroke-width: 0.8"/>
      </g>
     </g>
    </g>
    <g id="xtick_3">
     <g id="line2d_3">
      <g>
       <use xlink:href="#m7ff66c385b" x="148.681281" y="162.72" style="stroke: #000000; stroke-width: 0.8"/>
      </g>
     </g>
    </g>
    <g id="xtick_4">
     <g id="line2d_4">
      <g>
       <use xlink:href="#m7ff66c385b" x="189.263099" y="162.72" style="stroke: #000000; stroke-width: 0.8"/>
      </g>
     </g>
    </g>
    <g id="xtick_5">
     <g id="line2d_5">
      <g>
       <use xlink:href="#m7ff66c385b" x="229.844917" y="162.72" style="stroke: #000000; stroke-width: 0.8"/>
      </g>
     </g>
    </g>
    <g id="xtick_6">
     <g id="line2d_6">
      <g>
       <use xlink:href="#m7ff66c385b" x="270.426735" y="162.72" style="stroke: #000000; stroke-width: 0.8"/>
      </g>
     </g>
    </g>
    <g id="xtick_7">
     <g id="line2d_7">
      <g>
       <use xlink:href="#m7ff66c385b" x="311.008553" y="162.72" style="stroke: #000000; stroke-width: 0.8"/>
      </g>
     </g>
    </g>
    <g id="xtick_8">
     <g id="line2d_8">
      <g>
       <use xlink:href="#m7ff66c385b" x="351.590372" y="162.72" style="stroke: #000000; stroke-width: 0.8"/>
      </g>
     </g>
    </g>
    <g id="xtick_9">
     <g id="line2d_9">
      <g>
       <use xlink:href="#m7ff66c385b" x="392.17219" y="162.72" style="stroke: #000000; stroke-width: 0.8"/>
      </g>
     </g>
    </g>
   </g>
   <g id="matplotlib.axis_2">
    <g id="ytick_1">
     <g id="line2d_10">
      <defs>
       <path id="mb2619a53c8" d="M 0 0 
L -3.5 0 
" style="stroke: #000000; stroke-width: 0.8"/>
      </defs>
      <g>
       <use xlink:href="#mb2619a53c8" x="47.389063" y="158.031506" style="stroke: #000000; stroke-width: 0.8"/>
      </g>
     </g>
     <g id="text_1">
      <!-- -0.6 -->
      <g transform="translate(20.878125 161.830725) scale(0.1 -0.1)">
       <defs>
        <path id="DejaVuSans-2d" d="M 313 2009 
L 1997 2009 
L 1997 1497 
L 313 1497 
L 313 2009 
z
" transform="scale(0.015625)"/>
        <path id="DejaVuSans-30" d="M 2034 4250 
Q 1547 4250 1301 3770 
Q 1056 3291 1056 2328 
Q 1056 1369 1301 889 
Q 1547 409 2034 409 
Q 2525 409 2770 889 
Q 3016 1369 3016 2328 
Q 3016 3291 2770 3770 
Q 2525 4250 2034 4250 
z
M 2034 4750 
Q 2819 4750 3233 4129 
Q 3647 3509 3647 2328 
Q 3647 1150 3233 529 
Q 2819 -91 2034 -91 
Q 1250 -91 836 529 
Q 422 1150 422 2328 
Q 422 3509 836 4129 
Q 1250 4750 2034 4750 
z
" transform="scale(0.015625)"/>
        <path id="DejaVuSans-2e" d="M 684 794 
L 1344 794 
L 1344 0 
L 684 0 
L 684 794 
z
" transform="scale(0.015625)"/>
        <path id="DejaVuSans-36" d="M 2113 2584 
Q 1688 2584 1439 2293 
Q 1191 2003 1191 1497 
Q 1191 994 1439 701 
Q 1688 409 2113 409 
Q 2538 409 2786 701 
Q 3034 994 3034 1497 
Q 3034 2003 2786 2293 
Q 2538 2584 2113 2584 
z
M 3366 4563 
L 3366 3988 
Q 3128 4100 2886 4159 
Q 2644 4219 2406 4219 
Q 1781 4219 1451 3797 
Q 1122 3375 1075 2522 
Q 1259 2794 1537 2939 
Q 1816 3084 2150 3084 
Q 2853 3084 3261 2657 
Q 3669 2231 3669 1497 
Q 3669 778 3244 343 
Q 2819 -91 2113 -91 
Q 1303 -91 875 529 
Q 447 1150 447 2328 
Q 447 3434 972 4092 
Q 1497 4750 2381 4750 
Q 2619 4750 2861 4703 
Q 3103 4656 3366 4563 
z
" transform="scale(0.015625)"/>
       </defs>
       <use xlink:href="#DejaVuSans-2d"/>
       <use xlink:href="#DejaVuSans-30" x="36.083984"/>
       <use xlink:href="#DejaVuSans-2e" x="99.707031"/>
       <use xlink:href="#DejaVuSans-36" x="131.494141"/>
      </g>
     </g>
    </g>
    <g id="ytick_2">
     <g id="line2d_11">
      <g>
       <use xlink:href="#mb2619a53c8" x="47.389063" y="123.743694" style="stroke: #000000; stroke-width: 0.8"/>
      </g>
     </g>
     <g id="text_2">
      <!-- -0.4 -->
      <g transform="translate(20.878125 127.542913) scale(0.1 -0.1)">
       <defs>
        <path id="DejaVuSans-34" d="M 2419 4116 
L 825 1625 
L 2419 1625 
L 2419 4116 
z
M 2253 4666 
L 3047 4666 
L 3047 1625 
L 3713 1625 
L 3713 1100 
L 3047 1100 
L 3047 0 
L 2419 0 
L 2419 1100 
L 313 1100 
L 313 1709 
L 2253 4666 
z
" transform="scale(0.015625)"/>
       </defs>
       <use xlink:href="#DejaVuSans-2d"/>
       <use xlink:href="#DejaVuSans-30" x="36.083984"/>
       <use xlink:href="#DejaVuSans-2e" x="99.707031"/>
       <use xlink:href="#DejaVuSans-34" x="131.494141"/>
      </g>
     </g>
    </g>
    <g id="ytick_3">
     <g id="line2d_12">
      <g>
       <use xlink:href="#mb2619a53c8" x="47.389063" y="89.455883" style="stroke: #000000; stroke-width: 0.8"/>
      </g>
     </g>
     <g id="text_3">
      <!-- -0.2 -->
      <g transform="translate(20.878125 93.255101) scale(0.1 -0.1)">
       <defs>
        <path id="DejaVuSans-32" d="M 1228 531 
L 3431 531 
L 3431 0 
L 469 0 
L 469 531 
Q 828 903 1448 1529 
Q 2069 2156 2228 2338 
Q 2531 2678 2651 2914 
Q 2772 3150 2772 3378 
Q 2772 3750 2511 3984 
Q 2250 4219 1831 4219 
Q 1534 4219 1204 4116 
Q 875 4013 500 3803 
L 500 4441 
Q 881 4594 1212 4672 
Q 1544 4750 1819 4750 
Q 2544 4750 2975 4387 
Q 3406 4025 3406 3419 
Q 3406 3131 3298 2873 
Q 3191 2616 2906 2266 
Q 2828 2175 2409 1742 
Q 1991 1309 1228 531 
z
" transform="scale(0.015625)"/>
       </defs>
       <use xlink:href="#DejaVuSans-2d"/>
       <use xlink:href="#DejaVuSans-30" x="36.083984"/>
       <use xlink:href="#DejaVuSans-2e" x="99.707031"/>
       <use xlink:href="#DejaVuSans-32" x="131.494141"/>
      </g>
     </g>
    </g>
    <g id="ytick_4">
     <g id="line2d_13">
      <g>
       <use xlink:href="#mb2619a53c8" x="47.389063" y="55.168071" style="stroke: #000000; stroke-width: 0.8"/>
      </g>
     </g>
     <g id="text_4">
      <!-- 0 -->
      <g transform="translate(34.026563 58.96729) scale(0.1 -0.1)">
       <use xlink:href="#DejaVuSans-30"/>
      </g>
     </g>
    </g>
    <g id="text_5">
     <!-- Re$(S_{21})$ [V] -->
     <g transform="translate(14.798438 129.39) rotate(-90) scale(0.1 -0.1)">
      <defs>
       <path id="DejaVuSans-52" d="M 2841 2188 
Q 3044 2119 3236 1894 
Q 3428 1669 3622 1275 
L 4263 0 
L 3584 0 
L 2988 1197 
Q 2756 1666 2539 1819 
Q 2322 1972 1947 1972 
L 1259 1972 
L 1259 0 
L 628 0 
L 628 4666 
L 2053 4666 
Q 2853 4666 3247 4331 
Q 3641 3997 3641 3322 
Q 3641 2881 3436 2590 
Q 3231 2300 2841 2188 
z
M 1259 4147 
L 1259 2491 
L 2053 2491 
Q 2509 2491 2742 2702 
Q 2975 2913 2975 3322 
Q 2975 3731 2742 3939 
Q 2509 4147 2053 4147 
L 1259 4147 
z
" transform="scale(0.015625)"/>
       <path id="DejaVuSans-65" d="M 3597 1894 
L 3597 1613 
L 953 1613 
Q 991 1019 1311 708 
Q 1631 397 2203 397 
Q 2534 397 2845 478 
Q 3156 559 3463 722 
L 3463 178 
Q 3153 47 2828 -22 
Q 2503 -91 2169 -91 
Q 1331 -91 842 396 
Q 353 884 353 1716 
Q 353 2575 817 3079 
Q 1281 3584 2069 3584 
Q 2775 3584 3186 3129 
Q 3597 2675 3597 1894 
z
M 3022 2063 
Q 3016 2534 2758 2815 
Q 2500 3097 2075 3097 
Q 1594 3097 1305 2825 
Q 1016 2553 972 2059 
L 3022 2063 
z
" transform="scale(0.015625)"/>
       <path id="DejaVuSans-28" d="M 1984 4856 
Q 1566 4138 1362 3434 
Q 1159 2731 1159 2009 
Q 1159 1288 1364 580 
Q 1569 -128 1984 -844 
L 1484 -844 
Q 1016 -109 783 600 
Q 550 1309 550 2009 
Q 550 2706 781 3412 
Q 1013 4119 1484 4856 
L 1984 4856 
z
" transform="scale(0.015625)"/>
       <path id="DejaVuSans-Oblique-53" d="M 3859 4513 
L 3738 3897 
Q 3422 4066 3111 4152 
Q 2800 4238 2509 4238 
Q 1944 4238 1609 3991 
Q 1275 3744 1275 3334 
Q 1275 3109 1398 2989 
Q 1522 2869 2034 2731 
L 2413 2638 
Q 3053 2472 3303 2217 
Q 3553 1963 3553 1503 
Q 3553 797 2998 353 
Q 2444 -91 1538 -91 
Q 1166 -91 791 -17 
Q 416 56 38 206 
L 166 856 
Q 513 641 861 531 
Q 1209 422 1556 422 
Q 2147 422 2503 684 
Q 2859 947 2859 1369 
Q 2859 1650 2717 1795 
Q 2575 1941 2106 2059 
L 1728 2156 
Q 1081 2325 845 2545 
Q 609 2766 609 3163 
Q 609 3859 1145 4304 
Q 1681 4750 2541 4750 
Q 2875 4750 3203 4690 
Q 3531 4631 3859 4513 
z
" transform="scale(0.015625)"/>
       <path id="DejaVuSans-31" d="M 794 531 
L 1825 531 
L 1825 4091 
L 703 3866 
L 703 4441 
L 1819 4666 
L 2450 4666 
L 2450 531 
L 3481 531 
L 3481 0 
L 794 0 
L 794 531 
z
" transform="scale(0.015625)"/>
       <path id="DejaVuSans-29" d="M 513 4856 
L 1013 4856 
Q 1481 4119 1714 3412 
Q 1947 2706 1947 2009 
Q 1947 1309 1714 600 
Q 1481 -109 1013 -844 
L 513 -844 
Q 928 -128 1133 580 
Q 1338 1288 1338 2009 
Q 1338 2731 1133 3434 
Q 928 4138 513 4856 
z
" transform="scale(0.015625)"/>
       <path id="DejaVuSans-20" transform="scale(0.015625)"/>
       <path id="DejaVuSans-5b" d="M 550 4863 
L 1875 4863 
L 1875 4416 
L 1125 4416 
L 1125 -397 
L 1875 -397 
L 1875 -844 
L 550 -844 
L 550 4863 
z
" transform="scale(0.015625)"/>
       <path id="DejaVuSans-56" d="M 1831 0 
L 50 4666 
L 709 4666 
L 2188 738 
L 3669 4666 
L 4325 4666 
L 2547 0 
L 1831 0 
z
" transform="scale(0.015625)"/>
       <path id="DejaVuSans-5d" d="M 1947 4863 
L 1947 -844 
L 622 -844 
L 622 -397 
L 1369 -397 
L 1369 4416 
L 622 4416 
L 622 4863 
L 1947 4863 
z
" transform="scale(0.015625)"/>
      </defs>
      <use xlink:href="#DejaVuSans-52" transform="translate(0 0.015625)"/>
      <use xlink:href="#DejaVuSans-65" transform="translate(69.482422 0.015625)"/>
      <use xlink:href="#DejaVuSans-28" transform="translate(131.005859 0.015625)"/>
      <use xlink:href="#DejaVuSans-Oblique-53" transform="translate(170.019531 0.015625)"/>
      <use xlink:href="#DejaVuSans-32" transform="translate(233.496094 -16.390625) scale(0.7)"/>
      <use xlink:href="#DejaVuSans-31" transform="translate(278.032227 -16.390625) scale(0.7)"/>
      <use xlink:href="#DejaVuSans-29" transform="translate(325.302734 0.015625)"/>
      <use xlink:href="#DejaVuSans-20" transform="translate(364.316406 0.015625)"/>
      <use xlink:href="#DejaVuSans-5b" transform="translate(396.103516 0.015625)"/>
      <use xlink:href="#DejaVuSans-56" transform="translate(435.117188 0.015625)"/>
      <use xlink:href="#DejaVuSans-5d" transform="translate(503.525391 0.015625)"/>
     </g>
    </g>
   </g>
   <g id="line2d_14">
    <path d="M 63.62179 47.258182 
L 66.88465 49.627051 
L 76.673229 56.355781 
L 83.198948 60.831072 
L 101.144677 73.258814 
L 132.141845 95.201817 
L 145.193284 104.737279 
L 154.981863 112.166208 
L 164.770442 119.968353 
L 169.664732 124.080617 
L 176.190451 129.793327 
L 182.716171 135.988617 
L 189.24189 142.578326 
L 195.76761 149.35832 
L 199.03047 152.488013 
L 200.661899 153.815574 
L 202.293329 154.888539 
L 203.924759 155.594957 
L 205.556189 155.774197 
L 207.187619 155.254694 
L 208.819049 153.763209 
L 210.450479 151.04075 
L 212.081909 146.832001 
L 213.713338 140.940823 
L 215.344768 133.339166 
L 216.976198 124.123531 
L 220.239058 102.645326 
L 221.870488 91.797336 
L 223.501918 81.97928 
L 225.133348 73.844453 
L 226.764777 67.926116 
L 228.396207 64.2822 
L 230.027637 62.590088 
L 231.659067 62.447263 
L 233.290497 63.376447 
L 234.921927 65.026803 
L 236.553357 67.163973 
L 239.816216 72.295225 
L 246.341936 82.712826 
L 249.604796 87.247072 
L 252.867655 91.453203 
L 256.130515 95.169673 
L 259.393375 98.520848 
L 262.656235 101.478558 
L 265.919094 104.200686 
L 269.181954 106.638011 
L 272.444814 108.82695 
L 277.339104 111.762028 
L 282.233393 114.313931 
L 287.127683 116.564306 
L 290.390543 117.952527 
L 296.916262 120.34151 
L 303.441982 122.405878 
L 308.336271 123.750057 
L 314.861991 125.316476 
L 323.01914 126.886275 
L 329.54486 127.906684 
L 337.702009 128.875998 
L 345.859158 129.575169 
L 355.647738 130.009342 
L 362.173457 130.139615 
L 373.593466 129.917876 
L 385.013475 129.230366 
L 388.276335 128.95693 
L 388.276335 128.95693 
" clip-path="url(#pe906b4296a)" style="fill: none; stroke: #1f77b4; stroke-width: 1.5; stroke-linecap: square"/>
    <defs>
     <path id="m0a41eaf609" d="M 0 1.5 
C 0.397805 1.5 0.77937 1.341951 1.06066 1.06066 
C 1.341951 0.77937 1.5 0.397805 1.5 0 
C 1.5 -0.397805 1.341951 -0.77937 1.06066 -1.06066 
C 0.77937 -1.341951 0.397805 -1.5 0 -1.5 
C -0.397805 -1.5 -0.77937 -1.341951 -1.06066 -1.06066 
C -1.341951 -0.77937 -1.5 -0.397805 -1.5 0 
C -1.5 0.397805 -1.341951 0.77937 -1.06066 1.06066 
C -0.77937 1.341951 -0.397805 1.5 0 1.5 
z
" style="stroke: #1f77b4"/>
    </defs>
    <g clip-path="url(#pe906b4296a)">
     <use xlink:href="#m0a41eaf609" x="63.62179" y="47.258182" style="fill: #1f77b4; stroke: #1f77b4"/>
     <use xlink:href="#m0a41eaf609" x="65.25322" y="48.485719" style="fill: #1f77b4; stroke: #1f77b4"/>
     <use xlink:href="#m0a41eaf609" x="66.88465" y="49.627051" style="fill: #1f77b4; stroke: #1f77b4"/>
     <use xlink:href="#m0a41eaf609" x="68.516079" y="50.763587" style="fill: #1f77b4; stroke: #1f77b4"/>
     <use xlink:href="#m0a41eaf609" x="70.147509" y="51.880433" style="fill: #1f77b4; stroke: #1f77b4"/>
     <use xlink:href="#m0a41eaf609" x="71.778939" y="53.011893" style="fill: #1f77b4; stroke: #1f77b4"/>
     <use xlink:href="#m0a41eaf609" x="73.410369" y="54.119623" style="fill: #1f77b4; stroke: #1f77b4"/>
     <use xlink:href="#m0a41eaf609" x="75.041799" y="55.231382" style="fill: #1f77b4; stroke: #1f77b4"/>
     <use xlink:href="#m0a41eaf609" x="76.673229" y="56.355781" style="fill: #1f77b4; stroke: #1f77b4"/>
     <use xlink:href="#m0a41eaf609" x="78.304659" y="57.44259" style="fill: #1f77b4; stroke: #1f77b4"/>
     <use xlink:href="#m0a41eaf609" x="79.936089" y="58.565796" style="fill: #1f77b4; stroke: #1f77b4"/>
     <use xlink:href="#m0a41eaf609" x="81.567518" y="59.709923" style="fill: #1f77b4; stroke: #1f77b4"/>
     <use xlink:href="#m0a41eaf609" x="83.198948" y="60.831072" style="fill: #1f77b4; stroke: #1f77b4"/>
     <use xlink:href="#m0a41eaf609" x="84.830378" y="61.950503" style="fill: #1f77b4; stroke: #1f77b4"/>
     <use xlink:href="#m0a41eaf609" x="86.461808" y="63.078063" style="fill: #1f77b4; stroke: #1f77b4"/>
     <use xlink:href="#m0a41eaf609" x="88.093238" y="64.173165" style="fill: #1f77b4; stroke: #1f77b4"/>
     <use xlink:href="#m0a41eaf609" x="89.724668" y="65.339777" style="fill: #1f77b4; stroke: #1f77b4"/>
     <use xlink:href="#m0a41eaf609" x="91.356098" y="66.47758" style="fill: #1f77b4; stroke: #1f77b4"/>
     <use xlink:href="#m0a41eaf609" x="92.987528" y="67.603633" style="fill: #1f77b4; stroke: #1f77b4"/>
     <use xlink:href="#m0a41eaf609" x="94.618957" y="68.725873" style="fill: #1f77b4; stroke: #1f77b4"/>
     <use xlink:href="#m0a41eaf609" x="96.250387" y="69.844013" style="fill: #1f77b4; stroke: #1f77b4"/>
     <use xlink:href="#m0a41eaf609" x="97.881817" y="70.967686" style="fill: #1f77b4; stroke: #1f77b4"/>
     <use xlink:href="#m0a41eaf609" x="99.513247" y="72.11461" style="fill: #1f77b4; stroke: #1f77b4"/>
     <use xlink:href="#m0a41eaf609" x="101.144677" y="73.258814" style="fill: #1f77b4; stroke: #1f77b4"/>
     <use xlink:href="#m0a41eaf609" x="102.776107" y="74.406966" style="fill: #1f77b4; stroke: #1f77b4"/>
     <use xlink:href="#m0a41eaf609" x="104.407537" y="75.545116" style="fill: #1f77b4; stroke: #1f77b4"/>
     <use xlink:href="#m0a41eaf609" x="106.038967" y="76.674872" style="fill: #1f77b4; stroke: #1f77b4"/>
     <use xlink:href="#m0a41eaf609" x="107.670396" y="77.847722" style="fill: #1f77b4; stroke: #1f77b4"/>
     <use xlink:href="#m0a41eaf609" x="109.301826" y="78.973179" style="fill: #1f77b4; stroke: #1f77b4"/>
     <use xlink:href="#m0a41eaf609" x="110.933256" y="80.163947" style="fill: #1f77b4; stroke: #1f77b4"/>
     <use xlink:href="#m0a41eaf609" x="112.564686" y="81.261329" style="fill: #1f77b4; stroke: #1f77b4"/>
     <use xlink:href="#m0a41eaf609" x="114.196116" y="82.440883" style="fill: #1f77b4; stroke: #1f77b4"/>
     <use xlink:href="#m0a41eaf609" x="115.827546" y="83.608311" style="fill: #1f77b4; stroke: #1f77b4"/>
     <use xlink:href="#m0a41eaf609" x="117.458976" y="84.74768" style="fill: #1f77b4; stroke: #1f77b4"/>
     <use xlink:href="#m0a41eaf609" x="119.090406" y="85.888522" style="fill: #1f77b4; stroke: #1f77b4"/>
     <use xlink:href="#m0a41eaf609" x="120.721835" y="87.063769" style="fill: #1f77b4; stroke: #1f77b4"/>
     <use xlink:href="#m0a41eaf609" x="122.353265" y="88.245807" style="fill: #1f77b4; stroke: #1f77b4"/>
     <use xlink:href="#m0a41eaf609" x="123.984695" y="89.389213" style="fill: #1f77b4; stroke: #1f77b4"/>
     <use xlink:href="#m0a41eaf609" x="125.616125" y="90.525124" style="fill: #1f77b4; stroke: #1f77b4"/>
     <use xlink:href="#m0a41eaf609" x="127.247555" y="91.695998" style="fill: #1f77b4; stroke: #1f77b4"/>
     <use xlink:href="#m0a41eaf609" x="128.878985" y="92.861147" style="fill: #1f77b4; stroke: #1f77b4"/>
     <use xlink:href="#m0a41eaf609" x="130.510415" y="94.048416" style="fill: #1f77b4; stroke: #1f77b4"/>
     <use xlink:href="#m0a41eaf609" x="132.141845" y="95.201817" style="fill: #1f77b4; stroke: #1f77b4"/>
     <use xlink:href="#m0a41eaf609" x="133.773274" y="96.377316" style="fill: #1f77b4; stroke: #1f77b4"/>
     <use xlink:href="#m0a41eaf609" x="135.404704" y="97.556907" style="fill: #1f77b4; stroke: #1f77b4"/>
     <use xlink:href="#m0a41eaf609" x="137.036134" y="98.739214" style="fill: #1f77b4; stroke: #1f77b4"/>
     <use xlink:href="#m0a41eaf609" x="138.667564" y="99.948445" style="fill: #1f77b4; stroke: #1f77b4"/>
     <use xlink:href="#m0a41eaf609" x="140.298994" y="101.136991" style="fill: #1f77b4; stroke: #1f77b4"/>
     <use xlink:href="#m0a41eaf609" x="141.930424" y="102.365224" style="fill: #1f77b4; stroke: #1f77b4"/>
     <use xlink:href="#m0a41eaf609" x="143.561854" y="103.528951" style="fill: #1f77b4; stroke: #1f77b4"/>
     <use xlink:href="#m0a41eaf609" x="145.193284" y="104.737279" style="fill: #1f77b4; stroke: #1f77b4"/>
     <use xlink:href="#m0a41eaf609" x="146.824713" y="105.958798" style="fill: #1f77b4; stroke: #1f77b4"/>
     <use xlink:href="#m0a41eaf609" x="148.456143" y="107.189002" style="fill: #1f77b4; stroke: #1f77b4"/>
     <use xlink:href="#m0a41eaf609" x="150.087573" y="108.432057" style="fill: #1f77b4; stroke: #1f77b4"/>
     <use xlink:href="#m0a41eaf609" x="151.719003" y="109.665582" style="fill: #1f77b4; stroke: #1f77b4"/>
     <use xlink:href="#m0a41eaf609" x="153.350433" y="110.918556" style="fill: #1f77b4; stroke: #1f77b4"/>
     <use xlink:href="#m0a41eaf609" x="154.981863" y="112.166208" style="fill: #1f77b4; stroke: #1f77b4"/>
     <use xlink:href="#m0a41eaf609" x="156.613293" y="113.444428" style="fill: #1f77b4; stroke: #1f77b4"/>
     <use xlink:href="#m0a41eaf609" x="158.244723" y="114.725733" style="fill: #1f77b4; stroke: #1f77b4"/>
     <use xlink:href="#m0a41eaf609" x="159.876152" y="116.016587" style="fill: #1f77b4; stroke: #1f77b4"/>
     <use xlink:href="#m0a41eaf609" x="161.507582" y="117.298621" style="fill: #1f77b4; stroke: #1f77b4"/>
     <use xlink:href="#m0a41eaf609" x="163.139012" y="118.629741" style="fill: #1f77b4; stroke: #1f77b4"/>
     <use xlink:href="#m0a41eaf609" x="164.770442" y="119.968353" style="fill: #1f77b4; stroke: #1f77b4"/>
     <use xlink:href="#m0a41eaf609" x="166.401872" y="121.299159" style="fill: #1f77b4; stroke: #1f77b4"/>
     <use xlink:href="#m0a41eaf609" x="168.033302" y="122.689444" style="fill: #1f77b4; stroke: #1f77b4"/>
     <use xlink:href="#m0a41eaf609" x="169.664732" y="124.080617" style="fill: #1f77b4; stroke: #1f77b4"/>
     <use xlink:href="#m0a41eaf609" x="171.296162" y="125.476086" style="fill: #1f77b4; stroke: #1f77b4"/>
     <use xlink:href="#m0a41eaf609" x="172.927592" y="126.882612" style="fill: #1f77b4; stroke: #1f77b4"/>
     <use xlink:href="#m0a41eaf609" x="174.559021" y="128.319455" style="fill: #1f77b4; stroke: #1f77b4"/>
     <use xlink:href="#m0a41eaf609" x="176.190451" y="129.793327" style="fill: #1f77b4; stroke: #1f77b4"/>
     <use xlink:href="#m0a41eaf609" x="177.821881" y="131.316878" style="fill: #1f77b4; stroke: #1f77b4"/>
     <use xlink:href="#m0a41eaf609" x="179.453311" y="132.83278" style="fill: #1f77b4; stroke: #1f77b4"/>
     <use xlink:href="#m0a41eaf609" x="181.084741" y="134.396774" style="fill: #1f77b4; stroke: #1f77b4"/>
     <use xlink:href="#m0a41eaf609" x="182.716171" y="135.988617" style="fill: #1f77b4; stroke: #1f77b4"/>
     <use xlink:href="#m0a41eaf609" x="184.347601" y="137.60556" style="fill: #1f77b4; stroke: #1f77b4"/>
     <use xlink:href="#m0a41eaf609" x="185.979031" y="139.234723" style="fill: #1f77b4; stroke: #1f77b4"/>
     <use xlink:href="#m0a41eaf609" x="187.61046" y="140.926256" style="fill: #1f77b4; stroke: #1f77b4"/>
     <use xlink:href="#m0a41eaf609" x="189.24189" y="142.578326" style="fill: #1f77b4; stroke: #1f77b4"/>
     <use xlink:href="#m0a41eaf609" x="190.87332" y="144.308015" style="fill: #1f77b4; stroke: #1f77b4"/>
     <use xlink:href="#m0a41eaf609" x="192.50475" y="146.0378" style="fill: #1f77b4; stroke: #1f77b4"/>
     <use xlink:href="#m0a41eaf609" x="194.13618" y="147.69653" style="fill: #1f77b4; stroke: #1f77b4"/>
     <use xlink:href="#m0a41eaf609" x="195.76761" y="149.35832" style="fill: #1f77b4; stroke: #1f77b4"/>
     <use xlink:href="#m0a41eaf609" x="197.39904" y="150.971928" style="fill: #1f77b4; stroke: #1f77b4"/>
     <use xlink:href="#m0a41eaf609" x="199.03047" y="152.488013" style="fill: #1f77b4; stroke: #1f77b4"/>
     <use xlink:href="#m0a41eaf609" x="200.661899" y="153.815574" style="fill: #1f77b4; stroke: #1f77b4"/>
     <use xlink:href="#m0a41eaf609" x="202.293329" y="154.888539" style="fill: #1f77b4; stroke: #1f77b4"/>
     <use xlink:href="#m0a41eaf609" x="203.924759" y="155.594957" style="fill: #1f77b4; stroke: #1f77b4"/>
     <use xlink:href="#m0a41eaf609" x="205.556189" y="155.774197" style="fill: #1f77b4; stroke: #1f77b4"/>
     <use xlink:href="#m0a41eaf609" x="207.187619" y="155.254694" style="fill: #1f77b4; stroke: #1f77b4"/>
     <use xlink:href="#m0a41eaf609" x="208.819049" y="153.763209" style="fill: #1f77b4; stroke: #1f77b4"/>
     <use xlink:href="#m0a41eaf609" x="210.450479" y="151.04075" style="fill: #1f77b4; stroke: #1f77b4"/>
     <use xlink:href="#m0a41eaf609" x="212.081909" y="146.832001" style="fill: #1f77b4; stroke: #1f77b4"/>
     <use xlink:href="#m0a41eaf609" x="213.713338" y="140.940823" style="fill: #1f77b4; stroke: #1f77b4"/>
     <use xlink:href="#m0a41eaf609" x="215.344768" y="133.339166" style="fill: #1f77b4; stroke: #1f77b4"/>
     <use xlink:href="#m0a41eaf609" x="216.976198" y="124.123531" style="fill: #1f77b4; stroke: #1f77b4"/>
     <use xlink:href="#m0a41eaf609" x="218.607628" y="113.721838" style="fill: #1f77b4; stroke: #1f77b4"/>
     <use xlink:href="#m0a41eaf609" x="220.239058" y="102.645326" style="fill: #1f77b4; stroke: #1f77b4"/>
     <use xlink:href="#m0a41eaf609" x="221.870488" y="91.797336" style="fill: #1f77b4; stroke: #1f77b4"/>
     <use xlink:href="#m0a41eaf609" x="223.501918" y="81.97928" style="fill: #1f77b4; stroke: #1f77b4"/>
     <use xlink:href="#m0a41eaf609" x="225.133348" y="73.844453" style="fill: #1f77b4; stroke: #1f77b4"/>
     <use xlink:href="#m0a41eaf609" x="226.764777" y="67.926116" style="fill: #1f77b4; stroke: #1f77b4"/>
     <use xlink:href="#m0a41eaf609" x="228.396207" y="64.2822" style="fill: #1f77b4; stroke: #1f77b4"/>
     <use xlink:href="#m0a41eaf609" x="230.027637" y="62.590088" style="fill: #1f77b4; stroke: #1f77b4"/>
     <use xlink:href="#m0a41eaf609" x="231.659067" y="62.447263" style="fill: #1f77b4; stroke: #1f77b4"/>
     <use xlink:href="#m0a41eaf609" x="233.290497" y="63.376447" style="fill: #1f77b4; stroke: #1f77b4"/>
     <use xlink:href="#m0a41eaf609" x="234.921927" y="65.026803" style="fill: #1f77b4; stroke: #1f77b4"/>
     <use xlink:href="#m0a41eaf609" x="236.553357" y="67.163973" style="fill: #1f77b4; stroke: #1f77b4"/>
     <use xlink:href="#m0a41eaf609" x="238.184787" y="69.660104" style="fill: #1f77b4; stroke: #1f77b4"/>
     <use xlink:href="#m0a41eaf609" x="239.816216" y="72.295225" style="fill: #1f77b4; stroke: #1f77b4"/>
     <use xlink:href="#m0a41eaf609" x="241.447646" y="74.935668" style="fill: #1f77b4; stroke: #1f77b4"/>
     <use xlink:href="#m0a41eaf609" x="243.079076" y="77.589727" style="fill: #1f77b4; stroke: #1f77b4"/>
     <use xlink:href="#m0a41eaf609" x="244.710506" y="80.183368" style="fill: #1f77b4; stroke: #1f77b4"/>
     <use xlink:href="#m0a41eaf609" x="246.341936" y="82.712826" style="fill: #1f77b4; stroke: #1f77b4"/>
     <use xlink:href="#m0a41eaf609" x="247.973366" y="85.051903" style="fill: #1f77b4; stroke: #1f77b4"/>
     <use xlink:href="#m0a41eaf609" x="249.604796" y="87.247072" style="fill: #1f77b4; stroke: #1f77b4"/>
     <use xlink:href="#m0a41eaf609" x="251.236226" y="89.442437" style="fill: #1f77b4; stroke: #1f77b4"/>
     <use xlink:href="#m0a41eaf609" x="252.867655" y="91.453203" style="fill: #1f77b4; stroke: #1f77b4"/>
     <use xlink:href="#m0a41eaf609" x="254.499085" y="93.387356" style="fill: #1f77b4; stroke: #1f77b4"/>
     <use xlink:href="#m0a41eaf609" x="256.130515" y="95.169673" style="fill: #1f77b4; stroke: #1f77b4"/>
     <use xlink:href="#m0a41eaf609" x="257.761945" y="96.910287" style="fill: #1f77b4; stroke: #1f77b4"/>
     <use xlink:href="#m0a41eaf609" x="259.393375" y="98.520848" style="fill: #1f77b4; stroke: #1f77b4"/>
     <use xlink:href="#m0a41eaf609" x="261.024805" y="100.034227" style="fill: #1f77b4; stroke: #1f77b4"/>
     <use xlink:href="#m0a41eaf609" x="262.656235" y="101.478558" style="fill: #1f77b4; stroke: #1f77b4"/>
     <use xlink:href="#m0a41eaf609" x="264.287665" y="102.906675" style="fill: #1f77b4; stroke: #1f77b4"/>
     <use xlink:href="#m0a41eaf609" x="265.919094" y="104.200686" style="fill: #1f77b4; stroke: #1f77b4"/>
     <use xlink:href="#m0a41eaf609" x="267.550524" y="105.463832" style="fill: #1f77b4; stroke: #1f77b4"/>
     <use xlink:href="#m0a41eaf609" x="269.181954" y="106.638011" style="fill: #1f77b4; stroke: #1f77b4"/>
     <use xlink:href="#m0a41eaf609" x="270.813384" y="107.761302" style="fill: #1f77b4; stroke: #1f77b4"/>
     <use xlink:href="#m0a41eaf609" x="272.444814" y="108.82695" style="fill: #1f77b4; stroke: #1f77b4"/>
     <use xlink:href="#m0a41eaf609" x="274.076244" y="109.836843" style="fill: #1f77b4; stroke: #1f77b4"/>
     <use xlink:href="#m0a41eaf609" x="275.707674" y="110.825049" style="fill: #1f77b4; stroke: #1f77b4"/>
     <use xlink:href="#m0a41eaf609" x="277.339104" y="111.762028" style="fill: #1f77b4; stroke: #1f77b4"/>
     <use xlink:href="#m0a41eaf609" x="278.970533" y="112.65304" style="fill: #1f77b4; stroke: #1f77b4"/>
     <use xlink:href="#m0a41eaf609" x="280.601963" y="113.486036" style="fill: #1f77b4; stroke: #1f77b4"/>
     <use xlink:href="#m0a41eaf609" x="282.233393" y="114.313931" style="fill: #1f77b4; stroke: #1f77b4"/>
     <use xlink:href="#m0a41eaf609" x="283.864823" y="115.094765" style="fill: #1f77b4; stroke: #1f77b4"/>
     <use xlink:href="#m0a41eaf609" x="285.496253" y="115.874257" style="fill: #1f77b4; stroke: #1f77b4"/>
     <use xlink:href="#m0a41eaf609" x="287.127683" y="116.564306" style="fill: #1f77b4; stroke: #1f77b4"/>
     <use xlink:href="#m0a41eaf609" x="288.759113" y="117.276125" style="fill: #1f77b4; stroke: #1f77b4"/>
     <use xlink:href="#m0a41eaf609" x="290.390543" y="117.952527" style="fill: #1f77b4; stroke: #1f77b4"/>
     <use xlink:href="#m0a41eaf609" x="292.021973" y="118.562733" style="fill: #1f77b4; stroke: #1f77b4"/>
     <use xlink:href="#m0a41eaf609" x="293.653402" y="119.199506" style="fill: #1f77b4; stroke: #1f77b4"/>
     <use xlink:href="#m0a41eaf609" x="295.284832" y="119.7731" style="fill: #1f77b4; stroke: #1f77b4"/>
     <use xlink:href="#m0a41eaf609" x="296.916262" y="120.34151" style="fill: #1f77b4; stroke: #1f77b4"/>
     <use xlink:href="#m0a41eaf609" x="298.547692" y="120.87614" style="fill: #1f77b4; stroke: #1f77b4"/>
     <use xlink:href="#m0a41eaf609" x="300.179122" y="121.418523" style="fill: #1f77b4; stroke: #1f77b4"/>
     <use xlink:href="#m0a41eaf609" x="301.810552" y="121.950081" style="fill: #1f77b4; stroke: #1f77b4"/>
     <use xlink:href="#m0a41eaf609" x="303.441982" y="122.405878" style="fill: #1f77b4; stroke: #1f77b4"/>
     <use xlink:href="#m0a41eaf609" x="305.073412" y="122.890723" style="fill: #1f77b4; stroke: #1f77b4"/>
     <use xlink:href="#m0a41eaf609" x="306.704841" y="123.30533" style="fill: #1f77b4; stroke: #1f77b4"/>
     <use xlink:href="#m0a41eaf609" x="308.336271" y="123.750057" style="fill: #1f77b4; stroke: #1f77b4"/>
     <use xlink:href="#m0a41eaf609" x="309.967701" y="124.168156" style="fill: #1f77b4; stroke: #1f77b4"/>
     <use xlink:href="#m0a41eaf609" x="311.599131" y="124.55683" style="fill: #1f77b4; stroke: #1f77b4"/>
     <use xlink:href="#m0a41eaf609" x="313.230561" y="124.9389" style="fill: #1f77b4; stroke: #1f77b4"/>
     <use xlink:href="#m0a41eaf609" x="314.861991" y="125.316476" style="fill: #1f77b4; stroke: #1f77b4"/>
     <use xlink:href="#m0a41eaf609" x="316.493421" y="125.645668" style="fill: #1f77b4; stroke: #1f77b4"/>
     <use xlink:href="#m0a41eaf609" x="318.124851" y="125.98043" style="fill: #1f77b4; stroke: #1f77b4"/>
     <use xlink:href="#m0a41eaf609" x="319.75628" y="126.285362" style="fill: #1f77b4; stroke: #1f77b4"/>
     <use xlink:href="#m0a41eaf609" x="321.38771" y="126.594282" style="fill: #1f77b4; stroke: #1f77b4"/>
     <use xlink:href="#m0a41eaf609" x="323.01914" y="126.886275" style="fill: #1f77b4; stroke: #1f77b4"/>
     <use xlink:href="#m0a41eaf609" x="324.65057" y="127.160153" style="fill: #1f77b4; stroke: #1f77b4"/>
     <use xlink:href="#m0a41eaf609" x="326.282" y="127.417028" style="fill: #1f77b4; stroke: #1f77b4"/>
     <use xlink:href="#m0a41eaf609" x="327.91343" y="127.68277" style="fill: #1f77b4; stroke: #1f77b4"/>
     <use xlink:href="#m0a41eaf609" x="329.54486" y="127.906684" style="fill: #1f77b4; stroke: #1f77b4"/>
     <use xlink:href="#m0a41eaf609" x="331.17629" y="128.117231" style="fill: #1f77b4; stroke: #1f77b4"/>
     <use xlink:href="#m0a41eaf609" x="332.807719" y="128.325703" style="fill: #1f77b4; stroke: #1f77b4"/>
     <use xlink:href="#m0a41eaf609" x="334.439149" y="128.519844" style="fill: #1f77b4; stroke: #1f77b4"/>
     <use xlink:href="#m0a41eaf609" x="336.070579" y="128.7096" style="fill: #1f77b4; stroke: #1f77b4"/>
     <use xlink:href="#m0a41eaf609" x="337.702009" y="128.875998" style="fill: #1f77b4; stroke: #1f77b4"/>
     <use xlink:href="#m0a41eaf609" x="339.333439" y="129.031817" style="fill: #1f77b4; stroke: #1f77b4"/>
     <use xlink:href="#m0a41eaf609" x="340.964869" y="129.18134" style="fill: #1f77b4; stroke: #1f77b4"/>
     <use xlink:href="#m0a41eaf609" x="342.596299" y="129.327389" style="fill: #1f77b4; stroke: #1f77b4"/>
     <use xlink:href="#m0a41eaf609" x="344.227729" y="129.440233" style="fill: #1f77b4; stroke: #1f77b4"/>
     <use xlink:href="#m0a41eaf609" x="345.859158" y="129.575169" style="fill: #1f77b4; stroke: #1f77b4"/>
     <use xlink:href="#m0a41eaf609" x="347.490588" y="129.661763" style="fill: #1f77b4; stroke: #1f77b4"/>
     <use xlink:href="#m0a41eaf609" x="349.122018" y="129.756441" style="fill: #1f77b4; stroke: #1f77b4"/>
     <use xlink:href="#m0a41eaf609" x="350.753448" y="129.871714" style="fill: #1f77b4; stroke: #1f77b4"/>
     <use xlink:href="#m0a41eaf609" x="352.384878" y="129.905224" style="fill: #1f77b4; stroke: #1f77b4"/>
     <use xlink:href="#m0a41eaf609" x="354.016308" y="129.969237" style="fill: #1f77b4; stroke: #1f77b4"/>
     <use xlink:href="#m0a41eaf609" x="355.647738" y="130.009342" style="fill: #1f77b4; stroke: #1f77b4"/>
     <use xlink:href="#m0a41eaf609" x="357.279168" y="130.061749" style="fill: #1f77b4; stroke: #1f77b4"/>
     <use xlink:href="#m0a41eaf609" x="358.910597" y="130.105829" style="fill: #1f77b4; stroke: #1f77b4"/>
     <use xlink:href="#m0a41eaf609" x="360.542027" y="130.114675" style="fill: #1f77b4; stroke: #1f77b4"/>
     <use xlink:href="#m0a41eaf609" x="362.173457" y="130.139615" style="fill: #1f77b4; stroke: #1f77b4"/>
     <use xlink:href="#m0a41eaf609" x="363.804887" y="130.117108" style="fill: #1f77b4; stroke: #1f77b4"/>
     <use xlink:href="#m0a41eaf609" x="365.436317" y="130.119679" style="fill: #1f77b4; stroke: #1f77b4"/>
     <use xlink:href="#m0a41eaf609" x="367.067747" y="130.072905" style="fill: #1f77b4; stroke: #1f77b4"/>
     <use xlink:href="#m0a41eaf609" x="368.699177" y="130.053859" style="fill: #1f77b4; stroke: #1f77b4"/>
     <use xlink:href="#m0a41eaf609" x="370.330607" y="130.023604" style="fill: #1f77b4; stroke: #1f77b4"/>
     <use xlink:href="#m0a41eaf609" x="371.962036" y="129.984677" style="fill: #1f77b4; stroke: #1f77b4"/>
     <use xlink:href="#m0a41eaf609" x="373.593466" y="129.917876" style="fill: #1f77b4; stroke: #1f77b4"/>
     <use xlink:href="#m0a41eaf609" x="375.224896" y="129.833835" style="fill: #1f77b4; stroke: #1f77b4"/>
     <use xlink:href="#m0a41eaf609" x="376.856326" y="129.77154" style="fill: #1f77b4; stroke: #1f77b4"/>
     <use xlink:href="#m0a41eaf609" x="378.487756" y="129.659335" style="fill: #1f77b4; stroke: #1f77b4"/>
     <use xlink:href="#m0a41eaf609" x="380.119186" y="129.580276" style="fill: #1f77b4; stroke: #1f77b4"/>
     <use xlink:href="#m0a41eaf609" x="381.750616" y="129.476847" style="fill: #1f77b4; stroke: #1f77b4"/>
     <use xlink:href="#m0a41eaf609" x="383.382046" y="129.373031" style="fill: #1f77b4; stroke: #1f77b4"/>
     <use xlink:href="#m0a41eaf609" x="385.013475" y="129.230366" style="fill: #1f77b4; stroke: #1f77b4"/>
     <use xlink:href="#m0a41eaf609" x="386.644905" y="129.089227" style="fill: #1f77b4; stroke: #1f77b4"/>
     <use xlink:href="#m0a41eaf609" x="388.276335" y="128.95693" style="fill: #1f77b4; stroke: #1f77b4"/>
    </g>
   </g>
   <g id="line2d_15">
    <path d="M 63.62179 50.756765 
L 78.245868 59.787366 
L 93.519906 69.483071 
L 108.468964 79.235407 
L 122.118104 88.403524 
L 133.817367 96.52679 
L 143.566753 103.558067 
L 152.016221 109.922281 
L 159.16577 115.57535 
L 165.665361 120.99659 
L 171.514992 126.168415 
L 176.714664 131.049138 
L 181.914337 136.234801 
L 187.438989 142.078715 
L 197.513354 152.859013 
L 199.788211 154.887562 
L 201.413108 156.060162 
L 202.713026 156.754107 
L 203.687965 157.087528 
L 204.662904 157.221818 
L 205.637842 157.11605 
L 206.612781 156.723502 
L 207.587719 155.991765 
L 208.562658 154.863393 
L 209.537596 153.277329 
L 210.512535 151.171396 
L 211.487474 148.486119 
L 212.462412 145.170076 
L 213.437351 141.186755 
L 214.737269 134.818553 
L 216.037187 127.301196 
L 217.662085 116.581311 
L 222.861757 80.96473 
L 224.161675 74.020076 
L 225.461593 68.438089 
L 226.436532 65.179479 
L 227.41147 62.691377 
L 228.386409 60.92028 
L 229.036368 60.102991 
L 229.686327 59.548936 
L 230.336286 59.233526 
L 230.986245 59.132171 
L 231.636204 59.220912 
L 232.611143 59.660786 
L 233.586081 60.406125 
L 234.885999 61.767725 
L 236.510897 63.889417 
L 238.785754 67.319064 
L 248.535139 82.55325 
L 251.784935 86.991343 
L 255.03473 91.023599 
L 258.284525 94.675592 
L 261.53432 97.983632 
L 264.784116 100.985433 
L 268.358891 103.975577 
L 271.933665 106.678946 
L 275.83342 109.342263 
L 279.733174 111.744339 
L 283.957908 114.088139 
L 288.507621 116.347872 
L 293.057334 118.365409 
L 297.932027 120.288168 
L 303.1317 122.095248 
L 308.656352 123.766926 
L 314.181004 125.206262 
L 320.030635 126.498327 
L 326.205246 127.623146 
L 332.379857 128.519499 
L 338.879447 129.231692 
L 345.379038 129.7199 
L 352.203608 130.003774 
L 359.028178 130.064175 
L 366.177728 129.898112 
L 373.327277 129.506809 
L 380.476827 128.898854 
L 387.951356 128.040142 
L 388.276335 127.997761 
L 388.276335 127.997761 
" clip-path="url(#pe906b4296a)" style="fill: none; stroke: #d62728; stroke-width: 1.5; stroke-linecap: square"/>
   </g>
   <g id="patch_3">
    <path d="M 47.389063 162.72 
L 47.389063 41.76 
" style="fill: none; stroke: #000000; stroke-width: 0.8; stroke-linejoin: miter; stroke-linecap: square"/>
   </g>
   <g id="patch_4">
    <path d="M 404.509063 162.72 
L 404.509063 41.76 
" style="fill: none; stroke: #000000; stroke-width: 0.8; stroke-linejoin: miter; stroke-linecap: square"/>
   </g>
   <g id="patch_5">
    <path d="M 47.389063 162.72 
L 404.509063 162.72 
" style="fill: none; stroke: #000000; stroke-width: 0.8; stroke-linejoin: miter; stroke-linecap: square"/>
   </g>
   <g id="patch_6">
    <path d="M 47.389063 41.76 
L 404.509063 41.76 
" style="fill: none; stroke: #000000; stroke-width: 0.8; stroke-linejoin: miter; stroke-linecap: square"/>
   </g>
   <g id="text_6">
    <g id="patch_7">
     <path d="M 422.365063 95.079562 
L 567.565063 95.079562 
Q 571.565063 95.079562 571.565063 91.079562 
L 571.565063 47.808 
Q 571.565063 43.808 567.565063 43.808 
L 422.365063 43.808 
Q 418.365063 43.808 418.365063 47.808 
L 418.365063 91.079562 
Q 418.365063 95.079562 422.365063 95.079562 
z
" style="fill: #ffffff; opacity: 0.5; stroke: #000000; stroke-linejoin: miter"/>
    </g>
    <!-- Summary -->
    <g transform="translate(422.365063 55.406437) scale(0.1 -0.1)">
     <defs>
      <path id="DejaVuSans-53" d="M 3425 4513 
L 3425 3897 
Q 3066 4069 2747 4153 
Q 2428 4238 2131 4238 
Q 1616 4238 1336 4038 
Q 1056 3838 1056 3469 
Q 1056 3159 1242 3001 
Q 1428 2844 1947 2747 
L 2328 2669 
Q 3034 2534 3370 2195 
Q 3706 1856 3706 1288 
Q 3706 609 3251 259 
Q 2797 -91 1919 -91 
Q 1588 -91 1214 -16 
Q 841 59 441 206 
L 441 856 
Q 825 641 1194 531 
Q 1563 422 1919 422 
Q 2459 422 2753 634 
Q 3047 847 3047 1241 
Q 3047 1584 2836 1778 
Q 2625 1972 2144 2069 
L 1759 2144 
Q 1053 2284 737 2584 
Q 422 2884 422 3419 
Q 422 4038 858 4394 
Q 1294 4750 2059 4750 
Q 2388 4750 2728 4690 
Q 3069 4631 3425 4513 
z
" transform="scale(0.015625)"/>
      <path id="DejaVuSans-75" d="M 544 1381 
L 544 3500 
L 1119 3500 
L 1119 1403 
Q 1119 906 1312 657 
Q 1506 409 1894 409 
Q 2359 409 2629 706 
Q 2900 1003 2900 1516 
L 2900 3500 
L 3475 3500 
L 3475 0 
L 2900 0 
L 2900 538 
Q 2691 219 2414 64 
Q 2138 -91 1772 -91 
Q 1169 -91 856 284 
Q 544 659 544 1381 
z
M 1991 3584 
L 1991 3584 
z
" transform="scale(0.015625)"/>
      <path id="DejaVuSans-6d" d="M 3328 2828 
Q 3544 3216 3844 3400 
Q 4144 3584 4550 3584 
Q 5097 3584 5394 3201 
Q 5691 2819 5691 2113 
L 5691 0 
L 5113 0 
L 5113 2094 
Q 5113 2597 4934 2840 
Q 4756 3084 4391 3084 
Q 3944 3084 3684 2787 
Q 3425 2491 3425 1978 
L 3425 0 
L 2847 0 
L 2847 2094 
Q 2847 2600 2669 2842 
Q 2491 3084 2119 3084 
Q 1678 3084 1418 2786 
Q 1159 2488 1159 1978 
L 1159 0 
L 581 0 
L 581 3500 
L 1159 3500 
L 1159 2956 
Q 1356 3278 1631 3431 
Q 1906 3584 2284 3584 
Q 2666 3584 2933 3390 
Q 3200 3197 3328 2828 
z
" transform="scale(0.015625)"/>
      <path id="DejaVuSans-61" d="M 2194 1759 
Q 1497 1759 1228 1600 
Q 959 1441 959 1056 
Q 959 750 1161 570 
Q 1363 391 1709 391 
Q 2188 391 2477 730 
Q 2766 1069 2766 1631 
L 2766 1759 
L 2194 1759 
z
M 3341 1997 
L 3341 0 
L 2766 0 
L 2766 531 
Q 2569 213 2275 61 
Q 1981 -91 1556 -91 
Q 1019 -91 701 211 
Q 384 513 384 1019 
Q 384 1609 779 1909 
Q 1175 2209 1959 2209 
L 2766 2209 
L 2766 2266 
Q 2766 2663 2505 2880 
Q 2244 3097 1772 3097 
Q 1472 3097 1187 3025 
Q 903 2953 641 2809 
L 641 3341 
Q 956 3463 1253 3523 
Q 1550 3584 1831 3584 
Q 2591 3584 2966 3190 
Q 3341 2797 3341 1997 
z
" transform="scale(0.015625)"/>
      <path id="DejaVuSans-72" d="M 2631 2963 
Q 2534 3019 2420 3045 
Q 2306 3072 2169 3072 
Q 1681 3072 1420 2755 
Q 1159 2438 1159 1844 
L 1159 0 
L 581 0 
L 581 3500 
L 1159 3500 
L 1159 2956 
Q 1341 3275 1631 3429 
Q 1922 3584 2338 3584 
Q 2397 3584 2469 3576 
Q 2541 3569 2628 3553 
L 2631 2963 
z
" transform="scale(0.015625)"/>
      <path id="DejaVuSans-79" d="M 2059 -325 
Q 1816 -950 1584 -1140 
Q 1353 -1331 966 -1331 
L 506 -1331 
L 506 -850 
L 844 -850 
Q 1081 -850 1212 -737 
Q 1344 -625 1503 -206 
L 1606 56 
L 191 3500 
L 800 3500 
L 1894 763 
L 2988 3500 
L 3597 3500 
L 2059 -325 
z
" transform="scale(0.015625)"/>
     </defs>
     <use xlink:href="#DejaVuSans-53"/>
     <use xlink:href="#DejaVuSans-75" x="63.476562"/>
     <use xlink:href="#DejaVuSans-6d" x="126.855469"/>
     <use xlink:href="#DejaVuSans-6d" x="224.267578"/>
     <use xlink:href="#DejaVuSans-61" x="321.679688"/>
     <use xlink:href="#DejaVuSans-72" x="382.958984"/>
     <use xlink:href="#DejaVuSans-79" x="424.072266"/>
    </g>
    <!-- $Q_I$: 54.9$\pm$5.7 k -->
    <g transform="translate(422.365063 66.60425) scale(0.1 -0.1)">
     <defs>
      <path id="DejaVuSans-Oblique-51" d="M 2309 -84 
Q 2275 -88 2237 -89 
Q 2200 -91 2125 -91 
Q 1250 -91 756 411 
Q 263 913 263 1797 
Q 263 2319 452 2844 
Q 641 3369 978 3788 
Q 1369 4269 1858 4509 
Q 2347 4750 2938 4750 
Q 3794 4750 4287 4245 
Q 4781 3741 4781 2869 
Q 4781 1928 4265 1147 
Q 3750 366 2919 44 
L 3553 -825 
L 2847 -825 
L 2309 -84 
z
M 2919 4238 
Q 2400 4238 2003 3986 
Q 1606 3734 1313 3219 
Q 1125 2891 1026 2522 
Q 928 2153 928 1778 
Q 928 1128 1239 775 
Q 1550 422 2119 422 
Q 2631 422 3032 676 
Q 3434 931 3719 1434 
Q 3909 1772 4009 2142 
Q 4109 2513 4109 2881 
Q 4109 3528 3796 3883 
Q 3484 4238 2919 4238 
z
" transform="scale(0.015625)"/>
      <path id="DejaVuSans-Oblique-49" d="M 1081 4666 
L 1716 4666 
L 806 0 
L 172 0 
L 1081 4666 
z
" transform="scale(0.015625)"/>
      <path id="DejaVuSans-3a" d="M 750 794 
L 1409 794 
L 1409 0 
L 750 0 
L 750 794 
z
M 750 3309 
L 1409 3309 
L 1409 2516 
L 750 2516 
L 750 3309 
z
" transform="scale(0.015625)"/>
      <path id="DejaVuSans-35" d="M 691 4666 
L 3169 4666 
L 3169 4134 
L 1269 4134 
L 1269 2991 
Q 1406 3038 1543 3061 
Q 1681 3084 1819 3084 
Q 2600 3084 3056 2656 
Q 3513 2228 3513 1497 
Q 3513 744 3044 326 
Q 2575 -91 1722 -91 
Q 1428 -91 1123 -41 
Q 819 9 494 109 
L 494 744 
Q 775 591 1075 516 
Q 1375 441 1709 441 
Q 2250 441 2565 725 
Q 2881 1009 2881 1497 
Q 2881 1984 2565 2268 
Q 2250 2553 1709 2553 
Q 1456 2553 1204 2497 
Q 953 2441 691 2322 
L 691 4666 
z
" transform="scale(0.015625)"/>
      <path id="DejaVuSans-39" d="M 703 97 
L 703 672 
Q 941 559 1184 500 
Q 1428 441 1663 441 
Q 2288 441 2617 861 
Q 2947 1281 2994 2138 
Q 2813 1869 2534 1725 
Q 2256 1581 1919 1581 
Q 1219 1581 811 2004 
Q 403 2428 403 3163 
Q 403 3881 828 4315 
Q 1253 4750 1959 4750 
Q 2769 4750 3195 4129 
Q 3622 3509 3622 2328 
Q 3622 1225 3098 567 
Q 2575 -91 1691 -91 
Q 1453 -91 1209 -44 
Q 966 3 703 97 
z
M 1959 2075 
Q 2384 2075 2632 2365 
Q 2881 2656 2881 3163 
Q 2881 3666 2632 3958 
Q 2384 4250 1959 4250 
Q 1534 4250 1286 3958 
Q 1038 3666 1038 3163 
Q 1038 2656 1286 2365 
Q 1534 2075 1959 2075 
z
" transform="scale(0.015625)"/>
      <path id="DejaVuSans-b1" d="M 2944 4013 
L 2944 2803 
L 4684 2803 
L 4684 2272 
L 2944 2272 
L 2944 1063 
L 2419 1063 
L 2419 2272 
L 678 2272 
L 678 2803 
L 2419 2803 
L 2419 4013 
L 2944 4013 
z
M 678 531 
L 4684 531 
L 4684 0 
L 678 0 
L 678 531 
z
" transform="scale(0.015625)"/>
      <path id="DejaVuSans-37" d="M 525 4666 
L 3525 4666 
L 3525 4397 
L 1831 0 
L 1172 0 
L 2766 4134 
L 525 4134 
L 525 4666 
z
" transform="scale(0.015625)"/>
      <path id="DejaVuSans-6b" d="M 581 4863 
L 1159 4863 
L 1159 1991 
L 2875 3500 
L 3609 3500 
L 1753 1863 
L 3688 0 
L 2938 0 
L 1159 1709 
L 1159 0 
L 581 0 
L 581 4863 
z
" transform="scale(0.015625)"/>
     </defs>
     <use xlink:href="#DejaVuSans-Oblique-51" transform="translate(0 0.015625)"/>
     <use xlink:href="#DejaVuSans-Oblique-49" transform="translate(78.710938 -16.390625) scale(0.7)"/>
     <use xlink:href="#DejaVuSans-3a" transform="translate(102.089844 0.015625)"/>
     <use xlink:href="#DejaVuSans-20" transform="translate(135.78125 0.015625)"/>
     <use xlink:href="#DejaVuSans-35" transform="translate(167.568359 0.015625)"/>
     <use xlink:href="#DejaVuSans-34" transform="translate(231.191406 0.015625)"/>
     <use xlink:href="#DejaVuSans-2e" transform="translate(294.814453 0.015625)"/>
     <use xlink:href="#DejaVuSans-39" transform="translate(326.601562 0.015625)"/>
     <use xlink:href="#DejaVuSans-b1" transform="translate(390.224609 0.015625)"/>
     <use xlink:href="#DejaVuSans-35" transform="translate(474.013672 0.015625)"/>
     <use xlink:href="#DejaVuSans-2e" transform="translate(537.636719 0.015625)"/>
     <use xlink:href="#DejaVuSans-37" transform="translate(561.673828 0.015625)"/>
     <use xlink:href="#DejaVuSans-20" transform="translate(625.296875 0.015625)"/>
     <use xlink:href="#DejaVuSans-6b" transform="translate(657.083984 0.015625)"/>
    </g>
    <!-- $Q_C$: 3.547$\pm$0.027 k -->
    <g transform="translate(422.365063 77.802062) scale(0.1 -0.1)">
     <defs>
      <path id="DejaVuSans-Oblique-43" d="M 4447 4306 
L 4319 3641 
Q 4019 3944 3683 4091 
Q 3347 4238 2956 4238 
Q 2422 4238 2017 3981 
Q 1613 3725 1319 3200 
Q 1131 2863 1032 2486 
Q 934 2109 934 1728 
Q 934 1091 1264 756 
Q 1594 422 2222 422 
Q 2656 422 3056 561 
Q 3456 700 3834 978 
L 3688 231 
Q 3316 72 2936 -9 
Q 2556 -91 2175 -91 
Q 1278 -91 773 396 
Q 269 884 269 1753 
Q 269 2309 461 2846 
Q 653 3384 1013 3828 
Q 1394 4300 1883 4525 
Q 2372 4750 3022 4750 
Q 3422 4750 3780 4639 
Q 4138 4528 4447 4306 
z
" transform="scale(0.015625)"/>
      <path id="DejaVuSans-33" d="M 2597 2516 
Q 3050 2419 3304 2112 
Q 3559 1806 3559 1356 
Q 3559 666 3084 287 
Q 2609 -91 1734 -91 
Q 1441 -91 1130 -33 
Q 819 25 488 141 
L 488 750 
Q 750 597 1062 519 
Q 1375 441 1716 441 
Q 2309 441 2620 675 
Q 2931 909 2931 1356 
Q 2931 1769 2642 2001 
Q 2353 2234 1838 2234 
L 1294 2234 
L 1294 2753 
L 1863 2753 
Q 2328 2753 2575 2939 
Q 2822 3125 2822 3475 
Q 2822 3834 2567 4026 
Q 2313 4219 1838 4219 
Q 1578 4219 1281 4162 
Q 984 4106 628 3988 
L 628 4550 
Q 988 4650 1302 4700 
Q 1616 4750 1894 4750 
Q 2613 4750 3031 4423 
Q 3450 4097 3450 3541 
Q 3450 3153 3228 2886 
Q 3006 2619 2597 2516 
z
" transform="scale(0.015625)"/>
     </defs>
     <use xlink:href="#DejaVuSans-Oblique-51" transform="translate(0 0.015625)"/>
     <use xlink:href="#DejaVuSans-Oblique-43" transform="translate(78.710938 -16.390625) scale(0.7)"/>
     <use xlink:href="#DejaVuSans-3a" transform="translate(130.322266 0.015625)"/>
     <use xlink:href="#DejaVuSans-20" transform="translate(164.013672 0.015625)"/>
     <use xlink:href="#DejaVuSans-33" transform="translate(195.800781 0.015625)"/>
     <use xlink:href="#DejaVuSans-2e" transform="translate(259.423828 0.015625)"/>
     <use xlink:href="#DejaVuSans-35" transform="translate(291.210938 0.015625)"/>
     <use xlink:href="#DejaVuSans-34" transform="translate(354.833984 0.015625)"/>
     <use xlink:href="#DejaVuSans-37" transform="translate(418.457031 0.015625)"/>
     <use xlink:href="#DejaVuSans-b1" transform="translate(482.080078 0.015625)"/>
     <use xlink:href="#DejaVuSans-30" transform="translate(565.869141 0.015625)"/>
     <use xlink:href="#DejaVuSans-2e" transform="translate(629.492188 0.015625)"/>
     <use xlink:href="#DejaVuSans-30" transform="translate(661.279297 0.015625)"/>
     <use xlink:href="#DejaVuSans-32" transform="translate(724.902344 0.015625)"/>
     <use xlink:href="#DejaVuSans-37" transform="translate(788.525391 0.015625)"/>
     <use xlink:href="#DejaVuSans-20" transform="translate(852.148438 0.015625)"/>
     <use xlink:href="#DejaVuSans-6b" transform="translate(883.935547 0.015625)"/>
    </g>
    <!-- $f_{res}$: 5.8344038$\pm$6.8e-06 GHz -->
    <g transform="translate(422.365063 88.999875) scale(0.1 -0.1)">
     <defs>
      <path id="DejaVuSans-Oblique-66" d="M 3059 4863 
L 2969 4384 
L 2419 4384 
Q 2106 4384 1964 4261 
Q 1822 4138 1753 3809 
L 1691 3500 
L 2638 3500 
L 2553 3053 
L 1606 3053 
L 1013 0 
L 434 0 
L 1031 3053 
L 481 3053 
L 563 3500 
L 1113 3500 
L 1159 3744 
Q 1278 4363 1576 4613 
Q 1875 4863 2516 4863 
L 3059 4863 
z
" transform="scale(0.015625)"/>
      <path id="DejaVuSans-Oblique-72" d="M 2853 2969 
Q 2766 3016 2653 3041 
Q 2541 3066 2413 3066 
Q 1953 3066 1609 2717 
Q 1266 2369 1153 1784 
L 800 0 
L 225 0 
L 909 3500 
L 1484 3500 
L 1375 2956 
Q 1603 3259 1920 3421 
Q 2238 3584 2597 3584 
Q 2691 3584 2781 3573 
Q 2872 3563 2963 3538 
L 2853 2969 
z
" transform="scale(0.015625)"/>
      <path id="DejaVuSans-Oblique-65" d="M 3078 2063 
Q 3088 2113 3092 2166 
Q 3097 2219 3097 2272 
Q 3097 2653 2873 2875 
Q 2650 3097 2266 3097 
Q 1838 3097 1509 2826 
Q 1181 2556 1013 2059 
L 3078 2063 
z
M 3578 1613 
L 903 1613 
Q 884 1494 878 1425 
Q 872 1356 872 1306 
Q 872 872 1139 634 
Q 1406 397 1894 397 
Q 2269 397 2603 481 
Q 2938 566 3225 728 
L 3116 159 
Q 2806 34 2476 -28 
Q 2147 -91 1806 -91 
Q 1078 -91 686 257 
Q 294 606 294 1247 
Q 294 1794 489 2264 
Q 684 2734 1063 3103 
Q 1306 3334 1642 3459 
Q 1978 3584 2356 3584 
Q 2950 3584 3301 3228 
Q 3653 2872 3653 2272 
Q 3653 2128 3634 1964 
Q 3616 1800 3578 1613 
z
" transform="scale(0.015625)"/>
      <path id="DejaVuSans-Oblique-73" d="M 3200 3397 
L 3091 2853 
Q 2863 2978 2609 3040 
Q 2356 3103 2088 3103 
Q 1634 3103 1373 2948 
Q 1113 2794 1113 2528 
Q 1113 2219 1719 2053 
Q 1766 2041 1788 2034 
L 1972 1978 
Q 2547 1819 2739 1644 
Q 2931 1469 2931 1166 
Q 2931 609 2489 259 
Q 2047 -91 1331 -91 
Q 1053 -91 747 -37 
Q 441 16 72 128 
L 184 722 
Q 500 559 806 475 
Q 1113 391 1394 391 
Q 1816 391 2080 572 
Q 2344 753 2344 1031 
Q 2344 1331 1650 1516 
L 1591 1531 
L 1394 1581 
Q 956 1697 753 1886 
Q 550 2075 550 2369 
Q 550 2928 970 3256 
Q 1391 3584 2113 3584 
Q 2397 3584 2667 3537 
Q 2938 3491 3200 3397 
z
" transform="scale(0.015625)"/>
      <path id="DejaVuSans-38" d="M 2034 2216 
Q 1584 2216 1326 1975 
Q 1069 1734 1069 1313 
Q 1069 891 1326 650 
Q 1584 409 2034 409 
Q 2484 409 2743 651 
Q 3003 894 3003 1313 
Q 3003 1734 2745 1975 
Q 2488 2216 2034 2216 
z
M 1403 2484 
Q 997 2584 770 2862 
Q 544 3141 544 3541 
Q 544 4100 942 4425 
Q 1341 4750 2034 4750 
Q 2731 4750 3128 4425 
Q 3525 4100 3525 3541 
Q 3525 3141 3298 2862 
Q 3072 2584 2669 2484 
Q 3125 2378 3379 2068 
Q 3634 1759 3634 1313 
Q 3634 634 3220 271 
Q 2806 -91 2034 -91 
Q 1263 -91 848 271 
Q 434 634 434 1313 
Q 434 1759 690 2068 
Q 947 2378 1403 2484 
z
M 1172 3481 
Q 1172 3119 1398 2916 
Q 1625 2713 2034 2713 
Q 2441 2713 2670 2916 
Q 2900 3119 2900 3481 
Q 2900 3844 2670 4047 
Q 2441 4250 2034 4250 
Q 1625 4250 1398 4047 
Q 1172 3844 1172 3481 
z
" transform="scale(0.015625)"/>
      <path id="DejaVuSans-47" d="M 3809 666 
L 3809 1919 
L 2778 1919 
L 2778 2438 
L 4434 2438 
L 4434 434 
Q 4069 175 3628 42 
Q 3188 -91 2688 -91 
Q 1594 -91 976 548 
Q 359 1188 359 2328 
Q 359 3472 976 4111 
Q 1594 4750 2688 4750 
Q 3144 4750 3555 4637 
Q 3966 4525 4313 4306 
L 4313 3634 
Q 3963 3931 3569 4081 
Q 3175 4231 2741 4231 
Q 1884 4231 1454 3753 
Q 1025 3275 1025 2328 
Q 1025 1384 1454 906 
Q 1884 428 2741 428 
Q 3075 428 3337 486 
Q 3600 544 3809 666 
z
" transform="scale(0.015625)"/>
      <path id="DejaVuSans-48" d="M 628 4666 
L 1259 4666 
L 1259 2753 
L 3553 2753 
L 3553 4666 
L 4184 4666 
L 4184 0 
L 3553 0 
L 3553 2222 
L 1259 2222 
L 1259 0 
L 628 0 
L 628 4666 
z
" transform="scale(0.015625)"/>
      <path id="DejaVuSans-7a" d="M 353 3500 
L 3084 3500 
L 3084 2975 
L 922 459 
L 3084 459 
L 3084 0 
L 275 0 
L 275 525 
L 2438 3041 
L 353 3041 
L 353 3500 
z
" transform="scale(0.015625)"/>
     </defs>
     <use xlink:href="#DejaVuSans-Oblique-66" transform="translate(0 0.015625)"/>
     <use xlink:href="#DejaVuSans-Oblique-72" transform="translate(35.205078 -16.390625) scale(0.7)"/>
     <use xlink:href="#DejaVuSans-Oblique-65" transform="translate(63.984375 -16.390625) scale(0.7)"/>
     <use xlink:href="#DejaVuSans-Oblique-73" transform="translate(107.050781 -16.390625) scale(0.7)"/>
     <use xlink:href="#DejaVuSans-3a" transform="translate(146.254883 0.015625)"/>
     <use xlink:href="#DejaVuSans-20" transform="translate(179.946289 0.015625)"/>
     <use xlink:href="#DejaVuSans-35" transform="translate(211.733398 0.015625)"/>
     <use xlink:href="#DejaVuSans-2e" transform="translate(275.356445 0.015625)"/>
     <use xlink:href="#DejaVuSans-38" transform="translate(304.518555 0.015625)"/>
     <use xlink:href="#DejaVuSans-33" transform="translate(368.141602 0.015625)"/>
     <use xlink:href="#DejaVuSans-34" transform="translate(431.764648 0.015625)"/>
     <use xlink:href="#DejaVuSans-34" transform="translate(495.387695 0.015625)"/>
     <use xlink:href="#DejaVuSans-30" transform="translate(559.010742 0.015625)"/>
     <use xlink:href="#DejaVuSans-33" transform="translate(622.633789 0.015625)"/>
     <use xlink:href="#DejaVuSans-38" transform="translate(686.256836 0.015625)"/>
     <use xlink:href="#DejaVuSans-b1" transform="translate(749.879883 0.015625)"/>
     <use xlink:href="#DejaVuSans-36" transform="translate(833.668945 0.015625)"/>
     <use xlink:href="#DejaVuSans-2e" transform="translate(897.291992 0.015625)"/>
     <use xlink:href="#DejaVuSans-38" transform="translate(926.454102 0.015625)"/>
     <use xlink:href="#DejaVuSans-65" transform="translate(990.077148 0.015625)"/>
     <use xlink:href="#DejaVuSans-2d" transform="translate(1051.600586 0.015625)"/>
     <use xlink:href="#DejaVuSans-30" transform="translate(1087.68457 0.015625)"/>
     <use xlink:href="#DejaVuSans-36" transform="translate(1151.307617 0.015625)"/>
     <use xlink:href="#DejaVuSans-20" transform="translate(1214.930664 0.015625)"/>
     <use xlink:href="#DejaVuSans-47" transform="translate(1246.717773 0.015625)"/>
     <use xlink:href="#DejaVuSans-48" transform="translate(1324.208008 0.015625)"/>
     <use xlink:href="#DejaVuSans-7a" transform="translate(1399.40332 0.015625)"/>
    </g>
   </g>
  </g>
  <g id="axes_2">
   <g id="patch_8">
    <path d="M 47.389063 307.872 
L 404.509063 307.872 
L 404.509063 186.912 
L 47.389063 186.912 
z
" style="fill: #ffffff"/>
   </g>
   <g id="matplotlib.axis_3">
    <g id="xtick_10">
     <g id="line2d_16">
      <g>
       <use xlink:href="#m7ff66c385b" x="67.517644" y="307.872" style="stroke: #000000; stroke-width: 0.8"/>
      </g>
     </g>
     <g id="text_7">
      <!-- 825 -->
      <g transform="translate(57.973894 322.470438) scale(0.1 -0.1)">
       <use xlink:href="#DejaVuSans-38"/>
       <use xlink:href="#DejaVuSans-32" x="63.623047"/>
       <use xlink:href="#DejaVuSans-35" x="127.246094"/>
      </g>
     </g>
    </g>
    <g id="xtick_11">
     <g id="line2d_17">
      <g>
       <use xlink:href="#m7ff66c385b" x="108.099463" y="307.872" style="stroke: #000000; stroke-width: 0.8"/>
      </g>
     </g>
     <g id="text_8">
      <!-- 827.5 -->
      <g transform="translate(93.7854 322.470438) scale(0.1 -0.1)">
       <use xlink:href="#DejaVuSans-38"/>
       <use xlink:href="#DejaVuSans-32" x="63.623047"/>
       <use xlink:href="#DejaVuSans-37" x="127.246094"/>
       <use xlink:href="#DejaVuSans-2e" x="190.869141"/>
       <use xlink:href="#DejaVuSans-35" x="222.65625"/>
      </g>
     </g>
    </g>
    <g id="xtick_12">
     <g id="line2d_18">
      <g>
       <use xlink:href="#m7ff66c385b" x="148.681281" y="307.872" style="stroke: #000000; stroke-width: 0.8"/>
      </g>
     </g>
     <g id="text_9">
      <!-- 830 -->
      <g transform="translate(139.137531 322.470438) scale(0.1 -0.1)">
       <use xlink:href="#DejaVuSans-38"/>
       <use xlink:href="#DejaVuSans-33" x="63.623047"/>
       <use xlink:href="#DejaVuSans-30" x="127.246094"/>
      </g>
     </g>
    </g>
    <g id="xtick_13">
     <g id="line2d_19">
      <g>
       <use xlink:href="#m7ff66c385b" x="189.263099" y="307.872" style="stroke: #000000; stroke-width: 0.8"/>
      </g>
     </g>
     <g id="text_10">
      <!-- 832.5 -->
      <g transform="translate(174.949036 322.470438) scale(0.1 -0.1)">
       <use xlink:href="#DejaVuSans-38"/>
       <use xlink:href="#DejaVuSans-33" x="63.623047"/>
       <use xlink:href="#DejaVuSans-32" x="127.246094"/>
       <use xlink:href="#DejaVuSans-2e" x="190.869141"/>
       <use xlink:href="#DejaVuSans-35" x="222.65625"/>
      </g>
     </g>
    </g>
    <g id="xtick_14">
     <g id="line2d_20">
      <g>
       <use xlink:href="#m7ff66c385b" x="229.844917" y="307.872" style="stroke: #000000; stroke-width: 0.8"/>
      </g>
     </g>
     <g id="text_11">
      <!-- 835 -->
      <g transform="translate(220.301167 322.470438) scale(0.1 -0.1)">
       <use xlink:href="#DejaVuSans-38"/>
       <use xlink:href="#DejaVuSans-33" x="63.623047"/>
       <use xlink:href="#DejaVuSans-35" x="127.246094"/>
      </g>
     </g>
    </g>
    <g id="xtick_15">
     <g id="line2d_21">
      <g>
       <use xlink:href="#m7ff66c385b" x="270.426735" y="307.872" style="stroke: #000000; stroke-width: 0.8"/>
      </g>
     </g>
     <g id="text_12">
      <!-- 837.5 -->
      <g transform="translate(256.112673 322.470438) scale(0.1 -0.1)">
       <use xlink:href="#DejaVuSans-38"/>
       <use xlink:href="#DejaVuSans-33" x="63.623047"/>
       <use xlink:href="#DejaVuSans-37" x="127.246094"/>
       <use xlink:href="#DejaVuSans-2e" x="190.869141"/>
       <use xlink:href="#DejaVuSans-35" x="222.65625"/>
      </g>
     </g>
    </g>
    <g id="xtick_16">
     <g id="line2d_22">
      <g>
       <use xlink:href="#m7ff66c385b" x="311.008553" y="307.872" style="stroke: #000000; stroke-width: 0.8"/>
      </g>
     </g>
     <g id="text_13">
      <!-- 840 -->
      <g transform="translate(301.464803 322.470438) scale(0.1 -0.1)">
       <use xlink:href="#DejaVuSans-38"/>
       <use xlink:href="#DejaVuSans-34" x="63.623047"/>
       <use xlink:href="#DejaVuSans-30" x="127.246094"/>
      </g>
     </g>
    </g>
    <g id="xtick_17">
     <g id="line2d_23">
      <g>
       <use xlink:href="#m7ff66c385b" x="351.590372" y="307.872" style="stroke: #000000; stroke-width: 0.8"/>
      </g>
     </g>
     <g id="text_14">
      <!-- 842.5 -->
      <g transform="translate(337.276309 322.470438) scale(0.1 -0.1)">
       <use xlink:href="#DejaVuSans-38"/>
       <use xlink:href="#DejaVuSans-34" x="63.623047"/>
       <use xlink:href="#DejaVuSans-32" x="127.246094"/>
       <use xlink:href="#DejaVuSans-2e" x="190.869141"/>
       <use xlink:href="#DejaVuSans-35" x="222.65625"/>
      </g>
     </g>
    </g>
    <g id="xtick_18">
     <g id="line2d_24">
      <g>
       <use xlink:href="#m7ff66c385b" x="392.17219" y="307.872" style="stroke: #000000; stroke-width: 0.8"/>
      </g>
     </g>
     <g id="text_15">
      <!-- 845 -->
      <g transform="translate(382.62844 322.470438) scale(0.1 -0.1)">
       <use xlink:href="#DejaVuSans-38"/>
       <use xlink:href="#DejaVuSans-34" x="63.623047"/>
       <use xlink:href="#DejaVuSans-35" x="127.246094"/>
      </g>
     </g>
    </g>
    <g id="text_16">
     <!-- Frequency [MHz] -->
     <g transform="translate(183.930313 336.148562) scale(0.1 -0.1)">
      <defs>
       <path id="DejaVuSans-46" d="M 628 4666 
L 3309 4666 
L 3309 4134 
L 1259 4134 
L 1259 2759 
L 3109 2759 
L 3109 2228 
L 1259 2228 
L 1259 0 
L 628 0 
L 628 4666 
z
" transform="scale(0.015625)"/>
       <path id="DejaVuSans-71" d="M 947 1747 
Q 947 1113 1208 752 
Q 1469 391 1925 391 
Q 2381 391 2643 752 
Q 2906 1113 2906 1747 
Q 2906 2381 2643 2742 
Q 2381 3103 1925 3103 
Q 1469 3103 1208 2742 
Q 947 2381 947 1747 
z
M 2906 525 
Q 2725 213 2448 61 
Q 2172 -91 1784 -91 
Q 1150 -91 751 415 
Q 353 922 353 1747 
Q 353 2572 751 3078 
Q 1150 3584 1784 3584 
Q 2172 3584 2448 3432 
Q 2725 3281 2906 2969 
L 2906 3500 
L 3481 3500 
L 3481 -1331 
L 2906 -1331 
L 2906 525 
z
" transform="scale(0.015625)"/>
       <path id="DejaVuSans-6e" d="M 3513 2113 
L 3513 0 
L 2938 0 
L 2938 2094 
Q 2938 2591 2744 2837 
Q 2550 3084 2163 3084 
Q 1697 3084 1428 2787 
Q 1159 2491 1159 1978 
L 1159 0 
L 581 0 
L 581 3500 
L 1159 3500 
L 1159 2956 
Q 1366 3272 1645 3428 
Q 1925 3584 2291 3584 
Q 2894 3584 3203 3211 
Q 3513 2838 3513 2113 
z
" transform="scale(0.015625)"/>
       <path id="DejaVuSans-63" d="M 3122 3366 
L 3122 2828 
Q 2878 2963 2633 3030 
Q 2388 3097 2138 3097 
Q 1578 3097 1268 2742 
Q 959 2388 959 1747 
Q 959 1106 1268 751 
Q 1578 397 2138 397 
Q 2388 397 2633 464 
Q 2878 531 3122 666 
L 3122 134 
Q 2881 22 2623 -34 
Q 2366 -91 2075 -91 
Q 1284 -91 818 406 
Q 353 903 353 1747 
Q 353 2603 823 3093 
Q 1294 3584 2113 3584 
Q 2378 3584 2631 3529 
Q 2884 3475 3122 3366 
z
" transform="scale(0.015625)"/>
       <path id="DejaVuSans-4d" d="M 628 4666 
L 1569 4666 
L 2759 1491 
L 3956 4666 
L 4897 4666 
L 4897 0 
L 4281 0 
L 4281 4097 
L 3078 897 
L 2444 897 
L 1241 4097 
L 1241 0 
L 628 0 
L 628 4666 
z
" transform="scale(0.015625)"/>
      </defs>
      <use xlink:href="#DejaVuSans-46"/>
      <use xlink:href="#DejaVuSans-72" x="50.269531"/>
      <use xlink:href="#DejaVuSans-65" x="89.132812"/>
      <use xlink:href="#DejaVuSans-71" x="150.65625"/>
      <use xlink:href="#DejaVuSans-75" x="214.132812"/>
      <use xlink:href="#DejaVuSans-65" x="277.511719"/>
      <use xlink:href="#DejaVuSans-6e" x="339.035156"/>
      <use xlink:href="#DejaVuSans-63" x="402.414062"/>
      <use xlink:href="#DejaVuSans-79" x="457.394531"/>
      <use xlink:href="#DejaVuSans-20" x="516.574219"/>
      <use xlink:href="#DejaVuSans-5b" x="548.361328"/>
      <use xlink:href="#DejaVuSans-4d" x="587.375"/>
      <use xlink:href="#DejaVuSans-48" x="673.654297"/>
      <use xlink:href="#DejaVuSans-7a" x="748.849609"/>
      <use xlink:href="#DejaVuSans-5d" x="801.339844"/>
     </g>
    </g>
    <g id="text_17">
     <!-- +5 GHz -->
     <g transform="translate(366.071563 335.148562) scale(0.1 -0.1)">
      <defs>
       <path id="DejaVuSans-2b" d="M 2944 4013 
L 2944 2272 
L 4684 2272 
L 4684 1741 
L 2944 1741 
L 2944 0 
L 2419 0 
L 2419 1741 
L 678 1741 
L 678 2272 
L 2419 2272 
L 2419 4013 
L 2944 4013 
z
" transform="scale(0.015625)"/>
      </defs>
      <use xlink:href="#DejaVuSans-2b"/>
      <use xlink:href="#DejaVuSans-35" x="83.789062"/>
      <use xlink:href="#DejaVuSans-20" x="147.412109"/>
      <use xlink:href="#DejaVuSans-47" x="179.199219"/>
      <use xlink:href="#DejaVuSans-48" x="256.689453"/>
      <use xlink:href="#DejaVuSans-7a" x="331.884766"/>
     </g>
    </g>
   </g>
   <g id="matplotlib.axis_4">
    <g id="ytick_5">
     <g id="line2d_25">
      <g>
       <use xlink:href="#mb2619a53c8" x="47.389063" y="286.792761" style="stroke: #000000; stroke-width: 0.8"/>
      </g>
     </g>
     <g id="text_18">
      <!-- -0.4 -->
      <g transform="translate(20.878125 290.59198) scale(0.1 -0.1)">
       <use xlink:href="#DejaVuSans-2d"/>
       <use xlink:href="#DejaVuSans-30" x="36.083984"/>
       <use xlink:href="#DejaVuSans-2e" x="99.707031"/>
       <use xlink:href="#DejaVuSans-34" x="131.494141"/>
      </g>
     </g>
    </g>
    <g id="ytick_6">
     <g id="line2d_26">
      <g>
       <use xlink:href="#mb2619a53c8" x="47.389063" y="259.486042" style="stroke: #000000; stroke-width: 0.8"/>
      </g>
     </g>
     <g id="text_19">
      <!-- -0.2 -->
      <g transform="translate(20.878125 263.285261) scale(0.1 -0.1)">
       <use xlink:href="#DejaVuSans-2d"/>
       <use xlink:href="#DejaVuSans-30" x="36.083984"/>
       <use xlink:href="#DejaVuSans-2e" x="99.707031"/>
       <use xlink:href="#DejaVuSans-32" x="131.494141"/>
      </g>
     </g>
    </g>
    <g id="ytick_7">
     <g id="line2d_27">
      <g>
       <use xlink:href="#mb2619a53c8" x="47.389063" y="232.179323" style="stroke: #000000; stroke-width: 0.8"/>
      </g>
     </g>
     <g id="text_20">
      <!-- 0 -->
      <g transform="translate(34.026563 235.978542) scale(0.1 -0.1)">
       <use xlink:href="#DejaVuSans-30"/>
      </g>
     </g>
    </g>
    <g id="ytick_8">
     <g id="line2d_28">
      <g>
       <use xlink:href="#mb2619a53c8" x="47.389063" y="204.872604" style="stroke: #000000; stroke-width: 0.8"/>
      </g>
     </g>
     <g id="text_21">
      <!-- 0.2 -->
      <g transform="translate(24.485938 208.671823) scale(0.1 -0.1)">
       <use xlink:href="#DejaVuSans-30"/>
       <use xlink:href="#DejaVuSans-2e" x="63.623047"/>
       <use xlink:href="#DejaVuSans-32" x="95.410156"/>
      </g>
     </g>
    </g>
    <g id="text_22">
     <!-- Im$(S_{21})$ [V] -->
     <g transform="translate(14.798438 274.142) rotate(-90) scale(0.1 -0.1)">
      <defs>
       <path id="DejaVuSans-49" d="M 628 4666 
L 1259 4666 
L 1259 0 
L 628 0 
L 628 4666 
z
" transform="scale(0.015625)"/>
      </defs>
      <use xlink:href="#DejaVuSans-49" transform="translate(0 0.015625)"/>
      <use xlink:href="#DejaVuSans-6d" transform="translate(25.867188 0.015625)"/>
      <use xlink:href="#DejaVuSans-28" transform="translate(123.279297 0.015625)"/>
      <use xlink:href="#DejaVuSans-Oblique-53" transform="translate(162.292969 0.015625)"/>
      <use xlink:href="#DejaVuSans-32" transform="translate(225.769531 -16.390625) scale(0.7)"/>
      <use xlink:href="#DejaVuSans-31" transform="translate(270.305664 -16.390625) scale(0.7)"/>
      <use xlink:href="#DejaVuSans-29" transform="translate(317.576172 0.015625)"/>
      <use xlink:href="#DejaVuSans-20" transform="translate(356.589844 0.015625)"/>
      <use xlink:href="#DejaVuSans-5b" transform="translate(388.376953 0.015625)"/>
      <use xlink:href="#DejaVuSans-56" transform="translate(427.390625 0.015625)"/>
      <use xlink:href="#DejaVuSans-5d" transform="translate(495.798828 0.015625)"/>
     </g>
    </g>
   </g>
   <g id="line2d_29">
    <path d="M 63.62179 301.594544 
L 70.147509 302.077838 
L 78.304659 302.332996 
L 84.830378 302.353 
L 91.356098 302.194927 
L 99.513247 301.722928 
L 109.301826 300.776539 
L 119.090406 299.399936 
L 125.616125 298.199978 
L 132.141845 296.838385 
L 140.298994 294.782642 
L 145.193284 293.372436 
L 150.087573 291.778824 
L 153.350433 290.609877 
L 159.876152 288.036418 
L 164.770442 285.808692 
L 169.664732 283.23958 
L 172.927592 281.3224 
L 176.190451 279.218414 
L 179.453311 276.808818 
L 182.716171 274.06007 
L 185.979031 270.942188 
L 189.24189 267.285947 
L 192.50475 262.929214 
L 194.13618 260.44782 
L 195.76761 257.698017 
L 197.39904 254.644366 
L 199.03047 251.272912 
L 200.661899 247.539566 
L 202.293329 243.339045 
L 203.924759 238.670761 
L 205.556189 233.564327 
L 207.187619 227.937647 
L 210.450479 215.549106 
L 213.713338 203.273139 
L 215.344768 198.126825 
L 216.976198 194.348697 
L 218.607628 192.410182 
L 220.239058 192.767097 
L 221.870488 195.437281 
L 223.501918 200.277868 
L 225.133348 206.724872 
L 230.027637 228.390959 
L 231.659067 234.408253 
L 233.290497 239.856838 
L 234.921927 244.566226 
L 236.553357 248.504992 
L 238.184787 251.790454 
L 239.816216 254.447323 
L 241.447646 256.597788 
L 243.079076 258.308777 
L 244.710506 259.685572 
L 246.341936 260.741932 
L 247.973366 261.536151 
L 249.604796 262.129569 
L 251.236226 262.545888 
L 252.867655 262.81532 
L 256.130515 263.007554 
L 259.393375 262.838768 
L 262.656235 262.415733 
L 267.550524 261.456376 
L 274.076244 259.727347 
L 287.127683 255.468197 
L 300.179122 250.683313 
L 318.124851 243.659534 
L 327.91343 239.673221 
L 344.227729 233.020236 
L 352.384878 229.662668 
L 370.330607 222.261647 
L 388.276335 214.820085 
L 388.276335 214.820085 
" clip-path="url(#p6a834632e3)" style="fill: none; stroke: #1f77b4; stroke-width: 1.5; stroke-linecap: square"/>
    <g clip-path="url(#p6a834632e3)">
     <use xlink:href="#m0a41eaf609" x="63.62179" y="301.594544" style="fill: #1f77b4; stroke: #1f77b4"/>
     <use xlink:href="#m0a41eaf609" x="65.25322" y="301.741907" style="fill: #1f77b4; stroke: #1f77b4"/>
     <use xlink:href="#m0a41eaf609" x="66.88465" y="301.862259" style="fill: #1f77b4; stroke: #1f77b4"/>
     <use xlink:href="#m0a41eaf609" x="68.516079" y="301.975432" style="fill: #1f77b4; stroke: #1f77b4"/>
     <use xlink:href="#m0a41eaf609" x="70.147509" y="302.077838" style="fill: #1f77b4; stroke: #1f77b4"/>
     <use xlink:href="#m0a41eaf609" x="71.778939" y="302.14486" style="fill: #1f77b4; stroke: #1f77b4"/>
     <use xlink:href="#m0a41eaf609" x="73.410369" y="302.220961" style="fill: #1f77b4; stroke: #1f77b4"/>
     <use xlink:href="#m0a41eaf609" x="75.041799" y="302.275615" style="fill: #1f77b4; stroke: #1f77b4"/>
     <use xlink:href="#m0a41eaf609" x="76.673229" y="302.315777" style="fill: #1f77b4; stroke: #1f77b4"/>
     <use xlink:href="#m0a41eaf609" x="78.304659" y="302.332996" style="fill: #1f77b4; stroke: #1f77b4"/>
     <use xlink:href="#m0a41eaf609" x="79.936089" y="302.36217" style="fill: #1f77b4; stroke: #1f77b4"/>
     <use xlink:href="#m0a41eaf609" x="81.567518" y="302.371387" style="fill: #1f77b4; stroke: #1f77b4"/>
     <use xlink:href="#m0a41eaf609" x="83.198948" y="302.373818" style="fill: #1f77b4; stroke: #1f77b4"/>
     <use xlink:href="#m0a41eaf609" x="84.830378" y="302.353" style="fill: #1f77b4; stroke: #1f77b4"/>
     <use xlink:href="#m0a41eaf609" x="86.461808" y="302.331923" style="fill: #1f77b4; stroke: #1f77b4"/>
     <use xlink:href="#m0a41eaf609" x="88.093238" y="302.299324" style="fill: #1f77b4; stroke: #1f77b4"/>
     <use xlink:href="#m0a41eaf609" x="89.724668" y="302.2608" style="fill: #1f77b4; stroke: #1f77b4"/>
     <use xlink:href="#m0a41eaf609" x="91.356098" y="302.194927" style="fill: #1f77b4; stroke: #1f77b4"/>
     <use xlink:href="#m0a41eaf609" x="92.987528" y="302.118983" style="fill: #1f77b4; stroke: #1f77b4"/>
     <use xlink:href="#m0a41eaf609" x="94.618957" y="302.034874" style="fill: #1f77b4; stroke: #1f77b4"/>
     <use xlink:href="#m0a41eaf609" x="96.250387" y="301.936809" style="fill: #1f77b4; stroke: #1f77b4"/>
     <use xlink:href="#m0a41eaf609" x="97.881817" y="301.840677" style="fill: #1f77b4; stroke: #1f77b4"/>
     <use xlink:href="#m0a41eaf609" x="99.513247" y="301.722928" style="fill: #1f77b4; stroke: #1f77b4"/>
     <use xlink:href="#m0a41eaf609" x="101.144677" y="301.581945" style="fill: #1f77b4; stroke: #1f77b4"/>
     <use xlink:href="#m0a41eaf609" x="102.776107" y="301.442377" style="fill: #1f77b4; stroke: #1f77b4"/>
     <use xlink:href="#m0a41eaf609" x="104.407537" y="301.306497" style="fill: #1f77b4; stroke: #1f77b4"/>
     <use xlink:href="#m0a41eaf609" x="106.038967" y="301.131986" style="fill: #1f77b4; stroke: #1f77b4"/>
     <use xlink:href="#m0a41eaf609" x="107.670396" y="300.956544" style="fill: #1f77b4; stroke: #1f77b4"/>
     <use xlink:href="#m0a41eaf609" x="109.301826" y="300.776539" style="fill: #1f77b4; stroke: #1f77b4"/>
     <use xlink:href="#m0a41eaf609" x="110.933256" y="300.557061" style="fill: #1f77b4; stroke: #1f77b4"/>
     <use xlink:href="#m0a41eaf609" x="112.564686" y="300.375865" style="fill: #1f77b4; stroke: #1f77b4"/>
     <use xlink:href="#m0a41eaf609" x="114.196116" y="300.146899" style="fill: #1f77b4; stroke: #1f77b4"/>
     <use xlink:href="#m0a41eaf609" x="115.827546" y="299.897408" style="fill: #1f77b4; stroke: #1f77b4"/>
     <use xlink:href="#m0a41eaf609" x="117.458976" y="299.656426" style="fill: #1f77b4; stroke: #1f77b4"/>
     <use xlink:href="#m0a41eaf609" x="119.090406" y="299.399936" style="fill: #1f77b4; stroke: #1f77b4"/>
     <use xlink:href="#m0a41eaf609" x="120.721835" y="299.120805" style="fill: #1f77b4; stroke: #1f77b4"/>
     <use xlink:href="#m0a41eaf609" x="122.353265" y="298.822296" style="fill: #1f77b4; stroke: #1f77b4"/>
     <use xlink:href="#m0a41eaf609" x="123.984695" y="298.539322" style="fill: #1f77b4; stroke: #1f77b4"/>
     <use xlink:href="#m0a41eaf609" x="125.616125" y="298.199978" style="fill: #1f77b4; stroke: #1f77b4"/>
     <use xlink:href="#m0a41eaf609" x="127.247555" y="297.881734" style="fill: #1f77b4; stroke: #1f77b4"/>
     <use xlink:href="#m0a41eaf609" x="128.878985" y="297.547394" style="fill: #1f77b4; stroke: #1f77b4"/>
     <use xlink:href="#m0a41eaf609" x="130.510415" y="297.202458" style="fill: #1f77b4; stroke: #1f77b4"/>
     <use xlink:href="#m0a41eaf609" x="132.141845" y="296.838385" style="fill: #1f77b4; stroke: #1f77b4"/>
     <use xlink:href="#m0a41eaf609" x="133.773274" y="296.450079" style="fill: #1f77b4; stroke: #1f77b4"/>
     <use xlink:href="#m0a41eaf609" x="135.404704" y="296.035197" style="fill: #1f77b4; stroke: #1f77b4"/>
     <use xlink:href="#m0a41eaf609" x="137.036134" y="295.657439" style="fill: #1f77b4; stroke: #1f77b4"/>
     <use xlink:href="#m0a41eaf609" x="138.667564" y="295.232562" style="fill: #1f77b4; stroke: #1f77b4"/>
     <use xlink:href="#m0a41eaf609" x="140.298994" y="294.782642" style="fill: #1f77b4; stroke: #1f77b4"/>
     <use xlink:href="#m0a41eaf609" x="141.930424" y="294.339427" style="fill: #1f77b4; stroke: #1f77b4"/>
     <use xlink:href="#m0a41eaf609" x="143.561854" y="293.848967" style="fill: #1f77b4; stroke: #1f77b4"/>
     <use xlink:href="#m0a41eaf609" x="145.193284" y="293.372436" style="fill: #1f77b4; stroke: #1f77b4"/>
     <use xlink:href="#m0a41eaf609" x="146.824713" y="292.868312" style="fill: #1f77b4; stroke: #1f77b4"/>
     <use xlink:href="#m0a41eaf609" x="148.456143" y="292.343943" style="fill: #1f77b4; stroke: #1f77b4"/>
     <use xlink:href="#m0a41eaf609" x="150.087573" y="291.778824" style="fill: #1f77b4; stroke: #1f77b4"/>
     <use xlink:href="#m0a41eaf609" x="151.719003" y="291.223474" style="fill: #1f77b4; stroke: #1f77b4"/>
     <use xlink:href="#m0a41eaf609" x="153.350433" y="290.609877" style="fill: #1f77b4; stroke: #1f77b4"/>
     <use xlink:href="#m0a41eaf609" x="154.981863" y="289.994062" style="fill: #1f77b4; stroke: #1f77b4"/>
     <use xlink:href="#m0a41eaf609" x="156.613293" y="289.366555" style="fill: #1f77b4; stroke: #1f77b4"/>
     <use xlink:href="#m0a41eaf609" x="158.244723" y="288.725847" style="fill: #1f77b4; stroke: #1f77b4"/>
     <use xlink:href="#m0a41eaf609" x="159.876152" y="288.036418" style="fill: #1f77b4; stroke: #1f77b4"/>
     <use xlink:href="#m0a41eaf609" x="161.507582" y="287.316906" style="fill: #1f77b4; stroke: #1f77b4"/>
     <use xlink:href="#m0a41eaf609" x="163.139012" y="286.588861" style="fill: #1f77b4; stroke: #1f77b4"/>
     <use xlink:href="#m0a41eaf609" x="164.770442" y="285.808692" style="fill: #1f77b4; stroke: #1f77b4"/>
     <use xlink:href="#m0a41eaf609" x="166.401872" y="284.992807" style="fill: #1f77b4; stroke: #1f77b4"/>
     <use xlink:href="#m0a41eaf609" x="168.033302" y="284.141121" style="fill: #1f77b4; stroke: #1f77b4"/>
     <use xlink:href="#m0a41eaf609" x="169.664732" y="283.23958" style="fill: #1f77b4; stroke: #1f77b4"/>
     <use xlink:href="#m0a41eaf609" x="171.296162" y="282.307778" style="fill: #1f77b4; stroke: #1f77b4"/>
     <use xlink:href="#m0a41eaf609" x="172.927592" y="281.3224" style="fill: #1f77b4; stroke: #1f77b4"/>
     <use xlink:href="#m0a41eaf609" x="174.559021" y="280.300913" style="fill: #1f77b4; stroke: #1f77b4"/>
     <use xlink:href="#m0a41eaf609" x="176.190451" y="279.218414" style="fill: #1f77b4; stroke: #1f77b4"/>
     <use xlink:href="#m0a41eaf609" x="177.821881" y="278.05175" style="fill: #1f77b4; stroke: #1f77b4"/>
     <use xlink:href="#m0a41eaf609" x="179.453311" y="276.808818" style="fill: #1f77b4; stroke: #1f77b4"/>
     <use xlink:href="#m0a41eaf609" x="181.084741" y="275.481786" style="fill: #1f77b4; stroke: #1f77b4"/>
     <use xlink:href="#m0a41eaf609" x="182.716171" y="274.06007" style="fill: #1f77b4; stroke: #1f77b4"/>
     <use xlink:href="#m0a41eaf609" x="184.347601" y="272.573763" style="fill: #1f77b4; stroke: #1f77b4"/>
     <use xlink:href="#m0a41eaf609" x="185.979031" y="270.942188" style="fill: #1f77b4; stroke: #1f77b4"/>
     <use xlink:href="#m0a41eaf609" x="187.61046" y="269.17349" style="fill: #1f77b4; stroke: #1f77b4"/>
     <use xlink:href="#m0a41eaf609" x="189.24189" y="267.285947" style="fill: #1f77b4; stroke: #1f77b4"/>
     <use xlink:href="#m0a41eaf609" x="190.87332" y="265.194576" style="fill: #1f77b4; stroke: #1f77b4"/>
     <use xlink:href="#m0a41eaf609" x="192.50475" y="262.929214" style="fill: #1f77b4; stroke: #1f77b4"/>
     <use xlink:href="#m0a41eaf609" x="194.13618" y="260.44782" style="fill: #1f77b4; stroke: #1f77b4"/>
     <use xlink:href="#m0a41eaf609" x="195.76761" y="257.698017" style="fill: #1f77b4; stroke: #1f77b4"/>
     <use xlink:href="#m0a41eaf609" x="197.39904" y="254.644366" style="fill: #1f77b4; stroke: #1f77b4"/>
     <use xlink:href="#m0a41eaf609" x="199.03047" y="251.272912" style="fill: #1f77b4; stroke: #1f77b4"/>
     <use xlink:href="#m0a41eaf609" x="200.661899" y="247.539566" style="fill: #1f77b4; stroke: #1f77b4"/>
     <use xlink:href="#m0a41eaf609" x="202.293329" y="243.339045" style="fill: #1f77b4; stroke: #1f77b4"/>
     <use xlink:href="#m0a41eaf609" x="203.924759" y="238.670761" style="fill: #1f77b4; stroke: #1f77b4"/>
     <use xlink:href="#m0a41eaf609" x="205.556189" y="233.564327" style="fill: #1f77b4; stroke: #1f77b4"/>
     <use xlink:href="#m0a41eaf609" x="207.187619" y="227.937647" style="fill: #1f77b4; stroke: #1f77b4"/>
     <use xlink:href="#m0a41eaf609" x="208.819049" y="221.873565" style="fill: #1f77b4; stroke: #1f77b4"/>
     <use xlink:href="#m0a41eaf609" x="210.450479" y="215.549106" style="fill: #1f77b4; stroke: #1f77b4"/>
     <use xlink:href="#m0a41eaf609" x="212.081909" y="209.215224" style="fill: #1f77b4; stroke: #1f77b4"/>
     <use xlink:href="#m0a41eaf609" x="213.713338" y="203.273139" style="fill: #1f77b4; stroke: #1f77b4"/>
     <use xlink:href="#m0a41eaf609" x="215.344768" y="198.126825" style="fill: #1f77b4; stroke: #1f77b4"/>
     <use xlink:href="#m0a41eaf609" x="216.976198" y="194.348697" style="fill: #1f77b4; stroke: #1f77b4"/>
     <use xlink:href="#m0a41eaf609" x="218.607628" y="192.410182" style="fill: #1f77b4; stroke: #1f77b4"/>
     <use xlink:href="#m0a41eaf609" x="220.239058" y="192.767097" style="fill: #1f77b4; stroke: #1f77b4"/>
     <use xlink:href="#m0a41eaf609" x="221.870488" y="195.437281" style="fill: #1f77b4; stroke: #1f77b4"/>
     <use xlink:href="#m0a41eaf609" x="223.501918" y="200.277868" style="fill: #1f77b4; stroke: #1f77b4"/>
     <use xlink:href="#m0a41eaf609" x="225.133348" y="206.724872" style="fill: #1f77b4; stroke: #1f77b4"/>
     <use xlink:href="#m0a41eaf609" x="226.764777" y="214.020755" style="fill: #1f77b4; stroke: #1f77b4"/>
     <use xlink:href="#m0a41eaf609" x="228.396207" y="221.461193" style="fill: #1f77b4; stroke: #1f77b4"/>
     <use xlink:href="#m0a41eaf609" x="230.027637" y="228.390959" style="fill: #1f77b4; stroke: #1f77b4"/>
     <use xlink:href="#m0a41eaf609" x="231.659067" y="234.408253" style="fill: #1f77b4; stroke: #1f77b4"/>
     <use xlink:href="#m0a41eaf609" x="233.290497" y="239.856838" style="fill: #1f77b4; stroke: #1f77b4"/>
     <use xlink:href="#m0a41eaf609" x="234.921927" y="244.566226" style="fill: #1f77b4; stroke: #1f77b4"/>
     <use xlink:href="#m0a41eaf609" x="236.553357" y="248.504992" style="fill: #1f77b4; stroke: #1f77b4"/>
     <use xlink:href="#m0a41eaf609" x="238.184787" y="251.790454" style="fill: #1f77b4; stroke: #1f77b4"/>
     <use xlink:href="#m0a41eaf609" x="239.816216" y="254.447323" style="fill: #1f77b4; stroke: #1f77b4"/>
     <use xlink:href="#m0a41eaf609" x="241.447646" y="256.597788" style="fill: #1f77b4; stroke: #1f77b4"/>
     <use xlink:href="#m0a41eaf609" x="243.079076" y="258.308777" style="fill: #1f77b4; stroke: #1f77b4"/>
     <use xlink:href="#m0a41eaf609" x="244.710506" y="259.685572" style="fill: #1f77b4; stroke: #1f77b4"/>
     <use xlink:href="#m0a41eaf609" x="246.341936" y="260.741932" style="fill: #1f77b4; stroke: #1f77b4"/>
     <use xlink:href="#m0a41eaf609" x="247.973366" y="261.536151" style="fill: #1f77b4; stroke: #1f77b4"/>
     <use xlink:href="#m0a41eaf609" x="249.604796" y="262.129569" style="fill: #1f77b4; stroke: #1f77b4"/>
     <use xlink:href="#m0a41eaf609" x="251.236226" y="262.545888" style="fill: #1f77b4; stroke: #1f77b4"/>
     <use xlink:href="#m0a41eaf609" x="252.867655" y="262.81532" style="fill: #1f77b4; stroke: #1f77b4"/>
     <use xlink:href="#m0a41eaf609" x="254.499085" y="262.959775" style="fill: #1f77b4; stroke: #1f77b4"/>
     <use xlink:href="#m0a41eaf609" x="256.130515" y="263.007554" style="fill: #1f77b4; stroke: #1f77b4"/>
     <use xlink:href="#m0a41eaf609" x="257.761945" y="262.971789" style="fill: #1f77b4; stroke: #1f77b4"/>
     <use xlink:href="#m0a41eaf609" x="259.393375" y="262.838768" style="fill: #1f77b4; stroke: #1f77b4"/>
     <use xlink:href="#m0a41eaf609" x="261.024805" y="262.635771" style="fill: #1f77b4; stroke: #1f77b4"/>
     <use xlink:href="#m0a41eaf609" x="262.656235" y="262.415733" style="fill: #1f77b4; stroke: #1f77b4"/>
     <use xlink:href="#m0a41eaf609" x="264.287665" y="262.112647" style="fill: #1f77b4; stroke: #1f77b4"/>
     <use xlink:href="#m0a41eaf609" x="265.919094" y="261.805915" style="fill: #1f77b4; stroke: #1f77b4"/>
     <use xlink:href="#m0a41eaf609" x="267.550524" y="261.456376" style="fill: #1f77b4; stroke: #1f77b4"/>
     <use xlink:href="#m0a41eaf609" x="269.181954" y="261.04869" style="fill: #1f77b4; stroke: #1f77b4"/>
     <use xlink:href="#m0a41eaf609" x="270.813384" y="260.63441" style="fill: #1f77b4; stroke: #1f77b4"/>
     <use xlink:href="#m0a41eaf609" x="272.444814" y="260.177785" style="fill: #1f77b4; stroke: #1f77b4"/>
     <use xlink:href="#m0a41eaf609" x="274.076244" y="259.727347" style="fill: #1f77b4; stroke: #1f77b4"/>
     <use xlink:href="#m0a41eaf609" x="275.707674" y="259.208902" style="fill: #1f77b4; stroke: #1f77b4"/>
     <use xlink:href="#m0a41eaf609" x="277.339104" y="258.716345" style="fill: #1f77b4; stroke: #1f77b4"/>
     <use xlink:href="#m0a41eaf609" x="278.970533" y="258.200243" style="fill: #1f77b4; stroke: #1f77b4"/>
     <use xlink:href="#m0a41eaf609" x="280.601963" y="257.692753" style="fill: #1f77b4; stroke: #1f77b4"/>
     <use xlink:href="#m0a41eaf609" x="282.233393" y="257.126504" style="fill: #1f77b4; stroke: #1f77b4"/>
     <use xlink:href="#m0a41eaf609" x="283.864823" y="256.586417" style="fill: #1f77b4; stroke: #1f77b4"/>
     <use xlink:href="#m0a41eaf609" x="285.496253" y="256.026211" style="fill: #1f77b4; stroke: #1f77b4"/>
     <use xlink:href="#m0a41eaf609" x="287.127683" y="255.468197" style="fill: #1f77b4; stroke: #1f77b4"/>
     <use xlink:href="#m0a41eaf609" x="288.759113" y="254.881742" style="fill: #1f77b4; stroke: #1f77b4"/>
     <use xlink:href="#m0a41eaf609" x="290.390543" y="254.304031" style="fill: #1f77b4; stroke: #1f77b4"/>
     <use xlink:href="#m0a41eaf609" x="292.021973" y="253.715439" style="fill: #1f77b4; stroke: #1f77b4"/>
     <use xlink:href="#m0a41eaf609" x="293.653402" y="253.114853" style="fill: #1f77b4; stroke: #1f77b4"/>
     <use xlink:href="#m0a41eaf609" x="295.284832" y="252.524036" style="fill: #1f77b4; stroke: #1f77b4"/>
     <use xlink:href="#m0a41eaf609" x="296.916262" y="251.909092" style="fill: #1f77b4; stroke: #1f77b4"/>
     <use xlink:href="#m0a41eaf609" x="298.547692" y="251.303447" style="fill: #1f77b4; stroke: #1f77b4"/>
     <use xlink:href="#m0a41eaf609" x="300.179122" y="250.683313" style="fill: #1f77b4; stroke: #1f77b4"/>
     <use xlink:href="#m0a41eaf609" x="301.810552" y="250.055291" style="fill: #1f77b4; stroke: #1f77b4"/>
     <use xlink:href="#m0a41eaf609" x="303.441982" y="249.423347" style="fill: #1f77b4; stroke: #1f77b4"/>
     <use xlink:href="#m0a41eaf609" x="305.073412" y="248.78712" style="fill: #1f77b4; stroke: #1f77b4"/>
     <use xlink:href="#m0a41eaf609" x="306.704841" y="248.180567" style="fill: #1f77b4; stroke: #1f77b4"/>
     <use xlink:href="#m0a41eaf609" x="308.336271" y="247.530521" style="fill: #1f77b4; stroke: #1f77b4"/>
     <use xlink:href="#m0a41eaf609" x="309.967701" y="246.882213" style="fill: #1f77b4; stroke: #1f77b4"/>
     <use xlink:href="#m0a41eaf609" x="311.599131" y="246.229667" style="fill: #1f77b4; stroke: #1f77b4"/>
     <use xlink:href="#m0a41eaf609" x="313.230561" y="245.60988" style="fill: #1f77b4; stroke: #1f77b4"/>
     <use xlink:href="#m0a41eaf609" x="314.861991" y="244.941332" style="fill: #1f77b4; stroke: #1f77b4"/>
     <use xlink:href="#m0a41eaf609" x="316.493421" y="244.302466" style="fill: #1f77b4; stroke: #1f77b4"/>
     <use xlink:href="#m0a41eaf609" x="318.124851" y="243.659534" style="fill: #1f77b4; stroke: #1f77b4"/>
     <use xlink:href="#m0a41eaf609" x="319.75628" y="242.979113" style="fill: #1f77b4; stroke: #1f77b4"/>
     <use xlink:href="#m0a41eaf609" x="321.38771" y="242.321338" style="fill: #1f77b4; stroke: #1f77b4"/>
     <use xlink:href="#m0a41eaf609" x="323.01914" y="241.651694" style="fill: #1f77b4; stroke: #1f77b4"/>
     <use xlink:href="#m0a41eaf609" x="324.65057" y="240.99624" style="fill: #1f77b4; stroke: #1f77b4"/>
     <use xlink:href="#m0a41eaf609" x="326.282" y="240.331707" style="fill: #1f77b4; stroke: #1f77b4"/>
     <use xlink:href="#m0a41eaf609" x="327.91343" y="239.673221" style="fill: #1f77b4; stroke: #1f77b4"/>
     <use xlink:href="#m0a41eaf609" x="329.54486" y="239.018205" style="fill: #1f77b4; stroke: #1f77b4"/>
     <use xlink:href="#m0a41eaf609" x="331.17629" y="238.350079" style="fill: #1f77b4; stroke: #1f77b4"/>
     <use xlink:href="#m0a41eaf609" x="332.807719" y="237.701199" style="fill: #1f77b4; stroke: #1f77b4"/>
     <use xlink:href="#m0a41eaf609" x="334.439149" y="237.019049" style="fill: #1f77b4; stroke: #1f77b4"/>
     <use xlink:href="#m0a41eaf609" x="336.070579" y="236.365113" style="fill: #1f77b4; stroke: #1f77b4"/>
     <use xlink:href="#m0a41eaf609" x="337.702009" y="235.682589" style="fill: #1f77b4; stroke: #1f77b4"/>
     <use xlink:href="#m0a41eaf609" x="339.333439" y="235.027118" style="fill: #1f77b4; stroke: #1f77b4"/>
     <use xlink:href="#m0a41eaf609" x="340.964869" y="234.347796" style="fill: #1f77b4; stroke: #1f77b4"/>
     <use xlink:href="#m0a41eaf609" x="342.596299" y="233.673481" style="fill: #1f77b4; stroke: #1f77b4"/>
     <use xlink:href="#m0a41eaf609" x="344.227729" y="233.020236" style="fill: #1f77b4; stroke: #1f77b4"/>
     <use xlink:href="#m0a41eaf609" x="345.859158" y="232.326273" style="fill: #1f77b4; stroke: #1f77b4"/>
     <use xlink:href="#m0a41eaf609" x="347.490588" y="231.673552" style="fill: #1f77b4; stroke: #1f77b4"/>
     <use xlink:href="#m0a41eaf609" x="349.122018" y="231.010961" style="fill: #1f77b4; stroke: #1f77b4"/>
     <use xlink:href="#m0a41eaf609" x="350.753448" y="230.3154" style="fill: #1f77b4; stroke: #1f77b4"/>
     <use xlink:href="#m0a41eaf609" x="352.384878" y="229.662668" style="fill: #1f77b4; stroke: #1f77b4"/>
     <use xlink:href="#m0a41eaf609" x="354.016308" y="228.999673" style="fill: #1f77b4; stroke: #1f77b4"/>
     <use xlink:href="#m0a41eaf609" x="355.647738" y="228.338947" style="fill: #1f77b4; stroke: #1f77b4"/>
     <use xlink:href="#m0a41eaf609" x="357.279168" y="227.644362" style="fill: #1f77b4; stroke: #1f77b4"/>
     <use xlink:href="#m0a41eaf609" x="358.910597" y="226.965542" style="fill: #1f77b4; stroke: #1f77b4"/>
     <use xlink:href="#m0a41eaf609" x="360.542027" y="226.290586" style="fill: #1f77b4; stroke: #1f77b4"/>
     <use xlink:href="#m0a41eaf609" x="362.173457" y="225.632984" style="fill: #1f77b4; stroke: #1f77b4"/>
     <use xlink:href="#m0a41eaf609" x="363.804887" y="224.96369" style="fill: #1f77b4; stroke: #1f77b4"/>
     <use xlink:href="#m0a41eaf609" x="365.436317" y="224.275534" style="fill: #1f77b4; stroke: #1f77b4"/>
     <use xlink:href="#m0a41eaf609" x="367.067747" y="223.620483" style="fill: #1f77b4; stroke: #1f77b4"/>
     <use xlink:href="#m0a41eaf609" x="368.699177" y="222.941413" style="fill: #1f77b4; stroke: #1f77b4"/>
     <use xlink:href="#m0a41eaf609" x="370.330607" y="222.261647" style="fill: #1f77b4; stroke: #1f77b4"/>
     <use xlink:href="#m0a41eaf609" x="371.962036" y="221.583083" style="fill: #1f77b4; stroke: #1f77b4"/>
     <use xlink:href="#m0a41eaf609" x="373.593466" y="220.905957" style="fill: #1f77b4; stroke: #1f77b4"/>
     <use xlink:href="#m0a41eaf609" x="375.224896" y="220.251121" style="fill: #1f77b4; stroke: #1f77b4"/>
     <use xlink:href="#m0a41eaf609" x="376.856326" y="219.589026" style="fill: #1f77b4; stroke: #1f77b4"/>
     <use xlink:href="#m0a41eaf609" x="378.487756" y="218.915331" style="fill: #1f77b4; stroke: #1f77b4"/>
     <use xlink:href="#m0a41eaf609" x="380.119186" y="218.216697" style="fill: #1f77b4; stroke: #1f77b4"/>
     <use xlink:href="#m0a41eaf609" x="381.750616" y="217.535143" style="fill: #1f77b4; stroke: #1f77b4"/>
     <use xlink:href="#m0a41eaf609" x="383.382046" y="216.868577" style="fill: #1f77b4; stroke: #1f77b4"/>
     <use xlink:href="#m0a41eaf609" x="385.013475" y="216.201382" style="fill: #1f77b4; stroke: #1f77b4"/>
     <use xlink:href="#m0a41eaf609" x="386.644905" y="215.526204" style="fill: #1f77b4; stroke: #1f77b4"/>
     <use xlink:href="#m0a41eaf609" x="388.276335" y="214.820085" style="fill: #1f77b4; stroke: #1f77b4"/>
    </g>
   </g>
   <g id="line2d_30">
    <path d="M 63.62179 301.468757 
L 72.071257 301.782614 
L 80.520725 301.871176 
L 88.645213 301.737809 
L 96.769701 301.383263 
L 104.56921 300.826917 
L 112.368719 300.049108 
L 119.843248 299.083785 
L 126.992797 297.944203 
L 133.817367 296.641082 
L 140.316958 295.182242 
L 146.491569 293.572247 
L 152.3412 291.812098 
L 157.540872 290.019208 
L 162.415565 288.102045 
L 166.640299 286.214646 
L 170.540053 284.243703 
L 174.114828 282.19976 
L 177.364624 280.09917 
L 180.289439 277.966386 
L 183.214255 275.551954 
L 185.814091 273.116611 
L 188.413927 270.347795 
L 190.688784 267.592951 
L 192.963641 264.463094 
L 194.913518 261.424751 
L 196.863395 257.999128 
L 198.813272 254.122529 
L 200.763149 249.726105 
L 202.713026 244.741768 
L 204.662904 239.114595 
L 206.612781 232.825939 
L 208.887637 224.735227 
L 214.412289 204.576253 
L 215.712207 200.871205 
L 216.687146 198.697234 
L 217.662085 197.165345 
L 218.312044 196.546045 
L 218.962003 196.271132 
L 219.611962 196.351574 
L 220.261921 196.789742 
L 220.91188 197.579067 
L 221.561839 198.704245 
L 222.536777 200.968893 
L 223.511716 203.829618 
L 224.811634 208.349006 
L 227.086491 217.303151 
L 230.011307 228.792063 
L 231.961184 235.587839 
L 233.586081 240.52544 
L 235.210979 244.784155 
L 236.835877 248.399497 
L 238.460774 251.43179 
L 240.085672 253.950175 
L 241.710569 256.023375 
L 243.335467 257.714964 
L 244.960365 259.081385 
L 246.585262 260.171519 
L 248.21016 261.027061 
L 250.160037 261.793261 
L 252.109914 262.322485 
L 254.384771 262.694385 
L 256.659628 262.850583 
L 259.259464 262.816444 
L 262.18428 262.561922 
L 265.759054 262.009304 
L 269.658809 261.175737 
L 274.208522 259.97687 
L 279.733174 258.282611 
L 286.232764 256.052494 
L 294.357253 253.019244 
L 304.431618 249.010406 
L 317.755778 243.454363 
L 338.229488 234.645733 
L 374.627195 218.976538 
L 388.276335 213.286432 
L 388.276335 213.286432 
" clip-path="url(#p6a834632e3)" style="fill: none; stroke: #d62728; stroke-width: 1.5; stroke-linecap: square"/>
   </g>
   <g id="patch_9">
    <path d="M 47.389063 307.872 
L 47.389063 186.912 
" style="fill: none; stroke: #000000; stroke-width: 0.8; stroke-linejoin: miter; stroke-linecap: square"/>
   </g>
   <g id="patch_10">
    <path d="M 404.509063 307.872 
L 404.509063 186.912 
" style="fill: none; stroke: #000000; stroke-width: 0.8; stroke-linejoin: miter; stroke-linecap: square"/>
   </g>
   <g id="patch_11">
    <path d="M 47.389063 307.872 
L 404.509063 307.872 
" style="fill: none; stroke: #000000; stroke-width: 0.8; stroke-linejoin: miter; stroke-linecap: square"/>
   </g>
   <g id="patch_12">
    <path d="M 47.389063 186.912 
L 404.509063 186.912 
" style="fill: none; stroke: #000000; stroke-width: 0.8; stroke-linejoin: miter; stroke-linecap: square"/>
   </g>
  </g>
  <g id="text_23">
   <!-- S21 One-tone -->
   <g transform="translate(178.938125 16.318125) scale(0.12 -0.12)">
    <defs>
     <path id="DejaVuSans-4f" d="M 2522 4238 
Q 1834 4238 1429 3725 
Q 1025 3213 1025 2328 
Q 1025 1447 1429 934 
Q 1834 422 2522 422 
Q 3209 422 3611 934 
Q 4013 1447 4013 2328 
Q 4013 3213 3611 3725 
Q 3209 4238 2522 4238 
z
M 2522 4750 
Q 3503 4750 4090 4092 
Q 4678 3434 4678 2328 
Q 4678 1225 4090 567 
Q 3503 -91 2522 -91 
Q 1538 -91 948 565 
Q 359 1222 359 2328 
Q 359 3434 948 4092 
Q 1538 4750 2522 4750 
z
" transform="scale(0.015625)"/>
     <path id="DejaVuSans-74" d="M 1172 4494 
L 1172 3500 
L 2356 3500 
L 2356 3053 
L 1172 3053 
L 1172 1153 
Q 1172 725 1289 603 
Q 1406 481 1766 481 
L 2356 481 
L 2356 0 
L 1766 0 
Q 1100 0 847 248 
Q 594 497 594 1153 
L 594 3053 
L 172 3053 
L 172 3500 
L 594 3500 
L 594 4494 
L 1172 4494 
z
" transform="scale(0.015625)"/>
     <path id="DejaVuSans-6f" d="M 1959 3097 
Q 1497 3097 1228 2736 
Q 959 2375 959 1747 
Q 959 1119 1226 758 
Q 1494 397 1959 397 
Q 2419 397 2687 759 
Q 2956 1122 2956 1747 
Q 2956 2369 2687 2733 
Q 2419 3097 1959 3097 
z
M 1959 3584 
Q 2709 3584 3137 3096 
Q 3566 2609 3566 1747 
Q 3566 888 3137 398 
Q 2709 -91 1959 -91 
Q 1206 -91 779 398 
Q 353 888 353 1747 
Q 353 2609 779 3096 
Q 1206 3584 1959 3584 
z
" transform="scale(0.015625)"/>
    </defs>
    <use xlink:href="#DejaVuSans-53"/>
    <use xlink:href="#DejaVuSans-32" x="63.476562"/>
    <use xlink:href="#DejaVuSans-31" x="127.099609"/>
    <use xlink:href="#DejaVuSans-20" x="190.722656"/>
    <use xlink:href="#DejaVuSans-4f" x="222.509766"/>
    <use xlink:href="#DejaVuSans-6e" x="301.220703"/>
    <use xlink:href="#DejaVuSans-65" x="364.599609"/>
    <use xlink:href="#DejaVuSans-2d" x="426.123047"/>
    <use xlink:href="#DejaVuSans-74" x="462.207031"/>
    <use xlink:href="#DejaVuSans-6f" x="501.416016"/>
    <use xlink:href="#DejaVuSans-6e" x="562.597656"/>
    <use xlink:href="#DejaVuSans-65" x="625.976562"/>
   </g>
   <!-- tuid: 20240321-182701-280-4a01d6 -->
   <g transform="translate(110.482813 29.7555) scale(0.12 -0.12)">
    <defs>
     <path id="DejaVuSans-69" d="M 603 3500 
L 1178 3500 
L 1178 0 
L 603 0 
L 603 3500 
z
M 603 4863 
L 1178 4863 
L 1178 4134 
L 603 4134 
L 603 4863 
z
" transform="scale(0.015625)"/>
     <path id="DejaVuSans-64" d="M 2906 2969 
L 2906 4863 
L 3481 4863 
L 3481 0 
L 2906 0 
L 2906 525 
Q 2725 213 2448 61 
Q 2172 -91 1784 -91 
Q 1150 -91 751 415 
Q 353 922 353 1747 
Q 353 2572 751 3078 
Q 1150 3584 1784 3584 
Q 2172 3584 2448 3432 
Q 2725 3281 2906 2969 
z
M 947 1747 
Q 947 1113 1208 752 
Q 1469 391 1925 391 
Q 2381 391 2643 752 
Q 2906 1113 2906 1747 
Q 2906 2381 2643 2742 
Q 2381 3103 1925 3103 
Q 1469 3103 1208 2742 
Q 947 2381 947 1747 
z
" transform="scale(0.015625)"/>
    </defs>
    <use xlink:href="#DejaVuSans-74"/>
    <use xlink:href="#DejaVuSans-75" x="39.208984"/>
    <use xlink:href="#DejaVuSans-69" x="102.587891"/>
    <use xlink:href="#DejaVuSans-64" x="130.371094"/>
    <use xlink:href="#DejaVuSans-3a" x="193.847656"/>
    <use xlink:href="#DejaVuSans-20" x="227.539062"/>
    <use xlink:href="#DejaVuSans-32" x="259.326172"/>
    <use xlink:href="#DejaVuSans-30" x="322.949219"/>
    <use xlink:href="#DejaVuSans-32" x="386.572266"/>
    <use xlink:href="#DejaVuSans-34" x="450.195312"/>
    <use xlink:href="#DejaVuSans-30" x="513.818359"/>
    <use xlink:href="#DejaVuSans-33" x="577.441406"/>
    <use xlink:href="#DejaVuSans-32" x="641.064453"/>
    <use xlink:href="#DejaVuSans-31" x="704.6875"/>
    <use xlink:href="#DejaVuSans-2d" x="768.310547"/>
    <use xlink:href="#DejaVuSans-31" x="804.394531"/>
    <use xlink:href="#DejaVuSans-38" x="868.017578"/>
    <use xlink:href="#DejaVuSans-32" x="931.640625"/>
    <use xlink:href="#DejaVuSans-37" x="995.263672"/>
    <use xlink:href="#DejaVuSans-30" x="1058.886719"/>
    <use xlink:href="#DejaVuSans-31" x="1122.509766"/>
    <use xlink:href="#DejaVuSans-2d" x="1186.132812"/>
    <use xlink:href="#DejaVuSans-32" x="1222.216797"/>
    <use xlink:href="#DejaVuSans-38" x="1285.839844"/>
    <use xlink:href="#DejaVuSans-30" x="1349.462891"/>
    <use xlink:href="#DejaVuSans-2d" x="1413.085938"/>
    <use xlink:href="#DejaVuSans-34" x="1449.169922"/>
    <use xlink:href="#DejaVuSans-61" x="1512.792969"/>
    <use xlink:href="#DejaVuSans-30" x="1574.072266"/>
    <use xlink:href="#DejaVuSans-31" x="1637.695312"/>
    <use xlink:href="#DejaVuSans-64" x="1701.318359"/>
    <use xlink:href="#DejaVuSans-36" x="1764.794922"/>
   </g>
  </g>
 </g>
 <defs>
  <clipPath id="pe906b4296a">
   <rect x="47.389063" y="41.76" width="357.12" height="120.96"/>
  </clipPath>
  <clipPath id="p6a834632e3">
   <rect x="47.389063" y="186.912" width="357.12" height="120.96"/>
  </clipPath>
 </defs>
</svg>
