<?xml version="1.0" encoding="utf-8" standalone="no"?>
<!DOCTYPE svg PUBLIC "-//W3C//DTD SVG 1.1//EN"
  "http://www.w3.org/Graphics/SVG/1.1/DTD/svg11.dtd">
<svg xmlns:xlink="http://www.w3.org/1999/xlink" width="555.824437pt" height="345.42825pt" viewBox="0 0 555.824437 345.42825" xmlns="http://www.w3.org/2000/svg" version="1.1">
 <metadata>
  <rdf:RDF xmlns:dc="http://purl.org/dc/elements/1.1/" xmlns:cc="http://creativecommons.org/ns#" xmlns:rdf="http://www.w3.org/1999/02/22-rdf-syntax-ns#">
   <cc:Work>
    <dc:type rdf:resource="http://purl.org/dc/dcmitype/StillImage"/>
    <dc:date>2024-02-20T16:52:29.558253</dc:date>
    <dc:format>image/svg+xml</dc:format>
    <dc:creator>
     <cc:Agent>
      <dc:title>Matplotlib v3.8.2, https://matplotlib.org/</dc:title>
     </cc:Agent>
    </dc:creator>
   </cc:Work>
  </rdf:RDF>
 </metadata>
 <defs>
  <style type="text/css">*{stroke-linejoin: round; stroke-linecap: butt}</style>
 </defs>
 <g id="figure_1">
  <g id="patch_1">
   <path d="M 0 345.42825 
L 555.824437 345.42825 
L 555.824437 -0 
L 0 -0 
L 0 345.42825 
z
" style="fill: none; opacity: 0"/>
  </g>
  <g id="axes_1">
   <g id="patch_2">
    <path d="M 37.848438 307.872 
L 394.968438 307.872 
L 394.968438 41.76 
L 37.848438 41.76 
z
" style="fill: #ffffff"/>
   </g>
   <g id="matplotlib.axis_1">
    <g id="xtick_1">
     <g id="line2d_1">
      <defs>
       <path id="mf085ec49a3" d="M 0 0 
L 0 3.5 
" style="stroke: #000000; stroke-width: 0.8"/>
      </defs>
      <g>
       <use xlink:href="#mf085ec49a3" x="43.657158" y="307.872" style="stroke: #000000; stroke-width: 0.8"/>
      </g>
     </g>
     <g id="text_1">
      <!-- -8 -->
      <g transform="translate(38.672002 322.470438) scale(0.1 -0.1)">
       <defs>
        <path id="DejaVuSans-2d" d="M 313 2009 
L 1997 2009 
L 1997 1497 
L 313 1497 
L 313 2009 
z
" transform="scale(0.015625)"/>
        <path id="DejaVuSans-38" d="M 2034 2216 
Q 1584 2216 1326 1975 
Q 1069 1734 1069 1313 
Q 1069 891 1326 650 
Q 1584 409 2034 409 
Q 2484 409 2743 651 
Q 3003 894 3003 1313 
Q 3003 1734 2745 1975 
Q 2488 2216 2034 2216 
z
M 1403 2484 
Q 997 2584 770 2862 
Q 544 3141 544 3541 
Q 544 4100 942 4425 
Q 1341 4750 2034 4750 
Q 2731 4750 3128 4425 
Q 3525 4100 3525 3541 
Q 3525 3141 3298 2862 
Q 3072 2584 2669 2484 
Q 3125 2378 3379 2068 
Q 3634 1759 3634 1313 
Q 3634 634 3220 271 
Q 2806 -91 2034 -91 
Q 1263 -91 848 271 
Q 434 634 434 1313 
Q 434 1759 690 2068 
Q 947 2378 1403 2484 
z
M 1172 3481 
Q 1172 3119 1398 2916 
Q 1625 2713 2034 2713 
Q 2441 2713 2670 2916 
Q 2900 3119 2900 3481 
Q 2900 3844 2670 4047 
Q 2441 4250 2034 4250 
Q 1625 4250 1398 4047 
Q 1172 3844 1172 3481 
z
" transform="scale(0.015625)"/>
       </defs>
       <use xlink:href="#DejaVuSans-2d"/>
       <use xlink:href="#DejaVuSans-38" x="36.083984"/>
      </g>
     </g>
    </g>
    <g id="xtick_2">
     <g id="line2d_2">
      <g>
       <use xlink:href="#mf085ec49a3" x="86.560817" y="307.872" style="stroke: #000000; stroke-width: 0.8"/>
      </g>
     </g>
     <g id="text_2">
      <!-- -6 -->
      <g transform="translate(81.575661 322.470438) scale(0.1 -0.1)">
       <defs>
        <path id="DejaVuSans-36" d="M 2113 2584 
Q 1688 2584 1439 2293 
Q 1191 2003 1191 1497 
Q 1191 994 1439 701 
Q 1688 409 2113 409 
Q 2538 409 2786 701 
Q 3034 994 3034 1497 
Q 3034 2003 2786 2293 
Q 2538 2584 2113 2584 
z
M 3366 4563 
L 3366 3988 
Q 3128 4100 2886 4159 
Q 2644 4219 2406 4219 
Q 1781 4219 1451 3797 
Q 1122 3375 1075 2522 
Q 1259 2794 1537 2939 
Q 1816 3084 2150 3084 
Q 2853 3084 3261 2657 
Q 3669 2231 3669 1497 
Q 3669 778 3244 343 
Q 2819 -91 2113 -91 
Q 1303 -91 875 529 
Q 447 1150 447 2328 
Q 447 3434 972 4092 
Q 1497 4750 2381 4750 
Q 2619 4750 2861 4703 
Q 3103 4656 3366 4563 
z
" transform="scale(0.015625)"/>
       </defs>
       <use xlink:href="#DejaVuSans-2d"/>
       <use xlink:href="#DejaVuSans-36" x="36.083984"/>
      </g>
     </g>
    </g>
    <g id="xtick_3">
     <g id="line2d_3">
      <g>
       <use xlink:href="#mf085ec49a3" x="129.464476" y="307.872" style="stroke: #000000; stroke-width: 0.8"/>
      </g>
     </g>
     <g id="text_3">
      <!-- -4 -->
      <g transform="translate(124.47932 322.470438) scale(0.1 -0.1)">
       <defs>
        <path id="DejaVuSans-34" d="M 2419 4116 
L 825 1625 
L 2419 1625 
L 2419 4116 
z
M 2253 4666 
L 3047 4666 
L 3047 1625 
L 3713 1625 
L 3713 1100 
L 3047 1100 
L 3047 0 
L 2419 0 
L 2419 1100 
L 313 1100 
L 313 1709 
L 2253 4666 
z
" transform="scale(0.015625)"/>
       </defs>
       <use xlink:href="#DejaVuSans-2d"/>
       <use xlink:href="#DejaVuSans-34" x="36.083984"/>
      </g>
     </g>
    </g>
    <g id="xtick_4">
     <g id="line2d_4">
      <g>
       <use xlink:href="#mf085ec49a3" x="172.368135" y="307.872" style="stroke: #000000; stroke-width: 0.8"/>
      </g>
     </g>
     <g id="text_4">
      <!-- -2 -->
      <g transform="translate(167.382979 322.470438) scale(0.1 -0.1)">
       <defs>
        <path id="DejaVuSans-32" d="M 1228 531 
L 3431 531 
L 3431 0 
L 469 0 
L 469 531 
Q 828 903 1448 1529 
Q 2069 2156 2228 2338 
Q 2531 2678 2651 2914 
Q 2772 3150 2772 3378 
Q 2772 3750 2511 3984 
Q 2250 4219 1831 4219 
Q 1534 4219 1204 4116 
Q 875 4013 500 3803 
L 500 4441 
Q 881 4594 1212 4672 
Q 1544 4750 1819 4750 
Q 2544 4750 2975 4387 
Q 3406 4025 3406 3419 
Q 3406 3131 3298 2873 
Q 3191 2616 2906 2266 
Q 2828 2175 2409 1742 
Q 1991 1309 1228 531 
z
" transform="scale(0.015625)"/>
       </defs>
       <use xlink:href="#DejaVuSans-2d"/>
       <use xlink:href="#DejaVuSans-32" x="36.083984"/>
      </g>
     </g>
    </g>
    <g id="xtick_5">
     <g id="line2d_5">
      <g>
       <use xlink:href="#mf085ec49a3" x="215.271794" y="307.872" style="stroke: #000000; stroke-width: 0.8"/>
      </g>
     </g>
     <g id="text_5">
      <!-- 0 -->
      <g transform="translate(212.090544 322.470438) scale(0.1 -0.1)">
       <defs>
        <path id="DejaVuSans-30" d="M 2034 4250 
Q 1547 4250 1301 3770 
Q 1056 3291 1056 2328 
Q 1056 1369 1301 889 
Q 1547 409 2034 409 
Q 2525 409 2770 889 
Q 3016 1369 3016 2328 
Q 3016 3291 2770 3770 
Q 2525 4250 2034 4250 
z
M 2034 4750 
Q 2819 4750 3233 4129 
Q 3647 3509 3647 2328 
Q 3647 1150 3233 529 
Q 2819 -91 2034 -91 
Q 1250 -91 836 529 
Q 422 1150 422 2328 
Q 422 3509 836 4129 
Q 1250 4750 2034 4750 
z
" transform="scale(0.015625)"/>
       </defs>
       <use xlink:href="#DejaVuSans-30"/>
      </g>
     </g>
    </g>
    <g id="xtick_6">
     <g id="line2d_6">
      <g>
       <use xlink:href="#mf085ec49a3" x="258.175454" y="307.872" style="stroke: #000000; stroke-width: 0.8"/>
      </g>
     </g>
     <g id="text_6">
      <!-- 2 -->
      <g transform="translate(254.994204 322.470438) scale(0.1 -0.1)">
       <use xlink:href="#DejaVuSans-32"/>
      </g>
     </g>
    </g>
    <g id="xtick_7">
     <g id="line2d_7">
      <g>
       <use xlink:href="#mf085ec49a3" x="301.079113" y="307.872" style="stroke: #000000; stroke-width: 0.8"/>
      </g>
     </g>
     <g id="text_7">
      <!-- 4 -->
      <g transform="translate(297.897863 322.470438) scale(0.1 -0.1)">
       <use xlink:href="#DejaVuSans-34"/>
      </g>
     </g>
    </g>
    <g id="xtick_8">
     <g id="line2d_8">
      <g>
       <use xlink:href="#mf085ec49a3" x="343.982772" y="307.872" style="stroke: #000000; stroke-width: 0.8"/>
      </g>
     </g>
     <g id="text_8">
      <!-- 6 -->
      <g transform="translate(340.801522 322.470438) scale(0.1 -0.1)">
       <use xlink:href="#DejaVuSans-36"/>
      </g>
     </g>
    </g>
    <g id="xtick_9">
     <g id="line2d_9">
      <g>
       <use xlink:href="#mf085ec49a3" x="386.886431" y="307.872" style="stroke: #000000; stroke-width: 0.8"/>
      </g>
     </g>
     <g id="text_9">
      <!-- 8 -->
      <g transform="translate(383.705181 322.470438) scale(0.1 -0.1)">
       <use xlink:href="#DejaVuSans-38"/>
      </g>
     </g>
    </g>
    <g id="text_10">
     <!-- Re$(S_{21})$ [mV] -->
     <g transform="translate(184.408438 336.148562) scale(0.1 -0.1)">
      <defs>
       <path id="DejaVuSans-52" d="M 2841 2188 
Q 3044 2119 3236 1894 
Q 3428 1669 3622 1275 
L 4263 0 
L 3584 0 
L 2988 1197 
Q 2756 1666 2539 1819 
Q 2322 1972 1947 1972 
L 1259 1972 
L 1259 0 
L 628 0 
L 628 4666 
L 2053 4666 
Q 2853 4666 3247 4331 
Q 3641 3997 3641 3322 
Q 3641 2881 3436 2590 
Q 3231 2300 2841 2188 
z
M 1259 4147 
L 1259 2491 
L 2053 2491 
Q 2509 2491 2742 2702 
Q 2975 2913 2975 3322 
Q 2975 3731 2742 3939 
Q 2509 4147 2053 4147 
L 1259 4147 
z
" transform="scale(0.015625)"/>
       <path id="DejaVuSans-65" d="M 3597 1894 
L 3597 1613 
L 953 1613 
Q 991 1019 1311 708 
Q 1631 397 2203 397 
Q 2534 397 2845 478 
Q 3156 559 3463 722 
L 3463 178 
Q 3153 47 2828 -22 
Q 2503 -91 2169 -91 
Q 1331 -91 842 396 
Q 353 884 353 1716 
Q 353 2575 817 3079 
Q 1281 3584 2069 3584 
Q 2775 3584 3186 3129 
Q 3597 2675 3597 1894 
z
M 3022 2063 
Q 3016 2534 2758 2815 
Q 2500 3097 2075 3097 
Q 1594 3097 1305 2825 
Q 1016 2553 972 2059 
L 3022 2063 
z
" transform="scale(0.015625)"/>
       <path id="DejaVuSans-28" d="M 1984 4856 
Q 1566 4138 1362 3434 
Q 1159 2731 1159 2009 
Q 1159 1288 1364 580 
Q 1569 -128 1984 -844 
L 1484 -844 
Q 1016 -109 783 600 
Q 550 1309 550 2009 
Q 550 2706 781 3412 
Q 1013 4119 1484 4856 
L 1984 4856 
z
" transform="scale(0.015625)"/>
       <path id="DejaVuSans-Oblique-53" d="M 3859 4513 
L 3738 3897 
Q 3422 4066 3111 4152 
Q 2800 4238 2509 4238 
Q 1944 4238 1609 3991 
Q 1275 3744 1275 3334 
Q 1275 3109 1398 2989 
Q 1522 2869 2034 2731 
L 2413 2638 
Q 3053 2472 3303 2217 
Q 3553 1963 3553 1503 
Q 3553 797 2998 353 
Q 2444 -91 1538 -91 
Q 1166 -91 791 -17 
Q 416 56 38 206 
L 166 856 
Q 513 641 861 531 
Q 1209 422 1556 422 
Q 2147 422 2503 684 
Q 2859 947 2859 1369 
Q 2859 1650 2717 1795 
Q 2575 1941 2106 2059 
L 1728 2156 
Q 1081 2325 845 2545 
Q 609 2766 609 3163 
Q 609 3859 1145 4304 
Q 1681 4750 2541 4750 
Q 2875 4750 3203 4690 
Q 3531 4631 3859 4513 
z
" transform="scale(0.015625)"/>
       <path id="DejaVuSans-31" d="M 794 531 
L 1825 531 
L 1825 4091 
L 703 3866 
L 703 4441 
L 1819 4666 
L 2450 4666 
L 2450 531 
L 3481 531 
L 3481 0 
L 794 0 
L 794 531 
z
" transform="scale(0.015625)"/>
       <path id="DejaVuSans-29" d="M 513 4856 
L 1013 4856 
Q 1481 4119 1714 3412 
Q 1947 2706 1947 2009 
Q 1947 1309 1714 600 
Q 1481 -109 1013 -844 
L 513 -844 
Q 928 -128 1133 580 
Q 1338 1288 1338 2009 
Q 1338 2731 1133 3434 
Q 928 4138 513 4856 
z
" transform="scale(0.015625)"/>
       <path id="DejaVuSans-20" transform="scale(0.015625)"/>
       <path id="DejaVuSans-5b" d="M 550 4863 
L 1875 4863 
L 1875 4416 
L 1125 4416 
L 1125 -397 
L 1875 -397 
L 1875 -844 
L 550 -844 
L 550 4863 
z
" transform="scale(0.015625)"/>
       <path id="DejaVuSans-6d" d="M 3328 2828 
Q 3544 3216 3844 3400 
Q 4144 3584 4550 3584 
Q 5097 3584 5394 3201 
Q 5691 2819 5691 2113 
L 5691 0 
L 5113 0 
L 5113 2094 
Q 5113 2597 4934 2840 
Q 4756 3084 4391 3084 
Q 3944 3084 3684 2787 
Q 3425 2491 3425 1978 
L 3425 0 
L 2847 0 
L 2847 2094 
Q 2847 2600 2669 2842 
Q 2491 3084 2119 3084 
Q 1678 3084 1418 2786 
Q 1159 2488 1159 1978 
L 1159 0 
L 581 0 
L 581 3500 
L 1159 3500 
L 1159 2956 
Q 1356 3278 1631 3431 
Q 1906 3584 2284 3584 
Q 2666 3584 2933 3390 
Q 3200 3197 3328 2828 
z
" transform="scale(0.015625)"/>
       <path id="DejaVuSans-56" d="M 1831 0 
L 50 4666 
L 709 4666 
L 2188 738 
L 3669 4666 
L 4325 4666 
L 2547 0 
L 1831 0 
z
" transform="scale(0.015625)"/>
       <path id="DejaVuSans-5d" d="M 1947 4863 
L 1947 -844 
L 622 -844 
L 622 -397 
L 1369 -397 
L 1369 4416 
L 622 4416 
L 622 4863 
L 1947 4863 
z
" transform="scale(0.015625)"/>
      </defs>
      <use xlink:href="#DejaVuSans-52" transform="translate(0 0.015625)"/>
      <use xlink:href="#DejaVuSans-65" transform="translate(69.482422 0.015625)"/>
      <use xlink:href="#DejaVuSans-28" transform="translate(131.005859 0.015625)"/>
      <use xlink:href="#DejaVuSans-Oblique-53" transform="translate(170.019531 0.015625)"/>
      <use xlink:href="#DejaVuSans-32" transform="translate(233.496094 -16.390625) scale(0.7)"/>
      <use xlink:href="#DejaVuSans-31" transform="translate(278.032227 -16.390625) scale(0.7)"/>
      <use xlink:href="#DejaVuSans-29" transform="translate(325.302734 0.015625)"/>
      <use xlink:href="#DejaVuSans-20" transform="translate(364.316406 0.015625)"/>
      <use xlink:href="#DejaVuSans-5b" transform="translate(396.103516 0.015625)"/>
      <use xlink:href="#DejaVuSans-6d" transform="translate(435.117188 0.015625)"/>
      <use xlink:href="#DejaVuSans-56" transform="translate(532.529297 0.015625)"/>
      <use xlink:href="#DejaVuSans-5d" transform="translate(600.9375 0.015625)"/>
     </g>
    </g>
   </g>
   <g id="matplotlib.axis_2">
    <g id="ytick_1">
     <g id="line2d_10">
      <defs>
       <path id="m72ace4807b" d="M 0 0 
L -3.5 0 
" style="stroke: #000000; stroke-width: 0.8"/>
      </defs>
      <g>
       <use xlink:href="#m72ace4807b" x="37.848438" y="302.322589" style="stroke: #000000; stroke-width: 0.8"/>
      </g>
     </g>
     <g id="text_11">
      <!-- -8 -->
      <g transform="translate(20.878125 306.121808) scale(0.1 -0.1)">
       <use xlink:href="#DejaVuSans-2d"/>
       <use xlink:href="#DejaVuSans-38" x="36.083984"/>
      </g>
     </g>
    </g>
    <g id="ytick_2">
     <g id="line2d_11">
      <g>
       <use xlink:href="#m72ace4807b" x="37.848438" y="270.108838" style="stroke: #000000; stroke-width: 0.8"/>
      </g>
     </g>
     <g id="text_12">
      <!-- -6 -->
      <g transform="translate(20.878125 273.908057) scale(0.1 -0.1)">
       <use xlink:href="#DejaVuSans-2d"/>
       <use xlink:href="#DejaVuSans-36" x="36.083984"/>
      </g>
     </g>
    </g>
    <g id="ytick_3">
     <g id="line2d_12">
      <g>
       <use xlink:href="#m72ace4807b" x="37.848438" y="237.895086" style="stroke: #000000; stroke-width: 0.8"/>
      </g>
     </g>
     <g id="text_13">
      <!-- -4 -->
      <g transform="translate(20.878125 241.694305) scale(0.1 -0.1)">
       <use xlink:href="#DejaVuSans-2d"/>
       <use xlink:href="#DejaVuSans-34" x="36.083984"/>
      </g>
     </g>
    </g>
    <g id="ytick_4">
     <g id="line2d_13">
      <g>
       <use xlink:href="#m72ace4807b" x="37.848438" y="205.681335" style="stroke: #000000; stroke-width: 0.8"/>
      </g>
     </g>
     <g id="text_14">
      <!-- -2 -->
      <g transform="translate(20.878125 209.480553) scale(0.1 -0.1)">
       <use xlink:href="#DejaVuSans-2d"/>
       <use xlink:href="#DejaVuSans-32" x="36.083984"/>
      </g>
     </g>
    </g>
    <g id="ytick_5">
     <g id="line2d_14">
      <g>
       <use xlink:href="#m72ace4807b" x="37.848438" y="173.467583" style="stroke: #000000; stroke-width: 0.8"/>
      </g>
     </g>
     <g id="text_15">
      <!-- 0 -->
      <g transform="translate(24.485938 177.266802) scale(0.1 -0.1)">
       <use xlink:href="#DejaVuSans-30"/>
      </g>
     </g>
    </g>
    <g id="ytick_6">
     <g id="line2d_15">
      <g>
       <use xlink:href="#m72ace4807b" x="37.848438" y="141.253832" style="stroke: #000000; stroke-width: 0.8"/>
      </g>
     </g>
     <g id="text_16">
      <!-- 2 -->
      <g transform="translate(24.485938 145.05305) scale(0.1 -0.1)">
       <use xlink:href="#DejaVuSans-32"/>
      </g>
     </g>
    </g>
    <g id="ytick_7">
     <g id="line2d_16">
      <g>
       <use xlink:href="#m72ace4807b" x="37.848438" y="109.04008" style="stroke: #000000; stroke-width: 0.8"/>
      </g>
     </g>
     <g id="text_17">
      <!-- 4 -->
      <g transform="translate(24.485938 112.839299) scale(0.1 -0.1)">
       <use xlink:href="#DejaVuSans-34"/>
      </g>
     </g>
    </g>
    <g id="ytick_8">
     <g id="line2d_17">
      <g>
       <use xlink:href="#m72ace4807b" x="37.848438" y="76.826329" style="stroke: #000000; stroke-width: 0.8"/>
      </g>
     </g>
     <g id="text_18">
      <!-- 6 -->
      <g transform="translate(24.485938 80.625547) scale(0.1 -0.1)">
       <use xlink:href="#DejaVuSans-36"/>
      </g>
     </g>
    </g>
    <g id="ytick_9">
     <g id="line2d_18">
      <g>
       <use xlink:href="#m72ace4807b" x="37.848438" y="44.612577" style="stroke: #000000; stroke-width: 0.8"/>
      </g>
     </g>
     <g id="text_19">
      <!-- 8 -->
      <g transform="translate(24.485938 48.411796) scale(0.1 -0.1)">
       <use xlink:href="#DejaVuSans-38"/>
      </g>
     </g>
    </g>
    <g id="text_20">
     <!-- Im$(S_{21})$ [mV] -->
     <g transform="translate(14.798438 206.466) rotate(-90) scale(0.1 -0.1)">
      <defs>
       <path id="DejaVuSans-49" d="M 628 4666 
L 1259 4666 
L 1259 0 
L 628 0 
L 628 4666 
z
" transform="scale(0.015625)"/>
      </defs>
      <use xlink:href="#DejaVuSans-49" transform="translate(0 0.015625)"/>
      <use xlink:href="#DejaVuSans-6d" transform="translate(25.867188 0.015625)"/>
      <use xlink:href="#DejaVuSans-28" transform="translate(123.279297 0.015625)"/>
      <use xlink:href="#DejaVuSans-Oblique-53" transform="translate(162.292969 0.015625)"/>
      <use xlink:href="#DejaVuSans-32" transform="translate(225.769531 -16.390625) scale(0.7)"/>
      <use xlink:href="#DejaVuSans-31" transform="translate(270.305664 -16.390625) scale(0.7)"/>
      <use xlink:href="#DejaVuSans-29" transform="translate(317.576172 0.015625)"/>
      <use xlink:href="#DejaVuSans-20" transform="translate(356.589844 0.015625)"/>
      <use xlink:href="#DejaVuSans-5b" transform="translate(388.376953 0.015625)"/>
      <use xlink:href="#DejaVuSans-6d" transform="translate(427.390625 0.015625)"/>
      <use xlink:href="#DejaVuSans-56" transform="translate(524.802734 0.015625)"/>
      <use xlink:href="#DejaVuSans-5d" transform="translate(593.210938 0.015625)"/>
     </g>
    </g>
   </g>
   <g id="line2d_19">
    <path d="M 261.758417 54.958153 
L 271.804408 58.145425 
L 280.499939 60.725767 
L 291.775128 64.325874 
L 300.20248 68.696617 
L 310.263702 73.297684 
L 320.011699 78.261477 
L 326.460127 83.587931 
L 333.719596 88.991139 
L 340.107237 95.13546 
L 348.063885 100.777764 
L 353.40504 107.665448 
L 359.250113 114.830065 
L 363.708704 122.546943 
L 367.404523 129.584884 
L 370.877801 136.965402 
L 374.106118 145.451884 
L 377.537824 160.711465 
L 378.707059 169.131781 
L 378.73571 176.629445 
L 378.307402 184.167526 
L 376.351513 192.14423 
L 374.855339 200.904682 
L 371.118613 208.459621 
L 367.873157 215.767331 
L 364.119909 222.98462 
L 353.722563 237.812337 
L 348.201797 245.006528 
L 340.880546 250.148673 
L 334.45434 256.35346 
L 327.20349 262.794235 
L 317.768028 267.87045 
L 310.429511 272.281826 
L 301.191035 277.18059 
L 291.721394 280.955229 
L 282.162146 285.090821 
L 272.821646 288.124473 
L 260.680476 290.114124 
L 251.300996 292.638592 
L 241.327756 293.528499 
L 231.143686 294.660674 
L 218.988866 293.752429 
L 209.823454 295.488045 
L 198.333904 294.763999 
L 188.080039 293.158863 
L 177.612809 291.930204 
L 166.777995 289.673495 
L 156.82639 286.882906 
L 147.22077 283.506819 
L 128.365382 276.163658 
L 119.665884 270.871963 
L 111.45991 266.254384 
L 104.59087 260.628627 
L 96.535059 254.62269 
L 89.62452 248.961462 
L 81.986862 242.221454 
L 76.177592 236.15565 
L 72.177879 228.403616 
L 67.29043 221.546415 
L 59.952254 206.156511 
L 56.844804 198.522655 
L 56.354645 190.655587 
L 54.081165 183.032805 
L 54.406793 174.589033 
L 55.487522 166.278023 
L 56.253029 158.849799 
L 57.716474 150.396317 
L 60.513323 143.185579 
L 64.501247 136.20409 
L 67.571169 127.935381 
L 70.039801 120.730438 
L 76.343275 113.124255 
L 82.883332 106.058849 
L 88.085757 100.036305 
L 96.419961 94.015418 
L 102.801634 87.841044 
L 111.061416 82.664481 
L 119.538871 78.179389 
L 128.149664 73.416691 
L 137.347248 68.612684 
L 146.021223 65.799272 
L 156.125134 62.170724 
L 166.523717 59.32002 
L 176.816691 57.643441 
L 187.193477 56.370002 
L 197.644228 54.638399 
L 207.681902 54.032137 
L 219.229327 53.856 
L 229.06661 54.177811 
L 239.071876 55.487028 
L 249.925496 56.474788 
L 259.218802 58.954884 
L 270.235128 61.455715 
L 289.35486 68.013499 
L 298.930241 72.415834 
L 307.138657 76.573902 
L 316.280558 81.756355 
L 323.474849 87.843656 
L 331.137805 93.467281 
L 337.180467 99.108342 
L 343.992261 104.966441 
L 350.280267 112.197594 
L 354.659815 118.308871 
L 359.62246 126.083657 
L 364.472282 134.1885 
L 364.900742 141.548823 
L 367.888855 147.731849 
L 370.837748 156.981023 
L 372.63332 163.846141 
L 372.987285 172.493983 
L 371.689827 179.976189 
L 369.004481 188.181143 
L 368.574407 195.932237 
L 366.330008 204.666078 
L 364.571943 210.960263 
L 359.231287 218.614955 
L 354.886699 226.032168 
L 348.875025 232.664404 
L 344.132798 239.725817 
L 337.980147 244.848217 
L 330.807377 251.730924 
L 324.036002 257.126373 
L 315.473489 262.64393 
L 308.359347 266.789826 
L 298.242258 271.041813 
L 290.077358 275.726309 
L 279.819296 279.624036 
L 270.51243 281.777372 
L 260.115885 284.642083 
L 250.427901 286.463596 
L 239.562868 287.473871 
L 218.640444 288.564217 
L 208.224732 288.98874 
L 198.47028 288.236749 
L 187.54334 285.761943 
L 176.836456 285.279756 
L 167.416247 282.562392 
L 158.091461 280.198053 
L 148.43405 276.690306 
L 139.440316 272.94905 
L 130.581685 268.067262 
L 121.948492 264.08138 
L 114.458701 258.980973 
L 106.495551 252.208091 
L 100.465365 246.363231 
L 92.871459 240.775703 
L 83.071929 228.658336 
L 78.577236 220.640503 
L 74.147313 214.48098 
L 73.493163 206.452096 
L 69.321327 198.127659 
L 67.136065 190.768744 
L 65.558921 175.76454 
L 66.360446 166.699316 
L 68.645961 152.041154 
L 73.215217 144.809411 
L 75.534687 136.427824 
L 79.405422 130.213623 
L 83.532551 122.982316 
L 89.841207 115.630531 
L 96.080525 109.038314 
L 103.000469 104.452925 
L 109.774966 97.903486 
L 114.998754 93.032596 
L 125.197752 87.910483 
L 133.514612 83.301718 
L 141.879233 79.094676 
L 151.543607 77.155772 
L 160.881708 73.149488 
L 171.120361 71.368171 
L 180.359628 68.345228 
L 190.096668 68.648902 
L 201.712483 67.475835 
L 221.368846 67.789089 
L 231.534728 68.605492 
L 241.697645 70.631901 
L 261.233398 75.726816 
L 269.326727 79.153729 
L 277.915481 83.161697 
L 286.556371 87.573156 
L 293.975597 92.092539 
L 302.198967 97.322029 
L 308.819974 102.720425 
L 314.64357 108.657465 
L 319.690393 114.32153 
L 325.349421 121.801907 
L 329.229378 128.936195 
L 332.109671 134.630062 
L 335.56176 142.059648 
L 335.56176 142.059648 
" clip-path="url(#p01249011f7)" style="fill: none; stroke: #1f77b4; stroke-width: 1.5; stroke-linecap: square"/>
    <defs>
     <path id="m7aae7fbf17" d="M 0 1.5 
C 0.397805 1.5 0.77937 1.341951 1.06066 1.06066 
C 1.341951 0.77937 1.5 0.397805 1.5 0 
C 1.5 -0.397805 1.341951 -0.77937 1.06066 -1.06066 
C 0.77937 -1.341951 0.397805 -1.5 0 -1.5 
C -0.397805 -1.5 -0.77937 -1.341951 -1.06066 -1.06066 
C -1.341951 -0.77937 -1.5 -0.397805 -1.5 0 
C -1.5 0.397805 -1.341951 0.77937 -1.06066 1.06066 
C -0.77937 1.341951 -0.397805 1.5 0 1.5 
z
" style="stroke: #1f77b4"/>
    </defs>
    <g clip-path="url(#p01249011f7)">
     <use xlink:href="#m7aae7fbf17" x="261.758417" y="54.958153" style="fill: #1f77b4; stroke: #1f77b4"/>
     <use xlink:href="#m7aae7fbf17" x="271.804408" y="58.145425" style="fill: #1f77b4; stroke: #1f77b4"/>
     <use xlink:href="#m7aae7fbf17" x="280.499939" y="60.725767" style="fill: #1f77b4; stroke: #1f77b4"/>
     <use xlink:href="#m7aae7fbf17" x="291.775128" y="64.325874" style="fill: #1f77b4; stroke: #1f77b4"/>
     <use xlink:href="#m7aae7fbf17" x="300.20248" y="68.696617" style="fill: #1f77b4; stroke: #1f77b4"/>
     <use xlink:href="#m7aae7fbf17" x="310.263702" y="73.297684" style="fill: #1f77b4; stroke: #1f77b4"/>
     <use xlink:href="#m7aae7fbf17" x="320.011699" y="78.261477" style="fill: #1f77b4; stroke: #1f77b4"/>
     <use xlink:href="#m7aae7fbf17" x="326.460127" y="83.587931" style="fill: #1f77b4; stroke: #1f77b4"/>
     <use xlink:href="#m7aae7fbf17" x="333.719596" y="88.991139" style="fill: #1f77b4; stroke: #1f77b4"/>
     <use xlink:href="#m7aae7fbf17" x="340.107237" y="95.13546" style="fill: #1f77b4; stroke: #1f77b4"/>
     <use xlink:href="#m7aae7fbf17" x="348.063885" y="100.777764" style="fill: #1f77b4; stroke: #1f77b4"/>
     <use xlink:href="#m7aae7fbf17" x="353.40504" y="107.665448" style="fill: #1f77b4; stroke: #1f77b4"/>
     <use xlink:href="#m7aae7fbf17" x="359.250113" y="114.830065" style="fill: #1f77b4; stroke: #1f77b4"/>
     <use xlink:href="#m7aae7fbf17" x="363.708704" y="122.546943" style="fill: #1f77b4; stroke: #1f77b4"/>
     <use xlink:href="#m7aae7fbf17" x="367.404523" y="129.584884" style="fill: #1f77b4; stroke: #1f77b4"/>
     <use xlink:href="#m7aae7fbf17" x="370.877801" y="136.965402" style="fill: #1f77b4; stroke: #1f77b4"/>
     <use xlink:href="#m7aae7fbf17" x="374.106118" y="145.451884" style="fill: #1f77b4; stroke: #1f77b4"/>
     <use xlink:href="#m7aae7fbf17" x="375.682194" y="152.57468" style="fill: #1f77b4; stroke: #1f77b4"/>
     <use xlink:href="#m7aae7fbf17" x="377.537824" y="160.711465" style="fill: #1f77b4; stroke: #1f77b4"/>
     <use xlink:href="#m7aae7fbf17" x="378.707059" y="169.131781" style="fill: #1f77b4; stroke: #1f77b4"/>
     <use xlink:href="#m7aae7fbf17" x="378.73571" y="176.629445" style="fill: #1f77b4; stroke: #1f77b4"/>
     <use xlink:href="#m7aae7fbf17" x="378.307402" y="184.167526" style="fill: #1f77b4; stroke: #1f77b4"/>
     <use xlink:href="#m7aae7fbf17" x="376.351513" y="192.14423" style="fill: #1f77b4; stroke: #1f77b4"/>
     <use xlink:href="#m7aae7fbf17" x="374.855339" y="200.904682" style="fill: #1f77b4; stroke: #1f77b4"/>
     <use xlink:href="#m7aae7fbf17" x="371.118613" y="208.459621" style="fill: #1f77b4; stroke: #1f77b4"/>
     <use xlink:href="#m7aae7fbf17" x="367.873157" y="215.767331" style="fill: #1f77b4; stroke: #1f77b4"/>
     <use xlink:href="#m7aae7fbf17" x="364.119909" y="222.98462" style="fill: #1f77b4; stroke: #1f77b4"/>
     <use xlink:href="#m7aae7fbf17" x="358.742668" y="230.695041" style="fill: #1f77b4; stroke: #1f77b4"/>
     <use xlink:href="#m7aae7fbf17" x="353.722563" y="237.812337" style="fill: #1f77b4; stroke: #1f77b4"/>
     <use xlink:href="#m7aae7fbf17" x="348.201797" y="245.006528" style="fill: #1f77b4; stroke: #1f77b4"/>
     <use xlink:href="#m7aae7fbf17" x="340.880546" y="250.148673" style="fill: #1f77b4; stroke: #1f77b4"/>
     <use xlink:href="#m7aae7fbf17" x="334.45434" y="256.35346" style="fill: #1f77b4; stroke: #1f77b4"/>
     <use xlink:href="#m7aae7fbf17" x="327.20349" y="262.794235" style="fill: #1f77b4; stroke: #1f77b4"/>
     <use xlink:href="#m7aae7fbf17" x="317.768028" y="267.87045" style="fill: #1f77b4; stroke: #1f77b4"/>
     <use xlink:href="#m7aae7fbf17" x="310.429511" y="272.281826" style="fill: #1f77b4; stroke: #1f77b4"/>
     <use xlink:href="#m7aae7fbf17" x="301.191035" y="277.18059" style="fill: #1f77b4; stroke: #1f77b4"/>
     <use xlink:href="#m7aae7fbf17" x="291.721394" y="280.955229" style="fill: #1f77b4; stroke: #1f77b4"/>
     <use xlink:href="#m7aae7fbf17" x="282.162146" y="285.090821" style="fill: #1f77b4; stroke: #1f77b4"/>
     <use xlink:href="#m7aae7fbf17" x="272.821646" y="288.124473" style="fill: #1f77b4; stroke: #1f77b4"/>
     <use xlink:href="#m7aae7fbf17" x="260.680476" y="290.114124" style="fill: #1f77b4; stroke: #1f77b4"/>
     <use xlink:href="#m7aae7fbf17" x="251.300996" y="292.638592" style="fill: #1f77b4; stroke: #1f77b4"/>
     <use xlink:href="#m7aae7fbf17" x="241.327756" y="293.528499" style="fill: #1f77b4; stroke: #1f77b4"/>
     <use xlink:href="#m7aae7fbf17" x="231.143686" y="294.660674" style="fill: #1f77b4; stroke: #1f77b4"/>
     <use xlink:href="#m7aae7fbf17" x="218.988866" y="293.752429" style="fill: #1f77b4; stroke: #1f77b4"/>
     <use xlink:href="#m7aae7fbf17" x="209.823454" y="295.488045" style="fill: #1f77b4; stroke: #1f77b4"/>
     <use xlink:href="#m7aae7fbf17" x="198.333904" y="294.763999" style="fill: #1f77b4; stroke: #1f77b4"/>
     <use xlink:href="#m7aae7fbf17" x="188.080039" y="293.158863" style="fill: #1f77b4; stroke: #1f77b4"/>
     <use xlink:href="#m7aae7fbf17" x="177.612809" y="291.930204" style="fill: #1f77b4; stroke: #1f77b4"/>
     <use xlink:href="#m7aae7fbf17" x="166.777995" y="289.673495" style="fill: #1f77b4; stroke: #1f77b4"/>
     <use xlink:href="#m7aae7fbf17" x="156.82639" y="286.882906" style="fill: #1f77b4; stroke: #1f77b4"/>
     <use xlink:href="#m7aae7fbf17" x="147.22077" y="283.506819" style="fill: #1f77b4; stroke: #1f77b4"/>
     <use xlink:href="#m7aae7fbf17" x="137.466082" y="279.754016" style="fill: #1f77b4; stroke: #1f77b4"/>
     <use xlink:href="#m7aae7fbf17" x="128.365382" y="276.163658" style="fill: #1f77b4; stroke: #1f77b4"/>
     <use xlink:href="#m7aae7fbf17" x="119.665884" y="270.871963" style="fill: #1f77b4; stroke: #1f77b4"/>
     <use xlink:href="#m7aae7fbf17" x="111.45991" y="266.254384" style="fill: #1f77b4; stroke: #1f77b4"/>
     <use xlink:href="#m7aae7fbf17" x="104.59087" y="260.628627" style="fill: #1f77b4; stroke: #1f77b4"/>
     <use xlink:href="#m7aae7fbf17" x="96.535059" y="254.62269" style="fill: #1f77b4; stroke: #1f77b4"/>
     <use xlink:href="#m7aae7fbf17" x="89.62452" y="248.961462" style="fill: #1f77b4; stroke: #1f77b4"/>
     <use xlink:href="#m7aae7fbf17" x="81.986862" y="242.221454" style="fill: #1f77b4; stroke: #1f77b4"/>
     <use xlink:href="#m7aae7fbf17" x="76.177592" y="236.15565" style="fill: #1f77b4; stroke: #1f77b4"/>
     <use xlink:href="#m7aae7fbf17" x="72.177879" y="228.403616" style="fill: #1f77b4; stroke: #1f77b4"/>
     <use xlink:href="#m7aae7fbf17" x="67.29043" y="221.546415" style="fill: #1f77b4; stroke: #1f77b4"/>
     <use xlink:href="#m7aae7fbf17" x="63.725958" y="214.194295" style="fill: #1f77b4; stroke: #1f77b4"/>
     <use xlink:href="#m7aae7fbf17" x="59.952254" y="206.156511" style="fill: #1f77b4; stroke: #1f77b4"/>
     <use xlink:href="#m7aae7fbf17" x="56.844804" y="198.522655" style="fill: #1f77b4; stroke: #1f77b4"/>
     <use xlink:href="#m7aae7fbf17" x="56.354645" y="190.655587" style="fill: #1f77b4; stroke: #1f77b4"/>
     <use xlink:href="#m7aae7fbf17" x="54.081165" y="183.032805" style="fill: #1f77b4; stroke: #1f77b4"/>
     <use xlink:href="#m7aae7fbf17" x="54.406793" y="174.589033" style="fill: #1f77b4; stroke: #1f77b4"/>
     <use xlink:href="#m7aae7fbf17" x="55.487522" y="166.278023" style="fill: #1f77b4; stroke: #1f77b4"/>
     <use xlink:href="#m7aae7fbf17" x="56.253029" y="158.849799" style="fill: #1f77b4; stroke: #1f77b4"/>
     <use xlink:href="#m7aae7fbf17" x="57.716474" y="150.396317" style="fill: #1f77b4; stroke: #1f77b4"/>
     <use xlink:href="#m7aae7fbf17" x="60.513323" y="143.185579" style="fill: #1f77b4; stroke: #1f77b4"/>
     <use xlink:href="#m7aae7fbf17" x="64.501247" y="136.20409" style="fill: #1f77b4; stroke: #1f77b4"/>
     <use xlink:href="#m7aae7fbf17" x="67.571169" y="127.935381" style="fill: #1f77b4; stroke: #1f77b4"/>
     <use xlink:href="#m7aae7fbf17" x="70.039801" y="120.730438" style="fill: #1f77b4; stroke: #1f77b4"/>
     <use xlink:href="#m7aae7fbf17" x="76.343275" y="113.124255" style="fill: #1f77b4; stroke: #1f77b4"/>
     <use xlink:href="#m7aae7fbf17" x="82.883332" y="106.058849" style="fill: #1f77b4; stroke: #1f77b4"/>
     <use xlink:href="#m7aae7fbf17" x="88.085757" y="100.036305" style="fill: #1f77b4; stroke: #1f77b4"/>
     <use xlink:href="#m7aae7fbf17" x="96.419961" y="94.015418" style="fill: #1f77b4; stroke: #1f77b4"/>
     <use xlink:href="#m7aae7fbf17" x="102.801634" y="87.841044" style="fill: #1f77b4; stroke: #1f77b4"/>
     <use xlink:href="#m7aae7fbf17" x="111.061416" y="82.664481" style="fill: #1f77b4; stroke: #1f77b4"/>
     <use xlink:href="#m7aae7fbf17" x="119.538871" y="78.179389" style="fill: #1f77b4; stroke: #1f77b4"/>
     <use xlink:href="#m7aae7fbf17" x="128.149664" y="73.416691" style="fill: #1f77b4; stroke: #1f77b4"/>
     <use xlink:href="#m7aae7fbf17" x="137.347248" y="68.612684" style="fill: #1f77b4; stroke: #1f77b4"/>
     <use xlink:href="#m7aae7fbf17" x="146.021223" y="65.799272" style="fill: #1f77b4; stroke: #1f77b4"/>
     <use xlink:href="#m7aae7fbf17" x="156.125134" y="62.170724" style="fill: #1f77b4; stroke: #1f77b4"/>
     <use xlink:href="#m7aae7fbf17" x="166.523717" y="59.32002" style="fill: #1f77b4; stroke: #1f77b4"/>
     <use xlink:href="#m7aae7fbf17" x="176.816691" y="57.643441" style="fill: #1f77b4; stroke: #1f77b4"/>
     <use xlink:href="#m7aae7fbf17" x="187.193477" y="56.370002" style="fill: #1f77b4; stroke: #1f77b4"/>
     <use xlink:href="#m7aae7fbf17" x="197.644228" y="54.638399" style="fill: #1f77b4; stroke: #1f77b4"/>
     <use xlink:href="#m7aae7fbf17" x="207.681902" y="54.032137" style="fill: #1f77b4; stroke: #1f77b4"/>
     <use xlink:href="#m7aae7fbf17" x="219.229327" y="53.856" style="fill: #1f77b4; stroke: #1f77b4"/>
     <use xlink:href="#m7aae7fbf17" x="229.06661" y="54.177811" style="fill: #1f77b4; stroke: #1f77b4"/>
     <use xlink:href="#m7aae7fbf17" x="239.071876" y="55.487028" style="fill: #1f77b4; stroke: #1f77b4"/>
     <use xlink:href="#m7aae7fbf17" x="249.925496" y="56.474788" style="fill: #1f77b4; stroke: #1f77b4"/>
     <use xlink:href="#m7aae7fbf17" x="259.218802" y="58.954884" style="fill: #1f77b4; stroke: #1f77b4"/>
     <use xlink:href="#m7aae7fbf17" x="270.235128" y="61.455715" style="fill: #1f77b4; stroke: #1f77b4"/>
     <use xlink:href="#m7aae7fbf17" x="279.500972" y="64.58168" style="fill: #1f77b4; stroke: #1f77b4"/>
     <use xlink:href="#m7aae7fbf17" x="289.35486" y="68.013499" style="fill: #1f77b4; stroke: #1f77b4"/>
     <use xlink:href="#m7aae7fbf17" x="298.930241" y="72.415834" style="fill: #1f77b4; stroke: #1f77b4"/>
     <use xlink:href="#m7aae7fbf17" x="307.138657" y="76.573902" style="fill: #1f77b4; stroke: #1f77b4"/>
     <use xlink:href="#m7aae7fbf17" x="316.280558" y="81.756355" style="fill: #1f77b4; stroke: #1f77b4"/>
     <use xlink:href="#m7aae7fbf17" x="323.474849" y="87.843656" style="fill: #1f77b4; stroke: #1f77b4"/>
     <use xlink:href="#m7aae7fbf17" x="331.137805" y="93.467281" style="fill: #1f77b4; stroke: #1f77b4"/>
     <use xlink:href="#m7aae7fbf17" x="337.180467" y="99.108342" style="fill: #1f77b4; stroke: #1f77b4"/>
     <use xlink:href="#m7aae7fbf17" x="343.992261" y="104.966441" style="fill: #1f77b4; stroke: #1f77b4"/>
     <use xlink:href="#m7aae7fbf17" x="350.280267" y="112.197594" style="fill: #1f77b4; stroke: #1f77b4"/>
     <use xlink:href="#m7aae7fbf17" x="354.659815" y="118.308871" style="fill: #1f77b4; stroke: #1f77b4"/>
     <use xlink:href="#m7aae7fbf17" x="359.62246" y="126.083657" style="fill: #1f77b4; stroke: #1f77b4"/>
     <use xlink:href="#m7aae7fbf17" x="364.472282" y="134.1885" style="fill: #1f77b4; stroke: #1f77b4"/>
     <use xlink:href="#m7aae7fbf17" x="364.900742" y="141.548823" style="fill: #1f77b4; stroke: #1f77b4"/>
     <use xlink:href="#m7aae7fbf17" x="367.888855" y="147.731849" style="fill: #1f77b4; stroke: #1f77b4"/>
     <use xlink:href="#m7aae7fbf17" x="370.837748" y="156.981023" style="fill: #1f77b4; stroke: #1f77b4"/>
     <use xlink:href="#m7aae7fbf17" x="372.63332" y="163.846141" style="fill: #1f77b4; stroke: #1f77b4"/>
     <use xlink:href="#m7aae7fbf17" x="372.987285" y="172.493983" style="fill: #1f77b4; stroke: #1f77b4"/>
     <use xlink:href="#m7aae7fbf17" x="371.689827" y="179.976189" style="fill: #1f77b4; stroke: #1f77b4"/>
     <use xlink:href="#m7aae7fbf17" x="369.004481" y="188.181143" style="fill: #1f77b4; stroke: #1f77b4"/>
     <use xlink:href="#m7aae7fbf17" x="368.574407" y="195.932237" style="fill: #1f77b4; stroke: #1f77b4"/>
     <use xlink:href="#m7aae7fbf17" x="366.330008" y="204.666078" style="fill: #1f77b4; stroke: #1f77b4"/>
     <use xlink:href="#m7aae7fbf17" x="364.571943" y="210.960263" style="fill: #1f77b4; stroke: #1f77b4"/>
     <use xlink:href="#m7aae7fbf17" x="359.231287" y="218.614955" style="fill: #1f77b4; stroke: #1f77b4"/>
     <use xlink:href="#m7aae7fbf17" x="354.886699" y="226.032168" style="fill: #1f77b4; stroke: #1f77b4"/>
     <use xlink:href="#m7aae7fbf17" x="348.875025" y="232.664404" style="fill: #1f77b4; stroke: #1f77b4"/>
     <use xlink:href="#m7aae7fbf17" x="344.132798" y="239.725817" style="fill: #1f77b4; stroke: #1f77b4"/>
     <use xlink:href="#m7aae7fbf17" x="337.980147" y="244.848217" style="fill: #1f77b4; stroke: #1f77b4"/>
     <use xlink:href="#m7aae7fbf17" x="330.807377" y="251.730924" style="fill: #1f77b4; stroke: #1f77b4"/>
     <use xlink:href="#m7aae7fbf17" x="324.036002" y="257.126373" style="fill: #1f77b4; stroke: #1f77b4"/>
     <use xlink:href="#m7aae7fbf17" x="315.473489" y="262.64393" style="fill: #1f77b4; stroke: #1f77b4"/>
     <use xlink:href="#m7aae7fbf17" x="308.359347" y="266.789826" style="fill: #1f77b4; stroke: #1f77b4"/>
     <use xlink:href="#m7aae7fbf17" x="298.242258" y="271.041813" style="fill: #1f77b4; stroke: #1f77b4"/>
     <use xlink:href="#m7aae7fbf17" x="290.077358" y="275.726309" style="fill: #1f77b4; stroke: #1f77b4"/>
     <use xlink:href="#m7aae7fbf17" x="279.819296" y="279.624036" style="fill: #1f77b4; stroke: #1f77b4"/>
     <use xlink:href="#m7aae7fbf17" x="270.51243" y="281.777372" style="fill: #1f77b4; stroke: #1f77b4"/>
     <use xlink:href="#m7aae7fbf17" x="260.115885" y="284.642083" style="fill: #1f77b4; stroke: #1f77b4"/>
     <use xlink:href="#m7aae7fbf17" x="250.427901" y="286.463596" style="fill: #1f77b4; stroke: #1f77b4"/>
     <use xlink:href="#m7aae7fbf17" x="239.562868" y="287.473871" style="fill: #1f77b4; stroke: #1f77b4"/>
     <use xlink:href="#m7aae7fbf17" x="228.563744" y="288.05735" style="fill: #1f77b4; stroke: #1f77b4"/>
     <use xlink:href="#m7aae7fbf17" x="218.640444" y="288.564217" style="fill: #1f77b4; stroke: #1f77b4"/>
     <use xlink:href="#m7aae7fbf17" x="208.224732" y="288.98874" style="fill: #1f77b4; stroke: #1f77b4"/>
     <use xlink:href="#m7aae7fbf17" x="198.47028" y="288.236749" style="fill: #1f77b4; stroke: #1f77b4"/>
     <use xlink:href="#m7aae7fbf17" x="187.54334" y="285.761943" style="fill: #1f77b4; stroke: #1f77b4"/>
     <use xlink:href="#m7aae7fbf17" x="176.836456" y="285.279756" style="fill: #1f77b4; stroke: #1f77b4"/>
     <use xlink:href="#m7aae7fbf17" x="167.416247" y="282.562392" style="fill: #1f77b4; stroke: #1f77b4"/>
     <use xlink:href="#m7aae7fbf17" x="158.091461" y="280.198053" style="fill: #1f77b4; stroke: #1f77b4"/>
     <use xlink:href="#m7aae7fbf17" x="148.43405" y="276.690306" style="fill: #1f77b4; stroke: #1f77b4"/>
     <use xlink:href="#m7aae7fbf17" x="139.440316" y="272.94905" style="fill: #1f77b4; stroke: #1f77b4"/>
     <use xlink:href="#m7aae7fbf17" x="130.581685" y="268.067262" style="fill: #1f77b4; stroke: #1f77b4"/>
     <use xlink:href="#m7aae7fbf17" x="121.948492" y="264.08138" style="fill: #1f77b4; stroke: #1f77b4"/>
     <use xlink:href="#m7aae7fbf17" x="114.458701" y="258.980973" style="fill: #1f77b4; stroke: #1f77b4"/>
     <use xlink:href="#m7aae7fbf17" x="106.495551" y="252.208091" style="fill: #1f77b4; stroke: #1f77b4"/>
     <use xlink:href="#m7aae7fbf17" x="100.465365" y="246.363231" style="fill: #1f77b4; stroke: #1f77b4"/>
     <use xlink:href="#m7aae7fbf17" x="92.871459" y="240.775703" style="fill: #1f77b4; stroke: #1f77b4"/>
     <use xlink:href="#m7aae7fbf17" x="87.097375" y="233.648863" style="fill: #1f77b4; stroke: #1f77b4"/>
     <use xlink:href="#m7aae7fbf17" x="83.071929" y="228.658336" style="fill: #1f77b4; stroke: #1f77b4"/>
     <use xlink:href="#m7aae7fbf17" x="78.577236" y="220.640503" style="fill: #1f77b4; stroke: #1f77b4"/>
     <use xlink:href="#m7aae7fbf17" x="74.147313" y="214.48098" style="fill: #1f77b4; stroke: #1f77b4"/>
     <use xlink:href="#m7aae7fbf17" x="73.493163" y="206.452096" style="fill: #1f77b4; stroke: #1f77b4"/>
     <use xlink:href="#m7aae7fbf17" x="69.321327" y="198.127659" style="fill: #1f77b4; stroke: #1f77b4"/>
     <use xlink:href="#m7aae7fbf17" x="67.136065" y="190.768744" style="fill: #1f77b4; stroke: #1f77b4"/>
     <use xlink:href="#m7aae7fbf17" x="66.267659" y="182.986601" style="fill: #1f77b4; stroke: #1f77b4"/>
     <use xlink:href="#m7aae7fbf17" x="65.558921" y="175.76454" style="fill: #1f77b4; stroke: #1f77b4"/>
     <use xlink:href="#m7aae7fbf17" x="66.360446" y="166.699316" style="fill: #1f77b4; stroke: #1f77b4"/>
     <use xlink:href="#m7aae7fbf17" x="67.56048" y="159.275891" style="fill: #1f77b4; stroke: #1f77b4"/>
     <use xlink:href="#m7aae7fbf17" x="68.645961" y="152.041154" style="fill: #1f77b4; stroke: #1f77b4"/>
     <use xlink:href="#m7aae7fbf17" x="73.215217" y="144.809411" style="fill: #1f77b4; stroke: #1f77b4"/>
     <use xlink:href="#m7aae7fbf17" x="75.534687" y="136.427824" style="fill: #1f77b4; stroke: #1f77b4"/>
     <use xlink:href="#m7aae7fbf17" x="79.405422" y="130.213623" style="fill: #1f77b4; stroke: #1f77b4"/>
     <use xlink:href="#m7aae7fbf17" x="83.532551" y="122.982316" style="fill: #1f77b4; stroke: #1f77b4"/>
     <use xlink:href="#m7aae7fbf17" x="89.841207" y="115.630531" style="fill: #1f77b4; stroke: #1f77b4"/>
     <use xlink:href="#m7aae7fbf17" x="96.080525" y="109.038314" style="fill: #1f77b4; stroke: #1f77b4"/>
     <use xlink:href="#m7aae7fbf17" x="103.000469" y="104.452925" style="fill: #1f77b4; stroke: #1f77b4"/>
     <use xlink:href="#m7aae7fbf17" x="109.774966" y="97.903486" style="fill: #1f77b4; stroke: #1f77b4"/>
     <use xlink:href="#m7aae7fbf17" x="114.998754" y="93.032596" style="fill: #1f77b4; stroke: #1f77b4"/>
     <use xlink:href="#m7aae7fbf17" x="125.197752" y="87.910483" style="fill: #1f77b4; stroke: #1f77b4"/>
     <use xlink:href="#m7aae7fbf17" x="133.514612" y="83.301718" style="fill: #1f77b4; stroke: #1f77b4"/>
     <use xlink:href="#m7aae7fbf17" x="141.879233" y="79.094676" style="fill: #1f77b4; stroke: #1f77b4"/>
     <use xlink:href="#m7aae7fbf17" x="151.543607" y="77.155772" style="fill: #1f77b4; stroke: #1f77b4"/>
     <use xlink:href="#m7aae7fbf17" x="160.881708" y="73.149488" style="fill: #1f77b4; stroke: #1f77b4"/>
     <use xlink:href="#m7aae7fbf17" x="171.120361" y="71.368171" style="fill: #1f77b4; stroke: #1f77b4"/>
     <use xlink:href="#m7aae7fbf17" x="180.359628" y="68.345228" style="fill: #1f77b4; stroke: #1f77b4"/>
     <use xlink:href="#m7aae7fbf17" x="190.096668" y="68.648902" style="fill: #1f77b4; stroke: #1f77b4"/>
     <use xlink:href="#m7aae7fbf17" x="201.712483" y="67.475835" style="fill: #1f77b4; stroke: #1f77b4"/>
     <use xlink:href="#m7aae7fbf17" x="211.82407" y="67.680424" style="fill: #1f77b4; stroke: #1f77b4"/>
     <use xlink:href="#m7aae7fbf17" x="221.368846" y="67.789089" style="fill: #1f77b4; stroke: #1f77b4"/>
     <use xlink:href="#m7aae7fbf17" x="231.534728" y="68.605492" style="fill: #1f77b4; stroke: #1f77b4"/>
     <use xlink:href="#m7aae7fbf17" x="241.697645" y="70.631901" style="fill: #1f77b4; stroke: #1f77b4"/>
     <use xlink:href="#m7aae7fbf17" x="252.53947" y="73.467313" style="fill: #1f77b4; stroke: #1f77b4"/>
     <use xlink:href="#m7aae7fbf17" x="261.233398" y="75.726816" style="fill: #1f77b4; stroke: #1f77b4"/>
     <use xlink:href="#m7aae7fbf17" x="269.326727" y="79.153729" style="fill: #1f77b4; stroke: #1f77b4"/>
     <use xlink:href="#m7aae7fbf17" x="277.915481" y="83.161697" style="fill: #1f77b4; stroke: #1f77b4"/>
     <use xlink:href="#m7aae7fbf17" x="286.556371" y="87.573156" style="fill: #1f77b4; stroke: #1f77b4"/>
     <use xlink:href="#m7aae7fbf17" x="293.975597" y="92.092539" style="fill: #1f77b4; stroke: #1f77b4"/>
     <use xlink:href="#m7aae7fbf17" x="302.198967" y="97.322029" style="fill: #1f77b4; stroke: #1f77b4"/>
     <use xlink:href="#m7aae7fbf17" x="308.819974" y="102.720425" style="fill: #1f77b4; stroke: #1f77b4"/>
     <use xlink:href="#m7aae7fbf17" x="314.64357" y="108.657465" style="fill: #1f77b4; stroke: #1f77b4"/>
     <use xlink:href="#m7aae7fbf17" x="319.690393" y="114.32153" style="fill: #1f77b4; stroke: #1f77b4"/>
     <use xlink:href="#m7aae7fbf17" x="325.349421" y="121.801907" style="fill: #1f77b4; stroke: #1f77b4"/>
     <use xlink:href="#m7aae7fbf17" x="329.229378" y="128.936195" style="fill: #1f77b4; stroke: #1f77b4"/>
     <use xlink:href="#m7aae7fbf17" x="332.109671" y="134.630062" style="fill: #1f77b4; stroke: #1f77b4"/>
     <use xlink:href="#m7aae7fbf17" x="335.56176" y="142.059648" style="fill: #1f77b4; stroke: #1f77b4"/>
    </g>
   </g>
   <g id="line2d_20">
    <path d="M 259.296507 63.580357 
L 265.033832 64.951263 
L 270.695795 66.490933 
L 276.273595 68.197041 
L 281.758563 70.067003 
L 287.142166 72.09798 
L 292.416028 74.286883 
L 297.571936 76.630378 
L 302.60186 79.124891 
L 307.49796 81.76661 
L 312.2526 84.551498 
L 316.858359 87.475292 
L 321.308044 90.533514 
L 325.594703 93.721474 
L 329.711629 97.034283 
L 333.652377 100.466853 
L 337.410774 104.013912 
L 340.980923 107.670007 
L 344.357217 111.429513 
L 347.534347 115.286645 
L 350.507311 119.235462 
L 353.271419 123.269882 
L 355.822301 127.383685 
L 358.155919 131.570527 
L 360.268565 135.823947 
L 362.156875 140.137379 
L 363.817827 144.504161 
L 365.248752 148.917546 
L 366.447336 153.370711 
L 367.411622 157.856769 
L 368.140014 162.36878 
L 368.631282 166.899757 
L 368.884562 171.442685 
L 368.899357 175.990524 
L 368.675539 180.536224 
L 368.21335 185.072735 
L 367.513401 189.593019 
L 366.576669 194.090058 
L 365.404501 198.556868 
L 363.998607 202.986506 
L 362.36106 207.372085 
L 360.494293 211.706783 
L 358.401093 215.983853 
L 356.084602 220.196633 
L 353.548307 224.338557 
L 350.796037 228.403166 
L 347.831958 232.384117 
L 344.660566 236.275194 
L 341.286679 240.070315 
L 337.715433 243.763545 
L 333.952272 247.349103 
L 330.002937 250.82137 
L 325.873463 254.174902 
L 321.570167 257.404433 
L 317.099639 260.504888 
L 312.46873 263.471389 
L 307.684543 266.29926 
L 302.754425 268.98404 
L 297.68595 271.521486 
L 292.486913 273.907579 
L 287.165314 276.138533 
L 281.729349 278.210802 
L 276.187394 280.12108 
L 270.547995 281.866312 
L 264.819857 283.443696 
L 259.011822 284.850688 
L 253.132867 286.085007 
L 247.192079 287.144637 
L 241.198652 288.027831 
L 235.161863 288.733115 
L 229.091065 289.259289 
L 222.995667 289.60543 
L 216.885125 289.770893 
L 210.768923 289.755312 
L 204.656562 289.558602 
L 198.55754 289.180956 
L 192.481345 288.622851 
L 186.437433 287.88504 
L 180.435219 286.968559 
L 174.484058 285.874718 
L 168.593233 284.605103 
L 162.771942 283.161577 
L 157.02928 281.546268 
L 151.374228 279.761577 
L 145.815636 277.810165 
L 140.362215 275.694957 
L 135.022515 273.41913 
L 129.80492 270.986116 
L 124.717629 268.399591 
L 119.768648 265.663472 
L 114.965771 262.781911 
L 110.316577 259.759289 
L 105.828408 256.600209 
L 101.508366 253.309489 
L 97.363295 249.892155 
L 93.399778 246.353434 
L 89.624118 242.698744 
L 86.042333 238.933689 
L 82.660148 235.064048 
L 79.482981 231.095768 
L 76.515938 227.034952 
L 73.763804 222.887854 
L 71.231034 218.660867 
L 68.921748 214.360513 
L 66.839722 209.993435 
L 64.988385 205.566383 
L 63.37081 201.086209 
L 61.989711 196.559852 
L 60.847438 191.994332 
L 59.945971 187.396733 
L 59.286921 182.774198 
L 58.871523 178.133916 
L 58.700636 173.483108 
L 58.77474 168.829022 
L 59.093935 164.178917 
L 59.657942 159.540054 
L 60.4661 154.919682 
L 61.51737 150.325032 
L 62.810335 145.7633 
L 64.343198 141.241643 
L 66.113792 136.767159 
L 68.119575 132.346883 
L 70.357638 127.987773 
L 72.824708 123.696702 
L 75.517154 119.480442 
L 78.430988 115.34566 
L 81.561875 111.298901 
L 84.905137 107.346585 
L 88.455761 103.494989 
L 92.208405 99.750245 
L 96.157406 96.118324 
L 100.29679 92.60503 
L 104.620277 89.215991 
L 109.121295 85.956647 
L 113.792986 82.832246 
L 118.628217 79.847831 
L 123.619592 77.008235 
L 128.759462 74.318072 
L 134.039935 71.781731 
L 139.45289 69.403366 
L 144.989988 67.186893 
L 150.642685 65.135979 
L 156.402243 63.254042 
L 162.259747 61.54424 
L 168.206114 60.009467 
L 174.232109 58.652349 
L 180.328359 57.47524 
L 186.485367 56.480218 
L 192.693524 55.669077 
L 198.943129 55.043332 
L 205.224397 54.604207 
L 211.52748 54.352638 
L 217.842478 54.289272 
L 224.159455 54.414461 
L 230.468455 54.728264 
L 236.759517 55.230445 
L 243.02269 55.920474 
L 249.248048 56.797525 
L 255.425707 57.860481 
L 261.545838 59.107928 
L 267.598683 60.538165 
L 273.57457 62.149197 
L 279.463931 63.938747 
L 285.257311 65.90425 
L 290.945388 68.042861 
L 296.518985 70.351458 
L 301.969087 72.826646 
L 307.286852 75.464762 
L 312.463627 78.261878 
L 317.490961 81.213808 
L 322.360619 84.316113 
L 327.064596 87.56411 
L 331.595129 90.952871 
L 335.944708 94.477239 
L 340.106093 98.131831 
L 344.072321 101.911043 
L 347.83672 105.809063 
L 351.392919 109.819875 
L 354.734861 113.937272 
L 357.856812 118.15486 
L 360.753368 122.466071 
L 363.419472 126.864171 
L 365.850413 131.342269 
L 368.041844 135.893329 
L 369.989784 140.51018 
L 371.690626 145.185524 
L 373.141149 149.911949 
L 374.338518 154.681941 
L 375.280292 159.487893 
L 375.964434 164.322118 
L 376.389308 169.176857 
L 376.55369 174.044296 
L 376.456768 178.916576 
L 376.098147 183.785801 
L 375.477849 188.644057 
L 374.596318 193.483418 
L 373.454421 198.295962 
L 372.053445 203.073782 
L 370.395104 207.808998 
L 368.481531 212.493771 
L 366.315284 217.120314 
L 363.899337 221.680905 
L 361.237084 226.1679 
L 358.332334 230.573743 
L 355.189307 234.890983 
L 351.81263 239.112282 
L 348.207331 243.230431 
L 344.378838 247.238357 
L 340.332967 251.129142 
L 336.07592 254.896029 
L 331.614276 258.532439 
L 326.954984 262.031978 
L 322.105353 265.388451 
L 317.073044 268.595876 
L 311.86606 271.648489 
L 306.492738 274.540763 
L 300.961732 277.267411 
L 295.282009 279.823404 
L 289.462832 282.203974 
L 283.513748 284.404633 
L 277.444577 286.421175 
L 271.265393 288.249688 
L 264.986516 289.886568 
L 258.618493 291.32852 
L 252.17208 292.572573 
L 245.658233 293.616088 
L 239.088081 294.45676 
L 232.47292 295.092633 
L 225.824183 295.522103 
L 219.153432 295.743926 
L 212.47233 295.757224 
L 205.792627 295.561489 
L 199.126136 295.156592 
L 192.484716 294.542783 
L 185.880245 293.720701 
L 179.324603 292.691372 
L 172.829645 291.456213 
L 166.407184 290.017037 
L 160.068959 288.376051 
L 153.826618 286.535861 
L 147.691693 284.499465 
L 141.67557 282.270259 
L 135.789467 279.852032 
L 130.044413 277.248965 
L 124.451212 274.465623 
L 119.020427 271.506956 
L 113.762349 268.378291 
L 108.686969 265.085324 
L 103.803957 261.634114 
L 99.122631 258.031073 
L 94.651935 254.282957 
L 90.40041 250.396852 
L 86.37617 246.380165 
L 82.586878 242.240607 
L 79.039718 237.986181 
L 75.741377 233.625161 
L 72.698019 229.166079 
L 69.915263 224.617701 
L 67.398164 219.989013 
L 65.151192 215.289193 
L 63.178218 210.527592 
L 61.482492 205.713709 
L 60.066635 200.857164 
L 58.932623 195.967675 
L 58.081777 191.055031 
L 57.514757 186.129058 
L 57.231556 181.1996 
L 57.231494 176.276479 
L 57.513224 171.369476 
L 58.074728 166.48829 
L 58.913327 161.642517 
L 60.025686 156.841616 
L 61.40783 152.094877 
L 63.055152 147.411394 
L 64.962437 142.800039 
L 67.123877 138.269426 
L 69.533096 133.827894 
L 72.183178 129.483471 
L 75.066693 125.24386 
L 78.175727 121.11641 
L 81.501921 117.108095 
L 85.036498 113.225501 
L 88.770308 109.474803 
L 92.693862 105.861758 
L 96.797375 102.391685 
L 101.070805 99.069464 
L 105.503893 95.899524 
L 110.086209 92.88584 
L 114.80719 90.031936 
L 119.656185 87.34088 
L 124.622489 84.815291 
L 129.695389 82.457345 
L 134.864199 80.268784 
L 140.118296 78.250926 
L 145.447156 76.404678 
L 150.840384 74.730549 
L 156.287743 73.228669 
L 161.779185 71.898807 
L 167.304873 70.740386 
L 172.8552 69.752506 
L 178.420812 68.933963 
L 185.84974 68.10338 
L 193.26896 67.566937 
L 200.658633 67.319666 
L 207.999873 67.355952 
L 215.274754 67.669618 
L 222.466309 68.254009 
L 229.558517 69.102064 
L 236.536278 70.206389 
L 243.385383 71.55932 
L 250.092472 73.152977 
L 256.644996 74.979311 
L 263.031163 77.030152 
L 269.23989 79.297232 
L 275.260757 81.772221 
L 281.083954 84.44674 
L 286.700236 87.312375 
L 292.100875 90.360687 
L 297.277628 93.583213 
L 302.222689 96.971466 
L 306.928669 100.516925 
L 311.388563 104.211033 
L 315.595732 108.045184 
L 319.543887 112.010711 
L 323.227077 116.098876 
L 325.812196 119.240176 
L 325.812196 119.240176 
" clip-path="url(#p01249011f7)" style="fill: none; stroke: #d62728; stroke-width: 1.5; stroke-linecap: square"/>
   </g>
   <g id="patch_3">
    <path d="M 37.848438 307.872 
L 37.848438 41.76 
" style="fill: none; stroke: #000000; stroke-width: 0.8; stroke-linejoin: miter; stroke-linecap: square"/>
   </g>
   <g id="patch_4">
    <path d="M 394.968438 307.872 
L 394.968438 41.76 
" style="fill: none; stroke: #000000; stroke-width: 0.8; stroke-linejoin: miter; stroke-linecap: square"/>
   </g>
   <g id="patch_5">
    <path d="M 37.848438 307.872 
L 394.968438 307.872 
" style="fill: none; stroke: #000000; stroke-width: 0.8; stroke-linejoin: miter; stroke-linecap: square"/>
   </g>
   <g id="patch_6">
    <path d="M 37.848438 41.76 
L 394.968438 41.76 
" style="fill: none; stroke: #000000; stroke-width: 0.8; stroke-linejoin: miter; stroke-linecap: square"/>
   </g>
   <g id="text_21">
    <g id="patch_7">
     <path d="M 412.824438 102.337163 
L 548.624438 102.337163 
Q 552.624438 102.337163 552.624438 98.337163 
L 552.624438 55.0656 
Q 552.624438 51.0656 548.624438 51.0656 
L 412.824438 51.0656 
Q 408.824438 51.0656 408.824438 55.0656 
L 408.824438 98.337163 
Q 408.824438 102.337163 412.824438 102.337163 
z
" style="fill: #ffffff; opacity: 0.5; stroke: #000000; stroke-linejoin: miter"/>
    </g>
    <!-- Summary -->
    <g transform="translate(412.824438 62.664038) scale(0.1 -0.1)">
     <defs>
      <path id="DejaVuSans-53" d="M 3425 4513 
L 3425 3897 
Q 3066 4069 2747 4153 
Q 2428 4238 2131 4238 
Q 1616 4238 1336 4038 
Q 1056 3838 1056 3469 
Q 1056 3159 1242 3001 
Q 1428 2844 1947 2747 
L 2328 2669 
Q 3034 2534 3370 2195 
Q 3706 1856 3706 1288 
Q 3706 609 3251 259 
Q 2797 -91 1919 -91 
Q 1588 -91 1214 -16 
Q 841 59 441 206 
L 441 856 
Q 825 641 1194 531 
Q 1563 422 1919 422 
Q 2459 422 2753 634 
Q 3047 847 3047 1241 
Q 3047 1584 2836 1778 
Q 2625 1972 2144 2069 
L 1759 2144 
Q 1053 2284 737 2584 
Q 422 2884 422 3419 
Q 422 4038 858 4394 
Q 1294 4750 2059 4750 
Q 2388 4750 2728 4690 
Q 3069 4631 3425 4513 
z
" transform="scale(0.015625)"/>
      <path id="DejaVuSans-75" d="M 544 1381 
L 544 3500 
L 1119 3500 
L 1119 1403 
Q 1119 906 1312 657 
Q 1506 409 1894 409 
Q 2359 409 2629 706 
Q 2900 1003 2900 1516 
L 2900 3500 
L 3475 3500 
L 3475 0 
L 2900 0 
L 2900 538 
Q 2691 219 2414 64 
Q 2138 -91 1772 -91 
Q 1169 -91 856 284 
Q 544 659 544 1381 
z
M 1991 3584 
L 1991 3584 
z
" transform="scale(0.015625)"/>
      <path id="DejaVuSans-61" d="M 2194 1759 
Q 1497 1759 1228 1600 
Q 959 1441 959 1056 
Q 959 750 1161 570 
Q 1363 391 1709 391 
Q 2188 391 2477 730 
Q 2766 1069 2766 1631 
L 2766 1759 
L 2194 1759 
z
M 3341 1997 
L 3341 0 
L 2766 0 
L 2766 531 
Q 2569 213 2275 61 
Q 1981 -91 1556 -91 
Q 1019 -91 701 211 
Q 384 513 384 1019 
Q 384 1609 779 1909 
Q 1175 2209 1959 2209 
L 2766 2209 
L 2766 2266 
Q 2766 2663 2505 2880 
Q 2244 3097 1772 3097 
Q 1472 3097 1187 3025 
Q 903 2953 641 2809 
L 641 3341 
Q 956 3463 1253 3523 
Q 1550 3584 1831 3584 
Q 2591 3584 2966 3190 
Q 3341 2797 3341 1997 
z
" transform="scale(0.015625)"/>
      <path id="DejaVuSans-72" d="M 2631 2963 
Q 2534 3019 2420 3045 
Q 2306 3072 2169 3072 
Q 1681 3072 1420 2755 
Q 1159 2438 1159 1844 
L 1159 0 
L 581 0 
L 581 3500 
L 1159 3500 
L 1159 2956 
Q 1341 3275 1631 3429 
Q 1922 3584 2338 3584 
Q 2397 3584 2469 3576 
Q 2541 3569 2628 3553 
L 2631 2963 
z
" transform="scale(0.015625)"/>
      <path id="DejaVuSans-79" d="M 2059 -325 
Q 1816 -950 1584 -1140 
Q 1353 -1331 966 -1331 
L 506 -1331 
L 506 -850 
L 844 -850 
Q 1081 -850 1212 -737 
Q 1344 -625 1503 -206 
L 1606 56 
L 191 3500 
L 800 3500 
L 1894 763 
L 2988 3500 
L 3597 3500 
L 2059 -325 
z
" transform="scale(0.015625)"/>
     </defs>
     <use xlink:href="#DejaVuSans-53"/>
     <use xlink:href="#DejaVuSans-75" x="63.476562"/>
     <use xlink:href="#DejaVuSans-6d" x="126.855469"/>
     <use xlink:href="#DejaVuSans-6d" x="224.267578"/>
     <use xlink:href="#DejaVuSans-61" x="321.679688"/>
     <use xlink:href="#DejaVuSans-72" x="382.958984"/>
     <use xlink:href="#DejaVuSans-79" x="424.072266"/>
    </g>
    <!-- $Q_I$: 1.48$\pm$0.23 k -->
    <g transform="translate(412.824438 73.86185) scale(0.1 -0.1)">
     <defs>
      <path id="DejaVuSans-Oblique-51" d="M 2309 -84 
Q 2275 -88 2237 -89 
Q 2200 -91 2125 -91 
Q 1250 -91 756 411 
Q 263 913 263 1797 
Q 263 2319 452 2844 
Q 641 3369 978 3788 
Q 1369 4269 1858 4509 
Q 2347 4750 2938 4750 
Q 3794 4750 4287 4245 
Q 4781 3741 4781 2869 
Q 4781 1928 4265 1147 
Q 3750 366 2919 44 
L 3553 -825 
L 2847 -825 
L 2309 -84 
z
M 2919 4238 
Q 2400 4238 2003 3986 
Q 1606 3734 1313 3219 
Q 1125 2891 1026 2522 
Q 928 2153 928 1778 
Q 928 1128 1239 775 
Q 1550 422 2119 422 
Q 2631 422 3032 676 
Q 3434 931 3719 1434 
Q 3909 1772 4009 2142 
Q 4109 2513 4109 2881 
Q 4109 3528 3796 3883 
Q 3484 4238 2919 4238 
z
" transform="scale(0.015625)"/>
      <path id="DejaVuSans-Oblique-49" d="M 1081 4666 
L 1716 4666 
L 806 0 
L 172 0 
L 1081 4666 
z
" transform="scale(0.015625)"/>
      <path id="DejaVuSans-3a" d="M 750 794 
L 1409 794 
L 1409 0 
L 750 0 
L 750 794 
z
M 750 3309 
L 1409 3309 
L 1409 2516 
L 750 2516 
L 750 3309 
z
" transform="scale(0.015625)"/>
      <path id="DejaVuSans-2e" d="M 684 794 
L 1344 794 
L 1344 0 
L 684 0 
L 684 794 
z
" transform="scale(0.015625)"/>
      <path id="DejaVuSans-b1" d="M 2944 4013 
L 2944 2803 
L 4684 2803 
L 4684 2272 
L 2944 2272 
L 2944 1063 
L 2419 1063 
L 2419 2272 
L 678 2272 
L 678 2803 
L 2419 2803 
L 2419 4013 
L 2944 4013 
z
M 678 531 
L 4684 531 
L 4684 0 
L 678 0 
L 678 531 
z
" transform="scale(0.015625)"/>
      <path id="DejaVuSans-33" d="M 2597 2516 
Q 3050 2419 3304 2112 
Q 3559 1806 3559 1356 
Q 3559 666 3084 287 
Q 2609 -91 1734 -91 
Q 1441 -91 1130 -33 
Q 819 25 488 141 
L 488 750 
Q 750 597 1062 519 
Q 1375 441 1716 441 
Q 2309 441 2620 675 
Q 2931 909 2931 1356 
Q 2931 1769 2642 2001 
Q 2353 2234 1838 2234 
L 1294 2234 
L 1294 2753 
L 1863 2753 
Q 2328 2753 2575 2939 
Q 2822 3125 2822 3475 
Q 2822 3834 2567 4026 
Q 2313 4219 1838 4219 
Q 1578 4219 1281 4162 
Q 984 4106 628 3988 
L 628 4550 
Q 988 4650 1302 4700 
Q 1616 4750 1894 4750 
Q 2613 4750 3031 4423 
Q 3450 4097 3450 3541 
Q 3450 3153 3228 2886 
Q 3006 2619 2597 2516 
z
" transform="scale(0.015625)"/>
      <path id="DejaVuSans-6b" d="M 581 4863 
L 1159 4863 
L 1159 1991 
L 2875 3500 
L 3609 3500 
L 1753 1863 
L 3688 0 
L 2938 0 
L 1159 1709 
L 1159 0 
L 581 0 
L 581 4863 
z
" transform="scale(0.015625)"/>
     </defs>
     <use xlink:href="#DejaVuSans-Oblique-51" transform="translate(0 0.015625)"/>
     <use xlink:href="#DejaVuSans-Oblique-49" transform="translate(78.710938 -16.390625) scale(0.7)"/>
     <use xlink:href="#DejaVuSans-3a" transform="translate(102.089844 0.015625)"/>
     <use xlink:href="#DejaVuSans-20" transform="translate(135.78125 0.015625)"/>
     <use xlink:href="#DejaVuSans-31" transform="translate(167.568359 0.015625)"/>
     <use xlink:href="#DejaVuSans-2e" transform="translate(231.191406 0.015625)"/>
     <use xlink:href="#DejaVuSans-34" transform="translate(262.978516 0.015625)"/>
     <use xlink:href="#DejaVuSans-38" transform="translate(326.601562 0.015625)"/>
     <use xlink:href="#DejaVuSans-b1" transform="translate(390.224609 0.015625)"/>
     <use xlink:href="#DejaVuSans-30" transform="translate(474.013672 0.015625)"/>
     <use xlink:href="#DejaVuSans-2e" transform="translate(537.636719 0.015625)"/>
     <use xlink:href="#DejaVuSans-32" transform="translate(563.923828 0.015625)"/>
     <use xlink:href="#DejaVuSans-33" transform="translate(627.546875 0.015625)"/>
     <use xlink:href="#DejaVuSans-20" transform="translate(691.169922 0.015625)"/>
     <use xlink:href="#DejaVuSans-6b" transform="translate(722.957031 0.015625)"/>
    </g>
    <!-- $Q_C$: 4.5$\pm$7.3e+02 M -->
    <g transform="translate(412.824438 85.059663) scale(0.1 -0.1)">
     <defs>
      <path id="DejaVuSans-Oblique-43" d="M 4447 4306 
L 4319 3641 
Q 4019 3944 3683 4091 
Q 3347 4238 2956 4238 
Q 2422 4238 2017 3981 
Q 1613 3725 1319 3200 
Q 1131 2863 1032 2486 
Q 934 2109 934 1728 
Q 934 1091 1264 756 
Q 1594 422 2222 422 
Q 2656 422 3056 561 
Q 3456 700 3834 978 
L 3688 231 
Q 3316 72 2936 -9 
Q 2556 -91 2175 -91 
Q 1278 -91 773 396 
Q 269 884 269 1753 
Q 269 2309 461 2846 
Q 653 3384 1013 3828 
Q 1394 4300 1883 4525 
Q 2372 4750 3022 4750 
Q 3422 4750 3780 4639 
Q 4138 4528 4447 4306 
z
" transform="scale(0.015625)"/>
      <path id="DejaVuSans-35" d="M 691 4666 
L 3169 4666 
L 3169 4134 
L 1269 4134 
L 1269 2991 
Q 1406 3038 1543 3061 
Q 1681 3084 1819 3084 
Q 2600 3084 3056 2656 
Q 3513 2228 3513 1497 
Q 3513 744 3044 326 
Q 2575 -91 1722 -91 
Q 1428 -91 1123 -41 
Q 819 9 494 109 
L 494 744 
Q 775 591 1075 516 
Q 1375 441 1709 441 
Q 2250 441 2565 725 
Q 2881 1009 2881 1497 
Q 2881 1984 2565 2268 
Q 2250 2553 1709 2553 
Q 1456 2553 1204 2497 
Q 953 2441 691 2322 
L 691 4666 
z
" transform="scale(0.015625)"/>
      <path id="DejaVuSans-37" d="M 525 4666 
L 3525 4666 
L 3525 4397 
L 1831 0 
L 1172 0 
L 2766 4134 
L 525 4134 
L 525 4666 
z
" transform="scale(0.015625)"/>
      <path id="DejaVuSans-2b" d="M 2944 4013 
L 2944 2272 
L 4684 2272 
L 4684 1741 
L 2944 1741 
L 2944 0 
L 2419 0 
L 2419 1741 
L 678 1741 
L 678 2272 
L 2419 2272 
L 2419 4013 
L 2944 4013 
z
" transform="scale(0.015625)"/>
      <path id="DejaVuSans-4d" d="M 628 4666 
L 1569 4666 
L 2759 1491 
L 3956 4666 
L 4897 4666 
L 4897 0 
L 4281 0 
L 4281 4097 
L 3078 897 
L 2444 897 
L 1241 4097 
L 1241 0 
L 628 0 
L 628 4666 
z
" transform="scale(0.015625)"/>
     </defs>
     <use xlink:href="#DejaVuSans-Oblique-51" transform="translate(0 0.78125)"/>
     <use xlink:href="#DejaVuSans-Oblique-43" transform="translate(78.710938 -15.625) scale(0.7)"/>
     <use xlink:href="#DejaVuSans-3a" transform="translate(130.322266 0.78125)"/>
     <use xlink:href="#DejaVuSans-20" transform="translate(164.013672 0.78125)"/>
     <use xlink:href="#DejaVuSans-34" transform="translate(195.800781 0.78125)"/>
     <use xlink:href="#DejaVuSans-2e" transform="translate(259.423828 0.78125)"/>
     <use xlink:href="#DejaVuSans-35" transform="translate(291.210938 0.78125)"/>
     <use xlink:href="#DejaVuSans-b1" transform="translate(354.833984 0.78125)"/>
     <use xlink:href="#DejaVuSans-37" transform="translate(438.623047 0.78125)"/>
     <use xlink:href="#DejaVuSans-2e" transform="translate(502.246094 0.78125)"/>
     <use xlink:href="#DejaVuSans-33" transform="translate(534.033203 0.78125)"/>
     <use xlink:href="#DejaVuSans-65" transform="translate(597.65625 0.78125)"/>
     <use xlink:href="#DejaVuSans-2b" transform="translate(659.179688 0.78125)"/>
     <use xlink:href="#DejaVuSans-30" transform="translate(742.96875 0.78125)"/>
     <use xlink:href="#DejaVuSans-32" transform="translate(806.591797 0.78125)"/>
     <use xlink:href="#DejaVuSans-20" transform="translate(870.214844 0.78125)"/>
     <use xlink:href="#DejaVuSans-4d" transform="translate(902.001953 0.78125)"/>
    </g>
    <!-- $f_{res}$: 6.10371$\pm$0.00029 GHz -->
    <g transform="translate(412.824438 96.257475) scale(0.1 -0.1)">
     <defs>
      <path id="DejaVuSans-Oblique-66" d="M 3059 4863 
L 2969 4384 
L 2419 4384 
Q 2106 4384 1964 4261 
Q 1822 4138 1753 3809 
L 1691 3500 
L 2638 3500 
L 2553 3053 
L 1606 3053 
L 1013 0 
L 434 0 
L 1031 3053 
L 481 3053 
L 563 3500 
L 1113 3500 
L 1159 3744 
Q 1278 4363 1576 4613 
Q 1875 4863 2516 4863 
L 3059 4863 
z
" transform="scale(0.015625)"/>
      <path id="DejaVuSans-Oblique-72" d="M 2853 2969 
Q 2766 3016 2653 3041 
Q 2541 3066 2413 3066 
Q 1953 3066 1609 2717 
Q 1266 2369 1153 1784 
L 800 0 
L 225 0 
L 909 3500 
L 1484 3500 
L 1375 2956 
Q 1603 3259 1920 3421 
Q 2238 3584 2597 3584 
Q 2691 3584 2781 3573 
Q 2872 3563 2963 3538 
L 2853 2969 
z
" transform="scale(0.015625)"/>
      <path id="DejaVuSans-Oblique-65" d="M 3078 2063 
Q 3088 2113 3092 2166 
Q 3097 2219 3097 2272 
Q 3097 2653 2873 2875 
Q 2650 3097 2266 3097 
Q 1838 3097 1509 2826 
Q 1181 2556 1013 2059 
L 3078 2063 
z
M 3578 1613 
L 903 1613 
Q 884 1494 878 1425 
Q 872 1356 872 1306 
Q 872 872 1139 634 
Q 1406 397 1894 397 
Q 2269 397 2603 481 
Q 2938 566 3225 728 
L 3116 159 
Q 2806 34 2476 -28 
Q 2147 -91 1806 -91 
Q 1078 -91 686 257 
Q 294 606 294 1247 
Q 294 1794 489 2264 
Q 684 2734 1063 3103 
Q 1306 3334 1642 3459 
Q 1978 3584 2356 3584 
Q 2950 3584 3301 3228 
Q 3653 2872 3653 2272 
Q 3653 2128 3634 1964 
Q 3616 1800 3578 1613 
z
" transform="scale(0.015625)"/>
      <path id="DejaVuSans-Oblique-73" d="M 3200 3397 
L 3091 2853 
Q 2863 2978 2609 3040 
Q 2356 3103 2088 3103 
Q 1634 3103 1373 2948 
Q 1113 2794 1113 2528 
Q 1113 2219 1719 2053 
Q 1766 2041 1788 2034 
L 1972 1978 
Q 2547 1819 2739 1644 
Q 2931 1469 2931 1166 
Q 2931 609 2489 259 
Q 2047 -91 1331 -91 
Q 1053 -91 747 -37 
Q 441 16 72 128 
L 184 722 
Q 500 559 806 475 
Q 1113 391 1394 391 
Q 1816 391 2080 572 
Q 2344 753 2344 1031 
Q 2344 1331 1650 1516 
L 1591 1531 
L 1394 1581 
Q 956 1697 753 1886 
Q 550 2075 550 2369 
Q 550 2928 970 3256 
Q 1391 3584 2113 3584 
Q 2397 3584 2667 3537 
Q 2938 3491 3200 3397 
z
" transform="scale(0.015625)"/>
      <path id="DejaVuSans-39" d="M 703 97 
L 703 672 
Q 941 559 1184 500 
Q 1428 441 1663 441 
Q 2288 441 2617 861 
Q 2947 1281 2994 2138 
Q 2813 1869 2534 1725 
Q 2256 1581 1919 1581 
Q 1219 1581 811 2004 
Q 403 2428 403 3163 
Q 403 3881 828 4315 
Q 1253 4750 1959 4750 
Q 2769 4750 3195 4129 
Q 3622 3509 3622 2328 
Q 3622 1225 3098 567 
Q 2575 -91 1691 -91 
Q 1453 -91 1209 -44 
Q 966 3 703 97 
z
M 1959 2075 
Q 2384 2075 2632 2365 
Q 2881 2656 2881 3163 
Q 2881 3666 2632 3958 
Q 2384 4250 1959 4250 
Q 1534 4250 1286 3958 
Q 1038 3666 1038 3163 
Q 1038 2656 1286 2365 
Q 1534 2075 1959 2075 
z
" transform="scale(0.015625)"/>
      <path id="DejaVuSans-47" d="M 3809 666 
L 3809 1919 
L 2778 1919 
L 2778 2438 
L 4434 2438 
L 4434 434 
Q 4069 175 3628 42 
Q 3188 -91 2688 -91 
Q 1594 -91 976 548 
Q 359 1188 359 2328 
Q 359 3472 976 4111 
Q 1594 4750 2688 4750 
Q 3144 4750 3555 4637 
Q 3966 4525 4313 4306 
L 4313 3634 
Q 3963 3931 3569 4081 
Q 3175 4231 2741 4231 
Q 1884 4231 1454 3753 
Q 1025 3275 1025 2328 
Q 1025 1384 1454 906 
Q 1884 428 2741 428 
Q 3075 428 3337 486 
Q 3600 544 3809 666 
z
" transform="scale(0.015625)"/>
      <path id="DejaVuSans-48" d="M 628 4666 
L 1259 4666 
L 1259 2753 
L 3553 2753 
L 3553 4666 
L 4184 4666 
L 4184 0 
L 3553 0 
L 3553 2222 
L 1259 2222 
L 1259 0 
L 628 0 
L 628 4666 
z
" transform="scale(0.015625)"/>
      <path id="DejaVuSans-7a" d="M 353 3500 
L 3084 3500 
L 3084 2975 
L 922 459 
L 3084 459 
L 3084 0 
L 275 0 
L 275 525 
L 2438 3041 
L 353 3041 
L 353 3500 
z
" transform="scale(0.015625)"/>
     </defs>
     <use xlink:href="#DejaVuSans-Oblique-66" transform="translate(0 0.015625)"/>
     <use xlink:href="#DejaVuSans-Oblique-72" transform="translate(35.205078 -16.390625) scale(0.7)"/>
     <use xlink:href="#DejaVuSans-Oblique-65" transform="translate(63.984375 -16.390625) scale(0.7)"/>
     <use xlink:href="#DejaVuSans-Oblique-73" transform="translate(107.050781 -16.390625) scale(0.7)"/>
     <use xlink:href="#DejaVuSans-3a" transform="translate(146.254883 0.015625)"/>
     <use xlink:href="#DejaVuSans-20" transform="translate(179.946289 0.015625)"/>
     <use xlink:href="#DejaVuSans-36" transform="translate(211.733398 0.015625)"/>
     <use xlink:href="#DejaVuSans-2e" transform="translate(275.356445 0.015625)"/>
     <use xlink:href="#DejaVuSans-31" transform="translate(307.143555 0.015625)"/>
     <use xlink:href="#DejaVuSans-30" transform="translate(370.766602 0.015625)"/>
     <use xlink:href="#DejaVuSans-33" transform="translate(434.389648 0.015625)"/>
     <use xlink:href="#DejaVuSans-37" transform="translate(498.012695 0.015625)"/>
     <use xlink:href="#DejaVuSans-31" transform="translate(561.635742 0.015625)"/>
     <use xlink:href="#DejaVuSans-b1" transform="translate(625.258789 0.015625)"/>
     <use xlink:href="#DejaVuSans-30" transform="translate(709.047852 0.015625)"/>
     <use xlink:href="#DejaVuSans-2e" transform="translate(772.670898 0.015625)"/>
     <use xlink:href="#DejaVuSans-30" transform="translate(804.458008 0.015625)"/>
     <use xlink:href="#DejaVuSans-30" transform="translate(868.081055 0.015625)"/>
     <use xlink:href="#DejaVuSans-30" transform="translate(931.704102 0.015625)"/>
     <use xlink:href="#DejaVuSans-32" transform="translate(995.327148 0.015625)"/>
     <use xlink:href="#DejaVuSans-39" transform="translate(1057.200195 0.015625)"/>
     <use xlink:href="#DejaVuSans-20" transform="translate(1120.823242 0.015625)"/>
     <use xlink:href="#DejaVuSans-47" transform="translate(1152.610352 0.015625)"/>
     <use xlink:href="#DejaVuSans-48" transform="translate(1230.100586 0.015625)"/>
     <use xlink:href="#DejaVuSans-7a" transform="translate(1305.295898 0.015625)"/>
    </g>
   </g>
  </g>
  <g id="text_22">
   <!-- S21 One-tone -->
   <g transform="translate(169.3975 16.318125) scale(0.12 -0.12)">
    <defs>
     <path id="DejaVuSans-4f" d="M 2522 4238 
Q 1834 4238 1429 3725 
Q 1025 3213 1025 2328 
Q 1025 1447 1429 934 
Q 1834 422 2522 422 
Q 3209 422 3611 934 
Q 4013 1447 4013 2328 
Q 4013 3213 3611 3725 
Q 3209 4238 2522 4238 
z
M 2522 4750 
Q 3503 4750 4090 4092 
Q 4678 3434 4678 2328 
Q 4678 1225 4090 567 
Q 3503 -91 2522 -91 
Q 1538 -91 948 565 
Q 359 1222 359 2328 
Q 359 3434 948 4092 
Q 1538 4750 2522 4750 
z
" transform="scale(0.015625)"/>
     <path id="DejaVuSans-6e" d="M 3513 2113 
L 3513 0 
L 2938 0 
L 2938 2094 
Q 2938 2591 2744 2837 
Q 2550 3084 2163 3084 
Q 1697 3084 1428 2787 
Q 1159 2491 1159 1978 
L 1159 0 
L 581 0 
L 581 3500 
L 1159 3500 
L 1159 2956 
Q 1366 3272 1645 3428 
Q 1925 3584 2291 3584 
Q 2894 3584 3203 3211 
Q 3513 2838 3513 2113 
z
" transform="scale(0.015625)"/>
     <path id="DejaVuSans-74" d="M 1172 4494 
L 1172 3500 
L 2356 3500 
L 2356 3053 
L 1172 3053 
L 1172 1153 
Q 1172 725 1289 603 
Q 1406 481 1766 481 
L 2356 481 
L 2356 0 
L 1766 0 
Q 1100 0 847 248 
Q 594 497 594 1153 
L 594 3053 
L 172 3053 
L 172 3500 
L 594 3500 
L 594 4494 
L 1172 4494 
z
" transform="scale(0.015625)"/>
     <path id="DejaVuSans-6f" d="M 1959 3097 
Q 1497 3097 1228 2736 
Q 959 2375 959 1747 
Q 959 1119 1226 758 
Q 1494 397 1959 397 
Q 2419 397 2687 759 
Q 2956 1122 2956 1747 
Q 2956 2369 2687 2733 
Q 2419 3097 1959 3097 
z
M 1959 3584 
Q 2709 3584 3137 3096 
Q 3566 2609 3566 1747 
Q 3566 888 3137 398 
Q 2709 -91 1959 -91 
Q 1206 -91 779 398 
Q 353 888 353 1747 
Q 353 2609 779 3096 
Q 1206 3584 1959 3584 
z
" transform="scale(0.015625)"/>
    </defs>
    <use xlink:href="#DejaVuSans-53"/>
    <use xlink:href="#DejaVuSans-32" x="63.476562"/>
    <use xlink:href="#DejaVuSans-31" x="127.099609"/>
    <use xlink:href="#DejaVuSans-20" x="190.722656"/>
    <use xlink:href="#DejaVuSans-4f" x="222.509766"/>
    <use xlink:href="#DejaVuSans-6e" x="301.220703"/>
    <use xlink:href="#DejaVuSans-65" x="364.599609"/>
    <use xlink:href="#DejaVuSans-2d" x="426.123047"/>
    <use xlink:href="#DejaVuSans-74" x="462.207031"/>
    <use xlink:href="#DejaVuSans-6f" x="501.416016"/>
    <use xlink:href="#DejaVuSans-6e" x="562.597656"/>
    <use xlink:href="#DejaVuSans-65" x="625.976562"/>
   </g>
   <!-- tuid: 20240220-165155-056-fcc12b -->
   <g transform="translate(103.54375 29.7555) scale(0.12 -0.12)">
    <defs>
     <path id="DejaVuSans-69" d="M 603 3500 
L 1178 3500 
L 1178 0 
L 603 0 
L 603 3500 
z
M 603 4863 
L 1178 4863 
L 1178 4134 
L 603 4134 
L 603 4863 
z
" transform="scale(0.015625)"/>
     <path id="DejaVuSans-64" d="M 2906 2969 
L 2906 4863 
L 3481 4863 
L 3481 0 
L 2906 0 
L 2906 525 
Q 2725 213 2448 61 
Q 2172 -91 1784 -91 
Q 1150 -91 751 415 
Q 353 922 353 1747 
Q 353 2572 751 3078 
Q 1150 3584 1784 3584 
Q 2172 3584 2448 3432 
Q 2725 3281 2906 2969 
z
M 947 1747 
Q 947 1113 1208 752 
Q 1469 391 1925 391 
Q 2381 391 2643 752 
Q 2906 1113 2906 1747 
Q 2906 2381 2643 2742 
Q 2381 3103 1925 3103 
Q 1469 3103 1208 2742 
Q 947 2381 947 1747 
z
" transform="scale(0.015625)"/>
     <path id="DejaVuSans-66" d="M 2375 4863 
L 2375 4384 
L 1825 4384 
Q 1516 4384 1395 4259 
Q 1275 4134 1275 3809 
L 1275 3500 
L 2222 3500 
L 2222 3053 
L 1275 3053 
L 1275 0 
L 697 0 
L 697 3053 
L 147 3053 
L 147 3500 
L 697 3500 
L 697 3744 
Q 697 4328 969 4595 
Q 1241 4863 1831 4863 
L 2375 4863 
z
" transform="scale(0.015625)"/>
     <path id="DejaVuSans-63" d="M 3122 3366 
L 3122 2828 
Q 2878 2963 2633 3030 
Q 2388 3097 2138 3097 
Q 1578 3097 1268 2742 
Q 959 2388 959 1747 
Q 959 1106 1268 751 
Q 1578 397 2138 397 
Q 2388 397 2633 464 
Q 2878 531 3122 666 
L 3122 134 
Q 2881 22 2623 -34 
Q 2366 -91 2075 -91 
Q 1284 -91 818 406 
Q 353 903 353 1747 
Q 353 2603 823 3093 
Q 1294 3584 2113 3584 
Q 2378 3584 2631 3529 
Q 2884 3475 3122 3366 
z
" transform="scale(0.015625)"/>
     <path id="DejaVuSans-62" d="M 3116 1747 
Q 3116 2381 2855 2742 
Q 2594 3103 2138 3103 
Q 1681 3103 1420 2742 
Q 1159 2381 1159 1747 
Q 1159 1113 1420 752 
Q 1681 391 2138 391 
Q 2594 391 2855 752 
Q 3116 1113 3116 1747 
z
M 1159 2969 
Q 1341 3281 1617 3432 
Q 1894 3584 2278 3584 
Q 2916 3584 3314 3078 
Q 3713 2572 3713 1747 
Q 3713 922 3314 415 
Q 2916 -91 2278 -91 
Q 1894 -91 1617 61 
Q 1341 213 1159 525 
L 1159 0 
L 581 0 
L 581 4863 
L 1159 4863 
L 1159 2969 
z
" transform="scale(0.015625)"/>
    </defs>
    <use xlink:href="#DejaVuSans-74"/>
    <use xlink:href="#DejaVuSans-75" x="39.208984"/>
    <use xlink:href="#DejaVuSans-69" x="102.587891"/>
    <use xlink:href="#DejaVuSans-64" x="130.371094"/>
    <use xlink:href="#DejaVuSans-3a" x="193.847656"/>
    <use xlink:href="#DejaVuSans-20" x="227.539062"/>
    <use xlink:href="#DejaVuSans-32" x="259.326172"/>
    <use xlink:href="#DejaVuSans-30" x="322.949219"/>
    <use xlink:href="#DejaVuSans-32" x="386.572266"/>
    <use xlink:href="#DejaVuSans-34" x="450.195312"/>
    <use xlink:href="#DejaVuSans-30" x="513.818359"/>
    <use xlink:href="#DejaVuSans-32" x="577.441406"/>
    <use xlink:href="#DejaVuSans-32" x="641.064453"/>
    <use xlink:href="#DejaVuSans-30" x="704.6875"/>
    <use xlink:href="#DejaVuSans-2d" x="768.310547"/>
    <use xlink:href="#DejaVuSans-31" x="804.394531"/>
    <use xlink:href="#DejaVuSans-36" x="868.017578"/>
    <use xlink:href="#DejaVuSans-35" x="931.640625"/>
    <use xlink:href="#DejaVuSans-31" x="995.263672"/>
    <use xlink:href="#DejaVuSans-35" x="1058.886719"/>
    <use xlink:href="#DejaVuSans-35" x="1122.509766"/>
    <use xlink:href="#DejaVuSans-2d" x="1186.132812"/>
    <use xlink:href="#DejaVuSans-30" x="1222.216797"/>
    <use xlink:href="#DejaVuSans-35" x="1285.839844"/>
    <use xlink:href="#DejaVuSans-36" x="1349.462891"/>
    <use xlink:href="#DejaVuSans-2d" x="1413.085938"/>
    <use xlink:href="#DejaVuSans-66" x="1449.169922"/>
    <use xlink:href="#DejaVuSans-63" x="1484.375"/>
    <use xlink:href="#DejaVuSans-63" x="1539.355469"/>
    <use xlink:href="#DejaVuSans-31" x="1594.335938"/>
    <use xlink:href="#DejaVuSans-32" x="1657.958984"/>
    <use xlink:href="#DejaVuSans-62" x="1721.582031"/>
   </g>
  </g>
 </g>
 <defs>
  <clipPath id="p01249011f7">
   <rect x="37.848438" y="41.76" width="357.12" height="266.112"/>
  </clipPath>
 </defs>
</svg>
