<?xml version="1.0" encoding="utf-8" standalone="no"?>
<!DOCTYPE svg PUBLIC "-//W3C//DTD SVG 1.1//EN"
  "http://www.w3.org/Graphics/SVG/1.1/DTD/svg11.dtd">
<svg xmlns:xlink="http://www.w3.org/1999/xlink" width="577.771312pt" height="345.42825pt" viewBox="0 0 577.771312 345.42825" xmlns="http://www.w3.org/2000/svg" version="1.1">
 <metadata>
  <rdf:RDF xmlns:dc="http://purl.org/dc/elements/1.1/" xmlns:cc="http://creativecommons.org/ns#" xmlns:rdf="http://www.w3.org/1999/02/22-rdf-syntax-ns#">
   <cc:Work>
    <dc:type rdf:resource="http://purl.org/dc/dcmitype/StillImage"/>
    <dc:date>2024-01-09T15:31:31.169736</dc:date>
    <dc:format>image/svg+xml</dc:format>
    <dc:creator>
     <cc:Agent>
      <dc:title>Matplotlib v3.8.1, https://matplotlib.org/</dc:title>
     </cc:Agent>
    </dc:creator>
   </cc:Work>
  </rdf:RDF>
 </metadata>
 <defs>
  <style type="text/css">*{stroke-linejoin: round; stroke-linecap: butt}</style>
 </defs>
 <g id="figure_1">
  <g id="patch_1">
   <path d="M 0 345.42825 
L 577.771312 345.42825 
L 577.771312 -0 
L 0 -0 
L 0 345.42825 
z
" style="fill: none; opacity: 0"/>
  </g>
  <g id="axes_1">
   <g id="patch_2">
    <path d="M 50.595313 162.72 
L 407.715312 162.72 
L 407.715312 41.76 
L 50.595313 41.76 
z
" style="fill: #ffffff"/>
   </g>
   <g id="matplotlib.axis_1">
    <g id="xtick_1">
     <g id="line2d_1">
      <defs>
       <path id="m9d7fae019c" d="M 0 0 
L 0 3.5 
" style="stroke: #000000; stroke-width: 0.8"/>
      </defs>
      <g>
       <use xlink:href="#m9d7fae019c" x="55.465131" y="162.72" style="stroke: #000000; stroke-width: 0.8"/>
      </g>
     </g>
    </g>
    <g id="xtick_2">
     <g id="line2d_2">
      <g>
       <use xlink:href="#m9d7fae019c" x="120.39604" y="162.72" style="stroke: #000000; stroke-width: 0.8"/>
      </g>
     </g>
    </g>
    <g id="xtick_3">
     <g id="line2d_3">
      <g>
       <use xlink:href="#m9d7fae019c" x="185.326949" y="162.72" style="stroke: #000000; stroke-width: 0.8"/>
      </g>
     </g>
    </g>
    <g id="xtick_4">
     <g id="line2d_4">
      <g>
       <use xlink:href="#m9d7fae019c" x="250.257858" y="162.72" style="stroke: #000000; stroke-width: 0.8"/>
      </g>
     </g>
    </g>
    <g id="xtick_5">
     <g id="line2d_5">
      <g>
       <use xlink:href="#m9d7fae019c" x="315.188767" y="162.72" style="stroke: #000000; stroke-width: 0.8"/>
      </g>
     </g>
    </g>
    <g id="xtick_6">
     <g id="line2d_6">
      <g>
       <use xlink:href="#m9d7fae019c" x="380.119676" y="162.72" style="stroke: #000000; stroke-width: 0.8"/>
      </g>
     </g>
    </g>
   </g>
   <g id="matplotlib.axis_2">
    <g id="ytick_1">
     <g id="line2d_7">
      <defs>
       <path id="m8c12fb484a" d="M 0 0 
L -3.5 0 
" style="stroke: #000000; stroke-width: 0.8"/>
      </defs>
      <g>
       <use xlink:href="#m8c12fb484a" x="50.595313" y="141.192428" style="stroke: #000000; stroke-width: 0.8"/>
      </g>
     </g>
     <g id="text_1">
      <!-- 1 -->
      <g transform="translate(37.232813 144.991646) scale(0.1 -0.1)">
       <defs>
        <path id="DejaVuSans-31" d="M 794 531 
L 1825 531 
L 1825 4091 
L 703 3866 
L 703 4441 
L 1819 4666 
L 2450 4666 
L 2450 531 
L 3481 531 
L 3481 0 
L 794 0 
L 794 531 
z
" transform="scale(0.015625)"/>
       </defs>
       <use xlink:href="#DejaVuSans-31"/>
      </g>
     </g>
    </g>
    <g id="ytick_2">
     <g id="line2d_8">
      <g>
       <use xlink:href="#m8c12fb484a" x="50.595313" y="102.886852" style="stroke: #000000; stroke-width: 0.8"/>
      </g>
     </g>
     <g id="text_2">
      <!-- 1.5 -->
      <g transform="translate(27.692188 106.686071) scale(0.1 -0.1)">
       <defs>
        <path id="DejaVuSans-2e" d="M 684 794 
L 1344 794 
L 1344 0 
L 684 0 
L 684 794 
z
" transform="scale(0.015625)"/>
        <path id="DejaVuSans-35" d="M 691 4666 
L 3169 4666 
L 3169 4134 
L 1269 4134 
L 1269 2991 
Q 1406 3038 1543 3061 
Q 1681 3084 1819 3084 
Q 2600 3084 3056 2656 
Q 3513 2228 3513 1497 
Q 3513 744 3044 326 
Q 2575 -91 1722 -91 
Q 1428 -91 1123 -41 
Q 819 9 494 109 
L 494 744 
Q 775 591 1075 516 
Q 1375 441 1709 441 
Q 2250 441 2565 725 
Q 2881 1009 2881 1497 
Q 2881 1984 2565 2268 
Q 2250 2553 1709 2553 
Q 1456 2553 1204 2497 
Q 953 2441 691 2322 
L 691 4666 
z
" transform="scale(0.015625)"/>
       </defs>
       <use xlink:href="#DejaVuSans-31"/>
       <use xlink:href="#DejaVuSans-2e" x="63.623047"/>
       <use xlink:href="#DejaVuSans-35" x="95.410156"/>
      </g>
     </g>
    </g>
    <g id="ytick_3">
     <g id="line2d_9">
      <g>
       <use xlink:href="#m8c12fb484a" x="50.595313" y="64.581276" style="stroke: #000000; stroke-width: 0.8"/>
      </g>
     </g>
     <g id="text_3">
      <!-- 2 -->
      <g transform="translate(37.232813 68.380495) scale(0.1 -0.1)">
       <defs>
        <path id="DejaVuSans-32" d="M 1228 531 
L 3431 531 
L 3431 0 
L 469 0 
L 469 531 
Q 828 903 1448 1529 
Q 2069 2156 2228 2338 
Q 2531 2678 2651 2914 
Q 2772 3150 2772 3378 
Q 2772 3750 2511 3984 
Q 2250 4219 1831 4219 
Q 1534 4219 1204 4116 
Q 875 4013 500 3803 
L 500 4441 
Q 881 4594 1212 4672 
Q 1544 4750 1819 4750 
Q 2544 4750 2975 4387 
Q 3406 4025 3406 3419 
Q 3406 3131 3298 2873 
Q 3191 2616 2906 2266 
Q 2828 2175 2409 1742 
Q 1991 1309 1228 531 
z
" transform="scale(0.015625)"/>
       </defs>
       <use xlink:href="#DejaVuSans-32"/>
      </g>
     </g>
    </g>
    <g id="text_4">
     <!-- $|S_{21}|$ [mV] -->
     <g transform="translate(21.292188 127.19) rotate(-90) scale(0.1 -0.1)">
      <defs>
       <path id="DejaVuSans-7c" d="M 1344 4891 
L 1344 -1509 
L 813 -1509 
L 813 4891 
L 1344 4891 
z
" transform="scale(0.015625)"/>
       <path id="DejaVuSans-Oblique-53" d="M 3859 4513 
L 3738 3897 
Q 3422 4066 3111 4152 
Q 2800 4238 2509 4238 
Q 1944 4238 1609 3991 
Q 1275 3744 1275 3334 
Q 1275 3109 1398 2989 
Q 1522 2869 2034 2731 
L 2413 2638 
Q 3053 2472 3303 2217 
Q 3553 1963 3553 1503 
Q 3553 797 2998 353 
Q 2444 -91 1538 -91 
Q 1166 -91 791 -17 
Q 416 56 38 206 
L 166 856 
Q 513 641 861 531 
Q 1209 422 1556 422 
Q 2147 422 2503 684 
Q 2859 947 2859 1369 
Q 2859 1650 2717 1795 
Q 2575 1941 2106 2059 
L 1728 2156 
Q 1081 2325 845 2545 
Q 609 2766 609 3163 
Q 609 3859 1145 4304 
Q 1681 4750 2541 4750 
Q 2875 4750 3203 4690 
Q 3531 4631 3859 4513 
z
" transform="scale(0.015625)"/>
       <path id="DejaVuSans-20" transform="scale(0.015625)"/>
       <path id="DejaVuSans-5b" d="M 550 4863 
L 1875 4863 
L 1875 4416 
L 1125 4416 
L 1125 -397 
L 1875 -397 
L 1875 -844 
L 550 -844 
L 550 4863 
z
" transform="scale(0.015625)"/>
       <path id="DejaVuSans-6d" d="M 3328 2828 
Q 3544 3216 3844 3400 
Q 4144 3584 4550 3584 
Q 5097 3584 5394 3201 
Q 5691 2819 5691 2113 
L 5691 0 
L 5113 0 
L 5113 2094 
Q 5113 2597 4934 2840 
Q 4756 3084 4391 3084 
Q 3944 3084 3684 2787 
Q 3425 2491 3425 1978 
L 3425 0 
L 2847 0 
L 2847 2094 
Q 2847 2600 2669 2842 
Q 2491 3084 2119 3084 
Q 1678 3084 1418 2786 
Q 1159 2488 1159 1978 
L 1159 0 
L 581 0 
L 581 3500 
L 1159 3500 
L 1159 2956 
Q 1356 3278 1631 3431 
Q 1906 3584 2284 3584 
Q 2666 3584 2933 3390 
Q 3200 3197 3328 2828 
z
" transform="scale(0.015625)"/>
       <path id="DejaVuSans-56" d="M 1831 0 
L 50 4666 
L 709 4666 
L 2188 738 
L 3669 4666 
L 4325 4666 
L 2547 0 
L 1831 0 
z
" transform="scale(0.015625)"/>
       <path id="DejaVuSans-5d" d="M 1947 4863 
L 1947 -844 
L 622 -844 
L 622 -397 
L 1369 -397 
L 1369 4416 
L 622 4416 
L 622 4863 
L 1947 4863 
z
" transform="scale(0.015625)"/>
      </defs>
      <use xlink:href="#DejaVuSans-7c" transform="translate(0 0.578125)"/>
      <use xlink:href="#DejaVuSans-Oblique-53" transform="translate(33.691406 0.578125)"/>
      <use xlink:href="#DejaVuSans-32" transform="translate(97.167969 -15.828125) scale(0.7)"/>
      <use xlink:href="#DejaVuSans-31" transform="translate(141.704102 -15.828125) scale(0.7)"/>
      <use xlink:href="#DejaVuSans-7c" transform="translate(188.974609 0.578125)"/>
      <use xlink:href="#DejaVuSans-20" transform="translate(222.666016 0.578125)"/>
      <use xlink:href="#DejaVuSans-5b" transform="translate(254.453125 0.578125)"/>
      <use xlink:href="#DejaVuSans-6d" transform="translate(293.466797 0.578125)"/>
      <use xlink:href="#DejaVuSans-56" transform="translate(390.878906 0.578125)"/>
      <use xlink:href="#DejaVuSans-5d" transform="translate(459.287109 0.578125)"/>
     </g>
    </g>
   </g>
   <g id="line2d_10">
    <path d="M 66.82804 60.342748 
L 68.45947 56.439162 
L 70.0909 56.277912 
L 71.722329 61.8503 
L 73.353759 63.633873 
L 74.985189 56.945846 
L 76.616619 60.636671 
L 78.248049 56.241128 
L 79.879479 58.591677 
L 81.510909 55.67649 
L 83.142339 53.318386 
L 84.773768 55.086553 
L 86.405198 54.896437 
L 88.036628 58.413809 
L 89.668058 59.357197 
L 91.299488 58.617278 
L 92.930918 58.581884 
L 94.562348 54.599736 
L 96.193778 53.336129 
L 97.825207 52.645994 
L 99.456637 61.680207 
L 101.088067 62.376394 
L 102.719497 59.053386 
L 105.982357 50.433103 
L 107.613787 52.745803 
L 109.245217 54.56566 
L 110.876646 54.81531 
L 112.508076 56.358053 
L 114.139506 52.192529 
L 115.770936 58.988195 
L 117.402366 51.863224 
L 119.033796 55.8148 
L 120.665226 60.904177 
L 122.296656 54.969051 
L 123.928085 53.510681 
L 125.559515 54.302585 
L 127.190945 48.057966 
L 128.822375 52.903368 
L 130.453805 60.622458 
L 132.085235 52.176329 
L 133.716665 59.042587 
L 136.979524 53.737306 
L 138.610954 50.047235 
L 140.242384 55.634736 
L 141.873814 59.665919 
L 143.505244 47.258182 
L 145.136674 55.803826 
L 146.768104 51.892518 
L 148.399534 55.198078 
L 150.030963 56.518467 
L 151.662393 60.889899 
L 153.293823 55.625383 
L 154.925253 52.947703 
L 156.556683 62.665351 
L 158.188113 48.614596 
L 159.819543 61.129 
L 161.450973 55.714344 
L 163.082402 66.38921 
L 164.713832 65.724297 
L 166.345262 71.397978 
L 167.976692 81.898655 
L 169.608122 80.41636 
L 171.239552 85.93922 
L 172.870982 95.247629 
L 174.502412 98.317986 
L 176.133842 116.580495 
L 177.765271 117.465071 
L 179.396701 128.894075 
L 181.028131 129.125234 
L 182.659561 134.509241 
L 184.290991 142.24161 
L 185.922421 157.221818 
L 187.553851 145.418737 
L 189.185281 145.551357 
L 190.81671 137.507392 
L 192.44814 133.1942 
L 194.07957 131.620425 
L 195.711 129.381706 
L 198.97386 116.436536 
L 200.60529 119.226097 
L 202.23672 108.433239 
L 203.868149 101.514178 
L 205.499579 100.587149 
L 207.131009 103.683846 
L 208.762439 94.561115 
L 210.393869 95.773138 
L 212.025299 99.161496 
L 213.656729 89.956179 
L 215.288159 88.424139 
L 216.919588 84.755401 
L 218.551018 84.266456 
L 220.182448 83.448463 
L 221.813878 87.54779 
L 223.445308 85.286155 
L 225.076738 88.094101 
L 226.708168 80.624429 
L 228.339598 84.887016 
L 229.971027 86.244805 
L 231.602457 88.82263 
L 233.233887 80.319932 
L 234.865317 83.39569 
L 236.496747 80.331367 
L 238.128177 80.800393 
L 239.759607 83.277262 
L 241.391037 82.431376 
L 243.022466 81.862777 
L 244.653896 78.692813 
L 246.285326 78.688369 
L 247.916756 76.68073 
L 249.548186 73.684143 
L 251.179616 76.918409 
L 252.811046 76.0228 
L 254.442476 76.387297 
L 256.073905 77.898112 
L 257.705335 71.08122 
L 259.336765 79.115482 
L 260.968195 74.003703 
L 262.599625 77.491578 
L 264.231055 75.940353 
L 265.862485 72.110392 
L 267.493915 68.701127 
L 269.125344 73.586775 
L 270.756774 74.407542 
L 272.388204 79.686065 
L 274.019634 73.537612 
L 275.651064 77.816221 
L 277.282494 73.443843 
L 278.913924 72.678741 
L 280.545354 68.867426 
L 282.176783 74.54229 
L 283.808213 70.677402 
L 285.439643 71.002312 
L 287.071073 72.678439 
L 288.702503 74.94918 
L 290.333933 72.648999 
L 291.965363 70.545012 
L 293.596793 73.053594 
L 295.228223 76.057267 
L 296.859652 73.131453 
L 298.491082 71.919208 
L 300.122512 69.075467 
L 303.385372 72.090289 
L 305.016802 73.859362 
L 306.648232 74.782082 
L 308.279662 64.783718 
L 309.911091 75.217289 
L 311.542521 73.583357 
L 313.173951 74.636209 
L 314.805381 68.616356 
L 316.436811 72.990531 
L 318.068241 68.973453 
L 319.699671 74.53769 
L 321.331101 67.513062 
L 322.96253 71.940942 
L 324.59396 65.339774 
L 326.22539 66.689267 
L 327.85682 71.06273 
L 329.48825 78.683662 
L 331.11968 66.542245 
L 332.75111 76.237809 
L 334.38254 69.632804 
L 336.013969 73.316294 
L 337.645399 74.47439 
L 339.276829 72.408816 
L 340.908259 64.430436 
L 342.539689 71.474225 
L 344.171119 69.590896 
L 345.802549 67.158875 
L 347.433979 61.454709 
L 349.065408 60.019872 
L 350.696838 63.974406 
L 352.328268 62.650271 
L 353.959698 66.878402 
L 357.222558 71.29465 
L 358.853988 65.76057 
L 360.485418 70.509578 
L 362.116847 70.918606 
L 363.748277 65.16529 
L 365.379707 69.845321 
L 367.011137 76.50381 
L 368.642567 66.602172 
L 370.273997 64.621781 
L 371.905427 68.157279 
L 373.536857 66.503752 
L 375.168286 62.837204 
L 376.799716 66.116547 
L 378.431146 68.026947 
L 380.062576 67.277546 
L 381.694006 62.048752 
L 383.325436 62.263756 
L 384.956866 66.629355 
L 386.588296 64.577631 
L 388.219725 68.948765 
L 389.851155 68.520858 
L 391.482585 68.565074 
L 391.482585 68.565074 
" clip-path="url(#p3e9dcc6060)" style="fill: none; stroke: #1f77b4; stroke-width: 1.5; stroke-linecap: square"/>
    <defs>
     <path id="me973904f2a" d="M 0 1.5 
C 0.397805 1.5 0.77937 1.341951 1.06066 1.06066 
C 1.341951 0.77937 1.5 0.397805 1.5 0 
C 1.5 -0.397805 1.341951 -0.77937 1.06066 -1.06066 
C 0.77937 -1.341951 0.397805 -1.5 0 -1.5 
C -0.397805 -1.5 -0.77937 -1.341951 -1.06066 -1.06066 
C -1.341951 -0.77937 -1.5 -0.397805 -1.5 0 
C -1.5 0.397805 -1.341951 0.77937 -1.06066 1.06066 
C -0.77937 1.341951 -0.397805 1.5 0 1.5 
z
" style="stroke: #1f77b4"/>
    </defs>
    <g clip-path="url(#p3e9dcc6060)">
     <use xlink:href="#me973904f2a" x="66.82804" y="60.342748" style="fill: #1f77b4; stroke: #1f77b4"/>
     <use xlink:href="#me973904f2a" x="68.45947" y="56.439162" style="fill: #1f77b4; stroke: #1f77b4"/>
     <use xlink:href="#me973904f2a" x="70.0909" y="56.277912" style="fill: #1f77b4; stroke: #1f77b4"/>
     <use xlink:href="#me973904f2a" x="71.722329" y="61.8503" style="fill: #1f77b4; stroke: #1f77b4"/>
     <use xlink:href="#me973904f2a" x="73.353759" y="63.633873" style="fill: #1f77b4; stroke: #1f77b4"/>
     <use xlink:href="#me973904f2a" x="74.985189" y="56.945846" style="fill: #1f77b4; stroke: #1f77b4"/>
     <use xlink:href="#me973904f2a" x="76.616619" y="60.636671" style="fill: #1f77b4; stroke: #1f77b4"/>
     <use xlink:href="#me973904f2a" x="78.248049" y="56.241128" style="fill: #1f77b4; stroke: #1f77b4"/>
     <use xlink:href="#me973904f2a" x="79.879479" y="58.591677" style="fill: #1f77b4; stroke: #1f77b4"/>
     <use xlink:href="#me973904f2a" x="81.510909" y="55.67649" style="fill: #1f77b4; stroke: #1f77b4"/>
     <use xlink:href="#me973904f2a" x="83.142339" y="53.318386" style="fill: #1f77b4; stroke: #1f77b4"/>
     <use xlink:href="#me973904f2a" x="84.773768" y="55.086553" style="fill: #1f77b4; stroke: #1f77b4"/>
     <use xlink:href="#me973904f2a" x="86.405198" y="54.896437" style="fill: #1f77b4; stroke: #1f77b4"/>
     <use xlink:href="#me973904f2a" x="88.036628" y="58.413809" style="fill: #1f77b4; stroke: #1f77b4"/>
     <use xlink:href="#me973904f2a" x="89.668058" y="59.357197" style="fill: #1f77b4; stroke: #1f77b4"/>
     <use xlink:href="#me973904f2a" x="91.299488" y="58.617278" style="fill: #1f77b4; stroke: #1f77b4"/>
     <use xlink:href="#me973904f2a" x="92.930918" y="58.581884" style="fill: #1f77b4; stroke: #1f77b4"/>
     <use xlink:href="#me973904f2a" x="94.562348" y="54.599736" style="fill: #1f77b4; stroke: #1f77b4"/>
     <use xlink:href="#me973904f2a" x="96.193778" y="53.336129" style="fill: #1f77b4; stroke: #1f77b4"/>
     <use xlink:href="#me973904f2a" x="97.825207" y="52.645994" style="fill: #1f77b4; stroke: #1f77b4"/>
     <use xlink:href="#me973904f2a" x="99.456637" y="61.680207" style="fill: #1f77b4; stroke: #1f77b4"/>
     <use xlink:href="#me973904f2a" x="101.088067" y="62.376394" style="fill: #1f77b4; stroke: #1f77b4"/>
     <use xlink:href="#me973904f2a" x="102.719497" y="59.053386" style="fill: #1f77b4; stroke: #1f77b4"/>
     <use xlink:href="#me973904f2a" x="104.350927" y="54.704348" style="fill: #1f77b4; stroke: #1f77b4"/>
     <use xlink:href="#me973904f2a" x="105.982357" y="50.433103" style="fill: #1f77b4; stroke: #1f77b4"/>
     <use xlink:href="#me973904f2a" x="107.613787" y="52.745803" style="fill: #1f77b4; stroke: #1f77b4"/>
     <use xlink:href="#me973904f2a" x="109.245217" y="54.56566" style="fill: #1f77b4; stroke: #1f77b4"/>
     <use xlink:href="#me973904f2a" x="110.876646" y="54.81531" style="fill: #1f77b4; stroke: #1f77b4"/>
     <use xlink:href="#me973904f2a" x="112.508076" y="56.358053" style="fill: #1f77b4; stroke: #1f77b4"/>
     <use xlink:href="#me973904f2a" x="114.139506" y="52.192529" style="fill: #1f77b4; stroke: #1f77b4"/>
     <use xlink:href="#me973904f2a" x="115.770936" y="58.988195" style="fill: #1f77b4; stroke: #1f77b4"/>
     <use xlink:href="#me973904f2a" x="117.402366" y="51.863224" style="fill: #1f77b4; stroke: #1f77b4"/>
     <use xlink:href="#me973904f2a" x="119.033796" y="55.8148" style="fill: #1f77b4; stroke: #1f77b4"/>
     <use xlink:href="#me973904f2a" x="120.665226" y="60.904177" style="fill: #1f77b4; stroke: #1f77b4"/>
     <use xlink:href="#me973904f2a" x="122.296656" y="54.969051" style="fill: #1f77b4; stroke: #1f77b4"/>
     <use xlink:href="#me973904f2a" x="123.928085" y="53.510681" style="fill: #1f77b4; stroke: #1f77b4"/>
     <use xlink:href="#me973904f2a" x="125.559515" y="54.302585" style="fill: #1f77b4; stroke: #1f77b4"/>
     <use xlink:href="#me973904f2a" x="127.190945" y="48.057966" style="fill: #1f77b4; stroke: #1f77b4"/>
     <use xlink:href="#me973904f2a" x="128.822375" y="52.903368" style="fill: #1f77b4; stroke: #1f77b4"/>
     <use xlink:href="#me973904f2a" x="130.453805" y="60.622458" style="fill: #1f77b4; stroke: #1f77b4"/>
     <use xlink:href="#me973904f2a" x="132.085235" y="52.176329" style="fill: #1f77b4; stroke: #1f77b4"/>
     <use xlink:href="#me973904f2a" x="133.716665" y="59.042587" style="fill: #1f77b4; stroke: #1f77b4"/>
     <use xlink:href="#me973904f2a" x="135.348095" y="56.369292" style="fill: #1f77b4; stroke: #1f77b4"/>
     <use xlink:href="#me973904f2a" x="136.979524" y="53.737306" style="fill: #1f77b4; stroke: #1f77b4"/>
     <use xlink:href="#me973904f2a" x="138.610954" y="50.047235" style="fill: #1f77b4; stroke: #1f77b4"/>
     <use xlink:href="#me973904f2a" x="140.242384" y="55.634736" style="fill: #1f77b4; stroke: #1f77b4"/>
     <use xlink:href="#me973904f2a" x="141.873814" y="59.665919" style="fill: #1f77b4; stroke: #1f77b4"/>
     <use xlink:href="#me973904f2a" x="143.505244" y="47.258182" style="fill: #1f77b4; stroke: #1f77b4"/>
     <use xlink:href="#me973904f2a" x="145.136674" y="55.803826" style="fill: #1f77b4; stroke: #1f77b4"/>
     <use xlink:href="#me973904f2a" x="146.768104" y="51.892518" style="fill: #1f77b4; stroke: #1f77b4"/>
     <use xlink:href="#me973904f2a" x="148.399534" y="55.198078" style="fill: #1f77b4; stroke: #1f77b4"/>
     <use xlink:href="#me973904f2a" x="150.030963" y="56.518467" style="fill: #1f77b4; stroke: #1f77b4"/>
     <use xlink:href="#me973904f2a" x="151.662393" y="60.889899" style="fill: #1f77b4; stroke: #1f77b4"/>
     <use xlink:href="#me973904f2a" x="153.293823" y="55.625383" style="fill: #1f77b4; stroke: #1f77b4"/>
     <use xlink:href="#me973904f2a" x="154.925253" y="52.947703" style="fill: #1f77b4; stroke: #1f77b4"/>
     <use xlink:href="#me973904f2a" x="156.556683" y="62.665351" style="fill: #1f77b4; stroke: #1f77b4"/>
     <use xlink:href="#me973904f2a" x="158.188113" y="48.614596" style="fill: #1f77b4; stroke: #1f77b4"/>
     <use xlink:href="#me973904f2a" x="159.819543" y="61.129" style="fill: #1f77b4; stroke: #1f77b4"/>
     <use xlink:href="#me973904f2a" x="161.450973" y="55.714344" style="fill: #1f77b4; stroke: #1f77b4"/>
     <use xlink:href="#me973904f2a" x="163.082402" y="66.38921" style="fill: #1f77b4; stroke: #1f77b4"/>
     <use xlink:href="#me973904f2a" x="164.713832" y="65.724297" style="fill: #1f77b4; stroke: #1f77b4"/>
     <use xlink:href="#me973904f2a" x="166.345262" y="71.397978" style="fill: #1f77b4; stroke: #1f77b4"/>
     <use xlink:href="#me973904f2a" x="167.976692" y="81.898655" style="fill: #1f77b4; stroke: #1f77b4"/>
     <use xlink:href="#me973904f2a" x="169.608122" y="80.41636" style="fill: #1f77b4; stroke: #1f77b4"/>
     <use xlink:href="#me973904f2a" x="171.239552" y="85.93922" style="fill: #1f77b4; stroke: #1f77b4"/>
     <use xlink:href="#me973904f2a" x="172.870982" y="95.247629" style="fill: #1f77b4; stroke: #1f77b4"/>
     <use xlink:href="#me973904f2a" x="174.502412" y="98.317986" style="fill: #1f77b4; stroke: #1f77b4"/>
     <use xlink:href="#me973904f2a" x="176.133842" y="116.580495" style="fill: #1f77b4; stroke: #1f77b4"/>
     <use xlink:href="#me973904f2a" x="177.765271" y="117.465071" style="fill: #1f77b4; stroke: #1f77b4"/>
     <use xlink:href="#me973904f2a" x="179.396701" y="128.894075" style="fill: #1f77b4; stroke: #1f77b4"/>
     <use xlink:href="#me973904f2a" x="181.028131" y="129.125234" style="fill: #1f77b4; stroke: #1f77b4"/>
     <use xlink:href="#me973904f2a" x="182.659561" y="134.509241" style="fill: #1f77b4; stroke: #1f77b4"/>
     <use xlink:href="#me973904f2a" x="184.290991" y="142.24161" style="fill: #1f77b4; stroke: #1f77b4"/>
     <use xlink:href="#me973904f2a" x="185.922421" y="157.221818" style="fill: #1f77b4; stroke: #1f77b4"/>
     <use xlink:href="#me973904f2a" x="187.553851" y="145.418737" style="fill: #1f77b4; stroke: #1f77b4"/>
     <use xlink:href="#me973904f2a" x="189.185281" y="145.551357" style="fill: #1f77b4; stroke: #1f77b4"/>
     <use xlink:href="#me973904f2a" x="190.81671" y="137.507392" style="fill: #1f77b4; stroke: #1f77b4"/>
     <use xlink:href="#me973904f2a" x="192.44814" y="133.1942" style="fill: #1f77b4; stroke: #1f77b4"/>
     <use xlink:href="#me973904f2a" x="194.07957" y="131.620425" style="fill: #1f77b4; stroke: #1f77b4"/>
     <use xlink:href="#me973904f2a" x="195.711" y="129.381706" style="fill: #1f77b4; stroke: #1f77b4"/>
     <use xlink:href="#me973904f2a" x="197.34243" y="122.940017" style="fill: #1f77b4; stroke: #1f77b4"/>
     <use xlink:href="#me973904f2a" x="198.97386" y="116.436536" style="fill: #1f77b4; stroke: #1f77b4"/>
     <use xlink:href="#me973904f2a" x="200.60529" y="119.226097" style="fill: #1f77b4; stroke: #1f77b4"/>
     <use xlink:href="#me973904f2a" x="202.23672" y="108.433239" style="fill: #1f77b4; stroke: #1f77b4"/>
     <use xlink:href="#me973904f2a" x="203.868149" y="101.514178" style="fill: #1f77b4; stroke: #1f77b4"/>
     <use xlink:href="#me973904f2a" x="205.499579" y="100.587149" style="fill: #1f77b4; stroke: #1f77b4"/>
     <use xlink:href="#me973904f2a" x="207.131009" y="103.683846" style="fill: #1f77b4; stroke: #1f77b4"/>
     <use xlink:href="#me973904f2a" x="208.762439" y="94.561115" style="fill: #1f77b4; stroke: #1f77b4"/>
     <use xlink:href="#me973904f2a" x="210.393869" y="95.773138" style="fill: #1f77b4; stroke: #1f77b4"/>
     <use xlink:href="#me973904f2a" x="212.025299" y="99.161496" style="fill: #1f77b4; stroke: #1f77b4"/>
     <use xlink:href="#me973904f2a" x="213.656729" y="89.956179" style="fill: #1f77b4; stroke: #1f77b4"/>
     <use xlink:href="#me973904f2a" x="215.288159" y="88.424139" style="fill: #1f77b4; stroke: #1f77b4"/>
     <use xlink:href="#me973904f2a" x="216.919588" y="84.755401" style="fill: #1f77b4; stroke: #1f77b4"/>
     <use xlink:href="#me973904f2a" x="218.551018" y="84.266456" style="fill: #1f77b4; stroke: #1f77b4"/>
     <use xlink:href="#me973904f2a" x="220.182448" y="83.448463" style="fill: #1f77b4; stroke: #1f77b4"/>
     <use xlink:href="#me973904f2a" x="221.813878" y="87.54779" style="fill: #1f77b4; stroke: #1f77b4"/>
     <use xlink:href="#me973904f2a" x="223.445308" y="85.286155" style="fill: #1f77b4; stroke: #1f77b4"/>
     <use xlink:href="#me973904f2a" x="225.076738" y="88.094101" style="fill: #1f77b4; stroke: #1f77b4"/>
     <use xlink:href="#me973904f2a" x="226.708168" y="80.624429" style="fill: #1f77b4; stroke: #1f77b4"/>
     <use xlink:href="#me973904f2a" x="228.339598" y="84.887016" style="fill: #1f77b4; stroke: #1f77b4"/>
     <use xlink:href="#me973904f2a" x="229.971027" y="86.244805" style="fill: #1f77b4; stroke: #1f77b4"/>
     <use xlink:href="#me973904f2a" x="231.602457" y="88.82263" style="fill: #1f77b4; stroke: #1f77b4"/>
     <use xlink:href="#me973904f2a" x="233.233887" y="80.319932" style="fill: #1f77b4; stroke: #1f77b4"/>
     <use xlink:href="#me973904f2a" x="234.865317" y="83.39569" style="fill: #1f77b4; stroke: #1f77b4"/>
     <use xlink:href="#me973904f2a" x="236.496747" y="80.331367" style="fill: #1f77b4; stroke: #1f77b4"/>
     <use xlink:href="#me973904f2a" x="238.128177" y="80.800393" style="fill: #1f77b4; stroke: #1f77b4"/>
     <use xlink:href="#me973904f2a" x="239.759607" y="83.277262" style="fill: #1f77b4; stroke: #1f77b4"/>
     <use xlink:href="#me973904f2a" x="241.391037" y="82.431376" style="fill: #1f77b4; stroke: #1f77b4"/>
     <use xlink:href="#me973904f2a" x="243.022466" y="81.862777" style="fill: #1f77b4; stroke: #1f77b4"/>
     <use xlink:href="#me973904f2a" x="244.653896" y="78.692813" style="fill: #1f77b4; stroke: #1f77b4"/>
     <use xlink:href="#me973904f2a" x="246.285326" y="78.688369" style="fill: #1f77b4; stroke: #1f77b4"/>
     <use xlink:href="#me973904f2a" x="247.916756" y="76.68073" style="fill: #1f77b4; stroke: #1f77b4"/>
     <use xlink:href="#me973904f2a" x="249.548186" y="73.684143" style="fill: #1f77b4; stroke: #1f77b4"/>
     <use xlink:href="#me973904f2a" x="251.179616" y="76.918409" style="fill: #1f77b4; stroke: #1f77b4"/>
     <use xlink:href="#me973904f2a" x="252.811046" y="76.0228" style="fill: #1f77b4; stroke: #1f77b4"/>
     <use xlink:href="#me973904f2a" x="254.442476" y="76.387297" style="fill: #1f77b4; stroke: #1f77b4"/>
     <use xlink:href="#me973904f2a" x="256.073905" y="77.898112" style="fill: #1f77b4; stroke: #1f77b4"/>
     <use xlink:href="#me973904f2a" x="257.705335" y="71.08122" style="fill: #1f77b4; stroke: #1f77b4"/>
     <use xlink:href="#me973904f2a" x="259.336765" y="79.115482" style="fill: #1f77b4; stroke: #1f77b4"/>
     <use xlink:href="#me973904f2a" x="260.968195" y="74.003703" style="fill: #1f77b4; stroke: #1f77b4"/>
     <use xlink:href="#me973904f2a" x="262.599625" y="77.491578" style="fill: #1f77b4; stroke: #1f77b4"/>
     <use xlink:href="#me973904f2a" x="264.231055" y="75.940353" style="fill: #1f77b4; stroke: #1f77b4"/>
     <use xlink:href="#me973904f2a" x="265.862485" y="72.110392" style="fill: #1f77b4; stroke: #1f77b4"/>
     <use xlink:href="#me973904f2a" x="267.493915" y="68.701127" style="fill: #1f77b4; stroke: #1f77b4"/>
     <use xlink:href="#me973904f2a" x="269.125344" y="73.586775" style="fill: #1f77b4; stroke: #1f77b4"/>
     <use xlink:href="#me973904f2a" x="270.756774" y="74.407542" style="fill: #1f77b4; stroke: #1f77b4"/>
     <use xlink:href="#me973904f2a" x="272.388204" y="79.686065" style="fill: #1f77b4; stroke: #1f77b4"/>
     <use xlink:href="#me973904f2a" x="274.019634" y="73.537612" style="fill: #1f77b4; stroke: #1f77b4"/>
     <use xlink:href="#me973904f2a" x="275.651064" y="77.816221" style="fill: #1f77b4; stroke: #1f77b4"/>
     <use xlink:href="#me973904f2a" x="277.282494" y="73.443843" style="fill: #1f77b4; stroke: #1f77b4"/>
     <use xlink:href="#me973904f2a" x="278.913924" y="72.678741" style="fill: #1f77b4; stroke: #1f77b4"/>
     <use xlink:href="#me973904f2a" x="280.545354" y="68.867426" style="fill: #1f77b4; stroke: #1f77b4"/>
     <use xlink:href="#me973904f2a" x="282.176783" y="74.54229" style="fill: #1f77b4; stroke: #1f77b4"/>
     <use xlink:href="#me973904f2a" x="283.808213" y="70.677402" style="fill: #1f77b4; stroke: #1f77b4"/>
     <use xlink:href="#me973904f2a" x="285.439643" y="71.002312" style="fill: #1f77b4; stroke: #1f77b4"/>
     <use xlink:href="#me973904f2a" x="287.071073" y="72.678439" style="fill: #1f77b4; stroke: #1f77b4"/>
     <use xlink:href="#me973904f2a" x="288.702503" y="74.94918" style="fill: #1f77b4; stroke: #1f77b4"/>
     <use xlink:href="#me973904f2a" x="290.333933" y="72.648999" style="fill: #1f77b4; stroke: #1f77b4"/>
     <use xlink:href="#me973904f2a" x="291.965363" y="70.545012" style="fill: #1f77b4; stroke: #1f77b4"/>
     <use xlink:href="#me973904f2a" x="293.596793" y="73.053594" style="fill: #1f77b4; stroke: #1f77b4"/>
     <use xlink:href="#me973904f2a" x="295.228223" y="76.057267" style="fill: #1f77b4; stroke: #1f77b4"/>
     <use xlink:href="#me973904f2a" x="296.859652" y="73.131453" style="fill: #1f77b4; stroke: #1f77b4"/>
     <use xlink:href="#me973904f2a" x="298.491082" y="71.919208" style="fill: #1f77b4; stroke: #1f77b4"/>
     <use xlink:href="#me973904f2a" x="300.122512" y="69.075467" style="fill: #1f77b4; stroke: #1f77b4"/>
     <use xlink:href="#me973904f2a" x="301.753942" y="70.541798" style="fill: #1f77b4; stroke: #1f77b4"/>
     <use xlink:href="#me973904f2a" x="303.385372" y="72.090289" style="fill: #1f77b4; stroke: #1f77b4"/>
     <use xlink:href="#me973904f2a" x="305.016802" y="73.859362" style="fill: #1f77b4; stroke: #1f77b4"/>
     <use xlink:href="#me973904f2a" x="306.648232" y="74.782082" style="fill: #1f77b4; stroke: #1f77b4"/>
     <use xlink:href="#me973904f2a" x="308.279662" y="64.783718" style="fill: #1f77b4; stroke: #1f77b4"/>
     <use xlink:href="#me973904f2a" x="309.911091" y="75.217289" style="fill: #1f77b4; stroke: #1f77b4"/>
     <use xlink:href="#me973904f2a" x="311.542521" y="73.583357" style="fill: #1f77b4; stroke: #1f77b4"/>
     <use xlink:href="#me973904f2a" x="313.173951" y="74.636209" style="fill: #1f77b4; stroke: #1f77b4"/>
     <use xlink:href="#me973904f2a" x="314.805381" y="68.616356" style="fill: #1f77b4; stroke: #1f77b4"/>
     <use xlink:href="#me973904f2a" x="316.436811" y="72.990531" style="fill: #1f77b4; stroke: #1f77b4"/>
     <use xlink:href="#me973904f2a" x="318.068241" y="68.973453" style="fill: #1f77b4; stroke: #1f77b4"/>
     <use xlink:href="#me973904f2a" x="319.699671" y="74.53769" style="fill: #1f77b4; stroke: #1f77b4"/>
     <use xlink:href="#me973904f2a" x="321.331101" y="67.513062" style="fill: #1f77b4; stroke: #1f77b4"/>
     <use xlink:href="#me973904f2a" x="322.96253" y="71.940942" style="fill: #1f77b4; stroke: #1f77b4"/>
     <use xlink:href="#me973904f2a" x="324.59396" y="65.339774" style="fill: #1f77b4; stroke: #1f77b4"/>
     <use xlink:href="#me973904f2a" x="326.22539" y="66.689267" style="fill: #1f77b4; stroke: #1f77b4"/>
     <use xlink:href="#me973904f2a" x="327.85682" y="71.06273" style="fill: #1f77b4; stroke: #1f77b4"/>
     <use xlink:href="#me973904f2a" x="329.48825" y="78.683662" style="fill: #1f77b4; stroke: #1f77b4"/>
     <use xlink:href="#me973904f2a" x="331.11968" y="66.542245" style="fill: #1f77b4; stroke: #1f77b4"/>
     <use xlink:href="#me973904f2a" x="332.75111" y="76.237809" style="fill: #1f77b4; stroke: #1f77b4"/>
     <use xlink:href="#me973904f2a" x="334.38254" y="69.632804" style="fill: #1f77b4; stroke: #1f77b4"/>
     <use xlink:href="#me973904f2a" x="336.013969" y="73.316294" style="fill: #1f77b4; stroke: #1f77b4"/>
     <use xlink:href="#me973904f2a" x="337.645399" y="74.47439" style="fill: #1f77b4; stroke: #1f77b4"/>
     <use xlink:href="#me973904f2a" x="339.276829" y="72.408816" style="fill: #1f77b4; stroke: #1f77b4"/>
     <use xlink:href="#me973904f2a" x="340.908259" y="64.430436" style="fill: #1f77b4; stroke: #1f77b4"/>
     <use xlink:href="#me973904f2a" x="342.539689" y="71.474225" style="fill: #1f77b4; stroke: #1f77b4"/>
     <use xlink:href="#me973904f2a" x="344.171119" y="69.590896" style="fill: #1f77b4; stroke: #1f77b4"/>
     <use xlink:href="#me973904f2a" x="345.802549" y="67.158875" style="fill: #1f77b4; stroke: #1f77b4"/>
     <use xlink:href="#me973904f2a" x="347.433979" y="61.454709" style="fill: #1f77b4; stroke: #1f77b4"/>
     <use xlink:href="#me973904f2a" x="349.065408" y="60.019872" style="fill: #1f77b4; stroke: #1f77b4"/>
     <use xlink:href="#me973904f2a" x="350.696838" y="63.974406" style="fill: #1f77b4; stroke: #1f77b4"/>
     <use xlink:href="#me973904f2a" x="352.328268" y="62.650271" style="fill: #1f77b4; stroke: #1f77b4"/>
     <use xlink:href="#me973904f2a" x="353.959698" y="66.878402" style="fill: #1f77b4; stroke: #1f77b4"/>
     <use xlink:href="#me973904f2a" x="355.591128" y="69.096446" style="fill: #1f77b4; stroke: #1f77b4"/>
     <use xlink:href="#me973904f2a" x="357.222558" y="71.29465" style="fill: #1f77b4; stroke: #1f77b4"/>
     <use xlink:href="#me973904f2a" x="358.853988" y="65.76057" style="fill: #1f77b4; stroke: #1f77b4"/>
     <use xlink:href="#me973904f2a" x="360.485418" y="70.509578" style="fill: #1f77b4; stroke: #1f77b4"/>
     <use xlink:href="#me973904f2a" x="362.116847" y="70.918606" style="fill: #1f77b4; stroke: #1f77b4"/>
     <use xlink:href="#me973904f2a" x="363.748277" y="65.16529" style="fill: #1f77b4; stroke: #1f77b4"/>
     <use xlink:href="#me973904f2a" x="365.379707" y="69.845321" style="fill: #1f77b4; stroke: #1f77b4"/>
     <use xlink:href="#me973904f2a" x="367.011137" y="76.50381" style="fill: #1f77b4; stroke: #1f77b4"/>
     <use xlink:href="#me973904f2a" x="368.642567" y="66.602172" style="fill: #1f77b4; stroke: #1f77b4"/>
     <use xlink:href="#me973904f2a" x="370.273997" y="64.621781" style="fill: #1f77b4; stroke: #1f77b4"/>
     <use xlink:href="#me973904f2a" x="371.905427" y="68.157279" style="fill: #1f77b4; stroke: #1f77b4"/>
     <use xlink:href="#me973904f2a" x="373.536857" y="66.503752" style="fill: #1f77b4; stroke: #1f77b4"/>
     <use xlink:href="#me973904f2a" x="375.168286" y="62.837204" style="fill: #1f77b4; stroke: #1f77b4"/>
     <use xlink:href="#me973904f2a" x="376.799716" y="66.116547" style="fill: #1f77b4; stroke: #1f77b4"/>
     <use xlink:href="#me973904f2a" x="378.431146" y="68.026947" style="fill: #1f77b4; stroke: #1f77b4"/>
     <use xlink:href="#me973904f2a" x="380.062576" y="67.277546" style="fill: #1f77b4; stroke: #1f77b4"/>
     <use xlink:href="#me973904f2a" x="381.694006" y="62.048752" style="fill: #1f77b4; stroke: #1f77b4"/>
     <use xlink:href="#me973904f2a" x="383.325436" y="62.263756" style="fill: #1f77b4; stroke: #1f77b4"/>
     <use xlink:href="#me973904f2a" x="384.956866" y="66.629355" style="fill: #1f77b4; stroke: #1f77b4"/>
     <use xlink:href="#me973904f2a" x="386.588296" y="64.577631" style="fill: #1f77b4; stroke: #1f77b4"/>
     <use xlink:href="#me973904f2a" x="388.219725" y="68.948765" style="fill: #1f77b4; stroke: #1f77b4"/>
     <use xlink:href="#me973904f2a" x="389.851155" y="68.520858" style="fill: #1f77b4; stroke: #1f77b4"/>
     <use xlink:href="#me973904f2a" x="391.482585" y="68.565074" style="fill: #1f77b4; stroke: #1f77b4"/>
    </g>
   </g>
   <g id="line2d_11">
    <path d="M 66.82804 58.107718 
L 87.626729 57.21081 
L 106.800521 56.158963 
L 135.39872 54.52724 
L 140.923371 54.488379 
L 144.823126 54.671056 
L 148.072921 55.047815 
L 150.672757 55.570314 
L 152.947614 56.254888 
L 154.897491 57.067829 
L 156.522389 57.950292 
L 158.147286 59.065945 
L 159.772184 60.469225 
L 161.397082 62.226402 
L 162.697 63.939951 
L 163.996918 65.977825 
L 165.296836 68.392663 
L 166.596754 71.241507 
L 167.896672 74.583537 
L 169.19659 78.47607 
L 170.496508 82.968226 
L 172.121406 89.472443 
L 173.746303 96.954266 
L 175.696181 107.036536 
L 180.570874 133.106583 
L 181.870792 138.595268 
L 182.84573 141.848343 
L 183.820669 144.232679 
L 184.470628 145.309332 
L 185.120587 145.973233 
L 185.770546 146.23688 
L 186.420505 146.124283 
L 187.070464 145.668589 
L 187.720423 144.909178 
L 188.695362 143.294064 
L 189.99528 140.474556 
L 191.620177 136.301037 
L 197.794788 119.799628 
L 200.069645 114.584292 
L 202.344502 109.979897 
L 204.619358 105.947437 
L 206.894215 102.424625 
L 209.169072 99.344889 
L 211.443928 96.64569 
L 213.718785 94.271596 
L 216.318621 91.89558 
L 218.918457 89.822453 
L 221.843273 87.791628 
L 224.768089 86.026042 
L 228.017884 84.320907 
L 231.592659 82.701349 
L 235.492413 81.183216 
L 239.717147 79.774734 
L 244.59184 78.393154 
L 250.116492 77.076007 
L 256.291103 75.846775 
L 263.115673 74.717541 
L 270.915181 73.65153 
L 280.014608 72.635282 
L 290.738932 71.669481 
L 303.413134 70.76179 
L 318.362192 69.921456 
L 336.561046 69.131025 
L 358.659653 68.402771 
L 385.957933 67.732929 
L 391.482585 67.619817 
L 391.482585 67.619817 
" clip-path="url(#p3e9dcc6060)" style="fill: none; stroke: #d62728; stroke-width: 1.5; stroke-linecap: square"/>
   </g>
   <g id="patch_3">
    <path d="M 50.595313 162.72 
L 50.595313 41.76 
" style="fill: none; stroke: #000000; stroke-width: 0.8; stroke-linejoin: miter; stroke-linecap: square"/>
   </g>
   <g id="patch_4">
    <path d="M 407.715312 162.72 
L 407.715312 41.76 
" style="fill: none; stroke: #000000; stroke-width: 0.8; stroke-linejoin: miter; stroke-linecap: square"/>
   </g>
   <g id="patch_5">
    <path d="M 50.595313 162.72 
L 407.715313 162.72 
" style="fill: none; stroke: #000000; stroke-width: 0.8; stroke-linejoin: miter; stroke-linecap: square"/>
   </g>
   <g id="patch_6">
    <path d="M 50.595313 41.76 
L 407.715313 41.76 
" style="fill: none; stroke: #000000; stroke-width: 0.8; stroke-linejoin: miter; stroke-linecap: square"/>
   </g>
   <g id="text_5">
    <g id="patch_7">
     <path d="M 425.571312 95.079562 
L 570.571312 95.079562 
Q 574.571312 95.079562 574.571312 91.079562 
L 574.571312 47.808 
Q 574.571312 43.808 570.571312 43.808 
L 425.571312 43.808 
Q 421.571312 43.808 421.571312 47.808 
L 421.571312 91.079562 
Q 421.571312 95.079562 425.571312 95.079562 
z
" style="fill: #ffffff; opacity: 0.5; stroke: #000000; stroke-linejoin: miter"/>
    </g>
    <!-- Summary -->
    <g transform="translate(425.571312 55.406437) scale(0.1 -0.1)">
     <defs>
      <path id="DejaVuSans-53" d="M 3425 4513 
L 3425 3897 
Q 3066 4069 2747 4153 
Q 2428 4238 2131 4238 
Q 1616 4238 1336 4038 
Q 1056 3838 1056 3469 
Q 1056 3159 1242 3001 
Q 1428 2844 1947 2747 
L 2328 2669 
Q 3034 2534 3370 2195 
Q 3706 1856 3706 1288 
Q 3706 609 3251 259 
Q 2797 -91 1919 -91 
Q 1588 -91 1214 -16 
Q 841 59 441 206 
L 441 856 
Q 825 641 1194 531 
Q 1563 422 1919 422 
Q 2459 422 2753 634 
Q 3047 847 3047 1241 
Q 3047 1584 2836 1778 
Q 2625 1972 2144 2069 
L 1759 2144 
Q 1053 2284 737 2584 
Q 422 2884 422 3419 
Q 422 4038 858 4394 
Q 1294 4750 2059 4750 
Q 2388 4750 2728 4690 
Q 3069 4631 3425 4513 
z
" transform="scale(0.015625)"/>
      <path id="DejaVuSans-75" d="M 544 1381 
L 544 3500 
L 1119 3500 
L 1119 1403 
Q 1119 906 1312 657 
Q 1506 409 1894 409 
Q 2359 409 2629 706 
Q 2900 1003 2900 1516 
L 2900 3500 
L 3475 3500 
L 3475 0 
L 2900 0 
L 2900 538 
Q 2691 219 2414 64 
Q 2138 -91 1772 -91 
Q 1169 -91 856 284 
Q 544 659 544 1381 
z
M 1991 3584 
L 1991 3584 
z
" transform="scale(0.015625)"/>
      <path id="DejaVuSans-61" d="M 2194 1759 
Q 1497 1759 1228 1600 
Q 959 1441 959 1056 
Q 959 750 1161 570 
Q 1363 391 1709 391 
Q 2188 391 2477 730 
Q 2766 1069 2766 1631 
L 2766 1759 
L 2194 1759 
z
M 3341 1997 
L 3341 0 
L 2766 0 
L 2766 531 
Q 2569 213 2275 61 
Q 1981 -91 1556 -91 
Q 1019 -91 701 211 
Q 384 513 384 1019 
Q 384 1609 779 1909 
Q 1175 2209 1959 2209 
L 2766 2209 
L 2766 2266 
Q 2766 2663 2505 2880 
Q 2244 3097 1772 3097 
Q 1472 3097 1187 3025 
Q 903 2953 641 2809 
L 641 3341 
Q 956 3463 1253 3523 
Q 1550 3584 1831 3584 
Q 2591 3584 2966 3190 
Q 3341 2797 3341 1997 
z
" transform="scale(0.015625)"/>
      <path id="DejaVuSans-72" d="M 2631 2963 
Q 2534 3019 2420 3045 
Q 2306 3072 2169 3072 
Q 1681 3072 1420 2755 
Q 1159 2438 1159 1844 
L 1159 0 
L 581 0 
L 581 3500 
L 1159 3500 
L 1159 2956 
Q 1341 3275 1631 3429 
Q 1922 3584 2338 3584 
Q 2397 3584 2469 3576 
Q 2541 3569 2628 3553 
L 2631 2963 
z
" transform="scale(0.015625)"/>
      <path id="DejaVuSans-79" d="M 2059 -325 
Q 1816 -950 1584 -1140 
Q 1353 -1331 966 -1331 
L 506 -1331 
L 506 -850 
L 844 -850 
Q 1081 -850 1212 -737 
Q 1344 -625 1503 -206 
L 1606 56 
L 191 3500 
L 800 3500 
L 1894 763 
L 2988 3500 
L 3597 3500 
L 2059 -325 
z
" transform="scale(0.015625)"/>
     </defs>
     <use xlink:href="#DejaVuSans-53"/>
     <use xlink:href="#DejaVuSans-75" x="63.476562"/>
     <use xlink:href="#DejaVuSans-6d" x="126.855469"/>
     <use xlink:href="#DejaVuSans-6d" x="224.267578"/>
     <use xlink:href="#DejaVuSans-61" x="321.679688"/>
     <use xlink:href="#DejaVuSans-72" x="382.958984"/>
     <use xlink:href="#DejaVuSans-79" x="424.072266"/>
    </g>
    <!-- $Q_I$: 11.79$\pm$0.33 k -->
    <g transform="translate(425.571312 66.60425) scale(0.1 -0.1)">
     <defs>
      <path id="DejaVuSans-Oblique-51" d="M 2309 -84 
Q 2275 -88 2237 -89 
Q 2200 -91 2125 -91 
Q 1250 -91 756 411 
Q 263 913 263 1797 
Q 263 2319 452 2844 
Q 641 3369 978 3788 
Q 1369 4269 1858 4509 
Q 2347 4750 2938 4750 
Q 3794 4750 4287 4245 
Q 4781 3741 4781 2869 
Q 4781 1928 4265 1147 
Q 3750 366 2919 44 
L 3553 -825 
L 2847 -825 
L 2309 -84 
z
M 2919 4238 
Q 2400 4238 2003 3986 
Q 1606 3734 1313 3219 
Q 1125 2891 1026 2522 
Q 928 2153 928 1778 
Q 928 1128 1239 775 
Q 1550 422 2119 422 
Q 2631 422 3032 676 
Q 3434 931 3719 1434 
Q 3909 1772 4009 2142 
Q 4109 2513 4109 2881 
Q 4109 3528 3796 3883 
Q 3484 4238 2919 4238 
z
" transform="scale(0.015625)"/>
      <path id="DejaVuSans-Oblique-49" d="M 1081 4666 
L 1716 4666 
L 806 0 
L 172 0 
L 1081 4666 
z
" transform="scale(0.015625)"/>
      <path id="DejaVuSans-3a" d="M 750 794 
L 1409 794 
L 1409 0 
L 750 0 
L 750 794 
z
M 750 3309 
L 1409 3309 
L 1409 2516 
L 750 2516 
L 750 3309 
z
" transform="scale(0.015625)"/>
      <path id="DejaVuSans-37" d="M 525 4666 
L 3525 4666 
L 3525 4397 
L 1831 0 
L 1172 0 
L 2766 4134 
L 525 4134 
L 525 4666 
z
" transform="scale(0.015625)"/>
      <path id="DejaVuSans-39" d="M 703 97 
L 703 672 
Q 941 559 1184 500 
Q 1428 441 1663 441 
Q 2288 441 2617 861 
Q 2947 1281 2994 2138 
Q 2813 1869 2534 1725 
Q 2256 1581 1919 1581 
Q 1219 1581 811 2004 
Q 403 2428 403 3163 
Q 403 3881 828 4315 
Q 1253 4750 1959 4750 
Q 2769 4750 3195 4129 
Q 3622 3509 3622 2328 
Q 3622 1225 3098 567 
Q 2575 -91 1691 -91 
Q 1453 -91 1209 -44 
Q 966 3 703 97 
z
M 1959 2075 
Q 2384 2075 2632 2365 
Q 2881 2656 2881 3163 
Q 2881 3666 2632 3958 
Q 2384 4250 1959 4250 
Q 1534 4250 1286 3958 
Q 1038 3666 1038 3163 
Q 1038 2656 1286 2365 
Q 1534 2075 1959 2075 
z
" transform="scale(0.015625)"/>
      <path id="DejaVuSans-b1" d="M 2944 4013 
L 2944 2803 
L 4684 2803 
L 4684 2272 
L 2944 2272 
L 2944 1063 
L 2419 1063 
L 2419 2272 
L 678 2272 
L 678 2803 
L 2419 2803 
L 2419 4013 
L 2944 4013 
z
M 678 531 
L 4684 531 
L 4684 0 
L 678 0 
L 678 531 
z
" transform="scale(0.015625)"/>
      <path id="DejaVuSans-30" d="M 2034 4250 
Q 1547 4250 1301 3770 
Q 1056 3291 1056 2328 
Q 1056 1369 1301 889 
Q 1547 409 2034 409 
Q 2525 409 2770 889 
Q 3016 1369 3016 2328 
Q 3016 3291 2770 3770 
Q 2525 4250 2034 4250 
z
M 2034 4750 
Q 2819 4750 3233 4129 
Q 3647 3509 3647 2328 
Q 3647 1150 3233 529 
Q 2819 -91 2034 -91 
Q 1250 -91 836 529 
Q 422 1150 422 2328 
Q 422 3509 836 4129 
Q 1250 4750 2034 4750 
z
" transform="scale(0.015625)"/>
      <path id="DejaVuSans-33" d="M 2597 2516 
Q 3050 2419 3304 2112 
Q 3559 1806 3559 1356 
Q 3559 666 3084 287 
Q 2609 -91 1734 -91 
Q 1441 -91 1130 -33 
Q 819 25 488 141 
L 488 750 
Q 750 597 1062 519 
Q 1375 441 1716 441 
Q 2309 441 2620 675 
Q 2931 909 2931 1356 
Q 2931 1769 2642 2001 
Q 2353 2234 1838 2234 
L 1294 2234 
L 1294 2753 
L 1863 2753 
Q 2328 2753 2575 2939 
Q 2822 3125 2822 3475 
Q 2822 3834 2567 4026 
Q 2313 4219 1838 4219 
Q 1578 4219 1281 4162 
Q 984 4106 628 3988 
L 628 4550 
Q 988 4650 1302 4700 
Q 1616 4750 1894 4750 
Q 2613 4750 3031 4423 
Q 3450 4097 3450 3541 
Q 3450 3153 3228 2886 
Q 3006 2619 2597 2516 
z
" transform="scale(0.015625)"/>
      <path id="DejaVuSans-6b" d="M 581 4863 
L 1159 4863 
L 1159 1991 
L 2875 3500 
L 3609 3500 
L 1753 1863 
L 3688 0 
L 2938 0 
L 1159 1709 
L 1159 0 
L 581 0 
L 581 4863 
z
" transform="scale(0.015625)"/>
     </defs>
     <use xlink:href="#DejaVuSans-Oblique-51" transform="translate(0 0.015625)"/>
     <use xlink:href="#DejaVuSans-Oblique-49" transform="translate(78.710938 -16.390625) scale(0.7)"/>
     <use xlink:href="#DejaVuSans-3a" transform="translate(102.089844 0.015625)"/>
     <use xlink:href="#DejaVuSans-20" transform="translate(135.78125 0.015625)"/>
     <use xlink:href="#DejaVuSans-31" transform="translate(167.568359 0.015625)"/>
     <use xlink:href="#DejaVuSans-31" transform="translate(231.191406 0.015625)"/>
     <use xlink:href="#DejaVuSans-2e" transform="translate(294.814453 0.015625)"/>
     <use xlink:href="#DejaVuSans-37" transform="translate(318.851562 0.015625)"/>
     <use xlink:href="#DejaVuSans-39" transform="translate(382.474609 0.015625)"/>
     <use xlink:href="#DejaVuSans-b1" transform="translate(446.097656 0.015625)"/>
     <use xlink:href="#DejaVuSans-30" transform="translate(529.886719 0.015625)"/>
     <use xlink:href="#DejaVuSans-2e" transform="translate(593.509766 0.015625)"/>
     <use xlink:href="#DejaVuSans-33" transform="translate(625.296875 0.015625)"/>
     <use xlink:href="#DejaVuSans-33" transform="translate(688.919922 0.015625)"/>
     <use xlink:href="#DejaVuSans-20" transform="translate(752.542969 0.015625)"/>
     <use xlink:href="#DejaVuSans-6b" transform="translate(784.330078 0.015625)"/>
    </g>
    <!-- $Q_C$: 11.42$\pm$0.20 k -->
    <g transform="translate(425.571312 77.802062) scale(0.1 -0.1)">
     <defs>
      <path id="DejaVuSans-Oblique-43" d="M 4447 4306 
L 4319 3641 
Q 4019 3944 3683 4091 
Q 3347 4238 2956 4238 
Q 2422 4238 2017 3981 
Q 1613 3725 1319 3200 
Q 1131 2863 1032 2486 
Q 934 2109 934 1728 
Q 934 1091 1264 756 
Q 1594 422 2222 422 
Q 2656 422 3056 561 
Q 3456 700 3834 978 
L 3688 231 
Q 3316 72 2936 -9 
Q 2556 -91 2175 -91 
Q 1278 -91 773 396 
Q 269 884 269 1753 
Q 269 2309 461 2846 
Q 653 3384 1013 3828 
Q 1394 4300 1883 4525 
Q 2372 4750 3022 4750 
Q 3422 4750 3780 4639 
Q 4138 4528 4447 4306 
z
" transform="scale(0.015625)"/>
      <path id="DejaVuSans-34" d="M 2419 4116 
L 825 1625 
L 2419 1625 
L 2419 4116 
z
M 2253 4666 
L 3047 4666 
L 3047 1625 
L 3713 1625 
L 3713 1100 
L 3047 1100 
L 3047 0 
L 2419 0 
L 2419 1100 
L 313 1100 
L 313 1709 
L 2253 4666 
z
" transform="scale(0.015625)"/>
     </defs>
     <use xlink:href="#DejaVuSans-Oblique-51" transform="translate(0 0.015625)"/>
     <use xlink:href="#DejaVuSans-Oblique-43" transform="translate(78.710938 -16.390625) scale(0.7)"/>
     <use xlink:href="#DejaVuSans-3a" transform="translate(130.322266 0.015625)"/>
     <use xlink:href="#DejaVuSans-20" transform="translate(164.013672 0.015625)"/>
     <use xlink:href="#DejaVuSans-31" transform="translate(195.800781 0.015625)"/>
     <use xlink:href="#DejaVuSans-31" transform="translate(259.423828 0.015625)"/>
     <use xlink:href="#DejaVuSans-2e" transform="translate(323.046875 0.015625)"/>
     <use xlink:href="#DejaVuSans-34" transform="translate(354.833984 0.015625)"/>
     <use xlink:href="#DejaVuSans-32" transform="translate(418.457031 0.015625)"/>
     <use xlink:href="#DejaVuSans-b1" transform="translate(482.080078 0.015625)"/>
     <use xlink:href="#DejaVuSans-30" transform="translate(565.869141 0.015625)"/>
     <use xlink:href="#DejaVuSans-2e" transform="translate(629.492188 0.015625)"/>
     <use xlink:href="#DejaVuSans-32" transform="translate(655.779297 0.015625)"/>
     <use xlink:href="#DejaVuSans-30" transform="translate(719.402344 0.015625)"/>
     <use xlink:href="#DejaVuSans-20" transform="translate(783.025391 0.015625)"/>
     <use xlink:href="#DejaVuSans-6b" transform="translate(814.8125 0.015625)"/>
    </g>
    <!-- $f_{res}$: 5.7198223$\pm$9.3e-06 GHz -->
    <g transform="translate(425.571312 88.999875) scale(0.1 -0.1)">
     <defs>
      <path id="DejaVuSans-Oblique-66" d="M 3059 4863 
L 2969 4384 
L 2419 4384 
Q 2106 4384 1964 4261 
Q 1822 4138 1753 3809 
L 1691 3500 
L 2638 3500 
L 2553 3053 
L 1606 3053 
L 1013 0 
L 434 0 
L 1031 3053 
L 481 3053 
L 563 3500 
L 1113 3500 
L 1159 3744 
Q 1278 4363 1576 4613 
Q 1875 4863 2516 4863 
L 3059 4863 
z
" transform="scale(0.015625)"/>
      <path id="DejaVuSans-Oblique-72" d="M 2853 2969 
Q 2766 3016 2653 3041 
Q 2541 3066 2413 3066 
Q 1953 3066 1609 2717 
Q 1266 2369 1153 1784 
L 800 0 
L 225 0 
L 909 3500 
L 1484 3500 
L 1375 2956 
Q 1603 3259 1920 3421 
Q 2238 3584 2597 3584 
Q 2691 3584 2781 3573 
Q 2872 3563 2963 3538 
L 2853 2969 
z
" transform="scale(0.015625)"/>
      <path id="DejaVuSans-Oblique-65" d="M 3078 2063 
Q 3088 2113 3092 2166 
Q 3097 2219 3097 2272 
Q 3097 2653 2873 2875 
Q 2650 3097 2266 3097 
Q 1838 3097 1509 2826 
Q 1181 2556 1013 2059 
L 3078 2063 
z
M 3578 1613 
L 903 1613 
Q 884 1494 878 1425 
Q 872 1356 872 1306 
Q 872 872 1139 634 
Q 1406 397 1894 397 
Q 2269 397 2603 481 
Q 2938 566 3225 728 
L 3116 159 
Q 2806 34 2476 -28 
Q 2147 -91 1806 -91 
Q 1078 -91 686 257 
Q 294 606 294 1247 
Q 294 1794 489 2264 
Q 684 2734 1063 3103 
Q 1306 3334 1642 3459 
Q 1978 3584 2356 3584 
Q 2950 3584 3301 3228 
Q 3653 2872 3653 2272 
Q 3653 2128 3634 1964 
Q 3616 1800 3578 1613 
z
" transform="scale(0.015625)"/>
      <path id="DejaVuSans-Oblique-73" d="M 3200 3397 
L 3091 2853 
Q 2863 2978 2609 3040 
Q 2356 3103 2088 3103 
Q 1634 3103 1373 2948 
Q 1113 2794 1113 2528 
Q 1113 2219 1719 2053 
Q 1766 2041 1788 2034 
L 1972 1978 
Q 2547 1819 2739 1644 
Q 2931 1469 2931 1166 
Q 2931 609 2489 259 
Q 2047 -91 1331 -91 
Q 1053 -91 747 -37 
Q 441 16 72 128 
L 184 722 
Q 500 559 806 475 
Q 1113 391 1394 391 
Q 1816 391 2080 572 
Q 2344 753 2344 1031 
Q 2344 1331 1650 1516 
L 1591 1531 
L 1394 1581 
Q 956 1697 753 1886 
Q 550 2075 550 2369 
Q 550 2928 970 3256 
Q 1391 3584 2113 3584 
Q 2397 3584 2667 3537 
Q 2938 3491 3200 3397 
z
" transform="scale(0.015625)"/>
      <path id="DejaVuSans-38" d="M 2034 2216 
Q 1584 2216 1326 1975 
Q 1069 1734 1069 1313 
Q 1069 891 1326 650 
Q 1584 409 2034 409 
Q 2484 409 2743 651 
Q 3003 894 3003 1313 
Q 3003 1734 2745 1975 
Q 2488 2216 2034 2216 
z
M 1403 2484 
Q 997 2584 770 2862 
Q 544 3141 544 3541 
Q 544 4100 942 4425 
Q 1341 4750 2034 4750 
Q 2731 4750 3128 4425 
Q 3525 4100 3525 3541 
Q 3525 3141 3298 2862 
Q 3072 2584 2669 2484 
Q 3125 2378 3379 2068 
Q 3634 1759 3634 1313 
Q 3634 634 3220 271 
Q 2806 -91 2034 -91 
Q 1263 -91 848 271 
Q 434 634 434 1313 
Q 434 1759 690 2068 
Q 947 2378 1403 2484 
z
M 1172 3481 
Q 1172 3119 1398 2916 
Q 1625 2713 2034 2713 
Q 2441 2713 2670 2916 
Q 2900 3119 2900 3481 
Q 2900 3844 2670 4047 
Q 2441 4250 2034 4250 
Q 1625 4250 1398 4047 
Q 1172 3844 1172 3481 
z
" transform="scale(0.015625)"/>
      <path id="DejaVuSans-65" d="M 3597 1894 
L 3597 1613 
L 953 1613 
Q 991 1019 1311 708 
Q 1631 397 2203 397 
Q 2534 397 2845 478 
Q 3156 559 3463 722 
L 3463 178 
Q 3153 47 2828 -22 
Q 2503 -91 2169 -91 
Q 1331 -91 842 396 
Q 353 884 353 1716 
Q 353 2575 817 3079 
Q 1281 3584 2069 3584 
Q 2775 3584 3186 3129 
Q 3597 2675 3597 1894 
z
M 3022 2063 
Q 3016 2534 2758 2815 
Q 2500 3097 2075 3097 
Q 1594 3097 1305 2825 
Q 1016 2553 972 2059 
L 3022 2063 
z
" transform="scale(0.015625)"/>
      <path id="DejaVuSans-2d" d="M 313 2009 
L 1997 2009 
L 1997 1497 
L 313 1497 
L 313 2009 
z
" transform="scale(0.015625)"/>
      <path id="DejaVuSans-36" d="M 2113 2584 
Q 1688 2584 1439 2293 
Q 1191 2003 1191 1497 
Q 1191 994 1439 701 
Q 1688 409 2113 409 
Q 2538 409 2786 701 
Q 3034 994 3034 1497 
Q 3034 2003 2786 2293 
Q 2538 2584 2113 2584 
z
M 3366 4563 
L 3366 3988 
Q 3128 4100 2886 4159 
Q 2644 4219 2406 4219 
Q 1781 4219 1451 3797 
Q 1122 3375 1075 2522 
Q 1259 2794 1537 2939 
Q 1816 3084 2150 3084 
Q 2853 3084 3261 2657 
Q 3669 2231 3669 1497 
Q 3669 778 3244 343 
Q 2819 -91 2113 -91 
Q 1303 -91 875 529 
Q 447 1150 447 2328 
Q 447 3434 972 4092 
Q 1497 4750 2381 4750 
Q 2619 4750 2861 4703 
Q 3103 4656 3366 4563 
z
" transform="scale(0.015625)"/>
      <path id="DejaVuSans-47" d="M 3809 666 
L 3809 1919 
L 2778 1919 
L 2778 2438 
L 4434 2438 
L 4434 434 
Q 4069 175 3628 42 
Q 3188 -91 2688 -91 
Q 1594 -91 976 548 
Q 359 1188 359 2328 
Q 359 3472 976 4111 
Q 1594 4750 2688 4750 
Q 3144 4750 3555 4637 
Q 3966 4525 4313 4306 
L 4313 3634 
Q 3963 3931 3569 4081 
Q 3175 4231 2741 4231 
Q 1884 4231 1454 3753 
Q 1025 3275 1025 2328 
Q 1025 1384 1454 906 
Q 1884 428 2741 428 
Q 3075 428 3337 486 
Q 3600 544 3809 666 
z
" transform="scale(0.015625)"/>
      <path id="DejaVuSans-48" d="M 628 4666 
L 1259 4666 
L 1259 2753 
L 3553 2753 
L 3553 4666 
L 4184 4666 
L 4184 0 
L 3553 0 
L 3553 2222 
L 1259 2222 
L 1259 0 
L 628 0 
L 628 4666 
z
" transform="scale(0.015625)"/>
      <path id="DejaVuSans-7a" d="M 353 3500 
L 3084 3500 
L 3084 2975 
L 922 459 
L 3084 459 
L 3084 0 
L 275 0 
L 275 525 
L 2438 3041 
L 353 3041 
L 353 3500 
z
" transform="scale(0.015625)"/>
     </defs>
     <use xlink:href="#DejaVuSans-Oblique-66" transform="translate(0 0.015625)"/>
     <use xlink:href="#DejaVuSans-Oblique-72" transform="translate(35.205078 -16.390625) scale(0.7)"/>
     <use xlink:href="#DejaVuSans-Oblique-65" transform="translate(63.984375 -16.390625) scale(0.7)"/>
     <use xlink:href="#DejaVuSans-Oblique-73" transform="translate(107.050781 -16.390625) scale(0.7)"/>
     <use xlink:href="#DejaVuSans-3a" transform="translate(146.254883 0.015625)"/>
     <use xlink:href="#DejaVuSans-20" transform="translate(179.946289 0.015625)"/>
     <use xlink:href="#DejaVuSans-35" transform="translate(211.733398 0.015625)"/>
     <use xlink:href="#DejaVuSans-2e" transform="translate(275.356445 0.015625)"/>
     <use xlink:href="#DejaVuSans-37" transform="translate(299.393555 0.015625)"/>
     <use xlink:href="#DejaVuSans-31" transform="translate(363.016602 0.015625)"/>
     <use xlink:href="#DejaVuSans-39" transform="translate(426.639648 0.015625)"/>
     <use xlink:href="#DejaVuSans-38" transform="translate(490.262695 0.015625)"/>
     <use xlink:href="#DejaVuSans-32" transform="translate(553.885742 0.015625)"/>
     <use xlink:href="#DejaVuSans-32" transform="translate(617.508789 0.015625)"/>
     <use xlink:href="#DejaVuSans-33" transform="translate(681.131836 0.015625)"/>
     <use xlink:href="#DejaVuSans-b1" transform="translate(744.754883 0.015625)"/>
     <use xlink:href="#DejaVuSans-39" transform="translate(828.543945 0.015625)"/>
     <use xlink:href="#DejaVuSans-2e" transform="translate(892.166992 0.015625)"/>
     <use xlink:href="#DejaVuSans-33" transform="translate(923.954102 0.015625)"/>
     <use xlink:href="#DejaVuSans-65" transform="translate(987.577148 0.015625)"/>
     <use xlink:href="#DejaVuSans-2d" transform="translate(1049.100586 0.015625)"/>
     <use xlink:href="#DejaVuSans-30" transform="translate(1085.18457 0.015625)"/>
     <use xlink:href="#DejaVuSans-36" transform="translate(1148.807617 0.015625)"/>
     <use xlink:href="#DejaVuSans-20" transform="translate(1212.430664 0.015625)"/>
     <use xlink:href="#DejaVuSans-47" transform="translate(1244.217773 0.015625)"/>
     <use xlink:href="#DejaVuSans-48" transform="translate(1321.708008 0.015625)"/>
     <use xlink:href="#DejaVuSans-7a" transform="translate(1396.90332 0.015625)"/>
    </g>
   </g>
  </g>
  <g id="axes_2">
   <g id="patch_8">
    <path d="M 50.595313 307.872 
L 407.715312 307.872 
L 407.715312 186.912 
L 50.595313 186.912 
z
" style="fill: #ffffff"/>
   </g>
   <g id="matplotlib.axis_3">
    <g id="xtick_7">
     <g id="line2d_12">
      <g>
       <use xlink:href="#m9d7fae019c" x="55.465131" y="307.872" style="stroke: #000000; stroke-width: 0.8"/>
      </g>
     </g>
     <g id="text_6">
      <!-- 716 -->
      <g transform="translate(45.921381 322.470438) scale(0.1 -0.1)">
       <use xlink:href="#DejaVuSans-37"/>
       <use xlink:href="#DejaVuSans-31" x="63.623047"/>
       <use xlink:href="#DejaVuSans-36" x="127.246094"/>
      </g>
     </g>
    </g>
    <g id="xtick_8">
     <g id="line2d_13">
      <g>
       <use xlink:href="#m9d7fae019c" x="120.39604" y="307.872" style="stroke: #000000; stroke-width: 0.8"/>
      </g>
     </g>
     <g id="text_7">
      <!-- 718 -->
      <g transform="translate(110.85229 322.470438) scale(0.1 -0.1)">
       <use xlink:href="#DejaVuSans-37"/>
       <use xlink:href="#DejaVuSans-31" x="63.623047"/>
       <use xlink:href="#DejaVuSans-38" x="127.246094"/>
      </g>
     </g>
    </g>
    <g id="xtick_9">
     <g id="line2d_14">
      <g>
       <use xlink:href="#m9d7fae019c" x="185.326949" y="307.872" style="stroke: #000000; stroke-width: 0.8"/>
      </g>
     </g>
     <g id="text_8">
      <!-- 720 -->
      <g transform="translate(175.783199 322.470438) scale(0.1 -0.1)">
       <use xlink:href="#DejaVuSans-37"/>
       <use xlink:href="#DejaVuSans-32" x="63.623047"/>
       <use xlink:href="#DejaVuSans-30" x="127.246094"/>
      </g>
     </g>
    </g>
    <g id="xtick_10">
     <g id="line2d_15">
      <g>
       <use xlink:href="#m9d7fae019c" x="250.257858" y="307.872" style="stroke: #000000; stroke-width: 0.8"/>
      </g>
     </g>
     <g id="text_9">
      <!-- 722 -->
      <g transform="translate(240.714108 322.470438) scale(0.1 -0.1)">
       <use xlink:href="#DejaVuSans-37"/>
       <use xlink:href="#DejaVuSans-32" x="63.623047"/>
       <use xlink:href="#DejaVuSans-32" x="127.246094"/>
      </g>
     </g>
    </g>
    <g id="xtick_11">
     <g id="line2d_16">
      <g>
       <use xlink:href="#m9d7fae019c" x="315.188767" y="307.872" style="stroke: #000000; stroke-width: 0.8"/>
      </g>
     </g>
     <g id="text_10">
      <!-- 724 -->
      <g transform="translate(305.645017 322.470438) scale(0.1 -0.1)">
       <use xlink:href="#DejaVuSans-37"/>
       <use xlink:href="#DejaVuSans-32" x="63.623047"/>
       <use xlink:href="#DejaVuSans-34" x="127.246094"/>
      </g>
     </g>
    </g>
    <g id="xtick_12">
     <g id="line2d_17">
      <g>
       <use xlink:href="#m9d7fae019c" x="380.119676" y="307.872" style="stroke: #000000; stroke-width: 0.8"/>
      </g>
     </g>
     <g id="text_11">
      <!-- 726 -->
      <g transform="translate(370.575926 322.470438) scale(0.1 -0.1)">
       <use xlink:href="#DejaVuSans-37"/>
       <use xlink:href="#DejaVuSans-32" x="63.623047"/>
       <use xlink:href="#DejaVuSans-36" x="127.246094"/>
      </g>
     </g>
    </g>
    <g id="text_12">
     <!-- Frequency [MHz] -->
     <g transform="translate(187.136562 336.148562) scale(0.1 -0.1)">
      <defs>
       <path id="DejaVuSans-46" d="M 628 4666 
L 3309 4666 
L 3309 4134 
L 1259 4134 
L 1259 2759 
L 3109 2759 
L 3109 2228 
L 1259 2228 
L 1259 0 
L 628 0 
L 628 4666 
z
" transform="scale(0.015625)"/>
       <path id="DejaVuSans-71" d="M 947 1747 
Q 947 1113 1208 752 
Q 1469 391 1925 391 
Q 2381 391 2643 752 
Q 2906 1113 2906 1747 
Q 2906 2381 2643 2742 
Q 2381 3103 1925 3103 
Q 1469 3103 1208 2742 
Q 947 2381 947 1747 
z
M 2906 525 
Q 2725 213 2448 61 
Q 2172 -91 1784 -91 
Q 1150 -91 751 415 
Q 353 922 353 1747 
Q 353 2572 751 3078 
Q 1150 3584 1784 3584 
Q 2172 3584 2448 3432 
Q 2725 3281 2906 2969 
L 2906 3500 
L 3481 3500 
L 3481 -1331 
L 2906 -1331 
L 2906 525 
z
" transform="scale(0.015625)"/>
       <path id="DejaVuSans-6e" d="M 3513 2113 
L 3513 0 
L 2938 0 
L 2938 2094 
Q 2938 2591 2744 2837 
Q 2550 3084 2163 3084 
Q 1697 3084 1428 2787 
Q 1159 2491 1159 1978 
L 1159 0 
L 581 0 
L 581 3500 
L 1159 3500 
L 1159 2956 
Q 1366 3272 1645 3428 
Q 1925 3584 2291 3584 
Q 2894 3584 3203 3211 
Q 3513 2838 3513 2113 
z
" transform="scale(0.015625)"/>
       <path id="DejaVuSans-63" d="M 3122 3366 
L 3122 2828 
Q 2878 2963 2633 3030 
Q 2388 3097 2138 3097 
Q 1578 3097 1268 2742 
Q 959 2388 959 1747 
Q 959 1106 1268 751 
Q 1578 397 2138 397 
Q 2388 397 2633 464 
Q 2878 531 3122 666 
L 3122 134 
Q 2881 22 2623 -34 
Q 2366 -91 2075 -91 
Q 1284 -91 818 406 
Q 353 903 353 1747 
Q 353 2603 823 3093 
Q 1294 3584 2113 3584 
Q 2378 3584 2631 3529 
Q 2884 3475 3122 3366 
z
" transform="scale(0.015625)"/>
       <path id="DejaVuSans-4d" d="M 628 4666 
L 1569 4666 
L 2759 1491 
L 3956 4666 
L 4897 4666 
L 4897 0 
L 4281 0 
L 4281 4097 
L 3078 897 
L 2444 897 
L 1241 4097 
L 1241 0 
L 628 0 
L 628 4666 
z
" transform="scale(0.015625)"/>
      </defs>
      <use xlink:href="#DejaVuSans-46"/>
      <use xlink:href="#DejaVuSans-72" x="50.269531"/>
      <use xlink:href="#DejaVuSans-65" x="89.132812"/>
      <use xlink:href="#DejaVuSans-71" x="150.65625"/>
      <use xlink:href="#DejaVuSans-75" x="214.132812"/>
      <use xlink:href="#DejaVuSans-65" x="277.511719"/>
      <use xlink:href="#DejaVuSans-6e" x="339.035156"/>
      <use xlink:href="#DejaVuSans-63" x="402.414062"/>
      <use xlink:href="#DejaVuSans-79" x="457.394531"/>
      <use xlink:href="#DejaVuSans-20" x="516.574219"/>
      <use xlink:href="#DejaVuSans-5b" x="548.361328"/>
      <use xlink:href="#DejaVuSans-4d" x="587.375"/>
      <use xlink:href="#DejaVuSans-48" x="673.654297"/>
      <use xlink:href="#DejaVuSans-7a" x="748.849609"/>
      <use xlink:href="#DejaVuSans-5d" x="801.339844"/>
     </g>
    </g>
    <g id="text_13">
     <!-- +5 GHz -->
     <g transform="translate(369.277812 335.148562) scale(0.1 -0.1)">
      <defs>
       <path id="DejaVuSans-2b" d="M 2944 4013 
L 2944 2272 
L 4684 2272 
L 4684 1741 
L 2944 1741 
L 2944 0 
L 2419 0 
L 2419 1741 
L 678 1741 
L 678 2272 
L 2419 2272 
L 2419 4013 
L 2944 4013 
z
" transform="scale(0.015625)"/>
      </defs>
      <use xlink:href="#DejaVuSans-2b"/>
      <use xlink:href="#DejaVuSans-35" x="83.789062"/>
      <use xlink:href="#DejaVuSans-20" x="147.412109"/>
      <use xlink:href="#DejaVuSans-47" x="179.199219"/>
      <use xlink:href="#DejaVuSans-48" x="256.689453"/>
      <use xlink:href="#DejaVuSans-7a" x="331.884766"/>
     </g>
    </g>
   </g>
   <g id="matplotlib.axis_4">
    <g id="ytick_4">
     <g id="line2d_18">
      <g>
       <use xlink:href="#m8c12fb484a" x="50.595313" y="277.948758" style="stroke: #000000; stroke-width: 0.8"/>
      </g>
     </g>
     <g id="text_14">
      <!-- -100 -->
      <g transform="translate(20.9 281.747977) scale(0.1 -0.1)">
       <use xlink:href="#DejaVuSans-2d"/>
       <use xlink:href="#DejaVuSans-31" x="36.083984"/>
       <use xlink:href="#DejaVuSans-30" x="99.707031"/>
       <use xlink:href="#DejaVuSans-30" x="163.330078"/>
      </g>
     </g>
    </g>
    <g id="ytick_5">
     <g id="line2d_19">
      <g>
       <use xlink:href="#m8c12fb484a" x="50.595313" y="247.398827" style="stroke: #000000; stroke-width: 0.8"/>
      </g>
     </g>
     <g id="text_15">
      <!-- 0 -->
      <g transform="translate(37.232813 251.198046) scale(0.1 -0.1)">
       <use xlink:href="#DejaVuSans-30"/>
      </g>
     </g>
    </g>
    <g id="ytick_6">
     <g id="line2d_20">
      <g>
       <use xlink:href="#m8c12fb484a" x="50.595313" y="216.848896" style="stroke: #000000; stroke-width: 0.8"/>
      </g>
     </g>
     <g id="text_16">
      <!-- 100 -->
      <g transform="translate(24.507813 220.648115) scale(0.1 -0.1)">
       <use xlink:href="#DejaVuSans-31"/>
       <use xlink:href="#DejaVuSans-30" x="63.623047"/>
       <use xlink:href="#DejaVuSans-30" x="127.246094"/>
      </g>
     </g>
    </g>
    <g id="text_17">
     <!-- $\angle S_{21}$ [deg] -->
     <g transform="translate(14.8 274.592) rotate(-90) scale(0.1 -0.1)">
      <defs>
       <path id="DejaVuSans-2220" d="M 5028 631 
L 5028 0 
L 547 0 
L 3525 4666 
L 4281 4666 
L 1716 631 
L 5028 631 
z
" transform="scale(0.015625)"/>
       <path id="DejaVuSans-64" d="M 2906 2969 
L 2906 4863 
L 3481 4863 
L 3481 0 
L 2906 0 
L 2906 525 
Q 2725 213 2448 61 
Q 2172 -91 1784 -91 
Q 1150 -91 751 415 
Q 353 922 353 1747 
Q 353 2572 751 3078 
Q 1150 3584 1784 3584 
Q 2172 3584 2448 3432 
Q 2725 3281 2906 2969 
z
M 947 1747 
Q 947 1113 1208 752 
Q 1469 391 1925 391 
Q 2381 391 2643 752 
Q 2906 1113 2906 1747 
Q 2906 2381 2643 2742 
Q 2381 3103 1925 3103 
Q 1469 3103 1208 2742 
Q 947 2381 947 1747 
z
" transform="scale(0.015625)"/>
       <path id="DejaVuSans-67" d="M 2906 1791 
Q 2906 2416 2648 2759 
Q 2391 3103 1925 3103 
Q 1463 3103 1205 2759 
Q 947 2416 947 1791 
Q 947 1169 1205 825 
Q 1463 481 1925 481 
Q 2391 481 2648 825 
Q 2906 1169 2906 1791 
z
M 3481 434 
Q 3481 -459 3084 -895 
Q 2688 -1331 1869 -1331 
Q 1566 -1331 1297 -1286 
Q 1028 -1241 775 -1147 
L 775 -588 
Q 1028 -725 1275 -790 
Q 1522 -856 1778 -856 
Q 2344 -856 2625 -561 
Q 2906 -266 2906 331 
L 2906 616 
Q 2728 306 2450 153 
Q 2172 0 1784 0 
Q 1141 0 747 490 
Q 353 981 353 1791 
Q 353 2603 747 3093 
Q 1141 3584 1784 3584 
Q 2172 3584 2450 3431 
Q 2728 3278 2906 2969 
L 2906 3500 
L 3481 3500 
L 3481 434 
z
" transform="scale(0.015625)"/>
      </defs>
      <use xlink:href="#DejaVuSans-2220" transform="translate(0 0.015625)"/>
      <use xlink:href="#DejaVuSans-Oblique-53" transform="translate(89.648438 0.015625)"/>
      <use xlink:href="#DejaVuSans-32" transform="translate(153.125 -16.390625) scale(0.7)"/>
      <use xlink:href="#DejaVuSans-31" transform="translate(197.661133 -16.390625) scale(0.7)"/>
      <use xlink:href="#DejaVuSans-20" transform="translate(244.931641 0.015625)"/>
      <use xlink:href="#DejaVuSans-5b" transform="translate(276.71875 0.015625)"/>
      <use xlink:href="#DejaVuSans-64" transform="translate(315.732422 0.015625)"/>
      <use xlink:href="#DejaVuSans-65" transform="translate(379.208984 0.015625)"/>
      <use xlink:href="#DejaVuSans-67" transform="translate(440.732422 0.015625)"/>
      <use xlink:href="#DejaVuSans-5d" transform="translate(504.208984 0.015625)"/>
     </g>
    </g>
   </g>
   <g id="line2d_21">
    <path d="M 66.82804 296.663739 
L 68.45947 297.30351 
L 70.0909 296.726674 
L 71.722329 297.664249 
L 73.353759 297.032244 
L 74.985189 297.730386 
L 76.616619 298.168955 
L 78.248049 297.332836 
L 79.879479 298.568052 
L 81.510909 297.941941 
L 83.142339 298.268594 
L 84.773768 297.672277 
L 86.405198 298.42767 
L 88.036628 297.941954 
L 89.668058 298.021504 
L 91.299488 297.350092 
L 92.930918 298.069586 
L 94.562348 297.91967 
L 96.193778 298.722667 
L 97.825207 298.062713 
L 99.456637 298.564111 
L 101.088067 299.274598 
L 102.719497 298.330689 
L 104.350927 299.401617 
L 105.982357 299.861869 
L 107.613787 299.743182 
L 109.245217 298.795723 
L 110.876646 298.886316 
L 112.508076 299.11486 
L 114.139506 299.098095 
L 115.770936 300.335771 
L 119.033796 299.964965 
L 120.665226 300.763847 
L 122.296656 299.58102 
L 123.928085 300.801419 
L 125.559515 300.856295 
L 127.190945 300.63634 
L 130.453805 300.528477 
L 132.085235 300.891729 
L 133.716665 301.037642 
L 135.348095 301.570449 
L 136.979524 301.974717 
L 138.610954 301.64486 
L 140.242384 302.263887 
L 141.873814 302.040224 
L 143.505244 302.221284 
L 145.136674 192.785829 
L 146.768104 192.724383 
L 148.399534 193.611444 
L 150.030963 193.676919 
L 151.662393 194.283771 
L 153.293823 193.768384 
L 154.925253 194.792902 
L 156.556683 194.891958 
L 158.188113 195.455629 
L 159.819543 195.774615 
L 161.450973 196.475968 
L 163.082402 196.802053 
L 164.713832 196.946887 
L 166.345262 197.633048 
L 167.976692 199.0712 
L 169.608122 198.909172 
L 171.239552 198.940809 
L 172.870982 200.160458 
L 174.502412 200.341983 
L 176.133842 200.235866 
L 177.765271 198.653081 
L 179.396701 199.210157 
L 181.028131 197.819909 
L 182.659561 198.821219 
L 184.290991 196.841458 
L 185.922421 193.179841 
L 187.553851 192.855417 
L 189.185281 300.843805 
L 190.81671 300.034676 
L 192.44814 298.900806 
L 194.07957 295.754654 
L 195.711 296.512017 
L 197.34243 297.402776 
L 198.97386 297.677918 
L 200.60529 297.563498 
L 202.23672 297.337089 
L 203.868149 296.227423 
L 205.499579 296.865005 
L 207.131009 297.998612 
L 208.762439 297.458994 
L 210.393869 298.424512 
L 212.025299 297.193513 
L 213.656729 297.520205 
L 215.288159 299.294623 
L 216.919588 298.950668 
L 218.551018 298.203127 
L 220.182448 298.788908 
L 221.813878 298.726418 
L 223.445308 299.12118 
L 225.076738 299.712676 
L 226.708168 298.220338 
L 228.339598 299.133671 
L 229.971027 299.641459 
L 231.602457 300.277196 
L 233.233887 299.094756 
L 234.865317 300.181626 
L 236.496747 299.886551 
L 238.128177 301.211172 
L 239.759607 300.503234 
L 241.391037 299.635895 
L 243.022466 300.188878 
L 246.285326 300.360768 
L 247.916756 301.427698 
L 251.179616 300.813472 
L 252.811046 301.470794 
L 254.442476 300.752995 
L 256.073905 300.856432 
L 257.705335 301.271902 
L 259.336765 300.475609 
L 260.968195 302.190813 
L 264.231055 301.967517 
L 265.862485 302.076794 
L 267.493915 301.595354 
L 269.125344 300.931252 
L 270.756774 302.220226 
L 272.388204 301.244242 
L 274.019634 192.801703 
L 275.651064 192.949959 
L 277.282494 302.160054 
L 278.913924 302.124712 
L 280.545354 192.604357 
L 282.176783 302.287675 
L 283.808213 193.029888 
L 285.439643 302.102863 
L 287.071073 192.414368 
L 288.702503 192.924978 
L 290.333933 193.258462 
L 291.965363 192.545387 
L 293.596793 192.720308 
L 295.228223 192.511162 
L 296.859652 193.610855 
L 301.753942 193.499657 
L 303.385372 192.927524 
L 305.016802 193.321205 
L 306.648232 193.950945 
L 309.911091 193.981566 
L 311.542521 193.552854 
L 313.173951 193.970828 
L 314.805381 194.514346 
L 316.436811 193.298615 
L 318.068241 194.453422 
L 319.699671 193.687594 
L 321.331101 194.519412 
L 322.96253 194.437767 
L 324.59396 194.632933 
L 326.22539 194.002353 
L 327.85682 193.976885 
L 329.48825 194.983761 
L 331.11968 194.517338 
L 332.75111 195.542527 
L 334.38254 193.873788 
L 336.013969 194.51809 
L 337.645399 194.122582 
L 339.276829 195.7962 
L 340.908259 194.762687 
L 342.539689 195.975945 
L 344.171119 195.677723 
L 345.802549 195.017115 
L 350.696838 195.928768 
L 352.328268 195.065801 
L 353.959698 194.752166 
L 355.591128 196.993404 
L 357.222558 195.67262 
L 358.853988 195.9238 
L 360.485418 195.56183 
L 362.116847 196.237668 
L 363.748277 196.216597 
L 365.379707 195.6271 
L 367.011137 196.944422 
L 368.642567 197.177634 
L 370.273997 196.378855 
L 371.905427 196.998593 
L 373.536857 196.309115 
L 375.168286 196.163457 
L 376.799716 196.768334 
L 378.431146 196.253047 
L 380.062576 196.873164 
L 381.694006 196.805526 
L 383.325436 197.466545 
L 384.956866 196.562912 
L 386.588296 197.060874 
L 388.219725 196.777051 
L 389.851155 196.913432 
L 391.482585 197.336736 
L 391.482585 197.336736 
" clip-path="url(#p8deb496a64)" style="fill: none; stroke: #1f77b4; stroke-width: 1.5; stroke-linecap: square"/>
    <g clip-path="url(#p8deb496a64)">
     <use xlink:href="#me973904f2a" x="66.82804" y="296.663739" style="fill: #1f77b4; stroke: #1f77b4"/>
     <use xlink:href="#me973904f2a" x="68.45947" y="297.30351" style="fill: #1f77b4; stroke: #1f77b4"/>
     <use xlink:href="#me973904f2a" x="70.0909" y="296.726674" style="fill: #1f77b4; stroke: #1f77b4"/>
     <use xlink:href="#me973904f2a" x="71.722329" y="297.664249" style="fill: #1f77b4; stroke: #1f77b4"/>
     <use xlink:href="#me973904f2a" x="73.353759" y="297.032244" style="fill: #1f77b4; stroke: #1f77b4"/>
     <use xlink:href="#me973904f2a" x="74.985189" y="297.730386" style="fill: #1f77b4; stroke: #1f77b4"/>
     <use xlink:href="#me973904f2a" x="76.616619" y="298.168955" style="fill: #1f77b4; stroke: #1f77b4"/>
     <use xlink:href="#me973904f2a" x="78.248049" y="297.332836" style="fill: #1f77b4; stroke: #1f77b4"/>
     <use xlink:href="#me973904f2a" x="79.879479" y="298.568052" style="fill: #1f77b4; stroke: #1f77b4"/>
     <use xlink:href="#me973904f2a" x="81.510909" y="297.941941" style="fill: #1f77b4; stroke: #1f77b4"/>
     <use xlink:href="#me973904f2a" x="83.142339" y="298.268594" style="fill: #1f77b4; stroke: #1f77b4"/>
     <use xlink:href="#me973904f2a" x="84.773768" y="297.672277" style="fill: #1f77b4; stroke: #1f77b4"/>
     <use xlink:href="#me973904f2a" x="86.405198" y="298.42767" style="fill: #1f77b4; stroke: #1f77b4"/>
     <use xlink:href="#me973904f2a" x="88.036628" y="297.941954" style="fill: #1f77b4; stroke: #1f77b4"/>
     <use xlink:href="#me973904f2a" x="89.668058" y="298.021504" style="fill: #1f77b4; stroke: #1f77b4"/>
     <use xlink:href="#me973904f2a" x="91.299488" y="297.350092" style="fill: #1f77b4; stroke: #1f77b4"/>
     <use xlink:href="#me973904f2a" x="92.930918" y="298.069586" style="fill: #1f77b4; stroke: #1f77b4"/>
     <use xlink:href="#me973904f2a" x="94.562348" y="297.91967" style="fill: #1f77b4; stroke: #1f77b4"/>
     <use xlink:href="#me973904f2a" x="96.193778" y="298.722667" style="fill: #1f77b4; stroke: #1f77b4"/>
     <use xlink:href="#me973904f2a" x="97.825207" y="298.062713" style="fill: #1f77b4; stroke: #1f77b4"/>
     <use xlink:href="#me973904f2a" x="99.456637" y="298.564111" style="fill: #1f77b4; stroke: #1f77b4"/>
     <use xlink:href="#me973904f2a" x="101.088067" y="299.274598" style="fill: #1f77b4; stroke: #1f77b4"/>
     <use xlink:href="#me973904f2a" x="102.719497" y="298.330689" style="fill: #1f77b4; stroke: #1f77b4"/>
     <use xlink:href="#me973904f2a" x="104.350927" y="299.401617" style="fill: #1f77b4; stroke: #1f77b4"/>
     <use xlink:href="#me973904f2a" x="105.982357" y="299.861869" style="fill: #1f77b4; stroke: #1f77b4"/>
     <use xlink:href="#me973904f2a" x="107.613787" y="299.743182" style="fill: #1f77b4; stroke: #1f77b4"/>
     <use xlink:href="#me973904f2a" x="109.245217" y="298.795723" style="fill: #1f77b4; stroke: #1f77b4"/>
     <use xlink:href="#me973904f2a" x="110.876646" y="298.886316" style="fill: #1f77b4; stroke: #1f77b4"/>
     <use xlink:href="#me973904f2a" x="112.508076" y="299.11486" style="fill: #1f77b4; stroke: #1f77b4"/>
     <use xlink:href="#me973904f2a" x="114.139506" y="299.098095" style="fill: #1f77b4; stroke: #1f77b4"/>
     <use xlink:href="#me973904f2a" x="115.770936" y="300.335771" style="fill: #1f77b4; stroke: #1f77b4"/>
     <use xlink:href="#me973904f2a" x="117.402366" y="300.172148" style="fill: #1f77b4; stroke: #1f77b4"/>
     <use xlink:href="#me973904f2a" x="119.033796" y="299.964965" style="fill: #1f77b4; stroke: #1f77b4"/>
     <use xlink:href="#me973904f2a" x="120.665226" y="300.763847" style="fill: #1f77b4; stroke: #1f77b4"/>
     <use xlink:href="#me973904f2a" x="122.296656" y="299.58102" style="fill: #1f77b4; stroke: #1f77b4"/>
     <use xlink:href="#me973904f2a" x="123.928085" y="300.801419" style="fill: #1f77b4; stroke: #1f77b4"/>
     <use xlink:href="#me973904f2a" x="125.559515" y="300.856295" style="fill: #1f77b4; stroke: #1f77b4"/>
     <use xlink:href="#me973904f2a" x="127.190945" y="300.63634" style="fill: #1f77b4; stroke: #1f77b4"/>
     <use xlink:href="#me973904f2a" x="128.822375" y="300.53812" style="fill: #1f77b4; stroke: #1f77b4"/>
     <use xlink:href="#me973904f2a" x="130.453805" y="300.528477" style="fill: #1f77b4; stroke: #1f77b4"/>
     <use xlink:href="#me973904f2a" x="132.085235" y="300.891729" style="fill: #1f77b4; stroke: #1f77b4"/>
     <use xlink:href="#me973904f2a" x="133.716665" y="301.037642" style="fill: #1f77b4; stroke: #1f77b4"/>
     <use xlink:href="#me973904f2a" x="135.348095" y="301.570449" style="fill: #1f77b4; stroke: #1f77b4"/>
     <use xlink:href="#me973904f2a" x="136.979524" y="301.974717" style="fill: #1f77b4; stroke: #1f77b4"/>
     <use xlink:href="#me973904f2a" x="138.610954" y="301.64486" style="fill: #1f77b4; stroke: #1f77b4"/>
     <use xlink:href="#me973904f2a" x="140.242384" y="302.263887" style="fill: #1f77b4; stroke: #1f77b4"/>
     <use xlink:href="#me973904f2a" x="141.873814" y="302.040224" style="fill: #1f77b4; stroke: #1f77b4"/>
     <use xlink:href="#me973904f2a" x="143.505244" y="302.221284" style="fill: #1f77b4; stroke: #1f77b4"/>
     <use xlink:href="#me973904f2a" x="145.136674" y="192.785829" style="fill: #1f77b4; stroke: #1f77b4"/>
     <use xlink:href="#me973904f2a" x="146.768104" y="192.724383" style="fill: #1f77b4; stroke: #1f77b4"/>
     <use xlink:href="#me973904f2a" x="148.399534" y="193.611444" style="fill: #1f77b4; stroke: #1f77b4"/>
     <use xlink:href="#me973904f2a" x="150.030963" y="193.676919" style="fill: #1f77b4; stroke: #1f77b4"/>
     <use xlink:href="#me973904f2a" x="151.662393" y="194.283771" style="fill: #1f77b4; stroke: #1f77b4"/>
     <use xlink:href="#me973904f2a" x="153.293823" y="193.768384" style="fill: #1f77b4; stroke: #1f77b4"/>
     <use xlink:href="#me973904f2a" x="154.925253" y="194.792902" style="fill: #1f77b4; stroke: #1f77b4"/>
     <use xlink:href="#me973904f2a" x="156.556683" y="194.891958" style="fill: #1f77b4; stroke: #1f77b4"/>
     <use xlink:href="#me973904f2a" x="158.188113" y="195.455629" style="fill: #1f77b4; stroke: #1f77b4"/>
     <use xlink:href="#me973904f2a" x="159.819543" y="195.774615" style="fill: #1f77b4; stroke: #1f77b4"/>
     <use xlink:href="#me973904f2a" x="161.450973" y="196.475968" style="fill: #1f77b4; stroke: #1f77b4"/>
     <use xlink:href="#me973904f2a" x="163.082402" y="196.802053" style="fill: #1f77b4; stroke: #1f77b4"/>
     <use xlink:href="#me973904f2a" x="164.713832" y="196.946887" style="fill: #1f77b4; stroke: #1f77b4"/>
     <use xlink:href="#me973904f2a" x="166.345262" y="197.633048" style="fill: #1f77b4; stroke: #1f77b4"/>
     <use xlink:href="#me973904f2a" x="167.976692" y="199.0712" style="fill: #1f77b4; stroke: #1f77b4"/>
     <use xlink:href="#me973904f2a" x="169.608122" y="198.909172" style="fill: #1f77b4; stroke: #1f77b4"/>
     <use xlink:href="#me973904f2a" x="171.239552" y="198.940809" style="fill: #1f77b4; stroke: #1f77b4"/>
     <use xlink:href="#me973904f2a" x="172.870982" y="200.160458" style="fill: #1f77b4; stroke: #1f77b4"/>
     <use xlink:href="#me973904f2a" x="174.502412" y="200.341983" style="fill: #1f77b4; stroke: #1f77b4"/>
     <use xlink:href="#me973904f2a" x="176.133842" y="200.235866" style="fill: #1f77b4; stroke: #1f77b4"/>
     <use xlink:href="#me973904f2a" x="177.765271" y="198.653081" style="fill: #1f77b4; stroke: #1f77b4"/>
     <use xlink:href="#me973904f2a" x="179.396701" y="199.210157" style="fill: #1f77b4; stroke: #1f77b4"/>
     <use xlink:href="#me973904f2a" x="181.028131" y="197.819909" style="fill: #1f77b4; stroke: #1f77b4"/>
     <use xlink:href="#me973904f2a" x="182.659561" y="198.821219" style="fill: #1f77b4; stroke: #1f77b4"/>
     <use xlink:href="#me973904f2a" x="184.290991" y="196.841458" style="fill: #1f77b4; stroke: #1f77b4"/>
     <use xlink:href="#me973904f2a" x="185.922421" y="193.179841" style="fill: #1f77b4; stroke: #1f77b4"/>
     <use xlink:href="#me973904f2a" x="187.553851" y="192.855417" style="fill: #1f77b4; stroke: #1f77b4"/>
     <use xlink:href="#me973904f2a" x="189.185281" y="300.843805" style="fill: #1f77b4; stroke: #1f77b4"/>
     <use xlink:href="#me973904f2a" x="190.81671" y="300.034676" style="fill: #1f77b4; stroke: #1f77b4"/>
     <use xlink:href="#me973904f2a" x="192.44814" y="298.900806" style="fill: #1f77b4; stroke: #1f77b4"/>
     <use xlink:href="#me973904f2a" x="194.07957" y="295.754654" style="fill: #1f77b4; stroke: #1f77b4"/>
     <use xlink:href="#me973904f2a" x="195.711" y="296.512017" style="fill: #1f77b4; stroke: #1f77b4"/>
     <use xlink:href="#me973904f2a" x="197.34243" y="297.402776" style="fill: #1f77b4; stroke: #1f77b4"/>
     <use xlink:href="#me973904f2a" x="198.97386" y="297.677918" style="fill: #1f77b4; stroke: #1f77b4"/>
     <use xlink:href="#me973904f2a" x="200.60529" y="297.563498" style="fill: #1f77b4; stroke: #1f77b4"/>
     <use xlink:href="#me973904f2a" x="202.23672" y="297.337089" style="fill: #1f77b4; stroke: #1f77b4"/>
     <use xlink:href="#me973904f2a" x="203.868149" y="296.227423" style="fill: #1f77b4; stroke: #1f77b4"/>
     <use xlink:href="#me973904f2a" x="205.499579" y="296.865005" style="fill: #1f77b4; stroke: #1f77b4"/>
     <use xlink:href="#me973904f2a" x="207.131009" y="297.998612" style="fill: #1f77b4; stroke: #1f77b4"/>
     <use xlink:href="#me973904f2a" x="208.762439" y="297.458994" style="fill: #1f77b4; stroke: #1f77b4"/>
     <use xlink:href="#me973904f2a" x="210.393869" y="298.424512" style="fill: #1f77b4; stroke: #1f77b4"/>
     <use xlink:href="#me973904f2a" x="212.025299" y="297.193513" style="fill: #1f77b4; stroke: #1f77b4"/>
     <use xlink:href="#me973904f2a" x="213.656729" y="297.520205" style="fill: #1f77b4; stroke: #1f77b4"/>
     <use xlink:href="#me973904f2a" x="215.288159" y="299.294623" style="fill: #1f77b4; stroke: #1f77b4"/>
     <use xlink:href="#me973904f2a" x="216.919588" y="298.950668" style="fill: #1f77b4; stroke: #1f77b4"/>
     <use xlink:href="#me973904f2a" x="218.551018" y="298.203127" style="fill: #1f77b4; stroke: #1f77b4"/>
     <use xlink:href="#me973904f2a" x="220.182448" y="298.788908" style="fill: #1f77b4; stroke: #1f77b4"/>
     <use xlink:href="#me973904f2a" x="221.813878" y="298.726418" style="fill: #1f77b4; stroke: #1f77b4"/>
     <use xlink:href="#me973904f2a" x="223.445308" y="299.12118" style="fill: #1f77b4; stroke: #1f77b4"/>
     <use xlink:href="#me973904f2a" x="225.076738" y="299.712676" style="fill: #1f77b4; stroke: #1f77b4"/>
     <use xlink:href="#me973904f2a" x="226.708168" y="298.220338" style="fill: #1f77b4; stroke: #1f77b4"/>
     <use xlink:href="#me973904f2a" x="228.339598" y="299.133671" style="fill: #1f77b4; stroke: #1f77b4"/>
     <use xlink:href="#me973904f2a" x="229.971027" y="299.641459" style="fill: #1f77b4; stroke: #1f77b4"/>
     <use xlink:href="#me973904f2a" x="231.602457" y="300.277196" style="fill: #1f77b4; stroke: #1f77b4"/>
     <use xlink:href="#me973904f2a" x="233.233887" y="299.094756" style="fill: #1f77b4; stroke: #1f77b4"/>
     <use xlink:href="#me973904f2a" x="234.865317" y="300.181626" style="fill: #1f77b4; stroke: #1f77b4"/>
     <use xlink:href="#me973904f2a" x="236.496747" y="299.886551" style="fill: #1f77b4; stroke: #1f77b4"/>
     <use xlink:href="#me973904f2a" x="238.128177" y="301.211172" style="fill: #1f77b4; stroke: #1f77b4"/>
     <use xlink:href="#me973904f2a" x="239.759607" y="300.503234" style="fill: #1f77b4; stroke: #1f77b4"/>
     <use xlink:href="#me973904f2a" x="241.391037" y="299.635895" style="fill: #1f77b4; stroke: #1f77b4"/>
     <use xlink:href="#me973904f2a" x="243.022466" y="300.188878" style="fill: #1f77b4; stroke: #1f77b4"/>
     <use xlink:href="#me973904f2a" x="244.653896" y="300.315826" style="fill: #1f77b4; stroke: #1f77b4"/>
     <use xlink:href="#me973904f2a" x="246.285326" y="300.360768" style="fill: #1f77b4; stroke: #1f77b4"/>
     <use xlink:href="#me973904f2a" x="247.916756" y="301.427698" style="fill: #1f77b4; stroke: #1f77b4"/>
     <use xlink:href="#me973904f2a" x="249.548186" y="301.065117" style="fill: #1f77b4; stroke: #1f77b4"/>
     <use xlink:href="#me973904f2a" x="251.179616" y="300.813472" style="fill: #1f77b4; stroke: #1f77b4"/>
     <use xlink:href="#me973904f2a" x="252.811046" y="301.470794" style="fill: #1f77b4; stroke: #1f77b4"/>
     <use xlink:href="#me973904f2a" x="254.442476" y="300.752995" style="fill: #1f77b4; stroke: #1f77b4"/>
     <use xlink:href="#me973904f2a" x="256.073905" y="300.856432" style="fill: #1f77b4; stroke: #1f77b4"/>
     <use xlink:href="#me973904f2a" x="257.705335" y="301.271902" style="fill: #1f77b4; stroke: #1f77b4"/>
     <use xlink:href="#me973904f2a" x="259.336765" y="300.475609" style="fill: #1f77b4; stroke: #1f77b4"/>
     <use xlink:href="#me973904f2a" x="260.968195" y="302.190813" style="fill: #1f77b4; stroke: #1f77b4"/>
     <use xlink:href="#me973904f2a" x="262.599625" y="302.115615" style="fill: #1f77b4; stroke: #1f77b4"/>
     <use xlink:href="#me973904f2a" x="264.231055" y="301.967517" style="fill: #1f77b4; stroke: #1f77b4"/>
     <use xlink:href="#me973904f2a" x="265.862485" y="302.076794" style="fill: #1f77b4; stroke: #1f77b4"/>
     <use xlink:href="#me973904f2a" x="267.493915" y="301.595354" style="fill: #1f77b4; stroke: #1f77b4"/>
     <use xlink:href="#me973904f2a" x="269.125344" y="300.931252" style="fill: #1f77b4; stroke: #1f77b4"/>
     <use xlink:href="#me973904f2a" x="270.756774" y="302.220226" style="fill: #1f77b4; stroke: #1f77b4"/>
     <use xlink:href="#me973904f2a" x="272.388204" y="301.244242" style="fill: #1f77b4; stroke: #1f77b4"/>
     <use xlink:href="#me973904f2a" x="274.019634" y="192.801703" style="fill: #1f77b4; stroke: #1f77b4"/>
     <use xlink:href="#me973904f2a" x="275.651064" y="192.949959" style="fill: #1f77b4; stroke: #1f77b4"/>
     <use xlink:href="#me973904f2a" x="277.282494" y="302.160054" style="fill: #1f77b4; stroke: #1f77b4"/>
     <use xlink:href="#me973904f2a" x="278.913924" y="302.124712" style="fill: #1f77b4; stroke: #1f77b4"/>
     <use xlink:href="#me973904f2a" x="280.545354" y="192.604357" style="fill: #1f77b4; stroke: #1f77b4"/>
     <use xlink:href="#me973904f2a" x="282.176783" y="302.287675" style="fill: #1f77b4; stroke: #1f77b4"/>
     <use xlink:href="#me973904f2a" x="283.808213" y="193.029888" style="fill: #1f77b4; stroke: #1f77b4"/>
     <use xlink:href="#me973904f2a" x="285.439643" y="302.102863" style="fill: #1f77b4; stroke: #1f77b4"/>
     <use xlink:href="#me973904f2a" x="287.071073" y="192.414368" style="fill: #1f77b4; stroke: #1f77b4"/>
     <use xlink:href="#me973904f2a" x="288.702503" y="192.924978" style="fill: #1f77b4; stroke: #1f77b4"/>
     <use xlink:href="#me973904f2a" x="290.333933" y="193.258462" style="fill: #1f77b4; stroke: #1f77b4"/>
     <use xlink:href="#me973904f2a" x="291.965363" y="192.545387" style="fill: #1f77b4; stroke: #1f77b4"/>
     <use xlink:href="#me973904f2a" x="293.596793" y="192.720308" style="fill: #1f77b4; stroke: #1f77b4"/>
     <use xlink:href="#me973904f2a" x="295.228223" y="192.511162" style="fill: #1f77b4; stroke: #1f77b4"/>
     <use xlink:href="#me973904f2a" x="296.859652" y="193.610855" style="fill: #1f77b4; stroke: #1f77b4"/>
     <use xlink:href="#me973904f2a" x="298.491082" y="193.549106" style="fill: #1f77b4; stroke: #1f77b4"/>
     <use xlink:href="#me973904f2a" x="300.122512" y="193.377005" style="fill: #1f77b4; stroke: #1f77b4"/>
     <use xlink:href="#me973904f2a" x="301.753942" y="193.499657" style="fill: #1f77b4; stroke: #1f77b4"/>
     <use xlink:href="#me973904f2a" x="303.385372" y="192.927524" style="fill: #1f77b4; stroke: #1f77b4"/>
     <use xlink:href="#me973904f2a" x="305.016802" y="193.321205" style="fill: #1f77b4; stroke: #1f77b4"/>
     <use xlink:href="#me973904f2a" x="306.648232" y="193.950945" style="fill: #1f77b4; stroke: #1f77b4"/>
     <use xlink:href="#me973904f2a" x="308.279662" y="194.001505" style="fill: #1f77b4; stroke: #1f77b4"/>
     <use xlink:href="#me973904f2a" x="309.911091" y="193.981566" style="fill: #1f77b4; stroke: #1f77b4"/>
     <use xlink:href="#me973904f2a" x="311.542521" y="193.552854" style="fill: #1f77b4; stroke: #1f77b4"/>
     <use xlink:href="#me973904f2a" x="313.173951" y="193.970828" style="fill: #1f77b4; stroke: #1f77b4"/>
     <use xlink:href="#me973904f2a" x="314.805381" y="194.514346" style="fill: #1f77b4; stroke: #1f77b4"/>
     <use xlink:href="#me973904f2a" x="316.436811" y="193.298615" style="fill: #1f77b4; stroke: #1f77b4"/>
     <use xlink:href="#me973904f2a" x="318.068241" y="194.453422" style="fill: #1f77b4; stroke: #1f77b4"/>
     <use xlink:href="#me973904f2a" x="319.699671" y="193.687594" style="fill: #1f77b4; stroke: #1f77b4"/>
     <use xlink:href="#me973904f2a" x="321.331101" y="194.519412" style="fill: #1f77b4; stroke: #1f77b4"/>
     <use xlink:href="#me973904f2a" x="322.96253" y="194.437767" style="fill: #1f77b4; stroke: #1f77b4"/>
     <use xlink:href="#me973904f2a" x="324.59396" y="194.632933" style="fill: #1f77b4; stroke: #1f77b4"/>
     <use xlink:href="#me973904f2a" x="326.22539" y="194.002353" style="fill: #1f77b4; stroke: #1f77b4"/>
     <use xlink:href="#me973904f2a" x="327.85682" y="193.976885" style="fill: #1f77b4; stroke: #1f77b4"/>
     <use xlink:href="#me973904f2a" x="329.48825" y="194.983761" style="fill: #1f77b4; stroke: #1f77b4"/>
     <use xlink:href="#me973904f2a" x="331.11968" y="194.517338" style="fill: #1f77b4; stroke: #1f77b4"/>
     <use xlink:href="#me973904f2a" x="332.75111" y="195.542527" style="fill: #1f77b4; stroke: #1f77b4"/>
     <use xlink:href="#me973904f2a" x="334.38254" y="193.873788" style="fill: #1f77b4; stroke: #1f77b4"/>
     <use xlink:href="#me973904f2a" x="336.013969" y="194.51809" style="fill: #1f77b4; stroke: #1f77b4"/>
     <use xlink:href="#me973904f2a" x="337.645399" y="194.122582" style="fill: #1f77b4; stroke: #1f77b4"/>
     <use xlink:href="#me973904f2a" x="339.276829" y="195.7962" style="fill: #1f77b4; stroke: #1f77b4"/>
     <use xlink:href="#me973904f2a" x="340.908259" y="194.762687" style="fill: #1f77b4; stroke: #1f77b4"/>
     <use xlink:href="#me973904f2a" x="342.539689" y="195.975945" style="fill: #1f77b4; stroke: #1f77b4"/>
     <use xlink:href="#me973904f2a" x="344.171119" y="195.677723" style="fill: #1f77b4; stroke: #1f77b4"/>
     <use xlink:href="#me973904f2a" x="345.802549" y="195.017115" style="fill: #1f77b4; stroke: #1f77b4"/>
     <use xlink:href="#me973904f2a" x="347.433979" y="195.333412" style="fill: #1f77b4; stroke: #1f77b4"/>
     <use xlink:href="#me973904f2a" x="349.065408" y="195.607422" style="fill: #1f77b4; stroke: #1f77b4"/>
     <use xlink:href="#me973904f2a" x="350.696838" y="195.928768" style="fill: #1f77b4; stroke: #1f77b4"/>
     <use xlink:href="#me973904f2a" x="352.328268" y="195.065801" style="fill: #1f77b4; stroke: #1f77b4"/>
     <use xlink:href="#me973904f2a" x="353.959698" y="194.752166" style="fill: #1f77b4; stroke: #1f77b4"/>
     <use xlink:href="#me973904f2a" x="355.591128" y="196.993404" style="fill: #1f77b4; stroke: #1f77b4"/>
     <use xlink:href="#me973904f2a" x="357.222558" y="195.67262" style="fill: #1f77b4; stroke: #1f77b4"/>
     <use xlink:href="#me973904f2a" x="358.853988" y="195.9238" style="fill: #1f77b4; stroke: #1f77b4"/>
     <use xlink:href="#me973904f2a" x="360.485418" y="195.56183" style="fill: #1f77b4; stroke: #1f77b4"/>
     <use xlink:href="#me973904f2a" x="362.116847" y="196.237668" style="fill: #1f77b4; stroke: #1f77b4"/>
     <use xlink:href="#me973904f2a" x="363.748277" y="196.216597" style="fill: #1f77b4; stroke: #1f77b4"/>
     <use xlink:href="#me973904f2a" x="365.379707" y="195.6271" style="fill: #1f77b4; stroke: #1f77b4"/>
     <use xlink:href="#me973904f2a" x="367.011137" y="196.944422" style="fill: #1f77b4; stroke: #1f77b4"/>
     <use xlink:href="#me973904f2a" x="368.642567" y="197.177634" style="fill: #1f77b4; stroke: #1f77b4"/>
     <use xlink:href="#me973904f2a" x="370.273997" y="196.378855" style="fill: #1f77b4; stroke: #1f77b4"/>
     <use xlink:href="#me973904f2a" x="371.905427" y="196.998593" style="fill: #1f77b4; stroke: #1f77b4"/>
     <use xlink:href="#me973904f2a" x="373.536857" y="196.309115" style="fill: #1f77b4; stroke: #1f77b4"/>
     <use xlink:href="#me973904f2a" x="375.168286" y="196.163457" style="fill: #1f77b4; stroke: #1f77b4"/>
     <use xlink:href="#me973904f2a" x="376.799716" y="196.768334" style="fill: #1f77b4; stroke: #1f77b4"/>
     <use xlink:href="#me973904f2a" x="378.431146" y="196.253047" style="fill: #1f77b4; stroke: #1f77b4"/>
     <use xlink:href="#me973904f2a" x="380.062576" y="196.873164" style="fill: #1f77b4; stroke: #1f77b4"/>
     <use xlink:href="#me973904f2a" x="381.694006" y="196.805526" style="fill: #1f77b4; stroke: #1f77b4"/>
     <use xlink:href="#me973904f2a" x="383.325436" y="197.466545" style="fill: #1f77b4; stroke: #1f77b4"/>
     <use xlink:href="#me973904f2a" x="384.956866" y="196.562912" style="fill: #1f77b4; stroke: #1f77b4"/>
     <use xlink:href="#me973904f2a" x="386.588296" y="197.060874" style="fill: #1f77b4; stroke: #1f77b4"/>
     <use xlink:href="#me973904f2a" x="388.219725" y="196.777051" style="fill: #1f77b4; stroke: #1f77b4"/>
     <use xlink:href="#me973904f2a" x="389.851155" y="196.913432" style="fill: #1f77b4; stroke: #1f77b4"/>
     <use xlink:href="#me973904f2a" x="391.482585" y="197.336736" style="fill: #1f77b4; stroke: #1f77b4"/>
    </g>
   </g>
   <g id="line2d_22">
    <path d="M 66.82804 296.959734 
L 95.101258 298.465272 
L 113.950071 299.677097 
L 127.274231 300.742437 
L 137.348597 301.763394 
L 142.22329 302.365339 
L 142.548269 192.429029 
L 149.04786 193.408278 
L 154.572512 194.455344 
L 159.447204 195.607016 
L 163.996918 196.920121 
L 169.52157 198.777304 
L 173.096344 199.899467 
L 175.046222 200.306798 
L 176.671119 200.417798 
L 177.971037 200.286375 
L 179.270955 199.901047 
L 180.570874 199.217299 
L 181.870792 198.217483 
L 183.17071 196.931323 
L 185.445566 194.282629 
L 187.070464 192.419181 
L 187.395444 302.05402 
L 189.020341 300.528371 
L 190.320259 299.567125 
L 191.945157 298.672254 
L 193.570055 298.061983 
L 195.519932 297.612137 
L 197.794788 297.355766 
L 200.719604 297.286891 
L 204.944338 297.4545 
L 212.743846 298.048963 
L 233.542536 299.677285 
L 251.741389 300.841004 
L 276.114854 302.162214 
L 280.339588 302.373818 
L 280.664567 192.410182 
L 318.037213 194.151232 
L 376.533527 196.633854 
L 391.482585 197.244368 
L 391.482585 197.244368 
" clip-path="url(#p8deb496a64)" style="fill: none; stroke: #d62728; stroke-width: 1.5; stroke-linecap: square"/>
   </g>
   <g id="patch_9">
    <path d="M 50.595313 307.872 
L 50.595313 186.912 
" style="fill: none; stroke: #000000; stroke-width: 0.8; stroke-linejoin: miter; stroke-linecap: square"/>
   </g>
   <g id="patch_10">
    <path d="M 407.715312 307.872 
L 407.715312 186.912 
" style="fill: none; stroke: #000000; stroke-width: 0.8; stroke-linejoin: miter; stroke-linecap: square"/>
   </g>
   <g id="patch_11">
    <path d="M 50.595313 307.872 
L 407.715313 307.872 
" style="fill: none; stroke: #000000; stroke-width: 0.8; stroke-linejoin: miter; stroke-linecap: square"/>
   </g>
   <g id="patch_12">
    <path d="M 50.595313 186.912 
L 407.715313 186.912 
" style="fill: none; stroke: #000000; stroke-width: 0.8; stroke-linejoin: miter; stroke-linecap: square"/>
   </g>
  </g>
  <g id="text_18">
   <!-- S21 resonator spectroscopy -->
   <g transform="translate(139.610938 16.318125) scale(0.12 -0.12)">
    <defs>
     <path id="DejaVuSans-73" d="M 2834 3397 
L 2834 2853 
Q 2591 2978 2328 3040 
Q 2066 3103 1784 3103 
Q 1356 3103 1142 2972 
Q 928 2841 928 2578 
Q 928 2378 1081 2264 
Q 1234 2150 1697 2047 
L 1894 2003 
Q 2506 1872 2764 1633 
Q 3022 1394 3022 966 
Q 3022 478 2636 193 
Q 2250 -91 1575 -91 
Q 1294 -91 989 -36 
Q 684 19 347 128 
L 347 722 
Q 666 556 975 473 
Q 1284 391 1588 391 
Q 1994 391 2212 530 
Q 2431 669 2431 922 
Q 2431 1156 2273 1281 
Q 2116 1406 1581 1522 
L 1381 1569 
Q 847 1681 609 1914 
Q 372 2147 372 2553 
Q 372 3047 722 3315 
Q 1072 3584 1716 3584 
Q 2034 3584 2315 3537 
Q 2597 3491 2834 3397 
z
" transform="scale(0.015625)"/>
     <path id="DejaVuSans-6f" d="M 1959 3097 
Q 1497 3097 1228 2736 
Q 959 2375 959 1747 
Q 959 1119 1226 758 
Q 1494 397 1959 397 
Q 2419 397 2687 759 
Q 2956 1122 2956 1747 
Q 2956 2369 2687 2733 
Q 2419 3097 1959 3097 
z
M 1959 3584 
Q 2709 3584 3137 3096 
Q 3566 2609 3566 1747 
Q 3566 888 3137 398 
Q 2709 -91 1959 -91 
Q 1206 -91 779 398 
Q 353 888 353 1747 
Q 353 2609 779 3096 
Q 1206 3584 1959 3584 
z
" transform="scale(0.015625)"/>
     <path id="DejaVuSans-74" d="M 1172 4494 
L 1172 3500 
L 2356 3500 
L 2356 3053 
L 1172 3053 
L 1172 1153 
Q 1172 725 1289 603 
Q 1406 481 1766 481 
L 2356 481 
L 2356 0 
L 1766 0 
Q 1100 0 847 248 
Q 594 497 594 1153 
L 594 3053 
L 172 3053 
L 172 3500 
L 594 3500 
L 594 4494 
L 1172 4494 
z
" transform="scale(0.015625)"/>
     <path id="DejaVuSans-70" d="M 1159 525 
L 1159 -1331 
L 581 -1331 
L 581 3500 
L 1159 3500 
L 1159 2969 
Q 1341 3281 1617 3432 
Q 1894 3584 2278 3584 
Q 2916 3584 3314 3078 
Q 3713 2572 3713 1747 
Q 3713 922 3314 415 
Q 2916 -91 2278 -91 
Q 1894 -91 1617 61 
Q 1341 213 1159 525 
z
M 3116 1747 
Q 3116 2381 2855 2742 
Q 2594 3103 2138 3103 
Q 1681 3103 1420 2742 
Q 1159 2381 1159 1747 
Q 1159 1113 1420 752 
Q 1681 391 2138 391 
Q 2594 391 2855 752 
Q 3116 1113 3116 1747 
z
" transform="scale(0.015625)"/>
    </defs>
    <use xlink:href="#DejaVuSans-53"/>
    <use xlink:href="#DejaVuSans-32" x="63.476562"/>
    <use xlink:href="#DejaVuSans-31" x="127.099609"/>
    <use xlink:href="#DejaVuSans-20" x="190.722656"/>
    <use xlink:href="#DejaVuSans-72" x="222.509766"/>
    <use xlink:href="#DejaVuSans-65" x="261.373047"/>
    <use xlink:href="#DejaVuSans-73" x="322.896484"/>
    <use xlink:href="#DejaVuSans-6f" x="374.996094"/>
    <use xlink:href="#DejaVuSans-6e" x="436.177734"/>
    <use xlink:href="#DejaVuSans-61" x="499.556641"/>
    <use xlink:href="#DejaVuSans-74" x="560.835938"/>
    <use xlink:href="#DejaVuSans-6f" x="600.044922"/>
    <use xlink:href="#DejaVuSans-72" x="661.226562"/>
    <use xlink:href="#DejaVuSans-20" x="702.339844"/>
    <use xlink:href="#DejaVuSans-73" x="734.126953"/>
    <use xlink:href="#DejaVuSans-70" x="786.226562"/>
    <use xlink:href="#DejaVuSans-65" x="849.703125"/>
    <use xlink:href="#DejaVuSans-63" x="911.226562"/>
    <use xlink:href="#DejaVuSans-74" x="966.207031"/>
    <use xlink:href="#DejaVuSans-72" x="1005.416016"/>
    <use xlink:href="#DejaVuSans-6f" x="1044.279297"/>
    <use xlink:href="#DejaVuSans-73" x="1105.460938"/>
    <use xlink:href="#DejaVuSans-63" x="1157.560547"/>
    <use xlink:href="#DejaVuSans-6f" x="1212.541016"/>
    <use xlink:href="#DejaVuSans-70" x="1273.722656"/>
    <use xlink:href="#DejaVuSans-79" x="1337.199219"/>
   </g>
   <!-- tuid: 20240109-153112-598-277411 -->
   <g transform="translate(113.54 29.7555) scale(0.12 -0.12)">
    <defs>
     <path id="DejaVuSans-69" d="M 603 3500 
L 1178 3500 
L 1178 0 
L 603 0 
L 603 3500 
z
M 603 4863 
L 1178 4863 
L 1178 4134 
L 603 4134 
L 603 4863 
z
" transform="scale(0.015625)"/>
    </defs>
    <use xlink:href="#DejaVuSans-74"/>
    <use xlink:href="#DejaVuSans-75" x="39.208984"/>
    <use xlink:href="#DejaVuSans-69" x="102.587891"/>
    <use xlink:href="#DejaVuSans-64" x="130.371094"/>
    <use xlink:href="#DejaVuSans-3a" x="193.847656"/>
    <use xlink:href="#DejaVuSans-20" x="227.539062"/>
    <use xlink:href="#DejaVuSans-32" x="259.326172"/>
    <use xlink:href="#DejaVuSans-30" x="322.949219"/>
    <use xlink:href="#DejaVuSans-32" x="386.572266"/>
    <use xlink:href="#DejaVuSans-34" x="450.195312"/>
    <use xlink:href="#DejaVuSans-30" x="513.818359"/>
    <use xlink:href="#DejaVuSans-31" x="577.441406"/>
    <use xlink:href="#DejaVuSans-30" x="641.064453"/>
    <use xlink:href="#DejaVuSans-39" x="704.6875"/>
    <use xlink:href="#DejaVuSans-2d" x="768.310547"/>
    <use xlink:href="#DejaVuSans-31" x="804.394531"/>
    <use xlink:href="#DejaVuSans-35" x="868.017578"/>
    <use xlink:href="#DejaVuSans-33" x="931.640625"/>
    <use xlink:href="#DejaVuSans-31" x="995.263672"/>
    <use xlink:href="#DejaVuSans-31" x="1058.886719"/>
    <use xlink:href="#DejaVuSans-32" x="1122.509766"/>
    <use xlink:href="#DejaVuSans-2d" x="1186.132812"/>
    <use xlink:href="#DejaVuSans-35" x="1222.216797"/>
    <use xlink:href="#DejaVuSans-39" x="1285.839844"/>
    <use xlink:href="#DejaVuSans-38" x="1349.462891"/>
    <use xlink:href="#DejaVuSans-2d" x="1413.085938"/>
    <use xlink:href="#DejaVuSans-32" x="1449.169922"/>
    <use xlink:href="#DejaVuSans-37" x="1512.792969"/>
    <use xlink:href="#DejaVuSans-37" x="1576.416016"/>
    <use xlink:href="#DejaVuSans-34" x="1640.039062"/>
    <use xlink:href="#DejaVuSans-31" x="1703.662109"/>
    <use xlink:href="#DejaVuSans-31" x="1767.285156"/>
   </g>
  </g>
 </g>
 <defs>
  <clipPath id="p3e9dcc6060">
   <rect x="50.595313" y="41.76" width="357.12" height="120.96"/>
  </clipPath>
  <clipPath id="p8deb496a64">
   <rect x="50.595313" y="186.912" width="357.12" height="120.96"/>
  </clipPath>
 </defs>
</svg>
