<?xml version="1.0" encoding="utf-8" standalone="no"?>
<!DOCTYPE svg PUBLIC "-//W3C//DTD SVG 1.1//EN"
  "http://www.w3.org/Graphics/SVG/1.1/DTD/svg11.dtd">
<svg xmlns:xlink="http://www.w3.org/1999/xlink" width="617.326pt" height="345.42825pt" viewBox="0 0 617.326 345.42825" xmlns="http://www.w3.org/2000/svg" version="1.1">
 <metadata>
  <rdf:RDF xmlns:dc="http://purl.org/dc/elements/1.1/" xmlns:cc="http://creativecommons.org/ns#" xmlns:rdf="http://www.w3.org/1999/02/22-rdf-syntax-ns#">
   <cc:Work>
    <dc:type rdf:resource="http://purl.org/dc/dcmitype/StillImage"/>
    <dc:date>2023-12-20T16:38:51.749696</dc:date>
    <dc:format>image/svg+xml</dc:format>
    <dc:creator>
     <cc:Agent>
      <dc:title>Matplotlib v3.8.2, https://matplotlib.org/</dc:title>
     </cc:Agent>
    </dc:creator>
   </cc:Work>
  </rdf:RDF>
 </metadata>
 <defs>
  <style type="text/css">*{stroke-linejoin: round; stroke-linecap: butt}</style>
 </defs>
 <g id="figure_1">
  <g id="patch_1">
   <path d="M 0 345.42825 
L 617.326 345.42825 
L 617.326 -0 
L 0 -0 
L 0 345.42825 
z
" style="fill: none; opacity: 0"/>
  </g>
  <g id="axes_1">
   <g id="patch_2">
    <path d="M 53.75 307.872 
L 410.87 307.872 
L 410.87 41.76 
L 53.75 41.76 
z
" style="fill: #ffffff"/>
   </g>
   <g id="matplotlib.axis_1">
    <g id="xtick_1">
     <g id="line2d_1">
      <defs>
       <path id="m678fe37ce4" d="M 0 0 
L 0 3.5 
" style="stroke: #000000; stroke-width: 0.8"/>
      </defs>
      <g>
       <use xlink:href="#m678fe37ce4" x="68.98379" y="307.872" style="stroke: #000000; stroke-width: 0.8"/>
      </g>
     </g>
     <g id="text_1">
      <!-- 0 -->
      <g transform="translate(65.80254 322.470438) scale(0.1 -0.1)">
       <defs>
        <path id="DejaVuSans-30" d="M 2034 4250 
Q 1547 4250 1301 3770 
Q 1056 3291 1056 2328 
Q 1056 1369 1301 889 
Q 1547 409 2034 409 
Q 2525 409 2770 889 
Q 3016 1369 3016 2328 
Q 3016 3291 2770 3770 
Q 2525 4250 2034 4250 
z
M 2034 4750 
Q 2819 4750 3233 4129 
Q 3647 3509 3647 2328 
Q 3647 1150 3233 529 
Q 2819 -91 2034 -91 
Q 1250 -91 836 529 
Q 422 1150 422 2328 
Q 422 3509 836 4129 
Q 1250 4750 2034 4750 
z
" transform="scale(0.015625)"/>
       </defs>
       <use xlink:href="#DejaVuSans-30"/>
      </g>
     </g>
    </g>
    <g id="xtick_2">
     <g id="line2d_2">
      <g>
       <use xlink:href="#m678fe37ce4" x="110.606168" y="307.872" style="stroke: #000000; stroke-width: 0.8"/>
      </g>
     </g>
     <g id="text_2">
      <!-- 0.5 -->
      <g transform="translate(102.654605 322.470438) scale(0.1 -0.1)">
       <defs>
        <path id="DejaVuSans-2e" d="M 684 794 
L 1344 794 
L 1344 0 
L 684 0 
L 684 794 
z
" transform="scale(0.015625)"/>
        <path id="DejaVuSans-35" d="M 691 4666 
L 3169 4666 
L 3169 4134 
L 1269 4134 
L 1269 2991 
Q 1406 3038 1543 3061 
Q 1681 3084 1819 3084 
Q 2600 3084 3056 2656 
Q 3513 2228 3513 1497 
Q 3513 744 3044 326 
Q 2575 -91 1722 -91 
Q 1428 -91 1123 -41 
Q 819 9 494 109 
L 494 744 
Q 775 591 1075 516 
Q 1375 441 1709 441 
Q 2250 441 2565 725 
Q 2881 1009 2881 1497 
Q 2881 1984 2565 2268 
Q 2250 2553 1709 2553 
Q 1456 2553 1204 2497 
Q 953 2441 691 2322 
L 691 4666 
z
" transform="scale(0.015625)"/>
       </defs>
       <use xlink:href="#DejaVuSans-30"/>
       <use xlink:href="#DejaVuSans-2e" x="63.623047"/>
       <use xlink:href="#DejaVuSans-35" x="95.410156"/>
      </g>
     </g>
    </g>
    <g id="xtick_3">
     <g id="line2d_3">
      <g>
       <use xlink:href="#m678fe37ce4" x="152.228545" y="307.872" style="stroke: #000000; stroke-width: 0.8"/>
      </g>
     </g>
     <g id="text_3">
      <!-- 1 -->
      <g transform="translate(149.047295 322.470438) scale(0.1 -0.1)">
       <defs>
        <path id="DejaVuSans-31" d="M 794 531 
L 1825 531 
L 1825 4091 
L 703 3866 
L 703 4441 
L 1819 4666 
L 2450 4666 
L 2450 531 
L 3481 531 
L 3481 0 
L 794 0 
L 794 531 
z
" transform="scale(0.015625)"/>
       </defs>
       <use xlink:href="#DejaVuSans-31"/>
      </g>
     </g>
    </g>
    <g id="xtick_4">
     <g id="line2d_4">
      <g>
       <use xlink:href="#m678fe37ce4" x="193.850923" y="307.872" style="stroke: #000000; stroke-width: 0.8"/>
      </g>
     </g>
     <g id="text_4">
      <!-- 1.5 -->
      <g transform="translate(185.899361 322.470438) scale(0.1 -0.1)">
       <use xlink:href="#DejaVuSans-31"/>
       <use xlink:href="#DejaVuSans-2e" x="63.623047"/>
       <use xlink:href="#DejaVuSans-35" x="95.410156"/>
      </g>
     </g>
    </g>
    <g id="xtick_5">
     <g id="line2d_5">
      <g>
       <use xlink:href="#m678fe37ce4" x="235.473301" y="307.872" style="stroke: #000000; stroke-width: 0.8"/>
      </g>
     </g>
     <g id="text_5">
      <!-- 2 -->
      <g transform="translate(232.292051 322.470438) scale(0.1 -0.1)">
       <defs>
        <path id="DejaVuSans-32" d="M 1228 531 
L 3431 531 
L 3431 0 
L 469 0 
L 469 531 
Q 828 903 1448 1529 
Q 2069 2156 2228 2338 
Q 2531 2678 2651 2914 
Q 2772 3150 2772 3378 
Q 2772 3750 2511 3984 
Q 2250 4219 1831 4219 
Q 1534 4219 1204 4116 
Q 875 4013 500 3803 
L 500 4441 
Q 881 4594 1212 4672 
Q 1544 4750 1819 4750 
Q 2544 4750 2975 4387 
Q 3406 4025 3406 3419 
Q 3406 3131 3298 2873 
Q 3191 2616 2906 2266 
Q 2828 2175 2409 1742 
Q 1991 1309 1228 531 
z
" transform="scale(0.015625)"/>
       </defs>
       <use xlink:href="#DejaVuSans-32"/>
      </g>
     </g>
    </g>
    <g id="xtick_6">
     <g id="line2d_6">
      <g>
       <use xlink:href="#m678fe37ce4" x="277.095678" y="307.872" style="stroke: #000000; stroke-width: 0.8"/>
      </g>
     </g>
     <g id="text_6">
      <!-- 2.5 -->
      <g transform="translate(269.144116 322.470438) scale(0.1 -0.1)">
       <use xlink:href="#DejaVuSans-32"/>
       <use xlink:href="#DejaVuSans-2e" x="63.623047"/>
       <use xlink:href="#DejaVuSans-35" x="95.410156"/>
      </g>
     </g>
    </g>
    <g id="xtick_7">
     <g id="line2d_7">
      <g>
       <use xlink:href="#m678fe37ce4" x="318.718056" y="307.872" style="stroke: #000000; stroke-width: 0.8"/>
      </g>
     </g>
     <g id="text_7">
      <!-- 3 -->
      <g transform="translate(315.536806 322.470438) scale(0.1 -0.1)">
       <defs>
        <path id="DejaVuSans-33" d="M 2597 2516 
Q 3050 2419 3304 2112 
Q 3559 1806 3559 1356 
Q 3559 666 3084 287 
Q 2609 -91 1734 -91 
Q 1441 -91 1130 -33 
Q 819 25 488 141 
L 488 750 
Q 750 597 1062 519 
Q 1375 441 1716 441 
Q 2309 441 2620 675 
Q 2931 909 2931 1356 
Q 2931 1769 2642 2001 
Q 2353 2234 1838 2234 
L 1294 2234 
L 1294 2753 
L 1863 2753 
Q 2328 2753 2575 2939 
Q 2822 3125 2822 3475 
Q 2822 3834 2567 4026 
Q 2313 4219 1838 4219 
Q 1578 4219 1281 4162 
Q 984 4106 628 3988 
L 628 4550 
Q 988 4650 1302 4700 
Q 1616 4750 1894 4750 
Q 2613 4750 3031 4423 
Q 3450 4097 3450 3541 
Q 3450 3153 3228 2886 
Q 3006 2619 2597 2516 
z
" transform="scale(0.015625)"/>
       </defs>
       <use xlink:href="#DejaVuSans-33"/>
      </g>
     </g>
    </g>
    <g id="xtick_8">
     <g id="line2d_8">
      <g>
       <use xlink:href="#m678fe37ce4" x="360.340434" y="307.872" style="stroke: #000000; stroke-width: 0.8"/>
      </g>
     </g>
     <g id="text_8">
      <!-- 3.5 -->
      <g transform="translate(352.388871 322.470438) scale(0.1 -0.1)">
       <use xlink:href="#DejaVuSans-33"/>
       <use xlink:href="#DejaVuSans-2e" x="63.623047"/>
       <use xlink:href="#DejaVuSans-35" x="95.410156"/>
      </g>
     </g>
    </g>
    <g id="xtick_9">
     <g id="line2d_9">
      <g>
       <use xlink:href="#m678fe37ce4" x="401.962811" y="307.872" style="stroke: #000000; stroke-width: 0.8"/>
      </g>
     </g>
     <g id="text_9">
      <!-- 4 -->
      <g transform="translate(398.781561 322.470438) scale(0.1 -0.1)">
       <defs>
        <path id="DejaVuSans-34" d="M 2419 4116 
L 825 1625 
L 2419 1625 
L 2419 4116 
z
M 2253 4666 
L 3047 4666 
L 3047 1625 
L 3713 1625 
L 3713 1100 
L 3047 1100 
L 3047 0 
L 2419 0 
L 2419 1100 
L 313 1100 
L 313 1709 
L 2253 4666 
z
" transform="scale(0.015625)"/>
       </defs>
       <use xlink:href="#DejaVuSans-34"/>
      </g>
     </g>
    </g>
    <g id="text_10">
     <!-- Time [μs] -->
     <g transform="translate(208.799844 336.148562) scale(0.1 -0.1)">
      <defs>
       <path id="DejaVuSans-54" d="M -19 4666 
L 3928 4666 
L 3928 4134 
L 2272 4134 
L 2272 0 
L 1638 0 
L 1638 4134 
L -19 4134 
L -19 4666 
z
" transform="scale(0.015625)"/>
       <path id="DejaVuSans-69" d="M 603 3500 
L 1178 3500 
L 1178 0 
L 603 0 
L 603 3500 
z
M 603 4863 
L 1178 4863 
L 1178 4134 
L 603 4134 
L 603 4863 
z
" transform="scale(0.015625)"/>
       <path id="DejaVuSans-6d" d="M 3328 2828 
Q 3544 3216 3844 3400 
Q 4144 3584 4550 3584 
Q 5097 3584 5394 3201 
Q 5691 2819 5691 2113 
L 5691 0 
L 5113 0 
L 5113 2094 
Q 5113 2597 4934 2840 
Q 4756 3084 4391 3084 
Q 3944 3084 3684 2787 
Q 3425 2491 3425 1978 
L 3425 0 
L 2847 0 
L 2847 2094 
Q 2847 2600 2669 2842 
Q 2491 3084 2119 3084 
Q 1678 3084 1418 2786 
Q 1159 2488 1159 1978 
L 1159 0 
L 581 0 
L 581 3500 
L 1159 3500 
L 1159 2956 
Q 1356 3278 1631 3431 
Q 1906 3584 2284 3584 
Q 2666 3584 2933 3390 
Q 3200 3197 3328 2828 
z
" transform="scale(0.015625)"/>
       <path id="DejaVuSans-65" d="M 3597 1894 
L 3597 1613 
L 953 1613 
Q 991 1019 1311 708 
Q 1631 397 2203 397 
Q 2534 397 2845 478 
Q 3156 559 3463 722 
L 3463 178 
Q 3153 47 2828 -22 
Q 2503 -91 2169 -91 
Q 1331 -91 842 396 
Q 353 884 353 1716 
Q 353 2575 817 3079 
Q 1281 3584 2069 3584 
Q 2775 3584 3186 3129 
Q 3597 2675 3597 1894 
z
M 3022 2063 
Q 3016 2534 2758 2815 
Q 2500 3097 2075 3097 
Q 1594 3097 1305 2825 
Q 1016 2553 972 2059 
L 3022 2063 
z
" transform="scale(0.015625)"/>
       <path id="DejaVuSans-20" transform="scale(0.015625)"/>
       <path id="DejaVuSans-5b" d="M 550 4863 
L 1875 4863 
L 1875 4416 
L 1125 4416 
L 1125 -397 
L 1875 -397 
L 1875 -844 
L 550 -844 
L 550 4863 
z
" transform="scale(0.015625)"/>
       <path id="DejaVuSans-3bc" d="M 544 -1331 
L 544 3500 
L 1119 3500 
L 1119 1325 
Q 1119 872 1334 640 
Q 1550 409 1972 409 
Q 2434 409 2667 671 
Q 2900 934 2900 1459 
L 2900 3500 
L 3475 3500 
L 3475 806 
Q 3475 619 3529 530 
Q 3584 441 3700 441 
Q 3728 441 3778 458 
Q 3828 475 3916 513 
L 3916 50 
Q 3788 -22 3673 -56 
Q 3559 -91 3450 -91 
Q 3234 -91 3106 31 
Q 2978 153 2931 403 
Q 2775 156 2548 32 
Q 2322 -91 2016 -91 
Q 1697 -91 1473 31 
Q 1250 153 1119 397 
L 1119 -1331 
L 544 -1331 
z
" transform="scale(0.015625)"/>
       <path id="DejaVuSans-73" d="M 2834 3397 
L 2834 2853 
Q 2591 2978 2328 3040 
Q 2066 3103 1784 3103 
Q 1356 3103 1142 2972 
Q 928 2841 928 2578 
Q 928 2378 1081 2264 
Q 1234 2150 1697 2047 
L 1894 2003 
Q 2506 1872 2764 1633 
Q 3022 1394 3022 966 
Q 3022 478 2636 193 
Q 2250 -91 1575 -91 
Q 1294 -91 989 -36 
Q 684 19 347 128 
L 347 722 
Q 666 556 975 473 
Q 1284 391 1588 391 
Q 1994 391 2212 530 
Q 2431 669 2431 922 
Q 2431 1156 2273 1281 
Q 2116 1406 1581 1522 
L 1381 1569 
Q 847 1681 609 1914 
Q 372 2147 372 2553 
Q 372 3047 722 3315 
Q 1072 3584 1716 3584 
Q 2034 3584 2315 3537 
Q 2597 3491 2834 3397 
z
" transform="scale(0.015625)"/>
       <path id="DejaVuSans-5d" d="M 1947 4863 
L 1947 -844 
L 622 -844 
L 622 -397 
L 1369 -397 
L 1369 4416 
L 622 4416 
L 622 4863 
L 1947 4863 
z
" transform="scale(0.015625)"/>
      </defs>
      <use xlink:href="#DejaVuSans-54"/>
      <use xlink:href="#DejaVuSans-69" x="57.958984"/>
      <use xlink:href="#DejaVuSans-6d" x="85.742188"/>
      <use xlink:href="#DejaVuSans-65" x="183.154297"/>
      <use xlink:href="#DejaVuSans-20" x="244.677734"/>
      <use xlink:href="#DejaVuSans-5b" x="276.464844"/>
      <use xlink:href="#DejaVuSans-3bc" x="315.478516"/>
      <use xlink:href="#DejaVuSans-73" x="379.101562"/>
      <use xlink:href="#DejaVuSans-5d" x="431.201172"/>
     </g>
    </g>
   </g>
   <g id="matplotlib.axis_2">
    <g id="ytick_1">
     <g id="line2d_10">
      <defs>
       <path id="m9cb164fca9" d="M 0 0 
L -3.5 0 
" style="stroke: #000000; stroke-width: 0.8"/>
      </defs>
      <g>
       <use xlink:href="#m9cb164fca9" x="53.75" y="280.060005" style="stroke: #000000; stroke-width: 0.8"/>
      </g>
     </g>
     <g id="text_11">
      <!-- 900 -->
      <g transform="translate(27.6625 283.859224) scale(0.1 -0.1)">
       <defs>
        <path id="DejaVuSans-39" d="M 703 97 
L 703 672 
Q 941 559 1184 500 
Q 1428 441 1663 441 
Q 2288 441 2617 861 
Q 2947 1281 2994 2138 
Q 2813 1869 2534 1725 
Q 2256 1581 1919 1581 
Q 1219 1581 811 2004 
Q 403 2428 403 3163 
Q 403 3881 828 4315 
Q 1253 4750 1959 4750 
Q 2769 4750 3195 4129 
Q 3622 3509 3622 2328 
Q 3622 1225 3098 567 
Q 2575 -91 1691 -91 
Q 1453 -91 1209 -44 
Q 966 3 703 97 
z
M 1959 2075 
Q 2384 2075 2632 2365 
Q 2881 2656 2881 3163 
Q 2881 3666 2632 3958 
Q 2384 4250 1959 4250 
Q 1534 4250 1286 3958 
Q 1038 3666 1038 3163 
Q 1038 2656 1286 2365 
Q 1534 2075 1959 2075 
z
" transform="scale(0.015625)"/>
       </defs>
       <use xlink:href="#DejaVuSans-39"/>
       <use xlink:href="#DejaVuSans-30" x="63.623047"/>
       <use xlink:href="#DejaVuSans-30" x="127.246094"/>
      </g>
     </g>
    </g>
    <g id="ytick_2">
     <g id="line2d_11">
      <g>
       <use xlink:href="#m9cb164fca9" x="53.75" y="242.455262" style="stroke: #000000; stroke-width: 0.8"/>
      </g>
     </g>
     <g id="text_12">
      <!-- 950 -->
      <g transform="translate(27.6625 246.254481) scale(0.1 -0.1)">
       <use xlink:href="#DejaVuSans-39"/>
       <use xlink:href="#DejaVuSans-35" x="63.623047"/>
       <use xlink:href="#DejaVuSans-30" x="127.246094"/>
      </g>
     </g>
    </g>
    <g id="ytick_3">
     <g id="line2d_12">
      <g>
       <use xlink:href="#m9cb164fca9" x="53.75" y="204.850519" style="stroke: #000000; stroke-width: 0.8"/>
      </g>
     </g>
     <g id="text_13">
      <!-- 1000 -->
      <g transform="translate(21.3 208.649738) scale(0.1 -0.1)">
       <use xlink:href="#DejaVuSans-31"/>
       <use xlink:href="#DejaVuSans-30" x="63.623047"/>
       <use xlink:href="#DejaVuSans-30" x="127.246094"/>
       <use xlink:href="#DejaVuSans-30" x="190.869141"/>
      </g>
     </g>
    </g>
    <g id="ytick_4">
     <g id="line2d_13">
      <g>
       <use xlink:href="#m9cb164fca9" x="53.75" y="167.245776" style="stroke: #000000; stroke-width: 0.8"/>
      </g>
     </g>
     <g id="text_14">
      <!-- 1050 -->
      <g transform="translate(21.3 171.044995) scale(0.1 -0.1)">
       <use xlink:href="#DejaVuSans-31"/>
       <use xlink:href="#DejaVuSans-30" x="63.623047"/>
       <use xlink:href="#DejaVuSans-35" x="127.246094"/>
       <use xlink:href="#DejaVuSans-30" x="190.869141"/>
      </g>
     </g>
    </g>
    <g id="ytick_5">
     <g id="line2d_14">
      <g>
       <use xlink:href="#m9cb164fca9" x="53.75" y="129.641033" style="stroke: #000000; stroke-width: 0.8"/>
      </g>
     </g>
     <g id="text_15">
      <!-- 1100 -->
      <g transform="translate(21.3 133.440252) scale(0.1 -0.1)">
       <use xlink:href="#DejaVuSans-31"/>
       <use xlink:href="#DejaVuSans-31" x="63.623047"/>
       <use xlink:href="#DejaVuSans-30" x="127.246094"/>
       <use xlink:href="#DejaVuSans-30" x="190.869141"/>
      </g>
     </g>
    </g>
    <g id="ytick_6">
     <g id="line2d_15">
      <g>
       <use xlink:href="#m9cb164fca9" x="53.75" y="92.03629" style="stroke: #000000; stroke-width: 0.8"/>
      </g>
     </g>
     <g id="text_16">
      <!-- 1150 -->
      <g transform="translate(21.3 95.835508) scale(0.1 -0.1)">
       <use xlink:href="#DejaVuSans-31"/>
       <use xlink:href="#DejaVuSans-31" x="63.623047"/>
       <use xlink:href="#DejaVuSans-35" x="127.246094"/>
       <use xlink:href="#DejaVuSans-30" x="190.869141"/>
      </g>
     </g>
    </g>
    <g id="ytick_7">
     <g id="line2d_16">
      <g>
       <use xlink:href="#m9cb164fca9" x="53.75" y="54.431547" style="stroke: #000000; stroke-width: 0.8"/>
      </g>
     </g>
     <g id="text_17">
      <!-- 1200 -->
      <g transform="translate(21.3 58.230765) scale(0.1 -0.1)">
       <use xlink:href="#DejaVuSans-31"/>
       <use xlink:href="#DejaVuSans-32" x="63.623047"/>
       <use xlink:href="#DejaVuSans-30" x="127.246094"/>
       <use xlink:href="#DejaVuSans-30" x="190.869141"/>
      </g>
     </g>
    </g>
    <g id="text_18">
     <!-- Magnitude |$S_{21}|$ [μV] -->
     <g transform="translate(14.9 226.166) rotate(-90) scale(0.1 -0.1)">
      <defs>
       <path id="DejaVuSans-4d" d="M 628 4666 
L 1569 4666 
L 2759 1491 
L 3956 4666 
L 4897 4666 
L 4897 0 
L 4281 0 
L 4281 4097 
L 3078 897 
L 2444 897 
L 1241 4097 
L 1241 0 
L 628 0 
L 628 4666 
z
" transform="scale(0.015625)"/>
       <path id="DejaVuSans-61" d="M 2194 1759 
Q 1497 1759 1228 1600 
Q 959 1441 959 1056 
Q 959 750 1161 570 
Q 1363 391 1709 391 
Q 2188 391 2477 730 
Q 2766 1069 2766 1631 
L 2766 1759 
L 2194 1759 
z
M 3341 1997 
L 3341 0 
L 2766 0 
L 2766 531 
Q 2569 213 2275 61 
Q 1981 -91 1556 -91 
Q 1019 -91 701 211 
Q 384 513 384 1019 
Q 384 1609 779 1909 
Q 1175 2209 1959 2209 
L 2766 2209 
L 2766 2266 
Q 2766 2663 2505 2880 
Q 2244 3097 1772 3097 
Q 1472 3097 1187 3025 
Q 903 2953 641 2809 
L 641 3341 
Q 956 3463 1253 3523 
Q 1550 3584 1831 3584 
Q 2591 3584 2966 3190 
Q 3341 2797 3341 1997 
z
" transform="scale(0.015625)"/>
       <path id="DejaVuSans-67" d="M 2906 1791 
Q 2906 2416 2648 2759 
Q 2391 3103 1925 3103 
Q 1463 3103 1205 2759 
Q 947 2416 947 1791 
Q 947 1169 1205 825 
Q 1463 481 1925 481 
Q 2391 481 2648 825 
Q 2906 1169 2906 1791 
z
M 3481 434 
Q 3481 -459 3084 -895 
Q 2688 -1331 1869 -1331 
Q 1566 -1331 1297 -1286 
Q 1028 -1241 775 -1147 
L 775 -588 
Q 1028 -725 1275 -790 
Q 1522 -856 1778 -856 
Q 2344 -856 2625 -561 
Q 2906 -266 2906 331 
L 2906 616 
Q 2728 306 2450 153 
Q 2172 0 1784 0 
Q 1141 0 747 490 
Q 353 981 353 1791 
Q 353 2603 747 3093 
Q 1141 3584 1784 3584 
Q 2172 3584 2450 3431 
Q 2728 3278 2906 2969 
L 2906 3500 
L 3481 3500 
L 3481 434 
z
" transform="scale(0.015625)"/>
       <path id="DejaVuSans-6e" d="M 3513 2113 
L 3513 0 
L 2938 0 
L 2938 2094 
Q 2938 2591 2744 2837 
Q 2550 3084 2163 3084 
Q 1697 3084 1428 2787 
Q 1159 2491 1159 1978 
L 1159 0 
L 581 0 
L 581 3500 
L 1159 3500 
L 1159 2956 
Q 1366 3272 1645 3428 
Q 1925 3584 2291 3584 
Q 2894 3584 3203 3211 
Q 3513 2838 3513 2113 
z
" transform="scale(0.015625)"/>
       <path id="DejaVuSans-74" d="M 1172 4494 
L 1172 3500 
L 2356 3500 
L 2356 3053 
L 1172 3053 
L 1172 1153 
Q 1172 725 1289 603 
Q 1406 481 1766 481 
L 2356 481 
L 2356 0 
L 1766 0 
Q 1100 0 847 248 
Q 594 497 594 1153 
L 594 3053 
L 172 3053 
L 172 3500 
L 594 3500 
L 594 4494 
L 1172 4494 
z
" transform="scale(0.015625)"/>
       <path id="DejaVuSans-75" d="M 544 1381 
L 544 3500 
L 1119 3500 
L 1119 1403 
Q 1119 906 1312 657 
Q 1506 409 1894 409 
Q 2359 409 2629 706 
Q 2900 1003 2900 1516 
L 2900 3500 
L 3475 3500 
L 3475 0 
L 2900 0 
L 2900 538 
Q 2691 219 2414 64 
Q 2138 -91 1772 -91 
Q 1169 -91 856 284 
Q 544 659 544 1381 
z
M 1991 3584 
L 1991 3584 
z
" transform="scale(0.015625)"/>
       <path id="DejaVuSans-64" d="M 2906 2969 
L 2906 4863 
L 3481 4863 
L 3481 0 
L 2906 0 
L 2906 525 
Q 2725 213 2448 61 
Q 2172 -91 1784 -91 
Q 1150 -91 751 415 
Q 353 922 353 1747 
Q 353 2572 751 3078 
Q 1150 3584 1784 3584 
Q 2172 3584 2448 3432 
Q 2725 3281 2906 2969 
z
M 947 1747 
Q 947 1113 1208 752 
Q 1469 391 1925 391 
Q 2381 391 2643 752 
Q 2906 1113 2906 1747 
Q 2906 2381 2643 2742 
Q 2381 3103 1925 3103 
Q 1469 3103 1208 2742 
Q 947 2381 947 1747 
z
" transform="scale(0.015625)"/>
       <path id="DejaVuSans-7c" d="M 1344 4891 
L 1344 -1509 
L 813 -1509 
L 813 4891 
L 1344 4891 
z
" transform="scale(0.015625)"/>
       <path id="DejaVuSans-Oblique-53" d="M 3859 4513 
L 3738 3897 
Q 3422 4066 3111 4152 
Q 2800 4238 2509 4238 
Q 1944 4238 1609 3991 
Q 1275 3744 1275 3334 
Q 1275 3109 1398 2989 
Q 1522 2869 2034 2731 
L 2413 2638 
Q 3053 2472 3303 2217 
Q 3553 1963 3553 1503 
Q 3553 797 2998 353 
Q 2444 -91 1538 -91 
Q 1166 -91 791 -17 
Q 416 56 38 206 
L 166 856 
Q 513 641 861 531 
Q 1209 422 1556 422 
Q 2147 422 2503 684 
Q 2859 947 2859 1369 
Q 2859 1650 2717 1795 
Q 2575 1941 2106 2059 
L 1728 2156 
Q 1081 2325 845 2545 
Q 609 2766 609 3163 
Q 609 3859 1145 4304 
Q 1681 4750 2541 4750 
Q 2875 4750 3203 4690 
Q 3531 4631 3859 4513 
z
" transform="scale(0.015625)"/>
       <path id="DejaVuSans-56" d="M 1831 0 
L 50 4666 
L 709 4666 
L 2188 738 
L 3669 4666 
L 4325 4666 
L 2547 0 
L 1831 0 
z
" transform="scale(0.015625)"/>
      </defs>
      <use xlink:href="#DejaVuSans-4d" transform="translate(0 0.578125)"/>
      <use xlink:href="#DejaVuSans-61" transform="translate(86.279297 0.578125)"/>
      <use xlink:href="#DejaVuSans-67" transform="translate(147.558594 0.578125)"/>
      <use xlink:href="#DejaVuSans-6e" transform="translate(211.035156 0.578125)"/>
      <use xlink:href="#DejaVuSans-69" transform="translate(274.414062 0.578125)"/>
      <use xlink:href="#DejaVuSans-74" transform="translate(302.197266 0.578125)"/>
      <use xlink:href="#DejaVuSans-75" transform="translate(341.40625 0.578125)"/>
      <use xlink:href="#DejaVuSans-64" transform="translate(404.785156 0.578125)"/>
      <use xlink:href="#DejaVuSans-65" transform="translate(468.261719 0.578125)"/>
      <use xlink:href="#DejaVuSans-20" transform="translate(529.785156 0.578125)"/>
      <use xlink:href="#DejaVuSans-7c" transform="translate(561.572266 0.578125)"/>
      <use xlink:href="#DejaVuSans-Oblique-53" transform="translate(595.263672 0.578125)"/>
      <use xlink:href="#DejaVuSans-32" transform="translate(658.740234 -15.828125) scale(0.7)"/>
      <use xlink:href="#DejaVuSans-31" transform="translate(703.276367 -15.828125) scale(0.7)"/>
      <use xlink:href="#DejaVuSans-7c" transform="translate(750.546875 0.578125)"/>
      <use xlink:href="#DejaVuSans-20" transform="translate(784.238281 0.578125)"/>
      <use xlink:href="#DejaVuSans-5b" transform="translate(816.025391 0.578125)"/>
      <use xlink:href="#DejaVuSans-3bc" transform="translate(855.039062 0.578125)"/>
      <use xlink:href="#DejaVuSans-56" transform="translate(918.662109 0.578125)"/>
      <use xlink:href="#DejaVuSans-5d" transform="translate(987.070312 0.578125)"/>
     </g>
    </g>
   </g>
   <g id="line2d_17">
    <defs>
     <path id="mf6444b167f" d="M 0 1.5 
C 0.397805 1.5 0.77937 1.341951 1.06066 1.06066 
C 1.341951 0.77937 1.5 0.397805 1.5 0 
C 1.5 -0.397805 1.341951 -0.77937 1.06066 -1.06066 
C 0.77937 -1.341951 0.397805 -1.5 0 -1.5 
C -0.397805 -1.5 -0.77937 -1.341951 -1.06066 -1.06066 
C -1.341951 -0.77937 -1.5 -0.397805 -1.5 0 
C -1.5 0.397805 -1.341951 0.77937 -1.06066 1.06066 
C -0.77937 1.341951 -0.397805 1.5 0 1.5 
z
" style="stroke: #1f77b4"/>
    </defs>
    <g clip-path="url(#pe51d313802)">
     <use xlink:href="#mf6444b167f" x="69.982727" y="256.34455" style="fill: #1f77b4; stroke: #1f77b4"/>
     <use xlink:href="#mf6444b167f" x="78.307203" y="124.532788" style="fill: #1f77b4; stroke: #1f77b4"/>
     <use xlink:href="#mf6444b167f" x="86.631678" y="228.912263" style="fill: #1f77b4; stroke: #1f77b4"/>
     <use xlink:href="#mf6444b167f" x="94.956154" y="138.360293" style="fill: #1f77b4; stroke: #1f77b4"/>
     <use xlink:href="#mf6444b167f" x="103.280629" y="278.346774" style="fill: #1f77b4; stroke: #1f77b4"/>
     <use xlink:href="#mf6444b167f" x="111.605105" y="198.999617" style="fill: #1f77b4; stroke: #1f77b4"/>
     <use xlink:href="#mf6444b167f" x="119.92958" y="271.819171" style="fill: #1f77b4; stroke: #1f77b4"/>
     <use xlink:href="#mf6444b167f" x="128.254056" y="196.357944" style="fill: #1f77b4; stroke: #1f77b4"/>
     <use xlink:href="#mf6444b167f" x="136.578531" y="237.307601" style="fill: #1f77b4; stroke: #1f77b4"/>
     <use xlink:href="#mf6444b167f" x="144.903007" y="155.179564" style="fill: #1f77b4; stroke: #1f77b4"/>
     <use xlink:href="#mf6444b167f" x="153.227483" y="237.379744" style="fill: #1f77b4; stroke: #1f77b4"/>
     <use xlink:href="#mf6444b167f" x="161.551958" y="198.173031" style="fill: #1f77b4; stroke: #1f77b4"/>
     <use xlink:href="#mf6444b167f" x="169.876434" y="130.482973" style="fill: #1f77b4; stroke: #1f77b4"/>
     <use xlink:href="#mf6444b167f" x="178.200909" y="133.973212" style="fill: #1f77b4; stroke: #1f77b4"/>
     <use xlink:href="#mf6444b167f" x="186.525385" y="163.31982" style="fill: #1f77b4; stroke: #1f77b4"/>
     <use xlink:href="#mf6444b167f" x="194.84986" y="135.812915" style="fill: #1f77b4; stroke: #1f77b4"/>
     <use xlink:href="#mf6444b167f" x="203.174336" y="53.856" style="fill: #1f77b4; stroke: #1f77b4"/>
     <use xlink:href="#mf6444b167f" x="211.498811" y="129.485094" style="fill: #1f77b4; stroke: #1f77b4"/>
     <use xlink:href="#mf6444b167f" x="219.823287" y="120.962114" style="fill: #1f77b4; stroke: #1f77b4"/>
     <use xlink:href="#mf6444b167f" x="228.147762" y="202.267917" style="fill: #1f77b4; stroke: #1f77b4"/>
     <use xlink:href="#mf6444b167f" x="236.472238" y="155.649328" style="fill: #1f77b4; stroke: #1f77b4"/>
     <use xlink:href="#mf6444b167f" x="244.796713" y="200.548925" style="fill: #1f77b4; stroke: #1f77b4"/>
     <use xlink:href="#mf6444b167f" x="253.121189" y="138.801328" style="fill: #1f77b4; stroke: #1f77b4"/>
     <use xlink:href="#mf6444b167f" x="261.445664" y="226.008882" style="fill: #1f77b4; stroke: #1f77b4"/>
     <use xlink:href="#mf6444b167f" x="269.77014" y="189.041067" style="fill: #1f77b4; stroke: #1f77b4"/>
     <use xlink:href="#mf6444b167f" x="278.094615" y="295.776" style="fill: #1f77b4; stroke: #1f77b4"/>
     <use xlink:href="#mf6444b167f" x="286.419091" y="162.840385" style="fill: #1f77b4; stroke: #1f77b4"/>
     <use xlink:href="#mf6444b167f" x="294.743566" y="288.866537" style="fill: #1f77b4; stroke: #1f77b4"/>
     <use xlink:href="#mf6444b167f" x="303.068042" y="178.569577" style="fill: #1f77b4; stroke: #1f77b4"/>
     <use xlink:href="#mf6444b167f" x="311.392517" y="247.487339" style="fill: #1f77b4; stroke: #1f77b4"/>
     <use xlink:href="#mf6444b167f" x="319.716993" y="119.140691" style="fill: #1f77b4; stroke: #1f77b4"/>
     <use xlink:href="#mf6444b167f" x="328.041469" y="230.1449" style="fill: #1f77b4; stroke: #1f77b4"/>
     <use xlink:href="#mf6444b167f" x="336.365944" y="126.823068" style="fill: #1f77b4; stroke: #1f77b4"/>
     <use xlink:href="#mf6444b167f" x="344.69042" y="232.537504" style="fill: #1f77b4; stroke: #1f77b4"/>
     <use xlink:href="#mf6444b167f" x="353.014895" y="94.672532" style="fill: #1f77b4; stroke: #1f77b4"/>
     <use xlink:href="#mf6444b167f" x="361.339371" y="186.616719" style="fill: #1f77b4; stroke: #1f77b4"/>
     <use xlink:href="#mf6444b167f" x="369.663846" y="100.443262" style="fill: #1f77b4; stroke: #1f77b4"/>
     <use xlink:href="#mf6444b167f" x="377.988322" y="175.363348" style="fill: #1f77b4; stroke: #1f77b4"/>
     <use xlink:href="#mf6444b167f" x="386.312797" y="108.364" style="fill: #1f77b4; stroke: #1f77b4"/>
     <use xlink:href="#mf6444b167f" x="394.637273" y="197.217983" style="fill: #1f77b4; stroke: #1f77b4"/>
    </g>
   </g>
   <g id="line2d_18">
    <path d="M 69.982727 244.217481 
L 70.307707 246.818328 
L 70.632686 248.469991 
L 70.957666 249.149718 
L 71.282645 248.848538 
L 71.607625 247.57138 
L 71.932604 245.336993 
L 72.582563 238.138794 
L 73.232523 227.665169 
L 74.207461 207.158268 
L 77.457256 131.295175 
L 78.107215 121.233392 
L 78.757174 114.49786 
L 79.082154 112.50284 
L 79.407133 111.464218 
L 79.732113 111.39606 
L 80.057093 112.298674 
L 80.382072 114.15862 
L 81.032031 120.629382 
L 81.68199 130.438142 
L 82.656929 150.145458 
L 86.231704 231.56227 
L 86.881663 240.559491 
L 87.531622 246.122783 
L 87.856601 247.51189 
L 88.181581 247.94281 
L 88.50656 247.410085 
L 88.83154 245.921913 
L 89.156519 243.500019 
L 89.806478 236.007511 
L 90.456437 225.360258 
L 91.431376 204.838264 
L 94.356192 136.620244 
L 95.006151 125.639304 
L 95.65611 117.737199 
L 95.981089 115.086347 
L 96.306069 113.355742 
L 96.631048 112.569277 
L 96.956028 112.737453 
L 97.281007 113.857241 
L 97.605987 115.912139 
L 98.255946 122.695505 
L 98.905905 132.699842 
L 99.880844 152.459265 
L 103.130639 226.538529 
L 103.780598 236.529404 
L 104.430557 243.312454 
L 104.755536 245.375014 
L 105.080516 246.509198 
L 105.405495 246.699569 
L 105.730475 245.944067 
L 106.055455 244.254034 
L 106.705414 238.181524 
L 107.355373 228.829655 
L 108.330311 209.860507 
L 109.955209 171.347705 
L 111.255127 142.117417 
L 112.230066 125.470317 
L 112.880025 118.113713 
L 113.205004 115.729261 
L 113.529984 114.255771 
L 113.854963 113.713497 
L 114.179943 114.109492 
L 114.504922 115.437513 
L 114.829902 117.678118 
L 115.479861 124.755225 
L 116.12982 134.936661 
L 117.104758 154.723459 
L 120.354554 227.075018 
L 121.004513 236.527968 
L 121.654472 242.773901 
L 121.979451 244.577728 
L 122.304431 245.464648 
L 122.62941 245.422716 
L 122.95439 244.453155 
L 123.279369 242.570324 
L 123.929328 236.186531 
L 124.579287 226.636391 
L 125.554226 207.603968 
L 129.129001 129.971961 
L 129.77896 121.544716 
L 130.428919 116.423942 
L 130.753898 115.200222 
L 131.078878 114.894173 
L 131.403857 115.50951 
L 131.728837 117.036894 
L 132.053817 119.454074 
L 132.703776 126.806381 
L 133.353735 137.146883 
L 134.328673 156.937163 
L 137.253489 222.025387 
L 137.903448 232.372532 
L 138.553407 239.745972 
L 138.878387 242.181479 
L 139.203366 243.733591 
L 139.528346 244.380922 
L 139.853325 244.114913 
L 140.178305 242.939951 
L 140.503284 240.873292 
L 141.153243 234.19657 
L 141.803202 224.466205 
L 142.778141 205.394791 
L 146.027936 134.728815 
L 146.677895 125.337201 
L 147.327854 119.039324 
L 147.652834 117.167761 
L 147.977813 116.186439 
L 148.302793 116.108654 
L 148.627772 116.934899 
L 148.952752 118.652858 
L 149.602711 124.651916 
L 150.25267 133.762589 
L 151.227609 152.088101 
L 153.177486 196.409611 
L 154.477404 222.671491 
L 155.127363 232.504065 
L 155.777322 239.356208 
L 156.102301 241.537771 
L 156.427281 242.84523 
L 156.75226 243.260655 
L 157.07724 242.778766 
L 157.402219 241.406994 
L 157.727199 239.165372 
L 158.377158 232.21377 
L 159.027117 222.3208 
L 160.002056 203.233867 
L 163.251851 134.24484 
L 163.90181 125.368445 
L 164.551769 119.583328 
L 164.876749 117.958129 
L 165.201728 117.211808 
L 165.526708 117.354343 
L 165.851687 118.383114 
L 166.176667 120.28295 
L 166.826626 126.573893 
L 167.476585 135.867587 
L 168.451523 154.243066 
L 171.701319 223.245321 
L 172.351278 232.570045 
L 173.001237 238.911298 
L 173.326216 240.84533 
L 173.651196 241.915231 
L 173.976175 242.106433 
L 174.301155 241.41682 
L 174.626134 239.856757 
L 175.276093 234.22801 
L 175.926052 225.54243 
L 176.900991 207.904128 
L 178.525889 172.054139 
L 179.825807 144.816401 
L 180.800745 129.286129 
L 181.450704 122.411584 
L 181.775684 120.178114 
L 182.100663 118.79249 
L 182.425643 118.273763 
L 182.750622 118.628697 
L 183.075602 119.851673 
L 183.400581 121.924782 
L 184.050541 128.490047 
L 184.7005 137.949549 
L 185.675438 156.351943 
L 188.925233 223.748757 
L 189.575192 232.5727 
L 190.225152 238.4137 
L 190.550131 240.106671 
L 190.875111 240.946138 
L 191.20009 240.920788 
L 191.52507 240.031563 
L 191.850049 238.291643 
L 192.500008 232.372271 
L 193.149967 223.501191 
L 194.124906 205.802562 
L 197.699681 133.484835 
L 198.34964 125.615019 
L 198.999599 120.821205 
L 199.324578 119.668328 
L 199.649558 119.369786 
L 199.974537 119.929231 
L 200.299517 121.338159 
L 200.624496 123.576039 
L 201.274455 130.398361 
L 201.924414 140.006873 
L 202.899353 158.413909 
L 205.824169 219.041221 
L 206.474128 228.695869 
L 207.124087 235.585248 
L 207.449066 237.865845 
L 207.774046 239.324279 
L 208.099025 239.94045 
L 208.424005 239.706199 
L 208.748984 238.625419 
L 209.073964 236.713989 
L 209.723923 230.521082 
L 210.373882 221.481311 
L 211.348821 203.744989 
L 214.598616 137.920336 
L 215.248575 129.154335 
L 215.898534 123.265798 
L 216.223514 121.510156 
L 216.548493 120.583169 
L 216.873473 120.497407 
L 217.198452 121.253516 
L 217.523432 122.840218 
L 218.173391 128.401832 
L 218.82335 136.864018 
L 219.798288 153.90452 
L 221.748165 195.167385 
L 223.048084 219.646528 
L 223.698043 228.822193 
L 224.348002 235.226108 
L 224.672981 237.270136 
L 224.997961 238.5006 
L 225.32294 238.900621 
L 225.64792 238.465094 
L 225.972899 237.200753 
L 226.297879 235.126067 
L 226.947838 228.676428 
L 227.597797 219.484381 
L 228.572735 201.732245 
L 231.822531 137.465955 
L 232.47249 129.179609 
L 233.122449 123.768653 
L 233.447428 122.242554 
L 233.772408 121.53458 
L 234.097387 121.654207 
L 234.422367 122.599182 
L 234.747346 124.355561 
L 235.397305 130.189711 
L 236.047265 138.823163 
L 237.022203 155.911541 
L 240.271998 220.184503 
L 240.921957 228.887414 
L 241.571916 234.815532 
L 241.896896 236.628949 
L 242.221876 237.638041 
L 242.546855 237.829056 
L 242.871835 237.199843 
L 243.196814 235.759869 
L 243.846773 230.542584 
L 244.496732 222.475904 
L 245.471671 206.075169 
L 247.096568 172.704005 
L 248.396486 147.323094 
L 249.371425 132.834826 
L 250.021384 126.410856 
L 250.346364 124.318889 
L 250.671343 123.01602 
L 250.996323 122.520171 
L 251.321302 122.837819 
L 251.646282 123.963916 
L 251.971261 125.881964 
L 252.62122 131.972297 
L 253.271179 140.760981 
L 254.246118 157.875748 
L 257.495913 220.656894 
L 258.145872 228.893605 
L 258.795831 234.355804 
L 259.120811 235.944628 
L 259.44579 236.73897 
L 259.77077 236.728116 
L 260.095749 235.912764 
L 260.420729 234.305006 
L 261.070688 228.816386 
L 261.720647 220.576159 
L 262.695586 204.117939 
L 266.27036 136.750956 
L 266.920319 129.401785 
L 267.570278 124.914199 
L 267.895258 123.828213 
L 268.220238 123.537597 
L 268.545217 124.045927 
L 268.870197 125.345466 
L 269.195176 127.41727 
L 269.845135 133.74771 
L 270.495094 142.675977 
L 271.470033 159.796371 
L 274.394848 216.268298 
L 275.044808 225.276725 
L 275.694767 231.713724 
L 276.019746 233.849189 
L 276.344726 235.219483 
L 276.669705 235.805714 
L 276.994685 235.600109 
L 277.319664 234.606115 
L 277.644644 232.838344 
L 278.294603 227.0943 
L 278.944562 218.696184 
L 279.9195 202.201574 
L 283.169296 140.886791 
L 283.819255 132.704804 
L 284.469214 127.199114 
L 284.794193 125.552308 
L 285.119173 124.676829 
L 285.444152 124.584557 
L 285.769132 125.276269 
L 286.094111 126.741638 
L 286.74407 131.897589 
L 287.394029 139.757369 
L 288.368968 155.602881 
L 290.318845 194.018042 
L 291.618763 216.835361 
L 292.268722 225.397934 
L 292.918681 231.38284 
L 293.243661 233.297923 
L 293.56864 234.455792 
L 293.89362 234.840559 
L 294.2186 234.447297 
L 294.543579 233.2821 
L 294.868559 231.361996 
L 295.518518 225.378175 
L 296.168477 216.83746 
L 297.143415 200.326856 
L 300.39321 140.460225 
L 301.04317 132.724783 
L 301.693129 127.663906 
L 302.018108 126.230969 
L 302.343088 125.559602 
L 302.668067 125.6588 
L 302.993047 126.526637 
L 303.318026 128.150301 
L 303.967985 133.560719 
L 304.617944 141.580761 
L 305.592883 157.472108 
L 308.842678 217.339697 
L 309.492637 225.462187 
L 310.142596 231.003979 
L 310.467576 232.704218 
L 310.792555 233.655798 
L 311.117535 233.845746 
L 311.442514 233.271887 
L 311.767494 231.942865 
L 312.417453 227.107083 
L 313.067412 219.61528 
L 314.042351 204.365365 
L 315.667248 173.301742 
L 316.967166 149.651172 
L 317.942105 136.13509 
L 318.592064 130.13226 
L 318.917043 128.172904 
L 319.242023 126.947968 
L 319.567002 126.474307 
L 319.891982 126.75812 
L 320.216962 127.794877 
L 320.541941 129.569382 
L 321.1919 135.21904 
L 321.841859 143.384408 
L 322.816798 159.301563 
L 326.066593 217.782929 
L 326.716552 225.471414 
L 327.366511 230.579268 
L 327.691491 232.070255 
L 328.01647 232.821704 
L 328.34145 232.82347 
L 328.666429 232.076037 
L 328.991409 230.590497 
L 329.641368 225.501391 
L 330.291327 217.847229 
L 331.266265 202.542565 
L 334.84104 139.787639 
L 335.490999 132.92475 
L 336.140958 128.723963 
L 336.465938 127.701126 
L 336.790917 127.418759 
L 337.115897 127.88036 
L 337.440876 129.078889 
L 337.765856 130.996871 
L 338.415815 136.870801 
L 339.065774 145.166916 
L 340.040713 161.090525 
L 342.965528 213.691685 
L 343.615487 222.09708 
L 344.265446 228.111312 
L 344.590426 230.110812 
L 344.915405 231.398185 
L 345.240385 231.955677 
L 345.565364 231.775885 
L 345.890344 230.861853 
L 346.215324 229.227025 
L 346.865283 223.899411 
L 347.515242 216.097473 
L 348.49018 200.757723 
L 351.739975 143.644033 
L 352.389934 136.007221 
L 353.039894 130.859591 
L 353.364873 129.314962 
L 353.689853 128.488297 
L 354.014832 128.390818 
L 354.339812 129.023414 
L 354.664791 130.376631 
L 355.31475 135.156397 
L 355.964709 142.456583 
L 356.939648 157.190826 
L 358.889525 192.954685 
L 360.189443 214.2229 
L 360.839402 222.213279 
L 361.489361 227.806498 
L 361.814341 229.600696 
L 362.13932 230.69013 
L 362.4643 231.059846 
L 362.789279 230.705094 
L 363.114259 229.631387 
L 363.439238 227.854421 
L 364.089197 222.302867 
L 364.739156 214.367397 
L 365.714095 199.011572 
L 368.96389 143.243607 
L 369.613849 136.022514 
L 370.263808 131.289176 
L 370.588788 129.943812 
L 370.913767 129.30737 
L 371.238747 129.388384 
L 371.563726 130.185223 
L 371.888706 131.686116 
L 372.538665 136.703475 
L 373.188624 144.153621 
L 374.163563 158.931713 
L 377.738337 218.762424 
L 378.388296 225.18817 
L 379.038256 229.050975 
L 379.363235 229.948176 
L 379.688215 230.136298 
L 380.013194 229.613155 
L 380.338174 228.386638 
L 380.988133 223.904574 
L 381.638092 216.946751 
L 382.61303 202.766983 
L 384.237928 173.851446 
L 385.537846 151.81334 
L 386.512785 139.204298 
L 387.162744 133.595087 
L 387.487723 131.760006 
L 387.812703 130.608452 
L 388.137682 130.156274 
L 388.462662 130.409405 
L 388.787641 131.363782 
L 389.112621 133.005413 
L 389.76258 138.246188 
L 390.412539 145.832381 
L 391.387477 160.635654 
L 394.637273 215.111523 
L 394.637273 215.111523 
" clip-path="url(#pe51d313802)" style="fill: none; stroke: #d62728; stroke-width: 1.5; stroke-linecap: square"/>
   </g>
   <g id="patch_3">
    <path d="M 53.75 307.872 
L 53.75 41.76 
" style="fill: none; stroke: #000000; stroke-width: 0.8; stroke-linejoin: miter; stroke-linecap: square"/>
   </g>
   <g id="patch_4">
    <path d="M 410.87 307.872 
L 410.87 41.76 
" style="fill: none; stroke: #000000; stroke-width: 0.8; stroke-linejoin: miter; stroke-linecap: square"/>
   </g>
   <g id="patch_5">
    <path d="M 53.75 307.872 
L 410.87 307.872 
" style="fill: none; stroke: #000000; stroke-width: 0.8; stroke-linejoin: miter; stroke-linecap: square"/>
   </g>
   <g id="patch_6">
    <path d="M 53.75 41.76 
L 410.87 41.76 
" style="fill: none; stroke: #000000; stroke-width: 0.8; stroke-linejoin: miter; stroke-linecap: square"/>
   </g>
   <g id="text_19">
    <g id="patch_7">
     <path d="M 428.726 138.497163 
L 610.126 138.497163 
Q 614.126 138.497163 614.126 134.497163 
L 614.126 55.0656 
Q 614.126 51.0656 610.126 51.0656 
L 428.726 51.0656 
Q 424.726 51.0656 424.726 55.0656 
L 424.726 134.497163 
Q 424.726 138.497163 428.726 138.497163 
z
" style="fill: #ffffff; opacity: 0.5; stroke: #000000; stroke-linejoin: miter"/>
    </g>
    <!-- Summary -->
    <g transform="translate(428.726 62.664038) scale(0.1 -0.1)">
     <defs>
      <path id="DejaVuSans-53" d="M 3425 4513 
L 3425 3897 
Q 3066 4069 2747 4153 
Q 2428 4238 2131 4238 
Q 1616 4238 1336 4038 
Q 1056 3838 1056 3469 
Q 1056 3159 1242 3001 
Q 1428 2844 1947 2747 
L 2328 2669 
Q 3034 2534 3370 2195 
Q 3706 1856 3706 1288 
Q 3706 609 3251 259 
Q 2797 -91 1919 -91 
Q 1588 -91 1214 -16 
Q 841 59 441 206 
L 441 856 
Q 825 641 1194 531 
Q 1563 422 1919 422 
Q 2459 422 2753 634 
Q 3047 847 3047 1241 
Q 3047 1584 2836 1778 
Q 2625 1972 2144 2069 
L 1759 2144 
Q 1053 2284 737 2584 
Q 422 2884 422 3419 
Q 422 4038 858 4394 
Q 1294 4750 2059 4750 
Q 2388 4750 2728 4690 
Q 3069 4631 3425 4513 
z
" transform="scale(0.015625)"/>
      <path id="DejaVuSans-72" d="M 2631 2963 
Q 2534 3019 2420 3045 
Q 2306 3072 2169 3072 
Q 1681 3072 1420 2755 
Q 1159 2438 1159 1844 
L 1159 0 
L 581 0 
L 581 3500 
L 1159 3500 
L 1159 2956 
Q 1341 3275 1631 3429 
Q 1922 3584 2338 3584 
Q 2397 3584 2469 3576 
Q 2541 3569 2628 3553 
L 2631 2963 
z
" transform="scale(0.015625)"/>
      <path id="DejaVuSans-79" d="M 2059 -325 
Q 1816 -950 1584 -1140 
Q 1353 -1331 966 -1331 
L 506 -1331 
L 506 -850 
L 844 -850 
Q 1081 -850 1212 -737 
Q 1344 -625 1503 -206 
L 1606 56 
L 191 3500 
L 800 3500 
L 1894 763 
L 2988 3500 
L 3597 3500 
L 2059 -325 
z
" transform="scale(0.015625)"/>
     </defs>
     <use xlink:href="#DejaVuSans-53"/>
     <use xlink:href="#DejaVuSans-75" x="63.476562"/>
     <use xlink:href="#DejaVuSans-6d" x="126.855469"/>
     <use xlink:href="#DejaVuSans-6d" x="224.267578"/>
     <use xlink:href="#DejaVuSans-61" x="321.679688"/>
     <use xlink:href="#DejaVuSans-72" x="382.958984"/>
     <use xlink:href="#DejaVuSans-79" x="424.072266"/>
    </g>
    <!-- $T_2^*$: 12$\pm$28 μs -->
    <g transform="translate(428.726 75.663725) scale(0.1 -0.1)">
     <defs>
      <path id="DejaVuSans-Oblique-54" d="M 378 4666 
L 4325 4666 
L 4225 4134 
L 2559 4134 
L 1759 0 
L 1125 0 
L 1925 4134 
L 275 4134 
L 378 4666 
z
" transform="scale(0.015625)"/>
      <path id="DejaVuSans-2a" d="M 3009 3897 
L 1888 3291 
L 3009 2681 
L 2828 2375 
L 1778 3009 
L 1778 1831 
L 1422 1831 
L 1422 3009 
L 372 2375 
L 191 2681 
L 1313 3291 
L 191 3897 
L 372 4206 
L 1422 3572 
L 1422 4750 
L 1778 4750 
L 1778 3572 
L 2828 4206 
L 3009 3897 
z
" transform="scale(0.015625)"/>
      <path id="DejaVuSans-3a" d="M 750 794 
L 1409 794 
L 1409 0 
L 750 0 
L 750 794 
z
M 750 3309 
L 1409 3309 
L 1409 2516 
L 750 2516 
L 750 3309 
z
" transform="scale(0.015625)"/>
      <path id="DejaVuSans-b1" d="M 2944 4013 
L 2944 2803 
L 4684 2803 
L 4684 2272 
L 2944 2272 
L 2944 1063 
L 2419 1063 
L 2419 2272 
L 678 2272 
L 678 2803 
L 2419 2803 
L 2419 4013 
L 2944 4013 
z
M 678 531 
L 4684 531 
L 4684 0 
L 678 0 
L 678 531 
z
" transform="scale(0.015625)"/>
      <path id="DejaVuSans-38" d="M 2034 2216 
Q 1584 2216 1326 1975 
Q 1069 1734 1069 1313 
Q 1069 891 1326 650 
Q 1584 409 2034 409 
Q 2484 409 2743 651 
Q 3003 894 3003 1313 
Q 3003 1734 2745 1975 
Q 2488 2216 2034 2216 
z
M 1403 2484 
Q 997 2584 770 2862 
Q 544 3141 544 3541 
Q 544 4100 942 4425 
Q 1341 4750 2034 4750 
Q 2731 4750 3128 4425 
Q 3525 4100 3525 3541 
Q 3525 3141 3298 2862 
Q 3072 2584 2669 2484 
Q 3125 2378 3379 2068 
Q 3634 1759 3634 1313 
Q 3634 634 3220 271 
Q 2806 -91 2034 -91 
Q 1263 -91 848 271 
Q 434 634 434 1313 
Q 434 1759 690 2068 
Q 947 2378 1403 2484 
z
M 1172 3481 
Q 1172 3119 1398 2916 
Q 1625 2713 2034 2713 
Q 2441 2713 2670 2916 
Q 2900 3119 2900 3481 
Q 2900 3844 2670 4047 
Q 2441 4250 2034 4250 
Q 1625 4250 1398 4047 
Q 1172 3844 1172 3481 
z
" transform="scale(0.015625)"/>
     </defs>
     <use xlink:href="#DejaVuSans-Oblique-54" transform="translate(0 0.765625)"/>
     <use xlink:href="#DejaVuSans-2a" transform="translate(81.738451 39.046875) scale(0.7)"/>
     <use xlink:href="#DejaVuSans-32" transform="translate(61.083984 -26.578125) scale(0.7)"/>
     <use xlink:href="#DejaVuSans-3a" transform="translate(133.110521 0.765625)"/>
     <use xlink:href="#DejaVuSans-20" transform="translate(166.801927 0.765625)"/>
     <use xlink:href="#DejaVuSans-31" transform="translate(198.589036 0.765625)"/>
     <use xlink:href="#DejaVuSans-32" transform="translate(262.212083 0.765625)"/>
     <use xlink:href="#DejaVuSans-b1" transform="translate(325.83513 0.765625)"/>
     <use xlink:href="#DejaVuSans-32" transform="translate(409.624193 0.765625)"/>
     <use xlink:href="#DejaVuSans-38" transform="translate(473.24724 0.765625)"/>
     <use xlink:href="#DejaVuSans-20" transform="translate(536.870286 0.765625)"/>
     <use xlink:href="#DejaVuSans-3bc" transform="translate(568.657396 0.765625)"/>
     <use xlink:href="#DejaVuSans-73" transform="translate(632.280443 0.765625)"/>
    </g>
    <!--  -->
    <g transform="translate(428.726 87.58185) scale(0.1 -0.1)"/>
    <!-- artificial detuning: -10 MHz -->
    <g transform="translate(428.726 98.779663) scale(0.1 -0.1)">
     <defs>
      <path id="DejaVuSans-66" d="M 2375 4863 
L 2375 4384 
L 1825 4384 
Q 1516 4384 1395 4259 
Q 1275 4134 1275 3809 
L 1275 3500 
L 2222 3500 
L 2222 3053 
L 1275 3053 
L 1275 0 
L 697 0 
L 697 3053 
L 147 3053 
L 147 3500 
L 697 3500 
L 697 3744 
Q 697 4328 969 4595 
Q 1241 4863 1831 4863 
L 2375 4863 
z
" transform="scale(0.015625)"/>
      <path id="DejaVuSans-63" d="M 3122 3366 
L 3122 2828 
Q 2878 2963 2633 3030 
Q 2388 3097 2138 3097 
Q 1578 3097 1268 2742 
Q 959 2388 959 1747 
Q 959 1106 1268 751 
Q 1578 397 2138 397 
Q 2388 397 2633 464 
Q 2878 531 3122 666 
L 3122 134 
Q 2881 22 2623 -34 
Q 2366 -91 2075 -91 
Q 1284 -91 818 406 
Q 353 903 353 1747 
Q 353 2603 823 3093 
Q 1294 3584 2113 3584 
Q 2378 3584 2631 3529 
Q 2884 3475 3122 3366 
z
" transform="scale(0.015625)"/>
      <path id="DejaVuSans-6c" d="M 603 4863 
L 1178 4863 
L 1178 0 
L 603 0 
L 603 4863 
z
" transform="scale(0.015625)"/>
      <path id="DejaVuSans-2d" d="M 313 2009 
L 1997 2009 
L 1997 1497 
L 313 1497 
L 313 2009 
z
" transform="scale(0.015625)"/>
      <path id="DejaVuSans-48" d="M 628 4666 
L 1259 4666 
L 1259 2753 
L 3553 2753 
L 3553 4666 
L 4184 4666 
L 4184 0 
L 3553 0 
L 3553 2222 
L 1259 2222 
L 1259 0 
L 628 0 
L 628 4666 
z
" transform="scale(0.015625)"/>
      <path id="DejaVuSans-7a" d="M 353 3500 
L 3084 3500 
L 3084 2975 
L 922 459 
L 3084 459 
L 3084 0 
L 275 0 
L 275 525 
L 2438 3041 
L 353 3041 
L 353 3500 
z
" transform="scale(0.015625)"/>
     </defs>
     <use xlink:href="#DejaVuSans-61"/>
     <use xlink:href="#DejaVuSans-72" x="61.279297"/>
     <use xlink:href="#DejaVuSans-74" x="102.392578"/>
     <use xlink:href="#DejaVuSans-69" x="141.601562"/>
     <use xlink:href="#DejaVuSans-66" x="169.384766"/>
     <use xlink:href="#DejaVuSans-69" x="204.589844"/>
     <use xlink:href="#DejaVuSans-63" x="232.373047"/>
     <use xlink:href="#DejaVuSans-69" x="287.353516"/>
     <use xlink:href="#DejaVuSans-61" x="315.136719"/>
     <use xlink:href="#DejaVuSans-6c" x="376.416016"/>
     <use xlink:href="#DejaVuSans-20" x="404.199219"/>
     <use xlink:href="#DejaVuSans-64" x="435.986328"/>
     <use xlink:href="#DejaVuSans-65" x="499.462891"/>
     <use xlink:href="#DejaVuSans-74" x="560.986328"/>
     <use xlink:href="#DejaVuSans-75" x="600.195312"/>
     <use xlink:href="#DejaVuSans-6e" x="663.574219"/>
     <use xlink:href="#DejaVuSans-69" x="726.953125"/>
     <use xlink:href="#DejaVuSans-6e" x="754.736328"/>
     <use xlink:href="#DejaVuSans-67" x="818.115234"/>
     <use xlink:href="#DejaVuSans-3a" x="881.591797"/>
     <use xlink:href="#DejaVuSans-20" x="915.283203"/>
     <use xlink:href="#DejaVuSans-2d" x="947.070312"/>
     <use xlink:href="#DejaVuSans-31" x="983.154297"/>
     <use xlink:href="#DejaVuSans-30" x="1046.777344"/>
     <use xlink:href="#DejaVuSans-20" x="1110.400391"/>
     <use xlink:href="#DejaVuSans-4d" x="1142.1875"/>
     <use xlink:href="#DejaVuSans-48" x="1228.466797"/>
     <use xlink:href="#DejaVuSans-7a" x="1303.662109"/>
    </g>
    <!-- fitted detuning: 4.856$\pm$0.051 MHz -->
    <g transform="translate(428.726 109.97935) scale(0.1 -0.1)">
     <defs>
      <path id="DejaVuSans-36" d="M 2113 2584 
Q 1688 2584 1439 2293 
Q 1191 2003 1191 1497 
Q 1191 994 1439 701 
Q 1688 409 2113 409 
Q 2538 409 2786 701 
Q 3034 994 3034 1497 
Q 3034 2003 2786 2293 
Q 2538 2584 2113 2584 
z
M 3366 4563 
L 3366 3988 
Q 3128 4100 2886 4159 
Q 2644 4219 2406 4219 
Q 1781 4219 1451 3797 
Q 1122 3375 1075 2522 
Q 1259 2794 1537 2939 
Q 1816 3084 2150 3084 
Q 2853 3084 3261 2657 
Q 3669 2231 3669 1497 
Q 3669 778 3244 343 
Q 2819 -91 2113 -91 
Q 1303 -91 875 529 
Q 447 1150 447 2328 
Q 447 3434 972 4092 
Q 1497 4750 2381 4750 
Q 2619 4750 2861 4703 
Q 3103 4656 3366 4563 
z
" transform="scale(0.015625)"/>
     </defs>
     <use xlink:href="#DejaVuSans-66" transform="translate(0 0.015625)"/>
     <use xlink:href="#DejaVuSans-69" transform="translate(35.205078 0.015625)"/>
     <use xlink:href="#DejaVuSans-74" transform="translate(62.988281 0.015625)"/>
     <use xlink:href="#DejaVuSans-74" transform="translate(102.197266 0.015625)"/>
     <use xlink:href="#DejaVuSans-65" transform="translate(141.40625 0.015625)"/>
     <use xlink:href="#DejaVuSans-64" transform="translate(202.929688 0.015625)"/>
     <use xlink:href="#DejaVuSans-20" transform="translate(266.40625 0.015625)"/>
     <use xlink:href="#DejaVuSans-64" transform="translate(298.193359 0.015625)"/>
     <use xlink:href="#DejaVuSans-65" transform="translate(361.669922 0.015625)"/>
     <use xlink:href="#DejaVuSans-74" transform="translate(423.193359 0.015625)"/>
     <use xlink:href="#DejaVuSans-75" transform="translate(462.402344 0.015625)"/>
     <use xlink:href="#DejaVuSans-6e" transform="translate(525.78125 0.015625)"/>
     <use xlink:href="#DejaVuSans-69" transform="translate(589.160156 0.015625)"/>
     <use xlink:href="#DejaVuSans-6e" transform="translate(616.943359 0.015625)"/>
     <use xlink:href="#DejaVuSans-67" transform="translate(680.322266 0.015625)"/>
     <use xlink:href="#DejaVuSans-3a" transform="translate(743.798828 0.015625)"/>
     <use xlink:href="#DejaVuSans-20" transform="translate(777.490234 0.015625)"/>
     <use xlink:href="#DejaVuSans-34" transform="translate(809.277344 0.015625)"/>
     <use xlink:href="#DejaVuSans-2e" transform="translate(872.900391 0.015625)"/>
     <use xlink:href="#DejaVuSans-38" transform="translate(902.0625 0.015625)"/>
     <use xlink:href="#DejaVuSans-35" transform="translate(965.685547 0.015625)"/>
     <use xlink:href="#DejaVuSans-36" transform="translate(1029.308594 0.015625)"/>
     <use xlink:href="#DejaVuSans-b1" transform="translate(1092.931641 0.015625)"/>
     <use xlink:href="#DejaVuSans-30" transform="translate(1176.720703 0.015625)"/>
     <use xlink:href="#DejaVuSans-2e" transform="translate(1240.34375 0.015625)"/>
     <use xlink:href="#DejaVuSans-30" transform="translate(1272.130859 0.015625)"/>
     <use xlink:href="#DejaVuSans-35" transform="translate(1335.753906 0.015625)"/>
     <use xlink:href="#DejaVuSans-31" transform="translate(1399.376953 0.015625)"/>
     <use xlink:href="#DejaVuSans-20" transform="translate(1463 0.015625)"/>
     <use xlink:href="#DejaVuSans-4d" transform="translate(1494.787109 0.015625)"/>
     <use xlink:href="#DejaVuSans-48" transform="translate(1581.066406 0.015625)"/>
     <use xlink:href="#DejaVuSans-7a" transform="translate(1656.261719 0.015625)"/>
    </g>
    <!-- actual detuning: 14.856$\pm$0.051 MHz -->
    <g transform="translate(428.726 121.19935) scale(0.1 -0.1)">
     <use xlink:href="#DejaVuSans-61" transform="translate(0 0.015625)"/>
     <use xlink:href="#DejaVuSans-63" transform="translate(61.279297 0.015625)"/>
     <use xlink:href="#DejaVuSans-74" transform="translate(116.259766 0.015625)"/>
     <use xlink:href="#DejaVuSans-75" transform="translate(155.46875 0.015625)"/>
     <use xlink:href="#DejaVuSans-61" transform="translate(218.847656 0.015625)"/>
     <use xlink:href="#DejaVuSans-6c" transform="translate(280.126953 0.015625)"/>
     <use xlink:href="#DejaVuSans-20" transform="translate(307.910156 0.015625)"/>
     <use xlink:href="#DejaVuSans-64" transform="translate(339.697266 0.015625)"/>
     <use xlink:href="#DejaVuSans-65" transform="translate(403.173828 0.015625)"/>
     <use xlink:href="#DejaVuSans-74" transform="translate(464.697266 0.015625)"/>
     <use xlink:href="#DejaVuSans-75" transform="translate(503.90625 0.015625)"/>
     <use xlink:href="#DejaVuSans-6e" transform="translate(567.285156 0.015625)"/>
     <use xlink:href="#DejaVuSans-69" transform="translate(630.664062 0.015625)"/>
     <use xlink:href="#DejaVuSans-6e" transform="translate(658.447266 0.015625)"/>
     <use xlink:href="#DejaVuSans-67" transform="translate(721.826172 0.015625)"/>
     <use xlink:href="#DejaVuSans-3a" transform="translate(785.302734 0.015625)"/>
     <use xlink:href="#DejaVuSans-20" transform="translate(818.994141 0.015625)"/>
     <use xlink:href="#DejaVuSans-31" transform="translate(850.78125 0.015625)"/>
     <use xlink:href="#DejaVuSans-34" transform="translate(914.404297 0.015625)"/>
     <use xlink:href="#DejaVuSans-2e" transform="translate(978.027344 0.015625)"/>
     <use xlink:href="#DejaVuSans-38" transform="translate(1007.189453 0.015625)"/>
     <use xlink:href="#DejaVuSans-35" transform="translate(1070.8125 0.015625)"/>
     <use xlink:href="#DejaVuSans-36" transform="translate(1134.435547 0.015625)"/>
     <use xlink:href="#DejaVuSans-b1" transform="translate(1198.058594 0.015625)"/>
     <use xlink:href="#DejaVuSans-30" transform="translate(1281.847656 0.015625)"/>
     <use xlink:href="#DejaVuSans-2e" transform="translate(1345.470703 0.015625)"/>
     <use xlink:href="#DejaVuSans-30" transform="translate(1377.257812 0.015625)"/>
     <use xlink:href="#DejaVuSans-35" transform="translate(1440.880859 0.015625)"/>
     <use xlink:href="#DejaVuSans-31" transform="translate(1504.503906 0.015625)"/>
     <use xlink:href="#DejaVuSans-20" transform="translate(1568.126953 0.015625)"/>
     <use xlink:href="#DejaVuSans-4d" transform="translate(1599.914062 0.015625)"/>
     <use xlink:href="#DejaVuSans-48" transform="translate(1686.193359 0.015625)"/>
     <use xlink:href="#DejaVuSans-7a" transform="translate(1761.388672 0.015625)"/>
    </g>
    <!--  -->
    <g transform="translate(428.726 132.417475) scale(0.1 -0.1)"/>
   </g>
  </g>
  <g id="text_20">
   <!--  ramsey -->
   <g transform="translate(202.286563 16.318125) scale(0.12 -0.12)">
    <use xlink:href="#DejaVuSans-20"/>
    <use xlink:href="#DejaVuSans-72" x="31.787109"/>
    <use xlink:href="#DejaVuSans-61" x="72.900391"/>
    <use xlink:href="#DejaVuSans-6d" x="134.179688"/>
    <use xlink:href="#DejaVuSans-73" x="231.591797"/>
    <use xlink:href="#DejaVuSans-65" x="283.691406"/>
    <use xlink:href="#DejaVuSans-79" x="345.214844"/>
   </g>
   <!-- tuid: 20231220-163841-818-30a67f -->
   <g transform="translate(118.540625 29.7555) scale(0.12 -0.12)">
    <defs>
     <path id="DejaVuSans-37" d="M 525 4666 
L 3525 4666 
L 3525 4397 
L 1831 0 
L 1172 0 
L 2766 4134 
L 525 4134 
L 525 4666 
z
" transform="scale(0.015625)"/>
    </defs>
    <use xlink:href="#DejaVuSans-74"/>
    <use xlink:href="#DejaVuSans-75" x="39.208984"/>
    <use xlink:href="#DejaVuSans-69" x="102.587891"/>
    <use xlink:href="#DejaVuSans-64" x="130.371094"/>
    <use xlink:href="#DejaVuSans-3a" x="193.847656"/>
    <use xlink:href="#DejaVuSans-20" x="227.539062"/>
    <use xlink:href="#DejaVuSans-32" x="259.326172"/>
    <use xlink:href="#DejaVuSans-30" x="322.949219"/>
    <use xlink:href="#DejaVuSans-32" x="386.572266"/>
    <use xlink:href="#DejaVuSans-33" x="450.195312"/>
    <use xlink:href="#DejaVuSans-31" x="513.818359"/>
    <use xlink:href="#DejaVuSans-32" x="577.441406"/>
    <use xlink:href="#DejaVuSans-32" x="641.064453"/>
    <use xlink:href="#DejaVuSans-30" x="704.6875"/>
    <use xlink:href="#DejaVuSans-2d" x="768.310547"/>
    <use xlink:href="#DejaVuSans-31" x="804.394531"/>
    <use xlink:href="#DejaVuSans-36" x="868.017578"/>
    <use xlink:href="#DejaVuSans-33" x="931.640625"/>
    <use xlink:href="#DejaVuSans-38" x="995.263672"/>
    <use xlink:href="#DejaVuSans-34" x="1058.886719"/>
    <use xlink:href="#DejaVuSans-31" x="1122.509766"/>
    <use xlink:href="#DejaVuSans-2d" x="1186.132812"/>
    <use xlink:href="#DejaVuSans-38" x="1222.216797"/>
    <use xlink:href="#DejaVuSans-31" x="1285.839844"/>
    <use xlink:href="#DejaVuSans-38" x="1349.462891"/>
    <use xlink:href="#DejaVuSans-2d" x="1413.085938"/>
    <use xlink:href="#DejaVuSans-33" x="1449.169922"/>
    <use xlink:href="#DejaVuSans-30" x="1512.792969"/>
    <use xlink:href="#DejaVuSans-61" x="1576.416016"/>
    <use xlink:href="#DejaVuSans-36" x="1637.695312"/>
    <use xlink:href="#DejaVuSans-37" x="1701.318359"/>
    <use xlink:href="#DejaVuSans-66" x="1764.941406"/>
   </g>
  </g>
 </g>
 <defs>
  <clipPath id="pe51d313802">
   <rect x="53.75" y="41.76" width="357.12" height="266.112"/>
  </clipPath>
 </defs>
</svg>
