<?xml version="1.0" encoding="utf-8" standalone="no"?>
<!DOCTYPE svg PUBLIC "-//W3C//DTD SVG 1.1//EN"
  "http://www.w3.org/Graphics/SVG/1.1/DTD/svg11.dtd">
<svg xmlns:xlink="http://www.w3.org/1999/xlink" width="565.5885pt" height="345.42825pt" viewBox="0 0 565.5885 345.42825" xmlns="http://www.w3.org/2000/svg" version="1.1">
 <metadata>
  <rdf:RDF xmlns:dc="http://purl.org/dc/elements/1.1/" xmlns:cc="http://creativecommons.org/ns#" xmlns:rdf="http://www.w3.org/1999/02/22-rdf-syntax-ns#">
   <cc:Work>
    <dc:type rdf:resource="http://purl.org/dc/dcmitype/StillImage"/>
    <dc:date>2024-02-20T16:44:42.791782</dc:date>
    <dc:format>image/svg+xml</dc:format>
    <dc:creator>
     <cc:Agent>
      <dc:title>Matplotlib v3.8.2, https://matplotlib.org/</dc:title>
     </cc:Agent>
    </dc:creator>
   </cc:Work>
  </rdf:RDF>
 </metadata>
 <defs>
  <style type="text/css">*{stroke-linejoin: round; stroke-linecap: butt}</style>
 </defs>
 <g id="figure_1">
  <g id="patch_1">
   <path d="M 0 345.42825 
L 565.5885 345.42825 
L 565.5885 -0 
L 0 -0 
L 0 345.42825 
z
" style="fill: none; opacity: 0"/>
  </g>
  <g id="axes_1">
   <g id="patch_2">
    <path d="M 60.1125 162.72 
L 417.2325 162.72 
L 417.2325 41.76 
L 60.1125 41.76 
z
" style="fill: #ffffff"/>
   </g>
   <g id="matplotlib.axis_1">
    <g id="xtick_1">
     <g id="line2d_1">
      <defs>
       <path id="mb15bc52057" d="M 0 0 
L 0 3.5 
" style="stroke: #000000; stroke-width: 0.8"/>
      </defs>
      <g>
       <use xlink:href="#mb15bc52057" x="108.810682" y="162.72" style="stroke: #000000; stroke-width: 0.8"/>
      </g>
     </g>
    </g>
    <g id="xtick_2">
     <g id="line2d_2">
      <g>
       <use xlink:href="#mb15bc52057" x="173.741591" y="162.72" style="stroke: #000000; stroke-width: 0.8"/>
      </g>
     </g>
    </g>
    <g id="xtick_3">
     <g id="line2d_3">
      <g>
       <use xlink:href="#mb15bc52057" x="238.6725" y="162.72" style="stroke: #000000; stroke-width: 0.8"/>
      </g>
     </g>
    </g>
    <g id="xtick_4">
     <g id="line2d_4">
      <g>
       <use xlink:href="#mb15bc52057" x="303.603409" y="162.72" style="stroke: #000000; stroke-width: 0.8"/>
      </g>
     </g>
    </g>
    <g id="xtick_5">
     <g id="line2d_5">
      <g>
       <use xlink:href="#mb15bc52057" x="368.534318" y="162.72" style="stroke: #000000; stroke-width: 0.8"/>
      </g>
     </g>
    </g>
   </g>
   <g id="matplotlib.axis_2">
    <g id="ytick_1">
     <g id="line2d_6">
      <defs>
       <path id="m0bd36116a2" d="M 0 0 
L -3.5 0 
" style="stroke: #000000; stroke-width: 0.8"/>
      </defs>
      <g>
       <use xlink:href="#m0bd36116a2" x="60.1125" y="153.5274" style="stroke: #000000; stroke-width: 0.8"/>
      </g>
     </g>
     <g id="text_1">
      <!-- 10000 -->
      <g transform="translate(21.3 157.326618) scale(0.1 -0.1)">
       <defs>
        <path id="DejaVuSans-31" d="M 794 531 
L 1825 531 
L 1825 4091 
L 703 3866 
L 703 4441 
L 1819 4666 
L 2450 4666 
L 2450 531 
L 3481 531 
L 3481 0 
L 794 0 
L 794 531 
z
" transform="scale(0.015625)"/>
        <path id="DejaVuSans-30" d="M 2034 4250 
Q 1547 4250 1301 3770 
Q 1056 3291 1056 2328 
Q 1056 1369 1301 889 
Q 1547 409 2034 409 
Q 2525 409 2770 889 
Q 3016 1369 3016 2328 
Q 3016 3291 2770 3770 
Q 2525 4250 2034 4250 
z
M 2034 4750 
Q 2819 4750 3233 4129 
Q 3647 3509 3647 2328 
Q 3647 1150 3233 529 
Q 2819 -91 2034 -91 
Q 1250 -91 836 529 
Q 422 1150 422 2328 
Q 422 3509 836 4129 
Q 1250 4750 2034 4750 
z
" transform="scale(0.015625)"/>
       </defs>
       <use xlink:href="#DejaVuSans-31"/>
       <use xlink:href="#DejaVuSans-30" x="63.623047"/>
       <use xlink:href="#DejaVuSans-30" x="127.246094"/>
       <use xlink:href="#DejaVuSans-30" x="190.869141"/>
       <use xlink:href="#DejaVuSans-30" x="254.492188"/>
      </g>
     </g>
    </g>
    <g id="ytick_2">
     <g id="line2d_7">
      <g>
       <use xlink:href="#m0bd36116a2" x="60.1125" y="124.914758" style="stroke: #000000; stroke-width: 0.8"/>
      </g>
     </g>
     <g id="text_2">
      <!-- 10050 -->
      <g transform="translate(21.3 128.713977) scale(0.1 -0.1)">
       <defs>
        <path id="DejaVuSans-35" d="M 691 4666 
L 3169 4666 
L 3169 4134 
L 1269 4134 
L 1269 2991 
Q 1406 3038 1543 3061 
Q 1681 3084 1819 3084 
Q 2600 3084 3056 2656 
Q 3513 2228 3513 1497 
Q 3513 744 3044 326 
Q 2575 -91 1722 -91 
Q 1428 -91 1123 -41 
Q 819 9 494 109 
L 494 744 
Q 775 591 1075 516 
Q 1375 441 1709 441 
Q 2250 441 2565 725 
Q 2881 1009 2881 1497 
Q 2881 1984 2565 2268 
Q 2250 2553 1709 2553 
Q 1456 2553 1204 2497 
Q 953 2441 691 2322 
L 691 4666 
z
" transform="scale(0.015625)"/>
       </defs>
       <use xlink:href="#DejaVuSans-31"/>
       <use xlink:href="#DejaVuSans-30" x="63.623047"/>
       <use xlink:href="#DejaVuSans-30" x="127.246094"/>
       <use xlink:href="#DejaVuSans-35" x="190.869141"/>
       <use xlink:href="#DejaVuSans-30" x="254.492188"/>
      </g>
     </g>
    </g>
    <g id="ytick_3">
     <g id="line2d_8">
      <g>
       <use xlink:href="#m0bd36116a2" x="60.1125" y="96.302117" style="stroke: #000000; stroke-width: 0.8"/>
      </g>
     </g>
     <g id="text_3">
      <!-- 10100 -->
      <g transform="translate(21.3 100.101335) scale(0.1 -0.1)">
       <use xlink:href="#DejaVuSans-31"/>
       <use xlink:href="#DejaVuSans-30" x="63.623047"/>
       <use xlink:href="#DejaVuSans-31" x="127.246094"/>
       <use xlink:href="#DejaVuSans-30" x="190.869141"/>
       <use xlink:href="#DejaVuSans-30" x="254.492188"/>
      </g>
     </g>
    </g>
    <g id="ytick_4">
     <g id="line2d_9">
      <g>
       <use xlink:href="#m0bd36116a2" x="60.1125" y="67.689475" style="stroke: #000000; stroke-width: 0.8"/>
      </g>
     </g>
     <g id="text_4">
      <!-- 10150 -->
      <g transform="translate(21.3 71.488694) scale(0.1 -0.1)">
       <use xlink:href="#DejaVuSans-31"/>
       <use xlink:href="#DejaVuSans-30" x="63.623047"/>
       <use xlink:href="#DejaVuSans-31" x="127.246094"/>
       <use xlink:href="#DejaVuSans-35" x="190.869141"/>
       <use xlink:href="#DejaVuSans-30" x="254.492188"/>
      </g>
     </g>
    </g>
    <g id="text_5">
     <!-- $|S_{21}|$ [μV] -->
     <g transform="translate(14.9 125.49) rotate(-90) scale(0.1 -0.1)">
      <defs>
       <path id="DejaVuSans-7c" d="M 1344 4891 
L 1344 -1509 
L 813 -1509 
L 813 4891 
L 1344 4891 
z
" transform="scale(0.015625)"/>
       <path id="DejaVuSans-Oblique-53" d="M 3859 4513 
L 3738 3897 
Q 3422 4066 3111 4152 
Q 2800 4238 2509 4238 
Q 1944 4238 1609 3991 
Q 1275 3744 1275 3334 
Q 1275 3109 1398 2989 
Q 1522 2869 2034 2731 
L 2413 2638 
Q 3053 2472 3303 2217 
Q 3553 1963 3553 1503 
Q 3553 797 2998 353 
Q 2444 -91 1538 -91 
Q 1166 -91 791 -17 
Q 416 56 38 206 
L 166 856 
Q 513 641 861 531 
Q 1209 422 1556 422 
Q 2147 422 2503 684 
Q 2859 947 2859 1369 
Q 2859 1650 2717 1795 
Q 2575 1941 2106 2059 
L 1728 2156 
Q 1081 2325 845 2545 
Q 609 2766 609 3163 
Q 609 3859 1145 4304 
Q 1681 4750 2541 4750 
Q 2875 4750 3203 4690 
Q 3531 4631 3859 4513 
z
" transform="scale(0.015625)"/>
       <path id="DejaVuSans-32" d="M 1228 531 
L 3431 531 
L 3431 0 
L 469 0 
L 469 531 
Q 828 903 1448 1529 
Q 2069 2156 2228 2338 
Q 2531 2678 2651 2914 
Q 2772 3150 2772 3378 
Q 2772 3750 2511 3984 
Q 2250 4219 1831 4219 
Q 1534 4219 1204 4116 
Q 875 4013 500 3803 
L 500 4441 
Q 881 4594 1212 4672 
Q 1544 4750 1819 4750 
Q 2544 4750 2975 4387 
Q 3406 4025 3406 3419 
Q 3406 3131 3298 2873 
Q 3191 2616 2906 2266 
Q 2828 2175 2409 1742 
Q 1991 1309 1228 531 
z
" transform="scale(0.015625)"/>
       <path id="DejaVuSans-20" transform="scale(0.015625)"/>
       <path id="DejaVuSans-5b" d="M 550 4863 
L 1875 4863 
L 1875 4416 
L 1125 4416 
L 1125 -397 
L 1875 -397 
L 1875 -844 
L 550 -844 
L 550 4863 
z
" transform="scale(0.015625)"/>
       <path id="DejaVuSans-3bc" d="M 544 -1331 
L 544 3500 
L 1119 3500 
L 1119 1325 
Q 1119 872 1334 640 
Q 1550 409 1972 409 
Q 2434 409 2667 671 
Q 2900 934 2900 1459 
L 2900 3500 
L 3475 3500 
L 3475 806 
Q 3475 619 3529 530 
Q 3584 441 3700 441 
Q 3728 441 3778 458 
Q 3828 475 3916 513 
L 3916 50 
Q 3788 -22 3673 -56 
Q 3559 -91 3450 -91 
Q 3234 -91 3106 31 
Q 2978 153 2931 403 
Q 2775 156 2548 32 
Q 2322 -91 2016 -91 
Q 1697 -91 1473 31 
Q 1250 153 1119 397 
L 1119 -1331 
L 544 -1331 
z
" transform="scale(0.015625)"/>
       <path id="DejaVuSans-56" d="M 1831 0 
L 50 4666 
L 709 4666 
L 2188 738 
L 3669 4666 
L 4325 4666 
L 2547 0 
L 1831 0 
z
" transform="scale(0.015625)"/>
       <path id="DejaVuSans-5d" d="M 1947 4863 
L 1947 -844 
L 622 -844 
L 622 -397 
L 1369 -397 
L 1369 4416 
L 622 4416 
L 622 4863 
L 1947 4863 
z
" transform="scale(0.015625)"/>
      </defs>
      <use xlink:href="#DejaVuSans-7c" transform="translate(0 0.578125)"/>
      <use xlink:href="#DejaVuSans-Oblique-53" transform="translate(33.691406 0.578125)"/>
      <use xlink:href="#DejaVuSans-32" transform="translate(97.167969 -15.828125) scale(0.7)"/>
      <use xlink:href="#DejaVuSans-31" transform="translate(141.704102 -15.828125) scale(0.7)"/>
      <use xlink:href="#DejaVuSans-7c" transform="translate(188.974609 0.578125)"/>
      <use xlink:href="#DejaVuSans-20" transform="translate(222.666016 0.578125)"/>
      <use xlink:href="#DejaVuSans-5b" transform="translate(254.453125 0.578125)"/>
      <use xlink:href="#DejaVuSans-3bc" transform="translate(293.466797 0.578125)"/>
      <use xlink:href="#DejaVuSans-56" transform="translate(357.089844 0.578125)"/>
      <use xlink:href="#DejaVuSans-5d" transform="translate(425.498047 0.578125)"/>
     </g>
    </g>
   </g>
   <g id="line2d_10">
    <path d="M 76.345227 108.750095 
L 77.976657 101.796987 
L 79.608087 136.982283 
L 81.239517 115.045511 
L 82.870947 135.934637 
L 84.502377 109.67673 
L 86.133807 133.69676 
L 87.765236 107.922629 
L 89.396666 97.216578 
L 91.028096 128.449967 
L 92.659526 133.196256 
L 94.290956 121.720834 
L 95.922386 119.071217 
L 97.553816 126.425817 
L 99.185246 132.135708 
L 100.816675 125.848884 
L 102.448105 108.079868 
L 104.079535 125.697706 
L 105.710965 97.401864 
L 107.342395 101.799528 
L 108.973825 89.912614 
L 110.605255 123.970586 
L 112.236685 120.892628 
L 113.868114 98.981753 
L 115.499544 110.90965 
L 117.130974 119.638489 
L 118.762404 115.445138 
L 120.393834 157.221818 
L 122.025264 142.981527 
L 123.656694 115.998978 
L 125.288124 119.300296 
L 126.919553 117.536508 
L 128.550983 124.240448 
L 130.182413 109.775762 
L 131.813843 121.497252 
L 133.445273 111.517575 
L 135.076703 139.656953 
L 136.708133 123.383314 
L 138.339563 125.687686 
L 141.602422 103.821016 
L 143.233852 143.156205 
L 144.865282 92.983317 
L 146.496712 148.383006 
L 148.128142 135.563673 
L 149.759572 102.416174 
L 151.391002 129.717027 
L 153.022431 103.776765 
L 154.653861 119.065689 
L 156.285291 114.480003 
L 157.916721 100.290445 
L 159.548151 122.735713 
L 161.179581 131.551327 
L 162.811011 106.645518 
L 164.442441 115.94763 
L 166.07387 84.861883 
L 167.7053 120.416972 
L 169.33673 104.337068 
L 170.96816 111.103643 
L 172.59959 131.899252 
L 174.23102 117.881809 
L 175.86245 116.235507 
L 177.49388 108.311813 
L 179.12531 106.723959 
L 180.756739 100.395546 
L 182.388169 116.545645 
L 184.019599 130.732515 
L 185.651029 132.265406 
L 187.282459 94.432997 
L 188.913889 111.328926 
L 190.545319 126.71495 
L 192.176749 123.325646 
L 193.808178 115.739852 
L 195.439608 117.238542 
L 197.071038 94.0972 
L 198.702468 109.736577 
L 201.965328 123.743101 
L 203.596758 129.765533 
L 205.228188 117.067402 
L 208.491047 131.069176 
L 210.122477 93.115436 
L 211.753907 118.970996 
L 213.385337 98.100233 
L 215.016767 116.79826 
L 216.648197 124.079676 
L 218.279627 112.487046 
L 219.911056 123.433756 
L 221.542486 116.481221 
L 223.173916 97.147793 
L 224.805346 119.625573 
L 226.436776 125.128724 
L 228.068206 117.361065 
L 229.699636 104.724806 
L 231.331066 101.417472 
L 232.962495 97.291107 
L 234.593925 92.763766 
L 236.225355 119.895083 
L 237.856785 121.026015 
L 239.488215 104.772697 
L 241.119645 72.577055 
L 242.751075 111.839361 
L 244.382505 91.339044 
L 246.013934 130.038959 
L 247.645364 94.262109 
L 249.276794 86.845452 
L 250.908224 73.036745 
L 252.539654 119.431461 
L 254.171084 107.329249 
L 255.802514 111.345745 
L 257.433944 86.773161 
L 259.065373 90.185887 
L 260.696803 131.76821 
L 262.328233 107.889476 
L 263.959663 88.079138 
L 265.591093 110.950504 
L 267.222523 101.150623 
L 268.853953 80.951211 
L 270.485383 118.720996 
L 272.116812 72.142116 
L 273.748242 87.101049 
L 275.379672 75.521528 
L 277.011102 72.455889 
L 278.642532 85.93605 
L 280.273962 86.265981 
L 281.905392 66.058425 
L 283.536822 91.948584 
L 285.168251 74.805478 
L 286.799681 83.657901 
L 288.431111 109.497321 
L 290.062541 118.182735 
L 291.693971 72.107367 
L 293.325401 91.812604 
L 294.956831 107.855946 
L 296.588261 94.890911 
L 298.21969 71.08223 
L 299.85112 98.251435 
L 301.48255 107.981691 
L 303.11398 94.405599 
L 304.74541 107.532206 
L 306.37684 70.21342 
L 308.00827 80.640653 
L 309.6397 107.338018 
L 311.27113 82.302737 
L 312.902559 77.798944 
L 314.533989 92.50065 
L 316.165419 84.783391 
L 317.796849 60.674655 
L 319.428279 94.895993 
L 321.059709 92.796172 
L 322.691139 101.398551 
L 324.322569 74.215417 
L 325.953998 93.759059 
L 327.585428 87.469285 
L 329.216858 47.258182 
L 330.848288 93.530644 
L 332.479718 78.371716 
L 334.111148 98.39434 
L 335.742578 107.844669 
L 337.374008 103.501614 
L 339.005437 85.90165 
L 340.636867 76.625344 
L 342.268297 107.12544 
L 343.899727 96.646395 
L 345.531157 73.514587 
L 347.162587 79.460555 
L 348.794017 87.213757 
L 350.425447 85.107964 
L 352.056876 76.10433 
L 353.688306 108.784154 
L 355.319736 93.375158 
L 356.951166 86.713384 
L 358.582596 66.826785 
L 360.214026 85.293157 
L 361.845456 72.833344 
L 363.476886 101.92711 
L 365.108315 88.318216 
L 366.739745 93.460311 
L 368.371175 75.501218 
L 370.002605 98.041645 
L 371.634035 78.298817 
L 373.265465 65.268993 
L 374.896895 73.993874 
L 376.528325 73.478353 
L 378.159754 86.355967 
L 379.791184 129.071277 
L 381.422614 85.615299 
L 383.054044 117.578835 
L 384.685474 70.544413 
L 386.316904 87.946262 
L 387.948334 124.657817 
L 389.579764 97.286319 
L 391.211193 76.975906 
L 392.842623 84.772718 
L 394.474053 109.966501 
L 396.105483 65.077123 
L 397.736913 85.632213 
L 399.368343 110.340584 
L 400.999773 98.950897 
L 400.999773 98.950897 
" clip-path="url(#pb8968af0b9)" style="fill: none; stroke: #1f77b4; stroke-width: 1.5; stroke-linecap: square"/>
    <defs>
     <path id="m1d761f208f" d="M 0 1.5 
C 0.397805 1.5 0.77937 1.341951 1.06066 1.06066 
C 1.341951 0.77937 1.5 0.397805 1.5 0 
C 1.5 -0.397805 1.341951 -0.77937 1.06066 -1.06066 
C 0.77937 -1.341951 0.397805 -1.5 0 -1.5 
C -0.397805 -1.5 -0.77937 -1.341951 -1.06066 -1.06066 
C -1.341951 -0.77937 -1.5 -0.397805 -1.5 0 
C -1.5 0.397805 -1.341951 0.77937 -1.06066 1.06066 
C -0.77937 1.341951 -0.397805 1.5 0 1.5 
z
" style="stroke: #1f77b4"/>
    </defs>
    <g clip-path="url(#pb8968af0b9)">
     <use xlink:href="#m1d761f208f" x="76.345227" y="108.750095" style="fill: #1f77b4; stroke: #1f77b4"/>
     <use xlink:href="#m1d761f208f" x="77.976657" y="101.796987" style="fill: #1f77b4; stroke: #1f77b4"/>
     <use xlink:href="#m1d761f208f" x="79.608087" y="136.982283" style="fill: #1f77b4; stroke: #1f77b4"/>
     <use xlink:href="#m1d761f208f" x="81.239517" y="115.045511" style="fill: #1f77b4; stroke: #1f77b4"/>
     <use xlink:href="#m1d761f208f" x="82.870947" y="135.934637" style="fill: #1f77b4; stroke: #1f77b4"/>
     <use xlink:href="#m1d761f208f" x="84.502377" y="109.67673" style="fill: #1f77b4; stroke: #1f77b4"/>
     <use xlink:href="#m1d761f208f" x="86.133807" y="133.69676" style="fill: #1f77b4; stroke: #1f77b4"/>
     <use xlink:href="#m1d761f208f" x="87.765236" y="107.922629" style="fill: #1f77b4; stroke: #1f77b4"/>
     <use xlink:href="#m1d761f208f" x="89.396666" y="97.216578" style="fill: #1f77b4; stroke: #1f77b4"/>
     <use xlink:href="#m1d761f208f" x="91.028096" y="128.449967" style="fill: #1f77b4; stroke: #1f77b4"/>
     <use xlink:href="#m1d761f208f" x="92.659526" y="133.196256" style="fill: #1f77b4; stroke: #1f77b4"/>
     <use xlink:href="#m1d761f208f" x="94.290956" y="121.720834" style="fill: #1f77b4; stroke: #1f77b4"/>
     <use xlink:href="#m1d761f208f" x="95.922386" y="119.071217" style="fill: #1f77b4; stroke: #1f77b4"/>
     <use xlink:href="#m1d761f208f" x="97.553816" y="126.425817" style="fill: #1f77b4; stroke: #1f77b4"/>
     <use xlink:href="#m1d761f208f" x="99.185246" y="132.135708" style="fill: #1f77b4; stroke: #1f77b4"/>
     <use xlink:href="#m1d761f208f" x="100.816675" y="125.848884" style="fill: #1f77b4; stroke: #1f77b4"/>
     <use xlink:href="#m1d761f208f" x="102.448105" y="108.079868" style="fill: #1f77b4; stroke: #1f77b4"/>
     <use xlink:href="#m1d761f208f" x="104.079535" y="125.697706" style="fill: #1f77b4; stroke: #1f77b4"/>
     <use xlink:href="#m1d761f208f" x="105.710965" y="97.401864" style="fill: #1f77b4; stroke: #1f77b4"/>
     <use xlink:href="#m1d761f208f" x="107.342395" y="101.799528" style="fill: #1f77b4; stroke: #1f77b4"/>
     <use xlink:href="#m1d761f208f" x="108.973825" y="89.912614" style="fill: #1f77b4; stroke: #1f77b4"/>
     <use xlink:href="#m1d761f208f" x="110.605255" y="123.970586" style="fill: #1f77b4; stroke: #1f77b4"/>
     <use xlink:href="#m1d761f208f" x="112.236685" y="120.892628" style="fill: #1f77b4; stroke: #1f77b4"/>
     <use xlink:href="#m1d761f208f" x="113.868114" y="98.981753" style="fill: #1f77b4; stroke: #1f77b4"/>
     <use xlink:href="#m1d761f208f" x="115.499544" y="110.90965" style="fill: #1f77b4; stroke: #1f77b4"/>
     <use xlink:href="#m1d761f208f" x="117.130974" y="119.638489" style="fill: #1f77b4; stroke: #1f77b4"/>
     <use xlink:href="#m1d761f208f" x="118.762404" y="115.445138" style="fill: #1f77b4; stroke: #1f77b4"/>
     <use xlink:href="#m1d761f208f" x="120.393834" y="157.221818" style="fill: #1f77b4; stroke: #1f77b4"/>
     <use xlink:href="#m1d761f208f" x="122.025264" y="142.981527" style="fill: #1f77b4; stroke: #1f77b4"/>
     <use xlink:href="#m1d761f208f" x="123.656694" y="115.998978" style="fill: #1f77b4; stroke: #1f77b4"/>
     <use xlink:href="#m1d761f208f" x="125.288124" y="119.300296" style="fill: #1f77b4; stroke: #1f77b4"/>
     <use xlink:href="#m1d761f208f" x="126.919553" y="117.536508" style="fill: #1f77b4; stroke: #1f77b4"/>
     <use xlink:href="#m1d761f208f" x="128.550983" y="124.240448" style="fill: #1f77b4; stroke: #1f77b4"/>
     <use xlink:href="#m1d761f208f" x="130.182413" y="109.775762" style="fill: #1f77b4; stroke: #1f77b4"/>
     <use xlink:href="#m1d761f208f" x="131.813843" y="121.497252" style="fill: #1f77b4; stroke: #1f77b4"/>
     <use xlink:href="#m1d761f208f" x="133.445273" y="111.517575" style="fill: #1f77b4; stroke: #1f77b4"/>
     <use xlink:href="#m1d761f208f" x="135.076703" y="139.656953" style="fill: #1f77b4; stroke: #1f77b4"/>
     <use xlink:href="#m1d761f208f" x="136.708133" y="123.383314" style="fill: #1f77b4; stroke: #1f77b4"/>
     <use xlink:href="#m1d761f208f" x="138.339563" y="125.687686" style="fill: #1f77b4; stroke: #1f77b4"/>
     <use xlink:href="#m1d761f208f" x="139.970992" y="114.795212" style="fill: #1f77b4; stroke: #1f77b4"/>
     <use xlink:href="#m1d761f208f" x="141.602422" y="103.821016" style="fill: #1f77b4; stroke: #1f77b4"/>
     <use xlink:href="#m1d761f208f" x="143.233852" y="143.156205" style="fill: #1f77b4; stroke: #1f77b4"/>
     <use xlink:href="#m1d761f208f" x="144.865282" y="92.983317" style="fill: #1f77b4; stroke: #1f77b4"/>
     <use xlink:href="#m1d761f208f" x="146.496712" y="148.383006" style="fill: #1f77b4; stroke: #1f77b4"/>
     <use xlink:href="#m1d761f208f" x="148.128142" y="135.563673" style="fill: #1f77b4; stroke: #1f77b4"/>
     <use xlink:href="#m1d761f208f" x="149.759572" y="102.416174" style="fill: #1f77b4; stroke: #1f77b4"/>
     <use xlink:href="#m1d761f208f" x="151.391002" y="129.717027" style="fill: #1f77b4; stroke: #1f77b4"/>
     <use xlink:href="#m1d761f208f" x="153.022431" y="103.776765" style="fill: #1f77b4; stroke: #1f77b4"/>
     <use xlink:href="#m1d761f208f" x="154.653861" y="119.065689" style="fill: #1f77b4; stroke: #1f77b4"/>
     <use xlink:href="#m1d761f208f" x="156.285291" y="114.480003" style="fill: #1f77b4; stroke: #1f77b4"/>
     <use xlink:href="#m1d761f208f" x="157.916721" y="100.290445" style="fill: #1f77b4; stroke: #1f77b4"/>
     <use xlink:href="#m1d761f208f" x="159.548151" y="122.735713" style="fill: #1f77b4; stroke: #1f77b4"/>
     <use xlink:href="#m1d761f208f" x="161.179581" y="131.551327" style="fill: #1f77b4; stroke: #1f77b4"/>
     <use xlink:href="#m1d761f208f" x="162.811011" y="106.645518" style="fill: #1f77b4; stroke: #1f77b4"/>
     <use xlink:href="#m1d761f208f" x="164.442441" y="115.94763" style="fill: #1f77b4; stroke: #1f77b4"/>
     <use xlink:href="#m1d761f208f" x="166.07387" y="84.861883" style="fill: #1f77b4; stroke: #1f77b4"/>
     <use xlink:href="#m1d761f208f" x="167.7053" y="120.416972" style="fill: #1f77b4; stroke: #1f77b4"/>
     <use xlink:href="#m1d761f208f" x="169.33673" y="104.337068" style="fill: #1f77b4; stroke: #1f77b4"/>
     <use xlink:href="#m1d761f208f" x="170.96816" y="111.103643" style="fill: #1f77b4; stroke: #1f77b4"/>
     <use xlink:href="#m1d761f208f" x="172.59959" y="131.899252" style="fill: #1f77b4; stroke: #1f77b4"/>
     <use xlink:href="#m1d761f208f" x="174.23102" y="117.881809" style="fill: #1f77b4; stroke: #1f77b4"/>
     <use xlink:href="#m1d761f208f" x="175.86245" y="116.235507" style="fill: #1f77b4; stroke: #1f77b4"/>
     <use xlink:href="#m1d761f208f" x="177.49388" y="108.311813" style="fill: #1f77b4; stroke: #1f77b4"/>
     <use xlink:href="#m1d761f208f" x="179.12531" y="106.723959" style="fill: #1f77b4; stroke: #1f77b4"/>
     <use xlink:href="#m1d761f208f" x="180.756739" y="100.395546" style="fill: #1f77b4; stroke: #1f77b4"/>
     <use xlink:href="#m1d761f208f" x="182.388169" y="116.545645" style="fill: #1f77b4; stroke: #1f77b4"/>
     <use xlink:href="#m1d761f208f" x="184.019599" y="130.732515" style="fill: #1f77b4; stroke: #1f77b4"/>
     <use xlink:href="#m1d761f208f" x="185.651029" y="132.265406" style="fill: #1f77b4; stroke: #1f77b4"/>
     <use xlink:href="#m1d761f208f" x="187.282459" y="94.432997" style="fill: #1f77b4; stroke: #1f77b4"/>
     <use xlink:href="#m1d761f208f" x="188.913889" y="111.328926" style="fill: #1f77b4; stroke: #1f77b4"/>
     <use xlink:href="#m1d761f208f" x="190.545319" y="126.71495" style="fill: #1f77b4; stroke: #1f77b4"/>
     <use xlink:href="#m1d761f208f" x="192.176749" y="123.325646" style="fill: #1f77b4; stroke: #1f77b4"/>
     <use xlink:href="#m1d761f208f" x="193.808178" y="115.739852" style="fill: #1f77b4; stroke: #1f77b4"/>
     <use xlink:href="#m1d761f208f" x="195.439608" y="117.238542" style="fill: #1f77b4; stroke: #1f77b4"/>
     <use xlink:href="#m1d761f208f" x="197.071038" y="94.0972" style="fill: #1f77b4; stroke: #1f77b4"/>
     <use xlink:href="#m1d761f208f" x="198.702468" y="109.736577" style="fill: #1f77b4; stroke: #1f77b4"/>
     <use xlink:href="#m1d761f208f" x="200.333898" y="116.841703" style="fill: #1f77b4; stroke: #1f77b4"/>
     <use xlink:href="#m1d761f208f" x="201.965328" y="123.743101" style="fill: #1f77b4; stroke: #1f77b4"/>
     <use xlink:href="#m1d761f208f" x="203.596758" y="129.765533" style="fill: #1f77b4; stroke: #1f77b4"/>
     <use xlink:href="#m1d761f208f" x="205.228188" y="117.067402" style="fill: #1f77b4; stroke: #1f77b4"/>
     <use xlink:href="#m1d761f208f" x="206.859617" y="123.947177" style="fill: #1f77b4; stroke: #1f77b4"/>
     <use xlink:href="#m1d761f208f" x="208.491047" y="131.069176" style="fill: #1f77b4; stroke: #1f77b4"/>
     <use xlink:href="#m1d761f208f" x="210.122477" y="93.115436" style="fill: #1f77b4; stroke: #1f77b4"/>
     <use xlink:href="#m1d761f208f" x="211.753907" y="118.970996" style="fill: #1f77b4; stroke: #1f77b4"/>
     <use xlink:href="#m1d761f208f" x="213.385337" y="98.100233" style="fill: #1f77b4; stroke: #1f77b4"/>
     <use xlink:href="#m1d761f208f" x="215.016767" y="116.79826" style="fill: #1f77b4; stroke: #1f77b4"/>
     <use xlink:href="#m1d761f208f" x="216.648197" y="124.079676" style="fill: #1f77b4; stroke: #1f77b4"/>
     <use xlink:href="#m1d761f208f" x="218.279627" y="112.487046" style="fill: #1f77b4; stroke: #1f77b4"/>
     <use xlink:href="#m1d761f208f" x="219.911056" y="123.433756" style="fill: #1f77b4; stroke: #1f77b4"/>
     <use xlink:href="#m1d761f208f" x="221.542486" y="116.481221" style="fill: #1f77b4; stroke: #1f77b4"/>
     <use xlink:href="#m1d761f208f" x="223.173916" y="97.147793" style="fill: #1f77b4; stroke: #1f77b4"/>
     <use xlink:href="#m1d761f208f" x="224.805346" y="119.625573" style="fill: #1f77b4; stroke: #1f77b4"/>
     <use xlink:href="#m1d761f208f" x="226.436776" y="125.128724" style="fill: #1f77b4; stroke: #1f77b4"/>
     <use xlink:href="#m1d761f208f" x="228.068206" y="117.361065" style="fill: #1f77b4; stroke: #1f77b4"/>
     <use xlink:href="#m1d761f208f" x="229.699636" y="104.724806" style="fill: #1f77b4; stroke: #1f77b4"/>
     <use xlink:href="#m1d761f208f" x="231.331066" y="101.417472" style="fill: #1f77b4; stroke: #1f77b4"/>
     <use xlink:href="#m1d761f208f" x="232.962495" y="97.291107" style="fill: #1f77b4; stroke: #1f77b4"/>
     <use xlink:href="#m1d761f208f" x="234.593925" y="92.763766" style="fill: #1f77b4; stroke: #1f77b4"/>
     <use xlink:href="#m1d761f208f" x="236.225355" y="119.895083" style="fill: #1f77b4; stroke: #1f77b4"/>
     <use xlink:href="#m1d761f208f" x="237.856785" y="121.026015" style="fill: #1f77b4; stroke: #1f77b4"/>
     <use xlink:href="#m1d761f208f" x="239.488215" y="104.772697" style="fill: #1f77b4; stroke: #1f77b4"/>
     <use xlink:href="#m1d761f208f" x="241.119645" y="72.577055" style="fill: #1f77b4; stroke: #1f77b4"/>
     <use xlink:href="#m1d761f208f" x="242.751075" y="111.839361" style="fill: #1f77b4; stroke: #1f77b4"/>
     <use xlink:href="#m1d761f208f" x="244.382505" y="91.339044" style="fill: #1f77b4; stroke: #1f77b4"/>
     <use xlink:href="#m1d761f208f" x="246.013934" y="130.038959" style="fill: #1f77b4; stroke: #1f77b4"/>
     <use xlink:href="#m1d761f208f" x="247.645364" y="94.262109" style="fill: #1f77b4; stroke: #1f77b4"/>
     <use xlink:href="#m1d761f208f" x="249.276794" y="86.845452" style="fill: #1f77b4; stroke: #1f77b4"/>
     <use xlink:href="#m1d761f208f" x="250.908224" y="73.036745" style="fill: #1f77b4; stroke: #1f77b4"/>
     <use xlink:href="#m1d761f208f" x="252.539654" y="119.431461" style="fill: #1f77b4; stroke: #1f77b4"/>
     <use xlink:href="#m1d761f208f" x="254.171084" y="107.329249" style="fill: #1f77b4; stroke: #1f77b4"/>
     <use xlink:href="#m1d761f208f" x="255.802514" y="111.345745" style="fill: #1f77b4; stroke: #1f77b4"/>
     <use xlink:href="#m1d761f208f" x="257.433944" y="86.773161" style="fill: #1f77b4; stroke: #1f77b4"/>
     <use xlink:href="#m1d761f208f" x="259.065373" y="90.185887" style="fill: #1f77b4; stroke: #1f77b4"/>
     <use xlink:href="#m1d761f208f" x="260.696803" y="131.76821" style="fill: #1f77b4; stroke: #1f77b4"/>
     <use xlink:href="#m1d761f208f" x="262.328233" y="107.889476" style="fill: #1f77b4; stroke: #1f77b4"/>
     <use xlink:href="#m1d761f208f" x="263.959663" y="88.079138" style="fill: #1f77b4; stroke: #1f77b4"/>
     <use xlink:href="#m1d761f208f" x="265.591093" y="110.950504" style="fill: #1f77b4; stroke: #1f77b4"/>
     <use xlink:href="#m1d761f208f" x="267.222523" y="101.150623" style="fill: #1f77b4; stroke: #1f77b4"/>
     <use xlink:href="#m1d761f208f" x="268.853953" y="80.951211" style="fill: #1f77b4; stroke: #1f77b4"/>
     <use xlink:href="#m1d761f208f" x="270.485383" y="118.720996" style="fill: #1f77b4; stroke: #1f77b4"/>
     <use xlink:href="#m1d761f208f" x="272.116812" y="72.142116" style="fill: #1f77b4; stroke: #1f77b4"/>
     <use xlink:href="#m1d761f208f" x="273.748242" y="87.101049" style="fill: #1f77b4; stroke: #1f77b4"/>
     <use xlink:href="#m1d761f208f" x="275.379672" y="75.521528" style="fill: #1f77b4; stroke: #1f77b4"/>
     <use xlink:href="#m1d761f208f" x="277.011102" y="72.455889" style="fill: #1f77b4; stroke: #1f77b4"/>
     <use xlink:href="#m1d761f208f" x="278.642532" y="85.93605" style="fill: #1f77b4; stroke: #1f77b4"/>
     <use xlink:href="#m1d761f208f" x="280.273962" y="86.265981" style="fill: #1f77b4; stroke: #1f77b4"/>
     <use xlink:href="#m1d761f208f" x="281.905392" y="66.058425" style="fill: #1f77b4; stroke: #1f77b4"/>
     <use xlink:href="#m1d761f208f" x="283.536822" y="91.948584" style="fill: #1f77b4; stroke: #1f77b4"/>
     <use xlink:href="#m1d761f208f" x="285.168251" y="74.805478" style="fill: #1f77b4; stroke: #1f77b4"/>
     <use xlink:href="#m1d761f208f" x="286.799681" y="83.657901" style="fill: #1f77b4; stroke: #1f77b4"/>
     <use xlink:href="#m1d761f208f" x="288.431111" y="109.497321" style="fill: #1f77b4; stroke: #1f77b4"/>
     <use xlink:href="#m1d761f208f" x="290.062541" y="118.182735" style="fill: #1f77b4; stroke: #1f77b4"/>
     <use xlink:href="#m1d761f208f" x="291.693971" y="72.107367" style="fill: #1f77b4; stroke: #1f77b4"/>
     <use xlink:href="#m1d761f208f" x="293.325401" y="91.812604" style="fill: #1f77b4; stroke: #1f77b4"/>
     <use xlink:href="#m1d761f208f" x="294.956831" y="107.855946" style="fill: #1f77b4; stroke: #1f77b4"/>
     <use xlink:href="#m1d761f208f" x="296.588261" y="94.890911" style="fill: #1f77b4; stroke: #1f77b4"/>
     <use xlink:href="#m1d761f208f" x="298.21969" y="71.08223" style="fill: #1f77b4; stroke: #1f77b4"/>
     <use xlink:href="#m1d761f208f" x="299.85112" y="98.251435" style="fill: #1f77b4; stroke: #1f77b4"/>
     <use xlink:href="#m1d761f208f" x="301.48255" y="107.981691" style="fill: #1f77b4; stroke: #1f77b4"/>
     <use xlink:href="#m1d761f208f" x="303.11398" y="94.405599" style="fill: #1f77b4; stroke: #1f77b4"/>
     <use xlink:href="#m1d761f208f" x="304.74541" y="107.532206" style="fill: #1f77b4; stroke: #1f77b4"/>
     <use xlink:href="#m1d761f208f" x="306.37684" y="70.21342" style="fill: #1f77b4; stroke: #1f77b4"/>
     <use xlink:href="#m1d761f208f" x="308.00827" y="80.640653" style="fill: #1f77b4; stroke: #1f77b4"/>
     <use xlink:href="#m1d761f208f" x="309.6397" y="107.338018" style="fill: #1f77b4; stroke: #1f77b4"/>
     <use xlink:href="#m1d761f208f" x="311.27113" y="82.302737" style="fill: #1f77b4; stroke: #1f77b4"/>
     <use xlink:href="#m1d761f208f" x="312.902559" y="77.798944" style="fill: #1f77b4; stroke: #1f77b4"/>
     <use xlink:href="#m1d761f208f" x="314.533989" y="92.50065" style="fill: #1f77b4; stroke: #1f77b4"/>
     <use xlink:href="#m1d761f208f" x="316.165419" y="84.783391" style="fill: #1f77b4; stroke: #1f77b4"/>
     <use xlink:href="#m1d761f208f" x="317.796849" y="60.674655" style="fill: #1f77b4; stroke: #1f77b4"/>
     <use xlink:href="#m1d761f208f" x="319.428279" y="94.895993" style="fill: #1f77b4; stroke: #1f77b4"/>
     <use xlink:href="#m1d761f208f" x="321.059709" y="92.796172" style="fill: #1f77b4; stroke: #1f77b4"/>
     <use xlink:href="#m1d761f208f" x="322.691139" y="101.398551" style="fill: #1f77b4; stroke: #1f77b4"/>
     <use xlink:href="#m1d761f208f" x="324.322569" y="74.215417" style="fill: #1f77b4; stroke: #1f77b4"/>
     <use xlink:href="#m1d761f208f" x="325.953998" y="93.759059" style="fill: #1f77b4; stroke: #1f77b4"/>
     <use xlink:href="#m1d761f208f" x="327.585428" y="87.469285" style="fill: #1f77b4; stroke: #1f77b4"/>
     <use xlink:href="#m1d761f208f" x="329.216858" y="47.258182" style="fill: #1f77b4; stroke: #1f77b4"/>
     <use xlink:href="#m1d761f208f" x="330.848288" y="93.530644" style="fill: #1f77b4; stroke: #1f77b4"/>
     <use xlink:href="#m1d761f208f" x="332.479718" y="78.371716" style="fill: #1f77b4; stroke: #1f77b4"/>
     <use xlink:href="#m1d761f208f" x="334.111148" y="98.39434" style="fill: #1f77b4; stroke: #1f77b4"/>
     <use xlink:href="#m1d761f208f" x="335.742578" y="107.844669" style="fill: #1f77b4; stroke: #1f77b4"/>
     <use xlink:href="#m1d761f208f" x="337.374008" y="103.501614" style="fill: #1f77b4; stroke: #1f77b4"/>
     <use xlink:href="#m1d761f208f" x="339.005437" y="85.90165" style="fill: #1f77b4; stroke: #1f77b4"/>
     <use xlink:href="#m1d761f208f" x="340.636867" y="76.625344" style="fill: #1f77b4; stroke: #1f77b4"/>
     <use xlink:href="#m1d761f208f" x="342.268297" y="107.12544" style="fill: #1f77b4; stroke: #1f77b4"/>
     <use xlink:href="#m1d761f208f" x="343.899727" y="96.646395" style="fill: #1f77b4; stroke: #1f77b4"/>
     <use xlink:href="#m1d761f208f" x="345.531157" y="73.514587" style="fill: #1f77b4; stroke: #1f77b4"/>
     <use xlink:href="#m1d761f208f" x="347.162587" y="79.460555" style="fill: #1f77b4; stroke: #1f77b4"/>
     <use xlink:href="#m1d761f208f" x="348.794017" y="87.213757" style="fill: #1f77b4; stroke: #1f77b4"/>
     <use xlink:href="#m1d761f208f" x="350.425447" y="85.107964" style="fill: #1f77b4; stroke: #1f77b4"/>
     <use xlink:href="#m1d761f208f" x="352.056876" y="76.10433" style="fill: #1f77b4; stroke: #1f77b4"/>
     <use xlink:href="#m1d761f208f" x="353.688306" y="108.784154" style="fill: #1f77b4; stroke: #1f77b4"/>
     <use xlink:href="#m1d761f208f" x="355.319736" y="93.375158" style="fill: #1f77b4; stroke: #1f77b4"/>
     <use xlink:href="#m1d761f208f" x="356.951166" y="86.713384" style="fill: #1f77b4; stroke: #1f77b4"/>
     <use xlink:href="#m1d761f208f" x="358.582596" y="66.826785" style="fill: #1f77b4; stroke: #1f77b4"/>
     <use xlink:href="#m1d761f208f" x="360.214026" y="85.293157" style="fill: #1f77b4; stroke: #1f77b4"/>
     <use xlink:href="#m1d761f208f" x="361.845456" y="72.833344" style="fill: #1f77b4; stroke: #1f77b4"/>
     <use xlink:href="#m1d761f208f" x="363.476886" y="101.92711" style="fill: #1f77b4; stroke: #1f77b4"/>
     <use xlink:href="#m1d761f208f" x="365.108315" y="88.318216" style="fill: #1f77b4; stroke: #1f77b4"/>
     <use xlink:href="#m1d761f208f" x="366.739745" y="93.460311" style="fill: #1f77b4; stroke: #1f77b4"/>
     <use xlink:href="#m1d761f208f" x="368.371175" y="75.501218" style="fill: #1f77b4; stroke: #1f77b4"/>
     <use xlink:href="#m1d761f208f" x="370.002605" y="98.041645" style="fill: #1f77b4; stroke: #1f77b4"/>
     <use xlink:href="#m1d761f208f" x="371.634035" y="78.298817" style="fill: #1f77b4; stroke: #1f77b4"/>
     <use xlink:href="#m1d761f208f" x="373.265465" y="65.268993" style="fill: #1f77b4; stroke: #1f77b4"/>
     <use xlink:href="#m1d761f208f" x="374.896895" y="73.993874" style="fill: #1f77b4; stroke: #1f77b4"/>
     <use xlink:href="#m1d761f208f" x="376.528325" y="73.478353" style="fill: #1f77b4; stroke: #1f77b4"/>
     <use xlink:href="#m1d761f208f" x="378.159754" y="86.355967" style="fill: #1f77b4; stroke: #1f77b4"/>
     <use xlink:href="#m1d761f208f" x="379.791184" y="129.071277" style="fill: #1f77b4; stroke: #1f77b4"/>
     <use xlink:href="#m1d761f208f" x="381.422614" y="85.615299" style="fill: #1f77b4; stroke: #1f77b4"/>
     <use xlink:href="#m1d761f208f" x="383.054044" y="117.578835" style="fill: #1f77b4; stroke: #1f77b4"/>
     <use xlink:href="#m1d761f208f" x="384.685474" y="70.544413" style="fill: #1f77b4; stroke: #1f77b4"/>
     <use xlink:href="#m1d761f208f" x="386.316904" y="87.946262" style="fill: #1f77b4; stroke: #1f77b4"/>
     <use xlink:href="#m1d761f208f" x="387.948334" y="124.657817" style="fill: #1f77b4; stroke: #1f77b4"/>
     <use xlink:href="#m1d761f208f" x="389.579764" y="97.286319" style="fill: #1f77b4; stroke: #1f77b4"/>
     <use xlink:href="#m1d761f208f" x="391.211193" y="76.975906" style="fill: #1f77b4; stroke: #1f77b4"/>
     <use xlink:href="#m1d761f208f" x="392.842623" y="84.772718" style="fill: #1f77b4; stroke: #1f77b4"/>
     <use xlink:href="#m1d761f208f" x="394.474053" y="109.966501" style="fill: #1f77b4; stroke: #1f77b4"/>
     <use xlink:href="#m1d761f208f" x="396.105483" y="65.077123" style="fill: #1f77b4; stroke: #1f77b4"/>
     <use xlink:href="#m1d761f208f" x="397.736913" y="85.632213" style="fill: #1f77b4; stroke: #1f77b4"/>
     <use xlink:href="#m1d761f208f" x="399.368343" y="110.340584" style="fill: #1f77b4; stroke: #1f77b4"/>
     <use xlink:href="#m1d761f208f" x="400.999773" y="98.950897" style="fill: #1f77b4; stroke: #1f77b4"/>
    </g>
   </g>
   <g id="line2d_11">
    <path d="M 76.345227 115.439346 
L 93.894122 114.581487 
L 110.793057 113.534063 
L 128.341951 112.223319 
L 148.815661 110.462009 
L 188.463163 106.757574 
L 215.761443 104.344077 
L 238.185031 102.583864 
L 260.608618 101.048004 
L 284.332123 99.648077 
L 310.980444 98.302878 
L 342.178479 96.956663 
L 381.176022 95.506758 
L 400.999773 94.835597 
L 400.999773 94.835597 
" clip-path="url(#pb8968af0b9)" style="fill: none; stroke: #d62728; stroke-width: 1.5; stroke-linecap: square"/>
   </g>
   <g id="patch_3">
    <path d="M 60.1125 162.72 
L 60.1125 41.76 
" style="fill: none; stroke: #000000; stroke-width: 0.8; stroke-linejoin: miter; stroke-linecap: square"/>
   </g>
   <g id="patch_4">
    <path d="M 417.2325 162.72 
L 417.2325 41.76 
" style="fill: none; stroke: #000000; stroke-width: 0.8; stroke-linejoin: miter; stroke-linecap: square"/>
   </g>
   <g id="patch_5">
    <path d="M 60.1125 162.72 
L 417.2325 162.72 
" style="fill: none; stroke: #000000; stroke-width: 0.8; stroke-linejoin: miter; stroke-linecap: square"/>
   </g>
   <g id="patch_6">
    <path d="M 60.1125 41.76 
L 417.2325 41.76 
" style="fill: none; stroke: #000000; stroke-width: 0.8; stroke-linejoin: miter; stroke-linecap: square"/>
   </g>
   <g id="text_6">
    <g id="patch_7">
     <path d="M 435.0885 95.079562 
L 558.3885 95.079562 
Q 562.3885 95.079562 562.3885 91.079562 
L 562.3885 47.808 
Q 562.3885 43.808 558.3885 43.808 
L 435.0885 43.808 
Q 431.0885 43.808 431.0885 47.808 
L 431.0885 91.079562 
Q 431.0885 95.079562 435.0885 95.079562 
z
" style="fill: #ffffff; opacity: 0.5; stroke: #000000; stroke-linejoin: miter"/>
    </g>
    <!-- Summary -->
    <g transform="translate(435.0885 55.406437) scale(0.1 -0.1)">
     <defs>
      <path id="DejaVuSans-53" d="M 3425 4513 
L 3425 3897 
Q 3066 4069 2747 4153 
Q 2428 4238 2131 4238 
Q 1616 4238 1336 4038 
Q 1056 3838 1056 3469 
Q 1056 3159 1242 3001 
Q 1428 2844 1947 2747 
L 2328 2669 
Q 3034 2534 3370 2195 
Q 3706 1856 3706 1288 
Q 3706 609 3251 259 
Q 2797 -91 1919 -91 
Q 1588 -91 1214 -16 
Q 841 59 441 206 
L 441 856 
Q 825 641 1194 531 
Q 1563 422 1919 422 
Q 2459 422 2753 634 
Q 3047 847 3047 1241 
Q 3047 1584 2836 1778 
Q 2625 1972 2144 2069 
L 1759 2144 
Q 1053 2284 737 2584 
Q 422 2884 422 3419 
Q 422 4038 858 4394 
Q 1294 4750 2059 4750 
Q 2388 4750 2728 4690 
Q 3069 4631 3425 4513 
z
" transform="scale(0.015625)"/>
      <path id="DejaVuSans-75" d="M 544 1381 
L 544 3500 
L 1119 3500 
L 1119 1403 
Q 1119 906 1312 657 
Q 1506 409 1894 409 
Q 2359 409 2629 706 
Q 2900 1003 2900 1516 
L 2900 3500 
L 3475 3500 
L 3475 0 
L 2900 0 
L 2900 538 
Q 2691 219 2414 64 
Q 2138 -91 1772 -91 
Q 1169 -91 856 284 
Q 544 659 544 1381 
z
M 1991 3584 
L 1991 3584 
z
" transform="scale(0.015625)"/>
      <path id="DejaVuSans-6d" d="M 3328 2828 
Q 3544 3216 3844 3400 
Q 4144 3584 4550 3584 
Q 5097 3584 5394 3201 
Q 5691 2819 5691 2113 
L 5691 0 
L 5113 0 
L 5113 2094 
Q 5113 2597 4934 2840 
Q 4756 3084 4391 3084 
Q 3944 3084 3684 2787 
Q 3425 2491 3425 1978 
L 3425 0 
L 2847 0 
L 2847 2094 
Q 2847 2600 2669 2842 
Q 2491 3084 2119 3084 
Q 1678 3084 1418 2786 
Q 1159 2488 1159 1978 
L 1159 0 
L 581 0 
L 581 3500 
L 1159 3500 
L 1159 2956 
Q 1356 3278 1631 3431 
Q 1906 3584 2284 3584 
Q 2666 3584 2933 3390 
Q 3200 3197 3328 2828 
z
" transform="scale(0.015625)"/>
      <path id="DejaVuSans-61" d="M 2194 1759 
Q 1497 1759 1228 1600 
Q 959 1441 959 1056 
Q 959 750 1161 570 
Q 1363 391 1709 391 
Q 2188 391 2477 730 
Q 2766 1069 2766 1631 
L 2766 1759 
L 2194 1759 
z
M 3341 1997 
L 3341 0 
L 2766 0 
L 2766 531 
Q 2569 213 2275 61 
Q 1981 -91 1556 -91 
Q 1019 -91 701 211 
Q 384 513 384 1019 
Q 384 1609 779 1909 
Q 1175 2209 1959 2209 
L 2766 2209 
L 2766 2266 
Q 2766 2663 2505 2880 
Q 2244 3097 1772 3097 
Q 1472 3097 1187 3025 
Q 903 2953 641 2809 
L 641 3341 
Q 956 3463 1253 3523 
Q 1550 3584 1831 3584 
Q 2591 3584 2966 3190 
Q 3341 2797 3341 1997 
z
" transform="scale(0.015625)"/>
      <path id="DejaVuSans-72" d="M 2631 2963 
Q 2534 3019 2420 3045 
Q 2306 3072 2169 3072 
Q 1681 3072 1420 2755 
Q 1159 2438 1159 1844 
L 1159 0 
L 581 0 
L 581 3500 
L 1159 3500 
L 1159 2956 
Q 1341 3275 1631 3429 
Q 1922 3584 2338 3584 
Q 2397 3584 2469 3576 
Q 2541 3569 2628 3553 
L 2631 2963 
z
" transform="scale(0.015625)"/>
      <path id="DejaVuSans-79" d="M 2059 -325 
Q 1816 -950 1584 -1140 
Q 1353 -1331 966 -1331 
L 506 -1331 
L 506 -850 
L 844 -850 
Q 1081 -850 1212 -737 
Q 1344 -625 1503 -206 
L 1606 56 
L 191 3500 
L 800 3500 
L 1894 763 
L 2988 3500 
L 3597 3500 
L 2059 -325 
z
" transform="scale(0.015625)"/>
     </defs>
     <use xlink:href="#DejaVuSans-53"/>
     <use xlink:href="#DejaVuSans-75" x="63.476562"/>
     <use xlink:href="#DejaVuSans-6d" x="126.855469"/>
     <use xlink:href="#DejaVuSans-6d" x="224.267578"/>
     <use xlink:href="#DejaVuSans-61" x="321.679688"/>
     <use xlink:href="#DejaVuSans-72" x="382.958984"/>
     <use xlink:href="#DejaVuSans-79" x="424.072266"/>
    </g>
    <!-- $Q_I$: 6.0e+02$\pm$1.4e+03  -->
    <g transform="translate(435.0885 66.60425) scale(0.1 -0.1)">
     <defs>
      <path id="DejaVuSans-Oblique-51" d="M 2309 -84 
Q 2275 -88 2237 -89 
Q 2200 -91 2125 -91 
Q 1250 -91 756 411 
Q 263 913 263 1797 
Q 263 2319 452 2844 
Q 641 3369 978 3788 
Q 1369 4269 1858 4509 
Q 2347 4750 2938 4750 
Q 3794 4750 4287 4245 
Q 4781 3741 4781 2869 
Q 4781 1928 4265 1147 
Q 3750 366 2919 44 
L 3553 -825 
L 2847 -825 
L 2309 -84 
z
M 2919 4238 
Q 2400 4238 2003 3986 
Q 1606 3734 1313 3219 
Q 1125 2891 1026 2522 
Q 928 2153 928 1778 
Q 928 1128 1239 775 
Q 1550 422 2119 422 
Q 2631 422 3032 676 
Q 3434 931 3719 1434 
Q 3909 1772 4009 2142 
Q 4109 2513 4109 2881 
Q 4109 3528 3796 3883 
Q 3484 4238 2919 4238 
z
" transform="scale(0.015625)"/>
      <path id="DejaVuSans-Oblique-49" d="M 1081 4666 
L 1716 4666 
L 806 0 
L 172 0 
L 1081 4666 
z
" transform="scale(0.015625)"/>
      <path id="DejaVuSans-3a" d="M 750 794 
L 1409 794 
L 1409 0 
L 750 0 
L 750 794 
z
M 750 3309 
L 1409 3309 
L 1409 2516 
L 750 2516 
L 750 3309 
z
" transform="scale(0.015625)"/>
      <path id="DejaVuSans-36" d="M 2113 2584 
Q 1688 2584 1439 2293 
Q 1191 2003 1191 1497 
Q 1191 994 1439 701 
Q 1688 409 2113 409 
Q 2538 409 2786 701 
Q 3034 994 3034 1497 
Q 3034 2003 2786 2293 
Q 2538 2584 2113 2584 
z
M 3366 4563 
L 3366 3988 
Q 3128 4100 2886 4159 
Q 2644 4219 2406 4219 
Q 1781 4219 1451 3797 
Q 1122 3375 1075 2522 
Q 1259 2794 1537 2939 
Q 1816 3084 2150 3084 
Q 2853 3084 3261 2657 
Q 3669 2231 3669 1497 
Q 3669 778 3244 343 
Q 2819 -91 2113 -91 
Q 1303 -91 875 529 
Q 447 1150 447 2328 
Q 447 3434 972 4092 
Q 1497 4750 2381 4750 
Q 2619 4750 2861 4703 
Q 3103 4656 3366 4563 
z
" transform="scale(0.015625)"/>
      <path id="DejaVuSans-2e" d="M 684 794 
L 1344 794 
L 1344 0 
L 684 0 
L 684 794 
z
" transform="scale(0.015625)"/>
      <path id="DejaVuSans-65" d="M 3597 1894 
L 3597 1613 
L 953 1613 
Q 991 1019 1311 708 
Q 1631 397 2203 397 
Q 2534 397 2845 478 
Q 3156 559 3463 722 
L 3463 178 
Q 3153 47 2828 -22 
Q 2503 -91 2169 -91 
Q 1331 -91 842 396 
Q 353 884 353 1716 
Q 353 2575 817 3079 
Q 1281 3584 2069 3584 
Q 2775 3584 3186 3129 
Q 3597 2675 3597 1894 
z
M 3022 2063 
Q 3016 2534 2758 2815 
Q 2500 3097 2075 3097 
Q 1594 3097 1305 2825 
Q 1016 2553 972 2059 
L 3022 2063 
z
" transform="scale(0.015625)"/>
      <path id="DejaVuSans-2b" d="M 2944 4013 
L 2944 2272 
L 4684 2272 
L 4684 1741 
L 2944 1741 
L 2944 0 
L 2419 0 
L 2419 1741 
L 678 1741 
L 678 2272 
L 2419 2272 
L 2419 4013 
L 2944 4013 
z
" transform="scale(0.015625)"/>
      <path id="DejaVuSans-b1" d="M 2944 4013 
L 2944 2803 
L 4684 2803 
L 4684 2272 
L 2944 2272 
L 2944 1063 
L 2419 1063 
L 2419 2272 
L 678 2272 
L 678 2803 
L 2419 2803 
L 2419 4013 
L 2944 4013 
z
M 678 531 
L 4684 531 
L 4684 0 
L 678 0 
L 678 531 
z
" transform="scale(0.015625)"/>
      <path id="DejaVuSans-34" d="M 2419 4116 
L 825 1625 
L 2419 1625 
L 2419 4116 
z
M 2253 4666 
L 3047 4666 
L 3047 1625 
L 3713 1625 
L 3713 1100 
L 3047 1100 
L 3047 0 
L 2419 0 
L 2419 1100 
L 313 1100 
L 313 1709 
L 2253 4666 
z
" transform="scale(0.015625)"/>
      <path id="DejaVuSans-33" d="M 2597 2516 
Q 3050 2419 3304 2112 
Q 3559 1806 3559 1356 
Q 3559 666 3084 287 
Q 2609 -91 1734 -91 
Q 1441 -91 1130 -33 
Q 819 25 488 141 
L 488 750 
Q 750 597 1062 519 
Q 1375 441 1716 441 
Q 2309 441 2620 675 
Q 2931 909 2931 1356 
Q 2931 1769 2642 2001 
Q 2353 2234 1838 2234 
L 1294 2234 
L 1294 2753 
L 1863 2753 
Q 2328 2753 2575 2939 
Q 2822 3125 2822 3475 
Q 2822 3834 2567 4026 
Q 2313 4219 1838 4219 
Q 1578 4219 1281 4162 
Q 984 4106 628 3988 
L 628 4550 
Q 988 4650 1302 4700 
Q 1616 4750 1894 4750 
Q 2613 4750 3031 4423 
Q 3450 4097 3450 3541 
Q 3450 3153 3228 2886 
Q 3006 2619 2597 2516 
z
" transform="scale(0.015625)"/>
     </defs>
     <use xlink:href="#DejaVuSans-Oblique-51" transform="translate(0 0.78125)"/>
     <use xlink:href="#DejaVuSans-Oblique-49" transform="translate(78.710938 -15.625) scale(0.7)"/>
     <use xlink:href="#DejaVuSans-3a" transform="translate(102.089844 0.78125)"/>
     <use xlink:href="#DejaVuSans-20" transform="translate(135.78125 0.78125)"/>
     <use xlink:href="#DejaVuSans-36" transform="translate(167.568359 0.78125)"/>
     <use xlink:href="#DejaVuSans-2e" transform="translate(231.191406 0.78125)"/>
     <use xlink:href="#DejaVuSans-30" transform="translate(262.978516 0.78125)"/>
     <use xlink:href="#DejaVuSans-65" transform="translate(326.601562 0.78125)"/>
     <use xlink:href="#DejaVuSans-2b" transform="translate(388.125 0.78125)"/>
     <use xlink:href="#DejaVuSans-30" transform="translate(471.914062 0.78125)"/>
     <use xlink:href="#DejaVuSans-32" transform="translate(535.537109 0.78125)"/>
     <use xlink:href="#DejaVuSans-b1" transform="translate(599.160156 0.78125)"/>
     <use xlink:href="#DejaVuSans-31" transform="translate(682.949219 0.78125)"/>
     <use xlink:href="#DejaVuSans-2e" transform="translate(746.572266 0.78125)"/>
     <use xlink:href="#DejaVuSans-34" transform="translate(778.359375 0.78125)"/>
     <use xlink:href="#DejaVuSans-65" transform="translate(841.982422 0.78125)"/>
     <use xlink:href="#DejaVuSans-2b" transform="translate(903.505859 0.78125)"/>
     <use xlink:href="#DejaVuSans-30" transform="translate(987.294922 0.78125)"/>
     <use xlink:href="#DejaVuSans-33" transform="translate(1050.917969 0.78125)"/>
     <use xlink:href="#DejaVuSans-20" transform="translate(1114.541016 0.78125)"/>
    </g>
    <!-- $Q_C$: 5.3e+02$\pm$4.4e+03 k -->
    <g transform="translate(435.0885 77.802062) scale(0.1 -0.1)">
     <defs>
      <path id="DejaVuSans-Oblique-43" d="M 4447 4306 
L 4319 3641 
Q 4019 3944 3683 4091 
Q 3347 4238 2956 4238 
Q 2422 4238 2017 3981 
Q 1613 3725 1319 3200 
Q 1131 2863 1032 2486 
Q 934 2109 934 1728 
Q 934 1091 1264 756 
Q 1594 422 2222 422 
Q 2656 422 3056 561 
Q 3456 700 3834 978 
L 3688 231 
Q 3316 72 2936 -9 
Q 2556 -91 2175 -91 
Q 1278 -91 773 396 
Q 269 884 269 1753 
Q 269 2309 461 2846 
Q 653 3384 1013 3828 
Q 1394 4300 1883 4525 
Q 2372 4750 3022 4750 
Q 3422 4750 3780 4639 
Q 4138 4528 4447 4306 
z
" transform="scale(0.015625)"/>
      <path id="DejaVuSans-6b" d="M 581 4863 
L 1159 4863 
L 1159 1991 
L 2875 3500 
L 3609 3500 
L 1753 1863 
L 3688 0 
L 2938 0 
L 1159 1709 
L 1159 0 
L 581 0 
L 581 4863 
z
" transform="scale(0.015625)"/>
     </defs>
     <use xlink:href="#DejaVuSans-Oblique-51" transform="translate(0 0.015625)"/>
     <use xlink:href="#DejaVuSans-Oblique-43" transform="translate(78.710938 -16.390625) scale(0.7)"/>
     <use xlink:href="#DejaVuSans-3a" transform="translate(130.322266 0.015625)"/>
     <use xlink:href="#DejaVuSans-20" transform="translate(164.013672 0.015625)"/>
     <use xlink:href="#DejaVuSans-35" transform="translate(195.800781 0.015625)"/>
     <use xlink:href="#DejaVuSans-2e" transform="translate(259.423828 0.015625)"/>
     <use xlink:href="#DejaVuSans-33" transform="translate(291.210938 0.015625)"/>
     <use xlink:href="#DejaVuSans-65" transform="translate(354.833984 0.015625)"/>
     <use xlink:href="#DejaVuSans-2b" transform="translate(416.357422 0.015625)"/>
     <use xlink:href="#DejaVuSans-30" transform="translate(500.146484 0.015625)"/>
     <use xlink:href="#DejaVuSans-32" transform="translate(563.769531 0.015625)"/>
     <use xlink:href="#DejaVuSans-b1" transform="translate(627.392578 0.015625)"/>
     <use xlink:href="#DejaVuSans-34" transform="translate(711.181641 0.015625)"/>
     <use xlink:href="#DejaVuSans-2e" transform="translate(774.804688 0.015625)"/>
     <use xlink:href="#DejaVuSans-34" transform="translate(806.591797 0.015625)"/>
     <use xlink:href="#DejaVuSans-65" transform="translate(870.214844 0.015625)"/>
     <use xlink:href="#DejaVuSans-2b" transform="translate(931.738281 0.015625)"/>
     <use xlink:href="#DejaVuSans-30" transform="translate(1015.527344 0.015625)"/>
     <use xlink:href="#DejaVuSans-33" transform="translate(1079.150391 0.015625)"/>
     <use xlink:href="#DejaVuSans-20" transform="translate(1142.773438 0.015625)"/>
     <use xlink:href="#DejaVuSans-6b" transform="translate(1174.560547 0.015625)"/>
    </g>
    <!-- $f_{res}$: 5.897$\pm$0.011 GHz -->
    <g transform="translate(435.0885 88.999875) scale(0.1 -0.1)">
     <defs>
      <path id="DejaVuSans-Oblique-66" d="M 3059 4863 
L 2969 4384 
L 2419 4384 
Q 2106 4384 1964 4261 
Q 1822 4138 1753 3809 
L 1691 3500 
L 2638 3500 
L 2553 3053 
L 1606 3053 
L 1013 0 
L 434 0 
L 1031 3053 
L 481 3053 
L 563 3500 
L 1113 3500 
L 1159 3744 
Q 1278 4363 1576 4613 
Q 1875 4863 2516 4863 
L 3059 4863 
z
" transform="scale(0.015625)"/>
      <path id="DejaVuSans-Oblique-72" d="M 2853 2969 
Q 2766 3016 2653 3041 
Q 2541 3066 2413 3066 
Q 1953 3066 1609 2717 
Q 1266 2369 1153 1784 
L 800 0 
L 225 0 
L 909 3500 
L 1484 3500 
L 1375 2956 
Q 1603 3259 1920 3421 
Q 2238 3584 2597 3584 
Q 2691 3584 2781 3573 
Q 2872 3563 2963 3538 
L 2853 2969 
z
" transform="scale(0.015625)"/>
      <path id="DejaVuSans-Oblique-65" d="M 3078 2063 
Q 3088 2113 3092 2166 
Q 3097 2219 3097 2272 
Q 3097 2653 2873 2875 
Q 2650 3097 2266 3097 
Q 1838 3097 1509 2826 
Q 1181 2556 1013 2059 
L 3078 2063 
z
M 3578 1613 
L 903 1613 
Q 884 1494 878 1425 
Q 872 1356 872 1306 
Q 872 872 1139 634 
Q 1406 397 1894 397 
Q 2269 397 2603 481 
Q 2938 566 3225 728 
L 3116 159 
Q 2806 34 2476 -28 
Q 2147 -91 1806 -91 
Q 1078 -91 686 257 
Q 294 606 294 1247 
Q 294 1794 489 2264 
Q 684 2734 1063 3103 
Q 1306 3334 1642 3459 
Q 1978 3584 2356 3584 
Q 2950 3584 3301 3228 
Q 3653 2872 3653 2272 
Q 3653 2128 3634 1964 
Q 3616 1800 3578 1613 
z
" transform="scale(0.015625)"/>
      <path id="DejaVuSans-Oblique-73" d="M 3200 3397 
L 3091 2853 
Q 2863 2978 2609 3040 
Q 2356 3103 2088 3103 
Q 1634 3103 1373 2948 
Q 1113 2794 1113 2528 
Q 1113 2219 1719 2053 
Q 1766 2041 1788 2034 
L 1972 1978 
Q 2547 1819 2739 1644 
Q 2931 1469 2931 1166 
Q 2931 609 2489 259 
Q 2047 -91 1331 -91 
Q 1053 -91 747 -37 
Q 441 16 72 128 
L 184 722 
Q 500 559 806 475 
Q 1113 391 1394 391 
Q 1816 391 2080 572 
Q 2344 753 2344 1031 
Q 2344 1331 1650 1516 
L 1591 1531 
L 1394 1581 
Q 956 1697 753 1886 
Q 550 2075 550 2369 
Q 550 2928 970 3256 
Q 1391 3584 2113 3584 
Q 2397 3584 2667 3537 
Q 2938 3491 3200 3397 
z
" transform="scale(0.015625)"/>
      <path id="DejaVuSans-38" d="M 2034 2216 
Q 1584 2216 1326 1975 
Q 1069 1734 1069 1313 
Q 1069 891 1326 650 
Q 1584 409 2034 409 
Q 2484 409 2743 651 
Q 3003 894 3003 1313 
Q 3003 1734 2745 1975 
Q 2488 2216 2034 2216 
z
M 1403 2484 
Q 997 2584 770 2862 
Q 544 3141 544 3541 
Q 544 4100 942 4425 
Q 1341 4750 2034 4750 
Q 2731 4750 3128 4425 
Q 3525 4100 3525 3541 
Q 3525 3141 3298 2862 
Q 3072 2584 2669 2484 
Q 3125 2378 3379 2068 
Q 3634 1759 3634 1313 
Q 3634 634 3220 271 
Q 2806 -91 2034 -91 
Q 1263 -91 848 271 
Q 434 634 434 1313 
Q 434 1759 690 2068 
Q 947 2378 1403 2484 
z
M 1172 3481 
Q 1172 3119 1398 2916 
Q 1625 2713 2034 2713 
Q 2441 2713 2670 2916 
Q 2900 3119 2900 3481 
Q 2900 3844 2670 4047 
Q 2441 4250 2034 4250 
Q 1625 4250 1398 4047 
Q 1172 3844 1172 3481 
z
" transform="scale(0.015625)"/>
      <path id="DejaVuSans-39" d="M 703 97 
L 703 672 
Q 941 559 1184 500 
Q 1428 441 1663 441 
Q 2288 441 2617 861 
Q 2947 1281 2994 2138 
Q 2813 1869 2534 1725 
Q 2256 1581 1919 1581 
Q 1219 1581 811 2004 
Q 403 2428 403 3163 
Q 403 3881 828 4315 
Q 1253 4750 1959 4750 
Q 2769 4750 3195 4129 
Q 3622 3509 3622 2328 
Q 3622 1225 3098 567 
Q 2575 -91 1691 -91 
Q 1453 -91 1209 -44 
Q 966 3 703 97 
z
M 1959 2075 
Q 2384 2075 2632 2365 
Q 2881 2656 2881 3163 
Q 2881 3666 2632 3958 
Q 2384 4250 1959 4250 
Q 1534 4250 1286 3958 
Q 1038 3666 1038 3163 
Q 1038 2656 1286 2365 
Q 1534 2075 1959 2075 
z
" transform="scale(0.015625)"/>
      <path id="DejaVuSans-37" d="M 525 4666 
L 3525 4666 
L 3525 4397 
L 1831 0 
L 1172 0 
L 2766 4134 
L 525 4134 
L 525 4666 
z
" transform="scale(0.015625)"/>
      <path id="DejaVuSans-47" d="M 3809 666 
L 3809 1919 
L 2778 1919 
L 2778 2438 
L 4434 2438 
L 4434 434 
Q 4069 175 3628 42 
Q 3188 -91 2688 -91 
Q 1594 -91 976 548 
Q 359 1188 359 2328 
Q 359 3472 976 4111 
Q 1594 4750 2688 4750 
Q 3144 4750 3555 4637 
Q 3966 4525 4313 4306 
L 4313 3634 
Q 3963 3931 3569 4081 
Q 3175 4231 2741 4231 
Q 1884 4231 1454 3753 
Q 1025 3275 1025 2328 
Q 1025 1384 1454 906 
Q 1884 428 2741 428 
Q 3075 428 3337 486 
Q 3600 544 3809 666 
z
" transform="scale(0.015625)"/>
      <path id="DejaVuSans-48" d="M 628 4666 
L 1259 4666 
L 1259 2753 
L 3553 2753 
L 3553 4666 
L 4184 4666 
L 4184 0 
L 3553 0 
L 3553 2222 
L 1259 2222 
L 1259 0 
L 628 0 
L 628 4666 
z
" transform="scale(0.015625)"/>
      <path id="DejaVuSans-7a" d="M 353 3500 
L 3084 3500 
L 3084 2975 
L 922 459 
L 3084 459 
L 3084 0 
L 275 0 
L 275 525 
L 2438 3041 
L 353 3041 
L 353 3500 
z
" transform="scale(0.015625)"/>
     </defs>
     <use xlink:href="#DejaVuSans-Oblique-66" transform="translate(0 0.015625)"/>
     <use xlink:href="#DejaVuSans-Oblique-72" transform="translate(35.205078 -16.390625) scale(0.7)"/>
     <use xlink:href="#DejaVuSans-Oblique-65" transform="translate(63.984375 -16.390625) scale(0.7)"/>
     <use xlink:href="#DejaVuSans-Oblique-73" transform="translate(107.050781 -16.390625) scale(0.7)"/>
     <use xlink:href="#DejaVuSans-3a" transform="translate(146.254883 0.015625)"/>
     <use xlink:href="#DejaVuSans-20" transform="translate(179.946289 0.015625)"/>
     <use xlink:href="#DejaVuSans-35" transform="translate(211.733398 0.015625)"/>
     <use xlink:href="#DejaVuSans-2e" transform="translate(275.356445 0.015625)"/>
     <use xlink:href="#DejaVuSans-38" transform="translate(304.518555 0.015625)"/>
     <use xlink:href="#DejaVuSans-39" transform="translate(368.141602 0.015625)"/>
     <use xlink:href="#DejaVuSans-37" transform="translate(431.764648 0.015625)"/>
     <use xlink:href="#DejaVuSans-b1" transform="translate(495.387695 0.015625)"/>
     <use xlink:href="#DejaVuSans-30" transform="translate(579.176758 0.015625)"/>
     <use xlink:href="#DejaVuSans-2e" transform="translate(642.799805 0.015625)"/>
     <use xlink:href="#DejaVuSans-30" transform="translate(674.586914 0.015625)"/>
     <use xlink:href="#DejaVuSans-31" transform="translate(738.209961 0.015625)"/>
     <use xlink:href="#DejaVuSans-31" transform="translate(801.833008 0.015625)"/>
     <use xlink:href="#DejaVuSans-20" transform="translate(865.456055 0.015625)"/>
     <use xlink:href="#DejaVuSans-47" transform="translate(897.243164 0.015625)"/>
     <use xlink:href="#DejaVuSans-48" transform="translate(974.733398 0.015625)"/>
     <use xlink:href="#DejaVuSans-7a" transform="translate(1049.928711 0.015625)"/>
    </g>
   </g>
  </g>
  <g id="axes_2">
   <g id="patch_8">
    <path d="M 60.1125 307.872 
L 417.2325 307.872 
L 417.2325 186.912 
L 60.1125 186.912 
z
" style="fill: #ffffff"/>
   </g>
   <g id="matplotlib.axis_3">
    <g id="xtick_6">
     <g id="line2d_12">
      <g>
       <use xlink:href="#mb15bc52057" x="108.810682" y="307.872" style="stroke: #000000; stroke-width: 0.8"/>
      </g>
     </g>
     <g id="text_7">
      <!-- 896 -->
      <g transform="translate(99.266932 322.470438) scale(0.1 -0.1)">
       <use xlink:href="#DejaVuSans-38"/>
       <use xlink:href="#DejaVuSans-39" x="63.623047"/>
       <use xlink:href="#DejaVuSans-36" x="127.246094"/>
      </g>
     </g>
    </g>
    <g id="xtick_7">
     <g id="line2d_13">
      <g>
       <use xlink:href="#mb15bc52057" x="173.741591" y="307.872" style="stroke: #000000; stroke-width: 0.8"/>
      </g>
     </g>
     <g id="text_8">
      <!-- 898 -->
      <g transform="translate(164.197841 322.470438) scale(0.1 -0.1)">
       <use xlink:href="#DejaVuSans-38"/>
       <use xlink:href="#DejaVuSans-39" x="63.623047"/>
       <use xlink:href="#DejaVuSans-38" x="127.246094"/>
      </g>
     </g>
    </g>
    <g id="xtick_8">
     <g id="line2d_14">
      <g>
       <use xlink:href="#mb15bc52057" x="238.6725" y="307.872" style="stroke: #000000; stroke-width: 0.8"/>
      </g>
     </g>
     <g id="text_9">
      <!-- 900 -->
      <g transform="translate(229.12875 322.470438) scale(0.1 -0.1)">
       <use xlink:href="#DejaVuSans-39"/>
       <use xlink:href="#DejaVuSans-30" x="63.623047"/>
       <use xlink:href="#DejaVuSans-30" x="127.246094"/>
      </g>
     </g>
    </g>
    <g id="xtick_9">
     <g id="line2d_15">
      <g>
       <use xlink:href="#mb15bc52057" x="303.603409" y="307.872" style="stroke: #000000; stroke-width: 0.8"/>
      </g>
     </g>
     <g id="text_10">
      <!-- 902 -->
      <g transform="translate(294.059659 322.470438) scale(0.1 -0.1)">
       <use xlink:href="#DejaVuSans-39"/>
       <use xlink:href="#DejaVuSans-30" x="63.623047"/>
       <use xlink:href="#DejaVuSans-32" x="127.246094"/>
      </g>
     </g>
    </g>
    <g id="xtick_10">
     <g id="line2d_16">
      <g>
       <use xlink:href="#mb15bc52057" x="368.534318" y="307.872" style="stroke: #000000; stroke-width: 0.8"/>
      </g>
     </g>
     <g id="text_11">
      <!-- 904 -->
      <g transform="translate(358.990568 322.470438) scale(0.1 -0.1)">
       <use xlink:href="#DejaVuSans-39"/>
       <use xlink:href="#DejaVuSans-30" x="63.623047"/>
       <use xlink:href="#DejaVuSans-34" x="127.246094"/>
      </g>
     </g>
    </g>
    <g id="text_12">
     <!-- Frequency [MHz] -->
     <g transform="translate(196.65375 336.148562) scale(0.1 -0.1)">
      <defs>
       <path id="DejaVuSans-46" d="M 628 4666 
L 3309 4666 
L 3309 4134 
L 1259 4134 
L 1259 2759 
L 3109 2759 
L 3109 2228 
L 1259 2228 
L 1259 0 
L 628 0 
L 628 4666 
z
" transform="scale(0.015625)"/>
       <path id="DejaVuSans-71" d="M 947 1747 
Q 947 1113 1208 752 
Q 1469 391 1925 391 
Q 2381 391 2643 752 
Q 2906 1113 2906 1747 
Q 2906 2381 2643 2742 
Q 2381 3103 1925 3103 
Q 1469 3103 1208 2742 
Q 947 2381 947 1747 
z
M 2906 525 
Q 2725 213 2448 61 
Q 2172 -91 1784 -91 
Q 1150 -91 751 415 
Q 353 922 353 1747 
Q 353 2572 751 3078 
Q 1150 3584 1784 3584 
Q 2172 3584 2448 3432 
Q 2725 3281 2906 2969 
L 2906 3500 
L 3481 3500 
L 3481 -1331 
L 2906 -1331 
L 2906 525 
z
" transform="scale(0.015625)"/>
       <path id="DejaVuSans-6e" d="M 3513 2113 
L 3513 0 
L 2938 0 
L 2938 2094 
Q 2938 2591 2744 2837 
Q 2550 3084 2163 3084 
Q 1697 3084 1428 2787 
Q 1159 2491 1159 1978 
L 1159 0 
L 581 0 
L 581 3500 
L 1159 3500 
L 1159 2956 
Q 1366 3272 1645 3428 
Q 1925 3584 2291 3584 
Q 2894 3584 3203 3211 
Q 3513 2838 3513 2113 
z
" transform="scale(0.015625)"/>
       <path id="DejaVuSans-63" d="M 3122 3366 
L 3122 2828 
Q 2878 2963 2633 3030 
Q 2388 3097 2138 3097 
Q 1578 3097 1268 2742 
Q 959 2388 959 1747 
Q 959 1106 1268 751 
Q 1578 397 2138 397 
Q 2388 397 2633 464 
Q 2878 531 3122 666 
L 3122 134 
Q 2881 22 2623 -34 
Q 2366 -91 2075 -91 
Q 1284 -91 818 406 
Q 353 903 353 1747 
Q 353 2603 823 3093 
Q 1294 3584 2113 3584 
Q 2378 3584 2631 3529 
Q 2884 3475 3122 3366 
z
" transform="scale(0.015625)"/>
       <path id="DejaVuSans-4d" d="M 628 4666 
L 1569 4666 
L 2759 1491 
L 3956 4666 
L 4897 4666 
L 4897 0 
L 4281 0 
L 4281 4097 
L 3078 897 
L 2444 897 
L 1241 4097 
L 1241 0 
L 628 0 
L 628 4666 
z
" transform="scale(0.015625)"/>
      </defs>
      <use xlink:href="#DejaVuSans-46"/>
      <use xlink:href="#DejaVuSans-72" x="50.269531"/>
      <use xlink:href="#DejaVuSans-65" x="89.132812"/>
      <use xlink:href="#DejaVuSans-71" x="150.65625"/>
      <use xlink:href="#DejaVuSans-75" x="214.132812"/>
      <use xlink:href="#DejaVuSans-65" x="277.511719"/>
      <use xlink:href="#DejaVuSans-6e" x="339.035156"/>
      <use xlink:href="#DejaVuSans-63" x="402.414062"/>
      <use xlink:href="#DejaVuSans-79" x="457.394531"/>
      <use xlink:href="#DejaVuSans-20" x="516.574219"/>
      <use xlink:href="#DejaVuSans-5b" x="548.361328"/>
      <use xlink:href="#DejaVuSans-4d" x="587.375"/>
      <use xlink:href="#DejaVuSans-48" x="673.654297"/>
      <use xlink:href="#DejaVuSans-7a" x="748.849609"/>
      <use xlink:href="#DejaVuSans-5d" x="801.339844"/>
     </g>
    </g>
    <g id="text_13">
     <!-- +5 GHz -->
     <g transform="translate(378.795 335.148562) scale(0.1 -0.1)">
      <use xlink:href="#DejaVuSans-2b"/>
      <use xlink:href="#DejaVuSans-35" x="83.789062"/>
      <use xlink:href="#DejaVuSans-20" x="147.412109"/>
      <use xlink:href="#DejaVuSans-47" x="179.199219"/>
      <use xlink:href="#DejaVuSans-48" x="256.689453"/>
      <use xlink:href="#DejaVuSans-7a" x="331.884766"/>
     </g>
    </g>
   </g>
   <g id="matplotlib.axis_4">
    <g id="ytick_5">
     <g id="line2d_17">
      <g>
       <use xlink:href="#m0bd36116a2" x="60.1125" y="277.951882" style="stroke: #000000; stroke-width: 0.8"/>
      </g>
     </g>
     <g id="text_14">
      <!-- -100 -->
      <g transform="translate(30.417188 281.751101) scale(0.1 -0.1)">
       <defs>
        <path id="DejaVuSans-2d" d="M 313 2009 
L 1997 2009 
L 1997 1497 
L 313 1497 
L 313 2009 
z
" transform="scale(0.015625)"/>
       </defs>
       <use xlink:href="#DejaVuSans-2d"/>
       <use xlink:href="#DejaVuSans-31" x="36.083984"/>
       <use xlink:href="#DejaVuSans-30" x="99.707031"/>
       <use xlink:href="#DejaVuSans-30" x="163.330078"/>
      </g>
     </g>
    </g>
    <g id="ytick_6">
     <g id="line2d_18">
      <g>
       <use xlink:href="#m0bd36116a2" x="60.1125" y="247.372938" style="stroke: #000000; stroke-width: 0.8"/>
      </g>
     </g>
     <g id="text_15">
      <!-- 0 -->
      <g transform="translate(46.75 251.172157) scale(0.1 -0.1)">
       <use xlink:href="#DejaVuSans-30"/>
      </g>
     </g>
    </g>
    <g id="ytick_7">
     <g id="line2d_19">
      <g>
       <use xlink:href="#m0bd36116a2" x="60.1125" y="216.793995" style="stroke: #000000; stroke-width: 0.8"/>
      </g>
     </g>
     <g id="text_16">
      <!-- 100 -->
      <g transform="translate(34.025 220.593213) scale(0.1 -0.1)">
       <use xlink:href="#DejaVuSans-31"/>
       <use xlink:href="#DejaVuSans-30" x="63.623047"/>
       <use xlink:href="#DejaVuSans-30" x="127.246094"/>
      </g>
     </g>
    </g>
    <g id="text_17">
     <!-- $\angle S_{21}$ [deg] -->
     <g transform="translate(24.317188 274.592) rotate(-90) scale(0.1 -0.1)">
      <defs>
       <path id="DejaVuSans-2220" d="M 5028 631 
L 5028 0 
L 547 0 
L 3525 4666 
L 4281 4666 
L 1716 631 
L 5028 631 
z
" transform="scale(0.015625)"/>
       <path id="DejaVuSans-64" d="M 2906 2969 
L 2906 4863 
L 3481 4863 
L 3481 0 
L 2906 0 
L 2906 525 
Q 2725 213 2448 61 
Q 2172 -91 1784 -91 
Q 1150 -91 751 415 
Q 353 922 353 1747 
Q 353 2572 751 3078 
Q 1150 3584 1784 3584 
Q 2172 3584 2448 3432 
Q 2725 3281 2906 2969 
z
M 947 1747 
Q 947 1113 1208 752 
Q 1469 391 1925 391 
Q 2381 391 2643 752 
Q 2906 1113 2906 1747 
Q 2906 2381 2643 2742 
Q 2381 3103 1925 3103 
Q 1469 3103 1208 2742 
Q 947 2381 947 1747 
z
" transform="scale(0.015625)"/>
       <path id="DejaVuSans-67" d="M 2906 1791 
Q 2906 2416 2648 2759 
Q 2391 3103 1925 3103 
Q 1463 3103 1205 2759 
Q 947 2416 947 1791 
Q 947 1169 1205 825 
Q 1463 481 1925 481 
Q 2391 481 2648 825 
Q 2906 1169 2906 1791 
z
M 3481 434 
Q 3481 -459 3084 -895 
Q 2688 -1331 1869 -1331 
Q 1566 -1331 1297 -1286 
Q 1028 -1241 775 -1147 
L 775 -588 
Q 1028 -725 1275 -790 
Q 1522 -856 1778 -856 
Q 2344 -856 2625 -561 
Q 2906 -266 2906 331 
L 2906 616 
Q 2728 306 2450 153 
Q 2172 0 1784 0 
Q 1141 0 747 490 
Q 353 981 353 1791 
Q 353 2603 747 3093 
Q 1141 3584 1784 3584 
Q 2172 3584 2450 3431 
Q 2728 3278 2906 2969 
L 2906 3500 
L 3481 3500 
L 3481 434 
z
" transform="scale(0.015625)"/>
      </defs>
      <use xlink:href="#DejaVuSans-2220" transform="translate(0 0.015625)"/>
      <use xlink:href="#DejaVuSans-Oblique-53" transform="translate(89.648438 0.015625)"/>
      <use xlink:href="#DejaVuSans-32" transform="translate(153.125 -16.390625) scale(0.7)"/>
      <use xlink:href="#DejaVuSans-31" transform="translate(197.661133 -16.390625) scale(0.7)"/>
      <use xlink:href="#DejaVuSans-20" transform="translate(244.931641 0.015625)"/>
      <use xlink:href="#DejaVuSans-5b" transform="translate(276.71875 0.015625)"/>
      <use xlink:href="#DejaVuSans-64" transform="translate(315.732422 0.015625)"/>
      <use xlink:href="#DejaVuSans-65" transform="translate(379.208984 0.015625)"/>
      <use xlink:href="#DejaVuSans-67" transform="translate(440.732422 0.015625)"/>
      <use xlink:href="#DejaVuSans-5d" transform="translate(504.208984 0.015625)"/>
     </g>
    </g>
   </g>
   <g id="line2d_20">
    <path d="M 76.345227 290.601707 
L 79.608087 292.801776 
L 84.502377 296.33243 
L 89.396666 299.695311 
L 91.028096 300.961751 
L 92.659526 301.962228 
L 94.290956 193.138179 
L 105.710965 201.159496 
L 110.605255 204.678653 
L 115.499544 208.04039 
L 120.393834 211.550235 
L 126.919553 216.099069 
L 149.759572 232.337662 
L 151.391002 233.352169 
L 177.49388 251.845562 
L 182.388169 255.211764 
L 185.651029 257.575732 
L 187.282459 258.630741 
L 188.913889 259.892666 
L 192.176749 262.161851 
L 200.333898 267.962384 
L 205.228188 271.399457 
L 218.279627 280.554169 
L 223.173916 284.034852 
L 247.645364 301.320947 
L 249.276794 192.410182 
L 273.748242 209.582723 
L 275.379672 210.829166 
L 278.642532 213.029444 
L 288.431111 219.914702 
L 309.6397 234.823203 
L 311.27113 236.077827 
L 312.902559 237.064502 
L 316.165419 239.483955 
L 329.216858 248.686226 
L 334.111148 252.062035 
L 337.374008 254.484307 
L 340.636867 256.660297 
L 342.268297 257.927689 
L 345.531157 260.148998 
L 350.425447 263.596215 
L 352.056876 264.647732 
L 356.951166 268.229922 
L 361.845456 271.649053 
L 366.739745 275.20164 
L 368.371175 276.230815 
L 371.634035 278.591328 
L 373.265465 279.633995 
L 374.896895 280.882275 
L 376.528325 281.909966 
L 379.791184 284.327158 
L 384.685474 287.645328 
L 387.948334 290.041402 
L 391.211193 292.360611 
L 396.105483 295.768027 
L 400.999773 299.231275 
L 400.999773 299.231275 
" clip-path="url(#pced0d07792)" style="fill: none; stroke: #1f77b4; stroke-width: 1.5; stroke-linecap: square"/>
    <g clip-path="url(#pced0d07792)">
     <use xlink:href="#m1d761f208f" x="76.345227" y="290.601707" style="fill: #1f77b4; stroke: #1f77b4"/>
     <use xlink:href="#m1d761f208f" x="77.976657" y="291.69336" style="fill: #1f77b4; stroke: #1f77b4"/>
     <use xlink:href="#m1d761f208f" x="79.608087" y="292.801776" style="fill: #1f77b4; stroke: #1f77b4"/>
     <use xlink:href="#m1d761f208f" x="81.239517" y="294.020511" style="fill: #1f77b4; stroke: #1f77b4"/>
     <use xlink:href="#m1d761f208f" x="82.870947" y="295.135411" style="fill: #1f77b4; stroke: #1f77b4"/>
     <use xlink:href="#m1d761f208f" x="84.502377" y="296.33243" style="fill: #1f77b4; stroke: #1f77b4"/>
     <use xlink:href="#m1d761f208f" x="86.133807" y="297.432835" style="fill: #1f77b4; stroke: #1f77b4"/>
     <use xlink:href="#m1d761f208f" x="87.765236" y="298.585862" style="fill: #1f77b4; stroke: #1f77b4"/>
     <use xlink:href="#m1d761f208f" x="89.396666" y="299.695311" style="fill: #1f77b4; stroke: #1f77b4"/>
     <use xlink:href="#m1d761f208f" x="91.028096" y="300.961751" style="fill: #1f77b4; stroke: #1f77b4"/>
     <use xlink:href="#m1d761f208f" x="92.659526" y="301.962228" style="fill: #1f77b4; stroke: #1f77b4"/>
     <use xlink:href="#m1d761f208f" x="94.290956" y="193.138179" style="fill: #1f77b4; stroke: #1f77b4"/>
     <use xlink:href="#m1d761f208f" x="95.922386" y="194.269881" style="fill: #1f77b4; stroke: #1f77b4"/>
     <use xlink:href="#m1d761f208f" x="97.553816" y="195.527628" style="fill: #1f77b4; stroke: #1f77b4"/>
     <use xlink:href="#m1d761f208f" x="99.185246" y="196.654683" style="fill: #1f77b4; stroke: #1f77b4"/>
     <use xlink:href="#m1d761f208f" x="100.816675" y="197.773863" style="fill: #1f77b4; stroke: #1f77b4"/>
     <use xlink:href="#m1d761f208f" x="102.448105" y="198.929194" style="fill: #1f77b4; stroke: #1f77b4"/>
     <use xlink:href="#m1d761f208f" x="104.079535" y="200.020222" style="fill: #1f77b4; stroke: #1f77b4"/>
     <use xlink:href="#m1d761f208f" x="105.710965" y="201.159496" style="fill: #1f77b4; stroke: #1f77b4"/>
     <use xlink:href="#m1d761f208f" x="107.342395" y="202.358172" style="fill: #1f77b4; stroke: #1f77b4"/>
     <use xlink:href="#m1d761f208f" x="108.973825" y="203.569958" style="fill: #1f77b4; stroke: #1f77b4"/>
     <use xlink:href="#m1d761f208f" x="110.605255" y="204.678653" style="fill: #1f77b4; stroke: #1f77b4"/>
     <use xlink:href="#m1d761f208f" x="112.236685" y="205.774976" style="fill: #1f77b4; stroke: #1f77b4"/>
     <use xlink:href="#m1d761f208f" x="113.868114" y="206.974625" style="fill: #1f77b4; stroke: #1f77b4"/>
     <use xlink:href="#m1d761f208f" x="115.499544" y="208.04039" style="fill: #1f77b4; stroke: #1f77b4"/>
     <use xlink:href="#m1d761f208f" x="117.130974" y="209.23443" style="fill: #1f77b4; stroke: #1f77b4"/>
     <use xlink:href="#m1d761f208f" x="118.762404" y="210.39399" style="fill: #1f77b4; stroke: #1f77b4"/>
     <use xlink:href="#m1d761f208f" x="120.393834" y="211.550235" style="fill: #1f77b4; stroke: #1f77b4"/>
     <use xlink:href="#m1d761f208f" x="122.025264" y="212.658193" style="fill: #1f77b4; stroke: #1f77b4"/>
     <use xlink:href="#m1d761f208f" x="123.656694" y="213.845488" style="fill: #1f77b4; stroke: #1f77b4"/>
     <use xlink:href="#m1d761f208f" x="125.288124" y="214.951186" style="fill: #1f77b4; stroke: #1f77b4"/>
     <use xlink:href="#m1d761f208f" x="126.919553" y="216.099069" style="fill: #1f77b4; stroke: #1f77b4"/>
     <use xlink:href="#m1d761f208f" x="128.550983" y="217.261583" style="fill: #1f77b4; stroke: #1f77b4"/>
     <use xlink:href="#m1d761f208f" x="130.182413" y="218.514615" style="fill: #1f77b4; stroke: #1f77b4"/>
     <use xlink:href="#m1d761f208f" x="131.813843" y="219.557247" style="fill: #1f77b4; stroke: #1f77b4"/>
     <use xlink:href="#m1d761f208f" x="133.445273" y="220.764946" style="fill: #1f77b4; stroke: #1f77b4"/>
     <use xlink:href="#m1d761f208f" x="135.076703" y="221.93762" style="fill: #1f77b4; stroke: #1f77b4"/>
     <use xlink:href="#m1d761f208f" x="136.708133" y="223.089634" style="fill: #1f77b4; stroke: #1f77b4"/>
     <use xlink:href="#m1d761f208f" x="138.339563" y="224.189867" style="fill: #1f77b4; stroke: #1f77b4"/>
     <use xlink:href="#m1d761f208f" x="139.970992" y="225.298049" style="fill: #1f77b4; stroke: #1f77b4"/>
     <use xlink:href="#m1d761f208f" x="141.602422" y="226.460418" style="fill: #1f77b4; stroke: #1f77b4"/>
     <use xlink:href="#m1d761f208f" x="143.233852" y="227.692831" style="fill: #1f77b4; stroke: #1f77b4"/>
     <use xlink:href="#m1d761f208f" x="144.865282" y="228.762315" style="fill: #1f77b4; stroke: #1f77b4"/>
     <use xlink:href="#m1d761f208f" x="146.496712" y="229.949775" style="fill: #1f77b4; stroke: #1f77b4"/>
     <use xlink:href="#m1d761f208f" x="148.128142" y="231.106775" style="fill: #1f77b4; stroke: #1f77b4"/>
     <use xlink:href="#m1d761f208f" x="149.759572" y="232.337662" style="fill: #1f77b4; stroke: #1f77b4"/>
     <use xlink:href="#m1d761f208f" x="151.391002" y="233.352169" style="fill: #1f77b4; stroke: #1f77b4"/>
     <use xlink:href="#m1d761f208f" x="153.022431" y="234.513614" style="fill: #1f77b4; stroke: #1f77b4"/>
     <use xlink:href="#m1d761f208f" x="154.653861" y="235.715007" style="fill: #1f77b4; stroke: #1f77b4"/>
     <use xlink:href="#m1d761f208f" x="156.285291" y="236.802494" style="fill: #1f77b4; stroke: #1f77b4"/>
     <use xlink:href="#m1d761f208f" x="157.916721" y="238.054967" style="fill: #1f77b4; stroke: #1f77b4"/>
     <use xlink:href="#m1d761f208f" x="159.548151" y="239.136698" style="fill: #1f77b4; stroke: #1f77b4"/>
     <use xlink:href="#m1d761f208f" x="161.179581" y="240.309797" style="fill: #1f77b4; stroke: #1f77b4"/>
     <use xlink:href="#m1d761f208f" x="162.811011" y="241.420279" style="fill: #1f77b4; stroke: #1f77b4"/>
     <use xlink:href="#m1d761f208f" x="164.442441" y="242.588035" style="fill: #1f77b4; stroke: #1f77b4"/>
     <use xlink:href="#m1d761f208f" x="166.07387" y="243.763045" style="fill: #1f77b4; stroke: #1f77b4"/>
     <use xlink:href="#m1d761f208f" x="167.7053" y="244.928885" style="fill: #1f77b4; stroke: #1f77b4"/>
     <use xlink:href="#m1d761f208f" x="169.33673" y="246.158231" style="fill: #1f77b4; stroke: #1f77b4"/>
     <use xlink:href="#m1d761f208f" x="170.96816" y="247.238276" style="fill: #1f77b4; stroke: #1f77b4"/>
     <use xlink:href="#m1d761f208f" x="172.59959" y="248.373968" style="fill: #1f77b4; stroke: #1f77b4"/>
     <use xlink:href="#m1d761f208f" x="174.23102" y="249.51504" style="fill: #1f77b4; stroke: #1f77b4"/>
     <use xlink:href="#m1d761f208f" x="175.86245" y="250.687574" style="fill: #1f77b4; stroke: #1f77b4"/>
     <use xlink:href="#m1d761f208f" x="177.49388" y="251.845562" style="fill: #1f77b4; stroke: #1f77b4"/>
     <use xlink:href="#m1d761f208f" x="179.12531" y="252.946985" style="fill: #1f77b4; stroke: #1f77b4"/>
     <use xlink:href="#m1d761f208f" x="180.756739" y="254.110567" style="fill: #1f77b4; stroke: #1f77b4"/>
     <use xlink:href="#m1d761f208f" x="182.388169" y="255.211764" style="fill: #1f77b4; stroke: #1f77b4"/>
     <use xlink:href="#m1d761f208f" x="184.019599" y="256.4" style="fill: #1f77b4; stroke: #1f77b4"/>
     <use xlink:href="#m1d761f208f" x="185.651029" y="257.575732" style="fill: #1f77b4; stroke: #1f77b4"/>
     <use xlink:href="#m1d761f208f" x="187.282459" y="258.630741" style="fill: #1f77b4; stroke: #1f77b4"/>
     <use xlink:href="#m1d761f208f" x="188.913889" y="259.892666" style="fill: #1f77b4; stroke: #1f77b4"/>
     <use xlink:href="#m1d761f208f" x="190.545319" y="260.978977" style="fill: #1f77b4; stroke: #1f77b4"/>
     <use xlink:href="#m1d761f208f" x="192.176749" y="262.161851" style="fill: #1f77b4; stroke: #1f77b4"/>
     <use xlink:href="#m1d761f208f" x="193.808178" y="263.302925" style="fill: #1f77b4; stroke: #1f77b4"/>
     <use xlink:href="#m1d761f208f" x="195.439608" y="264.485375" style="fill: #1f77b4; stroke: #1f77b4"/>
     <use xlink:href="#m1d761f208f" x="197.071038" y="265.59886" style="fill: #1f77b4; stroke: #1f77b4"/>
     <use xlink:href="#m1d761f208f" x="198.702468" y="266.799057" style="fill: #1f77b4; stroke: #1f77b4"/>
     <use xlink:href="#m1d761f208f" x="200.333898" y="267.962384" style="fill: #1f77b4; stroke: #1f77b4"/>
     <use xlink:href="#m1d761f208f" x="201.965328" y="269.145735" style="fill: #1f77b4; stroke: #1f77b4"/>
     <use xlink:href="#m1d761f208f" x="203.596758" y="270.262074" style="fill: #1f77b4; stroke: #1f77b4"/>
     <use xlink:href="#m1d761f208f" x="205.228188" y="271.399457" style="fill: #1f77b4; stroke: #1f77b4"/>
     <use xlink:href="#m1d761f208f" x="206.859617" y="272.557171" style="fill: #1f77b4; stroke: #1f77b4"/>
     <use xlink:href="#m1d761f208f" x="208.491047" y="273.617569" style="fill: #1f77b4; stroke: #1f77b4"/>
     <use xlink:href="#m1d761f208f" x="210.122477" y="274.846638" style="fill: #1f77b4; stroke: #1f77b4"/>
     <use xlink:href="#m1d761f208f" x="211.753907" y="276.041945" style="fill: #1f77b4; stroke: #1f77b4"/>
     <use xlink:href="#m1d761f208f" x="213.385337" y="277.132188" style="fill: #1f77b4; stroke: #1f77b4"/>
     <use xlink:href="#m1d761f208f" x="215.016767" y="278.303903" style="fill: #1f77b4; stroke: #1f77b4"/>
     <use xlink:href="#m1d761f208f" x="216.648197" y="279.468685" style="fill: #1f77b4; stroke: #1f77b4"/>
     <use xlink:href="#m1d761f208f" x="218.279627" y="280.554169" style="fill: #1f77b4; stroke: #1f77b4"/>
     <use xlink:href="#m1d761f208f" x="219.911056" y="281.672602" style="fill: #1f77b4; stroke: #1f77b4"/>
     <use xlink:href="#m1d761f208f" x="221.542486" y="282.812618" style="fill: #1f77b4; stroke: #1f77b4"/>
     <use xlink:href="#m1d761f208f" x="223.173916" y="284.034852" style="fill: #1f77b4; stroke: #1f77b4"/>
     <use xlink:href="#m1d761f208f" x="224.805346" y="285.188217" style="fill: #1f77b4; stroke: #1f77b4"/>
     <use xlink:href="#m1d761f208f" x="226.436776" y="286.365234" style="fill: #1f77b4; stroke: #1f77b4"/>
     <use xlink:href="#m1d761f208f" x="228.068206" y="287.503121" style="fill: #1f77b4; stroke: #1f77b4"/>
     <use xlink:href="#m1d761f208f" x="229.699636" y="288.649499" style="fill: #1f77b4; stroke: #1f77b4"/>
     <use xlink:href="#m1d761f208f" x="231.331066" y="289.725678" style="fill: #1f77b4; stroke: #1f77b4"/>
     <use xlink:href="#m1d761f208f" x="232.962495" y="290.965888" style="fill: #1f77b4; stroke: #1f77b4"/>
     <use xlink:href="#m1d761f208f" x="234.593925" y="292.085616" style="fill: #1f77b4; stroke: #1f77b4"/>
     <use xlink:href="#m1d761f208f" x="236.225355" y="293.236034" style="fill: #1f77b4; stroke: #1f77b4"/>
     <use xlink:href="#m1d761f208f" x="237.856785" y="294.28581" style="fill: #1f77b4; stroke: #1f77b4"/>
     <use xlink:href="#m1d761f208f" x="239.488215" y="295.541777" style="fill: #1f77b4; stroke: #1f77b4"/>
     <use xlink:href="#m1d761f208f" x="241.119645" y="296.706043" style="fill: #1f77b4; stroke: #1f77b4"/>
     <use xlink:href="#m1d761f208f" x="242.751075" y="297.81935" style="fill: #1f77b4; stroke: #1f77b4"/>
     <use xlink:href="#m1d761f208f" x="244.382505" y="298.984236" style="fill: #1f77b4; stroke: #1f77b4"/>
     <use xlink:href="#m1d761f208f" x="246.013934" y="300.20841" style="fill: #1f77b4; stroke: #1f77b4"/>
     <use xlink:href="#m1d761f208f" x="247.645364" y="301.320947" style="fill: #1f77b4; stroke: #1f77b4"/>
     <use xlink:href="#m1d761f208f" x="249.276794" y="192.410182" style="fill: #1f77b4; stroke: #1f77b4"/>
     <use xlink:href="#m1d761f208f" x="250.908224" y="193.548596" style="fill: #1f77b4; stroke: #1f77b4"/>
     <use xlink:href="#m1d761f208f" x="252.539654" y="194.615366" style="fill: #1f77b4; stroke: #1f77b4"/>
     <use xlink:href="#m1d761f208f" x="254.171084" y="195.72416" style="fill: #1f77b4; stroke: #1f77b4"/>
     <use xlink:href="#m1d761f208f" x="255.802514" y="196.973381" style="fill: #1f77b4; stroke: #1f77b4"/>
     <use xlink:href="#m1d761f208f" x="257.433944" y="198.145696" style="fill: #1f77b4; stroke: #1f77b4"/>
     <use xlink:href="#m1d761f208f" x="259.065373" y="199.226691" style="fill: #1f77b4; stroke: #1f77b4"/>
     <use xlink:href="#m1d761f208f" x="260.696803" y="200.411771" style="fill: #1f77b4; stroke: #1f77b4"/>
     <use xlink:href="#m1d761f208f" x="262.328233" y="201.57609" style="fill: #1f77b4; stroke: #1f77b4"/>
     <use xlink:href="#m1d761f208f" x="263.959663" y="202.706963" style="fill: #1f77b4; stroke: #1f77b4"/>
     <use xlink:href="#m1d761f208f" x="265.591093" y="203.871047" style="fill: #1f77b4; stroke: #1f77b4"/>
     <use xlink:href="#m1d761f208f" x="267.222523" y="204.969746" style="fill: #1f77b4; stroke: #1f77b4"/>
     <use xlink:href="#m1d761f208f" x="268.853953" y="206.096645" style="fill: #1f77b4; stroke: #1f77b4"/>
     <use xlink:href="#m1d761f208f" x="270.485383" y="207.302555" style="fill: #1f77b4; stroke: #1f77b4"/>
     <use xlink:href="#m1d761f208f" x="272.116812" y="208.47958" style="fill: #1f77b4; stroke: #1f77b4"/>
     <use xlink:href="#m1d761f208f" x="273.748242" y="209.582723" style="fill: #1f77b4; stroke: #1f77b4"/>
     <use xlink:href="#m1d761f208f" x="275.379672" y="210.829166" style="fill: #1f77b4; stroke: #1f77b4"/>
     <use xlink:href="#m1d761f208f" x="277.011102" y="211.881142" style="fill: #1f77b4; stroke: #1f77b4"/>
     <use xlink:href="#m1d761f208f" x="278.642532" y="213.029444" style="fill: #1f77b4; stroke: #1f77b4"/>
     <use xlink:href="#m1d761f208f" x="280.273962" y="214.197431" style="fill: #1f77b4; stroke: #1f77b4"/>
     <use xlink:href="#m1d761f208f" x="281.905392" y="215.298984" style="fill: #1f77b4; stroke: #1f77b4"/>
     <use xlink:href="#m1d761f208f" x="283.536822" y="216.41167" style="fill: #1f77b4; stroke: #1f77b4"/>
     <use xlink:href="#m1d761f208f" x="285.168251" y="217.643003" style="fill: #1f77b4; stroke: #1f77b4"/>
     <use xlink:href="#m1d761f208f" x="286.799681" y="218.80351" style="fill: #1f77b4; stroke: #1f77b4"/>
     <use xlink:href="#m1d761f208f" x="288.431111" y="219.914702" style="fill: #1f77b4; stroke: #1f77b4"/>
     <use xlink:href="#m1d761f208f" x="290.062541" y="221.058523" style="fill: #1f77b4; stroke: #1f77b4"/>
     <use xlink:href="#m1d761f208f" x="291.693971" y="222.239489" style="fill: #1f77b4; stroke: #1f77b4"/>
     <use xlink:href="#m1d761f208f" x="293.325401" y="223.376118" style="fill: #1f77b4; stroke: #1f77b4"/>
     <use xlink:href="#m1d761f208f" x="294.956831" y="224.529148" style="fill: #1f77b4; stroke: #1f77b4"/>
     <use xlink:href="#m1d761f208f" x="296.588261" y="225.730968" style="fill: #1f77b4; stroke: #1f77b4"/>
     <use xlink:href="#m1d761f208f" x="298.21969" y="226.870664" style="fill: #1f77b4; stroke: #1f77b4"/>
     <use xlink:href="#m1d761f208f" x="299.85112" y="227.98227" style="fill: #1f77b4; stroke: #1f77b4"/>
     <use xlink:href="#m1d761f208f" x="301.48255" y="229.188" style="fill: #1f77b4; stroke: #1f77b4"/>
     <use xlink:href="#m1d761f208f" x="303.11398" y="230.332896" style="fill: #1f77b4; stroke: #1f77b4"/>
     <use xlink:href="#m1d761f208f" x="304.74541" y="231.426299" style="fill: #1f77b4; stroke: #1f77b4"/>
     <use xlink:href="#m1d761f208f" x="306.37684" y="232.551961" style="fill: #1f77b4; stroke: #1f77b4"/>
     <use xlink:href="#m1d761f208f" x="308.00827" y="233.665262" style="fill: #1f77b4; stroke: #1f77b4"/>
     <use xlink:href="#m1d761f208f" x="309.6397" y="234.823203" style="fill: #1f77b4; stroke: #1f77b4"/>
     <use xlink:href="#m1d761f208f" x="311.27113" y="236.077827" style="fill: #1f77b4; stroke: #1f77b4"/>
     <use xlink:href="#m1d761f208f" x="312.902559" y="237.064502" style="fill: #1f77b4; stroke: #1f77b4"/>
     <use xlink:href="#m1d761f208f" x="314.533989" y="238.342268" style="fill: #1f77b4; stroke: #1f77b4"/>
     <use xlink:href="#m1d761f208f" x="316.165419" y="239.483955" style="fill: #1f77b4; stroke: #1f77b4"/>
     <use xlink:href="#m1d761f208f" x="317.796849" y="240.645544" style="fill: #1f77b4; stroke: #1f77b4"/>
     <use xlink:href="#m1d761f208f" x="319.428279" y="241.901852" style="fill: #1f77b4; stroke: #1f77b4"/>
     <use xlink:href="#m1d761f208f" x="321.059709" y="243.037662" style="fill: #1f77b4; stroke: #1f77b4"/>
     <use xlink:href="#m1d761f208f" x="322.691139" y="244.078671" style="fill: #1f77b4; stroke: #1f77b4"/>
     <use xlink:href="#m1d761f208f" x="324.322569" y="245.187422" style="fill: #1f77b4; stroke: #1f77b4"/>
     <use xlink:href="#m1d761f208f" x="325.953998" y="246.349235" style="fill: #1f77b4; stroke: #1f77b4"/>
     <use xlink:href="#m1d761f208f" x="327.585428" y="247.545029" style="fill: #1f77b4; stroke: #1f77b4"/>
     <use xlink:href="#m1d761f208f" x="329.216858" y="248.686226" style="fill: #1f77b4; stroke: #1f77b4"/>
     <use xlink:href="#m1d761f208f" x="330.848288" y="249.793512" style="fill: #1f77b4; stroke: #1f77b4"/>
     <use xlink:href="#m1d761f208f" x="332.479718" y="250.982226" style="fill: #1f77b4; stroke: #1f77b4"/>
     <use xlink:href="#m1d761f208f" x="334.111148" y="252.062035" style="fill: #1f77b4; stroke: #1f77b4"/>
     <use xlink:href="#m1d761f208f" x="335.742578" y="253.313806" style="fill: #1f77b4; stroke: #1f77b4"/>
     <use xlink:href="#m1d761f208f" x="337.374008" y="254.484307" style="fill: #1f77b4; stroke: #1f77b4"/>
     <use xlink:href="#m1d761f208f" x="339.005437" y="255.58727" style="fill: #1f77b4; stroke: #1f77b4"/>
     <use xlink:href="#m1d761f208f" x="340.636867" y="256.660297" style="fill: #1f77b4; stroke: #1f77b4"/>
     <use xlink:href="#m1d761f208f" x="342.268297" y="257.927689" style="fill: #1f77b4; stroke: #1f77b4"/>
     <use xlink:href="#m1d761f208f" x="343.899727" y="258.999844" style="fill: #1f77b4; stroke: #1f77b4"/>
     <use xlink:href="#m1d761f208f" x="345.531157" y="260.148998" style="fill: #1f77b4; stroke: #1f77b4"/>
     <use xlink:href="#m1d761f208f" x="347.162587" y="261.320518" style="fill: #1f77b4; stroke: #1f77b4"/>
     <use xlink:href="#m1d761f208f" x="348.794017" y="262.537884" style="fill: #1f77b4; stroke: #1f77b4"/>
     <use xlink:href="#m1d761f208f" x="350.425447" y="263.596215" style="fill: #1f77b4; stroke: #1f77b4"/>
     <use xlink:href="#m1d761f208f" x="352.056876" y="264.647732" style="fill: #1f77b4; stroke: #1f77b4"/>
     <use xlink:href="#m1d761f208f" x="353.688306" y="265.879055" style="fill: #1f77b4; stroke: #1f77b4"/>
     <use xlink:href="#m1d761f208f" x="355.319736" y="267.067972" style="fill: #1f77b4; stroke: #1f77b4"/>
     <use xlink:href="#m1d761f208f" x="356.951166" y="268.229922" style="fill: #1f77b4; stroke: #1f77b4"/>
     <use xlink:href="#m1d761f208f" x="358.582596" y="269.337506" style="fill: #1f77b4; stroke: #1f77b4"/>
     <use xlink:href="#m1d761f208f" x="360.214026" y="270.524034" style="fill: #1f77b4; stroke: #1f77b4"/>
     <use xlink:href="#m1d761f208f" x="361.845456" y="271.649053" style="fill: #1f77b4; stroke: #1f77b4"/>
     <use xlink:href="#m1d761f208f" x="363.476886" y="272.847959" style="fill: #1f77b4; stroke: #1f77b4"/>
     <use xlink:href="#m1d761f208f" x="365.108315" y="273.987419" style="fill: #1f77b4; stroke: #1f77b4"/>
     <use xlink:href="#m1d761f208f" x="366.739745" y="275.20164" style="fill: #1f77b4; stroke: #1f77b4"/>
     <use xlink:href="#m1d761f208f" x="368.371175" y="276.230815" style="fill: #1f77b4; stroke: #1f77b4"/>
     <use xlink:href="#m1d761f208f" x="370.002605" y="277.45227" style="fill: #1f77b4; stroke: #1f77b4"/>
     <use xlink:href="#m1d761f208f" x="371.634035" y="278.591328" style="fill: #1f77b4; stroke: #1f77b4"/>
     <use xlink:href="#m1d761f208f" x="373.265465" y="279.633995" style="fill: #1f77b4; stroke: #1f77b4"/>
     <use xlink:href="#m1d761f208f" x="374.896895" y="280.882275" style="fill: #1f77b4; stroke: #1f77b4"/>
     <use xlink:href="#m1d761f208f" x="376.528325" y="281.909966" style="fill: #1f77b4; stroke: #1f77b4"/>
     <use xlink:href="#m1d761f208f" x="378.159754" y="283.163535" style="fill: #1f77b4; stroke: #1f77b4"/>
     <use xlink:href="#m1d761f208f" x="379.791184" y="284.327158" style="fill: #1f77b4; stroke: #1f77b4"/>
     <use xlink:href="#m1d761f208f" x="381.422614" y="285.421898" style="fill: #1f77b4; stroke: #1f77b4"/>
     <use xlink:href="#m1d761f208f" x="383.054044" y="286.550664" style="fill: #1f77b4; stroke: #1f77b4"/>
     <use xlink:href="#m1d761f208f" x="384.685474" y="287.645328" style="fill: #1f77b4; stroke: #1f77b4"/>
     <use xlink:href="#m1d761f208f" x="386.316904" y="288.888893" style="fill: #1f77b4; stroke: #1f77b4"/>
     <use xlink:href="#m1d761f208f" x="387.948334" y="290.041402" style="fill: #1f77b4; stroke: #1f77b4"/>
     <use xlink:href="#m1d761f208f" x="389.579764" y="291.155947" style="fill: #1f77b4; stroke: #1f77b4"/>
     <use xlink:href="#m1d761f208f" x="391.211193" y="292.360611" style="fill: #1f77b4; stroke: #1f77b4"/>
     <use xlink:href="#m1d761f208f" x="392.842623" y="293.53127" style="fill: #1f77b4; stroke: #1f77b4"/>
     <use xlink:href="#m1d761f208f" x="394.474053" y="294.661544" style="fill: #1f77b4; stroke: #1f77b4"/>
     <use xlink:href="#m1d761f208f" x="396.105483" y="295.768027" style="fill: #1f77b4; stroke: #1f77b4"/>
     <use xlink:href="#m1d761f208f" x="397.736913" y="296.883048" style="fill: #1f77b4; stroke: #1f77b4"/>
     <use xlink:href="#m1d761f208f" x="399.368343" y="298.108574" style="fill: #1f77b4; stroke: #1f77b4"/>
     <use xlink:href="#m1d761f208f" x="400.999773" y="299.231275" style="fill: #1f77b4; stroke: #1f77b4"/>
    </g>
   </g>
   <g id="line2d_21">
    <path d="M 76.345227 290.622837 
L 92.919183 302.300541 
L 93.244163 192.445318 
L 249.234335 302.373818 
L 249.559314 192.518679 
L 400.999773 299.259423 
L 400.999773 299.259423 
" clip-path="url(#pced0d07792)" style="fill: none; stroke: #d62728; stroke-width: 1.5; stroke-linecap: square"/>
   </g>
   <g id="patch_9">
    <path d="M 60.1125 307.872 
L 60.1125 186.912 
" style="fill: none; stroke: #000000; stroke-width: 0.8; stroke-linejoin: miter; stroke-linecap: square"/>
   </g>
   <g id="patch_10">
    <path d="M 417.2325 307.872 
L 417.2325 186.912 
" style="fill: none; stroke: #000000; stroke-width: 0.8; stroke-linejoin: miter; stroke-linecap: square"/>
   </g>
   <g id="patch_11">
    <path d="M 60.1125 307.872 
L 417.2325 307.872 
" style="fill: none; stroke: #000000; stroke-width: 0.8; stroke-linejoin: miter; stroke-linecap: square"/>
   </g>
   <g id="patch_12">
    <path d="M 60.1125 186.912 
L 417.2325 186.912 
" style="fill: none; stroke: #000000; stroke-width: 0.8; stroke-linejoin: miter; stroke-linecap: square"/>
   </g>
  </g>
  <g id="text_18">
   <!-- S21 One-tone -->
   <g transform="translate(191.661563 16.318125) scale(0.12 -0.12)">
    <defs>
     <path id="DejaVuSans-4f" d="M 2522 4238 
Q 1834 4238 1429 3725 
Q 1025 3213 1025 2328 
Q 1025 1447 1429 934 
Q 1834 422 2522 422 
Q 3209 422 3611 934 
Q 4013 1447 4013 2328 
Q 4013 3213 3611 3725 
Q 3209 4238 2522 4238 
z
M 2522 4750 
Q 3503 4750 4090 4092 
Q 4678 3434 4678 2328 
Q 4678 1225 4090 567 
Q 3503 -91 2522 -91 
Q 1538 -91 948 565 
Q 359 1222 359 2328 
Q 359 3434 948 4092 
Q 1538 4750 2522 4750 
z
" transform="scale(0.015625)"/>
     <path id="DejaVuSans-74" d="M 1172 4494 
L 1172 3500 
L 2356 3500 
L 2356 3053 
L 1172 3053 
L 1172 1153 
Q 1172 725 1289 603 
Q 1406 481 1766 481 
L 2356 481 
L 2356 0 
L 1766 0 
Q 1100 0 847 248 
Q 594 497 594 1153 
L 594 3053 
L 172 3053 
L 172 3500 
L 594 3500 
L 594 4494 
L 1172 4494 
z
" transform="scale(0.015625)"/>
     <path id="DejaVuSans-6f" d="M 1959 3097 
Q 1497 3097 1228 2736 
Q 959 2375 959 1747 
Q 959 1119 1226 758 
Q 1494 397 1959 397 
Q 2419 397 2687 759 
Q 2956 1122 2956 1747 
Q 2956 2369 2687 2733 
Q 2419 3097 1959 3097 
z
M 1959 3584 
Q 2709 3584 3137 3096 
Q 3566 2609 3566 1747 
Q 3566 888 3137 398 
Q 2709 -91 1959 -91 
Q 1206 -91 779 398 
Q 353 888 353 1747 
Q 353 2609 779 3096 
Q 1206 3584 1959 3584 
z
" transform="scale(0.015625)"/>
    </defs>
    <use xlink:href="#DejaVuSans-53"/>
    <use xlink:href="#DejaVuSans-32" x="63.476562"/>
    <use xlink:href="#DejaVuSans-31" x="127.099609"/>
    <use xlink:href="#DejaVuSans-20" x="190.722656"/>
    <use xlink:href="#DejaVuSans-4f" x="222.509766"/>
    <use xlink:href="#DejaVuSans-6e" x="301.220703"/>
    <use xlink:href="#DejaVuSans-65" x="364.599609"/>
    <use xlink:href="#DejaVuSans-2d" x="426.123047"/>
    <use xlink:href="#DejaVuSans-74" x="462.207031"/>
    <use xlink:href="#DejaVuSans-6f" x="501.416016"/>
    <use xlink:href="#DejaVuSans-6e" x="562.597656"/>
    <use xlink:href="#DejaVuSans-65" x="625.976562"/>
   </g>
   <!-- tuid: 20240220-164408-928-2199c8 -->
   <g transform="translate(123.575625 29.7555) scale(0.12 -0.12)">
    <defs>
     <path id="DejaVuSans-69" d="M 603 3500 
L 1178 3500 
L 1178 0 
L 603 0 
L 603 3500 
z
M 603 4863 
L 1178 4863 
L 1178 4134 
L 603 4134 
L 603 4863 
z
" transform="scale(0.015625)"/>
    </defs>
    <use xlink:href="#DejaVuSans-74"/>
    <use xlink:href="#DejaVuSans-75" x="39.208984"/>
    <use xlink:href="#DejaVuSans-69" x="102.587891"/>
    <use xlink:href="#DejaVuSans-64" x="130.371094"/>
    <use xlink:href="#DejaVuSans-3a" x="193.847656"/>
    <use xlink:href="#DejaVuSans-20" x="227.539062"/>
    <use xlink:href="#DejaVuSans-32" x="259.326172"/>
    <use xlink:href="#DejaVuSans-30" x="322.949219"/>
    <use xlink:href="#DejaVuSans-32" x="386.572266"/>
    <use xlink:href="#DejaVuSans-34" x="450.195312"/>
    <use xlink:href="#DejaVuSans-30" x="513.818359"/>
    <use xlink:href="#DejaVuSans-32" x="577.441406"/>
    <use xlink:href="#DejaVuSans-32" x="641.064453"/>
    <use xlink:href="#DejaVuSans-30" x="704.6875"/>
    <use xlink:href="#DejaVuSans-2d" x="768.310547"/>
    <use xlink:href="#DejaVuSans-31" x="804.394531"/>
    <use xlink:href="#DejaVuSans-36" x="868.017578"/>
    <use xlink:href="#DejaVuSans-34" x="931.640625"/>
    <use xlink:href="#DejaVuSans-34" x="995.263672"/>
    <use xlink:href="#DejaVuSans-30" x="1058.886719"/>
    <use xlink:href="#DejaVuSans-38" x="1122.509766"/>
    <use xlink:href="#DejaVuSans-2d" x="1186.132812"/>
    <use xlink:href="#DejaVuSans-39" x="1222.216797"/>
    <use xlink:href="#DejaVuSans-32" x="1285.839844"/>
    <use xlink:href="#DejaVuSans-38" x="1349.462891"/>
    <use xlink:href="#DejaVuSans-2d" x="1413.085938"/>
    <use xlink:href="#DejaVuSans-32" x="1449.169922"/>
    <use xlink:href="#DejaVuSans-31" x="1512.792969"/>
    <use xlink:href="#DejaVuSans-39" x="1576.416016"/>
    <use xlink:href="#DejaVuSans-39" x="1640.039062"/>
    <use xlink:href="#DejaVuSans-63" x="1703.662109"/>
    <use xlink:href="#DejaVuSans-38" x="1758.642578"/>
   </g>
  </g>
 </g>
 <defs>
  <clipPath id="pb8968af0b9">
   <rect x="60.1125" y="41.76" width="357.12" height="120.96"/>
  </clipPath>
  <clipPath id="pced0d07792">
   <rect x="60.1125" y="186.912" width="357.12" height="120.96"/>
  </clipPath>
 </defs>
</svg>
