<?xml version="1.0" encoding="utf-8" standalone="no"?>
<!DOCTYPE svg PUBLIC "-//W3C//DTD SVG 1.1//EN"
  "http://www.w3.org/Graphics/SVG/1.1/DTD/svg11.dtd">
<svg xmlns:xlink="http://www.w3.org/1999/xlink" width="571.586937pt" height="345.42825pt" viewBox="0 0 571.586937 345.42825" xmlns="http://www.w3.org/2000/svg" version="1.1">
 <metadata>
  <rdf:RDF xmlns:dc="http://purl.org/dc/elements/1.1/" xmlns:cc="http://creativecommons.org/ns#" xmlns:rdf="http://www.w3.org/1999/02/22-rdf-syntax-ns#">
   <cc:Work>
    <dc:type rdf:resource="http://purl.org/dc/dcmitype/StillImage"/>
    <dc:date>2024-02-22T16:35:42.335724</dc:date>
    <dc:format>image/svg+xml</dc:format>
    <dc:creator>
     <cc:Agent>
      <dc:title>Matplotlib v3.8.2, https://matplotlib.org/</dc:title>
     </cc:Agent>
    </dc:creator>
   </cc:Work>
  </rdf:RDF>
 </metadata>
 <defs>
  <style type="text/css">*{stroke-linejoin: round; stroke-linecap: butt}</style>
 </defs>
 <g id="figure_1">
  <g id="patch_1">
   <path d="M 0 345.42825 
L 571.586937 345.42825 
L 571.586937 -0 
L 0 -0 
L 0 345.42825 
z
" style="fill: none; opacity: 0"/>
  </g>
  <g id="axes_1">
   <g id="patch_2">
    <path d="M 44.210938 162.72 
L 401.330938 162.72 
L 401.330938 41.76 
L 44.210938 41.76 
z
" style="fill: #ffffff"/>
   </g>
   <g id="matplotlib.axis_1">
    <g id="xtick_1">
     <g id="line2d_1">
      <defs>
       <path id="mb8b8ba9887" d="M 0 0 
L 0 3.5 
" style="stroke: #000000; stroke-width: 0.8"/>
      </defs>
      <g>
       <use xlink:href="#mb8b8ba9887" x="92.909119" y="162.72" style="stroke: #000000; stroke-width: 0.8"/>
      </g>
     </g>
    </g>
    <g id="xtick_2">
     <g id="line2d_2">
      <g>
       <use xlink:href="#mb8b8ba9887" x="157.840028" y="162.72" style="stroke: #000000; stroke-width: 0.8"/>
      </g>
     </g>
    </g>
    <g id="xtick_3">
     <g id="line2d_3">
      <g>
       <use xlink:href="#mb8b8ba9887" x="222.770938" y="162.72" style="stroke: #000000; stroke-width: 0.8"/>
      </g>
     </g>
    </g>
    <g id="xtick_4">
     <g id="line2d_4">
      <g>
       <use xlink:href="#mb8b8ba9887" x="287.701847" y="162.72" style="stroke: #000000; stroke-width: 0.8"/>
      </g>
     </g>
    </g>
    <g id="xtick_5">
     <g id="line2d_5">
      <g>
       <use xlink:href="#mb8b8ba9887" x="352.632756" y="162.72" style="stroke: #000000; stroke-width: 0.8"/>
      </g>
     </g>
    </g>
   </g>
   <g id="matplotlib.axis_2">
    <g id="ytick_1">
     <g id="line2d_6">
      <defs>
       <path id="m842488b712" d="M 0 0 
L -3.5 0 
" style="stroke: #000000; stroke-width: 0.8"/>
      </defs>
      <g>
       <use xlink:href="#m842488b712" x="44.210938" y="158.89492" style="stroke: #000000; stroke-width: 0.8"/>
      </g>
     </g>
     <g id="text_1">
      <!-- -10 -->
      <g transform="translate(20.878125 162.694138) scale(0.1 -0.1)">
       <defs>
        <path id="DejaVuSans-2d" d="M 313 2009 
L 1997 2009 
L 1997 1497 
L 313 1497 
L 313 2009 
z
" transform="scale(0.015625)"/>
        <path id="DejaVuSans-31" d="M 794 531 
L 1825 531 
L 1825 4091 
L 703 3866 
L 703 4441 
L 1819 4666 
L 2450 4666 
L 2450 531 
L 3481 531 
L 3481 0 
L 794 0 
L 794 531 
z
" transform="scale(0.015625)"/>
        <path id="DejaVuSans-30" d="M 2034 4250 
Q 1547 4250 1301 3770 
Q 1056 3291 1056 2328 
Q 1056 1369 1301 889 
Q 1547 409 2034 409 
Q 2525 409 2770 889 
Q 3016 1369 3016 2328 
Q 3016 3291 2770 3770 
Q 2525 4250 2034 4250 
z
M 2034 4750 
Q 2819 4750 3233 4129 
Q 3647 3509 3647 2328 
Q 3647 1150 3233 529 
Q 2819 -91 2034 -91 
Q 1250 -91 836 529 
Q 422 1150 422 2328 
Q 422 3509 836 4129 
Q 1250 4750 2034 4750 
z
" transform="scale(0.015625)"/>
       </defs>
       <use xlink:href="#DejaVuSans-2d"/>
       <use xlink:href="#DejaVuSans-31" x="36.083984"/>
       <use xlink:href="#DejaVuSans-30" x="99.707031"/>
      </g>
     </g>
    </g>
    <g id="ytick_2">
     <g id="line2d_7">
      <g>
       <use xlink:href="#m842488b712" x="44.210938" y="130.568275" style="stroke: #000000; stroke-width: 0.8"/>
      </g>
     </g>
     <g id="text_2">
      <!-- -5 -->
      <g transform="translate(27.240625 134.367493) scale(0.1 -0.1)">
       <defs>
        <path id="DejaVuSans-35" d="M 691 4666 
L 3169 4666 
L 3169 4134 
L 1269 4134 
L 1269 2991 
Q 1406 3038 1543 3061 
Q 1681 3084 1819 3084 
Q 2600 3084 3056 2656 
Q 3513 2228 3513 1497 
Q 3513 744 3044 326 
Q 2575 -91 1722 -91 
Q 1428 -91 1123 -41 
Q 819 9 494 109 
L 494 744 
Q 775 591 1075 516 
Q 1375 441 1709 441 
Q 2250 441 2565 725 
Q 2881 1009 2881 1497 
Q 2881 1984 2565 2268 
Q 2250 2553 1709 2553 
Q 1456 2553 1204 2497 
Q 953 2441 691 2322 
L 691 4666 
z
" transform="scale(0.015625)"/>
       </defs>
       <use xlink:href="#DejaVuSans-2d"/>
       <use xlink:href="#DejaVuSans-35" x="36.083984"/>
      </g>
     </g>
    </g>
    <g id="ytick_3">
     <g id="line2d_8">
      <g>
       <use xlink:href="#m842488b712" x="44.210938" y="102.241629" style="stroke: #000000; stroke-width: 0.8"/>
      </g>
     </g>
     <g id="text_3">
      <!-- 0 -->
      <g transform="translate(30.848437 106.040848) scale(0.1 -0.1)">
       <use xlink:href="#DejaVuSans-30"/>
      </g>
     </g>
    </g>
    <g id="ytick_4">
     <g id="line2d_9">
      <g>
       <use xlink:href="#m842488b712" x="44.210938" y="73.914984" style="stroke: #000000; stroke-width: 0.8"/>
      </g>
     </g>
     <g id="text_4">
      <!-- 5 -->
      <g transform="translate(30.848437 77.714203) scale(0.1 -0.1)">
       <use xlink:href="#DejaVuSans-35"/>
      </g>
     </g>
    </g>
    <g id="ytick_5">
     <g id="line2d_10">
      <g>
       <use xlink:href="#m842488b712" x="44.210938" y="45.588339" style="stroke: #000000; stroke-width: 0.8"/>
      </g>
     </g>
     <g id="text_5">
      <!-- 10 -->
      <g transform="translate(24.485937 49.387558) scale(0.1 -0.1)">
       <use xlink:href="#DejaVuSans-31"/>
       <use xlink:href="#DejaVuSans-30" x="63.623047"/>
      </g>
     </g>
    </g>
    <g id="text_6">
     <!-- Re$(S_{21})$ [mV] -->
     <g transform="translate(14.798437 134.24) rotate(-90) scale(0.1 -0.1)">
      <defs>
       <path id="DejaVuSans-52" d="M 2841 2188 
Q 3044 2119 3236 1894 
Q 3428 1669 3622 1275 
L 4263 0 
L 3584 0 
L 2988 1197 
Q 2756 1666 2539 1819 
Q 2322 1972 1947 1972 
L 1259 1972 
L 1259 0 
L 628 0 
L 628 4666 
L 2053 4666 
Q 2853 4666 3247 4331 
Q 3641 3997 3641 3322 
Q 3641 2881 3436 2590 
Q 3231 2300 2841 2188 
z
M 1259 4147 
L 1259 2491 
L 2053 2491 
Q 2509 2491 2742 2702 
Q 2975 2913 2975 3322 
Q 2975 3731 2742 3939 
Q 2509 4147 2053 4147 
L 1259 4147 
z
" transform="scale(0.015625)"/>
       <path id="DejaVuSans-65" d="M 3597 1894 
L 3597 1613 
L 953 1613 
Q 991 1019 1311 708 
Q 1631 397 2203 397 
Q 2534 397 2845 478 
Q 3156 559 3463 722 
L 3463 178 
Q 3153 47 2828 -22 
Q 2503 -91 2169 -91 
Q 1331 -91 842 396 
Q 353 884 353 1716 
Q 353 2575 817 3079 
Q 1281 3584 2069 3584 
Q 2775 3584 3186 3129 
Q 3597 2675 3597 1894 
z
M 3022 2063 
Q 3016 2534 2758 2815 
Q 2500 3097 2075 3097 
Q 1594 3097 1305 2825 
Q 1016 2553 972 2059 
L 3022 2063 
z
" transform="scale(0.015625)"/>
       <path id="DejaVuSans-28" d="M 1984 4856 
Q 1566 4138 1362 3434 
Q 1159 2731 1159 2009 
Q 1159 1288 1364 580 
Q 1569 -128 1984 -844 
L 1484 -844 
Q 1016 -109 783 600 
Q 550 1309 550 2009 
Q 550 2706 781 3412 
Q 1013 4119 1484 4856 
L 1984 4856 
z
" transform="scale(0.015625)"/>
       <path id="DejaVuSans-Oblique-53" d="M 3859 4513 
L 3738 3897 
Q 3422 4066 3111 4152 
Q 2800 4238 2509 4238 
Q 1944 4238 1609 3991 
Q 1275 3744 1275 3334 
Q 1275 3109 1398 2989 
Q 1522 2869 2034 2731 
L 2413 2638 
Q 3053 2472 3303 2217 
Q 3553 1963 3553 1503 
Q 3553 797 2998 353 
Q 2444 -91 1538 -91 
Q 1166 -91 791 -17 
Q 416 56 38 206 
L 166 856 
Q 513 641 861 531 
Q 1209 422 1556 422 
Q 2147 422 2503 684 
Q 2859 947 2859 1369 
Q 2859 1650 2717 1795 
Q 2575 1941 2106 2059 
L 1728 2156 
Q 1081 2325 845 2545 
Q 609 2766 609 3163 
Q 609 3859 1145 4304 
Q 1681 4750 2541 4750 
Q 2875 4750 3203 4690 
Q 3531 4631 3859 4513 
z
" transform="scale(0.015625)"/>
       <path id="DejaVuSans-32" d="M 1228 531 
L 3431 531 
L 3431 0 
L 469 0 
L 469 531 
Q 828 903 1448 1529 
Q 2069 2156 2228 2338 
Q 2531 2678 2651 2914 
Q 2772 3150 2772 3378 
Q 2772 3750 2511 3984 
Q 2250 4219 1831 4219 
Q 1534 4219 1204 4116 
Q 875 4013 500 3803 
L 500 4441 
Q 881 4594 1212 4672 
Q 1544 4750 1819 4750 
Q 2544 4750 2975 4387 
Q 3406 4025 3406 3419 
Q 3406 3131 3298 2873 
Q 3191 2616 2906 2266 
Q 2828 2175 2409 1742 
Q 1991 1309 1228 531 
z
" transform="scale(0.015625)"/>
       <path id="DejaVuSans-29" d="M 513 4856 
L 1013 4856 
Q 1481 4119 1714 3412 
Q 1947 2706 1947 2009 
Q 1947 1309 1714 600 
Q 1481 -109 1013 -844 
L 513 -844 
Q 928 -128 1133 580 
Q 1338 1288 1338 2009 
Q 1338 2731 1133 3434 
Q 928 4138 513 4856 
z
" transform="scale(0.015625)"/>
       <path id="DejaVuSans-20" transform="scale(0.015625)"/>
       <path id="DejaVuSans-5b" d="M 550 4863 
L 1875 4863 
L 1875 4416 
L 1125 4416 
L 1125 -397 
L 1875 -397 
L 1875 -844 
L 550 -844 
L 550 4863 
z
" transform="scale(0.015625)"/>
       <path id="DejaVuSans-6d" d="M 3328 2828 
Q 3544 3216 3844 3400 
Q 4144 3584 4550 3584 
Q 5097 3584 5394 3201 
Q 5691 2819 5691 2113 
L 5691 0 
L 5113 0 
L 5113 2094 
Q 5113 2597 4934 2840 
Q 4756 3084 4391 3084 
Q 3944 3084 3684 2787 
Q 3425 2491 3425 1978 
L 3425 0 
L 2847 0 
L 2847 2094 
Q 2847 2600 2669 2842 
Q 2491 3084 2119 3084 
Q 1678 3084 1418 2786 
Q 1159 2488 1159 1978 
L 1159 0 
L 581 0 
L 581 3500 
L 1159 3500 
L 1159 2956 
Q 1356 3278 1631 3431 
Q 1906 3584 2284 3584 
Q 2666 3584 2933 3390 
Q 3200 3197 3328 2828 
z
" transform="scale(0.015625)"/>
       <path id="DejaVuSans-56" d="M 1831 0 
L 50 4666 
L 709 4666 
L 2188 738 
L 3669 4666 
L 4325 4666 
L 2547 0 
L 1831 0 
z
" transform="scale(0.015625)"/>
       <path id="DejaVuSans-5d" d="M 1947 4863 
L 1947 -844 
L 622 -844 
L 622 -397 
L 1369 -397 
L 1369 4416 
L 622 4416 
L 622 4863 
L 1947 4863 
z
" transform="scale(0.015625)"/>
      </defs>
      <use xlink:href="#DejaVuSans-52" transform="translate(0 0.015625)"/>
      <use xlink:href="#DejaVuSans-65" transform="translate(69.482422 0.015625)"/>
      <use xlink:href="#DejaVuSans-28" transform="translate(131.005859 0.015625)"/>
      <use xlink:href="#DejaVuSans-Oblique-53" transform="translate(170.019531 0.015625)"/>
      <use xlink:href="#DejaVuSans-32" transform="translate(233.496094 -16.390625) scale(0.7)"/>
      <use xlink:href="#DejaVuSans-31" transform="translate(278.032227 -16.390625) scale(0.7)"/>
      <use xlink:href="#DejaVuSans-29" transform="translate(325.302734 0.015625)"/>
      <use xlink:href="#DejaVuSans-20" transform="translate(364.316406 0.015625)"/>
      <use xlink:href="#DejaVuSans-5b" transform="translate(396.103516 0.015625)"/>
      <use xlink:href="#DejaVuSans-6d" transform="translate(435.117188 0.015625)"/>
      <use xlink:href="#DejaVuSans-56" transform="translate(532.529297 0.015625)"/>
      <use xlink:href="#DejaVuSans-5d" transform="translate(600.9375 0.015625)"/>
     </g>
    </g>
   </g>
   <g id="line2d_11">
    <path d="M 60.443665 52.769585 
L 62.075095 53.011481 
L 65.337954 51.773668 
L 66.969384 51.55077 
L 71.863674 50.386725 
L 75.126534 50.008004 
L 76.757964 49.578026 
L 78.389393 49.396412 
L 80.020823 49.385185 
L 81.652253 49.120758 
L 83.283683 49.086753 
L 84.915113 48.742636 
L 86.546543 48.796947 
L 88.177973 48.544498 
L 89.809403 48.066175 
L 91.440832 47.843651 
L 93.072262 48.339355 
L 94.703692 48.01332 
L 96.335122 48.161589 
L 99.597982 48.130288 
L 102.860842 47.802035 
L 109.386561 48.588806 
L 112.649421 48.358116 
L 114.280851 48.607005 
L 115.912281 48.707388 
L 117.54371 49.171466 
L 119.17514 48.96724 
L 120.80657 49.108519 
L 124.06943 49.818732 
L 125.70086 49.895864 
L 127.33229 50.377275 
L 128.96372 50.582573 
L 132.226579 51.306906 
L 133.858009 51.449973 
L 135.489439 51.781193 
L 137.120869 52.55103 
L 138.752299 52.678467 
L 140.383729 53.199916 
L 142.015159 53.589342 
L 143.646588 54.464366 
L 145.278018 54.82369 
L 150.172308 56.318043 
L 151.803738 56.727885 
L 153.435168 57.639313 
L 155.066598 58.229987 
L 156.698027 58.642317 
L 158.329457 59.683423 
L 161.592317 61.145128 
L 163.223747 61.822186 
L 164.855177 62.860841 
L 166.486607 63.442925 
L 168.118037 64.192073 
L 169.749467 64.692998 
L 171.380896 65.546034 
L 173.012326 66.169078 
L 174.643756 67.215289 
L 176.275186 67.692037 
L 177.906616 68.588103 
L 179.538046 69.17165 
L 182.800906 71.420322 
L 184.432335 71.871263 
L 189.326625 74.708031 
L 190.958055 75.236175 
L 192.589485 76.691008 
L 194.220915 77.255295 
L 195.852345 78.41996 
L 199.115204 80.439391 
L 200.746634 81.225555 
L 202.378064 82.541591 
L 204.009494 83.574051 
L 205.640924 84.391744 
L 207.272354 85.438248 
L 208.903784 86.204038 
L 210.535213 87.467593 
L 212.166643 88.537777 
L 213.798073 89.133117 
L 215.429503 90.624436 
L 218.692363 92.464489 
L 220.323793 93.749682 
L 225.218082 96.891815 
L 226.849512 97.730393 
L 235.006662 102.91219 
L 239.900951 106.339651 
L 241.532381 107.143324 
L 246.426671 110.177412 
L 248.058101 111.512498 
L 249.68953 112.24193 
L 251.32096 113.116997 
L 252.95239 114.43817 
L 254.58382 115.322938 
L 256.21525 116.381571 
L 257.84668 117.2041 
L 259.47811 118.486169 
L 261.10954 119.478945 
L 262.740969 120.252419 
L 264.372399 121.507844 
L 266.003829 122.420726 
L 267.635259 123.605942 
L 269.266689 124.581205 
L 270.898119 126.043016 
L 274.160979 128.033494 
L 275.792408 129.288565 
L 277.423838 130.303988 
L 280.686698 132.740862 
L 282.318128 133.616406 
L 283.949558 135.206303 
L 285.580988 136.618207 
L 287.212418 137.804512 
L 290.475277 140.624681 
L 295.369567 145.676809 
L 297.000997 147.485711 
L 298.632427 149.675569 
L 301.895287 153.338131 
L 303.526716 154.461851 
L 305.158146 154.903583 
L 306.789576 151.0692 
L 308.421006 141.377371 
L 310.052436 126.313827 
L 311.683866 113.598774 
L 313.315296 107.89878 
L 314.946726 108.487907 
L 318.209585 115.7312 
L 319.841015 119.567649 
L 324.735305 128.353874 
L 327.998165 132.218374 
L 329.629594 134.314193 
L 332.892454 137.144116 
L 334.523884 138.414498 
L 336.155314 139.486154 
L 337.786744 140.794081 
L 339.418174 141.785982 
L 341.049604 142.633707 
L 342.681033 143.903095 
L 344.312463 144.839494 
L 345.943893 145.388439 
L 349.206753 147.299256 
L 350.838183 147.71189 
L 352.469613 148.650865 
L 354.101043 149.379778 
L 355.732472 149.877992 
L 357.363902 150.839807 
L 360.626762 151.781133 
L 362.258192 152.191614 
L 363.889622 152.971094 
L 367.152482 153.78487 
L 368.783911 154.30598 
L 370.415341 154.428086 
L 372.046771 155.111675 
L 373.678201 155.329342 
L 375.309631 155.763177 
L 378.572491 156.402549 
L 380.203921 156.437901 
L 383.46678 157.064019 
L 385.09821 157.221818 
L 385.09821 157.221818 
" clip-path="url(#pde77f52a20)" style="fill: none; stroke: #1f77b4; stroke-width: 1.5; stroke-linecap: square"/>
    <defs>
     <path id="mbdb7369695" d="M 0 1.5 
C 0.397805 1.5 0.77937 1.341951 1.06066 1.06066 
C 1.341951 0.77937 1.5 0.397805 1.5 0 
C 1.5 -0.397805 1.341951 -0.77937 1.06066 -1.06066 
C 0.77937 -1.341951 0.397805 -1.5 0 -1.5 
C -0.397805 -1.5 -0.77937 -1.341951 -1.06066 -1.06066 
C -1.341951 -0.77937 -1.5 -0.397805 -1.5 0 
C -1.5 0.397805 -1.341951 0.77937 -1.06066 1.06066 
C -0.77937 1.341951 -0.397805 1.5 0 1.5 
z
" style="stroke: #1f77b4"/>
    </defs>
    <g clip-path="url(#pde77f52a20)">
     <use xlink:href="#mbdb7369695" x="60.443665" y="52.769585" style="fill: #1f77b4; stroke: #1f77b4"/>
     <use xlink:href="#mbdb7369695" x="62.075095" y="53.011481" style="fill: #1f77b4; stroke: #1f77b4"/>
     <use xlink:href="#mbdb7369695" x="63.706525" y="52.3988" style="fill: #1f77b4; stroke: #1f77b4"/>
     <use xlink:href="#mbdb7369695" x="65.337954" y="51.773668" style="fill: #1f77b4; stroke: #1f77b4"/>
     <use xlink:href="#mbdb7369695" x="66.969384" y="51.55077" style="fill: #1f77b4; stroke: #1f77b4"/>
     <use xlink:href="#mbdb7369695" x="68.600814" y="51.13367" style="fill: #1f77b4; stroke: #1f77b4"/>
     <use xlink:href="#mbdb7369695" x="70.232244" y="50.618789" style="fill: #1f77b4; stroke: #1f77b4"/>
     <use xlink:href="#mbdb7369695" x="71.863674" y="50.386725" style="fill: #1f77b4; stroke: #1f77b4"/>
     <use xlink:href="#mbdb7369695" x="73.495104" y="50.237214" style="fill: #1f77b4; stroke: #1f77b4"/>
     <use xlink:href="#mbdb7369695" x="75.126534" y="50.008004" style="fill: #1f77b4; stroke: #1f77b4"/>
     <use xlink:href="#mbdb7369695" x="76.757964" y="49.578026" style="fill: #1f77b4; stroke: #1f77b4"/>
     <use xlink:href="#mbdb7369695" x="78.389393" y="49.396412" style="fill: #1f77b4; stroke: #1f77b4"/>
     <use xlink:href="#mbdb7369695" x="80.020823" y="49.385185" style="fill: #1f77b4; stroke: #1f77b4"/>
     <use xlink:href="#mbdb7369695" x="81.652253" y="49.120758" style="fill: #1f77b4; stroke: #1f77b4"/>
     <use xlink:href="#mbdb7369695" x="83.283683" y="49.086753" style="fill: #1f77b4; stroke: #1f77b4"/>
     <use xlink:href="#mbdb7369695" x="84.915113" y="48.742636" style="fill: #1f77b4; stroke: #1f77b4"/>
     <use xlink:href="#mbdb7369695" x="86.546543" y="48.796947" style="fill: #1f77b4; stroke: #1f77b4"/>
     <use xlink:href="#mbdb7369695" x="88.177973" y="48.544498" style="fill: #1f77b4; stroke: #1f77b4"/>
     <use xlink:href="#mbdb7369695" x="89.809403" y="48.066175" style="fill: #1f77b4; stroke: #1f77b4"/>
     <use xlink:href="#mbdb7369695" x="91.440832" y="47.843651" style="fill: #1f77b4; stroke: #1f77b4"/>
     <use xlink:href="#mbdb7369695" x="93.072262" y="48.339355" style="fill: #1f77b4; stroke: #1f77b4"/>
     <use xlink:href="#mbdb7369695" x="94.703692" y="48.01332" style="fill: #1f77b4; stroke: #1f77b4"/>
     <use xlink:href="#mbdb7369695" x="96.335122" y="48.161589" style="fill: #1f77b4; stroke: #1f77b4"/>
     <use xlink:href="#mbdb7369695" x="97.966552" y="48.175481" style="fill: #1f77b4; stroke: #1f77b4"/>
     <use xlink:href="#mbdb7369695" x="99.597982" y="48.130288" style="fill: #1f77b4; stroke: #1f77b4"/>
     <use xlink:href="#mbdb7369695" x="101.229412" y="47.973862" style="fill: #1f77b4; stroke: #1f77b4"/>
     <use xlink:href="#mbdb7369695" x="102.860842" y="47.802035" style="fill: #1f77b4; stroke: #1f77b4"/>
     <use xlink:href="#mbdb7369695" x="104.492271" y="48.015764" style="fill: #1f77b4; stroke: #1f77b4"/>
     <use xlink:href="#mbdb7369695" x="106.123701" y="48.301167" style="fill: #1f77b4; stroke: #1f77b4"/>
     <use xlink:href="#mbdb7369695" x="107.755131" y="48.338302" style="fill: #1f77b4; stroke: #1f77b4"/>
     <use xlink:href="#mbdb7369695" x="109.386561" y="48.588806" style="fill: #1f77b4; stroke: #1f77b4"/>
     <use xlink:href="#mbdb7369695" x="111.017991" y="48.424892" style="fill: #1f77b4; stroke: #1f77b4"/>
     <use xlink:href="#mbdb7369695" x="112.649421" y="48.358116" style="fill: #1f77b4; stroke: #1f77b4"/>
     <use xlink:href="#mbdb7369695" x="114.280851" y="48.607005" style="fill: #1f77b4; stroke: #1f77b4"/>
     <use xlink:href="#mbdb7369695" x="115.912281" y="48.707388" style="fill: #1f77b4; stroke: #1f77b4"/>
     <use xlink:href="#mbdb7369695" x="117.54371" y="49.171466" style="fill: #1f77b4; stroke: #1f77b4"/>
     <use xlink:href="#mbdb7369695" x="119.17514" y="48.96724" style="fill: #1f77b4; stroke: #1f77b4"/>
     <use xlink:href="#mbdb7369695" x="120.80657" y="49.108519" style="fill: #1f77b4; stroke: #1f77b4"/>
     <use xlink:href="#mbdb7369695" x="122.438" y="49.452678" style="fill: #1f77b4; stroke: #1f77b4"/>
     <use xlink:href="#mbdb7369695" x="124.06943" y="49.818732" style="fill: #1f77b4; stroke: #1f77b4"/>
     <use xlink:href="#mbdb7369695" x="125.70086" y="49.895864" style="fill: #1f77b4; stroke: #1f77b4"/>
     <use xlink:href="#mbdb7369695" x="127.33229" y="50.377275" style="fill: #1f77b4; stroke: #1f77b4"/>
     <use xlink:href="#mbdb7369695" x="128.96372" y="50.582573" style="fill: #1f77b4; stroke: #1f77b4"/>
     <use xlink:href="#mbdb7369695" x="130.595149" y="51.002047" style="fill: #1f77b4; stroke: #1f77b4"/>
     <use xlink:href="#mbdb7369695" x="132.226579" y="51.306906" style="fill: #1f77b4; stroke: #1f77b4"/>
     <use xlink:href="#mbdb7369695" x="133.858009" y="51.449973" style="fill: #1f77b4; stroke: #1f77b4"/>
     <use xlink:href="#mbdb7369695" x="135.489439" y="51.781193" style="fill: #1f77b4; stroke: #1f77b4"/>
     <use xlink:href="#mbdb7369695" x="137.120869" y="52.55103" style="fill: #1f77b4; stroke: #1f77b4"/>
     <use xlink:href="#mbdb7369695" x="138.752299" y="52.678467" style="fill: #1f77b4; stroke: #1f77b4"/>
     <use xlink:href="#mbdb7369695" x="140.383729" y="53.199916" style="fill: #1f77b4; stroke: #1f77b4"/>
     <use xlink:href="#mbdb7369695" x="142.015159" y="53.589342" style="fill: #1f77b4; stroke: #1f77b4"/>
     <use xlink:href="#mbdb7369695" x="143.646588" y="54.464366" style="fill: #1f77b4; stroke: #1f77b4"/>
     <use xlink:href="#mbdb7369695" x="145.278018" y="54.82369" style="fill: #1f77b4; stroke: #1f77b4"/>
     <use xlink:href="#mbdb7369695" x="146.909448" y="55.349888" style="fill: #1f77b4; stroke: #1f77b4"/>
     <use xlink:href="#mbdb7369695" x="148.540878" y="55.799804" style="fill: #1f77b4; stroke: #1f77b4"/>
     <use xlink:href="#mbdb7369695" x="150.172308" y="56.318043" style="fill: #1f77b4; stroke: #1f77b4"/>
     <use xlink:href="#mbdb7369695" x="151.803738" y="56.727885" style="fill: #1f77b4; stroke: #1f77b4"/>
     <use xlink:href="#mbdb7369695" x="153.435168" y="57.639313" style="fill: #1f77b4; stroke: #1f77b4"/>
     <use xlink:href="#mbdb7369695" x="155.066598" y="58.229987" style="fill: #1f77b4; stroke: #1f77b4"/>
     <use xlink:href="#mbdb7369695" x="156.698027" y="58.642317" style="fill: #1f77b4; stroke: #1f77b4"/>
     <use xlink:href="#mbdb7369695" x="158.329457" y="59.683423" style="fill: #1f77b4; stroke: #1f77b4"/>
     <use xlink:href="#mbdb7369695" x="159.960887" y="60.457469" style="fill: #1f77b4; stroke: #1f77b4"/>
     <use xlink:href="#mbdb7369695" x="161.592317" y="61.145128" style="fill: #1f77b4; stroke: #1f77b4"/>
     <use xlink:href="#mbdb7369695" x="163.223747" y="61.822186" style="fill: #1f77b4; stroke: #1f77b4"/>
     <use xlink:href="#mbdb7369695" x="164.855177" y="62.860841" style="fill: #1f77b4; stroke: #1f77b4"/>
     <use xlink:href="#mbdb7369695" x="166.486607" y="63.442925" style="fill: #1f77b4; stroke: #1f77b4"/>
     <use xlink:href="#mbdb7369695" x="168.118037" y="64.192073" style="fill: #1f77b4; stroke: #1f77b4"/>
     <use xlink:href="#mbdb7369695" x="169.749467" y="64.692998" style="fill: #1f77b4; stroke: #1f77b4"/>
     <use xlink:href="#mbdb7369695" x="171.380896" y="65.546034" style="fill: #1f77b4; stroke: #1f77b4"/>
     <use xlink:href="#mbdb7369695" x="173.012326" y="66.169078" style="fill: #1f77b4; stroke: #1f77b4"/>
     <use xlink:href="#mbdb7369695" x="174.643756" y="67.215289" style="fill: #1f77b4; stroke: #1f77b4"/>
     <use xlink:href="#mbdb7369695" x="176.275186" y="67.692037" style="fill: #1f77b4; stroke: #1f77b4"/>
     <use xlink:href="#mbdb7369695" x="177.906616" y="68.588103" style="fill: #1f77b4; stroke: #1f77b4"/>
     <use xlink:href="#mbdb7369695" x="179.538046" y="69.17165" style="fill: #1f77b4; stroke: #1f77b4"/>
     <use xlink:href="#mbdb7369695" x="181.169476" y="70.341846" style="fill: #1f77b4; stroke: #1f77b4"/>
     <use xlink:href="#mbdb7369695" x="182.800906" y="71.420322" style="fill: #1f77b4; stroke: #1f77b4"/>
     <use xlink:href="#mbdb7369695" x="184.432335" y="71.871263" style="fill: #1f77b4; stroke: #1f77b4"/>
     <use xlink:href="#mbdb7369695" x="186.063765" y="72.837782" style="fill: #1f77b4; stroke: #1f77b4"/>
     <use xlink:href="#mbdb7369695" x="187.695195" y="73.903572" style="fill: #1f77b4; stroke: #1f77b4"/>
     <use xlink:href="#mbdb7369695" x="189.326625" y="74.708031" style="fill: #1f77b4; stroke: #1f77b4"/>
     <use xlink:href="#mbdb7369695" x="190.958055" y="75.236175" style="fill: #1f77b4; stroke: #1f77b4"/>
     <use xlink:href="#mbdb7369695" x="192.589485" y="76.691008" style="fill: #1f77b4; stroke: #1f77b4"/>
     <use xlink:href="#mbdb7369695" x="194.220915" y="77.255295" style="fill: #1f77b4; stroke: #1f77b4"/>
     <use xlink:href="#mbdb7369695" x="195.852345" y="78.41996" style="fill: #1f77b4; stroke: #1f77b4"/>
     <use xlink:href="#mbdb7369695" x="197.483774" y="79.398918" style="fill: #1f77b4; stroke: #1f77b4"/>
     <use xlink:href="#mbdb7369695" x="199.115204" y="80.439391" style="fill: #1f77b4; stroke: #1f77b4"/>
     <use xlink:href="#mbdb7369695" x="200.746634" y="81.225555" style="fill: #1f77b4; stroke: #1f77b4"/>
     <use xlink:href="#mbdb7369695" x="202.378064" y="82.541591" style="fill: #1f77b4; stroke: #1f77b4"/>
     <use xlink:href="#mbdb7369695" x="204.009494" y="83.574051" style="fill: #1f77b4; stroke: #1f77b4"/>
     <use xlink:href="#mbdb7369695" x="205.640924" y="84.391744" style="fill: #1f77b4; stroke: #1f77b4"/>
     <use xlink:href="#mbdb7369695" x="207.272354" y="85.438248" style="fill: #1f77b4; stroke: #1f77b4"/>
     <use xlink:href="#mbdb7369695" x="208.903784" y="86.204038" style="fill: #1f77b4; stroke: #1f77b4"/>
     <use xlink:href="#mbdb7369695" x="210.535213" y="87.467593" style="fill: #1f77b4; stroke: #1f77b4"/>
     <use xlink:href="#mbdb7369695" x="212.166643" y="88.537777" style="fill: #1f77b4; stroke: #1f77b4"/>
     <use xlink:href="#mbdb7369695" x="213.798073" y="89.133117" style="fill: #1f77b4; stroke: #1f77b4"/>
     <use xlink:href="#mbdb7369695" x="215.429503" y="90.624436" style="fill: #1f77b4; stroke: #1f77b4"/>
     <use xlink:href="#mbdb7369695" x="217.060933" y="91.511751" style="fill: #1f77b4; stroke: #1f77b4"/>
     <use xlink:href="#mbdb7369695" x="218.692363" y="92.464489" style="fill: #1f77b4; stroke: #1f77b4"/>
     <use xlink:href="#mbdb7369695" x="220.323793" y="93.749682" style="fill: #1f77b4; stroke: #1f77b4"/>
     <use xlink:href="#mbdb7369695" x="221.955223" y="94.812252" style="fill: #1f77b4; stroke: #1f77b4"/>
     <use xlink:href="#mbdb7369695" x="223.586652" y="95.764465" style="fill: #1f77b4; stroke: #1f77b4"/>
     <use xlink:href="#mbdb7369695" x="225.218082" y="96.891815" style="fill: #1f77b4; stroke: #1f77b4"/>
     <use xlink:href="#mbdb7369695" x="226.849512" y="97.730393" style="fill: #1f77b4; stroke: #1f77b4"/>
     <use xlink:href="#mbdb7369695" x="228.480942" y="98.761497" style="fill: #1f77b4; stroke: #1f77b4"/>
     <use xlink:href="#mbdb7369695" x="230.112372" y="99.80078" style="fill: #1f77b4; stroke: #1f77b4"/>
     <use xlink:href="#mbdb7369695" x="231.743802" y="100.887021" style="fill: #1f77b4; stroke: #1f77b4"/>
     <use xlink:href="#mbdb7369695" x="233.375232" y="101.757565" style="fill: #1f77b4; stroke: #1f77b4"/>
     <use xlink:href="#mbdb7369695" x="235.006662" y="102.91219" style="fill: #1f77b4; stroke: #1f77b4"/>
     <use xlink:href="#mbdb7369695" x="236.638091" y="104.052752" style="fill: #1f77b4; stroke: #1f77b4"/>
     <use xlink:href="#mbdb7369695" x="238.269521" y="105.271922" style="fill: #1f77b4; stroke: #1f77b4"/>
     <use xlink:href="#mbdb7369695" x="239.900951" y="106.339651" style="fill: #1f77b4; stroke: #1f77b4"/>
     <use xlink:href="#mbdb7369695" x="241.532381" y="107.143324" style="fill: #1f77b4; stroke: #1f77b4"/>
     <use xlink:href="#mbdb7369695" x="243.163811" y="108.130332" style="fill: #1f77b4; stroke: #1f77b4"/>
     <use xlink:href="#mbdb7369695" x="244.795241" y="109.003548" style="fill: #1f77b4; stroke: #1f77b4"/>
     <use xlink:href="#mbdb7369695" x="246.426671" y="110.177412" style="fill: #1f77b4; stroke: #1f77b4"/>
     <use xlink:href="#mbdb7369695" x="248.058101" y="111.512498" style="fill: #1f77b4; stroke: #1f77b4"/>
     <use xlink:href="#mbdb7369695" x="249.68953" y="112.24193" style="fill: #1f77b4; stroke: #1f77b4"/>
     <use xlink:href="#mbdb7369695" x="251.32096" y="113.116997" style="fill: #1f77b4; stroke: #1f77b4"/>
     <use xlink:href="#mbdb7369695" x="252.95239" y="114.43817" style="fill: #1f77b4; stroke: #1f77b4"/>
     <use xlink:href="#mbdb7369695" x="254.58382" y="115.322938" style="fill: #1f77b4; stroke: #1f77b4"/>
     <use xlink:href="#mbdb7369695" x="256.21525" y="116.381571" style="fill: #1f77b4; stroke: #1f77b4"/>
     <use xlink:href="#mbdb7369695" x="257.84668" y="117.2041" style="fill: #1f77b4; stroke: #1f77b4"/>
     <use xlink:href="#mbdb7369695" x="259.47811" y="118.486169" style="fill: #1f77b4; stroke: #1f77b4"/>
     <use xlink:href="#mbdb7369695" x="261.10954" y="119.478945" style="fill: #1f77b4; stroke: #1f77b4"/>
     <use xlink:href="#mbdb7369695" x="262.740969" y="120.252419" style="fill: #1f77b4; stroke: #1f77b4"/>
     <use xlink:href="#mbdb7369695" x="264.372399" y="121.507844" style="fill: #1f77b4; stroke: #1f77b4"/>
     <use xlink:href="#mbdb7369695" x="266.003829" y="122.420726" style="fill: #1f77b4; stroke: #1f77b4"/>
     <use xlink:href="#mbdb7369695" x="267.635259" y="123.605942" style="fill: #1f77b4; stroke: #1f77b4"/>
     <use xlink:href="#mbdb7369695" x="269.266689" y="124.581205" style="fill: #1f77b4; stroke: #1f77b4"/>
     <use xlink:href="#mbdb7369695" x="270.898119" y="126.043016" style="fill: #1f77b4; stroke: #1f77b4"/>
     <use xlink:href="#mbdb7369695" x="272.529549" y="127.050291" style="fill: #1f77b4; stroke: #1f77b4"/>
     <use xlink:href="#mbdb7369695" x="274.160979" y="128.033494" style="fill: #1f77b4; stroke: #1f77b4"/>
     <use xlink:href="#mbdb7369695" x="275.792408" y="129.288565" style="fill: #1f77b4; stroke: #1f77b4"/>
     <use xlink:href="#mbdb7369695" x="277.423838" y="130.303988" style="fill: #1f77b4; stroke: #1f77b4"/>
     <use xlink:href="#mbdb7369695" x="279.055268" y="131.554227" style="fill: #1f77b4; stroke: #1f77b4"/>
     <use xlink:href="#mbdb7369695" x="280.686698" y="132.740862" style="fill: #1f77b4; stroke: #1f77b4"/>
     <use xlink:href="#mbdb7369695" x="282.318128" y="133.616406" style="fill: #1f77b4; stroke: #1f77b4"/>
     <use xlink:href="#mbdb7369695" x="283.949558" y="135.206303" style="fill: #1f77b4; stroke: #1f77b4"/>
     <use xlink:href="#mbdb7369695" x="285.580988" y="136.618207" style="fill: #1f77b4; stroke: #1f77b4"/>
     <use xlink:href="#mbdb7369695" x="287.212418" y="137.804512" style="fill: #1f77b4; stroke: #1f77b4"/>
     <use xlink:href="#mbdb7369695" x="288.843848" y="139.148004" style="fill: #1f77b4; stroke: #1f77b4"/>
     <use xlink:href="#mbdb7369695" x="290.475277" y="140.624681" style="fill: #1f77b4; stroke: #1f77b4"/>
     <use xlink:href="#mbdb7369695" x="292.106707" y="142.287951" style="fill: #1f77b4; stroke: #1f77b4"/>
     <use xlink:href="#mbdb7369695" x="293.738137" y="143.991998" style="fill: #1f77b4; stroke: #1f77b4"/>
     <use xlink:href="#mbdb7369695" x="295.369567" y="145.676809" style="fill: #1f77b4; stroke: #1f77b4"/>
     <use xlink:href="#mbdb7369695" x="297.000997" y="147.485711" style="fill: #1f77b4; stroke: #1f77b4"/>
     <use xlink:href="#mbdb7369695" x="298.632427" y="149.675569" style="fill: #1f77b4; stroke: #1f77b4"/>
     <use xlink:href="#mbdb7369695" x="300.263857" y="151.477633" style="fill: #1f77b4; stroke: #1f77b4"/>
     <use xlink:href="#mbdb7369695" x="301.895287" y="153.338131" style="fill: #1f77b4; stroke: #1f77b4"/>
     <use xlink:href="#mbdb7369695" x="303.526716" y="154.461851" style="fill: #1f77b4; stroke: #1f77b4"/>
     <use xlink:href="#mbdb7369695" x="305.158146" y="154.903583" style="fill: #1f77b4; stroke: #1f77b4"/>
     <use xlink:href="#mbdb7369695" x="306.789576" y="151.0692" style="fill: #1f77b4; stroke: #1f77b4"/>
     <use xlink:href="#mbdb7369695" x="308.421006" y="141.377371" style="fill: #1f77b4; stroke: #1f77b4"/>
     <use xlink:href="#mbdb7369695" x="310.052436" y="126.313827" style="fill: #1f77b4; stroke: #1f77b4"/>
     <use xlink:href="#mbdb7369695" x="311.683866" y="113.598774" style="fill: #1f77b4; stroke: #1f77b4"/>
     <use xlink:href="#mbdb7369695" x="313.315296" y="107.89878" style="fill: #1f77b4; stroke: #1f77b4"/>
     <use xlink:href="#mbdb7369695" x="314.946726" y="108.487907" style="fill: #1f77b4; stroke: #1f77b4"/>
     <use xlink:href="#mbdb7369695" x="316.578155" y="112.04729" style="fill: #1f77b4; stroke: #1f77b4"/>
     <use xlink:href="#mbdb7369695" x="318.209585" y="115.7312" style="fill: #1f77b4; stroke: #1f77b4"/>
     <use xlink:href="#mbdb7369695" x="319.841015" y="119.567649" style="fill: #1f77b4; stroke: #1f77b4"/>
     <use xlink:href="#mbdb7369695" x="321.472445" y="122.556634" style="fill: #1f77b4; stroke: #1f77b4"/>
     <use xlink:href="#mbdb7369695" x="323.103875" y="125.605319" style="fill: #1f77b4; stroke: #1f77b4"/>
     <use xlink:href="#mbdb7369695" x="324.735305" y="128.353874" style="fill: #1f77b4; stroke: #1f77b4"/>
     <use xlink:href="#mbdb7369695" x="326.366735" y="130.270788" style="fill: #1f77b4; stroke: #1f77b4"/>
     <use xlink:href="#mbdb7369695" x="327.998165" y="132.218374" style="fill: #1f77b4; stroke: #1f77b4"/>
     <use xlink:href="#mbdb7369695" x="329.629594" y="134.314193" style="fill: #1f77b4; stroke: #1f77b4"/>
     <use xlink:href="#mbdb7369695" x="331.261024" y="135.769619" style="fill: #1f77b4; stroke: #1f77b4"/>
     <use xlink:href="#mbdb7369695" x="332.892454" y="137.144116" style="fill: #1f77b4; stroke: #1f77b4"/>
     <use xlink:href="#mbdb7369695" x="334.523884" y="138.414498" style="fill: #1f77b4; stroke: #1f77b4"/>
     <use xlink:href="#mbdb7369695" x="336.155314" y="139.486154" style="fill: #1f77b4; stroke: #1f77b4"/>
     <use xlink:href="#mbdb7369695" x="337.786744" y="140.794081" style="fill: #1f77b4; stroke: #1f77b4"/>
     <use xlink:href="#mbdb7369695" x="339.418174" y="141.785982" style="fill: #1f77b4; stroke: #1f77b4"/>
     <use xlink:href="#mbdb7369695" x="341.049604" y="142.633707" style="fill: #1f77b4; stroke: #1f77b4"/>
     <use xlink:href="#mbdb7369695" x="342.681033" y="143.903095" style="fill: #1f77b4; stroke: #1f77b4"/>
     <use xlink:href="#mbdb7369695" x="344.312463" y="144.839494" style="fill: #1f77b4; stroke: #1f77b4"/>
     <use xlink:href="#mbdb7369695" x="345.943893" y="145.388439" style="fill: #1f77b4; stroke: #1f77b4"/>
     <use xlink:href="#mbdb7369695" x="347.575323" y="146.387618" style="fill: #1f77b4; stroke: #1f77b4"/>
     <use xlink:href="#mbdb7369695" x="349.206753" y="147.299256" style="fill: #1f77b4; stroke: #1f77b4"/>
     <use xlink:href="#mbdb7369695" x="350.838183" y="147.71189" style="fill: #1f77b4; stroke: #1f77b4"/>
     <use xlink:href="#mbdb7369695" x="352.469613" y="148.650865" style="fill: #1f77b4; stroke: #1f77b4"/>
     <use xlink:href="#mbdb7369695" x="354.101043" y="149.379778" style="fill: #1f77b4; stroke: #1f77b4"/>
     <use xlink:href="#mbdb7369695" x="355.732472" y="149.877992" style="fill: #1f77b4; stroke: #1f77b4"/>
     <use xlink:href="#mbdb7369695" x="357.363902" y="150.839807" style="fill: #1f77b4; stroke: #1f77b4"/>
     <use xlink:href="#mbdb7369695" x="358.995332" y="151.341814" style="fill: #1f77b4; stroke: #1f77b4"/>
     <use xlink:href="#mbdb7369695" x="360.626762" y="151.781133" style="fill: #1f77b4; stroke: #1f77b4"/>
     <use xlink:href="#mbdb7369695" x="362.258192" y="152.191614" style="fill: #1f77b4; stroke: #1f77b4"/>
     <use xlink:href="#mbdb7369695" x="363.889622" y="152.971094" style="fill: #1f77b4; stroke: #1f77b4"/>
     <use xlink:href="#mbdb7369695" x="365.521052" y="153.369291" style="fill: #1f77b4; stroke: #1f77b4"/>
     <use xlink:href="#mbdb7369695" x="367.152482" y="153.78487" style="fill: #1f77b4; stroke: #1f77b4"/>
     <use xlink:href="#mbdb7369695" x="368.783911" y="154.30598" style="fill: #1f77b4; stroke: #1f77b4"/>
     <use xlink:href="#mbdb7369695" x="370.415341" y="154.428086" style="fill: #1f77b4; stroke: #1f77b4"/>
     <use xlink:href="#mbdb7369695" x="372.046771" y="155.111675" style="fill: #1f77b4; stroke: #1f77b4"/>
     <use xlink:href="#mbdb7369695" x="373.678201" y="155.329342" style="fill: #1f77b4; stroke: #1f77b4"/>
     <use xlink:href="#mbdb7369695" x="375.309631" y="155.763177" style="fill: #1f77b4; stroke: #1f77b4"/>
     <use xlink:href="#mbdb7369695" x="376.941061" y="156.069307" style="fill: #1f77b4; stroke: #1f77b4"/>
     <use xlink:href="#mbdb7369695" x="378.572491" y="156.402549" style="fill: #1f77b4; stroke: #1f77b4"/>
     <use xlink:href="#mbdb7369695" x="380.203921" y="156.437901" style="fill: #1f77b4; stroke: #1f77b4"/>
     <use xlink:href="#mbdb7369695" x="381.83535" y="156.799379" style="fill: #1f77b4; stroke: #1f77b4"/>
     <use xlink:href="#mbdb7369695" x="383.46678" y="157.064019" style="fill: #1f77b4; stroke: #1f77b4"/>
     <use xlink:href="#mbdb7369695" x="385.09821" y="157.221818" style="fill: #1f77b4; stroke: #1f77b4"/>
    </g>
   </g>
   <g id="line2d_12">
    <path d="M 60.443665 51.215652 
L 66.618276 49.954148 
L 72.792887 48.928738 
L 78.642518 48.179621 
L 84.49215 47.650267 
L 90.341781 47.34319 
L 96.191413 47.260031 
L 102.041044 47.401556 
L 107.890675 47.767653 
L 113.740307 48.357338 
L 119.589938 49.168759 
L 125.43957 50.199208 
L 131.614181 51.520589 
L 137.788792 53.076883 
L 143.963403 54.861936 
L 150.462993 56.98025 
L 156.962584 59.334785 
L 163.787154 62.049866 
L 170.611724 65.000676 
L 177.761273 68.329269 
L 185.235802 72.050008 
L 193.36029 76.349233 
L 201.809758 81.072647 
L 211.234164 86.605349 
L 221.633509 92.982351 
L 233.332772 100.430516 
L 246.331953 108.973165 
L 259.656114 117.991472 
L 270.055458 125.28586 
L 277.529987 130.791372 
L 283.054639 135.122419 
L 287.604353 138.966348 
L 291.504107 142.55829 
L 295.078882 146.166359 
L 301.903452 153.267989 
L 302.87839 153.901746 
L 303.528349 154.129128 
L 304.178309 154.128023 
L 304.828268 153.814883 
L 305.478227 153.084006 
L 306.128186 151.807848 
L 306.778145 149.844083 
L 307.428104 147.054786 
L 308.078063 143.34316 
L 309.053001 136.084961 
L 311.652838 114.27849 
L 312.302797 110.71167 
L 312.952756 108.400811 
L 313.277735 107.693849 
L 313.602715 107.256224 
L 313.927694 107.059522 
L 314.252674 107.073334 
L 314.577653 107.267155 
L 315.227612 108.080215 
L 316.202551 110.000225 
L 318.152428 114.775381 
L 320.427285 120.153472 
L 322.052182 123.484616 
L 323.67708 126.384917 
L 325.626957 129.378258 
L 327.576834 131.941356 
L 329.526711 134.164632 
L 331.801568 136.421512 
L 334.401404 138.655145 
L 337.001241 140.602288 
L 339.926056 142.524759 
L 343.175852 144.396487 
L 346.750626 146.197247 
L 350.650381 147.909426 
L 354.875114 149.51562 
L 359.424828 150.997004 
L 363.974541 152.250887 
L 368.849234 153.36573 
L 373.723927 154.261633 
L 378.923599 154.99032 
L 384.123272 155.495832 
L 385.09821 155.566503 
L 385.09821 155.566503 
" clip-path="url(#pde77f52a20)" style="fill: none; stroke: #d62728; stroke-width: 1.5; stroke-linecap: square"/>
   </g>
   <g id="patch_3">
    <path d="M 44.210938 162.72 
L 44.210938 41.76 
" style="fill: none; stroke: #000000; stroke-width: 0.8; stroke-linejoin: miter; stroke-linecap: square"/>
   </g>
   <g id="patch_4">
    <path d="M 401.330938 162.72 
L 401.330938 41.76 
" style="fill: none; stroke: #000000; stroke-width: 0.8; stroke-linejoin: miter; stroke-linecap: square"/>
   </g>
   <g id="patch_5">
    <path d="M 44.210938 162.72 
L 401.330938 162.72 
" style="fill: none; stroke: #000000; stroke-width: 0.8; stroke-linejoin: miter; stroke-linecap: square"/>
   </g>
   <g id="patch_6">
    <path d="M 44.210938 41.76 
L 401.330938 41.76 
" style="fill: none; stroke: #000000; stroke-width: 0.8; stroke-linejoin: miter; stroke-linecap: square"/>
   </g>
   <g id="text_7">
    <g id="patch_7">
     <path d="M 419.186937 95.079562 
L 564.386938 95.079562 
Q 568.386938 95.079562 568.386938 91.079562 
L 568.386938 47.808 
Q 568.386938 43.808 564.386938 43.808 
L 419.186937 43.808 
Q 415.186937 43.808 415.186937 47.808 
L 415.186937 91.079562 
Q 415.186937 95.079562 419.186937 95.079562 
z
" style="fill: #ffffff; opacity: 0.5; stroke: #000000; stroke-linejoin: miter"/>
    </g>
    <!-- Summary -->
    <g transform="translate(419.186937 55.406437) scale(0.1 -0.1)">
     <defs>
      <path id="DejaVuSans-53" d="M 3425 4513 
L 3425 3897 
Q 3066 4069 2747 4153 
Q 2428 4238 2131 4238 
Q 1616 4238 1336 4038 
Q 1056 3838 1056 3469 
Q 1056 3159 1242 3001 
Q 1428 2844 1947 2747 
L 2328 2669 
Q 3034 2534 3370 2195 
Q 3706 1856 3706 1288 
Q 3706 609 3251 259 
Q 2797 -91 1919 -91 
Q 1588 -91 1214 -16 
Q 841 59 441 206 
L 441 856 
Q 825 641 1194 531 
Q 1563 422 1919 422 
Q 2459 422 2753 634 
Q 3047 847 3047 1241 
Q 3047 1584 2836 1778 
Q 2625 1972 2144 2069 
L 1759 2144 
Q 1053 2284 737 2584 
Q 422 2884 422 3419 
Q 422 4038 858 4394 
Q 1294 4750 2059 4750 
Q 2388 4750 2728 4690 
Q 3069 4631 3425 4513 
z
" transform="scale(0.015625)"/>
      <path id="DejaVuSans-75" d="M 544 1381 
L 544 3500 
L 1119 3500 
L 1119 1403 
Q 1119 906 1312 657 
Q 1506 409 1894 409 
Q 2359 409 2629 706 
Q 2900 1003 2900 1516 
L 2900 3500 
L 3475 3500 
L 3475 0 
L 2900 0 
L 2900 538 
Q 2691 219 2414 64 
Q 2138 -91 1772 -91 
Q 1169 -91 856 284 
Q 544 659 544 1381 
z
M 1991 3584 
L 1991 3584 
z
" transform="scale(0.015625)"/>
      <path id="DejaVuSans-61" d="M 2194 1759 
Q 1497 1759 1228 1600 
Q 959 1441 959 1056 
Q 959 750 1161 570 
Q 1363 391 1709 391 
Q 2188 391 2477 730 
Q 2766 1069 2766 1631 
L 2766 1759 
L 2194 1759 
z
M 3341 1997 
L 3341 0 
L 2766 0 
L 2766 531 
Q 2569 213 2275 61 
Q 1981 -91 1556 -91 
Q 1019 -91 701 211 
Q 384 513 384 1019 
Q 384 1609 779 1909 
Q 1175 2209 1959 2209 
L 2766 2209 
L 2766 2266 
Q 2766 2663 2505 2880 
Q 2244 3097 1772 3097 
Q 1472 3097 1187 3025 
Q 903 2953 641 2809 
L 641 3341 
Q 956 3463 1253 3523 
Q 1550 3584 1831 3584 
Q 2591 3584 2966 3190 
Q 3341 2797 3341 1997 
z
" transform="scale(0.015625)"/>
      <path id="DejaVuSans-72" d="M 2631 2963 
Q 2534 3019 2420 3045 
Q 2306 3072 2169 3072 
Q 1681 3072 1420 2755 
Q 1159 2438 1159 1844 
L 1159 0 
L 581 0 
L 581 3500 
L 1159 3500 
L 1159 2956 
Q 1341 3275 1631 3429 
Q 1922 3584 2338 3584 
Q 2397 3584 2469 3576 
Q 2541 3569 2628 3553 
L 2631 2963 
z
" transform="scale(0.015625)"/>
      <path id="DejaVuSans-79" d="M 2059 -325 
Q 1816 -950 1584 -1140 
Q 1353 -1331 966 -1331 
L 506 -1331 
L 506 -850 
L 844 -850 
Q 1081 -850 1212 -737 
Q 1344 -625 1503 -206 
L 1606 56 
L 191 3500 
L 800 3500 
L 1894 763 
L 2988 3500 
L 3597 3500 
L 2059 -325 
z
" transform="scale(0.015625)"/>
     </defs>
     <use xlink:href="#DejaVuSans-53"/>
     <use xlink:href="#DejaVuSans-75" x="63.476562"/>
     <use xlink:href="#DejaVuSans-6d" x="126.855469"/>
     <use xlink:href="#DejaVuSans-6d" x="224.267578"/>
     <use xlink:href="#DejaVuSans-61" x="321.679688"/>
     <use xlink:href="#DejaVuSans-72" x="382.958984"/>
     <use xlink:href="#DejaVuSans-79" x="424.072266"/>
    </g>
    <!-- $Q_I$: 20.88$\pm$0.97 k -->
    <g transform="translate(419.186937 66.60425) scale(0.1 -0.1)">
     <defs>
      <path id="DejaVuSans-Oblique-51" d="M 2309 -84 
Q 2275 -88 2237 -89 
Q 2200 -91 2125 -91 
Q 1250 -91 756 411 
Q 263 913 263 1797 
Q 263 2319 452 2844 
Q 641 3369 978 3788 
Q 1369 4269 1858 4509 
Q 2347 4750 2938 4750 
Q 3794 4750 4287 4245 
Q 4781 3741 4781 2869 
Q 4781 1928 4265 1147 
Q 3750 366 2919 44 
L 3553 -825 
L 2847 -825 
L 2309 -84 
z
M 2919 4238 
Q 2400 4238 2003 3986 
Q 1606 3734 1313 3219 
Q 1125 2891 1026 2522 
Q 928 2153 928 1778 
Q 928 1128 1239 775 
Q 1550 422 2119 422 
Q 2631 422 3032 676 
Q 3434 931 3719 1434 
Q 3909 1772 4009 2142 
Q 4109 2513 4109 2881 
Q 4109 3528 3796 3883 
Q 3484 4238 2919 4238 
z
" transform="scale(0.015625)"/>
      <path id="DejaVuSans-Oblique-49" d="M 1081 4666 
L 1716 4666 
L 806 0 
L 172 0 
L 1081 4666 
z
" transform="scale(0.015625)"/>
      <path id="DejaVuSans-3a" d="M 750 794 
L 1409 794 
L 1409 0 
L 750 0 
L 750 794 
z
M 750 3309 
L 1409 3309 
L 1409 2516 
L 750 2516 
L 750 3309 
z
" transform="scale(0.015625)"/>
      <path id="DejaVuSans-2e" d="M 684 794 
L 1344 794 
L 1344 0 
L 684 0 
L 684 794 
z
" transform="scale(0.015625)"/>
      <path id="DejaVuSans-38" d="M 2034 2216 
Q 1584 2216 1326 1975 
Q 1069 1734 1069 1313 
Q 1069 891 1326 650 
Q 1584 409 2034 409 
Q 2484 409 2743 651 
Q 3003 894 3003 1313 
Q 3003 1734 2745 1975 
Q 2488 2216 2034 2216 
z
M 1403 2484 
Q 997 2584 770 2862 
Q 544 3141 544 3541 
Q 544 4100 942 4425 
Q 1341 4750 2034 4750 
Q 2731 4750 3128 4425 
Q 3525 4100 3525 3541 
Q 3525 3141 3298 2862 
Q 3072 2584 2669 2484 
Q 3125 2378 3379 2068 
Q 3634 1759 3634 1313 
Q 3634 634 3220 271 
Q 2806 -91 2034 -91 
Q 1263 -91 848 271 
Q 434 634 434 1313 
Q 434 1759 690 2068 
Q 947 2378 1403 2484 
z
M 1172 3481 
Q 1172 3119 1398 2916 
Q 1625 2713 2034 2713 
Q 2441 2713 2670 2916 
Q 2900 3119 2900 3481 
Q 2900 3844 2670 4047 
Q 2441 4250 2034 4250 
Q 1625 4250 1398 4047 
Q 1172 3844 1172 3481 
z
" transform="scale(0.015625)"/>
      <path id="DejaVuSans-b1" d="M 2944 4013 
L 2944 2803 
L 4684 2803 
L 4684 2272 
L 2944 2272 
L 2944 1063 
L 2419 1063 
L 2419 2272 
L 678 2272 
L 678 2803 
L 2419 2803 
L 2419 4013 
L 2944 4013 
z
M 678 531 
L 4684 531 
L 4684 0 
L 678 0 
L 678 531 
z
" transform="scale(0.015625)"/>
      <path id="DejaVuSans-39" d="M 703 97 
L 703 672 
Q 941 559 1184 500 
Q 1428 441 1663 441 
Q 2288 441 2617 861 
Q 2947 1281 2994 2138 
Q 2813 1869 2534 1725 
Q 2256 1581 1919 1581 
Q 1219 1581 811 2004 
Q 403 2428 403 3163 
Q 403 3881 828 4315 
Q 1253 4750 1959 4750 
Q 2769 4750 3195 4129 
Q 3622 3509 3622 2328 
Q 3622 1225 3098 567 
Q 2575 -91 1691 -91 
Q 1453 -91 1209 -44 
Q 966 3 703 97 
z
M 1959 2075 
Q 2384 2075 2632 2365 
Q 2881 2656 2881 3163 
Q 2881 3666 2632 3958 
Q 2384 4250 1959 4250 
Q 1534 4250 1286 3958 
Q 1038 3666 1038 3163 
Q 1038 2656 1286 2365 
Q 1534 2075 1959 2075 
z
" transform="scale(0.015625)"/>
      <path id="DejaVuSans-37" d="M 525 4666 
L 3525 4666 
L 3525 4397 
L 1831 0 
L 1172 0 
L 2766 4134 
L 525 4134 
L 525 4666 
z
" transform="scale(0.015625)"/>
      <path id="DejaVuSans-6b" d="M 581 4863 
L 1159 4863 
L 1159 1991 
L 2875 3500 
L 3609 3500 
L 1753 1863 
L 3688 0 
L 2938 0 
L 1159 1709 
L 1159 0 
L 581 0 
L 581 4863 
z
" transform="scale(0.015625)"/>
     </defs>
     <use xlink:href="#DejaVuSans-Oblique-51" transform="translate(0 0.015625)"/>
     <use xlink:href="#DejaVuSans-Oblique-49" transform="translate(78.710938 -16.390625) scale(0.7)"/>
     <use xlink:href="#DejaVuSans-3a" transform="translate(102.089844 0.015625)"/>
     <use xlink:href="#DejaVuSans-20" transform="translate(135.78125 0.015625)"/>
     <use xlink:href="#DejaVuSans-32" transform="translate(167.568359 0.015625)"/>
     <use xlink:href="#DejaVuSans-30" transform="translate(231.191406 0.015625)"/>
     <use xlink:href="#DejaVuSans-2e" transform="translate(294.814453 0.015625)"/>
     <use xlink:href="#DejaVuSans-38" transform="translate(323.976562 0.015625)"/>
     <use xlink:href="#DejaVuSans-38" transform="translate(387.599609 0.015625)"/>
     <use xlink:href="#DejaVuSans-b1" transform="translate(451.222656 0.015625)"/>
     <use xlink:href="#DejaVuSans-30" transform="translate(535.011719 0.015625)"/>
     <use xlink:href="#DejaVuSans-2e" transform="translate(598.634766 0.015625)"/>
     <use xlink:href="#DejaVuSans-39" transform="translate(630.421875 0.015625)"/>
     <use xlink:href="#DejaVuSans-37" transform="translate(694.044922 0.015625)"/>
     <use xlink:href="#DejaVuSans-20" transform="translate(757.667969 0.015625)"/>
     <use xlink:href="#DejaVuSans-6b" transform="translate(789.455078 0.015625)"/>
    </g>
    <!-- $Q_C$: 4.334$\pm$0.037 k -->
    <g transform="translate(419.186937 77.802062) scale(0.1 -0.1)">
     <defs>
      <path id="DejaVuSans-Oblique-43" d="M 4447 4306 
L 4319 3641 
Q 4019 3944 3683 4091 
Q 3347 4238 2956 4238 
Q 2422 4238 2017 3981 
Q 1613 3725 1319 3200 
Q 1131 2863 1032 2486 
Q 934 2109 934 1728 
Q 934 1091 1264 756 
Q 1594 422 2222 422 
Q 2656 422 3056 561 
Q 3456 700 3834 978 
L 3688 231 
Q 3316 72 2936 -9 
Q 2556 -91 2175 -91 
Q 1278 -91 773 396 
Q 269 884 269 1753 
Q 269 2309 461 2846 
Q 653 3384 1013 3828 
Q 1394 4300 1883 4525 
Q 2372 4750 3022 4750 
Q 3422 4750 3780 4639 
Q 4138 4528 4447 4306 
z
" transform="scale(0.015625)"/>
      <path id="DejaVuSans-34" d="M 2419 4116 
L 825 1625 
L 2419 1625 
L 2419 4116 
z
M 2253 4666 
L 3047 4666 
L 3047 1625 
L 3713 1625 
L 3713 1100 
L 3047 1100 
L 3047 0 
L 2419 0 
L 2419 1100 
L 313 1100 
L 313 1709 
L 2253 4666 
z
" transform="scale(0.015625)"/>
      <path id="DejaVuSans-33" d="M 2597 2516 
Q 3050 2419 3304 2112 
Q 3559 1806 3559 1356 
Q 3559 666 3084 287 
Q 2609 -91 1734 -91 
Q 1441 -91 1130 -33 
Q 819 25 488 141 
L 488 750 
Q 750 597 1062 519 
Q 1375 441 1716 441 
Q 2309 441 2620 675 
Q 2931 909 2931 1356 
Q 2931 1769 2642 2001 
Q 2353 2234 1838 2234 
L 1294 2234 
L 1294 2753 
L 1863 2753 
Q 2328 2753 2575 2939 
Q 2822 3125 2822 3475 
Q 2822 3834 2567 4026 
Q 2313 4219 1838 4219 
Q 1578 4219 1281 4162 
Q 984 4106 628 3988 
L 628 4550 
Q 988 4650 1302 4700 
Q 1616 4750 1894 4750 
Q 2613 4750 3031 4423 
Q 3450 4097 3450 3541 
Q 3450 3153 3228 2886 
Q 3006 2619 2597 2516 
z
" transform="scale(0.015625)"/>
     </defs>
     <use xlink:href="#DejaVuSans-Oblique-51" transform="translate(0 0.015625)"/>
     <use xlink:href="#DejaVuSans-Oblique-43" transform="translate(78.710938 -16.390625) scale(0.7)"/>
     <use xlink:href="#DejaVuSans-3a" transform="translate(130.322266 0.015625)"/>
     <use xlink:href="#DejaVuSans-20" transform="translate(164.013672 0.015625)"/>
     <use xlink:href="#DejaVuSans-34" transform="translate(195.800781 0.015625)"/>
     <use xlink:href="#DejaVuSans-2e" transform="translate(259.423828 0.015625)"/>
     <use xlink:href="#DejaVuSans-33" transform="translate(291.210938 0.015625)"/>
     <use xlink:href="#DejaVuSans-33" transform="translate(354.833984 0.015625)"/>
     <use xlink:href="#DejaVuSans-34" transform="translate(418.457031 0.015625)"/>
     <use xlink:href="#DejaVuSans-b1" transform="translate(482.080078 0.015625)"/>
     <use xlink:href="#DejaVuSans-30" transform="translate(565.869141 0.015625)"/>
     <use xlink:href="#DejaVuSans-2e" transform="translate(629.492188 0.015625)"/>
     <use xlink:href="#DejaVuSans-30" transform="translate(661.279297 0.015625)"/>
     <use xlink:href="#DejaVuSans-33" transform="translate(724.902344 0.015625)"/>
     <use xlink:href="#DejaVuSans-37" transform="translate(788.525391 0.015625)"/>
     <use xlink:href="#DejaVuSans-20" transform="translate(852.148438 0.015625)"/>
     <use xlink:href="#DejaVuSans-6b" transform="translate(883.935547 0.015625)"/>
    </g>
    <!-- $f_{res}$: 5.9135260$\pm$9.2e-06 GHz -->
    <g transform="translate(419.186937 88.999875) scale(0.1 -0.1)">
     <defs>
      <path id="DejaVuSans-Oblique-66" d="M 3059 4863 
L 2969 4384 
L 2419 4384 
Q 2106 4384 1964 4261 
Q 1822 4138 1753 3809 
L 1691 3500 
L 2638 3500 
L 2553 3053 
L 1606 3053 
L 1013 0 
L 434 0 
L 1031 3053 
L 481 3053 
L 563 3500 
L 1113 3500 
L 1159 3744 
Q 1278 4363 1576 4613 
Q 1875 4863 2516 4863 
L 3059 4863 
z
" transform="scale(0.015625)"/>
      <path id="DejaVuSans-Oblique-72" d="M 2853 2969 
Q 2766 3016 2653 3041 
Q 2541 3066 2413 3066 
Q 1953 3066 1609 2717 
Q 1266 2369 1153 1784 
L 800 0 
L 225 0 
L 909 3500 
L 1484 3500 
L 1375 2956 
Q 1603 3259 1920 3421 
Q 2238 3584 2597 3584 
Q 2691 3584 2781 3573 
Q 2872 3563 2963 3538 
L 2853 2969 
z
" transform="scale(0.015625)"/>
      <path id="DejaVuSans-Oblique-65" d="M 3078 2063 
Q 3088 2113 3092 2166 
Q 3097 2219 3097 2272 
Q 3097 2653 2873 2875 
Q 2650 3097 2266 3097 
Q 1838 3097 1509 2826 
Q 1181 2556 1013 2059 
L 3078 2063 
z
M 3578 1613 
L 903 1613 
Q 884 1494 878 1425 
Q 872 1356 872 1306 
Q 872 872 1139 634 
Q 1406 397 1894 397 
Q 2269 397 2603 481 
Q 2938 566 3225 728 
L 3116 159 
Q 2806 34 2476 -28 
Q 2147 -91 1806 -91 
Q 1078 -91 686 257 
Q 294 606 294 1247 
Q 294 1794 489 2264 
Q 684 2734 1063 3103 
Q 1306 3334 1642 3459 
Q 1978 3584 2356 3584 
Q 2950 3584 3301 3228 
Q 3653 2872 3653 2272 
Q 3653 2128 3634 1964 
Q 3616 1800 3578 1613 
z
" transform="scale(0.015625)"/>
      <path id="DejaVuSans-Oblique-73" d="M 3200 3397 
L 3091 2853 
Q 2863 2978 2609 3040 
Q 2356 3103 2088 3103 
Q 1634 3103 1373 2948 
Q 1113 2794 1113 2528 
Q 1113 2219 1719 2053 
Q 1766 2041 1788 2034 
L 1972 1978 
Q 2547 1819 2739 1644 
Q 2931 1469 2931 1166 
Q 2931 609 2489 259 
Q 2047 -91 1331 -91 
Q 1053 -91 747 -37 
Q 441 16 72 128 
L 184 722 
Q 500 559 806 475 
Q 1113 391 1394 391 
Q 1816 391 2080 572 
Q 2344 753 2344 1031 
Q 2344 1331 1650 1516 
L 1591 1531 
L 1394 1581 
Q 956 1697 753 1886 
Q 550 2075 550 2369 
Q 550 2928 970 3256 
Q 1391 3584 2113 3584 
Q 2397 3584 2667 3537 
Q 2938 3491 3200 3397 
z
" transform="scale(0.015625)"/>
      <path id="DejaVuSans-36" d="M 2113 2584 
Q 1688 2584 1439 2293 
Q 1191 2003 1191 1497 
Q 1191 994 1439 701 
Q 1688 409 2113 409 
Q 2538 409 2786 701 
Q 3034 994 3034 1497 
Q 3034 2003 2786 2293 
Q 2538 2584 2113 2584 
z
M 3366 4563 
L 3366 3988 
Q 3128 4100 2886 4159 
Q 2644 4219 2406 4219 
Q 1781 4219 1451 3797 
Q 1122 3375 1075 2522 
Q 1259 2794 1537 2939 
Q 1816 3084 2150 3084 
Q 2853 3084 3261 2657 
Q 3669 2231 3669 1497 
Q 3669 778 3244 343 
Q 2819 -91 2113 -91 
Q 1303 -91 875 529 
Q 447 1150 447 2328 
Q 447 3434 972 4092 
Q 1497 4750 2381 4750 
Q 2619 4750 2861 4703 
Q 3103 4656 3366 4563 
z
" transform="scale(0.015625)"/>
      <path id="DejaVuSans-47" d="M 3809 666 
L 3809 1919 
L 2778 1919 
L 2778 2438 
L 4434 2438 
L 4434 434 
Q 4069 175 3628 42 
Q 3188 -91 2688 -91 
Q 1594 -91 976 548 
Q 359 1188 359 2328 
Q 359 3472 976 4111 
Q 1594 4750 2688 4750 
Q 3144 4750 3555 4637 
Q 3966 4525 4313 4306 
L 4313 3634 
Q 3963 3931 3569 4081 
Q 3175 4231 2741 4231 
Q 1884 4231 1454 3753 
Q 1025 3275 1025 2328 
Q 1025 1384 1454 906 
Q 1884 428 2741 428 
Q 3075 428 3337 486 
Q 3600 544 3809 666 
z
" transform="scale(0.015625)"/>
      <path id="DejaVuSans-48" d="M 628 4666 
L 1259 4666 
L 1259 2753 
L 3553 2753 
L 3553 4666 
L 4184 4666 
L 4184 0 
L 3553 0 
L 3553 2222 
L 1259 2222 
L 1259 0 
L 628 0 
L 628 4666 
z
" transform="scale(0.015625)"/>
      <path id="DejaVuSans-7a" d="M 353 3500 
L 3084 3500 
L 3084 2975 
L 922 459 
L 3084 459 
L 3084 0 
L 275 0 
L 275 525 
L 2438 3041 
L 353 3041 
L 353 3500 
z
" transform="scale(0.015625)"/>
     </defs>
     <use xlink:href="#DejaVuSans-Oblique-66" transform="translate(0 0.015625)"/>
     <use xlink:href="#DejaVuSans-Oblique-72" transform="translate(35.205078 -16.390625) scale(0.7)"/>
     <use xlink:href="#DejaVuSans-Oblique-65" transform="translate(63.984375 -16.390625) scale(0.7)"/>
     <use xlink:href="#DejaVuSans-Oblique-73" transform="translate(107.050781 -16.390625) scale(0.7)"/>
     <use xlink:href="#DejaVuSans-3a" transform="translate(146.254883 0.015625)"/>
     <use xlink:href="#DejaVuSans-20" transform="translate(179.946289 0.015625)"/>
     <use xlink:href="#DejaVuSans-35" transform="translate(211.733398 0.015625)"/>
     <use xlink:href="#DejaVuSans-2e" transform="translate(275.356445 0.015625)"/>
     <use xlink:href="#DejaVuSans-39" transform="translate(307.143555 0.015625)"/>
     <use xlink:href="#DejaVuSans-31" transform="translate(370.766602 0.015625)"/>
     <use xlink:href="#DejaVuSans-33" transform="translate(434.389648 0.015625)"/>
     <use xlink:href="#DejaVuSans-35" transform="translate(498.012695 0.015625)"/>
     <use xlink:href="#DejaVuSans-32" transform="translate(561.635742 0.015625)"/>
     <use xlink:href="#DejaVuSans-36" transform="translate(625.258789 0.015625)"/>
     <use xlink:href="#DejaVuSans-30" transform="translate(688.881836 0.015625)"/>
     <use xlink:href="#DejaVuSans-b1" transform="translate(752.504883 0.015625)"/>
     <use xlink:href="#DejaVuSans-39" transform="translate(836.293945 0.015625)"/>
     <use xlink:href="#DejaVuSans-2e" transform="translate(899.916992 0.015625)"/>
     <use xlink:href="#DejaVuSans-32" transform="translate(926.204102 0.015625)"/>
     <use xlink:href="#DejaVuSans-65" transform="translate(989.827148 0.015625)"/>
     <use xlink:href="#DejaVuSans-2d" transform="translate(1051.350586 0.015625)"/>
     <use xlink:href="#DejaVuSans-30" transform="translate(1087.43457 0.015625)"/>
     <use xlink:href="#DejaVuSans-36" transform="translate(1151.057617 0.015625)"/>
     <use xlink:href="#DejaVuSans-20" transform="translate(1214.680664 0.015625)"/>
     <use xlink:href="#DejaVuSans-47" transform="translate(1246.467773 0.015625)"/>
     <use xlink:href="#DejaVuSans-48" transform="translate(1323.958008 0.015625)"/>
     <use xlink:href="#DejaVuSans-7a" transform="translate(1399.15332 0.015625)"/>
    </g>
   </g>
  </g>
  <g id="axes_2">
   <g id="patch_8">
    <path d="M 44.210938 307.872 
L 401.330938 307.872 
L 401.330938 186.912 
L 44.210938 186.912 
z
" style="fill: #ffffff"/>
   </g>
   <g id="matplotlib.axis_3">
    <g id="xtick_6">
     <g id="line2d_13">
      <g>
       <use xlink:href="#mb8b8ba9887" x="92.909119" y="307.872" style="stroke: #000000; stroke-width: 0.8"/>
      </g>
     </g>
     <g id="text_8">
      <!-- 880 -->
      <g transform="translate(83.365369 322.470438) scale(0.1 -0.1)">
       <use xlink:href="#DejaVuSans-38"/>
       <use xlink:href="#DejaVuSans-38" x="63.623047"/>
       <use xlink:href="#DejaVuSans-30" x="127.246094"/>
      </g>
     </g>
    </g>
    <g id="xtick_7">
     <g id="line2d_14">
      <g>
       <use xlink:href="#mb8b8ba9887" x="157.840028" y="307.872" style="stroke: #000000; stroke-width: 0.8"/>
      </g>
     </g>
     <g id="text_9">
      <!-- 890 -->
      <g transform="translate(148.296278 322.470438) scale(0.1 -0.1)">
       <use xlink:href="#DejaVuSans-38"/>
       <use xlink:href="#DejaVuSans-39" x="63.623047"/>
       <use xlink:href="#DejaVuSans-30" x="127.246094"/>
      </g>
     </g>
    </g>
    <g id="xtick_8">
     <g id="line2d_15">
      <g>
       <use xlink:href="#mb8b8ba9887" x="222.770938" y="307.872" style="stroke: #000000; stroke-width: 0.8"/>
      </g>
     </g>
     <g id="text_10">
      <!-- 900 -->
      <g transform="translate(213.227188 322.470438) scale(0.1 -0.1)">
       <use xlink:href="#DejaVuSans-39"/>
       <use xlink:href="#DejaVuSans-30" x="63.623047"/>
       <use xlink:href="#DejaVuSans-30" x="127.246094"/>
      </g>
     </g>
    </g>
    <g id="xtick_9">
     <g id="line2d_16">
      <g>
       <use xlink:href="#mb8b8ba9887" x="287.701847" y="307.872" style="stroke: #000000; stroke-width: 0.8"/>
      </g>
     </g>
     <g id="text_11">
      <!-- 910 -->
      <g transform="translate(278.158097 322.470438) scale(0.1 -0.1)">
       <use xlink:href="#DejaVuSans-39"/>
       <use xlink:href="#DejaVuSans-31" x="63.623047"/>
       <use xlink:href="#DejaVuSans-30" x="127.246094"/>
      </g>
     </g>
    </g>
    <g id="xtick_10">
     <g id="line2d_17">
      <g>
       <use xlink:href="#mb8b8ba9887" x="352.632756" y="307.872" style="stroke: #000000; stroke-width: 0.8"/>
      </g>
     </g>
     <g id="text_12">
      <!-- 920 -->
      <g transform="translate(343.089006 322.470438) scale(0.1 -0.1)">
       <use xlink:href="#DejaVuSans-39"/>
       <use xlink:href="#DejaVuSans-32" x="63.623047"/>
       <use xlink:href="#DejaVuSans-30" x="127.246094"/>
      </g>
     </g>
    </g>
    <g id="text_13">
     <!-- Frequency [MHz] -->
     <g transform="translate(180.752187 336.148562) scale(0.1 -0.1)">
      <defs>
       <path id="DejaVuSans-46" d="M 628 4666 
L 3309 4666 
L 3309 4134 
L 1259 4134 
L 1259 2759 
L 3109 2759 
L 3109 2228 
L 1259 2228 
L 1259 0 
L 628 0 
L 628 4666 
z
" transform="scale(0.015625)"/>
       <path id="DejaVuSans-71" d="M 947 1747 
Q 947 1113 1208 752 
Q 1469 391 1925 391 
Q 2381 391 2643 752 
Q 2906 1113 2906 1747 
Q 2906 2381 2643 2742 
Q 2381 3103 1925 3103 
Q 1469 3103 1208 2742 
Q 947 2381 947 1747 
z
M 2906 525 
Q 2725 213 2448 61 
Q 2172 -91 1784 -91 
Q 1150 -91 751 415 
Q 353 922 353 1747 
Q 353 2572 751 3078 
Q 1150 3584 1784 3584 
Q 2172 3584 2448 3432 
Q 2725 3281 2906 2969 
L 2906 3500 
L 3481 3500 
L 3481 -1331 
L 2906 -1331 
L 2906 525 
z
" transform="scale(0.015625)"/>
       <path id="DejaVuSans-6e" d="M 3513 2113 
L 3513 0 
L 2938 0 
L 2938 2094 
Q 2938 2591 2744 2837 
Q 2550 3084 2163 3084 
Q 1697 3084 1428 2787 
Q 1159 2491 1159 1978 
L 1159 0 
L 581 0 
L 581 3500 
L 1159 3500 
L 1159 2956 
Q 1366 3272 1645 3428 
Q 1925 3584 2291 3584 
Q 2894 3584 3203 3211 
Q 3513 2838 3513 2113 
z
" transform="scale(0.015625)"/>
       <path id="DejaVuSans-63" d="M 3122 3366 
L 3122 2828 
Q 2878 2963 2633 3030 
Q 2388 3097 2138 3097 
Q 1578 3097 1268 2742 
Q 959 2388 959 1747 
Q 959 1106 1268 751 
Q 1578 397 2138 397 
Q 2388 397 2633 464 
Q 2878 531 3122 666 
L 3122 134 
Q 2881 22 2623 -34 
Q 2366 -91 2075 -91 
Q 1284 -91 818 406 
Q 353 903 353 1747 
Q 353 2603 823 3093 
Q 1294 3584 2113 3584 
Q 2378 3584 2631 3529 
Q 2884 3475 3122 3366 
z
" transform="scale(0.015625)"/>
       <path id="DejaVuSans-4d" d="M 628 4666 
L 1569 4666 
L 2759 1491 
L 3956 4666 
L 4897 4666 
L 4897 0 
L 4281 0 
L 4281 4097 
L 3078 897 
L 2444 897 
L 1241 4097 
L 1241 0 
L 628 0 
L 628 4666 
z
" transform="scale(0.015625)"/>
      </defs>
      <use xlink:href="#DejaVuSans-46"/>
      <use xlink:href="#DejaVuSans-72" x="50.269531"/>
      <use xlink:href="#DejaVuSans-65" x="89.132812"/>
      <use xlink:href="#DejaVuSans-71" x="150.65625"/>
      <use xlink:href="#DejaVuSans-75" x="214.132812"/>
      <use xlink:href="#DejaVuSans-65" x="277.511719"/>
      <use xlink:href="#DejaVuSans-6e" x="339.035156"/>
      <use xlink:href="#DejaVuSans-63" x="402.414062"/>
      <use xlink:href="#DejaVuSans-79" x="457.394531"/>
      <use xlink:href="#DejaVuSans-20" x="516.574219"/>
      <use xlink:href="#DejaVuSans-5b" x="548.361328"/>
      <use xlink:href="#DejaVuSans-4d" x="587.375"/>
      <use xlink:href="#DejaVuSans-48" x="673.654297"/>
      <use xlink:href="#DejaVuSans-7a" x="748.849609"/>
      <use xlink:href="#DejaVuSans-5d" x="801.339844"/>
     </g>
    </g>
    <g id="text_14">
     <!-- +5 GHz -->
     <g transform="translate(362.893438 335.148562) scale(0.1 -0.1)">
      <defs>
       <path id="DejaVuSans-2b" d="M 2944 4013 
L 2944 2272 
L 4684 2272 
L 4684 1741 
L 2944 1741 
L 2944 0 
L 2419 0 
L 2419 1741 
L 678 1741 
L 678 2272 
L 2419 2272 
L 2419 4013 
L 2944 4013 
z
" transform="scale(0.015625)"/>
      </defs>
      <use xlink:href="#DejaVuSans-2b"/>
      <use xlink:href="#DejaVuSans-35" x="83.789062"/>
      <use xlink:href="#DejaVuSans-20" x="147.412109"/>
      <use xlink:href="#DejaVuSans-47" x="179.199219"/>
      <use xlink:href="#DejaVuSans-48" x="256.689453"/>
      <use xlink:href="#DejaVuSans-7a" x="331.884766"/>
     </g>
    </g>
   </g>
   <g id="matplotlib.axis_4">
    <g id="ytick_6">
     <g id="line2d_18">
      <g>
       <use xlink:href="#m842488b712" x="44.210938" y="302.768973" style="stroke: #000000; stroke-width: 0.8"/>
      </g>
     </g>
     <g id="text_15">
      <!-- -10 -->
      <g transform="translate(20.878125 306.568192) scale(0.1 -0.1)">
       <use xlink:href="#DejaVuSans-2d"/>
       <use xlink:href="#DejaVuSans-31" x="36.083984"/>
       <use xlink:href="#DejaVuSans-30" x="99.707031"/>
      </g>
     </g>
    </g>
    <g id="ytick_7">
     <g id="line2d_19">
      <g>
       <use xlink:href="#m842488b712" x="44.210938" y="262.678486" style="stroke: #000000; stroke-width: 0.8"/>
      </g>
     </g>
     <g id="text_16">
      <!-- -5 -->
      <g transform="translate(27.240625 266.477705) scale(0.1 -0.1)">
       <use xlink:href="#DejaVuSans-2d"/>
       <use xlink:href="#DejaVuSans-35" x="36.083984"/>
      </g>
     </g>
    </g>
    <g id="ytick_8">
     <g id="line2d_20">
      <g>
       <use xlink:href="#m842488b712" x="44.210938" y="222.587999" style="stroke: #000000; stroke-width: 0.8"/>
      </g>
     </g>
     <g id="text_17">
      <!-- 0 -->
      <g transform="translate(30.848437 226.387218) scale(0.1 -0.1)">
       <use xlink:href="#DejaVuSans-30"/>
      </g>
     </g>
    </g>
    <g id="text_18">
     <!-- Im$(S_{21})$ [mV] -->
     <g transform="translate(14.798437 279.042) rotate(-90) scale(0.1 -0.1)">
      <defs>
       <path id="DejaVuSans-49" d="M 628 4666 
L 1259 4666 
L 1259 0 
L 628 0 
L 628 4666 
z
" transform="scale(0.015625)"/>
      </defs>
      <use xlink:href="#DejaVuSans-49" transform="translate(0 0.015625)"/>
      <use xlink:href="#DejaVuSans-6d" transform="translate(25.867188 0.015625)"/>
      <use xlink:href="#DejaVuSans-28" transform="translate(123.279297 0.015625)"/>
      <use xlink:href="#DejaVuSans-Oblique-53" transform="translate(162.292969 0.015625)"/>
      <use xlink:href="#DejaVuSans-32" transform="translate(225.769531 -16.390625) scale(0.7)"/>
      <use xlink:href="#DejaVuSans-31" transform="translate(270.305664 -16.390625) scale(0.7)"/>
      <use xlink:href="#DejaVuSans-29" transform="translate(317.576172 0.015625)"/>
      <use xlink:href="#DejaVuSans-20" transform="translate(356.589844 0.015625)"/>
      <use xlink:href="#DejaVuSans-5b" transform="translate(388.376953 0.015625)"/>
      <use xlink:href="#DejaVuSans-6d" transform="translate(427.390625 0.015625)"/>
      <use xlink:href="#DejaVuSans-56" transform="translate(524.802734 0.015625)"/>
      <use xlink:href="#DejaVuSans-5d" transform="translate(593.210938 0.015625)"/>
     </g>
    </g>
   </g>
   <g id="line2d_21">
    <path d="M 60.443665 192.410182 
L 62.075095 193.926658 
L 63.706525 195.216246 
L 65.337954 196.356692 
L 66.969384 198.050226 
L 68.600814 199.502506 
L 70.232244 200.453448 
L 71.863674 202.159673 
L 73.495104 203.379072 
L 75.126534 204.799161 
L 76.757964 205.950036 
L 78.389393 207.903725 
L 80.020823 208.914196 
L 81.652253 210.561294 
L 83.283683 211.680331 
L 84.915113 213.124243 
L 86.546543 214.302946 
L 91.440832 219.090983 
L 93.072262 220.006293 
L 94.703692 221.585457 
L 96.335122 223.446531 
L 97.966552 224.442042 
L 101.229412 227.588 
L 102.860842 228.974813 
L 104.492271 229.921619 
L 106.123701 232.05228 
L 107.755131 233.048921 
L 109.386561 234.85606 
L 112.649421 237.116112 
L 115.912281 239.909504 
L 117.54371 241.532956 
L 119.17514 242.282514 
L 120.80657 244.30294 
L 122.438 245.795369 
L 124.06943 246.462307 
L 127.33229 249.625652 
L 128.96372 251.434806 
L 132.226579 253.577556 
L 133.858009 254.706662 
L 135.489439 256.642471 
L 137.120869 257.623287 
L 138.752299 259.180463 
L 140.383729 260.151661 
L 142.015159 261.417776 
L 143.646588 262.412874 
L 145.278018 263.943169 
L 146.909448 265.136556 
L 148.540878 266.53909 
L 156.698027 272.29513 
L 158.329457 273.194456 
L 159.960887 274.628598 
L 161.592317 275.367879 
L 163.223747 276.782548 
L 164.855177 277.743786 
L 166.486607 278.361397 
L 168.118037 279.529346 
L 169.749467 280.31065 
L 171.380896 280.933101 
L 173.012326 282.374165 
L 174.643756 282.906095 
L 176.275186 283.712548 
L 177.906616 285.182193 
L 179.538046 285.638645 
L 184.432335 288.561461 
L 186.063765 289.791381 
L 187.695195 290.093581 
L 189.326625 290.856352 
L 190.958055 291.838032 
L 194.220915 293.19407 
L 195.852345 294.197382 
L 197.483774 294.275383 
L 199.115204 295.186191 
L 200.746634 295.588696 
L 204.009494 296.914074 
L 207.272354 297.733008 
L 208.903784 298.621501 
L 212.166643 299.072689 
L 217.060933 300.453552 
L 218.692363 300.77116 
L 220.323793 301.356601 
L 223.586652 301.310982 
L 226.849512 301.670744 
L 230.112372 302.264442 
L 231.743802 302.373818 
L 233.375232 301.987784 
L 235.006662 301.835062 
L 236.638091 302.042152 
L 239.900951 301.708075 
L 241.532381 301.967947 
L 244.795241 301.452424 
L 246.426671 301.414179 
L 248.058101 301.162743 
L 249.68953 300.711726 
L 251.32096 300.140036 
L 252.95239 300.095476 
L 254.58382 299.663668 
L 257.84668 299.210109 
L 259.47811 298.376589 
L 261.10954 298.317227 
L 262.740969 297.841715 
L 264.372399 297.700025 
L 266.003829 296.836229 
L 267.635259 296.331465 
L 270.898119 294.898468 
L 272.529549 294.344034 
L 274.160979 293.488423 
L 275.792408 292.768968 
L 277.423838 292.305767 
L 279.055268 290.84813 
L 280.686698 290.14817 
L 282.318128 288.822344 
L 283.949558 288.209726 
L 290.475277 282.667045 
L 292.106707 281.072178 
L 293.738137 278.746121 
L 295.369567 276.724009 
L 297.000997 273.709504 
L 300.263857 265.591899 
L 301.895287 259.705911 
L 303.526716 251.282688 
L 305.158146 240.795588 
L 306.789576 226.943506 
L 308.421006 215.020664 
L 310.052436 212.24437 
L 311.683866 222.231932 
L 313.315296 238.600294 
L 314.946726 252.223408 
L 316.578155 261.528647 
L 318.209585 266.889133 
L 319.841015 269.987469 
L 321.472445 272.076525 
L 323.103875 272.93752 
L 324.735305 273.107776 
L 326.366735 272.945431 
L 327.998165 272.246922 
L 329.629594 271.936155 
L 332.892454 270.52515 
L 334.523884 269.151096 
L 336.155314 268.161329 
L 337.786744 267.854354 
L 341.049604 265.100169 
L 342.681033 264.427295 
L 344.312463 263.362224 
L 345.943893 262.151718 
L 347.575323 261.304804 
L 349.206753 259.91309 
L 350.838183 258.781994 
L 352.469613 257.485415 
L 354.101043 256.542761 
L 357.363902 253.595584 
L 358.995332 252.830449 
L 360.626762 251.477084 
L 362.258192 249.812646 
L 365.521052 247.781883 
L 367.152482 245.471827 
L 368.783911 244.660652 
L 370.415341 243.177427 
L 372.046771 241.972423 
L 373.678201 240.210344 
L 376.941061 238.184285 
L 378.572491 236.221542 
L 381.83535 233.064012 
L 383.46678 231.82668 
L 385.09821 230.254544 
L 385.09821 230.254544 
" clip-path="url(#p9e3cf3de8e)" style="fill: none; stroke: #1f77b4; stroke-width: 1.5; stroke-linecap: square"/>
    <g clip-path="url(#p9e3cf3de8e)">
     <use xlink:href="#mbdb7369695" x="60.443665" y="192.410182" style="fill: #1f77b4; stroke: #1f77b4"/>
     <use xlink:href="#mbdb7369695" x="62.075095" y="193.926658" style="fill: #1f77b4; stroke: #1f77b4"/>
     <use xlink:href="#mbdb7369695" x="63.706525" y="195.216246" style="fill: #1f77b4; stroke: #1f77b4"/>
     <use xlink:href="#mbdb7369695" x="65.337954" y="196.356692" style="fill: #1f77b4; stroke: #1f77b4"/>
     <use xlink:href="#mbdb7369695" x="66.969384" y="198.050226" style="fill: #1f77b4; stroke: #1f77b4"/>
     <use xlink:href="#mbdb7369695" x="68.600814" y="199.502506" style="fill: #1f77b4; stroke: #1f77b4"/>
     <use xlink:href="#mbdb7369695" x="70.232244" y="200.453448" style="fill: #1f77b4; stroke: #1f77b4"/>
     <use xlink:href="#mbdb7369695" x="71.863674" y="202.159673" style="fill: #1f77b4; stroke: #1f77b4"/>
     <use xlink:href="#mbdb7369695" x="73.495104" y="203.379072" style="fill: #1f77b4; stroke: #1f77b4"/>
     <use xlink:href="#mbdb7369695" x="75.126534" y="204.799161" style="fill: #1f77b4; stroke: #1f77b4"/>
     <use xlink:href="#mbdb7369695" x="76.757964" y="205.950036" style="fill: #1f77b4; stroke: #1f77b4"/>
     <use xlink:href="#mbdb7369695" x="78.389393" y="207.903725" style="fill: #1f77b4; stroke: #1f77b4"/>
     <use xlink:href="#mbdb7369695" x="80.020823" y="208.914196" style="fill: #1f77b4; stroke: #1f77b4"/>
     <use xlink:href="#mbdb7369695" x="81.652253" y="210.561294" style="fill: #1f77b4; stroke: #1f77b4"/>
     <use xlink:href="#mbdb7369695" x="83.283683" y="211.680331" style="fill: #1f77b4; stroke: #1f77b4"/>
     <use xlink:href="#mbdb7369695" x="84.915113" y="213.124243" style="fill: #1f77b4; stroke: #1f77b4"/>
     <use xlink:href="#mbdb7369695" x="86.546543" y="214.302946" style="fill: #1f77b4; stroke: #1f77b4"/>
     <use xlink:href="#mbdb7369695" x="88.177973" y="215.85872" style="fill: #1f77b4; stroke: #1f77b4"/>
     <use xlink:href="#mbdb7369695" x="89.809403" y="217.384683" style="fill: #1f77b4; stroke: #1f77b4"/>
     <use xlink:href="#mbdb7369695" x="91.440832" y="219.090983" style="fill: #1f77b4; stroke: #1f77b4"/>
     <use xlink:href="#mbdb7369695" x="93.072262" y="220.006293" style="fill: #1f77b4; stroke: #1f77b4"/>
     <use xlink:href="#mbdb7369695" x="94.703692" y="221.585457" style="fill: #1f77b4; stroke: #1f77b4"/>
     <use xlink:href="#mbdb7369695" x="96.335122" y="223.446531" style="fill: #1f77b4; stroke: #1f77b4"/>
     <use xlink:href="#mbdb7369695" x="97.966552" y="224.442042" style="fill: #1f77b4; stroke: #1f77b4"/>
     <use xlink:href="#mbdb7369695" x="99.597982" y="226.079984" style="fill: #1f77b4; stroke: #1f77b4"/>
     <use xlink:href="#mbdb7369695" x="101.229412" y="227.588" style="fill: #1f77b4; stroke: #1f77b4"/>
     <use xlink:href="#mbdb7369695" x="102.860842" y="228.974813" style="fill: #1f77b4; stroke: #1f77b4"/>
     <use xlink:href="#mbdb7369695" x="104.492271" y="229.921619" style="fill: #1f77b4; stroke: #1f77b4"/>
     <use xlink:href="#mbdb7369695" x="106.123701" y="232.05228" style="fill: #1f77b4; stroke: #1f77b4"/>
     <use xlink:href="#mbdb7369695" x="107.755131" y="233.048921" style="fill: #1f77b4; stroke: #1f77b4"/>
     <use xlink:href="#mbdb7369695" x="109.386561" y="234.85606" style="fill: #1f77b4; stroke: #1f77b4"/>
     <use xlink:href="#mbdb7369695" x="111.017991" y="236.014775" style="fill: #1f77b4; stroke: #1f77b4"/>
     <use xlink:href="#mbdb7369695" x="112.649421" y="237.116112" style="fill: #1f77b4; stroke: #1f77b4"/>
     <use xlink:href="#mbdb7369695" x="114.280851" y="238.533603" style="fill: #1f77b4; stroke: #1f77b4"/>
     <use xlink:href="#mbdb7369695" x="115.912281" y="239.909504" style="fill: #1f77b4; stroke: #1f77b4"/>
     <use xlink:href="#mbdb7369695" x="117.54371" y="241.532956" style="fill: #1f77b4; stroke: #1f77b4"/>
     <use xlink:href="#mbdb7369695" x="119.17514" y="242.282514" style="fill: #1f77b4; stroke: #1f77b4"/>
     <use xlink:href="#mbdb7369695" x="120.80657" y="244.30294" style="fill: #1f77b4; stroke: #1f77b4"/>
     <use xlink:href="#mbdb7369695" x="122.438" y="245.795369" style="fill: #1f77b4; stroke: #1f77b4"/>
     <use xlink:href="#mbdb7369695" x="124.06943" y="246.462307" style="fill: #1f77b4; stroke: #1f77b4"/>
     <use xlink:href="#mbdb7369695" x="125.70086" y="248.061581" style="fill: #1f77b4; stroke: #1f77b4"/>
     <use xlink:href="#mbdb7369695" x="127.33229" y="249.625652" style="fill: #1f77b4; stroke: #1f77b4"/>
     <use xlink:href="#mbdb7369695" x="128.96372" y="251.434806" style="fill: #1f77b4; stroke: #1f77b4"/>
     <use xlink:href="#mbdb7369695" x="130.595149" y="252.570636" style="fill: #1f77b4; stroke: #1f77b4"/>
     <use xlink:href="#mbdb7369695" x="132.226579" y="253.577556" style="fill: #1f77b4; stroke: #1f77b4"/>
     <use xlink:href="#mbdb7369695" x="133.858009" y="254.706662" style="fill: #1f77b4; stroke: #1f77b4"/>
     <use xlink:href="#mbdb7369695" x="135.489439" y="256.642471" style="fill: #1f77b4; stroke: #1f77b4"/>
     <use xlink:href="#mbdb7369695" x="137.120869" y="257.623287" style="fill: #1f77b4; stroke: #1f77b4"/>
     <use xlink:href="#mbdb7369695" x="138.752299" y="259.180463" style="fill: #1f77b4; stroke: #1f77b4"/>
     <use xlink:href="#mbdb7369695" x="140.383729" y="260.151661" style="fill: #1f77b4; stroke: #1f77b4"/>
     <use xlink:href="#mbdb7369695" x="142.015159" y="261.417776" style="fill: #1f77b4; stroke: #1f77b4"/>
     <use xlink:href="#mbdb7369695" x="143.646588" y="262.412874" style="fill: #1f77b4; stroke: #1f77b4"/>
     <use xlink:href="#mbdb7369695" x="145.278018" y="263.943169" style="fill: #1f77b4; stroke: #1f77b4"/>
     <use xlink:href="#mbdb7369695" x="146.909448" y="265.136556" style="fill: #1f77b4; stroke: #1f77b4"/>
     <use xlink:href="#mbdb7369695" x="148.540878" y="266.53909" style="fill: #1f77b4; stroke: #1f77b4"/>
     <use xlink:href="#mbdb7369695" x="150.172308" y="267.67957" style="fill: #1f77b4; stroke: #1f77b4"/>
     <use xlink:href="#mbdb7369695" x="151.803738" y="268.826859" style="fill: #1f77b4; stroke: #1f77b4"/>
     <use xlink:href="#mbdb7369695" x="153.435168" y="270.016821" style="fill: #1f77b4; stroke: #1f77b4"/>
     <use xlink:href="#mbdb7369695" x="155.066598" y="271.139128" style="fill: #1f77b4; stroke: #1f77b4"/>
     <use xlink:href="#mbdb7369695" x="156.698027" y="272.29513" style="fill: #1f77b4; stroke: #1f77b4"/>
     <use xlink:href="#mbdb7369695" x="158.329457" y="273.194456" style="fill: #1f77b4; stroke: #1f77b4"/>
     <use xlink:href="#mbdb7369695" x="159.960887" y="274.628598" style="fill: #1f77b4; stroke: #1f77b4"/>
     <use xlink:href="#mbdb7369695" x="161.592317" y="275.367879" style="fill: #1f77b4; stroke: #1f77b4"/>
     <use xlink:href="#mbdb7369695" x="163.223747" y="276.782548" style="fill: #1f77b4; stroke: #1f77b4"/>
     <use xlink:href="#mbdb7369695" x="164.855177" y="277.743786" style="fill: #1f77b4; stroke: #1f77b4"/>
     <use xlink:href="#mbdb7369695" x="166.486607" y="278.361397" style="fill: #1f77b4; stroke: #1f77b4"/>
     <use xlink:href="#mbdb7369695" x="168.118037" y="279.529346" style="fill: #1f77b4; stroke: #1f77b4"/>
     <use xlink:href="#mbdb7369695" x="169.749467" y="280.31065" style="fill: #1f77b4; stroke: #1f77b4"/>
     <use xlink:href="#mbdb7369695" x="171.380896" y="280.933101" style="fill: #1f77b4; stroke: #1f77b4"/>
     <use xlink:href="#mbdb7369695" x="173.012326" y="282.374165" style="fill: #1f77b4; stroke: #1f77b4"/>
     <use xlink:href="#mbdb7369695" x="174.643756" y="282.906095" style="fill: #1f77b4; stroke: #1f77b4"/>
     <use xlink:href="#mbdb7369695" x="176.275186" y="283.712548" style="fill: #1f77b4; stroke: #1f77b4"/>
     <use xlink:href="#mbdb7369695" x="177.906616" y="285.182193" style="fill: #1f77b4; stroke: #1f77b4"/>
     <use xlink:href="#mbdb7369695" x="179.538046" y="285.638645" style="fill: #1f77b4; stroke: #1f77b4"/>
     <use xlink:href="#mbdb7369695" x="181.169476" y="286.575581" style="fill: #1f77b4; stroke: #1f77b4"/>
     <use xlink:href="#mbdb7369695" x="182.800906" y="287.419389" style="fill: #1f77b4; stroke: #1f77b4"/>
     <use xlink:href="#mbdb7369695" x="184.432335" y="288.561461" style="fill: #1f77b4; stroke: #1f77b4"/>
     <use xlink:href="#mbdb7369695" x="186.063765" y="289.791381" style="fill: #1f77b4; stroke: #1f77b4"/>
     <use xlink:href="#mbdb7369695" x="187.695195" y="290.093581" style="fill: #1f77b4; stroke: #1f77b4"/>
     <use xlink:href="#mbdb7369695" x="189.326625" y="290.856352" style="fill: #1f77b4; stroke: #1f77b4"/>
     <use xlink:href="#mbdb7369695" x="190.958055" y="291.838032" style="fill: #1f77b4; stroke: #1f77b4"/>
     <use xlink:href="#mbdb7369695" x="192.589485" y="292.560354" style="fill: #1f77b4; stroke: #1f77b4"/>
     <use xlink:href="#mbdb7369695" x="194.220915" y="293.19407" style="fill: #1f77b4; stroke: #1f77b4"/>
     <use xlink:href="#mbdb7369695" x="195.852345" y="294.197382" style="fill: #1f77b4; stroke: #1f77b4"/>
     <use xlink:href="#mbdb7369695" x="197.483774" y="294.275383" style="fill: #1f77b4; stroke: #1f77b4"/>
     <use xlink:href="#mbdb7369695" x="199.115204" y="295.186191" style="fill: #1f77b4; stroke: #1f77b4"/>
     <use xlink:href="#mbdb7369695" x="200.746634" y="295.588696" style="fill: #1f77b4; stroke: #1f77b4"/>
     <use xlink:href="#mbdb7369695" x="202.378064" y="296.220671" style="fill: #1f77b4; stroke: #1f77b4"/>
     <use xlink:href="#mbdb7369695" x="204.009494" y="296.914074" style="fill: #1f77b4; stroke: #1f77b4"/>
     <use xlink:href="#mbdb7369695" x="205.640924" y="297.270517" style="fill: #1f77b4; stroke: #1f77b4"/>
     <use xlink:href="#mbdb7369695" x="207.272354" y="297.733008" style="fill: #1f77b4; stroke: #1f77b4"/>
     <use xlink:href="#mbdb7369695" x="208.903784" y="298.621501" style="fill: #1f77b4; stroke: #1f77b4"/>
     <use xlink:href="#mbdb7369695" x="210.535213" y="298.809245" style="fill: #1f77b4; stroke: #1f77b4"/>
     <use xlink:href="#mbdb7369695" x="212.166643" y="299.072689" style="fill: #1f77b4; stroke: #1f77b4"/>
     <use xlink:href="#mbdb7369695" x="213.798073" y="299.533602" style="fill: #1f77b4; stroke: #1f77b4"/>
     <use xlink:href="#mbdb7369695" x="215.429503" y="300.090125" style="fill: #1f77b4; stroke: #1f77b4"/>
     <use xlink:href="#mbdb7369695" x="217.060933" y="300.453552" style="fill: #1f77b4; stroke: #1f77b4"/>
     <use xlink:href="#mbdb7369695" x="218.692363" y="300.77116" style="fill: #1f77b4; stroke: #1f77b4"/>
     <use xlink:href="#mbdb7369695" x="220.323793" y="301.356601" style="fill: #1f77b4; stroke: #1f77b4"/>
     <use xlink:href="#mbdb7369695" x="221.955223" y="301.339548" style="fill: #1f77b4; stroke: #1f77b4"/>
     <use xlink:href="#mbdb7369695" x="223.586652" y="301.310982" style="fill: #1f77b4; stroke: #1f77b4"/>
     <use xlink:href="#mbdb7369695" x="225.218082" y="301.502797" style="fill: #1f77b4; stroke: #1f77b4"/>
     <use xlink:href="#mbdb7369695" x="226.849512" y="301.670744" style="fill: #1f77b4; stroke: #1f77b4"/>
     <use xlink:href="#mbdb7369695" x="228.480942" y="302.024336" style="fill: #1f77b4; stroke: #1f77b4"/>
     <use xlink:href="#mbdb7369695" x="230.112372" y="302.264442" style="fill: #1f77b4; stroke: #1f77b4"/>
     <use xlink:href="#mbdb7369695" x="231.743802" y="302.373818" style="fill: #1f77b4; stroke: #1f77b4"/>
     <use xlink:href="#mbdb7369695" x="233.375232" y="301.987784" style="fill: #1f77b4; stroke: #1f77b4"/>
     <use xlink:href="#mbdb7369695" x="235.006662" y="301.835062" style="fill: #1f77b4; stroke: #1f77b4"/>
     <use xlink:href="#mbdb7369695" x="236.638091" y="302.042152" style="fill: #1f77b4; stroke: #1f77b4"/>
     <use xlink:href="#mbdb7369695" x="238.269521" y="301.916129" style="fill: #1f77b4; stroke: #1f77b4"/>
     <use xlink:href="#mbdb7369695" x="239.900951" y="301.708075" style="fill: #1f77b4; stroke: #1f77b4"/>
     <use xlink:href="#mbdb7369695" x="241.532381" y="301.967947" style="fill: #1f77b4; stroke: #1f77b4"/>
     <use xlink:href="#mbdb7369695" x="243.163811" y="301.68418" style="fill: #1f77b4; stroke: #1f77b4"/>
     <use xlink:href="#mbdb7369695" x="244.795241" y="301.452424" style="fill: #1f77b4; stroke: #1f77b4"/>
     <use xlink:href="#mbdb7369695" x="246.426671" y="301.414179" style="fill: #1f77b4; stroke: #1f77b4"/>
     <use xlink:href="#mbdb7369695" x="248.058101" y="301.162743" style="fill: #1f77b4; stroke: #1f77b4"/>
     <use xlink:href="#mbdb7369695" x="249.68953" y="300.711726" style="fill: #1f77b4; stroke: #1f77b4"/>
     <use xlink:href="#mbdb7369695" x="251.32096" y="300.140036" style="fill: #1f77b4; stroke: #1f77b4"/>
     <use xlink:href="#mbdb7369695" x="252.95239" y="300.095476" style="fill: #1f77b4; stroke: #1f77b4"/>
     <use xlink:href="#mbdb7369695" x="254.58382" y="299.663668" style="fill: #1f77b4; stroke: #1f77b4"/>
     <use xlink:href="#mbdb7369695" x="256.21525" y="299.39979" style="fill: #1f77b4; stroke: #1f77b4"/>
     <use xlink:href="#mbdb7369695" x="257.84668" y="299.210109" style="fill: #1f77b4; stroke: #1f77b4"/>
     <use xlink:href="#mbdb7369695" x="259.47811" y="298.376589" style="fill: #1f77b4; stroke: #1f77b4"/>
     <use xlink:href="#mbdb7369695" x="261.10954" y="298.317227" style="fill: #1f77b4; stroke: #1f77b4"/>
     <use xlink:href="#mbdb7369695" x="262.740969" y="297.841715" style="fill: #1f77b4; stroke: #1f77b4"/>
     <use xlink:href="#mbdb7369695" x="264.372399" y="297.700025" style="fill: #1f77b4; stroke: #1f77b4"/>
     <use xlink:href="#mbdb7369695" x="266.003829" y="296.836229" style="fill: #1f77b4; stroke: #1f77b4"/>
     <use xlink:href="#mbdb7369695" x="267.635259" y="296.331465" style="fill: #1f77b4; stroke: #1f77b4"/>
     <use xlink:href="#mbdb7369695" x="269.266689" y="295.611564" style="fill: #1f77b4; stroke: #1f77b4"/>
     <use xlink:href="#mbdb7369695" x="270.898119" y="294.898468" style="fill: #1f77b4; stroke: #1f77b4"/>
     <use xlink:href="#mbdb7369695" x="272.529549" y="294.344034" style="fill: #1f77b4; stroke: #1f77b4"/>
     <use xlink:href="#mbdb7369695" x="274.160979" y="293.488423" style="fill: #1f77b4; stroke: #1f77b4"/>
     <use xlink:href="#mbdb7369695" x="275.792408" y="292.768968" style="fill: #1f77b4; stroke: #1f77b4"/>
     <use xlink:href="#mbdb7369695" x="277.423838" y="292.305767" style="fill: #1f77b4; stroke: #1f77b4"/>
     <use xlink:href="#mbdb7369695" x="279.055268" y="290.84813" style="fill: #1f77b4; stroke: #1f77b4"/>
     <use xlink:href="#mbdb7369695" x="280.686698" y="290.14817" style="fill: #1f77b4; stroke: #1f77b4"/>
     <use xlink:href="#mbdb7369695" x="282.318128" y="288.822344" style="fill: #1f77b4; stroke: #1f77b4"/>
     <use xlink:href="#mbdb7369695" x="283.949558" y="288.209726" style="fill: #1f77b4; stroke: #1f77b4"/>
     <use xlink:href="#mbdb7369695" x="285.580988" y="286.856238" style="fill: #1f77b4; stroke: #1f77b4"/>
     <use xlink:href="#mbdb7369695" x="287.212418" y="285.617467" style="fill: #1f77b4; stroke: #1f77b4"/>
     <use xlink:href="#mbdb7369695" x="288.843848" y="284.180273" style="fill: #1f77b4; stroke: #1f77b4"/>
     <use xlink:href="#mbdb7369695" x="290.475277" y="282.667045" style="fill: #1f77b4; stroke: #1f77b4"/>
     <use xlink:href="#mbdb7369695" x="292.106707" y="281.072178" style="fill: #1f77b4; stroke: #1f77b4"/>
     <use xlink:href="#mbdb7369695" x="293.738137" y="278.746121" style="fill: #1f77b4; stroke: #1f77b4"/>
     <use xlink:href="#mbdb7369695" x="295.369567" y="276.724009" style="fill: #1f77b4; stroke: #1f77b4"/>
     <use xlink:href="#mbdb7369695" x="297.000997" y="273.709504" style="fill: #1f77b4; stroke: #1f77b4"/>
     <use xlink:href="#mbdb7369695" x="298.632427" y="269.728926" style="fill: #1f77b4; stroke: #1f77b4"/>
     <use xlink:href="#mbdb7369695" x="300.263857" y="265.591899" style="fill: #1f77b4; stroke: #1f77b4"/>
     <use xlink:href="#mbdb7369695" x="301.895287" y="259.705911" style="fill: #1f77b4; stroke: #1f77b4"/>
     <use xlink:href="#mbdb7369695" x="303.526716" y="251.282688" style="fill: #1f77b4; stroke: #1f77b4"/>
     <use xlink:href="#mbdb7369695" x="305.158146" y="240.795588" style="fill: #1f77b4; stroke: #1f77b4"/>
     <use xlink:href="#mbdb7369695" x="306.789576" y="226.943506" style="fill: #1f77b4; stroke: #1f77b4"/>
     <use xlink:href="#mbdb7369695" x="308.421006" y="215.020664" style="fill: #1f77b4; stroke: #1f77b4"/>
     <use xlink:href="#mbdb7369695" x="310.052436" y="212.24437" style="fill: #1f77b4; stroke: #1f77b4"/>
     <use xlink:href="#mbdb7369695" x="311.683866" y="222.231932" style="fill: #1f77b4; stroke: #1f77b4"/>
     <use xlink:href="#mbdb7369695" x="313.315296" y="238.600294" style="fill: #1f77b4; stroke: #1f77b4"/>
     <use xlink:href="#mbdb7369695" x="314.946726" y="252.223408" style="fill: #1f77b4; stroke: #1f77b4"/>
     <use xlink:href="#mbdb7369695" x="316.578155" y="261.528647" style="fill: #1f77b4; stroke: #1f77b4"/>
     <use xlink:href="#mbdb7369695" x="318.209585" y="266.889133" style="fill: #1f77b4; stroke: #1f77b4"/>
     <use xlink:href="#mbdb7369695" x="319.841015" y="269.987469" style="fill: #1f77b4; stroke: #1f77b4"/>
     <use xlink:href="#mbdb7369695" x="321.472445" y="272.076525" style="fill: #1f77b4; stroke: #1f77b4"/>
     <use xlink:href="#mbdb7369695" x="323.103875" y="272.93752" style="fill: #1f77b4; stroke: #1f77b4"/>
     <use xlink:href="#mbdb7369695" x="324.735305" y="273.107776" style="fill: #1f77b4; stroke: #1f77b4"/>
     <use xlink:href="#mbdb7369695" x="326.366735" y="272.945431" style="fill: #1f77b4; stroke: #1f77b4"/>
     <use xlink:href="#mbdb7369695" x="327.998165" y="272.246922" style="fill: #1f77b4; stroke: #1f77b4"/>
     <use xlink:href="#mbdb7369695" x="329.629594" y="271.936155" style="fill: #1f77b4; stroke: #1f77b4"/>
     <use xlink:href="#mbdb7369695" x="331.261024" y="271.19358" style="fill: #1f77b4; stroke: #1f77b4"/>
     <use xlink:href="#mbdb7369695" x="332.892454" y="270.52515" style="fill: #1f77b4; stroke: #1f77b4"/>
     <use xlink:href="#mbdb7369695" x="334.523884" y="269.151096" style="fill: #1f77b4; stroke: #1f77b4"/>
     <use xlink:href="#mbdb7369695" x="336.155314" y="268.161329" style="fill: #1f77b4; stroke: #1f77b4"/>
     <use xlink:href="#mbdb7369695" x="337.786744" y="267.854354" style="fill: #1f77b4; stroke: #1f77b4"/>
     <use xlink:href="#mbdb7369695" x="339.418174" y="266.448226" style="fill: #1f77b4; stroke: #1f77b4"/>
     <use xlink:href="#mbdb7369695" x="341.049604" y="265.100169" style="fill: #1f77b4; stroke: #1f77b4"/>
     <use xlink:href="#mbdb7369695" x="342.681033" y="264.427295" style="fill: #1f77b4; stroke: #1f77b4"/>
     <use xlink:href="#mbdb7369695" x="344.312463" y="263.362224" style="fill: #1f77b4; stroke: #1f77b4"/>
     <use xlink:href="#mbdb7369695" x="345.943893" y="262.151718" style="fill: #1f77b4; stroke: #1f77b4"/>
     <use xlink:href="#mbdb7369695" x="347.575323" y="261.304804" style="fill: #1f77b4; stroke: #1f77b4"/>
     <use xlink:href="#mbdb7369695" x="349.206753" y="259.91309" style="fill: #1f77b4; stroke: #1f77b4"/>
     <use xlink:href="#mbdb7369695" x="350.838183" y="258.781994" style="fill: #1f77b4; stroke: #1f77b4"/>
     <use xlink:href="#mbdb7369695" x="352.469613" y="257.485415" style="fill: #1f77b4; stroke: #1f77b4"/>
     <use xlink:href="#mbdb7369695" x="354.101043" y="256.542761" style="fill: #1f77b4; stroke: #1f77b4"/>
     <use xlink:href="#mbdb7369695" x="355.732472" y="255.123476" style="fill: #1f77b4; stroke: #1f77b4"/>
     <use xlink:href="#mbdb7369695" x="357.363902" y="253.595584" style="fill: #1f77b4; stroke: #1f77b4"/>
     <use xlink:href="#mbdb7369695" x="358.995332" y="252.830449" style="fill: #1f77b4; stroke: #1f77b4"/>
     <use xlink:href="#mbdb7369695" x="360.626762" y="251.477084" style="fill: #1f77b4; stroke: #1f77b4"/>
     <use xlink:href="#mbdb7369695" x="362.258192" y="249.812646" style="fill: #1f77b4; stroke: #1f77b4"/>
     <use xlink:href="#mbdb7369695" x="363.889622" y="248.816471" style="fill: #1f77b4; stroke: #1f77b4"/>
     <use xlink:href="#mbdb7369695" x="365.521052" y="247.781883" style="fill: #1f77b4; stroke: #1f77b4"/>
     <use xlink:href="#mbdb7369695" x="367.152482" y="245.471827" style="fill: #1f77b4; stroke: #1f77b4"/>
     <use xlink:href="#mbdb7369695" x="368.783911" y="244.660652" style="fill: #1f77b4; stroke: #1f77b4"/>
     <use xlink:href="#mbdb7369695" x="370.415341" y="243.177427" style="fill: #1f77b4; stroke: #1f77b4"/>
     <use xlink:href="#mbdb7369695" x="372.046771" y="241.972423" style="fill: #1f77b4; stroke: #1f77b4"/>
     <use xlink:href="#mbdb7369695" x="373.678201" y="240.210344" style="fill: #1f77b4; stroke: #1f77b4"/>
     <use xlink:href="#mbdb7369695" x="375.309631" y="239.163661" style="fill: #1f77b4; stroke: #1f77b4"/>
     <use xlink:href="#mbdb7369695" x="376.941061" y="238.184285" style="fill: #1f77b4; stroke: #1f77b4"/>
     <use xlink:href="#mbdb7369695" x="378.572491" y="236.221542" style="fill: #1f77b4; stroke: #1f77b4"/>
     <use xlink:href="#mbdb7369695" x="380.203921" y="234.620441" style="fill: #1f77b4; stroke: #1f77b4"/>
     <use xlink:href="#mbdb7369695" x="381.83535" y="233.064012" style="fill: #1f77b4; stroke: #1f77b4"/>
     <use xlink:href="#mbdb7369695" x="383.46678" y="231.82668" style="fill: #1f77b4; stroke: #1f77b4"/>
     <use xlink:href="#mbdb7369695" x="385.09821" y="230.254544" style="fill: #1f77b4; stroke: #1f77b4"/>
    </g>
   </g>
   <g id="line2d_22">
    <path d="M 60.443665 194.019584 
L 69.868071 201.579504 
L 81.242354 211.008161 
L 98.791249 225.892567 
L 117.315082 241.521688 
L 128.364385 250.548739 
L 137.463812 257.701959 
L 145.5883 263.812569 
L 153.062829 269.160937 
L 159.887399 273.783942 
L 166.38699 277.931114 
L 172.561601 281.619991 
L 178.736212 285.046642 
L 184.585843 288.03617 
L 190.110495 290.618159 
L 195.635147 292.95502 
L 200.83482 294.921798 
L 206.034492 296.655265 
L 211.234164 298.14831 
L 216.108857 299.323722 
L 220.98355 300.276671 
L 225.858243 301.002056 
L 230.732936 301.4948 
L 235.282649 301.740184 
L 239.832363 301.773743 
L 244.382076 301.590231 
L 248.931789 301.18332 
L 253.481503 300.54493 
L 257.706236 299.735416 
L 261.93097 298.70484 
L 266.155704 297.435832 
L 270.055458 296.030685 
L 273.630233 294.518995 
L 277.205008 292.756835 
L 280.454803 290.891555 
L 283.379619 288.944065 
L 285.979455 286.938913 
L 288.254312 284.90943 
L 290.204189 282.90377 
L 292.154066 280.575873 
L 293.778964 278.313676 
L 295.403861 275.664715 
L 296.703779 273.183597 
L 298.003698 270.285638 
L 299.303616 266.851319 
L 300.603534 262.721788 
L 301.903452 257.691806 
L 303.20337 251.516027 
L 304.503288 243.961081 
L 305.803206 234.982789 
L 308.078063 218.372248 
L 308.728022 214.891423 
L 309.377981 212.85718 
L 309.70296 212.529819 
L 310.02794 212.716855 
L 310.352919 213.435648 
L 310.677899 214.680878 
L 311.327858 218.614585 
L 312.302797 227.146536 
L 314.577653 248.895942 
L 315.552592 256.088027 
L 316.52753 261.640258 
L 317.502469 265.774595 
L 318.477408 268.777347 
L 319.452346 270.910726 
L 320.427285 272.386922 
L 321.402223 273.368442 
L 322.377162 273.976697 
L 323.3521 274.301556 
L 324.327039 274.409473 
L 325.626957 274.299287 
L 326.926875 273.973671 
L 328.551773 273.349814 
L 330.82663 272.199371 
L 333.751445 270.418099 
L 337.32622 267.965065 
L 342.200913 264.339102 
L 348.700503 259.216164 
L 357.149971 252.264006 
L 368.199275 242.865118 
L 384.773231 228.432091 
L 385.09821 228.147586 
L 385.09821 228.147586 
" clip-path="url(#p9e3cf3de8e)" style="fill: none; stroke: #d62728; stroke-width: 1.5; stroke-linecap: square"/>
   </g>
   <g id="patch_9">
    <path d="M 44.210938 307.872 
L 44.210938 186.912 
" style="fill: none; stroke: #000000; stroke-width: 0.8; stroke-linejoin: miter; stroke-linecap: square"/>
   </g>
   <g id="patch_10">
    <path d="M 401.330938 307.872 
L 401.330938 186.912 
" style="fill: none; stroke: #000000; stroke-width: 0.8; stroke-linejoin: miter; stroke-linecap: square"/>
   </g>
   <g id="patch_11">
    <path d="M 44.210938 307.872 
L 401.330938 307.872 
" style="fill: none; stroke: #000000; stroke-width: 0.8; stroke-linejoin: miter; stroke-linecap: square"/>
   </g>
   <g id="patch_12">
    <path d="M 44.210938 186.912 
L 401.330938 186.912 
" style="fill: none; stroke: #000000; stroke-width: 0.8; stroke-linejoin: miter; stroke-linecap: square"/>
   </g>
  </g>
  <g id="text_19">
   <!-- S21 One-tone -->
   <g transform="translate(175.76 16.318125) scale(0.12 -0.12)">
    <defs>
     <path id="DejaVuSans-4f" d="M 2522 4238 
Q 1834 4238 1429 3725 
Q 1025 3213 1025 2328 
Q 1025 1447 1429 934 
Q 1834 422 2522 422 
Q 3209 422 3611 934 
Q 4013 1447 4013 2328 
Q 4013 3213 3611 3725 
Q 3209 4238 2522 4238 
z
M 2522 4750 
Q 3503 4750 4090 4092 
Q 4678 3434 4678 2328 
Q 4678 1225 4090 567 
Q 3503 -91 2522 -91 
Q 1538 -91 948 565 
Q 359 1222 359 2328 
Q 359 3434 948 4092 
Q 1538 4750 2522 4750 
z
" transform="scale(0.015625)"/>
     <path id="DejaVuSans-74" d="M 1172 4494 
L 1172 3500 
L 2356 3500 
L 2356 3053 
L 1172 3053 
L 1172 1153 
Q 1172 725 1289 603 
Q 1406 481 1766 481 
L 2356 481 
L 2356 0 
L 1766 0 
Q 1100 0 847 248 
Q 594 497 594 1153 
L 594 3053 
L 172 3053 
L 172 3500 
L 594 3500 
L 594 4494 
L 1172 4494 
z
" transform="scale(0.015625)"/>
     <path id="DejaVuSans-6f" d="M 1959 3097 
Q 1497 3097 1228 2736 
Q 959 2375 959 1747 
Q 959 1119 1226 758 
Q 1494 397 1959 397 
Q 2419 397 2687 759 
Q 2956 1122 2956 1747 
Q 2956 2369 2687 2733 
Q 2419 3097 1959 3097 
z
M 1959 3584 
Q 2709 3584 3137 3096 
Q 3566 2609 3566 1747 
Q 3566 888 3137 398 
Q 2709 -91 1959 -91 
Q 1206 -91 779 398 
Q 353 888 353 1747 
Q 353 2609 779 3096 
Q 1206 3584 1959 3584 
z
" transform="scale(0.015625)"/>
    </defs>
    <use xlink:href="#DejaVuSans-53"/>
    <use xlink:href="#DejaVuSans-32" x="63.476562"/>
    <use xlink:href="#DejaVuSans-31" x="127.099609"/>
    <use xlink:href="#DejaVuSans-20" x="190.722656"/>
    <use xlink:href="#DejaVuSans-4f" x="222.509766"/>
    <use xlink:href="#DejaVuSans-6e" x="301.220703"/>
    <use xlink:href="#DejaVuSans-65" x="364.599609"/>
    <use xlink:href="#DejaVuSans-2d" x="426.123047"/>
    <use xlink:href="#DejaVuSans-74" x="462.207031"/>
    <use xlink:href="#DejaVuSans-6f" x="501.416016"/>
    <use xlink:href="#DejaVuSans-6e" x="562.597656"/>
    <use xlink:href="#DejaVuSans-65" x="625.976562"/>
   </g>
   <!-- tuid: 20240222-163508-607-303511 -->
   <g transform="translate(107.155625 29.7555) scale(0.12 -0.12)">
    <defs>
     <path id="DejaVuSans-69" d="M 603 3500 
L 1178 3500 
L 1178 0 
L 603 0 
L 603 3500 
z
M 603 4863 
L 1178 4863 
L 1178 4134 
L 603 4134 
L 603 4863 
z
" transform="scale(0.015625)"/>
     <path id="DejaVuSans-64" d="M 2906 2969 
L 2906 4863 
L 3481 4863 
L 3481 0 
L 2906 0 
L 2906 525 
Q 2725 213 2448 61 
Q 2172 -91 1784 -91 
Q 1150 -91 751 415 
Q 353 922 353 1747 
Q 353 2572 751 3078 
Q 1150 3584 1784 3584 
Q 2172 3584 2448 3432 
Q 2725 3281 2906 2969 
z
M 947 1747 
Q 947 1113 1208 752 
Q 1469 391 1925 391 
Q 2381 391 2643 752 
Q 2906 1113 2906 1747 
Q 2906 2381 2643 2742 
Q 2381 3103 1925 3103 
Q 1469 3103 1208 2742 
Q 947 2381 947 1747 
z
" transform="scale(0.015625)"/>
    </defs>
    <use xlink:href="#DejaVuSans-74"/>
    <use xlink:href="#DejaVuSans-75" x="39.208984"/>
    <use xlink:href="#DejaVuSans-69" x="102.587891"/>
    <use xlink:href="#DejaVuSans-64" x="130.371094"/>
    <use xlink:href="#DejaVuSans-3a" x="193.847656"/>
    <use xlink:href="#DejaVuSans-20" x="227.539062"/>
    <use xlink:href="#DejaVuSans-32" x="259.326172"/>
    <use xlink:href="#DejaVuSans-30" x="322.949219"/>
    <use xlink:href="#DejaVuSans-32" x="386.572266"/>
    <use xlink:href="#DejaVuSans-34" x="450.195312"/>
    <use xlink:href="#DejaVuSans-30" x="513.818359"/>
    <use xlink:href="#DejaVuSans-32" x="577.441406"/>
    <use xlink:href="#DejaVuSans-32" x="641.064453"/>
    <use xlink:href="#DejaVuSans-32" x="704.6875"/>
    <use xlink:href="#DejaVuSans-2d" x="768.310547"/>
    <use xlink:href="#DejaVuSans-31" x="804.394531"/>
    <use xlink:href="#DejaVuSans-36" x="868.017578"/>
    <use xlink:href="#DejaVuSans-33" x="931.640625"/>
    <use xlink:href="#DejaVuSans-35" x="995.263672"/>
    <use xlink:href="#DejaVuSans-30" x="1058.886719"/>
    <use xlink:href="#DejaVuSans-38" x="1122.509766"/>
    <use xlink:href="#DejaVuSans-2d" x="1186.132812"/>
    <use xlink:href="#DejaVuSans-36" x="1222.216797"/>
    <use xlink:href="#DejaVuSans-30" x="1285.839844"/>
    <use xlink:href="#DejaVuSans-37" x="1349.462891"/>
    <use xlink:href="#DejaVuSans-2d" x="1413.085938"/>
    <use xlink:href="#DejaVuSans-33" x="1449.169922"/>
    <use xlink:href="#DejaVuSans-30" x="1512.792969"/>
    <use xlink:href="#DejaVuSans-33" x="1576.416016"/>
    <use xlink:href="#DejaVuSans-35" x="1640.039062"/>
    <use xlink:href="#DejaVuSans-31" x="1703.662109"/>
    <use xlink:href="#DejaVuSans-31" x="1767.285156"/>
   </g>
  </g>
 </g>
 <defs>
  <clipPath id="pde77f52a20">
   <rect x="44.210938" y="41.76" width="357.12" height="120.96"/>
  </clipPath>
  <clipPath id="p9e3cf3de8e">
   <rect x="44.210938" y="186.912" width="357.12" height="120.96"/>
  </clipPath>
 </defs>
</svg>
