<?xml version="1.0" encoding="utf-8" standalone="no"?>
<!DOCTYPE svg PUBLIC "-//W3C//DTD SVG 1.1//EN"
  "http://www.w3.org/Graphics/SVG/1.1/DTD/svg11.dtd">
<svg xmlns:xlink="http://www.w3.org/1999/xlink" width="544.871312pt" height="345.42825pt" viewBox="0 0 544.871312 345.42825" xmlns="http://www.w3.org/2000/svg" version="1.1">
 <metadata>
  <rdf:RDF xmlns:dc="http://purl.org/dc/elements/1.1/" xmlns:cc="http://creativecommons.org/ns#" xmlns:rdf="http://www.w3.org/1999/02/22-rdf-syntax-ns#">
   <cc:Work>
    <dc:type rdf:resource="http://purl.org/dc/dcmitype/StillImage"/>
    <dc:date>2024-02-23T16:34:48.753880</dc:date>
    <dc:format>image/svg+xml</dc:format>
    <dc:creator>
     <cc:Agent>
      <dc:title>Matplotlib v3.8.2, https://matplotlib.org/</dc:title>
     </cc:Agent>
    </dc:creator>
   </cc:Work>
  </rdf:RDF>
 </metadata>
 <defs>
  <style type="text/css">*{stroke-linejoin: round; stroke-linecap: butt}</style>
 </defs>
 <g id="figure_1">
  <g id="patch_1">
   <path d="M 0 345.42825 
L 544.871312 345.42825 
L 544.871312 -0 
L 0 -0 
L 0 345.42825 
z
" style="fill: none; opacity: 0"/>
  </g>
  <g id="axes_1">
   <g id="patch_2">
    <path d="M 50.595313 162.72 
L 407.715312 162.72 
L 407.715312 41.76 
L 50.595313 41.76 
z
" style="fill: #ffffff"/>
   </g>
   <g id="matplotlib.axis_1">
    <g id="xtick_1">
     <g id="line2d_1">
      <defs>
       <path id="mff2331e2d7" d="M 0 0 
L 0 3.5 
" style="stroke: #000000; stroke-width: 0.8"/>
      </defs>
      <g>
       <use xlink:href="#mff2331e2d7" x="66.82804" y="162.72" style="stroke: #000000; stroke-width: 0.8"/>
      </g>
     </g>
    </g>
    <g id="xtick_2">
     <g id="line2d_2">
      <g>
       <use xlink:href="#mff2331e2d7" x="120.937131" y="162.72" style="stroke: #000000; stroke-width: 0.8"/>
      </g>
     </g>
    </g>
    <g id="xtick_3">
     <g id="line2d_3">
      <g>
       <use xlink:href="#mff2331e2d7" x="175.046222" y="162.72" style="stroke: #000000; stroke-width: 0.8"/>
      </g>
     </g>
    </g>
    <g id="xtick_4">
     <g id="line2d_4">
      <g>
       <use xlink:href="#mff2331e2d7" x="229.155313" y="162.72" style="stroke: #000000; stroke-width: 0.8"/>
      </g>
     </g>
    </g>
    <g id="xtick_5">
     <g id="line2d_5">
      <g>
       <use xlink:href="#mff2331e2d7" x="283.264403" y="162.72" style="stroke: #000000; stroke-width: 0.8"/>
      </g>
     </g>
    </g>
    <g id="xtick_6">
     <g id="line2d_6">
      <g>
       <use xlink:href="#mff2331e2d7" x="337.373494" y="162.72" style="stroke: #000000; stroke-width: 0.8"/>
      </g>
     </g>
    </g>
    <g id="xtick_7">
     <g id="line2d_7">
      <g>
       <use xlink:href="#mff2331e2d7" x="391.482585" y="162.72" style="stroke: #000000; stroke-width: 0.8"/>
      </g>
     </g>
    </g>
   </g>
   <g id="matplotlib.axis_2">
    <g id="ytick_1">
     <g id="line2d_8">
      <defs>
       <path id="m81cfe391f7" d="M 0 0 
L -3.5 0 
" style="stroke: #000000; stroke-width: 0.8"/>
      </defs>
      <g>
       <use xlink:href="#m81cfe391f7" x="50.595313" y="153.118572" style="stroke: #000000; stroke-width: 0.8"/>
      </g>
     </g>
     <g id="text_1">
      <!-- 5 -->
      <g transform="translate(37.232813 156.917791) scale(0.1 -0.1)">
       <defs>
        <path id="DejaVuSans-35" d="M 691 4666 
L 3169 4666 
L 3169 4134 
L 1269 4134 
L 1269 2991 
Q 1406 3038 1543 3061 
Q 1681 3084 1819 3084 
Q 2600 3084 3056 2656 
Q 3513 2228 3513 1497 
Q 3513 744 3044 326 
Q 2575 -91 1722 -91 
Q 1428 -91 1123 -41 
Q 819 9 494 109 
L 494 744 
Q 775 591 1075 516 
Q 1375 441 1709 441 
Q 2250 441 2565 725 
Q 2881 1009 2881 1497 
Q 2881 1984 2565 2268 
Q 2250 2553 1709 2553 
Q 1456 2553 1204 2497 
Q 953 2441 691 2322 
L 691 4666 
z
" transform="scale(0.015625)"/>
       </defs>
       <use xlink:href="#DejaVuSans-35"/>
      </g>
     </g>
    </g>
    <g id="ytick_2">
     <g id="line2d_9">
      <g>
       <use xlink:href="#m81cfe391f7" x="50.595313" y="129.531077" style="stroke: #000000; stroke-width: 0.8"/>
      </g>
     </g>
     <g id="text_2">
      <!-- 5.5 -->
      <g transform="translate(27.692188 133.330296) scale(0.1 -0.1)">
       <defs>
        <path id="DejaVuSans-2e" d="M 684 794 
L 1344 794 
L 1344 0 
L 684 0 
L 684 794 
z
" transform="scale(0.015625)"/>
       </defs>
       <use xlink:href="#DejaVuSans-35"/>
       <use xlink:href="#DejaVuSans-2e" x="63.623047"/>
       <use xlink:href="#DejaVuSans-35" x="95.410156"/>
      </g>
     </g>
    </g>
    <g id="ytick_3">
     <g id="line2d_10">
      <g>
       <use xlink:href="#m81cfe391f7" x="50.595313" y="105.943582" style="stroke: #000000; stroke-width: 0.8"/>
      </g>
     </g>
     <g id="text_3">
      <!-- 6 -->
      <g transform="translate(37.232813 109.742801) scale(0.1 -0.1)">
       <defs>
        <path id="DejaVuSans-36" d="M 2113 2584 
Q 1688 2584 1439 2293 
Q 1191 2003 1191 1497 
Q 1191 994 1439 701 
Q 1688 409 2113 409 
Q 2538 409 2786 701 
Q 3034 994 3034 1497 
Q 3034 2003 2786 2293 
Q 2538 2584 2113 2584 
z
M 3366 4563 
L 3366 3988 
Q 3128 4100 2886 4159 
Q 2644 4219 2406 4219 
Q 1781 4219 1451 3797 
Q 1122 3375 1075 2522 
Q 1259 2794 1537 2939 
Q 1816 3084 2150 3084 
Q 2853 3084 3261 2657 
Q 3669 2231 3669 1497 
Q 3669 778 3244 343 
Q 2819 -91 2113 -91 
Q 1303 -91 875 529 
Q 447 1150 447 2328 
Q 447 3434 972 4092 
Q 1497 4750 2381 4750 
Q 2619 4750 2861 4703 
Q 3103 4656 3366 4563 
z
" transform="scale(0.015625)"/>
       </defs>
       <use xlink:href="#DejaVuSans-36"/>
      </g>
     </g>
    </g>
    <g id="ytick_4">
     <g id="line2d_11">
      <g>
       <use xlink:href="#m81cfe391f7" x="50.595313" y="82.356088" style="stroke: #000000; stroke-width: 0.8"/>
      </g>
     </g>
     <g id="text_4">
      <!-- 6.5 -->
      <g transform="translate(27.692188 86.155307) scale(0.1 -0.1)">
       <use xlink:href="#DejaVuSans-36"/>
       <use xlink:href="#DejaVuSans-2e" x="63.623047"/>
       <use xlink:href="#DejaVuSans-35" x="95.410156"/>
      </g>
     </g>
    </g>
    <g id="ytick_5">
     <g id="line2d_12">
      <g>
       <use xlink:href="#m81cfe391f7" x="50.595313" y="58.768593" style="stroke: #000000; stroke-width: 0.8"/>
      </g>
     </g>
     <g id="text_5">
      <!-- 7 -->
      <g transform="translate(37.232813 62.567812) scale(0.1 -0.1)">
       <defs>
        <path id="DejaVuSans-37" d="M 525 4666 
L 3525 4666 
L 3525 4397 
L 1831 0 
L 1172 0 
L 2766 4134 
L 525 4134 
L 525 4666 
z
" transform="scale(0.015625)"/>
       </defs>
       <use xlink:href="#DejaVuSans-37"/>
      </g>
     </g>
    </g>
    <g id="text_6">
     <!-- $|S_{21}|$ [mV] -->
     <g transform="translate(21.292188 127.19) rotate(-90) scale(0.1 -0.1)">
      <defs>
       <path id="DejaVuSans-7c" d="M 1344 4891 
L 1344 -1509 
L 813 -1509 
L 813 4891 
L 1344 4891 
z
" transform="scale(0.015625)"/>
       <path id="DejaVuSans-Oblique-53" d="M 3859 4513 
L 3738 3897 
Q 3422 4066 3111 4152 
Q 2800 4238 2509 4238 
Q 1944 4238 1609 3991 
Q 1275 3744 1275 3334 
Q 1275 3109 1398 2989 
Q 1522 2869 2034 2731 
L 2413 2638 
Q 3053 2472 3303 2217 
Q 3553 1963 3553 1503 
Q 3553 797 2998 353 
Q 2444 -91 1538 -91 
Q 1166 -91 791 -17 
Q 416 56 38 206 
L 166 856 
Q 513 641 861 531 
Q 1209 422 1556 422 
Q 2147 422 2503 684 
Q 2859 947 2859 1369 
Q 2859 1650 2717 1795 
Q 2575 1941 2106 2059 
L 1728 2156 
Q 1081 2325 845 2545 
Q 609 2766 609 3163 
Q 609 3859 1145 4304 
Q 1681 4750 2541 4750 
Q 2875 4750 3203 4690 
Q 3531 4631 3859 4513 
z
" transform="scale(0.015625)"/>
       <path id="DejaVuSans-32" d="M 1228 531 
L 3431 531 
L 3431 0 
L 469 0 
L 469 531 
Q 828 903 1448 1529 
Q 2069 2156 2228 2338 
Q 2531 2678 2651 2914 
Q 2772 3150 2772 3378 
Q 2772 3750 2511 3984 
Q 2250 4219 1831 4219 
Q 1534 4219 1204 4116 
Q 875 4013 500 3803 
L 500 4441 
Q 881 4594 1212 4672 
Q 1544 4750 1819 4750 
Q 2544 4750 2975 4387 
Q 3406 4025 3406 3419 
Q 3406 3131 3298 2873 
Q 3191 2616 2906 2266 
Q 2828 2175 2409 1742 
Q 1991 1309 1228 531 
z
" transform="scale(0.015625)"/>
       <path id="DejaVuSans-31" d="M 794 531 
L 1825 531 
L 1825 4091 
L 703 3866 
L 703 4441 
L 1819 4666 
L 2450 4666 
L 2450 531 
L 3481 531 
L 3481 0 
L 794 0 
L 794 531 
z
" transform="scale(0.015625)"/>
       <path id="DejaVuSans-20" transform="scale(0.015625)"/>
       <path id="DejaVuSans-5b" d="M 550 4863 
L 1875 4863 
L 1875 4416 
L 1125 4416 
L 1125 -397 
L 1875 -397 
L 1875 -844 
L 550 -844 
L 550 4863 
z
" transform="scale(0.015625)"/>
       <path id="DejaVuSans-6d" d="M 3328 2828 
Q 3544 3216 3844 3400 
Q 4144 3584 4550 3584 
Q 5097 3584 5394 3201 
Q 5691 2819 5691 2113 
L 5691 0 
L 5113 0 
L 5113 2094 
Q 5113 2597 4934 2840 
Q 4756 3084 4391 3084 
Q 3944 3084 3684 2787 
Q 3425 2491 3425 1978 
L 3425 0 
L 2847 0 
L 2847 2094 
Q 2847 2600 2669 2842 
Q 2491 3084 2119 3084 
Q 1678 3084 1418 2786 
Q 1159 2488 1159 1978 
L 1159 0 
L 581 0 
L 581 3500 
L 1159 3500 
L 1159 2956 
Q 1356 3278 1631 3431 
Q 1906 3584 2284 3584 
Q 2666 3584 2933 3390 
Q 3200 3197 3328 2828 
z
" transform="scale(0.015625)"/>
       <path id="DejaVuSans-56" d="M 1831 0 
L 50 4666 
L 709 4666 
L 2188 738 
L 3669 4666 
L 4325 4666 
L 2547 0 
L 1831 0 
z
" transform="scale(0.015625)"/>
       <path id="DejaVuSans-5d" d="M 1947 4863 
L 1947 -844 
L 622 -844 
L 622 -397 
L 1369 -397 
L 1369 4416 
L 622 4416 
L 622 4863 
L 1947 4863 
z
" transform="scale(0.015625)"/>
      </defs>
      <use xlink:href="#DejaVuSans-7c" transform="translate(0 0.578125)"/>
      <use xlink:href="#DejaVuSans-Oblique-53" transform="translate(33.691406 0.578125)"/>
      <use xlink:href="#DejaVuSans-32" transform="translate(97.167969 -15.828125) scale(0.7)"/>
      <use xlink:href="#DejaVuSans-31" transform="translate(141.704102 -15.828125) scale(0.7)"/>
      <use xlink:href="#DejaVuSans-7c" transform="translate(188.974609 0.578125)"/>
      <use xlink:href="#DejaVuSans-20" transform="translate(222.666016 0.578125)"/>
      <use xlink:href="#DejaVuSans-5b" transform="translate(254.453125 0.578125)"/>
      <use xlink:href="#DejaVuSans-6d" transform="translate(293.466797 0.578125)"/>
      <use xlink:href="#DejaVuSans-56" transform="translate(390.878906 0.578125)"/>
      <use xlink:href="#DejaVuSans-5d" transform="translate(459.287109 0.578125)"/>
     </g>
    </g>
   </g>
   <g id="line2d_13">
    <path d="M 66.82804 157.221818 
L 68.45947 151.978915 
L 70.0909 155.886222 
L 71.722329 151.906724 
L 73.353759 152.087744 
L 74.985189 149.739572 
L 76.616619 149.905538 
L 78.248049 149.165559 
L 79.879479 150.708803 
L 81.510909 150.305798 
L 83.142339 149.444467 
L 84.773768 145.352768 
L 86.405198 145.291967 
L 88.036628 145.876783 
L 89.668058 143.179559 
L 91.299488 140.046366 
L 92.930918 141.538027 
L 94.562348 142.836972 
L 96.193778 141.557866 
L 97.825207 137.999444 
L 99.456637 145.23165 
L 101.088067 140.418065 
L 102.719497 137.62596 
L 104.350927 139.683065 
L 105.982357 135.347152 
L 107.613787 139.178251 
L 109.245217 135.957124 
L 110.876646 133.003834 
L 112.508076 135.791916 
L 114.139506 130.068836 
L 115.770936 135.339532 
L 117.402366 134.466654 
L 119.033796 130.698112 
L 120.665226 133.184581 
L 122.296656 131.896571 
L 123.928085 127.801878 
L 125.559515 132.808793 
L 127.190945 130.873247 
L 128.822375 129.534225 
L 130.453805 131.687063 
L 132.085235 125.919723 
L 133.716665 131.500348 
L 135.348095 128.154997 
L 136.979524 128.920171 
L 138.610954 127.44709 
L 140.242384 125.693972 
L 141.873814 125.439251 
L 143.505244 126.075674 
L 145.136674 125.227356 
L 146.768104 121.874575 
L 148.399534 122.197901 
L 150.030963 128.329674 
L 151.662393 123.371374 
L 153.293823 120.765429 
L 154.925253 123.029794 
L 156.556683 124.233063 
L 158.188113 118.248892 
L 159.819543 118.250249 
L 161.450973 119.289704 
L 163.082402 119.215504 
L 164.713832 120.520998 
L 166.345262 117.29807 
L 169.608122 119.755217 
L 171.239552 117.541303 
L 172.870982 116.668614 
L 174.502412 114.699949 
L 176.133842 120.759113 
L 177.765271 111.76761 
L 179.396701 113.644218 
L 181.028131 112.720837 
L 182.659561 116.150323 
L 184.290991 119.155169 
L 185.922421 115.650523 
L 187.553851 112.777788 
L 189.185281 113.804204 
L 190.81671 112.236733 
L 192.44814 110.020146 
L 194.07957 113.047654 
L 195.711 112.159434 
L 197.34243 110.013153 
L 198.97386 108.240796 
L 200.60529 107.217561 
L 202.23672 104.175979 
L 203.868149 107.497423 
L 205.499579 105.910175 
L 207.131009 108.363244 
L 208.762439 105.836206 
L 210.393869 103.859031 
L 212.025299 101.387748 
L 213.656729 103.892762 
L 215.288159 106.648698 
L 216.919588 99.249776 
L 218.551018 105.648711 
L 220.182448 105.815377 
L 221.813878 101.021614 
L 223.445308 100.118197 
L 225.076738 100.551255 
L 226.708168 98.012559 
L 228.339598 99.79321 
L 231.602457 98.387737 
L 233.233887 99.81479 
L 234.865317 100.509451 
L 236.496747 100.446623 
L 238.128177 95.723657 
L 239.759607 98.376102 
L 241.391037 94.629781 
L 243.022466 98.421335 
L 244.653896 99.604755 
L 246.285326 95.193739 
L 247.916756 93.712422 
L 249.548186 96.97823 
L 251.179616 92.821402 
L 252.811046 91.447035 
L 254.442476 92.483226 
L 256.073905 89.886193 
L 257.705335 94.566566 
L 259.336765 92.315975 
L 260.968195 87.747062 
L 262.599625 86.325197 
L 264.231055 87.100074 
L 265.862485 83.735941 
L 267.493915 87.368155 
L 269.125344 87.616652 
L 270.756774 84.233345 
L 272.388204 88.800998 
L 274.019634 83.222578 
L 275.651064 85.858667 
L 277.282494 83.559692 
L 278.913924 82.385132 
L 280.545354 81.409881 
L 282.176783 77.694941 
L 283.808213 78.428601 
L 285.439643 80.353597 
L 287.071073 79.275012 
L 288.702503 79.254983 
L 290.333933 80.081766 
L 291.965363 78.544962 
L 293.596793 77.361869 
L 295.228223 80.332279 
L 296.859652 76.318631 
L 298.491082 75.339333 
L 300.122512 78.987538 
L 301.753942 78.420782 
L 303.385372 75.145876 
L 305.016802 72.485996 
L 306.648232 71.514967 
L 308.279662 71.378446 
L 309.911091 68.887916 
L 311.542521 67.343525 
L 313.173951 68.312272 
L 316.436811 69.200002 
L 318.068241 72.268264 
L 319.699671 66.330186 
L 321.331101 66.238846 
L 322.96253 67.571392 
L 324.59396 65.680523 
L 326.22539 64.082386 
L 327.85682 67.357248 
L 329.48825 63.657911 
L 331.11968 64.021329 
L 332.75111 63.402247 
L 334.38254 62.120694 
L 336.013969 63.528304 
L 339.276829 61.758873 
L 340.908259 57.336496 
L 342.539689 60.370034 
L 344.171119 62.357773 
L 345.802549 60.191985 
L 347.433979 56.982849 
L 349.065408 59.27132 
L 350.696838 58.139574 
L 352.328268 60.174992 
L 353.959698 59.256345 
L 355.591128 59.571877 
L 357.222558 55.561253 
L 358.853988 54.974704 
L 360.485418 56.594197 
L 362.116847 57.12723 
L 363.748277 55.118572 
L 365.379707 58.05708 
L 367.011137 55.178079 
L 368.642567 55.86924 
L 370.273997 55.459443 
L 371.905427 55.608343 
L 373.536857 52.792494 
L 375.168286 54.700575 
L 376.799716 48.447532 
L 378.431146 51.755799 
L 381.694006 51.689632 
L 383.325436 51.509467 
L 384.956866 52.94316 
L 386.588296 51.607271 
L 388.219725 47.33369 
L 389.851155 48.583874 
L 391.482585 47.258182 
L 391.482585 47.258182 
" clip-path="url(#p393b4035bc)" style="fill: none; stroke: #1f77b4; stroke-width: 1.5; stroke-linecap: square"/>
    <defs>
     <path id="m6a2b6285bb" d="M 0 1.5 
C 0.397805 1.5 0.77937 1.341951 1.06066 1.06066 
C 1.341951 0.77937 1.5 0.397805 1.5 0 
C 1.5 -0.397805 1.341951 -0.77937 1.06066 -1.06066 
C 0.77937 -1.341951 0.397805 -1.5 0 -1.5 
C -0.397805 -1.5 -0.77937 -1.341951 -1.06066 -1.06066 
C -1.341951 -0.77937 -1.5 -0.397805 -1.5 0 
C -1.5 0.397805 -1.341951 0.77937 -1.06066 1.06066 
C -0.77937 1.341951 -0.397805 1.5 0 1.5 
z
" style="stroke: #1f77b4"/>
    </defs>
    <g clip-path="url(#p393b4035bc)">
     <use xlink:href="#m6a2b6285bb" x="66.82804" y="157.221818" style="fill: #1f77b4; stroke: #1f77b4"/>
     <use xlink:href="#m6a2b6285bb" x="68.45947" y="151.978915" style="fill: #1f77b4; stroke: #1f77b4"/>
     <use xlink:href="#m6a2b6285bb" x="70.0909" y="155.886222" style="fill: #1f77b4; stroke: #1f77b4"/>
     <use xlink:href="#m6a2b6285bb" x="71.722329" y="151.906724" style="fill: #1f77b4; stroke: #1f77b4"/>
     <use xlink:href="#m6a2b6285bb" x="73.353759" y="152.087744" style="fill: #1f77b4; stroke: #1f77b4"/>
     <use xlink:href="#m6a2b6285bb" x="74.985189" y="149.739572" style="fill: #1f77b4; stroke: #1f77b4"/>
     <use xlink:href="#m6a2b6285bb" x="76.616619" y="149.905538" style="fill: #1f77b4; stroke: #1f77b4"/>
     <use xlink:href="#m6a2b6285bb" x="78.248049" y="149.165559" style="fill: #1f77b4; stroke: #1f77b4"/>
     <use xlink:href="#m6a2b6285bb" x="79.879479" y="150.708803" style="fill: #1f77b4; stroke: #1f77b4"/>
     <use xlink:href="#m6a2b6285bb" x="81.510909" y="150.305798" style="fill: #1f77b4; stroke: #1f77b4"/>
     <use xlink:href="#m6a2b6285bb" x="83.142339" y="149.444467" style="fill: #1f77b4; stroke: #1f77b4"/>
     <use xlink:href="#m6a2b6285bb" x="84.773768" y="145.352768" style="fill: #1f77b4; stroke: #1f77b4"/>
     <use xlink:href="#m6a2b6285bb" x="86.405198" y="145.291967" style="fill: #1f77b4; stroke: #1f77b4"/>
     <use xlink:href="#m6a2b6285bb" x="88.036628" y="145.876783" style="fill: #1f77b4; stroke: #1f77b4"/>
     <use xlink:href="#m6a2b6285bb" x="89.668058" y="143.179559" style="fill: #1f77b4; stroke: #1f77b4"/>
     <use xlink:href="#m6a2b6285bb" x="91.299488" y="140.046366" style="fill: #1f77b4; stroke: #1f77b4"/>
     <use xlink:href="#m6a2b6285bb" x="92.930918" y="141.538027" style="fill: #1f77b4; stroke: #1f77b4"/>
     <use xlink:href="#m6a2b6285bb" x="94.562348" y="142.836972" style="fill: #1f77b4; stroke: #1f77b4"/>
     <use xlink:href="#m6a2b6285bb" x="96.193778" y="141.557866" style="fill: #1f77b4; stroke: #1f77b4"/>
     <use xlink:href="#m6a2b6285bb" x="97.825207" y="137.999444" style="fill: #1f77b4; stroke: #1f77b4"/>
     <use xlink:href="#m6a2b6285bb" x="99.456637" y="145.23165" style="fill: #1f77b4; stroke: #1f77b4"/>
     <use xlink:href="#m6a2b6285bb" x="101.088067" y="140.418065" style="fill: #1f77b4; stroke: #1f77b4"/>
     <use xlink:href="#m6a2b6285bb" x="102.719497" y="137.62596" style="fill: #1f77b4; stroke: #1f77b4"/>
     <use xlink:href="#m6a2b6285bb" x="104.350927" y="139.683065" style="fill: #1f77b4; stroke: #1f77b4"/>
     <use xlink:href="#m6a2b6285bb" x="105.982357" y="135.347152" style="fill: #1f77b4; stroke: #1f77b4"/>
     <use xlink:href="#m6a2b6285bb" x="107.613787" y="139.178251" style="fill: #1f77b4; stroke: #1f77b4"/>
     <use xlink:href="#m6a2b6285bb" x="109.245217" y="135.957124" style="fill: #1f77b4; stroke: #1f77b4"/>
     <use xlink:href="#m6a2b6285bb" x="110.876646" y="133.003834" style="fill: #1f77b4; stroke: #1f77b4"/>
     <use xlink:href="#m6a2b6285bb" x="112.508076" y="135.791916" style="fill: #1f77b4; stroke: #1f77b4"/>
     <use xlink:href="#m6a2b6285bb" x="114.139506" y="130.068836" style="fill: #1f77b4; stroke: #1f77b4"/>
     <use xlink:href="#m6a2b6285bb" x="115.770936" y="135.339532" style="fill: #1f77b4; stroke: #1f77b4"/>
     <use xlink:href="#m6a2b6285bb" x="117.402366" y="134.466654" style="fill: #1f77b4; stroke: #1f77b4"/>
     <use xlink:href="#m6a2b6285bb" x="119.033796" y="130.698112" style="fill: #1f77b4; stroke: #1f77b4"/>
     <use xlink:href="#m6a2b6285bb" x="120.665226" y="133.184581" style="fill: #1f77b4; stroke: #1f77b4"/>
     <use xlink:href="#m6a2b6285bb" x="122.296656" y="131.896571" style="fill: #1f77b4; stroke: #1f77b4"/>
     <use xlink:href="#m6a2b6285bb" x="123.928085" y="127.801878" style="fill: #1f77b4; stroke: #1f77b4"/>
     <use xlink:href="#m6a2b6285bb" x="125.559515" y="132.808793" style="fill: #1f77b4; stroke: #1f77b4"/>
     <use xlink:href="#m6a2b6285bb" x="127.190945" y="130.873247" style="fill: #1f77b4; stroke: #1f77b4"/>
     <use xlink:href="#m6a2b6285bb" x="128.822375" y="129.534225" style="fill: #1f77b4; stroke: #1f77b4"/>
     <use xlink:href="#m6a2b6285bb" x="130.453805" y="131.687063" style="fill: #1f77b4; stroke: #1f77b4"/>
     <use xlink:href="#m6a2b6285bb" x="132.085235" y="125.919723" style="fill: #1f77b4; stroke: #1f77b4"/>
     <use xlink:href="#m6a2b6285bb" x="133.716665" y="131.500348" style="fill: #1f77b4; stroke: #1f77b4"/>
     <use xlink:href="#m6a2b6285bb" x="135.348095" y="128.154997" style="fill: #1f77b4; stroke: #1f77b4"/>
     <use xlink:href="#m6a2b6285bb" x="136.979524" y="128.920171" style="fill: #1f77b4; stroke: #1f77b4"/>
     <use xlink:href="#m6a2b6285bb" x="138.610954" y="127.44709" style="fill: #1f77b4; stroke: #1f77b4"/>
     <use xlink:href="#m6a2b6285bb" x="140.242384" y="125.693972" style="fill: #1f77b4; stroke: #1f77b4"/>
     <use xlink:href="#m6a2b6285bb" x="141.873814" y="125.439251" style="fill: #1f77b4; stroke: #1f77b4"/>
     <use xlink:href="#m6a2b6285bb" x="143.505244" y="126.075674" style="fill: #1f77b4; stroke: #1f77b4"/>
     <use xlink:href="#m6a2b6285bb" x="145.136674" y="125.227356" style="fill: #1f77b4; stroke: #1f77b4"/>
     <use xlink:href="#m6a2b6285bb" x="146.768104" y="121.874575" style="fill: #1f77b4; stroke: #1f77b4"/>
     <use xlink:href="#m6a2b6285bb" x="148.399534" y="122.197901" style="fill: #1f77b4; stroke: #1f77b4"/>
     <use xlink:href="#m6a2b6285bb" x="150.030963" y="128.329674" style="fill: #1f77b4; stroke: #1f77b4"/>
     <use xlink:href="#m6a2b6285bb" x="151.662393" y="123.371374" style="fill: #1f77b4; stroke: #1f77b4"/>
     <use xlink:href="#m6a2b6285bb" x="153.293823" y="120.765429" style="fill: #1f77b4; stroke: #1f77b4"/>
     <use xlink:href="#m6a2b6285bb" x="154.925253" y="123.029794" style="fill: #1f77b4; stroke: #1f77b4"/>
     <use xlink:href="#m6a2b6285bb" x="156.556683" y="124.233063" style="fill: #1f77b4; stroke: #1f77b4"/>
     <use xlink:href="#m6a2b6285bb" x="158.188113" y="118.248892" style="fill: #1f77b4; stroke: #1f77b4"/>
     <use xlink:href="#m6a2b6285bb" x="159.819543" y="118.250249" style="fill: #1f77b4; stroke: #1f77b4"/>
     <use xlink:href="#m6a2b6285bb" x="161.450973" y="119.289704" style="fill: #1f77b4; stroke: #1f77b4"/>
     <use xlink:href="#m6a2b6285bb" x="163.082402" y="119.215504" style="fill: #1f77b4; stroke: #1f77b4"/>
     <use xlink:href="#m6a2b6285bb" x="164.713832" y="120.520998" style="fill: #1f77b4; stroke: #1f77b4"/>
     <use xlink:href="#m6a2b6285bb" x="166.345262" y="117.29807" style="fill: #1f77b4; stroke: #1f77b4"/>
     <use xlink:href="#m6a2b6285bb" x="167.976692" y="118.49258" style="fill: #1f77b4; stroke: #1f77b4"/>
     <use xlink:href="#m6a2b6285bb" x="169.608122" y="119.755217" style="fill: #1f77b4; stroke: #1f77b4"/>
     <use xlink:href="#m6a2b6285bb" x="171.239552" y="117.541303" style="fill: #1f77b4; stroke: #1f77b4"/>
     <use xlink:href="#m6a2b6285bb" x="172.870982" y="116.668614" style="fill: #1f77b4; stroke: #1f77b4"/>
     <use xlink:href="#m6a2b6285bb" x="174.502412" y="114.699949" style="fill: #1f77b4; stroke: #1f77b4"/>
     <use xlink:href="#m6a2b6285bb" x="176.133842" y="120.759113" style="fill: #1f77b4; stroke: #1f77b4"/>
     <use xlink:href="#m6a2b6285bb" x="177.765271" y="111.76761" style="fill: #1f77b4; stroke: #1f77b4"/>
     <use xlink:href="#m6a2b6285bb" x="179.396701" y="113.644218" style="fill: #1f77b4; stroke: #1f77b4"/>
     <use xlink:href="#m6a2b6285bb" x="181.028131" y="112.720837" style="fill: #1f77b4; stroke: #1f77b4"/>
     <use xlink:href="#m6a2b6285bb" x="182.659561" y="116.150323" style="fill: #1f77b4; stroke: #1f77b4"/>
     <use xlink:href="#m6a2b6285bb" x="184.290991" y="119.155169" style="fill: #1f77b4; stroke: #1f77b4"/>
     <use xlink:href="#m6a2b6285bb" x="185.922421" y="115.650523" style="fill: #1f77b4; stroke: #1f77b4"/>
     <use xlink:href="#m6a2b6285bb" x="187.553851" y="112.777788" style="fill: #1f77b4; stroke: #1f77b4"/>
     <use xlink:href="#m6a2b6285bb" x="189.185281" y="113.804204" style="fill: #1f77b4; stroke: #1f77b4"/>
     <use xlink:href="#m6a2b6285bb" x="190.81671" y="112.236733" style="fill: #1f77b4; stroke: #1f77b4"/>
     <use xlink:href="#m6a2b6285bb" x="192.44814" y="110.020146" style="fill: #1f77b4; stroke: #1f77b4"/>
     <use xlink:href="#m6a2b6285bb" x="194.07957" y="113.047654" style="fill: #1f77b4; stroke: #1f77b4"/>
     <use xlink:href="#m6a2b6285bb" x="195.711" y="112.159434" style="fill: #1f77b4; stroke: #1f77b4"/>
     <use xlink:href="#m6a2b6285bb" x="197.34243" y="110.013153" style="fill: #1f77b4; stroke: #1f77b4"/>
     <use xlink:href="#m6a2b6285bb" x="198.97386" y="108.240796" style="fill: #1f77b4; stroke: #1f77b4"/>
     <use xlink:href="#m6a2b6285bb" x="200.60529" y="107.217561" style="fill: #1f77b4; stroke: #1f77b4"/>
     <use xlink:href="#m6a2b6285bb" x="202.23672" y="104.175979" style="fill: #1f77b4; stroke: #1f77b4"/>
     <use xlink:href="#m6a2b6285bb" x="203.868149" y="107.497423" style="fill: #1f77b4; stroke: #1f77b4"/>
     <use xlink:href="#m6a2b6285bb" x="205.499579" y="105.910175" style="fill: #1f77b4; stroke: #1f77b4"/>
     <use xlink:href="#m6a2b6285bb" x="207.131009" y="108.363244" style="fill: #1f77b4; stroke: #1f77b4"/>
     <use xlink:href="#m6a2b6285bb" x="208.762439" y="105.836206" style="fill: #1f77b4; stroke: #1f77b4"/>
     <use xlink:href="#m6a2b6285bb" x="210.393869" y="103.859031" style="fill: #1f77b4; stroke: #1f77b4"/>
     <use xlink:href="#m6a2b6285bb" x="212.025299" y="101.387748" style="fill: #1f77b4; stroke: #1f77b4"/>
     <use xlink:href="#m6a2b6285bb" x="213.656729" y="103.892762" style="fill: #1f77b4; stroke: #1f77b4"/>
     <use xlink:href="#m6a2b6285bb" x="215.288159" y="106.648698" style="fill: #1f77b4; stroke: #1f77b4"/>
     <use xlink:href="#m6a2b6285bb" x="216.919588" y="99.249776" style="fill: #1f77b4; stroke: #1f77b4"/>
     <use xlink:href="#m6a2b6285bb" x="218.551018" y="105.648711" style="fill: #1f77b4; stroke: #1f77b4"/>
     <use xlink:href="#m6a2b6285bb" x="220.182448" y="105.815377" style="fill: #1f77b4; stroke: #1f77b4"/>
     <use xlink:href="#m6a2b6285bb" x="221.813878" y="101.021614" style="fill: #1f77b4; stroke: #1f77b4"/>
     <use xlink:href="#m6a2b6285bb" x="223.445308" y="100.118197" style="fill: #1f77b4; stroke: #1f77b4"/>
     <use xlink:href="#m6a2b6285bb" x="225.076738" y="100.551255" style="fill: #1f77b4; stroke: #1f77b4"/>
     <use xlink:href="#m6a2b6285bb" x="226.708168" y="98.012559" style="fill: #1f77b4; stroke: #1f77b4"/>
     <use xlink:href="#m6a2b6285bb" x="228.339598" y="99.79321" style="fill: #1f77b4; stroke: #1f77b4"/>
     <use xlink:href="#m6a2b6285bb" x="229.971027" y="99.127651" style="fill: #1f77b4; stroke: #1f77b4"/>
     <use xlink:href="#m6a2b6285bb" x="231.602457" y="98.387737" style="fill: #1f77b4; stroke: #1f77b4"/>
     <use xlink:href="#m6a2b6285bb" x="233.233887" y="99.81479" style="fill: #1f77b4; stroke: #1f77b4"/>
     <use xlink:href="#m6a2b6285bb" x="234.865317" y="100.509451" style="fill: #1f77b4; stroke: #1f77b4"/>
     <use xlink:href="#m6a2b6285bb" x="236.496747" y="100.446623" style="fill: #1f77b4; stroke: #1f77b4"/>
     <use xlink:href="#m6a2b6285bb" x="238.128177" y="95.723657" style="fill: #1f77b4; stroke: #1f77b4"/>
     <use xlink:href="#m6a2b6285bb" x="239.759607" y="98.376102" style="fill: #1f77b4; stroke: #1f77b4"/>
     <use xlink:href="#m6a2b6285bb" x="241.391037" y="94.629781" style="fill: #1f77b4; stroke: #1f77b4"/>
     <use xlink:href="#m6a2b6285bb" x="243.022466" y="98.421335" style="fill: #1f77b4; stroke: #1f77b4"/>
     <use xlink:href="#m6a2b6285bb" x="244.653896" y="99.604755" style="fill: #1f77b4; stroke: #1f77b4"/>
     <use xlink:href="#m6a2b6285bb" x="246.285326" y="95.193739" style="fill: #1f77b4; stroke: #1f77b4"/>
     <use xlink:href="#m6a2b6285bb" x="247.916756" y="93.712422" style="fill: #1f77b4; stroke: #1f77b4"/>
     <use xlink:href="#m6a2b6285bb" x="249.548186" y="96.97823" style="fill: #1f77b4; stroke: #1f77b4"/>
     <use xlink:href="#m6a2b6285bb" x="251.179616" y="92.821402" style="fill: #1f77b4; stroke: #1f77b4"/>
     <use xlink:href="#m6a2b6285bb" x="252.811046" y="91.447035" style="fill: #1f77b4; stroke: #1f77b4"/>
     <use xlink:href="#m6a2b6285bb" x="254.442476" y="92.483226" style="fill: #1f77b4; stroke: #1f77b4"/>
     <use xlink:href="#m6a2b6285bb" x="256.073905" y="89.886193" style="fill: #1f77b4; stroke: #1f77b4"/>
     <use xlink:href="#m6a2b6285bb" x="257.705335" y="94.566566" style="fill: #1f77b4; stroke: #1f77b4"/>
     <use xlink:href="#m6a2b6285bb" x="259.336765" y="92.315975" style="fill: #1f77b4; stroke: #1f77b4"/>
     <use xlink:href="#m6a2b6285bb" x="260.968195" y="87.747062" style="fill: #1f77b4; stroke: #1f77b4"/>
     <use xlink:href="#m6a2b6285bb" x="262.599625" y="86.325197" style="fill: #1f77b4; stroke: #1f77b4"/>
     <use xlink:href="#m6a2b6285bb" x="264.231055" y="87.100074" style="fill: #1f77b4; stroke: #1f77b4"/>
     <use xlink:href="#m6a2b6285bb" x="265.862485" y="83.735941" style="fill: #1f77b4; stroke: #1f77b4"/>
     <use xlink:href="#m6a2b6285bb" x="267.493915" y="87.368155" style="fill: #1f77b4; stroke: #1f77b4"/>
     <use xlink:href="#m6a2b6285bb" x="269.125344" y="87.616652" style="fill: #1f77b4; stroke: #1f77b4"/>
     <use xlink:href="#m6a2b6285bb" x="270.756774" y="84.233345" style="fill: #1f77b4; stroke: #1f77b4"/>
     <use xlink:href="#m6a2b6285bb" x="272.388204" y="88.800998" style="fill: #1f77b4; stroke: #1f77b4"/>
     <use xlink:href="#m6a2b6285bb" x="274.019634" y="83.222578" style="fill: #1f77b4; stroke: #1f77b4"/>
     <use xlink:href="#m6a2b6285bb" x="275.651064" y="85.858667" style="fill: #1f77b4; stroke: #1f77b4"/>
     <use xlink:href="#m6a2b6285bb" x="277.282494" y="83.559692" style="fill: #1f77b4; stroke: #1f77b4"/>
     <use xlink:href="#m6a2b6285bb" x="278.913924" y="82.385132" style="fill: #1f77b4; stroke: #1f77b4"/>
     <use xlink:href="#m6a2b6285bb" x="280.545354" y="81.409881" style="fill: #1f77b4; stroke: #1f77b4"/>
     <use xlink:href="#m6a2b6285bb" x="282.176783" y="77.694941" style="fill: #1f77b4; stroke: #1f77b4"/>
     <use xlink:href="#m6a2b6285bb" x="283.808213" y="78.428601" style="fill: #1f77b4; stroke: #1f77b4"/>
     <use xlink:href="#m6a2b6285bb" x="285.439643" y="80.353597" style="fill: #1f77b4; stroke: #1f77b4"/>
     <use xlink:href="#m6a2b6285bb" x="287.071073" y="79.275012" style="fill: #1f77b4; stroke: #1f77b4"/>
     <use xlink:href="#m6a2b6285bb" x="288.702503" y="79.254983" style="fill: #1f77b4; stroke: #1f77b4"/>
     <use xlink:href="#m6a2b6285bb" x="290.333933" y="80.081766" style="fill: #1f77b4; stroke: #1f77b4"/>
     <use xlink:href="#m6a2b6285bb" x="291.965363" y="78.544962" style="fill: #1f77b4; stroke: #1f77b4"/>
     <use xlink:href="#m6a2b6285bb" x="293.596793" y="77.361869" style="fill: #1f77b4; stroke: #1f77b4"/>
     <use xlink:href="#m6a2b6285bb" x="295.228223" y="80.332279" style="fill: #1f77b4; stroke: #1f77b4"/>
     <use xlink:href="#m6a2b6285bb" x="296.859652" y="76.318631" style="fill: #1f77b4; stroke: #1f77b4"/>
     <use xlink:href="#m6a2b6285bb" x="298.491082" y="75.339333" style="fill: #1f77b4; stroke: #1f77b4"/>
     <use xlink:href="#m6a2b6285bb" x="300.122512" y="78.987538" style="fill: #1f77b4; stroke: #1f77b4"/>
     <use xlink:href="#m6a2b6285bb" x="301.753942" y="78.420782" style="fill: #1f77b4; stroke: #1f77b4"/>
     <use xlink:href="#m6a2b6285bb" x="303.385372" y="75.145876" style="fill: #1f77b4; stroke: #1f77b4"/>
     <use xlink:href="#m6a2b6285bb" x="305.016802" y="72.485996" style="fill: #1f77b4; stroke: #1f77b4"/>
     <use xlink:href="#m6a2b6285bb" x="306.648232" y="71.514967" style="fill: #1f77b4; stroke: #1f77b4"/>
     <use xlink:href="#m6a2b6285bb" x="308.279662" y="71.378446" style="fill: #1f77b4; stroke: #1f77b4"/>
     <use xlink:href="#m6a2b6285bb" x="309.911091" y="68.887916" style="fill: #1f77b4; stroke: #1f77b4"/>
     <use xlink:href="#m6a2b6285bb" x="311.542521" y="67.343525" style="fill: #1f77b4; stroke: #1f77b4"/>
     <use xlink:href="#m6a2b6285bb" x="313.173951" y="68.312272" style="fill: #1f77b4; stroke: #1f77b4"/>
     <use xlink:href="#m6a2b6285bb" x="314.805381" y="68.729113" style="fill: #1f77b4; stroke: #1f77b4"/>
     <use xlink:href="#m6a2b6285bb" x="316.436811" y="69.200002" style="fill: #1f77b4; stroke: #1f77b4"/>
     <use xlink:href="#m6a2b6285bb" x="318.068241" y="72.268264" style="fill: #1f77b4; stroke: #1f77b4"/>
     <use xlink:href="#m6a2b6285bb" x="319.699671" y="66.330186" style="fill: #1f77b4; stroke: #1f77b4"/>
     <use xlink:href="#m6a2b6285bb" x="321.331101" y="66.238846" style="fill: #1f77b4; stroke: #1f77b4"/>
     <use xlink:href="#m6a2b6285bb" x="322.96253" y="67.571392" style="fill: #1f77b4; stroke: #1f77b4"/>
     <use xlink:href="#m6a2b6285bb" x="324.59396" y="65.680523" style="fill: #1f77b4; stroke: #1f77b4"/>
     <use xlink:href="#m6a2b6285bb" x="326.22539" y="64.082386" style="fill: #1f77b4; stroke: #1f77b4"/>
     <use xlink:href="#m6a2b6285bb" x="327.85682" y="67.357248" style="fill: #1f77b4; stroke: #1f77b4"/>
     <use xlink:href="#m6a2b6285bb" x="329.48825" y="63.657911" style="fill: #1f77b4; stroke: #1f77b4"/>
     <use xlink:href="#m6a2b6285bb" x="331.11968" y="64.021329" style="fill: #1f77b4; stroke: #1f77b4"/>
     <use xlink:href="#m6a2b6285bb" x="332.75111" y="63.402247" style="fill: #1f77b4; stroke: #1f77b4"/>
     <use xlink:href="#m6a2b6285bb" x="334.38254" y="62.120694" style="fill: #1f77b4; stroke: #1f77b4"/>
     <use xlink:href="#m6a2b6285bb" x="336.013969" y="63.528304" style="fill: #1f77b4; stroke: #1f77b4"/>
     <use xlink:href="#m6a2b6285bb" x="337.645399" y="62.703126" style="fill: #1f77b4; stroke: #1f77b4"/>
     <use xlink:href="#m6a2b6285bb" x="339.276829" y="61.758873" style="fill: #1f77b4; stroke: #1f77b4"/>
     <use xlink:href="#m6a2b6285bb" x="340.908259" y="57.336496" style="fill: #1f77b4; stroke: #1f77b4"/>
     <use xlink:href="#m6a2b6285bb" x="342.539689" y="60.370034" style="fill: #1f77b4; stroke: #1f77b4"/>
     <use xlink:href="#m6a2b6285bb" x="344.171119" y="62.357773" style="fill: #1f77b4; stroke: #1f77b4"/>
     <use xlink:href="#m6a2b6285bb" x="345.802549" y="60.191985" style="fill: #1f77b4; stroke: #1f77b4"/>
     <use xlink:href="#m6a2b6285bb" x="347.433979" y="56.982849" style="fill: #1f77b4; stroke: #1f77b4"/>
     <use xlink:href="#m6a2b6285bb" x="349.065408" y="59.27132" style="fill: #1f77b4; stroke: #1f77b4"/>
     <use xlink:href="#m6a2b6285bb" x="350.696838" y="58.139574" style="fill: #1f77b4; stroke: #1f77b4"/>
     <use xlink:href="#m6a2b6285bb" x="352.328268" y="60.174992" style="fill: #1f77b4; stroke: #1f77b4"/>
     <use xlink:href="#m6a2b6285bb" x="353.959698" y="59.256345" style="fill: #1f77b4; stroke: #1f77b4"/>
     <use xlink:href="#m6a2b6285bb" x="355.591128" y="59.571877" style="fill: #1f77b4; stroke: #1f77b4"/>
     <use xlink:href="#m6a2b6285bb" x="357.222558" y="55.561253" style="fill: #1f77b4; stroke: #1f77b4"/>
     <use xlink:href="#m6a2b6285bb" x="358.853988" y="54.974704" style="fill: #1f77b4; stroke: #1f77b4"/>
     <use xlink:href="#m6a2b6285bb" x="360.485418" y="56.594197" style="fill: #1f77b4; stroke: #1f77b4"/>
     <use xlink:href="#m6a2b6285bb" x="362.116847" y="57.12723" style="fill: #1f77b4; stroke: #1f77b4"/>
     <use xlink:href="#m6a2b6285bb" x="363.748277" y="55.118572" style="fill: #1f77b4; stroke: #1f77b4"/>
     <use xlink:href="#m6a2b6285bb" x="365.379707" y="58.05708" style="fill: #1f77b4; stroke: #1f77b4"/>
     <use xlink:href="#m6a2b6285bb" x="367.011137" y="55.178079" style="fill: #1f77b4; stroke: #1f77b4"/>
     <use xlink:href="#m6a2b6285bb" x="368.642567" y="55.86924" style="fill: #1f77b4; stroke: #1f77b4"/>
     <use xlink:href="#m6a2b6285bb" x="370.273997" y="55.459443" style="fill: #1f77b4; stroke: #1f77b4"/>
     <use xlink:href="#m6a2b6285bb" x="371.905427" y="55.608343" style="fill: #1f77b4; stroke: #1f77b4"/>
     <use xlink:href="#m6a2b6285bb" x="373.536857" y="52.792494" style="fill: #1f77b4; stroke: #1f77b4"/>
     <use xlink:href="#m6a2b6285bb" x="375.168286" y="54.700575" style="fill: #1f77b4; stroke: #1f77b4"/>
     <use xlink:href="#m6a2b6285bb" x="376.799716" y="48.447532" style="fill: #1f77b4; stroke: #1f77b4"/>
     <use xlink:href="#m6a2b6285bb" x="378.431146" y="51.755799" style="fill: #1f77b4; stroke: #1f77b4"/>
     <use xlink:href="#m6a2b6285bb" x="380.062576" y="51.731249" style="fill: #1f77b4; stroke: #1f77b4"/>
     <use xlink:href="#m6a2b6285bb" x="381.694006" y="51.689632" style="fill: #1f77b4; stroke: #1f77b4"/>
     <use xlink:href="#m6a2b6285bb" x="383.325436" y="51.509467" style="fill: #1f77b4; stroke: #1f77b4"/>
     <use xlink:href="#m6a2b6285bb" x="384.956866" y="52.94316" style="fill: #1f77b4; stroke: #1f77b4"/>
     <use xlink:href="#m6a2b6285bb" x="386.588296" y="51.607271" style="fill: #1f77b4; stroke: #1f77b4"/>
     <use xlink:href="#m6a2b6285bb" x="388.219725" y="47.33369" style="fill: #1f77b4; stroke: #1f77b4"/>
     <use xlink:href="#m6a2b6285bb" x="389.851155" y="48.583874" style="fill: #1f77b4; stroke: #1f77b4"/>
     <use xlink:href="#m6a2b6285bb" x="391.482585" y="47.258182" style="fill: #1f77b4; stroke: #1f77b4"/>
    </g>
   </g>
   <g id="line2d_14">
    <path d="M 66.82804 99.576628 
L 391.482585 98.322529 
L 391.482585 98.322529 
" clip-path="url(#p393b4035bc)" style="fill: none; stroke: #d62728; stroke-width: 1.5; stroke-linecap: square"/>
   </g>
   <g id="patch_3">
    <path d="M 50.595313 162.72 
L 50.595313 41.76 
" style="fill: none; stroke: #000000; stroke-width: 0.8; stroke-linejoin: miter; stroke-linecap: square"/>
   </g>
   <g id="patch_4">
    <path d="M 407.715312 162.72 
L 407.715312 41.76 
" style="fill: none; stroke: #000000; stroke-width: 0.8; stroke-linejoin: miter; stroke-linecap: square"/>
   </g>
   <g id="patch_5">
    <path d="M 50.595313 162.72 
L 407.715313 162.72 
" style="fill: none; stroke: #000000; stroke-width: 0.8; stroke-linejoin: miter; stroke-linecap: square"/>
   </g>
   <g id="patch_6">
    <path d="M 50.595313 41.76 
L 407.715313 41.76 
" style="fill: none; stroke: #000000; stroke-width: 0.8; stroke-linejoin: miter; stroke-linecap: square"/>
   </g>
   <g id="text_7">
    <g id="patch_7">
     <path d="M 425.571312 95.079562 
L 537.671312 95.079562 
Q 541.671312 95.079562 541.671312 91.079562 
L 541.671312 47.808 
Q 541.671312 43.808 537.671312 43.808 
L 425.571312 43.808 
Q 421.571312 43.808 421.571312 47.808 
L 421.571312 91.079562 
Q 421.571312 95.079562 425.571312 95.079562 
z
" style="fill: #ffffff; opacity: 0.5; stroke: #000000; stroke-linejoin: miter"/>
    </g>
    <!-- Summary -->
    <g transform="translate(425.571312 55.406437) scale(0.1 -0.1)">
     <defs>
      <path id="DejaVuSans-53" d="M 3425 4513 
L 3425 3897 
Q 3066 4069 2747 4153 
Q 2428 4238 2131 4238 
Q 1616 4238 1336 4038 
Q 1056 3838 1056 3469 
Q 1056 3159 1242 3001 
Q 1428 2844 1947 2747 
L 2328 2669 
Q 3034 2534 3370 2195 
Q 3706 1856 3706 1288 
Q 3706 609 3251 259 
Q 2797 -91 1919 -91 
Q 1588 -91 1214 -16 
Q 841 59 441 206 
L 441 856 
Q 825 641 1194 531 
Q 1563 422 1919 422 
Q 2459 422 2753 634 
Q 3047 847 3047 1241 
Q 3047 1584 2836 1778 
Q 2625 1972 2144 2069 
L 1759 2144 
Q 1053 2284 737 2584 
Q 422 2884 422 3419 
Q 422 4038 858 4394 
Q 1294 4750 2059 4750 
Q 2388 4750 2728 4690 
Q 3069 4631 3425 4513 
z
" transform="scale(0.015625)"/>
      <path id="DejaVuSans-75" d="M 544 1381 
L 544 3500 
L 1119 3500 
L 1119 1403 
Q 1119 906 1312 657 
Q 1506 409 1894 409 
Q 2359 409 2629 706 
Q 2900 1003 2900 1516 
L 2900 3500 
L 3475 3500 
L 3475 0 
L 2900 0 
L 2900 538 
Q 2691 219 2414 64 
Q 2138 -91 1772 -91 
Q 1169 -91 856 284 
Q 544 659 544 1381 
z
M 1991 3584 
L 1991 3584 
z
" transform="scale(0.015625)"/>
      <path id="DejaVuSans-61" d="M 2194 1759 
Q 1497 1759 1228 1600 
Q 959 1441 959 1056 
Q 959 750 1161 570 
Q 1363 391 1709 391 
Q 2188 391 2477 730 
Q 2766 1069 2766 1631 
L 2766 1759 
L 2194 1759 
z
M 3341 1997 
L 3341 0 
L 2766 0 
L 2766 531 
Q 2569 213 2275 61 
Q 1981 -91 1556 -91 
Q 1019 -91 701 211 
Q 384 513 384 1019 
Q 384 1609 779 1909 
Q 1175 2209 1959 2209 
L 2766 2209 
L 2766 2266 
Q 2766 2663 2505 2880 
Q 2244 3097 1772 3097 
Q 1472 3097 1187 3025 
Q 903 2953 641 2809 
L 641 3341 
Q 956 3463 1253 3523 
Q 1550 3584 1831 3584 
Q 2591 3584 2966 3190 
Q 3341 2797 3341 1997 
z
" transform="scale(0.015625)"/>
      <path id="DejaVuSans-72" d="M 2631 2963 
Q 2534 3019 2420 3045 
Q 2306 3072 2169 3072 
Q 1681 3072 1420 2755 
Q 1159 2438 1159 1844 
L 1159 0 
L 581 0 
L 581 3500 
L 1159 3500 
L 1159 2956 
Q 1341 3275 1631 3429 
Q 1922 3584 2338 3584 
Q 2397 3584 2469 3576 
Q 2541 3569 2628 3553 
L 2631 2963 
z
" transform="scale(0.015625)"/>
      <path id="DejaVuSans-79" d="M 2059 -325 
Q 1816 -950 1584 -1140 
Q 1353 -1331 966 -1331 
L 506 -1331 
L 506 -850 
L 844 -850 
Q 1081 -850 1212 -737 
Q 1344 -625 1503 -206 
L 1606 56 
L 191 3500 
L 800 3500 
L 1894 763 
L 2988 3500 
L 3597 3500 
L 2059 -325 
z
" transform="scale(0.015625)"/>
     </defs>
     <use xlink:href="#DejaVuSans-53"/>
     <use xlink:href="#DejaVuSans-75" x="63.476562"/>
     <use xlink:href="#DejaVuSans-6d" x="126.855469"/>
     <use xlink:href="#DejaVuSans-6d" x="224.267578"/>
     <use xlink:href="#DejaVuSans-61" x="321.679688"/>
     <use xlink:href="#DejaVuSans-72" x="382.958984"/>
     <use xlink:href="#DejaVuSans-79" x="424.072266"/>
    </g>
    <!-- $Q_I$: 20.$\pm$1.3e+05  -->
    <g transform="translate(425.571312 66.60425) scale(0.1 -0.1)">
     <defs>
      <path id="DejaVuSans-Oblique-51" d="M 2309 -84 
Q 2275 -88 2237 -89 
Q 2200 -91 2125 -91 
Q 1250 -91 756 411 
Q 263 913 263 1797 
Q 263 2319 452 2844 
Q 641 3369 978 3788 
Q 1369 4269 1858 4509 
Q 2347 4750 2938 4750 
Q 3794 4750 4287 4245 
Q 4781 3741 4781 2869 
Q 4781 1928 4265 1147 
Q 3750 366 2919 44 
L 3553 -825 
L 2847 -825 
L 2309 -84 
z
M 2919 4238 
Q 2400 4238 2003 3986 
Q 1606 3734 1313 3219 
Q 1125 2891 1026 2522 
Q 928 2153 928 1778 
Q 928 1128 1239 775 
Q 1550 422 2119 422 
Q 2631 422 3032 676 
Q 3434 931 3719 1434 
Q 3909 1772 4009 2142 
Q 4109 2513 4109 2881 
Q 4109 3528 3796 3883 
Q 3484 4238 2919 4238 
z
" transform="scale(0.015625)"/>
      <path id="DejaVuSans-Oblique-49" d="M 1081 4666 
L 1716 4666 
L 806 0 
L 172 0 
L 1081 4666 
z
" transform="scale(0.015625)"/>
      <path id="DejaVuSans-3a" d="M 750 794 
L 1409 794 
L 1409 0 
L 750 0 
L 750 794 
z
M 750 3309 
L 1409 3309 
L 1409 2516 
L 750 2516 
L 750 3309 
z
" transform="scale(0.015625)"/>
      <path id="DejaVuSans-30" d="M 2034 4250 
Q 1547 4250 1301 3770 
Q 1056 3291 1056 2328 
Q 1056 1369 1301 889 
Q 1547 409 2034 409 
Q 2525 409 2770 889 
Q 3016 1369 3016 2328 
Q 3016 3291 2770 3770 
Q 2525 4250 2034 4250 
z
M 2034 4750 
Q 2819 4750 3233 4129 
Q 3647 3509 3647 2328 
Q 3647 1150 3233 529 
Q 2819 -91 2034 -91 
Q 1250 -91 836 529 
Q 422 1150 422 2328 
Q 422 3509 836 4129 
Q 1250 4750 2034 4750 
z
" transform="scale(0.015625)"/>
      <path id="DejaVuSans-b1" d="M 2944 4013 
L 2944 2803 
L 4684 2803 
L 4684 2272 
L 2944 2272 
L 2944 1063 
L 2419 1063 
L 2419 2272 
L 678 2272 
L 678 2803 
L 2419 2803 
L 2419 4013 
L 2944 4013 
z
M 678 531 
L 4684 531 
L 4684 0 
L 678 0 
L 678 531 
z
" transform="scale(0.015625)"/>
      <path id="DejaVuSans-33" d="M 2597 2516 
Q 3050 2419 3304 2112 
Q 3559 1806 3559 1356 
Q 3559 666 3084 287 
Q 2609 -91 1734 -91 
Q 1441 -91 1130 -33 
Q 819 25 488 141 
L 488 750 
Q 750 597 1062 519 
Q 1375 441 1716 441 
Q 2309 441 2620 675 
Q 2931 909 2931 1356 
Q 2931 1769 2642 2001 
Q 2353 2234 1838 2234 
L 1294 2234 
L 1294 2753 
L 1863 2753 
Q 2328 2753 2575 2939 
Q 2822 3125 2822 3475 
Q 2822 3834 2567 4026 
Q 2313 4219 1838 4219 
Q 1578 4219 1281 4162 
Q 984 4106 628 3988 
L 628 4550 
Q 988 4650 1302 4700 
Q 1616 4750 1894 4750 
Q 2613 4750 3031 4423 
Q 3450 4097 3450 3541 
Q 3450 3153 3228 2886 
Q 3006 2619 2597 2516 
z
" transform="scale(0.015625)"/>
      <path id="DejaVuSans-65" d="M 3597 1894 
L 3597 1613 
L 953 1613 
Q 991 1019 1311 708 
Q 1631 397 2203 397 
Q 2534 397 2845 478 
Q 3156 559 3463 722 
L 3463 178 
Q 3153 47 2828 -22 
Q 2503 -91 2169 -91 
Q 1331 -91 842 396 
Q 353 884 353 1716 
Q 353 2575 817 3079 
Q 1281 3584 2069 3584 
Q 2775 3584 3186 3129 
Q 3597 2675 3597 1894 
z
M 3022 2063 
Q 3016 2534 2758 2815 
Q 2500 3097 2075 3097 
Q 1594 3097 1305 2825 
Q 1016 2553 972 2059 
L 3022 2063 
z
" transform="scale(0.015625)"/>
      <path id="DejaVuSans-2b" d="M 2944 4013 
L 2944 2272 
L 4684 2272 
L 4684 1741 
L 2944 1741 
L 2944 0 
L 2419 0 
L 2419 1741 
L 678 1741 
L 678 2272 
L 2419 2272 
L 2419 4013 
L 2944 4013 
z
" transform="scale(0.015625)"/>
     </defs>
     <use xlink:href="#DejaVuSans-Oblique-51" transform="translate(0 0.78125)"/>
     <use xlink:href="#DejaVuSans-Oblique-49" transform="translate(78.710938 -15.625) scale(0.7)"/>
     <use xlink:href="#DejaVuSans-3a" transform="translate(102.089844 0.78125)"/>
     <use xlink:href="#DejaVuSans-20" transform="translate(135.78125 0.78125)"/>
     <use xlink:href="#DejaVuSans-32" transform="translate(167.568359 0.78125)"/>
     <use xlink:href="#DejaVuSans-30" transform="translate(231.191406 0.78125)"/>
     <use xlink:href="#DejaVuSans-2e" transform="translate(294.814453 0.78125)"/>
     <use xlink:href="#DejaVuSans-b1" transform="translate(326.601562 0.78125)"/>
     <use xlink:href="#DejaVuSans-31" transform="translate(410.390625 0.78125)"/>
     <use xlink:href="#DejaVuSans-2e" transform="translate(474.013672 0.78125)"/>
     <use xlink:href="#DejaVuSans-33" transform="translate(505.800781 0.78125)"/>
     <use xlink:href="#DejaVuSans-65" transform="translate(569.423828 0.78125)"/>
     <use xlink:href="#DejaVuSans-2b" transform="translate(630.947266 0.78125)"/>
     <use xlink:href="#DejaVuSans-30" transform="translate(714.736328 0.78125)"/>
     <use xlink:href="#DejaVuSans-35" transform="translate(778.359375 0.78125)"/>
     <use xlink:href="#DejaVuSans-20" transform="translate(841.982422 0.78125)"/>
    </g>
    <!-- $Q_C$: 4.8$\pm$1.2e+05 k -->
    <g transform="translate(425.571312 77.802062) scale(0.1 -0.1)">
     <defs>
      <path id="DejaVuSans-Oblique-43" d="M 4447 4306 
L 4319 3641 
Q 4019 3944 3683 4091 
Q 3347 4238 2956 4238 
Q 2422 4238 2017 3981 
Q 1613 3725 1319 3200 
Q 1131 2863 1032 2486 
Q 934 2109 934 1728 
Q 934 1091 1264 756 
Q 1594 422 2222 422 
Q 2656 422 3056 561 
Q 3456 700 3834 978 
L 3688 231 
Q 3316 72 2936 -9 
Q 2556 -91 2175 -91 
Q 1278 -91 773 396 
Q 269 884 269 1753 
Q 269 2309 461 2846 
Q 653 3384 1013 3828 
Q 1394 4300 1883 4525 
Q 2372 4750 3022 4750 
Q 3422 4750 3780 4639 
Q 4138 4528 4447 4306 
z
" transform="scale(0.015625)"/>
      <path id="DejaVuSans-34" d="M 2419 4116 
L 825 1625 
L 2419 1625 
L 2419 4116 
z
M 2253 4666 
L 3047 4666 
L 3047 1625 
L 3713 1625 
L 3713 1100 
L 3047 1100 
L 3047 0 
L 2419 0 
L 2419 1100 
L 313 1100 
L 313 1709 
L 2253 4666 
z
" transform="scale(0.015625)"/>
      <path id="DejaVuSans-38" d="M 2034 2216 
Q 1584 2216 1326 1975 
Q 1069 1734 1069 1313 
Q 1069 891 1326 650 
Q 1584 409 2034 409 
Q 2484 409 2743 651 
Q 3003 894 3003 1313 
Q 3003 1734 2745 1975 
Q 2488 2216 2034 2216 
z
M 1403 2484 
Q 997 2584 770 2862 
Q 544 3141 544 3541 
Q 544 4100 942 4425 
Q 1341 4750 2034 4750 
Q 2731 4750 3128 4425 
Q 3525 4100 3525 3541 
Q 3525 3141 3298 2862 
Q 3072 2584 2669 2484 
Q 3125 2378 3379 2068 
Q 3634 1759 3634 1313 
Q 3634 634 3220 271 
Q 2806 -91 2034 -91 
Q 1263 -91 848 271 
Q 434 634 434 1313 
Q 434 1759 690 2068 
Q 947 2378 1403 2484 
z
M 1172 3481 
Q 1172 3119 1398 2916 
Q 1625 2713 2034 2713 
Q 2441 2713 2670 2916 
Q 2900 3119 2900 3481 
Q 2900 3844 2670 4047 
Q 2441 4250 2034 4250 
Q 1625 4250 1398 4047 
Q 1172 3844 1172 3481 
z
" transform="scale(0.015625)"/>
      <path id="DejaVuSans-6b" d="M 581 4863 
L 1159 4863 
L 1159 1991 
L 2875 3500 
L 3609 3500 
L 1753 1863 
L 3688 0 
L 2938 0 
L 1159 1709 
L 1159 0 
L 581 0 
L 581 4863 
z
" transform="scale(0.015625)"/>
     </defs>
     <use xlink:href="#DejaVuSans-Oblique-51" transform="translate(0 0.015625)"/>
     <use xlink:href="#DejaVuSans-Oblique-43" transform="translate(78.710938 -16.390625) scale(0.7)"/>
     <use xlink:href="#DejaVuSans-3a" transform="translate(130.322266 0.015625)"/>
     <use xlink:href="#DejaVuSans-20" transform="translate(164.013672 0.015625)"/>
     <use xlink:href="#DejaVuSans-34" transform="translate(195.800781 0.015625)"/>
     <use xlink:href="#DejaVuSans-2e" transform="translate(259.423828 0.015625)"/>
     <use xlink:href="#DejaVuSans-38" transform="translate(288.585938 0.015625)"/>
     <use xlink:href="#DejaVuSans-b1" transform="translate(352.208984 0.015625)"/>
     <use xlink:href="#DejaVuSans-31" transform="translate(435.998047 0.015625)"/>
     <use xlink:href="#DejaVuSans-2e" transform="translate(499.621094 0.015625)"/>
     <use xlink:href="#DejaVuSans-32" transform="translate(525.908203 0.015625)"/>
     <use xlink:href="#DejaVuSans-65" transform="translate(589.53125 0.015625)"/>
     <use xlink:href="#DejaVuSans-2b" transform="translate(651.054688 0.015625)"/>
     <use xlink:href="#DejaVuSans-30" transform="translate(734.84375 0.015625)"/>
     <use xlink:href="#DejaVuSans-35" transform="translate(798.466797 0.015625)"/>
     <use xlink:href="#DejaVuSans-20" transform="translate(862.089844 0.015625)"/>
     <use xlink:href="#DejaVuSans-6b" transform="translate(893.876953 0.015625)"/>
    </g>
    <!-- $f_{res}$: 5.8$\pm$1.0e+03 GHz -->
    <g transform="translate(425.571312 88.999875) scale(0.1 -0.1)">
     <defs>
      <path id="DejaVuSans-Oblique-66" d="M 3059 4863 
L 2969 4384 
L 2419 4384 
Q 2106 4384 1964 4261 
Q 1822 4138 1753 3809 
L 1691 3500 
L 2638 3500 
L 2553 3053 
L 1606 3053 
L 1013 0 
L 434 0 
L 1031 3053 
L 481 3053 
L 563 3500 
L 1113 3500 
L 1159 3744 
Q 1278 4363 1576 4613 
Q 1875 4863 2516 4863 
L 3059 4863 
z
" transform="scale(0.015625)"/>
      <path id="DejaVuSans-Oblique-72" d="M 2853 2969 
Q 2766 3016 2653 3041 
Q 2541 3066 2413 3066 
Q 1953 3066 1609 2717 
Q 1266 2369 1153 1784 
L 800 0 
L 225 0 
L 909 3500 
L 1484 3500 
L 1375 2956 
Q 1603 3259 1920 3421 
Q 2238 3584 2597 3584 
Q 2691 3584 2781 3573 
Q 2872 3563 2963 3538 
L 2853 2969 
z
" transform="scale(0.015625)"/>
      <path id="DejaVuSans-Oblique-65" d="M 3078 2063 
Q 3088 2113 3092 2166 
Q 3097 2219 3097 2272 
Q 3097 2653 2873 2875 
Q 2650 3097 2266 3097 
Q 1838 3097 1509 2826 
Q 1181 2556 1013 2059 
L 3078 2063 
z
M 3578 1613 
L 903 1613 
Q 884 1494 878 1425 
Q 872 1356 872 1306 
Q 872 872 1139 634 
Q 1406 397 1894 397 
Q 2269 397 2603 481 
Q 2938 566 3225 728 
L 3116 159 
Q 2806 34 2476 -28 
Q 2147 -91 1806 -91 
Q 1078 -91 686 257 
Q 294 606 294 1247 
Q 294 1794 489 2264 
Q 684 2734 1063 3103 
Q 1306 3334 1642 3459 
Q 1978 3584 2356 3584 
Q 2950 3584 3301 3228 
Q 3653 2872 3653 2272 
Q 3653 2128 3634 1964 
Q 3616 1800 3578 1613 
z
" transform="scale(0.015625)"/>
      <path id="DejaVuSans-Oblique-73" d="M 3200 3397 
L 3091 2853 
Q 2863 2978 2609 3040 
Q 2356 3103 2088 3103 
Q 1634 3103 1373 2948 
Q 1113 2794 1113 2528 
Q 1113 2219 1719 2053 
Q 1766 2041 1788 2034 
L 1972 1978 
Q 2547 1819 2739 1644 
Q 2931 1469 2931 1166 
Q 2931 609 2489 259 
Q 2047 -91 1331 -91 
Q 1053 -91 747 -37 
Q 441 16 72 128 
L 184 722 
Q 500 559 806 475 
Q 1113 391 1394 391 
Q 1816 391 2080 572 
Q 2344 753 2344 1031 
Q 2344 1331 1650 1516 
L 1591 1531 
L 1394 1581 
Q 956 1697 753 1886 
Q 550 2075 550 2369 
Q 550 2928 970 3256 
Q 1391 3584 2113 3584 
Q 2397 3584 2667 3537 
Q 2938 3491 3200 3397 
z
" transform="scale(0.015625)"/>
      <path id="DejaVuSans-47" d="M 3809 666 
L 3809 1919 
L 2778 1919 
L 2778 2438 
L 4434 2438 
L 4434 434 
Q 4069 175 3628 42 
Q 3188 -91 2688 -91 
Q 1594 -91 976 548 
Q 359 1188 359 2328 
Q 359 3472 976 4111 
Q 1594 4750 2688 4750 
Q 3144 4750 3555 4637 
Q 3966 4525 4313 4306 
L 4313 3634 
Q 3963 3931 3569 4081 
Q 3175 4231 2741 4231 
Q 1884 4231 1454 3753 
Q 1025 3275 1025 2328 
Q 1025 1384 1454 906 
Q 1884 428 2741 428 
Q 3075 428 3337 486 
Q 3600 544 3809 666 
z
" transform="scale(0.015625)"/>
      <path id="DejaVuSans-48" d="M 628 4666 
L 1259 4666 
L 1259 2753 
L 3553 2753 
L 3553 4666 
L 4184 4666 
L 4184 0 
L 3553 0 
L 3553 2222 
L 1259 2222 
L 1259 0 
L 628 0 
L 628 4666 
z
" transform="scale(0.015625)"/>
      <path id="DejaVuSans-7a" d="M 353 3500 
L 3084 3500 
L 3084 2975 
L 922 459 
L 3084 459 
L 3084 0 
L 275 0 
L 275 525 
L 2438 3041 
L 353 3041 
L 353 3500 
z
" transform="scale(0.015625)"/>
     </defs>
     <use xlink:href="#DejaVuSans-Oblique-66" transform="translate(0 0.015625)"/>
     <use xlink:href="#DejaVuSans-Oblique-72" transform="translate(35.205078 -16.390625) scale(0.7)"/>
     <use xlink:href="#DejaVuSans-Oblique-65" transform="translate(63.984375 -16.390625) scale(0.7)"/>
     <use xlink:href="#DejaVuSans-Oblique-73" transform="translate(107.050781 -16.390625) scale(0.7)"/>
     <use xlink:href="#DejaVuSans-3a" transform="translate(146.254883 0.015625)"/>
     <use xlink:href="#DejaVuSans-20" transform="translate(179.946289 0.015625)"/>
     <use xlink:href="#DejaVuSans-35" transform="translate(211.733398 0.015625)"/>
     <use xlink:href="#DejaVuSans-2e" transform="translate(275.356445 0.015625)"/>
     <use xlink:href="#DejaVuSans-38" transform="translate(304.518555 0.015625)"/>
     <use xlink:href="#DejaVuSans-b1" transform="translate(368.141602 0.015625)"/>
     <use xlink:href="#DejaVuSans-31" transform="translate(451.930664 0.015625)"/>
     <use xlink:href="#DejaVuSans-2e" transform="translate(515.553711 0.015625)"/>
     <use xlink:href="#DejaVuSans-30" transform="translate(547.34082 0.015625)"/>
     <use xlink:href="#DejaVuSans-65" transform="translate(610.963867 0.015625)"/>
     <use xlink:href="#DejaVuSans-2b" transform="translate(672.487305 0.015625)"/>
     <use xlink:href="#DejaVuSans-30" transform="translate(756.276367 0.015625)"/>
     <use xlink:href="#DejaVuSans-33" transform="translate(819.899414 0.015625)"/>
     <use xlink:href="#DejaVuSans-20" transform="translate(883.522461 0.015625)"/>
     <use xlink:href="#DejaVuSans-47" transform="translate(915.30957 0.015625)"/>
     <use xlink:href="#DejaVuSans-48" transform="translate(992.799805 0.015625)"/>
     <use xlink:href="#DejaVuSans-7a" transform="translate(1067.995117 0.015625)"/>
    </g>
   </g>
  </g>
  <g id="axes_2">
   <g id="patch_8">
    <path d="M 50.595313 307.872 
L 407.715312 307.872 
L 407.715312 186.912 
L 50.595313 186.912 
z
" style="fill: #ffffff"/>
   </g>
   <g id="matplotlib.axis_3">
    <g id="xtick_8">
     <g id="line2d_15">
      <g>
       <use xlink:href="#mff2331e2d7" x="66.82804" y="307.872" style="stroke: #000000; stroke-width: 0.8"/>
      </g>
     </g>
     <g id="text_8">
      <!-- 795 -->
      <g transform="translate(57.28429 322.470438) scale(0.1 -0.1)">
       <defs>
        <path id="DejaVuSans-39" d="M 703 97 
L 703 672 
Q 941 559 1184 500 
Q 1428 441 1663 441 
Q 2288 441 2617 861 
Q 2947 1281 2994 2138 
Q 2813 1869 2534 1725 
Q 2256 1581 1919 1581 
Q 1219 1581 811 2004 
Q 403 2428 403 3163 
Q 403 3881 828 4315 
Q 1253 4750 1959 4750 
Q 2769 4750 3195 4129 
Q 3622 3509 3622 2328 
Q 3622 1225 3098 567 
Q 2575 -91 1691 -91 
Q 1453 -91 1209 -44 
Q 966 3 703 97 
z
M 1959 2075 
Q 2384 2075 2632 2365 
Q 2881 2656 2881 3163 
Q 2881 3666 2632 3958 
Q 2384 4250 1959 4250 
Q 1534 4250 1286 3958 
Q 1038 3666 1038 3163 
Q 1038 2656 1286 2365 
Q 1534 2075 1959 2075 
z
" transform="scale(0.015625)"/>
       </defs>
       <use xlink:href="#DejaVuSans-37"/>
       <use xlink:href="#DejaVuSans-39" x="63.623047"/>
       <use xlink:href="#DejaVuSans-35" x="127.246094"/>
      </g>
     </g>
    </g>
    <g id="xtick_9">
     <g id="line2d_16">
      <g>
       <use xlink:href="#mff2331e2d7" x="120.937131" y="307.872" style="stroke: #000000; stroke-width: 0.8"/>
      </g>
     </g>
     <g id="text_9">
      <!-- 800 -->
      <g transform="translate(111.393381 322.470438) scale(0.1 -0.1)">
       <use xlink:href="#DejaVuSans-38"/>
       <use xlink:href="#DejaVuSans-30" x="63.623047"/>
       <use xlink:href="#DejaVuSans-30" x="127.246094"/>
      </g>
     </g>
    </g>
    <g id="xtick_10">
     <g id="line2d_17">
      <g>
       <use xlink:href="#mff2331e2d7" x="175.046222" y="307.872" style="stroke: #000000; stroke-width: 0.8"/>
      </g>
     </g>
     <g id="text_10">
      <!-- 805 -->
      <g transform="translate(165.502472 322.470438) scale(0.1 -0.1)">
       <use xlink:href="#DejaVuSans-38"/>
       <use xlink:href="#DejaVuSans-30" x="63.623047"/>
       <use xlink:href="#DejaVuSans-35" x="127.246094"/>
      </g>
     </g>
    </g>
    <g id="xtick_11">
     <g id="line2d_18">
      <g>
       <use xlink:href="#mff2331e2d7" x="229.155313" y="307.872" style="stroke: #000000; stroke-width: 0.8"/>
      </g>
     </g>
     <g id="text_11">
      <!-- 810 -->
      <g transform="translate(219.611563 322.470438) scale(0.1 -0.1)">
       <use xlink:href="#DejaVuSans-38"/>
       <use xlink:href="#DejaVuSans-31" x="63.623047"/>
       <use xlink:href="#DejaVuSans-30" x="127.246094"/>
      </g>
     </g>
    </g>
    <g id="xtick_12">
     <g id="line2d_19">
      <g>
       <use xlink:href="#mff2331e2d7" x="283.264403" y="307.872" style="stroke: #000000; stroke-width: 0.8"/>
      </g>
     </g>
     <g id="text_12">
      <!-- 815 -->
      <g transform="translate(273.720653 322.470438) scale(0.1 -0.1)">
       <use xlink:href="#DejaVuSans-38"/>
       <use xlink:href="#DejaVuSans-31" x="63.623047"/>
       <use xlink:href="#DejaVuSans-35" x="127.246094"/>
      </g>
     </g>
    </g>
    <g id="xtick_13">
     <g id="line2d_20">
      <g>
       <use xlink:href="#mff2331e2d7" x="337.373494" y="307.872" style="stroke: #000000; stroke-width: 0.8"/>
      </g>
     </g>
     <g id="text_13">
      <!-- 820 -->
      <g transform="translate(327.829744 322.470438) scale(0.1 -0.1)">
       <use xlink:href="#DejaVuSans-38"/>
       <use xlink:href="#DejaVuSans-32" x="63.623047"/>
       <use xlink:href="#DejaVuSans-30" x="127.246094"/>
      </g>
     </g>
    </g>
    <g id="xtick_14">
     <g id="line2d_21">
      <g>
       <use xlink:href="#mff2331e2d7" x="391.482585" y="307.872" style="stroke: #000000; stroke-width: 0.8"/>
      </g>
     </g>
     <g id="text_14">
      <!-- 825 -->
      <g transform="translate(381.938835 322.470438) scale(0.1 -0.1)">
       <use xlink:href="#DejaVuSans-38"/>
       <use xlink:href="#DejaVuSans-32" x="63.623047"/>
       <use xlink:href="#DejaVuSans-35" x="127.246094"/>
      </g>
     </g>
    </g>
    <g id="text_15">
     <!-- Frequency [MHz] -->
     <g transform="translate(187.136562 336.148562) scale(0.1 -0.1)">
      <defs>
       <path id="DejaVuSans-46" d="M 628 4666 
L 3309 4666 
L 3309 4134 
L 1259 4134 
L 1259 2759 
L 3109 2759 
L 3109 2228 
L 1259 2228 
L 1259 0 
L 628 0 
L 628 4666 
z
" transform="scale(0.015625)"/>
       <path id="DejaVuSans-71" d="M 947 1747 
Q 947 1113 1208 752 
Q 1469 391 1925 391 
Q 2381 391 2643 752 
Q 2906 1113 2906 1747 
Q 2906 2381 2643 2742 
Q 2381 3103 1925 3103 
Q 1469 3103 1208 2742 
Q 947 2381 947 1747 
z
M 2906 525 
Q 2725 213 2448 61 
Q 2172 -91 1784 -91 
Q 1150 -91 751 415 
Q 353 922 353 1747 
Q 353 2572 751 3078 
Q 1150 3584 1784 3584 
Q 2172 3584 2448 3432 
Q 2725 3281 2906 2969 
L 2906 3500 
L 3481 3500 
L 3481 -1331 
L 2906 -1331 
L 2906 525 
z
" transform="scale(0.015625)"/>
       <path id="DejaVuSans-6e" d="M 3513 2113 
L 3513 0 
L 2938 0 
L 2938 2094 
Q 2938 2591 2744 2837 
Q 2550 3084 2163 3084 
Q 1697 3084 1428 2787 
Q 1159 2491 1159 1978 
L 1159 0 
L 581 0 
L 581 3500 
L 1159 3500 
L 1159 2956 
Q 1366 3272 1645 3428 
Q 1925 3584 2291 3584 
Q 2894 3584 3203 3211 
Q 3513 2838 3513 2113 
z
" transform="scale(0.015625)"/>
       <path id="DejaVuSans-63" d="M 3122 3366 
L 3122 2828 
Q 2878 2963 2633 3030 
Q 2388 3097 2138 3097 
Q 1578 3097 1268 2742 
Q 959 2388 959 1747 
Q 959 1106 1268 751 
Q 1578 397 2138 397 
Q 2388 397 2633 464 
Q 2878 531 3122 666 
L 3122 134 
Q 2881 22 2623 -34 
Q 2366 -91 2075 -91 
Q 1284 -91 818 406 
Q 353 903 353 1747 
Q 353 2603 823 3093 
Q 1294 3584 2113 3584 
Q 2378 3584 2631 3529 
Q 2884 3475 3122 3366 
z
" transform="scale(0.015625)"/>
       <path id="DejaVuSans-4d" d="M 628 4666 
L 1569 4666 
L 2759 1491 
L 3956 4666 
L 4897 4666 
L 4897 0 
L 4281 0 
L 4281 4097 
L 3078 897 
L 2444 897 
L 1241 4097 
L 1241 0 
L 628 0 
L 628 4666 
z
" transform="scale(0.015625)"/>
      </defs>
      <use xlink:href="#DejaVuSans-46"/>
      <use xlink:href="#DejaVuSans-72" x="50.269531"/>
      <use xlink:href="#DejaVuSans-65" x="89.132812"/>
      <use xlink:href="#DejaVuSans-71" x="150.65625"/>
      <use xlink:href="#DejaVuSans-75" x="214.132812"/>
      <use xlink:href="#DejaVuSans-65" x="277.511719"/>
      <use xlink:href="#DejaVuSans-6e" x="339.035156"/>
      <use xlink:href="#DejaVuSans-63" x="402.414062"/>
      <use xlink:href="#DejaVuSans-79" x="457.394531"/>
      <use xlink:href="#DejaVuSans-20" x="516.574219"/>
      <use xlink:href="#DejaVuSans-5b" x="548.361328"/>
      <use xlink:href="#DejaVuSans-4d" x="587.375"/>
      <use xlink:href="#DejaVuSans-48" x="673.654297"/>
      <use xlink:href="#DejaVuSans-7a" x="748.849609"/>
      <use xlink:href="#DejaVuSans-5d" x="801.339844"/>
     </g>
    </g>
    <g id="text_16">
     <!-- +5 GHz -->
     <g transform="translate(369.277812 335.148562) scale(0.1 -0.1)">
      <use xlink:href="#DejaVuSans-2b"/>
      <use xlink:href="#DejaVuSans-35" x="83.789062"/>
      <use xlink:href="#DejaVuSans-20" x="147.412109"/>
      <use xlink:href="#DejaVuSans-47" x="179.199219"/>
      <use xlink:href="#DejaVuSans-48" x="256.689453"/>
      <use xlink:href="#DejaVuSans-7a" x="331.884766"/>
     </g>
    </g>
   </g>
   <g id="matplotlib.axis_4">
    <g id="ytick_6">
     <g id="line2d_22">
      <g>
       <use xlink:href="#m81cfe391f7" x="50.595313" y="291.816135" style="stroke: #000000; stroke-width: 0.8"/>
      </g>
     </g>
     <g id="text_17">
      <!-- -125 -->
      <g transform="translate(20.9 295.615354) scale(0.1 -0.1)">
       <defs>
        <path id="DejaVuSans-2d" d="M 313 2009 
L 1997 2009 
L 1997 1497 
L 313 1497 
L 313 2009 
z
" transform="scale(0.015625)"/>
       </defs>
       <use xlink:href="#DejaVuSans-2d"/>
       <use xlink:href="#DejaVuSans-31" x="36.083984"/>
       <use xlink:href="#DejaVuSans-32" x="99.707031"/>
       <use xlink:href="#DejaVuSans-35" x="163.330078"/>
      </g>
     </g>
    </g>
    <g id="ytick_7">
     <g id="line2d_23">
      <g>
       <use xlink:href="#m81cfe391f7" x="50.595313" y="269.808405" style="stroke: #000000; stroke-width: 0.8"/>
      </g>
     </g>
     <g id="text_18">
      <!-- -100 -->
      <g transform="translate(20.9 273.607624) scale(0.1 -0.1)">
       <use xlink:href="#DejaVuSans-2d"/>
       <use xlink:href="#DejaVuSans-31" x="36.083984"/>
       <use xlink:href="#DejaVuSans-30" x="99.707031"/>
       <use xlink:href="#DejaVuSans-30" x="163.330078"/>
      </g>
     </g>
    </g>
    <g id="ytick_8">
     <g id="line2d_24">
      <g>
       <use xlink:href="#m81cfe391f7" x="50.595313" y="247.800675" style="stroke: #000000; stroke-width: 0.8"/>
      </g>
     </g>
     <g id="text_19">
      <!-- -75 -->
      <g transform="translate(27.2625 251.599894) scale(0.1 -0.1)">
       <use xlink:href="#DejaVuSans-2d"/>
       <use xlink:href="#DejaVuSans-37" x="36.083984"/>
       <use xlink:href="#DejaVuSans-35" x="99.707031"/>
      </g>
     </g>
    </g>
    <g id="ytick_9">
     <g id="line2d_25">
      <g>
       <use xlink:href="#m81cfe391f7" x="50.595313" y="225.792944" style="stroke: #000000; stroke-width: 0.8"/>
      </g>
     </g>
     <g id="text_20">
      <!-- -50 -->
      <g transform="translate(27.2625 229.592163) scale(0.1 -0.1)">
       <use xlink:href="#DejaVuSans-2d"/>
       <use xlink:href="#DejaVuSans-35" x="36.083984"/>
       <use xlink:href="#DejaVuSans-30" x="99.707031"/>
      </g>
     </g>
    </g>
    <g id="ytick_10">
     <g id="line2d_26">
      <g>
       <use xlink:href="#m81cfe391f7" x="50.595313" y="203.785214" style="stroke: #000000; stroke-width: 0.8"/>
      </g>
     </g>
     <g id="text_21">
      <!-- -25 -->
      <g transform="translate(27.2625 207.584433) scale(0.1 -0.1)">
       <use xlink:href="#DejaVuSans-2d"/>
       <use xlink:href="#DejaVuSans-32" x="36.083984"/>
       <use xlink:href="#DejaVuSans-35" x="99.707031"/>
      </g>
     </g>
    </g>
    <g id="text_22">
     <!-- $\angle S_{21}$ [deg] -->
     <g transform="translate(14.8 274.592) rotate(-90) scale(0.1 -0.1)">
      <defs>
       <path id="DejaVuSans-2220" d="M 5028 631 
L 5028 0 
L 547 0 
L 3525 4666 
L 4281 4666 
L 1716 631 
L 5028 631 
z
" transform="scale(0.015625)"/>
       <path id="DejaVuSans-64" d="M 2906 2969 
L 2906 4863 
L 3481 4863 
L 3481 0 
L 2906 0 
L 2906 525 
Q 2725 213 2448 61 
Q 2172 -91 1784 -91 
Q 1150 -91 751 415 
Q 353 922 353 1747 
Q 353 2572 751 3078 
Q 1150 3584 1784 3584 
Q 2172 3584 2448 3432 
Q 2725 3281 2906 2969 
z
M 947 1747 
Q 947 1113 1208 752 
Q 1469 391 1925 391 
Q 2381 391 2643 752 
Q 2906 1113 2906 1747 
Q 2906 2381 2643 2742 
Q 2381 3103 1925 3103 
Q 1469 3103 1208 2742 
Q 947 2381 947 1747 
z
" transform="scale(0.015625)"/>
       <path id="DejaVuSans-67" d="M 2906 1791 
Q 2906 2416 2648 2759 
Q 2391 3103 1925 3103 
Q 1463 3103 1205 2759 
Q 947 2416 947 1791 
Q 947 1169 1205 825 
Q 1463 481 1925 481 
Q 2391 481 2648 825 
Q 2906 1169 2906 1791 
z
M 3481 434 
Q 3481 -459 3084 -895 
Q 2688 -1331 1869 -1331 
Q 1566 -1331 1297 -1286 
Q 1028 -1241 775 -1147 
L 775 -588 
Q 1028 -725 1275 -790 
Q 1522 -856 1778 -856 
Q 2344 -856 2625 -561 
Q 2906 -266 2906 331 
L 2906 616 
Q 2728 306 2450 153 
Q 2172 0 1784 0 
Q 1141 0 747 490 
Q 353 981 353 1791 
Q 353 2603 747 3093 
Q 1141 3584 1784 3584 
Q 2172 3584 2450 3431 
Q 2728 3278 2906 2969 
L 2906 3500 
L 3481 3500 
L 3481 434 
z
" transform="scale(0.015625)"/>
      </defs>
      <use xlink:href="#DejaVuSans-2220" transform="translate(0 0.015625)"/>
      <use xlink:href="#DejaVuSans-Oblique-53" transform="translate(89.648438 0.015625)"/>
      <use xlink:href="#DejaVuSans-32" transform="translate(153.125 -16.390625) scale(0.7)"/>
      <use xlink:href="#DejaVuSans-31" transform="translate(197.661133 -16.390625) scale(0.7)"/>
      <use xlink:href="#DejaVuSans-20" transform="translate(244.931641 0.015625)"/>
      <use xlink:href="#DejaVuSans-5b" transform="translate(276.71875 0.015625)"/>
      <use xlink:href="#DejaVuSans-64" transform="translate(315.732422 0.015625)"/>
      <use xlink:href="#DejaVuSans-65" transform="translate(379.208984 0.015625)"/>
      <use xlink:href="#DejaVuSans-67" transform="translate(440.732422 0.015625)"/>
      <use xlink:href="#DejaVuSans-5d" transform="translate(504.208984 0.015625)"/>
     </g>
    </g>
   </g>
   <g id="line2d_27">
    <path d="M 66.82804 194.883344 
L 68.45947 195.723115 
L 70.0909 195.255384 
L 71.722329 196.164776 
L 73.353759 197.209911 
L 74.985189 197.237233 
L 76.616619 198.026802 
L 79.879479 199.969751 
L 81.510909 199.709399 
L 83.142339 200.855101 
L 84.773768 200.918427 
L 86.405198 201.787983 
L 88.036628 202.47934 
L 89.668058 202.910049 
L 91.299488 204.36869 
L 92.930918 203.832244 
L 94.562348 203.889247 
L 96.193778 204.95334 
L 97.825207 205.329264 
L 99.456637 206.310131 
L 101.088067 207.083817 
L 102.719497 207.244676 
L 104.350927 207.154242 
L 105.982357 208.373798 
L 107.613787 208.239645 
L 109.245217 208.431399 
L 110.876646 209.142145 
L 112.508076 210.965235 
L 114.139506 211.173212 
L 115.770936 211.032688 
L 117.402366 211.006827 
L 119.033796 211.646731 
L 120.665226 212.908303 
L 122.296656 212.926972 
L 123.928085 213.986597 
L 127.190945 214.873832 
L 130.453805 216.530495 
L 132.085235 215.921003 
L 133.716665 217.362453 
L 135.348095 216.854564 
L 138.610954 217.394275 
L 140.242384 218.563934 
L 143.505244 219.399006 
L 145.136674 220.460262 
L 146.768104 220.975733 
L 148.399534 220.865765 
L 150.030963 221.125343 
L 151.662393 222.216101 
L 153.293823 222.769978 
L 154.925253 223.050129 
L 156.556683 223.890002 
L 158.188113 224.353553 
L 159.819543 224.479174 
L 161.450973 225.104927 
L 163.082402 226.036319 
L 164.713832 226.525827 
L 166.345262 226.123173 
L 167.976692 227.313739 
L 169.608122 228.036684 
L 171.239552 227.963281 
L 172.870982 228.547036 
L 174.502412 228.801556 
L 176.133842 229.468022 
L 177.765271 230.290903 
L 179.396701 230.984676 
L 181.028131 231.819193 
L 182.659561 231.313126 
L 184.290991 232.474085 
L 185.922421 233.269501 
L 187.553851 232.68107 
L 189.185281 233.690505 
L 190.81671 234.529472 
L 192.44814 234.734598 
L 194.07957 235.729805 
L 195.711 235.794975 
L 197.34243 236.512211 
L 198.97386 236.122516 
L 200.60529 236.905061 
L 202.23672 237.165104 
L 203.868149 238.60516 
L 205.499579 239.097325 
L 207.131009 239.322548 
L 208.762439 240.12678 
L 212.025299 241.295792 
L 213.656729 241.533328 
L 215.288159 242.413826 
L 216.919588 241.97199 
L 218.551018 243.615814 
L 220.182448 243.517861 
L 221.813878 244.376635 
L 223.445308 245.074666 
L 226.708168 246.004989 
L 228.339598 246.426831 
L 229.971027 247.396397 
L 231.602457 247.607994 
L 233.233887 247.657781 
L 234.865317 249.025352 
L 236.496747 249.182166 
L 238.128177 249.711888 
L 239.759607 250.120393 
L 241.391037 250.860405 
L 243.022466 250.634257 
L 244.653896 252.736687 
L 246.285326 252.179564 
L 247.916756 253.381217 
L 249.548186 253.654831 
L 251.179616 254.333178 
L 252.811046 255.364049 
L 254.442476 254.447516 
L 256.073905 255.75999 
L 257.705335 256.820061 
L 259.336765 257.054838 
L 262.599625 258.278804 
L 264.231055 258.474223 
L 267.493915 259.937448 
L 269.125344 259.982166 
L 270.756774 260.742583 
L 272.388204 260.660276 
L 274.019634 262.046759 
L 275.651064 262.360234 
L 277.282494 263.378174 
L 278.913924 263.501257 
L 280.545354 264.07731 
L 283.808213 265.511202 
L 285.439643 265.682483 
L 288.702503 266.7423 
L 291.965363 268.123076 
L 293.596793 268.303249 
L 295.228223 269.252306 
L 298.491082 270.604056 
L 300.122512 270.357506 
L 303.385372 272.109573 
L 305.016802 272.40804 
L 306.648232 272.923699 
L 308.279662 273.173129 
L 309.911091 274.097603 
L 311.542521 274.617177 
L 313.173951 274.553029 
L 314.805381 275.187942 
L 316.436811 276.114726 
L 318.068241 276.321486 
L 319.699671 276.395557 
L 321.331101 277.678351 
L 322.96253 278.281933 
L 326.22539 278.896349 
L 327.85682 279.972079 
L 329.48825 279.412847 
L 331.11968 281.371329 
L 332.75111 281.360856 
L 334.38254 281.843102 
L 336.013969 282.921311 
L 340.908259 284.692207 
L 342.539689 284.828471 
L 344.171119 285.958112 
L 345.802549 285.974445 
L 347.433979 286.375535 
L 349.065408 287.61991 
L 350.696838 287.658148 
L 353.959698 288.760773 
L 355.591128 288.809193 
L 357.222558 289.63489 
L 360.485418 290.839967 
L 362.116847 291.588998 
L 363.748277 291.886772 
L 365.379707 292.004763 
L 367.011137 293.265116 
L 368.642567 292.976949 
L 370.273997 294.167649 
L 371.905427 294.060324 
L 373.536857 295.442829 
L 376.799716 296.049068 
L 378.431146 297.05399 
L 380.062576 297.660647 
L 381.694006 297.851734 
L 383.325436 298.518145 
L 386.588296 299.48215 
L 388.219725 300.205766 
L 389.851155 300.654681 
L 391.482585 301.520744 
L 391.482585 301.520744 
" clip-path="url(#p75d46df2c2)" style="fill: none; stroke: #1f77b4; stroke-width: 1.5; stroke-linecap: square"/>
    <g clip-path="url(#p75d46df2c2)">
     <use xlink:href="#m6a2b6285bb" x="66.82804" y="194.883344" style="fill: #1f77b4; stroke: #1f77b4"/>
     <use xlink:href="#m6a2b6285bb" x="68.45947" y="195.723115" style="fill: #1f77b4; stroke: #1f77b4"/>
     <use xlink:href="#m6a2b6285bb" x="70.0909" y="195.255384" style="fill: #1f77b4; stroke: #1f77b4"/>
     <use xlink:href="#m6a2b6285bb" x="71.722329" y="196.164776" style="fill: #1f77b4; stroke: #1f77b4"/>
     <use xlink:href="#m6a2b6285bb" x="73.353759" y="197.209911" style="fill: #1f77b4; stroke: #1f77b4"/>
     <use xlink:href="#m6a2b6285bb" x="74.985189" y="197.237233" style="fill: #1f77b4; stroke: #1f77b4"/>
     <use xlink:href="#m6a2b6285bb" x="76.616619" y="198.026802" style="fill: #1f77b4; stroke: #1f77b4"/>
     <use xlink:href="#m6a2b6285bb" x="78.248049" y="199.039205" style="fill: #1f77b4; stroke: #1f77b4"/>
     <use xlink:href="#m6a2b6285bb" x="79.879479" y="199.969751" style="fill: #1f77b4; stroke: #1f77b4"/>
     <use xlink:href="#m6a2b6285bb" x="81.510909" y="199.709399" style="fill: #1f77b4; stroke: #1f77b4"/>
     <use xlink:href="#m6a2b6285bb" x="83.142339" y="200.855101" style="fill: #1f77b4; stroke: #1f77b4"/>
     <use xlink:href="#m6a2b6285bb" x="84.773768" y="200.918427" style="fill: #1f77b4; stroke: #1f77b4"/>
     <use xlink:href="#m6a2b6285bb" x="86.405198" y="201.787983" style="fill: #1f77b4; stroke: #1f77b4"/>
     <use xlink:href="#m6a2b6285bb" x="88.036628" y="202.47934" style="fill: #1f77b4; stroke: #1f77b4"/>
     <use xlink:href="#m6a2b6285bb" x="89.668058" y="202.910049" style="fill: #1f77b4; stroke: #1f77b4"/>
     <use xlink:href="#m6a2b6285bb" x="91.299488" y="204.36869" style="fill: #1f77b4; stroke: #1f77b4"/>
     <use xlink:href="#m6a2b6285bb" x="92.930918" y="203.832244" style="fill: #1f77b4; stroke: #1f77b4"/>
     <use xlink:href="#m6a2b6285bb" x="94.562348" y="203.889247" style="fill: #1f77b4; stroke: #1f77b4"/>
     <use xlink:href="#m6a2b6285bb" x="96.193778" y="204.95334" style="fill: #1f77b4; stroke: #1f77b4"/>
     <use xlink:href="#m6a2b6285bb" x="97.825207" y="205.329264" style="fill: #1f77b4; stroke: #1f77b4"/>
     <use xlink:href="#m6a2b6285bb" x="99.456637" y="206.310131" style="fill: #1f77b4; stroke: #1f77b4"/>
     <use xlink:href="#m6a2b6285bb" x="101.088067" y="207.083817" style="fill: #1f77b4; stroke: #1f77b4"/>
     <use xlink:href="#m6a2b6285bb" x="102.719497" y="207.244676" style="fill: #1f77b4; stroke: #1f77b4"/>
     <use xlink:href="#m6a2b6285bb" x="104.350927" y="207.154242" style="fill: #1f77b4; stroke: #1f77b4"/>
     <use xlink:href="#m6a2b6285bb" x="105.982357" y="208.373798" style="fill: #1f77b4; stroke: #1f77b4"/>
     <use xlink:href="#m6a2b6285bb" x="107.613787" y="208.239645" style="fill: #1f77b4; stroke: #1f77b4"/>
     <use xlink:href="#m6a2b6285bb" x="109.245217" y="208.431399" style="fill: #1f77b4; stroke: #1f77b4"/>
     <use xlink:href="#m6a2b6285bb" x="110.876646" y="209.142145" style="fill: #1f77b4; stroke: #1f77b4"/>
     <use xlink:href="#m6a2b6285bb" x="112.508076" y="210.965235" style="fill: #1f77b4; stroke: #1f77b4"/>
     <use xlink:href="#m6a2b6285bb" x="114.139506" y="211.173212" style="fill: #1f77b4; stroke: #1f77b4"/>
     <use xlink:href="#m6a2b6285bb" x="115.770936" y="211.032688" style="fill: #1f77b4; stroke: #1f77b4"/>
     <use xlink:href="#m6a2b6285bb" x="117.402366" y="211.006827" style="fill: #1f77b4; stroke: #1f77b4"/>
     <use xlink:href="#m6a2b6285bb" x="119.033796" y="211.646731" style="fill: #1f77b4; stroke: #1f77b4"/>
     <use xlink:href="#m6a2b6285bb" x="120.665226" y="212.908303" style="fill: #1f77b4; stroke: #1f77b4"/>
     <use xlink:href="#m6a2b6285bb" x="122.296656" y="212.926972" style="fill: #1f77b4; stroke: #1f77b4"/>
     <use xlink:href="#m6a2b6285bb" x="123.928085" y="213.986597" style="fill: #1f77b4; stroke: #1f77b4"/>
     <use xlink:href="#m6a2b6285bb" x="125.559515" y="214.40224" style="fill: #1f77b4; stroke: #1f77b4"/>
     <use xlink:href="#m6a2b6285bb" x="127.190945" y="214.873832" style="fill: #1f77b4; stroke: #1f77b4"/>
     <use xlink:href="#m6a2b6285bb" x="128.822375" y="215.642502" style="fill: #1f77b4; stroke: #1f77b4"/>
     <use xlink:href="#m6a2b6285bb" x="130.453805" y="216.530495" style="fill: #1f77b4; stroke: #1f77b4"/>
     <use xlink:href="#m6a2b6285bb" x="132.085235" y="215.921003" style="fill: #1f77b4; stroke: #1f77b4"/>
     <use xlink:href="#m6a2b6285bb" x="133.716665" y="217.362453" style="fill: #1f77b4; stroke: #1f77b4"/>
     <use xlink:href="#m6a2b6285bb" x="135.348095" y="216.854564" style="fill: #1f77b4; stroke: #1f77b4"/>
     <use xlink:href="#m6a2b6285bb" x="136.979524" y="217.144324" style="fill: #1f77b4; stroke: #1f77b4"/>
     <use xlink:href="#m6a2b6285bb" x="138.610954" y="217.394275" style="fill: #1f77b4; stroke: #1f77b4"/>
     <use xlink:href="#m6a2b6285bb" x="140.242384" y="218.563934" style="fill: #1f77b4; stroke: #1f77b4"/>
     <use xlink:href="#m6a2b6285bb" x="141.873814" y="218.952947" style="fill: #1f77b4; stroke: #1f77b4"/>
     <use xlink:href="#m6a2b6285bb" x="143.505244" y="219.399006" style="fill: #1f77b4; stroke: #1f77b4"/>
     <use xlink:href="#m6a2b6285bb" x="145.136674" y="220.460262" style="fill: #1f77b4; stroke: #1f77b4"/>
     <use xlink:href="#m6a2b6285bb" x="146.768104" y="220.975733" style="fill: #1f77b4; stroke: #1f77b4"/>
     <use xlink:href="#m6a2b6285bb" x="148.399534" y="220.865765" style="fill: #1f77b4; stroke: #1f77b4"/>
     <use xlink:href="#m6a2b6285bb" x="150.030963" y="221.125343" style="fill: #1f77b4; stroke: #1f77b4"/>
     <use xlink:href="#m6a2b6285bb" x="151.662393" y="222.216101" style="fill: #1f77b4; stroke: #1f77b4"/>
     <use xlink:href="#m6a2b6285bb" x="153.293823" y="222.769978" style="fill: #1f77b4; stroke: #1f77b4"/>
     <use xlink:href="#m6a2b6285bb" x="154.925253" y="223.050129" style="fill: #1f77b4; stroke: #1f77b4"/>
     <use xlink:href="#m6a2b6285bb" x="156.556683" y="223.890002" style="fill: #1f77b4; stroke: #1f77b4"/>
     <use xlink:href="#m6a2b6285bb" x="158.188113" y="224.353553" style="fill: #1f77b4; stroke: #1f77b4"/>
     <use xlink:href="#m6a2b6285bb" x="159.819543" y="224.479174" style="fill: #1f77b4; stroke: #1f77b4"/>
     <use xlink:href="#m6a2b6285bb" x="161.450973" y="225.104927" style="fill: #1f77b4; stroke: #1f77b4"/>
     <use xlink:href="#m6a2b6285bb" x="163.082402" y="226.036319" style="fill: #1f77b4; stroke: #1f77b4"/>
     <use xlink:href="#m6a2b6285bb" x="164.713832" y="226.525827" style="fill: #1f77b4; stroke: #1f77b4"/>
     <use xlink:href="#m6a2b6285bb" x="166.345262" y="226.123173" style="fill: #1f77b4; stroke: #1f77b4"/>
     <use xlink:href="#m6a2b6285bb" x="167.976692" y="227.313739" style="fill: #1f77b4; stroke: #1f77b4"/>
     <use xlink:href="#m6a2b6285bb" x="169.608122" y="228.036684" style="fill: #1f77b4; stroke: #1f77b4"/>
     <use xlink:href="#m6a2b6285bb" x="171.239552" y="227.963281" style="fill: #1f77b4; stroke: #1f77b4"/>
     <use xlink:href="#m6a2b6285bb" x="172.870982" y="228.547036" style="fill: #1f77b4; stroke: #1f77b4"/>
     <use xlink:href="#m6a2b6285bb" x="174.502412" y="228.801556" style="fill: #1f77b4; stroke: #1f77b4"/>
     <use xlink:href="#m6a2b6285bb" x="176.133842" y="229.468022" style="fill: #1f77b4; stroke: #1f77b4"/>
     <use xlink:href="#m6a2b6285bb" x="177.765271" y="230.290903" style="fill: #1f77b4; stroke: #1f77b4"/>
     <use xlink:href="#m6a2b6285bb" x="179.396701" y="230.984676" style="fill: #1f77b4; stroke: #1f77b4"/>
     <use xlink:href="#m6a2b6285bb" x="181.028131" y="231.819193" style="fill: #1f77b4; stroke: #1f77b4"/>
     <use xlink:href="#m6a2b6285bb" x="182.659561" y="231.313126" style="fill: #1f77b4; stroke: #1f77b4"/>
     <use xlink:href="#m6a2b6285bb" x="184.290991" y="232.474085" style="fill: #1f77b4; stroke: #1f77b4"/>
     <use xlink:href="#m6a2b6285bb" x="185.922421" y="233.269501" style="fill: #1f77b4; stroke: #1f77b4"/>
     <use xlink:href="#m6a2b6285bb" x="187.553851" y="232.68107" style="fill: #1f77b4; stroke: #1f77b4"/>
     <use xlink:href="#m6a2b6285bb" x="189.185281" y="233.690505" style="fill: #1f77b4; stroke: #1f77b4"/>
     <use xlink:href="#m6a2b6285bb" x="190.81671" y="234.529472" style="fill: #1f77b4; stroke: #1f77b4"/>
     <use xlink:href="#m6a2b6285bb" x="192.44814" y="234.734598" style="fill: #1f77b4; stroke: #1f77b4"/>
     <use xlink:href="#m6a2b6285bb" x="194.07957" y="235.729805" style="fill: #1f77b4; stroke: #1f77b4"/>
     <use xlink:href="#m6a2b6285bb" x="195.711" y="235.794975" style="fill: #1f77b4; stroke: #1f77b4"/>
     <use xlink:href="#m6a2b6285bb" x="197.34243" y="236.512211" style="fill: #1f77b4; stroke: #1f77b4"/>
     <use xlink:href="#m6a2b6285bb" x="198.97386" y="236.122516" style="fill: #1f77b4; stroke: #1f77b4"/>
     <use xlink:href="#m6a2b6285bb" x="200.60529" y="236.905061" style="fill: #1f77b4; stroke: #1f77b4"/>
     <use xlink:href="#m6a2b6285bb" x="202.23672" y="237.165104" style="fill: #1f77b4; stroke: #1f77b4"/>
     <use xlink:href="#m6a2b6285bb" x="203.868149" y="238.60516" style="fill: #1f77b4; stroke: #1f77b4"/>
     <use xlink:href="#m6a2b6285bb" x="205.499579" y="239.097325" style="fill: #1f77b4; stroke: #1f77b4"/>
     <use xlink:href="#m6a2b6285bb" x="207.131009" y="239.322548" style="fill: #1f77b4; stroke: #1f77b4"/>
     <use xlink:href="#m6a2b6285bb" x="208.762439" y="240.12678" style="fill: #1f77b4; stroke: #1f77b4"/>
     <use xlink:href="#m6a2b6285bb" x="210.393869" y="240.716433" style="fill: #1f77b4; stroke: #1f77b4"/>
     <use xlink:href="#m6a2b6285bb" x="212.025299" y="241.295792" style="fill: #1f77b4; stroke: #1f77b4"/>
     <use xlink:href="#m6a2b6285bb" x="213.656729" y="241.533328" style="fill: #1f77b4; stroke: #1f77b4"/>
     <use xlink:href="#m6a2b6285bb" x="215.288159" y="242.413826" style="fill: #1f77b4; stroke: #1f77b4"/>
     <use xlink:href="#m6a2b6285bb" x="216.919588" y="241.97199" style="fill: #1f77b4; stroke: #1f77b4"/>
     <use xlink:href="#m6a2b6285bb" x="218.551018" y="243.615814" style="fill: #1f77b4; stroke: #1f77b4"/>
     <use xlink:href="#m6a2b6285bb" x="220.182448" y="243.517861" style="fill: #1f77b4; stroke: #1f77b4"/>
     <use xlink:href="#m6a2b6285bb" x="221.813878" y="244.376635" style="fill: #1f77b4; stroke: #1f77b4"/>
     <use xlink:href="#m6a2b6285bb" x="223.445308" y="245.074666" style="fill: #1f77b4; stroke: #1f77b4"/>
     <use xlink:href="#m6a2b6285bb" x="225.076738" y="245.577794" style="fill: #1f77b4; stroke: #1f77b4"/>
     <use xlink:href="#m6a2b6285bb" x="226.708168" y="246.004989" style="fill: #1f77b4; stroke: #1f77b4"/>
     <use xlink:href="#m6a2b6285bb" x="228.339598" y="246.426831" style="fill: #1f77b4; stroke: #1f77b4"/>
     <use xlink:href="#m6a2b6285bb" x="229.971027" y="247.396397" style="fill: #1f77b4; stroke: #1f77b4"/>
     <use xlink:href="#m6a2b6285bb" x="231.602457" y="247.607994" style="fill: #1f77b4; stroke: #1f77b4"/>
     <use xlink:href="#m6a2b6285bb" x="233.233887" y="247.657781" style="fill: #1f77b4; stroke: #1f77b4"/>
     <use xlink:href="#m6a2b6285bb" x="234.865317" y="249.025352" style="fill: #1f77b4; stroke: #1f77b4"/>
     <use xlink:href="#m6a2b6285bb" x="236.496747" y="249.182166" style="fill: #1f77b4; stroke: #1f77b4"/>
     <use xlink:href="#m6a2b6285bb" x="238.128177" y="249.711888" style="fill: #1f77b4; stroke: #1f77b4"/>
     <use xlink:href="#m6a2b6285bb" x="239.759607" y="250.120393" style="fill: #1f77b4; stroke: #1f77b4"/>
     <use xlink:href="#m6a2b6285bb" x="241.391037" y="250.860405" style="fill: #1f77b4; stroke: #1f77b4"/>
     <use xlink:href="#m6a2b6285bb" x="243.022466" y="250.634257" style="fill: #1f77b4; stroke: #1f77b4"/>
     <use xlink:href="#m6a2b6285bb" x="244.653896" y="252.736687" style="fill: #1f77b4; stroke: #1f77b4"/>
     <use xlink:href="#m6a2b6285bb" x="246.285326" y="252.179564" style="fill: #1f77b4; stroke: #1f77b4"/>
     <use xlink:href="#m6a2b6285bb" x="247.916756" y="253.381217" style="fill: #1f77b4; stroke: #1f77b4"/>
     <use xlink:href="#m6a2b6285bb" x="249.548186" y="253.654831" style="fill: #1f77b4; stroke: #1f77b4"/>
     <use xlink:href="#m6a2b6285bb" x="251.179616" y="254.333178" style="fill: #1f77b4; stroke: #1f77b4"/>
     <use xlink:href="#m6a2b6285bb" x="252.811046" y="255.364049" style="fill: #1f77b4; stroke: #1f77b4"/>
     <use xlink:href="#m6a2b6285bb" x="254.442476" y="254.447516" style="fill: #1f77b4; stroke: #1f77b4"/>
     <use xlink:href="#m6a2b6285bb" x="256.073905" y="255.75999" style="fill: #1f77b4; stroke: #1f77b4"/>
     <use xlink:href="#m6a2b6285bb" x="257.705335" y="256.820061" style="fill: #1f77b4; stroke: #1f77b4"/>
     <use xlink:href="#m6a2b6285bb" x="259.336765" y="257.054838" style="fill: #1f77b4; stroke: #1f77b4"/>
     <use xlink:href="#m6a2b6285bb" x="260.968195" y="257.641934" style="fill: #1f77b4; stroke: #1f77b4"/>
     <use xlink:href="#m6a2b6285bb" x="262.599625" y="258.278804" style="fill: #1f77b4; stroke: #1f77b4"/>
     <use xlink:href="#m6a2b6285bb" x="264.231055" y="258.474223" style="fill: #1f77b4; stroke: #1f77b4"/>
     <use xlink:href="#m6a2b6285bb" x="265.862485" y="259.266244" style="fill: #1f77b4; stroke: #1f77b4"/>
     <use xlink:href="#m6a2b6285bb" x="267.493915" y="259.937448" style="fill: #1f77b4; stroke: #1f77b4"/>
     <use xlink:href="#m6a2b6285bb" x="269.125344" y="259.982166" style="fill: #1f77b4; stroke: #1f77b4"/>
     <use xlink:href="#m6a2b6285bb" x="270.756774" y="260.742583" style="fill: #1f77b4; stroke: #1f77b4"/>
     <use xlink:href="#m6a2b6285bb" x="272.388204" y="260.660276" style="fill: #1f77b4; stroke: #1f77b4"/>
     <use xlink:href="#m6a2b6285bb" x="274.019634" y="262.046759" style="fill: #1f77b4; stroke: #1f77b4"/>
     <use xlink:href="#m6a2b6285bb" x="275.651064" y="262.360234" style="fill: #1f77b4; stroke: #1f77b4"/>
     <use xlink:href="#m6a2b6285bb" x="277.282494" y="263.378174" style="fill: #1f77b4; stroke: #1f77b4"/>
     <use xlink:href="#m6a2b6285bb" x="278.913924" y="263.501257" style="fill: #1f77b4; stroke: #1f77b4"/>
     <use xlink:href="#m6a2b6285bb" x="280.545354" y="264.07731" style="fill: #1f77b4; stroke: #1f77b4"/>
     <use xlink:href="#m6a2b6285bb" x="282.176783" y="264.80153" style="fill: #1f77b4; stroke: #1f77b4"/>
     <use xlink:href="#m6a2b6285bb" x="283.808213" y="265.511202" style="fill: #1f77b4; stroke: #1f77b4"/>
     <use xlink:href="#m6a2b6285bb" x="285.439643" y="265.682483" style="fill: #1f77b4; stroke: #1f77b4"/>
     <use xlink:href="#m6a2b6285bb" x="287.071073" y="266.181145" style="fill: #1f77b4; stroke: #1f77b4"/>
     <use xlink:href="#m6a2b6285bb" x="288.702503" y="266.7423" style="fill: #1f77b4; stroke: #1f77b4"/>
     <use xlink:href="#m6a2b6285bb" x="290.333933" y="267.376645" style="fill: #1f77b4; stroke: #1f77b4"/>
     <use xlink:href="#m6a2b6285bb" x="291.965363" y="268.123076" style="fill: #1f77b4; stroke: #1f77b4"/>
     <use xlink:href="#m6a2b6285bb" x="293.596793" y="268.303249" style="fill: #1f77b4; stroke: #1f77b4"/>
     <use xlink:href="#m6a2b6285bb" x="295.228223" y="269.252306" style="fill: #1f77b4; stroke: #1f77b4"/>
     <use xlink:href="#m6a2b6285bb" x="296.859652" y="269.97896" style="fill: #1f77b4; stroke: #1f77b4"/>
     <use xlink:href="#m6a2b6285bb" x="298.491082" y="270.604056" style="fill: #1f77b4; stroke: #1f77b4"/>
     <use xlink:href="#m6a2b6285bb" x="300.122512" y="270.357506" style="fill: #1f77b4; stroke: #1f77b4"/>
     <use xlink:href="#m6a2b6285bb" x="301.753942" y="271.180542" style="fill: #1f77b4; stroke: #1f77b4"/>
     <use xlink:href="#m6a2b6285bb" x="303.385372" y="272.109573" style="fill: #1f77b4; stroke: #1f77b4"/>
     <use xlink:href="#m6a2b6285bb" x="305.016802" y="272.40804" style="fill: #1f77b4; stroke: #1f77b4"/>
     <use xlink:href="#m6a2b6285bb" x="306.648232" y="272.923699" style="fill: #1f77b4; stroke: #1f77b4"/>
     <use xlink:href="#m6a2b6285bb" x="308.279662" y="273.173129" style="fill: #1f77b4; stroke: #1f77b4"/>
     <use xlink:href="#m6a2b6285bb" x="309.911091" y="274.097603" style="fill: #1f77b4; stroke: #1f77b4"/>
     <use xlink:href="#m6a2b6285bb" x="311.542521" y="274.617177" style="fill: #1f77b4; stroke: #1f77b4"/>
     <use xlink:href="#m6a2b6285bb" x="313.173951" y="274.553029" style="fill: #1f77b4; stroke: #1f77b4"/>
     <use xlink:href="#m6a2b6285bb" x="314.805381" y="275.187942" style="fill: #1f77b4; stroke: #1f77b4"/>
     <use xlink:href="#m6a2b6285bb" x="316.436811" y="276.114726" style="fill: #1f77b4; stroke: #1f77b4"/>
     <use xlink:href="#m6a2b6285bb" x="318.068241" y="276.321486" style="fill: #1f77b4; stroke: #1f77b4"/>
     <use xlink:href="#m6a2b6285bb" x="319.699671" y="276.395557" style="fill: #1f77b4; stroke: #1f77b4"/>
     <use xlink:href="#m6a2b6285bb" x="321.331101" y="277.678351" style="fill: #1f77b4; stroke: #1f77b4"/>
     <use xlink:href="#m6a2b6285bb" x="322.96253" y="278.281933" style="fill: #1f77b4; stroke: #1f77b4"/>
     <use xlink:href="#m6a2b6285bb" x="324.59396" y="278.629023" style="fill: #1f77b4; stroke: #1f77b4"/>
     <use xlink:href="#m6a2b6285bb" x="326.22539" y="278.896349" style="fill: #1f77b4; stroke: #1f77b4"/>
     <use xlink:href="#m6a2b6285bb" x="327.85682" y="279.972079" style="fill: #1f77b4; stroke: #1f77b4"/>
     <use xlink:href="#m6a2b6285bb" x="329.48825" y="279.412847" style="fill: #1f77b4; stroke: #1f77b4"/>
     <use xlink:href="#m6a2b6285bb" x="331.11968" y="281.371329" style="fill: #1f77b4; stroke: #1f77b4"/>
     <use xlink:href="#m6a2b6285bb" x="332.75111" y="281.360856" style="fill: #1f77b4; stroke: #1f77b4"/>
     <use xlink:href="#m6a2b6285bb" x="334.38254" y="281.843102" style="fill: #1f77b4; stroke: #1f77b4"/>
     <use xlink:href="#m6a2b6285bb" x="336.013969" y="282.921311" style="fill: #1f77b4; stroke: #1f77b4"/>
     <use xlink:href="#m6a2b6285bb" x="337.645399" y="283.529688" style="fill: #1f77b4; stroke: #1f77b4"/>
     <use xlink:href="#m6a2b6285bb" x="339.276829" y="284.030589" style="fill: #1f77b4; stroke: #1f77b4"/>
     <use xlink:href="#m6a2b6285bb" x="340.908259" y="284.692207" style="fill: #1f77b4; stroke: #1f77b4"/>
     <use xlink:href="#m6a2b6285bb" x="342.539689" y="284.828471" style="fill: #1f77b4; stroke: #1f77b4"/>
     <use xlink:href="#m6a2b6285bb" x="344.171119" y="285.958112" style="fill: #1f77b4; stroke: #1f77b4"/>
     <use xlink:href="#m6a2b6285bb" x="345.802549" y="285.974445" style="fill: #1f77b4; stroke: #1f77b4"/>
     <use xlink:href="#m6a2b6285bb" x="347.433979" y="286.375535" style="fill: #1f77b4; stroke: #1f77b4"/>
     <use xlink:href="#m6a2b6285bb" x="349.065408" y="287.61991" style="fill: #1f77b4; stroke: #1f77b4"/>
     <use xlink:href="#m6a2b6285bb" x="350.696838" y="287.658148" style="fill: #1f77b4; stroke: #1f77b4"/>
     <use xlink:href="#m6a2b6285bb" x="352.328268" y="288.248104" style="fill: #1f77b4; stroke: #1f77b4"/>
     <use xlink:href="#m6a2b6285bb" x="353.959698" y="288.760773" style="fill: #1f77b4; stroke: #1f77b4"/>
     <use xlink:href="#m6a2b6285bb" x="355.591128" y="288.809193" style="fill: #1f77b4; stroke: #1f77b4"/>
     <use xlink:href="#m6a2b6285bb" x="357.222558" y="289.63489" style="fill: #1f77b4; stroke: #1f77b4"/>
     <use xlink:href="#m6a2b6285bb" x="358.853988" y="290.218112" style="fill: #1f77b4; stroke: #1f77b4"/>
     <use xlink:href="#m6a2b6285bb" x="360.485418" y="290.839967" style="fill: #1f77b4; stroke: #1f77b4"/>
     <use xlink:href="#m6a2b6285bb" x="362.116847" y="291.588998" style="fill: #1f77b4; stroke: #1f77b4"/>
     <use xlink:href="#m6a2b6285bb" x="363.748277" y="291.886772" style="fill: #1f77b4; stroke: #1f77b4"/>
     <use xlink:href="#m6a2b6285bb" x="365.379707" y="292.004763" style="fill: #1f77b4; stroke: #1f77b4"/>
     <use xlink:href="#m6a2b6285bb" x="367.011137" y="293.265116" style="fill: #1f77b4; stroke: #1f77b4"/>
     <use xlink:href="#m6a2b6285bb" x="368.642567" y="292.976949" style="fill: #1f77b4; stroke: #1f77b4"/>
     <use xlink:href="#m6a2b6285bb" x="370.273997" y="294.167649" style="fill: #1f77b4; stroke: #1f77b4"/>
     <use xlink:href="#m6a2b6285bb" x="371.905427" y="294.060324" style="fill: #1f77b4; stroke: #1f77b4"/>
     <use xlink:href="#m6a2b6285bb" x="373.536857" y="295.442829" style="fill: #1f77b4; stroke: #1f77b4"/>
     <use xlink:href="#m6a2b6285bb" x="375.168286" y="295.695827" style="fill: #1f77b4; stroke: #1f77b4"/>
     <use xlink:href="#m6a2b6285bb" x="376.799716" y="296.049068" style="fill: #1f77b4; stroke: #1f77b4"/>
     <use xlink:href="#m6a2b6285bb" x="378.431146" y="297.05399" style="fill: #1f77b4; stroke: #1f77b4"/>
     <use xlink:href="#m6a2b6285bb" x="380.062576" y="297.660647" style="fill: #1f77b4; stroke: #1f77b4"/>
     <use xlink:href="#m6a2b6285bb" x="381.694006" y="297.851734" style="fill: #1f77b4; stroke: #1f77b4"/>
     <use xlink:href="#m6a2b6285bb" x="383.325436" y="298.518145" style="fill: #1f77b4; stroke: #1f77b4"/>
     <use xlink:href="#m6a2b6285bb" x="384.956866" y="299.026248" style="fill: #1f77b4; stroke: #1f77b4"/>
     <use xlink:href="#m6a2b6285bb" x="386.588296" y="299.48215" style="fill: #1f77b4; stroke: #1f77b4"/>
     <use xlink:href="#m6a2b6285bb" x="388.219725" y="300.205766" style="fill: #1f77b4; stroke: #1f77b4"/>
     <use xlink:href="#m6a2b6285bb" x="389.851155" y="300.654681" style="fill: #1f77b4; stroke: #1f77b4"/>
     <use xlink:href="#m6a2b6285bb" x="391.482585" y="301.520744" style="fill: #1f77b4; stroke: #1f77b4"/>
    </g>
   </g>
   <g id="line2d_28">
    <path d="M 66.82804 192.410182 
L 391.482585 302.373818 
L 391.482585 302.373818 
" clip-path="url(#p75d46df2c2)" style="fill: none; stroke: #d62728; stroke-width: 1.5; stroke-linecap: square"/>
   </g>
   <g id="patch_9">
    <path d="M 50.595313 307.872 
L 50.595313 186.912 
" style="fill: none; stroke: #000000; stroke-width: 0.8; stroke-linejoin: miter; stroke-linecap: square"/>
   </g>
   <g id="patch_10">
    <path d="M 407.715312 307.872 
L 407.715312 186.912 
" style="fill: none; stroke: #000000; stroke-width: 0.8; stroke-linejoin: miter; stroke-linecap: square"/>
   </g>
   <g id="patch_11">
    <path d="M 50.595313 307.872 
L 407.715313 307.872 
" style="fill: none; stroke: #000000; stroke-width: 0.8; stroke-linejoin: miter; stroke-linecap: square"/>
   </g>
   <g id="patch_12">
    <path d="M 50.595313 186.912 
L 407.715313 186.912 
" style="fill: none; stroke: #000000; stroke-width: 0.8; stroke-linejoin: miter; stroke-linecap: square"/>
   </g>
  </g>
  <g id="text_23">
   <!-- S21 One-tone -->
   <g transform="translate(182.144375 16.318125) scale(0.12 -0.12)">
    <defs>
     <path id="DejaVuSans-4f" d="M 2522 4238 
Q 1834 4238 1429 3725 
Q 1025 3213 1025 2328 
Q 1025 1447 1429 934 
Q 1834 422 2522 422 
Q 3209 422 3611 934 
Q 4013 1447 4013 2328 
Q 4013 3213 3611 3725 
Q 3209 4238 2522 4238 
z
M 2522 4750 
Q 3503 4750 4090 4092 
Q 4678 3434 4678 2328 
Q 4678 1225 4090 567 
Q 3503 -91 2522 -91 
Q 1538 -91 948 565 
Q 359 1222 359 2328 
Q 359 3434 948 4092 
Q 1538 4750 2522 4750 
z
" transform="scale(0.015625)"/>
     <path id="DejaVuSans-74" d="M 1172 4494 
L 1172 3500 
L 2356 3500 
L 2356 3053 
L 1172 3053 
L 1172 1153 
Q 1172 725 1289 603 
Q 1406 481 1766 481 
L 2356 481 
L 2356 0 
L 1766 0 
Q 1100 0 847 248 
Q 594 497 594 1153 
L 594 3053 
L 172 3053 
L 172 3500 
L 594 3500 
L 594 4494 
L 1172 4494 
z
" transform="scale(0.015625)"/>
     <path id="DejaVuSans-6f" d="M 1959 3097 
Q 1497 3097 1228 2736 
Q 959 2375 959 1747 
Q 959 1119 1226 758 
Q 1494 397 1959 397 
Q 2419 397 2687 759 
Q 2956 1122 2956 1747 
Q 2956 2369 2687 2733 
Q 2419 3097 1959 3097 
z
M 1959 3584 
Q 2709 3584 3137 3096 
Q 3566 2609 3566 1747 
Q 3566 888 3137 398 
Q 2709 -91 1959 -91 
Q 1206 -91 779 398 
Q 353 888 353 1747 
Q 353 2609 779 3096 
Q 1206 3584 1959 3584 
z
" transform="scale(0.015625)"/>
    </defs>
    <use xlink:href="#DejaVuSans-53"/>
    <use xlink:href="#DejaVuSans-32" x="63.476562"/>
    <use xlink:href="#DejaVuSans-31" x="127.099609"/>
    <use xlink:href="#DejaVuSans-20" x="190.722656"/>
    <use xlink:href="#DejaVuSans-4f" x="222.509766"/>
    <use xlink:href="#DejaVuSans-6e" x="301.220703"/>
    <use xlink:href="#DejaVuSans-65" x="364.599609"/>
    <use xlink:href="#DejaVuSans-2d" x="426.123047"/>
    <use xlink:href="#DejaVuSans-74" x="462.207031"/>
    <use xlink:href="#DejaVuSans-6f" x="501.416016"/>
    <use xlink:href="#DejaVuSans-6e" x="562.597656"/>
    <use xlink:href="#DejaVuSans-65" x="625.976562"/>
   </g>
   <!-- tuid: 20240223-163436-538-2ddf55 -->
   <g transform="translate(115.262188 29.7555) scale(0.12 -0.12)">
    <defs>
     <path id="DejaVuSans-69" d="M 603 3500 
L 1178 3500 
L 1178 0 
L 603 0 
L 603 3500 
z
M 603 4863 
L 1178 4863 
L 1178 4134 
L 603 4134 
L 603 4863 
z
" transform="scale(0.015625)"/>
     <path id="DejaVuSans-66" d="M 2375 4863 
L 2375 4384 
L 1825 4384 
Q 1516 4384 1395 4259 
Q 1275 4134 1275 3809 
L 1275 3500 
L 2222 3500 
L 2222 3053 
L 1275 3053 
L 1275 0 
L 697 0 
L 697 3053 
L 147 3053 
L 147 3500 
L 697 3500 
L 697 3744 
Q 697 4328 969 4595 
Q 1241 4863 1831 4863 
L 2375 4863 
z
" transform="scale(0.015625)"/>
    </defs>
    <use xlink:href="#DejaVuSans-74"/>
    <use xlink:href="#DejaVuSans-75" x="39.208984"/>
    <use xlink:href="#DejaVuSans-69" x="102.587891"/>
    <use xlink:href="#DejaVuSans-64" x="130.371094"/>
    <use xlink:href="#DejaVuSans-3a" x="193.847656"/>
    <use xlink:href="#DejaVuSans-20" x="227.539062"/>
    <use xlink:href="#DejaVuSans-32" x="259.326172"/>
    <use xlink:href="#DejaVuSans-30" x="322.949219"/>
    <use xlink:href="#DejaVuSans-32" x="386.572266"/>
    <use xlink:href="#DejaVuSans-34" x="450.195312"/>
    <use xlink:href="#DejaVuSans-30" x="513.818359"/>
    <use xlink:href="#DejaVuSans-32" x="577.441406"/>
    <use xlink:href="#DejaVuSans-32" x="641.064453"/>
    <use xlink:href="#DejaVuSans-33" x="704.6875"/>
    <use xlink:href="#DejaVuSans-2d" x="768.310547"/>
    <use xlink:href="#DejaVuSans-31" x="804.394531"/>
    <use xlink:href="#DejaVuSans-36" x="868.017578"/>
    <use xlink:href="#DejaVuSans-33" x="931.640625"/>
    <use xlink:href="#DejaVuSans-34" x="995.263672"/>
    <use xlink:href="#DejaVuSans-33" x="1058.886719"/>
    <use xlink:href="#DejaVuSans-36" x="1122.509766"/>
    <use xlink:href="#DejaVuSans-2d" x="1186.132812"/>
    <use xlink:href="#DejaVuSans-35" x="1222.216797"/>
    <use xlink:href="#DejaVuSans-33" x="1285.839844"/>
    <use xlink:href="#DejaVuSans-38" x="1349.462891"/>
    <use xlink:href="#DejaVuSans-2d" x="1413.085938"/>
    <use xlink:href="#DejaVuSans-32" x="1449.169922"/>
    <use xlink:href="#DejaVuSans-64" x="1512.792969"/>
    <use xlink:href="#DejaVuSans-64" x="1576.269531"/>
    <use xlink:href="#DejaVuSans-66" x="1639.746094"/>
    <use xlink:href="#DejaVuSans-35" x="1674.951172"/>
    <use xlink:href="#DejaVuSans-35" x="1738.574219"/>
   </g>
  </g>
 </g>
 <defs>
  <clipPath id="p393b4035bc">
   <rect x="50.595313" y="41.76" width="357.12" height="120.96"/>
  </clipPath>
  <clipPath id="p75d46df2c2">
   <rect x="50.595313" y="186.912" width="357.12" height="120.96"/>
  </clipPath>
 </defs>
</svg>
