<?xml version="1.0" encoding="utf-8" standalone="no"?>
<!DOCTYPE svg PUBLIC "-//W3C//DTD SVG 1.1//EN"
  "http://www.w3.org/Graphics/SVG/1.1/DTD/svg11.dtd">
<svg xmlns:xlink="http://www.w3.org/1999/xlink" width="640.6635pt" height="345.42825pt" viewBox="0 0 640.6635 345.42825" xmlns="http://www.w3.org/2000/svg" version="1.1">
 <metadata>
  <rdf:RDF xmlns:dc="http://purl.org/dc/elements/1.1/" xmlns:cc="http://creativecommons.org/ns#" xmlns:rdf="http://www.w3.org/1999/02/22-rdf-syntax-ns#">
   <cc:Work>
    <dc:type rdf:resource="http://purl.org/dc/dcmitype/StillImage"/>
    <dc:date>2024-03-04T16:12:45.900781</dc:date>
    <dc:format>image/svg+xml</dc:format>
    <dc:creator>
     <cc:Agent>
      <dc:title>Matplotlib v3.8.2, https://matplotlib.org/</dc:title>
     </cc:Agent>
    </dc:creator>
   </cc:Work>
  </rdf:RDF>
 </metadata>
 <defs>
  <style type="text/css">*{stroke-linejoin: round; stroke-linecap: butt}</style>
 </defs>
 <g id="figure_1">
  <g id="patch_1">
   <path d="M 0 345.42825 
L 640.6635 345.42825 
L 640.6635 -0 
L 0 -0 
L 0 345.42825 
z
" style="fill: none; opacity: 0"/>
  </g>
  <g id="axes_1">
   <g id="patch_2">
    <path d="M 40.603125 307.872 
L 397.723125 307.872 
L 397.723125 41.76 
L 40.603125 41.76 
z
" style="fill: #ffffff"/>
   </g>
   <g id="matplotlib.axis_1">
    <g id="xtick_1">
     <g id="line2d_1">
      <defs>
       <path id="m90702c69ff" d="M 0 0 
L 0 3.5 
" style="stroke: #000000; stroke-width: 0.8"/>
      </defs>
      <g>
       <use xlink:href="#m90702c69ff" x="68.586155" y="307.872" style="stroke: #000000; stroke-width: 0.8"/>
      </g>
     </g>
     <g id="text_1">
      <!-- 256 -->
      <g transform="translate(59.042405 322.470438) scale(0.1 -0.1)">
       <defs>
        <path id="DejaVuSans-32" d="M 1228 531 
L 3431 531 
L 3431 0 
L 469 0 
L 469 531 
Q 828 903 1448 1529 
Q 2069 2156 2228 2338 
Q 2531 2678 2651 2914 
Q 2772 3150 2772 3378 
Q 2772 3750 2511 3984 
Q 2250 4219 1831 4219 
Q 1534 4219 1204 4116 
Q 875 4013 500 3803 
L 500 4441 
Q 881 4594 1212 4672 
Q 1544 4750 1819 4750 
Q 2544 4750 2975 4387 
Q 3406 4025 3406 3419 
Q 3406 3131 3298 2873 
Q 3191 2616 2906 2266 
Q 2828 2175 2409 1742 
Q 1991 1309 1228 531 
z
" transform="scale(0.015625)"/>
        <path id="DejaVuSans-35" d="M 691 4666 
L 3169 4666 
L 3169 4134 
L 1269 4134 
L 1269 2991 
Q 1406 3038 1543 3061 
Q 1681 3084 1819 3084 
Q 2600 3084 3056 2656 
Q 3513 2228 3513 1497 
Q 3513 744 3044 326 
Q 2575 -91 1722 -91 
Q 1428 -91 1123 -41 
Q 819 9 494 109 
L 494 744 
Q 775 591 1075 516 
Q 1375 441 1709 441 
Q 2250 441 2565 725 
Q 2881 1009 2881 1497 
Q 2881 1984 2565 2268 
Q 2250 2553 1709 2553 
Q 1456 2553 1204 2497 
Q 953 2441 691 2322 
L 691 4666 
z
" transform="scale(0.015625)"/>
        <path id="DejaVuSans-36" d="M 2113 2584 
Q 1688 2584 1439 2293 
Q 1191 2003 1191 1497 
Q 1191 994 1439 701 
Q 1688 409 2113 409 
Q 2538 409 2786 701 
Q 3034 994 3034 1497 
Q 3034 2003 2786 2293 
Q 2538 2584 2113 2584 
z
M 3366 4563 
L 3366 3988 
Q 3128 4100 2886 4159 
Q 2644 4219 2406 4219 
Q 1781 4219 1451 3797 
Q 1122 3375 1075 2522 
Q 1259 2794 1537 2939 
Q 1816 3084 2150 3084 
Q 2853 3084 3261 2657 
Q 3669 2231 3669 1497 
Q 3669 778 3244 343 
Q 2819 -91 2113 -91 
Q 1303 -91 875 529 
Q 447 1150 447 2328 
Q 447 3434 972 4092 
Q 1497 4750 2381 4750 
Q 2619 4750 2861 4703 
Q 3103 4656 3366 4563 
z
" transform="scale(0.015625)"/>
       </defs>
       <use xlink:href="#DejaVuSans-32"/>
       <use xlink:href="#DejaVuSans-35" x="63.623047"/>
       <use xlink:href="#DejaVuSans-36" x="127.246094"/>
      </g>
     </g>
    </g>
    <g id="xtick_2">
     <g id="line2d_2">
      <g>
       <use xlink:href="#m90702c69ff" x="122.695246" y="307.872" style="stroke: #000000; stroke-width: 0.8"/>
      </g>
     </g>
     <g id="text_2">
      <!-- 257 -->
      <g transform="translate(113.151496 322.470438) scale(0.1 -0.1)">
       <defs>
        <path id="DejaVuSans-37" d="M 525 4666 
L 3525 4666 
L 3525 4397 
L 1831 0 
L 1172 0 
L 2766 4134 
L 525 4134 
L 525 4666 
z
" transform="scale(0.015625)"/>
       </defs>
       <use xlink:href="#DejaVuSans-32"/>
       <use xlink:href="#DejaVuSans-35" x="63.623047"/>
       <use xlink:href="#DejaVuSans-37" x="127.246094"/>
      </g>
     </g>
    </g>
    <g id="xtick_3">
     <g id="line2d_3">
      <g>
       <use xlink:href="#m90702c69ff" x="176.804337" y="307.872" style="stroke: #000000; stroke-width: 0.8"/>
      </g>
     </g>
     <g id="text_3">
      <!-- 258 -->
      <g transform="translate(167.260587 322.470438) scale(0.1 -0.1)">
       <defs>
        <path id="DejaVuSans-38" d="M 2034 2216 
Q 1584 2216 1326 1975 
Q 1069 1734 1069 1313 
Q 1069 891 1326 650 
Q 1584 409 2034 409 
Q 2484 409 2743 651 
Q 3003 894 3003 1313 
Q 3003 1734 2745 1975 
Q 2488 2216 2034 2216 
z
M 1403 2484 
Q 997 2584 770 2862 
Q 544 3141 544 3541 
Q 544 4100 942 4425 
Q 1341 4750 2034 4750 
Q 2731 4750 3128 4425 
Q 3525 4100 3525 3541 
Q 3525 3141 3298 2862 
Q 3072 2584 2669 2484 
Q 3125 2378 3379 2068 
Q 3634 1759 3634 1313 
Q 3634 634 3220 271 
Q 2806 -91 2034 -91 
Q 1263 -91 848 271 
Q 434 634 434 1313 
Q 434 1759 690 2068 
Q 947 2378 1403 2484 
z
M 1172 3481 
Q 1172 3119 1398 2916 
Q 1625 2713 2034 2713 
Q 2441 2713 2670 2916 
Q 2900 3119 2900 3481 
Q 2900 3844 2670 4047 
Q 2441 4250 2034 4250 
Q 1625 4250 1398 4047 
Q 1172 3844 1172 3481 
z
" transform="scale(0.015625)"/>
       </defs>
       <use xlink:href="#DejaVuSans-32"/>
       <use xlink:href="#DejaVuSans-35" x="63.623047"/>
       <use xlink:href="#DejaVuSans-38" x="127.246094"/>
      </g>
     </g>
    </g>
    <g id="xtick_4">
     <g id="line2d_4">
      <g>
       <use xlink:href="#m90702c69ff" x="230.913428" y="307.872" style="stroke: #000000; stroke-width: 0.8"/>
      </g>
     </g>
     <g id="text_4">
      <!-- 259 -->
      <g transform="translate(221.369678 322.470438) scale(0.1 -0.1)">
       <defs>
        <path id="DejaVuSans-39" d="M 703 97 
L 703 672 
Q 941 559 1184 500 
Q 1428 441 1663 441 
Q 2288 441 2617 861 
Q 2947 1281 2994 2138 
Q 2813 1869 2534 1725 
Q 2256 1581 1919 1581 
Q 1219 1581 811 2004 
Q 403 2428 403 3163 
Q 403 3881 828 4315 
Q 1253 4750 1959 4750 
Q 2769 4750 3195 4129 
Q 3622 3509 3622 2328 
Q 3622 1225 3098 567 
Q 2575 -91 1691 -91 
Q 1453 -91 1209 -44 
Q 966 3 703 97 
z
M 1959 2075 
Q 2384 2075 2632 2365 
Q 2881 2656 2881 3163 
Q 2881 3666 2632 3958 
Q 2384 4250 1959 4250 
Q 1534 4250 1286 3958 
Q 1038 3666 1038 3163 
Q 1038 2656 1286 2365 
Q 1534 2075 1959 2075 
z
" transform="scale(0.015625)"/>
       </defs>
       <use xlink:href="#DejaVuSans-32"/>
       <use xlink:href="#DejaVuSans-35" x="63.623047"/>
       <use xlink:href="#DejaVuSans-39" x="127.246094"/>
      </g>
     </g>
    </g>
    <g id="xtick_5">
     <g id="line2d_5">
      <g>
       <use xlink:href="#m90702c69ff" x="285.022519" y="307.872" style="stroke: #000000; stroke-width: 0.8"/>
      </g>
     </g>
     <g id="text_5">
      <!-- 260 -->
      <g transform="translate(275.478769 322.470438) scale(0.1 -0.1)">
       <defs>
        <path id="DejaVuSans-30" d="M 2034 4250 
Q 1547 4250 1301 3770 
Q 1056 3291 1056 2328 
Q 1056 1369 1301 889 
Q 1547 409 2034 409 
Q 2525 409 2770 889 
Q 3016 1369 3016 2328 
Q 3016 3291 2770 3770 
Q 2525 4250 2034 4250 
z
M 2034 4750 
Q 2819 4750 3233 4129 
Q 3647 3509 3647 2328 
Q 3647 1150 3233 529 
Q 2819 -91 2034 -91 
Q 1250 -91 836 529 
Q 422 1150 422 2328 
Q 422 3509 836 4129 
Q 1250 4750 2034 4750 
z
" transform="scale(0.015625)"/>
       </defs>
       <use xlink:href="#DejaVuSans-32"/>
       <use xlink:href="#DejaVuSans-36" x="63.623047"/>
       <use xlink:href="#DejaVuSans-30" x="127.246094"/>
      </g>
     </g>
    </g>
    <g id="xtick_6">
     <g id="line2d_6">
      <g>
       <use xlink:href="#m90702c69ff" x="339.13161" y="307.872" style="stroke: #000000; stroke-width: 0.8"/>
      </g>
     </g>
     <g id="text_6">
      <!-- 261 -->
      <g transform="translate(329.58786 322.470438) scale(0.1 -0.1)">
       <defs>
        <path id="DejaVuSans-31" d="M 794 531 
L 1825 531 
L 1825 4091 
L 703 3866 
L 703 4441 
L 1819 4666 
L 2450 4666 
L 2450 531 
L 3481 531 
L 3481 0 
L 794 0 
L 794 531 
z
" transform="scale(0.015625)"/>
       </defs>
       <use xlink:href="#DejaVuSans-32"/>
       <use xlink:href="#DejaVuSans-36" x="63.623047"/>
       <use xlink:href="#DejaVuSans-31" x="127.246094"/>
      </g>
     </g>
    </g>
    <g id="xtick_7">
     <g id="line2d_7">
      <g>
       <use xlink:href="#m90702c69ff" x="393.240701" y="307.872" style="stroke: #000000; stroke-width: 0.8"/>
      </g>
     </g>
     <g id="text_7">
      <!-- 262 -->
      <g transform="translate(383.696951 322.470438) scale(0.1 -0.1)">
       <use xlink:href="#DejaVuSans-32"/>
       <use xlink:href="#DejaVuSans-36" x="63.623047"/>
       <use xlink:href="#DejaVuSans-32" x="127.246094"/>
      </g>
     </g>
    </g>
    <g id="text_8">
     <!-- Frequency [MHz] -->
     <g transform="translate(177.144375 336.148562) scale(0.1 -0.1)">
      <defs>
       <path id="DejaVuSans-46" d="M 628 4666 
L 3309 4666 
L 3309 4134 
L 1259 4134 
L 1259 2759 
L 3109 2759 
L 3109 2228 
L 1259 2228 
L 1259 0 
L 628 0 
L 628 4666 
z
" transform="scale(0.015625)"/>
       <path id="DejaVuSans-72" d="M 2631 2963 
Q 2534 3019 2420 3045 
Q 2306 3072 2169 3072 
Q 1681 3072 1420 2755 
Q 1159 2438 1159 1844 
L 1159 0 
L 581 0 
L 581 3500 
L 1159 3500 
L 1159 2956 
Q 1341 3275 1631 3429 
Q 1922 3584 2338 3584 
Q 2397 3584 2469 3576 
Q 2541 3569 2628 3553 
L 2631 2963 
z
" transform="scale(0.015625)"/>
       <path id="DejaVuSans-65" d="M 3597 1894 
L 3597 1613 
L 953 1613 
Q 991 1019 1311 708 
Q 1631 397 2203 397 
Q 2534 397 2845 478 
Q 3156 559 3463 722 
L 3463 178 
Q 3153 47 2828 -22 
Q 2503 -91 2169 -91 
Q 1331 -91 842 396 
Q 353 884 353 1716 
Q 353 2575 817 3079 
Q 1281 3584 2069 3584 
Q 2775 3584 3186 3129 
Q 3597 2675 3597 1894 
z
M 3022 2063 
Q 3016 2534 2758 2815 
Q 2500 3097 2075 3097 
Q 1594 3097 1305 2825 
Q 1016 2553 972 2059 
L 3022 2063 
z
" transform="scale(0.015625)"/>
       <path id="DejaVuSans-71" d="M 947 1747 
Q 947 1113 1208 752 
Q 1469 391 1925 391 
Q 2381 391 2643 752 
Q 2906 1113 2906 1747 
Q 2906 2381 2643 2742 
Q 2381 3103 1925 3103 
Q 1469 3103 1208 2742 
Q 947 2381 947 1747 
z
M 2906 525 
Q 2725 213 2448 61 
Q 2172 -91 1784 -91 
Q 1150 -91 751 415 
Q 353 922 353 1747 
Q 353 2572 751 3078 
Q 1150 3584 1784 3584 
Q 2172 3584 2448 3432 
Q 2725 3281 2906 2969 
L 2906 3500 
L 3481 3500 
L 3481 -1331 
L 2906 -1331 
L 2906 525 
z
" transform="scale(0.015625)"/>
       <path id="DejaVuSans-75" d="M 544 1381 
L 544 3500 
L 1119 3500 
L 1119 1403 
Q 1119 906 1312 657 
Q 1506 409 1894 409 
Q 2359 409 2629 706 
Q 2900 1003 2900 1516 
L 2900 3500 
L 3475 3500 
L 3475 0 
L 2900 0 
L 2900 538 
Q 2691 219 2414 64 
Q 2138 -91 1772 -91 
Q 1169 -91 856 284 
Q 544 659 544 1381 
z
M 1991 3584 
L 1991 3584 
z
" transform="scale(0.015625)"/>
       <path id="DejaVuSans-6e" d="M 3513 2113 
L 3513 0 
L 2938 0 
L 2938 2094 
Q 2938 2591 2744 2837 
Q 2550 3084 2163 3084 
Q 1697 3084 1428 2787 
Q 1159 2491 1159 1978 
L 1159 0 
L 581 0 
L 581 3500 
L 1159 3500 
L 1159 2956 
Q 1366 3272 1645 3428 
Q 1925 3584 2291 3584 
Q 2894 3584 3203 3211 
Q 3513 2838 3513 2113 
z
" transform="scale(0.015625)"/>
       <path id="DejaVuSans-63" d="M 3122 3366 
L 3122 2828 
Q 2878 2963 2633 3030 
Q 2388 3097 2138 3097 
Q 1578 3097 1268 2742 
Q 959 2388 959 1747 
Q 959 1106 1268 751 
Q 1578 397 2138 397 
Q 2388 397 2633 464 
Q 2878 531 3122 666 
L 3122 134 
Q 2881 22 2623 -34 
Q 2366 -91 2075 -91 
Q 1284 -91 818 406 
Q 353 903 353 1747 
Q 353 2603 823 3093 
Q 1294 3584 2113 3584 
Q 2378 3584 2631 3529 
Q 2884 3475 3122 3366 
z
" transform="scale(0.015625)"/>
       <path id="DejaVuSans-79" d="M 2059 -325 
Q 1816 -950 1584 -1140 
Q 1353 -1331 966 -1331 
L 506 -1331 
L 506 -850 
L 844 -850 
Q 1081 -850 1212 -737 
Q 1344 -625 1503 -206 
L 1606 56 
L 191 3500 
L 800 3500 
L 1894 763 
L 2988 3500 
L 3597 3500 
L 2059 -325 
z
" transform="scale(0.015625)"/>
       <path id="DejaVuSans-20" transform="scale(0.015625)"/>
       <path id="DejaVuSans-5b" d="M 550 4863 
L 1875 4863 
L 1875 4416 
L 1125 4416 
L 1125 -397 
L 1875 -397 
L 1875 -844 
L 550 -844 
L 550 4863 
z
" transform="scale(0.015625)"/>
       <path id="DejaVuSans-4d" d="M 628 4666 
L 1569 4666 
L 2759 1491 
L 3956 4666 
L 4897 4666 
L 4897 0 
L 4281 0 
L 4281 4097 
L 3078 897 
L 2444 897 
L 1241 4097 
L 1241 0 
L 628 0 
L 628 4666 
z
" transform="scale(0.015625)"/>
       <path id="DejaVuSans-48" d="M 628 4666 
L 1259 4666 
L 1259 2753 
L 3553 2753 
L 3553 4666 
L 4184 4666 
L 4184 0 
L 3553 0 
L 3553 2222 
L 1259 2222 
L 1259 0 
L 628 0 
L 628 4666 
z
" transform="scale(0.015625)"/>
       <path id="DejaVuSans-7a" d="M 353 3500 
L 3084 3500 
L 3084 2975 
L 922 459 
L 3084 459 
L 3084 0 
L 275 0 
L 275 525 
L 2438 3041 
L 353 3041 
L 353 3500 
z
" transform="scale(0.015625)"/>
       <path id="DejaVuSans-5d" d="M 1947 4863 
L 1947 -844 
L 622 -844 
L 622 -397 
L 1369 -397 
L 1369 4416 
L 622 4416 
L 622 4863 
L 1947 4863 
z
" transform="scale(0.015625)"/>
      </defs>
      <use xlink:href="#DejaVuSans-46"/>
      <use xlink:href="#DejaVuSans-72" x="50.269531"/>
      <use xlink:href="#DejaVuSans-65" x="89.132812"/>
      <use xlink:href="#DejaVuSans-71" x="150.65625"/>
      <use xlink:href="#DejaVuSans-75" x="214.132812"/>
      <use xlink:href="#DejaVuSans-65" x="277.511719"/>
      <use xlink:href="#DejaVuSans-6e" x="339.035156"/>
      <use xlink:href="#DejaVuSans-63" x="402.414062"/>
      <use xlink:href="#DejaVuSans-79" x="457.394531"/>
      <use xlink:href="#DejaVuSans-20" x="516.574219"/>
      <use xlink:href="#DejaVuSans-5b" x="548.361328"/>
      <use xlink:href="#DejaVuSans-4d" x="587.375"/>
      <use xlink:href="#DejaVuSans-48" x="673.654297"/>
      <use xlink:href="#DejaVuSans-7a" x="748.849609"/>
      <use xlink:href="#DejaVuSans-5d" x="801.339844"/>
     </g>
    </g>
    <g id="text_9">
     <!-- +5 GHz -->
     <g transform="translate(359.285625 335.148562) scale(0.1 -0.1)">
      <defs>
       <path id="DejaVuSans-2b" d="M 2944 4013 
L 2944 2272 
L 4684 2272 
L 4684 1741 
L 2944 1741 
L 2944 0 
L 2419 0 
L 2419 1741 
L 678 1741 
L 678 2272 
L 2419 2272 
L 2419 4013 
L 2944 4013 
z
" transform="scale(0.015625)"/>
       <path id="DejaVuSans-47" d="M 3809 666 
L 3809 1919 
L 2778 1919 
L 2778 2438 
L 4434 2438 
L 4434 434 
Q 4069 175 3628 42 
Q 3188 -91 2688 -91 
Q 1594 -91 976 548 
Q 359 1188 359 2328 
Q 359 3472 976 4111 
Q 1594 4750 2688 4750 
Q 3144 4750 3555 4637 
Q 3966 4525 4313 4306 
L 4313 3634 
Q 3963 3931 3569 4081 
Q 3175 4231 2741 4231 
Q 1884 4231 1454 3753 
Q 1025 3275 1025 2328 
Q 1025 1384 1454 906 
Q 1884 428 2741 428 
Q 3075 428 3337 486 
Q 3600 544 3809 666 
z
" transform="scale(0.015625)"/>
      </defs>
      <use xlink:href="#DejaVuSans-2b"/>
      <use xlink:href="#DejaVuSans-35" x="83.789062"/>
      <use xlink:href="#DejaVuSans-20" x="147.412109"/>
      <use xlink:href="#DejaVuSans-47" x="179.199219"/>
      <use xlink:href="#DejaVuSans-48" x="256.689453"/>
      <use xlink:href="#DejaVuSans-7a" x="331.884766"/>
     </g>
    </g>
   </g>
   <g id="matplotlib.axis_2">
    <g id="ytick_1">
     <g id="line2d_8">
      <defs>
       <path id="m67a9342399" d="M 0 0 
L -3.5 0 
" style="stroke: #000000; stroke-width: 0.8"/>
      </defs>
      <g>
       <use xlink:href="#m67a9342399" x="40.603125" y="262.775262" style="stroke: #000000; stroke-width: 0.8"/>
      </g>
     </g>
     <g id="text_10">
      <!-- 5 -->
      <g transform="translate(27.240625 266.574481) scale(0.1 -0.1)">
       <use xlink:href="#DejaVuSans-35"/>
      </g>
     </g>
    </g>
    <g id="ytick_2">
     <g id="line2d_9">
      <g>
       <use xlink:href="#m67a9342399" x="40.603125" y="213.738818" style="stroke: #000000; stroke-width: 0.8"/>
      </g>
     </g>
     <g id="text_11">
      <!-- 10 -->
      <g transform="translate(20.878125 217.538036) scale(0.1 -0.1)">
       <use xlink:href="#DejaVuSans-31"/>
       <use xlink:href="#DejaVuSans-30" x="63.623047"/>
      </g>
     </g>
    </g>
    <g id="ytick_3">
     <g id="line2d_10">
      <g>
       <use xlink:href="#m67a9342399" x="40.603125" y="164.702373" style="stroke: #000000; stroke-width: 0.8"/>
      </g>
     </g>
     <g id="text_12">
      <!-- 15 -->
      <g transform="translate(20.878125 168.501592) scale(0.1 -0.1)">
       <use xlink:href="#DejaVuSans-31"/>
       <use xlink:href="#DejaVuSans-35" x="63.623047"/>
      </g>
     </g>
    </g>
    <g id="ytick_4">
     <g id="line2d_11">
      <g>
       <use xlink:href="#m67a9342399" x="40.603125" y="115.665929" style="stroke: #000000; stroke-width: 0.8"/>
      </g>
     </g>
     <g id="text_13">
      <!-- 20 -->
      <g transform="translate(20.878125 119.465148) scale(0.1 -0.1)">
       <use xlink:href="#DejaVuSans-32"/>
       <use xlink:href="#DejaVuSans-30" x="63.623047"/>
      </g>
     </g>
    </g>
    <g id="ytick_5">
     <g id="line2d_12">
      <g>
       <use xlink:href="#m67a9342399" x="40.603125" y="66.629485" style="stroke: #000000; stroke-width: 0.8"/>
      </g>
     </g>
     <g id="text_14">
      <!-- 25 -->
      <g transform="translate(20.878125 70.428704) scale(0.1 -0.1)">
       <use xlink:href="#DejaVuSans-32"/>
       <use xlink:href="#DejaVuSans-35" x="63.623047"/>
      </g>
     </g>
    </g>
    <g id="text_15">
     <!-- Magnitude0 [mV] -->
     <g transform="translate(14.798438 218.268344) rotate(-90) scale(0.1 -0.1)">
      <defs>
       <path id="DejaVuSans-61" d="M 2194 1759 
Q 1497 1759 1228 1600 
Q 959 1441 959 1056 
Q 959 750 1161 570 
Q 1363 391 1709 391 
Q 2188 391 2477 730 
Q 2766 1069 2766 1631 
L 2766 1759 
L 2194 1759 
z
M 3341 1997 
L 3341 0 
L 2766 0 
L 2766 531 
Q 2569 213 2275 61 
Q 1981 -91 1556 -91 
Q 1019 -91 701 211 
Q 384 513 384 1019 
Q 384 1609 779 1909 
Q 1175 2209 1959 2209 
L 2766 2209 
L 2766 2266 
Q 2766 2663 2505 2880 
Q 2244 3097 1772 3097 
Q 1472 3097 1187 3025 
Q 903 2953 641 2809 
L 641 3341 
Q 956 3463 1253 3523 
Q 1550 3584 1831 3584 
Q 2591 3584 2966 3190 
Q 3341 2797 3341 1997 
z
" transform="scale(0.015625)"/>
       <path id="DejaVuSans-67" d="M 2906 1791 
Q 2906 2416 2648 2759 
Q 2391 3103 1925 3103 
Q 1463 3103 1205 2759 
Q 947 2416 947 1791 
Q 947 1169 1205 825 
Q 1463 481 1925 481 
Q 2391 481 2648 825 
Q 2906 1169 2906 1791 
z
M 3481 434 
Q 3481 -459 3084 -895 
Q 2688 -1331 1869 -1331 
Q 1566 -1331 1297 -1286 
Q 1028 -1241 775 -1147 
L 775 -588 
Q 1028 -725 1275 -790 
Q 1522 -856 1778 -856 
Q 2344 -856 2625 -561 
Q 2906 -266 2906 331 
L 2906 616 
Q 2728 306 2450 153 
Q 2172 0 1784 0 
Q 1141 0 747 490 
Q 353 981 353 1791 
Q 353 2603 747 3093 
Q 1141 3584 1784 3584 
Q 2172 3584 2450 3431 
Q 2728 3278 2906 2969 
L 2906 3500 
L 3481 3500 
L 3481 434 
z
" transform="scale(0.015625)"/>
       <path id="DejaVuSans-69" d="M 603 3500 
L 1178 3500 
L 1178 0 
L 603 0 
L 603 3500 
z
M 603 4863 
L 1178 4863 
L 1178 4134 
L 603 4134 
L 603 4863 
z
" transform="scale(0.015625)"/>
       <path id="DejaVuSans-74" d="M 1172 4494 
L 1172 3500 
L 2356 3500 
L 2356 3053 
L 1172 3053 
L 1172 1153 
Q 1172 725 1289 603 
Q 1406 481 1766 481 
L 2356 481 
L 2356 0 
L 1766 0 
Q 1100 0 847 248 
Q 594 497 594 1153 
L 594 3053 
L 172 3053 
L 172 3500 
L 594 3500 
L 594 4494 
L 1172 4494 
z
" transform="scale(0.015625)"/>
       <path id="DejaVuSans-64" d="M 2906 2969 
L 2906 4863 
L 3481 4863 
L 3481 0 
L 2906 0 
L 2906 525 
Q 2725 213 2448 61 
Q 2172 -91 1784 -91 
Q 1150 -91 751 415 
Q 353 922 353 1747 
Q 353 2572 751 3078 
Q 1150 3584 1784 3584 
Q 2172 3584 2448 3432 
Q 2725 3281 2906 2969 
z
M 947 1747 
Q 947 1113 1208 752 
Q 1469 391 1925 391 
Q 2381 391 2643 752 
Q 2906 1113 2906 1747 
Q 2906 2381 2643 2742 
Q 2381 3103 1925 3103 
Q 1469 3103 1208 2742 
Q 947 2381 947 1747 
z
" transform="scale(0.015625)"/>
       <path id="DejaVuSans-6d" d="M 3328 2828 
Q 3544 3216 3844 3400 
Q 4144 3584 4550 3584 
Q 5097 3584 5394 3201 
Q 5691 2819 5691 2113 
L 5691 0 
L 5113 0 
L 5113 2094 
Q 5113 2597 4934 2840 
Q 4756 3084 4391 3084 
Q 3944 3084 3684 2787 
Q 3425 2491 3425 1978 
L 3425 0 
L 2847 0 
L 2847 2094 
Q 2847 2600 2669 2842 
Q 2491 3084 2119 3084 
Q 1678 3084 1418 2786 
Q 1159 2488 1159 1978 
L 1159 0 
L 581 0 
L 581 3500 
L 1159 3500 
L 1159 2956 
Q 1356 3278 1631 3431 
Q 1906 3584 2284 3584 
Q 2666 3584 2933 3390 
Q 3200 3197 3328 2828 
z
" transform="scale(0.015625)"/>
       <path id="DejaVuSans-56" d="M 1831 0 
L 50 4666 
L 709 4666 
L 2188 738 
L 3669 4666 
L 4325 4666 
L 2547 0 
L 1831 0 
z
" transform="scale(0.015625)"/>
      </defs>
      <use xlink:href="#DejaVuSans-4d"/>
      <use xlink:href="#DejaVuSans-61" x="86.279297"/>
      <use xlink:href="#DejaVuSans-67" x="147.558594"/>
      <use xlink:href="#DejaVuSans-6e" x="211.035156"/>
      <use xlink:href="#DejaVuSans-69" x="274.414062"/>
      <use xlink:href="#DejaVuSans-74" x="302.197266"/>
      <use xlink:href="#DejaVuSans-75" x="341.40625"/>
      <use xlink:href="#DejaVuSans-64" x="404.785156"/>
      <use xlink:href="#DejaVuSans-65" x="468.261719"/>
      <use xlink:href="#DejaVuSans-30" x="529.785156"/>
      <use xlink:href="#DejaVuSans-20" x="593.408203"/>
      <use xlink:href="#DejaVuSans-5b" x="625.195312"/>
      <use xlink:href="#DejaVuSans-6d" x="664.208984"/>
      <use xlink:href="#DejaVuSans-56" x="761.621094"/>
      <use xlink:href="#DejaVuSans-5d" x="830.029297"/>
     </g>
    </g>
   </g>
   <g id="line2d_13">
    <path d="M 56.835852 274.991548 
L 62.338472 274.949138 
L 67.841091 275.320567 
L 73.343711 275.045243 
L 78.84633 274.861228 
L 84.348949 274.34232 
L 89.851569 276.209535 
L 95.354188 275.009563 
L 100.856808 276.032567 
L 106.359427 275.136741 
L 111.862046 274.90439 
L 117.364666 275.205894 
L 122.867285 275.061218 
L 128.369905 275.6774 
L 133.872524 275.162809 
L 139.375143 274.744753 
L 144.877763 276.928285 
L 150.380382 275.176438 
L 155.883002 275.335623 
L 161.385621 275.652929 
L 166.888241 276.258857 
L 172.39086 276.837326 
L 177.893479 276.819597 
L 183.396099 277.704719 
L 188.898718 277.894019 
L 194.401338 279.399829 
L 199.903957 281.382559 
L 205.406576 284.121846 
L 210.909196 287.527182 
L 216.411815 291.117563 
L 221.914435 295.520166 
L 227.417054 295.776 
L 232.919674 294.613235 
L 238.422293 290.127846 
L 243.924912 287.225863 
L 249.427532 285.326304 
L 254.930151 282.703182 
L 260.432771 281.114479 
L 265.93539 280.789617 
L 271.438009 279.343258 
L 276.940629 278.672292 
L 282.443248 278.372166 
L 287.945868 278.034047 
L 293.448487 278.566033 
L 298.951107 277.150091 
L 304.453726 275.756159 
L 309.956345 276.20343 
L 315.458965 276.561055 
L 320.961584 275.562372 
L 326.464204 276.580351 
L 331.966823 276.672527 
L 337.469442 276.105676 
L 342.972062 277.117417 
L 348.474681 276.649124 
L 353.977301 276.302789 
L 359.47992 275.906644 
L 364.982539 277.021516 
L 370.485159 276.009455 
L 375.987778 275.592031 
L 381.490398 276.36464 
" clip-path="url(#pd6c24afbba)" style="fill: none; stroke: #440154; stroke-width: 1.5; stroke-linecap: square"/>
   </g>
   <g id="line2d_14">
    <path d="M 56.835852 267.814141 
L 62.338472 267.809529 
L 67.841091 268.418498 
L 73.343711 267.715143 
L 78.84633 266.572186 
L 84.348949 267.37986 
L 89.851569 267.446804 
L 95.354188 267.639795 
L 100.856808 268.018512 
L 106.359427 267.577008 
L 111.862046 267.045693 
L 117.364666 267.439096 
L 122.867285 267.030839 
L 128.369905 267.137845 
L 133.872524 268.720853 
L 139.375143 268.139657 
L 144.877763 267.85662 
L 150.380382 268.2282 
L 155.883002 267.881746 
L 161.385621 268.421567 
L 166.888241 267.905142 
L 172.39086 268.329678 
L 177.893479 269.704591 
L 183.396099 269.745523 
L 188.898718 270.747073 
L 194.401338 272.986767 
L 199.903957 274.518109 
L 205.406576 279.569526 
L 210.909196 283.140417 
L 216.411815 287.61794 
L 221.914435 291.605304 
L 227.417054 291.071438 
L 232.919674 288.835556 
L 238.422293 286.358933 
L 243.924912 282.561162 
L 249.427532 278.750354 
L 254.930151 276.171165 
L 260.432771 274.441124 
L 265.93539 273.108445 
L 271.438009 271.878797 
L 276.940629 271.661744 
L 282.443248 270.904028 
L 287.945868 270.913339 
L 293.448487 270.873175 
L 298.951107 270.021321 
L 304.453726 269.048354 
L 309.956345 270.266283 
L 315.458965 269.710581 
L 320.961584 269.514915 
L 326.464204 268.384543 
L 331.966823 269.091762 
L 337.469442 267.935417 
L 342.972062 268.104598 
L 348.474681 268.601735 
L 353.977301 268.389413 
L 359.47992 268.588757 
L 364.982539 268.05028 
L 370.485159 268.815043 
L 375.987778 267.55929 
L 381.490398 269.096133 
" clip-path="url(#pd6c24afbba)" style="fill: none; stroke: #470d60; stroke-width: 1.5; stroke-linecap: square"/>
   </g>
   <g id="line2d_15">
    <path d="M 56.835852 260.075961 
L 62.338472 259.771145 
L 67.841091 259.950966 
L 73.343711 260.006103 
L 78.84633 259.979059 
L 84.348949 259.669809 
L 89.851569 259.808228 
L 95.354188 258.966989 
L 100.856808 259.372268 
L 106.359427 259.628791 
L 111.862046 260.168375 
L 117.364666 260.111889 
L 122.867285 260.335718 
L 128.369905 260.193267 
L 133.872524 259.385373 
L 139.375143 260.090399 
L 144.877763 260.645988 
L 150.380382 260.720941 
L 155.883002 260.059079 
L 161.385621 259.986854 
L 166.888241 261.301577 
L 172.39086 261.398531 
L 177.893479 261.897625 
L 183.396099 263.696291 
L 188.898718 264.14515 
L 194.401338 265.386772 
L 199.903957 268.49923 
L 205.406576 274.399852 
L 210.909196 279.284232 
L 216.411815 284.845629 
L 221.914435 288.305875 
L 227.417054 289.341848 
L 232.919674 285.966353 
L 238.422293 280.495876 
L 243.924912 276.940271 
L 249.427532 272.334703 
L 254.930151 270.652755 
L 260.432771 268.552897 
L 265.93539 267.11962 
L 271.438009 265.603496 
L 276.940629 264.834325 
L 282.443248 263.77666 
L 287.945868 263.155766 
L 293.448487 263.553884 
L 298.951107 262.001034 
L 304.453726 263.18199 
L 309.956345 263.080611 
L 315.458965 261.857264 
L 320.961584 261.609195 
L 326.464204 262.186356 
L 331.966823 261.131071 
L 337.469442 261.72741 
L 342.972062 261.362121 
L 348.474681 261.244653 
L 353.977301 260.837812 
L 359.47992 261.661861 
L 364.982539 261.032582 
L 370.485159 260.959125 
L 375.987778 259.882238 
L 381.490398 260.516192 
" clip-path="url(#pd6c24afbba)" style="fill: none; stroke: #481a6c; stroke-width: 1.5; stroke-linecap: square"/>
   </g>
   <g id="line2d_16">
    <path d="M 56.835852 251.688223 
L 62.338472 252.240624 
L 67.841091 252.331023 
L 73.343711 251.378073 
L 78.84633 252.402498 
L 84.348949 251.963652 
L 89.851569 252.418475 
L 95.354188 252.159187 
L 100.856808 252.373991 
L 106.359427 251.430773 
L 111.862046 252.477019 
L 117.364666 252.535792 
L 122.867285 251.531266 
L 128.369905 252.068166 
L 133.872524 252.018314 
L 139.375143 252.287439 
L 144.877763 252.616803 
L 150.380382 253.183966 
L 155.883002 253.63787 
L 161.385621 253.649254 
L 166.888241 253.844382 
L 172.39086 254.33561 
L 177.893479 254.532779 
L 183.396099 256.646068 
L 188.898718 257.19411 
L 194.401338 258.629484 
L 199.903957 262.986894 
L 205.406576 268.069154 
L 210.909196 273.471146 
L 216.411815 282.14456 
L 221.914435 284.822009 
L 227.417054 285.227068 
L 232.919674 282.715016 
L 238.422293 276.619436 
L 243.924912 272.147958 
L 249.427532 267.360874 
L 254.930151 264.619232 
L 260.432771 262.103635 
L 265.93539 260.068511 
L 271.438009 258.87305 
L 276.940629 257.908565 
L 282.443248 257.014697 
L 287.945868 256.518112 
L 293.448487 255.730563 
L 298.951107 254.674296 
L 304.453726 255.79977 
L 309.956345 255.390052 
L 315.458965 254.919706 
L 320.961584 254.528205 
L 326.464204 254.421405 
L 331.966823 254.604231 
L 337.469442 253.937704 
L 342.972062 254.617218 
L 348.474681 252.824323 
L 353.977301 254.777846 
L 359.47992 253.718976 
L 364.982539 252.992331 
L 370.485159 252.828874 
L 375.987778 253.993768 
L 381.490398 252.449876 
" clip-path="url(#pd6c24afbba)" style="fill: none; stroke: #482576; stroke-width: 1.5; stroke-linecap: square"/>
   </g>
   <g id="line2d_17">
    <path d="M 56.835852 244.355835 
L 62.338472 244.595247 
L 67.841091 244.570508 
L 73.343711 244.686338 
L 78.84633 244.768736 
L 84.348949 243.94579 
L 89.851569 243.940573 
L 95.354188 245.771534 
L 100.856808 245.30784 
L 106.359427 245.386275 
L 111.862046 244.284291 
L 117.364666 245.686024 
L 122.867285 244.23791 
L 128.369905 244.531243 
L 133.872524 245.479271 
L 139.375143 245.207011 
L 144.877763 245.725681 
L 150.380382 244.704966 
L 155.883002 245.887354 
L 161.385621 245.534108 
L 166.888241 245.687232 
L 172.39086 246.854933 
L 177.893479 248.492238 
L 183.396099 249.240243 
L 188.898718 249.817766 
L 194.401338 252.437935 
L 199.903957 256.848982 
L 205.406576 262.280598 
L 210.909196 270.266552 
L 216.411815 278.356232 
L 221.914435 282.316337 
L 227.417054 282.002994 
L 232.919674 277.258824 
L 238.422293 270.690866 
L 243.924912 265.403542 
L 249.427532 261.350878 
L 254.930151 258.19427 
L 260.432771 255.326127 
L 265.93539 254.356623 
L 271.438009 251.94266 
L 276.940629 251.467276 
L 282.443248 250.8048 
L 287.945868 249.875305 
L 293.448487 249.385135 
L 298.951107 249.159053 
L 304.453726 248.540876 
L 309.956345 248.497919 
L 315.458965 248.09084 
L 320.961584 247.457046 
L 326.464204 247.948787 
L 331.966823 246.816578 
L 337.469442 246.985762 
L 342.972062 247.106404 
L 348.474681 246.556946 
L 353.977301 245.861549 
L 359.47992 246.60865 
L 364.982539 245.455804 
L 370.485159 246.465512 
L 375.987778 246.121932 
L 381.490398 246.034523 
" clip-path="url(#pd6c24afbba)" style="fill: none; stroke: #46307e; stroke-width: 1.5; stroke-linecap: square"/>
   </g>
   <g id="line2d_18">
    <path d="M 56.835852 236.136592 
L 62.338472 236.75311 
L 67.841091 236.50542 
L 73.343711 237.369314 
L 78.84633 236.439921 
L 84.348949 237.874196 
L 89.851569 236.598587 
L 95.354188 237.441618 
L 100.856808 236.731152 
L 106.359427 237.264512 
L 111.862046 237.022611 
L 117.364666 236.554205 
L 122.867285 236.73783 
L 128.369905 236.961631 
L 133.872524 237.337501 
L 139.375143 238.125991 
L 144.877763 236.506755 
L 150.380382 237.555359 
L 155.883002 238.229516 
L 161.385621 238.444472 
L 166.888241 238.351093 
L 172.39086 239.519941 
L 177.893479 239.938923 
L 183.396099 242.239073 
L 188.898718 243.288616 
L 194.401338 245.475013 
L 199.903957 251.359956 
L 205.406576 258.739512 
L 210.909196 266.042138 
L 216.411815 273.753286 
L 221.914435 278.764144 
L 227.417054 278.811862 
L 232.919674 271.812897 
L 238.422293 265.528077 
L 243.924912 260.575884 
L 249.427532 255.646468 
L 254.930151 251.200776 
L 260.432771 248.677181 
L 265.93539 247.651962 
L 271.438009 245.9356 
L 276.940629 244.390433 
L 282.443248 244.240482 
L 287.945868 242.963377 
L 293.448487 242.411144 
L 298.951107 241.816126 
L 304.453726 240.658853 
L 309.956345 241.0254 
L 315.458965 240.185815 
L 320.961584 240.032388 
L 326.464204 240.422169 
L 331.966823 239.859455 
L 337.469442 239.313799 
L 342.972062 238.110193 
L 348.474681 238.253028 
L 353.977301 238.798944 
L 359.47992 239.347084 
L 364.982539 238.461385 
L 370.485159 238.921413 
L 375.987778 238.501171 
L 381.490398 238.487277 
" clip-path="url(#pd6c24afbba)" style="fill: none; stroke: #443b84; stroke-width: 1.5; stroke-linecap: square"/>
   </g>
   <g id="line2d_19">
    <path d="M 56.835852 229.456379 
L 62.338472 228.475495 
L 67.841091 228.964903 
L 73.343711 229.55351 
L 78.84633 229.30757 
L 84.348949 229.690057 
L 89.851569 228.38667 
L 95.354188 230.304583 
L 100.856808 229.623182 
L 106.359427 229.526125 
L 111.862046 229.14906 
L 117.364666 229.880166 
L 122.867285 229.777973 
L 128.369905 230.086689 
L 133.872524 230.440528 
L 139.375143 230.78718 
L 144.877763 229.975735 
L 150.380382 230.345282 
L 155.883002 229.956516 
L 161.385621 231.070938 
L 166.888241 230.872055 
L 172.39086 232.092925 
L 177.893479 232.735862 
L 183.396099 234.778927 
L 188.898718 236.327235 
L 194.401338 239.33671 
L 199.903957 245.545317 
L 205.406576 253.107946 
L 210.909196 261.211463 
L 216.411815 269.465464 
L 221.914435 274.931656 
L 227.417054 275.607932 
L 232.919674 268.394152 
L 238.422293 261.011193 
L 243.924912 255.17232 
L 249.427532 249.097961 
L 254.930151 245.282913 
L 260.432771 242.590401 
L 265.93539 239.660548 
L 271.438009 237.786948 
L 276.940629 236.958103 
L 282.443248 237.792894 
L 287.945868 235.394204 
L 293.448487 234.027946 
L 298.951107 234.741572 
L 304.453726 233.586333 
L 309.956345 233.588819 
L 315.458965 233.518099 
L 320.961584 232.966081 
L 326.464204 232.780876 
L 331.966823 231.770099 
L 337.469442 232.057941 
L 342.972062 232.663712 
L 348.474681 231.742208 
L 353.977301 231.592644 
L 359.47992 231.52397 
L 364.982539 231.691856 
L 370.485159 231.151119 
L 375.987778 231.349607 
L 381.490398 230.869895 
" clip-path="url(#pd6c24afbba)" style="fill: none; stroke: #404588; stroke-width: 1.5; stroke-linecap: square"/>
   </g>
   <g id="line2d_20">
    <path d="M 56.835852 221.788767 
L 62.338472 220.896301 
L 67.841091 221.934942 
L 73.343711 221.139474 
L 78.84633 221.983379 
L 84.348949 221.517012 
L 89.851569 221.440862 
L 95.354188 222.512974 
L 100.856808 221.810239 
L 106.359427 221.784205 
L 111.862046 221.200526 
L 117.364666 220.800389 
L 122.867285 222.446845 
L 128.369905 221.799416 
L 133.872524 222.55938 
L 139.375143 222.446876 
L 144.877763 222.403182 
L 150.380382 222.516583 
L 155.883002 222.148659 
L 161.385621 222.970064 
L 166.888241 224.053245 
L 172.39086 225.206945 
L 177.893479 225.740519 
L 183.396099 227.333067 
L 188.898718 229.072943 
L 194.401338 233.869861 
L 199.903957 239.337975 
L 205.406576 246.233117 
L 210.909196 259.614558 
L 216.411815 267.479373 
L 221.914435 272.703779 
L 227.417054 271.623301 
L 232.919674 264.753988 
L 238.422293 256.788653 
L 243.924912 248.033779 
L 249.427532 243.138316 
L 254.930151 239.083741 
L 260.432771 235.056414 
L 265.93539 233.813203 
L 271.438009 231.032922 
L 276.940629 230.644113 
L 282.443248 229.004714 
L 287.945868 228.250522 
L 293.448487 228.21391 
L 298.951107 227.069177 
L 304.453726 227.103238 
L 309.956345 226.857503 
L 315.458965 226.967023 
L 320.961584 225.520435 
L 326.464204 225.04093 
L 331.966823 224.081485 
L 337.469442 224.641236 
L 342.972062 224.511781 
L 348.474681 224.293877 
L 353.977301 224.101447 
L 359.47992 224.15118 
L 364.982539 223.469971 
L 370.485159 223.507841 
L 375.987778 223.947315 
L 381.490398 223.617282 
" clip-path="url(#pd6c24afbba)" style="fill: none; stroke: #3c4f8a; stroke-width: 1.5; stroke-linecap: square"/>
   </g>
   <g id="line2d_21">
    <path d="M 56.835852 214.986628 
L 62.338472 214.412996 
L 67.841091 213.672596 
L 73.343711 213.682951 
L 78.84633 214.506578 
L 84.348949 213.477697 
L 89.851569 214.712161 
L 95.354188 214.58824 
L 100.856808 214.771461 
L 106.359427 214.12883 
L 111.862046 213.772056 
L 117.364666 214.438162 
L 122.867285 214.445625 
L 128.369905 214.882314 
L 133.872524 214.587111 
L 139.375143 214.445379 
L 144.877763 215.095423 
L 150.380382 216.094016 
L 155.883002 216.373426 
L 161.385621 215.504284 
L 166.888241 216.789723 
L 172.39086 217.363671 
L 177.893479 218.927027 
L 183.396099 221.15704 
L 188.898718 223.104487 
L 194.401338 228.182931 
L 199.903957 233.845057 
L 205.406576 243.018545 
L 210.909196 253.498617 
L 216.411815 263.319505 
L 221.914435 269.277768 
L 227.417054 268.211969 
L 232.919674 260.458763 
L 238.422293 250.75931 
L 243.924912 244.787354 
L 249.427532 236.650283 
L 254.930151 233.424478 
L 260.432771 230.373026 
L 265.93539 227.04814 
L 271.438009 225.819211 
L 276.940629 224.530223 
L 282.443248 222.501291 
L 287.945868 221.108889 
L 293.448487 221.378369 
L 298.951107 219.754184 
L 304.453726 218.98821 
L 309.956345 218.405289 
L 315.458965 218.007173 
L 320.961584 218.278181 
L 326.464204 217.778648 
L 331.966823 218.468779 
L 337.469442 217.983697 
L 342.972062 216.304355 
L 348.474681 216.364754 
L 353.977301 216.669041 
L 359.47992 217.110975 
L 364.982539 216.508427 
L 370.485159 215.681459 
L 375.987778 215.760832 
L 381.490398 216.82347 
" clip-path="url(#pd6c24afbba)" style="fill: none; stroke: #38598c; stroke-width: 1.5; stroke-linecap: square"/>
   </g>
   <g id="line2d_22">
    <path d="M 56.835852 206.745811 
L 62.338472 205.208733 
L 67.841091 206.531406 
L 73.343711 205.476464 
L 78.84633 205.779697 
L 84.348949 206.078768 
L 89.851569 207.157078 
L 95.354188 206.22191 
L 100.856808 207.024612 
L 106.359427 206.23972 
L 111.862046 206.60851 
L 117.364666 206.759384 
L 122.867285 207.010164 
L 128.369905 207.248217 
L 133.872524 207.240989 
L 139.375143 206.871299 
L 144.877763 208.100022 
L 150.380382 207.874737 
L 155.883002 208.408407 
L 161.385621 208.976495 
L 166.888241 208.778823 
L 172.39086 210.236266 
L 177.893479 211.810355 
L 183.396099 213.11504 
L 188.898718 216.298474 
L 194.401338 221.258575 
L 199.903957 228.259138 
L 205.406576 236.942748 
L 210.909196 250.173137 
L 216.411815 261.495673 
L 221.914435 265.952342 
L 227.417054 263.499195 
L 232.919674 255.076331 
L 238.422293 245.056049 
L 243.924912 237.247246 
L 249.427532 231.341055 
L 254.930151 225.535474 
L 260.432771 223.084049 
L 265.93539 220.514779 
L 271.438009 218.584176 
L 276.940629 216.941409 
L 282.443248 215.408371 
L 287.945868 214.652341 
L 293.448487 214.320641 
L 298.951107 212.773496 
L 304.453726 212.951101 
L 309.956345 212.538527 
L 315.458965 211.294279 
L 320.961584 210.266657 
L 326.464204 210.913088 
L 331.966823 210.270992 
L 337.469442 209.861957 
L 342.972062 209.917795 
L 348.474681 209.903711 
L 353.977301 208.476728 
L 359.47992 208.209442 
L 364.982539 209.206539 
L 370.485159 208.41128 
L 375.987778 209.132332 
L 381.490398 208.7851 
" clip-path="url(#pd6c24afbba)" style="fill: none; stroke: #33628d; stroke-width: 1.5; stroke-linecap: square"/>
   </g>
   <g id="line2d_23">
    <path d="M 56.835852 198.427222 
L 62.338472 198.806055 
L 67.841091 197.77005 
L 73.343711 198.687103 
L 78.84633 198.56268 
L 84.348949 199.23352 
L 89.851569 198.29423 
L 95.354188 199.12301 
L 100.856808 198.464901 
L 106.359427 198.428251 
L 111.862046 198.773341 
L 117.364666 199.693655 
L 122.867285 199.082794 
L 128.369905 199.577853 
L 133.872524 199.580274 
L 139.375143 200.528152 
L 144.877763 199.842521 
L 150.380382 200.130045 
L 155.883002 199.995534 
L 161.385621 200.279428 
L 166.888241 201.260347 
L 172.39086 202.144407 
L 177.893479 203.754702 
L 183.396099 207.129288 
L 188.898718 209.976808 
L 194.401338 214.600945 
L 199.903957 221.900698 
L 205.406576 233.776855 
L 210.909196 246.463376 
L 216.411815 257.101321 
L 221.914435 263.10989 
L 227.417054 260.38199 
L 232.919674 251.264415 
L 238.422293 240.579419 
L 243.924912 230.561647 
L 249.427532 225.189164 
L 254.930151 219.282102 
L 260.432771 216.151873 
L 265.93539 213.620239 
L 271.438009 211.576738 
L 276.940629 209.609708 
L 282.443248 208.508324 
L 287.945868 208.101199 
L 293.448487 207.275927 
L 298.951107 206.00314 
L 304.453726 205.198064 
L 309.956345 204.659084 
L 315.458965 204.090198 
L 320.961584 204.528721 
L 326.464204 202.815727 
L 331.966823 203.307916 
L 337.469442 202.997244 
L 342.972062 203.071805 
L 348.474681 202.314833 
L 353.977301 201.443573 
L 359.47992 201.401282 
L 364.982539 200.754878 
L 370.485159 201.058681 
L 375.987778 201.323292 
L 381.490398 201.090359 
" clip-path="url(#pd6c24afbba)" style="fill: none; stroke: #2f6b8e; stroke-width: 1.5; stroke-linecap: square"/>
   </g>
   <g id="line2d_24">
    <path d="M 56.835852 191.192646 
L 62.338472 190.747244 
L 67.841091 191.391318 
L 73.343711 191.342668 
L 78.84633 190.971522 
L 84.348949 190.335317 
L 89.851569 190.661362 
L 95.354188 191.882365 
L 100.856808 191.844378 
L 106.359427 190.735646 
L 111.862046 190.695803 
L 117.364666 192.144629 
L 122.867285 191.193165 
L 128.369905 191.156388 
L 133.872524 191.944399 
L 139.375143 192.832168 
L 144.877763 192.457109 
L 150.380382 192.225383 
L 155.883002 193.304174 
L 161.385621 193.335376 
L 166.888241 194.213559 
L 172.39086 195.520317 
L 177.893479 197.234458 
L 183.396099 199.699458 
L 188.898718 201.820065 
L 194.401338 207.980317 
L 199.903957 215.189731 
L 205.406576 230.193723 
L 210.909196 242.328391 
L 216.411815 254.292482 
L 221.914435 260.511359 
L 227.417054 254.389244 
L 232.919674 245.146028 
L 238.422293 234.88432 
L 243.924912 225.941254 
L 249.427532 218.833343 
L 254.930151 213.657049 
L 260.432771 209.607586 
L 265.93539 206.053301 
L 271.438009 205.004036 
L 276.940629 203.580792 
L 282.443248 202.008829 
L 287.945868 200.812548 
L 293.448487 198.69335 
L 298.951107 198.374985 
L 304.453726 198.326093 
L 309.956345 196.423461 
L 315.458965 196.615192 
L 320.961584 196.971391 
L 326.464204 196.044736 
L 331.966823 195.485895 
L 337.469442 195.631818 
L 342.972062 195.318199 
L 348.474681 194.986724 
L 353.977301 194.47977 
L 359.47992 194.327478 
L 364.982539 193.695702 
L 370.485159 193.852164 
L 375.987778 193.170133 
L 381.490398 193.421209 
" clip-path="url(#pd6c24afbba)" style="fill: none; stroke: #2c738e; stroke-width: 1.5; stroke-linecap: square"/>
   </g>
   <g id="line2d_25">
    <path d="M 56.835852 182.934678 
L 62.338472 182.869015 
L 67.841091 183.800237 
L 73.343711 183.673603 
L 78.84633 182.869785 
L 84.348949 183.456327 
L 89.851569 183.355017 
L 95.354188 182.753691 
L 100.856808 183.554091 
L 106.359427 183.856983 
L 111.862046 183.553985 
L 117.364666 183.394373 
L 122.867285 183.853116 
L 128.369905 184.66614 
L 133.872524 183.456984 
L 139.375143 183.987573 
L 144.877763 185.591226 
L 150.380382 184.654984 
L 155.883002 185.602952 
L 161.385621 186.554401 
L 166.888241 187.233302 
L 172.39086 188.795843 
L 177.893479 190.099972 
L 183.396099 193.70172 
L 188.898718 195.425564 
L 194.401338 203.503457 
L 199.903957 212.291528 
L 205.406576 224.104618 
L 210.909196 239.740196 
L 216.411815 251.496438 
L 221.914435 257.739826 
L 227.417054 251.739319 
L 232.919674 240.892477 
L 238.422293 229.228482 
L 243.924912 219.362565 
L 249.427532 211.807551 
L 254.930151 206.533946 
L 260.432771 203.513753 
L 265.93539 199.78405 
L 271.438009 197.589077 
L 276.940629 196.1479 
L 282.443248 194.593082 
L 287.945868 192.816946 
L 293.448487 192.083277 
L 298.951107 191.894522 
L 304.453726 190.738778 
L 309.956345 191.158942 
L 315.458965 189.792397 
L 320.961584 188.005971 
L 326.464204 188.890635 
L 331.966823 188.336537 
L 337.469442 188.070064 
L 342.972062 187.689462 
L 348.474681 186.85271 
L 353.977301 187.017386 
L 359.47992 186.18782 
L 364.982539 187.395607 
L 370.485159 186.091155 
L 375.987778 185.522901 
L 381.490398 186.540941 
" clip-path="url(#pd6c24afbba)" style="fill: none; stroke: #297b8e; stroke-width: 1.5; stroke-linecap: square"/>
   </g>
   <g id="line2d_26">
    <path d="M 56.835852 176.50745 
L 62.338472 176.292717 
L 67.841091 176.156251 
L 73.343711 175.523841 
L 78.84633 175.475631 
L 84.348949 176.140903 
L 89.851569 176.502851 
L 95.354188 176.508749 
L 100.856808 175.874953 
L 106.359427 175.878934 
L 111.862046 175.845023 
L 117.364666 176.246454 
L 122.867285 176.414971 
L 128.369905 176.760264 
L 133.872524 176.078756 
L 139.375143 176.827089 
L 144.877763 177.588866 
L 150.380382 178.178319 
L 155.883002 178.201428 
L 161.385621 178.514936 
L 166.888241 180.051285 
L 172.39086 181.015094 
L 177.893479 182.373326 
L 183.396099 185.439237 
L 188.898718 188.983345 
L 194.401338 195.678043 
L 199.903957 206.100917 
L 205.406576 219.40405 
L 210.909196 234.646229 
L 216.411815 249.376023 
L 221.914435 254.861007 
L 227.417054 247.979842 
L 232.919674 235.673473 
L 238.422293 224.796414 
L 243.924912 213.276597 
L 249.427532 205.13652 
L 254.930151 201.102037 
L 260.432771 196.602402 
L 265.93539 193.696778 
L 271.438009 190.367369 
L 276.940629 188.587746 
L 282.443248 187.534833 
L 287.945868 185.980659 
L 293.448487 186.050557 
L 298.951107 184.758639 
L 304.453726 183.604503 
L 309.956345 182.163508 
L 315.458965 181.935916 
L 320.961584 181.522951 
L 326.464204 180.560896 
L 331.966823 180.546513 
L 337.469442 179.92238 
L 342.972062 180.405789 
L 348.474681 180.354497 
L 353.977301 179.282282 
L 359.47992 179.184868 
L 364.982539 178.898765 
L 370.485159 179.585209 
L 375.987778 179.232588 
L 381.490398 177.933515 
" clip-path="url(#pd6c24afbba)" style="fill: none; stroke: #25838e; stroke-width: 1.5; stroke-linecap: square"/>
   </g>
   <g id="line2d_27">
    <path d="M 56.835852 169.051158 
L 62.338472 167.550003 
L 67.841091 168.41582 
L 73.343711 168.472035 
L 78.84633 168.508647 
L 84.348949 168.466048 
L 89.851569 169.086055 
L 95.354188 168.563632 
L 100.856808 168.866904 
L 106.359427 169.146708 
L 111.862046 168.862113 
L 117.364666 168.37903 
L 122.867285 169.084374 
L 128.369905 169.223142 
L 133.872524 169.197944 
L 139.375143 169.084474 
L 144.877763 170.427095 
L 150.380382 170.320784 
L 155.883002 170.619819 
L 161.385621 171.398338 
L 166.888241 172.095103 
L 172.39086 174.726017 
L 177.893479 175.259941 
L 183.396099 178.386584 
L 188.898718 183.867985 
L 194.401338 188.813009 
L 199.903957 201.512304 
L 205.406576 215.087049 
L 210.909196 232.713329 
L 216.411815 246.056683 
L 221.914435 250.554388 
L 227.417054 242.979286 
L 232.919674 231.602222 
L 238.422293 220.393249 
L 243.924912 208.766872 
L 249.427532 199.487748 
L 254.930151 193.878077 
L 260.432771 189.36003 
L 265.93539 186.973441 
L 271.438009 184.000481 
L 276.940629 182.183804 
L 282.443248 179.539185 
L 287.945868 178.833146 
L 293.448487 178.19481 
L 298.951107 177.194265 
L 304.453726 176.676777 
L 309.956345 176.330423 
L 315.458965 175.003651 
L 320.961584 174.146946 
L 326.464204 174.714557 
L 331.966823 173.394832 
L 337.469442 172.895773 
L 342.972062 172.595889 
L 348.474681 172.648638 
L 353.977301 172.785374 
L 359.47992 172.629791 
L 364.982539 170.943886 
L 370.485159 171.702664 
L 375.987778 170.945755 
L 381.490398 171.157789 
" clip-path="url(#pd6c24afbba)" style="fill: none; stroke: #228c8d; stroke-width: 1.5; stroke-linecap: square"/>
   </g>
   <g id="line2d_28">
    <path d="M 56.835852 160.687954 
L 62.338472 161.442414 
L 67.841091 160.446549 
L 73.343711 160.329192 
L 78.84633 160.909109 
L 84.348949 160.617041 
L 89.851569 160.414923 
L 95.354188 161.402671 
L 100.856808 160.525056 
L 106.359427 160.955788 
L 111.862046 161.894448 
L 117.364666 160.302258 
L 122.867285 162.123297 
L 128.369905 161.080519 
L 133.872524 160.91585 
L 139.375143 161.64936 
L 144.877763 161.767742 
L 150.380382 162.682 
L 155.883002 162.643162 
L 161.385621 164.109396 
L 166.888241 164.605033 
L 172.39086 166.868217 
L 177.893479 168.009514 
L 183.396099 171.359099 
L 188.898718 175.479795 
L 194.401338 182.879436 
L 199.903957 195.068698 
L 205.406576 210.514709 
L 210.909196 229.62943 
L 216.411815 244.118307 
L 221.914435 247.673177 
L 227.417054 239.654685 
L 232.919674 227.513815 
L 238.422293 214.985861 
L 243.924912 202.28751 
L 249.427532 193.783601 
L 254.930151 187.132651 
L 260.432771 181.781163 
L 265.93539 179.974775 
L 271.438009 177.106584 
L 276.940629 175.987905 
L 282.443248 173.413222 
L 287.945868 173.315198 
L 293.448487 169.931066 
L 298.951107 169.258889 
L 304.453726 169.834696 
L 309.956345 168.227399 
L 315.458965 166.733743 
L 320.961584 167.018186 
L 326.464204 167.223327 
L 331.966823 166.890024 
L 337.469442 166.431042 
L 342.972062 165.259055 
L 348.474681 165.17802 
L 353.977301 164.944448 
L 359.47992 164.678667 
L 364.982539 164.534275 
L 370.485159 164.366587 
L 375.987778 163.775088 
L 381.490398 163.484172 
" clip-path="url(#pd6c24afbba)" style="fill: none; stroke: #1f948c; stroke-width: 1.5; stroke-linecap: square"/>
   </g>
   <g id="line2d_29">
    <path d="M 56.835852 153.261699 
L 62.338472 153.148857 
L 67.841091 153.326206 
L 73.343711 152.670889 
L 78.84633 153.202037 
L 84.348949 153.364552 
L 89.851569 153.513798 
L 95.354188 152.903249 
L 100.856808 153.116506 
L 106.359427 153.100936 
L 111.862046 153.495434 
L 117.364666 153.454851 
L 122.867285 154.41585 
L 128.369905 154.416371 
L 133.872524 154.190018 
L 139.375143 154.200178 
L 144.877763 154.712257 
L 150.380382 154.336695 
L 155.883002 155.964828 
L 161.385621 156.632572 
L 166.888241 157.701347 
L 172.39086 159.390759 
L 177.893479 161.521944 
L 183.396099 164.51507 
L 188.898718 169.789106 
L 194.401338 178.869317 
L 199.903957 190.673398 
L 205.406576 206.093972 
L 210.909196 225.140512 
L 216.411815 239.329627 
L 221.914435 244.4894 
L 227.417054 235.801903 
L 232.919674 220.828409 
L 238.422293 207.840568 
L 243.924912 195.532385 
L 249.427532 188.284126 
L 254.930151 180.875599 
L 260.432771 176.230577 
L 265.93539 172.788933 
L 271.438009 169.456598 
L 276.940629 168.411203 
L 282.443248 165.788854 
L 287.945868 164.707541 
L 293.448487 163.46093 
L 298.951107 162.906037 
L 304.453726 162.309727 
L 309.956345 160.785356 
L 315.458965 160.630085 
L 320.961584 159.318911 
L 326.464204 159.044298 
L 331.966823 158.484189 
L 337.469442 158.592948 
L 342.972062 158.715665 
L 348.474681 157.695358 
L 353.977301 156.983237 
L 359.47992 157.074093 
L 364.982539 157.399583 
L 370.485159 156.72756 
L 375.987778 156.204716 
L 381.490398 156.569022 
" clip-path="url(#pd6c24afbba)" style="fill: none; stroke: #1e9d89; stroke-width: 1.5; stroke-linecap: square"/>
   </g>
   <g id="line2d_30">
    <path d="M 56.835852 145.037669 
L 62.338472 145.201186 
L 67.841091 146.140485 
L 73.343711 145.276786 
L 78.84633 146.236469 
L 84.348949 145.231318 
L 89.851569 146.346325 
L 95.354188 146.672199 
L 100.856808 145.738214 
L 106.359427 146.01492 
L 111.862046 145.857959 
L 117.364666 146.833732 
L 122.867285 145.949104 
L 128.369905 146.531693 
L 133.872524 147.067876 
L 139.375143 146.256055 
L 144.877763 147.546183 
L 150.380382 147.484056 
L 155.883002 147.434151 
L 161.385621 148.547584 
L 166.888241 149.283783 
L 172.39086 151.448452 
L 177.893479 154.486414 
L 183.396099 157.476883 
L 188.898718 162.765432 
L 194.401338 171.626201 
L 199.903957 185.490784 
L 205.406576 202.377808 
L 210.909196 221.70189 
L 216.411815 237.435266 
L 221.914435 242.207396 
L 227.417054 230.651233 
L 232.919674 217.358106 
L 238.422293 200.636532 
L 243.924912 189.993012 
L 249.427532 180.636689 
L 254.930151 175.269885 
L 260.432771 169.382682 
L 265.93539 165.629125 
L 271.438009 163.211296 
L 276.940629 161.855255 
L 282.443248 159.200238 
L 287.945868 157.839096 
L 293.448487 157.656752 
L 298.951107 155.178325 
L 304.453726 154.833005 
L 309.956345 153.452423 
L 315.458965 153.628994 
L 320.961584 151.813356 
L 326.464204 151.893761 
L 331.966823 151.296676 
L 337.469442 150.616473 
L 342.972062 149.682139 
L 348.474681 150.747709 
L 353.977301 150.713087 
L 359.47992 149.12296 
L 364.982539 149.755539 
L 370.485159 148.924559 
L 375.987778 148.292071 
L 381.490398 149.039753 
" clip-path="url(#pd6c24afbba)" style="fill: none; stroke: #21a585; stroke-width: 1.5; stroke-linecap: square"/>
   </g>
   <g id="line2d_31">
    <path d="M 56.835852 137.290965 
L 62.338472 137.647231 
L 67.841091 137.675093 
L 73.343711 137.645524 
L 78.84633 137.977821 
L 84.348949 137.74796 
L 89.851569 138.23749 
L 95.354188 137.466908 
L 100.856808 138.014159 
L 106.359427 138.376528 
L 111.862046 137.697534 
L 117.364666 138.806542 
L 122.867285 139.415881 
L 128.369905 139.100117 
L 133.872524 138.993349 
L 139.375143 139.403268 
L 144.877763 140.325292 
L 150.380382 139.460847 
L 155.883002 140.65246 
L 161.385621 142.418414 
L 166.888241 143.185716 
L 172.39086 144.585131 
L 177.893479 146.446825 
L 183.396099 150.74745 
L 188.898718 156.064168 
L 194.401338 167.500708 
L 199.903957 178.97963 
L 205.406576 198.707115 
L 210.909196 220.103969 
L 216.411815 235.574646 
L 221.914435 239.199229 
L 227.417054 228.058701 
L 232.919674 211.93095 
L 238.422293 198.632926 
L 243.924912 183.129425 
L 249.427532 175.268055 
L 254.930151 169.056322 
L 260.432771 162.584477 
L 265.93539 160.477927 
L 271.438009 156.931114 
L 276.940629 153.247497 
L 282.443248 153.1596 
L 287.945868 150.143074 
L 293.448487 149.870007 
L 298.951107 149.134721 
L 304.453726 147.758984 
L 309.956345 147.386869 
L 315.458965 145.786205 
L 320.961584 146.161021 
L 326.464204 144.216127 
L 331.966823 144.126079 
L 337.469442 144.127454 
L 342.972062 143.544228 
L 348.474681 143.724085 
L 353.977301 142.930088 
L 359.47992 142.732257 
L 364.982539 142.315208 
L 370.485159 141.123986 
L 375.987778 141.374911 
L 381.490398 141.607985 
" clip-path="url(#pd6c24afbba)" style="fill: none; stroke: #26ad81; stroke-width: 1.5; stroke-linecap: square"/>
   </g>
   <g id="line2d_32">
    <path d="M 56.835852 130.283307 
L 62.338472 130.371641 
L 67.841091 130.458608 
L 73.343711 131.127712 
L 78.84633 130.078233 
L 84.348949 129.915326 
L 89.851569 130.488199 
L 95.354188 129.891746 
L 100.856808 129.846629 
L 106.359427 130.859047 
L 111.862046 131.759582 
L 117.364666 131.312836 
L 122.867285 130.547999 
L 128.369905 130.745165 
L 133.872524 132.064994 
L 139.375143 132.044053 
L 144.877763 132.198792 
L 150.380382 132.981561 
L 155.883002 133.426138 
L 161.385621 133.977546 
L 166.888241 135.027333 
L 172.39086 137.132116 
L 177.893479 140.229499 
L 183.396099 144.391997 
L 188.898718 149.793235 
L 194.401338 159.00619 
L 199.903957 173.219472 
L 205.406576 191.230109 
L 210.909196 217.063191 
L 216.411815 231.26254 
L 221.914435 235.706708 
L 227.417054 224.608072 
L 232.919674 207.300959 
L 238.422293 190.591842 
L 243.924912 177.996713 
L 249.427532 167.251476 
L 254.930151 161.338053 
L 260.432771 156.688703 
L 265.93539 152.996229 
L 271.438009 148.927429 
L 276.940629 147.137762 
L 282.443248 145.822905 
L 287.945868 144.831294 
L 293.448487 142.761983 
L 298.951107 141.882988 
L 304.453726 139.968532 
L 309.956345 138.32727 
L 315.458965 138.585301 
L 320.961584 138.498722 
L 326.464204 136.839634 
L 331.966823 136.237976 
L 337.469442 137.896557 
L 342.972062 135.892461 
L 348.474681 135.656947 
L 353.977301 136.266723 
L 359.47992 135.716904 
L 364.982539 135.559879 
L 370.485159 134.352123 
L 375.987778 134.532031 
L 381.490398 134.352332 
" clip-path="url(#pd6c24afbba)" style="fill: none; stroke: #31b57b; stroke-width: 1.5; stroke-linecap: square"/>
   </g>
   <g id="line2d_33">
    <path d="M 56.835852 122.683697 
L 62.338472 122.521894 
L 67.841091 122.555558 
L 73.343711 123.492079 
L 78.84633 123.021201 
L 84.348949 123.0057 
L 89.851569 122.679775 
L 95.354188 123.429963 
L 100.856808 122.494287 
L 106.359427 123.153495 
L 111.862046 122.882111 
L 117.364666 124.374765 
L 122.867285 123.097418 
L 128.369905 123.431903 
L 133.872524 124.453133 
L 139.375143 124.722446 
L 144.877763 124.972101 
L 150.380382 124.929714 
L 155.883002 125.618921 
L 161.385621 126.511295 
L 166.888241 128.088862 
L 172.39086 129.887544 
L 177.893479 133.204755 
L 183.396099 136.90515 
L 188.898718 143.021846 
L 194.401338 152.934678 
L 199.903957 169.199594 
L 205.406576 189.645238 
L 210.909196 212.050484 
L 216.411815 228.943772 
L 221.914435 232.067455 
L 227.417054 221.051479 
L 232.919674 202.088295 
L 238.422293 184.404964 
L 243.924912 171.912172 
L 249.427532 161.228757 
L 254.930151 155.293585 
L 260.432771 150.190178 
L 265.93539 145.259808 
L 271.438009 143.248493 
L 276.940629 140.493663 
L 282.443248 138.665348 
L 287.945868 136.429787 
L 293.448487 135.494383 
L 298.951107 134.713992 
L 304.453726 132.90607 
L 309.956345 132.042052 
L 315.458965 131.014467 
L 320.961584 131.237663 
L 326.464204 131.183328 
L 331.966823 130.067191 
L 337.469442 128.766283 
L 342.972062 130.00041 
L 348.474681 128.518596 
L 353.977301 127.913847 
L 359.47992 127.826104 
L 364.982539 128.613649 
L 370.485159 127.559801 
L 375.987778 126.856839 
L 381.490398 126.541552 
" clip-path="url(#pd6c24afbba)" style="fill: none; stroke: #3fbc73; stroke-width: 1.5; stroke-linecap: square"/>
   </g>
   <g id="line2d_34">
    <path d="M 56.835852 114.197467 
L 62.338472 115.051236 
L 67.841091 115.088847 
L 73.343711 115.890383 
L 78.84633 115.714739 
L 84.348949 115.441947 
L 89.851569 114.713374 
L 95.354188 115.265225 
L 100.856808 115.546024 
L 106.359427 115.191522 
L 111.862046 116.050509 
L 117.364666 115.201833 
L 122.867285 116.58902 
L 128.369905 116.728828 
L 133.872524 117.118202 
L 139.375143 116.120236 
L 144.877763 118.104402 
L 150.380382 117.453745 
L 155.883002 117.686574 
L 161.385621 120.135378 
L 166.888241 121.386769 
L 172.39086 123.419302 
L 177.893479 125.688897 
L 183.396099 129.540255 
L 188.898718 135.418276 
L 194.401338 146.961537 
L 199.903957 161.671193 
L 205.406576 185.033755 
L 210.909196 209.746534 
L 216.411815 225.492652 
L 221.914435 228.340532 
L 227.417054 216.932876 
L 232.919674 198.715805 
L 238.422293 179.385989 
L 243.924912 165.539616 
L 249.427532 154.820791 
L 254.930151 150.655824 
L 260.432771 142.380454 
L 265.93539 139.306189 
L 271.438009 136.114041 
L 276.940629 133.302867 
L 282.443248 131.049595 
L 287.945868 130.484218 
L 293.448487 128.75173 
L 298.951107 125.836325 
L 304.453726 125.421845 
L 309.956345 125.022884 
L 315.458965 123.905185 
L 320.961584 123.553319 
L 326.464204 123.480273 
L 331.966823 122.02569 
L 337.469442 121.824145 
L 342.972062 121.540371 
L 348.474681 121.294695 
L 353.977301 120.221034 
L 359.47992 119.602752 
L 364.982539 120.491214 
L 370.485159 118.505521 
L 375.987778 119.556552 
L 381.490398 119.208618 
" clip-path="url(#pd6c24afbba)" style="fill: none; stroke: #50c46a; stroke-width: 1.5; stroke-linecap: square"/>
   </g>
   <g id="line2d_35">
    <path d="M 56.835852 106.566712 
L 62.338472 107.458874 
L 67.841091 107.291531 
L 73.343711 108.178034 
L 78.84633 107.188682 
L 84.348949 106.710105 
L 89.851569 108.382232 
L 95.354188 107.354432 
L 100.856808 107.457169 
L 106.359427 108.088235 
L 111.862046 106.599769 
L 117.364666 108.242339 
L 122.867285 108.382173 
L 128.369905 108.538093 
L 133.872524 109.499755 
L 139.375143 109.5614 
L 144.877763 109.248065 
L 150.380382 110.794216 
L 155.883002 111.122311 
L 161.385621 112.105736 
L 166.888241 114.026251 
L 172.39086 114.747157 
L 177.893479 118.839844 
L 183.396099 122.392397 
L 188.898718 129.401311 
L 194.401338 140.299535 
L 199.903957 158.350333 
L 205.406576 180.627258 
L 210.909196 205.267743 
L 216.411815 223.293636 
L 221.914435 225.805463 
L 227.417054 211.484593 
L 232.919674 191.884349 
L 238.422293 173.817943 
L 243.924912 157.540256 
L 249.427532 149.559676 
L 254.930151 142.558474 
L 260.432771 137.169463 
L 265.93539 133.323964 
L 271.438009 128.287417 
L 276.940629 125.992346 
L 282.443248 124.23525 
L 287.945868 123.49857 
L 293.448487 122.381383 
L 298.951107 119.565272 
L 304.453726 118.117408 
L 309.956345 117.186907 
L 315.458965 116.542296 
L 320.961584 116.287512 
L 326.464204 115.999879 
L 331.966823 114.915691 
L 337.469442 114.474903 
L 342.972062 114.397025 
L 348.474681 113.708421 
L 353.977301 113.494077 
L 359.47992 112.292821 
L 364.982539 111.679696 
L 370.485159 112.431245 
L 375.987778 111.825109 
L 381.490398 112.021606 
" clip-path="url(#pd6c24afbba)" style="fill: none; stroke: #63cb5f; stroke-width: 1.5; stroke-linecap: square"/>
   </g>
   <g id="line2d_36">
    <path d="M 56.835852 100.374996 
L 62.338472 100.340344 
L 67.841091 100.072469 
L 73.343711 100.044468 
L 78.84633 99.731332 
L 84.348949 100.592848 
L 89.851569 99.774747 
L 95.354188 99.9044 
L 100.856808 99.728358 
L 106.359427 99.788631 
L 111.862046 100.36728 
L 117.364666 100.843807 
L 122.867285 101.173229 
L 128.369905 102.02042 
L 133.872524 100.954431 
L 139.375143 101.281058 
L 144.877763 102.453944 
L 150.380382 101.684629 
L 155.883002 103.752458 
L 161.385621 103.991129 
L 166.888241 106.460008 
L 172.39086 107.5579 
L 177.893479 110.964438 
L 183.396099 114.962928 
L 188.898718 122.592364 
L 194.401338 134.14628 
L 199.903957 152.354002 
L 205.406576 175.569845 
L 210.909196 201.870838 
L 216.411815 219.996149 
L 221.914435 221.599565 
L 227.417054 208.10974 
L 232.919674 188.236221 
L 238.422293 167.683972 
L 243.924912 154.961893 
L 249.427532 142.558029 
L 254.930151 136.301659 
L 260.432771 130.86595 
L 265.93539 124.915132 
L 271.438009 121.339017 
L 276.940629 120.142752 
L 282.443248 116.275046 
L 287.945868 115.054899 
L 293.448487 113.763268 
L 298.951107 112.684678 
L 304.453726 111.876942 
L 309.956345 110.209109 
L 315.458965 109.795379 
L 320.961584 108.392304 
L 326.464204 108.37224 
L 331.966823 108.032927 
L 337.469442 107.211839 
L 342.972062 107.282001 
L 348.474681 106.5986 
L 353.977301 105.469934 
L 359.47992 105.534577 
L 364.982539 105.658001 
L 370.485159 104.495916 
L 375.987778 104.323061 
L 381.490398 103.46032 
" clip-path="url(#pd6c24afbba)" style="fill: none; stroke: #77d153; stroke-width: 1.5; stroke-linecap: square"/>
   </g>
   <g id="line2d_37">
    <path d="M 56.835852 92.424392 
L 62.338472 92.222386 
L 67.841091 91.68465 
L 73.343711 92.368565 
L 78.84633 92.701385 
L 84.348949 92.150829 
L 89.851569 92.186842 
L 95.354188 92.408966 
L 100.856808 92.809769 
L 106.359427 93.452052 
L 111.862046 92.474613 
L 117.364666 92.650398 
L 122.867285 94.258272 
L 128.369905 93.624776 
L 133.872524 93.601345 
L 139.375143 94.651074 
L 144.877763 95.890029 
L 150.380382 95.666081 
L 155.883002 95.007751 
L 161.385621 98.067483 
L 166.888241 98.911739 
L 172.39086 101.247424 
L 177.893479 104.608472 
L 183.396099 108.066731 
L 188.898718 115.802728 
L 194.401338 128.293624 
L 199.903957 148.473773 
L 205.406576 171.679093 
L 210.909196 197.262526 
L 216.411815 218.898669 
L 221.914435 218.597161 
L 227.417054 204.089826 
L 232.919674 183.160655 
L 238.422293 162.662511 
L 243.924912 146.864403 
L 249.427532 135.257299 
L 254.930151 128.855645 
L 260.432771 124.375372 
L 265.93539 120.489675 
L 271.438009 115.683192 
L 276.940629 112.782952 
L 282.443248 109.641614 
L 287.945868 108.594508 
L 293.448487 106.209833 
L 298.951107 105.227782 
L 304.453726 105.347799 
L 309.956345 103.719933 
L 315.458965 102.914365 
L 320.961584 101.776606 
L 326.464204 101.342013 
L 331.966823 100.538866 
L 337.469442 100.168826 
L 342.972062 99.505306 
L 348.474681 98.839873 
L 353.977301 98.766159 
L 359.47992 98.327867 
L 364.982539 97.844427 
L 370.485159 98.364052 
L 375.987778 96.912589 
L 381.490398 96.917792 
" clip-path="url(#pd6c24afbba)" style="fill: none; stroke: #8bd646; stroke-width: 1.5; stroke-linecap: square"/>
   </g>
   <g id="line2d_38">
    <path d="M 56.835852 85.534032 
L 62.338472 84.199401 
L 67.841091 84.639564 
L 73.343711 84.428361 
L 78.84633 84.233052 
L 84.348949 84.506053 
L 89.851569 84.889759 
L 95.354188 85.434182 
L 100.856808 85.424599 
L 106.359427 85.06384 
L 111.862046 85.662927 
L 117.364666 84.843041 
L 122.867285 85.757034 
L 128.369905 85.460157 
L 133.872524 86.146858 
L 139.375143 86.409462 
L 144.877763 86.87415 
L 150.380382 87.740409 
L 155.883002 89.635043 
L 161.385621 90.112158 
L 166.888241 91.575188 
L 172.39086 94.290791 
L 177.893479 96.488267 
L 183.396099 102.169468 
L 188.898718 109.145414 
L 194.401338 124.037345 
L 199.903957 142.841361 
L 205.406576 168.975141 
L 210.909196 195.281201 
L 216.411815 214.9055 
L 221.914435 215.190277 
L 227.417054 200.140758 
L 232.919674 176.869979 
L 238.422293 157.495546 
L 243.924912 141.12011 
L 249.427532 130.160212 
L 254.930151 123.744477 
L 260.432771 117.200906 
L 265.93539 112.249669 
L 271.438009 107.935887 
L 276.940629 106.146114 
L 282.443248 102.7882 
L 287.945868 100.426406 
L 293.448487 100.006311 
L 298.951107 97.966731 
L 304.453726 96.958714 
L 309.956345 95.876141 
L 315.458965 95.147024 
L 320.961584 94.863011 
L 326.464204 93.367652 
L 331.966823 93.153415 
L 337.469442 92.734651 
L 342.972062 92.175053 
L 348.474681 91.847038 
L 353.977301 91.320207 
L 359.47992 90.189141 
L 364.982539 90.889069 
L 370.485159 90.315785 
L 375.987778 89.625473 
L 381.490398 89.486723 
" clip-path="url(#pd6c24afbba)" style="fill: none; stroke: #a2da37; stroke-width: 1.5; stroke-linecap: square"/>
   </g>
   <g id="line2d_39">
    <path d="M 56.835852 77.55484 
L 62.338472 76.664124 
L 67.841091 76.043716 
L 73.343711 77.321186 
L 78.84633 76.642566 
L 84.348949 76.929739 
L 89.851569 78.074862 
L 95.354188 77.185413 
L 100.856808 77.671472 
L 106.359427 78.593668 
L 111.862046 78.424654 
L 117.364666 76.65272 
L 122.867285 78.165965 
L 128.369905 78.371619 
L 133.872524 78.678961 
L 139.375143 79.758758 
L 144.877763 79.828458 
L 150.380382 79.77511 
L 155.883002 80.551814 
L 161.385621 82.193211 
L 166.888241 83.258426 
L 172.39086 86.118369 
L 177.893479 89.521795 
L 183.396099 94.063974 
L 188.898718 101.164761 
L 194.401338 115.930378 
L 199.903957 135.721537 
L 205.406576 165.400846 
L 210.909196 192.933897 
L 216.411815 212.765824 
L 221.914435 212.159671 
L 227.417054 195.531274 
L 232.919674 171.537599 
L 238.422293 149.585367 
L 243.924912 135.020152 
L 249.427532 125.049948 
L 254.930151 115.726275 
L 260.432771 110.332784 
L 265.93539 106.041997 
L 271.438009 101.074447 
L 276.940629 98.427019 
L 282.443248 96.308473 
L 287.945868 93.897652 
L 293.448487 92.968334 
L 298.951107 91.290875 
L 304.453726 89.201539 
L 309.956345 89.236809 
L 315.458965 87.513994 
L 320.961584 86.719336 
L 326.464204 86.220811 
L 331.966823 85.15976 
L 337.469442 84.64544 
L 342.972062 84.299616 
L 348.474681 84.56772 
L 353.977301 83.193943 
L 359.47992 84.027787 
L 364.982539 82.770453 
L 370.485159 82.429932 
L 375.987778 82.05262 
L 381.490398 81.811298 
" clip-path="url(#pd6c24afbba)" style="fill: none; stroke: #bade28; stroke-width: 1.5; stroke-linecap: square"/>
   </g>
   <g id="line2d_40">
    <path d="M 56.835852 68.871393 
L 62.338472 69.055008 
L 67.841091 68.945301 
L 73.343711 69.504897 
L 78.84633 69.45477 
L 84.348949 70.075165 
L 89.851569 69.096733 
L 95.354188 70.047764 
L 100.856808 70.709301 
L 106.359427 70.100031 
L 111.862046 69.60558 
L 117.364666 69.98852 
L 122.867285 71.295316 
L 128.369905 71.301045 
L 133.872524 70.930293 
L 139.375143 71.618003 
L 144.877763 72.163222 
L 150.380382 73.678449 
L 155.883002 73.175678 
L 161.385621 74.353328 
L 166.888241 77.481425 
L 172.39086 79.253296 
L 177.893479 83.588107 
L 183.396099 87.778805 
L 188.898718 95.783476 
L 194.401338 111.344871 
L 199.903957 131.613376 
L 205.406576 160.008215 
L 210.909196 188.692876 
L 216.411815 209.824285 
L 221.914435 208.566932 
L 227.417054 190.058485 
L 232.919674 166.563983 
L 238.422293 144.694897 
L 243.924912 129.236496 
L 249.427532 117.933219 
L 254.930151 107.784331 
L 260.432771 104.123374 
L 265.93539 98.400933 
L 271.438009 94.662633 
L 276.940629 91.654609 
L 282.443248 88.694931 
L 287.945868 87.362566 
L 293.448487 85.801061 
L 298.951107 83.859792 
L 304.453726 81.939452 
L 309.956345 83.025225 
L 315.458965 80.233396 
L 320.961584 79.880071 
L 326.464204 79.278024 
L 331.966823 78.746173 
L 337.469442 76.742869 
L 342.972062 78.23815 
L 348.474681 75.570119 
L 353.977301 76.972179 
L 359.47992 76.71854 
L 364.982539 75.269995 
L 370.485159 74.642357 
L 375.987778 74.925044 
L 381.490398 74.902972 
" clip-path="url(#pd6c24afbba)" style="fill: none; stroke: #d2e21b; stroke-width: 1.5; stroke-linecap: square"/>
   </g>
   <g id="line2d_41">
    <path d="M 56.835852 61.101452 
L 62.338472 60.940695 
L 67.841091 61.693338 
L 73.343711 62.178993 
L 78.84633 61.596515 
L 84.348949 61.534105 
L 89.851569 61.741393 
L 95.354188 61.982532 
L 100.856808 61.637597 
L 106.359427 62.579888 
L 111.862046 62.782727 
L 117.364666 63.622552 
L 122.867285 62.681859 
L 128.369905 63.430264 
L 133.872524 64.005968 
L 139.375143 63.820145 
L 144.877763 65.909146 
L 150.380382 65.418358 
L 155.883002 65.687097 
L 161.385621 68.752359 
L 166.888241 70.89563 
L 172.39086 71.50304 
L 177.893479 75.497071 
L 183.396099 81.751547 
L 188.898718 90.097175 
L 194.401338 103.205162 
L 199.903957 126.760908 
L 205.406576 156.116814 
L 210.909196 185.451809 
L 216.411815 206.403075 
L 221.914435 204.991455 
L 227.417054 185.038316 
L 232.919674 161.627578 
L 238.422293 140.417081 
L 243.924912 122.990412 
L 249.427532 110.45114 
L 254.930151 101.745023 
L 260.432771 96.486884 
L 265.93539 92.008671 
L 271.438009 88.082282 
L 276.940629 85.317747 
L 282.443248 81.444538 
L 287.945868 79.91493 
L 293.448487 78.63513 
L 298.951107 76.44253 
L 304.453726 75.526712 
L 309.956345 74.114367 
L 315.458965 72.84906 
L 320.961584 72.431497 
L 326.464204 71.389977 
L 331.966823 70.672635 
L 337.469442 71.045124 
L 342.972062 69.928341 
L 348.474681 68.987985 
L 353.977301 69.286302 
L 359.47992 68.713285 
L 364.982539 67.748262 
L 370.485159 68.084502 
L 375.987778 67.695017 
L 381.490398 67.412267 
" clip-path="url(#pd6c24afbba)" style="fill: none; stroke: #eae51a; stroke-width: 1.5; stroke-linecap: square"/>
   </g>
   <g id="line2d_42">
    <path d="M 56.835852 54.897941 
L 62.338472 54.788195 
L 67.841091 54.18137 
L 73.343711 54.584911 
L 78.84633 55.284923 
L 84.348949 54.86405 
L 89.851569 53.856 
L 95.354188 54.821584 
L 100.856808 55.014391 
L 106.359427 55.200779 
L 111.862046 54.970283 
L 117.364666 54.620516 
L 122.867285 54.693431 
L 128.369905 56.492803 
L 133.872524 56.089948 
L 139.375143 56.966743 
L 144.877763 57.375905 
L 150.380382 58.079097 
L 155.883002 59.342519 
L 161.385621 60.685107 
L 166.888241 62.594293 
L 172.39086 64.119863 
L 177.893479 69.047819 
L 183.396099 74.671743 
L 188.898718 83.703778 
L 194.401338 98.645484 
L 199.903957 121.168071 
L 205.406576 152.72364 
L 210.909196 184.543311 
L 216.411815 204.647322 
L 221.914435 201.964843 
L 227.417054 182.796434 
L 232.919674 157.144206 
L 238.422293 134.301895 
L 243.924912 116.271284 
L 249.427532 105.235057 
L 254.930151 95.150301 
L 260.432771 89.566867 
L 265.93539 84.460027 
L 271.438009 81.500926 
L 276.940629 77.885489 
L 282.443248 74.491011 
L 287.945868 73.029902 
L 293.448487 70.313498 
L 298.951107 69.422875 
L 304.453726 68.474462 
L 309.956345 66.920159 
L 315.458965 66.569588 
L 320.961584 65.339216 
L 326.464204 64.608528 
L 331.966823 63.816103 
L 337.469442 63.659298 
L 342.972062 63.158502 
L 348.474681 62.91549 
L 353.977301 60.718475 
L 359.47992 61.427323 
L 364.982539 60.208627 
L 370.485159 59.842694 
L 375.987778 59.36134 
L 381.490398 59.567202 
" clip-path="url(#pd6c24afbba)" style="fill: none; stroke: #fde725; stroke-width: 1.5; stroke-linecap: square"/>
   </g>
   <g id="patch_3">
    <path d="M 40.603125 307.872 
L 40.603125 41.76 
" style="fill: none; stroke: #000000; stroke-width: 0.8; stroke-linejoin: miter; stroke-linecap: square"/>
   </g>
   <g id="patch_4">
    <path d="M 397.723125 307.872 
L 397.723125 41.76 
" style="fill: none; stroke: #000000; stroke-width: 0.8; stroke-linejoin: miter; stroke-linecap: square"/>
   </g>
   <g id="patch_5">
    <path d="M 40.603125 307.872 
L 397.723125 307.872 
" style="fill: none; stroke: #000000; stroke-width: 0.8; stroke-linejoin: miter; stroke-linecap: square"/>
   </g>
   <g id="patch_6">
    <path d="M 40.603125 41.76 
L 397.723125 41.76 
" style="fill: none; stroke: #000000; stroke-width: 0.8; stroke-linejoin: miter; stroke-linecap: square"/>
   </g>
   <g id="legend_1">
    <g id="patch_7">
     <path d="M 417.579125 307.872 
L 631.4635 307.872 
Q 633.4635 307.872 633.4635 305.872 
L 633.4635 145.412625 
Q 633.4635 143.412625 631.4635 143.412625 
L 417.579125 143.412625 
Q 415.579125 143.412625 415.579125 145.412625 
L 415.579125 305.872 
Q 415.579125 307.872 417.579125 307.872 
z
" style="fill: #ffffff; opacity: 0.8; stroke: #cccccc; stroke-linejoin: miter"/>
    </g>
    <g id="text_16">
     <!-- Readout pulse amplitude () -->
     <g transform="translate(456.420531 155.011063) scale(0.1 -0.1)">
      <defs>
       <path id="DejaVuSans-52" d="M 2841 2188 
Q 3044 2119 3236 1894 
Q 3428 1669 3622 1275 
L 4263 0 
L 3584 0 
L 2988 1197 
Q 2756 1666 2539 1819 
Q 2322 1972 1947 1972 
L 1259 1972 
L 1259 0 
L 628 0 
L 628 4666 
L 2053 4666 
Q 2853 4666 3247 4331 
Q 3641 3997 3641 3322 
Q 3641 2881 3436 2590 
Q 3231 2300 2841 2188 
z
M 1259 4147 
L 1259 2491 
L 2053 2491 
Q 2509 2491 2742 2702 
Q 2975 2913 2975 3322 
Q 2975 3731 2742 3939 
Q 2509 4147 2053 4147 
L 1259 4147 
z
" transform="scale(0.015625)"/>
       <path id="DejaVuSans-6f" d="M 1959 3097 
Q 1497 3097 1228 2736 
Q 959 2375 959 1747 
Q 959 1119 1226 758 
Q 1494 397 1959 397 
Q 2419 397 2687 759 
Q 2956 1122 2956 1747 
Q 2956 2369 2687 2733 
Q 2419 3097 1959 3097 
z
M 1959 3584 
Q 2709 3584 3137 3096 
Q 3566 2609 3566 1747 
Q 3566 888 3137 398 
Q 2709 -91 1959 -91 
Q 1206 -91 779 398 
Q 353 888 353 1747 
Q 353 2609 779 3096 
Q 1206 3584 1959 3584 
z
" transform="scale(0.015625)"/>
       <path id="DejaVuSans-70" d="M 1159 525 
L 1159 -1331 
L 581 -1331 
L 581 3500 
L 1159 3500 
L 1159 2969 
Q 1341 3281 1617 3432 
Q 1894 3584 2278 3584 
Q 2916 3584 3314 3078 
Q 3713 2572 3713 1747 
Q 3713 922 3314 415 
Q 2916 -91 2278 -91 
Q 1894 -91 1617 61 
Q 1341 213 1159 525 
z
M 3116 1747 
Q 3116 2381 2855 2742 
Q 2594 3103 2138 3103 
Q 1681 3103 1420 2742 
Q 1159 2381 1159 1747 
Q 1159 1113 1420 752 
Q 1681 391 2138 391 
Q 2594 391 2855 752 
Q 3116 1113 3116 1747 
z
" transform="scale(0.015625)"/>
       <path id="DejaVuSans-6c" d="M 603 4863 
L 1178 4863 
L 1178 0 
L 603 0 
L 603 4863 
z
" transform="scale(0.015625)"/>
       <path id="DejaVuSans-73" d="M 2834 3397 
L 2834 2853 
Q 2591 2978 2328 3040 
Q 2066 3103 1784 3103 
Q 1356 3103 1142 2972 
Q 928 2841 928 2578 
Q 928 2378 1081 2264 
Q 1234 2150 1697 2047 
L 1894 2003 
Q 2506 1872 2764 1633 
Q 3022 1394 3022 966 
Q 3022 478 2636 193 
Q 2250 -91 1575 -91 
Q 1294 -91 989 -36 
Q 684 19 347 128 
L 347 722 
Q 666 556 975 473 
Q 1284 391 1588 391 
Q 1994 391 2212 530 
Q 2431 669 2431 922 
Q 2431 1156 2273 1281 
Q 2116 1406 1581 1522 
L 1381 1569 
Q 847 1681 609 1914 
Q 372 2147 372 2553 
Q 372 3047 722 3315 
Q 1072 3584 1716 3584 
Q 2034 3584 2315 3537 
Q 2597 3491 2834 3397 
z
" transform="scale(0.015625)"/>
       <path id="DejaVuSans-28" d="M 1984 4856 
Q 1566 4138 1362 3434 
Q 1159 2731 1159 2009 
Q 1159 1288 1364 580 
Q 1569 -128 1984 -844 
L 1484 -844 
Q 1016 -109 783 600 
Q 550 1309 550 2009 
Q 550 2706 781 3412 
Q 1013 4119 1484 4856 
L 1984 4856 
z
" transform="scale(0.015625)"/>
       <path id="DejaVuSans-29" d="M 513 4856 
L 1013 4856 
Q 1481 4119 1714 3412 
Q 1947 2706 1947 2009 
Q 1947 1309 1714 600 
Q 1481 -109 1013 -844 
L 513 -844 
Q 928 -128 1133 580 
Q 1338 1288 1338 2009 
Q 1338 2731 1133 3434 
Q 928 4138 513 4856 
z
" transform="scale(0.015625)"/>
      </defs>
      <use xlink:href="#DejaVuSans-52"/>
      <use xlink:href="#DejaVuSans-65" x="64.982422"/>
      <use xlink:href="#DejaVuSans-61" x="126.505859"/>
      <use xlink:href="#DejaVuSans-64" x="187.785156"/>
      <use xlink:href="#DejaVuSans-6f" x="251.261719"/>
      <use xlink:href="#DejaVuSans-75" x="312.443359"/>
      <use xlink:href="#DejaVuSans-74" x="375.822266"/>
      <use xlink:href="#DejaVuSans-20" x="415.03125"/>
      <use xlink:href="#DejaVuSans-70" x="446.818359"/>
      <use xlink:href="#DejaVuSans-75" x="510.294922"/>
      <use xlink:href="#DejaVuSans-6c" x="573.673828"/>
      <use xlink:href="#DejaVuSans-73" x="601.457031"/>
      <use xlink:href="#DejaVuSans-65" x="653.556641"/>
      <use xlink:href="#DejaVuSans-20" x="715.080078"/>
      <use xlink:href="#DejaVuSans-61" x="746.867188"/>
      <use xlink:href="#DejaVuSans-6d" x="808.146484"/>
      <use xlink:href="#DejaVuSans-70" x="905.558594"/>
      <use xlink:href="#DejaVuSans-6c" x="969.035156"/>
      <use xlink:href="#DejaVuSans-69" x="996.818359"/>
      <use xlink:href="#DejaVuSans-74" x="1024.601562"/>
      <use xlink:href="#DejaVuSans-75" x="1063.810547"/>
      <use xlink:href="#DejaVuSans-64" x="1127.189453"/>
      <use xlink:href="#DejaVuSans-65" x="1190.666016"/>
      <use xlink:href="#DejaVuSans-20" x="1252.189453"/>
      <use xlink:href="#DejaVuSans-28" x="1283.976562"/>
      <use xlink:href="#DejaVuSans-29" x="1322.990234"/>
     </g>
    </g>
    <g id="line2d_43">
     <path d="M 419.579125 166.189188 
L 429.579125 166.189188 
L 439.579125 166.189188 
" style="fill: none; stroke: #440154; stroke-width: 1.5; stroke-linecap: square"/>
    </g>
    <g id="text_17">
     <!-- 0.1 -->
     <g transform="translate(447.579125 169.689188) scale(0.1 -0.1)">
      <defs>
       <path id="DejaVuSans-2e" d="M 684 794 
L 1344 794 
L 1344 0 
L 684 0 
L 684 794 
z
" transform="scale(0.015625)"/>
      </defs>
      <use xlink:href="#DejaVuSans-30"/>
      <use xlink:href="#DejaVuSans-2e" x="63.623047"/>
      <use xlink:href="#DejaVuSans-31" x="95.410156"/>
     </g>
    </g>
    <g id="line2d_44">
     <path d="M 419.579125 180.867313 
L 429.579125 180.867313 
L 439.579125 180.867313 
" style="fill: none; stroke: #470d60; stroke-width: 1.5; stroke-linecap: square"/>
    </g>
    <g id="text_18">
     <!-- 0.121 -->
     <g transform="translate(447.579125 184.367313) scale(0.1 -0.1)">
      <use xlink:href="#DejaVuSans-30"/>
      <use xlink:href="#DejaVuSans-2e" x="63.623047"/>
      <use xlink:href="#DejaVuSans-31" x="95.410156"/>
      <use xlink:href="#DejaVuSans-32" x="159.033203"/>
      <use xlink:href="#DejaVuSans-31" x="222.65625"/>
     </g>
    </g>
    <g id="line2d_45">
     <path d="M 419.579125 195.545438 
L 429.579125 195.545438 
L 439.579125 195.545438 
" style="fill: none; stroke: #481a6c; stroke-width: 1.5; stroke-linecap: square"/>
    </g>
    <g id="text_19">
     <!-- 0.141 -->
     <g transform="translate(447.579125 199.045438) scale(0.1 -0.1)">
      <defs>
       <path id="DejaVuSans-34" d="M 2419 4116 
L 825 1625 
L 2419 1625 
L 2419 4116 
z
M 2253 4666 
L 3047 4666 
L 3047 1625 
L 3713 1625 
L 3713 1100 
L 3047 1100 
L 3047 0 
L 2419 0 
L 2419 1100 
L 313 1100 
L 313 1709 
L 2253 4666 
z
" transform="scale(0.015625)"/>
      </defs>
      <use xlink:href="#DejaVuSans-30"/>
      <use xlink:href="#DejaVuSans-2e" x="63.623047"/>
      <use xlink:href="#DejaVuSans-31" x="95.410156"/>
      <use xlink:href="#DejaVuSans-34" x="159.033203"/>
      <use xlink:href="#DejaVuSans-31" x="222.65625"/>
     </g>
    </g>
    <g id="line2d_46">
     <path d="M 419.579125 210.223563 
L 429.579125 210.223563 
L 439.579125 210.223563 
" style="fill: none; stroke: #482576; stroke-width: 1.5; stroke-linecap: square"/>
    </g>
    <g id="text_20">
     <!-- 0.162 -->
     <g transform="translate(447.579125 213.723563) scale(0.1 -0.1)">
      <use xlink:href="#DejaVuSans-30"/>
      <use xlink:href="#DejaVuSans-2e" x="63.623047"/>
      <use xlink:href="#DejaVuSans-31" x="95.410156"/>
      <use xlink:href="#DejaVuSans-36" x="159.033203"/>
      <use xlink:href="#DejaVuSans-32" x="222.65625"/>
     </g>
    </g>
    <g id="line2d_47">
     <path d="M 419.579125 224.901688 
L 429.579125 224.901688 
L 439.579125 224.901688 
" style="fill: none; stroke: #46307e; stroke-width: 1.5; stroke-linecap: square"/>
    </g>
    <g id="text_21">
     <!-- 0.183 -->
     <g transform="translate(447.579125 228.401688) scale(0.1 -0.1)">
      <defs>
       <path id="DejaVuSans-33" d="M 2597 2516 
Q 3050 2419 3304 2112 
Q 3559 1806 3559 1356 
Q 3559 666 3084 287 
Q 2609 -91 1734 -91 
Q 1441 -91 1130 -33 
Q 819 25 488 141 
L 488 750 
Q 750 597 1062 519 
Q 1375 441 1716 441 
Q 2309 441 2620 675 
Q 2931 909 2931 1356 
Q 2931 1769 2642 2001 
Q 2353 2234 1838 2234 
L 1294 2234 
L 1294 2753 
L 1863 2753 
Q 2328 2753 2575 2939 
Q 2822 3125 2822 3475 
Q 2822 3834 2567 4026 
Q 2313 4219 1838 4219 
Q 1578 4219 1281 4162 
Q 984 4106 628 3988 
L 628 4550 
Q 988 4650 1302 4700 
Q 1616 4750 1894 4750 
Q 2613 4750 3031 4423 
Q 3450 4097 3450 3541 
Q 3450 3153 3228 2886 
Q 3006 2619 2597 2516 
z
" transform="scale(0.015625)"/>
      </defs>
      <use xlink:href="#DejaVuSans-30"/>
      <use xlink:href="#DejaVuSans-2e" x="63.623047"/>
      <use xlink:href="#DejaVuSans-31" x="95.410156"/>
      <use xlink:href="#DejaVuSans-38" x="159.033203"/>
      <use xlink:href="#DejaVuSans-33" x="222.65625"/>
     </g>
    </g>
    <g id="line2d_48">
     <path d="M 419.579125 239.579813 
L 429.579125 239.579813 
L 439.579125 239.579813 
" style="fill: none; stroke: #443b84; stroke-width: 1.5; stroke-linecap: square"/>
    </g>
    <g id="text_22">
     <!-- 0.203 -->
     <g transform="translate(447.579125 243.079813) scale(0.1 -0.1)">
      <use xlink:href="#DejaVuSans-30"/>
      <use xlink:href="#DejaVuSans-2e" x="63.623047"/>
      <use xlink:href="#DejaVuSans-32" x="95.410156"/>
      <use xlink:href="#DejaVuSans-30" x="159.033203"/>
      <use xlink:href="#DejaVuSans-33" x="222.65625"/>
     </g>
    </g>
    <g id="line2d_49">
     <path d="M 419.579125 254.257938 
L 429.579125 254.257938 
L 439.579125 254.257938 
" style="fill: none; stroke: #404588; stroke-width: 1.5; stroke-linecap: square"/>
    </g>
    <g id="text_23">
     <!-- 0.224 -->
     <g transform="translate(447.579125 257.757938) scale(0.1 -0.1)">
      <use xlink:href="#DejaVuSans-30"/>
      <use xlink:href="#DejaVuSans-2e" x="63.623047"/>
      <use xlink:href="#DejaVuSans-32" x="95.410156"/>
      <use xlink:href="#DejaVuSans-32" x="159.033203"/>
      <use xlink:href="#DejaVuSans-34" x="222.65625"/>
     </g>
    </g>
    <g id="line2d_50">
     <path d="M 419.579125 268.936062 
L 429.579125 268.936062 
L 439.579125 268.936062 
" style="fill: none; stroke: #3c4f8a; stroke-width: 1.5; stroke-linecap: square"/>
    </g>
    <g id="text_24">
     <!-- 0.245 -->
     <g transform="translate(447.579125 272.436062) scale(0.1 -0.1)">
      <use xlink:href="#DejaVuSans-30"/>
      <use xlink:href="#DejaVuSans-2e" x="63.623047"/>
      <use xlink:href="#DejaVuSans-32" x="95.410156"/>
      <use xlink:href="#DejaVuSans-34" x="159.033203"/>
      <use xlink:href="#DejaVuSans-35" x="222.65625"/>
     </g>
    </g>
    <g id="line2d_51">
     <path d="M 419.579125 283.614188 
L 429.579125 283.614188 
L 439.579125 283.614188 
" style="fill: none; stroke: #38598c; stroke-width: 1.5; stroke-linecap: square"/>
    </g>
    <g id="text_25">
     <!-- 0.266 -->
     <g transform="translate(447.579125 287.114188) scale(0.1 -0.1)">
      <use xlink:href="#DejaVuSans-30"/>
      <use xlink:href="#DejaVuSans-2e" x="63.623047"/>
      <use xlink:href="#DejaVuSans-32" x="95.410156"/>
      <use xlink:href="#DejaVuSans-36" x="159.033203"/>
      <use xlink:href="#DejaVuSans-36" x="222.65625"/>
     </g>
    </g>
    <g id="line2d_52">
     <path d="M 419.579125 298.292312 
L 429.579125 298.292312 
L 439.579125 298.292312 
" style="fill: none; stroke: #33628d; stroke-width: 1.5; stroke-linecap: square"/>
    </g>
    <g id="text_26">
     <!-- 0.286 -->
     <g transform="translate(447.579125 301.792312) scale(0.1 -0.1)">
      <use xlink:href="#DejaVuSans-30"/>
      <use xlink:href="#DejaVuSans-2e" x="63.623047"/>
      <use xlink:href="#DejaVuSans-32" x="95.410156"/>
      <use xlink:href="#DejaVuSans-38" x="159.033203"/>
      <use xlink:href="#DejaVuSans-36" x="222.65625"/>
     </g>
    </g>
    <g id="line2d_53">
     <path d="M 496.20725 166.189188 
L 506.20725 166.189188 
L 516.20725 166.189188 
" style="fill: none; stroke: #2f6b8e; stroke-width: 1.5; stroke-linecap: square"/>
    </g>
    <g id="text_27">
     <!-- 0.307 -->
     <g transform="translate(524.20725 169.689188) scale(0.1 -0.1)">
      <use xlink:href="#DejaVuSans-30"/>
      <use xlink:href="#DejaVuSans-2e" x="63.623047"/>
      <use xlink:href="#DejaVuSans-33" x="95.410156"/>
      <use xlink:href="#DejaVuSans-30" x="159.033203"/>
      <use xlink:href="#DejaVuSans-37" x="222.65625"/>
     </g>
    </g>
    <g id="line2d_54">
     <path d="M 496.20725 180.867313 
L 506.20725 180.867313 
L 516.20725 180.867313 
" style="fill: none; stroke: #2c738e; stroke-width: 1.5; stroke-linecap: square"/>
    </g>
    <g id="text_28">
     <!-- 0.328 -->
     <g transform="translate(524.20725 184.367313) scale(0.1 -0.1)">
      <use xlink:href="#DejaVuSans-30"/>
      <use xlink:href="#DejaVuSans-2e" x="63.623047"/>
      <use xlink:href="#DejaVuSans-33" x="95.410156"/>
      <use xlink:href="#DejaVuSans-32" x="159.033203"/>
      <use xlink:href="#DejaVuSans-38" x="222.65625"/>
     </g>
    </g>
    <g id="line2d_55">
     <path d="M 496.20725 195.545438 
L 506.20725 195.545438 
L 516.20725 195.545438 
" style="fill: none; stroke: #297b8e; stroke-width: 1.5; stroke-linecap: square"/>
    </g>
    <g id="text_29">
     <!-- 0.348 -->
     <g transform="translate(524.20725 199.045438) scale(0.1 -0.1)">
      <use xlink:href="#DejaVuSans-30"/>
      <use xlink:href="#DejaVuSans-2e" x="63.623047"/>
      <use xlink:href="#DejaVuSans-33" x="95.410156"/>
      <use xlink:href="#DejaVuSans-34" x="159.033203"/>
      <use xlink:href="#DejaVuSans-38" x="222.65625"/>
     </g>
    </g>
    <g id="line2d_56">
     <path d="M 496.20725 210.223563 
L 506.20725 210.223563 
L 516.20725 210.223563 
" style="fill: none; stroke: #25838e; stroke-width: 1.5; stroke-linecap: square"/>
    </g>
    <g id="text_30">
     <!-- 0.369 -->
     <g transform="translate(524.20725 213.723563) scale(0.1 -0.1)">
      <use xlink:href="#DejaVuSans-30"/>
      <use xlink:href="#DejaVuSans-2e" x="63.623047"/>
      <use xlink:href="#DejaVuSans-33" x="95.410156"/>
      <use xlink:href="#DejaVuSans-36" x="159.033203"/>
      <use xlink:href="#DejaVuSans-39" x="222.65625"/>
     </g>
    </g>
    <g id="line2d_57">
     <path d="M 496.20725 224.901688 
L 506.20725 224.901688 
L 516.20725 224.901688 
" style="fill: none; stroke: #228c8d; stroke-width: 1.5; stroke-linecap: square"/>
    </g>
    <g id="text_31">
     <!-- 0.39 -->
     <g transform="translate(524.20725 228.401688) scale(0.1 -0.1)">
      <use xlink:href="#DejaVuSans-30"/>
      <use xlink:href="#DejaVuSans-2e" x="63.623047"/>
      <use xlink:href="#DejaVuSans-33" x="95.410156"/>
      <use xlink:href="#DejaVuSans-39" x="159.033203"/>
     </g>
    </g>
    <g id="line2d_58">
     <path d="M 496.20725 239.579813 
L 506.20725 239.579813 
L 516.20725 239.579813 
" style="fill: none; stroke: #1f948c; stroke-width: 1.5; stroke-linecap: square"/>
    </g>
    <g id="text_32">
     <!-- 0.41 -->
     <g transform="translate(524.20725 243.079813) scale(0.1 -0.1)">
      <use xlink:href="#DejaVuSans-30"/>
      <use xlink:href="#DejaVuSans-2e" x="63.623047"/>
      <use xlink:href="#DejaVuSans-34" x="95.410156"/>
      <use xlink:href="#DejaVuSans-31" x="159.033203"/>
     </g>
    </g>
    <g id="line2d_59">
     <path d="M 496.20725 254.257938 
L 506.20725 254.257938 
L 516.20725 254.257938 
" style="fill: none; stroke: #1e9d89; stroke-width: 1.5; stroke-linecap: square"/>
    </g>
    <g id="text_33">
     <!-- 0.431 -->
     <g transform="translate(524.20725 257.757938) scale(0.1 -0.1)">
      <use xlink:href="#DejaVuSans-30"/>
      <use xlink:href="#DejaVuSans-2e" x="63.623047"/>
      <use xlink:href="#DejaVuSans-34" x="95.410156"/>
      <use xlink:href="#DejaVuSans-33" x="159.033203"/>
      <use xlink:href="#DejaVuSans-31" x="222.65625"/>
     </g>
    </g>
    <g id="line2d_60">
     <path d="M 496.20725 268.936062 
L 506.20725 268.936062 
L 516.20725 268.936062 
" style="fill: none; stroke: #21a585; stroke-width: 1.5; stroke-linecap: square"/>
    </g>
    <g id="text_34">
     <!-- 0.452 -->
     <g transform="translate(524.20725 272.436062) scale(0.1 -0.1)">
      <use xlink:href="#DejaVuSans-30"/>
      <use xlink:href="#DejaVuSans-2e" x="63.623047"/>
      <use xlink:href="#DejaVuSans-34" x="95.410156"/>
      <use xlink:href="#DejaVuSans-35" x="159.033203"/>
      <use xlink:href="#DejaVuSans-32" x="222.65625"/>
     </g>
    </g>
    <g id="line2d_61">
     <path d="M 496.20725 283.614188 
L 506.20725 283.614188 
L 516.20725 283.614188 
" style="fill: none; stroke: #26ad81; stroke-width: 1.5; stroke-linecap: square"/>
    </g>
    <g id="text_35">
     <!-- 0.472 -->
     <g transform="translate(524.20725 287.114188) scale(0.1 -0.1)">
      <use xlink:href="#DejaVuSans-30"/>
      <use xlink:href="#DejaVuSans-2e" x="63.623047"/>
      <use xlink:href="#DejaVuSans-34" x="95.410156"/>
      <use xlink:href="#DejaVuSans-37" x="159.033203"/>
      <use xlink:href="#DejaVuSans-32" x="222.65625"/>
     </g>
    </g>
    <g id="line2d_62">
     <path d="M 496.20725 298.292312 
L 506.20725 298.292312 
L 516.20725 298.292312 
" style="fill: none; stroke: #31b57b; stroke-width: 1.5; stroke-linecap: square"/>
    </g>
    <g id="text_36">
     <!-- 0.493 -->
     <g transform="translate(524.20725 301.792312) scale(0.1 -0.1)">
      <use xlink:href="#DejaVuSans-30"/>
      <use xlink:href="#DejaVuSans-2e" x="63.623047"/>
      <use xlink:href="#DejaVuSans-34" x="95.410156"/>
      <use xlink:href="#DejaVuSans-39" x="159.033203"/>
      <use xlink:href="#DejaVuSans-33" x="222.65625"/>
     </g>
    </g>
    <g id="line2d_63">
     <path d="M 572.835375 166.189188 
L 582.835375 166.189188 
L 592.835375 166.189188 
" style="fill: none; stroke: #3fbc73; stroke-width: 1.5; stroke-linecap: square"/>
    </g>
    <g id="text_37">
     <!-- 0.514 -->
     <g transform="translate(600.835375 169.689188) scale(0.1 -0.1)">
      <use xlink:href="#DejaVuSans-30"/>
      <use xlink:href="#DejaVuSans-2e" x="63.623047"/>
      <use xlink:href="#DejaVuSans-35" x="95.410156"/>
      <use xlink:href="#DejaVuSans-31" x="159.033203"/>
      <use xlink:href="#DejaVuSans-34" x="222.65625"/>
     </g>
    </g>
    <g id="line2d_64">
     <path d="M 572.835375 180.867313 
L 582.835375 180.867313 
L 592.835375 180.867313 
" style="fill: none; stroke: #50c46a; stroke-width: 1.5; stroke-linecap: square"/>
    </g>
    <g id="text_38">
     <!-- 0.534 -->
     <g transform="translate(600.835375 184.367313) scale(0.1 -0.1)">
      <use xlink:href="#DejaVuSans-30"/>
      <use xlink:href="#DejaVuSans-2e" x="63.623047"/>
      <use xlink:href="#DejaVuSans-35" x="95.410156"/>
      <use xlink:href="#DejaVuSans-33" x="159.033203"/>
      <use xlink:href="#DejaVuSans-34" x="222.65625"/>
     </g>
    </g>
    <g id="line2d_65">
     <path d="M 572.835375 195.545438 
L 582.835375 195.545438 
L 592.835375 195.545438 
" style="fill: none; stroke: #63cb5f; stroke-width: 1.5; stroke-linecap: square"/>
    </g>
    <g id="text_39">
     <!-- 0.555 -->
     <g transform="translate(600.835375 199.045438) scale(0.1 -0.1)">
      <use xlink:href="#DejaVuSans-30"/>
      <use xlink:href="#DejaVuSans-2e" x="63.623047"/>
      <use xlink:href="#DejaVuSans-35" x="95.410156"/>
      <use xlink:href="#DejaVuSans-35" x="159.033203"/>
      <use xlink:href="#DejaVuSans-35" x="222.65625"/>
     </g>
    </g>
    <g id="line2d_66">
     <path d="M 572.835375 210.223563 
L 582.835375 210.223563 
L 592.835375 210.223563 
" style="fill: none; stroke: #77d153; stroke-width: 1.5; stroke-linecap: square"/>
    </g>
    <g id="text_40">
     <!-- 0.576 -->
     <g transform="translate(600.835375 213.723563) scale(0.1 -0.1)">
      <use xlink:href="#DejaVuSans-30"/>
      <use xlink:href="#DejaVuSans-2e" x="63.623047"/>
      <use xlink:href="#DejaVuSans-35" x="95.410156"/>
      <use xlink:href="#DejaVuSans-37" x="159.033203"/>
      <use xlink:href="#DejaVuSans-36" x="222.65625"/>
     </g>
    </g>
    <g id="line2d_67">
     <path d="M 572.835375 224.901688 
L 582.835375 224.901688 
L 592.835375 224.901688 
" style="fill: none; stroke: #8bd646; stroke-width: 1.5; stroke-linecap: square"/>
    </g>
    <g id="text_41">
     <!-- 0.597 -->
     <g transform="translate(600.835375 228.401688) scale(0.1 -0.1)">
      <use xlink:href="#DejaVuSans-30"/>
      <use xlink:href="#DejaVuSans-2e" x="63.623047"/>
      <use xlink:href="#DejaVuSans-35" x="95.410156"/>
      <use xlink:href="#DejaVuSans-39" x="159.033203"/>
      <use xlink:href="#DejaVuSans-37" x="222.65625"/>
     </g>
    </g>
    <g id="line2d_68">
     <path d="M 572.835375 239.579813 
L 582.835375 239.579813 
L 592.835375 239.579813 
" style="fill: none; stroke: #a2da37; stroke-width: 1.5; stroke-linecap: square"/>
    </g>
    <g id="text_42">
     <!-- 0.617 -->
     <g transform="translate(600.835375 243.079813) scale(0.1 -0.1)">
      <use xlink:href="#DejaVuSans-30"/>
      <use xlink:href="#DejaVuSans-2e" x="63.623047"/>
      <use xlink:href="#DejaVuSans-36" x="95.410156"/>
      <use xlink:href="#DejaVuSans-31" x="159.033203"/>
      <use xlink:href="#DejaVuSans-37" x="222.65625"/>
     </g>
    </g>
    <g id="line2d_69">
     <path d="M 572.835375 254.257938 
L 582.835375 254.257938 
L 592.835375 254.257938 
" style="fill: none; stroke: #bade28; stroke-width: 1.5; stroke-linecap: square"/>
    </g>
    <g id="text_43">
     <!-- 0.638 -->
     <g transform="translate(600.835375 257.757938) scale(0.1 -0.1)">
      <use xlink:href="#DejaVuSans-30"/>
      <use xlink:href="#DejaVuSans-2e" x="63.623047"/>
      <use xlink:href="#DejaVuSans-36" x="95.410156"/>
      <use xlink:href="#DejaVuSans-33" x="159.033203"/>
      <use xlink:href="#DejaVuSans-38" x="222.65625"/>
     </g>
    </g>
    <g id="line2d_70">
     <path d="M 572.835375 268.936062 
L 582.835375 268.936062 
L 592.835375 268.936062 
" style="fill: none; stroke: #d2e21b; stroke-width: 1.5; stroke-linecap: square"/>
    </g>
    <g id="text_44">
     <!-- 0.659 -->
     <g transform="translate(600.835375 272.436062) scale(0.1 -0.1)">
      <use xlink:href="#DejaVuSans-30"/>
      <use xlink:href="#DejaVuSans-2e" x="63.623047"/>
      <use xlink:href="#DejaVuSans-36" x="95.410156"/>
      <use xlink:href="#DejaVuSans-35" x="159.033203"/>
      <use xlink:href="#DejaVuSans-39" x="222.65625"/>
     </g>
    </g>
    <g id="line2d_71">
     <path d="M 572.835375 283.614188 
L 582.835375 283.614188 
L 592.835375 283.614188 
" style="fill: none; stroke: #eae51a; stroke-width: 1.5; stroke-linecap: square"/>
    </g>
    <g id="text_45">
     <!-- 0.679 -->
     <g transform="translate(600.835375 287.114188) scale(0.1 -0.1)">
      <use xlink:href="#DejaVuSans-30"/>
      <use xlink:href="#DejaVuSans-2e" x="63.623047"/>
      <use xlink:href="#DejaVuSans-36" x="95.410156"/>
      <use xlink:href="#DejaVuSans-37" x="159.033203"/>
      <use xlink:href="#DejaVuSans-39" x="222.65625"/>
     </g>
    </g>
    <g id="line2d_72">
     <path d="M 572.835375 298.292312 
L 582.835375 298.292312 
L 592.835375 298.292312 
" style="fill: none; stroke: #fde725; stroke-width: 1.5; stroke-linecap: square"/>
    </g>
    <g id="text_46">
     <!-- 0.7 -->
     <g transform="translate(600.835375 301.792312) scale(0.1 -0.1)">
      <use xlink:href="#DejaVuSans-30"/>
      <use xlink:href="#DejaVuSans-2e" x="63.623047"/>
      <use xlink:href="#DejaVuSans-37" x="95.410156"/>
     </g>
    </g>
   </g>
  </g>
  <g id="text_47">
   <!-- x0x1-y0 One-tone-powerDep -->
   <g transform="translate(126.599063 16.318125) scale(0.12 -0.12)">
    <defs>
     <path id="DejaVuSans-78" d="M 3513 3500 
L 2247 1797 
L 3578 0 
L 2900 0 
L 1881 1375 
L 863 0 
L 184 0 
L 1544 1831 
L 300 3500 
L 978 3500 
L 1906 2253 
L 2834 3500 
L 3513 3500 
z
" transform="scale(0.015625)"/>
     <path id="DejaVuSans-2d" d="M 313 2009 
L 1997 2009 
L 1997 1497 
L 313 1497 
L 313 2009 
z
" transform="scale(0.015625)"/>
     <path id="DejaVuSans-4f" d="M 2522 4238 
Q 1834 4238 1429 3725 
Q 1025 3213 1025 2328 
Q 1025 1447 1429 934 
Q 1834 422 2522 422 
Q 3209 422 3611 934 
Q 4013 1447 4013 2328 
Q 4013 3213 3611 3725 
Q 3209 4238 2522 4238 
z
M 2522 4750 
Q 3503 4750 4090 4092 
Q 4678 3434 4678 2328 
Q 4678 1225 4090 567 
Q 3503 -91 2522 -91 
Q 1538 -91 948 565 
Q 359 1222 359 2328 
Q 359 3434 948 4092 
Q 1538 4750 2522 4750 
z
" transform="scale(0.015625)"/>
     <path id="DejaVuSans-77" d="M 269 3500 
L 844 3500 
L 1563 769 
L 2278 3500 
L 2956 3500 
L 3675 769 
L 4391 3500 
L 4966 3500 
L 4050 0 
L 3372 0 
L 2619 2869 
L 1863 0 
L 1184 0 
L 269 3500 
z
" transform="scale(0.015625)"/>
     <path id="DejaVuSans-44" d="M 1259 4147 
L 1259 519 
L 2022 519 
Q 2988 519 3436 956 
Q 3884 1394 3884 2338 
Q 3884 3275 3436 3711 
Q 2988 4147 2022 4147 
L 1259 4147 
z
M 628 4666 
L 1925 4666 
Q 3281 4666 3915 4102 
Q 4550 3538 4550 2338 
Q 4550 1131 3912 565 
Q 3275 0 1925 0 
L 628 0 
L 628 4666 
z
" transform="scale(0.015625)"/>
    </defs>
    <use xlink:href="#DejaVuSans-78"/>
    <use xlink:href="#DejaVuSans-30" x="59.179688"/>
    <use xlink:href="#DejaVuSans-78" x="122.802734"/>
    <use xlink:href="#DejaVuSans-31" x="181.982422"/>
    <use xlink:href="#DejaVuSans-2d" x="245.605469"/>
    <use xlink:href="#DejaVuSans-79" x="279.939453"/>
    <use xlink:href="#DejaVuSans-30" x="339.119141"/>
    <use xlink:href="#DejaVuSans-20" x="402.742188"/>
    <use xlink:href="#DejaVuSans-4f" x="434.529297"/>
    <use xlink:href="#DejaVuSans-6e" x="513.240234"/>
    <use xlink:href="#DejaVuSans-65" x="576.619141"/>
    <use xlink:href="#DejaVuSans-2d" x="638.142578"/>
    <use xlink:href="#DejaVuSans-74" x="674.226562"/>
    <use xlink:href="#DejaVuSans-6f" x="713.435547"/>
    <use xlink:href="#DejaVuSans-6e" x="774.617188"/>
    <use xlink:href="#DejaVuSans-65" x="837.996094"/>
    <use xlink:href="#DejaVuSans-2d" x="899.519531"/>
    <use xlink:href="#DejaVuSans-70" x="935.603516"/>
    <use xlink:href="#DejaVuSans-6f" x="999.080078"/>
    <use xlink:href="#DejaVuSans-77" x="1060.261719"/>
    <use xlink:href="#DejaVuSans-65" x="1142.048828"/>
    <use xlink:href="#DejaVuSans-72" x="1203.572266"/>
    <use xlink:href="#DejaVuSans-44" x="1244.685547"/>
    <use xlink:href="#DejaVuSans-65" x="1321.6875"/>
    <use xlink:href="#DejaVuSans-70" x="1383.210938"/>
   </g>
   <!-- tuid: 20240304-161148-780-e9a861 -->
   <g transform="translate(103.814063 29.7555) scale(0.12 -0.12)">
    <defs>
     <path id="DejaVuSans-3a" d="M 750 794 
L 1409 794 
L 1409 0 
L 750 0 
L 750 794 
z
M 750 3309 
L 1409 3309 
L 1409 2516 
L 750 2516 
L 750 3309 
z
" transform="scale(0.015625)"/>
    </defs>
    <use xlink:href="#DejaVuSans-74"/>
    <use xlink:href="#DejaVuSans-75" x="39.208984"/>
    <use xlink:href="#DejaVuSans-69" x="102.587891"/>
    <use xlink:href="#DejaVuSans-64" x="130.371094"/>
    <use xlink:href="#DejaVuSans-3a" x="193.847656"/>
    <use xlink:href="#DejaVuSans-20" x="227.539062"/>
    <use xlink:href="#DejaVuSans-32" x="259.326172"/>
    <use xlink:href="#DejaVuSans-30" x="322.949219"/>
    <use xlink:href="#DejaVuSans-32" x="386.572266"/>
    <use xlink:href="#DejaVuSans-34" x="450.195312"/>
    <use xlink:href="#DejaVuSans-30" x="513.818359"/>
    <use xlink:href="#DejaVuSans-33" x="577.441406"/>
    <use xlink:href="#DejaVuSans-30" x="641.064453"/>
    <use xlink:href="#DejaVuSans-34" x="704.6875"/>
    <use xlink:href="#DejaVuSans-2d" x="768.310547"/>
    <use xlink:href="#DejaVuSans-31" x="804.394531"/>
    <use xlink:href="#DejaVuSans-36" x="868.017578"/>
    <use xlink:href="#DejaVuSans-31" x="931.640625"/>
    <use xlink:href="#DejaVuSans-31" x="995.263672"/>
    <use xlink:href="#DejaVuSans-34" x="1058.886719"/>
    <use xlink:href="#DejaVuSans-38" x="1122.509766"/>
    <use xlink:href="#DejaVuSans-2d" x="1186.132812"/>
    <use xlink:href="#DejaVuSans-37" x="1222.216797"/>
    <use xlink:href="#DejaVuSans-38" x="1285.839844"/>
    <use xlink:href="#DejaVuSans-30" x="1349.462891"/>
    <use xlink:href="#DejaVuSans-2d" x="1413.085938"/>
    <use xlink:href="#DejaVuSans-65" x="1449.169922"/>
    <use xlink:href="#DejaVuSans-39" x="1510.693359"/>
    <use xlink:href="#DejaVuSans-61" x="1574.316406"/>
    <use xlink:href="#DejaVuSans-38" x="1635.595703"/>
    <use xlink:href="#DejaVuSans-36" x="1699.21875"/>
    <use xlink:href="#DejaVuSans-31" x="1762.841797"/>
   </g>
  </g>
 </g>
 <defs>
  <clipPath id="pd6c24afbba">
   <rect x="40.603125" y="41.76" width="357.12" height="266.112"/>
  </clipPath>
 </defs>
</svg>
