<?xml version="1.0" encoding="utf-8" standalone="no"?>
<!DOCTYPE svg PUBLIC "-//W3C//DTD SVG 1.1//EN"
  "http://www.w3.org/Graphics/SVG/1.1/DTD/svg11.dtd">
<svg xmlns:xlink="http://www.w3.org/1999/xlink" width="571.671312pt" height="345.42825pt" viewBox="0 0 571.671312 345.42825" xmlns="http://www.w3.org/2000/svg" version="1.1">
 <metadata>
  <rdf:RDF xmlns:dc="http://purl.org/dc/elements/1.1/" xmlns:cc="http://creativecommons.org/ns#" xmlns:rdf="http://www.w3.org/1999/02/22-rdf-syntax-ns#">
   <cc:Work>
    <dc:type rdf:resource="http://purl.org/dc/dcmitype/StillImage"/>
    <dc:date>2024-03-11T11:33:26.933879</dc:date>
    <dc:format>image/svg+xml</dc:format>
    <dc:creator>
     <cc:Agent>
      <dc:title>Matplotlib v3.8.2, https://matplotlib.org/</dc:title>
     </cc:Agent>
    </dc:creator>
   </cc:Work>
  </rdf:RDF>
 </metadata>
 <defs>
  <style type="text/css">*{stroke-linejoin: round; stroke-linecap: butt}</style>
 </defs>
 <g id="figure_1">
  <g id="patch_1">
   <path d="M 0 345.42825 
L 571.671312 345.42825 
L 571.671312 -0 
L 0 -0 
L 0 345.42825 
z
" style="fill: none; opacity: 0"/>
  </g>
  <g id="axes_1">
   <g id="patch_2">
    <path d="M 50.595313 162.72 
L 407.715312 162.72 
L 407.715312 41.76 
L 50.595313 41.76 
z
" style="fill: #ffffff"/>
   </g>
   <g id="matplotlib.axis_1">
    <g id="xtick_1">
     <g id="line2d_1">
      <defs>
       <path id="m681a26d54a" d="M 0 0 
L 0 3.5 
" style="stroke: #000000; stroke-width: 0.8"/>
      </defs>
      <g>
       <use xlink:href="#m681a26d54a" x="91.068912" y="162.72" style="stroke: #000000; stroke-width: 0.8"/>
      </g>
     </g>
    </g>
    <g id="xtick_2">
     <g id="line2d_2">
      <g>
       <use xlink:href="#m681a26d54a" x="145.178003" y="162.72" style="stroke: #000000; stroke-width: 0.8"/>
      </g>
     </g>
    </g>
    <g id="xtick_3">
     <g id="line2d_3">
      <g>
       <use xlink:href="#m681a26d54a" x="199.287094" y="162.72" style="stroke: #000000; stroke-width: 0.8"/>
      </g>
     </g>
    </g>
    <g id="xtick_4">
     <g id="line2d_4">
      <g>
       <use xlink:href="#m681a26d54a" x="253.396185" y="162.72" style="stroke: #000000; stroke-width: 0.8"/>
      </g>
     </g>
    </g>
    <g id="xtick_5">
     <g id="line2d_5">
      <g>
       <use xlink:href="#m681a26d54a" x="307.505276" y="162.72" style="stroke: #000000; stroke-width: 0.8"/>
      </g>
     </g>
    </g>
    <g id="xtick_6">
     <g id="line2d_6">
      <g>
       <use xlink:href="#m681a26d54a" x="361.614367" y="162.72" style="stroke: #000000; stroke-width: 0.8"/>
      </g>
     </g>
    </g>
   </g>
   <g id="matplotlib.axis_2">
    <g id="ytick_1">
     <g id="line2d_7">
      <defs>
       <path id="m7d850bd934" d="M 0 0 
L -3.5 0 
" style="stroke: #000000; stroke-width: 0.8"/>
      </defs>
      <g>
       <use xlink:href="#m7d850bd934" x="50.595313" y="128.795565" style="stroke: #000000; stroke-width: 0.8"/>
      </g>
     </g>
     <g id="text_1">
      <!-- 100 -->
      <g transform="translate(24.507813 132.594784) scale(0.1 -0.1)">
       <defs>
        <path id="DejaVuSans-31" d="M 794 531 
L 1825 531 
L 1825 4091 
L 703 3866 
L 703 4441 
L 1819 4666 
L 2450 4666 
L 2450 531 
L 3481 531 
L 3481 0 
L 794 0 
L 794 531 
z
" transform="scale(0.015625)"/>
        <path id="DejaVuSans-30" d="M 2034 4250 
Q 1547 4250 1301 3770 
Q 1056 3291 1056 2328 
Q 1056 1369 1301 889 
Q 1547 409 2034 409 
Q 2525 409 2770 889 
Q 3016 1369 3016 2328 
Q 3016 3291 2770 3770 
Q 2525 4250 2034 4250 
z
M 2034 4750 
Q 2819 4750 3233 4129 
Q 3647 3509 3647 2328 
Q 3647 1150 3233 529 
Q 2819 -91 2034 -91 
Q 1250 -91 836 529 
Q 422 1150 422 2328 
Q 422 3509 836 4129 
Q 1250 4750 2034 4750 
z
" transform="scale(0.015625)"/>
       </defs>
       <use xlink:href="#DejaVuSans-31"/>
       <use xlink:href="#DejaVuSans-30" x="63.623047"/>
       <use xlink:href="#DejaVuSans-30" x="127.246094"/>
      </g>
     </g>
    </g>
    <g id="ytick_2">
     <g id="line2d_8">
      <g>
       <use xlink:href="#m7d850bd934" x="50.595313" y="91.414913" style="stroke: #000000; stroke-width: 0.8"/>
      </g>
     </g>
     <g id="text_2">
      <!-- 200 -->
      <g transform="translate(24.507813 95.214132) scale(0.1 -0.1)">
       <defs>
        <path id="DejaVuSans-32" d="M 1228 531 
L 3431 531 
L 3431 0 
L 469 0 
L 469 531 
Q 828 903 1448 1529 
Q 2069 2156 2228 2338 
Q 2531 2678 2651 2914 
Q 2772 3150 2772 3378 
Q 2772 3750 2511 3984 
Q 2250 4219 1831 4219 
Q 1534 4219 1204 4116 
Q 875 4013 500 3803 
L 500 4441 
Q 881 4594 1212 4672 
Q 1544 4750 1819 4750 
Q 2544 4750 2975 4387 
Q 3406 4025 3406 3419 
Q 3406 3131 3298 2873 
Q 3191 2616 2906 2266 
Q 2828 2175 2409 1742 
Q 1991 1309 1228 531 
z
" transform="scale(0.015625)"/>
       </defs>
       <use xlink:href="#DejaVuSans-32"/>
       <use xlink:href="#DejaVuSans-30" x="63.623047"/>
       <use xlink:href="#DejaVuSans-30" x="127.246094"/>
      </g>
     </g>
    </g>
    <g id="ytick_3">
     <g id="line2d_9">
      <g>
       <use xlink:href="#m7d850bd934" x="50.595313" y="54.034261" style="stroke: #000000; stroke-width: 0.8"/>
      </g>
     </g>
     <g id="text_3">
      <!-- 300 -->
      <g transform="translate(24.507813 57.83348) scale(0.1 -0.1)">
       <defs>
        <path id="DejaVuSans-33" d="M 2597 2516 
Q 3050 2419 3304 2112 
Q 3559 1806 3559 1356 
Q 3559 666 3084 287 
Q 2609 -91 1734 -91 
Q 1441 -91 1130 -33 
Q 819 25 488 141 
L 488 750 
Q 750 597 1062 519 
Q 1375 441 1716 441 
Q 2309 441 2620 675 
Q 2931 909 2931 1356 
Q 2931 1769 2642 2001 
Q 2353 2234 1838 2234 
L 1294 2234 
L 1294 2753 
L 1863 2753 
Q 2328 2753 2575 2939 
Q 2822 3125 2822 3475 
Q 2822 3834 2567 4026 
Q 2313 4219 1838 4219 
Q 1578 4219 1281 4162 
Q 984 4106 628 3988 
L 628 4550 
Q 988 4650 1302 4700 
Q 1616 4750 1894 4750 
Q 2613 4750 3031 4423 
Q 3450 4097 3450 3541 
Q 3450 3153 3228 2886 
Q 3006 2619 2597 2516 
z
" transform="scale(0.015625)"/>
       </defs>
       <use xlink:href="#DejaVuSans-33"/>
       <use xlink:href="#DejaVuSans-30" x="63.623047"/>
       <use xlink:href="#DejaVuSans-30" x="127.246094"/>
      </g>
     </g>
    </g>
    <g id="text_4">
     <!-- $|S_{21}|$ [mV] -->
     <g transform="translate(18.107813 127.19) rotate(-90) scale(0.1 -0.1)">
      <defs>
       <path id="DejaVuSans-7c" d="M 1344 4891 
L 1344 -1509 
L 813 -1509 
L 813 4891 
L 1344 4891 
z
" transform="scale(0.015625)"/>
       <path id="DejaVuSans-Oblique-53" d="M 3859 4513 
L 3738 3897 
Q 3422 4066 3111 4152 
Q 2800 4238 2509 4238 
Q 1944 4238 1609 3991 
Q 1275 3744 1275 3334 
Q 1275 3109 1398 2989 
Q 1522 2869 2034 2731 
L 2413 2638 
Q 3053 2472 3303 2217 
Q 3553 1963 3553 1503 
Q 3553 797 2998 353 
Q 2444 -91 1538 -91 
Q 1166 -91 791 -17 
Q 416 56 38 206 
L 166 856 
Q 513 641 861 531 
Q 1209 422 1556 422 
Q 2147 422 2503 684 
Q 2859 947 2859 1369 
Q 2859 1650 2717 1795 
Q 2575 1941 2106 2059 
L 1728 2156 
Q 1081 2325 845 2545 
Q 609 2766 609 3163 
Q 609 3859 1145 4304 
Q 1681 4750 2541 4750 
Q 2875 4750 3203 4690 
Q 3531 4631 3859 4513 
z
" transform="scale(0.015625)"/>
       <path id="DejaVuSans-20" transform="scale(0.015625)"/>
       <path id="DejaVuSans-5b" d="M 550 4863 
L 1875 4863 
L 1875 4416 
L 1125 4416 
L 1125 -397 
L 1875 -397 
L 1875 -844 
L 550 -844 
L 550 4863 
z
" transform="scale(0.015625)"/>
       <path id="DejaVuSans-6d" d="M 3328 2828 
Q 3544 3216 3844 3400 
Q 4144 3584 4550 3584 
Q 5097 3584 5394 3201 
Q 5691 2819 5691 2113 
L 5691 0 
L 5113 0 
L 5113 2094 
Q 5113 2597 4934 2840 
Q 4756 3084 4391 3084 
Q 3944 3084 3684 2787 
Q 3425 2491 3425 1978 
L 3425 0 
L 2847 0 
L 2847 2094 
Q 2847 2600 2669 2842 
Q 2491 3084 2119 3084 
Q 1678 3084 1418 2786 
Q 1159 2488 1159 1978 
L 1159 0 
L 581 0 
L 581 3500 
L 1159 3500 
L 1159 2956 
Q 1356 3278 1631 3431 
Q 1906 3584 2284 3584 
Q 2666 3584 2933 3390 
Q 3200 3197 3328 2828 
z
" transform="scale(0.015625)"/>
       <path id="DejaVuSans-56" d="M 1831 0 
L 50 4666 
L 709 4666 
L 2188 738 
L 3669 4666 
L 4325 4666 
L 2547 0 
L 1831 0 
z
" transform="scale(0.015625)"/>
       <path id="DejaVuSans-5d" d="M 1947 4863 
L 1947 -844 
L 622 -844 
L 622 -397 
L 1369 -397 
L 1369 4416 
L 622 4416 
L 622 4863 
L 1947 4863 
z
" transform="scale(0.015625)"/>
      </defs>
      <use xlink:href="#DejaVuSans-7c" transform="translate(0 0.578125)"/>
      <use xlink:href="#DejaVuSans-Oblique-53" transform="translate(33.691406 0.578125)"/>
      <use xlink:href="#DejaVuSans-32" transform="translate(97.167969 -15.828125) scale(0.7)"/>
      <use xlink:href="#DejaVuSans-31" transform="translate(141.704102 -15.828125) scale(0.7)"/>
      <use xlink:href="#DejaVuSans-7c" transform="translate(188.974609 0.578125)"/>
      <use xlink:href="#DejaVuSans-20" transform="translate(222.666016 0.578125)"/>
      <use xlink:href="#DejaVuSans-5b" transform="translate(254.453125 0.578125)"/>
      <use xlink:href="#DejaVuSans-6d" transform="translate(293.466797 0.578125)"/>
      <use xlink:href="#DejaVuSans-56" transform="translate(390.878906 0.578125)"/>
      <use xlink:href="#DejaVuSans-5d" transform="translate(459.287109 0.578125)"/>
     </g>
    </g>
   </g>
   <g id="line2d_10">
    <path d="M 66.82804 47.258182 
L 96.193778 49.587539 
L 99.456637 49.709809 
L 101.088067 49.915402 
L 104.350927 50.09286 
L 109.245217 50.3944 
L 112.508076 50.585846 
L 125.559515 51.328307 
L 133.716665 51.66455 
L 146.768104 52.425225 
L 151.662393 52.602524 
L 154.925253 52.850916 
L 156.556683 52.864567 
L 161.450973 53.214403 
L 166.345262 53.454667 
L 167.976692 53.689758 
L 171.239552 53.888334 
L 184.290991 55.098644 
L 190.81671 56.028484 
L 197.34243 57.450241 
L 200.60529 58.405723 
L 203.868149 59.765902 
L 207.131009 61.531135 
L 208.762439 62.662105 
L 210.393869 63.996399 
L 212.025299 65.620825 
L 213.656729 67.516268 
L 215.288159 69.756615 
L 216.919588 72.628899 
L 218.551018 76.044206 
L 220.182448 80.375156 
L 221.813878 85.745111 
L 223.445308 92.584357 
L 225.076738 100.961646 
L 226.708168 111.299611 
L 228.339598 123.773425 
L 231.602457 151.319369 
L 233.233887 153.354315 
L 234.865317 140.532753 
L 236.496747 125.457429 
L 238.128177 111.825738 
L 239.759607 100.278911 
L 241.391037 90.74577 
L 243.022466 83.207771 
L 244.653896 77.325113 
L 246.285326 72.646696 
L 247.916756 68.883703 
L 249.548186 65.953753 
L 251.179616 63.590959 
L 252.811046 61.717622 
L 254.442476 60.154903 
L 256.073905 58.839222 
L 257.705335 57.79325 
L 260.968195 56.111449 
L 264.231055 54.923748 
L 267.493915 54.114262 
L 272.388204 53.212474 
L 277.282494 52.74212 
L 280.545354 52.499806 
L 282.176783 52.408631 
L 285.439643 52.380523 
L 291.965363 52.310477 
L 295.228223 52.384363 
L 309.911091 53.003928 
L 314.805381 53.343016 
L 316.436811 53.530786 
L 319.699671 53.736649 
L 324.59396 54.15674 
L 327.85682 54.433129 
L 334.38254 55.072283 
L 352.328268 56.987184 
L 357.222558 57.572719 
L 360.485418 57.936781 
L 376.799716 59.811828 
L 378.431146 59.94077 
L 380.062576 60.213753 
L 383.325436 60.497751 
L 386.588296 60.907303 
L 388.219725 61.017362 
L 391.482585 61.418641 
L 391.482585 61.418641 
" clip-path="url(#p83206d9852)" style="fill: none; stroke: #1f77b4; stroke-width: 1.5; stroke-linecap: square"/>
    <defs>
     <path id="m386b6537f0" d="M 0 1.5 
C 0.397805 1.5 0.77937 1.341951 1.06066 1.06066 
C 1.341951 0.77937 1.5 0.397805 1.5 0 
C 1.5 -0.397805 1.341951 -0.77937 1.06066 -1.06066 
C 0.77937 -1.341951 0.397805 -1.5 0 -1.5 
C -0.397805 -1.5 -0.77937 -1.341951 -1.06066 -1.06066 
C -1.341951 -0.77937 -1.5 -0.397805 -1.5 0 
C -1.5 0.397805 -1.341951 0.77937 -1.06066 1.06066 
C -0.77937 1.341951 -0.397805 1.5 0 1.5 
z
" style="stroke: #1f77b4"/>
    </defs>
    <g clip-path="url(#p83206d9852)">
     <use xlink:href="#m386b6537f0" x="66.82804" y="47.258182" style="fill: #1f77b4; stroke: #1f77b4"/>
     <use xlink:href="#m386b6537f0" x="68.45947" y="47.391004" style="fill: #1f77b4; stroke: #1f77b4"/>
     <use xlink:href="#m386b6537f0" x="70.0909" y="47.454389" style="fill: #1f77b4; stroke: #1f77b4"/>
     <use xlink:href="#m386b6537f0" x="71.722329" y="47.625467" style="fill: #1f77b4; stroke: #1f77b4"/>
     <use xlink:href="#m386b6537f0" x="73.353759" y="47.733171" style="fill: #1f77b4; stroke: #1f77b4"/>
     <use xlink:href="#m386b6537f0" x="74.985189" y="47.886515" style="fill: #1f77b4; stroke: #1f77b4"/>
     <use xlink:href="#m386b6537f0" x="76.616619" y="48.021735" style="fill: #1f77b4; stroke: #1f77b4"/>
     <use xlink:href="#m386b6537f0" x="78.248049" y="48.162042" style="fill: #1f77b4; stroke: #1f77b4"/>
     <use xlink:href="#m386b6537f0" x="79.879479" y="48.318033" style="fill: #1f77b4; stroke: #1f77b4"/>
     <use xlink:href="#m386b6537f0" x="81.510909" y="48.415797" style="fill: #1f77b4; stroke: #1f77b4"/>
     <use xlink:href="#m386b6537f0" x="83.142339" y="48.586957" style="fill: #1f77b4; stroke: #1f77b4"/>
     <use xlink:href="#m386b6537f0" x="84.773768" y="48.680585" style="fill: #1f77b4; stroke: #1f77b4"/>
     <use xlink:href="#m386b6537f0" x="86.405198" y="48.834197" style="fill: #1f77b4; stroke: #1f77b4"/>
     <use xlink:href="#m386b6537f0" x="88.036628" y="48.968315" style="fill: #1f77b4; stroke: #1f77b4"/>
     <use xlink:href="#m386b6537f0" x="89.668058" y="49.092487" style="fill: #1f77b4; stroke: #1f77b4"/>
     <use xlink:href="#m386b6537f0" x="91.299488" y="49.188273" style="fill: #1f77b4; stroke: #1f77b4"/>
     <use xlink:href="#m386b6537f0" x="92.930918" y="49.299441" style="fill: #1f77b4; stroke: #1f77b4"/>
     <use xlink:href="#m386b6537f0" x="94.562348" y="49.409796" style="fill: #1f77b4; stroke: #1f77b4"/>
     <use xlink:href="#m386b6537f0" x="96.193778" y="49.587539" style="fill: #1f77b4; stroke: #1f77b4"/>
     <use xlink:href="#m386b6537f0" x="97.825207" y="49.647233" style="fill: #1f77b4; stroke: #1f77b4"/>
     <use xlink:href="#m386b6537f0" x="99.456637" y="49.709809" style="fill: #1f77b4; stroke: #1f77b4"/>
     <use xlink:href="#m386b6537f0" x="101.088067" y="49.915402" style="fill: #1f77b4; stroke: #1f77b4"/>
     <use xlink:href="#m386b6537f0" x="102.719497" y="49.948601" style="fill: #1f77b4; stroke: #1f77b4"/>
     <use xlink:href="#m386b6537f0" x="104.350927" y="50.09286" style="fill: #1f77b4; stroke: #1f77b4"/>
     <use xlink:href="#m386b6537f0" x="105.982357" y="50.210253" style="fill: #1f77b4; stroke: #1f77b4"/>
     <use xlink:href="#m386b6537f0" x="107.613787" y="50.303788" style="fill: #1f77b4; stroke: #1f77b4"/>
     <use xlink:href="#m386b6537f0" x="109.245217" y="50.3944" style="fill: #1f77b4; stroke: #1f77b4"/>
     <use xlink:href="#m386b6537f0" x="110.876646" y="50.447321" style="fill: #1f77b4; stroke: #1f77b4"/>
     <use xlink:href="#m386b6537f0" x="112.508076" y="50.585846" style="fill: #1f77b4; stroke: #1f77b4"/>
     <use xlink:href="#m386b6537f0" x="114.139506" y="50.691414" style="fill: #1f77b4; stroke: #1f77b4"/>
     <use xlink:href="#m386b6537f0" x="115.770936" y="50.739817" style="fill: #1f77b4; stroke: #1f77b4"/>
     <use xlink:href="#m386b6537f0" x="117.402366" y="50.846188" style="fill: #1f77b4; stroke: #1f77b4"/>
     <use xlink:href="#m386b6537f0" x="119.033796" y="50.963735" style="fill: #1f77b4; stroke: #1f77b4"/>
     <use xlink:href="#m386b6537f0" x="120.665226" y="51.013921" style="fill: #1f77b4; stroke: #1f77b4"/>
     <use xlink:href="#m386b6537f0" x="122.296656" y="51.168078" style="fill: #1f77b4; stroke: #1f77b4"/>
     <use xlink:href="#m386b6537f0" x="123.928085" y="51.253554" style="fill: #1f77b4; stroke: #1f77b4"/>
     <use xlink:href="#m386b6537f0" x="125.559515" y="51.328307" style="fill: #1f77b4; stroke: #1f77b4"/>
     <use xlink:href="#m386b6537f0" x="127.190945" y="51.381874" style="fill: #1f77b4; stroke: #1f77b4"/>
     <use xlink:href="#m386b6537f0" x="128.822375" y="51.459836" style="fill: #1f77b4; stroke: #1f77b4"/>
     <use xlink:href="#m386b6537f0" x="130.453805" y="51.581891" style="fill: #1f77b4; stroke: #1f77b4"/>
     <use xlink:href="#m386b6537f0" x="132.085235" y="51.624564" style="fill: #1f77b4; stroke: #1f77b4"/>
     <use xlink:href="#m386b6537f0" x="133.716665" y="51.66455" style="fill: #1f77b4; stroke: #1f77b4"/>
     <use xlink:href="#m386b6537f0" x="135.348095" y="51.769467" style="fill: #1f77b4; stroke: #1f77b4"/>
     <use xlink:href="#m386b6537f0" x="136.979524" y="51.874492" style="fill: #1f77b4; stroke: #1f77b4"/>
     <use xlink:href="#m386b6537f0" x="138.610954" y="51.962662" style="fill: #1f77b4; stroke: #1f77b4"/>
     <use xlink:href="#m386b6537f0" x="140.242384" y="52.044722" style="fill: #1f77b4; stroke: #1f77b4"/>
     <use xlink:href="#m386b6537f0" x="141.873814" y="52.112147" style="fill: #1f77b4; stroke: #1f77b4"/>
     <use xlink:href="#m386b6537f0" x="143.505244" y="52.21391" style="fill: #1f77b4; stroke: #1f77b4"/>
     <use xlink:href="#m386b6537f0" x="145.136674" y="52.31436" style="fill: #1f77b4; stroke: #1f77b4"/>
     <use xlink:href="#m386b6537f0" x="146.768104" y="52.425225" style="fill: #1f77b4; stroke: #1f77b4"/>
     <use xlink:href="#m386b6537f0" x="148.399534" y="52.476011" style="fill: #1f77b4; stroke: #1f77b4"/>
     <use xlink:href="#m386b6537f0" x="150.030963" y="52.567349" style="fill: #1f77b4; stroke: #1f77b4"/>
     <use xlink:href="#m386b6537f0" x="151.662393" y="52.602524" style="fill: #1f77b4; stroke: #1f77b4"/>
     <use xlink:href="#m386b6537f0" x="153.293823" y="52.743023" style="fill: #1f77b4; stroke: #1f77b4"/>
     <use xlink:href="#m386b6537f0" x="154.925253" y="52.850916" style="fill: #1f77b4; stroke: #1f77b4"/>
     <use xlink:href="#m386b6537f0" x="156.556683" y="52.864567" style="fill: #1f77b4; stroke: #1f77b4"/>
     <use xlink:href="#m386b6537f0" x="158.188113" y="53.015294" style="fill: #1f77b4; stroke: #1f77b4"/>
     <use xlink:href="#m386b6537f0" x="159.819543" y="53.092703" style="fill: #1f77b4; stroke: #1f77b4"/>
     <use xlink:href="#m386b6537f0" x="161.450973" y="53.214403" style="fill: #1f77b4; stroke: #1f77b4"/>
     <use xlink:href="#m386b6537f0" x="163.082402" y="53.300671" style="fill: #1f77b4; stroke: #1f77b4"/>
     <use xlink:href="#m386b6537f0" x="164.713832" y="53.449767" style="fill: #1f77b4; stroke: #1f77b4"/>
     <use xlink:href="#m386b6537f0" x="166.345262" y="53.454667" style="fill: #1f77b4; stroke: #1f77b4"/>
     <use xlink:href="#m386b6537f0" x="167.976692" y="53.689758" style="fill: #1f77b4; stroke: #1f77b4"/>
     <use xlink:href="#m386b6537f0" x="169.608122" y="53.765183" style="fill: #1f77b4; stroke: #1f77b4"/>
     <use xlink:href="#m386b6537f0" x="171.239552" y="53.888334" style="fill: #1f77b4; stroke: #1f77b4"/>
     <use xlink:href="#m386b6537f0" x="172.870982" y="54.030899" style="fill: #1f77b4; stroke: #1f77b4"/>
     <use xlink:href="#m386b6537f0" x="174.502412" y="54.232685" style="fill: #1f77b4; stroke: #1f77b4"/>
     <use xlink:href="#m386b6537f0" x="176.133842" y="54.344409" style="fill: #1f77b4; stroke: #1f77b4"/>
     <use xlink:href="#m386b6537f0" x="177.765271" y="54.469954" style="fill: #1f77b4; stroke: #1f77b4"/>
     <use xlink:href="#m386b6537f0" x="179.396701" y="54.630228" style="fill: #1f77b4; stroke: #1f77b4"/>
     <use xlink:href="#m386b6537f0" x="181.028131" y="54.734127" style="fill: #1f77b4; stroke: #1f77b4"/>
     <use xlink:href="#m386b6537f0" x="182.659561" y="54.982751" style="fill: #1f77b4; stroke: #1f77b4"/>
     <use xlink:href="#m386b6537f0" x="184.290991" y="55.098644" style="fill: #1f77b4; stroke: #1f77b4"/>
     <use xlink:href="#m386b6537f0" x="185.922421" y="55.322621" style="fill: #1f77b4; stroke: #1f77b4"/>
     <use xlink:href="#m386b6537f0" x="187.553851" y="55.514255" style="fill: #1f77b4; stroke: #1f77b4"/>
     <use xlink:href="#m386b6537f0" x="189.185281" y="55.813294" style="fill: #1f77b4; stroke: #1f77b4"/>
     <use xlink:href="#m386b6537f0" x="190.81671" y="56.028484" style="fill: #1f77b4; stroke: #1f77b4"/>
     <use xlink:href="#m386b6537f0" x="192.44814" y="56.363397" style="fill: #1f77b4; stroke: #1f77b4"/>
     <use xlink:href="#m386b6537f0" x="194.07957" y="56.70299" style="fill: #1f77b4; stroke: #1f77b4"/>
     <use xlink:href="#m386b6537f0" x="195.711" y="57.064739" style="fill: #1f77b4; stroke: #1f77b4"/>
     <use xlink:href="#m386b6537f0" x="197.34243" y="57.450241" style="fill: #1f77b4; stroke: #1f77b4"/>
     <use xlink:href="#m386b6537f0" x="198.97386" y="57.905014" style="fill: #1f77b4; stroke: #1f77b4"/>
     <use xlink:href="#m386b6537f0" x="200.60529" y="58.405723" style="fill: #1f77b4; stroke: #1f77b4"/>
     <use xlink:href="#m386b6537f0" x="202.23672" y="59.03166" style="fill: #1f77b4; stroke: #1f77b4"/>
     <use xlink:href="#m386b6537f0" x="203.868149" y="59.765902" style="fill: #1f77b4; stroke: #1f77b4"/>
     <use xlink:href="#m386b6537f0" x="205.499579" y="60.640076" style="fill: #1f77b4; stroke: #1f77b4"/>
     <use xlink:href="#m386b6537f0" x="207.131009" y="61.531135" style="fill: #1f77b4; stroke: #1f77b4"/>
     <use xlink:href="#m386b6537f0" x="208.762439" y="62.662105" style="fill: #1f77b4; stroke: #1f77b4"/>
     <use xlink:href="#m386b6537f0" x="210.393869" y="63.996399" style="fill: #1f77b4; stroke: #1f77b4"/>
     <use xlink:href="#m386b6537f0" x="212.025299" y="65.620825" style="fill: #1f77b4; stroke: #1f77b4"/>
     <use xlink:href="#m386b6537f0" x="213.656729" y="67.516268" style="fill: #1f77b4; stroke: #1f77b4"/>
     <use xlink:href="#m386b6537f0" x="215.288159" y="69.756615" style="fill: #1f77b4; stroke: #1f77b4"/>
     <use xlink:href="#m386b6537f0" x="216.919588" y="72.628899" style="fill: #1f77b4; stroke: #1f77b4"/>
     <use xlink:href="#m386b6537f0" x="218.551018" y="76.044206" style="fill: #1f77b4; stroke: #1f77b4"/>
     <use xlink:href="#m386b6537f0" x="220.182448" y="80.375156" style="fill: #1f77b4; stroke: #1f77b4"/>
     <use xlink:href="#m386b6537f0" x="221.813878" y="85.745111" style="fill: #1f77b4; stroke: #1f77b4"/>
     <use xlink:href="#m386b6537f0" x="223.445308" y="92.584357" style="fill: #1f77b4; stroke: #1f77b4"/>
     <use xlink:href="#m386b6537f0" x="225.076738" y="100.961646" style="fill: #1f77b4; stroke: #1f77b4"/>
     <use xlink:href="#m386b6537f0" x="226.708168" y="111.299611" style="fill: #1f77b4; stroke: #1f77b4"/>
     <use xlink:href="#m386b6537f0" x="228.339598" y="123.773425" style="fill: #1f77b4; stroke: #1f77b4"/>
     <use xlink:href="#m386b6537f0" x="229.971027" y="137.781203" style="fill: #1f77b4; stroke: #1f77b4"/>
     <use xlink:href="#m386b6537f0" x="231.602457" y="151.319369" style="fill: #1f77b4; stroke: #1f77b4"/>
     <use xlink:href="#m386b6537f0" x="233.233887" y="153.354315" style="fill: #1f77b4; stroke: #1f77b4"/>
     <use xlink:href="#m386b6537f0" x="234.865317" y="140.532753" style="fill: #1f77b4; stroke: #1f77b4"/>
     <use xlink:href="#m386b6537f0" x="236.496747" y="125.457429" style="fill: #1f77b4; stroke: #1f77b4"/>
     <use xlink:href="#m386b6537f0" x="238.128177" y="111.825738" style="fill: #1f77b4; stroke: #1f77b4"/>
     <use xlink:href="#m386b6537f0" x="239.759607" y="100.278911" style="fill: #1f77b4; stroke: #1f77b4"/>
     <use xlink:href="#m386b6537f0" x="241.391037" y="90.74577" style="fill: #1f77b4; stroke: #1f77b4"/>
     <use xlink:href="#m386b6537f0" x="243.022466" y="83.207771" style="fill: #1f77b4; stroke: #1f77b4"/>
     <use xlink:href="#m386b6537f0" x="244.653896" y="77.325113" style="fill: #1f77b4; stroke: #1f77b4"/>
     <use xlink:href="#m386b6537f0" x="246.285326" y="72.646696" style="fill: #1f77b4; stroke: #1f77b4"/>
     <use xlink:href="#m386b6537f0" x="247.916756" y="68.883703" style="fill: #1f77b4; stroke: #1f77b4"/>
     <use xlink:href="#m386b6537f0" x="249.548186" y="65.953753" style="fill: #1f77b4; stroke: #1f77b4"/>
     <use xlink:href="#m386b6537f0" x="251.179616" y="63.590959" style="fill: #1f77b4; stroke: #1f77b4"/>
     <use xlink:href="#m386b6537f0" x="252.811046" y="61.717622" style="fill: #1f77b4; stroke: #1f77b4"/>
     <use xlink:href="#m386b6537f0" x="254.442476" y="60.154903" style="fill: #1f77b4; stroke: #1f77b4"/>
     <use xlink:href="#m386b6537f0" x="256.073905" y="58.839222" style="fill: #1f77b4; stroke: #1f77b4"/>
     <use xlink:href="#m386b6537f0" x="257.705335" y="57.79325" style="fill: #1f77b4; stroke: #1f77b4"/>
     <use xlink:href="#m386b6537f0" x="259.336765" y="56.8938" style="fill: #1f77b4; stroke: #1f77b4"/>
     <use xlink:href="#m386b6537f0" x="260.968195" y="56.111449" style="fill: #1f77b4; stroke: #1f77b4"/>
     <use xlink:href="#m386b6537f0" x="262.599625" y="55.508593" style="fill: #1f77b4; stroke: #1f77b4"/>
     <use xlink:href="#m386b6537f0" x="264.231055" y="54.923748" style="fill: #1f77b4; stroke: #1f77b4"/>
     <use xlink:href="#m386b6537f0" x="265.862485" y="54.489437" style="fill: #1f77b4; stroke: #1f77b4"/>
     <use xlink:href="#m386b6537f0" x="267.493915" y="54.114262" style="fill: #1f77b4; stroke: #1f77b4"/>
     <use xlink:href="#m386b6537f0" x="269.125344" y="53.794413" style="fill: #1f77b4; stroke: #1f77b4"/>
     <use xlink:href="#m386b6537f0" x="270.756774" y="53.500212" style="fill: #1f77b4; stroke: #1f77b4"/>
     <use xlink:href="#m386b6537f0" x="272.388204" y="53.212474" style="fill: #1f77b4; stroke: #1f77b4"/>
     <use xlink:href="#m386b6537f0" x="274.019634" y="53.018885" style="fill: #1f77b4; stroke: #1f77b4"/>
     <use xlink:href="#m386b6537f0" x="275.651064" y="52.897441" style="fill: #1f77b4; stroke: #1f77b4"/>
     <use xlink:href="#m386b6537f0" x="277.282494" y="52.74212" style="fill: #1f77b4; stroke: #1f77b4"/>
     <use xlink:href="#m386b6537f0" x="278.913924" y="52.56723" style="fill: #1f77b4; stroke: #1f77b4"/>
     <use xlink:href="#m386b6537f0" x="280.545354" y="52.499806" style="fill: #1f77b4; stroke: #1f77b4"/>
     <use xlink:href="#m386b6537f0" x="282.176783" y="52.408631" style="fill: #1f77b4; stroke: #1f77b4"/>
     <use xlink:href="#m386b6537f0" x="283.808213" y="52.429022" style="fill: #1f77b4; stroke: #1f77b4"/>
     <use xlink:href="#m386b6537f0" x="285.439643" y="52.380523" style="fill: #1f77b4; stroke: #1f77b4"/>
     <use xlink:href="#m386b6537f0" x="287.071073" y="52.337295" style="fill: #1f77b4; stroke: #1f77b4"/>
     <use xlink:href="#m386b6537f0" x="288.702503" y="52.314715" style="fill: #1f77b4; stroke: #1f77b4"/>
     <use xlink:href="#m386b6537f0" x="290.333933" y="52.330724" style="fill: #1f77b4; stroke: #1f77b4"/>
     <use xlink:href="#m386b6537f0" x="291.965363" y="52.310477" style="fill: #1f77b4; stroke: #1f77b4"/>
     <use xlink:href="#m386b6537f0" x="293.596793" y="52.309313" style="fill: #1f77b4; stroke: #1f77b4"/>
     <use xlink:href="#m386b6537f0" x="295.228223" y="52.384363" style="fill: #1f77b4; stroke: #1f77b4"/>
     <use xlink:href="#m386b6537f0" x="296.859652" y="52.441809" style="fill: #1f77b4; stroke: #1f77b4"/>
     <use xlink:href="#m386b6537f0" x="298.491082" y="52.466038" style="fill: #1f77b4; stroke: #1f77b4"/>
     <use xlink:href="#m386b6537f0" x="300.122512" y="52.506728" style="fill: #1f77b4; stroke: #1f77b4"/>
     <use xlink:href="#m386b6537f0" x="301.753942" y="52.58044" style="fill: #1f77b4; stroke: #1f77b4"/>
     <use xlink:href="#m386b6537f0" x="303.385372" y="52.693186" style="fill: #1f77b4; stroke: #1f77b4"/>
     <use xlink:href="#m386b6537f0" x="305.016802" y="52.727744" style="fill: #1f77b4; stroke: #1f77b4"/>
     <use xlink:href="#m386b6537f0" x="306.648232" y="52.852028" style="fill: #1f77b4; stroke: #1f77b4"/>
     <use xlink:href="#m386b6537f0" x="308.279662" y="52.895111" style="fill: #1f77b4; stroke: #1f77b4"/>
     <use xlink:href="#m386b6537f0" x="309.911091" y="53.003928" style="fill: #1f77b4; stroke: #1f77b4"/>
     <use xlink:href="#m386b6537f0" x="311.542521" y="53.103023" style="fill: #1f77b4; stroke: #1f77b4"/>
     <use xlink:href="#m386b6537f0" x="313.173951" y="53.282373" style="fill: #1f77b4; stroke: #1f77b4"/>
     <use xlink:href="#m386b6537f0" x="314.805381" y="53.343016" style="fill: #1f77b4; stroke: #1f77b4"/>
     <use xlink:href="#m386b6537f0" x="316.436811" y="53.530786" style="fill: #1f77b4; stroke: #1f77b4"/>
     <use xlink:href="#m386b6537f0" x="318.068241" y="53.602812" style="fill: #1f77b4; stroke: #1f77b4"/>
     <use xlink:href="#m386b6537f0" x="319.699671" y="53.736649" style="fill: #1f77b4; stroke: #1f77b4"/>
     <use xlink:href="#m386b6537f0" x="321.331101" y="53.899382" style="fill: #1f77b4; stroke: #1f77b4"/>
     <use xlink:href="#m386b6537f0" x="322.96253" y="54.031372" style="fill: #1f77b4; stroke: #1f77b4"/>
     <use xlink:href="#m386b6537f0" x="324.59396" y="54.15674" style="fill: #1f77b4; stroke: #1f77b4"/>
     <use xlink:href="#m386b6537f0" x="326.22539" y="54.253321" style="fill: #1f77b4; stroke: #1f77b4"/>
     <use xlink:href="#m386b6537f0" x="327.85682" y="54.433129" style="fill: #1f77b4; stroke: #1f77b4"/>
     <use xlink:href="#m386b6537f0" x="329.48825" y="54.618684" style="fill: #1f77b4; stroke: #1f77b4"/>
     <use xlink:href="#m386b6537f0" x="331.11968" y="54.729565" style="fill: #1f77b4; stroke: #1f77b4"/>
     <use xlink:href="#m386b6537f0" x="332.75111" y="54.906802" style="fill: #1f77b4; stroke: #1f77b4"/>
     <use xlink:href="#m386b6537f0" x="334.38254" y="55.072283" style="fill: #1f77b4; stroke: #1f77b4"/>
     <use xlink:href="#m386b6537f0" x="336.013969" y="55.238907" style="fill: #1f77b4; stroke: #1f77b4"/>
     <use xlink:href="#m386b6537f0" x="337.645399" y="55.43297" style="fill: #1f77b4; stroke: #1f77b4"/>
     <use xlink:href="#m386b6537f0" x="339.276829" y="55.537873" style="fill: #1f77b4; stroke: #1f77b4"/>
     <use xlink:href="#m386b6537f0" x="340.908259" y="55.796312" style="fill: #1f77b4; stroke: #1f77b4"/>
     <use xlink:href="#m386b6537f0" x="342.539689" y="55.884546" style="fill: #1f77b4; stroke: #1f77b4"/>
     <use xlink:href="#m386b6537f0" x="344.171119" y="56.093878" style="fill: #1f77b4; stroke: #1f77b4"/>
     <use xlink:href="#m386b6537f0" x="345.802549" y="56.248787" style="fill: #1f77b4; stroke: #1f77b4"/>
     <use xlink:href="#m386b6537f0" x="347.433979" y="56.470578" style="fill: #1f77b4; stroke: #1f77b4"/>
     <use xlink:href="#m386b6537f0" x="349.065408" y="56.641099" style="fill: #1f77b4; stroke: #1f77b4"/>
     <use xlink:href="#m386b6537f0" x="350.696838" y="56.822114" style="fill: #1f77b4; stroke: #1f77b4"/>
     <use xlink:href="#m386b6537f0" x="352.328268" y="56.987184" style="fill: #1f77b4; stroke: #1f77b4"/>
     <use xlink:href="#m386b6537f0" x="353.959698" y="57.19657" style="fill: #1f77b4; stroke: #1f77b4"/>
     <use xlink:href="#m386b6537f0" x="355.591128" y="57.35718" style="fill: #1f77b4; stroke: #1f77b4"/>
     <use xlink:href="#m386b6537f0" x="357.222558" y="57.572719" style="fill: #1f77b4; stroke: #1f77b4"/>
     <use xlink:href="#m386b6537f0" x="358.853988" y="57.710289" style="fill: #1f77b4; stroke: #1f77b4"/>
     <use xlink:href="#m386b6537f0" x="360.485418" y="57.936781" style="fill: #1f77b4; stroke: #1f77b4"/>
     <use xlink:href="#m386b6537f0" x="362.116847" y="58.131193" style="fill: #1f77b4; stroke: #1f77b4"/>
     <use xlink:href="#m386b6537f0" x="363.748277" y="58.324683" style="fill: #1f77b4; stroke: #1f77b4"/>
     <use xlink:href="#m386b6537f0" x="365.379707" y="58.456299" style="fill: #1f77b4; stroke: #1f77b4"/>
     <use xlink:href="#m386b6537f0" x="367.011137" y="58.688289" style="fill: #1f77b4; stroke: #1f77b4"/>
     <use xlink:href="#m386b6537f0" x="368.642567" y="58.865654" style="fill: #1f77b4; stroke: #1f77b4"/>
     <use xlink:href="#m386b6537f0" x="370.273997" y="59.06115" style="fill: #1f77b4; stroke: #1f77b4"/>
     <use xlink:href="#m386b6537f0" x="371.905427" y="59.225831" style="fill: #1f77b4; stroke: #1f77b4"/>
     <use xlink:href="#m386b6537f0" x="373.536857" y="59.417423" style="fill: #1f77b4; stroke: #1f77b4"/>
     <use xlink:href="#m386b6537f0" x="375.168286" y="59.594772" style="fill: #1f77b4; stroke: #1f77b4"/>
     <use xlink:href="#m386b6537f0" x="376.799716" y="59.811828" style="fill: #1f77b4; stroke: #1f77b4"/>
     <use xlink:href="#m386b6537f0" x="378.431146" y="59.94077" style="fill: #1f77b4; stroke: #1f77b4"/>
     <use xlink:href="#m386b6537f0" x="380.062576" y="60.213753" style="fill: #1f77b4; stroke: #1f77b4"/>
     <use xlink:href="#m386b6537f0" x="381.694006" y="60.326735" style="fill: #1f77b4; stroke: #1f77b4"/>
     <use xlink:href="#m386b6537f0" x="383.325436" y="60.497751" style="fill: #1f77b4; stroke: #1f77b4"/>
     <use xlink:href="#m386b6537f0" x="384.956866" y="60.726499" style="fill: #1f77b4; stroke: #1f77b4"/>
     <use xlink:href="#m386b6537f0" x="386.588296" y="60.907303" style="fill: #1f77b4; stroke: #1f77b4"/>
     <use xlink:href="#m386b6537f0" x="388.219725" y="61.017362" style="fill: #1f77b4; stroke: #1f77b4"/>
     <use xlink:href="#m386b6537f0" x="389.851155" y="61.247043" style="fill: #1f77b4; stroke: #1f77b4"/>
     <use xlink:href="#m386b6537f0" x="391.482585" y="61.418641" style="fill: #1f77b4; stroke: #1f77b4"/>
    </g>
   </g>
   <g id="line2d_11">
    <path d="M 66.82804 52.626246 
L 111.675214 53.038335 
L 137.998556 53.486817 
L 155.222471 53.988372 
L 167.246713 54.544731 
L 176.34614 55.177706 
L 183.17071 55.858421 
L 188.695362 56.617806 
L 193.245075 57.456974 
L 197.144829 58.402948 
L 200.394625 59.419543 
L 203.31944 60.582146 
L 205.594297 61.705398 
L 207.869154 63.083195 
L 209.819031 64.527499 
L 211.443928 65.968812 
L 213.068826 67.682241 
L 214.693724 69.736587 
L 216.318621 72.221408 
L 217.618539 74.596604 
L 218.918457 77.397025 
L 220.218376 80.715534 
L 221.518294 84.66483 
L 222.818212 89.378823 
L 224.11813 95.010901 
L 225.418048 101.725787 
L 226.717966 109.679804 
L 228.017884 118.982005 
L 229.642782 132.470713 
L 232.242618 155.183118 
L 232.567598 156.774013 
L 232.892577 157.221818 
L 233.217557 156.351822 
L 233.867516 151.935448 
L 235.167434 139.832139 
L 237.44229 118.951185 
L 239.067188 106.336888 
L 240.367106 97.864781 
L 241.667024 90.75194 
L 242.966942 84.84249 
L 244.26686 79.957689 
L 245.566779 75.924633 
L 246.866697 72.589714 
L 248.166615 69.822881 
L 249.466533 67.517074 
L 250.766451 65.585567 
L 252.391349 63.592791 
L 254.016246 61.97078 
L 255.641144 60.639092 
L 257.591021 59.339296 
L 259.540898 58.291369 
L 261.815755 57.310942 
L 264.415591 56.430282 
L 267.340407 55.66395 
L 270.915181 54.957498 
L 275.139915 54.348109 
L 280.664567 53.792984 
L 287.489137 53.342203 
L 296.588564 52.973896 
L 309.587745 52.689063 
L 329.411496 52.501072 
L 363.859326 52.425904 
L 391.482585 52.441873 
L 391.482585 52.441873 
" clip-path="url(#p83206d9852)" style="fill: none; stroke: #d62728; stroke-width: 1.5; stroke-linecap: square"/>
   </g>
   <g id="patch_3">
    <path d="M 50.595313 162.72 
L 50.595313 41.76 
" style="fill: none; stroke: #000000; stroke-width: 0.8; stroke-linejoin: miter; stroke-linecap: square"/>
   </g>
   <g id="patch_4">
    <path d="M 407.715312 162.72 
L 407.715312 41.76 
" style="fill: none; stroke: #000000; stroke-width: 0.8; stroke-linejoin: miter; stroke-linecap: square"/>
   </g>
   <g id="patch_5">
    <path d="M 50.595313 162.72 
L 407.715313 162.72 
" style="fill: none; stroke: #000000; stroke-width: 0.8; stroke-linejoin: miter; stroke-linecap: square"/>
   </g>
   <g id="patch_6">
    <path d="M 50.595313 41.76 
L 407.715313 41.76 
" style="fill: none; stroke: #000000; stroke-width: 0.8; stroke-linejoin: miter; stroke-linecap: square"/>
   </g>
   <g id="text_5">
    <g id="patch_7">
     <path d="M 425.571312 95.079562 
L 564.471312 95.079562 
Q 568.471312 95.079562 568.471312 91.079562 
L 568.471312 47.808 
Q 568.471312 43.808 564.471312 43.808 
L 425.571312 43.808 
Q 421.571312 43.808 421.571312 47.808 
L 421.571312 91.079562 
Q 421.571312 95.079562 425.571312 95.079562 
z
" style="fill: #ffffff; opacity: 0.5; stroke: #000000; stroke-linejoin: miter"/>
    </g>
    <!-- Summary -->
    <g transform="translate(425.571312 55.406437) scale(0.1 -0.1)">
     <defs>
      <path id="DejaVuSans-53" d="M 3425 4513 
L 3425 3897 
Q 3066 4069 2747 4153 
Q 2428 4238 2131 4238 
Q 1616 4238 1336 4038 
Q 1056 3838 1056 3469 
Q 1056 3159 1242 3001 
Q 1428 2844 1947 2747 
L 2328 2669 
Q 3034 2534 3370 2195 
Q 3706 1856 3706 1288 
Q 3706 609 3251 259 
Q 2797 -91 1919 -91 
Q 1588 -91 1214 -16 
Q 841 59 441 206 
L 441 856 
Q 825 641 1194 531 
Q 1563 422 1919 422 
Q 2459 422 2753 634 
Q 3047 847 3047 1241 
Q 3047 1584 2836 1778 
Q 2625 1972 2144 2069 
L 1759 2144 
Q 1053 2284 737 2584 
Q 422 2884 422 3419 
Q 422 4038 858 4394 
Q 1294 4750 2059 4750 
Q 2388 4750 2728 4690 
Q 3069 4631 3425 4513 
z
" transform="scale(0.015625)"/>
      <path id="DejaVuSans-75" d="M 544 1381 
L 544 3500 
L 1119 3500 
L 1119 1403 
Q 1119 906 1312 657 
Q 1506 409 1894 409 
Q 2359 409 2629 706 
Q 2900 1003 2900 1516 
L 2900 3500 
L 3475 3500 
L 3475 0 
L 2900 0 
L 2900 538 
Q 2691 219 2414 64 
Q 2138 -91 1772 -91 
Q 1169 -91 856 284 
Q 544 659 544 1381 
z
M 1991 3584 
L 1991 3584 
z
" transform="scale(0.015625)"/>
      <path id="DejaVuSans-61" d="M 2194 1759 
Q 1497 1759 1228 1600 
Q 959 1441 959 1056 
Q 959 750 1161 570 
Q 1363 391 1709 391 
Q 2188 391 2477 730 
Q 2766 1069 2766 1631 
L 2766 1759 
L 2194 1759 
z
M 3341 1997 
L 3341 0 
L 2766 0 
L 2766 531 
Q 2569 213 2275 61 
Q 1981 -91 1556 -91 
Q 1019 -91 701 211 
Q 384 513 384 1019 
Q 384 1609 779 1909 
Q 1175 2209 1959 2209 
L 2766 2209 
L 2766 2266 
Q 2766 2663 2505 2880 
Q 2244 3097 1772 3097 
Q 1472 3097 1187 3025 
Q 903 2953 641 2809 
L 641 3341 
Q 956 3463 1253 3523 
Q 1550 3584 1831 3584 
Q 2591 3584 2966 3190 
Q 3341 2797 3341 1997 
z
" transform="scale(0.015625)"/>
      <path id="DejaVuSans-72" d="M 2631 2963 
Q 2534 3019 2420 3045 
Q 2306 3072 2169 3072 
Q 1681 3072 1420 2755 
Q 1159 2438 1159 1844 
L 1159 0 
L 581 0 
L 581 3500 
L 1159 3500 
L 1159 2956 
Q 1341 3275 1631 3429 
Q 1922 3584 2338 3584 
Q 2397 3584 2469 3576 
Q 2541 3569 2628 3553 
L 2631 2963 
z
" transform="scale(0.015625)"/>
      <path id="DejaVuSans-79" d="M 2059 -325 
Q 1816 -950 1584 -1140 
Q 1353 -1331 966 -1331 
L 506 -1331 
L 506 -850 
L 844 -850 
Q 1081 -850 1212 -737 
Q 1344 -625 1503 -206 
L 1606 56 
L 191 3500 
L 800 3500 
L 1894 763 
L 2988 3500 
L 3597 3500 
L 2059 -325 
z
" transform="scale(0.015625)"/>
     </defs>
     <use xlink:href="#DejaVuSans-53"/>
     <use xlink:href="#DejaVuSans-75" x="63.476562"/>
     <use xlink:href="#DejaVuSans-6d" x="126.855469"/>
     <use xlink:href="#DejaVuSans-6d" x="224.267578"/>
     <use xlink:href="#DejaVuSans-61" x="321.679688"/>
     <use xlink:href="#DejaVuSans-72" x="382.958984"/>
     <use xlink:href="#DejaVuSans-79" x="424.072266"/>
    </g>
    <!-- $Q_I$: 39.4$\pm$4.0 k -->
    <g transform="translate(425.571312 66.60425) scale(0.1 -0.1)">
     <defs>
      <path id="DejaVuSans-Oblique-51" d="M 2309 -84 
Q 2275 -88 2237 -89 
Q 2200 -91 2125 -91 
Q 1250 -91 756 411 
Q 263 913 263 1797 
Q 263 2319 452 2844 
Q 641 3369 978 3788 
Q 1369 4269 1858 4509 
Q 2347 4750 2938 4750 
Q 3794 4750 4287 4245 
Q 4781 3741 4781 2869 
Q 4781 1928 4265 1147 
Q 3750 366 2919 44 
L 3553 -825 
L 2847 -825 
L 2309 -84 
z
M 2919 4238 
Q 2400 4238 2003 3986 
Q 1606 3734 1313 3219 
Q 1125 2891 1026 2522 
Q 928 2153 928 1778 
Q 928 1128 1239 775 
Q 1550 422 2119 422 
Q 2631 422 3032 676 
Q 3434 931 3719 1434 
Q 3909 1772 4009 2142 
Q 4109 2513 4109 2881 
Q 4109 3528 3796 3883 
Q 3484 4238 2919 4238 
z
" transform="scale(0.015625)"/>
      <path id="DejaVuSans-Oblique-49" d="M 1081 4666 
L 1716 4666 
L 806 0 
L 172 0 
L 1081 4666 
z
" transform="scale(0.015625)"/>
      <path id="DejaVuSans-3a" d="M 750 794 
L 1409 794 
L 1409 0 
L 750 0 
L 750 794 
z
M 750 3309 
L 1409 3309 
L 1409 2516 
L 750 2516 
L 750 3309 
z
" transform="scale(0.015625)"/>
      <path id="DejaVuSans-39" d="M 703 97 
L 703 672 
Q 941 559 1184 500 
Q 1428 441 1663 441 
Q 2288 441 2617 861 
Q 2947 1281 2994 2138 
Q 2813 1869 2534 1725 
Q 2256 1581 1919 1581 
Q 1219 1581 811 2004 
Q 403 2428 403 3163 
Q 403 3881 828 4315 
Q 1253 4750 1959 4750 
Q 2769 4750 3195 4129 
Q 3622 3509 3622 2328 
Q 3622 1225 3098 567 
Q 2575 -91 1691 -91 
Q 1453 -91 1209 -44 
Q 966 3 703 97 
z
M 1959 2075 
Q 2384 2075 2632 2365 
Q 2881 2656 2881 3163 
Q 2881 3666 2632 3958 
Q 2384 4250 1959 4250 
Q 1534 4250 1286 3958 
Q 1038 3666 1038 3163 
Q 1038 2656 1286 2365 
Q 1534 2075 1959 2075 
z
" transform="scale(0.015625)"/>
      <path id="DejaVuSans-2e" d="M 684 794 
L 1344 794 
L 1344 0 
L 684 0 
L 684 794 
z
" transform="scale(0.015625)"/>
      <path id="DejaVuSans-34" d="M 2419 4116 
L 825 1625 
L 2419 1625 
L 2419 4116 
z
M 2253 4666 
L 3047 4666 
L 3047 1625 
L 3713 1625 
L 3713 1100 
L 3047 1100 
L 3047 0 
L 2419 0 
L 2419 1100 
L 313 1100 
L 313 1709 
L 2253 4666 
z
" transform="scale(0.015625)"/>
      <path id="DejaVuSans-b1" d="M 2944 4013 
L 2944 2803 
L 4684 2803 
L 4684 2272 
L 2944 2272 
L 2944 1063 
L 2419 1063 
L 2419 2272 
L 678 2272 
L 678 2803 
L 2419 2803 
L 2419 4013 
L 2944 4013 
z
M 678 531 
L 4684 531 
L 4684 0 
L 678 0 
L 678 531 
z
" transform="scale(0.015625)"/>
      <path id="DejaVuSans-6b" d="M 581 4863 
L 1159 4863 
L 1159 1991 
L 2875 3500 
L 3609 3500 
L 1753 1863 
L 3688 0 
L 2938 0 
L 1159 1709 
L 1159 0 
L 581 0 
L 581 4863 
z
" transform="scale(0.015625)"/>
     </defs>
     <use xlink:href="#DejaVuSans-Oblique-51" transform="translate(0 0.015625)"/>
     <use xlink:href="#DejaVuSans-Oblique-49" transform="translate(78.710938 -16.390625) scale(0.7)"/>
     <use xlink:href="#DejaVuSans-3a" transform="translate(102.089844 0.015625)"/>
     <use xlink:href="#DejaVuSans-20" transform="translate(135.78125 0.015625)"/>
     <use xlink:href="#DejaVuSans-33" transform="translate(167.568359 0.015625)"/>
     <use xlink:href="#DejaVuSans-39" transform="translate(231.191406 0.015625)"/>
     <use xlink:href="#DejaVuSans-2e" transform="translate(294.814453 0.015625)"/>
     <use xlink:href="#DejaVuSans-34" transform="translate(326.601562 0.015625)"/>
     <use xlink:href="#DejaVuSans-b1" transform="translate(390.224609 0.015625)"/>
     <use xlink:href="#DejaVuSans-34" transform="translate(474.013672 0.015625)"/>
     <use xlink:href="#DejaVuSans-2e" transform="translate(537.636719 0.015625)"/>
     <use xlink:href="#DejaVuSans-30" transform="translate(569.423828 0.015625)"/>
     <use xlink:href="#DejaVuSans-20" transform="translate(633.046875 0.015625)"/>
     <use xlink:href="#DejaVuSans-6b" transform="translate(664.833984 0.015625)"/>
    </g>
    <!-- $Q_C$: 3.358$\pm$0.032 k -->
    <g transform="translate(425.571312 77.802062) scale(0.1 -0.1)">
     <defs>
      <path id="DejaVuSans-Oblique-43" d="M 4447 4306 
L 4319 3641 
Q 4019 3944 3683 4091 
Q 3347 4238 2956 4238 
Q 2422 4238 2017 3981 
Q 1613 3725 1319 3200 
Q 1131 2863 1032 2486 
Q 934 2109 934 1728 
Q 934 1091 1264 756 
Q 1594 422 2222 422 
Q 2656 422 3056 561 
Q 3456 700 3834 978 
L 3688 231 
Q 3316 72 2936 -9 
Q 2556 -91 2175 -91 
Q 1278 -91 773 396 
Q 269 884 269 1753 
Q 269 2309 461 2846 
Q 653 3384 1013 3828 
Q 1394 4300 1883 4525 
Q 2372 4750 3022 4750 
Q 3422 4750 3780 4639 
Q 4138 4528 4447 4306 
z
" transform="scale(0.015625)"/>
      <path id="DejaVuSans-35" d="M 691 4666 
L 3169 4666 
L 3169 4134 
L 1269 4134 
L 1269 2991 
Q 1406 3038 1543 3061 
Q 1681 3084 1819 3084 
Q 2600 3084 3056 2656 
Q 3513 2228 3513 1497 
Q 3513 744 3044 326 
Q 2575 -91 1722 -91 
Q 1428 -91 1123 -41 
Q 819 9 494 109 
L 494 744 
Q 775 591 1075 516 
Q 1375 441 1709 441 
Q 2250 441 2565 725 
Q 2881 1009 2881 1497 
Q 2881 1984 2565 2268 
Q 2250 2553 1709 2553 
Q 1456 2553 1204 2497 
Q 953 2441 691 2322 
L 691 4666 
z
" transform="scale(0.015625)"/>
      <path id="DejaVuSans-38" d="M 2034 2216 
Q 1584 2216 1326 1975 
Q 1069 1734 1069 1313 
Q 1069 891 1326 650 
Q 1584 409 2034 409 
Q 2484 409 2743 651 
Q 3003 894 3003 1313 
Q 3003 1734 2745 1975 
Q 2488 2216 2034 2216 
z
M 1403 2484 
Q 997 2584 770 2862 
Q 544 3141 544 3541 
Q 544 4100 942 4425 
Q 1341 4750 2034 4750 
Q 2731 4750 3128 4425 
Q 3525 4100 3525 3541 
Q 3525 3141 3298 2862 
Q 3072 2584 2669 2484 
Q 3125 2378 3379 2068 
Q 3634 1759 3634 1313 
Q 3634 634 3220 271 
Q 2806 -91 2034 -91 
Q 1263 -91 848 271 
Q 434 634 434 1313 
Q 434 1759 690 2068 
Q 947 2378 1403 2484 
z
M 1172 3481 
Q 1172 3119 1398 2916 
Q 1625 2713 2034 2713 
Q 2441 2713 2670 2916 
Q 2900 3119 2900 3481 
Q 2900 3844 2670 4047 
Q 2441 4250 2034 4250 
Q 1625 4250 1398 4047 
Q 1172 3844 1172 3481 
z
" transform="scale(0.015625)"/>
     </defs>
     <use xlink:href="#DejaVuSans-Oblique-51" transform="translate(0 0.015625)"/>
     <use xlink:href="#DejaVuSans-Oblique-43" transform="translate(78.710938 -16.390625) scale(0.7)"/>
     <use xlink:href="#DejaVuSans-3a" transform="translate(130.322266 0.015625)"/>
     <use xlink:href="#DejaVuSans-20" transform="translate(164.013672 0.015625)"/>
     <use xlink:href="#DejaVuSans-33" transform="translate(195.800781 0.015625)"/>
     <use xlink:href="#DejaVuSans-2e" transform="translate(259.423828 0.015625)"/>
     <use xlink:href="#DejaVuSans-33" transform="translate(291.210938 0.015625)"/>
     <use xlink:href="#DejaVuSans-35" transform="translate(354.833984 0.015625)"/>
     <use xlink:href="#DejaVuSans-38" transform="translate(418.457031 0.015625)"/>
     <use xlink:href="#DejaVuSans-b1" transform="translate(482.080078 0.015625)"/>
     <use xlink:href="#DejaVuSans-30" transform="translate(565.869141 0.015625)"/>
     <use xlink:href="#DejaVuSans-2e" transform="translate(629.492188 0.015625)"/>
     <use xlink:href="#DejaVuSans-30" transform="translate(661.279297 0.015625)"/>
     <use xlink:href="#DejaVuSans-33" transform="translate(724.902344 0.015625)"/>
     <use xlink:href="#DejaVuSans-32" transform="translate(788.525391 0.015625)"/>
     <use xlink:href="#DejaVuSans-20" transform="translate(852.148438 0.015625)"/>
     <use xlink:href="#DejaVuSans-6b" transform="translate(883.935547 0.015625)"/>
    </g>
    <!-- $f_{res}$: 6.013152$\pm$1.2e-05 GHz -->
    <g transform="translate(425.571312 88.999875) scale(0.1 -0.1)">
     <defs>
      <path id="DejaVuSans-Oblique-66" d="M 3059 4863 
L 2969 4384 
L 2419 4384 
Q 2106 4384 1964 4261 
Q 1822 4138 1753 3809 
L 1691 3500 
L 2638 3500 
L 2553 3053 
L 1606 3053 
L 1013 0 
L 434 0 
L 1031 3053 
L 481 3053 
L 563 3500 
L 1113 3500 
L 1159 3744 
Q 1278 4363 1576 4613 
Q 1875 4863 2516 4863 
L 3059 4863 
z
" transform="scale(0.015625)"/>
      <path id="DejaVuSans-Oblique-72" d="M 2853 2969 
Q 2766 3016 2653 3041 
Q 2541 3066 2413 3066 
Q 1953 3066 1609 2717 
Q 1266 2369 1153 1784 
L 800 0 
L 225 0 
L 909 3500 
L 1484 3500 
L 1375 2956 
Q 1603 3259 1920 3421 
Q 2238 3584 2597 3584 
Q 2691 3584 2781 3573 
Q 2872 3563 2963 3538 
L 2853 2969 
z
" transform="scale(0.015625)"/>
      <path id="DejaVuSans-Oblique-65" d="M 3078 2063 
Q 3088 2113 3092 2166 
Q 3097 2219 3097 2272 
Q 3097 2653 2873 2875 
Q 2650 3097 2266 3097 
Q 1838 3097 1509 2826 
Q 1181 2556 1013 2059 
L 3078 2063 
z
M 3578 1613 
L 903 1613 
Q 884 1494 878 1425 
Q 872 1356 872 1306 
Q 872 872 1139 634 
Q 1406 397 1894 397 
Q 2269 397 2603 481 
Q 2938 566 3225 728 
L 3116 159 
Q 2806 34 2476 -28 
Q 2147 -91 1806 -91 
Q 1078 -91 686 257 
Q 294 606 294 1247 
Q 294 1794 489 2264 
Q 684 2734 1063 3103 
Q 1306 3334 1642 3459 
Q 1978 3584 2356 3584 
Q 2950 3584 3301 3228 
Q 3653 2872 3653 2272 
Q 3653 2128 3634 1964 
Q 3616 1800 3578 1613 
z
" transform="scale(0.015625)"/>
      <path id="DejaVuSans-Oblique-73" d="M 3200 3397 
L 3091 2853 
Q 2863 2978 2609 3040 
Q 2356 3103 2088 3103 
Q 1634 3103 1373 2948 
Q 1113 2794 1113 2528 
Q 1113 2219 1719 2053 
Q 1766 2041 1788 2034 
L 1972 1978 
Q 2547 1819 2739 1644 
Q 2931 1469 2931 1166 
Q 2931 609 2489 259 
Q 2047 -91 1331 -91 
Q 1053 -91 747 -37 
Q 441 16 72 128 
L 184 722 
Q 500 559 806 475 
Q 1113 391 1394 391 
Q 1816 391 2080 572 
Q 2344 753 2344 1031 
Q 2344 1331 1650 1516 
L 1591 1531 
L 1394 1581 
Q 956 1697 753 1886 
Q 550 2075 550 2369 
Q 550 2928 970 3256 
Q 1391 3584 2113 3584 
Q 2397 3584 2667 3537 
Q 2938 3491 3200 3397 
z
" transform="scale(0.015625)"/>
      <path id="DejaVuSans-36" d="M 2113 2584 
Q 1688 2584 1439 2293 
Q 1191 2003 1191 1497 
Q 1191 994 1439 701 
Q 1688 409 2113 409 
Q 2538 409 2786 701 
Q 3034 994 3034 1497 
Q 3034 2003 2786 2293 
Q 2538 2584 2113 2584 
z
M 3366 4563 
L 3366 3988 
Q 3128 4100 2886 4159 
Q 2644 4219 2406 4219 
Q 1781 4219 1451 3797 
Q 1122 3375 1075 2522 
Q 1259 2794 1537 2939 
Q 1816 3084 2150 3084 
Q 2853 3084 3261 2657 
Q 3669 2231 3669 1497 
Q 3669 778 3244 343 
Q 2819 -91 2113 -91 
Q 1303 -91 875 529 
Q 447 1150 447 2328 
Q 447 3434 972 4092 
Q 1497 4750 2381 4750 
Q 2619 4750 2861 4703 
Q 3103 4656 3366 4563 
z
" transform="scale(0.015625)"/>
      <path id="DejaVuSans-65" d="M 3597 1894 
L 3597 1613 
L 953 1613 
Q 991 1019 1311 708 
Q 1631 397 2203 397 
Q 2534 397 2845 478 
Q 3156 559 3463 722 
L 3463 178 
Q 3153 47 2828 -22 
Q 2503 -91 2169 -91 
Q 1331 -91 842 396 
Q 353 884 353 1716 
Q 353 2575 817 3079 
Q 1281 3584 2069 3584 
Q 2775 3584 3186 3129 
Q 3597 2675 3597 1894 
z
M 3022 2063 
Q 3016 2534 2758 2815 
Q 2500 3097 2075 3097 
Q 1594 3097 1305 2825 
Q 1016 2553 972 2059 
L 3022 2063 
z
" transform="scale(0.015625)"/>
      <path id="DejaVuSans-2d" d="M 313 2009 
L 1997 2009 
L 1997 1497 
L 313 1497 
L 313 2009 
z
" transform="scale(0.015625)"/>
      <path id="DejaVuSans-47" d="M 3809 666 
L 3809 1919 
L 2778 1919 
L 2778 2438 
L 4434 2438 
L 4434 434 
Q 4069 175 3628 42 
Q 3188 -91 2688 -91 
Q 1594 -91 976 548 
Q 359 1188 359 2328 
Q 359 3472 976 4111 
Q 1594 4750 2688 4750 
Q 3144 4750 3555 4637 
Q 3966 4525 4313 4306 
L 4313 3634 
Q 3963 3931 3569 4081 
Q 3175 4231 2741 4231 
Q 1884 4231 1454 3753 
Q 1025 3275 1025 2328 
Q 1025 1384 1454 906 
Q 1884 428 2741 428 
Q 3075 428 3337 486 
Q 3600 544 3809 666 
z
" transform="scale(0.015625)"/>
      <path id="DejaVuSans-48" d="M 628 4666 
L 1259 4666 
L 1259 2753 
L 3553 2753 
L 3553 4666 
L 4184 4666 
L 4184 0 
L 3553 0 
L 3553 2222 
L 1259 2222 
L 1259 0 
L 628 0 
L 628 4666 
z
" transform="scale(0.015625)"/>
      <path id="DejaVuSans-7a" d="M 353 3500 
L 3084 3500 
L 3084 2975 
L 922 459 
L 3084 459 
L 3084 0 
L 275 0 
L 275 525 
L 2438 3041 
L 353 3041 
L 353 3500 
z
" transform="scale(0.015625)"/>
     </defs>
     <use xlink:href="#DejaVuSans-Oblique-66" transform="translate(0 0.015625)"/>
     <use xlink:href="#DejaVuSans-Oblique-72" transform="translate(35.205078 -16.390625) scale(0.7)"/>
     <use xlink:href="#DejaVuSans-Oblique-65" transform="translate(63.984375 -16.390625) scale(0.7)"/>
     <use xlink:href="#DejaVuSans-Oblique-73" transform="translate(107.050781 -16.390625) scale(0.7)"/>
     <use xlink:href="#DejaVuSans-3a" transform="translate(146.254883 0.015625)"/>
     <use xlink:href="#DejaVuSans-20" transform="translate(179.946289 0.015625)"/>
     <use xlink:href="#DejaVuSans-36" transform="translate(211.733398 0.015625)"/>
     <use xlink:href="#DejaVuSans-2e" transform="translate(275.356445 0.015625)"/>
     <use xlink:href="#DejaVuSans-30" transform="translate(307.143555 0.015625)"/>
     <use xlink:href="#DejaVuSans-31" transform="translate(370.766602 0.015625)"/>
     <use xlink:href="#DejaVuSans-33" transform="translate(434.389648 0.015625)"/>
     <use xlink:href="#DejaVuSans-31" transform="translate(498.012695 0.015625)"/>
     <use xlink:href="#DejaVuSans-35" transform="translate(561.635742 0.015625)"/>
     <use xlink:href="#DejaVuSans-32" transform="translate(625.258789 0.015625)"/>
     <use xlink:href="#DejaVuSans-b1" transform="translate(688.881836 0.015625)"/>
     <use xlink:href="#DejaVuSans-31" transform="translate(772.670898 0.015625)"/>
     <use xlink:href="#DejaVuSans-2e" transform="translate(836.293945 0.015625)"/>
     <use xlink:href="#DejaVuSans-32" transform="translate(862.581055 0.015625)"/>
     <use xlink:href="#DejaVuSans-65" transform="translate(926.204102 0.015625)"/>
     <use xlink:href="#DejaVuSans-2d" transform="translate(987.727539 0.015625)"/>
     <use xlink:href="#DejaVuSans-30" transform="translate(1023.811523 0.015625)"/>
     <use xlink:href="#DejaVuSans-35" transform="translate(1087.43457 0.015625)"/>
     <use xlink:href="#DejaVuSans-20" transform="translate(1151.057617 0.015625)"/>
     <use xlink:href="#DejaVuSans-47" transform="translate(1182.844727 0.015625)"/>
     <use xlink:href="#DejaVuSans-48" transform="translate(1260.334961 0.015625)"/>
     <use xlink:href="#DejaVuSans-7a" transform="translate(1335.530273 0.015625)"/>
    </g>
   </g>
  </g>
  <g id="axes_2">
   <g id="patch_8">
    <path d="M 50.595313 307.872 
L 407.715312 307.872 
L 407.715312 186.912 
L 50.595313 186.912 
z
" style="fill: #ffffff"/>
   </g>
   <g id="matplotlib.axis_3">
    <g id="xtick_7">
     <g id="line2d_12">
      <g>
       <use xlink:href="#m681a26d54a" x="91.068912" y="307.872" style="stroke: #000000; stroke-width: 0.8"/>
      </g>
     </g>
     <g id="text_6">
      <!-- 0 -->
      <g transform="translate(87.887662 322.470438) scale(0.1 -0.1)">
       <use xlink:href="#DejaVuSans-30"/>
      </g>
     </g>
    </g>
    <g id="xtick_8">
     <g id="line2d_13">
      <g>
       <use xlink:href="#m681a26d54a" x="145.178003" y="307.872" style="stroke: #000000; stroke-width: 0.8"/>
      </g>
     </g>
     <g id="text_7">
      <!-- 5 -->
      <g transform="translate(141.996753 322.470438) scale(0.1 -0.1)">
       <use xlink:href="#DejaVuSans-35"/>
      </g>
     </g>
    </g>
    <g id="xtick_9">
     <g id="line2d_14">
      <g>
       <use xlink:href="#m681a26d54a" x="199.287094" y="307.872" style="stroke: #000000; stroke-width: 0.8"/>
      </g>
     </g>
     <g id="text_8">
      <!-- 10 -->
      <g transform="translate(192.924594 322.470438) scale(0.1 -0.1)">
       <use xlink:href="#DejaVuSans-31"/>
       <use xlink:href="#DejaVuSans-30" x="63.623047"/>
      </g>
     </g>
    </g>
    <g id="xtick_10">
     <g id="line2d_15">
      <g>
       <use xlink:href="#m681a26d54a" x="253.396185" y="307.872" style="stroke: #000000; stroke-width: 0.8"/>
      </g>
     </g>
     <g id="text_9">
      <!-- 15 -->
      <g transform="translate(247.033685 322.470438) scale(0.1 -0.1)">
       <use xlink:href="#DejaVuSans-31"/>
       <use xlink:href="#DejaVuSans-35" x="63.623047"/>
      </g>
     </g>
    </g>
    <g id="xtick_11">
     <g id="line2d_16">
      <g>
       <use xlink:href="#m681a26d54a" x="307.505276" y="307.872" style="stroke: #000000; stroke-width: 0.8"/>
      </g>
     </g>
     <g id="text_10">
      <!-- 20 -->
      <g transform="translate(301.142776 322.470438) scale(0.1 -0.1)">
       <use xlink:href="#DejaVuSans-32"/>
       <use xlink:href="#DejaVuSans-30" x="63.623047"/>
      </g>
     </g>
    </g>
    <g id="xtick_12">
     <g id="line2d_17">
      <g>
       <use xlink:href="#m681a26d54a" x="361.614367" y="307.872" style="stroke: #000000; stroke-width: 0.8"/>
      </g>
     </g>
     <g id="text_11">
      <!-- 25 -->
      <g transform="translate(355.251867 322.470438) scale(0.1 -0.1)">
       <use xlink:href="#DejaVuSans-32"/>
       <use xlink:href="#DejaVuSans-35" x="63.623047"/>
      </g>
     </g>
    </g>
    <g id="text_12">
     <!-- Frequency [MHz] -->
     <g transform="translate(187.136562 336.148562) scale(0.1 -0.1)">
      <defs>
       <path id="DejaVuSans-46" d="M 628 4666 
L 3309 4666 
L 3309 4134 
L 1259 4134 
L 1259 2759 
L 3109 2759 
L 3109 2228 
L 1259 2228 
L 1259 0 
L 628 0 
L 628 4666 
z
" transform="scale(0.015625)"/>
       <path id="DejaVuSans-71" d="M 947 1747 
Q 947 1113 1208 752 
Q 1469 391 1925 391 
Q 2381 391 2643 752 
Q 2906 1113 2906 1747 
Q 2906 2381 2643 2742 
Q 2381 3103 1925 3103 
Q 1469 3103 1208 2742 
Q 947 2381 947 1747 
z
M 2906 525 
Q 2725 213 2448 61 
Q 2172 -91 1784 -91 
Q 1150 -91 751 415 
Q 353 922 353 1747 
Q 353 2572 751 3078 
Q 1150 3584 1784 3584 
Q 2172 3584 2448 3432 
Q 2725 3281 2906 2969 
L 2906 3500 
L 3481 3500 
L 3481 -1331 
L 2906 -1331 
L 2906 525 
z
" transform="scale(0.015625)"/>
       <path id="DejaVuSans-6e" d="M 3513 2113 
L 3513 0 
L 2938 0 
L 2938 2094 
Q 2938 2591 2744 2837 
Q 2550 3084 2163 3084 
Q 1697 3084 1428 2787 
Q 1159 2491 1159 1978 
L 1159 0 
L 581 0 
L 581 3500 
L 1159 3500 
L 1159 2956 
Q 1366 3272 1645 3428 
Q 1925 3584 2291 3584 
Q 2894 3584 3203 3211 
Q 3513 2838 3513 2113 
z
" transform="scale(0.015625)"/>
       <path id="DejaVuSans-63" d="M 3122 3366 
L 3122 2828 
Q 2878 2963 2633 3030 
Q 2388 3097 2138 3097 
Q 1578 3097 1268 2742 
Q 959 2388 959 1747 
Q 959 1106 1268 751 
Q 1578 397 2138 397 
Q 2388 397 2633 464 
Q 2878 531 3122 666 
L 3122 134 
Q 2881 22 2623 -34 
Q 2366 -91 2075 -91 
Q 1284 -91 818 406 
Q 353 903 353 1747 
Q 353 2603 823 3093 
Q 1294 3584 2113 3584 
Q 2378 3584 2631 3529 
Q 2884 3475 3122 3366 
z
" transform="scale(0.015625)"/>
       <path id="DejaVuSans-4d" d="M 628 4666 
L 1569 4666 
L 2759 1491 
L 3956 4666 
L 4897 4666 
L 4897 0 
L 4281 0 
L 4281 4097 
L 3078 897 
L 2444 897 
L 1241 4097 
L 1241 0 
L 628 0 
L 628 4666 
z
" transform="scale(0.015625)"/>
      </defs>
      <use xlink:href="#DejaVuSans-46"/>
      <use xlink:href="#DejaVuSans-72" x="50.269531"/>
      <use xlink:href="#DejaVuSans-65" x="89.132812"/>
      <use xlink:href="#DejaVuSans-71" x="150.65625"/>
      <use xlink:href="#DejaVuSans-75" x="214.132812"/>
      <use xlink:href="#DejaVuSans-65" x="277.511719"/>
      <use xlink:href="#DejaVuSans-6e" x="339.035156"/>
      <use xlink:href="#DejaVuSans-63" x="402.414062"/>
      <use xlink:href="#DejaVuSans-79" x="457.394531"/>
      <use xlink:href="#DejaVuSans-20" x="516.574219"/>
      <use xlink:href="#DejaVuSans-5b" x="548.361328"/>
      <use xlink:href="#DejaVuSans-4d" x="587.375"/>
      <use xlink:href="#DejaVuSans-48" x="673.654297"/>
      <use xlink:href="#DejaVuSans-7a" x="748.849609"/>
      <use xlink:href="#DejaVuSans-5d" x="801.339844"/>
     </g>
    </g>
    <g id="text_13">
     <!-- +6 GHz -->
     <g transform="translate(369.277812 335.148562) scale(0.1 -0.1)">
      <defs>
       <path id="DejaVuSans-2b" d="M 2944 4013 
L 2944 2272 
L 4684 2272 
L 4684 1741 
L 2944 1741 
L 2944 0 
L 2419 0 
L 2419 1741 
L 678 1741 
L 678 2272 
L 2419 2272 
L 2419 4013 
L 2944 4013 
z
" transform="scale(0.015625)"/>
      </defs>
      <use xlink:href="#DejaVuSans-2b"/>
      <use xlink:href="#DejaVuSans-36" x="83.789062"/>
      <use xlink:href="#DejaVuSans-20" x="147.412109"/>
      <use xlink:href="#DejaVuSans-47" x="179.199219"/>
      <use xlink:href="#DejaVuSans-48" x="256.689453"/>
      <use xlink:href="#DejaVuSans-7a" x="331.884766"/>
     </g>
    </g>
   </g>
   <g id="matplotlib.axis_4">
    <g id="ytick_4">
     <g id="line2d_18">
      <g>
       <use xlink:href="#m7d850bd934" x="50.595313" y="277.938002" style="stroke: #000000; stroke-width: 0.8"/>
      </g>
     </g>
     <g id="text_14">
      <!-- -100 -->
      <g transform="translate(20.9 281.737221) scale(0.1 -0.1)">
       <use xlink:href="#DejaVuSans-2d"/>
       <use xlink:href="#DejaVuSans-31" x="36.083984"/>
       <use xlink:href="#DejaVuSans-30" x="99.707031"/>
       <use xlink:href="#DejaVuSans-30" x="163.330078"/>
      </g>
     </g>
    </g>
    <g id="ytick_5">
     <g id="line2d_19">
      <g>
       <use xlink:href="#m7d850bd934" x="50.595313" y="247.373098" style="stroke: #000000; stroke-width: 0.8"/>
      </g>
     </g>
     <g id="text_15">
      <!-- 0 -->
      <g transform="translate(37.232813 251.172317) scale(0.1 -0.1)">
       <use xlink:href="#DejaVuSans-30"/>
      </g>
     </g>
    </g>
    <g id="ytick_6">
     <g id="line2d_20">
      <g>
       <use xlink:href="#m7d850bd934" x="50.595313" y="216.808194" style="stroke: #000000; stroke-width: 0.8"/>
      </g>
     </g>
     <g id="text_16">
      <!-- 100 -->
      <g transform="translate(24.507813 220.607413) scale(0.1 -0.1)">
       <use xlink:href="#DejaVuSans-31"/>
       <use xlink:href="#DejaVuSans-30" x="63.623047"/>
       <use xlink:href="#DejaVuSans-30" x="127.246094"/>
      </g>
     </g>
    </g>
    <g id="text_17">
     <!-- $\angle S_{21}$ [deg] -->
     <g transform="translate(14.8 274.592) rotate(-90) scale(0.1 -0.1)">
      <defs>
       <path id="DejaVuSans-2220" d="M 5028 631 
L 5028 0 
L 547 0 
L 3525 4666 
L 4281 4666 
L 1716 631 
L 5028 631 
z
" transform="scale(0.015625)"/>
       <path id="DejaVuSans-64" d="M 2906 2969 
L 2906 4863 
L 3481 4863 
L 3481 0 
L 2906 0 
L 2906 525 
Q 2725 213 2448 61 
Q 2172 -91 1784 -91 
Q 1150 -91 751 415 
Q 353 922 353 1747 
Q 353 2572 751 3078 
Q 1150 3584 1784 3584 
Q 2172 3584 2448 3432 
Q 2725 3281 2906 2969 
z
M 947 1747 
Q 947 1113 1208 752 
Q 1469 391 1925 391 
Q 2381 391 2643 752 
Q 2906 1113 2906 1747 
Q 2906 2381 2643 2742 
Q 2381 3103 1925 3103 
Q 1469 3103 1208 2742 
Q 947 2381 947 1747 
z
" transform="scale(0.015625)"/>
       <path id="DejaVuSans-67" d="M 2906 1791 
Q 2906 2416 2648 2759 
Q 2391 3103 1925 3103 
Q 1463 3103 1205 2759 
Q 947 2416 947 1791 
Q 947 1169 1205 825 
Q 1463 481 1925 481 
Q 2391 481 2648 825 
Q 2906 1169 2906 1791 
z
M 3481 434 
Q 3481 -459 3084 -895 
Q 2688 -1331 1869 -1331 
Q 1566 -1331 1297 -1286 
Q 1028 -1241 775 -1147 
L 775 -588 
Q 1028 -725 1275 -790 
Q 1522 -856 1778 -856 
Q 2344 -856 2625 -561 
Q 2906 -266 2906 331 
L 2906 616 
Q 2728 306 2450 153 
Q 2172 0 1784 0 
Q 1141 0 747 490 
Q 353 981 353 1791 
Q 353 2603 747 3093 
Q 1141 3584 1784 3584 
Q 2172 3584 2450 3431 
Q 2728 3278 2906 2969 
L 2906 3500 
L 3481 3500 
L 3481 434 
z
" transform="scale(0.015625)"/>
      </defs>
      <use xlink:href="#DejaVuSans-2220" transform="translate(0 0.015625)"/>
      <use xlink:href="#DejaVuSans-Oblique-53" transform="translate(89.648438 0.015625)"/>
      <use xlink:href="#DejaVuSans-32" transform="translate(153.125 -16.390625) scale(0.7)"/>
      <use xlink:href="#DejaVuSans-31" transform="translate(197.661133 -16.390625) scale(0.7)"/>
      <use xlink:href="#DejaVuSans-20" transform="translate(244.931641 0.015625)"/>
      <use xlink:href="#DejaVuSans-5b" transform="translate(276.71875 0.015625)"/>
      <use xlink:href="#DejaVuSans-64" transform="translate(315.732422 0.015625)"/>
      <use xlink:href="#DejaVuSans-65" transform="translate(379.208984 0.015625)"/>
      <use xlink:href="#DejaVuSans-67" transform="translate(440.732422 0.015625)"/>
      <use xlink:href="#DejaVuSans-5d" transform="translate(504.208984 0.015625)"/>
     </g>
    </g>
   </g>
   <g id="line2d_21">
    <path d="M 66.82804 264.275899 
L 74.985189 265.840739 
L 145.136674 278.848254 
L 164.713832 282.765348 
L 184.290991 287.140403 
L 194.07957 289.659151 
L 200.60529 291.590601 
L 205.499579 293.253312 
L 210.393869 295.216715 
L 213.656729 296.76074 
L 216.919588 298.553609 
L 220.182448 300.69396 
L 221.813878 301.926902 
L 223.445308 193.237513 
L 226.708168 196.087746 
L 228.339598 197.236262 
L 229.971027 197.241733 
L 231.602457 302.191841 
L 233.233887 282.667608 
L 234.865317 274.915958 
L 236.496747 274.614119 
L 238.128177 275.89549 
L 243.022466 280.840384 
L 246.285326 283.615473 
L 249.548186 285.869153 
L 252.811046 287.747721 
L 256.073905 289.350853 
L 259.336765 290.736971 
L 264.231055 292.570311 
L 270.756774 294.687884 
L 277.282494 296.550706 
L 283.808213 298.266838 
L 300.122512 302.180139 
L 301.753942 192.518848 
L 318.068241 196.065408 
L 340.908259 200.73394 
L 357.222558 203.867821 
L 368.642567 206.057295 
L 391.482585 210.23525 
L 391.482585 210.23525 
" clip-path="url(#pd08397c0db)" style="fill: none; stroke: #1f77b4; stroke-width: 1.5; stroke-linecap: square"/>
    <g clip-path="url(#pd08397c0db)">
     <use xlink:href="#m386b6537f0" x="66.82804" y="264.275899" style="fill: #1f77b4; stroke: #1f77b4"/>
     <use xlink:href="#m386b6537f0" x="68.45947" y="264.606481" style="fill: #1f77b4; stroke: #1f77b4"/>
     <use xlink:href="#m386b6537f0" x="70.0909" y="264.919556" style="fill: #1f77b4; stroke: #1f77b4"/>
     <use xlink:href="#m386b6537f0" x="71.722329" y="265.232796" style="fill: #1f77b4; stroke: #1f77b4"/>
     <use xlink:href="#m386b6537f0" x="73.353759" y="265.528789" style="fill: #1f77b4; stroke: #1f77b4"/>
     <use xlink:href="#m386b6537f0" x="74.985189" y="265.840739" style="fill: #1f77b4; stroke: #1f77b4"/>
     <use xlink:href="#m386b6537f0" x="76.616619" y="266.141019" style="fill: #1f77b4; stroke: #1f77b4"/>
     <use xlink:href="#m386b6537f0" x="78.248049" y="266.443998" style="fill: #1f77b4; stroke: #1f77b4"/>
     <use xlink:href="#m386b6537f0" x="79.879479" y="266.743828" style="fill: #1f77b4; stroke: #1f77b4"/>
     <use xlink:href="#m386b6537f0" x="81.510909" y="267.035798" style="fill: #1f77b4; stroke: #1f77b4"/>
     <use xlink:href="#m386b6537f0" x="83.142339" y="267.342442" style="fill: #1f77b4; stroke: #1f77b4"/>
     <use xlink:href="#m386b6537f0" x="84.773768" y="267.635131" style="fill: #1f77b4; stroke: #1f77b4"/>
     <use xlink:href="#m386b6537f0" x="86.405198" y="267.930635" style="fill: #1f77b4; stroke: #1f77b4"/>
     <use xlink:href="#m386b6537f0" x="88.036628" y="268.234703" style="fill: #1f77b4; stroke: #1f77b4"/>
     <use xlink:href="#m386b6537f0" x="89.668058" y="268.533314" style="fill: #1f77b4; stroke: #1f77b4"/>
     <use xlink:href="#m386b6537f0" x="91.299488" y="268.833984" style="fill: #1f77b4; stroke: #1f77b4"/>
     <use xlink:href="#m386b6537f0" x="92.930918" y="269.123222" style="fill: #1f77b4; stroke: #1f77b4"/>
     <use xlink:href="#m386b6537f0" x="94.562348" y="269.426265" style="fill: #1f77b4; stroke: #1f77b4"/>
     <use xlink:href="#m386b6537f0" x="96.193778" y="269.728834" style="fill: #1f77b4; stroke: #1f77b4"/>
     <use xlink:href="#m386b6537f0" x="97.825207" y="270.014109" style="fill: #1f77b4; stroke: #1f77b4"/>
     <use xlink:href="#m386b6537f0" x="99.456637" y="270.315548" style="fill: #1f77b4; stroke: #1f77b4"/>
     <use xlink:href="#m386b6537f0" x="101.088067" y="270.619765" style="fill: #1f77b4; stroke: #1f77b4"/>
     <use xlink:href="#m386b6537f0" x="102.719497" y="270.923253" style="fill: #1f77b4; stroke: #1f77b4"/>
     <use xlink:href="#m386b6537f0" x="104.350927" y="271.217083" style="fill: #1f77b4; stroke: #1f77b4"/>
     <use xlink:href="#m386b6537f0" x="105.982357" y="271.513682" style="fill: #1f77b4; stroke: #1f77b4"/>
     <use xlink:href="#m386b6537f0" x="107.613787" y="271.815787" style="fill: #1f77b4; stroke: #1f77b4"/>
     <use xlink:href="#m386b6537f0" x="109.245217" y="272.116347" style="fill: #1f77b4; stroke: #1f77b4"/>
     <use xlink:href="#m386b6537f0" x="110.876646" y="272.411005" style="fill: #1f77b4; stroke: #1f77b4"/>
     <use xlink:href="#m386b6537f0" x="112.508076" y="272.7115" style="fill: #1f77b4; stroke: #1f77b4"/>
     <use xlink:href="#m386b6537f0" x="114.139506" y="273.007224" style="fill: #1f77b4; stroke: #1f77b4"/>
     <use xlink:href="#m386b6537f0" x="115.770936" y="273.318416" style="fill: #1f77b4; stroke: #1f77b4"/>
     <use xlink:href="#m386b6537f0" x="117.402366" y="273.611603" style="fill: #1f77b4; stroke: #1f77b4"/>
     <use xlink:href="#m386b6537f0" x="119.033796" y="273.90478" style="fill: #1f77b4; stroke: #1f77b4"/>
     <use xlink:href="#m386b6537f0" x="120.665226" y="274.206266" style="fill: #1f77b4; stroke: #1f77b4"/>
     <use xlink:href="#m386b6537f0" x="122.296656" y="274.498532" style="fill: #1f77b4; stroke: #1f77b4"/>
     <use xlink:href="#m386b6537f0" x="123.928085" y="274.800989" style="fill: #1f77b4; stroke: #1f77b4"/>
     <use xlink:href="#m386b6537f0" x="125.559515" y="275.106685" style="fill: #1f77b4; stroke: #1f77b4"/>
     <use xlink:href="#m386b6537f0" x="127.190945" y="275.392579" style="fill: #1f77b4; stroke: #1f77b4"/>
     <use xlink:href="#m386b6537f0" x="128.822375" y="275.693346" style="fill: #1f77b4; stroke: #1f77b4"/>
     <use xlink:href="#m386b6537f0" x="130.453805" y="276.008719" style="fill: #1f77b4; stroke: #1f77b4"/>
     <use xlink:href="#m386b6537f0" x="132.085235" y="276.316183" style="fill: #1f77b4; stroke: #1f77b4"/>
     <use xlink:href="#m386b6537f0" x="133.716665" y="276.619608" style="fill: #1f77b4; stroke: #1f77b4"/>
     <use xlink:href="#m386b6537f0" x="135.348095" y="276.916023" style="fill: #1f77b4; stroke: #1f77b4"/>
     <use xlink:href="#m386b6537f0" x="136.979524" y="277.231305" style="fill: #1f77b4; stroke: #1f77b4"/>
     <use xlink:href="#m386b6537f0" x="138.610954" y="277.556527" style="fill: #1f77b4; stroke: #1f77b4"/>
     <use xlink:href="#m386b6537f0" x="140.242384" y="277.881113" style="fill: #1f77b4; stroke: #1f77b4"/>
     <use xlink:href="#m386b6537f0" x="141.873814" y="278.209051" style="fill: #1f77b4; stroke: #1f77b4"/>
     <use xlink:href="#m386b6537f0" x="143.505244" y="278.512838" style="fill: #1f77b4; stroke: #1f77b4"/>
     <use xlink:href="#m386b6537f0" x="145.136674" y="278.848254" style="fill: #1f77b4; stroke: #1f77b4"/>
     <use xlink:href="#m386b6537f0" x="146.768104" y="279.166996" style="fill: #1f77b4; stroke: #1f77b4"/>
     <use xlink:href="#m386b6537f0" x="148.399534" y="279.488674" style="fill: #1f77b4; stroke: #1f77b4"/>
     <use xlink:href="#m386b6537f0" x="150.030963" y="279.786131" style="fill: #1f77b4; stroke: #1f77b4"/>
     <use xlink:href="#m386b6537f0" x="151.662393" y="280.122054" style="fill: #1f77b4; stroke: #1f77b4"/>
     <use xlink:href="#m386b6537f0" x="153.293823" y="280.436104" style="fill: #1f77b4; stroke: #1f77b4"/>
     <use xlink:href="#m386b6537f0" x="154.925253" y="280.763146" style="fill: #1f77b4; stroke: #1f77b4"/>
     <use xlink:href="#m386b6537f0" x="156.556683" y="281.095479" style="fill: #1f77b4; stroke: #1f77b4"/>
     <use xlink:href="#m386b6537f0" x="158.188113" y="281.41939" style="fill: #1f77b4; stroke: #1f77b4"/>
     <use xlink:href="#m386b6537f0" x="159.819543" y="281.750356" style="fill: #1f77b4; stroke: #1f77b4"/>
     <use xlink:href="#m386b6537f0" x="161.450973" y="282.083688" style="fill: #1f77b4; stroke: #1f77b4"/>
     <use xlink:href="#m386b6537f0" x="163.082402" y="282.415739" style="fill: #1f77b4; stroke: #1f77b4"/>
     <use xlink:href="#m386b6537f0" x="164.713832" y="282.765348" style="fill: #1f77b4; stroke: #1f77b4"/>
     <use xlink:href="#m386b6537f0" x="166.345262" y="283.123303" style="fill: #1f77b4; stroke: #1f77b4"/>
     <use xlink:href="#m386b6537f0" x="167.976692" y="283.477223" style="fill: #1f77b4; stroke: #1f77b4"/>
     <use xlink:href="#m386b6537f0" x="169.608122" y="283.832865" style="fill: #1f77b4; stroke: #1f77b4"/>
     <use xlink:href="#m386b6537f0" x="171.239552" y="284.186237" style="fill: #1f77b4; stroke: #1f77b4"/>
     <use xlink:href="#m386b6537f0" x="172.870982" y="284.532421" style="fill: #1f77b4; stroke: #1f77b4"/>
     <use xlink:href="#m386b6537f0" x="174.502412" y="284.903556" style="fill: #1f77b4; stroke: #1f77b4"/>
     <use xlink:href="#m386b6537f0" x="176.133842" y="285.260937" style="fill: #1f77b4; stroke: #1f77b4"/>
     <use xlink:href="#m386b6537f0" x="177.765271" y="285.622151" style="fill: #1f77b4; stroke: #1f77b4"/>
     <use xlink:href="#m386b6537f0" x="179.396701" y="285.989106" style="fill: #1f77b4; stroke: #1f77b4"/>
     <use xlink:href="#m386b6537f0" x="181.028131" y="286.36555" style="fill: #1f77b4; stroke: #1f77b4"/>
     <use xlink:href="#m386b6537f0" x="182.659561" y="286.755383" style="fill: #1f77b4; stroke: #1f77b4"/>
     <use xlink:href="#m386b6537f0" x="184.290991" y="287.140403" style="fill: #1f77b4; stroke: #1f77b4"/>
     <use xlink:href="#m386b6537f0" x="185.922421" y="287.54515" style="fill: #1f77b4; stroke: #1f77b4"/>
     <use xlink:href="#m386b6537f0" x="187.553851" y="287.932422" style="fill: #1f77b4; stroke: #1f77b4"/>
     <use xlink:href="#m386b6537f0" x="189.185281" y="288.353464" style="fill: #1f77b4; stroke: #1f77b4"/>
     <use xlink:href="#m386b6537f0" x="190.81671" y="288.78143" style="fill: #1f77b4; stroke: #1f77b4"/>
     <use xlink:href="#m386b6537f0" x="192.44814" y="289.210715" style="fill: #1f77b4; stroke: #1f77b4"/>
     <use xlink:href="#m386b6537f0" x="194.07957" y="289.659151" style="fill: #1f77b4; stroke: #1f77b4"/>
     <use xlink:href="#m386b6537f0" x="195.711" y="290.119393" style="fill: #1f77b4; stroke: #1f77b4"/>
     <use xlink:href="#m386b6537f0" x="197.34243" y="290.588874" style="fill: #1f77b4; stroke: #1f77b4"/>
     <use xlink:href="#m386b6537f0" x="198.97386" y="291.076588" style="fill: #1f77b4; stroke: #1f77b4"/>
     <use xlink:href="#m386b6537f0" x="200.60529" y="291.590601" style="fill: #1f77b4; stroke: #1f77b4"/>
     <use xlink:href="#m386b6537f0" x="202.23672" y="292.121947" style="fill: #1f77b4; stroke: #1f77b4"/>
     <use xlink:href="#m386b6537f0" x="203.868149" y="292.676762" style="fill: #1f77b4; stroke: #1f77b4"/>
     <use xlink:href="#m386b6537f0" x="205.499579" y="293.253312" style="fill: #1f77b4; stroke: #1f77b4"/>
     <use xlink:href="#m386b6537f0" x="207.131009" y="293.870797" style="fill: #1f77b4; stroke: #1f77b4"/>
     <use xlink:href="#m386b6537f0" x="208.762439" y="294.524888" style="fill: #1f77b4; stroke: #1f77b4"/>
     <use xlink:href="#m386b6537f0" x="210.393869" y="295.216715" style="fill: #1f77b4; stroke: #1f77b4"/>
     <use xlink:href="#m386b6537f0" x="212.025299" y="295.951045" style="fill: #1f77b4; stroke: #1f77b4"/>
     <use xlink:href="#m386b6537f0" x="213.656729" y="296.76074" style="fill: #1f77b4; stroke: #1f77b4"/>
     <use xlink:href="#m386b6537f0" x="215.288159" y="297.608401" style="fill: #1f77b4; stroke: #1f77b4"/>
     <use xlink:href="#m386b6537f0" x="216.919588" y="298.553609" style="fill: #1f77b4; stroke: #1f77b4"/>
     <use xlink:href="#m386b6537f0" x="218.551018" y="299.56471" style="fill: #1f77b4; stroke: #1f77b4"/>
     <use xlink:href="#m386b6537f0" x="220.182448" y="300.69396" style="fill: #1f77b4; stroke: #1f77b4"/>
     <use xlink:href="#m386b6537f0" x="221.813878" y="301.926902" style="fill: #1f77b4; stroke: #1f77b4"/>
     <use xlink:href="#m386b6537f0" x="223.445308" y="193.237513" style="fill: #1f77b4; stroke: #1f77b4"/>
     <use xlink:href="#m386b6537f0" x="225.076738" y="194.680339" style="fill: #1f77b4; stroke: #1f77b4"/>
     <use xlink:href="#m386b6537f0" x="226.708168" y="196.087746" style="fill: #1f77b4; stroke: #1f77b4"/>
     <use xlink:href="#m386b6537f0" x="228.339598" y="197.236262" style="fill: #1f77b4; stroke: #1f77b4"/>
     <use xlink:href="#m386b6537f0" x="229.971027" y="197.241733" style="fill: #1f77b4; stroke: #1f77b4"/>
     <use xlink:href="#m386b6537f0" x="231.602457" y="302.191841" style="fill: #1f77b4; stroke: #1f77b4"/>
     <use xlink:href="#m386b6537f0" x="233.233887" y="282.667608" style="fill: #1f77b4; stroke: #1f77b4"/>
     <use xlink:href="#m386b6537f0" x="234.865317" y="274.915958" style="fill: #1f77b4; stroke: #1f77b4"/>
     <use xlink:href="#m386b6537f0" x="236.496747" y="274.614119" style="fill: #1f77b4; stroke: #1f77b4"/>
     <use xlink:href="#m386b6537f0" x="238.128177" y="275.89549" style="fill: #1f77b4; stroke: #1f77b4"/>
     <use xlink:href="#m386b6537f0" x="239.759607" y="277.561687" style="fill: #1f77b4; stroke: #1f77b4"/>
     <use xlink:href="#m386b6537f0" x="241.391037" y="279.258992" style="fill: #1f77b4; stroke: #1f77b4"/>
     <use xlink:href="#m386b6537f0" x="243.022466" y="280.840384" style="fill: #1f77b4; stroke: #1f77b4"/>
     <use xlink:href="#m386b6537f0" x="244.653896" y="282.295266" style="fill: #1f77b4; stroke: #1f77b4"/>
     <use xlink:href="#m386b6537f0" x="246.285326" y="283.615473" style="fill: #1f77b4; stroke: #1f77b4"/>
     <use xlink:href="#m386b6537f0" x="247.916756" y="284.794008" style="fill: #1f77b4; stroke: #1f77b4"/>
     <use xlink:href="#m386b6537f0" x="249.548186" y="285.869153" style="fill: #1f77b4; stroke: #1f77b4"/>
     <use xlink:href="#m386b6537f0" x="251.179616" y="286.852063" style="fill: #1f77b4; stroke: #1f77b4"/>
     <use xlink:href="#m386b6537f0" x="252.811046" y="287.747721" style="fill: #1f77b4; stroke: #1f77b4"/>
     <use xlink:href="#m386b6537f0" x="254.442476" y="288.570631" style="fill: #1f77b4; stroke: #1f77b4"/>
     <use xlink:href="#m386b6537f0" x="256.073905" y="289.350853" style="fill: #1f77b4; stroke: #1f77b4"/>
     <use xlink:href="#m386b6537f0" x="257.705335" y="290.069238" style="fill: #1f77b4; stroke: #1f77b4"/>
     <use xlink:href="#m386b6537f0" x="259.336765" y="290.736971" style="fill: #1f77b4; stroke: #1f77b4"/>
     <use xlink:href="#m386b6537f0" x="260.968195" y="291.383826" style="fill: #1f77b4; stroke: #1f77b4"/>
     <use xlink:href="#m386b6537f0" x="262.599625" y="291.978322" style="fill: #1f77b4; stroke: #1f77b4"/>
     <use xlink:href="#m386b6537f0" x="264.231055" y="292.570311" style="fill: #1f77b4; stroke: #1f77b4"/>
     <use xlink:href="#m386b6537f0" x="265.862485" y="293.123747" style="fill: #1f77b4; stroke: #1f77b4"/>
     <use xlink:href="#m386b6537f0" x="267.493915" y="293.657235" style="fill: #1f77b4; stroke: #1f77b4"/>
     <use xlink:href="#m386b6537f0" x="269.125344" y="294.179456" style="fill: #1f77b4; stroke: #1f77b4"/>
     <use xlink:href="#m386b6537f0" x="270.756774" y="294.687884" style="fill: #1f77b4; stroke: #1f77b4"/>
     <use xlink:href="#m386b6537f0" x="272.388204" y="295.173942" style="fill: #1f77b4; stroke: #1f77b4"/>
     <use xlink:href="#m386b6537f0" x="274.019634" y="295.652135" style="fill: #1f77b4; stroke: #1f77b4"/>
     <use xlink:href="#m386b6537f0" x="275.651064" y="296.10285" style="fill: #1f77b4; stroke: #1f77b4"/>
     <use xlink:href="#m386b6537f0" x="277.282494" y="296.550706" style="fill: #1f77b4; stroke: #1f77b4"/>
     <use xlink:href="#m386b6537f0" x="278.913924" y="297.001855" style="fill: #1f77b4; stroke: #1f77b4"/>
     <use xlink:href="#m386b6537f0" x="280.545354" y="297.431837" style="fill: #1f77b4; stroke: #1f77b4"/>
     <use xlink:href="#m386b6537f0" x="282.176783" y="297.856112" style="fill: #1f77b4; stroke: #1f77b4"/>
     <use xlink:href="#m386b6537f0" x="283.808213" y="298.266838" style="fill: #1f77b4; stroke: #1f77b4"/>
     <use xlink:href="#m386b6537f0" x="285.439643" y="298.666429" style="fill: #1f77b4; stroke: #1f77b4"/>
     <use xlink:href="#m386b6537f0" x="287.071073" y="299.076359" style="fill: #1f77b4; stroke: #1f77b4"/>
     <use xlink:href="#m386b6537f0" x="288.702503" y="299.486943" style="fill: #1f77b4; stroke: #1f77b4"/>
     <use xlink:href="#m386b6537f0" x="290.333933" y="299.879934" style="fill: #1f77b4; stroke: #1f77b4"/>
     <use xlink:href="#m386b6537f0" x="291.965363" y="300.278556" style="fill: #1f77b4; stroke: #1f77b4"/>
     <use xlink:href="#m386b6537f0" x="293.596793" y="300.663443" style="fill: #1f77b4; stroke: #1f77b4"/>
     <use xlink:href="#m386b6537f0" x="295.228223" y="301.041643" style="fill: #1f77b4; stroke: #1f77b4"/>
     <use xlink:href="#m386b6537f0" x="296.859652" y="301.423656" style="fill: #1f77b4; stroke: #1f77b4"/>
     <use xlink:href="#m386b6537f0" x="298.491082" y="301.802145" style="fill: #1f77b4; stroke: #1f77b4"/>
     <use xlink:href="#m386b6537f0" x="300.122512" y="302.180139" style="fill: #1f77b4; stroke: #1f77b4"/>
     <use xlink:href="#m386b6537f0" x="301.753942" y="192.518848" style="fill: #1f77b4; stroke: #1f77b4"/>
     <use xlink:href="#m386b6537f0" x="303.385372" y="192.883702" style="fill: #1f77b4; stroke: #1f77b4"/>
     <use xlink:href="#m386b6537f0" x="305.016802" y="193.250675" style="fill: #1f77b4; stroke: #1f77b4"/>
     <use xlink:href="#m386b6537f0" x="306.648232" y="193.610182" style="fill: #1f77b4; stroke: #1f77b4"/>
     <use xlink:href="#m386b6537f0" x="308.279662" y="193.963447" style="fill: #1f77b4; stroke: #1f77b4"/>
     <use xlink:href="#m386b6537f0" x="309.911091" y="194.314077" style="fill: #1f77b4; stroke: #1f77b4"/>
     <use xlink:href="#m386b6537f0" x="311.542521" y="194.684972" style="fill: #1f77b4; stroke: #1f77b4"/>
     <use xlink:href="#m386b6537f0" x="313.173951" y="195.034334" style="fill: #1f77b4; stroke: #1f77b4"/>
     <use xlink:href="#m386b6537f0" x="314.805381" y="195.374304" style="fill: #1f77b4; stroke: #1f77b4"/>
     <use xlink:href="#m386b6537f0" x="316.436811" y="195.723546" style="fill: #1f77b4; stroke: #1f77b4"/>
     <use xlink:href="#m386b6537f0" x="318.068241" y="196.065408" style="fill: #1f77b4; stroke: #1f77b4"/>
     <use xlink:href="#m386b6537f0" x="319.699671" y="196.405776" style="fill: #1f77b4; stroke: #1f77b4"/>
     <use xlink:href="#m386b6537f0" x="321.331101" y="196.748478" style="fill: #1f77b4; stroke: #1f77b4"/>
     <use xlink:href="#m386b6537f0" x="322.96253" y="197.082785" style="fill: #1f77b4; stroke: #1f77b4"/>
     <use xlink:href="#m386b6537f0" x="324.59396" y="197.435017" style="fill: #1f77b4; stroke: #1f77b4"/>
     <use xlink:href="#m386b6537f0" x="326.22539" y="197.762974" style="fill: #1f77b4; stroke: #1f77b4"/>
     <use xlink:href="#m386b6537f0" x="327.85682" y="198.102216" style="fill: #1f77b4; stroke: #1f77b4"/>
     <use xlink:href="#m386b6537f0" x="329.48825" y="198.410634" style="fill: #1f77b4; stroke: #1f77b4"/>
     <use xlink:href="#m386b6537f0" x="331.11968" y="198.757464" style="fill: #1f77b4; stroke: #1f77b4"/>
     <use xlink:href="#m386b6537f0" x="332.75111" y="199.100093" style="fill: #1f77b4; stroke: #1f77b4"/>
     <use xlink:href="#m386b6537f0" x="334.38254" y="199.432592" style="fill: #1f77b4; stroke: #1f77b4"/>
     <use xlink:href="#m386b6537f0" x="336.013969" y="199.756005" style="fill: #1f77b4; stroke: #1f77b4"/>
     <use xlink:href="#m386b6537f0" x="337.645399" y="200.080911" style="fill: #1f77b4; stroke: #1f77b4"/>
     <use xlink:href="#m386b6537f0" x="339.276829" y="200.399951" style="fill: #1f77b4; stroke: #1f77b4"/>
     <use xlink:href="#m386b6537f0" x="340.908259" y="200.73394" style="fill: #1f77b4; stroke: #1f77b4"/>
     <use xlink:href="#m386b6537f0" x="342.539689" y="201.037694" style="fill: #1f77b4; stroke: #1f77b4"/>
     <use xlink:href="#m386b6537f0" x="344.171119" y="201.347862" style="fill: #1f77b4; stroke: #1f77b4"/>
     <use xlink:href="#m386b6537f0" x="345.802549" y="201.663174" style="fill: #1f77b4; stroke: #1f77b4"/>
     <use xlink:href="#m386b6537f0" x="347.433979" y="201.967374" style="fill: #1f77b4; stroke: #1f77b4"/>
     <use xlink:href="#m386b6537f0" x="349.065408" y="202.285083" style="fill: #1f77b4; stroke: #1f77b4"/>
     <use xlink:href="#m386b6537f0" x="350.696838" y="202.603175" style="fill: #1f77b4; stroke: #1f77b4"/>
     <use xlink:href="#m386b6537f0" x="352.328268" y="202.920289" style="fill: #1f77b4; stroke: #1f77b4"/>
     <use xlink:href="#m386b6537f0" x="353.959698" y="203.238578" style="fill: #1f77b4; stroke: #1f77b4"/>
     <use xlink:href="#m386b6537f0" x="355.591128" y="203.565111" style="fill: #1f77b4; stroke: #1f77b4"/>
     <use xlink:href="#m386b6537f0" x="357.222558" y="203.867821" style="fill: #1f77b4; stroke: #1f77b4"/>
     <use xlink:href="#m386b6537f0" x="358.853988" y="204.195145" style="fill: #1f77b4; stroke: #1f77b4"/>
     <use xlink:href="#m386b6537f0" x="360.485418" y="204.502825" style="fill: #1f77b4; stroke: #1f77b4"/>
     <use xlink:href="#m386b6537f0" x="362.116847" y="204.807102" style="fill: #1f77b4; stroke: #1f77b4"/>
     <use xlink:href="#m386b6537f0" x="363.748277" y="205.126201" style="fill: #1f77b4; stroke: #1f77b4"/>
     <use xlink:href="#m386b6537f0" x="365.379707" y="205.450325" style="fill: #1f77b4; stroke: #1f77b4"/>
     <use xlink:href="#m386b6537f0" x="367.011137" y="205.74903" style="fill: #1f77b4; stroke: #1f77b4"/>
     <use xlink:href="#m386b6537f0" x="368.642567" y="206.057295" style="fill: #1f77b4; stroke: #1f77b4"/>
     <use xlink:href="#m386b6537f0" x="370.273997" y="206.348827" style="fill: #1f77b4; stroke: #1f77b4"/>
     <use xlink:href="#m386b6537f0" x="371.905427" y="206.658127" style="fill: #1f77b4; stroke: #1f77b4"/>
     <use xlink:href="#m386b6537f0" x="373.536857" y="206.952235" style="fill: #1f77b4; stroke: #1f77b4"/>
     <use xlink:href="#m386b6537f0" x="375.168286" y="207.257342" style="fill: #1f77b4; stroke: #1f77b4"/>
     <use xlink:href="#m386b6537f0" x="376.799716" y="207.568261" style="fill: #1f77b4; stroke: #1f77b4"/>
     <use xlink:href="#m386b6537f0" x="378.431146" y="207.871834" style="fill: #1f77b4; stroke: #1f77b4"/>
     <use xlink:href="#m386b6537f0" x="380.062576" y="208.173" style="fill: #1f77b4; stroke: #1f77b4"/>
     <use xlink:href="#m386b6537f0" x="381.694006" y="208.466802" style="fill: #1f77b4; stroke: #1f77b4"/>
     <use xlink:href="#m386b6537f0" x="383.325436" y="208.755175" style="fill: #1f77b4; stroke: #1f77b4"/>
     <use xlink:href="#m386b6537f0" x="384.956866" y="209.058564" style="fill: #1f77b4; stroke: #1f77b4"/>
     <use xlink:href="#m386b6537f0" x="386.588296" y="209.356493" style="fill: #1f77b4; stroke: #1f77b4"/>
     <use xlink:href="#m386b6537f0" x="388.219725" y="209.660283" style="fill: #1f77b4; stroke: #1f77b4"/>
     <use xlink:href="#m386b6537f0" x="389.851155" y="209.952595" style="fill: #1f77b4; stroke: #1f77b4"/>
     <use xlink:href="#m386b6537f0" x="391.482585" y="210.23525" style="fill: #1f77b4; stroke: #1f77b4"/>
    </g>
   </g>
   <g id="line2d_22">
    <path d="M 66.82804 263.956428 
L 113.950071 272.799965 
L 143.523208 278.561269 
L 163.346959 282.637189 
L 177.321078 285.725892 
L 187.720423 288.245767 
L 195.519932 290.356266 
L 201.694543 292.252336 
L 206.569236 293.972925 
L 210.46899 295.564455 
L 214.043765 297.268085 
L 216.96858 298.905495 
L 219.568417 300.607857 
L 221.843273 302.336687 
L 222.168253 192.570472 
L 224.443109 194.589729 
L 228.992823 198.826425 
L 229.642782 199.160655 
L 230.292741 199.192962 
L 230.61772 199.013695 
L 230.9427 198.624765 
L 231.267679 197.92237 
L 231.592659 196.736013 
L 231.917638 194.783561 
L 232.242618 301.667512 
L 232.892577 290.805059 
L 233.542536 280.753312 
L 233.867516 278.033378 
L 234.192495 276.367252 
L 234.517475 275.368796 
L 234.842454 274.795537 
L 235.167434 274.501233 
L 235.492413 274.395996 
L 236.142372 274.543366 
L 236.792331 274.971565 
L 238.092249 276.211595 
L 243.616901 281.957994 
L 245.891758 283.884863 
L 248.166615 285.544791 
L 250.766451 287.175716 
L 253.691267 288.74815 
L 257.266041 290.392211 
L 261.165796 291.937221 
L 266.040489 293.617669 
L 271.89012 295.388059 
L 279.364649 297.399695 
L 288.789055 299.689104 
L 300.813298 302.373818 
L 301.138277 192.410182 
L 317.712233 195.862971 
L 340.785779 200.424881 
L 373.933691 206.735061 
L 391.482585 210.013276 
L 391.482585 210.013276 
" clip-path="url(#pd08397c0db)" style="fill: none; stroke: #d62728; stroke-width: 1.5; stroke-linecap: square"/>
   </g>
   <g id="patch_9">
    <path d="M 50.595313 307.872 
L 50.595313 186.912 
" style="fill: none; stroke: #000000; stroke-width: 0.8; stroke-linejoin: miter; stroke-linecap: square"/>
   </g>
   <g id="patch_10">
    <path d="M 407.715312 307.872 
L 407.715312 186.912 
" style="fill: none; stroke: #000000; stroke-width: 0.8; stroke-linejoin: miter; stroke-linecap: square"/>
   </g>
   <g id="patch_11">
    <path d="M 50.595313 307.872 
L 407.715313 307.872 
" style="fill: none; stroke: #000000; stroke-width: 0.8; stroke-linejoin: miter; stroke-linecap: square"/>
   </g>
   <g id="patch_12">
    <path d="M 50.595313 186.912 
L 407.715313 186.912 
" style="fill: none; stroke: #000000; stroke-width: 0.8; stroke-linejoin: miter; stroke-linecap: square"/>
   </g>
  </g>
  <g id="text_18">
   <!-- S21 One-tone -->
   <g transform="translate(182.144375 16.318125) scale(0.12 -0.12)">
    <defs>
     <path id="DejaVuSans-4f" d="M 2522 4238 
Q 1834 4238 1429 3725 
Q 1025 3213 1025 2328 
Q 1025 1447 1429 934 
Q 1834 422 2522 422 
Q 3209 422 3611 934 
Q 4013 1447 4013 2328 
Q 4013 3213 3611 3725 
Q 3209 4238 2522 4238 
z
M 2522 4750 
Q 3503 4750 4090 4092 
Q 4678 3434 4678 2328 
Q 4678 1225 4090 567 
Q 3503 -91 2522 -91 
Q 1538 -91 948 565 
Q 359 1222 359 2328 
Q 359 3434 948 4092 
Q 1538 4750 2522 4750 
z
" transform="scale(0.015625)"/>
     <path id="DejaVuSans-74" d="M 1172 4494 
L 1172 3500 
L 2356 3500 
L 2356 3053 
L 1172 3053 
L 1172 1153 
Q 1172 725 1289 603 
Q 1406 481 1766 481 
L 2356 481 
L 2356 0 
L 1766 0 
Q 1100 0 847 248 
Q 594 497 594 1153 
L 594 3053 
L 172 3053 
L 172 3500 
L 594 3500 
L 594 4494 
L 1172 4494 
z
" transform="scale(0.015625)"/>
     <path id="DejaVuSans-6f" d="M 1959 3097 
Q 1497 3097 1228 2736 
Q 959 2375 959 1747 
Q 959 1119 1226 758 
Q 1494 397 1959 397 
Q 2419 397 2687 759 
Q 2956 1122 2956 1747 
Q 2956 2369 2687 2733 
Q 2419 3097 1959 3097 
z
M 1959 3584 
Q 2709 3584 3137 3096 
Q 3566 2609 3566 1747 
Q 3566 888 3137 398 
Q 2709 -91 1959 -91 
Q 1206 -91 779 398 
Q 353 888 353 1747 
Q 353 2609 779 3096 
Q 1206 3584 1959 3584 
z
" transform="scale(0.015625)"/>
    </defs>
    <use xlink:href="#DejaVuSans-53"/>
    <use xlink:href="#DejaVuSans-32" x="63.476562"/>
    <use xlink:href="#DejaVuSans-31" x="127.099609"/>
    <use xlink:href="#DejaVuSans-20" x="190.722656"/>
    <use xlink:href="#DejaVuSans-4f" x="222.509766"/>
    <use xlink:href="#DejaVuSans-6e" x="301.220703"/>
    <use xlink:href="#DejaVuSans-65" x="364.599609"/>
    <use xlink:href="#DejaVuSans-2d" x="426.123047"/>
    <use xlink:href="#DejaVuSans-74" x="462.207031"/>
    <use xlink:href="#DejaVuSans-6f" x="501.416016"/>
    <use xlink:href="#DejaVuSans-6e" x="562.597656"/>
    <use xlink:href="#DejaVuSans-65" x="625.976562"/>
   </g>
   <!-- tuid: 20240311-113314-627-2e66ad -->
   <g transform="translate(113.814688 29.7555) scale(0.12 -0.12)">
    <defs>
     <path id="DejaVuSans-69" d="M 603 3500 
L 1178 3500 
L 1178 0 
L 603 0 
L 603 3500 
z
M 603 4863 
L 1178 4863 
L 1178 4134 
L 603 4134 
L 603 4863 
z
" transform="scale(0.015625)"/>
     <path id="DejaVuSans-37" d="M 525 4666 
L 3525 4666 
L 3525 4397 
L 1831 0 
L 1172 0 
L 2766 4134 
L 525 4134 
L 525 4666 
z
" transform="scale(0.015625)"/>
    </defs>
    <use xlink:href="#DejaVuSans-74"/>
    <use xlink:href="#DejaVuSans-75" x="39.208984"/>
    <use xlink:href="#DejaVuSans-69" x="102.587891"/>
    <use xlink:href="#DejaVuSans-64" x="130.371094"/>
    <use xlink:href="#DejaVuSans-3a" x="193.847656"/>
    <use xlink:href="#DejaVuSans-20" x="227.539062"/>
    <use xlink:href="#DejaVuSans-32" x="259.326172"/>
    <use xlink:href="#DejaVuSans-30" x="322.949219"/>
    <use xlink:href="#DejaVuSans-32" x="386.572266"/>
    <use xlink:href="#DejaVuSans-34" x="450.195312"/>
    <use xlink:href="#DejaVuSans-30" x="513.818359"/>
    <use xlink:href="#DejaVuSans-33" x="577.441406"/>
    <use xlink:href="#DejaVuSans-31" x="641.064453"/>
    <use xlink:href="#DejaVuSans-31" x="704.6875"/>
    <use xlink:href="#DejaVuSans-2d" x="768.310547"/>
    <use xlink:href="#DejaVuSans-31" x="804.394531"/>
    <use xlink:href="#DejaVuSans-31" x="868.017578"/>
    <use xlink:href="#DejaVuSans-33" x="931.640625"/>
    <use xlink:href="#DejaVuSans-33" x="995.263672"/>
    <use xlink:href="#DejaVuSans-31" x="1058.886719"/>
    <use xlink:href="#DejaVuSans-34" x="1122.509766"/>
    <use xlink:href="#DejaVuSans-2d" x="1186.132812"/>
    <use xlink:href="#DejaVuSans-36" x="1222.216797"/>
    <use xlink:href="#DejaVuSans-32" x="1285.839844"/>
    <use xlink:href="#DejaVuSans-37" x="1349.462891"/>
    <use xlink:href="#DejaVuSans-2d" x="1413.085938"/>
    <use xlink:href="#DejaVuSans-32" x="1449.169922"/>
    <use xlink:href="#DejaVuSans-65" x="1512.792969"/>
    <use xlink:href="#DejaVuSans-36" x="1574.316406"/>
    <use xlink:href="#DejaVuSans-36" x="1637.939453"/>
    <use xlink:href="#DejaVuSans-61" x="1701.5625"/>
    <use xlink:href="#DejaVuSans-64" x="1762.841797"/>
   </g>
  </g>
 </g>
 <defs>
  <clipPath id="p83206d9852">
   <rect x="50.595313" y="41.76" width="357.12" height="120.96"/>
  </clipPath>
  <clipPath id="pd08397c0db">
   <rect x="50.595313" y="186.912" width="357.12" height="120.96"/>
  </clipPath>
 </defs>
</svg>
