<?xml version="1.0" encoding="utf-8" standalone="no"?>
<!DOCTYPE svg PUBLIC "-//W3C//DTD SVG 1.1//EN"
  "http://www.w3.org/Graphics/SVG/1.1/DTD/svg11.dtd">
<svg xmlns:xlink="http://www.w3.org/1999/xlink" width="650.633813pt" height="345.42825pt" viewBox="0 0 650.633813 345.42825" xmlns="http://www.w3.org/2000/svg" version="1.1">
 <metadata>
  <rdf:RDF xmlns:dc="http://purl.org/dc/elements/1.1/" xmlns:cc="http://creativecommons.org/ns#" xmlns:rdf="http://www.w3.org/1999/02/22-rdf-syntax-ns#">
   <cc:Work>
    <dc:type rdf:resource="http://purl.org/dc/dcmitype/StillImage"/>
    <dc:date>2024-03-19T22:27:28.832234</dc:date>
    <dc:format>image/svg+xml</dc:format>
    <dc:creator>
     <cc:Agent>
      <dc:title>Matplotlib v3.8.2, https://matplotlib.org/</dc:title>
     </cc:Agent>
    </dc:creator>
   </cc:Work>
  </rdf:RDF>
 </metadata>
 <defs>
  <style type="text/css">*{stroke-linejoin: round; stroke-linecap: butt}</style>
 </defs>
 <g id="figure_1">
  <g id="patch_1">
   <path d="M 0 345.42825 
L 650.633813 345.42825 
L 650.633813 -0 
L 0 -0 
L 0 345.42825 
z
" style="fill: none; opacity: 0"/>
  </g>
  <g id="axes_1">
   <g id="patch_2">
    <path d="M 50.573438 307.872 
L 407.693438 307.872 
L 407.693438 41.76 
L 50.573438 41.76 
z
" style="fill: #ffffff"/>
   </g>
   <g id="matplotlib.axis_1">
    <g id="xtick_1">
     <g id="line2d_1">
      <defs>
       <path id="me8a9b470de" d="M 0 0 
L 0 3.5 
" style="stroke: #000000; stroke-width: 0.8"/>
      </defs>
      <g>
       <use xlink:href="#me8a9b470de" x="99.029505" y="307.872" style="stroke: #000000; stroke-width: 0.8"/>
      </g>
     </g>
     <g id="text_1">
      <!-- 906 -->
      <g transform="translate(89.485755 322.470438) scale(0.1 -0.1)">
       <defs>
        <path id="DejaVuSans-39" d="M 703 97 
L 703 672 
Q 941 559 1184 500 
Q 1428 441 1663 441 
Q 2288 441 2617 861 
Q 2947 1281 2994 2138 
Q 2813 1869 2534 1725 
Q 2256 1581 1919 1581 
Q 1219 1581 811 2004 
Q 403 2428 403 3163 
Q 403 3881 828 4315 
Q 1253 4750 1959 4750 
Q 2769 4750 3195 4129 
Q 3622 3509 3622 2328 
Q 3622 1225 3098 567 
Q 2575 -91 1691 -91 
Q 1453 -91 1209 -44 
Q 966 3 703 97 
z
M 1959 2075 
Q 2384 2075 2632 2365 
Q 2881 2656 2881 3163 
Q 2881 3666 2632 3958 
Q 2384 4250 1959 4250 
Q 1534 4250 1286 3958 
Q 1038 3666 1038 3163 
Q 1038 2656 1286 2365 
Q 1534 2075 1959 2075 
z
" transform="scale(0.015625)"/>
        <path id="DejaVuSans-30" d="M 2034 4250 
Q 1547 4250 1301 3770 
Q 1056 3291 1056 2328 
Q 1056 1369 1301 889 
Q 1547 409 2034 409 
Q 2525 409 2770 889 
Q 3016 1369 3016 2328 
Q 3016 3291 2770 3770 
Q 2525 4250 2034 4250 
z
M 2034 4750 
Q 2819 4750 3233 4129 
Q 3647 3509 3647 2328 
Q 3647 1150 3233 529 
Q 2819 -91 2034 -91 
Q 1250 -91 836 529 
Q 422 1150 422 2328 
Q 422 3509 836 4129 
Q 1250 4750 2034 4750 
z
" transform="scale(0.015625)"/>
        <path id="DejaVuSans-36" d="M 2113 2584 
Q 1688 2584 1439 2293 
Q 1191 2003 1191 1497 
Q 1191 994 1439 701 
Q 1688 409 2113 409 
Q 2538 409 2786 701 
Q 3034 994 3034 1497 
Q 3034 2003 2786 2293 
Q 2538 2584 2113 2584 
z
M 3366 4563 
L 3366 3988 
Q 3128 4100 2886 4159 
Q 2644 4219 2406 4219 
Q 1781 4219 1451 3797 
Q 1122 3375 1075 2522 
Q 1259 2794 1537 2939 
Q 1816 3084 2150 3084 
Q 2853 3084 3261 2657 
Q 3669 2231 3669 1497 
Q 3669 778 3244 343 
Q 2819 -91 2113 -91 
Q 1303 -91 875 529 
Q 447 1150 447 2328 
Q 447 3434 972 4092 
Q 1497 4750 2381 4750 
Q 2619 4750 2861 4703 
Q 3103 4656 3366 4563 
z
" transform="scale(0.015625)"/>
       </defs>
       <use xlink:href="#DejaVuSans-39"/>
       <use xlink:href="#DejaVuSans-30" x="63.623047"/>
       <use xlink:href="#DejaVuSans-36" x="127.246094"/>
      </g>
     </g>
    </g>
    <g id="xtick_2">
     <g id="line2d_2">
      <g>
       <use xlink:href="#me8a9b470de" x="163.960414" y="307.872" style="stroke: #000000; stroke-width: 0.8"/>
      </g>
     </g>
     <g id="text_2">
      <!-- 907 -->
      <g transform="translate(154.416664 322.470438) scale(0.1 -0.1)">
       <defs>
        <path id="DejaVuSans-37" d="M 525 4666 
L 3525 4666 
L 3525 4397 
L 1831 0 
L 1172 0 
L 2766 4134 
L 525 4134 
L 525 4666 
z
" transform="scale(0.015625)"/>
       </defs>
       <use xlink:href="#DejaVuSans-39"/>
       <use xlink:href="#DejaVuSans-30" x="63.623047"/>
       <use xlink:href="#DejaVuSans-37" x="127.246094"/>
      </g>
     </g>
    </g>
    <g id="xtick_3">
     <g id="line2d_3">
      <g>
       <use xlink:href="#me8a9b470de" x="228.891323" y="307.872" style="stroke: #000000; stroke-width: 0.8"/>
      </g>
     </g>
     <g id="text_3">
      <!-- 908 -->
      <g transform="translate(219.347573 322.470438) scale(0.1 -0.1)">
       <defs>
        <path id="DejaVuSans-38" d="M 2034 2216 
Q 1584 2216 1326 1975 
Q 1069 1734 1069 1313 
Q 1069 891 1326 650 
Q 1584 409 2034 409 
Q 2484 409 2743 651 
Q 3003 894 3003 1313 
Q 3003 1734 2745 1975 
Q 2488 2216 2034 2216 
z
M 1403 2484 
Q 997 2584 770 2862 
Q 544 3141 544 3541 
Q 544 4100 942 4425 
Q 1341 4750 2034 4750 
Q 2731 4750 3128 4425 
Q 3525 4100 3525 3541 
Q 3525 3141 3298 2862 
Q 3072 2584 2669 2484 
Q 3125 2378 3379 2068 
Q 3634 1759 3634 1313 
Q 3634 634 3220 271 
Q 2806 -91 2034 -91 
Q 1263 -91 848 271 
Q 434 634 434 1313 
Q 434 1759 690 2068 
Q 947 2378 1403 2484 
z
M 1172 3481 
Q 1172 3119 1398 2916 
Q 1625 2713 2034 2713 
Q 2441 2713 2670 2916 
Q 2900 3119 2900 3481 
Q 2900 3844 2670 4047 
Q 2441 4250 2034 4250 
Q 1625 4250 1398 4047 
Q 1172 3844 1172 3481 
z
" transform="scale(0.015625)"/>
       </defs>
       <use xlink:href="#DejaVuSans-39"/>
       <use xlink:href="#DejaVuSans-30" x="63.623047"/>
       <use xlink:href="#DejaVuSans-38" x="127.246094"/>
      </g>
     </g>
    </g>
    <g id="xtick_4">
     <g id="line2d_4">
      <g>
       <use xlink:href="#me8a9b470de" x="293.822232" y="307.872" style="stroke: #000000; stroke-width: 0.8"/>
      </g>
     </g>
     <g id="text_4">
      <!-- 909 -->
      <g transform="translate(284.278482 322.470438) scale(0.1 -0.1)">
       <use xlink:href="#DejaVuSans-39"/>
       <use xlink:href="#DejaVuSans-30" x="63.623047"/>
       <use xlink:href="#DejaVuSans-39" x="127.246094"/>
      </g>
     </g>
    </g>
    <g id="xtick_5">
     <g id="line2d_5">
      <g>
       <use xlink:href="#me8a9b470de" x="358.753141" y="307.872" style="stroke: #000000; stroke-width: 0.8"/>
      </g>
     </g>
     <g id="text_5">
      <!-- 910 -->
      <g transform="translate(349.209391 322.470438) scale(0.1 -0.1)">
       <defs>
        <path id="DejaVuSans-31" d="M 794 531 
L 1825 531 
L 1825 4091 
L 703 3866 
L 703 4441 
L 1819 4666 
L 2450 4666 
L 2450 531 
L 3481 531 
L 3481 0 
L 794 0 
L 794 531 
z
" transform="scale(0.015625)"/>
       </defs>
       <use xlink:href="#DejaVuSans-39"/>
       <use xlink:href="#DejaVuSans-31" x="63.623047"/>
       <use xlink:href="#DejaVuSans-30" x="127.246094"/>
      </g>
     </g>
    </g>
    <g id="text_6">
     <!-- Frequency [MHz] -->
     <g transform="translate(187.114688 336.148562) scale(0.1 -0.1)">
      <defs>
       <path id="DejaVuSans-46" d="M 628 4666 
L 3309 4666 
L 3309 4134 
L 1259 4134 
L 1259 2759 
L 3109 2759 
L 3109 2228 
L 1259 2228 
L 1259 0 
L 628 0 
L 628 4666 
z
" transform="scale(0.015625)"/>
       <path id="DejaVuSans-72" d="M 2631 2963 
Q 2534 3019 2420 3045 
Q 2306 3072 2169 3072 
Q 1681 3072 1420 2755 
Q 1159 2438 1159 1844 
L 1159 0 
L 581 0 
L 581 3500 
L 1159 3500 
L 1159 2956 
Q 1341 3275 1631 3429 
Q 1922 3584 2338 3584 
Q 2397 3584 2469 3576 
Q 2541 3569 2628 3553 
L 2631 2963 
z
" transform="scale(0.015625)"/>
       <path id="DejaVuSans-65" d="M 3597 1894 
L 3597 1613 
L 953 1613 
Q 991 1019 1311 708 
Q 1631 397 2203 397 
Q 2534 397 2845 478 
Q 3156 559 3463 722 
L 3463 178 
Q 3153 47 2828 -22 
Q 2503 -91 2169 -91 
Q 1331 -91 842 396 
Q 353 884 353 1716 
Q 353 2575 817 3079 
Q 1281 3584 2069 3584 
Q 2775 3584 3186 3129 
Q 3597 2675 3597 1894 
z
M 3022 2063 
Q 3016 2534 2758 2815 
Q 2500 3097 2075 3097 
Q 1594 3097 1305 2825 
Q 1016 2553 972 2059 
L 3022 2063 
z
" transform="scale(0.015625)"/>
       <path id="DejaVuSans-71" d="M 947 1747 
Q 947 1113 1208 752 
Q 1469 391 1925 391 
Q 2381 391 2643 752 
Q 2906 1113 2906 1747 
Q 2906 2381 2643 2742 
Q 2381 3103 1925 3103 
Q 1469 3103 1208 2742 
Q 947 2381 947 1747 
z
M 2906 525 
Q 2725 213 2448 61 
Q 2172 -91 1784 -91 
Q 1150 -91 751 415 
Q 353 922 353 1747 
Q 353 2572 751 3078 
Q 1150 3584 1784 3584 
Q 2172 3584 2448 3432 
Q 2725 3281 2906 2969 
L 2906 3500 
L 3481 3500 
L 3481 -1331 
L 2906 -1331 
L 2906 525 
z
" transform="scale(0.015625)"/>
       <path id="DejaVuSans-75" d="M 544 1381 
L 544 3500 
L 1119 3500 
L 1119 1403 
Q 1119 906 1312 657 
Q 1506 409 1894 409 
Q 2359 409 2629 706 
Q 2900 1003 2900 1516 
L 2900 3500 
L 3475 3500 
L 3475 0 
L 2900 0 
L 2900 538 
Q 2691 219 2414 64 
Q 2138 -91 1772 -91 
Q 1169 -91 856 284 
Q 544 659 544 1381 
z
M 1991 3584 
L 1991 3584 
z
" transform="scale(0.015625)"/>
       <path id="DejaVuSans-6e" d="M 3513 2113 
L 3513 0 
L 2938 0 
L 2938 2094 
Q 2938 2591 2744 2837 
Q 2550 3084 2163 3084 
Q 1697 3084 1428 2787 
Q 1159 2491 1159 1978 
L 1159 0 
L 581 0 
L 581 3500 
L 1159 3500 
L 1159 2956 
Q 1366 3272 1645 3428 
Q 1925 3584 2291 3584 
Q 2894 3584 3203 3211 
Q 3513 2838 3513 2113 
z
" transform="scale(0.015625)"/>
       <path id="DejaVuSans-63" d="M 3122 3366 
L 3122 2828 
Q 2878 2963 2633 3030 
Q 2388 3097 2138 3097 
Q 1578 3097 1268 2742 
Q 959 2388 959 1747 
Q 959 1106 1268 751 
Q 1578 397 2138 397 
Q 2388 397 2633 464 
Q 2878 531 3122 666 
L 3122 134 
Q 2881 22 2623 -34 
Q 2366 -91 2075 -91 
Q 1284 -91 818 406 
Q 353 903 353 1747 
Q 353 2603 823 3093 
Q 1294 3584 2113 3584 
Q 2378 3584 2631 3529 
Q 2884 3475 3122 3366 
z
" transform="scale(0.015625)"/>
       <path id="DejaVuSans-79" d="M 2059 -325 
Q 1816 -950 1584 -1140 
Q 1353 -1331 966 -1331 
L 506 -1331 
L 506 -850 
L 844 -850 
Q 1081 -850 1212 -737 
Q 1344 -625 1503 -206 
L 1606 56 
L 191 3500 
L 800 3500 
L 1894 763 
L 2988 3500 
L 3597 3500 
L 2059 -325 
z
" transform="scale(0.015625)"/>
       <path id="DejaVuSans-20" transform="scale(0.015625)"/>
       <path id="DejaVuSans-5b" d="M 550 4863 
L 1875 4863 
L 1875 4416 
L 1125 4416 
L 1125 -397 
L 1875 -397 
L 1875 -844 
L 550 -844 
L 550 4863 
z
" transform="scale(0.015625)"/>
       <path id="DejaVuSans-4d" d="M 628 4666 
L 1569 4666 
L 2759 1491 
L 3956 4666 
L 4897 4666 
L 4897 0 
L 4281 0 
L 4281 4097 
L 3078 897 
L 2444 897 
L 1241 4097 
L 1241 0 
L 628 0 
L 628 4666 
z
" transform="scale(0.015625)"/>
       <path id="DejaVuSans-48" d="M 628 4666 
L 1259 4666 
L 1259 2753 
L 3553 2753 
L 3553 4666 
L 4184 4666 
L 4184 0 
L 3553 0 
L 3553 2222 
L 1259 2222 
L 1259 0 
L 628 0 
L 628 4666 
z
" transform="scale(0.015625)"/>
       <path id="DejaVuSans-7a" d="M 353 3500 
L 3084 3500 
L 3084 2975 
L 922 459 
L 3084 459 
L 3084 0 
L 275 0 
L 275 525 
L 2438 3041 
L 353 3041 
L 353 3500 
z
" transform="scale(0.015625)"/>
       <path id="DejaVuSans-5d" d="M 1947 4863 
L 1947 -844 
L 622 -844 
L 622 -397 
L 1369 -397 
L 1369 4416 
L 622 4416 
L 622 4863 
L 1947 4863 
z
" transform="scale(0.015625)"/>
      </defs>
      <use xlink:href="#DejaVuSans-46"/>
      <use xlink:href="#DejaVuSans-72" x="50.269531"/>
      <use xlink:href="#DejaVuSans-65" x="89.132812"/>
      <use xlink:href="#DejaVuSans-71" x="150.65625"/>
      <use xlink:href="#DejaVuSans-75" x="214.132812"/>
      <use xlink:href="#DejaVuSans-65" x="277.511719"/>
      <use xlink:href="#DejaVuSans-6e" x="339.035156"/>
      <use xlink:href="#DejaVuSans-63" x="402.414062"/>
      <use xlink:href="#DejaVuSans-79" x="457.394531"/>
      <use xlink:href="#DejaVuSans-20" x="516.574219"/>
      <use xlink:href="#DejaVuSans-5b" x="548.361328"/>
      <use xlink:href="#DejaVuSans-4d" x="587.375"/>
      <use xlink:href="#DejaVuSans-48" x="673.654297"/>
      <use xlink:href="#DejaVuSans-7a" x="748.849609"/>
      <use xlink:href="#DejaVuSans-5d" x="801.339844"/>
     </g>
    </g>
    <g id="text_7">
     <!-- +5 GHz -->
     <g transform="translate(369.255938 335.148562) scale(0.1 -0.1)">
      <defs>
       <path id="DejaVuSans-2b" d="M 2944 4013 
L 2944 2272 
L 4684 2272 
L 4684 1741 
L 2944 1741 
L 2944 0 
L 2419 0 
L 2419 1741 
L 678 1741 
L 678 2272 
L 2419 2272 
L 2419 4013 
L 2944 4013 
z
" transform="scale(0.015625)"/>
       <path id="DejaVuSans-35" d="M 691 4666 
L 3169 4666 
L 3169 4134 
L 1269 4134 
L 1269 2991 
Q 1406 3038 1543 3061 
Q 1681 3084 1819 3084 
Q 2600 3084 3056 2656 
Q 3513 2228 3513 1497 
Q 3513 744 3044 326 
Q 2575 -91 1722 -91 
Q 1428 -91 1123 -41 
Q 819 9 494 109 
L 494 744 
Q 775 591 1075 516 
Q 1375 441 1709 441 
Q 2250 441 2565 725 
Q 2881 1009 2881 1497 
Q 2881 1984 2565 2268 
Q 2250 2553 1709 2553 
Q 1456 2553 1204 2497 
Q 953 2441 691 2322 
L 691 4666 
z
" transform="scale(0.015625)"/>
       <path id="DejaVuSans-47" d="M 3809 666 
L 3809 1919 
L 2778 1919 
L 2778 2438 
L 4434 2438 
L 4434 434 
Q 4069 175 3628 42 
Q 3188 -91 2688 -91 
Q 1594 -91 976 548 
Q 359 1188 359 2328 
Q 359 3472 976 4111 
Q 1594 4750 2688 4750 
Q 3144 4750 3555 4637 
Q 3966 4525 4313 4306 
L 4313 3634 
Q 3963 3931 3569 4081 
Q 3175 4231 2741 4231 
Q 1884 4231 1454 3753 
Q 1025 3275 1025 2328 
Q 1025 1384 1454 906 
Q 1884 428 2741 428 
Q 3075 428 3337 486 
Q 3600 544 3809 666 
z
" transform="scale(0.015625)"/>
      </defs>
      <use xlink:href="#DejaVuSans-2b"/>
      <use xlink:href="#DejaVuSans-35" x="83.789062"/>
      <use xlink:href="#DejaVuSans-20" x="147.412109"/>
      <use xlink:href="#DejaVuSans-47" x="179.199219"/>
      <use xlink:href="#DejaVuSans-48" x="256.689453"/>
      <use xlink:href="#DejaVuSans-7a" x="331.884766"/>
     </g>
    </g>
   </g>
   <g id="matplotlib.axis_2">
    <g id="ytick_1">
     <g id="line2d_6">
      <defs>
       <path id="mc6dc54bfe0" d="M 0 0 
L -3.5 0 
" style="stroke: #000000; stroke-width: 0.8"/>
      </defs>
      <g>
       <use xlink:href="#mc6dc54bfe0" x="50.573438" y="275.693833" style="stroke: #000000; stroke-width: 0.8"/>
      </g>
     </g>
     <g id="text_8">
      <!-- -150 -->
      <g transform="translate(20.878125 279.493052) scale(0.1 -0.1)">
       <defs>
        <path id="DejaVuSans-2d" d="M 313 2009 
L 1997 2009 
L 1997 1497 
L 313 1497 
L 313 2009 
z
" transform="scale(0.015625)"/>
       </defs>
       <use xlink:href="#DejaVuSans-2d"/>
       <use xlink:href="#DejaVuSans-31" x="36.083984"/>
       <use xlink:href="#DejaVuSans-35" x="99.707031"/>
       <use xlink:href="#DejaVuSans-30" x="163.330078"/>
      </g>
     </g>
    </g>
    <g id="ytick_2">
     <g id="line2d_7">
      <g>
       <use xlink:href="#mc6dc54bfe0" x="50.573438" y="242.076985" style="stroke: #000000; stroke-width: 0.8"/>
      </g>
     </g>
     <g id="text_9">
      <!-- -100 -->
      <g transform="translate(20.878125 245.876204) scale(0.1 -0.1)">
       <use xlink:href="#DejaVuSans-2d"/>
       <use xlink:href="#DejaVuSans-31" x="36.083984"/>
       <use xlink:href="#DejaVuSans-30" x="99.707031"/>
       <use xlink:href="#DejaVuSans-30" x="163.330078"/>
      </g>
     </g>
    </g>
    <g id="ytick_3">
     <g id="line2d_8">
      <g>
       <use xlink:href="#mc6dc54bfe0" x="50.573438" y="208.460138" style="stroke: #000000; stroke-width: 0.8"/>
      </g>
     </g>
     <g id="text_10">
      <!-- -50 -->
      <g transform="translate(27.240625 212.259357) scale(0.1 -0.1)">
       <use xlink:href="#DejaVuSans-2d"/>
       <use xlink:href="#DejaVuSans-35" x="36.083984"/>
       <use xlink:href="#DejaVuSans-30" x="99.707031"/>
      </g>
     </g>
    </g>
    <g id="ytick_4">
     <g id="line2d_9">
      <g>
       <use xlink:href="#mc6dc54bfe0" x="50.573438" y="174.84329" style="stroke: #000000; stroke-width: 0.8"/>
      </g>
     </g>
     <g id="text_11">
      <!-- 0 -->
      <g transform="translate(37.210938 178.642509) scale(0.1 -0.1)">
       <use xlink:href="#DejaVuSans-30"/>
      </g>
     </g>
    </g>
    <g id="ytick_5">
     <g id="line2d_10">
      <g>
       <use xlink:href="#mc6dc54bfe0" x="50.573438" y="141.226443" style="stroke: #000000; stroke-width: 0.8"/>
      </g>
     </g>
     <g id="text_12">
      <!-- 50 -->
      <g transform="translate(30.848438 145.025661) scale(0.1 -0.1)">
       <use xlink:href="#DejaVuSans-35"/>
       <use xlink:href="#DejaVuSans-30" x="63.623047"/>
      </g>
     </g>
    </g>
    <g id="ytick_6">
     <g id="line2d_11">
      <g>
       <use xlink:href="#mc6dc54bfe0" x="50.573438" y="107.609595" style="stroke: #000000; stroke-width: 0.8"/>
      </g>
     </g>
     <g id="text_13">
      <!-- 100 -->
      <g transform="translate(24.485938 111.408814) scale(0.1 -0.1)">
       <use xlink:href="#DejaVuSans-31"/>
       <use xlink:href="#DejaVuSans-30" x="63.623047"/>
       <use xlink:href="#DejaVuSans-30" x="127.246094"/>
      </g>
     </g>
    </g>
    <g id="ytick_7">
     <g id="line2d_12">
      <g>
       <use xlink:href="#mc6dc54bfe0" x="50.573438" y="73.992747" style="stroke: #000000; stroke-width: 0.8"/>
      </g>
     </g>
     <g id="text_14">
      <!-- 150 -->
      <g transform="translate(24.485938 77.791966) scale(0.1 -0.1)">
       <use xlink:href="#DejaVuSans-31"/>
       <use xlink:href="#DejaVuSans-35" x="63.623047"/>
       <use xlink:href="#DejaVuSans-30" x="127.246094"/>
      </g>
     </g>
    </g>
    <g id="text_15">
     <!-- Phase0 [deg] -->
     <g transform="translate(14.798438 207.841781) rotate(-90) scale(0.1 -0.1)">
      <defs>
       <path id="DejaVuSans-50" d="M 1259 4147 
L 1259 2394 
L 2053 2394 
Q 2494 2394 2734 2622 
Q 2975 2850 2975 3272 
Q 2975 3691 2734 3919 
Q 2494 4147 2053 4147 
L 1259 4147 
z
M 628 4666 
L 2053 4666 
Q 2838 4666 3239 4311 
Q 3641 3956 3641 3272 
Q 3641 2581 3239 2228 
Q 2838 1875 2053 1875 
L 1259 1875 
L 1259 0 
L 628 0 
L 628 4666 
z
" transform="scale(0.015625)"/>
       <path id="DejaVuSans-68" d="M 3513 2113 
L 3513 0 
L 2938 0 
L 2938 2094 
Q 2938 2591 2744 2837 
Q 2550 3084 2163 3084 
Q 1697 3084 1428 2787 
Q 1159 2491 1159 1978 
L 1159 0 
L 581 0 
L 581 4863 
L 1159 4863 
L 1159 2956 
Q 1366 3272 1645 3428 
Q 1925 3584 2291 3584 
Q 2894 3584 3203 3211 
Q 3513 2838 3513 2113 
z
" transform="scale(0.015625)"/>
       <path id="DejaVuSans-61" d="M 2194 1759 
Q 1497 1759 1228 1600 
Q 959 1441 959 1056 
Q 959 750 1161 570 
Q 1363 391 1709 391 
Q 2188 391 2477 730 
Q 2766 1069 2766 1631 
L 2766 1759 
L 2194 1759 
z
M 3341 1997 
L 3341 0 
L 2766 0 
L 2766 531 
Q 2569 213 2275 61 
Q 1981 -91 1556 -91 
Q 1019 -91 701 211 
Q 384 513 384 1019 
Q 384 1609 779 1909 
Q 1175 2209 1959 2209 
L 2766 2209 
L 2766 2266 
Q 2766 2663 2505 2880 
Q 2244 3097 1772 3097 
Q 1472 3097 1187 3025 
Q 903 2953 641 2809 
L 641 3341 
Q 956 3463 1253 3523 
Q 1550 3584 1831 3584 
Q 2591 3584 2966 3190 
Q 3341 2797 3341 1997 
z
" transform="scale(0.015625)"/>
       <path id="DejaVuSans-73" d="M 2834 3397 
L 2834 2853 
Q 2591 2978 2328 3040 
Q 2066 3103 1784 3103 
Q 1356 3103 1142 2972 
Q 928 2841 928 2578 
Q 928 2378 1081 2264 
Q 1234 2150 1697 2047 
L 1894 2003 
Q 2506 1872 2764 1633 
Q 3022 1394 3022 966 
Q 3022 478 2636 193 
Q 2250 -91 1575 -91 
Q 1294 -91 989 -36 
Q 684 19 347 128 
L 347 722 
Q 666 556 975 473 
Q 1284 391 1588 391 
Q 1994 391 2212 530 
Q 2431 669 2431 922 
Q 2431 1156 2273 1281 
Q 2116 1406 1581 1522 
L 1381 1569 
Q 847 1681 609 1914 
Q 372 2147 372 2553 
Q 372 3047 722 3315 
Q 1072 3584 1716 3584 
Q 2034 3584 2315 3537 
Q 2597 3491 2834 3397 
z
" transform="scale(0.015625)"/>
       <path id="DejaVuSans-64" d="M 2906 2969 
L 2906 4863 
L 3481 4863 
L 3481 0 
L 2906 0 
L 2906 525 
Q 2725 213 2448 61 
Q 2172 -91 1784 -91 
Q 1150 -91 751 415 
Q 353 922 353 1747 
Q 353 2572 751 3078 
Q 1150 3584 1784 3584 
Q 2172 3584 2448 3432 
Q 2725 3281 2906 2969 
z
M 947 1747 
Q 947 1113 1208 752 
Q 1469 391 1925 391 
Q 2381 391 2643 752 
Q 2906 1113 2906 1747 
Q 2906 2381 2643 2742 
Q 2381 3103 1925 3103 
Q 1469 3103 1208 2742 
Q 947 2381 947 1747 
z
" transform="scale(0.015625)"/>
       <path id="DejaVuSans-67" d="M 2906 1791 
Q 2906 2416 2648 2759 
Q 2391 3103 1925 3103 
Q 1463 3103 1205 2759 
Q 947 2416 947 1791 
Q 947 1169 1205 825 
Q 1463 481 1925 481 
Q 2391 481 2648 825 
Q 2906 1169 2906 1791 
z
M 3481 434 
Q 3481 -459 3084 -895 
Q 2688 -1331 1869 -1331 
Q 1566 -1331 1297 -1286 
Q 1028 -1241 775 -1147 
L 775 -588 
Q 1028 -725 1275 -790 
Q 1522 -856 1778 -856 
Q 2344 -856 2625 -561 
Q 2906 -266 2906 331 
L 2906 616 
Q 2728 306 2450 153 
Q 2172 0 1784 0 
Q 1141 0 747 490 
Q 353 981 353 1791 
Q 353 2603 747 3093 
Q 1141 3584 1784 3584 
Q 2172 3584 2450 3431 
Q 2728 3278 2906 2969 
L 2906 3500 
L 3481 3500 
L 3481 434 
z
" transform="scale(0.015625)"/>
      </defs>
      <use xlink:href="#DejaVuSans-50"/>
      <use xlink:href="#DejaVuSans-68" x="60.302734"/>
      <use xlink:href="#DejaVuSans-61" x="123.681641"/>
      <use xlink:href="#DejaVuSans-73" x="184.960938"/>
      <use xlink:href="#DejaVuSans-65" x="237.060547"/>
      <use xlink:href="#DejaVuSans-30" x="298.583984"/>
      <use xlink:href="#DejaVuSans-20" x="362.207031"/>
      <use xlink:href="#DejaVuSans-5b" x="393.994141"/>
      <use xlink:href="#DejaVuSans-64" x="433.007812"/>
      <use xlink:href="#DejaVuSans-65" x="496.484375"/>
      <use xlink:href="#DejaVuSans-67" x="558.007812"/>
      <use xlink:href="#DejaVuSans-5d" x="621.484375"/>
     </g>
    </g>
   </g>
   <g id="line2d_13">
    <path d="M 66.806165 59.511197 
L 72.308784 60.323006 
L 77.811404 58.775328 
L 83.314023 63.463215 
L 88.816642 62.599637 
L 94.319262 61.301551 
L 99.821881 62.177965 
L 105.324501 63.386494 
L 110.82712 63.867677 
L 116.32974 66.065808 
L 121.832359 65.59164 
L 127.334978 65.466656 
L 132.837598 66.989551 
L 138.340217 66.446098 
L 143.842837 67.286217 
L 149.345456 67.513073 
L 154.848075 68.642359 
L 160.350695 70.798185 
L 165.853314 70.745443 
L 171.355934 71.676373 
L 176.858553 72.135421 
L 182.361172 72.702399 
L 187.863792 73.101622 
L 193.366411 74.385439 
L 198.869031 76.34984 
L 204.37165 76.889648 
L 209.87427 76.900682 
L 215.376889 80.334601 
L 220.879508 78.717668 
L 226.382128 81.951401 
L 231.884747 83.478802 
L 237.387367 85.170059 
L 242.889986 87.132376 
L 248.392605 89.046086 
L 253.895225 89.40645 
L 259.397844 93.469999 
L 264.900464 98.482611 
L 270.403083 99.075377 
L 275.905703 100.053008 
L 281.408322 107.780862 
L 286.910941 113.371015 
L 292.413561 113.395953 
L 297.91618 111.514324 
L 303.4188 111.137807 
L 308.921419 96.004551 
L 314.424038 105.267556 
L 319.926658 85.457418 
L 325.429277 76.292566 
L 330.931897 59.070656 
L 336.434516 56.597557 
L 341.937135 59.937392 
L 347.439755 59.38618 
L 352.942374 56.562449 
L 358.444994 58.474583 
L 363.947613 58.032746 
L 369.450233 60.232063 
L 374.952852 58.650537 
L 380.455471 61.128202 
L 385.958091 59.827274 
L 391.46071 60.210205 
" clip-path="url(#pf18b32b3a4)" style="fill: none; stroke: #440154; stroke-width: 1.5; stroke-linecap: square"/>
   </g>
   <g id="line2d_14">
    <path d="M 66.806165 60.233439 
L 72.308784 60.244771 
L 77.811404 61.742341 
L 83.314023 61.858408 
L 88.816642 62.921399 
L 94.319262 62.420106 
L 99.821881 62.003065 
L 105.324501 65.337806 
L 110.82712 63.556703 
L 116.32974 64.665381 
L 121.832359 64.935974 
L 127.334978 67.368241 
L 132.837598 67.888162 
L 138.340217 66.109061 
L 143.842837 67.033229 
L 149.345456 70.187909 
L 154.848075 68.285787 
L 160.350695 68.556161 
L 165.853314 69.901634 
L 171.355934 71.621362 
L 176.858553 73.156209 
L 182.361172 71.65931 
L 187.863792 74.947514 
L 193.366411 74.153623 
L 198.869031 75.308896 
L 204.37165 77.946343 
L 209.87427 77.91085 
L 215.376889 78.916947 
L 220.879508 79.36057 
L 226.382128 81.436266 
L 231.884747 83.230385 
L 237.387367 85.700867 
L 242.889986 87.626257 
L 248.392605 88.958929 
L 253.895225 91.014968 
L 259.397844 94.141704 
L 264.900464 97.334948 
L 270.403083 102.513327 
L 275.905703 107.451739 
L 281.408322 110.191821 
L 286.910941 109.386513 
L 292.413561 113.36456 
L 297.91618 114.824478 
L 303.4188 113.395611 
L 308.921419 105.239729 
L 314.424038 78.418114 
L 319.926658 72.531998 
L 325.429277 65.39471 
L 330.931897 60.826337 
L 336.434516 56.177883 
L 341.937135 55.759523 
L 347.439755 56.77582 
L 352.942374 54.676375 
L 358.444994 55.026395 
L 363.947613 56.040679 
L 369.450233 59.250663 
L 374.952852 60.881967 
L 380.455471 62.407036 
L 385.958091 62.19867 
L 391.46071 62.275101 
" clip-path="url(#pf18b32b3a4)" style="fill: none; stroke: #470d60; stroke-width: 1.5; stroke-linecap: square"/>
   </g>
   <g id="line2d_15">
    <path d="M 66.806165 59.715697 
L 72.308784 60.549348 
L 77.811404 61.284378 
L 83.314023 62.038887 
L 88.816642 60.631045 
L 94.319262 60.089477 
L 99.821881 62.585645 
L 105.324501 63.807389 
L 110.82712 64.068601 
L 116.32974 64.058176 
L 121.832359 66.280533 
L 127.334978 65.753814 
L 132.837598 65.094351 
L 138.340217 67.353698 
L 143.842837 67.059635 
L 149.345456 67.433527 
L 154.848075 68.187259 
L 160.350695 70.938899 
L 165.853314 71.047674 
L 171.355934 71.539196 
L 176.858553 72.267792 
L 182.361172 73.147964 
L 187.863792 74.507626 
L 193.366411 75.200968 
L 198.869031 76.459058 
L 204.37165 77.476763 
L 209.87427 78.873609 
L 215.376889 79.411191 
L 220.879508 80.427987 
L 226.382128 81.382083 
L 231.884747 84.213679 
L 237.387367 85.895256 
L 242.889986 86.222294 
L 248.392605 90.305927 
L 253.895225 94.235067 
L 259.397844 95.950538 
L 264.900464 100.032279 
L 270.403083 102.592958 
L 275.905703 106.367662 
L 281.408322 112.835767 
L 286.910941 110.921502 
L 292.413561 117.600356 
L 297.91618 112.944579 
L 303.4188 105.835132 
L 308.921419 98.032613 
L 314.424038 78.79906 
L 319.926658 70.026166 
L 325.429277 64.850391 
L 330.931897 57.453748 
L 336.434516 54.697775 
L 341.937135 295.540117 
L 347.439755 56.426777 
L 352.942374 55.646825 
L 358.444994 54.808579 
L 363.947613 59.924315 
L 369.450233 58.601546 
L 374.952852 61.366842 
L 380.455471 60.68845 
L 385.958091 62.159511 
L 391.46071 61.250303 
" clip-path="url(#pf18b32b3a4)" style="fill: none; stroke: #481a6c; stroke-width: 1.5; stroke-linecap: square"/>
   </g>
   <g id="line2d_16">
    <path d="M 66.806165 60.122987 
L 72.308784 60.747045 
L 77.811404 60.542525 
L 83.314023 60.920596 
L 88.816642 60.345403 
L 94.319262 62.169556 
L 99.821881 63.049595 
L 105.324501 62.167876 
L 110.82712 65.69524 
L 116.32974 64.360272 
L 121.832359 64.790113 
L 127.334978 66.413899 
L 132.837598 67.042765 
L 138.340217 67.639054 
L 143.842837 67.909535 
L 149.345456 67.350382 
L 154.848075 69.272528 
L 160.350695 70.044569 
L 165.853314 70.610032 
L 171.355934 71.557839 
L 176.858553 72.939783 
L 182.361172 73.194276 
L 187.863792 73.987773 
L 193.366411 75.790525 
L 198.869031 75.974103 
L 204.37165 78.061681 
L 209.87427 78.200811 
L 215.376889 80.09462 
L 220.879508 81.139371 
L 226.382128 83.199237 
L 231.884747 84.391948 
L 237.387367 86.230538 
L 242.889986 89.181057 
L 248.392605 90.657973 
L 253.895225 94.513932 
L 259.397844 97.050468 
L 264.900464 103.925195 
L 270.403083 106.516695 
L 275.905703 110.724252 
L 281.408322 112.5439 
L 286.910941 115.057998 
L 292.413561 116.655388 
L 297.91618 109.549884 
L 303.4188 103.328539 
L 308.921419 88.247578 
L 314.424038 68.835648 
L 319.926658 65.112622 
L 325.429277 57.595408 
L 330.931897 54.841913 
L 336.434516 295.776 
L 341.937135 53.93054 
L 347.439755 56.949335 
L 352.942374 55.731035 
L 358.444994 58.575964 
L 363.947613 57.398835 
L 369.450233 58.149661 
L 374.952852 57.484862 
L 380.455471 60.845854 
L 385.958091 61.656259 
L 391.46071 61.904664 
" clip-path="url(#pf18b32b3a4)" style="fill: none; stroke: #482576; stroke-width: 1.5; stroke-linecap: square"/>
   </g>
   <g id="line2d_17">
    <path d="M 66.806165 59.781918 
L 72.308784 60.736077 
L 77.811404 61.691983 
L 83.314023 61.172869 
L 88.816642 60.925514 
L 94.319262 63.231894 
L 99.821881 63.450866 
L 105.324501 62.861012 
L 110.82712 64.212542 
L 116.32974 63.588954 
L 121.832359 65.59568 
L 127.334978 64.549549 
L 132.837598 66.364383 
L 138.340217 67.432964 
L 143.842837 67.529924 
L 149.345456 67.926189 
L 154.848075 69.18379 
L 160.350695 69.162419 
L 165.853314 71.248391 
L 171.355934 72.186032 
L 176.858553 73.143395 
L 182.361172 72.882423 
L 187.863792 74.682508 
L 193.366411 76.274224 
L 198.869031 76.823075 
L 204.37165 77.233454 
L 209.87427 78.757011 
L 215.376889 79.508053 
L 220.879508 82.318784 
L 226.382128 82.723767 
L 231.884747 83.857962 
L 237.387367 87.565856 
L 242.889986 89.102991 
L 248.392605 92.773343 
L 253.895225 95.722072 
L 259.397844 99.506505 
L 264.900464 106.00221 
L 270.403083 109.221258 
L 275.905703 111.722554 
L 281.408322 116.074613 
L 286.910941 116.246687 
L 292.413561 108.321328 
L 297.91618 109.271925 
L 303.4188 95.423072 
L 308.921419 79.475988 
L 314.424038 60.903573 
L 319.926658 56.37728 
L 325.429277 56.893945 
L 330.931897 54.284472 
L 336.434516 55.805624 
L 341.937135 54.850915 
L 347.439755 58.042954 
L 352.942374 56.076296 
L 358.444994 57.262557 
L 363.947613 56.018169 
L 369.450233 60.317763 
L 374.952852 61.219388 
L 380.455471 62.367589 
L 385.958091 61.755799 
L 391.46071 62.480325 
" clip-path="url(#pf18b32b3a4)" style="fill: none; stroke: #46307e; stroke-width: 1.5; stroke-linecap: square"/>
   </g>
   <g id="line2d_18">
    <path d="M 66.806165 60.058596 
L 72.308784 59.250343 
L 77.811404 60.771438 
L 83.314023 61.508648 
L 88.816642 62.962468 
L 94.319262 62.086187 
L 99.821881 63.768658 
L 105.324501 63.487786 
L 110.82712 63.583943 
L 116.32974 64.815504 
L 121.832359 65.460965 
L 127.334978 66.251455 
L 132.837598 65.974796 
L 138.340217 67.50478 
L 143.842837 67.898633 
L 149.345456 69.138231 
L 154.848075 69.384168 
L 160.350695 70.136548 
L 165.853314 70.723005 
L 171.355934 71.909323 
L 176.858553 72.368674 
L 182.361172 73.426376 
L 187.863792 74.648942 
L 193.366411 74.734837 
L 198.869031 77.046592 
L 204.37165 78.171736 
L 209.87427 77.834806 
L 215.376889 79.870216 
L 220.879508 81.66536 
L 226.382128 82.691891 
L 231.884747 85.0327 
L 237.387367 87.590417 
L 242.889986 90.904827 
L 248.392605 95.566765 
L 253.895225 98.369633 
L 259.397844 103.163159 
L 264.900464 107.932587 
L 270.403083 107.899647 
L 275.905703 112.168508 
L 281.408322 105.47136 
L 286.910941 110.138785 
L 292.413561 105.005675 
L 297.91618 88.613576 
L 303.4188 74.962465 
L 308.921419 64.880047 
L 314.424038 59.897109 
L 319.926658 58.491079 
L 325.429277 54.811178 
L 330.931897 54.917508 
L 336.434516 55.795148 
L 341.937135 55.835104 
L 347.439755 55.561825 
L 352.942374 56.946525 
L 358.444994 57.654821 
L 363.947613 57.917675 
L 369.450233 60.632971 
L 374.952852 58.708133 
L 380.455471 61.100933 
L 385.958091 62.76503 
L 391.46071 62.937803 
" clip-path="url(#pf18b32b3a4)" style="fill: none; stroke: #443b84; stroke-width: 1.5; stroke-linecap: square"/>
   </g>
   <g id="line2d_19">
    <path d="M 66.806165 60.423066 
L 72.308784 61.562761 
L 77.811404 60.604489 
L 83.314023 61.17774 
L 88.816642 61.75984 
L 94.319262 62.65813 
L 99.821881 62.560856 
L 105.324501 63.492419 
L 110.82712 64.013143 
L 116.32974 65.320049 
L 121.832359 65.595858 
L 127.334978 65.179354 
L 132.837598 66.739519 
L 138.340217 67.842785 
L 143.842837 67.743962 
L 149.345456 69.315306 
L 154.848075 69.105491 
L 160.350695 70.433451 
L 165.853314 70.80126 
L 171.355934 71.931762 
L 176.858553 73.501655 
L 182.361172 73.918933 
L 187.863792 74.24783 
L 193.366411 75.798352 
L 198.869031 76.02639 
L 204.37165 78.537594 
L 209.87427 78.733663 
L 215.376889 80.279011 
L 220.879508 81.238967 
L 226.382128 84.026999 
L 231.884747 86.524199 
L 237.387367 87.825776 
L 242.889986 91.868538 
L 248.392605 97.119403 
L 253.895225 100.768618 
L 259.397844 101.354337 
L 264.900464 102.612713 
L 270.403083 101.501053 
L 275.905703 107.706324 
L 281.408322 94.849403 
L 286.910941 93.760505 
L 292.413561 91.884549 
L 297.91618 87.067627 
L 303.4188 70.354812 
L 308.921419 63.389892 
L 314.424038 55.841007 
L 319.926658 55.559721 
L 325.429277 55.370187 
L 330.931897 56.22059 
L 336.434516 55.407429 
L 341.937135 57.469058 
L 347.439755 56.352053 
L 352.942374 55.845159 
L 358.444994 60.659366 
L 363.947613 58.430185 
L 369.450233 59.40341 
L 374.952852 59.974245 
L 380.455471 61.816798 
L 385.958091 60.753298 
L 391.46071 61.893126 
" clip-path="url(#pf18b32b3a4)" style="fill: none; stroke: #404588; stroke-width: 1.5; stroke-linecap: square"/>
   </g>
   <g id="line2d_20">
    <path d="M 66.806165 60.060115 
L 72.308784 59.899543 
L 77.811404 61.508259 
L 83.314023 61.052059 
L 88.816642 61.654488 
L 94.319262 62.753552 
L 99.821881 62.3984 
L 105.324501 63.4717 
L 110.82712 64.145245 
L 116.32974 64.759147 
L 121.832359 65.198893 
L 127.334978 65.222364 
L 132.837598 65.907502 
L 138.340217 66.801826 
L 143.842837 66.986665 
L 149.345456 68.376683 
L 154.848075 69.734938 
L 160.350695 70.623812 
L 165.853314 71.415012 
L 171.355934 71.650435 
L 176.858553 72.388016 
L 182.361172 73.564072 
L 187.863792 74.385024 
L 193.366411 75.635952 
L 198.869031 77.591688 
L 204.37165 77.846249 
L 209.87427 78.786244 
L 215.376889 80.308308 
L 220.879508 81.887158 
L 226.382128 84.591962 
L 231.884747 86.215708 
L 237.387367 90.168431 
L 242.889986 94.398967 
L 248.392605 95.653288 
L 253.895225 98.316343 
L 259.397844 103.083147 
L 264.900464 101.46104 
L 270.403083 106.859394 
L 275.905703 90.734544 
L 281.408322 92.592343 
L 286.910941 78.805366 
L 292.413561 76.951455 
L 297.91618 68.975 
L 303.4188 64.67641 
L 308.921419 60.17982 
L 314.424038 56.940133 
L 319.926658 55.446174 
L 325.429277 294.601499 
L 330.931897 55.512568 
L 336.434516 54.1243 
L 341.937135 56.978226 
L 347.439755 56.125425 
L 352.942374 56.528733 
L 358.444994 58.607802 
L 363.947613 60.881391 
L 369.450233 59.664337 
L 374.952852 60.951986 
L 380.455471 62.206421 
L 385.958091 63.661468 
L 391.46071 63.130875 
" clip-path="url(#pf18b32b3a4)" style="fill: none; stroke: #3c4f8a; stroke-width: 1.5; stroke-linecap: square"/>
   </g>
   <g id="line2d_21">
    <path d="M 66.806165 60.129425 
L 72.308784 61.099476 
L 77.811404 60.84876 
L 83.314023 62.231489 
L 88.816642 62.008065 
L 94.319262 62.9553 
L 99.821881 62.966204 
L 105.324501 64.047216 
L 110.82712 63.388637 
L 116.32974 64.620353 
L 121.832359 65.141888 
L 127.334978 65.430638 
L 132.837598 66.359239 
L 138.340217 67.662377 
L 143.842837 67.483971 
L 149.345456 68.92492 
L 154.848075 69.197269 
L 160.350695 69.467675 
L 165.853314 71.400362 
L 171.355934 72.098942 
L 176.858553 72.457827 
L 182.361172 73.999885 
L 187.863792 76.258479 
L 193.366411 76.345631 
L 198.869031 77.370383 
L 204.37165 77.569692 
L 209.87427 79.128615 
L 215.376889 81.25832 
L 220.879508 82.533688 
L 226.382128 85.392244 
L 231.884747 88.682588 
L 237.387367 91.828421 
L 242.889986 92.847261 
L 248.392605 98.11079 
L 253.895225 97.399654 
L 259.397844 95.868845 
L 264.900464 95.463619 
L 270.403083 99.987698 
L 275.905703 98.942452 
L 281.408322 91.033012 
L 286.910941 76.062772 
L 292.413561 70.6609 
L 297.91618 68.540909 
L 303.4188 63.803442 
L 308.921419 58.827885 
L 314.424038 56.204141 
L 319.926658 55.820504 
L 325.429277 53.87098 
L 330.931897 54.295063 
L 336.434516 54.294586 
L 341.937135 55.06763 
L 347.439755 55.872415 
L 352.942374 57.035288 
L 358.444994 58.195418 
L 363.947613 58.937311 
L 369.450233 58.905142 
L 374.952852 61.141644 
L 380.455471 61.815593 
L 385.958091 60.620637 
L 391.46071 63.554214 
" clip-path="url(#pf18b32b3a4)" style="fill: none; stroke: #38598c; stroke-width: 1.5; stroke-linecap: square"/>
   </g>
   <g id="line2d_22">
    <path d="M 66.806165 59.537937 
L 72.308784 59.785153 
L 77.811404 61.203881 
L 83.314023 61.357518 
L 88.816642 61.823886 
L 94.319262 62.444053 
L 99.821881 62.542723 
L 105.324501 63.976424 
L 110.82712 64.400952 
L 116.32974 64.716731 
L 121.832359 65.145899 
L 127.334978 65.963241 
L 132.837598 66.4127 
L 138.340217 67.416391 
L 143.842837 68.207358 
L 149.345456 68.371582 
L 154.848075 69.63728 
L 160.350695 69.449062 
L 165.853314 70.490013 
L 171.355934 72.230601 
L 176.858553 71.775775 
L 182.361172 73.07813 
L 187.863792 74.674482 
L 193.366411 75.932668 
L 198.869031 77.078235 
L 204.37165 78.338011 
L 209.87427 79.67738 
L 215.376889 81.820102 
L 220.879508 83.590911 
L 226.382128 86.727402 
L 231.884747 89.907855 
L 237.387367 92.031937 
L 242.889986 95.052348 
L 248.392605 95.640105 
L 253.895225 92.90365 
L 259.397844 97.783839 
L 264.900464 88.100728 
L 270.403083 80.133257 
L 275.905703 79.457585 
L 281.408322 83.987993 
L 286.910941 75.249336 
L 292.413561 71.364075 
L 297.91618 65.222099 
L 303.4188 62.59126 
L 308.921419 60.053315 
L 314.424038 57.210468 
L 319.926658 55.516825 
L 325.429277 294.880834 
L 330.931897 54.937997 
L 336.434516 55.06357 
L 341.937135 55.943853 
L 347.439755 57.088359 
L 352.942374 57.142352 
L 358.444994 58.831316 
L 363.947613 58.836315 
L 369.450233 59.795484 
L 374.952852 60.602309 
L 380.455471 61.642876 
L 385.958091 62.321219 
L 391.46071 62.932904 
" clip-path="url(#pf18b32b3a4)" style="fill: none; stroke: #33628d; stroke-width: 1.5; stroke-linecap: square"/>
   </g>
   <g id="line2d_23">
    <path d="M 66.806165 59.994271 
L 72.308784 60.324601 
L 77.811404 60.862694 
L 83.314023 60.968305 
L 88.816642 62.21366 
L 94.319262 62.397916 
L 99.821881 63.236352 
L 105.324501 63.850906 
L 110.82712 64.291355 
L 116.32974 65.2343 
L 121.832359 66.010716 
L 127.334978 67.061605 
L 132.837598 67.25621 
L 138.340217 67.680227 
L 143.842837 67.898245 
L 149.345456 68.850263 
L 154.848075 69.594475 
L 160.350695 69.370467 
L 165.853314 70.98127 
L 171.355934 72.282939 
L 176.858553 73.07991 
L 182.361172 74.809988 
L 187.863792 75.199796 
L 193.366411 75.819997 
L 198.869031 77.607494 
L 204.37165 78.937485 
L 209.87427 79.922826 
L 215.376889 82.043812 
L 220.879508 84.88133 
L 226.382128 87.275466 
L 231.884747 90.833896 
L 237.387367 92.077168 
L 242.889986 94.531029 
L 248.392605 92.232792 
L 253.895225 89.425272 
L 259.397844 93.019407 
L 264.900464 87.931362 
L 270.403083 78.635283 
L 275.905703 73.088227 
L 281.408322 69.493261 
L 286.910941 69.05246 
L 292.413561 63.214984 
L 297.91618 60.371952 
L 303.4188 62.034065 
L 308.921419 58.912399 
L 314.424038 58.368472 
L 319.926658 55.863354 
L 325.429277 54.393322 
L 330.931897 53.856 
L 336.434516 55.84982 
L 341.937135 56.094305 
L 347.439755 57.291186 
L 352.942374 57.735589 
L 358.444994 58.531917 
L 363.947613 60.253694 
L 369.450233 60.144112 
L 374.952852 60.957677 
L 380.455471 61.511514 
L 385.958091 63.079654 
L 391.46071 63.165903 
" clip-path="url(#pf18b32b3a4)" style="fill: none; stroke: #2f6b8e; stroke-width: 1.5; stroke-linecap: square"/>
   </g>
   <g id="line2d_24">
    <path d="M 66.806165 59.422904 
L 72.308784 60.10806 
L 77.811404 61.409751 
L 83.314023 61.605856 
L 88.816642 61.726221 
L 94.319262 62.177705 
L 99.821881 62.68873 
L 105.324501 63.739057 
L 110.82712 64.155489 
L 116.32974 65.151564 
L 121.832359 65.580854 
L 127.334978 66.347422 
L 132.837598 66.854988 
L 138.340217 67.141355 
L 143.842837 68.289406 
L 149.345456 68.692163 
L 154.848075 69.371576 
L 160.350695 69.736346 
L 165.853314 71.312722 
L 171.355934 72.864563 
L 176.858553 72.68932 
L 182.361172 74.256891 
L 187.863792 74.823652 
L 193.366411 76.079128 
L 198.869031 77.632334 
L 204.37165 78.565285 
L 209.87427 81.194451 
L 215.376889 82.801454 
L 220.879508 85.285627 
L 226.382128 86.498409 
L 231.884747 90.368069 
L 237.387367 91.909939 
L 242.889986 95.842175 
L 248.392605 89.593301 
L 253.895225 94.580726 
L 259.397844 90.355889 
L 264.900464 79.609723 
L 270.403083 75.985354 
L 275.905703 70.853706 
L 281.408322 67.374015 
L 286.910941 66.500308 
L 292.413561 63.638122 
L 297.91618 59.243315 
L 303.4188 59.226471 
L 308.921419 59.457424 
L 314.424038 59.124725 
L 319.926658 58.738072 
L 325.429277 57.664077 
L 330.931897 54.850006 
L 336.434516 56.253187 
L 341.937135 56.11902 
L 347.439755 57.86005 
L 352.942374 58.72061 
L 358.444994 58.783663 
L 363.947613 59.640263 
L 369.450233 60.594036 
L 374.952852 61.164586 
L 380.455471 61.502068 
L 385.958091 62.844899 
L 391.46071 63.24141 
" clip-path="url(#pf18b32b3a4)" style="fill: none; stroke: #2c738e; stroke-width: 1.5; stroke-linecap: square"/>
   </g>
   <g id="line2d_25">
    <path d="M 66.806165 59.731978 
L 72.308784 60.262959 
L 77.811404 61.299027 
L 83.314023 60.959316 
L 88.816642 61.51751 
L 94.319262 62.468531 
L 99.821881 62.888146 
L 105.324501 63.609297 
L 110.82712 64.519727 
L 116.32974 64.620284 
L 121.832359 65.839868 
L 127.334978 65.692806 
L 132.837598 67.116168 
L 138.340217 67.819062 
L 143.842837 68.258842 
L 149.345456 68.934082 
L 154.848075 70.265299 
L 160.350695 71.62489 
L 165.853314 71.784835 
L 171.355934 71.86538 
L 176.858553 73.521944 
L 182.361172 74.46455 
L 187.863792 74.511225 
L 193.366411 77.084184 
L 198.869031 78.1228 
L 204.37165 79.228715 
L 209.87427 80.85874 
L 215.376889 83.455154 
L 220.879508 84.441218 
L 226.382128 85.706335 
L 231.884747 91.613299 
L 237.387367 95.709764 
L 242.889986 92.499959 
L 248.392605 92.815927 
L 253.895225 92.452883 
L 259.397844 90.03298 
L 264.900464 78.813963 
L 270.403083 72.895275 
L 275.905703 69.682586 
L 281.408322 65.154901 
L 286.910941 65.606678 
L 292.413561 62.863457 
L 297.91618 63.198815 
L 303.4188 57.562167 
L 308.921419 58.330026 
L 314.424038 57.664815 
L 319.926658 58.892663 
L 325.429277 57.263102 
L 330.931897 59.356518 
L 336.434516 56.329341 
L 341.937135 55.377011 
L 347.439755 57.243523 
L 352.942374 58.378436 
L 358.444994 58.641206 
L 363.947613 59.962308 
L 369.450233 60.479937 
L 374.952852 61.065363 
L 380.455471 62.576516 
L 385.958091 63.024554 
L 391.46071 64.612816 
" clip-path="url(#pf18b32b3a4)" style="fill: none; stroke: #297b8e; stroke-width: 1.5; stroke-linecap: square"/>
   </g>
   <g id="line2d_26">
    <path d="M 66.806165 59.618651 
L 72.308784 60.493488 
L 77.811404 60.878295 
L 83.314023 61.457633 
L 88.816642 61.621868 
L 94.319262 62.487942 
L 99.821881 62.508586 
L 105.324501 64.083958 
L 110.82712 64.342291 
L 116.32974 64.83504 
L 121.832359 65.562839 
L 127.334978 66.297878 
L 132.837598 67.09817 
L 138.340217 68.280197 
L 143.842837 68.460359 
L 149.345456 69.029988 
L 154.848075 69.631249 
L 160.350695 70.412558 
L 165.853314 72.109594 
L 171.355934 72.483912 
L 176.858553 73.093595 
L 182.361172 74.207462 
L 187.863792 76.317752 
L 193.366411 76.475289 
L 198.869031 78.248253 
L 204.37165 80.213177 
L 209.87427 80.306098 
L 215.376889 82.36631 
L 220.879508 85.410085 
L 226.382128 89.469993 
L 231.884747 90.3768 
L 237.387367 90.465867 
L 242.889986 89.504923 
L 248.392605 89.462257 
L 253.895225 88.445144 
L 259.397844 87.186711 
L 264.900464 76.533507 
L 270.403083 71.336651 
L 275.905703 64.812063 
L 281.408322 63.616192 
L 286.910941 64.102002 
L 292.413561 62.142082 
L 297.91618 60.386878 
L 303.4188 59.876331 
L 308.921419 60.543555 
L 314.424038 59.542635 
L 319.926658 58.92432 
L 325.429277 58.51879 
L 330.931897 57.58869 
L 336.434516 58.580773 
L 341.937135 57.999463 
L 347.439755 58.534558 
L 352.942374 58.902819 
L 358.444994 59.628082 
L 363.947613 60.067969 
L 369.450233 60.837702 
L 374.952852 61.141478 
L 380.455471 62.58918 
L 385.958091 62.552604 
L 391.46071 63.673434 
" clip-path="url(#pf18b32b3a4)" style="fill: none; stroke: #25838e; stroke-width: 1.5; stroke-linecap: square"/>
   </g>
   <g id="line2d_27">
    <path d="M 66.806165 60.138382 
L 72.308784 60.227944 
L 77.811404 60.735002 
L 83.314023 61.496501 
L 88.816642 62.424921 
L 94.319262 63.155408 
L 99.821881 63.087665 
L 105.324501 63.702772 
L 110.82712 64.083313 
L 116.32974 64.973926 
L 121.832359 65.814766 
L 127.334978 66.535245 
L 132.837598 66.495315 
L 138.340217 67.447824 
L 143.842837 68.690523 
L 149.345456 69.54181 
L 154.848075 70.447197 
L 160.350695 70.891274 
L 165.853314 71.897612 
L 171.355934 72.48029 
L 176.858553 73.818077 
L 182.361172 74.434895 
L 187.863792 75.464085 
L 193.366411 77.186544 
L 198.869031 78.813826 
L 204.37165 78.761943 
L 209.87427 80.755817 
L 215.376889 83.167829 
L 220.879508 85.981955 
L 226.382128 91.092166 
L 231.884747 94.612729 
L 237.387367 90.914974 
L 242.889986 96.293761 
L 248.392605 86.186302 
L 253.895225 86.953383 
L 259.397844 79.980136 
L 264.900464 72.836174 
L 270.403083 67.003701 
L 275.905703 64.038986 
L 281.408322 61.501026 
L 286.910941 62.066812 
L 292.413561 61.816629 
L 297.91618 60.029783 
L 303.4188 59.943021 
L 308.921419 59.281362 
L 314.424038 60.784516 
L 319.926658 58.67511 
L 325.429277 58.429067 
L 330.931897 57.191986 
L 336.434516 59.396919 
L 341.937135 60.326841 
L 347.439755 58.526555 
L 352.942374 58.044656 
L 358.444994 58.891737 
L 363.947613 59.388836 
L 369.450233 60.879754 
L 374.952852 61.626126 
L 380.455471 62.301065 
L 385.958091 62.976655 
L 391.46071 64.039827 
" clip-path="url(#pf18b32b3a4)" style="fill: none; stroke: #228c8d; stroke-width: 1.5; stroke-linecap: square"/>
   </g>
   <g id="line2d_28">
    <path d="M 66.806165 59.431195 
L 72.308784 60.439906 
L 77.811404 60.57572 
L 83.314023 61.474177 
L 88.816642 62.21384 
L 94.319262 62.636097 
L 99.821881 63.209277 
L 105.324501 63.440661 
L 110.82712 64.258213 
L 116.32974 65.053597 
L 121.832359 66.225951 
L 127.334978 66.306703 
L 132.837598 67.198778 
L 138.340217 67.914919 
L 143.842837 68.313672 
L 149.345456 69.271777 
L 154.848075 70.047503 
L 160.350695 71.415512 
L 165.853314 71.114693 
L 171.355934 72.182664 
L 176.858553 72.955199 
L 182.361172 74.681496 
L 187.863792 76.217748 
L 193.366411 77.704556 
L 198.869031 78.264391 
L 204.37165 78.078618 
L 209.87427 84.21653 
L 215.376889 85.384876 
L 220.879508 87.278172 
L 226.382128 87.493172 
L 231.884747 88.174487 
L 237.387367 90.003982 
L 242.889986 90.106269 
L 248.392605 83.608417 
L 253.895225 82.714012 
L 259.397844 71.038734 
L 264.900464 69.325998 
L 270.403083 63.850264 
L 275.905703 62.691648 
L 281.408322 61.4158 
L 286.910941 60.828267 
L 292.413561 60.193977 
L 297.91618 59.974454 
L 303.4188 59.585957 
L 308.921419 59.502999 
L 314.424038 61.302127 
L 319.926658 59.84557 
L 325.429277 59.200026 
L 330.931897 57.968268 
L 336.434516 57.530227 
L 341.937135 58.322995 
L 347.439755 59.593343 
L 352.942374 60.448349 
L 358.444994 60.615859 
L 363.947613 59.946161 
L 369.450233 61.405164 
L 374.952852 62.01118 
L 380.455471 62.85202 
L 385.958091 63.064518 
L 391.46071 64.142645 
" clip-path="url(#pf18b32b3a4)" style="fill: none; stroke: #1f948c; stroke-width: 1.5; stroke-linecap: square"/>
   </g>
   <g id="line2d_29">
    <path d="M 66.806165 59.82856 
L 72.308784 60.359174 
L 77.811404 60.632658 
L 83.314023 61.130676 
L 88.816642 61.785532 
L 94.319262 62.458843 
L 99.821881 63.160063 
L 105.324501 63.557535 
L 110.82712 64.690261 
L 116.32974 64.873808 
L 121.832359 65.499483 
L 127.334978 65.674095 
L 132.837598 66.850957 
L 138.340217 67.388944 
L 143.842837 68.207645 
L 149.345456 69.506444 
L 154.848075 69.379943 
L 160.350695 70.906629 
L 165.853314 71.425588 
L 171.355934 72.327015 
L 176.858553 73.678496 
L 182.361172 74.63781 
L 187.863792 75.363397 
L 193.366411 75.725523 
L 198.869031 76.917086 
L 204.37165 81.785816 
L 209.87427 81.781481 
L 215.376889 85.099794 
L 220.879508 88.505101 
L 226.382128 83.067579 
L 231.884747 79.664101 
L 237.387367 79.359219 
L 242.889986 80.102585 
L 248.392605 79.055645 
L 253.895225 77.494444 
L 259.397844 70.471875 
L 264.900464 65.999308 
L 270.403083 63.556706 
L 275.905703 61.446455 
L 281.408322 58.501335 
L 286.910941 59.439088 
L 292.413561 59.165528 
L 297.91618 60.939308 
L 303.4188 58.793091 
L 308.921419 58.08164 
L 314.424038 61.211154 
L 319.926658 61.585831 
L 325.429277 61.062518 
L 330.931897 59.253394 
L 336.434516 58.42192 
L 341.937135 58.533629 
L 347.439755 59.631808 
L 352.942374 60.860097 
L 358.444994 61.992572 
L 363.947613 61.201991 
L 369.450233 61.937275 
L 374.952852 62.342374 
L 380.455471 62.459424 
L 385.958091 62.686375 
L 391.46071 63.876858 
" clip-path="url(#pf18b32b3a4)" style="fill: none; stroke: #1e9d89; stroke-width: 1.5; stroke-linecap: square"/>
   </g>
   <g id="line2d_30">
    <path d="M 66.806165 59.320772 
L 72.308784 60.328502 
L 77.811404 60.691369 
L 83.314023 61.643502 
L 88.816642 61.96609 
L 94.319262 62.380505 
L 99.821881 62.866294 
L 105.324501 64.360938 
L 110.82712 64.216427 
L 116.32974 64.900022 
L 121.832359 65.735804 
L 127.334978 65.941048 
L 132.837598 66.76222 
L 138.340217 67.401165 
L 143.842837 68.235575 
L 149.345456 68.837344 
L 154.848075 70.192041 
L 160.350695 70.423925 
L 165.853314 72.048215 
L 171.355934 72.382674 
L 176.858553 73.868044 
L 182.361172 74.38406 
L 187.863792 75.507342 
L 193.366411 75.556017 
L 198.869031 78.211566 
L 204.37165 81.110411 
L 209.87427 86.005292 
L 215.376889 85.623205 
L 220.879508 81.915755 
L 226.382128 78.718617 
L 231.884747 78.692722 
L 237.387367 72.265498 
L 242.889986 75.012639 
L 248.392605 71.419343 
L 253.895225 72.27166 
L 259.397844 67.451062 
L 264.900464 66.041827 
L 270.403083 61.795696 
L 275.905703 57.466613 
L 281.408322 58.598278 
L 286.910941 58.088189 
L 292.413561 57.759279 
L 297.91618 59.797089 
L 303.4188 60.728718 
L 308.921419 57.413028 
L 314.424038 57.247618 
L 319.926658 59.18561 
L 325.429277 61.026963 
L 330.931897 61.247209 
L 336.434516 58.823295 
L 341.937135 58.909303 
L 347.439755 60.736417 
L 352.942374 60.052045 
L 358.444994 61.201762 
L 363.947613 62.406524 
L 369.450233 61.946779 
L 374.952852 61.608063 
L 380.455471 62.804391 
L 385.958091 63.3965 
L 391.46071 64.52202 
" clip-path="url(#pf18b32b3a4)" style="fill: none; stroke: #21a585; stroke-width: 1.5; stroke-linecap: square"/>
   </g>
   <g id="line2d_31">
    <path d="M 66.806165 59.819241 
L 72.308784 59.636598 
L 77.811404 61.283126 
L 83.314023 61.843586 
L 88.816642 61.998512 
L 94.319262 62.837986 
L 99.821881 63.382734 
L 105.324501 64.023122 
L 110.82712 64.588248 
L 116.32974 65.115949 
L 121.832359 66.223 
L 127.334978 66.496211 
L 132.837598 67.145881 
L 138.340217 67.799367 
L 143.842837 68.473884 
L 149.345456 69.096687 
L 154.848075 70.312368 
L 160.350695 71.013084 
L 165.853314 71.330778 
L 171.355934 72.79954 
L 176.858553 74.019261 
L 182.361172 74.27349 
L 187.863792 75.385402 
L 193.366411 77.96001 
L 198.869031 74.912758 
L 204.37165 85.264908 
L 209.87427 84.528423 
L 215.376889 83.163245 
L 220.879508 78.90255 
L 226.382128 76.092479 
L 231.884747 73.501637 
L 237.387367 70.78226 
L 242.889986 71.320563 
L 248.392605 70.015236 
L 253.895225 66.045421 
L 259.397844 66.013364 
L 264.900464 61.839741 
L 270.403083 58.690053 
L 275.905703 58.894733 
L 281.408322 56.462309 
L 286.910941 57.962209 
L 292.413561 56.728257 
L 297.91618 59.654517 
L 303.4188 59.034691 
L 308.921419 59.211501 
L 314.424038 57.828231 
L 319.926658 58.543013 
L 325.429277 61.158379 
L 330.931897 61.544188 
L 336.434516 61.732522 
L 341.937135 59.982498 
L 347.439755 60.05841 
L 352.942374 60.438396 
L 358.444994 60.195579 
L 363.947613 62.240486 
L 369.450233 62.586803 
L 374.952852 63.607254 
L 380.455471 62.693389 
L 385.958091 64.17273 
L 391.46071 64.509802 
" clip-path="url(#pf18b32b3a4)" style="fill: none; stroke: #26ad81; stroke-width: 1.5; stroke-linecap: square"/>
   </g>
   <g id="line2d_32">
    <path d="M 66.806165 59.99681 
L 72.308784 60.482267 
L 77.811404 61.023167 
L 83.314023 61.629551 
L 88.816642 62.313896 
L 94.319262 62.84795 
L 99.821881 63.040227 
L 105.324501 63.783387 
L 110.82712 64.801265 
L 116.32974 64.873533 
L 121.832359 65.919016 
L 127.334978 66.221902 
L 132.837598 67.053123 
L 138.340217 67.967564 
L 143.842837 68.884628 
L 149.345456 69.092264 
L 154.848075 69.878073 
L 160.350695 70.9062 
L 165.853314 71.489514 
L 171.355934 72.492678 
L 176.858553 72.932449 
L 182.361172 73.995722 
L 187.863792 77.154744 
L 193.366411 75.260416 
L 198.869031 80.153939 
L 204.37165 84.856735 
L 209.87427 78.634216 
L 215.376889 77.661916 
L 220.879508 74.444966 
L 226.382128 75.230592 
L 231.884747 72.09992 
L 237.387367 70.094319 
L 242.889986 67.799115 
L 248.392605 65.987818 
L 253.895225 64.212832 
L 259.397844 63.261033 
L 264.900464 61.741842 
L 270.403083 58.201095 
L 275.905703 56.41803 
L 281.408322 58.003056 
L 286.910941 56.961463 
L 292.413561 54.786241 
L 297.91618 58.578598 
L 303.4188 60.227274 
L 308.921419 60.33914 
L 314.424038 59.234376 
L 319.926658 59.03489 
L 325.429277 58.77595 
L 330.931897 61.133502 
L 336.434516 63.875728 
L 341.937135 62.109956 
L 347.439755 60.629537 
L 352.942374 60.605942 
L 358.444994 61.984665 
L 363.947613 60.994373 
L 369.450233 61.77227 
L 374.952852 62.160413 
L 380.455471 63.839564 
L 385.958091 64.220801 
L 391.46071 64.176956 
" clip-path="url(#pf18b32b3a4)" style="fill: none; stroke: #31b57b; stroke-width: 1.5; stroke-linecap: square"/>
   </g>
   <g id="line2d_33">
    <path d="M 66.806165 59.920844 
L 72.308784 60.287154 
L 77.811404 60.758389 
L 83.314023 61.177883 
L 88.816642 61.868735 
L 94.319262 62.505723 
L 99.821881 63.237664 
L 105.324501 63.46449 
L 110.82712 64.806228 
L 116.32974 65.001631 
L 121.832359 65.456344 
L 127.334978 66.881763 
L 132.837598 66.995839 
L 138.340217 67.920463 
L 143.842837 68.490338 
L 149.345456 68.861576 
L 154.848075 70.428413 
L 160.350695 70.473918 
L 165.853314 69.920941 
L 171.355934 71.871901 
L 176.858553 72.224879 
L 182.361172 73.555887 
L 187.863792 74.113542 
L 193.366411 76.381201 
L 198.869031 84.259045 
L 204.37165 76.787602 
L 209.87427 72.991674 
L 215.376889 71.378558 
L 220.879508 69.785094 
L 226.382128 71.04576 
L 231.884747 68.964856 
L 237.387367 67.174078 
L 242.889986 66.30343 
L 248.392605 65.133505 
L 253.895225 62.967496 
L 259.397844 62.218736 
L 264.900464 59.984111 
L 270.403083 57.691363 
L 275.905703 55.432217 
L 281.408322 55.081082 
L 286.910941 56.802091 
L 292.413561 56.465977 
L 297.91618 56.044312 
L 303.4188 58.928408 
L 308.921419 60.779757 
L 314.424038 59.91344 
L 319.926658 59.185209 
L 325.429277 59.5586 
L 330.931897 61.579978 
L 336.434516 62.44768 
L 341.937135 62.872286 
L 347.439755 62.471897 
L 352.942374 61.06121 
L 358.444994 60.541611 
L 363.947613 61.55549 
L 369.450233 62.444996 
L 374.952852 63.654802 
L 380.455471 63.973836 
L 385.958091 64.858552 
L 391.46071 64.714019 
" clip-path="url(#pf18b32b3a4)" style="fill: none; stroke: #3fbc73; stroke-width: 1.5; stroke-linecap: square"/>
   </g>
   <g id="line2d_34">
    <path d="M 66.806165 60.212585 
L 72.308784 60.557599 
L 77.811404 60.660884 
L 83.314023 61.727751 
L 88.816642 61.908213 
L 94.319262 62.454646 
L 99.821881 63.352407 
L 105.324501 63.859598 
L 110.82712 64.571944 
L 116.32974 65.212379 
L 121.832359 65.543267 
L 127.334978 66.185606 
L 132.837598 66.81311 
L 138.340217 67.812327 
L 143.842837 68.275081 
L 149.345456 68.820177 
L 154.848075 69.653132 
L 160.350695 70.019148 
L 165.853314 70.67052 
L 171.355934 71.121485 
L 176.858553 72.532902 
L 182.361172 72.593914 
L 187.863792 74.113683 
L 193.366411 82.30091 
L 198.869031 75.869956 
L 204.37165 72.754697 
L 209.87427 70.105398 
L 215.376889 68.191714 
L 220.879508 66.452637 
L 226.382128 66.968026 
L 231.884747 65.560418 
L 237.387367 64.833361 
L 242.889986 63.756942 
L 248.392605 63.551052 
L 253.895225 62.940287 
L 259.397844 62.614925 
L 264.900464 61.231548 
L 270.403083 59.273591 
L 275.905703 56.050364 
L 281.408322 55.842317 
L 286.910941 56.142407 
L 292.413561 56.834048 
L 297.91618 56.782396 
L 303.4188 57.095136 
L 308.921419 59.35622 
L 314.424038 60.073009 
L 319.926658 59.591551 
L 325.429277 58.767023 
L 330.931897 60.689618 
L 336.434516 61.380077 
L 341.937135 61.976018 
L 347.439755 63.170196 
L 352.942374 62.876825 
L 358.444994 62.835903 
L 363.947613 61.782662 
L 369.450233 62.710475 
L 374.952852 62.730036 
L 380.455471 64.008798 
L 385.958091 64.336485 
L 391.46071 65.163383 
" clip-path="url(#pf18b32b3a4)" style="fill: none; stroke: #50c46a; stroke-width: 1.5; stroke-linecap: square"/>
   </g>
   <g id="line2d_35">
    <path d="M 66.806165 59.982397 
L 72.308784 60.511302 
L 77.811404 61.011437 
L 83.314023 61.336515 
L 88.816642 62.607877 
L 94.319262 62.873114 
L 99.821881 63.582126 
L 105.324501 64.143063 
L 110.82712 64.89767 
L 116.32974 65.366472 
L 121.832359 66.086618 
L 127.334978 66.837326 
L 132.837598 67.402514 
L 138.340217 67.769733 
L 143.842837 68.549991 
L 149.345456 68.990603 
L 154.848075 69.057576 
L 160.350695 70.110337 
L 165.853314 70.79766 
L 171.355934 72.4035 
L 176.858553 72.765235 
L 182.361172 70.135456 
L 187.863792 78.711727 
L 193.366411 78.052801 
L 198.869031 71.092699 
L 204.37165 69.053557 
L 209.87427 66.421188 
L 215.376889 66.454567 
L 220.879508 65.807625 
L 226.382128 65.858991 
L 231.884747 64.39312 
L 237.387367 63.715199 
L 242.889986 63.128347 
L 248.392605 62.798979 
L 253.895225 62.797216 
L 259.397844 61.630106 
L 264.900464 60.152552 
L 270.403083 60.281869 
L 275.905703 57.563829 
L 281.408322 55.202911 
L 286.910941 56.186084 
L 292.413561 57.039527 
L 297.91618 56.270159 
L 303.4188 56.401097 
L 308.921419 59.281193 
L 314.424038 60.005644 
L 319.926658 60.110625 
L 325.429277 61.239801 
L 330.931897 58.650574 
L 336.434516 61.385071 
L 341.937135 62.476967 
L 347.439755 62.993534 
L 352.942374 63.746247 
L 358.444994 64.347491 
L 363.947613 63.622277 
L 369.450233 63.042252 
L 374.952852 63.533464 
L 380.455471 63.697636 
L 385.958091 64.771692 
L 391.46071 65.466061 
" clip-path="url(#pf18b32b3a4)" style="fill: none; stroke: #63cb5f; stroke-width: 1.5; stroke-linecap: square"/>
   </g>
   <g id="line2d_36">
    <path d="M 66.806165 59.482214 
L 72.308784 60.171984 
L 77.811404 61.029563 
L 83.314023 61.737869 
L 88.816642 62.347394 
L 94.319262 62.503617 
L 99.821881 63.503424 
L 105.324501 64.11982 
L 110.82712 64.868129 
L 116.32974 65.235079 
L 121.832359 65.764538 
L 127.334978 66.802867 
L 132.837598 67.234403 
L 138.340217 68.297619 
L 143.842837 68.133037 
L 149.345456 68.548862 
L 154.848075 69.801298 
L 160.350695 71.00105 
L 165.853314 71.810077 
L 171.355934 72.151367 
L 176.858553 70.869442 
L 182.361172 73.626132 
L 187.863792 80.369048 
L 193.366411 73.731163 
L 198.869031 68.943465 
L 204.37165 65.651187 
L 209.87427 66.068846 
L 215.376889 64.158722 
L 220.879508 63.552178 
L 226.382128 63.563553 
L 231.884747 63.396407 
L 237.387367 63.32191 
L 242.889986 61.490263 
L 248.392605 61.981704 
L 253.895225 60.908012 
L 259.397844 60.192277 
L 264.900464 58.898407 
L 270.403083 61.043679 
L 275.905703 60.155441 
L 281.408322 56.297247 
L 286.910941 56.771252 
L 292.413561 55.550884 
L 297.91618 56.711518 
L 303.4188 57.100023 
L 308.921419 57.575745 
L 314.424038 60.119213 
L 319.926658 61.046467 
L 325.429277 60.686003 
L 330.931897 60.12271 
L 336.434516 61.342261 
L 341.937135 61.744147 
L 347.439755 62.878329 
L 352.942374 63.894302 
L 358.444994 63.811243 
L 363.947613 64.390065 
L 369.450233 62.946697 
L 374.952852 63.067798 
L 380.455471 62.814201 
L 385.958091 64.832867 
L 391.46071 64.394113 
" clip-path="url(#pf18b32b3a4)" style="fill: none; stroke: #77d153; stroke-width: 1.5; stroke-linecap: square"/>
   </g>
   <g id="line2d_37">
    <path d="M 66.806165 59.876819 
L 72.308784 60.625861 
L 77.811404 61.295501 
L 83.314023 61.704927 
L 88.816642 62.547652 
L 94.319262 63.053979 
L 99.821881 63.588479 
L 105.324501 63.756679 
L 110.82712 64.815865 
L 116.32974 64.871894 
L 121.832359 65.824905 
L 127.334978 66.357935 
L 132.837598 66.896073 
L 138.340217 67.169995 
L 143.842837 68.071983 
L 149.345456 68.690837 
L 154.848075 70.395126 
L 160.350695 71.426797 
L 165.853314 70.845529 
L 171.355934 70.305169 
L 176.858553 70.01069 
L 182.361172 76.318258 
L 187.863792 74.527851 
L 193.366411 68.804888 
L 198.869031 65.978841 
L 204.37165 64.275637 
L 209.87427 63.554017 
L 215.376889 63.272918 
L 220.879508 62.652269 
L 226.382128 62.636505 
L 231.884747 62.423318 
L 237.387367 62.161063 
L 242.889986 62.128666 
L 248.392605 61.29166 
L 253.895225 61.074118 
L 259.397844 60.549904 
L 264.900464 59.931127 
L 270.403083 60.660433 
L 275.905703 60.609519 
L 281.408322 59.317336 
L 286.910941 56.779106 
L 292.413561 56.259451 
L 297.91618 55.94328 
L 303.4188 57.371348 
L 308.921419 57.250866 
L 314.424038 60.05277 
L 319.926658 60.50264 
L 325.429277 61.183014 
L 330.931897 61.186524 
L 336.434516 61.887605 
L 341.937135 60.714586 
L 347.439755 62.643865 
L 352.942374 63.251996 
L 358.444994 64.595362 
L 363.947613 65.132866 
L 369.450233 64.96259 
L 374.952852 63.935003 
L 380.455471 64.563618 
L 385.958091 64.929387 
L 391.46071 65.260341 
" clip-path="url(#pf18b32b3a4)" style="fill: none; stroke: #8bd646; stroke-width: 1.5; stroke-linecap: square"/>
   </g>
   <g id="line2d_38">
    <path d="M 66.806165 59.945713 
L 72.308784 60.605614 
L 77.811404 60.807648 
L 83.314023 61.73076 
L 88.816642 62.446146 
L 94.319262 62.656075 
L 99.821881 63.92138 
L 105.324501 64.523577 
L 110.82712 64.552172 
L 116.32974 65.440365 
L 121.832359 66.208735 
L 127.334978 66.651172 
L 132.837598 67.070909 
L 138.340217 67.118237 
L 143.842837 67.308805 
L 149.345456 68.943321 
L 154.848075 69.004621 
L 160.350695 70.577636 
L 165.853314 69.568308 
L 171.355934 70.479902 
L 176.858553 73.691529 
L 182.361172 79.493374 
L 187.863792 70.117048 
L 193.366411 65.170422 
L 198.869031 63.446476 
L 204.37165 62.164465 
L 209.87427 62.262462 
L 215.376889 61.766547 
L 220.879508 61.503676 
L 226.382128 61.092282 
L 231.884747 61.42998 
L 237.387367 61.083756 
L 242.889986 61.096619 
L 248.392605 60.768908 
L 253.895225 61.142079 
L 259.397844 60.204507 
L 264.900464 59.253138 
L 270.403083 58.617278 
L 275.905703 58.175165 
L 281.408322 58.651906 
L 286.910941 58.723668 
L 292.413561 55.712644 
L 297.91618 56.598649 
L 303.4188 56.373093 
L 308.921419 57.367116 
L 314.424038 60.421143 
L 319.926658 60.596813 
L 325.429277 61.190483 
L 330.931897 61.855098 
L 336.434516 61.569995 
L 341.937135 62.070523 
L 347.439755 61.905621 
L 352.942374 63.025799 
L 358.444994 64.145486 
L 363.947613 65.347904 
L 369.450233 64.873433 
L 374.952852 65.746561 
L 380.455471 64.699772 
L 385.958091 64.610704 
L 391.46071 65.188632 
" clip-path="url(#pf18b32b3a4)" style="fill: none; stroke: #a2da37; stroke-width: 1.5; stroke-linecap: square"/>
   </g>
   <g id="line2d_39">
    <path d="M 66.806165 60.097754 
L 72.308784 60.633701 
L 77.811404 60.873757 
L 83.314023 61.653099 
L 88.816642 62.459046 
L 94.319262 62.966096 
L 99.821881 63.524021 
L 105.324501 64.071426 
L 110.82712 64.985392 
L 116.32974 65.581915 
L 121.832359 65.907385 
L 127.334978 66.097583 
L 132.837598 66.368384 
L 138.340217 67.086563 
L 143.842837 67.679166 
L 149.345456 69.362561 
L 154.848075 69.74541 
L 160.350695 67.975766 
L 165.853314 68.476621 
L 171.355934 70.969276 
L 176.858553 76.169448 
L 182.361172 69.517121 
L 187.863792 64.812451 
L 193.366411 63.271971 
L 198.869031 61.594299 
L 204.37165 61.769312 
L 209.87427 61.046555 
L 215.376889 60.741386 
L 220.879508 60.854355 
L 226.382128 60.764936 
L 231.884747 60.726204 
L 237.387367 60.613861 
L 242.889986 60.485864 
L 248.392605 60.496267 
L 253.895225 60.361725 
L 259.397844 60.204052 
L 264.900464 60.015749 
L 270.403083 58.919752 
L 275.905703 58.588475 
L 281.408322 58.574952 
L 286.910941 59.225379 
L 292.413561 56.214179 
L 297.91618 56.59728 
L 303.4188 57.575006 
L 308.921419 57.72197 
L 314.424038 59.885402 
L 319.926658 60.406641 
L 325.429277 61.48078 
L 330.931897 61.036506 
L 336.434516 61.835694 
L 341.937135 61.399879 
L 347.439755 62.479313 
L 352.942374 63.219199 
L 358.444994 64.110721 
L 363.947613 64.482603 
L 369.450233 65.877549 
L 374.952852 66.382678 
L 380.455471 65.532193 
L 385.958091 65.152581 
L 391.46071 65.440497 
" clip-path="url(#pf18b32b3a4)" style="fill: none; stroke: #bade28; stroke-width: 1.5; stroke-linecap: square"/>
   </g>
   <g id="line2d_40">
    <path d="M 66.806165 59.910759 
L 72.308784 60.734253 
L 77.811404 61.041805 
L 83.314023 61.838312 
L 88.816642 62.507025 
L 94.319262 63.335893 
L 99.821881 63.372049 
L 105.324501 63.917459 
L 110.82712 64.598684 
L 116.32974 64.950487 
L 121.832359 65.46509 
L 127.334978 66.615627 
L 132.837598 66.883502 
L 138.340217 67.318617 
L 143.842837 68.351679 
L 149.345456 68.253429 
L 154.848075 68.46495 
L 160.350695 67.349387 
L 165.853314 69.408536 
L 171.355934 73.123313 
L 176.858553 77.053652 
L 182.361172 64.886023 
L 187.863792 62.871388 
L 193.366411 61.19953 
L 198.869031 61.646334 
L 204.37165 60.597871 
L 209.87427 60.734061 
L 215.376889 60.337221 
L 220.879508 60.603964 
L 226.382128 60.448582 
L 231.884747 60.070873 
L 237.387367 60.527342 
L 242.889986 60.621257 
L 248.392605 60.871223 
L 253.895225 60.592484 
L 259.397844 60.496918 
L 264.900464 60.695436 
L 270.403083 58.867003 
L 275.905703 59.188859 
L 281.408322 59.667921 
L 286.910941 59.618879 
L 292.413561 58.243062 
L 297.91618 59.048896 
L 303.4188 57.322865 
L 308.921419 57.680283 
L 314.424038 58.934974 
L 319.926658 60.148534 
L 325.429277 59.490305 
L 330.931897 61.486953 
L 336.434516 62.482838 
L 341.937135 63.602524 
L 347.439755 62.205791 
L 352.942374 62.798547 
L 358.444994 63.35738 
L 363.947613 64.838855 
L 369.450233 65.509804 
L 374.952852 65.38546 
L 380.455471 66.458702 
L 385.958091 65.873579 
L 391.46071 66.405848 
" clip-path="url(#pf18b32b3a4)" style="fill: none; stroke: #d2e21b; stroke-width: 1.5; stroke-linecap: square"/>
   </g>
   <g id="line2d_41">
    <path d="M 66.806165 59.890044 
L 72.308784 60.462162 
L 77.811404 61.13613 
L 83.314023 61.618088 
L 88.816642 62.244654 
L 94.319262 63.125418 
L 99.821881 63.697449 
L 105.324501 63.887475 
L 110.82712 64.73433 
L 116.32974 65.61269 
L 121.832359 65.987405 
L 127.334978 65.926486 
L 132.837598 67.116089 
L 138.340217 67.309321 
L 143.842837 68.480092 
L 149.345456 67.503204 
L 154.848075 68.472309 
L 160.350695 68.612325 
L 165.853314 71.794761 
L 171.355934 75.492256 
L 176.858553 65.141132 
L 182.361172 62.593358 
L 187.863792 61.665017 
L 193.366411 60.3075 
L 198.869031 59.948227 
L 204.37165 60.133704 
L 209.87427 60.225688 
L 215.376889 59.773108 
L 220.879508 60.111677 
L 226.382128 60.050942 
L 231.884747 60.093008 
L 237.387367 60.608903 
L 242.889986 60.118012 
L 248.392605 60.000769 
L 253.895225 60.482796 
L 259.397844 60.828627 
L 264.900464 59.497942 
L 270.403083 59.148488 
L 275.905703 58.246347 
L 281.408322 59.543992 
L 286.910941 59.958267 
L 292.413561 58.288076 
L 297.91618 59.073101 
L 303.4188 57.326583 
L 308.921419 57.816014 
L 314.424038 57.944865 
L 319.926658 60.656924 
L 325.429277 60.893163 
L 330.931897 62.048939 
L 336.434516 62.994387 
L 341.937135 63.433614 
L 347.439755 62.78805 
L 352.942374 63.524557 
L 358.444994 63.175622 
L 363.947613 64.112074 
L 369.450233 65.363374 
L 374.952852 65.627086 
L 380.455471 66.447919 
L 385.958091 66.359743 
L 391.46071 66.687059 
" clip-path="url(#pf18b32b3a4)" style="fill: none; stroke: #eae51a; stroke-width: 1.5; stroke-linecap: square"/>
   </g>
   <g id="line2d_42">
    <path d="M 66.806165 60.143135 
L 72.308784 60.790578 
L 77.811404 61.172512 
L 83.314023 61.908599 
L 88.816642 62.428038 
L 94.319262 63.052117 
L 99.821881 63.493947 
L 105.324501 64.371815 
L 110.82712 64.745214 
L 116.32974 65.50212 
L 121.832359 64.965582 
L 127.334978 66.427445 
L 132.837598 67.392876 
L 138.340217 67.92854 
L 143.842837 67.910857 
L 149.345456 68.34925 
L 154.848075 67.641645 
L 160.350695 68.56057 
L 165.853314 72.430403 
L 171.355934 74.058352 
L 176.858553 63.135658 
L 182.361172 60.407363 
L 187.863792 59.735917 
L 193.366411 59.536639 
L 198.869031 59.48477 
L 204.37165 59.239357 
L 209.87427 59.187197 
L 215.376889 59.664513 
L 220.879508 59.762578 
L 226.382128 59.615464 
L 231.884747 60.19637 
L 237.387367 60.257662 
L 242.889986 60.382613 
L 248.392605 59.521356 
L 253.895225 59.548098 
L 259.397844 60.620641 
L 264.900464 60.002926 
L 270.403083 59.993124 
L 275.905703 58.363423 
L 281.408322 59.725148 
L 286.910941 58.49043 
L 292.413561 59.938971 
L 297.91618 59.799798 
L 303.4188 58.482501 
L 308.921419 57.619412 
L 314.424038 58.51057 
L 319.926658 59.794534 
L 325.429277 60.437482 
L 330.931897 61.648997 
L 336.434516 62.585284 
L 341.937135 63.06033 
L 347.439755 62.998631 
L 352.942374 63.871823 
L 358.444994 63.326359 
L 363.947613 64.09351 
L 369.450233 65.735136 
L 374.952852 66.901282 
L 380.455471 66.989767 
L 385.958091 67.466761 
L 391.46071 67.81292 
" clip-path="url(#pf18b32b3a4)" style="fill: none; stroke: #fde725; stroke-width: 1.5; stroke-linecap: square"/>
   </g>
   <g id="patch_3">
    <path d="M 50.573438 307.872 
L 50.573438 41.76 
" style="fill: none; stroke: #000000; stroke-width: 0.8; stroke-linejoin: miter; stroke-linecap: square"/>
   </g>
   <g id="patch_4">
    <path d="M 407.693438 307.872 
L 407.693438 41.76 
" style="fill: none; stroke: #000000; stroke-width: 0.8; stroke-linejoin: miter; stroke-linecap: square"/>
   </g>
   <g id="patch_5">
    <path d="M 50.573437 307.872 
L 407.693437 307.872 
" style="fill: none; stroke: #000000; stroke-width: 0.8; stroke-linejoin: miter; stroke-linecap: square"/>
   </g>
   <g id="patch_6">
    <path d="M 50.573437 41.76 
L 407.693437 41.76 
" style="fill: none; stroke: #000000; stroke-width: 0.8; stroke-linejoin: miter; stroke-linecap: square"/>
   </g>
   <g id="legend_1">
    <g id="patch_7">
     <path d="M 427.549438 307.872 
L 641.433812 307.872 
Q 643.433812 307.872 643.433812 305.872 
L 643.433812 145.412625 
Q 643.433812 143.412625 641.433812 143.412625 
L 427.549438 143.412625 
Q 425.549438 143.412625 425.549438 145.412625 
L 425.549438 305.872 
Q 425.549438 307.872 427.549438 307.872 
z
" style="fill: #ffffff; opacity: 0.8; stroke: #cccccc; stroke-linejoin: miter"/>
    </g>
    <g id="text_16">
     <!-- Readout pulse amplitude () -->
     <g transform="translate(466.390844 155.011063) scale(0.1 -0.1)">
      <defs>
       <path id="DejaVuSans-52" d="M 2841 2188 
Q 3044 2119 3236 1894 
Q 3428 1669 3622 1275 
L 4263 0 
L 3584 0 
L 2988 1197 
Q 2756 1666 2539 1819 
Q 2322 1972 1947 1972 
L 1259 1972 
L 1259 0 
L 628 0 
L 628 4666 
L 2053 4666 
Q 2853 4666 3247 4331 
Q 3641 3997 3641 3322 
Q 3641 2881 3436 2590 
Q 3231 2300 2841 2188 
z
M 1259 4147 
L 1259 2491 
L 2053 2491 
Q 2509 2491 2742 2702 
Q 2975 2913 2975 3322 
Q 2975 3731 2742 3939 
Q 2509 4147 2053 4147 
L 1259 4147 
z
" transform="scale(0.015625)"/>
       <path id="DejaVuSans-6f" d="M 1959 3097 
Q 1497 3097 1228 2736 
Q 959 2375 959 1747 
Q 959 1119 1226 758 
Q 1494 397 1959 397 
Q 2419 397 2687 759 
Q 2956 1122 2956 1747 
Q 2956 2369 2687 2733 
Q 2419 3097 1959 3097 
z
M 1959 3584 
Q 2709 3584 3137 3096 
Q 3566 2609 3566 1747 
Q 3566 888 3137 398 
Q 2709 -91 1959 -91 
Q 1206 -91 779 398 
Q 353 888 353 1747 
Q 353 2609 779 3096 
Q 1206 3584 1959 3584 
z
" transform="scale(0.015625)"/>
       <path id="DejaVuSans-74" d="M 1172 4494 
L 1172 3500 
L 2356 3500 
L 2356 3053 
L 1172 3053 
L 1172 1153 
Q 1172 725 1289 603 
Q 1406 481 1766 481 
L 2356 481 
L 2356 0 
L 1766 0 
Q 1100 0 847 248 
Q 594 497 594 1153 
L 594 3053 
L 172 3053 
L 172 3500 
L 594 3500 
L 594 4494 
L 1172 4494 
z
" transform="scale(0.015625)"/>
       <path id="DejaVuSans-70" d="M 1159 525 
L 1159 -1331 
L 581 -1331 
L 581 3500 
L 1159 3500 
L 1159 2969 
Q 1341 3281 1617 3432 
Q 1894 3584 2278 3584 
Q 2916 3584 3314 3078 
Q 3713 2572 3713 1747 
Q 3713 922 3314 415 
Q 2916 -91 2278 -91 
Q 1894 -91 1617 61 
Q 1341 213 1159 525 
z
M 3116 1747 
Q 3116 2381 2855 2742 
Q 2594 3103 2138 3103 
Q 1681 3103 1420 2742 
Q 1159 2381 1159 1747 
Q 1159 1113 1420 752 
Q 1681 391 2138 391 
Q 2594 391 2855 752 
Q 3116 1113 3116 1747 
z
" transform="scale(0.015625)"/>
       <path id="DejaVuSans-6c" d="M 603 4863 
L 1178 4863 
L 1178 0 
L 603 0 
L 603 4863 
z
" transform="scale(0.015625)"/>
       <path id="DejaVuSans-6d" d="M 3328 2828 
Q 3544 3216 3844 3400 
Q 4144 3584 4550 3584 
Q 5097 3584 5394 3201 
Q 5691 2819 5691 2113 
L 5691 0 
L 5113 0 
L 5113 2094 
Q 5113 2597 4934 2840 
Q 4756 3084 4391 3084 
Q 3944 3084 3684 2787 
Q 3425 2491 3425 1978 
L 3425 0 
L 2847 0 
L 2847 2094 
Q 2847 2600 2669 2842 
Q 2491 3084 2119 3084 
Q 1678 3084 1418 2786 
Q 1159 2488 1159 1978 
L 1159 0 
L 581 0 
L 581 3500 
L 1159 3500 
L 1159 2956 
Q 1356 3278 1631 3431 
Q 1906 3584 2284 3584 
Q 2666 3584 2933 3390 
Q 3200 3197 3328 2828 
z
" transform="scale(0.015625)"/>
       <path id="DejaVuSans-69" d="M 603 3500 
L 1178 3500 
L 1178 0 
L 603 0 
L 603 3500 
z
M 603 4863 
L 1178 4863 
L 1178 4134 
L 603 4134 
L 603 4863 
z
" transform="scale(0.015625)"/>
       <path id="DejaVuSans-28" d="M 1984 4856 
Q 1566 4138 1362 3434 
Q 1159 2731 1159 2009 
Q 1159 1288 1364 580 
Q 1569 -128 1984 -844 
L 1484 -844 
Q 1016 -109 783 600 
Q 550 1309 550 2009 
Q 550 2706 781 3412 
Q 1013 4119 1484 4856 
L 1984 4856 
z
" transform="scale(0.015625)"/>
       <path id="DejaVuSans-29" d="M 513 4856 
L 1013 4856 
Q 1481 4119 1714 3412 
Q 1947 2706 1947 2009 
Q 1947 1309 1714 600 
Q 1481 -109 1013 -844 
L 513 -844 
Q 928 -128 1133 580 
Q 1338 1288 1338 2009 
Q 1338 2731 1133 3434 
Q 928 4138 513 4856 
z
" transform="scale(0.015625)"/>
      </defs>
      <use xlink:href="#DejaVuSans-52"/>
      <use xlink:href="#DejaVuSans-65" x="64.982422"/>
      <use xlink:href="#DejaVuSans-61" x="126.505859"/>
      <use xlink:href="#DejaVuSans-64" x="187.785156"/>
      <use xlink:href="#DejaVuSans-6f" x="251.261719"/>
      <use xlink:href="#DejaVuSans-75" x="312.443359"/>
      <use xlink:href="#DejaVuSans-74" x="375.822266"/>
      <use xlink:href="#DejaVuSans-20" x="415.03125"/>
      <use xlink:href="#DejaVuSans-70" x="446.818359"/>
      <use xlink:href="#DejaVuSans-75" x="510.294922"/>
      <use xlink:href="#DejaVuSans-6c" x="573.673828"/>
      <use xlink:href="#DejaVuSans-73" x="601.457031"/>
      <use xlink:href="#DejaVuSans-65" x="653.556641"/>
      <use xlink:href="#DejaVuSans-20" x="715.080078"/>
      <use xlink:href="#DejaVuSans-61" x="746.867188"/>
      <use xlink:href="#DejaVuSans-6d" x="808.146484"/>
      <use xlink:href="#DejaVuSans-70" x="905.558594"/>
      <use xlink:href="#DejaVuSans-6c" x="969.035156"/>
      <use xlink:href="#DejaVuSans-69" x="996.818359"/>
      <use xlink:href="#DejaVuSans-74" x="1024.601562"/>
      <use xlink:href="#DejaVuSans-75" x="1063.810547"/>
      <use xlink:href="#DejaVuSans-64" x="1127.189453"/>
      <use xlink:href="#DejaVuSans-65" x="1190.666016"/>
      <use xlink:href="#DejaVuSans-20" x="1252.189453"/>
      <use xlink:href="#DejaVuSans-28" x="1283.976562"/>
      <use xlink:href="#DejaVuSans-29" x="1322.990234"/>
     </g>
    </g>
    <g id="line2d_43">
     <path d="M 429.549438 166.189188 
L 439.549438 166.189188 
L 449.549438 166.189188 
" style="fill: none; stroke: #440154; stroke-width: 1.5; stroke-linecap: square"/>
    </g>
    <g id="text_17">
     <!-- 0.1 -->
     <g transform="translate(457.549438 169.689188) scale(0.1 -0.1)">
      <defs>
       <path id="DejaVuSans-2e" d="M 684 794 
L 1344 794 
L 1344 0 
L 684 0 
L 684 794 
z
" transform="scale(0.015625)"/>
      </defs>
      <use xlink:href="#DejaVuSans-30"/>
      <use xlink:href="#DejaVuSans-2e" x="63.623047"/>
      <use xlink:href="#DejaVuSans-31" x="95.410156"/>
     </g>
    </g>
    <g id="line2d_44">
     <path d="M 429.549438 180.867313 
L 439.549438 180.867313 
L 449.549438 180.867313 
" style="fill: none; stroke: #470d60; stroke-width: 1.5; stroke-linecap: square"/>
    </g>
    <g id="text_18">
     <!-- 0.121 -->
     <g transform="translate(457.549438 184.367313) scale(0.1 -0.1)">
      <defs>
       <path id="DejaVuSans-32" d="M 1228 531 
L 3431 531 
L 3431 0 
L 469 0 
L 469 531 
Q 828 903 1448 1529 
Q 2069 2156 2228 2338 
Q 2531 2678 2651 2914 
Q 2772 3150 2772 3378 
Q 2772 3750 2511 3984 
Q 2250 4219 1831 4219 
Q 1534 4219 1204 4116 
Q 875 4013 500 3803 
L 500 4441 
Q 881 4594 1212 4672 
Q 1544 4750 1819 4750 
Q 2544 4750 2975 4387 
Q 3406 4025 3406 3419 
Q 3406 3131 3298 2873 
Q 3191 2616 2906 2266 
Q 2828 2175 2409 1742 
Q 1991 1309 1228 531 
z
" transform="scale(0.015625)"/>
      </defs>
      <use xlink:href="#DejaVuSans-30"/>
      <use xlink:href="#DejaVuSans-2e" x="63.623047"/>
      <use xlink:href="#DejaVuSans-31" x="95.410156"/>
      <use xlink:href="#DejaVuSans-32" x="159.033203"/>
      <use xlink:href="#DejaVuSans-31" x="222.65625"/>
     </g>
    </g>
    <g id="line2d_45">
     <path d="M 429.549438 195.545438 
L 439.549438 195.545438 
L 449.549438 195.545438 
" style="fill: none; stroke: #481a6c; stroke-width: 1.5; stroke-linecap: square"/>
    </g>
    <g id="text_19">
     <!-- 0.141 -->
     <g transform="translate(457.549438 199.045438) scale(0.1 -0.1)">
      <defs>
       <path id="DejaVuSans-34" d="M 2419 4116 
L 825 1625 
L 2419 1625 
L 2419 4116 
z
M 2253 4666 
L 3047 4666 
L 3047 1625 
L 3713 1625 
L 3713 1100 
L 3047 1100 
L 3047 0 
L 2419 0 
L 2419 1100 
L 313 1100 
L 313 1709 
L 2253 4666 
z
" transform="scale(0.015625)"/>
      </defs>
      <use xlink:href="#DejaVuSans-30"/>
      <use xlink:href="#DejaVuSans-2e" x="63.623047"/>
      <use xlink:href="#DejaVuSans-31" x="95.410156"/>
      <use xlink:href="#DejaVuSans-34" x="159.033203"/>
      <use xlink:href="#DejaVuSans-31" x="222.65625"/>
     </g>
    </g>
    <g id="line2d_46">
     <path d="M 429.549438 210.223563 
L 439.549438 210.223563 
L 449.549438 210.223563 
" style="fill: none; stroke: #482576; stroke-width: 1.5; stroke-linecap: square"/>
    </g>
    <g id="text_20">
     <!-- 0.162 -->
     <g transform="translate(457.549438 213.723563) scale(0.1 -0.1)">
      <use xlink:href="#DejaVuSans-30"/>
      <use xlink:href="#DejaVuSans-2e" x="63.623047"/>
      <use xlink:href="#DejaVuSans-31" x="95.410156"/>
      <use xlink:href="#DejaVuSans-36" x="159.033203"/>
      <use xlink:href="#DejaVuSans-32" x="222.65625"/>
     </g>
    </g>
    <g id="line2d_47">
     <path d="M 429.549438 224.901688 
L 439.549438 224.901688 
L 449.549438 224.901688 
" style="fill: none; stroke: #46307e; stroke-width: 1.5; stroke-linecap: square"/>
    </g>
    <g id="text_21">
     <!-- 0.183 -->
     <g transform="translate(457.549438 228.401688) scale(0.1 -0.1)">
      <defs>
       <path id="DejaVuSans-33" d="M 2597 2516 
Q 3050 2419 3304 2112 
Q 3559 1806 3559 1356 
Q 3559 666 3084 287 
Q 2609 -91 1734 -91 
Q 1441 -91 1130 -33 
Q 819 25 488 141 
L 488 750 
Q 750 597 1062 519 
Q 1375 441 1716 441 
Q 2309 441 2620 675 
Q 2931 909 2931 1356 
Q 2931 1769 2642 2001 
Q 2353 2234 1838 2234 
L 1294 2234 
L 1294 2753 
L 1863 2753 
Q 2328 2753 2575 2939 
Q 2822 3125 2822 3475 
Q 2822 3834 2567 4026 
Q 2313 4219 1838 4219 
Q 1578 4219 1281 4162 
Q 984 4106 628 3988 
L 628 4550 
Q 988 4650 1302 4700 
Q 1616 4750 1894 4750 
Q 2613 4750 3031 4423 
Q 3450 4097 3450 3541 
Q 3450 3153 3228 2886 
Q 3006 2619 2597 2516 
z
" transform="scale(0.015625)"/>
      </defs>
      <use xlink:href="#DejaVuSans-30"/>
      <use xlink:href="#DejaVuSans-2e" x="63.623047"/>
      <use xlink:href="#DejaVuSans-31" x="95.410156"/>
      <use xlink:href="#DejaVuSans-38" x="159.033203"/>
      <use xlink:href="#DejaVuSans-33" x="222.65625"/>
     </g>
    </g>
    <g id="line2d_48">
     <path d="M 429.549438 239.579813 
L 439.549438 239.579813 
L 449.549438 239.579813 
" style="fill: none; stroke: #443b84; stroke-width: 1.5; stroke-linecap: square"/>
    </g>
    <g id="text_22">
     <!-- 0.203 -->
     <g transform="translate(457.549438 243.079813) scale(0.1 -0.1)">
      <use xlink:href="#DejaVuSans-30"/>
      <use xlink:href="#DejaVuSans-2e" x="63.623047"/>
      <use xlink:href="#DejaVuSans-32" x="95.410156"/>
      <use xlink:href="#DejaVuSans-30" x="159.033203"/>
      <use xlink:href="#DejaVuSans-33" x="222.65625"/>
     </g>
    </g>
    <g id="line2d_49">
     <path d="M 429.549438 254.257938 
L 439.549438 254.257938 
L 449.549438 254.257938 
" style="fill: none; stroke: #404588; stroke-width: 1.5; stroke-linecap: square"/>
    </g>
    <g id="text_23">
     <!-- 0.224 -->
     <g transform="translate(457.549438 257.757938) scale(0.1 -0.1)">
      <use xlink:href="#DejaVuSans-30"/>
      <use xlink:href="#DejaVuSans-2e" x="63.623047"/>
      <use xlink:href="#DejaVuSans-32" x="95.410156"/>
      <use xlink:href="#DejaVuSans-32" x="159.033203"/>
      <use xlink:href="#DejaVuSans-34" x="222.65625"/>
     </g>
    </g>
    <g id="line2d_50">
     <path d="M 429.549438 268.936062 
L 439.549438 268.936062 
L 449.549438 268.936062 
" style="fill: none; stroke: #3c4f8a; stroke-width: 1.5; stroke-linecap: square"/>
    </g>
    <g id="text_24">
     <!-- 0.245 -->
     <g transform="translate(457.549438 272.436062) scale(0.1 -0.1)">
      <use xlink:href="#DejaVuSans-30"/>
      <use xlink:href="#DejaVuSans-2e" x="63.623047"/>
      <use xlink:href="#DejaVuSans-32" x="95.410156"/>
      <use xlink:href="#DejaVuSans-34" x="159.033203"/>
      <use xlink:href="#DejaVuSans-35" x="222.65625"/>
     </g>
    </g>
    <g id="line2d_51">
     <path d="M 429.549438 283.614188 
L 439.549438 283.614188 
L 449.549438 283.614188 
" style="fill: none; stroke: #38598c; stroke-width: 1.5; stroke-linecap: square"/>
    </g>
    <g id="text_25">
     <!-- 0.266 -->
     <g transform="translate(457.549438 287.114188) scale(0.1 -0.1)">
      <use xlink:href="#DejaVuSans-30"/>
      <use xlink:href="#DejaVuSans-2e" x="63.623047"/>
      <use xlink:href="#DejaVuSans-32" x="95.410156"/>
      <use xlink:href="#DejaVuSans-36" x="159.033203"/>
      <use xlink:href="#DejaVuSans-36" x="222.65625"/>
     </g>
    </g>
    <g id="line2d_52">
     <path d="M 429.549438 298.292312 
L 439.549438 298.292312 
L 449.549438 298.292312 
" style="fill: none; stroke: #33628d; stroke-width: 1.5; stroke-linecap: square"/>
    </g>
    <g id="text_26">
     <!-- 0.286 -->
     <g transform="translate(457.549438 301.792312) scale(0.1 -0.1)">
      <use xlink:href="#DejaVuSans-30"/>
      <use xlink:href="#DejaVuSans-2e" x="63.623047"/>
      <use xlink:href="#DejaVuSans-32" x="95.410156"/>
      <use xlink:href="#DejaVuSans-38" x="159.033203"/>
      <use xlink:href="#DejaVuSans-36" x="222.65625"/>
     </g>
    </g>
    <g id="line2d_53">
     <path d="M 506.177563 166.189188 
L 516.177563 166.189188 
L 526.177563 166.189188 
" style="fill: none; stroke: #2f6b8e; stroke-width: 1.5; stroke-linecap: square"/>
    </g>
    <g id="text_27">
     <!-- 0.307 -->
     <g transform="translate(534.177563 169.689188) scale(0.1 -0.1)">
      <use xlink:href="#DejaVuSans-30"/>
      <use xlink:href="#DejaVuSans-2e" x="63.623047"/>
      <use xlink:href="#DejaVuSans-33" x="95.410156"/>
      <use xlink:href="#DejaVuSans-30" x="159.033203"/>
      <use xlink:href="#DejaVuSans-37" x="222.65625"/>
     </g>
    </g>
    <g id="line2d_54">
     <path d="M 506.177563 180.867313 
L 516.177563 180.867313 
L 526.177563 180.867313 
" style="fill: none; stroke: #2c738e; stroke-width: 1.5; stroke-linecap: square"/>
    </g>
    <g id="text_28">
     <!-- 0.328 -->
     <g transform="translate(534.177563 184.367313) scale(0.1 -0.1)">
      <use xlink:href="#DejaVuSans-30"/>
      <use xlink:href="#DejaVuSans-2e" x="63.623047"/>
      <use xlink:href="#DejaVuSans-33" x="95.410156"/>
      <use xlink:href="#DejaVuSans-32" x="159.033203"/>
      <use xlink:href="#DejaVuSans-38" x="222.65625"/>
     </g>
    </g>
    <g id="line2d_55">
     <path d="M 506.177563 195.545438 
L 516.177563 195.545438 
L 526.177563 195.545438 
" style="fill: none; stroke: #297b8e; stroke-width: 1.5; stroke-linecap: square"/>
    </g>
    <g id="text_29">
     <!-- 0.348 -->
     <g transform="translate(534.177563 199.045438) scale(0.1 -0.1)">
      <use xlink:href="#DejaVuSans-30"/>
      <use xlink:href="#DejaVuSans-2e" x="63.623047"/>
      <use xlink:href="#DejaVuSans-33" x="95.410156"/>
      <use xlink:href="#DejaVuSans-34" x="159.033203"/>
      <use xlink:href="#DejaVuSans-38" x="222.65625"/>
     </g>
    </g>
    <g id="line2d_56">
     <path d="M 506.177563 210.223563 
L 516.177563 210.223563 
L 526.177563 210.223563 
" style="fill: none; stroke: #25838e; stroke-width: 1.5; stroke-linecap: square"/>
    </g>
    <g id="text_30">
     <!-- 0.369 -->
     <g transform="translate(534.177563 213.723563) scale(0.1 -0.1)">
      <use xlink:href="#DejaVuSans-30"/>
      <use xlink:href="#DejaVuSans-2e" x="63.623047"/>
      <use xlink:href="#DejaVuSans-33" x="95.410156"/>
      <use xlink:href="#DejaVuSans-36" x="159.033203"/>
      <use xlink:href="#DejaVuSans-39" x="222.65625"/>
     </g>
    </g>
    <g id="line2d_57">
     <path d="M 506.177563 224.901688 
L 516.177563 224.901688 
L 526.177563 224.901688 
" style="fill: none; stroke: #228c8d; stroke-width: 1.5; stroke-linecap: square"/>
    </g>
    <g id="text_31">
     <!-- 0.39 -->
     <g transform="translate(534.177563 228.401688) scale(0.1 -0.1)">
      <use xlink:href="#DejaVuSans-30"/>
      <use xlink:href="#DejaVuSans-2e" x="63.623047"/>
      <use xlink:href="#DejaVuSans-33" x="95.410156"/>
      <use xlink:href="#DejaVuSans-39" x="159.033203"/>
     </g>
    </g>
    <g id="line2d_58">
     <path d="M 506.177563 239.579813 
L 516.177563 239.579813 
L 526.177563 239.579813 
" style="fill: none; stroke: #1f948c; stroke-width: 1.5; stroke-linecap: square"/>
    </g>
    <g id="text_32">
     <!-- 0.41 -->
     <g transform="translate(534.177563 243.079813) scale(0.1 -0.1)">
      <use xlink:href="#DejaVuSans-30"/>
      <use xlink:href="#DejaVuSans-2e" x="63.623047"/>
      <use xlink:href="#DejaVuSans-34" x="95.410156"/>
      <use xlink:href="#DejaVuSans-31" x="159.033203"/>
     </g>
    </g>
    <g id="line2d_59">
     <path d="M 506.177563 254.257938 
L 516.177563 254.257938 
L 526.177563 254.257938 
" style="fill: none; stroke: #1e9d89; stroke-width: 1.5; stroke-linecap: square"/>
    </g>
    <g id="text_33">
     <!-- 0.431 -->
     <g transform="translate(534.177563 257.757938) scale(0.1 -0.1)">
      <use xlink:href="#DejaVuSans-30"/>
      <use xlink:href="#DejaVuSans-2e" x="63.623047"/>
      <use xlink:href="#DejaVuSans-34" x="95.410156"/>
      <use xlink:href="#DejaVuSans-33" x="159.033203"/>
      <use xlink:href="#DejaVuSans-31" x="222.65625"/>
     </g>
    </g>
    <g id="line2d_60">
     <path d="M 506.177563 268.936062 
L 516.177563 268.936062 
L 526.177563 268.936062 
" style="fill: none; stroke: #21a585; stroke-width: 1.5; stroke-linecap: square"/>
    </g>
    <g id="text_34">
     <!-- 0.452 -->
     <g transform="translate(534.177563 272.436062) scale(0.1 -0.1)">
      <use xlink:href="#DejaVuSans-30"/>
      <use xlink:href="#DejaVuSans-2e" x="63.623047"/>
      <use xlink:href="#DejaVuSans-34" x="95.410156"/>
      <use xlink:href="#DejaVuSans-35" x="159.033203"/>
      <use xlink:href="#DejaVuSans-32" x="222.65625"/>
     </g>
    </g>
    <g id="line2d_61">
     <path d="M 506.177563 283.614188 
L 516.177563 283.614188 
L 526.177563 283.614188 
" style="fill: none; stroke: #26ad81; stroke-width: 1.5; stroke-linecap: square"/>
    </g>
    <g id="text_35">
     <!-- 0.472 -->
     <g transform="translate(534.177563 287.114188) scale(0.1 -0.1)">
      <use xlink:href="#DejaVuSans-30"/>
      <use xlink:href="#DejaVuSans-2e" x="63.623047"/>
      <use xlink:href="#DejaVuSans-34" x="95.410156"/>
      <use xlink:href="#DejaVuSans-37" x="159.033203"/>
      <use xlink:href="#DejaVuSans-32" x="222.65625"/>
     </g>
    </g>
    <g id="line2d_62">
     <path d="M 506.177563 298.292312 
L 516.177563 298.292312 
L 526.177563 298.292312 
" style="fill: none; stroke: #31b57b; stroke-width: 1.5; stroke-linecap: square"/>
    </g>
    <g id="text_36">
     <!-- 0.493 -->
     <g transform="translate(534.177563 301.792312) scale(0.1 -0.1)">
      <use xlink:href="#DejaVuSans-30"/>
      <use xlink:href="#DejaVuSans-2e" x="63.623047"/>
      <use xlink:href="#DejaVuSans-34" x="95.410156"/>
      <use xlink:href="#DejaVuSans-39" x="159.033203"/>
      <use xlink:href="#DejaVuSans-33" x="222.65625"/>
     </g>
    </g>
    <g id="line2d_63">
     <path d="M 582.805687 166.189188 
L 592.805687 166.189188 
L 602.805687 166.189188 
" style="fill: none; stroke: #3fbc73; stroke-width: 1.5; stroke-linecap: square"/>
    </g>
    <g id="text_37">
     <!-- 0.514 -->
     <g transform="translate(610.805687 169.689188) scale(0.1 -0.1)">
      <use xlink:href="#DejaVuSans-30"/>
      <use xlink:href="#DejaVuSans-2e" x="63.623047"/>
      <use xlink:href="#DejaVuSans-35" x="95.410156"/>
      <use xlink:href="#DejaVuSans-31" x="159.033203"/>
      <use xlink:href="#DejaVuSans-34" x="222.65625"/>
     </g>
    </g>
    <g id="line2d_64">
     <path d="M 582.805687 180.867313 
L 592.805687 180.867313 
L 602.805687 180.867313 
" style="fill: none; stroke: #50c46a; stroke-width: 1.5; stroke-linecap: square"/>
    </g>
    <g id="text_38">
     <!-- 0.534 -->
     <g transform="translate(610.805687 184.367313) scale(0.1 -0.1)">
      <use xlink:href="#DejaVuSans-30"/>
      <use xlink:href="#DejaVuSans-2e" x="63.623047"/>
      <use xlink:href="#DejaVuSans-35" x="95.410156"/>
      <use xlink:href="#DejaVuSans-33" x="159.033203"/>
      <use xlink:href="#DejaVuSans-34" x="222.65625"/>
     </g>
    </g>
    <g id="line2d_65">
     <path d="M 582.805687 195.545438 
L 592.805687 195.545438 
L 602.805687 195.545438 
" style="fill: none; stroke: #63cb5f; stroke-width: 1.5; stroke-linecap: square"/>
    </g>
    <g id="text_39">
     <!-- 0.555 -->
     <g transform="translate(610.805687 199.045438) scale(0.1 -0.1)">
      <use xlink:href="#DejaVuSans-30"/>
      <use xlink:href="#DejaVuSans-2e" x="63.623047"/>
      <use xlink:href="#DejaVuSans-35" x="95.410156"/>
      <use xlink:href="#DejaVuSans-35" x="159.033203"/>
      <use xlink:href="#DejaVuSans-35" x="222.65625"/>
     </g>
    </g>
    <g id="line2d_66">
     <path d="M 582.805687 210.223563 
L 592.805687 210.223563 
L 602.805687 210.223563 
" style="fill: none; stroke: #77d153; stroke-width: 1.5; stroke-linecap: square"/>
    </g>
    <g id="text_40">
     <!-- 0.576 -->
     <g transform="translate(610.805687 213.723563) scale(0.1 -0.1)">
      <use xlink:href="#DejaVuSans-30"/>
      <use xlink:href="#DejaVuSans-2e" x="63.623047"/>
      <use xlink:href="#DejaVuSans-35" x="95.410156"/>
      <use xlink:href="#DejaVuSans-37" x="159.033203"/>
      <use xlink:href="#DejaVuSans-36" x="222.65625"/>
     </g>
    </g>
    <g id="line2d_67">
     <path d="M 582.805687 224.901688 
L 592.805687 224.901688 
L 602.805687 224.901688 
" style="fill: none; stroke: #8bd646; stroke-width: 1.5; stroke-linecap: square"/>
    </g>
    <g id="text_41">
     <!-- 0.597 -->
     <g transform="translate(610.805687 228.401688) scale(0.1 -0.1)">
      <use xlink:href="#DejaVuSans-30"/>
      <use xlink:href="#DejaVuSans-2e" x="63.623047"/>
      <use xlink:href="#DejaVuSans-35" x="95.410156"/>
      <use xlink:href="#DejaVuSans-39" x="159.033203"/>
      <use xlink:href="#DejaVuSans-37" x="222.65625"/>
     </g>
    </g>
    <g id="line2d_68">
     <path d="M 582.805687 239.579813 
L 592.805687 239.579813 
L 602.805687 239.579813 
" style="fill: none; stroke: #a2da37; stroke-width: 1.5; stroke-linecap: square"/>
    </g>
    <g id="text_42">
     <!-- 0.617 -->
     <g transform="translate(610.805687 243.079813) scale(0.1 -0.1)">
      <use xlink:href="#DejaVuSans-30"/>
      <use xlink:href="#DejaVuSans-2e" x="63.623047"/>
      <use xlink:href="#DejaVuSans-36" x="95.410156"/>
      <use xlink:href="#DejaVuSans-31" x="159.033203"/>
      <use xlink:href="#DejaVuSans-37" x="222.65625"/>
     </g>
    </g>
    <g id="line2d_69">
     <path d="M 582.805687 254.257938 
L 592.805687 254.257938 
L 602.805687 254.257938 
" style="fill: none; stroke: #bade28; stroke-width: 1.5; stroke-linecap: square"/>
    </g>
    <g id="text_43">
     <!-- 0.638 -->
     <g transform="translate(610.805687 257.757938) scale(0.1 -0.1)">
      <use xlink:href="#DejaVuSans-30"/>
      <use xlink:href="#DejaVuSans-2e" x="63.623047"/>
      <use xlink:href="#DejaVuSans-36" x="95.410156"/>
      <use xlink:href="#DejaVuSans-33" x="159.033203"/>
      <use xlink:href="#DejaVuSans-38" x="222.65625"/>
     </g>
    </g>
    <g id="line2d_70">
     <path d="M 582.805687 268.936062 
L 592.805687 268.936062 
L 602.805687 268.936062 
" style="fill: none; stroke: #d2e21b; stroke-width: 1.5; stroke-linecap: square"/>
    </g>
    <g id="text_44">
     <!-- 0.659 -->
     <g transform="translate(610.805687 272.436062) scale(0.1 -0.1)">
      <use xlink:href="#DejaVuSans-30"/>
      <use xlink:href="#DejaVuSans-2e" x="63.623047"/>
      <use xlink:href="#DejaVuSans-36" x="95.410156"/>
      <use xlink:href="#DejaVuSans-35" x="159.033203"/>
      <use xlink:href="#DejaVuSans-39" x="222.65625"/>
     </g>
    </g>
    <g id="line2d_71">
     <path d="M 582.805687 283.614188 
L 592.805687 283.614188 
L 602.805687 283.614188 
" style="fill: none; stroke: #eae51a; stroke-width: 1.5; stroke-linecap: square"/>
    </g>
    <g id="text_45">
     <!-- 0.679 -->
     <g transform="translate(610.805687 287.114188) scale(0.1 -0.1)">
      <use xlink:href="#DejaVuSans-30"/>
      <use xlink:href="#DejaVuSans-2e" x="63.623047"/>
      <use xlink:href="#DejaVuSans-36" x="95.410156"/>
      <use xlink:href="#DejaVuSans-37" x="159.033203"/>
      <use xlink:href="#DejaVuSans-39" x="222.65625"/>
     </g>
    </g>
    <g id="line2d_72">
     <path d="M 582.805687 298.292312 
L 592.805687 298.292312 
L 602.805687 298.292312 
" style="fill: none; stroke: #fde725; stroke-width: 1.5; stroke-linecap: square"/>
    </g>
    <g id="text_46">
     <!-- 0.7 -->
     <g transform="translate(610.805687 301.792312) scale(0.1 -0.1)">
      <use xlink:href="#DejaVuSans-30"/>
      <use xlink:href="#DejaVuSans-2e" x="63.623047"/>
      <use xlink:href="#DejaVuSans-37" x="95.410156"/>
     </g>
    </g>
   </g>
  </g>
  <g id="text_47">
   <!-- x0x1-y1 One-tone-powerDep -->
   <g transform="translate(136.569375 16.318125) scale(0.12 -0.12)">
    <defs>
     <path id="DejaVuSans-78" d="M 3513 3500 
L 2247 1797 
L 3578 0 
L 2900 0 
L 1881 1375 
L 863 0 
L 184 0 
L 1544 1831 
L 300 3500 
L 978 3500 
L 1906 2253 
L 2834 3500 
L 3513 3500 
z
" transform="scale(0.015625)"/>
     <path id="DejaVuSans-4f" d="M 2522 4238 
Q 1834 4238 1429 3725 
Q 1025 3213 1025 2328 
Q 1025 1447 1429 934 
Q 1834 422 2522 422 
Q 3209 422 3611 934 
Q 4013 1447 4013 2328 
Q 4013 3213 3611 3725 
Q 3209 4238 2522 4238 
z
M 2522 4750 
Q 3503 4750 4090 4092 
Q 4678 3434 4678 2328 
Q 4678 1225 4090 567 
Q 3503 -91 2522 -91 
Q 1538 -91 948 565 
Q 359 1222 359 2328 
Q 359 3434 948 4092 
Q 1538 4750 2522 4750 
z
" transform="scale(0.015625)"/>
     <path id="DejaVuSans-77" d="M 269 3500 
L 844 3500 
L 1563 769 
L 2278 3500 
L 2956 3500 
L 3675 769 
L 4391 3500 
L 4966 3500 
L 4050 0 
L 3372 0 
L 2619 2869 
L 1863 0 
L 1184 0 
L 269 3500 
z
" transform="scale(0.015625)"/>
     <path id="DejaVuSans-44" d="M 1259 4147 
L 1259 519 
L 2022 519 
Q 2988 519 3436 956 
Q 3884 1394 3884 2338 
Q 3884 3275 3436 3711 
Q 2988 4147 2022 4147 
L 1259 4147 
z
M 628 4666 
L 1925 4666 
Q 3281 4666 3915 4102 
Q 4550 3538 4550 2338 
Q 4550 1131 3912 565 
Q 3275 0 1925 0 
L 628 0 
L 628 4666 
z
" transform="scale(0.015625)"/>
    </defs>
    <use xlink:href="#DejaVuSans-78"/>
    <use xlink:href="#DejaVuSans-30" x="59.179688"/>
    <use xlink:href="#DejaVuSans-78" x="122.802734"/>
    <use xlink:href="#DejaVuSans-31" x="181.982422"/>
    <use xlink:href="#DejaVuSans-2d" x="245.605469"/>
    <use xlink:href="#DejaVuSans-79" x="279.939453"/>
    <use xlink:href="#DejaVuSans-31" x="339.119141"/>
    <use xlink:href="#DejaVuSans-20" x="402.742188"/>
    <use xlink:href="#DejaVuSans-4f" x="434.529297"/>
    <use xlink:href="#DejaVuSans-6e" x="513.240234"/>
    <use xlink:href="#DejaVuSans-65" x="576.619141"/>
    <use xlink:href="#DejaVuSans-2d" x="638.142578"/>
    <use xlink:href="#DejaVuSans-74" x="674.226562"/>
    <use xlink:href="#DejaVuSans-6f" x="713.435547"/>
    <use xlink:href="#DejaVuSans-6e" x="774.617188"/>
    <use xlink:href="#DejaVuSans-65" x="837.996094"/>
    <use xlink:href="#DejaVuSans-2d" x="899.519531"/>
    <use xlink:href="#DejaVuSans-70" x="935.603516"/>
    <use xlink:href="#DejaVuSans-6f" x="999.080078"/>
    <use xlink:href="#DejaVuSans-77" x="1060.261719"/>
    <use xlink:href="#DejaVuSans-65" x="1142.048828"/>
    <use xlink:href="#DejaVuSans-72" x="1203.572266"/>
    <use xlink:href="#DejaVuSans-44" x="1244.685547"/>
    <use xlink:href="#DejaVuSans-65" x="1321.6875"/>
    <use xlink:href="#DejaVuSans-70" x="1383.210938"/>
   </g>
   <!-- tuid: 20240319-222617-571-3026ec -->
   <g transform="translate(114.162188 29.7555) scale(0.12 -0.12)">
    <defs>
     <path id="DejaVuSans-3a" d="M 750 794 
L 1409 794 
L 1409 0 
L 750 0 
L 750 794 
z
M 750 3309 
L 1409 3309 
L 1409 2516 
L 750 2516 
L 750 3309 
z
" transform="scale(0.015625)"/>
    </defs>
    <use xlink:href="#DejaVuSans-74"/>
    <use xlink:href="#DejaVuSans-75" x="39.208984"/>
    <use xlink:href="#DejaVuSans-69" x="102.587891"/>
    <use xlink:href="#DejaVuSans-64" x="130.371094"/>
    <use xlink:href="#DejaVuSans-3a" x="193.847656"/>
    <use xlink:href="#DejaVuSans-20" x="227.539062"/>
    <use xlink:href="#DejaVuSans-32" x="259.326172"/>
    <use xlink:href="#DejaVuSans-30" x="322.949219"/>
    <use xlink:href="#DejaVuSans-32" x="386.572266"/>
    <use xlink:href="#DejaVuSans-34" x="450.195312"/>
    <use xlink:href="#DejaVuSans-30" x="513.818359"/>
    <use xlink:href="#DejaVuSans-33" x="577.441406"/>
    <use xlink:href="#DejaVuSans-31" x="641.064453"/>
    <use xlink:href="#DejaVuSans-39" x="704.6875"/>
    <use xlink:href="#DejaVuSans-2d" x="768.310547"/>
    <use xlink:href="#DejaVuSans-32" x="804.394531"/>
    <use xlink:href="#DejaVuSans-32" x="868.017578"/>
    <use xlink:href="#DejaVuSans-32" x="931.640625"/>
    <use xlink:href="#DejaVuSans-36" x="995.263672"/>
    <use xlink:href="#DejaVuSans-31" x="1058.886719"/>
    <use xlink:href="#DejaVuSans-37" x="1122.509766"/>
    <use xlink:href="#DejaVuSans-2d" x="1186.132812"/>
    <use xlink:href="#DejaVuSans-35" x="1222.216797"/>
    <use xlink:href="#DejaVuSans-37" x="1285.839844"/>
    <use xlink:href="#DejaVuSans-31" x="1349.462891"/>
    <use xlink:href="#DejaVuSans-2d" x="1413.085938"/>
    <use xlink:href="#DejaVuSans-33" x="1449.169922"/>
    <use xlink:href="#DejaVuSans-30" x="1512.792969"/>
    <use xlink:href="#DejaVuSans-32" x="1576.416016"/>
    <use xlink:href="#DejaVuSans-36" x="1640.039062"/>
    <use xlink:href="#DejaVuSans-65" x="1703.662109"/>
    <use xlink:href="#DejaVuSans-63" x="1765.185547"/>
   </g>
  </g>
 </g>
 <defs>
  <clipPath id="pf18b32b3a4">
   <rect x="50.573438" y="41.76" width="357.12" height="266.112"/>
  </clipPath>
 </defs>
</svg>
