<?xml version="1.0" encoding="utf-8" standalone="no"?>
<!DOCTYPE svg PUBLIC "-//W3C//DTD SVG 1.1//EN"
  "http://www.w3.org/Graphics/SVG/1.1/DTD/svg11.dtd">
<svg xmlns:xlink="http://www.w3.org/1999/xlink" width="626.226pt" height="345.42825pt" viewBox="0 0 626.226 345.42825" xmlns="http://www.w3.org/2000/svg" version="1.1">
 <metadata>
  <rdf:RDF xmlns:dc="http://purl.org/dc/elements/1.1/" xmlns:cc="http://creativecommons.org/ns#" xmlns:rdf="http://www.w3.org/1999/02/22-rdf-syntax-ns#">
   <cc:Work>
    <dc:type rdf:resource="http://purl.org/dc/dcmitype/StillImage"/>
    <dc:date>2023-12-20T16:18:50.181338</dc:date>
    <dc:format>image/svg+xml</dc:format>
    <dc:creator>
     <cc:Agent>
      <dc:title>Matplotlib v3.8.2, https://matplotlib.org/</dc:title>
     </cc:Agent>
    </dc:creator>
   </cc:Work>
  </rdf:RDF>
 </metadata>
 <defs>
  <style type="text/css">*{stroke-linejoin: round; stroke-linecap: butt}</style>
 </defs>
 <g id="figure_1">
  <g id="patch_1">
   <path d="M 0 345.42825 
L 626.226 345.42825 
L 626.226 -0 
L 0 -0 
L 0 345.42825 
z
" style="fill: none; opacity: 0"/>
  </g>
  <g id="axes_1">
   <g id="patch_2">
    <path d="M 53.75 307.872 
L 410.87 307.872 
L 410.87 41.76 
L 53.75 41.76 
z
" style="fill: #ffffff"/>
   </g>
   <g id="matplotlib.axis_1">
    <g id="xtick_1">
     <g id="line2d_1">
      <defs>
       <path id="ma4ee308780" d="M 0 0 
L 0 3.5 
" style="stroke: #000000; stroke-width: 0.8"/>
      </defs>
      <g>
       <use xlink:href="#ma4ee308780" x="69.493298" y="307.872" style="stroke: #000000; stroke-width: 0.8"/>
      </g>
     </g>
     <g id="text_1">
      <!-- 0 -->
      <g transform="translate(66.312048 322.470438) scale(0.1 -0.1)">
       <defs>
        <path id="DejaVuSans-30" d="M 2034 4250 
Q 1547 4250 1301 3770 
Q 1056 3291 1056 2328 
Q 1056 1369 1301 889 
Q 1547 409 2034 409 
Q 2525 409 2770 889 
Q 3016 1369 3016 2328 
Q 3016 3291 2770 3770 
Q 2525 4250 2034 4250 
z
M 2034 4750 
Q 2819 4750 3233 4129 
Q 3647 3509 3647 2328 
Q 3647 1150 3233 529 
Q 2819 -91 2034 -91 
Q 1250 -91 836 529 
Q 422 1150 422 2328 
Q 422 3509 836 4129 
Q 1250 4750 2034 4750 
z
" transform="scale(0.015625)"/>
       </defs>
       <use xlink:href="#DejaVuSans-30"/>
      </g>
     </g>
    </g>
    <g id="xtick_2">
     <g id="line2d_2">
      <g>
       <use xlink:href="#ma4ee308780" x="110.279045" y="307.872" style="stroke: #000000; stroke-width: 0.8"/>
      </g>
     </g>
     <g id="text_2">
      <!-- 1 -->
      <g transform="translate(107.097795 322.470438) scale(0.1 -0.1)">
       <defs>
        <path id="DejaVuSans-31" d="M 794 531 
L 1825 531 
L 1825 4091 
L 703 3866 
L 703 4441 
L 1819 4666 
L 2450 4666 
L 2450 531 
L 3481 531 
L 3481 0 
L 794 0 
L 794 531 
z
" transform="scale(0.015625)"/>
       </defs>
       <use xlink:href="#DejaVuSans-31"/>
      </g>
     </g>
    </g>
    <g id="xtick_3">
     <g id="line2d_3">
      <g>
       <use xlink:href="#ma4ee308780" x="151.064792" y="307.872" style="stroke: #000000; stroke-width: 0.8"/>
      </g>
     </g>
     <g id="text_3">
      <!-- 2 -->
      <g transform="translate(147.883542 322.470438) scale(0.1 -0.1)">
       <defs>
        <path id="DejaVuSans-32" d="M 1228 531 
L 3431 531 
L 3431 0 
L 469 0 
L 469 531 
Q 828 903 1448 1529 
Q 2069 2156 2228 2338 
Q 2531 2678 2651 2914 
Q 2772 3150 2772 3378 
Q 2772 3750 2511 3984 
Q 2250 4219 1831 4219 
Q 1534 4219 1204 4116 
Q 875 4013 500 3803 
L 500 4441 
Q 881 4594 1212 4672 
Q 1544 4750 1819 4750 
Q 2544 4750 2975 4387 
Q 3406 4025 3406 3419 
Q 3406 3131 3298 2873 
Q 3191 2616 2906 2266 
Q 2828 2175 2409 1742 
Q 1991 1309 1228 531 
z
" transform="scale(0.015625)"/>
       </defs>
       <use xlink:href="#DejaVuSans-32"/>
      </g>
     </g>
    </g>
    <g id="xtick_4">
     <g id="line2d_4">
      <g>
       <use xlink:href="#ma4ee308780" x="191.850539" y="307.872" style="stroke: #000000; stroke-width: 0.8"/>
      </g>
     </g>
     <g id="text_4">
      <!-- 3 -->
      <g transform="translate(188.669289 322.470438) scale(0.1 -0.1)">
       <defs>
        <path id="DejaVuSans-33" d="M 2597 2516 
Q 3050 2419 3304 2112 
Q 3559 1806 3559 1356 
Q 3559 666 3084 287 
Q 2609 -91 1734 -91 
Q 1441 -91 1130 -33 
Q 819 25 488 141 
L 488 750 
Q 750 597 1062 519 
Q 1375 441 1716 441 
Q 2309 441 2620 675 
Q 2931 909 2931 1356 
Q 2931 1769 2642 2001 
Q 2353 2234 1838 2234 
L 1294 2234 
L 1294 2753 
L 1863 2753 
Q 2328 2753 2575 2939 
Q 2822 3125 2822 3475 
Q 2822 3834 2567 4026 
Q 2313 4219 1838 4219 
Q 1578 4219 1281 4162 
Q 984 4106 628 3988 
L 628 4550 
Q 988 4650 1302 4700 
Q 1616 4750 1894 4750 
Q 2613 4750 3031 4423 
Q 3450 4097 3450 3541 
Q 3450 3153 3228 2886 
Q 3006 2619 2597 2516 
z
" transform="scale(0.015625)"/>
       </defs>
       <use xlink:href="#DejaVuSans-33"/>
      </g>
     </g>
    </g>
    <g id="xtick_5">
     <g id="line2d_5">
      <g>
       <use xlink:href="#ma4ee308780" x="232.636286" y="307.872" style="stroke: #000000; stroke-width: 0.8"/>
      </g>
     </g>
     <g id="text_5">
      <!-- 4 -->
      <g transform="translate(229.455036 322.470438) scale(0.1 -0.1)">
       <defs>
        <path id="DejaVuSans-34" d="M 2419 4116 
L 825 1625 
L 2419 1625 
L 2419 4116 
z
M 2253 4666 
L 3047 4666 
L 3047 1625 
L 3713 1625 
L 3713 1100 
L 3047 1100 
L 3047 0 
L 2419 0 
L 2419 1100 
L 313 1100 
L 313 1709 
L 2253 4666 
z
" transform="scale(0.015625)"/>
       </defs>
       <use xlink:href="#DejaVuSans-34"/>
      </g>
     </g>
    </g>
    <g id="xtick_6">
     <g id="line2d_6">
      <g>
       <use xlink:href="#ma4ee308780" x="273.422033" y="307.872" style="stroke: #000000; stroke-width: 0.8"/>
      </g>
     </g>
     <g id="text_6">
      <!-- 5 -->
      <g transform="translate(270.240783 322.470438) scale(0.1 -0.1)">
       <defs>
        <path id="DejaVuSans-35" d="M 691 4666 
L 3169 4666 
L 3169 4134 
L 1269 4134 
L 1269 2991 
Q 1406 3038 1543 3061 
Q 1681 3084 1819 3084 
Q 2600 3084 3056 2656 
Q 3513 2228 3513 1497 
Q 3513 744 3044 326 
Q 2575 -91 1722 -91 
Q 1428 -91 1123 -41 
Q 819 9 494 109 
L 494 744 
Q 775 591 1075 516 
Q 1375 441 1709 441 
Q 2250 441 2565 725 
Q 2881 1009 2881 1497 
Q 2881 1984 2565 2268 
Q 2250 2553 1709 2553 
Q 1456 2553 1204 2497 
Q 953 2441 691 2322 
L 691 4666 
z
" transform="scale(0.015625)"/>
       </defs>
       <use xlink:href="#DejaVuSans-35"/>
      </g>
     </g>
    </g>
    <g id="xtick_7">
     <g id="line2d_7">
      <g>
       <use xlink:href="#ma4ee308780" x="314.20778" y="307.872" style="stroke: #000000; stroke-width: 0.8"/>
      </g>
     </g>
     <g id="text_7">
      <!-- 6 -->
      <g transform="translate(311.02653 322.470438) scale(0.1 -0.1)">
       <defs>
        <path id="DejaVuSans-36" d="M 2113 2584 
Q 1688 2584 1439 2293 
Q 1191 2003 1191 1497 
Q 1191 994 1439 701 
Q 1688 409 2113 409 
Q 2538 409 2786 701 
Q 3034 994 3034 1497 
Q 3034 2003 2786 2293 
Q 2538 2584 2113 2584 
z
M 3366 4563 
L 3366 3988 
Q 3128 4100 2886 4159 
Q 2644 4219 2406 4219 
Q 1781 4219 1451 3797 
Q 1122 3375 1075 2522 
Q 1259 2794 1537 2939 
Q 1816 3084 2150 3084 
Q 2853 3084 3261 2657 
Q 3669 2231 3669 1497 
Q 3669 778 3244 343 
Q 2819 -91 2113 -91 
Q 1303 -91 875 529 
Q 447 1150 447 2328 
Q 447 3434 972 4092 
Q 1497 4750 2381 4750 
Q 2619 4750 2861 4703 
Q 3103 4656 3366 4563 
z
" transform="scale(0.015625)"/>
       </defs>
       <use xlink:href="#DejaVuSans-36"/>
      </g>
     </g>
    </g>
    <g id="xtick_8">
     <g id="line2d_8">
      <g>
       <use xlink:href="#ma4ee308780" x="354.993527" y="307.872" style="stroke: #000000; stroke-width: 0.8"/>
      </g>
     </g>
     <g id="text_8">
      <!-- 7 -->
      <g transform="translate(351.812277 322.470438) scale(0.1 -0.1)">
       <defs>
        <path id="DejaVuSans-37" d="M 525 4666 
L 3525 4666 
L 3525 4397 
L 1831 0 
L 1172 0 
L 2766 4134 
L 525 4134 
L 525 4666 
z
" transform="scale(0.015625)"/>
       </defs>
       <use xlink:href="#DejaVuSans-37"/>
      </g>
     </g>
    </g>
    <g id="xtick_9">
     <g id="line2d_9">
      <g>
       <use xlink:href="#ma4ee308780" x="395.779274" y="307.872" style="stroke: #000000; stroke-width: 0.8"/>
      </g>
     </g>
     <g id="text_9">
      <!-- 8 -->
      <g transform="translate(392.598024 322.470438) scale(0.1 -0.1)">
       <defs>
        <path id="DejaVuSans-38" d="M 2034 2216 
Q 1584 2216 1326 1975 
Q 1069 1734 1069 1313 
Q 1069 891 1326 650 
Q 1584 409 2034 409 
Q 2484 409 2743 651 
Q 3003 894 3003 1313 
Q 3003 1734 2745 1975 
Q 2488 2216 2034 2216 
z
M 1403 2484 
Q 997 2584 770 2862 
Q 544 3141 544 3541 
Q 544 4100 942 4425 
Q 1341 4750 2034 4750 
Q 2731 4750 3128 4425 
Q 3525 4100 3525 3541 
Q 3525 3141 3298 2862 
Q 3072 2584 2669 2484 
Q 3125 2378 3379 2068 
Q 3634 1759 3634 1313 
Q 3634 634 3220 271 
Q 2806 -91 2034 -91 
Q 1263 -91 848 271 
Q 434 634 434 1313 
Q 434 1759 690 2068 
Q 947 2378 1403 2484 
z
M 1172 3481 
Q 1172 3119 1398 2916 
Q 1625 2713 2034 2713 
Q 2441 2713 2670 2916 
Q 2900 3119 2900 3481 
Q 2900 3844 2670 4047 
Q 2441 4250 2034 4250 
Q 1625 4250 1398 4047 
Q 1172 3844 1172 3481 
z
" transform="scale(0.015625)"/>
       </defs>
       <use xlink:href="#DejaVuSans-38"/>
      </g>
     </g>
    </g>
    <g id="text_10">
     <!-- Time [μs] -->
     <g transform="translate(208.799844 336.148562) scale(0.1 -0.1)">
      <defs>
       <path id="DejaVuSans-54" d="M -19 4666 
L 3928 4666 
L 3928 4134 
L 2272 4134 
L 2272 0 
L 1638 0 
L 1638 4134 
L -19 4134 
L -19 4666 
z
" transform="scale(0.015625)"/>
       <path id="DejaVuSans-69" d="M 603 3500 
L 1178 3500 
L 1178 0 
L 603 0 
L 603 3500 
z
M 603 4863 
L 1178 4863 
L 1178 4134 
L 603 4134 
L 603 4863 
z
" transform="scale(0.015625)"/>
       <path id="DejaVuSans-6d" d="M 3328 2828 
Q 3544 3216 3844 3400 
Q 4144 3584 4550 3584 
Q 5097 3584 5394 3201 
Q 5691 2819 5691 2113 
L 5691 0 
L 5113 0 
L 5113 2094 
Q 5113 2597 4934 2840 
Q 4756 3084 4391 3084 
Q 3944 3084 3684 2787 
Q 3425 2491 3425 1978 
L 3425 0 
L 2847 0 
L 2847 2094 
Q 2847 2600 2669 2842 
Q 2491 3084 2119 3084 
Q 1678 3084 1418 2786 
Q 1159 2488 1159 1978 
L 1159 0 
L 581 0 
L 581 3500 
L 1159 3500 
L 1159 2956 
Q 1356 3278 1631 3431 
Q 1906 3584 2284 3584 
Q 2666 3584 2933 3390 
Q 3200 3197 3328 2828 
z
" transform="scale(0.015625)"/>
       <path id="DejaVuSans-65" d="M 3597 1894 
L 3597 1613 
L 953 1613 
Q 991 1019 1311 708 
Q 1631 397 2203 397 
Q 2534 397 2845 478 
Q 3156 559 3463 722 
L 3463 178 
Q 3153 47 2828 -22 
Q 2503 -91 2169 -91 
Q 1331 -91 842 396 
Q 353 884 353 1716 
Q 353 2575 817 3079 
Q 1281 3584 2069 3584 
Q 2775 3584 3186 3129 
Q 3597 2675 3597 1894 
z
M 3022 2063 
Q 3016 2534 2758 2815 
Q 2500 3097 2075 3097 
Q 1594 3097 1305 2825 
Q 1016 2553 972 2059 
L 3022 2063 
z
" transform="scale(0.015625)"/>
       <path id="DejaVuSans-20" transform="scale(0.015625)"/>
       <path id="DejaVuSans-5b" d="M 550 4863 
L 1875 4863 
L 1875 4416 
L 1125 4416 
L 1125 -397 
L 1875 -397 
L 1875 -844 
L 550 -844 
L 550 4863 
z
" transform="scale(0.015625)"/>
       <path id="DejaVuSans-3bc" d="M 544 -1331 
L 544 3500 
L 1119 3500 
L 1119 1325 
Q 1119 872 1334 640 
Q 1550 409 1972 409 
Q 2434 409 2667 671 
Q 2900 934 2900 1459 
L 2900 3500 
L 3475 3500 
L 3475 806 
Q 3475 619 3529 530 
Q 3584 441 3700 441 
Q 3728 441 3778 458 
Q 3828 475 3916 513 
L 3916 50 
Q 3788 -22 3673 -56 
Q 3559 -91 3450 -91 
Q 3234 -91 3106 31 
Q 2978 153 2931 403 
Q 2775 156 2548 32 
Q 2322 -91 2016 -91 
Q 1697 -91 1473 31 
Q 1250 153 1119 397 
L 1119 -1331 
L 544 -1331 
z
" transform="scale(0.015625)"/>
       <path id="DejaVuSans-73" d="M 2834 3397 
L 2834 2853 
Q 2591 2978 2328 3040 
Q 2066 3103 1784 3103 
Q 1356 3103 1142 2972 
Q 928 2841 928 2578 
Q 928 2378 1081 2264 
Q 1234 2150 1697 2047 
L 1894 2003 
Q 2506 1872 2764 1633 
Q 3022 1394 3022 966 
Q 3022 478 2636 193 
Q 2250 -91 1575 -91 
Q 1294 -91 989 -36 
Q 684 19 347 128 
L 347 722 
Q 666 556 975 473 
Q 1284 391 1588 391 
Q 1994 391 2212 530 
Q 2431 669 2431 922 
Q 2431 1156 2273 1281 
Q 2116 1406 1581 1522 
L 1381 1569 
Q 847 1681 609 1914 
Q 372 2147 372 2553 
Q 372 3047 722 3315 
Q 1072 3584 1716 3584 
Q 2034 3584 2315 3537 
Q 2597 3491 2834 3397 
z
" transform="scale(0.015625)"/>
       <path id="DejaVuSans-5d" d="M 1947 4863 
L 1947 -844 
L 622 -844 
L 622 -397 
L 1369 -397 
L 1369 4416 
L 622 4416 
L 622 4863 
L 1947 4863 
z
" transform="scale(0.015625)"/>
      </defs>
      <use xlink:href="#DejaVuSans-54"/>
      <use xlink:href="#DejaVuSans-69" x="57.958984"/>
      <use xlink:href="#DejaVuSans-6d" x="85.742188"/>
      <use xlink:href="#DejaVuSans-65" x="183.154297"/>
      <use xlink:href="#DejaVuSans-20" x="244.677734"/>
      <use xlink:href="#DejaVuSans-5b" x="276.464844"/>
      <use xlink:href="#DejaVuSans-3bc" x="315.478516"/>
      <use xlink:href="#DejaVuSans-73" x="379.101562"/>
      <use xlink:href="#DejaVuSans-5d" x="431.201172"/>
     </g>
    </g>
   </g>
   <g id="matplotlib.axis_2">
    <g id="ytick_1">
     <g id="line2d_10">
      <defs>
       <path id="mb964029735" d="M 0 0 
L -3.5 0 
" style="stroke: #000000; stroke-width: 0.8"/>
      </defs>
      <g>
       <use xlink:href="#mb964029735" x="53.75" y="253.614434" style="stroke: #000000; stroke-width: 0.8"/>
      </g>
     </g>
     <g id="text_11">
      <!-- 900 -->
      <g transform="translate(27.6625 257.413652) scale(0.1 -0.1)">
       <defs>
        <path id="DejaVuSans-39" d="M 703 97 
L 703 672 
Q 941 559 1184 500 
Q 1428 441 1663 441 
Q 2288 441 2617 861 
Q 2947 1281 2994 2138 
Q 2813 1869 2534 1725 
Q 2256 1581 1919 1581 
Q 1219 1581 811 2004 
Q 403 2428 403 3163 
Q 403 3881 828 4315 
Q 1253 4750 1959 4750 
Q 2769 4750 3195 4129 
Q 3622 3509 3622 2328 
Q 3622 1225 3098 567 
Q 2575 -91 1691 -91 
Q 1453 -91 1209 -44 
Q 966 3 703 97 
z
M 1959 2075 
Q 2384 2075 2632 2365 
Q 2881 2656 2881 3163 
Q 2881 3666 2632 3958 
Q 2384 4250 1959 4250 
Q 1534 4250 1286 3958 
Q 1038 3666 1038 3163 
Q 1038 2656 1286 2365 
Q 1534 2075 1959 2075 
z
" transform="scale(0.015625)"/>
       </defs>
       <use xlink:href="#DejaVuSans-39"/>
       <use xlink:href="#DejaVuSans-30" x="63.623047"/>
       <use xlink:href="#DejaVuSans-30" x="127.246094"/>
      </g>
     </g>
    </g>
    <g id="ytick_2">
     <g id="line2d_11">
      <g>
       <use xlink:href="#mb964029735" x="53.75" y="196.939903" style="stroke: #000000; stroke-width: 0.8"/>
      </g>
     </g>
     <g id="text_12">
      <!-- 1000 -->
      <g transform="translate(21.3 200.739122) scale(0.1 -0.1)">
       <use xlink:href="#DejaVuSans-31"/>
       <use xlink:href="#DejaVuSans-30" x="63.623047"/>
       <use xlink:href="#DejaVuSans-30" x="127.246094"/>
       <use xlink:href="#DejaVuSans-30" x="190.869141"/>
      </g>
     </g>
    </g>
    <g id="ytick_3">
     <g id="line2d_12">
      <g>
       <use xlink:href="#mb964029735" x="53.75" y="140.265372" style="stroke: #000000; stroke-width: 0.8"/>
      </g>
     </g>
     <g id="text_13">
      <!-- 1100 -->
      <g transform="translate(21.3 144.064591) scale(0.1 -0.1)">
       <use xlink:href="#DejaVuSans-31"/>
       <use xlink:href="#DejaVuSans-31" x="63.623047"/>
       <use xlink:href="#DejaVuSans-30" x="127.246094"/>
       <use xlink:href="#DejaVuSans-30" x="190.869141"/>
      </g>
     </g>
    </g>
    <g id="ytick_4">
     <g id="line2d_13">
      <g>
       <use xlink:href="#mb964029735" x="53.75" y="83.590841" style="stroke: #000000; stroke-width: 0.8"/>
      </g>
     </g>
     <g id="text_14">
      <!-- 1200 -->
      <g transform="translate(21.3 87.39006) scale(0.1 -0.1)">
       <use xlink:href="#DejaVuSans-31"/>
       <use xlink:href="#DejaVuSans-32" x="63.623047"/>
       <use xlink:href="#DejaVuSans-30" x="127.246094"/>
       <use xlink:href="#DejaVuSans-30" x="190.869141"/>
      </g>
     </g>
    </g>
    <g id="text_15">
     <!-- Magnitude |$S_{21}|$ [μV] -->
     <g transform="translate(14.9 226.166) rotate(-90) scale(0.1 -0.1)">
      <defs>
       <path id="DejaVuSans-4d" d="M 628 4666 
L 1569 4666 
L 2759 1491 
L 3956 4666 
L 4897 4666 
L 4897 0 
L 4281 0 
L 4281 4097 
L 3078 897 
L 2444 897 
L 1241 4097 
L 1241 0 
L 628 0 
L 628 4666 
z
" transform="scale(0.015625)"/>
       <path id="DejaVuSans-61" d="M 2194 1759 
Q 1497 1759 1228 1600 
Q 959 1441 959 1056 
Q 959 750 1161 570 
Q 1363 391 1709 391 
Q 2188 391 2477 730 
Q 2766 1069 2766 1631 
L 2766 1759 
L 2194 1759 
z
M 3341 1997 
L 3341 0 
L 2766 0 
L 2766 531 
Q 2569 213 2275 61 
Q 1981 -91 1556 -91 
Q 1019 -91 701 211 
Q 384 513 384 1019 
Q 384 1609 779 1909 
Q 1175 2209 1959 2209 
L 2766 2209 
L 2766 2266 
Q 2766 2663 2505 2880 
Q 2244 3097 1772 3097 
Q 1472 3097 1187 3025 
Q 903 2953 641 2809 
L 641 3341 
Q 956 3463 1253 3523 
Q 1550 3584 1831 3584 
Q 2591 3584 2966 3190 
Q 3341 2797 3341 1997 
z
" transform="scale(0.015625)"/>
       <path id="DejaVuSans-67" d="M 2906 1791 
Q 2906 2416 2648 2759 
Q 2391 3103 1925 3103 
Q 1463 3103 1205 2759 
Q 947 2416 947 1791 
Q 947 1169 1205 825 
Q 1463 481 1925 481 
Q 2391 481 2648 825 
Q 2906 1169 2906 1791 
z
M 3481 434 
Q 3481 -459 3084 -895 
Q 2688 -1331 1869 -1331 
Q 1566 -1331 1297 -1286 
Q 1028 -1241 775 -1147 
L 775 -588 
Q 1028 -725 1275 -790 
Q 1522 -856 1778 -856 
Q 2344 -856 2625 -561 
Q 2906 -266 2906 331 
L 2906 616 
Q 2728 306 2450 153 
Q 2172 0 1784 0 
Q 1141 0 747 490 
Q 353 981 353 1791 
Q 353 2603 747 3093 
Q 1141 3584 1784 3584 
Q 2172 3584 2450 3431 
Q 2728 3278 2906 2969 
L 2906 3500 
L 3481 3500 
L 3481 434 
z
" transform="scale(0.015625)"/>
       <path id="DejaVuSans-6e" d="M 3513 2113 
L 3513 0 
L 2938 0 
L 2938 2094 
Q 2938 2591 2744 2837 
Q 2550 3084 2163 3084 
Q 1697 3084 1428 2787 
Q 1159 2491 1159 1978 
L 1159 0 
L 581 0 
L 581 3500 
L 1159 3500 
L 1159 2956 
Q 1366 3272 1645 3428 
Q 1925 3584 2291 3584 
Q 2894 3584 3203 3211 
Q 3513 2838 3513 2113 
z
" transform="scale(0.015625)"/>
       <path id="DejaVuSans-74" d="M 1172 4494 
L 1172 3500 
L 2356 3500 
L 2356 3053 
L 1172 3053 
L 1172 1153 
Q 1172 725 1289 603 
Q 1406 481 1766 481 
L 2356 481 
L 2356 0 
L 1766 0 
Q 1100 0 847 248 
Q 594 497 594 1153 
L 594 3053 
L 172 3053 
L 172 3500 
L 594 3500 
L 594 4494 
L 1172 4494 
z
" transform="scale(0.015625)"/>
       <path id="DejaVuSans-75" d="M 544 1381 
L 544 3500 
L 1119 3500 
L 1119 1403 
Q 1119 906 1312 657 
Q 1506 409 1894 409 
Q 2359 409 2629 706 
Q 2900 1003 2900 1516 
L 2900 3500 
L 3475 3500 
L 3475 0 
L 2900 0 
L 2900 538 
Q 2691 219 2414 64 
Q 2138 -91 1772 -91 
Q 1169 -91 856 284 
Q 544 659 544 1381 
z
M 1991 3584 
L 1991 3584 
z
" transform="scale(0.015625)"/>
       <path id="DejaVuSans-64" d="M 2906 2969 
L 2906 4863 
L 3481 4863 
L 3481 0 
L 2906 0 
L 2906 525 
Q 2725 213 2448 61 
Q 2172 -91 1784 -91 
Q 1150 -91 751 415 
Q 353 922 353 1747 
Q 353 2572 751 3078 
Q 1150 3584 1784 3584 
Q 2172 3584 2448 3432 
Q 2725 3281 2906 2969 
z
M 947 1747 
Q 947 1113 1208 752 
Q 1469 391 1925 391 
Q 2381 391 2643 752 
Q 2906 1113 2906 1747 
Q 2906 2381 2643 2742 
Q 2381 3103 1925 3103 
Q 1469 3103 1208 2742 
Q 947 2381 947 1747 
z
" transform="scale(0.015625)"/>
       <path id="DejaVuSans-7c" d="M 1344 4891 
L 1344 -1509 
L 813 -1509 
L 813 4891 
L 1344 4891 
z
" transform="scale(0.015625)"/>
       <path id="DejaVuSans-Oblique-53" d="M 3859 4513 
L 3738 3897 
Q 3422 4066 3111 4152 
Q 2800 4238 2509 4238 
Q 1944 4238 1609 3991 
Q 1275 3744 1275 3334 
Q 1275 3109 1398 2989 
Q 1522 2869 2034 2731 
L 2413 2638 
Q 3053 2472 3303 2217 
Q 3553 1963 3553 1503 
Q 3553 797 2998 353 
Q 2444 -91 1538 -91 
Q 1166 -91 791 -17 
Q 416 56 38 206 
L 166 856 
Q 513 641 861 531 
Q 1209 422 1556 422 
Q 2147 422 2503 684 
Q 2859 947 2859 1369 
Q 2859 1650 2717 1795 
Q 2575 1941 2106 2059 
L 1728 2156 
Q 1081 2325 845 2545 
Q 609 2766 609 3163 
Q 609 3859 1145 4304 
Q 1681 4750 2541 4750 
Q 2875 4750 3203 4690 
Q 3531 4631 3859 4513 
z
" transform="scale(0.015625)"/>
       <path id="DejaVuSans-56" d="M 1831 0 
L 50 4666 
L 709 4666 
L 2188 738 
L 3669 4666 
L 4325 4666 
L 2547 0 
L 1831 0 
z
" transform="scale(0.015625)"/>
      </defs>
      <use xlink:href="#DejaVuSans-4d" transform="translate(0 0.578125)"/>
      <use xlink:href="#DejaVuSans-61" transform="translate(86.279297 0.578125)"/>
      <use xlink:href="#DejaVuSans-67" transform="translate(147.558594 0.578125)"/>
      <use xlink:href="#DejaVuSans-6e" transform="translate(211.035156 0.578125)"/>
      <use xlink:href="#DejaVuSans-69" transform="translate(274.414062 0.578125)"/>
      <use xlink:href="#DejaVuSans-74" transform="translate(302.197266 0.578125)"/>
      <use xlink:href="#DejaVuSans-75" transform="translate(341.40625 0.578125)"/>
      <use xlink:href="#DejaVuSans-64" transform="translate(404.785156 0.578125)"/>
      <use xlink:href="#DejaVuSans-65" transform="translate(468.261719 0.578125)"/>
      <use xlink:href="#DejaVuSans-20" transform="translate(529.785156 0.578125)"/>
      <use xlink:href="#DejaVuSans-7c" transform="translate(561.572266 0.578125)"/>
      <use xlink:href="#DejaVuSans-Oblique-53" transform="translate(595.263672 0.578125)"/>
      <use xlink:href="#DejaVuSans-32" transform="translate(658.740234 -15.828125) scale(0.7)"/>
      <use xlink:href="#DejaVuSans-31" transform="translate(703.276367 -15.828125) scale(0.7)"/>
      <use xlink:href="#DejaVuSans-7c" transform="translate(750.546875 0.578125)"/>
      <use xlink:href="#DejaVuSans-20" transform="translate(784.238281 0.578125)"/>
      <use xlink:href="#DejaVuSans-5b" transform="translate(816.025391 0.578125)"/>
      <use xlink:href="#DejaVuSans-3bc" transform="translate(855.039062 0.578125)"/>
      <use xlink:href="#DejaVuSans-56" transform="translate(918.662109 0.578125)"/>
      <use xlink:href="#DejaVuSans-5d" transform="translate(987.070312 0.578125)"/>
     </g>
    </g>
   </g>
   <g id="line2d_14">
    <defs>
     <path id="m29d65393f8" d="M 0 1.5 
C 0.397805 1.5 0.77937 1.341951 1.06066 1.06066 
C 1.341951 0.77937 1.5 0.397805 1.5 0 
C 1.5 -0.397805 1.341951 -0.77937 1.06066 -1.06066 
C 0.77937 -1.341951 0.397805 -1.5 0 -1.5 
C -0.397805 -1.5 -0.77937 -1.341951 -1.06066 -1.06066 
C -1.341951 -0.77937 -1.5 -0.397805 -1.5 0 
C -1.5 0.397805 -1.341951 0.77937 -1.06066 1.06066 
C -0.77937 1.341951 -0.397805 1.5 0 1.5 
z
" style="stroke: #1f77b4"/>
    </defs>
    <g clip-path="url(#p3505e9e238)">
     <use xlink:href="#m29d65393f8" x="69.982727" y="199.698139" style="fill: #1f77b4; stroke: #1f77b4"/>
     <use xlink:href="#m29d65393f8" x="71.614157" y="205.236788" style="fill: #1f77b4; stroke: #1f77b4"/>
     <use xlink:href="#m29d65393f8" x="73.245587" y="94.245843" style="fill: #1f77b4; stroke: #1f77b4"/>
     <use xlink:href="#m29d65393f8" x="74.877017" y="258.49628" style="fill: #1f77b4; stroke: #1f77b4"/>
     <use xlink:href="#m29d65393f8" x="76.508447" y="119.216228" style="fill: #1f77b4; stroke: #1f77b4"/>
     <use xlink:href="#m29d65393f8" x="78.139877" y="295.776" style="fill: #1f77b4; stroke: #1f77b4"/>
     <use xlink:href="#m29d65393f8" x="79.771307" y="53.856" style="fill: #1f77b4; stroke: #1f77b4"/>
     <use xlink:href="#m29d65393f8" x="81.402736" y="183.020268" style="fill: #1f77b4; stroke: #1f77b4"/>
     <use xlink:href="#m29d65393f8" x="83.034166" y="172.636047" style="fill: #1f77b4; stroke: #1f77b4"/>
     <use xlink:href="#m29d65393f8" x="84.665596" y="275.890971" style="fill: #1f77b4; stroke: #1f77b4"/>
     <use xlink:href="#m29d65393f8" x="86.297026" y="204.993119" style="fill: #1f77b4; stroke: #1f77b4"/>
     <use xlink:href="#m29d65393f8" x="87.928456" y="164.17977" style="fill: #1f77b4; stroke: #1f77b4"/>
     <use xlink:href="#m29d65393f8" x="89.559886" y="184.977981" style="fill: #1f77b4; stroke: #1f77b4"/>
     <use xlink:href="#m29d65393f8" x="91.191316" y="138.595595" style="fill: #1f77b4; stroke: #1f77b4"/>
     <use xlink:href="#m29d65393f8" x="92.822746" y="253.843666" style="fill: #1f77b4; stroke: #1f77b4"/>
     <use xlink:href="#m29d65393f8" x="94.454175" y="117.612535" style="fill: #1f77b4; stroke: #1f77b4"/>
     <use xlink:href="#m29d65393f8" x="96.085605" y="254.671703" style="fill: #1f77b4; stroke: #1f77b4"/>
     <use xlink:href="#m29d65393f8" x="97.717035" y="68.000331" style="fill: #1f77b4; stroke: #1f77b4"/>
     <use xlink:href="#m29d65393f8" x="99.348465" y="194.749468" style="fill: #1f77b4; stroke: #1f77b4"/>
     <use xlink:href="#m29d65393f8" x="100.979895" y="82.836709" style="fill: #1f77b4; stroke: #1f77b4"/>
     <use xlink:href="#m29d65393f8" x="102.611325" y="201.80423" style="fill: #1f77b4; stroke: #1f77b4"/>
     <use xlink:href="#m29d65393f8" x="104.242755" y="153.978736" style="fill: #1f77b4; stroke: #1f77b4"/>
     <use xlink:href="#m29d65393f8" x="105.874185" y="157.355258" style="fill: #1f77b4; stroke: #1f77b4"/>
     <use xlink:href="#m29d65393f8" x="107.505614" y="137.652761" style="fill: #1f77b4; stroke: #1f77b4"/>
     <use xlink:href="#m29d65393f8" x="109.137044" y="146.542884" style="fill: #1f77b4; stroke: #1f77b4"/>
     <use xlink:href="#m29d65393f8" x="110.768474" y="228.425124" style="fill: #1f77b4; stroke: #1f77b4"/>
     <use xlink:href="#m29d65393f8" x="112.399904" y="118.179817" style="fill: #1f77b4; stroke: #1f77b4"/>
     <use xlink:href="#m29d65393f8" x="114.031334" y="271.80049" style="fill: #1f77b4; stroke: #1f77b4"/>
     <use xlink:href="#m29d65393f8" x="115.662764" y="94.065564" style="fill: #1f77b4; stroke: #1f77b4"/>
     <use xlink:href="#m29d65393f8" x="117.294194" y="196.430665" style="fill: #1f77b4; stroke: #1f77b4"/>
     <use xlink:href="#m29d65393f8" x="118.925624" y="72.121384" style="fill: #1f77b4; stroke: #1f77b4"/>
     <use xlink:href="#m29d65393f8" x="120.557053" y="220.279864" style="fill: #1f77b4; stroke: #1f77b4"/>
     <use xlink:href="#m29d65393f8" x="122.188483" y="113.246951" style="fill: #1f77b4; stroke: #1f77b4"/>
     <use xlink:href="#m29d65393f8" x="123.819913" y="185.997332" style="fill: #1f77b4; stroke: #1f77b4"/>
     <use xlink:href="#m29d65393f8" x="125.451343" y="119.456778" style="fill: #1f77b4; stroke: #1f77b4"/>
     <use xlink:href="#m29d65393f8" x="127.082773" y="182.03905" style="fill: #1f77b4; stroke: #1f77b4"/>
     <use xlink:href="#m29d65393f8" x="128.714203" y="190.204652" style="fill: #1f77b4; stroke: #1f77b4"/>
     <use xlink:href="#m29d65393f8" x="130.345633" y="166.56049" style="fill: #1f77b4; stroke: #1f77b4"/>
     <use xlink:href="#m29d65393f8" x="131.977063" y="240.779032" style="fill: #1f77b4; stroke: #1f77b4"/>
     <use xlink:href="#m29d65393f8" x="133.608492" y="71.951098" style="fill: #1f77b4; stroke: #1f77b4"/>
     <use xlink:href="#m29d65393f8" x="135.239922" y="185.483902" style="fill: #1f77b4; stroke: #1f77b4"/>
     <use xlink:href="#m29d65393f8" x="136.871352" y="118.30674" style="fill: #1f77b4; stroke: #1f77b4"/>
     <use xlink:href="#m29d65393f8" x="138.502782" y="235.442243" style="fill: #1f77b4; stroke: #1f77b4"/>
     <use xlink:href="#m29d65393f8" x="140.134212" y="151.980818" style="fill: #1f77b4; stroke: #1f77b4"/>
     <use xlink:href="#m29d65393f8" x="141.765642" y="236.16436" style="fill: #1f77b4; stroke: #1f77b4"/>
     <use xlink:href="#m29d65393f8" x="143.397072" y="150.193098" style="fill: #1f77b4; stroke: #1f77b4"/>
     <use xlink:href="#m29d65393f8" x="145.028502" y="177.123284" style="fill: #1f77b4; stroke: #1f77b4"/>
     <use xlink:href="#m29d65393f8" x="146.659931" y="181.485942" style="fill: #1f77b4; stroke: #1f77b4"/>
     <use xlink:href="#m29d65393f8" x="148.291361" y="200.139138" style="fill: #1f77b4; stroke: #1f77b4"/>
     <use xlink:href="#m29d65393f8" x="149.922791" y="204.974818" style="fill: #1f77b4; stroke: #1f77b4"/>
     <use xlink:href="#m29d65393f8" x="151.554221" y="132.20592" style="fill: #1f77b4; stroke: #1f77b4"/>
     <use xlink:href="#m29d65393f8" x="153.185651" y="208.440901" style="fill: #1f77b4; stroke: #1f77b4"/>
     <use xlink:href="#m29d65393f8" x="154.817081" y="119.617826" style="fill: #1f77b4; stroke: #1f77b4"/>
     <use xlink:href="#m29d65393f8" x="156.448511" y="285.39546" style="fill: #1f77b4; stroke: #1f77b4"/>
     <use xlink:href="#m29d65393f8" x="158.079941" y="116.504126" style="fill: #1f77b4; stroke: #1f77b4"/>
     <use xlink:href="#m29d65393f8" x="159.71137" y="211.536772" style="fill: #1f77b4; stroke: #1f77b4"/>
     <use xlink:href="#m29d65393f8" x="161.3428" y="65.941588" style="fill: #1f77b4; stroke: #1f77b4"/>
     <use xlink:href="#m29d65393f8" x="162.97423" y="202.755962" style="fill: #1f77b4; stroke: #1f77b4"/>
     <use xlink:href="#m29d65393f8" x="164.60566" y="168.306111" style="fill: #1f77b4; stroke: #1f77b4"/>
     <use xlink:href="#m29d65393f8" x="166.23709" y="201.514863" style="fill: #1f77b4; stroke: #1f77b4"/>
     <use xlink:href="#m29d65393f8" x="167.86852" y="177.816357" style="fill: #1f77b4; stroke: #1f77b4"/>
     <use xlink:href="#m29d65393f8" x="169.49995" y="127.783912" style="fill: #1f77b4; stroke: #1f77b4"/>
     <use xlink:href="#m29d65393f8" x="171.13138" y="175.479164" style="fill: #1f77b4; stroke: #1f77b4"/>
     <use xlink:href="#m29d65393f8" x="172.76281" y="116.804078" style="fill: #1f77b4; stroke: #1f77b4"/>
     <use xlink:href="#m29d65393f8" x="174.394239" y="280.678153" style="fill: #1f77b4; stroke: #1f77b4"/>
     <use xlink:href="#m29d65393f8" x="176.025669" y="122.819622" style="fill: #1f77b4; stroke: #1f77b4"/>
     <use xlink:href="#m29d65393f8" x="177.657099" y="247.776064" style="fill: #1f77b4; stroke: #1f77b4"/>
     <use xlink:href="#m29d65393f8" x="179.288529" y="111.628875" style="fill: #1f77b4; stroke: #1f77b4"/>
     <use xlink:href="#m29d65393f8" x="180.919959" y="201.74213" style="fill: #1f77b4; stroke: #1f77b4"/>
     <use xlink:href="#m29d65393f8" x="182.551389" y="148.505185" style="fill: #1f77b4; stroke: #1f77b4"/>
     <use xlink:href="#m29d65393f8" x="184.182819" y="187.865934" style="fill: #1f77b4; stroke: #1f77b4"/>
     <use xlink:href="#m29d65393f8" x="185.814249" y="170.585819" style="fill: #1f77b4; stroke: #1f77b4"/>
     <use xlink:href="#m29d65393f8" x="187.445678" y="172.527982" style="fill: #1f77b4; stroke: #1f77b4"/>
     <use xlink:href="#m29d65393f8" x="189.077108" y="154.389269" style="fill: #1f77b4; stroke: #1f77b4"/>
     <use xlink:href="#m29d65393f8" x="190.708538" y="135.810507" style="fill: #1f77b4; stroke: #1f77b4"/>
     <use xlink:href="#m29d65393f8" x="192.339968" y="229.152107" style="fill: #1f77b4; stroke: #1f77b4"/>
     <use xlink:href="#m29d65393f8" x="193.971398" y="180.619782" style="fill: #1f77b4; stroke: #1f77b4"/>
     <use xlink:href="#m29d65393f8" x="195.602828" y="235.004566" style="fill: #1f77b4; stroke: #1f77b4"/>
     <use xlink:href="#m29d65393f8" x="197.234258" y="95.175672" style="fill: #1f77b4; stroke: #1f77b4"/>
     <use xlink:href="#m29d65393f8" x="198.865688" y="187.863738" style="fill: #1f77b4; stroke: #1f77b4"/>
     <use xlink:href="#m29d65393f8" x="200.497117" y="99.89648" style="fill: #1f77b4; stroke: #1f77b4"/>
     <use xlink:href="#m29d65393f8" x="202.128547" y="241.470843" style="fill: #1f77b4; stroke: #1f77b4"/>
     <use xlink:href="#m29d65393f8" x="203.759977" y="160.074357" style="fill: #1f77b4; stroke: #1f77b4"/>
     <use xlink:href="#m29d65393f8" x="205.391407" y="144.802664" style="fill: #1f77b4; stroke: #1f77b4"/>
     <use xlink:href="#m29d65393f8" x="207.022837" y="146.471175" style="fill: #1f77b4; stroke: #1f77b4"/>
     <use xlink:href="#m29d65393f8" x="208.654267" y="168.51411" style="fill: #1f77b4; stroke: #1f77b4"/>
     <use xlink:href="#m29d65393f8" x="210.285697" y="223.407953" style="fill: #1f77b4; stroke: #1f77b4"/>
     <use xlink:href="#m29d65393f8" x="211.917127" y="183.14712" style="fill: #1f77b4; stroke: #1f77b4"/>
     <use xlink:href="#m29d65393f8" x="213.548556" y="238.70886" style="fill: #1f77b4; stroke: #1f77b4"/>
     <use xlink:href="#m29d65393f8" x="215.179986" y="91.371892" style="fill: #1f77b4; stroke: #1f77b4"/>
     <use xlink:href="#m29d65393f8" x="216.811416" y="206.492675" style="fill: #1f77b4; stroke: #1f77b4"/>
     <use xlink:href="#m29d65393f8" x="218.442846" y="131.448839" style="fill: #1f77b4; stroke: #1f77b4"/>
     <use xlink:href="#m29d65393f8" x="220.074276" y="267.655896" style="fill: #1f77b4; stroke: #1f77b4"/>
     <use xlink:href="#m29d65393f8" x="221.705706" y="162.079427" style="fill: #1f77b4; stroke: #1f77b4"/>
     <use xlink:href="#m29d65393f8" x="223.337136" y="204.588723" style="fill: #1f77b4; stroke: #1f77b4"/>
     <use xlink:href="#m29d65393f8" x="224.968566" y="165.62176" style="fill: #1f77b4; stroke: #1f77b4"/>
     <use xlink:href="#m29d65393f8" x="226.599995" y="179.592889" style="fill: #1f77b4; stroke: #1f77b4"/>
     <use xlink:href="#m29d65393f8" x="228.231425" y="220.674815" style="fill: #1f77b4; stroke: #1f77b4"/>
     <use xlink:href="#m29d65393f8" x="229.862855" y="167.3568" style="fill: #1f77b4; stroke: #1f77b4"/>
     <use xlink:href="#m29d65393f8" x="231.494285" y="228.451808" style="fill: #1f77b4; stroke: #1f77b4"/>
     <use xlink:href="#m29d65393f8" x="233.125715" y="132.828982" style="fill: #1f77b4; stroke: #1f77b4"/>
     <use xlink:href="#m29d65393f8" x="234.757145" y="188.161469" style="fill: #1f77b4; stroke: #1f77b4"/>
     <use xlink:href="#m29d65393f8" x="236.388575" y="162.881763" style="fill: #1f77b4; stroke: #1f77b4"/>
     <use xlink:href="#m29d65393f8" x="238.020005" y="233.303602" style="fill: #1f77b4; stroke: #1f77b4"/>
     <use xlink:href="#m29d65393f8" x="239.651434" y="141.531923" style="fill: #1f77b4; stroke: #1f77b4"/>
     <use xlink:href="#m29d65393f8" x="241.282864" y="169.999327" style="fill: #1f77b4; stroke: #1f77b4"/>
     <use xlink:href="#m29d65393f8" x="242.914294" y="127.263135" style="fill: #1f77b4; stroke: #1f77b4"/>
     <use xlink:href="#m29d65393f8" x="244.545724" y="129.227904" style="fill: #1f77b4; stroke: #1f77b4"/>
     <use xlink:href="#m29d65393f8" x="246.177154" y="209.393798" style="fill: #1f77b4; stroke: #1f77b4"/>
     <use xlink:href="#m29d65393f8" x="247.808584" y="180.165295" style="fill: #1f77b4; stroke: #1f77b4"/>
     <use xlink:href="#m29d65393f8" x="249.440014" y="172.082617" style="fill: #1f77b4; stroke: #1f77b4"/>
     <use xlink:href="#m29d65393f8" x="251.071444" y="103.803828" style="fill: #1f77b4; stroke: #1f77b4"/>
     <use xlink:href="#m29d65393f8" x="252.702873" y="179.125596" style="fill: #1f77b4; stroke: #1f77b4"/>
     <use xlink:href="#m29d65393f8" x="254.334303" y="150.103436" style="fill: #1f77b4; stroke: #1f77b4"/>
     <use xlink:href="#m29d65393f8" x="255.965733" y="274.977949" style="fill: #1f77b4; stroke: #1f77b4"/>
     <use xlink:href="#m29d65393f8" x="257.597163" y="164.554396" style="fill: #1f77b4; stroke: #1f77b4"/>
     <use xlink:href="#m29d65393f8" x="259.228593" y="197.857109" style="fill: #1f77b4; stroke: #1f77b4"/>
     <use xlink:href="#m29d65393f8" x="260.860023" y="97.749815" style="fill: #1f77b4; stroke: #1f77b4"/>
     <use xlink:href="#m29d65393f8" x="262.491453" y="187.712284" style="fill: #1f77b4; stroke: #1f77b4"/>
     <use xlink:href="#m29d65393f8" x="264.122883" y="191.36467" style="fill: #1f77b4; stroke: #1f77b4"/>
     <use xlink:href="#m29d65393f8" x="265.754312" y="189.83876" style="fill: #1f77b4; stroke: #1f77b4"/>
     <use xlink:href="#m29d65393f8" x="267.385742" y="185.138523" style="fill: #1f77b4; stroke: #1f77b4"/>
     <use xlink:href="#m29d65393f8" x="269.017172" y="75.165961" style="fill: #1f77b4; stroke: #1f77b4"/>
     <use xlink:href="#m29d65393f8" x="270.648602" y="172.189574" style="fill: #1f77b4; stroke: #1f77b4"/>
     <use xlink:href="#m29d65393f8" x="272.280032" y="178.421708" style="fill: #1f77b4; stroke: #1f77b4"/>
     <use xlink:href="#m29d65393f8" x="273.911462" y="278.865824" style="fill: #1f77b4; stroke: #1f77b4"/>
     <use xlink:href="#m29d65393f8" x="275.542892" y="160.889334" style="fill: #1f77b4; stroke: #1f77b4"/>
     <use xlink:href="#m29d65393f8" x="277.174322" y="191.086551" style="fill: #1f77b4; stroke: #1f77b4"/>
     <use xlink:href="#m29d65393f8" x="278.805751" y="135.037197" style="fill: #1f77b4; stroke: #1f77b4"/>
     <use xlink:href="#m29d65393f8" x="280.437181" y="214.780458" style="fill: #1f77b4; stroke: #1f77b4"/>
     <use xlink:href="#m29d65393f8" x="282.068611" y="178.169421" style="fill: #1f77b4; stroke: #1f77b4"/>
     <use xlink:href="#m29d65393f8" x="283.700041" y="220.667128" style="fill: #1f77b4; stroke: #1f77b4"/>
     <use xlink:href="#m29d65393f8" x="285.331471" y="194.491666" style="fill: #1f77b4; stroke: #1f77b4"/>
     <use xlink:href="#m29d65393f8" x="286.962901" y="110.344204" style="fill: #1f77b4; stroke: #1f77b4"/>
     <use xlink:href="#m29d65393f8" x="288.594331" y="191.384308" style="fill: #1f77b4; stroke: #1f77b4"/>
     <use xlink:href="#m29d65393f8" x="290.225761" y="144.329113" style="fill: #1f77b4; stroke: #1f77b4"/>
     <use xlink:href="#m29d65393f8" x="291.85719" y="225.998371" style="fill: #1f77b4; stroke: #1f77b4"/>
     <use xlink:href="#m29d65393f8" x="293.48862" y="158.408226" style="fill: #1f77b4; stroke: #1f77b4"/>
     <use xlink:href="#m29d65393f8" x="295.12005" y="213.408531" style="fill: #1f77b4; stroke: #1f77b4"/>
     <use xlink:href="#m29d65393f8" x="296.75148" y="110.526047" style="fill: #1f77b4; stroke: #1f77b4"/>
     <use xlink:href="#m29d65393f8" x="298.38291" y="155.628882" style="fill: #1f77b4; stroke: #1f77b4"/>
     <use xlink:href="#m29d65393f8" x="300.01434" y="143.84348" style="fill: #1f77b4; stroke: #1f77b4"/>
     <use xlink:href="#m29d65393f8" x="301.64577" y="241.923152" style="fill: #1f77b4; stroke: #1f77b4"/>
     <use xlink:href="#m29d65393f8" x="303.2772" y="128.812138" style="fill: #1f77b4; stroke: #1f77b4"/>
     <use xlink:href="#m29d65393f8" x="304.90863" y="178.991013" style="fill: #1f77b4; stroke: #1f77b4"/>
     <use xlink:href="#m29d65393f8" x="306.540059" y="142.946263" style="fill: #1f77b4; stroke: #1f77b4"/>
     <use xlink:href="#m29d65393f8" x="308.171489" y="180.533074" style="fill: #1f77b4; stroke: #1f77b4"/>
     <use xlink:href="#m29d65393f8" x="309.802919" y="242.417231" style="fill: #1f77b4; stroke: #1f77b4"/>
     <use xlink:href="#m29d65393f8" x="311.434349" y="179.580139" style="fill: #1f77b4; stroke: #1f77b4"/>
     <use xlink:href="#m29d65393f8" x="313.065779" y="185.586386" style="fill: #1f77b4; stroke: #1f77b4"/>
     <use xlink:href="#m29d65393f8" x="314.697209" y="145.806402" style="fill: #1f77b4; stroke: #1f77b4"/>
     <use xlink:href="#m29d65393f8" x="316.328639" y="207.010076" style="fill: #1f77b4; stroke: #1f77b4"/>
     <use xlink:href="#m29d65393f8" x="317.960069" y="201.123715" style="fill: #1f77b4; stroke: #1f77b4"/>
     <use xlink:href="#m29d65393f8" x="319.591498" y="217.586361" style="fill: #1f77b4; stroke: #1f77b4"/>
     <use xlink:href="#m29d65393f8" x="321.222928" y="130.034588" style="fill: #1f77b4; stroke: #1f77b4"/>
     <use xlink:href="#m29d65393f8" x="322.854358" y="177.645079" style="fill: #1f77b4; stroke: #1f77b4"/>
     <use xlink:href="#m29d65393f8" x="324.485788" y="156.038287" style="fill: #1f77b4; stroke: #1f77b4"/>
     <use xlink:href="#m29d65393f8" x="326.117218" y="195.399886" style="fill: #1f77b4; stroke: #1f77b4"/>
     <use xlink:href="#m29d65393f8" x="327.748648" y="233.720134" style="fill: #1f77b4; stroke: #1f77b4"/>
     <use xlink:href="#m29d65393f8" x="329.380078" y="179.110965" style="fill: #1f77b4; stroke: #1f77b4"/>
     <use xlink:href="#m29d65393f8" x="331.011508" y="147.184551" style="fill: #1f77b4; stroke: #1f77b4"/>
     <use xlink:href="#m29d65393f8" x="332.642937" y="131.9875" style="fill: #1f77b4; stroke: #1f77b4"/>
     <use xlink:href="#m29d65393f8" x="334.274367" y="202.858931" style="fill: #1f77b4; stroke: #1f77b4"/>
     <use xlink:href="#m29d65393f8" x="335.905797" y="194.570507" style="fill: #1f77b4; stroke: #1f77b4"/>
     <use xlink:href="#m29d65393f8" x="337.537227" y="213.169962" style="fill: #1f77b4; stroke: #1f77b4"/>
     <use xlink:href="#m29d65393f8" x="339.168657" y="166.729857" style="fill: #1f77b4; stroke: #1f77b4"/>
     <use xlink:href="#m29d65393f8" x="340.800087" y="154.937119" style="fill: #1f77b4; stroke: #1f77b4"/>
     <use xlink:href="#m29d65393f8" x="342.431517" y="124.398986" style="fill: #1f77b4; stroke: #1f77b4"/>
     <use xlink:href="#m29d65393f8" x="344.062947" y="207.587493" style="fill: #1f77b4; stroke: #1f77b4"/>
     <use xlink:href="#m29d65393f8" x="345.694376" y="202.690208" style="fill: #1f77b4; stroke: #1f77b4"/>
     <use xlink:href="#m29d65393f8" x="347.325806" y="177.653" style="fill: #1f77b4; stroke: #1f77b4"/>
     <use xlink:href="#m29d65393f8" x="348.957236" y="185.816039" style="fill: #1f77b4; stroke: #1f77b4"/>
     <use xlink:href="#m29d65393f8" x="350.588666" y="147.755319" style="fill: #1f77b4; stroke: #1f77b4"/>
     <use xlink:href="#m29d65393f8" x="352.220096" y="170.722868" style="fill: #1f77b4; stroke: #1f77b4"/>
     <use xlink:href="#m29d65393f8" x="353.851526" y="189.171485" style="fill: #1f77b4; stroke: #1f77b4"/>
     <use xlink:href="#m29d65393f8" x="355.482956" y="180.039047" style="fill: #1f77b4; stroke: #1f77b4"/>
     <use xlink:href="#m29d65393f8" x="357.114386" y="135.899752" style="fill: #1f77b4; stroke: #1f77b4"/>
     <use xlink:href="#m29d65393f8" x="358.745815" y="141.613733" style="fill: #1f77b4; stroke: #1f77b4"/>
     <use xlink:href="#m29d65393f8" x="360.377245" y="137.469231" style="fill: #1f77b4; stroke: #1f77b4"/>
     <use xlink:href="#m29d65393f8" x="362.008675" y="182.636447" style="fill: #1f77b4; stroke: #1f77b4"/>
     <use xlink:href="#m29d65393f8" x="363.640105" y="214.672083" style="fill: #1f77b4; stroke: #1f77b4"/>
     <use xlink:href="#m29d65393f8" x="365.271535" y="192.369346" style="fill: #1f77b4; stroke: #1f77b4"/>
     <use xlink:href="#m29d65393f8" x="366.902965" y="154.302509" style="fill: #1f77b4; stroke: #1f77b4"/>
     <use xlink:href="#m29d65393f8" x="368.534395" y="118.371846" style="fill: #1f77b4; stroke: #1f77b4"/>
     <use xlink:href="#m29d65393f8" x="370.165825" y="210.222533" style="fill: #1f77b4; stroke: #1f77b4"/>
     <use xlink:href="#m29d65393f8" x="371.797254" y="215.209108" style="fill: #1f77b4; stroke: #1f77b4"/>
     <use xlink:href="#m29d65393f8" x="373.428684" y="234.267162" style="fill: #1f77b4; stroke: #1f77b4"/>
     <use xlink:href="#m29d65393f8" x="375.060114" y="168.685827" style="fill: #1f77b4; stroke: #1f77b4"/>
     <use xlink:href="#m29d65393f8" x="376.691544" y="158.344496" style="fill: #1f77b4; stroke: #1f77b4"/>
     <use xlink:href="#m29d65393f8" x="378.322974" y="124.526831" style="fill: #1f77b4; stroke: #1f77b4"/>
     <use xlink:href="#m29d65393f8" x="379.954404" y="201.814142" style="fill: #1f77b4; stroke: #1f77b4"/>
     <use xlink:href="#m29d65393f8" x="381.585834" y="225.34465" style="fill: #1f77b4; stroke: #1f77b4"/>
     <use xlink:href="#m29d65393f8" x="383.217264" y="232.560608" style="fill: #1f77b4; stroke: #1f77b4"/>
     <use xlink:href="#m29d65393f8" x="384.848693" y="160.830296" style="fill: #1f77b4; stroke: #1f77b4"/>
     <use xlink:href="#m29d65393f8" x="386.480123" y="165.448156" style="fill: #1f77b4; stroke: #1f77b4"/>
     <use xlink:href="#m29d65393f8" x="388.111553" y="162.587845" style="fill: #1f77b4; stroke: #1f77b4"/>
     <use xlink:href="#m29d65393f8" x="389.742983" y="195.199157" style="fill: #1f77b4; stroke: #1f77b4"/>
     <use xlink:href="#m29d65393f8" x="391.374413" y="209.971988" style="fill: #1f77b4; stroke: #1f77b4"/>
     <use xlink:href="#m29d65393f8" x="393.005843" y="108.897713" style="fill: #1f77b4; stroke: #1f77b4"/>
     <use xlink:href="#m29d65393f8" x="394.637273" y="112.878867" style="fill: #1f77b4; stroke: #1f77b4"/>
    </g>
   </g>
   <g id="line2d_15">
    <path d="M 69.982727 143.298953 
L 70.632686 237.926332 
L 70.957666 261.736139 
L 71.282645 257.596879 
L 71.607625 226.919773 
L 72.582563 96.355187 
L 72.907543 87.038357 
L 73.232523 105.845253 
L 74.532441 260.858344 
L 74.85742 255.095421 
L 75.1824 223.601041 
L 76.157338 96.333225 
L 76.482318 88.834727 
L 76.807297 108.878877 
L 78.107215 259.885659 
L 78.432195 252.560874 
L 78.757174 220.321437 
L 79.407133 127.336114 
L 79.732113 96.424692 
L 80.057093 90.695371 
L 80.382072 111.907178 
L 81.357011 240.648798 
L 81.68199 258.822609 
L 82.00697 249.997974 
L 82.331949 217.084386 
L 82.981908 125.748189 
L 83.306888 96.625716 
L 83.631867 92.615497 
L 83.956847 114.925979 
L 84.931785 241.311231 
L 85.256765 257.673701 
L 85.581744 247.411339 
L 85.906724 213.893138 
L 86.556683 124.283019 
L 86.881663 96.932398 
L 87.206642 94.590382 
L 87.531622 117.931252 
L 88.50656 241.856107 
L 88.83154 256.443417 
L 89.156519 244.80547 
L 89.806478 165.258423 
L 90.131458 122.938664 
L 90.456437 97.340815 
L 90.781417 96.615383 
L 91.106396 120.919122 
L 92.081335 242.286519 
L 92.406314 255.136208 
L 92.731294 242.184748 
L 93.381253 162.68962 
L 93.706233 121.713076 
L 94.031212 97.847026 
L 94.356192 98.685937 
L 94.681171 123.885868 
L 95.65611 242.60562 
L 95.981089 253.756489 
L 96.306069 239.553429 
L 96.956028 160.222796 
L 97.281007 120.604102 
L 97.605987 98.447079 
L 97.930966 100.797565 
L 98.255946 126.827921 
L 99.230885 242.816621 
L 99.555864 252.308633 
L 99.880844 236.915647 
L 101.180762 99.137019 
L 101.505741 102.945879 
L 101.830721 129.741866 
L 102.805659 242.922781 
L 103.130639 250.796967 
L 103.455618 234.275406 
L 104.755536 99.912892 
L 105.080516 105.126579 
L 105.405495 132.624439 
L 106.380434 242.927403 
L 106.705414 249.225769 
L 107.030393 231.636582 
L 108.330311 100.770749 
L 108.655291 107.335465 
L 108.98027 135.47253 
L 109.630229 216.166813 
L 109.955209 242.833828 
L 110.280188 247.599259 
L 110.605168 229.002924 
L 111.580106 117.288038 
L 111.905086 101.706656 
L 112.230066 109.568431 
L 112.555045 138.283182 
L 113.205004 217.532762 
L 113.529984 242.645426 
L 113.854963 245.921598 
L 114.179943 226.378046 
L 115.154881 116.726681 
L 115.479861 102.716693 
L 115.80484 111.821473 
L 116.12982 141.053588 
L 116.779779 218.792151 
L 117.104758 242.365595 
L 117.429738 244.196885 
L 117.754717 223.765433 
L 118.729656 116.267212 
L 119.054636 103.796966 
L 119.379615 114.090691 
L 120.029574 183.296548 
L 120.354554 219.946682 
L 120.679533 241.997749 
L 121.004513 242.429149 
L 121.329492 221.168438 
L 122.304431 115.906934 
L 122.62941 104.943606 
L 122.95439 116.372288 
L 123.604349 185.518594 
L 123.929328 220.998151 
L 124.254308 241.545319 
L 124.579287 240.622351 
L 124.904267 218.590277 
L 125.879206 115.643095 
L 126.204185 106.152777 
L 126.529165 118.662578 
L 127.179124 187.651888 
L 127.504103 221.948445 
L 127.829083 241.011744 
L 128.154062 238.780375 
L 128.479042 216.034039 
L 129.45398 115.472897 
L 129.77896 107.42068 
L 130.103939 120.95798 
L 131.403857 240.400464 
L 131.728837 236.907029 
L 132.053817 213.502673 
L 133.028755 115.393496 
L 133.353735 108.743557 
L 133.678714 123.255026 
L 134.978632 239.71492 
L 135.303612 235.00604 
L 135.628591 210.999001 
L 136.60353 115.402016 
L 136.928509 110.117693 
L 137.253489 125.550361 
L 138.228428 224.212337 
L 138.553407 238.958546 
L 138.878387 233.081052 
L 139.203366 208.525708 
L 139.853325 138.499536 
L 140.178305 115.495544 
L 140.503284 111.539424 
L 140.828264 127.840739 
L 141.803202 224.778362 
L 142.128182 238.134763 
L 142.453161 231.135623 
L 142.778141 206.085349 
L 143.4281 137.324657 
L 143.753079 115.671146 
L 144.078059 113.005136 
L 144.403038 130.123033 
L 145.377977 225.253777 
L 145.702957 237.246977 
L 146.027936 229.173225 
L 146.352916 203.680347 
L 147.002875 136.242276 
L 147.327854 115.925863 
L 147.652834 114.511273 
L 147.977813 132.394227 
L 148.952752 225.640885 
L 149.277731 236.298575 
L 149.602711 227.197238 
L 150.25267 166.990042 
L 150.577649 135.250901 
L 150.902629 116.256722 
L 151.227609 116.054338 
L 151.552588 134.651422 
L 152.527527 225.94204 
L 152.852506 235.292918 
L 153.177486 225.21095 
L 153.827445 165.068013 
L 154.152424 134.348958 
L 154.477404 116.660736 
L 154.802383 117.630894 
L 155.127363 136.891834 
L 156.102301 226.159642 
L 156.427281 234.233338 
L 156.75226 223.217556 
L 157.402219 163.223225 
L 157.727199 133.534794 
L 158.052179 117.134915 
L 158.377158 119.237571 
L 158.702138 139.112796 
L 159.677076 226.296133 
L 160.002056 233.123137 
L 160.327035 221.220157 
L 161.626953 117.676263 
L 161.951933 120.871067 
L 162.276912 141.311755 
L 163.251851 226.353989 
L 163.57683 231.965579 
L 163.90181 219.221756 
L 165.201728 118.281788 
L 165.526708 122.528149 
L 165.851687 143.486277 
L 166.826626 226.33572 
L 167.151605 230.763889 
L 167.476585 217.225259 
L 168.451523 131.601427 
L 168.776503 118.948505 
L 169.101482 124.205658 
L 169.426462 145.63404 
L 170.076421 206.400964 
L 170.4014 226.243861 
L 170.72638 229.521249 
L 171.05136 215.233473 
L 172.026298 131.120511 
L 172.351278 119.673438 
L 172.676257 125.900508 
L 173.001237 147.752837 
L 173.651196 207.411393 
L 173.976175 226.080969 
L 174.301155 228.240796 
L 174.626134 213.249107 
L 175.601073 130.718138 
L 175.926052 120.453626 
L 176.251032 127.609692 
L 176.576011 149.840579 
L 177.225971 208.341531 
L 177.55095 225.84962 
L 177.87593 226.925616 
L 178.200909 211.274769 
L 179.175848 130.3923 
L 179.500827 121.286127 
L 179.825807 129.330279 
L 180.475766 181.707296 
L 180.800745 209.192687 
L 181.125725 225.552403 
L 181.450704 225.578745 
L 181.775684 209.312967 
L 182.750622 130.140941 
L 183.075602 122.168018 
L 183.400581 131.059421 
L 184.050541 183.369755 
L 184.37552 209.966242 
L 184.7005 225.191916 
L 185.025479 224.203165 
L 185.350459 207.366107 
L 186.325397 129.961968 
L 186.650377 123.096405 
L 186.975356 132.794349 
L 187.625315 184.964994 
L 187.950295 210.663641 
L 188.275274 224.770763 
L 188.600254 222.801798 
L 188.925233 205.436497 
L 189.900172 129.853252 
L 190.225152 124.068419 
L 190.550131 134.532379 
L 191.850049 224.291549 
L 192.175029 221.37751 
L 192.500008 203.526342 
L 193.474947 129.812635 
L 193.799926 125.081226 
L 194.124906 136.27091 
L 195.424824 223.756877 
L 195.749803 219.933103 
L 196.074783 201.637747 
L 197.049722 129.837929 
L 197.374701 126.132026 
L 197.699681 138.007425 
L 198.674619 212.31426 
L 198.999599 223.169344 
L 199.324578 218.471317 
L 199.649558 199.772715 
L 200.299517 147.042034 
L 200.624496 129.926926 
L 200.949476 127.218054 
L 201.274455 139.739495 
L 202.249394 212.722666 
L 202.574373 222.531535 
L 202.899353 216.994827 
L 203.224333 197.933153 
L 203.874292 146.173132 
L 204.199271 130.077398 
L 204.524251 128.336589 
L 204.84923 141.464776 
L 205.824169 213.062989 
L 206.149148 221.846027 
L 206.474128 215.50624 
L 206.799107 196.120864 
L 207.449066 145.373922 
L 207.774046 130.287103 
L 208.099025 129.484951 
L 208.424005 143.181012 
L 209.398943 213.336983 
L 209.723923 221.115375 
L 210.048903 214.008095 
L 210.698862 168.444289 
L 211.023841 144.643256 
L 211.348821 130.553786 
L 211.6738 130.660506 
L 211.99878 144.886034 
L 212.973718 213.546442 
L 213.298698 220.342119 
L 213.623677 212.50286 
L 214.273636 167.006397 
L 214.598616 143.979926 
L 214.923595 130.875187 
L 215.248575 131.860668 
L 215.573554 146.577759 
L 216.548493 213.69319 
L 216.873473 219.528774 
L 217.198452 210.992933 
L 217.848411 165.627002 
L 218.173391 143.382665 
L 218.49837 131.24904 
L 218.82335 133.0829 
L 219.148329 148.254194 
L 220.123268 213.779085 
L 220.448247 218.677831 
L 220.773227 209.48064 
L 222.073145 131.673078 
L 222.398124 134.324717 
L 222.723104 149.913433 
L 223.698043 213.806008 
L 224.023022 217.791754 
L 224.348002 207.968232 
L 225.64792 132.145038 
L 225.972899 135.58369 
L 226.297879 151.553657 
L 227.272817 213.775864 
L 227.597797 216.872972 
L 227.922776 206.457889 
L 228.897715 141.973864 
L 229.222695 132.662662 
L 229.547674 136.857442 
L 229.872654 153.173136 
L 230.522613 198.92921 
L 230.847592 213.690579 
L 231.172572 215.923887 
L 231.497551 204.951712 
L 232.47249 141.627213 
L 232.797469 133.223699 
L 233.122449 138.143655 
L 233.447428 154.770224 
L 234.097387 199.676326 
L 234.422367 213.552091 
L 234.747346 214.94686 
L 235.072326 203.45173 
L 236.047265 141.339575 
L 236.372244 133.825914 
L 236.697224 139.440069 
L 237.022203 156.343363 
L 237.672162 200.362951 
L 237.997142 213.362353 
L 238.322121 213.944217 
L 238.647101 201.959896 
L 239.622039 141.109419 
L 239.947019 134.467082 
L 240.271998 140.744484 
L 240.921957 180.380151 
L 241.246937 200.99009 
L 241.571916 213.123328 
L 241.896896 212.918245 
L 242.221876 200.478085 
L 243.196814 140.935182 
L 243.521794 135.144999 
L 243.846773 142.054762 
L 244.496732 181.623765 
L 244.821712 201.558804 
L 245.146691 212.836984 
L 245.471671 211.871187 
L 245.79665 199.008097 
L 246.771589 140.81527 
L 247.096568 135.857477 
L 247.421548 143.368825 
L 248.071507 182.816475 
L 248.396486 202.070201 
L 248.721466 212.505292 
L 249.046446 210.805243 
L 249.371425 197.551656 
L 250.346364 140.748066 
L 250.671343 136.602355 
L 250.996323 144.684659 
L 252.296241 212.130224 
L 252.62122 209.722568 
L 252.9462 196.11041 
L 253.921138 140.731929 
L 254.246118 137.377492 
L 254.571097 146.000315 
L 255.871016 211.713748 
L 256.195995 208.625271 
L 256.520975 194.685929 
L 257.170934 154.272369 
L 257.495913 140.765199 
L 257.820893 138.180778 
L 258.145872 147.313906 
L 259.120811 203.272238 
L 259.44579 211.257829 
L 259.77077 207.51541 
L 260.095749 193.279709 
L 260.745708 153.576704 
L 261.070688 140.846199 
L 261.395667 139.010129 
L 261.720647 148.623613 
L 262.695586 203.566316 
L 263.020565 210.764421 
L 263.345545 206.394996 
L 263.670524 191.893169 
L 264.320483 152.934377 
L 264.645463 140.97324 
L 264.970442 139.863494 
L 265.295422 149.92768 
L 266.27036 203.809244 
L 266.59534 210.23547 
L 266.920319 205.265987 
L 267.570278 170.772257 
L 267.895258 152.344554 
L 268.220238 141.144622 
L 268.545217 140.738855 
L 268.870197 151.224419 
L 269.845135 204.002357 
L 270.170115 209.672907 
L 270.495094 204.13029 
L 271.145053 169.652506 
L 271.470033 151.806353 
L 271.795012 141.358637 
L 272.119992 141.634229 
L 272.444971 152.512207 
L 273.41991 204.14702 
L 273.744889 209.07865 
L 274.069869 202.989756 
L 274.719828 168.576961 
L 275.044808 151.318845 
L 275.369787 141.613571 
L 275.694767 142.547668 
L 276.019746 153.789487 
L 276.994685 204.244621 
L 277.319664 208.454597 
L 277.644644 201.846187 
L 278.944562 141.90771 
L 279.269541 143.477263 
L 279.594521 155.05477 
L 280.569459 204.296572 
L 280.894439 207.802628 
L 281.219419 200.701326 
L 282.519337 142.239339 
L 282.844316 144.421147 
L 283.169296 156.306632 
L 284.144234 204.304303 
L 284.469214 207.1246 
L 284.794193 199.55686 
L 286.094111 142.606744 
L 286.419091 145.377491 
L 286.74407 157.543716 
L 287.394029 192.616098 
L 287.719009 204.26926 
L 288.043989 206.422346 
L 288.368968 198.414424 
L 289.343907 149.855771 
L 289.668886 143.00822 
L 289.993866 146.344509 
L 290.318845 158.76473 
L 290.968804 193.214572 
L 291.293784 204.192903 
L 291.618763 205.697675 
L 291.943743 197.275591 
L 292.918681 149.60643 
L 293.243661 143.442065 
L 293.56864 147.320459 
L 293.89362 159.968448 
L 294.543579 193.766744 
L 294.868559 204.076704 
L 295.193538 204.952368 
L 295.518518 196.141881 
L 296.493456 149.401425 
L 296.818436 143.906588 
L 297.143415 148.303644 
L 297.793374 178.313997 
L 298.118354 194.273346 
L 298.443333 203.922143 
L 298.768313 204.188176 
L 299.093292 195.014754 
L 300.068231 149.239589 
L 300.39321 144.400112 
L 300.71819 149.292412 
L 301.368149 179.282627 
L 301.693129 194.735151 
L 302.018108 203.730707 
L 302.343088 203.40682 
L 302.668067 193.895615 
L 303.643006 149.119731 
L 303.967985 144.92097 
L 304.292965 150.285158 
L 304.942924 180.212783 
L 305.267903 195.152973 
L 305.592883 203.503886 
L 305.917862 202.609989 
L 306.242842 192.785808 
L 307.217781 149.040639 
L 307.54276 145.467513 
L 307.86774 151.280322 
L 309.167658 203.243173 
L 309.492637 201.799339 
L 309.817617 191.686621 
L 310.792555 149.001085 
L 311.117535 146.038108 
L 311.442514 152.276396 
L 312.742432 202.950059 
L 313.067412 200.976492 
L 313.392391 190.599286 
L 314.36733 148.999822 
L 314.69231 146.631142 
L 315.017289 153.271916 
L 315.992228 196.151195 
L 316.317207 202.626035 
L 316.642187 200.143031 
L 316.967166 189.524973 
L 317.617125 159.088616 
L 317.942105 149.035588 
L 318.267084 147.245024 
L 318.592064 154.26547 
L 319.567002 196.401902 
L 319.891982 202.272584 
L 320.216962 199.300504 
L 320.541941 188.464799 
L 321.1919 158.573807 
L 321.51688 149.107113 
L 321.841859 147.878182 
L 322.166839 155.255694 
L 323.141777 196.613186 
L 323.466757 201.891185 
L 323.791736 198.450423 
L 324.116716 187.419822 
L 324.766675 158.099192 
L 325.091654 149.213115 
L 325.416634 148.529073 
L 325.741613 156.241274 
L 326.716552 196.786044 
L 327.041532 201.483308 
L 327.366511 197.594258 
L 328.01647 171.485349 
L 328.34145 157.664128 
L 328.666429 149.352306 
L 328.991409 149.196175 
L 329.316388 157.220947 
L 330.291327 196.921494 
L 330.616306 201.050411 
L 330.941286 196.73344 
L 331.591245 170.647475 
L 331.916224 157.267936 
L 332.241204 149.52339 
L 332.566183 149.877996 
L 332.891163 158.193499 
L 333.866102 197.020574 
L 334.191081 200.593941 
L 334.516061 195.869361 
L 335.16602 169.843085 
L 335.490999 156.909905 
L 335.815979 149.725071 
L 336.140958 150.573069 
L 336.465938 159.157766 
L 337.440876 197.084341 
L 337.765856 200.115332 
L 338.090835 195.003369 
L 339.390753 149.956051 
L 339.715733 151.279959 
L 340.040713 160.112635 
L 341.015651 197.113866 
L 341.340631 199.616002 
L 341.66561 194.136774 
L 342.965528 150.215032 
L 343.290508 151.99726 
L 343.615487 161.057044 
L 344.590426 197.110236 
L 344.915405 199.09735 
L 345.240385 193.270841 
L 346.215324 156.057204 
L 346.540303 150.500718 
L 346.865283 152.723597 
L 347.190262 161.989979 
L 347.840221 188.402469 
L 348.165201 197.074549 
L 348.49018 198.560761 
L 348.81516 192.406792 
L 349.790098 155.844103 
L 350.115078 150.811818 
L 350.440057 153.457629 
L 350.765037 162.910477 
L 351.414996 188.845262 
L 351.739975 197.007914 
L 352.064955 198.007596 
L 352.389934 191.545809 
L 353.364873 155.665176 
L 353.689853 151.147048 
L 354.014832 154.198047 
L 354.339812 163.817624 
L 354.989771 189.253165 
L 355.31475 196.911444 
L 355.63973 197.439197 
L 355.964709 190.689027 
L 356.939648 155.519553 
L 357.264627 151.505131 
L 357.589607 154.943575 
L 358.239566 177.657548 
L 358.564545 189.626742 
L 358.889525 196.786264 
L 359.214505 196.856883 
L 359.539484 189.83754 
L 360.514423 155.406345 
L 360.839402 151.884797 
L 361.164382 155.692974 
L 361.814341 178.382292 
L 362.13932 189.966588 
L 362.4643 196.633499 
L 362.789279 196.261951 
L 363.114259 188.992398 
L 364.089197 155.324647 
L 364.414177 152.284791 
L 364.739156 156.445039 
L 365.389115 179.077894 
L 365.714095 190.273325 
L 366.039075 196.454278 
L 366.364054 195.655671 
L 366.689034 188.154606 
L 367.663972 155.273538 
L 367.988952 152.703867 
L 368.313931 157.1986 
L 369.613849 196.24973 
L 369.938829 195.039289 
L 370.263808 187.325127 
L 371.238747 155.252083 
L 371.563726 153.140793 
L 371.888706 157.952525 
L 373.188624 196.020985 
L 373.513604 194.414024 
L 373.838583 186.504879 
L 374.813522 155.259335 
L 375.138501 153.594353 
L 375.463481 158.705717 
L 376.438419 191.001516 
L 376.763399 195.769169 
L 377.088378 193.781067 
L 377.413358 185.694738 
L 378.063317 162.774703 
L 378.388296 155.294338 
L 378.713276 154.063347 
L 379.038256 159.457119 
L 380.013194 191.182566 
L 380.338174 195.495405 
L 380.663153 193.141583 
L 380.988133 184.895534 
L 381.638092 162.393892 
L 381.963071 155.356127 
L 382.288051 154.546592 
L 382.61303 160.205709 
L 383.587969 191.333994 
L 383.912948 195.200808 
L 384.237928 192.496706 
L 384.562907 184.108056 
L 385.212867 162.043367 
L 385.537846 155.44373 
L 385.862826 155.042923 
L 386.187805 160.950504 
L 387.162744 191.456559 
L 387.487723 194.88649 
L 387.812703 191.847541 
L 388.462662 172.087661 
L 388.787641 161.722632 
L 389.112621 155.55617 
L 389.4376 155.551195 
L 389.76258 161.690557 
L 390.737518 191.551035 
L 391.062498 194.553553 
L 391.387477 191.195161 
L 392.037437 171.460796 
L 392.362416 161.431166 
L 392.687396 155.692467 
L 393.012375 156.070285 
L 393.337355 162.424962 
L 394.312293 191.618212 
L 394.637273 194.203089 
L 394.637273 194.203089 
" clip-path="url(#p3505e9e238)" style="fill: none; stroke: #d62728; stroke-width: 1.5; stroke-linecap: square"/>
   </g>
   <g id="patch_3">
    <path d="M 53.75 307.872 
L 53.75 41.76 
" style="fill: none; stroke: #000000; stroke-width: 0.8; stroke-linejoin: miter; stroke-linecap: square"/>
   </g>
   <g id="patch_4">
    <path d="M 410.87 307.872 
L 410.87 41.76 
" style="fill: none; stroke: #000000; stroke-width: 0.8; stroke-linejoin: miter; stroke-linecap: square"/>
   </g>
   <g id="patch_5">
    <path d="M 53.75 307.872 
L 410.87 307.872 
" style="fill: none; stroke: #000000; stroke-width: 0.8; stroke-linejoin: miter; stroke-linecap: square"/>
   </g>
   <g id="patch_6">
    <path d="M 53.75 41.76 
L 410.87 41.76 
" style="fill: none; stroke: #000000; stroke-width: 0.8; stroke-linejoin: miter; stroke-linecap: square"/>
   </g>
   <g id="text_16">
    <g id="patch_7">
     <path d="M 428.726 138.497163 
L 619.026 138.497163 
Q 623.026 138.497163 623.026 134.497163 
L 623.026 55.0656 
Q 623.026 51.0656 619.026 51.0656 
L 428.726 51.0656 
Q 424.726 51.0656 424.726 55.0656 
L 424.726 134.497163 
Q 424.726 138.497163 428.726 138.497163 
z
" style="fill: #ffffff; opacity: 0.5; stroke: #000000; stroke-linejoin: miter"/>
    </g>
    <!-- Summary -->
    <g transform="translate(428.726 62.664038) scale(0.1 -0.1)">
     <defs>
      <path id="DejaVuSans-53" d="M 3425 4513 
L 3425 3897 
Q 3066 4069 2747 4153 
Q 2428 4238 2131 4238 
Q 1616 4238 1336 4038 
Q 1056 3838 1056 3469 
Q 1056 3159 1242 3001 
Q 1428 2844 1947 2747 
L 2328 2669 
Q 3034 2534 3370 2195 
Q 3706 1856 3706 1288 
Q 3706 609 3251 259 
Q 2797 -91 1919 -91 
Q 1588 -91 1214 -16 
Q 841 59 441 206 
L 441 856 
Q 825 641 1194 531 
Q 1563 422 1919 422 
Q 2459 422 2753 634 
Q 3047 847 3047 1241 
Q 3047 1584 2836 1778 
Q 2625 1972 2144 2069 
L 1759 2144 
Q 1053 2284 737 2584 
Q 422 2884 422 3419 
Q 422 4038 858 4394 
Q 1294 4750 2059 4750 
Q 2388 4750 2728 4690 
Q 3069 4631 3425 4513 
z
" transform="scale(0.015625)"/>
      <path id="DejaVuSans-72" d="M 2631 2963 
Q 2534 3019 2420 3045 
Q 2306 3072 2169 3072 
Q 1681 3072 1420 2755 
Q 1159 2438 1159 1844 
L 1159 0 
L 581 0 
L 581 3500 
L 1159 3500 
L 1159 2956 
Q 1341 3275 1631 3429 
Q 1922 3584 2338 3584 
Q 2397 3584 2469 3576 
Q 2541 3569 2628 3553 
L 2631 2963 
z
" transform="scale(0.015625)"/>
      <path id="DejaVuSans-79" d="M 2059 -325 
Q 1816 -950 1584 -1140 
Q 1353 -1331 966 -1331 
L 506 -1331 
L 506 -850 
L 844 -850 
Q 1081 -850 1212 -737 
Q 1344 -625 1503 -206 
L 1606 56 
L 191 3500 
L 800 3500 
L 1894 763 
L 2988 3500 
L 3597 3500 
L 2059 -325 
z
" transform="scale(0.015625)"/>
     </defs>
     <use xlink:href="#DejaVuSans-53"/>
     <use xlink:href="#DejaVuSans-75" x="63.476562"/>
     <use xlink:href="#DejaVuSans-6d" x="126.855469"/>
     <use xlink:href="#DejaVuSans-6d" x="224.267578"/>
     <use xlink:href="#DejaVuSans-61" x="321.679688"/>
     <use xlink:href="#DejaVuSans-72" x="382.958984"/>
     <use xlink:href="#DejaVuSans-79" x="424.072266"/>
    </g>
    <!-- $T_2^*$: 5.23$\pm$0.90 μs -->
    <g transform="translate(428.726 75.663725) scale(0.1 -0.1)">
     <defs>
      <path id="DejaVuSans-Oblique-54" d="M 378 4666 
L 4325 4666 
L 4225 4134 
L 2559 4134 
L 1759 0 
L 1125 0 
L 1925 4134 
L 275 4134 
L 378 4666 
z
" transform="scale(0.015625)"/>
      <path id="DejaVuSans-2a" d="M 3009 3897 
L 1888 3291 
L 3009 2681 
L 2828 2375 
L 1778 3009 
L 1778 1831 
L 1422 1831 
L 1422 3009 
L 372 2375 
L 191 2681 
L 1313 3291 
L 191 3897 
L 372 4206 
L 1422 3572 
L 1422 4750 
L 1778 4750 
L 1778 3572 
L 2828 4206 
L 3009 3897 
z
" transform="scale(0.015625)"/>
      <path id="DejaVuSans-3a" d="M 750 794 
L 1409 794 
L 1409 0 
L 750 0 
L 750 794 
z
M 750 3309 
L 1409 3309 
L 1409 2516 
L 750 2516 
L 750 3309 
z
" transform="scale(0.015625)"/>
      <path id="DejaVuSans-2e" d="M 684 794 
L 1344 794 
L 1344 0 
L 684 0 
L 684 794 
z
" transform="scale(0.015625)"/>
      <path id="DejaVuSans-b1" d="M 2944 4013 
L 2944 2803 
L 4684 2803 
L 4684 2272 
L 2944 2272 
L 2944 1063 
L 2419 1063 
L 2419 2272 
L 678 2272 
L 678 2803 
L 2419 2803 
L 2419 4013 
L 2944 4013 
z
M 678 531 
L 4684 531 
L 4684 0 
L 678 0 
L 678 531 
z
" transform="scale(0.015625)"/>
     </defs>
     <use xlink:href="#DejaVuSans-Oblique-54" transform="translate(0 0.765625)"/>
     <use xlink:href="#DejaVuSans-2a" transform="translate(81.738451 39.046875) scale(0.7)"/>
     <use xlink:href="#DejaVuSans-32" transform="translate(61.083984 -26.578125) scale(0.7)"/>
     <use xlink:href="#DejaVuSans-3a" transform="translate(133.110521 0.765625)"/>
     <use xlink:href="#DejaVuSans-20" transform="translate(166.801927 0.765625)"/>
     <use xlink:href="#DejaVuSans-35" transform="translate(198.589036 0.765625)"/>
     <use xlink:href="#DejaVuSans-2e" transform="translate(262.212083 0.765625)"/>
     <use xlink:href="#DejaVuSans-32" transform="translate(288.499193 0.765625)"/>
     <use xlink:href="#DejaVuSans-33" transform="translate(352.12224 0.765625)"/>
     <use xlink:href="#DejaVuSans-b1" transform="translate(415.745286 0.765625)"/>
     <use xlink:href="#DejaVuSans-30" transform="translate(499.534349 0.765625)"/>
     <use xlink:href="#DejaVuSans-2e" transform="translate(563.157396 0.765625)"/>
     <use xlink:href="#DejaVuSans-39" transform="translate(594.944505 0.765625)"/>
     <use xlink:href="#DejaVuSans-30" transform="translate(658.567552 0.765625)"/>
     <use xlink:href="#DejaVuSans-20" transform="translate(722.190599 0.765625)"/>
     <use xlink:href="#DejaVuSans-3bc" transform="translate(753.977708 0.765625)"/>
     <use xlink:href="#DejaVuSans-73" transform="translate(817.600755 0.765625)"/>
    </g>
    <!--  -->
    <g transform="translate(428.726 87.58185) scale(0.1 -0.1)"/>
    <!-- artificial detuning: 3 MHz -->
    <g transform="translate(428.726 98.779663) scale(0.1 -0.1)">
     <defs>
      <path id="DejaVuSans-66" d="M 2375 4863 
L 2375 4384 
L 1825 4384 
Q 1516 4384 1395 4259 
Q 1275 4134 1275 3809 
L 1275 3500 
L 2222 3500 
L 2222 3053 
L 1275 3053 
L 1275 0 
L 697 0 
L 697 3053 
L 147 3053 
L 147 3500 
L 697 3500 
L 697 3744 
Q 697 4328 969 4595 
Q 1241 4863 1831 4863 
L 2375 4863 
z
" transform="scale(0.015625)"/>
      <path id="DejaVuSans-63" d="M 3122 3366 
L 3122 2828 
Q 2878 2963 2633 3030 
Q 2388 3097 2138 3097 
Q 1578 3097 1268 2742 
Q 959 2388 959 1747 
Q 959 1106 1268 751 
Q 1578 397 2138 397 
Q 2388 397 2633 464 
Q 2878 531 3122 666 
L 3122 134 
Q 2881 22 2623 -34 
Q 2366 -91 2075 -91 
Q 1284 -91 818 406 
Q 353 903 353 1747 
Q 353 2603 823 3093 
Q 1294 3584 2113 3584 
Q 2378 3584 2631 3529 
Q 2884 3475 3122 3366 
z
" transform="scale(0.015625)"/>
      <path id="DejaVuSans-6c" d="M 603 4863 
L 1178 4863 
L 1178 0 
L 603 0 
L 603 4863 
z
" transform="scale(0.015625)"/>
      <path id="DejaVuSans-48" d="M 628 4666 
L 1259 4666 
L 1259 2753 
L 3553 2753 
L 3553 4666 
L 4184 4666 
L 4184 0 
L 3553 0 
L 3553 2222 
L 1259 2222 
L 1259 0 
L 628 0 
L 628 4666 
z
" transform="scale(0.015625)"/>
      <path id="DejaVuSans-7a" d="M 353 3500 
L 3084 3500 
L 3084 2975 
L 922 459 
L 3084 459 
L 3084 0 
L 275 0 
L 275 525 
L 2438 3041 
L 353 3041 
L 353 3500 
z
" transform="scale(0.015625)"/>
     </defs>
     <use xlink:href="#DejaVuSans-61"/>
     <use xlink:href="#DejaVuSans-72" x="61.279297"/>
     <use xlink:href="#DejaVuSans-74" x="102.392578"/>
     <use xlink:href="#DejaVuSans-69" x="141.601562"/>
     <use xlink:href="#DejaVuSans-66" x="169.384766"/>
     <use xlink:href="#DejaVuSans-69" x="204.589844"/>
     <use xlink:href="#DejaVuSans-63" x="232.373047"/>
     <use xlink:href="#DejaVuSans-69" x="287.353516"/>
     <use xlink:href="#DejaVuSans-61" x="315.136719"/>
     <use xlink:href="#DejaVuSans-6c" x="376.416016"/>
     <use xlink:href="#DejaVuSans-20" x="404.199219"/>
     <use xlink:href="#DejaVuSans-64" x="435.986328"/>
     <use xlink:href="#DejaVuSans-65" x="499.462891"/>
     <use xlink:href="#DejaVuSans-74" x="560.986328"/>
     <use xlink:href="#DejaVuSans-75" x="600.195312"/>
     <use xlink:href="#DejaVuSans-6e" x="663.574219"/>
     <use xlink:href="#DejaVuSans-69" x="726.953125"/>
     <use xlink:href="#DejaVuSans-6e" x="754.736328"/>
     <use xlink:href="#DejaVuSans-67" x="818.115234"/>
     <use xlink:href="#DejaVuSans-3a" x="881.591797"/>
     <use xlink:href="#DejaVuSans-20" x="915.283203"/>
     <use xlink:href="#DejaVuSans-33" x="947.070312"/>
     <use xlink:href="#DejaVuSans-20" x="1010.693359"/>
     <use xlink:href="#DejaVuSans-4d" x="1042.480469"/>
     <use xlink:href="#DejaVuSans-48" x="1128.759766"/>
     <use xlink:href="#DejaVuSans-7a" x="1203.955078"/>
    </g>
    <!-- fitted detuning: 11.4717$\pm$0.0053 MHz -->
    <g transform="translate(428.726 109.97935) scale(0.1 -0.1)">
     <use xlink:href="#DejaVuSans-66" transform="translate(0 0.015625)"/>
     <use xlink:href="#DejaVuSans-69" transform="translate(35.205078 0.015625)"/>
     <use xlink:href="#DejaVuSans-74" transform="translate(62.988281 0.015625)"/>
     <use xlink:href="#DejaVuSans-74" transform="translate(102.197266 0.015625)"/>
     <use xlink:href="#DejaVuSans-65" transform="translate(141.40625 0.015625)"/>
     <use xlink:href="#DejaVuSans-64" transform="translate(202.929688 0.015625)"/>
     <use xlink:href="#DejaVuSans-20" transform="translate(266.40625 0.015625)"/>
     <use xlink:href="#DejaVuSans-64" transform="translate(298.193359 0.015625)"/>
     <use xlink:href="#DejaVuSans-65" transform="translate(361.669922 0.015625)"/>
     <use xlink:href="#DejaVuSans-74" transform="translate(423.193359 0.015625)"/>
     <use xlink:href="#DejaVuSans-75" transform="translate(462.402344 0.015625)"/>
     <use xlink:href="#DejaVuSans-6e" transform="translate(525.78125 0.015625)"/>
     <use xlink:href="#DejaVuSans-69" transform="translate(589.160156 0.015625)"/>
     <use xlink:href="#DejaVuSans-6e" transform="translate(616.943359 0.015625)"/>
     <use xlink:href="#DejaVuSans-67" transform="translate(680.322266 0.015625)"/>
     <use xlink:href="#DejaVuSans-3a" transform="translate(743.798828 0.015625)"/>
     <use xlink:href="#DejaVuSans-20" transform="translate(777.490234 0.015625)"/>
     <use xlink:href="#DejaVuSans-31" transform="translate(809.277344 0.015625)"/>
     <use xlink:href="#DejaVuSans-31" transform="translate(872.900391 0.015625)"/>
     <use xlink:href="#DejaVuSans-2e" transform="translate(936.523438 0.015625)"/>
     <use xlink:href="#DejaVuSans-34" transform="translate(968.310547 0.015625)"/>
     <use xlink:href="#DejaVuSans-37" transform="translate(1031.933594 0.015625)"/>
     <use xlink:href="#DejaVuSans-31" transform="translate(1095.556641 0.015625)"/>
     <use xlink:href="#DejaVuSans-37" transform="translate(1159.179688 0.015625)"/>
     <use xlink:href="#DejaVuSans-b1" transform="translate(1222.802734 0.015625)"/>
     <use xlink:href="#DejaVuSans-30" transform="translate(1306.591797 0.015625)"/>
     <use xlink:href="#DejaVuSans-2e" transform="translate(1370.214844 0.015625)"/>
     <use xlink:href="#DejaVuSans-30" transform="translate(1402.001953 0.015625)"/>
     <use xlink:href="#DejaVuSans-30" transform="translate(1465.625 0.015625)"/>
     <use xlink:href="#DejaVuSans-35" transform="translate(1529.248047 0.015625)"/>
     <use xlink:href="#DejaVuSans-33" transform="translate(1592.871094 0.015625)"/>
     <use xlink:href="#DejaVuSans-20" transform="translate(1656.494141 0.015625)"/>
     <use xlink:href="#DejaVuSans-4d" transform="translate(1688.28125 0.015625)"/>
     <use xlink:href="#DejaVuSans-48" transform="translate(1774.560547 0.015625)"/>
     <use xlink:href="#DejaVuSans-7a" transform="translate(1849.755859 0.015625)"/>
    </g>
    <!-- actual detuning: 8.4717$\pm$0.0053 MHz -->
    <g transform="translate(428.726 121.19935) scale(0.1 -0.1)">
     <use xlink:href="#DejaVuSans-61" transform="translate(0 0.015625)"/>
     <use xlink:href="#DejaVuSans-63" transform="translate(61.279297 0.015625)"/>
     <use xlink:href="#DejaVuSans-74" transform="translate(116.259766 0.015625)"/>
     <use xlink:href="#DejaVuSans-75" transform="translate(155.46875 0.015625)"/>
     <use xlink:href="#DejaVuSans-61" transform="translate(218.847656 0.015625)"/>
     <use xlink:href="#DejaVuSans-6c" transform="translate(280.126953 0.015625)"/>
     <use xlink:href="#DejaVuSans-20" transform="translate(307.910156 0.015625)"/>
     <use xlink:href="#DejaVuSans-64" transform="translate(339.697266 0.015625)"/>
     <use xlink:href="#DejaVuSans-65" transform="translate(403.173828 0.015625)"/>
     <use xlink:href="#DejaVuSans-74" transform="translate(464.697266 0.015625)"/>
     <use xlink:href="#DejaVuSans-75" transform="translate(503.90625 0.015625)"/>
     <use xlink:href="#DejaVuSans-6e" transform="translate(567.285156 0.015625)"/>
     <use xlink:href="#DejaVuSans-69" transform="translate(630.664062 0.015625)"/>
     <use xlink:href="#DejaVuSans-6e" transform="translate(658.447266 0.015625)"/>
     <use xlink:href="#DejaVuSans-67" transform="translate(721.826172 0.015625)"/>
     <use xlink:href="#DejaVuSans-3a" transform="translate(785.302734 0.015625)"/>
     <use xlink:href="#DejaVuSans-20" transform="translate(818.994141 0.015625)"/>
     <use xlink:href="#DejaVuSans-38" transform="translate(850.78125 0.015625)"/>
     <use xlink:href="#DejaVuSans-2e" transform="translate(914.404297 0.015625)"/>
     <use xlink:href="#DejaVuSans-34" transform="translate(946.191406 0.015625)"/>
     <use xlink:href="#DejaVuSans-37" transform="translate(1009.814453 0.015625)"/>
     <use xlink:href="#DejaVuSans-31" transform="translate(1073.4375 0.015625)"/>
     <use xlink:href="#DejaVuSans-37" transform="translate(1137.060547 0.015625)"/>
     <use xlink:href="#DejaVuSans-b1" transform="translate(1200.683594 0.015625)"/>
     <use xlink:href="#DejaVuSans-30" transform="translate(1284.472656 0.015625)"/>
     <use xlink:href="#DejaVuSans-2e" transform="translate(1348.095703 0.015625)"/>
     <use xlink:href="#DejaVuSans-30" transform="translate(1379.882812 0.015625)"/>
     <use xlink:href="#DejaVuSans-30" transform="translate(1443.505859 0.015625)"/>
     <use xlink:href="#DejaVuSans-35" transform="translate(1507.128906 0.015625)"/>
     <use xlink:href="#DejaVuSans-33" transform="translate(1570.751953 0.015625)"/>
     <use xlink:href="#DejaVuSans-20" transform="translate(1634.375 0.015625)"/>
     <use xlink:href="#DejaVuSans-4d" transform="translate(1666.162109 0.015625)"/>
     <use xlink:href="#DejaVuSans-48" transform="translate(1752.441406 0.015625)"/>
     <use xlink:href="#DejaVuSans-7a" transform="translate(1827.636719 0.015625)"/>
    </g>
    <!--  -->
    <g transform="translate(428.726 132.417475) scale(0.1 -0.1)"/>
   </g>
  </g>
  <g id="text_17">
   <!--  ramsey -->
   <g transform="translate(202.286563 16.318125) scale(0.12 -0.12)">
    <use xlink:href="#DejaVuSans-20"/>
    <use xlink:href="#DejaVuSans-72" x="31.787109"/>
    <use xlink:href="#DejaVuSans-61" x="72.900391"/>
    <use xlink:href="#DejaVuSans-6d" x="134.179688"/>
    <use xlink:href="#DejaVuSans-73" x="231.591797"/>
    <use xlink:href="#DejaVuSans-65" x="283.691406"/>
    <use xlink:href="#DejaVuSans-79" x="345.214844"/>
   </g>
   <!-- tuid: 20231220-161827-197-00b740 -->
   <g transform="translate(116.703125 29.7555) scale(0.12 -0.12)">
    <defs>
     <path id="DejaVuSans-2d" d="M 313 2009 
L 1997 2009 
L 1997 1497 
L 313 1497 
L 313 2009 
z
" transform="scale(0.015625)"/>
     <path id="DejaVuSans-62" d="M 3116 1747 
Q 3116 2381 2855 2742 
Q 2594 3103 2138 3103 
Q 1681 3103 1420 2742 
Q 1159 2381 1159 1747 
Q 1159 1113 1420 752 
Q 1681 391 2138 391 
Q 2594 391 2855 752 
Q 3116 1113 3116 1747 
z
M 1159 2969 
Q 1341 3281 1617 3432 
Q 1894 3584 2278 3584 
Q 2916 3584 3314 3078 
Q 3713 2572 3713 1747 
Q 3713 922 3314 415 
Q 2916 -91 2278 -91 
Q 1894 -91 1617 61 
Q 1341 213 1159 525 
L 1159 0 
L 581 0 
L 581 4863 
L 1159 4863 
L 1159 2969 
z
" transform="scale(0.015625)"/>
    </defs>
    <use xlink:href="#DejaVuSans-74"/>
    <use xlink:href="#DejaVuSans-75" x="39.208984"/>
    <use xlink:href="#DejaVuSans-69" x="102.587891"/>
    <use xlink:href="#DejaVuSans-64" x="130.371094"/>
    <use xlink:href="#DejaVuSans-3a" x="193.847656"/>
    <use xlink:href="#DejaVuSans-20" x="227.539062"/>
    <use xlink:href="#DejaVuSans-32" x="259.326172"/>
    <use xlink:href="#DejaVuSans-30" x="322.949219"/>
    <use xlink:href="#DejaVuSans-32" x="386.572266"/>
    <use xlink:href="#DejaVuSans-33" x="450.195312"/>
    <use xlink:href="#DejaVuSans-31" x="513.818359"/>
    <use xlink:href="#DejaVuSans-32" x="577.441406"/>
    <use xlink:href="#DejaVuSans-32" x="641.064453"/>
    <use xlink:href="#DejaVuSans-30" x="704.6875"/>
    <use xlink:href="#DejaVuSans-2d" x="768.310547"/>
    <use xlink:href="#DejaVuSans-31" x="804.394531"/>
    <use xlink:href="#DejaVuSans-36" x="868.017578"/>
    <use xlink:href="#DejaVuSans-31" x="931.640625"/>
    <use xlink:href="#DejaVuSans-38" x="995.263672"/>
    <use xlink:href="#DejaVuSans-32" x="1058.886719"/>
    <use xlink:href="#DejaVuSans-37" x="1122.509766"/>
    <use xlink:href="#DejaVuSans-2d" x="1186.132812"/>
    <use xlink:href="#DejaVuSans-31" x="1222.216797"/>
    <use xlink:href="#DejaVuSans-39" x="1285.839844"/>
    <use xlink:href="#DejaVuSans-37" x="1349.462891"/>
    <use xlink:href="#DejaVuSans-2d" x="1413.085938"/>
    <use xlink:href="#DejaVuSans-30" x="1449.169922"/>
    <use xlink:href="#DejaVuSans-30" x="1512.792969"/>
    <use xlink:href="#DejaVuSans-62" x="1576.416016"/>
    <use xlink:href="#DejaVuSans-37" x="1639.892578"/>
    <use xlink:href="#DejaVuSans-34" x="1703.515625"/>
    <use xlink:href="#DejaVuSans-30" x="1767.138672"/>
   </g>
  </g>
 </g>
 <defs>
  <clipPath id="p3505e9e238">
   <rect x="53.75" y="41.76" width="357.12" height="266.112"/>
  </clipPath>
 </defs>
</svg>
