<?xml version="1.0" encoding="utf-8" standalone="no"?>
<!DOCTYPE svg PUBLIC "-//W3C//DTD SVG 1.1//EN"
  "http://www.w3.org/Graphics/SVG/1.1/DTD/svg11.dtd">
<svg xmlns:xlink="http://www.w3.org/1999/xlink" width="571.349437pt" height="345.42825pt" viewBox="0 0 571.349437 345.42825" xmlns="http://www.w3.org/2000/svg" version="1.1">
 <metadata>
  <rdf:RDF xmlns:dc="http://purl.org/dc/elements/1.1/" xmlns:cc="http://creativecommons.org/ns#" xmlns:rdf="http://www.w3.org/1999/02/22-rdf-syntax-ns#">
   <cc:Work>
    <dc:type rdf:resource="http://purl.org/dc/dcmitype/StillImage"/>
    <dc:date>2024-03-11T11:29:03.210097</dc:date>
    <dc:format>image/svg+xml</dc:format>
    <dc:creator>
     <cc:Agent>
      <dc:title>Matplotlib v3.8.2, https://matplotlib.org/</dc:title>
     </cc:Agent>
    </dc:creator>
   </cc:Work>
  </rdf:RDF>
 </metadata>
 <defs>
  <style type="text/css">*{stroke-linejoin: round; stroke-linecap: butt}</style>
 </defs>
 <g id="figure_1">
  <g id="patch_1">
   <path d="M 0 345.42825 
L 571.349437 345.42825 
L 571.349437 -0 
L 0 -0 
L 0 345.42825 
z
" style="fill: none; opacity: 0"/>
  </g>
  <g id="axes_1">
   <g id="patch_2">
    <path d="M 50.573438 307.872 
L 407.693438 307.872 
L 407.693438 41.76 
L 50.573438 41.76 
z
" style="fill: #ffffff"/>
   </g>
   <g id="matplotlib.axis_1">
    <g id="xtick_1">
     <g id="line2d_1">
      <defs>
       <path id="m053d925ba6" d="M 0 0 
L 0 3.5 
" style="stroke: #000000; stroke-width: 0.8"/>
      </defs>
      <g>
       <use xlink:href="#m053d925ba6" x="67.952704" y="307.872" style="stroke: #000000; stroke-width: 0.8"/>
      </g>
     </g>
     <g id="text_1">
      <!-- -300 -->
      <g transform="translate(56.605048 322.470438) scale(0.1 -0.1)">
       <defs>
        <path id="DejaVuSans-2d" d="M 313 2009 
L 1997 2009 
L 1997 1497 
L 313 1497 
L 313 2009 
z
" transform="scale(0.015625)"/>
        <path id="DejaVuSans-33" d="M 2597 2516 
Q 3050 2419 3304 2112 
Q 3559 1806 3559 1356 
Q 3559 666 3084 287 
Q 2609 -91 1734 -91 
Q 1441 -91 1130 -33 
Q 819 25 488 141 
L 488 750 
Q 750 597 1062 519 
Q 1375 441 1716 441 
Q 2309 441 2620 675 
Q 2931 909 2931 1356 
Q 2931 1769 2642 2001 
Q 2353 2234 1838 2234 
L 1294 2234 
L 1294 2753 
L 1863 2753 
Q 2328 2753 2575 2939 
Q 2822 3125 2822 3475 
Q 2822 3834 2567 4026 
Q 2313 4219 1838 4219 
Q 1578 4219 1281 4162 
Q 984 4106 628 3988 
L 628 4550 
Q 988 4650 1302 4700 
Q 1616 4750 1894 4750 
Q 2613 4750 3031 4423 
Q 3450 4097 3450 3541 
Q 3450 3153 3228 2886 
Q 3006 2619 2597 2516 
z
" transform="scale(0.015625)"/>
        <path id="DejaVuSans-30" d="M 2034 4250 
Q 1547 4250 1301 3770 
Q 1056 3291 1056 2328 
Q 1056 1369 1301 889 
Q 1547 409 2034 409 
Q 2525 409 2770 889 
Q 3016 1369 3016 2328 
Q 3016 3291 2770 3770 
Q 2525 4250 2034 4250 
z
M 2034 4750 
Q 2819 4750 3233 4129 
Q 3647 3509 3647 2328 
Q 3647 1150 3233 529 
Q 2819 -91 2034 -91 
Q 1250 -91 836 529 
Q 422 1150 422 2328 
Q 422 3509 836 4129 
Q 1250 4750 2034 4750 
z
" transform="scale(0.015625)"/>
       </defs>
       <use xlink:href="#DejaVuSans-2d"/>
       <use xlink:href="#DejaVuSans-33" x="36.083984"/>
       <use xlink:href="#DejaVuSans-30" x="99.707031"/>
       <use xlink:href="#DejaVuSans-30" x="163.330078"/>
      </g>
     </g>
    </g>
    <g id="xtick_2">
     <g id="line2d_2">
      <g>
       <use xlink:href="#m053d925ba6" x="114.658895" y="307.872" style="stroke: #000000; stroke-width: 0.8"/>
      </g>
     </g>
     <g id="text_2">
      <!-- -250 -->
      <g transform="translate(103.311239 322.470438) scale(0.1 -0.1)">
       <defs>
        <path id="DejaVuSans-32" d="M 1228 531 
L 3431 531 
L 3431 0 
L 469 0 
L 469 531 
Q 828 903 1448 1529 
Q 2069 2156 2228 2338 
Q 2531 2678 2651 2914 
Q 2772 3150 2772 3378 
Q 2772 3750 2511 3984 
Q 2250 4219 1831 4219 
Q 1534 4219 1204 4116 
Q 875 4013 500 3803 
L 500 4441 
Q 881 4594 1212 4672 
Q 1544 4750 1819 4750 
Q 2544 4750 2975 4387 
Q 3406 4025 3406 3419 
Q 3406 3131 3298 2873 
Q 3191 2616 2906 2266 
Q 2828 2175 2409 1742 
Q 1991 1309 1228 531 
z
" transform="scale(0.015625)"/>
        <path id="DejaVuSans-35" d="M 691 4666 
L 3169 4666 
L 3169 4134 
L 1269 4134 
L 1269 2991 
Q 1406 3038 1543 3061 
Q 1681 3084 1819 3084 
Q 2600 3084 3056 2656 
Q 3513 2228 3513 1497 
Q 3513 744 3044 326 
Q 2575 -91 1722 -91 
Q 1428 -91 1123 -41 
Q 819 9 494 109 
L 494 744 
Q 775 591 1075 516 
Q 1375 441 1709 441 
Q 2250 441 2565 725 
Q 2881 1009 2881 1497 
Q 2881 1984 2565 2268 
Q 2250 2553 1709 2553 
Q 1456 2553 1204 2497 
Q 953 2441 691 2322 
L 691 4666 
z
" transform="scale(0.015625)"/>
       </defs>
       <use xlink:href="#DejaVuSans-2d"/>
       <use xlink:href="#DejaVuSans-32" x="36.083984"/>
       <use xlink:href="#DejaVuSans-35" x="99.707031"/>
       <use xlink:href="#DejaVuSans-30" x="163.330078"/>
      </g>
     </g>
    </g>
    <g id="xtick_3">
     <g id="line2d_3">
      <g>
       <use xlink:href="#m053d925ba6" x="161.365086" y="307.872" style="stroke: #000000; stroke-width: 0.8"/>
      </g>
     </g>
     <g id="text_3">
      <!-- -200 -->
      <g transform="translate(150.01743 322.470438) scale(0.1 -0.1)">
       <use xlink:href="#DejaVuSans-2d"/>
       <use xlink:href="#DejaVuSans-32" x="36.083984"/>
       <use xlink:href="#DejaVuSans-30" x="99.707031"/>
       <use xlink:href="#DejaVuSans-30" x="163.330078"/>
      </g>
     </g>
    </g>
    <g id="xtick_4">
     <g id="line2d_4">
      <g>
       <use xlink:href="#m053d925ba6" x="208.071277" y="307.872" style="stroke: #000000; stroke-width: 0.8"/>
      </g>
     </g>
     <g id="text_4">
      <!-- -150 -->
      <g transform="translate(196.723621 322.470438) scale(0.1 -0.1)">
       <defs>
        <path id="DejaVuSans-31" d="M 794 531 
L 1825 531 
L 1825 4091 
L 703 3866 
L 703 4441 
L 1819 4666 
L 2450 4666 
L 2450 531 
L 3481 531 
L 3481 0 
L 794 0 
L 794 531 
z
" transform="scale(0.015625)"/>
       </defs>
       <use xlink:href="#DejaVuSans-2d"/>
       <use xlink:href="#DejaVuSans-31" x="36.083984"/>
       <use xlink:href="#DejaVuSans-35" x="99.707031"/>
       <use xlink:href="#DejaVuSans-30" x="163.330078"/>
      </g>
     </g>
    </g>
    <g id="xtick_5">
     <g id="line2d_5">
      <g>
       <use xlink:href="#m053d925ba6" x="254.777468" y="307.872" style="stroke: #000000; stroke-width: 0.8"/>
      </g>
     </g>
     <g id="text_5">
      <!-- -100 -->
      <g transform="translate(243.429812 322.470438) scale(0.1 -0.1)">
       <use xlink:href="#DejaVuSans-2d"/>
       <use xlink:href="#DejaVuSans-31" x="36.083984"/>
       <use xlink:href="#DejaVuSans-30" x="99.707031"/>
       <use xlink:href="#DejaVuSans-30" x="163.330078"/>
      </g>
     </g>
    </g>
    <g id="xtick_6">
     <g id="line2d_6">
      <g>
       <use xlink:href="#m053d925ba6" x="301.483659" y="307.872" style="stroke: #000000; stroke-width: 0.8"/>
      </g>
     </g>
     <g id="text_6">
      <!-- -50 -->
      <g transform="translate(293.317253 322.470438) scale(0.1 -0.1)">
       <use xlink:href="#DejaVuSans-2d"/>
       <use xlink:href="#DejaVuSans-35" x="36.083984"/>
       <use xlink:href="#DejaVuSans-30" x="99.707031"/>
      </g>
     </g>
    </g>
    <g id="xtick_7">
     <g id="line2d_7">
      <g>
       <use xlink:href="#m053d925ba6" x="348.18985" y="307.872" style="stroke: #000000; stroke-width: 0.8"/>
      </g>
     </g>
     <g id="text_7">
      <!-- 0 -->
      <g transform="translate(345.0086 322.470438) scale(0.1 -0.1)">
       <use xlink:href="#DejaVuSans-30"/>
      </g>
     </g>
    </g>
    <g id="xtick_8">
     <g id="line2d_8">
      <g>
       <use xlink:href="#m053d925ba6" x="394.896041" y="307.872" style="stroke: #000000; stroke-width: 0.8"/>
      </g>
     </g>
     <g id="text_8">
      <!-- 50 -->
      <g transform="translate(388.533541 322.470438) scale(0.1 -0.1)">
       <use xlink:href="#DejaVuSans-35"/>
       <use xlink:href="#DejaVuSans-30" x="63.623047"/>
      </g>
     </g>
    </g>
    <g id="text_9">
     <!-- Re$(S_{21})$ [mV] -->
     <g transform="translate(197.133438 336.148562) scale(0.1 -0.1)">
      <defs>
       <path id="DejaVuSans-52" d="M 2841 2188 
Q 3044 2119 3236 1894 
Q 3428 1669 3622 1275 
L 4263 0 
L 3584 0 
L 2988 1197 
Q 2756 1666 2539 1819 
Q 2322 1972 1947 1972 
L 1259 1972 
L 1259 0 
L 628 0 
L 628 4666 
L 2053 4666 
Q 2853 4666 3247 4331 
Q 3641 3997 3641 3322 
Q 3641 2881 3436 2590 
Q 3231 2300 2841 2188 
z
M 1259 4147 
L 1259 2491 
L 2053 2491 
Q 2509 2491 2742 2702 
Q 2975 2913 2975 3322 
Q 2975 3731 2742 3939 
Q 2509 4147 2053 4147 
L 1259 4147 
z
" transform="scale(0.015625)"/>
       <path id="DejaVuSans-65" d="M 3597 1894 
L 3597 1613 
L 953 1613 
Q 991 1019 1311 708 
Q 1631 397 2203 397 
Q 2534 397 2845 478 
Q 3156 559 3463 722 
L 3463 178 
Q 3153 47 2828 -22 
Q 2503 -91 2169 -91 
Q 1331 -91 842 396 
Q 353 884 353 1716 
Q 353 2575 817 3079 
Q 1281 3584 2069 3584 
Q 2775 3584 3186 3129 
Q 3597 2675 3597 1894 
z
M 3022 2063 
Q 3016 2534 2758 2815 
Q 2500 3097 2075 3097 
Q 1594 3097 1305 2825 
Q 1016 2553 972 2059 
L 3022 2063 
z
" transform="scale(0.015625)"/>
       <path id="DejaVuSans-28" d="M 1984 4856 
Q 1566 4138 1362 3434 
Q 1159 2731 1159 2009 
Q 1159 1288 1364 580 
Q 1569 -128 1984 -844 
L 1484 -844 
Q 1016 -109 783 600 
Q 550 1309 550 2009 
Q 550 2706 781 3412 
Q 1013 4119 1484 4856 
L 1984 4856 
z
" transform="scale(0.015625)"/>
       <path id="DejaVuSans-Oblique-53" d="M 3859 4513 
L 3738 3897 
Q 3422 4066 3111 4152 
Q 2800 4238 2509 4238 
Q 1944 4238 1609 3991 
Q 1275 3744 1275 3334 
Q 1275 3109 1398 2989 
Q 1522 2869 2034 2731 
L 2413 2638 
Q 3053 2472 3303 2217 
Q 3553 1963 3553 1503 
Q 3553 797 2998 353 
Q 2444 -91 1538 -91 
Q 1166 -91 791 -17 
Q 416 56 38 206 
L 166 856 
Q 513 641 861 531 
Q 1209 422 1556 422 
Q 2147 422 2503 684 
Q 2859 947 2859 1369 
Q 2859 1650 2717 1795 
Q 2575 1941 2106 2059 
L 1728 2156 
Q 1081 2325 845 2545 
Q 609 2766 609 3163 
Q 609 3859 1145 4304 
Q 1681 4750 2541 4750 
Q 2875 4750 3203 4690 
Q 3531 4631 3859 4513 
z
" transform="scale(0.015625)"/>
       <path id="DejaVuSans-29" d="M 513 4856 
L 1013 4856 
Q 1481 4119 1714 3412 
Q 1947 2706 1947 2009 
Q 1947 1309 1714 600 
Q 1481 -109 1013 -844 
L 513 -844 
Q 928 -128 1133 580 
Q 1338 1288 1338 2009 
Q 1338 2731 1133 3434 
Q 928 4138 513 4856 
z
" transform="scale(0.015625)"/>
       <path id="DejaVuSans-20" transform="scale(0.015625)"/>
       <path id="DejaVuSans-5b" d="M 550 4863 
L 1875 4863 
L 1875 4416 
L 1125 4416 
L 1125 -397 
L 1875 -397 
L 1875 -844 
L 550 -844 
L 550 4863 
z
" transform="scale(0.015625)"/>
       <path id="DejaVuSans-6d" d="M 3328 2828 
Q 3544 3216 3844 3400 
Q 4144 3584 4550 3584 
Q 5097 3584 5394 3201 
Q 5691 2819 5691 2113 
L 5691 0 
L 5113 0 
L 5113 2094 
Q 5113 2597 4934 2840 
Q 4756 3084 4391 3084 
Q 3944 3084 3684 2787 
Q 3425 2491 3425 1978 
L 3425 0 
L 2847 0 
L 2847 2094 
Q 2847 2600 2669 2842 
Q 2491 3084 2119 3084 
Q 1678 3084 1418 2786 
Q 1159 2488 1159 1978 
L 1159 0 
L 581 0 
L 581 3500 
L 1159 3500 
L 1159 2956 
Q 1356 3278 1631 3431 
Q 1906 3584 2284 3584 
Q 2666 3584 2933 3390 
Q 3200 3197 3328 2828 
z
" transform="scale(0.015625)"/>
       <path id="DejaVuSans-56" d="M 1831 0 
L 50 4666 
L 709 4666 
L 2188 738 
L 3669 4666 
L 4325 4666 
L 2547 0 
L 1831 0 
z
" transform="scale(0.015625)"/>
       <path id="DejaVuSans-5d" d="M 1947 4863 
L 1947 -844 
L 622 -844 
L 622 -397 
L 1369 -397 
L 1369 4416 
L 622 4416 
L 622 4863 
L 1947 4863 
z
" transform="scale(0.015625)"/>
      </defs>
      <use xlink:href="#DejaVuSans-52" transform="translate(0 0.015625)"/>
      <use xlink:href="#DejaVuSans-65" transform="translate(69.482422 0.015625)"/>
      <use xlink:href="#DejaVuSans-28" transform="translate(131.005859 0.015625)"/>
      <use xlink:href="#DejaVuSans-Oblique-53" transform="translate(170.019531 0.015625)"/>
      <use xlink:href="#DejaVuSans-32" transform="translate(233.496094 -16.390625) scale(0.7)"/>
      <use xlink:href="#DejaVuSans-31" transform="translate(278.032227 -16.390625) scale(0.7)"/>
      <use xlink:href="#DejaVuSans-29" transform="translate(325.302734 0.015625)"/>
      <use xlink:href="#DejaVuSans-20" transform="translate(364.316406 0.015625)"/>
      <use xlink:href="#DejaVuSans-5b" transform="translate(396.103516 0.015625)"/>
      <use xlink:href="#DejaVuSans-6d" transform="translate(435.117188 0.015625)"/>
      <use xlink:href="#DejaVuSans-56" transform="translate(532.529297 0.015625)"/>
      <use xlink:href="#DejaVuSans-5d" transform="translate(600.9375 0.015625)"/>
     </g>
    </g>
   </g>
   <g id="matplotlib.axis_2">
    <g id="ytick_1">
     <g id="line2d_9">
      <defs>
       <path id="m1e48b5c6fb" d="M 0 0 
L -3.5 0 
" style="stroke: #000000; stroke-width: 0.8"/>
      </defs>
      <g>
       <use xlink:href="#m1e48b5c6fb" x="50.573438" y="266.031241" style="stroke: #000000; stroke-width: 0.8"/>
      </g>
     </g>
     <g id="text_10">
      <!-- -200 -->
      <g transform="translate(20.878125 269.830459) scale(0.1 -0.1)">
       <use xlink:href="#DejaVuSans-2d"/>
       <use xlink:href="#DejaVuSans-32" x="36.083984"/>
       <use xlink:href="#DejaVuSans-30" x="99.707031"/>
       <use xlink:href="#DejaVuSans-30" x="163.330078"/>
      </g>
     </g>
    </g>
    <g id="ytick_2">
     <g id="line2d_10">
      <g>
       <use xlink:href="#m1e48b5c6fb" x="50.573438" y="220.14153" style="stroke: #000000; stroke-width: 0.8"/>
      </g>
     </g>
     <g id="text_11">
      <!-- -100 -->
      <g transform="translate(20.878125 223.940748) scale(0.1 -0.1)">
       <use xlink:href="#DejaVuSans-2d"/>
       <use xlink:href="#DejaVuSans-31" x="36.083984"/>
       <use xlink:href="#DejaVuSans-30" x="99.707031"/>
       <use xlink:href="#DejaVuSans-30" x="163.330078"/>
      </g>
     </g>
    </g>
    <g id="ytick_3">
     <g id="line2d_11">
      <g>
       <use xlink:href="#m1e48b5c6fb" x="50.573438" y="174.251819" style="stroke: #000000; stroke-width: 0.8"/>
      </g>
     </g>
     <g id="text_12">
      <!-- 0 -->
      <g transform="translate(37.210938 178.051037) scale(0.1 -0.1)">
       <use xlink:href="#DejaVuSans-30"/>
      </g>
     </g>
    </g>
    <g id="ytick_4">
     <g id="line2d_12">
      <g>
       <use xlink:href="#m1e48b5c6fb" x="50.573438" y="128.362107" style="stroke: #000000; stroke-width: 0.8"/>
      </g>
     </g>
     <g id="text_13">
      <!-- 100 -->
      <g transform="translate(24.485938 132.161326) scale(0.1 -0.1)">
       <use xlink:href="#DejaVuSans-31"/>
       <use xlink:href="#DejaVuSans-30" x="63.623047"/>
       <use xlink:href="#DejaVuSans-30" x="127.246094"/>
      </g>
     </g>
    </g>
    <g id="ytick_5">
     <g id="line2d_13">
      <g>
       <use xlink:href="#m1e48b5c6fb" x="50.573438" y="82.472396" style="stroke: #000000; stroke-width: 0.8"/>
      </g>
     </g>
     <g id="text_14">
      <!-- 200 -->
      <g transform="translate(24.485938 86.271615) scale(0.1 -0.1)">
       <use xlink:href="#DejaVuSans-32"/>
       <use xlink:href="#DejaVuSans-30" x="63.623047"/>
       <use xlink:href="#DejaVuSans-30" x="127.246094"/>
      </g>
     </g>
    </g>
    <g id="text_15">
     <!-- Im$(S_{21})$ [mV] -->
     <g transform="translate(14.798438 206.466) rotate(-90) scale(0.1 -0.1)">
      <defs>
       <path id="DejaVuSans-49" d="M 628 4666 
L 1259 4666 
L 1259 0 
L 628 0 
L 628 4666 
z
" transform="scale(0.015625)"/>
      </defs>
      <use xlink:href="#DejaVuSans-49" transform="translate(0 0.015625)"/>
      <use xlink:href="#DejaVuSans-6d" transform="translate(25.867188 0.015625)"/>
      <use xlink:href="#DejaVuSans-28" transform="translate(123.279297 0.015625)"/>
      <use xlink:href="#DejaVuSans-Oblique-53" transform="translate(162.292969 0.015625)"/>
      <use xlink:href="#DejaVuSans-32" transform="translate(225.769531 -16.390625) scale(0.7)"/>
      <use xlink:href="#DejaVuSans-31" transform="translate(270.305664 -16.390625) scale(0.7)"/>
      <use xlink:href="#DejaVuSans-29" transform="translate(317.576172 0.015625)"/>
      <use xlink:href="#DejaVuSans-20" transform="translate(356.589844 0.015625)"/>
      <use xlink:href="#DejaVuSans-5b" transform="translate(388.376953 0.015625)"/>
      <use xlink:href="#DejaVuSans-6d" transform="translate(427.390625 0.015625)"/>
      <use xlink:href="#DejaVuSans-56" transform="translate(524.802734 0.015625)"/>
      <use xlink:href="#DejaVuSans-5d" transform="translate(593.210938 0.015625)"/>
     </g>
    </g>
   </g>
   <g id="line2d_14">
    <path d="M 386.560181 281.790474 
L 363.847084 285.417424 
L 355.692285 286.025838 
L 339.968479 286.564366 
L 320.562601 286.165943 
L 312.916591 285.856444 
L 309.246463 285.721904 
L 305.392364 285.387837 
L 297.727652 284.966479 
L 290.372394 284.310571 
L 282.791036 283.659309 
L 279.138535 283.243885 
L 275.499437 282.71796 
L 267.878607 281.885937 
L 256.684904 280.312327 
L 238.133924 276.939214 
L 230.729184 275.480918 
L 216.337906 272.103127 
L 205.476212 269.190197 
L 191.40656 264.865607 
L 187.943391 263.574044 
L 180.857506 261.156298 
L 170.52718 257.262757 
L 157.053445 251.432735 
L 143.795976 245.009232 
L 140.880473 243.223507 
L 137.617761 241.530683 
L 131.125265 237.831686 
L 121.976153 231.89505 
L 116.028407 227.741981 
L 109.861568 223.24515 
L 106.81699 220.881045 
L 100.853214 215.835885 
L 91.707375 207.294516 
L 88.681253 204.136898 
L 82.5927 196.990338 
L 79.470233 192.962786 
L 76.367573 188.515267 
L 73.558646 183.542442 
L 70.839422 177.904987 
L 68.338175 171.291034 
L 66.806165 163.358185 
L 67.475991 153.955848 
L 71.054283 142.258809 
L 81.635318 127.393952 
L 107.734122 110.90356 
L 156.747586 99.11734 
L 220.628326 102.005174 
L 275.197468 123.026507 
L 297.003364 154.406161 
L 283.86965 181.311252 
L 252.21896 197.366339 
L 220.605272 202.897271 
L 197.015224 203.309175 
L 179.273618 201.715012 
L 165.386898 199.216835 
L 154.651185 196.138411 
L 146.355353 192.898572 
L 139.699153 189.778366 
L 134.274484 186.609086 
L 129.856347 183.543759 
L 126.335734 180.457504 
L 123.205339 177.52794 
L 120.662878 174.516936 
L 118.618273 171.676953 
L 115.537015 166.015761 
L 113.883403 160.66848 
L 113.406481 157.968145 
L 112.934804 152.793446 
L 112.951135 150.248136 
L 113.558762 145.266848 
L 114.793687 140.430065 
L 115.670124 137.929502 
L 116.672513 135.613202 
L 117.934994 133.339521 
L 118.873045 130.966267 
L 124.88287 122.036702 
L 126.737659 119.990994 
L 128.370506 117.732633 
L 134.63557 111.464995 
L 136.942881 109.543065 
L 139.119374 107.488548 
L 149.06523 99.858364 
L 151.714948 98.030633 
L 157.367295 94.396904 
L 169.627046 87.541643 
L 179.570537 82.832646 
L 186.425127 79.878937 
L 193.454309 77.140988 
L 200.775655 74.436296 
L 215.849724 69.756606 
L 219.69544 68.626842 
L 227.449936 66.639639 
L 243.315547 62.984375 
L 255.328142 60.734698 
L 267.313739 58.823695 
L 279.610673 57.241364 
L 287.730452 56.356669 
L 308.072031 54.776159 
L 320.073795 54.230957 
L 340.152577 53.872506 
L 347.948071 53.902909 
L 347.948071 53.902909 
" clip-path="url(#p58bb83eb16)" style="fill: none; stroke: #1f77b4; stroke-width: 1.5; stroke-linecap: square"/>
    <defs>
     <path id="m2754dd6517" d="M 0 1.5 
C 0.397805 1.5 0.77937 1.341951 1.06066 1.06066 
C 1.341951 0.77937 1.5 0.397805 1.5 0 
C 1.5 -0.397805 1.341951 -0.77937 1.06066 -1.06066 
C 0.77937 -1.341951 0.397805 -1.5 0 -1.5 
C -0.397805 -1.5 -0.77937 -1.341951 -1.06066 -1.06066 
C -1.341951 -0.77937 -1.5 -0.397805 -1.5 0 
C -1.5 0.397805 -1.341951 0.77937 -1.06066 1.06066 
C -0.77937 1.341951 -0.397805 1.5 0 1.5 
z
" style="stroke: #1f77b4"/>
    </defs>
    <g clip-path="url(#p58bb83eb16)">
     <use xlink:href="#m2754dd6517" x="386.560181" y="281.790474" style="fill: #1f77b4; stroke: #1f77b4"/>
     <use xlink:href="#m2754dd6517" x="382.80779" y="282.400625" style="fill: #1f77b4; stroke: #1f77b4"/>
     <use xlink:href="#m2754dd6517" x="379.327401" y="282.987786" style="fill: #1f77b4; stroke: #1f77b4"/>
     <use xlink:href="#m2754dd6517" x="375.713184" y="283.511176" style="fill: #1f77b4; stroke: #1f77b4"/>
     <use xlink:href="#m2754dd6517" x="372.04768" y="284.219362" style="fill: #1f77b4; stroke: #1f77b4"/>
     <use xlink:href="#m2754dd6517" x="368.347439" y="284.816013" style="fill: #1f77b4; stroke: #1f77b4"/>
     <use xlink:href="#m2754dd6517" x="363.847084" y="285.417424" style="fill: #1f77b4; stroke: #1f77b4"/>
     <use xlink:href="#m2754dd6517" x="359.605193" y="285.790621" style="fill: #1f77b4; stroke: #1f77b4"/>
     <use xlink:href="#m2754dd6517" x="355.692285" y="286.025838" style="fill: #1f77b4; stroke: #1f77b4"/>
     <use xlink:href="#m2754dd6517" x="351.377302" y="286.177331" style="fill: #1f77b4; stroke: #1f77b4"/>
     <use xlink:href="#m2754dd6517" x="347.57516" y="286.299637" style="fill: #1f77b4; stroke: #1f77b4"/>
     <use xlink:href="#m2754dd6517" x="343.912733" y="286.442791" style="fill: #1f77b4; stroke: #1f77b4"/>
     <use xlink:href="#m2754dd6517" x="339.968479" y="286.564366" style="fill: #1f77b4; stroke: #1f77b4"/>
     <use xlink:href="#m2754dd6517" x="335.818895" y="286.496633" style="fill: #1f77b4; stroke: #1f77b4"/>
     <use xlink:href="#m2754dd6517" x="332.157471" y="286.498823" style="fill: #1f77b4; stroke: #1f77b4"/>
     <use xlink:href="#m2754dd6517" x="328.196811" y="286.43466" style="fill: #1f77b4; stroke: #1f77b4"/>
     <use xlink:href="#m2754dd6517" x="324.286752" y="286.363401" style="fill: #1f77b4; stroke: #1f77b4"/>
     <use xlink:href="#m2754dd6517" x="320.562601" y="286.165943" style="fill: #1f77b4; stroke: #1f77b4"/>
     <use xlink:href="#m2754dd6517" x="316.671659" y="286.058195" style="fill: #1f77b4; stroke: #1f77b4"/>
     <use xlink:href="#m2754dd6517" x="312.916591" y="285.856444" style="fill: #1f77b4; stroke: #1f77b4"/>
     <use xlink:href="#m2754dd6517" x="309.246463" y="285.721904" style="fill: #1f77b4; stroke: #1f77b4"/>
     <use xlink:href="#m2754dd6517" x="305.392364" y="285.387837" style="fill: #1f77b4; stroke: #1f77b4"/>
     <use xlink:href="#m2754dd6517" x="301.617984" y="285.205015" style="fill: #1f77b4; stroke: #1f77b4"/>
     <use xlink:href="#m2754dd6517" x="297.727652" y="284.966479" style="fill: #1f77b4; stroke: #1f77b4"/>
     <use xlink:href="#m2754dd6517" x="294.228084" y="284.630958" style="fill: #1f77b4; stroke: #1f77b4"/>
     <use xlink:href="#m2754dd6517" x="290.372394" y="284.310571" style="fill: #1f77b4; stroke: #1f77b4"/>
     <use xlink:href="#m2754dd6517" x="286.549043" y="284.02548" style="fill: #1f77b4; stroke: #1f77b4"/>
     <use xlink:href="#m2754dd6517" x="282.791036" y="283.659309" style="fill: #1f77b4; stroke: #1f77b4"/>
     <use xlink:href="#m2754dd6517" x="279.138535" y="283.243885" style="fill: #1f77b4; stroke: #1f77b4"/>
     <use xlink:href="#m2754dd6517" x="275.499437" y="282.71796" style="fill: #1f77b4; stroke: #1f77b4"/>
     <use xlink:href="#m2754dd6517" x="271.568806" y="282.343011" style="fill: #1f77b4; stroke: #1f77b4"/>
     <use xlink:href="#m2754dd6517" x="267.878607" y="281.885937" style="fill: #1f77b4; stroke: #1f77b4"/>
     <use xlink:href="#m2754dd6517" x="264.242332" y="281.372149" style="fill: #1f77b4; stroke: #1f77b4"/>
     <use xlink:href="#m2754dd6517" x="260.417349" y="280.82997" style="fill: #1f77b4; stroke: #1f77b4"/>
     <use xlink:href="#m2754dd6517" x="256.684904" y="280.312327" style="fill: #1f77b4; stroke: #1f77b4"/>
     <use xlink:href="#m2754dd6517" x="252.919227" y="279.650087" style="fill: #1f77b4; stroke: #1f77b4"/>
     <use xlink:href="#m2754dd6517" x="249.117588" y="279.072335" style="fill: #1f77b4; stroke: #1f77b4"/>
     <use xlink:href="#m2754dd6517" x="245.550115" y="278.451125" style="fill: #1f77b4; stroke: #1f77b4"/>
     <use xlink:href="#m2754dd6517" x="241.748073" y="277.72764" style="fill: #1f77b4; stroke: #1f77b4"/>
     <use xlink:href="#m2754dd6517" x="238.133924" y="276.939214" style="fill: #1f77b4; stroke: #1f77b4"/>
     <use xlink:href="#m2754dd6517" x="234.442648" y="276.242194" style="fill: #1f77b4; stroke: #1f77b4"/>
     <use xlink:href="#m2754dd6517" x="230.729184" y="275.480918" style="fill: #1f77b4; stroke: #1f77b4"/>
     <use xlink:href="#m2754dd6517" x="227.149389" y="274.651812" style="fill: #1f77b4; stroke: #1f77b4"/>
     <use xlink:href="#m2754dd6517" x="223.513975" y="273.815323" style="fill: #1f77b4; stroke: #1f77b4"/>
     <use xlink:href="#m2754dd6517" x="220.026387" y="272.998513" style="fill: #1f77b4; stroke: #1f77b4"/>
     <use xlink:href="#m2754dd6517" x="216.337906" y="272.103127" style="fill: #1f77b4; stroke: #1f77b4"/>
     <use xlink:href="#m2754dd6517" x="212.717646" y="271.163037" style="fill: #1f77b4; stroke: #1f77b4"/>
     <use xlink:href="#m2754dd6517" x="209.096847" y="270.12963" style="fill: #1f77b4; stroke: #1f77b4"/>
     <use xlink:href="#m2754dd6517" x="205.476212" y="269.190197" style="fill: #1f77b4; stroke: #1f77b4"/>
     <use xlink:href="#m2754dd6517" x="201.920886" y="268.106659" style="fill: #1f77b4; stroke: #1f77b4"/>
     <use xlink:href="#m2754dd6517" x="198.488652" y="267.008589" style="fill: #1f77b4; stroke: #1f77b4"/>
     <use xlink:href="#m2754dd6517" x="194.723448" y="265.892729" style="fill: #1f77b4; stroke: #1f77b4"/>
     <use xlink:href="#m2754dd6517" x="191.40656" y="264.865607" style="fill: #1f77b4; stroke: #1f77b4"/>
     <use xlink:href="#m2754dd6517" x="187.943391" y="263.574044" style="fill: #1f77b4; stroke: #1f77b4"/>
     <use xlink:href="#m2754dd6517" x="184.389437" y="262.373575" style="fill: #1f77b4; stroke: #1f77b4"/>
     <use xlink:href="#m2754dd6517" x="180.857506" y="261.156298" style="fill: #1f77b4; stroke: #1f77b4"/>
     <use xlink:href="#m2754dd6517" x="177.504905" y="259.908636" style="fill: #1f77b4; stroke: #1f77b4"/>
     <use xlink:href="#m2754dd6517" x="173.866684" y="258.521916" style="fill: #1f77b4; stroke: #1f77b4"/>
     <use xlink:href="#m2754dd6517" x="170.52718" y="257.262757" style="fill: #1f77b4; stroke: #1f77b4"/>
     <use xlink:href="#m2754dd6517" x="167.250063" y="255.866719" style="fill: #1f77b4; stroke: #1f77b4"/>
     <use xlink:href="#m2754dd6517" x="163.716561" y="254.427666" style="fill: #1f77b4; stroke: #1f77b4"/>
     <use xlink:href="#m2754dd6517" x="160.480698" y="252.926583" style="fill: #1f77b4; stroke: #1f77b4"/>
     <use xlink:href="#m2754dd6517" x="157.053445" y="251.432735" style="fill: #1f77b4; stroke: #1f77b4"/>
     <use xlink:href="#m2754dd6517" x="153.773251" y="249.829939" style="fill: #1f77b4; stroke: #1f77b4"/>
     <use xlink:href="#m2754dd6517" x="150.518137" y="248.306403" style="fill: #1f77b4; stroke: #1f77b4"/>
     <use xlink:href="#m2754dd6517" x="147.115878" y="246.658437" style="fill: #1f77b4; stroke: #1f77b4"/>
     <use xlink:href="#m2754dd6517" x="143.795976" y="245.009232" style="fill: #1f77b4; stroke: #1f77b4"/>
     <use xlink:href="#m2754dd6517" x="140.880473" y="243.223507" style="fill: #1f77b4; stroke: #1f77b4"/>
     <use xlink:href="#m2754dd6517" x="137.617761" y="241.530683" style="fill: #1f77b4; stroke: #1f77b4"/>
     <use xlink:href="#m2754dd6517" x="134.460235" y="239.716008" style="fill: #1f77b4; stroke: #1f77b4"/>
     <use xlink:href="#m2754dd6517" x="131.125265" y="237.831686" style="fill: #1f77b4; stroke: #1f77b4"/>
     <use xlink:href="#m2754dd6517" x="128.129274" y="235.919028" style="fill: #1f77b4; stroke: #1f77b4"/>
     <use xlink:href="#m2754dd6517" x="125.027826" y="233.974987" style="fill: #1f77b4; stroke: #1f77b4"/>
     <use xlink:href="#m2754dd6517" x="121.976153" y="231.89505" style="fill: #1f77b4; stroke: #1f77b4"/>
     <use xlink:href="#m2754dd6517" x="119.063997" y="229.90176" style="fill: #1f77b4; stroke: #1f77b4"/>
     <use xlink:href="#m2754dd6517" x="116.028407" y="227.741981" style="fill: #1f77b4; stroke: #1f77b4"/>
     <use xlink:href="#m2754dd6517" x="113.027355" y="225.588059" style="fill: #1f77b4; stroke: #1f77b4"/>
     <use xlink:href="#m2754dd6517" x="109.861568" y="223.24515" style="fill: #1f77b4; stroke: #1f77b4"/>
     <use xlink:href="#m2754dd6517" x="106.81699" y="220.881045" style="fill: #1f77b4; stroke: #1f77b4"/>
     <use xlink:href="#m2754dd6517" x="103.89094" y="218.38618" style="fill: #1f77b4; stroke: #1f77b4"/>
     <use xlink:href="#m2754dd6517" x="100.853214" y="215.835885" style="fill: #1f77b4; stroke: #1f77b4"/>
     <use xlink:href="#m2754dd6517" x="97.928928" y="213.118952" style="fill: #1f77b4; stroke: #1f77b4"/>
     <use xlink:href="#m2754dd6517" x="94.847883" y="210.33315" style="fill: #1f77b4; stroke: #1f77b4"/>
     <use xlink:href="#m2754dd6517" x="91.707375" y="207.294516" style="fill: #1f77b4; stroke: #1f77b4"/>
     <use xlink:href="#m2754dd6517" x="88.681253" y="204.136898" style="fill: #1f77b4; stroke: #1f77b4"/>
     <use xlink:href="#m2754dd6517" x="85.665909" y="200.576952" style="fill: #1f77b4; stroke: #1f77b4"/>
     <use xlink:href="#m2754dd6517" x="82.5927" y="196.990338" style="fill: #1f77b4; stroke: #1f77b4"/>
     <use xlink:href="#m2754dd6517" x="79.470233" y="192.962786" style="fill: #1f77b4; stroke: #1f77b4"/>
     <use xlink:href="#m2754dd6517" x="76.367573" y="188.515267" style="fill: #1f77b4; stroke: #1f77b4"/>
     <use xlink:href="#m2754dd6517" x="73.558646" y="183.542442" style="fill: #1f77b4; stroke: #1f77b4"/>
     <use xlink:href="#m2754dd6517" x="70.839422" y="177.904987" style="fill: #1f77b4; stroke: #1f77b4"/>
     <use xlink:href="#m2754dd6517" x="68.338175" y="171.291034" style="fill: #1f77b4; stroke: #1f77b4"/>
     <use xlink:href="#m2754dd6517" x="66.806165" y="163.358185" style="fill: #1f77b4; stroke: #1f77b4"/>
     <use xlink:href="#m2754dd6517" x="67.475991" y="153.955848" style="fill: #1f77b4; stroke: #1f77b4"/>
     <use xlink:href="#m2754dd6517" x="71.054283" y="142.258809" style="fill: #1f77b4; stroke: #1f77b4"/>
     <use xlink:href="#m2754dd6517" x="81.635318" y="127.393952" style="fill: #1f77b4; stroke: #1f77b4"/>
     <use xlink:href="#m2754dd6517" x="107.734122" y="110.90356" style="fill: #1f77b4; stroke: #1f77b4"/>
     <use xlink:href="#m2754dd6517" x="156.747586" y="99.11734" style="fill: #1f77b4; stroke: #1f77b4"/>
     <use xlink:href="#m2754dd6517" x="220.628326" y="102.005174" style="fill: #1f77b4; stroke: #1f77b4"/>
     <use xlink:href="#m2754dd6517" x="275.197468" y="123.026507" style="fill: #1f77b4; stroke: #1f77b4"/>
     <use xlink:href="#m2754dd6517" x="297.003364" y="154.406161" style="fill: #1f77b4; stroke: #1f77b4"/>
     <use xlink:href="#m2754dd6517" x="283.86965" y="181.311252" style="fill: #1f77b4; stroke: #1f77b4"/>
     <use xlink:href="#m2754dd6517" x="252.21896" y="197.366339" style="fill: #1f77b4; stroke: #1f77b4"/>
     <use xlink:href="#m2754dd6517" x="220.605272" y="202.897271" style="fill: #1f77b4; stroke: #1f77b4"/>
     <use xlink:href="#m2754dd6517" x="197.015224" y="203.309175" style="fill: #1f77b4; stroke: #1f77b4"/>
     <use xlink:href="#m2754dd6517" x="179.273618" y="201.715012" style="fill: #1f77b4; stroke: #1f77b4"/>
     <use xlink:href="#m2754dd6517" x="165.386898" y="199.216835" style="fill: #1f77b4; stroke: #1f77b4"/>
     <use xlink:href="#m2754dd6517" x="154.651185" y="196.138411" style="fill: #1f77b4; stroke: #1f77b4"/>
     <use xlink:href="#m2754dd6517" x="146.355353" y="192.898572" style="fill: #1f77b4; stroke: #1f77b4"/>
     <use xlink:href="#m2754dd6517" x="139.699153" y="189.778366" style="fill: #1f77b4; stroke: #1f77b4"/>
     <use xlink:href="#m2754dd6517" x="134.274484" y="186.609086" style="fill: #1f77b4; stroke: #1f77b4"/>
     <use xlink:href="#m2754dd6517" x="129.856347" y="183.543759" style="fill: #1f77b4; stroke: #1f77b4"/>
     <use xlink:href="#m2754dd6517" x="126.335734" y="180.457504" style="fill: #1f77b4; stroke: #1f77b4"/>
     <use xlink:href="#m2754dd6517" x="123.205339" y="177.52794" style="fill: #1f77b4; stroke: #1f77b4"/>
     <use xlink:href="#m2754dd6517" x="120.662878" y="174.516936" style="fill: #1f77b4; stroke: #1f77b4"/>
     <use xlink:href="#m2754dd6517" x="118.618273" y="171.676953" style="fill: #1f77b4; stroke: #1f77b4"/>
     <use xlink:href="#m2754dd6517" x="117.119998" y="168.808996" style="fill: #1f77b4; stroke: #1f77b4"/>
     <use xlink:href="#m2754dd6517" x="115.537015" y="166.015761" style="fill: #1f77b4; stroke: #1f77b4"/>
     <use xlink:href="#m2754dd6517" x="114.672708" y="163.263132" style="fill: #1f77b4; stroke: #1f77b4"/>
     <use xlink:href="#m2754dd6517" x="113.883403" y="160.66848" style="fill: #1f77b4; stroke: #1f77b4"/>
     <use xlink:href="#m2754dd6517" x="113.406481" y="157.968145" style="fill: #1f77b4; stroke: #1f77b4"/>
     <use xlink:href="#m2754dd6517" x="113.11954" y="155.361437" style="fill: #1f77b4; stroke: #1f77b4"/>
     <use xlink:href="#m2754dd6517" x="112.934804" y="152.793446" style="fill: #1f77b4; stroke: #1f77b4"/>
     <use xlink:href="#m2754dd6517" x="112.951135" y="150.248136" style="fill: #1f77b4; stroke: #1f77b4"/>
     <use xlink:href="#m2754dd6517" x="113.20679" y="147.696605" style="fill: #1f77b4; stroke: #1f77b4"/>
     <use xlink:href="#m2754dd6517" x="113.558762" y="145.266848" style="fill: #1f77b4; stroke: #1f77b4"/>
     <use xlink:href="#m2754dd6517" x="114.199748" y="142.783377" style="fill: #1f77b4; stroke: #1f77b4"/>
     <use xlink:href="#m2754dd6517" x="114.793687" y="140.430065" style="fill: #1f77b4; stroke: #1f77b4"/>
     <use xlink:href="#m2754dd6517" x="115.670124" y="137.929502" style="fill: #1f77b4; stroke: #1f77b4"/>
     <use xlink:href="#m2754dd6517" x="116.672513" y="135.613202" style="fill: #1f77b4; stroke: #1f77b4"/>
     <use xlink:href="#m2754dd6517" x="117.934994" y="133.339521" style="fill: #1f77b4; stroke: #1f77b4"/>
     <use xlink:href="#m2754dd6517" x="118.873045" y="130.966267" style="fill: #1f77b4; stroke: #1f77b4"/>
     <use xlink:href="#m2754dd6517" x="120.384917" y="128.692058" style="fill: #1f77b4; stroke: #1f77b4"/>
     <use xlink:href="#m2754dd6517" x="121.723939" y="126.513183" style="fill: #1f77b4; stroke: #1f77b4"/>
     <use xlink:href="#m2754dd6517" x="123.335118" y="124.262037" style="fill: #1f77b4; stroke: #1f77b4"/>
     <use xlink:href="#m2754dd6517" x="124.88287" y="122.036702" style="fill: #1f77b4; stroke: #1f77b4"/>
     <use xlink:href="#m2754dd6517" x="126.737659" y="119.990994" style="fill: #1f77b4; stroke: #1f77b4"/>
     <use xlink:href="#m2754dd6517" x="128.370506" y="117.732633" style="fill: #1f77b4; stroke: #1f77b4"/>
     <use xlink:href="#m2754dd6517" x="130.439415" y="115.626034" style="fill: #1f77b4; stroke: #1f77b4"/>
     <use xlink:href="#m2754dd6517" x="132.474668" y="113.650062" style="fill: #1f77b4; stroke: #1f77b4"/>
     <use xlink:href="#m2754dd6517" x="134.63557" y="111.464995" style="fill: #1f77b4; stroke: #1f77b4"/>
     <use xlink:href="#m2754dd6517" x="136.942881" y="109.543065" style="fill: #1f77b4; stroke: #1f77b4"/>
     <use xlink:href="#m2754dd6517" x="139.119374" y="107.488548" style="fill: #1f77b4; stroke: #1f77b4"/>
     <use xlink:href="#m2754dd6517" x="141.580038" y="105.584007" style="fill: #1f77b4; stroke: #1f77b4"/>
     <use xlink:href="#m2754dd6517" x="144.081011" y="103.637758" style="fill: #1f77b4; stroke: #1f77b4"/>
     <use xlink:href="#m2754dd6517" x="146.514833" y="101.724137" style="fill: #1f77b4; stroke: #1f77b4"/>
     <use xlink:href="#m2754dd6517" x="149.06523" y="99.858364" style="fill: #1f77b4; stroke: #1f77b4"/>
     <use xlink:href="#m2754dd6517" x="151.714948" y="98.030633" style="fill: #1f77b4; stroke: #1f77b4"/>
     <use xlink:href="#m2754dd6517" x="154.64961" y="96.153447" style="fill: #1f77b4; stroke: #1f77b4"/>
     <use xlink:href="#m2754dd6517" x="157.367295" y="94.396904" style="fill: #1f77b4; stroke: #1f77b4"/>
     <use xlink:href="#m2754dd6517" x="160.442918" y="92.654809" style="fill: #1f77b4; stroke: #1f77b4"/>
     <use xlink:href="#m2754dd6517" x="163.346439" y="90.897403" style="fill: #1f77b4; stroke: #1f77b4"/>
     <use xlink:href="#m2754dd6517" x="166.523465" y="89.198242" style="fill: #1f77b4; stroke: #1f77b4"/>
     <use xlink:href="#m2754dd6517" x="169.627046" y="87.541643" style="fill: #1f77b4; stroke: #1f77b4"/>
     <use xlink:href="#m2754dd6517" x="172.912085" y="85.950509" style="fill: #1f77b4; stroke: #1f77b4"/>
     <use xlink:href="#m2754dd6517" x="176.262098" y="84.42095" style="fill: #1f77b4; stroke: #1f77b4"/>
     <use xlink:href="#m2754dd6517" x="179.570537" y="82.832646" style="fill: #1f77b4; stroke: #1f77b4"/>
     <use xlink:href="#m2754dd6517" x="182.935268" y="81.353195" style="fill: #1f77b4; stroke: #1f77b4"/>
     <use xlink:href="#m2754dd6517" x="186.425127" y="79.878937" style="fill: #1f77b4; stroke: #1f77b4"/>
     <use xlink:href="#m2754dd6517" x="189.829418" y="78.513214" style="fill: #1f77b4; stroke: #1f77b4"/>
     <use xlink:href="#m2754dd6517" x="193.454309" y="77.140988" style="fill: #1f77b4; stroke: #1f77b4"/>
     <use xlink:href="#m2754dd6517" x="197.201433" y="75.781316" style="fill: #1f77b4; stroke: #1f77b4"/>
     <use xlink:href="#m2754dd6517" x="200.775655" y="74.436296" style="fill: #1f77b4; stroke: #1f77b4"/>
     <use xlink:href="#m2754dd6517" x="204.566799" y="73.24866" style="fill: #1f77b4; stroke: #1f77b4"/>
     <use xlink:href="#m2754dd6517" x="208.25535" y="72.04448" style="fill: #1f77b4; stroke: #1f77b4"/>
     <use xlink:href="#m2754dd6517" x="212.002467" y="70.928502" style="fill: #1f77b4; stroke: #1f77b4"/>
     <use xlink:href="#m2754dd6517" x="215.849724" y="69.756606" style="fill: #1f77b4; stroke: #1f77b4"/>
     <use xlink:href="#m2754dd6517" x="219.69544" y="68.626842" style="fill: #1f77b4; stroke: #1f77b4"/>
     <use xlink:href="#m2754dd6517" x="223.599061" y="67.599405" style="fill: #1f77b4; stroke: #1f77b4"/>
     <use xlink:href="#m2754dd6517" x="227.449936" y="66.639639" style="fill: #1f77b4; stroke: #1f77b4"/>
     <use xlink:href="#m2754dd6517" x="231.398955" y="65.701855" style="fill: #1f77b4; stroke: #1f77b4"/>
     <use xlink:href="#m2754dd6517" x="235.149514" y="64.703354" style="fill: #1f77b4; stroke: #1f77b4"/>
     <use xlink:href="#m2754dd6517" x="239.173936" y="63.855865" style="fill: #1f77b4; stroke: #1f77b4"/>
     <use xlink:href="#m2754dd6517" x="243.315547" y="62.984375" style="fill: #1f77b4; stroke: #1f77b4"/>
     <use xlink:href="#m2754dd6517" x="247.28088" y="62.216403" style="fill: #1f77b4; stroke: #1f77b4"/>
     <use xlink:href="#m2754dd6517" x="251.195818" y="61.460306" style="fill: #1f77b4; stroke: #1f77b4"/>
     <use xlink:href="#m2754dd6517" x="255.328142" y="60.734698" style="fill: #1f77b4; stroke: #1f77b4"/>
     <use xlink:href="#m2754dd6517" x="259.204957" y="60.099122" style="fill: #1f77b4; stroke: #1f77b4"/>
     <use xlink:href="#m2754dd6517" x="263.34982" y="59.391382" style="fill: #1f77b4; stroke: #1f77b4"/>
     <use xlink:href="#m2754dd6517" x="267.313739" y="58.823695" style="fill: #1f77b4; stroke: #1f77b4"/>
     <use xlink:href="#m2754dd6517" x="271.496193" y="58.24886" style="fill: #1f77b4; stroke: #1f77b4"/>
     <use xlink:href="#m2754dd6517" x="275.572058" y="57.722032" style="fill: #1f77b4; stroke: #1f77b4"/>
     <use xlink:href="#m2754dd6517" x="279.610673" y="57.241364" style="fill: #1f77b4; stroke: #1f77b4"/>
     <use xlink:href="#m2754dd6517" x="283.74173" y="56.785489" style="fill: #1f77b4; stroke: #1f77b4"/>
     <use xlink:href="#m2754dd6517" x="287.730452" y="56.356669" style="fill: #1f77b4; stroke: #1f77b4"/>
     <use xlink:href="#m2754dd6517" x="291.905783" y="56.021726" style="fill: #1f77b4; stroke: #1f77b4"/>
     <use xlink:href="#m2754dd6517" x="295.956398" y="55.643634" style="fill: #1f77b4; stroke: #1f77b4"/>
     <use xlink:href="#m2754dd6517" x="299.849397" y="55.33196" style="fill: #1f77b4; stroke: #1f77b4"/>
     <use xlink:href="#m2754dd6517" x="304.0236" y="55.052981" style="fill: #1f77b4; stroke: #1f77b4"/>
     <use xlink:href="#m2754dd6517" x="308.072031" y="54.776159" style="fill: #1f77b4; stroke: #1f77b4"/>
     <use xlink:href="#m2754dd6517" x="312.082452" y="54.56471" style="fill: #1f77b4; stroke: #1f77b4"/>
     <use xlink:href="#m2754dd6517" x="316.120675" y="54.403699" style="fill: #1f77b4; stroke: #1f77b4"/>
     <use xlink:href="#m2754dd6517" x="320.073795" y="54.230957" style="fill: #1f77b4; stroke: #1f77b4"/>
     <use xlink:href="#m2754dd6517" x="323.913847" y="54.141352" style="fill: #1f77b4; stroke: #1f77b4"/>
     <use xlink:href="#m2754dd6517" x="328.222347" y="54.000666" style="fill: #1f77b4; stroke: #1f77b4"/>
     <use xlink:href="#m2754dd6517" x="332.111313" y="53.862319" style="fill: #1f77b4; stroke: #1f77b4"/>
     <use xlink:href="#m2754dd6517" x="336.114608" y="53.856" style="fill: #1f77b4; stroke: #1f77b4"/>
     <use xlink:href="#m2754dd6517" x="340.152577" y="53.872506" style="fill: #1f77b4; stroke: #1f77b4"/>
     <use xlink:href="#m2754dd6517" x="344.051905" y="53.885464" style="fill: #1f77b4; stroke: #1f77b4"/>
     <use xlink:href="#m2754dd6517" x="347.948071" y="53.902909" style="fill: #1f77b4; stroke: #1f77b4"/>
    </g>
   </g>
   <g id="line2d_15">
    <path d="M 391.46071 293.697712 
L 380.697041 294.565182 
L 369.854208 295.200944 
L 358.95201 295.603261 
L 348.01031 295.770791 
L 337.048986 295.702577 
L 326.087889 295.398043 
L 315.146795 294.856988 
L 304.245355 294.079566 
L 293.403047 293.066284 
L 283.463899 291.922316 
L 273.60647 290.578972 
L 263.845447 289.037342 
L 254.19523 287.2987 
L 244.669889 285.364475 
L 235.283117 283.236217 
L 226.048174 280.915558 
L 216.977832 278.40416 
L 208.084303 275.703652 
L 199.379165 272.81555 
L 190.873273 269.741155 
L 183.259815 266.760129 
L 175.829234 263.623728 
L 168.587772 260.331791 
L 161.540778 256.883449 
L 154.692556 253.276863 
L 148.046185 249.508865 
L 142.180587 245.939197 
L 136.483159 242.226529 
L 130.9525 238.363031 
L 125.585568 234.337692 
L 120.37741 230.135065 
L 115.819971 226.183316 
L 111.378565 222.048397 
L 107.044898 217.699681 
L 103.275731 213.620147 
L 99.578226 209.295279 
L 96.398671 205.263253 
L 93.272853 200.941696 
L 90.644299 196.948035 
L 88.080905 192.614916 
L 86.020944 188.676224 
L 84.450923 185.257297 
L 82.987353 181.545346 
L 81.992164 178.52994 
L 81.123096 175.277864 
L 80.430944 171.746359 
L 80.102881 169.211409 
L 79.915028 166.511005 
L 79.905636 163.62436 
L 80.124431 160.527946 
L 80.636363 157.195413 
L 81.526663 153.597759 
L 82.907625 149.703999 
L 83.826765 147.636217 
L 84.92764 145.482752 
L 86.236377 143.240138 
L 87.783007 140.90542 
L 89.602005 138.476428 
L 91.732865 135.952148 
L 94.2207 133.333198 
L 97.116814 130.622448 
L 100.479202 127.825831 
L 104.372878 124.953347 
L 108.869908 122.020342 
L 114.048931 119.049055 
L 119.993912 116.070471 
L 126.791764 113.126446 
L 134.528372 110.272015 
L 143.282511 107.577698 
L 153.117114 105.131452 
L 164.067529 103.039722 
L 176.126723 101.426827 
L 189.228187 100.431697 
L 203.228371 100.200974 
L 217.891956 100.877704 
L 232.884612 102.585657 
L 247.778552 105.410565 
L 262.075098 109.381204 
L 275.245215 114.454673 
L 286.783694 120.510458 
L 296.267242 127.356528 
L 303.403698 134.747583 
L 308.060914 142.412027 
L 310.269542 150.081637 
L 310.201501 157.517556 
L 308.132035 164.528079 
L 304.395757 170.976596 
L 299.345828 176.780782 
L 293.322027 181.905696 
L 286.629707 186.353775 
L 279.528875 190.154211 
L 272.231134 193.353334 
L 264.901893 196.006786 
L 257.66553 198.173684 
L 250.611816 199.912591 
L 243.802448 201.278964 
L 237.277062 202.323719 
L 231.058434 203.092581 
L 225.156775 203.62596 
L 219.573171 203.959144 
L 214.302275 204.122678 
L 209.334362 204.142832 
L 200.255575 203.839614 
L 192.220865 203.192276 
L 185.10862 202.303886 
L 178.803292 201.248524 
L 173.200423 200.079351 
L 168.20813 198.834505 
L 163.746832 197.541351 
L 157.903757 195.552389 
L 152.913689 193.541906 
L 148.626471 191.536487 
L 144.923358 189.551741 
L 141.709973 187.596459 
L 138.910826 185.675182 
L 135.71958 183.169426 
L 133.044316 180.727667 
L 130.797901 178.347577 
L 128.912668 176.025586 
L 127.335428 173.757668 
L 126.023892 171.539759 
L 124.706984 168.831808 
L 123.699918 166.189003 
L 122.961528 163.605194 
L 122.459232 161.075019 
L 122.166915 158.593855 
L 122.063788 155.675603 
L 122.203294 152.816457 
L 122.561919 150.011645 
L 123.120645 147.257236 
L 124.004772 144.103188 
L 125.119937 141.009242 
L 126.449647 137.97215 
L 127.98025 134.989378 
L 129.960891 131.644536 
L 132.174607 128.365966 
L 134.609207 125.152172 
L 137.254203 122.002184 
L 140.469936 118.53405 
L 143.928847 115.145722 
L 147.620662 111.837368 
L 151.536062 108.609497 
L 156.138317 105.118319 
L 160.995045 101.728833 
L 166.095912 98.442649 
L 171.431049 95.26155 
L 176.990932 92.187452 
L 183.355315 88.931913 
L 189.968296 85.810988 
L 196.817909 82.827433 
L 203.892273 79.983995 
L 211.179542 77.283379 
L 219.358177 74.503242 
L 227.76064 71.899524 
L 236.371415 69.475376 
L 245.174887 67.233775 
L 254.155328 65.177494 
L 263.296901 63.309094 
L 272.583651 61.630902 
L 281.999517 60.145 
L 291.528338 58.853214 
L 301.153869 57.757104 
L 311.671731 56.791954 
L 322.263113 56.05922 
L 332.907142 55.559772 
L 343.582919 55.294075 
L 345.226832 55.273955 
L 345.226832 55.273955 
" clip-path="url(#p58bb83eb16)" style="fill: none; stroke: #d62728; stroke-width: 1.5; stroke-linecap: square"/>
   </g>
   <g id="patch_3">
    <path d="M 50.573438 307.872 
L 50.573438 41.76 
" style="fill: none; stroke: #000000; stroke-width: 0.8; stroke-linejoin: miter; stroke-linecap: square"/>
   </g>
   <g id="patch_4">
    <path d="M 407.693438 307.872 
L 407.693438 41.76 
" style="fill: none; stroke: #000000; stroke-width: 0.8; stroke-linejoin: miter; stroke-linecap: square"/>
   </g>
   <g id="patch_5">
    <path d="M 50.573438 307.872 
L 407.693438 307.872 
" style="fill: none; stroke: #000000; stroke-width: 0.8; stroke-linejoin: miter; stroke-linecap: square"/>
   </g>
   <g id="patch_6">
    <path d="M 50.573438 41.76 
L 407.693438 41.76 
" style="fill: none; stroke: #000000; stroke-width: 0.8; stroke-linejoin: miter; stroke-linecap: square"/>
   </g>
   <g id="text_16">
    <g id="patch_7">
     <path d="M 425.549438 102.337163 
L 564.149437 102.337163 
Q 568.149437 102.337163 568.149437 98.337163 
L 568.149437 55.0656 
Q 568.149437 51.0656 564.149437 51.0656 
L 425.549438 51.0656 
Q 421.549438 51.0656 421.549438 55.0656 
L 421.549438 98.337163 
Q 421.549438 102.337163 425.549438 102.337163 
z
" style="fill: #ffffff; opacity: 0.5; stroke: #000000; stroke-linejoin: miter"/>
    </g>
    <!-- Summary -->
    <g transform="translate(425.549438 62.664038) scale(0.1 -0.1)">
     <defs>
      <path id="DejaVuSans-53" d="M 3425 4513 
L 3425 3897 
Q 3066 4069 2747 4153 
Q 2428 4238 2131 4238 
Q 1616 4238 1336 4038 
Q 1056 3838 1056 3469 
Q 1056 3159 1242 3001 
Q 1428 2844 1947 2747 
L 2328 2669 
Q 3034 2534 3370 2195 
Q 3706 1856 3706 1288 
Q 3706 609 3251 259 
Q 2797 -91 1919 -91 
Q 1588 -91 1214 -16 
Q 841 59 441 206 
L 441 856 
Q 825 641 1194 531 
Q 1563 422 1919 422 
Q 2459 422 2753 634 
Q 3047 847 3047 1241 
Q 3047 1584 2836 1778 
Q 2625 1972 2144 2069 
L 1759 2144 
Q 1053 2284 737 2584 
Q 422 2884 422 3419 
Q 422 4038 858 4394 
Q 1294 4750 2059 4750 
Q 2388 4750 2728 4690 
Q 3069 4631 3425 4513 
z
" transform="scale(0.015625)"/>
      <path id="DejaVuSans-75" d="M 544 1381 
L 544 3500 
L 1119 3500 
L 1119 1403 
Q 1119 906 1312 657 
Q 1506 409 1894 409 
Q 2359 409 2629 706 
Q 2900 1003 2900 1516 
L 2900 3500 
L 3475 3500 
L 3475 0 
L 2900 0 
L 2900 538 
Q 2691 219 2414 64 
Q 2138 -91 1772 -91 
Q 1169 -91 856 284 
Q 544 659 544 1381 
z
M 1991 3584 
L 1991 3584 
z
" transform="scale(0.015625)"/>
      <path id="DejaVuSans-61" d="M 2194 1759 
Q 1497 1759 1228 1600 
Q 959 1441 959 1056 
Q 959 750 1161 570 
Q 1363 391 1709 391 
Q 2188 391 2477 730 
Q 2766 1069 2766 1631 
L 2766 1759 
L 2194 1759 
z
M 3341 1997 
L 3341 0 
L 2766 0 
L 2766 531 
Q 2569 213 2275 61 
Q 1981 -91 1556 -91 
Q 1019 -91 701 211 
Q 384 513 384 1019 
Q 384 1609 779 1909 
Q 1175 2209 1959 2209 
L 2766 2209 
L 2766 2266 
Q 2766 2663 2505 2880 
Q 2244 3097 1772 3097 
Q 1472 3097 1187 3025 
Q 903 2953 641 2809 
L 641 3341 
Q 956 3463 1253 3523 
Q 1550 3584 1831 3584 
Q 2591 3584 2966 3190 
Q 3341 2797 3341 1997 
z
" transform="scale(0.015625)"/>
      <path id="DejaVuSans-72" d="M 2631 2963 
Q 2534 3019 2420 3045 
Q 2306 3072 2169 3072 
Q 1681 3072 1420 2755 
Q 1159 2438 1159 1844 
L 1159 0 
L 581 0 
L 581 3500 
L 1159 3500 
L 1159 2956 
Q 1341 3275 1631 3429 
Q 1922 3584 2338 3584 
Q 2397 3584 2469 3576 
Q 2541 3569 2628 3553 
L 2631 2963 
z
" transform="scale(0.015625)"/>
      <path id="DejaVuSans-79" d="M 2059 -325 
Q 1816 -950 1584 -1140 
Q 1353 -1331 966 -1331 
L 506 -1331 
L 506 -850 
L 844 -850 
Q 1081 -850 1212 -737 
Q 1344 -625 1503 -206 
L 1606 56 
L 191 3500 
L 800 3500 
L 1894 763 
L 2988 3500 
L 3597 3500 
L 2059 -325 
z
" transform="scale(0.015625)"/>
     </defs>
     <use xlink:href="#DejaVuSans-53"/>
     <use xlink:href="#DejaVuSans-75" x="63.476562"/>
     <use xlink:href="#DejaVuSans-6d" x="126.855469"/>
     <use xlink:href="#DejaVuSans-6d" x="224.267578"/>
     <use xlink:href="#DejaVuSans-61" x="321.679688"/>
     <use xlink:href="#DejaVuSans-72" x="382.958984"/>
     <use xlink:href="#DejaVuSans-79" x="424.072266"/>
    </g>
    <!-- $Q_I$: 36.0$\pm$3.8 k -->
    <g transform="translate(425.549438 73.86185) scale(0.1 -0.1)">
     <defs>
      <path id="DejaVuSans-Oblique-51" d="M 2309 -84 
Q 2275 -88 2237 -89 
Q 2200 -91 2125 -91 
Q 1250 -91 756 411 
Q 263 913 263 1797 
Q 263 2319 452 2844 
Q 641 3369 978 3788 
Q 1369 4269 1858 4509 
Q 2347 4750 2938 4750 
Q 3794 4750 4287 4245 
Q 4781 3741 4781 2869 
Q 4781 1928 4265 1147 
Q 3750 366 2919 44 
L 3553 -825 
L 2847 -825 
L 2309 -84 
z
M 2919 4238 
Q 2400 4238 2003 3986 
Q 1606 3734 1313 3219 
Q 1125 2891 1026 2522 
Q 928 2153 928 1778 
Q 928 1128 1239 775 
Q 1550 422 2119 422 
Q 2631 422 3032 676 
Q 3434 931 3719 1434 
Q 3909 1772 4009 2142 
Q 4109 2513 4109 2881 
Q 4109 3528 3796 3883 
Q 3484 4238 2919 4238 
z
" transform="scale(0.015625)"/>
      <path id="DejaVuSans-Oblique-49" d="M 1081 4666 
L 1716 4666 
L 806 0 
L 172 0 
L 1081 4666 
z
" transform="scale(0.015625)"/>
      <path id="DejaVuSans-3a" d="M 750 794 
L 1409 794 
L 1409 0 
L 750 0 
L 750 794 
z
M 750 3309 
L 1409 3309 
L 1409 2516 
L 750 2516 
L 750 3309 
z
" transform="scale(0.015625)"/>
      <path id="DejaVuSans-36" d="M 2113 2584 
Q 1688 2584 1439 2293 
Q 1191 2003 1191 1497 
Q 1191 994 1439 701 
Q 1688 409 2113 409 
Q 2538 409 2786 701 
Q 3034 994 3034 1497 
Q 3034 2003 2786 2293 
Q 2538 2584 2113 2584 
z
M 3366 4563 
L 3366 3988 
Q 3128 4100 2886 4159 
Q 2644 4219 2406 4219 
Q 1781 4219 1451 3797 
Q 1122 3375 1075 2522 
Q 1259 2794 1537 2939 
Q 1816 3084 2150 3084 
Q 2853 3084 3261 2657 
Q 3669 2231 3669 1497 
Q 3669 778 3244 343 
Q 2819 -91 2113 -91 
Q 1303 -91 875 529 
Q 447 1150 447 2328 
Q 447 3434 972 4092 
Q 1497 4750 2381 4750 
Q 2619 4750 2861 4703 
Q 3103 4656 3366 4563 
z
" transform="scale(0.015625)"/>
      <path id="DejaVuSans-2e" d="M 684 794 
L 1344 794 
L 1344 0 
L 684 0 
L 684 794 
z
" transform="scale(0.015625)"/>
      <path id="DejaVuSans-b1" d="M 2944 4013 
L 2944 2803 
L 4684 2803 
L 4684 2272 
L 2944 2272 
L 2944 1063 
L 2419 1063 
L 2419 2272 
L 678 2272 
L 678 2803 
L 2419 2803 
L 2419 4013 
L 2944 4013 
z
M 678 531 
L 4684 531 
L 4684 0 
L 678 0 
L 678 531 
z
" transform="scale(0.015625)"/>
      <path id="DejaVuSans-38" d="M 2034 2216 
Q 1584 2216 1326 1975 
Q 1069 1734 1069 1313 
Q 1069 891 1326 650 
Q 1584 409 2034 409 
Q 2484 409 2743 651 
Q 3003 894 3003 1313 
Q 3003 1734 2745 1975 
Q 2488 2216 2034 2216 
z
M 1403 2484 
Q 997 2584 770 2862 
Q 544 3141 544 3541 
Q 544 4100 942 4425 
Q 1341 4750 2034 4750 
Q 2731 4750 3128 4425 
Q 3525 4100 3525 3541 
Q 3525 3141 3298 2862 
Q 3072 2584 2669 2484 
Q 3125 2378 3379 2068 
Q 3634 1759 3634 1313 
Q 3634 634 3220 271 
Q 2806 -91 2034 -91 
Q 1263 -91 848 271 
Q 434 634 434 1313 
Q 434 1759 690 2068 
Q 947 2378 1403 2484 
z
M 1172 3481 
Q 1172 3119 1398 2916 
Q 1625 2713 2034 2713 
Q 2441 2713 2670 2916 
Q 2900 3119 2900 3481 
Q 2900 3844 2670 4047 
Q 2441 4250 2034 4250 
Q 1625 4250 1398 4047 
Q 1172 3844 1172 3481 
z
" transform="scale(0.015625)"/>
      <path id="DejaVuSans-6b" d="M 581 4863 
L 1159 4863 
L 1159 1991 
L 2875 3500 
L 3609 3500 
L 1753 1863 
L 3688 0 
L 2938 0 
L 1159 1709 
L 1159 0 
L 581 0 
L 581 4863 
z
" transform="scale(0.015625)"/>
     </defs>
     <use xlink:href="#DejaVuSans-Oblique-51" transform="translate(0 0.015625)"/>
     <use xlink:href="#DejaVuSans-Oblique-49" transform="translate(78.710938 -16.390625) scale(0.7)"/>
     <use xlink:href="#DejaVuSans-3a" transform="translate(102.089844 0.015625)"/>
     <use xlink:href="#DejaVuSans-20" transform="translate(135.78125 0.015625)"/>
     <use xlink:href="#DejaVuSans-33" transform="translate(167.568359 0.015625)"/>
     <use xlink:href="#DejaVuSans-36" transform="translate(231.191406 0.015625)"/>
     <use xlink:href="#DejaVuSans-2e" transform="translate(294.814453 0.015625)"/>
     <use xlink:href="#DejaVuSans-30" transform="translate(326.601562 0.015625)"/>
     <use xlink:href="#DejaVuSans-b1" transform="translate(390.224609 0.015625)"/>
     <use xlink:href="#DejaVuSans-33" transform="translate(474.013672 0.015625)"/>
     <use xlink:href="#DejaVuSans-2e" transform="translate(537.636719 0.015625)"/>
     <use xlink:href="#DejaVuSans-38" transform="translate(566.798828 0.015625)"/>
     <use xlink:href="#DejaVuSans-20" transform="translate(630.421875 0.015625)"/>
     <use xlink:href="#DejaVuSans-6b" transform="translate(662.208984 0.015625)"/>
    </g>
    <!-- $Q_C$: 8.84$\pm$0.20 k -->
    <g transform="translate(425.549438 85.059663) scale(0.1 -0.1)">
     <defs>
      <path id="DejaVuSans-Oblique-43" d="M 4447 4306 
L 4319 3641 
Q 4019 3944 3683 4091 
Q 3347 4238 2956 4238 
Q 2422 4238 2017 3981 
Q 1613 3725 1319 3200 
Q 1131 2863 1032 2486 
Q 934 2109 934 1728 
Q 934 1091 1264 756 
Q 1594 422 2222 422 
Q 2656 422 3056 561 
Q 3456 700 3834 978 
L 3688 231 
Q 3316 72 2936 -9 
Q 2556 -91 2175 -91 
Q 1278 -91 773 396 
Q 269 884 269 1753 
Q 269 2309 461 2846 
Q 653 3384 1013 3828 
Q 1394 4300 1883 4525 
Q 2372 4750 3022 4750 
Q 3422 4750 3780 4639 
Q 4138 4528 4447 4306 
z
" transform="scale(0.015625)"/>
      <path id="DejaVuSans-34" d="M 2419 4116 
L 825 1625 
L 2419 1625 
L 2419 4116 
z
M 2253 4666 
L 3047 4666 
L 3047 1625 
L 3713 1625 
L 3713 1100 
L 3047 1100 
L 3047 0 
L 2419 0 
L 2419 1100 
L 313 1100 
L 313 1709 
L 2253 4666 
z
" transform="scale(0.015625)"/>
     </defs>
     <use xlink:href="#DejaVuSans-Oblique-51" transform="translate(0 0.015625)"/>
     <use xlink:href="#DejaVuSans-Oblique-43" transform="translate(78.710938 -16.390625) scale(0.7)"/>
     <use xlink:href="#DejaVuSans-3a" transform="translate(130.322266 0.015625)"/>
     <use xlink:href="#DejaVuSans-20" transform="translate(164.013672 0.015625)"/>
     <use xlink:href="#DejaVuSans-38" transform="translate(195.800781 0.015625)"/>
     <use xlink:href="#DejaVuSans-2e" transform="translate(259.423828 0.015625)"/>
     <use xlink:href="#DejaVuSans-38" transform="translate(288.585938 0.015625)"/>
     <use xlink:href="#DejaVuSans-34" transform="translate(352.208984 0.015625)"/>
     <use xlink:href="#DejaVuSans-b1" transform="translate(415.832031 0.015625)"/>
     <use xlink:href="#DejaVuSans-30" transform="translate(499.621094 0.015625)"/>
     <use xlink:href="#DejaVuSans-2e" transform="translate(563.244141 0.015625)"/>
     <use xlink:href="#DejaVuSans-32" transform="translate(589.53125 0.015625)"/>
     <use xlink:href="#DejaVuSans-30" transform="translate(653.154297 0.015625)"/>
     <use xlink:href="#DejaVuSans-20" transform="translate(716.777344 0.015625)"/>
     <use xlink:href="#DejaVuSans-6b" transform="translate(748.564453 0.015625)"/>
    </g>
    <!-- $f_{res}$: 5.720931$\pm$1.1e-05 GHz -->
    <g transform="translate(425.549438 96.257475) scale(0.1 -0.1)">
     <defs>
      <path id="DejaVuSans-Oblique-66" d="M 3059 4863 
L 2969 4384 
L 2419 4384 
Q 2106 4384 1964 4261 
Q 1822 4138 1753 3809 
L 1691 3500 
L 2638 3500 
L 2553 3053 
L 1606 3053 
L 1013 0 
L 434 0 
L 1031 3053 
L 481 3053 
L 563 3500 
L 1113 3500 
L 1159 3744 
Q 1278 4363 1576 4613 
Q 1875 4863 2516 4863 
L 3059 4863 
z
" transform="scale(0.015625)"/>
      <path id="DejaVuSans-Oblique-72" d="M 2853 2969 
Q 2766 3016 2653 3041 
Q 2541 3066 2413 3066 
Q 1953 3066 1609 2717 
Q 1266 2369 1153 1784 
L 800 0 
L 225 0 
L 909 3500 
L 1484 3500 
L 1375 2956 
Q 1603 3259 1920 3421 
Q 2238 3584 2597 3584 
Q 2691 3584 2781 3573 
Q 2872 3563 2963 3538 
L 2853 2969 
z
" transform="scale(0.015625)"/>
      <path id="DejaVuSans-Oblique-65" d="M 3078 2063 
Q 3088 2113 3092 2166 
Q 3097 2219 3097 2272 
Q 3097 2653 2873 2875 
Q 2650 3097 2266 3097 
Q 1838 3097 1509 2826 
Q 1181 2556 1013 2059 
L 3078 2063 
z
M 3578 1613 
L 903 1613 
Q 884 1494 878 1425 
Q 872 1356 872 1306 
Q 872 872 1139 634 
Q 1406 397 1894 397 
Q 2269 397 2603 481 
Q 2938 566 3225 728 
L 3116 159 
Q 2806 34 2476 -28 
Q 2147 -91 1806 -91 
Q 1078 -91 686 257 
Q 294 606 294 1247 
Q 294 1794 489 2264 
Q 684 2734 1063 3103 
Q 1306 3334 1642 3459 
Q 1978 3584 2356 3584 
Q 2950 3584 3301 3228 
Q 3653 2872 3653 2272 
Q 3653 2128 3634 1964 
Q 3616 1800 3578 1613 
z
" transform="scale(0.015625)"/>
      <path id="DejaVuSans-Oblique-73" d="M 3200 3397 
L 3091 2853 
Q 2863 2978 2609 3040 
Q 2356 3103 2088 3103 
Q 1634 3103 1373 2948 
Q 1113 2794 1113 2528 
Q 1113 2219 1719 2053 
Q 1766 2041 1788 2034 
L 1972 1978 
Q 2547 1819 2739 1644 
Q 2931 1469 2931 1166 
Q 2931 609 2489 259 
Q 2047 -91 1331 -91 
Q 1053 -91 747 -37 
Q 441 16 72 128 
L 184 722 
Q 500 559 806 475 
Q 1113 391 1394 391 
Q 1816 391 2080 572 
Q 2344 753 2344 1031 
Q 2344 1331 1650 1516 
L 1591 1531 
L 1394 1581 
Q 956 1697 753 1886 
Q 550 2075 550 2369 
Q 550 2928 970 3256 
Q 1391 3584 2113 3584 
Q 2397 3584 2667 3537 
Q 2938 3491 3200 3397 
z
" transform="scale(0.015625)"/>
      <path id="DejaVuSans-37" d="M 525 4666 
L 3525 4666 
L 3525 4397 
L 1831 0 
L 1172 0 
L 2766 4134 
L 525 4134 
L 525 4666 
z
" transform="scale(0.015625)"/>
      <path id="DejaVuSans-39" d="M 703 97 
L 703 672 
Q 941 559 1184 500 
Q 1428 441 1663 441 
Q 2288 441 2617 861 
Q 2947 1281 2994 2138 
Q 2813 1869 2534 1725 
Q 2256 1581 1919 1581 
Q 1219 1581 811 2004 
Q 403 2428 403 3163 
Q 403 3881 828 4315 
Q 1253 4750 1959 4750 
Q 2769 4750 3195 4129 
Q 3622 3509 3622 2328 
Q 3622 1225 3098 567 
Q 2575 -91 1691 -91 
Q 1453 -91 1209 -44 
Q 966 3 703 97 
z
M 1959 2075 
Q 2384 2075 2632 2365 
Q 2881 2656 2881 3163 
Q 2881 3666 2632 3958 
Q 2384 4250 1959 4250 
Q 1534 4250 1286 3958 
Q 1038 3666 1038 3163 
Q 1038 2656 1286 2365 
Q 1534 2075 1959 2075 
z
" transform="scale(0.015625)"/>
      <path id="DejaVuSans-47" d="M 3809 666 
L 3809 1919 
L 2778 1919 
L 2778 2438 
L 4434 2438 
L 4434 434 
Q 4069 175 3628 42 
Q 3188 -91 2688 -91 
Q 1594 -91 976 548 
Q 359 1188 359 2328 
Q 359 3472 976 4111 
Q 1594 4750 2688 4750 
Q 3144 4750 3555 4637 
Q 3966 4525 4313 4306 
L 4313 3634 
Q 3963 3931 3569 4081 
Q 3175 4231 2741 4231 
Q 1884 4231 1454 3753 
Q 1025 3275 1025 2328 
Q 1025 1384 1454 906 
Q 1884 428 2741 428 
Q 3075 428 3337 486 
Q 3600 544 3809 666 
z
" transform="scale(0.015625)"/>
      <path id="DejaVuSans-48" d="M 628 4666 
L 1259 4666 
L 1259 2753 
L 3553 2753 
L 3553 4666 
L 4184 4666 
L 4184 0 
L 3553 0 
L 3553 2222 
L 1259 2222 
L 1259 0 
L 628 0 
L 628 4666 
z
" transform="scale(0.015625)"/>
      <path id="DejaVuSans-7a" d="M 353 3500 
L 3084 3500 
L 3084 2975 
L 922 459 
L 3084 459 
L 3084 0 
L 275 0 
L 275 525 
L 2438 3041 
L 353 3041 
L 353 3500 
z
" transform="scale(0.015625)"/>
     </defs>
     <use xlink:href="#DejaVuSans-Oblique-66" transform="translate(0 0.015625)"/>
     <use xlink:href="#DejaVuSans-Oblique-72" transform="translate(35.205078 -16.390625) scale(0.7)"/>
     <use xlink:href="#DejaVuSans-Oblique-65" transform="translate(63.984375 -16.390625) scale(0.7)"/>
     <use xlink:href="#DejaVuSans-Oblique-73" transform="translate(107.050781 -16.390625) scale(0.7)"/>
     <use xlink:href="#DejaVuSans-3a" transform="translate(146.254883 0.015625)"/>
     <use xlink:href="#DejaVuSans-20" transform="translate(179.946289 0.015625)"/>
     <use xlink:href="#DejaVuSans-35" transform="translate(211.733398 0.015625)"/>
     <use xlink:href="#DejaVuSans-2e" transform="translate(275.356445 0.015625)"/>
     <use xlink:href="#DejaVuSans-37" transform="translate(299.393555 0.015625)"/>
     <use xlink:href="#DejaVuSans-32" transform="translate(363.016602 0.015625)"/>
     <use xlink:href="#DejaVuSans-30" transform="translate(426.639648 0.015625)"/>
     <use xlink:href="#DejaVuSans-39" transform="translate(490.262695 0.015625)"/>
     <use xlink:href="#DejaVuSans-33" transform="translate(553.885742 0.015625)"/>
     <use xlink:href="#DejaVuSans-31" transform="translate(617.508789 0.015625)"/>
     <use xlink:href="#DejaVuSans-b1" transform="translate(681.131836 0.015625)"/>
     <use xlink:href="#DejaVuSans-31" transform="translate(764.920898 0.015625)"/>
     <use xlink:href="#DejaVuSans-2e" transform="translate(828.543945 0.015625)"/>
     <use xlink:href="#DejaVuSans-31" transform="translate(860.331055 0.015625)"/>
     <use xlink:href="#DejaVuSans-65" transform="translate(923.954102 0.015625)"/>
     <use xlink:href="#DejaVuSans-2d" transform="translate(985.477539 0.015625)"/>
     <use xlink:href="#DejaVuSans-30" transform="translate(1021.561523 0.015625)"/>
     <use xlink:href="#DejaVuSans-35" transform="translate(1085.18457 0.015625)"/>
     <use xlink:href="#DejaVuSans-20" transform="translate(1148.807617 0.015625)"/>
     <use xlink:href="#DejaVuSans-47" transform="translate(1180.594727 0.015625)"/>
     <use xlink:href="#DejaVuSans-48" transform="translate(1258.084961 0.015625)"/>
     <use xlink:href="#DejaVuSans-7a" transform="translate(1333.280273 0.015625)"/>
    </g>
   </g>
  </g>
  <g id="text_17">
   <!-- S21 One-tone -->
   <g transform="translate(182.1225 16.318125) scale(0.12 -0.12)">
    <defs>
     <path id="DejaVuSans-4f" d="M 2522 4238 
Q 1834 4238 1429 3725 
Q 1025 3213 1025 2328 
Q 1025 1447 1429 934 
Q 1834 422 2522 422 
Q 3209 422 3611 934 
Q 4013 1447 4013 2328 
Q 4013 3213 3611 3725 
Q 3209 4238 2522 4238 
z
M 2522 4750 
Q 3503 4750 4090 4092 
Q 4678 3434 4678 2328 
Q 4678 1225 4090 567 
Q 3503 -91 2522 -91 
Q 1538 -91 948 565 
Q 359 1222 359 2328 
Q 359 3434 948 4092 
Q 1538 4750 2522 4750 
z
" transform="scale(0.015625)"/>
     <path id="DejaVuSans-6e" d="M 3513 2113 
L 3513 0 
L 2938 0 
L 2938 2094 
Q 2938 2591 2744 2837 
Q 2550 3084 2163 3084 
Q 1697 3084 1428 2787 
Q 1159 2491 1159 1978 
L 1159 0 
L 581 0 
L 581 3500 
L 1159 3500 
L 1159 2956 
Q 1366 3272 1645 3428 
Q 1925 3584 2291 3584 
Q 2894 3584 3203 3211 
Q 3513 2838 3513 2113 
z
" transform="scale(0.015625)"/>
     <path id="DejaVuSans-74" d="M 1172 4494 
L 1172 3500 
L 2356 3500 
L 2356 3053 
L 1172 3053 
L 1172 1153 
Q 1172 725 1289 603 
Q 1406 481 1766 481 
L 2356 481 
L 2356 0 
L 1766 0 
Q 1100 0 847 248 
Q 594 497 594 1153 
L 594 3053 
L 172 3053 
L 172 3500 
L 594 3500 
L 594 4494 
L 1172 4494 
z
" transform="scale(0.015625)"/>
     <path id="DejaVuSans-6f" d="M 1959 3097 
Q 1497 3097 1228 2736 
Q 959 2375 959 1747 
Q 959 1119 1226 758 
Q 1494 397 1959 397 
Q 2419 397 2687 759 
Q 2956 1122 2956 1747 
Q 2956 2369 2687 2733 
Q 2419 3097 1959 3097 
z
M 1959 3584 
Q 2709 3584 3137 3096 
Q 3566 2609 3566 1747 
Q 3566 888 3137 398 
Q 2709 -91 1959 -91 
Q 1206 -91 779 398 
Q 353 888 353 1747 
Q 353 2609 779 3096 
Q 1206 3584 1959 3584 
z
" transform="scale(0.015625)"/>
    </defs>
    <use xlink:href="#DejaVuSans-53"/>
    <use xlink:href="#DejaVuSans-32" x="63.476562"/>
    <use xlink:href="#DejaVuSans-31" x="127.099609"/>
    <use xlink:href="#DejaVuSans-20" x="190.722656"/>
    <use xlink:href="#DejaVuSans-4f" x="222.509766"/>
    <use xlink:href="#DejaVuSans-6e" x="301.220703"/>
    <use xlink:href="#DejaVuSans-65" x="364.599609"/>
    <use xlink:href="#DejaVuSans-2d" x="426.123047"/>
    <use xlink:href="#DejaVuSans-74" x="462.207031"/>
    <use xlink:href="#DejaVuSans-6f" x="501.416016"/>
    <use xlink:href="#DejaVuSans-6e" x="562.597656"/>
    <use xlink:href="#DejaVuSans-65" x="625.976562"/>
   </g>
   <!-- tuid: 20240311-112846-796-0ad20d -->
   <g transform="translate(113.675625 29.7555) scale(0.12 -0.12)">
    <defs>
     <path id="DejaVuSans-69" d="M 603 3500 
L 1178 3500 
L 1178 0 
L 603 0 
L 603 3500 
z
M 603 4863 
L 1178 4863 
L 1178 4134 
L 603 4134 
L 603 4863 
z
" transform="scale(0.015625)"/>
     <path id="DejaVuSans-64" d="M 2906 2969 
L 2906 4863 
L 3481 4863 
L 3481 0 
L 2906 0 
L 2906 525 
Q 2725 213 2448 61 
Q 2172 -91 1784 -91 
Q 1150 -91 751 415 
Q 353 922 353 1747 
Q 353 2572 751 3078 
Q 1150 3584 1784 3584 
Q 2172 3584 2448 3432 
Q 2725 3281 2906 2969 
z
M 947 1747 
Q 947 1113 1208 752 
Q 1469 391 1925 391 
Q 2381 391 2643 752 
Q 2906 1113 2906 1747 
Q 2906 2381 2643 2742 
Q 2381 3103 1925 3103 
Q 1469 3103 1208 2742 
Q 947 2381 947 1747 
z
" transform="scale(0.015625)"/>
    </defs>
    <use xlink:href="#DejaVuSans-74"/>
    <use xlink:href="#DejaVuSans-75" x="39.208984"/>
    <use xlink:href="#DejaVuSans-69" x="102.587891"/>
    <use xlink:href="#DejaVuSans-64" x="130.371094"/>
    <use xlink:href="#DejaVuSans-3a" x="193.847656"/>
    <use xlink:href="#DejaVuSans-20" x="227.539062"/>
    <use xlink:href="#DejaVuSans-32" x="259.326172"/>
    <use xlink:href="#DejaVuSans-30" x="322.949219"/>
    <use xlink:href="#DejaVuSans-32" x="386.572266"/>
    <use xlink:href="#DejaVuSans-34" x="450.195312"/>
    <use xlink:href="#DejaVuSans-30" x="513.818359"/>
    <use xlink:href="#DejaVuSans-33" x="577.441406"/>
    <use xlink:href="#DejaVuSans-31" x="641.064453"/>
    <use xlink:href="#DejaVuSans-31" x="704.6875"/>
    <use xlink:href="#DejaVuSans-2d" x="768.310547"/>
    <use xlink:href="#DejaVuSans-31" x="804.394531"/>
    <use xlink:href="#DejaVuSans-31" x="868.017578"/>
    <use xlink:href="#DejaVuSans-32" x="931.640625"/>
    <use xlink:href="#DejaVuSans-38" x="995.263672"/>
    <use xlink:href="#DejaVuSans-34" x="1058.886719"/>
    <use xlink:href="#DejaVuSans-36" x="1122.509766"/>
    <use xlink:href="#DejaVuSans-2d" x="1186.132812"/>
    <use xlink:href="#DejaVuSans-37" x="1222.216797"/>
    <use xlink:href="#DejaVuSans-39" x="1285.839844"/>
    <use xlink:href="#DejaVuSans-36" x="1349.462891"/>
    <use xlink:href="#DejaVuSans-2d" x="1413.085938"/>
    <use xlink:href="#DejaVuSans-30" x="1449.169922"/>
    <use xlink:href="#DejaVuSans-61" x="1512.792969"/>
    <use xlink:href="#DejaVuSans-64" x="1574.072266"/>
    <use xlink:href="#DejaVuSans-32" x="1637.548828"/>
    <use xlink:href="#DejaVuSans-30" x="1701.171875"/>
    <use xlink:href="#DejaVuSans-64" x="1764.794922"/>
   </g>
  </g>
 </g>
 <defs>
  <clipPath id="p58bb83eb16">
   <rect x="50.573438" y="41.76" width="357.12" height="266.112"/>
  </clipPath>
 </defs>
</svg>
