<?xml version="1.0" encoding="utf-8" standalone="no"?>
<!DOCTYPE svg PUBLIC "-//W3C//DTD SVG 1.1//EN"
  "http://www.w3.org/Graphics/SVG/1.1/DTD/svg11.dtd">
<svg xmlns:xlink="http://www.w3.org/1999/xlink" width="571.186937pt" height="345.42825pt" viewBox="0 0 571.186937 345.42825" xmlns="http://www.w3.org/2000/svg" version="1.1">
 <metadata>
  <rdf:RDF xmlns:dc="http://purl.org/dc/elements/1.1/" xmlns:cc="http://creativecommons.org/ns#" xmlns:rdf="http://www.w3.org/1999/02/22-rdf-syntax-ns#">
   <cc:Work>
    <dc:type rdf:resource="http://purl.org/dc/dcmitype/StillImage"/>
    <dc:date>2024-01-03T16:05:34.181205</dc:date>
    <dc:format>image/svg+xml</dc:format>
    <dc:creator>
     <cc:Agent>
      <dc:title>Matplotlib v3.8.1, https://matplotlib.org/</dc:title>
     </cc:Agent>
    </dc:creator>
   </cc:Work>
  </rdf:RDF>
 </metadata>
 <defs>
  <style type="text/css">*{stroke-linejoin: round; stroke-linecap: butt}</style>
 </defs>
 <g id="figure_1">
  <g id="patch_1">
   <path d="M 0 345.42825 
L 571.186937 345.42825 
L 571.186937 -0 
L 0 -0 
L 0 345.42825 
z
" style="fill: none; opacity: 0"/>
  </g>
  <g id="axes_1">
   <g id="patch_2">
    <path d="M 44.210938 307.872 
L 401.330938 307.872 
L 401.330938 41.76 
L 44.210938 41.76 
z
" style="fill: #ffffff"/>
   </g>
   <g id="matplotlib.axis_1">
    <g id="xtick_1">
     <g id="line2d_1">
      <defs>
       <path id="md860d65dbb" d="M 0 0 
L 0 3.5 
" style="stroke: #000000; stroke-width: 0.8"/>
      </defs>
      <g>
       <use xlink:href="#md860d65dbb" x="105.262136" y="307.872" style="stroke: #000000; stroke-width: 0.8"/>
      </g>
     </g>
     <g id="text_1">
      <!-- -80 -->
      <g transform="translate(97.09573 322.470438) scale(0.1 -0.1)">
       <defs>
        <path id="DejaVuSans-2d" d="M 313 2009 
L 1997 2009 
L 1997 1497 
L 313 1497 
L 313 2009 
z
" transform="scale(0.015625)"/>
        <path id="DejaVuSans-38" d="M 2034 2216 
Q 1584 2216 1326 1975 
Q 1069 1734 1069 1313 
Q 1069 891 1326 650 
Q 1584 409 2034 409 
Q 2484 409 2743 651 
Q 3003 894 3003 1313 
Q 3003 1734 2745 1975 
Q 2488 2216 2034 2216 
z
M 1403 2484 
Q 997 2584 770 2862 
Q 544 3141 544 3541 
Q 544 4100 942 4425 
Q 1341 4750 2034 4750 
Q 2731 4750 3128 4425 
Q 3525 4100 3525 3541 
Q 3525 3141 3298 2862 
Q 3072 2584 2669 2484 
Q 3125 2378 3379 2068 
Q 3634 1759 3634 1313 
Q 3634 634 3220 271 
Q 2806 -91 2034 -91 
Q 1263 -91 848 271 
Q 434 634 434 1313 
Q 434 1759 690 2068 
Q 947 2378 1403 2484 
z
M 1172 3481 
Q 1172 3119 1398 2916 
Q 1625 2713 2034 2713 
Q 2441 2713 2670 2916 
Q 2900 3119 2900 3481 
Q 2900 3844 2670 4047 
Q 2441 4250 2034 4250 
Q 1625 4250 1398 4047 
Q 1172 3844 1172 3481 
z
" transform="scale(0.015625)"/>
        <path id="DejaVuSans-30" d="M 2034 4250 
Q 1547 4250 1301 3770 
Q 1056 3291 1056 2328 
Q 1056 1369 1301 889 
Q 1547 409 2034 409 
Q 2525 409 2770 889 
Q 3016 1369 3016 2328 
Q 3016 3291 2770 3770 
Q 2525 4250 2034 4250 
z
M 2034 4750 
Q 2819 4750 3233 4129 
Q 3647 3509 3647 2328 
Q 3647 1150 3233 529 
Q 2819 -91 2034 -91 
Q 1250 -91 836 529 
Q 422 1150 422 2328 
Q 422 3509 836 4129 
Q 1250 4750 2034 4750 
z
" transform="scale(0.015625)"/>
       </defs>
       <use xlink:href="#DejaVuSans-2d"/>
       <use xlink:href="#DejaVuSans-38" x="36.083984"/>
       <use xlink:href="#DejaVuSans-30" x="99.707031"/>
      </g>
     </g>
    </g>
    <g id="xtick_2">
     <g id="line2d_2">
      <g>
       <use xlink:href="#md860d65dbb" x="183.453491" y="307.872" style="stroke: #000000; stroke-width: 0.8"/>
      </g>
     </g>
     <g id="text_2">
      <!-- -60 -->
      <g transform="translate(175.287085 322.470438) scale(0.1 -0.1)">
       <defs>
        <path id="DejaVuSans-36" d="M 2113 2584 
Q 1688 2584 1439 2293 
Q 1191 2003 1191 1497 
Q 1191 994 1439 701 
Q 1688 409 2113 409 
Q 2538 409 2786 701 
Q 3034 994 3034 1497 
Q 3034 2003 2786 2293 
Q 2538 2584 2113 2584 
z
M 3366 4563 
L 3366 3988 
Q 3128 4100 2886 4159 
Q 2644 4219 2406 4219 
Q 1781 4219 1451 3797 
Q 1122 3375 1075 2522 
Q 1259 2794 1537 2939 
Q 1816 3084 2150 3084 
Q 2853 3084 3261 2657 
Q 3669 2231 3669 1497 
Q 3669 778 3244 343 
Q 2819 -91 2113 -91 
Q 1303 -91 875 529 
Q 447 1150 447 2328 
Q 447 3434 972 4092 
Q 1497 4750 2381 4750 
Q 2619 4750 2861 4703 
Q 3103 4656 3366 4563 
z
" transform="scale(0.015625)"/>
       </defs>
       <use xlink:href="#DejaVuSans-2d"/>
       <use xlink:href="#DejaVuSans-36" x="36.083984"/>
       <use xlink:href="#DejaVuSans-30" x="99.707031"/>
      </g>
     </g>
    </g>
    <g id="xtick_3">
     <g id="line2d_3">
      <g>
       <use xlink:href="#md860d65dbb" x="261.644846" y="307.872" style="stroke: #000000; stroke-width: 0.8"/>
      </g>
     </g>
     <g id="text_3">
      <!-- -40 -->
      <g transform="translate(253.478439 322.470438) scale(0.1 -0.1)">
       <defs>
        <path id="DejaVuSans-34" d="M 2419 4116 
L 825 1625 
L 2419 1625 
L 2419 4116 
z
M 2253 4666 
L 3047 4666 
L 3047 1625 
L 3713 1625 
L 3713 1100 
L 3047 1100 
L 3047 0 
L 2419 0 
L 2419 1100 
L 313 1100 
L 313 1709 
L 2253 4666 
z
" transform="scale(0.015625)"/>
       </defs>
       <use xlink:href="#DejaVuSans-2d"/>
       <use xlink:href="#DejaVuSans-34" x="36.083984"/>
       <use xlink:href="#DejaVuSans-30" x="99.707031"/>
      </g>
     </g>
    </g>
    <g id="xtick_4">
     <g id="line2d_4">
      <g>
       <use xlink:href="#md860d65dbb" x="339.8362" y="307.872" style="stroke: #000000; stroke-width: 0.8"/>
      </g>
     </g>
     <g id="text_4">
      <!-- -20 -->
      <g transform="translate(331.669794 322.470438) scale(0.1 -0.1)">
       <defs>
        <path id="DejaVuSans-32" d="M 1228 531 
L 3431 531 
L 3431 0 
L 469 0 
L 469 531 
Q 828 903 1448 1529 
Q 2069 2156 2228 2338 
Q 2531 2678 2651 2914 
Q 2772 3150 2772 3378 
Q 2772 3750 2511 3984 
Q 2250 4219 1831 4219 
Q 1534 4219 1204 4116 
Q 875 4013 500 3803 
L 500 4441 
Q 881 4594 1212 4672 
Q 1544 4750 1819 4750 
Q 2544 4750 2975 4387 
Q 3406 4025 3406 3419 
Q 3406 3131 3298 2873 
Q 3191 2616 2906 2266 
Q 2828 2175 2409 1742 
Q 1991 1309 1228 531 
z
" transform="scale(0.015625)"/>
       </defs>
       <use xlink:href="#DejaVuSans-2d"/>
       <use xlink:href="#DejaVuSans-32" x="36.083984"/>
       <use xlink:href="#DejaVuSans-30" x="99.707031"/>
      </g>
     </g>
    </g>
    <g id="text_5">
     <!-- Re$(S_{21})$ [mV] -->
     <g transform="translate(190.770938 336.148562) scale(0.1 -0.1)">
      <defs>
       <path id="DejaVuSans-52" d="M 2841 2188 
Q 3044 2119 3236 1894 
Q 3428 1669 3622 1275 
L 4263 0 
L 3584 0 
L 2988 1197 
Q 2756 1666 2539 1819 
Q 2322 1972 1947 1972 
L 1259 1972 
L 1259 0 
L 628 0 
L 628 4666 
L 2053 4666 
Q 2853 4666 3247 4331 
Q 3641 3997 3641 3322 
Q 3641 2881 3436 2590 
Q 3231 2300 2841 2188 
z
M 1259 4147 
L 1259 2491 
L 2053 2491 
Q 2509 2491 2742 2702 
Q 2975 2913 2975 3322 
Q 2975 3731 2742 3939 
Q 2509 4147 2053 4147 
L 1259 4147 
z
" transform="scale(0.015625)"/>
       <path id="DejaVuSans-65" d="M 3597 1894 
L 3597 1613 
L 953 1613 
Q 991 1019 1311 708 
Q 1631 397 2203 397 
Q 2534 397 2845 478 
Q 3156 559 3463 722 
L 3463 178 
Q 3153 47 2828 -22 
Q 2503 -91 2169 -91 
Q 1331 -91 842 396 
Q 353 884 353 1716 
Q 353 2575 817 3079 
Q 1281 3584 2069 3584 
Q 2775 3584 3186 3129 
Q 3597 2675 3597 1894 
z
M 3022 2063 
Q 3016 2534 2758 2815 
Q 2500 3097 2075 3097 
Q 1594 3097 1305 2825 
Q 1016 2553 972 2059 
L 3022 2063 
z
" transform="scale(0.015625)"/>
       <path id="DejaVuSans-28" d="M 1984 4856 
Q 1566 4138 1362 3434 
Q 1159 2731 1159 2009 
Q 1159 1288 1364 580 
Q 1569 -128 1984 -844 
L 1484 -844 
Q 1016 -109 783 600 
Q 550 1309 550 2009 
Q 550 2706 781 3412 
Q 1013 4119 1484 4856 
L 1984 4856 
z
" transform="scale(0.015625)"/>
       <path id="DejaVuSans-Oblique-53" d="M 3859 4513 
L 3738 3897 
Q 3422 4066 3111 4152 
Q 2800 4238 2509 4238 
Q 1944 4238 1609 3991 
Q 1275 3744 1275 3334 
Q 1275 3109 1398 2989 
Q 1522 2869 2034 2731 
L 2413 2638 
Q 3053 2472 3303 2217 
Q 3553 1963 3553 1503 
Q 3553 797 2998 353 
Q 2444 -91 1538 -91 
Q 1166 -91 791 -17 
Q 416 56 38 206 
L 166 856 
Q 513 641 861 531 
Q 1209 422 1556 422 
Q 2147 422 2503 684 
Q 2859 947 2859 1369 
Q 2859 1650 2717 1795 
Q 2575 1941 2106 2059 
L 1728 2156 
Q 1081 2325 845 2545 
Q 609 2766 609 3163 
Q 609 3859 1145 4304 
Q 1681 4750 2541 4750 
Q 2875 4750 3203 4690 
Q 3531 4631 3859 4513 
z
" transform="scale(0.015625)"/>
       <path id="DejaVuSans-31" d="M 794 531 
L 1825 531 
L 1825 4091 
L 703 3866 
L 703 4441 
L 1819 4666 
L 2450 4666 
L 2450 531 
L 3481 531 
L 3481 0 
L 794 0 
L 794 531 
z
" transform="scale(0.015625)"/>
       <path id="DejaVuSans-29" d="M 513 4856 
L 1013 4856 
Q 1481 4119 1714 3412 
Q 1947 2706 1947 2009 
Q 1947 1309 1714 600 
Q 1481 -109 1013 -844 
L 513 -844 
Q 928 -128 1133 580 
Q 1338 1288 1338 2009 
Q 1338 2731 1133 3434 
Q 928 4138 513 4856 
z
" transform="scale(0.015625)"/>
       <path id="DejaVuSans-20" transform="scale(0.015625)"/>
       <path id="DejaVuSans-5b" d="M 550 4863 
L 1875 4863 
L 1875 4416 
L 1125 4416 
L 1125 -397 
L 1875 -397 
L 1875 -844 
L 550 -844 
L 550 4863 
z
" transform="scale(0.015625)"/>
       <path id="DejaVuSans-6d" d="M 3328 2828 
Q 3544 3216 3844 3400 
Q 4144 3584 4550 3584 
Q 5097 3584 5394 3201 
Q 5691 2819 5691 2113 
L 5691 0 
L 5113 0 
L 5113 2094 
Q 5113 2597 4934 2840 
Q 4756 3084 4391 3084 
Q 3944 3084 3684 2787 
Q 3425 2491 3425 1978 
L 3425 0 
L 2847 0 
L 2847 2094 
Q 2847 2600 2669 2842 
Q 2491 3084 2119 3084 
Q 1678 3084 1418 2786 
Q 1159 2488 1159 1978 
L 1159 0 
L 581 0 
L 581 3500 
L 1159 3500 
L 1159 2956 
Q 1356 3278 1631 3431 
Q 1906 3584 2284 3584 
Q 2666 3584 2933 3390 
Q 3200 3197 3328 2828 
z
" transform="scale(0.015625)"/>
       <path id="DejaVuSans-56" d="M 1831 0 
L 50 4666 
L 709 4666 
L 2188 738 
L 3669 4666 
L 4325 4666 
L 2547 0 
L 1831 0 
z
" transform="scale(0.015625)"/>
       <path id="DejaVuSans-5d" d="M 1947 4863 
L 1947 -844 
L 622 -844 
L 622 -397 
L 1369 -397 
L 1369 4416 
L 622 4416 
L 622 4863 
L 1947 4863 
z
" transform="scale(0.015625)"/>
      </defs>
      <use xlink:href="#DejaVuSans-52" transform="translate(0 0.015625)"/>
      <use xlink:href="#DejaVuSans-65" transform="translate(69.482422 0.015625)"/>
      <use xlink:href="#DejaVuSans-28" transform="translate(131.005859 0.015625)"/>
      <use xlink:href="#DejaVuSans-Oblique-53" transform="translate(170.019531 0.015625)"/>
      <use xlink:href="#DejaVuSans-32" transform="translate(233.496094 -16.390625) scale(0.7)"/>
      <use xlink:href="#DejaVuSans-31" transform="translate(278.032227 -16.390625) scale(0.7)"/>
      <use xlink:href="#DejaVuSans-29" transform="translate(325.302734 0.015625)"/>
      <use xlink:href="#DejaVuSans-20" transform="translate(364.316406 0.015625)"/>
      <use xlink:href="#DejaVuSans-5b" transform="translate(396.103516 0.015625)"/>
      <use xlink:href="#DejaVuSans-6d" transform="translate(435.117188 0.015625)"/>
      <use xlink:href="#DejaVuSans-56" transform="translate(532.529297 0.015625)"/>
      <use xlink:href="#DejaVuSans-5d" transform="translate(600.9375 0.015625)"/>
     </g>
    </g>
   </g>
   <g id="matplotlib.axis_2">
    <g id="ytick_1">
     <g id="line2d_5">
      <defs>
       <path id="m1a77a29d53" d="M 0 0 
L -3.5 0 
" style="stroke: #000000; stroke-width: 0.8"/>
      </defs>
      <g>
       <use xlink:href="#m1a77a29d53" x="44.210938" y="283.352535" style="stroke: #000000; stroke-width: 0.8"/>
      </g>
     </g>
     <g id="text_6">
      <!-- -80 -->
      <g transform="translate(20.878125 287.151754) scale(0.1 -0.1)">
       <use xlink:href="#DejaVuSans-2d"/>
       <use xlink:href="#DejaVuSans-38" x="36.083984"/>
       <use xlink:href="#DejaVuSans-30" x="99.707031"/>
      </g>
     </g>
    </g>
    <g id="ytick_2">
     <g id="line2d_6">
      <g>
       <use xlink:href="#m1a77a29d53" x="44.210938" y="232.948532" style="stroke: #000000; stroke-width: 0.8"/>
      </g>
     </g>
     <g id="text_7">
      <!-- -60 -->
      <g transform="translate(20.878125 236.74775) scale(0.1 -0.1)">
       <use xlink:href="#DejaVuSans-2d"/>
       <use xlink:href="#DejaVuSans-36" x="36.083984"/>
       <use xlink:href="#DejaVuSans-30" x="99.707031"/>
      </g>
     </g>
    </g>
    <g id="ytick_3">
     <g id="line2d_7">
      <g>
       <use xlink:href="#m1a77a29d53" x="44.210938" y="182.544528" style="stroke: #000000; stroke-width: 0.8"/>
      </g>
     </g>
     <g id="text_8">
      <!-- -40 -->
      <g transform="translate(20.878125 186.343747) scale(0.1 -0.1)">
       <use xlink:href="#DejaVuSans-2d"/>
       <use xlink:href="#DejaVuSans-34" x="36.083984"/>
       <use xlink:href="#DejaVuSans-30" x="99.707031"/>
      </g>
     </g>
    </g>
    <g id="ytick_4">
     <g id="line2d_8">
      <g>
       <use xlink:href="#m1a77a29d53" x="44.210938" y="132.140524" style="stroke: #000000; stroke-width: 0.8"/>
      </g>
     </g>
     <g id="text_9">
      <!-- -20 -->
      <g transform="translate(20.878125 135.939743) scale(0.1 -0.1)">
       <use xlink:href="#DejaVuSans-2d"/>
       <use xlink:href="#DejaVuSans-32" x="36.083984"/>
       <use xlink:href="#DejaVuSans-30" x="99.707031"/>
      </g>
     </g>
    </g>
    <g id="ytick_5">
     <g id="line2d_9">
      <g>
       <use xlink:href="#m1a77a29d53" x="44.210938" y="81.736521" style="stroke: #000000; stroke-width: 0.8"/>
      </g>
     </g>
     <g id="text_10">
      <!-- 0 -->
      <g transform="translate(30.848437 85.53574) scale(0.1 -0.1)">
       <use xlink:href="#DejaVuSans-30"/>
      </g>
     </g>
    </g>
    <g id="text_11">
     <!-- Im$(S_{21})$ [mV] -->
     <g transform="translate(14.798437 206.466) rotate(-90) scale(0.1 -0.1)">
      <defs>
       <path id="DejaVuSans-49" d="M 628 4666 
L 1259 4666 
L 1259 0 
L 628 0 
L 628 4666 
z
" transform="scale(0.015625)"/>
      </defs>
      <use xlink:href="#DejaVuSans-49" transform="translate(0 0.015625)"/>
      <use xlink:href="#DejaVuSans-6d" transform="translate(25.867188 0.015625)"/>
      <use xlink:href="#DejaVuSans-28" transform="translate(123.279297 0.015625)"/>
      <use xlink:href="#DejaVuSans-Oblique-53" transform="translate(162.292969 0.015625)"/>
      <use xlink:href="#DejaVuSans-32" transform="translate(225.769531 -16.390625) scale(0.7)"/>
      <use xlink:href="#DejaVuSans-31" transform="translate(270.305664 -16.390625) scale(0.7)"/>
      <use xlink:href="#DejaVuSans-29" transform="translate(317.576172 0.015625)"/>
      <use xlink:href="#DejaVuSans-20" transform="translate(356.589844 0.015625)"/>
      <use xlink:href="#DejaVuSans-5b" transform="translate(388.376953 0.015625)"/>
      <use xlink:href="#DejaVuSans-6d" transform="translate(427.390625 0.015625)"/>
      <use xlink:href="#DejaVuSans-56" transform="translate(524.802734 0.015625)"/>
      <use xlink:href="#DejaVuSans-5d" transform="translate(593.210938 0.015625)"/>
     </g>
    </g>
   </g>
   <g id="line2d_10">
    <path d="M 210.762272 294.259767 
L 209.361449 293.629532 
L 207.921252 293.320342 
L 206.625202 292.464609 
L 203.095628 291.572683 
L 197.936581 289.243686 
L 194.32725 287.89376 
L 188.278063 285.558591 
L 187.227927 284.990344 
L 182.944307 283.812705 
L 180.678133 282.399934 
L 178.752795 282.048337 
L 175.938925 280.507553 
L 174.458412 279.869428 
L 172.461093 279.163041 
L 170.446784 278.158909 
L 169.130314 277.308553 
L 162.941203 274.442351 
L 160.345898 273.481479 
L 155.930495 271.488333 
L 153.594329 269.963639 
L 151.182069 269.027139 
L 148.561183 267.633433 
L 145.618111 265.909842 
L 143.973015 265.120844 
L 141.644158 263.595022 
L 139.047028 262.370027 
L 135.8661 260.580297 
L 133.51025 258.915332 
L 122.536076 252.452011 
L 119.434036 250.202197 
L 116.467043 248.467479 
L 113.786585 246.232209 
L 111.943051 244.320075 
L 107.165977 241.576273 
L 99.218105 234.051956 
L 96.10503 231.564439 
L 91.997138 227.429787 
L 90.190991 225.266508 
L 87.250062 222.699627 
L 83.996736 218.88683 
L 80.15205 214.031129 
L 75.330644 206.973652 
L 72.387117 201.388255 
L 69.930428 197.801346 
L 68.042873 192.473736 
L 65.486733 186.849218 
L 63.501255 181.838054 
L 61.85697 175.738228 
L 60.443665 156.297021 
L 63.817539 140.490147 
L 66.787741 132.758738 
L 70.448903 124.495107 
L 75.771844 115.652347 
L 82.735781 106.719347 
L 91.561129 97.967092 
L 102.111508 89.203949 
L 114.832723 81.459412 
L 129.181081 73.72768 
L 144.622738 67.853872 
L 161.436447 62.226694 
L 179.637933 58.451737 
L 200.070747 55.469666 
L 220.071428 54.304546 
L 241.012039 54.717734 
L 260.563235 56.620058 
L 280.11971 60.471416 
L 298.601306 65.536043 
L 316.488673 71.991197 
L 332.002588 79.955837 
L 346.383995 89.118733 
L 357.941652 98.304503 
L 367.209066 107.609296 
L 374.591704 118.672385 
L 379.939232 128.099813 
L 383.391115 138.063771 
L 384.863517 147.717832 
L 385.09821 157.529278 
L 381.452472 174.422641 
L 377.258312 182.396736 
L 373.27231 188.711149 
L 369.391072 193.660262 
L 365.854878 198.725546 
L 360.139812 204.586817 
L 350.671931 212.726573 
L 346.654484 214.957886 
L 340.192936 219.723255 
L 335.759758 222.102853 
L 329.93082 225.628712 
L 324.945155 227.672239 
L 319.396502 230.620697 
L 315.110399 231.69265 
L 310.487054 233.341701 
L 306.085046 234.614061 
L 301.344417 236.392868 
L 297.035883 237.487319 
L 291.973266 238.905506 
L 287.910707 239.667106 
L 284.301855 240.462561 
L 279.68073 241.289671 
L 276.75519 241.640884 
L 273.163676 242.277327 
L 264.549283 243.210971 
L 261.80105 243.311688 
L 258.24144 243.715342 
L 249.639287 243.813739 
L 246.51912 244.040764 
L 243.350683 243.879128 
L 234.078461 243.642383 
L 232.404093 243.575454 
L 226.406392 243.076568 
L 224.421771 242.723642 
L 222.738575 242.309105 
L 220.84358 242.114003 
L 217.558448 241.973759 
L 214.836987 241.597517 
L 211.769448 241.478551 
L 204.46981 239.732399 
L 201.753315 239.726391 
L 197.616461 238.563589 
L 195.103281 238.28572 
L 191.94127 237.23903 
L 190.362686 236.735893 
L 185.795679 235.744283 
L 185.180924 235.428325 
L 179.341771 233.89522 
L 177.29119 233.038568 
L 175.375619 232.75468 
L 174.165467 232.346586 
L 172.279682 231.562513 
L 169.870409 231.040919 
L 167.207404 229.698845 
L 165.658296 229.56102 
L 164.007407 228.669034 
L 163.043845 227.893056 
L 161.536148 227.410518 
L 160.391761 227.372653 
L 158.945066 226.631837 
L 156.525531 225.674136 
L 155.530243 225.110675 
L 151.725028 223.885909 
L 150.460945 223.412123 
L 148.310053 222.31819 
L 147.121984 221.55886 
L 145.323366 220.955593 
L 142.529053 219.401767 
L 141.097459 218.993451 
L 139.431512 218.378754 
L 138.32253 217.777879 
L 137.458945 216.836024 
L 134.982079 215.770255 
L 133.68304 214.757455 
L 131.024471 213.762409 
L 129.980277 212.85665 
L 128.899302 212.28242 
L 126.996663 211.409902 
L 124.384037 209.56842 
L 124.384037 209.56842 
" clip-path="url(#p0541d10851)" style="fill: none; stroke: #1f77b4; stroke-width: 1.5; stroke-linecap: square"/>
    <defs>
     <path id="mf0f862fcb0" d="M 0 1.5 
C 0.397805 1.5 0.77937 1.341951 1.06066 1.06066 
C 1.341951 0.77937 1.5 0.397805 1.5 0 
C 1.5 -0.397805 1.341951 -0.77937 1.06066 -1.06066 
C 0.77937 -1.341951 0.397805 -1.5 0 -1.5 
C -0.397805 -1.5 -0.77937 -1.341951 -1.06066 -1.06066 
C -1.341951 -0.77937 -1.5 -0.397805 -1.5 0 
C -1.5 0.397805 -1.341951 0.77937 -1.06066 1.06066 
C -0.77937 1.341951 -0.397805 1.5 0 1.5 
z
" style="stroke: #1f77b4"/>
    </defs>
    <g clip-path="url(#p0541d10851)">
     <use xlink:href="#mf0f862fcb0" x="210.762272" y="294.259767" style="fill: #1f77b4; stroke: #1f77b4"/>
     <use xlink:href="#mf0f862fcb0" x="209.361449" y="293.629532" style="fill: #1f77b4; stroke: #1f77b4"/>
     <use xlink:href="#mf0f862fcb0" x="207.921252" y="293.320342" style="fill: #1f77b4; stroke: #1f77b4"/>
     <use xlink:href="#mf0f862fcb0" x="206.625202" y="292.464609" style="fill: #1f77b4; stroke: #1f77b4"/>
     <use xlink:href="#mf0f862fcb0" x="204.468274" y="291.97412" style="fill: #1f77b4; stroke: #1f77b4"/>
     <use xlink:href="#mf0f862fcb0" x="203.095628" y="291.572683" style="fill: #1f77b4; stroke: #1f77b4"/>
     <use xlink:href="#mf0f862fcb0" x="201.511976" y="290.829364" style="fill: #1f77b4; stroke: #1f77b4"/>
     <use xlink:href="#mf0f862fcb0" x="199.822002" y="289.992083" style="fill: #1f77b4; stroke: #1f77b4"/>
     <use xlink:href="#mf0f862fcb0" x="197.936581" y="289.243686" style="fill: #1f77b4; stroke: #1f77b4"/>
     <use xlink:href="#mf0f862fcb0" x="196.030704" y="288.58465" style="fill: #1f77b4; stroke: #1f77b4"/>
     <use xlink:href="#mf0f862fcb0" x="194.32725" y="287.89376" style="fill: #1f77b4; stroke: #1f77b4"/>
     <use xlink:href="#mf0f862fcb0" x="192.082772" y="287.059266" style="fill: #1f77b4; stroke: #1f77b4"/>
     <use xlink:href="#mf0f862fcb0" x="190.618345" y="286.466462" style="fill: #1f77b4; stroke: #1f77b4"/>
     <use xlink:href="#mf0f862fcb0" x="188.278063" y="285.558591" style="fill: #1f77b4; stroke: #1f77b4"/>
     <use xlink:href="#mf0f862fcb0" x="187.227927" y="284.990344" style="fill: #1f77b4; stroke: #1f77b4"/>
     <use xlink:href="#mf0f862fcb0" x="185.347548" y="284.440105" style="fill: #1f77b4; stroke: #1f77b4"/>
     <use xlink:href="#mf0f862fcb0" x="182.944307" y="283.812705" style="fill: #1f77b4; stroke: #1f77b4"/>
     <use xlink:href="#mf0f862fcb0" x="180.678133" y="282.399934" style="fill: #1f77b4; stroke: #1f77b4"/>
     <use xlink:href="#mf0f862fcb0" x="178.752795" y="282.048337" style="fill: #1f77b4; stroke: #1f77b4"/>
     <use xlink:href="#mf0f862fcb0" x="175.938925" y="280.507553" style="fill: #1f77b4; stroke: #1f77b4"/>
     <use xlink:href="#mf0f862fcb0" x="174.458412" y="279.869428" style="fill: #1f77b4; stroke: #1f77b4"/>
     <use xlink:href="#mf0f862fcb0" x="172.461093" y="279.163041" style="fill: #1f77b4; stroke: #1f77b4"/>
     <use xlink:href="#mf0f862fcb0" x="170.446784" y="278.158909" style="fill: #1f77b4; stroke: #1f77b4"/>
     <use xlink:href="#mf0f862fcb0" x="169.130314" y="277.308553" style="fill: #1f77b4; stroke: #1f77b4"/>
     <use xlink:href="#mf0f862fcb0" x="167.600322" y="276.613854" style="fill: #1f77b4; stroke: #1f77b4"/>
     <use xlink:href="#mf0f862fcb0" x="164.536917" y="275.129408" style="fill: #1f77b4; stroke: #1f77b4"/>
     <use xlink:href="#mf0f862fcb0" x="162.941203" y="274.442351" style="fill: #1f77b4; stroke: #1f77b4"/>
     <use xlink:href="#mf0f862fcb0" x="160.345898" y="273.481479" style="fill: #1f77b4; stroke: #1f77b4"/>
     <use xlink:href="#mf0f862fcb0" x="158.055137" y="272.426426" style="fill: #1f77b4; stroke: #1f77b4"/>
     <use xlink:href="#mf0f862fcb0" x="155.930495" y="271.488333" style="fill: #1f77b4; stroke: #1f77b4"/>
     <use xlink:href="#mf0f862fcb0" x="153.594329" y="269.963639" style="fill: #1f77b4; stroke: #1f77b4"/>
     <use xlink:href="#mf0f862fcb0" x="151.182069" y="269.027139" style="fill: #1f77b4; stroke: #1f77b4"/>
     <use xlink:href="#mf0f862fcb0" x="148.561183" y="267.633433" style="fill: #1f77b4; stroke: #1f77b4"/>
     <use xlink:href="#mf0f862fcb0" x="145.618111" y="265.909842" style="fill: #1f77b4; stroke: #1f77b4"/>
     <use xlink:href="#mf0f862fcb0" x="143.973015" y="265.120844" style="fill: #1f77b4; stroke: #1f77b4"/>
     <use xlink:href="#mf0f862fcb0" x="141.644158" y="263.595022" style="fill: #1f77b4; stroke: #1f77b4"/>
     <use xlink:href="#mf0f862fcb0" x="139.047028" y="262.370027" style="fill: #1f77b4; stroke: #1f77b4"/>
     <use xlink:href="#mf0f862fcb0" x="135.8661" y="260.580297" style="fill: #1f77b4; stroke: #1f77b4"/>
     <use xlink:href="#mf0f862fcb0" x="133.51025" y="258.915332" style="fill: #1f77b4; stroke: #1f77b4"/>
     <use xlink:href="#mf0f862fcb0" x="131.059426" y="257.47993" style="fill: #1f77b4; stroke: #1f77b4"/>
     <use xlink:href="#mf0f862fcb0" x="127.656738" y="255.367413" style="fill: #1f77b4; stroke: #1f77b4"/>
     <use xlink:href="#mf0f862fcb0" x="125.037223" y="253.894868" style="fill: #1f77b4; stroke: #1f77b4"/>
     <use xlink:href="#mf0f862fcb0" x="122.536076" y="252.452011" style="fill: #1f77b4; stroke: #1f77b4"/>
     <use xlink:href="#mf0f862fcb0" x="119.434036" y="250.202197" style="fill: #1f77b4; stroke: #1f77b4"/>
     <use xlink:href="#mf0f862fcb0" x="116.467043" y="248.467479" style="fill: #1f77b4; stroke: #1f77b4"/>
     <use xlink:href="#mf0f862fcb0" x="113.786585" y="246.232209" style="fill: #1f77b4; stroke: #1f77b4"/>
     <use xlink:href="#mf0f862fcb0" x="111.943051" y="244.320075" style="fill: #1f77b4; stroke: #1f77b4"/>
     <use xlink:href="#mf0f862fcb0" x="107.165977" y="241.576273" style="fill: #1f77b4; stroke: #1f77b4"/>
     <use xlink:href="#mf0f862fcb0" x="104.725123" y="239.238387" style="fill: #1f77b4; stroke: #1f77b4"/>
     <use xlink:href="#mf0f862fcb0" x="101.963737" y="236.591209" style="fill: #1f77b4; stroke: #1f77b4"/>
     <use xlink:href="#mf0f862fcb0" x="99.218105" y="234.051956" style="fill: #1f77b4; stroke: #1f77b4"/>
     <use xlink:href="#mf0f862fcb0" x="96.10503" y="231.564439" style="fill: #1f77b4; stroke: #1f77b4"/>
     <use xlink:href="#mf0f862fcb0" x="91.997138" y="227.429787" style="fill: #1f77b4; stroke: #1f77b4"/>
     <use xlink:href="#mf0f862fcb0" x="90.190991" y="225.266508" style="fill: #1f77b4; stroke: #1f77b4"/>
     <use xlink:href="#mf0f862fcb0" x="87.250062" y="222.699627" style="fill: #1f77b4; stroke: #1f77b4"/>
     <use xlink:href="#mf0f862fcb0" x="83.996736" y="218.88683" style="fill: #1f77b4; stroke: #1f77b4"/>
     <use xlink:href="#mf0f862fcb0" x="80.15205" y="214.031129" style="fill: #1f77b4; stroke: #1f77b4"/>
     <use xlink:href="#mf0f862fcb0" x="77.840046" y="210.656523" style="fill: #1f77b4; stroke: #1f77b4"/>
     <use xlink:href="#mf0f862fcb0" x="75.330644" y="206.973652" style="fill: #1f77b4; stroke: #1f77b4"/>
     <use xlink:href="#mf0f862fcb0" x="72.387117" y="201.388255" style="fill: #1f77b4; stroke: #1f77b4"/>
     <use xlink:href="#mf0f862fcb0" x="69.930428" y="197.801346" style="fill: #1f77b4; stroke: #1f77b4"/>
     <use xlink:href="#mf0f862fcb0" x="68.042873" y="192.473736" style="fill: #1f77b4; stroke: #1f77b4"/>
     <use xlink:href="#mf0f862fcb0" x="65.486733" y="186.849218" style="fill: #1f77b4; stroke: #1f77b4"/>
     <use xlink:href="#mf0f862fcb0" x="63.501255" y="181.838054" style="fill: #1f77b4; stroke: #1f77b4"/>
     <use xlink:href="#mf0f862fcb0" x="61.85697" y="175.738228" style="fill: #1f77b4; stroke: #1f77b4"/>
     <use xlink:href="#mf0f862fcb0" x="61.36919" y="169.326261" style="fill: #1f77b4; stroke: #1f77b4"/>
     <use xlink:href="#mf0f862fcb0" x="60.928487" y="163.562839" style="fill: #1f77b4; stroke: #1f77b4"/>
     <use xlink:href="#mf0f862fcb0" x="60.443665" y="156.297021" style="fill: #1f77b4; stroke: #1f77b4"/>
     <use xlink:href="#mf0f862fcb0" x="62.0978" y="148.768371" style="fill: #1f77b4; stroke: #1f77b4"/>
     <use xlink:href="#mf0f862fcb0" x="63.817539" y="140.490147" style="fill: #1f77b4; stroke: #1f77b4"/>
     <use xlink:href="#mf0f862fcb0" x="66.787741" y="132.758738" style="fill: #1f77b4; stroke: #1f77b4"/>
     <use xlink:href="#mf0f862fcb0" x="70.448903" y="124.495107" style="fill: #1f77b4; stroke: #1f77b4"/>
     <use xlink:href="#mf0f862fcb0" x="75.771844" y="115.652347" style="fill: #1f77b4; stroke: #1f77b4"/>
     <use xlink:href="#mf0f862fcb0" x="82.735781" y="106.719347" style="fill: #1f77b4; stroke: #1f77b4"/>
     <use xlink:href="#mf0f862fcb0" x="91.561129" y="97.967092" style="fill: #1f77b4; stroke: #1f77b4"/>
     <use xlink:href="#mf0f862fcb0" x="102.111508" y="89.203949" style="fill: #1f77b4; stroke: #1f77b4"/>
     <use xlink:href="#mf0f862fcb0" x="114.832723" y="81.459412" style="fill: #1f77b4; stroke: #1f77b4"/>
     <use xlink:href="#mf0f862fcb0" x="129.181081" y="73.72768" style="fill: #1f77b4; stroke: #1f77b4"/>
     <use xlink:href="#mf0f862fcb0" x="144.622738" y="67.853872" style="fill: #1f77b4; stroke: #1f77b4"/>
     <use xlink:href="#mf0f862fcb0" x="161.436447" y="62.226694" style="fill: #1f77b4; stroke: #1f77b4"/>
     <use xlink:href="#mf0f862fcb0" x="179.637933" y="58.451737" style="fill: #1f77b4; stroke: #1f77b4"/>
     <use xlink:href="#mf0f862fcb0" x="200.070747" y="55.469666" style="fill: #1f77b4; stroke: #1f77b4"/>
     <use xlink:href="#mf0f862fcb0" x="220.071428" y="54.304546" style="fill: #1f77b4; stroke: #1f77b4"/>
     <use xlink:href="#mf0f862fcb0" x="241.012039" y="54.717734" style="fill: #1f77b4; stroke: #1f77b4"/>
     <use xlink:href="#mf0f862fcb0" x="260.563235" y="56.620058" style="fill: #1f77b4; stroke: #1f77b4"/>
     <use xlink:href="#mf0f862fcb0" x="280.11971" y="60.471416" style="fill: #1f77b4; stroke: #1f77b4"/>
     <use xlink:href="#mf0f862fcb0" x="298.601306" y="65.536043" style="fill: #1f77b4; stroke: #1f77b4"/>
     <use xlink:href="#mf0f862fcb0" x="316.488673" y="71.991197" style="fill: #1f77b4; stroke: #1f77b4"/>
     <use xlink:href="#mf0f862fcb0" x="332.002588" y="79.955837" style="fill: #1f77b4; stroke: #1f77b4"/>
     <use xlink:href="#mf0f862fcb0" x="346.383995" y="89.118733" style="fill: #1f77b4; stroke: #1f77b4"/>
     <use xlink:href="#mf0f862fcb0" x="357.941652" y="98.304503" style="fill: #1f77b4; stroke: #1f77b4"/>
     <use xlink:href="#mf0f862fcb0" x="367.209066" y="107.609296" style="fill: #1f77b4; stroke: #1f77b4"/>
     <use xlink:href="#mf0f862fcb0" x="374.591704" y="118.672385" style="fill: #1f77b4; stroke: #1f77b4"/>
     <use xlink:href="#mf0f862fcb0" x="379.939232" y="128.099813" style="fill: #1f77b4; stroke: #1f77b4"/>
     <use xlink:href="#mf0f862fcb0" x="383.391115" y="138.063771" style="fill: #1f77b4; stroke: #1f77b4"/>
     <use xlink:href="#mf0f862fcb0" x="384.863517" y="147.717832" style="fill: #1f77b4; stroke: #1f77b4"/>
     <use xlink:href="#mf0f862fcb0" x="385.09821" y="157.529278" style="fill: #1f77b4; stroke: #1f77b4"/>
     <use xlink:href="#mf0f862fcb0" x="383.166838" y="166.312546" style="fill: #1f77b4; stroke: #1f77b4"/>
     <use xlink:href="#mf0f862fcb0" x="381.452472" y="174.422641" style="fill: #1f77b4; stroke: #1f77b4"/>
     <use xlink:href="#mf0f862fcb0" x="377.258312" y="182.396736" style="fill: #1f77b4; stroke: #1f77b4"/>
     <use xlink:href="#mf0f862fcb0" x="373.27231" y="188.711149" style="fill: #1f77b4; stroke: #1f77b4"/>
     <use xlink:href="#mf0f862fcb0" x="369.391072" y="193.660262" style="fill: #1f77b4; stroke: #1f77b4"/>
     <use xlink:href="#mf0f862fcb0" x="365.854878" y="198.725546" style="fill: #1f77b4; stroke: #1f77b4"/>
     <use xlink:href="#mf0f862fcb0" x="360.139812" y="204.586817" style="fill: #1f77b4; stroke: #1f77b4"/>
     <use xlink:href="#mf0f862fcb0" x="355.052048" y="209.025729" style="fill: #1f77b4; stroke: #1f77b4"/>
     <use xlink:href="#mf0f862fcb0" x="350.671931" y="212.726573" style="fill: #1f77b4; stroke: #1f77b4"/>
     <use xlink:href="#mf0f862fcb0" x="346.654484" y="214.957886" style="fill: #1f77b4; stroke: #1f77b4"/>
     <use xlink:href="#mf0f862fcb0" x="340.192936" y="219.723255" style="fill: #1f77b4; stroke: #1f77b4"/>
     <use xlink:href="#mf0f862fcb0" x="335.759758" y="222.102853" style="fill: #1f77b4; stroke: #1f77b4"/>
     <use xlink:href="#mf0f862fcb0" x="329.93082" y="225.628712" style="fill: #1f77b4; stroke: #1f77b4"/>
     <use xlink:href="#mf0f862fcb0" x="324.945155" y="227.672239" style="fill: #1f77b4; stroke: #1f77b4"/>
     <use xlink:href="#mf0f862fcb0" x="319.396502" y="230.620697" style="fill: #1f77b4; stroke: #1f77b4"/>
     <use xlink:href="#mf0f862fcb0" x="315.110399" y="231.69265" style="fill: #1f77b4; stroke: #1f77b4"/>
     <use xlink:href="#mf0f862fcb0" x="310.487054" y="233.341701" style="fill: #1f77b4; stroke: #1f77b4"/>
     <use xlink:href="#mf0f862fcb0" x="306.085046" y="234.614061" style="fill: #1f77b4; stroke: #1f77b4"/>
     <use xlink:href="#mf0f862fcb0" x="301.344417" y="236.392868" style="fill: #1f77b4; stroke: #1f77b4"/>
     <use xlink:href="#mf0f862fcb0" x="297.035883" y="237.487319" style="fill: #1f77b4; stroke: #1f77b4"/>
     <use xlink:href="#mf0f862fcb0" x="291.973266" y="238.905506" style="fill: #1f77b4; stroke: #1f77b4"/>
     <use xlink:href="#mf0f862fcb0" x="287.910707" y="239.667106" style="fill: #1f77b4; stroke: #1f77b4"/>
     <use xlink:href="#mf0f862fcb0" x="284.301855" y="240.462561" style="fill: #1f77b4; stroke: #1f77b4"/>
     <use xlink:href="#mf0f862fcb0" x="279.68073" y="241.289671" style="fill: #1f77b4; stroke: #1f77b4"/>
     <use xlink:href="#mf0f862fcb0" x="276.75519" y="241.640884" style="fill: #1f77b4; stroke: #1f77b4"/>
     <use xlink:href="#mf0f862fcb0" x="273.163676" y="242.277327" style="fill: #1f77b4; stroke: #1f77b4"/>
     <use xlink:href="#mf0f862fcb0" x="268.885625" y="242.732238" style="fill: #1f77b4; stroke: #1f77b4"/>
     <use xlink:href="#mf0f862fcb0" x="264.549283" y="243.210971" style="fill: #1f77b4; stroke: #1f77b4"/>
     <use xlink:href="#mf0f862fcb0" x="261.80105" y="243.311688" style="fill: #1f77b4; stroke: #1f77b4"/>
     <use xlink:href="#mf0f862fcb0" x="258.24144" y="243.715342" style="fill: #1f77b4; stroke: #1f77b4"/>
     <use xlink:href="#mf0f862fcb0" x="254.415819" y="243.717883" style="fill: #1f77b4; stroke: #1f77b4"/>
     <use xlink:href="#mf0f862fcb0" x="251.844582" y="243.621428" style="fill: #1f77b4; stroke: #1f77b4"/>
     <use xlink:href="#mf0f862fcb0" x="249.639287" y="243.813739" style="fill: #1f77b4; stroke: #1f77b4"/>
     <use xlink:href="#mf0f862fcb0" x="246.51912" y="244.040764" style="fill: #1f77b4; stroke: #1f77b4"/>
     <use xlink:href="#mf0f862fcb0" x="243.350683" y="243.879128" style="fill: #1f77b4; stroke: #1f77b4"/>
     <use xlink:href="#mf0f862fcb0" x="240.14297" y="243.835449" style="fill: #1f77b4; stroke: #1f77b4"/>
     <use xlink:href="#mf0f862fcb0" x="236.900752" y="243.710411" style="fill: #1f77b4; stroke: #1f77b4"/>
     <use xlink:href="#mf0f862fcb0" x="234.078461" y="243.642383" style="fill: #1f77b4; stroke: #1f77b4"/>
     <use xlink:href="#mf0f862fcb0" x="232.404093" y="243.575454" style="fill: #1f77b4; stroke: #1f77b4"/>
     <use xlink:href="#mf0f862fcb0" x="229.436875" y="243.326085" style="fill: #1f77b4; stroke: #1f77b4"/>
     <use xlink:href="#mf0f862fcb0" x="226.406392" y="243.076568" style="fill: #1f77b4; stroke: #1f77b4"/>
     <use xlink:href="#mf0f862fcb0" x="224.421771" y="242.723642" style="fill: #1f77b4; stroke: #1f77b4"/>
     <use xlink:href="#mf0f862fcb0" x="222.738575" y="242.309105" style="fill: #1f77b4; stroke: #1f77b4"/>
     <use xlink:href="#mf0f862fcb0" x="220.84358" y="242.114003" style="fill: #1f77b4; stroke: #1f77b4"/>
     <use xlink:href="#mf0f862fcb0" x="217.558448" y="241.973759" style="fill: #1f77b4; stroke: #1f77b4"/>
     <use xlink:href="#mf0f862fcb0" x="214.836987" y="241.597517" style="fill: #1f77b4; stroke: #1f77b4"/>
     <use xlink:href="#mf0f862fcb0" x="211.769448" y="241.478551" style="fill: #1f77b4; stroke: #1f77b4"/>
     <use xlink:href="#mf0f862fcb0" x="209.609342" y="240.991323" style="fill: #1f77b4; stroke: #1f77b4"/>
     <use xlink:href="#mf0f862fcb0" x="208.729437" y="240.715147" style="fill: #1f77b4; stroke: #1f77b4"/>
     <use xlink:href="#mf0f862fcb0" x="205.480513" y="240.138619" style="fill: #1f77b4; stroke: #1f77b4"/>
     <use xlink:href="#mf0f862fcb0" x="204.46981" y="239.732399" style="fill: #1f77b4; stroke: #1f77b4"/>
     <use xlink:href="#mf0f862fcb0" x="201.753315" y="239.726391" style="fill: #1f77b4; stroke: #1f77b4"/>
     <use xlink:href="#mf0f862fcb0" x="199.490995" y="239.037233" style="fill: #1f77b4; stroke: #1f77b4"/>
     <use xlink:href="#mf0f862fcb0" x="197.616461" y="238.563589" style="fill: #1f77b4; stroke: #1f77b4"/>
     <use xlink:href="#mf0f862fcb0" x="195.103281" y="238.28572" style="fill: #1f77b4; stroke: #1f77b4"/>
     <use xlink:href="#mf0f862fcb0" x="192.892015" y="237.502881" style="fill: #1f77b4; stroke: #1f77b4"/>
     <use xlink:href="#mf0f862fcb0" x="191.94127" y="237.23903" style="fill: #1f77b4; stroke: #1f77b4"/>
     <use xlink:href="#mf0f862fcb0" x="190.362686" y="236.735893" style="fill: #1f77b4; stroke: #1f77b4"/>
     <use xlink:href="#mf0f862fcb0" x="188.092845" y="236.2524" style="fill: #1f77b4; stroke: #1f77b4"/>
     <use xlink:href="#mf0f862fcb0" x="185.795679" y="235.744283" style="fill: #1f77b4; stroke: #1f77b4"/>
     <use xlink:href="#mf0f862fcb0" x="185.180924" y="235.428325" style="fill: #1f77b4; stroke: #1f77b4"/>
     <use xlink:href="#mf0f862fcb0" x="182.86432" y="234.790818" style="fill: #1f77b4; stroke: #1f77b4"/>
     <use xlink:href="#mf0f862fcb0" x="180.929981" y="234.170331" style="fill: #1f77b4; stroke: #1f77b4"/>
     <use xlink:href="#mf0f862fcb0" x="179.341771" y="233.89522" style="fill: #1f77b4; stroke: #1f77b4"/>
     <use xlink:href="#mf0f862fcb0" x="177.29119" y="233.038568" style="fill: #1f77b4; stroke: #1f77b4"/>
     <use xlink:href="#mf0f862fcb0" x="175.375619" y="232.75468" style="fill: #1f77b4; stroke: #1f77b4"/>
     <use xlink:href="#mf0f862fcb0" x="174.165467" y="232.346586" style="fill: #1f77b4; stroke: #1f77b4"/>
     <use xlink:href="#mf0f862fcb0" x="172.279682" y="231.562513" style="fill: #1f77b4; stroke: #1f77b4"/>
     <use xlink:href="#mf0f862fcb0" x="169.870409" y="231.040919" style="fill: #1f77b4; stroke: #1f77b4"/>
     <use xlink:href="#mf0f862fcb0" x="168.746547" y="230.520795" style="fill: #1f77b4; stroke: #1f77b4"/>
     <use xlink:href="#mf0f862fcb0" x="167.207404" y="229.698845" style="fill: #1f77b4; stroke: #1f77b4"/>
     <use xlink:href="#mf0f862fcb0" x="165.658296" y="229.56102" style="fill: #1f77b4; stroke: #1f77b4"/>
     <use xlink:href="#mf0f862fcb0" x="164.007407" y="228.669034" style="fill: #1f77b4; stroke: #1f77b4"/>
     <use xlink:href="#mf0f862fcb0" x="163.043845" y="227.893056" style="fill: #1f77b4; stroke: #1f77b4"/>
     <use xlink:href="#mf0f862fcb0" x="161.536148" y="227.410518" style="fill: #1f77b4; stroke: #1f77b4"/>
     <use xlink:href="#mf0f862fcb0" x="160.391761" y="227.372653" style="fill: #1f77b4; stroke: #1f77b4"/>
     <use xlink:href="#mf0f862fcb0" x="158.945066" y="226.631837" style="fill: #1f77b4; stroke: #1f77b4"/>
     <use xlink:href="#mf0f862fcb0" x="156.525531" y="225.674136" style="fill: #1f77b4; stroke: #1f77b4"/>
     <use xlink:href="#mf0f862fcb0" x="155.530243" y="225.110675" style="fill: #1f77b4; stroke: #1f77b4"/>
     <use xlink:href="#mf0f862fcb0" x="153.732326" y="224.57797" style="fill: #1f77b4; stroke: #1f77b4"/>
     <use xlink:href="#mf0f862fcb0" x="151.725028" y="223.885909" style="fill: #1f77b4; stroke: #1f77b4"/>
     <use xlink:href="#mf0f862fcb0" x="150.460945" y="223.412123" style="fill: #1f77b4; stroke: #1f77b4"/>
     <use xlink:href="#mf0f862fcb0" x="149.029075" y="222.72239" style="fill: #1f77b4; stroke: #1f77b4"/>
     <use xlink:href="#mf0f862fcb0" x="148.310053" y="222.31819" style="fill: #1f77b4; stroke: #1f77b4"/>
     <use xlink:href="#mf0f862fcb0" x="147.121984" y="221.55886" style="fill: #1f77b4; stroke: #1f77b4"/>
     <use xlink:href="#mf0f862fcb0" x="145.323366" y="220.955593" style="fill: #1f77b4; stroke: #1f77b4"/>
     <use xlink:href="#mf0f862fcb0" x="143.847327" y="220.188505" style="fill: #1f77b4; stroke: #1f77b4"/>
     <use xlink:href="#mf0f862fcb0" x="142.529053" y="219.401767" style="fill: #1f77b4; stroke: #1f77b4"/>
     <use xlink:href="#mf0f862fcb0" x="141.097459" y="218.993451" style="fill: #1f77b4; stroke: #1f77b4"/>
     <use xlink:href="#mf0f862fcb0" x="139.431512" y="218.378754" style="fill: #1f77b4; stroke: #1f77b4"/>
     <use xlink:href="#mf0f862fcb0" x="138.32253" y="217.777879" style="fill: #1f77b4; stroke: #1f77b4"/>
     <use xlink:href="#mf0f862fcb0" x="137.458945" y="216.836024" style="fill: #1f77b4; stroke: #1f77b4"/>
     <use xlink:href="#mf0f862fcb0" x="136.496329" y="216.38276" style="fill: #1f77b4; stroke: #1f77b4"/>
     <use xlink:href="#mf0f862fcb0" x="134.982079" y="215.770255" style="fill: #1f77b4; stroke: #1f77b4"/>
     <use xlink:href="#mf0f862fcb0" x="133.68304" y="214.757455" style="fill: #1f77b4; stroke: #1f77b4"/>
     <use xlink:href="#mf0f862fcb0" x="132.315089" y="214.258011" style="fill: #1f77b4; stroke: #1f77b4"/>
     <use xlink:href="#mf0f862fcb0" x="131.024471" y="213.762409" style="fill: #1f77b4; stroke: #1f77b4"/>
     <use xlink:href="#mf0f862fcb0" x="129.980277" y="212.85665" style="fill: #1f77b4; stroke: #1f77b4"/>
     <use xlink:href="#mf0f862fcb0" x="128.899302" y="212.28242" style="fill: #1f77b4; stroke: #1f77b4"/>
     <use xlink:href="#mf0f862fcb0" x="126.996663" y="211.409902" style="fill: #1f77b4; stroke: #1f77b4"/>
     <use xlink:href="#mf0f862fcb0" x="126.211044" y="210.871129" style="fill: #1f77b4; stroke: #1f77b4"/>
     <use xlink:href="#mf0f862fcb0" x="125.272786" y="210.257718" style="fill: #1f77b4; stroke: #1f77b4"/>
     <use xlink:href="#mf0f862fcb0" x="124.384037" y="209.56842" style="fill: #1f77b4; stroke: #1f77b4"/>
    </g>
   </g>
   <g id="line2d_11">
    <path d="M 211.565437 295.776 
L 201.591022 292.349063 
L 191.643655 288.694826 
L 182.111184 284.951007 
L 173.029678 281.141299 
L 164.447239 277.298635 
L 156.423555 273.467899 
L 148.557189 269.460671 
L 141.363681 265.549648 
L 134.422655 261.522048 
L 127.773916 257.397036 
L 121.461608 253.202732 
L 115.532436 248.977552 
L 110.033307 244.771095 
L 105.008543 240.644289 
L 100.497008 236.668593 
L 95.962264 232.367262 
L 91.995473 228.305422 
L 88.053871 223.934189 
L 84.718185 219.916231 
L 81.447435 215.624011 
L 78.792978 211.819989 
L 76.22565 207.793339 
L 73.770724 203.528161 
L 71.458235 199.007924 
L 69.734508 195.196711 
L 68.145751 191.202676 
L 66.716085 187.017173 
L 65.472944 182.631833 
L 64.447443 178.038806 
L 63.842136 174.453467 
L 63.395401 170.744775 
L 63.125182 166.910662 
L 63.050991 162.949669 
L 63.193976 158.861085 
L 63.576971 154.645117 
L 64.224528 150.303075 
L 65.162914 145.837582 
L 66.420073 141.252813 
L 68.025537 136.554753 
L 70.010269 131.751474 
L 71.559974 128.495895 
L 73.302292 125.201901 
L 75.247114 121.873825 
L 77.404394 118.516614 
L 79.784074 115.135875 
L 82.395997 111.737912 
L 85.24981 108.329762 
L 88.354852 104.91923 
L 91.720032 101.514913 
L 95.353689 98.126219 
L 99.263445 94.763384 
L 103.456041 91.437464 
L 107.937168 88.160333 
L 112.711281 84.94465 
L 117.781418 81.803825 
L 123.149004 78.751954 
L 128.813668 75.803746 
L 134.773052 72.974424 
L 141.02264 70.279607 
L 147.555603 67.735172 
L 154.362657 65.357092 
L 161.43196 63.16126 
L 168.749036 61.163292 
L 176.296745 59.378317 
L 184.05529 57.820755 
L 192.002286 56.504094 
L 200.112876 55.440663 
L 208.359896 54.641407 
L 216.714111 54.115681 
L 225.144484 53.871059 
L 233.618514 53.913166 
L 242.102597 54.245544 
L 250.562438 54.869549 
L 258.963477 55.784293 
L 267.27133 56.986622 
L 275.452238 58.471145 
L 283.473502 60.230299 
L 291.303892 62.254461 
L 298.91403 64.532095 
L 306.276729 67.049935 
L 313.36728 69.793192 
L 320.163684 72.745789 
L 326.646825 75.890606 
L 332.800582 79.209729 
L 338.611877 82.684712 
L 344.070677 86.296818 
L 349.169924 90.02726 
L 353.905436 93.857421 
L 358.275758 97.769054 
L 362.281977 101.74446 
L 365.927521 105.766641 
L 369.217928 109.819425 
L 372.160613 113.887572 
L 374.764623 117.956845 
L 377.040399 122.014069 
L 378.999539 126.047157 
L 380.654571 130.045125 
L 382.018743 133.998088 
L 383.105825 137.897236 
L 383.929928 141.734804 
L 384.505344 145.504031 
L 384.8464 149.199109 
L 384.967334 152.815125 
L 384.882187 156.348007 
L 384.604709 159.794457 
L 384.148289 163.15189 
L 383.525888 166.418376 
L 382.749994 169.592573 
L 381.832588 172.673668 
L 380.216025 177.120129 
L 378.342967 181.357044 
L 376.246866 185.386758 
L 373.958353 189.213038 
L 371.505314 192.840773 
L 368.912994 196.275718 
L 366.204142 199.524269 
L 363.399162 202.593277 
L 359.540866 206.418374 
L 355.581569 209.954345 
L 351.553342 213.218619 
L 347.483271 216.228384 
L 343.394088 219.000353 
L 338.284277 222.155315 
L 333.203915 224.993469 
L 328.176334 227.542494 
L 323.219438 229.827979 
L 317.38316 232.255647 
L 311.684419 234.374385 
L 306.133977 236.217103 
L 299.854128 238.057007 
L 293.788938 239.601963 
L 287.119791 241.051954 
L 280.72554 242.208869 
L 273.849685 243.208371 
L 267.295146 243.932947 
L 260.368051 244.463011 
L 253.791502 244.746518 
L 246.932894 244.817352 
L 239.863798 244.652101 
L 233.188635 244.274682 
L 226.361214 243.66573 
L 219.433679 242.815846 
L 212.903417 241.798335 
L 206.30292 240.553262 
L 199.667688 239.077991 
L 193.027632 237.372032 
L 186.407584 235.436411 
L 179.82794 233.273127 
L 173.305346 230.884712 
L 166.853393 228.273889 
L 160.764805 225.57389 
L 154.736016 222.66375 
L 148.778007 219.544509 
L 142.900662 216.217046 
L 137.113156 212.682027 
L 131.424294 208.939888 
L 128.284205 206.753441 
L 128.284205 206.753441 
" clip-path="url(#p0541d10851)" style="fill: none; stroke: #d62728; stroke-width: 1.5; stroke-linecap: square"/>
   </g>
   <g id="patch_3">
    <path d="M 44.210938 307.872 
L 44.210938 41.76 
" style="fill: none; stroke: #000000; stroke-width: 0.8; stroke-linejoin: miter; stroke-linecap: square"/>
   </g>
   <g id="patch_4">
    <path d="M 401.330938 307.872 
L 401.330938 41.76 
" style="fill: none; stroke: #000000; stroke-width: 0.8; stroke-linejoin: miter; stroke-linecap: square"/>
   </g>
   <g id="patch_5">
    <path d="M 44.210938 307.872 
L 401.330937 307.872 
" style="fill: none; stroke: #000000; stroke-width: 0.8; stroke-linejoin: miter; stroke-linecap: square"/>
   </g>
   <g id="patch_6">
    <path d="M 44.210938 41.76 
L 401.330937 41.76 
" style="fill: none; stroke: #000000; stroke-width: 0.8; stroke-linejoin: miter; stroke-linecap: square"/>
   </g>
   <g id="text_12">
    <g id="patch_7">
     <path d="M 419.186937 102.337163 
L 563.986938 102.337163 
Q 567.986938 102.337163 567.986938 98.337163 
L 567.986938 55.0656 
Q 567.986938 51.0656 563.986938 51.0656 
L 419.186937 51.0656 
Q 415.186937 51.0656 415.186937 55.0656 
L 415.186937 98.337163 
Q 415.186937 102.337163 419.186937 102.337163 
z
" style="fill: #ffffff; opacity: 0.5; stroke: #000000; stroke-linejoin: miter"/>
    </g>
    <!-- Summary -->
    <g transform="translate(419.186937 62.664038) scale(0.1 -0.1)">
     <defs>
      <path id="DejaVuSans-53" d="M 3425 4513 
L 3425 3897 
Q 3066 4069 2747 4153 
Q 2428 4238 2131 4238 
Q 1616 4238 1336 4038 
Q 1056 3838 1056 3469 
Q 1056 3159 1242 3001 
Q 1428 2844 1947 2747 
L 2328 2669 
Q 3034 2534 3370 2195 
Q 3706 1856 3706 1288 
Q 3706 609 3251 259 
Q 2797 -91 1919 -91 
Q 1588 -91 1214 -16 
Q 841 59 441 206 
L 441 856 
Q 825 641 1194 531 
Q 1563 422 1919 422 
Q 2459 422 2753 634 
Q 3047 847 3047 1241 
Q 3047 1584 2836 1778 
Q 2625 1972 2144 2069 
L 1759 2144 
Q 1053 2284 737 2584 
Q 422 2884 422 3419 
Q 422 4038 858 4394 
Q 1294 4750 2059 4750 
Q 2388 4750 2728 4690 
Q 3069 4631 3425 4513 
z
" transform="scale(0.015625)"/>
      <path id="DejaVuSans-75" d="M 544 1381 
L 544 3500 
L 1119 3500 
L 1119 1403 
Q 1119 906 1312 657 
Q 1506 409 1894 409 
Q 2359 409 2629 706 
Q 2900 1003 2900 1516 
L 2900 3500 
L 3475 3500 
L 3475 0 
L 2900 0 
L 2900 538 
Q 2691 219 2414 64 
Q 2138 -91 1772 -91 
Q 1169 -91 856 284 
Q 544 659 544 1381 
z
M 1991 3584 
L 1991 3584 
z
" transform="scale(0.015625)"/>
      <path id="DejaVuSans-61" d="M 2194 1759 
Q 1497 1759 1228 1600 
Q 959 1441 959 1056 
Q 959 750 1161 570 
Q 1363 391 1709 391 
Q 2188 391 2477 730 
Q 2766 1069 2766 1631 
L 2766 1759 
L 2194 1759 
z
M 3341 1997 
L 3341 0 
L 2766 0 
L 2766 531 
Q 2569 213 2275 61 
Q 1981 -91 1556 -91 
Q 1019 -91 701 211 
Q 384 513 384 1019 
Q 384 1609 779 1909 
Q 1175 2209 1959 2209 
L 2766 2209 
L 2766 2266 
Q 2766 2663 2505 2880 
Q 2244 3097 1772 3097 
Q 1472 3097 1187 3025 
Q 903 2953 641 2809 
L 641 3341 
Q 956 3463 1253 3523 
Q 1550 3584 1831 3584 
Q 2591 3584 2966 3190 
Q 3341 2797 3341 1997 
z
" transform="scale(0.015625)"/>
      <path id="DejaVuSans-72" d="M 2631 2963 
Q 2534 3019 2420 3045 
Q 2306 3072 2169 3072 
Q 1681 3072 1420 2755 
Q 1159 2438 1159 1844 
L 1159 0 
L 581 0 
L 581 3500 
L 1159 3500 
L 1159 2956 
Q 1341 3275 1631 3429 
Q 1922 3584 2338 3584 
Q 2397 3584 2469 3576 
Q 2541 3569 2628 3553 
L 2631 2963 
z
" transform="scale(0.015625)"/>
      <path id="DejaVuSans-79" d="M 2059 -325 
Q 1816 -950 1584 -1140 
Q 1353 -1331 966 -1331 
L 506 -1331 
L 506 -850 
L 844 -850 
Q 1081 -850 1212 -737 
Q 1344 -625 1503 -206 
L 1606 56 
L 191 3500 
L 800 3500 
L 1894 763 
L 2988 3500 
L 3597 3500 
L 2059 -325 
z
" transform="scale(0.015625)"/>
     </defs>
     <use xlink:href="#DejaVuSans-53"/>
     <use xlink:href="#DejaVuSans-75" x="63.476562"/>
     <use xlink:href="#DejaVuSans-6d" x="126.855469"/>
     <use xlink:href="#DejaVuSans-6d" x="224.267578"/>
     <use xlink:href="#DejaVuSans-61" x="321.679688"/>
     <use xlink:href="#DejaVuSans-72" x="382.958984"/>
     <use xlink:href="#DejaVuSans-79" x="424.072266"/>
    </g>
    <!-- $Q_I$: 20.33$\pm$0.15 k -->
    <g transform="translate(419.186937 73.86185) scale(0.1 -0.1)">
     <defs>
      <path id="DejaVuSans-Oblique-51" d="M 2309 -84 
Q 2275 -88 2237 -89 
Q 2200 -91 2125 -91 
Q 1250 -91 756 411 
Q 263 913 263 1797 
Q 263 2319 452 2844 
Q 641 3369 978 3788 
Q 1369 4269 1858 4509 
Q 2347 4750 2938 4750 
Q 3794 4750 4287 4245 
Q 4781 3741 4781 2869 
Q 4781 1928 4265 1147 
Q 3750 366 2919 44 
L 3553 -825 
L 2847 -825 
L 2309 -84 
z
M 2919 4238 
Q 2400 4238 2003 3986 
Q 1606 3734 1313 3219 
Q 1125 2891 1026 2522 
Q 928 2153 928 1778 
Q 928 1128 1239 775 
Q 1550 422 2119 422 
Q 2631 422 3032 676 
Q 3434 931 3719 1434 
Q 3909 1772 4009 2142 
Q 4109 2513 4109 2881 
Q 4109 3528 3796 3883 
Q 3484 4238 2919 4238 
z
" transform="scale(0.015625)"/>
      <path id="DejaVuSans-Oblique-49" d="M 1081 4666 
L 1716 4666 
L 806 0 
L 172 0 
L 1081 4666 
z
" transform="scale(0.015625)"/>
      <path id="DejaVuSans-3a" d="M 750 794 
L 1409 794 
L 1409 0 
L 750 0 
L 750 794 
z
M 750 3309 
L 1409 3309 
L 1409 2516 
L 750 2516 
L 750 3309 
z
" transform="scale(0.015625)"/>
      <path id="DejaVuSans-2e" d="M 684 794 
L 1344 794 
L 1344 0 
L 684 0 
L 684 794 
z
" transform="scale(0.015625)"/>
      <path id="DejaVuSans-33" d="M 2597 2516 
Q 3050 2419 3304 2112 
Q 3559 1806 3559 1356 
Q 3559 666 3084 287 
Q 2609 -91 1734 -91 
Q 1441 -91 1130 -33 
Q 819 25 488 141 
L 488 750 
Q 750 597 1062 519 
Q 1375 441 1716 441 
Q 2309 441 2620 675 
Q 2931 909 2931 1356 
Q 2931 1769 2642 2001 
Q 2353 2234 1838 2234 
L 1294 2234 
L 1294 2753 
L 1863 2753 
Q 2328 2753 2575 2939 
Q 2822 3125 2822 3475 
Q 2822 3834 2567 4026 
Q 2313 4219 1838 4219 
Q 1578 4219 1281 4162 
Q 984 4106 628 3988 
L 628 4550 
Q 988 4650 1302 4700 
Q 1616 4750 1894 4750 
Q 2613 4750 3031 4423 
Q 3450 4097 3450 3541 
Q 3450 3153 3228 2886 
Q 3006 2619 2597 2516 
z
" transform="scale(0.015625)"/>
      <path id="DejaVuSans-b1" d="M 2944 4013 
L 2944 2803 
L 4684 2803 
L 4684 2272 
L 2944 2272 
L 2944 1063 
L 2419 1063 
L 2419 2272 
L 678 2272 
L 678 2803 
L 2419 2803 
L 2419 4013 
L 2944 4013 
z
M 678 531 
L 4684 531 
L 4684 0 
L 678 0 
L 678 531 
z
" transform="scale(0.015625)"/>
      <path id="DejaVuSans-35" d="M 691 4666 
L 3169 4666 
L 3169 4134 
L 1269 4134 
L 1269 2991 
Q 1406 3038 1543 3061 
Q 1681 3084 1819 3084 
Q 2600 3084 3056 2656 
Q 3513 2228 3513 1497 
Q 3513 744 3044 326 
Q 2575 -91 1722 -91 
Q 1428 -91 1123 -41 
Q 819 9 494 109 
L 494 744 
Q 775 591 1075 516 
Q 1375 441 1709 441 
Q 2250 441 2565 725 
Q 2881 1009 2881 1497 
Q 2881 1984 2565 2268 
Q 2250 2553 1709 2553 
Q 1456 2553 1204 2497 
Q 953 2441 691 2322 
L 691 4666 
z
" transform="scale(0.015625)"/>
      <path id="DejaVuSans-6b" d="M 581 4863 
L 1159 4863 
L 1159 1991 
L 2875 3500 
L 3609 3500 
L 1753 1863 
L 3688 0 
L 2938 0 
L 1159 1709 
L 1159 0 
L 581 0 
L 581 4863 
z
" transform="scale(0.015625)"/>
     </defs>
     <use xlink:href="#DejaVuSans-Oblique-51" transform="translate(0 0.015625)"/>
     <use xlink:href="#DejaVuSans-Oblique-49" transform="translate(78.710938 -16.390625) scale(0.7)"/>
     <use xlink:href="#DejaVuSans-3a" transform="translate(102.089844 0.015625)"/>
     <use xlink:href="#DejaVuSans-20" transform="translate(135.78125 0.015625)"/>
     <use xlink:href="#DejaVuSans-32" transform="translate(167.568359 0.015625)"/>
     <use xlink:href="#DejaVuSans-30" transform="translate(231.191406 0.015625)"/>
     <use xlink:href="#DejaVuSans-2e" transform="translate(294.814453 0.015625)"/>
     <use xlink:href="#DejaVuSans-33" transform="translate(326.601562 0.015625)"/>
     <use xlink:href="#DejaVuSans-33" transform="translate(390.224609 0.015625)"/>
     <use xlink:href="#DejaVuSans-b1" transform="translate(453.847656 0.015625)"/>
     <use xlink:href="#DejaVuSans-30" transform="translate(537.636719 0.015625)"/>
     <use xlink:href="#DejaVuSans-2e" transform="translate(601.259766 0.015625)"/>
     <use xlink:href="#DejaVuSans-31" transform="translate(633.046875 0.015625)"/>
     <use xlink:href="#DejaVuSans-35" transform="translate(696.669922 0.015625)"/>
     <use xlink:href="#DejaVuSans-20" transform="translate(760.292969 0.015625)"/>
     <use xlink:href="#DejaVuSans-6b" transform="translate(792.080078 0.015625)"/>
    </g>
    <!-- $Q_C$: 4.6041$\pm$0.0095 k -->
    <g transform="translate(419.186937 85.059663) scale(0.1 -0.1)">
     <defs>
      <path id="DejaVuSans-Oblique-43" d="M 4447 4306 
L 4319 3641 
Q 4019 3944 3683 4091 
Q 3347 4238 2956 4238 
Q 2422 4238 2017 3981 
Q 1613 3725 1319 3200 
Q 1131 2863 1032 2486 
Q 934 2109 934 1728 
Q 934 1091 1264 756 
Q 1594 422 2222 422 
Q 2656 422 3056 561 
Q 3456 700 3834 978 
L 3688 231 
Q 3316 72 2936 -9 
Q 2556 -91 2175 -91 
Q 1278 -91 773 396 
Q 269 884 269 1753 
Q 269 2309 461 2846 
Q 653 3384 1013 3828 
Q 1394 4300 1883 4525 
Q 2372 4750 3022 4750 
Q 3422 4750 3780 4639 
Q 4138 4528 4447 4306 
z
" transform="scale(0.015625)"/>
      <path id="DejaVuSans-39" d="M 703 97 
L 703 672 
Q 941 559 1184 500 
Q 1428 441 1663 441 
Q 2288 441 2617 861 
Q 2947 1281 2994 2138 
Q 2813 1869 2534 1725 
Q 2256 1581 1919 1581 
Q 1219 1581 811 2004 
Q 403 2428 403 3163 
Q 403 3881 828 4315 
Q 1253 4750 1959 4750 
Q 2769 4750 3195 4129 
Q 3622 3509 3622 2328 
Q 3622 1225 3098 567 
Q 2575 -91 1691 -91 
Q 1453 -91 1209 -44 
Q 966 3 703 97 
z
M 1959 2075 
Q 2384 2075 2632 2365 
Q 2881 2656 2881 3163 
Q 2881 3666 2632 3958 
Q 2384 4250 1959 4250 
Q 1534 4250 1286 3958 
Q 1038 3666 1038 3163 
Q 1038 2656 1286 2365 
Q 1534 2075 1959 2075 
z
" transform="scale(0.015625)"/>
     </defs>
     <use xlink:href="#DejaVuSans-Oblique-51" transform="translate(0 0.015625)"/>
     <use xlink:href="#DejaVuSans-Oblique-43" transform="translate(78.710938 -16.390625) scale(0.7)"/>
     <use xlink:href="#DejaVuSans-3a" transform="translate(130.322266 0.015625)"/>
     <use xlink:href="#DejaVuSans-20" transform="translate(164.013672 0.015625)"/>
     <use xlink:href="#DejaVuSans-34" transform="translate(195.800781 0.015625)"/>
     <use xlink:href="#DejaVuSans-2e" transform="translate(259.423828 0.015625)"/>
     <use xlink:href="#DejaVuSans-36" transform="translate(291.210938 0.015625)"/>
     <use xlink:href="#DejaVuSans-30" transform="translate(354.833984 0.015625)"/>
     <use xlink:href="#DejaVuSans-34" transform="translate(418.457031 0.015625)"/>
     <use xlink:href="#DejaVuSans-31" transform="translate(482.080078 0.015625)"/>
     <use xlink:href="#DejaVuSans-b1" transform="translate(545.703125 0.015625)"/>
     <use xlink:href="#DejaVuSans-30" transform="translate(629.492188 0.015625)"/>
     <use xlink:href="#DejaVuSans-2e" transform="translate(693.115234 0.015625)"/>
     <use xlink:href="#DejaVuSans-30" transform="translate(724.902344 0.015625)"/>
     <use xlink:href="#DejaVuSans-30" transform="translate(788.525391 0.015625)"/>
     <use xlink:href="#DejaVuSans-39" transform="translate(852.148438 0.015625)"/>
     <use xlink:href="#DejaVuSans-35" transform="translate(915.771484 0.015625)"/>
     <use xlink:href="#DejaVuSans-20" transform="translate(979.394531 0.015625)"/>
     <use xlink:href="#DejaVuSans-6b" transform="translate(1011.181641 0.015625)"/>
    </g>
    <!-- $f_{res}$: 5.9131257$\pm$1.8e-06 GHz -->
    <g transform="translate(419.186937 96.257475) scale(0.1 -0.1)">
     <defs>
      <path id="DejaVuSans-Oblique-66" d="M 3059 4863 
L 2969 4384 
L 2419 4384 
Q 2106 4384 1964 4261 
Q 1822 4138 1753 3809 
L 1691 3500 
L 2638 3500 
L 2553 3053 
L 1606 3053 
L 1013 0 
L 434 0 
L 1031 3053 
L 481 3053 
L 563 3500 
L 1113 3500 
L 1159 3744 
Q 1278 4363 1576 4613 
Q 1875 4863 2516 4863 
L 3059 4863 
z
" transform="scale(0.015625)"/>
      <path id="DejaVuSans-Oblique-72" d="M 2853 2969 
Q 2766 3016 2653 3041 
Q 2541 3066 2413 3066 
Q 1953 3066 1609 2717 
Q 1266 2369 1153 1784 
L 800 0 
L 225 0 
L 909 3500 
L 1484 3500 
L 1375 2956 
Q 1603 3259 1920 3421 
Q 2238 3584 2597 3584 
Q 2691 3584 2781 3573 
Q 2872 3563 2963 3538 
L 2853 2969 
z
" transform="scale(0.015625)"/>
      <path id="DejaVuSans-Oblique-65" d="M 3078 2063 
Q 3088 2113 3092 2166 
Q 3097 2219 3097 2272 
Q 3097 2653 2873 2875 
Q 2650 3097 2266 3097 
Q 1838 3097 1509 2826 
Q 1181 2556 1013 2059 
L 3078 2063 
z
M 3578 1613 
L 903 1613 
Q 884 1494 878 1425 
Q 872 1356 872 1306 
Q 872 872 1139 634 
Q 1406 397 1894 397 
Q 2269 397 2603 481 
Q 2938 566 3225 728 
L 3116 159 
Q 2806 34 2476 -28 
Q 2147 -91 1806 -91 
Q 1078 -91 686 257 
Q 294 606 294 1247 
Q 294 1794 489 2264 
Q 684 2734 1063 3103 
Q 1306 3334 1642 3459 
Q 1978 3584 2356 3584 
Q 2950 3584 3301 3228 
Q 3653 2872 3653 2272 
Q 3653 2128 3634 1964 
Q 3616 1800 3578 1613 
z
" transform="scale(0.015625)"/>
      <path id="DejaVuSans-Oblique-73" d="M 3200 3397 
L 3091 2853 
Q 2863 2978 2609 3040 
Q 2356 3103 2088 3103 
Q 1634 3103 1373 2948 
Q 1113 2794 1113 2528 
Q 1113 2219 1719 2053 
Q 1766 2041 1788 2034 
L 1972 1978 
Q 2547 1819 2739 1644 
Q 2931 1469 2931 1166 
Q 2931 609 2489 259 
Q 2047 -91 1331 -91 
Q 1053 -91 747 -37 
Q 441 16 72 128 
L 184 722 
Q 500 559 806 475 
Q 1113 391 1394 391 
Q 1816 391 2080 572 
Q 2344 753 2344 1031 
Q 2344 1331 1650 1516 
L 1591 1531 
L 1394 1581 
Q 956 1697 753 1886 
Q 550 2075 550 2369 
Q 550 2928 970 3256 
Q 1391 3584 2113 3584 
Q 2397 3584 2667 3537 
Q 2938 3491 3200 3397 
z
" transform="scale(0.015625)"/>
      <path id="DejaVuSans-37" d="M 525 4666 
L 3525 4666 
L 3525 4397 
L 1831 0 
L 1172 0 
L 2766 4134 
L 525 4134 
L 525 4666 
z
" transform="scale(0.015625)"/>
      <path id="DejaVuSans-47" d="M 3809 666 
L 3809 1919 
L 2778 1919 
L 2778 2438 
L 4434 2438 
L 4434 434 
Q 4069 175 3628 42 
Q 3188 -91 2688 -91 
Q 1594 -91 976 548 
Q 359 1188 359 2328 
Q 359 3472 976 4111 
Q 1594 4750 2688 4750 
Q 3144 4750 3555 4637 
Q 3966 4525 4313 4306 
L 4313 3634 
Q 3963 3931 3569 4081 
Q 3175 4231 2741 4231 
Q 1884 4231 1454 3753 
Q 1025 3275 1025 2328 
Q 1025 1384 1454 906 
Q 1884 428 2741 428 
Q 3075 428 3337 486 
Q 3600 544 3809 666 
z
" transform="scale(0.015625)"/>
      <path id="DejaVuSans-48" d="M 628 4666 
L 1259 4666 
L 1259 2753 
L 3553 2753 
L 3553 4666 
L 4184 4666 
L 4184 0 
L 3553 0 
L 3553 2222 
L 1259 2222 
L 1259 0 
L 628 0 
L 628 4666 
z
" transform="scale(0.015625)"/>
      <path id="DejaVuSans-7a" d="M 353 3500 
L 3084 3500 
L 3084 2975 
L 922 459 
L 3084 459 
L 3084 0 
L 275 0 
L 275 525 
L 2438 3041 
L 353 3041 
L 353 3500 
z
" transform="scale(0.015625)"/>
     </defs>
     <use xlink:href="#DejaVuSans-Oblique-66" transform="translate(0 0.015625)"/>
     <use xlink:href="#DejaVuSans-Oblique-72" transform="translate(35.205078 -16.390625) scale(0.7)"/>
     <use xlink:href="#DejaVuSans-Oblique-65" transform="translate(63.984375 -16.390625) scale(0.7)"/>
     <use xlink:href="#DejaVuSans-Oblique-73" transform="translate(107.050781 -16.390625) scale(0.7)"/>
     <use xlink:href="#DejaVuSans-3a" transform="translate(146.254883 0.015625)"/>
     <use xlink:href="#DejaVuSans-20" transform="translate(179.946289 0.015625)"/>
     <use xlink:href="#DejaVuSans-35" transform="translate(211.733398 0.015625)"/>
     <use xlink:href="#DejaVuSans-2e" transform="translate(275.356445 0.015625)"/>
     <use xlink:href="#DejaVuSans-39" transform="translate(307.143555 0.015625)"/>
     <use xlink:href="#DejaVuSans-31" transform="translate(370.766602 0.015625)"/>
     <use xlink:href="#DejaVuSans-33" transform="translate(434.389648 0.015625)"/>
     <use xlink:href="#DejaVuSans-31" transform="translate(498.012695 0.015625)"/>
     <use xlink:href="#DejaVuSans-32" transform="translate(561.635742 0.015625)"/>
     <use xlink:href="#DejaVuSans-35" transform="translate(625.258789 0.015625)"/>
     <use xlink:href="#DejaVuSans-37" transform="translate(681.631836 0.015625)"/>
     <use xlink:href="#DejaVuSans-b1" transform="translate(745.254883 0.015625)"/>
     <use xlink:href="#DejaVuSans-31" transform="translate(829.043945 0.015625)"/>
     <use xlink:href="#DejaVuSans-2e" transform="translate(892.666992 0.015625)"/>
     <use xlink:href="#DejaVuSans-38" transform="translate(921.829102 0.015625)"/>
     <use xlink:href="#DejaVuSans-65" transform="translate(985.452148 0.015625)"/>
     <use xlink:href="#DejaVuSans-2d" transform="translate(1046.975586 0.015625)"/>
     <use xlink:href="#DejaVuSans-30" transform="translate(1083.05957 0.015625)"/>
     <use xlink:href="#DejaVuSans-36" transform="translate(1146.682617 0.015625)"/>
     <use xlink:href="#DejaVuSans-20" transform="translate(1210.305664 0.015625)"/>
     <use xlink:href="#DejaVuSans-47" transform="translate(1242.092773 0.015625)"/>
     <use xlink:href="#DejaVuSans-48" transform="translate(1319.583008 0.015625)"/>
     <use xlink:href="#DejaVuSans-7a" transform="translate(1394.77832 0.015625)"/>
    </g>
   </g>
  </g>
  <g id="text_13">
   <!-- S21 resonator spectroscopy -->
   <g transform="translate(133.226562 16.318125) scale(0.12 -0.12)">
    <defs>
     <path id="DejaVuSans-73" d="M 2834 3397 
L 2834 2853 
Q 2591 2978 2328 3040 
Q 2066 3103 1784 3103 
Q 1356 3103 1142 2972 
Q 928 2841 928 2578 
Q 928 2378 1081 2264 
Q 1234 2150 1697 2047 
L 1894 2003 
Q 2506 1872 2764 1633 
Q 3022 1394 3022 966 
Q 3022 478 2636 193 
Q 2250 -91 1575 -91 
Q 1294 -91 989 -36 
Q 684 19 347 128 
L 347 722 
Q 666 556 975 473 
Q 1284 391 1588 391 
Q 1994 391 2212 530 
Q 2431 669 2431 922 
Q 2431 1156 2273 1281 
Q 2116 1406 1581 1522 
L 1381 1569 
Q 847 1681 609 1914 
Q 372 2147 372 2553 
Q 372 3047 722 3315 
Q 1072 3584 1716 3584 
Q 2034 3584 2315 3537 
Q 2597 3491 2834 3397 
z
" transform="scale(0.015625)"/>
     <path id="DejaVuSans-6f" d="M 1959 3097 
Q 1497 3097 1228 2736 
Q 959 2375 959 1747 
Q 959 1119 1226 758 
Q 1494 397 1959 397 
Q 2419 397 2687 759 
Q 2956 1122 2956 1747 
Q 2956 2369 2687 2733 
Q 2419 3097 1959 3097 
z
M 1959 3584 
Q 2709 3584 3137 3096 
Q 3566 2609 3566 1747 
Q 3566 888 3137 398 
Q 2709 -91 1959 -91 
Q 1206 -91 779 398 
Q 353 888 353 1747 
Q 353 2609 779 3096 
Q 1206 3584 1959 3584 
z
" transform="scale(0.015625)"/>
     <path id="DejaVuSans-6e" d="M 3513 2113 
L 3513 0 
L 2938 0 
L 2938 2094 
Q 2938 2591 2744 2837 
Q 2550 3084 2163 3084 
Q 1697 3084 1428 2787 
Q 1159 2491 1159 1978 
L 1159 0 
L 581 0 
L 581 3500 
L 1159 3500 
L 1159 2956 
Q 1366 3272 1645 3428 
Q 1925 3584 2291 3584 
Q 2894 3584 3203 3211 
Q 3513 2838 3513 2113 
z
" transform="scale(0.015625)"/>
     <path id="DejaVuSans-74" d="M 1172 4494 
L 1172 3500 
L 2356 3500 
L 2356 3053 
L 1172 3053 
L 1172 1153 
Q 1172 725 1289 603 
Q 1406 481 1766 481 
L 2356 481 
L 2356 0 
L 1766 0 
Q 1100 0 847 248 
Q 594 497 594 1153 
L 594 3053 
L 172 3053 
L 172 3500 
L 594 3500 
L 594 4494 
L 1172 4494 
z
" transform="scale(0.015625)"/>
     <path id="DejaVuSans-70" d="M 1159 525 
L 1159 -1331 
L 581 -1331 
L 581 3500 
L 1159 3500 
L 1159 2969 
Q 1341 3281 1617 3432 
Q 1894 3584 2278 3584 
Q 2916 3584 3314 3078 
Q 3713 2572 3713 1747 
Q 3713 922 3314 415 
Q 2916 -91 2278 -91 
Q 1894 -91 1617 61 
Q 1341 213 1159 525 
z
M 3116 1747 
Q 3116 2381 2855 2742 
Q 2594 3103 2138 3103 
Q 1681 3103 1420 2742 
Q 1159 2381 1159 1747 
Q 1159 1113 1420 752 
Q 1681 391 2138 391 
Q 2594 391 2855 752 
Q 3116 1113 3116 1747 
z
" transform="scale(0.015625)"/>
     <path id="DejaVuSans-63" d="M 3122 3366 
L 3122 2828 
Q 2878 2963 2633 3030 
Q 2388 3097 2138 3097 
Q 1578 3097 1268 2742 
Q 959 2388 959 1747 
Q 959 1106 1268 751 
Q 1578 397 2138 397 
Q 2388 397 2633 464 
Q 2878 531 3122 666 
L 3122 134 
Q 2881 22 2623 -34 
Q 2366 -91 2075 -91 
Q 1284 -91 818 406 
Q 353 903 353 1747 
Q 353 2603 823 3093 
Q 1294 3584 2113 3584 
Q 2378 3584 2631 3529 
Q 2884 3475 3122 3366 
z
" transform="scale(0.015625)"/>
    </defs>
    <use xlink:href="#DejaVuSans-53"/>
    <use xlink:href="#DejaVuSans-32" x="63.476562"/>
    <use xlink:href="#DejaVuSans-31" x="127.099609"/>
    <use xlink:href="#DejaVuSans-20" x="190.722656"/>
    <use xlink:href="#DejaVuSans-72" x="222.509766"/>
    <use xlink:href="#DejaVuSans-65" x="261.373047"/>
    <use xlink:href="#DejaVuSans-73" x="322.896484"/>
    <use xlink:href="#DejaVuSans-6f" x="374.996094"/>
    <use xlink:href="#DejaVuSans-6e" x="436.177734"/>
    <use xlink:href="#DejaVuSans-61" x="499.556641"/>
    <use xlink:href="#DejaVuSans-74" x="560.835938"/>
    <use xlink:href="#DejaVuSans-6f" x="600.044922"/>
    <use xlink:href="#DejaVuSans-72" x="661.226562"/>
    <use xlink:href="#DejaVuSans-20" x="702.339844"/>
    <use xlink:href="#DejaVuSans-73" x="734.126953"/>
    <use xlink:href="#DejaVuSans-70" x="786.226562"/>
    <use xlink:href="#DejaVuSans-65" x="849.703125"/>
    <use xlink:href="#DejaVuSans-63" x="911.226562"/>
    <use xlink:href="#DejaVuSans-74" x="966.207031"/>
    <use xlink:href="#DejaVuSans-72" x="1005.416016"/>
    <use xlink:href="#DejaVuSans-6f" x="1044.279297"/>
    <use xlink:href="#DejaVuSans-73" x="1105.460938"/>
    <use xlink:href="#DejaVuSans-63" x="1157.560547"/>
    <use xlink:href="#DejaVuSans-6f" x="1212.541016"/>
    <use xlink:href="#DejaVuSans-70" x="1273.722656"/>
    <use xlink:href="#DejaVuSans-79" x="1337.199219"/>
   </g>
   <!-- tuid: 20240103-160510-603-6349a4 -->
   <g transform="translate(107.29625 29.7555) scale(0.12 -0.12)">
    <defs>
     <path id="DejaVuSans-69" d="M 603 3500 
L 1178 3500 
L 1178 0 
L 603 0 
L 603 3500 
z
M 603 4863 
L 1178 4863 
L 1178 4134 
L 603 4134 
L 603 4863 
z
" transform="scale(0.015625)"/>
     <path id="DejaVuSans-64" d="M 2906 2969 
L 2906 4863 
L 3481 4863 
L 3481 0 
L 2906 0 
L 2906 525 
Q 2725 213 2448 61 
Q 2172 -91 1784 -91 
Q 1150 -91 751 415 
Q 353 922 353 1747 
Q 353 2572 751 3078 
Q 1150 3584 1784 3584 
Q 2172 3584 2448 3432 
Q 2725 3281 2906 2969 
z
M 947 1747 
Q 947 1113 1208 752 
Q 1469 391 1925 391 
Q 2381 391 2643 752 
Q 2906 1113 2906 1747 
Q 2906 2381 2643 2742 
Q 2381 3103 1925 3103 
Q 1469 3103 1208 2742 
Q 947 2381 947 1747 
z
" transform="scale(0.015625)"/>
    </defs>
    <use xlink:href="#DejaVuSans-74"/>
    <use xlink:href="#DejaVuSans-75" x="39.208984"/>
    <use xlink:href="#DejaVuSans-69" x="102.587891"/>
    <use xlink:href="#DejaVuSans-64" x="130.371094"/>
    <use xlink:href="#DejaVuSans-3a" x="193.847656"/>
    <use xlink:href="#DejaVuSans-20" x="227.539062"/>
    <use xlink:href="#DejaVuSans-32" x="259.326172"/>
    <use xlink:href="#DejaVuSans-30" x="322.949219"/>
    <use xlink:href="#DejaVuSans-32" x="386.572266"/>
    <use xlink:href="#DejaVuSans-34" x="450.195312"/>
    <use xlink:href="#DejaVuSans-30" x="513.818359"/>
    <use xlink:href="#DejaVuSans-31" x="577.441406"/>
    <use xlink:href="#DejaVuSans-30" x="641.064453"/>
    <use xlink:href="#DejaVuSans-33" x="704.6875"/>
    <use xlink:href="#DejaVuSans-2d" x="768.310547"/>
    <use xlink:href="#DejaVuSans-31" x="804.394531"/>
    <use xlink:href="#DejaVuSans-36" x="868.017578"/>
    <use xlink:href="#DejaVuSans-30" x="931.640625"/>
    <use xlink:href="#DejaVuSans-35" x="995.263672"/>
    <use xlink:href="#DejaVuSans-31" x="1058.886719"/>
    <use xlink:href="#DejaVuSans-30" x="1122.509766"/>
    <use xlink:href="#DejaVuSans-2d" x="1186.132812"/>
    <use xlink:href="#DejaVuSans-36" x="1222.216797"/>
    <use xlink:href="#DejaVuSans-30" x="1285.839844"/>
    <use xlink:href="#DejaVuSans-33" x="1349.462891"/>
    <use xlink:href="#DejaVuSans-2d" x="1413.085938"/>
    <use xlink:href="#DejaVuSans-36" x="1449.169922"/>
    <use xlink:href="#DejaVuSans-33" x="1512.792969"/>
    <use xlink:href="#DejaVuSans-34" x="1576.416016"/>
    <use xlink:href="#DejaVuSans-39" x="1640.039062"/>
    <use xlink:href="#DejaVuSans-61" x="1703.662109"/>
    <use xlink:href="#DejaVuSans-34" x="1764.941406"/>
   </g>
  </g>
 </g>
 <defs>
  <clipPath id="p0541d10851">
   <rect x="44.210938" y="41.76" width="357.12" height="266.112"/>
  </clipPath>
 </defs>
</svg>
