<?xml version="1.0" encoding="utf-8" standalone="no"?>
<!DOCTYPE svg PUBLIC "-//W3C//DTD SVG 1.1//EN"
  "http://www.w3.org/Graphics/SVG/1.1/DTD/svg11.dtd">
<svg xmlns:xlink="http://www.w3.org/1999/xlink" width="572.171312pt" height="345.42825pt" viewBox="0 0 572.171312 345.42825" xmlns="http://www.w3.org/2000/svg" version="1.1">
 <metadata>
  <rdf:RDF xmlns:dc="http://purl.org/dc/elements/1.1/" xmlns:cc="http://creativecommons.org/ns#" xmlns:rdf="http://www.w3.org/1999/02/22-rdf-syntax-ns#">
   <cc:Work>
    <dc:type rdf:resource="http://purl.org/dc/dcmitype/StillImage"/>
    <dc:date>2024-02-23T16:41:15.580473</dc:date>
    <dc:format>image/svg+xml</dc:format>
    <dc:creator>
     <cc:Agent>
      <dc:title>Matplotlib v3.8.2, https://matplotlib.org/</dc:title>
     </cc:Agent>
    </dc:creator>
   </cc:Work>
  </rdf:RDF>
 </metadata>
 <defs>
  <style type="text/css">*{stroke-linejoin: round; stroke-linecap: butt}</style>
 </defs>
 <g id="figure_1">
  <g id="patch_1">
   <path d="M 0 345.42825 
L 572.171312 345.42825 
L 572.171312 -0 
L 0 -0 
L 0 345.42825 
z
" style="fill: none; opacity: 0"/>
  </g>
  <g id="axes_1">
   <g id="patch_2">
    <path d="M 50.595313 162.72 
L 407.715312 162.72 
L 407.715312 41.76 
L 50.595313 41.76 
z
" style="fill: #ffffff"/>
   </g>
   <g id="matplotlib.axis_1">
    <g id="xtick_1">
     <g id="line2d_1">
      <defs>
       <path id="m642eba55b2" d="M 0 0 
L 0 3.5 
" style="stroke: #000000; stroke-width: 0.8"/>
      </defs>
      <g>
       <use xlink:href="#m642eba55b2" x="66.82804" y="162.72" style="stroke: #000000; stroke-width: 0.8"/>
      </g>
     </g>
    </g>
    <g id="xtick_2">
     <g id="line2d_2">
      <g>
       <use xlink:href="#m642eba55b2" x="120.937131" y="162.72" style="stroke: #000000; stroke-width: 0.8"/>
      </g>
     </g>
    </g>
    <g id="xtick_3">
     <g id="line2d_3">
      <g>
       <use xlink:href="#m642eba55b2" x="175.046222" y="162.72" style="stroke: #000000; stroke-width: 0.8"/>
      </g>
     </g>
    </g>
    <g id="xtick_4">
     <g id="line2d_4">
      <g>
       <use xlink:href="#m642eba55b2" x="229.155312" y="162.72" style="stroke: #000000; stroke-width: 0.8"/>
      </g>
     </g>
    </g>
    <g id="xtick_5">
     <g id="line2d_5">
      <g>
       <use xlink:href="#m642eba55b2" x="283.264403" y="162.72" style="stroke: #000000; stroke-width: 0.8"/>
      </g>
     </g>
    </g>
    <g id="xtick_6">
     <g id="line2d_6">
      <g>
       <use xlink:href="#m642eba55b2" x="337.373494" y="162.72" style="stroke: #000000; stroke-width: 0.8"/>
      </g>
     </g>
    </g>
    <g id="xtick_7">
     <g id="line2d_7">
      <g>
       <use xlink:href="#m642eba55b2" x="391.482585" y="162.72" style="stroke: #000000; stroke-width: 0.8"/>
      </g>
     </g>
    </g>
   </g>
   <g id="matplotlib.axis_2">
    <g id="ytick_1">
     <g id="line2d_8">
      <defs>
       <path id="m5c07db31bd" d="M 0 0 
L -3.5 0 
" style="stroke: #000000; stroke-width: 0.8"/>
      </defs>
      <g>
       <use xlink:href="#m5c07db31bd" x="50.595313" y="141.711675" style="stroke: #000000; stroke-width: 0.8"/>
      </g>
     </g>
     <g id="text_1">
      <!-- 2 -->
      <g transform="translate(37.232813 145.510894) scale(0.1 -0.1)">
       <defs>
        <path id="DejaVuSans-32" d="M 1228 531 
L 3431 531 
L 3431 0 
L 469 0 
L 469 531 
Q 828 903 1448 1529 
Q 2069 2156 2228 2338 
Q 2531 2678 2651 2914 
Q 2772 3150 2772 3378 
Q 2772 3750 2511 3984 
Q 2250 4219 1831 4219 
Q 1534 4219 1204 4116 
Q 875 4013 500 3803 
L 500 4441 
Q 881 4594 1212 4672 
Q 1544 4750 1819 4750 
Q 2544 4750 2975 4387 
Q 3406 4025 3406 3419 
Q 3406 3131 3298 2873 
Q 3191 2616 2906 2266 
Q 2828 2175 2409 1742 
Q 1991 1309 1228 531 
z
" transform="scale(0.015625)"/>
       </defs>
       <use xlink:href="#DejaVuSans-32"/>
      </g>
     </g>
    </g>
    <g id="ytick_2">
     <g id="line2d_9">
      <g>
       <use xlink:href="#m5c07db31bd" x="50.595313" y="113.96229" style="stroke: #000000; stroke-width: 0.8"/>
      </g>
     </g>
     <g id="text_2">
      <!-- 4 -->
      <g transform="translate(37.232813 117.761509) scale(0.1 -0.1)">
       <defs>
        <path id="DejaVuSans-34" d="M 2419 4116 
L 825 1625 
L 2419 1625 
L 2419 4116 
z
M 2253 4666 
L 3047 4666 
L 3047 1625 
L 3713 1625 
L 3713 1100 
L 3047 1100 
L 3047 0 
L 2419 0 
L 2419 1100 
L 313 1100 
L 313 1709 
L 2253 4666 
z
" transform="scale(0.015625)"/>
       </defs>
       <use xlink:href="#DejaVuSans-34"/>
      </g>
     </g>
    </g>
    <g id="ytick_3">
     <g id="line2d_10">
      <g>
       <use xlink:href="#m5c07db31bd" x="50.595313" y="86.212906" style="stroke: #000000; stroke-width: 0.8"/>
      </g>
     </g>
     <g id="text_3">
      <!-- 6 -->
      <g transform="translate(37.232813 90.012125) scale(0.1 -0.1)">
       <defs>
        <path id="DejaVuSans-36" d="M 2113 2584 
Q 1688 2584 1439 2293 
Q 1191 2003 1191 1497 
Q 1191 994 1439 701 
Q 1688 409 2113 409 
Q 2538 409 2786 701 
Q 3034 994 3034 1497 
Q 3034 2003 2786 2293 
Q 2538 2584 2113 2584 
z
M 3366 4563 
L 3366 3988 
Q 3128 4100 2886 4159 
Q 2644 4219 2406 4219 
Q 1781 4219 1451 3797 
Q 1122 3375 1075 2522 
Q 1259 2794 1537 2939 
Q 1816 3084 2150 3084 
Q 2853 3084 3261 2657 
Q 3669 2231 3669 1497 
Q 3669 778 3244 343 
Q 2819 -91 2113 -91 
Q 1303 -91 875 529 
Q 447 1150 447 2328 
Q 447 3434 972 4092 
Q 1497 4750 2381 4750 
Q 2619 4750 2861 4703 
Q 3103 4656 3366 4563 
z
" transform="scale(0.015625)"/>
       </defs>
       <use xlink:href="#DejaVuSans-36"/>
      </g>
     </g>
    </g>
    <g id="ytick_4">
     <g id="line2d_11">
      <g>
       <use xlink:href="#m5c07db31bd" x="50.595313" y="58.463521" style="stroke: #000000; stroke-width: 0.8"/>
      </g>
     </g>
     <g id="text_4">
      <!-- 8 -->
      <g transform="translate(37.232813 62.26274) scale(0.1 -0.1)">
       <defs>
        <path id="DejaVuSans-38" d="M 2034 2216 
Q 1584 2216 1326 1975 
Q 1069 1734 1069 1313 
Q 1069 891 1326 650 
Q 1584 409 2034 409 
Q 2484 409 2743 651 
Q 3003 894 3003 1313 
Q 3003 1734 2745 1975 
Q 2488 2216 2034 2216 
z
M 1403 2484 
Q 997 2584 770 2862 
Q 544 3141 544 3541 
Q 544 4100 942 4425 
Q 1341 4750 2034 4750 
Q 2731 4750 3128 4425 
Q 3525 4100 3525 3541 
Q 3525 3141 3298 2862 
Q 3072 2584 2669 2484 
Q 3125 2378 3379 2068 
Q 3634 1759 3634 1313 
Q 3634 634 3220 271 
Q 2806 -91 2034 -91 
Q 1263 -91 848 271 
Q 434 634 434 1313 
Q 434 1759 690 2068 
Q 947 2378 1403 2484 
z
M 1172 3481 
Q 1172 3119 1398 2916 
Q 1625 2713 2034 2713 
Q 2441 2713 2670 2916 
Q 2900 3119 2900 3481 
Q 2900 3844 2670 4047 
Q 2441 4250 2034 4250 
Q 1625 4250 1398 4047 
Q 1172 3844 1172 3481 
z
" transform="scale(0.015625)"/>
       </defs>
       <use xlink:href="#DejaVuSans-38"/>
      </g>
     </g>
    </g>
    <g id="text_5">
     <!-- $|S_{21}|$ [mV] -->
     <g transform="translate(30.832813 127.19) rotate(-90) scale(0.1 -0.1)">
      <defs>
       <path id="DejaVuSans-7c" d="M 1344 4891 
L 1344 -1509 
L 813 -1509 
L 813 4891 
L 1344 4891 
z
" transform="scale(0.015625)"/>
       <path id="DejaVuSans-Oblique-53" d="M 3859 4513 
L 3738 3897 
Q 3422 4066 3111 4152 
Q 2800 4238 2509 4238 
Q 1944 4238 1609 3991 
Q 1275 3744 1275 3334 
Q 1275 3109 1398 2989 
Q 1522 2869 2034 2731 
L 2413 2638 
Q 3053 2472 3303 2217 
Q 3553 1963 3553 1503 
Q 3553 797 2998 353 
Q 2444 -91 1538 -91 
Q 1166 -91 791 -17 
Q 416 56 38 206 
L 166 856 
Q 513 641 861 531 
Q 1209 422 1556 422 
Q 2147 422 2503 684 
Q 2859 947 2859 1369 
Q 2859 1650 2717 1795 
Q 2575 1941 2106 2059 
L 1728 2156 
Q 1081 2325 845 2545 
Q 609 2766 609 3163 
Q 609 3859 1145 4304 
Q 1681 4750 2541 4750 
Q 2875 4750 3203 4690 
Q 3531 4631 3859 4513 
z
" transform="scale(0.015625)"/>
       <path id="DejaVuSans-31" d="M 794 531 
L 1825 531 
L 1825 4091 
L 703 3866 
L 703 4441 
L 1819 4666 
L 2450 4666 
L 2450 531 
L 3481 531 
L 3481 0 
L 794 0 
L 794 531 
z
" transform="scale(0.015625)"/>
       <path id="DejaVuSans-20" transform="scale(0.015625)"/>
       <path id="DejaVuSans-5b" d="M 550 4863 
L 1875 4863 
L 1875 4416 
L 1125 4416 
L 1125 -397 
L 1875 -397 
L 1875 -844 
L 550 -844 
L 550 4863 
z
" transform="scale(0.015625)"/>
       <path id="DejaVuSans-6d" d="M 3328 2828 
Q 3544 3216 3844 3400 
Q 4144 3584 4550 3584 
Q 5097 3584 5394 3201 
Q 5691 2819 5691 2113 
L 5691 0 
L 5113 0 
L 5113 2094 
Q 5113 2597 4934 2840 
Q 4756 3084 4391 3084 
Q 3944 3084 3684 2787 
Q 3425 2491 3425 1978 
L 3425 0 
L 2847 0 
L 2847 2094 
Q 2847 2600 2669 2842 
Q 2491 3084 2119 3084 
Q 1678 3084 1418 2786 
Q 1159 2488 1159 1978 
L 1159 0 
L 581 0 
L 581 3500 
L 1159 3500 
L 1159 2956 
Q 1356 3278 1631 3431 
Q 1906 3584 2284 3584 
Q 2666 3584 2933 3390 
Q 3200 3197 3328 2828 
z
" transform="scale(0.015625)"/>
       <path id="DejaVuSans-56" d="M 1831 0 
L 50 4666 
L 709 4666 
L 2188 738 
L 3669 4666 
L 4325 4666 
L 2547 0 
L 1831 0 
z
" transform="scale(0.015625)"/>
       <path id="DejaVuSans-5d" d="M 1947 4863 
L 1947 -844 
L 622 -844 
L 622 -397 
L 1369 -397 
L 1369 4416 
L 622 4416 
L 622 4863 
L 1947 4863 
z
" transform="scale(0.015625)"/>
      </defs>
      <use xlink:href="#DejaVuSans-7c" transform="translate(0 0.578125)"/>
      <use xlink:href="#DejaVuSans-Oblique-53" transform="translate(33.691406 0.578125)"/>
      <use xlink:href="#DejaVuSans-32" transform="translate(97.167969 -15.828125) scale(0.7)"/>
      <use xlink:href="#DejaVuSans-31" transform="translate(141.704102 -15.828125) scale(0.7)"/>
      <use xlink:href="#DejaVuSans-7c" transform="translate(188.974609 0.578125)"/>
      <use xlink:href="#DejaVuSans-20" transform="translate(222.666016 0.578125)"/>
      <use xlink:href="#DejaVuSans-5b" transform="translate(254.453125 0.578125)"/>
      <use xlink:href="#DejaVuSans-6d" transform="translate(293.466797 0.578125)"/>
      <use xlink:href="#DejaVuSans-56" transform="translate(390.878906 0.578125)"/>
      <use xlink:href="#DejaVuSans-5d" transform="translate(459.287109 0.578125)"/>
     </g>
    </g>
   </g>
   <g id="line2d_12">
    <path d="M 66.82804 48.301933 
L 68.45947 48.924714 
L 70.0909 47.258182 
L 71.722329 49.193962 
L 73.353759 48.935116 
L 74.985189 50.497218 
L 76.616619 50.804818 
L 78.248049 50.258824 
L 79.879479 48.961537 
L 81.510909 49.963001 
L 83.142339 49.754268 
L 84.773768 50.74898 
L 86.405198 50.71704 
L 88.036628 50.491749 
L 91.299488 51.390552 
L 92.930918 49.776748 
L 94.562348 51.161602 
L 96.193778 50.663751 
L 97.825207 51.08829 
L 99.456637 51.008163 
L 101.088067 51.611268 
L 102.719497 51.262568 
L 104.350927 51.817859 
L 105.982357 51.52189 
L 107.613787 51.408579 
L 109.245217 52.693206 
L 110.876646 51.293911 
L 112.508076 51.763728 
L 114.139506 51.662284 
L 115.770936 52.342854 
L 117.402366 52.663348 
L 119.033796 52.74812 
L 120.665226 53.036 
L 122.296656 52.471732 
L 125.559515 52.938917 
L 127.190945 54.052415 
L 128.822375 53.085347 
L 130.453805 55.140586 
L 132.085235 53.72198 
L 133.716665 54.640888 
L 135.348095 53.089594 
L 136.979524 54.904376 
L 138.610954 54.754797 
L 140.242384 54.913243 
L 141.873814 54.115351 
L 143.505244 56.834198 
L 145.136674 54.905305 
L 146.768104 54.816269 
L 148.399534 55.693127 
L 151.662393 56.428393 
L 153.293823 57.241168 
L 154.925253 56.237783 
L 156.556683 55.839513 
L 158.188113 56.934781 
L 159.819543 56.471264 
L 161.450973 56.301068 
L 163.082402 57.505726 
L 164.713832 57.696368 
L 166.345262 57.294698 
L 167.976692 56.59336 
L 169.608122 56.634511 
L 171.239552 57.964445 
L 172.870982 56.530611 
L 174.502412 57.083371 
L 176.133842 56.667087 
L 177.765271 57.650256 
L 179.396701 58.96376 
L 181.028131 57.098012 
L 182.659561 58.536749 
L 184.290991 59.194428 
L 185.922421 58.960293 
L 187.553851 59.694388 
L 189.185281 57.50312 
L 190.81671 59.33784 
L 192.44814 58.040726 
L 194.07957 58.870339 
L 195.711 58.280428 
L 197.34243 59.675917 
L 200.60529 59.055105 
L 202.23672 59.127004 
L 203.868149 61.191007 
L 205.499579 60.02693 
L 207.131009 59.1932 
L 208.762439 60.585824 
L 210.393869 60.429485 
L 212.025299 60.716386 
L 213.656729 61.253981 
L 215.288159 60.460199 
L 216.919588 59.218787 
L 218.551018 60.35631 
L 220.182448 60.789301 
L 221.813878 60.285714 
L 223.445308 61.839615 
L 225.076738 61.268392 
L 226.708168 61.566822 
L 228.339598 62.221872 
L 229.971027 61.454287 
L 231.602457 62.805826 
L 233.233887 62.302716 
L 234.865317 61.972377 
L 236.496747 62.087894 
L 238.128177 61.90296 
L 241.391037 64.1348 
L 243.022466 63.638224 
L 244.653896 62.225926 
L 246.285326 63.594244 
L 247.916756 63.770333 
L 249.548186 64.511067 
L 254.442476 65.540751 
L 256.073905 66.146375 
L 257.705335 66.569831 
L 259.336765 68.460295 
L 260.968195 68.46267 
L 262.599625 67.946822 
L 264.231055 69.350739 
L 265.862485 67.976799 
L 267.493915 69.257324 
L 269.125344 69.78901 
L 270.756774 71.036635 
L 272.388204 70.426536 
L 274.019634 73.015341 
L 275.651064 73.733111 
L 277.282494 75.998792 
L 278.913924 77.834715 
L 280.545354 78.193038 
L 285.439643 87.011844 
L 287.071073 90.194946 
L 288.702503 95.740221 
L 290.333933 98.044727 
L 291.965363 102.770186 
L 295.228223 116.885266 
L 298.491082 133.406873 
L 300.122512 145.209473 
L 301.753942 152.388668 
L 303.385372 157.221818 
L 305.016802 155.848103 
L 306.648232 147.926319 
L 308.279662 138.567117 
L 309.911091 130.646491 
L 311.542521 121.203355 
L 313.173951 116.071663 
L 314.805381 108.587607 
L 316.436811 103.927372 
L 318.068241 98.663185 
L 319.699671 95.755775 
L 321.331101 92.036207 
L 322.96253 90.161868 
L 324.59396 87.214588 
L 326.22539 85.864953 
L 327.85682 82.939738 
L 329.48825 81.189944 
L 331.11968 81.782445 
L 336.013969 76.891058 
L 337.645399 77.301376 
L 339.276829 76.296343 
L 342.539689 74.932688 
L 344.171119 75.005077 
L 345.802549 74.177158 
L 347.433979 74.898005 
L 349.065408 74.001442 
L 352.328268 72.988256 
L 355.591128 73.610359 
L 357.222558 72.66229 
L 358.853988 72.2485 
L 360.485418 73.251217 
L 362.116847 72.007832 
L 363.748277 71.918818 
L 365.379707 73.159615 
L 367.011137 71.149163 
L 368.642567 72.130809 
L 370.273997 73.513855 
L 371.905427 72.442776 
L 373.536857 71.157665 
L 375.168286 73.200767 
L 376.799716 71.793225 
L 378.431146 71.596483 
L 380.062576 73.045458 
L 381.694006 71.38862 
L 383.325436 71.915305 
L 384.956866 71.507527 
L 386.588296 73.4683 
L 388.219725 72.658963 
L 389.851155 72.952847 
L 391.482585 71.920123 
L 391.482585 71.920123 
" clip-path="url(#p9c8e0ab789)" style="fill: none; stroke: #1f77b4; stroke-width: 1.5; stroke-linecap: square"/>
    <defs>
     <path id="m215bce1831" d="M 0 1.5 
C 0.397805 1.5 0.77937 1.341951 1.06066 1.06066 
C 1.341951 0.77937 1.5 0.397805 1.5 0 
C 1.5 -0.397805 1.341951 -0.77937 1.06066 -1.06066 
C 0.77937 -1.341951 0.397805 -1.5 0 -1.5 
C -0.397805 -1.5 -0.77937 -1.341951 -1.06066 -1.06066 
C -1.341951 -0.77937 -1.5 -0.397805 -1.5 0 
C -1.5 0.397805 -1.341951 0.77937 -1.06066 1.06066 
C -0.77937 1.341951 -0.397805 1.5 0 1.5 
z
" style="stroke: #1f77b4"/>
    </defs>
    <g clip-path="url(#p9c8e0ab789)">
     <use xlink:href="#m215bce1831" x="66.82804" y="48.301933" style="fill: #1f77b4; stroke: #1f77b4"/>
     <use xlink:href="#m215bce1831" x="68.45947" y="48.924714" style="fill: #1f77b4; stroke: #1f77b4"/>
     <use xlink:href="#m215bce1831" x="70.0909" y="47.258182" style="fill: #1f77b4; stroke: #1f77b4"/>
     <use xlink:href="#m215bce1831" x="71.722329" y="49.193962" style="fill: #1f77b4; stroke: #1f77b4"/>
     <use xlink:href="#m215bce1831" x="73.353759" y="48.935116" style="fill: #1f77b4; stroke: #1f77b4"/>
     <use xlink:href="#m215bce1831" x="74.985189" y="50.497218" style="fill: #1f77b4; stroke: #1f77b4"/>
     <use xlink:href="#m215bce1831" x="76.616619" y="50.804818" style="fill: #1f77b4; stroke: #1f77b4"/>
     <use xlink:href="#m215bce1831" x="78.248049" y="50.258824" style="fill: #1f77b4; stroke: #1f77b4"/>
     <use xlink:href="#m215bce1831" x="79.879479" y="48.961537" style="fill: #1f77b4; stroke: #1f77b4"/>
     <use xlink:href="#m215bce1831" x="81.510909" y="49.963001" style="fill: #1f77b4; stroke: #1f77b4"/>
     <use xlink:href="#m215bce1831" x="83.142339" y="49.754268" style="fill: #1f77b4; stroke: #1f77b4"/>
     <use xlink:href="#m215bce1831" x="84.773768" y="50.74898" style="fill: #1f77b4; stroke: #1f77b4"/>
     <use xlink:href="#m215bce1831" x="86.405198" y="50.71704" style="fill: #1f77b4; stroke: #1f77b4"/>
     <use xlink:href="#m215bce1831" x="88.036628" y="50.491749" style="fill: #1f77b4; stroke: #1f77b4"/>
     <use xlink:href="#m215bce1831" x="89.668058" y="50.947443" style="fill: #1f77b4; stroke: #1f77b4"/>
     <use xlink:href="#m215bce1831" x="91.299488" y="51.390552" style="fill: #1f77b4; stroke: #1f77b4"/>
     <use xlink:href="#m215bce1831" x="92.930918" y="49.776748" style="fill: #1f77b4; stroke: #1f77b4"/>
     <use xlink:href="#m215bce1831" x="94.562348" y="51.161602" style="fill: #1f77b4; stroke: #1f77b4"/>
     <use xlink:href="#m215bce1831" x="96.193778" y="50.663751" style="fill: #1f77b4; stroke: #1f77b4"/>
     <use xlink:href="#m215bce1831" x="97.825207" y="51.08829" style="fill: #1f77b4; stroke: #1f77b4"/>
     <use xlink:href="#m215bce1831" x="99.456637" y="51.008163" style="fill: #1f77b4; stroke: #1f77b4"/>
     <use xlink:href="#m215bce1831" x="101.088067" y="51.611268" style="fill: #1f77b4; stroke: #1f77b4"/>
     <use xlink:href="#m215bce1831" x="102.719497" y="51.262568" style="fill: #1f77b4; stroke: #1f77b4"/>
     <use xlink:href="#m215bce1831" x="104.350927" y="51.817859" style="fill: #1f77b4; stroke: #1f77b4"/>
     <use xlink:href="#m215bce1831" x="105.982357" y="51.52189" style="fill: #1f77b4; stroke: #1f77b4"/>
     <use xlink:href="#m215bce1831" x="107.613787" y="51.408579" style="fill: #1f77b4; stroke: #1f77b4"/>
     <use xlink:href="#m215bce1831" x="109.245217" y="52.693206" style="fill: #1f77b4; stroke: #1f77b4"/>
     <use xlink:href="#m215bce1831" x="110.876646" y="51.293911" style="fill: #1f77b4; stroke: #1f77b4"/>
     <use xlink:href="#m215bce1831" x="112.508076" y="51.763728" style="fill: #1f77b4; stroke: #1f77b4"/>
     <use xlink:href="#m215bce1831" x="114.139506" y="51.662284" style="fill: #1f77b4; stroke: #1f77b4"/>
     <use xlink:href="#m215bce1831" x="115.770936" y="52.342854" style="fill: #1f77b4; stroke: #1f77b4"/>
     <use xlink:href="#m215bce1831" x="117.402366" y="52.663348" style="fill: #1f77b4; stroke: #1f77b4"/>
     <use xlink:href="#m215bce1831" x="119.033796" y="52.74812" style="fill: #1f77b4; stroke: #1f77b4"/>
     <use xlink:href="#m215bce1831" x="120.665226" y="53.036" style="fill: #1f77b4; stroke: #1f77b4"/>
     <use xlink:href="#m215bce1831" x="122.296656" y="52.471732" style="fill: #1f77b4; stroke: #1f77b4"/>
     <use xlink:href="#m215bce1831" x="123.928085" y="52.7155" style="fill: #1f77b4; stroke: #1f77b4"/>
     <use xlink:href="#m215bce1831" x="125.559515" y="52.938917" style="fill: #1f77b4; stroke: #1f77b4"/>
     <use xlink:href="#m215bce1831" x="127.190945" y="54.052415" style="fill: #1f77b4; stroke: #1f77b4"/>
     <use xlink:href="#m215bce1831" x="128.822375" y="53.085347" style="fill: #1f77b4; stroke: #1f77b4"/>
     <use xlink:href="#m215bce1831" x="130.453805" y="55.140586" style="fill: #1f77b4; stroke: #1f77b4"/>
     <use xlink:href="#m215bce1831" x="132.085235" y="53.72198" style="fill: #1f77b4; stroke: #1f77b4"/>
     <use xlink:href="#m215bce1831" x="133.716665" y="54.640888" style="fill: #1f77b4; stroke: #1f77b4"/>
     <use xlink:href="#m215bce1831" x="135.348095" y="53.089594" style="fill: #1f77b4; stroke: #1f77b4"/>
     <use xlink:href="#m215bce1831" x="136.979524" y="54.904376" style="fill: #1f77b4; stroke: #1f77b4"/>
     <use xlink:href="#m215bce1831" x="138.610954" y="54.754797" style="fill: #1f77b4; stroke: #1f77b4"/>
     <use xlink:href="#m215bce1831" x="140.242384" y="54.913243" style="fill: #1f77b4; stroke: #1f77b4"/>
     <use xlink:href="#m215bce1831" x="141.873814" y="54.115351" style="fill: #1f77b4; stroke: #1f77b4"/>
     <use xlink:href="#m215bce1831" x="143.505244" y="56.834198" style="fill: #1f77b4; stroke: #1f77b4"/>
     <use xlink:href="#m215bce1831" x="145.136674" y="54.905305" style="fill: #1f77b4; stroke: #1f77b4"/>
     <use xlink:href="#m215bce1831" x="146.768104" y="54.816269" style="fill: #1f77b4; stroke: #1f77b4"/>
     <use xlink:href="#m215bce1831" x="148.399534" y="55.693127" style="fill: #1f77b4; stroke: #1f77b4"/>
     <use xlink:href="#m215bce1831" x="150.030963" y="56.081396" style="fill: #1f77b4; stroke: #1f77b4"/>
     <use xlink:href="#m215bce1831" x="151.662393" y="56.428393" style="fill: #1f77b4; stroke: #1f77b4"/>
     <use xlink:href="#m215bce1831" x="153.293823" y="57.241168" style="fill: #1f77b4; stroke: #1f77b4"/>
     <use xlink:href="#m215bce1831" x="154.925253" y="56.237783" style="fill: #1f77b4; stroke: #1f77b4"/>
     <use xlink:href="#m215bce1831" x="156.556683" y="55.839513" style="fill: #1f77b4; stroke: #1f77b4"/>
     <use xlink:href="#m215bce1831" x="158.188113" y="56.934781" style="fill: #1f77b4; stroke: #1f77b4"/>
     <use xlink:href="#m215bce1831" x="159.819543" y="56.471264" style="fill: #1f77b4; stroke: #1f77b4"/>
     <use xlink:href="#m215bce1831" x="161.450973" y="56.301068" style="fill: #1f77b4; stroke: #1f77b4"/>
     <use xlink:href="#m215bce1831" x="163.082402" y="57.505726" style="fill: #1f77b4; stroke: #1f77b4"/>
     <use xlink:href="#m215bce1831" x="164.713832" y="57.696368" style="fill: #1f77b4; stroke: #1f77b4"/>
     <use xlink:href="#m215bce1831" x="166.345262" y="57.294698" style="fill: #1f77b4; stroke: #1f77b4"/>
     <use xlink:href="#m215bce1831" x="167.976692" y="56.59336" style="fill: #1f77b4; stroke: #1f77b4"/>
     <use xlink:href="#m215bce1831" x="169.608122" y="56.634511" style="fill: #1f77b4; stroke: #1f77b4"/>
     <use xlink:href="#m215bce1831" x="171.239552" y="57.964445" style="fill: #1f77b4; stroke: #1f77b4"/>
     <use xlink:href="#m215bce1831" x="172.870982" y="56.530611" style="fill: #1f77b4; stroke: #1f77b4"/>
     <use xlink:href="#m215bce1831" x="174.502412" y="57.083371" style="fill: #1f77b4; stroke: #1f77b4"/>
     <use xlink:href="#m215bce1831" x="176.133842" y="56.667087" style="fill: #1f77b4; stroke: #1f77b4"/>
     <use xlink:href="#m215bce1831" x="177.765271" y="57.650256" style="fill: #1f77b4; stroke: #1f77b4"/>
     <use xlink:href="#m215bce1831" x="179.396701" y="58.96376" style="fill: #1f77b4; stroke: #1f77b4"/>
     <use xlink:href="#m215bce1831" x="181.028131" y="57.098012" style="fill: #1f77b4; stroke: #1f77b4"/>
     <use xlink:href="#m215bce1831" x="182.659561" y="58.536749" style="fill: #1f77b4; stroke: #1f77b4"/>
     <use xlink:href="#m215bce1831" x="184.290991" y="59.194428" style="fill: #1f77b4; stroke: #1f77b4"/>
     <use xlink:href="#m215bce1831" x="185.922421" y="58.960293" style="fill: #1f77b4; stroke: #1f77b4"/>
     <use xlink:href="#m215bce1831" x="187.553851" y="59.694388" style="fill: #1f77b4; stroke: #1f77b4"/>
     <use xlink:href="#m215bce1831" x="189.185281" y="57.50312" style="fill: #1f77b4; stroke: #1f77b4"/>
     <use xlink:href="#m215bce1831" x="190.81671" y="59.33784" style="fill: #1f77b4; stroke: #1f77b4"/>
     <use xlink:href="#m215bce1831" x="192.44814" y="58.040726" style="fill: #1f77b4; stroke: #1f77b4"/>
     <use xlink:href="#m215bce1831" x="194.07957" y="58.870339" style="fill: #1f77b4; stroke: #1f77b4"/>
     <use xlink:href="#m215bce1831" x="195.711" y="58.280428" style="fill: #1f77b4; stroke: #1f77b4"/>
     <use xlink:href="#m215bce1831" x="197.34243" y="59.675917" style="fill: #1f77b4; stroke: #1f77b4"/>
     <use xlink:href="#m215bce1831" x="198.97386" y="59.381349" style="fill: #1f77b4; stroke: #1f77b4"/>
     <use xlink:href="#m215bce1831" x="200.60529" y="59.055105" style="fill: #1f77b4; stroke: #1f77b4"/>
     <use xlink:href="#m215bce1831" x="202.23672" y="59.127004" style="fill: #1f77b4; stroke: #1f77b4"/>
     <use xlink:href="#m215bce1831" x="203.868149" y="61.191007" style="fill: #1f77b4; stroke: #1f77b4"/>
     <use xlink:href="#m215bce1831" x="205.499579" y="60.02693" style="fill: #1f77b4; stroke: #1f77b4"/>
     <use xlink:href="#m215bce1831" x="207.131009" y="59.1932" style="fill: #1f77b4; stroke: #1f77b4"/>
     <use xlink:href="#m215bce1831" x="208.762439" y="60.585824" style="fill: #1f77b4; stroke: #1f77b4"/>
     <use xlink:href="#m215bce1831" x="210.393869" y="60.429485" style="fill: #1f77b4; stroke: #1f77b4"/>
     <use xlink:href="#m215bce1831" x="212.025299" y="60.716386" style="fill: #1f77b4; stroke: #1f77b4"/>
     <use xlink:href="#m215bce1831" x="213.656729" y="61.253981" style="fill: #1f77b4; stroke: #1f77b4"/>
     <use xlink:href="#m215bce1831" x="215.288159" y="60.460199" style="fill: #1f77b4; stroke: #1f77b4"/>
     <use xlink:href="#m215bce1831" x="216.919588" y="59.218787" style="fill: #1f77b4; stroke: #1f77b4"/>
     <use xlink:href="#m215bce1831" x="218.551018" y="60.35631" style="fill: #1f77b4; stroke: #1f77b4"/>
     <use xlink:href="#m215bce1831" x="220.182448" y="60.789301" style="fill: #1f77b4; stroke: #1f77b4"/>
     <use xlink:href="#m215bce1831" x="221.813878" y="60.285714" style="fill: #1f77b4; stroke: #1f77b4"/>
     <use xlink:href="#m215bce1831" x="223.445308" y="61.839615" style="fill: #1f77b4; stroke: #1f77b4"/>
     <use xlink:href="#m215bce1831" x="225.076738" y="61.268392" style="fill: #1f77b4; stroke: #1f77b4"/>
     <use xlink:href="#m215bce1831" x="226.708168" y="61.566822" style="fill: #1f77b4; stroke: #1f77b4"/>
     <use xlink:href="#m215bce1831" x="228.339598" y="62.221872" style="fill: #1f77b4; stroke: #1f77b4"/>
     <use xlink:href="#m215bce1831" x="229.971027" y="61.454287" style="fill: #1f77b4; stroke: #1f77b4"/>
     <use xlink:href="#m215bce1831" x="231.602457" y="62.805826" style="fill: #1f77b4; stroke: #1f77b4"/>
     <use xlink:href="#m215bce1831" x="233.233887" y="62.302716" style="fill: #1f77b4; stroke: #1f77b4"/>
     <use xlink:href="#m215bce1831" x="234.865317" y="61.972377" style="fill: #1f77b4; stroke: #1f77b4"/>
     <use xlink:href="#m215bce1831" x="236.496747" y="62.087894" style="fill: #1f77b4; stroke: #1f77b4"/>
     <use xlink:href="#m215bce1831" x="238.128177" y="61.90296" style="fill: #1f77b4; stroke: #1f77b4"/>
     <use xlink:href="#m215bce1831" x="239.759607" y="62.996864" style="fill: #1f77b4; stroke: #1f77b4"/>
     <use xlink:href="#m215bce1831" x="241.391037" y="64.1348" style="fill: #1f77b4; stroke: #1f77b4"/>
     <use xlink:href="#m215bce1831" x="243.022466" y="63.638224" style="fill: #1f77b4; stroke: #1f77b4"/>
     <use xlink:href="#m215bce1831" x="244.653896" y="62.225926" style="fill: #1f77b4; stroke: #1f77b4"/>
     <use xlink:href="#m215bce1831" x="246.285326" y="63.594244" style="fill: #1f77b4; stroke: #1f77b4"/>
     <use xlink:href="#m215bce1831" x="247.916756" y="63.770333" style="fill: #1f77b4; stroke: #1f77b4"/>
     <use xlink:href="#m215bce1831" x="249.548186" y="64.511067" style="fill: #1f77b4; stroke: #1f77b4"/>
     <use xlink:href="#m215bce1831" x="251.179616" y="64.852292" style="fill: #1f77b4; stroke: #1f77b4"/>
     <use xlink:href="#m215bce1831" x="252.811046" y="65.244059" style="fill: #1f77b4; stroke: #1f77b4"/>
     <use xlink:href="#m215bce1831" x="254.442476" y="65.540751" style="fill: #1f77b4; stroke: #1f77b4"/>
     <use xlink:href="#m215bce1831" x="256.073905" y="66.146375" style="fill: #1f77b4; stroke: #1f77b4"/>
     <use xlink:href="#m215bce1831" x="257.705335" y="66.569831" style="fill: #1f77b4; stroke: #1f77b4"/>
     <use xlink:href="#m215bce1831" x="259.336765" y="68.460295" style="fill: #1f77b4; stroke: #1f77b4"/>
     <use xlink:href="#m215bce1831" x="260.968195" y="68.46267" style="fill: #1f77b4; stroke: #1f77b4"/>
     <use xlink:href="#m215bce1831" x="262.599625" y="67.946822" style="fill: #1f77b4; stroke: #1f77b4"/>
     <use xlink:href="#m215bce1831" x="264.231055" y="69.350739" style="fill: #1f77b4; stroke: #1f77b4"/>
     <use xlink:href="#m215bce1831" x="265.862485" y="67.976799" style="fill: #1f77b4; stroke: #1f77b4"/>
     <use xlink:href="#m215bce1831" x="267.493915" y="69.257324" style="fill: #1f77b4; stroke: #1f77b4"/>
     <use xlink:href="#m215bce1831" x="269.125344" y="69.78901" style="fill: #1f77b4; stroke: #1f77b4"/>
     <use xlink:href="#m215bce1831" x="270.756774" y="71.036635" style="fill: #1f77b4; stroke: #1f77b4"/>
     <use xlink:href="#m215bce1831" x="272.388204" y="70.426536" style="fill: #1f77b4; stroke: #1f77b4"/>
     <use xlink:href="#m215bce1831" x="274.019634" y="73.015341" style="fill: #1f77b4; stroke: #1f77b4"/>
     <use xlink:href="#m215bce1831" x="275.651064" y="73.733111" style="fill: #1f77b4; stroke: #1f77b4"/>
     <use xlink:href="#m215bce1831" x="277.282494" y="75.998792" style="fill: #1f77b4; stroke: #1f77b4"/>
     <use xlink:href="#m215bce1831" x="278.913924" y="77.834715" style="fill: #1f77b4; stroke: #1f77b4"/>
     <use xlink:href="#m215bce1831" x="280.545354" y="78.193038" style="fill: #1f77b4; stroke: #1f77b4"/>
     <use xlink:href="#m215bce1831" x="282.176783" y="81.116345" style="fill: #1f77b4; stroke: #1f77b4"/>
     <use xlink:href="#m215bce1831" x="283.808213" y="84.038133" style="fill: #1f77b4; stroke: #1f77b4"/>
     <use xlink:href="#m215bce1831" x="285.439643" y="87.011844" style="fill: #1f77b4; stroke: #1f77b4"/>
     <use xlink:href="#m215bce1831" x="287.071073" y="90.194946" style="fill: #1f77b4; stroke: #1f77b4"/>
     <use xlink:href="#m215bce1831" x="288.702503" y="95.740221" style="fill: #1f77b4; stroke: #1f77b4"/>
     <use xlink:href="#m215bce1831" x="290.333933" y="98.044727" style="fill: #1f77b4; stroke: #1f77b4"/>
     <use xlink:href="#m215bce1831" x="291.965363" y="102.770186" style="fill: #1f77b4; stroke: #1f77b4"/>
     <use xlink:href="#m215bce1831" x="293.596793" y="109.605837" style="fill: #1f77b4; stroke: #1f77b4"/>
     <use xlink:href="#m215bce1831" x="295.228223" y="116.885266" style="fill: #1f77b4; stroke: #1f77b4"/>
     <use xlink:href="#m215bce1831" x="296.859652" y="125.158439" style="fill: #1f77b4; stroke: #1f77b4"/>
     <use xlink:href="#m215bce1831" x="298.491082" y="133.406873" style="fill: #1f77b4; stroke: #1f77b4"/>
     <use xlink:href="#m215bce1831" x="300.122512" y="145.209473" style="fill: #1f77b4; stroke: #1f77b4"/>
     <use xlink:href="#m215bce1831" x="301.753942" y="152.388668" style="fill: #1f77b4; stroke: #1f77b4"/>
     <use xlink:href="#m215bce1831" x="303.385372" y="157.221818" style="fill: #1f77b4; stroke: #1f77b4"/>
     <use xlink:href="#m215bce1831" x="305.016802" y="155.848103" style="fill: #1f77b4; stroke: #1f77b4"/>
     <use xlink:href="#m215bce1831" x="306.648232" y="147.926319" style="fill: #1f77b4; stroke: #1f77b4"/>
     <use xlink:href="#m215bce1831" x="308.279662" y="138.567117" style="fill: #1f77b4; stroke: #1f77b4"/>
     <use xlink:href="#m215bce1831" x="309.911091" y="130.646491" style="fill: #1f77b4; stroke: #1f77b4"/>
     <use xlink:href="#m215bce1831" x="311.542521" y="121.203355" style="fill: #1f77b4; stroke: #1f77b4"/>
     <use xlink:href="#m215bce1831" x="313.173951" y="116.071663" style="fill: #1f77b4; stroke: #1f77b4"/>
     <use xlink:href="#m215bce1831" x="314.805381" y="108.587607" style="fill: #1f77b4; stroke: #1f77b4"/>
     <use xlink:href="#m215bce1831" x="316.436811" y="103.927372" style="fill: #1f77b4; stroke: #1f77b4"/>
     <use xlink:href="#m215bce1831" x="318.068241" y="98.663185" style="fill: #1f77b4; stroke: #1f77b4"/>
     <use xlink:href="#m215bce1831" x="319.699671" y="95.755775" style="fill: #1f77b4; stroke: #1f77b4"/>
     <use xlink:href="#m215bce1831" x="321.331101" y="92.036207" style="fill: #1f77b4; stroke: #1f77b4"/>
     <use xlink:href="#m215bce1831" x="322.96253" y="90.161868" style="fill: #1f77b4; stroke: #1f77b4"/>
     <use xlink:href="#m215bce1831" x="324.59396" y="87.214588" style="fill: #1f77b4; stroke: #1f77b4"/>
     <use xlink:href="#m215bce1831" x="326.22539" y="85.864953" style="fill: #1f77b4; stroke: #1f77b4"/>
     <use xlink:href="#m215bce1831" x="327.85682" y="82.939738" style="fill: #1f77b4; stroke: #1f77b4"/>
     <use xlink:href="#m215bce1831" x="329.48825" y="81.189944" style="fill: #1f77b4; stroke: #1f77b4"/>
     <use xlink:href="#m215bce1831" x="331.11968" y="81.782445" style="fill: #1f77b4; stroke: #1f77b4"/>
     <use xlink:href="#m215bce1831" x="332.75111" y="80.194278" style="fill: #1f77b4; stroke: #1f77b4"/>
     <use xlink:href="#m215bce1831" x="334.38254" y="78.736297" style="fill: #1f77b4; stroke: #1f77b4"/>
     <use xlink:href="#m215bce1831" x="336.013969" y="76.891058" style="fill: #1f77b4; stroke: #1f77b4"/>
     <use xlink:href="#m215bce1831" x="337.645399" y="77.301376" style="fill: #1f77b4; stroke: #1f77b4"/>
     <use xlink:href="#m215bce1831" x="339.276829" y="76.296343" style="fill: #1f77b4; stroke: #1f77b4"/>
     <use xlink:href="#m215bce1831" x="340.908259" y="75.661965" style="fill: #1f77b4; stroke: #1f77b4"/>
     <use xlink:href="#m215bce1831" x="342.539689" y="74.932688" style="fill: #1f77b4; stroke: #1f77b4"/>
     <use xlink:href="#m215bce1831" x="344.171119" y="75.005077" style="fill: #1f77b4; stroke: #1f77b4"/>
     <use xlink:href="#m215bce1831" x="345.802549" y="74.177158" style="fill: #1f77b4; stroke: #1f77b4"/>
     <use xlink:href="#m215bce1831" x="347.433979" y="74.898005" style="fill: #1f77b4; stroke: #1f77b4"/>
     <use xlink:href="#m215bce1831" x="349.065408" y="74.001442" style="fill: #1f77b4; stroke: #1f77b4"/>
     <use xlink:href="#m215bce1831" x="350.696838" y="73.508715" style="fill: #1f77b4; stroke: #1f77b4"/>
     <use xlink:href="#m215bce1831" x="352.328268" y="72.988256" style="fill: #1f77b4; stroke: #1f77b4"/>
     <use xlink:href="#m215bce1831" x="353.959698" y="73.296628" style="fill: #1f77b4; stroke: #1f77b4"/>
     <use xlink:href="#m215bce1831" x="355.591128" y="73.610359" style="fill: #1f77b4; stroke: #1f77b4"/>
     <use xlink:href="#m215bce1831" x="357.222558" y="72.66229" style="fill: #1f77b4; stroke: #1f77b4"/>
     <use xlink:href="#m215bce1831" x="358.853988" y="72.2485" style="fill: #1f77b4; stroke: #1f77b4"/>
     <use xlink:href="#m215bce1831" x="360.485418" y="73.251217" style="fill: #1f77b4; stroke: #1f77b4"/>
     <use xlink:href="#m215bce1831" x="362.116847" y="72.007832" style="fill: #1f77b4; stroke: #1f77b4"/>
     <use xlink:href="#m215bce1831" x="363.748277" y="71.918818" style="fill: #1f77b4; stroke: #1f77b4"/>
     <use xlink:href="#m215bce1831" x="365.379707" y="73.159615" style="fill: #1f77b4; stroke: #1f77b4"/>
     <use xlink:href="#m215bce1831" x="367.011137" y="71.149163" style="fill: #1f77b4; stroke: #1f77b4"/>
     <use xlink:href="#m215bce1831" x="368.642567" y="72.130809" style="fill: #1f77b4; stroke: #1f77b4"/>
     <use xlink:href="#m215bce1831" x="370.273997" y="73.513855" style="fill: #1f77b4; stroke: #1f77b4"/>
     <use xlink:href="#m215bce1831" x="371.905427" y="72.442776" style="fill: #1f77b4; stroke: #1f77b4"/>
     <use xlink:href="#m215bce1831" x="373.536857" y="71.157665" style="fill: #1f77b4; stroke: #1f77b4"/>
     <use xlink:href="#m215bce1831" x="375.168286" y="73.200767" style="fill: #1f77b4; stroke: #1f77b4"/>
     <use xlink:href="#m215bce1831" x="376.799716" y="71.793225" style="fill: #1f77b4; stroke: #1f77b4"/>
     <use xlink:href="#m215bce1831" x="378.431146" y="71.596483" style="fill: #1f77b4; stroke: #1f77b4"/>
     <use xlink:href="#m215bce1831" x="380.062576" y="73.045458" style="fill: #1f77b4; stroke: #1f77b4"/>
     <use xlink:href="#m215bce1831" x="381.694006" y="71.38862" style="fill: #1f77b4; stroke: #1f77b4"/>
     <use xlink:href="#m215bce1831" x="383.325436" y="71.915305" style="fill: #1f77b4; stroke: #1f77b4"/>
     <use xlink:href="#m215bce1831" x="384.956866" y="71.507527" style="fill: #1f77b4; stroke: #1f77b4"/>
     <use xlink:href="#m215bce1831" x="386.588296" y="73.4683" style="fill: #1f77b4; stroke: #1f77b4"/>
     <use xlink:href="#m215bce1831" x="388.219725" y="72.658963" style="fill: #1f77b4; stroke: #1f77b4"/>
     <use xlink:href="#m215bce1831" x="389.851155" y="72.952847" style="fill: #1f77b4; stroke: #1f77b4"/>
     <use xlink:href="#m215bce1831" x="391.482585" y="71.920123" style="fill: #1f77b4; stroke: #1f77b4"/>
    </g>
   </g>
   <g id="line2d_13">
    <path d="M 66.82804 58.139992 
L 180.895853 58.281696 
L 207.544174 58.531307 
L 223.143191 58.882007 
L 233.867516 59.327129 
L 241.992004 59.873861 
L 248.491594 60.531274 
L 253.691267 61.278105 
L 257.916 62.098485 
L 261.490775 63.00282 
L 264.74057 64.052049 
L 267.665386 65.241958 
L 270.265222 66.554446 
L 272.540079 67.954005 
L 274.489956 69.385952 
L 276.439833 71.080627 
L 278.389711 73.094728 
L 280.014608 75.066764 
L 281.639506 77.356376 
L 283.264403 80.019099 
L 284.889301 83.118316 
L 286.514199 86.724539 
L 288.139096 90.913189 
L 289.763994 95.760013 
L 291.388892 101.333052 
L 293.013789 107.679932 
L 294.963666 116.32548 
L 297.238523 127.663233 
L 301.463257 149.218257 
L 302.438195 152.697733 
L 303.088154 154.051791 
L 303.413134 154.349858 
L 303.738113 154.373782 
L 304.063093 154.125663 
L 304.388073 153.622571 
L 305.038032 151.970094 
L 306.01297 148.377628 
L 307.637868 141.06822 
L 310.887663 126.202142 
L 312.83754 118.265692 
L 314.787417 111.278941 
L 316.737294 105.219954 
L 318.362192 100.821386 
L 319.98709 96.951381 
L 321.936967 92.919473 
L 323.886844 89.461635 
L 325.836721 86.48902 
L 327.786598 83.924915 
L 329.736475 81.704383 
L 332.011332 79.476022 
L 334.286189 77.57094 
L 336.886025 75.717098 
L 339.485861 74.144196 
L 342.410677 72.645384 
L 345.660472 71.248995 
L 349.235247 69.971 
L 353.135001 68.817496 
L 357.684715 67.716012 
L 362.884387 66.700903 
L 368.734018 65.78967 
L 375.558589 64.951764 
L 383.683077 64.179921 
L 391.482585 63.603176 
L 391.482585 63.603176 
" clip-path="url(#p9c8e0ab789)" style="fill: none; stroke: #d62728; stroke-width: 1.5; stroke-linecap: square"/>
   </g>
   <g id="patch_3">
    <path d="M 50.595313 162.72 
L 50.595313 41.76 
" style="fill: none; stroke: #000000; stroke-width: 0.8; stroke-linejoin: miter; stroke-linecap: square"/>
   </g>
   <g id="patch_4">
    <path d="M 407.715312 162.72 
L 407.715312 41.76 
" style="fill: none; stroke: #000000; stroke-width: 0.8; stroke-linejoin: miter; stroke-linecap: square"/>
   </g>
   <g id="patch_5">
    <path d="M 50.595312 162.72 
L 407.715313 162.72 
" style="fill: none; stroke: #000000; stroke-width: 0.8; stroke-linejoin: miter; stroke-linecap: square"/>
   </g>
   <g id="patch_6">
    <path d="M 50.595312 41.76 
L 407.715313 41.76 
" style="fill: none; stroke: #000000; stroke-width: 0.8; stroke-linejoin: miter; stroke-linecap: square"/>
   </g>
   <g id="text_6">
    <g id="patch_7">
     <path d="M 425.571312 95.079562 
L 564.971312 95.079562 
Q 568.971312 95.079562 568.971312 91.079562 
L 568.971312 47.808 
Q 568.971312 43.808 564.971312 43.808 
L 425.571312 43.808 
Q 421.571312 43.808 421.571312 47.808 
L 421.571312 91.079562 
Q 421.571312 95.079562 425.571312 95.079562 
z
" style="fill: #ffffff; opacity: 0.5; stroke: #000000; stroke-linejoin: miter"/>
    </g>
    <!-- Summary -->
    <g transform="translate(425.571312 55.406437) scale(0.1 -0.1)">
     <defs>
      <path id="DejaVuSans-53" d="M 3425 4513 
L 3425 3897 
Q 3066 4069 2747 4153 
Q 2428 4238 2131 4238 
Q 1616 4238 1336 4038 
Q 1056 3838 1056 3469 
Q 1056 3159 1242 3001 
Q 1428 2844 1947 2747 
L 2328 2669 
Q 3034 2534 3370 2195 
Q 3706 1856 3706 1288 
Q 3706 609 3251 259 
Q 2797 -91 1919 -91 
Q 1588 -91 1214 -16 
Q 841 59 441 206 
L 441 856 
Q 825 641 1194 531 
Q 1563 422 1919 422 
Q 2459 422 2753 634 
Q 3047 847 3047 1241 
Q 3047 1584 2836 1778 
Q 2625 1972 2144 2069 
L 1759 2144 
Q 1053 2284 737 2584 
Q 422 2884 422 3419 
Q 422 4038 858 4394 
Q 1294 4750 2059 4750 
Q 2388 4750 2728 4690 
Q 3069 4631 3425 4513 
z
" transform="scale(0.015625)"/>
      <path id="DejaVuSans-75" d="M 544 1381 
L 544 3500 
L 1119 3500 
L 1119 1403 
Q 1119 906 1312 657 
Q 1506 409 1894 409 
Q 2359 409 2629 706 
Q 2900 1003 2900 1516 
L 2900 3500 
L 3475 3500 
L 3475 0 
L 2900 0 
L 2900 538 
Q 2691 219 2414 64 
Q 2138 -91 1772 -91 
Q 1169 -91 856 284 
Q 544 659 544 1381 
z
M 1991 3584 
L 1991 3584 
z
" transform="scale(0.015625)"/>
      <path id="DejaVuSans-61" d="M 2194 1759 
Q 1497 1759 1228 1600 
Q 959 1441 959 1056 
Q 959 750 1161 570 
Q 1363 391 1709 391 
Q 2188 391 2477 730 
Q 2766 1069 2766 1631 
L 2766 1759 
L 2194 1759 
z
M 3341 1997 
L 3341 0 
L 2766 0 
L 2766 531 
Q 2569 213 2275 61 
Q 1981 -91 1556 -91 
Q 1019 -91 701 211 
Q 384 513 384 1019 
Q 384 1609 779 1909 
Q 1175 2209 1959 2209 
L 2766 2209 
L 2766 2266 
Q 2766 2663 2505 2880 
Q 2244 3097 1772 3097 
Q 1472 3097 1187 3025 
Q 903 2953 641 2809 
L 641 3341 
Q 956 3463 1253 3523 
Q 1550 3584 1831 3584 
Q 2591 3584 2966 3190 
Q 3341 2797 3341 1997 
z
" transform="scale(0.015625)"/>
      <path id="DejaVuSans-72" d="M 2631 2963 
Q 2534 3019 2420 3045 
Q 2306 3072 2169 3072 
Q 1681 3072 1420 2755 
Q 1159 2438 1159 1844 
L 1159 0 
L 581 0 
L 581 3500 
L 1159 3500 
L 1159 2956 
Q 1341 3275 1631 3429 
Q 1922 3584 2338 3584 
Q 2397 3584 2469 3576 
Q 2541 3569 2628 3553 
L 2631 2963 
z
" transform="scale(0.015625)"/>
      <path id="DejaVuSans-79" d="M 2059 -325 
Q 1816 -950 1584 -1140 
Q 1353 -1331 966 -1331 
L 506 -1331 
L 506 -850 
L 844 -850 
Q 1081 -850 1212 -737 
Q 1344 -625 1503 -206 
L 1606 56 
L 191 3500 
L 800 3500 
L 1894 763 
L 2988 3500 
L 3597 3500 
L 2059 -325 
z
" transform="scale(0.015625)"/>
     </defs>
     <use xlink:href="#DejaVuSans-53"/>
     <use xlink:href="#DejaVuSans-75" x="63.476562"/>
     <use xlink:href="#DejaVuSans-6d" x="126.855469"/>
     <use xlink:href="#DejaVuSans-6d" x="224.267578"/>
     <use xlink:href="#DejaVuSans-61" x="321.679688"/>
     <use xlink:href="#DejaVuSans-72" x="382.958984"/>
     <use xlink:href="#DejaVuSans-79" x="424.072266"/>
    </g>
    <!-- $Q_I$: 13.9$\pm$1.0 k -->
    <g transform="translate(425.571312 66.60425) scale(0.1 -0.1)">
     <defs>
      <path id="DejaVuSans-Oblique-51" d="M 2309 -84 
Q 2275 -88 2237 -89 
Q 2200 -91 2125 -91 
Q 1250 -91 756 411 
Q 263 913 263 1797 
Q 263 2319 452 2844 
Q 641 3369 978 3788 
Q 1369 4269 1858 4509 
Q 2347 4750 2938 4750 
Q 3794 4750 4287 4245 
Q 4781 3741 4781 2869 
Q 4781 1928 4265 1147 
Q 3750 366 2919 44 
L 3553 -825 
L 2847 -825 
L 2309 -84 
z
M 2919 4238 
Q 2400 4238 2003 3986 
Q 1606 3734 1313 3219 
Q 1125 2891 1026 2522 
Q 928 2153 928 1778 
Q 928 1128 1239 775 
Q 1550 422 2119 422 
Q 2631 422 3032 676 
Q 3434 931 3719 1434 
Q 3909 1772 4009 2142 
Q 4109 2513 4109 2881 
Q 4109 3528 3796 3883 
Q 3484 4238 2919 4238 
z
" transform="scale(0.015625)"/>
      <path id="DejaVuSans-Oblique-49" d="M 1081 4666 
L 1716 4666 
L 806 0 
L 172 0 
L 1081 4666 
z
" transform="scale(0.015625)"/>
      <path id="DejaVuSans-3a" d="M 750 794 
L 1409 794 
L 1409 0 
L 750 0 
L 750 794 
z
M 750 3309 
L 1409 3309 
L 1409 2516 
L 750 2516 
L 750 3309 
z
" transform="scale(0.015625)"/>
      <path id="DejaVuSans-33" d="M 2597 2516 
Q 3050 2419 3304 2112 
Q 3559 1806 3559 1356 
Q 3559 666 3084 287 
Q 2609 -91 1734 -91 
Q 1441 -91 1130 -33 
Q 819 25 488 141 
L 488 750 
Q 750 597 1062 519 
Q 1375 441 1716 441 
Q 2309 441 2620 675 
Q 2931 909 2931 1356 
Q 2931 1769 2642 2001 
Q 2353 2234 1838 2234 
L 1294 2234 
L 1294 2753 
L 1863 2753 
Q 2328 2753 2575 2939 
Q 2822 3125 2822 3475 
Q 2822 3834 2567 4026 
Q 2313 4219 1838 4219 
Q 1578 4219 1281 4162 
Q 984 4106 628 3988 
L 628 4550 
Q 988 4650 1302 4700 
Q 1616 4750 1894 4750 
Q 2613 4750 3031 4423 
Q 3450 4097 3450 3541 
Q 3450 3153 3228 2886 
Q 3006 2619 2597 2516 
z
" transform="scale(0.015625)"/>
      <path id="DejaVuSans-2e" d="M 684 794 
L 1344 794 
L 1344 0 
L 684 0 
L 684 794 
z
" transform="scale(0.015625)"/>
      <path id="DejaVuSans-39" d="M 703 97 
L 703 672 
Q 941 559 1184 500 
Q 1428 441 1663 441 
Q 2288 441 2617 861 
Q 2947 1281 2994 2138 
Q 2813 1869 2534 1725 
Q 2256 1581 1919 1581 
Q 1219 1581 811 2004 
Q 403 2428 403 3163 
Q 403 3881 828 4315 
Q 1253 4750 1959 4750 
Q 2769 4750 3195 4129 
Q 3622 3509 3622 2328 
Q 3622 1225 3098 567 
Q 2575 -91 1691 -91 
Q 1453 -91 1209 -44 
Q 966 3 703 97 
z
M 1959 2075 
Q 2384 2075 2632 2365 
Q 2881 2656 2881 3163 
Q 2881 3666 2632 3958 
Q 2384 4250 1959 4250 
Q 1534 4250 1286 3958 
Q 1038 3666 1038 3163 
Q 1038 2656 1286 2365 
Q 1534 2075 1959 2075 
z
" transform="scale(0.015625)"/>
      <path id="DejaVuSans-b1" d="M 2944 4013 
L 2944 2803 
L 4684 2803 
L 4684 2272 
L 2944 2272 
L 2944 1063 
L 2419 1063 
L 2419 2272 
L 678 2272 
L 678 2803 
L 2419 2803 
L 2419 4013 
L 2944 4013 
z
M 678 531 
L 4684 531 
L 4684 0 
L 678 0 
L 678 531 
z
" transform="scale(0.015625)"/>
      <path id="DejaVuSans-30" d="M 2034 4250 
Q 1547 4250 1301 3770 
Q 1056 3291 1056 2328 
Q 1056 1369 1301 889 
Q 1547 409 2034 409 
Q 2525 409 2770 889 
Q 3016 1369 3016 2328 
Q 3016 3291 2770 3770 
Q 2525 4250 2034 4250 
z
M 2034 4750 
Q 2819 4750 3233 4129 
Q 3647 3509 3647 2328 
Q 3647 1150 3233 529 
Q 2819 -91 2034 -91 
Q 1250 -91 836 529 
Q 422 1150 422 2328 
Q 422 3509 836 4129 
Q 1250 4750 2034 4750 
z
" transform="scale(0.015625)"/>
      <path id="DejaVuSans-6b" d="M 581 4863 
L 1159 4863 
L 1159 1991 
L 2875 3500 
L 3609 3500 
L 1753 1863 
L 3688 0 
L 2938 0 
L 1159 1709 
L 1159 0 
L 581 0 
L 581 4863 
z
" transform="scale(0.015625)"/>
     </defs>
     <use xlink:href="#DejaVuSans-Oblique-51" transform="translate(0 0.015625)"/>
     <use xlink:href="#DejaVuSans-Oblique-49" transform="translate(78.710938 -16.390625) scale(0.7)"/>
     <use xlink:href="#DejaVuSans-3a" transform="translate(102.089844 0.015625)"/>
     <use xlink:href="#DejaVuSans-20" transform="translate(135.78125 0.015625)"/>
     <use xlink:href="#DejaVuSans-31" transform="translate(167.568359 0.015625)"/>
     <use xlink:href="#DejaVuSans-33" transform="translate(231.191406 0.015625)"/>
     <use xlink:href="#DejaVuSans-2e" transform="translate(294.814453 0.015625)"/>
     <use xlink:href="#DejaVuSans-39" transform="translate(326.601562 0.015625)"/>
     <use xlink:href="#DejaVuSans-b1" transform="translate(390.224609 0.015625)"/>
     <use xlink:href="#DejaVuSans-31" transform="translate(474.013672 0.015625)"/>
     <use xlink:href="#DejaVuSans-2e" transform="translate(537.636719 0.015625)"/>
     <use xlink:href="#DejaVuSans-30" transform="translate(569.423828 0.015625)"/>
     <use xlink:href="#DejaVuSans-20" transform="translate(633.046875 0.015625)"/>
     <use xlink:href="#DejaVuSans-6b" transform="translate(664.833984 0.015625)"/>
    </g>
    <!-- $Q_C$: 2.215$\pm$0.028 k -->
    <g transform="translate(425.571312 77.802062) scale(0.1 -0.1)">
     <defs>
      <path id="DejaVuSans-Oblique-43" d="M 4447 4306 
L 4319 3641 
Q 4019 3944 3683 4091 
Q 3347 4238 2956 4238 
Q 2422 4238 2017 3981 
Q 1613 3725 1319 3200 
Q 1131 2863 1032 2486 
Q 934 2109 934 1728 
Q 934 1091 1264 756 
Q 1594 422 2222 422 
Q 2656 422 3056 561 
Q 3456 700 3834 978 
L 3688 231 
Q 3316 72 2936 -9 
Q 2556 -91 2175 -91 
Q 1278 -91 773 396 
Q 269 884 269 1753 
Q 269 2309 461 2846 
Q 653 3384 1013 3828 
Q 1394 4300 1883 4525 
Q 2372 4750 3022 4750 
Q 3422 4750 3780 4639 
Q 4138 4528 4447 4306 
z
" transform="scale(0.015625)"/>
      <path id="DejaVuSans-35" d="M 691 4666 
L 3169 4666 
L 3169 4134 
L 1269 4134 
L 1269 2991 
Q 1406 3038 1543 3061 
Q 1681 3084 1819 3084 
Q 2600 3084 3056 2656 
Q 3513 2228 3513 1497 
Q 3513 744 3044 326 
Q 2575 -91 1722 -91 
Q 1428 -91 1123 -41 
Q 819 9 494 109 
L 494 744 
Q 775 591 1075 516 
Q 1375 441 1709 441 
Q 2250 441 2565 725 
Q 2881 1009 2881 1497 
Q 2881 1984 2565 2268 
Q 2250 2553 1709 2553 
Q 1456 2553 1204 2497 
Q 953 2441 691 2322 
L 691 4666 
z
" transform="scale(0.015625)"/>
     </defs>
     <use xlink:href="#DejaVuSans-Oblique-51" transform="translate(0 0.015625)"/>
     <use xlink:href="#DejaVuSans-Oblique-43" transform="translate(78.710938 -16.390625) scale(0.7)"/>
     <use xlink:href="#DejaVuSans-3a" transform="translate(130.322266 0.015625)"/>
     <use xlink:href="#DejaVuSans-20" transform="translate(164.013672 0.015625)"/>
     <use xlink:href="#DejaVuSans-32" transform="translate(195.800781 0.015625)"/>
     <use xlink:href="#DejaVuSans-2e" transform="translate(259.423828 0.015625)"/>
     <use xlink:href="#DejaVuSans-32" transform="translate(285.710938 0.015625)"/>
     <use xlink:href="#DejaVuSans-31" transform="translate(349.333984 0.015625)"/>
     <use xlink:href="#DejaVuSans-35" transform="translate(412.957031 0.015625)"/>
     <use xlink:href="#DejaVuSans-b1" transform="translate(476.580078 0.015625)"/>
     <use xlink:href="#DejaVuSans-30" transform="translate(560.369141 0.015625)"/>
     <use xlink:href="#DejaVuSans-2e" transform="translate(623.992188 0.015625)"/>
     <use xlink:href="#DejaVuSans-30" transform="translate(655.779297 0.015625)"/>
     <use xlink:href="#DejaVuSans-32" transform="translate(719.402344 0.015625)"/>
     <use xlink:href="#DejaVuSans-38" transform="translate(783.025391 0.015625)"/>
     <use xlink:href="#DejaVuSans-20" transform="translate(846.648438 0.015625)"/>
     <use xlink:href="#DejaVuSans-6b" transform="translate(878.435547 0.015625)"/>
    </g>
    <!-- $f_{res}$: 6.106696$\pm$2.6e-05 GHz -->
    <g transform="translate(425.571312 88.999875) scale(0.1 -0.1)">
     <defs>
      <path id="DejaVuSans-Oblique-66" d="M 3059 4863 
L 2969 4384 
L 2419 4384 
Q 2106 4384 1964 4261 
Q 1822 4138 1753 3809 
L 1691 3500 
L 2638 3500 
L 2553 3053 
L 1606 3053 
L 1013 0 
L 434 0 
L 1031 3053 
L 481 3053 
L 563 3500 
L 1113 3500 
L 1159 3744 
Q 1278 4363 1576 4613 
Q 1875 4863 2516 4863 
L 3059 4863 
z
" transform="scale(0.015625)"/>
      <path id="DejaVuSans-Oblique-72" d="M 2853 2969 
Q 2766 3016 2653 3041 
Q 2541 3066 2413 3066 
Q 1953 3066 1609 2717 
Q 1266 2369 1153 1784 
L 800 0 
L 225 0 
L 909 3500 
L 1484 3500 
L 1375 2956 
Q 1603 3259 1920 3421 
Q 2238 3584 2597 3584 
Q 2691 3584 2781 3573 
Q 2872 3563 2963 3538 
L 2853 2969 
z
" transform="scale(0.015625)"/>
      <path id="DejaVuSans-Oblique-65" d="M 3078 2063 
Q 3088 2113 3092 2166 
Q 3097 2219 3097 2272 
Q 3097 2653 2873 2875 
Q 2650 3097 2266 3097 
Q 1838 3097 1509 2826 
Q 1181 2556 1013 2059 
L 3078 2063 
z
M 3578 1613 
L 903 1613 
Q 884 1494 878 1425 
Q 872 1356 872 1306 
Q 872 872 1139 634 
Q 1406 397 1894 397 
Q 2269 397 2603 481 
Q 2938 566 3225 728 
L 3116 159 
Q 2806 34 2476 -28 
Q 2147 -91 1806 -91 
Q 1078 -91 686 257 
Q 294 606 294 1247 
Q 294 1794 489 2264 
Q 684 2734 1063 3103 
Q 1306 3334 1642 3459 
Q 1978 3584 2356 3584 
Q 2950 3584 3301 3228 
Q 3653 2872 3653 2272 
Q 3653 2128 3634 1964 
Q 3616 1800 3578 1613 
z
" transform="scale(0.015625)"/>
      <path id="DejaVuSans-Oblique-73" d="M 3200 3397 
L 3091 2853 
Q 2863 2978 2609 3040 
Q 2356 3103 2088 3103 
Q 1634 3103 1373 2948 
Q 1113 2794 1113 2528 
Q 1113 2219 1719 2053 
Q 1766 2041 1788 2034 
L 1972 1978 
Q 2547 1819 2739 1644 
Q 2931 1469 2931 1166 
Q 2931 609 2489 259 
Q 2047 -91 1331 -91 
Q 1053 -91 747 -37 
Q 441 16 72 128 
L 184 722 
Q 500 559 806 475 
Q 1113 391 1394 391 
Q 1816 391 2080 572 
Q 2344 753 2344 1031 
Q 2344 1331 1650 1516 
L 1591 1531 
L 1394 1581 
Q 956 1697 753 1886 
Q 550 2075 550 2369 
Q 550 2928 970 3256 
Q 1391 3584 2113 3584 
Q 2397 3584 2667 3537 
Q 2938 3491 3200 3397 
z
" transform="scale(0.015625)"/>
      <path id="DejaVuSans-65" d="M 3597 1894 
L 3597 1613 
L 953 1613 
Q 991 1019 1311 708 
Q 1631 397 2203 397 
Q 2534 397 2845 478 
Q 3156 559 3463 722 
L 3463 178 
Q 3153 47 2828 -22 
Q 2503 -91 2169 -91 
Q 1331 -91 842 396 
Q 353 884 353 1716 
Q 353 2575 817 3079 
Q 1281 3584 2069 3584 
Q 2775 3584 3186 3129 
Q 3597 2675 3597 1894 
z
M 3022 2063 
Q 3016 2534 2758 2815 
Q 2500 3097 2075 3097 
Q 1594 3097 1305 2825 
Q 1016 2553 972 2059 
L 3022 2063 
z
" transform="scale(0.015625)"/>
      <path id="DejaVuSans-2d" d="M 313 2009 
L 1997 2009 
L 1997 1497 
L 313 1497 
L 313 2009 
z
" transform="scale(0.015625)"/>
      <path id="DejaVuSans-47" d="M 3809 666 
L 3809 1919 
L 2778 1919 
L 2778 2438 
L 4434 2438 
L 4434 434 
Q 4069 175 3628 42 
Q 3188 -91 2688 -91 
Q 1594 -91 976 548 
Q 359 1188 359 2328 
Q 359 3472 976 4111 
Q 1594 4750 2688 4750 
Q 3144 4750 3555 4637 
Q 3966 4525 4313 4306 
L 4313 3634 
Q 3963 3931 3569 4081 
Q 3175 4231 2741 4231 
Q 1884 4231 1454 3753 
Q 1025 3275 1025 2328 
Q 1025 1384 1454 906 
Q 1884 428 2741 428 
Q 3075 428 3337 486 
Q 3600 544 3809 666 
z
" transform="scale(0.015625)"/>
      <path id="DejaVuSans-48" d="M 628 4666 
L 1259 4666 
L 1259 2753 
L 3553 2753 
L 3553 4666 
L 4184 4666 
L 4184 0 
L 3553 0 
L 3553 2222 
L 1259 2222 
L 1259 0 
L 628 0 
L 628 4666 
z
" transform="scale(0.015625)"/>
      <path id="DejaVuSans-7a" d="M 353 3500 
L 3084 3500 
L 3084 2975 
L 922 459 
L 3084 459 
L 3084 0 
L 275 0 
L 275 525 
L 2438 3041 
L 353 3041 
L 353 3500 
z
" transform="scale(0.015625)"/>
     </defs>
     <use xlink:href="#DejaVuSans-Oblique-66" transform="translate(0 0.015625)"/>
     <use xlink:href="#DejaVuSans-Oblique-72" transform="translate(35.205078 -16.390625) scale(0.7)"/>
     <use xlink:href="#DejaVuSans-Oblique-65" transform="translate(63.984375 -16.390625) scale(0.7)"/>
     <use xlink:href="#DejaVuSans-Oblique-73" transform="translate(107.050781 -16.390625) scale(0.7)"/>
     <use xlink:href="#DejaVuSans-3a" transform="translate(146.254883 0.015625)"/>
     <use xlink:href="#DejaVuSans-20" transform="translate(179.946289 0.015625)"/>
     <use xlink:href="#DejaVuSans-36" transform="translate(211.733398 0.015625)"/>
     <use xlink:href="#DejaVuSans-2e" transform="translate(275.356445 0.015625)"/>
     <use xlink:href="#DejaVuSans-31" transform="translate(307.143555 0.015625)"/>
     <use xlink:href="#DejaVuSans-30" transform="translate(370.766602 0.015625)"/>
     <use xlink:href="#DejaVuSans-36" transform="translate(434.389648 0.015625)"/>
     <use xlink:href="#DejaVuSans-36" transform="translate(498.012695 0.015625)"/>
     <use xlink:href="#DejaVuSans-39" transform="translate(561.635742 0.015625)"/>
     <use xlink:href="#DejaVuSans-36" transform="translate(625.258789 0.015625)"/>
     <use xlink:href="#DejaVuSans-b1" transform="translate(688.881836 0.015625)"/>
     <use xlink:href="#DejaVuSans-32" transform="translate(772.670898 0.015625)"/>
     <use xlink:href="#DejaVuSans-2e" transform="translate(836.293945 0.015625)"/>
     <use xlink:href="#DejaVuSans-36" transform="translate(868.081055 0.015625)"/>
     <use xlink:href="#DejaVuSans-65" transform="translate(931.704102 0.015625)"/>
     <use xlink:href="#DejaVuSans-2d" transform="translate(993.227539 0.015625)"/>
     <use xlink:href="#DejaVuSans-30" transform="translate(1029.311523 0.015625)"/>
     <use xlink:href="#DejaVuSans-35" transform="translate(1092.93457 0.015625)"/>
     <use xlink:href="#DejaVuSans-20" transform="translate(1156.557617 0.015625)"/>
     <use xlink:href="#DejaVuSans-47" transform="translate(1188.344727 0.015625)"/>
     <use xlink:href="#DejaVuSans-48" transform="translate(1265.834961 0.015625)"/>
     <use xlink:href="#DejaVuSans-7a" transform="translate(1341.030273 0.015625)"/>
    </g>
   </g>
  </g>
  <g id="axes_2">
   <g id="patch_8">
    <path d="M 50.595313 307.872 
L 407.715312 307.872 
L 407.715312 186.912 
L 50.595313 186.912 
z
" style="fill: #ffffff"/>
   </g>
   <g id="matplotlib.axis_3">
    <g id="xtick_8">
     <g id="line2d_14">
      <g>
       <use xlink:href="#m642eba55b2" x="66.82804" y="307.872" style="stroke: #000000; stroke-width: 0.8"/>
      </g>
     </g>
     <g id="text_7">
      <!-- 85 -->
      <g transform="translate(60.46554 322.470438) scale(0.1 -0.1)">
       <use xlink:href="#DejaVuSans-38"/>
       <use xlink:href="#DejaVuSans-35" x="63.623047"/>
      </g>
     </g>
    </g>
    <g id="xtick_9">
     <g id="line2d_15">
      <g>
       <use xlink:href="#m642eba55b2" x="120.937131" y="307.872" style="stroke: #000000; stroke-width: 0.8"/>
      </g>
     </g>
     <g id="text_8">
      <!-- 90 -->
      <g transform="translate(114.574631 322.470438) scale(0.1 -0.1)">
       <use xlink:href="#DejaVuSans-39"/>
       <use xlink:href="#DejaVuSans-30" x="63.623047"/>
      </g>
     </g>
    </g>
    <g id="xtick_10">
     <g id="line2d_16">
      <g>
       <use xlink:href="#m642eba55b2" x="175.046222" y="307.872" style="stroke: #000000; stroke-width: 0.8"/>
      </g>
     </g>
     <g id="text_9">
      <!-- 95 -->
      <g transform="translate(168.683722 322.470438) scale(0.1 -0.1)">
       <use xlink:href="#DejaVuSans-39"/>
       <use xlink:href="#DejaVuSans-35" x="63.623047"/>
      </g>
     </g>
    </g>
    <g id="xtick_11">
     <g id="line2d_17">
      <g>
       <use xlink:href="#m642eba55b2" x="229.155312" y="307.872" style="stroke: #000000; stroke-width: 0.8"/>
      </g>
     </g>
     <g id="text_10">
      <!-- 100 -->
      <g transform="translate(219.611562 322.470438) scale(0.1 -0.1)">
       <use xlink:href="#DejaVuSans-31"/>
       <use xlink:href="#DejaVuSans-30" x="63.623047"/>
       <use xlink:href="#DejaVuSans-30" x="127.246094"/>
      </g>
     </g>
    </g>
    <g id="xtick_12">
     <g id="line2d_18">
      <g>
       <use xlink:href="#m642eba55b2" x="283.264403" y="307.872" style="stroke: #000000; stroke-width: 0.8"/>
      </g>
     </g>
     <g id="text_11">
      <!-- 105 -->
      <g transform="translate(273.720653 322.470438) scale(0.1 -0.1)">
       <use xlink:href="#DejaVuSans-31"/>
       <use xlink:href="#DejaVuSans-30" x="63.623047"/>
       <use xlink:href="#DejaVuSans-35" x="127.246094"/>
      </g>
     </g>
    </g>
    <g id="xtick_13">
     <g id="line2d_19">
      <g>
       <use xlink:href="#m642eba55b2" x="337.373494" y="307.872" style="stroke: #000000; stroke-width: 0.8"/>
      </g>
     </g>
     <g id="text_12">
      <!-- 110 -->
      <g transform="translate(327.829744 322.470438) scale(0.1 -0.1)">
       <use xlink:href="#DejaVuSans-31"/>
       <use xlink:href="#DejaVuSans-31" x="63.623047"/>
       <use xlink:href="#DejaVuSans-30" x="127.246094"/>
      </g>
     </g>
    </g>
    <g id="xtick_14">
     <g id="line2d_20">
      <g>
       <use xlink:href="#m642eba55b2" x="391.482585" y="307.872" style="stroke: #000000; stroke-width: 0.8"/>
      </g>
     </g>
     <g id="text_13">
      <!-- 115 -->
      <g transform="translate(381.938835 322.470438) scale(0.1 -0.1)">
       <use xlink:href="#DejaVuSans-31"/>
       <use xlink:href="#DejaVuSans-31" x="63.623047"/>
       <use xlink:href="#DejaVuSans-35" x="127.246094"/>
      </g>
     </g>
    </g>
    <g id="text_14">
     <!-- Frequency [MHz] -->
     <g transform="translate(187.136562 336.148562) scale(0.1 -0.1)">
      <defs>
       <path id="DejaVuSans-46" d="M 628 4666 
L 3309 4666 
L 3309 4134 
L 1259 4134 
L 1259 2759 
L 3109 2759 
L 3109 2228 
L 1259 2228 
L 1259 0 
L 628 0 
L 628 4666 
z
" transform="scale(0.015625)"/>
       <path id="DejaVuSans-71" d="M 947 1747 
Q 947 1113 1208 752 
Q 1469 391 1925 391 
Q 2381 391 2643 752 
Q 2906 1113 2906 1747 
Q 2906 2381 2643 2742 
Q 2381 3103 1925 3103 
Q 1469 3103 1208 2742 
Q 947 2381 947 1747 
z
M 2906 525 
Q 2725 213 2448 61 
Q 2172 -91 1784 -91 
Q 1150 -91 751 415 
Q 353 922 353 1747 
Q 353 2572 751 3078 
Q 1150 3584 1784 3584 
Q 2172 3584 2448 3432 
Q 2725 3281 2906 2969 
L 2906 3500 
L 3481 3500 
L 3481 -1331 
L 2906 -1331 
L 2906 525 
z
" transform="scale(0.015625)"/>
       <path id="DejaVuSans-6e" d="M 3513 2113 
L 3513 0 
L 2938 0 
L 2938 2094 
Q 2938 2591 2744 2837 
Q 2550 3084 2163 3084 
Q 1697 3084 1428 2787 
Q 1159 2491 1159 1978 
L 1159 0 
L 581 0 
L 581 3500 
L 1159 3500 
L 1159 2956 
Q 1366 3272 1645 3428 
Q 1925 3584 2291 3584 
Q 2894 3584 3203 3211 
Q 3513 2838 3513 2113 
z
" transform="scale(0.015625)"/>
       <path id="DejaVuSans-63" d="M 3122 3366 
L 3122 2828 
Q 2878 2963 2633 3030 
Q 2388 3097 2138 3097 
Q 1578 3097 1268 2742 
Q 959 2388 959 1747 
Q 959 1106 1268 751 
Q 1578 397 2138 397 
Q 2388 397 2633 464 
Q 2878 531 3122 666 
L 3122 134 
Q 2881 22 2623 -34 
Q 2366 -91 2075 -91 
Q 1284 -91 818 406 
Q 353 903 353 1747 
Q 353 2603 823 3093 
Q 1294 3584 2113 3584 
Q 2378 3584 2631 3529 
Q 2884 3475 3122 3366 
z
" transform="scale(0.015625)"/>
       <path id="DejaVuSans-4d" d="M 628 4666 
L 1569 4666 
L 2759 1491 
L 3956 4666 
L 4897 4666 
L 4897 0 
L 4281 0 
L 4281 4097 
L 3078 897 
L 2444 897 
L 1241 4097 
L 1241 0 
L 628 0 
L 628 4666 
z
" transform="scale(0.015625)"/>
      </defs>
      <use xlink:href="#DejaVuSans-46"/>
      <use xlink:href="#DejaVuSans-72" x="50.269531"/>
      <use xlink:href="#DejaVuSans-65" x="89.132812"/>
      <use xlink:href="#DejaVuSans-71" x="150.65625"/>
      <use xlink:href="#DejaVuSans-75" x="214.132812"/>
      <use xlink:href="#DejaVuSans-65" x="277.511719"/>
      <use xlink:href="#DejaVuSans-6e" x="339.035156"/>
      <use xlink:href="#DejaVuSans-63" x="402.414062"/>
      <use xlink:href="#DejaVuSans-79" x="457.394531"/>
      <use xlink:href="#DejaVuSans-20" x="516.574219"/>
      <use xlink:href="#DejaVuSans-5b" x="548.361328"/>
      <use xlink:href="#DejaVuSans-4d" x="587.375"/>
      <use xlink:href="#DejaVuSans-48" x="673.654297"/>
      <use xlink:href="#DejaVuSans-7a" x="748.849609"/>
      <use xlink:href="#DejaVuSans-5d" x="801.339844"/>
     </g>
    </g>
    <g id="text_15">
     <!-- +6 GHz -->
     <g transform="translate(369.277812 335.148562) scale(0.1 -0.1)">
      <defs>
       <path id="DejaVuSans-2b" d="M 2944 4013 
L 2944 2272 
L 4684 2272 
L 4684 1741 
L 2944 1741 
L 2944 0 
L 2419 0 
L 2419 1741 
L 678 1741 
L 678 2272 
L 2419 2272 
L 2419 4013 
L 2944 4013 
z
" transform="scale(0.015625)"/>
      </defs>
      <use xlink:href="#DejaVuSans-2b"/>
      <use xlink:href="#DejaVuSans-36" x="83.789062"/>
      <use xlink:href="#DejaVuSans-20" x="147.412109"/>
      <use xlink:href="#DejaVuSans-47" x="179.199219"/>
      <use xlink:href="#DejaVuSans-48" x="256.689453"/>
      <use xlink:href="#DejaVuSans-7a" x="331.884766"/>
     </g>
    </g>
   </g>
   <g id="matplotlib.axis_4">
    <g id="ytick_5">
     <g id="line2d_21">
      <g>
       <use xlink:href="#m5c07db31bd" x="50.595313" y="277.977289" style="stroke: #000000; stroke-width: 0.8"/>
      </g>
     </g>
     <g id="text_16">
      <!-- -100 -->
      <g transform="translate(20.9 281.776508) scale(0.1 -0.1)">
       <use xlink:href="#DejaVuSans-2d"/>
       <use xlink:href="#DejaVuSans-31" x="36.083984"/>
       <use xlink:href="#DejaVuSans-30" x="99.707031"/>
       <use xlink:href="#DejaVuSans-30" x="163.330078"/>
      </g>
     </g>
    </g>
    <g id="ytick_6">
     <g id="line2d_22">
      <g>
       <use xlink:href="#m5c07db31bd" x="50.595313" y="247.417422" style="stroke: #000000; stroke-width: 0.8"/>
      </g>
     </g>
     <g id="text_17">
      <!-- 0 -->
      <g transform="translate(37.232813 251.216641) scale(0.1 -0.1)">
       <use xlink:href="#DejaVuSans-30"/>
      </g>
     </g>
    </g>
    <g id="ytick_7">
     <g id="line2d_23">
      <g>
       <use xlink:href="#m5c07db31bd" x="50.595313" y="216.857555" style="stroke: #000000; stroke-width: 0.8"/>
      </g>
     </g>
     <g id="text_18">
      <!-- 100 -->
      <g transform="translate(24.507813 220.656774) scale(0.1 -0.1)">
       <use xlink:href="#DejaVuSans-31"/>
       <use xlink:href="#DejaVuSans-30" x="63.623047"/>
       <use xlink:href="#DejaVuSans-30" x="127.246094"/>
      </g>
     </g>
    </g>
    <g id="text_19">
     <!-- $\angle S_{21}$ [deg] -->
     <g transform="translate(14.8 274.592) rotate(-90) scale(0.1 -0.1)">
      <defs>
       <path id="DejaVuSans-2220" d="M 5028 631 
L 5028 0 
L 547 0 
L 3525 4666 
L 4281 4666 
L 1716 631 
L 5028 631 
z
" transform="scale(0.015625)"/>
       <path id="DejaVuSans-64" d="M 2906 2969 
L 2906 4863 
L 3481 4863 
L 3481 0 
L 2906 0 
L 2906 525 
Q 2725 213 2448 61 
Q 2172 -91 1784 -91 
Q 1150 -91 751 415 
Q 353 922 353 1747 
Q 353 2572 751 3078 
Q 1150 3584 1784 3584 
Q 2172 3584 2448 3432 
Q 2725 3281 2906 2969 
z
M 947 1747 
Q 947 1113 1208 752 
Q 1469 391 1925 391 
Q 2381 391 2643 752 
Q 2906 1113 2906 1747 
Q 2906 2381 2643 2742 
Q 2381 3103 1925 3103 
Q 1469 3103 1208 2742 
Q 947 2381 947 1747 
z
" transform="scale(0.015625)"/>
       <path id="DejaVuSans-67" d="M 2906 1791 
Q 2906 2416 2648 2759 
Q 2391 3103 1925 3103 
Q 1463 3103 1205 2759 
Q 947 2416 947 1791 
Q 947 1169 1205 825 
Q 1463 481 1925 481 
Q 2391 481 2648 825 
Q 2906 1169 2906 1791 
z
M 3481 434 
Q 3481 -459 3084 -895 
Q 2688 -1331 1869 -1331 
Q 1566 -1331 1297 -1286 
Q 1028 -1241 775 -1147 
L 775 -588 
Q 1028 -725 1275 -790 
Q 1522 -856 1778 -856 
Q 2344 -856 2625 -561 
Q 2906 -266 2906 331 
L 2906 616 
Q 2728 306 2450 153 
Q 2172 0 1784 0 
Q 1141 0 747 490 
Q 353 981 353 1791 
Q 353 2603 747 3093 
Q 1141 3584 1784 3584 
Q 2172 3584 2450 3431 
Q 2728 3278 2906 2969 
L 2906 3500 
L 3481 3500 
L 3481 434 
z
" transform="scale(0.015625)"/>
      </defs>
      <use xlink:href="#DejaVuSans-2220" transform="translate(0 0.015625)"/>
      <use xlink:href="#DejaVuSans-Oblique-53" transform="translate(89.648438 0.015625)"/>
      <use xlink:href="#DejaVuSans-32" transform="translate(153.125 -16.390625) scale(0.7)"/>
      <use xlink:href="#DejaVuSans-31" transform="translate(197.661133 -16.390625) scale(0.7)"/>
      <use xlink:href="#DejaVuSans-20" transform="translate(244.931641 0.015625)"/>
      <use xlink:href="#DejaVuSans-5b" transform="translate(276.71875 0.015625)"/>
      <use xlink:href="#DejaVuSans-64" transform="translate(315.732422 0.015625)"/>
      <use xlink:href="#DejaVuSans-65" transform="translate(379.208984 0.015625)"/>
      <use xlink:href="#DejaVuSans-67" transform="translate(440.732422 0.015625)"/>
      <use xlink:href="#DejaVuSans-5d" transform="translate(504.208984 0.015625)"/>
     </g>
    </g>
   </g>
   <g id="line2d_24">
    <path d="M 66.82804 277.029653 
L 68.45947 277.18309 
L 70.0909 277.577378 
L 73.353759 277.77076 
L 76.616619 278.326512 
L 78.248049 278.308992 
L 79.879479 278.762389 
L 81.510909 278.8921 
L 83.142339 278.888946 
L 84.773768 279.223434 
L 86.405198 279.335899 
L 88.036628 279.71954 
L 89.668058 279.685959 
L 91.299488 280.041904 
L 92.930918 280.121039 
L 97.825207 280.926952 
L 101.088067 281.290245 
L 102.719497 281.68885 
L 104.350927 281.67235 
L 107.613787 282.170543 
L 109.245217 282.293015 
L 110.876646 282.589758 
L 114.139506 282.687617 
L 117.402366 283.233643 
L 119.033796 283.552575 
L 120.665226 283.609367 
L 122.296656 283.935949 
L 128.822375 284.508086 
L 130.453805 284.851507 
L 136.979524 285.465765 
L 138.610954 285.802142 
L 140.242384 285.830022 
L 143.505244 286.578644 
L 146.768104 286.674543 
L 148.399534 286.982697 
L 150.030963 287.140169 
L 151.662393 287.463815 
L 153.293823 287.447164 
L 154.925253 287.716503 
L 156.556683 287.709632 
L 158.188113 288.049549 
L 161.450973 288.298184 
L 163.082402 288.607213 
L 164.713832 288.598714 
L 171.239552 289.622468 
L 172.870982 289.816724 
L 174.502412 289.765314 
L 176.133842 290.028463 
L 177.765271 290.06357 
L 179.396701 290.23583 
L 181.028131 290.743647 
L 182.659561 290.669481 
L 184.290991 291.002991 
L 185.922421 291.45011 
L 190.81671 291.688344 
L 192.44814 292.160815 
L 194.07957 292.174786 
L 195.711 292.537068 
L 197.34243 292.653338 
L 198.97386 293.008686 
L 200.60529 293.092971 
L 205.499579 293.73311 
L 207.131009 294.147411 
L 208.762439 294.168794 
L 212.025299 294.842454 
L 213.656729 294.952627 
L 225.076738 296.69922 
L 226.708168 296.846094 
L 228.339598 297.11993 
L 233.233887 298.262968 
L 234.865317 298.333357 
L 239.759607 299.28909 
L 243.022466 299.837673 
L 244.653896 300.364204 
L 246.285326 300.455898 
L 247.916756 300.668427 
L 252.811046 301.790721 
L 254.442476 302.248298 
L 256.073905 302.341674 
L 257.705335 192.690232 
L 259.336765 192.999172 
L 260.968195 193.64354 
L 264.231055 194.516606 
L 265.862485 194.655669 
L 267.493915 195.507414 
L 269.125344 195.566997 
L 270.756774 196.246739 
L 274.019634 197.358772 
L 275.651064 197.736105 
L 277.282494 198.436813 
L 278.913924 198.956819 
L 280.545354 199.828668 
L 282.176783 200.549145 
L 283.808213 201.601514 
L 285.439643 201.976642 
L 287.071073 202.584778 
L 288.702503 204.06422 
L 290.333933 204.902233 
L 295.228223 208.068644 
L 298.491082 209.104029 
L 300.122512 209.961565 
L 301.753942 207.62654 
L 303.385372 195.233926 
L 305.016802 292.48488 
L 306.648232 288.412514 
L 308.279662 287.34215 
L 309.911091 287.460302 
L 311.542521 288.116822 
L 314.805381 290.335608 
L 316.436811 291.710243 
L 324.59396 295.336725 
L 326.22539 296.486578 
L 327.85682 297.180214 
L 329.48825 297.61319 
L 331.11968 298.349751 
L 332.75111 298.568173 
L 334.38254 299.067779 
L 336.013969 299.817379 
L 337.645399 300.031431 
L 339.276829 300.592956 
L 342.539689 301.475891 
L 344.171119 301.653554 
L 345.802549 302.185084 
L 347.433979 192.58652 
L 350.696838 193.14106 
L 352.328268 193.331889 
L 353.959698 193.830879 
L 355.591128 194.03218 
L 358.853988 194.625854 
L 360.485418 194.845665 
L 362.116847 195.387005 
L 363.748277 195.65809 
L 365.379707 195.60649 
L 367.011137 196.207579 
L 368.642567 196.070953 
L 370.273997 196.621691 
L 375.168286 197.298093 
L 376.799716 197.663921 
L 383.325436 198.595981 
L 384.956866 198.763036 
L 386.588296 199.156602 
L 388.219725 199.233926 
L 389.851155 199.573801 
L 391.482585 199.72255 
L 391.482585 199.72255 
" clip-path="url(#p9eca90b74a)" style="fill: none; stroke: #1f77b4; stroke-width: 1.5; stroke-linecap: square"/>
    <g clip-path="url(#p9eca90b74a)">
     <use xlink:href="#m215bce1831" x="66.82804" y="277.029653" style="fill: #1f77b4; stroke: #1f77b4"/>
     <use xlink:href="#m215bce1831" x="68.45947" y="277.18309" style="fill: #1f77b4; stroke: #1f77b4"/>
     <use xlink:href="#m215bce1831" x="70.0909" y="277.577378" style="fill: #1f77b4; stroke: #1f77b4"/>
     <use xlink:href="#m215bce1831" x="71.722329" y="277.638487" style="fill: #1f77b4; stroke: #1f77b4"/>
     <use xlink:href="#m215bce1831" x="73.353759" y="277.77076" style="fill: #1f77b4; stroke: #1f77b4"/>
     <use xlink:href="#m215bce1831" x="74.985189" y="278.09633" style="fill: #1f77b4; stroke: #1f77b4"/>
     <use xlink:href="#m215bce1831" x="76.616619" y="278.326512" style="fill: #1f77b4; stroke: #1f77b4"/>
     <use xlink:href="#m215bce1831" x="78.248049" y="278.308992" style="fill: #1f77b4; stroke: #1f77b4"/>
     <use xlink:href="#m215bce1831" x="79.879479" y="278.762389" style="fill: #1f77b4; stroke: #1f77b4"/>
     <use xlink:href="#m215bce1831" x="81.510909" y="278.8921" style="fill: #1f77b4; stroke: #1f77b4"/>
     <use xlink:href="#m215bce1831" x="83.142339" y="278.888946" style="fill: #1f77b4; stroke: #1f77b4"/>
     <use xlink:href="#m215bce1831" x="84.773768" y="279.223434" style="fill: #1f77b4; stroke: #1f77b4"/>
     <use xlink:href="#m215bce1831" x="86.405198" y="279.335899" style="fill: #1f77b4; stroke: #1f77b4"/>
     <use xlink:href="#m215bce1831" x="88.036628" y="279.71954" style="fill: #1f77b4; stroke: #1f77b4"/>
     <use xlink:href="#m215bce1831" x="89.668058" y="279.685959" style="fill: #1f77b4; stroke: #1f77b4"/>
     <use xlink:href="#m215bce1831" x="91.299488" y="280.041904" style="fill: #1f77b4; stroke: #1f77b4"/>
     <use xlink:href="#m215bce1831" x="92.930918" y="280.121039" style="fill: #1f77b4; stroke: #1f77b4"/>
     <use xlink:href="#m215bce1831" x="94.562348" y="280.413845" style="fill: #1f77b4; stroke: #1f77b4"/>
     <use xlink:href="#m215bce1831" x="96.193778" y="280.676185" style="fill: #1f77b4; stroke: #1f77b4"/>
     <use xlink:href="#m215bce1831" x="97.825207" y="280.926952" style="fill: #1f77b4; stroke: #1f77b4"/>
     <use xlink:href="#m215bce1831" x="99.456637" y="281.062647" style="fill: #1f77b4; stroke: #1f77b4"/>
     <use xlink:href="#m215bce1831" x="101.088067" y="281.290245" style="fill: #1f77b4; stroke: #1f77b4"/>
     <use xlink:href="#m215bce1831" x="102.719497" y="281.68885" style="fill: #1f77b4; stroke: #1f77b4"/>
     <use xlink:href="#m215bce1831" x="104.350927" y="281.67235" style="fill: #1f77b4; stroke: #1f77b4"/>
     <use xlink:href="#m215bce1831" x="105.982357" y="281.977764" style="fill: #1f77b4; stroke: #1f77b4"/>
     <use xlink:href="#m215bce1831" x="107.613787" y="282.170543" style="fill: #1f77b4; stroke: #1f77b4"/>
     <use xlink:href="#m215bce1831" x="109.245217" y="282.293015" style="fill: #1f77b4; stroke: #1f77b4"/>
     <use xlink:href="#m215bce1831" x="110.876646" y="282.589758" style="fill: #1f77b4; stroke: #1f77b4"/>
     <use xlink:href="#m215bce1831" x="112.508076" y="282.629214" style="fill: #1f77b4; stroke: #1f77b4"/>
     <use xlink:href="#m215bce1831" x="114.139506" y="282.687617" style="fill: #1f77b4; stroke: #1f77b4"/>
     <use xlink:href="#m215bce1831" x="115.770936" y="282.931478" style="fill: #1f77b4; stroke: #1f77b4"/>
     <use xlink:href="#m215bce1831" x="117.402366" y="283.233643" style="fill: #1f77b4; stroke: #1f77b4"/>
     <use xlink:href="#m215bce1831" x="119.033796" y="283.552575" style="fill: #1f77b4; stroke: #1f77b4"/>
     <use xlink:href="#m215bce1831" x="120.665226" y="283.609367" style="fill: #1f77b4; stroke: #1f77b4"/>
     <use xlink:href="#m215bce1831" x="122.296656" y="283.935949" style="fill: #1f77b4; stroke: #1f77b4"/>
     <use xlink:href="#m215bce1831" x="123.928085" y="284.095747" style="fill: #1f77b4; stroke: #1f77b4"/>
     <use xlink:href="#m215bce1831" x="125.559515" y="284.219323" style="fill: #1f77b4; stroke: #1f77b4"/>
     <use xlink:href="#m215bce1831" x="127.190945" y="284.48083" style="fill: #1f77b4; stroke: #1f77b4"/>
     <use xlink:href="#m215bce1831" x="128.822375" y="284.508086" style="fill: #1f77b4; stroke: #1f77b4"/>
     <use xlink:href="#m215bce1831" x="130.453805" y="284.851507" style="fill: #1f77b4; stroke: #1f77b4"/>
     <use xlink:href="#m215bce1831" x="132.085235" y="285.015107" style="fill: #1f77b4; stroke: #1f77b4"/>
     <use xlink:href="#m215bce1831" x="133.716665" y="285.102593" style="fill: #1f77b4; stroke: #1f77b4"/>
     <use xlink:href="#m215bce1831" x="135.348095" y="285.266962" style="fill: #1f77b4; stroke: #1f77b4"/>
     <use xlink:href="#m215bce1831" x="136.979524" y="285.465765" style="fill: #1f77b4; stroke: #1f77b4"/>
     <use xlink:href="#m215bce1831" x="138.610954" y="285.802142" style="fill: #1f77b4; stroke: #1f77b4"/>
     <use xlink:href="#m215bce1831" x="140.242384" y="285.830022" style="fill: #1f77b4; stroke: #1f77b4"/>
     <use xlink:href="#m215bce1831" x="141.873814" y="286.220133" style="fill: #1f77b4; stroke: #1f77b4"/>
     <use xlink:href="#m215bce1831" x="143.505244" y="286.578644" style="fill: #1f77b4; stroke: #1f77b4"/>
     <use xlink:href="#m215bce1831" x="145.136674" y="286.577055" style="fill: #1f77b4; stroke: #1f77b4"/>
     <use xlink:href="#m215bce1831" x="146.768104" y="286.674543" style="fill: #1f77b4; stroke: #1f77b4"/>
     <use xlink:href="#m215bce1831" x="148.399534" y="286.982697" style="fill: #1f77b4; stroke: #1f77b4"/>
     <use xlink:href="#m215bce1831" x="150.030963" y="287.140169" style="fill: #1f77b4; stroke: #1f77b4"/>
     <use xlink:href="#m215bce1831" x="151.662393" y="287.463815" style="fill: #1f77b4; stroke: #1f77b4"/>
     <use xlink:href="#m215bce1831" x="153.293823" y="287.447164" style="fill: #1f77b4; stroke: #1f77b4"/>
     <use xlink:href="#m215bce1831" x="154.925253" y="287.716503" style="fill: #1f77b4; stroke: #1f77b4"/>
     <use xlink:href="#m215bce1831" x="156.556683" y="287.709632" style="fill: #1f77b4; stroke: #1f77b4"/>
     <use xlink:href="#m215bce1831" x="158.188113" y="288.049549" style="fill: #1f77b4; stroke: #1f77b4"/>
     <use xlink:href="#m215bce1831" x="159.819543" y="288.164111" style="fill: #1f77b4; stroke: #1f77b4"/>
     <use xlink:href="#m215bce1831" x="161.450973" y="288.298184" style="fill: #1f77b4; stroke: #1f77b4"/>
     <use xlink:href="#m215bce1831" x="163.082402" y="288.607213" style="fill: #1f77b4; stroke: #1f77b4"/>
     <use xlink:href="#m215bce1831" x="164.713832" y="288.598714" style="fill: #1f77b4; stroke: #1f77b4"/>
     <use xlink:href="#m215bce1831" x="166.345262" y="288.869363" style="fill: #1f77b4; stroke: #1f77b4"/>
     <use xlink:href="#m215bce1831" x="167.976692" y="289.178677" style="fill: #1f77b4; stroke: #1f77b4"/>
     <use xlink:href="#m215bce1831" x="169.608122" y="289.362745" style="fill: #1f77b4; stroke: #1f77b4"/>
     <use xlink:href="#m215bce1831" x="171.239552" y="289.622468" style="fill: #1f77b4; stroke: #1f77b4"/>
     <use xlink:href="#m215bce1831" x="172.870982" y="289.816724" style="fill: #1f77b4; stroke: #1f77b4"/>
     <use xlink:href="#m215bce1831" x="174.502412" y="289.765314" style="fill: #1f77b4; stroke: #1f77b4"/>
     <use xlink:href="#m215bce1831" x="176.133842" y="290.028463" style="fill: #1f77b4; stroke: #1f77b4"/>
     <use xlink:href="#m215bce1831" x="177.765271" y="290.06357" style="fill: #1f77b4; stroke: #1f77b4"/>
     <use xlink:href="#m215bce1831" x="179.396701" y="290.23583" style="fill: #1f77b4; stroke: #1f77b4"/>
     <use xlink:href="#m215bce1831" x="181.028131" y="290.743647" style="fill: #1f77b4; stroke: #1f77b4"/>
     <use xlink:href="#m215bce1831" x="182.659561" y="290.669481" style="fill: #1f77b4; stroke: #1f77b4"/>
     <use xlink:href="#m215bce1831" x="184.290991" y="291.002991" style="fill: #1f77b4; stroke: #1f77b4"/>
     <use xlink:href="#m215bce1831" x="185.922421" y="291.45011" style="fill: #1f77b4; stroke: #1f77b4"/>
     <use xlink:href="#m215bce1831" x="187.553851" y="291.496449" style="fill: #1f77b4; stroke: #1f77b4"/>
     <use xlink:href="#m215bce1831" x="189.185281" y="291.533529" style="fill: #1f77b4; stroke: #1f77b4"/>
     <use xlink:href="#m215bce1831" x="190.81671" y="291.688344" style="fill: #1f77b4; stroke: #1f77b4"/>
     <use xlink:href="#m215bce1831" x="192.44814" y="292.160815" style="fill: #1f77b4; stroke: #1f77b4"/>
     <use xlink:href="#m215bce1831" x="194.07957" y="292.174786" style="fill: #1f77b4; stroke: #1f77b4"/>
     <use xlink:href="#m215bce1831" x="195.711" y="292.537068" style="fill: #1f77b4; stroke: #1f77b4"/>
     <use xlink:href="#m215bce1831" x="197.34243" y="292.653338" style="fill: #1f77b4; stroke: #1f77b4"/>
     <use xlink:href="#m215bce1831" x="198.97386" y="293.008686" style="fill: #1f77b4; stroke: #1f77b4"/>
     <use xlink:href="#m215bce1831" x="200.60529" y="293.092971" style="fill: #1f77b4; stroke: #1f77b4"/>
     <use xlink:href="#m215bce1831" x="202.23672" y="293.300626" style="fill: #1f77b4; stroke: #1f77b4"/>
     <use xlink:href="#m215bce1831" x="203.868149" y="293.545605" style="fill: #1f77b4; stroke: #1f77b4"/>
     <use xlink:href="#m215bce1831" x="205.499579" y="293.73311" style="fill: #1f77b4; stroke: #1f77b4"/>
     <use xlink:href="#m215bce1831" x="207.131009" y="294.147411" style="fill: #1f77b4; stroke: #1f77b4"/>
     <use xlink:href="#m215bce1831" x="208.762439" y="294.168794" style="fill: #1f77b4; stroke: #1f77b4"/>
     <use xlink:href="#m215bce1831" x="210.393869" y="294.542927" style="fill: #1f77b4; stroke: #1f77b4"/>
     <use xlink:href="#m215bce1831" x="212.025299" y="294.842454" style="fill: #1f77b4; stroke: #1f77b4"/>
     <use xlink:href="#m215bce1831" x="213.656729" y="294.952627" style="fill: #1f77b4; stroke: #1f77b4"/>
     <use xlink:href="#m215bce1831" x="215.288159" y="295.208619" style="fill: #1f77b4; stroke: #1f77b4"/>
     <use xlink:href="#m215bce1831" x="216.919588" y="295.465359" style="fill: #1f77b4; stroke: #1f77b4"/>
     <use xlink:href="#m215bce1831" x="218.551018" y="295.747058" style="fill: #1f77b4; stroke: #1f77b4"/>
     <use xlink:href="#m215bce1831" x="220.182448" y="295.93501" style="fill: #1f77b4; stroke: #1f77b4"/>
     <use xlink:href="#m215bce1831" x="221.813878" y="296.313652" style="fill: #1f77b4; stroke: #1f77b4"/>
     <use xlink:href="#m215bce1831" x="223.445308" y="296.412286" style="fill: #1f77b4; stroke: #1f77b4"/>
     <use xlink:href="#m215bce1831" x="225.076738" y="296.69922" style="fill: #1f77b4; stroke: #1f77b4"/>
     <use xlink:href="#m215bce1831" x="226.708168" y="296.846094" style="fill: #1f77b4; stroke: #1f77b4"/>
     <use xlink:href="#m215bce1831" x="228.339598" y="297.11993" style="fill: #1f77b4; stroke: #1f77b4"/>
     <use xlink:href="#m215bce1831" x="229.971027" y="297.53584" style="fill: #1f77b4; stroke: #1f77b4"/>
     <use xlink:href="#m215bce1831" x="231.602457" y="297.914282" style="fill: #1f77b4; stroke: #1f77b4"/>
     <use xlink:href="#m215bce1831" x="233.233887" y="298.262968" style="fill: #1f77b4; stroke: #1f77b4"/>
     <use xlink:href="#m215bce1831" x="234.865317" y="298.333357" style="fill: #1f77b4; stroke: #1f77b4"/>
     <use xlink:href="#m215bce1831" x="236.496747" y="298.687792" style="fill: #1f77b4; stroke: #1f77b4"/>
     <use xlink:href="#m215bce1831" x="238.128177" y="299.044244" style="fill: #1f77b4; stroke: #1f77b4"/>
     <use xlink:href="#m215bce1831" x="239.759607" y="299.28909" style="fill: #1f77b4; stroke: #1f77b4"/>
     <use xlink:href="#m215bce1831" x="241.391037" y="299.573802" style="fill: #1f77b4; stroke: #1f77b4"/>
     <use xlink:href="#m215bce1831" x="243.022466" y="299.837673" style="fill: #1f77b4; stroke: #1f77b4"/>
     <use xlink:href="#m215bce1831" x="244.653896" y="300.364204" style="fill: #1f77b4; stroke: #1f77b4"/>
     <use xlink:href="#m215bce1831" x="246.285326" y="300.455898" style="fill: #1f77b4; stroke: #1f77b4"/>
     <use xlink:href="#m215bce1831" x="247.916756" y="300.668427" style="fill: #1f77b4; stroke: #1f77b4"/>
     <use xlink:href="#m215bce1831" x="249.548186" y="301.032869" style="fill: #1f77b4; stroke: #1f77b4"/>
     <use xlink:href="#m215bce1831" x="251.179616" y="301.506338" style="fill: #1f77b4; stroke: #1f77b4"/>
     <use xlink:href="#m215bce1831" x="252.811046" y="301.790721" style="fill: #1f77b4; stroke: #1f77b4"/>
     <use xlink:href="#m215bce1831" x="254.442476" y="302.248298" style="fill: #1f77b4; stroke: #1f77b4"/>
     <use xlink:href="#m215bce1831" x="256.073905" y="302.341674" style="fill: #1f77b4; stroke: #1f77b4"/>
     <use xlink:href="#m215bce1831" x="257.705335" y="192.690232" style="fill: #1f77b4; stroke: #1f77b4"/>
     <use xlink:href="#m215bce1831" x="259.336765" y="192.999172" style="fill: #1f77b4; stroke: #1f77b4"/>
     <use xlink:href="#m215bce1831" x="260.968195" y="193.64354" style="fill: #1f77b4; stroke: #1f77b4"/>
     <use xlink:href="#m215bce1831" x="262.599625" y="194.074471" style="fill: #1f77b4; stroke: #1f77b4"/>
     <use xlink:href="#m215bce1831" x="264.231055" y="194.516606" style="fill: #1f77b4; stroke: #1f77b4"/>
     <use xlink:href="#m215bce1831" x="265.862485" y="194.655669" style="fill: #1f77b4; stroke: #1f77b4"/>
     <use xlink:href="#m215bce1831" x="267.493915" y="195.507414" style="fill: #1f77b4; stroke: #1f77b4"/>
     <use xlink:href="#m215bce1831" x="269.125344" y="195.566997" style="fill: #1f77b4; stroke: #1f77b4"/>
     <use xlink:href="#m215bce1831" x="270.756774" y="196.246739" style="fill: #1f77b4; stroke: #1f77b4"/>
     <use xlink:href="#m215bce1831" x="272.388204" y="196.792133" style="fill: #1f77b4; stroke: #1f77b4"/>
     <use xlink:href="#m215bce1831" x="274.019634" y="197.358772" style="fill: #1f77b4; stroke: #1f77b4"/>
     <use xlink:href="#m215bce1831" x="275.651064" y="197.736105" style="fill: #1f77b4; stroke: #1f77b4"/>
     <use xlink:href="#m215bce1831" x="277.282494" y="198.436813" style="fill: #1f77b4; stroke: #1f77b4"/>
     <use xlink:href="#m215bce1831" x="278.913924" y="198.956819" style="fill: #1f77b4; stroke: #1f77b4"/>
     <use xlink:href="#m215bce1831" x="280.545354" y="199.828668" style="fill: #1f77b4; stroke: #1f77b4"/>
     <use xlink:href="#m215bce1831" x="282.176783" y="200.549145" style="fill: #1f77b4; stroke: #1f77b4"/>
     <use xlink:href="#m215bce1831" x="283.808213" y="201.601514" style="fill: #1f77b4; stroke: #1f77b4"/>
     <use xlink:href="#m215bce1831" x="285.439643" y="201.976642" style="fill: #1f77b4; stroke: #1f77b4"/>
     <use xlink:href="#m215bce1831" x="287.071073" y="202.584778" style="fill: #1f77b4; stroke: #1f77b4"/>
     <use xlink:href="#m215bce1831" x="288.702503" y="204.06422" style="fill: #1f77b4; stroke: #1f77b4"/>
     <use xlink:href="#m215bce1831" x="290.333933" y="204.902233" style="fill: #1f77b4; stroke: #1f77b4"/>
     <use xlink:href="#m215bce1831" x="291.965363" y="205.969747" style="fill: #1f77b4; stroke: #1f77b4"/>
     <use xlink:href="#m215bce1831" x="293.596793" y="207.131915" style="fill: #1f77b4; stroke: #1f77b4"/>
     <use xlink:href="#m215bce1831" x="295.228223" y="208.068644" style="fill: #1f77b4; stroke: #1f77b4"/>
     <use xlink:href="#m215bce1831" x="296.859652" y="208.53262" style="fill: #1f77b4; stroke: #1f77b4"/>
     <use xlink:href="#m215bce1831" x="298.491082" y="209.104029" style="fill: #1f77b4; stroke: #1f77b4"/>
     <use xlink:href="#m215bce1831" x="300.122512" y="209.961565" style="fill: #1f77b4; stroke: #1f77b4"/>
     <use xlink:href="#m215bce1831" x="301.753942" y="207.62654" style="fill: #1f77b4; stroke: #1f77b4"/>
     <use xlink:href="#m215bce1831" x="303.385372" y="195.233926" style="fill: #1f77b4; stroke: #1f77b4"/>
     <use xlink:href="#m215bce1831" x="305.016802" y="292.48488" style="fill: #1f77b4; stroke: #1f77b4"/>
     <use xlink:href="#m215bce1831" x="306.648232" y="288.412514" style="fill: #1f77b4; stroke: #1f77b4"/>
     <use xlink:href="#m215bce1831" x="308.279662" y="287.34215" style="fill: #1f77b4; stroke: #1f77b4"/>
     <use xlink:href="#m215bce1831" x="309.911091" y="287.460302" style="fill: #1f77b4; stroke: #1f77b4"/>
     <use xlink:href="#m215bce1831" x="311.542521" y="288.116822" style="fill: #1f77b4; stroke: #1f77b4"/>
     <use xlink:href="#m215bce1831" x="313.173951" y="289.174944" style="fill: #1f77b4; stroke: #1f77b4"/>
     <use xlink:href="#m215bce1831" x="314.805381" y="290.335608" style="fill: #1f77b4; stroke: #1f77b4"/>
     <use xlink:href="#m215bce1831" x="316.436811" y="291.710243" style="fill: #1f77b4; stroke: #1f77b4"/>
     <use xlink:href="#m215bce1831" x="318.068241" y="292.446989" style="fill: #1f77b4; stroke: #1f77b4"/>
     <use xlink:href="#m215bce1831" x="319.699671" y="293.229055" style="fill: #1f77b4; stroke: #1f77b4"/>
     <use xlink:href="#m215bce1831" x="321.331101" y="293.959129" style="fill: #1f77b4; stroke: #1f77b4"/>
     <use xlink:href="#m215bce1831" x="322.96253" y="294.657318" style="fill: #1f77b4; stroke: #1f77b4"/>
     <use xlink:href="#m215bce1831" x="324.59396" y="295.336725" style="fill: #1f77b4; stroke: #1f77b4"/>
     <use xlink:href="#m215bce1831" x="326.22539" y="296.486578" style="fill: #1f77b4; stroke: #1f77b4"/>
     <use xlink:href="#m215bce1831" x="327.85682" y="297.180214" style="fill: #1f77b4; stroke: #1f77b4"/>
     <use xlink:href="#m215bce1831" x="329.48825" y="297.61319" style="fill: #1f77b4; stroke: #1f77b4"/>
     <use xlink:href="#m215bce1831" x="331.11968" y="298.349751" style="fill: #1f77b4; stroke: #1f77b4"/>
     <use xlink:href="#m215bce1831" x="332.75111" y="298.568173" style="fill: #1f77b4; stroke: #1f77b4"/>
     <use xlink:href="#m215bce1831" x="334.38254" y="299.067779" style="fill: #1f77b4; stroke: #1f77b4"/>
     <use xlink:href="#m215bce1831" x="336.013969" y="299.817379" style="fill: #1f77b4; stroke: #1f77b4"/>
     <use xlink:href="#m215bce1831" x="337.645399" y="300.031431" style="fill: #1f77b4; stroke: #1f77b4"/>
     <use xlink:href="#m215bce1831" x="339.276829" y="300.592956" style="fill: #1f77b4; stroke: #1f77b4"/>
     <use xlink:href="#m215bce1831" x="340.908259" y="300.997227" style="fill: #1f77b4; stroke: #1f77b4"/>
     <use xlink:href="#m215bce1831" x="342.539689" y="301.475891" style="fill: #1f77b4; stroke: #1f77b4"/>
     <use xlink:href="#m215bce1831" x="344.171119" y="301.653554" style="fill: #1f77b4; stroke: #1f77b4"/>
     <use xlink:href="#m215bce1831" x="345.802549" y="302.185084" style="fill: #1f77b4; stroke: #1f77b4"/>
     <use xlink:href="#m215bce1831" x="347.433979" y="192.58652" style="fill: #1f77b4; stroke: #1f77b4"/>
     <use xlink:href="#m215bce1831" x="349.065408" y="192.913673" style="fill: #1f77b4; stroke: #1f77b4"/>
     <use xlink:href="#m215bce1831" x="350.696838" y="193.14106" style="fill: #1f77b4; stroke: #1f77b4"/>
     <use xlink:href="#m215bce1831" x="352.328268" y="193.331889" style="fill: #1f77b4; stroke: #1f77b4"/>
     <use xlink:href="#m215bce1831" x="353.959698" y="193.830879" style="fill: #1f77b4; stroke: #1f77b4"/>
     <use xlink:href="#m215bce1831" x="355.591128" y="194.03218" style="fill: #1f77b4; stroke: #1f77b4"/>
     <use xlink:href="#m215bce1831" x="357.222558" y="194.370135" style="fill: #1f77b4; stroke: #1f77b4"/>
     <use xlink:href="#m215bce1831" x="358.853988" y="194.625854" style="fill: #1f77b4; stroke: #1f77b4"/>
     <use xlink:href="#m215bce1831" x="360.485418" y="194.845665" style="fill: #1f77b4; stroke: #1f77b4"/>
     <use xlink:href="#m215bce1831" x="362.116847" y="195.387005" style="fill: #1f77b4; stroke: #1f77b4"/>
     <use xlink:href="#m215bce1831" x="363.748277" y="195.65809" style="fill: #1f77b4; stroke: #1f77b4"/>
     <use xlink:href="#m215bce1831" x="365.379707" y="195.60649" style="fill: #1f77b4; stroke: #1f77b4"/>
     <use xlink:href="#m215bce1831" x="367.011137" y="196.207579" style="fill: #1f77b4; stroke: #1f77b4"/>
     <use xlink:href="#m215bce1831" x="368.642567" y="196.070953" style="fill: #1f77b4; stroke: #1f77b4"/>
     <use xlink:href="#m215bce1831" x="370.273997" y="196.621691" style="fill: #1f77b4; stroke: #1f77b4"/>
     <use xlink:href="#m215bce1831" x="371.905427" y="196.824922" style="fill: #1f77b4; stroke: #1f77b4"/>
     <use xlink:href="#m215bce1831" x="373.536857" y="197.106885" style="fill: #1f77b4; stroke: #1f77b4"/>
     <use xlink:href="#m215bce1831" x="375.168286" y="197.298093" style="fill: #1f77b4; stroke: #1f77b4"/>
     <use xlink:href="#m215bce1831" x="376.799716" y="197.663921" style="fill: #1f77b4; stroke: #1f77b4"/>
     <use xlink:href="#m215bce1831" x="378.431146" y="197.909557" style="fill: #1f77b4; stroke: #1f77b4"/>
     <use xlink:href="#m215bce1831" x="380.062576" y="198.08977" style="fill: #1f77b4; stroke: #1f77b4"/>
     <use xlink:href="#m215bce1831" x="381.694006" y="198.308241" style="fill: #1f77b4; stroke: #1f77b4"/>
     <use xlink:href="#m215bce1831" x="383.325436" y="198.595981" style="fill: #1f77b4; stroke: #1f77b4"/>
     <use xlink:href="#m215bce1831" x="384.956866" y="198.763036" style="fill: #1f77b4; stroke: #1f77b4"/>
     <use xlink:href="#m215bce1831" x="386.588296" y="199.156602" style="fill: #1f77b4; stroke: #1f77b4"/>
     <use xlink:href="#m215bce1831" x="388.219725" y="199.233926" style="fill: #1f77b4; stroke: #1f77b4"/>
     <use xlink:href="#m215bce1831" x="389.851155" y="199.573801" style="fill: #1f77b4; stroke: #1f77b4"/>
     <use xlink:href="#m215bce1831" x="391.482585" y="199.72255" style="fill: #1f77b4; stroke: #1f77b4"/>
    </g>
   </g>
   <g id="line2d_25">
    <path d="M 66.82804 276.885083 
L 130.524027 284.509785 
L 171.471447 289.621441 
L 199.094706 293.279176 
L 218.918457 296.114388 
L 233.867516 298.468465 
L 245.241799 300.47597 
L 254.341226 302.303547 
L 254.666205 302.373818 
L 254.991185 192.428972 
L 262.140734 194.101975 
L 267.990366 195.687628 
L 273.190038 197.329922 
L 277.414772 198.882474 
L 281.314526 200.538468 
L 284.889301 202.279971 
L 288.789055 204.431696 
L 295.288646 208.096839 
L 296.588564 208.579214 
L 297.563503 208.759914 
L 298.538441 208.686033 
L 299.1884 208.4244 
L 299.838359 207.917145 
L 300.488318 207.068706 
L 301.138277 205.747087 
L 301.788236 203.786205 
L 302.438195 201.031047 
L 303.413134 195.491445 
L 303.738113 193.463242 
L 304.063093 301.495005 
L 305.038032 296.465352 
L 305.687991 294.114991 
L 306.33795 292.474264 
L 306.987909 291.37265 
L 307.637868 290.66099 
L 308.287827 290.228153 
L 309.262765 289.936206 
L 310.237704 289.92593 
L 311.537622 290.176293 
L 313.487499 290.853261 
L 317.062274 292.42425 
L 322.911905 294.970709 
L 327.461619 296.698265 
L 332.336312 298.30519 
L 337.860964 299.881521 
L 344.360554 301.488379 
L 348.260308 302.356086 
L 348.585288 192.410182 
L 357.034756 194.102106 
L 367.4341 195.950515 
L 380.758261 198.079049 
L 391.482585 199.665828 
L 391.482585 199.665828 
" clip-path="url(#p9eca90b74a)" style="fill: none; stroke: #d62728; stroke-width: 1.5; stroke-linecap: square"/>
   </g>
   <g id="patch_9">
    <path d="M 50.595313 307.872 
L 50.595313 186.912 
" style="fill: none; stroke: #000000; stroke-width: 0.8; stroke-linejoin: miter; stroke-linecap: square"/>
   </g>
   <g id="patch_10">
    <path d="M 407.715312 307.872 
L 407.715312 186.912 
" style="fill: none; stroke: #000000; stroke-width: 0.8; stroke-linejoin: miter; stroke-linecap: square"/>
   </g>
   <g id="patch_11">
    <path d="M 50.595312 307.872 
L 407.715313 307.872 
" style="fill: none; stroke: #000000; stroke-width: 0.8; stroke-linejoin: miter; stroke-linecap: square"/>
   </g>
   <g id="patch_12">
    <path d="M 50.595312 186.912 
L 407.715313 186.912 
" style="fill: none; stroke: #000000; stroke-width: 0.8; stroke-linejoin: miter; stroke-linecap: square"/>
   </g>
  </g>
  <g id="text_20">
   <!-- S21 One-tone -->
   <g transform="translate(182.144375 16.318125) scale(0.12 -0.12)">
    <defs>
     <path id="DejaVuSans-4f" d="M 2522 4238 
Q 1834 4238 1429 3725 
Q 1025 3213 1025 2328 
Q 1025 1447 1429 934 
Q 1834 422 2522 422 
Q 3209 422 3611 934 
Q 4013 1447 4013 2328 
Q 4013 3213 3611 3725 
Q 3209 4238 2522 4238 
z
M 2522 4750 
Q 3503 4750 4090 4092 
Q 4678 3434 4678 2328 
Q 4678 1225 4090 567 
Q 3503 -91 2522 -91 
Q 1538 -91 948 565 
Q 359 1222 359 2328 
Q 359 3434 948 4092 
Q 1538 4750 2522 4750 
z
" transform="scale(0.015625)"/>
     <path id="DejaVuSans-74" d="M 1172 4494 
L 1172 3500 
L 2356 3500 
L 2356 3053 
L 1172 3053 
L 1172 1153 
Q 1172 725 1289 603 
Q 1406 481 1766 481 
L 2356 481 
L 2356 0 
L 1766 0 
Q 1100 0 847 248 
Q 594 497 594 1153 
L 594 3053 
L 172 3053 
L 172 3500 
L 594 3500 
L 594 4494 
L 1172 4494 
z
" transform="scale(0.015625)"/>
     <path id="DejaVuSans-6f" d="M 1959 3097 
Q 1497 3097 1228 2736 
Q 959 2375 959 1747 
Q 959 1119 1226 758 
Q 1494 397 1959 397 
Q 2419 397 2687 759 
Q 2956 1122 2956 1747 
Q 2956 2369 2687 2733 
Q 2419 3097 1959 3097 
z
M 1959 3584 
Q 2709 3584 3137 3096 
Q 3566 2609 3566 1747 
Q 3566 888 3137 398 
Q 2709 -91 1959 -91 
Q 1206 -91 779 398 
Q 353 888 353 1747 
Q 353 2609 779 3096 
Q 1206 3584 1959 3584 
z
" transform="scale(0.015625)"/>
    </defs>
    <use xlink:href="#DejaVuSans-53"/>
    <use xlink:href="#DejaVuSans-32" x="63.476562"/>
    <use xlink:href="#DejaVuSans-31" x="127.099609"/>
    <use xlink:href="#DejaVuSans-20" x="190.722656"/>
    <use xlink:href="#DejaVuSans-4f" x="222.509766"/>
    <use xlink:href="#DejaVuSans-6e" x="301.220703"/>
    <use xlink:href="#DejaVuSans-65" x="364.599609"/>
    <use xlink:href="#DejaVuSans-2d" x="426.123047"/>
    <use xlink:href="#DejaVuSans-74" x="462.207031"/>
    <use xlink:href="#DejaVuSans-6f" x="501.416016"/>
    <use xlink:href="#DejaVuSans-6e" x="562.597656"/>
    <use xlink:href="#DejaVuSans-65" x="625.976562"/>
   </g>
   <!-- tuid: 20240223-164103-691-166b57 -->
   <g transform="translate(113.548438 29.7555) scale(0.12 -0.12)">
    <defs>
     <path id="DejaVuSans-69" d="M 603 3500 
L 1178 3500 
L 1178 0 
L 603 0 
L 603 3500 
z
M 603 4863 
L 1178 4863 
L 1178 4134 
L 603 4134 
L 603 4863 
z
" transform="scale(0.015625)"/>
     <path id="DejaVuSans-62" d="M 3116 1747 
Q 3116 2381 2855 2742 
Q 2594 3103 2138 3103 
Q 1681 3103 1420 2742 
Q 1159 2381 1159 1747 
Q 1159 1113 1420 752 
Q 1681 391 2138 391 
Q 2594 391 2855 752 
Q 3116 1113 3116 1747 
z
M 1159 2969 
Q 1341 3281 1617 3432 
Q 1894 3584 2278 3584 
Q 2916 3584 3314 3078 
Q 3713 2572 3713 1747 
Q 3713 922 3314 415 
Q 2916 -91 2278 -91 
Q 1894 -91 1617 61 
Q 1341 213 1159 525 
L 1159 0 
L 581 0 
L 581 4863 
L 1159 4863 
L 1159 2969 
z
" transform="scale(0.015625)"/>
     <path id="DejaVuSans-37" d="M 525 4666 
L 3525 4666 
L 3525 4397 
L 1831 0 
L 1172 0 
L 2766 4134 
L 525 4134 
L 525 4666 
z
" transform="scale(0.015625)"/>
    </defs>
    <use xlink:href="#DejaVuSans-74"/>
    <use xlink:href="#DejaVuSans-75" x="39.208984"/>
    <use xlink:href="#DejaVuSans-69" x="102.587891"/>
    <use xlink:href="#DejaVuSans-64" x="130.371094"/>
    <use xlink:href="#DejaVuSans-3a" x="193.847656"/>
    <use xlink:href="#DejaVuSans-20" x="227.539062"/>
    <use xlink:href="#DejaVuSans-32" x="259.326172"/>
    <use xlink:href="#DejaVuSans-30" x="322.949219"/>
    <use xlink:href="#DejaVuSans-32" x="386.572266"/>
    <use xlink:href="#DejaVuSans-34" x="450.195312"/>
    <use xlink:href="#DejaVuSans-30" x="513.818359"/>
    <use xlink:href="#DejaVuSans-32" x="577.441406"/>
    <use xlink:href="#DejaVuSans-32" x="641.064453"/>
    <use xlink:href="#DejaVuSans-33" x="704.6875"/>
    <use xlink:href="#DejaVuSans-2d" x="768.310547"/>
    <use xlink:href="#DejaVuSans-31" x="804.394531"/>
    <use xlink:href="#DejaVuSans-36" x="868.017578"/>
    <use xlink:href="#DejaVuSans-34" x="931.640625"/>
    <use xlink:href="#DejaVuSans-31" x="995.263672"/>
    <use xlink:href="#DejaVuSans-30" x="1058.886719"/>
    <use xlink:href="#DejaVuSans-33" x="1122.509766"/>
    <use xlink:href="#DejaVuSans-2d" x="1186.132812"/>
    <use xlink:href="#DejaVuSans-36" x="1222.216797"/>
    <use xlink:href="#DejaVuSans-39" x="1285.839844"/>
    <use xlink:href="#DejaVuSans-31" x="1349.462891"/>
    <use xlink:href="#DejaVuSans-2d" x="1413.085938"/>
    <use xlink:href="#DejaVuSans-31" x="1449.169922"/>
    <use xlink:href="#DejaVuSans-36" x="1512.792969"/>
    <use xlink:href="#DejaVuSans-36" x="1576.416016"/>
    <use xlink:href="#DejaVuSans-62" x="1640.039062"/>
    <use xlink:href="#DejaVuSans-35" x="1703.515625"/>
    <use xlink:href="#DejaVuSans-37" x="1767.138672"/>
   </g>
  </g>
 </g>
 <defs>
  <clipPath id="p9c8e0ab789">
   <rect x="50.595313" y="41.76" width="357.12" height="120.96"/>
  </clipPath>
  <clipPath id="p9eca90b74a">
   <rect x="50.595313" y="186.912" width="357.12" height="120.96"/>
  </clipPath>
 </defs>
</svg>
