<?xml version="1.0" encoding="utf-8" standalone="no"?>
<!DOCTYPE svg PUBLIC "-//W3C//DTD SVG 1.1//EN"
  "http://www.w3.org/Graphics/SVG/1.1/DTD/svg11.dtd">
<svg xmlns:xlink="http://www.w3.org/1999/xlink" width="577.771312pt" height="345.42825pt" viewBox="0 0 577.771312 345.42825" xmlns="http://www.w3.org/2000/svg" version="1.1">
 <metadata>
  <rdf:RDF xmlns:dc="http://purl.org/dc/elements/1.1/" xmlns:cc="http://creativecommons.org/ns#" xmlns:rdf="http://www.w3.org/1999/02/22-rdf-syntax-ns#">
   <cc:Work>
    <dc:type rdf:resource="http://purl.org/dc/dcmitype/StillImage"/>
    <dc:date>2024-02-21T09:00:56.520292</dc:date>
    <dc:format>image/svg+xml</dc:format>
    <dc:creator>
     <cc:Agent>
      <dc:title>Matplotlib v3.8.2, https://matplotlib.org/</dc:title>
     </cc:Agent>
    </dc:creator>
   </cc:Work>
  </rdf:RDF>
 </metadata>
 <defs>
  <style type="text/css">*{stroke-linejoin: round; stroke-linecap: butt}</style>
 </defs>
 <g id="figure_1">
  <g id="patch_1">
   <path d="M 0 345.42825 
L 577.771312 345.42825 
L 577.771312 -0 
L 0 -0 
L 0 345.42825 
z
" style="fill: none; opacity: 0"/>
  </g>
  <g id="axes_1">
   <g id="patch_2">
    <path d="M 50.595313 162.72 
L 407.715312 162.72 
L 407.715312 41.76 
L 50.595313 41.76 
z
" style="fill: #ffffff"/>
   </g>
   <g id="matplotlib.axis_1">
    <g id="xtick_1">
     <g id="line2d_1">
      <defs>
       <path id="mf3b00b9777" d="M 0 0 
L 0 3.5 
" style="stroke: #000000; stroke-width: 0.8"/>
      </defs>
      <g>
       <use xlink:href="#mf3b00b9777" x="99.293494" y="162.72" style="stroke: #000000; stroke-width: 0.8"/>
      </g>
     </g>
    </g>
    <g id="xtick_2">
     <g id="line2d_2">
      <g>
       <use xlink:href="#mf3b00b9777" x="164.224403" y="162.72" style="stroke: #000000; stroke-width: 0.8"/>
      </g>
     </g>
    </g>
    <g id="xtick_3">
     <g id="line2d_3">
      <g>
       <use xlink:href="#mf3b00b9777" x="229.155313" y="162.72" style="stroke: #000000; stroke-width: 0.8"/>
      </g>
     </g>
    </g>
    <g id="xtick_4">
     <g id="line2d_4">
      <g>
       <use xlink:href="#mf3b00b9777" x="294.086222" y="162.72" style="stroke: #000000; stroke-width: 0.8"/>
      </g>
     </g>
    </g>
    <g id="xtick_5">
     <g id="line2d_5">
      <g>
       <use xlink:href="#mf3b00b9777" x="359.017131" y="162.72" style="stroke: #000000; stroke-width: 0.8"/>
      </g>
     </g>
    </g>
   </g>
   <g id="matplotlib.axis_2">
    <g id="ytick_1">
     <g id="line2d_6">
      <defs>
       <path id="m16794f8b75" d="M 0 0 
L -3.5 0 
" style="stroke: #000000; stroke-width: 0.8"/>
      </defs>
      <g>
       <use xlink:href="#m16794f8b75" x="50.595313" y="123.763329" style="stroke: #000000; stroke-width: 0.8"/>
      </g>
     </g>
     <g id="text_1">
      <!-- 20 -->
      <g transform="translate(30.870313 127.562548) scale(0.1 -0.1)">
       <defs>
        <path id="DejaVuSans-32" d="M 1228 531 
L 3431 531 
L 3431 0 
L 469 0 
L 469 531 
Q 828 903 1448 1529 
Q 2069 2156 2228 2338 
Q 2531 2678 2651 2914 
Q 2772 3150 2772 3378 
Q 2772 3750 2511 3984 
Q 2250 4219 1831 4219 
Q 1534 4219 1204 4116 
Q 875 4013 500 3803 
L 500 4441 
Q 881 4594 1212 4672 
Q 1544 4750 1819 4750 
Q 2544 4750 2975 4387 
Q 3406 4025 3406 3419 
Q 3406 3131 3298 2873 
Q 3191 2616 2906 2266 
Q 2828 2175 2409 1742 
Q 1991 1309 1228 531 
z
" transform="scale(0.015625)"/>
        <path id="DejaVuSans-30" d="M 2034 4250 
Q 1547 4250 1301 3770 
Q 1056 3291 1056 2328 
Q 1056 1369 1301 889 
Q 1547 409 2034 409 
Q 2525 409 2770 889 
Q 3016 1369 3016 2328 
Q 3016 3291 2770 3770 
Q 2525 4250 2034 4250 
z
M 2034 4750 
Q 2819 4750 3233 4129 
Q 3647 3509 3647 2328 
Q 3647 1150 3233 529 
Q 2819 -91 2034 -91 
Q 1250 -91 836 529 
Q 422 1150 422 2328 
Q 422 3509 836 4129 
Q 1250 4750 2034 4750 
z
" transform="scale(0.015625)"/>
       </defs>
       <use xlink:href="#DejaVuSans-32"/>
       <use xlink:href="#DejaVuSans-30" x="63.623047"/>
      </g>
     </g>
    </g>
    <g id="ytick_2">
     <g id="line2d_7">
      <g>
       <use xlink:href="#m16794f8b75" x="50.595313" y="84.450873" style="stroke: #000000; stroke-width: 0.8"/>
      </g>
     </g>
     <g id="text_2">
      <!-- 30 -->
      <g transform="translate(30.870313 88.250092) scale(0.1 -0.1)">
       <defs>
        <path id="DejaVuSans-33" d="M 2597 2516 
Q 3050 2419 3304 2112 
Q 3559 1806 3559 1356 
Q 3559 666 3084 287 
Q 2609 -91 1734 -91 
Q 1441 -91 1130 -33 
Q 819 25 488 141 
L 488 750 
Q 750 597 1062 519 
Q 1375 441 1716 441 
Q 2309 441 2620 675 
Q 2931 909 2931 1356 
Q 2931 1769 2642 2001 
Q 2353 2234 1838 2234 
L 1294 2234 
L 1294 2753 
L 1863 2753 
Q 2328 2753 2575 2939 
Q 2822 3125 2822 3475 
Q 2822 3834 2567 4026 
Q 2313 4219 1838 4219 
Q 1578 4219 1281 4162 
Q 984 4106 628 3988 
L 628 4550 
Q 988 4650 1302 4700 
Q 1616 4750 1894 4750 
Q 2613 4750 3031 4423 
Q 3450 4097 3450 3541 
Q 3450 3153 3228 2886 
Q 3006 2619 2597 2516 
z
" transform="scale(0.015625)"/>
       </defs>
       <use xlink:href="#DejaVuSans-33"/>
       <use xlink:href="#DejaVuSans-30" x="63.623047"/>
      </g>
     </g>
    </g>
    <g id="ytick_3">
     <g id="line2d_8">
      <g>
       <use xlink:href="#m16794f8b75" x="50.595313" y="45.138416" style="stroke: #000000; stroke-width: 0.8"/>
      </g>
     </g>
     <g id="text_3">
      <!-- 40 -->
      <g transform="translate(30.870313 48.937635) scale(0.1 -0.1)">
       <defs>
        <path id="DejaVuSans-34" d="M 2419 4116 
L 825 1625 
L 2419 1625 
L 2419 4116 
z
M 2253 4666 
L 3047 4666 
L 3047 1625 
L 3713 1625 
L 3713 1100 
L 3047 1100 
L 3047 0 
L 2419 0 
L 2419 1100 
L 313 1100 
L 313 1709 
L 2253 4666 
z
" transform="scale(0.015625)"/>
       </defs>
       <use xlink:href="#DejaVuSans-34"/>
       <use xlink:href="#DejaVuSans-30" x="63.623047"/>
      </g>
     </g>
    </g>
    <g id="text_4">
     <!-- $|S_{21}|$ [mV] -->
     <g transform="translate(24.470313 127.19) rotate(-90) scale(0.1 -0.1)">
      <defs>
       <path id="DejaVuSans-7c" d="M 1344 4891 
L 1344 -1509 
L 813 -1509 
L 813 4891 
L 1344 4891 
z
" transform="scale(0.015625)"/>
       <path id="DejaVuSans-Oblique-53" d="M 3859 4513 
L 3738 3897 
Q 3422 4066 3111 4152 
Q 2800 4238 2509 4238 
Q 1944 4238 1609 3991 
Q 1275 3744 1275 3334 
Q 1275 3109 1398 2989 
Q 1522 2869 2034 2731 
L 2413 2638 
Q 3053 2472 3303 2217 
Q 3553 1963 3553 1503 
Q 3553 797 2998 353 
Q 2444 -91 1538 -91 
Q 1166 -91 791 -17 
Q 416 56 38 206 
L 166 856 
Q 513 641 861 531 
Q 1209 422 1556 422 
Q 2147 422 2503 684 
Q 2859 947 2859 1369 
Q 2859 1650 2717 1795 
Q 2575 1941 2106 2059 
L 1728 2156 
Q 1081 2325 845 2545 
Q 609 2766 609 3163 
Q 609 3859 1145 4304 
Q 1681 4750 2541 4750 
Q 2875 4750 3203 4690 
Q 3531 4631 3859 4513 
z
" transform="scale(0.015625)"/>
       <path id="DejaVuSans-31" d="M 794 531 
L 1825 531 
L 1825 4091 
L 703 3866 
L 703 4441 
L 1819 4666 
L 2450 4666 
L 2450 531 
L 3481 531 
L 3481 0 
L 794 0 
L 794 531 
z
" transform="scale(0.015625)"/>
       <path id="DejaVuSans-20" transform="scale(0.015625)"/>
       <path id="DejaVuSans-5b" d="M 550 4863 
L 1875 4863 
L 1875 4416 
L 1125 4416 
L 1125 -397 
L 1875 -397 
L 1875 -844 
L 550 -844 
L 550 4863 
z
" transform="scale(0.015625)"/>
       <path id="DejaVuSans-6d" d="M 3328 2828 
Q 3544 3216 3844 3400 
Q 4144 3584 4550 3584 
Q 5097 3584 5394 3201 
Q 5691 2819 5691 2113 
L 5691 0 
L 5113 0 
L 5113 2094 
Q 5113 2597 4934 2840 
Q 4756 3084 4391 3084 
Q 3944 3084 3684 2787 
Q 3425 2491 3425 1978 
L 3425 0 
L 2847 0 
L 2847 2094 
Q 2847 2600 2669 2842 
Q 2491 3084 2119 3084 
Q 1678 3084 1418 2786 
Q 1159 2488 1159 1978 
L 1159 0 
L 581 0 
L 581 3500 
L 1159 3500 
L 1159 2956 
Q 1356 3278 1631 3431 
Q 1906 3584 2284 3584 
Q 2666 3584 2933 3390 
Q 3200 3197 3328 2828 
z
" transform="scale(0.015625)"/>
       <path id="DejaVuSans-56" d="M 1831 0 
L 50 4666 
L 709 4666 
L 2188 738 
L 3669 4666 
L 4325 4666 
L 2547 0 
L 1831 0 
z
" transform="scale(0.015625)"/>
       <path id="DejaVuSans-5d" d="M 1947 4863 
L 1947 -844 
L 622 -844 
L 622 -397 
L 1369 -397 
L 1369 4416 
L 622 4416 
L 622 4863 
L 1947 4863 
z
" transform="scale(0.015625)"/>
      </defs>
      <use xlink:href="#DejaVuSans-7c" transform="translate(0 0.578125)"/>
      <use xlink:href="#DejaVuSans-Oblique-53" transform="translate(33.691406 0.578125)"/>
      <use xlink:href="#DejaVuSans-32" transform="translate(97.167969 -15.828125) scale(0.7)"/>
      <use xlink:href="#DejaVuSans-31" transform="translate(141.704102 -15.828125) scale(0.7)"/>
      <use xlink:href="#DejaVuSans-7c" transform="translate(188.974609 0.578125)"/>
      <use xlink:href="#DejaVuSans-20" transform="translate(222.666016 0.578125)"/>
      <use xlink:href="#DejaVuSans-5b" transform="translate(254.453125 0.578125)"/>
      <use xlink:href="#DejaVuSans-6d" transform="translate(293.466797 0.578125)"/>
      <use xlink:href="#DejaVuSans-56" transform="translate(390.878906 0.578125)"/>
      <use xlink:href="#DejaVuSans-5d" transform="translate(459.287109 0.578125)"/>
     </g>
    </g>
   </g>
   <g id="line2d_9">
    <path d="M 66.82804 59.179406 
L 68.45947 58.902028 
L 70.0909 58.806781 
L 71.722329 59.033981 
L 73.353759 58.635366 
L 74.985189 58.601495 
L 76.616619 58.273974 
L 78.248049 58.342688 
L 81.510909 58.005042 
L 83.142339 58.109585 
L 84.773768 57.904795 
L 88.036628 57.700511 
L 91.299488 57.200221 
L 92.930918 57.464711 
L 94.562348 57.123456 
L 96.193778 57.029088 
L 99.456637 56.49959 
L 101.088067 56.656221 
L 102.719497 56.321297 
L 104.350927 56.41699 
L 105.982357 56.206621 
L 107.613787 55.856539 
L 109.245217 55.914014 
L 110.876646 55.747929 
L 112.508076 55.19273 
L 114.139506 55.280157 
L 115.770936 55.097812 
L 117.402366 54.592918 
L 119.033796 54.536158 
L 120.665226 54.801264 
L 122.296656 54.007678 
L 123.928085 53.91843 
L 128.822375 52.859801 
L 138.610954 52.037735 
L 140.242384 51.111348 
L 141.873814 51.967929 
L 143.505244 50.523401 
L 145.136674 50.713739 
L 146.768104 50.111801 
L 148.399534 50.641027 
L 150.030963 50.287487 
L 151.662393 49.528985 
L 153.293823 50.480402 
L 154.925253 51.253169 
L 156.556683 53.72942 
L 158.188113 54.10918 
L 161.450973 63.396345 
L 163.082402 71.021353 
L 164.713832 80.638464 
L 167.976692 104.105798 
L 171.239552 130.391956 
L 172.870982 141.693442 
L 174.502412 151.154977 
L 176.133842 156.263083 
L 177.765271 157.221818 
L 179.396701 153.86101 
L 182.659561 143.321634 
L 184.290991 137.270296 
L 185.922421 130.30427 
L 187.553851 124.297441 
L 189.185281 120.580075 
L 190.81671 116.058728 
L 194.07957 109.781667 
L 195.711 107.471146 
L 197.34243 104.798557 
L 198.97386 102.551001 
L 200.60529 100.057557 
L 202.23672 98.517451 
L 203.868149 96.811121 
L 208.762439 92.942842 
L 210.393869 91.957981 
L 212.025299 90.747217 
L 213.656729 90.149105 
L 218.551018 87.617937 
L 220.182448 87.147672 
L 221.813878 86.303633 
L 225.076738 85.044584 
L 226.708168 84.708264 
L 229.971027 83.636575 
L 231.602457 83.292371 
L 233.233887 83.107109 
L 234.865317 82.270739 
L 236.496747 82.553272 
L 238.128177 82.176464 
L 239.759607 81.655556 
L 241.391037 81.482525 
L 243.022466 81.165635 
L 244.653896 80.709525 
L 246.285326 80.928459 
L 247.916756 80.51362 
L 249.548186 80.764199 
L 251.179616 80.130033 
L 254.442476 80.595089 
L 256.073905 80.149487 
L 257.705335 80.155923 
L 259.336765 80.364513 
L 260.968195 79.547855 
L 262.599625 79.669488 
L 265.862485 80.166173 
L 267.493915 80.192136 
L 269.125344 80.085259 
L 270.756774 80.522936 
L 272.388204 80.19519 
L 275.651064 79.807028 
L 277.282494 79.312197 
L 278.913924 78.55793 
L 285.439643 77.743194 
L 287.071073 77.689038 
L 288.702503 77.332066 
L 290.333933 77.194957 
L 293.596793 76.704882 
L 296.859652 76.418632 
L 298.491082 76.017877 
L 301.753942 75.715259 
L 303.385372 75.522209 
L 305.016802 75.070079 
L 306.648232 74.959391 
L 308.279662 74.541129 
L 309.911091 74.505215 
L 311.542521 74.169558 
L 313.173951 74.335012 
L 314.805381 73.878312 
L 319.699671 73.628008 
L 321.331101 73.247606 
L 324.59396 72.893344 
L 326.22539 72.899258 
L 329.48825 72.287425 
L 331.11968 72.405933 
L 332.75111 72.023957 
L 334.38254 72.19178 
L 336.013969 71.812245 
L 339.276829 71.692724 
L 340.908259 71.368335 
L 342.539689 71.376967 
L 344.171119 70.947786 
L 345.802549 70.882578 
L 347.433979 70.936448 
L 355.591128 70.250103 
L 358.853988 70.280436 
L 360.485418 69.821406 
L 362.116847 69.979808 
L 363.748277 69.842349 
L 365.379707 69.557244 
L 367.011137 69.54278 
L 368.642567 69.315596 
L 371.905427 69.258913 
L 373.536857 69.12648 
L 375.168286 69.170935 
L 381.694006 68.594615 
L 383.325436 68.879001 
L 384.956866 68.546208 
L 388.219725 68.654581 
L 389.851155 68.433854 
L 391.482585 68.481681 
L 391.482585 68.481681 
" clip-path="url(#pe941a410db)" style="fill: none; stroke: #1f77b4; stroke-width: 1.5; stroke-linecap: square"/>
    <defs>
     <path id="m725c44f85d" d="M 0 1.5 
C 0.397805 1.5 0.77937 1.341951 1.06066 1.06066 
C 1.341951 0.77937 1.5 0.397805 1.5 0 
C 1.5 -0.397805 1.341951 -0.77937 1.06066 -1.06066 
C 0.77937 -1.341951 0.397805 -1.5 0 -1.5 
C -0.397805 -1.5 -0.77937 -1.341951 -1.06066 -1.06066 
C -1.341951 -0.77937 -1.5 -0.397805 -1.5 0 
C -1.5 0.397805 -1.341951 0.77937 -1.06066 1.06066 
C -0.77937 1.341951 -0.397805 1.5 0 1.5 
z
" style="stroke: #1f77b4"/>
    </defs>
    <g clip-path="url(#pe941a410db)">
     <use xlink:href="#m725c44f85d" x="66.82804" y="59.179406" style="fill: #1f77b4; stroke: #1f77b4"/>
     <use xlink:href="#m725c44f85d" x="68.45947" y="58.902028" style="fill: #1f77b4; stroke: #1f77b4"/>
     <use xlink:href="#m725c44f85d" x="70.0909" y="58.806781" style="fill: #1f77b4; stroke: #1f77b4"/>
     <use xlink:href="#m725c44f85d" x="71.722329" y="59.033981" style="fill: #1f77b4; stroke: #1f77b4"/>
     <use xlink:href="#m725c44f85d" x="73.353759" y="58.635366" style="fill: #1f77b4; stroke: #1f77b4"/>
     <use xlink:href="#m725c44f85d" x="74.985189" y="58.601495" style="fill: #1f77b4; stroke: #1f77b4"/>
     <use xlink:href="#m725c44f85d" x="76.616619" y="58.273974" style="fill: #1f77b4; stroke: #1f77b4"/>
     <use xlink:href="#m725c44f85d" x="78.248049" y="58.342688" style="fill: #1f77b4; stroke: #1f77b4"/>
     <use xlink:href="#m725c44f85d" x="79.879479" y="58.200478" style="fill: #1f77b4; stroke: #1f77b4"/>
     <use xlink:href="#m725c44f85d" x="81.510909" y="58.005042" style="fill: #1f77b4; stroke: #1f77b4"/>
     <use xlink:href="#m725c44f85d" x="83.142339" y="58.109585" style="fill: #1f77b4; stroke: #1f77b4"/>
     <use xlink:href="#m725c44f85d" x="84.773768" y="57.904795" style="fill: #1f77b4; stroke: #1f77b4"/>
     <use xlink:href="#m725c44f85d" x="86.405198" y="57.817113" style="fill: #1f77b4; stroke: #1f77b4"/>
     <use xlink:href="#m725c44f85d" x="88.036628" y="57.700511" style="fill: #1f77b4; stroke: #1f77b4"/>
     <use xlink:href="#m725c44f85d" x="89.668058" y="57.440873" style="fill: #1f77b4; stroke: #1f77b4"/>
     <use xlink:href="#m725c44f85d" x="91.299488" y="57.200221" style="fill: #1f77b4; stroke: #1f77b4"/>
     <use xlink:href="#m725c44f85d" x="92.930918" y="57.464711" style="fill: #1f77b4; stroke: #1f77b4"/>
     <use xlink:href="#m725c44f85d" x="94.562348" y="57.123456" style="fill: #1f77b4; stroke: #1f77b4"/>
     <use xlink:href="#m725c44f85d" x="96.193778" y="57.029088" style="fill: #1f77b4; stroke: #1f77b4"/>
     <use xlink:href="#m725c44f85d" x="97.825207" y="56.782661" style="fill: #1f77b4; stroke: #1f77b4"/>
     <use xlink:href="#m725c44f85d" x="99.456637" y="56.49959" style="fill: #1f77b4; stroke: #1f77b4"/>
     <use xlink:href="#m725c44f85d" x="101.088067" y="56.656221" style="fill: #1f77b4; stroke: #1f77b4"/>
     <use xlink:href="#m725c44f85d" x="102.719497" y="56.321297" style="fill: #1f77b4; stroke: #1f77b4"/>
     <use xlink:href="#m725c44f85d" x="104.350927" y="56.41699" style="fill: #1f77b4; stroke: #1f77b4"/>
     <use xlink:href="#m725c44f85d" x="105.982357" y="56.206621" style="fill: #1f77b4; stroke: #1f77b4"/>
     <use xlink:href="#m725c44f85d" x="107.613787" y="55.856539" style="fill: #1f77b4; stroke: #1f77b4"/>
     <use xlink:href="#m725c44f85d" x="109.245217" y="55.914014" style="fill: #1f77b4; stroke: #1f77b4"/>
     <use xlink:href="#m725c44f85d" x="110.876646" y="55.747929" style="fill: #1f77b4; stroke: #1f77b4"/>
     <use xlink:href="#m725c44f85d" x="112.508076" y="55.19273" style="fill: #1f77b4; stroke: #1f77b4"/>
     <use xlink:href="#m725c44f85d" x="114.139506" y="55.280157" style="fill: #1f77b4; stroke: #1f77b4"/>
     <use xlink:href="#m725c44f85d" x="115.770936" y="55.097812" style="fill: #1f77b4; stroke: #1f77b4"/>
     <use xlink:href="#m725c44f85d" x="117.402366" y="54.592918" style="fill: #1f77b4; stroke: #1f77b4"/>
     <use xlink:href="#m725c44f85d" x="119.033796" y="54.536158" style="fill: #1f77b4; stroke: #1f77b4"/>
     <use xlink:href="#m725c44f85d" x="120.665226" y="54.801264" style="fill: #1f77b4; stroke: #1f77b4"/>
     <use xlink:href="#m725c44f85d" x="122.296656" y="54.007678" style="fill: #1f77b4; stroke: #1f77b4"/>
     <use xlink:href="#m725c44f85d" x="123.928085" y="53.91843" style="fill: #1f77b4; stroke: #1f77b4"/>
     <use xlink:href="#m725c44f85d" x="125.559515" y="53.538255" style="fill: #1f77b4; stroke: #1f77b4"/>
     <use xlink:href="#m725c44f85d" x="127.190945" y="53.146424" style="fill: #1f77b4; stroke: #1f77b4"/>
     <use xlink:href="#m725c44f85d" x="128.822375" y="52.859801" style="fill: #1f77b4; stroke: #1f77b4"/>
     <use xlink:href="#m725c44f85d" x="130.453805" y="52.728408" style="fill: #1f77b4; stroke: #1f77b4"/>
     <use xlink:href="#m725c44f85d" x="132.085235" y="52.557903" style="fill: #1f77b4; stroke: #1f77b4"/>
     <use xlink:href="#m725c44f85d" x="133.716665" y="52.533368" style="fill: #1f77b4; stroke: #1f77b4"/>
     <use xlink:href="#m725c44f85d" x="135.348095" y="52.22556" style="fill: #1f77b4; stroke: #1f77b4"/>
     <use xlink:href="#m725c44f85d" x="136.979524" y="52.163474" style="fill: #1f77b4; stroke: #1f77b4"/>
     <use xlink:href="#m725c44f85d" x="138.610954" y="52.037735" style="fill: #1f77b4; stroke: #1f77b4"/>
     <use xlink:href="#m725c44f85d" x="140.242384" y="51.111348" style="fill: #1f77b4; stroke: #1f77b4"/>
     <use xlink:href="#m725c44f85d" x="141.873814" y="51.967929" style="fill: #1f77b4; stroke: #1f77b4"/>
     <use xlink:href="#m725c44f85d" x="143.505244" y="50.523401" style="fill: #1f77b4; stroke: #1f77b4"/>
     <use xlink:href="#m725c44f85d" x="145.136674" y="50.713739" style="fill: #1f77b4; stroke: #1f77b4"/>
     <use xlink:href="#m725c44f85d" x="146.768104" y="50.111801" style="fill: #1f77b4; stroke: #1f77b4"/>
     <use xlink:href="#m725c44f85d" x="148.399534" y="50.641027" style="fill: #1f77b4; stroke: #1f77b4"/>
     <use xlink:href="#m725c44f85d" x="150.030963" y="50.287487" style="fill: #1f77b4; stroke: #1f77b4"/>
     <use xlink:href="#m725c44f85d" x="151.662393" y="49.528985" style="fill: #1f77b4; stroke: #1f77b4"/>
     <use xlink:href="#m725c44f85d" x="153.293823" y="50.480402" style="fill: #1f77b4; stroke: #1f77b4"/>
     <use xlink:href="#m725c44f85d" x="154.925253" y="51.253169" style="fill: #1f77b4; stroke: #1f77b4"/>
     <use xlink:href="#m725c44f85d" x="156.556683" y="53.72942" style="fill: #1f77b4; stroke: #1f77b4"/>
     <use xlink:href="#m725c44f85d" x="158.188113" y="54.10918" style="fill: #1f77b4; stroke: #1f77b4"/>
     <use xlink:href="#m725c44f85d" x="159.819543" y="58.710563" style="fill: #1f77b4; stroke: #1f77b4"/>
     <use xlink:href="#m725c44f85d" x="161.450973" y="63.396345" style="fill: #1f77b4; stroke: #1f77b4"/>
     <use xlink:href="#m725c44f85d" x="163.082402" y="71.021353" style="fill: #1f77b4; stroke: #1f77b4"/>
     <use xlink:href="#m725c44f85d" x="164.713832" y="80.638464" style="fill: #1f77b4; stroke: #1f77b4"/>
     <use xlink:href="#m725c44f85d" x="166.345262" y="92.068835" style="fill: #1f77b4; stroke: #1f77b4"/>
     <use xlink:href="#m725c44f85d" x="167.976692" y="104.105798" style="fill: #1f77b4; stroke: #1f77b4"/>
     <use xlink:href="#m725c44f85d" x="169.608122" y="117.121407" style="fill: #1f77b4; stroke: #1f77b4"/>
     <use xlink:href="#m725c44f85d" x="171.239552" y="130.391956" style="fill: #1f77b4; stroke: #1f77b4"/>
     <use xlink:href="#m725c44f85d" x="172.870982" y="141.693442" style="fill: #1f77b4; stroke: #1f77b4"/>
     <use xlink:href="#m725c44f85d" x="174.502412" y="151.154977" style="fill: #1f77b4; stroke: #1f77b4"/>
     <use xlink:href="#m725c44f85d" x="176.133842" y="156.263083" style="fill: #1f77b4; stroke: #1f77b4"/>
     <use xlink:href="#m725c44f85d" x="177.765271" y="157.221818" style="fill: #1f77b4; stroke: #1f77b4"/>
     <use xlink:href="#m725c44f85d" x="179.396701" y="153.86101" style="fill: #1f77b4; stroke: #1f77b4"/>
     <use xlink:href="#m725c44f85d" x="181.028131" y="148.758172" style="fill: #1f77b4; stroke: #1f77b4"/>
     <use xlink:href="#m725c44f85d" x="182.659561" y="143.321634" style="fill: #1f77b4; stroke: #1f77b4"/>
     <use xlink:href="#m725c44f85d" x="184.290991" y="137.270296" style="fill: #1f77b4; stroke: #1f77b4"/>
     <use xlink:href="#m725c44f85d" x="185.922421" y="130.30427" style="fill: #1f77b4; stroke: #1f77b4"/>
     <use xlink:href="#m725c44f85d" x="187.553851" y="124.297441" style="fill: #1f77b4; stroke: #1f77b4"/>
     <use xlink:href="#m725c44f85d" x="189.185281" y="120.580075" style="fill: #1f77b4; stroke: #1f77b4"/>
     <use xlink:href="#m725c44f85d" x="190.81671" y="116.058728" style="fill: #1f77b4; stroke: #1f77b4"/>
     <use xlink:href="#m725c44f85d" x="192.44814" y="112.886665" style="fill: #1f77b4; stroke: #1f77b4"/>
     <use xlink:href="#m725c44f85d" x="194.07957" y="109.781667" style="fill: #1f77b4; stroke: #1f77b4"/>
     <use xlink:href="#m725c44f85d" x="195.711" y="107.471146" style="fill: #1f77b4; stroke: #1f77b4"/>
     <use xlink:href="#m725c44f85d" x="197.34243" y="104.798557" style="fill: #1f77b4; stroke: #1f77b4"/>
     <use xlink:href="#m725c44f85d" x="198.97386" y="102.551001" style="fill: #1f77b4; stroke: #1f77b4"/>
     <use xlink:href="#m725c44f85d" x="200.60529" y="100.057557" style="fill: #1f77b4; stroke: #1f77b4"/>
     <use xlink:href="#m725c44f85d" x="202.23672" y="98.517451" style="fill: #1f77b4; stroke: #1f77b4"/>
     <use xlink:href="#m725c44f85d" x="203.868149" y="96.811121" style="fill: #1f77b4; stroke: #1f77b4"/>
     <use xlink:href="#m725c44f85d" x="205.499579" y="95.490909" style="fill: #1f77b4; stroke: #1f77b4"/>
     <use xlink:href="#m725c44f85d" x="207.131009" y="94.27803" style="fill: #1f77b4; stroke: #1f77b4"/>
     <use xlink:href="#m725c44f85d" x="208.762439" y="92.942842" style="fill: #1f77b4; stroke: #1f77b4"/>
     <use xlink:href="#m725c44f85d" x="210.393869" y="91.957981" style="fill: #1f77b4; stroke: #1f77b4"/>
     <use xlink:href="#m725c44f85d" x="212.025299" y="90.747217" style="fill: #1f77b4; stroke: #1f77b4"/>
     <use xlink:href="#m725c44f85d" x="213.656729" y="90.149105" style="fill: #1f77b4; stroke: #1f77b4"/>
     <use xlink:href="#m725c44f85d" x="215.288159" y="89.266177" style="fill: #1f77b4; stroke: #1f77b4"/>
     <use xlink:href="#m725c44f85d" x="216.919588" y="88.263486" style="fill: #1f77b4; stroke: #1f77b4"/>
     <use xlink:href="#m725c44f85d" x="218.551018" y="87.617937" style="fill: #1f77b4; stroke: #1f77b4"/>
     <use xlink:href="#m725c44f85d" x="220.182448" y="87.147672" style="fill: #1f77b4; stroke: #1f77b4"/>
     <use xlink:href="#m725c44f85d" x="221.813878" y="86.303633" style="fill: #1f77b4; stroke: #1f77b4"/>
     <use xlink:href="#m725c44f85d" x="223.445308" y="85.617336" style="fill: #1f77b4; stroke: #1f77b4"/>
     <use xlink:href="#m725c44f85d" x="225.076738" y="85.044584" style="fill: #1f77b4; stroke: #1f77b4"/>
     <use xlink:href="#m725c44f85d" x="226.708168" y="84.708264" style="fill: #1f77b4; stroke: #1f77b4"/>
     <use xlink:href="#m725c44f85d" x="228.339598" y="84.117395" style="fill: #1f77b4; stroke: #1f77b4"/>
     <use xlink:href="#m725c44f85d" x="229.971027" y="83.636575" style="fill: #1f77b4; stroke: #1f77b4"/>
     <use xlink:href="#m725c44f85d" x="231.602457" y="83.292371" style="fill: #1f77b4; stroke: #1f77b4"/>
     <use xlink:href="#m725c44f85d" x="233.233887" y="83.107109" style="fill: #1f77b4; stroke: #1f77b4"/>
     <use xlink:href="#m725c44f85d" x="234.865317" y="82.270739" style="fill: #1f77b4; stroke: #1f77b4"/>
     <use xlink:href="#m725c44f85d" x="236.496747" y="82.553272" style="fill: #1f77b4; stroke: #1f77b4"/>
     <use xlink:href="#m725c44f85d" x="238.128177" y="82.176464" style="fill: #1f77b4; stroke: #1f77b4"/>
     <use xlink:href="#m725c44f85d" x="239.759607" y="81.655556" style="fill: #1f77b4; stroke: #1f77b4"/>
     <use xlink:href="#m725c44f85d" x="241.391037" y="81.482525" style="fill: #1f77b4; stroke: #1f77b4"/>
     <use xlink:href="#m725c44f85d" x="243.022466" y="81.165635" style="fill: #1f77b4; stroke: #1f77b4"/>
     <use xlink:href="#m725c44f85d" x="244.653896" y="80.709525" style="fill: #1f77b4; stroke: #1f77b4"/>
     <use xlink:href="#m725c44f85d" x="246.285326" y="80.928459" style="fill: #1f77b4; stroke: #1f77b4"/>
     <use xlink:href="#m725c44f85d" x="247.916756" y="80.51362" style="fill: #1f77b4; stroke: #1f77b4"/>
     <use xlink:href="#m725c44f85d" x="249.548186" y="80.764199" style="fill: #1f77b4; stroke: #1f77b4"/>
     <use xlink:href="#m725c44f85d" x="251.179616" y="80.130033" style="fill: #1f77b4; stroke: #1f77b4"/>
     <use xlink:href="#m725c44f85d" x="252.811046" y="80.389393" style="fill: #1f77b4; stroke: #1f77b4"/>
     <use xlink:href="#m725c44f85d" x="254.442476" y="80.595089" style="fill: #1f77b4; stroke: #1f77b4"/>
     <use xlink:href="#m725c44f85d" x="256.073905" y="80.149487" style="fill: #1f77b4; stroke: #1f77b4"/>
     <use xlink:href="#m725c44f85d" x="257.705335" y="80.155923" style="fill: #1f77b4; stroke: #1f77b4"/>
     <use xlink:href="#m725c44f85d" x="259.336765" y="80.364513" style="fill: #1f77b4; stroke: #1f77b4"/>
     <use xlink:href="#m725c44f85d" x="260.968195" y="79.547855" style="fill: #1f77b4; stroke: #1f77b4"/>
     <use xlink:href="#m725c44f85d" x="262.599625" y="79.669488" style="fill: #1f77b4; stroke: #1f77b4"/>
     <use xlink:href="#m725c44f85d" x="264.231055" y="79.938342" style="fill: #1f77b4; stroke: #1f77b4"/>
     <use xlink:href="#m725c44f85d" x="265.862485" y="80.166173" style="fill: #1f77b4; stroke: #1f77b4"/>
     <use xlink:href="#m725c44f85d" x="267.493915" y="80.192136" style="fill: #1f77b4; stroke: #1f77b4"/>
     <use xlink:href="#m725c44f85d" x="269.125344" y="80.085259" style="fill: #1f77b4; stroke: #1f77b4"/>
     <use xlink:href="#m725c44f85d" x="270.756774" y="80.522936" style="fill: #1f77b4; stroke: #1f77b4"/>
     <use xlink:href="#m725c44f85d" x="272.388204" y="80.19519" style="fill: #1f77b4; stroke: #1f77b4"/>
     <use xlink:href="#m725c44f85d" x="274.019634" y="79.988708" style="fill: #1f77b4; stroke: #1f77b4"/>
     <use xlink:href="#m725c44f85d" x="275.651064" y="79.807028" style="fill: #1f77b4; stroke: #1f77b4"/>
     <use xlink:href="#m725c44f85d" x="277.282494" y="79.312197" style="fill: #1f77b4; stroke: #1f77b4"/>
     <use xlink:href="#m725c44f85d" x="278.913924" y="78.55793" style="fill: #1f77b4; stroke: #1f77b4"/>
     <use xlink:href="#m725c44f85d" x="280.545354" y="78.355566" style="fill: #1f77b4; stroke: #1f77b4"/>
     <use xlink:href="#m725c44f85d" x="282.176783" y="78.123474" style="fill: #1f77b4; stroke: #1f77b4"/>
     <use xlink:href="#m725c44f85d" x="283.808213" y="78.049356" style="fill: #1f77b4; stroke: #1f77b4"/>
     <use xlink:href="#m725c44f85d" x="285.439643" y="77.743194" style="fill: #1f77b4; stroke: #1f77b4"/>
     <use xlink:href="#m725c44f85d" x="287.071073" y="77.689038" style="fill: #1f77b4; stroke: #1f77b4"/>
     <use xlink:href="#m725c44f85d" x="288.702503" y="77.332066" style="fill: #1f77b4; stroke: #1f77b4"/>
     <use xlink:href="#m725c44f85d" x="290.333933" y="77.194957" style="fill: #1f77b4; stroke: #1f77b4"/>
     <use xlink:href="#m725c44f85d" x="291.965363" y="76.912301" style="fill: #1f77b4; stroke: #1f77b4"/>
     <use xlink:href="#m725c44f85d" x="293.596793" y="76.704882" style="fill: #1f77b4; stroke: #1f77b4"/>
     <use xlink:href="#m725c44f85d" x="295.228223" y="76.517288" style="fill: #1f77b4; stroke: #1f77b4"/>
     <use xlink:href="#m725c44f85d" x="296.859652" y="76.418632" style="fill: #1f77b4; stroke: #1f77b4"/>
     <use xlink:href="#m725c44f85d" x="298.491082" y="76.017877" style="fill: #1f77b4; stroke: #1f77b4"/>
     <use xlink:href="#m725c44f85d" x="300.122512" y="75.912688" style="fill: #1f77b4; stroke: #1f77b4"/>
     <use xlink:href="#m725c44f85d" x="301.753942" y="75.715259" style="fill: #1f77b4; stroke: #1f77b4"/>
     <use xlink:href="#m725c44f85d" x="303.385372" y="75.522209" style="fill: #1f77b4; stroke: #1f77b4"/>
     <use xlink:href="#m725c44f85d" x="305.016802" y="75.070079" style="fill: #1f77b4; stroke: #1f77b4"/>
     <use xlink:href="#m725c44f85d" x="306.648232" y="74.959391" style="fill: #1f77b4; stroke: #1f77b4"/>
     <use xlink:href="#m725c44f85d" x="308.279662" y="74.541129" style="fill: #1f77b4; stroke: #1f77b4"/>
     <use xlink:href="#m725c44f85d" x="309.911091" y="74.505215" style="fill: #1f77b4; stroke: #1f77b4"/>
     <use xlink:href="#m725c44f85d" x="311.542521" y="74.169558" style="fill: #1f77b4; stroke: #1f77b4"/>
     <use xlink:href="#m725c44f85d" x="313.173951" y="74.335012" style="fill: #1f77b4; stroke: #1f77b4"/>
     <use xlink:href="#m725c44f85d" x="314.805381" y="73.878312" style="fill: #1f77b4; stroke: #1f77b4"/>
     <use xlink:href="#m725c44f85d" x="316.436811" y="73.759859" style="fill: #1f77b4; stroke: #1f77b4"/>
     <use xlink:href="#m725c44f85d" x="318.068241" y="73.62838" style="fill: #1f77b4; stroke: #1f77b4"/>
     <use xlink:href="#m725c44f85d" x="319.699671" y="73.628008" style="fill: #1f77b4; stroke: #1f77b4"/>
     <use xlink:href="#m725c44f85d" x="321.331101" y="73.247606" style="fill: #1f77b4; stroke: #1f77b4"/>
     <use xlink:href="#m725c44f85d" x="322.96253" y="73.030221" style="fill: #1f77b4; stroke: #1f77b4"/>
     <use xlink:href="#m725c44f85d" x="324.59396" y="72.893344" style="fill: #1f77b4; stroke: #1f77b4"/>
     <use xlink:href="#m725c44f85d" x="326.22539" y="72.899258" style="fill: #1f77b4; stroke: #1f77b4"/>
     <use xlink:href="#m725c44f85d" x="327.85682" y="72.541157" style="fill: #1f77b4; stroke: #1f77b4"/>
     <use xlink:href="#m725c44f85d" x="329.48825" y="72.287425" style="fill: #1f77b4; stroke: #1f77b4"/>
     <use xlink:href="#m725c44f85d" x="331.11968" y="72.405933" style="fill: #1f77b4; stroke: #1f77b4"/>
     <use xlink:href="#m725c44f85d" x="332.75111" y="72.023957" style="fill: #1f77b4; stroke: #1f77b4"/>
     <use xlink:href="#m725c44f85d" x="334.38254" y="72.19178" style="fill: #1f77b4; stroke: #1f77b4"/>
     <use xlink:href="#m725c44f85d" x="336.013969" y="71.812245" style="fill: #1f77b4; stroke: #1f77b4"/>
     <use xlink:href="#m725c44f85d" x="337.645399" y="71.731594" style="fill: #1f77b4; stroke: #1f77b4"/>
     <use xlink:href="#m725c44f85d" x="339.276829" y="71.692724" style="fill: #1f77b4; stroke: #1f77b4"/>
     <use xlink:href="#m725c44f85d" x="340.908259" y="71.368335" style="fill: #1f77b4; stroke: #1f77b4"/>
     <use xlink:href="#m725c44f85d" x="342.539689" y="71.376967" style="fill: #1f77b4; stroke: #1f77b4"/>
     <use xlink:href="#m725c44f85d" x="344.171119" y="70.947786" style="fill: #1f77b4; stroke: #1f77b4"/>
     <use xlink:href="#m725c44f85d" x="345.802549" y="70.882578" style="fill: #1f77b4; stroke: #1f77b4"/>
     <use xlink:href="#m725c44f85d" x="347.433979" y="70.936448" style="fill: #1f77b4; stroke: #1f77b4"/>
     <use xlink:href="#m725c44f85d" x="349.065408" y="70.801196" style="fill: #1f77b4; stroke: #1f77b4"/>
     <use xlink:href="#m725c44f85d" x="350.696838" y="70.581164" style="fill: #1f77b4; stroke: #1f77b4"/>
     <use xlink:href="#m725c44f85d" x="352.328268" y="70.477256" style="fill: #1f77b4; stroke: #1f77b4"/>
     <use xlink:href="#m725c44f85d" x="353.959698" y="70.404654" style="fill: #1f77b4; stroke: #1f77b4"/>
     <use xlink:href="#m725c44f85d" x="355.591128" y="70.250103" style="fill: #1f77b4; stroke: #1f77b4"/>
     <use xlink:href="#m725c44f85d" x="357.222558" y="70.312954" style="fill: #1f77b4; stroke: #1f77b4"/>
     <use xlink:href="#m725c44f85d" x="358.853988" y="70.280436" style="fill: #1f77b4; stroke: #1f77b4"/>
     <use xlink:href="#m725c44f85d" x="360.485418" y="69.821406" style="fill: #1f77b4; stroke: #1f77b4"/>
     <use xlink:href="#m725c44f85d" x="362.116847" y="69.979808" style="fill: #1f77b4; stroke: #1f77b4"/>
     <use xlink:href="#m725c44f85d" x="363.748277" y="69.842349" style="fill: #1f77b4; stroke: #1f77b4"/>
     <use xlink:href="#m725c44f85d" x="365.379707" y="69.557244" style="fill: #1f77b4; stroke: #1f77b4"/>
     <use xlink:href="#m725c44f85d" x="367.011137" y="69.54278" style="fill: #1f77b4; stroke: #1f77b4"/>
     <use xlink:href="#m725c44f85d" x="368.642567" y="69.315596" style="fill: #1f77b4; stroke: #1f77b4"/>
     <use xlink:href="#m725c44f85d" x="370.273997" y="69.295432" style="fill: #1f77b4; stroke: #1f77b4"/>
     <use xlink:href="#m725c44f85d" x="371.905427" y="69.258913" style="fill: #1f77b4; stroke: #1f77b4"/>
     <use xlink:href="#m725c44f85d" x="373.536857" y="69.12648" style="fill: #1f77b4; stroke: #1f77b4"/>
     <use xlink:href="#m725c44f85d" x="375.168286" y="69.170935" style="fill: #1f77b4; stroke: #1f77b4"/>
     <use xlink:href="#m725c44f85d" x="376.799716" y="69.04946" style="fill: #1f77b4; stroke: #1f77b4"/>
     <use xlink:href="#m725c44f85d" x="378.431146" y="68.953874" style="fill: #1f77b4; stroke: #1f77b4"/>
     <use xlink:href="#m725c44f85d" x="380.062576" y="68.91253" style="fill: #1f77b4; stroke: #1f77b4"/>
     <use xlink:href="#m725c44f85d" x="381.694006" y="68.594615" style="fill: #1f77b4; stroke: #1f77b4"/>
     <use xlink:href="#m725c44f85d" x="383.325436" y="68.879001" style="fill: #1f77b4; stroke: #1f77b4"/>
     <use xlink:href="#m725c44f85d" x="384.956866" y="68.546208" style="fill: #1f77b4; stroke: #1f77b4"/>
     <use xlink:href="#m725c44f85d" x="386.588296" y="68.645115" style="fill: #1f77b4; stroke: #1f77b4"/>
     <use xlink:href="#m725c44f85d" x="388.219725" y="68.654581" style="fill: #1f77b4; stroke: #1f77b4"/>
     <use xlink:href="#m725c44f85d" x="389.851155" y="68.433854" style="fill: #1f77b4; stroke: #1f77b4"/>
     <use xlink:href="#m725c44f85d" x="391.482585" y="68.481681" style="fill: #1f77b4; stroke: #1f77b4"/>
    </g>
   </g>
   <g id="line2d_10">
    <path d="M 66.82804 61.719683 
L 80.1522 60.765648 
L 91.526484 59.735785 
L 101.275869 58.632851 
L 109.725337 57.453292 
L 116.874887 56.241245 
L 123.374477 54.922636 
L 129.224109 53.52167 
L 135.07374 51.892847 
L 141.89831 49.743792 
L 147.422962 48.049933 
L 150.022798 47.469442 
L 151.972675 47.263738 
L 153.597573 47.346168 
L 154.897491 47.658687 
L 155.87243 48.088335 
L 156.847368 48.732819 
L 157.822307 49.645098 
L 158.797245 50.889066 
L 159.772184 52.540623 
L 160.747122 54.687973 
L 161.722061 57.430463 
L 162.697 60.874996 
L 163.671938 65.12889 
L 164.646877 70.288102 
L 165.946795 78.685591 
L 167.246713 88.820044 
L 168.871611 103.541985 
L 172.446385 137.380034 
L 173.421324 144.70188 
L 174.396263 150.250949 
L 175.046222 152.783234 
L 175.696181 154.330483 
L 176.02116 154.742366 
L 176.34614 154.925879 
L 176.671119 154.895291 
L 176.996099 154.6677 
L 177.646058 153.698552 
L 178.296017 152.177685 
L 179.270955 149.189513 
L 180.895853 143.285274 
L 183.820669 132.559522 
L 185.770546 126.250339 
L 187.720423 120.762097 
L 189.6703 116.034301 
L 191.620177 111.966545 
L 193.570055 108.456779 
L 195.519932 105.414084 
L 197.469809 102.761565 
L 199.744665 100.075939 
L 202.019522 97.753832 
L 204.294379 95.730799 
L 206.894215 93.71991 
L 209.494051 91.973242 
L 212.418867 90.266283 
L 215.668662 88.63036 
L 219.243437 87.08611 
L 223.143191 85.645296 
L 227.692905 84.218698 
L 232.567598 82.928765 
L 238.092249 81.69862 
L 244.26686 80.548777 
L 251.41641 79.44374 
L 259.865878 78.373051 
L 269.615263 77.371455 
L 280.989547 76.432718 
L 294.638687 75.539091 
L 310.887663 74.706657 
L 330.711414 73.923437 
L 355.084878 73.193221 
L 385.632954 72.511893 
L 391.482585 72.402764 
L 391.482585 72.402764 
" clip-path="url(#pe941a410db)" style="fill: none; stroke: #d62728; stroke-width: 1.5; stroke-linecap: square"/>
   </g>
   <g id="patch_3">
    <path d="M 50.595313 162.72 
L 50.595313 41.76 
" style="fill: none; stroke: #000000; stroke-width: 0.8; stroke-linejoin: miter; stroke-linecap: square"/>
   </g>
   <g id="patch_4">
    <path d="M 407.715312 162.72 
L 407.715312 41.76 
" style="fill: none; stroke: #000000; stroke-width: 0.8; stroke-linejoin: miter; stroke-linecap: square"/>
   </g>
   <g id="patch_5">
    <path d="M 50.595313 162.72 
L 407.715313 162.72 
" style="fill: none; stroke: #000000; stroke-width: 0.8; stroke-linejoin: miter; stroke-linecap: square"/>
   </g>
   <g id="patch_6">
    <path d="M 50.595313 41.76 
L 407.715313 41.76 
" style="fill: none; stroke: #000000; stroke-width: 0.8; stroke-linejoin: miter; stroke-linecap: square"/>
   </g>
   <g id="text_5">
    <g id="patch_7">
     <path d="M 425.571312 95.079562 
L 570.571312 95.079562 
Q 574.571312 95.079562 574.571312 91.079562 
L 574.571312 47.808 
Q 574.571312 43.808 570.571312 43.808 
L 425.571312 43.808 
Q 421.571312 43.808 421.571312 47.808 
L 421.571312 91.079562 
Q 421.571312 95.079562 425.571312 95.079562 
z
" style="fill: #ffffff; opacity: 0.5; stroke: #000000; stroke-linejoin: miter"/>
    </g>
    <!-- Summary -->
    <g transform="translate(425.571312 55.406437) scale(0.1 -0.1)">
     <defs>
      <path id="DejaVuSans-53" d="M 3425 4513 
L 3425 3897 
Q 3066 4069 2747 4153 
Q 2428 4238 2131 4238 
Q 1616 4238 1336 4038 
Q 1056 3838 1056 3469 
Q 1056 3159 1242 3001 
Q 1428 2844 1947 2747 
L 2328 2669 
Q 3034 2534 3370 2195 
Q 3706 1856 3706 1288 
Q 3706 609 3251 259 
Q 2797 -91 1919 -91 
Q 1588 -91 1214 -16 
Q 841 59 441 206 
L 441 856 
Q 825 641 1194 531 
Q 1563 422 1919 422 
Q 2459 422 2753 634 
Q 3047 847 3047 1241 
Q 3047 1584 2836 1778 
Q 2625 1972 2144 2069 
L 1759 2144 
Q 1053 2284 737 2584 
Q 422 2884 422 3419 
Q 422 4038 858 4394 
Q 1294 4750 2059 4750 
Q 2388 4750 2728 4690 
Q 3069 4631 3425 4513 
z
" transform="scale(0.015625)"/>
      <path id="DejaVuSans-75" d="M 544 1381 
L 544 3500 
L 1119 3500 
L 1119 1403 
Q 1119 906 1312 657 
Q 1506 409 1894 409 
Q 2359 409 2629 706 
Q 2900 1003 2900 1516 
L 2900 3500 
L 3475 3500 
L 3475 0 
L 2900 0 
L 2900 538 
Q 2691 219 2414 64 
Q 2138 -91 1772 -91 
Q 1169 -91 856 284 
Q 544 659 544 1381 
z
M 1991 3584 
L 1991 3584 
z
" transform="scale(0.015625)"/>
      <path id="DejaVuSans-61" d="M 2194 1759 
Q 1497 1759 1228 1600 
Q 959 1441 959 1056 
Q 959 750 1161 570 
Q 1363 391 1709 391 
Q 2188 391 2477 730 
Q 2766 1069 2766 1631 
L 2766 1759 
L 2194 1759 
z
M 3341 1997 
L 3341 0 
L 2766 0 
L 2766 531 
Q 2569 213 2275 61 
Q 1981 -91 1556 -91 
Q 1019 -91 701 211 
Q 384 513 384 1019 
Q 384 1609 779 1909 
Q 1175 2209 1959 2209 
L 2766 2209 
L 2766 2266 
Q 2766 2663 2505 2880 
Q 2244 3097 1772 3097 
Q 1472 3097 1187 3025 
Q 903 2953 641 2809 
L 641 3341 
Q 956 3463 1253 3523 
Q 1550 3584 1831 3584 
Q 2591 3584 2966 3190 
Q 3341 2797 3341 1997 
z
" transform="scale(0.015625)"/>
      <path id="DejaVuSans-72" d="M 2631 2963 
Q 2534 3019 2420 3045 
Q 2306 3072 2169 3072 
Q 1681 3072 1420 2755 
Q 1159 2438 1159 1844 
L 1159 0 
L 581 0 
L 581 3500 
L 1159 3500 
L 1159 2956 
Q 1341 3275 1631 3429 
Q 1922 3584 2338 3584 
Q 2397 3584 2469 3576 
Q 2541 3569 2628 3553 
L 2631 2963 
z
" transform="scale(0.015625)"/>
      <path id="DejaVuSans-79" d="M 2059 -325 
Q 1816 -950 1584 -1140 
Q 1353 -1331 966 -1331 
L 506 -1331 
L 506 -850 
L 844 -850 
Q 1081 -850 1212 -737 
Q 1344 -625 1503 -206 
L 1606 56 
L 191 3500 
L 800 3500 
L 1894 763 
L 2988 3500 
L 3597 3500 
L 2059 -325 
z
" transform="scale(0.015625)"/>
     </defs>
     <use xlink:href="#DejaVuSans-53"/>
     <use xlink:href="#DejaVuSans-75" x="63.476562"/>
     <use xlink:href="#DejaVuSans-6d" x="126.855469"/>
     <use xlink:href="#DejaVuSans-6d" x="224.267578"/>
     <use xlink:href="#DejaVuSans-61" x="321.679688"/>
     <use xlink:href="#DejaVuSans-72" x="382.958984"/>
     <use xlink:href="#DejaVuSans-79" x="424.072266"/>
    </g>
    <!-- $Q_I$: 20.63$\pm$0.62 k -->
    <g transform="translate(425.571312 66.60425) scale(0.1 -0.1)">
     <defs>
      <path id="DejaVuSans-Oblique-51" d="M 2309 -84 
Q 2275 -88 2237 -89 
Q 2200 -91 2125 -91 
Q 1250 -91 756 411 
Q 263 913 263 1797 
Q 263 2319 452 2844 
Q 641 3369 978 3788 
Q 1369 4269 1858 4509 
Q 2347 4750 2938 4750 
Q 3794 4750 4287 4245 
Q 4781 3741 4781 2869 
Q 4781 1928 4265 1147 
Q 3750 366 2919 44 
L 3553 -825 
L 2847 -825 
L 2309 -84 
z
M 2919 4238 
Q 2400 4238 2003 3986 
Q 1606 3734 1313 3219 
Q 1125 2891 1026 2522 
Q 928 2153 928 1778 
Q 928 1128 1239 775 
Q 1550 422 2119 422 
Q 2631 422 3032 676 
Q 3434 931 3719 1434 
Q 3909 1772 4009 2142 
Q 4109 2513 4109 2881 
Q 4109 3528 3796 3883 
Q 3484 4238 2919 4238 
z
" transform="scale(0.015625)"/>
      <path id="DejaVuSans-Oblique-49" d="M 1081 4666 
L 1716 4666 
L 806 0 
L 172 0 
L 1081 4666 
z
" transform="scale(0.015625)"/>
      <path id="DejaVuSans-3a" d="M 750 794 
L 1409 794 
L 1409 0 
L 750 0 
L 750 794 
z
M 750 3309 
L 1409 3309 
L 1409 2516 
L 750 2516 
L 750 3309 
z
" transform="scale(0.015625)"/>
      <path id="DejaVuSans-2e" d="M 684 794 
L 1344 794 
L 1344 0 
L 684 0 
L 684 794 
z
" transform="scale(0.015625)"/>
      <path id="DejaVuSans-36" d="M 2113 2584 
Q 1688 2584 1439 2293 
Q 1191 2003 1191 1497 
Q 1191 994 1439 701 
Q 1688 409 2113 409 
Q 2538 409 2786 701 
Q 3034 994 3034 1497 
Q 3034 2003 2786 2293 
Q 2538 2584 2113 2584 
z
M 3366 4563 
L 3366 3988 
Q 3128 4100 2886 4159 
Q 2644 4219 2406 4219 
Q 1781 4219 1451 3797 
Q 1122 3375 1075 2522 
Q 1259 2794 1537 2939 
Q 1816 3084 2150 3084 
Q 2853 3084 3261 2657 
Q 3669 2231 3669 1497 
Q 3669 778 3244 343 
Q 2819 -91 2113 -91 
Q 1303 -91 875 529 
Q 447 1150 447 2328 
Q 447 3434 972 4092 
Q 1497 4750 2381 4750 
Q 2619 4750 2861 4703 
Q 3103 4656 3366 4563 
z
" transform="scale(0.015625)"/>
      <path id="DejaVuSans-b1" d="M 2944 4013 
L 2944 2803 
L 4684 2803 
L 4684 2272 
L 2944 2272 
L 2944 1063 
L 2419 1063 
L 2419 2272 
L 678 2272 
L 678 2803 
L 2419 2803 
L 2419 4013 
L 2944 4013 
z
M 678 531 
L 4684 531 
L 4684 0 
L 678 0 
L 678 531 
z
" transform="scale(0.015625)"/>
      <path id="DejaVuSans-6b" d="M 581 4863 
L 1159 4863 
L 1159 1991 
L 2875 3500 
L 3609 3500 
L 1753 1863 
L 3688 0 
L 2938 0 
L 1159 1709 
L 1159 0 
L 581 0 
L 581 4863 
z
" transform="scale(0.015625)"/>
     </defs>
     <use xlink:href="#DejaVuSans-Oblique-51" transform="translate(0 0.015625)"/>
     <use xlink:href="#DejaVuSans-Oblique-49" transform="translate(78.710938 -16.390625) scale(0.7)"/>
     <use xlink:href="#DejaVuSans-3a" transform="translate(102.089844 0.015625)"/>
     <use xlink:href="#DejaVuSans-20" transform="translate(135.78125 0.015625)"/>
     <use xlink:href="#DejaVuSans-32" transform="translate(167.568359 0.015625)"/>
     <use xlink:href="#DejaVuSans-30" transform="translate(231.191406 0.015625)"/>
     <use xlink:href="#DejaVuSans-2e" transform="translate(294.814453 0.015625)"/>
     <use xlink:href="#DejaVuSans-36" transform="translate(326.601562 0.015625)"/>
     <use xlink:href="#DejaVuSans-33" transform="translate(390.224609 0.015625)"/>
     <use xlink:href="#DejaVuSans-b1" transform="translate(453.847656 0.015625)"/>
     <use xlink:href="#DejaVuSans-30" transform="translate(537.636719 0.015625)"/>
     <use xlink:href="#DejaVuSans-2e" transform="translate(601.259766 0.015625)"/>
     <use xlink:href="#DejaVuSans-36" transform="translate(633.046875 0.015625)"/>
     <use xlink:href="#DejaVuSans-32" transform="translate(696.669922 0.015625)"/>
     <use xlink:href="#DejaVuSans-20" transform="translate(760.292969 0.015625)"/>
     <use xlink:href="#DejaVuSans-6b" transform="translate(792.080078 0.015625)"/>
    </g>
    <!-- $Q_C$: 14.49$\pm$0.24 k -->
    <g transform="translate(425.571312 77.802062) scale(0.1 -0.1)">
     <defs>
      <path id="DejaVuSans-Oblique-43" d="M 4447 4306 
L 4319 3641 
Q 4019 3944 3683 4091 
Q 3347 4238 2956 4238 
Q 2422 4238 2017 3981 
Q 1613 3725 1319 3200 
Q 1131 2863 1032 2486 
Q 934 2109 934 1728 
Q 934 1091 1264 756 
Q 1594 422 2222 422 
Q 2656 422 3056 561 
Q 3456 700 3834 978 
L 3688 231 
Q 3316 72 2936 -9 
Q 2556 -91 2175 -91 
Q 1278 -91 773 396 
Q 269 884 269 1753 
Q 269 2309 461 2846 
Q 653 3384 1013 3828 
Q 1394 4300 1883 4525 
Q 2372 4750 3022 4750 
Q 3422 4750 3780 4639 
Q 4138 4528 4447 4306 
z
" transform="scale(0.015625)"/>
      <path id="DejaVuSans-39" d="M 703 97 
L 703 672 
Q 941 559 1184 500 
Q 1428 441 1663 441 
Q 2288 441 2617 861 
Q 2947 1281 2994 2138 
Q 2813 1869 2534 1725 
Q 2256 1581 1919 1581 
Q 1219 1581 811 2004 
Q 403 2428 403 3163 
Q 403 3881 828 4315 
Q 1253 4750 1959 4750 
Q 2769 4750 3195 4129 
Q 3622 3509 3622 2328 
Q 3622 1225 3098 567 
Q 2575 -91 1691 -91 
Q 1453 -91 1209 -44 
Q 966 3 703 97 
z
M 1959 2075 
Q 2384 2075 2632 2365 
Q 2881 2656 2881 3163 
Q 2881 3666 2632 3958 
Q 2384 4250 1959 4250 
Q 1534 4250 1286 3958 
Q 1038 3666 1038 3163 
Q 1038 2656 1286 2365 
Q 1534 2075 1959 2075 
z
" transform="scale(0.015625)"/>
     </defs>
     <use xlink:href="#DejaVuSans-Oblique-51" transform="translate(0 0.015625)"/>
     <use xlink:href="#DejaVuSans-Oblique-43" transform="translate(78.710938 -16.390625) scale(0.7)"/>
     <use xlink:href="#DejaVuSans-3a" transform="translate(130.322266 0.015625)"/>
     <use xlink:href="#DejaVuSans-20" transform="translate(164.013672 0.015625)"/>
     <use xlink:href="#DejaVuSans-31" transform="translate(195.800781 0.015625)"/>
     <use xlink:href="#DejaVuSans-34" transform="translate(259.423828 0.015625)"/>
     <use xlink:href="#DejaVuSans-2e" transform="translate(323.046875 0.015625)"/>
     <use xlink:href="#DejaVuSans-34" transform="translate(354.833984 0.015625)"/>
     <use xlink:href="#DejaVuSans-39" transform="translate(418.457031 0.015625)"/>
     <use xlink:href="#DejaVuSans-b1" transform="translate(482.080078 0.015625)"/>
     <use xlink:href="#DejaVuSans-30" transform="translate(565.869141 0.015625)"/>
     <use xlink:href="#DejaVuSans-2e" transform="translate(629.492188 0.015625)"/>
     <use xlink:href="#DejaVuSans-32" transform="translate(655.779297 0.015625)"/>
     <use xlink:href="#DejaVuSans-34" transform="translate(719.402344 0.015625)"/>
     <use xlink:href="#DejaVuSans-20" transform="translate(783.025391 0.015625)"/>
     <use xlink:href="#DejaVuSans-6b" transform="translate(814.8125 0.015625)"/>
    </g>
    <!-- $f_{res}$: 5.7181647$\pm$5.3e-06 GHz -->
    <g transform="translate(425.571312 88.999875) scale(0.1 -0.1)">
     <defs>
      <path id="DejaVuSans-Oblique-66" d="M 3059 4863 
L 2969 4384 
L 2419 4384 
Q 2106 4384 1964 4261 
Q 1822 4138 1753 3809 
L 1691 3500 
L 2638 3500 
L 2553 3053 
L 1606 3053 
L 1013 0 
L 434 0 
L 1031 3053 
L 481 3053 
L 563 3500 
L 1113 3500 
L 1159 3744 
Q 1278 4363 1576 4613 
Q 1875 4863 2516 4863 
L 3059 4863 
z
" transform="scale(0.015625)"/>
      <path id="DejaVuSans-Oblique-72" d="M 2853 2969 
Q 2766 3016 2653 3041 
Q 2541 3066 2413 3066 
Q 1953 3066 1609 2717 
Q 1266 2369 1153 1784 
L 800 0 
L 225 0 
L 909 3500 
L 1484 3500 
L 1375 2956 
Q 1603 3259 1920 3421 
Q 2238 3584 2597 3584 
Q 2691 3584 2781 3573 
Q 2872 3563 2963 3538 
L 2853 2969 
z
" transform="scale(0.015625)"/>
      <path id="DejaVuSans-Oblique-65" d="M 3078 2063 
Q 3088 2113 3092 2166 
Q 3097 2219 3097 2272 
Q 3097 2653 2873 2875 
Q 2650 3097 2266 3097 
Q 1838 3097 1509 2826 
Q 1181 2556 1013 2059 
L 3078 2063 
z
M 3578 1613 
L 903 1613 
Q 884 1494 878 1425 
Q 872 1356 872 1306 
Q 872 872 1139 634 
Q 1406 397 1894 397 
Q 2269 397 2603 481 
Q 2938 566 3225 728 
L 3116 159 
Q 2806 34 2476 -28 
Q 2147 -91 1806 -91 
Q 1078 -91 686 257 
Q 294 606 294 1247 
Q 294 1794 489 2264 
Q 684 2734 1063 3103 
Q 1306 3334 1642 3459 
Q 1978 3584 2356 3584 
Q 2950 3584 3301 3228 
Q 3653 2872 3653 2272 
Q 3653 2128 3634 1964 
Q 3616 1800 3578 1613 
z
" transform="scale(0.015625)"/>
      <path id="DejaVuSans-Oblique-73" d="M 3200 3397 
L 3091 2853 
Q 2863 2978 2609 3040 
Q 2356 3103 2088 3103 
Q 1634 3103 1373 2948 
Q 1113 2794 1113 2528 
Q 1113 2219 1719 2053 
Q 1766 2041 1788 2034 
L 1972 1978 
Q 2547 1819 2739 1644 
Q 2931 1469 2931 1166 
Q 2931 609 2489 259 
Q 2047 -91 1331 -91 
Q 1053 -91 747 -37 
Q 441 16 72 128 
L 184 722 
Q 500 559 806 475 
Q 1113 391 1394 391 
Q 1816 391 2080 572 
Q 2344 753 2344 1031 
Q 2344 1331 1650 1516 
L 1591 1531 
L 1394 1581 
Q 956 1697 753 1886 
Q 550 2075 550 2369 
Q 550 2928 970 3256 
Q 1391 3584 2113 3584 
Q 2397 3584 2667 3537 
Q 2938 3491 3200 3397 
z
" transform="scale(0.015625)"/>
      <path id="DejaVuSans-35" d="M 691 4666 
L 3169 4666 
L 3169 4134 
L 1269 4134 
L 1269 2991 
Q 1406 3038 1543 3061 
Q 1681 3084 1819 3084 
Q 2600 3084 3056 2656 
Q 3513 2228 3513 1497 
Q 3513 744 3044 326 
Q 2575 -91 1722 -91 
Q 1428 -91 1123 -41 
Q 819 9 494 109 
L 494 744 
Q 775 591 1075 516 
Q 1375 441 1709 441 
Q 2250 441 2565 725 
Q 2881 1009 2881 1497 
Q 2881 1984 2565 2268 
Q 2250 2553 1709 2553 
Q 1456 2553 1204 2497 
Q 953 2441 691 2322 
L 691 4666 
z
" transform="scale(0.015625)"/>
      <path id="DejaVuSans-37" d="M 525 4666 
L 3525 4666 
L 3525 4397 
L 1831 0 
L 1172 0 
L 2766 4134 
L 525 4134 
L 525 4666 
z
" transform="scale(0.015625)"/>
      <path id="DejaVuSans-38" d="M 2034 2216 
Q 1584 2216 1326 1975 
Q 1069 1734 1069 1313 
Q 1069 891 1326 650 
Q 1584 409 2034 409 
Q 2484 409 2743 651 
Q 3003 894 3003 1313 
Q 3003 1734 2745 1975 
Q 2488 2216 2034 2216 
z
M 1403 2484 
Q 997 2584 770 2862 
Q 544 3141 544 3541 
Q 544 4100 942 4425 
Q 1341 4750 2034 4750 
Q 2731 4750 3128 4425 
Q 3525 4100 3525 3541 
Q 3525 3141 3298 2862 
Q 3072 2584 2669 2484 
Q 3125 2378 3379 2068 
Q 3634 1759 3634 1313 
Q 3634 634 3220 271 
Q 2806 -91 2034 -91 
Q 1263 -91 848 271 
Q 434 634 434 1313 
Q 434 1759 690 2068 
Q 947 2378 1403 2484 
z
M 1172 3481 
Q 1172 3119 1398 2916 
Q 1625 2713 2034 2713 
Q 2441 2713 2670 2916 
Q 2900 3119 2900 3481 
Q 2900 3844 2670 4047 
Q 2441 4250 2034 4250 
Q 1625 4250 1398 4047 
Q 1172 3844 1172 3481 
z
" transform="scale(0.015625)"/>
      <path id="DejaVuSans-65" d="M 3597 1894 
L 3597 1613 
L 953 1613 
Q 991 1019 1311 708 
Q 1631 397 2203 397 
Q 2534 397 2845 478 
Q 3156 559 3463 722 
L 3463 178 
Q 3153 47 2828 -22 
Q 2503 -91 2169 -91 
Q 1331 -91 842 396 
Q 353 884 353 1716 
Q 353 2575 817 3079 
Q 1281 3584 2069 3584 
Q 2775 3584 3186 3129 
Q 3597 2675 3597 1894 
z
M 3022 2063 
Q 3016 2534 2758 2815 
Q 2500 3097 2075 3097 
Q 1594 3097 1305 2825 
Q 1016 2553 972 2059 
L 3022 2063 
z
" transform="scale(0.015625)"/>
      <path id="DejaVuSans-2d" d="M 313 2009 
L 1997 2009 
L 1997 1497 
L 313 1497 
L 313 2009 
z
" transform="scale(0.015625)"/>
      <path id="DejaVuSans-47" d="M 3809 666 
L 3809 1919 
L 2778 1919 
L 2778 2438 
L 4434 2438 
L 4434 434 
Q 4069 175 3628 42 
Q 3188 -91 2688 -91 
Q 1594 -91 976 548 
Q 359 1188 359 2328 
Q 359 3472 976 4111 
Q 1594 4750 2688 4750 
Q 3144 4750 3555 4637 
Q 3966 4525 4313 4306 
L 4313 3634 
Q 3963 3931 3569 4081 
Q 3175 4231 2741 4231 
Q 1884 4231 1454 3753 
Q 1025 3275 1025 2328 
Q 1025 1384 1454 906 
Q 1884 428 2741 428 
Q 3075 428 3337 486 
Q 3600 544 3809 666 
z
" transform="scale(0.015625)"/>
      <path id="DejaVuSans-48" d="M 628 4666 
L 1259 4666 
L 1259 2753 
L 3553 2753 
L 3553 4666 
L 4184 4666 
L 4184 0 
L 3553 0 
L 3553 2222 
L 1259 2222 
L 1259 0 
L 628 0 
L 628 4666 
z
" transform="scale(0.015625)"/>
      <path id="DejaVuSans-7a" d="M 353 3500 
L 3084 3500 
L 3084 2975 
L 922 459 
L 3084 459 
L 3084 0 
L 275 0 
L 275 525 
L 2438 3041 
L 353 3041 
L 353 3500 
z
" transform="scale(0.015625)"/>
     </defs>
     <use xlink:href="#DejaVuSans-Oblique-66" transform="translate(0 0.015625)"/>
     <use xlink:href="#DejaVuSans-Oblique-72" transform="translate(35.205078 -16.390625) scale(0.7)"/>
     <use xlink:href="#DejaVuSans-Oblique-65" transform="translate(63.984375 -16.390625) scale(0.7)"/>
     <use xlink:href="#DejaVuSans-Oblique-73" transform="translate(107.050781 -16.390625) scale(0.7)"/>
     <use xlink:href="#DejaVuSans-3a" transform="translate(146.254883 0.015625)"/>
     <use xlink:href="#DejaVuSans-20" transform="translate(179.946289 0.015625)"/>
     <use xlink:href="#DejaVuSans-35" transform="translate(211.733398 0.015625)"/>
     <use xlink:href="#DejaVuSans-2e" transform="translate(275.356445 0.015625)"/>
     <use xlink:href="#DejaVuSans-37" transform="translate(299.393555 0.015625)"/>
     <use xlink:href="#DejaVuSans-31" transform="translate(363.016602 0.015625)"/>
     <use xlink:href="#DejaVuSans-38" transform="translate(426.639648 0.015625)"/>
     <use xlink:href="#DejaVuSans-31" transform="translate(490.262695 0.015625)"/>
     <use xlink:href="#DejaVuSans-36" transform="translate(553.885742 0.015625)"/>
     <use xlink:href="#DejaVuSans-34" transform="translate(617.508789 0.015625)"/>
     <use xlink:href="#DejaVuSans-37" transform="translate(681.131836 0.015625)"/>
     <use xlink:href="#DejaVuSans-b1" transform="translate(744.754883 0.015625)"/>
     <use xlink:href="#DejaVuSans-35" transform="translate(828.543945 0.015625)"/>
     <use xlink:href="#DejaVuSans-2e" transform="translate(892.166992 0.015625)"/>
     <use xlink:href="#DejaVuSans-33" transform="translate(923.954102 0.015625)"/>
     <use xlink:href="#DejaVuSans-65" transform="translate(987.577148 0.015625)"/>
     <use xlink:href="#DejaVuSans-2d" transform="translate(1049.100586 0.015625)"/>
     <use xlink:href="#DejaVuSans-30" transform="translate(1085.18457 0.015625)"/>
     <use xlink:href="#DejaVuSans-36" transform="translate(1148.807617 0.015625)"/>
     <use xlink:href="#DejaVuSans-20" transform="translate(1212.430664 0.015625)"/>
     <use xlink:href="#DejaVuSans-47" transform="translate(1244.217773 0.015625)"/>
     <use xlink:href="#DejaVuSans-48" transform="translate(1321.708008 0.015625)"/>
     <use xlink:href="#DejaVuSans-7a" transform="translate(1396.90332 0.015625)"/>
    </g>
   </g>
  </g>
  <g id="axes_2">
   <g id="patch_8">
    <path d="M 50.595313 307.872 
L 407.715312 307.872 
L 407.715312 186.912 
L 50.595313 186.912 
z
" style="fill: #ffffff"/>
   </g>
   <g id="matplotlib.axis_3">
    <g id="xtick_6">
     <g id="line2d_11">
      <g>
       <use xlink:href="#mf3b00b9777" x="99.293494" y="307.872" style="stroke: #000000; stroke-width: 0.8"/>
      </g>
     </g>
     <g id="text_6">
      <!-- 716 -->
      <g transform="translate(89.749744 322.470438) scale(0.1 -0.1)">
       <use xlink:href="#DejaVuSans-37"/>
       <use xlink:href="#DejaVuSans-31" x="63.623047"/>
       <use xlink:href="#DejaVuSans-36" x="127.246094"/>
      </g>
     </g>
    </g>
    <g id="xtick_7">
     <g id="line2d_12">
      <g>
       <use xlink:href="#mf3b00b9777" x="164.224403" y="307.872" style="stroke: #000000; stroke-width: 0.8"/>
      </g>
     </g>
     <g id="text_7">
      <!-- 718 -->
      <g transform="translate(154.680653 322.470438) scale(0.1 -0.1)">
       <use xlink:href="#DejaVuSans-37"/>
       <use xlink:href="#DejaVuSans-31" x="63.623047"/>
       <use xlink:href="#DejaVuSans-38" x="127.246094"/>
      </g>
     </g>
    </g>
    <g id="xtick_8">
     <g id="line2d_13">
      <g>
       <use xlink:href="#mf3b00b9777" x="229.155313" y="307.872" style="stroke: #000000; stroke-width: 0.8"/>
      </g>
     </g>
     <g id="text_8">
      <!-- 720 -->
      <g transform="translate(219.611563 322.470438) scale(0.1 -0.1)">
       <use xlink:href="#DejaVuSans-37"/>
       <use xlink:href="#DejaVuSans-32" x="63.623047"/>
       <use xlink:href="#DejaVuSans-30" x="127.246094"/>
      </g>
     </g>
    </g>
    <g id="xtick_9">
     <g id="line2d_14">
      <g>
       <use xlink:href="#mf3b00b9777" x="294.086222" y="307.872" style="stroke: #000000; stroke-width: 0.8"/>
      </g>
     </g>
     <g id="text_9">
      <!-- 722 -->
      <g transform="translate(284.542472 322.470438) scale(0.1 -0.1)">
       <use xlink:href="#DejaVuSans-37"/>
       <use xlink:href="#DejaVuSans-32" x="63.623047"/>
       <use xlink:href="#DejaVuSans-32" x="127.246094"/>
      </g>
     </g>
    </g>
    <g id="xtick_10">
     <g id="line2d_15">
      <g>
       <use xlink:href="#mf3b00b9777" x="359.017131" y="307.872" style="stroke: #000000; stroke-width: 0.8"/>
      </g>
     </g>
     <g id="text_10">
      <!-- 724 -->
      <g transform="translate(349.473381 322.470438) scale(0.1 -0.1)">
       <use xlink:href="#DejaVuSans-37"/>
       <use xlink:href="#DejaVuSans-32" x="63.623047"/>
       <use xlink:href="#DejaVuSans-34" x="127.246094"/>
      </g>
     </g>
    </g>
    <g id="text_11">
     <!-- Frequency [MHz] -->
     <g transform="translate(187.136562 336.148562) scale(0.1 -0.1)">
      <defs>
       <path id="DejaVuSans-46" d="M 628 4666 
L 3309 4666 
L 3309 4134 
L 1259 4134 
L 1259 2759 
L 3109 2759 
L 3109 2228 
L 1259 2228 
L 1259 0 
L 628 0 
L 628 4666 
z
" transform="scale(0.015625)"/>
       <path id="DejaVuSans-71" d="M 947 1747 
Q 947 1113 1208 752 
Q 1469 391 1925 391 
Q 2381 391 2643 752 
Q 2906 1113 2906 1747 
Q 2906 2381 2643 2742 
Q 2381 3103 1925 3103 
Q 1469 3103 1208 2742 
Q 947 2381 947 1747 
z
M 2906 525 
Q 2725 213 2448 61 
Q 2172 -91 1784 -91 
Q 1150 -91 751 415 
Q 353 922 353 1747 
Q 353 2572 751 3078 
Q 1150 3584 1784 3584 
Q 2172 3584 2448 3432 
Q 2725 3281 2906 2969 
L 2906 3500 
L 3481 3500 
L 3481 -1331 
L 2906 -1331 
L 2906 525 
z
" transform="scale(0.015625)"/>
       <path id="DejaVuSans-6e" d="M 3513 2113 
L 3513 0 
L 2938 0 
L 2938 2094 
Q 2938 2591 2744 2837 
Q 2550 3084 2163 3084 
Q 1697 3084 1428 2787 
Q 1159 2491 1159 1978 
L 1159 0 
L 581 0 
L 581 3500 
L 1159 3500 
L 1159 2956 
Q 1366 3272 1645 3428 
Q 1925 3584 2291 3584 
Q 2894 3584 3203 3211 
Q 3513 2838 3513 2113 
z
" transform="scale(0.015625)"/>
       <path id="DejaVuSans-63" d="M 3122 3366 
L 3122 2828 
Q 2878 2963 2633 3030 
Q 2388 3097 2138 3097 
Q 1578 3097 1268 2742 
Q 959 2388 959 1747 
Q 959 1106 1268 751 
Q 1578 397 2138 397 
Q 2388 397 2633 464 
Q 2878 531 3122 666 
L 3122 134 
Q 2881 22 2623 -34 
Q 2366 -91 2075 -91 
Q 1284 -91 818 406 
Q 353 903 353 1747 
Q 353 2603 823 3093 
Q 1294 3584 2113 3584 
Q 2378 3584 2631 3529 
Q 2884 3475 3122 3366 
z
" transform="scale(0.015625)"/>
       <path id="DejaVuSans-4d" d="M 628 4666 
L 1569 4666 
L 2759 1491 
L 3956 4666 
L 4897 4666 
L 4897 0 
L 4281 0 
L 4281 4097 
L 3078 897 
L 2444 897 
L 1241 4097 
L 1241 0 
L 628 0 
L 628 4666 
z
" transform="scale(0.015625)"/>
      </defs>
      <use xlink:href="#DejaVuSans-46"/>
      <use xlink:href="#DejaVuSans-72" x="50.269531"/>
      <use xlink:href="#DejaVuSans-65" x="89.132812"/>
      <use xlink:href="#DejaVuSans-71" x="150.65625"/>
      <use xlink:href="#DejaVuSans-75" x="214.132812"/>
      <use xlink:href="#DejaVuSans-65" x="277.511719"/>
      <use xlink:href="#DejaVuSans-6e" x="339.035156"/>
      <use xlink:href="#DejaVuSans-63" x="402.414062"/>
      <use xlink:href="#DejaVuSans-79" x="457.394531"/>
      <use xlink:href="#DejaVuSans-20" x="516.574219"/>
      <use xlink:href="#DejaVuSans-5b" x="548.361328"/>
      <use xlink:href="#DejaVuSans-4d" x="587.375"/>
      <use xlink:href="#DejaVuSans-48" x="673.654297"/>
      <use xlink:href="#DejaVuSans-7a" x="748.849609"/>
      <use xlink:href="#DejaVuSans-5d" x="801.339844"/>
     </g>
    </g>
    <g id="text_12">
     <!-- +5 GHz -->
     <g transform="translate(369.277812 335.148562) scale(0.1 -0.1)">
      <defs>
       <path id="DejaVuSans-2b" d="M 2944 4013 
L 2944 2272 
L 4684 2272 
L 4684 1741 
L 2944 1741 
L 2944 0 
L 2419 0 
L 2419 1741 
L 678 1741 
L 678 2272 
L 2419 2272 
L 2419 4013 
L 2944 4013 
z
" transform="scale(0.015625)"/>
      </defs>
      <use xlink:href="#DejaVuSans-2b"/>
      <use xlink:href="#DejaVuSans-35" x="83.789062"/>
      <use xlink:href="#DejaVuSans-20" x="147.412109"/>
      <use xlink:href="#DejaVuSans-47" x="179.199219"/>
      <use xlink:href="#DejaVuSans-48" x="256.689453"/>
      <use xlink:href="#DejaVuSans-7a" x="331.884766"/>
     </g>
    </g>
   </g>
   <g id="matplotlib.axis_4">
    <g id="ytick_4">
     <g id="line2d_16">
      <g>
       <use xlink:href="#m16794f8b75" x="50.595313" y="278.040344" style="stroke: #000000; stroke-width: 0.8"/>
      </g>
     </g>
     <g id="text_13">
      <!-- -100 -->
      <g transform="translate(20.9 281.839563) scale(0.1 -0.1)">
       <use xlink:href="#DejaVuSans-2d"/>
       <use xlink:href="#DejaVuSans-31" x="36.083984"/>
       <use xlink:href="#DejaVuSans-30" x="99.707031"/>
       <use xlink:href="#DejaVuSans-30" x="163.330078"/>
      </g>
     </g>
    </g>
    <g id="ytick_5">
     <g id="line2d_17">
      <g>
       <use xlink:href="#m16794f8b75" x="50.595313" y="247.452696" style="stroke: #000000; stroke-width: 0.8"/>
      </g>
     </g>
     <g id="text_14">
      <!-- 0 -->
      <g transform="translate(37.232813 251.251915) scale(0.1 -0.1)">
       <use xlink:href="#DejaVuSans-30"/>
      </g>
     </g>
    </g>
    <g id="ytick_6">
     <g id="line2d_18">
      <g>
       <use xlink:href="#m16794f8b75" x="50.595313" y="216.865048" style="stroke: #000000; stroke-width: 0.8"/>
      </g>
     </g>
     <g id="text_15">
      <!-- 100 -->
      <g transform="translate(24.507813 220.664267) scale(0.1 -0.1)">
       <use xlink:href="#DejaVuSans-31"/>
       <use xlink:href="#DejaVuSans-30" x="63.623047"/>
       <use xlink:href="#DejaVuSans-30" x="127.246094"/>
      </g>
     </g>
    </g>
    <g id="text_16">
     <!-- $\angle S_{21}$ [deg] -->
     <g transform="translate(14.8 274.592) rotate(-90) scale(0.1 -0.1)">
      <defs>
       <path id="DejaVuSans-2220" d="M 5028 631 
L 5028 0 
L 547 0 
L 3525 4666 
L 4281 4666 
L 1716 631 
L 5028 631 
z
" transform="scale(0.015625)"/>
       <path id="DejaVuSans-64" d="M 2906 2969 
L 2906 4863 
L 3481 4863 
L 3481 0 
L 2906 0 
L 2906 525 
Q 2725 213 2448 61 
Q 2172 -91 1784 -91 
Q 1150 -91 751 415 
Q 353 922 353 1747 
Q 353 2572 751 3078 
Q 1150 3584 1784 3584 
Q 2172 3584 2448 3432 
Q 2725 3281 2906 2969 
z
M 947 1747 
Q 947 1113 1208 752 
Q 1469 391 1925 391 
Q 2381 391 2643 752 
Q 2906 1113 2906 1747 
Q 2906 2381 2643 2742 
Q 2381 3103 1925 3103 
Q 1469 3103 1208 2742 
Q 947 2381 947 1747 
z
" transform="scale(0.015625)"/>
       <path id="DejaVuSans-67" d="M 2906 1791 
Q 2906 2416 2648 2759 
Q 2391 3103 1925 3103 
Q 1463 3103 1205 2759 
Q 947 2416 947 1791 
Q 947 1169 1205 825 
Q 1463 481 1925 481 
Q 2391 481 2648 825 
Q 2906 1169 2906 1791 
z
M 3481 434 
Q 3481 -459 3084 -895 
Q 2688 -1331 1869 -1331 
Q 1566 -1331 1297 -1286 
Q 1028 -1241 775 -1147 
L 775 -588 
Q 1028 -725 1275 -790 
Q 1522 -856 1778 -856 
Q 2344 -856 2625 -561 
Q 2906 -266 2906 331 
L 2906 616 
Q 2728 306 2450 153 
Q 2172 0 1784 0 
Q 1141 0 747 490 
Q 353 981 353 1791 
Q 353 2603 747 3093 
Q 1141 3584 1784 3584 
Q 2172 3584 2450 3431 
Q 2728 3278 2906 2969 
L 2906 3500 
L 3481 3500 
L 3481 434 
z
" transform="scale(0.015625)"/>
      </defs>
      <use xlink:href="#DejaVuSans-2220" transform="translate(0 0.015625)"/>
      <use xlink:href="#DejaVuSans-Oblique-53" transform="translate(89.648438 0.015625)"/>
      <use xlink:href="#DejaVuSans-32" transform="translate(153.125 -16.390625) scale(0.7)"/>
      <use xlink:href="#DejaVuSans-31" transform="translate(197.661133 -16.390625) scale(0.7)"/>
      <use xlink:href="#DejaVuSans-20" transform="translate(244.931641 0.015625)"/>
      <use xlink:href="#DejaVuSans-5b" transform="translate(276.71875 0.015625)"/>
      <use xlink:href="#DejaVuSans-64" transform="translate(315.732422 0.015625)"/>
      <use xlink:href="#DejaVuSans-65" transform="translate(379.208984 0.015625)"/>
      <use xlink:href="#DejaVuSans-67" transform="translate(440.732422 0.015625)"/>
      <use xlink:href="#DejaVuSans-5d" transform="translate(504.208984 0.015625)"/>
     </g>
    </g>
   </g>
   <g id="line2d_19">
    <path d="M 66.82804 271.687347 
L 71.722329 275.17923 
L 86.405198 285.664587 
L 107.613787 300.876499 
L 109.245217 302.046163 
L 110.876646 193.12338 
L 128.822375 206.31942 
L 133.716665 210.058432 
L 135.348095 211.193171 
L 140.242384 215.001538 
L 145.136674 218.948989 
L 146.768104 220.265133 
L 150.030963 223.222572 
L 153.293823 226.089917 
L 154.925253 228.045952 
L 156.556683 229.602053 
L 158.188113 231.332741 
L 159.819543 234.623719 
L 161.450973 238.45356 
L 164.713832 244.10251 
L 166.345262 246.283266 
L 167.976692 248.03106 
L 169.608122 249.42964 
L 171.239552 250.188734 
L 172.870982 250.064766 
L 174.502412 248.767273 
L 176.133842 246.312019 
L 177.765271 243.455217 
L 179.396701 241.114796 
L 181.028131 239.953482 
L 182.659561 239.829662 
L 184.290991 240.241622 
L 185.922421 240.968026 
L 189.185281 243.152959 
L 192.44814 245.601011 
L 195.711 248.055868 
L 208.762439 258.025101 
L 210.393869 259.156737 
L 213.656729 261.614053 
L 218.551018 265.237239 
L 231.602457 274.727253 
L 259.336765 294.5273 
L 262.599625 296.741935 
L 270.756774 302.373818 
L 272.388204 193.398877 
L 283.808213 201.668526 
L 296.859652 211.02155 
L 306.648232 218.034544 
L 313.173951 222.671513 
L 324.59396 230.839752 
L 340.908259 242.427229 
L 355.591128 252.895219 
L 388.219725 276.023124 
L 391.482585 278.363318 
L 391.482585 278.363318 
" clip-path="url(#p64399f0e0c)" style="fill: none; stroke: #1f77b4; stroke-width: 1.5; stroke-linecap: square"/>
    <g clip-path="url(#p64399f0e0c)">
     <use xlink:href="#m725c44f85d" x="66.82804" y="271.687347" style="fill: #1f77b4; stroke: #1f77b4"/>
     <use xlink:href="#m725c44f85d" x="68.45947" y="272.811677" style="fill: #1f77b4; stroke: #1f77b4"/>
     <use xlink:href="#m725c44f85d" x="70.0909" y="274.018053" style="fill: #1f77b4; stroke: #1f77b4"/>
     <use xlink:href="#m725c44f85d" x="71.722329" y="275.17923" style="fill: #1f77b4; stroke: #1f77b4"/>
     <use xlink:href="#m725c44f85d" x="73.353759" y="276.331638" style="fill: #1f77b4; stroke: #1f77b4"/>
     <use xlink:href="#m725c44f85d" x="74.985189" y="277.49536" style="fill: #1f77b4; stroke: #1f77b4"/>
     <use xlink:href="#m725c44f85d" x="76.616619" y="278.676005" style="fill: #1f77b4; stroke: #1f77b4"/>
     <use xlink:href="#m725c44f85d" x="78.248049" y="279.849333" style="fill: #1f77b4; stroke: #1f77b4"/>
     <use xlink:href="#m725c44f85d" x="79.879479" y="280.984606" style="fill: #1f77b4; stroke: #1f77b4"/>
     <use xlink:href="#m725c44f85d" x="81.510909" y="282.175735" style="fill: #1f77b4; stroke: #1f77b4"/>
     <use xlink:href="#m725c44f85d" x="83.142339" y="283.330044" style="fill: #1f77b4; stroke: #1f77b4"/>
     <use xlink:href="#m725c44f85d" x="84.773768" y="284.50151" style="fill: #1f77b4; stroke: #1f77b4"/>
     <use xlink:href="#m725c44f85d" x="86.405198" y="285.664587" style="fill: #1f77b4; stroke: #1f77b4"/>
     <use xlink:href="#m725c44f85d" x="88.036628" y="286.844499" style="fill: #1f77b4; stroke: #1f77b4"/>
     <use xlink:href="#m725c44f85d" x="89.668058" y="287.965321" style="fill: #1f77b4; stroke: #1f77b4"/>
     <use xlink:href="#m725c44f85d" x="91.299488" y="289.195468" style="fill: #1f77b4; stroke: #1f77b4"/>
     <use xlink:href="#m725c44f85d" x="92.930918" y="290.366475" style="fill: #1f77b4; stroke: #1f77b4"/>
     <use xlink:href="#m725c44f85d" x="94.562348" y="291.548445" style="fill: #1f77b4; stroke: #1f77b4"/>
     <use xlink:href="#m725c44f85d" x="96.193778" y="292.714468" style="fill: #1f77b4; stroke: #1f77b4"/>
     <use xlink:href="#m725c44f85d" x="97.825207" y="293.885074" style="fill: #1f77b4; stroke: #1f77b4"/>
     <use xlink:href="#m725c44f85d" x="99.456637" y="295.043871" style="fill: #1f77b4; stroke: #1f77b4"/>
     <use xlink:href="#m725c44f85d" x="101.088067" y="296.195029" style="fill: #1f77b4; stroke: #1f77b4"/>
     <use xlink:href="#m725c44f85d" x="102.719497" y="297.377764" style="fill: #1f77b4; stroke: #1f77b4"/>
     <use xlink:href="#m725c44f85d" x="104.350927" y="298.53878" style="fill: #1f77b4; stroke: #1f77b4"/>
     <use xlink:href="#m725c44f85d" x="105.982357" y="299.723824" style="fill: #1f77b4; stroke: #1f77b4"/>
     <use xlink:href="#m725c44f85d" x="107.613787" y="300.876499" style="fill: #1f77b4; stroke: #1f77b4"/>
     <use xlink:href="#m725c44f85d" x="109.245217" y="302.046163" style="fill: #1f77b4; stroke: #1f77b4"/>
     <use xlink:href="#m725c44f85d" x="110.876646" y="193.12338" style="fill: #1f77b4; stroke: #1f77b4"/>
     <use xlink:href="#m725c44f85d" x="112.508076" y="194.317222" style="fill: #1f77b4; stroke: #1f77b4"/>
     <use xlink:href="#m725c44f85d" x="114.139506" y="195.49483" style="fill: #1f77b4; stroke: #1f77b4"/>
     <use xlink:href="#m725c44f85d" x="115.770936" y="196.701234" style="fill: #1f77b4; stroke: #1f77b4"/>
     <use xlink:href="#m725c44f85d" x="117.402366" y="197.897024" style="fill: #1f77b4; stroke: #1f77b4"/>
     <use xlink:href="#m725c44f85d" x="119.033796" y="199.144446" style="fill: #1f77b4; stroke: #1f77b4"/>
     <use xlink:href="#m725c44f85d" x="120.665226" y="200.309391" style="fill: #1f77b4; stroke: #1f77b4"/>
     <use xlink:href="#m725c44f85d" x="122.296656" y="201.545168" style="fill: #1f77b4; stroke: #1f77b4"/>
     <use xlink:href="#m725c44f85d" x="123.928085" y="202.695757" style="fill: #1f77b4; stroke: #1f77b4"/>
     <use xlink:href="#m725c44f85d" x="125.559515" y="203.957619" style="fill: #1f77b4; stroke: #1f77b4"/>
     <use xlink:href="#m725c44f85d" x="127.190945" y="205.094398" style="fill: #1f77b4; stroke: #1f77b4"/>
     <use xlink:href="#m725c44f85d" x="128.822375" y="206.31942" style="fill: #1f77b4; stroke: #1f77b4"/>
     <use xlink:href="#m725c44f85d" x="130.453805" y="207.596984" style="fill: #1f77b4; stroke: #1f77b4"/>
     <use xlink:href="#m725c44f85d" x="132.085235" y="208.74668" style="fill: #1f77b4; stroke: #1f77b4"/>
     <use xlink:href="#m725c44f85d" x="133.716665" y="210.058432" style="fill: #1f77b4; stroke: #1f77b4"/>
     <use xlink:href="#m725c44f85d" x="135.348095" y="211.193171" style="fill: #1f77b4; stroke: #1f77b4"/>
     <use xlink:href="#m725c44f85d" x="136.979524" y="212.502978" style="fill: #1f77b4; stroke: #1f77b4"/>
     <use xlink:href="#m725c44f85d" x="138.610954" y="213.677259" style="fill: #1f77b4; stroke: #1f77b4"/>
     <use xlink:href="#m725c44f85d" x="140.242384" y="215.001538" style="fill: #1f77b4; stroke: #1f77b4"/>
     <use xlink:href="#m725c44f85d" x="141.873814" y="216.274198" style="fill: #1f77b4; stroke: #1f77b4"/>
     <use xlink:href="#m725c44f85d" x="143.505244" y="217.573766" style="fill: #1f77b4; stroke: #1f77b4"/>
     <use xlink:href="#m725c44f85d" x="145.136674" y="218.948989" style="fill: #1f77b4; stroke: #1f77b4"/>
     <use xlink:href="#m725c44f85d" x="146.768104" y="220.265133" style="fill: #1f77b4; stroke: #1f77b4"/>
     <use xlink:href="#m725c44f85d" x="148.399534" y="221.78713" style="fill: #1f77b4; stroke: #1f77b4"/>
     <use xlink:href="#m725c44f85d" x="150.030963" y="223.222572" style="fill: #1f77b4; stroke: #1f77b4"/>
     <use xlink:href="#m725c44f85d" x="151.662393" y="224.673327" style="fill: #1f77b4; stroke: #1f77b4"/>
     <use xlink:href="#m725c44f85d" x="153.293823" y="226.089917" style="fill: #1f77b4; stroke: #1f77b4"/>
     <use xlink:href="#m725c44f85d" x="154.925253" y="228.045952" style="fill: #1f77b4; stroke: #1f77b4"/>
     <use xlink:href="#m725c44f85d" x="156.556683" y="229.602053" style="fill: #1f77b4; stroke: #1f77b4"/>
     <use xlink:href="#m725c44f85d" x="158.188113" y="231.332741" style="fill: #1f77b4; stroke: #1f77b4"/>
     <use xlink:href="#m725c44f85d" x="159.819543" y="234.623719" style="fill: #1f77b4; stroke: #1f77b4"/>
     <use xlink:href="#m725c44f85d" x="161.450973" y="238.45356" style="fill: #1f77b4; stroke: #1f77b4"/>
     <use xlink:href="#m725c44f85d" x="163.082402" y="241.278969" style="fill: #1f77b4; stroke: #1f77b4"/>
     <use xlink:href="#m725c44f85d" x="164.713832" y="244.10251" style="fill: #1f77b4; stroke: #1f77b4"/>
     <use xlink:href="#m725c44f85d" x="166.345262" y="246.283266" style="fill: #1f77b4; stroke: #1f77b4"/>
     <use xlink:href="#m725c44f85d" x="167.976692" y="248.03106" style="fill: #1f77b4; stroke: #1f77b4"/>
     <use xlink:href="#m725c44f85d" x="169.608122" y="249.42964" style="fill: #1f77b4; stroke: #1f77b4"/>
     <use xlink:href="#m725c44f85d" x="171.239552" y="250.188734" style="fill: #1f77b4; stroke: #1f77b4"/>
     <use xlink:href="#m725c44f85d" x="172.870982" y="250.064766" style="fill: #1f77b4; stroke: #1f77b4"/>
     <use xlink:href="#m725c44f85d" x="174.502412" y="248.767273" style="fill: #1f77b4; stroke: #1f77b4"/>
     <use xlink:href="#m725c44f85d" x="176.133842" y="246.312019" style="fill: #1f77b4; stroke: #1f77b4"/>
     <use xlink:href="#m725c44f85d" x="177.765271" y="243.455217" style="fill: #1f77b4; stroke: #1f77b4"/>
     <use xlink:href="#m725c44f85d" x="179.396701" y="241.114796" style="fill: #1f77b4; stroke: #1f77b4"/>
     <use xlink:href="#m725c44f85d" x="181.028131" y="239.953482" style="fill: #1f77b4; stroke: #1f77b4"/>
     <use xlink:href="#m725c44f85d" x="182.659561" y="239.829662" style="fill: #1f77b4; stroke: #1f77b4"/>
     <use xlink:href="#m725c44f85d" x="184.290991" y="240.241622" style="fill: #1f77b4; stroke: #1f77b4"/>
     <use xlink:href="#m725c44f85d" x="185.922421" y="240.968026" style="fill: #1f77b4; stroke: #1f77b4"/>
     <use xlink:href="#m725c44f85d" x="187.553851" y="242.031159" style="fill: #1f77b4; stroke: #1f77b4"/>
     <use xlink:href="#m725c44f85d" x="189.185281" y="243.152959" style="fill: #1f77b4; stroke: #1f77b4"/>
     <use xlink:href="#m725c44f85d" x="190.81671" y="244.421864" style="fill: #1f77b4; stroke: #1f77b4"/>
     <use xlink:href="#m725c44f85d" x="192.44814" y="245.601011" style="fill: #1f77b4; stroke: #1f77b4"/>
     <use xlink:href="#m725c44f85d" x="194.07957" y="246.770971" style="fill: #1f77b4; stroke: #1f77b4"/>
     <use xlink:href="#m725c44f85d" x="195.711" y="248.055868" style="fill: #1f77b4; stroke: #1f77b4"/>
     <use xlink:href="#m725c44f85d" x="197.34243" y="249.310321" style="fill: #1f77b4; stroke: #1f77b4"/>
     <use xlink:href="#m725c44f85d" x="198.97386" y="250.574423" style="fill: #1f77b4; stroke: #1f77b4"/>
     <use xlink:href="#m725c44f85d" x="200.60529" y="251.837361" style="fill: #1f77b4; stroke: #1f77b4"/>
     <use xlink:href="#m725c44f85d" x="202.23672" y="253.09985" style="fill: #1f77b4; stroke: #1f77b4"/>
     <use xlink:href="#m725c44f85d" x="203.868149" y="254.328534" style="fill: #1f77b4; stroke: #1f77b4"/>
     <use xlink:href="#m725c44f85d" x="205.499579" y="255.488305" style="fill: #1f77b4; stroke: #1f77b4"/>
     <use xlink:href="#m725c44f85d" x="207.131009" y="256.752872" style="fill: #1f77b4; stroke: #1f77b4"/>
     <use xlink:href="#m725c44f85d" x="208.762439" y="258.025101" style="fill: #1f77b4; stroke: #1f77b4"/>
     <use xlink:href="#m725c44f85d" x="210.393869" y="259.156737" style="fill: #1f77b4; stroke: #1f77b4"/>
     <use xlink:href="#m725c44f85d" x="212.025299" y="260.430223" style="fill: #1f77b4; stroke: #1f77b4"/>
     <use xlink:href="#m725c44f85d" x="213.656729" y="261.614053" style="fill: #1f77b4; stroke: #1f77b4"/>
     <use xlink:href="#m725c44f85d" x="215.288159" y="262.784695" style="fill: #1f77b4; stroke: #1f77b4"/>
     <use xlink:href="#m725c44f85d" x="216.919588" y="264.069765" style="fill: #1f77b4; stroke: #1f77b4"/>
     <use xlink:href="#m725c44f85d" x="218.551018" y="265.237239" style="fill: #1f77b4; stroke: #1f77b4"/>
     <use xlink:href="#m725c44f85d" x="220.182448" y="266.440087" style="fill: #1f77b4; stroke: #1f77b4"/>
     <use xlink:href="#m725c44f85d" x="221.813878" y="267.63791" style="fill: #1f77b4; stroke: #1f77b4"/>
     <use xlink:href="#m725c44f85d" x="223.445308" y="268.822827" style="fill: #1f77b4; stroke: #1f77b4"/>
     <use xlink:href="#m725c44f85d" x="225.076738" y="269.992936" style="fill: #1f77b4; stroke: #1f77b4"/>
     <use xlink:href="#m725c44f85d" x="226.708168" y="271.220064" style="fill: #1f77b4; stroke: #1f77b4"/>
     <use xlink:href="#m725c44f85d" x="228.339598" y="272.420202" style="fill: #1f77b4; stroke: #1f77b4"/>
     <use xlink:href="#m725c44f85d" x="229.971027" y="273.543036" style="fill: #1f77b4; stroke: #1f77b4"/>
     <use xlink:href="#m725c44f85d" x="231.602457" y="274.727253" style="fill: #1f77b4; stroke: #1f77b4"/>
     <use xlink:href="#m725c44f85d" x="233.233887" y="275.895984" style="fill: #1f77b4; stroke: #1f77b4"/>
     <use xlink:href="#m725c44f85d" x="234.865317" y="277.130346" style="fill: #1f77b4; stroke: #1f77b4"/>
     <use xlink:href="#m725c44f85d" x="236.496747" y="278.283439" style="fill: #1f77b4; stroke: #1f77b4"/>
     <use xlink:href="#m725c44f85d" x="238.128177" y="279.433793" style="fill: #1f77b4; stroke: #1f77b4"/>
     <use xlink:href="#m725c44f85d" x="239.759607" y="280.610368" style="fill: #1f77b4; stroke: #1f77b4"/>
     <use xlink:href="#m725c44f85d" x="241.391037" y="281.758256" style="fill: #1f77b4; stroke: #1f77b4"/>
     <use xlink:href="#m725c44f85d" x="243.022466" y="282.950957" style="fill: #1f77b4; stroke: #1f77b4"/>
     <use xlink:href="#m725c44f85d" x="244.653896" y="284.14638" style="fill: #1f77b4; stroke: #1f77b4"/>
     <use xlink:href="#m725c44f85d" x="246.285326" y="285.28559" style="fill: #1f77b4; stroke: #1f77b4"/>
     <use xlink:href="#m725c44f85d" x="247.916756" y="286.381966" style="fill: #1f77b4; stroke: #1f77b4"/>
     <use xlink:href="#m725c44f85d" x="249.548186" y="287.607819" style="fill: #1f77b4; stroke: #1f77b4"/>
     <use xlink:href="#m725c44f85d" x="251.179616" y="288.739142" style="fill: #1f77b4; stroke: #1f77b4"/>
     <use xlink:href="#m725c44f85d" x="252.811046" y="289.903446" style="fill: #1f77b4; stroke: #1f77b4"/>
     <use xlink:href="#m725c44f85d" x="254.442476" y="291.031682" style="fill: #1f77b4; stroke: #1f77b4"/>
     <use xlink:href="#m725c44f85d" x="256.073905" y="292.146214" style="fill: #1f77b4; stroke: #1f77b4"/>
     <use xlink:href="#m725c44f85d" x="257.705335" y="293.29548" style="fill: #1f77b4; stroke: #1f77b4"/>
     <use xlink:href="#m725c44f85d" x="259.336765" y="294.5273" style="fill: #1f77b4; stroke: #1f77b4"/>
     <use xlink:href="#m725c44f85d" x="260.968195" y="295.576932" style="fill: #1f77b4; stroke: #1f77b4"/>
     <use xlink:href="#m725c44f85d" x="262.599625" y="296.741935" style="fill: #1f77b4; stroke: #1f77b4"/>
     <use xlink:href="#m725c44f85d" x="264.231055" y="297.874834" style="fill: #1f77b4; stroke: #1f77b4"/>
     <use xlink:href="#m725c44f85d" x="265.862485" y="299.029714" style="fill: #1f77b4; stroke: #1f77b4"/>
     <use xlink:href="#m725c44f85d" x="267.493915" y="300.199656" style="fill: #1f77b4; stroke: #1f77b4"/>
     <use xlink:href="#m725c44f85d" x="269.125344" y="301.270093" style="fill: #1f77b4; stroke: #1f77b4"/>
     <use xlink:href="#m725c44f85d" x="270.756774" y="302.373818" style="fill: #1f77b4; stroke: #1f77b4"/>
     <use xlink:href="#m725c44f85d" x="272.388204" y="193.398877" style="fill: #1f77b4; stroke: #1f77b4"/>
     <use xlink:href="#m725c44f85d" x="274.019634" y="194.594436" style="fill: #1f77b4; stroke: #1f77b4"/>
     <use xlink:href="#m725c44f85d" x="275.651064" y="195.76197" style="fill: #1f77b4; stroke: #1f77b4"/>
     <use xlink:href="#m725c44f85d" x="277.282494" y="196.984033" style="fill: #1f77b4; stroke: #1f77b4"/>
     <use xlink:href="#m725c44f85d" x="278.913924" y="198.159246" style="fill: #1f77b4; stroke: #1f77b4"/>
     <use xlink:href="#m725c44f85d" x="280.545354" y="199.338126" style="fill: #1f77b4; stroke: #1f77b4"/>
     <use xlink:href="#m725c44f85d" x="282.176783" y="200.515065" style="fill: #1f77b4; stroke: #1f77b4"/>
     <use xlink:href="#m725c44f85d" x="283.808213" y="201.668526" style="fill: #1f77b4; stroke: #1f77b4"/>
     <use xlink:href="#m725c44f85d" x="285.439643" y="202.822666" style="fill: #1f77b4; stroke: #1f77b4"/>
     <use xlink:href="#m725c44f85d" x="287.071073" y="203.997938" style="fill: #1f77b4; stroke: #1f77b4"/>
     <use xlink:href="#m725c44f85d" x="288.702503" y="205.136913" style="fill: #1f77b4; stroke: #1f77b4"/>
     <use xlink:href="#m725c44f85d" x="290.333933" y="206.325862" style="fill: #1f77b4; stroke: #1f77b4"/>
     <use xlink:href="#m725c44f85d" x="291.965363" y="207.489019" style="fill: #1f77b4; stroke: #1f77b4"/>
     <use xlink:href="#m725c44f85d" x="293.596793" y="208.638407" style="fill: #1f77b4; stroke: #1f77b4"/>
     <use xlink:href="#m725c44f85d" x="295.228223" y="209.847506" style="fill: #1f77b4; stroke: #1f77b4"/>
     <use xlink:href="#m725c44f85d" x="296.859652" y="211.02155" style="fill: #1f77b4; stroke: #1f77b4"/>
     <use xlink:href="#m725c44f85d" x="298.491082" y="212.208935" style="fill: #1f77b4; stroke: #1f77b4"/>
     <use xlink:href="#m725c44f85d" x="300.122512" y="213.360349" style="fill: #1f77b4; stroke: #1f77b4"/>
     <use xlink:href="#m725c44f85d" x="301.753942" y="214.540886" style="fill: #1f77b4; stroke: #1f77b4"/>
     <use xlink:href="#m725c44f85d" x="303.385372" y="215.681698" style="fill: #1f77b4; stroke: #1f77b4"/>
     <use xlink:href="#m725c44f85d" x="305.016802" y="216.868055" style="fill: #1f77b4; stroke: #1f77b4"/>
     <use xlink:href="#m725c44f85d" x="306.648232" y="218.034544" style="fill: #1f77b4; stroke: #1f77b4"/>
     <use xlink:href="#m725c44f85d" x="308.279662" y="219.165523" style="fill: #1f77b4; stroke: #1f77b4"/>
     <use xlink:href="#m725c44f85d" x="309.911091" y="220.360609" style="fill: #1f77b4; stroke: #1f77b4"/>
     <use xlink:href="#m725c44f85d" x="311.542521" y="221.502466" style="fill: #1f77b4; stroke: #1f77b4"/>
     <use xlink:href="#m725c44f85d" x="313.173951" y="222.671513" style="fill: #1f77b4; stroke: #1f77b4"/>
     <use xlink:href="#m725c44f85d" x="314.805381" y="223.854976" style="fill: #1f77b4; stroke: #1f77b4"/>
     <use xlink:href="#m725c44f85d" x="316.436811" y="225.008759" style="fill: #1f77b4; stroke: #1f77b4"/>
     <use xlink:href="#m725c44f85d" x="318.068241" y="226.203717" style="fill: #1f77b4; stroke: #1f77b4"/>
     <use xlink:href="#m725c44f85d" x="319.699671" y="227.334636" style="fill: #1f77b4; stroke: #1f77b4"/>
     <use xlink:href="#m725c44f85d" x="321.331101" y="228.471347" style="fill: #1f77b4; stroke: #1f77b4"/>
     <use xlink:href="#m725c44f85d" x="322.96253" y="229.657693" style="fill: #1f77b4; stroke: #1f77b4"/>
     <use xlink:href="#m725c44f85d" x="324.59396" y="230.839752" style="fill: #1f77b4; stroke: #1f77b4"/>
     <use xlink:href="#m725c44f85d" x="326.22539" y="231.985412" style="fill: #1f77b4; stroke: #1f77b4"/>
     <use xlink:href="#m725c44f85d" x="327.85682" y="233.142559" style="fill: #1f77b4; stroke: #1f77b4"/>
     <use xlink:href="#m725c44f85d" x="329.48825" y="234.313407" style="fill: #1f77b4; stroke: #1f77b4"/>
     <use xlink:href="#m725c44f85d" x="331.11968" y="235.463762" style="fill: #1f77b4; stroke: #1f77b4"/>
     <use xlink:href="#m725c44f85d" x="332.75111" y="236.620295" style="fill: #1f77b4; stroke: #1f77b4"/>
     <use xlink:href="#m725c44f85d" x="334.38254" y="237.782072" style="fill: #1f77b4; stroke: #1f77b4"/>
     <use xlink:href="#m725c44f85d" x="336.013969" y="238.945524" style="fill: #1f77b4; stroke: #1f77b4"/>
     <use xlink:href="#m725c44f85d" x="337.645399" y="240.113611" style="fill: #1f77b4; stroke: #1f77b4"/>
     <use xlink:href="#m725c44f85d" x="339.276829" y="241.265215" style="fill: #1f77b4; stroke: #1f77b4"/>
     <use xlink:href="#m725c44f85d" x="340.908259" y="242.427229" style="fill: #1f77b4; stroke: #1f77b4"/>
     <use xlink:href="#m725c44f85d" x="342.539689" y="243.605446" style="fill: #1f77b4; stroke: #1f77b4"/>
     <use xlink:href="#m725c44f85d" x="344.171119" y="244.744115" style="fill: #1f77b4; stroke: #1f77b4"/>
     <use xlink:href="#m725c44f85d" x="345.802549" y="245.903537" style="fill: #1f77b4; stroke: #1f77b4"/>
     <use xlink:href="#m725c44f85d" x="347.433979" y="247.072904" style="fill: #1f77b4; stroke: #1f77b4"/>
     <use xlink:href="#m725c44f85d" x="349.065408" y="248.238112" style="fill: #1f77b4; stroke: #1f77b4"/>
     <use xlink:href="#m725c44f85d" x="350.696838" y="249.401541" style="fill: #1f77b4; stroke: #1f77b4"/>
     <use xlink:href="#m725c44f85d" x="352.328268" y="250.561831" style="fill: #1f77b4; stroke: #1f77b4"/>
     <use xlink:href="#m725c44f85d" x="353.959698" y="251.737076" style="fill: #1f77b4; stroke: #1f77b4"/>
     <use xlink:href="#m725c44f85d" x="355.591128" y="252.895219" style="fill: #1f77b4; stroke: #1f77b4"/>
     <use xlink:href="#m725c44f85d" x="357.222558" y="254.057423" style="fill: #1f77b4; stroke: #1f77b4"/>
     <use xlink:href="#m725c44f85d" x="358.853988" y="255.17802" style="fill: #1f77b4; stroke: #1f77b4"/>
     <use xlink:href="#m725c44f85d" x="360.485418" y="256.356608" style="fill: #1f77b4; stroke: #1f77b4"/>
     <use xlink:href="#m725c44f85d" x="362.116847" y="257.522034" style="fill: #1f77b4; stroke: #1f77b4"/>
     <use xlink:href="#m725c44f85d" x="363.748277" y="258.664472" style="fill: #1f77b4; stroke: #1f77b4"/>
     <use xlink:href="#m725c44f85d" x="365.379707" y="259.838329" style="fill: #1f77b4; stroke: #1f77b4"/>
     <use xlink:href="#m725c44f85d" x="367.011137" y="261.004076" style="fill: #1f77b4; stroke: #1f77b4"/>
     <use xlink:href="#m725c44f85d" x="368.642567" y="262.142055" style="fill: #1f77b4; stroke: #1f77b4"/>
     <use xlink:href="#m725c44f85d" x="370.273997" y="263.309849" style="fill: #1f77b4; stroke: #1f77b4"/>
     <use xlink:href="#m725c44f85d" x="371.905427" y="264.472965" style="fill: #1f77b4; stroke: #1f77b4"/>
     <use xlink:href="#m725c44f85d" x="373.536857" y="265.63292" style="fill: #1f77b4; stroke: #1f77b4"/>
     <use xlink:href="#m725c44f85d" x="375.168286" y="266.788078" style="fill: #1f77b4; stroke: #1f77b4"/>
     <use xlink:href="#m725c44f85d" x="376.799716" y="267.940899" style="fill: #1f77b4; stroke: #1f77b4"/>
     <use xlink:href="#m725c44f85d" x="378.431146" y="269.094252" style="fill: #1f77b4; stroke: #1f77b4"/>
     <use xlink:href="#m725c44f85d" x="380.062576" y="270.254835" style="fill: #1f77b4; stroke: #1f77b4"/>
     <use xlink:href="#m725c44f85d" x="381.694006" y="271.41743" style="fill: #1f77b4; stroke: #1f77b4"/>
     <use xlink:href="#m725c44f85d" x="383.325436" y="272.565436" style="fill: #1f77b4; stroke: #1f77b4"/>
     <use xlink:href="#m725c44f85d" x="384.956866" y="273.712603" style="fill: #1f77b4; stroke: #1f77b4"/>
     <use xlink:href="#m725c44f85d" x="386.588296" y="274.874519" style="fill: #1f77b4; stroke: #1f77b4"/>
     <use xlink:href="#m725c44f85d" x="388.219725" y="276.023124" style="fill: #1f77b4; stroke: #1f77b4"/>
     <use xlink:href="#m725c44f85d" x="389.851155" y="277.162343" style="fill: #1f77b4; stroke: #1f77b4"/>
     <use xlink:href="#m725c44f85d" x="391.482585" y="278.363318" style="fill: #1f77b4; stroke: #1f77b4"/>
    </g>
   </g>
   <g id="line2d_20">
    <path d="M 66.82804 271.213768 
L 96.401177 292.528546 
L 109.725337 302.28568 
L 110.050317 192.410182 
L 123.699457 202.631263 
L 133.123863 209.944891 
L 140.273412 215.763426 
L 145.798064 220.544124 
L 150.022798 224.476812 
L 153.597573 228.093248 
L 156.847368 231.712045 
L 159.772184 235.32796 
L 162.697 239.334453 
L 168.546631 247.596223 
L 169.846549 248.913412 
L 170.821488 249.54954 
L 171.471447 249.747969 
L 172.121406 249.727984 
L 172.771365 249.460748 
L 173.421324 248.927756 
L 174.071283 248.130254 
L 175.046222 246.515131 
L 177.646058 241.741115 
L 178.620996 240.519599 
L 179.595935 239.734941 
L 180.570874 239.329275 
L 181.545812 239.222864 
L 182.520751 239.342199 
L 183.820669 239.752797 
L 185.445566 240.535225 
L 187.720423 241.924633 
L 190.970218 244.200628 
L 197.794788 249.325055 
L 215.343683 262.529099 
L 232.567598 275.170609 
L 257.266041 292.998974 
L 270.265222 302.30706 
L 270.590202 192.423789 
L 317.387254 225.730022 
L 391.482585 278.196746 
L 391.482585 278.196746 
" clip-path="url(#p64399f0e0c)" style="fill: none; stroke: #d62728; stroke-width: 1.5; stroke-linecap: square"/>
   </g>
   <g id="patch_9">
    <path d="M 50.595313 307.872 
L 50.595313 186.912 
" style="fill: none; stroke: #000000; stroke-width: 0.8; stroke-linejoin: miter; stroke-linecap: square"/>
   </g>
   <g id="patch_10">
    <path d="M 407.715312 307.872 
L 407.715312 186.912 
" style="fill: none; stroke: #000000; stroke-width: 0.8; stroke-linejoin: miter; stroke-linecap: square"/>
   </g>
   <g id="patch_11">
    <path d="M 50.595313 307.872 
L 407.715313 307.872 
" style="fill: none; stroke: #000000; stroke-width: 0.8; stroke-linejoin: miter; stroke-linecap: square"/>
   </g>
   <g id="patch_12">
    <path d="M 50.595313 186.912 
L 407.715313 186.912 
" style="fill: none; stroke: #000000; stroke-width: 0.8; stroke-linejoin: miter; stroke-linecap: square"/>
   </g>
  </g>
  <g id="text_17">
   <!-- S21 One-tone -->
   <g transform="translate(182.144375 16.318125) scale(0.12 -0.12)">
    <defs>
     <path id="DejaVuSans-4f" d="M 2522 4238 
Q 1834 4238 1429 3725 
Q 1025 3213 1025 2328 
Q 1025 1447 1429 934 
Q 1834 422 2522 422 
Q 3209 422 3611 934 
Q 4013 1447 4013 2328 
Q 4013 3213 3611 3725 
Q 3209 4238 2522 4238 
z
M 2522 4750 
Q 3503 4750 4090 4092 
Q 4678 3434 4678 2328 
Q 4678 1225 4090 567 
Q 3503 -91 2522 -91 
Q 1538 -91 948 565 
Q 359 1222 359 2328 
Q 359 3434 948 4092 
Q 1538 4750 2522 4750 
z
" transform="scale(0.015625)"/>
     <path id="DejaVuSans-74" d="M 1172 4494 
L 1172 3500 
L 2356 3500 
L 2356 3053 
L 1172 3053 
L 1172 1153 
Q 1172 725 1289 603 
Q 1406 481 1766 481 
L 2356 481 
L 2356 0 
L 1766 0 
Q 1100 0 847 248 
Q 594 497 594 1153 
L 594 3053 
L 172 3053 
L 172 3500 
L 594 3500 
L 594 4494 
L 1172 4494 
z
" transform="scale(0.015625)"/>
     <path id="DejaVuSans-6f" d="M 1959 3097 
Q 1497 3097 1228 2736 
Q 959 2375 959 1747 
Q 959 1119 1226 758 
Q 1494 397 1959 397 
Q 2419 397 2687 759 
Q 2956 1122 2956 1747 
Q 2956 2369 2687 2733 
Q 2419 3097 1959 3097 
z
M 1959 3584 
Q 2709 3584 3137 3096 
Q 3566 2609 3566 1747 
Q 3566 888 3137 398 
Q 2709 -91 1959 -91 
Q 1206 -91 779 398 
Q 353 888 353 1747 
Q 353 2609 779 3096 
Q 1206 3584 1959 3584 
z
" transform="scale(0.015625)"/>
    </defs>
    <use xlink:href="#DejaVuSans-53"/>
    <use xlink:href="#DejaVuSans-32" x="63.476562"/>
    <use xlink:href="#DejaVuSans-31" x="127.099609"/>
    <use xlink:href="#DejaVuSans-20" x="190.722656"/>
    <use xlink:href="#DejaVuSans-4f" x="222.509766"/>
    <use xlink:href="#DejaVuSans-6e" x="301.220703"/>
    <use xlink:href="#DejaVuSans-65" x="364.599609"/>
    <use xlink:href="#DejaVuSans-2d" x="426.123047"/>
    <use xlink:href="#DejaVuSans-74" x="462.207031"/>
    <use xlink:href="#DejaVuSans-6f" x="501.416016"/>
    <use xlink:href="#DejaVuSans-6e" x="562.597656"/>
    <use xlink:href="#DejaVuSans-65" x="625.976562"/>
   </g>
   <!-- tuid: 20240221-090020-066-705d20 -->
   <g transform="translate(113.548438 29.7555) scale(0.12 -0.12)">
    <defs>
     <path id="DejaVuSans-69" d="M 603 3500 
L 1178 3500 
L 1178 0 
L 603 0 
L 603 3500 
z
M 603 4863 
L 1178 4863 
L 1178 4134 
L 603 4134 
L 603 4863 
z
" transform="scale(0.015625)"/>
    </defs>
    <use xlink:href="#DejaVuSans-74"/>
    <use xlink:href="#DejaVuSans-75" x="39.208984"/>
    <use xlink:href="#DejaVuSans-69" x="102.587891"/>
    <use xlink:href="#DejaVuSans-64" x="130.371094"/>
    <use xlink:href="#DejaVuSans-3a" x="193.847656"/>
    <use xlink:href="#DejaVuSans-20" x="227.539062"/>
    <use xlink:href="#DejaVuSans-32" x="259.326172"/>
    <use xlink:href="#DejaVuSans-30" x="322.949219"/>
    <use xlink:href="#DejaVuSans-32" x="386.572266"/>
    <use xlink:href="#DejaVuSans-34" x="450.195312"/>
    <use xlink:href="#DejaVuSans-30" x="513.818359"/>
    <use xlink:href="#DejaVuSans-32" x="577.441406"/>
    <use xlink:href="#DejaVuSans-32" x="641.064453"/>
    <use xlink:href="#DejaVuSans-31" x="704.6875"/>
    <use xlink:href="#DejaVuSans-2d" x="768.310547"/>
    <use xlink:href="#DejaVuSans-30" x="804.394531"/>
    <use xlink:href="#DejaVuSans-39" x="868.017578"/>
    <use xlink:href="#DejaVuSans-30" x="931.640625"/>
    <use xlink:href="#DejaVuSans-30" x="995.263672"/>
    <use xlink:href="#DejaVuSans-32" x="1058.886719"/>
    <use xlink:href="#DejaVuSans-30" x="1122.509766"/>
    <use xlink:href="#DejaVuSans-2d" x="1186.132812"/>
    <use xlink:href="#DejaVuSans-30" x="1222.216797"/>
    <use xlink:href="#DejaVuSans-36" x="1285.839844"/>
    <use xlink:href="#DejaVuSans-36" x="1349.462891"/>
    <use xlink:href="#DejaVuSans-2d" x="1413.085938"/>
    <use xlink:href="#DejaVuSans-37" x="1449.169922"/>
    <use xlink:href="#DejaVuSans-30" x="1512.792969"/>
    <use xlink:href="#DejaVuSans-35" x="1576.416016"/>
    <use xlink:href="#DejaVuSans-64" x="1640.039062"/>
    <use xlink:href="#DejaVuSans-32" x="1703.515625"/>
    <use xlink:href="#DejaVuSans-30" x="1767.138672"/>
   </g>
  </g>
 </g>
 <defs>
  <clipPath id="pe941a410db">
   <rect x="50.595313" y="41.76" width="357.12" height="120.96"/>
  </clipPath>
  <clipPath id="p64399f0e0c">
   <rect x="50.595313" y="186.912" width="357.12" height="120.96"/>
  </clipPath>
 </defs>
</svg>
