<?xml version="1.0" encoding="utf-8" standalone="no"?>
<!DOCTYPE svg PUBLIC "-//W3C//DTD SVG 1.1//EN"
  "http://www.w3.org/Graphics/SVG/1.1/DTD/svg11.dtd">
<svg xmlns:xlink="http://www.w3.org/1999/xlink" width="565.565062pt" height="345.42825pt" viewBox="0 0 565.565062 345.42825" xmlns="http://www.w3.org/2000/svg" version="1.1">
 <metadata>
  <rdf:RDF xmlns:dc="http://purl.org/dc/elements/1.1/" xmlns:cc="http://creativecommons.org/ns#" xmlns:rdf="http://www.w3.org/1999/02/22-rdf-syntax-ns#">
   <cc:Work>
    <dc:type rdf:resource="http://purl.org/dc/dcmitype/StillImage"/>
    <dc:date>2024-02-20T15:00:21.916626</dc:date>
    <dc:format>image/svg+xml</dc:format>
    <dc:creator>
     <cc:Agent>
      <dc:title>Matplotlib v3.8.2, https://matplotlib.org/</dc:title>
     </cc:Agent>
    </dc:creator>
   </cc:Work>
  </rdf:RDF>
 </metadata>
 <defs>
  <style type="text/css">*{stroke-linejoin: round; stroke-linecap: butt}</style>
 </defs>
 <g id="figure_1">
  <g id="patch_1">
   <path d="M 0 345.42825 
L 565.565062 345.42825 
L 565.565062 -0 
L 0 -0 
L 0 345.42825 
z
" style="fill: none; opacity: 0"/>
  </g>
  <g id="axes_1">
   <g id="patch_2">
    <path d="M 47.389063 307.872 
L 404.509063 307.872 
L 404.509063 41.76 
L 47.389063 41.76 
z
" style="fill: #ffffff"/>
   </g>
   <g id="matplotlib.axis_1">
    <g id="xtick_1">
     <g id="line2d_1">
      <defs>
       <path id="m399ad88c90" d="M 0 0 
L 0 3.5 
" style="stroke: #000000; stroke-width: 0.8"/>
      </defs>
      <g>
       <use xlink:href="#m399ad88c90" x="81.325029" y="307.872" style="stroke: #000000; stroke-width: 0.8"/>
      </g>
     </g>
     <g id="text_1">
      <!-- -7.5 -->
      <g transform="translate(71.56956 322.470438) scale(0.1 -0.1)">
       <defs>
        <path id="DejaVuSans-2d" d="M 313 2009 
L 1997 2009 
L 1997 1497 
L 313 1497 
L 313 2009 
z
" transform="scale(0.015625)"/>
        <path id="DejaVuSans-37" d="M 525 4666 
L 3525 4666 
L 3525 4397 
L 1831 0 
L 1172 0 
L 2766 4134 
L 525 4134 
L 525 4666 
z
" transform="scale(0.015625)"/>
        <path id="DejaVuSans-2e" d="M 684 794 
L 1344 794 
L 1344 0 
L 684 0 
L 684 794 
z
" transform="scale(0.015625)"/>
        <path id="DejaVuSans-35" d="M 691 4666 
L 3169 4666 
L 3169 4134 
L 1269 4134 
L 1269 2991 
Q 1406 3038 1543 3061 
Q 1681 3084 1819 3084 
Q 2600 3084 3056 2656 
Q 3513 2228 3513 1497 
Q 3513 744 3044 326 
Q 2575 -91 1722 -91 
Q 1428 -91 1123 -41 
Q 819 9 494 109 
L 494 744 
Q 775 591 1075 516 
Q 1375 441 1709 441 
Q 2250 441 2565 725 
Q 2881 1009 2881 1497 
Q 2881 1984 2565 2268 
Q 2250 2553 1709 2553 
Q 1456 2553 1204 2497 
Q 953 2441 691 2322 
L 691 4666 
z
" transform="scale(0.015625)"/>
       </defs>
       <use xlink:href="#DejaVuSans-2d"/>
       <use xlink:href="#DejaVuSans-37" x="36.083984"/>
       <use xlink:href="#DejaVuSans-2e" x="99.707031"/>
       <use xlink:href="#DejaVuSans-35" x="131.494141"/>
      </g>
     </g>
    </g>
    <g id="xtick_2">
     <g id="line2d_2">
      <g>
       <use xlink:href="#m399ad88c90" x="129.177308" y="307.872" style="stroke: #000000; stroke-width: 0.8"/>
      </g>
     </g>
     <g id="text_2">
      <!-- -5 -->
      <g transform="translate(124.192152 322.470438) scale(0.1 -0.1)">
       <use xlink:href="#DejaVuSans-2d"/>
       <use xlink:href="#DejaVuSans-35" x="36.083984"/>
      </g>
     </g>
    </g>
    <g id="xtick_3">
     <g id="line2d_3">
      <g>
       <use xlink:href="#m399ad88c90" x="177.029587" y="307.872" style="stroke: #000000; stroke-width: 0.8"/>
      </g>
     </g>
     <g id="text_3">
      <!-- -2.5 -->
      <g transform="translate(167.274118 322.470438) scale(0.1 -0.1)">
       <defs>
        <path id="DejaVuSans-32" d="M 1228 531 
L 3431 531 
L 3431 0 
L 469 0 
L 469 531 
Q 828 903 1448 1529 
Q 2069 2156 2228 2338 
Q 2531 2678 2651 2914 
Q 2772 3150 2772 3378 
Q 2772 3750 2511 3984 
Q 2250 4219 1831 4219 
Q 1534 4219 1204 4116 
Q 875 4013 500 3803 
L 500 4441 
Q 881 4594 1212 4672 
Q 1544 4750 1819 4750 
Q 2544 4750 2975 4387 
Q 3406 4025 3406 3419 
Q 3406 3131 3298 2873 
Q 3191 2616 2906 2266 
Q 2828 2175 2409 1742 
Q 1991 1309 1228 531 
z
" transform="scale(0.015625)"/>
       </defs>
       <use xlink:href="#DejaVuSans-2d"/>
       <use xlink:href="#DejaVuSans-32" x="36.083984"/>
       <use xlink:href="#DejaVuSans-2e" x="99.707031"/>
       <use xlink:href="#DejaVuSans-35" x="131.494141"/>
      </g>
     </g>
    </g>
    <g id="xtick_4">
     <g id="line2d_4">
      <g>
       <use xlink:href="#m399ad88c90" x="224.881866" y="307.872" style="stroke: #000000; stroke-width: 0.8"/>
      </g>
     </g>
     <g id="text_4">
      <!-- 0 -->
      <g transform="translate(221.700616 322.470438) scale(0.1 -0.1)">
       <defs>
        <path id="DejaVuSans-30" d="M 2034 4250 
Q 1547 4250 1301 3770 
Q 1056 3291 1056 2328 
Q 1056 1369 1301 889 
Q 1547 409 2034 409 
Q 2525 409 2770 889 
Q 3016 1369 3016 2328 
Q 3016 3291 2770 3770 
Q 2525 4250 2034 4250 
z
M 2034 4750 
Q 2819 4750 3233 4129 
Q 3647 3509 3647 2328 
Q 3647 1150 3233 529 
Q 2819 -91 2034 -91 
Q 1250 -91 836 529 
Q 422 1150 422 2328 
Q 422 3509 836 4129 
Q 1250 4750 2034 4750 
z
" transform="scale(0.015625)"/>
       </defs>
       <use xlink:href="#DejaVuSans-30"/>
      </g>
     </g>
    </g>
    <g id="xtick_5">
     <g id="line2d_5">
      <g>
       <use xlink:href="#m399ad88c90" x="272.734144" y="307.872" style="stroke: #000000; stroke-width: 0.8"/>
      </g>
     </g>
     <g id="text_5">
      <!-- 2.5 -->
      <g transform="translate(264.782582 322.470438) scale(0.1 -0.1)">
       <use xlink:href="#DejaVuSans-32"/>
       <use xlink:href="#DejaVuSans-2e" x="63.623047"/>
       <use xlink:href="#DejaVuSans-35" x="95.410156"/>
      </g>
     </g>
    </g>
    <g id="xtick_6">
     <g id="line2d_6">
      <g>
       <use xlink:href="#m399ad88c90" x="320.586423" y="307.872" style="stroke: #000000; stroke-width: 0.8"/>
      </g>
     </g>
     <g id="text_6">
      <!-- 5 -->
      <g transform="translate(317.405173 322.470438) scale(0.1 -0.1)">
       <use xlink:href="#DejaVuSans-35"/>
      </g>
     </g>
    </g>
    <g id="xtick_7">
     <g id="line2d_7">
      <g>
       <use xlink:href="#m399ad88c90" x="368.438702" y="307.872" style="stroke: #000000; stroke-width: 0.8"/>
      </g>
     </g>
     <g id="text_7">
      <!-- 7.5 -->
      <g transform="translate(360.487139 322.470438) scale(0.1 -0.1)">
       <use xlink:href="#DejaVuSans-37"/>
       <use xlink:href="#DejaVuSans-2e" x="63.623047"/>
       <use xlink:href="#DejaVuSans-35" x="95.410156"/>
      </g>
     </g>
    </g>
    <g id="text_8">
     <!-- Re$(S_{21})$ [mV] -->
     <g transform="translate(193.949063 336.148562) scale(0.1 -0.1)">
      <defs>
       <path id="DejaVuSans-52" d="M 2841 2188 
Q 3044 2119 3236 1894 
Q 3428 1669 3622 1275 
L 4263 0 
L 3584 0 
L 2988 1197 
Q 2756 1666 2539 1819 
Q 2322 1972 1947 1972 
L 1259 1972 
L 1259 0 
L 628 0 
L 628 4666 
L 2053 4666 
Q 2853 4666 3247 4331 
Q 3641 3997 3641 3322 
Q 3641 2881 3436 2590 
Q 3231 2300 2841 2188 
z
M 1259 4147 
L 1259 2491 
L 2053 2491 
Q 2509 2491 2742 2702 
Q 2975 2913 2975 3322 
Q 2975 3731 2742 3939 
Q 2509 4147 2053 4147 
L 1259 4147 
z
" transform="scale(0.015625)"/>
       <path id="DejaVuSans-65" d="M 3597 1894 
L 3597 1613 
L 953 1613 
Q 991 1019 1311 708 
Q 1631 397 2203 397 
Q 2534 397 2845 478 
Q 3156 559 3463 722 
L 3463 178 
Q 3153 47 2828 -22 
Q 2503 -91 2169 -91 
Q 1331 -91 842 396 
Q 353 884 353 1716 
Q 353 2575 817 3079 
Q 1281 3584 2069 3584 
Q 2775 3584 3186 3129 
Q 3597 2675 3597 1894 
z
M 3022 2063 
Q 3016 2534 2758 2815 
Q 2500 3097 2075 3097 
Q 1594 3097 1305 2825 
Q 1016 2553 972 2059 
L 3022 2063 
z
" transform="scale(0.015625)"/>
       <path id="DejaVuSans-28" d="M 1984 4856 
Q 1566 4138 1362 3434 
Q 1159 2731 1159 2009 
Q 1159 1288 1364 580 
Q 1569 -128 1984 -844 
L 1484 -844 
Q 1016 -109 783 600 
Q 550 1309 550 2009 
Q 550 2706 781 3412 
Q 1013 4119 1484 4856 
L 1984 4856 
z
" transform="scale(0.015625)"/>
       <path id="DejaVuSans-Oblique-53" d="M 3859 4513 
L 3738 3897 
Q 3422 4066 3111 4152 
Q 2800 4238 2509 4238 
Q 1944 4238 1609 3991 
Q 1275 3744 1275 3334 
Q 1275 3109 1398 2989 
Q 1522 2869 2034 2731 
L 2413 2638 
Q 3053 2472 3303 2217 
Q 3553 1963 3553 1503 
Q 3553 797 2998 353 
Q 2444 -91 1538 -91 
Q 1166 -91 791 -17 
Q 416 56 38 206 
L 166 856 
Q 513 641 861 531 
Q 1209 422 1556 422 
Q 2147 422 2503 684 
Q 2859 947 2859 1369 
Q 2859 1650 2717 1795 
Q 2575 1941 2106 2059 
L 1728 2156 
Q 1081 2325 845 2545 
Q 609 2766 609 3163 
Q 609 3859 1145 4304 
Q 1681 4750 2541 4750 
Q 2875 4750 3203 4690 
Q 3531 4631 3859 4513 
z
" transform="scale(0.015625)"/>
       <path id="DejaVuSans-31" d="M 794 531 
L 1825 531 
L 1825 4091 
L 703 3866 
L 703 4441 
L 1819 4666 
L 2450 4666 
L 2450 531 
L 3481 531 
L 3481 0 
L 794 0 
L 794 531 
z
" transform="scale(0.015625)"/>
       <path id="DejaVuSans-29" d="M 513 4856 
L 1013 4856 
Q 1481 4119 1714 3412 
Q 1947 2706 1947 2009 
Q 1947 1309 1714 600 
Q 1481 -109 1013 -844 
L 513 -844 
Q 928 -128 1133 580 
Q 1338 1288 1338 2009 
Q 1338 2731 1133 3434 
Q 928 4138 513 4856 
z
" transform="scale(0.015625)"/>
       <path id="DejaVuSans-20" transform="scale(0.015625)"/>
       <path id="DejaVuSans-5b" d="M 550 4863 
L 1875 4863 
L 1875 4416 
L 1125 4416 
L 1125 -397 
L 1875 -397 
L 1875 -844 
L 550 -844 
L 550 4863 
z
" transform="scale(0.015625)"/>
       <path id="DejaVuSans-6d" d="M 3328 2828 
Q 3544 3216 3844 3400 
Q 4144 3584 4550 3584 
Q 5097 3584 5394 3201 
Q 5691 2819 5691 2113 
L 5691 0 
L 5113 0 
L 5113 2094 
Q 5113 2597 4934 2840 
Q 4756 3084 4391 3084 
Q 3944 3084 3684 2787 
Q 3425 2491 3425 1978 
L 3425 0 
L 2847 0 
L 2847 2094 
Q 2847 2600 2669 2842 
Q 2491 3084 2119 3084 
Q 1678 3084 1418 2786 
Q 1159 2488 1159 1978 
L 1159 0 
L 581 0 
L 581 3500 
L 1159 3500 
L 1159 2956 
Q 1356 3278 1631 3431 
Q 1906 3584 2284 3584 
Q 2666 3584 2933 3390 
Q 3200 3197 3328 2828 
z
" transform="scale(0.015625)"/>
       <path id="DejaVuSans-56" d="M 1831 0 
L 50 4666 
L 709 4666 
L 2188 738 
L 3669 4666 
L 4325 4666 
L 2547 0 
L 1831 0 
z
" transform="scale(0.015625)"/>
       <path id="DejaVuSans-5d" d="M 1947 4863 
L 1947 -844 
L 622 -844 
L 622 -397 
L 1369 -397 
L 1369 4416 
L 622 4416 
L 622 4863 
L 1947 4863 
z
" transform="scale(0.015625)"/>
      </defs>
      <use xlink:href="#DejaVuSans-52" transform="translate(0 0.015625)"/>
      <use xlink:href="#DejaVuSans-65" transform="translate(69.482422 0.015625)"/>
      <use xlink:href="#DejaVuSans-28" transform="translate(131.005859 0.015625)"/>
      <use xlink:href="#DejaVuSans-Oblique-53" transform="translate(170.019531 0.015625)"/>
      <use xlink:href="#DejaVuSans-32" transform="translate(233.496094 -16.390625) scale(0.7)"/>
      <use xlink:href="#DejaVuSans-31" transform="translate(278.032227 -16.390625) scale(0.7)"/>
      <use xlink:href="#DejaVuSans-29" transform="translate(325.302734 0.015625)"/>
      <use xlink:href="#DejaVuSans-20" transform="translate(364.316406 0.015625)"/>
      <use xlink:href="#DejaVuSans-5b" transform="translate(396.103516 0.015625)"/>
      <use xlink:href="#DejaVuSans-6d" transform="translate(435.117188 0.015625)"/>
      <use xlink:href="#DejaVuSans-56" transform="translate(532.529297 0.015625)"/>
      <use xlink:href="#DejaVuSans-5d" transform="translate(600.9375 0.015625)"/>
     </g>
    </g>
   </g>
   <g id="matplotlib.axis_2">
    <g id="ytick_1">
     <g id="line2d_8">
      <defs>
       <path id="m8e569aee5a" d="M 0 0 
L -3.5 0 
" style="stroke: #000000; stroke-width: 0.8"/>
      </defs>
      <g>
       <use xlink:href="#m8e569aee5a" x="47.389063" y="281.026767" style="stroke: #000000; stroke-width: 0.8"/>
      </g>
     </g>
     <g id="text_9">
      <!-- -7.5 -->
      <g transform="translate(20.878125 284.825985) scale(0.1 -0.1)">
       <use xlink:href="#DejaVuSans-2d"/>
       <use xlink:href="#DejaVuSans-37" x="36.083984"/>
       <use xlink:href="#DejaVuSans-2e" x="99.707031"/>
       <use xlink:href="#DejaVuSans-35" x="131.494141"/>
      </g>
     </g>
    </g>
    <g id="ytick_2">
     <g id="line2d_9">
      <g>
       <use xlink:href="#m8e569aee5a" x="47.389063" y="245.210159" style="stroke: #000000; stroke-width: 0.8"/>
      </g>
     </g>
     <g id="text_10">
      <!-- -5 -->
      <g transform="translate(30.41875 249.009378) scale(0.1 -0.1)">
       <use xlink:href="#DejaVuSans-2d"/>
       <use xlink:href="#DejaVuSans-35" x="36.083984"/>
      </g>
     </g>
    </g>
    <g id="ytick_3">
     <g id="line2d_10">
      <g>
       <use xlink:href="#m8e569aee5a" x="47.389063" y="209.393552" style="stroke: #000000; stroke-width: 0.8"/>
      </g>
     </g>
     <g id="text_11">
      <!-- -2.5 -->
      <g transform="translate(20.878125 213.192771) scale(0.1 -0.1)">
       <use xlink:href="#DejaVuSans-2d"/>
       <use xlink:href="#DejaVuSans-32" x="36.083984"/>
       <use xlink:href="#DejaVuSans-2e" x="99.707031"/>
       <use xlink:href="#DejaVuSans-35" x="131.494141"/>
      </g>
     </g>
    </g>
    <g id="ytick_4">
     <g id="line2d_11">
      <g>
       <use xlink:href="#m8e569aee5a" x="47.389063" y="173.576945" style="stroke: #000000; stroke-width: 0.8"/>
      </g>
     </g>
     <g id="text_12">
      <!-- 0 -->
      <g transform="translate(34.026563 177.376164) scale(0.1 -0.1)">
       <use xlink:href="#DejaVuSans-30"/>
      </g>
     </g>
    </g>
    <g id="ytick_5">
     <g id="line2d_12">
      <g>
       <use xlink:href="#m8e569aee5a" x="47.389063" y="137.760338" style="stroke: #000000; stroke-width: 0.8"/>
      </g>
     </g>
     <g id="text_13">
      <!-- 2.5 -->
      <g transform="translate(24.485938 141.559556) scale(0.1 -0.1)">
       <use xlink:href="#DejaVuSans-32"/>
       <use xlink:href="#DejaVuSans-2e" x="63.623047"/>
       <use xlink:href="#DejaVuSans-35" x="95.410156"/>
      </g>
     </g>
    </g>
    <g id="ytick_6">
     <g id="line2d_13">
      <g>
       <use xlink:href="#m8e569aee5a" x="47.389063" y="101.94373" style="stroke: #000000; stroke-width: 0.8"/>
      </g>
     </g>
     <g id="text_14">
      <!-- 5 -->
      <g transform="translate(34.026563 105.742949) scale(0.1 -0.1)">
       <use xlink:href="#DejaVuSans-35"/>
      </g>
     </g>
    </g>
    <g id="ytick_7">
     <g id="line2d_14">
      <g>
       <use xlink:href="#m8e569aee5a" x="47.389063" y="66.127123" style="stroke: #000000; stroke-width: 0.8"/>
      </g>
     </g>
     <g id="text_15">
      <!-- 7.5 -->
      <g transform="translate(24.485938 69.926342) scale(0.1 -0.1)">
       <use xlink:href="#DejaVuSans-37"/>
       <use xlink:href="#DejaVuSans-2e" x="63.623047"/>
       <use xlink:href="#DejaVuSans-35" x="95.410156"/>
      </g>
     </g>
    </g>
    <g id="text_16">
     <!-- Im$(S_{21})$ [mV] -->
     <g transform="translate(14.798438 206.466) rotate(-90) scale(0.1 -0.1)">
      <defs>
       <path id="DejaVuSans-49" d="M 628 4666 
L 1259 4666 
L 1259 0 
L 628 0 
L 628 4666 
z
" transform="scale(0.015625)"/>
      </defs>
      <use xlink:href="#DejaVuSans-49" transform="translate(0 0.015625)"/>
      <use xlink:href="#DejaVuSans-6d" transform="translate(25.867188 0.015625)"/>
      <use xlink:href="#DejaVuSans-28" transform="translate(123.279297 0.015625)"/>
      <use xlink:href="#DejaVuSans-Oblique-53" transform="translate(162.292969 0.015625)"/>
      <use xlink:href="#DejaVuSans-32" transform="translate(225.769531 -16.390625) scale(0.7)"/>
      <use xlink:href="#DejaVuSans-31" transform="translate(270.305664 -16.390625) scale(0.7)"/>
      <use xlink:href="#DejaVuSans-29" transform="translate(317.576172 0.015625)"/>
      <use xlink:href="#DejaVuSans-20" transform="translate(356.589844 0.015625)"/>
      <use xlink:href="#DejaVuSans-5b" transform="translate(388.376953 0.015625)"/>
      <use xlink:href="#DejaVuSans-6d" transform="translate(427.390625 0.015625)"/>
      <use xlink:href="#DejaVuSans-56" transform="translate(524.802734 0.015625)"/>
      <use xlink:href="#DejaVuSans-5d" transform="translate(593.210938 0.015625)"/>
     </g>
    </g>
   </g>
   <g id="line2d_15">
    <path d="M 341.588286 87.479018 
L 348.368891 93.002554 
L 354.341192 98.89723 
L 361.378745 105.629607 
L 371.70161 119.393025 
L 377.073343 127.041493 
L 379.33292 134.887905 
L 383.01517 142.557142 
L 384.82084 150.533177 
L 387.557251 159.413438 
L 387.735682 166.71287 
L 388.276335 174.294043 
L 386.762511 182.513309 
L 386.78167 190.158599 
L 384.416889 198.359052 
L 381.842927 206.501621 
L 379.247964 213.936179 
L 374.357667 221.047856 
L 368.960247 229.250482 
L 364.153144 236.143036 
L 359.695205 241.96262 
L 352.698813 248.773595 
L 345.187329 255.224367 
L 339.031787 261.010648 
L 330.515671 265.658873 
L 322.533438 271.202276 
L 313.55932 275.988285 
L 304.328589 279.830247 
L 294.058878 283.713894 
L 285.043144 286.457401 
L 274.060959 289.317617 
L 264.284273 291.400295 
L 253.8458 292.574744 
L 242.640316 294.074608 
L 232.172089 295.200747 
L 211.370126 294.835085 
L 199.852412 292.994507 
L 188.868376 292.591482 
L 178.676958 289.131297 
L 169.288593 287.269659 
L 159.742108 284.124317 
L 148.562091 280.942199 
L 139.854799 276.051194 
L 131.259787 272.294461 
L 123.001161 267.536626 
L 114.213683 261.605984 
L 106.716767 256.279297 
L 99.294656 250.850125 
L 92.582938 243.163147 
L 87.038811 237.834258 
L 82.573621 230.54613 
L 77.970797 223.493667 
L 74.631395 216.411374 
L 70.041836 207.503608 
L 67.445026 199.78764 
L 65.493611 192.169974 
L 64.229446 184.287101 
L 63.62179 176.897909 
L 64.038878 168.145474 
L 64.973753 160.171802 
L 66.414296 152.505225 
L 68.798626 144.650487 
L 72.013261 136.631 
L 75.238747 129.779477 
L 79.147907 122.100697 
L 84.339886 114.83913 
L 95.326985 101.854425 
L 102.635965 95.231128 
L 110.753264 89.225566 
L 116.803466 83.763123 
L 127.192998 79.087024 
L 135.471189 73.780906 
L 144.106293 70.115116 
L 153.645845 65.209851 
L 163.492726 62.469717 
L 173.334446 59.87516 
L 183.275363 57.793157 
L 193.557684 55.993151 
L 204.631333 54.98636 
L 214.19485 54.425815 
L 226.594271 53.856 
L 235.981084 54.297529 
L 246.812764 55.095675 
L 257.146158 56.476502 
L 277.752775 60.688643 
L 288.109776 63.220942 
L 297.849489 67.104817 
L 306.718739 70.940518 
L 316.787597 75.839555 
L 323.150983 80.08016 
L 332.927594 85.568836 
L 339.776169 91.078273 
L 346.562291 97.371596 
L 353.782524 103.81237 
L 359.124844 110.654784 
L 364.485781 117.813374 
L 368.946142 124.314444 
L 377.009464 139.596811 
L 378.74 146.484217 
L 380.950504 154.679277 
L 382.451331 162.487644 
L 383.7161 170.969552 
L 383.114606 179.375862 
L 383.27195 186.082295 
L 380.385735 194.014485 
L 379.04849 201.737466 
L 375.009935 210.308963 
L 371.024623 217.521476 
L 366.176255 224.613154 
L 362.332387 231.772654 
L 356.384968 238.303174 
L 350.395522 245.209501 
L 343.563231 251.528884 
L 335.91438 256.556038 
L 328.466307 262.146564 
L 320.049318 267.939364 
L 311.74386 271.400316 
L 292.774492 280.202089 
L 282.839363 282.289149 
L 272.68985 285.017541 
L 261.775594 288.13843 
L 252.228052 289.155065 
L 241.25764 290.553708 
L 231.215179 290.568983 
L 220.659354 289.737785 
L 208.987989 289.553968 
L 199.407005 288.612101 
L 189.293862 286.072775 
L 178.435294 285.081287 
L 168.721781 281.624626 
L 159.500907 278.502355 
L 149.512806 275.499933 
L 140.875378 271.356003 
L 132.293256 266.27128 
L 118.306523 256.172904 
L 110.17114 250.025868 
L 102.997927 243.831722 
L 96.441398 237.283543 
L 91.219557 230.959237 
L 86.635505 224.243597 
L 82.521818 216.050062 
L 79.571125 209.761419 
L 75.873235 201.327628 
L 74.190154 193.602638 
L 73.04781 185.292401 
L 71.826031 177.704285 
L 72.598078 170.150795 
L 74.402625 162.282837 
L 74.454405 154.439808 
L 76.585115 147.53754 
L 80.031199 138.857782 
L 84.805814 131.700581 
L 88.618796 124.491308 
L 94.059696 117.476793 
L 99.378298 111.337049 
L 106.964967 105.353125 
L 112.573025 98.758477 
L 120.57906 92.929889 
L 129.151907 88.871159 
L 137.413211 83.025619 
L 145.890793 79.374551 
L 163.481033 72.326598 
L 174.225663 69.669086 
L 183.57856 67.163733 
L 194.560932 65.315019 
L 204.466788 65.392933 
L 215.222943 63.957882 
L 225.526742 65.043271 
L 234.963819 64.429825 
L 246.155474 65.89699 
L 256.704945 67.089577 
L 276.054452 73.025633 
L 284.890231 75.870941 
L 294.61107 79.965474 
L 301.77555 84.896044 
L 310.78111 89.53312 
L 319.237012 95.001971 
L 325.736946 100.655477 
L 331.658973 106.42124 
L 337.324772 113.029287 
L 342.53447 119.855526 
L 346.329107 126.935243 
L 350.808202 133.247837 
L 352.970718 141.063427 
L 355.599466 147.342769 
L 356.108388 155.936914 
L 357.45835 164.094726 
L 356.775243 170.755653 
L 354.818461 178.638239 
L 352.473704 185.540962 
L 350.258338 193.303896 
L 350.258338 193.303896 
" clip-path="url(#p8081e28376)" style="fill: none; stroke: #1f77b4; stroke-width: 1.5; stroke-linecap: square"/>
    <defs>
     <path id="me612a498e2" d="M 0 1.5 
C 0.397805 1.5 0.77937 1.341951 1.06066 1.06066 
C 1.341951 0.77937 1.5 0.397805 1.5 0 
C 1.5 -0.397805 1.341951 -0.77937 1.06066 -1.06066 
C 0.77937 -1.341951 0.397805 -1.5 0 -1.5 
C -0.397805 -1.5 -0.77937 -1.341951 -1.06066 -1.06066 
C -1.341951 -0.77937 -1.5 -0.397805 -1.5 0 
C -1.5 0.397805 -1.341951 0.77937 -1.06066 1.06066 
C -0.77937 1.341951 -0.397805 1.5 0 1.5 
z
" style="stroke: #1f77b4"/>
    </defs>
    <g clip-path="url(#p8081e28376)">
     <use xlink:href="#me612a498e2" x="341.588286" y="87.479018" style="fill: #1f77b4; stroke: #1f77b4"/>
     <use xlink:href="#me612a498e2" x="348.368891" y="93.002554" style="fill: #1f77b4; stroke: #1f77b4"/>
     <use xlink:href="#me612a498e2" x="354.341192" y="98.89723" style="fill: #1f77b4; stroke: #1f77b4"/>
     <use xlink:href="#me612a498e2" x="361.378745" y="105.629607" style="fill: #1f77b4; stroke: #1f77b4"/>
     <use xlink:href="#me612a498e2" x="367.164195" y="113.260571" style="fill: #1f77b4; stroke: #1f77b4"/>
     <use xlink:href="#me612a498e2" x="371.70161" y="119.393025" style="fill: #1f77b4; stroke: #1f77b4"/>
     <use xlink:href="#me612a498e2" x="377.073343" y="127.041493" style="fill: #1f77b4; stroke: #1f77b4"/>
     <use xlink:href="#me612a498e2" x="379.33292" y="134.887905" style="fill: #1f77b4; stroke: #1f77b4"/>
     <use xlink:href="#me612a498e2" x="383.01517" y="142.557142" style="fill: #1f77b4; stroke: #1f77b4"/>
     <use xlink:href="#me612a498e2" x="384.82084" y="150.533177" style="fill: #1f77b4; stroke: #1f77b4"/>
     <use xlink:href="#me612a498e2" x="387.557251" y="159.413438" style="fill: #1f77b4; stroke: #1f77b4"/>
     <use xlink:href="#me612a498e2" x="387.735682" y="166.71287" style="fill: #1f77b4; stroke: #1f77b4"/>
     <use xlink:href="#me612a498e2" x="388.276335" y="174.294043" style="fill: #1f77b4; stroke: #1f77b4"/>
     <use xlink:href="#me612a498e2" x="386.762511" y="182.513309" style="fill: #1f77b4; stroke: #1f77b4"/>
     <use xlink:href="#me612a498e2" x="386.78167" y="190.158599" style="fill: #1f77b4; stroke: #1f77b4"/>
     <use xlink:href="#me612a498e2" x="384.416889" y="198.359052" style="fill: #1f77b4; stroke: #1f77b4"/>
     <use xlink:href="#me612a498e2" x="381.842927" y="206.501621" style="fill: #1f77b4; stroke: #1f77b4"/>
     <use xlink:href="#me612a498e2" x="379.247964" y="213.936179" style="fill: #1f77b4; stroke: #1f77b4"/>
     <use xlink:href="#me612a498e2" x="374.357667" y="221.047856" style="fill: #1f77b4; stroke: #1f77b4"/>
     <use xlink:href="#me612a498e2" x="368.960247" y="229.250482" style="fill: #1f77b4; stroke: #1f77b4"/>
     <use xlink:href="#me612a498e2" x="364.153144" y="236.143036" style="fill: #1f77b4; stroke: #1f77b4"/>
     <use xlink:href="#me612a498e2" x="359.695205" y="241.96262" style="fill: #1f77b4; stroke: #1f77b4"/>
     <use xlink:href="#me612a498e2" x="352.698813" y="248.773595" style="fill: #1f77b4; stroke: #1f77b4"/>
     <use xlink:href="#me612a498e2" x="345.187329" y="255.224367" style="fill: #1f77b4; stroke: #1f77b4"/>
     <use xlink:href="#me612a498e2" x="339.031787" y="261.010648" style="fill: #1f77b4; stroke: #1f77b4"/>
     <use xlink:href="#me612a498e2" x="330.515671" y="265.658873" style="fill: #1f77b4; stroke: #1f77b4"/>
     <use xlink:href="#me612a498e2" x="322.533438" y="271.202276" style="fill: #1f77b4; stroke: #1f77b4"/>
     <use xlink:href="#me612a498e2" x="313.55932" y="275.988285" style="fill: #1f77b4; stroke: #1f77b4"/>
     <use xlink:href="#me612a498e2" x="304.328589" y="279.830247" style="fill: #1f77b4; stroke: #1f77b4"/>
     <use xlink:href="#me612a498e2" x="294.058878" y="283.713894" style="fill: #1f77b4; stroke: #1f77b4"/>
     <use xlink:href="#me612a498e2" x="285.043144" y="286.457401" style="fill: #1f77b4; stroke: #1f77b4"/>
     <use xlink:href="#me612a498e2" x="274.060959" y="289.317617" style="fill: #1f77b4; stroke: #1f77b4"/>
     <use xlink:href="#me612a498e2" x="264.284273" y="291.400295" style="fill: #1f77b4; stroke: #1f77b4"/>
     <use xlink:href="#me612a498e2" x="253.8458" y="292.574744" style="fill: #1f77b4; stroke: #1f77b4"/>
     <use xlink:href="#me612a498e2" x="242.640316" y="294.074608" style="fill: #1f77b4; stroke: #1f77b4"/>
     <use xlink:href="#me612a498e2" x="232.172089" y="295.200747" style="fill: #1f77b4; stroke: #1f77b4"/>
     <use xlink:href="#me612a498e2" x="221.593103" y="295.016576" style="fill: #1f77b4; stroke: #1f77b4"/>
     <use xlink:href="#me612a498e2" x="211.370126" y="294.835085" style="fill: #1f77b4; stroke: #1f77b4"/>
     <use xlink:href="#me612a498e2" x="199.852412" y="292.994507" style="fill: #1f77b4; stroke: #1f77b4"/>
     <use xlink:href="#me612a498e2" x="188.868376" y="292.591482" style="fill: #1f77b4; stroke: #1f77b4"/>
     <use xlink:href="#me612a498e2" x="178.676958" y="289.131297" style="fill: #1f77b4; stroke: #1f77b4"/>
     <use xlink:href="#me612a498e2" x="169.288593" y="287.269659" style="fill: #1f77b4; stroke: #1f77b4"/>
     <use xlink:href="#me612a498e2" x="159.742108" y="284.124317" style="fill: #1f77b4; stroke: #1f77b4"/>
     <use xlink:href="#me612a498e2" x="148.562091" y="280.942199" style="fill: #1f77b4; stroke: #1f77b4"/>
     <use xlink:href="#me612a498e2" x="139.854799" y="276.051194" style="fill: #1f77b4; stroke: #1f77b4"/>
     <use xlink:href="#me612a498e2" x="131.259787" y="272.294461" style="fill: #1f77b4; stroke: #1f77b4"/>
     <use xlink:href="#me612a498e2" x="123.001161" y="267.536626" style="fill: #1f77b4; stroke: #1f77b4"/>
     <use xlink:href="#me612a498e2" x="114.213683" y="261.605984" style="fill: #1f77b4; stroke: #1f77b4"/>
     <use xlink:href="#me612a498e2" x="106.716767" y="256.279297" style="fill: #1f77b4; stroke: #1f77b4"/>
     <use xlink:href="#me612a498e2" x="99.294656" y="250.850125" style="fill: #1f77b4; stroke: #1f77b4"/>
     <use xlink:href="#me612a498e2" x="92.582938" y="243.163147" style="fill: #1f77b4; stroke: #1f77b4"/>
     <use xlink:href="#me612a498e2" x="87.038811" y="237.834258" style="fill: #1f77b4; stroke: #1f77b4"/>
     <use xlink:href="#me612a498e2" x="82.573621" y="230.54613" style="fill: #1f77b4; stroke: #1f77b4"/>
     <use xlink:href="#me612a498e2" x="77.970797" y="223.493667" style="fill: #1f77b4; stroke: #1f77b4"/>
     <use xlink:href="#me612a498e2" x="74.631395" y="216.411374" style="fill: #1f77b4; stroke: #1f77b4"/>
     <use xlink:href="#me612a498e2" x="70.041836" y="207.503608" style="fill: #1f77b4; stroke: #1f77b4"/>
     <use xlink:href="#me612a498e2" x="67.445026" y="199.78764" style="fill: #1f77b4; stroke: #1f77b4"/>
     <use xlink:href="#me612a498e2" x="65.493611" y="192.169974" style="fill: #1f77b4; stroke: #1f77b4"/>
     <use xlink:href="#me612a498e2" x="64.229446" y="184.287101" style="fill: #1f77b4; stroke: #1f77b4"/>
     <use xlink:href="#me612a498e2" x="63.62179" y="176.897909" style="fill: #1f77b4; stroke: #1f77b4"/>
     <use xlink:href="#me612a498e2" x="64.038878" y="168.145474" style="fill: #1f77b4; stroke: #1f77b4"/>
     <use xlink:href="#me612a498e2" x="64.973753" y="160.171802" style="fill: #1f77b4; stroke: #1f77b4"/>
     <use xlink:href="#me612a498e2" x="66.414296" y="152.505225" style="fill: #1f77b4; stroke: #1f77b4"/>
     <use xlink:href="#me612a498e2" x="68.798626" y="144.650487" style="fill: #1f77b4; stroke: #1f77b4"/>
     <use xlink:href="#me612a498e2" x="72.013261" y="136.631" style="fill: #1f77b4; stroke: #1f77b4"/>
     <use xlink:href="#me612a498e2" x="75.238747" y="129.779477" style="fill: #1f77b4; stroke: #1f77b4"/>
     <use xlink:href="#me612a498e2" x="79.147907" y="122.100697" style="fill: #1f77b4; stroke: #1f77b4"/>
     <use xlink:href="#me612a498e2" x="84.339886" y="114.83913" style="fill: #1f77b4; stroke: #1f77b4"/>
     <use xlink:href="#me612a498e2" x="89.835516" y="108.362717" style="fill: #1f77b4; stroke: #1f77b4"/>
     <use xlink:href="#me612a498e2" x="95.326985" y="101.854425" style="fill: #1f77b4; stroke: #1f77b4"/>
     <use xlink:href="#me612a498e2" x="102.635965" y="95.231128" style="fill: #1f77b4; stroke: #1f77b4"/>
     <use xlink:href="#me612a498e2" x="110.753264" y="89.225566" style="fill: #1f77b4; stroke: #1f77b4"/>
     <use xlink:href="#me612a498e2" x="116.803466" y="83.763123" style="fill: #1f77b4; stroke: #1f77b4"/>
     <use xlink:href="#me612a498e2" x="127.192998" y="79.087024" style="fill: #1f77b4; stroke: #1f77b4"/>
     <use xlink:href="#me612a498e2" x="135.471189" y="73.780906" style="fill: #1f77b4; stroke: #1f77b4"/>
     <use xlink:href="#me612a498e2" x="144.106293" y="70.115116" style="fill: #1f77b4; stroke: #1f77b4"/>
     <use xlink:href="#me612a498e2" x="153.645845" y="65.209851" style="fill: #1f77b4; stroke: #1f77b4"/>
     <use xlink:href="#me612a498e2" x="163.492726" y="62.469717" style="fill: #1f77b4; stroke: #1f77b4"/>
     <use xlink:href="#me612a498e2" x="173.334446" y="59.87516" style="fill: #1f77b4; stroke: #1f77b4"/>
     <use xlink:href="#me612a498e2" x="183.275363" y="57.793157" style="fill: #1f77b4; stroke: #1f77b4"/>
     <use xlink:href="#me612a498e2" x="193.557684" y="55.993151" style="fill: #1f77b4; stroke: #1f77b4"/>
     <use xlink:href="#me612a498e2" x="204.631333" y="54.98636" style="fill: #1f77b4; stroke: #1f77b4"/>
     <use xlink:href="#me612a498e2" x="214.19485" y="54.425815" style="fill: #1f77b4; stroke: #1f77b4"/>
     <use xlink:href="#me612a498e2" x="226.594271" y="53.856" style="fill: #1f77b4; stroke: #1f77b4"/>
     <use xlink:href="#me612a498e2" x="235.981084" y="54.297529" style="fill: #1f77b4; stroke: #1f77b4"/>
     <use xlink:href="#me612a498e2" x="246.812764" y="55.095675" style="fill: #1f77b4; stroke: #1f77b4"/>
     <use xlink:href="#me612a498e2" x="257.146158" y="56.476502" style="fill: #1f77b4; stroke: #1f77b4"/>
     <use xlink:href="#me612a498e2" x="267.445432" y="58.582655" style="fill: #1f77b4; stroke: #1f77b4"/>
     <use xlink:href="#me612a498e2" x="277.752775" y="60.688643" style="fill: #1f77b4; stroke: #1f77b4"/>
     <use xlink:href="#me612a498e2" x="288.109776" y="63.220942" style="fill: #1f77b4; stroke: #1f77b4"/>
     <use xlink:href="#me612a498e2" x="297.849489" y="67.104817" style="fill: #1f77b4; stroke: #1f77b4"/>
     <use xlink:href="#me612a498e2" x="306.718739" y="70.940518" style="fill: #1f77b4; stroke: #1f77b4"/>
     <use xlink:href="#me612a498e2" x="316.787597" y="75.839555" style="fill: #1f77b4; stroke: #1f77b4"/>
     <use xlink:href="#me612a498e2" x="323.150983" y="80.08016" style="fill: #1f77b4; stroke: #1f77b4"/>
     <use xlink:href="#me612a498e2" x="332.927594" y="85.568836" style="fill: #1f77b4; stroke: #1f77b4"/>
     <use xlink:href="#me612a498e2" x="339.776169" y="91.078273" style="fill: #1f77b4; stroke: #1f77b4"/>
     <use xlink:href="#me612a498e2" x="346.562291" y="97.371596" style="fill: #1f77b4; stroke: #1f77b4"/>
     <use xlink:href="#me612a498e2" x="353.782524" y="103.81237" style="fill: #1f77b4; stroke: #1f77b4"/>
     <use xlink:href="#me612a498e2" x="359.124844" y="110.654784" style="fill: #1f77b4; stroke: #1f77b4"/>
     <use xlink:href="#me612a498e2" x="364.485781" y="117.813374" style="fill: #1f77b4; stroke: #1f77b4"/>
     <use xlink:href="#me612a498e2" x="368.946142" y="124.314444" style="fill: #1f77b4; stroke: #1f77b4"/>
     <use xlink:href="#me612a498e2" x="373.05485" y="132.189566" style="fill: #1f77b4; stroke: #1f77b4"/>
     <use xlink:href="#me612a498e2" x="377.009464" y="139.596811" style="fill: #1f77b4; stroke: #1f77b4"/>
     <use xlink:href="#me612a498e2" x="378.74" y="146.484217" style="fill: #1f77b4; stroke: #1f77b4"/>
     <use xlink:href="#me612a498e2" x="380.950504" y="154.679277" style="fill: #1f77b4; stroke: #1f77b4"/>
     <use xlink:href="#me612a498e2" x="382.451331" y="162.487644" style="fill: #1f77b4; stroke: #1f77b4"/>
     <use xlink:href="#me612a498e2" x="383.7161" y="170.969552" style="fill: #1f77b4; stroke: #1f77b4"/>
     <use xlink:href="#me612a498e2" x="383.114606" y="179.375862" style="fill: #1f77b4; stroke: #1f77b4"/>
     <use xlink:href="#me612a498e2" x="383.27195" y="186.082295" style="fill: #1f77b4; stroke: #1f77b4"/>
     <use xlink:href="#me612a498e2" x="380.385735" y="194.014485" style="fill: #1f77b4; stroke: #1f77b4"/>
     <use xlink:href="#me612a498e2" x="379.04849" y="201.737466" style="fill: #1f77b4; stroke: #1f77b4"/>
     <use xlink:href="#me612a498e2" x="375.009935" y="210.308963" style="fill: #1f77b4; stroke: #1f77b4"/>
     <use xlink:href="#me612a498e2" x="371.024623" y="217.521476" style="fill: #1f77b4; stroke: #1f77b4"/>
     <use xlink:href="#me612a498e2" x="366.176255" y="224.613154" style="fill: #1f77b4; stroke: #1f77b4"/>
     <use xlink:href="#me612a498e2" x="362.332387" y="231.772654" style="fill: #1f77b4; stroke: #1f77b4"/>
     <use xlink:href="#me612a498e2" x="356.384968" y="238.303174" style="fill: #1f77b4; stroke: #1f77b4"/>
     <use xlink:href="#me612a498e2" x="350.395522" y="245.209501" style="fill: #1f77b4; stroke: #1f77b4"/>
     <use xlink:href="#me612a498e2" x="343.563231" y="251.528884" style="fill: #1f77b4; stroke: #1f77b4"/>
     <use xlink:href="#me612a498e2" x="335.91438" y="256.556038" style="fill: #1f77b4; stroke: #1f77b4"/>
     <use xlink:href="#me612a498e2" x="328.466307" y="262.146564" style="fill: #1f77b4; stroke: #1f77b4"/>
     <use xlink:href="#me612a498e2" x="320.049318" y="267.939364" style="fill: #1f77b4; stroke: #1f77b4"/>
     <use xlink:href="#me612a498e2" x="311.74386" y="271.400316" style="fill: #1f77b4; stroke: #1f77b4"/>
     <use xlink:href="#me612a498e2" x="302.488818" y="275.663094" style="fill: #1f77b4; stroke: #1f77b4"/>
     <use xlink:href="#me612a498e2" x="292.774492" y="280.202089" style="fill: #1f77b4; stroke: #1f77b4"/>
     <use xlink:href="#me612a498e2" x="282.839363" y="282.289149" style="fill: #1f77b4; stroke: #1f77b4"/>
     <use xlink:href="#me612a498e2" x="272.68985" y="285.017541" style="fill: #1f77b4; stroke: #1f77b4"/>
     <use xlink:href="#me612a498e2" x="261.775594" y="288.13843" style="fill: #1f77b4; stroke: #1f77b4"/>
     <use xlink:href="#me612a498e2" x="252.228052" y="289.155065" style="fill: #1f77b4; stroke: #1f77b4"/>
     <use xlink:href="#me612a498e2" x="241.25764" y="290.553708" style="fill: #1f77b4; stroke: #1f77b4"/>
     <use xlink:href="#me612a498e2" x="231.215179" y="290.568983" style="fill: #1f77b4; stroke: #1f77b4"/>
     <use xlink:href="#me612a498e2" x="220.659354" y="289.737785" style="fill: #1f77b4; stroke: #1f77b4"/>
     <use xlink:href="#me612a498e2" x="208.987989" y="289.553968" style="fill: #1f77b4; stroke: #1f77b4"/>
     <use xlink:href="#me612a498e2" x="199.407005" y="288.612101" style="fill: #1f77b4; stroke: #1f77b4"/>
     <use xlink:href="#me612a498e2" x="189.293862" y="286.072775" style="fill: #1f77b4; stroke: #1f77b4"/>
     <use xlink:href="#me612a498e2" x="178.435294" y="285.081287" style="fill: #1f77b4; stroke: #1f77b4"/>
     <use xlink:href="#me612a498e2" x="168.721781" y="281.624626" style="fill: #1f77b4; stroke: #1f77b4"/>
     <use xlink:href="#me612a498e2" x="159.500907" y="278.502355" style="fill: #1f77b4; stroke: #1f77b4"/>
     <use xlink:href="#me612a498e2" x="149.512806" y="275.499933" style="fill: #1f77b4; stroke: #1f77b4"/>
     <use xlink:href="#me612a498e2" x="140.875378" y="271.356003" style="fill: #1f77b4; stroke: #1f77b4"/>
     <use xlink:href="#me612a498e2" x="132.293256" y="266.27128" style="fill: #1f77b4; stroke: #1f77b4"/>
     <use xlink:href="#me612a498e2" x="124.952978" y="261.039217" style="fill: #1f77b4; stroke: #1f77b4"/>
     <use xlink:href="#me612a498e2" x="118.306523" y="256.172904" style="fill: #1f77b4; stroke: #1f77b4"/>
     <use xlink:href="#me612a498e2" x="110.17114" y="250.025868" style="fill: #1f77b4; stroke: #1f77b4"/>
     <use xlink:href="#me612a498e2" x="102.997927" y="243.831722" style="fill: #1f77b4; stroke: #1f77b4"/>
     <use xlink:href="#me612a498e2" x="96.441398" y="237.283543" style="fill: #1f77b4; stroke: #1f77b4"/>
     <use xlink:href="#me612a498e2" x="91.219557" y="230.959237" style="fill: #1f77b4; stroke: #1f77b4"/>
     <use xlink:href="#me612a498e2" x="86.635505" y="224.243597" style="fill: #1f77b4; stroke: #1f77b4"/>
     <use xlink:href="#me612a498e2" x="82.521818" y="216.050062" style="fill: #1f77b4; stroke: #1f77b4"/>
     <use xlink:href="#me612a498e2" x="79.571125" y="209.761419" style="fill: #1f77b4; stroke: #1f77b4"/>
     <use xlink:href="#me612a498e2" x="75.873235" y="201.327628" style="fill: #1f77b4; stroke: #1f77b4"/>
     <use xlink:href="#me612a498e2" x="74.190154" y="193.602638" style="fill: #1f77b4; stroke: #1f77b4"/>
     <use xlink:href="#me612a498e2" x="73.04781" y="185.292401" style="fill: #1f77b4; stroke: #1f77b4"/>
     <use xlink:href="#me612a498e2" x="71.826031" y="177.704285" style="fill: #1f77b4; stroke: #1f77b4"/>
     <use xlink:href="#me612a498e2" x="72.598078" y="170.150795" style="fill: #1f77b4; stroke: #1f77b4"/>
     <use xlink:href="#me612a498e2" x="74.402625" y="162.282837" style="fill: #1f77b4; stroke: #1f77b4"/>
     <use xlink:href="#me612a498e2" x="74.454405" y="154.439808" style="fill: #1f77b4; stroke: #1f77b4"/>
     <use xlink:href="#me612a498e2" x="76.585115" y="147.53754" style="fill: #1f77b4; stroke: #1f77b4"/>
     <use xlink:href="#me612a498e2" x="80.031199" y="138.857782" style="fill: #1f77b4; stroke: #1f77b4"/>
     <use xlink:href="#me612a498e2" x="84.805814" y="131.700581" style="fill: #1f77b4; stroke: #1f77b4"/>
     <use xlink:href="#me612a498e2" x="88.618796" y="124.491308" style="fill: #1f77b4; stroke: #1f77b4"/>
     <use xlink:href="#me612a498e2" x="94.059696" y="117.476793" style="fill: #1f77b4; stroke: #1f77b4"/>
     <use xlink:href="#me612a498e2" x="99.378298" y="111.337049" style="fill: #1f77b4; stroke: #1f77b4"/>
     <use xlink:href="#me612a498e2" x="106.964967" y="105.353125" style="fill: #1f77b4; stroke: #1f77b4"/>
     <use xlink:href="#me612a498e2" x="112.573025" y="98.758477" style="fill: #1f77b4; stroke: #1f77b4"/>
     <use xlink:href="#me612a498e2" x="120.57906" y="92.929889" style="fill: #1f77b4; stroke: #1f77b4"/>
     <use xlink:href="#me612a498e2" x="129.151907" y="88.871159" style="fill: #1f77b4; stroke: #1f77b4"/>
     <use xlink:href="#me612a498e2" x="137.413211" y="83.025619" style="fill: #1f77b4; stroke: #1f77b4"/>
     <use xlink:href="#me612a498e2" x="145.890793" y="79.374551" style="fill: #1f77b4; stroke: #1f77b4"/>
     <use xlink:href="#me612a498e2" x="155.357068" y="75.580898" style="fill: #1f77b4; stroke: #1f77b4"/>
     <use xlink:href="#me612a498e2" x="163.481033" y="72.326598" style="fill: #1f77b4; stroke: #1f77b4"/>
     <use xlink:href="#me612a498e2" x="174.225663" y="69.669086" style="fill: #1f77b4; stroke: #1f77b4"/>
     <use xlink:href="#me612a498e2" x="183.57856" y="67.163733" style="fill: #1f77b4; stroke: #1f77b4"/>
     <use xlink:href="#me612a498e2" x="194.560932" y="65.315019" style="fill: #1f77b4; stroke: #1f77b4"/>
     <use xlink:href="#me612a498e2" x="204.466788" y="65.392933" style="fill: #1f77b4; stroke: #1f77b4"/>
     <use xlink:href="#me612a498e2" x="215.222943" y="63.957882" style="fill: #1f77b4; stroke: #1f77b4"/>
     <use xlink:href="#me612a498e2" x="225.526742" y="65.043271" style="fill: #1f77b4; stroke: #1f77b4"/>
     <use xlink:href="#me612a498e2" x="234.963819" y="64.429825" style="fill: #1f77b4; stroke: #1f77b4"/>
     <use xlink:href="#me612a498e2" x="246.155474" y="65.89699" style="fill: #1f77b4; stroke: #1f77b4"/>
     <use xlink:href="#me612a498e2" x="256.704945" y="67.089577" style="fill: #1f77b4; stroke: #1f77b4"/>
     <use xlink:href="#me612a498e2" x="267.01802" y="70.252318" style="fill: #1f77b4; stroke: #1f77b4"/>
     <use xlink:href="#me612a498e2" x="276.054452" y="73.025633" style="fill: #1f77b4; stroke: #1f77b4"/>
     <use xlink:href="#me612a498e2" x="284.890231" y="75.870941" style="fill: #1f77b4; stroke: #1f77b4"/>
     <use xlink:href="#me612a498e2" x="294.61107" y="79.965474" style="fill: #1f77b4; stroke: #1f77b4"/>
     <use xlink:href="#me612a498e2" x="301.77555" y="84.896044" style="fill: #1f77b4; stroke: #1f77b4"/>
     <use xlink:href="#me612a498e2" x="310.78111" y="89.53312" style="fill: #1f77b4; stroke: #1f77b4"/>
     <use xlink:href="#me612a498e2" x="319.237012" y="95.001971" style="fill: #1f77b4; stroke: #1f77b4"/>
     <use xlink:href="#me612a498e2" x="325.736946" y="100.655477" style="fill: #1f77b4; stroke: #1f77b4"/>
     <use xlink:href="#me612a498e2" x="331.658973" y="106.42124" style="fill: #1f77b4; stroke: #1f77b4"/>
     <use xlink:href="#me612a498e2" x="337.324772" y="113.029287" style="fill: #1f77b4; stroke: #1f77b4"/>
     <use xlink:href="#me612a498e2" x="342.53447" y="119.855526" style="fill: #1f77b4; stroke: #1f77b4"/>
     <use xlink:href="#me612a498e2" x="346.329107" y="126.935243" style="fill: #1f77b4; stroke: #1f77b4"/>
     <use xlink:href="#me612a498e2" x="350.808202" y="133.247837" style="fill: #1f77b4; stroke: #1f77b4"/>
     <use xlink:href="#me612a498e2" x="352.970718" y="141.063427" style="fill: #1f77b4; stroke: #1f77b4"/>
     <use xlink:href="#me612a498e2" x="355.599466" y="147.342769" style="fill: #1f77b4; stroke: #1f77b4"/>
     <use xlink:href="#me612a498e2" x="356.108388" y="155.936914" style="fill: #1f77b4; stroke: #1f77b4"/>
     <use xlink:href="#me612a498e2" x="357.45835" y="164.094726" style="fill: #1f77b4; stroke: #1f77b4"/>
     <use xlink:href="#me612a498e2" x="356.775243" y="170.755653" style="fill: #1f77b4; stroke: #1f77b4"/>
     <use xlink:href="#me612a498e2" x="354.818461" y="178.638239" style="fill: #1f77b4; stroke: #1f77b4"/>
     <use xlink:href="#me612a498e2" x="352.473704" y="185.540962" style="fill: #1f77b4; stroke: #1f77b4"/>
     <use xlink:href="#me612a498e2" x="350.258338" y="193.303896" style="fill: #1f77b4; stroke: #1f77b4"/>
    </g>
   </g>
   <g id="line2d_16">
    <path d="M 333.363032 93.149541 
L 337.541585 96.400713 
L 341.546515 99.773475 
L 345.371511 103.262641 
L 349.010535 106.862843 
L 352.457838 110.568537 
L 355.707963 114.374013 
L 358.755756 118.273403 
L 361.596376 122.260689 
L 364.225299 126.329714 
L 366.638329 130.474191 
L 368.8316 134.687712 
L 370.801589 138.963758 
L 372.545113 143.29571 
L 374.059343 147.676857 
L 375.341801 152.100409 
L 376.390369 156.559506 
L 377.203292 161.04723 
L 377.779177 165.556611 
L 378.117 170.080644 
L 378.216107 174.612298 
L 378.076211 179.144523 
L 377.697401 183.670266 
L 377.080132 188.182479 
L 376.225232 192.674131 
L 375.133898 197.138219 
L 373.807696 201.567777 
L 372.248558 205.955889 
L 370.458775 210.2957 
L 368.441004 214.580424 
L 366.198252 218.803358 
L 363.733882 222.95789 
L 361.0516 227.037508 
L 358.155455 231.035815 
L 355.04983 234.946536 
L 351.739437 238.763525 
L 348.229309 242.48078 
L 344.524792 246.09245 
L 340.63154 249.592843 
L 336.555501 252.976436 
L 332.302913 256.237884 
L 327.880293 259.37203 
L 323.294426 262.373907 
L 318.552356 265.238754 
L 313.661374 267.962019 
L 308.629009 270.539364 
L 303.463014 272.966678 
L 298.171355 275.240078 
L 292.762201 277.355919 
L 287.243909 279.310798 
L 281.625011 281.101559 
L 275.914202 282.725299 
L 270.120329 284.179372 
L 264.252371 285.461396 
L 258.319431 286.569253 
L 252.330722 287.501094 
L 246.295547 288.255342 
L 240.223292 288.830697 
L 234.123406 289.226136 
L 228.00539 289.440912 
L 221.87878 289.474562 
L 215.753134 289.326902 
L 209.638015 288.998032 
L 203.542978 288.488333 
L 197.477555 287.798467 
L 191.451241 286.929379 
L 185.473477 285.882291 
L 179.553635 284.658706 
L 173.701008 283.260401 
L 167.92479 281.689428 
L 162.234066 279.948107 
L 156.637794 278.039029 
L 151.144795 275.965045 
L 145.763735 273.729269 
L 140.503116 271.335067 
L 135.371256 268.786055 
L 130.376286 266.086095 
L 125.526126 263.239286 
L 120.828481 260.249962 
L 116.290825 257.122681 
L 111.920388 253.862221 
L 107.724149 250.473572 
L 103.708821 246.96193 
L 99.880842 243.332685 
L 96.246364 239.591419 
L 92.811243 235.743893 
L 89.581032 231.796037 
L 86.560967 227.753947 
L 83.755964 223.623871 
L 81.170609 219.4122 
L 78.809148 215.125461 
L 76.675484 210.770301 
L 74.773168 206.353486 
L 73.105394 201.881881 
L 71.674993 197.362448 
L 70.484429 192.802227 
L 69.535794 188.208333 
L 68.830805 183.587939 
L 68.370801 178.948271 
L 68.156738 174.296588 
L 68.189191 169.640181 
L 68.468349 164.986355 
L 68.994017 160.342419 
L 69.765613 155.715675 
L 70.782172 151.113409 
L 72.042343 146.542875 
L 73.544394 142.011287 
L 75.286212 137.525809 
L 77.265305 133.093538 
L 79.478809 128.721499 
L 81.923489 124.416633 
L 84.595743 120.185782 
L 87.491609 116.035682 
L 90.60677 111.972952 
L 93.936559 108.004082 
L 97.475969 104.135424 
L 101.219654 100.373183 
L 105.161944 96.723404 
L 109.296848 93.191963 
L 113.618067 89.784562 
L 118.119 86.506714 
L 122.792753 83.363738 
L 127.632154 80.360748 
L 132.629758 77.502645 
L 137.777864 74.794113 
L 143.06852 72.239606 
L 148.493542 69.843342 
L 154.044518 67.609299 
L 159.712831 65.541204 
L 165.489661 63.642532 
L 171.366006 61.916493 
L 177.332695 60.366035 
L 183.380397 58.99383 
L 189.499641 57.802279 
L 195.680828 56.793499 
L 201.914243 55.969323 
L 208.190076 55.331299 
L 214.498432 54.88068 
L 220.829347 54.61843 
L 227.172808 54.545216 
L 233.518759 54.661408 
L 239.857128 54.967077 
L 246.177835 55.461998 
L 252.470808 56.145643 
L 258.726002 57.017189 
L 264.933415 58.075511 
L 271.083098 59.319189 
L 277.165179 60.746505 
L 283.16987 62.355451 
L 289.08749 64.143724 
L 294.908475 66.108733 
L 300.623397 68.247605 
L 306.222974 70.557182 
L 311.698093 73.034031 
L 317.039817 75.674445 
L 322.239402 78.474451 
L 327.288312 81.429815 
L 332.178235 84.536046 
L 336.90109 87.788402 
L 341.449048 91.181901 
L 345.814538 94.711324 
L 349.990267 98.371224 
L 353.969225 102.155934 
L 357.744701 106.059575 
L 361.310293 110.076064 
L 364.659922 114.199126 
L 367.787837 118.422298 
L 370.688629 122.738944 
L 373.357241 127.142259 
L 375.788974 131.625287 
L 377.979499 136.180925 
L 379.924862 140.801934 
L 381.621493 145.480955 
L 383.066215 150.210515 
L 384.256245 154.983041 
L 385.189205 159.790871 
L 385.863126 164.626267 
L 386.27645 169.481425 
L 386.428036 174.348487 
L 386.317166 179.219555 
L 385.94354 184.086705 
L 385.307289 188.941995 
L 384.408965 193.777479 
L 383.249551 198.585222 
L 381.830456 203.357312 
L 380.153517 208.085871 
L 378.220997 212.763068 
L 376.035581 217.381134 
L 373.600377 221.932372 
L 370.918913 226.409172 
L 367.99513 230.804022 
L 364.833379 235.109522 
L 361.438417 239.318394 
L 357.8154 243.423497 
L 353.969877 247.417839 
L 349.907782 251.294587 
L 345.635428 255.047082 
L 341.159497 258.668846 
L 336.487033 262.1536 
L 331.625428 265.49527 
L 326.582418 268.688 
L 321.366067 271.726163 
L 315.984757 274.60437 
L 310.447177 277.317484 
L 304.762308 279.860624 
L 298.939415 282.229183 
L 292.988024 284.418826 
L 286.917918 286.425511 
L 280.739114 288.245487 
L 274.461853 289.87531 
L 268.096579 291.311845 
L 261.653927 292.552279 
L 255.144707 293.59412 
L 248.579879 294.435213 
L 241.970546 295.073736 
L 235.327926 295.508213 
L 228.663339 295.737516 
L 221.988188 295.760867 
L 215.313938 295.577847 
L 208.652095 295.188395 
L 202.014191 294.592812 
L 195.411758 293.791762 
L 188.856312 292.786276 
L 182.35933 291.577752 
L 175.93223 290.167952 
L 169.586349 288.559006 
L 163.332924 286.753408 
L 157.183068 284.754016 
L 151.14775 282.564049 
L 145.237776 280.187082 
L 139.463762 277.627046 
L 133.836118 274.888218 
L 128.365024 271.975223 
L 123.060411 268.89302 
L 117.931937 265.646901 
L 112.98897 262.242481 
L 108.240564 258.685691 
L 103.695442 254.982768 
L 99.361974 251.140244 
L 95.248159 247.164938 
L 91.361606 243.063944 
L 87.709514 238.844618 
L 84.298656 234.514565 
L 81.135364 230.081627 
L 78.225505 225.553869 
L 75.574475 220.939559 
L 73.187177 216.247161 
L 71.068009 211.485309 
L 69.220854 206.662799 
L 67.649063 201.788564 
L 66.355446 196.87166 
L 65.342265 191.921244 
L 64.61122 186.946558 
L 64.163448 181.956908 
L 63.99951 176.961641 
L 64.119391 171.970127 
L 64.522496 166.991737 
L 65.207647 162.03582 
L 66.173082 157.111685 
L 67.416459 152.228575 
L 68.934858 147.395647 
L 70.724783 142.62195 
L 72.782171 137.9164 
L 75.102399 133.287765 
L 77.680293 128.744635 
L 80.510142 124.295404 
L 83.585706 119.948251 
L 86.900236 115.711116 
L 90.446486 111.591681 
L 94.216735 107.597351 
L 98.202805 103.735235 
L 102.396081 100.012125 
L 106.787535 96.434485 
L 111.367753 93.00843 
L 116.126956 89.73971 
L 121.055028 86.633702 
L 126.141548 83.695391 
L 131.375814 80.929362 
L 136.746877 78.339789 
L 142.243572 75.930426 
L 147.854544 73.704602 
L 153.568289 71.665212 
L 159.37318 69.814715 
L 165.257504 68.155132 
L 171.209491 66.688044 
L 177.21735 65.414593 
L 183.269303 64.335485 
L 189.353612 63.45099 
L 195.458617 62.760956 
L 201.572762 62.264808 
L 207.684628 61.961557 
L 213.782962 61.849817 
L 219.856704 61.927806 
L 225.895014 62.193369 
L 231.887298 62.643982 
L 237.823232 63.276773 
L 243.692782 64.088537 
L 249.486226 65.075751 
L 255.194175 66.234589 
L 260.807585 67.560949 
L 266.317775 69.05046 
L 271.71644 70.69851 
L 276.995661 72.50026 
L 282.147915 74.450668 
L 287.166083 76.544503 
L 292.043451 78.776369 
L 296.773721 81.140723 
L 301.351006 83.631893 
L 305.769834 86.244099 
L 310.025144 88.971466 
L 314.112285 91.808048 
L 318.02701 94.747843 
L 321.76547 97.784805 
L 325.32421 100.912865 
L 328.700155 104.125943 
L 331.890606 107.417962 
L 334.893228 110.782862 
L 337.706039 114.21461 
L 340.327399 117.707214 
L 342.755999 121.254728 
L 344.990845 124.851269 
L 347.031252 128.491016 
L 348.876825 132.168225 
L 350.52745 135.877233 
L 351.983281 139.612462 
L 353.244724 143.368424 
L 354.312432 147.139727 
L 355.187285 150.921079 
L 355.870382 154.707287 
L 356.363031 158.493261 
L 356.666736 162.274016 
L 356.783189 166.044674 
L 356.714257 169.800459 
L 356.461976 173.536706 
L 356.461976 173.536706 
" clip-path="url(#p8081e28376)" style="fill: none; stroke: #d62728; stroke-width: 1.5; stroke-linecap: square"/>
   </g>
   <g id="patch_3">
    <path d="M 47.389063 307.872 
L 47.389063 41.76 
" style="fill: none; stroke: #000000; stroke-width: 0.8; stroke-linejoin: miter; stroke-linecap: square"/>
   </g>
   <g id="patch_4">
    <path d="M 404.509063 307.872 
L 404.509063 41.76 
" style="fill: none; stroke: #000000; stroke-width: 0.8; stroke-linejoin: miter; stroke-linecap: square"/>
   </g>
   <g id="patch_5">
    <path d="M 47.389063 307.872 
L 404.509063 307.872 
" style="fill: none; stroke: #000000; stroke-width: 0.8; stroke-linejoin: miter; stroke-linecap: square"/>
   </g>
   <g id="patch_6">
    <path d="M 47.389063 41.76 
L 404.509063 41.76 
" style="fill: none; stroke: #000000; stroke-width: 0.8; stroke-linejoin: miter; stroke-linecap: square"/>
   </g>
   <g id="text_17">
    <g id="patch_7">
     <path d="M 422.365063 102.337163 
L 558.365063 102.337163 
Q 562.365063 102.337163 562.365063 98.337163 
L 562.365063 55.0656 
Q 562.365063 51.0656 558.365063 51.0656 
L 422.365063 51.0656 
Q 418.365063 51.0656 418.365063 55.0656 
L 418.365063 98.337163 
Q 418.365063 102.337163 422.365063 102.337163 
z
" style="fill: #ffffff; opacity: 0.5; stroke: #000000; stroke-linejoin: miter"/>
    </g>
    <!-- Summary -->
    <g transform="translate(422.365063 62.664038) scale(0.1 -0.1)">
     <defs>
      <path id="DejaVuSans-53" d="M 3425 4513 
L 3425 3897 
Q 3066 4069 2747 4153 
Q 2428 4238 2131 4238 
Q 1616 4238 1336 4038 
Q 1056 3838 1056 3469 
Q 1056 3159 1242 3001 
Q 1428 2844 1947 2747 
L 2328 2669 
Q 3034 2534 3370 2195 
Q 3706 1856 3706 1288 
Q 3706 609 3251 259 
Q 2797 -91 1919 -91 
Q 1588 -91 1214 -16 
Q 841 59 441 206 
L 441 856 
Q 825 641 1194 531 
Q 1563 422 1919 422 
Q 2459 422 2753 634 
Q 3047 847 3047 1241 
Q 3047 1584 2836 1778 
Q 2625 1972 2144 2069 
L 1759 2144 
Q 1053 2284 737 2584 
Q 422 2884 422 3419 
Q 422 4038 858 4394 
Q 1294 4750 2059 4750 
Q 2388 4750 2728 4690 
Q 3069 4631 3425 4513 
z
" transform="scale(0.015625)"/>
      <path id="DejaVuSans-75" d="M 544 1381 
L 544 3500 
L 1119 3500 
L 1119 1403 
Q 1119 906 1312 657 
Q 1506 409 1894 409 
Q 2359 409 2629 706 
Q 2900 1003 2900 1516 
L 2900 3500 
L 3475 3500 
L 3475 0 
L 2900 0 
L 2900 538 
Q 2691 219 2414 64 
Q 2138 -91 1772 -91 
Q 1169 -91 856 284 
Q 544 659 544 1381 
z
M 1991 3584 
L 1991 3584 
z
" transform="scale(0.015625)"/>
      <path id="DejaVuSans-61" d="M 2194 1759 
Q 1497 1759 1228 1600 
Q 959 1441 959 1056 
Q 959 750 1161 570 
Q 1363 391 1709 391 
Q 2188 391 2477 730 
Q 2766 1069 2766 1631 
L 2766 1759 
L 2194 1759 
z
M 3341 1997 
L 3341 0 
L 2766 0 
L 2766 531 
Q 2569 213 2275 61 
Q 1981 -91 1556 -91 
Q 1019 -91 701 211 
Q 384 513 384 1019 
Q 384 1609 779 1909 
Q 1175 2209 1959 2209 
L 2766 2209 
L 2766 2266 
Q 2766 2663 2505 2880 
Q 2244 3097 1772 3097 
Q 1472 3097 1187 3025 
Q 903 2953 641 2809 
L 641 3341 
Q 956 3463 1253 3523 
Q 1550 3584 1831 3584 
Q 2591 3584 2966 3190 
Q 3341 2797 3341 1997 
z
" transform="scale(0.015625)"/>
      <path id="DejaVuSans-72" d="M 2631 2963 
Q 2534 3019 2420 3045 
Q 2306 3072 2169 3072 
Q 1681 3072 1420 2755 
Q 1159 2438 1159 1844 
L 1159 0 
L 581 0 
L 581 3500 
L 1159 3500 
L 1159 2956 
Q 1341 3275 1631 3429 
Q 1922 3584 2338 3584 
Q 2397 3584 2469 3576 
Q 2541 3569 2628 3553 
L 2631 2963 
z
" transform="scale(0.015625)"/>
      <path id="DejaVuSans-79" d="M 2059 -325 
Q 1816 -950 1584 -1140 
Q 1353 -1331 966 -1331 
L 506 -1331 
L 506 -850 
L 844 -850 
Q 1081 -850 1212 -737 
Q 1344 -625 1503 -206 
L 1606 56 
L 191 3500 
L 800 3500 
L 1894 763 
L 2988 3500 
L 3597 3500 
L 2059 -325 
z
" transform="scale(0.015625)"/>
     </defs>
     <use xlink:href="#DejaVuSans-53"/>
     <use xlink:href="#DejaVuSans-75" x="63.476562"/>
     <use xlink:href="#DejaVuSans-6d" x="126.855469"/>
     <use xlink:href="#DejaVuSans-6d" x="224.267578"/>
     <use xlink:href="#DejaVuSans-61" x="321.679688"/>
     <use xlink:href="#DejaVuSans-72" x="382.958984"/>
     <use xlink:href="#DejaVuSans-79" x="424.072266"/>
    </g>
    <!-- $Q_I$: 1.17$\pm$0.19 k -->
    <g transform="translate(422.365063 73.86185) scale(0.1 -0.1)">
     <defs>
      <path id="DejaVuSans-Oblique-51" d="M 2309 -84 
Q 2275 -88 2237 -89 
Q 2200 -91 2125 -91 
Q 1250 -91 756 411 
Q 263 913 263 1797 
Q 263 2319 452 2844 
Q 641 3369 978 3788 
Q 1369 4269 1858 4509 
Q 2347 4750 2938 4750 
Q 3794 4750 4287 4245 
Q 4781 3741 4781 2869 
Q 4781 1928 4265 1147 
Q 3750 366 2919 44 
L 3553 -825 
L 2847 -825 
L 2309 -84 
z
M 2919 4238 
Q 2400 4238 2003 3986 
Q 1606 3734 1313 3219 
Q 1125 2891 1026 2522 
Q 928 2153 928 1778 
Q 928 1128 1239 775 
Q 1550 422 2119 422 
Q 2631 422 3032 676 
Q 3434 931 3719 1434 
Q 3909 1772 4009 2142 
Q 4109 2513 4109 2881 
Q 4109 3528 3796 3883 
Q 3484 4238 2919 4238 
z
" transform="scale(0.015625)"/>
      <path id="DejaVuSans-Oblique-49" d="M 1081 4666 
L 1716 4666 
L 806 0 
L 172 0 
L 1081 4666 
z
" transform="scale(0.015625)"/>
      <path id="DejaVuSans-3a" d="M 750 794 
L 1409 794 
L 1409 0 
L 750 0 
L 750 794 
z
M 750 3309 
L 1409 3309 
L 1409 2516 
L 750 2516 
L 750 3309 
z
" transform="scale(0.015625)"/>
      <path id="DejaVuSans-b1" d="M 2944 4013 
L 2944 2803 
L 4684 2803 
L 4684 2272 
L 2944 2272 
L 2944 1063 
L 2419 1063 
L 2419 2272 
L 678 2272 
L 678 2803 
L 2419 2803 
L 2419 4013 
L 2944 4013 
z
M 678 531 
L 4684 531 
L 4684 0 
L 678 0 
L 678 531 
z
" transform="scale(0.015625)"/>
      <path id="DejaVuSans-39" d="M 703 97 
L 703 672 
Q 941 559 1184 500 
Q 1428 441 1663 441 
Q 2288 441 2617 861 
Q 2947 1281 2994 2138 
Q 2813 1869 2534 1725 
Q 2256 1581 1919 1581 
Q 1219 1581 811 2004 
Q 403 2428 403 3163 
Q 403 3881 828 4315 
Q 1253 4750 1959 4750 
Q 2769 4750 3195 4129 
Q 3622 3509 3622 2328 
Q 3622 1225 3098 567 
Q 2575 -91 1691 -91 
Q 1453 -91 1209 -44 
Q 966 3 703 97 
z
M 1959 2075 
Q 2384 2075 2632 2365 
Q 2881 2656 2881 3163 
Q 2881 3666 2632 3958 
Q 2384 4250 1959 4250 
Q 1534 4250 1286 3958 
Q 1038 3666 1038 3163 
Q 1038 2656 1286 2365 
Q 1534 2075 1959 2075 
z
" transform="scale(0.015625)"/>
      <path id="DejaVuSans-6b" d="M 581 4863 
L 1159 4863 
L 1159 1991 
L 2875 3500 
L 3609 3500 
L 1753 1863 
L 3688 0 
L 2938 0 
L 1159 1709 
L 1159 0 
L 581 0 
L 581 4863 
z
" transform="scale(0.015625)"/>
     </defs>
     <use xlink:href="#DejaVuSans-Oblique-51" transform="translate(0 0.015625)"/>
     <use xlink:href="#DejaVuSans-Oblique-49" transform="translate(78.710938 -16.390625) scale(0.7)"/>
     <use xlink:href="#DejaVuSans-3a" transform="translate(102.089844 0.015625)"/>
     <use xlink:href="#DejaVuSans-20" transform="translate(135.78125 0.015625)"/>
     <use xlink:href="#DejaVuSans-31" transform="translate(167.568359 0.015625)"/>
     <use xlink:href="#DejaVuSans-2e" transform="translate(231.191406 0.015625)"/>
     <use xlink:href="#DejaVuSans-31" transform="translate(262.978516 0.015625)"/>
     <use xlink:href="#DejaVuSans-37" transform="translate(326.601562 0.015625)"/>
     <use xlink:href="#DejaVuSans-b1" transform="translate(390.224609 0.015625)"/>
     <use xlink:href="#DejaVuSans-30" transform="translate(474.013672 0.015625)"/>
     <use xlink:href="#DejaVuSans-2e" transform="translate(537.636719 0.015625)"/>
     <use xlink:href="#DejaVuSans-31" transform="translate(569.423828 0.015625)"/>
     <use xlink:href="#DejaVuSans-39" transform="translate(633.046875 0.015625)"/>
     <use xlink:href="#DejaVuSans-20" transform="translate(696.669922 0.015625)"/>
     <use xlink:href="#DejaVuSans-6b" transform="translate(728.457031 0.015625)"/>
    </g>
    <!-- $Q_C$: 2.5$\pm$3.8e+02 M -->
    <g transform="translate(422.365063 85.059663) scale(0.1 -0.1)">
     <defs>
      <path id="DejaVuSans-Oblique-43" d="M 4447 4306 
L 4319 3641 
Q 4019 3944 3683 4091 
Q 3347 4238 2956 4238 
Q 2422 4238 2017 3981 
Q 1613 3725 1319 3200 
Q 1131 2863 1032 2486 
Q 934 2109 934 1728 
Q 934 1091 1264 756 
Q 1594 422 2222 422 
Q 2656 422 3056 561 
Q 3456 700 3834 978 
L 3688 231 
Q 3316 72 2936 -9 
Q 2556 -91 2175 -91 
Q 1278 -91 773 396 
Q 269 884 269 1753 
Q 269 2309 461 2846 
Q 653 3384 1013 3828 
Q 1394 4300 1883 4525 
Q 2372 4750 3022 4750 
Q 3422 4750 3780 4639 
Q 4138 4528 4447 4306 
z
" transform="scale(0.015625)"/>
      <path id="DejaVuSans-33" d="M 2597 2516 
Q 3050 2419 3304 2112 
Q 3559 1806 3559 1356 
Q 3559 666 3084 287 
Q 2609 -91 1734 -91 
Q 1441 -91 1130 -33 
Q 819 25 488 141 
L 488 750 
Q 750 597 1062 519 
Q 1375 441 1716 441 
Q 2309 441 2620 675 
Q 2931 909 2931 1356 
Q 2931 1769 2642 2001 
Q 2353 2234 1838 2234 
L 1294 2234 
L 1294 2753 
L 1863 2753 
Q 2328 2753 2575 2939 
Q 2822 3125 2822 3475 
Q 2822 3834 2567 4026 
Q 2313 4219 1838 4219 
Q 1578 4219 1281 4162 
Q 984 4106 628 3988 
L 628 4550 
Q 988 4650 1302 4700 
Q 1616 4750 1894 4750 
Q 2613 4750 3031 4423 
Q 3450 4097 3450 3541 
Q 3450 3153 3228 2886 
Q 3006 2619 2597 2516 
z
" transform="scale(0.015625)"/>
      <path id="DejaVuSans-38" d="M 2034 2216 
Q 1584 2216 1326 1975 
Q 1069 1734 1069 1313 
Q 1069 891 1326 650 
Q 1584 409 2034 409 
Q 2484 409 2743 651 
Q 3003 894 3003 1313 
Q 3003 1734 2745 1975 
Q 2488 2216 2034 2216 
z
M 1403 2484 
Q 997 2584 770 2862 
Q 544 3141 544 3541 
Q 544 4100 942 4425 
Q 1341 4750 2034 4750 
Q 2731 4750 3128 4425 
Q 3525 4100 3525 3541 
Q 3525 3141 3298 2862 
Q 3072 2584 2669 2484 
Q 3125 2378 3379 2068 
Q 3634 1759 3634 1313 
Q 3634 634 3220 271 
Q 2806 -91 2034 -91 
Q 1263 -91 848 271 
Q 434 634 434 1313 
Q 434 1759 690 2068 
Q 947 2378 1403 2484 
z
M 1172 3481 
Q 1172 3119 1398 2916 
Q 1625 2713 2034 2713 
Q 2441 2713 2670 2916 
Q 2900 3119 2900 3481 
Q 2900 3844 2670 4047 
Q 2441 4250 2034 4250 
Q 1625 4250 1398 4047 
Q 1172 3844 1172 3481 
z
" transform="scale(0.015625)"/>
      <path id="DejaVuSans-2b" d="M 2944 4013 
L 2944 2272 
L 4684 2272 
L 4684 1741 
L 2944 1741 
L 2944 0 
L 2419 0 
L 2419 1741 
L 678 1741 
L 678 2272 
L 2419 2272 
L 2419 4013 
L 2944 4013 
z
" transform="scale(0.015625)"/>
      <path id="DejaVuSans-4d" d="M 628 4666 
L 1569 4666 
L 2759 1491 
L 3956 4666 
L 4897 4666 
L 4897 0 
L 4281 0 
L 4281 4097 
L 3078 897 
L 2444 897 
L 1241 4097 
L 1241 0 
L 628 0 
L 628 4666 
z
" transform="scale(0.015625)"/>
     </defs>
     <use xlink:href="#DejaVuSans-Oblique-51" transform="translate(0 0.78125)"/>
     <use xlink:href="#DejaVuSans-Oblique-43" transform="translate(78.710938 -15.625) scale(0.7)"/>
     <use xlink:href="#DejaVuSans-3a" transform="translate(130.322266 0.78125)"/>
     <use xlink:href="#DejaVuSans-20" transform="translate(164.013672 0.78125)"/>
     <use xlink:href="#DejaVuSans-32" transform="translate(195.800781 0.78125)"/>
     <use xlink:href="#DejaVuSans-2e" transform="translate(259.423828 0.78125)"/>
     <use xlink:href="#DejaVuSans-35" transform="translate(291.210938 0.78125)"/>
     <use xlink:href="#DejaVuSans-b1" transform="translate(354.833984 0.78125)"/>
     <use xlink:href="#DejaVuSans-33" transform="translate(438.623047 0.78125)"/>
     <use xlink:href="#DejaVuSans-2e" transform="translate(502.246094 0.78125)"/>
     <use xlink:href="#DejaVuSans-38" transform="translate(531.408203 0.78125)"/>
     <use xlink:href="#DejaVuSans-65" transform="translate(595.03125 0.78125)"/>
     <use xlink:href="#DejaVuSans-2b" transform="translate(656.554688 0.78125)"/>
     <use xlink:href="#DejaVuSans-30" transform="translate(740.34375 0.78125)"/>
     <use xlink:href="#DejaVuSans-32" transform="translate(803.966797 0.78125)"/>
     <use xlink:href="#DejaVuSans-20" transform="translate(867.589844 0.78125)"/>
     <use xlink:href="#DejaVuSans-4d" transform="translate(899.376953 0.78125)"/>
    </g>
    <!-- $f_{res}$: 6.10391$\pm$0.00034 GHz -->
    <g transform="translate(422.365063 96.257475) scale(0.1 -0.1)">
     <defs>
      <path id="DejaVuSans-Oblique-66" d="M 3059 4863 
L 2969 4384 
L 2419 4384 
Q 2106 4384 1964 4261 
Q 1822 4138 1753 3809 
L 1691 3500 
L 2638 3500 
L 2553 3053 
L 1606 3053 
L 1013 0 
L 434 0 
L 1031 3053 
L 481 3053 
L 563 3500 
L 1113 3500 
L 1159 3744 
Q 1278 4363 1576 4613 
Q 1875 4863 2516 4863 
L 3059 4863 
z
" transform="scale(0.015625)"/>
      <path id="DejaVuSans-Oblique-72" d="M 2853 2969 
Q 2766 3016 2653 3041 
Q 2541 3066 2413 3066 
Q 1953 3066 1609 2717 
Q 1266 2369 1153 1784 
L 800 0 
L 225 0 
L 909 3500 
L 1484 3500 
L 1375 2956 
Q 1603 3259 1920 3421 
Q 2238 3584 2597 3584 
Q 2691 3584 2781 3573 
Q 2872 3563 2963 3538 
L 2853 2969 
z
" transform="scale(0.015625)"/>
      <path id="DejaVuSans-Oblique-65" d="M 3078 2063 
Q 3088 2113 3092 2166 
Q 3097 2219 3097 2272 
Q 3097 2653 2873 2875 
Q 2650 3097 2266 3097 
Q 1838 3097 1509 2826 
Q 1181 2556 1013 2059 
L 3078 2063 
z
M 3578 1613 
L 903 1613 
Q 884 1494 878 1425 
Q 872 1356 872 1306 
Q 872 872 1139 634 
Q 1406 397 1894 397 
Q 2269 397 2603 481 
Q 2938 566 3225 728 
L 3116 159 
Q 2806 34 2476 -28 
Q 2147 -91 1806 -91 
Q 1078 -91 686 257 
Q 294 606 294 1247 
Q 294 1794 489 2264 
Q 684 2734 1063 3103 
Q 1306 3334 1642 3459 
Q 1978 3584 2356 3584 
Q 2950 3584 3301 3228 
Q 3653 2872 3653 2272 
Q 3653 2128 3634 1964 
Q 3616 1800 3578 1613 
z
" transform="scale(0.015625)"/>
      <path id="DejaVuSans-Oblique-73" d="M 3200 3397 
L 3091 2853 
Q 2863 2978 2609 3040 
Q 2356 3103 2088 3103 
Q 1634 3103 1373 2948 
Q 1113 2794 1113 2528 
Q 1113 2219 1719 2053 
Q 1766 2041 1788 2034 
L 1972 1978 
Q 2547 1819 2739 1644 
Q 2931 1469 2931 1166 
Q 2931 609 2489 259 
Q 2047 -91 1331 -91 
Q 1053 -91 747 -37 
Q 441 16 72 128 
L 184 722 
Q 500 559 806 475 
Q 1113 391 1394 391 
Q 1816 391 2080 572 
Q 2344 753 2344 1031 
Q 2344 1331 1650 1516 
L 1591 1531 
L 1394 1581 
Q 956 1697 753 1886 
Q 550 2075 550 2369 
Q 550 2928 970 3256 
Q 1391 3584 2113 3584 
Q 2397 3584 2667 3537 
Q 2938 3491 3200 3397 
z
" transform="scale(0.015625)"/>
      <path id="DejaVuSans-36" d="M 2113 2584 
Q 1688 2584 1439 2293 
Q 1191 2003 1191 1497 
Q 1191 994 1439 701 
Q 1688 409 2113 409 
Q 2538 409 2786 701 
Q 3034 994 3034 1497 
Q 3034 2003 2786 2293 
Q 2538 2584 2113 2584 
z
M 3366 4563 
L 3366 3988 
Q 3128 4100 2886 4159 
Q 2644 4219 2406 4219 
Q 1781 4219 1451 3797 
Q 1122 3375 1075 2522 
Q 1259 2794 1537 2939 
Q 1816 3084 2150 3084 
Q 2853 3084 3261 2657 
Q 3669 2231 3669 1497 
Q 3669 778 3244 343 
Q 2819 -91 2113 -91 
Q 1303 -91 875 529 
Q 447 1150 447 2328 
Q 447 3434 972 4092 
Q 1497 4750 2381 4750 
Q 2619 4750 2861 4703 
Q 3103 4656 3366 4563 
z
" transform="scale(0.015625)"/>
      <path id="DejaVuSans-34" d="M 2419 4116 
L 825 1625 
L 2419 1625 
L 2419 4116 
z
M 2253 4666 
L 3047 4666 
L 3047 1625 
L 3713 1625 
L 3713 1100 
L 3047 1100 
L 3047 0 
L 2419 0 
L 2419 1100 
L 313 1100 
L 313 1709 
L 2253 4666 
z
" transform="scale(0.015625)"/>
      <path id="DejaVuSans-47" d="M 3809 666 
L 3809 1919 
L 2778 1919 
L 2778 2438 
L 4434 2438 
L 4434 434 
Q 4069 175 3628 42 
Q 3188 -91 2688 -91 
Q 1594 -91 976 548 
Q 359 1188 359 2328 
Q 359 3472 976 4111 
Q 1594 4750 2688 4750 
Q 3144 4750 3555 4637 
Q 3966 4525 4313 4306 
L 4313 3634 
Q 3963 3931 3569 4081 
Q 3175 4231 2741 4231 
Q 1884 4231 1454 3753 
Q 1025 3275 1025 2328 
Q 1025 1384 1454 906 
Q 1884 428 2741 428 
Q 3075 428 3337 486 
Q 3600 544 3809 666 
z
" transform="scale(0.015625)"/>
      <path id="DejaVuSans-48" d="M 628 4666 
L 1259 4666 
L 1259 2753 
L 3553 2753 
L 3553 4666 
L 4184 4666 
L 4184 0 
L 3553 0 
L 3553 2222 
L 1259 2222 
L 1259 0 
L 628 0 
L 628 4666 
z
" transform="scale(0.015625)"/>
      <path id="DejaVuSans-7a" d="M 353 3500 
L 3084 3500 
L 3084 2975 
L 922 459 
L 3084 459 
L 3084 0 
L 275 0 
L 275 525 
L 2438 3041 
L 353 3041 
L 353 3500 
z
" transform="scale(0.015625)"/>
     </defs>
     <use xlink:href="#DejaVuSans-Oblique-66" transform="translate(0 0.015625)"/>
     <use xlink:href="#DejaVuSans-Oblique-72" transform="translate(35.205078 -16.390625) scale(0.7)"/>
     <use xlink:href="#DejaVuSans-Oblique-65" transform="translate(63.984375 -16.390625) scale(0.7)"/>
     <use xlink:href="#DejaVuSans-Oblique-73" transform="translate(107.050781 -16.390625) scale(0.7)"/>
     <use xlink:href="#DejaVuSans-3a" transform="translate(146.254883 0.015625)"/>
     <use xlink:href="#DejaVuSans-20" transform="translate(179.946289 0.015625)"/>
     <use xlink:href="#DejaVuSans-36" transform="translate(211.733398 0.015625)"/>
     <use xlink:href="#DejaVuSans-2e" transform="translate(275.356445 0.015625)"/>
     <use xlink:href="#DejaVuSans-31" transform="translate(307.143555 0.015625)"/>
     <use xlink:href="#DejaVuSans-30" transform="translate(370.766602 0.015625)"/>
     <use xlink:href="#DejaVuSans-33" transform="translate(434.389648 0.015625)"/>
     <use xlink:href="#DejaVuSans-39" transform="translate(498.012695 0.015625)"/>
     <use xlink:href="#DejaVuSans-31" transform="translate(561.635742 0.015625)"/>
     <use xlink:href="#DejaVuSans-b1" transform="translate(625.258789 0.015625)"/>
     <use xlink:href="#DejaVuSans-30" transform="translate(709.047852 0.015625)"/>
     <use xlink:href="#DejaVuSans-2e" transform="translate(772.670898 0.015625)"/>
     <use xlink:href="#DejaVuSans-30" transform="translate(804.458008 0.015625)"/>
     <use xlink:href="#DejaVuSans-30" transform="translate(868.081055 0.015625)"/>
     <use xlink:href="#DejaVuSans-30" transform="translate(931.704102 0.015625)"/>
     <use xlink:href="#DejaVuSans-33" transform="translate(995.327148 0.015625)"/>
     <use xlink:href="#DejaVuSans-34" transform="translate(1058.950195 0.015625)"/>
     <use xlink:href="#DejaVuSans-20" transform="translate(1122.573242 0.015625)"/>
     <use xlink:href="#DejaVuSans-47" transform="translate(1154.360352 0.015625)"/>
     <use xlink:href="#DejaVuSans-48" transform="translate(1231.850586 0.015625)"/>
     <use xlink:href="#DejaVuSans-7a" transform="translate(1307.045898 0.015625)"/>
    </g>
   </g>
  </g>
  <g id="text_18">
   <!-- S21 One-tone -->
   <g transform="translate(178.938125 16.318125) scale(0.12 -0.12)">
    <defs>
     <path id="DejaVuSans-4f" d="M 2522 4238 
Q 1834 4238 1429 3725 
Q 1025 3213 1025 2328 
Q 1025 1447 1429 934 
Q 1834 422 2522 422 
Q 3209 422 3611 934 
Q 4013 1447 4013 2328 
Q 4013 3213 3611 3725 
Q 3209 4238 2522 4238 
z
M 2522 4750 
Q 3503 4750 4090 4092 
Q 4678 3434 4678 2328 
Q 4678 1225 4090 567 
Q 3503 -91 2522 -91 
Q 1538 -91 948 565 
Q 359 1222 359 2328 
Q 359 3434 948 4092 
Q 1538 4750 2522 4750 
z
" transform="scale(0.015625)"/>
     <path id="DejaVuSans-6e" d="M 3513 2113 
L 3513 0 
L 2938 0 
L 2938 2094 
Q 2938 2591 2744 2837 
Q 2550 3084 2163 3084 
Q 1697 3084 1428 2787 
Q 1159 2491 1159 1978 
L 1159 0 
L 581 0 
L 581 3500 
L 1159 3500 
L 1159 2956 
Q 1366 3272 1645 3428 
Q 1925 3584 2291 3584 
Q 2894 3584 3203 3211 
Q 3513 2838 3513 2113 
z
" transform="scale(0.015625)"/>
     <path id="DejaVuSans-74" d="M 1172 4494 
L 1172 3500 
L 2356 3500 
L 2356 3053 
L 1172 3053 
L 1172 1153 
Q 1172 725 1289 603 
Q 1406 481 1766 481 
L 2356 481 
L 2356 0 
L 1766 0 
Q 1100 0 847 248 
Q 594 497 594 1153 
L 594 3053 
L 172 3053 
L 172 3500 
L 594 3500 
L 594 4494 
L 1172 4494 
z
" transform="scale(0.015625)"/>
     <path id="DejaVuSans-6f" d="M 1959 3097 
Q 1497 3097 1228 2736 
Q 959 2375 959 1747 
Q 959 1119 1226 758 
Q 1494 397 1959 397 
Q 2419 397 2687 759 
Q 2956 1122 2956 1747 
Q 2956 2369 2687 2733 
Q 2419 3097 1959 3097 
z
M 1959 3584 
Q 2709 3584 3137 3096 
Q 3566 2609 3566 1747 
Q 3566 888 3137 398 
Q 2709 -91 1959 -91 
Q 1206 -91 779 398 
Q 353 888 353 1747 
Q 353 2609 779 3096 
Q 1206 3584 1959 3584 
z
" transform="scale(0.015625)"/>
    </defs>
    <use xlink:href="#DejaVuSans-53"/>
    <use xlink:href="#DejaVuSans-32" x="63.476562"/>
    <use xlink:href="#DejaVuSans-31" x="127.099609"/>
    <use xlink:href="#DejaVuSans-20" x="190.722656"/>
    <use xlink:href="#DejaVuSans-4f" x="222.509766"/>
    <use xlink:href="#DejaVuSans-6e" x="301.220703"/>
    <use xlink:href="#DejaVuSans-65" x="364.599609"/>
    <use xlink:href="#DejaVuSans-2d" x="426.123047"/>
    <use xlink:href="#DejaVuSans-74" x="462.207031"/>
    <use xlink:href="#DejaVuSans-6f" x="501.416016"/>
    <use xlink:href="#DejaVuSans-6e" x="562.597656"/>
    <use xlink:href="#DejaVuSans-65" x="625.976562"/>
   </g>
   <!-- tuid: 20240220-145947-440-7b046e -->
   <g transform="translate(110.467813 29.7555) scale(0.12 -0.12)">
    <defs>
     <path id="DejaVuSans-69" d="M 603 3500 
L 1178 3500 
L 1178 0 
L 603 0 
L 603 3500 
z
M 603 4863 
L 1178 4863 
L 1178 4134 
L 603 4134 
L 603 4863 
z
" transform="scale(0.015625)"/>
     <path id="DejaVuSans-64" d="M 2906 2969 
L 2906 4863 
L 3481 4863 
L 3481 0 
L 2906 0 
L 2906 525 
Q 2725 213 2448 61 
Q 2172 -91 1784 -91 
Q 1150 -91 751 415 
Q 353 922 353 1747 
Q 353 2572 751 3078 
Q 1150 3584 1784 3584 
Q 2172 3584 2448 3432 
Q 2725 3281 2906 2969 
z
M 947 1747 
Q 947 1113 1208 752 
Q 1469 391 1925 391 
Q 2381 391 2643 752 
Q 2906 1113 2906 1747 
Q 2906 2381 2643 2742 
Q 2381 3103 1925 3103 
Q 1469 3103 1208 2742 
Q 947 2381 947 1747 
z
" transform="scale(0.015625)"/>
     <path id="DejaVuSans-62" d="M 3116 1747 
Q 3116 2381 2855 2742 
Q 2594 3103 2138 3103 
Q 1681 3103 1420 2742 
Q 1159 2381 1159 1747 
Q 1159 1113 1420 752 
Q 1681 391 2138 391 
Q 2594 391 2855 752 
Q 3116 1113 3116 1747 
z
M 1159 2969 
Q 1341 3281 1617 3432 
Q 1894 3584 2278 3584 
Q 2916 3584 3314 3078 
Q 3713 2572 3713 1747 
Q 3713 922 3314 415 
Q 2916 -91 2278 -91 
Q 1894 -91 1617 61 
Q 1341 213 1159 525 
L 1159 0 
L 581 0 
L 581 4863 
L 1159 4863 
L 1159 2969 
z
" transform="scale(0.015625)"/>
    </defs>
    <use xlink:href="#DejaVuSans-74"/>
    <use xlink:href="#DejaVuSans-75" x="39.208984"/>
    <use xlink:href="#DejaVuSans-69" x="102.587891"/>
    <use xlink:href="#DejaVuSans-64" x="130.371094"/>
    <use xlink:href="#DejaVuSans-3a" x="193.847656"/>
    <use xlink:href="#DejaVuSans-20" x="227.539062"/>
    <use xlink:href="#DejaVuSans-32" x="259.326172"/>
    <use xlink:href="#DejaVuSans-30" x="322.949219"/>
    <use xlink:href="#DejaVuSans-32" x="386.572266"/>
    <use xlink:href="#DejaVuSans-34" x="450.195312"/>
    <use xlink:href="#DejaVuSans-30" x="513.818359"/>
    <use xlink:href="#DejaVuSans-32" x="577.441406"/>
    <use xlink:href="#DejaVuSans-32" x="641.064453"/>
    <use xlink:href="#DejaVuSans-30" x="704.6875"/>
    <use xlink:href="#DejaVuSans-2d" x="768.310547"/>
    <use xlink:href="#DejaVuSans-31" x="804.394531"/>
    <use xlink:href="#DejaVuSans-34" x="868.017578"/>
    <use xlink:href="#DejaVuSans-35" x="931.640625"/>
    <use xlink:href="#DejaVuSans-39" x="995.263672"/>
    <use xlink:href="#DejaVuSans-34" x="1058.886719"/>
    <use xlink:href="#DejaVuSans-37" x="1122.509766"/>
    <use xlink:href="#DejaVuSans-2d" x="1186.132812"/>
    <use xlink:href="#DejaVuSans-34" x="1222.216797"/>
    <use xlink:href="#DejaVuSans-34" x="1285.839844"/>
    <use xlink:href="#DejaVuSans-30" x="1349.462891"/>
    <use xlink:href="#DejaVuSans-2d" x="1413.085938"/>
    <use xlink:href="#DejaVuSans-37" x="1449.169922"/>
    <use xlink:href="#DejaVuSans-62" x="1512.792969"/>
    <use xlink:href="#DejaVuSans-30" x="1576.269531"/>
    <use xlink:href="#DejaVuSans-34" x="1639.892578"/>
    <use xlink:href="#DejaVuSans-36" x="1703.515625"/>
    <use xlink:href="#DejaVuSans-65" x="1767.138672"/>
   </g>
  </g>
 </g>
 <defs>
  <clipPath id="p8081e28376">
   <rect x="47.389063" y="41.76" width="357.12" height="266.112"/>
  </clipPath>
 </defs>
</svg>
