<?xml version="1.0" encoding="utf-8" standalone="no"?>
<!DOCTYPE svg PUBLIC "-//W3C//DTD SVG 1.1//EN"
  "http://www.w3.org/Graphics/SVG/1.1/DTD/svg11.dtd">
<svg xmlns:xlink="http://www.w3.org/1999/xlink" width="559.424437pt" height="345.42825pt" viewBox="0 0 559.424437 345.42825" xmlns="http://www.w3.org/2000/svg" version="1.1">
 <metadata>
  <rdf:RDF xmlns:dc="http://purl.org/dc/elements/1.1/" xmlns:cc="http://creativecommons.org/ns#" xmlns:rdf="http://www.w3.org/1999/02/22-rdf-syntax-ns#">
   <cc:Work>
    <dc:type rdf:resource="http://purl.org/dc/dcmitype/StillImage"/>
    <dc:date>2023-12-25T13:40:42.328292</dc:date>
    <dc:format>image/svg+xml</dc:format>
    <dc:creator>
     <cc:Agent>
      <dc:title>Matplotlib v3.8.1, https://matplotlib.org/</dc:title>
     </cc:Agent>
    </dc:creator>
   </cc:Work>
  </rdf:RDF>
 </metadata>
 <defs>
  <style type="text/css">*{stroke-linejoin: round; stroke-linecap: butt}</style>
 </defs>
 <g id="figure_1">
  <g id="patch_1">
   <path d="M 0 345.42825 
L 559.424437 345.42825 
L 559.424437 -0 
L 0 -0 
L 0 345.42825 
z
" style="fill: none; opacity: 0"/>
  </g>
  <g id="axes_1">
   <g id="patch_2">
    <path d="M 37.848438 307.872 
L 394.968438 307.872 
L 394.968438 41.76 
L 37.848438 41.76 
z
" style="fill: #ffffff"/>
   </g>
   <g id="matplotlib.axis_1">
    <g id="xtick_1">
     <g id="line2d_1">
      <defs>
       <path id="me682f5d68f" d="M 0 0 
L 0 3.5 
" style="stroke: #000000; stroke-width: 0.8"/>
      </defs>
      <g>
       <use xlink:href="#me682f5d68f" x="41.169297" y="307.872" style="stroke: #000000; stroke-width: 0.8"/>
      </g>
     </g>
     <g id="text_1">
      <!-- -10 -->
      <g transform="translate(33.002891 322.470438) scale(0.1 -0.1)">
       <defs>
        <path id="DejaVuSans-2d" d="M 313 2009 
L 1997 2009 
L 1997 1497 
L 313 1497 
L 313 2009 
z
" transform="scale(0.015625)"/>
        <path id="DejaVuSans-31" d="M 794 531 
L 1825 531 
L 1825 4091 
L 703 3866 
L 703 4441 
L 1819 4666 
L 2450 4666 
L 2450 531 
L 3481 531 
L 3481 0 
L 794 0 
L 794 531 
z
" transform="scale(0.015625)"/>
        <path id="DejaVuSans-30" d="M 2034 4250 
Q 1547 4250 1301 3770 
Q 1056 3291 1056 2328 
Q 1056 1369 1301 889 
Q 1547 409 2034 409 
Q 2525 409 2770 889 
Q 3016 1369 3016 2328 
Q 3016 3291 2770 3770 
Q 2525 4250 2034 4250 
z
M 2034 4750 
Q 2819 4750 3233 4129 
Q 3647 3509 3647 2328 
Q 3647 1150 3233 529 
Q 2819 -91 2034 -91 
Q 1250 -91 836 529 
Q 422 1150 422 2328 
Q 422 3509 836 4129 
Q 1250 4750 2034 4750 
z
" transform="scale(0.015625)"/>
       </defs>
       <use xlink:href="#DejaVuSans-2d"/>
       <use xlink:href="#DejaVuSans-31" x="36.083984"/>
       <use xlink:href="#DejaVuSans-30" x="99.707031"/>
      </g>
     </g>
    </g>
    <g id="xtick_2">
     <g id="line2d_2">
      <g>
       <use xlink:href="#me682f5d68f" x="85.111698" y="307.872" style="stroke: #000000; stroke-width: 0.8"/>
      </g>
     </g>
     <g id="text_2">
      <!-- -8 -->
      <g transform="translate(80.126542 322.470438) scale(0.1 -0.1)">
       <defs>
        <path id="DejaVuSans-38" d="M 2034 2216 
Q 1584 2216 1326 1975 
Q 1069 1734 1069 1313 
Q 1069 891 1326 650 
Q 1584 409 2034 409 
Q 2484 409 2743 651 
Q 3003 894 3003 1313 
Q 3003 1734 2745 1975 
Q 2488 2216 2034 2216 
z
M 1403 2484 
Q 997 2584 770 2862 
Q 544 3141 544 3541 
Q 544 4100 942 4425 
Q 1341 4750 2034 4750 
Q 2731 4750 3128 4425 
Q 3525 4100 3525 3541 
Q 3525 3141 3298 2862 
Q 3072 2584 2669 2484 
Q 3125 2378 3379 2068 
Q 3634 1759 3634 1313 
Q 3634 634 3220 271 
Q 2806 -91 2034 -91 
Q 1263 -91 848 271 
Q 434 634 434 1313 
Q 434 1759 690 2068 
Q 947 2378 1403 2484 
z
M 1172 3481 
Q 1172 3119 1398 2916 
Q 1625 2713 2034 2713 
Q 2441 2713 2670 2916 
Q 2900 3119 2900 3481 
Q 2900 3844 2670 4047 
Q 2441 4250 2034 4250 
Q 1625 4250 1398 4047 
Q 1172 3844 1172 3481 
z
" transform="scale(0.015625)"/>
       </defs>
       <use xlink:href="#DejaVuSans-2d"/>
       <use xlink:href="#DejaVuSans-38" x="36.083984"/>
      </g>
     </g>
    </g>
    <g id="xtick_3">
     <g id="line2d_3">
      <g>
       <use xlink:href="#me682f5d68f" x="129.0541" y="307.872" style="stroke: #000000; stroke-width: 0.8"/>
      </g>
     </g>
     <g id="text_3">
      <!-- -6 -->
      <g transform="translate(124.068943 322.470438) scale(0.1 -0.1)">
       <defs>
        <path id="DejaVuSans-36" d="M 2113 2584 
Q 1688 2584 1439 2293 
Q 1191 2003 1191 1497 
Q 1191 994 1439 701 
Q 1688 409 2113 409 
Q 2538 409 2786 701 
Q 3034 994 3034 1497 
Q 3034 2003 2786 2293 
Q 2538 2584 2113 2584 
z
M 3366 4563 
L 3366 3988 
Q 3128 4100 2886 4159 
Q 2644 4219 2406 4219 
Q 1781 4219 1451 3797 
Q 1122 3375 1075 2522 
Q 1259 2794 1537 2939 
Q 1816 3084 2150 3084 
Q 2853 3084 3261 2657 
Q 3669 2231 3669 1497 
Q 3669 778 3244 343 
Q 2819 -91 2113 -91 
Q 1303 -91 875 529 
Q 447 1150 447 2328 
Q 447 3434 972 4092 
Q 1497 4750 2381 4750 
Q 2619 4750 2861 4703 
Q 3103 4656 3366 4563 
z
" transform="scale(0.015625)"/>
       </defs>
       <use xlink:href="#DejaVuSans-2d"/>
       <use xlink:href="#DejaVuSans-36" x="36.083984"/>
      </g>
     </g>
    </g>
    <g id="xtick_4">
     <g id="line2d_4">
      <g>
       <use xlink:href="#me682f5d68f" x="172.996501" y="307.872" style="stroke: #000000; stroke-width: 0.8"/>
      </g>
     </g>
     <g id="text_4">
      <!-- -4 -->
      <g transform="translate(168.011345 322.470438) scale(0.1 -0.1)">
       <defs>
        <path id="DejaVuSans-34" d="M 2419 4116 
L 825 1625 
L 2419 1625 
L 2419 4116 
z
M 2253 4666 
L 3047 4666 
L 3047 1625 
L 3713 1625 
L 3713 1100 
L 3047 1100 
L 3047 0 
L 2419 0 
L 2419 1100 
L 313 1100 
L 313 1709 
L 2253 4666 
z
" transform="scale(0.015625)"/>
       </defs>
       <use xlink:href="#DejaVuSans-2d"/>
       <use xlink:href="#DejaVuSans-34" x="36.083984"/>
      </g>
     </g>
    </g>
    <g id="xtick_5">
     <g id="line2d_5">
      <g>
       <use xlink:href="#me682f5d68f" x="216.938902" y="307.872" style="stroke: #000000; stroke-width: 0.8"/>
      </g>
     </g>
     <g id="text_5">
      <!-- -2 -->
      <g transform="translate(211.953746 322.470438) scale(0.1 -0.1)">
       <defs>
        <path id="DejaVuSans-32" d="M 1228 531 
L 3431 531 
L 3431 0 
L 469 0 
L 469 531 
Q 828 903 1448 1529 
Q 2069 2156 2228 2338 
Q 2531 2678 2651 2914 
Q 2772 3150 2772 3378 
Q 2772 3750 2511 3984 
Q 2250 4219 1831 4219 
Q 1534 4219 1204 4116 
Q 875 4013 500 3803 
L 500 4441 
Q 881 4594 1212 4672 
Q 1544 4750 1819 4750 
Q 2544 4750 2975 4387 
Q 3406 4025 3406 3419 
Q 3406 3131 3298 2873 
Q 3191 2616 2906 2266 
Q 2828 2175 2409 1742 
Q 1991 1309 1228 531 
z
" transform="scale(0.015625)"/>
       </defs>
       <use xlink:href="#DejaVuSans-2d"/>
       <use xlink:href="#DejaVuSans-32" x="36.083984"/>
      </g>
     </g>
    </g>
    <g id="xtick_6">
     <g id="line2d_6">
      <g>
       <use xlink:href="#me682f5d68f" x="260.881303" y="307.872" style="stroke: #000000; stroke-width: 0.8"/>
      </g>
     </g>
     <g id="text_6">
      <!-- 0 -->
      <g transform="translate(257.700053 322.470438) scale(0.1 -0.1)">
       <use xlink:href="#DejaVuSans-30"/>
      </g>
     </g>
    </g>
    <g id="xtick_7">
     <g id="line2d_7">
      <g>
       <use xlink:href="#me682f5d68f" x="304.823704" y="307.872" style="stroke: #000000; stroke-width: 0.8"/>
      </g>
     </g>
     <g id="text_7">
      <!-- 2 -->
      <g transform="translate(301.642454 322.470438) scale(0.1 -0.1)">
       <use xlink:href="#DejaVuSans-32"/>
      </g>
     </g>
    </g>
    <g id="xtick_8">
     <g id="line2d_8">
      <g>
       <use xlink:href="#me682f5d68f" x="348.766105" y="307.872" style="stroke: #000000; stroke-width: 0.8"/>
      </g>
     </g>
     <g id="text_8">
      <!-- 4 -->
      <g transform="translate(345.584855 322.470438) scale(0.1 -0.1)">
       <use xlink:href="#DejaVuSans-34"/>
      </g>
     </g>
    </g>
    <g id="xtick_9">
     <g id="line2d_9">
      <g>
       <use xlink:href="#me682f5d68f" x="392.708506" y="307.872" style="stroke: #000000; stroke-width: 0.8"/>
      </g>
     </g>
     <g id="text_9">
      <!-- 6 -->
      <g transform="translate(389.527256 322.470438) scale(0.1 -0.1)">
       <use xlink:href="#DejaVuSans-36"/>
      </g>
     </g>
    </g>
    <g id="text_10">
     <!-- Re$(S_{21})$ [mV] -->
     <g transform="translate(184.408438 336.148562) scale(0.1 -0.1)">
      <defs>
       <path id="DejaVuSans-52" d="M 2841 2188 
Q 3044 2119 3236 1894 
Q 3428 1669 3622 1275 
L 4263 0 
L 3584 0 
L 2988 1197 
Q 2756 1666 2539 1819 
Q 2322 1972 1947 1972 
L 1259 1972 
L 1259 0 
L 628 0 
L 628 4666 
L 2053 4666 
Q 2853 4666 3247 4331 
Q 3641 3997 3641 3322 
Q 3641 2881 3436 2590 
Q 3231 2300 2841 2188 
z
M 1259 4147 
L 1259 2491 
L 2053 2491 
Q 2509 2491 2742 2702 
Q 2975 2913 2975 3322 
Q 2975 3731 2742 3939 
Q 2509 4147 2053 4147 
L 1259 4147 
z
" transform="scale(0.015625)"/>
       <path id="DejaVuSans-65" d="M 3597 1894 
L 3597 1613 
L 953 1613 
Q 991 1019 1311 708 
Q 1631 397 2203 397 
Q 2534 397 2845 478 
Q 3156 559 3463 722 
L 3463 178 
Q 3153 47 2828 -22 
Q 2503 -91 2169 -91 
Q 1331 -91 842 396 
Q 353 884 353 1716 
Q 353 2575 817 3079 
Q 1281 3584 2069 3584 
Q 2775 3584 3186 3129 
Q 3597 2675 3597 1894 
z
M 3022 2063 
Q 3016 2534 2758 2815 
Q 2500 3097 2075 3097 
Q 1594 3097 1305 2825 
Q 1016 2553 972 2059 
L 3022 2063 
z
" transform="scale(0.015625)"/>
       <path id="DejaVuSans-28" d="M 1984 4856 
Q 1566 4138 1362 3434 
Q 1159 2731 1159 2009 
Q 1159 1288 1364 580 
Q 1569 -128 1984 -844 
L 1484 -844 
Q 1016 -109 783 600 
Q 550 1309 550 2009 
Q 550 2706 781 3412 
Q 1013 4119 1484 4856 
L 1984 4856 
z
" transform="scale(0.015625)"/>
       <path id="DejaVuSans-Oblique-53" d="M 3859 4513 
L 3738 3897 
Q 3422 4066 3111 4152 
Q 2800 4238 2509 4238 
Q 1944 4238 1609 3991 
Q 1275 3744 1275 3334 
Q 1275 3109 1398 2989 
Q 1522 2869 2034 2731 
L 2413 2638 
Q 3053 2472 3303 2217 
Q 3553 1963 3553 1503 
Q 3553 797 2998 353 
Q 2444 -91 1538 -91 
Q 1166 -91 791 -17 
Q 416 56 38 206 
L 166 856 
Q 513 641 861 531 
Q 1209 422 1556 422 
Q 2147 422 2503 684 
Q 2859 947 2859 1369 
Q 2859 1650 2717 1795 
Q 2575 1941 2106 2059 
L 1728 2156 
Q 1081 2325 845 2545 
Q 609 2766 609 3163 
Q 609 3859 1145 4304 
Q 1681 4750 2541 4750 
Q 2875 4750 3203 4690 
Q 3531 4631 3859 4513 
z
" transform="scale(0.015625)"/>
       <path id="DejaVuSans-29" d="M 513 4856 
L 1013 4856 
Q 1481 4119 1714 3412 
Q 1947 2706 1947 2009 
Q 1947 1309 1714 600 
Q 1481 -109 1013 -844 
L 513 -844 
Q 928 -128 1133 580 
Q 1338 1288 1338 2009 
Q 1338 2731 1133 3434 
Q 928 4138 513 4856 
z
" transform="scale(0.015625)"/>
       <path id="DejaVuSans-20" transform="scale(0.015625)"/>
       <path id="DejaVuSans-5b" d="M 550 4863 
L 1875 4863 
L 1875 4416 
L 1125 4416 
L 1125 -397 
L 1875 -397 
L 1875 -844 
L 550 -844 
L 550 4863 
z
" transform="scale(0.015625)"/>
       <path id="DejaVuSans-6d" d="M 3328 2828 
Q 3544 3216 3844 3400 
Q 4144 3584 4550 3584 
Q 5097 3584 5394 3201 
Q 5691 2819 5691 2113 
L 5691 0 
L 5113 0 
L 5113 2094 
Q 5113 2597 4934 2840 
Q 4756 3084 4391 3084 
Q 3944 3084 3684 2787 
Q 3425 2491 3425 1978 
L 3425 0 
L 2847 0 
L 2847 2094 
Q 2847 2600 2669 2842 
Q 2491 3084 2119 3084 
Q 1678 3084 1418 2786 
Q 1159 2488 1159 1978 
L 1159 0 
L 581 0 
L 581 3500 
L 1159 3500 
L 1159 2956 
Q 1356 3278 1631 3431 
Q 1906 3584 2284 3584 
Q 2666 3584 2933 3390 
Q 3200 3197 3328 2828 
z
" transform="scale(0.015625)"/>
       <path id="DejaVuSans-56" d="M 1831 0 
L 50 4666 
L 709 4666 
L 2188 738 
L 3669 4666 
L 4325 4666 
L 2547 0 
L 1831 0 
z
" transform="scale(0.015625)"/>
       <path id="DejaVuSans-5d" d="M 1947 4863 
L 1947 -844 
L 622 -844 
L 622 -397 
L 1369 -397 
L 1369 4416 
L 622 4416 
L 622 4863 
L 1947 4863 
z
" transform="scale(0.015625)"/>
      </defs>
      <use xlink:href="#DejaVuSans-52" transform="translate(0 0.015625)"/>
      <use xlink:href="#DejaVuSans-65" transform="translate(69.482422 0.015625)"/>
      <use xlink:href="#DejaVuSans-28" transform="translate(131.005859 0.015625)"/>
      <use xlink:href="#DejaVuSans-Oblique-53" transform="translate(170.019531 0.015625)"/>
      <use xlink:href="#DejaVuSans-32" transform="translate(233.496094 -16.390625) scale(0.7)"/>
      <use xlink:href="#DejaVuSans-31" transform="translate(278.032227 -16.390625) scale(0.7)"/>
      <use xlink:href="#DejaVuSans-29" transform="translate(325.302734 0.015625)"/>
      <use xlink:href="#DejaVuSans-20" transform="translate(364.316406 0.015625)"/>
      <use xlink:href="#DejaVuSans-5b" transform="translate(396.103516 0.015625)"/>
      <use xlink:href="#DejaVuSans-6d" transform="translate(435.117188 0.015625)"/>
      <use xlink:href="#DejaVuSans-56" transform="translate(532.529297 0.015625)"/>
      <use xlink:href="#DejaVuSans-5d" transform="translate(600.9375 0.015625)"/>
     </g>
    </g>
   </g>
   <g id="matplotlib.axis_2">
    <g id="ytick_1">
     <g id="line2d_10">
      <defs>
       <path id="mc706b17889" d="M 0 0 
L -3.5 0 
" style="stroke: #000000; stroke-width: 0.8"/>
      </defs>
      <g>
       <use xlink:href="#mc706b17889" x="37.848438" y="305.988261" style="stroke: #000000; stroke-width: 0.8"/>
      </g>
     </g>
     <g id="text_11">
      <!-- -4 -->
      <g transform="translate(20.878125 309.78748) scale(0.1 -0.1)">
       <use xlink:href="#DejaVuSans-2d"/>
       <use xlink:href="#DejaVuSans-34" x="36.083984"/>
      </g>
     </g>
    </g>
    <g id="ytick_2">
     <g id="line2d_11">
      <g>
       <use xlink:href="#mc706b17889" x="37.848438" y="267.086907" style="stroke: #000000; stroke-width: 0.8"/>
      </g>
     </g>
     <g id="text_12">
      <!-- -2 -->
      <g transform="translate(20.878125 270.886125) scale(0.1 -0.1)">
       <use xlink:href="#DejaVuSans-2d"/>
       <use xlink:href="#DejaVuSans-32" x="36.083984"/>
      </g>
     </g>
    </g>
    <g id="ytick_3">
     <g id="line2d_12">
      <g>
       <use xlink:href="#mc706b17889" x="37.848438" y="228.185552" style="stroke: #000000; stroke-width: 0.8"/>
      </g>
     </g>
     <g id="text_13">
      <!-- 0 -->
      <g transform="translate(24.485938 231.984771) scale(0.1 -0.1)">
       <use xlink:href="#DejaVuSans-30"/>
      </g>
     </g>
    </g>
    <g id="ytick_4">
     <g id="line2d_13">
      <g>
       <use xlink:href="#mc706b17889" x="37.848438" y="189.284197" style="stroke: #000000; stroke-width: 0.8"/>
      </g>
     </g>
     <g id="text_14">
      <!-- 2 -->
      <g transform="translate(24.485938 193.083416) scale(0.1 -0.1)">
       <use xlink:href="#DejaVuSans-32"/>
      </g>
     </g>
    </g>
    <g id="ytick_5">
     <g id="line2d_14">
      <g>
       <use xlink:href="#mc706b17889" x="37.848438" y="150.382843" style="stroke: #000000; stroke-width: 0.8"/>
      </g>
     </g>
     <g id="text_15">
      <!-- 4 -->
      <g transform="translate(24.485938 154.182062) scale(0.1 -0.1)">
       <use xlink:href="#DejaVuSans-34"/>
      </g>
     </g>
    </g>
    <g id="ytick_6">
     <g id="line2d_15">
      <g>
       <use xlink:href="#mc706b17889" x="37.848438" y="111.481488" style="stroke: #000000; stroke-width: 0.8"/>
      </g>
     </g>
     <g id="text_16">
      <!-- 6 -->
      <g transform="translate(24.485938 115.280707) scale(0.1 -0.1)">
       <use xlink:href="#DejaVuSans-36"/>
      </g>
     </g>
    </g>
    <g id="ytick_7">
     <g id="line2d_16">
      <g>
       <use xlink:href="#mc706b17889" x="37.848438" y="72.580134" style="stroke: #000000; stroke-width: 0.8"/>
      </g>
     </g>
     <g id="text_17">
      <!-- 8 -->
      <g transform="translate(24.485938 76.379352) scale(0.1 -0.1)">
       <use xlink:href="#DejaVuSans-38"/>
      </g>
     </g>
    </g>
    <g id="text_18">
     <!-- Im$(S_{21})$ [mV] -->
     <g transform="translate(14.798438 206.466) rotate(-90) scale(0.1 -0.1)">
      <defs>
       <path id="DejaVuSans-49" d="M 628 4666 
L 1259 4666 
L 1259 0 
L 628 0 
L 628 4666 
z
" transform="scale(0.015625)"/>
      </defs>
      <use xlink:href="#DejaVuSans-49" transform="translate(0 0.015625)"/>
      <use xlink:href="#DejaVuSans-6d" transform="translate(25.867188 0.015625)"/>
      <use xlink:href="#DejaVuSans-28" transform="translate(123.279297 0.015625)"/>
      <use xlink:href="#DejaVuSans-Oblique-53" transform="translate(162.292969 0.015625)"/>
      <use xlink:href="#DejaVuSans-32" transform="translate(225.769531 -16.390625) scale(0.7)"/>
      <use xlink:href="#DejaVuSans-31" transform="translate(270.305664 -16.390625) scale(0.7)"/>
      <use xlink:href="#DejaVuSans-29" transform="translate(317.576172 0.015625)"/>
      <use xlink:href="#DejaVuSans-20" transform="translate(356.589844 0.015625)"/>
      <use xlink:href="#DejaVuSans-5b" transform="translate(388.376953 0.015625)"/>
      <use xlink:href="#DejaVuSans-6d" transform="translate(427.390625 0.015625)"/>
      <use xlink:href="#DejaVuSans-56" transform="translate(524.802734 0.015625)"/>
      <use xlink:href="#DejaVuSans-5d" transform="translate(593.210938 0.015625)"/>
     </g>
    </g>
   </g>
   <g id="line2d_17">
    <path d="M 70.985773 295.776 
L 69.099691 293.579705 
L 66.849749 288.282779 
L 65.584865 287.246987 
L 64.624293 284.534813 
L 64.583277 282.624574 
L 64.13279 279.547465 
L 62.31961 276.422978 
L 62.052106 275.263007 
L 60.217301 271.907963 
L 58.899566 265.071429 
L 57.789822 262.964953 
L 58.612477 260.650598 
L 55.926667 255.373621 
L 56.904033 252.619581 
L 56.64274 251.001079 
L 55.588501 247.310062 
L 55.483751 243.789677 
L 54.744551 241.894083 
L 55.970967 238.960328 
L 54.550678 237.474563 
L 54.23433 233.201812 
L 55.217349 230.403797 
L 54.081165 228.484404 
L 54.347846 222.997311 
L 55.09443 219.090028 
L 55.871547 217.762124 
L 54.728802 214.109539 
L 56.074637 210.821814 
L 56.309376 207.156757 
L 57.105806 204.973226 
L 57.705644 202.873725 
L 59.417093 198.99178 
L 60.465314 194.221686 
L 61.730735 192.034741 
L 63.127103 190.286029 
L 64.108819 187.39523 
L 64.99971 186.037825 
L 66.269546 182.87706 
L 64.946809 180.956596 
L 67.764117 178.029708 
L 67.213538 175.614467 
L 68.686714 173.451904 
L 71.558534 167.542445 
L 72.377869 166.403518 
L 74.308923 163.525223 
L 73.236445 161.289342 
L 79.361891 155.702028 
L 78.360833 152.449309 
L 81.290391 149.631098 
L 81.370147 147.970294 
L 83.743667 144.567429 
L 84.978032 143.078371 
L 86.476646 139.187101 
L 88.311472 138.102868 
L 90.054328 134.40919 
L 91.8872 131.919554 
L 93.431131 128.686681 
L 95.913393 127.788561 
L 97.78004 125.87803 
L 98.306955 122.029159 
L 101.227018 119.808013 
L 102.195876 118.426422 
L 106.035616 115.073013 
L 106.816132 114.205951 
L 109.776173 110.44448 
L 114.404164 106.437558 
L 117.595902 102.878505 
L 120.324538 101.900118 
L 122.837262 99.496913 
L 124.975399 96.189918 
L 128.316367 95.338167 
L 129.984461 92.094126 
L 132.301587 91.270426 
L 135.298464 88.002959 
L 139.492928 85.976795 
L 145.163401 82.653152 
L 148.149517 80.082704 
L 151.878796 77.676572 
L 154.705478 77.035641 
L 159.084906 72.975279 
L 163.192122 73.132145 
L 166.081379 69.535883 
L 171.153446 70.221037 
L 175.262293 66.822157 
L 179.103156 64.497996 
L 184.024541 62.999847 
L 189.662442 62.507223 
L 193.719611 60.00493 
L 198.967261 58.013531 
L 204.386559 58.585997 
L 210.095658 57.7177 
L 175.510863 66.142305 
L 182.137586 65.038332 
L 189.720524 62.532771 
L 196.891285 62.928848 
L 207.81534 62.248273 
L 216.375965 62.524156 
L 228.232993 64.172348 
L 240.763905 65.684173 
L 252.478609 70.79012 
L 267.574115 79.846072 
L 281.769915 92.086683 
L 293.004937 109.176097 
L 298.686 131.703592 
L 296.966966 156.39296 
L 281.073448 179.755323 
L 259.317344 197.453647 
L 232.212353 206.898821 
L 204.504848 207.406635 
L 182.454994 199.345364 
L 165.447603 191.062884 
L 154.171887 176.199349 
L 146.598023 164.4187 
L 142.352103 153.203283 
L 142.966624 141.290891 
L 142.670777 134.345938 
L 144.465339 125.435533 
L 145.674889 118.551615 
L 149.37395 112.614942 
L 152.13176 106.767215 
L 155.607911 102.79184 
L 157.735801 97.843963 
L 170.454718 86.39714 
L 173.389521 83.573273 
L 178.274126 80.166835 
L 180.831343 79.154108 
L 184.357311 76.530626 
L 188.782678 73.089925 
L 192.549252 72.97348 
L 197.686349 70.371435 
L 201.239028 69.172949 
L 203.772339 66.846786 
L 207.48871 66.325371 
L 212.095671 64.963697 
L 216.26104 64.756445 
L 218.18725 63.671831 
L 223.307774 61.902507 
L 226.314161 62.84224 
L 229.320978 60.533345 
L 232.926043 59.934153 
L 240.344789 57.823845 
L 243.551661 58.207296 
L 247.373304 57.192371 
L 251.8994 58.01488 
L 255.022502 58.073704 
L 257.485373 57.331094 
L 261.936851 57.196856 
L 267.930277 56.545168 
L 271.458735 56.660643 
L 275.162161 57.07286 
L 278.575708 57.570729 
L 281.266448 56.815982 
L 286.189164 56.594401 
L 289.994235 56.644895 
L 290.879723 57.565522 
L 292.973703 57.955289 
L 299.569886 58.941139 
L 301.356813 59.993642 
L 304.823039 59.516956 
L 308.082648 60.018252 
L 309.715744 61.03117 
L 314.583053 61.881007 
L 317.452232 63.927366 
L 320.329705 63.443085 
L 322.970585 63.669912 
L 325.168621 65.119176 
L 327.964033 65.650055 
L 331.806786 67.074385 
L 334.603193 69.035296 
L 337.620313 69.380942 
L 339.938942 70.465125 
L 341.928558 72.129211 
L 345.396866 74.314769 
L 346.464192 74.224956 
L 351.730489 74.9089 
L 353.269897 75.551314 
L 354.701292 77.455213 
L 358.351524 80.118128 
L 361.02894 80.620963 
L 364.089202 84.050041 
L 366.517726 86.553151 
L 371.004631 87.08911 
L 371.978155 88.319365 
L 374.889137 89.954121 
L 375.060062 90.728746 
L 378.73571 93.236937 
L 378.73571 93.236937 
" clip-path="url(#pee4a8dc16c)" style="fill: none; stroke: #1f77b4; stroke-width: 1.5; stroke-linecap: square"/>
    <defs>
     <path id="m76a2df07dc" d="M 0 1.5 
C 0.397805 1.5 0.77937 1.341951 1.06066 1.06066 
C 1.341951 0.77937 1.5 0.397805 1.5 0 
C 1.5 -0.397805 1.341951 -0.77937 1.06066 -1.06066 
C 0.77937 -1.341951 0.397805 -1.5 0 -1.5 
C -0.397805 -1.5 -0.77937 -1.341951 -1.06066 -1.06066 
C -1.341951 -0.77937 -1.5 -0.397805 -1.5 0 
C -1.5 0.397805 -1.341951 0.77937 -1.06066 1.06066 
C -0.77937 1.341951 -0.397805 1.5 0 1.5 
z
" style="stroke: #1f77b4"/>
    </defs>
    <g clip-path="url(#pee4a8dc16c)">
     <use xlink:href="#m76a2df07dc" x="70.985773" y="295.776" style="fill: #1f77b4; stroke: #1f77b4"/>
     <use xlink:href="#m76a2df07dc" x="69.099691" y="293.579705" style="fill: #1f77b4; stroke: #1f77b4"/>
     <use xlink:href="#m76a2df07dc" x="66.849749" y="288.282779" style="fill: #1f77b4; stroke: #1f77b4"/>
     <use xlink:href="#m76a2df07dc" x="65.584865" y="287.246987" style="fill: #1f77b4; stroke: #1f77b4"/>
     <use xlink:href="#m76a2df07dc" x="64.624293" y="284.534813" style="fill: #1f77b4; stroke: #1f77b4"/>
     <use xlink:href="#m76a2df07dc" x="64.583277" y="282.624574" style="fill: #1f77b4; stroke: #1f77b4"/>
     <use xlink:href="#m76a2df07dc" x="64.13279" y="279.547465" style="fill: #1f77b4; stroke: #1f77b4"/>
     <use xlink:href="#m76a2df07dc" x="62.31961" y="276.422978" style="fill: #1f77b4; stroke: #1f77b4"/>
     <use xlink:href="#m76a2df07dc" x="62.052106" y="275.263007" style="fill: #1f77b4; stroke: #1f77b4"/>
     <use xlink:href="#m76a2df07dc" x="60.217301" y="271.907963" style="fill: #1f77b4; stroke: #1f77b4"/>
     <use xlink:href="#m76a2df07dc" x="59.558022" y="268.715949" style="fill: #1f77b4; stroke: #1f77b4"/>
     <use xlink:href="#m76a2df07dc" x="58.899566" y="265.071429" style="fill: #1f77b4; stroke: #1f77b4"/>
     <use xlink:href="#m76a2df07dc" x="57.789822" y="262.964953" style="fill: #1f77b4; stroke: #1f77b4"/>
     <use xlink:href="#m76a2df07dc" x="58.612477" y="260.650598" style="fill: #1f77b4; stroke: #1f77b4"/>
     <use xlink:href="#m76a2df07dc" x="57.180081" y="257.708817" style="fill: #1f77b4; stroke: #1f77b4"/>
     <use xlink:href="#m76a2df07dc" x="55.926667" y="255.373621" style="fill: #1f77b4; stroke: #1f77b4"/>
     <use xlink:href="#m76a2df07dc" x="56.904033" y="252.619581" style="fill: #1f77b4; stroke: #1f77b4"/>
     <use xlink:href="#m76a2df07dc" x="56.64274" y="251.001079" style="fill: #1f77b4; stroke: #1f77b4"/>
     <use xlink:href="#m76a2df07dc" x="55.588501" y="247.310062" style="fill: #1f77b4; stroke: #1f77b4"/>
     <use xlink:href="#m76a2df07dc" x="55.483751" y="243.789677" style="fill: #1f77b4; stroke: #1f77b4"/>
     <use xlink:href="#m76a2df07dc" x="54.744551" y="241.894083" style="fill: #1f77b4; stroke: #1f77b4"/>
     <use xlink:href="#m76a2df07dc" x="55.970967" y="238.960328" style="fill: #1f77b4; stroke: #1f77b4"/>
     <use xlink:href="#m76a2df07dc" x="54.550678" y="237.474563" style="fill: #1f77b4; stroke: #1f77b4"/>
     <use xlink:href="#m76a2df07dc" x="54.23433" y="233.201812" style="fill: #1f77b4; stroke: #1f77b4"/>
     <use xlink:href="#m76a2df07dc" x="55.217349" y="230.403797" style="fill: #1f77b4; stroke: #1f77b4"/>
     <use xlink:href="#m76a2df07dc" x="54.081165" y="228.484404" style="fill: #1f77b4; stroke: #1f77b4"/>
     <use xlink:href="#m76a2df07dc" x="54.245099" y="225.425577" style="fill: #1f77b4; stroke: #1f77b4"/>
     <use xlink:href="#m76a2df07dc" x="54.347846" y="222.997311" style="fill: #1f77b4; stroke: #1f77b4"/>
     <use xlink:href="#m76a2df07dc" x="55.09443" y="219.090028" style="fill: #1f77b4; stroke: #1f77b4"/>
     <use xlink:href="#m76a2df07dc" x="55.871547" y="217.762124" style="fill: #1f77b4; stroke: #1f77b4"/>
     <use xlink:href="#m76a2df07dc" x="54.728802" y="214.109539" style="fill: #1f77b4; stroke: #1f77b4"/>
     <use xlink:href="#m76a2df07dc" x="56.074637" y="210.821814" style="fill: #1f77b4; stroke: #1f77b4"/>
     <use xlink:href="#m76a2df07dc" x="56.309376" y="207.156757" style="fill: #1f77b4; stroke: #1f77b4"/>
     <use xlink:href="#m76a2df07dc" x="57.105806" y="204.973226" style="fill: #1f77b4; stroke: #1f77b4"/>
     <use xlink:href="#m76a2df07dc" x="57.705644" y="202.873725" style="fill: #1f77b4; stroke: #1f77b4"/>
     <use xlink:href="#m76a2df07dc" x="59.417093" y="198.99178" style="fill: #1f77b4; stroke: #1f77b4"/>
     <use xlink:href="#m76a2df07dc" x="60.054219" y="196.205059" style="fill: #1f77b4; stroke: #1f77b4"/>
     <use xlink:href="#m76a2df07dc" x="60.465314" y="194.221686" style="fill: #1f77b4; stroke: #1f77b4"/>
     <use xlink:href="#m76a2df07dc" x="61.730735" y="192.034741" style="fill: #1f77b4; stroke: #1f77b4"/>
     <use xlink:href="#m76a2df07dc" x="63.127103" y="190.286029" style="fill: #1f77b4; stroke: #1f77b4"/>
     <use xlink:href="#m76a2df07dc" x="64.108819" y="187.39523" style="fill: #1f77b4; stroke: #1f77b4"/>
     <use xlink:href="#m76a2df07dc" x="64.99971" y="186.037825" style="fill: #1f77b4; stroke: #1f77b4"/>
     <use xlink:href="#m76a2df07dc" x="66.269546" y="182.87706" style="fill: #1f77b4; stroke: #1f77b4"/>
     <use xlink:href="#m76a2df07dc" x="64.946809" y="180.956596" style="fill: #1f77b4; stroke: #1f77b4"/>
     <use xlink:href="#m76a2df07dc" x="67.764117" y="178.029708" style="fill: #1f77b4; stroke: #1f77b4"/>
     <use xlink:href="#m76a2df07dc" x="67.213538" y="175.614467" style="fill: #1f77b4; stroke: #1f77b4"/>
     <use xlink:href="#m76a2df07dc" x="68.686714" y="173.451904" style="fill: #1f77b4; stroke: #1f77b4"/>
     <use xlink:href="#m76a2df07dc" x="70.294923" y="170.222445" style="fill: #1f77b4; stroke: #1f77b4"/>
     <use xlink:href="#m76a2df07dc" x="71.558534" y="167.542445" style="fill: #1f77b4; stroke: #1f77b4"/>
     <use xlink:href="#m76a2df07dc" x="72.377869" y="166.403518" style="fill: #1f77b4; stroke: #1f77b4"/>
     <use xlink:href="#m76a2df07dc" x="74.308923" y="163.525223" style="fill: #1f77b4; stroke: #1f77b4"/>
     <use xlink:href="#m76a2df07dc" x="73.236445" y="161.289342" style="fill: #1f77b4; stroke: #1f77b4"/>
     <use xlink:href="#m76a2df07dc" x="76.682099" y="158.08768" style="fill: #1f77b4; stroke: #1f77b4"/>
     <use xlink:href="#m76a2df07dc" x="79.361891" y="155.702028" style="fill: #1f77b4; stroke: #1f77b4"/>
     <use xlink:href="#m76a2df07dc" x="78.360833" y="152.449309" style="fill: #1f77b4; stroke: #1f77b4"/>
     <use xlink:href="#m76a2df07dc" x="81.290391" y="149.631098" style="fill: #1f77b4; stroke: #1f77b4"/>
     <use xlink:href="#m76a2df07dc" x="81.370147" y="147.970294" style="fill: #1f77b4; stroke: #1f77b4"/>
     <use xlink:href="#m76a2df07dc" x="83.743667" y="144.567429" style="fill: #1f77b4; stroke: #1f77b4"/>
     <use xlink:href="#m76a2df07dc" x="84.978032" y="143.078371" style="fill: #1f77b4; stroke: #1f77b4"/>
     <use xlink:href="#m76a2df07dc" x="86.476646" y="139.187101" style="fill: #1f77b4; stroke: #1f77b4"/>
     <use xlink:href="#m76a2df07dc" x="88.311472" y="138.102868" style="fill: #1f77b4; stroke: #1f77b4"/>
     <use xlink:href="#m76a2df07dc" x="90.054328" y="134.40919" style="fill: #1f77b4; stroke: #1f77b4"/>
     <use xlink:href="#m76a2df07dc" x="91.8872" y="131.919554" style="fill: #1f77b4; stroke: #1f77b4"/>
     <use xlink:href="#m76a2df07dc" x="93.431131" y="128.686681" style="fill: #1f77b4; stroke: #1f77b4"/>
     <use xlink:href="#m76a2df07dc" x="95.913393" y="127.788561" style="fill: #1f77b4; stroke: #1f77b4"/>
     <use xlink:href="#m76a2df07dc" x="97.78004" y="125.87803" style="fill: #1f77b4; stroke: #1f77b4"/>
     <use xlink:href="#m76a2df07dc" x="98.306955" y="122.029159" style="fill: #1f77b4; stroke: #1f77b4"/>
     <use xlink:href="#m76a2df07dc" x="101.227018" y="119.808013" style="fill: #1f77b4; stroke: #1f77b4"/>
     <use xlink:href="#m76a2df07dc" x="102.195876" y="118.426422" style="fill: #1f77b4; stroke: #1f77b4"/>
     <use xlink:href="#m76a2df07dc" x="106.035616" y="115.073013" style="fill: #1f77b4; stroke: #1f77b4"/>
     <use xlink:href="#m76a2df07dc" x="106.816132" y="114.205951" style="fill: #1f77b4; stroke: #1f77b4"/>
     <use xlink:href="#m76a2df07dc" x="109.776173" y="110.44448" style="fill: #1f77b4; stroke: #1f77b4"/>
     <use xlink:href="#m76a2df07dc" x="112.797329" y="107.764816" style="fill: #1f77b4; stroke: #1f77b4"/>
     <use xlink:href="#m76a2df07dc" x="114.404164" y="106.437558" style="fill: #1f77b4; stroke: #1f77b4"/>
     <use xlink:href="#m76a2df07dc" x="117.595902" y="102.878505" style="fill: #1f77b4; stroke: #1f77b4"/>
     <use xlink:href="#m76a2df07dc" x="120.324538" y="101.900118" style="fill: #1f77b4; stroke: #1f77b4"/>
     <use xlink:href="#m76a2df07dc" x="122.837262" y="99.496913" style="fill: #1f77b4; stroke: #1f77b4"/>
     <use xlink:href="#m76a2df07dc" x="124.975399" y="96.189918" style="fill: #1f77b4; stroke: #1f77b4"/>
     <use xlink:href="#m76a2df07dc" x="128.316367" y="95.338167" style="fill: #1f77b4; stroke: #1f77b4"/>
     <use xlink:href="#m76a2df07dc" x="129.984461" y="92.094126" style="fill: #1f77b4; stroke: #1f77b4"/>
     <use xlink:href="#m76a2df07dc" x="132.301587" y="91.270426" style="fill: #1f77b4; stroke: #1f77b4"/>
     <use xlink:href="#m76a2df07dc" x="135.298464" y="88.002959" style="fill: #1f77b4; stroke: #1f77b4"/>
     <use xlink:href="#m76a2df07dc" x="139.492928" y="85.976795" style="fill: #1f77b4; stroke: #1f77b4"/>
     <use xlink:href="#m76a2df07dc" x="143.762225" y="83.421322" style="fill: #1f77b4; stroke: #1f77b4"/>
     <use xlink:href="#m76a2df07dc" x="145.163401" y="82.653152" style="fill: #1f77b4; stroke: #1f77b4"/>
     <use xlink:href="#m76a2df07dc" x="148.149517" y="80.082704" style="fill: #1f77b4; stroke: #1f77b4"/>
     <use xlink:href="#m76a2df07dc" x="151.878796" y="77.676572" style="fill: #1f77b4; stroke: #1f77b4"/>
     <use xlink:href="#m76a2df07dc" x="154.705478" y="77.035641" style="fill: #1f77b4; stroke: #1f77b4"/>
     <use xlink:href="#m76a2df07dc" x="159.084906" y="72.975279" style="fill: #1f77b4; stroke: #1f77b4"/>
     <use xlink:href="#m76a2df07dc" x="163.192122" y="73.132145" style="fill: #1f77b4; stroke: #1f77b4"/>
     <use xlink:href="#m76a2df07dc" x="166.081379" y="69.535883" style="fill: #1f77b4; stroke: #1f77b4"/>
     <use xlink:href="#m76a2df07dc" x="171.153446" y="70.221037" style="fill: #1f77b4; stroke: #1f77b4"/>
     <use xlink:href="#m76a2df07dc" x="175.262293" y="66.822157" style="fill: #1f77b4; stroke: #1f77b4"/>
     <use xlink:href="#m76a2df07dc" x="179.103156" y="64.497996" style="fill: #1f77b4; stroke: #1f77b4"/>
     <use xlink:href="#m76a2df07dc" x="184.024541" y="62.999847" style="fill: #1f77b4; stroke: #1f77b4"/>
     <use xlink:href="#m76a2df07dc" x="189.662442" y="62.507223" style="fill: #1f77b4; stroke: #1f77b4"/>
     <use xlink:href="#m76a2df07dc" x="193.719611" y="60.00493" style="fill: #1f77b4; stroke: #1f77b4"/>
     <use xlink:href="#m76a2df07dc" x="198.967261" y="58.013531" style="fill: #1f77b4; stroke: #1f77b4"/>
     <use xlink:href="#m76a2df07dc" x="204.386559" y="58.585997" style="fill: #1f77b4; stroke: #1f77b4"/>
     <use xlink:href="#m76a2df07dc" x="210.095658" y="57.7177" style="fill: #1f77b4; stroke: #1f77b4"/>
     <use xlink:href="#m76a2df07dc" x="175.510863" y="66.142305" style="fill: #1f77b4; stroke: #1f77b4"/>
     <use xlink:href="#m76a2df07dc" x="182.137586" y="65.038332" style="fill: #1f77b4; stroke: #1f77b4"/>
     <use xlink:href="#m76a2df07dc" x="189.720524" y="62.532771" style="fill: #1f77b4; stroke: #1f77b4"/>
     <use xlink:href="#m76a2df07dc" x="196.891285" y="62.928848" style="fill: #1f77b4; stroke: #1f77b4"/>
     <use xlink:href="#m76a2df07dc" x="207.81534" y="62.248273" style="fill: #1f77b4; stroke: #1f77b4"/>
     <use xlink:href="#m76a2df07dc" x="216.375965" y="62.524156" style="fill: #1f77b4; stroke: #1f77b4"/>
     <use xlink:href="#m76a2df07dc" x="228.232993" y="64.172348" style="fill: #1f77b4; stroke: #1f77b4"/>
     <use xlink:href="#m76a2df07dc" x="240.763905" y="65.684173" style="fill: #1f77b4; stroke: #1f77b4"/>
     <use xlink:href="#m76a2df07dc" x="252.478609" y="70.79012" style="fill: #1f77b4; stroke: #1f77b4"/>
     <use xlink:href="#m76a2df07dc" x="267.574115" y="79.846072" style="fill: #1f77b4; stroke: #1f77b4"/>
     <use xlink:href="#m76a2df07dc" x="281.769915" y="92.086683" style="fill: #1f77b4; stroke: #1f77b4"/>
     <use xlink:href="#m76a2df07dc" x="293.004937" y="109.176097" style="fill: #1f77b4; stroke: #1f77b4"/>
     <use xlink:href="#m76a2df07dc" x="298.686" y="131.703592" style="fill: #1f77b4; stroke: #1f77b4"/>
     <use xlink:href="#m76a2df07dc" x="296.966966" y="156.39296" style="fill: #1f77b4; stroke: #1f77b4"/>
     <use xlink:href="#m76a2df07dc" x="281.073448" y="179.755323" style="fill: #1f77b4; stroke: #1f77b4"/>
     <use xlink:href="#m76a2df07dc" x="259.317344" y="197.453647" style="fill: #1f77b4; stroke: #1f77b4"/>
     <use xlink:href="#m76a2df07dc" x="232.212353" y="206.898821" style="fill: #1f77b4; stroke: #1f77b4"/>
     <use xlink:href="#m76a2df07dc" x="204.504848" y="207.406635" style="fill: #1f77b4; stroke: #1f77b4"/>
     <use xlink:href="#m76a2df07dc" x="182.454994" y="199.345364" style="fill: #1f77b4; stroke: #1f77b4"/>
     <use xlink:href="#m76a2df07dc" x="165.447603" y="191.062884" style="fill: #1f77b4; stroke: #1f77b4"/>
     <use xlink:href="#m76a2df07dc" x="154.171887" y="176.199349" style="fill: #1f77b4; stroke: #1f77b4"/>
     <use xlink:href="#m76a2df07dc" x="146.598023" y="164.4187" style="fill: #1f77b4; stroke: #1f77b4"/>
     <use xlink:href="#m76a2df07dc" x="142.352103" y="153.203283" style="fill: #1f77b4; stroke: #1f77b4"/>
     <use xlink:href="#m76a2df07dc" x="142.966624" y="141.290891" style="fill: #1f77b4; stroke: #1f77b4"/>
     <use xlink:href="#m76a2df07dc" x="142.670777" y="134.345938" style="fill: #1f77b4; stroke: #1f77b4"/>
     <use xlink:href="#m76a2df07dc" x="144.465339" y="125.435533" style="fill: #1f77b4; stroke: #1f77b4"/>
     <use xlink:href="#m76a2df07dc" x="145.674889" y="118.551615" style="fill: #1f77b4; stroke: #1f77b4"/>
     <use xlink:href="#m76a2df07dc" x="149.37395" y="112.614942" style="fill: #1f77b4; stroke: #1f77b4"/>
     <use xlink:href="#m76a2df07dc" x="152.13176" y="106.767215" style="fill: #1f77b4; stroke: #1f77b4"/>
     <use xlink:href="#m76a2df07dc" x="155.607911" y="102.79184" style="fill: #1f77b4; stroke: #1f77b4"/>
     <use xlink:href="#m76a2df07dc" x="157.735801" y="97.843963" style="fill: #1f77b4; stroke: #1f77b4"/>
     <use xlink:href="#m76a2df07dc" x="162.2958" y="93.731169" style="fill: #1f77b4; stroke: #1f77b4"/>
     <use xlink:href="#m76a2df07dc" x="166.579966" y="89.93105" style="fill: #1f77b4; stroke: #1f77b4"/>
     <use xlink:href="#m76a2df07dc" x="170.454718" y="86.39714" style="fill: #1f77b4; stroke: #1f77b4"/>
     <use xlink:href="#m76a2df07dc" x="173.389521" y="83.573273" style="fill: #1f77b4; stroke: #1f77b4"/>
     <use xlink:href="#m76a2df07dc" x="178.274126" y="80.166835" style="fill: #1f77b4; stroke: #1f77b4"/>
     <use xlink:href="#m76a2df07dc" x="180.831343" y="79.154108" style="fill: #1f77b4; stroke: #1f77b4"/>
     <use xlink:href="#m76a2df07dc" x="184.357311" y="76.530626" style="fill: #1f77b4; stroke: #1f77b4"/>
     <use xlink:href="#m76a2df07dc" x="188.782678" y="73.089925" style="fill: #1f77b4; stroke: #1f77b4"/>
     <use xlink:href="#m76a2df07dc" x="192.549252" y="72.97348" style="fill: #1f77b4; stroke: #1f77b4"/>
     <use xlink:href="#m76a2df07dc" x="197.686349" y="70.371435" style="fill: #1f77b4; stroke: #1f77b4"/>
     <use xlink:href="#m76a2df07dc" x="201.239028" y="69.172949" style="fill: #1f77b4; stroke: #1f77b4"/>
     <use xlink:href="#m76a2df07dc" x="203.772339" y="66.846786" style="fill: #1f77b4; stroke: #1f77b4"/>
     <use xlink:href="#m76a2df07dc" x="207.48871" y="66.325371" style="fill: #1f77b4; stroke: #1f77b4"/>
     <use xlink:href="#m76a2df07dc" x="212.095671" y="64.963697" style="fill: #1f77b4; stroke: #1f77b4"/>
     <use xlink:href="#m76a2df07dc" x="216.26104" y="64.756445" style="fill: #1f77b4; stroke: #1f77b4"/>
     <use xlink:href="#m76a2df07dc" x="218.18725" y="63.671831" style="fill: #1f77b4; stroke: #1f77b4"/>
     <use xlink:href="#m76a2df07dc" x="223.307774" y="61.902507" style="fill: #1f77b4; stroke: #1f77b4"/>
     <use xlink:href="#m76a2df07dc" x="226.314161" y="62.84224" style="fill: #1f77b4; stroke: #1f77b4"/>
     <use xlink:href="#m76a2df07dc" x="229.320978" y="60.533345" style="fill: #1f77b4; stroke: #1f77b4"/>
     <use xlink:href="#m76a2df07dc" x="232.926043" y="59.934153" style="fill: #1f77b4; stroke: #1f77b4"/>
     <use xlink:href="#m76a2df07dc" x="238.020385" y="58.524607" style="fill: #1f77b4; stroke: #1f77b4"/>
     <use xlink:href="#m76a2df07dc" x="240.344789" y="57.823845" style="fill: #1f77b4; stroke: #1f77b4"/>
     <use xlink:href="#m76a2df07dc" x="243.551661" y="58.207296" style="fill: #1f77b4; stroke: #1f77b4"/>
     <use xlink:href="#m76a2df07dc" x="247.373304" y="57.192371" style="fill: #1f77b4; stroke: #1f77b4"/>
     <use xlink:href="#m76a2df07dc" x="251.8994" y="58.01488" style="fill: #1f77b4; stroke: #1f77b4"/>
     <use xlink:href="#m76a2df07dc" x="255.022502" y="58.073704" style="fill: #1f77b4; stroke: #1f77b4"/>
     <use xlink:href="#m76a2df07dc" x="257.485373" y="57.331094" style="fill: #1f77b4; stroke: #1f77b4"/>
     <use xlink:href="#m76a2df07dc" x="261.936851" y="57.196856" style="fill: #1f77b4; stroke: #1f77b4"/>
     <use xlink:href="#m76a2df07dc" x="264.688543" y="56.86507" style="fill: #1f77b4; stroke: #1f77b4"/>
     <use xlink:href="#m76a2df07dc" x="267.930277" y="56.545168" style="fill: #1f77b4; stroke: #1f77b4"/>
     <use xlink:href="#m76a2df07dc" x="271.458735" y="56.660643" style="fill: #1f77b4; stroke: #1f77b4"/>
     <use xlink:href="#m76a2df07dc" x="275.162161" y="57.07286" style="fill: #1f77b4; stroke: #1f77b4"/>
     <use xlink:href="#m76a2df07dc" x="278.575708" y="57.570729" style="fill: #1f77b4; stroke: #1f77b4"/>
     <use xlink:href="#m76a2df07dc" x="281.266448" y="56.815982" style="fill: #1f77b4; stroke: #1f77b4"/>
     <use xlink:href="#m76a2df07dc" x="286.189164" y="56.594401" style="fill: #1f77b4; stroke: #1f77b4"/>
     <use xlink:href="#m76a2df07dc" x="289.994235" y="56.644895" style="fill: #1f77b4; stroke: #1f77b4"/>
     <use xlink:href="#m76a2df07dc" x="290.879723" y="57.565522" style="fill: #1f77b4; stroke: #1f77b4"/>
     <use xlink:href="#m76a2df07dc" x="292.973703" y="57.955289" style="fill: #1f77b4; stroke: #1f77b4"/>
     <use xlink:href="#m76a2df07dc" x="299.569886" y="58.941139" style="fill: #1f77b4; stroke: #1f77b4"/>
     <use xlink:href="#m76a2df07dc" x="301.356813" y="59.993642" style="fill: #1f77b4; stroke: #1f77b4"/>
     <use xlink:href="#m76a2df07dc" x="304.823039" y="59.516956" style="fill: #1f77b4; stroke: #1f77b4"/>
     <use xlink:href="#m76a2df07dc" x="308.082648" y="60.018252" style="fill: #1f77b4; stroke: #1f77b4"/>
     <use xlink:href="#m76a2df07dc" x="309.715744" y="61.03117" style="fill: #1f77b4; stroke: #1f77b4"/>
     <use xlink:href="#m76a2df07dc" x="314.583053" y="61.881007" style="fill: #1f77b4; stroke: #1f77b4"/>
     <use xlink:href="#m76a2df07dc" x="317.452232" y="63.927366" style="fill: #1f77b4; stroke: #1f77b4"/>
     <use xlink:href="#m76a2df07dc" x="320.329705" y="63.443085" style="fill: #1f77b4; stroke: #1f77b4"/>
     <use xlink:href="#m76a2df07dc" x="322.970585" y="63.669912" style="fill: #1f77b4; stroke: #1f77b4"/>
     <use xlink:href="#m76a2df07dc" x="325.168621" y="65.119176" style="fill: #1f77b4; stroke: #1f77b4"/>
     <use xlink:href="#m76a2df07dc" x="327.964033" y="65.650055" style="fill: #1f77b4; stroke: #1f77b4"/>
     <use xlink:href="#m76a2df07dc" x="331.806786" y="67.074385" style="fill: #1f77b4; stroke: #1f77b4"/>
     <use xlink:href="#m76a2df07dc" x="334.603193" y="69.035296" style="fill: #1f77b4; stroke: #1f77b4"/>
     <use xlink:href="#m76a2df07dc" x="337.620313" y="69.380942" style="fill: #1f77b4; stroke: #1f77b4"/>
     <use xlink:href="#m76a2df07dc" x="339.938942" y="70.465125" style="fill: #1f77b4; stroke: #1f77b4"/>
     <use xlink:href="#m76a2df07dc" x="341.928558" y="72.129211" style="fill: #1f77b4; stroke: #1f77b4"/>
     <use xlink:href="#m76a2df07dc" x="345.396866" y="74.314769" style="fill: #1f77b4; stroke: #1f77b4"/>
     <use xlink:href="#m76a2df07dc" x="346.464192" y="74.224956" style="fill: #1f77b4; stroke: #1f77b4"/>
     <use xlink:href="#m76a2df07dc" x="351.730489" y="74.9089" style="fill: #1f77b4; stroke: #1f77b4"/>
     <use xlink:href="#m76a2df07dc" x="353.269897" y="75.551314" style="fill: #1f77b4; stroke: #1f77b4"/>
     <use xlink:href="#m76a2df07dc" x="354.701292" y="77.455213" style="fill: #1f77b4; stroke: #1f77b4"/>
     <use xlink:href="#m76a2df07dc" x="358.351524" y="80.118128" style="fill: #1f77b4; stroke: #1f77b4"/>
     <use xlink:href="#m76a2df07dc" x="361.02894" y="80.620963" style="fill: #1f77b4; stroke: #1f77b4"/>
     <use xlink:href="#m76a2df07dc" x="362.649757" y="82.51396" style="fill: #1f77b4; stroke: #1f77b4"/>
     <use xlink:href="#m76a2df07dc" x="364.089202" y="84.050041" style="fill: #1f77b4; stroke: #1f77b4"/>
     <use xlink:href="#m76a2df07dc" x="366.517726" y="86.553151" style="fill: #1f77b4; stroke: #1f77b4"/>
     <use xlink:href="#m76a2df07dc" x="371.004631" y="87.08911" style="fill: #1f77b4; stroke: #1f77b4"/>
     <use xlink:href="#m76a2df07dc" x="371.978155" y="88.319365" style="fill: #1f77b4; stroke: #1f77b4"/>
     <use xlink:href="#m76a2df07dc" x="374.889137" y="89.954121" style="fill: #1f77b4; stroke: #1f77b4"/>
     <use xlink:href="#m76a2df07dc" x="375.060062" y="90.728746" style="fill: #1f77b4; stroke: #1f77b4"/>
     <use xlink:href="#m76a2df07dc" x="378.73571" y="93.236937" style="fill: #1f77b4; stroke: #1f77b4"/>
    </g>
   </g>
   <g id="line2d_18">
    <path d="M 69.665638 287.593699 
L 67.58353 282.021126 
L 65.706375 276.384399 
L 64.036845 270.688895 
L 62.577467 264.940032 
L 61.330624 259.143269 
L 60.298565 253.304095 
L 59.483408 247.428026 
L 58.887148 241.520593 
L 58.51167 235.587342 
L 58.358757 229.633818 
L 58.430107 223.665565 
L 58.727343 217.688117 
L 59.252042 211.706986 
L 60.005749 205.72766 
L 60.99001 199.755593 
L 62.206403 193.796196 
L 63.656576 187.854832 
L 65.342295 181.936807 
L 67.265502 176.047364 
L 69.428381 170.191678 
L 71.833441 164.374848 
L 74.253329 159.081179 
L 76.881847 153.828193 
L 79.722153 148.619649 
L 82.778019 143.45926 
L 86.05398 138.350704 
L 89.555525 133.297644 
L 93.289334 128.303756 
L 97.263571 123.372775 
L 101.488272 118.508572 
L 105.556631 114.147963 
L 109.85363 109.849296 
L 114.39326 105.616357 
L 119.192731 101.45357 
L 124.273333 97.366326 
L 129.108022 93.758007 
L 134.215738 90.22285 
L 139.625992 86.76939 
L 144.718521 83.777495 
L 150.110657 80.870264 
L 155.104944 78.407569 
L 160.389999 76.034711 
L 166.004088 73.769985 
L 171.112919 71.933511 
L 176.532269 70.215695 
L 182.303376 68.644532 
L 187.416202 67.473991 
L 192.8396 66.459753 
L 198.610704 65.638915 
L 203.505865 65.153574 
L 208.673673 64.854321 
L 214.139088 64.780628 
L 219.927891 64.981978 
L 224.497026 65.350332 
L 229.272215 65.940058 
L 234.261679 66.789196 
L 239.470835 67.942925 
L 244.900606 69.454779 
L 248.640458 70.692401 
L 252.471824 72.138397 
L 256.388052 73.816415 
L 260.379255 75.752493 
L 264.431479 77.975087 
L 268.52571 80.514997 
L 272.636698 83.405128 
L 276.731609 86.680023 
L 280.768506 90.375087 
L 284.694716 94.525389 
L 286.596504 96.781707 
L 288.445159 99.163925 
L 290.230355 101.67545 
L 291.940813 104.319216 
L 293.564284 107.097568 
L 295.087532 110.012122 
L 296.496348 113.063626 
L 297.775578 116.251796 
L 298.90918 119.575148 
L 299.880312 123.030816 
L 300.67146 126.614376 
L 301.264597 130.319655 
L 301.641397 134.138563 
L 301.783487 138.060924 
L 301.672756 142.074343 
L 301.291702 146.164097 
L 300.623833 150.313077 
L 299.654098 154.501776 
L 298.369351 158.708352 
L 296.758828 162.908762 
L 294.814624 167.076978 
L 292.532146 171.185293 
L 289.910521 175.20471 
L 286.952942 179.105417 
L 283.666917 182.857333 
L 280.064412 186.43071 
L 276.16186 189.796773 
L 271.980036 192.928368 
L 267.543788 195.800591 
L 262.881622 198.39138 
L 258.025173 200.682021 
L 253.008557 202.657566 
L 247.867656 204.307127 
L 242.639347 205.624046 
L 237.360723 206.605932 
L 232.068332 207.254555 
L 226.79747 207.575639 
L 221.581552 207.578532 
L 216.451576 207.275805 
L 211.435704 206.682785 
L 206.558958 205.817051 
L 201.843029 204.697922 
L 197.306198 203.345948 
L 192.963356 201.782429 
L 188.826107 200.028973 
L 184.902941 198.1071 
L 181.199456 196.03791 
L 177.718623 193.841795 
L 174.461067 191.53822 
L 171.425359 189.145551 
L 168.608313 186.680938 
L 166.005265 184.160237 
L 163.610339 181.597979 
L 161.4167 179.007357 
L 159.416771 176.400255 
L 157.602439 173.787288 
L 155.965227 171.17786 
L 154.496446 168.580233 
L 153.187323 166.001602 
L 152.02911 163.448177 
L 150.131057 158.437346 
L 148.735725 153.58078 
L 147.780967 148.900787 
L 147.209919 144.411155 
L 146.971338 140.119055 
L 147.019587 136.026634 
L 147.314386 132.132312 
L 147.820432 128.431823 
L 148.506958 124.919027 
L 149.34726 121.586545 
L 150.318239 118.426239 
L 151.976896 113.989899 
L 153.829417 109.892568 
L 155.831222 106.105739 
L 157.946876 102.602352 
L 160.148263 99.357218 
L 162.413101 96.347198 
L 165.501649 92.663449 
L 168.640125 89.316012 
L 171.805255 86.266242 
L 174.980155 83.480669 
L 178.94434 80.326522 
L 182.888702 77.492193 
L 186.802789 74.937567 
L 191.450915 72.194346 
L 196.040367 69.757872 
L 200.568797 67.589035 
L 205.774797 65.354511 
L 210.899776 63.399364 
L 216.662122 61.464421 
L 222.329161 59.810878 
L 227.907091 58.406809 
L 234.083127 57.093608 
L 240.161604 56.034291 
L 246.149304 55.205251 
L 252.702888 54.531021 
L 259.158227 54.096228 
L 265.520709 53.883572 
L 272.417235 53.889314 
L 279.210823 54.13104 
L 285.904536 54.595781 
L 292.500393 55.27262 
L 298.999534 56.152235 
L 305.402362 57.226543 
L 312.27715 58.612234 
L 319.036067 60.212988 
L 325.677525 62.021445 
L 332.199444 64.030896 
L 338.599336 66.235131 
L 344.874391 68.628319 
L 351.021536 71.204922 
L 357.037494 73.959618 
L 362.918831 76.887245 
L 368.661997 79.982749 
L 374.263361 83.241157 
L 377.917008 85.501495 
L 377.917008 85.501495 
" clip-path="url(#pee4a8dc16c)" style="fill: none; stroke: #d62728; stroke-width: 1.5; stroke-linecap: square"/>
   </g>
   <g id="patch_3">
    <path d="M 37.848438 307.872 
L 37.848438 41.76 
" style="fill: none; stroke: #000000; stroke-width: 0.8; stroke-linejoin: miter; stroke-linecap: square"/>
   </g>
   <g id="patch_4">
    <path d="M 394.968438 307.872 
L 394.968438 41.76 
" style="fill: none; stroke: #000000; stroke-width: 0.8; stroke-linejoin: miter; stroke-linecap: square"/>
   </g>
   <g id="patch_5">
    <path d="M 37.848437 307.872 
L 394.968438 307.872 
" style="fill: none; stroke: #000000; stroke-width: 0.8; stroke-linejoin: miter; stroke-linecap: square"/>
   </g>
   <g id="patch_6">
    <path d="M 37.848437 41.76 
L 394.968438 41.76 
" style="fill: none; stroke: #000000; stroke-width: 0.8; stroke-linejoin: miter; stroke-linecap: square"/>
   </g>
   <g id="text_19">
    <g id="patch_7">
     <path d="M 412.824438 102.337163 
L 552.224438 102.337163 
Q 556.224438 102.337163 556.224438 98.337163 
L 556.224438 55.0656 
Q 556.224438 51.0656 552.224438 51.0656 
L 412.824438 51.0656 
Q 408.824438 51.0656 408.824438 55.0656 
L 408.824438 98.337163 
Q 408.824438 102.337163 412.824438 102.337163 
z
" style="fill: #ffffff; opacity: 0.5; stroke: #000000; stroke-linejoin: miter"/>
    </g>
    <!-- Summary -->
    <g transform="translate(412.824438 62.664038) scale(0.1 -0.1)">
     <defs>
      <path id="DejaVuSans-53" d="M 3425 4513 
L 3425 3897 
Q 3066 4069 2747 4153 
Q 2428 4238 2131 4238 
Q 1616 4238 1336 4038 
Q 1056 3838 1056 3469 
Q 1056 3159 1242 3001 
Q 1428 2844 1947 2747 
L 2328 2669 
Q 3034 2534 3370 2195 
Q 3706 1856 3706 1288 
Q 3706 609 3251 259 
Q 2797 -91 1919 -91 
Q 1588 -91 1214 -16 
Q 841 59 441 206 
L 441 856 
Q 825 641 1194 531 
Q 1563 422 1919 422 
Q 2459 422 2753 634 
Q 3047 847 3047 1241 
Q 3047 1584 2836 1778 
Q 2625 1972 2144 2069 
L 1759 2144 
Q 1053 2284 737 2584 
Q 422 2884 422 3419 
Q 422 4038 858 4394 
Q 1294 4750 2059 4750 
Q 2388 4750 2728 4690 
Q 3069 4631 3425 4513 
z
" transform="scale(0.015625)"/>
      <path id="DejaVuSans-75" d="M 544 1381 
L 544 3500 
L 1119 3500 
L 1119 1403 
Q 1119 906 1312 657 
Q 1506 409 1894 409 
Q 2359 409 2629 706 
Q 2900 1003 2900 1516 
L 2900 3500 
L 3475 3500 
L 3475 0 
L 2900 0 
L 2900 538 
Q 2691 219 2414 64 
Q 2138 -91 1772 -91 
Q 1169 -91 856 284 
Q 544 659 544 1381 
z
M 1991 3584 
L 1991 3584 
z
" transform="scale(0.015625)"/>
      <path id="DejaVuSans-61" d="M 2194 1759 
Q 1497 1759 1228 1600 
Q 959 1441 959 1056 
Q 959 750 1161 570 
Q 1363 391 1709 391 
Q 2188 391 2477 730 
Q 2766 1069 2766 1631 
L 2766 1759 
L 2194 1759 
z
M 3341 1997 
L 3341 0 
L 2766 0 
L 2766 531 
Q 2569 213 2275 61 
Q 1981 -91 1556 -91 
Q 1019 -91 701 211 
Q 384 513 384 1019 
Q 384 1609 779 1909 
Q 1175 2209 1959 2209 
L 2766 2209 
L 2766 2266 
Q 2766 2663 2505 2880 
Q 2244 3097 1772 3097 
Q 1472 3097 1187 3025 
Q 903 2953 641 2809 
L 641 3341 
Q 956 3463 1253 3523 
Q 1550 3584 1831 3584 
Q 2591 3584 2966 3190 
Q 3341 2797 3341 1997 
z
" transform="scale(0.015625)"/>
      <path id="DejaVuSans-72" d="M 2631 2963 
Q 2534 3019 2420 3045 
Q 2306 3072 2169 3072 
Q 1681 3072 1420 2755 
Q 1159 2438 1159 1844 
L 1159 0 
L 581 0 
L 581 3500 
L 1159 3500 
L 1159 2956 
Q 1341 3275 1631 3429 
Q 1922 3584 2338 3584 
Q 2397 3584 2469 3576 
Q 2541 3569 2628 3553 
L 2631 2963 
z
" transform="scale(0.015625)"/>
      <path id="DejaVuSans-79" d="M 2059 -325 
Q 1816 -950 1584 -1140 
Q 1353 -1331 966 -1331 
L 506 -1331 
L 506 -850 
L 844 -850 
Q 1081 -850 1212 -737 
Q 1344 -625 1503 -206 
L 1606 56 
L 191 3500 
L 800 3500 
L 1894 763 
L 2988 3500 
L 3597 3500 
L 2059 -325 
z
" transform="scale(0.015625)"/>
     </defs>
     <use xlink:href="#DejaVuSans-53"/>
     <use xlink:href="#DejaVuSans-75" x="63.476562"/>
     <use xlink:href="#DejaVuSans-6d" x="126.855469"/>
     <use xlink:href="#DejaVuSans-6d" x="224.267578"/>
     <use xlink:href="#DejaVuSans-61" x="321.679688"/>
     <use xlink:href="#DejaVuSans-72" x="382.958984"/>
     <use xlink:href="#DejaVuSans-79" x="424.072266"/>
    </g>
    <!-- $Q_I$: 16.4$\pm$1.5 k -->
    <g transform="translate(412.824438 73.86185) scale(0.1 -0.1)">
     <defs>
      <path id="DejaVuSans-Oblique-51" d="M 2309 -84 
Q 2275 -88 2237 -89 
Q 2200 -91 2125 -91 
Q 1250 -91 756 411 
Q 263 913 263 1797 
Q 263 2319 452 2844 
Q 641 3369 978 3788 
Q 1369 4269 1858 4509 
Q 2347 4750 2938 4750 
Q 3794 4750 4287 4245 
Q 4781 3741 4781 2869 
Q 4781 1928 4265 1147 
Q 3750 366 2919 44 
L 3553 -825 
L 2847 -825 
L 2309 -84 
z
M 2919 4238 
Q 2400 4238 2003 3986 
Q 1606 3734 1313 3219 
Q 1125 2891 1026 2522 
Q 928 2153 928 1778 
Q 928 1128 1239 775 
Q 1550 422 2119 422 
Q 2631 422 3032 676 
Q 3434 931 3719 1434 
Q 3909 1772 4009 2142 
Q 4109 2513 4109 2881 
Q 4109 3528 3796 3883 
Q 3484 4238 2919 4238 
z
" transform="scale(0.015625)"/>
      <path id="DejaVuSans-Oblique-49" d="M 1081 4666 
L 1716 4666 
L 806 0 
L 172 0 
L 1081 4666 
z
" transform="scale(0.015625)"/>
      <path id="DejaVuSans-3a" d="M 750 794 
L 1409 794 
L 1409 0 
L 750 0 
L 750 794 
z
M 750 3309 
L 1409 3309 
L 1409 2516 
L 750 2516 
L 750 3309 
z
" transform="scale(0.015625)"/>
      <path id="DejaVuSans-2e" d="M 684 794 
L 1344 794 
L 1344 0 
L 684 0 
L 684 794 
z
" transform="scale(0.015625)"/>
      <path id="DejaVuSans-b1" d="M 2944 4013 
L 2944 2803 
L 4684 2803 
L 4684 2272 
L 2944 2272 
L 2944 1063 
L 2419 1063 
L 2419 2272 
L 678 2272 
L 678 2803 
L 2419 2803 
L 2419 4013 
L 2944 4013 
z
M 678 531 
L 4684 531 
L 4684 0 
L 678 0 
L 678 531 
z
" transform="scale(0.015625)"/>
      <path id="DejaVuSans-35" d="M 691 4666 
L 3169 4666 
L 3169 4134 
L 1269 4134 
L 1269 2991 
Q 1406 3038 1543 3061 
Q 1681 3084 1819 3084 
Q 2600 3084 3056 2656 
Q 3513 2228 3513 1497 
Q 3513 744 3044 326 
Q 2575 -91 1722 -91 
Q 1428 -91 1123 -41 
Q 819 9 494 109 
L 494 744 
Q 775 591 1075 516 
Q 1375 441 1709 441 
Q 2250 441 2565 725 
Q 2881 1009 2881 1497 
Q 2881 1984 2565 2268 
Q 2250 2553 1709 2553 
Q 1456 2553 1204 2497 
Q 953 2441 691 2322 
L 691 4666 
z
" transform="scale(0.015625)"/>
      <path id="DejaVuSans-6b" d="M 581 4863 
L 1159 4863 
L 1159 1991 
L 2875 3500 
L 3609 3500 
L 1753 1863 
L 3688 0 
L 2938 0 
L 1159 1709 
L 1159 0 
L 581 0 
L 581 4863 
z
" transform="scale(0.015625)"/>
     </defs>
     <use xlink:href="#DejaVuSans-Oblique-51" transform="translate(0 0.015625)"/>
     <use xlink:href="#DejaVuSans-Oblique-49" transform="translate(78.710938 -16.390625) scale(0.7)"/>
     <use xlink:href="#DejaVuSans-3a" transform="translate(102.089844 0.015625)"/>
     <use xlink:href="#DejaVuSans-20" transform="translate(135.78125 0.015625)"/>
     <use xlink:href="#DejaVuSans-31" transform="translate(167.568359 0.015625)"/>
     <use xlink:href="#DejaVuSans-36" transform="translate(231.191406 0.015625)"/>
     <use xlink:href="#DejaVuSans-2e" transform="translate(294.814453 0.015625)"/>
     <use xlink:href="#DejaVuSans-34" transform="translate(326.601562 0.015625)"/>
     <use xlink:href="#DejaVuSans-b1" transform="translate(390.224609 0.015625)"/>
     <use xlink:href="#DejaVuSans-31" transform="translate(474.013672 0.015625)"/>
     <use xlink:href="#DejaVuSans-2e" transform="translate(537.636719 0.015625)"/>
     <use xlink:href="#DejaVuSans-35" transform="translate(569.423828 0.015625)"/>
     <use xlink:href="#DejaVuSans-20" transform="translate(633.046875 0.015625)"/>
     <use xlink:href="#DejaVuSans-6b" transform="translate(664.833984 0.015625)"/>
    </g>
    <!-- $Q_C$: 2.855$\pm$0.044 k -->
    <g transform="translate(412.824438 85.059663) scale(0.1 -0.1)">
     <defs>
      <path id="DejaVuSans-Oblique-43" d="M 4447 4306 
L 4319 3641 
Q 4019 3944 3683 4091 
Q 3347 4238 2956 4238 
Q 2422 4238 2017 3981 
Q 1613 3725 1319 3200 
Q 1131 2863 1032 2486 
Q 934 2109 934 1728 
Q 934 1091 1264 756 
Q 1594 422 2222 422 
Q 2656 422 3056 561 
Q 3456 700 3834 978 
L 3688 231 
Q 3316 72 2936 -9 
Q 2556 -91 2175 -91 
Q 1278 -91 773 396 
Q 269 884 269 1753 
Q 269 2309 461 2846 
Q 653 3384 1013 3828 
Q 1394 4300 1883 4525 
Q 2372 4750 3022 4750 
Q 3422 4750 3780 4639 
Q 4138 4528 4447 4306 
z
" transform="scale(0.015625)"/>
     </defs>
     <use xlink:href="#DejaVuSans-Oblique-51" transform="translate(0 0.015625)"/>
     <use xlink:href="#DejaVuSans-Oblique-43" transform="translate(78.710938 -16.390625) scale(0.7)"/>
     <use xlink:href="#DejaVuSans-3a" transform="translate(130.322266 0.015625)"/>
     <use xlink:href="#DejaVuSans-20" transform="translate(164.013672 0.015625)"/>
     <use xlink:href="#DejaVuSans-32" transform="translate(195.800781 0.015625)"/>
     <use xlink:href="#DejaVuSans-2e" transform="translate(259.423828 0.015625)"/>
     <use xlink:href="#DejaVuSans-38" transform="translate(288.585938 0.015625)"/>
     <use xlink:href="#DejaVuSans-35" transform="translate(352.208984 0.015625)"/>
     <use xlink:href="#DejaVuSans-35" transform="translate(415.832031 0.015625)"/>
     <use xlink:href="#DejaVuSans-b1" transform="translate(479.455078 0.015625)"/>
     <use xlink:href="#DejaVuSans-30" transform="translate(563.244141 0.015625)"/>
     <use xlink:href="#DejaVuSans-2e" transform="translate(626.867188 0.015625)"/>
     <use xlink:href="#DejaVuSans-30" transform="translate(658.654297 0.015625)"/>
     <use xlink:href="#DejaVuSans-34" transform="translate(722.277344 0.015625)"/>
     <use xlink:href="#DejaVuSans-34" transform="translate(785.900391 0.015625)"/>
     <use xlink:href="#DejaVuSans-20" transform="translate(849.523438 0.015625)"/>
     <use xlink:href="#DejaVuSans-6b" transform="translate(881.310547 0.015625)"/>
    </g>
    <!-- $f_{res}$: 6.008189$\pm$2.5e-05 GHz -->
    <g transform="translate(412.824438 96.257475) scale(0.1 -0.1)">
     <defs>
      <path id="DejaVuSans-Oblique-66" d="M 3059 4863 
L 2969 4384 
L 2419 4384 
Q 2106 4384 1964 4261 
Q 1822 4138 1753 3809 
L 1691 3500 
L 2638 3500 
L 2553 3053 
L 1606 3053 
L 1013 0 
L 434 0 
L 1031 3053 
L 481 3053 
L 563 3500 
L 1113 3500 
L 1159 3744 
Q 1278 4363 1576 4613 
Q 1875 4863 2516 4863 
L 3059 4863 
z
" transform="scale(0.015625)"/>
      <path id="DejaVuSans-Oblique-72" d="M 2853 2969 
Q 2766 3016 2653 3041 
Q 2541 3066 2413 3066 
Q 1953 3066 1609 2717 
Q 1266 2369 1153 1784 
L 800 0 
L 225 0 
L 909 3500 
L 1484 3500 
L 1375 2956 
Q 1603 3259 1920 3421 
Q 2238 3584 2597 3584 
Q 2691 3584 2781 3573 
Q 2872 3563 2963 3538 
L 2853 2969 
z
" transform="scale(0.015625)"/>
      <path id="DejaVuSans-Oblique-65" d="M 3078 2063 
Q 3088 2113 3092 2166 
Q 3097 2219 3097 2272 
Q 3097 2653 2873 2875 
Q 2650 3097 2266 3097 
Q 1838 3097 1509 2826 
Q 1181 2556 1013 2059 
L 3078 2063 
z
M 3578 1613 
L 903 1613 
Q 884 1494 878 1425 
Q 872 1356 872 1306 
Q 872 872 1139 634 
Q 1406 397 1894 397 
Q 2269 397 2603 481 
Q 2938 566 3225 728 
L 3116 159 
Q 2806 34 2476 -28 
Q 2147 -91 1806 -91 
Q 1078 -91 686 257 
Q 294 606 294 1247 
Q 294 1794 489 2264 
Q 684 2734 1063 3103 
Q 1306 3334 1642 3459 
Q 1978 3584 2356 3584 
Q 2950 3584 3301 3228 
Q 3653 2872 3653 2272 
Q 3653 2128 3634 1964 
Q 3616 1800 3578 1613 
z
" transform="scale(0.015625)"/>
      <path id="DejaVuSans-Oblique-73" d="M 3200 3397 
L 3091 2853 
Q 2863 2978 2609 3040 
Q 2356 3103 2088 3103 
Q 1634 3103 1373 2948 
Q 1113 2794 1113 2528 
Q 1113 2219 1719 2053 
Q 1766 2041 1788 2034 
L 1972 1978 
Q 2547 1819 2739 1644 
Q 2931 1469 2931 1166 
Q 2931 609 2489 259 
Q 2047 -91 1331 -91 
Q 1053 -91 747 -37 
Q 441 16 72 128 
L 184 722 
Q 500 559 806 475 
Q 1113 391 1394 391 
Q 1816 391 2080 572 
Q 2344 753 2344 1031 
Q 2344 1331 1650 1516 
L 1591 1531 
L 1394 1581 
Q 956 1697 753 1886 
Q 550 2075 550 2369 
Q 550 2928 970 3256 
Q 1391 3584 2113 3584 
Q 2397 3584 2667 3537 
Q 2938 3491 3200 3397 
z
" transform="scale(0.015625)"/>
      <path id="DejaVuSans-39" d="M 703 97 
L 703 672 
Q 941 559 1184 500 
Q 1428 441 1663 441 
Q 2288 441 2617 861 
Q 2947 1281 2994 2138 
Q 2813 1869 2534 1725 
Q 2256 1581 1919 1581 
Q 1219 1581 811 2004 
Q 403 2428 403 3163 
Q 403 3881 828 4315 
Q 1253 4750 1959 4750 
Q 2769 4750 3195 4129 
Q 3622 3509 3622 2328 
Q 3622 1225 3098 567 
Q 2575 -91 1691 -91 
Q 1453 -91 1209 -44 
Q 966 3 703 97 
z
M 1959 2075 
Q 2384 2075 2632 2365 
Q 2881 2656 2881 3163 
Q 2881 3666 2632 3958 
Q 2384 4250 1959 4250 
Q 1534 4250 1286 3958 
Q 1038 3666 1038 3163 
Q 1038 2656 1286 2365 
Q 1534 2075 1959 2075 
z
" transform="scale(0.015625)"/>
      <path id="DejaVuSans-47" d="M 3809 666 
L 3809 1919 
L 2778 1919 
L 2778 2438 
L 4434 2438 
L 4434 434 
Q 4069 175 3628 42 
Q 3188 -91 2688 -91 
Q 1594 -91 976 548 
Q 359 1188 359 2328 
Q 359 3472 976 4111 
Q 1594 4750 2688 4750 
Q 3144 4750 3555 4637 
Q 3966 4525 4313 4306 
L 4313 3634 
Q 3963 3931 3569 4081 
Q 3175 4231 2741 4231 
Q 1884 4231 1454 3753 
Q 1025 3275 1025 2328 
Q 1025 1384 1454 906 
Q 1884 428 2741 428 
Q 3075 428 3337 486 
Q 3600 544 3809 666 
z
" transform="scale(0.015625)"/>
      <path id="DejaVuSans-48" d="M 628 4666 
L 1259 4666 
L 1259 2753 
L 3553 2753 
L 3553 4666 
L 4184 4666 
L 4184 0 
L 3553 0 
L 3553 2222 
L 1259 2222 
L 1259 0 
L 628 0 
L 628 4666 
z
" transform="scale(0.015625)"/>
      <path id="DejaVuSans-7a" d="M 353 3500 
L 3084 3500 
L 3084 2975 
L 922 459 
L 3084 459 
L 3084 0 
L 275 0 
L 275 525 
L 2438 3041 
L 353 3041 
L 353 3500 
z
" transform="scale(0.015625)"/>
     </defs>
     <use xlink:href="#DejaVuSans-Oblique-66" transform="translate(0 0.015625)"/>
     <use xlink:href="#DejaVuSans-Oblique-72" transform="translate(35.205078 -16.390625) scale(0.7)"/>
     <use xlink:href="#DejaVuSans-Oblique-65" transform="translate(63.984375 -16.390625) scale(0.7)"/>
     <use xlink:href="#DejaVuSans-Oblique-73" transform="translate(107.050781 -16.390625) scale(0.7)"/>
     <use xlink:href="#DejaVuSans-3a" transform="translate(146.254883 0.015625)"/>
     <use xlink:href="#DejaVuSans-20" transform="translate(179.946289 0.015625)"/>
     <use xlink:href="#DejaVuSans-36" transform="translate(211.733398 0.015625)"/>
     <use xlink:href="#DejaVuSans-2e" transform="translate(275.356445 0.015625)"/>
     <use xlink:href="#DejaVuSans-30" transform="translate(307.143555 0.015625)"/>
     <use xlink:href="#DejaVuSans-30" transform="translate(370.766602 0.015625)"/>
     <use xlink:href="#DejaVuSans-38" transform="translate(434.389648 0.015625)"/>
     <use xlink:href="#DejaVuSans-31" transform="translate(498.012695 0.015625)"/>
     <use xlink:href="#DejaVuSans-38" transform="translate(561.635742 0.015625)"/>
     <use xlink:href="#DejaVuSans-39" transform="translate(625.258789 0.015625)"/>
     <use xlink:href="#DejaVuSans-b1" transform="translate(688.881836 0.015625)"/>
     <use xlink:href="#DejaVuSans-32" transform="translate(772.670898 0.015625)"/>
     <use xlink:href="#DejaVuSans-2e" transform="translate(836.293945 0.015625)"/>
     <use xlink:href="#DejaVuSans-35" transform="translate(868.081055 0.015625)"/>
     <use xlink:href="#DejaVuSans-65" transform="translate(931.704102 0.015625)"/>
     <use xlink:href="#DejaVuSans-2d" transform="translate(993.227539 0.015625)"/>
     <use xlink:href="#DejaVuSans-30" transform="translate(1029.311523 0.015625)"/>
     <use xlink:href="#DejaVuSans-35" transform="translate(1092.93457 0.015625)"/>
     <use xlink:href="#DejaVuSans-20" transform="translate(1156.557617 0.015625)"/>
     <use xlink:href="#DejaVuSans-47" transform="translate(1188.344727 0.015625)"/>
     <use xlink:href="#DejaVuSans-48" transform="translate(1265.834961 0.015625)"/>
     <use xlink:href="#DejaVuSans-7a" transform="translate(1341.030273 0.015625)"/>
    </g>
   </g>
  </g>
  <g id="text_20">
   <!-- S21 resonator spectroscopy -->
   <g transform="translate(126.864063 16.318125) scale(0.12 -0.12)">
    <defs>
     <path id="DejaVuSans-73" d="M 2834 3397 
L 2834 2853 
Q 2591 2978 2328 3040 
Q 2066 3103 1784 3103 
Q 1356 3103 1142 2972 
Q 928 2841 928 2578 
Q 928 2378 1081 2264 
Q 1234 2150 1697 2047 
L 1894 2003 
Q 2506 1872 2764 1633 
Q 3022 1394 3022 966 
Q 3022 478 2636 193 
Q 2250 -91 1575 -91 
Q 1294 -91 989 -36 
Q 684 19 347 128 
L 347 722 
Q 666 556 975 473 
Q 1284 391 1588 391 
Q 1994 391 2212 530 
Q 2431 669 2431 922 
Q 2431 1156 2273 1281 
Q 2116 1406 1581 1522 
L 1381 1569 
Q 847 1681 609 1914 
Q 372 2147 372 2553 
Q 372 3047 722 3315 
Q 1072 3584 1716 3584 
Q 2034 3584 2315 3537 
Q 2597 3491 2834 3397 
z
" transform="scale(0.015625)"/>
     <path id="DejaVuSans-6f" d="M 1959 3097 
Q 1497 3097 1228 2736 
Q 959 2375 959 1747 
Q 959 1119 1226 758 
Q 1494 397 1959 397 
Q 2419 397 2687 759 
Q 2956 1122 2956 1747 
Q 2956 2369 2687 2733 
Q 2419 3097 1959 3097 
z
M 1959 3584 
Q 2709 3584 3137 3096 
Q 3566 2609 3566 1747 
Q 3566 888 3137 398 
Q 2709 -91 1959 -91 
Q 1206 -91 779 398 
Q 353 888 353 1747 
Q 353 2609 779 3096 
Q 1206 3584 1959 3584 
z
" transform="scale(0.015625)"/>
     <path id="DejaVuSans-6e" d="M 3513 2113 
L 3513 0 
L 2938 0 
L 2938 2094 
Q 2938 2591 2744 2837 
Q 2550 3084 2163 3084 
Q 1697 3084 1428 2787 
Q 1159 2491 1159 1978 
L 1159 0 
L 581 0 
L 581 3500 
L 1159 3500 
L 1159 2956 
Q 1366 3272 1645 3428 
Q 1925 3584 2291 3584 
Q 2894 3584 3203 3211 
Q 3513 2838 3513 2113 
z
" transform="scale(0.015625)"/>
     <path id="DejaVuSans-74" d="M 1172 4494 
L 1172 3500 
L 2356 3500 
L 2356 3053 
L 1172 3053 
L 1172 1153 
Q 1172 725 1289 603 
Q 1406 481 1766 481 
L 2356 481 
L 2356 0 
L 1766 0 
Q 1100 0 847 248 
Q 594 497 594 1153 
L 594 3053 
L 172 3053 
L 172 3500 
L 594 3500 
L 594 4494 
L 1172 4494 
z
" transform="scale(0.015625)"/>
     <path id="DejaVuSans-70" d="M 1159 525 
L 1159 -1331 
L 581 -1331 
L 581 3500 
L 1159 3500 
L 1159 2969 
Q 1341 3281 1617 3432 
Q 1894 3584 2278 3584 
Q 2916 3584 3314 3078 
Q 3713 2572 3713 1747 
Q 3713 922 3314 415 
Q 2916 -91 2278 -91 
Q 1894 -91 1617 61 
Q 1341 213 1159 525 
z
M 3116 1747 
Q 3116 2381 2855 2742 
Q 2594 3103 2138 3103 
Q 1681 3103 1420 2742 
Q 1159 2381 1159 1747 
Q 1159 1113 1420 752 
Q 1681 391 2138 391 
Q 2594 391 2855 752 
Q 3116 1113 3116 1747 
z
" transform="scale(0.015625)"/>
     <path id="DejaVuSans-63" d="M 3122 3366 
L 3122 2828 
Q 2878 2963 2633 3030 
Q 2388 3097 2138 3097 
Q 1578 3097 1268 2742 
Q 959 2388 959 1747 
Q 959 1106 1268 751 
Q 1578 397 2138 397 
Q 2388 397 2633 464 
Q 2878 531 3122 666 
L 3122 134 
Q 2881 22 2623 -34 
Q 2366 -91 2075 -91 
Q 1284 -91 818 406 
Q 353 903 353 1747 
Q 353 2603 823 3093 
Q 1294 3584 2113 3584 
Q 2378 3584 2631 3529 
Q 2884 3475 3122 3366 
z
" transform="scale(0.015625)"/>
    </defs>
    <use xlink:href="#DejaVuSans-53"/>
    <use xlink:href="#DejaVuSans-32" x="63.476562"/>
    <use xlink:href="#DejaVuSans-31" x="127.099609"/>
    <use xlink:href="#DejaVuSans-20" x="190.722656"/>
    <use xlink:href="#DejaVuSans-72" x="222.509766"/>
    <use xlink:href="#DejaVuSans-65" x="261.373047"/>
    <use xlink:href="#DejaVuSans-73" x="322.896484"/>
    <use xlink:href="#DejaVuSans-6f" x="374.996094"/>
    <use xlink:href="#DejaVuSans-6e" x="436.177734"/>
    <use xlink:href="#DejaVuSans-61" x="499.556641"/>
    <use xlink:href="#DejaVuSans-74" x="560.835938"/>
    <use xlink:href="#DejaVuSans-6f" x="600.044922"/>
    <use xlink:href="#DejaVuSans-72" x="661.226562"/>
    <use xlink:href="#DejaVuSans-20" x="702.339844"/>
    <use xlink:href="#DejaVuSans-73" x="734.126953"/>
    <use xlink:href="#DejaVuSans-70" x="786.226562"/>
    <use xlink:href="#DejaVuSans-65" x="849.703125"/>
    <use xlink:href="#DejaVuSans-63" x="911.226562"/>
    <use xlink:href="#DejaVuSans-74" x="966.207031"/>
    <use xlink:href="#DejaVuSans-72" x="1005.416016"/>
    <use xlink:href="#DejaVuSans-6f" x="1044.279297"/>
    <use xlink:href="#DejaVuSans-73" x="1105.460938"/>
    <use xlink:href="#DejaVuSans-63" x="1157.560547"/>
    <use xlink:href="#DejaVuSans-6f" x="1212.541016"/>
    <use xlink:href="#DejaVuSans-70" x="1273.722656"/>
    <use xlink:href="#DejaVuSans-79" x="1337.199219"/>
   </g>
   <!-- tuid: 20231225-134034-061-c246de -->
   <g transform="translate(101.445625 29.7555) scale(0.12 -0.12)">
    <defs>
     <path id="DejaVuSans-69" d="M 603 3500 
L 1178 3500 
L 1178 0 
L 603 0 
L 603 3500 
z
M 603 4863 
L 1178 4863 
L 1178 4134 
L 603 4134 
L 603 4863 
z
" transform="scale(0.015625)"/>
     <path id="DejaVuSans-64" d="M 2906 2969 
L 2906 4863 
L 3481 4863 
L 3481 0 
L 2906 0 
L 2906 525 
Q 2725 213 2448 61 
Q 2172 -91 1784 -91 
Q 1150 -91 751 415 
Q 353 922 353 1747 
Q 353 2572 751 3078 
Q 1150 3584 1784 3584 
Q 2172 3584 2448 3432 
Q 2725 3281 2906 2969 
z
M 947 1747 
Q 947 1113 1208 752 
Q 1469 391 1925 391 
Q 2381 391 2643 752 
Q 2906 1113 2906 1747 
Q 2906 2381 2643 2742 
Q 2381 3103 1925 3103 
Q 1469 3103 1208 2742 
Q 947 2381 947 1747 
z
" transform="scale(0.015625)"/>
     <path id="DejaVuSans-33" d="M 2597 2516 
Q 3050 2419 3304 2112 
Q 3559 1806 3559 1356 
Q 3559 666 3084 287 
Q 2609 -91 1734 -91 
Q 1441 -91 1130 -33 
Q 819 25 488 141 
L 488 750 
Q 750 597 1062 519 
Q 1375 441 1716 441 
Q 2309 441 2620 675 
Q 2931 909 2931 1356 
Q 2931 1769 2642 2001 
Q 2353 2234 1838 2234 
L 1294 2234 
L 1294 2753 
L 1863 2753 
Q 2328 2753 2575 2939 
Q 2822 3125 2822 3475 
Q 2822 3834 2567 4026 
Q 2313 4219 1838 4219 
Q 1578 4219 1281 4162 
Q 984 4106 628 3988 
L 628 4550 
Q 988 4650 1302 4700 
Q 1616 4750 1894 4750 
Q 2613 4750 3031 4423 
Q 3450 4097 3450 3541 
Q 3450 3153 3228 2886 
Q 3006 2619 2597 2516 
z
" transform="scale(0.015625)"/>
    </defs>
    <use xlink:href="#DejaVuSans-74"/>
    <use xlink:href="#DejaVuSans-75" x="39.208984"/>
    <use xlink:href="#DejaVuSans-69" x="102.587891"/>
    <use xlink:href="#DejaVuSans-64" x="130.371094"/>
    <use xlink:href="#DejaVuSans-3a" x="193.847656"/>
    <use xlink:href="#DejaVuSans-20" x="227.539062"/>
    <use xlink:href="#DejaVuSans-32" x="259.326172"/>
    <use xlink:href="#DejaVuSans-30" x="322.949219"/>
    <use xlink:href="#DejaVuSans-32" x="386.572266"/>
    <use xlink:href="#DejaVuSans-33" x="450.195312"/>
    <use xlink:href="#DejaVuSans-31" x="513.818359"/>
    <use xlink:href="#DejaVuSans-32" x="577.441406"/>
    <use xlink:href="#DejaVuSans-32" x="641.064453"/>
    <use xlink:href="#DejaVuSans-35" x="704.6875"/>
    <use xlink:href="#DejaVuSans-2d" x="768.310547"/>
    <use xlink:href="#DejaVuSans-31" x="804.394531"/>
    <use xlink:href="#DejaVuSans-33" x="868.017578"/>
    <use xlink:href="#DejaVuSans-34" x="931.640625"/>
    <use xlink:href="#DejaVuSans-30" x="995.263672"/>
    <use xlink:href="#DejaVuSans-33" x="1058.886719"/>
    <use xlink:href="#DejaVuSans-34" x="1122.509766"/>
    <use xlink:href="#DejaVuSans-2d" x="1186.132812"/>
    <use xlink:href="#DejaVuSans-30" x="1222.216797"/>
    <use xlink:href="#DejaVuSans-36" x="1285.839844"/>
    <use xlink:href="#DejaVuSans-31" x="1349.462891"/>
    <use xlink:href="#DejaVuSans-2d" x="1413.085938"/>
    <use xlink:href="#DejaVuSans-63" x="1449.169922"/>
    <use xlink:href="#DejaVuSans-32" x="1504.150391"/>
    <use xlink:href="#DejaVuSans-34" x="1567.773438"/>
    <use xlink:href="#DejaVuSans-36" x="1631.396484"/>
    <use xlink:href="#DejaVuSans-64" x="1695.019531"/>
    <use xlink:href="#DejaVuSans-65" x="1758.496094"/>
   </g>
  </g>
 </g>
 <defs>
  <clipPath id="pee4a8dc16c">
   <rect x="37.848438" y="41.76" width="357.12" height="266.112"/>
  </clipPath>
 </defs>
</svg>
