<?xml version="1.0" encoding="utf-8" standalone="no"?>
<!DOCTYPE svg PUBLIC "-//W3C//DTD SVG 1.1//EN"
  "http://www.w3.org/Graphics/SVG/1.1/DTD/svg11.dtd">
<svg xmlns:xlink="http://www.w3.org/1999/xlink" width="647.026pt" height="345.42825pt" viewBox="0 0 647.026 345.42825" xmlns="http://www.w3.org/2000/svg" version="1.1">
 <metadata>
  <rdf:RDF xmlns:dc="http://purl.org/dc/elements/1.1/" xmlns:cc="http://creativecommons.org/ns#" xmlns:rdf="http://www.w3.org/1999/02/22-rdf-syntax-ns#">
   <cc:Work>
    <dc:type rdf:resource="http://purl.org/dc/dcmitype/StillImage"/>
    <dc:date>2024-01-05T14:44:45.512605</dc:date>
    <dc:format>image/svg+xml</dc:format>
    <dc:creator>
     <cc:Agent>
      <dc:title>Matplotlib v3.8.1, https://matplotlib.org/</dc:title>
     </cc:Agent>
    </dc:creator>
   </cc:Work>
  </rdf:RDF>
 </metadata>
 <defs>
  <style type="text/css">*{stroke-linejoin: round; stroke-linecap: butt}</style>
 </defs>
 <g id="figure_1">
  <g id="patch_1">
   <path d="M 0 345.42825 
L 647.026 345.42825 
L 647.026 -0 
L 0 -0 
L 0 345.42825 
z
" style="fill: none; opacity: 0"/>
  </g>
  <g id="axes_1">
   <g id="patch_2">
    <path d="M 40.603125 307.872 
L 397.723125 307.872 
L 397.723125 41.76 
L 40.603125 41.76 
z
" style="fill: #ffffff"/>
   </g>
   <g id="matplotlib.axis_1">
    <g id="xtick_1">
     <g id="line2d_1">
      <defs>
       <path id="mcdd987ab58" d="M 0 0 
L 0 3.5 
" style="stroke: #000000; stroke-width: 0.8"/>
      </defs>
      <g>
       <use xlink:href="#mcdd987ab58" x="73.617865" y="307.872" style="stroke: #000000; stroke-width: 0.8"/>
      </g>
     </g>
     <g id="text_1">
      <!-- 105 -->
      <g transform="translate(64.074115 322.470438) scale(0.1 -0.1)">
       <defs>
        <path id="DejaVuSans-31" d="M 794 531 
L 1825 531 
L 1825 4091 
L 703 3866 
L 703 4441 
L 1819 4666 
L 2450 4666 
L 2450 531 
L 3481 531 
L 3481 0 
L 794 0 
L 794 531 
z
" transform="scale(0.015625)"/>
        <path id="DejaVuSans-30" d="M 2034 4250 
Q 1547 4250 1301 3770 
Q 1056 3291 1056 2328 
Q 1056 1369 1301 889 
Q 1547 409 2034 409 
Q 2525 409 2770 889 
Q 3016 1369 3016 2328 
Q 3016 3291 2770 3770 
Q 2525 4250 2034 4250 
z
M 2034 4750 
Q 2819 4750 3233 4129 
Q 3647 3509 3647 2328 
Q 3647 1150 3233 529 
Q 2819 -91 2034 -91 
Q 1250 -91 836 529 
Q 422 1150 422 2328 
Q 422 3509 836 4129 
Q 1250 4750 2034 4750 
z
" transform="scale(0.015625)"/>
        <path id="DejaVuSans-35" d="M 691 4666 
L 3169 4666 
L 3169 4134 
L 1269 4134 
L 1269 2991 
Q 1406 3038 1543 3061 
Q 1681 3084 1819 3084 
Q 2600 3084 3056 2656 
Q 3513 2228 3513 1497 
Q 3513 744 3044 326 
Q 2575 -91 1722 -91 
Q 1428 -91 1123 -41 
Q 819 9 494 109 
L 494 744 
Q 775 591 1075 516 
Q 1375 441 1709 441 
Q 2250 441 2565 725 
Q 2881 1009 2881 1497 
Q 2881 1984 2565 2268 
Q 2250 2553 1709 2553 
Q 1456 2553 1204 2497 
Q 953 2441 691 2322 
L 691 4666 
z
" transform="scale(0.015625)"/>
       </defs>
       <use xlink:href="#DejaVuSans-31"/>
       <use xlink:href="#DejaVuSans-30" x="63.623047"/>
       <use xlink:href="#DejaVuSans-35" x="127.246094"/>
      </g>
     </g>
    </g>
    <g id="xtick_2">
     <g id="line2d_2">
      <g>
       <use xlink:href="#mcdd987ab58" x="114.199683" y="307.872" style="stroke: #000000; stroke-width: 0.8"/>
      </g>
     </g>
     <g id="text_2">
      <!-- 105.5 -->
      <g transform="translate(99.88562 322.470438) scale(0.1 -0.1)">
       <defs>
        <path id="DejaVuSans-2e" d="M 684 794 
L 1344 794 
L 1344 0 
L 684 0 
L 684 794 
z
" transform="scale(0.015625)"/>
       </defs>
       <use xlink:href="#DejaVuSans-31"/>
       <use xlink:href="#DejaVuSans-30" x="63.623047"/>
       <use xlink:href="#DejaVuSans-35" x="127.246094"/>
       <use xlink:href="#DejaVuSans-2e" x="190.869141"/>
       <use xlink:href="#DejaVuSans-35" x="222.65625"/>
      </g>
     </g>
    </g>
    <g id="xtick_3">
     <g id="line2d_3">
      <g>
       <use xlink:href="#mcdd987ab58" x="154.781501" y="307.872" style="stroke: #000000; stroke-width: 0.8"/>
      </g>
     </g>
     <g id="text_3">
      <!-- 106 -->
      <g transform="translate(145.237751 322.470438) scale(0.1 -0.1)">
       <defs>
        <path id="DejaVuSans-36" d="M 2113 2584 
Q 1688 2584 1439 2293 
Q 1191 2003 1191 1497 
Q 1191 994 1439 701 
Q 1688 409 2113 409 
Q 2538 409 2786 701 
Q 3034 994 3034 1497 
Q 3034 2003 2786 2293 
Q 2538 2584 2113 2584 
z
M 3366 4563 
L 3366 3988 
Q 3128 4100 2886 4159 
Q 2644 4219 2406 4219 
Q 1781 4219 1451 3797 
Q 1122 3375 1075 2522 
Q 1259 2794 1537 2939 
Q 1816 3084 2150 3084 
Q 2853 3084 3261 2657 
Q 3669 2231 3669 1497 
Q 3669 778 3244 343 
Q 2819 -91 2113 -91 
Q 1303 -91 875 529 
Q 447 1150 447 2328 
Q 447 3434 972 4092 
Q 1497 4750 2381 4750 
Q 2619 4750 2861 4703 
Q 3103 4656 3366 4563 
z
" transform="scale(0.015625)"/>
       </defs>
       <use xlink:href="#DejaVuSans-31"/>
       <use xlink:href="#DejaVuSans-30" x="63.623047"/>
       <use xlink:href="#DejaVuSans-36" x="127.246094"/>
      </g>
     </g>
    </g>
    <g id="xtick_4">
     <g id="line2d_4">
      <g>
       <use xlink:href="#mcdd987ab58" x="195.363319" y="307.872" style="stroke: #000000; stroke-width: 0.8"/>
      </g>
     </g>
     <g id="text_4">
      <!-- 106.5 -->
      <g transform="translate(181.049257 322.470438) scale(0.1 -0.1)">
       <use xlink:href="#DejaVuSans-31"/>
       <use xlink:href="#DejaVuSans-30" x="63.623047"/>
       <use xlink:href="#DejaVuSans-36" x="127.246094"/>
       <use xlink:href="#DejaVuSans-2e" x="190.869141"/>
       <use xlink:href="#DejaVuSans-35" x="222.65625"/>
      </g>
     </g>
    </g>
    <g id="xtick_5">
     <g id="line2d_5">
      <g>
       <use xlink:href="#mcdd987ab58" x="235.945137" y="307.872" style="stroke: #000000; stroke-width: 0.8"/>
      </g>
     </g>
     <g id="text_5">
      <!-- 107 -->
      <g transform="translate(226.401387 322.470438) scale(0.1 -0.1)">
       <defs>
        <path id="DejaVuSans-37" d="M 525 4666 
L 3525 4666 
L 3525 4397 
L 1831 0 
L 1172 0 
L 2766 4134 
L 525 4134 
L 525 4666 
z
" transform="scale(0.015625)"/>
       </defs>
       <use xlink:href="#DejaVuSans-31"/>
       <use xlink:href="#DejaVuSans-30" x="63.623047"/>
       <use xlink:href="#DejaVuSans-37" x="127.246094"/>
      </g>
     </g>
    </g>
    <g id="xtick_6">
     <g id="line2d_6">
      <g>
       <use xlink:href="#mcdd987ab58" x="276.526956" y="307.872" style="stroke: #000000; stroke-width: 0.8"/>
      </g>
     </g>
     <g id="text_6">
      <!-- 107.5 -->
      <g transform="translate(262.212893 322.470438) scale(0.1 -0.1)">
       <use xlink:href="#DejaVuSans-31"/>
       <use xlink:href="#DejaVuSans-30" x="63.623047"/>
       <use xlink:href="#DejaVuSans-37" x="127.246094"/>
       <use xlink:href="#DejaVuSans-2e" x="190.869141"/>
       <use xlink:href="#DejaVuSans-35" x="222.65625"/>
      </g>
     </g>
    </g>
    <g id="xtick_7">
     <g id="line2d_7">
      <g>
       <use xlink:href="#mcdd987ab58" x="317.108774" y="307.872" style="stroke: #000000; stroke-width: 0.8"/>
      </g>
     </g>
     <g id="text_7">
      <!-- 108 -->
      <g transform="translate(307.565024 322.470438) scale(0.1 -0.1)">
       <defs>
        <path id="DejaVuSans-38" d="M 2034 2216 
Q 1584 2216 1326 1975 
Q 1069 1734 1069 1313 
Q 1069 891 1326 650 
Q 1584 409 2034 409 
Q 2484 409 2743 651 
Q 3003 894 3003 1313 
Q 3003 1734 2745 1975 
Q 2488 2216 2034 2216 
z
M 1403 2484 
Q 997 2584 770 2862 
Q 544 3141 544 3541 
Q 544 4100 942 4425 
Q 1341 4750 2034 4750 
Q 2731 4750 3128 4425 
Q 3525 4100 3525 3541 
Q 3525 3141 3298 2862 
Q 3072 2584 2669 2484 
Q 3125 2378 3379 2068 
Q 3634 1759 3634 1313 
Q 3634 634 3220 271 
Q 2806 -91 2034 -91 
Q 1263 -91 848 271 
Q 434 634 434 1313 
Q 434 1759 690 2068 
Q 947 2378 1403 2484 
z
M 1172 3481 
Q 1172 3119 1398 2916 
Q 1625 2713 2034 2713 
Q 2441 2713 2670 2916 
Q 2900 3119 2900 3481 
Q 2900 3844 2670 4047 
Q 2441 4250 2034 4250 
Q 1625 4250 1398 4047 
Q 1172 3844 1172 3481 
z
" transform="scale(0.015625)"/>
       </defs>
       <use xlink:href="#DejaVuSans-31"/>
       <use xlink:href="#DejaVuSans-30" x="63.623047"/>
       <use xlink:href="#DejaVuSans-38" x="127.246094"/>
      </g>
     </g>
    </g>
    <g id="xtick_8">
     <g id="line2d_8">
      <g>
       <use xlink:href="#mcdd987ab58" x="357.690592" y="307.872" style="stroke: #000000; stroke-width: 0.8"/>
      </g>
     </g>
     <g id="text_8">
      <!-- 108.5 -->
      <g transform="translate(343.37653 322.470438) scale(0.1 -0.1)">
       <use xlink:href="#DejaVuSans-31"/>
       <use xlink:href="#DejaVuSans-30" x="63.623047"/>
       <use xlink:href="#DejaVuSans-38" x="127.246094"/>
       <use xlink:href="#DejaVuSans-2e" x="190.869141"/>
       <use xlink:href="#DejaVuSans-35" x="222.65625"/>
      </g>
     </g>
    </g>
    <g id="text_9">
     <!-- Frequency [MHz] -->
     <g transform="translate(177.144375 336.148562) scale(0.1 -0.1)">
      <defs>
       <path id="DejaVuSans-46" d="M 628 4666 
L 3309 4666 
L 3309 4134 
L 1259 4134 
L 1259 2759 
L 3109 2759 
L 3109 2228 
L 1259 2228 
L 1259 0 
L 628 0 
L 628 4666 
z
" transform="scale(0.015625)"/>
       <path id="DejaVuSans-72" d="M 2631 2963 
Q 2534 3019 2420 3045 
Q 2306 3072 2169 3072 
Q 1681 3072 1420 2755 
Q 1159 2438 1159 1844 
L 1159 0 
L 581 0 
L 581 3500 
L 1159 3500 
L 1159 2956 
Q 1341 3275 1631 3429 
Q 1922 3584 2338 3584 
Q 2397 3584 2469 3576 
Q 2541 3569 2628 3553 
L 2631 2963 
z
" transform="scale(0.015625)"/>
       <path id="DejaVuSans-65" d="M 3597 1894 
L 3597 1613 
L 953 1613 
Q 991 1019 1311 708 
Q 1631 397 2203 397 
Q 2534 397 2845 478 
Q 3156 559 3463 722 
L 3463 178 
Q 3153 47 2828 -22 
Q 2503 -91 2169 -91 
Q 1331 -91 842 396 
Q 353 884 353 1716 
Q 353 2575 817 3079 
Q 1281 3584 2069 3584 
Q 2775 3584 3186 3129 
Q 3597 2675 3597 1894 
z
M 3022 2063 
Q 3016 2534 2758 2815 
Q 2500 3097 2075 3097 
Q 1594 3097 1305 2825 
Q 1016 2553 972 2059 
L 3022 2063 
z
" transform="scale(0.015625)"/>
       <path id="DejaVuSans-71" d="M 947 1747 
Q 947 1113 1208 752 
Q 1469 391 1925 391 
Q 2381 391 2643 752 
Q 2906 1113 2906 1747 
Q 2906 2381 2643 2742 
Q 2381 3103 1925 3103 
Q 1469 3103 1208 2742 
Q 947 2381 947 1747 
z
M 2906 525 
Q 2725 213 2448 61 
Q 2172 -91 1784 -91 
Q 1150 -91 751 415 
Q 353 922 353 1747 
Q 353 2572 751 3078 
Q 1150 3584 1784 3584 
Q 2172 3584 2448 3432 
Q 2725 3281 2906 2969 
L 2906 3500 
L 3481 3500 
L 3481 -1331 
L 2906 -1331 
L 2906 525 
z
" transform="scale(0.015625)"/>
       <path id="DejaVuSans-75" d="M 544 1381 
L 544 3500 
L 1119 3500 
L 1119 1403 
Q 1119 906 1312 657 
Q 1506 409 1894 409 
Q 2359 409 2629 706 
Q 2900 1003 2900 1516 
L 2900 3500 
L 3475 3500 
L 3475 0 
L 2900 0 
L 2900 538 
Q 2691 219 2414 64 
Q 2138 -91 1772 -91 
Q 1169 -91 856 284 
Q 544 659 544 1381 
z
M 1991 3584 
L 1991 3584 
z
" transform="scale(0.015625)"/>
       <path id="DejaVuSans-6e" d="M 3513 2113 
L 3513 0 
L 2938 0 
L 2938 2094 
Q 2938 2591 2744 2837 
Q 2550 3084 2163 3084 
Q 1697 3084 1428 2787 
Q 1159 2491 1159 1978 
L 1159 0 
L 581 0 
L 581 3500 
L 1159 3500 
L 1159 2956 
Q 1366 3272 1645 3428 
Q 1925 3584 2291 3584 
Q 2894 3584 3203 3211 
Q 3513 2838 3513 2113 
z
" transform="scale(0.015625)"/>
       <path id="DejaVuSans-63" d="M 3122 3366 
L 3122 2828 
Q 2878 2963 2633 3030 
Q 2388 3097 2138 3097 
Q 1578 3097 1268 2742 
Q 959 2388 959 1747 
Q 959 1106 1268 751 
Q 1578 397 2138 397 
Q 2388 397 2633 464 
Q 2878 531 3122 666 
L 3122 134 
Q 2881 22 2623 -34 
Q 2366 -91 2075 -91 
Q 1284 -91 818 406 
Q 353 903 353 1747 
Q 353 2603 823 3093 
Q 1294 3584 2113 3584 
Q 2378 3584 2631 3529 
Q 2884 3475 3122 3366 
z
" transform="scale(0.015625)"/>
       <path id="DejaVuSans-79" d="M 2059 -325 
Q 1816 -950 1584 -1140 
Q 1353 -1331 966 -1331 
L 506 -1331 
L 506 -850 
L 844 -850 
Q 1081 -850 1212 -737 
Q 1344 -625 1503 -206 
L 1606 56 
L 191 3500 
L 800 3500 
L 1894 763 
L 2988 3500 
L 3597 3500 
L 2059 -325 
z
" transform="scale(0.015625)"/>
       <path id="DejaVuSans-20" transform="scale(0.015625)"/>
       <path id="DejaVuSans-5b" d="M 550 4863 
L 1875 4863 
L 1875 4416 
L 1125 4416 
L 1125 -397 
L 1875 -397 
L 1875 -844 
L 550 -844 
L 550 4863 
z
" transform="scale(0.015625)"/>
       <path id="DejaVuSans-4d" d="M 628 4666 
L 1569 4666 
L 2759 1491 
L 3956 4666 
L 4897 4666 
L 4897 0 
L 4281 0 
L 4281 4097 
L 3078 897 
L 2444 897 
L 1241 4097 
L 1241 0 
L 628 0 
L 628 4666 
z
" transform="scale(0.015625)"/>
       <path id="DejaVuSans-48" d="M 628 4666 
L 1259 4666 
L 1259 2753 
L 3553 2753 
L 3553 4666 
L 4184 4666 
L 4184 0 
L 3553 0 
L 3553 2222 
L 1259 2222 
L 1259 0 
L 628 0 
L 628 4666 
z
" transform="scale(0.015625)"/>
       <path id="DejaVuSans-7a" d="M 353 3500 
L 3084 3500 
L 3084 2975 
L 922 459 
L 3084 459 
L 3084 0 
L 275 0 
L 275 525 
L 2438 3041 
L 353 3041 
L 353 3500 
z
" transform="scale(0.015625)"/>
       <path id="DejaVuSans-5d" d="M 1947 4863 
L 1947 -844 
L 622 -844 
L 622 -397 
L 1369 -397 
L 1369 4416 
L 622 4416 
L 622 4863 
L 1947 4863 
z
" transform="scale(0.015625)"/>
      </defs>
      <use xlink:href="#DejaVuSans-46"/>
      <use xlink:href="#DejaVuSans-72" x="50.269531"/>
      <use xlink:href="#DejaVuSans-65" x="89.132812"/>
      <use xlink:href="#DejaVuSans-71" x="150.65625"/>
      <use xlink:href="#DejaVuSans-75" x="214.132812"/>
      <use xlink:href="#DejaVuSans-65" x="277.511719"/>
      <use xlink:href="#DejaVuSans-6e" x="339.035156"/>
      <use xlink:href="#DejaVuSans-63" x="402.414062"/>
      <use xlink:href="#DejaVuSans-79" x="457.394531"/>
      <use xlink:href="#DejaVuSans-20" x="516.574219"/>
      <use xlink:href="#DejaVuSans-5b" x="548.361328"/>
      <use xlink:href="#DejaVuSans-4d" x="587.375"/>
      <use xlink:href="#DejaVuSans-48" x="673.654297"/>
      <use xlink:href="#DejaVuSans-7a" x="748.849609"/>
      <use xlink:href="#DejaVuSans-5d" x="801.339844"/>
     </g>
    </g>
    <g id="text_10">
     <!-- +6 GHz -->
     <g transform="translate(359.285625 335.148562) scale(0.1 -0.1)">
      <defs>
       <path id="DejaVuSans-2b" d="M 2944 4013 
L 2944 2272 
L 4684 2272 
L 4684 1741 
L 2944 1741 
L 2944 0 
L 2419 0 
L 2419 1741 
L 678 1741 
L 678 2272 
L 2419 2272 
L 2419 4013 
L 2944 4013 
z
" transform="scale(0.015625)"/>
       <path id="DejaVuSans-47" d="M 3809 666 
L 3809 1919 
L 2778 1919 
L 2778 2438 
L 4434 2438 
L 4434 434 
Q 4069 175 3628 42 
Q 3188 -91 2688 -91 
Q 1594 -91 976 548 
Q 359 1188 359 2328 
Q 359 3472 976 4111 
Q 1594 4750 2688 4750 
Q 3144 4750 3555 4637 
Q 3966 4525 4313 4306 
L 4313 3634 
Q 3963 3931 3569 4081 
Q 3175 4231 2741 4231 
Q 1884 4231 1454 3753 
Q 1025 3275 1025 2328 
Q 1025 1384 1454 906 
Q 1884 428 2741 428 
Q 3075 428 3337 486 
Q 3600 544 3809 666 
z
" transform="scale(0.015625)"/>
      </defs>
      <use xlink:href="#DejaVuSans-2b"/>
      <use xlink:href="#DejaVuSans-36" x="83.789062"/>
      <use xlink:href="#DejaVuSans-20" x="147.412109"/>
      <use xlink:href="#DejaVuSans-47" x="179.199219"/>
      <use xlink:href="#DejaVuSans-48" x="256.689453"/>
      <use xlink:href="#DejaVuSans-7a" x="331.884766"/>
     </g>
    </g>
   </g>
   <g id="matplotlib.axis_2">
    <g id="ytick_1">
     <g id="line2d_9">
      <defs>
       <path id="m377976c932" d="M 0 0 
L -3.5 0 
" style="stroke: #000000; stroke-width: 0.8"/>
      </defs>
      <g>
       <use xlink:href="#m377976c932" x="40.603125" y="296.051697" style="stroke: #000000; stroke-width: 0.8"/>
      </g>
     </g>
     <g id="text_11">
      <!-- 0 -->
      <g transform="translate(27.240625 299.850916) scale(0.1 -0.1)">
       <use xlink:href="#DejaVuSans-30"/>
      </g>
     </g>
    </g>
    <g id="ytick_2">
     <g id="line2d_10">
      <g>
       <use xlink:href="#m377976c932" x="40.603125" y="245.061588" style="stroke: #000000; stroke-width: 0.8"/>
      </g>
     </g>
     <g id="text_12">
      <!-- 10 -->
      <g transform="translate(20.878125 248.860807) scale(0.1 -0.1)">
       <use xlink:href="#DejaVuSans-31"/>
       <use xlink:href="#DejaVuSans-30" x="63.623047"/>
      </g>
     </g>
    </g>
    <g id="ytick_3">
     <g id="line2d_11">
      <g>
       <use xlink:href="#m377976c932" x="40.603125" y="194.07148" style="stroke: #000000; stroke-width: 0.8"/>
      </g>
     </g>
     <g id="text_13">
      <!-- 20 -->
      <g transform="translate(20.878125 197.870698) scale(0.1 -0.1)">
       <defs>
        <path id="DejaVuSans-32" d="M 1228 531 
L 3431 531 
L 3431 0 
L 469 0 
L 469 531 
Q 828 903 1448 1529 
Q 2069 2156 2228 2338 
Q 2531 2678 2651 2914 
Q 2772 3150 2772 3378 
Q 2772 3750 2511 3984 
Q 2250 4219 1831 4219 
Q 1534 4219 1204 4116 
Q 875 4013 500 3803 
L 500 4441 
Q 881 4594 1212 4672 
Q 1544 4750 1819 4750 
Q 2544 4750 2975 4387 
Q 3406 4025 3406 3419 
Q 3406 3131 3298 2873 
Q 3191 2616 2906 2266 
Q 2828 2175 2409 1742 
Q 1991 1309 1228 531 
z
" transform="scale(0.015625)"/>
       </defs>
       <use xlink:href="#DejaVuSans-32"/>
       <use xlink:href="#DejaVuSans-30" x="63.623047"/>
      </g>
     </g>
    </g>
    <g id="ytick_4">
     <g id="line2d_12">
      <g>
       <use xlink:href="#m377976c932" x="40.603125" y="143.081371" style="stroke: #000000; stroke-width: 0.8"/>
      </g>
     </g>
     <g id="text_14">
      <!-- 30 -->
      <g transform="translate(20.878125 146.880589) scale(0.1 -0.1)">
       <defs>
        <path id="DejaVuSans-33" d="M 2597 2516 
Q 3050 2419 3304 2112 
Q 3559 1806 3559 1356 
Q 3559 666 3084 287 
Q 2609 -91 1734 -91 
Q 1441 -91 1130 -33 
Q 819 25 488 141 
L 488 750 
Q 750 597 1062 519 
Q 1375 441 1716 441 
Q 2309 441 2620 675 
Q 2931 909 2931 1356 
Q 2931 1769 2642 2001 
Q 2353 2234 1838 2234 
L 1294 2234 
L 1294 2753 
L 1863 2753 
Q 2328 2753 2575 2939 
Q 2822 3125 2822 3475 
Q 2822 3834 2567 4026 
Q 2313 4219 1838 4219 
Q 1578 4219 1281 4162 
Q 984 4106 628 3988 
L 628 4550 
Q 988 4650 1302 4700 
Q 1616 4750 1894 4750 
Q 2613 4750 3031 4423 
Q 3450 4097 3450 3541 
Q 3450 3153 3228 2886 
Q 3006 2619 2597 2516 
z
" transform="scale(0.015625)"/>
       </defs>
       <use xlink:href="#DejaVuSans-33"/>
       <use xlink:href="#DejaVuSans-30" x="63.623047"/>
      </g>
     </g>
    </g>
    <g id="ytick_5">
     <g id="line2d_13">
      <g>
       <use xlink:href="#m377976c932" x="40.603125" y="92.091262" style="stroke: #000000; stroke-width: 0.8"/>
      </g>
     </g>
     <g id="text_15">
      <!-- 40 -->
      <g transform="translate(20.878125 95.890481) scale(0.1 -0.1)">
       <defs>
        <path id="DejaVuSans-34" d="M 2419 4116 
L 825 1625 
L 2419 1625 
L 2419 4116 
z
M 2253 4666 
L 3047 4666 
L 3047 1625 
L 3713 1625 
L 3713 1100 
L 3047 1100 
L 3047 0 
L 2419 0 
L 2419 1100 
L 313 1100 
L 313 1709 
L 2253 4666 
z
" transform="scale(0.015625)"/>
       </defs>
       <use xlink:href="#DejaVuSans-34"/>
       <use xlink:href="#DejaVuSans-30" x="63.623047"/>
      </g>
     </g>
    </g>
    <g id="text_16">
     <!-- Magnitude0 [mV] -->
     <g transform="translate(14.798438 218.268344) rotate(-90) scale(0.1 -0.1)">
      <defs>
       <path id="DejaVuSans-61" d="M 2194 1759 
Q 1497 1759 1228 1600 
Q 959 1441 959 1056 
Q 959 750 1161 570 
Q 1363 391 1709 391 
Q 2188 391 2477 730 
Q 2766 1069 2766 1631 
L 2766 1759 
L 2194 1759 
z
M 3341 1997 
L 3341 0 
L 2766 0 
L 2766 531 
Q 2569 213 2275 61 
Q 1981 -91 1556 -91 
Q 1019 -91 701 211 
Q 384 513 384 1019 
Q 384 1609 779 1909 
Q 1175 2209 1959 2209 
L 2766 2209 
L 2766 2266 
Q 2766 2663 2505 2880 
Q 2244 3097 1772 3097 
Q 1472 3097 1187 3025 
Q 903 2953 641 2809 
L 641 3341 
Q 956 3463 1253 3523 
Q 1550 3584 1831 3584 
Q 2591 3584 2966 3190 
Q 3341 2797 3341 1997 
z
" transform="scale(0.015625)"/>
       <path id="DejaVuSans-67" d="M 2906 1791 
Q 2906 2416 2648 2759 
Q 2391 3103 1925 3103 
Q 1463 3103 1205 2759 
Q 947 2416 947 1791 
Q 947 1169 1205 825 
Q 1463 481 1925 481 
Q 2391 481 2648 825 
Q 2906 1169 2906 1791 
z
M 3481 434 
Q 3481 -459 3084 -895 
Q 2688 -1331 1869 -1331 
Q 1566 -1331 1297 -1286 
Q 1028 -1241 775 -1147 
L 775 -588 
Q 1028 -725 1275 -790 
Q 1522 -856 1778 -856 
Q 2344 -856 2625 -561 
Q 2906 -266 2906 331 
L 2906 616 
Q 2728 306 2450 153 
Q 2172 0 1784 0 
Q 1141 0 747 490 
Q 353 981 353 1791 
Q 353 2603 747 3093 
Q 1141 3584 1784 3584 
Q 2172 3584 2450 3431 
Q 2728 3278 2906 2969 
L 2906 3500 
L 3481 3500 
L 3481 434 
z
" transform="scale(0.015625)"/>
       <path id="DejaVuSans-69" d="M 603 3500 
L 1178 3500 
L 1178 0 
L 603 0 
L 603 3500 
z
M 603 4863 
L 1178 4863 
L 1178 4134 
L 603 4134 
L 603 4863 
z
" transform="scale(0.015625)"/>
       <path id="DejaVuSans-74" d="M 1172 4494 
L 1172 3500 
L 2356 3500 
L 2356 3053 
L 1172 3053 
L 1172 1153 
Q 1172 725 1289 603 
Q 1406 481 1766 481 
L 2356 481 
L 2356 0 
L 1766 0 
Q 1100 0 847 248 
Q 594 497 594 1153 
L 594 3053 
L 172 3053 
L 172 3500 
L 594 3500 
L 594 4494 
L 1172 4494 
z
" transform="scale(0.015625)"/>
       <path id="DejaVuSans-64" d="M 2906 2969 
L 2906 4863 
L 3481 4863 
L 3481 0 
L 2906 0 
L 2906 525 
Q 2725 213 2448 61 
Q 2172 -91 1784 -91 
Q 1150 -91 751 415 
Q 353 922 353 1747 
Q 353 2572 751 3078 
Q 1150 3584 1784 3584 
Q 2172 3584 2448 3432 
Q 2725 3281 2906 2969 
z
M 947 1747 
Q 947 1113 1208 752 
Q 1469 391 1925 391 
Q 2381 391 2643 752 
Q 2906 1113 2906 1747 
Q 2906 2381 2643 2742 
Q 2381 3103 1925 3103 
Q 1469 3103 1208 2742 
Q 947 2381 947 1747 
z
" transform="scale(0.015625)"/>
       <path id="DejaVuSans-6d" d="M 3328 2828 
Q 3544 3216 3844 3400 
Q 4144 3584 4550 3584 
Q 5097 3584 5394 3201 
Q 5691 2819 5691 2113 
L 5691 0 
L 5113 0 
L 5113 2094 
Q 5113 2597 4934 2840 
Q 4756 3084 4391 3084 
Q 3944 3084 3684 2787 
Q 3425 2491 3425 1978 
L 3425 0 
L 2847 0 
L 2847 2094 
Q 2847 2600 2669 2842 
Q 2491 3084 2119 3084 
Q 1678 3084 1418 2786 
Q 1159 2488 1159 1978 
L 1159 0 
L 581 0 
L 581 3500 
L 1159 3500 
L 1159 2956 
Q 1356 3278 1631 3431 
Q 1906 3584 2284 3584 
Q 2666 3584 2933 3390 
Q 3200 3197 3328 2828 
z
" transform="scale(0.015625)"/>
       <path id="DejaVuSans-56" d="M 1831 0 
L 50 4666 
L 709 4666 
L 2188 738 
L 3669 4666 
L 4325 4666 
L 2547 0 
L 1831 0 
z
" transform="scale(0.015625)"/>
      </defs>
      <use xlink:href="#DejaVuSans-4d"/>
      <use xlink:href="#DejaVuSans-61" x="86.279297"/>
      <use xlink:href="#DejaVuSans-67" x="147.558594"/>
      <use xlink:href="#DejaVuSans-6e" x="211.035156"/>
      <use xlink:href="#DejaVuSans-69" x="274.414062"/>
      <use xlink:href="#DejaVuSans-74" x="302.197266"/>
      <use xlink:href="#DejaVuSans-75" x="341.40625"/>
      <use xlink:href="#DejaVuSans-64" x="404.785156"/>
      <use xlink:href="#DejaVuSans-65" x="468.261719"/>
      <use xlink:href="#DejaVuSans-30" x="529.785156"/>
      <use xlink:href="#DejaVuSans-20" x="593.408203"/>
      <use xlink:href="#DejaVuSans-5b" x="625.195312"/>
      <use xlink:href="#DejaVuSans-6d" x="664.208984"/>
      <use xlink:href="#DejaVuSans-56" x="761.621094"/>
      <use xlink:href="#DejaVuSans-5d" x="830.029297"/>
     </g>
    </g>
   </g>
   <g id="line2d_14">
    <path d="M 56.835852 292.896401 
L 68.030837 292.617134 
L 79.225821 292.310803 
L 90.420805 293.241847 
L 101.61579 292.618973 
L 112.810774 292.81343 
L 124.005758 293.238382 
L 135.200743 293.29085 
L 146.395727 293.083104 
L 157.590711 294.143142 
L 168.785696 293.501374 
L 179.98068 294.503754 
L 191.175664 294.566932 
L 202.370649 295.290401 
L 213.565633 295.012833 
L 224.760617 295.633638 
L 235.955601 295.776 
L 247.150586 295.129808 
L 258.34557 295.04987 
L 269.540554 294.716533 
L 280.735539 293.565197 
L 291.930523 293.995941 
L 303.125507 293.655094 
L 314.320492 293.352552 
L 325.515476 294.071034 
L 336.71046 293.304858 
L 347.905445 293.082482 
L 359.100429 293.210576 
L 370.295413 292.6279 
L 381.490398 292.947068 
" clip-path="url(#pf8c177f280)" style="fill: none; stroke: #440154; stroke-width: 1.5; stroke-linecap: square"/>
   </g>
   <g id="line2d_15">
    <path d="M 56.835852 283.253071 
L 68.030837 284.2109 
L 79.225821 284.167041 
L 90.420805 285.3263 
L 101.61579 285.739685 
L 112.810774 285.665705 
L 124.005758 286.368469 
L 135.200743 286.965265 
L 146.395727 287.470694 
L 157.590711 288.062638 
L 168.785696 288.770605 
L 179.98068 290.430951 
L 191.175664 291.742007 
L 202.370649 293.01688 
L 213.565633 293.791737 
L 224.760617 294.681477 
L 235.955601 293.509893 
L 247.150586 292.90087 
L 258.34557 291.683094 
L 269.540554 291.0236 
L 280.735539 289.622982 
L 291.930523 288.819722 
L 303.125507 288.09299 
L 314.320492 287.903072 
L 325.515476 287.054651 
L 336.71046 287.044172 
L 347.905445 286.158474 
L 359.100429 285.708417 
L 370.295413 285.524044 
L 381.490398 285.232962 
" clip-path="url(#pf8c177f280)" style="fill: none; stroke: #470d60; stroke-width: 1.5; stroke-linecap: square"/>
   </g>
   <g id="line2d_16">
    <path d="M 56.835852 275.49758 
L 68.030837 275.764415 
L 79.225821 276.689565 
L 90.420805 276.769691 
L 101.61579 277.504535 
L 112.810774 278.360591 
L 124.005758 279.444196 
L 135.200743 280.601203 
L 146.395727 282.286039 
L 157.590711 283.315488 
L 168.785696 284.413457 
L 179.98068 286.817982 
L 191.175664 288.593884 
L 202.370649 290.495854 
L 213.565633 292.366086 
L 224.760617 292.911838 
L 235.955601 292.431992 
L 247.150586 291.146632 
L 258.34557 289.304714 
L 269.540554 287.541993 
L 280.735539 285.517304 
L 291.930523 284.088529 
L 303.125507 282.530185 
L 314.320492 281.630175 
L 325.515476 280.766313 
L 336.71046 280.019376 
L 347.905445 279.024615 
L 359.100429 278.094481 
L 370.295413 277.949853 
L 381.490398 277.145148 
" clip-path="url(#pf8c177f280)" style="fill: none; stroke: #481a6c; stroke-width: 1.5; stroke-linecap: square"/>
   </g>
   <g id="line2d_17">
    <path d="M 56.835852 267.501842 
L 68.030837 267.4469 
L 79.225821 268.533204 
L 90.420805 269.36956 
L 101.61579 270.504948 
L 112.810774 271.521241 
L 124.005758 273.368577 
L 135.200743 274.814743 
L 146.395727 276.32517 
L 157.590711 278.723994 
L 168.785696 280.688593 
L 179.98068 283.044809 
L 191.175664 285.509792 
L 202.370649 288.097304 
L 213.565633 291.136241 
L 224.760617 292.140742 
L 235.955601 291.189704 
L 247.150586 289.298702 
L 258.34557 286.05431 
L 269.540554 283.530929 
L 280.735539 281.601335 
L 291.930523 278.724555 
L 303.125507 277.203244 
L 314.320492 275.769643 
L 325.515476 274.724695 
L 336.71046 272.999964 
L 347.905445 271.480393 
L 359.100429 270.962544 
L 370.295413 270.020885 
L 381.490398 268.736169 
" clip-path="url(#pf8c177f280)" style="fill: none; stroke: #482576; stroke-width: 1.5; stroke-linecap: square"/>
   </g>
   <g id="line2d_18">
    <path d="M 56.835852 258.180246 
L 68.030837 259.239299 
L 79.225821 260.065924 
L 90.420805 261.7449 
L 101.61579 263.076178 
L 112.810774 264.573581 
L 124.005758 266.259952 
L 135.200743 268.310337 
L 146.395727 270.127261 
L 157.590711 273.276929 
L 168.785696 276.335813 
L 179.98068 279.063328 
L 191.175664 282.710191 
L 202.370649 286.161307 
L 213.565633 289.298311 
L 224.760617 290.778797 
L 235.955601 289.400653 
L 247.150586 287.160477 
L 258.34557 284.091997 
L 269.540554 280.55082 
L 280.735539 277.580355 
L 291.930523 274.678106 
L 303.125507 271.884314 
L 314.320492 269.380503 
L 325.515476 267.803384 
L 336.71046 266.150618 
L 347.905445 264.912521 
L 359.100429 263.425604 
L 370.295413 262.832543 
L 381.490398 261.664838 
" clip-path="url(#pf8c177f280)" style="fill: none; stroke: #46307e; stroke-width: 1.5; stroke-linecap: square"/>
   </g>
   <g id="line2d_19">
    <path d="M 56.835852 250.146444 
L 68.030837 251.158123 
L 79.225821 253.034521 
L 90.420805 254.242463 
L 101.61579 256.173473 
L 112.810774 257.902156 
L 124.005758 259.469453 
L 135.200743 261.815918 
L 146.395727 264.672736 
L 157.590711 267.388144 
L 168.785696 271.39238 
L 179.98068 275.164621 
L 191.175664 279.514086 
L 202.370649 284.099529 
L 213.565633 287.516732 
L 224.760617 290.098797 
L 235.955601 288.067056 
L 247.150586 284.437278 
L 258.34557 280.177943 
L 269.540554 276.445009 
L 280.735539 273.0201 
L 291.930523 269.767384 
L 303.125507 265.952453 
L 314.320492 263.640566 
L 325.515476 261.303987 
L 336.71046 259.526678 
L 347.905445 257.289896 
L 359.100429 256.582296 
L 370.295413 254.643573 
L 381.490398 253.750725 
" clip-path="url(#pf8c177f280)" style="fill: none; stroke: #443b84; stroke-width: 1.5; stroke-linecap: square"/>
   </g>
   <g id="line2d_20">
    <path d="M 56.835852 241.611126 
L 68.030837 243.15463 
L 79.225821 244.627657 
L 90.420805 246.283087 
L 101.61579 247.96565 
L 112.810774 250.495261 
L 124.005758 252.683808 
L 135.200743 255.832763 
L 146.395727 259.096488 
L 157.590711 263.415423 
L 168.785696 267.037453 
L 179.98068 272.052293 
L 191.175664 276.870858 
L 202.370649 282.319207 
L 213.565633 286.644436 
L 224.760617 288.520807 
L 235.955601 286.069596 
L 247.150586 282.046359 
L 258.34557 276.822642 
L 269.540554 272.037803 
L 280.735539 268.131159 
L 291.930523 264.632632 
L 303.125507 260.57486 
L 314.320492 256.872386 
L 325.515476 254.305466 
L 336.71046 252.871171 
L 347.905445 250.37569 
L 359.100429 248.887055 
L 370.295413 247.212879 
L 381.490398 244.913878 
" clip-path="url(#pf8c177f280)" style="fill: none; stroke: #404588; stroke-width: 1.5; stroke-linecap: square"/>
   </g>
   <g id="line2d_21">
    <path d="M 56.835852 233.306787 
L 68.030837 234.966754 
L 79.225821 236.293478 
L 90.420805 238.611842 
L 101.61579 241.039498 
L 112.810774 243.312318 
L 124.005758 246.721423 
L 135.200743 249.699856 
L 146.395727 253.644992 
L 157.590711 258.799866 
L 168.785696 262.550879 
L 179.98068 268.504105 
L 191.175664 274.565004 
L 202.370649 280.541005 
L 213.565633 285.299107 
L 224.760617 287.177411 
L 235.955601 284.01988 
L 247.150586 279.003897 
L 258.34557 273.556102 
L 269.540554 268.405996 
L 280.735539 263.295796 
L 291.930523 259.398549 
L 303.125507 255.523553 
L 314.320492 251.726512 
L 325.515476 248.202761 
L 336.71046 245.520883 
L 347.905445 242.891438 
L 359.100429 240.809773 
L 370.295413 239.309088 
L 381.490398 237.841485 
" clip-path="url(#pf8c177f280)" style="fill: none; stroke: #3c4f8a; stroke-width: 1.5; stroke-linecap: square"/>
   </g>
   <g id="line2d_22">
    <path d="M 56.835852 224.815245 
L 68.030837 227.001371 
L 79.225821 228.038193 
L 90.420805 230.95632 
L 101.61579 233.095237 
L 112.810774 235.684658 
L 124.005758 238.752731 
L 135.200743 242.983393 
L 146.395727 247.387643 
L 157.590711 253.334052 
L 168.785696 259.022722 
L 179.98068 265.77082 
L 191.175664 272.417929 
L 202.370649 278.251802 
L 213.565633 283.80495 
L 224.760617 286.360108 
L 235.955601 282.672825 
L 247.150586 277.07186 
L 258.34557 270.936167 
L 269.540554 264.748178 
L 280.735539 258.439938 
L 291.930523 253.47645 
L 303.125507 249.346306 
L 314.320492 245.726147 
L 325.515476 241.70226 
L 336.71046 238.625288 
L 347.905445 235.731928 
L 359.100429 233.846056 
L 370.295413 231.679303 
L 381.490398 230.226148 
" clip-path="url(#pf8c177f280)" style="fill: none; stroke: #38598c; stroke-width: 1.5; stroke-linecap: square"/>
   </g>
   <g id="line2d_23">
    <path d="M 56.835852 216.666828 
L 68.030837 218.182492 
L 79.225821 219.884437 
L 90.420805 222.868155 
L 101.61579 225.574218 
L 112.810774 229.070341 
L 124.005758 233.972223 
L 135.200743 238.402716 
L 146.395727 243.557364 
L 157.590711 249.341215 
L 168.785696 257.330134 
L 179.98068 262.96445 
L 191.175664 270.069127 
L 202.370649 276.866932 
L 213.565633 282.796346 
L 224.760617 284.282016 
L 235.955601 280.751144 
L 247.150586 274.65197 
L 258.34557 266.962132 
L 269.540554 260.189231 
L 280.735539 253.683537 
L 291.930523 247.663798 
L 303.125507 242.447787 
L 314.320492 238.293906 
L 325.515476 234.048455 
L 336.71046 231.13979 
L 347.905445 228.177043 
L 359.100429 225.996286 
L 370.295413 223.113667 
L 381.490398 221.825051 
" clip-path="url(#pf8c177f280)" style="fill: none; stroke: #33628d; stroke-width: 1.5; stroke-linecap: square"/>
   </g>
   <g id="line2d_24">
    <path d="M 56.835852 207.969567 
L 68.030837 209.56879 
L 79.225821 212.334369 
L 90.420805 215.98353 
L 101.61579 219.085886 
L 112.810774 223.431998 
L 124.005758 227.693358 
L 135.200743 232.310921 
L 146.395727 237.702402 
L 157.590711 244.630238 
L 168.785696 252.009308 
L 179.98068 258.981663 
L 191.175664 267.126224 
L 202.370649 274.846981 
L 213.565633 282.034941 
L 224.760617 282.490835 
L 235.955601 277.978098 
L 247.150586 270.864078 
L 258.34557 263.984952 
L 269.540554 256.051059 
L 280.735539 249.747865 
L 291.930523 243.347459 
L 303.125507 237.141493 
L 314.320492 232.605673 
L 325.515476 227.748549 
L 336.71046 224.274793 
L 347.905445 221.050883 
L 359.100429 218.864528 
L 370.295413 215.746151 
L 381.490398 213.614226 
" clip-path="url(#pf8c177f280)" style="fill: none; stroke: #2f6b8e; stroke-width: 1.5; stroke-linecap: square"/>
   </g>
   <g id="line2d_25">
    <path d="M 56.835852 200.255527 
L 68.030837 202.730378 
L 79.225821 205.852033 
L 90.420805 209.536656 
L 101.61579 213.206011 
L 112.810774 217.216459 
L 124.005758 222.909874 
L 135.200743 228.662978 
L 146.395727 232.545126 
L 157.590711 239.981084 
L 168.785696 248.047983 
L 179.98068 256.738314 
L 191.175664 266.059731 
L 202.370649 273.735902 
L 213.565633 280.661723 
L 224.760617 281.80631 
L 235.955601 275.193639 
L 247.150586 268.067495 
L 258.34557 260.432424 
L 269.540554 251.354005 
L 280.735539 243.862916 
L 291.930523 237.702122 
L 303.125507 231.807501 
L 314.320492 226.303641 
L 325.515476 220.854616 
L 336.71046 217.717681 
L 347.905445 213.602452 
L 359.100429 210.266468 
L 370.295413 207.787451 
L 381.490398 206.016201 
" clip-path="url(#pf8c177f280)" style="fill: none; stroke: #2c738e; stroke-width: 1.5; stroke-linecap: square"/>
   </g>
   <g id="line2d_26">
    <path d="M 56.835852 191.553742 
L 68.030837 194.235028 
L 79.225821 197.831085 
L 90.420805 201.220347 
L 101.61579 205.025153 
L 112.810774 209.626397 
L 124.005758 215.002505 
L 135.200743 220.527381 
L 146.395727 228.599766 
L 157.590711 235.018793 
L 168.785696 244.110718 
L 179.98068 253.764177 
L 191.175664 263.463755 
L 202.370649 273.053817 
L 213.565633 279.381282 
L 224.760617 279.118974 
L 235.955601 272.624634 
L 247.150586 262.883327 
L 258.34557 254.741269 
L 269.540554 247.44515 
L 280.735539 239.197889 
L 291.930523 231.517079 
L 303.125507 225.098649 
L 314.320492 220.080073 
L 325.515476 215.155253 
L 336.71046 210.444531 
L 347.905445 205.630352 
L 359.100429 203.100578 
L 370.295413 200.50265 
L 381.490398 197.771846 
" clip-path="url(#pf8c177f280)" style="fill: none; stroke: #297b8e; stroke-width: 1.5; stroke-linecap: square"/>
   </g>
   <g id="line2d_27">
    <path d="M 56.835852 183.882873 
L 68.030837 186.291135 
L 79.225821 190.11849 
L 90.420805 193.103929 
L 101.61579 197.458999 
L 112.810774 201.8295 
L 124.005758 208.101481 
L 135.200743 214.883871 
L 146.395727 222.403892 
L 157.590711 230.907621 
L 168.785696 239.886868 
L 179.98068 250.587783 
L 191.175664 263.49679 
L 202.370649 271.607758 
L 213.565633 277.948124 
L 224.760617 276.086967 
L 235.955601 269.995059 
L 247.150586 260.042447 
L 258.34557 250.340927 
L 269.540554 242.039293 
L 280.735539 233.815896 
L 291.930523 226.490698 
L 303.125507 219.370297 
L 314.320492 213.110123 
L 325.515476 207.061848 
L 336.71046 203.377463 
L 347.905445 199.572344 
L 359.100429 195.705199 
L 370.295413 192.48003 
L 381.490398 189.250914 
" clip-path="url(#pf8c177f280)" style="fill: none; stroke: #25838e; stroke-width: 1.5; stroke-linecap: square"/>
   </g>
   <g id="line2d_28">
    <path d="M 56.835852 175.672579 
L 68.030837 179.304896 
L 79.225821 181.627441 
L 90.420805 186.945589 
L 101.61579 189.085012 
L 112.810774 195.681931 
L 124.005758 200.584676 
L 135.200743 209.528494 
L 146.395727 218.940524 
L 157.590711 228.982707 
L 168.785696 240.96946 
L 179.98068 251.407315 
L 191.175664 261.591299 
L 202.370649 272.735062 
L 213.565633 276.723453 
L 224.760617 273.321343 
L 235.955601 264.500084 
L 247.150586 255.745237 
L 258.34557 244.141816 
L 269.540554 234.702654 
L 280.735539 226.245302 
L 291.930523 219.14395 
L 303.125507 212.411345 
L 314.320492 206.822117 
L 325.515476 200.821244 
L 336.71046 195.795703 
L 347.905445 191.81449 
L 359.100429 187.303846 
L 370.295413 184.844271 
L 381.490398 182.272206 
" clip-path="url(#pf8c177f280)" style="fill: none; stroke: #228c8d; stroke-width: 1.5; stroke-linecap: square"/>
   </g>
   <g id="line2d_29">
    <path d="M 56.835852 166.800351 
L 68.030837 170.310506 
L 79.225821 173.306995 
L 90.420805 177.49455 
L 101.61579 182.02807 
L 112.810774 188.588278 
L 124.005758 195.795588 
L 135.200743 205.56238 
L 146.395727 215.26486 
L 157.590711 224.817639 
L 168.785696 236.062523 
L 179.98068 247.477544 
L 191.175664 259.817008 
L 202.370649 271.494849 
L 213.565633 274.813919 
L 224.760617 269.498303 
L 235.955601 259.090948 
L 247.150586 248.725216 
L 258.34557 239.113759 
L 269.540554 228.957074 
L 280.735539 220.596991 
L 291.930523 212.360186 
L 303.125507 204.66689 
L 314.320492 199.023944 
L 325.515476 193.015724 
L 336.71046 188.822806 
L 347.905445 185.07655 
L 359.100429 180.594318 
L 370.295413 177.597565 
L 381.490398 174.367438 
" clip-path="url(#pf8c177f280)" style="fill: none; stroke: #1f948c; stroke-width: 1.5; stroke-linecap: square"/>
   </g>
   <g id="line2d_30">
    <path d="M 56.835852 159.681983 
L 68.030837 163.285436 
L 79.225821 167.277608 
L 90.420805 171.30479 
L 101.61579 176.455093 
L 112.810774 183.165608 
L 124.005758 192.64526 
L 135.200743 204.745035 
L 146.395727 215.121976 
L 157.590711 227.380411 
L 168.785696 236.897318 
L 179.98068 250.143181 
L 191.175664 263.876097 
L 202.370649 270.262859 
L 213.565633 269.384114 
L 224.760617 258.12815 
L 235.955601 248.022757 
L 247.150586 241.097109 
L 258.34557 229.234089 
L 269.540554 220.004359 
L 280.735539 211.842979 
L 291.930523 203.926226 
L 303.125507 197.039534 
L 314.320492 190.260278 
L 325.515476 184.778945 
L 336.71046 181.665934 
L 347.905445 176.652477 
L 359.100429 173.143301 
L 370.295413 169.072348 
L 381.490398 165.347906 
" clip-path="url(#pf8c177f280)" style="fill: none; stroke: #1e9d89; stroke-width: 1.5; stroke-linecap: square"/>
   </g>
   <g id="line2d_31">
    <path d="M 56.835852 151.389992 
L 68.030837 154.645538 
L 79.225821 158.987337 
L 90.420805 164.266844 
L 101.61579 170.122361 
L 112.810774 179.426097 
L 124.005758 190.219418 
L 135.200743 200.712212 
L 146.395727 211.387734 
L 157.590711 220.976698 
L 168.785696 240.229008 
L 179.98068 256.519546 
L 191.175664 265.963698 
L 202.370649 268.349991 
L 213.565633 255.897363 
L 224.760617 247.579701 
L 235.955601 238.657886 
L 247.150586 228.019806 
L 258.34557 216.745393 
L 269.540554 210.7568 
L 280.735539 203.99674 
L 291.930523 198.058431 
L 303.125507 191.332201 
L 314.320492 184.728224 
L 325.515476 178.454728 
L 336.71046 172.270022 
L 347.905445 169.02873 
L 359.100429 164.041611 
L 370.295413 160.923194 
L 381.490398 157.104986 
" clip-path="url(#pf8c177f280)" style="fill: none; stroke: #21a585; stroke-width: 1.5; stroke-linecap: square"/>
   </g>
   <g id="line2d_32">
    <path d="M 56.835852 142.994476 
L 68.030837 146.319842 
L 79.225821 150.936431 
L 90.420805 156.746166 
L 101.61579 165.754875 
L 112.810774 173.375323 
L 124.005758 183.83023 
L 135.200743 196.926081 
L 146.395727 209.974075 
L 157.590711 229.248523 
L 168.785696 246.473712 
L 179.98068 262.10628 
L 191.175664 265.481679 
L 202.370649 260.989567 
L 213.565633 254.379228 
L 224.760617 244.288424 
L 235.955601 234.077688 
L 247.150586 220.926554 
L 258.34557 210.330404 
L 269.540554 201.575125 
L 280.735539 193.510296 
L 291.930523 189.995013 
L 303.125507 183.104322 
L 314.320492 177.384426 
L 325.515476 171.453216 
L 336.71046 165.34811 
L 347.905445 160.14267 
L 359.100429 156.438171 
L 370.295413 152.898558 
L 381.490398 149.26429 
" clip-path="url(#pf8c177f280)" style="fill: none; stroke: #26ad81; stroke-width: 1.5; stroke-linecap: square"/>
   </g>
   <g id="line2d_33">
    <path d="M 56.835852 134.63209 
L 68.030837 139.633363 
L 79.225821 145.47599 
L 90.420805 151.135345 
L 101.61579 159.385864 
L 112.810774 168.789233 
L 124.005758 177.556298 
L 135.200743 192.668323 
L 146.395727 210.287064 
L 157.590711 235.658519 
L 168.785696 251.942681 
L 179.98068 261.938648 
L 191.175664 264.504096 
L 202.370649 259.544567 
L 213.565633 247.924867 
L 224.760617 233.131852 
L 235.955601 221.891405 
L 247.150586 211.792631 
L 258.34557 202.409565 
L 269.540554 194.996354 
L 280.735539 188.86788 
L 291.930523 181.433474 
L 303.125507 176.041474 
L 314.320492 168.845021 
L 325.515476 163.534065 
L 336.71046 158.230714 
L 347.905445 153.053159 
L 359.100429 147.629282 
L 370.295413 143.496458 
L 381.490398 141.15351 
" clip-path="url(#pf8c177f280)" style="fill: none; stroke: #31b57b; stroke-width: 1.5; stroke-linecap: square"/>
   </g>
   <g id="line2d_34">
    <path d="M 56.835852 127.439102 
L 68.030837 133.065557 
L 79.225821 139.126867 
L 90.420805 145.995992 
L 101.61579 153.894373 
L 112.810774 163.890431 
L 124.005758 176.325484 
L 135.200743 198.053614 
L 146.395727 217.211773 
L 157.590711 235.481053 
L 168.785696 252.249312 
L 179.98068 261.836979 
L 191.175664 261.721072 
L 202.370649 251.113394 
L 213.565633 238.338142 
L 224.760617 226.629319 
L 235.955601 215.996902 
L 247.150586 206.12327 
L 258.34557 193.878014 
L 269.540554 185.576775 
L 280.735539 179.539724 
L 291.930523 172.304386 
L 303.125507 165.572732 
L 314.320492 159.150512 
L 325.515476 154.999367 
L 336.71046 149.813815 
L 347.905445 145.212611 
L 359.100429 139.815519 
L 370.295413 137.163707 
L 381.490398 133.429249 
" clip-path="url(#pf8c177f280)" style="fill: none; stroke: #3fbc73; stroke-width: 1.5; stroke-linecap: square"/>
   </g>
   <g id="line2d_35">
    <path d="M 56.835852 119.355651 
L 68.030837 126.530445 
L 79.225821 130.922997 
L 90.420805 137.462654 
L 101.61579 147.95337 
L 112.810774 163.819188 
L 124.005758 180.644832 
L 135.200743 199.845818 
L 146.395727 221.67107 
L 157.590711 241.219106 
L 168.785696 253.887216 
L 179.98068 263.192788 
L 191.175664 256.964344 
L 202.370649 246.781994 
L 213.565633 228.520832 
L 224.760617 215.627176 
L 235.955601 205.520496 
L 247.150586 197.340901 
L 258.34557 188.56989 
L 269.540554 179.803432 
L 280.735539 171.494846 
L 291.930523 162.175429 
L 303.125507 155.189138 
L 314.320492 150.93805 
L 325.515476 146.058516 
L 336.71046 141.608478 
L 347.905445 137.4481 
L 359.100429 132.235051 
L 370.295413 127.974663 
L 381.490398 124.889602 
" clip-path="url(#pf8c177f280)" style="fill: none; stroke: #50c46a; stroke-width: 1.5; stroke-linecap: square"/>
   </g>
   <g id="line2d_36">
    <path d="M 56.835852 112.974088 
L 68.030837 120.354762 
L 79.225821 127.911018 
L 90.420805 135.14577 
L 101.61579 150.114898 
L 112.810774 160.631742 
L 124.005758 179.329206 
L 135.200743 202.689034 
L 146.395727 219.339959 
L 157.590711 240.700917 
L 168.785696 254.629408 
L 179.98068 263.403341 
L 191.175664 252.526718 
L 202.370649 237.061534 
L 213.565633 221.728951 
L 224.760617 209.367055 
L 235.955601 196.954408 
L 247.150586 185.953612 
L 258.34557 177.39245 
L 269.540554 170.013773 
L 280.735539 159.696356 
L 291.930523 155.690877 
L 303.125507 147.471947 
L 314.320492 140.721247 
L 325.515476 134.911245 
L 336.71046 131.506908 
L 347.905445 126.806147 
L 359.100429 122.584406 
L 370.295413 118.890788 
L 381.490398 115.470006 
" clip-path="url(#pf8c177f280)" style="fill: none; stroke: #63cb5f; stroke-width: 1.5; stroke-linecap: square"/>
   </g>
   <g id="line2d_37">
    <path d="M 56.835852 105.707086 
L 68.030837 113.683067 
L 79.225821 122.922695 
L 90.420805 134.621742 
L 101.61579 147.007298 
L 112.810774 167.617568 
L 124.005758 183.903759 
L 135.200743 201.580846 
L 146.395727 219.783962 
L 157.590711 239.724285 
L 168.785696 260.012537 
L 179.98068 260.990992 
L 191.175664 251.701175 
L 202.370649 230.9384 
L 213.565633 217.335719 
L 224.760617 204.029216 
L 235.955601 188.637408 
L 247.150586 174.447781 
L 258.34557 168.993693 
L 269.540554 157.279625 
L 280.735539 149.235957 
L 291.930523 144.822607 
L 303.125507 141.299885 
L 314.320492 135.730186 
L 325.515476 126.483172 
L 336.71046 121.474737 
L 347.905445 116.799833 
L 359.100429 114.275797 
L 370.295413 111.32116 
L 381.490398 107.266934 
" clip-path="url(#pf8c177f280)" style="fill: none; stroke: #77d153; stroke-width: 1.5; stroke-linecap: square"/>
   </g>
   <g id="line2d_38">
    <path d="M 56.835852 101.402729 
L 68.030837 107.214024 
L 79.225821 119.551645 
L 90.420805 132.188505 
L 101.61579 147.379412 
L 112.810774 162.363485 
L 124.005758 181.570765 
L 135.200743 201.569751 
L 146.395727 221.884867 
L 157.590711 246.356878 
L 168.785696 261.288823 
L 179.98068 258.72519 
L 191.175664 245.51814 
L 202.370649 229.542913 
L 213.565633 211.603874 
L 224.760617 197.595892 
L 235.955601 184.686144 
L 247.150586 168.453044 
L 258.34557 159.16904 
L 269.540554 149.864025 
L 280.735539 143.698359 
L 291.930523 136.173999 
L 303.125507 131.595786 
L 314.320492 124.325379 
L 325.515476 120.200632 
L 336.71046 113.9949 
L 347.905445 109.946133 
L 359.100429 106.209543 
L 370.295413 101.634431 
L 381.490398 98.356756 
" clip-path="url(#pf8c177f280)" style="fill: none; stroke: #8bd646; stroke-width: 1.5; stroke-linecap: square"/>
   </g>
   <g id="line2d_39">
    <path d="M 56.835852 93.607434 
L 68.030837 101.913801 
L 79.225821 113.472205 
L 90.420805 125.708662 
L 101.61579 144.86066 
L 112.810774 156.527665 
L 124.005758 177.893911 
L 135.200743 203.216811 
L 146.395727 229.536359 
L 157.590711 246.471358 
L 168.785696 260.362475 
L 179.98068 257.988616 
L 191.175664 245.129753 
L 202.370649 230.985542 
L 213.565633 209.675274 
L 224.760617 191.381356 
L 235.955601 179.109822 
L 247.150586 159.377165 
L 258.34557 150.062421 
L 269.540554 140.442335 
L 280.735539 132.233064 
L 291.930523 125.419038 
L 303.125507 121.057582 
L 314.320492 117.124448 
L 325.515476 112.078471 
L 336.71046 105.559756 
L 347.905445 100.230314 
L 359.100429 96.742412 
L 370.295413 93.987994 
L 381.490398 90.607189 
" clip-path="url(#pf8c177f280)" style="fill: none; stroke: #a2da37; stroke-width: 1.5; stroke-linecap: square"/>
   </g>
   <g id="line2d_40">
    <path d="M 56.835852 88.68358 
L 68.030837 101.22983 
L 79.225821 109.870109 
L 90.420805 126.232976 
L 101.61579 141.106964 
L 112.810774 157.036142 
L 124.005758 180.416984 
L 135.200743 205.980368 
L 146.395727 229.271874 
L 157.590711 250.031577 
L 168.785696 261.101269 
L 179.98068 257.715877 
L 191.175664 240.281227 
L 202.370649 223.526368 
L 213.565633 203.865285 
L 224.760617 186.792249 
L 235.955601 170.672138 
L 247.150586 159.67585 
L 258.34557 141.808664 
L 269.540554 132.474646 
L 280.735539 125.023127 
L 291.930523 117.31138 
L 303.125507 111.450578 
L 314.320492 105.021699 
L 325.515476 101.254149 
L 336.71046 96.451384 
L 347.905445 92.627531 
L 359.100429 88.311645 
L 370.295413 83.916287 
L 381.490398 80.339586 
" clip-path="url(#pf8c177f280)" style="fill: none; stroke: #bade28; stroke-width: 1.5; stroke-linecap: square"/>
   </g>
   <g id="line2d_41">
    <path d="M 56.835852 86.738638 
L 68.030837 95.374429 
L 79.225821 108.892157 
L 90.420805 123.492965 
L 101.61579 136.727037 
L 112.810774 156.256278 
L 124.005758 181.840459 
L 135.200743 207.858474 
L 146.395727 228.089276 
L 157.590711 250.296407 
L 168.785696 260.727203 
L 179.98068 255.812223 
L 191.175664 236.657726 
L 202.370649 219.392317 
L 213.565633 202.173665 
L 224.760617 182.944145 
L 235.955601 166.09379 
L 247.150586 153.484288 
L 258.34557 139.136803 
L 269.540554 127.073389 
L 280.735539 117.502847 
L 291.930523 108.378499 
L 303.125507 104.663022 
L 314.320492 97.476106 
L 325.515476 94.851419 
L 336.71046 89.425222 
L 347.905445 84.405849 
L 359.100429 78.253591 
L 370.295413 74.54745 
L 381.490398 71.778406 
" clip-path="url(#pf8c177f280)" style="fill: none; stroke: #d2e21b; stroke-width: 1.5; stroke-linecap: square"/>
   </g>
   <g id="line2d_42">
    <path d="M 56.835852 77.948053 
L 68.030837 91.417926 
L 79.225821 102.176801 
L 90.420805 119.518009 
L 101.61579 134.075535 
L 112.810774 154.990229 
L 124.005758 185.686792 
L 135.200743 205.866145 
L 146.395727 226.680827 
L 157.590711 247.397934 
L 168.785696 258.924687 
L 179.98068 255.54746 
L 191.175664 236.391003 
L 202.370649 219.852751 
L 213.565633 199.526904 
L 224.760617 178.49494 
L 235.955601 164.122178 
L 247.150586 146.967049 
L 258.34557 133.322139 
L 269.540554 121.284589 
L 280.735539 108.071466 
L 291.930523 101.963918 
L 303.125507 93.2226 
L 314.320492 89.041635 
L 325.515476 82.853165 
L 336.71046 76.579083 
L 347.905445 74.138447 
L 359.100429 69.790651 
L 370.295413 64.825521 
L 381.490398 61.804904 
" clip-path="url(#pf8c177f280)" style="fill: none; stroke: #eae51a; stroke-width: 1.5; stroke-linecap: square"/>
   </g>
   <g id="line2d_43">
    <path d="M 56.835852 74.008953 
L 68.030837 83.836421 
L 79.225821 97.732296 
L 90.420805 115.323655 
L 101.61579 131.465946 
L 112.810774 155.197172 
L 124.005758 180.086007 
L 135.200743 202.754347 
L 146.395727 225.006358 
L 157.590711 244.553429 
L 168.785696 258.49353 
L 179.98068 254.8332 
L 191.175664 233.239997 
L 202.370649 215.654962 
L 213.565633 190.14258 
L 224.760617 171.882567 
L 235.955601 156.732869 
L 247.150586 140.472906 
L 258.34557 126.484807 
L 269.540554 111.811159 
L 280.735539 105.706609 
L 291.930523 93.444469 
L 303.125507 87.166238 
L 314.320492 77.836802 
L 325.515476 73.549656 
L 336.71046 71.490795 
L 347.905445 67.394891 
L 359.100429 62.904986 
L 370.295413 58.687776 
L 381.490398 53.856 
" clip-path="url(#pf8c177f280)" style="fill: none; stroke: #fde725; stroke-width: 1.5; stroke-linecap: square"/>
   </g>
   <g id="patch_3">
    <path d="M 40.603125 307.872 
L 40.603125 41.76 
" style="fill: none; stroke: #000000; stroke-width: 0.8; stroke-linejoin: miter; stroke-linecap: square"/>
   </g>
   <g id="patch_4">
    <path d="M 397.723125 307.872 
L 397.723125 41.76 
" style="fill: none; stroke: #000000; stroke-width: 0.8; stroke-linejoin: miter; stroke-linecap: square"/>
   </g>
   <g id="patch_5">
    <path d="M 40.603125 307.872 
L 397.723125 307.872 
" style="fill: none; stroke: #000000; stroke-width: 0.8; stroke-linejoin: miter; stroke-linecap: square"/>
   </g>
   <g id="patch_6">
    <path d="M 40.603125 41.76 
L 397.723125 41.76 
" style="fill: none; stroke: #000000; stroke-width: 0.8; stroke-linejoin: miter; stroke-linecap: square"/>
   </g>
   <g id="legend_1">
    <g id="patch_7">
     <path d="M 417.579125 307.872 
L 637.826 307.872 
Q 639.826 307.872 639.826 305.872 
L 639.826 145.412625 
Q 639.826 143.412625 637.826 143.412625 
L 417.579125 143.412625 
Q 415.579125 143.412625 415.579125 145.412625 
L 415.579125 305.872 
Q 415.579125 307.872 417.579125 307.872 
z
" style="fill: #ffffff; opacity: 0.8; stroke: #cccccc; stroke-linejoin: miter"/>
    </g>
    <g id="text_17">
     <!-- Readout pulse amplitude () -->
     <g transform="translate(459.601781 155.011063) scale(0.1 -0.1)">
      <defs>
       <path id="DejaVuSans-52" d="M 2841 2188 
Q 3044 2119 3236 1894 
Q 3428 1669 3622 1275 
L 4263 0 
L 3584 0 
L 2988 1197 
Q 2756 1666 2539 1819 
Q 2322 1972 1947 1972 
L 1259 1972 
L 1259 0 
L 628 0 
L 628 4666 
L 2053 4666 
Q 2853 4666 3247 4331 
Q 3641 3997 3641 3322 
Q 3641 2881 3436 2590 
Q 3231 2300 2841 2188 
z
M 1259 4147 
L 1259 2491 
L 2053 2491 
Q 2509 2491 2742 2702 
Q 2975 2913 2975 3322 
Q 2975 3731 2742 3939 
Q 2509 4147 2053 4147 
L 1259 4147 
z
" transform="scale(0.015625)"/>
       <path id="DejaVuSans-6f" d="M 1959 3097 
Q 1497 3097 1228 2736 
Q 959 2375 959 1747 
Q 959 1119 1226 758 
Q 1494 397 1959 397 
Q 2419 397 2687 759 
Q 2956 1122 2956 1747 
Q 2956 2369 2687 2733 
Q 2419 3097 1959 3097 
z
M 1959 3584 
Q 2709 3584 3137 3096 
Q 3566 2609 3566 1747 
Q 3566 888 3137 398 
Q 2709 -91 1959 -91 
Q 1206 -91 779 398 
Q 353 888 353 1747 
Q 353 2609 779 3096 
Q 1206 3584 1959 3584 
z
" transform="scale(0.015625)"/>
       <path id="DejaVuSans-70" d="M 1159 525 
L 1159 -1331 
L 581 -1331 
L 581 3500 
L 1159 3500 
L 1159 2969 
Q 1341 3281 1617 3432 
Q 1894 3584 2278 3584 
Q 2916 3584 3314 3078 
Q 3713 2572 3713 1747 
Q 3713 922 3314 415 
Q 2916 -91 2278 -91 
Q 1894 -91 1617 61 
Q 1341 213 1159 525 
z
M 3116 1747 
Q 3116 2381 2855 2742 
Q 2594 3103 2138 3103 
Q 1681 3103 1420 2742 
Q 1159 2381 1159 1747 
Q 1159 1113 1420 752 
Q 1681 391 2138 391 
Q 2594 391 2855 752 
Q 3116 1113 3116 1747 
z
" transform="scale(0.015625)"/>
       <path id="DejaVuSans-6c" d="M 603 4863 
L 1178 4863 
L 1178 0 
L 603 0 
L 603 4863 
z
" transform="scale(0.015625)"/>
       <path id="DejaVuSans-73" d="M 2834 3397 
L 2834 2853 
Q 2591 2978 2328 3040 
Q 2066 3103 1784 3103 
Q 1356 3103 1142 2972 
Q 928 2841 928 2578 
Q 928 2378 1081 2264 
Q 1234 2150 1697 2047 
L 1894 2003 
Q 2506 1872 2764 1633 
Q 3022 1394 3022 966 
Q 3022 478 2636 193 
Q 2250 -91 1575 -91 
Q 1294 -91 989 -36 
Q 684 19 347 128 
L 347 722 
Q 666 556 975 473 
Q 1284 391 1588 391 
Q 1994 391 2212 530 
Q 2431 669 2431 922 
Q 2431 1156 2273 1281 
Q 2116 1406 1581 1522 
L 1381 1569 
Q 847 1681 609 1914 
Q 372 2147 372 2553 
Q 372 3047 722 3315 
Q 1072 3584 1716 3584 
Q 2034 3584 2315 3537 
Q 2597 3491 2834 3397 
z
" transform="scale(0.015625)"/>
       <path id="DejaVuSans-28" d="M 1984 4856 
Q 1566 4138 1362 3434 
Q 1159 2731 1159 2009 
Q 1159 1288 1364 580 
Q 1569 -128 1984 -844 
L 1484 -844 
Q 1016 -109 783 600 
Q 550 1309 550 2009 
Q 550 2706 781 3412 
Q 1013 4119 1484 4856 
L 1984 4856 
z
" transform="scale(0.015625)"/>
       <path id="DejaVuSans-29" d="M 513 4856 
L 1013 4856 
Q 1481 4119 1714 3412 
Q 1947 2706 1947 2009 
Q 1947 1309 1714 600 
Q 1481 -109 1013 -844 
L 513 -844 
Q 928 -128 1133 580 
Q 1338 1288 1338 2009 
Q 1338 2731 1133 3434 
Q 928 4138 513 4856 
z
" transform="scale(0.015625)"/>
      </defs>
      <use xlink:href="#DejaVuSans-52"/>
      <use xlink:href="#DejaVuSans-65" x="64.982422"/>
      <use xlink:href="#DejaVuSans-61" x="126.505859"/>
      <use xlink:href="#DejaVuSans-64" x="187.785156"/>
      <use xlink:href="#DejaVuSans-6f" x="251.261719"/>
      <use xlink:href="#DejaVuSans-75" x="312.443359"/>
      <use xlink:href="#DejaVuSans-74" x="375.822266"/>
      <use xlink:href="#DejaVuSans-20" x="415.03125"/>
      <use xlink:href="#DejaVuSans-70" x="446.818359"/>
      <use xlink:href="#DejaVuSans-75" x="510.294922"/>
      <use xlink:href="#DejaVuSans-6c" x="573.673828"/>
      <use xlink:href="#DejaVuSans-73" x="601.457031"/>
      <use xlink:href="#DejaVuSans-65" x="653.556641"/>
      <use xlink:href="#DejaVuSans-20" x="715.080078"/>
      <use xlink:href="#DejaVuSans-61" x="746.867188"/>
      <use xlink:href="#DejaVuSans-6d" x="808.146484"/>
      <use xlink:href="#DejaVuSans-70" x="905.558594"/>
      <use xlink:href="#DejaVuSans-6c" x="969.035156"/>
      <use xlink:href="#DejaVuSans-69" x="996.818359"/>
      <use xlink:href="#DejaVuSans-74" x="1024.601562"/>
      <use xlink:href="#DejaVuSans-75" x="1063.810547"/>
      <use xlink:href="#DejaVuSans-64" x="1127.189453"/>
      <use xlink:href="#DejaVuSans-65" x="1190.666016"/>
      <use xlink:href="#DejaVuSans-20" x="1252.189453"/>
      <use xlink:href="#DejaVuSans-28" x="1283.976562"/>
      <use xlink:href="#DejaVuSans-29" x="1322.990234"/>
     </g>
    </g>
    <g id="line2d_44">
     <path d="M 419.579125 166.189188 
L 429.579125 166.189188 
L 439.579125 166.189188 
" style="fill: none; stroke: #440154; stroke-width: 1.5; stroke-linecap: square"/>
    </g>
    <g id="text_18">
     <!-- 0.01 -->
     <g transform="translate(447.579125 169.689188) scale(0.1 -0.1)">
      <use xlink:href="#DejaVuSans-30"/>
      <use xlink:href="#DejaVuSans-2e" x="63.623047"/>
      <use xlink:href="#DejaVuSans-30" x="95.410156"/>
      <use xlink:href="#DejaVuSans-31" x="159.033203"/>
     </g>
    </g>
    <g id="line2d_45">
     <path d="M 419.579125 180.867313 
L 429.579125 180.867313 
L 439.579125 180.867313 
" style="fill: none; stroke: #470d60; stroke-width: 1.5; stroke-linecap: square"/>
    </g>
    <g id="text_19">
     <!-- 0.0338 -->
     <g transform="translate(447.579125 184.367313) scale(0.1 -0.1)">
      <use xlink:href="#DejaVuSans-30"/>
      <use xlink:href="#DejaVuSans-2e" x="63.623047"/>
      <use xlink:href="#DejaVuSans-30" x="95.410156"/>
      <use xlink:href="#DejaVuSans-33" x="159.033203"/>
      <use xlink:href="#DejaVuSans-33" x="222.65625"/>
      <use xlink:href="#DejaVuSans-38" x="286.279297"/>
     </g>
    </g>
    <g id="line2d_46">
     <path d="M 419.579125 195.545438 
L 429.579125 195.545438 
L 439.579125 195.545438 
" style="fill: none; stroke: #481a6c; stroke-width: 1.5; stroke-linecap: square"/>
    </g>
    <g id="text_20">
     <!-- 0.0576 -->
     <g transform="translate(447.579125 199.045438) scale(0.1 -0.1)">
      <use xlink:href="#DejaVuSans-30"/>
      <use xlink:href="#DejaVuSans-2e" x="63.623047"/>
      <use xlink:href="#DejaVuSans-30" x="95.410156"/>
      <use xlink:href="#DejaVuSans-35" x="159.033203"/>
      <use xlink:href="#DejaVuSans-37" x="222.65625"/>
      <use xlink:href="#DejaVuSans-36" x="286.279297"/>
     </g>
    </g>
    <g id="line2d_47">
     <path d="M 419.579125 210.223563 
L 429.579125 210.223563 
L 439.579125 210.223563 
" style="fill: none; stroke: #482576; stroke-width: 1.5; stroke-linecap: square"/>
    </g>
    <g id="text_21">
     <!-- 0.0814 -->
     <g transform="translate(447.579125 213.723563) scale(0.1 -0.1)">
      <use xlink:href="#DejaVuSans-30"/>
      <use xlink:href="#DejaVuSans-2e" x="63.623047"/>
      <use xlink:href="#DejaVuSans-30" x="95.410156"/>
      <use xlink:href="#DejaVuSans-38" x="159.033203"/>
      <use xlink:href="#DejaVuSans-31" x="222.65625"/>
      <use xlink:href="#DejaVuSans-34" x="286.279297"/>
     </g>
    </g>
    <g id="line2d_48">
     <path d="M 419.579125 224.901688 
L 429.579125 224.901688 
L 439.579125 224.901688 
" style="fill: none; stroke: #46307e; stroke-width: 1.5; stroke-linecap: square"/>
    </g>
    <g id="text_22">
     <!-- 0.105 -->
     <g transform="translate(447.579125 228.401688) scale(0.1 -0.1)">
      <use xlink:href="#DejaVuSans-30"/>
      <use xlink:href="#DejaVuSans-2e" x="63.623047"/>
      <use xlink:href="#DejaVuSans-31" x="95.410156"/>
      <use xlink:href="#DejaVuSans-30" x="159.033203"/>
      <use xlink:href="#DejaVuSans-35" x="222.65625"/>
     </g>
    </g>
    <g id="line2d_49">
     <path d="M 419.579125 239.579813 
L 429.579125 239.579813 
L 439.579125 239.579813 
" style="fill: none; stroke: #443b84; stroke-width: 1.5; stroke-linecap: square"/>
    </g>
    <g id="text_23">
     <!-- 0.129 -->
     <g transform="translate(447.579125 243.079813) scale(0.1 -0.1)">
      <defs>
       <path id="DejaVuSans-39" d="M 703 97 
L 703 672 
Q 941 559 1184 500 
Q 1428 441 1663 441 
Q 2288 441 2617 861 
Q 2947 1281 2994 2138 
Q 2813 1869 2534 1725 
Q 2256 1581 1919 1581 
Q 1219 1581 811 2004 
Q 403 2428 403 3163 
Q 403 3881 828 4315 
Q 1253 4750 1959 4750 
Q 2769 4750 3195 4129 
Q 3622 3509 3622 2328 
Q 3622 1225 3098 567 
Q 2575 -91 1691 -91 
Q 1453 -91 1209 -44 
Q 966 3 703 97 
z
M 1959 2075 
Q 2384 2075 2632 2365 
Q 2881 2656 2881 3163 
Q 2881 3666 2632 3958 
Q 2384 4250 1959 4250 
Q 1534 4250 1286 3958 
Q 1038 3666 1038 3163 
Q 1038 2656 1286 2365 
Q 1534 2075 1959 2075 
z
" transform="scale(0.015625)"/>
      </defs>
      <use xlink:href="#DejaVuSans-30"/>
      <use xlink:href="#DejaVuSans-2e" x="63.623047"/>
      <use xlink:href="#DejaVuSans-31" x="95.410156"/>
      <use xlink:href="#DejaVuSans-32" x="159.033203"/>
      <use xlink:href="#DejaVuSans-39" x="222.65625"/>
     </g>
    </g>
    <g id="line2d_50">
     <path d="M 419.579125 254.257938 
L 429.579125 254.257938 
L 439.579125 254.257938 
" style="fill: none; stroke: #404588; stroke-width: 1.5; stroke-linecap: square"/>
    </g>
    <g id="text_24">
     <!-- 0.153 -->
     <g transform="translate(447.579125 257.757938) scale(0.1 -0.1)">
      <use xlink:href="#DejaVuSans-30"/>
      <use xlink:href="#DejaVuSans-2e" x="63.623047"/>
      <use xlink:href="#DejaVuSans-31" x="95.410156"/>
      <use xlink:href="#DejaVuSans-35" x="159.033203"/>
      <use xlink:href="#DejaVuSans-33" x="222.65625"/>
     </g>
    </g>
    <g id="line2d_51">
     <path d="M 419.579125 268.936062 
L 429.579125 268.936062 
L 439.579125 268.936062 
" style="fill: none; stroke: #3c4f8a; stroke-width: 1.5; stroke-linecap: square"/>
    </g>
    <g id="text_25">
     <!-- 0.177 -->
     <g transform="translate(447.579125 272.436062) scale(0.1 -0.1)">
      <use xlink:href="#DejaVuSans-30"/>
      <use xlink:href="#DejaVuSans-2e" x="63.623047"/>
      <use xlink:href="#DejaVuSans-31" x="95.410156"/>
      <use xlink:href="#DejaVuSans-37" x="159.033203"/>
      <use xlink:href="#DejaVuSans-37" x="222.65625"/>
     </g>
    </g>
    <g id="line2d_52">
     <path d="M 419.579125 283.614188 
L 429.579125 283.614188 
L 439.579125 283.614188 
" style="fill: none; stroke: #38598c; stroke-width: 1.5; stroke-linecap: square"/>
    </g>
    <g id="text_26">
     <!-- 0.2 -->
     <g transform="translate(447.579125 287.114188) scale(0.1 -0.1)">
      <use xlink:href="#DejaVuSans-30"/>
      <use xlink:href="#DejaVuSans-2e" x="63.623047"/>
      <use xlink:href="#DejaVuSans-32" x="95.410156"/>
     </g>
    </g>
    <g id="line2d_53">
     <path d="M 419.579125 298.292312 
L 429.579125 298.292312 
L 439.579125 298.292312 
" style="fill: none; stroke: #33628d; stroke-width: 1.5; stroke-linecap: square"/>
    </g>
    <g id="text_27">
     <!-- 0.224 -->
     <g transform="translate(447.579125 301.792312) scale(0.1 -0.1)">
      <use xlink:href="#DejaVuSans-30"/>
      <use xlink:href="#DejaVuSans-2e" x="63.623047"/>
      <use xlink:href="#DejaVuSans-32" x="95.410156"/>
      <use xlink:href="#DejaVuSans-32" x="159.033203"/>
      <use xlink:href="#DejaVuSans-34" x="222.65625"/>
     </g>
    </g>
    <g id="line2d_54">
     <path d="M 502.56975 166.189188 
L 512.56975 166.189188 
L 522.56975 166.189188 
" style="fill: none; stroke: #2f6b8e; stroke-width: 1.5; stroke-linecap: square"/>
    </g>
    <g id="text_28">
     <!-- 0.248 -->
     <g transform="translate(530.56975 169.689188) scale(0.1 -0.1)">
      <use xlink:href="#DejaVuSans-30"/>
      <use xlink:href="#DejaVuSans-2e" x="63.623047"/>
      <use xlink:href="#DejaVuSans-32" x="95.410156"/>
      <use xlink:href="#DejaVuSans-34" x="159.033203"/>
      <use xlink:href="#DejaVuSans-38" x="222.65625"/>
     </g>
    </g>
    <g id="line2d_55">
     <path d="M 502.56975 180.867313 
L 512.56975 180.867313 
L 522.56975 180.867313 
" style="fill: none; stroke: #2c738e; stroke-width: 1.5; stroke-linecap: square"/>
    </g>
    <g id="text_29">
     <!-- 0.272 -->
     <g transform="translate(530.56975 184.367313) scale(0.1 -0.1)">
      <use xlink:href="#DejaVuSans-30"/>
      <use xlink:href="#DejaVuSans-2e" x="63.623047"/>
      <use xlink:href="#DejaVuSans-32" x="95.410156"/>
      <use xlink:href="#DejaVuSans-37" x="159.033203"/>
      <use xlink:href="#DejaVuSans-32" x="222.65625"/>
     </g>
    </g>
    <g id="line2d_56">
     <path d="M 502.56975 195.545438 
L 512.56975 195.545438 
L 522.56975 195.545438 
" style="fill: none; stroke: #297b8e; stroke-width: 1.5; stroke-linecap: square"/>
    </g>
    <g id="text_30">
     <!-- 0.296 -->
     <g transform="translate(530.56975 199.045438) scale(0.1 -0.1)">
      <use xlink:href="#DejaVuSans-30"/>
      <use xlink:href="#DejaVuSans-2e" x="63.623047"/>
      <use xlink:href="#DejaVuSans-32" x="95.410156"/>
      <use xlink:href="#DejaVuSans-39" x="159.033203"/>
      <use xlink:href="#DejaVuSans-36" x="222.65625"/>
     </g>
    </g>
    <g id="line2d_57">
     <path d="M 502.56975 210.223563 
L 512.56975 210.223563 
L 522.56975 210.223563 
" style="fill: none; stroke: #25838e; stroke-width: 1.5; stroke-linecap: square"/>
    </g>
    <g id="text_31">
     <!-- 0.319 -->
     <g transform="translate(530.56975 213.723563) scale(0.1 -0.1)">
      <use xlink:href="#DejaVuSans-30"/>
      <use xlink:href="#DejaVuSans-2e" x="63.623047"/>
      <use xlink:href="#DejaVuSans-33" x="95.410156"/>
      <use xlink:href="#DejaVuSans-31" x="159.033203"/>
      <use xlink:href="#DejaVuSans-39" x="222.65625"/>
     </g>
    </g>
    <g id="line2d_58">
     <path d="M 502.56975 224.901688 
L 512.56975 224.901688 
L 522.56975 224.901688 
" style="fill: none; stroke: #228c8d; stroke-width: 1.5; stroke-linecap: square"/>
    </g>
    <g id="text_32">
     <!-- 0.343 -->
     <g transform="translate(530.56975 228.401688) scale(0.1 -0.1)">
      <use xlink:href="#DejaVuSans-30"/>
      <use xlink:href="#DejaVuSans-2e" x="63.623047"/>
      <use xlink:href="#DejaVuSans-33" x="95.410156"/>
      <use xlink:href="#DejaVuSans-34" x="159.033203"/>
      <use xlink:href="#DejaVuSans-33" x="222.65625"/>
     </g>
    </g>
    <g id="line2d_59">
     <path d="M 502.56975 239.579813 
L 512.56975 239.579813 
L 522.56975 239.579813 
" style="fill: none; stroke: #1f948c; stroke-width: 1.5; stroke-linecap: square"/>
    </g>
    <g id="text_33">
     <!-- 0.367 -->
     <g transform="translate(530.56975 243.079813) scale(0.1 -0.1)">
      <use xlink:href="#DejaVuSans-30"/>
      <use xlink:href="#DejaVuSans-2e" x="63.623047"/>
      <use xlink:href="#DejaVuSans-33" x="95.410156"/>
      <use xlink:href="#DejaVuSans-36" x="159.033203"/>
      <use xlink:href="#DejaVuSans-37" x="222.65625"/>
     </g>
    </g>
    <g id="line2d_60">
     <path d="M 502.56975 254.257938 
L 512.56975 254.257938 
L 522.56975 254.257938 
" style="fill: none; stroke: #1e9d89; stroke-width: 1.5; stroke-linecap: square"/>
    </g>
    <g id="text_34">
     <!-- 0.391 -->
     <g transform="translate(530.56975 257.757938) scale(0.1 -0.1)">
      <use xlink:href="#DejaVuSans-30"/>
      <use xlink:href="#DejaVuSans-2e" x="63.623047"/>
      <use xlink:href="#DejaVuSans-33" x="95.410156"/>
      <use xlink:href="#DejaVuSans-39" x="159.033203"/>
      <use xlink:href="#DejaVuSans-31" x="222.65625"/>
     </g>
    </g>
    <g id="line2d_61">
     <path d="M 502.56975 268.936062 
L 512.56975 268.936062 
L 522.56975 268.936062 
" style="fill: none; stroke: #21a585; stroke-width: 1.5; stroke-linecap: square"/>
    </g>
    <g id="text_35">
     <!-- 0.414 -->
     <g transform="translate(530.56975 272.436062) scale(0.1 -0.1)">
      <use xlink:href="#DejaVuSans-30"/>
      <use xlink:href="#DejaVuSans-2e" x="63.623047"/>
      <use xlink:href="#DejaVuSans-34" x="95.410156"/>
      <use xlink:href="#DejaVuSans-31" x="159.033203"/>
      <use xlink:href="#DejaVuSans-34" x="222.65625"/>
     </g>
    </g>
    <g id="line2d_62">
     <path d="M 502.56975 283.614188 
L 512.56975 283.614188 
L 522.56975 283.614188 
" style="fill: none; stroke: #26ad81; stroke-width: 1.5; stroke-linecap: square"/>
    </g>
    <g id="text_36">
     <!-- 0.438 -->
     <g transform="translate(530.56975 287.114188) scale(0.1 -0.1)">
      <use xlink:href="#DejaVuSans-30"/>
      <use xlink:href="#DejaVuSans-2e" x="63.623047"/>
      <use xlink:href="#DejaVuSans-34" x="95.410156"/>
      <use xlink:href="#DejaVuSans-33" x="159.033203"/>
      <use xlink:href="#DejaVuSans-38" x="222.65625"/>
     </g>
    </g>
    <g id="line2d_63">
     <path d="M 502.56975 298.292312 
L 512.56975 298.292312 
L 522.56975 298.292312 
" style="fill: none; stroke: #31b57b; stroke-width: 1.5; stroke-linecap: square"/>
    </g>
    <g id="text_37">
     <!-- 0.462 -->
     <g transform="translate(530.56975 301.792312) scale(0.1 -0.1)">
      <use xlink:href="#DejaVuSans-30"/>
      <use xlink:href="#DejaVuSans-2e" x="63.623047"/>
      <use xlink:href="#DejaVuSans-34" x="95.410156"/>
      <use xlink:href="#DejaVuSans-36" x="159.033203"/>
      <use xlink:href="#DejaVuSans-32" x="222.65625"/>
     </g>
    </g>
    <g id="line2d_64">
     <path d="M 579.197875 166.189188 
L 589.197875 166.189188 
L 599.197875 166.189188 
" style="fill: none; stroke: #3fbc73; stroke-width: 1.5; stroke-linecap: square"/>
    </g>
    <g id="text_38">
     <!-- 0.486 -->
     <g transform="translate(607.197875 169.689188) scale(0.1 -0.1)">
      <use xlink:href="#DejaVuSans-30"/>
      <use xlink:href="#DejaVuSans-2e" x="63.623047"/>
      <use xlink:href="#DejaVuSans-34" x="95.410156"/>
      <use xlink:href="#DejaVuSans-38" x="159.033203"/>
      <use xlink:href="#DejaVuSans-36" x="222.65625"/>
     </g>
    </g>
    <g id="line2d_65">
     <path d="M 579.197875 180.867313 
L 589.197875 180.867313 
L 599.197875 180.867313 
" style="fill: none; stroke: #50c46a; stroke-width: 1.5; stroke-linecap: square"/>
    </g>
    <g id="text_39">
     <!-- 0.51 -->
     <g transform="translate(607.197875 184.367313) scale(0.1 -0.1)">
      <use xlink:href="#DejaVuSans-30"/>
      <use xlink:href="#DejaVuSans-2e" x="63.623047"/>
      <use xlink:href="#DejaVuSans-35" x="95.410156"/>
      <use xlink:href="#DejaVuSans-31" x="159.033203"/>
     </g>
    </g>
    <g id="line2d_66">
     <path d="M 579.197875 195.545438 
L 589.197875 195.545438 
L 599.197875 195.545438 
" style="fill: none; stroke: #63cb5f; stroke-width: 1.5; stroke-linecap: square"/>
    </g>
    <g id="text_40">
     <!-- 0.533 -->
     <g transform="translate(607.197875 199.045438) scale(0.1 -0.1)">
      <use xlink:href="#DejaVuSans-30"/>
      <use xlink:href="#DejaVuSans-2e" x="63.623047"/>
      <use xlink:href="#DejaVuSans-35" x="95.410156"/>
      <use xlink:href="#DejaVuSans-33" x="159.033203"/>
      <use xlink:href="#DejaVuSans-33" x="222.65625"/>
     </g>
    </g>
    <g id="line2d_67">
     <path d="M 579.197875 210.223563 
L 589.197875 210.223563 
L 599.197875 210.223563 
" style="fill: none; stroke: #77d153; stroke-width: 1.5; stroke-linecap: square"/>
    </g>
    <g id="text_41">
     <!-- 0.557 -->
     <g transform="translate(607.197875 213.723563) scale(0.1 -0.1)">
      <use xlink:href="#DejaVuSans-30"/>
      <use xlink:href="#DejaVuSans-2e" x="63.623047"/>
      <use xlink:href="#DejaVuSans-35" x="95.410156"/>
      <use xlink:href="#DejaVuSans-35" x="159.033203"/>
      <use xlink:href="#DejaVuSans-37" x="222.65625"/>
     </g>
    </g>
    <g id="line2d_68">
     <path d="M 579.197875 224.901688 
L 589.197875 224.901688 
L 599.197875 224.901688 
" style="fill: none; stroke: #8bd646; stroke-width: 1.5; stroke-linecap: square"/>
    </g>
    <g id="text_42">
     <!-- 0.581 -->
     <g transform="translate(607.197875 228.401688) scale(0.1 -0.1)">
      <use xlink:href="#DejaVuSans-30"/>
      <use xlink:href="#DejaVuSans-2e" x="63.623047"/>
      <use xlink:href="#DejaVuSans-35" x="95.410156"/>
      <use xlink:href="#DejaVuSans-38" x="159.033203"/>
      <use xlink:href="#DejaVuSans-31" x="222.65625"/>
     </g>
    </g>
    <g id="line2d_69">
     <path d="M 579.197875 239.579813 
L 589.197875 239.579813 
L 599.197875 239.579813 
" style="fill: none; stroke: #a2da37; stroke-width: 1.5; stroke-linecap: square"/>
    </g>
    <g id="text_43">
     <!-- 0.605 -->
     <g transform="translate(607.197875 243.079813) scale(0.1 -0.1)">
      <use xlink:href="#DejaVuSans-30"/>
      <use xlink:href="#DejaVuSans-2e" x="63.623047"/>
      <use xlink:href="#DejaVuSans-36" x="95.410156"/>
      <use xlink:href="#DejaVuSans-30" x="159.033203"/>
      <use xlink:href="#DejaVuSans-35" x="222.65625"/>
     </g>
    </g>
    <g id="line2d_70">
     <path d="M 579.197875 254.257938 
L 589.197875 254.257938 
L 599.197875 254.257938 
" style="fill: none; stroke: #bade28; stroke-width: 1.5; stroke-linecap: square"/>
    </g>
    <g id="text_44">
     <!-- 0.629 -->
     <g transform="translate(607.197875 257.757938) scale(0.1 -0.1)">
      <use xlink:href="#DejaVuSans-30"/>
      <use xlink:href="#DejaVuSans-2e" x="63.623047"/>
      <use xlink:href="#DejaVuSans-36" x="95.410156"/>
      <use xlink:href="#DejaVuSans-32" x="159.033203"/>
      <use xlink:href="#DejaVuSans-39" x="222.65625"/>
     </g>
    </g>
    <g id="line2d_71">
     <path d="M 579.197875 268.936062 
L 589.197875 268.936062 
L 599.197875 268.936062 
" style="fill: none; stroke: #d2e21b; stroke-width: 1.5; stroke-linecap: square"/>
    </g>
    <g id="text_45">
     <!-- 0.652 -->
     <g transform="translate(607.197875 272.436062) scale(0.1 -0.1)">
      <use xlink:href="#DejaVuSans-30"/>
      <use xlink:href="#DejaVuSans-2e" x="63.623047"/>
      <use xlink:href="#DejaVuSans-36" x="95.410156"/>
      <use xlink:href="#DejaVuSans-35" x="159.033203"/>
      <use xlink:href="#DejaVuSans-32" x="222.65625"/>
     </g>
    </g>
    <g id="line2d_72">
     <path d="M 579.197875 283.614188 
L 589.197875 283.614188 
L 599.197875 283.614188 
" style="fill: none; stroke: #eae51a; stroke-width: 1.5; stroke-linecap: square"/>
    </g>
    <g id="text_46">
     <!-- 0.676 -->
     <g transform="translate(607.197875 287.114188) scale(0.1 -0.1)">
      <use xlink:href="#DejaVuSans-30"/>
      <use xlink:href="#DejaVuSans-2e" x="63.623047"/>
      <use xlink:href="#DejaVuSans-36" x="95.410156"/>
      <use xlink:href="#DejaVuSans-37" x="159.033203"/>
      <use xlink:href="#DejaVuSans-36" x="222.65625"/>
     </g>
    </g>
    <g id="line2d_73">
     <path d="M 579.197875 298.292312 
L 589.197875 298.292312 
L 599.197875 298.292312 
" style="fill: none; stroke: #fde725; stroke-width: 1.5; stroke-linecap: square"/>
    </g>
    <g id="text_47">
     <!-- 0.7 -->
     <g transform="translate(607.197875 301.792312) scale(0.1 -0.1)">
      <use xlink:href="#DejaVuSans-30"/>
      <use xlink:href="#DejaVuSans-2e" x="63.623047"/>
      <use xlink:href="#DejaVuSans-37" x="95.410156"/>
     </g>
    </g>
   </g>
  </g>
  <g id="text_48">
   <!-- x0x1-y0 resonator punchout -->
   <g transform="translate(128.292188 16.318125) scale(0.12 -0.12)">
    <defs>
     <path id="DejaVuSans-78" d="M 3513 3500 
L 2247 1797 
L 3578 0 
L 2900 0 
L 1881 1375 
L 863 0 
L 184 0 
L 1544 1831 
L 300 3500 
L 978 3500 
L 1906 2253 
L 2834 3500 
L 3513 3500 
z
" transform="scale(0.015625)"/>
     <path id="DejaVuSans-2d" d="M 313 2009 
L 1997 2009 
L 1997 1497 
L 313 1497 
L 313 2009 
z
" transform="scale(0.015625)"/>
     <path id="DejaVuSans-68" d="M 3513 2113 
L 3513 0 
L 2938 0 
L 2938 2094 
Q 2938 2591 2744 2837 
Q 2550 3084 2163 3084 
Q 1697 3084 1428 2787 
Q 1159 2491 1159 1978 
L 1159 0 
L 581 0 
L 581 4863 
L 1159 4863 
L 1159 2956 
Q 1366 3272 1645 3428 
Q 1925 3584 2291 3584 
Q 2894 3584 3203 3211 
Q 3513 2838 3513 2113 
z
" transform="scale(0.015625)"/>
    </defs>
    <use xlink:href="#DejaVuSans-78"/>
    <use xlink:href="#DejaVuSans-30" x="59.179688"/>
    <use xlink:href="#DejaVuSans-78" x="122.802734"/>
    <use xlink:href="#DejaVuSans-31" x="181.982422"/>
    <use xlink:href="#DejaVuSans-2d" x="245.605469"/>
    <use xlink:href="#DejaVuSans-79" x="279.939453"/>
    <use xlink:href="#DejaVuSans-30" x="339.119141"/>
    <use xlink:href="#DejaVuSans-20" x="402.742188"/>
    <use xlink:href="#DejaVuSans-72" x="434.529297"/>
    <use xlink:href="#DejaVuSans-65" x="473.392578"/>
    <use xlink:href="#DejaVuSans-73" x="534.916016"/>
    <use xlink:href="#DejaVuSans-6f" x="587.015625"/>
    <use xlink:href="#DejaVuSans-6e" x="648.197266"/>
    <use xlink:href="#DejaVuSans-61" x="711.576172"/>
    <use xlink:href="#DejaVuSans-74" x="772.855469"/>
    <use xlink:href="#DejaVuSans-6f" x="812.064453"/>
    <use xlink:href="#DejaVuSans-72" x="873.246094"/>
    <use xlink:href="#DejaVuSans-20" x="914.359375"/>
    <use xlink:href="#DejaVuSans-70" x="946.146484"/>
    <use xlink:href="#DejaVuSans-75" x="1009.623047"/>
    <use xlink:href="#DejaVuSans-6e" x="1073.001953"/>
    <use xlink:href="#DejaVuSans-63" x="1136.380859"/>
    <use xlink:href="#DejaVuSans-68" x="1191.361328"/>
    <use xlink:href="#DejaVuSans-6f" x="1254.740234"/>
    <use xlink:href="#DejaVuSans-75" x="1315.921875"/>
    <use xlink:href="#DejaVuSans-74" x="1379.300781"/>
   </g>
   <!-- tuid: 20240105-144417-100-e01479 -->
   <g transform="translate(103.673438 29.7555) scale(0.12 -0.12)">
    <defs>
     <path id="DejaVuSans-3a" d="M 750 794 
L 1409 794 
L 1409 0 
L 750 0 
L 750 794 
z
M 750 3309 
L 1409 3309 
L 1409 2516 
L 750 2516 
L 750 3309 
z
" transform="scale(0.015625)"/>
    </defs>
    <use xlink:href="#DejaVuSans-74"/>
    <use xlink:href="#DejaVuSans-75" x="39.208984"/>
    <use xlink:href="#DejaVuSans-69" x="102.587891"/>
    <use xlink:href="#DejaVuSans-64" x="130.371094"/>
    <use xlink:href="#DejaVuSans-3a" x="193.847656"/>
    <use xlink:href="#DejaVuSans-20" x="227.539062"/>
    <use xlink:href="#DejaVuSans-32" x="259.326172"/>
    <use xlink:href="#DejaVuSans-30" x="322.949219"/>
    <use xlink:href="#DejaVuSans-32" x="386.572266"/>
    <use xlink:href="#DejaVuSans-34" x="450.195312"/>
    <use xlink:href="#DejaVuSans-30" x="513.818359"/>
    <use xlink:href="#DejaVuSans-31" x="577.441406"/>
    <use xlink:href="#DejaVuSans-30" x="641.064453"/>
    <use xlink:href="#DejaVuSans-35" x="704.6875"/>
    <use xlink:href="#DejaVuSans-2d" x="768.310547"/>
    <use xlink:href="#DejaVuSans-31" x="804.394531"/>
    <use xlink:href="#DejaVuSans-34" x="868.017578"/>
    <use xlink:href="#DejaVuSans-34" x="931.640625"/>
    <use xlink:href="#DejaVuSans-34" x="995.263672"/>
    <use xlink:href="#DejaVuSans-31" x="1058.886719"/>
    <use xlink:href="#DejaVuSans-37" x="1122.509766"/>
    <use xlink:href="#DejaVuSans-2d" x="1186.132812"/>
    <use xlink:href="#DejaVuSans-31" x="1222.216797"/>
    <use xlink:href="#DejaVuSans-30" x="1285.839844"/>
    <use xlink:href="#DejaVuSans-30" x="1349.462891"/>
    <use xlink:href="#DejaVuSans-2d" x="1413.085938"/>
    <use xlink:href="#DejaVuSans-65" x="1449.169922"/>
    <use xlink:href="#DejaVuSans-30" x="1510.693359"/>
    <use xlink:href="#DejaVuSans-31" x="1574.316406"/>
    <use xlink:href="#DejaVuSans-34" x="1637.939453"/>
    <use xlink:href="#DejaVuSans-37" x="1701.5625"/>
    <use xlink:href="#DejaVuSans-39" x="1765.185547"/>
   </g>
  </g>
 </g>
 <defs>
  <clipPath id="pf8c177f280">
   <rect x="40.603125" y="41.76" width="357.12" height="266.112"/>
  </clipPath>
 </defs>
</svg>
