<?xml version="1.0" encoding="utf-8" standalone="no"?>
<!DOCTYPE svg PUBLIC "-//W3C//DTD SVG 1.1//EN"
  "http://www.w3.org/Graphics/SVG/1.1/DTD/svg11.dtd">
<svg xmlns:xlink="http://www.w3.org/1999/xlink" width="556.024437pt" height="345.42825pt" viewBox="0 0 556.024437 345.42825" xmlns="http://www.w3.org/2000/svg" version="1.1">
 <metadata>
  <rdf:RDF xmlns:dc="http://purl.org/dc/elements/1.1/" xmlns:cc="http://creativecommons.org/ns#" xmlns:rdf="http://www.w3.org/1999/02/22-rdf-syntax-ns#">
   <cc:Work>
    <dc:type rdf:resource="http://purl.org/dc/dcmitype/StillImage"/>
    <dc:date>2024-02-20T14:27:29.683121</dc:date>
    <dc:format>image/svg+xml</dc:format>
    <dc:creator>
     <cc:Agent>
      <dc:title>Matplotlib v3.8.2, https://matplotlib.org/</dc:title>
     </cc:Agent>
    </dc:creator>
   </cc:Work>
  </rdf:RDF>
 </metadata>
 <defs>
  <style type="text/css">*{stroke-linejoin: round; stroke-linecap: butt}</style>
 </defs>
 <g id="figure_1">
  <g id="patch_1">
   <path d="M 0 345.42825 
L 556.024437 345.42825 
L 556.024437 -0 
L 0 -0 
L 0 345.42825 
z
" style="fill: none; opacity: 0"/>
  </g>
  <g id="axes_1">
   <g id="patch_2">
    <path d="M 37.848438 307.872 
L 394.968438 307.872 
L 394.968438 41.76 
L 37.848438 41.76 
z
" style="fill: #ffffff"/>
   </g>
   <g id="matplotlib.axis_1">
    <g id="xtick_1">
     <g id="line2d_1">
      <defs>
       <path id="mdfffe894a6" d="M 0 0 
L 0 3.5 
" style="stroke: #000000; stroke-width: 0.8"/>
      </defs>
      <g>
       <use xlink:href="#mdfffe894a6" x="47.068884" y="307.872" style="stroke: #000000; stroke-width: 0.8"/>
      </g>
     </g>
     <g id="text_1">
      <!-- -8 -->
      <g transform="translate(42.083728 322.470438) scale(0.1 -0.1)">
       <defs>
        <path id="DejaVuSans-2d" d="M 313 2009 
L 1997 2009 
L 1997 1497 
L 313 1497 
L 313 2009 
z
" transform="scale(0.015625)"/>
        <path id="DejaVuSans-38" d="M 2034 2216 
Q 1584 2216 1326 1975 
Q 1069 1734 1069 1313 
Q 1069 891 1326 650 
Q 1584 409 2034 409 
Q 2484 409 2743 651 
Q 3003 894 3003 1313 
Q 3003 1734 2745 1975 
Q 2488 2216 2034 2216 
z
M 1403 2484 
Q 997 2584 770 2862 
Q 544 3141 544 3541 
Q 544 4100 942 4425 
Q 1341 4750 2034 4750 
Q 2731 4750 3128 4425 
Q 3525 4100 3525 3541 
Q 3525 3141 3298 2862 
Q 3072 2584 2669 2484 
Q 3125 2378 3379 2068 
Q 3634 1759 3634 1313 
Q 3634 634 3220 271 
Q 2806 -91 2034 -91 
Q 1263 -91 848 271 
Q 434 634 434 1313 
Q 434 1759 690 2068 
Q 947 2378 1403 2484 
z
M 1172 3481 
Q 1172 3119 1398 2916 
Q 1625 2713 2034 2713 
Q 2441 2713 2670 2916 
Q 2900 3119 2900 3481 
Q 2900 3844 2670 4047 
Q 2441 4250 2034 4250 
Q 1625 4250 1398 4047 
Q 1172 3844 1172 3481 
z
" transform="scale(0.015625)"/>
       </defs>
       <use xlink:href="#DejaVuSans-2d"/>
       <use xlink:href="#DejaVuSans-38" x="36.083984"/>
      </g>
     </g>
    </g>
    <g id="xtick_2">
     <g id="line2d_2">
      <g>
       <use xlink:href="#mdfffe894a6" x="89.019197" y="307.872" style="stroke: #000000; stroke-width: 0.8"/>
      </g>
     </g>
     <g id="text_2">
      <!-- -6 -->
      <g transform="translate(84.034041 322.470438) scale(0.1 -0.1)">
       <defs>
        <path id="DejaVuSans-36" d="M 2113 2584 
Q 1688 2584 1439 2293 
Q 1191 2003 1191 1497 
Q 1191 994 1439 701 
Q 1688 409 2113 409 
Q 2538 409 2786 701 
Q 3034 994 3034 1497 
Q 3034 2003 2786 2293 
Q 2538 2584 2113 2584 
z
M 3366 4563 
L 3366 3988 
Q 3128 4100 2886 4159 
Q 2644 4219 2406 4219 
Q 1781 4219 1451 3797 
Q 1122 3375 1075 2522 
Q 1259 2794 1537 2939 
Q 1816 3084 2150 3084 
Q 2853 3084 3261 2657 
Q 3669 2231 3669 1497 
Q 3669 778 3244 343 
Q 2819 -91 2113 -91 
Q 1303 -91 875 529 
Q 447 1150 447 2328 
Q 447 3434 972 4092 
Q 1497 4750 2381 4750 
Q 2619 4750 2861 4703 
Q 3103 4656 3366 4563 
z
" transform="scale(0.015625)"/>
       </defs>
       <use xlink:href="#DejaVuSans-2d"/>
       <use xlink:href="#DejaVuSans-36" x="36.083984"/>
      </g>
     </g>
    </g>
    <g id="xtick_3">
     <g id="line2d_3">
      <g>
       <use xlink:href="#mdfffe894a6" x="130.969511" y="307.872" style="stroke: #000000; stroke-width: 0.8"/>
      </g>
     </g>
     <g id="text_3">
      <!-- -4 -->
      <g transform="translate(125.984354 322.470438) scale(0.1 -0.1)">
       <defs>
        <path id="DejaVuSans-34" d="M 2419 4116 
L 825 1625 
L 2419 1625 
L 2419 4116 
z
M 2253 4666 
L 3047 4666 
L 3047 1625 
L 3713 1625 
L 3713 1100 
L 3047 1100 
L 3047 0 
L 2419 0 
L 2419 1100 
L 313 1100 
L 313 1709 
L 2253 4666 
z
" transform="scale(0.015625)"/>
       </defs>
       <use xlink:href="#DejaVuSans-2d"/>
       <use xlink:href="#DejaVuSans-34" x="36.083984"/>
      </g>
     </g>
    </g>
    <g id="xtick_4">
     <g id="line2d_4">
      <g>
       <use xlink:href="#mdfffe894a6" x="172.919824" y="307.872" style="stroke: #000000; stroke-width: 0.8"/>
      </g>
     </g>
     <g id="text_4">
      <!-- -2 -->
      <g transform="translate(167.934668 322.470438) scale(0.1 -0.1)">
       <defs>
        <path id="DejaVuSans-32" d="M 1228 531 
L 3431 531 
L 3431 0 
L 469 0 
L 469 531 
Q 828 903 1448 1529 
Q 2069 2156 2228 2338 
Q 2531 2678 2651 2914 
Q 2772 3150 2772 3378 
Q 2772 3750 2511 3984 
Q 2250 4219 1831 4219 
Q 1534 4219 1204 4116 
Q 875 4013 500 3803 
L 500 4441 
Q 881 4594 1212 4672 
Q 1544 4750 1819 4750 
Q 2544 4750 2975 4387 
Q 3406 4025 3406 3419 
Q 3406 3131 3298 2873 
Q 3191 2616 2906 2266 
Q 2828 2175 2409 1742 
Q 1991 1309 1228 531 
z
" transform="scale(0.015625)"/>
       </defs>
       <use xlink:href="#DejaVuSans-2d"/>
       <use xlink:href="#DejaVuSans-32" x="36.083984"/>
      </g>
     </g>
    </g>
    <g id="xtick_5">
     <g id="line2d_5">
      <g>
       <use xlink:href="#mdfffe894a6" x="214.870137" y="307.872" style="stroke: #000000; stroke-width: 0.8"/>
      </g>
     </g>
     <g id="text_5">
      <!-- 0 -->
      <g transform="translate(211.688887 322.470438) scale(0.1 -0.1)">
       <defs>
        <path id="DejaVuSans-30" d="M 2034 4250 
Q 1547 4250 1301 3770 
Q 1056 3291 1056 2328 
Q 1056 1369 1301 889 
Q 1547 409 2034 409 
Q 2525 409 2770 889 
Q 3016 1369 3016 2328 
Q 3016 3291 2770 3770 
Q 2525 4250 2034 4250 
z
M 2034 4750 
Q 2819 4750 3233 4129 
Q 3647 3509 3647 2328 
Q 3647 1150 3233 529 
Q 2819 -91 2034 -91 
Q 1250 -91 836 529 
Q 422 1150 422 2328 
Q 422 3509 836 4129 
Q 1250 4750 2034 4750 
z
" transform="scale(0.015625)"/>
       </defs>
       <use xlink:href="#DejaVuSans-30"/>
      </g>
     </g>
    </g>
    <g id="xtick_6">
     <g id="line2d_6">
      <g>
       <use xlink:href="#mdfffe894a6" x="256.820451" y="307.872" style="stroke: #000000; stroke-width: 0.8"/>
      </g>
     </g>
     <g id="text_6">
      <!-- 2 -->
      <g transform="translate(253.639201 322.470438) scale(0.1 -0.1)">
       <use xlink:href="#DejaVuSans-32"/>
      </g>
     </g>
    </g>
    <g id="xtick_7">
     <g id="line2d_7">
      <g>
       <use xlink:href="#mdfffe894a6" x="298.770764" y="307.872" style="stroke: #000000; stroke-width: 0.8"/>
      </g>
     </g>
     <g id="text_7">
      <!-- 4 -->
      <g transform="translate(295.589514 322.470438) scale(0.1 -0.1)">
       <use xlink:href="#DejaVuSans-34"/>
      </g>
     </g>
    </g>
    <g id="xtick_8">
     <g id="line2d_8">
      <g>
       <use xlink:href="#mdfffe894a6" x="340.721077" y="307.872" style="stroke: #000000; stroke-width: 0.8"/>
      </g>
     </g>
     <g id="text_8">
      <!-- 6 -->
      <g transform="translate(337.539827 322.470438) scale(0.1 -0.1)">
       <use xlink:href="#DejaVuSans-36"/>
      </g>
     </g>
    </g>
    <g id="xtick_9">
     <g id="line2d_9">
      <g>
       <use xlink:href="#mdfffe894a6" x="382.67139" y="307.872" style="stroke: #000000; stroke-width: 0.8"/>
      </g>
     </g>
     <g id="text_9">
      <!-- 8 -->
      <g transform="translate(379.49014 322.470438) scale(0.1 -0.1)">
       <use xlink:href="#DejaVuSans-38"/>
      </g>
     </g>
    </g>
    <g id="text_10">
     <!-- Re$(S_{21})$ [mV] -->
     <g transform="translate(184.408438 336.148562) scale(0.1 -0.1)">
      <defs>
       <path id="DejaVuSans-52" d="M 2841 2188 
Q 3044 2119 3236 1894 
Q 3428 1669 3622 1275 
L 4263 0 
L 3584 0 
L 2988 1197 
Q 2756 1666 2539 1819 
Q 2322 1972 1947 1972 
L 1259 1972 
L 1259 0 
L 628 0 
L 628 4666 
L 2053 4666 
Q 2853 4666 3247 4331 
Q 3641 3997 3641 3322 
Q 3641 2881 3436 2590 
Q 3231 2300 2841 2188 
z
M 1259 4147 
L 1259 2491 
L 2053 2491 
Q 2509 2491 2742 2702 
Q 2975 2913 2975 3322 
Q 2975 3731 2742 3939 
Q 2509 4147 2053 4147 
L 1259 4147 
z
" transform="scale(0.015625)"/>
       <path id="DejaVuSans-65" d="M 3597 1894 
L 3597 1613 
L 953 1613 
Q 991 1019 1311 708 
Q 1631 397 2203 397 
Q 2534 397 2845 478 
Q 3156 559 3463 722 
L 3463 178 
Q 3153 47 2828 -22 
Q 2503 -91 2169 -91 
Q 1331 -91 842 396 
Q 353 884 353 1716 
Q 353 2575 817 3079 
Q 1281 3584 2069 3584 
Q 2775 3584 3186 3129 
Q 3597 2675 3597 1894 
z
M 3022 2063 
Q 3016 2534 2758 2815 
Q 2500 3097 2075 3097 
Q 1594 3097 1305 2825 
Q 1016 2553 972 2059 
L 3022 2063 
z
" transform="scale(0.015625)"/>
       <path id="DejaVuSans-28" d="M 1984 4856 
Q 1566 4138 1362 3434 
Q 1159 2731 1159 2009 
Q 1159 1288 1364 580 
Q 1569 -128 1984 -844 
L 1484 -844 
Q 1016 -109 783 600 
Q 550 1309 550 2009 
Q 550 2706 781 3412 
Q 1013 4119 1484 4856 
L 1984 4856 
z
" transform="scale(0.015625)"/>
       <path id="DejaVuSans-Oblique-53" d="M 3859 4513 
L 3738 3897 
Q 3422 4066 3111 4152 
Q 2800 4238 2509 4238 
Q 1944 4238 1609 3991 
Q 1275 3744 1275 3334 
Q 1275 3109 1398 2989 
Q 1522 2869 2034 2731 
L 2413 2638 
Q 3053 2472 3303 2217 
Q 3553 1963 3553 1503 
Q 3553 797 2998 353 
Q 2444 -91 1538 -91 
Q 1166 -91 791 -17 
Q 416 56 38 206 
L 166 856 
Q 513 641 861 531 
Q 1209 422 1556 422 
Q 2147 422 2503 684 
Q 2859 947 2859 1369 
Q 2859 1650 2717 1795 
Q 2575 1941 2106 2059 
L 1728 2156 
Q 1081 2325 845 2545 
Q 609 2766 609 3163 
Q 609 3859 1145 4304 
Q 1681 4750 2541 4750 
Q 2875 4750 3203 4690 
Q 3531 4631 3859 4513 
z
" transform="scale(0.015625)"/>
       <path id="DejaVuSans-31" d="M 794 531 
L 1825 531 
L 1825 4091 
L 703 3866 
L 703 4441 
L 1819 4666 
L 2450 4666 
L 2450 531 
L 3481 531 
L 3481 0 
L 794 0 
L 794 531 
z
" transform="scale(0.015625)"/>
       <path id="DejaVuSans-29" d="M 513 4856 
L 1013 4856 
Q 1481 4119 1714 3412 
Q 1947 2706 1947 2009 
Q 1947 1309 1714 600 
Q 1481 -109 1013 -844 
L 513 -844 
Q 928 -128 1133 580 
Q 1338 1288 1338 2009 
Q 1338 2731 1133 3434 
Q 928 4138 513 4856 
z
" transform="scale(0.015625)"/>
       <path id="DejaVuSans-20" transform="scale(0.015625)"/>
       <path id="DejaVuSans-5b" d="M 550 4863 
L 1875 4863 
L 1875 4416 
L 1125 4416 
L 1125 -397 
L 1875 -397 
L 1875 -844 
L 550 -844 
L 550 4863 
z
" transform="scale(0.015625)"/>
       <path id="DejaVuSans-6d" d="M 3328 2828 
Q 3544 3216 3844 3400 
Q 4144 3584 4550 3584 
Q 5097 3584 5394 3201 
Q 5691 2819 5691 2113 
L 5691 0 
L 5113 0 
L 5113 2094 
Q 5113 2597 4934 2840 
Q 4756 3084 4391 3084 
Q 3944 3084 3684 2787 
Q 3425 2491 3425 1978 
L 3425 0 
L 2847 0 
L 2847 2094 
Q 2847 2600 2669 2842 
Q 2491 3084 2119 3084 
Q 1678 3084 1418 2786 
Q 1159 2488 1159 1978 
L 1159 0 
L 581 0 
L 581 3500 
L 1159 3500 
L 1159 2956 
Q 1356 3278 1631 3431 
Q 1906 3584 2284 3584 
Q 2666 3584 2933 3390 
Q 3200 3197 3328 2828 
z
" transform="scale(0.015625)"/>
       <path id="DejaVuSans-56" d="M 1831 0 
L 50 4666 
L 709 4666 
L 2188 738 
L 3669 4666 
L 4325 4666 
L 2547 0 
L 1831 0 
z
" transform="scale(0.015625)"/>
       <path id="DejaVuSans-5d" d="M 1947 4863 
L 1947 -844 
L 622 -844 
L 622 -397 
L 1369 -397 
L 1369 4416 
L 622 4416 
L 622 4863 
L 1947 4863 
z
" transform="scale(0.015625)"/>
      </defs>
      <use xlink:href="#DejaVuSans-52" transform="translate(0 0.015625)"/>
      <use xlink:href="#DejaVuSans-65" transform="translate(69.482422 0.015625)"/>
      <use xlink:href="#DejaVuSans-28" transform="translate(131.005859 0.015625)"/>
      <use xlink:href="#DejaVuSans-Oblique-53" transform="translate(170.019531 0.015625)"/>
      <use xlink:href="#DejaVuSans-32" transform="translate(233.496094 -16.390625) scale(0.7)"/>
      <use xlink:href="#DejaVuSans-31" transform="translate(278.032227 -16.390625) scale(0.7)"/>
      <use xlink:href="#DejaVuSans-29" transform="translate(325.302734 0.015625)"/>
      <use xlink:href="#DejaVuSans-20" transform="translate(364.316406 0.015625)"/>
      <use xlink:href="#DejaVuSans-5b" transform="translate(396.103516 0.015625)"/>
      <use xlink:href="#DejaVuSans-6d" transform="translate(435.117188 0.015625)"/>
      <use xlink:href="#DejaVuSans-56" transform="translate(532.529297 0.015625)"/>
      <use xlink:href="#DejaVuSans-5d" transform="translate(600.9375 0.015625)"/>
     </g>
    </g>
   </g>
   <g id="matplotlib.axis_2">
    <g id="ytick_1">
     <g id="line2d_10">
      <defs>
       <path id="m6d861d51c2" d="M 0 0 
L -3.5 0 
" style="stroke: #000000; stroke-width: 0.8"/>
      </defs>
      <g>
       <use xlink:href="#m6d861d51c2" x="37.848438" y="299.467607" style="stroke: #000000; stroke-width: 0.8"/>
      </g>
     </g>
     <g id="text_11">
      <!-- -8 -->
      <g transform="translate(20.878125 303.266825) scale(0.1 -0.1)">
       <use xlink:href="#DejaVuSans-2d"/>
       <use xlink:href="#DejaVuSans-38" x="36.083984"/>
      </g>
     </g>
    </g>
    <g id="ytick_2">
     <g id="line2d_11">
      <g>
       <use xlink:href="#m6d861d51c2" x="37.848438" y="268.090086" style="stroke: #000000; stroke-width: 0.8"/>
      </g>
     </g>
     <g id="text_12">
      <!-- -6 -->
      <g transform="translate(20.878125 271.889305) scale(0.1 -0.1)">
       <use xlink:href="#DejaVuSans-2d"/>
       <use xlink:href="#DejaVuSans-36" x="36.083984"/>
      </g>
     </g>
    </g>
    <g id="ytick_3">
     <g id="line2d_12">
      <g>
       <use xlink:href="#m6d861d51c2" x="37.848438" y="236.712566" style="stroke: #000000; stroke-width: 0.8"/>
      </g>
     </g>
     <g id="text_13">
      <!-- -4 -->
      <g transform="translate(20.878125 240.511785) scale(0.1 -0.1)">
       <use xlink:href="#DejaVuSans-2d"/>
       <use xlink:href="#DejaVuSans-34" x="36.083984"/>
      </g>
     </g>
    </g>
    <g id="ytick_4">
     <g id="line2d_13">
      <g>
       <use xlink:href="#m6d861d51c2" x="37.848438" y="205.335046" style="stroke: #000000; stroke-width: 0.8"/>
      </g>
     </g>
     <g id="text_14">
      <!-- -2 -->
      <g transform="translate(20.878125 209.134265) scale(0.1 -0.1)">
       <use xlink:href="#DejaVuSans-2d"/>
       <use xlink:href="#DejaVuSans-32" x="36.083984"/>
      </g>
     </g>
    </g>
    <g id="ytick_5">
     <g id="line2d_14">
      <g>
       <use xlink:href="#m6d861d51c2" x="37.848438" y="173.957526" style="stroke: #000000; stroke-width: 0.8"/>
      </g>
     </g>
     <g id="text_15">
      <!-- 0 -->
      <g transform="translate(24.485938 177.756744) scale(0.1 -0.1)">
       <use xlink:href="#DejaVuSans-30"/>
      </g>
     </g>
    </g>
    <g id="ytick_6">
     <g id="line2d_15">
      <g>
       <use xlink:href="#m6d861d51c2" x="37.848438" y="142.580005" style="stroke: #000000; stroke-width: 0.8"/>
      </g>
     </g>
     <g id="text_16">
      <!-- 2 -->
      <g transform="translate(24.485938 146.379224) scale(0.1 -0.1)">
       <use xlink:href="#DejaVuSans-32"/>
      </g>
     </g>
    </g>
    <g id="ytick_7">
     <g id="line2d_16">
      <g>
       <use xlink:href="#m6d861d51c2" x="37.848438" y="111.202485" style="stroke: #000000; stroke-width: 0.8"/>
      </g>
     </g>
     <g id="text_17">
      <!-- 4 -->
      <g transform="translate(24.485938 115.001704) scale(0.1 -0.1)">
       <use xlink:href="#DejaVuSans-34"/>
      </g>
     </g>
    </g>
    <g id="ytick_8">
     <g id="line2d_17">
      <g>
       <use xlink:href="#m6d861d51c2" x="37.848438" y="79.824965" style="stroke: #000000; stroke-width: 0.8"/>
      </g>
     </g>
     <g id="text_18">
      <!-- 6 -->
      <g transform="translate(24.485938 83.624184) scale(0.1 -0.1)">
       <use xlink:href="#DejaVuSans-36"/>
      </g>
     </g>
    </g>
    <g id="ytick_9">
     <g id="line2d_18">
      <g>
       <use xlink:href="#m6d861d51c2" x="37.848438" y="48.447445" style="stroke: #000000; stroke-width: 0.8"/>
      </g>
     </g>
     <g id="text_19">
      <!-- 8 -->
      <g transform="translate(24.485938 52.246663) scale(0.1 -0.1)">
       <use xlink:href="#DejaVuSans-38"/>
      </g>
     </g>
    </g>
    <g id="text_20">
     <!-- Im$(S_{21})$ [mV] -->
     <g transform="translate(14.798438 206.466) rotate(-90) scale(0.1 -0.1)">
      <defs>
       <path id="DejaVuSans-49" d="M 628 4666 
L 1259 4666 
L 1259 0 
L 628 0 
L 628 4666 
z
" transform="scale(0.015625)"/>
      </defs>
      <use xlink:href="#DejaVuSans-49" transform="translate(0 0.015625)"/>
      <use xlink:href="#DejaVuSans-6d" transform="translate(25.867188 0.015625)"/>
      <use xlink:href="#DejaVuSans-28" transform="translate(123.279297 0.015625)"/>
      <use xlink:href="#DejaVuSans-Oblique-53" transform="translate(162.292969 0.015625)"/>
      <use xlink:href="#DejaVuSans-32" transform="translate(225.769531 -16.390625) scale(0.7)"/>
      <use xlink:href="#DejaVuSans-31" transform="translate(270.305664 -16.390625) scale(0.7)"/>
      <use xlink:href="#DejaVuSans-29" transform="translate(317.576172 0.015625)"/>
      <use xlink:href="#DejaVuSans-20" transform="translate(356.589844 0.015625)"/>
      <use xlink:href="#DejaVuSans-5b" transform="translate(388.376953 0.015625)"/>
      <use xlink:href="#DejaVuSans-6d" transform="translate(427.390625 0.015625)"/>
      <use xlink:href="#DejaVuSans-56" transform="translate(524.802734 0.015625)"/>
      <use xlink:href="#DejaVuSans-5d" transform="translate(593.210938 0.015625)"/>
     </g>
    </g>
   </g>
   <g id="line2d_19">
    <path d="M 294.619035 67.538478 
L 303.620723 71.030441 
L 320.128469 80.413826 
L 328.523153 85.796811 
L 335.488518 91.373375 
L 342.135143 98.598885 
L 349.026947 104.328881 
L 354.950441 111.734485 
L 360.151122 117.467527 
L 365.225424 125.849736 
L 369.403958 133.138748 
L 372.327964 140.626372 
L 375.033995 148.796429 
L 375.944319 156.055769 
L 377.301674 164.756014 
L 378.73571 172.999059 
L 377.352784 180.753824 
L 377.13834 187.866807 
L 374.737965 196.895547 
L 372.180087 204.476061 
L 369.210586 212.200749 
L 365.030843 219.181488 
L 361.529175 226.991655 
L 356.319605 233.035752 
L 345.404183 247.494523 
L 338.305676 253.185638 
L 330.310939 260.067845 
L 313.96125 270.393245 
L 296.322762 278.484312 
L 286.580207 282.645608 
L 277.194434 285.910019 
L 266.770104 288.653368 
L 256.136816 291.635259 
L 246.339072 292.800186 
L 235.963752 293.587728 
L 226.189703 294.717472 
L 215.090525 295.776 
L 204.75819 295.265456 
L 194.300179 294.107266 
L 182.798226 292.017526 
L 172.116405 289.358121 
L 162.219902 287.975973 
L 152.343108 285.813204 
L 142.837253 282.53087 
L 133.335087 278.088437 
L 123.902456 273.316072 
L 116.122732 269.720614 
L 108.41823 263.897007 
L 99.542178 258.84262 
L 92.019152 252.370094 
L 85.689471 246.372271 
L 80.558842 239.46512 
L 73.898072 232.630043 
L 70.21709 225.469837 
L 65.213973 219.042634 
L 62.522425 209.669052 
L 59.029176 202.622404 
L 55.116709 195.253435 
L 54.521233 187.14576 
L 54.081165 179.303124 
L 54.864034 171.686411 
L 54.57384 163.531306 
L 56.537492 155.839353 
L 58.400197 147.679033 
L 61.410015 140.182093 
L 65.238339 132.649308 
L 68.955174 124.648576 
L 73.411304 118.069594 
L 79.764491 110.736973 
L 85.752309 105.179772 
L 90.843857 97.799141 
L 98.045677 92.743551 
L 113.574128 81.614449 
L 122.739902 76.078313 
L 131.364657 71.694206 
L 141.899232 68.471752 
L 150.054546 64.840681 
L 159.847695 62.720469 
L 170.068606 59.772078 
L 180.805258 58.429777 
L 190.434966 56.428379 
L 212.140339 55.487919 
L 223.369574 54.7373 
L 243.866242 57.956592 
L 254.661726 59.184044 
L 264.445268 61.805255 
L 273.593495 63.944924 
L 284.261012 67.584072 
L 293.53321 71.545082 
L 302.065723 75.689509 
L 311.344212 79.807249 
L 319.613081 86.240817 
L 327.744792 90.236013 
L 334.625678 95.638453 
L 339.72258 103.249096 
L 345.138125 109.363014 
L 350.88288 115.551836 
L 357.45336 123.647611 
L 359.920626 130.022283 
L 365.190344 137.437292 
L 367.033284 145.589707 
L 369.564961 153.335896 
L 370.928833 161.710149 
L 371.322745 167.214279 
L 370.650044 192.458103 
L 366.81825 199.993563 
L 364.421718 207.895142 
L 361.769416 214.820254 
L 356.658661 222.612789 
L 351.811832 228.521029 
L 345.81265 236.996359 
L 341.124795 243.012358 
L 334.446175 248.721339 
L 326.373102 253.675822 
L 319.693908 259.512565 
L 310.551896 265.106152 
L 302.01388 268.829171 
L 293.257531 273.524015 
L 284.06329 277.130445 
L 274.770031 280.94286 
L 265.287057 283.157083 
L 255.513976 286.037143 
L 244.648824 286.733108 
L 233.748721 287.982315 
L 224.315357 289.752168 
L 213.815257 288.90471 
L 203.22787 289.140616 
L 193.124587 287.92568 
L 182.850351 286.494895 
L 171.609778 283.983483 
L 163.080903 281.29913 
L 152.121665 278.675083 
L 143.544045 275.001572 
L 133.951733 271.018976 
L 125.254723 266.49232 
L 117.583549 261.011512 
L 108.964081 256.529812 
L 102.323287 250.089261 
L 95.376996 244.817186 
L 89.918972 238.990935 
L 85.147867 231.758413 
L 79.925647 225.761689 
L 74.887685 217.854607 
L 72.04218 210.868365 
L 69.88032 202.983878 
L 66.986788 195.53407 
L 65.440339 187.96076 
L 64.134454 179.163546 
L 65.964908 171.431133 
L 66.305803 163.965705 
L 66.20958 157.134457 
L 68.651854 149.868117 
L 72.590762 141.060123 
L 75.315821 133.897672 
L 79.419113 127.454596 
L 84.423071 120.362797 
L 90.406683 114.282713 
L 96.738081 107.490748 
L 110.280859 96.393043 
L 118.388331 90.763349 
L 127.451238 86.999775 
L 135.656449 82.613276 
L 145.29211 78.074917 
L 153.199293 75.038985 
L 164.078555 73.291167 
L 174.648901 70.430954 
L 193.62631 67.332604 
L 203.766097 67.432653 
L 213.856972 67.763642 
L 224.806813 67.831555 
L 244.275109 71.396567 
L 254.183688 72.868222 
L 263.230595 76.478327 
L 273.30616 79.275168 
L 281.926945 82.83203 
L 290.088238 87.618834 
L 297.565302 92.172904 
L 305.206725 97.760188 
L 311.805548 102.92033 
L 318.305228 108.53594 
L 323.754676 114.736338 
L 328.070639 122.067848 
L 332.044248 129.071703 
L 335.834542 135.42846 
L 337.180595 142.576932 
L 340.192917 150.186854 
L 339.697188 157.583974 
L 341.402626 165.547097 
L 341.402626 165.547097 
" clip-path="url(#p3e13ab9e3f)" style="fill: none; stroke: #1f77b4; stroke-width: 1.5; stroke-linecap: square"/>
    <defs>
     <path id="m801ab94046" d="M 0 1.5 
C 0.397805 1.5 0.77937 1.341951 1.06066 1.06066 
C 1.341951 0.77937 1.5 0.397805 1.5 0 
C 1.5 -0.397805 1.341951 -0.77937 1.06066 -1.06066 
C 0.77937 -1.341951 0.397805 -1.5 0 -1.5 
C -0.397805 -1.5 -0.77937 -1.341951 -1.06066 -1.06066 
C -1.341951 -0.77937 -1.5 -0.397805 -1.5 0 
C -1.5 0.397805 -1.341951 0.77937 -1.06066 1.06066 
C -0.77937 1.341951 -0.397805 1.5 0 1.5 
z
" style="stroke: #1f77b4"/>
    </defs>
    <g clip-path="url(#p3e13ab9e3f)">
     <use xlink:href="#m801ab94046" x="294.619035" y="67.538478" style="fill: #1f77b4; stroke: #1f77b4"/>
     <use xlink:href="#m801ab94046" x="303.620723" y="71.030441" style="fill: #1f77b4; stroke: #1f77b4"/>
     <use xlink:href="#m801ab94046" x="312.929353" y="76.346942" style="fill: #1f77b4; stroke: #1f77b4"/>
     <use xlink:href="#m801ab94046" x="320.128469" y="80.413826" style="fill: #1f77b4; stroke: #1f77b4"/>
     <use xlink:href="#m801ab94046" x="328.523153" y="85.796811" style="fill: #1f77b4; stroke: #1f77b4"/>
     <use xlink:href="#m801ab94046" x="335.488518" y="91.373375" style="fill: #1f77b4; stroke: #1f77b4"/>
     <use xlink:href="#m801ab94046" x="342.135143" y="98.598885" style="fill: #1f77b4; stroke: #1f77b4"/>
     <use xlink:href="#m801ab94046" x="349.026947" y="104.328881" style="fill: #1f77b4; stroke: #1f77b4"/>
     <use xlink:href="#m801ab94046" x="354.950441" y="111.734485" style="fill: #1f77b4; stroke: #1f77b4"/>
     <use xlink:href="#m801ab94046" x="360.151122" y="117.467527" style="fill: #1f77b4; stroke: #1f77b4"/>
     <use xlink:href="#m801ab94046" x="365.225424" y="125.849736" style="fill: #1f77b4; stroke: #1f77b4"/>
     <use xlink:href="#m801ab94046" x="369.403958" y="133.138748" style="fill: #1f77b4; stroke: #1f77b4"/>
     <use xlink:href="#m801ab94046" x="372.327964" y="140.626372" style="fill: #1f77b4; stroke: #1f77b4"/>
     <use xlink:href="#m801ab94046" x="375.033995" y="148.796429" style="fill: #1f77b4; stroke: #1f77b4"/>
     <use xlink:href="#m801ab94046" x="375.944319" y="156.055769" style="fill: #1f77b4; stroke: #1f77b4"/>
     <use xlink:href="#m801ab94046" x="377.301674" y="164.756014" style="fill: #1f77b4; stroke: #1f77b4"/>
     <use xlink:href="#m801ab94046" x="378.73571" y="172.999059" style="fill: #1f77b4; stroke: #1f77b4"/>
     <use xlink:href="#m801ab94046" x="377.352784" y="180.753824" style="fill: #1f77b4; stroke: #1f77b4"/>
     <use xlink:href="#m801ab94046" x="377.13834" y="187.866807" style="fill: #1f77b4; stroke: #1f77b4"/>
     <use xlink:href="#m801ab94046" x="374.737965" y="196.895547" style="fill: #1f77b4; stroke: #1f77b4"/>
     <use xlink:href="#m801ab94046" x="372.180087" y="204.476061" style="fill: #1f77b4; stroke: #1f77b4"/>
     <use xlink:href="#m801ab94046" x="369.210586" y="212.200749" style="fill: #1f77b4; stroke: #1f77b4"/>
     <use xlink:href="#m801ab94046" x="365.030843" y="219.181488" style="fill: #1f77b4; stroke: #1f77b4"/>
     <use xlink:href="#m801ab94046" x="361.529175" y="226.991655" style="fill: #1f77b4; stroke: #1f77b4"/>
     <use xlink:href="#m801ab94046" x="356.319605" y="233.035752" style="fill: #1f77b4; stroke: #1f77b4"/>
     <use xlink:href="#m801ab94046" x="350.432339" y="240.842124" style="fill: #1f77b4; stroke: #1f77b4"/>
     <use xlink:href="#m801ab94046" x="345.404183" y="247.494523" style="fill: #1f77b4; stroke: #1f77b4"/>
     <use xlink:href="#m801ab94046" x="338.305676" y="253.185638" style="fill: #1f77b4; stroke: #1f77b4"/>
     <use xlink:href="#m801ab94046" x="330.310939" y="260.067845" style="fill: #1f77b4; stroke: #1f77b4"/>
     <use xlink:href="#m801ab94046" x="322.153714" y="265.177208" style="fill: #1f77b4; stroke: #1f77b4"/>
     <use xlink:href="#m801ab94046" x="313.96125" y="270.393245" style="fill: #1f77b4; stroke: #1f77b4"/>
     <use xlink:href="#m801ab94046" x="305.360519" y="274.397612" style="fill: #1f77b4; stroke: #1f77b4"/>
     <use xlink:href="#m801ab94046" x="296.322762" y="278.484312" style="fill: #1f77b4; stroke: #1f77b4"/>
     <use xlink:href="#m801ab94046" x="286.580207" y="282.645608" style="fill: #1f77b4; stroke: #1f77b4"/>
     <use xlink:href="#m801ab94046" x="277.194434" y="285.910019" style="fill: #1f77b4; stroke: #1f77b4"/>
     <use xlink:href="#m801ab94046" x="266.770104" y="288.653368" style="fill: #1f77b4; stroke: #1f77b4"/>
     <use xlink:href="#m801ab94046" x="256.136816" y="291.635259" style="fill: #1f77b4; stroke: #1f77b4"/>
     <use xlink:href="#m801ab94046" x="246.339072" y="292.800186" style="fill: #1f77b4; stroke: #1f77b4"/>
     <use xlink:href="#m801ab94046" x="235.963752" y="293.587728" style="fill: #1f77b4; stroke: #1f77b4"/>
     <use xlink:href="#m801ab94046" x="226.189703" y="294.717472" style="fill: #1f77b4; stroke: #1f77b4"/>
     <use xlink:href="#m801ab94046" x="215.090525" y="295.776" style="fill: #1f77b4; stroke: #1f77b4"/>
     <use xlink:href="#m801ab94046" x="204.75819" y="295.265456" style="fill: #1f77b4; stroke: #1f77b4"/>
     <use xlink:href="#m801ab94046" x="194.300179" y="294.107266" style="fill: #1f77b4; stroke: #1f77b4"/>
     <use xlink:href="#m801ab94046" x="182.798226" y="292.017526" style="fill: #1f77b4; stroke: #1f77b4"/>
     <use xlink:href="#m801ab94046" x="172.116405" y="289.358121" style="fill: #1f77b4; stroke: #1f77b4"/>
     <use xlink:href="#m801ab94046" x="162.219902" y="287.975973" style="fill: #1f77b4; stroke: #1f77b4"/>
     <use xlink:href="#m801ab94046" x="152.343108" y="285.813204" style="fill: #1f77b4; stroke: #1f77b4"/>
     <use xlink:href="#m801ab94046" x="142.837253" y="282.53087" style="fill: #1f77b4; stroke: #1f77b4"/>
     <use xlink:href="#m801ab94046" x="133.335087" y="278.088437" style="fill: #1f77b4; stroke: #1f77b4"/>
     <use xlink:href="#m801ab94046" x="123.902456" y="273.316072" style="fill: #1f77b4; stroke: #1f77b4"/>
     <use xlink:href="#m801ab94046" x="116.122732" y="269.720614" style="fill: #1f77b4; stroke: #1f77b4"/>
     <use xlink:href="#m801ab94046" x="108.41823" y="263.897007" style="fill: #1f77b4; stroke: #1f77b4"/>
     <use xlink:href="#m801ab94046" x="99.542178" y="258.84262" style="fill: #1f77b4; stroke: #1f77b4"/>
     <use xlink:href="#m801ab94046" x="92.019152" y="252.370094" style="fill: #1f77b4; stroke: #1f77b4"/>
     <use xlink:href="#m801ab94046" x="85.689471" y="246.372271" style="fill: #1f77b4; stroke: #1f77b4"/>
     <use xlink:href="#m801ab94046" x="80.558842" y="239.46512" style="fill: #1f77b4; stroke: #1f77b4"/>
     <use xlink:href="#m801ab94046" x="73.898072" y="232.630043" style="fill: #1f77b4; stroke: #1f77b4"/>
     <use xlink:href="#m801ab94046" x="70.21709" y="225.469837" style="fill: #1f77b4; stroke: #1f77b4"/>
     <use xlink:href="#m801ab94046" x="65.213973" y="219.042634" style="fill: #1f77b4; stroke: #1f77b4"/>
     <use xlink:href="#m801ab94046" x="62.522425" y="209.669052" style="fill: #1f77b4; stroke: #1f77b4"/>
     <use xlink:href="#m801ab94046" x="59.029176" y="202.622404" style="fill: #1f77b4; stroke: #1f77b4"/>
     <use xlink:href="#m801ab94046" x="55.116709" y="195.253435" style="fill: #1f77b4; stroke: #1f77b4"/>
     <use xlink:href="#m801ab94046" x="54.521233" y="187.14576" style="fill: #1f77b4; stroke: #1f77b4"/>
     <use xlink:href="#m801ab94046" x="54.081165" y="179.303124" style="fill: #1f77b4; stroke: #1f77b4"/>
     <use xlink:href="#m801ab94046" x="54.864034" y="171.686411" style="fill: #1f77b4; stroke: #1f77b4"/>
     <use xlink:href="#m801ab94046" x="54.57384" y="163.531306" style="fill: #1f77b4; stroke: #1f77b4"/>
     <use xlink:href="#m801ab94046" x="56.537492" y="155.839353" style="fill: #1f77b4; stroke: #1f77b4"/>
     <use xlink:href="#m801ab94046" x="58.400197" y="147.679033" style="fill: #1f77b4; stroke: #1f77b4"/>
     <use xlink:href="#m801ab94046" x="61.410015" y="140.182093" style="fill: #1f77b4; stroke: #1f77b4"/>
     <use xlink:href="#m801ab94046" x="65.238339" y="132.649308" style="fill: #1f77b4; stroke: #1f77b4"/>
     <use xlink:href="#m801ab94046" x="68.955174" y="124.648576" style="fill: #1f77b4; stroke: #1f77b4"/>
     <use xlink:href="#m801ab94046" x="73.411304" y="118.069594" style="fill: #1f77b4; stroke: #1f77b4"/>
     <use xlink:href="#m801ab94046" x="79.764491" y="110.736973" style="fill: #1f77b4; stroke: #1f77b4"/>
     <use xlink:href="#m801ab94046" x="85.752309" y="105.179772" style="fill: #1f77b4; stroke: #1f77b4"/>
     <use xlink:href="#m801ab94046" x="90.843857" y="97.799141" style="fill: #1f77b4; stroke: #1f77b4"/>
     <use xlink:href="#m801ab94046" x="98.045677" y="92.743551" style="fill: #1f77b4; stroke: #1f77b4"/>
     <use xlink:href="#m801ab94046" x="106.593679" y="86.57468" style="fill: #1f77b4; stroke: #1f77b4"/>
     <use xlink:href="#m801ab94046" x="113.574128" y="81.614449" style="fill: #1f77b4; stroke: #1f77b4"/>
     <use xlink:href="#m801ab94046" x="122.739902" y="76.078313" style="fill: #1f77b4; stroke: #1f77b4"/>
     <use xlink:href="#m801ab94046" x="131.364657" y="71.694206" style="fill: #1f77b4; stroke: #1f77b4"/>
     <use xlink:href="#m801ab94046" x="141.899232" y="68.471752" style="fill: #1f77b4; stroke: #1f77b4"/>
     <use xlink:href="#m801ab94046" x="150.054546" y="64.840681" style="fill: #1f77b4; stroke: #1f77b4"/>
     <use xlink:href="#m801ab94046" x="159.847695" y="62.720469" style="fill: #1f77b4; stroke: #1f77b4"/>
     <use xlink:href="#m801ab94046" x="170.068606" y="59.772078" style="fill: #1f77b4; stroke: #1f77b4"/>
     <use xlink:href="#m801ab94046" x="180.805258" y="58.429777" style="fill: #1f77b4; stroke: #1f77b4"/>
     <use xlink:href="#m801ab94046" x="190.434966" y="56.428379" style="fill: #1f77b4; stroke: #1f77b4"/>
     <use xlink:href="#m801ab94046" x="202.338767" y="55.922752" style="fill: #1f77b4; stroke: #1f77b4"/>
     <use xlink:href="#m801ab94046" x="212.140339" y="55.487919" style="fill: #1f77b4; stroke: #1f77b4"/>
     <use xlink:href="#m801ab94046" x="223.369574" y="54.7373" style="fill: #1f77b4; stroke: #1f77b4"/>
     <use xlink:href="#m801ab94046" x="234.326614" y="56.409008" style="fill: #1f77b4; stroke: #1f77b4"/>
     <use xlink:href="#m801ab94046" x="243.866242" y="57.956592" style="fill: #1f77b4; stroke: #1f77b4"/>
     <use xlink:href="#m801ab94046" x="254.661726" y="59.184044" style="fill: #1f77b4; stroke: #1f77b4"/>
     <use xlink:href="#m801ab94046" x="264.445268" y="61.805255" style="fill: #1f77b4; stroke: #1f77b4"/>
     <use xlink:href="#m801ab94046" x="273.593495" y="63.944924" style="fill: #1f77b4; stroke: #1f77b4"/>
     <use xlink:href="#m801ab94046" x="284.261012" y="67.584072" style="fill: #1f77b4; stroke: #1f77b4"/>
     <use xlink:href="#m801ab94046" x="293.53321" y="71.545082" style="fill: #1f77b4; stroke: #1f77b4"/>
     <use xlink:href="#m801ab94046" x="302.065723" y="75.689509" style="fill: #1f77b4; stroke: #1f77b4"/>
     <use xlink:href="#m801ab94046" x="311.344212" y="79.807249" style="fill: #1f77b4; stroke: #1f77b4"/>
     <use xlink:href="#m801ab94046" x="319.613081" y="86.240817" style="fill: #1f77b4; stroke: #1f77b4"/>
     <use xlink:href="#m801ab94046" x="327.744792" y="90.236013" style="fill: #1f77b4; stroke: #1f77b4"/>
     <use xlink:href="#m801ab94046" x="334.625678" y="95.638453" style="fill: #1f77b4; stroke: #1f77b4"/>
     <use xlink:href="#m801ab94046" x="339.72258" y="103.249096" style="fill: #1f77b4; stroke: #1f77b4"/>
     <use xlink:href="#m801ab94046" x="345.138125" y="109.363014" style="fill: #1f77b4; stroke: #1f77b4"/>
     <use xlink:href="#m801ab94046" x="350.88288" y="115.551836" style="fill: #1f77b4; stroke: #1f77b4"/>
     <use xlink:href="#m801ab94046" x="357.45336" y="123.647611" style="fill: #1f77b4; stroke: #1f77b4"/>
     <use xlink:href="#m801ab94046" x="359.920626" y="130.022283" style="fill: #1f77b4; stroke: #1f77b4"/>
     <use xlink:href="#m801ab94046" x="365.190344" y="137.437292" style="fill: #1f77b4; stroke: #1f77b4"/>
     <use xlink:href="#m801ab94046" x="367.033284" y="145.589707" style="fill: #1f77b4; stroke: #1f77b4"/>
     <use xlink:href="#m801ab94046" x="369.564961" y="153.335896" style="fill: #1f77b4; stroke: #1f77b4"/>
     <use xlink:href="#m801ab94046" x="370.928833" y="161.710149" style="fill: #1f77b4; stroke: #1f77b4"/>
     <use xlink:href="#m801ab94046" x="371.322745" y="167.214279" style="fill: #1f77b4; stroke: #1f77b4"/>
     <use xlink:href="#m801ab94046" x="371.094718" y="176.473928" style="fill: #1f77b4; stroke: #1f77b4"/>
     <use xlink:href="#m801ab94046" x="370.95965" y="184.98649" style="fill: #1f77b4; stroke: #1f77b4"/>
     <use xlink:href="#m801ab94046" x="370.650044" y="192.458103" style="fill: #1f77b4; stroke: #1f77b4"/>
     <use xlink:href="#m801ab94046" x="366.81825" y="199.993563" style="fill: #1f77b4; stroke: #1f77b4"/>
     <use xlink:href="#m801ab94046" x="364.421718" y="207.895142" style="fill: #1f77b4; stroke: #1f77b4"/>
     <use xlink:href="#m801ab94046" x="361.769416" y="214.820254" style="fill: #1f77b4; stroke: #1f77b4"/>
     <use xlink:href="#m801ab94046" x="356.658661" y="222.612789" style="fill: #1f77b4; stroke: #1f77b4"/>
     <use xlink:href="#m801ab94046" x="351.811832" y="228.521029" style="fill: #1f77b4; stroke: #1f77b4"/>
     <use xlink:href="#m801ab94046" x="345.81265" y="236.996359" style="fill: #1f77b4; stroke: #1f77b4"/>
     <use xlink:href="#m801ab94046" x="341.124795" y="243.012358" style="fill: #1f77b4; stroke: #1f77b4"/>
     <use xlink:href="#m801ab94046" x="334.446175" y="248.721339" style="fill: #1f77b4; stroke: #1f77b4"/>
     <use xlink:href="#m801ab94046" x="326.373102" y="253.675822" style="fill: #1f77b4; stroke: #1f77b4"/>
     <use xlink:href="#m801ab94046" x="319.693908" y="259.512565" style="fill: #1f77b4; stroke: #1f77b4"/>
     <use xlink:href="#m801ab94046" x="310.551896" y="265.106152" style="fill: #1f77b4; stroke: #1f77b4"/>
     <use xlink:href="#m801ab94046" x="302.01388" y="268.829171" style="fill: #1f77b4; stroke: #1f77b4"/>
     <use xlink:href="#m801ab94046" x="293.257531" y="273.524015" style="fill: #1f77b4; stroke: #1f77b4"/>
     <use xlink:href="#m801ab94046" x="284.06329" y="277.130445" style="fill: #1f77b4; stroke: #1f77b4"/>
     <use xlink:href="#m801ab94046" x="274.770031" y="280.94286" style="fill: #1f77b4; stroke: #1f77b4"/>
     <use xlink:href="#m801ab94046" x="265.287057" y="283.157083" style="fill: #1f77b4; stroke: #1f77b4"/>
     <use xlink:href="#m801ab94046" x="255.513976" y="286.037143" style="fill: #1f77b4; stroke: #1f77b4"/>
     <use xlink:href="#m801ab94046" x="244.648824" y="286.733108" style="fill: #1f77b4; stroke: #1f77b4"/>
     <use xlink:href="#m801ab94046" x="233.748721" y="287.982315" style="fill: #1f77b4; stroke: #1f77b4"/>
     <use xlink:href="#m801ab94046" x="224.315357" y="289.752168" style="fill: #1f77b4; stroke: #1f77b4"/>
     <use xlink:href="#m801ab94046" x="213.815257" y="288.90471" style="fill: #1f77b4; stroke: #1f77b4"/>
     <use xlink:href="#m801ab94046" x="203.22787" y="289.140616" style="fill: #1f77b4; stroke: #1f77b4"/>
     <use xlink:href="#m801ab94046" x="193.124587" y="287.92568" style="fill: #1f77b4; stroke: #1f77b4"/>
     <use xlink:href="#m801ab94046" x="182.850351" y="286.494895" style="fill: #1f77b4; stroke: #1f77b4"/>
     <use xlink:href="#m801ab94046" x="171.609778" y="283.983483" style="fill: #1f77b4; stroke: #1f77b4"/>
     <use xlink:href="#m801ab94046" x="163.080903" y="281.29913" style="fill: #1f77b4; stroke: #1f77b4"/>
     <use xlink:href="#m801ab94046" x="152.121665" y="278.675083" style="fill: #1f77b4; stroke: #1f77b4"/>
     <use xlink:href="#m801ab94046" x="143.544045" y="275.001572" style="fill: #1f77b4; stroke: #1f77b4"/>
     <use xlink:href="#m801ab94046" x="133.951733" y="271.018976" style="fill: #1f77b4; stroke: #1f77b4"/>
     <use xlink:href="#m801ab94046" x="125.254723" y="266.49232" style="fill: #1f77b4; stroke: #1f77b4"/>
     <use xlink:href="#m801ab94046" x="117.583549" y="261.011512" style="fill: #1f77b4; stroke: #1f77b4"/>
     <use xlink:href="#m801ab94046" x="108.964081" y="256.529812" style="fill: #1f77b4; stroke: #1f77b4"/>
     <use xlink:href="#m801ab94046" x="102.323287" y="250.089261" style="fill: #1f77b4; stroke: #1f77b4"/>
     <use xlink:href="#m801ab94046" x="95.376996" y="244.817186" style="fill: #1f77b4; stroke: #1f77b4"/>
     <use xlink:href="#m801ab94046" x="89.918972" y="238.990935" style="fill: #1f77b4; stroke: #1f77b4"/>
     <use xlink:href="#m801ab94046" x="85.147867" y="231.758413" style="fill: #1f77b4; stroke: #1f77b4"/>
     <use xlink:href="#m801ab94046" x="79.925647" y="225.761689" style="fill: #1f77b4; stroke: #1f77b4"/>
     <use xlink:href="#m801ab94046" x="74.887685" y="217.854607" style="fill: #1f77b4; stroke: #1f77b4"/>
     <use xlink:href="#m801ab94046" x="72.04218" y="210.868365" style="fill: #1f77b4; stroke: #1f77b4"/>
     <use xlink:href="#m801ab94046" x="69.88032" y="202.983878" style="fill: #1f77b4; stroke: #1f77b4"/>
     <use xlink:href="#m801ab94046" x="66.986788" y="195.53407" style="fill: #1f77b4; stroke: #1f77b4"/>
     <use xlink:href="#m801ab94046" x="65.440339" y="187.96076" style="fill: #1f77b4; stroke: #1f77b4"/>
     <use xlink:href="#m801ab94046" x="64.134454" y="179.163546" style="fill: #1f77b4; stroke: #1f77b4"/>
     <use xlink:href="#m801ab94046" x="65.964908" y="171.431133" style="fill: #1f77b4; stroke: #1f77b4"/>
     <use xlink:href="#m801ab94046" x="66.305803" y="163.965705" style="fill: #1f77b4; stroke: #1f77b4"/>
     <use xlink:href="#m801ab94046" x="66.20958" y="157.134457" style="fill: #1f77b4; stroke: #1f77b4"/>
     <use xlink:href="#m801ab94046" x="68.651854" y="149.868117" style="fill: #1f77b4; stroke: #1f77b4"/>
     <use xlink:href="#m801ab94046" x="72.590762" y="141.060123" style="fill: #1f77b4; stroke: #1f77b4"/>
     <use xlink:href="#m801ab94046" x="75.315821" y="133.897672" style="fill: #1f77b4; stroke: #1f77b4"/>
     <use xlink:href="#m801ab94046" x="79.419113" y="127.454596" style="fill: #1f77b4; stroke: #1f77b4"/>
     <use xlink:href="#m801ab94046" x="84.423071" y="120.362797" style="fill: #1f77b4; stroke: #1f77b4"/>
     <use xlink:href="#m801ab94046" x="90.406683" y="114.282713" style="fill: #1f77b4; stroke: #1f77b4"/>
     <use xlink:href="#m801ab94046" x="96.738081" y="107.490748" style="fill: #1f77b4; stroke: #1f77b4"/>
     <use xlink:href="#m801ab94046" x="103.279097" y="102.127894" style="fill: #1f77b4; stroke: #1f77b4"/>
     <use xlink:href="#m801ab94046" x="110.280859" y="96.393043" style="fill: #1f77b4; stroke: #1f77b4"/>
     <use xlink:href="#m801ab94046" x="118.388331" y="90.763349" style="fill: #1f77b4; stroke: #1f77b4"/>
     <use xlink:href="#m801ab94046" x="127.451238" y="86.999775" style="fill: #1f77b4; stroke: #1f77b4"/>
     <use xlink:href="#m801ab94046" x="135.656449" y="82.613276" style="fill: #1f77b4; stroke: #1f77b4"/>
     <use xlink:href="#m801ab94046" x="145.29211" y="78.074917" style="fill: #1f77b4; stroke: #1f77b4"/>
     <use xlink:href="#m801ab94046" x="153.199293" y="75.038985" style="fill: #1f77b4; stroke: #1f77b4"/>
     <use xlink:href="#m801ab94046" x="164.078555" y="73.291167" style="fill: #1f77b4; stroke: #1f77b4"/>
     <use xlink:href="#m801ab94046" x="174.648901" y="70.430954" style="fill: #1f77b4; stroke: #1f77b4"/>
     <use xlink:href="#m801ab94046" x="183.738522" y="68.976478" style="fill: #1f77b4; stroke: #1f77b4"/>
     <use xlink:href="#m801ab94046" x="193.62631" y="67.332604" style="fill: #1f77b4; stroke: #1f77b4"/>
     <use xlink:href="#m801ab94046" x="203.766097" y="67.432653" style="fill: #1f77b4; stroke: #1f77b4"/>
     <use xlink:href="#m801ab94046" x="213.856972" y="67.763642" style="fill: #1f77b4; stroke: #1f77b4"/>
     <use xlink:href="#m801ab94046" x="224.806813" y="67.831555" style="fill: #1f77b4; stroke: #1f77b4"/>
     <use xlink:href="#m801ab94046" x="234.197991" y="69.499902" style="fill: #1f77b4; stroke: #1f77b4"/>
     <use xlink:href="#m801ab94046" x="244.275109" y="71.396567" style="fill: #1f77b4; stroke: #1f77b4"/>
     <use xlink:href="#m801ab94046" x="254.183688" y="72.868222" style="fill: #1f77b4; stroke: #1f77b4"/>
     <use xlink:href="#m801ab94046" x="263.230595" y="76.478327" style="fill: #1f77b4; stroke: #1f77b4"/>
     <use xlink:href="#m801ab94046" x="273.30616" y="79.275168" style="fill: #1f77b4; stroke: #1f77b4"/>
     <use xlink:href="#m801ab94046" x="281.926945" y="82.83203" style="fill: #1f77b4; stroke: #1f77b4"/>
     <use xlink:href="#m801ab94046" x="290.088238" y="87.618834" style="fill: #1f77b4; stroke: #1f77b4"/>
     <use xlink:href="#m801ab94046" x="297.565302" y="92.172904" style="fill: #1f77b4; stroke: #1f77b4"/>
     <use xlink:href="#m801ab94046" x="305.206725" y="97.760188" style="fill: #1f77b4; stroke: #1f77b4"/>
     <use xlink:href="#m801ab94046" x="311.805548" y="102.92033" style="fill: #1f77b4; stroke: #1f77b4"/>
     <use xlink:href="#m801ab94046" x="318.305228" y="108.53594" style="fill: #1f77b4; stroke: #1f77b4"/>
     <use xlink:href="#m801ab94046" x="323.754676" y="114.736338" style="fill: #1f77b4; stroke: #1f77b4"/>
     <use xlink:href="#m801ab94046" x="328.070639" y="122.067848" style="fill: #1f77b4; stroke: #1f77b4"/>
     <use xlink:href="#m801ab94046" x="332.044248" y="129.071703" style="fill: #1f77b4; stroke: #1f77b4"/>
     <use xlink:href="#m801ab94046" x="335.834542" y="135.42846" style="fill: #1f77b4; stroke: #1f77b4"/>
     <use xlink:href="#m801ab94046" x="337.180595" y="142.576932" style="fill: #1f77b4; stroke: #1f77b4"/>
     <use xlink:href="#m801ab94046" x="340.192917" y="150.186854" style="fill: #1f77b4; stroke: #1f77b4"/>
     <use xlink:href="#m801ab94046" x="339.697188" y="157.583974" style="fill: #1f77b4; stroke: #1f77b4"/>
     <use xlink:href="#m801ab94046" x="341.402626" y="165.547097" style="fill: #1f77b4; stroke: #1f77b4"/>
    </g>
   </g>
   <g id="line2d_20">
    <path d="M 287.075109 70.351367 
L 292.51036 72.547603 
L 297.826648 74.903418 
L 303.015597 77.415223 
L 308.069023 80.079179 
L 312.978948 82.89121 
L 317.737614 85.847003 
L 322.337492 88.94202 
L 326.771297 92.171502 
L 331.031999 95.530474 
L 335.11283 99.01376 
L 339.007302 102.615981 
L 342.709211 106.331571 
L 346.212652 110.154784 
L 349.512023 114.079698 
L 352.60204 118.100232 
L 355.477739 122.210148 
L 358.13449 126.403064 
L 360.568002 130.672465 
L 362.774329 135.011711 
L 364.749877 139.414047 
L 366.491412 143.872615 
L 367.996062 148.380464 
L 369.261324 152.93056 
L 370.28507 157.515799 
L 371.065545 162.129014 
L 371.601375 166.762992 
L 371.891568 171.410479 
L 371.935516 176.064196 
L 371.732997 180.716849 
L 371.284172 185.361138 
L 370.589592 189.989773 
L 369.65019 194.595479 
L 368.467286 199.171016 
L 367.04258 203.709183 
L 365.378156 208.20283 
L 363.476472 212.644875 
L 361.340362 217.028309 
L 358.973029 221.346209 
L 356.378043 225.59175 
L 353.559331 229.758215 
L 350.521177 233.839005 
L 347.268213 237.82765 
L 343.805409 241.717821 
L 340.138072 245.503336 
L 336.271833 249.178173 
L 332.21264 252.736479 
L 327.966749 256.172579 
L 323.540716 259.480986 
L 318.941384 262.656407 
L 314.175875 265.693756 
L 309.251577 268.588157 
L 304.176138 271.334956 
L 298.957444 273.929728 
L 293.60362 276.368281 
L 288.123005 278.646667 
L 282.524149 280.761186 
L 276.815792 282.708391 
L 271.006858 284.485098 
L 265.106434 286.088387 
L 259.12376 287.515609 
L 253.068217 288.764389 
L 246.949304 289.832632 
L 240.776633 290.718525 
L 234.559907 291.420541 
L 228.308909 291.937441 
L 222.033483 292.268277 
L 215.743522 292.412394 
L 209.448952 292.369431 
L 203.159715 292.139321 
L 196.885752 291.722292 
L 190.636992 291.118869 
L 184.423332 290.329869 
L 178.254625 289.356407 
L 172.140659 288.199885 
L 166.091149 286.862002 
L 160.115714 285.344739 
L 154.223868 283.650367 
L 148.425001 281.781436 
L 142.728365 279.740778 
L 137.143059 277.531497 
L 131.678017 275.156967 
L 126.34199 272.620828 
L 121.143532 269.92698 
L 116.090992 267.079574 
L 111.192491 264.083011 
L 106.455919 260.941931 
L 101.888915 257.661211 
L 97.498858 254.245951 
L 93.292852 250.70147 
L 89.277719 247.0333 
L 85.459984 243.247172 
L 81.845865 239.349012 
L 78.441264 235.344931 
L 75.251758 231.241212 
L 72.282585 227.044305 
L 69.538641 222.760814 
L 67.024467 218.397488 
L 64.744247 213.961212 
L 62.701793 209.458992 
L 60.900547 204.897947 
L 59.343568 200.285298 
L 58.033529 195.628356 
L 56.972717 190.934512 
L 56.163018 186.211221 
L 55.605926 181.465996 
L 55.302529 176.706392 
L 55.253515 171.939995 
L 55.459166 167.174412 
L 55.919356 162.417257 
L 56.633554 157.676138 
L 57.600824 152.958647 
L 58.819821 148.272347 
L 60.2888 143.624759 
L 62.00561 139.023353 
L 63.967705 134.475532 
L 66.172141 129.988621 
L 68.615583 125.56986 
L 71.29431 121.226384 
L 74.204219 116.965218 
L 77.340831 112.793264 
L 80.699298 108.717288 
L 84.274412 104.74391 
L 88.060608 100.879594 
L 92.051978 97.130637 
L 96.242276 93.503158 
L 100.624929 90.003088 
L 105.193045 86.63616 
L 109.939427 83.407902 
L 114.856582 80.323623 
L 119.936732 77.388407 
L 125.171827 74.607108 
L 130.553556 71.984332 
L 136.073363 69.52444 
L 141.722458 67.231534 
L 147.491829 65.109451 
L 153.37226 63.161758 
L 159.354345 61.391744 
L 165.428498 59.802416 
L 171.584976 58.396491 
L 177.813886 57.176394 
L 184.105208 56.144253 
L 190.448805 55.301891 
L 196.834446 54.65083 
L 203.251813 54.192279 
L 209.690528 53.92714 
L 216.140161 53.856 
L 222.590253 53.979132 
L 229.030328 54.296495 
L 235.449915 54.807729 
L 241.838559 55.512159 
L 248.185844 56.408796 
L 254.481407 57.496335 
L 260.714955 58.773157 
L 266.876281 60.237334 
L 272.955285 61.886628 
L 278.941984 63.718494 
L 284.826537 65.730088 
L 290.599252 67.918267 
L 296.25061 70.279592 
L 301.771278 72.810339 
L 307.152121 75.506499 
L 312.384225 78.363787 
L 317.458906 81.377646 
L 322.367727 84.543256 
L 327.102511 87.855542 
L 331.655359 91.309178 
L 336.018658 94.898601 
L 340.185098 98.618012 
L 344.147684 102.461394 
L 347.899747 106.422513 
L 351.434958 110.494935 
L 354.747337 114.672031 
L 357.831264 118.946988 
L 360.68149 123.312825 
L 363.293147 127.762398 
L 365.661756 132.288415 
L 367.783234 136.883445 
L 369.653906 141.539934 
L 371.270507 146.250215 
L 372.630192 151.00652 
L 373.730539 155.800992 
L 374.569558 160.625703 
L 375.145689 165.47266 
L 375.457813 170.333822 
L 375.505249 175.201116 
L 375.287761 180.066445 
L 374.805555 184.921704 
L 374.059282 189.758795 
L 373.050038 194.569639 
L 371.779364 199.34619 
L 370.249241 204.080448 
L 368.462093 208.764476 
L 366.42078 213.390407 
L 364.128594 217.950466 
L 361.589257 222.436976 
L 358.806914 226.842376 
L 355.78613 231.159231 
L 352.531877 235.380247 
L 349.049532 239.498285 
L 345.344867 243.50637 
L 341.424042 247.397706 
L 337.29359 251.165688 
L 332.960413 254.803912 
L 328.431767 258.306189 
L 323.715252 261.666555 
L 318.8188 264.879282 
L 313.75066 267.938888 
L 308.519388 270.840147 
L 303.133828 273.578102 
L 297.603104 276.148068 
L 291.936597 278.545648 
L 286.143936 280.766734 
L 280.234978 282.807524 
L 274.219793 284.664519 
L 268.108644 286.334538 
L 261.911975 287.814722 
L 255.640386 289.102538 
L 249.30462 290.195787 
L 242.915543 291.092605 
L 236.484123 291.791473 
L 230.021414 292.291214 
L 223.538534 292.591002 
L 217.046645 292.690358 
L 210.556936 292.589158 
L 204.080601 292.28763 
L 197.628817 291.786355 
L 191.212729 291.086269 
L 184.843424 290.188658 
L 178.531915 289.095162 
L 172.289119 287.807767 
L 166.125838 286.328807 
L 160.052736 284.660957 
L 154.080325 282.807232 
L 148.21894 280.77098 
L 142.47872 278.555875 
L 136.869595 276.165917 
L 131.401257 273.605419 
L 126.083152 270.879003 
L 120.924456 267.991589 
L 115.934058 264.948391 
L 111.120543 261.754904 
L 106.492178 258.416898 
L 102.056893 254.940401 
L 97.822266 251.331696 
L 93.795509 247.597305 
L 89.983453 243.743978 
L 86.392535 239.778681 
L 83.028785 235.708581 
L 79.897813 231.541037 
L 77.004799 227.283582 
L 74.354483 222.943911 
L 71.951154 218.529866 
L 69.798639 214.04942 
L 67.900301 209.510664 
L 66.259028 204.921788 
L 64.877226 200.291069 
L 63.756818 195.626852 
L 62.899234 190.937535 
L 62.305414 186.231555 
L 61.975804 181.517364 
L 61.910351 176.803421 
L 62.108507 172.098171 
L 62.569232 167.410027 
L 63.290989 162.747355 
L 64.271753 158.11846 
L 65.509014 153.531564 
L 66.99978 148.994793 
L 68.740586 144.516159 
L 70.727498 140.103545 
L 72.956126 135.76469 
L 75.421628 131.507171 
L 78.118725 127.338389 
L 81.041709 123.265554 
L 84.184456 119.29567 
L 87.540441 115.435523 
L 91.102751 111.691663 
L 94.864098 108.070396 
L 98.816839 104.577768 
L 102.952988 101.219554 
L 107.264238 98.001246 
L 111.741977 94.928045 
L 116.377304 92.004845 
L 121.161056 89.236232 
L 126.083821 86.626466 
L 131.135961 84.179482 
L 136.307638 81.898875 
L 141.588826 79.787901 
L 146.969342 77.849464 
L 152.438864 76.086118 
L 157.986956 74.500059 
L 163.603088 73.093123 
L 169.276663 71.866786 
L 174.997036 70.822159 
L 180.753541 69.959991 
L 186.535512 69.280666 
L 192.332307 68.784209 
L 198.13333 68.470285 
L 203.928057 68.338203 
L 209.706052 68.38692 
L 215.456998 68.615046 
L 221.170709 69.02085 
L 226.837161 69.602265 
L 232.446504 70.356898 
L 237.989088 71.282035 
L 243.455481 72.374655 
L 248.836485 73.631432 
L 254.123158 75.04875 
L 259.30683 76.622717 
L 264.379117 78.349167 
L 269.331942 80.223682 
L 274.157541 82.2416 
L 278.848486 84.398027 
L 283.397692 86.687854 
L 287.798426 89.105767 
L 292.044327 91.646267 
L 296.129406 94.303677 
L 300.048057 97.072165 
L 303.795068 99.945752 
L 307.365622 102.918335 
L 310.755303 105.983693 
L 313.960102 109.135512 
L 316.976419 112.367392 
L 319.801062 115.672871 
L 322.43125 119.045431 
L 324.864611 122.478523 
L 327.099181 125.965573 
L 329.133402 129.500005 
L 330.966115 133.075248 
L 332.596557 136.684756 
L 334.024358 140.32202 
L 335.249528 143.980581 
L 336.272455 147.654042 
L 337.093895 151.336085 
L 337.093895 151.336085 
" clip-path="url(#p3e13ab9e3f)" style="fill: none; stroke: #d62728; stroke-width: 1.5; stroke-linecap: square"/>
   </g>
   <g id="patch_3">
    <path d="M 37.848438 307.872 
L 37.848438 41.76 
" style="fill: none; stroke: #000000; stroke-width: 0.8; stroke-linejoin: miter; stroke-linecap: square"/>
   </g>
   <g id="patch_4">
    <path d="M 394.968438 307.872 
L 394.968438 41.76 
" style="fill: none; stroke: #000000; stroke-width: 0.8; stroke-linejoin: miter; stroke-linecap: square"/>
   </g>
   <g id="patch_5">
    <path d="M 37.848437 307.872 
L 394.968438 307.872 
" style="fill: none; stroke: #000000; stroke-width: 0.8; stroke-linejoin: miter; stroke-linecap: square"/>
   </g>
   <g id="patch_6">
    <path d="M 37.848437 41.76 
L 394.968438 41.76 
" style="fill: none; stroke: #000000; stroke-width: 0.8; stroke-linejoin: miter; stroke-linecap: square"/>
   </g>
   <g id="text_21">
    <g id="patch_7">
     <path d="M 412.824438 102.337163 
L 548.824438 102.337163 
Q 552.824438 102.337163 552.824438 98.337163 
L 552.824438 55.0656 
Q 552.824438 51.0656 548.824438 51.0656 
L 412.824438 51.0656 
Q 408.824438 51.0656 408.824438 55.0656 
L 408.824438 98.337163 
Q 408.824438 102.337163 412.824438 102.337163 
z
" style="fill: #ffffff; opacity: 0.5; stroke: #000000; stroke-linejoin: miter"/>
    </g>
    <!-- Summary -->
    <g transform="translate(412.824438 62.664038) scale(0.1 -0.1)">
     <defs>
      <path id="DejaVuSans-53" d="M 3425 4513 
L 3425 3897 
Q 3066 4069 2747 4153 
Q 2428 4238 2131 4238 
Q 1616 4238 1336 4038 
Q 1056 3838 1056 3469 
Q 1056 3159 1242 3001 
Q 1428 2844 1947 2747 
L 2328 2669 
Q 3034 2534 3370 2195 
Q 3706 1856 3706 1288 
Q 3706 609 3251 259 
Q 2797 -91 1919 -91 
Q 1588 -91 1214 -16 
Q 841 59 441 206 
L 441 856 
Q 825 641 1194 531 
Q 1563 422 1919 422 
Q 2459 422 2753 634 
Q 3047 847 3047 1241 
Q 3047 1584 2836 1778 
Q 2625 1972 2144 2069 
L 1759 2144 
Q 1053 2284 737 2584 
Q 422 2884 422 3419 
Q 422 4038 858 4394 
Q 1294 4750 2059 4750 
Q 2388 4750 2728 4690 
Q 3069 4631 3425 4513 
z
" transform="scale(0.015625)"/>
      <path id="DejaVuSans-75" d="M 544 1381 
L 544 3500 
L 1119 3500 
L 1119 1403 
Q 1119 906 1312 657 
Q 1506 409 1894 409 
Q 2359 409 2629 706 
Q 2900 1003 2900 1516 
L 2900 3500 
L 3475 3500 
L 3475 0 
L 2900 0 
L 2900 538 
Q 2691 219 2414 64 
Q 2138 -91 1772 -91 
Q 1169 -91 856 284 
Q 544 659 544 1381 
z
M 1991 3584 
L 1991 3584 
z
" transform="scale(0.015625)"/>
      <path id="DejaVuSans-61" d="M 2194 1759 
Q 1497 1759 1228 1600 
Q 959 1441 959 1056 
Q 959 750 1161 570 
Q 1363 391 1709 391 
Q 2188 391 2477 730 
Q 2766 1069 2766 1631 
L 2766 1759 
L 2194 1759 
z
M 3341 1997 
L 3341 0 
L 2766 0 
L 2766 531 
Q 2569 213 2275 61 
Q 1981 -91 1556 -91 
Q 1019 -91 701 211 
Q 384 513 384 1019 
Q 384 1609 779 1909 
Q 1175 2209 1959 2209 
L 2766 2209 
L 2766 2266 
Q 2766 2663 2505 2880 
Q 2244 3097 1772 3097 
Q 1472 3097 1187 3025 
Q 903 2953 641 2809 
L 641 3341 
Q 956 3463 1253 3523 
Q 1550 3584 1831 3584 
Q 2591 3584 2966 3190 
Q 3341 2797 3341 1997 
z
" transform="scale(0.015625)"/>
      <path id="DejaVuSans-72" d="M 2631 2963 
Q 2534 3019 2420 3045 
Q 2306 3072 2169 3072 
Q 1681 3072 1420 2755 
Q 1159 2438 1159 1844 
L 1159 0 
L 581 0 
L 581 3500 
L 1159 3500 
L 1159 2956 
Q 1341 3275 1631 3429 
Q 1922 3584 2338 3584 
Q 2397 3584 2469 3576 
Q 2541 3569 2628 3553 
L 2631 2963 
z
" transform="scale(0.015625)"/>
      <path id="DejaVuSans-79" d="M 2059 -325 
Q 1816 -950 1584 -1140 
Q 1353 -1331 966 -1331 
L 506 -1331 
L 506 -850 
L 844 -850 
Q 1081 -850 1212 -737 
Q 1344 -625 1503 -206 
L 1606 56 
L 191 3500 
L 800 3500 
L 1894 763 
L 2988 3500 
L 3597 3500 
L 2059 -325 
z
" transform="scale(0.015625)"/>
     </defs>
     <use xlink:href="#DejaVuSans-53"/>
     <use xlink:href="#DejaVuSans-75" x="63.476562"/>
     <use xlink:href="#DejaVuSans-6d" x="126.855469"/>
     <use xlink:href="#DejaVuSans-6d" x="224.267578"/>
     <use xlink:href="#DejaVuSans-61" x="321.679688"/>
     <use xlink:href="#DejaVuSans-72" x="382.958984"/>
     <use xlink:href="#DejaVuSans-79" x="424.072266"/>
    </g>
    <!-- $Q_I$: 9.5e+02$\pm$1.9e+02  -->
    <g transform="translate(412.824438 73.86185) scale(0.1 -0.1)">
     <defs>
      <path id="DejaVuSans-Oblique-51" d="M 2309 -84 
Q 2275 -88 2237 -89 
Q 2200 -91 2125 -91 
Q 1250 -91 756 411 
Q 263 913 263 1797 
Q 263 2319 452 2844 
Q 641 3369 978 3788 
Q 1369 4269 1858 4509 
Q 2347 4750 2938 4750 
Q 3794 4750 4287 4245 
Q 4781 3741 4781 2869 
Q 4781 1928 4265 1147 
Q 3750 366 2919 44 
L 3553 -825 
L 2847 -825 
L 2309 -84 
z
M 2919 4238 
Q 2400 4238 2003 3986 
Q 1606 3734 1313 3219 
Q 1125 2891 1026 2522 
Q 928 2153 928 1778 
Q 928 1128 1239 775 
Q 1550 422 2119 422 
Q 2631 422 3032 676 
Q 3434 931 3719 1434 
Q 3909 1772 4009 2142 
Q 4109 2513 4109 2881 
Q 4109 3528 3796 3883 
Q 3484 4238 2919 4238 
z
" transform="scale(0.015625)"/>
      <path id="DejaVuSans-Oblique-49" d="M 1081 4666 
L 1716 4666 
L 806 0 
L 172 0 
L 1081 4666 
z
" transform="scale(0.015625)"/>
      <path id="DejaVuSans-3a" d="M 750 794 
L 1409 794 
L 1409 0 
L 750 0 
L 750 794 
z
M 750 3309 
L 1409 3309 
L 1409 2516 
L 750 2516 
L 750 3309 
z
" transform="scale(0.015625)"/>
      <path id="DejaVuSans-39" d="M 703 97 
L 703 672 
Q 941 559 1184 500 
Q 1428 441 1663 441 
Q 2288 441 2617 861 
Q 2947 1281 2994 2138 
Q 2813 1869 2534 1725 
Q 2256 1581 1919 1581 
Q 1219 1581 811 2004 
Q 403 2428 403 3163 
Q 403 3881 828 4315 
Q 1253 4750 1959 4750 
Q 2769 4750 3195 4129 
Q 3622 3509 3622 2328 
Q 3622 1225 3098 567 
Q 2575 -91 1691 -91 
Q 1453 -91 1209 -44 
Q 966 3 703 97 
z
M 1959 2075 
Q 2384 2075 2632 2365 
Q 2881 2656 2881 3163 
Q 2881 3666 2632 3958 
Q 2384 4250 1959 4250 
Q 1534 4250 1286 3958 
Q 1038 3666 1038 3163 
Q 1038 2656 1286 2365 
Q 1534 2075 1959 2075 
z
" transform="scale(0.015625)"/>
      <path id="DejaVuSans-2e" d="M 684 794 
L 1344 794 
L 1344 0 
L 684 0 
L 684 794 
z
" transform="scale(0.015625)"/>
      <path id="DejaVuSans-35" d="M 691 4666 
L 3169 4666 
L 3169 4134 
L 1269 4134 
L 1269 2991 
Q 1406 3038 1543 3061 
Q 1681 3084 1819 3084 
Q 2600 3084 3056 2656 
Q 3513 2228 3513 1497 
Q 3513 744 3044 326 
Q 2575 -91 1722 -91 
Q 1428 -91 1123 -41 
Q 819 9 494 109 
L 494 744 
Q 775 591 1075 516 
Q 1375 441 1709 441 
Q 2250 441 2565 725 
Q 2881 1009 2881 1497 
Q 2881 1984 2565 2268 
Q 2250 2553 1709 2553 
Q 1456 2553 1204 2497 
Q 953 2441 691 2322 
L 691 4666 
z
" transform="scale(0.015625)"/>
      <path id="DejaVuSans-2b" d="M 2944 4013 
L 2944 2272 
L 4684 2272 
L 4684 1741 
L 2944 1741 
L 2944 0 
L 2419 0 
L 2419 1741 
L 678 1741 
L 678 2272 
L 2419 2272 
L 2419 4013 
L 2944 4013 
z
" transform="scale(0.015625)"/>
      <path id="DejaVuSans-b1" d="M 2944 4013 
L 2944 2803 
L 4684 2803 
L 4684 2272 
L 2944 2272 
L 2944 1063 
L 2419 1063 
L 2419 2272 
L 678 2272 
L 678 2803 
L 2419 2803 
L 2419 4013 
L 2944 4013 
z
M 678 531 
L 4684 531 
L 4684 0 
L 678 0 
L 678 531 
z
" transform="scale(0.015625)"/>
     </defs>
     <use xlink:href="#DejaVuSans-Oblique-51" transform="translate(0 0.78125)"/>
     <use xlink:href="#DejaVuSans-Oblique-49" transform="translate(78.710938 -15.625) scale(0.7)"/>
     <use xlink:href="#DejaVuSans-3a" transform="translate(102.089844 0.78125)"/>
     <use xlink:href="#DejaVuSans-20" transform="translate(135.78125 0.78125)"/>
     <use xlink:href="#DejaVuSans-39" transform="translate(167.568359 0.78125)"/>
     <use xlink:href="#DejaVuSans-2e" transform="translate(231.191406 0.78125)"/>
     <use xlink:href="#DejaVuSans-35" transform="translate(262.978516 0.78125)"/>
     <use xlink:href="#DejaVuSans-65" transform="translate(326.601562 0.78125)"/>
     <use xlink:href="#DejaVuSans-2b" transform="translate(388.125 0.78125)"/>
     <use xlink:href="#DejaVuSans-30" transform="translate(471.914062 0.78125)"/>
     <use xlink:href="#DejaVuSans-32" transform="translate(535.537109 0.78125)"/>
     <use xlink:href="#DejaVuSans-b1" transform="translate(599.160156 0.78125)"/>
     <use xlink:href="#DejaVuSans-31" transform="translate(682.949219 0.78125)"/>
     <use xlink:href="#DejaVuSans-2e" transform="translate(746.572266 0.78125)"/>
     <use xlink:href="#DejaVuSans-39" transform="translate(778.359375 0.78125)"/>
     <use xlink:href="#DejaVuSans-65" transform="translate(841.982422 0.78125)"/>
     <use xlink:href="#DejaVuSans-2b" transform="translate(903.505859 0.78125)"/>
     <use xlink:href="#DejaVuSans-30" transform="translate(987.294922 0.78125)"/>
     <use xlink:href="#DejaVuSans-32" transform="translate(1050.917969 0.78125)"/>
     <use xlink:href="#DejaVuSans-20" transform="translate(1114.541016 0.78125)"/>
    </g>
    <!-- $Q_C$: 3.9$\pm$2.5 k -->
    <g transform="translate(412.824438 85.059663) scale(0.1 -0.1)">
     <defs>
      <path id="DejaVuSans-Oblique-43" d="M 4447 4306 
L 4319 3641 
Q 4019 3944 3683 4091 
Q 3347 4238 2956 4238 
Q 2422 4238 2017 3981 
Q 1613 3725 1319 3200 
Q 1131 2863 1032 2486 
Q 934 2109 934 1728 
Q 934 1091 1264 756 
Q 1594 422 2222 422 
Q 2656 422 3056 561 
Q 3456 700 3834 978 
L 3688 231 
Q 3316 72 2936 -9 
Q 2556 -91 2175 -91 
Q 1278 -91 773 396 
Q 269 884 269 1753 
Q 269 2309 461 2846 
Q 653 3384 1013 3828 
Q 1394 4300 1883 4525 
Q 2372 4750 3022 4750 
Q 3422 4750 3780 4639 
Q 4138 4528 4447 4306 
z
" transform="scale(0.015625)"/>
      <path id="DejaVuSans-33" d="M 2597 2516 
Q 3050 2419 3304 2112 
Q 3559 1806 3559 1356 
Q 3559 666 3084 287 
Q 2609 -91 1734 -91 
Q 1441 -91 1130 -33 
Q 819 25 488 141 
L 488 750 
Q 750 597 1062 519 
Q 1375 441 1716 441 
Q 2309 441 2620 675 
Q 2931 909 2931 1356 
Q 2931 1769 2642 2001 
Q 2353 2234 1838 2234 
L 1294 2234 
L 1294 2753 
L 1863 2753 
Q 2328 2753 2575 2939 
Q 2822 3125 2822 3475 
Q 2822 3834 2567 4026 
Q 2313 4219 1838 4219 
Q 1578 4219 1281 4162 
Q 984 4106 628 3988 
L 628 4550 
Q 988 4650 1302 4700 
Q 1616 4750 1894 4750 
Q 2613 4750 3031 4423 
Q 3450 4097 3450 3541 
Q 3450 3153 3228 2886 
Q 3006 2619 2597 2516 
z
" transform="scale(0.015625)"/>
      <path id="DejaVuSans-6b" d="M 581 4863 
L 1159 4863 
L 1159 1991 
L 2875 3500 
L 3609 3500 
L 1753 1863 
L 3688 0 
L 2938 0 
L 1159 1709 
L 1159 0 
L 581 0 
L 581 4863 
z
" transform="scale(0.015625)"/>
     </defs>
     <use xlink:href="#DejaVuSans-Oblique-51" transform="translate(0 0.015625)"/>
     <use xlink:href="#DejaVuSans-Oblique-43" transform="translate(78.710938 -16.390625) scale(0.7)"/>
     <use xlink:href="#DejaVuSans-3a" transform="translate(130.322266 0.015625)"/>
     <use xlink:href="#DejaVuSans-20" transform="translate(164.013672 0.015625)"/>
     <use xlink:href="#DejaVuSans-33" transform="translate(195.800781 0.015625)"/>
     <use xlink:href="#DejaVuSans-2e" transform="translate(259.423828 0.015625)"/>
     <use xlink:href="#DejaVuSans-39" transform="translate(291.210938 0.015625)"/>
     <use xlink:href="#DejaVuSans-b1" transform="translate(354.833984 0.015625)"/>
     <use xlink:href="#DejaVuSans-32" transform="translate(438.623047 0.015625)"/>
     <use xlink:href="#DejaVuSans-2e" transform="translate(502.246094 0.015625)"/>
     <use xlink:href="#DejaVuSans-35" transform="translate(534.033203 0.015625)"/>
     <use xlink:href="#DejaVuSans-20" transform="translate(597.65625 0.015625)"/>
     <use xlink:href="#DejaVuSans-6b" transform="translate(629.443359 0.015625)"/>
    </g>
    <!-- $f_{res}$: 6.10499$\pm$0.00050 GHz -->
    <g transform="translate(412.824438 96.257475) scale(0.1 -0.1)">
     <defs>
      <path id="DejaVuSans-Oblique-66" d="M 3059 4863 
L 2969 4384 
L 2419 4384 
Q 2106 4384 1964 4261 
Q 1822 4138 1753 3809 
L 1691 3500 
L 2638 3500 
L 2553 3053 
L 1606 3053 
L 1013 0 
L 434 0 
L 1031 3053 
L 481 3053 
L 563 3500 
L 1113 3500 
L 1159 3744 
Q 1278 4363 1576 4613 
Q 1875 4863 2516 4863 
L 3059 4863 
z
" transform="scale(0.015625)"/>
      <path id="DejaVuSans-Oblique-72" d="M 2853 2969 
Q 2766 3016 2653 3041 
Q 2541 3066 2413 3066 
Q 1953 3066 1609 2717 
Q 1266 2369 1153 1784 
L 800 0 
L 225 0 
L 909 3500 
L 1484 3500 
L 1375 2956 
Q 1603 3259 1920 3421 
Q 2238 3584 2597 3584 
Q 2691 3584 2781 3573 
Q 2872 3563 2963 3538 
L 2853 2969 
z
" transform="scale(0.015625)"/>
      <path id="DejaVuSans-Oblique-65" d="M 3078 2063 
Q 3088 2113 3092 2166 
Q 3097 2219 3097 2272 
Q 3097 2653 2873 2875 
Q 2650 3097 2266 3097 
Q 1838 3097 1509 2826 
Q 1181 2556 1013 2059 
L 3078 2063 
z
M 3578 1613 
L 903 1613 
Q 884 1494 878 1425 
Q 872 1356 872 1306 
Q 872 872 1139 634 
Q 1406 397 1894 397 
Q 2269 397 2603 481 
Q 2938 566 3225 728 
L 3116 159 
Q 2806 34 2476 -28 
Q 2147 -91 1806 -91 
Q 1078 -91 686 257 
Q 294 606 294 1247 
Q 294 1794 489 2264 
Q 684 2734 1063 3103 
Q 1306 3334 1642 3459 
Q 1978 3584 2356 3584 
Q 2950 3584 3301 3228 
Q 3653 2872 3653 2272 
Q 3653 2128 3634 1964 
Q 3616 1800 3578 1613 
z
" transform="scale(0.015625)"/>
      <path id="DejaVuSans-Oblique-73" d="M 3200 3397 
L 3091 2853 
Q 2863 2978 2609 3040 
Q 2356 3103 2088 3103 
Q 1634 3103 1373 2948 
Q 1113 2794 1113 2528 
Q 1113 2219 1719 2053 
Q 1766 2041 1788 2034 
L 1972 1978 
Q 2547 1819 2739 1644 
Q 2931 1469 2931 1166 
Q 2931 609 2489 259 
Q 2047 -91 1331 -91 
Q 1053 -91 747 -37 
Q 441 16 72 128 
L 184 722 
Q 500 559 806 475 
Q 1113 391 1394 391 
Q 1816 391 2080 572 
Q 2344 753 2344 1031 
Q 2344 1331 1650 1516 
L 1591 1531 
L 1394 1581 
Q 956 1697 753 1886 
Q 550 2075 550 2369 
Q 550 2928 970 3256 
Q 1391 3584 2113 3584 
Q 2397 3584 2667 3537 
Q 2938 3491 3200 3397 
z
" transform="scale(0.015625)"/>
      <path id="DejaVuSans-47" d="M 3809 666 
L 3809 1919 
L 2778 1919 
L 2778 2438 
L 4434 2438 
L 4434 434 
Q 4069 175 3628 42 
Q 3188 -91 2688 -91 
Q 1594 -91 976 548 
Q 359 1188 359 2328 
Q 359 3472 976 4111 
Q 1594 4750 2688 4750 
Q 3144 4750 3555 4637 
Q 3966 4525 4313 4306 
L 4313 3634 
Q 3963 3931 3569 4081 
Q 3175 4231 2741 4231 
Q 1884 4231 1454 3753 
Q 1025 3275 1025 2328 
Q 1025 1384 1454 906 
Q 1884 428 2741 428 
Q 3075 428 3337 486 
Q 3600 544 3809 666 
z
" transform="scale(0.015625)"/>
      <path id="DejaVuSans-48" d="M 628 4666 
L 1259 4666 
L 1259 2753 
L 3553 2753 
L 3553 4666 
L 4184 4666 
L 4184 0 
L 3553 0 
L 3553 2222 
L 1259 2222 
L 1259 0 
L 628 0 
L 628 4666 
z
" transform="scale(0.015625)"/>
      <path id="DejaVuSans-7a" d="M 353 3500 
L 3084 3500 
L 3084 2975 
L 922 459 
L 3084 459 
L 3084 0 
L 275 0 
L 275 525 
L 2438 3041 
L 353 3041 
L 353 3500 
z
" transform="scale(0.015625)"/>
     </defs>
     <use xlink:href="#DejaVuSans-Oblique-66" transform="translate(0 0.015625)"/>
     <use xlink:href="#DejaVuSans-Oblique-72" transform="translate(35.205078 -16.390625) scale(0.7)"/>
     <use xlink:href="#DejaVuSans-Oblique-65" transform="translate(63.984375 -16.390625) scale(0.7)"/>
     <use xlink:href="#DejaVuSans-Oblique-73" transform="translate(107.050781 -16.390625) scale(0.7)"/>
     <use xlink:href="#DejaVuSans-3a" transform="translate(146.254883 0.015625)"/>
     <use xlink:href="#DejaVuSans-20" transform="translate(179.946289 0.015625)"/>
     <use xlink:href="#DejaVuSans-36" transform="translate(211.733398 0.015625)"/>
     <use xlink:href="#DejaVuSans-2e" transform="translate(275.356445 0.015625)"/>
     <use xlink:href="#DejaVuSans-31" transform="translate(307.143555 0.015625)"/>
     <use xlink:href="#DejaVuSans-30" transform="translate(370.766602 0.015625)"/>
     <use xlink:href="#DejaVuSans-34" transform="translate(434.389648 0.015625)"/>
     <use xlink:href="#DejaVuSans-39" transform="translate(498.012695 0.015625)"/>
     <use xlink:href="#DejaVuSans-39" transform="translate(561.635742 0.015625)"/>
     <use xlink:href="#DejaVuSans-b1" transform="translate(625.258789 0.015625)"/>
     <use xlink:href="#DejaVuSans-30" transform="translate(709.047852 0.015625)"/>
     <use xlink:href="#DejaVuSans-2e" transform="translate(772.670898 0.015625)"/>
     <use xlink:href="#DejaVuSans-30" transform="translate(804.458008 0.015625)"/>
     <use xlink:href="#DejaVuSans-30" transform="translate(868.081055 0.015625)"/>
     <use xlink:href="#DejaVuSans-30" transform="translate(931.704102 0.015625)"/>
     <use xlink:href="#DejaVuSans-35" transform="translate(995.327148 0.015625)"/>
     <use xlink:href="#DejaVuSans-30" transform="translate(1058.950195 0.015625)"/>
     <use xlink:href="#DejaVuSans-20" transform="translate(1122.573242 0.015625)"/>
     <use xlink:href="#DejaVuSans-47" transform="translate(1154.360352 0.015625)"/>
     <use xlink:href="#DejaVuSans-48" transform="translate(1231.850586 0.015625)"/>
     <use xlink:href="#DejaVuSans-7a" transform="translate(1307.045898 0.015625)"/>
    </g>
   </g>
  </g>
  <g id="text_22">
   <!-- S21 One-tone -->
   <g transform="translate(169.3975 16.318125) scale(0.12 -0.12)">
    <defs>
     <path id="DejaVuSans-4f" d="M 2522 4238 
Q 1834 4238 1429 3725 
Q 1025 3213 1025 2328 
Q 1025 1447 1429 934 
Q 1834 422 2522 422 
Q 3209 422 3611 934 
Q 4013 1447 4013 2328 
Q 4013 3213 3611 3725 
Q 3209 4238 2522 4238 
z
M 2522 4750 
Q 3503 4750 4090 4092 
Q 4678 3434 4678 2328 
Q 4678 1225 4090 567 
Q 3503 -91 2522 -91 
Q 1538 -91 948 565 
Q 359 1222 359 2328 
Q 359 3434 948 4092 
Q 1538 4750 2522 4750 
z
" transform="scale(0.015625)"/>
     <path id="DejaVuSans-6e" d="M 3513 2113 
L 3513 0 
L 2938 0 
L 2938 2094 
Q 2938 2591 2744 2837 
Q 2550 3084 2163 3084 
Q 1697 3084 1428 2787 
Q 1159 2491 1159 1978 
L 1159 0 
L 581 0 
L 581 3500 
L 1159 3500 
L 1159 2956 
Q 1366 3272 1645 3428 
Q 1925 3584 2291 3584 
Q 2894 3584 3203 3211 
Q 3513 2838 3513 2113 
z
" transform="scale(0.015625)"/>
     <path id="DejaVuSans-74" d="M 1172 4494 
L 1172 3500 
L 2356 3500 
L 2356 3053 
L 1172 3053 
L 1172 1153 
Q 1172 725 1289 603 
Q 1406 481 1766 481 
L 2356 481 
L 2356 0 
L 1766 0 
Q 1100 0 847 248 
Q 594 497 594 1153 
L 594 3053 
L 172 3053 
L 172 3500 
L 594 3500 
L 594 4494 
L 1172 4494 
z
" transform="scale(0.015625)"/>
     <path id="DejaVuSans-6f" d="M 1959 3097 
Q 1497 3097 1228 2736 
Q 959 2375 959 1747 
Q 959 1119 1226 758 
Q 1494 397 1959 397 
Q 2419 397 2687 759 
Q 2956 1122 2956 1747 
Q 2956 2369 2687 2733 
Q 2419 3097 1959 3097 
z
M 1959 3584 
Q 2709 3584 3137 3096 
Q 3566 2609 3566 1747 
Q 3566 888 3137 398 
Q 2709 -91 1959 -91 
Q 1206 -91 779 398 
Q 353 888 353 1747 
Q 353 2609 779 3096 
Q 1206 3584 1959 3584 
z
" transform="scale(0.015625)"/>
    </defs>
    <use xlink:href="#DejaVuSans-53"/>
    <use xlink:href="#DejaVuSans-32" x="63.476562"/>
    <use xlink:href="#DejaVuSans-31" x="127.099609"/>
    <use xlink:href="#DejaVuSans-20" x="190.722656"/>
    <use xlink:href="#DejaVuSans-4f" x="222.509766"/>
    <use xlink:href="#DejaVuSans-6e" x="301.220703"/>
    <use xlink:href="#DejaVuSans-65" x="364.599609"/>
    <use xlink:href="#DejaVuSans-2d" x="426.123047"/>
    <use xlink:href="#DejaVuSans-74" x="462.207031"/>
    <use xlink:href="#DejaVuSans-6f" x="501.416016"/>
    <use xlink:href="#DejaVuSans-6e" x="562.597656"/>
    <use xlink:href="#DejaVuSans-65" x="625.976562"/>
   </g>
   <!-- tuid: 20240220-142654-992-ac3290 -->
   <g transform="translate(101.452188 29.7555) scale(0.12 -0.12)">
    <defs>
     <path id="DejaVuSans-69" d="M 603 3500 
L 1178 3500 
L 1178 0 
L 603 0 
L 603 3500 
z
M 603 4863 
L 1178 4863 
L 1178 4134 
L 603 4134 
L 603 4863 
z
" transform="scale(0.015625)"/>
     <path id="DejaVuSans-64" d="M 2906 2969 
L 2906 4863 
L 3481 4863 
L 3481 0 
L 2906 0 
L 2906 525 
Q 2725 213 2448 61 
Q 2172 -91 1784 -91 
Q 1150 -91 751 415 
Q 353 922 353 1747 
Q 353 2572 751 3078 
Q 1150 3584 1784 3584 
Q 2172 3584 2448 3432 
Q 2725 3281 2906 2969 
z
M 947 1747 
Q 947 1113 1208 752 
Q 1469 391 1925 391 
Q 2381 391 2643 752 
Q 2906 1113 2906 1747 
Q 2906 2381 2643 2742 
Q 2381 3103 1925 3103 
Q 1469 3103 1208 2742 
Q 947 2381 947 1747 
z
" transform="scale(0.015625)"/>
     <path id="DejaVuSans-63" d="M 3122 3366 
L 3122 2828 
Q 2878 2963 2633 3030 
Q 2388 3097 2138 3097 
Q 1578 3097 1268 2742 
Q 959 2388 959 1747 
Q 959 1106 1268 751 
Q 1578 397 2138 397 
Q 2388 397 2633 464 
Q 2878 531 3122 666 
L 3122 134 
Q 2881 22 2623 -34 
Q 2366 -91 2075 -91 
Q 1284 -91 818 406 
Q 353 903 353 1747 
Q 353 2603 823 3093 
Q 1294 3584 2113 3584 
Q 2378 3584 2631 3529 
Q 2884 3475 3122 3366 
z
" transform="scale(0.015625)"/>
    </defs>
    <use xlink:href="#DejaVuSans-74"/>
    <use xlink:href="#DejaVuSans-75" x="39.208984"/>
    <use xlink:href="#DejaVuSans-69" x="102.587891"/>
    <use xlink:href="#DejaVuSans-64" x="130.371094"/>
    <use xlink:href="#DejaVuSans-3a" x="193.847656"/>
    <use xlink:href="#DejaVuSans-20" x="227.539062"/>
    <use xlink:href="#DejaVuSans-32" x="259.326172"/>
    <use xlink:href="#DejaVuSans-30" x="322.949219"/>
    <use xlink:href="#DejaVuSans-32" x="386.572266"/>
    <use xlink:href="#DejaVuSans-34" x="450.195312"/>
    <use xlink:href="#DejaVuSans-30" x="513.818359"/>
    <use xlink:href="#DejaVuSans-32" x="577.441406"/>
    <use xlink:href="#DejaVuSans-32" x="641.064453"/>
    <use xlink:href="#DejaVuSans-30" x="704.6875"/>
    <use xlink:href="#DejaVuSans-2d" x="768.310547"/>
    <use xlink:href="#DejaVuSans-31" x="804.394531"/>
    <use xlink:href="#DejaVuSans-34" x="868.017578"/>
    <use xlink:href="#DejaVuSans-32" x="931.640625"/>
    <use xlink:href="#DejaVuSans-36" x="995.263672"/>
    <use xlink:href="#DejaVuSans-35" x="1058.886719"/>
    <use xlink:href="#DejaVuSans-34" x="1122.509766"/>
    <use xlink:href="#DejaVuSans-2d" x="1186.132812"/>
    <use xlink:href="#DejaVuSans-39" x="1222.216797"/>
    <use xlink:href="#DejaVuSans-39" x="1285.839844"/>
    <use xlink:href="#DejaVuSans-32" x="1349.462891"/>
    <use xlink:href="#DejaVuSans-2d" x="1413.085938"/>
    <use xlink:href="#DejaVuSans-61" x="1449.169922"/>
    <use xlink:href="#DejaVuSans-63" x="1510.449219"/>
    <use xlink:href="#DejaVuSans-33" x="1565.429688"/>
    <use xlink:href="#DejaVuSans-32" x="1629.052734"/>
    <use xlink:href="#DejaVuSans-39" x="1692.675781"/>
    <use xlink:href="#DejaVuSans-30" x="1756.298828"/>
   </g>
  </g>
 </g>
 <defs>
  <clipPath id="p3e13ab9e3f">
   <rect x="37.848438" y="41.76" width="357.12" height="266.112"/>
  </clipPath>
 </defs>
</svg>
