<?xml version="1.0" encoding="utf-8" standalone="no"?>
<!DOCTYPE svg PUBLIC "-//W3C//DTD SVG 1.1//EN"
  "http://www.w3.org/Graphics/SVG/1.1/DTD/svg11.dtd">
<svg xmlns:xlink="http://www.w3.org/1999/xlink" width="647.026pt" height="345.42825pt" viewBox="0 0 647.026 345.42825" xmlns="http://www.w3.org/2000/svg" version="1.1">
 <metadata>
  <rdf:RDF xmlns:dc="http://purl.org/dc/elements/1.1/" xmlns:cc="http://creativecommons.org/ns#" xmlns:rdf="http://www.w3.org/1999/02/22-rdf-syntax-ns#">
   <cc:Work>
    <dc:type rdf:resource="http://purl.org/dc/dcmitype/StillImage"/>
    <dc:date>2024-03-04T13:47:51.515060</dc:date>
    <dc:format>image/svg+xml</dc:format>
    <dc:creator>
     <cc:Agent>
      <dc:title>Matplotlib v3.8.2, https://matplotlib.org/</dc:title>
     </cc:Agent>
    </dc:creator>
   </cc:Work>
  </rdf:RDF>
 </metadata>
 <defs>
  <style type="text/css">*{stroke-linejoin: round; stroke-linecap: butt}</style>
 </defs>
 <g id="figure_1">
  <g id="patch_1">
   <path d="M 0 345.42825 
L 647.026 345.42825 
L 647.026 -0 
L 0 -0 
L 0 345.42825 
z
" style="fill: none; opacity: 0"/>
  </g>
  <g id="axes_1">
   <g id="patch_2">
    <path d="M 46.965625 307.872 
L 404.085625 307.872 
L 404.085625 41.76 
L 46.965625 41.76 
z
" style="fill: #ffffff"/>
   </g>
   <g id="matplotlib.axis_1">
    <g id="xtick_1">
     <g id="line2d_1">
      <defs>
       <path id="m9878515236" d="M 0 0 
L 0 3.5 
" style="stroke: #000000; stroke-width: 0.8"/>
      </defs>
      <g>
       <use xlink:href="#m9878515236" x="76.166228" y="307.872" style="stroke: #000000; stroke-width: 0.8"/>
      </g>
     </g>
     <g id="text_1">
      <!-- 256 -->
      <g transform="translate(66.622478 322.470438) scale(0.1 -0.1)">
       <defs>
        <path id="DejaVuSans-32" d="M 1228 531 
L 3431 531 
L 3431 0 
L 469 0 
L 469 531 
Q 828 903 1448 1529 
Q 2069 2156 2228 2338 
Q 2531 2678 2651 2914 
Q 2772 3150 2772 3378 
Q 2772 3750 2511 3984 
Q 2250 4219 1831 4219 
Q 1534 4219 1204 4116 
Q 875 4013 500 3803 
L 500 4441 
Q 881 4594 1212 4672 
Q 1544 4750 1819 4750 
Q 2544 4750 2975 4387 
Q 3406 4025 3406 3419 
Q 3406 3131 3298 2873 
Q 3191 2616 2906 2266 
Q 2828 2175 2409 1742 
Q 1991 1309 1228 531 
z
" transform="scale(0.015625)"/>
        <path id="DejaVuSans-35" d="M 691 4666 
L 3169 4666 
L 3169 4134 
L 1269 4134 
L 1269 2991 
Q 1406 3038 1543 3061 
Q 1681 3084 1819 3084 
Q 2600 3084 3056 2656 
Q 3513 2228 3513 1497 
Q 3513 744 3044 326 
Q 2575 -91 1722 -91 
Q 1428 -91 1123 -41 
Q 819 9 494 109 
L 494 744 
Q 775 591 1075 516 
Q 1375 441 1709 441 
Q 2250 441 2565 725 
Q 2881 1009 2881 1497 
Q 2881 1984 2565 2268 
Q 2250 2553 1709 2553 
Q 1456 2553 1204 2497 
Q 953 2441 691 2322 
L 691 4666 
z
" transform="scale(0.015625)"/>
        <path id="DejaVuSans-36" d="M 2113 2584 
Q 1688 2584 1439 2293 
Q 1191 2003 1191 1497 
Q 1191 994 1439 701 
Q 1688 409 2113 409 
Q 2538 409 2786 701 
Q 3034 994 3034 1497 
Q 3034 2003 2786 2293 
Q 2538 2584 2113 2584 
z
M 3366 4563 
L 3366 3988 
Q 3128 4100 2886 4159 
Q 2644 4219 2406 4219 
Q 1781 4219 1451 3797 
Q 1122 3375 1075 2522 
Q 1259 2794 1537 2939 
Q 1816 3084 2150 3084 
Q 2853 3084 3261 2657 
Q 3669 2231 3669 1497 
Q 3669 778 3244 343 
Q 2819 -91 2113 -91 
Q 1303 -91 875 529 
Q 447 1150 447 2328 
Q 447 3434 972 4092 
Q 1497 4750 2381 4750 
Q 2619 4750 2861 4703 
Q 3103 4656 3366 4563 
z
" transform="scale(0.015625)"/>
       </defs>
       <use xlink:href="#DejaVuSans-32"/>
       <use xlink:href="#DejaVuSans-35" x="63.623047"/>
       <use xlink:href="#DejaVuSans-36" x="127.246094"/>
      </g>
     </g>
    </g>
    <g id="xtick_2">
     <g id="line2d_2">
      <g>
       <use xlink:href="#m9878515236" x="130.275319" y="307.872" style="stroke: #000000; stroke-width: 0.8"/>
      </g>
     </g>
     <g id="text_2">
      <!-- 257 -->
      <g transform="translate(120.731569 322.470438) scale(0.1 -0.1)">
       <defs>
        <path id="DejaVuSans-37" d="M 525 4666 
L 3525 4666 
L 3525 4397 
L 1831 0 
L 1172 0 
L 2766 4134 
L 525 4134 
L 525 4666 
z
" transform="scale(0.015625)"/>
       </defs>
       <use xlink:href="#DejaVuSans-32"/>
       <use xlink:href="#DejaVuSans-35" x="63.623047"/>
       <use xlink:href="#DejaVuSans-37" x="127.246094"/>
      </g>
     </g>
    </g>
    <g id="xtick_3">
     <g id="line2d_3">
      <g>
       <use xlink:href="#m9878515236" x="184.384409" y="307.872" style="stroke: #000000; stroke-width: 0.8"/>
      </g>
     </g>
     <g id="text_3">
      <!-- 258 -->
      <g transform="translate(174.840659 322.470438) scale(0.1 -0.1)">
       <defs>
        <path id="DejaVuSans-38" d="M 2034 2216 
Q 1584 2216 1326 1975 
Q 1069 1734 1069 1313 
Q 1069 891 1326 650 
Q 1584 409 2034 409 
Q 2484 409 2743 651 
Q 3003 894 3003 1313 
Q 3003 1734 2745 1975 
Q 2488 2216 2034 2216 
z
M 1403 2484 
Q 997 2584 770 2862 
Q 544 3141 544 3541 
Q 544 4100 942 4425 
Q 1341 4750 2034 4750 
Q 2731 4750 3128 4425 
Q 3525 4100 3525 3541 
Q 3525 3141 3298 2862 
Q 3072 2584 2669 2484 
Q 3125 2378 3379 2068 
Q 3634 1759 3634 1313 
Q 3634 634 3220 271 
Q 2806 -91 2034 -91 
Q 1263 -91 848 271 
Q 434 634 434 1313 
Q 434 1759 690 2068 
Q 947 2378 1403 2484 
z
M 1172 3481 
Q 1172 3119 1398 2916 
Q 1625 2713 2034 2713 
Q 2441 2713 2670 2916 
Q 2900 3119 2900 3481 
Q 2900 3844 2670 4047 
Q 2441 4250 2034 4250 
Q 1625 4250 1398 4047 
Q 1172 3844 1172 3481 
z
" transform="scale(0.015625)"/>
       </defs>
       <use xlink:href="#DejaVuSans-32"/>
       <use xlink:href="#DejaVuSans-35" x="63.623047"/>
       <use xlink:href="#DejaVuSans-38" x="127.246094"/>
      </g>
     </g>
    </g>
    <g id="xtick_4">
     <g id="line2d_4">
      <g>
       <use xlink:href="#m9878515236" x="238.4935" y="307.872" style="stroke: #000000; stroke-width: 0.8"/>
      </g>
     </g>
     <g id="text_4">
      <!-- 259 -->
      <g transform="translate(228.94975 322.470438) scale(0.1 -0.1)">
       <defs>
        <path id="DejaVuSans-39" d="M 703 97 
L 703 672 
Q 941 559 1184 500 
Q 1428 441 1663 441 
Q 2288 441 2617 861 
Q 2947 1281 2994 2138 
Q 2813 1869 2534 1725 
Q 2256 1581 1919 1581 
Q 1219 1581 811 2004 
Q 403 2428 403 3163 
Q 403 3881 828 4315 
Q 1253 4750 1959 4750 
Q 2769 4750 3195 4129 
Q 3622 3509 3622 2328 
Q 3622 1225 3098 567 
Q 2575 -91 1691 -91 
Q 1453 -91 1209 -44 
Q 966 3 703 97 
z
M 1959 2075 
Q 2384 2075 2632 2365 
Q 2881 2656 2881 3163 
Q 2881 3666 2632 3958 
Q 2384 4250 1959 4250 
Q 1534 4250 1286 3958 
Q 1038 3666 1038 3163 
Q 1038 2656 1286 2365 
Q 1534 2075 1959 2075 
z
" transform="scale(0.015625)"/>
       </defs>
       <use xlink:href="#DejaVuSans-32"/>
       <use xlink:href="#DejaVuSans-35" x="63.623047"/>
       <use xlink:href="#DejaVuSans-39" x="127.246094"/>
      </g>
     </g>
    </g>
    <g id="xtick_5">
     <g id="line2d_5">
      <g>
       <use xlink:href="#m9878515236" x="292.602591" y="307.872" style="stroke: #000000; stroke-width: 0.8"/>
      </g>
     </g>
     <g id="text_5">
      <!-- 260 -->
      <g transform="translate(283.058841 322.470438) scale(0.1 -0.1)">
       <defs>
        <path id="DejaVuSans-30" d="M 2034 4250 
Q 1547 4250 1301 3770 
Q 1056 3291 1056 2328 
Q 1056 1369 1301 889 
Q 1547 409 2034 409 
Q 2525 409 2770 889 
Q 3016 1369 3016 2328 
Q 3016 3291 2770 3770 
Q 2525 4250 2034 4250 
z
M 2034 4750 
Q 2819 4750 3233 4129 
Q 3647 3509 3647 2328 
Q 3647 1150 3233 529 
Q 2819 -91 2034 -91 
Q 1250 -91 836 529 
Q 422 1150 422 2328 
Q 422 3509 836 4129 
Q 1250 4750 2034 4750 
z
" transform="scale(0.015625)"/>
       </defs>
       <use xlink:href="#DejaVuSans-32"/>
       <use xlink:href="#DejaVuSans-36" x="63.623047"/>
       <use xlink:href="#DejaVuSans-30" x="127.246094"/>
      </g>
     </g>
    </g>
    <g id="xtick_6">
     <g id="line2d_6">
      <g>
       <use xlink:href="#m9878515236" x="346.711682" y="307.872" style="stroke: #000000; stroke-width: 0.8"/>
      </g>
     </g>
     <g id="text_6">
      <!-- 261 -->
      <g transform="translate(337.167932 322.470438) scale(0.1 -0.1)">
       <defs>
        <path id="DejaVuSans-31" d="M 794 531 
L 1825 531 
L 1825 4091 
L 703 3866 
L 703 4441 
L 1819 4666 
L 2450 4666 
L 2450 531 
L 3481 531 
L 3481 0 
L 794 0 
L 794 531 
z
" transform="scale(0.015625)"/>
       </defs>
       <use xlink:href="#DejaVuSans-32"/>
       <use xlink:href="#DejaVuSans-36" x="63.623047"/>
       <use xlink:href="#DejaVuSans-31" x="127.246094"/>
      </g>
     </g>
    </g>
    <g id="xtick_7">
     <g id="line2d_7">
      <g>
       <use xlink:href="#m9878515236" x="400.820773" y="307.872" style="stroke: #000000; stroke-width: 0.8"/>
      </g>
     </g>
     <g id="text_7">
      <!-- 262 -->
      <g transform="translate(391.277023 322.470438) scale(0.1 -0.1)">
       <use xlink:href="#DejaVuSans-32"/>
       <use xlink:href="#DejaVuSans-36" x="63.623047"/>
       <use xlink:href="#DejaVuSans-32" x="127.246094"/>
      </g>
     </g>
    </g>
    <g id="text_8">
     <!-- Frequency [MHz] -->
     <g transform="translate(183.506875 336.148562) scale(0.1 -0.1)">
      <defs>
       <path id="DejaVuSans-46" d="M 628 4666 
L 3309 4666 
L 3309 4134 
L 1259 4134 
L 1259 2759 
L 3109 2759 
L 3109 2228 
L 1259 2228 
L 1259 0 
L 628 0 
L 628 4666 
z
" transform="scale(0.015625)"/>
       <path id="DejaVuSans-72" d="M 2631 2963 
Q 2534 3019 2420 3045 
Q 2306 3072 2169 3072 
Q 1681 3072 1420 2755 
Q 1159 2438 1159 1844 
L 1159 0 
L 581 0 
L 581 3500 
L 1159 3500 
L 1159 2956 
Q 1341 3275 1631 3429 
Q 1922 3584 2338 3584 
Q 2397 3584 2469 3576 
Q 2541 3569 2628 3553 
L 2631 2963 
z
" transform="scale(0.015625)"/>
       <path id="DejaVuSans-65" d="M 3597 1894 
L 3597 1613 
L 953 1613 
Q 991 1019 1311 708 
Q 1631 397 2203 397 
Q 2534 397 2845 478 
Q 3156 559 3463 722 
L 3463 178 
Q 3153 47 2828 -22 
Q 2503 -91 2169 -91 
Q 1331 -91 842 396 
Q 353 884 353 1716 
Q 353 2575 817 3079 
Q 1281 3584 2069 3584 
Q 2775 3584 3186 3129 
Q 3597 2675 3597 1894 
z
M 3022 2063 
Q 3016 2534 2758 2815 
Q 2500 3097 2075 3097 
Q 1594 3097 1305 2825 
Q 1016 2553 972 2059 
L 3022 2063 
z
" transform="scale(0.015625)"/>
       <path id="DejaVuSans-71" d="M 947 1747 
Q 947 1113 1208 752 
Q 1469 391 1925 391 
Q 2381 391 2643 752 
Q 2906 1113 2906 1747 
Q 2906 2381 2643 2742 
Q 2381 3103 1925 3103 
Q 1469 3103 1208 2742 
Q 947 2381 947 1747 
z
M 2906 525 
Q 2725 213 2448 61 
Q 2172 -91 1784 -91 
Q 1150 -91 751 415 
Q 353 922 353 1747 
Q 353 2572 751 3078 
Q 1150 3584 1784 3584 
Q 2172 3584 2448 3432 
Q 2725 3281 2906 2969 
L 2906 3500 
L 3481 3500 
L 3481 -1331 
L 2906 -1331 
L 2906 525 
z
" transform="scale(0.015625)"/>
       <path id="DejaVuSans-75" d="M 544 1381 
L 544 3500 
L 1119 3500 
L 1119 1403 
Q 1119 906 1312 657 
Q 1506 409 1894 409 
Q 2359 409 2629 706 
Q 2900 1003 2900 1516 
L 2900 3500 
L 3475 3500 
L 3475 0 
L 2900 0 
L 2900 538 
Q 2691 219 2414 64 
Q 2138 -91 1772 -91 
Q 1169 -91 856 284 
Q 544 659 544 1381 
z
M 1991 3584 
L 1991 3584 
z
" transform="scale(0.015625)"/>
       <path id="DejaVuSans-6e" d="M 3513 2113 
L 3513 0 
L 2938 0 
L 2938 2094 
Q 2938 2591 2744 2837 
Q 2550 3084 2163 3084 
Q 1697 3084 1428 2787 
Q 1159 2491 1159 1978 
L 1159 0 
L 581 0 
L 581 3500 
L 1159 3500 
L 1159 2956 
Q 1366 3272 1645 3428 
Q 1925 3584 2291 3584 
Q 2894 3584 3203 3211 
Q 3513 2838 3513 2113 
z
" transform="scale(0.015625)"/>
       <path id="DejaVuSans-63" d="M 3122 3366 
L 3122 2828 
Q 2878 2963 2633 3030 
Q 2388 3097 2138 3097 
Q 1578 3097 1268 2742 
Q 959 2388 959 1747 
Q 959 1106 1268 751 
Q 1578 397 2138 397 
Q 2388 397 2633 464 
Q 2878 531 3122 666 
L 3122 134 
Q 2881 22 2623 -34 
Q 2366 -91 2075 -91 
Q 1284 -91 818 406 
Q 353 903 353 1747 
Q 353 2603 823 3093 
Q 1294 3584 2113 3584 
Q 2378 3584 2631 3529 
Q 2884 3475 3122 3366 
z
" transform="scale(0.015625)"/>
       <path id="DejaVuSans-79" d="M 2059 -325 
Q 1816 -950 1584 -1140 
Q 1353 -1331 966 -1331 
L 506 -1331 
L 506 -850 
L 844 -850 
Q 1081 -850 1212 -737 
Q 1344 -625 1503 -206 
L 1606 56 
L 191 3500 
L 800 3500 
L 1894 763 
L 2988 3500 
L 3597 3500 
L 2059 -325 
z
" transform="scale(0.015625)"/>
       <path id="DejaVuSans-20" transform="scale(0.015625)"/>
       <path id="DejaVuSans-5b" d="M 550 4863 
L 1875 4863 
L 1875 4416 
L 1125 4416 
L 1125 -397 
L 1875 -397 
L 1875 -844 
L 550 -844 
L 550 4863 
z
" transform="scale(0.015625)"/>
       <path id="DejaVuSans-4d" d="M 628 4666 
L 1569 4666 
L 2759 1491 
L 3956 4666 
L 4897 4666 
L 4897 0 
L 4281 0 
L 4281 4097 
L 3078 897 
L 2444 897 
L 1241 4097 
L 1241 0 
L 628 0 
L 628 4666 
z
" transform="scale(0.015625)"/>
       <path id="DejaVuSans-48" d="M 628 4666 
L 1259 4666 
L 1259 2753 
L 3553 2753 
L 3553 4666 
L 4184 4666 
L 4184 0 
L 3553 0 
L 3553 2222 
L 1259 2222 
L 1259 0 
L 628 0 
L 628 4666 
z
" transform="scale(0.015625)"/>
       <path id="DejaVuSans-7a" d="M 353 3500 
L 3084 3500 
L 3084 2975 
L 922 459 
L 3084 459 
L 3084 0 
L 275 0 
L 275 525 
L 2438 3041 
L 353 3041 
L 353 3500 
z
" transform="scale(0.015625)"/>
       <path id="DejaVuSans-5d" d="M 1947 4863 
L 1947 -844 
L 622 -844 
L 622 -397 
L 1369 -397 
L 1369 4416 
L 622 4416 
L 622 4863 
L 1947 4863 
z
" transform="scale(0.015625)"/>
      </defs>
      <use xlink:href="#DejaVuSans-46"/>
      <use xlink:href="#DejaVuSans-72" x="50.269531"/>
      <use xlink:href="#DejaVuSans-65" x="89.132812"/>
      <use xlink:href="#DejaVuSans-71" x="150.65625"/>
      <use xlink:href="#DejaVuSans-75" x="214.132812"/>
      <use xlink:href="#DejaVuSans-65" x="277.511719"/>
      <use xlink:href="#DejaVuSans-6e" x="339.035156"/>
      <use xlink:href="#DejaVuSans-63" x="402.414062"/>
      <use xlink:href="#DejaVuSans-79" x="457.394531"/>
      <use xlink:href="#DejaVuSans-20" x="516.574219"/>
      <use xlink:href="#DejaVuSans-5b" x="548.361328"/>
      <use xlink:href="#DejaVuSans-4d" x="587.375"/>
      <use xlink:href="#DejaVuSans-48" x="673.654297"/>
      <use xlink:href="#DejaVuSans-7a" x="748.849609"/>
      <use xlink:href="#DejaVuSans-5d" x="801.339844"/>
     </g>
    </g>
    <g id="text_9">
     <!-- +5 GHz -->
     <g transform="translate(365.648125 335.148562) scale(0.1 -0.1)">
      <defs>
       <path id="DejaVuSans-2b" d="M 2944 4013 
L 2944 2272 
L 4684 2272 
L 4684 1741 
L 2944 1741 
L 2944 0 
L 2419 0 
L 2419 1741 
L 678 1741 
L 678 2272 
L 2419 2272 
L 2419 4013 
L 2944 4013 
z
" transform="scale(0.015625)"/>
       <path id="DejaVuSans-47" d="M 3809 666 
L 3809 1919 
L 2778 1919 
L 2778 2438 
L 4434 2438 
L 4434 434 
Q 4069 175 3628 42 
Q 3188 -91 2688 -91 
Q 1594 -91 976 548 
Q 359 1188 359 2328 
Q 359 3472 976 4111 
Q 1594 4750 2688 4750 
Q 3144 4750 3555 4637 
Q 3966 4525 4313 4306 
L 4313 3634 
Q 3963 3931 3569 4081 
Q 3175 4231 2741 4231 
Q 1884 4231 1454 3753 
Q 1025 3275 1025 2328 
Q 1025 1384 1454 906 
Q 1884 428 2741 428 
Q 3075 428 3337 486 
Q 3600 544 3809 666 
z
" transform="scale(0.015625)"/>
      </defs>
      <use xlink:href="#DejaVuSans-2b"/>
      <use xlink:href="#DejaVuSans-35" x="83.789062"/>
      <use xlink:href="#DejaVuSans-20" x="147.412109"/>
      <use xlink:href="#DejaVuSans-47" x="179.199219"/>
      <use xlink:href="#DejaVuSans-48" x="256.689453"/>
      <use xlink:href="#DejaVuSans-7a" x="331.884766"/>
     </g>
    </g>
   </g>
   <g id="matplotlib.axis_2">
    <g id="ytick_1">
     <g id="line2d_8">
      <defs>
       <path id="m3d479c53d5" d="M 0 0 
L -3.5 0 
" style="stroke: #000000; stroke-width: 0.8"/>
      </defs>
      <g>
       <use xlink:href="#m3d479c53d5" x="46.965625" y="268.798619" style="stroke: #000000; stroke-width: 0.8"/>
      </g>
     </g>
     <g id="text_10">
      <!-- 110 -->
      <g transform="translate(20.878125 272.597838) scale(0.1 -0.1)">
       <use xlink:href="#DejaVuSans-31"/>
       <use xlink:href="#DejaVuSans-31" x="63.623047"/>
       <use xlink:href="#DejaVuSans-30" x="127.246094"/>
      </g>
     </g>
    </g>
    <g id="ytick_2">
     <g id="line2d_9">
      <g>
       <use xlink:href="#m3d479c53d5" x="46.965625" y="222.619215" style="stroke: #000000; stroke-width: 0.8"/>
      </g>
     </g>
     <g id="text_11">
      <!-- 120 -->
      <g transform="translate(20.878125 226.418434) scale(0.1 -0.1)">
       <use xlink:href="#DejaVuSans-31"/>
       <use xlink:href="#DejaVuSans-32" x="63.623047"/>
       <use xlink:href="#DejaVuSans-30" x="127.246094"/>
      </g>
     </g>
    </g>
    <g id="ytick_3">
     <g id="line2d_10">
      <g>
       <use xlink:href="#m3d479c53d5" x="46.965625" y="176.439811" style="stroke: #000000; stroke-width: 0.8"/>
      </g>
     </g>
     <g id="text_12">
      <!-- 130 -->
      <g transform="translate(20.878125 180.23903) scale(0.1 -0.1)">
       <defs>
        <path id="DejaVuSans-33" d="M 2597 2516 
Q 3050 2419 3304 2112 
Q 3559 1806 3559 1356 
Q 3559 666 3084 287 
Q 2609 -91 1734 -91 
Q 1441 -91 1130 -33 
Q 819 25 488 141 
L 488 750 
Q 750 597 1062 519 
Q 1375 441 1716 441 
Q 2309 441 2620 675 
Q 2931 909 2931 1356 
Q 2931 1769 2642 2001 
Q 2353 2234 1838 2234 
L 1294 2234 
L 1294 2753 
L 1863 2753 
Q 2328 2753 2575 2939 
Q 2822 3125 2822 3475 
Q 2822 3834 2567 4026 
Q 2313 4219 1838 4219 
Q 1578 4219 1281 4162 
Q 984 4106 628 3988 
L 628 4550 
Q 988 4650 1302 4700 
Q 1616 4750 1894 4750 
Q 2613 4750 3031 4423 
Q 3450 4097 3450 3541 
Q 3450 3153 3228 2886 
Q 3006 2619 2597 2516 
z
" transform="scale(0.015625)"/>
       </defs>
       <use xlink:href="#DejaVuSans-31"/>
       <use xlink:href="#DejaVuSans-33" x="63.623047"/>
       <use xlink:href="#DejaVuSans-30" x="127.246094"/>
      </g>
     </g>
    </g>
    <g id="ytick_4">
     <g id="line2d_11">
      <g>
       <use xlink:href="#m3d479c53d5" x="46.965625" y="130.260407" style="stroke: #000000; stroke-width: 0.8"/>
      </g>
     </g>
     <g id="text_13">
      <!-- 140 -->
      <g transform="translate(20.878125 134.059626) scale(0.1 -0.1)">
       <defs>
        <path id="DejaVuSans-34" d="M 2419 4116 
L 825 1625 
L 2419 1625 
L 2419 4116 
z
M 2253 4666 
L 3047 4666 
L 3047 1625 
L 3713 1625 
L 3713 1100 
L 3047 1100 
L 3047 0 
L 2419 0 
L 2419 1100 
L 313 1100 
L 313 1709 
L 2253 4666 
z
" transform="scale(0.015625)"/>
       </defs>
       <use xlink:href="#DejaVuSans-31"/>
       <use xlink:href="#DejaVuSans-34" x="63.623047"/>
       <use xlink:href="#DejaVuSans-30" x="127.246094"/>
      </g>
     </g>
    </g>
    <g id="ytick_5">
     <g id="line2d_12">
      <g>
       <use xlink:href="#m3d479c53d5" x="46.965625" y="84.081003" style="stroke: #000000; stroke-width: 0.8"/>
      </g>
     </g>
     <g id="text_14">
      <!-- 150 -->
      <g transform="translate(20.878125 87.880222) scale(0.1 -0.1)">
       <use xlink:href="#DejaVuSans-31"/>
       <use xlink:href="#DejaVuSans-35" x="63.623047"/>
       <use xlink:href="#DejaVuSans-30" x="127.246094"/>
      </g>
     </g>
    </g>
    <g id="text_15">
     <!-- Phase0 [deg] -->
     <g transform="translate(14.798438 207.841781) rotate(-90) scale(0.1 -0.1)">
      <defs>
       <path id="DejaVuSans-50" d="M 1259 4147 
L 1259 2394 
L 2053 2394 
Q 2494 2394 2734 2622 
Q 2975 2850 2975 3272 
Q 2975 3691 2734 3919 
Q 2494 4147 2053 4147 
L 1259 4147 
z
M 628 4666 
L 2053 4666 
Q 2838 4666 3239 4311 
Q 3641 3956 3641 3272 
Q 3641 2581 3239 2228 
Q 2838 1875 2053 1875 
L 1259 1875 
L 1259 0 
L 628 0 
L 628 4666 
z
" transform="scale(0.015625)"/>
       <path id="DejaVuSans-68" d="M 3513 2113 
L 3513 0 
L 2938 0 
L 2938 2094 
Q 2938 2591 2744 2837 
Q 2550 3084 2163 3084 
Q 1697 3084 1428 2787 
Q 1159 2491 1159 1978 
L 1159 0 
L 581 0 
L 581 4863 
L 1159 4863 
L 1159 2956 
Q 1366 3272 1645 3428 
Q 1925 3584 2291 3584 
Q 2894 3584 3203 3211 
Q 3513 2838 3513 2113 
z
" transform="scale(0.015625)"/>
       <path id="DejaVuSans-61" d="M 2194 1759 
Q 1497 1759 1228 1600 
Q 959 1441 959 1056 
Q 959 750 1161 570 
Q 1363 391 1709 391 
Q 2188 391 2477 730 
Q 2766 1069 2766 1631 
L 2766 1759 
L 2194 1759 
z
M 3341 1997 
L 3341 0 
L 2766 0 
L 2766 531 
Q 2569 213 2275 61 
Q 1981 -91 1556 -91 
Q 1019 -91 701 211 
Q 384 513 384 1019 
Q 384 1609 779 1909 
Q 1175 2209 1959 2209 
L 2766 2209 
L 2766 2266 
Q 2766 2663 2505 2880 
Q 2244 3097 1772 3097 
Q 1472 3097 1187 3025 
Q 903 2953 641 2809 
L 641 3341 
Q 956 3463 1253 3523 
Q 1550 3584 1831 3584 
Q 2591 3584 2966 3190 
Q 3341 2797 3341 1997 
z
" transform="scale(0.015625)"/>
       <path id="DejaVuSans-73" d="M 2834 3397 
L 2834 2853 
Q 2591 2978 2328 3040 
Q 2066 3103 1784 3103 
Q 1356 3103 1142 2972 
Q 928 2841 928 2578 
Q 928 2378 1081 2264 
Q 1234 2150 1697 2047 
L 1894 2003 
Q 2506 1872 2764 1633 
Q 3022 1394 3022 966 
Q 3022 478 2636 193 
Q 2250 -91 1575 -91 
Q 1294 -91 989 -36 
Q 684 19 347 128 
L 347 722 
Q 666 556 975 473 
Q 1284 391 1588 391 
Q 1994 391 2212 530 
Q 2431 669 2431 922 
Q 2431 1156 2273 1281 
Q 2116 1406 1581 1522 
L 1381 1569 
Q 847 1681 609 1914 
Q 372 2147 372 2553 
Q 372 3047 722 3315 
Q 1072 3584 1716 3584 
Q 2034 3584 2315 3537 
Q 2597 3491 2834 3397 
z
" transform="scale(0.015625)"/>
       <path id="DejaVuSans-64" d="M 2906 2969 
L 2906 4863 
L 3481 4863 
L 3481 0 
L 2906 0 
L 2906 525 
Q 2725 213 2448 61 
Q 2172 -91 1784 -91 
Q 1150 -91 751 415 
Q 353 922 353 1747 
Q 353 2572 751 3078 
Q 1150 3584 1784 3584 
Q 2172 3584 2448 3432 
Q 2725 3281 2906 2969 
z
M 947 1747 
Q 947 1113 1208 752 
Q 1469 391 1925 391 
Q 2381 391 2643 752 
Q 2906 1113 2906 1747 
Q 2906 2381 2643 2742 
Q 2381 3103 1925 3103 
Q 1469 3103 1208 2742 
Q 947 2381 947 1747 
z
" transform="scale(0.015625)"/>
       <path id="DejaVuSans-67" d="M 2906 1791 
Q 2906 2416 2648 2759 
Q 2391 3103 1925 3103 
Q 1463 3103 1205 2759 
Q 947 2416 947 1791 
Q 947 1169 1205 825 
Q 1463 481 1925 481 
Q 2391 481 2648 825 
Q 2906 1169 2906 1791 
z
M 3481 434 
Q 3481 -459 3084 -895 
Q 2688 -1331 1869 -1331 
Q 1566 -1331 1297 -1286 
Q 1028 -1241 775 -1147 
L 775 -588 
Q 1028 -725 1275 -790 
Q 1522 -856 1778 -856 
Q 2344 -856 2625 -561 
Q 2906 -266 2906 331 
L 2906 616 
Q 2728 306 2450 153 
Q 2172 0 1784 0 
Q 1141 0 747 490 
Q 353 981 353 1791 
Q 353 2603 747 3093 
Q 1141 3584 1784 3584 
Q 2172 3584 2450 3431 
Q 2728 3278 2906 2969 
L 2906 3500 
L 3481 3500 
L 3481 434 
z
" transform="scale(0.015625)"/>
      </defs>
      <use xlink:href="#DejaVuSans-50"/>
      <use xlink:href="#DejaVuSans-68" x="60.302734"/>
      <use xlink:href="#DejaVuSans-61" x="123.681641"/>
      <use xlink:href="#DejaVuSans-73" x="184.960938"/>
      <use xlink:href="#DejaVuSans-65" x="237.060547"/>
      <use xlink:href="#DejaVuSans-30" x="298.583984"/>
      <use xlink:href="#DejaVuSans-20" x="362.207031"/>
      <use xlink:href="#DejaVuSans-5b" x="393.994141"/>
      <use xlink:href="#DejaVuSans-64" x="433.007812"/>
      <use xlink:href="#DejaVuSans-65" x="496.484375"/>
      <use xlink:href="#DejaVuSans-67" x="558.007812"/>
      <use xlink:href="#DejaVuSans-5d" x="621.484375"/>
     </g>
    </g>
   </g>
   <g id="line2d_13">
    <path d="M 63.198352 110.403349 
L 74.393337 109.489813 
L 85.588321 110.865449 
L 96.783305 124.304244 
L 107.97829 132.95702 
L 119.173274 132.441906 
L 130.368258 150.938202 
L 141.563243 153.966099 
L 152.758227 170.898767 
L 163.953211 168.465712 
L 175.148196 195.183418 
L 186.34318 207.041874 
L 197.538164 230.022776 
L 208.733149 270.24373 
L 219.928133 248.284146 
L 231.123117 108.380836 
L 242.318101 53.856 
L 253.513086 101.09263 
L 264.70807 126.525383 
L 275.903054 140.434185 
L 287.098039 164.110786 
L 298.293023 181.329937 
L 309.488007 215.859649 
L 320.682992 206.551999 
L 331.877976 218.221664 
L 343.07296 228.435537 
L 354.267945 249.710529 
L 365.462929 255.669122 
L 376.657913 279.113505 
L 387.852898 292.706309 
" clip-path="url(#pf590588260)" style="fill: none; stroke: #440154; stroke-width: 1.5; stroke-linecap: square"/>
   </g>
   <g id="line2d_14">
    <path d="M 63.198352 81.420244 
L 74.393337 91.241572 
L 85.588321 112.80777 
L 96.783305 128.640482 
L 107.97829 119.037502 
L 119.173274 138.104812 
L 130.368258 145.52995 
L 141.563243 161.717374 
L 152.758227 163.954351 
L 163.953211 189.367588 
L 175.148196 204.656849 
L 186.34318 216.776261 
L 197.538164 246.933453 
L 208.733149 290.985963 
L 219.928133 230.962652 
L 231.123117 125.288289 
L 242.318101 82.549948 
L 253.513086 103.34231 
L 264.70807 123.093829 
L 275.903054 140.892103 
L 287.098039 178.435377 
L 298.293023 194.190767 
L 309.488007 207.263124 
L 320.682992 224.32415 
L 331.877976 243.683672 
L 343.07296 248.338396 
L 354.267945 257.060669 
L 365.462929 264.196574 
L 376.657913 283.031293 
L 387.852898 286.232784 
" clip-path="url(#pf590588260)" style="fill: none; stroke: #470d60; stroke-width: 1.5; stroke-linecap: square"/>
   </g>
   <g id="line2d_15">
    <path d="M 63.198352 90.091016 
L 74.393337 99.972141 
L 85.588321 111.796233 
L 96.783305 125.791803 
L 107.97829 124.293222 
L 119.173274 136.365579 
L 130.368258 147.40335 
L 141.563243 154.025454 
L 152.758227 164.798764 
L 163.953211 177.268831 
L 175.148196 199.093743 
L 186.34318 218.250713 
L 197.538164 245.328602 
L 208.733149 276.684923 
L 219.928133 215.928348 
L 231.123117 103.417684 
L 242.318101 71.707927 
L 253.513086 103.816157 
L 264.70807 129.429449 
L 275.903054 151.321647 
L 287.098039 176.278271 
L 298.293023 187.066621 
L 309.488007 204.274069 
L 320.682992 219.662618 
L 331.877976 242.054585 
L 343.07296 240.968691 
L 354.267945 258.987776 
L 365.462929 270.796945 
L 376.657913 283.080239 
L 387.852898 283.751089 
" clip-path="url(#pf590588260)" style="fill: none; stroke: #481a6c; stroke-width: 1.5; stroke-linecap: square"/>
   </g>
   <g id="line2d_16">
    <path d="M 63.198352 98.164811 
L 74.393337 98.960612 
L 85.588321 112.285083 
L 96.783305 118.832929 
L 107.97829 125.508205 
L 119.173274 136.173072 
L 130.368258 149.962298 
L 141.563243 160.709052 
L 152.758227 171.646564 
L 163.953211 185.569289 
L 175.148196 196.213658 
L 186.34318 220.095648 
L 197.538164 253.358076 
L 208.733149 270.256102 
L 219.928133 215.225113 
L 231.123117 69.42423 
L 242.318101 70.810286 
L 253.513086 96.20524 
L 264.70807 134.430351 
L 275.903054 157.448777 
L 287.098039 173.244192 
L 298.293023 192.113335 
L 309.488007 209.501336 
L 320.682992 217.871188 
L 331.877976 234.414724 
L 343.07296 235.836772 
L 354.267945 256.988158 
L 365.462929 263.429523 
L 376.657913 269.90142 
L 387.852898 295.776 
" clip-path="url(#pf590588260)" style="fill: none; stroke: #482576; stroke-width: 1.5; stroke-linecap: square"/>
   </g>
   <g id="line2d_17">
    <path d="M 63.198352 98.63267 
L 74.393337 108.183509 
L 85.588321 115.750483 
L 96.783305 122.481693 
L 107.97829 130.301342 
L 119.173274 134.370961 
L 130.368258 142.448465 
L 141.563243 164.459065 
L 152.758227 178.957409 
L 163.953211 187.632971 
L 175.148196 202.101439 
L 186.34318 221.472022 
L 197.538164 251.002899 
L 208.733149 272.979423 
L 219.928133 193.16145 
L 231.123117 72.611787 
L 242.318101 76.087794 
L 253.513086 100.281978 
L 264.70807 122.437122 
L 275.903054 149.569009 
L 287.098039 164.014529 
L 298.293023 186.41975 
L 309.488007 188.882891 
L 320.682992 213.660761 
L 331.877976 226.168504 
L 343.07296 236.092354 
L 354.267945 254.142398 
L 365.462929 260.208099 
L 376.657913 271.521938 
L 387.852898 289.875269 
" clip-path="url(#pf590588260)" style="fill: none; stroke: #46307e; stroke-width: 1.5; stroke-linecap: square"/>
   </g>
   <g id="line2d_18">
    <path d="M 63.198352 103.244067 
L 74.393337 114.173142 
L 85.588321 118.944833 
L 96.783305 125.837969 
L 107.97829 136.530887 
L 119.173274 138.820748 
L 130.368258 146.929128 
L 141.563243 162.333504 
L 152.758227 179.327766 
L 163.953211 183.755906 
L 175.148196 201.610424 
L 186.34318 217.269919 
L 197.538164 252.651459 
L 208.733149 267.832599 
L 219.928133 173.763844 
L 231.123117 87.332624 
L 242.318101 66.315695 
L 253.513086 99.48059 
L 264.70807 115.683275 
L 275.903054 149.529323 
L 287.098039 167.802104 
L 298.293023 185.557149 
L 309.488007 200.663785 
L 320.682992 205.939002 
L 331.877976 214.585379 
L 343.07296 229.911804 
L 354.267945 245.324862 
L 365.462929 257.870501 
L 376.657913 266.838522 
L 387.852898 276.497844 
" clip-path="url(#pf590588260)" style="fill: none; stroke: #443b84; stroke-width: 1.5; stroke-linecap: square"/>
   </g>
   <g id="line2d_19">
    <path d="M 63.198352 104.797385 
L 74.393337 114.007213 
L 85.588321 121.672587 
L 96.783305 125.12985 
L 107.97829 142.667254 
L 119.173274 140.05088 
L 130.368258 152.799566 
L 141.563243 163.592079 
L 152.758227 173.325661 
L 163.953211 186.691009 
L 175.148196 203.265861 
L 186.34318 218.651573 
L 197.538164 252.127882 
L 208.733149 266.873077 
L 219.928133 195.336237 
L 231.123117 76.078285 
L 242.318101 71.530548 
L 253.513086 93.836896 
L 264.70807 124.830506 
L 275.903054 144.612817 
L 287.098039 161.828909 
L 298.293023 174.440263 
L 309.488007 193.132762 
L 320.682992 205.572774 
L 331.877976 216.866224 
L 343.07296 233.042884 
L 354.267945 241.668515 
L 365.462929 248.959361 
L 376.657913 262.444555 
L 387.852898 275.898909 
" clip-path="url(#pf590588260)" style="fill: none; stroke: #404588; stroke-width: 1.5; stroke-linecap: square"/>
   </g>
   <g id="line2d_20">
    <path d="M 63.198352 106.712472 
L 74.393337 114.57195 
L 85.588321 123.428733 
L 96.783305 129.080201 
L 107.97829 131.7649 
L 119.173274 145.538412 
L 130.368258 152.125429 
L 141.563243 164.269683 
L 152.758227 171.160828 
L 163.953211 183.650391 
L 175.148196 203.905841 
L 186.34318 228.265877 
L 197.538164 248.533221 
L 208.733149 263.544947 
L 219.928133 175.839695 
L 231.123117 71.875918 
L 242.318101 65.978298 
L 253.513086 97.183259 
L 264.70807 123.961879 
L 275.903054 150.178401 
L 287.098039 162.511048 
L 298.293023 174.379707 
L 309.488007 193.373081 
L 320.682992 202.02821 
L 331.877976 219.157676 
L 343.07296 230.296745 
L 354.267945 238.748715 
L 365.462929 251.835086 
L 376.657913 266.226149 
L 387.852898 271.195166 
" clip-path="url(#pf590588260)" style="fill: none; stroke: #3c4f8a; stroke-width: 1.5; stroke-linecap: square"/>
   </g>
   <g id="line2d_21">
    <path d="M 63.198352 110.244433 
L 74.393337 115.359225 
L 85.588321 117.870211 
L 96.783305 129.173799 
L 107.97829 135.637465 
L 119.173274 143.202311 
L 130.368258 154.218062 
L 141.563243 161.320404 
L 152.758227 171.293492 
L 163.953211 185.876701 
L 175.148196 204.833213 
L 186.34318 223.8799 
L 197.538164 254.157829 
L 208.733149 263.257809 
L 219.928133 179.597719 
L 231.123117 65.060071 
L 242.318101 72.112029 
L 253.513086 101.55266 
L 264.70807 127.73628 
L 275.903054 150.601754 
L 287.098039 168.594122 
L 298.293023 178.409365 
L 309.488007 193.993241 
L 320.682992 205.326296 
L 331.877976 222.193954 
L 343.07296 232.276054 
L 354.267945 246.406534 
L 365.462929 256.549079 
L 376.657913 266.070961 
L 387.852898 280.511241 
" clip-path="url(#pf590588260)" style="fill: none; stroke: #38598c; stroke-width: 1.5; stroke-linecap: square"/>
   </g>
   <g id="line2d_22">
    <path d="M 63.198352 103.890888 
L 74.393337 115.056412 
L 85.588321 114.531587 
L 96.783305 122.749718 
L 107.97829 132.87112 
L 119.173274 140.735359 
L 130.368258 149.630184 
L 141.563243 159.597831 
L 152.758227 172.500436 
L 163.953211 184.334992 
L 175.148196 202.917814 
L 186.34318 221.266114 
L 197.538164 250.239052 
L 208.733149 265.216689 
L 219.928133 176.850566 
L 231.123117 71.886626 
L 242.318101 65.115274 
L 253.513086 95.381576 
L 264.70807 123.206562 
L 275.903054 145.181448 
L 287.098039 163.814564 
L 298.293023 182.164817 
L 309.488007 192.25228 
L 320.682992 205.794277 
L 331.877976 220.070018 
L 343.07296 236.481248 
L 354.267945 244.956643 
L 365.462929 258.692249 
L 376.657913 269.435583 
L 387.852898 278.793251 
" clip-path="url(#pf590588260)" style="fill: none; stroke: #33628d; stroke-width: 1.5; stroke-linecap: square"/>
   </g>
   <g id="line2d_23">
    <path d="M 63.198352 104.713087 
L 74.393337 112.694823 
L 85.588321 119.119697 
L 96.783305 124.618609 
L 107.97829 136.731352 
L 119.173274 143.760627 
L 130.368258 156.571938 
L 141.563243 160.460692 
L 152.758227 169.251325 
L 163.953211 186.419757 
L 175.148196 206.05573 
L 186.34318 227.790728 
L 197.538164 253.401896 
L 208.733149 269.720386 
L 219.928133 188.752933 
L 231.123117 69.13075 
L 242.318101 71.190562 
L 253.513086 101.61924 
L 264.70807 127.184219 
L 275.903054 145.42126 
L 287.098039 163.917828 
L 298.293023 180.132019 
L 309.488007 195.009658 
L 320.682992 209.614138 
L 331.877976 219.493944 
L 343.07296 231.910863 
L 354.267945 243.820023 
L 365.462929 261.941867 
L 376.657913 267.289552 
L 387.852898 282.200917 
" clip-path="url(#pf590588260)" style="fill: none; stroke: #2f6b8e; stroke-width: 1.5; stroke-linecap: square"/>
   </g>
   <g id="line2d_24">
    <path d="M 63.198352 100.081464 
L 74.393337 114.304468 
L 85.588321 117.802482 
L 96.783305 123.128785 
L 107.97829 134.649734 
L 119.173274 142.840419 
L 130.368258 149.758295 
L 141.563243 155.263361 
L 152.758227 171.00028 
L 163.953211 183.421528 
L 175.148196 202.362635 
L 186.34318 224.217913 
L 197.538164 251.109628 
L 208.733149 260.705647 
L 219.928133 175.639567 
L 231.123117 63.232169 
L 242.318101 62.363328 
L 253.513086 98.449109 
L 264.70807 123.596144 
L 275.903054 147.88836 
L 287.098039 163.475785 
L 298.293023 176.330103 
L 309.488007 198.124719 
L 320.682992 198.818673 
L 331.877976 216.659237 
L 343.07296 227.251431 
L 354.267945 237.925148 
L 365.462929 256.528986 
L 376.657913 268.842611 
L 387.852898 278.786617 
" clip-path="url(#pf590588260)" style="fill: none; stroke: #2c738e; stroke-width: 1.5; stroke-linecap: square"/>
   </g>
   <g id="line2d_25">
    <path d="M 63.198352 105.113629 
L 74.393337 112.929991 
L 85.588321 120.898386 
L 96.783305 125.024224 
L 107.97829 139.082538 
L 119.173274 142.328306 
L 130.368258 152.555898 
L 141.563243 163.119651 
L 152.758227 172.950494 
L 163.953211 187.927527 
L 175.148196 199.876559 
L 186.34318 228.86139 
L 197.538164 258.764887 
L 208.733149 269.920384 
L 219.928133 180.682685 
L 231.123117 67.730758 
L 242.318101 72.580163 
L 253.513086 101.027769 
L 264.70807 130.860389 
L 275.903054 148.748867 
L 287.098039 165.091073 
L 298.293023 181.14636 
L 309.488007 196.361277 
L 320.682992 207.631018 
L 331.877976 222.522385 
L 343.07296 237.848308 
L 354.267945 246.257763 
L 365.462929 257.007662 
L 376.657913 267.11807 
L 387.852898 281.391202 
" clip-path="url(#pf590588260)" style="fill: none; stroke: #297b8e; stroke-width: 1.5; stroke-linecap: square"/>
   </g>
   <g id="line2d_26">
    <path d="M 63.198352 107.53177 
L 74.393337 113.914028 
L 85.588321 119.062835 
L 96.783305 128.983637 
L 107.97829 136.585348 
L 119.173274 143.254001 
L 130.368258 151.365077 
L 141.563243 159.121027 
L 152.758227 172.68805 
L 163.953211 186.666842 
L 175.148196 203.593898 
L 186.34318 226.187513 
L 197.538164 253.504366 
L 208.733149 264.20634 
L 219.928133 181.773655 
L 231.123117 61.680125 
L 242.318101 66.292169 
L 253.513086 100.252945 
L 264.70807 128.028537 
L 275.903054 142.591177 
L 287.098039 162.64555 
L 298.293023 174.827797 
L 309.488007 196.395693 
L 320.682992 207.031147 
L 331.877976 218.057235 
L 343.07296 232.603431 
L 354.267945 246.333694 
L 365.462929 255.983732 
L 376.657913 267.424665 
L 387.852898 279.022565 
" clip-path="url(#pf590588260)" style="fill: none; stroke: #25838e; stroke-width: 1.5; stroke-linecap: square"/>
   </g>
   <g id="line2d_27">
    <path d="M 63.198352 108.72517 
L 74.393337 112.721861 
L 85.588321 120.393987 
L 96.783305 125.474088 
L 107.97829 136.612067 
L 119.173274 147.684045 
L 130.368258 154.305277 
L 141.563243 162.010455 
L 152.758227 175.543015 
L 163.953211 189.357671 
L 175.148196 204.055758 
L 186.34318 224.759503 
L 197.538164 255.618978 
L 208.733149 268.416206 
L 219.928133 185.403676 
L 231.123117 72.115263 
L 242.318101 69.680791 
L 253.513086 101.20858 
L 264.70807 128.370651 
L 275.903054 146.133998 
L 287.098039 166.288232 
L 298.293023 183.000224 
L 309.488007 194.882967 
L 320.682992 208.117055 
L 331.877976 221.913648 
L 343.07296 234.430138 
L 354.267945 241.651949 
L 365.462929 255.371282 
L 376.657913 267.462237 
L 387.852898 279.309391 
" clip-path="url(#pf590588260)" style="fill: none; stroke: #228c8d; stroke-width: 1.5; stroke-linecap: square"/>
   </g>
   <g id="line2d_28">
    <path d="M 63.198352 104.8599 
L 74.393337 113.024872 
L 85.588321 122.478866 
L 96.783305 125.918137 
L 107.97829 138.160927 
L 119.173274 144.513226 
L 130.368258 152.587269 
L 141.563243 160.400761 
L 152.758227 173.156947 
L 163.953211 187.1798 
L 175.148196 204.574159 
L 186.34318 225.808454 
L 197.538164 255.941898 
L 208.733149 260.761225 
L 219.928133 180.85793 
L 231.123117 64.818969 
L 242.318101 67.638891 
L 253.513086 101.303135 
L 264.70807 128.15959 
L 275.903054 148.038584 
L 287.098039 166.802219 
L 298.293023 177.339996 
L 309.488007 193.623966 
L 320.682992 203.653532 
L 331.877976 218.81656 
L 343.07296 227.640645 
L 354.267945 241.593393 
L 365.462929 253.558164 
L 376.657913 267.730948 
L 387.852898 274.432723 
" clip-path="url(#pf590588260)" style="fill: none; stroke: #1f948c; stroke-width: 1.5; stroke-linecap: square"/>
   </g>
   <g id="line2d_29">
    <path d="M 63.198352 104.688421 
L 74.393337 112.327773 
L 85.588321 120.660357 
L 96.783305 127.881389 
L 107.97829 134.854026 
L 119.173274 143.605488 
L 130.368258 153.7364 
L 141.563243 163.06262 
L 152.758227 174.155558 
L 163.953211 189.828745 
L 175.148196 201.098703 
L 186.34318 227.651837 
L 197.538164 252.345549 
L 208.733149 267.968994 
L 219.928133 179.651781 
L 231.123117 72.310353 
L 242.318101 68.987406 
L 253.513086 101.00738 
L 264.70807 126.197907 
L 275.903054 146.256839 
L 287.098039 163.506762 
L 298.293023 179.819515 
L 309.488007 192.065638 
L 320.682992 204.374784 
L 331.877976 217.89162 
L 343.07296 230.743222 
L 354.267945 239.243932 
L 365.462929 256.573866 
L 376.657913 266.816442 
L 387.852898 276.161534 
" clip-path="url(#pf590588260)" style="fill: none; stroke: #1e9d89; stroke-width: 1.5; stroke-linecap: square"/>
   </g>
   <g id="line2d_30">
    <path d="M 63.198352 104.760667 
L 74.393337 111.530733 
L 85.588321 118.291467 
L 96.783305 126.691899 
L 107.97829 136.639283 
L 119.173274 141.906208 
L 130.368258 153.019085 
L 141.563243 161.724102 
L 152.758227 171.082265 
L 163.953211 187.469514 
L 175.148196 205.291559 
L 186.34318 225.558906 
L 197.538164 253.585945 
L 208.733149 265.295612 
L 219.928133 180.367173 
L 231.123117 66.046974 
L 242.318101 66.318693 
L 253.513086 98.238062 
L 264.70807 127.067248 
L 275.903054 145.670593 
L 287.098039 162.363361 
L 298.293023 180.489401 
L 309.488007 190.664551 
L 320.682992 203.120577 
L 331.877976 218.931726 
L 343.07296 231.765628 
L 354.267945 237.979875 
L 365.462929 253.002821 
L 376.657913 266.987191 
L 387.852898 279.03646 
" clip-path="url(#pf590588260)" style="fill: none; stroke: #21a585; stroke-width: 1.5; stroke-linecap: square"/>
   </g>
   <g id="line2d_31">
    <path d="M 63.198352 104.432737 
L 74.393337 110.963434 
L 85.588321 118.813811 
L 96.783305 127.188297 
L 107.97829 135.386425 
L 119.173274 141.732013 
L 130.368258 150.984127 
L 141.563243 160.249728 
L 152.758227 173.267903 
L 163.953211 187.772291 
L 175.148196 203.651836 
L 186.34318 227.13586 
L 197.538164 255.74178 
L 208.733149 264.536463 
L 219.928133 182.742068 
L 231.123117 66.272802 
L 242.318101 66.316854 
L 253.513086 98.732033 
L 264.70807 124.808873 
L 275.903054 147.008146 
L 287.098039 159.822984 
L 298.293023 176.132851 
L 309.488007 189.600323 
L 320.682992 204.625153 
L 331.877976 217.086015 
L 343.07296 228.201634 
L 354.267945 239.037213 
L 365.462929 249.765062 
L 376.657913 264.007898 
L 387.852898 277.440225 
" clip-path="url(#pf590588260)" style="fill: none; stroke: #26ad81; stroke-width: 1.5; stroke-linecap: square"/>
   </g>
   <g id="line2d_32">
    <path d="M 63.198352 104.820959 
L 74.393337 110.556122 
L 85.588321 118.669521 
L 96.783305 125.89742 
L 107.97829 134.895801 
L 119.173274 141.085229 
L 130.368258 151.286708 
L 141.563243 162.769207 
L 152.758227 170.980068 
L 163.953211 188.715078 
L 175.148196 203.803774 
L 186.34318 227.331044 
L 197.538164 254.497415 
L 208.733149 262.477759 
L 219.928133 181.62771 
L 231.123117 69.264133 
L 242.318101 65.584071 
L 253.513086 99.913221 
L 264.70807 129.428131 
L 275.903054 149.096894 
L 287.098039 166.223191 
L 298.293023 181.048021 
L 309.488007 192.780931 
L 320.682992 207.429921 
L 331.877976 216.434822 
L 343.07296 232.975065 
L 354.267945 243.731793 
L 365.462929 255.859976 
L 376.657913 267.148386 
L 387.852898 276.96192 
" clip-path="url(#pf590588260)" style="fill: none; stroke: #31b57b; stroke-width: 1.5; stroke-linecap: square"/>
   </g>
   <g id="line2d_33">
    <path d="M 63.198352 106.090311 
L 74.393337 109.729783 
L 85.588321 119.307956 
L 96.783305 125.890236 
L 107.97829 134.152274 
L 119.173274 141.539122 
L 130.368258 151.750767 
L 141.563243 161.075692 
L 152.758227 171.762977 
L 163.953211 189.857248 
L 175.148196 204.10175 
L 186.34318 225.51664 
L 197.538164 255.958458 
L 208.733149 267.059376 
L 219.928133 179.280404 
L 231.123117 67.136919 
L 242.318101 65.407955 
L 253.513086 99.910734 
L 264.70807 128.887897 
L 275.903054 147.334496 
L 287.098039 161.880854 
L 298.293023 179.2544 
L 309.488007 193.02047 
L 320.682992 206.810297 
L 331.877976 219.372895 
L 343.07296 229.74775 
L 354.267945 241.141437 
L 365.462929 255.255193 
L 376.657913 268.154953 
L 387.852898 279.802327 
" clip-path="url(#pf590588260)" style="fill: none; stroke: #3fbc73; stroke-width: 1.5; stroke-linecap: square"/>
   </g>
   <g id="line2d_34">
    <path d="M 63.198352 105.736322 
L 74.393337 115.108375 
L 85.588321 120.952942 
L 96.783305 127.294643 
L 107.97829 133.594729 
L 119.173274 145.759399 
L 130.368258 151.98968 
L 141.563243 162.343891 
L 152.758227 175.324848 
L 163.953211 188.720467 
L 175.148196 203.853401 
L 186.34318 227.969672 
L 197.538164 254.701532 
L 208.733149 265.458445 
L 219.928133 177.154964 
L 231.123117 66.581232 
L 242.318101 67.759493 
L 253.513086 100.023158 
L 264.70807 130.174162 
L 275.903054 148.855599 
L 287.098039 164.48518 
L 298.293023 181.590788 
L 309.488007 195.332023 
L 320.682992 205.424661 
L 331.877976 218.898169 
L 343.07296 233.483615 
L 354.267945 242.682204 
L 365.462929 255.296802 
L 376.657913 266.960042 
L 387.852898 279.548054 
" clip-path="url(#pf590588260)" style="fill: none; stroke: #50c46a; stroke-width: 1.5; stroke-linecap: square"/>
   </g>
   <g id="line2d_35">
    <path d="M 63.198352 106.439069 
L 74.393337 115.201747 
L 85.588321 122.103673 
L 96.783305 127.732398 
L 107.97829 133.621022 
L 119.173274 145.313684 
L 130.368258 152.363773 
L 141.563243 164.75727 
L 152.758227 172.884106 
L 163.953211 187.721301 
L 175.148196 205.44235 
L 186.34318 226.465379 
L 197.538164 253.140192 
L 208.733149 261.84883 
L 219.928133 180.639146 
L 231.123117 72.010801 
L 242.318101 66.2315 
L 253.513086 101.032514 
L 264.70807 125.521119 
L 275.903054 148.470576 
L 287.098039 164.177752 
L 298.293023 177.464421 
L 309.488007 191.987874 
L 320.682992 205.797458 
L 331.877976 216.89129 
L 343.07296 230.528254 
L 354.267945 241.633106 
L 365.462929 253.332863 
L 376.657913 261.578156 
L 387.852898 275.433599 
" clip-path="url(#pf590588260)" style="fill: none; stroke: #63cb5f; stroke-width: 1.5; stroke-linecap: square"/>
   </g>
   <g id="line2d_36">
    <path d="M 63.198352 109.170519 
L 74.393337 112.668675 
L 85.588321 122.053118 
L 96.783305 127.912082 
L 107.97829 135.683431 
L 119.173274 143.462916 
L 130.368258 154.860499 
L 141.563243 164.097827 
L 152.758227 173.155274 
L 163.953211 189.574336 
L 175.148196 206.648518 
L 186.34318 226.66504 
L 197.538164 248.497448 
L 208.733149 265.773818 
L 219.928133 181.676762 
L 231.123117 67.909454 
L 242.318101 68.358365 
L 253.513086 100.473586 
L 264.70807 125.068884 
L 275.903054 145.65345 
L 287.098039 161.990116 
L 298.293023 178.512764 
L 309.488007 192.261706 
L 320.682992 202.726075 
L 331.877976 213.039975 
L 343.07296 227.876533 
L 354.267945 238.416213 
L 365.462929 252.855042 
L 376.657913 262.463524 
L 387.852898 275.048743 
" clip-path="url(#pf590588260)" style="fill: none; stroke: #77d153; stroke-width: 1.5; stroke-linecap: square"/>
   </g>
   <g id="line2d_37">
    <path d="M 63.198352 107.384052 
L 74.393337 113.225846 
L 85.588321 120.575844 
L 96.783305 128.106196 
L 107.97829 134.748228 
L 119.173274 144.260949 
L 130.368258 153.059345 
L 141.563243 162.880732 
L 152.758227 173.286677 
L 163.953211 188.106293 
L 175.148196 204.056032 
L 186.34318 226.932664 
L 197.538164 252.497741 
L 208.733149 262.477016 
L 219.928133 176.855685 
L 231.123117 63.192408 
L 242.318101 64.822907 
L 253.513086 97.267825 
L 264.70807 124.254342 
L 275.903054 146.686456 
L 287.098039 160.985486 
L 298.293023 175.742134 
L 309.488007 189.786274 
L 320.682992 202.391113 
L 331.877976 214.262799 
L 343.07296 228.932002 
L 354.267945 238.385026 
L 365.462929 249.46153 
L 376.657913 261.655104 
L 387.852898 272.929954 
" clip-path="url(#pf590588260)" style="fill: none; stroke: #8bd646; stroke-width: 1.5; stroke-linecap: square"/>
   </g>
   <g id="line2d_38">
    <path d="M 63.198352 108.37262 
L 74.393337 115.579057 
L 85.588321 122.641138 
L 96.783305 130.239651 
L 107.97829 135.825623 
L 119.173274 144.001103 
L 130.368258 154.143123 
L 141.563243 163.657087 
L 152.758227 175.427875 
L 163.953211 185.393635 
L 175.148196 205.628834 
L 186.34318 225.595256 
L 197.538164 254.510929 
L 208.733149 264.484237 
L 219.928133 178.519278 
L 231.123117 67.37861 
L 242.318101 66.437787 
L 253.513086 100.060786 
L 264.70807 123.246879 
L 275.903054 145.232244 
L 287.098039 161.751474 
L 298.293023 177.195849 
L 309.488007 188.718599 
L 320.682992 201.888292 
L 331.877976 213.655947 
L 343.07296 226.369182 
L 354.267945 238.265286 
L 365.462929 251.04155 
L 376.657913 258.7354 
L 387.852898 274.338951 
" clip-path="url(#pf590588260)" style="fill: none; stroke: #a2da37; stroke-width: 1.5; stroke-linecap: square"/>
   </g>
   <g id="line2d_39">
    <path d="M 63.198352 108.161938 
L 74.393337 113.533376 
L 85.588321 120.270365 
L 96.783305 127.59026 
L 107.97829 135.092523 
L 119.173274 143.914226 
L 130.368258 151.97208 
L 141.563243 163.384102 
L 152.758227 172.796679 
L 163.953211 188.18427 
L 175.148196 202.823201 
L 186.34318 225.585886 
L 197.538164 253.469056 
L 208.733149 266.830355 
L 219.928133 181.957985 
L 231.123117 64.716335 
L 242.318101 64.907407 
L 253.513086 97.119013 
L 264.70807 125.746403 
L 275.903054 145.257983 
L 287.098039 162.308273 
L 298.293023 176.682695 
L 309.488007 191.658189 
L 320.682992 203.394962 
L 331.877976 215.80548 
L 343.07296 229.950108 
L 354.267945 239.291679 
L 365.462929 251.005683 
L 376.657913 263.378404 
L 387.852898 276.98931 
" clip-path="url(#pf590588260)" style="fill: none; stroke: #bade28; stroke-width: 1.5; stroke-linecap: square"/>
   </g>
   <g id="line2d_40">
    <path d="M 63.198352 107.475856 
L 74.393337 112.997957 
L 85.588321 120.734225 
L 96.783305 128.567346 
L 107.97829 134.30984 
L 119.173274 144.250396 
L 130.368258 153.578484 
L 141.563243 162.16246 
L 152.758227 174.825783 
L 163.953211 187.562079 
L 175.148196 204.190989 
L 186.34318 223.924182 
L 197.538164 253.02979 
L 208.733149 266.883573 
L 219.928133 183.507263 
L 231.123117 62.630557 
L 242.318101 67.174438 
L 253.513086 98.662474 
L 264.70807 125.088757 
L 275.903054 148.359998 
L 287.098039 164.217494 
L 298.293023 179.2842 
L 309.488007 192.640336 
L 320.682992 204.564476 
L 331.877976 218.363385 
L 343.07296 230.233036 
L 354.267945 241.493785 
L 365.462929 253.334789 
L 376.657913 262.551593 
L 387.852898 275.489267 
" clip-path="url(#pf590588260)" style="fill: none; stroke: #d2e21b; stroke-width: 1.5; stroke-linecap: square"/>
   </g>
   <g id="line2d_41">
    <path d="M 63.198352 107.956703 
L 74.393337 114.518637 
L 85.588321 120.282264 
L 96.783305 128.729966 
L 107.97829 136.200135 
L 119.173274 145.795709 
L 130.368258 152.301077 
L 141.563243 161.961625 
L 152.758227 175.949632 
L 163.953211 189.48312 
L 175.148196 204.923612 
L 186.34318 225.82661 
L 197.538164 252.241301 
L 208.733149 266.384543 
L 219.928133 179.657477 
L 231.123117 67.485848 
L 242.318101 65.651258 
L 253.513086 99.28818 
L 264.70807 127.019443 
L 275.903054 149.530327 
L 287.098039 163.700404 
L 298.293023 180.166758 
L 309.488007 190.672088 
L 320.682992 206.369893 
L 331.877976 217.522016 
L 343.07296 229.453161 
L 354.267945 242.921082 
L 365.462929 254.639069 
L 376.657913 265.107581 
L 387.852898 279.992808 
" clip-path="url(#pf590588260)" style="fill: none; stroke: #eae51a; stroke-width: 1.5; stroke-linecap: square"/>
   </g>
   <g id="line2d_42">
    <path d="M 63.198352 106.427274 
L 74.393337 113.824936 
L 85.588321 121.983954 
L 96.783305 127.597304 
L 107.97829 135.776417 
L 119.173274 144.478324 
L 130.368258 153.574605 
L 141.563243 163.462583 
L 152.758227 175.325236 
L 163.953211 189.839605 
L 175.148196 206.626225 
L 186.34318 227.334068 
L 197.538164 254.877337 
L 208.733149 269.19696 
L 219.928133 183.917689 
L 231.123117 66.576401 
L 242.318101 67.468692 
L 253.513086 100.199795 
L 264.70807 126.134304 
L 275.903054 145.512701 
L 287.098039 166.152199 
L 298.293023 180.79191 
L 309.488007 193.817203 
L 320.682992 206.291315 
L 331.877976 218.914897 
L 343.07296 229.678822 
L 354.267945 243.296589 
L 365.462929 252.786645 
L 376.657913 265.252827 
L 387.852898 277.305665 
" clip-path="url(#pf590588260)" style="fill: none; stroke: #fde725; stroke-width: 1.5; stroke-linecap: square"/>
   </g>
   <g id="patch_3">
    <path d="M 46.965625 307.872 
L 46.965625 41.76 
" style="fill: none; stroke: #000000; stroke-width: 0.8; stroke-linejoin: miter; stroke-linecap: square"/>
   </g>
   <g id="patch_4">
    <path d="M 404.085625 307.872 
L 404.085625 41.76 
" style="fill: none; stroke: #000000; stroke-width: 0.8; stroke-linejoin: miter; stroke-linecap: square"/>
   </g>
   <g id="patch_5">
    <path d="M 46.965625 307.872 
L 404.085625 307.872 
" style="fill: none; stroke: #000000; stroke-width: 0.8; stroke-linejoin: miter; stroke-linecap: square"/>
   </g>
   <g id="patch_6">
    <path d="M 46.965625 41.76 
L 404.085625 41.76 
" style="fill: none; stroke: #000000; stroke-width: 0.8; stroke-linejoin: miter; stroke-linecap: square"/>
   </g>
   <g id="legend_1">
    <g id="patch_7">
     <path d="M 423.941625 307.872 
L 637.826 307.872 
Q 639.826 307.872 639.826 305.872 
L 639.826 145.412625 
Q 639.826 143.412625 637.826 143.412625 
L 423.941625 143.412625 
Q 421.941625 143.412625 421.941625 145.412625 
L 421.941625 305.872 
Q 421.941625 307.872 423.941625 307.872 
z
" style="fill: #ffffff; opacity: 0.8; stroke: #cccccc; stroke-linejoin: miter"/>
    </g>
    <g id="text_16">
     <!-- Readout pulse amplitude () -->
     <g transform="translate(462.783031 155.011063) scale(0.1 -0.1)">
      <defs>
       <path id="DejaVuSans-52" d="M 2841 2188 
Q 3044 2119 3236 1894 
Q 3428 1669 3622 1275 
L 4263 0 
L 3584 0 
L 2988 1197 
Q 2756 1666 2539 1819 
Q 2322 1972 1947 1972 
L 1259 1972 
L 1259 0 
L 628 0 
L 628 4666 
L 2053 4666 
Q 2853 4666 3247 4331 
Q 3641 3997 3641 3322 
Q 3641 2881 3436 2590 
Q 3231 2300 2841 2188 
z
M 1259 4147 
L 1259 2491 
L 2053 2491 
Q 2509 2491 2742 2702 
Q 2975 2913 2975 3322 
Q 2975 3731 2742 3939 
Q 2509 4147 2053 4147 
L 1259 4147 
z
" transform="scale(0.015625)"/>
       <path id="DejaVuSans-6f" d="M 1959 3097 
Q 1497 3097 1228 2736 
Q 959 2375 959 1747 
Q 959 1119 1226 758 
Q 1494 397 1959 397 
Q 2419 397 2687 759 
Q 2956 1122 2956 1747 
Q 2956 2369 2687 2733 
Q 2419 3097 1959 3097 
z
M 1959 3584 
Q 2709 3584 3137 3096 
Q 3566 2609 3566 1747 
Q 3566 888 3137 398 
Q 2709 -91 1959 -91 
Q 1206 -91 779 398 
Q 353 888 353 1747 
Q 353 2609 779 3096 
Q 1206 3584 1959 3584 
z
" transform="scale(0.015625)"/>
       <path id="DejaVuSans-74" d="M 1172 4494 
L 1172 3500 
L 2356 3500 
L 2356 3053 
L 1172 3053 
L 1172 1153 
Q 1172 725 1289 603 
Q 1406 481 1766 481 
L 2356 481 
L 2356 0 
L 1766 0 
Q 1100 0 847 248 
Q 594 497 594 1153 
L 594 3053 
L 172 3053 
L 172 3500 
L 594 3500 
L 594 4494 
L 1172 4494 
z
" transform="scale(0.015625)"/>
       <path id="DejaVuSans-70" d="M 1159 525 
L 1159 -1331 
L 581 -1331 
L 581 3500 
L 1159 3500 
L 1159 2969 
Q 1341 3281 1617 3432 
Q 1894 3584 2278 3584 
Q 2916 3584 3314 3078 
Q 3713 2572 3713 1747 
Q 3713 922 3314 415 
Q 2916 -91 2278 -91 
Q 1894 -91 1617 61 
Q 1341 213 1159 525 
z
M 3116 1747 
Q 3116 2381 2855 2742 
Q 2594 3103 2138 3103 
Q 1681 3103 1420 2742 
Q 1159 2381 1159 1747 
Q 1159 1113 1420 752 
Q 1681 391 2138 391 
Q 2594 391 2855 752 
Q 3116 1113 3116 1747 
z
" transform="scale(0.015625)"/>
       <path id="DejaVuSans-6c" d="M 603 4863 
L 1178 4863 
L 1178 0 
L 603 0 
L 603 4863 
z
" transform="scale(0.015625)"/>
       <path id="DejaVuSans-6d" d="M 3328 2828 
Q 3544 3216 3844 3400 
Q 4144 3584 4550 3584 
Q 5097 3584 5394 3201 
Q 5691 2819 5691 2113 
L 5691 0 
L 5113 0 
L 5113 2094 
Q 5113 2597 4934 2840 
Q 4756 3084 4391 3084 
Q 3944 3084 3684 2787 
Q 3425 2491 3425 1978 
L 3425 0 
L 2847 0 
L 2847 2094 
Q 2847 2600 2669 2842 
Q 2491 3084 2119 3084 
Q 1678 3084 1418 2786 
Q 1159 2488 1159 1978 
L 1159 0 
L 581 0 
L 581 3500 
L 1159 3500 
L 1159 2956 
Q 1356 3278 1631 3431 
Q 1906 3584 2284 3584 
Q 2666 3584 2933 3390 
Q 3200 3197 3328 2828 
z
" transform="scale(0.015625)"/>
       <path id="DejaVuSans-69" d="M 603 3500 
L 1178 3500 
L 1178 0 
L 603 0 
L 603 3500 
z
M 603 4863 
L 1178 4863 
L 1178 4134 
L 603 4134 
L 603 4863 
z
" transform="scale(0.015625)"/>
       <path id="DejaVuSans-28" d="M 1984 4856 
Q 1566 4138 1362 3434 
Q 1159 2731 1159 2009 
Q 1159 1288 1364 580 
Q 1569 -128 1984 -844 
L 1484 -844 
Q 1016 -109 783 600 
Q 550 1309 550 2009 
Q 550 2706 781 3412 
Q 1013 4119 1484 4856 
L 1984 4856 
z
" transform="scale(0.015625)"/>
       <path id="DejaVuSans-29" d="M 513 4856 
L 1013 4856 
Q 1481 4119 1714 3412 
Q 1947 2706 1947 2009 
Q 1947 1309 1714 600 
Q 1481 -109 1013 -844 
L 513 -844 
Q 928 -128 1133 580 
Q 1338 1288 1338 2009 
Q 1338 2731 1133 3434 
Q 928 4138 513 4856 
z
" transform="scale(0.015625)"/>
      </defs>
      <use xlink:href="#DejaVuSans-52"/>
      <use xlink:href="#DejaVuSans-65" x="64.982422"/>
      <use xlink:href="#DejaVuSans-61" x="126.505859"/>
      <use xlink:href="#DejaVuSans-64" x="187.785156"/>
      <use xlink:href="#DejaVuSans-6f" x="251.261719"/>
      <use xlink:href="#DejaVuSans-75" x="312.443359"/>
      <use xlink:href="#DejaVuSans-74" x="375.822266"/>
      <use xlink:href="#DejaVuSans-20" x="415.03125"/>
      <use xlink:href="#DejaVuSans-70" x="446.818359"/>
      <use xlink:href="#DejaVuSans-75" x="510.294922"/>
      <use xlink:href="#DejaVuSans-6c" x="573.673828"/>
      <use xlink:href="#DejaVuSans-73" x="601.457031"/>
      <use xlink:href="#DejaVuSans-65" x="653.556641"/>
      <use xlink:href="#DejaVuSans-20" x="715.080078"/>
      <use xlink:href="#DejaVuSans-61" x="746.867188"/>
      <use xlink:href="#DejaVuSans-6d" x="808.146484"/>
      <use xlink:href="#DejaVuSans-70" x="905.558594"/>
      <use xlink:href="#DejaVuSans-6c" x="969.035156"/>
      <use xlink:href="#DejaVuSans-69" x="996.818359"/>
      <use xlink:href="#DejaVuSans-74" x="1024.601562"/>
      <use xlink:href="#DejaVuSans-75" x="1063.810547"/>
      <use xlink:href="#DejaVuSans-64" x="1127.189453"/>
      <use xlink:href="#DejaVuSans-65" x="1190.666016"/>
      <use xlink:href="#DejaVuSans-20" x="1252.189453"/>
      <use xlink:href="#DejaVuSans-28" x="1283.976562"/>
      <use xlink:href="#DejaVuSans-29" x="1322.990234"/>
     </g>
    </g>
    <g id="line2d_43">
     <path d="M 425.941625 166.189188 
L 435.941625 166.189188 
L 445.941625 166.189188 
" style="fill: none; stroke: #440154; stroke-width: 1.5; stroke-linecap: square"/>
    </g>
    <g id="text_17">
     <!-- 0.1 -->
     <g transform="translate(453.941625 169.689188) scale(0.1 -0.1)">
      <defs>
       <path id="DejaVuSans-2e" d="M 684 794 
L 1344 794 
L 1344 0 
L 684 0 
L 684 794 
z
" transform="scale(0.015625)"/>
      </defs>
      <use xlink:href="#DejaVuSans-30"/>
      <use xlink:href="#DejaVuSans-2e" x="63.623047"/>
      <use xlink:href="#DejaVuSans-31" x="95.410156"/>
     </g>
    </g>
    <g id="line2d_44">
     <path d="M 425.941625 180.867313 
L 435.941625 180.867313 
L 445.941625 180.867313 
" style="fill: none; stroke: #470d60; stroke-width: 1.5; stroke-linecap: square"/>
    </g>
    <g id="text_18">
     <!-- 0.121 -->
     <g transform="translate(453.941625 184.367313) scale(0.1 -0.1)">
      <use xlink:href="#DejaVuSans-30"/>
      <use xlink:href="#DejaVuSans-2e" x="63.623047"/>
      <use xlink:href="#DejaVuSans-31" x="95.410156"/>
      <use xlink:href="#DejaVuSans-32" x="159.033203"/>
      <use xlink:href="#DejaVuSans-31" x="222.65625"/>
     </g>
    </g>
    <g id="line2d_45">
     <path d="M 425.941625 195.545438 
L 435.941625 195.545438 
L 445.941625 195.545438 
" style="fill: none; stroke: #481a6c; stroke-width: 1.5; stroke-linecap: square"/>
    </g>
    <g id="text_19">
     <!-- 0.141 -->
     <g transform="translate(453.941625 199.045438) scale(0.1 -0.1)">
      <use xlink:href="#DejaVuSans-30"/>
      <use xlink:href="#DejaVuSans-2e" x="63.623047"/>
      <use xlink:href="#DejaVuSans-31" x="95.410156"/>
      <use xlink:href="#DejaVuSans-34" x="159.033203"/>
      <use xlink:href="#DejaVuSans-31" x="222.65625"/>
     </g>
    </g>
    <g id="line2d_46">
     <path d="M 425.941625 210.223563 
L 435.941625 210.223563 
L 445.941625 210.223563 
" style="fill: none; stroke: #482576; stroke-width: 1.5; stroke-linecap: square"/>
    </g>
    <g id="text_20">
     <!-- 0.162 -->
     <g transform="translate(453.941625 213.723563) scale(0.1 -0.1)">
      <use xlink:href="#DejaVuSans-30"/>
      <use xlink:href="#DejaVuSans-2e" x="63.623047"/>
      <use xlink:href="#DejaVuSans-31" x="95.410156"/>
      <use xlink:href="#DejaVuSans-36" x="159.033203"/>
      <use xlink:href="#DejaVuSans-32" x="222.65625"/>
     </g>
    </g>
    <g id="line2d_47">
     <path d="M 425.941625 224.901688 
L 435.941625 224.901688 
L 445.941625 224.901688 
" style="fill: none; stroke: #46307e; stroke-width: 1.5; stroke-linecap: square"/>
    </g>
    <g id="text_21">
     <!-- 0.183 -->
     <g transform="translate(453.941625 228.401688) scale(0.1 -0.1)">
      <use xlink:href="#DejaVuSans-30"/>
      <use xlink:href="#DejaVuSans-2e" x="63.623047"/>
      <use xlink:href="#DejaVuSans-31" x="95.410156"/>
      <use xlink:href="#DejaVuSans-38" x="159.033203"/>
      <use xlink:href="#DejaVuSans-33" x="222.65625"/>
     </g>
    </g>
    <g id="line2d_48">
     <path d="M 425.941625 239.579813 
L 435.941625 239.579813 
L 445.941625 239.579813 
" style="fill: none; stroke: #443b84; stroke-width: 1.5; stroke-linecap: square"/>
    </g>
    <g id="text_22">
     <!-- 0.203 -->
     <g transform="translate(453.941625 243.079813) scale(0.1 -0.1)">
      <use xlink:href="#DejaVuSans-30"/>
      <use xlink:href="#DejaVuSans-2e" x="63.623047"/>
      <use xlink:href="#DejaVuSans-32" x="95.410156"/>
      <use xlink:href="#DejaVuSans-30" x="159.033203"/>
      <use xlink:href="#DejaVuSans-33" x="222.65625"/>
     </g>
    </g>
    <g id="line2d_49">
     <path d="M 425.941625 254.257938 
L 435.941625 254.257938 
L 445.941625 254.257938 
" style="fill: none; stroke: #404588; stroke-width: 1.5; stroke-linecap: square"/>
    </g>
    <g id="text_23">
     <!-- 0.224 -->
     <g transform="translate(453.941625 257.757938) scale(0.1 -0.1)">
      <use xlink:href="#DejaVuSans-30"/>
      <use xlink:href="#DejaVuSans-2e" x="63.623047"/>
      <use xlink:href="#DejaVuSans-32" x="95.410156"/>
      <use xlink:href="#DejaVuSans-32" x="159.033203"/>
      <use xlink:href="#DejaVuSans-34" x="222.65625"/>
     </g>
    </g>
    <g id="line2d_50">
     <path d="M 425.941625 268.936062 
L 435.941625 268.936062 
L 445.941625 268.936062 
" style="fill: none; stroke: #3c4f8a; stroke-width: 1.5; stroke-linecap: square"/>
    </g>
    <g id="text_24">
     <!-- 0.245 -->
     <g transform="translate(453.941625 272.436062) scale(0.1 -0.1)">
      <use xlink:href="#DejaVuSans-30"/>
      <use xlink:href="#DejaVuSans-2e" x="63.623047"/>
      <use xlink:href="#DejaVuSans-32" x="95.410156"/>
      <use xlink:href="#DejaVuSans-34" x="159.033203"/>
      <use xlink:href="#DejaVuSans-35" x="222.65625"/>
     </g>
    </g>
    <g id="line2d_51">
     <path d="M 425.941625 283.614188 
L 435.941625 283.614188 
L 445.941625 283.614188 
" style="fill: none; stroke: #38598c; stroke-width: 1.5; stroke-linecap: square"/>
    </g>
    <g id="text_25">
     <!-- 0.266 -->
     <g transform="translate(453.941625 287.114188) scale(0.1 -0.1)">
      <use xlink:href="#DejaVuSans-30"/>
      <use xlink:href="#DejaVuSans-2e" x="63.623047"/>
      <use xlink:href="#DejaVuSans-32" x="95.410156"/>
      <use xlink:href="#DejaVuSans-36" x="159.033203"/>
      <use xlink:href="#DejaVuSans-36" x="222.65625"/>
     </g>
    </g>
    <g id="line2d_52">
     <path d="M 425.941625 298.292312 
L 435.941625 298.292312 
L 445.941625 298.292312 
" style="fill: none; stroke: #33628d; stroke-width: 1.5; stroke-linecap: square"/>
    </g>
    <g id="text_26">
     <!-- 0.286 -->
     <g transform="translate(453.941625 301.792312) scale(0.1 -0.1)">
      <use xlink:href="#DejaVuSans-30"/>
      <use xlink:href="#DejaVuSans-2e" x="63.623047"/>
      <use xlink:href="#DejaVuSans-32" x="95.410156"/>
      <use xlink:href="#DejaVuSans-38" x="159.033203"/>
      <use xlink:href="#DejaVuSans-36" x="222.65625"/>
     </g>
    </g>
    <g id="line2d_53">
     <path d="M 502.56975 166.189188 
L 512.56975 166.189188 
L 522.56975 166.189188 
" style="fill: none; stroke: #2f6b8e; stroke-width: 1.5; stroke-linecap: square"/>
    </g>
    <g id="text_27">
     <!-- 0.307 -->
     <g transform="translate(530.56975 169.689188) scale(0.1 -0.1)">
      <use xlink:href="#DejaVuSans-30"/>
      <use xlink:href="#DejaVuSans-2e" x="63.623047"/>
      <use xlink:href="#DejaVuSans-33" x="95.410156"/>
      <use xlink:href="#DejaVuSans-30" x="159.033203"/>
      <use xlink:href="#DejaVuSans-37" x="222.65625"/>
     </g>
    </g>
    <g id="line2d_54">
     <path d="M 502.56975 180.867313 
L 512.56975 180.867313 
L 522.56975 180.867313 
" style="fill: none; stroke: #2c738e; stroke-width: 1.5; stroke-linecap: square"/>
    </g>
    <g id="text_28">
     <!-- 0.328 -->
     <g transform="translate(530.56975 184.367313) scale(0.1 -0.1)">
      <use xlink:href="#DejaVuSans-30"/>
      <use xlink:href="#DejaVuSans-2e" x="63.623047"/>
      <use xlink:href="#DejaVuSans-33" x="95.410156"/>
      <use xlink:href="#DejaVuSans-32" x="159.033203"/>
      <use xlink:href="#DejaVuSans-38" x="222.65625"/>
     </g>
    </g>
    <g id="line2d_55">
     <path d="M 502.56975 195.545438 
L 512.56975 195.545438 
L 522.56975 195.545438 
" style="fill: none; stroke: #297b8e; stroke-width: 1.5; stroke-linecap: square"/>
    </g>
    <g id="text_29">
     <!-- 0.348 -->
     <g transform="translate(530.56975 199.045438) scale(0.1 -0.1)">
      <use xlink:href="#DejaVuSans-30"/>
      <use xlink:href="#DejaVuSans-2e" x="63.623047"/>
      <use xlink:href="#DejaVuSans-33" x="95.410156"/>
      <use xlink:href="#DejaVuSans-34" x="159.033203"/>
      <use xlink:href="#DejaVuSans-38" x="222.65625"/>
     </g>
    </g>
    <g id="line2d_56">
     <path d="M 502.56975 210.223563 
L 512.56975 210.223563 
L 522.56975 210.223563 
" style="fill: none; stroke: #25838e; stroke-width: 1.5; stroke-linecap: square"/>
    </g>
    <g id="text_30">
     <!-- 0.369 -->
     <g transform="translate(530.56975 213.723563) scale(0.1 -0.1)">
      <use xlink:href="#DejaVuSans-30"/>
      <use xlink:href="#DejaVuSans-2e" x="63.623047"/>
      <use xlink:href="#DejaVuSans-33" x="95.410156"/>
      <use xlink:href="#DejaVuSans-36" x="159.033203"/>
      <use xlink:href="#DejaVuSans-39" x="222.65625"/>
     </g>
    </g>
    <g id="line2d_57">
     <path d="M 502.56975 224.901688 
L 512.56975 224.901688 
L 522.56975 224.901688 
" style="fill: none; stroke: #228c8d; stroke-width: 1.5; stroke-linecap: square"/>
    </g>
    <g id="text_31">
     <!-- 0.39 -->
     <g transform="translate(530.56975 228.401688) scale(0.1 -0.1)">
      <use xlink:href="#DejaVuSans-30"/>
      <use xlink:href="#DejaVuSans-2e" x="63.623047"/>
      <use xlink:href="#DejaVuSans-33" x="95.410156"/>
      <use xlink:href="#DejaVuSans-39" x="159.033203"/>
     </g>
    </g>
    <g id="line2d_58">
     <path d="M 502.56975 239.579813 
L 512.56975 239.579813 
L 522.56975 239.579813 
" style="fill: none; stroke: #1f948c; stroke-width: 1.5; stroke-linecap: square"/>
    </g>
    <g id="text_32">
     <!-- 0.41 -->
     <g transform="translate(530.56975 243.079813) scale(0.1 -0.1)">
      <use xlink:href="#DejaVuSans-30"/>
      <use xlink:href="#DejaVuSans-2e" x="63.623047"/>
      <use xlink:href="#DejaVuSans-34" x="95.410156"/>
      <use xlink:href="#DejaVuSans-31" x="159.033203"/>
     </g>
    </g>
    <g id="line2d_59">
     <path d="M 502.56975 254.257938 
L 512.56975 254.257938 
L 522.56975 254.257938 
" style="fill: none; stroke: #1e9d89; stroke-width: 1.5; stroke-linecap: square"/>
    </g>
    <g id="text_33">
     <!-- 0.431 -->
     <g transform="translate(530.56975 257.757938) scale(0.1 -0.1)">
      <use xlink:href="#DejaVuSans-30"/>
      <use xlink:href="#DejaVuSans-2e" x="63.623047"/>
      <use xlink:href="#DejaVuSans-34" x="95.410156"/>
      <use xlink:href="#DejaVuSans-33" x="159.033203"/>
      <use xlink:href="#DejaVuSans-31" x="222.65625"/>
     </g>
    </g>
    <g id="line2d_60">
     <path d="M 502.56975 268.936062 
L 512.56975 268.936062 
L 522.56975 268.936062 
" style="fill: none; stroke: #21a585; stroke-width: 1.5; stroke-linecap: square"/>
    </g>
    <g id="text_34">
     <!-- 0.452 -->
     <g transform="translate(530.56975 272.436062) scale(0.1 -0.1)">
      <use xlink:href="#DejaVuSans-30"/>
      <use xlink:href="#DejaVuSans-2e" x="63.623047"/>
      <use xlink:href="#DejaVuSans-34" x="95.410156"/>
      <use xlink:href="#DejaVuSans-35" x="159.033203"/>
      <use xlink:href="#DejaVuSans-32" x="222.65625"/>
     </g>
    </g>
    <g id="line2d_61">
     <path d="M 502.56975 283.614188 
L 512.56975 283.614188 
L 522.56975 283.614188 
" style="fill: none; stroke: #26ad81; stroke-width: 1.5; stroke-linecap: square"/>
    </g>
    <g id="text_35">
     <!-- 0.472 -->
     <g transform="translate(530.56975 287.114188) scale(0.1 -0.1)">
      <use xlink:href="#DejaVuSans-30"/>
      <use xlink:href="#DejaVuSans-2e" x="63.623047"/>
      <use xlink:href="#DejaVuSans-34" x="95.410156"/>
      <use xlink:href="#DejaVuSans-37" x="159.033203"/>
      <use xlink:href="#DejaVuSans-32" x="222.65625"/>
     </g>
    </g>
    <g id="line2d_62">
     <path d="M 502.56975 298.292312 
L 512.56975 298.292312 
L 522.56975 298.292312 
" style="fill: none; stroke: #31b57b; stroke-width: 1.5; stroke-linecap: square"/>
    </g>
    <g id="text_36">
     <!-- 0.493 -->
     <g transform="translate(530.56975 301.792312) scale(0.1 -0.1)">
      <use xlink:href="#DejaVuSans-30"/>
      <use xlink:href="#DejaVuSans-2e" x="63.623047"/>
      <use xlink:href="#DejaVuSans-34" x="95.410156"/>
      <use xlink:href="#DejaVuSans-39" x="159.033203"/>
      <use xlink:href="#DejaVuSans-33" x="222.65625"/>
     </g>
    </g>
    <g id="line2d_63">
     <path d="M 579.197875 166.189188 
L 589.197875 166.189188 
L 599.197875 166.189188 
" style="fill: none; stroke: #3fbc73; stroke-width: 1.5; stroke-linecap: square"/>
    </g>
    <g id="text_37">
     <!-- 0.514 -->
     <g transform="translate(607.197875 169.689188) scale(0.1 -0.1)">
      <use xlink:href="#DejaVuSans-30"/>
      <use xlink:href="#DejaVuSans-2e" x="63.623047"/>
      <use xlink:href="#DejaVuSans-35" x="95.410156"/>
      <use xlink:href="#DejaVuSans-31" x="159.033203"/>
      <use xlink:href="#DejaVuSans-34" x="222.65625"/>
     </g>
    </g>
    <g id="line2d_64">
     <path d="M 579.197875 180.867313 
L 589.197875 180.867313 
L 599.197875 180.867313 
" style="fill: none; stroke: #50c46a; stroke-width: 1.5; stroke-linecap: square"/>
    </g>
    <g id="text_38">
     <!-- 0.534 -->
     <g transform="translate(607.197875 184.367313) scale(0.1 -0.1)">
      <use xlink:href="#DejaVuSans-30"/>
      <use xlink:href="#DejaVuSans-2e" x="63.623047"/>
      <use xlink:href="#DejaVuSans-35" x="95.410156"/>
      <use xlink:href="#DejaVuSans-33" x="159.033203"/>
      <use xlink:href="#DejaVuSans-34" x="222.65625"/>
     </g>
    </g>
    <g id="line2d_65">
     <path d="M 579.197875 195.545438 
L 589.197875 195.545438 
L 599.197875 195.545438 
" style="fill: none; stroke: #63cb5f; stroke-width: 1.5; stroke-linecap: square"/>
    </g>
    <g id="text_39">
     <!-- 0.555 -->
     <g transform="translate(607.197875 199.045438) scale(0.1 -0.1)">
      <use xlink:href="#DejaVuSans-30"/>
      <use xlink:href="#DejaVuSans-2e" x="63.623047"/>
      <use xlink:href="#DejaVuSans-35" x="95.410156"/>
      <use xlink:href="#DejaVuSans-35" x="159.033203"/>
      <use xlink:href="#DejaVuSans-35" x="222.65625"/>
     </g>
    </g>
    <g id="line2d_66">
     <path d="M 579.197875 210.223563 
L 589.197875 210.223563 
L 599.197875 210.223563 
" style="fill: none; stroke: #77d153; stroke-width: 1.5; stroke-linecap: square"/>
    </g>
    <g id="text_40">
     <!-- 0.576 -->
     <g transform="translate(607.197875 213.723563) scale(0.1 -0.1)">
      <use xlink:href="#DejaVuSans-30"/>
      <use xlink:href="#DejaVuSans-2e" x="63.623047"/>
      <use xlink:href="#DejaVuSans-35" x="95.410156"/>
      <use xlink:href="#DejaVuSans-37" x="159.033203"/>
      <use xlink:href="#DejaVuSans-36" x="222.65625"/>
     </g>
    </g>
    <g id="line2d_67">
     <path d="M 579.197875 224.901688 
L 589.197875 224.901688 
L 599.197875 224.901688 
" style="fill: none; stroke: #8bd646; stroke-width: 1.5; stroke-linecap: square"/>
    </g>
    <g id="text_41">
     <!-- 0.597 -->
     <g transform="translate(607.197875 228.401688) scale(0.1 -0.1)">
      <use xlink:href="#DejaVuSans-30"/>
      <use xlink:href="#DejaVuSans-2e" x="63.623047"/>
      <use xlink:href="#DejaVuSans-35" x="95.410156"/>
      <use xlink:href="#DejaVuSans-39" x="159.033203"/>
      <use xlink:href="#DejaVuSans-37" x="222.65625"/>
     </g>
    </g>
    <g id="line2d_68">
     <path d="M 579.197875 239.579813 
L 589.197875 239.579813 
L 599.197875 239.579813 
" style="fill: none; stroke: #a2da37; stroke-width: 1.5; stroke-linecap: square"/>
    </g>
    <g id="text_42">
     <!-- 0.617 -->
     <g transform="translate(607.197875 243.079813) scale(0.1 -0.1)">
      <use xlink:href="#DejaVuSans-30"/>
      <use xlink:href="#DejaVuSans-2e" x="63.623047"/>
      <use xlink:href="#DejaVuSans-36" x="95.410156"/>
      <use xlink:href="#DejaVuSans-31" x="159.033203"/>
      <use xlink:href="#DejaVuSans-37" x="222.65625"/>
     </g>
    </g>
    <g id="line2d_69">
     <path d="M 579.197875 254.257938 
L 589.197875 254.257938 
L 599.197875 254.257938 
" style="fill: none; stroke: #bade28; stroke-width: 1.5; stroke-linecap: square"/>
    </g>
    <g id="text_43">
     <!-- 0.638 -->
     <g transform="translate(607.197875 257.757938) scale(0.1 -0.1)">
      <use xlink:href="#DejaVuSans-30"/>
      <use xlink:href="#DejaVuSans-2e" x="63.623047"/>
      <use xlink:href="#DejaVuSans-36" x="95.410156"/>
      <use xlink:href="#DejaVuSans-33" x="159.033203"/>
      <use xlink:href="#DejaVuSans-38" x="222.65625"/>
     </g>
    </g>
    <g id="line2d_70">
     <path d="M 579.197875 268.936062 
L 589.197875 268.936062 
L 599.197875 268.936062 
" style="fill: none; stroke: #d2e21b; stroke-width: 1.5; stroke-linecap: square"/>
    </g>
    <g id="text_44">
     <!-- 0.659 -->
     <g transform="translate(607.197875 272.436062) scale(0.1 -0.1)">
      <use xlink:href="#DejaVuSans-30"/>
      <use xlink:href="#DejaVuSans-2e" x="63.623047"/>
      <use xlink:href="#DejaVuSans-36" x="95.410156"/>
      <use xlink:href="#DejaVuSans-35" x="159.033203"/>
      <use xlink:href="#DejaVuSans-39" x="222.65625"/>
     </g>
    </g>
    <g id="line2d_71">
     <path d="M 579.197875 283.614188 
L 589.197875 283.614188 
L 599.197875 283.614188 
" style="fill: none; stroke: #eae51a; stroke-width: 1.5; stroke-linecap: square"/>
    </g>
    <g id="text_45">
     <!-- 0.679 -->
     <g transform="translate(607.197875 287.114188) scale(0.1 -0.1)">
      <use xlink:href="#DejaVuSans-30"/>
      <use xlink:href="#DejaVuSans-2e" x="63.623047"/>
      <use xlink:href="#DejaVuSans-36" x="95.410156"/>
      <use xlink:href="#DejaVuSans-37" x="159.033203"/>
      <use xlink:href="#DejaVuSans-39" x="222.65625"/>
     </g>
    </g>
    <g id="line2d_72">
     <path d="M 579.197875 298.292312 
L 589.197875 298.292312 
L 599.197875 298.292312 
" style="fill: none; stroke: #fde725; stroke-width: 1.5; stroke-linecap: square"/>
    </g>
    <g id="text_46">
     <!-- 0.7 -->
     <g transform="translate(607.197875 301.792312) scale(0.1 -0.1)">
      <use xlink:href="#DejaVuSans-30"/>
      <use xlink:href="#DejaVuSans-2e" x="63.623047"/>
      <use xlink:href="#DejaVuSans-37" x="95.410156"/>
     </g>
    </g>
   </g>
  </g>
  <g id="text_47">
   <!-- x0x1-y1 One-tone-powerDep -->
   <g transform="translate(132.961563 16.318125) scale(0.12 -0.12)">
    <defs>
     <path id="DejaVuSans-78" d="M 3513 3500 
L 2247 1797 
L 3578 0 
L 2900 0 
L 1881 1375 
L 863 0 
L 184 0 
L 1544 1831 
L 300 3500 
L 978 3500 
L 1906 2253 
L 2834 3500 
L 3513 3500 
z
" transform="scale(0.015625)"/>
     <path id="DejaVuSans-2d" d="M 313 2009 
L 1997 2009 
L 1997 1497 
L 313 1497 
L 313 2009 
z
" transform="scale(0.015625)"/>
     <path id="DejaVuSans-4f" d="M 2522 4238 
Q 1834 4238 1429 3725 
Q 1025 3213 1025 2328 
Q 1025 1447 1429 934 
Q 1834 422 2522 422 
Q 3209 422 3611 934 
Q 4013 1447 4013 2328 
Q 4013 3213 3611 3725 
Q 3209 4238 2522 4238 
z
M 2522 4750 
Q 3503 4750 4090 4092 
Q 4678 3434 4678 2328 
Q 4678 1225 4090 567 
Q 3503 -91 2522 -91 
Q 1538 -91 948 565 
Q 359 1222 359 2328 
Q 359 3434 948 4092 
Q 1538 4750 2522 4750 
z
" transform="scale(0.015625)"/>
     <path id="DejaVuSans-77" d="M 269 3500 
L 844 3500 
L 1563 769 
L 2278 3500 
L 2956 3500 
L 3675 769 
L 4391 3500 
L 4966 3500 
L 4050 0 
L 3372 0 
L 2619 2869 
L 1863 0 
L 1184 0 
L 269 3500 
z
" transform="scale(0.015625)"/>
     <path id="DejaVuSans-44" d="M 1259 4147 
L 1259 519 
L 2022 519 
Q 2988 519 3436 956 
Q 3884 1394 3884 2338 
Q 3884 3275 3436 3711 
Q 2988 4147 2022 4147 
L 1259 4147 
z
M 628 4666 
L 1925 4666 
Q 3281 4666 3915 4102 
Q 4550 3538 4550 2338 
Q 4550 1131 3912 565 
Q 3275 0 1925 0 
L 628 0 
L 628 4666 
z
" transform="scale(0.015625)"/>
    </defs>
    <use xlink:href="#DejaVuSans-78"/>
    <use xlink:href="#DejaVuSans-30" x="59.179688"/>
    <use xlink:href="#DejaVuSans-78" x="122.802734"/>
    <use xlink:href="#DejaVuSans-31" x="181.982422"/>
    <use xlink:href="#DejaVuSans-2d" x="245.605469"/>
    <use xlink:href="#DejaVuSans-79" x="279.939453"/>
    <use xlink:href="#DejaVuSans-31" x="339.119141"/>
    <use xlink:href="#DejaVuSans-20" x="402.742188"/>
    <use xlink:href="#DejaVuSans-4f" x="434.529297"/>
    <use xlink:href="#DejaVuSans-6e" x="513.240234"/>
    <use xlink:href="#DejaVuSans-65" x="576.619141"/>
    <use xlink:href="#DejaVuSans-2d" x="638.142578"/>
    <use xlink:href="#DejaVuSans-74" x="674.226562"/>
    <use xlink:href="#DejaVuSans-6f" x="713.435547"/>
    <use xlink:href="#DejaVuSans-6e" x="774.617188"/>
    <use xlink:href="#DejaVuSans-65" x="837.996094"/>
    <use xlink:href="#DejaVuSans-2d" x="899.519531"/>
    <use xlink:href="#DejaVuSans-70" x="935.603516"/>
    <use xlink:href="#DejaVuSans-6f" x="999.080078"/>
    <use xlink:href="#DejaVuSans-77" x="1060.261719"/>
    <use xlink:href="#DejaVuSans-65" x="1142.048828"/>
    <use xlink:href="#DejaVuSans-72" x="1203.572266"/>
    <use xlink:href="#DejaVuSans-44" x="1244.685547"/>
    <use xlink:href="#DejaVuSans-65" x="1321.6875"/>
    <use xlink:href="#DejaVuSans-70" x="1383.210938"/>
   </g>
   <!-- tuid: 20240304-134708-598-193418 -->
   <g transform="translate(109.910313 29.7555) scale(0.12 -0.12)">
    <defs>
     <path id="DejaVuSans-3a" d="M 750 794 
L 1409 794 
L 1409 0 
L 750 0 
L 750 794 
z
M 750 3309 
L 1409 3309 
L 1409 2516 
L 750 2516 
L 750 3309 
z
" transform="scale(0.015625)"/>
    </defs>
    <use xlink:href="#DejaVuSans-74"/>
    <use xlink:href="#DejaVuSans-75" x="39.208984"/>
    <use xlink:href="#DejaVuSans-69" x="102.587891"/>
    <use xlink:href="#DejaVuSans-64" x="130.371094"/>
    <use xlink:href="#DejaVuSans-3a" x="193.847656"/>
    <use xlink:href="#DejaVuSans-20" x="227.539062"/>
    <use xlink:href="#DejaVuSans-32" x="259.326172"/>
    <use xlink:href="#DejaVuSans-30" x="322.949219"/>
    <use xlink:href="#DejaVuSans-32" x="386.572266"/>
    <use xlink:href="#DejaVuSans-34" x="450.195312"/>
    <use xlink:href="#DejaVuSans-30" x="513.818359"/>
    <use xlink:href="#DejaVuSans-33" x="577.441406"/>
    <use xlink:href="#DejaVuSans-30" x="641.064453"/>
    <use xlink:href="#DejaVuSans-34" x="704.6875"/>
    <use xlink:href="#DejaVuSans-2d" x="768.310547"/>
    <use xlink:href="#DejaVuSans-31" x="804.394531"/>
    <use xlink:href="#DejaVuSans-33" x="868.017578"/>
    <use xlink:href="#DejaVuSans-34" x="931.640625"/>
    <use xlink:href="#DejaVuSans-37" x="995.263672"/>
    <use xlink:href="#DejaVuSans-30" x="1058.886719"/>
    <use xlink:href="#DejaVuSans-38" x="1122.509766"/>
    <use xlink:href="#DejaVuSans-2d" x="1186.132812"/>
    <use xlink:href="#DejaVuSans-35" x="1222.216797"/>
    <use xlink:href="#DejaVuSans-39" x="1285.839844"/>
    <use xlink:href="#DejaVuSans-38" x="1349.462891"/>
    <use xlink:href="#DejaVuSans-2d" x="1413.085938"/>
    <use xlink:href="#DejaVuSans-31" x="1449.169922"/>
    <use xlink:href="#DejaVuSans-39" x="1512.792969"/>
    <use xlink:href="#DejaVuSans-33" x="1576.416016"/>
    <use xlink:href="#DejaVuSans-34" x="1640.039062"/>
    <use xlink:href="#DejaVuSans-31" x="1703.662109"/>
    <use xlink:href="#DejaVuSans-38" x="1767.285156"/>
   </g>
  </g>
 </g>
 <defs>
  <clipPath id="pf590588260">
   <rect x="46.965625" y="41.76" width="357.12" height="266.112"/>
  </clipPath>
 </defs>
</svg>
