<?xml version="1.0" encoding="utf-8" standalone="no"?>
<!DOCTYPE svg PUBLIC "-//W3C//DTD SVG 1.1//EN"
  "http://www.w3.org/Graphics/SVG/1.1/DTD/svg11.dtd">
<svg xmlns:xlink="http://www.w3.org/1999/xlink" width="650.633813pt" height="345.42825pt" viewBox="0 0 650.633813 345.42825" xmlns="http://www.w3.org/2000/svg" version="1.1">
 <metadata>
  <rdf:RDF xmlns:dc="http://purl.org/dc/elements/1.1/" xmlns:cc="http://creativecommons.org/ns#" xmlns:rdf="http://www.w3.org/1999/02/22-rdf-syntax-ns#">
   <cc:Work>
    <dc:type rdf:resource="http://purl.org/dc/dcmitype/StillImage"/>
    <dc:date>2024-02-22T18:19:37.629500</dc:date>
    <dc:format>image/svg+xml</dc:format>
    <dc:creator>
     <cc:Agent>
      <dc:title>Matplotlib v3.8.2, https://matplotlib.org/</dc:title>
     </cc:Agent>
    </dc:creator>
   </cc:Work>
  </rdf:RDF>
 </metadata>
 <defs>
  <style type="text/css">*{stroke-linejoin: round; stroke-linecap: butt}</style>
 </defs>
 <g id="figure_1">
  <g id="patch_1">
   <path d="M 0 345.42825 
L 650.633813 345.42825 
L 650.633813 -0 
L 0 -0 
L 0 345.42825 
z
" style="fill: none; opacity: 0"/>
  </g>
  <g id="axes_1">
   <g id="patch_2">
    <path d="M 50.573438 307.872 
L 407.693438 307.872 
L 407.693438 41.76 
L 50.573438 41.76 
z
" style="fill: #ffffff"/>
   </g>
   <g id="matplotlib.axis_1">
    <g id="xtick_1">
     <g id="line2d_1">
      <defs>
       <path id="m88c892fb60" d="M 0 0 
L 0 3.5 
" style="stroke: #000000; stroke-width: 0.8"/>
      </defs>
      <g>
       <use xlink:href="#m88c892fb60" x="64.206534" y="307.872" style="stroke: #000000; stroke-width: 0.8"/>
      </g>
     </g>
     <g id="text_1">
      <!-- 5 -->
      <g transform="translate(61.025284 322.470438) scale(0.1 -0.1)">
       <defs>
        <path id="DejaVuSans-35" d="M 691 4666 
L 3169 4666 
L 3169 4134 
L 1269 4134 
L 1269 2991 
Q 1406 3038 1543 3061 
Q 1681 3084 1819 3084 
Q 2600 3084 3056 2656 
Q 3513 2228 3513 1497 
Q 3513 744 3044 326 
Q 2575 -91 1722 -91 
Q 1428 -91 1123 -41 
Q 819 9 494 109 
L 494 744 
Q 775 591 1075 516 
Q 1375 441 1709 441 
Q 2250 441 2565 725 
Q 2881 1009 2881 1497 
Q 2881 1984 2565 2268 
Q 2250 2553 1709 2553 
Q 1456 2553 1204 2497 
Q 953 2441 691 2322 
L 691 4666 
z
" transform="scale(0.015625)"/>
       </defs>
       <use xlink:href="#DejaVuSans-35"/>
      </g>
     </g>
    </g>
    <g id="xtick_2">
     <g id="line2d_2">
      <g>
       <use xlink:href="#m88c892fb60" x="118.315625" y="307.872" style="stroke: #000000; stroke-width: 0.8"/>
      </g>
     </g>
     <g id="text_2">
      <!-- 6 -->
      <g transform="translate(115.134375 322.470438) scale(0.1 -0.1)">
       <defs>
        <path id="DejaVuSans-36" d="M 2113 2584 
Q 1688 2584 1439 2293 
Q 1191 2003 1191 1497 
Q 1191 994 1439 701 
Q 1688 409 2113 409 
Q 2538 409 2786 701 
Q 3034 994 3034 1497 
Q 3034 2003 2786 2293 
Q 2538 2584 2113 2584 
z
M 3366 4563 
L 3366 3988 
Q 3128 4100 2886 4159 
Q 2644 4219 2406 4219 
Q 1781 4219 1451 3797 
Q 1122 3375 1075 2522 
Q 1259 2794 1537 2939 
Q 1816 3084 2150 3084 
Q 2853 3084 3261 2657 
Q 3669 2231 3669 1497 
Q 3669 778 3244 343 
Q 2819 -91 2113 -91 
Q 1303 -91 875 529 
Q 447 1150 447 2328 
Q 447 3434 972 4092 
Q 1497 4750 2381 4750 
Q 2619 4750 2861 4703 
Q 3103 4656 3366 4563 
z
" transform="scale(0.015625)"/>
       </defs>
       <use xlink:href="#DejaVuSans-36"/>
      </g>
     </g>
    </g>
    <g id="xtick_3">
     <g id="line2d_3">
      <g>
       <use xlink:href="#m88c892fb60" x="172.424716" y="307.872" style="stroke: #000000; stroke-width: 0.8"/>
      </g>
     </g>
     <g id="text_3">
      <!-- 7 -->
      <g transform="translate(169.243466 322.470438) scale(0.1 -0.1)">
       <defs>
        <path id="DejaVuSans-37" d="M 525 4666 
L 3525 4666 
L 3525 4397 
L 1831 0 
L 1172 0 
L 2766 4134 
L 525 4134 
L 525 4666 
z
" transform="scale(0.015625)"/>
       </defs>
       <use xlink:href="#DejaVuSans-37"/>
      </g>
     </g>
    </g>
    <g id="xtick_4">
     <g id="line2d_4">
      <g>
       <use xlink:href="#m88c892fb60" x="226.533807" y="307.872" style="stroke: #000000; stroke-width: 0.8"/>
      </g>
     </g>
     <g id="text_4">
      <!-- 8 -->
      <g transform="translate(223.352557 322.470438) scale(0.1 -0.1)">
       <defs>
        <path id="DejaVuSans-38" d="M 2034 2216 
Q 1584 2216 1326 1975 
Q 1069 1734 1069 1313 
Q 1069 891 1326 650 
Q 1584 409 2034 409 
Q 2484 409 2743 651 
Q 3003 894 3003 1313 
Q 3003 1734 2745 1975 
Q 2488 2216 2034 2216 
z
M 1403 2484 
Q 997 2584 770 2862 
Q 544 3141 544 3541 
Q 544 4100 942 4425 
Q 1341 4750 2034 4750 
Q 2731 4750 3128 4425 
Q 3525 4100 3525 3541 
Q 3525 3141 3298 2862 
Q 3072 2584 2669 2484 
Q 3125 2378 3379 2068 
Q 3634 1759 3634 1313 
Q 3634 634 3220 271 
Q 2806 -91 2034 -91 
Q 1263 -91 848 271 
Q 434 634 434 1313 
Q 434 1759 690 2068 
Q 947 2378 1403 2484 
z
M 1172 3481 
Q 1172 3119 1398 2916 
Q 1625 2713 2034 2713 
Q 2441 2713 2670 2916 
Q 2900 3119 2900 3481 
Q 2900 3844 2670 4047 
Q 2441 4250 2034 4250 
Q 1625 4250 1398 4047 
Q 1172 3844 1172 3481 
z
" transform="scale(0.015625)"/>
       </defs>
       <use xlink:href="#DejaVuSans-38"/>
      </g>
     </g>
    </g>
    <g id="xtick_5">
     <g id="line2d_5">
      <g>
       <use xlink:href="#m88c892fb60" x="280.642898" y="307.872" style="stroke: #000000; stroke-width: 0.8"/>
      </g>
     </g>
     <g id="text_5">
      <!-- 9 -->
      <g transform="translate(277.461648 322.470438) scale(0.1 -0.1)">
       <defs>
        <path id="DejaVuSans-39" d="M 703 97 
L 703 672 
Q 941 559 1184 500 
Q 1428 441 1663 441 
Q 2288 441 2617 861 
Q 2947 1281 2994 2138 
Q 2813 1869 2534 1725 
Q 2256 1581 1919 1581 
Q 1219 1581 811 2004 
Q 403 2428 403 3163 
Q 403 3881 828 4315 
Q 1253 4750 1959 4750 
Q 2769 4750 3195 4129 
Q 3622 3509 3622 2328 
Q 3622 1225 3098 567 
Q 2575 -91 1691 -91 
Q 1453 -91 1209 -44 
Q 966 3 703 97 
z
M 1959 2075 
Q 2384 2075 2632 2365 
Q 2881 2656 2881 3163 
Q 2881 3666 2632 3958 
Q 2384 4250 1959 4250 
Q 1534 4250 1286 3958 
Q 1038 3666 1038 3163 
Q 1038 2656 1286 2365 
Q 1534 2075 1959 2075 
z
" transform="scale(0.015625)"/>
       </defs>
       <use xlink:href="#DejaVuSans-39"/>
      </g>
     </g>
    </g>
    <g id="xtick_6">
     <g id="line2d_6">
      <g>
       <use xlink:href="#m88c892fb60" x="334.751989" y="307.872" style="stroke: #000000; stroke-width: 0.8"/>
      </g>
     </g>
     <g id="text_6">
      <!-- 10 -->
      <g transform="translate(328.389489 322.470438) scale(0.1 -0.1)">
       <defs>
        <path id="DejaVuSans-31" d="M 794 531 
L 1825 531 
L 1825 4091 
L 703 3866 
L 703 4441 
L 1819 4666 
L 2450 4666 
L 2450 531 
L 3481 531 
L 3481 0 
L 794 0 
L 794 531 
z
" transform="scale(0.015625)"/>
        <path id="DejaVuSans-30" d="M 2034 4250 
Q 1547 4250 1301 3770 
Q 1056 3291 1056 2328 
Q 1056 1369 1301 889 
Q 1547 409 2034 409 
Q 2525 409 2770 889 
Q 3016 1369 3016 2328 
Q 3016 3291 2770 3770 
Q 2525 4250 2034 4250 
z
M 2034 4750 
Q 2819 4750 3233 4129 
Q 3647 3509 3647 2328 
Q 3647 1150 3233 529 
Q 2819 -91 2034 -91 
Q 1250 -91 836 529 
Q 422 1150 422 2328 
Q 422 3509 836 4129 
Q 1250 4750 2034 4750 
z
" transform="scale(0.015625)"/>
       </defs>
       <use xlink:href="#DejaVuSans-31"/>
       <use xlink:href="#DejaVuSans-30" x="63.623047"/>
      </g>
     </g>
    </g>
    <g id="xtick_7">
     <g id="line2d_7">
      <g>
       <use xlink:href="#m88c892fb60" x="388.86108" y="307.872" style="stroke: #000000; stroke-width: 0.8"/>
      </g>
     </g>
     <g id="text_7">
      <!-- 11 -->
      <g transform="translate(382.49858 322.470438) scale(0.1 -0.1)">
       <use xlink:href="#DejaVuSans-31"/>
       <use xlink:href="#DejaVuSans-31" x="63.623047"/>
      </g>
     </g>
    </g>
    <g id="text_8">
     <!-- Frequency [MHz] -->
     <g transform="translate(187.114688 336.148562) scale(0.1 -0.1)">
      <defs>
       <path id="DejaVuSans-46" d="M 628 4666 
L 3309 4666 
L 3309 4134 
L 1259 4134 
L 1259 2759 
L 3109 2759 
L 3109 2228 
L 1259 2228 
L 1259 0 
L 628 0 
L 628 4666 
z
" transform="scale(0.015625)"/>
       <path id="DejaVuSans-72" d="M 2631 2963 
Q 2534 3019 2420 3045 
Q 2306 3072 2169 3072 
Q 1681 3072 1420 2755 
Q 1159 2438 1159 1844 
L 1159 0 
L 581 0 
L 581 3500 
L 1159 3500 
L 1159 2956 
Q 1341 3275 1631 3429 
Q 1922 3584 2338 3584 
Q 2397 3584 2469 3576 
Q 2541 3569 2628 3553 
L 2631 2963 
z
" transform="scale(0.015625)"/>
       <path id="DejaVuSans-65" d="M 3597 1894 
L 3597 1613 
L 953 1613 
Q 991 1019 1311 708 
Q 1631 397 2203 397 
Q 2534 397 2845 478 
Q 3156 559 3463 722 
L 3463 178 
Q 3153 47 2828 -22 
Q 2503 -91 2169 -91 
Q 1331 -91 842 396 
Q 353 884 353 1716 
Q 353 2575 817 3079 
Q 1281 3584 2069 3584 
Q 2775 3584 3186 3129 
Q 3597 2675 3597 1894 
z
M 3022 2063 
Q 3016 2534 2758 2815 
Q 2500 3097 2075 3097 
Q 1594 3097 1305 2825 
Q 1016 2553 972 2059 
L 3022 2063 
z
" transform="scale(0.015625)"/>
       <path id="DejaVuSans-71" d="M 947 1747 
Q 947 1113 1208 752 
Q 1469 391 1925 391 
Q 2381 391 2643 752 
Q 2906 1113 2906 1747 
Q 2906 2381 2643 2742 
Q 2381 3103 1925 3103 
Q 1469 3103 1208 2742 
Q 947 2381 947 1747 
z
M 2906 525 
Q 2725 213 2448 61 
Q 2172 -91 1784 -91 
Q 1150 -91 751 415 
Q 353 922 353 1747 
Q 353 2572 751 3078 
Q 1150 3584 1784 3584 
Q 2172 3584 2448 3432 
Q 2725 3281 2906 2969 
L 2906 3500 
L 3481 3500 
L 3481 -1331 
L 2906 -1331 
L 2906 525 
z
" transform="scale(0.015625)"/>
       <path id="DejaVuSans-75" d="M 544 1381 
L 544 3500 
L 1119 3500 
L 1119 1403 
Q 1119 906 1312 657 
Q 1506 409 1894 409 
Q 2359 409 2629 706 
Q 2900 1003 2900 1516 
L 2900 3500 
L 3475 3500 
L 3475 0 
L 2900 0 
L 2900 538 
Q 2691 219 2414 64 
Q 2138 -91 1772 -91 
Q 1169 -91 856 284 
Q 544 659 544 1381 
z
M 1991 3584 
L 1991 3584 
z
" transform="scale(0.015625)"/>
       <path id="DejaVuSans-6e" d="M 3513 2113 
L 3513 0 
L 2938 0 
L 2938 2094 
Q 2938 2591 2744 2837 
Q 2550 3084 2163 3084 
Q 1697 3084 1428 2787 
Q 1159 2491 1159 1978 
L 1159 0 
L 581 0 
L 581 3500 
L 1159 3500 
L 1159 2956 
Q 1366 3272 1645 3428 
Q 1925 3584 2291 3584 
Q 2894 3584 3203 3211 
Q 3513 2838 3513 2113 
z
" transform="scale(0.015625)"/>
       <path id="DejaVuSans-63" d="M 3122 3366 
L 3122 2828 
Q 2878 2963 2633 3030 
Q 2388 3097 2138 3097 
Q 1578 3097 1268 2742 
Q 959 2388 959 1747 
Q 959 1106 1268 751 
Q 1578 397 2138 397 
Q 2388 397 2633 464 
Q 2878 531 3122 666 
L 3122 134 
Q 2881 22 2623 -34 
Q 2366 -91 2075 -91 
Q 1284 -91 818 406 
Q 353 903 353 1747 
Q 353 2603 823 3093 
Q 1294 3584 2113 3584 
Q 2378 3584 2631 3529 
Q 2884 3475 3122 3366 
z
" transform="scale(0.015625)"/>
       <path id="DejaVuSans-79" d="M 2059 -325 
Q 1816 -950 1584 -1140 
Q 1353 -1331 966 -1331 
L 506 -1331 
L 506 -850 
L 844 -850 
Q 1081 -850 1212 -737 
Q 1344 -625 1503 -206 
L 1606 56 
L 191 3500 
L 800 3500 
L 1894 763 
L 2988 3500 
L 3597 3500 
L 2059 -325 
z
" transform="scale(0.015625)"/>
       <path id="DejaVuSans-20" transform="scale(0.015625)"/>
       <path id="DejaVuSans-5b" d="M 550 4863 
L 1875 4863 
L 1875 4416 
L 1125 4416 
L 1125 -397 
L 1875 -397 
L 1875 -844 
L 550 -844 
L 550 4863 
z
" transform="scale(0.015625)"/>
       <path id="DejaVuSans-4d" d="M 628 4666 
L 1569 4666 
L 2759 1491 
L 3956 4666 
L 4897 4666 
L 4897 0 
L 4281 0 
L 4281 4097 
L 3078 897 
L 2444 897 
L 1241 4097 
L 1241 0 
L 628 0 
L 628 4666 
z
" transform="scale(0.015625)"/>
       <path id="DejaVuSans-48" d="M 628 4666 
L 1259 4666 
L 1259 2753 
L 3553 2753 
L 3553 4666 
L 4184 4666 
L 4184 0 
L 3553 0 
L 3553 2222 
L 1259 2222 
L 1259 0 
L 628 0 
L 628 4666 
z
" transform="scale(0.015625)"/>
       <path id="DejaVuSans-7a" d="M 353 3500 
L 3084 3500 
L 3084 2975 
L 922 459 
L 3084 459 
L 3084 0 
L 275 0 
L 275 525 
L 2438 3041 
L 353 3041 
L 353 3500 
z
" transform="scale(0.015625)"/>
       <path id="DejaVuSans-5d" d="M 1947 4863 
L 1947 -844 
L 622 -844 
L 622 -397 
L 1369 -397 
L 1369 4416 
L 622 4416 
L 622 4863 
L 1947 4863 
z
" transform="scale(0.015625)"/>
      </defs>
      <use xlink:href="#DejaVuSans-46"/>
      <use xlink:href="#DejaVuSans-72" x="50.269531"/>
      <use xlink:href="#DejaVuSans-65" x="89.132812"/>
      <use xlink:href="#DejaVuSans-71" x="150.65625"/>
      <use xlink:href="#DejaVuSans-75" x="214.132812"/>
      <use xlink:href="#DejaVuSans-65" x="277.511719"/>
      <use xlink:href="#DejaVuSans-6e" x="339.035156"/>
      <use xlink:href="#DejaVuSans-63" x="402.414062"/>
      <use xlink:href="#DejaVuSans-79" x="457.394531"/>
      <use xlink:href="#DejaVuSans-20" x="516.574219"/>
      <use xlink:href="#DejaVuSans-5b" x="548.361328"/>
      <use xlink:href="#DejaVuSans-4d" x="587.375"/>
      <use xlink:href="#DejaVuSans-48" x="673.654297"/>
      <use xlink:href="#DejaVuSans-7a" x="748.849609"/>
      <use xlink:href="#DejaVuSans-5d" x="801.339844"/>
     </g>
    </g>
    <g id="text_9">
     <!-- +6 GHz -->
     <g transform="translate(369.255938 335.148562) scale(0.1 -0.1)">
      <defs>
       <path id="DejaVuSans-2b" d="M 2944 4013 
L 2944 2272 
L 4684 2272 
L 4684 1741 
L 2944 1741 
L 2944 0 
L 2419 0 
L 2419 1741 
L 678 1741 
L 678 2272 
L 2419 2272 
L 2419 4013 
L 2944 4013 
z
" transform="scale(0.015625)"/>
       <path id="DejaVuSans-47" d="M 3809 666 
L 3809 1919 
L 2778 1919 
L 2778 2438 
L 4434 2438 
L 4434 434 
Q 4069 175 3628 42 
Q 3188 -91 2688 -91 
Q 1594 -91 976 548 
Q 359 1188 359 2328 
Q 359 3472 976 4111 
Q 1594 4750 2688 4750 
Q 3144 4750 3555 4637 
Q 3966 4525 4313 4306 
L 4313 3634 
Q 3963 3931 3569 4081 
Q 3175 4231 2741 4231 
Q 1884 4231 1454 3753 
Q 1025 3275 1025 2328 
Q 1025 1384 1454 906 
Q 1884 428 2741 428 
Q 3075 428 3337 486 
Q 3600 544 3809 666 
z
" transform="scale(0.015625)"/>
      </defs>
      <use xlink:href="#DejaVuSans-2b"/>
      <use xlink:href="#DejaVuSans-36" x="83.789062"/>
      <use xlink:href="#DejaVuSans-20" x="147.412109"/>
      <use xlink:href="#DejaVuSans-47" x="179.199219"/>
      <use xlink:href="#DejaVuSans-48" x="256.689453"/>
      <use xlink:href="#DejaVuSans-7a" x="331.884766"/>
     </g>
    </g>
   </g>
   <g id="matplotlib.axis_2">
    <g id="ytick_1">
     <g id="line2d_8">
      <defs>
       <path id="m319eaee2c3" d="M 0 0 
L -3.5 0 
" style="stroke: #000000; stroke-width: 0.8"/>
      </defs>
      <g>
       <use xlink:href="#m319eaee2c3" x="50.573438" y="275.63701" style="stroke: #000000; stroke-width: 0.8"/>
      </g>
     </g>
     <g id="text_10">
      <!-- -150 -->
      <g transform="translate(20.878125 279.436229) scale(0.1 -0.1)">
       <defs>
        <path id="DejaVuSans-2d" d="M 313 2009 
L 1997 2009 
L 1997 1497 
L 313 1497 
L 313 2009 
z
" transform="scale(0.015625)"/>
       </defs>
       <use xlink:href="#DejaVuSans-2d"/>
       <use xlink:href="#DejaVuSans-31" x="36.083984"/>
       <use xlink:href="#DejaVuSans-35" x="99.707031"/>
       <use xlink:href="#DejaVuSans-30" x="163.330078"/>
      </g>
     </g>
    </g>
    <g id="ytick_2">
     <g id="line2d_9">
      <g>
       <use xlink:href="#m319eaee2c3" x="50.573438" y="242.03073" style="stroke: #000000; stroke-width: 0.8"/>
      </g>
     </g>
     <g id="text_11">
      <!-- -100 -->
      <g transform="translate(20.878125 245.829948) scale(0.1 -0.1)">
       <use xlink:href="#DejaVuSans-2d"/>
       <use xlink:href="#DejaVuSans-31" x="36.083984"/>
       <use xlink:href="#DejaVuSans-30" x="99.707031"/>
       <use xlink:href="#DejaVuSans-30" x="163.330078"/>
      </g>
     </g>
    </g>
    <g id="ytick_3">
     <g id="line2d_10">
      <g>
       <use xlink:href="#m319eaee2c3" x="50.573438" y="208.424449" style="stroke: #000000; stroke-width: 0.8"/>
      </g>
     </g>
     <g id="text_12">
      <!-- -50 -->
      <g transform="translate(27.240625 212.223668) scale(0.1 -0.1)">
       <use xlink:href="#DejaVuSans-2d"/>
       <use xlink:href="#DejaVuSans-35" x="36.083984"/>
       <use xlink:href="#DejaVuSans-30" x="99.707031"/>
      </g>
     </g>
    </g>
    <g id="ytick_4">
     <g id="line2d_11">
      <g>
       <use xlink:href="#m319eaee2c3" x="50.573438" y="174.818169" style="stroke: #000000; stroke-width: 0.8"/>
      </g>
     </g>
     <g id="text_13">
      <!-- 0 -->
      <g transform="translate(37.210938 178.617388) scale(0.1 -0.1)">
       <use xlink:href="#DejaVuSans-30"/>
      </g>
     </g>
    </g>
    <g id="ytick_5">
     <g id="line2d_12">
      <g>
       <use xlink:href="#m319eaee2c3" x="50.573438" y="141.211889" style="stroke: #000000; stroke-width: 0.8"/>
      </g>
     </g>
     <g id="text_14">
      <!-- 50 -->
      <g transform="translate(30.848438 145.011107) scale(0.1 -0.1)">
       <use xlink:href="#DejaVuSans-35"/>
       <use xlink:href="#DejaVuSans-30" x="63.623047"/>
      </g>
     </g>
    </g>
    <g id="ytick_6">
     <g id="line2d_13">
      <g>
       <use xlink:href="#m319eaee2c3" x="50.573438" y="107.605608" style="stroke: #000000; stroke-width: 0.8"/>
      </g>
     </g>
     <g id="text_15">
      <!-- 100 -->
      <g transform="translate(24.485938 111.404827) scale(0.1 -0.1)">
       <use xlink:href="#DejaVuSans-31"/>
       <use xlink:href="#DejaVuSans-30" x="63.623047"/>
       <use xlink:href="#DejaVuSans-30" x="127.246094"/>
      </g>
     </g>
    </g>
    <g id="ytick_7">
     <g id="line2d_14">
      <g>
       <use xlink:href="#m319eaee2c3" x="50.573438" y="73.999328" style="stroke: #000000; stroke-width: 0.8"/>
      </g>
     </g>
     <g id="text_16">
      <!-- 150 -->
      <g transform="translate(24.485938 77.798547) scale(0.1 -0.1)">
       <use xlink:href="#DejaVuSans-31"/>
       <use xlink:href="#DejaVuSans-35" x="63.623047"/>
       <use xlink:href="#DejaVuSans-30" x="127.246094"/>
      </g>
     </g>
    </g>
    <g id="text_17">
     <!-- Phase0 [deg] -->
     <g transform="translate(14.798438 207.841781) rotate(-90) scale(0.1 -0.1)">
      <defs>
       <path id="DejaVuSans-50" d="M 1259 4147 
L 1259 2394 
L 2053 2394 
Q 2494 2394 2734 2622 
Q 2975 2850 2975 3272 
Q 2975 3691 2734 3919 
Q 2494 4147 2053 4147 
L 1259 4147 
z
M 628 4666 
L 2053 4666 
Q 2838 4666 3239 4311 
Q 3641 3956 3641 3272 
Q 3641 2581 3239 2228 
Q 2838 1875 2053 1875 
L 1259 1875 
L 1259 0 
L 628 0 
L 628 4666 
z
" transform="scale(0.015625)"/>
       <path id="DejaVuSans-68" d="M 3513 2113 
L 3513 0 
L 2938 0 
L 2938 2094 
Q 2938 2591 2744 2837 
Q 2550 3084 2163 3084 
Q 1697 3084 1428 2787 
Q 1159 2491 1159 1978 
L 1159 0 
L 581 0 
L 581 4863 
L 1159 4863 
L 1159 2956 
Q 1366 3272 1645 3428 
Q 1925 3584 2291 3584 
Q 2894 3584 3203 3211 
Q 3513 2838 3513 2113 
z
" transform="scale(0.015625)"/>
       <path id="DejaVuSans-61" d="M 2194 1759 
Q 1497 1759 1228 1600 
Q 959 1441 959 1056 
Q 959 750 1161 570 
Q 1363 391 1709 391 
Q 2188 391 2477 730 
Q 2766 1069 2766 1631 
L 2766 1759 
L 2194 1759 
z
M 3341 1997 
L 3341 0 
L 2766 0 
L 2766 531 
Q 2569 213 2275 61 
Q 1981 -91 1556 -91 
Q 1019 -91 701 211 
Q 384 513 384 1019 
Q 384 1609 779 1909 
Q 1175 2209 1959 2209 
L 2766 2209 
L 2766 2266 
Q 2766 2663 2505 2880 
Q 2244 3097 1772 3097 
Q 1472 3097 1187 3025 
Q 903 2953 641 2809 
L 641 3341 
Q 956 3463 1253 3523 
Q 1550 3584 1831 3584 
Q 2591 3584 2966 3190 
Q 3341 2797 3341 1997 
z
" transform="scale(0.015625)"/>
       <path id="DejaVuSans-73" d="M 2834 3397 
L 2834 2853 
Q 2591 2978 2328 3040 
Q 2066 3103 1784 3103 
Q 1356 3103 1142 2972 
Q 928 2841 928 2578 
Q 928 2378 1081 2264 
Q 1234 2150 1697 2047 
L 1894 2003 
Q 2506 1872 2764 1633 
Q 3022 1394 3022 966 
Q 3022 478 2636 193 
Q 2250 -91 1575 -91 
Q 1294 -91 989 -36 
Q 684 19 347 128 
L 347 722 
Q 666 556 975 473 
Q 1284 391 1588 391 
Q 1994 391 2212 530 
Q 2431 669 2431 922 
Q 2431 1156 2273 1281 
Q 2116 1406 1581 1522 
L 1381 1569 
Q 847 1681 609 1914 
Q 372 2147 372 2553 
Q 372 3047 722 3315 
Q 1072 3584 1716 3584 
Q 2034 3584 2315 3537 
Q 2597 3491 2834 3397 
z
" transform="scale(0.015625)"/>
       <path id="DejaVuSans-64" d="M 2906 2969 
L 2906 4863 
L 3481 4863 
L 3481 0 
L 2906 0 
L 2906 525 
Q 2725 213 2448 61 
Q 2172 -91 1784 -91 
Q 1150 -91 751 415 
Q 353 922 353 1747 
Q 353 2572 751 3078 
Q 1150 3584 1784 3584 
Q 2172 3584 2448 3432 
Q 2725 3281 2906 2969 
z
M 947 1747 
Q 947 1113 1208 752 
Q 1469 391 1925 391 
Q 2381 391 2643 752 
Q 2906 1113 2906 1747 
Q 2906 2381 2643 2742 
Q 2381 3103 1925 3103 
Q 1469 3103 1208 2742 
Q 947 2381 947 1747 
z
" transform="scale(0.015625)"/>
       <path id="DejaVuSans-67" d="M 2906 1791 
Q 2906 2416 2648 2759 
Q 2391 3103 1925 3103 
Q 1463 3103 1205 2759 
Q 947 2416 947 1791 
Q 947 1169 1205 825 
Q 1463 481 1925 481 
Q 2391 481 2648 825 
Q 2906 1169 2906 1791 
z
M 3481 434 
Q 3481 -459 3084 -895 
Q 2688 -1331 1869 -1331 
Q 1566 -1331 1297 -1286 
Q 1028 -1241 775 -1147 
L 775 -588 
Q 1028 -725 1275 -790 
Q 1522 -856 1778 -856 
Q 2344 -856 2625 -561 
Q 2906 -266 2906 331 
L 2906 616 
Q 2728 306 2450 153 
Q 2172 0 1784 0 
Q 1141 0 747 490 
Q 353 981 353 1791 
Q 353 2603 747 3093 
Q 1141 3584 1784 3584 
Q 2172 3584 2450 3431 
Q 2728 3278 2906 2969 
L 2906 3500 
L 3481 3500 
L 3481 434 
z
" transform="scale(0.015625)"/>
      </defs>
      <use xlink:href="#DejaVuSans-50"/>
      <use xlink:href="#DejaVuSans-68" x="60.302734"/>
      <use xlink:href="#DejaVuSans-61" x="123.681641"/>
      <use xlink:href="#DejaVuSans-73" x="184.960938"/>
      <use xlink:href="#DejaVuSans-65" x="237.060547"/>
      <use xlink:href="#DejaVuSans-30" x="298.583984"/>
      <use xlink:href="#DejaVuSans-20" x="362.207031"/>
      <use xlink:href="#DejaVuSans-5b" x="393.994141"/>
      <use xlink:href="#DejaVuSans-64" x="433.007812"/>
      <use xlink:href="#DejaVuSans-65" x="496.484375"/>
      <use xlink:href="#DejaVuSans-67" x="558.007812"/>
      <use xlink:href="#DejaVuSans-5d" x="621.484375"/>
     </g>
    </g>
   </g>
   <g id="line2d_15">
    <path d="M 66.806165 272.10006 
L 78.001149 274.329698 
L 89.196133 275.183712 
L 100.391118 276.650602 
L 111.586102 277.945527 
L 122.781086 280.966153 
L 133.976071 283.257142 
L 145.171055 285.504414 
L 156.366039 287.973069 
L 167.561024 291.99788 
L 178.756008 294.739889 
L 189.950992 58.531004 
L 201.145977 62.432734 
L 212.340961 66.962422 
L 223.535945 66.973225 
L 234.73093 279.782108 
L 245.925914 244.567441 
L 257.120898 239.963729 
L 268.315883 241.04132 
L 279.510867 245.057978 
L 290.705851 247.301601 
L 301.900836 250.594445 
L 313.09582 253.153101 
L 324.290804 255.027428 
L 335.485789 256.727741 
L 346.680773 259.559763 
L 357.875757 261.238127 
L 369.070742 262.432441 
L 380.265726 264.034417 
L 391.46071 265.286599 
" clip-path="url(#pc70bc2f260)" style="fill: none; stroke: #440154; stroke-width: 1.5; stroke-linecap: square"/>
   </g>
   <g id="line2d_16">
    <path d="M 66.806165 272.065731 
L 78.001149 273.909651 
L 89.196133 274.722246 
L 100.391118 276.720004 
L 111.586102 278.378577 
L 122.781086 280.675571 
L 133.976071 282.505715 
L 145.171055 285.374291 
L 156.366039 287.836622 
L 167.561024 291.922524 
L 178.756008 295.133505 
L 189.950992 57.937954 
L 201.145977 62.051938 
L 212.340961 65.589827 
L 223.535945 67.150681 
L 234.73093 274.733356 
L 245.925914 243.259637 
L 257.120898 239.248925 
L 268.315883 241.011934 
L 279.510867 243.795867 
L 290.705851 247.584235 
L 301.900836 249.741928 
L 313.09582 253.048715 
L 324.290804 254.968419 
L 335.485789 257.118145 
L 346.680773 259.83933 
L 357.875757 260.894567 
L 369.070742 262.491417 
L 380.265726 264.152983 
L 391.46071 265.094322 
" clip-path="url(#pc70bc2f260)" style="fill: none; stroke: #470d60; stroke-width: 1.5; stroke-linecap: square"/>
   </g>
   <g id="line2d_17">
    <path d="M 66.806165 272.320227 
L 78.001149 273.603474 
L 89.196133 275.45545 
L 100.391118 276.945736 
L 111.586102 278.455195 
L 122.781086 280.361657 
L 133.976071 282.895016 
L 145.171055 285.545312 
L 156.366039 288.654754 
L 167.561024 291.571324 
L 178.756008 295.776 
L 189.950992 57.491108 
L 201.145977 63.211791 
L 212.340961 66.047808 
L 223.535945 65.164288 
L 234.73093 280.64311 
L 245.925914 242.793258 
L 257.120898 239.071794 
L 268.315883 241.651361 
L 279.510867 244.255441 
L 290.705851 248.044406 
L 301.900836 250.653607 
L 313.09582 252.968123 
L 324.290804 254.95317 
L 335.485789 257.756849 
L 346.680773 259.212479 
L 357.875757 260.943866 
L 369.070742 262.645268 
L 380.265726 264.224636 
L 391.46071 265.220087 
" clip-path="url(#pc70bc2f260)" style="fill: none; stroke: #481a6c; stroke-width: 1.5; stroke-linecap: square"/>
   </g>
   <g id="line2d_18">
    <path d="M 66.806165 272.525023 
L 78.001149 273.440437 
L 89.196133 275.110147 
L 100.391118 276.812838 
L 111.586102 278.347195 
L 122.781086 280.705585 
L 133.976071 282.728526 
L 145.171055 285.353934 
L 156.366039 288.211839 
L 167.561024 291.242622 
L 178.756008 295.209998 
L 189.950992 58.096341 
L 201.145977 62.40786 
L 212.340961 66.109191 
L 223.535945 66.641869 
L 234.73093 270.976443 
L 245.925914 240.355348 
L 257.120898 238.433012 
L 268.315883 241.759094 
L 279.510867 244.453259 
L 290.705851 247.529248 
L 301.900836 250.571845 
L 313.09582 252.509662 
L 324.290804 255.24425 
L 335.485789 257.071266 
L 346.680773 259.328054 
L 357.875757 260.758302 
L 369.070742 262.058108 
L 380.265726 264.180633 
L 391.46071 265.398453 
" clip-path="url(#pc70bc2f260)" style="fill: none; stroke: #482576; stroke-width: 1.5; stroke-linecap: square"/>
   </g>
   <g id="line2d_19">
    <path d="M 66.806165 272.349406 
L 78.001149 273.972 
L 89.196133 275.350065 
L 100.391118 276.34096 
L 111.586102 278.745918 
L 122.781086 280.560466 
L 133.976071 282.627633 
L 145.171055 285.55392 
L 156.366039 288.223349 
L 167.561024 291.763891 
L 178.756008 295.506238 
L 189.950992 58.521969 
L 201.145977 63.142434 
L 212.340961 65.490451 
L 223.535945 62.973542 
L 234.73093 269.810825 
L 245.925914 240.699164 
L 257.120898 238.937583 
L 268.315883 241.79625 
L 279.510867 244.142184 
L 290.705851 247.446623 
L 301.900836 250.099314 
L 313.09582 253.384037 
L 324.290804 254.882678 
L 335.485789 257.359686 
L 346.680773 259.247319 
L 357.875757 260.951034 
L 369.070742 262.808071 
L 380.265726 263.912042 
L 391.46071 265.093481 
" clip-path="url(#pc70bc2f260)" style="fill: none; stroke: #46307e; stroke-width: 1.5; stroke-linecap: square"/>
   </g>
   <g id="line2d_20">
    <path d="M 66.806165 272.139189 
L 78.001149 273.995087 
L 89.196133 274.903572 
L 100.391118 276.740993 
L 111.586102 278.494122 
L 122.781086 280.660186 
L 133.976071 283.079016 
L 145.171055 285.267026 
L 156.366039 288.148397 
L 167.561024 291.401113 
L 178.756008 54.00488 
L 189.950992 58.308232 
L 201.145977 62.859029 
L 212.340961 65.081976 
L 223.535945 62.319374 
L 234.73093 272.526373 
L 245.925914 241.222388 
L 257.120898 238.319195 
L 268.315883 241.496563 
L 279.510867 243.875051 
L 290.705851 247.876002 
L 301.900836 250.509596 
L 313.09582 252.584485 
L 324.290804 255.285998 
L 335.485789 257.264334 
L 346.680773 259.074501 
L 357.875757 260.605219 
L 369.070742 262.001403 
L 380.265726 263.603071 
L 391.46071 265.075007 
" clip-path="url(#pc70bc2f260)" style="fill: none; stroke: #443b84; stroke-width: 1.5; stroke-linecap: square"/>
   </g>
   <g id="line2d_21">
    <path d="M 66.806165 272.448408 
L 78.001149 273.356576 
L 89.196133 275.258908 
L 100.391118 276.471865 
L 111.586102 278.196734 
L 122.781086 280.329903 
L 133.976071 282.559838 
L 145.171055 285.218576 
L 156.366039 287.937823 
L 167.561024 291.67162 
L 178.756008 54.136369 
L 189.950992 58.192535 
L 201.145977 63.029896 
L 212.340961 65.528623 
L 223.535945 62.750756 
L 234.73093 267.201766 
L 245.925914 240.259584 
L 257.120898 239.120449 
L 268.315883 241.743116 
L 279.510867 244.492327 
L 290.705851 247.659178 
L 301.900836 250.612335 
L 313.09582 252.682338 
L 324.290804 255.301268 
L 335.485789 257.334791 
L 346.680773 259.080711 
L 357.875757 260.823909 
L 369.070742 262.670765 
L 380.265726 263.786035 
L 391.46071 265.167864 
" clip-path="url(#pc70bc2f260)" style="fill: none; stroke: #404588; stroke-width: 1.5; stroke-linecap: square"/>
   </g>
   <g id="line2d_22">
    <path d="M 66.806165 272.229412 
L 78.001149 273.429779 
L 89.196133 274.966954 
L 100.391118 276.826899 
L 111.586102 278.548098 
L 122.781086 280.429377 
L 133.976071 282.756826 
L 145.171055 285.395075 
L 156.366039 288.330679 
L 167.561024 291.813075 
L 178.756008 295.572762 
L 189.950992 58.563861 
L 201.145977 62.960622 
L 212.340961 66.68313 
L 223.535945 62.877875 
L 234.73093 264.471033 
L 245.925914 240.225594 
L 257.120898 239.342084 
L 268.315883 241.68146 
L 279.510867 245.087248 
L 290.705851 247.612461 
L 301.900836 250.779391 
L 313.09582 252.572583 
L 324.290804 255.109475 
L 335.485789 257.628773 
L 346.680773 259.210716 
L 357.875757 260.868383 
L 369.070742 262.281485 
L 380.265726 263.563853 
L 391.46071 265.338004 
" clip-path="url(#pc70bc2f260)" style="fill: none; stroke: #3c4f8a; stroke-width: 1.5; stroke-linecap: square"/>
   </g>
   <g id="line2d_23">
    <path d="M 66.806165 272.186717 
L 78.001149 273.553427 
L 89.196133 274.835161 
L 100.391118 276.387795 
L 111.586102 278.361506 
L 122.781086 280.750233 
L 133.976071 282.740411 
L 145.171055 285.677976 
L 156.366039 288.622461 
L 167.561024 291.703628 
L 178.756008 295.318158 
L 189.950992 58.596932 
L 201.145977 62.704042 
L 212.340961 64.481959 
L 223.535945 292.114994 
L 234.73093 258.567174 
L 245.925914 238.924015 
L 257.120898 239.17651 
L 268.315883 241.499588 
L 279.510867 244.555094 
L 290.705851 248.005592 
L 301.900836 250.441803 
L 313.09582 252.80474 
L 324.290804 255.334892 
L 335.485789 257.454627 
L 346.680773 258.971269 
L 357.875757 260.976618 
L 369.070742 262.582455 
L 380.265726 263.742496 
L 391.46071 265.099618 
" clip-path="url(#pc70bc2f260)" style="fill: none; stroke: #38598c; stroke-width: 1.5; stroke-linecap: square"/>
   </g>
   <g id="line2d_24">
    <path d="M 66.806165 272.166577 
L 78.001149 273.508838 
L 89.196133 274.917116 
L 100.391118 276.715146 
L 111.586102 278.233343 
L 122.781086 280.606608 
L 133.976071 283.053583 
L 145.171055 285.555328 
L 156.366039 288.128107 
L 167.561024 292.032911 
L 178.756008 54.307915 
L 189.950992 58.621128 
L 201.145977 62.435309 
L 212.340961 56.408516 
L 223.535945 279.965999 
L 234.73093 253.429759 
L 245.925914 240.388996 
L 257.120898 239.59368 
L 268.315883 241.835709 
L 279.510867 245.155861 
L 290.705851 247.786149 
L 301.900836 250.4283 
L 313.09582 252.984711 
L 324.290804 255.211052 
L 335.485789 257.299958 
L 346.680773 259.017104 
L 357.875757 260.821348 
L 369.070742 262.34945 
L 380.265726 263.616509 
L 391.46071 265.155505 
" clip-path="url(#pc70bc2f260)" style="fill: none; stroke: #33628d; stroke-width: 1.5; stroke-linecap: square"/>
   </g>
   <g id="line2d_25">
    <path d="M 66.806165 271.975157 
L 78.001149 273.413153 
L 89.196133 274.912796 
L 100.391118 276.813481 
L 111.586102 278.434585 
L 122.781086 280.4552 
L 133.976071 283.184755 
L 145.171055 285.515724 
L 156.366039 288.784043 
L 167.561024 292.490758 
L 178.756008 54.377391 
L 189.950992 59.418315 
L 201.145977 60.46773 
L 212.340961 294.680094 
L 223.535945 266.901628 
L 234.73093 248.178828 
L 245.925914 241.371522 
L 257.120898 239.903213 
L 268.315883 242.012423 
L 279.510867 245.572061 
L 290.705851 247.407958 
L 301.900836 250.874882 
L 313.09582 253.110438 
L 324.290804 255.205477 
L 335.485789 257.066854 
L 346.680773 259.22496 
L 357.875757 260.975399 
L 369.070742 262.22304 
L 380.265726 263.9673 
L 391.46071 265.176104 
" clip-path="url(#pc70bc2f260)" style="fill: none; stroke: #2f6b8e; stroke-width: 1.5; stroke-linecap: square"/>
   </g>
   <g id="line2d_26">
    <path d="M 66.806165 272.035313 
L 78.001149 273.485017 
L 89.196133 275.107229 
L 100.391118 276.56025 
L 111.586102 278.541538 
L 122.781086 280.914696 
L 133.976071 283.545582 
L 145.171055 285.909549 
L 156.366039 288.578018 
L 167.561024 292.829846 
L 178.756008 54.513535 
L 189.950992 56.236197 
L 201.145977 56.146158 
L 212.340961 54.265434 
L 223.535945 265.384904 
L 234.73093 248.096887 
L 245.925914 241.600296 
L 257.120898 241.956543 
L 268.315883 242.340089 
L 279.510867 244.929641 
L 290.705851 247.898233 
L 301.900836 250.96747 
L 313.09582 253.297569 
L 324.290804 255.261173 
L 335.485789 257.779221 
L 346.680773 259.082762 
L 357.875757 260.943406 
L 369.070742 262.277066 
L 380.265726 263.760927 
L 391.46071 265.118273 
" clip-path="url(#pc70bc2f260)" style="fill: none; stroke: #2c738e; stroke-width: 1.5; stroke-linecap: square"/>
   </g>
   <g id="line2d_27">
    <path d="M 66.806165 272.215232 
L 78.001149 273.474381 
L 89.196133 275.187887 
L 100.391118 276.685408 
L 111.586102 278.662298 
L 122.781086 280.824817 
L 133.976071 282.870841 
L 145.171055 286.35918 
L 156.366039 289.105068 
L 167.561024 292.448886 
L 178.756008 55.236193 
L 189.950992 58.471377 
L 201.145977 53.856 
L 212.340961 285.630918 
L 223.535945 259.713981 
L 234.73093 247.64743 
L 245.925914 242.154092 
L 257.120898 242.666155 
L 268.315883 244.113644 
L 279.510867 245.73428 
L 290.705851 248.036798 
L 301.900836 251.05257 
L 313.09582 253.282542 
L 324.290804 255.430293 
L 335.485789 257.355296 
L 346.680773 259.326821 
L 357.875757 260.882555 
L 369.070742 262.367664 
L 380.265726 263.662355 
L 391.46071 265.05156 
" clip-path="url(#pc70bc2f260)" style="fill: none; stroke: #297b8e; stroke-width: 1.5; stroke-linecap: square"/>
   </g>
   <g id="line2d_28">
    <path d="M 66.806165 272.099451 
L 78.001149 273.719217 
L 89.196133 275.099749 
L 100.391118 276.865438 
L 111.586102 278.614942 
L 122.781086 280.969024 
L 133.976071 283.272547 
L 145.171055 286.126414 
L 156.366039 289.060153 
L 167.561024 293.075955 
L 178.756008 55.517252 
L 189.950992 57.456458 
L 201.145977 54.888713 
L 212.340961 272.921685 
L 223.535945 250.470775 
L 234.73093 245.111232 
L 245.925914 242.257817 
L 257.120898 243.298949 
L 268.315883 244.146372 
L 279.510867 245.257751 
L 290.705851 247.798325 
L 301.900836 251.476963 
L 313.09582 253.456422 
L 324.290804 255.946125 
L 335.485789 257.452668 
L 346.680773 259.180385 
L 357.875757 260.848748 
L 369.070742 262.305024 
L 380.265726 263.881098 
L 391.46071 264.889359 
" clip-path="url(#pc70bc2f260)" style="fill: none; stroke: #25838e; stroke-width: 1.5; stroke-linecap: square"/>
   </g>
   <g id="line2d_29">
    <path d="M 66.806165 272.212357 
L 78.001149 273.714572 
L 89.196133 275.323602 
L 100.391118 277.029635 
L 111.586102 278.428056 
L 122.781086 280.924658 
L 133.976071 283.527185 
L 145.171055 286.070982 
L 156.366039 288.972856 
L 167.561024 294.272106 
L 178.756008 56.482283 
L 189.950992 57.061636 
L 201.145977 293.366938 
L 212.340961 259.095454 
L 223.535945 246.58631 
L 234.73093 244.418752 
L 245.925914 242.102861 
L 257.120898 243.943575 
L 268.315883 243.8531 
L 279.510867 247.294149 
L 290.705851 248.432384 
L 301.900836 251.084625 
L 313.09582 253.22301 
L 324.290804 255.618835 
L 335.485789 257.347917 
L 346.680773 259.747755 
L 357.875757 260.966238 
L 369.070742 262.384836 
L 380.265726 263.786874 
L 391.46071 265.18446 
" clip-path="url(#pc70bc2f260)" style="fill: none; stroke: #228c8d; stroke-width: 1.5; stroke-linecap: square"/>
   </g>
   <g id="line2d_30">
    <path d="M 66.806165 272.365786 
L 78.001149 273.833975 
L 89.196133 275.177471 
L 100.391118 276.820389 
L 111.586102 278.671365 
L 122.781086 280.894352 
L 133.976071 283.161292 
L 145.171055 286.324348 
L 156.366039 290.127612 
L 167.561024 294.708953 
L 178.756008 55.852655 
L 189.950992 54.891165 
L 201.145977 284.901752 
L 212.340961 257.491486 
L 223.535945 244.25492 
L 234.73093 243.038264 
L 245.925914 243.610157 
L 257.120898 243.966854 
L 268.315883 245.463995 
L 279.510867 246.93735 
L 290.705851 249.586147 
L 301.900836 251.203612 
L 313.09582 253.483898 
L 324.290804 255.906964 
L 335.485789 257.635111 
L 346.680773 259.547929 
L 357.875757 261.077772 
L 369.070742 262.430827 
L 380.265726 264.031081 
L 391.46071 265.158889 
" clip-path="url(#pc70bc2f260)" style="fill: none; stroke: #1f948c; stroke-width: 1.5; stroke-linecap: square"/>
   </g>
   <g id="line2d_31">
    <path d="M 66.806165 272.239382 
L 78.001149 273.619233 
L 89.196133 275.097777 
L 100.391118 277.263488 
L 111.586102 278.826431 
L 122.781086 280.912285 
L 133.976071 283.532025 
L 145.171055 286.924354 
L 156.366039 291.20245 
L 167.561024 295.499944 
L 178.756008 56.705686 
L 189.950992 55.302419 
L 201.145977 271.990233 
L 212.340961 247.918915 
L 223.535945 243.223475 
L 234.73093 243.42876 
L 245.925914 244.258594 
L 257.120898 244.103592 
L 268.315883 245.170581 
L 279.510867 248.101368 
L 290.705851 249.999806 
L 301.900836 251.74231 
L 313.09582 253.608259 
L 324.290804 255.710264 
L 335.485789 257.656539 
L 346.680773 259.373019 
L 357.875757 261.232715 
L 369.070742 262.510057 
L 380.265726 263.955284 
L 391.46071 265.365516 
" clip-path="url(#pc70bc2f260)" style="fill: none; stroke: #1e9d89; stroke-width: 1.5; stroke-linecap: square"/>
   </g>
   <g id="line2d_32">
    <path d="M 66.806165 272.355116 
L 78.001149 273.784677 
L 89.196133 275.398378 
L 100.391118 277.30056 
L 111.586102 278.825581 
L 122.781086 281.073825 
L 133.976071 283.627053 
L 145.171055 287.50804 
L 156.366039 292.79256 
L 167.561024 295.716768 
L 178.756008 57.626526 
L 189.950992 292.329219 
L 201.145977 262.073025 
L 212.340961 243.58235 
L 223.535945 242.011188 
L 234.73093 242.268639 
L 245.925914 244.026292 
L 257.120898 245.011318 
L 268.315883 246.487043 
L 279.510867 248.418821 
L 290.705851 250.419962 
L 301.900836 252.528509 
L 313.09582 253.678128 
L 324.290804 255.68272 
L 335.485789 257.751949 
L 346.680773 259.336787 
L 357.875757 261.144085 
L 369.070742 262.62779 
L 380.265726 263.991648 
L 391.46071 265.230473 
" clip-path="url(#pc70bc2f260)" style="fill: none; stroke: #21a585; stroke-width: 1.5; stroke-linecap: square"/>
   </g>
   <g id="line2d_33">
    <path d="M 66.806165 272.254905 
L 78.001149 273.820297 
L 89.196133 275.482511 
L 100.391118 277.052092 
L 111.586102 279.197412 
L 122.781086 281.379519 
L 133.976071 284.222647 
L 145.171055 288.419737 
L 156.366039 291.742758 
L 167.561024 55.284364 
L 178.756008 59.113052 
L 189.950992 289.517685 
L 201.145977 259.4397 
L 212.340961 241.393754 
L 223.535945 241.189134 
L 234.73093 242.76202 
L 245.925914 244.308812 
L 257.120898 246.359952 
L 268.315883 247.202896 
L 279.510867 248.993072 
L 290.705851 250.889386 
L 301.900836 252.723855 
L 313.09582 254.044509 
L 324.290804 256.017569 
L 335.485789 257.862064 
L 346.680773 259.577708 
L 357.875757 260.948499 
L 369.070742 262.557753 
L 380.265726 263.852182 
L 391.46071 265.195258 
" clip-path="url(#pc70bc2f260)" style="fill: none; stroke: #26ad81; stroke-width: 1.5; stroke-linecap: square"/>
   </g>
   <g id="line2d_34">
    <path d="M 66.806165 272.504375 
L 78.001149 274.173685 
L 89.196133 275.428482 
L 100.391118 277.115019 
L 111.586102 279.405062 
L 122.781086 281.205706 
L 133.976071 284.338786 
L 145.171055 289.126237 
L 156.366039 292.803578 
L 167.561024 56.291604 
L 178.756008 61.034967 
L 189.950992 283.716153 
L 201.145977 249.548236 
L 212.340961 241.039495 
L 223.535945 241.23799 
L 234.73093 242.395467 
L 245.925914 244.224067 
L 257.120898 246.348739 
L 268.315883 247.030458 
L 279.510867 248.5798 
L 290.705851 250.944146 
L 301.900836 253.248634 
L 313.09582 254.408143 
L 324.290804 256.115844 
L 335.485789 257.652303 
L 346.680773 259.421843 
L 357.875757 261.183461 
L 369.070742 262.597029 
L 380.265726 263.922585 
L 391.46071 265.225278 
" clip-path="url(#pc70bc2f260)" style="fill: none; stroke: #31b57b; stroke-width: 1.5; stroke-linecap: square"/>
   </g>
   <g id="line2d_35">
    <path d="M 66.806165 272.59492 
L 78.001149 273.815959 
L 89.196133 275.596825 
L 100.391118 277.528454 
L 111.586102 279.62581 
L 122.781086 281.966945 
L 133.976071 285.306778 
L 145.171055 289.572291 
L 156.366039 293.376044 
L 167.561024 58.805324 
L 178.756008 61.676741 
L 189.950992 286.640463 
L 201.145977 247.386078 
L 212.340961 239.568345 
L 223.535945 240.42803 
L 234.73093 243.331005 
L 245.925914 245.194079 
L 257.120898 247.344567 
L 268.315883 248.227076 
L 279.510867 249.689961 
L 290.705851 251.665437 
L 301.900836 253.316596 
L 313.09582 255.216865 
L 324.290804 256.378108 
L 335.485789 257.924756 
L 346.680773 259.509209 
L 357.875757 261.045024 
L 369.070742 262.567557 
L 380.265726 263.990538 
L 391.46071 265.437279 
" clip-path="url(#pc70bc2f260)" style="fill: none; stroke: #3fbc73; stroke-width: 1.5; stroke-linecap: square"/>
   </g>
   <g id="line2d_36">
    <path d="M 66.806165 272.399112 
L 78.001149 273.957781 
L 89.196133 275.483919 
L 100.391118 277.797363 
L 111.586102 280.052278 
L 122.781086 282.316023 
L 133.976071 286.316972 
L 145.171055 289.475428 
L 156.366039 54.349018 
L 167.561024 61.624094 
L 178.756008 63.425016 
L 189.950992 280.653746 
L 201.145977 244.990013 
L 212.340961 239.662225 
L 223.535945 239.805405 
L 234.73093 242.871739 
L 245.925914 245.471053 
L 257.120898 247.3872 
L 268.315883 249.131505 
L 279.510867 250.035192 
L 290.705851 251.785777 
L 301.900836 254.288632 
L 313.09582 254.877505 
L 324.290804 256.58745 
L 335.485789 258.459873 
L 346.680773 259.650161 
L 357.875757 261.386974 
L 369.070742 262.646575 
L 380.265726 264.0149 
L 391.46071 265.319239 
" clip-path="url(#pc70bc2f260)" style="fill: none; stroke: #50c46a; stroke-width: 1.5; stroke-linecap: square"/>
   </g>
   <g id="line2d_37">
    <path d="M 66.806165 272.402051 
L 78.001149 273.840381 
L 89.196133 275.701022 
L 100.391118 277.480439 
L 111.586102 279.61672 
L 122.781086 282.794788 
L 133.976071 286.771797 
L 145.171055 291.146811 
L 156.366039 57.114209 
L 167.561024 61.800883 
L 178.756008 62.51888 
L 189.950992 286.753891 
L 201.145977 244.399 
L 212.340961 239.045156 
L 223.535945 240.586214 
L 234.73093 242.360068 
L 245.925914 245.479422 
L 257.120898 247.524341 
L 268.315883 249.852902 
L 279.510867 250.676881 
L 290.705851 251.551491 
L 301.900836 253.549757 
L 313.09582 255.374264 
L 324.290804 256.69072 
L 335.485789 258.164904 
L 346.680773 259.851472 
L 357.875757 261.535753 
L 369.070742 262.759832 
L 380.265726 264.069794 
L 391.46071 265.298192 
" clip-path="url(#pc70bc2f260)" style="fill: none; stroke: #63cb5f; stroke-width: 1.5; stroke-linecap: square"/>
   </g>
   <g id="line2d_38">
    <path d="M 66.806165 272.655091 
L 78.001149 274.0208 
L 89.196133 275.690137 
L 100.391118 278.093493 
L 111.586102 280.527233 
L 122.781086 282.701158 
L 133.976071 286.481674 
L 145.171055 292.241362 
L 156.366039 58.846416 
L 167.561024 62.606437 
L 178.756008 63.851481 
L 189.950992 279.097136 
L 201.145977 244.238215 
L 212.340961 238.248405 
L 223.535945 240.495856 
L 234.73093 242.268598 
L 245.925914 245.193012 
L 257.120898 247.749715 
L 268.315883 249.211455 
L 279.510867 251.386469 
L 290.705851 252.906043 
L 301.900836 254.26415 
L 313.09582 255.959574 
L 324.290804 256.862909 
L 335.485789 258.403978 
L 346.680773 260.151218 
L 357.875757 261.338218 
L 369.070742 262.810484 
L 380.265726 264.261471 
L 391.46071 265.388125 
" clip-path="url(#pc70bc2f260)" style="fill: none; stroke: #77d153; stroke-width: 1.5; stroke-linecap: square"/>
   </g>
   <g id="line2d_39">
    <path d="M 66.806165 272.611216 
L 78.001149 274.350669 
L 89.196133 276.045356 
L 100.391118 277.864282 
L 111.586102 280.75355 
L 122.781086 284.265511 
L 133.976071 287.990879 
L 145.171055 294.951542 
L 156.366039 59.343373 
L 167.561024 64.043229 
L 178.756008 64.59281 
L 189.950992 282.916604 
L 201.145977 243.697514 
L 212.340961 238.231665 
L 223.535945 240.367766 
L 234.73093 242.667479 
L 245.925914 245.577493 
L 257.120898 247.589458 
L 268.315883 249.750212 
L 279.510867 251.699299 
L 290.705851 252.775993 
L 301.900836 254.461507 
L 313.09582 255.887229 
L 324.290804 257.388884 
L 335.485789 258.746731 
L 346.680773 260.238416 
L 357.875757 261.754684 
L 369.070742 263.02003 
L 380.265726 264.143174 
L 391.46071 265.575882 
" clip-path="url(#pc70bc2f260)" style="fill: none; stroke: #8bd646; stroke-width: 1.5; stroke-linecap: square"/>
   </g>
   <g id="line2d_40">
    <path d="M 66.806165 272.899049 
L 78.001149 274.185737 
L 89.196133 276.159589 
L 100.391118 277.776586 
L 111.586102 280.958283 
L 122.781086 284.224244 
L 133.976071 289.081962 
L 145.171055 54.270176 
L 156.366039 59.44525 
L 167.561024 64.354867 
L 178.756008 64.722504 
L 189.950992 282.047306 
L 201.145977 242.610222 
L 212.340961 238.028301 
L 223.535945 240.130263 
L 234.73093 243.088964 
L 245.925914 244.914161 
L 257.120898 248.111193 
L 268.315883 249.816416 
L 279.510867 251.840171 
L 290.705851 253.380455 
L 301.900836 254.875042 
L 313.09582 256.198075 
L 324.290804 257.810231 
L 335.485789 258.730604 
L 346.680773 260.457539 
L 357.875757 261.856449 
L 369.070742 263.039574 
L 380.265726 264.215016 
L 391.46071 265.539067 
" clip-path="url(#pc70bc2f260)" style="fill: none; stroke: #a2da37; stroke-width: 1.5; stroke-linecap: square"/>
   </g>
   <g id="line2d_41">
    <path d="M 66.806165 272.778154 
L 78.001149 274.424464 
L 89.196133 276.458265 
L 100.391118 278.695708 
L 111.586102 280.866549 
L 122.781086 284.750102 
L 133.976071 290.774063 
L 145.171055 55.372138 
L 156.366039 59.197249 
L 167.561024 64.48101 
L 178.756008 65.264311 
L 189.950992 286.316801 
L 201.145977 240.320852 
L 212.340961 237.568708 
L 223.535945 240.244284 
L 234.73093 242.878437 
L 245.925914 245.250261 
L 257.120898 248.043721 
L 268.315883 250.286953 
L 279.510867 252.155432 
L 290.705851 253.847198 
L 301.900836 254.99357 
L 313.09582 256.074387 
L 324.290804 258.237417 
L 335.485789 259.338193 
L 346.680773 260.411866 
L 357.875757 262.021017 
L 369.070742 263.557239 
L 380.265726 264.268637 
L 391.46071 265.566347 
" clip-path="url(#pc70bc2f260)" style="fill: none; stroke: #bade28; stroke-width: 1.5; stroke-linecap: square"/>
   </g>
   <g id="line2d_42">
    <path d="M 66.806165 272.867011 
L 78.001149 274.736218 
L 89.196133 276.805013 
L 100.391118 278.252471 
L 111.586102 281.198605 
L 122.781086 286.213418 
L 133.976071 292.08013 
L 145.171055 55.567894 
L 156.366039 60.141982 
L 167.561024 64.60293 
L 178.756008 65.485371 
L 189.950992 290.066088 
L 201.145977 241.087447 
L 212.340961 237.479462 
L 223.535945 239.606867 
L 234.73093 243.16725 
L 245.925914 245.606031 
L 257.120898 248.556906 
L 268.315883 250.265413 
L 279.510867 252.178335 
L 290.705851 253.599644 
L 301.900836 255.353018 
L 313.09582 256.410265 
L 324.290804 258.572887 
L 335.485789 259.194787 
L 346.680773 260.584171 
L 357.875757 261.912025 
L 369.070742 263.216235 
L 380.265726 264.513148 
L 391.46071 265.659928 
" clip-path="url(#pc70bc2f260)" style="fill: none; stroke: #d2e21b; stroke-width: 1.5; stroke-linecap: square"/>
   </g>
   <g id="line2d_43">
    <path d="M 66.806165 273.348064 
L 78.001149 275.157737 
L 89.196133 276.513212 
L 100.391118 279.134389 
L 111.586102 282.576648 
L 122.781086 287.511305 
L 133.976071 293.208637 
L 145.171055 55.122396 
L 156.366039 60.313932 
L 167.561024 64.440423 
L 178.756008 65.741015 
L 189.950992 287.514846 
L 201.145977 240.922801 
L 212.340961 237.1611 
L 223.535945 239.798144 
L 234.73093 243.157785 
L 245.925914 245.653064 
L 257.120898 248.396177 
L 268.315883 250.552868 
L 279.510867 252.606179 
L 290.705851 254.22586 
L 301.900836 255.589312 
L 313.09582 257.016155 
L 324.290804 258.313284 
L 335.485789 260.097336 
L 346.680773 260.593628 
L 357.875757 261.838058 
L 369.070742 263.356746 
L 380.265726 264.668208 
L 391.46071 265.664859 
" clip-path="url(#pc70bc2f260)" style="fill: none; stroke: #eae51a; stroke-width: 1.5; stroke-linecap: square"/>
   </g>
   <g id="line2d_44">
    <path d="M 66.806165 273.291077 
L 78.001149 274.924654 
L 89.196133 276.868944 
L 100.391118 279.054591 
L 111.586102 283.877356 
L 122.781086 288.81267 
L 133.976071 293.345534 
L 145.171055 55.815325 
L 156.366039 60.485073 
L 167.561024 64.949831 
L 178.756008 66.086419 
L 189.950992 288.709459 
L 201.145977 243.520368 
L 212.340961 237.072966 
L 223.535945 239.566902 
L 234.73093 243.051123 
L 245.925914 245.644778 
L 257.120898 248.484762 
L 268.315883 250.642784 
L 279.510867 252.425014 
L 290.705851 254.681692 
L 301.900836 256.439955 
L 313.09582 256.878598 
L 324.290804 258.259451 
L 335.485789 260.320087 
L 346.680773 261.194087 
L 357.875757 262.01439 
L 369.070742 263.374411 
L 380.265726 264.715502 
L 391.46071 265.719519 
" clip-path="url(#pc70bc2f260)" style="fill: none; stroke: #fde725; stroke-width: 1.5; stroke-linecap: square"/>
   </g>
   <g id="patch_3">
    <path d="M 50.573438 307.872 
L 50.573438 41.76 
" style="fill: none; stroke: #000000; stroke-width: 0.8; stroke-linejoin: miter; stroke-linecap: square"/>
   </g>
   <g id="patch_4">
    <path d="M 407.693438 307.872 
L 407.693438 41.76 
" style="fill: none; stroke: #000000; stroke-width: 0.8; stroke-linejoin: miter; stroke-linecap: square"/>
   </g>
   <g id="patch_5">
    <path d="M 50.573437 307.872 
L 407.693437 307.872 
" style="fill: none; stroke: #000000; stroke-width: 0.8; stroke-linejoin: miter; stroke-linecap: square"/>
   </g>
   <g id="patch_6">
    <path d="M 50.573437 41.76 
L 407.693437 41.76 
" style="fill: none; stroke: #000000; stroke-width: 0.8; stroke-linejoin: miter; stroke-linecap: square"/>
   </g>
   <g id="legend_1">
    <g id="patch_7">
     <path d="M 427.549438 307.872 
L 641.433812 307.872 
Q 643.433812 307.872 643.433812 305.872 
L 643.433812 145.412625 
Q 643.433812 143.412625 641.433812 143.412625 
L 427.549438 143.412625 
Q 425.549438 143.412625 425.549438 145.412625 
L 425.549438 305.872 
Q 425.549438 307.872 427.549438 307.872 
z
" style="fill: #ffffff; opacity: 0.8; stroke: #cccccc; stroke-linejoin: miter"/>
    </g>
    <g id="text_18">
     <!-- Readout pulse amplitude () -->
     <g transform="translate(466.390844 155.011063) scale(0.1 -0.1)">
      <defs>
       <path id="DejaVuSans-52" d="M 2841 2188 
Q 3044 2119 3236 1894 
Q 3428 1669 3622 1275 
L 4263 0 
L 3584 0 
L 2988 1197 
Q 2756 1666 2539 1819 
Q 2322 1972 1947 1972 
L 1259 1972 
L 1259 0 
L 628 0 
L 628 4666 
L 2053 4666 
Q 2853 4666 3247 4331 
Q 3641 3997 3641 3322 
Q 3641 2881 3436 2590 
Q 3231 2300 2841 2188 
z
M 1259 4147 
L 1259 2491 
L 2053 2491 
Q 2509 2491 2742 2702 
Q 2975 2913 2975 3322 
Q 2975 3731 2742 3939 
Q 2509 4147 2053 4147 
L 1259 4147 
z
" transform="scale(0.015625)"/>
       <path id="DejaVuSans-6f" d="M 1959 3097 
Q 1497 3097 1228 2736 
Q 959 2375 959 1747 
Q 959 1119 1226 758 
Q 1494 397 1959 397 
Q 2419 397 2687 759 
Q 2956 1122 2956 1747 
Q 2956 2369 2687 2733 
Q 2419 3097 1959 3097 
z
M 1959 3584 
Q 2709 3584 3137 3096 
Q 3566 2609 3566 1747 
Q 3566 888 3137 398 
Q 2709 -91 1959 -91 
Q 1206 -91 779 398 
Q 353 888 353 1747 
Q 353 2609 779 3096 
Q 1206 3584 1959 3584 
z
" transform="scale(0.015625)"/>
       <path id="DejaVuSans-74" d="M 1172 4494 
L 1172 3500 
L 2356 3500 
L 2356 3053 
L 1172 3053 
L 1172 1153 
Q 1172 725 1289 603 
Q 1406 481 1766 481 
L 2356 481 
L 2356 0 
L 1766 0 
Q 1100 0 847 248 
Q 594 497 594 1153 
L 594 3053 
L 172 3053 
L 172 3500 
L 594 3500 
L 594 4494 
L 1172 4494 
z
" transform="scale(0.015625)"/>
       <path id="DejaVuSans-70" d="M 1159 525 
L 1159 -1331 
L 581 -1331 
L 581 3500 
L 1159 3500 
L 1159 2969 
Q 1341 3281 1617 3432 
Q 1894 3584 2278 3584 
Q 2916 3584 3314 3078 
Q 3713 2572 3713 1747 
Q 3713 922 3314 415 
Q 2916 -91 2278 -91 
Q 1894 -91 1617 61 
Q 1341 213 1159 525 
z
M 3116 1747 
Q 3116 2381 2855 2742 
Q 2594 3103 2138 3103 
Q 1681 3103 1420 2742 
Q 1159 2381 1159 1747 
Q 1159 1113 1420 752 
Q 1681 391 2138 391 
Q 2594 391 2855 752 
Q 3116 1113 3116 1747 
z
" transform="scale(0.015625)"/>
       <path id="DejaVuSans-6c" d="M 603 4863 
L 1178 4863 
L 1178 0 
L 603 0 
L 603 4863 
z
" transform="scale(0.015625)"/>
       <path id="DejaVuSans-6d" d="M 3328 2828 
Q 3544 3216 3844 3400 
Q 4144 3584 4550 3584 
Q 5097 3584 5394 3201 
Q 5691 2819 5691 2113 
L 5691 0 
L 5113 0 
L 5113 2094 
Q 5113 2597 4934 2840 
Q 4756 3084 4391 3084 
Q 3944 3084 3684 2787 
Q 3425 2491 3425 1978 
L 3425 0 
L 2847 0 
L 2847 2094 
Q 2847 2600 2669 2842 
Q 2491 3084 2119 3084 
Q 1678 3084 1418 2786 
Q 1159 2488 1159 1978 
L 1159 0 
L 581 0 
L 581 3500 
L 1159 3500 
L 1159 2956 
Q 1356 3278 1631 3431 
Q 1906 3584 2284 3584 
Q 2666 3584 2933 3390 
Q 3200 3197 3328 2828 
z
" transform="scale(0.015625)"/>
       <path id="DejaVuSans-69" d="M 603 3500 
L 1178 3500 
L 1178 0 
L 603 0 
L 603 3500 
z
M 603 4863 
L 1178 4863 
L 1178 4134 
L 603 4134 
L 603 4863 
z
" transform="scale(0.015625)"/>
       <path id="DejaVuSans-28" d="M 1984 4856 
Q 1566 4138 1362 3434 
Q 1159 2731 1159 2009 
Q 1159 1288 1364 580 
Q 1569 -128 1984 -844 
L 1484 -844 
Q 1016 -109 783 600 
Q 550 1309 550 2009 
Q 550 2706 781 3412 
Q 1013 4119 1484 4856 
L 1984 4856 
z
" transform="scale(0.015625)"/>
       <path id="DejaVuSans-29" d="M 513 4856 
L 1013 4856 
Q 1481 4119 1714 3412 
Q 1947 2706 1947 2009 
Q 1947 1309 1714 600 
Q 1481 -109 1013 -844 
L 513 -844 
Q 928 -128 1133 580 
Q 1338 1288 1338 2009 
Q 1338 2731 1133 3434 
Q 928 4138 513 4856 
z
" transform="scale(0.015625)"/>
      </defs>
      <use xlink:href="#DejaVuSans-52"/>
      <use xlink:href="#DejaVuSans-65" x="64.982422"/>
      <use xlink:href="#DejaVuSans-61" x="126.505859"/>
      <use xlink:href="#DejaVuSans-64" x="187.785156"/>
      <use xlink:href="#DejaVuSans-6f" x="251.261719"/>
      <use xlink:href="#DejaVuSans-75" x="312.443359"/>
      <use xlink:href="#DejaVuSans-74" x="375.822266"/>
      <use xlink:href="#DejaVuSans-20" x="415.03125"/>
      <use xlink:href="#DejaVuSans-70" x="446.818359"/>
      <use xlink:href="#DejaVuSans-75" x="510.294922"/>
      <use xlink:href="#DejaVuSans-6c" x="573.673828"/>
      <use xlink:href="#DejaVuSans-73" x="601.457031"/>
      <use xlink:href="#DejaVuSans-65" x="653.556641"/>
      <use xlink:href="#DejaVuSans-20" x="715.080078"/>
      <use xlink:href="#DejaVuSans-61" x="746.867188"/>
      <use xlink:href="#DejaVuSans-6d" x="808.146484"/>
      <use xlink:href="#DejaVuSans-70" x="905.558594"/>
      <use xlink:href="#DejaVuSans-6c" x="969.035156"/>
      <use xlink:href="#DejaVuSans-69" x="996.818359"/>
      <use xlink:href="#DejaVuSans-74" x="1024.601562"/>
      <use xlink:href="#DejaVuSans-75" x="1063.810547"/>
      <use xlink:href="#DejaVuSans-64" x="1127.189453"/>
      <use xlink:href="#DejaVuSans-65" x="1190.666016"/>
      <use xlink:href="#DejaVuSans-20" x="1252.189453"/>
      <use xlink:href="#DejaVuSans-28" x="1283.976562"/>
      <use xlink:href="#DejaVuSans-29" x="1322.990234"/>
     </g>
    </g>
    <g id="line2d_45">
     <path d="M 429.549438 166.189188 
L 439.549438 166.189188 
L 449.549438 166.189188 
" style="fill: none; stroke: #440154; stroke-width: 1.5; stroke-linecap: square"/>
    </g>
    <g id="text_19">
     <!-- 0.1 -->
     <g transform="translate(457.549438 169.689188) scale(0.1 -0.1)">
      <defs>
       <path id="DejaVuSans-2e" d="M 684 794 
L 1344 794 
L 1344 0 
L 684 0 
L 684 794 
z
" transform="scale(0.015625)"/>
      </defs>
      <use xlink:href="#DejaVuSans-30"/>
      <use xlink:href="#DejaVuSans-2e" x="63.623047"/>
      <use xlink:href="#DejaVuSans-31" x="95.410156"/>
     </g>
    </g>
    <g id="line2d_46">
     <path d="M 429.549438 180.867313 
L 439.549438 180.867313 
L 449.549438 180.867313 
" style="fill: none; stroke: #470d60; stroke-width: 1.5; stroke-linecap: square"/>
    </g>
    <g id="text_20">
     <!-- 0.121 -->
     <g transform="translate(457.549438 184.367313) scale(0.1 -0.1)">
      <defs>
       <path id="DejaVuSans-32" d="M 1228 531 
L 3431 531 
L 3431 0 
L 469 0 
L 469 531 
Q 828 903 1448 1529 
Q 2069 2156 2228 2338 
Q 2531 2678 2651 2914 
Q 2772 3150 2772 3378 
Q 2772 3750 2511 3984 
Q 2250 4219 1831 4219 
Q 1534 4219 1204 4116 
Q 875 4013 500 3803 
L 500 4441 
Q 881 4594 1212 4672 
Q 1544 4750 1819 4750 
Q 2544 4750 2975 4387 
Q 3406 4025 3406 3419 
Q 3406 3131 3298 2873 
Q 3191 2616 2906 2266 
Q 2828 2175 2409 1742 
Q 1991 1309 1228 531 
z
" transform="scale(0.015625)"/>
      </defs>
      <use xlink:href="#DejaVuSans-30"/>
      <use xlink:href="#DejaVuSans-2e" x="63.623047"/>
      <use xlink:href="#DejaVuSans-31" x="95.410156"/>
      <use xlink:href="#DejaVuSans-32" x="159.033203"/>
      <use xlink:href="#DejaVuSans-31" x="222.65625"/>
     </g>
    </g>
    <g id="line2d_47">
     <path d="M 429.549438 195.545438 
L 439.549438 195.545438 
L 449.549438 195.545438 
" style="fill: none; stroke: #481a6c; stroke-width: 1.5; stroke-linecap: square"/>
    </g>
    <g id="text_21">
     <!-- 0.141 -->
     <g transform="translate(457.549438 199.045438) scale(0.1 -0.1)">
      <defs>
       <path id="DejaVuSans-34" d="M 2419 4116 
L 825 1625 
L 2419 1625 
L 2419 4116 
z
M 2253 4666 
L 3047 4666 
L 3047 1625 
L 3713 1625 
L 3713 1100 
L 3047 1100 
L 3047 0 
L 2419 0 
L 2419 1100 
L 313 1100 
L 313 1709 
L 2253 4666 
z
" transform="scale(0.015625)"/>
      </defs>
      <use xlink:href="#DejaVuSans-30"/>
      <use xlink:href="#DejaVuSans-2e" x="63.623047"/>
      <use xlink:href="#DejaVuSans-31" x="95.410156"/>
      <use xlink:href="#DejaVuSans-34" x="159.033203"/>
      <use xlink:href="#DejaVuSans-31" x="222.65625"/>
     </g>
    </g>
    <g id="line2d_48">
     <path d="M 429.549438 210.223563 
L 439.549438 210.223563 
L 449.549438 210.223563 
" style="fill: none; stroke: #482576; stroke-width: 1.5; stroke-linecap: square"/>
    </g>
    <g id="text_22">
     <!-- 0.162 -->
     <g transform="translate(457.549438 213.723563) scale(0.1 -0.1)">
      <use xlink:href="#DejaVuSans-30"/>
      <use xlink:href="#DejaVuSans-2e" x="63.623047"/>
      <use xlink:href="#DejaVuSans-31" x="95.410156"/>
      <use xlink:href="#DejaVuSans-36" x="159.033203"/>
      <use xlink:href="#DejaVuSans-32" x="222.65625"/>
     </g>
    </g>
    <g id="line2d_49">
     <path d="M 429.549438 224.901688 
L 439.549438 224.901688 
L 449.549438 224.901688 
" style="fill: none; stroke: #46307e; stroke-width: 1.5; stroke-linecap: square"/>
    </g>
    <g id="text_23">
     <!-- 0.183 -->
     <g transform="translate(457.549438 228.401688) scale(0.1 -0.1)">
      <defs>
       <path id="DejaVuSans-33" d="M 2597 2516 
Q 3050 2419 3304 2112 
Q 3559 1806 3559 1356 
Q 3559 666 3084 287 
Q 2609 -91 1734 -91 
Q 1441 -91 1130 -33 
Q 819 25 488 141 
L 488 750 
Q 750 597 1062 519 
Q 1375 441 1716 441 
Q 2309 441 2620 675 
Q 2931 909 2931 1356 
Q 2931 1769 2642 2001 
Q 2353 2234 1838 2234 
L 1294 2234 
L 1294 2753 
L 1863 2753 
Q 2328 2753 2575 2939 
Q 2822 3125 2822 3475 
Q 2822 3834 2567 4026 
Q 2313 4219 1838 4219 
Q 1578 4219 1281 4162 
Q 984 4106 628 3988 
L 628 4550 
Q 988 4650 1302 4700 
Q 1616 4750 1894 4750 
Q 2613 4750 3031 4423 
Q 3450 4097 3450 3541 
Q 3450 3153 3228 2886 
Q 3006 2619 2597 2516 
z
" transform="scale(0.015625)"/>
      </defs>
      <use xlink:href="#DejaVuSans-30"/>
      <use xlink:href="#DejaVuSans-2e" x="63.623047"/>
      <use xlink:href="#DejaVuSans-31" x="95.410156"/>
      <use xlink:href="#DejaVuSans-38" x="159.033203"/>
      <use xlink:href="#DejaVuSans-33" x="222.65625"/>
     </g>
    </g>
    <g id="line2d_50">
     <path d="M 429.549438 239.579813 
L 439.549438 239.579813 
L 449.549438 239.579813 
" style="fill: none; stroke: #443b84; stroke-width: 1.5; stroke-linecap: square"/>
    </g>
    <g id="text_24">
     <!-- 0.203 -->
     <g transform="translate(457.549438 243.079813) scale(0.1 -0.1)">
      <use xlink:href="#DejaVuSans-30"/>
      <use xlink:href="#DejaVuSans-2e" x="63.623047"/>
      <use xlink:href="#DejaVuSans-32" x="95.410156"/>
      <use xlink:href="#DejaVuSans-30" x="159.033203"/>
      <use xlink:href="#DejaVuSans-33" x="222.65625"/>
     </g>
    </g>
    <g id="line2d_51">
     <path d="M 429.549438 254.257938 
L 439.549438 254.257938 
L 449.549438 254.257938 
" style="fill: none; stroke: #404588; stroke-width: 1.5; stroke-linecap: square"/>
    </g>
    <g id="text_25">
     <!-- 0.224 -->
     <g transform="translate(457.549438 257.757938) scale(0.1 -0.1)">
      <use xlink:href="#DejaVuSans-30"/>
      <use xlink:href="#DejaVuSans-2e" x="63.623047"/>
      <use xlink:href="#DejaVuSans-32" x="95.410156"/>
      <use xlink:href="#DejaVuSans-32" x="159.033203"/>
      <use xlink:href="#DejaVuSans-34" x="222.65625"/>
     </g>
    </g>
    <g id="line2d_52">
     <path d="M 429.549438 268.936062 
L 439.549438 268.936062 
L 449.549438 268.936062 
" style="fill: none; stroke: #3c4f8a; stroke-width: 1.5; stroke-linecap: square"/>
    </g>
    <g id="text_26">
     <!-- 0.245 -->
     <g transform="translate(457.549438 272.436062) scale(0.1 -0.1)">
      <use xlink:href="#DejaVuSans-30"/>
      <use xlink:href="#DejaVuSans-2e" x="63.623047"/>
      <use xlink:href="#DejaVuSans-32" x="95.410156"/>
      <use xlink:href="#DejaVuSans-34" x="159.033203"/>
      <use xlink:href="#DejaVuSans-35" x="222.65625"/>
     </g>
    </g>
    <g id="line2d_53">
     <path d="M 429.549438 283.614188 
L 439.549438 283.614188 
L 449.549438 283.614188 
" style="fill: none; stroke: #38598c; stroke-width: 1.5; stroke-linecap: square"/>
    </g>
    <g id="text_27">
     <!-- 0.266 -->
     <g transform="translate(457.549438 287.114188) scale(0.1 -0.1)">
      <use xlink:href="#DejaVuSans-30"/>
      <use xlink:href="#DejaVuSans-2e" x="63.623047"/>
      <use xlink:href="#DejaVuSans-32" x="95.410156"/>
      <use xlink:href="#DejaVuSans-36" x="159.033203"/>
      <use xlink:href="#DejaVuSans-36" x="222.65625"/>
     </g>
    </g>
    <g id="line2d_54">
     <path d="M 429.549438 298.292312 
L 439.549438 298.292312 
L 449.549438 298.292312 
" style="fill: none; stroke: #33628d; stroke-width: 1.5; stroke-linecap: square"/>
    </g>
    <g id="text_28">
     <!-- 0.286 -->
     <g transform="translate(457.549438 301.792312) scale(0.1 -0.1)">
      <use xlink:href="#DejaVuSans-30"/>
      <use xlink:href="#DejaVuSans-2e" x="63.623047"/>
      <use xlink:href="#DejaVuSans-32" x="95.410156"/>
      <use xlink:href="#DejaVuSans-38" x="159.033203"/>
      <use xlink:href="#DejaVuSans-36" x="222.65625"/>
     </g>
    </g>
    <g id="line2d_55">
     <path d="M 506.177563 166.189188 
L 516.177563 166.189188 
L 526.177563 166.189188 
" style="fill: none; stroke: #2f6b8e; stroke-width: 1.5; stroke-linecap: square"/>
    </g>
    <g id="text_29">
     <!-- 0.307 -->
     <g transform="translate(534.177563 169.689188) scale(0.1 -0.1)">
      <use xlink:href="#DejaVuSans-30"/>
      <use xlink:href="#DejaVuSans-2e" x="63.623047"/>
      <use xlink:href="#DejaVuSans-33" x="95.410156"/>
      <use xlink:href="#DejaVuSans-30" x="159.033203"/>
      <use xlink:href="#DejaVuSans-37" x="222.65625"/>
     </g>
    </g>
    <g id="line2d_56">
     <path d="M 506.177563 180.867313 
L 516.177563 180.867313 
L 526.177563 180.867313 
" style="fill: none; stroke: #2c738e; stroke-width: 1.5; stroke-linecap: square"/>
    </g>
    <g id="text_30">
     <!-- 0.328 -->
     <g transform="translate(534.177563 184.367313) scale(0.1 -0.1)">
      <use xlink:href="#DejaVuSans-30"/>
      <use xlink:href="#DejaVuSans-2e" x="63.623047"/>
      <use xlink:href="#DejaVuSans-33" x="95.410156"/>
      <use xlink:href="#DejaVuSans-32" x="159.033203"/>
      <use xlink:href="#DejaVuSans-38" x="222.65625"/>
     </g>
    </g>
    <g id="line2d_57">
     <path d="M 506.177563 195.545438 
L 516.177563 195.545438 
L 526.177563 195.545438 
" style="fill: none; stroke: #297b8e; stroke-width: 1.5; stroke-linecap: square"/>
    </g>
    <g id="text_31">
     <!-- 0.348 -->
     <g transform="translate(534.177563 199.045438) scale(0.1 -0.1)">
      <use xlink:href="#DejaVuSans-30"/>
      <use xlink:href="#DejaVuSans-2e" x="63.623047"/>
      <use xlink:href="#DejaVuSans-33" x="95.410156"/>
      <use xlink:href="#DejaVuSans-34" x="159.033203"/>
      <use xlink:href="#DejaVuSans-38" x="222.65625"/>
     </g>
    </g>
    <g id="line2d_58">
     <path d="M 506.177563 210.223563 
L 516.177563 210.223563 
L 526.177563 210.223563 
" style="fill: none; stroke: #25838e; stroke-width: 1.5; stroke-linecap: square"/>
    </g>
    <g id="text_32">
     <!-- 0.369 -->
     <g transform="translate(534.177563 213.723563) scale(0.1 -0.1)">
      <use xlink:href="#DejaVuSans-30"/>
      <use xlink:href="#DejaVuSans-2e" x="63.623047"/>
      <use xlink:href="#DejaVuSans-33" x="95.410156"/>
      <use xlink:href="#DejaVuSans-36" x="159.033203"/>
      <use xlink:href="#DejaVuSans-39" x="222.65625"/>
     </g>
    </g>
    <g id="line2d_59">
     <path d="M 506.177563 224.901688 
L 516.177563 224.901688 
L 526.177563 224.901688 
" style="fill: none; stroke: #228c8d; stroke-width: 1.5; stroke-linecap: square"/>
    </g>
    <g id="text_33">
     <!-- 0.39 -->
     <g transform="translate(534.177563 228.401688) scale(0.1 -0.1)">
      <use xlink:href="#DejaVuSans-30"/>
      <use xlink:href="#DejaVuSans-2e" x="63.623047"/>
      <use xlink:href="#DejaVuSans-33" x="95.410156"/>
      <use xlink:href="#DejaVuSans-39" x="159.033203"/>
     </g>
    </g>
    <g id="line2d_60">
     <path d="M 506.177563 239.579813 
L 516.177563 239.579813 
L 526.177563 239.579813 
" style="fill: none; stroke: #1f948c; stroke-width: 1.5; stroke-linecap: square"/>
    </g>
    <g id="text_34">
     <!-- 0.41 -->
     <g transform="translate(534.177563 243.079813) scale(0.1 -0.1)">
      <use xlink:href="#DejaVuSans-30"/>
      <use xlink:href="#DejaVuSans-2e" x="63.623047"/>
      <use xlink:href="#DejaVuSans-34" x="95.410156"/>
      <use xlink:href="#DejaVuSans-31" x="159.033203"/>
     </g>
    </g>
    <g id="line2d_61">
     <path d="M 506.177563 254.257938 
L 516.177563 254.257938 
L 526.177563 254.257938 
" style="fill: none; stroke: #1e9d89; stroke-width: 1.5; stroke-linecap: square"/>
    </g>
    <g id="text_35">
     <!-- 0.431 -->
     <g transform="translate(534.177563 257.757938) scale(0.1 -0.1)">
      <use xlink:href="#DejaVuSans-30"/>
      <use xlink:href="#DejaVuSans-2e" x="63.623047"/>
      <use xlink:href="#DejaVuSans-34" x="95.410156"/>
      <use xlink:href="#DejaVuSans-33" x="159.033203"/>
      <use xlink:href="#DejaVuSans-31" x="222.65625"/>
     </g>
    </g>
    <g id="line2d_62">
     <path d="M 506.177563 268.936062 
L 516.177563 268.936062 
L 526.177563 268.936062 
" style="fill: none; stroke: #21a585; stroke-width: 1.5; stroke-linecap: square"/>
    </g>
    <g id="text_36">
     <!-- 0.452 -->
     <g transform="translate(534.177563 272.436062) scale(0.1 -0.1)">
      <use xlink:href="#DejaVuSans-30"/>
      <use xlink:href="#DejaVuSans-2e" x="63.623047"/>
      <use xlink:href="#DejaVuSans-34" x="95.410156"/>
      <use xlink:href="#DejaVuSans-35" x="159.033203"/>
      <use xlink:href="#DejaVuSans-32" x="222.65625"/>
     </g>
    </g>
    <g id="line2d_63">
     <path d="M 506.177563 283.614188 
L 516.177563 283.614188 
L 526.177563 283.614188 
" style="fill: none; stroke: #26ad81; stroke-width: 1.5; stroke-linecap: square"/>
    </g>
    <g id="text_37">
     <!-- 0.472 -->
     <g transform="translate(534.177563 287.114188) scale(0.1 -0.1)">
      <use xlink:href="#DejaVuSans-30"/>
      <use xlink:href="#DejaVuSans-2e" x="63.623047"/>
      <use xlink:href="#DejaVuSans-34" x="95.410156"/>
      <use xlink:href="#DejaVuSans-37" x="159.033203"/>
      <use xlink:href="#DejaVuSans-32" x="222.65625"/>
     </g>
    </g>
    <g id="line2d_64">
     <path d="M 506.177563 298.292312 
L 516.177563 298.292312 
L 526.177563 298.292312 
" style="fill: none; stroke: #31b57b; stroke-width: 1.5; stroke-linecap: square"/>
    </g>
    <g id="text_38">
     <!-- 0.493 -->
     <g transform="translate(534.177563 301.792312) scale(0.1 -0.1)">
      <use xlink:href="#DejaVuSans-30"/>
      <use xlink:href="#DejaVuSans-2e" x="63.623047"/>
      <use xlink:href="#DejaVuSans-34" x="95.410156"/>
      <use xlink:href="#DejaVuSans-39" x="159.033203"/>
      <use xlink:href="#DejaVuSans-33" x="222.65625"/>
     </g>
    </g>
    <g id="line2d_65">
     <path d="M 582.805687 166.189188 
L 592.805687 166.189188 
L 602.805687 166.189188 
" style="fill: none; stroke: #3fbc73; stroke-width: 1.5; stroke-linecap: square"/>
    </g>
    <g id="text_39">
     <!-- 0.514 -->
     <g transform="translate(610.805687 169.689188) scale(0.1 -0.1)">
      <use xlink:href="#DejaVuSans-30"/>
      <use xlink:href="#DejaVuSans-2e" x="63.623047"/>
      <use xlink:href="#DejaVuSans-35" x="95.410156"/>
      <use xlink:href="#DejaVuSans-31" x="159.033203"/>
      <use xlink:href="#DejaVuSans-34" x="222.65625"/>
     </g>
    </g>
    <g id="line2d_66">
     <path d="M 582.805687 180.867313 
L 592.805687 180.867313 
L 602.805687 180.867313 
" style="fill: none; stroke: #50c46a; stroke-width: 1.5; stroke-linecap: square"/>
    </g>
    <g id="text_40">
     <!-- 0.534 -->
     <g transform="translate(610.805687 184.367313) scale(0.1 -0.1)">
      <use xlink:href="#DejaVuSans-30"/>
      <use xlink:href="#DejaVuSans-2e" x="63.623047"/>
      <use xlink:href="#DejaVuSans-35" x="95.410156"/>
      <use xlink:href="#DejaVuSans-33" x="159.033203"/>
      <use xlink:href="#DejaVuSans-34" x="222.65625"/>
     </g>
    </g>
    <g id="line2d_67">
     <path d="M 582.805687 195.545438 
L 592.805687 195.545438 
L 602.805687 195.545438 
" style="fill: none; stroke: #63cb5f; stroke-width: 1.5; stroke-linecap: square"/>
    </g>
    <g id="text_41">
     <!-- 0.555 -->
     <g transform="translate(610.805687 199.045438) scale(0.1 -0.1)">
      <use xlink:href="#DejaVuSans-30"/>
      <use xlink:href="#DejaVuSans-2e" x="63.623047"/>
      <use xlink:href="#DejaVuSans-35" x="95.410156"/>
      <use xlink:href="#DejaVuSans-35" x="159.033203"/>
      <use xlink:href="#DejaVuSans-35" x="222.65625"/>
     </g>
    </g>
    <g id="line2d_68">
     <path d="M 582.805687 210.223563 
L 592.805687 210.223563 
L 602.805687 210.223563 
" style="fill: none; stroke: #77d153; stroke-width: 1.5; stroke-linecap: square"/>
    </g>
    <g id="text_42">
     <!-- 0.576 -->
     <g transform="translate(610.805687 213.723563) scale(0.1 -0.1)">
      <use xlink:href="#DejaVuSans-30"/>
      <use xlink:href="#DejaVuSans-2e" x="63.623047"/>
      <use xlink:href="#DejaVuSans-35" x="95.410156"/>
      <use xlink:href="#DejaVuSans-37" x="159.033203"/>
      <use xlink:href="#DejaVuSans-36" x="222.65625"/>
     </g>
    </g>
    <g id="line2d_69">
     <path d="M 582.805687 224.901688 
L 592.805687 224.901688 
L 602.805687 224.901688 
" style="fill: none; stroke: #8bd646; stroke-width: 1.5; stroke-linecap: square"/>
    </g>
    <g id="text_43">
     <!-- 0.597 -->
     <g transform="translate(610.805687 228.401688) scale(0.1 -0.1)">
      <use xlink:href="#DejaVuSans-30"/>
      <use xlink:href="#DejaVuSans-2e" x="63.623047"/>
      <use xlink:href="#DejaVuSans-35" x="95.410156"/>
      <use xlink:href="#DejaVuSans-39" x="159.033203"/>
      <use xlink:href="#DejaVuSans-37" x="222.65625"/>
     </g>
    </g>
    <g id="line2d_70">
     <path d="M 582.805687 239.579813 
L 592.805687 239.579813 
L 602.805687 239.579813 
" style="fill: none; stroke: #a2da37; stroke-width: 1.5; stroke-linecap: square"/>
    </g>
    <g id="text_44">
     <!-- 0.617 -->
     <g transform="translate(610.805687 243.079813) scale(0.1 -0.1)">
      <use xlink:href="#DejaVuSans-30"/>
      <use xlink:href="#DejaVuSans-2e" x="63.623047"/>
      <use xlink:href="#DejaVuSans-36" x="95.410156"/>
      <use xlink:href="#DejaVuSans-31" x="159.033203"/>
      <use xlink:href="#DejaVuSans-37" x="222.65625"/>
     </g>
    </g>
    <g id="line2d_71">
     <path d="M 582.805687 254.257938 
L 592.805687 254.257938 
L 602.805687 254.257938 
" style="fill: none; stroke: #bade28; stroke-width: 1.5; stroke-linecap: square"/>
    </g>
    <g id="text_45">
     <!-- 0.638 -->
     <g transform="translate(610.805687 257.757938) scale(0.1 -0.1)">
      <use xlink:href="#DejaVuSans-30"/>
      <use xlink:href="#DejaVuSans-2e" x="63.623047"/>
      <use xlink:href="#DejaVuSans-36" x="95.410156"/>
      <use xlink:href="#DejaVuSans-33" x="159.033203"/>
      <use xlink:href="#DejaVuSans-38" x="222.65625"/>
     </g>
    </g>
    <g id="line2d_72">
     <path d="M 582.805687 268.936062 
L 592.805687 268.936062 
L 602.805687 268.936062 
" style="fill: none; stroke: #d2e21b; stroke-width: 1.5; stroke-linecap: square"/>
    </g>
    <g id="text_46">
     <!-- 0.659 -->
     <g transform="translate(610.805687 272.436062) scale(0.1 -0.1)">
      <use xlink:href="#DejaVuSans-30"/>
      <use xlink:href="#DejaVuSans-2e" x="63.623047"/>
      <use xlink:href="#DejaVuSans-36" x="95.410156"/>
      <use xlink:href="#DejaVuSans-35" x="159.033203"/>
      <use xlink:href="#DejaVuSans-39" x="222.65625"/>
     </g>
    </g>
    <g id="line2d_73">
     <path d="M 582.805687 283.614188 
L 592.805687 283.614188 
L 602.805687 283.614188 
" style="fill: none; stroke: #eae51a; stroke-width: 1.5; stroke-linecap: square"/>
    </g>
    <g id="text_47">
     <!-- 0.679 -->
     <g transform="translate(610.805687 287.114188) scale(0.1 -0.1)">
      <use xlink:href="#DejaVuSans-30"/>
      <use xlink:href="#DejaVuSans-2e" x="63.623047"/>
      <use xlink:href="#DejaVuSans-36" x="95.410156"/>
      <use xlink:href="#DejaVuSans-37" x="159.033203"/>
      <use xlink:href="#DejaVuSans-39" x="222.65625"/>
     </g>
    </g>
    <g id="line2d_74">
     <path d="M 582.805687 298.292312 
L 592.805687 298.292312 
L 602.805687 298.292312 
" style="fill: none; stroke: #fde725; stroke-width: 1.5; stroke-linecap: square"/>
    </g>
    <g id="text_48">
     <!-- 0.7 -->
     <g transform="translate(610.805687 301.792312) scale(0.1 -0.1)">
      <use xlink:href="#DejaVuSans-30"/>
      <use xlink:href="#DejaVuSans-2e" x="63.623047"/>
      <use xlink:href="#DejaVuSans-37" x="95.410156"/>
     </g>
    </g>
   </g>
  </g>
  <g id="text_49">
   <!-- x0x1-y1 One-tone-powerDep -->
   <g transform="translate(136.569375 16.318125) scale(0.12 -0.12)">
    <defs>
     <path id="DejaVuSans-78" d="M 3513 3500 
L 2247 1797 
L 3578 0 
L 2900 0 
L 1881 1375 
L 863 0 
L 184 0 
L 1544 1831 
L 300 3500 
L 978 3500 
L 1906 2253 
L 2834 3500 
L 3513 3500 
z
" transform="scale(0.015625)"/>
     <path id="DejaVuSans-4f" d="M 2522 4238 
Q 1834 4238 1429 3725 
Q 1025 3213 1025 2328 
Q 1025 1447 1429 934 
Q 1834 422 2522 422 
Q 3209 422 3611 934 
Q 4013 1447 4013 2328 
Q 4013 3213 3611 3725 
Q 3209 4238 2522 4238 
z
M 2522 4750 
Q 3503 4750 4090 4092 
Q 4678 3434 4678 2328 
Q 4678 1225 4090 567 
Q 3503 -91 2522 -91 
Q 1538 -91 948 565 
Q 359 1222 359 2328 
Q 359 3434 948 4092 
Q 1538 4750 2522 4750 
z
" transform="scale(0.015625)"/>
     <path id="DejaVuSans-77" d="M 269 3500 
L 844 3500 
L 1563 769 
L 2278 3500 
L 2956 3500 
L 3675 769 
L 4391 3500 
L 4966 3500 
L 4050 0 
L 3372 0 
L 2619 2869 
L 1863 0 
L 1184 0 
L 269 3500 
z
" transform="scale(0.015625)"/>
     <path id="DejaVuSans-44" d="M 1259 4147 
L 1259 519 
L 2022 519 
Q 2988 519 3436 956 
Q 3884 1394 3884 2338 
Q 3884 3275 3436 3711 
Q 2988 4147 2022 4147 
L 1259 4147 
z
M 628 4666 
L 1925 4666 
Q 3281 4666 3915 4102 
Q 4550 3538 4550 2338 
Q 4550 1131 3912 565 
Q 3275 0 1925 0 
L 628 0 
L 628 4666 
z
" transform="scale(0.015625)"/>
    </defs>
    <use xlink:href="#DejaVuSans-78"/>
    <use xlink:href="#DejaVuSans-30" x="59.179688"/>
    <use xlink:href="#DejaVuSans-78" x="122.802734"/>
    <use xlink:href="#DejaVuSans-31" x="181.982422"/>
    <use xlink:href="#DejaVuSans-2d" x="245.605469"/>
    <use xlink:href="#DejaVuSans-79" x="279.939453"/>
    <use xlink:href="#DejaVuSans-31" x="339.119141"/>
    <use xlink:href="#DejaVuSans-20" x="402.742188"/>
    <use xlink:href="#DejaVuSans-4f" x="434.529297"/>
    <use xlink:href="#DejaVuSans-6e" x="513.240234"/>
    <use xlink:href="#DejaVuSans-65" x="576.619141"/>
    <use xlink:href="#DejaVuSans-2d" x="638.142578"/>
    <use xlink:href="#DejaVuSans-74" x="674.226562"/>
    <use xlink:href="#DejaVuSans-6f" x="713.435547"/>
    <use xlink:href="#DejaVuSans-6e" x="774.617188"/>
    <use xlink:href="#DejaVuSans-65" x="837.996094"/>
    <use xlink:href="#DejaVuSans-2d" x="899.519531"/>
    <use xlink:href="#DejaVuSans-70" x="935.603516"/>
    <use xlink:href="#DejaVuSans-6f" x="999.080078"/>
    <use xlink:href="#DejaVuSans-77" x="1060.261719"/>
    <use xlink:href="#DejaVuSans-65" x="1142.048828"/>
    <use xlink:href="#DejaVuSans-72" x="1203.572266"/>
    <use xlink:href="#DejaVuSans-44" x="1244.685547"/>
    <use xlink:href="#DejaVuSans-65" x="1321.6875"/>
    <use xlink:href="#DejaVuSans-70" x="1383.210938"/>
   </g>
   <!-- tuid: 20240222-181856-534-65eabc -->
   <g transform="translate(114.31125 29.7555) scale(0.12 -0.12)">
    <defs>
     <path id="DejaVuSans-3a" d="M 750 794 
L 1409 794 
L 1409 0 
L 750 0 
L 750 794 
z
M 750 3309 
L 1409 3309 
L 1409 2516 
L 750 2516 
L 750 3309 
z
" transform="scale(0.015625)"/>
     <path id="DejaVuSans-62" d="M 3116 1747 
Q 3116 2381 2855 2742 
Q 2594 3103 2138 3103 
Q 1681 3103 1420 2742 
Q 1159 2381 1159 1747 
Q 1159 1113 1420 752 
Q 1681 391 2138 391 
Q 2594 391 2855 752 
Q 3116 1113 3116 1747 
z
M 1159 2969 
Q 1341 3281 1617 3432 
Q 1894 3584 2278 3584 
Q 2916 3584 3314 3078 
Q 3713 2572 3713 1747 
Q 3713 922 3314 415 
Q 2916 -91 2278 -91 
Q 1894 -91 1617 61 
Q 1341 213 1159 525 
L 1159 0 
L 581 0 
L 581 4863 
L 1159 4863 
L 1159 2969 
z
" transform="scale(0.015625)"/>
    </defs>
    <use xlink:href="#DejaVuSans-74"/>
    <use xlink:href="#DejaVuSans-75" x="39.208984"/>
    <use xlink:href="#DejaVuSans-69" x="102.587891"/>
    <use xlink:href="#DejaVuSans-64" x="130.371094"/>
    <use xlink:href="#DejaVuSans-3a" x="193.847656"/>
    <use xlink:href="#DejaVuSans-20" x="227.539062"/>
    <use xlink:href="#DejaVuSans-32" x="259.326172"/>
    <use xlink:href="#DejaVuSans-30" x="322.949219"/>
    <use xlink:href="#DejaVuSans-32" x="386.572266"/>
    <use xlink:href="#DejaVuSans-34" x="450.195312"/>
    <use xlink:href="#DejaVuSans-30" x="513.818359"/>
    <use xlink:href="#DejaVuSans-32" x="577.441406"/>
    <use xlink:href="#DejaVuSans-32" x="641.064453"/>
    <use xlink:href="#DejaVuSans-32" x="704.6875"/>
    <use xlink:href="#DejaVuSans-2d" x="768.310547"/>
    <use xlink:href="#DejaVuSans-31" x="804.394531"/>
    <use xlink:href="#DejaVuSans-38" x="868.017578"/>
    <use xlink:href="#DejaVuSans-31" x="931.640625"/>
    <use xlink:href="#DejaVuSans-38" x="995.263672"/>
    <use xlink:href="#DejaVuSans-35" x="1058.886719"/>
    <use xlink:href="#DejaVuSans-36" x="1122.509766"/>
    <use xlink:href="#DejaVuSans-2d" x="1186.132812"/>
    <use xlink:href="#DejaVuSans-35" x="1222.216797"/>
    <use xlink:href="#DejaVuSans-33" x="1285.839844"/>
    <use xlink:href="#DejaVuSans-34" x="1349.462891"/>
    <use xlink:href="#DejaVuSans-2d" x="1413.085938"/>
    <use xlink:href="#DejaVuSans-36" x="1449.169922"/>
    <use xlink:href="#DejaVuSans-35" x="1512.792969"/>
    <use xlink:href="#DejaVuSans-65" x="1576.416016"/>
    <use xlink:href="#DejaVuSans-61" x="1637.939453"/>
    <use xlink:href="#DejaVuSans-62" x="1699.21875"/>
    <use xlink:href="#DejaVuSans-63" x="1762.695312"/>
   </g>
  </g>
 </g>
 <defs>
  <clipPath id="pc70bc2f260">
   <rect x="50.573438" y="41.76" width="357.12" height="266.112"/>
  </clipPath>
 </defs>
</svg>
