<?xml version="1.0" encoding="utf-8" standalone="no"?>
<!DOCTYPE svg PUBLIC "-//W3C//DTD SVG 1.1//EN"
  "http://www.w3.org/Graphics/SVG/1.1/DTD/svg11.dtd">
<svg xmlns:xlink="http://www.w3.org/1999/xlink" width="565.324437pt" height="345.42825pt" viewBox="0 0 565.324437 345.42825" xmlns="http://www.w3.org/2000/svg" version="1.1">
 <metadata>
  <rdf:RDF xmlns:dc="http://purl.org/dc/elements/1.1/" xmlns:cc="http://creativecommons.org/ns#" xmlns:rdf="http://www.w3.org/1999/02/22-rdf-syntax-ns#">
   <cc:Work>
    <dc:type rdf:resource="http://purl.org/dc/dcmitype/StillImage"/>
    <dc:date>2024-01-05T14:40:23.541712</dc:date>
    <dc:format>image/svg+xml</dc:format>
    <dc:creator>
     <cc:Agent>
      <dc:title>Matplotlib v3.8.1, https://matplotlib.org/</dc:title>
     </cc:Agent>
    </dc:creator>
   </cc:Work>
  </rdf:RDF>
 </metadata>
 <defs>
  <style type="text/css">*{stroke-linejoin: round; stroke-linecap: butt}</style>
 </defs>
 <g id="figure_1">
  <g id="patch_1">
   <path d="M 0 345.42825 
L 565.324437 345.42825 
L 565.324437 -0 
L 0 -0 
L 0 345.42825 
z
" style="fill: none; opacity: 0"/>
  </g>
  <g id="axes_1">
   <g id="patch_2">
    <path d="M 37.848438 307.872 
L 394.968438 307.872 
L 394.968438 41.76 
L 37.848438 41.76 
z
" style="fill: #ffffff"/>
   </g>
   <g id="matplotlib.axis_1">
    <g id="xtick_1">
     <g id="line2d_1">
      <defs>
       <path id="m3a461687dc" d="M 0 0 
L 0 3.5 
" style="stroke: #000000; stroke-width: 0.8"/>
      </defs>
      <g>
       <use xlink:href="#m3a461687dc" x="101.657951" y="307.872" style="stroke: #000000; stroke-width: 0.8"/>
      </g>
     </g>
     <g id="text_1">
      <!-- -4 -->
      <g transform="translate(96.672795 322.470438) scale(0.1 -0.1)">
       <defs>
        <path id="DejaVuSans-2d" d="M 313 2009 
L 1997 2009 
L 1997 1497 
L 313 1497 
L 313 2009 
z
" transform="scale(0.015625)"/>
        <path id="DejaVuSans-34" d="M 2419 4116 
L 825 1625 
L 2419 1625 
L 2419 4116 
z
M 2253 4666 
L 3047 4666 
L 3047 1625 
L 3713 1625 
L 3713 1100 
L 3047 1100 
L 3047 0 
L 2419 0 
L 2419 1100 
L 313 1100 
L 313 1709 
L 2253 4666 
z
" transform="scale(0.015625)"/>
       </defs>
       <use xlink:href="#DejaVuSans-2d"/>
       <use xlink:href="#DejaVuSans-34" x="36.083984"/>
      </g>
     </g>
    </g>
    <g id="xtick_2">
     <g id="line2d_2">
      <g>
       <use xlink:href="#m3a461687dc" x="176.844534" y="307.872" style="stroke: #000000; stroke-width: 0.8"/>
      </g>
     </g>
     <g id="text_2">
      <!-- -3 -->
      <g transform="translate(171.859377 322.470438) scale(0.1 -0.1)">
       <defs>
        <path id="DejaVuSans-33" d="M 2597 2516 
Q 3050 2419 3304 2112 
Q 3559 1806 3559 1356 
Q 3559 666 3084 287 
Q 2609 -91 1734 -91 
Q 1441 -91 1130 -33 
Q 819 25 488 141 
L 488 750 
Q 750 597 1062 519 
Q 1375 441 1716 441 
Q 2309 441 2620 675 
Q 2931 909 2931 1356 
Q 2931 1769 2642 2001 
Q 2353 2234 1838 2234 
L 1294 2234 
L 1294 2753 
L 1863 2753 
Q 2328 2753 2575 2939 
Q 2822 3125 2822 3475 
Q 2822 3834 2567 4026 
Q 2313 4219 1838 4219 
Q 1578 4219 1281 4162 
Q 984 4106 628 3988 
L 628 4550 
Q 988 4650 1302 4700 
Q 1616 4750 1894 4750 
Q 2613 4750 3031 4423 
Q 3450 4097 3450 3541 
Q 3450 3153 3228 2886 
Q 3006 2619 2597 2516 
z
" transform="scale(0.015625)"/>
       </defs>
       <use xlink:href="#DejaVuSans-2d"/>
       <use xlink:href="#DejaVuSans-33" x="36.083984"/>
      </g>
     </g>
    </g>
    <g id="xtick_3">
     <g id="line2d_3">
      <g>
       <use xlink:href="#m3a461687dc" x="252.031116" y="307.872" style="stroke: #000000; stroke-width: 0.8"/>
      </g>
     </g>
     <g id="text_3">
      <!-- -2 -->
      <g transform="translate(247.04596 322.470438) scale(0.1 -0.1)">
       <defs>
        <path id="DejaVuSans-32" d="M 1228 531 
L 3431 531 
L 3431 0 
L 469 0 
L 469 531 
Q 828 903 1448 1529 
Q 2069 2156 2228 2338 
Q 2531 2678 2651 2914 
Q 2772 3150 2772 3378 
Q 2772 3750 2511 3984 
Q 2250 4219 1831 4219 
Q 1534 4219 1204 4116 
Q 875 4013 500 3803 
L 500 4441 
Q 881 4594 1212 4672 
Q 1544 4750 1819 4750 
Q 2544 4750 2975 4387 
Q 3406 4025 3406 3419 
Q 3406 3131 3298 2873 
Q 3191 2616 2906 2266 
Q 2828 2175 2409 1742 
Q 1991 1309 1228 531 
z
" transform="scale(0.015625)"/>
       </defs>
       <use xlink:href="#DejaVuSans-2d"/>
       <use xlink:href="#DejaVuSans-32" x="36.083984"/>
      </g>
     </g>
    </g>
    <g id="xtick_4">
     <g id="line2d_4">
      <g>
       <use xlink:href="#m3a461687dc" x="327.217699" y="307.872" style="stroke: #000000; stroke-width: 0.8"/>
      </g>
     </g>
     <g id="text_4">
      <!-- -1 -->
      <g transform="translate(322.232543 322.470438) scale(0.1 -0.1)">
       <defs>
        <path id="DejaVuSans-31" d="M 794 531 
L 1825 531 
L 1825 4091 
L 703 3866 
L 703 4441 
L 1819 4666 
L 2450 4666 
L 2450 531 
L 3481 531 
L 3481 0 
L 794 0 
L 794 531 
z
" transform="scale(0.015625)"/>
       </defs>
       <use xlink:href="#DejaVuSans-2d"/>
       <use xlink:href="#DejaVuSans-31" x="36.083984"/>
      </g>
     </g>
    </g>
    <g id="text_5">
     <!-- Re$(S_{21})$ [mV] -->
     <g transform="translate(184.408438 336.148562) scale(0.1 -0.1)">
      <defs>
       <path id="DejaVuSans-52" d="M 2841 2188 
Q 3044 2119 3236 1894 
Q 3428 1669 3622 1275 
L 4263 0 
L 3584 0 
L 2988 1197 
Q 2756 1666 2539 1819 
Q 2322 1972 1947 1972 
L 1259 1972 
L 1259 0 
L 628 0 
L 628 4666 
L 2053 4666 
Q 2853 4666 3247 4331 
Q 3641 3997 3641 3322 
Q 3641 2881 3436 2590 
Q 3231 2300 2841 2188 
z
M 1259 4147 
L 1259 2491 
L 2053 2491 
Q 2509 2491 2742 2702 
Q 2975 2913 2975 3322 
Q 2975 3731 2742 3939 
Q 2509 4147 2053 4147 
L 1259 4147 
z
" transform="scale(0.015625)"/>
       <path id="DejaVuSans-65" d="M 3597 1894 
L 3597 1613 
L 953 1613 
Q 991 1019 1311 708 
Q 1631 397 2203 397 
Q 2534 397 2845 478 
Q 3156 559 3463 722 
L 3463 178 
Q 3153 47 2828 -22 
Q 2503 -91 2169 -91 
Q 1331 -91 842 396 
Q 353 884 353 1716 
Q 353 2575 817 3079 
Q 1281 3584 2069 3584 
Q 2775 3584 3186 3129 
Q 3597 2675 3597 1894 
z
M 3022 2063 
Q 3016 2534 2758 2815 
Q 2500 3097 2075 3097 
Q 1594 3097 1305 2825 
Q 1016 2553 972 2059 
L 3022 2063 
z
" transform="scale(0.015625)"/>
       <path id="DejaVuSans-28" d="M 1984 4856 
Q 1566 4138 1362 3434 
Q 1159 2731 1159 2009 
Q 1159 1288 1364 580 
Q 1569 -128 1984 -844 
L 1484 -844 
Q 1016 -109 783 600 
Q 550 1309 550 2009 
Q 550 2706 781 3412 
Q 1013 4119 1484 4856 
L 1984 4856 
z
" transform="scale(0.015625)"/>
       <path id="DejaVuSans-Oblique-53" d="M 3859 4513 
L 3738 3897 
Q 3422 4066 3111 4152 
Q 2800 4238 2509 4238 
Q 1944 4238 1609 3991 
Q 1275 3744 1275 3334 
Q 1275 3109 1398 2989 
Q 1522 2869 2034 2731 
L 2413 2638 
Q 3053 2472 3303 2217 
Q 3553 1963 3553 1503 
Q 3553 797 2998 353 
Q 2444 -91 1538 -91 
Q 1166 -91 791 -17 
Q 416 56 38 206 
L 166 856 
Q 513 641 861 531 
Q 1209 422 1556 422 
Q 2147 422 2503 684 
Q 2859 947 2859 1369 
Q 2859 1650 2717 1795 
Q 2575 1941 2106 2059 
L 1728 2156 
Q 1081 2325 845 2545 
Q 609 2766 609 3163 
Q 609 3859 1145 4304 
Q 1681 4750 2541 4750 
Q 2875 4750 3203 4690 
Q 3531 4631 3859 4513 
z
" transform="scale(0.015625)"/>
       <path id="DejaVuSans-29" d="M 513 4856 
L 1013 4856 
Q 1481 4119 1714 3412 
Q 1947 2706 1947 2009 
Q 1947 1309 1714 600 
Q 1481 -109 1013 -844 
L 513 -844 
Q 928 -128 1133 580 
Q 1338 1288 1338 2009 
Q 1338 2731 1133 3434 
Q 928 4138 513 4856 
z
" transform="scale(0.015625)"/>
       <path id="DejaVuSans-20" transform="scale(0.015625)"/>
       <path id="DejaVuSans-5b" d="M 550 4863 
L 1875 4863 
L 1875 4416 
L 1125 4416 
L 1125 -397 
L 1875 -397 
L 1875 -844 
L 550 -844 
L 550 4863 
z
" transform="scale(0.015625)"/>
       <path id="DejaVuSans-6d" d="M 3328 2828 
Q 3544 3216 3844 3400 
Q 4144 3584 4550 3584 
Q 5097 3584 5394 3201 
Q 5691 2819 5691 2113 
L 5691 0 
L 5113 0 
L 5113 2094 
Q 5113 2597 4934 2840 
Q 4756 3084 4391 3084 
Q 3944 3084 3684 2787 
Q 3425 2491 3425 1978 
L 3425 0 
L 2847 0 
L 2847 2094 
Q 2847 2600 2669 2842 
Q 2491 3084 2119 3084 
Q 1678 3084 1418 2786 
Q 1159 2488 1159 1978 
L 1159 0 
L 581 0 
L 581 3500 
L 1159 3500 
L 1159 2956 
Q 1356 3278 1631 3431 
Q 1906 3584 2284 3584 
Q 2666 3584 2933 3390 
Q 3200 3197 3328 2828 
z
" transform="scale(0.015625)"/>
       <path id="DejaVuSans-56" d="M 1831 0 
L 50 4666 
L 709 4666 
L 2188 738 
L 3669 4666 
L 4325 4666 
L 2547 0 
L 1831 0 
z
" transform="scale(0.015625)"/>
       <path id="DejaVuSans-5d" d="M 1947 4863 
L 1947 -844 
L 622 -844 
L 622 -397 
L 1369 -397 
L 1369 4416 
L 622 4416 
L 622 4863 
L 1947 4863 
z
" transform="scale(0.015625)"/>
      </defs>
      <use xlink:href="#DejaVuSans-52" transform="translate(0 0.015625)"/>
      <use xlink:href="#DejaVuSans-65" transform="translate(69.482422 0.015625)"/>
      <use xlink:href="#DejaVuSans-28" transform="translate(131.005859 0.015625)"/>
      <use xlink:href="#DejaVuSans-Oblique-53" transform="translate(170.019531 0.015625)"/>
      <use xlink:href="#DejaVuSans-32" transform="translate(233.496094 -16.390625) scale(0.7)"/>
      <use xlink:href="#DejaVuSans-31" transform="translate(278.032227 -16.390625) scale(0.7)"/>
      <use xlink:href="#DejaVuSans-29" transform="translate(325.302734 0.015625)"/>
      <use xlink:href="#DejaVuSans-20" transform="translate(364.316406 0.015625)"/>
      <use xlink:href="#DejaVuSans-5b" transform="translate(396.103516 0.015625)"/>
      <use xlink:href="#DejaVuSans-6d" transform="translate(435.117188 0.015625)"/>
      <use xlink:href="#DejaVuSans-56" transform="translate(532.529297 0.015625)"/>
      <use xlink:href="#DejaVuSans-5d" transform="translate(600.9375 0.015625)"/>
     </g>
    </g>
   </g>
   <g id="matplotlib.axis_2">
    <g id="ytick_1">
     <g id="line2d_5">
      <defs>
       <path id="m6cac3b7678" d="M 0 0 
L -3.5 0 
" style="stroke: #000000; stroke-width: 0.8"/>
      </defs>
      <g>
       <use xlink:href="#m6cac3b7678" x="37.848438" y="297.313763" style="stroke: #000000; stroke-width: 0.8"/>
      </g>
     </g>
     <g id="text_6">
      <!-- -5 -->
      <g transform="translate(20.878125 301.112982) scale(0.1 -0.1)">
       <defs>
        <path id="DejaVuSans-35" d="M 691 4666 
L 3169 4666 
L 3169 4134 
L 1269 4134 
L 1269 2991 
Q 1406 3038 1543 3061 
Q 1681 3084 1819 3084 
Q 2600 3084 3056 2656 
Q 3513 2228 3513 1497 
Q 3513 744 3044 326 
Q 2575 -91 1722 -91 
Q 1428 -91 1123 -41 
Q 819 9 494 109 
L 494 744 
Q 775 591 1075 516 
Q 1375 441 1709 441 
Q 2250 441 2565 725 
Q 2881 1009 2881 1497 
Q 2881 1984 2565 2268 
Q 2250 2553 1709 2553 
Q 1456 2553 1204 2497 
Q 953 2441 691 2322 
L 691 4666 
z
" transform="scale(0.015625)"/>
       </defs>
       <use xlink:href="#DejaVuSans-2d"/>
       <use xlink:href="#DejaVuSans-35" x="36.083984"/>
      </g>
     </g>
    </g>
    <g id="ytick_2">
     <g id="line2d_6">
      <g>
       <use xlink:href="#m6cac3b7678" x="37.848438" y="250.375255" style="stroke: #000000; stroke-width: 0.8"/>
      </g>
     </g>
     <g id="text_7">
      <!-- -4 -->
      <g transform="translate(20.878125 254.174473) scale(0.1 -0.1)">
       <use xlink:href="#DejaVuSans-2d"/>
       <use xlink:href="#DejaVuSans-34" x="36.083984"/>
      </g>
     </g>
    </g>
    <g id="ytick_3">
     <g id="line2d_7">
      <g>
       <use xlink:href="#m6cac3b7678" x="37.848438" y="203.436747" style="stroke: #000000; stroke-width: 0.8"/>
      </g>
     </g>
     <g id="text_8">
      <!-- -3 -->
      <g transform="translate(20.878125 207.235965) scale(0.1 -0.1)">
       <use xlink:href="#DejaVuSans-2d"/>
       <use xlink:href="#DejaVuSans-33" x="36.083984"/>
      </g>
     </g>
    </g>
    <g id="ytick_4">
     <g id="line2d_8">
      <g>
       <use xlink:href="#m6cac3b7678" x="37.848438" y="156.498238" style="stroke: #000000; stroke-width: 0.8"/>
      </g>
     </g>
     <g id="text_9">
      <!-- -2 -->
      <g transform="translate(20.878125 160.297457) scale(0.1 -0.1)">
       <use xlink:href="#DejaVuSans-2d"/>
       <use xlink:href="#DejaVuSans-32" x="36.083984"/>
      </g>
     </g>
    </g>
    <g id="ytick_5">
     <g id="line2d_9">
      <g>
       <use xlink:href="#m6cac3b7678" x="37.848438" y="109.55973" style="stroke: #000000; stroke-width: 0.8"/>
      </g>
     </g>
     <g id="text_10">
      <!-- -1 -->
      <g transform="translate(20.878125 113.358949) scale(0.1 -0.1)">
       <use xlink:href="#DejaVuSans-2d"/>
       <use xlink:href="#DejaVuSans-31" x="36.083984"/>
      </g>
     </g>
    </g>
    <g id="ytick_6">
     <g id="line2d_10">
      <g>
       <use xlink:href="#m6cac3b7678" x="37.848438" y="62.621222" style="stroke: #000000; stroke-width: 0.8"/>
      </g>
     </g>
     <g id="text_11">
      <!-- 0 -->
      <g transform="translate(24.485938 66.420441) scale(0.1 -0.1)">
       <defs>
        <path id="DejaVuSans-30" d="M 2034 4250 
Q 1547 4250 1301 3770 
Q 1056 3291 1056 2328 
Q 1056 1369 1301 889 
Q 1547 409 2034 409 
Q 2525 409 2770 889 
Q 3016 1369 3016 2328 
Q 3016 3291 2770 3770 
Q 2525 4250 2034 4250 
z
M 2034 4750 
Q 2819 4750 3233 4129 
Q 3647 3509 3647 2328 
Q 3647 1150 3233 529 
Q 2819 -91 2034 -91 
Q 1250 -91 836 529 
Q 422 1150 422 2328 
Q 422 3509 836 4129 
Q 1250 4750 2034 4750 
z
" transform="scale(0.015625)"/>
       </defs>
       <use xlink:href="#DejaVuSans-30"/>
      </g>
     </g>
    </g>
    <g id="text_12">
     <!-- Im$(S_{21})$ [mV] -->
     <g transform="translate(14.798438 206.466) rotate(-90) scale(0.1 -0.1)">
      <defs>
       <path id="DejaVuSans-49" d="M 628 4666 
L 1259 4666 
L 1259 0 
L 628 0 
L 628 4666 
z
" transform="scale(0.015625)"/>
      </defs>
      <use xlink:href="#DejaVuSans-49" transform="translate(0 0.015625)"/>
      <use xlink:href="#DejaVuSans-6d" transform="translate(25.867188 0.015625)"/>
      <use xlink:href="#DejaVuSans-28" transform="translate(123.279297 0.015625)"/>
      <use xlink:href="#DejaVuSans-Oblique-53" transform="translate(162.292969 0.015625)"/>
      <use xlink:href="#DejaVuSans-32" transform="translate(225.769531 -16.390625) scale(0.7)"/>
      <use xlink:href="#DejaVuSans-31" transform="translate(270.305664 -16.390625) scale(0.7)"/>
      <use xlink:href="#DejaVuSans-29" transform="translate(317.576172 0.015625)"/>
      <use xlink:href="#DejaVuSans-20" transform="translate(356.589844 0.015625)"/>
      <use xlink:href="#DejaVuSans-5b" transform="translate(388.376953 0.015625)"/>
      <use xlink:href="#DejaVuSans-6d" transform="translate(427.390625 0.015625)"/>
      <use xlink:href="#DejaVuSans-56" transform="translate(524.802734 0.015625)"/>
      <use xlink:href="#DejaVuSans-5d" transform="translate(593.210938 0.015625)"/>
     </g>
    </g>
   </g>
   <g id="line2d_11">
    <path d="M 245.220697 289.064581 
L 245.705698 290.515972 
L 249.6679 287.98033 
L 243.26396 286.264933 
L 240.504548 295.776 
L 245.277179 289.404919 
L 241.556335 290.556636 
L 234.135624 288.106294 
L 233.013641 286.96594 
L 231.519867 286.56899 
L 240.417456 285.567136 
L 228.160203 283.598944 
L 232.915612 285.14007 
L 222.217594 279.348057 
L 225.100501 280.432461 
L 227.278761 277.678215 
L 216.315225 283.126374 
L 217.832914 279.650738 
L 215.065094 280.186698 
L 203.536077 281.074716 
L 211.464562 279.862055 
L 206.863745 281.100907 
L 205.832281 278.628451 
L 204.149715 277.009106 
L 202.920969 275.529077 
L 201.383936 273.129743 
L 202.036426 275.789668 
L 188.760605 272.759901 
L 184.376007 270.750537 
L 191.21679 270.284336 
L 184.417471 268.67977 
L 170.309345 269.654617 
L 185.310013 270.385026 
L 171.76647 270.567297 
L 173.861639 263.360684 
L 171.125162 269.65849 
L 163.723796 264.927288 
L 173.376638 263.406544 
L 162.701229 262.326982 
L 169.338037 257.35766 
L 155.935457 262.847145 
L 159.853174 257.552212 
L 152.168659 259.936055 
L 148.107857 259.048344 
L 145.709216 257.063999 
L 146.451002 255.330359 
L 146.001996 253.181272 
L 136.311607 250.479155 
L 139.079509 250.634317 
L 135.075843 247.344723 
L 128.647743 247.73082 
L 126.612567 244.045142 
L 126.601058 241.519589 
L 117.881488 241.722345 
L 115.28834 242.516042 
L 121.275515 235.502451 
L 119.991511 234.466762 
L 114.67258 230.461536 
L 102.715452 227.003735 
L 89.685723 232.424938 
L 94.92695 225.977677 
L 94.513124 218.523007 
L 90.62626 214.448633 
L 88.5959 221.320922 
L 87.481344 212.758001 
L 73.720767 208.044022 
L 74.955552 204.184124 
L 82.066506 194.760244 
L 73.908336 190.435776 
L 67.276261 185.840118 
L 65.599326 186.779041 
L 67.802481 176.485029 
L 65.048619 166.188621 
L 65.351276 158.524673 
L 60.750377 150.187999 
L 63.300836 147.040828 
L 54.081165 143.246409 
L 71.291681 131.129278 
L 67.63793 125.789045 
L 76.522623 114.464388 
L 81.420137 105.940601 
L 84.497715 94.127527 
L 100.240739 87.612188 
L 112.790528 79.870124 
L 131.941946 67.864893 
L 136.517215 70.178365 
L 162.766037 60.915405 
L 173.412552 59.590385 
L 194.870785 55.242936 
L 208.822767 56.119081 
L 253.106248 54.325109 
L 272.079484 59.087292 
L 288.892662 67.143146 
L 317.451483 72.926853 
L 328.567001 75.407564 
L 326.740452 82.078066 
L 352.069225 93.603083 
L 354.311151 101.662249 
L 366.735241 105.220944 
L 368.844612 115.707775 
L 364.599833 123.080609 
L 367.261543 135.649367 
L 364.872697 146.21406 
L 378.73571 152.0581 
L 373.408535 164.536155 
L 370.275291 167.097735 
L 376.450116 176.93691 
L 368.385077 174.324986 
L 365.600688 183.775262 
L 356.139659 190.209733 
L 353.299114 188.748813 
L 350.231739 196.742805 
L 347.469633 200.128299 
L 339.656073 203.53229 
L 342.950194 207.615224 
L 322.101191 211.019776 
L 318.453236 212.359624 
L 325.074373 211.50004 
L 319.234037 208.884447 
L 318.641947 219.472885 
L 315.837153 221.862487 
L 305.892673 221.469358 
L 300.328711 224.136264 
L 297.640882 222.740007 
L 290.828585 225.303829 
L 290.705498 224.431302 
L 293.159316 226.817031 
L 281.45832 232.20022 
L 279.29369 226.224306 
L 279.494645 229.086783 
L 273.568605 225.618077 
L 262.462719 227.219281 
L 264.286737 230.824957 
L 256.319563 229.947437 
L 270.15156 230.834027 
L 257.139298 232.018204 
L 246.639704 232.308859 
L 249.847387 228.908333 
L 248.267992 234.063493 
L 243.908941 226.494171 
L 239.551523 227.871421 
L 234.015068 232.96956 
L 233.227002 234.916656 
L 230.843625 229.489797 
L 235.000741 236.898912 
L 222.747079 231.945336 
L 219.196173 231.39516 
L 229.857217 233.913069 
L 221.566981 229.785548 
L 220.096061 228.802803 
L 216.032892 230.73828 
L 219.817565 225.551171 
L 217.399008 229.291577 
L 203.195384 230.054292 
L 202.381363 230.530837 
L 210.004661 222.672592 
L 201.058996 226.906765 
L 202.611375 229.505186 
L 195.472425 225.479119 
L 198.981377 223.566317 
L 188.279196 228.935799 
L 189.172636 225.547146 
L 189.955885 225.552445 
L 176.675983 226.598835 
L 190.401299 225.321256 
L 186.85929 222.418829 
L 173.324236 221.004483 
L 188.710571 222.644566 
L 188.13856 227.713099 
L 181.801224 221.481486 
L 168.25156 220.319323 
L 171.865723 224.677931 
L 169.436882 220.734108 
L 165.695469 222.939553 
L 168.561644 219.987647 
L 164.70849 219.391049 
L 164.243649 218.615798 
L 162.113873 219.129694 
L 166.57789 221.339623 
L 152.898691 215.530183 
L 151.470215 218.887651 
L 160.843827 219.202358 
L 155.996429 214.736792 
L 149.938324 221.121224 
L 149.404431 217.467648 
L 154.695284 214.906782 
L 153.444827 218.992927 
L 149.221841 215.595713 
L 144.134963 218.752413 
L 146.817323 212.33384 
L 141.604256 216.036792 
L 146.006975 207.933651 
L 142.703385 210.290182 
L 138.035802 208.403571 
L 129.875998 206.381263 
L 141.940378 213.20071 
L 124.330401 211.678336 
L 124.330401 211.678336 
" clip-path="url(#pb6c3f96b6c)" style="fill: none; stroke: #1f77b4; stroke-width: 1.5; stroke-linecap: square"/>
    <defs>
     <path id="m7cbb881707" d="M 0 1.5 
C 0.397805 1.5 0.77937 1.341951 1.06066 1.06066 
C 1.341951 0.77937 1.5 0.397805 1.5 0 
C 1.5 -0.397805 1.341951 -0.77937 1.06066 -1.06066 
C 0.77937 -1.341951 0.397805 -1.5 0 -1.5 
C -0.397805 -1.5 -0.77937 -1.341951 -1.06066 -1.06066 
C -1.341951 -0.77937 -1.5 -0.397805 -1.5 0 
C -1.5 0.397805 -1.341951 0.77937 -1.06066 1.06066 
C -0.77937 1.341951 -0.397805 1.5 0 1.5 
z
" style="stroke: #1f77b4"/>
    </defs>
    <g clip-path="url(#pb6c3f96b6c)">
     <use xlink:href="#m7cbb881707" x="245.220697" y="289.064581" style="fill: #1f77b4; stroke: #1f77b4"/>
     <use xlink:href="#m7cbb881707" x="245.705698" y="290.515972" style="fill: #1f77b4; stroke: #1f77b4"/>
     <use xlink:href="#m7cbb881707" x="249.6679" y="287.98033" style="fill: #1f77b4; stroke: #1f77b4"/>
     <use xlink:href="#m7cbb881707" x="243.26396" y="286.264933" style="fill: #1f77b4; stroke: #1f77b4"/>
     <use xlink:href="#m7cbb881707" x="240.504548" y="295.776" style="fill: #1f77b4; stroke: #1f77b4"/>
     <use xlink:href="#m7cbb881707" x="245.277179" y="289.404919" style="fill: #1f77b4; stroke: #1f77b4"/>
     <use xlink:href="#m7cbb881707" x="241.556335" y="290.556636" style="fill: #1f77b4; stroke: #1f77b4"/>
     <use xlink:href="#m7cbb881707" x="234.135624" y="288.106294" style="fill: #1f77b4; stroke: #1f77b4"/>
     <use xlink:href="#m7cbb881707" x="233.013641" y="286.96594" style="fill: #1f77b4; stroke: #1f77b4"/>
     <use xlink:href="#m7cbb881707" x="231.519867" y="286.56899" style="fill: #1f77b4; stroke: #1f77b4"/>
     <use xlink:href="#m7cbb881707" x="240.417456" y="285.567136" style="fill: #1f77b4; stroke: #1f77b4"/>
     <use xlink:href="#m7cbb881707" x="228.160203" y="283.598944" style="fill: #1f77b4; stroke: #1f77b4"/>
     <use xlink:href="#m7cbb881707" x="232.915612" y="285.14007" style="fill: #1f77b4; stroke: #1f77b4"/>
     <use xlink:href="#m7cbb881707" x="222.217594" y="279.348057" style="fill: #1f77b4; stroke: #1f77b4"/>
     <use xlink:href="#m7cbb881707" x="225.100501" y="280.432461" style="fill: #1f77b4; stroke: #1f77b4"/>
     <use xlink:href="#m7cbb881707" x="227.278761" y="277.678215" style="fill: #1f77b4; stroke: #1f77b4"/>
     <use xlink:href="#m7cbb881707" x="216.315225" y="283.126374" style="fill: #1f77b4; stroke: #1f77b4"/>
     <use xlink:href="#m7cbb881707" x="217.832914" y="279.650738" style="fill: #1f77b4; stroke: #1f77b4"/>
     <use xlink:href="#m7cbb881707" x="215.065094" y="280.186698" style="fill: #1f77b4; stroke: #1f77b4"/>
     <use xlink:href="#m7cbb881707" x="203.536077" y="281.074716" style="fill: #1f77b4; stroke: #1f77b4"/>
     <use xlink:href="#m7cbb881707" x="211.464562" y="279.862055" style="fill: #1f77b4; stroke: #1f77b4"/>
     <use xlink:href="#m7cbb881707" x="206.863745" y="281.100907" style="fill: #1f77b4; stroke: #1f77b4"/>
     <use xlink:href="#m7cbb881707" x="205.832281" y="278.628451" style="fill: #1f77b4; stroke: #1f77b4"/>
     <use xlink:href="#m7cbb881707" x="204.149715" y="277.009106" style="fill: #1f77b4; stroke: #1f77b4"/>
     <use xlink:href="#m7cbb881707" x="202.920969" y="275.529077" style="fill: #1f77b4; stroke: #1f77b4"/>
     <use xlink:href="#m7cbb881707" x="201.383936" y="273.129743" style="fill: #1f77b4; stroke: #1f77b4"/>
     <use xlink:href="#m7cbb881707" x="202.036426" y="275.789668" style="fill: #1f77b4; stroke: #1f77b4"/>
     <use xlink:href="#m7cbb881707" x="188.760605" y="272.759901" style="fill: #1f77b4; stroke: #1f77b4"/>
     <use xlink:href="#m7cbb881707" x="187.013067" y="271.946688" style="fill: #1f77b4; stroke: #1f77b4"/>
     <use xlink:href="#m7cbb881707" x="184.376007" y="270.750537" style="fill: #1f77b4; stroke: #1f77b4"/>
     <use xlink:href="#m7cbb881707" x="191.21679" y="270.284336" style="fill: #1f77b4; stroke: #1f77b4"/>
     <use xlink:href="#m7cbb881707" x="184.417471" y="268.67977" style="fill: #1f77b4; stroke: #1f77b4"/>
     <use xlink:href="#m7cbb881707" x="170.309345" y="269.654617" style="fill: #1f77b4; stroke: #1f77b4"/>
     <use xlink:href="#m7cbb881707" x="185.310013" y="270.385026" style="fill: #1f77b4; stroke: #1f77b4"/>
     <use xlink:href="#m7cbb881707" x="171.76647" y="270.567297" style="fill: #1f77b4; stroke: #1f77b4"/>
     <use xlink:href="#m7cbb881707" x="173.861639" y="263.360684" style="fill: #1f77b4; stroke: #1f77b4"/>
     <use xlink:href="#m7cbb881707" x="171.125162" y="269.65849" style="fill: #1f77b4; stroke: #1f77b4"/>
     <use xlink:href="#m7cbb881707" x="163.723796" y="264.927288" style="fill: #1f77b4; stroke: #1f77b4"/>
     <use xlink:href="#m7cbb881707" x="173.376638" y="263.406544" style="fill: #1f77b4; stroke: #1f77b4"/>
     <use xlink:href="#m7cbb881707" x="162.701229" y="262.326982" style="fill: #1f77b4; stroke: #1f77b4"/>
     <use xlink:href="#m7cbb881707" x="169.338037" y="257.35766" style="fill: #1f77b4; stroke: #1f77b4"/>
     <use xlink:href="#m7cbb881707" x="155.935457" y="262.847145" style="fill: #1f77b4; stroke: #1f77b4"/>
     <use xlink:href="#m7cbb881707" x="159.853174" y="257.552212" style="fill: #1f77b4; stroke: #1f77b4"/>
     <use xlink:href="#m7cbb881707" x="152.168659" y="259.936055" style="fill: #1f77b4; stroke: #1f77b4"/>
     <use xlink:href="#m7cbb881707" x="148.107857" y="259.048344" style="fill: #1f77b4; stroke: #1f77b4"/>
     <use xlink:href="#m7cbb881707" x="145.709216" y="257.063999" style="fill: #1f77b4; stroke: #1f77b4"/>
     <use xlink:href="#m7cbb881707" x="146.451002" y="255.330359" style="fill: #1f77b4; stroke: #1f77b4"/>
     <use xlink:href="#m7cbb881707" x="146.001996" y="253.181272" style="fill: #1f77b4; stroke: #1f77b4"/>
     <use xlink:href="#m7cbb881707" x="136.311607" y="250.479155" style="fill: #1f77b4; stroke: #1f77b4"/>
     <use xlink:href="#m7cbb881707" x="139.079509" y="250.634317" style="fill: #1f77b4; stroke: #1f77b4"/>
     <use xlink:href="#m7cbb881707" x="135.075843" y="247.344723" style="fill: #1f77b4; stroke: #1f77b4"/>
     <use xlink:href="#m7cbb881707" x="128.647743" y="247.73082" style="fill: #1f77b4; stroke: #1f77b4"/>
     <use xlink:href="#m7cbb881707" x="126.612567" y="244.045142" style="fill: #1f77b4; stroke: #1f77b4"/>
     <use xlink:href="#m7cbb881707" x="126.601058" y="241.519589" style="fill: #1f77b4; stroke: #1f77b4"/>
     <use xlink:href="#m7cbb881707" x="117.881488" y="241.722345" style="fill: #1f77b4; stroke: #1f77b4"/>
     <use xlink:href="#m7cbb881707" x="115.28834" y="242.516042" style="fill: #1f77b4; stroke: #1f77b4"/>
     <use xlink:href="#m7cbb881707" x="121.275515" y="235.502451" style="fill: #1f77b4; stroke: #1f77b4"/>
     <use xlink:href="#m7cbb881707" x="119.991511" y="234.466762" style="fill: #1f77b4; stroke: #1f77b4"/>
     <use xlink:href="#m7cbb881707" x="114.67258" y="230.461536" style="fill: #1f77b4; stroke: #1f77b4"/>
     <use xlink:href="#m7cbb881707" x="102.715452" y="227.003735" style="fill: #1f77b4; stroke: #1f77b4"/>
     <use xlink:href="#m7cbb881707" x="89.685723" y="232.424938" style="fill: #1f77b4; stroke: #1f77b4"/>
     <use xlink:href="#m7cbb881707" x="94.92695" y="225.977677" style="fill: #1f77b4; stroke: #1f77b4"/>
     <use xlink:href="#m7cbb881707" x="94.513124" y="218.523007" style="fill: #1f77b4; stroke: #1f77b4"/>
     <use xlink:href="#m7cbb881707" x="90.62626" y="214.448633" style="fill: #1f77b4; stroke: #1f77b4"/>
     <use xlink:href="#m7cbb881707" x="88.5959" y="221.320922" style="fill: #1f77b4; stroke: #1f77b4"/>
     <use xlink:href="#m7cbb881707" x="87.481344" y="212.758001" style="fill: #1f77b4; stroke: #1f77b4"/>
     <use xlink:href="#m7cbb881707" x="73.720767" y="208.044022" style="fill: #1f77b4; stroke: #1f77b4"/>
     <use xlink:href="#m7cbb881707" x="74.955552" y="204.184124" style="fill: #1f77b4; stroke: #1f77b4"/>
     <use xlink:href="#m7cbb881707" x="82.066506" y="194.760244" style="fill: #1f77b4; stroke: #1f77b4"/>
     <use xlink:href="#m7cbb881707" x="73.908336" y="190.435776" style="fill: #1f77b4; stroke: #1f77b4"/>
     <use xlink:href="#m7cbb881707" x="67.276261" y="185.840118" style="fill: #1f77b4; stroke: #1f77b4"/>
     <use xlink:href="#m7cbb881707" x="65.599326" y="186.779041" style="fill: #1f77b4; stroke: #1f77b4"/>
     <use xlink:href="#m7cbb881707" x="67.802481" y="176.485029" style="fill: #1f77b4; stroke: #1f77b4"/>
     <use xlink:href="#m7cbb881707" x="65.048619" y="166.188621" style="fill: #1f77b4; stroke: #1f77b4"/>
     <use xlink:href="#m7cbb881707" x="65.351276" y="158.524673" style="fill: #1f77b4; stroke: #1f77b4"/>
     <use xlink:href="#m7cbb881707" x="60.750377" y="150.187999" style="fill: #1f77b4; stroke: #1f77b4"/>
     <use xlink:href="#m7cbb881707" x="63.300836" y="147.040828" style="fill: #1f77b4; stroke: #1f77b4"/>
     <use xlink:href="#m7cbb881707" x="54.081165" y="143.246409" style="fill: #1f77b4; stroke: #1f77b4"/>
     <use xlink:href="#m7cbb881707" x="71.291681" y="131.129278" style="fill: #1f77b4; stroke: #1f77b4"/>
     <use xlink:href="#m7cbb881707" x="67.63793" y="125.789045" style="fill: #1f77b4; stroke: #1f77b4"/>
     <use xlink:href="#m7cbb881707" x="76.522623" y="114.464388" style="fill: #1f77b4; stroke: #1f77b4"/>
     <use xlink:href="#m7cbb881707" x="81.420137" y="105.940601" style="fill: #1f77b4; stroke: #1f77b4"/>
     <use xlink:href="#m7cbb881707" x="84.497715" y="94.127527" style="fill: #1f77b4; stroke: #1f77b4"/>
     <use xlink:href="#m7cbb881707" x="100.240739" y="87.612188" style="fill: #1f77b4; stroke: #1f77b4"/>
     <use xlink:href="#m7cbb881707" x="112.790528" y="79.870124" style="fill: #1f77b4; stroke: #1f77b4"/>
     <use xlink:href="#m7cbb881707" x="131.941946" y="67.864893" style="fill: #1f77b4; stroke: #1f77b4"/>
     <use xlink:href="#m7cbb881707" x="136.517215" y="70.178365" style="fill: #1f77b4; stroke: #1f77b4"/>
     <use xlink:href="#m7cbb881707" x="162.766037" y="60.915405" style="fill: #1f77b4; stroke: #1f77b4"/>
     <use xlink:href="#m7cbb881707" x="173.412552" y="59.590385" style="fill: #1f77b4; stroke: #1f77b4"/>
     <use xlink:href="#m7cbb881707" x="194.870785" y="55.242936" style="fill: #1f77b4; stroke: #1f77b4"/>
     <use xlink:href="#m7cbb881707" x="208.822767" y="56.119081" style="fill: #1f77b4; stroke: #1f77b4"/>
     <use xlink:href="#m7cbb881707" x="231.735596" y="55.211904" style="fill: #1f77b4; stroke: #1f77b4"/>
     <use xlink:href="#m7cbb881707" x="253.106248" y="54.325109" style="fill: #1f77b4; stroke: #1f77b4"/>
     <use xlink:href="#m7cbb881707" x="272.079484" y="59.087292" style="fill: #1f77b4; stroke: #1f77b4"/>
     <use xlink:href="#m7cbb881707" x="288.892662" y="67.143146" style="fill: #1f77b4; stroke: #1f77b4"/>
     <use xlink:href="#m7cbb881707" x="317.451483" y="72.926853" style="fill: #1f77b4; stroke: #1f77b4"/>
     <use xlink:href="#m7cbb881707" x="328.567001" y="75.407564" style="fill: #1f77b4; stroke: #1f77b4"/>
     <use xlink:href="#m7cbb881707" x="326.740452" y="82.078066" style="fill: #1f77b4; stroke: #1f77b4"/>
     <use xlink:href="#m7cbb881707" x="352.069225" y="93.603083" style="fill: #1f77b4; stroke: #1f77b4"/>
     <use xlink:href="#m7cbb881707" x="354.311151" y="101.662249" style="fill: #1f77b4; stroke: #1f77b4"/>
     <use xlink:href="#m7cbb881707" x="366.735241" y="105.220944" style="fill: #1f77b4; stroke: #1f77b4"/>
     <use xlink:href="#m7cbb881707" x="368.844612" y="115.707775" style="fill: #1f77b4; stroke: #1f77b4"/>
     <use xlink:href="#m7cbb881707" x="364.599833" y="123.080609" style="fill: #1f77b4; stroke: #1f77b4"/>
     <use xlink:href="#m7cbb881707" x="367.261543" y="135.649367" style="fill: #1f77b4; stroke: #1f77b4"/>
     <use xlink:href="#m7cbb881707" x="364.872697" y="146.21406" style="fill: #1f77b4; stroke: #1f77b4"/>
     <use xlink:href="#m7cbb881707" x="378.73571" y="152.0581" style="fill: #1f77b4; stroke: #1f77b4"/>
     <use xlink:href="#m7cbb881707" x="376.42465" y="157.404193" style="fill: #1f77b4; stroke: #1f77b4"/>
     <use xlink:href="#m7cbb881707" x="373.408535" y="164.536155" style="fill: #1f77b4; stroke: #1f77b4"/>
     <use xlink:href="#m7cbb881707" x="370.275291" y="167.097735" style="fill: #1f77b4; stroke: #1f77b4"/>
     <use xlink:href="#m7cbb881707" x="376.450116" y="176.93691" style="fill: #1f77b4; stroke: #1f77b4"/>
     <use xlink:href="#m7cbb881707" x="368.385077" y="174.324986" style="fill: #1f77b4; stroke: #1f77b4"/>
     <use xlink:href="#m7cbb881707" x="365.600688" y="183.775262" style="fill: #1f77b4; stroke: #1f77b4"/>
     <use xlink:href="#m7cbb881707" x="356.139659" y="190.209733" style="fill: #1f77b4; stroke: #1f77b4"/>
     <use xlink:href="#m7cbb881707" x="353.299114" y="188.748813" style="fill: #1f77b4; stroke: #1f77b4"/>
     <use xlink:href="#m7cbb881707" x="350.231739" y="196.742805" style="fill: #1f77b4; stroke: #1f77b4"/>
     <use xlink:href="#m7cbb881707" x="347.469633" y="200.128299" style="fill: #1f77b4; stroke: #1f77b4"/>
     <use xlink:href="#m7cbb881707" x="339.656073" y="203.53229" style="fill: #1f77b4; stroke: #1f77b4"/>
     <use xlink:href="#m7cbb881707" x="342.950194" y="207.615224" style="fill: #1f77b4; stroke: #1f77b4"/>
     <use xlink:href="#m7cbb881707" x="322.101191" y="211.019776" style="fill: #1f77b4; stroke: #1f77b4"/>
     <use xlink:href="#m7cbb881707" x="318.453236" y="212.359624" style="fill: #1f77b4; stroke: #1f77b4"/>
     <use xlink:href="#m7cbb881707" x="325.074373" y="211.50004" style="fill: #1f77b4; stroke: #1f77b4"/>
     <use xlink:href="#m7cbb881707" x="319.234037" y="208.884447" style="fill: #1f77b4; stroke: #1f77b4"/>
     <use xlink:href="#m7cbb881707" x="318.641947" y="219.472885" style="fill: #1f77b4; stroke: #1f77b4"/>
     <use xlink:href="#m7cbb881707" x="315.837153" y="221.862487" style="fill: #1f77b4; stroke: #1f77b4"/>
     <use xlink:href="#m7cbb881707" x="305.892673" y="221.469358" style="fill: #1f77b4; stroke: #1f77b4"/>
     <use xlink:href="#m7cbb881707" x="300.328711" y="224.136264" style="fill: #1f77b4; stroke: #1f77b4"/>
     <use xlink:href="#m7cbb881707" x="297.640882" y="222.740007" style="fill: #1f77b4; stroke: #1f77b4"/>
     <use xlink:href="#m7cbb881707" x="290.828585" y="225.303829" style="fill: #1f77b4; stroke: #1f77b4"/>
     <use xlink:href="#m7cbb881707" x="290.705498" y="224.431302" style="fill: #1f77b4; stroke: #1f77b4"/>
     <use xlink:href="#m7cbb881707" x="293.159316" y="226.817031" style="fill: #1f77b4; stroke: #1f77b4"/>
     <use xlink:href="#m7cbb881707" x="281.45832" y="232.20022" style="fill: #1f77b4; stroke: #1f77b4"/>
     <use xlink:href="#m7cbb881707" x="279.29369" y="226.224306" style="fill: #1f77b4; stroke: #1f77b4"/>
     <use xlink:href="#m7cbb881707" x="279.494645" y="229.086783" style="fill: #1f77b4; stroke: #1f77b4"/>
     <use xlink:href="#m7cbb881707" x="273.568605" y="225.618077" style="fill: #1f77b4; stroke: #1f77b4"/>
     <use xlink:href="#m7cbb881707" x="262.462719" y="227.219281" style="fill: #1f77b4; stroke: #1f77b4"/>
     <use xlink:href="#m7cbb881707" x="264.286737" y="230.824957" style="fill: #1f77b4; stroke: #1f77b4"/>
     <use xlink:href="#m7cbb881707" x="256.319563" y="229.947437" style="fill: #1f77b4; stroke: #1f77b4"/>
     <use xlink:href="#m7cbb881707" x="270.15156" y="230.834027" style="fill: #1f77b4; stroke: #1f77b4"/>
     <use xlink:href="#m7cbb881707" x="257.139298" y="232.018204" style="fill: #1f77b4; stroke: #1f77b4"/>
     <use xlink:href="#m7cbb881707" x="246.639704" y="232.308859" style="fill: #1f77b4; stroke: #1f77b4"/>
     <use xlink:href="#m7cbb881707" x="249.847387" y="228.908333" style="fill: #1f77b4; stroke: #1f77b4"/>
     <use xlink:href="#m7cbb881707" x="248.267992" y="234.063493" style="fill: #1f77b4; stroke: #1f77b4"/>
     <use xlink:href="#m7cbb881707" x="243.908941" y="226.494171" style="fill: #1f77b4; stroke: #1f77b4"/>
     <use xlink:href="#m7cbb881707" x="239.551523" y="227.871421" style="fill: #1f77b4; stroke: #1f77b4"/>
     <use xlink:href="#m7cbb881707" x="234.015068" y="232.96956" style="fill: #1f77b4; stroke: #1f77b4"/>
     <use xlink:href="#m7cbb881707" x="233.227002" y="234.916656" style="fill: #1f77b4; stroke: #1f77b4"/>
     <use xlink:href="#m7cbb881707" x="230.843625" y="229.489797" style="fill: #1f77b4; stroke: #1f77b4"/>
     <use xlink:href="#m7cbb881707" x="235.000741" y="236.898912" style="fill: #1f77b4; stroke: #1f77b4"/>
     <use xlink:href="#m7cbb881707" x="222.747079" y="231.945336" style="fill: #1f77b4; stroke: #1f77b4"/>
     <use xlink:href="#m7cbb881707" x="219.196173" y="231.39516" style="fill: #1f77b4; stroke: #1f77b4"/>
     <use xlink:href="#m7cbb881707" x="229.857217" y="233.913069" style="fill: #1f77b4; stroke: #1f77b4"/>
     <use xlink:href="#m7cbb881707" x="221.566981" y="229.785548" style="fill: #1f77b4; stroke: #1f77b4"/>
     <use xlink:href="#m7cbb881707" x="220.096061" y="228.802803" style="fill: #1f77b4; stroke: #1f77b4"/>
     <use xlink:href="#m7cbb881707" x="216.032892" y="230.73828" style="fill: #1f77b4; stroke: #1f77b4"/>
     <use xlink:href="#m7cbb881707" x="219.817565" y="225.551171" style="fill: #1f77b4; stroke: #1f77b4"/>
     <use xlink:href="#m7cbb881707" x="217.399008" y="229.291577" style="fill: #1f77b4; stroke: #1f77b4"/>
     <use xlink:href="#m7cbb881707" x="203.195384" y="230.054292" style="fill: #1f77b4; stroke: #1f77b4"/>
     <use xlink:href="#m7cbb881707" x="202.381363" y="230.530837" style="fill: #1f77b4; stroke: #1f77b4"/>
     <use xlink:href="#m7cbb881707" x="210.004661" y="222.672592" style="fill: #1f77b4; stroke: #1f77b4"/>
     <use xlink:href="#m7cbb881707" x="201.058996" y="226.906765" style="fill: #1f77b4; stroke: #1f77b4"/>
     <use xlink:href="#m7cbb881707" x="202.611375" y="229.505186" style="fill: #1f77b4; stroke: #1f77b4"/>
     <use xlink:href="#m7cbb881707" x="195.472425" y="225.479119" style="fill: #1f77b4; stroke: #1f77b4"/>
     <use xlink:href="#m7cbb881707" x="198.981377" y="223.566317" style="fill: #1f77b4; stroke: #1f77b4"/>
     <use xlink:href="#m7cbb881707" x="188.279196" y="228.935799" style="fill: #1f77b4; stroke: #1f77b4"/>
     <use xlink:href="#m7cbb881707" x="189.172636" y="225.547146" style="fill: #1f77b4; stroke: #1f77b4"/>
     <use xlink:href="#m7cbb881707" x="189.955885" y="225.552445" style="fill: #1f77b4; stroke: #1f77b4"/>
     <use xlink:href="#m7cbb881707" x="176.675983" y="226.598835" style="fill: #1f77b4; stroke: #1f77b4"/>
     <use xlink:href="#m7cbb881707" x="190.401299" y="225.321256" style="fill: #1f77b4; stroke: #1f77b4"/>
     <use xlink:href="#m7cbb881707" x="186.85929" y="222.418829" style="fill: #1f77b4; stroke: #1f77b4"/>
     <use xlink:href="#m7cbb881707" x="173.324236" y="221.004483" style="fill: #1f77b4; stroke: #1f77b4"/>
     <use xlink:href="#m7cbb881707" x="188.710571" y="222.644566" style="fill: #1f77b4; stroke: #1f77b4"/>
     <use xlink:href="#m7cbb881707" x="188.13856" y="227.713099" style="fill: #1f77b4; stroke: #1f77b4"/>
     <use xlink:href="#m7cbb881707" x="181.801224" y="221.481486" style="fill: #1f77b4; stroke: #1f77b4"/>
     <use xlink:href="#m7cbb881707" x="168.25156" y="220.319323" style="fill: #1f77b4; stroke: #1f77b4"/>
     <use xlink:href="#m7cbb881707" x="171.865723" y="224.677931" style="fill: #1f77b4; stroke: #1f77b4"/>
     <use xlink:href="#m7cbb881707" x="169.436882" y="220.734108" style="fill: #1f77b4; stroke: #1f77b4"/>
     <use xlink:href="#m7cbb881707" x="165.695469" y="222.939553" style="fill: #1f77b4; stroke: #1f77b4"/>
     <use xlink:href="#m7cbb881707" x="168.561644" y="219.987647" style="fill: #1f77b4; stroke: #1f77b4"/>
     <use xlink:href="#m7cbb881707" x="164.70849" y="219.391049" style="fill: #1f77b4; stroke: #1f77b4"/>
     <use xlink:href="#m7cbb881707" x="164.243649" y="218.615798" style="fill: #1f77b4; stroke: #1f77b4"/>
     <use xlink:href="#m7cbb881707" x="162.113873" y="219.129694" style="fill: #1f77b4; stroke: #1f77b4"/>
     <use xlink:href="#m7cbb881707" x="166.57789" y="221.339623" style="fill: #1f77b4; stroke: #1f77b4"/>
     <use xlink:href="#m7cbb881707" x="152.898691" y="215.530183" style="fill: #1f77b4; stroke: #1f77b4"/>
     <use xlink:href="#m7cbb881707" x="151.470215" y="218.887651" style="fill: #1f77b4; stroke: #1f77b4"/>
     <use xlink:href="#m7cbb881707" x="160.843827" y="219.202358" style="fill: #1f77b4; stroke: #1f77b4"/>
     <use xlink:href="#m7cbb881707" x="155.996429" y="214.736792" style="fill: #1f77b4; stroke: #1f77b4"/>
     <use xlink:href="#m7cbb881707" x="149.938324" y="221.121224" style="fill: #1f77b4; stroke: #1f77b4"/>
     <use xlink:href="#m7cbb881707" x="149.404431" y="217.467648" style="fill: #1f77b4; stroke: #1f77b4"/>
     <use xlink:href="#m7cbb881707" x="154.695284" y="214.906782" style="fill: #1f77b4; stroke: #1f77b4"/>
     <use xlink:href="#m7cbb881707" x="153.444827" y="218.992927" style="fill: #1f77b4; stroke: #1f77b4"/>
     <use xlink:href="#m7cbb881707" x="149.221841" y="215.595713" style="fill: #1f77b4; stroke: #1f77b4"/>
     <use xlink:href="#m7cbb881707" x="144.134963" y="218.752413" style="fill: #1f77b4; stroke: #1f77b4"/>
     <use xlink:href="#m7cbb881707" x="146.817323" y="212.33384" style="fill: #1f77b4; stroke: #1f77b4"/>
     <use xlink:href="#m7cbb881707" x="141.604256" y="216.036792" style="fill: #1f77b4; stroke: #1f77b4"/>
     <use xlink:href="#m7cbb881707" x="146.006975" y="207.933651" style="fill: #1f77b4; stroke: #1f77b4"/>
     <use xlink:href="#m7cbb881707" x="142.703385" y="210.290182" style="fill: #1f77b4; stroke: #1f77b4"/>
     <use xlink:href="#m7cbb881707" x="138.035802" y="208.403571" style="fill: #1f77b4; stroke: #1f77b4"/>
     <use xlink:href="#m7cbb881707" x="129.875998" y="206.381263" style="fill: #1f77b4; stroke: #1f77b4"/>
     <use xlink:href="#m7cbb881707" x="141.940378" y="213.20071" style="fill: #1f77b4; stroke: #1f77b4"/>
     <use xlink:href="#m7cbb881707" x="124.330401" y="211.678336" style="fill: #1f77b4; stroke: #1f77b4"/>
    </g>
   </g>
   <g id="line2d_12">
    <path d="M 251.255716 290.291874 
L 239.821333 287.80906 
L 228.817176 285.194927 
L 218.265638 282.468011 
L 207.75265 279.520571 
L 197.732838 276.479192 
L 188.258839 273.375586 
L 178.892983 270.067609 
L 170.175097 266.751182 
L 161.648398 263.26077 
L 153.910474 259.857176 
L 146.479267 256.351239 
L 139.401172 252.768704 
L 132.726003 249.144413 
L 126.504885 245.523082 
L 120.787721 241.959417 
L 114.969534 238.067397 
L 109.726942 234.296215 
L 104.436597 230.194513 
L 99.788648 226.302563 
L 95.147698 222.096033 
L 91.198761 218.214603 
L 87.302924 214.054204 
L 84.119379 210.356195 
L 81.016478 206.431921 
L 78.020598 202.265423 
L 75.163095 197.840216 
L 73.001462 194.102521 
L 70.974071 190.17996 
L 69.106005 186.064156 
L 67.425724 181.747114 
L 65.965404 177.221479 
L 65.036145 173.686466 
L 64.267789 170.028268 
L 63.678676 166.245191 
L 63.288661 162.336202 
L 63.119157 158.301069 
L 63.193159 154.140524 
L 63.535238 149.856443 
L 64.171508 145.45205 
L 65.12954 140.932131 
L 66.438227 136.303277 
L 67.52028 133.161029 
L 68.78062 129.977279 
L 70.22849 126.755638 
L 71.873199 123.500245 
L 73.724066 120.215796 
L 75.790342 116.90758 
L 78.08113 113.581509 
L 80.605292 110.244141 
L 83.371347 106.902704 
L 86.387355 103.565114 
L 89.660793 100.239984 
L 93.198424 96.936626 
L 97.006154 93.665044 
L 101.088883 90.435915 
L 105.450354 87.260562 
L 110.092993 84.150908 
L 115.017753 81.119421 
L 120.223967 78.17904 
L 125.709194 75.343091 
L 131.469093 72.625176 
L 137.497296 70.039064 
L 143.785319 67.598547 
L 150.322482 65.317303 
L 157.095867 63.208728 
L 164.090309 61.285777 
L 171.288423 59.560784 
L 178.670665 58.045289 
L 186.215447 56.749867 
L 193.89928 55.683953 
L 201.696967 54.855691 
L 209.581834 54.27179 
L 217.525991 53.937396 
L 225.500629 53.856 
L 233.476337 54.029357 
L 241.423441 54.457446 
L 249.312349 55.138453 
L 257.113893 56.068789 
L 264.799672 57.24314 
L 272.342373 58.65454 
L 279.716065 60.294482 
L 286.896476 62.153045 
L 293.861218 64.219041 
L 300.589984 66.480188 
L 307.064698 68.923281 
L 313.269618 71.534379 
L 319.191401 74.298995 
L 324.819121 77.202275 
L 330.144251 80.229183 
L 335.160602 83.364663 
L 339.864238 86.593803 
L 344.253362 89.901969 
L 348.328171 93.27494 
L 352.090707 96.699006 
L 355.544689 100.161068 
L 358.695334 103.648707 
L 361.549184 107.150239 
L 364.113923 110.65476 
L 366.398209 114.15217 
L 368.411501 117.633182 
L 370.163905 121.089328 
L 371.666022 124.512944 
L 372.928816 127.897158 
L 373.963481 131.235857 
L 374.78134 134.52366 
L 375.393735 137.75588 
L 375.811945 140.928486 
L 376.047112 144.038062 
L 376.110173 147.081761 
L 376.011806 150.057266 
L 375.76239 152.962745 
L 375.126917 157.18674 
L 374.206426 161.247118 
L 373.031272 165.142598 
L 371.629756 168.873375 
L 370.028106 172.44087 
L 368.250493 175.847517 
L 366.319089 179.096557 
L 364.254142 182.191874 
L 362.07407 185.137843 
L 359.016845 188.841714 
L 355.819609 192.300429 
L 352.51291 195.526324 
L 349.12315 198.531882 
L 345.673037 201.329505 
L 341.304871 204.552612 
L 336.904339 207.492698 
L 332.497258 210.171527 
L 328.104439 212.609576 
L 322.875033 215.244224 
L 317.712119 217.590032 
L 312.632104 219.674654 
L 306.825728 221.809831 
L 301.160687 223.658954 
L 294.868832 225.462027 
L 288.776398 226.973243 
L 282.161312 228.368377 
L 275.795181 229.481989 
L 269.004626 230.433597 
L 262.499208 231.125292 
L 255.654998 231.628228 
L 248.53771 231.913314 
L 241.758995 231.964122 
L 234.767936 231.794601 
L 227.615236 231.390551 
L 220.345921 230.742542 
L 213.446782 229.906712 
L 206.457024 228.840179 
L 199.407914 227.539299 
L 192.326206 226.00235 
L 185.234601 224.228977 
L 178.152297 222.219716 
L 171.095567 219.975618 
L 164.389518 217.613121 
L 157.704384 215.02805 
L 151.053434 212.220254 
L 144.448849 209.189565 
L 138.157804 206.067641 
L 138.157804 206.067641 
" clip-path="url(#pb6c3f96b6c)" style="fill: none; stroke: #d62728; stroke-width: 1.5; stroke-linecap: square"/>
   </g>
   <g id="patch_3">
    <path d="M 37.848438 307.872 
L 37.848438 41.76 
" style="fill: none; stroke: #000000; stroke-width: 0.8; stroke-linejoin: miter; stroke-linecap: square"/>
   </g>
   <g id="patch_4">
    <path d="M 394.968438 307.872 
L 394.968438 41.76 
" style="fill: none; stroke: #000000; stroke-width: 0.8; stroke-linejoin: miter; stroke-linecap: square"/>
   </g>
   <g id="patch_5">
    <path d="M 37.848437 307.872 
L 394.968438 307.872 
" style="fill: none; stroke: #000000; stroke-width: 0.8; stroke-linejoin: miter; stroke-linecap: square"/>
   </g>
   <g id="patch_6">
    <path d="M 37.848437 41.76 
L 394.968438 41.76 
" style="fill: none; stroke: #000000; stroke-width: 0.8; stroke-linejoin: miter; stroke-linecap: square"/>
   </g>
   <g id="text_13">
    <g id="patch_7">
     <path d="M 412.824438 102.337163 
L 558.124438 102.337163 
Q 562.124438 102.337163 562.124438 98.337163 
L 562.124438 55.0656 
Q 562.124438 51.0656 558.124438 51.0656 
L 412.824438 51.0656 
Q 408.824438 51.0656 408.824438 55.0656 
L 408.824438 98.337163 
Q 408.824438 102.337163 412.824438 102.337163 
z
" style="fill: #ffffff; opacity: 0.5; stroke: #000000; stroke-linejoin: miter"/>
    </g>
    <!-- Summary -->
    <g transform="translate(412.824438 62.664038) scale(0.1 -0.1)">
     <defs>
      <path id="DejaVuSans-53" d="M 3425 4513 
L 3425 3897 
Q 3066 4069 2747 4153 
Q 2428 4238 2131 4238 
Q 1616 4238 1336 4038 
Q 1056 3838 1056 3469 
Q 1056 3159 1242 3001 
Q 1428 2844 1947 2747 
L 2328 2669 
Q 3034 2534 3370 2195 
Q 3706 1856 3706 1288 
Q 3706 609 3251 259 
Q 2797 -91 1919 -91 
Q 1588 -91 1214 -16 
Q 841 59 441 206 
L 441 856 
Q 825 641 1194 531 
Q 1563 422 1919 422 
Q 2459 422 2753 634 
Q 3047 847 3047 1241 
Q 3047 1584 2836 1778 
Q 2625 1972 2144 2069 
L 1759 2144 
Q 1053 2284 737 2584 
Q 422 2884 422 3419 
Q 422 4038 858 4394 
Q 1294 4750 2059 4750 
Q 2388 4750 2728 4690 
Q 3069 4631 3425 4513 
z
" transform="scale(0.015625)"/>
      <path id="DejaVuSans-75" d="M 544 1381 
L 544 3500 
L 1119 3500 
L 1119 1403 
Q 1119 906 1312 657 
Q 1506 409 1894 409 
Q 2359 409 2629 706 
Q 2900 1003 2900 1516 
L 2900 3500 
L 3475 3500 
L 3475 0 
L 2900 0 
L 2900 538 
Q 2691 219 2414 64 
Q 2138 -91 1772 -91 
Q 1169 -91 856 284 
Q 544 659 544 1381 
z
M 1991 3584 
L 1991 3584 
z
" transform="scale(0.015625)"/>
      <path id="DejaVuSans-61" d="M 2194 1759 
Q 1497 1759 1228 1600 
Q 959 1441 959 1056 
Q 959 750 1161 570 
Q 1363 391 1709 391 
Q 2188 391 2477 730 
Q 2766 1069 2766 1631 
L 2766 1759 
L 2194 1759 
z
M 3341 1997 
L 3341 0 
L 2766 0 
L 2766 531 
Q 2569 213 2275 61 
Q 1981 -91 1556 -91 
Q 1019 -91 701 211 
Q 384 513 384 1019 
Q 384 1609 779 1909 
Q 1175 2209 1959 2209 
L 2766 2209 
L 2766 2266 
Q 2766 2663 2505 2880 
Q 2244 3097 1772 3097 
Q 1472 3097 1187 3025 
Q 903 2953 641 2809 
L 641 3341 
Q 956 3463 1253 3523 
Q 1550 3584 1831 3584 
Q 2591 3584 2966 3190 
Q 3341 2797 3341 1997 
z
" transform="scale(0.015625)"/>
      <path id="DejaVuSans-72" d="M 2631 2963 
Q 2534 3019 2420 3045 
Q 2306 3072 2169 3072 
Q 1681 3072 1420 2755 
Q 1159 2438 1159 1844 
L 1159 0 
L 581 0 
L 581 3500 
L 1159 3500 
L 1159 2956 
Q 1341 3275 1631 3429 
Q 1922 3584 2338 3584 
Q 2397 3584 2469 3576 
Q 2541 3569 2628 3553 
L 2631 2963 
z
" transform="scale(0.015625)"/>
      <path id="DejaVuSans-79" d="M 2059 -325 
Q 1816 -950 1584 -1140 
Q 1353 -1331 966 -1331 
L 506 -1331 
L 506 -850 
L 844 -850 
Q 1081 -850 1212 -737 
Q 1344 -625 1503 -206 
L 1606 56 
L 191 3500 
L 800 3500 
L 1894 763 
L 2988 3500 
L 3597 3500 
L 2059 -325 
z
" transform="scale(0.015625)"/>
     </defs>
     <use xlink:href="#DejaVuSans-53"/>
     <use xlink:href="#DejaVuSans-75" x="63.476562"/>
     <use xlink:href="#DejaVuSans-6d" x="126.855469"/>
     <use xlink:href="#DejaVuSans-6d" x="224.267578"/>
     <use xlink:href="#DejaVuSans-61" x="321.679688"/>
     <use xlink:href="#DejaVuSans-72" x="382.958984"/>
     <use xlink:href="#DejaVuSans-79" x="424.072266"/>
    </g>
    <!-- $Q_I$: 17.21$\pm$0.29 k -->
    <g transform="translate(412.824438 73.86185) scale(0.1 -0.1)">
     <defs>
      <path id="DejaVuSans-Oblique-51" d="M 2309 -84 
Q 2275 -88 2237 -89 
Q 2200 -91 2125 -91 
Q 1250 -91 756 411 
Q 263 913 263 1797 
Q 263 2319 452 2844 
Q 641 3369 978 3788 
Q 1369 4269 1858 4509 
Q 2347 4750 2938 4750 
Q 3794 4750 4287 4245 
Q 4781 3741 4781 2869 
Q 4781 1928 4265 1147 
Q 3750 366 2919 44 
L 3553 -825 
L 2847 -825 
L 2309 -84 
z
M 2919 4238 
Q 2400 4238 2003 3986 
Q 1606 3734 1313 3219 
Q 1125 2891 1026 2522 
Q 928 2153 928 1778 
Q 928 1128 1239 775 
Q 1550 422 2119 422 
Q 2631 422 3032 676 
Q 3434 931 3719 1434 
Q 3909 1772 4009 2142 
Q 4109 2513 4109 2881 
Q 4109 3528 3796 3883 
Q 3484 4238 2919 4238 
z
" transform="scale(0.015625)"/>
      <path id="DejaVuSans-Oblique-49" d="M 1081 4666 
L 1716 4666 
L 806 0 
L 172 0 
L 1081 4666 
z
" transform="scale(0.015625)"/>
      <path id="DejaVuSans-3a" d="M 750 794 
L 1409 794 
L 1409 0 
L 750 0 
L 750 794 
z
M 750 3309 
L 1409 3309 
L 1409 2516 
L 750 2516 
L 750 3309 
z
" transform="scale(0.015625)"/>
      <path id="DejaVuSans-37" d="M 525 4666 
L 3525 4666 
L 3525 4397 
L 1831 0 
L 1172 0 
L 2766 4134 
L 525 4134 
L 525 4666 
z
" transform="scale(0.015625)"/>
      <path id="DejaVuSans-2e" d="M 684 794 
L 1344 794 
L 1344 0 
L 684 0 
L 684 794 
z
" transform="scale(0.015625)"/>
      <path id="DejaVuSans-b1" d="M 2944 4013 
L 2944 2803 
L 4684 2803 
L 4684 2272 
L 2944 2272 
L 2944 1063 
L 2419 1063 
L 2419 2272 
L 678 2272 
L 678 2803 
L 2419 2803 
L 2419 4013 
L 2944 4013 
z
M 678 531 
L 4684 531 
L 4684 0 
L 678 0 
L 678 531 
z
" transform="scale(0.015625)"/>
      <path id="DejaVuSans-39" d="M 703 97 
L 703 672 
Q 941 559 1184 500 
Q 1428 441 1663 441 
Q 2288 441 2617 861 
Q 2947 1281 2994 2138 
Q 2813 1869 2534 1725 
Q 2256 1581 1919 1581 
Q 1219 1581 811 2004 
Q 403 2428 403 3163 
Q 403 3881 828 4315 
Q 1253 4750 1959 4750 
Q 2769 4750 3195 4129 
Q 3622 3509 3622 2328 
Q 3622 1225 3098 567 
Q 2575 -91 1691 -91 
Q 1453 -91 1209 -44 
Q 966 3 703 97 
z
M 1959 2075 
Q 2384 2075 2632 2365 
Q 2881 2656 2881 3163 
Q 2881 3666 2632 3958 
Q 2384 4250 1959 4250 
Q 1534 4250 1286 3958 
Q 1038 3666 1038 3163 
Q 1038 2656 1286 2365 
Q 1534 2075 1959 2075 
z
" transform="scale(0.015625)"/>
      <path id="DejaVuSans-6b" d="M 581 4863 
L 1159 4863 
L 1159 1991 
L 2875 3500 
L 3609 3500 
L 1753 1863 
L 3688 0 
L 2938 0 
L 1159 1709 
L 1159 0 
L 581 0 
L 581 4863 
z
" transform="scale(0.015625)"/>
     </defs>
     <use xlink:href="#DejaVuSans-Oblique-51" transform="translate(0 0.015625)"/>
     <use xlink:href="#DejaVuSans-Oblique-49" transform="translate(78.710938 -16.390625) scale(0.7)"/>
     <use xlink:href="#DejaVuSans-3a" transform="translate(102.089844 0.015625)"/>
     <use xlink:href="#DejaVuSans-20" transform="translate(135.78125 0.015625)"/>
     <use xlink:href="#DejaVuSans-31" transform="translate(167.568359 0.015625)"/>
     <use xlink:href="#DejaVuSans-37" transform="translate(231.191406 0.015625)"/>
     <use xlink:href="#DejaVuSans-2e" transform="translate(294.814453 0.015625)"/>
     <use xlink:href="#DejaVuSans-32" transform="translate(321.101562 0.015625)"/>
     <use xlink:href="#DejaVuSans-31" transform="translate(384.724609 0.015625)"/>
     <use xlink:href="#DejaVuSans-b1" transform="translate(448.347656 0.015625)"/>
     <use xlink:href="#DejaVuSans-30" transform="translate(532.136719 0.015625)"/>
     <use xlink:href="#DejaVuSans-2e" transform="translate(595.759766 0.015625)"/>
     <use xlink:href="#DejaVuSans-32" transform="translate(622.046875 0.015625)"/>
     <use xlink:href="#DejaVuSans-39" transform="translate(683.919922 0.015625)"/>
     <use xlink:href="#DejaVuSans-20" transform="translate(747.542969 0.015625)"/>
     <use xlink:href="#DejaVuSans-6b" transform="translate(779.330078 0.015625)"/>
    </g>
    <!-- $Q_C$: 4.511$\pm$0.024 k -->
    <g transform="translate(412.824438 85.059663) scale(0.1 -0.1)">
     <defs>
      <path id="DejaVuSans-Oblique-43" d="M 4447 4306 
L 4319 3641 
Q 4019 3944 3683 4091 
Q 3347 4238 2956 4238 
Q 2422 4238 2017 3981 
Q 1613 3725 1319 3200 
Q 1131 2863 1032 2486 
Q 934 2109 934 1728 
Q 934 1091 1264 756 
Q 1594 422 2222 422 
Q 2656 422 3056 561 
Q 3456 700 3834 978 
L 3688 231 
Q 3316 72 2936 -9 
Q 2556 -91 2175 -91 
Q 1278 -91 773 396 
Q 269 884 269 1753 
Q 269 2309 461 2846 
Q 653 3384 1013 3828 
Q 1394 4300 1883 4525 
Q 2372 4750 3022 4750 
Q 3422 4750 3780 4639 
Q 4138 4528 4447 4306 
z
" transform="scale(0.015625)"/>
     </defs>
     <use xlink:href="#DejaVuSans-Oblique-51" transform="translate(0 0.015625)"/>
     <use xlink:href="#DejaVuSans-Oblique-43" transform="translate(78.710938 -16.390625) scale(0.7)"/>
     <use xlink:href="#DejaVuSans-3a" transform="translate(130.322266 0.015625)"/>
     <use xlink:href="#DejaVuSans-20" transform="translate(164.013672 0.015625)"/>
     <use xlink:href="#DejaVuSans-34" transform="translate(195.800781 0.015625)"/>
     <use xlink:href="#DejaVuSans-2e" transform="translate(259.423828 0.015625)"/>
     <use xlink:href="#DejaVuSans-35" transform="translate(291.210938 0.015625)"/>
     <use xlink:href="#DejaVuSans-31" transform="translate(354.833984 0.015625)"/>
     <use xlink:href="#DejaVuSans-31" transform="translate(418.457031 0.015625)"/>
     <use xlink:href="#DejaVuSans-b1" transform="translate(482.080078 0.015625)"/>
     <use xlink:href="#DejaVuSans-30" transform="translate(565.869141 0.015625)"/>
     <use xlink:href="#DejaVuSans-2e" transform="translate(629.492188 0.015625)"/>
     <use xlink:href="#DejaVuSans-30" transform="translate(661.279297 0.015625)"/>
     <use xlink:href="#DejaVuSans-32" transform="translate(724.902344 0.015625)"/>
     <use xlink:href="#DejaVuSans-34" transform="translate(788.525391 0.015625)"/>
     <use xlink:href="#DejaVuSans-20" transform="translate(852.148438 0.015625)"/>
     <use xlink:href="#DejaVuSans-6b" transform="translate(883.935547 0.015625)"/>
    </g>
    <!-- $f_{res}$: 5.9134923$\pm$4.8e-06 GHz -->
    <g transform="translate(412.824438 96.257475) scale(0.1 -0.1)">
     <defs>
      <path id="DejaVuSans-Oblique-66" d="M 3059 4863 
L 2969 4384 
L 2419 4384 
Q 2106 4384 1964 4261 
Q 1822 4138 1753 3809 
L 1691 3500 
L 2638 3500 
L 2553 3053 
L 1606 3053 
L 1013 0 
L 434 0 
L 1031 3053 
L 481 3053 
L 563 3500 
L 1113 3500 
L 1159 3744 
Q 1278 4363 1576 4613 
Q 1875 4863 2516 4863 
L 3059 4863 
z
" transform="scale(0.015625)"/>
      <path id="DejaVuSans-Oblique-72" d="M 2853 2969 
Q 2766 3016 2653 3041 
Q 2541 3066 2413 3066 
Q 1953 3066 1609 2717 
Q 1266 2369 1153 1784 
L 800 0 
L 225 0 
L 909 3500 
L 1484 3500 
L 1375 2956 
Q 1603 3259 1920 3421 
Q 2238 3584 2597 3584 
Q 2691 3584 2781 3573 
Q 2872 3563 2963 3538 
L 2853 2969 
z
" transform="scale(0.015625)"/>
      <path id="DejaVuSans-Oblique-65" d="M 3078 2063 
Q 3088 2113 3092 2166 
Q 3097 2219 3097 2272 
Q 3097 2653 2873 2875 
Q 2650 3097 2266 3097 
Q 1838 3097 1509 2826 
Q 1181 2556 1013 2059 
L 3078 2063 
z
M 3578 1613 
L 903 1613 
Q 884 1494 878 1425 
Q 872 1356 872 1306 
Q 872 872 1139 634 
Q 1406 397 1894 397 
Q 2269 397 2603 481 
Q 2938 566 3225 728 
L 3116 159 
Q 2806 34 2476 -28 
Q 2147 -91 1806 -91 
Q 1078 -91 686 257 
Q 294 606 294 1247 
Q 294 1794 489 2264 
Q 684 2734 1063 3103 
Q 1306 3334 1642 3459 
Q 1978 3584 2356 3584 
Q 2950 3584 3301 3228 
Q 3653 2872 3653 2272 
Q 3653 2128 3634 1964 
Q 3616 1800 3578 1613 
z
" transform="scale(0.015625)"/>
      <path id="DejaVuSans-Oblique-73" d="M 3200 3397 
L 3091 2853 
Q 2863 2978 2609 3040 
Q 2356 3103 2088 3103 
Q 1634 3103 1373 2948 
Q 1113 2794 1113 2528 
Q 1113 2219 1719 2053 
Q 1766 2041 1788 2034 
L 1972 1978 
Q 2547 1819 2739 1644 
Q 2931 1469 2931 1166 
Q 2931 609 2489 259 
Q 2047 -91 1331 -91 
Q 1053 -91 747 -37 
Q 441 16 72 128 
L 184 722 
Q 500 559 806 475 
Q 1113 391 1394 391 
Q 1816 391 2080 572 
Q 2344 753 2344 1031 
Q 2344 1331 1650 1516 
L 1591 1531 
L 1394 1581 
Q 956 1697 753 1886 
Q 550 2075 550 2369 
Q 550 2928 970 3256 
Q 1391 3584 2113 3584 
Q 2397 3584 2667 3537 
Q 2938 3491 3200 3397 
z
" transform="scale(0.015625)"/>
      <path id="DejaVuSans-38" d="M 2034 2216 
Q 1584 2216 1326 1975 
Q 1069 1734 1069 1313 
Q 1069 891 1326 650 
Q 1584 409 2034 409 
Q 2484 409 2743 651 
Q 3003 894 3003 1313 
Q 3003 1734 2745 1975 
Q 2488 2216 2034 2216 
z
M 1403 2484 
Q 997 2584 770 2862 
Q 544 3141 544 3541 
Q 544 4100 942 4425 
Q 1341 4750 2034 4750 
Q 2731 4750 3128 4425 
Q 3525 4100 3525 3541 
Q 3525 3141 3298 2862 
Q 3072 2584 2669 2484 
Q 3125 2378 3379 2068 
Q 3634 1759 3634 1313 
Q 3634 634 3220 271 
Q 2806 -91 2034 -91 
Q 1263 -91 848 271 
Q 434 634 434 1313 
Q 434 1759 690 2068 
Q 947 2378 1403 2484 
z
M 1172 3481 
Q 1172 3119 1398 2916 
Q 1625 2713 2034 2713 
Q 2441 2713 2670 2916 
Q 2900 3119 2900 3481 
Q 2900 3844 2670 4047 
Q 2441 4250 2034 4250 
Q 1625 4250 1398 4047 
Q 1172 3844 1172 3481 
z
" transform="scale(0.015625)"/>
      <path id="DejaVuSans-36" d="M 2113 2584 
Q 1688 2584 1439 2293 
Q 1191 2003 1191 1497 
Q 1191 994 1439 701 
Q 1688 409 2113 409 
Q 2538 409 2786 701 
Q 3034 994 3034 1497 
Q 3034 2003 2786 2293 
Q 2538 2584 2113 2584 
z
M 3366 4563 
L 3366 3988 
Q 3128 4100 2886 4159 
Q 2644 4219 2406 4219 
Q 1781 4219 1451 3797 
Q 1122 3375 1075 2522 
Q 1259 2794 1537 2939 
Q 1816 3084 2150 3084 
Q 2853 3084 3261 2657 
Q 3669 2231 3669 1497 
Q 3669 778 3244 343 
Q 2819 -91 2113 -91 
Q 1303 -91 875 529 
Q 447 1150 447 2328 
Q 447 3434 972 4092 
Q 1497 4750 2381 4750 
Q 2619 4750 2861 4703 
Q 3103 4656 3366 4563 
z
" transform="scale(0.015625)"/>
      <path id="DejaVuSans-47" d="M 3809 666 
L 3809 1919 
L 2778 1919 
L 2778 2438 
L 4434 2438 
L 4434 434 
Q 4069 175 3628 42 
Q 3188 -91 2688 -91 
Q 1594 -91 976 548 
Q 359 1188 359 2328 
Q 359 3472 976 4111 
Q 1594 4750 2688 4750 
Q 3144 4750 3555 4637 
Q 3966 4525 4313 4306 
L 4313 3634 
Q 3963 3931 3569 4081 
Q 3175 4231 2741 4231 
Q 1884 4231 1454 3753 
Q 1025 3275 1025 2328 
Q 1025 1384 1454 906 
Q 1884 428 2741 428 
Q 3075 428 3337 486 
Q 3600 544 3809 666 
z
" transform="scale(0.015625)"/>
      <path id="DejaVuSans-48" d="M 628 4666 
L 1259 4666 
L 1259 2753 
L 3553 2753 
L 3553 4666 
L 4184 4666 
L 4184 0 
L 3553 0 
L 3553 2222 
L 1259 2222 
L 1259 0 
L 628 0 
L 628 4666 
z
" transform="scale(0.015625)"/>
      <path id="DejaVuSans-7a" d="M 353 3500 
L 3084 3500 
L 3084 2975 
L 922 459 
L 3084 459 
L 3084 0 
L 275 0 
L 275 525 
L 2438 3041 
L 353 3041 
L 353 3500 
z
" transform="scale(0.015625)"/>
     </defs>
     <use xlink:href="#DejaVuSans-Oblique-66" transform="translate(0 0.015625)"/>
     <use xlink:href="#DejaVuSans-Oblique-72" transform="translate(35.205078 -16.390625) scale(0.7)"/>
     <use xlink:href="#DejaVuSans-Oblique-65" transform="translate(63.984375 -16.390625) scale(0.7)"/>
     <use xlink:href="#DejaVuSans-Oblique-73" transform="translate(107.050781 -16.390625) scale(0.7)"/>
     <use xlink:href="#DejaVuSans-3a" transform="translate(146.254883 0.015625)"/>
     <use xlink:href="#DejaVuSans-20" transform="translate(179.946289 0.015625)"/>
     <use xlink:href="#DejaVuSans-35" transform="translate(211.733398 0.015625)"/>
     <use xlink:href="#DejaVuSans-2e" transform="translate(275.356445 0.015625)"/>
     <use xlink:href="#DejaVuSans-39" transform="translate(307.143555 0.015625)"/>
     <use xlink:href="#DejaVuSans-31" transform="translate(370.766602 0.015625)"/>
     <use xlink:href="#DejaVuSans-33" transform="translate(434.389648 0.015625)"/>
     <use xlink:href="#DejaVuSans-34" transform="translate(498.012695 0.015625)"/>
     <use xlink:href="#DejaVuSans-39" transform="translate(561.635742 0.015625)"/>
     <use xlink:href="#DejaVuSans-32" transform="translate(623.508789 0.015625)"/>
     <use xlink:href="#DejaVuSans-33" transform="translate(687.131836 0.015625)"/>
     <use xlink:href="#DejaVuSans-b1" transform="translate(750.754883 0.015625)"/>
     <use xlink:href="#DejaVuSans-34" transform="translate(834.543945 0.015625)"/>
     <use xlink:href="#DejaVuSans-2e" transform="translate(898.166992 0.015625)"/>
     <use xlink:href="#DejaVuSans-38" transform="translate(927.329102 0.015625)"/>
     <use xlink:href="#DejaVuSans-65" transform="translate(990.952148 0.015625)"/>
     <use xlink:href="#DejaVuSans-2d" transform="translate(1052.475586 0.015625)"/>
     <use xlink:href="#DejaVuSans-30" transform="translate(1088.55957 0.015625)"/>
     <use xlink:href="#DejaVuSans-36" transform="translate(1152.182617 0.015625)"/>
     <use xlink:href="#DejaVuSans-20" transform="translate(1215.805664 0.015625)"/>
     <use xlink:href="#DejaVuSans-47" transform="translate(1247.592773 0.015625)"/>
     <use xlink:href="#DejaVuSans-48" transform="translate(1325.083008 0.015625)"/>
     <use xlink:href="#DejaVuSans-7a" transform="translate(1400.27832 0.015625)"/>
    </g>
   </g>
  </g>
  <g id="text_14">
   <!-- S21 resonator spectroscopy -->
   <g transform="translate(126.864063 16.318125) scale(0.12 -0.12)">
    <defs>
     <path id="DejaVuSans-73" d="M 2834 3397 
L 2834 2853 
Q 2591 2978 2328 3040 
Q 2066 3103 1784 3103 
Q 1356 3103 1142 2972 
Q 928 2841 928 2578 
Q 928 2378 1081 2264 
Q 1234 2150 1697 2047 
L 1894 2003 
Q 2506 1872 2764 1633 
Q 3022 1394 3022 966 
Q 3022 478 2636 193 
Q 2250 -91 1575 -91 
Q 1294 -91 989 -36 
Q 684 19 347 128 
L 347 722 
Q 666 556 975 473 
Q 1284 391 1588 391 
Q 1994 391 2212 530 
Q 2431 669 2431 922 
Q 2431 1156 2273 1281 
Q 2116 1406 1581 1522 
L 1381 1569 
Q 847 1681 609 1914 
Q 372 2147 372 2553 
Q 372 3047 722 3315 
Q 1072 3584 1716 3584 
Q 2034 3584 2315 3537 
Q 2597 3491 2834 3397 
z
" transform="scale(0.015625)"/>
     <path id="DejaVuSans-6f" d="M 1959 3097 
Q 1497 3097 1228 2736 
Q 959 2375 959 1747 
Q 959 1119 1226 758 
Q 1494 397 1959 397 
Q 2419 397 2687 759 
Q 2956 1122 2956 1747 
Q 2956 2369 2687 2733 
Q 2419 3097 1959 3097 
z
M 1959 3584 
Q 2709 3584 3137 3096 
Q 3566 2609 3566 1747 
Q 3566 888 3137 398 
Q 2709 -91 1959 -91 
Q 1206 -91 779 398 
Q 353 888 353 1747 
Q 353 2609 779 3096 
Q 1206 3584 1959 3584 
z
" transform="scale(0.015625)"/>
     <path id="DejaVuSans-6e" d="M 3513 2113 
L 3513 0 
L 2938 0 
L 2938 2094 
Q 2938 2591 2744 2837 
Q 2550 3084 2163 3084 
Q 1697 3084 1428 2787 
Q 1159 2491 1159 1978 
L 1159 0 
L 581 0 
L 581 3500 
L 1159 3500 
L 1159 2956 
Q 1366 3272 1645 3428 
Q 1925 3584 2291 3584 
Q 2894 3584 3203 3211 
Q 3513 2838 3513 2113 
z
" transform="scale(0.015625)"/>
     <path id="DejaVuSans-74" d="M 1172 4494 
L 1172 3500 
L 2356 3500 
L 2356 3053 
L 1172 3053 
L 1172 1153 
Q 1172 725 1289 603 
Q 1406 481 1766 481 
L 2356 481 
L 2356 0 
L 1766 0 
Q 1100 0 847 248 
Q 594 497 594 1153 
L 594 3053 
L 172 3053 
L 172 3500 
L 594 3500 
L 594 4494 
L 1172 4494 
z
" transform="scale(0.015625)"/>
     <path id="DejaVuSans-70" d="M 1159 525 
L 1159 -1331 
L 581 -1331 
L 581 3500 
L 1159 3500 
L 1159 2969 
Q 1341 3281 1617 3432 
Q 1894 3584 2278 3584 
Q 2916 3584 3314 3078 
Q 3713 2572 3713 1747 
Q 3713 922 3314 415 
Q 2916 -91 2278 -91 
Q 1894 -91 1617 61 
Q 1341 213 1159 525 
z
M 3116 1747 
Q 3116 2381 2855 2742 
Q 2594 3103 2138 3103 
Q 1681 3103 1420 2742 
Q 1159 2381 1159 1747 
Q 1159 1113 1420 752 
Q 1681 391 2138 391 
Q 2594 391 2855 752 
Q 3116 1113 3116 1747 
z
" transform="scale(0.015625)"/>
     <path id="DejaVuSans-63" d="M 3122 3366 
L 3122 2828 
Q 2878 2963 2633 3030 
Q 2388 3097 2138 3097 
Q 1578 3097 1268 2742 
Q 959 2388 959 1747 
Q 959 1106 1268 751 
Q 1578 397 2138 397 
Q 2388 397 2633 464 
Q 2878 531 3122 666 
L 3122 134 
Q 2881 22 2623 -34 
Q 2366 -91 2075 -91 
Q 1284 -91 818 406 
Q 353 903 353 1747 
Q 353 2603 823 3093 
Q 1294 3584 2113 3584 
Q 2378 3584 2631 3529 
Q 2884 3475 3122 3366 
z
" transform="scale(0.015625)"/>
    </defs>
    <use xlink:href="#DejaVuSans-53"/>
    <use xlink:href="#DejaVuSans-32" x="63.476562"/>
    <use xlink:href="#DejaVuSans-31" x="127.099609"/>
    <use xlink:href="#DejaVuSans-20" x="190.722656"/>
    <use xlink:href="#DejaVuSans-72" x="222.509766"/>
    <use xlink:href="#DejaVuSans-65" x="261.373047"/>
    <use xlink:href="#DejaVuSans-73" x="322.896484"/>
    <use xlink:href="#DejaVuSans-6f" x="374.996094"/>
    <use xlink:href="#DejaVuSans-6e" x="436.177734"/>
    <use xlink:href="#DejaVuSans-61" x="499.556641"/>
    <use xlink:href="#DejaVuSans-74" x="560.835938"/>
    <use xlink:href="#DejaVuSans-6f" x="600.044922"/>
    <use xlink:href="#DejaVuSans-72" x="661.226562"/>
    <use xlink:href="#DejaVuSans-20" x="702.339844"/>
    <use xlink:href="#DejaVuSans-73" x="734.126953"/>
    <use xlink:href="#DejaVuSans-70" x="786.226562"/>
    <use xlink:href="#DejaVuSans-65" x="849.703125"/>
    <use xlink:href="#DejaVuSans-63" x="911.226562"/>
    <use xlink:href="#DejaVuSans-74" x="966.207031"/>
    <use xlink:href="#DejaVuSans-72" x="1005.416016"/>
    <use xlink:href="#DejaVuSans-6f" x="1044.279297"/>
    <use xlink:href="#DejaVuSans-73" x="1105.460938"/>
    <use xlink:href="#DejaVuSans-63" x="1157.560547"/>
    <use xlink:href="#DejaVuSans-6f" x="1212.541016"/>
    <use xlink:href="#DejaVuSans-70" x="1273.722656"/>
    <use xlink:href="#DejaVuSans-79" x="1337.199219"/>
   </g>
   <!-- tuid: 20240105-143956-491-19ace8 -->
   <g transform="translate(101.577813 29.7555) scale(0.12 -0.12)">
    <defs>
     <path id="DejaVuSans-69" d="M 603 3500 
L 1178 3500 
L 1178 0 
L 603 0 
L 603 3500 
z
M 603 4863 
L 1178 4863 
L 1178 4134 
L 603 4134 
L 603 4863 
z
" transform="scale(0.015625)"/>
     <path id="DejaVuSans-64" d="M 2906 2969 
L 2906 4863 
L 3481 4863 
L 3481 0 
L 2906 0 
L 2906 525 
Q 2725 213 2448 61 
Q 2172 -91 1784 -91 
Q 1150 -91 751 415 
Q 353 922 353 1747 
Q 353 2572 751 3078 
Q 1150 3584 1784 3584 
Q 2172 3584 2448 3432 
Q 2725 3281 2906 2969 
z
M 947 1747 
Q 947 1113 1208 752 
Q 1469 391 1925 391 
Q 2381 391 2643 752 
Q 2906 1113 2906 1747 
Q 2906 2381 2643 2742 
Q 2381 3103 1925 3103 
Q 1469 3103 1208 2742 
Q 947 2381 947 1747 
z
" transform="scale(0.015625)"/>
    </defs>
    <use xlink:href="#DejaVuSans-74"/>
    <use xlink:href="#DejaVuSans-75" x="39.208984"/>
    <use xlink:href="#DejaVuSans-69" x="102.587891"/>
    <use xlink:href="#DejaVuSans-64" x="130.371094"/>
    <use xlink:href="#DejaVuSans-3a" x="193.847656"/>
    <use xlink:href="#DejaVuSans-20" x="227.539062"/>
    <use xlink:href="#DejaVuSans-32" x="259.326172"/>
    <use xlink:href="#DejaVuSans-30" x="322.949219"/>
    <use xlink:href="#DejaVuSans-32" x="386.572266"/>
    <use xlink:href="#DejaVuSans-34" x="450.195312"/>
    <use xlink:href="#DejaVuSans-30" x="513.818359"/>
    <use xlink:href="#DejaVuSans-31" x="577.441406"/>
    <use xlink:href="#DejaVuSans-30" x="641.064453"/>
    <use xlink:href="#DejaVuSans-35" x="704.6875"/>
    <use xlink:href="#DejaVuSans-2d" x="768.310547"/>
    <use xlink:href="#DejaVuSans-31" x="804.394531"/>
    <use xlink:href="#DejaVuSans-34" x="868.017578"/>
    <use xlink:href="#DejaVuSans-33" x="931.640625"/>
    <use xlink:href="#DejaVuSans-39" x="995.263672"/>
    <use xlink:href="#DejaVuSans-35" x="1058.886719"/>
    <use xlink:href="#DejaVuSans-36" x="1122.509766"/>
    <use xlink:href="#DejaVuSans-2d" x="1186.132812"/>
    <use xlink:href="#DejaVuSans-34" x="1222.216797"/>
    <use xlink:href="#DejaVuSans-39" x="1285.839844"/>
    <use xlink:href="#DejaVuSans-31" x="1349.462891"/>
    <use xlink:href="#DejaVuSans-2d" x="1413.085938"/>
    <use xlink:href="#DejaVuSans-31" x="1449.169922"/>
    <use xlink:href="#DejaVuSans-39" x="1512.792969"/>
    <use xlink:href="#DejaVuSans-61" x="1576.416016"/>
    <use xlink:href="#DejaVuSans-63" x="1637.695312"/>
    <use xlink:href="#DejaVuSans-65" x="1692.675781"/>
    <use xlink:href="#DejaVuSans-38" x="1754.199219"/>
   </g>
  </g>
 </g>
 <defs>
  <clipPath id="pb6c3f96b6c">
   <rect x="37.848438" y="41.76" width="357.12" height="266.112"/>
  </clipPath>
 </defs>
</svg>
