<?xml version="1.0" encoding="utf-8" standalone="no"?>
<!DOCTYPE svg PUBLIC "-//W3C//DTD SVG 1.1//EN"
  "http://www.w3.org/Graphics/SVG/1.1/DTD/svg11.dtd">
<svg xmlns:xlink="http://www.w3.org/1999/xlink" width="571.349437pt" height="345.42825pt" viewBox="0 0 571.349437 345.42825" xmlns="http://www.w3.org/2000/svg" version="1.1">
 <metadata>
  <rdf:RDF xmlns:dc="http://purl.org/dc/elements/1.1/" xmlns:cc="http://creativecommons.org/ns#" xmlns:rdf="http://www.w3.org/1999/02/22-rdf-syntax-ns#">
   <cc:Work>
    <dc:type rdf:resource="http://purl.org/dc/dcmitype/StillImage"/>
    <dc:date>2024-03-11T11:25:36.285020</dc:date>
    <dc:format>image/svg+xml</dc:format>
    <dc:creator>
     <cc:Agent>
      <dc:title>Matplotlib v3.8.2, https://matplotlib.org/</dc:title>
     </cc:Agent>
    </dc:creator>
   </cc:Work>
  </rdf:RDF>
 </metadata>
 <defs>
  <style type="text/css">*{stroke-linejoin: round; stroke-linecap: butt}</style>
 </defs>
 <g id="figure_1">
  <g id="patch_1">
   <path d="M 0 345.42825 
L 571.349437 345.42825 
L 571.349437 -0 
L 0 -0 
L 0 345.42825 
z
" style="fill: none; opacity: 0"/>
  </g>
  <g id="axes_1">
   <g id="patch_2">
    <path d="M 50.573438 162.72 
L 407.693438 162.72 
L 407.693438 41.76 
L 50.573438 41.76 
z
" style="fill: #ffffff"/>
   </g>
   <g id="matplotlib.axis_1">
    <g id="xtick_1">
     <g id="line2d_1">
      <defs>
       <path id="m5d68e3565d" d="M 0 0 
L 0 3.5 
" style="stroke: #000000; stroke-width: 0.8"/>
      </defs>
      <g>
       <use xlink:href="#m5d68e3565d" x="55.984347" y="162.72" style="stroke: #000000; stroke-width: 0.8"/>
      </g>
     </g>
    </g>
    <g id="xtick_2">
     <g id="line2d_2">
      <g>
       <use xlink:href="#m5d68e3565d" x="110.093438" y="162.72" style="stroke: #000000; stroke-width: 0.8"/>
      </g>
     </g>
    </g>
    <g id="xtick_3">
     <g id="line2d_3">
      <g>
       <use xlink:href="#m5d68e3565d" x="164.202528" y="162.72" style="stroke: #000000; stroke-width: 0.8"/>
      </g>
     </g>
    </g>
    <g id="xtick_4">
     <g id="line2d_4">
      <g>
       <use xlink:href="#m5d68e3565d" x="218.311619" y="162.72" style="stroke: #000000; stroke-width: 0.8"/>
      </g>
     </g>
    </g>
    <g id="xtick_5">
     <g id="line2d_5">
      <g>
       <use xlink:href="#m5d68e3565d" x="272.42071" y="162.72" style="stroke: #000000; stroke-width: 0.8"/>
      </g>
     </g>
    </g>
    <g id="xtick_6">
     <g id="line2d_6">
      <g>
       <use xlink:href="#m5d68e3565d" x="326.529801" y="162.72" style="stroke: #000000; stroke-width: 0.8"/>
      </g>
     </g>
    </g>
    <g id="xtick_7">
     <g id="line2d_7">
      <g>
       <use xlink:href="#m5d68e3565d" x="380.638892" y="162.72" style="stroke: #000000; stroke-width: 0.8"/>
      </g>
     </g>
    </g>
   </g>
   <g id="matplotlib.axis_2">
    <g id="ytick_1">
     <g id="line2d_8">
      <defs>
       <path id="md11bde2988" d="M 0 0 
L -3.5 0 
" style="stroke: #000000; stroke-width: 0.8"/>
      </defs>
      <g>
       <use xlink:href="#md11bde2988" x="50.573438" y="156.865083" style="stroke: #000000; stroke-width: 0.8"/>
      </g>
     </g>
     <g id="text_1">
      <!-- -300 -->
      <g transform="translate(20.878125 160.664302) scale(0.1 -0.1)">
       <defs>
        <path id="DejaVuSans-2d" d="M 313 2009 
L 1997 2009 
L 1997 1497 
L 313 1497 
L 313 2009 
z
" transform="scale(0.015625)"/>
        <path id="DejaVuSans-33" d="M 2597 2516 
Q 3050 2419 3304 2112 
Q 3559 1806 3559 1356 
Q 3559 666 3084 287 
Q 2609 -91 1734 -91 
Q 1441 -91 1130 -33 
Q 819 25 488 141 
L 488 750 
Q 750 597 1062 519 
Q 1375 441 1716 441 
Q 2309 441 2620 675 
Q 2931 909 2931 1356 
Q 2931 1769 2642 2001 
Q 2353 2234 1838 2234 
L 1294 2234 
L 1294 2753 
L 1863 2753 
Q 2328 2753 2575 2939 
Q 2822 3125 2822 3475 
Q 2822 3834 2567 4026 
Q 2313 4219 1838 4219 
Q 1578 4219 1281 4162 
Q 984 4106 628 3988 
L 628 4550 
Q 988 4650 1302 4700 
Q 1616 4750 1894 4750 
Q 2613 4750 3031 4423 
Q 3450 4097 3450 3541 
Q 3450 3153 3228 2886 
Q 3006 2619 2597 2516 
z
" transform="scale(0.015625)"/>
        <path id="DejaVuSans-30" d="M 2034 4250 
Q 1547 4250 1301 3770 
Q 1056 3291 1056 2328 
Q 1056 1369 1301 889 
Q 1547 409 2034 409 
Q 2525 409 2770 889 
Q 3016 1369 3016 2328 
Q 3016 3291 2770 3770 
Q 2525 4250 2034 4250 
z
M 2034 4750 
Q 2819 4750 3233 4129 
Q 3647 3509 3647 2328 
Q 3647 1150 3233 529 
Q 2819 -91 2034 -91 
Q 1250 -91 836 529 
Q 422 1150 422 2328 
Q 422 3509 836 4129 
Q 1250 4750 2034 4750 
z
" transform="scale(0.015625)"/>
       </defs>
       <use xlink:href="#DejaVuSans-2d"/>
       <use xlink:href="#DejaVuSans-33" x="36.083984"/>
       <use xlink:href="#DejaVuSans-30" x="99.707031"/>
       <use xlink:href="#DejaVuSans-30" x="163.330078"/>
      </g>
     </g>
    </g>
    <g id="ytick_2">
     <g id="line2d_9">
      <g>
       <use xlink:href="#md11bde2988" x="50.573438" y="125.240513" style="stroke: #000000; stroke-width: 0.8"/>
      </g>
     </g>
     <g id="text_2">
      <!-- -200 -->
      <g transform="translate(20.878125 129.039732) scale(0.1 -0.1)">
       <defs>
        <path id="DejaVuSans-32" d="M 1228 531 
L 3431 531 
L 3431 0 
L 469 0 
L 469 531 
Q 828 903 1448 1529 
Q 2069 2156 2228 2338 
Q 2531 2678 2651 2914 
Q 2772 3150 2772 3378 
Q 2772 3750 2511 3984 
Q 2250 4219 1831 4219 
Q 1534 4219 1204 4116 
Q 875 4013 500 3803 
L 500 4441 
Q 881 4594 1212 4672 
Q 1544 4750 1819 4750 
Q 2544 4750 2975 4387 
Q 3406 4025 3406 3419 
Q 3406 3131 3298 2873 
Q 3191 2616 2906 2266 
Q 2828 2175 2409 1742 
Q 1991 1309 1228 531 
z
" transform="scale(0.015625)"/>
       </defs>
       <use xlink:href="#DejaVuSans-2d"/>
       <use xlink:href="#DejaVuSans-32" x="36.083984"/>
       <use xlink:href="#DejaVuSans-30" x="99.707031"/>
       <use xlink:href="#DejaVuSans-30" x="163.330078"/>
      </g>
     </g>
    </g>
    <g id="ytick_3">
     <g id="line2d_10">
      <g>
       <use xlink:href="#md11bde2988" x="50.573438" y="93.615943" style="stroke: #000000; stroke-width: 0.8"/>
      </g>
     </g>
     <g id="text_3">
      <!-- -100 -->
      <g transform="translate(20.878125 97.415162) scale(0.1 -0.1)">
       <defs>
        <path id="DejaVuSans-31" d="M 794 531 
L 1825 531 
L 1825 4091 
L 703 3866 
L 703 4441 
L 1819 4666 
L 2450 4666 
L 2450 531 
L 3481 531 
L 3481 0 
L 794 0 
L 794 531 
z
" transform="scale(0.015625)"/>
       </defs>
       <use xlink:href="#DejaVuSans-2d"/>
       <use xlink:href="#DejaVuSans-31" x="36.083984"/>
       <use xlink:href="#DejaVuSans-30" x="99.707031"/>
       <use xlink:href="#DejaVuSans-30" x="163.330078"/>
      </g>
     </g>
    </g>
    <g id="ytick_4">
     <g id="line2d_11">
      <g>
       <use xlink:href="#md11bde2988" x="50.573438" y="61.991373" style="stroke: #000000; stroke-width: 0.8"/>
      </g>
     </g>
     <g id="text_4">
      <!-- 0 -->
      <g transform="translate(37.210938 65.790592) scale(0.1 -0.1)">
       <use xlink:href="#DejaVuSans-30"/>
      </g>
     </g>
    </g>
    <g id="text_5">
     <!-- Re$(S_{21})$ [mV] -->
     <g transform="translate(14.798438 134.24) rotate(-90) scale(0.1 -0.1)">
      <defs>
       <path id="DejaVuSans-52" d="M 2841 2188 
Q 3044 2119 3236 1894 
Q 3428 1669 3622 1275 
L 4263 0 
L 3584 0 
L 2988 1197 
Q 2756 1666 2539 1819 
Q 2322 1972 1947 1972 
L 1259 1972 
L 1259 0 
L 628 0 
L 628 4666 
L 2053 4666 
Q 2853 4666 3247 4331 
Q 3641 3997 3641 3322 
Q 3641 2881 3436 2590 
Q 3231 2300 2841 2188 
z
M 1259 4147 
L 1259 2491 
L 2053 2491 
Q 2509 2491 2742 2702 
Q 2975 2913 2975 3322 
Q 2975 3731 2742 3939 
Q 2509 4147 2053 4147 
L 1259 4147 
z
" transform="scale(0.015625)"/>
       <path id="DejaVuSans-65" d="M 3597 1894 
L 3597 1613 
L 953 1613 
Q 991 1019 1311 708 
Q 1631 397 2203 397 
Q 2534 397 2845 478 
Q 3156 559 3463 722 
L 3463 178 
Q 3153 47 2828 -22 
Q 2503 -91 2169 -91 
Q 1331 -91 842 396 
Q 353 884 353 1716 
Q 353 2575 817 3079 
Q 1281 3584 2069 3584 
Q 2775 3584 3186 3129 
Q 3597 2675 3597 1894 
z
M 3022 2063 
Q 3016 2534 2758 2815 
Q 2500 3097 2075 3097 
Q 1594 3097 1305 2825 
Q 1016 2553 972 2059 
L 3022 2063 
z
" transform="scale(0.015625)"/>
       <path id="DejaVuSans-28" d="M 1984 4856 
Q 1566 4138 1362 3434 
Q 1159 2731 1159 2009 
Q 1159 1288 1364 580 
Q 1569 -128 1984 -844 
L 1484 -844 
Q 1016 -109 783 600 
Q 550 1309 550 2009 
Q 550 2706 781 3412 
Q 1013 4119 1484 4856 
L 1984 4856 
z
" transform="scale(0.015625)"/>
       <path id="DejaVuSans-Oblique-53" d="M 3859 4513 
L 3738 3897 
Q 3422 4066 3111 4152 
Q 2800 4238 2509 4238 
Q 1944 4238 1609 3991 
Q 1275 3744 1275 3334 
Q 1275 3109 1398 2989 
Q 1522 2869 2034 2731 
L 2413 2638 
Q 3053 2472 3303 2217 
Q 3553 1963 3553 1503 
Q 3553 797 2998 353 
Q 2444 -91 1538 -91 
Q 1166 -91 791 -17 
Q 416 56 38 206 
L 166 856 
Q 513 641 861 531 
Q 1209 422 1556 422 
Q 2147 422 2503 684 
Q 2859 947 2859 1369 
Q 2859 1650 2717 1795 
Q 2575 1941 2106 2059 
L 1728 2156 
Q 1081 2325 845 2545 
Q 609 2766 609 3163 
Q 609 3859 1145 4304 
Q 1681 4750 2541 4750 
Q 2875 4750 3203 4690 
Q 3531 4631 3859 4513 
z
" transform="scale(0.015625)"/>
       <path id="DejaVuSans-29" d="M 513 4856 
L 1013 4856 
Q 1481 4119 1714 3412 
Q 1947 2706 1947 2009 
Q 1947 1309 1714 600 
Q 1481 -109 1013 -844 
L 513 -844 
Q 928 -128 1133 580 
Q 1338 1288 1338 2009 
Q 1338 2731 1133 3434 
Q 928 4138 513 4856 
z
" transform="scale(0.015625)"/>
       <path id="DejaVuSans-20" transform="scale(0.015625)"/>
       <path id="DejaVuSans-5b" d="M 550 4863 
L 1875 4863 
L 1875 4416 
L 1125 4416 
L 1125 -397 
L 1875 -397 
L 1875 -844 
L 550 -844 
L 550 4863 
z
" transform="scale(0.015625)"/>
       <path id="DejaVuSans-6d" d="M 3328 2828 
Q 3544 3216 3844 3400 
Q 4144 3584 4550 3584 
Q 5097 3584 5394 3201 
Q 5691 2819 5691 2113 
L 5691 0 
L 5113 0 
L 5113 2094 
Q 5113 2597 4934 2840 
Q 4756 3084 4391 3084 
Q 3944 3084 3684 2787 
Q 3425 2491 3425 1978 
L 3425 0 
L 2847 0 
L 2847 2094 
Q 2847 2600 2669 2842 
Q 2491 3084 2119 3084 
Q 1678 3084 1418 2786 
Q 1159 2488 1159 1978 
L 1159 0 
L 581 0 
L 581 3500 
L 1159 3500 
L 1159 2956 
Q 1356 3278 1631 3431 
Q 1906 3584 2284 3584 
Q 2666 3584 2933 3390 
Q 3200 3197 3328 2828 
z
" transform="scale(0.015625)"/>
       <path id="DejaVuSans-56" d="M 1831 0 
L 50 4666 
L 709 4666 
L 2188 738 
L 3669 4666 
L 4325 4666 
L 2547 0 
L 1831 0 
z
" transform="scale(0.015625)"/>
       <path id="DejaVuSans-5d" d="M 1947 4863 
L 1947 -844 
L 622 -844 
L 622 -397 
L 1369 -397 
L 1369 4416 
L 622 4416 
L 622 4863 
L 1947 4863 
z
" transform="scale(0.015625)"/>
      </defs>
      <use xlink:href="#DejaVuSans-52" transform="translate(0 0.015625)"/>
      <use xlink:href="#DejaVuSans-65" transform="translate(69.482422 0.015625)"/>
      <use xlink:href="#DejaVuSans-28" transform="translate(131.005859 0.015625)"/>
      <use xlink:href="#DejaVuSans-Oblique-53" transform="translate(170.019531 0.015625)"/>
      <use xlink:href="#DejaVuSans-32" transform="translate(233.496094 -16.390625) scale(0.7)"/>
      <use xlink:href="#DejaVuSans-31" transform="translate(278.032227 -16.390625) scale(0.7)"/>
      <use xlink:href="#DejaVuSans-29" transform="translate(325.302734 0.015625)"/>
      <use xlink:href="#DejaVuSans-20" transform="translate(364.316406 0.015625)"/>
      <use xlink:href="#DejaVuSans-5b" transform="translate(396.103516 0.015625)"/>
      <use xlink:href="#DejaVuSans-6d" transform="translate(435.117188 0.015625)"/>
      <use xlink:href="#DejaVuSans-56" transform="translate(532.529297 0.015625)"/>
      <use xlink:href="#DejaVuSans-5d" transform="translate(600.9375 0.015625)"/>
     </g>
    </g>
   </g>
   <g id="line2d_12">
    <path d="M 66.806165 49.418427 
L 73.331884 54.169742 
L 74.963314 55.512912 
L 76.594744 57.070302 
L 84.751893 63.860506 
L 91.277613 69.05885 
L 96.171903 72.97662 
L 99.434762 75.486702 
L 105.960482 80.591337 
L 110.854771 84.340635 
L 120.643351 91.941964 
L 127.16907 96.946743 
L 130.43193 99.456384 
L 136.957649 104.417722 
L 154.903378 117.649695 
L 176.111967 132.375788 
L 181.006256 135.517906 
L 184.269116 137.656533 
L 187.531976 139.721065 
L 192.426265 142.795106 
L 210.371994 154.101053 
L 215.266284 156.818104 
L 216.897713 157.221818 
L 218.529143 157.019631 
L 220.160573 155.809532 
L 221.792003 152.247228 
L 223.423433 143.334488 
L 225.054863 126.710995 
L 226.686293 105.088702 
L 228.317723 86.589898 
L 229.949152 79.280065 
L 231.580582 83.780795 
L 234.843442 105.117422 
L 236.474872 113.207312 
L 238.106302 119.214774 
L 239.737732 123.930044 
L 241.369162 127.557824 
L 243.000591 130.34023 
L 244.632021 132.594148 
L 246.263451 134.448718 
L 247.894881 135.919893 
L 249.526311 137.175556 
L 251.157741 138.23523 
L 252.789171 139.051143 
L 254.420601 139.728127 
L 257.68346 140.718241 
L 259.31489 141.065485 
L 262.57775 141.495026 
L 265.84061 141.612637 
L 269.103469 141.52383 
L 273.997759 140.960805 
L 278.892049 139.92028 
L 282.154908 139.051971 
L 285.417768 138.06027 
L 290.312058 136.259993 
L 296.837777 133.436781 
L 304.994927 129.223795 
L 309.889216 126.426947 
L 319.677796 120.04853 
L 324.572085 116.546481 
L 329.466375 112.903052 
L 337.623524 106.620202 
L 350.674963 95.9504 
L 363.726402 84.928029 
L 391.46071 61.766804 
L 391.46071 61.766804 
" clip-path="url(#pa324e368eb)" style="fill: none; stroke: #1f77b4; stroke-width: 1.5; stroke-linecap: square"/>
    <defs>
     <path id="m82ac776e6b" d="M 0 1.5 
C 0.397805 1.5 0.77937 1.341951 1.06066 1.06066 
C 1.341951 0.77937 1.5 0.397805 1.5 0 
C 1.5 -0.397805 1.341951 -0.77937 1.06066 -1.06066 
C 0.77937 -1.341951 0.397805 -1.5 0 -1.5 
C -0.397805 -1.5 -0.77937 -1.341951 -1.06066 -1.06066 
C -1.341951 -0.77937 -1.5 -0.397805 -1.5 0 
C -1.5 0.397805 -1.341951 0.77937 -1.06066 1.06066 
C -0.77937 1.341951 -0.397805 1.5 0 1.5 
z
" style="stroke: #1f77b4"/>
    </defs>
    <g clip-path="url(#pa324e368eb)">
     <use xlink:href="#m82ac776e6b" x="66.806165" y="49.418427" style="fill: #1f77b4; stroke: #1f77b4"/>
     <use xlink:href="#m82ac776e6b" x="68.437595" y="50.590643" style="fill: #1f77b4; stroke: #1f77b4"/>
     <use xlink:href="#m82ac776e6b" x="70.069025" y="51.747233" style="fill: #1f77b4; stroke: #1f77b4"/>
     <use xlink:href="#m82ac776e6b" x="71.700454" y="52.91142" style="fill: #1f77b4; stroke: #1f77b4"/>
     <use xlink:href="#m82ac776e6b" x="73.331884" y="54.169742" style="fill: #1f77b4; stroke: #1f77b4"/>
     <use xlink:href="#m82ac776e6b" x="74.963314" y="55.512912" style="fill: #1f77b4; stroke: #1f77b4"/>
     <use xlink:href="#m82ac776e6b" x="76.594744" y="57.070302" style="fill: #1f77b4; stroke: #1f77b4"/>
     <use xlink:href="#m82ac776e6b" x="78.226174" y="58.439289" style="fill: #1f77b4; stroke: #1f77b4"/>
     <use xlink:href="#m82ac776e6b" x="79.857604" y="59.830348" style="fill: #1f77b4; stroke: #1f77b4"/>
     <use xlink:href="#m82ac776e6b" x="81.489034" y="61.226758" style="fill: #1f77b4; stroke: #1f77b4"/>
     <use xlink:href="#m82ac776e6b" x="83.120464" y="62.504673" style="fill: #1f77b4; stroke: #1f77b4"/>
     <use xlink:href="#m82ac776e6b" x="84.751893" y="63.860506" style="fill: #1f77b4; stroke: #1f77b4"/>
     <use xlink:href="#m82ac776e6b" x="86.383323" y="65.128895" style="fill: #1f77b4; stroke: #1f77b4"/>
     <use xlink:href="#m82ac776e6b" x="88.014753" y="66.447653" style="fill: #1f77b4; stroke: #1f77b4"/>
     <use xlink:href="#m82ac776e6b" x="89.646183" y="67.775903" style="fill: #1f77b4; stroke: #1f77b4"/>
     <use xlink:href="#m82ac776e6b" x="91.277613" y="69.05885" style="fill: #1f77b4; stroke: #1f77b4"/>
     <use xlink:href="#m82ac776e6b" x="92.909043" y="70.381615" style="fill: #1f77b4; stroke: #1f77b4"/>
     <use xlink:href="#m82ac776e6b" x="94.540473" y="71.642691" style="fill: #1f77b4; stroke: #1f77b4"/>
     <use xlink:href="#m82ac776e6b" x="96.171903" y="72.97662" style="fill: #1f77b4; stroke: #1f77b4"/>
     <use xlink:href="#m82ac776e6b" x="97.803332" y="74.189671" style="fill: #1f77b4; stroke: #1f77b4"/>
     <use xlink:href="#m82ac776e6b" x="99.434762" y="75.486702" style="fill: #1f77b4; stroke: #1f77b4"/>
     <use xlink:href="#m82ac776e6b" x="101.066192" y="76.784779" style="fill: #1f77b4; stroke: #1f77b4"/>
     <use xlink:href="#m82ac776e6b" x="102.697622" y="78.052637" style="fill: #1f77b4; stroke: #1f77b4"/>
     <use xlink:href="#m82ac776e6b" x="104.329052" y="79.297251" style="fill: #1f77b4; stroke: #1f77b4"/>
     <use xlink:href="#m82ac776e6b" x="105.960482" y="80.591337" style="fill: #1f77b4; stroke: #1f77b4"/>
     <use xlink:href="#m82ac776e6b" x="107.591912" y="81.81366" style="fill: #1f77b4; stroke: #1f77b4"/>
     <use xlink:href="#m82ac776e6b" x="109.223342" y="83.090388" style="fill: #1f77b4; stroke: #1f77b4"/>
     <use xlink:href="#m82ac776e6b" x="110.854771" y="84.340635" style="fill: #1f77b4; stroke: #1f77b4"/>
     <use xlink:href="#m82ac776e6b" x="112.486201" y="85.627489" style="fill: #1f77b4; stroke: #1f77b4"/>
     <use xlink:href="#m82ac776e6b" x="114.117631" y="86.908381" style="fill: #1f77b4; stroke: #1f77b4"/>
     <use xlink:href="#m82ac776e6b" x="115.749061" y="88.147716" style="fill: #1f77b4; stroke: #1f77b4"/>
     <use xlink:href="#m82ac776e6b" x="117.380491" y="89.4457" style="fill: #1f77b4; stroke: #1f77b4"/>
     <use xlink:href="#m82ac776e6b" x="119.011921" y="90.702222" style="fill: #1f77b4; stroke: #1f77b4"/>
     <use xlink:href="#m82ac776e6b" x="120.643351" y="91.941964" style="fill: #1f77b4; stroke: #1f77b4"/>
     <use xlink:href="#m82ac776e6b" x="122.274781" y="93.166866" style="fill: #1f77b4; stroke: #1f77b4"/>
     <use xlink:href="#m82ac776e6b" x="123.90621" y="94.467563" style="fill: #1f77b4; stroke: #1f77b4"/>
     <use xlink:href="#m82ac776e6b" x="125.53764" y="95.703454" style="fill: #1f77b4; stroke: #1f77b4"/>
     <use xlink:href="#m82ac776e6b" x="127.16907" y="96.946743" style="fill: #1f77b4; stroke: #1f77b4"/>
     <use xlink:href="#m82ac776e6b" x="128.8005" y="98.268494" style="fill: #1f77b4; stroke: #1f77b4"/>
     <use xlink:href="#m82ac776e6b" x="130.43193" y="99.456384" style="fill: #1f77b4; stroke: #1f77b4"/>
     <use xlink:href="#m82ac776e6b" x="132.06336" y="100.719636" style="fill: #1f77b4; stroke: #1f77b4"/>
     <use xlink:href="#m82ac776e6b" x="133.69479" y="101.956925" style="fill: #1f77b4; stroke: #1f77b4"/>
     <use xlink:href="#m82ac776e6b" x="135.32622" y="103.167526" style="fill: #1f77b4; stroke: #1f77b4"/>
     <use xlink:href="#m82ac776e6b" x="136.957649" y="104.417722" style="fill: #1f77b4; stroke: #1f77b4"/>
     <use xlink:href="#m82ac776e6b" x="138.589079" y="105.629575" style="fill: #1f77b4; stroke: #1f77b4"/>
     <use xlink:href="#m82ac776e6b" x="140.220509" y="106.862122" style="fill: #1f77b4; stroke: #1f77b4"/>
     <use xlink:href="#m82ac776e6b" x="141.851939" y="108.021612" style="fill: #1f77b4; stroke: #1f77b4"/>
     <use xlink:href="#m82ac776e6b" x="143.483369" y="109.31126" style="fill: #1f77b4; stroke: #1f77b4"/>
     <use xlink:href="#m82ac776e6b" x="145.114799" y="110.482169" style="fill: #1f77b4; stroke: #1f77b4"/>
     <use xlink:href="#m82ac776e6b" x="146.746229" y="111.714394" style="fill: #1f77b4; stroke: #1f77b4"/>
     <use xlink:href="#m82ac776e6b" x="148.377659" y="112.908472" style="fill: #1f77b4; stroke: #1f77b4"/>
     <use xlink:href="#m82ac776e6b" x="150.009088" y="114.101849" style="fill: #1f77b4; stroke: #1f77b4"/>
     <use xlink:href="#m82ac776e6b" x="151.640518" y="115.208303" style="fill: #1f77b4; stroke: #1f77b4"/>
     <use xlink:href="#m82ac776e6b" x="153.271948" y="116.433406" style="fill: #1f77b4; stroke: #1f77b4"/>
     <use xlink:href="#m82ac776e6b" x="154.903378" y="117.649695" style="fill: #1f77b4; stroke: #1f77b4"/>
     <use xlink:href="#m82ac776e6b" x="156.534808" y="118.790364" style="fill: #1f77b4; stroke: #1f77b4"/>
     <use xlink:href="#m82ac776e6b" x="158.166238" y="119.938779" style="fill: #1f77b4; stroke: #1f77b4"/>
     <use xlink:href="#m82ac776e6b" x="159.797668" y="121.084744" style="fill: #1f77b4; stroke: #1f77b4"/>
     <use xlink:href="#m82ac776e6b" x="161.429098" y="122.28518" style="fill: #1f77b4; stroke: #1f77b4"/>
     <use xlink:href="#m82ac776e6b" x="163.060527" y="123.447974" style="fill: #1f77b4; stroke: #1f77b4"/>
     <use xlink:href="#m82ac776e6b" x="164.691957" y="124.577667" style="fill: #1f77b4; stroke: #1f77b4"/>
     <use xlink:href="#m82ac776e6b" x="166.323387" y="125.726119" style="fill: #1f77b4; stroke: #1f77b4"/>
     <use xlink:href="#m82ac776e6b" x="167.954817" y="126.855111" style="fill: #1f77b4; stroke: #1f77b4"/>
     <use xlink:href="#m82ac776e6b" x="169.586247" y="127.988756" style="fill: #1f77b4; stroke: #1f77b4"/>
     <use xlink:href="#m82ac776e6b" x="171.217677" y="129.109974" style="fill: #1f77b4; stroke: #1f77b4"/>
     <use xlink:href="#m82ac776e6b" x="172.849107" y="130.233972" style="fill: #1f77b4; stroke: #1f77b4"/>
     <use xlink:href="#m82ac776e6b" x="174.480537" y="131.32993" style="fill: #1f77b4; stroke: #1f77b4"/>
     <use xlink:href="#m82ac776e6b" x="176.111967" y="132.375788" style="fill: #1f77b4; stroke: #1f77b4"/>
     <use xlink:href="#m82ac776e6b" x="177.743396" y="133.398238" style="fill: #1f77b4; stroke: #1f77b4"/>
     <use xlink:href="#m82ac776e6b" x="179.374826" y="134.500962" style="fill: #1f77b4; stroke: #1f77b4"/>
     <use xlink:href="#m82ac776e6b" x="181.006256" y="135.517906" style="fill: #1f77b4; stroke: #1f77b4"/>
     <use xlink:href="#m82ac776e6b" x="182.637686" y="136.599961" style="fill: #1f77b4; stroke: #1f77b4"/>
     <use xlink:href="#m82ac776e6b" x="184.269116" y="137.656533" style="fill: #1f77b4; stroke: #1f77b4"/>
     <use xlink:href="#m82ac776e6b" x="185.900546" y="138.626023" style="fill: #1f77b4; stroke: #1f77b4"/>
     <use xlink:href="#m82ac776e6b" x="187.531976" y="139.721065" style="fill: #1f77b4; stroke: #1f77b4"/>
     <use xlink:href="#m82ac776e6b" x="189.163406" y="140.705024" style="fill: #1f77b4; stroke: #1f77b4"/>
     <use xlink:href="#m82ac776e6b" x="190.794835" y="141.755559" style="fill: #1f77b4; stroke: #1f77b4"/>
     <use xlink:href="#m82ac776e6b" x="192.426265" y="142.795106" style="fill: #1f77b4; stroke: #1f77b4"/>
     <use xlink:href="#m82ac776e6b" x="194.057695" y="143.829232" style="fill: #1f77b4; stroke: #1f77b4"/>
     <use xlink:href="#m82ac776e6b" x="195.689125" y="144.840751" style="fill: #1f77b4; stroke: #1f77b4"/>
     <use xlink:href="#m82ac776e6b" x="197.320555" y="145.856779" style="fill: #1f77b4; stroke: #1f77b4"/>
     <use xlink:href="#m82ac776e6b" x="198.951985" y="146.890975" style="fill: #1f77b4; stroke: #1f77b4"/>
     <use xlink:href="#m82ac776e6b" x="200.583415" y="147.891208" style="fill: #1f77b4; stroke: #1f77b4"/>
     <use xlink:href="#m82ac776e6b" x="202.214845" y="148.922087" style="fill: #1f77b4; stroke: #1f77b4"/>
     <use xlink:href="#m82ac776e6b" x="203.846274" y="149.944188" style="fill: #1f77b4; stroke: #1f77b4"/>
     <use xlink:href="#m82ac776e6b" x="205.477704" y="150.96275" style="fill: #1f77b4; stroke: #1f77b4"/>
     <use xlink:href="#m82ac776e6b" x="207.109134" y="152.038506" style="fill: #1f77b4; stroke: #1f77b4"/>
     <use xlink:href="#m82ac776e6b" x="208.740564" y="153.020031" style="fill: #1f77b4; stroke: #1f77b4"/>
     <use xlink:href="#m82ac776e6b" x="210.371994" y="154.101053" style="fill: #1f77b4; stroke: #1f77b4"/>
     <use xlink:href="#m82ac776e6b" x="212.003424" y="155.038204" style="fill: #1f77b4; stroke: #1f77b4"/>
     <use xlink:href="#m82ac776e6b" x="213.634854" y="155.932405" style="fill: #1f77b4; stroke: #1f77b4"/>
     <use xlink:href="#m82ac776e6b" x="215.266284" y="156.818104" style="fill: #1f77b4; stroke: #1f77b4"/>
     <use xlink:href="#m82ac776e6b" x="216.897713" y="157.221818" style="fill: #1f77b4; stroke: #1f77b4"/>
     <use xlink:href="#m82ac776e6b" x="218.529143" y="157.019631" style="fill: #1f77b4; stroke: #1f77b4"/>
     <use xlink:href="#m82ac776e6b" x="220.160573" y="155.809532" style="fill: #1f77b4; stroke: #1f77b4"/>
     <use xlink:href="#m82ac776e6b" x="221.792003" y="152.247228" style="fill: #1f77b4; stroke: #1f77b4"/>
     <use xlink:href="#m82ac776e6b" x="223.423433" y="143.334488" style="fill: #1f77b4; stroke: #1f77b4"/>
     <use xlink:href="#m82ac776e6b" x="225.054863" y="126.710995" style="fill: #1f77b4; stroke: #1f77b4"/>
     <use xlink:href="#m82ac776e6b" x="226.686293" y="105.088702" style="fill: #1f77b4; stroke: #1f77b4"/>
     <use xlink:href="#m82ac776e6b" x="228.317723" y="86.589898" style="fill: #1f77b4; stroke: #1f77b4"/>
     <use xlink:href="#m82ac776e6b" x="229.949152" y="79.280065" style="fill: #1f77b4; stroke: #1f77b4"/>
     <use xlink:href="#m82ac776e6b" x="231.580582" y="83.780795" style="fill: #1f77b4; stroke: #1f77b4"/>
     <use xlink:href="#m82ac776e6b" x="233.212012" y="94.613736" style="fill: #1f77b4; stroke: #1f77b4"/>
     <use xlink:href="#m82ac776e6b" x="234.843442" y="105.117422" style="fill: #1f77b4; stroke: #1f77b4"/>
     <use xlink:href="#m82ac776e6b" x="236.474872" y="113.207312" style="fill: #1f77b4; stroke: #1f77b4"/>
     <use xlink:href="#m82ac776e6b" x="238.106302" y="119.214774" style="fill: #1f77b4; stroke: #1f77b4"/>
     <use xlink:href="#m82ac776e6b" x="239.737732" y="123.930044" style="fill: #1f77b4; stroke: #1f77b4"/>
     <use xlink:href="#m82ac776e6b" x="241.369162" y="127.557824" style="fill: #1f77b4; stroke: #1f77b4"/>
     <use xlink:href="#m82ac776e6b" x="243.000591" y="130.34023" style="fill: #1f77b4; stroke: #1f77b4"/>
     <use xlink:href="#m82ac776e6b" x="244.632021" y="132.594148" style="fill: #1f77b4; stroke: #1f77b4"/>
     <use xlink:href="#m82ac776e6b" x="246.263451" y="134.448718" style="fill: #1f77b4; stroke: #1f77b4"/>
     <use xlink:href="#m82ac776e6b" x="247.894881" y="135.919893" style="fill: #1f77b4; stroke: #1f77b4"/>
     <use xlink:href="#m82ac776e6b" x="249.526311" y="137.175556" style="fill: #1f77b4; stroke: #1f77b4"/>
     <use xlink:href="#m82ac776e6b" x="251.157741" y="138.23523" style="fill: #1f77b4; stroke: #1f77b4"/>
     <use xlink:href="#m82ac776e6b" x="252.789171" y="139.051143" style="fill: #1f77b4; stroke: #1f77b4"/>
     <use xlink:href="#m82ac776e6b" x="254.420601" y="139.728127" style="fill: #1f77b4; stroke: #1f77b4"/>
     <use xlink:href="#m82ac776e6b" x="256.05203" y="140.269227" style="fill: #1f77b4; stroke: #1f77b4"/>
     <use xlink:href="#m82ac776e6b" x="257.68346" y="140.718241" style="fill: #1f77b4; stroke: #1f77b4"/>
     <use xlink:href="#m82ac776e6b" x="259.31489" y="141.065485" style="fill: #1f77b4; stroke: #1f77b4"/>
     <use xlink:href="#m82ac776e6b" x="260.94632" y="141.285528" style="fill: #1f77b4; stroke: #1f77b4"/>
     <use xlink:href="#m82ac776e6b" x="262.57775" y="141.495026" style="fill: #1f77b4; stroke: #1f77b4"/>
     <use xlink:href="#m82ac776e6b" x="264.20918" y="141.583656" style="fill: #1f77b4; stroke: #1f77b4"/>
     <use xlink:href="#m82ac776e6b" x="265.84061" y="141.612637" style="fill: #1f77b4; stroke: #1f77b4"/>
     <use xlink:href="#m82ac776e6b" x="267.47204" y="141.592888" style="fill: #1f77b4; stroke: #1f77b4"/>
     <use xlink:href="#m82ac776e6b" x="269.103469" y="141.52383" style="fill: #1f77b4; stroke: #1f77b4"/>
     <use xlink:href="#m82ac776e6b" x="270.734899" y="141.332941" style="fill: #1f77b4; stroke: #1f77b4"/>
     <use xlink:href="#m82ac776e6b" x="272.366329" y="141.191941" style="fill: #1f77b4; stroke: #1f77b4"/>
     <use xlink:href="#m82ac776e6b" x="273.997759" y="140.960805" style="fill: #1f77b4; stroke: #1f77b4"/>
     <use xlink:href="#m82ac776e6b" x="275.629189" y="140.638862" style="fill: #1f77b4; stroke: #1f77b4"/>
     <use xlink:href="#m82ac776e6b" x="277.260619" y="140.292024" style="fill: #1f77b4; stroke: #1f77b4"/>
     <use xlink:href="#m82ac776e6b" x="278.892049" y="139.92028" style="fill: #1f77b4; stroke: #1f77b4"/>
     <use xlink:href="#m82ac776e6b" x="280.523479" y="139.511747" style="fill: #1f77b4; stroke: #1f77b4"/>
     <use xlink:href="#m82ac776e6b" x="282.154908" y="139.051971" style="fill: #1f77b4; stroke: #1f77b4"/>
     <use xlink:href="#m82ac776e6b" x="283.786338" y="138.579197" style="fill: #1f77b4; stroke: #1f77b4"/>
     <use xlink:href="#m82ac776e6b" x="285.417768" y="138.06027" style="fill: #1f77b4; stroke: #1f77b4"/>
     <use xlink:href="#m82ac776e6b" x="287.049198" y="137.476958" style="fill: #1f77b4; stroke: #1f77b4"/>
     <use xlink:href="#m82ac776e6b" x="288.680628" y="136.892971" style="fill: #1f77b4; stroke: #1f77b4"/>
     <use xlink:href="#m82ac776e6b" x="290.312058" y="136.259993" style="fill: #1f77b4; stroke: #1f77b4"/>
     <use xlink:href="#m82ac776e6b" x="291.943488" y="135.5664" style="fill: #1f77b4; stroke: #1f77b4"/>
     <use xlink:href="#m82ac776e6b" x="293.574918" y="134.848666" style="fill: #1f77b4; stroke: #1f77b4"/>
     <use xlink:href="#m82ac776e6b" x="295.206348" y="134.153641" style="fill: #1f77b4; stroke: #1f77b4"/>
     <use xlink:href="#m82ac776e6b" x="296.837777" y="133.436781" style="fill: #1f77b4; stroke: #1f77b4"/>
     <use xlink:href="#m82ac776e6b" x="298.469207" y="132.607577" style="fill: #1f77b4; stroke: #1f77b4"/>
     <use xlink:href="#m82ac776e6b" x="300.100637" y="131.808933" style="fill: #1f77b4; stroke: #1f77b4"/>
     <use xlink:href="#m82ac776e6b" x="301.732067" y="130.959764" style="fill: #1f77b4; stroke: #1f77b4"/>
     <use xlink:href="#m82ac776e6b" x="303.363497" y="130.120353" style="fill: #1f77b4; stroke: #1f77b4"/>
     <use xlink:href="#m82ac776e6b" x="304.994927" y="129.223795" style="fill: #1f77b4; stroke: #1f77b4"/>
     <use xlink:href="#m82ac776e6b" x="306.626357" y="128.325456" style="fill: #1f77b4; stroke: #1f77b4"/>
     <use xlink:href="#m82ac776e6b" x="308.257787" y="127.364442" style="fill: #1f77b4; stroke: #1f77b4"/>
     <use xlink:href="#m82ac776e6b" x="309.889216" y="126.426947" style="fill: #1f77b4; stroke: #1f77b4"/>
     <use xlink:href="#m82ac776e6b" x="311.520646" y="125.378014" style="fill: #1f77b4; stroke: #1f77b4"/>
     <use xlink:href="#m82ac776e6b" x="313.152076" y="124.332483" style="fill: #1f77b4; stroke: #1f77b4"/>
     <use xlink:href="#m82ac776e6b" x="314.783506" y="123.291715" style="fill: #1f77b4; stroke: #1f77b4"/>
     <use xlink:href="#m82ac776e6b" x="316.414936" y="122.255276" style="fill: #1f77b4; stroke: #1f77b4"/>
     <use xlink:href="#m82ac776e6b" x="318.046366" y="121.157609" style="fill: #1f77b4; stroke: #1f77b4"/>
     <use xlink:href="#m82ac776e6b" x="319.677796" y="120.04853" style="fill: #1f77b4; stroke: #1f77b4"/>
     <use xlink:href="#m82ac776e6b" x="321.309226" y="118.92272" style="fill: #1f77b4; stroke: #1f77b4"/>
     <use xlink:href="#m82ac776e6b" x="322.940655" y="117.722267" style="fill: #1f77b4; stroke: #1f77b4"/>
     <use xlink:href="#m82ac776e6b" x="324.572085" y="116.546481" style="fill: #1f77b4; stroke: #1f77b4"/>
     <use xlink:href="#m82ac776e6b" x="326.203515" y="115.368874" style="fill: #1f77b4; stroke: #1f77b4"/>
     <use xlink:href="#m82ac776e6b" x="327.834945" y="114.142615" style="fill: #1f77b4; stroke: #1f77b4"/>
     <use xlink:href="#m82ac776e6b" x="329.466375" y="112.903052" style="fill: #1f77b4; stroke: #1f77b4"/>
     <use xlink:href="#m82ac776e6b" x="331.097805" y="111.672507" style="fill: #1f77b4; stroke: #1f77b4"/>
     <use xlink:href="#m82ac776e6b" x="332.729235" y="110.43431" style="fill: #1f77b4; stroke: #1f77b4"/>
     <use xlink:href="#m82ac776e6b" x="334.360665" y="109.161903" style="fill: #1f77b4; stroke: #1f77b4"/>
     <use xlink:href="#m82ac776e6b" x="335.992094" y="107.892616" style="fill: #1f77b4; stroke: #1f77b4"/>
     <use xlink:href="#m82ac776e6b" x="337.623524" y="106.620202" style="fill: #1f77b4; stroke: #1f77b4"/>
     <use xlink:href="#m82ac776e6b" x="339.254954" y="105.297369" style="fill: #1f77b4; stroke: #1f77b4"/>
     <use xlink:href="#m82ac776e6b" x="340.886384" y="103.981647" style="fill: #1f77b4; stroke: #1f77b4"/>
     <use xlink:href="#m82ac776e6b" x="342.517814" y="102.610607" style="fill: #1f77b4; stroke: #1f77b4"/>
     <use xlink:href="#m82ac776e6b" x="344.149244" y="101.373733" style="fill: #1f77b4; stroke: #1f77b4"/>
     <use xlink:href="#m82ac776e6b" x="345.780674" y="100.016364" style="fill: #1f77b4; stroke: #1f77b4"/>
     <use xlink:href="#m82ac776e6b" x="347.412104" y="98.686205" style="fill: #1f77b4; stroke: #1f77b4"/>
     <use xlink:href="#m82ac776e6b" x="349.043533" y="97.341889" style="fill: #1f77b4; stroke: #1f77b4"/>
     <use xlink:href="#m82ac776e6b" x="350.674963" y="95.9504" style="fill: #1f77b4; stroke: #1f77b4"/>
     <use xlink:href="#m82ac776e6b" x="352.306393" y="94.558337" style="fill: #1f77b4; stroke: #1f77b4"/>
     <use xlink:href="#m82ac776e6b" x="353.937823" y="93.190049" style="fill: #1f77b4; stroke: #1f77b4"/>
     <use xlink:href="#m82ac776e6b" x="355.569253" y="91.809318" style="fill: #1f77b4; stroke: #1f77b4"/>
     <use xlink:href="#m82ac776e6b" x="357.200683" y="90.457937" style="fill: #1f77b4; stroke: #1f77b4"/>
     <use xlink:href="#m82ac776e6b" x="358.832113" y="89.082745" style="fill: #1f77b4; stroke: #1f77b4"/>
     <use xlink:href="#m82ac776e6b" x="360.463543" y="87.666425" style="fill: #1f77b4; stroke: #1f77b4"/>
     <use xlink:href="#m82ac776e6b" x="362.094972" y="86.318426" style="fill: #1f77b4; stroke: #1f77b4"/>
     <use xlink:href="#m82ac776e6b" x="363.726402" y="84.928029" style="fill: #1f77b4; stroke: #1f77b4"/>
     <use xlink:href="#m82ac776e6b" x="365.357832" y="83.57139" style="fill: #1f77b4; stroke: #1f77b4"/>
     <use xlink:href="#m82ac776e6b" x="366.989262" y="82.195584" style="fill: #1f77b4; stroke: #1f77b4"/>
     <use xlink:href="#m82ac776e6b" x="368.620692" y="80.802236" style="fill: #1f77b4; stroke: #1f77b4"/>
     <use xlink:href="#m82ac776e6b" x="370.252122" y="79.419293" style="fill: #1f77b4; stroke: #1f77b4"/>
     <use xlink:href="#m82ac776e6b" x="371.883552" y="78.001104" style="fill: #1f77b4; stroke: #1f77b4"/>
     <use xlink:href="#m82ac776e6b" x="373.514982" y="76.662515" style="fill: #1f77b4; stroke: #1f77b4"/>
     <use xlink:href="#m82ac776e6b" x="375.146411" y="75.300194" style="fill: #1f77b4; stroke: #1f77b4"/>
     <use xlink:href="#m82ac776e6b" x="376.777841" y="73.948185" style="fill: #1f77b4; stroke: #1f77b4"/>
     <use xlink:href="#m82ac776e6b" x="378.409271" y="72.624867" style="fill: #1f77b4; stroke: #1f77b4"/>
     <use xlink:href="#m82ac776e6b" x="380.040701" y="71.245611" style="fill: #1f77b4; stroke: #1f77b4"/>
     <use xlink:href="#m82ac776e6b" x="381.672131" y="69.929893" style="fill: #1f77b4; stroke: #1f77b4"/>
     <use xlink:href="#m82ac776e6b" x="383.303561" y="68.553793" style="fill: #1f77b4; stroke: #1f77b4"/>
     <use xlink:href="#m82ac776e6b" x="384.934991" y="67.220159" style="fill: #1f77b4; stroke: #1f77b4"/>
     <use xlink:href="#m82ac776e6b" x="386.566421" y="65.880164" style="fill: #1f77b4; stroke: #1f77b4"/>
     <use xlink:href="#m82ac776e6b" x="388.19785" y="64.476078" style="fill: #1f77b4; stroke: #1f77b4"/>
     <use xlink:href="#m82ac776e6b" x="389.82928" y="63.172488" style="fill: #1f77b4; stroke: #1f77b4"/>
     <use xlink:href="#m82ac776e6b" x="391.46071" y="61.766804" style="fill: #1f77b4; stroke: #1f77b4"/>
    </g>
   </g>
   <g id="line2d_13">
    <path d="M 66.806165 47.258182 
L 81.105264 59.720969 
L 111.653339 86.433604 
L 122.702643 95.747551 
L 132.127049 103.408563 
L 140.576517 110.000101 
L 148.376026 115.814993 
L 155.850555 121.117769 
L 163.000104 125.923835 
L 170.149654 130.456866 
L 176.974224 134.523929 
L 183.798794 138.340465 
L 190.948343 142.086065 
L 198.747852 145.915127 
L 206.547361 149.506506 
L 211.097074 151.403682 
L 213.69691 152.281384 
L 215.321808 152.646277 
L 216.621726 152.748851 
L 217.596664 152.649591 
L 218.571603 152.323389 
L 219.221562 151.929683 
L 219.871521 151.3457 
L 220.52148 150.513867 
L 221.171439 149.358171 
L 221.821398 147.778692 
L 222.471357 145.645516 
L 223.121316 142.793431 
L 223.771275 139.020945 
L 224.421234 134.10114 
L 225.071193 127.818019 
L 226.046132 115.624163 
L 228.645968 79.374028 
L 229.295927 75.332255 
L 229.620907 74.561841 
L 229.945886 74.566468 
L 230.270866 75.254384 
L 230.595845 76.512925 
L 231.245804 80.267233 
L 232.870702 92.415667 
L 234.17062 101.497178 
L 235.470538 108.911642 
L 236.770456 114.748831 
L 238.070374 119.321435 
L 239.370293 122.928743 
L 240.670211 125.806245 
L 241.970129 128.128569 
L 243.270047 130.023178 
L 244.569965 131.583249 
L 246.194863 133.165856 
L 247.81976 134.429201 
L 249.444658 135.442179 
L 251.394535 136.396369 
L 253.669392 137.225094 
L 255.944248 137.81146 
L 258.544085 138.244768 
L 261.4689 138.48784 
L 264.718695 138.50987 
L 267.968491 138.314085 
L 271.543266 137.884279 
L 275.44302 137.192394 
L 279.667754 136.210757 
L 284.217467 134.911561 
L 288.76718 133.384033 
L 293.641873 131.514383 
L 298.841546 129.273891 
L 304.041218 126.796869 
L 309.56587 123.923412 
L 315.415501 120.628169 
L 321.590112 116.888355 
L 328.089703 112.684686 
L 334.914273 108.00243 
L 342.388802 102.591658 
L 350.188311 96.669828 
L 358.962758 89.723751 
L 369.037123 81.455141 
L 381.711324 70.748206 
L 391.46071 62.392735 
L 391.46071 62.392735 
" clip-path="url(#pa324e368eb)" style="fill: none; stroke: #d62728; stroke-width: 1.5; stroke-linecap: square"/>
   </g>
   <g id="patch_3">
    <path d="M 50.573438 162.72 
L 50.573438 41.76 
" style="fill: none; stroke: #000000; stroke-width: 0.8; stroke-linejoin: miter; stroke-linecap: square"/>
   </g>
   <g id="patch_4">
    <path d="M 407.693438 162.72 
L 407.693438 41.76 
" style="fill: none; stroke: #000000; stroke-width: 0.8; stroke-linejoin: miter; stroke-linecap: square"/>
   </g>
   <g id="patch_5">
    <path d="M 50.573438 162.72 
L 407.693438 162.72 
" style="fill: none; stroke: #000000; stroke-width: 0.8; stroke-linejoin: miter; stroke-linecap: square"/>
   </g>
   <g id="patch_6">
    <path d="M 50.573438 41.76 
L 407.693438 41.76 
" style="fill: none; stroke: #000000; stroke-width: 0.8; stroke-linejoin: miter; stroke-linecap: square"/>
   </g>
   <g id="text_6">
    <g id="patch_7">
     <path d="M 425.549438 95.079562 
L 564.149437 95.079562 
Q 568.149437 95.079562 568.149437 91.079562 
L 568.149437 47.808 
Q 568.149437 43.808 564.149437 43.808 
L 425.549438 43.808 
Q 421.549438 43.808 421.549438 47.808 
L 421.549438 91.079562 
Q 421.549438 95.079562 425.549438 95.079562 
z
" style="fill: #ffffff; opacity: 0.5; stroke: #000000; stroke-linejoin: miter"/>
    </g>
    <!-- Summary -->
    <g transform="translate(425.549438 55.406437) scale(0.1 -0.1)">
     <defs>
      <path id="DejaVuSans-53" d="M 3425 4513 
L 3425 3897 
Q 3066 4069 2747 4153 
Q 2428 4238 2131 4238 
Q 1616 4238 1336 4038 
Q 1056 3838 1056 3469 
Q 1056 3159 1242 3001 
Q 1428 2844 1947 2747 
L 2328 2669 
Q 3034 2534 3370 2195 
Q 3706 1856 3706 1288 
Q 3706 609 3251 259 
Q 2797 -91 1919 -91 
Q 1588 -91 1214 -16 
Q 841 59 441 206 
L 441 856 
Q 825 641 1194 531 
Q 1563 422 1919 422 
Q 2459 422 2753 634 
Q 3047 847 3047 1241 
Q 3047 1584 2836 1778 
Q 2625 1972 2144 2069 
L 1759 2144 
Q 1053 2284 737 2584 
Q 422 2884 422 3419 
Q 422 4038 858 4394 
Q 1294 4750 2059 4750 
Q 2388 4750 2728 4690 
Q 3069 4631 3425 4513 
z
" transform="scale(0.015625)"/>
      <path id="DejaVuSans-75" d="M 544 1381 
L 544 3500 
L 1119 3500 
L 1119 1403 
Q 1119 906 1312 657 
Q 1506 409 1894 409 
Q 2359 409 2629 706 
Q 2900 1003 2900 1516 
L 2900 3500 
L 3475 3500 
L 3475 0 
L 2900 0 
L 2900 538 
Q 2691 219 2414 64 
Q 2138 -91 1772 -91 
Q 1169 -91 856 284 
Q 544 659 544 1381 
z
M 1991 3584 
L 1991 3584 
z
" transform="scale(0.015625)"/>
      <path id="DejaVuSans-61" d="M 2194 1759 
Q 1497 1759 1228 1600 
Q 959 1441 959 1056 
Q 959 750 1161 570 
Q 1363 391 1709 391 
Q 2188 391 2477 730 
Q 2766 1069 2766 1631 
L 2766 1759 
L 2194 1759 
z
M 3341 1997 
L 3341 0 
L 2766 0 
L 2766 531 
Q 2569 213 2275 61 
Q 1981 -91 1556 -91 
Q 1019 -91 701 211 
Q 384 513 384 1019 
Q 384 1609 779 1909 
Q 1175 2209 1959 2209 
L 2766 2209 
L 2766 2266 
Q 2766 2663 2505 2880 
Q 2244 3097 1772 3097 
Q 1472 3097 1187 3025 
Q 903 2953 641 2809 
L 641 3341 
Q 956 3463 1253 3523 
Q 1550 3584 1831 3584 
Q 2591 3584 2966 3190 
Q 3341 2797 3341 1997 
z
" transform="scale(0.015625)"/>
      <path id="DejaVuSans-72" d="M 2631 2963 
Q 2534 3019 2420 3045 
Q 2306 3072 2169 3072 
Q 1681 3072 1420 2755 
Q 1159 2438 1159 1844 
L 1159 0 
L 581 0 
L 581 3500 
L 1159 3500 
L 1159 2956 
Q 1341 3275 1631 3429 
Q 1922 3584 2338 3584 
Q 2397 3584 2469 3576 
Q 2541 3569 2628 3553 
L 2631 2963 
z
" transform="scale(0.015625)"/>
      <path id="DejaVuSans-79" d="M 2059 -325 
Q 1816 -950 1584 -1140 
Q 1353 -1331 966 -1331 
L 506 -1331 
L 506 -850 
L 844 -850 
Q 1081 -850 1212 -737 
Q 1344 -625 1503 -206 
L 1606 56 
L 191 3500 
L 800 3500 
L 1894 763 
L 2988 3500 
L 3597 3500 
L 2059 -325 
z
" transform="scale(0.015625)"/>
     </defs>
     <use xlink:href="#DejaVuSans-53"/>
     <use xlink:href="#DejaVuSans-75" x="63.476562"/>
     <use xlink:href="#DejaVuSans-6d" x="126.855469"/>
     <use xlink:href="#DejaVuSans-6d" x="224.267578"/>
     <use xlink:href="#DejaVuSans-61" x="321.679688"/>
     <use xlink:href="#DejaVuSans-72" x="382.958984"/>
     <use xlink:href="#DejaVuSans-79" x="424.072266"/>
    </g>
    <!-- $Q_I$: 36.6$\pm$3.9 k -->
    <g transform="translate(425.549438 66.60425) scale(0.1 -0.1)">
     <defs>
      <path id="DejaVuSans-Oblique-51" d="M 2309 -84 
Q 2275 -88 2237 -89 
Q 2200 -91 2125 -91 
Q 1250 -91 756 411 
Q 263 913 263 1797 
Q 263 2319 452 2844 
Q 641 3369 978 3788 
Q 1369 4269 1858 4509 
Q 2347 4750 2938 4750 
Q 3794 4750 4287 4245 
Q 4781 3741 4781 2869 
Q 4781 1928 4265 1147 
Q 3750 366 2919 44 
L 3553 -825 
L 2847 -825 
L 2309 -84 
z
M 2919 4238 
Q 2400 4238 2003 3986 
Q 1606 3734 1313 3219 
Q 1125 2891 1026 2522 
Q 928 2153 928 1778 
Q 928 1128 1239 775 
Q 1550 422 2119 422 
Q 2631 422 3032 676 
Q 3434 931 3719 1434 
Q 3909 1772 4009 2142 
Q 4109 2513 4109 2881 
Q 4109 3528 3796 3883 
Q 3484 4238 2919 4238 
z
" transform="scale(0.015625)"/>
      <path id="DejaVuSans-Oblique-49" d="M 1081 4666 
L 1716 4666 
L 806 0 
L 172 0 
L 1081 4666 
z
" transform="scale(0.015625)"/>
      <path id="DejaVuSans-3a" d="M 750 794 
L 1409 794 
L 1409 0 
L 750 0 
L 750 794 
z
M 750 3309 
L 1409 3309 
L 1409 2516 
L 750 2516 
L 750 3309 
z
" transform="scale(0.015625)"/>
      <path id="DejaVuSans-36" d="M 2113 2584 
Q 1688 2584 1439 2293 
Q 1191 2003 1191 1497 
Q 1191 994 1439 701 
Q 1688 409 2113 409 
Q 2538 409 2786 701 
Q 3034 994 3034 1497 
Q 3034 2003 2786 2293 
Q 2538 2584 2113 2584 
z
M 3366 4563 
L 3366 3988 
Q 3128 4100 2886 4159 
Q 2644 4219 2406 4219 
Q 1781 4219 1451 3797 
Q 1122 3375 1075 2522 
Q 1259 2794 1537 2939 
Q 1816 3084 2150 3084 
Q 2853 3084 3261 2657 
Q 3669 2231 3669 1497 
Q 3669 778 3244 343 
Q 2819 -91 2113 -91 
Q 1303 -91 875 529 
Q 447 1150 447 2328 
Q 447 3434 972 4092 
Q 1497 4750 2381 4750 
Q 2619 4750 2861 4703 
Q 3103 4656 3366 4563 
z
" transform="scale(0.015625)"/>
      <path id="DejaVuSans-2e" d="M 684 794 
L 1344 794 
L 1344 0 
L 684 0 
L 684 794 
z
" transform="scale(0.015625)"/>
      <path id="DejaVuSans-b1" d="M 2944 4013 
L 2944 2803 
L 4684 2803 
L 4684 2272 
L 2944 2272 
L 2944 1063 
L 2419 1063 
L 2419 2272 
L 678 2272 
L 678 2803 
L 2419 2803 
L 2419 4013 
L 2944 4013 
z
M 678 531 
L 4684 531 
L 4684 0 
L 678 0 
L 678 531 
z
" transform="scale(0.015625)"/>
      <path id="DejaVuSans-39" d="M 703 97 
L 703 672 
Q 941 559 1184 500 
Q 1428 441 1663 441 
Q 2288 441 2617 861 
Q 2947 1281 2994 2138 
Q 2813 1869 2534 1725 
Q 2256 1581 1919 1581 
Q 1219 1581 811 2004 
Q 403 2428 403 3163 
Q 403 3881 828 4315 
Q 1253 4750 1959 4750 
Q 2769 4750 3195 4129 
Q 3622 3509 3622 2328 
Q 3622 1225 3098 567 
Q 2575 -91 1691 -91 
Q 1453 -91 1209 -44 
Q 966 3 703 97 
z
M 1959 2075 
Q 2384 2075 2632 2365 
Q 2881 2656 2881 3163 
Q 2881 3666 2632 3958 
Q 2384 4250 1959 4250 
Q 1534 4250 1286 3958 
Q 1038 3666 1038 3163 
Q 1038 2656 1286 2365 
Q 1534 2075 1959 2075 
z
" transform="scale(0.015625)"/>
      <path id="DejaVuSans-6b" d="M 581 4863 
L 1159 4863 
L 1159 1991 
L 2875 3500 
L 3609 3500 
L 1753 1863 
L 3688 0 
L 2938 0 
L 1159 1709 
L 1159 0 
L 581 0 
L 581 4863 
z
" transform="scale(0.015625)"/>
     </defs>
     <use xlink:href="#DejaVuSans-Oblique-51" transform="translate(0 0.015625)"/>
     <use xlink:href="#DejaVuSans-Oblique-49" transform="translate(78.710938 -16.390625) scale(0.7)"/>
     <use xlink:href="#DejaVuSans-3a" transform="translate(102.089844 0.015625)"/>
     <use xlink:href="#DejaVuSans-20" transform="translate(135.78125 0.015625)"/>
     <use xlink:href="#DejaVuSans-33" transform="translate(167.568359 0.015625)"/>
     <use xlink:href="#DejaVuSans-36" transform="translate(231.191406 0.015625)"/>
     <use xlink:href="#DejaVuSans-2e" transform="translate(294.814453 0.015625)"/>
     <use xlink:href="#DejaVuSans-36" transform="translate(326.601562 0.015625)"/>
     <use xlink:href="#DejaVuSans-b1" transform="translate(390.224609 0.015625)"/>
     <use xlink:href="#DejaVuSans-33" transform="translate(474.013672 0.015625)"/>
     <use xlink:href="#DejaVuSans-2e" transform="translate(537.636719 0.015625)"/>
     <use xlink:href="#DejaVuSans-39" transform="translate(569.423828 0.015625)"/>
     <use xlink:href="#DejaVuSans-20" transform="translate(633.046875 0.015625)"/>
     <use xlink:href="#DejaVuSans-6b" transform="translate(664.833984 0.015625)"/>
    </g>
    <!-- $Q_C$: 8.79$\pm$0.20 k -->
    <g transform="translate(425.549438 77.802062) scale(0.1 -0.1)">
     <defs>
      <path id="DejaVuSans-Oblique-43" d="M 4447 4306 
L 4319 3641 
Q 4019 3944 3683 4091 
Q 3347 4238 2956 4238 
Q 2422 4238 2017 3981 
Q 1613 3725 1319 3200 
Q 1131 2863 1032 2486 
Q 934 2109 934 1728 
Q 934 1091 1264 756 
Q 1594 422 2222 422 
Q 2656 422 3056 561 
Q 3456 700 3834 978 
L 3688 231 
Q 3316 72 2936 -9 
Q 2556 -91 2175 -91 
Q 1278 -91 773 396 
Q 269 884 269 1753 
Q 269 2309 461 2846 
Q 653 3384 1013 3828 
Q 1394 4300 1883 4525 
Q 2372 4750 3022 4750 
Q 3422 4750 3780 4639 
Q 4138 4528 4447 4306 
z
" transform="scale(0.015625)"/>
      <path id="DejaVuSans-38" d="M 2034 2216 
Q 1584 2216 1326 1975 
Q 1069 1734 1069 1313 
Q 1069 891 1326 650 
Q 1584 409 2034 409 
Q 2484 409 2743 651 
Q 3003 894 3003 1313 
Q 3003 1734 2745 1975 
Q 2488 2216 2034 2216 
z
M 1403 2484 
Q 997 2584 770 2862 
Q 544 3141 544 3541 
Q 544 4100 942 4425 
Q 1341 4750 2034 4750 
Q 2731 4750 3128 4425 
Q 3525 4100 3525 3541 
Q 3525 3141 3298 2862 
Q 3072 2584 2669 2484 
Q 3125 2378 3379 2068 
Q 3634 1759 3634 1313 
Q 3634 634 3220 271 
Q 2806 -91 2034 -91 
Q 1263 -91 848 271 
Q 434 634 434 1313 
Q 434 1759 690 2068 
Q 947 2378 1403 2484 
z
M 1172 3481 
Q 1172 3119 1398 2916 
Q 1625 2713 2034 2713 
Q 2441 2713 2670 2916 
Q 2900 3119 2900 3481 
Q 2900 3844 2670 4047 
Q 2441 4250 2034 4250 
Q 1625 4250 1398 4047 
Q 1172 3844 1172 3481 
z
" transform="scale(0.015625)"/>
      <path id="DejaVuSans-37" d="M 525 4666 
L 3525 4666 
L 3525 4397 
L 1831 0 
L 1172 0 
L 2766 4134 
L 525 4134 
L 525 4666 
z
" transform="scale(0.015625)"/>
     </defs>
     <use xlink:href="#DejaVuSans-Oblique-51" transform="translate(0 0.015625)"/>
     <use xlink:href="#DejaVuSans-Oblique-43" transform="translate(78.710938 -16.390625) scale(0.7)"/>
     <use xlink:href="#DejaVuSans-3a" transform="translate(130.322266 0.015625)"/>
     <use xlink:href="#DejaVuSans-20" transform="translate(164.013672 0.015625)"/>
     <use xlink:href="#DejaVuSans-38" transform="translate(195.800781 0.015625)"/>
     <use xlink:href="#DejaVuSans-2e" transform="translate(259.423828 0.015625)"/>
     <use xlink:href="#DejaVuSans-37" transform="translate(283.460938 0.015625)"/>
     <use xlink:href="#DejaVuSans-39" transform="translate(347.083984 0.015625)"/>
     <use xlink:href="#DejaVuSans-b1" transform="translate(410.707031 0.015625)"/>
     <use xlink:href="#DejaVuSans-30" transform="translate(494.496094 0.015625)"/>
     <use xlink:href="#DejaVuSans-2e" transform="translate(558.119141 0.015625)"/>
     <use xlink:href="#DejaVuSans-32" transform="translate(584.40625 0.015625)"/>
     <use xlink:href="#DejaVuSans-30" transform="translate(648.029297 0.015625)"/>
     <use xlink:href="#DejaVuSans-20" transform="translate(711.652344 0.015625)"/>
     <use xlink:href="#DejaVuSans-6b" transform="translate(743.439453 0.015625)"/>
    </g>
    <!-- $f_{res}$: 5.720933$\pm$1.1e-05 GHz -->
    <g transform="translate(425.549438 88.999875) scale(0.1 -0.1)">
     <defs>
      <path id="DejaVuSans-Oblique-66" d="M 3059 4863 
L 2969 4384 
L 2419 4384 
Q 2106 4384 1964 4261 
Q 1822 4138 1753 3809 
L 1691 3500 
L 2638 3500 
L 2553 3053 
L 1606 3053 
L 1013 0 
L 434 0 
L 1031 3053 
L 481 3053 
L 563 3500 
L 1113 3500 
L 1159 3744 
Q 1278 4363 1576 4613 
Q 1875 4863 2516 4863 
L 3059 4863 
z
" transform="scale(0.015625)"/>
      <path id="DejaVuSans-Oblique-72" d="M 2853 2969 
Q 2766 3016 2653 3041 
Q 2541 3066 2413 3066 
Q 1953 3066 1609 2717 
Q 1266 2369 1153 1784 
L 800 0 
L 225 0 
L 909 3500 
L 1484 3500 
L 1375 2956 
Q 1603 3259 1920 3421 
Q 2238 3584 2597 3584 
Q 2691 3584 2781 3573 
Q 2872 3563 2963 3538 
L 2853 2969 
z
" transform="scale(0.015625)"/>
      <path id="DejaVuSans-Oblique-65" d="M 3078 2063 
Q 3088 2113 3092 2166 
Q 3097 2219 3097 2272 
Q 3097 2653 2873 2875 
Q 2650 3097 2266 3097 
Q 1838 3097 1509 2826 
Q 1181 2556 1013 2059 
L 3078 2063 
z
M 3578 1613 
L 903 1613 
Q 884 1494 878 1425 
Q 872 1356 872 1306 
Q 872 872 1139 634 
Q 1406 397 1894 397 
Q 2269 397 2603 481 
Q 2938 566 3225 728 
L 3116 159 
Q 2806 34 2476 -28 
Q 2147 -91 1806 -91 
Q 1078 -91 686 257 
Q 294 606 294 1247 
Q 294 1794 489 2264 
Q 684 2734 1063 3103 
Q 1306 3334 1642 3459 
Q 1978 3584 2356 3584 
Q 2950 3584 3301 3228 
Q 3653 2872 3653 2272 
Q 3653 2128 3634 1964 
Q 3616 1800 3578 1613 
z
" transform="scale(0.015625)"/>
      <path id="DejaVuSans-Oblique-73" d="M 3200 3397 
L 3091 2853 
Q 2863 2978 2609 3040 
Q 2356 3103 2088 3103 
Q 1634 3103 1373 2948 
Q 1113 2794 1113 2528 
Q 1113 2219 1719 2053 
Q 1766 2041 1788 2034 
L 1972 1978 
Q 2547 1819 2739 1644 
Q 2931 1469 2931 1166 
Q 2931 609 2489 259 
Q 2047 -91 1331 -91 
Q 1053 -91 747 -37 
Q 441 16 72 128 
L 184 722 
Q 500 559 806 475 
Q 1113 391 1394 391 
Q 1816 391 2080 572 
Q 2344 753 2344 1031 
Q 2344 1331 1650 1516 
L 1591 1531 
L 1394 1581 
Q 956 1697 753 1886 
Q 550 2075 550 2369 
Q 550 2928 970 3256 
Q 1391 3584 2113 3584 
Q 2397 3584 2667 3537 
Q 2938 3491 3200 3397 
z
" transform="scale(0.015625)"/>
      <path id="DejaVuSans-35" d="M 691 4666 
L 3169 4666 
L 3169 4134 
L 1269 4134 
L 1269 2991 
Q 1406 3038 1543 3061 
Q 1681 3084 1819 3084 
Q 2600 3084 3056 2656 
Q 3513 2228 3513 1497 
Q 3513 744 3044 326 
Q 2575 -91 1722 -91 
Q 1428 -91 1123 -41 
Q 819 9 494 109 
L 494 744 
Q 775 591 1075 516 
Q 1375 441 1709 441 
Q 2250 441 2565 725 
Q 2881 1009 2881 1497 
Q 2881 1984 2565 2268 
Q 2250 2553 1709 2553 
Q 1456 2553 1204 2497 
Q 953 2441 691 2322 
L 691 4666 
z
" transform="scale(0.015625)"/>
      <path id="DejaVuSans-47" d="M 3809 666 
L 3809 1919 
L 2778 1919 
L 2778 2438 
L 4434 2438 
L 4434 434 
Q 4069 175 3628 42 
Q 3188 -91 2688 -91 
Q 1594 -91 976 548 
Q 359 1188 359 2328 
Q 359 3472 976 4111 
Q 1594 4750 2688 4750 
Q 3144 4750 3555 4637 
Q 3966 4525 4313 4306 
L 4313 3634 
Q 3963 3931 3569 4081 
Q 3175 4231 2741 4231 
Q 1884 4231 1454 3753 
Q 1025 3275 1025 2328 
Q 1025 1384 1454 906 
Q 1884 428 2741 428 
Q 3075 428 3337 486 
Q 3600 544 3809 666 
z
" transform="scale(0.015625)"/>
      <path id="DejaVuSans-48" d="M 628 4666 
L 1259 4666 
L 1259 2753 
L 3553 2753 
L 3553 4666 
L 4184 4666 
L 4184 0 
L 3553 0 
L 3553 2222 
L 1259 2222 
L 1259 0 
L 628 0 
L 628 4666 
z
" transform="scale(0.015625)"/>
      <path id="DejaVuSans-7a" d="M 353 3500 
L 3084 3500 
L 3084 2975 
L 922 459 
L 3084 459 
L 3084 0 
L 275 0 
L 275 525 
L 2438 3041 
L 353 3041 
L 353 3500 
z
" transform="scale(0.015625)"/>
     </defs>
     <use xlink:href="#DejaVuSans-Oblique-66" transform="translate(0 0.015625)"/>
     <use xlink:href="#DejaVuSans-Oblique-72" transform="translate(35.205078 -16.390625) scale(0.7)"/>
     <use xlink:href="#DejaVuSans-Oblique-65" transform="translate(63.984375 -16.390625) scale(0.7)"/>
     <use xlink:href="#DejaVuSans-Oblique-73" transform="translate(107.050781 -16.390625) scale(0.7)"/>
     <use xlink:href="#DejaVuSans-3a" transform="translate(146.254883 0.015625)"/>
     <use xlink:href="#DejaVuSans-20" transform="translate(179.946289 0.015625)"/>
     <use xlink:href="#DejaVuSans-35" transform="translate(211.733398 0.015625)"/>
     <use xlink:href="#DejaVuSans-2e" transform="translate(275.356445 0.015625)"/>
     <use xlink:href="#DejaVuSans-37" transform="translate(299.393555 0.015625)"/>
     <use xlink:href="#DejaVuSans-32" transform="translate(363.016602 0.015625)"/>
     <use xlink:href="#DejaVuSans-30" transform="translate(426.639648 0.015625)"/>
     <use xlink:href="#DejaVuSans-39" transform="translate(490.262695 0.015625)"/>
     <use xlink:href="#DejaVuSans-33" transform="translate(553.885742 0.015625)"/>
     <use xlink:href="#DejaVuSans-33" transform="translate(617.508789 0.015625)"/>
     <use xlink:href="#DejaVuSans-b1" transform="translate(681.131836 0.015625)"/>
     <use xlink:href="#DejaVuSans-31" transform="translate(764.920898 0.015625)"/>
     <use xlink:href="#DejaVuSans-2e" transform="translate(828.543945 0.015625)"/>
     <use xlink:href="#DejaVuSans-31" transform="translate(860.331055 0.015625)"/>
     <use xlink:href="#DejaVuSans-65" transform="translate(923.954102 0.015625)"/>
     <use xlink:href="#DejaVuSans-2d" transform="translate(985.477539 0.015625)"/>
     <use xlink:href="#DejaVuSans-30" transform="translate(1021.561523 0.015625)"/>
     <use xlink:href="#DejaVuSans-35" transform="translate(1085.18457 0.015625)"/>
     <use xlink:href="#DejaVuSans-20" transform="translate(1148.807617 0.015625)"/>
     <use xlink:href="#DejaVuSans-47" transform="translate(1180.594727 0.015625)"/>
     <use xlink:href="#DejaVuSans-48" transform="translate(1258.084961 0.015625)"/>
     <use xlink:href="#DejaVuSans-7a" transform="translate(1333.280273 0.015625)"/>
    </g>
   </g>
  </g>
  <g id="axes_2">
   <g id="patch_8">
    <path d="M 50.573438 307.872 
L 407.693438 307.872 
L 407.693438 186.912 
L 50.573438 186.912 
z
" style="fill: #ffffff"/>
   </g>
   <g id="matplotlib.axis_3">
    <g id="xtick_8">
     <g id="line2d_14">
      <g>
       <use xlink:href="#m5d68e3565d" x="55.984347" y="307.872" style="stroke: #000000; stroke-width: 0.8"/>
      </g>
     </g>
     <g id="text_7">
      <!-- 705 -->
      <g transform="translate(46.440597 322.470438) scale(0.1 -0.1)">
       <use xlink:href="#DejaVuSans-37"/>
       <use xlink:href="#DejaVuSans-30" x="63.623047"/>
       <use xlink:href="#DejaVuSans-35" x="127.246094"/>
      </g>
     </g>
    </g>
    <g id="xtick_9">
     <g id="line2d_15">
      <g>
       <use xlink:href="#m5d68e3565d" x="110.093438" y="307.872" style="stroke: #000000; stroke-width: 0.8"/>
      </g>
     </g>
     <g id="text_8">
      <!-- 710 -->
      <g transform="translate(100.549688 322.470438) scale(0.1 -0.1)">
       <use xlink:href="#DejaVuSans-37"/>
       <use xlink:href="#DejaVuSans-31" x="63.623047"/>
       <use xlink:href="#DejaVuSans-30" x="127.246094"/>
      </g>
     </g>
    </g>
    <g id="xtick_10">
     <g id="line2d_16">
      <g>
       <use xlink:href="#m5d68e3565d" x="164.202528" y="307.872" style="stroke: #000000; stroke-width: 0.8"/>
      </g>
     </g>
     <g id="text_9">
      <!-- 715 -->
      <g transform="translate(154.658778 322.470438) scale(0.1 -0.1)">
       <use xlink:href="#DejaVuSans-37"/>
       <use xlink:href="#DejaVuSans-31" x="63.623047"/>
       <use xlink:href="#DejaVuSans-35" x="127.246094"/>
      </g>
     </g>
    </g>
    <g id="xtick_11">
     <g id="line2d_17">
      <g>
       <use xlink:href="#m5d68e3565d" x="218.311619" y="307.872" style="stroke: #000000; stroke-width: 0.8"/>
      </g>
     </g>
     <g id="text_10">
      <!-- 720 -->
      <g transform="translate(208.767869 322.470438) scale(0.1 -0.1)">
       <use xlink:href="#DejaVuSans-37"/>
       <use xlink:href="#DejaVuSans-32" x="63.623047"/>
       <use xlink:href="#DejaVuSans-30" x="127.246094"/>
      </g>
     </g>
    </g>
    <g id="xtick_12">
     <g id="line2d_18">
      <g>
       <use xlink:href="#m5d68e3565d" x="272.42071" y="307.872" style="stroke: #000000; stroke-width: 0.8"/>
      </g>
     </g>
     <g id="text_11">
      <!-- 725 -->
      <g transform="translate(262.87696 322.470438) scale(0.1 -0.1)">
       <use xlink:href="#DejaVuSans-37"/>
       <use xlink:href="#DejaVuSans-32" x="63.623047"/>
       <use xlink:href="#DejaVuSans-35" x="127.246094"/>
      </g>
     </g>
    </g>
    <g id="xtick_13">
     <g id="line2d_19">
      <g>
       <use xlink:href="#m5d68e3565d" x="326.529801" y="307.872" style="stroke: #000000; stroke-width: 0.8"/>
      </g>
     </g>
     <g id="text_12">
      <!-- 730 -->
      <g transform="translate(316.986051 322.470438) scale(0.1 -0.1)">
       <use xlink:href="#DejaVuSans-37"/>
       <use xlink:href="#DejaVuSans-33" x="63.623047"/>
       <use xlink:href="#DejaVuSans-30" x="127.246094"/>
      </g>
     </g>
    </g>
    <g id="xtick_14">
     <g id="line2d_20">
      <g>
       <use xlink:href="#m5d68e3565d" x="380.638892" y="307.872" style="stroke: #000000; stroke-width: 0.8"/>
      </g>
     </g>
     <g id="text_13">
      <!-- 735 -->
      <g transform="translate(371.095142 322.470438) scale(0.1 -0.1)">
       <use xlink:href="#DejaVuSans-37"/>
       <use xlink:href="#DejaVuSans-33" x="63.623047"/>
       <use xlink:href="#DejaVuSans-35" x="127.246094"/>
      </g>
     </g>
    </g>
    <g id="text_14">
     <!-- Frequency [MHz] -->
     <g transform="translate(187.114688 336.148562) scale(0.1 -0.1)">
      <defs>
       <path id="DejaVuSans-46" d="M 628 4666 
L 3309 4666 
L 3309 4134 
L 1259 4134 
L 1259 2759 
L 3109 2759 
L 3109 2228 
L 1259 2228 
L 1259 0 
L 628 0 
L 628 4666 
z
" transform="scale(0.015625)"/>
       <path id="DejaVuSans-71" d="M 947 1747 
Q 947 1113 1208 752 
Q 1469 391 1925 391 
Q 2381 391 2643 752 
Q 2906 1113 2906 1747 
Q 2906 2381 2643 2742 
Q 2381 3103 1925 3103 
Q 1469 3103 1208 2742 
Q 947 2381 947 1747 
z
M 2906 525 
Q 2725 213 2448 61 
Q 2172 -91 1784 -91 
Q 1150 -91 751 415 
Q 353 922 353 1747 
Q 353 2572 751 3078 
Q 1150 3584 1784 3584 
Q 2172 3584 2448 3432 
Q 2725 3281 2906 2969 
L 2906 3500 
L 3481 3500 
L 3481 -1331 
L 2906 -1331 
L 2906 525 
z
" transform="scale(0.015625)"/>
       <path id="DejaVuSans-6e" d="M 3513 2113 
L 3513 0 
L 2938 0 
L 2938 2094 
Q 2938 2591 2744 2837 
Q 2550 3084 2163 3084 
Q 1697 3084 1428 2787 
Q 1159 2491 1159 1978 
L 1159 0 
L 581 0 
L 581 3500 
L 1159 3500 
L 1159 2956 
Q 1366 3272 1645 3428 
Q 1925 3584 2291 3584 
Q 2894 3584 3203 3211 
Q 3513 2838 3513 2113 
z
" transform="scale(0.015625)"/>
       <path id="DejaVuSans-63" d="M 3122 3366 
L 3122 2828 
Q 2878 2963 2633 3030 
Q 2388 3097 2138 3097 
Q 1578 3097 1268 2742 
Q 959 2388 959 1747 
Q 959 1106 1268 751 
Q 1578 397 2138 397 
Q 2388 397 2633 464 
Q 2878 531 3122 666 
L 3122 134 
Q 2881 22 2623 -34 
Q 2366 -91 2075 -91 
Q 1284 -91 818 406 
Q 353 903 353 1747 
Q 353 2603 823 3093 
Q 1294 3584 2113 3584 
Q 2378 3584 2631 3529 
Q 2884 3475 3122 3366 
z
" transform="scale(0.015625)"/>
       <path id="DejaVuSans-4d" d="M 628 4666 
L 1569 4666 
L 2759 1491 
L 3956 4666 
L 4897 4666 
L 4897 0 
L 4281 0 
L 4281 4097 
L 3078 897 
L 2444 897 
L 1241 4097 
L 1241 0 
L 628 0 
L 628 4666 
z
" transform="scale(0.015625)"/>
      </defs>
      <use xlink:href="#DejaVuSans-46"/>
      <use xlink:href="#DejaVuSans-72" x="50.269531"/>
      <use xlink:href="#DejaVuSans-65" x="89.132812"/>
      <use xlink:href="#DejaVuSans-71" x="150.65625"/>
      <use xlink:href="#DejaVuSans-75" x="214.132812"/>
      <use xlink:href="#DejaVuSans-65" x="277.511719"/>
      <use xlink:href="#DejaVuSans-6e" x="339.035156"/>
      <use xlink:href="#DejaVuSans-63" x="402.414062"/>
      <use xlink:href="#DejaVuSans-79" x="457.394531"/>
      <use xlink:href="#DejaVuSans-20" x="516.574219"/>
      <use xlink:href="#DejaVuSans-5b" x="548.361328"/>
      <use xlink:href="#DejaVuSans-4d" x="587.375"/>
      <use xlink:href="#DejaVuSans-48" x="673.654297"/>
      <use xlink:href="#DejaVuSans-7a" x="748.849609"/>
      <use xlink:href="#DejaVuSans-5d" x="801.339844"/>
     </g>
    </g>
    <g id="text_15">
     <!-- +5 GHz -->
     <g transform="translate(369.255938 335.148562) scale(0.1 -0.1)">
      <defs>
       <path id="DejaVuSans-2b" d="M 2944 4013 
L 2944 2272 
L 4684 2272 
L 4684 1741 
L 2944 1741 
L 2944 0 
L 2419 0 
L 2419 1741 
L 678 1741 
L 678 2272 
L 2419 2272 
L 2419 4013 
L 2944 4013 
z
" transform="scale(0.015625)"/>
      </defs>
      <use xlink:href="#DejaVuSans-2b"/>
      <use xlink:href="#DejaVuSans-35" x="83.789062"/>
      <use xlink:href="#DejaVuSans-20" x="147.412109"/>
      <use xlink:href="#DejaVuSans-47" x="179.199219"/>
      <use xlink:href="#DejaVuSans-48" x="256.689453"/>
      <use xlink:href="#DejaVuSans-7a" x="331.884766"/>
     </g>
    </g>
   </g>
   <g id="matplotlib.axis_4">
    <g id="ytick_5">
     <g id="line2d_21">
      <g>
       <use xlink:href="#md11bde2988" x="50.573438" y="288.843156" style="stroke: #000000; stroke-width: 0.8"/>
      </g>
     </g>
     <g id="text_16">
      <!-- -200 -->
      <g transform="translate(20.878125 292.642375) scale(0.1 -0.1)">
       <use xlink:href="#DejaVuSans-2d"/>
       <use xlink:href="#DejaVuSans-32" x="36.083984"/>
       <use xlink:href="#DejaVuSans-30" x="99.707031"/>
       <use xlink:href="#DejaVuSans-30" x="163.330078"/>
      </g>
     </g>
    </g>
    <g id="ytick_6">
     <g id="line2d_22">
      <g>
       <use xlink:href="#md11bde2988" x="50.573438" y="267.983664" style="stroke: #000000; stroke-width: 0.8"/>
      </g>
     </g>
     <g id="text_17">
      <!-- -100 -->
      <g transform="translate(20.878125 271.782882) scale(0.1 -0.1)">
       <use xlink:href="#DejaVuSans-2d"/>
       <use xlink:href="#DejaVuSans-31" x="36.083984"/>
       <use xlink:href="#DejaVuSans-30" x="99.707031"/>
       <use xlink:href="#DejaVuSans-30" x="163.330078"/>
      </g>
     </g>
    </g>
    <g id="ytick_7">
     <g id="line2d_23">
      <g>
       <use xlink:href="#md11bde2988" x="50.573438" y="247.124171" style="stroke: #000000; stroke-width: 0.8"/>
      </g>
     </g>
     <g id="text_18">
      <!-- 0 -->
      <g transform="translate(37.210938 250.92339) scale(0.1 -0.1)">
       <use xlink:href="#DejaVuSans-30"/>
      </g>
     </g>
    </g>
    <g id="ytick_8">
     <g id="line2d_24">
      <g>
       <use xlink:href="#md11bde2988" x="50.573438" y="226.264679" style="stroke: #000000; stroke-width: 0.8"/>
      </g>
     </g>
     <g id="text_19">
      <!-- 100 -->
      <g transform="translate(24.485938 230.063897) scale(0.1 -0.1)">
       <use xlink:href="#DejaVuSans-31"/>
       <use xlink:href="#DejaVuSans-30" x="63.623047"/>
       <use xlink:href="#DejaVuSans-30" x="127.246094"/>
      </g>
     </g>
    </g>
    <g id="ytick_9">
     <g id="line2d_25">
      <g>
       <use xlink:href="#md11bde2988" x="50.573438" y="205.405186" style="stroke: #000000; stroke-width: 0.8"/>
      </g>
     </g>
     <g id="text_20">
      <!-- 200 -->
      <g transform="translate(24.485938 209.204405) scale(0.1 -0.1)">
       <use xlink:href="#DejaVuSans-32"/>
       <use xlink:href="#DejaVuSans-30" x="63.623047"/>
       <use xlink:href="#DejaVuSans-30" x="127.246094"/>
      </g>
     </g>
    </g>
    <g id="text_21">
     <!-- Im$(S_{21})$ [mV] -->
     <g transform="translate(14.798438 279.042) rotate(-90) scale(0.1 -0.1)">
      <defs>
       <path id="DejaVuSans-49" d="M 628 4666 
L 1259 4666 
L 1259 0 
L 628 0 
L 628 4666 
z
" transform="scale(0.015625)"/>
      </defs>
      <use xlink:href="#DejaVuSans-49" transform="translate(0 0.015625)"/>
      <use xlink:href="#DejaVuSans-6d" transform="translate(25.867188 0.015625)"/>
      <use xlink:href="#DejaVuSans-28" transform="translate(123.279297 0.015625)"/>
      <use xlink:href="#DejaVuSans-Oblique-53" transform="translate(162.292969 0.015625)"/>
      <use xlink:href="#DejaVuSans-32" transform="translate(225.769531 -16.390625) scale(0.7)"/>
      <use xlink:href="#DejaVuSans-31" transform="translate(270.305664 -16.390625) scale(0.7)"/>
      <use xlink:href="#DejaVuSans-29" transform="translate(317.576172 0.015625)"/>
      <use xlink:href="#DejaVuSans-20" transform="translate(356.589844 0.015625)"/>
      <use xlink:href="#DejaVuSans-5b" transform="translate(388.376953 0.015625)"/>
      <use xlink:href="#DejaVuSans-6d" transform="translate(427.390625 0.015625)"/>
      <use xlink:href="#DejaVuSans-56" transform="translate(524.802734 0.015625)"/>
      <use xlink:href="#DejaVuSans-5d" transform="translate(593.210938 0.015625)"/>
     </g>
    </g>
   </g>
   <g id="line2d_26">
    <path d="M 66.806165 296.06797 
L 78.226174 297.845082 
L 83.120464 298.084075 
L 88.014753 298.17395 
L 91.277613 298.10163 
L 97.803332 297.853562 
L 112.486201 296.596464 
L 119.011921 295.738481 
L 122.274781 295.237049 
L 127.16907 294.40132 
L 136.957649 292.334874 
L 146.746229 289.70861 
L 158.166238 285.962853 
L 167.954817 282.091304 
L 176.111967 278.360677 
L 181.006256 275.926995 
L 189.163406 271.28282 
L 192.426265 269.226104 
L 195.689125 267.029938 
L 198.951985 264.583086 
L 202.214845 261.960836 
L 205.477704 258.932842 
L 208.740564 255.426533 
L 210.371994 253.436711 
L 212.003424 251.128582 
L 213.634854 248.583966 
L 215.266284 245.570943 
L 216.897713 241.985343 
L 218.529143 237.664155 
L 220.160573 232.357358 
L 221.792003 225.682776 
L 223.423433 218.170668 
L 225.054863 212.829876 
L 226.686293 214.142077 
L 228.317723 223.736006 
L 229.949152 238.031409 
L 231.580582 250.251447 
L 233.212012 257.502811 
L 234.843442 260.052635 
L 236.474872 260.182598 
L 238.106302 259.481879 
L 239.737732 258.322643 
L 254.420601 245.747066 
L 265.84061 237.197725 
L 275.629189 230.509013 
L 280.523479 227.318033 
L 287.049198 223.264768 
L 300.100637 215.773199 
L 308.257787 211.489702 
L 314.783506 208.340845 
L 326.203515 203.498013 
L 332.729235 201.097403 
L 340.886384 198.586128 
L 345.780674 197.267517 
L 352.306393 195.773618 
L 357.200683 194.886058 
L 363.726402 193.843825 
L 373.514982 192.896651 
L 381.672131 192.500658 
L 386.566421 192.435624 
L 391.46071 192.43141 
L 391.46071 192.43141 
" clip-path="url(#p5f955574e8)" style="fill: none; stroke: #1f77b4; stroke-width: 1.5; stroke-linecap: square"/>
    <g clip-path="url(#p5f955574e8)">
     <use xlink:href="#m82ac776e6b" x="66.806165" y="296.06797" style="fill: #1f77b4; stroke: #1f77b4"/>
     <use xlink:href="#m82ac776e6b" x="68.437595" y="296.328332" style="fill: #1f77b4; stroke: #1f77b4"/>
     <use xlink:href="#m82ac776e6b" x="70.069025" y="296.580418" style="fill: #1f77b4; stroke: #1f77b4"/>
     <use xlink:href="#m82ac776e6b" x="71.700454" y="296.848487" style="fill: #1f77b4; stroke: #1f77b4"/>
     <use xlink:href="#m82ac776e6b" x="73.331884" y="297.126449" style="fill: #1f77b4; stroke: #1f77b4"/>
     <use xlink:href="#m82ac776e6b" x="74.963314" y="297.408994" style="fill: #1f77b4; stroke: #1f77b4"/>
     <use xlink:href="#m82ac776e6b" x="76.594744" y="297.660248" style="fill: #1f77b4; stroke: #1f77b4"/>
     <use xlink:href="#m82ac776e6b" x="78.226174" y="297.845082" style="fill: #1f77b4; stroke: #1f77b4"/>
     <use xlink:href="#m82ac776e6b" x="79.857604" y="297.94798" style="fill: #1f77b4; stroke: #1f77b4"/>
     <use xlink:href="#m82ac776e6b" x="81.489034" y="298.011416" style="fill: #1f77b4; stroke: #1f77b4"/>
     <use xlink:href="#m82ac776e6b" x="83.120464" y="298.084075" style="fill: #1f77b4; stroke: #1f77b4"/>
     <use xlink:href="#m82ac776e6b" x="84.751893" y="298.126759" style="fill: #1f77b4; stroke: #1f77b4"/>
     <use xlink:href="#m82ac776e6b" x="86.383323" y="298.151333" style="fill: #1f77b4; stroke: #1f77b4"/>
     <use xlink:href="#m82ac776e6b" x="88.014753" y="298.17395" style="fill: #1f77b4; stroke: #1f77b4"/>
     <use xlink:href="#m82ac776e6b" x="89.646183" y="298.09504" style="fill: #1f77b4; stroke: #1f77b4"/>
     <use xlink:href="#m82ac776e6b" x="91.277613" y="298.10163" style="fill: #1f77b4; stroke: #1f77b4"/>
     <use xlink:href="#m82ac776e6b" x="92.909043" y="298.059695" style="fill: #1f77b4; stroke: #1f77b4"/>
     <use xlink:href="#m82ac776e6b" x="94.540473" y="298.007794" style="fill: #1f77b4; stroke: #1f77b4"/>
     <use xlink:href="#m82ac776e6b" x="96.171903" y="297.957173" style="fill: #1f77b4; stroke: #1f77b4"/>
     <use xlink:href="#m82ac776e6b" x="97.803332" y="297.853562" style="fill: #1f77b4; stroke: #1f77b4"/>
     <use xlink:href="#m82ac776e6b" x="99.434762" y="297.720794" style="fill: #1f77b4; stroke: #1f77b4"/>
     <use xlink:href="#m82ac776e6b" x="101.066192" y="297.6377" style="fill: #1f77b4; stroke: #1f77b4"/>
     <use xlink:href="#m82ac776e6b" x="102.697622" y="297.5036" style="fill: #1f77b4; stroke: #1f77b4"/>
     <use xlink:href="#m82ac776e6b" x="104.329052" y="297.37745" style="fill: #1f77b4; stroke: #1f77b4"/>
     <use xlink:href="#m82ac776e6b" x="105.960482" y="297.251236" style="fill: #1f77b4; stroke: #1f77b4"/>
     <use xlink:href="#m82ac776e6b" x="107.591912" y="297.094095" style="fill: #1f77b4; stroke: #1f77b4"/>
     <use xlink:href="#m82ac776e6b" x="109.223342" y="296.949899" style="fill: #1f77b4; stroke: #1f77b4"/>
     <use xlink:href="#m82ac776e6b" x="110.854771" y="296.802689" style="fill: #1f77b4; stroke: #1f77b4"/>
     <use xlink:href="#m82ac776e6b" x="112.486201" y="296.596464" style="fill: #1f77b4; stroke: #1f77b4"/>
     <use xlink:href="#m82ac776e6b" x="114.117631" y="296.405151" style="fill: #1f77b4; stroke: #1f77b4"/>
     <use xlink:href="#m82ac776e6b" x="115.749061" y="296.209726" style="fill: #1f77b4; stroke: #1f77b4"/>
     <use xlink:href="#m82ac776e6b" x="117.380491" y="296.000996" style="fill: #1f77b4; stroke: #1f77b4"/>
     <use xlink:href="#m82ac776e6b" x="119.011921" y="295.738481" style="fill: #1f77b4; stroke: #1f77b4"/>
     <use xlink:href="#m82ac776e6b" x="120.643351" y="295.524897" style="fill: #1f77b4; stroke: #1f77b4"/>
     <use xlink:href="#m82ac776e6b" x="122.274781" y="295.237049" style="fill: #1f77b4; stroke: #1f77b4"/>
     <use xlink:href="#m82ac776e6b" x="123.90621" y="294.981713" style="fill: #1f77b4; stroke: #1f77b4"/>
     <use xlink:href="#m82ac776e6b" x="125.53764" y="294.690118" style="fill: #1f77b4; stroke: #1f77b4"/>
     <use xlink:href="#m82ac776e6b" x="127.16907" y="294.40132" style="fill: #1f77b4; stroke: #1f77b4"/>
     <use xlink:href="#m82ac776e6b" x="128.8005" y="294.075304" style="fill: #1f77b4; stroke: #1f77b4"/>
     <use xlink:href="#m82ac776e6b" x="130.43193" y="293.763497" style="fill: #1f77b4; stroke: #1f77b4"/>
     <use xlink:href="#m82ac776e6b" x="132.06336" y="293.379472" style="fill: #1f77b4; stroke: #1f77b4"/>
     <use xlink:href="#m82ac776e6b" x="133.69479" y="293.054998" style="fill: #1f77b4; stroke: #1f77b4"/>
     <use xlink:href="#m82ac776e6b" x="135.32622" y="292.681154" style="fill: #1f77b4; stroke: #1f77b4"/>
     <use xlink:href="#m82ac776e6b" x="136.957649" y="292.334874" style="fill: #1f77b4; stroke: #1f77b4"/>
     <use xlink:href="#m82ac776e6b" x="138.589079" y="291.911815" style="fill: #1f77b4; stroke: #1f77b4"/>
     <use xlink:href="#m82ac776e6b" x="140.220509" y="291.502088" style="fill: #1f77b4; stroke: #1f77b4"/>
     <use xlink:href="#m82ac776e6b" x="141.851939" y="291.071818" style="fill: #1f77b4; stroke: #1f77b4"/>
     <use xlink:href="#m82ac776e6b" x="143.483369" y="290.62793" style="fill: #1f77b4; stroke: #1f77b4"/>
     <use xlink:href="#m82ac776e6b" x="145.114799" y="290.166916" style="fill: #1f77b4; stroke: #1f77b4"/>
     <use xlink:href="#m82ac776e6b" x="146.746229" y="289.70861" style="fill: #1f77b4; stroke: #1f77b4"/>
     <use xlink:href="#m82ac776e6b" x="148.377659" y="289.18808" style="fill: #1f77b4; stroke: #1f77b4"/>
     <use xlink:href="#m82ac776e6b" x="150.009088" y="288.71477" style="fill: #1f77b4; stroke: #1f77b4"/>
     <use xlink:href="#m82ac776e6b" x="151.640518" y="288.198219" style="fill: #1f77b4; stroke: #1f77b4"/>
     <use xlink:href="#m82ac776e6b" x="153.271948" y="287.645202" style="fill: #1f77b4; stroke: #1f77b4"/>
     <use xlink:href="#m82ac776e6b" x="154.903378" y="287.090483" style="fill: #1f77b4; stroke: #1f77b4"/>
     <use xlink:href="#m82ac776e6b" x="156.534808" y="286.533014" style="fill: #1f77b4; stroke: #1f77b4"/>
     <use xlink:href="#m82ac776e6b" x="158.166238" y="285.962853" style="fill: #1f77b4; stroke: #1f77b4"/>
     <use xlink:href="#m82ac776e6b" x="159.797668" y="285.333932" style="fill: #1f77b4; stroke: #1f77b4"/>
     <use xlink:href="#m82ac776e6b" x="161.429098" y="284.736877" style="fill: #1f77b4; stroke: #1f77b4"/>
     <use xlink:href="#m82ac776e6b" x="163.060527" y="284.103246" style="fill: #1f77b4; stroke: #1f77b4"/>
     <use xlink:href="#m82ac776e6b" x="164.691957" y="283.437987" style="fill: #1f77b4; stroke: #1f77b4"/>
     <use xlink:href="#m82ac776e6b" x="166.323387" y="282.79015" style="fill: #1f77b4; stroke: #1f77b4"/>
     <use xlink:href="#m82ac776e6b" x="167.954817" y="282.091304" style="fill: #1f77b4; stroke: #1f77b4"/>
     <use xlink:href="#m82ac776e6b" x="169.586247" y="281.365424" style="fill: #1f77b4; stroke: #1f77b4"/>
     <use xlink:href="#m82ac776e6b" x="171.217677" y="280.634093" style="fill: #1f77b4; stroke: #1f77b4"/>
     <use xlink:href="#m82ac776e6b" x="172.849107" y="279.899416" style="fill: #1f77b4; stroke: #1f77b4"/>
     <use xlink:href="#m82ac776e6b" x="174.480537" y="279.152922" style="fill: #1f77b4; stroke: #1f77b4"/>
     <use xlink:href="#m82ac776e6b" x="176.111967" y="278.360677" style="fill: #1f77b4; stroke: #1f77b4"/>
     <use xlink:href="#m82ac776e6b" x="177.743396" y="277.567348" style="fill: #1f77b4; stroke: #1f77b4"/>
     <use xlink:href="#m82ac776e6b" x="179.374826" y="276.759996" style="fill: #1f77b4; stroke: #1f77b4"/>
     <use xlink:href="#m82ac776e6b" x="181.006256" y="275.926995" style="fill: #1f77b4; stroke: #1f77b4"/>
     <use xlink:href="#m82ac776e6b" x="182.637686" y="275.015814" style="fill: #1f77b4; stroke: #1f77b4"/>
     <use xlink:href="#m82ac776e6b" x="184.269116" y="274.130473" style="fill: #1f77b4; stroke: #1f77b4"/>
     <use xlink:href="#m82ac776e6b" x="185.900546" y="273.215356" style="fill: #1f77b4; stroke: #1f77b4"/>
     <use xlink:href="#m82ac776e6b" x="187.531976" y="272.296154" style="fill: #1f77b4; stroke: #1f77b4"/>
     <use xlink:href="#m82ac776e6b" x="189.163406" y="271.28282" style="fill: #1f77b4; stroke: #1f77b4"/>
     <use xlink:href="#m82ac776e6b" x="190.794835" y="270.301219" style="fill: #1f77b4; stroke: #1f77b4"/>
     <use xlink:href="#m82ac776e6b" x="192.426265" y="269.226104" style="fill: #1f77b4; stroke: #1f77b4"/>
     <use xlink:href="#m82ac776e6b" x="194.057695" y="268.170659" style="fill: #1f77b4; stroke: #1f77b4"/>
     <use xlink:href="#m82ac776e6b" x="195.689125" y="267.029938" style="fill: #1f77b4; stroke: #1f77b4"/>
     <use xlink:href="#m82ac776e6b" x="197.320555" y="265.858868" style="fill: #1f77b4; stroke: #1f77b4"/>
     <use xlink:href="#m82ac776e6b" x="198.951985" y="264.583086" style="fill: #1f77b4; stroke: #1f77b4"/>
     <use xlink:href="#m82ac776e6b" x="200.583415" y="263.307628" style="fill: #1f77b4; stroke: #1f77b4"/>
     <use xlink:href="#m82ac776e6b" x="202.214845" y="261.960836" style="fill: #1f77b4; stroke: #1f77b4"/>
     <use xlink:href="#m82ac776e6b" x="203.846274" y="260.501604" style="fill: #1f77b4; stroke: #1f77b4"/>
     <use xlink:href="#m82ac776e6b" x="205.477704" y="258.932842" style="fill: #1f77b4; stroke: #1f77b4"/>
     <use xlink:href="#m82ac776e6b" x="207.109134" y="257.253759" style="fill: #1f77b4; stroke: #1f77b4"/>
     <use xlink:href="#m82ac776e6b" x="208.740564" y="255.426533" style="fill: #1f77b4; stroke: #1f77b4"/>
     <use xlink:href="#m82ac776e6b" x="210.371994" y="253.436711" style="fill: #1f77b4; stroke: #1f77b4"/>
     <use xlink:href="#m82ac776e6b" x="212.003424" y="251.128582" style="fill: #1f77b4; stroke: #1f77b4"/>
     <use xlink:href="#m82ac776e6b" x="213.634854" y="248.583966" style="fill: #1f77b4; stroke: #1f77b4"/>
     <use xlink:href="#m82ac776e6b" x="215.266284" y="245.570943" style="fill: #1f77b4; stroke: #1f77b4"/>
     <use xlink:href="#m82ac776e6b" x="216.897713" y="241.985343" style="fill: #1f77b4; stroke: #1f77b4"/>
     <use xlink:href="#m82ac776e6b" x="218.529143" y="237.664155" style="fill: #1f77b4; stroke: #1f77b4"/>
     <use xlink:href="#m82ac776e6b" x="220.160573" y="232.357358" style="fill: #1f77b4; stroke: #1f77b4"/>
     <use xlink:href="#m82ac776e6b" x="221.792003" y="225.682776" style="fill: #1f77b4; stroke: #1f77b4"/>
     <use xlink:href="#m82ac776e6b" x="223.423433" y="218.170668" style="fill: #1f77b4; stroke: #1f77b4"/>
     <use xlink:href="#m82ac776e6b" x="225.054863" y="212.829876" style="fill: #1f77b4; stroke: #1f77b4"/>
     <use xlink:href="#m82ac776e6b" x="226.686293" y="214.142077" style="fill: #1f77b4; stroke: #1f77b4"/>
     <use xlink:href="#m82ac776e6b" x="228.317723" y="223.736006" style="fill: #1f77b4; stroke: #1f77b4"/>
     <use xlink:href="#m82ac776e6b" x="229.949152" y="238.031409" style="fill: #1f77b4; stroke: #1f77b4"/>
     <use xlink:href="#m82ac776e6b" x="231.580582" y="250.251447" style="fill: #1f77b4; stroke: #1f77b4"/>
     <use xlink:href="#m82ac776e6b" x="233.212012" y="257.502811" style="fill: #1f77b4; stroke: #1f77b4"/>
     <use xlink:href="#m82ac776e6b" x="234.843442" y="260.052635" style="fill: #1f77b4; stroke: #1f77b4"/>
     <use xlink:href="#m82ac776e6b" x="236.474872" y="260.182598" style="fill: #1f77b4; stroke: #1f77b4"/>
     <use xlink:href="#m82ac776e6b" x="238.106302" y="259.481879" style="fill: #1f77b4; stroke: #1f77b4"/>
     <use xlink:href="#m82ac776e6b" x="239.737732" y="258.322643" style="fill: #1f77b4; stroke: #1f77b4"/>
     <use xlink:href="#m82ac776e6b" x="241.369162" y="256.91921" style="fill: #1f77b4; stroke: #1f77b4"/>
     <use xlink:href="#m82ac776e6b" x="243.000591" y="255.469639" style="fill: #1f77b4; stroke: #1f77b4"/>
     <use xlink:href="#m82ac776e6b" x="244.632021" y="254.066708" style="fill: #1f77b4; stroke: #1f77b4"/>
     <use xlink:href="#m82ac776e6b" x="246.263451" y="252.604502" style="fill: #1f77b4; stroke: #1f77b4"/>
     <use xlink:href="#m82ac776e6b" x="247.894881" y="251.179412" style="fill: #1f77b4; stroke: #1f77b4"/>
     <use xlink:href="#m82ac776e6b" x="249.526311" y="249.771306" style="fill: #1f77b4; stroke: #1f77b4"/>
     <use xlink:href="#m82ac776e6b" x="251.157741" y="248.42581" style="fill: #1f77b4; stroke: #1f77b4"/>
     <use xlink:href="#m82ac776e6b" x="252.789171" y="247.053469" style="fill: #1f77b4; stroke: #1f77b4"/>
     <use xlink:href="#m82ac776e6b" x="254.420601" y="245.747066" style="fill: #1f77b4; stroke: #1f77b4"/>
     <use xlink:href="#m82ac776e6b" x="256.05203" y="244.515774" style="fill: #1f77b4; stroke: #1f77b4"/>
     <use xlink:href="#m82ac776e6b" x="257.68346" y="243.278056" style="fill: #1f77b4; stroke: #1f77b4"/>
     <use xlink:href="#m82ac776e6b" x="259.31489" y="241.985813" style="fill: #1f77b4; stroke: #1f77b4"/>
     <use xlink:href="#m82ac776e6b" x="260.94632" y="240.758432" style="fill: #1f77b4; stroke: #1f77b4"/>
     <use xlink:href="#m82ac776e6b" x="262.57775" y="239.587427" style="fill: #1f77b4; stroke: #1f77b4"/>
     <use xlink:href="#m82ac776e6b" x="264.20918" y="238.40844" style="fill: #1f77b4; stroke: #1f77b4"/>
     <use xlink:href="#m82ac776e6b" x="265.84061" y="237.197725" style="fill: #1f77b4; stroke: #1f77b4"/>
     <use xlink:href="#m82ac776e6b" x="267.47204" y="236.060984" style="fill: #1f77b4; stroke: #1f77b4"/>
     <use xlink:href="#m82ac776e6b" x="269.103469" y="234.896446" style="fill: #1f77b4; stroke: #1f77b4"/>
     <use xlink:href="#m82ac776e6b" x="270.734899" y="233.808166" style="fill: #1f77b4; stroke: #1f77b4"/>
     <use xlink:href="#m82ac776e6b" x="272.366329" y="232.708937" style="fill: #1f77b4; stroke: #1f77b4"/>
     <use xlink:href="#m82ac776e6b" x="273.997759" y="231.584045" style="fill: #1f77b4; stroke: #1f77b4"/>
     <use xlink:href="#m82ac776e6b" x="275.629189" y="230.509013" style="fill: #1f77b4; stroke: #1f77b4"/>
     <use xlink:href="#m82ac776e6b" x="277.260619" y="229.404202" style="fill: #1f77b4; stroke: #1f77b4"/>
     <use xlink:href="#m82ac776e6b" x="278.892049" y="228.357369" style="fill: #1f77b4; stroke: #1f77b4"/>
     <use xlink:href="#m82ac776e6b" x="280.523479" y="227.318033" style="fill: #1f77b4; stroke: #1f77b4"/>
     <use xlink:href="#m82ac776e6b" x="282.154908" y="226.285258" style="fill: #1f77b4; stroke: #1f77b4"/>
     <use xlink:href="#m82ac776e6b" x="283.786338" y="225.280902" style="fill: #1f77b4; stroke: #1f77b4"/>
     <use xlink:href="#m82ac776e6b" x="285.417768" y="224.248883" style="fill: #1f77b4; stroke: #1f77b4"/>
     <use xlink:href="#m82ac776e6b" x="287.049198" y="223.264768" style="fill: #1f77b4; stroke: #1f77b4"/>
     <use xlink:href="#m82ac776e6b" x="288.680628" y="222.313227" style="fill: #1f77b4; stroke: #1f77b4"/>
     <use xlink:href="#m82ac776e6b" x="290.312058" y="221.310202" style="fill: #1f77b4; stroke: #1f77b4"/>
     <use xlink:href="#m82ac776e6b" x="291.943488" y="220.32569" style="fill: #1f77b4; stroke: #1f77b4"/>
     <use xlink:href="#m82ac776e6b" x="293.574918" y="219.410404" style="fill: #1f77b4; stroke: #1f77b4"/>
     <use xlink:href="#m82ac776e6b" x="295.206348" y="218.491611" style="fill: #1f77b4; stroke: #1f77b4"/>
     <use xlink:href="#m82ac776e6b" x="296.837777" y="217.569499" style="fill: #1f77b4; stroke: #1f77b4"/>
     <use xlink:href="#m82ac776e6b" x="298.469207" y="216.679036" style="fill: #1f77b4; stroke: #1f77b4"/>
     <use xlink:href="#m82ac776e6b" x="300.100637" y="215.773199" style="fill: #1f77b4; stroke: #1f77b4"/>
     <use xlink:href="#m82ac776e6b" x="301.732067" y="214.89759" style="fill: #1f77b4; stroke: #1f77b4"/>
     <use xlink:href="#m82ac776e6b" x="303.363497" y="214.033665" style="fill: #1f77b4; stroke: #1f77b4"/>
     <use xlink:href="#m82ac776e6b" x="304.994927" y="213.162797" style="fill: #1f77b4; stroke: #1f77b4"/>
     <use xlink:href="#m82ac776e6b" x="306.626357" y="212.344519" style="fill: #1f77b4; stroke: #1f77b4"/>
     <use xlink:href="#m82ac776e6b" x="308.257787" y="211.489702" style="fill: #1f77b4; stroke: #1f77b4"/>
     <use xlink:href="#m82ac776e6b" x="309.889216" y="210.689175" style="fill: #1f77b4; stroke: #1f77b4"/>
     <use xlink:href="#m82ac776e6b" x="311.520646" y="209.894043" style="fill: #1f77b4; stroke: #1f77b4"/>
     <use xlink:href="#m82ac776e6b" x="313.152076" y="209.110809" style="fill: #1f77b4; stroke: #1f77b4"/>
     <use xlink:href="#m82ac776e6b" x="314.783506" y="208.340845" style="fill: #1f77b4; stroke: #1f77b4"/>
     <use xlink:href="#m82ac776e6b" x="316.414936" y="207.632512" style="fill: #1f77b4; stroke: #1f77b4"/>
     <use xlink:href="#m82ac776e6b" x="318.046366" y="206.860297" style="fill: #1f77b4; stroke: #1f77b4"/>
     <use xlink:href="#m82ac776e6b" x="319.677796" y="206.134742" style="fill: #1f77b4; stroke: #1f77b4"/>
     <use xlink:href="#m82ac776e6b" x="321.309226" y="205.463111" style="fill: #1f77b4; stroke: #1f77b4"/>
     <use xlink:href="#m82ac776e6b" x="322.940655" y="204.766484" style="fill: #1f77b4; stroke: #1f77b4"/>
     <use xlink:href="#m82ac776e6b" x="324.572085" y="204.145311" style="fill: #1f77b4; stroke: #1f77b4"/>
     <use xlink:href="#m82ac776e6b" x="326.203515" y="203.498013" style="fill: #1f77b4; stroke: #1f77b4"/>
     <use xlink:href="#m82ac776e6b" x="327.834945" y="202.885521" style="fill: #1f77b4; stroke: #1f77b4"/>
     <use xlink:href="#m82ac776e6b" x="329.466375" y="202.265699" style="fill: #1f77b4; stroke: #1f77b4"/>
     <use xlink:href="#m82ac776e6b" x="331.097805" y="201.681597" style="fill: #1f77b4; stroke: #1f77b4"/>
     <use xlink:href="#m82ac776e6b" x="332.729235" y="201.097403" style="fill: #1f77b4; stroke: #1f77b4"/>
     <use xlink:href="#m82ac776e6b" x="334.360665" y="200.574203" style="fill: #1f77b4; stroke: #1f77b4"/>
     <use xlink:href="#m82ac776e6b" x="335.992094" y="200.027383" style="fill: #1f77b4; stroke: #1f77b4"/>
     <use xlink:href="#m82ac776e6b" x="337.623524" y="199.524228" style="fill: #1f77b4; stroke: #1f77b4"/>
     <use xlink:href="#m82ac776e6b" x="339.254954" y="199.060896" style="fill: #1f77b4; stroke: #1f77b4"/>
     <use xlink:href="#m82ac776e6b" x="340.886384" y="198.586128" style="fill: #1f77b4; stroke: #1f77b4"/>
     <use xlink:href="#m82ac776e6b" x="342.517814" y="198.108231" style="fill: #1f77b4; stroke: #1f77b4"/>
     <use xlink:href="#m82ac776e6b" x="344.149244" y="197.664092" style="fill: #1f77b4; stroke: #1f77b4"/>
     <use xlink:href="#m82ac776e6b" x="345.780674" y="197.267517" style="fill: #1f77b4; stroke: #1f77b4"/>
     <use xlink:href="#m82ac776e6b" x="347.412104" y="196.873636" style="fill: #1f77b4; stroke: #1f77b4"/>
     <use xlink:href="#m82ac776e6b" x="349.043533" y="196.477792" style="fill: #1f77b4; stroke: #1f77b4"/>
     <use xlink:href="#m82ac776e6b" x="350.674963" y="196.144712" style="fill: #1f77b4; stroke: #1f77b4"/>
     <use xlink:href="#m82ac776e6b" x="352.306393" y="195.773618" style="fill: #1f77b4; stroke: #1f77b4"/>
     <use xlink:href="#m82ac776e6b" x="353.937823" y="195.442871" style="fill: #1f77b4; stroke: #1f77b4"/>
     <use xlink:href="#m82ac776e6b" x="355.569253" y="195.163382" style="fill: #1f77b4; stroke: #1f77b4"/>
     <use xlink:href="#m82ac776e6b" x="357.200683" y="194.886058" style="fill: #1f77b4; stroke: #1f77b4"/>
     <use xlink:href="#m82ac776e6b" x="358.832113" y="194.605103" style="fill: #1f77b4; stroke: #1f77b4"/>
     <use xlink:href="#m82ac776e6b" x="360.463543" y="194.346518" style="fill: #1f77b4; stroke: #1f77b4"/>
     <use xlink:href="#m82ac776e6b" x="362.094972" y="194.086394" style="fill: #1f77b4; stroke: #1f77b4"/>
     <use xlink:href="#m82ac776e6b" x="363.726402" y="193.843825" style="fill: #1f77b4; stroke: #1f77b4"/>
     <use xlink:href="#m82ac776e6b" x="365.357832" y="193.669038" style="fill: #1f77b4; stroke: #1f77b4"/>
     <use xlink:href="#m82ac776e6b" x="366.989262" y="193.493566" style="fill: #1f77b4; stroke: #1f77b4"/>
     <use xlink:href="#m82ac776e6b" x="368.620692" y="193.297781" style="fill: #1f77b4; stroke: #1f77b4"/>
     <use xlink:href="#m82ac776e6b" x="370.252122" y="193.139905" style="fill: #1f77b4; stroke: #1f77b4"/>
     <use xlink:href="#m82ac776e6b" x="371.883552" y="193.016668" style="fill: #1f77b4; stroke: #1f77b4"/>
     <use xlink:href="#m82ac776e6b" x="373.514982" y="192.896651" style="fill: #1f77b4; stroke: #1f77b4"/>
     <use xlink:href="#m82ac776e6b" x="375.146411" y="192.796934" style="fill: #1f77b4; stroke: #1f77b4"/>
     <use xlink:href="#m82ac776e6b" x="376.777841" y="192.699511" style="fill: #1f77b4; stroke: #1f77b4"/>
     <use xlink:href="#m82ac776e6b" x="378.409271" y="192.620238" style="fill: #1f77b4; stroke: #1f77b4"/>
     <use xlink:href="#m82ac776e6b" x="380.040701" y="192.571573" style="fill: #1f77b4; stroke: #1f77b4"/>
     <use xlink:href="#m82ac776e6b" x="381.672131" y="192.500658" style="fill: #1f77b4; stroke: #1f77b4"/>
     <use xlink:href="#m82ac776e6b" x="383.303561" y="192.443512" style="fill: #1f77b4; stroke: #1f77b4"/>
     <use xlink:href="#m82ac776e6b" x="384.934991" y="192.451365" style="fill: #1f77b4; stroke: #1f77b4"/>
     <use xlink:href="#m82ac776e6b" x="386.566421" y="192.435624" style="fill: #1f77b4; stroke: #1f77b4"/>
     <use xlink:href="#m82ac776e6b" x="388.19785" y="192.412982" style="fill: #1f77b4; stroke: #1f77b4"/>
     <use xlink:href="#m82ac776e6b" x="389.82928" y="192.410182" style="fill: #1f77b4; stroke: #1f77b4"/>
     <use xlink:href="#m82ac776e6b" x="391.46071" y="192.43141" style="fill: #1f77b4; stroke: #1f77b4"/>
    </g>
   </g>
   <g id="line2d_27">
    <path d="M 66.806165 301.419407 
L 72.980776 301.964753 
L 79.155387 302.283113 
L 85.329998 302.372382 
L 91.504609 302.231265 
L 97.67922 301.859259 
L 103.853831 301.256622 
L 110.028442 300.424326 
L 116.203053 299.363994 
L 122.377664 298.07782 
L 128.552275 296.568447 
L 134.726885 294.838813 
L 141.226476 292.783489 
L 147.726066 290.490622 
L 154.225657 287.962465 
L 160.725247 285.199378 
L 167.224838 282.198253 
L 173.724428 278.949855 
L 179.899039 275.616642 
L 185.748671 272.205884 
L 190.948343 268.924185 
L 195.498057 265.805484 
L 199.397811 262.887036 
L 202.972586 259.937456 
L 205.897401 257.251429 
L 208.497238 254.574033 
L 210.772094 251.918917 
L 212.721971 249.321836 
L 214.671849 246.314615 
L 216.296746 243.380479 
L 217.921644 239.916441 
L 219.221562 236.644588 
L 220.52148 232.810929 
L 221.821398 228.322251 
L 223.446296 221.861305 
L 225.071193 215.576035 
L 225.721152 213.903207 
L 226.046132 213.453232 
L 226.371112 213.347932 
L 226.696091 213.652083 
L 227.021071 214.422062 
L 227.34605 215.697427 
L 227.996009 219.78884 
L 228.645968 225.641555 
L 230.920825 248.194133 
L 231.570784 252.580571 
L 232.220743 255.789408 
L 232.870702 257.998685 
L 233.520661 259.42034 
L 234.17062 260.248568 
L 234.820579 260.641753 
L 235.470538 260.721433 
L 236.120497 260.577794 
L 237.095436 260.082177 
L 238.395354 259.112931 
L 240.670211 257.060702 
L 247.169801 251.072011 
L 251.394535 247.540143 
L 255.944248 244.0261 
L 261.143921 240.287214 
L 267.318532 236.132425 
L 274.143102 231.816316 
L 281.617631 227.361359 
L 289.09216 223.159665 
L 296.891668 219.03297 
L 304.366198 215.325219 
L 311.840727 211.865514 
L 318.990276 208.797022 
L 326.139826 205.97365 
L 332.964396 203.516404 
L 339.788966 201.300054 
L 346.288556 199.420567 
L 352.788147 197.773239 
L 359.287737 196.363737 
L 365.462348 195.249439 
L 371.636959 194.357618 
L 377.81157 193.690949 
L 383.986181 193.251308 
L 390.160792 193.039745 
L 391.46071 193.024302 
L 391.46071 193.024302 
" clip-path="url(#p5f955574e8)" style="fill: none; stroke: #d62728; stroke-width: 1.5; stroke-linecap: square"/>
   </g>
   <g id="patch_9">
    <path d="M 50.573438 307.872 
L 50.573438 186.912 
" style="fill: none; stroke: #000000; stroke-width: 0.8; stroke-linejoin: miter; stroke-linecap: square"/>
   </g>
   <g id="patch_10">
    <path d="M 407.693438 307.872 
L 407.693438 186.912 
" style="fill: none; stroke: #000000; stroke-width: 0.8; stroke-linejoin: miter; stroke-linecap: square"/>
   </g>
   <g id="patch_11">
    <path d="M 50.573438 307.872 
L 407.693438 307.872 
" style="fill: none; stroke: #000000; stroke-width: 0.8; stroke-linejoin: miter; stroke-linecap: square"/>
   </g>
   <g id="patch_12">
    <path d="M 50.573438 186.912 
L 407.693438 186.912 
" style="fill: none; stroke: #000000; stroke-width: 0.8; stroke-linejoin: miter; stroke-linecap: square"/>
   </g>
  </g>
  <g id="text_22">
   <!-- S21 One-tone -->
   <g transform="translate(182.1225 16.318125) scale(0.12 -0.12)">
    <defs>
     <path id="DejaVuSans-4f" d="M 2522 4238 
Q 1834 4238 1429 3725 
Q 1025 3213 1025 2328 
Q 1025 1447 1429 934 
Q 1834 422 2522 422 
Q 3209 422 3611 934 
Q 4013 1447 4013 2328 
Q 4013 3213 3611 3725 
Q 3209 4238 2522 4238 
z
M 2522 4750 
Q 3503 4750 4090 4092 
Q 4678 3434 4678 2328 
Q 4678 1225 4090 567 
Q 3503 -91 2522 -91 
Q 1538 -91 948 565 
Q 359 1222 359 2328 
Q 359 3434 948 4092 
Q 1538 4750 2522 4750 
z
" transform="scale(0.015625)"/>
     <path id="DejaVuSans-74" d="M 1172 4494 
L 1172 3500 
L 2356 3500 
L 2356 3053 
L 1172 3053 
L 1172 1153 
Q 1172 725 1289 603 
Q 1406 481 1766 481 
L 2356 481 
L 2356 0 
L 1766 0 
Q 1100 0 847 248 
Q 594 497 594 1153 
L 594 3053 
L 172 3053 
L 172 3500 
L 594 3500 
L 594 4494 
L 1172 4494 
z
" transform="scale(0.015625)"/>
     <path id="DejaVuSans-6f" d="M 1959 3097 
Q 1497 3097 1228 2736 
Q 959 2375 959 1747 
Q 959 1119 1226 758 
Q 1494 397 1959 397 
Q 2419 397 2687 759 
Q 2956 1122 2956 1747 
Q 2956 2369 2687 2733 
Q 2419 3097 1959 3097 
z
M 1959 3584 
Q 2709 3584 3137 3096 
Q 3566 2609 3566 1747 
Q 3566 888 3137 398 
Q 2709 -91 1959 -91 
Q 1206 -91 779 398 
Q 353 888 353 1747 
Q 353 2609 779 3096 
Q 1206 3584 1959 3584 
z
" transform="scale(0.015625)"/>
    </defs>
    <use xlink:href="#DejaVuSans-53"/>
    <use xlink:href="#DejaVuSans-32" x="63.476562"/>
    <use xlink:href="#DejaVuSans-31" x="127.099609"/>
    <use xlink:href="#DejaVuSans-20" x="190.722656"/>
    <use xlink:href="#DejaVuSans-4f" x="222.509766"/>
    <use xlink:href="#DejaVuSans-6e" x="301.220703"/>
    <use xlink:href="#DejaVuSans-65" x="364.599609"/>
    <use xlink:href="#DejaVuSans-2d" x="426.123047"/>
    <use xlink:href="#DejaVuSans-74" x="462.207031"/>
    <use xlink:href="#DejaVuSans-6f" x="501.416016"/>
    <use xlink:href="#DejaVuSans-6e" x="562.597656"/>
    <use xlink:href="#DejaVuSans-65" x="625.976562"/>
   </g>
   <!-- tuid: 20240311-112521-047-9e8c82 -->
   <g transform="translate(114.162188 29.7555) scale(0.12 -0.12)">
    <defs>
     <path id="DejaVuSans-69" d="M 603 3500 
L 1178 3500 
L 1178 0 
L 603 0 
L 603 3500 
z
M 603 4863 
L 1178 4863 
L 1178 4134 
L 603 4134 
L 603 4863 
z
" transform="scale(0.015625)"/>
     <path id="DejaVuSans-64" d="M 2906 2969 
L 2906 4863 
L 3481 4863 
L 3481 0 
L 2906 0 
L 2906 525 
Q 2725 213 2448 61 
Q 2172 -91 1784 -91 
Q 1150 -91 751 415 
Q 353 922 353 1747 
Q 353 2572 751 3078 
Q 1150 3584 1784 3584 
Q 2172 3584 2448 3432 
Q 2725 3281 2906 2969 
z
M 947 1747 
Q 947 1113 1208 752 
Q 1469 391 1925 391 
Q 2381 391 2643 752 
Q 2906 1113 2906 1747 
Q 2906 2381 2643 2742 
Q 2381 3103 1925 3103 
Q 1469 3103 1208 2742 
Q 947 2381 947 1747 
z
" transform="scale(0.015625)"/>
     <path id="DejaVuSans-34" d="M 2419 4116 
L 825 1625 
L 2419 1625 
L 2419 4116 
z
M 2253 4666 
L 3047 4666 
L 3047 1625 
L 3713 1625 
L 3713 1100 
L 3047 1100 
L 3047 0 
L 2419 0 
L 2419 1100 
L 313 1100 
L 313 1709 
L 2253 4666 
z
" transform="scale(0.015625)"/>
    </defs>
    <use xlink:href="#DejaVuSans-74"/>
    <use xlink:href="#DejaVuSans-75" x="39.208984"/>
    <use xlink:href="#DejaVuSans-69" x="102.587891"/>
    <use xlink:href="#DejaVuSans-64" x="130.371094"/>
    <use xlink:href="#DejaVuSans-3a" x="193.847656"/>
    <use xlink:href="#DejaVuSans-20" x="227.539062"/>
    <use xlink:href="#DejaVuSans-32" x="259.326172"/>
    <use xlink:href="#DejaVuSans-30" x="322.949219"/>
    <use xlink:href="#DejaVuSans-32" x="386.572266"/>
    <use xlink:href="#DejaVuSans-34" x="450.195312"/>
    <use xlink:href="#DejaVuSans-30" x="513.818359"/>
    <use xlink:href="#DejaVuSans-33" x="577.441406"/>
    <use xlink:href="#DejaVuSans-31" x="641.064453"/>
    <use xlink:href="#DejaVuSans-31" x="704.6875"/>
    <use xlink:href="#DejaVuSans-2d" x="768.310547"/>
    <use xlink:href="#DejaVuSans-31" x="804.394531"/>
    <use xlink:href="#DejaVuSans-31" x="868.017578"/>
    <use xlink:href="#DejaVuSans-32" x="931.640625"/>
    <use xlink:href="#DejaVuSans-35" x="995.263672"/>
    <use xlink:href="#DejaVuSans-32" x="1058.886719"/>
    <use xlink:href="#DejaVuSans-31" x="1122.509766"/>
    <use xlink:href="#DejaVuSans-2d" x="1186.132812"/>
    <use xlink:href="#DejaVuSans-30" x="1222.216797"/>
    <use xlink:href="#DejaVuSans-34" x="1285.839844"/>
    <use xlink:href="#DejaVuSans-37" x="1349.462891"/>
    <use xlink:href="#DejaVuSans-2d" x="1413.085938"/>
    <use xlink:href="#DejaVuSans-39" x="1449.169922"/>
    <use xlink:href="#DejaVuSans-65" x="1512.792969"/>
    <use xlink:href="#DejaVuSans-38" x="1574.316406"/>
    <use xlink:href="#DejaVuSans-63" x="1637.939453"/>
    <use xlink:href="#DejaVuSans-38" x="1692.919922"/>
    <use xlink:href="#DejaVuSans-32" x="1756.542969"/>
   </g>
  </g>
 </g>
 <defs>
  <clipPath id="pa324e368eb">
   <rect x="50.573438" y="41.76" width="357.12" height="120.96"/>
  </clipPath>
  <clipPath id="p5f955574e8">
   <rect x="50.573438" y="186.912" width="357.12" height="120.96"/>
  </clipPath>
 </defs>
</svg>
