<?xml version="1.0" encoding="utf-8" standalone="no"?>
<!DOCTYPE svg PUBLIC "-//W3C//DTD SVG 1.1//EN"
  "http://www.w3.org/Graphics/SVG/1.1/DTD/svg11.dtd">
<svg xmlns:xlink="http://www.w3.org/1999/xlink" width="565.824437pt" height="345.42825pt" viewBox="0 0 565.824437 345.42825" xmlns="http://www.w3.org/2000/svg" version="1.1">
 <metadata>
  <rdf:RDF xmlns:dc="http://purl.org/dc/elements/1.1/" xmlns:cc="http://creativecommons.org/ns#" xmlns:rdf="http://www.w3.org/1999/02/22-rdf-syntax-ns#">
   <cc:Work>
    <dc:type rdf:resource="http://purl.org/dc/dcmitype/StillImage"/>
    <dc:date>2023-12-22T12:37:16.849547</dc:date>
    <dc:format>image/svg+xml</dc:format>
    <dc:creator>
     <cc:Agent>
      <dc:title>Matplotlib v3.8.2, https://matplotlib.org/</dc:title>
     </cc:Agent>
    </dc:creator>
   </cc:Work>
  </rdf:RDF>
 </metadata>
 <defs>
  <style type="text/css">*{stroke-linejoin: round; stroke-linecap: butt}</style>
 </defs>
 <g id="figure_1">
  <g id="patch_1">
   <path d="M 0 345.42825 
L 565.824437 345.42825 
L 565.824437 -0 
L 0 -0 
L 0 345.42825 
z
" style="fill: none; opacity: 0"/>
  </g>
  <g id="axes_1">
   <g id="patch_2">
    <path d="M 37.848438 307.872 
L 394.968438 307.872 
L 394.968438 41.76 
L 37.848438 41.76 
z
" style="fill: #ffffff"/>
   </g>
   <g id="matplotlib.axis_1">
    <g id="xtick_1">
     <g id="line2d_1">
      <defs>
       <path id="m30072ebdfa" d="M 0 0 
L 0 3.5 
" style="stroke: #000000; stroke-width: 0.8"/>
      </defs>
      <g>
       <use xlink:href="#m30072ebdfa" x="39.922639" y="307.872" style="stroke: #000000; stroke-width: 0.8"/>
      </g>
     </g>
     <g id="text_1">
      <!-- -8 -->
      <g transform="translate(34.937483 322.470438) scale(0.1 -0.1)">
       <defs>
        <path id="DejaVuSans-2d" d="M 313 2009 
L 1997 2009 
L 1997 1497 
L 313 1497 
L 313 2009 
z
" transform="scale(0.015625)"/>
        <path id="DejaVuSans-38" d="M 2034 2216 
Q 1584 2216 1326 1975 
Q 1069 1734 1069 1313 
Q 1069 891 1326 650 
Q 1584 409 2034 409 
Q 2484 409 2743 651 
Q 3003 894 3003 1313 
Q 3003 1734 2745 1975 
Q 2488 2216 2034 2216 
z
M 1403 2484 
Q 997 2584 770 2862 
Q 544 3141 544 3541 
Q 544 4100 942 4425 
Q 1341 4750 2034 4750 
Q 2731 4750 3128 4425 
Q 3525 4100 3525 3541 
Q 3525 3141 3298 2862 
Q 3072 2584 2669 2484 
Q 3125 2378 3379 2068 
Q 3634 1759 3634 1313 
Q 3634 634 3220 271 
Q 2806 -91 2034 -91 
Q 1263 -91 848 271 
Q 434 634 434 1313 
Q 434 1759 690 2068 
Q 947 2378 1403 2484 
z
M 1172 3481 
Q 1172 3119 1398 2916 
Q 1625 2713 2034 2713 
Q 2441 2713 2670 2916 
Q 2900 3119 2900 3481 
Q 2900 3844 2670 4047 
Q 2441 4250 2034 4250 
Q 1625 4250 1398 4047 
Q 1172 3844 1172 3481 
z
" transform="scale(0.015625)"/>
       </defs>
       <use xlink:href="#DejaVuSans-2d"/>
       <use xlink:href="#DejaVuSans-38" x="36.083984"/>
      </g>
     </g>
    </g>
    <g id="xtick_2">
     <g id="line2d_2">
      <g>
       <use xlink:href="#m30072ebdfa" x="80.428715" y="307.872" style="stroke: #000000; stroke-width: 0.8"/>
      </g>
     </g>
     <g id="text_2">
      <!-- -7 -->
      <g transform="translate(75.443558 322.470438) scale(0.1 -0.1)">
       <defs>
        <path id="DejaVuSans-37" d="M 525 4666 
L 3525 4666 
L 3525 4397 
L 1831 0 
L 1172 0 
L 2766 4134 
L 525 4134 
L 525 4666 
z
" transform="scale(0.015625)"/>
       </defs>
       <use xlink:href="#DejaVuSans-2d"/>
       <use xlink:href="#DejaVuSans-37" x="36.083984"/>
      </g>
     </g>
    </g>
    <g id="xtick_3">
     <g id="line2d_3">
      <g>
       <use xlink:href="#m30072ebdfa" x="120.93479" y="307.872" style="stroke: #000000; stroke-width: 0.8"/>
      </g>
     </g>
     <g id="text_3">
      <!-- -6 -->
      <g transform="translate(115.949634 322.470438) scale(0.1 -0.1)">
       <defs>
        <path id="DejaVuSans-36" d="M 2113 2584 
Q 1688 2584 1439 2293 
Q 1191 2003 1191 1497 
Q 1191 994 1439 701 
Q 1688 409 2113 409 
Q 2538 409 2786 701 
Q 3034 994 3034 1497 
Q 3034 2003 2786 2293 
Q 2538 2584 2113 2584 
z
M 3366 4563 
L 3366 3988 
Q 3128 4100 2886 4159 
Q 2644 4219 2406 4219 
Q 1781 4219 1451 3797 
Q 1122 3375 1075 2522 
Q 1259 2794 1537 2939 
Q 1816 3084 2150 3084 
Q 2853 3084 3261 2657 
Q 3669 2231 3669 1497 
Q 3669 778 3244 343 
Q 2819 -91 2113 -91 
Q 1303 -91 875 529 
Q 447 1150 447 2328 
Q 447 3434 972 4092 
Q 1497 4750 2381 4750 
Q 2619 4750 2861 4703 
Q 3103 4656 3366 4563 
z
" transform="scale(0.015625)"/>
       </defs>
       <use xlink:href="#DejaVuSans-2d"/>
       <use xlink:href="#DejaVuSans-36" x="36.083984"/>
      </g>
     </g>
    </g>
    <g id="xtick_4">
     <g id="line2d_4">
      <g>
       <use xlink:href="#m30072ebdfa" x="161.440866" y="307.872" style="stroke: #000000; stroke-width: 0.8"/>
      </g>
     </g>
     <g id="text_4">
      <!-- -5 -->
      <g transform="translate(156.45571 322.470438) scale(0.1 -0.1)">
       <defs>
        <path id="DejaVuSans-35" d="M 691 4666 
L 3169 4666 
L 3169 4134 
L 1269 4134 
L 1269 2991 
Q 1406 3038 1543 3061 
Q 1681 3084 1819 3084 
Q 2600 3084 3056 2656 
Q 3513 2228 3513 1497 
Q 3513 744 3044 326 
Q 2575 -91 1722 -91 
Q 1428 -91 1123 -41 
Q 819 9 494 109 
L 494 744 
Q 775 591 1075 516 
Q 1375 441 1709 441 
Q 2250 441 2565 725 
Q 2881 1009 2881 1497 
Q 2881 1984 2565 2268 
Q 2250 2553 1709 2553 
Q 1456 2553 1204 2497 
Q 953 2441 691 2322 
L 691 4666 
z
" transform="scale(0.015625)"/>
       </defs>
       <use xlink:href="#DejaVuSans-2d"/>
       <use xlink:href="#DejaVuSans-35" x="36.083984"/>
      </g>
     </g>
    </g>
    <g id="xtick_5">
     <g id="line2d_5">
      <g>
       <use xlink:href="#m30072ebdfa" x="201.946941" y="307.872" style="stroke: #000000; stroke-width: 0.8"/>
      </g>
     </g>
     <g id="text_5">
      <!-- -4 -->
      <g transform="translate(196.961785 322.470438) scale(0.1 -0.1)">
       <defs>
        <path id="DejaVuSans-34" d="M 2419 4116 
L 825 1625 
L 2419 1625 
L 2419 4116 
z
M 2253 4666 
L 3047 4666 
L 3047 1625 
L 3713 1625 
L 3713 1100 
L 3047 1100 
L 3047 0 
L 2419 0 
L 2419 1100 
L 313 1100 
L 313 1709 
L 2253 4666 
z
" transform="scale(0.015625)"/>
       </defs>
       <use xlink:href="#DejaVuSans-2d"/>
       <use xlink:href="#DejaVuSans-34" x="36.083984"/>
      </g>
     </g>
    </g>
    <g id="xtick_6">
     <g id="line2d_6">
      <g>
       <use xlink:href="#m30072ebdfa" x="242.453017" y="307.872" style="stroke: #000000; stroke-width: 0.8"/>
      </g>
     </g>
     <g id="text_6">
      <!-- -3 -->
      <g transform="translate(237.467861 322.470438) scale(0.1 -0.1)">
       <defs>
        <path id="DejaVuSans-33" d="M 2597 2516 
Q 3050 2419 3304 2112 
Q 3559 1806 3559 1356 
Q 3559 666 3084 287 
Q 2609 -91 1734 -91 
Q 1441 -91 1130 -33 
Q 819 25 488 141 
L 488 750 
Q 750 597 1062 519 
Q 1375 441 1716 441 
Q 2309 441 2620 675 
Q 2931 909 2931 1356 
Q 2931 1769 2642 2001 
Q 2353 2234 1838 2234 
L 1294 2234 
L 1294 2753 
L 1863 2753 
Q 2328 2753 2575 2939 
Q 2822 3125 2822 3475 
Q 2822 3834 2567 4026 
Q 2313 4219 1838 4219 
Q 1578 4219 1281 4162 
Q 984 4106 628 3988 
L 628 4550 
Q 988 4650 1302 4700 
Q 1616 4750 1894 4750 
Q 2613 4750 3031 4423 
Q 3450 4097 3450 3541 
Q 3450 3153 3228 2886 
Q 3006 2619 2597 2516 
z
" transform="scale(0.015625)"/>
       </defs>
       <use xlink:href="#DejaVuSans-2d"/>
       <use xlink:href="#DejaVuSans-33" x="36.083984"/>
      </g>
     </g>
    </g>
    <g id="xtick_7">
     <g id="line2d_7">
      <g>
       <use xlink:href="#m30072ebdfa" x="282.959093" y="307.872" style="stroke: #000000; stroke-width: 0.8"/>
      </g>
     </g>
     <g id="text_7">
      <!-- -2 -->
      <g transform="translate(277.973936 322.470438) scale(0.1 -0.1)">
       <defs>
        <path id="DejaVuSans-32" d="M 1228 531 
L 3431 531 
L 3431 0 
L 469 0 
L 469 531 
Q 828 903 1448 1529 
Q 2069 2156 2228 2338 
Q 2531 2678 2651 2914 
Q 2772 3150 2772 3378 
Q 2772 3750 2511 3984 
Q 2250 4219 1831 4219 
Q 1534 4219 1204 4116 
Q 875 4013 500 3803 
L 500 4441 
Q 881 4594 1212 4672 
Q 1544 4750 1819 4750 
Q 2544 4750 2975 4387 
Q 3406 4025 3406 3419 
Q 3406 3131 3298 2873 
Q 3191 2616 2906 2266 
Q 2828 2175 2409 1742 
Q 1991 1309 1228 531 
z
" transform="scale(0.015625)"/>
       </defs>
       <use xlink:href="#DejaVuSans-2d"/>
       <use xlink:href="#DejaVuSans-32" x="36.083984"/>
      </g>
     </g>
    </g>
    <g id="xtick_8">
     <g id="line2d_8">
      <g>
       <use xlink:href="#m30072ebdfa" x="323.465168" y="307.872" style="stroke: #000000; stroke-width: 0.8"/>
      </g>
     </g>
     <g id="text_8">
      <!-- -1 -->
      <g transform="translate(318.480012 322.470438) scale(0.1 -0.1)">
       <defs>
        <path id="DejaVuSans-31" d="M 794 531 
L 1825 531 
L 1825 4091 
L 703 3866 
L 703 4441 
L 1819 4666 
L 2450 4666 
L 2450 531 
L 3481 531 
L 3481 0 
L 794 0 
L 794 531 
z
" transform="scale(0.015625)"/>
       </defs>
       <use xlink:href="#DejaVuSans-2d"/>
       <use xlink:href="#DejaVuSans-31" x="36.083984"/>
      </g>
     </g>
    </g>
    <g id="xtick_9">
     <g id="line2d_9">
      <g>
       <use xlink:href="#m30072ebdfa" x="363.971244" y="307.872" style="stroke: #000000; stroke-width: 0.8"/>
      </g>
     </g>
     <g id="text_9">
      <!-- 0 -->
      <g transform="translate(360.789994 322.470438) scale(0.1 -0.1)">
       <defs>
        <path id="DejaVuSans-30" d="M 2034 4250 
Q 1547 4250 1301 3770 
Q 1056 3291 1056 2328 
Q 1056 1369 1301 889 
Q 1547 409 2034 409 
Q 2525 409 2770 889 
Q 3016 1369 3016 2328 
Q 3016 3291 2770 3770 
Q 2525 4250 2034 4250 
z
M 2034 4750 
Q 2819 4750 3233 4129 
Q 3647 3509 3647 2328 
Q 3647 1150 3233 529 
Q 2819 -91 2034 -91 
Q 1250 -91 836 529 
Q 422 1150 422 2328 
Q 422 3509 836 4129 
Q 1250 4750 2034 4750 
z
" transform="scale(0.015625)"/>
       </defs>
       <use xlink:href="#DejaVuSans-30"/>
      </g>
     </g>
    </g>
    <g id="text_10">
     <!-- Re$(S_{21})$ [mV] -->
     <g transform="translate(184.408438 336.148562) scale(0.1 -0.1)">
      <defs>
       <path id="DejaVuSans-52" d="M 2841 2188 
Q 3044 2119 3236 1894 
Q 3428 1669 3622 1275 
L 4263 0 
L 3584 0 
L 2988 1197 
Q 2756 1666 2539 1819 
Q 2322 1972 1947 1972 
L 1259 1972 
L 1259 0 
L 628 0 
L 628 4666 
L 2053 4666 
Q 2853 4666 3247 4331 
Q 3641 3997 3641 3322 
Q 3641 2881 3436 2590 
Q 3231 2300 2841 2188 
z
M 1259 4147 
L 1259 2491 
L 2053 2491 
Q 2509 2491 2742 2702 
Q 2975 2913 2975 3322 
Q 2975 3731 2742 3939 
Q 2509 4147 2053 4147 
L 1259 4147 
z
" transform="scale(0.015625)"/>
       <path id="DejaVuSans-65" d="M 3597 1894 
L 3597 1613 
L 953 1613 
Q 991 1019 1311 708 
Q 1631 397 2203 397 
Q 2534 397 2845 478 
Q 3156 559 3463 722 
L 3463 178 
Q 3153 47 2828 -22 
Q 2503 -91 2169 -91 
Q 1331 -91 842 396 
Q 353 884 353 1716 
Q 353 2575 817 3079 
Q 1281 3584 2069 3584 
Q 2775 3584 3186 3129 
Q 3597 2675 3597 1894 
z
M 3022 2063 
Q 3016 2534 2758 2815 
Q 2500 3097 2075 3097 
Q 1594 3097 1305 2825 
Q 1016 2553 972 2059 
L 3022 2063 
z
" transform="scale(0.015625)"/>
       <path id="DejaVuSans-28" d="M 1984 4856 
Q 1566 4138 1362 3434 
Q 1159 2731 1159 2009 
Q 1159 1288 1364 580 
Q 1569 -128 1984 -844 
L 1484 -844 
Q 1016 -109 783 600 
Q 550 1309 550 2009 
Q 550 2706 781 3412 
Q 1013 4119 1484 4856 
L 1984 4856 
z
" transform="scale(0.015625)"/>
       <path id="DejaVuSans-Oblique-53" d="M 3859 4513 
L 3738 3897 
Q 3422 4066 3111 4152 
Q 2800 4238 2509 4238 
Q 1944 4238 1609 3991 
Q 1275 3744 1275 3334 
Q 1275 3109 1398 2989 
Q 1522 2869 2034 2731 
L 2413 2638 
Q 3053 2472 3303 2217 
Q 3553 1963 3553 1503 
Q 3553 797 2998 353 
Q 2444 -91 1538 -91 
Q 1166 -91 791 -17 
Q 416 56 38 206 
L 166 856 
Q 513 641 861 531 
Q 1209 422 1556 422 
Q 2147 422 2503 684 
Q 2859 947 2859 1369 
Q 2859 1650 2717 1795 
Q 2575 1941 2106 2059 
L 1728 2156 
Q 1081 2325 845 2545 
Q 609 2766 609 3163 
Q 609 3859 1145 4304 
Q 1681 4750 2541 4750 
Q 2875 4750 3203 4690 
Q 3531 4631 3859 4513 
z
" transform="scale(0.015625)"/>
       <path id="DejaVuSans-29" d="M 513 4856 
L 1013 4856 
Q 1481 4119 1714 3412 
Q 1947 2706 1947 2009 
Q 1947 1309 1714 600 
Q 1481 -109 1013 -844 
L 513 -844 
Q 928 -128 1133 580 
Q 1338 1288 1338 2009 
Q 1338 2731 1133 3434 
Q 928 4138 513 4856 
z
" transform="scale(0.015625)"/>
       <path id="DejaVuSans-20" transform="scale(0.015625)"/>
       <path id="DejaVuSans-5b" d="M 550 4863 
L 1875 4863 
L 1875 4416 
L 1125 4416 
L 1125 -397 
L 1875 -397 
L 1875 -844 
L 550 -844 
L 550 4863 
z
" transform="scale(0.015625)"/>
       <path id="DejaVuSans-6d" d="M 3328 2828 
Q 3544 3216 3844 3400 
Q 4144 3584 4550 3584 
Q 5097 3584 5394 3201 
Q 5691 2819 5691 2113 
L 5691 0 
L 5113 0 
L 5113 2094 
Q 5113 2597 4934 2840 
Q 4756 3084 4391 3084 
Q 3944 3084 3684 2787 
Q 3425 2491 3425 1978 
L 3425 0 
L 2847 0 
L 2847 2094 
Q 2847 2600 2669 2842 
Q 2491 3084 2119 3084 
Q 1678 3084 1418 2786 
Q 1159 2488 1159 1978 
L 1159 0 
L 581 0 
L 581 3500 
L 1159 3500 
L 1159 2956 
Q 1356 3278 1631 3431 
Q 1906 3584 2284 3584 
Q 2666 3584 2933 3390 
Q 3200 3197 3328 2828 
z
" transform="scale(0.015625)"/>
       <path id="DejaVuSans-56" d="M 1831 0 
L 50 4666 
L 709 4666 
L 2188 738 
L 3669 4666 
L 4325 4666 
L 2547 0 
L 1831 0 
z
" transform="scale(0.015625)"/>
       <path id="DejaVuSans-5d" d="M 1947 4863 
L 1947 -844 
L 622 -844 
L 622 -397 
L 1369 -397 
L 1369 4416 
L 622 4416 
L 622 4863 
L 1947 4863 
z
" transform="scale(0.015625)"/>
      </defs>
      <use xlink:href="#DejaVuSans-52" transform="translate(0 0.015625)"/>
      <use xlink:href="#DejaVuSans-65" transform="translate(69.482422 0.015625)"/>
      <use xlink:href="#DejaVuSans-28" transform="translate(131.005859 0.015625)"/>
      <use xlink:href="#DejaVuSans-Oblique-53" transform="translate(170.019531 0.015625)"/>
      <use xlink:href="#DejaVuSans-32" transform="translate(233.496094 -16.390625) scale(0.7)"/>
      <use xlink:href="#DejaVuSans-31" transform="translate(278.032227 -16.390625) scale(0.7)"/>
      <use xlink:href="#DejaVuSans-29" transform="translate(325.302734 0.015625)"/>
      <use xlink:href="#DejaVuSans-20" transform="translate(364.316406 0.015625)"/>
      <use xlink:href="#DejaVuSans-5b" transform="translate(396.103516 0.015625)"/>
      <use xlink:href="#DejaVuSans-6d" transform="translate(435.117188 0.015625)"/>
      <use xlink:href="#DejaVuSans-56" transform="translate(532.529297 0.015625)"/>
      <use xlink:href="#DejaVuSans-5d" transform="translate(600.9375 0.015625)"/>
     </g>
    </g>
   </g>
   <g id="matplotlib.axis_2">
    <g id="ytick_1">
     <g id="line2d_10">
      <defs>
       <path id="m9b73b1496c" d="M 0 0 
L -3.5 0 
" style="stroke: #000000; stroke-width: 0.8"/>
      </defs>
      <g>
       <use xlink:href="#m9b73b1496c" x="37.848438" y="287.546631" style="stroke: #000000; stroke-width: 0.8"/>
      </g>
     </g>
     <g id="text_11">
      <!-- -8 -->
      <g transform="translate(20.878125 291.345849) scale(0.1 -0.1)">
       <use xlink:href="#DejaVuSans-2d"/>
       <use xlink:href="#DejaVuSans-38" x="36.083984"/>
      </g>
     </g>
    </g>
    <g id="ytick_2">
     <g id="line2d_11">
      <g>
       <use xlink:href="#m9b73b1496c" x="37.848438" y="229.453693" style="stroke: #000000; stroke-width: 0.8"/>
      </g>
     </g>
     <g id="text_12">
      <!-- -6 -->
      <g transform="translate(20.878125 233.252912) scale(0.1 -0.1)">
       <use xlink:href="#DejaVuSans-2d"/>
       <use xlink:href="#DejaVuSans-36" x="36.083984"/>
      </g>
     </g>
    </g>
    <g id="ytick_3">
     <g id="line2d_12">
      <g>
       <use xlink:href="#m9b73b1496c" x="37.848438" y="171.360756" style="stroke: #000000; stroke-width: 0.8"/>
      </g>
     </g>
     <g id="text_13">
      <!-- -4 -->
      <g transform="translate(20.878125 175.159974) scale(0.1 -0.1)">
       <use xlink:href="#DejaVuSans-2d"/>
       <use xlink:href="#DejaVuSans-34" x="36.083984"/>
      </g>
     </g>
    </g>
    <g id="ytick_4">
     <g id="line2d_13">
      <g>
       <use xlink:href="#m9b73b1496c" x="37.848438" y="113.267818" style="stroke: #000000; stroke-width: 0.8"/>
      </g>
     </g>
     <g id="text_14">
      <!-- -2 -->
      <g transform="translate(20.878125 117.067037) scale(0.1 -0.1)">
       <use xlink:href="#DejaVuSans-2d"/>
       <use xlink:href="#DejaVuSans-32" x="36.083984"/>
      </g>
     </g>
    </g>
    <g id="ytick_5">
     <g id="line2d_14">
      <g>
       <use xlink:href="#m9b73b1496c" x="37.848438" y="55.17488" style="stroke: #000000; stroke-width: 0.8"/>
      </g>
     </g>
     <g id="text_15">
      <!-- 0 -->
      <g transform="translate(24.485938 58.974099) scale(0.1 -0.1)">
       <use xlink:href="#DejaVuSans-30"/>
      </g>
     </g>
    </g>
    <g id="text_16">
     <!-- Im$(S_{21})$ [mV] -->
     <g transform="translate(14.798438 206.466) rotate(-90) scale(0.1 -0.1)">
      <defs>
       <path id="DejaVuSans-49" d="M 628 4666 
L 1259 4666 
L 1259 0 
L 628 0 
L 628 4666 
z
" transform="scale(0.015625)"/>
      </defs>
      <use xlink:href="#DejaVuSans-49" transform="translate(0 0.015625)"/>
      <use xlink:href="#DejaVuSans-6d" transform="translate(25.867188 0.015625)"/>
      <use xlink:href="#DejaVuSans-28" transform="translate(123.279297 0.015625)"/>
      <use xlink:href="#DejaVuSans-Oblique-53" transform="translate(162.292969 0.015625)"/>
      <use xlink:href="#DejaVuSans-32" transform="translate(225.769531 -16.390625) scale(0.7)"/>
      <use xlink:href="#DejaVuSans-31" transform="translate(270.305664 -16.390625) scale(0.7)"/>
      <use xlink:href="#DejaVuSans-29" transform="translate(317.576172 0.015625)"/>
      <use xlink:href="#DejaVuSans-20" transform="translate(356.589844 0.015625)"/>
      <use xlink:href="#DejaVuSans-5b" transform="translate(388.376953 0.015625)"/>
      <use xlink:href="#DejaVuSans-6d" transform="translate(427.390625 0.015625)"/>
      <use xlink:href="#DejaVuSans-56" transform="translate(524.802734 0.015625)"/>
      <use xlink:href="#DejaVuSans-5d" transform="translate(593.210938 0.015625)"/>
     </g>
    </g>
   </g>
   <g id="line2d_15">
    <path d="M 375.499005 293.209656 
L 372.470436 294.556928 
L 368.353921 294.180086 
L 368.681479 292.783112 
L 364.467936 295.776 
L 361.419988 290.141013 
L 359.315083 293.779915 
L 356.681667 293.907254 
L 355.223726 292.496743 
L 353.282138 291.895626 
L 352.044714 293.090736 
L 348.294436 290.133947 
L 343.505577 294.793623 
L 341.76931 294.068904 
L 338.221714 292.122114 
L 334.264704 291.743692 
L 331.393621 291.048355 
L 328.134349 292.127014 
L 327.965861 291.864541 
L 325.128549 291.86771 
L 322.649361 292.954713 
L 321.292602 290.459858 
L 316.175222 289.184566 
L 314.887933 290.685759 
L 309.743997 292.84059 
L 309.994883 291.039519 
L 305.684881 290.047039 
L 299.256044 289.033341 
L 299.13101 290.100364 
L 294.148387 287.617107 
L 292.508158 286.970412 
L 288.370773 288.159724 
L 285.936754 287.187478 
L 282.76393 285.618108 
L 280.074329 287.913134 
L 275.544984 285.481933 
L 273.958631 286.138494 
L 271.616336 284.889208 
L 269.773029 284.202772 
L 264.581708 283.932306 
L 260.737661 282.777381 
L 260.407136 284.132316 
L 257.05027 283.559559 
L 254.983292 282.595951 
L 251.73844 281.328397 
L 248.402166 280.558384 
L 244.823068 278.316021 
L 243.133145 278.318888 
L 238.036621 274.890477 
L 236.077964 276.178322 
L 232.239273 276.230418 
L 227.669005 275.434097 
L 226.389024 274.129508 
L 222.003893 274.515877 
L 218.742168 272.887941 
L 214.559522 270.425059 
L 213.631305 271.092026 
L 208.014819 270.077788 
L 204.877547 266.614556 
L 201.880269 265.260057 
L 194.389079 264.201689 
L 190.21535 262.857378 
L 184.697092 259.999179 
L 180.14284 259.667526 
L 178.991098 258.284903 
L 171.233825 254.872764 
L 170.122516 252.741355 
L 163.534531 250.004403 
L 159.66158 247.146299 
L 154.243502 246.921117 
L 149.874782 243.42801 
L 145.377743 241.395562 
L 139.122328 236.837834 
L 133.829059 233.322374 
L 132.335513 230.359928 
L 120.991621 226.115019 
L 115.593938 222.218687 
L 112.563455 213.913601 
L 107.898443 210.619321 
L 100.818013 202.615825 
L 92.367183 194.768482 
L 88.423563 186.209362 
L 83.254602 175.858536 
L 79.546301 164.322485 
L 79.552013 149.272082 
L 82.130339 135.501104 
L 85.391787 119.418499 
L 96.134571 105.077594 
L 106.522516 87.701098 
L 131.995436 74.518731 
L 156.956452 62.111921 
L 187.026788 54.314611 
L 220.026107 54.512644 
L 252.796808 57.837185 
L 282.659898 67.762734 
L 305.510034 80.58538 
L 320.124542 94.975685 
L 336.195289 105.264586 
L 341.71835 122.285098 
L 346.542207 139.337575 
L 340.927963 151.425201 
L 336.978591 165.762899 
L 333.625393 173.517327 
L 326.340183 183.654048 
L 319.277298 190.200387 
L 311.630534 196.519803 
L 305.214348 202.129929 
L 294.212671 205.832183 
L 286.79475 208.701725 
L 282.710014 212.346775 
L 277.532096 214.266453 
L 270.307715 215.491854 
L 259.130624 219.096208 
L 255.108933 219.909963 
L 246.202504 221.293333 
L 242.236549 220.184573 
L 237.557171 221.507325 
L 233.281547 222.018232 
L 226.129497 220.666145 
L 222.760534 219.829497 
L 218.731205 220.792416 
L 213.07265 221.102311 
L 209.428831 220.363146 
L 206.168056 220.242543 
L 199.614343 219.373646 
L 196.839575 218.886833 
L 193.112211 217.443146 
L 190.234993 216.994343 
L 187.976996 217.896301 
L 183.600717 215.134536 
L 180.939848 215.161279 
L 181.099538 214.000281 
L 174.705052 214.004339 
L 170.315133 214.491957 
L 169.100874 211.842811 
L 167.329926 210.39132 
L 164.875829 208.726793 
L 160.34362 207.306416 
L 157.316832 207.099765 
L 156.926665 206.475094 
L 155.487983 206.537292 
L 150.284367 204.216432 
L 146.695177 204.526431 
L 144.649887 203.457175 
L 145.659775 200.642812 
L 144.757969 200.742434 
L 135.491965 197.421611 
L 138.234756 196.727513 
L 133.433761 196.846556 
L 130.784673 195.979012 
L 130.009127 196.633359 
L 125.801786 194.348531 
L 123.468514 192.311797 
L 122.630518 192.23171 
L 119.945139 190.497436 
L 118.440985 188.482838 
L 116.364312 187.398285 
L 115.9304 186.50834 
L 113.712942 184.677509 
L 107.97282 183.918876 
L 108.196939 181.851351 
L 107.417357 181.104202 
L 105.394322 179.589264 
L 104.603237 177.33309 
L 103.298032 176.633704 
L 98.800822 174.981721 
L 96.346066 174.748441 
L 99.241264 172.9509 
L 96.151523 170.724552 
L 94.94514 168.960612 
L 89.85888 168.356383 
L 91.882033 165.374373 
L 86.772714 165.632646 
L 87.561069 166.502224 
L 86.033935 161.882904 
L 83.462733 162.751015 
L 79.899543 159.567369 
L 79.524508 157.509133 
L 80.241823 156.868521 
L 77.711384 154.817257 
L 77.987414 153.0487 
L 75.440683 153.116726 
L 73.886729 151.06128 
L 69.924522 148.919334 
L 69.922912 147.253407 
L 70.843095 144.598169 
L 70.51807 143.291234 
L 67.548337 142.359429 
L 64.439401 142.110654 
L 64.524252 139.547432 
L 63.773666 136.571562 
L 62.786996 136.770418 
L 61.881312 131.908424 
L 63.187189 130.437417 
L 61.259955 130.468057 
L 54.081165 128.031465 
L 54.081165 128.031465 
" clip-path="url(#pb0fdada5a6)" style="fill: none; stroke: #1f77b4; stroke-width: 1.5; stroke-linecap: square"/>
    <defs>
     <path id="m09a494419b" d="M 0 1.5 
C 0.397805 1.5 0.77937 1.341951 1.06066 1.06066 
C 1.341951 0.77937 1.5 0.397805 1.5 0 
C 1.5 -0.397805 1.341951 -0.77937 1.06066 -1.06066 
C 0.77937 -1.341951 0.397805 -1.5 0 -1.5 
C -0.397805 -1.5 -0.77937 -1.341951 -1.06066 -1.06066 
C -1.341951 -0.77937 -1.5 -0.397805 -1.5 0 
C -1.5 0.397805 -1.341951 0.77937 -1.06066 1.06066 
C -0.77937 1.341951 -0.397805 1.5 0 1.5 
z
" style="stroke: #1f77b4"/>
    </defs>
    <g clip-path="url(#pb0fdada5a6)">
     <use xlink:href="#m09a494419b" x="375.499005" y="293.209656" style="fill: #1f77b4; stroke: #1f77b4"/>
     <use xlink:href="#m09a494419b" x="372.470436" y="294.556928" style="fill: #1f77b4; stroke: #1f77b4"/>
     <use xlink:href="#m09a494419b" x="368.353921" y="294.180086" style="fill: #1f77b4; stroke: #1f77b4"/>
     <use xlink:href="#m09a494419b" x="368.681479" y="292.783112" style="fill: #1f77b4; stroke: #1f77b4"/>
     <use xlink:href="#m09a494419b" x="364.467936" y="295.776" style="fill: #1f77b4; stroke: #1f77b4"/>
     <use xlink:href="#m09a494419b" x="361.419988" y="290.141013" style="fill: #1f77b4; stroke: #1f77b4"/>
     <use xlink:href="#m09a494419b" x="359.315083" y="293.779915" style="fill: #1f77b4; stroke: #1f77b4"/>
     <use xlink:href="#m09a494419b" x="356.681667" y="293.907254" style="fill: #1f77b4; stroke: #1f77b4"/>
     <use xlink:href="#m09a494419b" x="355.223726" y="292.496743" style="fill: #1f77b4; stroke: #1f77b4"/>
     <use xlink:href="#m09a494419b" x="353.282138" y="291.895626" style="fill: #1f77b4; stroke: #1f77b4"/>
     <use xlink:href="#m09a494419b" x="352.044714" y="293.090736" style="fill: #1f77b4; stroke: #1f77b4"/>
     <use xlink:href="#m09a494419b" x="348.294436" y="290.133947" style="fill: #1f77b4; stroke: #1f77b4"/>
     <use xlink:href="#m09a494419b" x="343.505577" y="294.793623" style="fill: #1f77b4; stroke: #1f77b4"/>
     <use xlink:href="#m09a494419b" x="341.76931" y="294.068904" style="fill: #1f77b4; stroke: #1f77b4"/>
     <use xlink:href="#m09a494419b" x="339.98488" y="293.027554" style="fill: #1f77b4; stroke: #1f77b4"/>
     <use xlink:href="#m09a494419b" x="338.221714" y="292.122114" style="fill: #1f77b4; stroke: #1f77b4"/>
     <use xlink:href="#m09a494419b" x="334.264704" y="291.743692" style="fill: #1f77b4; stroke: #1f77b4"/>
     <use xlink:href="#m09a494419b" x="331.393621" y="291.048355" style="fill: #1f77b4; stroke: #1f77b4"/>
     <use xlink:href="#m09a494419b" x="328.134349" y="292.127014" style="fill: #1f77b4; stroke: #1f77b4"/>
     <use xlink:href="#m09a494419b" x="327.965861" y="291.864541" style="fill: #1f77b4; stroke: #1f77b4"/>
     <use xlink:href="#m09a494419b" x="325.128549" y="291.86771" style="fill: #1f77b4; stroke: #1f77b4"/>
     <use xlink:href="#m09a494419b" x="322.649361" y="292.954713" style="fill: #1f77b4; stroke: #1f77b4"/>
     <use xlink:href="#m09a494419b" x="321.292602" y="290.459858" style="fill: #1f77b4; stroke: #1f77b4"/>
     <use xlink:href="#m09a494419b" x="316.175222" y="289.184566" style="fill: #1f77b4; stroke: #1f77b4"/>
     <use xlink:href="#m09a494419b" x="314.887933" y="290.685759" style="fill: #1f77b4; stroke: #1f77b4"/>
     <use xlink:href="#m09a494419b" x="309.743997" y="292.84059" style="fill: #1f77b4; stroke: #1f77b4"/>
     <use xlink:href="#m09a494419b" x="309.994883" y="291.039519" style="fill: #1f77b4; stroke: #1f77b4"/>
     <use xlink:href="#m09a494419b" x="305.684881" y="290.047039" style="fill: #1f77b4; stroke: #1f77b4"/>
     <use xlink:href="#m09a494419b" x="303.58834" y="289.69973" style="fill: #1f77b4; stroke: #1f77b4"/>
     <use xlink:href="#m09a494419b" x="299.256044" y="289.033341" style="fill: #1f77b4; stroke: #1f77b4"/>
     <use xlink:href="#m09a494419b" x="299.13101" y="290.100364" style="fill: #1f77b4; stroke: #1f77b4"/>
     <use xlink:href="#m09a494419b" x="294.148387" y="287.617107" style="fill: #1f77b4; stroke: #1f77b4"/>
     <use xlink:href="#m09a494419b" x="292.508158" y="286.970412" style="fill: #1f77b4; stroke: #1f77b4"/>
     <use xlink:href="#m09a494419b" x="288.370773" y="288.159724" style="fill: #1f77b4; stroke: #1f77b4"/>
     <use xlink:href="#m09a494419b" x="285.936754" y="287.187478" style="fill: #1f77b4; stroke: #1f77b4"/>
     <use xlink:href="#m09a494419b" x="282.76393" y="285.618108" style="fill: #1f77b4; stroke: #1f77b4"/>
     <use xlink:href="#m09a494419b" x="280.074329" y="287.913134" style="fill: #1f77b4; stroke: #1f77b4"/>
     <use xlink:href="#m09a494419b" x="275.544984" y="285.481933" style="fill: #1f77b4; stroke: #1f77b4"/>
     <use xlink:href="#m09a494419b" x="273.958631" y="286.138494" style="fill: #1f77b4; stroke: #1f77b4"/>
     <use xlink:href="#m09a494419b" x="271.616336" y="284.889208" style="fill: #1f77b4; stroke: #1f77b4"/>
     <use xlink:href="#m09a494419b" x="269.773029" y="284.202772" style="fill: #1f77b4; stroke: #1f77b4"/>
     <use xlink:href="#m09a494419b" x="264.581708" y="283.932306" style="fill: #1f77b4; stroke: #1f77b4"/>
     <use xlink:href="#m09a494419b" x="260.737661" y="282.777381" style="fill: #1f77b4; stroke: #1f77b4"/>
     <use xlink:href="#m09a494419b" x="260.407136" y="284.132316" style="fill: #1f77b4; stroke: #1f77b4"/>
     <use xlink:href="#m09a494419b" x="257.05027" y="283.559559" style="fill: #1f77b4; stroke: #1f77b4"/>
     <use xlink:href="#m09a494419b" x="254.983292" y="282.595951" style="fill: #1f77b4; stroke: #1f77b4"/>
     <use xlink:href="#m09a494419b" x="251.73844" y="281.328397" style="fill: #1f77b4; stroke: #1f77b4"/>
     <use xlink:href="#m09a494419b" x="248.402166" y="280.558384" style="fill: #1f77b4; stroke: #1f77b4"/>
     <use xlink:href="#m09a494419b" x="244.823068" y="278.316021" style="fill: #1f77b4; stroke: #1f77b4"/>
     <use xlink:href="#m09a494419b" x="243.133145" y="278.318888" style="fill: #1f77b4; stroke: #1f77b4"/>
     <use xlink:href="#m09a494419b" x="238.036621" y="274.890477" style="fill: #1f77b4; stroke: #1f77b4"/>
     <use xlink:href="#m09a494419b" x="236.077964" y="276.178322" style="fill: #1f77b4; stroke: #1f77b4"/>
     <use xlink:href="#m09a494419b" x="232.239273" y="276.230418" style="fill: #1f77b4; stroke: #1f77b4"/>
     <use xlink:href="#m09a494419b" x="227.669005" y="275.434097" style="fill: #1f77b4; stroke: #1f77b4"/>
     <use xlink:href="#m09a494419b" x="226.389024" y="274.129508" style="fill: #1f77b4; stroke: #1f77b4"/>
     <use xlink:href="#m09a494419b" x="222.003893" y="274.515877" style="fill: #1f77b4; stroke: #1f77b4"/>
     <use xlink:href="#m09a494419b" x="218.742168" y="272.887941" style="fill: #1f77b4; stroke: #1f77b4"/>
     <use xlink:href="#m09a494419b" x="214.559522" y="270.425059" style="fill: #1f77b4; stroke: #1f77b4"/>
     <use xlink:href="#m09a494419b" x="213.631305" y="271.092026" style="fill: #1f77b4; stroke: #1f77b4"/>
     <use xlink:href="#m09a494419b" x="208.014819" y="270.077788" style="fill: #1f77b4; stroke: #1f77b4"/>
     <use xlink:href="#m09a494419b" x="204.877547" y="266.614556" style="fill: #1f77b4; stroke: #1f77b4"/>
     <use xlink:href="#m09a494419b" x="201.880269" y="265.260057" style="fill: #1f77b4; stroke: #1f77b4"/>
     <use xlink:href="#m09a494419b" x="197.63467" y="264.647276" style="fill: #1f77b4; stroke: #1f77b4"/>
     <use xlink:href="#m09a494419b" x="194.389079" y="264.201689" style="fill: #1f77b4; stroke: #1f77b4"/>
     <use xlink:href="#m09a494419b" x="190.21535" y="262.857378" style="fill: #1f77b4; stroke: #1f77b4"/>
     <use xlink:href="#m09a494419b" x="184.697092" y="259.999179" style="fill: #1f77b4; stroke: #1f77b4"/>
     <use xlink:href="#m09a494419b" x="180.14284" y="259.667526" style="fill: #1f77b4; stroke: #1f77b4"/>
     <use xlink:href="#m09a494419b" x="178.991098" y="258.284903" style="fill: #1f77b4; stroke: #1f77b4"/>
     <use xlink:href="#m09a494419b" x="171.233825" y="254.872764" style="fill: #1f77b4; stroke: #1f77b4"/>
     <use xlink:href="#m09a494419b" x="170.122516" y="252.741355" style="fill: #1f77b4; stroke: #1f77b4"/>
     <use xlink:href="#m09a494419b" x="163.534531" y="250.004403" style="fill: #1f77b4; stroke: #1f77b4"/>
     <use xlink:href="#m09a494419b" x="159.66158" y="247.146299" style="fill: #1f77b4; stroke: #1f77b4"/>
     <use xlink:href="#m09a494419b" x="154.243502" y="246.921117" style="fill: #1f77b4; stroke: #1f77b4"/>
     <use xlink:href="#m09a494419b" x="149.874782" y="243.42801" style="fill: #1f77b4; stroke: #1f77b4"/>
     <use xlink:href="#m09a494419b" x="145.377743" y="241.395562" style="fill: #1f77b4; stroke: #1f77b4"/>
     <use xlink:href="#m09a494419b" x="139.122328" y="236.837834" style="fill: #1f77b4; stroke: #1f77b4"/>
     <use xlink:href="#m09a494419b" x="133.829059" y="233.322374" style="fill: #1f77b4; stroke: #1f77b4"/>
     <use xlink:href="#m09a494419b" x="132.335513" y="230.359928" style="fill: #1f77b4; stroke: #1f77b4"/>
     <use xlink:href="#m09a494419b" x="120.991621" y="226.115019" style="fill: #1f77b4; stroke: #1f77b4"/>
     <use xlink:href="#m09a494419b" x="115.593938" y="222.218687" style="fill: #1f77b4; stroke: #1f77b4"/>
     <use xlink:href="#m09a494419b" x="112.563455" y="213.913601" style="fill: #1f77b4; stroke: #1f77b4"/>
     <use xlink:href="#m09a494419b" x="107.898443" y="210.619321" style="fill: #1f77b4; stroke: #1f77b4"/>
     <use xlink:href="#m09a494419b" x="100.818013" y="202.615825" style="fill: #1f77b4; stroke: #1f77b4"/>
     <use xlink:href="#m09a494419b" x="92.367183" y="194.768482" style="fill: #1f77b4; stroke: #1f77b4"/>
     <use xlink:href="#m09a494419b" x="88.423563" y="186.209362" style="fill: #1f77b4; stroke: #1f77b4"/>
     <use xlink:href="#m09a494419b" x="83.254602" y="175.858536" style="fill: #1f77b4; stroke: #1f77b4"/>
     <use xlink:href="#m09a494419b" x="79.546301" y="164.322485" style="fill: #1f77b4; stroke: #1f77b4"/>
     <use xlink:href="#m09a494419b" x="79.552013" y="149.272082" style="fill: #1f77b4; stroke: #1f77b4"/>
     <use xlink:href="#m09a494419b" x="82.130339" y="135.501104" style="fill: #1f77b4; stroke: #1f77b4"/>
     <use xlink:href="#m09a494419b" x="85.391787" y="119.418499" style="fill: #1f77b4; stroke: #1f77b4"/>
     <use xlink:href="#m09a494419b" x="96.134571" y="105.077594" style="fill: #1f77b4; stroke: #1f77b4"/>
     <use xlink:href="#m09a494419b" x="106.522516" y="87.701098" style="fill: #1f77b4; stroke: #1f77b4"/>
     <use xlink:href="#m09a494419b" x="131.995436" y="74.518731" style="fill: #1f77b4; stroke: #1f77b4"/>
     <use xlink:href="#m09a494419b" x="156.956452" y="62.111921" style="fill: #1f77b4; stroke: #1f77b4"/>
     <use xlink:href="#m09a494419b" x="187.026788" y="54.314611" style="fill: #1f77b4; stroke: #1f77b4"/>
     <use xlink:href="#m09a494419b" x="220.026107" y="54.512644" style="fill: #1f77b4; stroke: #1f77b4"/>
     <use xlink:href="#m09a494419b" x="252.796808" y="57.837185" style="fill: #1f77b4; stroke: #1f77b4"/>
     <use xlink:href="#m09a494419b" x="282.659898" y="67.762734" style="fill: #1f77b4; stroke: #1f77b4"/>
     <use xlink:href="#m09a494419b" x="305.510034" y="80.58538" style="fill: #1f77b4; stroke: #1f77b4"/>
     <use xlink:href="#m09a494419b" x="320.124542" y="94.975685" style="fill: #1f77b4; stroke: #1f77b4"/>
     <use xlink:href="#m09a494419b" x="336.195289" y="105.264586" style="fill: #1f77b4; stroke: #1f77b4"/>
     <use xlink:href="#m09a494419b" x="341.71835" y="122.285098" style="fill: #1f77b4; stroke: #1f77b4"/>
     <use xlink:href="#m09a494419b" x="346.542207" y="139.337575" style="fill: #1f77b4; stroke: #1f77b4"/>
     <use xlink:href="#m09a494419b" x="340.927963" y="151.425201" style="fill: #1f77b4; stroke: #1f77b4"/>
     <use xlink:href="#m09a494419b" x="336.978591" y="165.762899" style="fill: #1f77b4; stroke: #1f77b4"/>
     <use xlink:href="#m09a494419b" x="333.625393" y="173.517327" style="fill: #1f77b4; stroke: #1f77b4"/>
     <use xlink:href="#m09a494419b" x="326.340183" y="183.654048" style="fill: #1f77b4; stroke: #1f77b4"/>
     <use xlink:href="#m09a494419b" x="319.277298" y="190.200387" style="fill: #1f77b4; stroke: #1f77b4"/>
     <use xlink:href="#m09a494419b" x="311.630534" y="196.519803" style="fill: #1f77b4; stroke: #1f77b4"/>
     <use xlink:href="#m09a494419b" x="305.214348" y="202.129929" style="fill: #1f77b4; stroke: #1f77b4"/>
     <use xlink:href="#m09a494419b" x="294.212671" y="205.832183" style="fill: #1f77b4; stroke: #1f77b4"/>
     <use xlink:href="#m09a494419b" x="286.79475" y="208.701725" style="fill: #1f77b4; stroke: #1f77b4"/>
     <use xlink:href="#m09a494419b" x="282.710014" y="212.346775" style="fill: #1f77b4; stroke: #1f77b4"/>
     <use xlink:href="#m09a494419b" x="277.532096" y="214.266453" style="fill: #1f77b4; stroke: #1f77b4"/>
     <use xlink:href="#m09a494419b" x="270.307715" y="215.491854" style="fill: #1f77b4; stroke: #1f77b4"/>
     <use xlink:href="#m09a494419b" x="263.6577" y="217.65376" style="fill: #1f77b4; stroke: #1f77b4"/>
     <use xlink:href="#m09a494419b" x="259.130624" y="219.096208" style="fill: #1f77b4; stroke: #1f77b4"/>
     <use xlink:href="#m09a494419b" x="255.108933" y="219.909963" style="fill: #1f77b4; stroke: #1f77b4"/>
     <use xlink:href="#m09a494419b" x="246.202504" y="221.293333" style="fill: #1f77b4; stroke: #1f77b4"/>
     <use xlink:href="#m09a494419b" x="242.236549" y="220.184573" style="fill: #1f77b4; stroke: #1f77b4"/>
     <use xlink:href="#m09a494419b" x="237.557171" y="221.507325" style="fill: #1f77b4; stroke: #1f77b4"/>
     <use xlink:href="#m09a494419b" x="233.281547" y="222.018232" style="fill: #1f77b4; stroke: #1f77b4"/>
     <use xlink:href="#m09a494419b" x="226.129497" y="220.666145" style="fill: #1f77b4; stroke: #1f77b4"/>
     <use xlink:href="#m09a494419b" x="222.760534" y="219.829497" style="fill: #1f77b4; stroke: #1f77b4"/>
     <use xlink:href="#m09a494419b" x="218.731205" y="220.792416" style="fill: #1f77b4; stroke: #1f77b4"/>
     <use xlink:href="#m09a494419b" x="213.07265" y="221.102311" style="fill: #1f77b4; stroke: #1f77b4"/>
     <use xlink:href="#m09a494419b" x="209.428831" y="220.363146" style="fill: #1f77b4; stroke: #1f77b4"/>
     <use xlink:href="#m09a494419b" x="206.168056" y="220.242543" style="fill: #1f77b4; stroke: #1f77b4"/>
     <use xlink:href="#m09a494419b" x="199.614343" y="219.373646" style="fill: #1f77b4; stroke: #1f77b4"/>
     <use xlink:href="#m09a494419b" x="196.839575" y="218.886833" style="fill: #1f77b4; stroke: #1f77b4"/>
     <use xlink:href="#m09a494419b" x="193.112211" y="217.443146" style="fill: #1f77b4; stroke: #1f77b4"/>
     <use xlink:href="#m09a494419b" x="190.234993" y="216.994343" style="fill: #1f77b4; stroke: #1f77b4"/>
     <use xlink:href="#m09a494419b" x="187.976996" y="217.896301" style="fill: #1f77b4; stroke: #1f77b4"/>
     <use xlink:href="#m09a494419b" x="183.600717" y="215.134536" style="fill: #1f77b4; stroke: #1f77b4"/>
     <use xlink:href="#m09a494419b" x="180.939848" y="215.161279" style="fill: #1f77b4; stroke: #1f77b4"/>
     <use xlink:href="#m09a494419b" x="181.099538" y="214.000281" style="fill: #1f77b4; stroke: #1f77b4"/>
     <use xlink:href="#m09a494419b" x="174.705052" y="214.004339" style="fill: #1f77b4; stroke: #1f77b4"/>
     <use xlink:href="#m09a494419b" x="170.315133" y="214.491957" style="fill: #1f77b4; stroke: #1f77b4"/>
     <use xlink:href="#m09a494419b" x="169.100874" y="211.842811" style="fill: #1f77b4; stroke: #1f77b4"/>
     <use xlink:href="#m09a494419b" x="167.329926" y="210.39132" style="fill: #1f77b4; stroke: #1f77b4"/>
     <use xlink:href="#m09a494419b" x="164.875829" y="208.726793" style="fill: #1f77b4; stroke: #1f77b4"/>
     <use xlink:href="#m09a494419b" x="160.34362" y="207.306416" style="fill: #1f77b4; stroke: #1f77b4"/>
     <use xlink:href="#m09a494419b" x="157.316832" y="207.099765" style="fill: #1f77b4; stroke: #1f77b4"/>
     <use xlink:href="#m09a494419b" x="156.926665" y="206.475094" style="fill: #1f77b4; stroke: #1f77b4"/>
     <use xlink:href="#m09a494419b" x="155.487983" y="206.537292" style="fill: #1f77b4; stroke: #1f77b4"/>
     <use xlink:href="#m09a494419b" x="150.284367" y="204.216432" style="fill: #1f77b4; stroke: #1f77b4"/>
     <use xlink:href="#m09a494419b" x="146.695177" y="204.526431" style="fill: #1f77b4; stroke: #1f77b4"/>
     <use xlink:href="#m09a494419b" x="144.649887" y="203.457175" style="fill: #1f77b4; stroke: #1f77b4"/>
     <use xlink:href="#m09a494419b" x="145.659775" y="200.642812" style="fill: #1f77b4; stroke: #1f77b4"/>
     <use xlink:href="#m09a494419b" x="144.757969" y="200.742434" style="fill: #1f77b4; stroke: #1f77b4"/>
     <use xlink:href="#m09a494419b" x="135.491965" y="197.421611" style="fill: #1f77b4; stroke: #1f77b4"/>
     <use xlink:href="#m09a494419b" x="138.234756" y="196.727513" style="fill: #1f77b4; stroke: #1f77b4"/>
     <use xlink:href="#m09a494419b" x="133.433761" y="196.846556" style="fill: #1f77b4; stroke: #1f77b4"/>
     <use xlink:href="#m09a494419b" x="130.784673" y="195.979012" style="fill: #1f77b4; stroke: #1f77b4"/>
     <use xlink:href="#m09a494419b" x="130.009127" y="196.633359" style="fill: #1f77b4; stroke: #1f77b4"/>
     <use xlink:href="#m09a494419b" x="125.801786" y="194.348531" style="fill: #1f77b4; stroke: #1f77b4"/>
     <use xlink:href="#m09a494419b" x="123.468514" y="192.311797" style="fill: #1f77b4; stroke: #1f77b4"/>
     <use xlink:href="#m09a494419b" x="122.630518" y="192.23171" style="fill: #1f77b4; stroke: #1f77b4"/>
     <use xlink:href="#m09a494419b" x="119.945139" y="190.497436" style="fill: #1f77b4; stroke: #1f77b4"/>
     <use xlink:href="#m09a494419b" x="118.440985" y="188.482838" style="fill: #1f77b4; stroke: #1f77b4"/>
     <use xlink:href="#m09a494419b" x="116.364312" y="187.398285" style="fill: #1f77b4; stroke: #1f77b4"/>
     <use xlink:href="#m09a494419b" x="115.9304" y="186.50834" style="fill: #1f77b4; stroke: #1f77b4"/>
     <use xlink:href="#m09a494419b" x="113.712942" y="184.677509" style="fill: #1f77b4; stroke: #1f77b4"/>
     <use xlink:href="#m09a494419b" x="107.97282" y="183.918876" style="fill: #1f77b4; stroke: #1f77b4"/>
     <use xlink:href="#m09a494419b" x="108.196939" y="181.851351" style="fill: #1f77b4; stroke: #1f77b4"/>
     <use xlink:href="#m09a494419b" x="107.417357" y="181.104202" style="fill: #1f77b4; stroke: #1f77b4"/>
     <use xlink:href="#m09a494419b" x="105.394322" y="179.589264" style="fill: #1f77b4; stroke: #1f77b4"/>
     <use xlink:href="#m09a494419b" x="104.603237" y="177.33309" style="fill: #1f77b4; stroke: #1f77b4"/>
     <use xlink:href="#m09a494419b" x="103.298032" y="176.633704" style="fill: #1f77b4; stroke: #1f77b4"/>
     <use xlink:href="#m09a494419b" x="98.800822" y="174.981721" style="fill: #1f77b4; stroke: #1f77b4"/>
     <use xlink:href="#m09a494419b" x="96.346066" y="174.748441" style="fill: #1f77b4; stroke: #1f77b4"/>
     <use xlink:href="#m09a494419b" x="99.241264" y="172.9509" style="fill: #1f77b4; stroke: #1f77b4"/>
     <use xlink:href="#m09a494419b" x="96.151523" y="170.724552" style="fill: #1f77b4; stroke: #1f77b4"/>
     <use xlink:href="#m09a494419b" x="94.94514" y="168.960612" style="fill: #1f77b4; stroke: #1f77b4"/>
     <use xlink:href="#m09a494419b" x="89.85888" y="168.356383" style="fill: #1f77b4; stroke: #1f77b4"/>
     <use xlink:href="#m09a494419b" x="91.882033" y="165.374373" style="fill: #1f77b4; stroke: #1f77b4"/>
     <use xlink:href="#m09a494419b" x="86.772714" y="165.632646" style="fill: #1f77b4; stroke: #1f77b4"/>
     <use xlink:href="#m09a494419b" x="87.561069" y="166.502224" style="fill: #1f77b4; stroke: #1f77b4"/>
     <use xlink:href="#m09a494419b" x="86.033935" y="161.882904" style="fill: #1f77b4; stroke: #1f77b4"/>
     <use xlink:href="#m09a494419b" x="83.462733" y="162.751015" style="fill: #1f77b4; stroke: #1f77b4"/>
     <use xlink:href="#m09a494419b" x="79.899543" y="159.567369" style="fill: #1f77b4; stroke: #1f77b4"/>
     <use xlink:href="#m09a494419b" x="79.524508" y="157.509133" style="fill: #1f77b4; stroke: #1f77b4"/>
     <use xlink:href="#m09a494419b" x="80.241823" y="156.868521" style="fill: #1f77b4; stroke: #1f77b4"/>
     <use xlink:href="#m09a494419b" x="77.711384" y="154.817257" style="fill: #1f77b4; stroke: #1f77b4"/>
     <use xlink:href="#m09a494419b" x="77.987414" y="153.0487" style="fill: #1f77b4; stroke: #1f77b4"/>
     <use xlink:href="#m09a494419b" x="75.440683" y="153.116726" style="fill: #1f77b4; stroke: #1f77b4"/>
     <use xlink:href="#m09a494419b" x="73.886729" y="151.06128" style="fill: #1f77b4; stroke: #1f77b4"/>
     <use xlink:href="#m09a494419b" x="69.924522" y="148.919334" style="fill: #1f77b4; stroke: #1f77b4"/>
     <use xlink:href="#m09a494419b" x="69.922912" y="147.253407" style="fill: #1f77b4; stroke: #1f77b4"/>
     <use xlink:href="#m09a494419b" x="70.843095" y="144.598169" style="fill: #1f77b4; stroke: #1f77b4"/>
     <use xlink:href="#m09a494419b" x="70.51807" y="143.291234" style="fill: #1f77b4; stroke: #1f77b4"/>
     <use xlink:href="#m09a494419b" x="67.548337" y="142.359429" style="fill: #1f77b4; stroke: #1f77b4"/>
     <use xlink:href="#m09a494419b" x="64.439401" y="142.110654" style="fill: #1f77b4; stroke: #1f77b4"/>
     <use xlink:href="#m09a494419b" x="64.524252" y="139.547432" style="fill: #1f77b4; stroke: #1f77b4"/>
     <use xlink:href="#m09a494419b" x="63.773666" y="136.571562" style="fill: #1f77b4; stroke: #1f77b4"/>
     <use xlink:href="#m09a494419b" x="62.786996" y="136.770418" style="fill: #1f77b4; stroke: #1f77b4"/>
     <use xlink:href="#m09a494419b" x="61.881312" y="131.908424" style="fill: #1f77b4; stroke: #1f77b4"/>
     <use xlink:href="#m09a494419b" x="63.187189" y="130.437417" style="fill: #1f77b4; stroke: #1f77b4"/>
     <use xlink:href="#m09a494419b" x="61.259955" y="130.468057" style="fill: #1f77b4; stroke: #1f77b4"/>
     <use xlink:href="#m09a494419b" x="54.081165" y="128.031465" style="fill: #1f77b4; stroke: #1f77b4"/>
    </g>
   </g>
   <g id="line2d_16">
    <path d="M 378.73571 291.958261 
L 368.330793 292.418651 
L 357.808691 292.659404 
L 347.16447 292.674876 
L 336.390899 292.458353 
L 326.027049 292.030377 
L 315.525769 291.377113 
L 304.87181 290.487878 
L 294.619864 289.415558 
L 284.19155 288.104644 
L 273.559391 286.536174 
L 263.299346 284.796041 
L 253.415101 282.903552 
L 243.270534 280.733114 
L 233.480745 278.410033 
L 224.055584 275.950152 
L 215.011058 273.370817 
L 206.370556 270.692332 
L 197.405051 267.673513 
L 188.857683 264.547222 
L 180.775648 261.345264 
L 173.216594 258.110626 
L 166.247011 254.89962 
L 159.021501 251.311412 
L 152.475638 247.804266 
L 146.692038 244.476457 
L 140.746715 240.801872 
L 135.670812 237.433888 
L 130.490534 233.746344 
L 125.21718 229.693375 
L 120.943913 226.152163 
L 116.637561 222.311451 
L 112.318427 218.135707 
L 108.014346 213.585009 
L 104.818351 209.899286 
L 101.672122 205.957119 
L 98.600884 201.736491 
L 95.635686 197.214048 
L 92.814569 192.365349 
L 91.036385 188.939237 
L 89.358763 185.349478 
L 87.799985 181.588696 
L 86.380742 177.649771 
L 85.124373 173.526034 
L 84.057115 169.211499 
L 83.208341 164.70116 
L 82.610785 159.991343 
L 82.300732 155.080139 
L 82.31814 149.967908 
L 82.70669 144.657873 
L 83.513703 139.156801 
L 84.08986 136.337899 
L 84.789894 133.475774 
L 85.620601 130.572626 
L 86.588914 127.631029 
L 87.701878 124.653968 
L 88.96661 121.644863 
L 90.39026 118.607598 
L 91.979959 115.546553 
L 93.742767 112.466623 
L 95.685607 109.373251 
L 97.815196 106.272442 
L 100.137968 103.170784 
L 102.659988 100.075459 
L 105.386858 96.994251 
L 108.32362 93.935546 
L 111.474655 90.908325 
L 114.843564 87.922146 
L 118.433063 84.987117 
L 122.244868 82.113864 
L 126.279575 79.313474 
L 130.536554 76.59744 
L 135.013838 73.977582 
L 139.708028 71.465966 
L 144.614203 69.074795 
L 149.725849 66.816307 
L 155.0348 64.702642 
L 160.531207 62.745718 
L 166.203525 60.957083 
L 172.038528 59.347774 
L 178.021354 57.928166 
L 184.135573 56.707826 
L 190.363295 55.695368 
L 196.685298 54.898316 
L 203.081191 54.322981 
L 209.529603 53.974352 
L 216.008389 53.856 
L 222.494864 53.970012 
L 228.966044 54.31694 
L 235.398901 54.895778 
L 241.770617 55.703967 
L 248.058839 56.737423 
L 254.241925 57.990589 
L 260.299172 59.456517 
L 266.211028 61.126961 
L 271.959281 62.992503 
L 277.527218 65.042681 
L 282.899756 67.266137 
L 288.063541 69.650771 
L 293.007016 72.183898 
L 297.720455 74.852411 
L 302.195969 77.642931 
L 306.427486 80.541962 
L 310.410698 83.536034 
L 314.142994 86.611827 
L 317.623367 89.756298 
L 320.852312 92.956777 
L 323.831705 96.201065 
L 326.564682 99.477504 
L 329.055503 102.775043 
L 331.309424 106.083278 
L 333.332562 109.392492 
L 335.131766 112.693676 
L 336.714495 115.978534 
L 338.088695 119.239488 
L 339.262693 122.469669 
L 340.245091 125.662901 
L 341.044675 128.813678 
L 341.67033 131.917139 
L 342.130962 134.969037 
L 342.435437 137.965704 
L 342.592518 140.904017 
L 342.610818 143.781362 
L 342.49876 146.595597 
L 342.26454 149.345012 
L 341.9161 152.028297 
L 340.906934 157.193013 
L 339.529027 162.08591 
L 337.835189 166.707411 
L 335.873197 171.061294 
L 333.685888 175.153915 
L 331.311366 178.993542 
L 328.783295 182.589803 
L 326.131232 185.953234 
L 323.380991 189.094913 
L 320.554993 192.026171 
L 317.672626 194.758365 
L 314.750576 197.302707 
L 310.32378 200.790834 
L 305.878999 203.91614 
L 301.447109 206.711676 
L 297.051858 209.208009 
L 292.711242 211.433167 
L 288.438631 213.412682 
L 282.863904 215.709618 
L 277.442086 217.659545 
L 272.181511 219.304912 
L 267.085609 220.682566 
L 260.946969 222.076408 
L 255.060112 223.154739 
L 249.416085 223.962074 
L 244.003804 224.535734 
L 237.797812 224.959469 
L 231.886365 225.136576 
L 226.248117 225.103835 
L 219.988288 224.840425 
L 214.042352 224.371387 
L 207.596066 223.623632 
L 201.486834 222.685781 
L 194.976326 221.440352 
L 188.810593 220.025445 
L 182.954602 218.467421 
L 176.774607 216.593715 
L 170.90427 214.591768 
L 164.768605 212.262822 
L 158.937039 209.819249 
L 152.888494 207.040261 
L 147.136345 204.157934 
L 141.208936 200.932893 
L 135.570639 197.613255 
L 129.795279 193.943846 
L 124.303931 190.186318 
L 119.076376 186.348898 
L 113.748995 182.156468 
L 108.687658 177.887239 
L 103.877835 173.547235 
L 99.01088 168.845767 
L 94.403827 164.075294 
L 90.046274 159.240793 
L 85.929463 154.346778 
L 82.045987 149.397407 
L 78.389554 144.396561 
L 74.747372 139.030858 
L 71.349946 133.615369 
L 68.192577 128.154117 
L 67.484105 126.862889 
L 67.484105 126.862889 
" clip-path="url(#pb0fdada5a6)" style="fill: none; stroke: #d62728; stroke-width: 1.5; stroke-linecap: square"/>
   </g>
   <g id="patch_3">
    <path d="M 37.848438 307.872 
L 37.848438 41.76 
" style="fill: none; stroke: #000000; stroke-width: 0.8; stroke-linejoin: miter; stroke-linecap: square"/>
   </g>
   <g id="patch_4">
    <path d="M 394.968438 307.872 
L 394.968438 41.76 
" style="fill: none; stroke: #000000; stroke-width: 0.8; stroke-linejoin: miter; stroke-linecap: square"/>
   </g>
   <g id="patch_5">
    <path d="M 37.848438 307.872 
L 394.968438 307.872 
" style="fill: none; stroke: #000000; stroke-width: 0.8; stroke-linejoin: miter; stroke-linecap: square"/>
   </g>
   <g id="patch_6">
    <path d="M 37.848438 41.76 
L 394.968438 41.76 
" style="fill: none; stroke: #000000; stroke-width: 0.8; stroke-linejoin: miter; stroke-linecap: square"/>
   </g>
   <g id="text_17">
    <g id="patch_7">
     <path d="M 412.824438 102.337163 
L 558.624438 102.337163 
Q 562.624438 102.337163 562.624438 98.337163 
L 562.624438 55.0656 
Q 562.624438 51.0656 558.624438 51.0656 
L 412.824438 51.0656 
Q 408.824438 51.0656 408.824438 55.0656 
L 408.824438 98.337163 
Q 408.824438 102.337163 412.824438 102.337163 
z
" style="fill: #ffffff; opacity: 0.5; stroke: #000000; stroke-linejoin: miter"/>
    </g>
    <!-- Summary -->
    <g transform="translate(412.824438 62.664038) scale(0.1 -0.1)">
     <defs>
      <path id="DejaVuSans-53" d="M 3425 4513 
L 3425 3897 
Q 3066 4069 2747 4153 
Q 2428 4238 2131 4238 
Q 1616 4238 1336 4038 
Q 1056 3838 1056 3469 
Q 1056 3159 1242 3001 
Q 1428 2844 1947 2747 
L 2328 2669 
Q 3034 2534 3370 2195 
Q 3706 1856 3706 1288 
Q 3706 609 3251 259 
Q 2797 -91 1919 -91 
Q 1588 -91 1214 -16 
Q 841 59 441 206 
L 441 856 
Q 825 641 1194 531 
Q 1563 422 1919 422 
Q 2459 422 2753 634 
Q 3047 847 3047 1241 
Q 3047 1584 2836 1778 
Q 2625 1972 2144 2069 
L 1759 2144 
Q 1053 2284 737 2584 
Q 422 2884 422 3419 
Q 422 4038 858 4394 
Q 1294 4750 2059 4750 
Q 2388 4750 2728 4690 
Q 3069 4631 3425 4513 
z
" transform="scale(0.015625)"/>
      <path id="DejaVuSans-75" d="M 544 1381 
L 544 3500 
L 1119 3500 
L 1119 1403 
Q 1119 906 1312 657 
Q 1506 409 1894 409 
Q 2359 409 2629 706 
Q 2900 1003 2900 1516 
L 2900 3500 
L 3475 3500 
L 3475 0 
L 2900 0 
L 2900 538 
Q 2691 219 2414 64 
Q 2138 -91 1772 -91 
Q 1169 -91 856 284 
Q 544 659 544 1381 
z
M 1991 3584 
L 1991 3584 
z
" transform="scale(0.015625)"/>
      <path id="DejaVuSans-61" d="M 2194 1759 
Q 1497 1759 1228 1600 
Q 959 1441 959 1056 
Q 959 750 1161 570 
Q 1363 391 1709 391 
Q 2188 391 2477 730 
Q 2766 1069 2766 1631 
L 2766 1759 
L 2194 1759 
z
M 3341 1997 
L 3341 0 
L 2766 0 
L 2766 531 
Q 2569 213 2275 61 
Q 1981 -91 1556 -91 
Q 1019 -91 701 211 
Q 384 513 384 1019 
Q 384 1609 779 1909 
Q 1175 2209 1959 2209 
L 2766 2209 
L 2766 2266 
Q 2766 2663 2505 2880 
Q 2244 3097 1772 3097 
Q 1472 3097 1187 3025 
Q 903 2953 641 2809 
L 641 3341 
Q 956 3463 1253 3523 
Q 1550 3584 1831 3584 
Q 2591 3584 2966 3190 
Q 3341 2797 3341 1997 
z
" transform="scale(0.015625)"/>
      <path id="DejaVuSans-72" d="M 2631 2963 
Q 2534 3019 2420 3045 
Q 2306 3072 2169 3072 
Q 1681 3072 1420 2755 
Q 1159 2438 1159 1844 
L 1159 0 
L 581 0 
L 581 3500 
L 1159 3500 
L 1159 2956 
Q 1341 3275 1631 3429 
Q 1922 3584 2338 3584 
Q 2397 3584 2469 3576 
Q 2541 3569 2628 3553 
L 2631 2963 
z
" transform="scale(0.015625)"/>
      <path id="DejaVuSans-79" d="M 2059 -325 
Q 1816 -950 1584 -1140 
Q 1353 -1331 966 -1331 
L 506 -1331 
L 506 -850 
L 844 -850 
Q 1081 -850 1212 -737 
Q 1344 -625 1503 -206 
L 1606 56 
L 191 3500 
L 800 3500 
L 1894 763 
L 2988 3500 
L 3597 3500 
L 2059 -325 
z
" transform="scale(0.015625)"/>
     </defs>
     <use xlink:href="#DejaVuSans-53"/>
     <use xlink:href="#DejaVuSans-75" x="63.476562"/>
     <use xlink:href="#DejaVuSans-6d" x="126.855469"/>
     <use xlink:href="#DejaVuSans-6d" x="224.267578"/>
     <use xlink:href="#DejaVuSans-61" x="321.679688"/>
     <use xlink:href="#DejaVuSans-72" x="382.958984"/>
     <use xlink:href="#DejaVuSans-79" x="424.072266"/>
    </g>
    <!-- $Q_I$: 15.97$\pm$0.29 k -->
    <g transform="translate(412.824438 73.86185) scale(0.1 -0.1)">
     <defs>
      <path id="DejaVuSans-Oblique-51" d="M 2309 -84 
Q 2275 -88 2237 -89 
Q 2200 -91 2125 -91 
Q 1250 -91 756 411 
Q 263 913 263 1797 
Q 263 2319 452 2844 
Q 641 3369 978 3788 
Q 1369 4269 1858 4509 
Q 2347 4750 2938 4750 
Q 3794 4750 4287 4245 
Q 4781 3741 4781 2869 
Q 4781 1928 4265 1147 
Q 3750 366 2919 44 
L 3553 -825 
L 2847 -825 
L 2309 -84 
z
M 2919 4238 
Q 2400 4238 2003 3986 
Q 1606 3734 1313 3219 
Q 1125 2891 1026 2522 
Q 928 2153 928 1778 
Q 928 1128 1239 775 
Q 1550 422 2119 422 
Q 2631 422 3032 676 
Q 3434 931 3719 1434 
Q 3909 1772 4009 2142 
Q 4109 2513 4109 2881 
Q 4109 3528 3796 3883 
Q 3484 4238 2919 4238 
z
" transform="scale(0.015625)"/>
      <path id="DejaVuSans-Oblique-49" d="M 1081 4666 
L 1716 4666 
L 806 0 
L 172 0 
L 1081 4666 
z
" transform="scale(0.015625)"/>
      <path id="DejaVuSans-3a" d="M 750 794 
L 1409 794 
L 1409 0 
L 750 0 
L 750 794 
z
M 750 3309 
L 1409 3309 
L 1409 2516 
L 750 2516 
L 750 3309 
z
" transform="scale(0.015625)"/>
      <path id="DejaVuSans-2e" d="M 684 794 
L 1344 794 
L 1344 0 
L 684 0 
L 684 794 
z
" transform="scale(0.015625)"/>
      <path id="DejaVuSans-39" d="M 703 97 
L 703 672 
Q 941 559 1184 500 
Q 1428 441 1663 441 
Q 2288 441 2617 861 
Q 2947 1281 2994 2138 
Q 2813 1869 2534 1725 
Q 2256 1581 1919 1581 
Q 1219 1581 811 2004 
Q 403 2428 403 3163 
Q 403 3881 828 4315 
Q 1253 4750 1959 4750 
Q 2769 4750 3195 4129 
Q 3622 3509 3622 2328 
Q 3622 1225 3098 567 
Q 2575 -91 1691 -91 
Q 1453 -91 1209 -44 
Q 966 3 703 97 
z
M 1959 2075 
Q 2384 2075 2632 2365 
Q 2881 2656 2881 3163 
Q 2881 3666 2632 3958 
Q 2384 4250 1959 4250 
Q 1534 4250 1286 3958 
Q 1038 3666 1038 3163 
Q 1038 2656 1286 2365 
Q 1534 2075 1959 2075 
z
" transform="scale(0.015625)"/>
      <path id="DejaVuSans-b1" d="M 2944 4013 
L 2944 2803 
L 4684 2803 
L 4684 2272 
L 2944 2272 
L 2944 1063 
L 2419 1063 
L 2419 2272 
L 678 2272 
L 678 2803 
L 2419 2803 
L 2419 4013 
L 2944 4013 
z
M 678 531 
L 4684 531 
L 4684 0 
L 678 0 
L 678 531 
z
" transform="scale(0.015625)"/>
      <path id="DejaVuSans-6b" d="M 581 4863 
L 1159 4863 
L 1159 1991 
L 2875 3500 
L 3609 3500 
L 1753 1863 
L 3688 0 
L 2938 0 
L 1159 1709 
L 1159 0 
L 581 0 
L 581 4863 
z
" transform="scale(0.015625)"/>
     </defs>
     <use xlink:href="#DejaVuSans-Oblique-51" transform="translate(0 0.015625)"/>
     <use xlink:href="#DejaVuSans-Oblique-49" transform="translate(78.710938 -16.390625) scale(0.7)"/>
     <use xlink:href="#DejaVuSans-3a" transform="translate(102.089844 0.015625)"/>
     <use xlink:href="#DejaVuSans-20" transform="translate(135.78125 0.015625)"/>
     <use xlink:href="#DejaVuSans-31" transform="translate(167.568359 0.015625)"/>
     <use xlink:href="#DejaVuSans-35" transform="translate(231.191406 0.015625)"/>
     <use xlink:href="#DejaVuSans-2e" transform="translate(294.814453 0.015625)"/>
     <use xlink:href="#DejaVuSans-39" transform="translate(326.601562 0.015625)"/>
     <use xlink:href="#DejaVuSans-37" transform="translate(390.224609 0.015625)"/>
     <use xlink:href="#DejaVuSans-b1" transform="translate(453.847656 0.015625)"/>
     <use xlink:href="#DejaVuSans-30" transform="translate(537.636719 0.015625)"/>
     <use xlink:href="#DejaVuSans-2e" transform="translate(601.259766 0.015625)"/>
     <use xlink:href="#DejaVuSans-32" transform="translate(627.546875 0.015625)"/>
     <use xlink:href="#DejaVuSans-39" transform="translate(689.419922 0.015625)"/>
     <use xlink:href="#DejaVuSans-20" transform="translate(753.042969 0.015625)"/>
     <use xlink:href="#DejaVuSans-6b" transform="translate(784.830078 0.015625)"/>
    </g>
    <!-- $Q_C$: 4.461$\pm$0.022 k -->
    <g transform="translate(412.824438 85.059663) scale(0.1 -0.1)">
     <defs>
      <path id="DejaVuSans-Oblique-43" d="M 4447 4306 
L 4319 3641 
Q 4019 3944 3683 4091 
Q 3347 4238 2956 4238 
Q 2422 4238 2017 3981 
Q 1613 3725 1319 3200 
Q 1131 2863 1032 2486 
Q 934 2109 934 1728 
Q 934 1091 1264 756 
Q 1594 422 2222 422 
Q 2656 422 3056 561 
Q 3456 700 3834 978 
L 3688 231 
Q 3316 72 2936 -9 
Q 2556 -91 2175 -91 
Q 1278 -91 773 396 
Q 269 884 269 1753 
Q 269 2309 461 2846 
Q 653 3384 1013 3828 
Q 1394 4300 1883 4525 
Q 2372 4750 3022 4750 
Q 3422 4750 3780 4639 
Q 4138 4528 4447 4306 
z
" transform="scale(0.015625)"/>
     </defs>
     <use xlink:href="#DejaVuSans-Oblique-51" transform="translate(0 0.015625)"/>
     <use xlink:href="#DejaVuSans-Oblique-43" transform="translate(78.710938 -16.390625) scale(0.7)"/>
     <use xlink:href="#DejaVuSans-3a" transform="translate(130.322266 0.015625)"/>
     <use xlink:href="#DejaVuSans-20" transform="translate(164.013672 0.015625)"/>
     <use xlink:href="#DejaVuSans-34" transform="translate(195.800781 0.015625)"/>
     <use xlink:href="#DejaVuSans-2e" transform="translate(259.423828 0.015625)"/>
     <use xlink:href="#DejaVuSans-34" transform="translate(291.210938 0.015625)"/>
     <use xlink:href="#DejaVuSans-36" transform="translate(354.833984 0.015625)"/>
     <use xlink:href="#DejaVuSans-31" transform="translate(418.457031 0.015625)"/>
     <use xlink:href="#DejaVuSans-b1" transform="translate(482.080078 0.015625)"/>
     <use xlink:href="#DejaVuSans-30" transform="translate(565.869141 0.015625)"/>
     <use xlink:href="#DejaVuSans-2e" transform="translate(629.492188 0.015625)"/>
     <use xlink:href="#DejaVuSans-30" transform="translate(661.279297 0.015625)"/>
     <use xlink:href="#DejaVuSans-32" transform="translate(724.902344 0.015625)"/>
     <use xlink:href="#DejaVuSans-32" transform="translate(788.525391 0.015625)"/>
     <use xlink:href="#DejaVuSans-20" transform="translate(852.148438 0.015625)"/>
     <use xlink:href="#DejaVuSans-6b" transform="translate(883.935547 0.015625)"/>
    </g>
    <!-- $f_{res}$: 5.9134988$\pm$4.9e-06 GHz -->
    <g transform="translate(412.824438 96.257475) scale(0.1 -0.1)">
     <defs>
      <path id="DejaVuSans-Oblique-66" d="M 3059 4863 
L 2969 4384 
L 2419 4384 
Q 2106 4384 1964 4261 
Q 1822 4138 1753 3809 
L 1691 3500 
L 2638 3500 
L 2553 3053 
L 1606 3053 
L 1013 0 
L 434 0 
L 1031 3053 
L 481 3053 
L 563 3500 
L 1113 3500 
L 1159 3744 
Q 1278 4363 1576 4613 
Q 1875 4863 2516 4863 
L 3059 4863 
z
" transform="scale(0.015625)"/>
      <path id="DejaVuSans-Oblique-72" d="M 2853 2969 
Q 2766 3016 2653 3041 
Q 2541 3066 2413 3066 
Q 1953 3066 1609 2717 
Q 1266 2369 1153 1784 
L 800 0 
L 225 0 
L 909 3500 
L 1484 3500 
L 1375 2956 
Q 1603 3259 1920 3421 
Q 2238 3584 2597 3584 
Q 2691 3584 2781 3573 
Q 2872 3563 2963 3538 
L 2853 2969 
z
" transform="scale(0.015625)"/>
      <path id="DejaVuSans-Oblique-65" d="M 3078 2063 
Q 3088 2113 3092 2166 
Q 3097 2219 3097 2272 
Q 3097 2653 2873 2875 
Q 2650 3097 2266 3097 
Q 1838 3097 1509 2826 
Q 1181 2556 1013 2059 
L 3078 2063 
z
M 3578 1613 
L 903 1613 
Q 884 1494 878 1425 
Q 872 1356 872 1306 
Q 872 872 1139 634 
Q 1406 397 1894 397 
Q 2269 397 2603 481 
Q 2938 566 3225 728 
L 3116 159 
Q 2806 34 2476 -28 
Q 2147 -91 1806 -91 
Q 1078 -91 686 257 
Q 294 606 294 1247 
Q 294 1794 489 2264 
Q 684 2734 1063 3103 
Q 1306 3334 1642 3459 
Q 1978 3584 2356 3584 
Q 2950 3584 3301 3228 
Q 3653 2872 3653 2272 
Q 3653 2128 3634 1964 
Q 3616 1800 3578 1613 
z
" transform="scale(0.015625)"/>
      <path id="DejaVuSans-Oblique-73" d="M 3200 3397 
L 3091 2853 
Q 2863 2978 2609 3040 
Q 2356 3103 2088 3103 
Q 1634 3103 1373 2948 
Q 1113 2794 1113 2528 
Q 1113 2219 1719 2053 
Q 1766 2041 1788 2034 
L 1972 1978 
Q 2547 1819 2739 1644 
Q 2931 1469 2931 1166 
Q 2931 609 2489 259 
Q 2047 -91 1331 -91 
Q 1053 -91 747 -37 
Q 441 16 72 128 
L 184 722 
Q 500 559 806 475 
Q 1113 391 1394 391 
Q 1816 391 2080 572 
Q 2344 753 2344 1031 
Q 2344 1331 1650 1516 
L 1591 1531 
L 1394 1581 
Q 956 1697 753 1886 
Q 550 2075 550 2369 
Q 550 2928 970 3256 
Q 1391 3584 2113 3584 
Q 2397 3584 2667 3537 
Q 2938 3491 3200 3397 
z
" transform="scale(0.015625)"/>
      <path id="DejaVuSans-47" d="M 3809 666 
L 3809 1919 
L 2778 1919 
L 2778 2438 
L 4434 2438 
L 4434 434 
Q 4069 175 3628 42 
Q 3188 -91 2688 -91 
Q 1594 -91 976 548 
Q 359 1188 359 2328 
Q 359 3472 976 4111 
Q 1594 4750 2688 4750 
Q 3144 4750 3555 4637 
Q 3966 4525 4313 4306 
L 4313 3634 
Q 3963 3931 3569 4081 
Q 3175 4231 2741 4231 
Q 1884 4231 1454 3753 
Q 1025 3275 1025 2328 
Q 1025 1384 1454 906 
Q 1884 428 2741 428 
Q 3075 428 3337 486 
Q 3600 544 3809 666 
z
" transform="scale(0.015625)"/>
      <path id="DejaVuSans-48" d="M 628 4666 
L 1259 4666 
L 1259 2753 
L 3553 2753 
L 3553 4666 
L 4184 4666 
L 4184 0 
L 3553 0 
L 3553 2222 
L 1259 2222 
L 1259 0 
L 628 0 
L 628 4666 
z
" transform="scale(0.015625)"/>
      <path id="DejaVuSans-7a" d="M 353 3500 
L 3084 3500 
L 3084 2975 
L 922 459 
L 3084 459 
L 3084 0 
L 275 0 
L 275 525 
L 2438 3041 
L 353 3041 
L 353 3500 
z
" transform="scale(0.015625)"/>
     </defs>
     <use xlink:href="#DejaVuSans-Oblique-66" transform="translate(0 0.015625)"/>
     <use xlink:href="#DejaVuSans-Oblique-72" transform="translate(35.205078 -16.390625) scale(0.7)"/>
     <use xlink:href="#DejaVuSans-Oblique-65" transform="translate(63.984375 -16.390625) scale(0.7)"/>
     <use xlink:href="#DejaVuSans-Oblique-73" transform="translate(107.050781 -16.390625) scale(0.7)"/>
     <use xlink:href="#DejaVuSans-3a" transform="translate(146.254883 0.015625)"/>
     <use xlink:href="#DejaVuSans-20" transform="translate(179.946289 0.015625)"/>
     <use xlink:href="#DejaVuSans-35" transform="translate(211.733398 0.015625)"/>
     <use xlink:href="#DejaVuSans-2e" transform="translate(275.356445 0.015625)"/>
     <use xlink:href="#DejaVuSans-39" transform="translate(307.143555 0.015625)"/>
     <use xlink:href="#DejaVuSans-31" transform="translate(370.766602 0.015625)"/>
     <use xlink:href="#DejaVuSans-33" transform="translate(434.389648 0.015625)"/>
     <use xlink:href="#DejaVuSans-34" transform="translate(498.012695 0.015625)"/>
     <use xlink:href="#DejaVuSans-39" transform="translate(561.635742 0.015625)"/>
     <use xlink:href="#DejaVuSans-38" transform="translate(625.258789 0.015625)"/>
     <use xlink:href="#DejaVuSans-38" transform="translate(688.881836 0.015625)"/>
     <use xlink:href="#DejaVuSans-b1" transform="translate(752.504883 0.015625)"/>
     <use xlink:href="#DejaVuSans-34" transform="translate(836.293945 0.015625)"/>
     <use xlink:href="#DejaVuSans-2e" transform="translate(899.916992 0.015625)"/>
     <use xlink:href="#DejaVuSans-39" transform="translate(931.704102 0.015625)"/>
     <use xlink:href="#DejaVuSans-65" transform="translate(995.327148 0.015625)"/>
     <use xlink:href="#DejaVuSans-2d" transform="translate(1056.850586 0.015625)"/>
     <use xlink:href="#DejaVuSans-30" transform="translate(1092.93457 0.015625)"/>
     <use xlink:href="#DejaVuSans-36" transform="translate(1156.557617 0.015625)"/>
     <use xlink:href="#DejaVuSans-20" transform="translate(1220.180664 0.015625)"/>
     <use xlink:href="#DejaVuSans-47" transform="translate(1251.967773 0.015625)"/>
     <use xlink:href="#DejaVuSans-48" transform="translate(1329.458008 0.015625)"/>
     <use xlink:href="#DejaVuSans-7a" transform="translate(1404.65332 0.015625)"/>
    </g>
   </g>
  </g>
  <g id="text_18">
   <!-- S21 resonator spectroscopy -->
   <g transform="translate(126.864063 16.318125) scale(0.12 -0.12)">
    <defs>
     <path id="DejaVuSans-73" d="M 2834 3397 
L 2834 2853 
Q 2591 2978 2328 3040 
Q 2066 3103 1784 3103 
Q 1356 3103 1142 2972 
Q 928 2841 928 2578 
Q 928 2378 1081 2264 
Q 1234 2150 1697 2047 
L 1894 2003 
Q 2506 1872 2764 1633 
Q 3022 1394 3022 966 
Q 3022 478 2636 193 
Q 2250 -91 1575 -91 
Q 1294 -91 989 -36 
Q 684 19 347 128 
L 347 722 
Q 666 556 975 473 
Q 1284 391 1588 391 
Q 1994 391 2212 530 
Q 2431 669 2431 922 
Q 2431 1156 2273 1281 
Q 2116 1406 1581 1522 
L 1381 1569 
Q 847 1681 609 1914 
Q 372 2147 372 2553 
Q 372 3047 722 3315 
Q 1072 3584 1716 3584 
Q 2034 3584 2315 3537 
Q 2597 3491 2834 3397 
z
" transform="scale(0.015625)"/>
     <path id="DejaVuSans-6f" d="M 1959 3097 
Q 1497 3097 1228 2736 
Q 959 2375 959 1747 
Q 959 1119 1226 758 
Q 1494 397 1959 397 
Q 2419 397 2687 759 
Q 2956 1122 2956 1747 
Q 2956 2369 2687 2733 
Q 2419 3097 1959 3097 
z
M 1959 3584 
Q 2709 3584 3137 3096 
Q 3566 2609 3566 1747 
Q 3566 888 3137 398 
Q 2709 -91 1959 -91 
Q 1206 -91 779 398 
Q 353 888 353 1747 
Q 353 2609 779 3096 
Q 1206 3584 1959 3584 
z
" transform="scale(0.015625)"/>
     <path id="DejaVuSans-6e" d="M 3513 2113 
L 3513 0 
L 2938 0 
L 2938 2094 
Q 2938 2591 2744 2837 
Q 2550 3084 2163 3084 
Q 1697 3084 1428 2787 
Q 1159 2491 1159 1978 
L 1159 0 
L 581 0 
L 581 3500 
L 1159 3500 
L 1159 2956 
Q 1366 3272 1645 3428 
Q 1925 3584 2291 3584 
Q 2894 3584 3203 3211 
Q 3513 2838 3513 2113 
z
" transform="scale(0.015625)"/>
     <path id="DejaVuSans-74" d="M 1172 4494 
L 1172 3500 
L 2356 3500 
L 2356 3053 
L 1172 3053 
L 1172 1153 
Q 1172 725 1289 603 
Q 1406 481 1766 481 
L 2356 481 
L 2356 0 
L 1766 0 
Q 1100 0 847 248 
Q 594 497 594 1153 
L 594 3053 
L 172 3053 
L 172 3500 
L 594 3500 
L 594 4494 
L 1172 4494 
z
" transform="scale(0.015625)"/>
     <path id="DejaVuSans-70" d="M 1159 525 
L 1159 -1331 
L 581 -1331 
L 581 3500 
L 1159 3500 
L 1159 2969 
Q 1341 3281 1617 3432 
Q 1894 3584 2278 3584 
Q 2916 3584 3314 3078 
Q 3713 2572 3713 1747 
Q 3713 922 3314 415 
Q 2916 -91 2278 -91 
Q 1894 -91 1617 61 
Q 1341 213 1159 525 
z
M 3116 1747 
Q 3116 2381 2855 2742 
Q 2594 3103 2138 3103 
Q 1681 3103 1420 2742 
Q 1159 2381 1159 1747 
Q 1159 1113 1420 752 
Q 1681 391 2138 391 
Q 2594 391 2855 752 
Q 3116 1113 3116 1747 
z
" transform="scale(0.015625)"/>
     <path id="DejaVuSans-63" d="M 3122 3366 
L 3122 2828 
Q 2878 2963 2633 3030 
Q 2388 3097 2138 3097 
Q 1578 3097 1268 2742 
Q 959 2388 959 1747 
Q 959 1106 1268 751 
Q 1578 397 2138 397 
Q 2388 397 2633 464 
Q 2878 531 3122 666 
L 3122 134 
Q 2881 22 2623 -34 
Q 2366 -91 2075 -91 
Q 1284 -91 818 406 
Q 353 903 353 1747 
Q 353 2603 823 3093 
Q 1294 3584 2113 3584 
Q 2378 3584 2631 3529 
Q 2884 3475 3122 3366 
z
" transform="scale(0.015625)"/>
    </defs>
    <use xlink:href="#DejaVuSans-53"/>
    <use xlink:href="#DejaVuSans-32" x="63.476562"/>
    <use xlink:href="#DejaVuSans-31" x="127.099609"/>
    <use xlink:href="#DejaVuSans-20" x="190.722656"/>
    <use xlink:href="#DejaVuSans-72" x="222.509766"/>
    <use xlink:href="#DejaVuSans-65" x="261.373047"/>
    <use xlink:href="#DejaVuSans-73" x="322.896484"/>
    <use xlink:href="#DejaVuSans-6f" x="374.996094"/>
    <use xlink:href="#DejaVuSans-6e" x="436.177734"/>
    <use xlink:href="#DejaVuSans-61" x="499.556641"/>
    <use xlink:href="#DejaVuSans-74" x="560.835938"/>
    <use xlink:href="#DejaVuSans-6f" x="600.044922"/>
    <use xlink:href="#DejaVuSans-72" x="661.226562"/>
    <use xlink:href="#DejaVuSans-20" x="702.339844"/>
    <use xlink:href="#DejaVuSans-73" x="734.126953"/>
    <use xlink:href="#DejaVuSans-70" x="786.226562"/>
    <use xlink:href="#DejaVuSans-65" x="849.703125"/>
    <use xlink:href="#DejaVuSans-63" x="911.226562"/>
    <use xlink:href="#DejaVuSans-74" x="966.207031"/>
    <use xlink:href="#DejaVuSans-72" x="1005.416016"/>
    <use xlink:href="#DejaVuSans-6f" x="1044.279297"/>
    <use xlink:href="#DejaVuSans-73" x="1105.460938"/>
    <use xlink:href="#DejaVuSans-63" x="1157.560547"/>
    <use xlink:href="#DejaVuSans-6f" x="1212.541016"/>
    <use xlink:href="#DejaVuSans-70" x="1273.722656"/>
    <use xlink:href="#DejaVuSans-79" x="1337.199219"/>
   </g>
   <!-- tuid: 20231222-123710-117-02d519 -->
   <g transform="translate(100.801563 29.7555) scale(0.12 -0.12)">
    <defs>
     <path id="DejaVuSans-69" d="M 603 3500 
L 1178 3500 
L 1178 0 
L 603 0 
L 603 3500 
z
M 603 4863 
L 1178 4863 
L 1178 4134 
L 603 4134 
L 603 4863 
z
" transform="scale(0.015625)"/>
     <path id="DejaVuSans-64" d="M 2906 2969 
L 2906 4863 
L 3481 4863 
L 3481 0 
L 2906 0 
L 2906 525 
Q 2725 213 2448 61 
Q 2172 -91 1784 -91 
Q 1150 -91 751 415 
Q 353 922 353 1747 
Q 353 2572 751 3078 
Q 1150 3584 1784 3584 
Q 2172 3584 2448 3432 
Q 2725 3281 2906 2969 
z
M 947 1747 
Q 947 1113 1208 752 
Q 1469 391 1925 391 
Q 2381 391 2643 752 
Q 2906 1113 2906 1747 
Q 2906 2381 2643 2742 
Q 2381 3103 1925 3103 
Q 1469 3103 1208 2742 
Q 947 2381 947 1747 
z
" transform="scale(0.015625)"/>
    </defs>
    <use xlink:href="#DejaVuSans-74"/>
    <use xlink:href="#DejaVuSans-75" x="39.208984"/>
    <use xlink:href="#DejaVuSans-69" x="102.587891"/>
    <use xlink:href="#DejaVuSans-64" x="130.371094"/>
    <use xlink:href="#DejaVuSans-3a" x="193.847656"/>
    <use xlink:href="#DejaVuSans-20" x="227.539062"/>
    <use xlink:href="#DejaVuSans-32" x="259.326172"/>
    <use xlink:href="#DejaVuSans-30" x="322.949219"/>
    <use xlink:href="#DejaVuSans-32" x="386.572266"/>
    <use xlink:href="#DejaVuSans-33" x="450.195312"/>
    <use xlink:href="#DejaVuSans-31" x="513.818359"/>
    <use xlink:href="#DejaVuSans-32" x="577.441406"/>
    <use xlink:href="#DejaVuSans-32" x="641.064453"/>
    <use xlink:href="#DejaVuSans-32" x="704.6875"/>
    <use xlink:href="#DejaVuSans-2d" x="768.310547"/>
    <use xlink:href="#DejaVuSans-31" x="804.394531"/>
    <use xlink:href="#DejaVuSans-32" x="868.017578"/>
    <use xlink:href="#DejaVuSans-33" x="931.640625"/>
    <use xlink:href="#DejaVuSans-37" x="995.263672"/>
    <use xlink:href="#DejaVuSans-31" x="1058.886719"/>
    <use xlink:href="#DejaVuSans-30" x="1122.509766"/>
    <use xlink:href="#DejaVuSans-2d" x="1186.132812"/>
    <use xlink:href="#DejaVuSans-31" x="1222.216797"/>
    <use xlink:href="#DejaVuSans-31" x="1285.839844"/>
    <use xlink:href="#DejaVuSans-37" x="1349.462891"/>
    <use xlink:href="#DejaVuSans-2d" x="1413.085938"/>
    <use xlink:href="#DejaVuSans-30" x="1449.169922"/>
    <use xlink:href="#DejaVuSans-32" x="1512.792969"/>
    <use xlink:href="#DejaVuSans-64" x="1576.416016"/>
    <use xlink:href="#DejaVuSans-35" x="1639.892578"/>
    <use xlink:href="#DejaVuSans-31" x="1703.515625"/>
    <use xlink:href="#DejaVuSans-39" x="1767.138672"/>
   </g>
  </g>
 </g>
 <defs>
  <clipPath id="pb0fdada5a6">
   <rect x="37.848438" y="41.76" width="357.12" height="266.112"/>
  </clipPath>
 </defs>
</svg>
