<?xml version="1.0" encoding="utf-8" standalone="no"?>
<!DOCTYPE svg PUBLIC "-//W3C//DTD SVG 1.1//EN"
  "http://www.w3.org/Graphics/SVG/1.1/DTD/svg11.dtd">
<svg xmlns:xlink="http://www.w3.org/1999/xlink" width="600.079125pt" height="345.42825pt" viewBox="0 0 600.079125 345.42825" xmlns="http://www.w3.org/2000/svg" version="1.1">
 <metadata>
  <rdf:RDF xmlns:dc="http://purl.org/dc/elements/1.1/" xmlns:cc="http://creativecommons.org/ns#" xmlns:rdf="http://www.w3.org/1999/02/22-rdf-syntax-ns#">
   <cc:Work>
    <dc:type rdf:resource="http://purl.org/dc/dcmitype/StillImage"/>
    <dc:date>2023-12-22T11:25:06.485267</dc:date>
    <dc:format>image/svg+xml</dc:format>
    <dc:creator>
     <cc:Agent>
      <dc:title>Matplotlib v3.8.2, https://matplotlib.org/</dc:title>
     </cc:Agent>
    </dc:creator>
   </cc:Work>
  </rdf:RDF>
 </metadata>
 <defs>
  <style type="text/css">*{stroke-linejoin: round; stroke-linecap: butt}</style>
 </defs>
 <g id="figure_1">
  <g id="patch_1">
   <path d="M 0 345.42825 
L 600.079125 345.42825 
L 600.079125 -0 
L 0 -0 
L 0 345.42825 
z
" style="fill: none; opacity: 0"/>
  </g>
  <g id="axes_1">
   <g id="patch_2">
    <path d="M 45.903125 307.872 
L 403.023125 307.872 
L 403.023125 41.76 
L 45.903125 41.76 
z
" style="fill: #ffffff"/>
   </g>
   <g id="matplotlib.axis_1">
    <g id="xtick_1">
     <g id="line2d_1">
      <defs>
       <path id="md07c7b7ce6" d="M 0 0 
L 0 3.5 
" style="stroke: #000000; stroke-width: 0.8"/>
      </defs>
      <g>
       <use xlink:href="#md07c7b7ce6" x="62.135852" y="307.872" style="stroke: #000000; stroke-width: 0.8"/>
      </g>
     </g>
     <g id="text_1">
      <!-- -0.8 -->
      <g transform="translate(52.380384 322.470438) scale(0.1 -0.1)">
       <defs>
        <path id="DejaVuSans-2d" d="M 313 2009 
L 1997 2009 
L 1997 1497 
L 313 1497 
L 313 2009 
z
" transform="scale(0.015625)"/>
        <path id="DejaVuSans-30" d="M 2034 4250 
Q 1547 4250 1301 3770 
Q 1056 3291 1056 2328 
Q 1056 1369 1301 889 
Q 1547 409 2034 409 
Q 2525 409 2770 889 
Q 3016 1369 3016 2328 
Q 3016 3291 2770 3770 
Q 2525 4250 2034 4250 
z
M 2034 4750 
Q 2819 4750 3233 4129 
Q 3647 3509 3647 2328 
Q 3647 1150 3233 529 
Q 2819 -91 2034 -91 
Q 1250 -91 836 529 
Q 422 1150 422 2328 
Q 422 3509 836 4129 
Q 1250 4750 2034 4750 
z
" transform="scale(0.015625)"/>
        <path id="DejaVuSans-2e" d="M 684 794 
L 1344 794 
L 1344 0 
L 684 0 
L 684 794 
z
" transform="scale(0.015625)"/>
        <path id="DejaVuSans-38" d="M 2034 2216 
Q 1584 2216 1326 1975 
Q 1069 1734 1069 1313 
Q 1069 891 1326 650 
Q 1584 409 2034 409 
Q 2484 409 2743 651 
Q 3003 894 3003 1313 
Q 3003 1734 2745 1975 
Q 2488 2216 2034 2216 
z
M 1403 2484 
Q 997 2584 770 2862 
Q 544 3141 544 3541 
Q 544 4100 942 4425 
Q 1341 4750 2034 4750 
Q 2731 4750 3128 4425 
Q 3525 4100 3525 3541 
Q 3525 3141 3298 2862 
Q 3072 2584 2669 2484 
Q 3125 2378 3379 2068 
Q 3634 1759 3634 1313 
Q 3634 634 3220 271 
Q 2806 -91 2034 -91 
Q 1263 -91 848 271 
Q 434 634 434 1313 
Q 434 1759 690 2068 
Q 947 2378 1403 2484 
z
M 1172 3481 
Q 1172 3119 1398 2916 
Q 1625 2713 2034 2713 
Q 2441 2713 2670 2916 
Q 2900 3119 2900 3481 
Q 2900 3844 2670 4047 
Q 2441 4250 2034 4250 
Q 1625 4250 1398 4047 
Q 1172 3844 1172 3481 
z
" transform="scale(0.015625)"/>
       </defs>
       <use xlink:href="#DejaVuSans-2d"/>
       <use xlink:href="#DejaVuSans-30" x="36.083984"/>
       <use xlink:href="#DejaVuSans-2e" x="99.707031"/>
       <use xlink:href="#DejaVuSans-38" x="131.494141"/>
      </g>
     </g>
    </g>
    <g id="xtick_2">
     <g id="line2d_2">
      <g>
       <use xlink:href="#md07c7b7ce6" x="102.71767" y="307.872" style="stroke: #000000; stroke-width: 0.8"/>
      </g>
     </g>
     <g id="text_2">
      <!-- -0.6 -->
      <g transform="translate(92.962202 322.470438) scale(0.1 -0.1)">
       <defs>
        <path id="DejaVuSans-36" d="M 2113 2584 
Q 1688 2584 1439 2293 
Q 1191 2003 1191 1497 
Q 1191 994 1439 701 
Q 1688 409 2113 409 
Q 2538 409 2786 701 
Q 3034 994 3034 1497 
Q 3034 2003 2786 2293 
Q 2538 2584 2113 2584 
z
M 3366 4563 
L 3366 3988 
Q 3128 4100 2886 4159 
Q 2644 4219 2406 4219 
Q 1781 4219 1451 3797 
Q 1122 3375 1075 2522 
Q 1259 2794 1537 2939 
Q 1816 3084 2150 3084 
Q 2853 3084 3261 2657 
Q 3669 2231 3669 1497 
Q 3669 778 3244 343 
Q 2819 -91 2113 -91 
Q 1303 -91 875 529 
Q 447 1150 447 2328 
Q 447 3434 972 4092 
Q 1497 4750 2381 4750 
Q 2619 4750 2861 4703 
Q 3103 4656 3366 4563 
z
" transform="scale(0.015625)"/>
       </defs>
       <use xlink:href="#DejaVuSans-2d"/>
       <use xlink:href="#DejaVuSans-30" x="36.083984"/>
       <use xlink:href="#DejaVuSans-2e" x="99.707031"/>
       <use xlink:href="#DejaVuSans-36" x="131.494141"/>
      </g>
     </g>
    </g>
    <g id="xtick_3">
     <g id="line2d_3">
      <g>
       <use xlink:href="#md07c7b7ce6" x="143.299489" y="307.872" style="stroke: #000000; stroke-width: 0.8"/>
      </g>
     </g>
     <g id="text_3">
      <!-- -0.4 -->
      <g transform="translate(133.54402 322.470438) scale(0.1 -0.1)">
       <defs>
        <path id="DejaVuSans-34" d="M 2419 4116 
L 825 1625 
L 2419 1625 
L 2419 4116 
z
M 2253 4666 
L 3047 4666 
L 3047 1625 
L 3713 1625 
L 3713 1100 
L 3047 1100 
L 3047 0 
L 2419 0 
L 2419 1100 
L 313 1100 
L 313 1709 
L 2253 4666 
z
" transform="scale(0.015625)"/>
       </defs>
       <use xlink:href="#DejaVuSans-2d"/>
       <use xlink:href="#DejaVuSans-30" x="36.083984"/>
       <use xlink:href="#DejaVuSans-2e" x="99.707031"/>
       <use xlink:href="#DejaVuSans-34" x="131.494141"/>
      </g>
     </g>
    </g>
    <g id="xtick_4">
     <g id="line2d_4">
      <g>
       <use xlink:href="#md07c7b7ce6" x="183.881307" y="307.872" style="stroke: #000000; stroke-width: 0.8"/>
      </g>
     </g>
     <g id="text_4">
      <!-- -0.2 -->
      <g transform="translate(174.125838 322.470438) scale(0.1 -0.1)">
       <defs>
        <path id="DejaVuSans-32" d="M 1228 531 
L 3431 531 
L 3431 0 
L 469 0 
L 469 531 
Q 828 903 1448 1529 
Q 2069 2156 2228 2338 
Q 2531 2678 2651 2914 
Q 2772 3150 2772 3378 
Q 2772 3750 2511 3984 
Q 2250 4219 1831 4219 
Q 1534 4219 1204 4116 
Q 875 4013 500 3803 
L 500 4441 
Q 881 4594 1212 4672 
Q 1544 4750 1819 4750 
Q 2544 4750 2975 4387 
Q 3406 4025 3406 3419 
Q 3406 3131 3298 2873 
Q 3191 2616 2906 2266 
Q 2828 2175 2409 1742 
Q 1991 1309 1228 531 
z
" transform="scale(0.015625)"/>
       </defs>
       <use xlink:href="#DejaVuSans-2d"/>
       <use xlink:href="#DejaVuSans-30" x="36.083984"/>
       <use xlink:href="#DejaVuSans-2e" x="99.707031"/>
       <use xlink:href="#DejaVuSans-32" x="131.494141"/>
      </g>
     </g>
    </g>
    <g id="xtick_5">
     <g id="line2d_5">
      <g>
       <use xlink:href="#md07c7b7ce6" x="224.463125" y="307.872" style="stroke: #000000; stroke-width: 0.8"/>
      </g>
     </g>
     <g id="text_5">
      <!-- 0 -->
      <g transform="translate(221.281875 322.470438) scale(0.1 -0.1)">
       <use xlink:href="#DejaVuSans-30"/>
      </g>
     </g>
    </g>
    <g id="xtick_6">
     <g id="line2d_6">
      <g>
       <use xlink:href="#md07c7b7ce6" x="265.044943" y="307.872" style="stroke: #000000; stroke-width: 0.8"/>
      </g>
     </g>
     <g id="text_6">
      <!-- 0.2 -->
      <g transform="translate(257.093381 322.470438) scale(0.1 -0.1)">
       <use xlink:href="#DejaVuSans-30"/>
       <use xlink:href="#DejaVuSans-2e" x="63.623047"/>
       <use xlink:href="#DejaVuSans-32" x="95.410156"/>
      </g>
     </g>
    </g>
    <g id="xtick_7">
     <g id="line2d_7">
      <g>
       <use xlink:href="#md07c7b7ce6" x="305.626761" y="307.872" style="stroke: #000000; stroke-width: 0.8"/>
      </g>
     </g>
     <g id="text_7">
      <!-- 0.4 -->
      <g transform="translate(297.675199 322.470438) scale(0.1 -0.1)">
       <use xlink:href="#DejaVuSans-30"/>
       <use xlink:href="#DejaVuSans-2e" x="63.623047"/>
       <use xlink:href="#DejaVuSans-34" x="95.410156"/>
      </g>
     </g>
    </g>
    <g id="xtick_8">
     <g id="line2d_8">
      <g>
       <use xlink:href="#md07c7b7ce6" x="346.20858" y="307.872" style="stroke: #000000; stroke-width: 0.8"/>
      </g>
     </g>
     <g id="text_8">
      <!-- 0.6 -->
      <g transform="translate(338.257017 322.470438) scale(0.1 -0.1)">
       <use xlink:href="#DejaVuSans-30"/>
       <use xlink:href="#DejaVuSans-2e" x="63.623047"/>
       <use xlink:href="#DejaVuSans-36" x="95.410156"/>
      </g>
     </g>
    </g>
    <g id="xtick_9">
     <g id="line2d_9">
      <g>
       <use xlink:href="#md07c7b7ce6" x="386.790398" y="307.872" style="stroke: #000000; stroke-width: 0.8"/>
      </g>
     </g>
     <g id="text_9">
      <!-- 0.8 -->
      <g transform="translate(378.838835 322.470438) scale(0.1 -0.1)">
       <use xlink:href="#DejaVuSans-30"/>
       <use xlink:href="#DejaVuSans-2e" x="63.623047"/>
       <use xlink:href="#DejaVuSans-38" x="95.410156"/>
      </g>
     </g>
    </g>
    <g id="text_10">
     <!-- amplitude [V] -->
     <g transform="translate(190.285781 336.148562) scale(0.1 -0.1)">
      <defs>
       <path id="DejaVuSans-61" d="M 2194 1759 
Q 1497 1759 1228 1600 
Q 959 1441 959 1056 
Q 959 750 1161 570 
Q 1363 391 1709 391 
Q 2188 391 2477 730 
Q 2766 1069 2766 1631 
L 2766 1759 
L 2194 1759 
z
M 3341 1997 
L 3341 0 
L 2766 0 
L 2766 531 
Q 2569 213 2275 61 
Q 1981 -91 1556 -91 
Q 1019 -91 701 211 
Q 384 513 384 1019 
Q 384 1609 779 1909 
Q 1175 2209 1959 2209 
L 2766 2209 
L 2766 2266 
Q 2766 2663 2505 2880 
Q 2244 3097 1772 3097 
Q 1472 3097 1187 3025 
Q 903 2953 641 2809 
L 641 3341 
Q 956 3463 1253 3523 
Q 1550 3584 1831 3584 
Q 2591 3584 2966 3190 
Q 3341 2797 3341 1997 
z
" transform="scale(0.015625)"/>
       <path id="DejaVuSans-6d" d="M 3328 2828 
Q 3544 3216 3844 3400 
Q 4144 3584 4550 3584 
Q 5097 3584 5394 3201 
Q 5691 2819 5691 2113 
L 5691 0 
L 5113 0 
L 5113 2094 
Q 5113 2597 4934 2840 
Q 4756 3084 4391 3084 
Q 3944 3084 3684 2787 
Q 3425 2491 3425 1978 
L 3425 0 
L 2847 0 
L 2847 2094 
Q 2847 2600 2669 2842 
Q 2491 3084 2119 3084 
Q 1678 3084 1418 2786 
Q 1159 2488 1159 1978 
L 1159 0 
L 581 0 
L 581 3500 
L 1159 3500 
L 1159 2956 
Q 1356 3278 1631 3431 
Q 1906 3584 2284 3584 
Q 2666 3584 2933 3390 
Q 3200 3197 3328 2828 
z
" transform="scale(0.015625)"/>
       <path id="DejaVuSans-70" d="M 1159 525 
L 1159 -1331 
L 581 -1331 
L 581 3500 
L 1159 3500 
L 1159 2969 
Q 1341 3281 1617 3432 
Q 1894 3584 2278 3584 
Q 2916 3584 3314 3078 
Q 3713 2572 3713 1747 
Q 3713 922 3314 415 
Q 2916 -91 2278 -91 
Q 1894 -91 1617 61 
Q 1341 213 1159 525 
z
M 3116 1747 
Q 3116 2381 2855 2742 
Q 2594 3103 2138 3103 
Q 1681 3103 1420 2742 
Q 1159 2381 1159 1747 
Q 1159 1113 1420 752 
Q 1681 391 2138 391 
Q 2594 391 2855 752 
Q 3116 1113 3116 1747 
z
" transform="scale(0.015625)"/>
       <path id="DejaVuSans-6c" d="M 603 4863 
L 1178 4863 
L 1178 0 
L 603 0 
L 603 4863 
z
" transform="scale(0.015625)"/>
       <path id="DejaVuSans-69" d="M 603 3500 
L 1178 3500 
L 1178 0 
L 603 0 
L 603 3500 
z
M 603 4863 
L 1178 4863 
L 1178 4134 
L 603 4134 
L 603 4863 
z
" transform="scale(0.015625)"/>
       <path id="DejaVuSans-74" d="M 1172 4494 
L 1172 3500 
L 2356 3500 
L 2356 3053 
L 1172 3053 
L 1172 1153 
Q 1172 725 1289 603 
Q 1406 481 1766 481 
L 2356 481 
L 2356 0 
L 1766 0 
Q 1100 0 847 248 
Q 594 497 594 1153 
L 594 3053 
L 172 3053 
L 172 3500 
L 594 3500 
L 594 4494 
L 1172 4494 
z
" transform="scale(0.015625)"/>
       <path id="DejaVuSans-75" d="M 544 1381 
L 544 3500 
L 1119 3500 
L 1119 1403 
Q 1119 906 1312 657 
Q 1506 409 1894 409 
Q 2359 409 2629 706 
Q 2900 1003 2900 1516 
L 2900 3500 
L 3475 3500 
L 3475 0 
L 2900 0 
L 2900 538 
Q 2691 219 2414 64 
Q 2138 -91 1772 -91 
Q 1169 -91 856 284 
Q 544 659 544 1381 
z
M 1991 3584 
L 1991 3584 
z
" transform="scale(0.015625)"/>
       <path id="DejaVuSans-64" d="M 2906 2969 
L 2906 4863 
L 3481 4863 
L 3481 0 
L 2906 0 
L 2906 525 
Q 2725 213 2448 61 
Q 2172 -91 1784 -91 
Q 1150 -91 751 415 
Q 353 922 353 1747 
Q 353 2572 751 3078 
Q 1150 3584 1784 3584 
Q 2172 3584 2448 3432 
Q 2725 3281 2906 2969 
z
M 947 1747 
Q 947 1113 1208 752 
Q 1469 391 1925 391 
Q 2381 391 2643 752 
Q 2906 1113 2906 1747 
Q 2906 2381 2643 2742 
Q 2381 3103 1925 3103 
Q 1469 3103 1208 2742 
Q 947 2381 947 1747 
z
" transform="scale(0.015625)"/>
       <path id="DejaVuSans-65" d="M 3597 1894 
L 3597 1613 
L 953 1613 
Q 991 1019 1311 708 
Q 1631 397 2203 397 
Q 2534 397 2845 478 
Q 3156 559 3463 722 
L 3463 178 
Q 3153 47 2828 -22 
Q 2503 -91 2169 -91 
Q 1331 -91 842 396 
Q 353 884 353 1716 
Q 353 2575 817 3079 
Q 1281 3584 2069 3584 
Q 2775 3584 3186 3129 
Q 3597 2675 3597 1894 
z
M 3022 2063 
Q 3016 2534 2758 2815 
Q 2500 3097 2075 3097 
Q 1594 3097 1305 2825 
Q 1016 2553 972 2059 
L 3022 2063 
z
" transform="scale(0.015625)"/>
       <path id="DejaVuSans-20" transform="scale(0.015625)"/>
       <path id="DejaVuSans-5b" d="M 550 4863 
L 1875 4863 
L 1875 4416 
L 1125 4416 
L 1125 -397 
L 1875 -397 
L 1875 -844 
L 550 -844 
L 550 4863 
z
" transform="scale(0.015625)"/>
       <path id="DejaVuSans-56" d="M 1831 0 
L 50 4666 
L 709 4666 
L 2188 738 
L 3669 4666 
L 4325 4666 
L 2547 0 
L 1831 0 
z
" transform="scale(0.015625)"/>
       <path id="DejaVuSans-5d" d="M 1947 4863 
L 1947 -844 
L 622 -844 
L 622 -397 
L 1369 -397 
L 1369 4416 
L 622 4416 
L 622 4863 
L 1947 4863 
z
" transform="scale(0.015625)"/>
      </defs>
      <use xlink:href="#DejaVuSans-61"/>
      <use xlink:href="#DejaVuSans-6d" x="61.279297"/>
      <use xlink:href="#DejaVuSans-70" x="158.691406"/>
      <use xlink:href="#DejaVuSans-6c" x="222.167969"/>
      <use xlink:href="#DejaVuSans-69" x="249.951172"/>
      <use xlink:href="#DejaVuSans-74" x="277.734375"/>
      <use xlink:href="#DejaVuSans-75" x="316.943359"/>
      <use xlink:href="#DejaVuSans-64" x="380.322266"/>
      <use xlink:href="#DejaVuSans-65" x="443.798828"/>
      <use xlink:href="#DejaVuSans-20" x="505.322266"/>
      <use xlink:href="#DejaVuSans-5b" x="537.109375"/>
      <use xlink:href="#DejaVuSans-56" x="576.123047"/>
      <use xlink:href="#DejaVuSans-5d" x="644.53125"/>
     </g>
    </g>
   </g>
   <g id="matplotlib.axis_2">
    <g id="ytick_1">
     <g id="line2d_10">
      <defs>
       <path id="m136c556b75" d="M 0 0 
L -3.5 0 
" style="stroke: #000000; stroke-width: 0.8"/>
      </defs>
      <g>
       <use xlink:href="#m136c556b75" x="45.903125" y="268.998215" style="stroke: #000000; stroke-width: 0.8"/>
      </g>
     </g>
     <g id="text_11">
      <!-- 1 -->
      <g transform="translate(32.540625 272.797434) scale(0.1 -0.1)">
       <defs>
        <path id="DejaVuSans-31" d="M 794 531 
L 1825 531 
L 1825 4091 
L 703 3866 
L 703 4441 
L 1819 4666 
L 2450 4666 
L 2450 531 
L 3481 531 
L 3481 0 
L 794 0 
L 794 531 
z
" transform="scale(0.015625)"/>
       </defs>
       <use xlink:href="#DejaVuSans-31"/>
      </g>
     </g>
    </g>
    <g id="ytick_2">
     <g id="line2d_11">
      <g>
       <use xlink:href="#m136c556b75" x="45.903125" y="210.045667" style="stroke: #000000; stroke-width: 0.8"/>
      </g>
     </g>
     <g id="text_12">
      <!-- 1.5 -->
      <g transform="translate(23 213.844886) scale(0.1 -0.1)">
       <defs>
        <path id="DejaVuSans-35" d="M 691 4666 
L 3169 4666 
L 3169 4134 
L 1269 4134 
L 1269 2991 
Q 1406 3038 1543 3061 
Q 1681 3084 1819 3084 
Q 2600 3084 3056 2656 
Q 3513 2228 3513 1497 
Q 3513 744 3044 326 
Q 2575 -91 1722 -91 
Q 1428 -91 1123 -41 
Q 819 9 494 109 
L 494 744 
Q 775 591 1075 516 
Q 1375 441 1709 441 
Q 2250 441 2565 725 
Q 2881 1009 2881 1497 
Q 2881 1984 2565 2268 
Q 2250 2553 1709 2553 
Q 1456 2553 1204 2497 
Q 953 2441 691 2322 
L 691 4666 
z
" transform="scale(0.015625)"/>
       </defs>
       <use xlink:href="#DejaVuSans-31"/>
       <use xlink:href="#DejaVuSans-2e" x="63.623047"/>
       <use xlink:href="#DejaVuSans-35" x="95.410156"/>
      </g>
     </g>
    </g>
    <g id="ytick_3">
     <g id="line2d_12">
      <g>
       <use xlink:href="#m136c556b75" x="45.903125" y="151.093119" style="stroke: #000000; stroke-width: 0.8"/>
      </g>
     </g>
     <g id="text_13">
      <!-- 2 -->
      <g transform="translate(32.540625 154.892337) scale(0.1 -0.1)">
       <use xlink:href="#DejaVuSans-32"/>
      </g>
     </g>
    </g>
    <g id="ytick_4">
     <g id="line2d_13">
      <g>
       <use xlink:href="#m136c556b75" x="45.903125" y="92.14057" style="stroke: #000000; stroke-width: 0.8"/>
      </g>
     </g>
     <g id="text_14">
      <!-- 2.5 -->
      <g transform="translate(23 95.939789) scale(0.1 -0.1)">
       <use xlink:href="#DejaVuSans-32"/>
       <use xlink:href="#DejaVuSans-2e" x="63.623047"/>
       <use xlink:href="#DejaVuSans-35" x="95.410156"/>
      </g>
     </g>
    </g>
    <g id="text_15">
     <!-- Rotated transmission $S_{21}^R$ [mV] -->
     <g transform="translate(16.2 251.266) rotate(-90) scale(0.1 -0.1)">
      <defs>
       <path id="DejaVuSans-52" d="M 2841 2188 
Q 3044 2119 3236 1894 
Q 3428 1669 3622 1275 
L 4263 0 
L 3584 0 
L 2988 1197 
Q 2756 1666 2539 1819 
Q 2322 1972 1947 1972 
L 1259 1972 
L 1259 0 
L 628 0 
L 628 4666 
L 2053 4666 
Q 2853 4666 3247 4331 
Q 3641 3997 3641 3322 
Q 3641 2881 3436 2590 
Q 3231 2300 2841 2188 
z
M 1259 4147 
L 1259 2491 
L 2053 2491 
Q 2509 2491 2742 2702 
Q 2975 2913 2975 3322 
Q 2975 3731 2742 3939 
Q 2509 4147 2053 4147 
L 1259 4147 
z
" transform="scale(0.015625)"/>
       <path id="DejaVuSans-6f" d="M 1959 3097 
Q 1497 3097 1228 2736 
Q 959 2375 959 1747 
Q 959 1119 1226 758 
Q 1494 397 1959 397 
Q 2419 397 2687 759 
Q 2956 1122 2956 1747 
Q 2956 2369 2687 2733 
Q 2419 3097 1959 3097 
z
M 1959 3584 
Q 2709 3584 3137 3096 
Q 3566 2609 3566 1747 
Q 3566 888 3137 398 
Q 2709 -91 1959 -91 
Q 1206 -91 779 398 
Q 353 888 353 1747 
Q 353 2609 779 3096 
Q 1206 3584 1959 3584 
z
" transform="scale(0.015625)"/>
       <path id="DejaVuSans-72" d="M 2631 2963 
Q 2534 3019 2420 3045 
Q 2306 3072 2169 3072 
Q 1681 3072 1420 2755 
Q 1159 2438 1159 1844 
L 1159 0 
L 581 0 
L 581 3500 
L 1159 3500 
L 1159 2956 
Q 1341 3275 1631 3429 
Q 1922 3584 2338 3584 
Q 2397 3584 2469 3576 
Q 2541 3569 2628 3553 
L 2631 2963 
z
" transform="scale(0.015625)"/>
       <path id="DejaVuSans-6e" d="M 3513 2113 
L 3513 0 
L 2938 0 
L 2938 2094 
Q 2938 2591 2744 2837 
Q 2550 3084 2163 3084 
Q 1697 3084 1428 2787 
Q 1159 2491 1159 1978 
L 1159 0 
L 581 0 
L 581 3500 
L 1159 3500 
L 1159 2956 
Q 1366 3272 1645 3428 
Q 1925 3584 2291 3584 
Q 2894 3584 3203 3211 
Q 3513 2838 3513 2113 
z
" transform="scale(0.015625)"/>
       <path id="DejaVuSans-73" d="M 2834 3397 
L 2834 2853 
Q 2591 2978 2328 3040 
Q 2066 3103 1784 3103 
Q 1356 3103 1142 2972 
Q 928 2841 928 2578 
Q 928 2378 1081 2264 
Q 1234 2150 1697 2047 
L 1894 2003 
Q 2506 1872 2764 1633 
Q 3022 1394 3022 966 
Q 3022 478 2636 193 
Q 2250 -91 1575 -91 
Q 1294 -91 989 -36 
Q 684 19 347 128 
L 347 722 
Q 666 556 975 473 
Q 1284 391 1588 391 
Q 1994 391 2212 530 
Q 2431 669 2431 922 
Q 2431 1156 2273 1281 
Q 2116 1406 1581 1522 
L 1381 1569 
Q 847 1681 609 1914 
Q 372 2147 372 2553 
Q 372 3047 722 3315 
Q 1072 3584 1716 3584 
Q 2034 3584 2315 3537 
Q 2597 3491 2834 3397 
z
" transform="scale(0.015625)"/>
       <path id="DejaVuSans-Oblique-53" d="M 3859 4513 
L 3738 3897 
Q 3422 4066 3111 4152 
Q 2800 4238 2509 4238 
Q 1944 4238 1609 3991 
Q 1275 3744 1275 3334 
Q 1275 3109 1398 2989 
Q 1522 2869 2034 2731 
L 2413 2638 
Q 3053 2472 3303 2217 
Q 3553 1963 3553 1503 
Q 3553 797 2998 353 
Q 2444 -91 1538 -91 
Q 1166 -91 791 -17 
Q 416 56 38 206 
L 166 856 
Q 513 641 861 531 
Q 1209 422 1556 422 
Q 2147 422 2503 684 
Q 2859 947 2859 1369 
Q 2859 1650 2717 1795 
Q 2575 1941 2106 2059 
L 1728 2156 
Q 1081 2325 845 2545 
Q 609 2766 609 3163 
Q 609 3859 1145 4304 
Q 1681 4750 2541 4750 
Q 2875 4750 3203 4690 
Q 3531 4631 3859 4513 
z
" transform="scale(0.015625)"/>
       <path id="DejaVuSans-Oblique-52" d="M 1613 4147 
L 1294 2491 
L 2106 2491 
Q 2584 2491 2879 2755 
Q 3175 3019 3175 3444 
Q 3175 3784 2976 3965 
Q 2778 4147 2406 4147 
L 1613 4147 
z
M 2772 2241 
Q 2972 2194 3105 2009 
Q 3238 1825 3413 1275 
L 3809 0 
L 3144 0 
L 2778 1197 
Q 2638 1659 2453 1815 
Q 2269 1972 1888 1972 
L 1191 1972 
L 806 0 
L 172 0 
L 1081 4666 
L 2503 4666 
Q 3150 4666 3495 4373 
Q 3841 4081 3841 3531 
Q 3841 3044 3547 2687 
Q 3253 2331 2772 2241 
z
" transform="scale(0.015625)"/>
      </defs>
      <use xlink:href="#DejaVuSans-52" transform="translate(0 0.684375)"/>
      <use xlink:href="#DejaVuSans-6f" transform="translate(69.482422 0.684375)"/>
      <use xlink:href="#DejaVuSans-74" transform="translate(130.664062 0.684375)"/>
      <use xlink:href="#DejaVuSans-61" transform="translate(169.873047 0.684375)"/>
      <use xlink:href="#DejaVuSans-74" transform="translate(231.152344 0.684375)"/>
      <use xlink:href="#DejaVuSans-65" transform="translate(270.361328 0.684375)"/>
      <use xlink:href="#DejaVuSans-64" transform="translate(331.884766 0.684375)"/>
      <use xlink:href="#DejaVuSans-20" transform="translate(395.361328 0.684375)"/>
      <use xlink:href="#DejaVuSans-74" transform="translate(427.148438 0.684375)"/>
      <use xlink:href="#DejaVuSans-72" transform="translate(466.357422 0.684375)"/>
      <use xlink:href="#DejaVuSans-61" transform="translate(507.470703 0.684375)"/>
      <use xlink:href="#DejaVuSans-6e" transform="translate(568.75 0.684375)"/>
      <use xlink:href="#DejaVuSans-73" transform="translate(632.128906 0.684375)"/>
      <use xlink:href="#DejaVuSans-6d" transform="translate(684.228516 0.684375)"/>
      <use xlink:href="#DejaVuSans-69" transform="translate(781.640625 0.684375)"/>
      <use xlink:href="#DejaVuSans-73" transform="translate(809.423828 0.684375)"/>
      <use xlink:href="#DejaVuSans-73" transform="translate(861.523438 0.684375)"/>
      <use xlink:href="#DejaVuSans-69" transform="translate(913.623047 0.684375)"/>
      <use xlink:href="#DejaVuSans-6f" transform="translate(941.40625 0.684375)"/>
      <use xlink:href="#DejaVuSans-6e" transform="translate(1002.587891 0.684375)"/>
      <use xlink:href="#DejaVuSans-20" transform="translate(1065.966797 0.684375)"/>
      <use xlink:href="#DejaVuSans-Oblique-53" transform="translate(1097.753906 0.684375)"/>
      <use xlink:href="#DejaVuSans-Oblique-52" transform="translate(1168.43099 38.965625) scale(0.7)"/>
      <use xlink:href="#DejaVuSans-32" transform="translate(1161.230469 -26.659375) scale(0.7)"/>
      <use xlink:href="#DejaVuSans-31" transform="translate(1205.766602 -26.659375) scale(0.7)"/>
      <use xlink:href="#DejaVuSans-20" transform="translate(1253.037109 0.684375)"/>
      <use xlink:href="#DejaVuSans-5b" transform="translate(1284.824219 0.684375)"/>
      <use xlink:href="#DejaVuSans-6d" transform="translate(1323.837891 0.684375)"/>
      <use xlink:href="#DejaVuSans-56" transform="translate(1421.25 0.684375)"/>
      <use xlink:href="#DejaVuSans-5d" transform="translate(1489.658203 0.684375)"/>
     </g>
    </g>
   </g>
   <g id="line2d_14">
    <defs>
     <path id="m14335b982e" d="M 0 1.5 
C 0.397805 1.5 0.77937 1.341951 1.06066 1.06066 
C 1.341951 0.77937 1.5 0.397805 1.5 0 
C 1.5 -0.397805 1.341951 -0.77937 1.06066 -1.06066 
C 0.77937 -1.341951 0.397805 -1.5 0 -1.5 
C -0.397805 -1.5 -0.77937 -1.341951 -1.06066 -1.06066 
C -1.341951 -0.77937 -1.5 -0.397805 -1.5 0 
C -1.5 0.397805 -1.341951 0.77937 -1.06066 1.06066 
C -0.77937 1.341951 -0.397805 1.5 0 1.5 
z
" style="stroke: #1f77b4"/>
    </defs>
    <g clip-path="url(#p01f846141a)">
     <use xlink:href="#m14335b982e" x="62.135852" y="101.18553" style="fill: #1f77b4; stroke: #1f77b4"/>
     <use xlink:href="#m14335b982e" x="63.767282" y="120.77125" style="fill: #1f77b4; stroke: #1f77b4"/>
     <use xlink:href="#m14335b982e" x="65.398712" y="135.33672" style="fill: #1f77b4; stroke: #1f77b4"/>
     <use xlink:href="#m14335b982e" x="67.030142" y="187.866392" style="fill: #1f77b4; stroke: #1f77b4"/>
     <use xlink:href="#m14335b982e" x="68.661572" y="76.819849" style="fill: #1f77b4; stroke: #1f77b4"/>
     <use xlink:href="#m14335b982e" x="70.293002" y="134.821939" style="fill: #1f77b4; stroke: #1f77b4"/>
     <use xlink:href="#m14335b982e" x="71.924432" y="114.007637" style="fill: #1f77b4; stroke: #1f77b4"/>
     <use xlink:href="#m14335b982e" x="73.555861" y="128.935781" style="fill: #1f77b4; stroke: #1f77b4"/>
     <use xlink:href="#m14335b982e" x="75.187291" y="165.823182" style="fill: #1f77b4; stroke: #1f77b4"/>
     <use xlink:href="#m14335b982e" x="76.818721" y="71.652179" style="fill: #1f77b4; stroke: #1f77b4"/>
     <use xlink:href="#m14335b982e" x="78.450151" y="137.482827" style="fill: #1f77b4; stroke: #1f77b4"/>
     <use xlink:href="#m14335b982e" x="80.081581" y="107.383397" style="fill: #1f77b4; stroke: #1f77b4"/>
     <use xlink:href="#m14335b982e" x="81.713011" y="124.47776" style="fill: #1f77b4; stroke: #1f77b4"/>
     <use xlink:href="#m14335b982e" x="83.344441" y="155.958765" style="fill: #1f77b4; stroke: #1f77b4"/>
     <use xlink:href="#m14335b982e" x="84.975871" y="67.648003" style="fill: #1f77b4; stroke: #1f77b4"/>
     <use xlink:href="#m14335b982e" x="86.6073" y="138.99923" style="fill: #1f77b4; stroke: #1f77b4"/>
     <use xlink:href="#m14335b982e" x="88.23873" y="121.543332" style="fill: #1f77b4; stroke: #1f77b4"/>
     <use xlink:href="#m14335b982e" x="89.87016" y="124.398967" style="fill: #1f77b4; stroke: #1f77b4"/>
     <use xlink:href="#m14335b982e" x="91.50159" y="139.222722" style="fill: #1f77b4; stroke: #1f77b4"/>
     <use xlink:href="#m14335b982e" x="93.13302" y="83.797041" style="fill: #1f77b4; stroke: #1f77b4"/>
     <use xlink:href="#m14335b982e" x="94.76445" y="153.632173" style="fill: #1f77b4; stroke: #1f77b4"/>
     <use xlink:href="#m14335b982e" x="96.39588" y="133.305902" style="fill: #1f77b4; stroke: #1f77b4"/>
     <use xlink:href="#m14335b982e" x="98.02731" y="124.503565" style="fill: #1f77b4; stroke: #1f77b4"/>
     <use xlink:href="#m14335b982e" x="99.658739" y="131.63839" style="fill: #1f77b4; stroke: #1f77b4"/>
     <use xlink:href="#m14335b982e" x="101.290169" y="102.949687" style="fill: #1f77b4; stroke: #1f77b4"/>
     <use xlink:href="#m14335b982e" x="102.921599" y="162.950874" style="fill: #1f77b4; stroke: #1f77b4"/>
     <use xlink:href="#m14335b982e" x="104.553029" y="170.090225" style="fill: #1f77b4; stroke: #1f77b4"/>
     <use xlink:href="#m14335b982e" x="106.184459" y="137.20697" style="fill: #1f77b4; stroke: #1f77b4"/>
     <use xlink:href="#m14335b982e" x="107.815889" y="122.366884" style="fill: #1f77b4; stroke: #1f77b4"/>
     <use xlink:href="#m14335b982e" x="109.447319" y="136.942079" style="fill: #1f77b4; stroke: #1f77b4"/>
     <use xlink:href="#m14335b982e" x="111.078749" y="189.979205" style="fill: #1f77b4; stroke: #1f77b4"/>
     <use xlink:href="#m14335b982e" x="112.710178" y="192.082381" style="fill: #1f77b4; stroke: #1f77b4"/>
     <use xlink:href="#m14335b982e" x="114.341608" y="167.265424" style="fill: #1f77b4; stroke: #1f77b4"/>
     <use xlink:href="#m14335b982e" x="115.973038" y="128.037854" style="fill: #1f77b4; stroke: #1f77b4"/>
     <use xlink:href="#m14335b982e" x="117.604468" y="185.64963" style="fill: #1f77b4; stroke: #1f77b4"/>
     <use xlink:href="#m14335b982e" x="119.235898" y="199.000594" style="fill: #1f77b4; stroke: #1f77b4"/>
     <use xlink:href="#m14335b982e" x="120.867328" y="227.545942" style="fill: #1f77b4; stroke: #1f77b4"/>
     <use xlink:href="#m14335b982e" x="122.498758" y="190.64174" style="fill: #1f77b4; stroke: #1f77b4"/>
     <use xlink:href="#m14335b982e" x="124.130188" y="133.362744" style="fill: #1f77b4; stroke: #1f77b4"/>
     <use xlink:href="#m14335b982e" x="125.761617" y="228.309002" style="fill: #1f77b4; stroke: #1f77b4"/>
     <use xlink:href="#m14335b982e" x="127.393047" y="234.409928" style="fill: #1f77b4; stroke: #1f77b4"/>
     <use xlink:href="#m14335b982e" x="129.024477" y="252.056669" style="fill: #1f77b4; stroke: #1f77b4"/>
     <use xlink:href="#m14335b982e" x="130.655907" y="224.864843" style="fill: #1f77b4; stroke: #1f77b4"/>
     <use xlink:href="#m14335b982e" x="132.287337" y="139.389642" style="fill: #1f77b4; stroke: #1f77b4"/>
     <use xlink:href="#m14335b982e" x="133.918767" y="261.400518" style="fill: #1f77b4; stroke: #1f77b4"/>
     <use xlink:href="#m14335b982e" x="135.550197" y="233.529711" style="fill: #1f77b4; stroke: #1f77b4"/>
     <use xlink:href="#m14335b982e" x="137.181627" y="263.223236" style="fill: #1f77b4; stroke: #1f77b4"/>
     <use xlink:href="#m14335b982e" x="138.813056" y="232.696757" style="fill: #1f77b4; stroke: #1f77b4"/>
     <use xlink:href="#m14335b982e" x="140.444486" y="152.197555" style="fill: #1f77b4; stroke: #1f77b4"/>
     <use xlink:href="#m14335b982e" x="142.075916" y="270.606436" style="fill: #1f77b4; stroke: #1f77b4"/>
     <use xlink:href="#m14335b982e" x="143.707346" y="224.699284" style="fill: #1f77b4; stroke: #1f77b4"/>
     <use xlink:href="#m14335b982e" x="145.338776" y="254.630529" style="fill: #1f77b4; stroke: #1f77b4"/>
     <use xlink:href="#m14335b982e" x="146.970206" y="233.191952" style="fill: #1f77b4; stroke: #1f77b4"/>
     <use xlink:href="#m14335b982e" x="148.601636" y="146.287051" style="fill: #1f77b4; stroke: #1f77b4"/>
     <use xlink:href="#m14335b982e" x="150.233066" y="254.555017" style="fill: #1f77b4; stroke: #1f77b4"/>
     <use xlink:href="#m14335b982e" x="151.864495" y="200.018688" style="fill: #1f77b4; stroke: #1f77b4"/>
     <use xlink:href="#m14335b982e" x="153.495925" y="230.924011" style="fill: #1f77b4; stroke: #1f77b4"/>
     <use xlink:href="#m14335b982e" x="155.127355" y="203.330432" style="fill: #1f77b4; stroke: #1f77b4"/>
     <use xlink:href="#m14335b982e" x="156.758785" y="140.431299" style="fill: #1f77b4; stroke: #1f77b4"/>
     <use xlink:href="#m14335b982e" x="158.390215" y="220.87475" style="fill: #1f77b4; stroke: #1f77b4"/>
     <use xlink:href="#m14335b982e" x="160.021645" y="160.818372" style="fill: #1f77b4; stroke: #1f77b4"/>
     <use xlink:href="#m14335b982e" x="161.653075" y="194.900418" style="fill: #1f77b4; stroke: #1f77b4"/>
     <use xlink:href="#m14335b982e" x="163.284505" y="166.190207" style="fill: #1f77b4; stroke: #1f77b4"/>
     <use xlink:href="#m14335b982e" x="164.915935" y="138.482233" style="fill: #1f77b4; stroke: #1f77b4"/>
     <use xlink:href="#m14335b982e" x="166.547364" y="183.150116" style="fill: #1f77b4; stroke: #1f77b4"/>
     <use xlink:href="#m14335b982e" x="168.178794" y="135.699333" style="fill: #1f77b4; stroke: #1f77b4"/>
     <use xlink:href="#m14335b982e" x="169.810224" y="169.946414" style="fill: #1f77b4; stroke: #1f77b4"/>
     <use xlink:href="#m14335b982e" x="171.441654" y="137.183557" style="fill: #1f77b4; stroke: #1f77b4"/>
     <use xlink:href="#m14335b982e" x="173.073084" y="121.528881" style="fill: #1f77b4; stroke: #1f77b4"/>
     <use xlink:href="#m14335b982e" x="174.704514" y="150.699774" style="fill: #1f77b4; stroke: #1f77b4"/>
     <use xlink:href="#m14335b982e" x="176.335944" y="115.956468" style="fill: #1f77b4; stroke: #1f77b4"/>
     <use xlink:href="#m14335b982e" x="177.967374" y="161.390946" style="fill: #1f77b4; stroke: #1f77b4"/>
     <use xlink:href="#m14335b982e" x="179.598803" y="120.192764" style="fill: #1f77b4; stroke: #1f77b4"/>
     <use xlink:href="#m14335b982e" x="181.230233" y="123.225365" style="fill: #1f77b4; stroke: #1f77b4"/>
     <use xlink:href="#m14335b982e" x="182.861663" y="136.849684" style="fill: #1f77b4; stroke: #1f77b4"/>
     <use xlink:href="#m14335b982e" x="184.493093" y="118.765935" style="fill: #1f77b4; stroke: #1f77b4"/>
     <use xlink:href="#m14335b982e" x="186.124523" y="158.966719" style="fill: #1f77b4; stroke: #1f77b4"/>
     <use xlink:href="#m14335b982e" x="187.755953" y="125.479047" style="fill: #1f77b4; stroke: #1f77b4"/>
     <use xlink:href="#m14335b982e" x="189.387383" y="146.096914" style="fill: #1f77b4; stroke: #1f77b4"/>
     <use xlink:href="#m14335b982e" x="191.018813" y="154.490166" style="fill: #1f77b4; stroke: #1f77b4"/>
     <use xlink:href="#m14335b982e" x="192.650242" y="154.515809" style="fill: #1f77b4; stroke: #1f77b4"/>
     <use xlink:href="#m14335b982e" x="194.281672" y="179.832295" style="fill: #1f77b4; stroke: #1f77b4"/>
     <use xlink:href="#m14335b982e" x="195.913102" y="164.075275" style="fill: #1f77b4; stroke: #1f77b4"/>
     <use xlink:href="#m14335b982e" x="197.544532" y="182.386828" style="fill: #1f77b4; stroke: #1f77b4"/>
     <use xlink:href="#m14335b982e" x="199.175962" y="193.51867" style="fill: #1f77b4; stroke: #1f77b4"/>
     <use xlink:href="#m14335b982e" x="200.807392" y="189.415635" style="fill: #1f77b4; stroke: #1f77b4"/>
     <use xlink:href="#m14335b982e" x="202.438822" y="213.791606" style="fill: #1f77b4; stroke: #1f77b4"/>
     <use xlink:href="#m14335b982e" x="204.070252" y="210.780675" style="fill: #1f77b4; stroke: #1f77b4"/>
     <use xlink:href="#m14335b982e" x="205.701681" y="222.90853" style="fill: #1f77b4; stroke: #1f77b4"/>
     <use xlink:href="#m14335b982e" x="207.333111" y="231.199287" style="fill: #1f77b4; stroke: #1f77b4"/>
     <use xlink:href="#m14335b982e" x="208.964541" y="241.675039" style="fill: #1f77b4; stroke: #1f77b4"/>
     <use xlink:href="#m14335b982e" x="210.595971" y="257.550299" style="fill: #1f77b4; stroke: #1f77b4"/>
     <use xlink:href="#m14335b982e" x="212.227401" y="255.875191" style="fill: #1f77b4; stroke: #1f77b4"/>
     <use xlink:href="#m14335b982e" x="213.858831" y="267.204396" style="fill: #1f77b4; stroke: #1f77b4"/>
     <use xlink:href="#m14335b982e" x="215.490261" y="270.829076" style="fill: #1f77b4; stroke: #1f77b4"/>
     <use xlink:href="#m14335b982e" x="217.121691" y="275.82697" style="fill: #1f77b4; stroke: #1f77b4"/>
     <use xlink:href="#m14335b982e" x="218.75312" y="285.485537" style="fill: #1f77b4; stroke: #1f77b4"/>
     <use xlink:href="#m14335b982e" x="220.38455" y="283.486957" style="fill: #1f77b4; stroke: #1f77b4"/>
     <use xlink:href="#m14335b982e" x="222.01598" y="289.520347" style="fill: #1f77b4; stroke: #1f77b4"/>
     <use xlink:href="#m14335b982e" x="223.64741" y="295.776" style="fill: #1f77b4; stroke: #1f77b4"/>
     <use xlink:href="#m14335b982e" x="225.27884" y="287.033327" style="fill: #1f77b4; stroke: #1f77b4"/>
     <use xlink:href="#m14335b982e" x="226.91027" y="288.412087" style="fill: #1f77b4; stroke: #1f77b4"/>
     <use xlink:href="#m14335b982e" x="228.5417" y="291.504888" style="fill: #1f77b4; stroke: #1f77b4"/>
     <use xlink:href="#m14335b982e" x="230.17313" y="281.836713" style="fill: #1f77b4; stroke: #1f77b4"/>
     <use xlink:href="#m14335b982e" x="231.804559" y="278.745385" style="fill: #1f77b4; stroke: #1f77b4"/>
     <use xlink:href="#m14335b982e" x="233.435989" y="270.682551" style="fill: #1f77b4; stroke: #1f77b4"/>
     <use xlink:href="#m14335b982e" x="235.067419" y="263.918833" style="fill: #1f77b4; stroke: #1f77b4"/>
     <use xlink:href="#m14335b982e" x="236.698849" y="256.441552" style="fill: #1f77b4; stroke: #1f77b4"/>
     <use xlink:href="#m14335b982e" x="238.330279" y="247.435554" style="fill: #1f77b4; stroke: #1f77b4"/>
     <use xlink:href="#m14335b982e" x="239.961709" y="246.890973" style="fill: #1f77b4; stroke: #1f77b4"/>
     <use xlink:href="#m14335b982e" x="241.593139" y="242.311537" style="fill: #1f77b4; stroke: #1f77b4"/>
     <use xlink:href="#m14335b982e" x="243.224569" y="230.468691" style="fill: #1f77b4; stroke: #1f77b4"/>
     <use xlink:href="#m14335b982e" x="244.855998" y="213.064634" style="fill: #1f77b4; stroke: #1f77b4"/>
     <use xlink:href="#m14335b982e" x="246.487428" y="201.594778" style="fill: #1f77b4; stroke: #1f77b4"/>
     <use xlink:href="#m14335b982e" x="248.118858" y="194.465882" style="fill: #1f77b4; stroke: #1f77b4"/>
     <use xlink:href="#m14335b982e" x="249.750288" y="201.746466" style="fill: #1f77b4; stroke: #1f77b4"/>
     <use xlink:href="#m14335b982e" x="251.381718" y="167.728182" style="fill: #1f77b4; stroke: #1f77b4"/>
     <use xlink:href="#m14335b982e" x="253.013148" y="175.872161" style="fill: #1f77b4; stroke: #1f77b4"/>
     <use xlink:href="#m14335b982e" x="254.644578" y="159.736791" style="fill: #1f77b4; stroke: #1f77b4"/>
     <use xlink:href="#m14335b982e" x="256.276008" y="155.844923" style="fill: #1f77b4; stroke: #1f77b4"/>
     <use xlink:href="#m14335b982e" x="257.907437" y="160.622344" style="fill: #1f77b4; stroke: #1f77b4"/>
     <use xlink:href="#m14335b982e" x="259.538867" y="131.138611" style="fill: #1f77b4; stroke: #1f77b4"/>
     <use xlink:href="#m14335b982e" x="261.170297" y="150.803938" style="fill: #1f77b4; stroke: #1f77b4"/>
     <use xlink:href="#m14335b982e" x="262.801727" y="136.367545" style="fill: #1f77b4; stroke: #1f77b4"/>
     <use xlink:href="#m14335b982e" x="264.433157" y="123.832986" style="fill: #1f77b4; stroke: #1f77b4"/>
     <use xlink:href="#m14335b982e" x="266.064587" y="145.249317" style="fill: #1f77b4; stroke: #1f77b4"/>
     <use xlink:href="#m14335b982e" x="267.696017" y="107.90155" style="fill: #1f77b4; stroke: #1f77b4"/>
     <use xlink:href="#m14335b982e" x="269.327447" y="141.923407" style="fill: #1f77b4; stroke: #1f77b4"/>
     <use xlink:href="#m14335b982e" x="270.958876" y="131.335772" style="fill: #1f77b4; stroke: #1f77b4"/>
     <use xlink:href="#m14335b982e" x="272.590306" y="114.063855" style="fill: #1f77b4; stroke: #1f77b4"/>
     <use xlink:href="#m14335b982e" x="274.221736" y="157.454202" style="fill: #1f77b4; stroke: #1f77b4"/>
     <use xlink:href="#m14335b982e" x="275.853166" y="121.005718" style="fill: #1f77b4; stroke: #1f77b4"/>
     <use xlink:href="#m14335b982e" x="277.484596" y="155.871113" style="fill: #1f77b4; stroke: #1f77b4"/>
     <use xlink:href="#m14335b982e" x="279.116026" y="161.61619" style="fill: #1f77b4; stroke: #1f77b4"/>
     <use xlink:href="#m14335b982e" x="280.747456" y="115.270122" style="fill: #1f77b4; stroke: #1f77b4"/>
     <use xlink:href="#m14335b982e" x="282.378886" y="190.490129" style="fill: #1f77b4; stroke: #1f77b4"/>
     <use xlink:href="#m14335b982e" x="284.010315" y="144.53055" style="fill: #1f77b4; stroke: #1f77b4"/>
     <use xlink:href="#m14335b982e" x="285.641745" y="171.733556" style="fill: #1f77b4; stroke: #1f77b4"/>
     <use xlink:href="#m14335b982e" x="287.273175" y="193.915542" style="fill: #1f77b4; stroke: #1f77b4"/>
     <use xlink:href="#m14335b982e" x="288.904605" y="129.643433" style="fill: #1f77b4; stroke: #1f77b4"/>
     <use xlink:href="#m14335b982e" x="290.536035" y="224.197118" style="fill: #1f77b4; stroke: #1f77b4"/>
     <use xlink:href="#m14335b982e" x="292.167465" y="191.677503" style="fill: #1f77b4; stroke: #1f77b4"/>
     <use xlink:href="#m14335b982e" x="293.798895" y="184.416155" style="fill: #1f77b4; stroke: #1f77b4"/>
     <use xlink:href="#m14335b982e" x="295.430325" y="236.013621" style="fill: #1f77b4; stroke: #1f77b4"/>
     <use xlink:href="#m14335b982e" x="297.061755" y="141.516423" style="fill: #1f77b4; stroke: #1f77b4"/>
     <use xlink:href="#m14335b982e" x="298.693184" y="262.602272" style="fill: #1f77b4; stroke: #1f77b4"/>
     <use xlink:href="#m14335b982e" x="300.324614" y="221.063994" style="fill: #1f77b4; stroke: #1f77b4"/>
     <use xlink:href="#m14335b982e" x="301.956044" y="206.517565" style="fill: #1f77b4; stroke: #1f77b4"/>
     <use xlink:href="#m14335b982e" x="303.587474" y="252.926885" style="fill: #1f77b4; stroke: #1f77b4"/>
     <use xlink:href="#m14335b982e" x="305.218904" y="148.131535" style="fill: #1f77b4; stroke: #1f77b4"/>
     <use xlink:href="#m14335b982e" x="306.850334" y="267.781686" style="fill: #1f77b4; stroke: #1f77b4"/>
     <use xlink:href="#m14335b982e" x="308.481764" y="223.650001" style="fill: #1f77b4; stroke: #1f77b4"/>
     <use xlink:href="#m14335b982e" x="310.113194" y="211.199907" style="fill: #1f77b4; stroke: #1f77b4"/>
     <use xlink:href="#m14335b982e" x="311.744623" y="255.041247" style="fill: #1f77b4; stroke: #1f77b4"/>
     <use xlink:href="#m14335b982e" x="313.376053" y="140.182606" style="fill: #1f77b4; stroke: #1f77b4"/>
     <use xlink:href="#m14335b982e" x="315.007483" y="273.002723" style="fill: #1f77b4; stroke: #1f77b4"/>
     <use xlink:href="#m14335b982e" x="316.638913" y="217.578133" style="fill: #1f77b4; stroke: #1f77b4"/>
     <use xlink:href="#m14335b982e" x="318.270343" y="216.21185" style="fill: #1f77b4; stroke: #1f77b4"/>
     <use xlink:href="#m14335b982e" x="319.901773" y="226.400398" style="fill: #1f77b4; stroke: #1f77b4"/>
     <use xlink:href="#m14335b982e" x="321.533203" y="122.765098" style="fill: #1f77b4; stroke: #1f77b4"/>
     <use xlink:href="#m14335b982e" x="323.164633" y="243.745251" style="fill: #1f77b4; stroke: #1f77b4"/>
     <use xlink:href="#m14335b982e" x="324.796062" y="187.862772" style="fill: #1f77b4; stroke: #1f77b4"/>
     <use xlink:href="#m14335b982e" x="326.427492" y="208.586111" style="fill: #1f77b4; stroke: #1f77b4"/>
     <use xlink:href="#m14335b982e" x="328.058922" y="190.321141" style="fill: #1f77b4; stroke: #1f77b4"/>
     <use xlink:href="#m14335b982e" x="329.690352" y="120.301874" style="fill: #1f77b4; stroke: #1f77b4"/>
     <use xlink:href="#m14335b982e" x="331.321782" y="199.048944" style="fill: #1f77b4; stroke: #1f77b4"/>
     <use xlink:href="#m14335b982e" x="332.953212" y="157.349427" style="fill: #1f77b4; stroke: #1f77b4"/>
     <use xlink:href="#m14335b982e" x="334.584642" y="198.777925" style="fill: #1f77b4; stroke: #1f77b4"/>
     <use xlink:href="#m14335b982e" x="336.216072" y="153.369185" style="fill: #1f77b4; stroke: #1f77b4"/>
     <use xlink:href="#m14335b982e" x="337.847501" y="117.555912" style="fill: #1f77b4; stroke: #1f77b4"/>
     <use xlink:href="#m14335b982e" x="339.478931" y="156.104218" style="fill: #1f77b4; stroke: #1f77b4"/>
     <use xlink:href="#m14335b982e" x="341.110361" y="123.376299" style="fill: #1f77b4; stroke: #1f77b4"/>
     <use xlink:href="#m14335b982e" x="342.741791" y="183.577341" style="fill: #1f77b4; stroke: #1f77b4"/>
     <use xlink:href="#m14335b982e" x="344.373221" y="121.050449" style="fill: #1f77b4; stroke: #1f77b4"/>
     <use xlink:href="#m14335b982e" x="346.004651" y="110.99415" style="fill: #1f77b4; stroke: #1f77b4"/>
     <use xlink:href="#m14335b982e" x="347.636081" y="112.644397" style="fill: #1f77b4; stroke: #1f77b4"/>
     <use xlink:href="#m14335b982e" x="349.267511" y="95.901037" style="fill: #1f77b4; stroke: #1f77b4"/>
     <use xlink:href="#m14335b982e" x="350.89894" y="184.495436" style="fill: #1f77b4; stroke: #1f77b4"/>
     <use xlink:href="#m14335b982e" x="352.53037" y="97.201542" style="fill: #1f77b4; stroke: #1f77b4"/>
     <use xlink:href="#m14335b982e" x="354.1618" y="121.356914" style="fill: #1f77b4; stroke: #1f77b4"/>
     <use xlink:href="#m14335b982e" x="355.79323" y="87.259305" style="fill: #1f77b4; stroke: #1f77b4"/>
     <use xlink:href="#m14335b982e" x="357.42466" y="91.142974" style="fill: #1f77b4; stroke: #1f77b4"/>
     <use xlink:href="#m14335b982e" x="359.05609" y="164.105842" style="fill: #1f77b4; stroke: #1f77b4"/>
     <use xlink:href="#m14335b982e" x="360.68752" y="86.949187" style="fill: #1f77b4; stroke: #1f77b4"/>
     <use xlink:href="#m14335b982e" x="362.31895" y="124.547297" style="fill: #1f77b4; stroke: #1f77b4"/>
     <use xlink:href="#m14335b982e" x="363.950379" y="68.176931" style="fill: #1f77b4; stroke: #1f77b4"/>
     <use xlink:href="#m14335b982e" x="365.581809" y="90.534265" style="fill: #1f77b4; stroke: #1f77b4"/>
     <use xlink:href="#m14335b982e" x="367.213239" y="173.767307" style="fill: #1f77b4; stroke: #1f77b4"/>
     <use xlink:href="#m14335b982e" x="368.844669" y="88.624119" style="fill: #1f77b4; stroke: #1f77b4"/>
     <use xlink:href="#m14335b982e" x="370.476099" y="138.813744" style="fill: #1f77b4; stroke: #1f77b4"/>
     <use xlink:href="#m14335b982e" x="372.107529" y="53.856" style="fill: #1f77b4; stroke: #1f77b4"/>
     <use xlink:href="#m14335b982e" x="373.738959" y="92.37516" style="fill: #1f77b4; stroke: #1f77b4"/>
     <use xlink:href="#m14335b982e" x="375.370389" y="187.09098" style="fill: #1f77b4; stroke: #1f77b4"/>
     <use xlink:href="#m14335b982e" x="377.001818" y="93.058742" style="fill: #1f77b4; stroke: #1f77b4"/>
     <use xlink:href="#m14335b982e" x="378.633248" y="141.942137" style="fill: #1f77b4; stroke: #1f77b4"/>
     <use xlink:href="#m14335b982e" x="380.264678" y="54.500609" style="fill: #1f77b4; stroke: #1f77b4"/>
     <use xlink:href="#m14335b982e" x="381.896108" y="103.722734" style="fill: #1f77b4; stroke: #1f77b4"/>
     <use xlink:href="#m14335b982e" x="383.527538" y="198.378143" style="fill: #1f77b4; stroke: #1f77b4"/>
     <use xlink:href="#m14335b982e" x="385.158968" y="112.870606" style="fill: #1f77b4; stroke: #1f77b4"/>
     <use xlink:href="#m14335b982e" x="386.790398" y="143.795896" style="fill: #1f77b4; stroke: #1f77b4"/>
    </g>
   </g>
   <g id="line2d_15">
    <path d="M 62.135852 187.366586 
L 69.935361 155.145834 
L 72.535197 145.484474 
L 74.810054 137.897215 
L 76.759931 132.185321 
L 78.384829 128.062245 
L 80.009726 124.573023 
L 81.309644 122.267368 
L 82.609562 120.413524 
L 83.584501 119.328633 
L 84.559439 118.511084 
L 85.534378 117.964528 
L 86.509317 117.691407 
L 87.484255 117.692938 
L 88.459194 117.969117 
L 89.434132 118.518709 
L 90.409071 119.339261 
L 91.38401 120.427107 
L 92.683928 122.284793 
L 93.983846 124.594154 
L 95.283764 127.336859 
L 96.908661 131.341153 
L 98.533559 135.938653 
L 100.483436 142.157958 
L 102.758293 150.240546 
L 105.358129 160.326054 
L 109.257883 176.469792 
L 115.107515 200.683539 
L 117.707351 210.565776 
L 119.982208 218.407245 
L 121.932085 224.377469 
L 123.556982 228.74085 
L 125.18188 232.489969 
L 126.481798 235.015492 
L 127.781716 237.097937 
L 129.081634 238.720778 
L 130.056573 239.628404 
L 131.031512 240.266127 
L 132.00645 240.631098 
L 132.981389 240.721688 
L 133.956327 240.537491 
L 134.931266 240.079332 
L 135.906204 239.349255 
L 136.881143 238.350521 
L 137.856082 237.087591 
L 139.156 235.002627 
L 140.455918 232.474688 
L 142.080815 228.722721 
L 143.705713 224.356717 
L 145.65559 218.383687 
L 147.930447 210.539479 
L 150.530283 200.654897 
L 154.105058 186.021038 
L 161.254607 156.427854 
L 163.854444 146.652696 
L 166.1293 138.935346 
L 168.079177 133.091752 
L 169.704075 128.846463 
L 171.328973 125.225306 
L 172.628891 122.808197 
L 173.928809 120.838609 
L 175.228727 119.332172 
L 176.203666 118.513622 
L 177.178604 117.966054 
L 178.153543 117.691913 
L 179.128481 117.692424 
L 180.10342 117.967584 
L 181.078358 118.516164 
L 182.053297 119.335715 
L 183.028236 120.422576 
L 184.328154 122.278981 
L 185.628072 124.587107 
L 186.92799 127.328633 
L 188.552887 131.331547 
L 190.177785 135.927785 
L 192.127662 142.145755 
L 194.402519 150.227062 
L 197.002355 160.311509 
L 200.902109 176.454525 
L 206.751741 200.669219 
L 209.351577 210.552628 
L 211.626434 218.395467 
L 213.576311 224.367094 
L 215.201209 228.731787 
L 216.826106 232.48233 
L 218.126024 235.009061 
L 219.425942 237.092766 
L 220.72586 238.716907 
L 221.700799 239.625529 
L 222.675738 240.264261 
L 223.650676 240.630249 
L 224.625615 240.72186 
L 225.600553 240.538684 
L 226.575492 240.081539 
L 227.55043 239.352467 
L 228.525369 238.354724 
L 229.500308 237.092766 
L 230.800226 235.009061 
L 232.100144 232.48233 
L 233.725041 228.731787 
L 235.349939 224.367094 
L 237.299816 218.395467 
L 239.574673 210.552628 
L 242.174509 200.669219 
L 245.749284 186.036226 
L 252.898833 156.442053 
L 255.49867 146.665668 
L 257.773526 138.946905 
L 259.723403 133.101876 
L 261.348301 128.855251 
L 262.973199 125.23265 
L 264.273117 122.814319 
L 265.573035 120.84346 
L 266.872953 119.335715 
L 267.847892 118.516164 
L 268.82283 117.967584 
L 269.797769 117.692424 
L 270.772707 117.691913 
L 271.747646 117.966054 
L 272.722584 118.513622 
L 273.697523 119.332172 
L 274.672462 120.418048 
L 275.97238 122.273173 
L 277.272298 124.580063 
L 278.572216 127.32041 
L 280.197114 131.321943 
L 281.822011 135.916919 
L 283.771888 142.133554 
L 286.046745 150.21358 
L 288.646581 160.296965 
L 292.546335 176.439258 
L 298.395967 200.654897 
L 300.995803 210.539479 
L 303.27066 218.383687 
L 305.220537 224.356717 
L 306.845435 228.722721 
L 308.470332 232.474688 
L 309.77025 235.002627 
L 311.070168 237.087591 
L 312.370087 238.713032 
L 313.345025 239.62265 
L 314.319964 240.262391 
L 315.294902 240.629396 
L 316.269841 240.722028 
L 317.244779 240.539872 
L 318.219718 240.083743 
L 319.194657 239.355676 
L 320.169595 238.358924 
L 321.144534 237.097937 
L 322.444452 235.015492 
L 323.74437 232.489969 
L 325.369268 228.74085 
L 326.994165 224.377469 
L 328.944042 218.407245 
L 331.218899 210.565776 
L 333.818735 200.683539 
L 337.39351 186.051413 
L 344.543059 156.456253 
L 347.142896 146.678641 
L 349.417752 138.958467 
L 351.36763 133.112003 
L 352.992527 128.864043 
L 354.617425 125.239997 
L 355.917343 122.820445 
L 357.217261 120.848315 
L 358.517179 119.339261 
L 359.492118 118.518709 
L 360.467056 117.969117 
L 361.441995 117.692938 
L 362.416933 117.691407 
L 363.391872 117.964528 
L 364.366811 118.511084 
L 365.341749 119.328633 
L 366.316688 120.413524 
L 367.616606 122.267368 
L 368.916524 124.573023 
L 370.216442 127.312191 
L 371.84134 131.312342 
L 373.466237 135.906056 
L 375.416114 142.121356 
L 377.690971 150.200099 
L 380.290807 160.282422 
L 384.190562 176.423992 
L 386.790398 187.366586 
L 386.790398 187.366586 
" clip-path="url(#p01f846141a)" style="fill: none; stroke: #d62728; stroke-width: 1.5; stroke-linecap: square"/>
   </g>
   <g id="patch_3">
    <path d="M 45.903125 307.872 
L 45.903125 41.76 
" style="fill: none; stroke: #000000; stroke-width: 0.8; stroke-linejoin: miter; stroke-linecap: square"/>
   </g>
   <g id="patch_4">
    <path d="M 403.023125 307.872 
L 403.023125 41.76 
" style="fill: none; stroke: #000000; stroke-width: 0.8; stroke-linejoin: miter; stroke-linecap: square"/>
   </g>
   <g id="patch_5">
    <path d="M 45.903125 307.872 
L 403.023125 307.872 
" style="fill: none; stroke: #000000; stroke-width: 0.8; stroke-linejoin: miter; stroke-linecap: square"/>
   </g>
   <g id="patch_6">
    <path d="M 45.903125 41.76 
L 403.023125 41.76 
" style="fill: none; stroke: #000000; stroke-width: 0.8; stroke-linejoin: miter; stroke-linecap: square"/>
   </g>
   <g id="text_16">
    <g id="patch_7">
     <path d="M 420.879125 113.57935 
L 592.879125 113.57935 
Q 596.879125 113.57935 596.879125 109.57935 
L 596.879125 55.0656 
Q 596.879125 51.0656 592.879125 51.0656 
L 420.879125 51.0656 
Q 416.879125 51.0656 416.879125 55.0656 
L 416.879125 109.57935 
Q 416.879125 113.57935 420.879125 113.57935 
z
" style="fill: #ffffff; opacity: 0.5; stroke: #000000; stroke-linejoin: miter"/>
    </g>
    <!-- Summary -->
    <g transform="translate(420.879125 62.664038) scale(0.1 -0.1)">
     <defs>
      <path id="DejaVuSans-53" d="M 3425 4513 
L 3425 3897 
Q 3066 4069 2747 4153 
Q 2428 4238 2131 4238 
Q 1616 4238 1336 4038 
Q 1056 3838 1056 3469 
Q 1056 3159 1242 3001 
Q 1428 2844 1947 2747 
L 2328 2669 
Q 3034 2534 3370 2195 
Q 3706 1856 3706 1288 
Q 3706 609 3251 259 
Q 2797 -91 1919 -91 
Q 1588 -91 1214 -16 
Q 841 59 441 206 
L 441 856 
Q 825 641 1194 531 
Q 1563 422 1919 422 
Q 2459 422 2753 634 
Q 3047 847 3047 1241 
Q 3047 1584 2836 1778 
Q 2625 1972 2144 2069 
L 1759 2144 
Q 1053 2284 737 2584 
Q 422 2884 422 3419 
Q 422 4038 858 4394 
Q 1294 4750 2059 4750 
Q 2388 4750 2728 4690 
Q 3069 4631 3425 4513 
z
" transform="scale(0.015625)"/>
      <path id="DejaVuSans-79" d="M 2059 -325 
Q 1816 -950 1584 -1140 
Q 1353 -1331 966 -1331 
L 506 -1331 
L 506 -850 
L 844 -850 
Q 1081 -850 1212 -737 
Q 1344 -625 1503 -206 
L 1606 56 
L 191 3500 
L 800 3500 
L 1894 763 
L 2988 3500 
L 3597 3500 
L 2059 -325 
z
" transform="scale(0.015625)"/>
     </defs>
     <use xlink:href="#DejaVuSans-53"/>
     <use xlink:href="#DejaVuSans-75" x="63.476562"/>
     <use xlink:href="#DejaVuSans-6d" x="126.855469"/>
     <use xlink:href="#DejaVuSans-6d" x="224.267578"/>
     <use xlink:href="#DejaVuSans-61" x="321.679688"/>
     <use xlink:href="#DejaVuSans-72" x="382.958984"/>
     <use xlink:href="#DejaVuSans-79" x="424.072266"/>
    </g>
    <!-- Pi-pulse amplitude: 225.8$\pm$2.1 mV -->
    <g transform="translate(420.879125 73.863725) scale(0.1 -0.1)">
     <defs>
      <path id="DejaVuSans-50" d="M 1259 4147 
L 1259 2394 
L 2053 2394 
Q 2494 2394 2734 2622 
Q 2975 2850 2975 3272 
Q 2975 3691 2734 3919 
Q 2494 4147 2053 4147 
L 1259 4147 
z
M 628 4666 
L 2053 4666 
Q 2838 4666 3239 4311 
Q 3641 3956 3641 3272 
Q 3641 2581 3239 2228 
Q 2838 1875 2053 1875 
L 1259 1875 
L 1259 0 
L 628 0 
L 628 4666 
z
" transform="scale(0.015625)"/>
      <path id="DejaVuSans-3a" d="M 750 794 
L 1409 794 
L 1409 0 
L 750 0 
L 750 794 
z
M 750 3309 
L 1409 3309 
L 1409 2516 
L 750 2516 
L 750 3309 
z
" transform="scale(0.015625)"/>
      <path id="DejaVuSans-b1" d="M 2944 4013 
L 2944 2803 
L 4684 2803 
L 4684 2272 
L 2944 2272 
L 2944 1063 
L 2419 1063 
L 2419 2272 
L 678 2272 
L 678 2803 
L 2419 2803 
L 2419 4013 
L 2944 4013 
z
M 678 531 
L 4684 531 
L 4684 0 
L 678 0 
L 678 531 
z
" transform="scale(0.015625)"/>
     </defs>
     <use xlink:href="#DejaVuSans-50" transform="translate(0 0.015625)"/>
     <use xlink:href="#DejaVuSans-69" transform="translate(60.302734 0.015625)"/>
     <use xlink:href="#DejaVuSans-2d" transform="translate(88.085938 0.015625)"/>
     <use xlink:href="#DejaVuSans-70" transform="translate(124.169922 0.015625)"/>
     <use xlink:href="#DejaVuSans-75" transform="translate(187.646484 0.015625)"/>
     <use xlink:href="#DejaVuSans-6c" transform="translate(251.025391 0.015625)"/>
     <use xlink:href="#DejaVuSans-73" transform="translate(278.808594 0.015625)"/>
     <use xlink:href="#DejaVuSans-65" transform="translate(330.908203 0.015625)"/>
     <use xlink:href="#DejaVuSans-20" transform="translate(392.431641 0.015625)"/>
     <use xlink:href="#DejaVuSans-61" transform="translate(424.21875 0.015625)"/>
     <use xlink:href="#DejaVuSans-6d" transform="translate(485.498047 0.015625)"/>
     <use xlink:href="#DejaVuSans-70" transform="translate(582.910156 0.015625)"/>
     <use xlink:href="#DejaVuSans-6c" transform="translate(646.386719 0.015625)"/>
     <use xlink:href="#DejaVuSans-69" transform="translate(674.169922 0.015625)"/>
     <use xlink:href="#DejaVuSans-74" transform="translate(701.953125 0.015625)"/>
     <use xlink:href="#DejaVuSans-75" transform="translate(741.162109 0.015625)"/>
     <use xlink:href="#DejaVuSans-64" transform="translate(804.541016 0.015625)"/>
     <use xlink:href="#DejaVuSans-65" transform="translate(868.017578 0.015625)"/>
     <use xlink:href="#DejaVuSans-3a" transform="translate(929.541016 0.015625)"/>
     <use xlink:href="#DejaVuSans-20" transform="translate(963.232422 0.015625)"/>
     <use xlink:href="#DejaVuSans-32" transform="translate(995.019531 0.015625)"/>
     <use xlink:href="#DejaVuSans-32" transform="translate(1058.642578 0.015625)"/>
     <use xlink:href="#DejaVuSans-35" transform="translate(1122.265625 0.015625)"/>
     <use xlink:href="#DejaVuSans-2e" transform="translate(1185.888672 0.015625)"/>
     <use xlink:href="#DejaVuSans-38" transform="translate(1215.050781 0.015625)"/>
     <use xlink:href="#DejaVuSans-b1" transform="translate(1278.673828 0.015625)"/>
     <use xlink:href="#DejaVuSans-32" transform="translate(1362.462891 0.015625)"/>
     <use xlink:href="#DejaVuSans-2e" transform="translate(1426.085938 0.015625)"/>
     <use xlink:href="#DejaVuSans-31" transform="translate(1457.873047 0.015625)"/>
     <use xlink:href="#DejaVuSans-20" transform="translate(1521.496094 0.015625)"/>
     <use xlink:href="#DejaVuSans-6d" transform="translate(1553.283203 0.015625)"/>
     <use xlink:href="#DejaVuSans-56" transform="translate(1650.695312 0.015625)"/>
    </g>
    <!-- Oscillation amplitude: 522$\pm$33 V -->
    <g transform="translate(420.879125 85.083725) scale(0.1 -0.1)">
     <defs>
      <path id="DejaVuSans-4f" d="M 2522 4238 
Q 1834 4238 1429 3725 
Q 1025 3213 1025 2328 
Q 1025 1447 1429 934 
Q 1834 422 2522 422 
Q 3209 422 3611 934 
Q 4013 1447 4013 2328 
Q 4013 3213 3611 3725 
Q 3209 4238 2522 4238 
z
M 2522 4750 
Q 3503 4750 4090 4092 
Q 4678 3434 4678 2328 
Q 4678 1225 4090 567 
Q 3503 -91 2522 -91 
Q 1538 -91 948 565 
Q 359 1222 359 2328 
Q 359 3434 948 4092 
Q 1538 4750 2522 4750 
z
" transform="scale(0.015625)"/>
      <path id="DejaVuSans-63" d="M 3122 3366 
L 3122 2828 
Q 2878 2963 2633 3030 
Q 2388 3097 2138 3097 
Q 1578 3097 1268 2742 
Q 959 2388 959 1747 
Q 959 1106 1268 751 
Q 1578 397 2138 397 
Q 2388 397 2633 464 
Q 2878 531 3122 666 
L 3122 134 
Q 2881 22 2623 -34 
Q 2366 -91 2075 -91 
Q 1284 -91 818 406 
Q 353 903 353 1747 
Q 353 2603 823 3093 
Q 1294 3584 2113 3584 
Q 2378 3584 2631 3529 
Q 2884 3475 3122 3366 
z
" transform="scale(0.015625)"/>
      <path id="DejaVuSans-33" d="M 2597 2516 
Q 3050 2419 3304 2112 
Q 3559 1806 3559 1356 
Q 3559 666 3084 287 
Q 2609 -91 1734 -91 
Q 1441 -91 1130 -33 
Q 819 25 488 141 
L 488 750 
Q 750 597 1062 519 
Q 1375 441 1716 441 
Q 2309 441 2620 675 
Q 2931 909 2931 1356 
Q 2931 1769 2642 2001 
Q 2353 2234 1838 2234 
L 1294 2234 
L 1294 2753 
L 1863 2753 
Q 2328 2753 2575 2939 
Q 2822 3125 2822 3475 
Q 2822 3834 2567 4026 
Q 2313 4219 1838 4219 
Q 1578 4219 1281 4162 
Q 984 4106 628 3988 
L 628 4550 
Q 988 4650 1302 4700 
Q 1616 4750 1894 4750 
Q 2613 4750 3031 4423 
Q 3450 4097 3450 3541 
Q 3450 3153 3228 2886 
Q 3006 2619 2597 2516 
z
" transform="scale(0.015625)"/>
      <path id="DejaVuSans-3bc" d="M 544 -1331 
L 544 3500 
L 1119 3500 
L 1119 1325 
Q 1119 872 1334 640 
Q 1550 409 1972 409 
Q 2434 409 2667 671 
Q 2900 934 2900 1459 
L 2900 3500 
L 3475 3500 
L 3475 806 
Q 3475 619 3529 530 
Q 3584 441 3700 441 
Q 3728 441 3778 458 
Q 3828 475 3916 513 
L 3916 50 
Q 3788 -22 3673 -56 
Q 3559 -91 3450 -91 
Q 3234 -91 3106 31 
Q 2978 153 2931 403 
Q 2775 156 2548 32 
Q 2322 -91 2016 -91 
Q 1697 -91 1473 31 
Q 1250 153 1119 397 
L 1119 -1331 
L 544 -1331 
z
" transform="scale(0.015625)"/>
     </defs>
     <use xlink:href="#DejaVuSans-4f" transform="translate(0 0.015625)"/>
     <use xlink:href="#DejaVuSans-73" transform="translate(78.710938 0.015625)"/>
     <use xlink:href="#DejaVuSans-63" transform="translate(130.810547 0.015625)"/>
     <use xlink:href="#DejaVuSans-69" transform="translate(185.791016 0.015625)"/>
     <use xlink:href="#DejaVuSans-6c" transform="translate(213.574219 0.015625)"/>
     <use xlink:href="#DejaVuSans-6c" transform="translate(241.357422 0.015625)"/>
     <use xlink:href="#DejaVuSans-61" transform="translate(269.140625 0.015625)"/>
     <use xlink:href="#DejaVuSans-74" transform="translate(330.419922 0.015625)"/>
     <use xlink:href="#DejaVuSans-69" transform="translate(369.628906 0.015625)"/>
     <use xlink:href="#DejaVuSans-6f" transform="translate(397.412109 0.015625)"/>
     <use xlink:href="#DejaVuSans-6e" transform="translate(458.59375 0.015625)"/>
     <use xlink:href="#DejaVuSans-20" transform="translate(521.972656 0.015625)"/>
     <use xlink:href="#DejaVuSans-61" transform="translate(553.759766 0.015625)"/>
     <use xlink:href="#DejaVuSans-6d" transform="translate(615.039062 0.015625)"/>
     <use xlink:href="#DejaVuSans-70" transform="translate(712.451172 0.015625)"/>
     <use xlink:href="#DejaVuSans-6c" transform="translate(775.927734 0.015625)"/>
     <use xlink:href="#DejaVuSans-69" transform="translate(803.710938 0.015625)"/>
     <use xlink:href="#DejaVuSans-74" transform="translate(831.494141 0.015625)"/>
     <use xlink:href="#DejaVuSans-75" transform="translate(870.703125 0.015625)"/>
     <use xlink:href="#DejaVuSans-64" transform="translate(934.082031 0.015625)"/>
     <use xlink:href="#DejaVuSans-65" transform="translate(997.558594 0.015625)"/>
     <use xlink:href="#DejaVuSans-3a" transform="translate(1059.082031 0.015625)"/>
     <use xlink:href="#DejaVuSans-20" transform="translate(1092.773438 0.015625)"/>
     <use xlink:href="#DejaVuSans-35" transform="translate(1124.560547 0.015625)"/>
     <use xlink:href="#DejaVuSans-32" transform="translate(1188.183594 0.015625)"/>
     <use xlink:href="#DejaVuSans-32" transform="translate(1251.806641 0.015625)"/>
     <use xlink:href="#DejaVuSans-b1" transform="translate(1315.429688 0.015625)"/>
     <use xlink:href="#DejaVuSans-33" transform="translate(1399.21875 0.015625)"/>
     <use xlink:href="#DejaVuSans-33" transform="translate(1462.841797 0.015625)"/>
     <use xlink:href="#DejaVuSans-20" transform="translate(1526.464844 0.015625)"/>
     <use xlink:href="#DejaVuSans-3bc" transform="translate(1558.251953 0.015625)"/>
     <use xlink:href="#DejaVuSans-56" transform="translate(1621.875 0.015625)"/>
    </g>
    <!-- Offset: 1.762$\pm$0.023 mV -->
    <g transform="translate(420.879125 96.30185) scale(0.1 -0.1)">
     <defs>
      <path id="DejaVuSans-66" d="M 2375 4863 
L 2375 4384 
L 1825 4384 
Q 1516 4384 1395 4259 
Q 1275 4134 1275 3809 
L 1275 3500 
L 2222 3500 
L 2222 3053 
L 1275 3053 
L 1275 0 
L 697 0 
L 697 3053 
L 147 3053 
L 147 3500 
L 697 3500 
L 697 3744 
Q 697 4328 969 4595 
Q 1241 4863 1831 4863 
L 2375 4863 
z
" transform="scale(0.015625)"/>
      <path id="DejaVuSans-37" d="M 525 4666 
L 3525 4666 
L 3525 4397 
L 1831 0 
L 1172 0 
L 2766 4134 
L 525 4134 
L 525 4666 
z
" transform="scale(0.015625)"/>
     </defs>
     <use xlink:href="#DejaVuSans-4f" transform="translate(0 0.015625)"/>
     <use xlink:href="#DejaVuSans-66" transform="translate(78.710938 0.015625)"/>
     <use xlink:href="#DejaVuSans-66" transform="translate(113.916016 0.015625)"/>
     <use xlink:href="#DejaVuSans-73" transform="translate(149.121094 0.015625)"/>
     <use xlink:href="#DejaVuSans-65" transform="translate(201.220703 0.015625)"/>
     <use xlink:href="#DejaVuSans-74" transform="translate(262.744141 0.015625)"/>
     <use xlink:href="#DejaVuSans-3a" transform="translate(301.953125 0.015625)"/>
     <use xlink:href="#DejaVuSans-20" transform="translate(335.644531 0.015625)"/>
     <use xlink:href="#DejaVuSans-31" transform="translate(367.431641 0.015625)"/>
     <use xlink:href="#DejaVuSans-2e" transform="translate(431.054688 0.015625)"/>
     <use xlink:href="#DejaVuSans-37" transform="translate(455.091797 0.015625)"/>
     <use xlink:href="#DejaVuSans-36" transform="translate(518.714844 0.015625)"/>
     <use xlink:href="#DejaVuSans-32" transform="translate(582.337891 0.015625)"/>
     <use xlink:href="#DejaVuSans-b1" transform="translate(645.960938 0.015625)"/>
     <use xlink:href="#DejaVuSans-30" transform="translate(729.75 0.015625)"/>
     <use xlink:href="#DejaVuSans-2e" transform="translate(793.373047 0.015625)"/>
     <use xlink:href="#DejaVuSans-30" transform="translate(825.160156 0.015625)"/>
     <use xlink:href="#DejaVuSans-32" transform="translate(888.783203 0.015625)"/>
     <use xlink:href="#DejaVuSans-33" transform="translate(952.40625 0.015625)"/>
     <use xlink:href="#DejaVuSans-20" transform="translate(1016.029297 0.015625)"/>
     <use xlink:href="#DejaVuSans-6d" transform="translate(1047.816406 0.015625)"/>
     <use xlink:href="#DejaVuSans-56" transform="translate(1145.228516 0.015625)"/>
    </g>
    <!--  -->
    <g transform="translate(420.879125 107.499663) scale(0.1 -0.1)"/>
   </g>
  </g>
  <g id="text_17">
   <!--  Rabi -->
   <g transform="translate(203.609375 16.318125) scale(0.12 -0.12)">
    <defs>
     <path id="DejaVuSans-62" d="M 3116 1747 
Q 3116 2381 2855 2742 
Q 2594 3103 2138 3103 
Q 1681 3103 1420 2742 
Q 1159 2381 1159 1747 
Q 1159 1113 1420 752 
Q 1681 391 2138 391 
Q 2594 391 2855 752 
Q 3116 1113 3116 1747 
z
M 1159 2969 
Q 1341 3281 1617 3432 
Q 1894 3584 2278 3584 
Q 2916 3584 3314 3078 
Q 3713 2572 3713 1747 
Q 3713 922 3314 415 
Q 2916 -91 2278 -91 
Q 1894 -91 1617 61 
Q 1341 213 1159 525 
L 1159 0 
L 581 0 
L 581 4863 
L 1159 4863 
L 1159 2969 
z
" transform="scale(0.015625)"/>
    </defs>
    <use xlink:href="#DejaVuSans-20"/>
    <use xlink:href="#DejaVuSans-52" x="31.787109"/>
    <use xlink:href="#DejaVuSans-61" x="99.019531"/>
    <use xlink:href="#DejaVuSans-62" x="160.298828"/>
    <use xlink:href="#DejaVuSans-69" x="223.775391"/>
   </g>
   <!-- tuid: 20231222-112423-974-4f579b -->
   <g transform="translate(110.561563 29.7555) scale(0.12 -0.12)">
    <defs>
     <path id="DejaVuSans-39" d="M 703 97 
L 703 672 
Q 941 559 1184 500 
Q 1428 441 1663 441 
Q 2288 441 2617 861 
Q 2947 1281 2994 2138 
Q 2813 1869 2534 1725 
Q 2256 1581 1919 1581 
Q 1219 1581 811 2004 
Q 403 2428 403 3163 
Q 403 3881 828 4315 
Q 1253 4750 1959 4750 
Q 2769 4750 3195 4129 
Q 3622 3509 3622 2328 
Q 3622 1225 3098 567 
Q 2575 -91 1691 -91 
Q 1453 -91 1209 -44 
Q 966 3 703 97 
z
M 1959 2075 
Q 2384 2075 2632 2365 
Q 2881 2656 2881 3163 
Q 2881 3666 2632 3958 
Q 2384 4250 1959 4250 
Q 1534 4250 1286 3958 
Q 1038 3666 1038 3163 
Q 1038 2656 1286 2365 
Q 1534 2075 1959 2075 
z
" transform="scale(0.015625)"/>
    </defs>
    <use xlink:href="#DejaVuSans-74"/>
    <use xlink:href="#DejaVuSans-75" x="39.208984"/>
    <use xlink:href="#DejaVuSans-69" x="102.587891"/>
    <use xlink:href="#DejaVuSans-64" x="130.371094"/>
    <use xlink:href="#DejaVuSans-3a" x="193.847656"/>
    <use xlink:href="#DejaVuSans-20" x="227.539062"/>
    <use xlink:href="#DejaVuSans-32" x="259.326172"/>
    <use xlink:href="#DejaVuSans-30" x="322.949219"/>
    <use xlink:href="#DejaVuSans-32" x="386.572266"/>
    <use xlink:href="#DejaVuSans-33" x="450.195312"/>
    <use xlink:href="#DejaVuSans-31" x="513.818359"/>
    <use xlink:href="#DejaVuSans-32" x="577.441406"/>
    <use xlink:href="#DejaVuSans-32" x="641.064453"/>
    <use xlink:href="#DejaVuSans-32" x="704.6875"/>
    <use xlink:href="#DejaVuSans-2d" x="768.310547"/>
    <use xlink:href="#DejaVuSans-31" x="804.394531"/>
    <use xlink:href="#DejaVuSans-31" x="868.017578"/>
    <use xlink:href="#DejaVuSans-32" x="931.640625"/>
    <use xlink:href="#DejaVuSans-34" x="995.263672"/>
    <use xlink:href="#DejaVuSans-32" x="1058.886719"/>
    <use xlink:href="#DejaVuSans-33" x="1122.509766"/>
    <use xlink:href="#DejaVuSans-2d" x="1186.132812"/>
    <use xlink:href="#DejaVuSans-39" x="1222.216797"/>
    <use xlink:href="#DejaVuSans-37" x="1285.839844"/>
    <use xlink:href="#DejaVuSans-34" x="1349.462891"/>
    <use xlink:href="#DejaVuSans-2d" x="1413.085938"/>
    <use xlink:href="#DejaVuSans-34" x="1449.169922"/>
    <use xlink:href="#DejaVuSans-66" x="1512.792969"/>
    <use xlink:href="#DejaVuSans-35" x="1547.998047"/>
    <use xlink:href="#DejaVuSans-37" x="1611.621094"/>
    <use xlink:href="#DejaVuSans-39" x="1675.244141"/>
    <use xlink:href="#DejaVuSans-62" x="1738.867188"/>
   </g>
  </g>
 </g>
 <defs>
  <clipPath id="p01f846141a">
   <rect x="45.903125" y="41.76" width="357.12" height="266.112"/>
  </clipPath>
 </defs>
</svg>
