<?xml version="1.0" encoding="utf-8" standalone="no"?>
<!DOCTYPE svg PUBLIC "-//W3C//DTD SVG 1.1//EN"
  "http://www.w3.org/Graphics/SVG/1.1/DTD/svg11.dtd">
<svg xmlns:xlink="http://www.w3.org/1999/xlink" width="568.665062pt" height="345.42825pt" viewBox="0 0 568.665062 345.42825" xmlns="http://www.w3.org/2000/svg" version="1.1">
 <metadata>
  <rdf:RDF xmlns:dc="http://purl.org/dc/elements/1.1/" xmlns:cc="http://creativecommons.org/ns#" xmlns:rdf="http://www.w3.org/1999/02/22-rdf-syntax-ns#">
   <cc:Work>
    <dc:type rdf:resource="http://purl.org/dc/dcmitype/StillImage"/>
    <dc:date>2024-01-03T19:01:09.431460</dc:date>
    <dc:format>image/svg+xml</dc:format>
    <dc:creator>
     <cc:Agent>
      <dc:title>Matplotlib v3.8.1, https://matplotlib.org/</dc:title>
     </cc:Agent>
    </dc:creator>
   </cc:Work>
  </rdf:RDF>
 </metadata>
 <defs>
  <style type="text/css">*{stroke-linejoin: round; stroke-linecap: butt}</style>
 </defs>
 <g id="figure_1">
  <g id="patch_1">
   <path d="M 0 345.42825 
L 568.665062 345.42825 
L 568.665062 -0 
L 0 -0 
L 0 345.42825 
z
" style="fill: none; opacity: 0"/>
  </g>
  <g id="axes_1">
   <g id="patch_2">
    <path d="M 47.389063 162.72 
L 404.509063 162.72 
L 404.509063 41.76 
L 47.389063 41.76 
z
" style="fill: #ffffff"/>
   </g>
   <g id="matplotlib.axis_1">
    <g id="xtick_1">
     <g id="line2d_1">
      <defs>
       <path id="m4ff9756ae1" d="M 0 0 
L 0 3.5 
" style="stroke: #000000; stroke-width: 0.8"/>
      </defs>
      <g>
       <use xlink:href="#m4ff9756ae1" x="71.738153" y="162.72" style="stroke: #000000; stroke-width: 0.8"/>
      </g>
     </g>
    </g>
    <g id="xtick_2">
     <g id="line2d_2">
      <g>
       <use xlink:href="#m4ff9756ae1" x="136.669062" y="162.72" style="stroke: #000000; stroke-width: 0.8"/>
      </g>
     </g>
    </g>
    <g id="xtick_3">
     <g id="line2d_3">
      <g>
       <use xlink:href="#m4ff9756ae1" x="201.599972" y="162.72" style="stroke: #000000; stroke-width: 0.8"/>
      </g>
     </g>
    </g>
    <g id="xtick_4">
     <g id="line2d_4">
      <g>
       <use xlink:href="#m4ff9756ae1" x="266.530881" y="162.72" style="stroke: #000000; stroke-width: 0.8"/>
      </g>
     </g>
    </g>
    <g id="xtick_5">
     <g id="line2d_5">
      <g>
       <use xlink:href="#m4ff9756ae1" x="331.46179" y="162.72" style="stroke: #000000; stroke-width: 0.8"/>
      </g>
     </g>
    </g>
    <g id="xtick_6">
     <g id="line2d_6">
      <g>
       <use xlink:href="#m4ff9756ae1" x="396.392699" y="162.72" style="stroke: #000000; stroke-width: 0.8"/>
      </g>
     </g>
    </g>
   </g>
   <g id="matplotlib.axis_2">
    <g id="ytick_1">
     <g id="line2d_7">
      <defs>
       <path id="mf828e5ba4f" d="M 0 0 
L -3.5 0 
" style="stroke: #000000; stroke-width: 0.8"/>
      </defs>
      <g>
       <use xlink:href="#mf828e5ba4f" x="47.389063" y="154.094989" style="stroke: #000000; stroke-width: 0.8"/>
      </g>
     </g>
     <g id="text_1">
      <!-- -0.6 -->
      <g transform="translate(20.878125 157.894208) scale(0.1 -0.1)">
       <defs>
        <path id="DejaVuSans-2d" d="M 313 2009 
L 1997 2009 
L 1997 1497 
L 313 1497 
L 313 2009 
z
" transform="scale(0.015625)"/>
        <path id="DejaVuSans-30" d="M 2034 4250 
Q 1547 4250 1301 3770 
Q 1056 3291 1056 2328 
Q 1056 1369 1301 889 
Q 1547 409 2034 409 
Q 2525 409 2770 889 
Q 3016 1369 3016 2328 
Q 3016 3291 2770 3770 
Q 2525 4250 2034 4250 
z
M 2034 4750 
Q 2819 4750 3233 4129 
Q 3647 3509 3647 2328 
Q 3647 1150 3233 529 
Q 2819 -91 2034 -91 
Q 1250 -91 836 529 
Q 422 1150 422 2328 
Q 422 3509 836 4129 
Q 1250 4750 2034 4750 
z
" transform="scale(0.015625)"/>
        <path id="DejaVuSans-2e" d="M 684 794 
L 1344 794 
L 1344 0 
L 684 0 
L 684 794 
z
" transform="scale(0.015625)"/>
        <path id="DejaVuSans-36" d="M 2113 2584 
Q 1688 2584 1439 2293 
Q 1191 2003 1191 1497 
Q 1191 994 1439 701 
Q 1688 409 2113 409 
Q 2538 409 2786 701 
Q 3034 994 3034 1497 
Q 3034 2003 2786 2293 
Q 2538 2584 2113 2584 
z
M 3366 4563 
L 3366 3988 
Q 3128 4100 2886 4159 
Q 2644 4219 2406 4219 
Q 1781 4219 1451 3797 
Q 1122 3375 1075 2522 
Q 1259 2794 1537 2939 
Q 1816 3084 2150 3084 
Q 2853 3084 3261 2657 
Q 3669 2231 3669 1497 
Q 3669 778 3244 343 
Q 2819 -91 2113 -91 
Q 1303 -91 875 529 
Q 447 1150 447 2328 
Q 447 3434 972 4092 
Q 1497 4750 2381 4750 
Q 2619 4750 2861 4703 
Q 3103 4656 3366 4563 
z
" transform="scale(0.015625)"/>
       </defs>
       <use xlink:href="#DejaVuSans-2d"/>
       <use xlink:href="#DejaVuSans-30" x="36.083984"/>
       <use xlink:href="#DejaVuSans-2e" x="99.707031"/>
       <use xlink:href="#DejaVuSans-36" x="131.494141"/>
      </g>
     </g>
    </g>
    <g id="ytick_2">
     <g id="line2d_8">
      <g>
       <use xlink:href="#mf828e5ba4f" x="47.389063" y="119.569414" style="stroke: #000000; stroke-width: 0.8"/>
      </g>
     </g>
     <g id="text_2">
      <!-- -0.4 -->
      <g transform="translate(20.878125 123.368632) scale(0.1 -0.1)">
       <defs>
        <path id="DejaVuSans-34" d="M 2419 4116 
L 825 1625 
L 2419 1625 
L 2419 4116 
z
M 2253 4666 
L 3047 4666 
L 3047 1625 
L 3713 1625 
L 3713 1100 
L 3047 1100 
L 3047 0 
L 2419 0 
L 2419 1100 
L 313 1100 
L 313 1709 
L 2253 4666 
z
" transform="scale(0.015625)"/>
       </defs>
       <use xlink:href="#DejaVuSans-2d"/>
       <use xlink:href="#DejaVuSans-30" x="36.083984"/>
       <use xlink:href="#DejaVuSans-2e" x="99.707031"/>
       <use xlink:href="#DejaVuSans-34" x="131.494141"/>
      </g>
     </g>
    </g>
    <g id="ytick_3">
     <g id="line2d_9">
      <g>
       <use xlink:href="#mf828e5ba4f" x="47.389063" y="85.043838" style="stroke: #000000; stroke-width: 0.8"/>
      </g>
     </g>
     <g id="text_3">
      <!-- -0.2 -->
      <g transform="translate(20.878125 88.843056) scale(0.1 -0.1)">
       <defs>
        <path id="DejaVuSans-32" d="M 1228 531 
L 3431 531 
L 3431 0 
L 469 0 
L 469 531 
Q 828 903 1448 1529 
Q 2069 2156 2228 2338 
Q 2531 2678 2651 2914 
Q 2772 3150 2772 3378 
Q 2772 3750 2511 3984 
Q 2250 4219 1831 4219 
Q 1534 4219 1204 4116 
Q 875 4013 500 3803 
L 500 4441 
Q 881 4594 1212 4672 
Q 1544 4750 1819 4750 
Q 2544 4750 2975 4387 
Q 3406 4025 3406 3419 
Q 3406 3131 3298 2873 
Q 3191 2616 2906 2266 
Q 2828 2175 2409 1742 
Q 1991 1309 1228 531 
z
" transform="scale(0.015625)"/>
       </defs>
       <use xlink:href="#DejaVuSans-2d"/>
       <use xlink:href="#DejaVuSans-30" x="36.083984"/>
       <use xlink:href="#DejaVuSans-2e" x="99.707031"/>
       <use xlink:href="#DejaVuSans-32" x="131.494141"/>
      </g>
     </g>
    </g>
    <g id="ytick_4">
     <g id="line2d_10">
      <g>
       <use xlink:href="#mf828e5ba4f" x="47.389063" y="50.518262" style="stroke: #000000; stroke-width: 0.8"/>
      </g>
     </g>
     <g id="text_4">
      <!-- 0 -->
      <g transform="translate(34.026563 54.31748) scale(0.1 -0.1)">
       <use xlink:href="#DejaVuSans-30"/>
      </g>
     </g>
    </g>
    <g id="text_5">
     <!-- Re$(S_{21})$ [V] -->
     <g transform="translate(14.798438 129.39) rotate(-90) scale(0.1 -0.1)">
      <defs>
       <path id="DejaVuSans-52" d="M 2841 2188 
Q 3044 2119 3236 1894 
Q 3428 1669 3622 1275 
L 4263 0 
L 3584 0 
L 2988 1197 
Q 2756 1666 2539 1819 
Q 2322 1972 1947 1972 
L 1259 1972 
L 1259 0 
L 628 0 
L 628 4666 
L 2053 4666 
Q 2853 4666 3247 4331 
Q 3641 3997 3641 3322 
Q 3641 2881 3436 2590 
Q 3231 2300 2841 2188 
z
M 1259 4147 
L 1259 2491 
L 2053 2491 
Q 2509 2491 2742 2702 
Q 2975 2913 2975 3322 
Q 2975 3731 2742 3939 
Q 2509 4147 2053 4147 
L 1259 4147 
z
" transform="scale(0.015625)"/>
       <path id="DejaVuSans-65" d="M 3597 1894 
L 3597 1613 
L 953 1613 
Q 991 1019 1311 708 
Q 1631 397 2203 397 
Q 2534 397 2845 478 
Q 3156 559 3463 722 
L 3463 178 
Q 3153 47 2828 -22 
Q 2503 -91 2169 -91 
Q 1331 -91 842 396 
Q 353 884 353 1716 
Q 353 2575 817 3079 
Q 1281 3584 2069 3584 
Q 2775 3584 3186 3129 
Q 3597 2675 3597 1894 
z
M 3022 2063 
Q 3016 2534 2758 2815 
Q 2500 3097 2075 3097 
Q 1594 3097 1305 2825 
Q 1016 2553 972 2059 
L 3022 2063 
z
" transform="scale(0.015625)"/>
       <path id="DejaVuSans-28" d="M 1984 4856 
Q 1566 4138 1362 3434 
Q 1159 2731 1159 2009 
Q 1159 1288 1364 580 
Q 1569 -128 1984 -844 
L 1484 -844 
Q 1016 -109 783 600 
Q 550 1309 550 2009 
Q 550 2706 781 3412 
Q 1013 4119 1484 4856 
L 1984 4856 
z
" transform="scale(0.015625)"/>
       <path id="DejaVuSans-Oblique-53" d="M 3859 4513 
L 3738 3897 
Q 3422 4066 3111 4152 
Q 2800 4238 2509 4238 
Q 1944 4238 1609 3991 
Q 1275 3744 1275 3334 
Q 1275 3109 1398 2989 
Q 1522 2869 2034 2731 
L 2413 2638 
Q 3053 2472 3303 2217 
Q 3553 1963 3553 1503 
Q 3553 797 2998 353 
Q 2444 -91 1538 -91 
Q 1166 -91 791 -17 
Q 416 56 38 206 
L 166 856 
Q 513 641 861 531 
Q 1209 422 1556 422 
Q 2147 422 2503 684 
Q 2859 947 2859 1369 
Q 2859 1650 2717 1795 
Q 2575 1941 2106 2059 
L 1728 2156 
Q 1081 2325 845 2545 
Q 609 2766 609 3163 
Q 609 3859 1145 4304 
Q 1681 4750 2541 4750 
Q 2875 4750 3203 4690 
Q 3531 4631 3859 4513 
z
" transform="scale(0.015625)"/>
       <path id="DejaVuSans-31" d="M 794 531 
L 1825 531 
L 1825 4091 
L 703 3866 
L 703 4441 
L 1819 4666 
L 2450 4666 
L 2450 531 
L 3481 531 
L 3481 0 
L 794 0 
L 794 531 
z
" transform="scale(0.015625)"/>
       <path id="DejaVuSans-29" d="M 513 4856 
L 1013 4856 
Q 1481 4119 1714 3412 
Q 1947 2706 1947 2009 
Q 1947 1309 1714 600 
Q 1481 -109 1013 -844 
L 513 -844 
Q 928 -128 1133 580 
Q 1338 1288 1338 2009 
Q 1338 2731 1133 3434 
Q 928 4138 513 4856 
z
" transform="scale(0.015625)"/>
       <path id="DejaVuSans-20" transform="scale(0.015625)"/>
       <path id="DejaVuSans-5b" d="M 550 4863 
L 1875 4863 
L 1875 4416 
L 1125 4416 
L 1125 -397 
L 1875 -397 
L 1875 -844 
L 550 -844 
L 550 4863 
z
" transform="scale(0.015625)"/>
       <path id="DejaVuSans-56" d="M 1831 0 
L 50 4666 
L 709 4666 
L 2188 738 
L 3669 4666 
L 4325 4666 
L 2547 0 
L 1831 0 
z
" transform="scale(0.015625)"/>
       <path id="DejaVuSans-5d" d="M 1947 4863 
L 1947 -844 
L 622 -844 
L 622 -397 
L 1369 -397 
L 1369 4416 
L 622 4416 
L 622 4863 
L 1947 4863 
z
" transform="scale(0.015625)"/>
      </defs>
      <use xlink:href="#DejaVuSans-52" transform="translate(0 0.015625)"/>
      <use xlink:href="#DejaVuSans-65" transform="translate(69.482422 0.015625)"/>
      <use xlink:href="#DejaVuSans-28" transform="translate(131.005859 0.015625)"/>
      <use xlink:href="#DejaVuSans-Oblique-53" transform="translate(170.019531 0.015625)"/>
      <use xlink:href="#DejaVuSans-32" transform="translate(233.496094 -16.390625) scale(0.7)"/>
      <use xlink:href="#DejaVuSans-31" transform="translate(278.032227 -16.390625) scale(0.7)"/>
      <use xlink:href="#DejaVuSans-29" transform="translate(325.302734 0.015625)"/>
      <use xlink:href="#DejaVuSans-20" transform="translate(364.316406 0.015625)"/>
      <use xlink:href="#DejaVuSans-5b" transform="translate(396.103516 0.015625)"/>
      <use xlink:href="#DejaVuSans-56" transform="translate(435.117188 0.015625)"/>
      <use xlink:href="#DejaVuSans-5d" transform="translate(503.525391 0.015625)"/>
     </g>
    </g>
   </g>
   <g id="line2d_11">
    <path d="M 63.62179 151.429514 
L 70.147509 151.821606 
L 73.410369 151.954776 
L 78.304659 152.109634 
L 86.461808 151.967582 
L 91.356098 151.642681 
L 96.250387 150.968822 
L 99.513247 150.353904 
L 102.776107 149.514281 
L 106.038967 148.418434 
L 109.301826 147.050215 
L 110.933256 146.255209 
L 114.196116 144.30077 
L 117.458976 141.880286 
L 120.721835 138.925962 
L 123.984695 135.298981 
L 125.616125 133.234697 
L 127.247555 130.962131 
L 130.510415 125.712194 
L 132.141845 122.809166 
L 133.773274 119.66702 
L 137.036134 112.622214 
L 140.298994 104.805663 
L 143.561854 96.252565 
L 153.350433 70.12371 
L 154.981863 66.304471 
L 156.613293 62.861243 
L 158.244723 59.7449 
L 159.876152 57.118539 
L 161.507582 54.959238 
L 163.139012 53.318534 
L 164.770442 52.14308 
L 166.401872 51.451266 
L 168.033302 51.251827 
L 169.664732 51.5177 
L 171.296162 52.076951 
L 172.927592 53.072724 
L 174.559021 54.386883 
L 176.190451 55.945559 
L 179.453311 59.681234 
L 184.347601 66.280015 
L 195.76761 82.647876 
L 199.03047 86.986362 
L 203.924759 93.003013 
L 207.187619 96.624248 
L 210.450479 99.953739 
L 213.713338 103.076442 
L 218.607628 107.235916 
L 221.870488 109.736524 
L 225.133348 112.06288 
L 234.921927 117.831555 
L 238.184787 119.495474 
L 246.341936 123.147655 
L 252.867655 125.539022 
L 261.024805 128.108149 
L 270.813384 130.602348 
L 275.707674 131.680158 
L 283.864823 133.218267 
L 290.390543 134.295256 
L 306.704841 136.362165 
L 319.75628 137.52801 
L 336.070579 138.550012 
L 354.016308 139.148994 
L 363.804887 139.308806 
L 381.750616 139.300303 
L 388.276335 139.195061 
L 388.276335 139.195061 
" clip-path="url(#p283dcf76df)" style="fill: none; stroke: #1f77b4; stroke-width: 1.5; stroke-linecap: square"/>
    <defs>
     <path id="m56332618da" d="M 0 1.5 
C 0.397805 1.5 0.77937 1.341951 1.06066 1.06066 
C 1.341951 0.77937 1.5 0.397805 1.5 0 
C 1.5 -0.397805 1.341951 -0.77937 1.06066 -1.06066 
C 0.77937 -1.341951 0.397805 -1.5 0 -1.5 
C -0.397805 -1.5 -0.77937 -1.341951 -1.06066 -1.06066 
C -1.341951 -0.77937 -1.5 -0.397805 -1.5 0 
C -1.5 0.397805 -1.341951 0.77937 -1.06066 1.06066 
C -0.77937 1.341951 -0.397805 1.5 0 1.5 
z
" style="stroke: #1f77b4"/>
    </defs>
    <g clip-path="url(#p283dcf76df)">
     <use xlink:href="#m56332618da" x="63.62179" y="151.429514" style="fill: #1f77b4; stroke: #1f77b4"/>
     <use xlink:href="#m56332618da" x="65.25322" y="151.552975" style="fill: #1f77b4; stroke: #1f77b4"/>
     <use xlink:href="#m56332618da" x="66.88465" y="151.659643" style="fill: #1f77b4; stroke: #1f77b4"/>
     <use xlink:href="#m56332618da" x="68.516079" y="151.761558" style="fill: #1f77b4; stroke: #1f77b4"/>
     <use xlink:href="#m56332618da" x="70.147509" y="151.821606" style="fill: #1f77b4; stroke: #1f77b4"/>
     <use xlink:href="#m56332618da" x="71.778939" y="151.929239" style="fill: #1f77b4; stroke: #1f77b4"/>
     <use xlink:href="#m56332618da" x="73.410369" y="151.954776" style="fill: #1f77b4; stroke: #1f77b4"/>
     <use xlink:href="#m56332618da" x="75.041799" y="152.024595" style="fill: #1f77b4; stroke: #1f77b4"/>
     <use xlink:href="#m56332618da" x="76.673229" y="152.076624" style="fill: #1f77b4; stroke: #1f77b4"/>
     <use xlink:href="#m56332618da" x="78.304659" y="152.109634" style="fill: #1f77b4; stroke: #1f77b4"/>
     <use xlink:href="#m56332618da" x="79.936089" y="152.103442" style="fill: #1f77b4; stroke: #1f77b4"/>
     <use xlink:href="#m56332618da" x="81.567518" y="152.127421" style="fill: #1f77b4; stroke: #1f77b4"/>
     <use xlink:href="#m56332618da" x="83.198948" y="152.073341" style="fill: #1f77b4; stroke: #1f77b4"/>
     <use xlink:href="#m56332618da" x="84.830378" y="152.021071" style="fill: #1f77b4; stroke: #1f77b4"/>
     <use xlink:href="#m56332618da" x="86.461808" y="151.967582" style="fill: #1f77b4; stroke: #1f77b4"/>
     <use xlink:href="#m56332618da" x="88.093238" y="151.875661" style="fill: #1f77b4; stroke: #1f77b4"/>
     <use xlink:href="#m56332618da" x="89.724668" y="151.768874" style="fill: #1f77b4; stroke: #1f77b4"/>
     <use xlink:href="#m56332618da" x="91.356098" y="151.642681" style="fill: #1f77b4; stroke: #1f77b4"/>
     <use xlink:href="#m56332618da" x="92.987528" y="151.445805" style="fill: #1f77b4; stroke: #1f77b4"/>
     <use xlink:href="#m56332618da" x="94.618957" y="151.215546" style="fill: #1f77b4; stroke: #1f77b4"/>
     <use xlink:href="#m56332618da" x="96.250387" y="150.968822" style="fill: #1f77b4; stroke: #1f77b4"/>
     <use xlink:href="#m56332618da" x="97.881817" y="150.673724" style="fill: #1f77b4; stroke: #1f77b4"/>
     <use xlink:href="#m56332618da" x="99.513247" y="150.353904" style="fill: #1f77b4; stroke: #1f77b4"/>
     <use xlink:href="#m56332618da" x="101.144677" y="149.95866" style="fill: #1f77b4; stroke: #1f77b4"/>
     <use xlink:href="#m56332618da" x="102.776107" y="149.514281" style="fill: #1f77b4; stroke: #1f77b4"/>
     <use xlink:href="#m56332618da" x="104.407537" y="148.988103" style="fill: #1f77b4; stroke: #1f77b4"/>
     <use xlink:href="#m56332618da" x="106.038967" y="148.418434" style="fill: #1f77b4; stroke: #1f77b4"/>
     <use xlink:href="#m56332618da" x="107.670396" y="147.773711" style="fill: #1f77b4; stroke: #1f77b4"/>
     <use xlink:href="#m56332618da" x="109.301826" y="147.050215" style="fill: #1f77b4; stroke: #1f77b4"/>
     <use xlink:href="#m56332618da" x="110.933256" y="146.255209" style="fill: #1f77b4; stroke: #1f77b4"/>
     <use xlink:href="#m56332618da" x="112.564686" y="145.328755" style="fill: #1f77b4; stroke: #1f77b4"/>
     <use xlink:href="#m56332618da" x="114.196116" y="144.30077" style="fill: #1f77b4; stroke: #1f77b4"/>
     <use xlink:href="#m56332618da" x="115.827546" y="143.156314" style="fill: #1f77b4; stroke: #1f77b4"/>
     <use xlink:href="#m56332618da" x="117.458976" y="141.880286" style="fill: #1f77b4; stroke: #1f77b4"/>
     <use xlink:href="#m56332618da" x="119.090406" y="140.457584" style="fill: #1f77b4; stroke: #1f77b4"/>
     <use xlink:href="#m56332618da" x="120.721835" y="138.925962" style="fill: #1f77b4; stroke: #1f77b4"/>
     <use xlink:href="#m56332618da" x="122.353265" y="137.16918" style="fill: #1f77b4; stroke: #1f77b4"/>
     <use xlink:href="#m56332618da" x="123.984695" y="135.298981" style="fill: #1f77b4; stroke: #1f77b4"/>
     <use xlink:href="#m56332618da" x="125.616125" y="133.234697" style="fill: #1f77b4; stroke: #1f77b4"/>
     <use xlink:href="#m56332618da" x="127.247555" y="130.962131" style="fill: #1f77b4; stroke: #1f77b4"/>
     <use xlink:href="#m56332618da" x="128.878985" y="128.432462" style="fill: #1f77b4; stroke: #1f77b4"/>
     <use xlink:href="#m56332618da" x="130.510415" y="125.712194" style="fill: #1f77b4; stroke: #1f77b4"/>
     <use xlink:href="#m56332618da" x="132.141845" y="122.809166" style="fill: #1f77b4; stroke: #1f77b4"/>
     <use xlink:href="#m56332618da" x="133.773274" y="119.66702" style="fill: #1f77b4; stroke: #1f77b4"/>
     <use xlink:href="#m56332618da" x="135.404704" y="116.256741" style="fill: #1f77b4; stroke: #1f77b4"/>
     <use xlink:href="#m56332618da" x="137.036134" y="112.622214" style="fill: #1f77b4; stroke: #1f77b4"/>
     <use xlink:href="#m56332618da" x="138.667564" y="108.829507" style="fill: #1f77b4; stroke: #1f77b4"/>
     <use xlink:href="#m56332618da" x="140.298994" y="104.805663" style="fill: #1f77b4; stroke: #1f77b4"/>
     <use xlink:href="#m56332618da" x="141.930424" y="100.607851" style="fill: #1f77b4; stroke: #1f77b4"/>
     <use xlink:href="#m56332618da" x="143.561854" y="96.252565" style="fill: #1f77b4; stroke: #1f77b4"/>
     <use xlink:href="#m56332618da" x="145.193284" y="91.845545" style="fill: #1f77b4; stroke: #1f77b4"/>
     <use xlink:href="#m56332618da" x="146.824713" y="87.345125" style="fill: #1f77b4; stroke: #1f77b4"/>
     <use xlink:href="#m56332618da" x="148.456143" y="82.91095" style="fill: #1f77b4; stroke: #1f77b4"/>
     <use xlink:href="#m56332618da" x="150.087573" y="78.478054" style="fill: #1f77b4; stroke: #1f77b4"/>
     <use xlink:href="#m56332618da" x="151.719003" y="74.19481" style="fill: #1f77b4; stroke: #1f77b4"/>
     <use xlink:href="#m56332618da" x="153.350433" y="70.12371" style="fill: #1f77b4; stroke: #1f77b4"/>
     <use xlink:href="#m56332618da" x="154.981863" y="66.304471" style="fill: #1f77b4; stroke: #1f77b4"/>
     <use xlink:href="#m56332618da" x="156.613293" y="62.861243" style="fill: #1f77b4; stroke: #1f77b4"/>
     <use xlink:href="#m56332618da" x="158.244723" y="59.7449" style="fill: #1f77b4; stroke: #1f77b4"/>
     <use xlink:href="#m56332618da" x="159.876152" y="57.118539" style="fill: #1f77b4; stroke: #1f77b4"/>
     <use xlink:href="#m56332618da" x="161.507582" y="54.959238" style="fill: #1f77b4; stroke: #1f77b4"/>
     <use xlink:href="#m56332618da" x="163.139012" y="53.318534" style="fill: #1f77b4; stroke: #1f77b4"/>
     <use xlink:href="#m56332618da" x="164.770442" y="52.14308" style="fill: #1f77b4; stroke: #1f77b4"/>
     <use xlink:href="#m56332618da" x="166.401872" y="51.451266" style="fill: #1f77b4; stroke: #1f77b4"/>
     <use xlink:href="#m56332618da" x="168.033302" y="51.251827" style="fill: #1f77b4; stroke: #1f77b4"/>
     <use xlink:href="#m56332618da" x="169.664732" y="51.5177" style="fill: #1f77b4; stroke: #1f77b4"/>
     <use xlink:href="#m56332618da" x="171.296162" y="52.076951" style="fill: #1f77b4; stroke: #1f77b4"/>
     <use xlink:href="#m56332618da" x="172.927592" y="53.072724" style="fill: #1f77b4; stroke: #1f77b4"/>
     <use xlink:href="#m56332618da" x="174.559021" y="54.386883" style="fill: #1f77b4; stroke: #1f77b4"/>
     <use xlink:href="#m56332618da" x="176.190451" y="55.945559" style="fill: #1f77b4; stroke: #1f77b4"/>
     <use xlink:href="#m56332618da" x="177.821881" y="57.738019" style="fill: #1f77b4; stroke: #1f77b4"/>
     <use xlink:href="#m56332618da" x="179.453311" y="59.681234" style="fill: #1f77b4; stroke: #1f77b4"/>
     <use xlink:href="#m56332618da" x="181.084741" y="61.835085" style="fill: #1f77b4; stroke: #1f77b4"/>
     <use xlink:href="#m56332618da" x="182.716171" y="63.999396" style="fill: #1f77b4; stroke: #1f77b4"/>
     <use xlink:href="#m56332618da" x="184.347601" y="66.280015" style="fill: #1f77b4; stroke: #1f77b4"/>
     <use xlink:href="#m56332618da" x="185.979031" y="68.633138" style="fill: #1f77b4; stroke: #1f77b4"/>
     <use xlink:href="#m56332618da" x="187.61046" y="71.020099" style="fill: #1f77b4; stroke: #1f77b4"/>
     <use xlink:href="#m56332618da" x="189.24189" y="73.397559" style="fill: #1f77b4; stroke: #1f77b4"/>
     <use xlink:href="#m56332618da" x="190.87332" y="75.784059" style="fill: #1f77b4; stroke: #1f77b4"/>
     <use xlink:href="#m56332618da" x="192.50475" y="78.15366" style="fill: #1f77b4; stroke: #1f77b4"/>
     <use xlink:href="#m56332618da" x="194.13618" y="80.398182" style="fill: #1f77b4; stroke: #1f77b4"/>
     <use xlink:href="#m56332618da" x="195.76761" y="82.647876" style="fill: #1f77b4; stroke: #1f77b4"/>
     <use xlink:href="#m56332618da" x="197.39904" y="84.861474" style="fill: #1f77b4; stroke: #1f77b4"/>
     <use xlink:href="#m56332618da" x="199.03047" y="86.986362" style="fill: #1f77b4; stroke: #1f77b4"/>
     <use xlink:href="#m56332618da" x="200.661899" y="89.039936" style="fill: #1f77b4; stroke: #1f77b4"/>
     <use xlink:href="#m56332618da" x="202.293329" y="91.056354" style="fill: #1f77b4; stroke: #1f77b4"/>
     <use xlink:href="#m56332618da" x="203.924759" y="93.003013" style="fill: #1f77b4; stroke: #1f77b4"/>
     <use xlink:href="#m56332618da" x="205.556189" y="94.834693" style="fill: #1f77b4; stroke: #1f77b4"/>
     <use xlink:href="#m56332618da" x="207.187619" y="96.624248" style="fill: #1f77b4; stroke: #1f77b4"/>
     <use xlink:href="#m56332618da" x="208.819049" y="98.31564" style="fill: #1f77b4; stroke: #1f77b4"/>
     <use xlink:href="#m56332618da" x="210.450479" y="99.953739" style="fill: #1f77b4; stroke: #1f77b4"/>
     <use xlink:href="#m56332618da" x="212.081909" y="101.536618" style="fill: #1f77b4; stroke: #1f77b4"/>
     <use xlink:href="#m56332618da" x="213.713338" y="103.076442" style="fill: #1f77b4; stroke: #1f77b4"/>
     <use xlink:href="#m56332618da" x="215.344768" y="104.497687" style="fill: #1f77b4; stroke: #1f77b4"/>
     <use xlink:href="#m56332618da" x="216.976198" y="105.895765" style="fill: #1f77b4; stroke: #1f77b4"/>
     <use xlink:href="#m56332618da" x="218.607628" y="107.235916" style="fill: #1f77b4; stroke: #1f77b4"/>
     <use xlink:href="#m56332618da" x="220.239058" y="108.538921" style="fill: #1f77b4; stroke: #1f77b4"/>
     <use xlink:href="#m56332618da" x="221.870488" y="109.736524" style="fill: #1f77b4; stroke: #1f77b4"/>
     <use xlink:href="#m56332618da" x="223.501918" y="110.927086" style="fill: #1f77b4; stroke: #1f77b4"/>
     <use xlink:href="#m56332618da" x="225.133348" y="112.06288" style="fill: #1f77b4; stroke: #1f77b4"/>
     <use xlink:href="#m56332618da" x="226.764777" y="113.043716" style="fill: #1f77b4; stroke: #1f77b4"/>
     <use xlink:href="#m56332618da" x="228.396207" y="114.09463" style="fill: #1f77b4; stroke: #1f77b4"/>
     <use xlink:href="#m56332618da" x="230.027637" y="115.092295" style="fill: #1f77b4; stroke: #1f77b4"/>
     <use xlink:href="#m56332618da" x="231.659067" y="116.035478" style="fill: #1f77b4; stroke: #1f77b4"/>
     <use xlink:href="#m56332618da" x="233.290497" y="116.979403" style="fill: #1f77b4; stroke: #1f77b4"/>
     <use xlink:href="#m56332618da" x="234.921927" y="117.831555" style="fill: #1f77b4; stroke: #1f77b4"/>
     <use xlink:href="#m56332618da" x="236.553357" y="118.713914" style="fill: #1f77b4; stroke: #1f77b4"/>
     <use xlink:href="#m56332618da" x="238.184787" y="119.495474" style="fill: #1f77b4; stroke: #1f77b4"/>
     <use xlink:href="#m56332618da" x="239.816216" y="120.247876" style="fill: #1f77b4; stroke: #1f77b4"/>
     <use xlink:href="#m56332618da" x="241.447646" y="121.027573" style="fill: #1f77b4; stroke: #1f77b4"/>
     <use xlink:href="#m56332618da" x="243.079076" y="121.778264" style="fill: #1f77b4; stroke: #1f77b4"/>
     <use xlink:href="#m56332618da" x="244.710506" y="122.470768" style="fill: #1f77b4; stroke: #1f77b4"/>
     <use xlink:href="#m56332618da" x="246.341936" y="123.147655" style="fill: #1f77b4; stroke: #1f77b4"/>
     <use xlink:href="#m56332618da" x="247.973366" y="123.764241" style="fill: #1f77b4; stroke: #1f77b4"/>
     <use xlink:href="#m56332618da" x="249.604796" y="124.361369" style="fill: #1f77b4; stroke: #1f77b4"/>
     <use xlink:href="#m56332618da" x="251.236226" y="124.976662" style="fill: #1f77b4; stroke: #1f77b4"/>
     <use xlink:href="#m56332618da" x="252.867655" y="125.539022" style="fill: #1f77b4; stroke: #1f77b4"/>
     <use xlink:href="#m56332618da" x="254.499085" y="126.075848" style="fill: #1f77b4; stroke: #1f77b4"/>
     <use xlink:href="#m56332618da" x="256.130515" y="126.626584" style="fill: #1f77b4; stroke: #1f77b4"/>
     <use xlink:href="#m56332618da" x="257.761945" y="127.140549" style="fill: #1f77b4; stroke: #1f77b4"/>
     <use xlink:href="#m56332618da" x="259.393375" y="127.623638" style="fill: #1f77b4; stroke: #1f77b4"/>
     <use xlink:href="#m56332618da" x="261.024805" y="128.108149" style="fill: #1f77b4; stroke: #1f77b4"/>
     <use xlink:href="#m56332618da" x="262.656235" y="128.538446" style="fill: #1f77b4; stroke: #1f77b4"/>
     <use xlink:href="#m56332618da" x="264.287665" y="128.968182" style="fill: #1f77b4; stroke: #1f77b4"/>
     <use xlink:href="#m56332618da" x="265.919094" y="129.409138" style="fill: #1f77b4; stroke: #1f77b4"/>
     <use xlink:href="#m56332618da" x="267.550524" y="129.82285" style="fill: #1f77b4; stroke: #1f77b4"/>
     <use xlink:href="#m56332618da" x="269.181954" y="130.252088" style="fill: #1f77b4; stroke: #1f77b4"/>
     <use xlink:href="#m56332618da" x="270.813384" y="130.602348" style="fill: #1f77b4; stroke: #1f77b4"/>
     <use xlink:href="#m56332618da" x="272.444814" y="130.985235" style="fill: #1f77b4; stroke: #1f77b4"/>
     <use xlink:href="#m56332618da" x="274.076244" y="131.346239" style="fill: #1f77b4; stroke: #1f77b4"/>
     <use xlink:href="#m56332618da" x="275.707674" y="131.680158" style="fill: #1f77b4; stroke: #1f77b4"/>
     <use xlink:href="#m56332618da" x="277.339104" y="132.002978" style="fill: #1f77b4; stroke: #1f77b4"/>
     <use xlink:href="#m56332618da" x="278.970533" y="132.32441" style="fill: #1f77b4; stroke: #1f77b4"/>
     <use xlink:href="#m56332618da" x="280.601963" y="132.634566" style="fill: #1f77b4; stroke: #1f77b4"/>
     <use xlink:href="#m56332618da" x="282.233393" y="132.943224" style="fill: #1f77b4; stroke: #1f77b4"/>
     <use xlink:href="#m56332618da" x="283.864823" y="133.218267" style="fill: #1f77b4; stroke: #1f77b4"/>
     <use xlink:href="#m56332618da" x="285.496253" y="133.499567" style="fill: #1f77b4; stroke: #1f77b4"/>
     <use xlink:href="#m56332618da" x="287.127683" y="133.800808" style="fill: #1f77b4; stroke: #1f77b4"/>
     <use xlink:href="#m56332618da" x="288.759113" y="134.025825" style="fill: #1f77b4; stroke: #1f77b4"/>
     <use xlink:href="#m56332618da" x="290.390543" y="134.295256" style="fill: #1f77b4; stroke: #1f77b4"/>
     <use xlink:href="#m56332618da" x="292.021973" y="134.510993" style="fill: #1f77b4; stroke: #1f77b4"/>
     <use xlink:href="#m56332618da" x="293.653402" y="134.747965" style="fill: #1f77b4; stroke: #1f77b4"/>
     <use xlink:href="#m56332618da" x="295.284832" y="134.976814" style="fill: #1f77b4; stroke: #1f77b4"/>
     <use xlink:href="#m56332618da" x="296.916262" y="135.176603" style="fill: #1f77b4; stroke: #1f77b4"/>
     <use xlink:href="#m56332618da" x="298.547692" y="135.406376" style="fill: #1f77b4; stroke: #1f77b4"/>
     <use xlink:href="#m56332618da" x="300.179122" y="135.599267" style="fill: #1f77b4; stroke: #1f77b4"/>
     <use xlink:href="#m56332618da" x="301.810552" y="135.822147" style="fill: #1f77b4; stroke: #1f77b4"/>
     <use xlink:href="#m56332618da" x="303.441982" y="136.000724" style="fill: #1f77b4; stroke: #1f77b4"/>
     <use xlink:href="#m56332618da" x="305.073412" y="136.162844" style="fill: #1f77b4; stroke: #1f77b4"/>
     <use xlink:href="#m56332618da" x="306.704841" y="136.362165" style="fill: #1f77b4; stroke: #1f77b4"/>
     <use xlink:href="#m56332618da" x="308.336271" y="136.519746" style="fill: #1f77b4; stroke: #1f77b4"/>
     <use xlink:href="#m56332618da" x="309.967701" y="136.670417" style="fill: #1f77b4; stroke: #1f77b4"/>
     <use xlink:href="#m56332618da" x="311.599131" y="136.82345" style="fill: #1f77b4; stroke: #1f77b4"/>
     <use xlink:href="#m56332618da" x="313.230561" y="136.993666" style="fill: #1f77b4; stroke: #1f77b4"/>
     <use xlink:href="#m56332618da" x="314.861991" y="137.137912" style="fill: #1f77b4; stroke: #1f77b4"/>
     <use xlink:href="#m56332618da" x="316.493421" y="137.27025" style="fill: #1f77b4; stroke: #1f77b4"/>
     <use xlink:href="#m56332618da" x="318.124851" y="137.387071" style="fill: #1f77b4; stroke: #1f77b4"/>
     <use xlink:href="#m56332618da" x="319.75628" y="137.52801" style="fill: #1f77b4; stroke: #1f77b4"/>
     <use xlink:href="#m56332618da" x="321.38771" y="137.639822" style="fill: #1f77b4; stroke: #1f77b4"/>
     <use xlink:href="#m56332618da" x="323.01914" y="137.748331" style="fill: #1f77b4; stroke: #1f77b4"/>
     <use xlink:href="#m56332618da" x="324.65057" y="137.870772" style="fill: #1f77b4; stroke: #1f77b4"/>
     <use xlink:href="#m56332618da" x="326.282" y="137.969913" style="fill: #1f77b4; stroke: #1f77b4"/>
     <use xlink:href="#m56332618da" x="327.91343" y="138.088246" style="fill: #1f77b4; stroke: #1f77b4"/>
     <use xlink:href="#m56332618da" x="329.54486" y="138.17532" style="fill: #1f77b4; stroke: #1f77b4"/>
     <use xlink:href="#m56332618da" x="331.17629" y="138.281037" style="fill: #1f77b4; stroke: #1f77b4"/>
     <use xlink:href="#m56332618da" x="332.807719" y="138.364054" style="fill: #1f77b4; stroke: #1f77b4"/>
     <use xlink:href="#m56332618da" x="334.439149" y="138.441605" style="fill: #1f77b4; stroke: #1f77b4"/>
     <use xlink:href="#m56332618da" x="336.070579" y="138.550012" style="fill: #1f77b4; stroke: #1f77b4"/>
     <use xlink:href="#m56332618da" x="337.702009" y="138.613163" style="fill: #1f77b4; stroke: #1f77b4"/>
     <use xlink:href="#m56332618da" x="339.333439" y="138.669504" style="fill: #1f77b4; stroke: #1f77b4"/>
     <use xlink:href="#m56332618da" x="340.964869" y="138.74613" style="fill: #1f77b4; stroke: #1f77b4"/>
     <use xlink:href="#m56332618da" x="342.596299" y="138.811417" style="fill: #1f77b4; stroke: #1f77b4"/>
     <use xlink:href="#m56332618da" x="344.227729" y="138.887808" style="fill: #1f77b4; stroke: #1f77b4"/>
     <use xlink:href="#m56332618da" x="345.859158" y="138.938939" style="fill: #1f77b4; stroke: #1f77b4"/>
     <use xlink:href="#m56332618da" x="347.490588" y="138.971369" style="fill: #1f77b4; stroke: #1f77b4"/>
     <use xlink:href="#m56332618da" x="349.122018" y="139.025661" style="fill: #1f77b4; stroke: #1f77b4"/>
     <use xlink:href="#m56332618da" x="350.753448" y="139.056324" style="fill: #1f77b4; stroke: #1f77b4"/>
     <use xlink:href="#m56332618da" x="352.384878" y="139.10418" style="fill: #1f77b4; stroke: #1f77b4"/>
     <use xlink:href="#m56332618da" x="354.016308" y="139.148994" style="fill: #1f77b4; stroke: #1f77b4"/>
     <use xlink:href="#m56332618da" x="355.647738" y="139.190564" style="fill: #1f77b4; stroke: #1f77b4"/>
     <use xlink:href="#m56332618da" x="357.279168" y="139.199634" style="fill: #1f77b4; stroke: #1f77b4"/>
     <use xlink:href="#m56332618da" x="358.910597" y="139.240608" style="fill: #1f77b4; stroke: #1f77b4"/>
     <use xlink:href="#m56332618da" x="360.542027" y="139.248969" style="fill: #1f77b4; stroke: #1f77b4"/>
     <use xlink:href="#m56332618da" x="362.173457" y="139.280876" style="fill: #1f77b4; stroke: #1f77b4"/>
     <use xlink:href="#m56332618da" x="363.804887" y="139.308806" style="fill: #1f77b4; stroke: #1f77b4"/>
     <use xlink:href="#m56332618da" x="365.436317" y="139.317209" style="fill: #1f77b4; stroke: #1f77b4"/>
     <use xlink:href="#m56332618da" x="367.067747" y="139.294985" style="fill: #1f77b4; stroke: #1f77b4"/>
     <use xlink:href="#m56332618da" x="368.699177" y="139.339496" style="fill: #1f77b4; stroke: #1f77b4"/>
     <use xlink:href="#m56332618da" x="370.330607" y="139.327038" style="fill: #1f77b4; stroke: #1f77b4"/>
     <use xlink:href="#m56332618da" x="371.962036" y="139.344016" style="fill: #1f77b4; stroke: #1f77b4"/>
     <use xlink:href="#m56332618da" x="373.593466" y="139.352858" style="fill: #1f77b4; stroke: #1f77b4"/>
     <use xlink:href="#m56332618da" x="375.224896" y="139.345074" style="fill: #1f77b4; stroke: #1f77b4"/>
     <use xlink:href="#m56332618da" x="376.856326" y="139.326708" style="fill: #1f77b4; stroke: #1f77b4"/>
     <use xlink:href="#m56332618da" x="378.487756" y="139.307613" style="fill: #1f77b4; stroke: #1f77b4"/>
     <use xlink:href="#m56332618da" x="380.119186" y="139.304833" style="fill: #1f77b4; stroke: #1f77b4"/>
     <use xlink:href="#m56332618da" x="381.750616" y="139.300303" style="fill: #1f77b4; stroke: #1f77b4"/>
     <use xlink:href="#m56332618da" x="383.382046" y="139.286018" style="fill: #1f77b4; stroke: #1f77b4"/>
     <use xlink:href="#m56332618da" x="385.013475" y="139.259971" style="fill: #1f77b4; stroke: #1f77b4"/>
     <use xlink:href="#m56332618da" x="386.644905" y="139.240311" style="fill: #1f77b4; stroke: #1f77b4"/>
     <use xlink:href="#m56332618da" x="388.276335" y="139.195061" style="fill: #1f77b4; stroke: #1f77b4"/>
    </g>
   </g>
   <g id="line2d_12">
    <path d="M 63.62179 157.048452 
L 72.071257 157.218409 
L 79.220807 157.141642 
L 85.070438 156.86781 
L 90.270111 156.409108 
L 94.819824 155.790712 
L 99.044558 154.984609 
L 102.619333 154.084869 
L 105.869128 153.0552 
L 109.118923 151.782693 
L 112.043739 150.390163 
L 114.643575 148.921012 
L 117.243411 147.198968 
L 119.843248 145.185437 
L 122.118104 143.150458 
L 124.392961 140.827081 
L 126.667818 138.180885 
L 128.942674 135.175801 
L 131.217531 131.775376 
L 133.492388 127.944741 
L 135.767244 123.653513 
L 138.042101 118.879804 
L 140.316958 113.615473 
L 142.916794 107.014946 
L 145.84161 98.923383 
L 149.741364 87.361148 
L 155.590995 69.992698 
L 157.865852 63.902817 
L 159.815729 59.250161 
L 161.440627 55.871623 
L 163.065524 53.010797 
L 164.365443 51.124419 
L 165.665361 49.610713 
L 166.965279 48.475172 
L 167.940217 47.870592 
L 168.915156 47.473921 
L 169.890094 47.279382 
L 170.865033 47.279331 
L 171.839972 47.464523 
L 173.13989 47.981196 
L 174.439808 48.780565 
L 175.739726 49.83285 
L 177.364624 51.457038 
L 179.314501 53.780296 
L 181.589357 56.883049 
L 184.514173 61.27971 
L 191.338743 72.126761 
L 195.888456 79.102812 
L 199.788211 84.663947 
L 203.362986 89.360267 
L 206.612781 93.285932 
L 209.862576 96.891879 
L 213.112371 100.194361 
L 216.687146 103.501314 
L 220.261921 106.495959 
L 223.836696 109.208162 
L 227.73645 111.878174 
L 231.636204 114.279861 
L 235.860938 116.614231 
L 240.085672 118.703725 
L 244.635385 120.71416 
L 249.510078 122.627551 
L 254.70975 124.430692 
L 260.234402 126.114555 
L 266.409013 127.754128 
L 272.908604 129.244258 
L 280.058153 130.646626 
L 287.857662 131.937499 
L 296.30713 133.099212 
L 305.406556 134.119079 
L 315.155942 134.98826 
L 325.880266 135.719772 
L 337.579529 136.291779 
L 350.253731 136.686711 
L 363.902871 136.890081 
L 378.851929 136.887099 
L 388.276335 136.778629 
L 388.276335 136.778629 
" clip-path="url(#p283dcf76df)" style="fill: none; stroke: #d62728; stroke-width: 1.5; stroke-linecap: square"/>
   </g>
   <g id="patch_3">
    <path d="M 47.389063 162.72 
L 47.389063 41.76 
" style="fill: none; stroke: #000000; stroke-width: 0.8; stroke-linejoin: miter; stroke-linecap: square"/>
   </g>
   <g id="patch_4">
    <path d="M 404.509063 162.72 
L 404.509063 41.76 
" style="fill: none; stroke: #000000; stroke-width: 0.8; stroke-linejoin: miter; stroke-linecap: square"/>
   </g>
   <g id="patch_5">
    <path d="M 47.389062 162.72 
L 404.509062 162.72 
" style="fill: none; stroke: #000000; stroke-width: 0.8; stroke-linejoin: miter; stroke-linecap: square"/>
   </g>
   <g id="patch_6">
    <path d="M 47.389062 41.76 
L 404.509062 41.76 
" style="fill: none; stroke: #000000; stroke-width: 0.8; stroke-linejoin: miter; stroke-linecap: square"/>
   </g>
   <g id="text_6">
    <g id="patch_7">
     <path d="M 422.365063 95.079562 
L 561.465063 95.079562 
Q 565.465063 95.079562 565.465063 91.079562 
L 565.465063 47.808 
Q 565.465063 43.808 561.465063 43.808 
L 422.365063 43.808 
Q 418.365063 43.808 418.365063 47.808 
L 418.365063 91.079562 
Q 418.365063 95.079562 422.365063 95.079562 
z
" style="fill: #ffffff; opacity: 0.5; stroke: #000000; stroke-linejoin: miter"/>
    </g>
    <!-- Summary -->
    <g transform="translate(422.365063 55.406437) scale(0.1 -0.1)">
     <defs>
      <path id="DejaVuSans-53" d="M 3425 4513 
L 3425 3897 
Q 3066 4069 2747 4153 
Q 2428 4238 2131 4238 
Q 1616 4238 1336 4038 
Q 1056 3838 1056 3469 
Q 1056 3159 1242 3001 
Q 1428 2844 1947 2747 
L 2328 2669 
Q 3034 2534 3370 2195 
Q 3706 1856 3706 1288 
Q 3706 609 3251 259 
Q 2797 -91 1919 -91 
Q 1588 -91 1214 -16 
Q 841 59 441 206 
L 441 856 
Q 825 641 1194 531 
Q 1563 422 1919 422 
Q 2459 422 2753 634 
Q 3047 847 3047 1241 
Q 3047 1584 2836 1778 
Q 2625 1972 2144 2069 
L 1759 2144 
Q 1053 2284 737 2584 
Q 422 2884 422 3419 
Q 422 4038 858 4394 
Q 1294 4750 2059 4750 
Q 2388 4750 2728 4690 
Q 3069 4631 3425 4513 
z
" transform="scale(0.015625)"/>
      <path id="DejaVuSans-75" d="M 544 1381 
L 544 3500 
L 1119 3500 
L 1119 1403 
Q 1119 906 1312 657 
Q 1506 409 1894 409 
Q 2359 409 2629 706 
Q 2900 1003 2900 1516 
L 2900 3500 
L 3475 3500 
L 3475 0 
L 2900 0 
L 2900 538 
Q 2691 219 2414 64 
Q 2138 -91 1772 -91 
Q 1169 -91 856 284 
Q 544 659 544 1381 
z
M 1991 3584 
L 1991 3584 
z
" transform="scale(0.015625)"/>
      <path id="DejaVuSans-6d" d="M 3328 2828 
Q 3544 3216 3844 3400 
Q 4144 3584 4550 3584 
Q 5097 3584 5394 3201 
Q 5691 2819 5691 2113 
L 5691 0 
L 5113 0 
L 5113 2094 
Q 5113 2597 4934 2840 
Q 4756 3084 4391 3084 
Q 3944 3084 3684 2787 
Q 3425 2491 3425 1978 
L 3425 0 
L 2847 0 
L 2847 2094 
Q 2847 2600 2669 2842 
Q 2491 3084 2119 3084 
Q 1678 3084 1418 2786 
Q 1159 2488 1159 1978 
L 1159 0 
L 581 0 
L 581 3500 
L 1159 3500 
L 1159 2956 
Q 1356 3278 1631 3431 
Q 1906 3584 2284 3584 
Q 2666 3584 2933 3390 
Q 3200 3197 3328 2828 
z
" transform="scale(0.015625)"/>
      <path id="DejaVuSans-61" d="M 2194 1759 
Q 1497 1759 1228 1600 
Q 959 1441 959 1056 
Q 959 750 1161 570 
Q 1363 391 1709 391 
Q 2188 391 2477 730 
Q 2766 1069 2766 1631 
L 2766 1759 
L 2194 1759 
z
M 3341 1997 
L 3341 0 
L 2766 0 
L 2766 531 
Q 2569 213 2275 61 
Q 1981 -91 1556 -91 
Q 1019 -91 701 211 
Q 384 513 384 1019 
Q 384 1609 779 1909 
Q 1175 2209 1959 2209 
L 2766 2209 
L 2766 2266 
Q 2766 2663 2505 2880 
Q 2244 3097 1772 3097 
Q 1472 3097 1187 3025 
Q 903 2953 641 2809 
L 641 3341 
Q 956 3463 1253 3523 
Q 1550 3584 1831 3584 
Q 2591 3584 2966 3190 
Q 3341 2797 3341 1997 
z
" transform="scale(0.015625)"/>
      <path id="DejaVuSans-72" d="M 2631 2963 
Q 2534 3019 2420 3045 
Q 2306 3072 2169 3072 
Q 1681 3072 1420 2755 
Q 1159 2438 1159 1844 
L 1159 0 
L 581 0 
L 581 3500 
L 1159 3500 
L 1159 2956 
Q 1341 3275 1631 3429 
Q 1922 3584 2338 3584 
Q 2397 3584 2469 3576 
Q 2541 3569 2628 3553 
L 2631 2963 
z
" transform="scale(0.015625)"/>
      <path id="DejaVuSans-79" d="M 2059 -325 
Q 1816 -950 1584 -1140 
Q 1353 -1331 966 -1331 
L 506 -1331 
L 506 -850 
L 844 -850 
Q 1081 -850 1212 -737 
Q 1344 -625 1503 -206 
L 1606 56 
L 191 3500 
L 800 3500 
L 1894 763 
L 2988 3500 
L 3597 3500 
L 2059 -325 
z
" transform="scale(0.015625)"/>
     </defs>
     <use xlink:href="#DejaVuSans-53"/>
     <use xlink:href="#DejaVuSans-75" x="63.476562"/>
     <use xlink:href="#DejaVuSans-6d" x="126.855469"/>
     <use xlink:href="#DejaVuSans-6d" x="224.267578"/>
     <use xlink:href="#DejaVuSans-61" x="321.679688"/>
     <use xlink:href="#DejaVuSans-72" x="382.958984"/>
     <use xlink:href="#DejaVuSans-79" x="424.072266"/>
    </g>
    <!-- $Q_I$: 2.0e+02$\pm$1.2e+02 k -->
    <g transform="translate(422.365063 66.60425) scale(0.1 -0.1)">
     <defs>
      <path id="DejaVuSans-Oblique-51" d="M 2309 -84 
Q 2275 -88 2237 -89 
Q 2200 -91 2125 -91 
Q 1250 -91 756 411 
Q 263 913 263 1797 
Q 263 2319 452 2844 
Q 641 3369 978 3788 
Q 1369 4269 1858 4509 
Q 2347 4750 2938 4750 
Q 3794 4750 4287 4245 
Q 4781 3741 4781 2869 
Q 4781 1928 4265 1147 
Q 3750 366 2919 44 
L 3553 -825 
L 2847 -825 
L 2309 -84 
z
M 2919 4238 
Q 2400 4238 2003 3986 
Q 1606 3734 1313 3219 
Q 1125 2891 1026 2522 
Q 928 2153 928 1778 
Q 928 1128 1239 775 
Q 1550 422 2119 422 
Q 2631 422 3032 676 
Q 3434 931 3719 1434 
Q 3909 1772 4009 2142 
Q 4109 2513 4109 2881 
Q 4109 3528 3796 3883 
Q 3484 4238 2919 4238 
z
" transform="scale(0.015625)"/>
      <path id="DejaVuSans-Oblique-49" d="M 1081 4666 
L 1716 4666 
L 806 0 
L 172 0 
L 1081 4666 
z
" transform="scale(0.015625)"/>
      <path id="DejaVuSans-3a" d="M 750 794 
L 1409 794 
L 1409 0 
L 750 0 
L 750 794 
z
M 750 3309 
L 1409 3309 
L 1409 2516 
L 750 2516 
L 750 3309 
z
" transform="scale(0.015625)"/>
      <path id="DejaVuSans-2b" d="M 2944 4013 
L 2944 2272 
L 4684 2272 
L 4684 1741 
L 2944 1741 
L 2944 0 
L 2419 0 
L 2419 1741 
L 678 1741 
L 678 2272 
L 2419 2272 
L 2419 4013 
L 2944 4013 
z
" transform="scale(0.015625)"/>
      <path id="DejaVuSans-b1" d="M 2944 4013 
L 2944 2803 
L 4684 2803 
L 4684 2272 
L 2944 2272 
L 2944 1063 
L 2419 1063 
L 2419 2272 
L 678 2272 
L 678 2803 
L 2419 2803 
L 2419 4013 
L 2944 4013 
z
M 678 531 
L 4684 531 
L 4684 0 
L 678 0 
L 678 531 
z
" transform="scale(0.015625)"/>
      <path id="DejaVuSans-6b" d="M 581 4863 
L 1159 4863 
L 1159 1991 
L 2875 3500 
L 3609 3500 
L 1753 1863 
L 3688 0 
L 2938 0 
L 1159 1709 
L 1159 0 
L 581 0 
L 581 4863 
z
" transform="scale(0.015625)"/>
     </defs>
     <use xlink:href="#DejaVuSans-Oblique-51" transform="translate(0 0.015625)"/>
     <use xlink:href="#DejaVuSans-Oblique-49" transform="translate(78.710938 -16.390625) scale(0.7)"/>
     <use xlink:href="#DejaVuSans-3a" transform="translate(102.089844 0.015625)"/>
     <use xlink:href="#DejaVuSans-20" transform="translate(135.78125 0.015625)"/>
     <use xlink:href="#DejaVuSans-32" transform="translate(167.568359 0.015625)"/>
     <use xlink:href="#DejaVuSans-2e" transform="translate(231.191406 0.015625)"/>
     <use xlink:href="#DejaVuSans-30" transform="translate(262.978516 0.015625)"/>
     <use xlink:href="#DejaVuSans-65" transform="translate(326.601562 0.015625)"/>
     <use xlink:href="#DejaVuSans-2b" transform="translate(388.125 0.015625)"/>
     <use xlink:href="#DejaVuSans-30" transform="translate(471.914062 0.015625)"/>
     <use xlink:href="#DejaVuSans-32" transform="translate(535.537109 0.015625)"/>
     <use xlink:href="#DejaVuSans-b1" transform="translate(599.160156 0.015625)"/>
     <use xlink:href="#DejaVuSans-31" transform="translate(682.949219 0.015625)"/>
     <use xlink:href="#DejaVuSans-2e" transform="translate(746.572266 0.015625)"/>
     <use xlink:href="#DejaVuSans-32" transform="translate(772.859375 0.015625)"/>
     <use xlink:href="#DejaVuSans-65" transform="translate(836.482422 0.015625)"/>
     <use xlink:href="#DejaVuSans-2b" transform="translate(898.005859 0.015625)"/>
     <use xlink:href="#DejaVuSans-30" transform="translate(981.794922 0.015625)"/>
     <use xlink:href="#DejaVuSans-32" transform="translate(1045.417969 0.015625)"/>
     <use xlink:href="#DejaVuSans-20" transform="translate(1109.041016 0.015625)"/>
     <use xlink:href="#DejaVuSans-6b" transform="translate(1140.828125 0.015625)"/>
    </g>
    <!-- $Q_C$: 3.085$\pm$0.047 k -->
    <g transform="translate(422.365063 77.802062) scale(0.1 -0.1)">
     <defs>
      <path id="DejaVuSans-Oblique-43" d="M 4447 4306 
L 4319 3641 
Q 4019 3944 3683 4091 
Q 3347 4238 2956 4238 
Q 2422 4238 2017 3981 
Q 1613 3725 1319 3200 
Q 1131 2863 1032 2486 
Q 934 2109 934 1728 
Q 934 1091 1264 756 
Q 1594 422 2222 422 
Q 2656 422 3056 561 
Q 3456 700 3834 978 
L 3688 231 
Q 3316 72 2936 -9 
Q 2556 -91 2175 -91 
Q 1278 -91 773 396 
Q 269 884 269 1753 
Q 269 2309 461 2846 
Q 653 3384 1013 3828 
Q 1394 4300 1883 4525 
Q 2372 4750 3022 4750 
Q 3422 4750 3780 4639 
Q 4138 4528 4447 4306 
z
" transform="scale(0.015625)"/>
      <path id="DejaVuSans-33" d="M 2597 2516 
Q 3050 2419 3304 2112 
Q 3559 1806 3559 1356 
Q 3559 666 3084 287 
Q 2609 -91 1734 -91 
Q 1441 -91 1130 -33 
Q 819 25 488 141 
L 488 750 
Q 750 597 1062 519 
Q 1375 441 1716 441 
Q 2309 441 2620 675 
Q 2931 909 2931 1356 
Q 2931 1769 2642 2001 
Q 2353 2234 1838 2234 
L 1294 2234 
L 1294 2753 
L 1863 2753 
Q 2328 2753 2575 2939 
Q 2822 3125 2822 3475 
Q 2822 3834 2567 4026 
Q 2313 4219 1838 4219 
Q 1578 4219 1281 4162 
Q 984 4106 628 3988 
L 628 4550 
Q 988 4650 1302 4700 
Q 1616 4750 1894 4750 
Q 2613 4750 3031 4423 
Q 3450 4097 3450 3541 
Q 3450 3153 3228 2886 
Q 3006 2619 2597 2516 
z
" transform="scale(0.015625)"/>
      <path id="DejaVuSans-38" d="M 2034 2216 
Q 1584 2216 1326 1975 
Q 1069 1734 1069 1313 
Q 1069 891 1326 650 
Q 1584 409 2034 409 
Q 2484 409 2743 651 
Q 3003 894 3003 1313 
Q 3003 1734 2745 1975 
Q 2488 2216 2034 2216 
z
M 1403 2484 
Q 997 2584 770 2862 
Q 544 3141 544 3541 
Q 544 4100 942 4425 
Q 1341 4750 2034 4750 
Q 2731 4750 3128 4425 
Q 3525 4100 3525 3541 
Q 3525 3141 3298 2862 
Q 3072 2584 2669 2484 
Q 3125 2378 3379 2068 
Q 3634 1759 3634 1313 
Q 3634 634 3220 271 
Q 2806 -91 2034 -91 
Q 1263 -91 848 271 
Q 434 634 434 1313 
Q 434 1759 690 2068 
Q 947 2378 1403 2484 
z
M 1172 3481 
Q 1172 3119 1398 2916 
Q 1625 2713 2034 2713 
Q 2441 2713 2670 2916 
Q 2900 3119 2900 3481 
Q 2900 3844 2670 4047 
Q 2441 4250 2034 4250 
Q 1625 4250 1398 4047 
Q 1172 3844 1172 3481 
z
" transform="scale(0.015625)"/>
      <path id="DejaVuSans-35" d="M 691 4666 
L 3169 4666 
L 3169 4134 
L 1269 4134 
L 1269 2991 
Q 1406 3038 1543 3061 
Q 1681 3084 1819 3084 
Q 2600 3084 3056 2656 
Q 3513 2228 3513 1497 
Q 3513 744 3044 326 
Q 2575 -91 1722 -91 
Q 1428 -91 1123 -41 
Q 819 9 494 109 
L 494 744 
Q 775 591 1075 516 
Q 1375 441 1709 441 
Q 2250 441 2565 725 
Q 2881 1009 2881 1497 
Q 2881 1984 2565 2268 
Q 2250 2553 1709 2553 
Q 1456 2553 1204 2497 
Q 953 2441 691 2322 
L 691 4666 
z
" transform="scale(0.015625)"/>
      <path id="DejaVuSans-37" d="M 525 4666 
L 3525 4666 
L 3525 4397 
L 1831 0 
L 1172 0 
L 2766 4134 
L 525 4134 
L 525 4666 
z
" transform="scale(0.015625)"/>
     </defs>
     <use xlink:href="#DejaVuSans-Oblique-51" transform="translate(0 0.015625)"/>
     <use xlink:href="#DejaVuSans-Oblique-43" transform="translate(78.710938 -16.390625) scale(0.7)"/>
     <use xlink:href="#DejaVuSans-3a" transform="translate(130.322266 0.015625)"/>
     <use xlink:href="#DejaVuSans-20" transform="translate(164.013672 0.015625)"/>
     <use xlink:href="#DejaVuSans-33" transform="translate(195.800781 0.015625)"/>
     <use xlink:href="#DejaVuSans-2e" transform="translate(259.423828 0.015625)"/>
     <use xlink:href="#DejaVuSans-30" transform="translate(291.210938 0.015625)"/>
     <use xlink:href="#DejaVuSans-38" transform="translate(354.833984 0.015625)"/>
     <use xlink:href="#DejaVuSans-35" transform="translate(418.457031 0.015625)"/>
     <use xlink:href="#DejaVuSans-b1" transform="translate(482.080078 0.015625)"/>
     <use xlink:href="#DejaVuSans-30" transform="translate(565.869141 0.015625)"/>
     <use xlink:href="#DejaVuSans-2e" transform="translate(629.492188 0.015625)"/>
     <use xlink:href="#DejaVuSans-30" transform="translate(661.279297 0.015625)"/>
     <use xlink:href="#DejaVuSans-34" transform="translate(724.902344 0.015625)"/>
     <use xlink:href="#DejaVuSans-37" transform="translate(788.525391 0.015625)"/>
     <use xlink:href="#DejaVuSans-20" transform="translate(852.148438 0.015625)"/>
     <use xlink:href="#DejaVuSans-6b" transform="translate(883.935547 0.015625)"/>
    </g>
    <!-- $f_{res}$: 5.836767$\pm$1.6e-05 GHz -->
    <g transform="translate(422.365063 88.999875) scale(0.1 -0.1)">
     <defs>
      <path id="DejaVuSans-Oblique-66" d="M 3059 4863 
L 2969 4384 
L 2419 4384 
Q 2106 4384 1964 4261 
Q 1822 4138 1753 3809 
L 1691 3500 
L 2638 3500 
L 2553 3053 
L 1606 3053 
L 1013 0 
L 434 0 
L 1031 3053 
L 481 3053 
L 563 3500 
L 1113 3500 
L 1159 3744 
Q 1278 4363 1576 4613 
Q 1875 4863 2516 4863 
L 3059 4863 
z
" transform="scale(0.015625)"/>
      <path id="DejaVuSans-Oblique-72" d="M 2853 2969 
Q 2766 3016 2653 3041 
Q 2541 3066 2413 3066 
Q 1953 3066 1609 2717 
Q 1266 2369 1153 1784 
L 800 0 
L 225 0 
L 909 3500 
L 1484 3500 
L 1375 2956 
Q 1603 3259 1920 3421 
Q 2238 3584 2597 3584 
Q 2691 3584 2781 3573 
Q 2872 3563 2963 3538 
L 2853 2969 
z
" transform="scale(0.015625)"/>
      <path id="DejaVuSans-Oblique-65" d="M 3078 2063 
Q 3088 2113 3092 2166 
Q 3097 2219 3097 2272 
Q 3097 2653 2873 2875 
Q 2650 3097 2266 3097 
Q 1838 3097 1509 2826 
Q 1181 2556 1013 2059 
L 3078 2063 
z
M 3578 1613 
L 903 1613 
Q 884 1494 878 1425 
Q 872 1356 872 1306 
Q 872 872 1139 634 
Q 1406 397 1894 397 
Q 2269 397 2603 481 
Q 2938 566 3225 728 
L 3116 159 
Q 2806 34 2476 -28 
Q 2147 -91 1806 -91 
Q 1078 -91 686 257 
Q 294 606 294 1247 
Q 294 1794 489 2264 
Q 684 2734 1063 3103 
Q 1306 3334 1642 3459 
Q 1978 3584 2356 3584 
Q 2950 3584 3301 3228 
Q 3653 2872 3653 2272 
Q 3653 2128 3634 1964 
Q 3616 1800 3578 1613 
z
" transform="scale(0.015625)"/>
      <path id="DejaVuSans-Oblique-73" d="M 3200 3397 
L 3091 2853 
Q 2863 2978 2609 3040 
Q 2356 3103 2088 3103 
Q 1634 3103 1373 2948 
Q 1113 2794 1113 2528 
Q 1113 2219 1719 2053 
Q 1766 2041 1788 2034 
L 1972 1978 
Q 2547 1819 2739 1644 
Q 2931 1469 2931 1166 
Q 2931 609 2489 259 
Q 2047 -91 1331 -91 
Q 1053 -91 747 -37 
Q 441 16 72 128 
L 184 722 
Q 500 559 806 475 
Q 1113 391 1394 391 
Q 1816 391 2080 572 
Q 2344 753 2344 1031 
Q 2344 1331 1650 1516 
L 1591 1531 
L 1394 1581 
Q 956 1697 753 1886 
Q 550 2075 550 2369 
Q 550 2928 970 3256 
Q 1391 3584 2113 3584 
Q 2397 3584 2667 3537 
Q 2938 3491 3200 3397 
z
" transform="scale(0.015625)"/>
      <path id="DejaVuSans-47" d="M 3809 666 
L 3809 1919 
L 2778 1919 
L 2778 2438 
L 4434 2438 
L 4434 434 
Q 4069 175 3628 42 
Q 3188 -91 2688 -91 
Q 1594 -91 976 548 
Q 359 1188 359 2328 
Q 359 3472 976 4111 
Q 1594 4750 2688 4750 
Q 3144 4750 3555 4637 
Q 3966 4525 4313 4306 
L 4313 3634 
Q 3963 3931 3569 4081 
Q 3175 4231 2741 4231 
Q 1884 4231 1454 3753 
Q 1025 3275 1025 2328 
Q 1025 1384 1454 906 
Q 1884 428 2741 428 
Q 3075 428 3337 486 
Q 3600 544 3809 666 
z
" transform="scale(0.015625)"/>
      <path id="DejaVuSans-48" d="M 628 4666 
L 1259 4666 
L 1259 2753 
L 3553 2753 
L 3553 4666 
L 4184 4666 
L 4184 0 
L 3553 0 
L 3553 2222 
L 1259 2222 
L 1259 0 
L 628 0 
L 628 4666 
z
" transform="scale(0.015625)"/>
      <path id="DejaVuSans-7a" d="M 353 3500 
L 3084 3500 
L 3084 2975 
L 922 459 
L 3084 459 
L 3084 0 
L 275 0 
L 275 525 
L 2438 3041 
L 353 3041 
L 353 3500 
z
" transform="scale(0.015625)"/>
     </defs>
     <use xlink:href="#DejaVuSans-Oblique-66" transform="translate(0 0.015625)"/>
     <use xlink:href="#DejaVuSans-Oblique-72" transform="translate(35.205078 -16.390625) scale(0.7)"/>
     <use xlink:href="#DejaVuSans-Oblique-65" transform="translate(63.984375 -16.390625) scale(0.7)"/>
     <use xlink:href="#DejaVuSans-Oblique-73" transform="translate(107.050781 -16.390625) scale(0.7)"/>
     <use xlink:href="#DejaVuSans-3a" transform="translate(146.254883 0.015625)"/>
     <use xlink:href="#DejaVuSans-20" transform="translate(179.946289 0.015625)"/>
     <use xlink:href="#DejaVuSans-35" transform="translate(211.733398 0.015625)"/>
     <use xlink:href="#DejaVuSans-2e" transform="translate(275.356445 0.015625)"/>
     <use xlink:href="#DejaVuSans-38" transform="translate(304.518555 0.015625)"/>
     <use xlink:href="#DejaVuSans-33" transform="translate(368.141602 0.015625)"/>
     <use xlink:href="#DejaVuSans-36" transform="translate(431.764648 0.015625)"/>
     <use xlink:href="#DejaVuSans-37" transform="translate(495.387695 0.015625)"/>
     <use xlink:href="#DejaVuSans-36" transform="translate(559.010742 0.015625)"/>
     <use xlink:href="#DejaVuSans-37" transform="translate(622.633789 0.015625)"/>
     <use xlink:href="#DejaVuSans-b1" transform="translate(686.256836 0.015625)"/>
     <use xlink:href="#DejaVuSans-31" transform="translate(770.045898 0.015625)"/>
     <use xlink:href="#DejaVuSans-2e" transform="translate(833.668945 0.015625)"/>
     <use xlink:href="#DejaVuSans-36" transform="translate(865.456055 0.015625)"/>
     <use xlink:href="#DejaVuSans-65" transform="translate(929.079102 0.015625)"/>
     <use xlink:href="#DejaVuSans-2d" transform="translate(990.602539 0.015625)"/>
     <use xlink:href="#DejaVuSans-30" transform="translate(1026.686523 0.015625)"/>
     <use xlink:href="#DejaVuSans-35" transform="translate(1090.30957 0.015625)"/>
     <use xlink:href="#DejaVuSans-20" transform="translate(1153.932617 0.015625)"/>
     <use xlink:href="#DejaVuSans-47" transform="translate(1185.719727 0.015625)"/>
     <use xlink:href="#DejaVuSans-48" transform="translate(1263.209961 0.015625)"/>
     <use xlink:href="#DejaVuSans-7a" transform="translate(1338.405273 0.015625)"/>
    </g>
   </g>
  </g>
  <g id="axes_2">
   <g id="patch_8">
    <path d="M 47.389063 307.872 
L 404.509063 307.872 
L 404.509063 186.912 
L 47.389063 186.912 
z
" style="fill: #ffffff"/>
   </g>
   <g id="matplotlib.axis_3">
    <g id="xtick_7">
     <g id="line2d_13">
      <g>
       <use xlink:href="#m4ff9756ae1" x="71.738153" y="307.872" style="stroke: #000000; stroke-width: 0.8"/>
      </g>
     </g>
     <g id="text_7">
      <!-- 834 -->
      <g transform="translate(62.194403 322.470438) scale(0.1 -0.1)">
       <use xlink:href="#DejaVuSans-38"/>
       <use xlink:href="#DejaVuSans-33" x="63.623047"/>
       <use xlink:href="#DejaVuSans-34" x="127.246094"/>
      </g>
     </g>
    </g>
    <g id="xtick_8">
     <g id="line2d_14">
      <g>
       <use xlink:href="#m4ff9756ae1" x="136.669062" y="307.872" style="stroke: #000000; stroke-width: 0.8"/>
      </g>
     </g>
     <g id="text_8">
      <!-- 836 -->
      <g transform="translate(127.125312 322.470438) scale(0.1 -0.1)">
       <use xlink:href="#DejaVuSans-38"/>
       <use xlink:href="#DejaVuSans-33" x="63.623047"/>
       <use xlink:href="#DejaVuSans-36" x="127.246094"/>
      </g>
     </g>
    </g>
    <g id="xtick_9">
     <g id="line2d_15">
      <g>
       <use xlink:href="#m4ff9756ae1" x="201.599972" y="307.872" style="stroke: #000000; stroke-width: 0.8"/>
      </g>
     </g>
     <g id="text_9">
      <!-- 838 -->
      <g transform="translate(192.056222 322.470438) scale(0.1 -0.1)">
       <use xlink:href="#DejaVuSans-38"/>
       <use xlink:href="#DejaVuSans-33" x="63.623047"/>
       <use xlink:href="#DejaVuSans-38" x="127.246094"/>
      </g>
     </g>
    </g>
    <g id="xtick_10">
     <g id="line2d_16">
      <g>
       <use xlink:href="#m4ff9756ae1" x="266.530881" y="307.872" style="stroke: #000000; stroke-width: 0.8"/>
      </g>
     </g>
     <g id="text_10">
      <!-- 840 -->
      <g transform="translate(256.987131 322.470438) scale(0.1 -0.1)">
       <use xlink:href="#DejaVuSans-38"/>
       <use xlink:href="#DejaVuSans-34" x="63.623047"/>
       <use xlink:href="#DejaVuSans-30" x="127.246094"/>
      </g>
     </g>
    </g>
    <g id="xtick_11">
     <g id="line2d_17">
      <g>
       <use xlink:href="#m4ff9756ae1" x="331.46179" y="307.872" style="stroke: #000000; stroke-width: 0.8"/>
      </g>
     </g>
     <g id="text_11">
      <!-- 842 -->
      <g transform="translate(321.91804 322.470438) scale(0.1 -0.1)">
       <use xlink:href="#DejaVuSans-38"/>
       <use xlink:href="#DejaVuSans-34" x="63.623047"/>
       <use xlink:href="#DejaVuSans-32" x="127.246094"/>
      </g>
     </g>
    </g>
    <g id="xtick_12">
     <g id="line2d_18">
      <g>
       <use xlink:href="#m4ff9756ae1" x="396.392699" y="307.872" style="stroke: #000000; stroke-width: 0.8"/>
      </g>
     </g>
     <g id="text_12">
      <!-- 844 -->
      <g transform="translate(386.848949 322.470438) scale(0.1 -0.1)">
       <use xlink:href="#DejaVuSans-38"/>
       <use xlink:href="#DejaVuSans-34" x="63.623047"/>
       <use xlink:href="#DejaVuSans-34" x="127.246094"/>
      </g>
     </g>
    </g>
    <g id="text_13">
     <!-- Frequency [MHz] -->
     <g transform="translate(183.930313 336.148562) scale(0.1 -0.1)">
      <defs>
       <path id="DejaVuSans-46" d="M 628 4666 
L 3309 4666 
L 3309 4134 
L 1259 4134 
L 1259 2759 
L 3109 2759 
L 3109 2228 
L 1259 2228 
L 1259 0 
L 628 0 
L 628 4666 
z
" transform="scale(0.015625)"/>
       <path id="DejaVuSans-71" d="M 947 1747 
Q 947 1113 1208 752 
Q 1469 391 1925 391 
Q 2381 391 2643 752 
Q 2906 1113 2906 1747 
Q 2906 2381 2643 2742 
Q 2381 3103 1925 3103 
Q 1469 3103 1208 2742 
Q 947 2381 947 1747 
z
M 2906 525 
Q 2725 213 2448 61 
Q 2172 -91 1784 -91 
Q 1150 -91 751 415 
Q 353 922 353 1747 
Q 353 2572 751 3078 
Q 1150 3584 1784 3584 
Q 2172 3584 2448 3432 
Q 2725 3281 2906 2969 
L 2906 3500 
L 3481 3500 
L 3481 -1331 
L 2906 -1331 
L 2906 525 
z
" transform="scale(0.015625)"/>
       <path id="DejaVuSans-6e" d="M 3513 2113 
L 3513 0 
L 2938 0 
L 2938 2094 
Q 2938 2591 2744 2837 
Q 2550 3084 2163 3084 
Q 1697 3084 1428 2787 
Q 1159 2491 1159 1978 
L 1159 0 
L 581 0 
L 581 3500 
L 1159 3500 
L 1159 2956 
Q 1366 3272 1645 3428 
Q 1925 3584 2291 3584 
Q 2894 3584 3203 3211 
Q 3513 2838 3513 2113 
z
" transform="scale(0.015625)"/>
       <path id="DejaVuSans-63" d="M 3122 3366 
L 3122 2828 
Q 2878 2963 2633 3030 
Q 2388 3097 2138 3097 
Q 1578 3097 1268 2742 
Q 959 2388 959 1747 
Q 959 1106 1268 751 
Q 1578 397 2138 397 
Q 2388 397 2633 464 
Q 2878 531 3122 666 
L 3122 134 
Q 2881 22 2623 -34 
Q 2366 -91 2075 -91 
Q 1284 -91 818 406 
Q 353 903 353 1747 
Q 353 2603 823 3093 
Q 1294 3584 2113 3584 
Q 2378 3584 2631 3529 
Q 2884 3475 3122 3366 
z
" transform="scale(0.015625)"/>
       <path id="DejaVuSans-4d" d="M 628 4666 
L 1569 4666 
L 2759 1491 
L 3956 4666 
L 4897 4666 
L 4897 0 
L 4281 0 
L 4281 4097 
L 3078 897 
L 2444 897 
L 1241 4097 
L 1241 0 
L 628 0 
L 628 4666 
z
" transform="scale(0.015625)"/>
      </defs>
      <use xlink:href="#DejaVuSans-46"/>
      <use xlink:href="#DejaVuSans-72" x="50.269531"/>
      <use xlink:href="#DejaVuSans-65" x="89.132812"/>
      <use xlink:href="#DejaVuSans-71" x="150.65625"/>
      <use xlink:href="#DejaVuSans-75" x="214.132812"/>
      <use xlink:href="#DejaVuSans-65" x="277.511719"/>
      <use xlink:href="#DejaVuSans-6e" x="339.035156"/>
      <use xlink:href="#DejaVuSans-63" x="402.414062"/>
      <use xlink:href="#DejaVuSans-79" x="457.394531"/>
      <use xlink:href="#DejaVuSans-20" x="516.574219"/>
      <use xlink:href="#DejaVuSans-5b" x="548.361328"/>
      <use xlink:href="#DejaVuSans-4d" x="587.375"/>
      <use xlink:href="#DejaVuSans-48" x="673.654297"/>
      <use xlink:href="#DejaVuSans-7a" x="748.849609"/>
      <use xlink:href="#DejaVuSans-5d" x="801.339844"/>
     </g>
    </g>
    <g id="text_14">
     <!-- +5 GHz -->
     <g transform="translate(366.071563 335.148562) scale(0.1 -0.1)">
      <use xlink:href="#DejaVuSans-2b"/>
      <use xlink:href="#DejaVuSans-35" x="83.789062"/>
      <use xlink:href="#DejaVuSans-20" x="147.412109"/>
      <use xlink:href="#DejaVuSans-47" x="179.199219"/>
      <use xlink:href="#DejaVuSans-48" x="256.689453"/>
      <use xlink:href="#DejaVuSans-7a" x="331.884766"/>
     </g>
    </g>
   </g>
   <g id="matplotlib.axis_4">
    <g id="ytick_5">
     <g id="line2d_19">
      <g>
       <use xlink:href="#mf828e5ba4f" x="47.389063" y="274.625619" style="stroke: #000000; stroke-width: 0.8"/>
      </g>
     </g>
     <g id="text_15">
      <!-- 0 -->
      <g transform="translate(34.026563 278.424838) scale(0.1 -0.1)">
       <use xlink:href="#DejaVuSans-30"/>
      </g>
     </g>
    </g>
    <g id="ytick_6">
     <g id="line2d_20">
      <g>
       <use xlink:href="#mf828e5ba4f" x="47.389063" y="240.108042" style="stroke: #000000; stroke-width: 0.8"/>
      </g>
     </g>
     <g id="text_16">
      <!-- 0.2 -->
      <g transform="translate(24.485938 243.907261) scale(0.1 -0.1)">
       <use xlink:href="#DejaVuSans-30"/>
       <use xlink:href="#DejaVuSans-2e" x="63.623047"/>
       <use xlink:href="#DejaVuSans-32" x="95.410156"/>
      </g>
     </g>
    </g>
    <g id="ytick_7">
     <g id="line2d_21">
      <g>
       <use xlink:href="#mf828e5ba4f" x="47.389063" y="205.590465" style="stroke: #000000; stroke-width: 0.8"/>
      </g>
     </g>
     <g id="text_17">
      <!-- 0.4 -->
      <g transform="translate(24.485938 209.389684) scale(0.1 -0.1)">
       <use xlink:href="#DejaVuSans-30"/>
       <use xlink:href="#DejaVuSans-2e" x="63.623047"/>
       <use xlink:href="#DejaVuSans-34" x="95.410156"/>
      </g>
     </g>
    </g>
    <g id="text_18">
     <!-- Im$(S_{21})$ [V] -->
     <g transform="translate(18.40625 274.142) rotate(-90) scale(0.1 -0.1)">
      <defs>
       <path id="DejaVuSans-49" d="M 628 4666 
L 1259 4666 
L 1259 0 
L 628 0 
L 628 4666 
z
" transform="scale(0.015625)"/>
      </defs>
      <use xlink:href="#DejaVuSans-49" transform="translate(0 0.015625)"/>
      <use xlink:href="#DejaVuSans-6d" transform="translate(25.867188 0.015625)"/>
      <use xlink:href="#DejaVuSans-28" transform="translate(123.279297 0.015625)"/>
      <use xlink:href="#DejaVuSans-Oblique-53" transform="translate(162.292969 0.015625)"/>
      <use xlink:href="#DejaVuSans-32" transform="translate(225.769531 -16.390625) scale(0.7)"/>
      <use xlink:href="#DejaVuSans-31" transform="translate(270.305664 -16.390625) scale(0.7)"/>
      <use xlink:href="#DejaVuSans-29" transform="translate(317.576172 0.015625)"/>
      <use xlink:href="#DejaVuSans-20" transform="translate(356.589844 0.015625)"/>
      <use xlink:href="#DejaVuSans-5b" transform="translate(388.376953 0.015625)"/>
      <use xlink:href="#DejaVuSans-56" transform="translate(427.390625 0.015625)"/>
      <use xlink:href="#DejaVuSans-5d" transform="translate(495.798828 0.015625)"/>
     </g>
    </g>
   </g>
   <g id="line2d_22">
    <path d="M 63.62179 279.124405 
L 71.778939 274.204558 
L 76.673229 270.928126 
L 81.567518 267.393055 
L 86.461808 263.524896 
L 91.356098 259.315105 
L 96.250387 254.648979 
L 99.513247 251.317226 
L 102.776107 247.724845 
L 107.670396 241.903036 
L 112.564686 235.530954 
L 117.458976 228.503275 
L 122.353265 221.00177 
L 133.773274 203.280957 
L 137.036134 198.954148 
L 138.667564 197.079213 
L 140.298994 195.456347 
L 141.930424 194.137529 
L 143.561854 193.150948 
L 145.193284 192.552791 
L 146.824713 192.410182 
L 148.456143 192.786559 
L 150.087573 193.634548 
L 151.719003 195.100285 
L 153.350433 197.129639 
L 154.981863 199.783965 
L 156.613293 203.009359 
L 158.244723 206.785794 
L 159.876152 211.136383 
L 161.507582 215.885249 
L 164.770442 226.415482 
L 172.927592 253.39941 
L 176.190451 262.947166 
L 177.821881 267.27454 
L 179.453311 271.231691 
L 182.716171 278.247489 
L 184.347601 281.195571 
L 185.979031 283.908999 
L 187.61046 286.361088 
L 189.24189 288.519684 
L 190.87332 290.453022 
L 192.50475 292.134382 
L 194.13618 293.608201 
L 195.76761 294.861034 
L 199.03047 296.870437 
L 202.293329 298.288899 
L 205.556189 299.219913 
L 208.819049 299.732945 
L 210.450479 299.931641 
L 213.713338 300.005626 
L 216.976198 299.91187 
L 223.501918 299.175943 
L 228.396207 298.334614 
L 233.290497 297.260757 
L 239.816216 295.653365 
L 259.393375 290.029932 
L 319.75628 272.256263 
L 324.65057 270.906834 
L 367.067747 259.336278 
L 388.276335 253.832371 
L 388.276335 253.832371 
" clip-path="url(#p7bd5017fcb)" style="fill: none; stroke: #1f77b4; stroke-width: 1.5; stroke-linecap: square"/>
    <g clip-path="url(#p7bd5017fcb)">
     <use xlink:href="#m56332618da" x="63.62179" y="279.124405" style="fill: #1f77b4; stroke: #1f77b4"/>
     <use xlink:href="#m56332618da" x="65.25322" y="278.16196" style="fill: #1f77b4; stroke: #1f77b4"/>
     <use xlink:href="#m56332618da" x="66.88465" y="277.198956" style="fill: #1f77b4; stroke: #1f77b4"/>
     <use xlink:href="#m56332618da" x="68.516079" y="276.240808" style="fill: #1f77b4; stroke: #1f77b4"/>
     <use xlink:href="#m56332618da" x="70.147509" y="275.198994" style="fill: #1f77b4; stroke: #1f77b4"/>
     <use xlink:href="#m56332618da" x="71.778939" y="274.204558" style="fill: #1f77b4; stroke: #1f77b4"/>
     <use xlink:href="#m56332618da" x="73.410369" y="273.134969" style="fill: #1f77b4; stroke: #1f77b4"/>
     <use xlink:href="#m56332618da" x="75.041799" y="272.037341" style="fill: #1f77b4; stroke: #1f77b4"/>
     <use xlink:href="#m56332618da" x="76.673229" y="270.928126" style="fill: #1f77b4; stroke: #1f77b4"/>
     <use xlink:href="#m56332618da" x="78.304659" y="269.782508" style="fill: #1f77b4; stroke: #1f77b4"/>
     <use xlink:href="#m56332618da" x="79.936089" y="268.589853" style="fill: #1f77b4; stroke: #1f77b4"/>
     <use xlink:href="#m56332618da" x="81.567518" y="267.393055" style="fill: #1f77b4; stroke: #1f77b4"/>
     <use xlink:href="#m56332618da" x="83.198948" y="266.132423" style="fill: #1f77b4; stroke: #1f77b4"/>
     <use xlink:href="#m56332618da" x="84.830378" y="264.856448" style="fill: #1f77b4; stroke: #1f77b4"/>
     <use xlink:href="#m56332618da" x="86.461808" y="263.524896" style="fill: #1f77b4; stroke: #1f77b4"/>
     <use xlink:href="#m56332618da" x="88.093238" y="262.161003" style="fill: #1f77b4; stroke: #1f77b4"/>
     <use xlink:href="#m56332618da" x="89.724668" y="260.761747" style="fill: #1f77b4; stroke: #1f77b4"/>
     <use xlink:href="#m56332618da" x="91.356098" y="259.315105" style="fill: #1f77b4; stroke: #1f77b4"/>
     <use xlink:href="#m56332618da" x="92.987528" y="257.803975" style="fill: #1f77b4; stroke: #1f77b4"/>
     <use xlink:href="#m56332618da" x="94.618957" y="256.261216" style="fill: #1f77b4; stroke: #1f77b4"/>
     <use xlink:href="#m56332618da" x="96.250387" y="254.648979" style="fill: #1f77b4; stroke: #1f77b4"/>
     <use xlink:href="#m56332618da" x="97.881817" y="253.015372" style="fill: #1f77b4; stroke: #1f77b4"/>
     <use xlink:href="#m56332618da" x="99.513247" y="251.317226" style="fill: #1f77b4; stroke: #1f77b4"/>
     <use xlink:href="#m56332618da" x="101.144677" y="249.551738" style="fill: #1f77b4; stroke: #1f77b4"/>
     <use xlink:href="#m56332618da" x="102.776107" y="247.724845" style="fill: #1f77b4; stroke: #1f77b4"/>
     <use xlink:href="#m56332618da" x="104.407537" y="245.835624" style="fill: #1f77b4; stroke: #1f77b4"/>
     <use xlink:href="#m56332618da" x="106.038967" y="243.908339" style="fill: #1f77b4; stroke: #1f77b4"/>
     <use xlink:href="#m56332618da" x="107.670396" y="241.903036" style="fill: #1f77b4; stroke: #1f77b4"/>
     <use xlink:href="#m56332618da" x="109.301826" y="239.837197" style="fill: #1f77b4; stroke: #1f77b4"/>
     <use xlink:href="#m56332618da" x="110.933256" y="237.700479" style="fill: #1f77b4; stroke: #1f77b4"/>
     <use xlink:href="#m56332618da" x="112.564686" y="235.530954" style="fill: #1f77b4; stroke: #1f77b4"/>
     <use xlink:href="#m56332618da" x="114.196116" y="233.23536" style="fill: #1f77b4; stroke: #1f77b4"/>
     <use xlink:href="#m56332618da" x="115.827546" y="230.89081" style="fill: #1f77b4; stroke: #1f77b4"/>
     <use xlink:href="#m56332618da" x="117.458976" y="228.503275" style="fill: #1f77b4; stroke: #1f77b4"/>
     <use xlink:href="#m56332618da" x="119.090406" y="226.044168" style="fill: #1f77b4; stroke: #1f77b4"/>
     <use xlink:href="#m56332618da" x="120.721835" y="223.571416" style="fill: #1f77b4; stroke: #1f77b4"/>
     <use xlink:href="#m56332618da" x="122.353265" y="221.00177" style="fill: #1f77b4; stroke: #1f77b4"/>
     <use xlink:href="#m56332618da" x="123.984695" y="218.455817" style="fill: #1f77b4; stroke: #1f77b4"/>
     <use xlink:href="#m56332618da" x="125.616125" y="215.849696" style="fill: #1f77b4; stroke: #1f77b4"/>
     <use xlink:href="#m56332618da" x="127.247555" y="213.270736" style="fill: #1f77b4; stroke: #1f77b4"/>
     <use xlink:href="#m56332618da" x="128.878985" y="210.67159" style="fill: #1f77b4; stroke: #1f77b4"/>
     <use xlink:href="#m56332618da" x="130.510415" y="208.126131" style="fill: #1f77b4; stroke: #1f77b4"/>
     <use xlink:href="#m56332618da" x="132.141845" y="205.660439" style="fill: #1f77b4; stroke: #1f77b4"/>
     <use xlink:href="#m56332618da" x="133.773274" y="203.280957" style="fill: #1f77b4; stroke: #1f77b4"/>
     <use xlink:href="#m56332618da" x="135.404704" y="201.029616" style="fill: #1f77b4; stroke: #1f77b4"/>
     <use xlink:href="#m56332618da" x="137.036134" y="198.954148" style="fill: #1f77b4; stroke: #1f77b4"/>
     <use xlink:href="#m56332618da" x="138.667564" y="197.079213" style="fill: #1f77b4; stroke: #1f77b4"/>
     <use xlink:href="#m56332618da" x="140.298994" y="195.456347" style="fill: #1f77b4; stroke: #1f77b4"/>
     <use xlink:href="#m56332618da" x="141.930424" y="194.137529" style="fill: #1f77b4; stroke: #1f77b4"/>
     <use xlink:href="#m56332618da" x="143.561854" y="193.150948" style="fill: #1f77b4; stroke: #1f77b4"/>
     <use xlink:href="#m56332618da" x="145.193284" y="192.552791" style="fill: #1f77b4; stroke: #1f77b4"/>
     <use xlink:href="#m56332618da" x="146.824713" y="192.410182" style="fill: #1f77b4; stroke: #1f77b4"/>
     <use xlink:href="#m56332618da" x="148.456143" y="192.786559" style="fill: #1f77b4; stroke: #1f77b4"/>
     <use xlink:href="#m56332618da" x="150.087573" y="193.634548" style="fill: #1f77b4; stroke: #1f77b4"/>
     <use xlink:href="#m56332618da" x="151.719003" y="195.100285" style="fill: #1f77b4; stroke: #1f77b4"/>
     <use xlink:href="#m56332618da" x="153.350433" y="197.129639" style="fill: #1f77b4; stroke: #1f77b4"/>
     <use xlink:href="#m56332618da" x="154.981863" y="199.783965" style="fill: #1f77b4; stroke: #1f77b4"/>
     <use xlink:href="#m56332618da" x="156.613293" y="203.009359" style="fill: #1f77b4; stroke: #1f77b4"/>
     <use xlink:href="#m56332618da" x="158.244723" y="206.785794" style="fill: #1f77b4; stroke: #1f77b4"/>
     <use xlink:href="#m56332618da" x="159.876152" y="211.136383" style="fill: #1f77b4; stroke: #1f77b4"/>
     <use xlink:href="#m56332618da" x="161.507582" y="215.885249" style="fill: #1f77b4; stroke: #1f77b4"/>
     <use xlink:href="#m56332618da" x="163.139012" y="221.038498" style="fill: #1f77b4; stroke: #1f77b4"/>
     <use xlink:href="#m56332618da" x="164.770442" y="226.415482" style="fill: #1f77b4; stroke: #1f77b4"/>
     <use xlink:href="#m56332618da" x="166.401872" y="231.885929" style="fill: #1f77b4; stroke: #1f77b4"/>
     <use xlink:href="#m56332618da" x="168.033302" y="237.47841" style="fill: #1f77b4; stroke: #1f77b4"/>
     <use xlink:href="#m56332618da" x="169.664732" y="242.944771" style="fill: #1f77b4; stroke: #1f77b4"/>
     <use xlink:href="#m56332618da" x="171.296162" y="248.266306" style="fill: #1f77b4; stroke: #1f77b4"/>
     <use xlink:href="#m56332618da" x="172.927592" y="253.39941" style="fill: #1f77b4; stroke: #1f77b4"/>
     <use xlink:href="#m56332618da" x="174.559021" y="258.293995" style="fill: #1f77b4; stroke: #1f77b4"/>
     <use xlink:href="#m56332618da" x="176.190451" y="262.947166" style="fill: #1f77b4; stroke: #1f77b4"/>
     <use xlink:href="#m56332618da" x="177.821881" y="267.27454" style="fill: #1f77b4; stroke: #1f77b4"/>
     <use xlink:href="#m56332618da" x="179.453311" y="271.231691" style="fill: #1f77b4; stroke: #1f77b4"/>
     <use xlink:href="#m56332618da" x="181.084741" y="274.874892" style="fill: #1f77b4; stroke: #1f77b4"/>
     <use xlink:href="#m56332618da" x="182.716171" y="278.247489" style="fill: #1f77b4; stroke: #1f77b4"/>
     <use xlink:href="#m56332618da" x="184.347601" y="281.195571" style="fill: #1f77b4; stroke: #1f77b4"/>
     <use xlink:href="#m56332618da" x="185.979031" y="283.908999" style="fill: #1f77b4; stroke: #1f77b4"/>
     <use xlink:href="#m56332618da" x="187.61046" y="286.361088" style="fill: #1f77b4; stroke: #1f77b4"/>
     <use xlink:href="#m56332618da" x="189.24189" y="288.519684" style="fill: #1f77b4; stroke: #1f77b4"/>
     <use xlink:href="#m56332618da" x="190.87332" y="290.453022" style="fill: #1f77b4; stroke: #1f77b4"/>
     <use xlink:href="#m56332618da" x="192.50475" y="292.134382" style="fill: #1f77b4; stroke: #1f77b4"/>
     <use xlink:href="#m56332618da" x="194.13618" y="293.608201" style="fill: #1f77b4; stroke: #1f77b4"/>
     <use xlink:href="#m56332618da" x="195.76761" y="294.861034" style="fill: #1f77b4; stroke: #1f77b4"/>
     <use xlink:href="#m56332618da" x="197.39904" y="295.930565" style="fill: #1f77b4; stroke: #1f77b4"/>
     <use xlink:href="#m56332618da" x="199.03047" y="296.870437" style="fill: #1f77b4; stroke: #1f77b4"/>
     <use xlink:href="#m56332618da" x="200.661899" y="297.612077" style="fill: #1f77b4; stroke: #1f77b4"/>
     <use xlink:href="#m56332618da" x="202.293329" y="298.288899" style="fill: #1f77b4; stroke: #1f77b4"/>
     <use xlink:href="#m56332618da" x="203.924759" y="298.810639" style="fill: #1f77b4; stroke: #1f77b4"/>
     <use xlink:href="#m56332618da" x="205.556189" y="299.219913" style="fill: #1f77b4; stroke: #1f77b4"/>
     <use xlink:href="#m56332618da" x="207.187619" y="299.53238" style="fill: #1f77b4; stroke: #1f77b4"/>
     <use xlink:href="#m56332618da" x="208.819049" y="299.732945" style="fill: #1f77b4; stroke: #1f77b4"/>
     <use xlink:href="#m56332618da" x="210.450479" y="299.931641" style="fill: #1f77b4; stroke: #1f77b4"/>
     <use xlink:href="#m56332618da" x="212.081909" y="300.007772" style="fill: #1f77b4; stroke: #1f77b4"/>
     <use xlink:href="#m56332618da" x="213.713338" y="300.005626" style="fill: #1f77b4; stroke: #1f77b4"/>
     <use xlink:href="#m56332618da" x="215.344768" y="299.989707" style="fill: #1f77b4; stroke: #1f77b4"/>
     <use xlink:href="#m56332618da" x="216.976198" y="299.91187" style="fill: #1f77b4; stroke: #1f77b4"/>
     <use xlink:href="#m56332618da" x="218.607628" y="299.753151" style="fill: #1f77b4; stroke: #1f77b4"/>
     <use xlink:href="#m56332618da" x="220.239058" y="299.610589" style="fill: #1f77b4; stroke: #1f77b4"/>
     <use xlink:href="#m56332618da" x="221.870488" y="299.412953" style="fill: #1f77b4; stroke: #1f77b4"/>
     <use xlink:href="#m56332618da" x="223.501918" y="299.175943" style="fill: #1f77b4; stroke: #1f77b4"/>
     <use xlink:href="#m56332618da" x="225.133348" y="298.929647" style="fill: #1f77b4; stroke: #1f77b4"/>
     <use xlink:href="#m56332618da" x="226.764777" y="298.663643" style="fill: #1f77b4; stroke: #1f77b4"/>
     <use xlink:href="#m56332618da" x="228.396207" y="298.334614" style="fill: #1f77b4; stroke: #1f77b4"/>
     <use xlink:href="#m56332618da" x="230.027637" y="298.009684" style="fill: #1f77b4; stroke: #1f77b4"/>
     <use xlink:href="#m56332618da" x="231.659067" y="297.642459" style="fill: #1f77b4; stroke: #1f77b4"/>
     <use xlink:href="#m56332618da" x="233.290497" y="297.260757" style="fill: #1f77b4; stroke: #1f77b4"/>
     <use xlink:href="#m56332618da" x="234.921927" y="296.872439" style="fill: #1f77b4; stroke: #1f77b4"/>
     <use xlink:href="#m56332618da" x="236.553357" y="296.4716" style="fill: #1f77b4; stroke: #1f77b4"/>
     <use xlink:href="#m56332618da" x="238.184787" y="296.061177" style="fill: #1f77b4; stroke: #1f77b4"/>
     <use xlink:href="#m56332618da" x="239.816216" y="295.653365" style="fill: #1f77b4; stroke: #1f77b4"/>
     <use xlink:href="#m56332618da" x="241.447646" y="295.19396" style="fill: #1f77b4; stroke: #1f77b4"/>
     <use xlink:href="#m56332618da" x="243.079076" y="294.730616" style="fill: #1f77b4; stroke: #1f77b4"/>
     <use xlink:href="#m56332618da" x="244.710506" y="294.298173" style="fill: #1f77b4; stroke: #1f77b4"/>
     <use xlink:href="#m56332618da" x="246.341936" y="293.813586" style="fill: #1f77b4; stroke: #1f77b4"/>
     <use xlink:href="#m56332618da" x="247.973366" y="293.371103" style="fill: #1f77b4; stroke: #1f77b4"/>
     <use xlink:href="#m56332618da" x="249.604796" y="292.889394" style="fill: #1f77b4; stroke: #1f77b4"/>
     <use xlink:href="#m56332618da" x="251.236226" y="292.433466" style="fill: #1f77b4; stroke: #1f77b4"/>
     <use xlink:href="#m56332618da" x="252.867655" y="291.955254" style="fill: #1f77b4; stroke: #1f77b4"/>
     <use xlink:href="#m56332618da" x="254.499085" y="291.515528" style="fill: #1f77b4; stroke: #1f77b4"/>
     <use xlink:href="#m56332618da" x="256.130515" y="290.999732" style="fill: #1f77b4; stroke: #1f77b4"/>
     <use xlink:href="#m56332618da" x="257.761945" y="290.49676" style="fill: #1f77b4; stroke: #1f77b4"/>
     <use xlink:href="#m56332618da" x="259.393375" y="290.029932" style="fill: #1f77b4; stroke: #1f77b4"/>
     <use xlink:href="#m56332618da" x="261.024805" y="289.547646" style="fill: #1f77b4; stroke: #1f77b4"/>
     <use xlink:href="#m56332618da" x="262.656235" y="289.062671" style="fill: #1f77b4; stroke: #1f77b4"/>
     <use xlink:href="#m56332618da" x="264.287665" y="288.556048" style="fill: #1f77b4; stroke: #1f77b4"/>
     <use xlink:href="#m56332618da" x="265.919094" y="288.066135" style="fill: #1f77b4; stroke: #1f77b4"/>
     <use xlink:href="#m56332618da" x="267.550524" y="287.586032" style="fill: #1f77b4; stroke: #1f77b4"/>
     <use xlink:href="#m56332618da" x="269.181954" y="287.071238" style="fill: #1f77b4; stroke: #1f77b4"/>
     <use xlink:href="#m56332618da" x="270.813384" y="286.617896" style="fill: #1f77b4; stroke: #1f77b4"/>
     <use xlink:href="#m56332618da" x="272.444814" y="286.11612" style="fill: #1f77b4; stroke: #1f77b4"/>
     <use xlink:href="#m56332618da" x="274.076244" y="285.612035" style="fill: #1f77b4; stroke: #1f77b4"/>
     <use xlink:href="#m56332618da" x="275.707674" y="285.120128" style="fill: #1f77b4; stroke: #1f77b4"/>
     <use xlink:href="#m56332618da" x="277.339104" y="284.631239" style="fill: #1f77b4; stroke: #1f77b4"/>
     <use xlink:href="#m56332618da" x="278.970533" y="284.177626" style="fill: #1f77b4; stroke: #1f77b4"/>
     <use xlink:href="#m56332618da" x="280.601963" y="283.660177" style="fill: #1f77b4; stroke: #1f77b4"/>
     <use xlink:href="#m56332618da" x="282.233393" y="283.163589" style="fill: #1f77b4; stroke: #1f77b4"/>
     <use xlink:href="#m56332618da" x="283.864823" y="282.701995" style="fill: #1f77b4; stroke: #1f77b4"/>
     <use xlink:href="#m56332618da" x="285.496253" y="282.242016" style="fill: #1f77b4; stroke: #1f77b4"/>
     <use xlink:href="#m56332618da" x="287.127683" y="281.716197" style="fill: #1f77b4; stroke: #1f77b4"/>
     <use xlink:href="#m56332618da" x="288.759113" y="281.246419" style="fill: #1f77b4; stroke: #1f77b4"/>
     <use xlink:href="#m56332618da" x="290.390543" y="280.76725" style="fill: #1f77b4; stroke: #1f77b4"/>
     <use xlink:href="#m56332618da" x="292.021973" y="280.309807" style="fill: #1f77b4; stroke: #1f77b4"/>
     <use xlink:href="#m56332618da" x="293.653402" y="279.801257" style="fill: #1f77b4; stroke: #1f77b4"/>
     <use xlink:href="#m56332618da" x="295.284832" y="279.332754" style="fill: #1f77b4; stroke: #1f77b4"/>
     <use xlink:href="#m56332618da" x="296.916262" y="278.844783" style="fill: #1f77b4; stroke: #1f77b4"/>
     <use xlink:href="#m56332618da" x="298.547692" y="278.39979" style="fill: #1f77b4; stroke: #1f77b4"/>
     <use xlink:href="#m56332618da" x="300.179122" y="277.899565" style="fill: #1f77b4; stroke: #1f77b4"/>
     <use xlink:href="#m56332618da" x="301.810552" y="277.424975" style="fill: #1f77b4; stroke: #1f77b4"/>
     <use xlink:href="#m56332618da" x="303.441982" y="276.961462" style="fill: #1f77b4; stroke: #1f77b4"/>
     <use xlink:href="#m56332618da" x="305.073412" y="276.466975" style="fill: #1f77b4; stroke: #1f77b4"/>
     <use xlink:href="#m56332618da" x="306.704841" y="276.020923" style="fill: #1f77b4; stroke: #1f77b4"/>
     <use xlink:href="#m56332618da" x="308.336271" y="275.538251" style="fill: #1f77b4; stroke: #1f77b4"/>
     <use xlink:href="#m56332618da" x="309.967701" y="275.057634" style="fill: #1f77b4; stroke: #1f77b4"/>
     <use xlink:href="#m56332618da" x="311.599131" y="274.593796" style="fill: #1f77b4; stroke: #1f77b4"/>
     <use xlink:href="#m56332618da" x="313.230561" y="274.145583" style="fill: #1f77b4; stroke: #1f77b4"/>
     <use xlink:href="#m56332618da" x="314.861991" y="273.666449" style="fill: #1f77b4; stroke: #1f77b4"/>
     <use xlink:href="#m56332618da" x="316.493421" y="273.202707" style="fill: #1f77b4; stroke: #1f77b4"/>
     <use xlink:href="#m56332618da" x="318.124851" y="272.74161" style="fill: #1f77b4; stroke: #1f77b4"/>
     <use xlink:href="#m56332618da" x="319.75628" y="272.256263" style="fill: #1f77b4; stroke: #1f77b4"/>
     <use xlink:href="#m56332618da" x="321.38771" y="271.840749" style="fill: #1f77b4; stroke: #1f77b4"/>
     <use xlink:href="#m56332618da" x="323.01914" y="271.370476" style="fill: #1f77b4; stroke: #1f77b4"/>
     <use xlink:href="#m56332618da" x="324.65057" y="270.906834" style="fill: #1f77b4; stroke: #1f77b4"/>
     <use xlink:href="#m56332618da" x="326.282" y="270.458224" style="fill: #1f77b4; stroke: #1f77b4"/>
     <use xlink:href="#m56332618da" x="327.91343" y="269.975053" style="fill: #1f77b4; stroke: #1f77b4"/>
     <use xlink:href="#m56332618da" x="329.54486" y="269.542635" style="fill: #1f77b4; stroke: #1f77b4"/>
     <use xlink:href="#m56332618da" x="331.17629" y="269.080029" style="fill: #1f77b4; stroke: #1f77b4"/>
     <use xlink:href="#m56332618da" x="332.807719" y="268.628652" style="fill: #1f77b4; stroke: #1f77b4"/>
     <use xlink:href="#m56332618da" x="334.439149" y="268.206418" style="fill: #1f77b4; stroke: #1f77b4"/>
     <use xlink:href="#m56332618da" x="336.070579" y="267.724216" style="fill: #1f77b4; stroke: #1f77b4"/>
     <use xlink:href="#m56332618da" x="337.702009" y="267.268507" style="fill: #1f77b4; stroke: #1f77b4"/>
     <use xlink:href="#m56332618da" x="339.333439" y="266.813411" style="fill: #1f77b4; stroke: #1f77b4"/>
     <use xlink:href="#m56332618da" x="340.964869" y="266.37749" style="fill: #1f77b4; stroke: #1f77b4"/>
     <use xlink:href="#m56332618da" x="342.596299" y="265.926193" style="fill: #1f77b4; stroke: #1f77b4"/>
     <use xlink:href="#m56332618da" x="344.227729" y="265.477283" style="fill: #1f77b4; stroke: #1f77b4"/>
     <use xlink:href="#m56332618da" x="345.859158" y="265.008601" style="fill: #1f77b4; stroke: #1f77b4"/>
     <use xlink:href="#m56332618da" x="347.490588" y="264.557631" style="fill: #1f77b4; stroke: #1f77b4"/>
     <use xlink:href="#m56332618da" x="349.122018" y="264.156134" style="fill: #1f77b4; stroke: #1f77b4"/>
     <use xlink:href="#m56332618da" x="350.753448" y="263.696669" style="fill: #1f77b4; stroke: #1f77b4"/>
     <use xlink:href="#m56332618da" x="352.384878" y="263.264564" style="fill: #1f77b4; stroke: #1f77b4"/>
     <use xlink:href="#m56332618da" x="354.016308" y="262.812102" style="fill: #1f77b4; stroke: #1f77b4"/>
     <use xlink:href="#m56332618da" x="355.647738" y="262.379915" style="fill: #1f77b4; stroke: #1f77b4"/>
     <use xlink:href="#m56332618da" x="357.279168" y="261.943337" style="fill: #1f77b4; stroke: #1f77b4"/>
     <use xlink:href="#m56332618da" x="358.910597" y="261.515763" style="fill: #1f77b4; stroke: #1f77b4"/>
     <use xlink:href="#m56332618da" x="360.542027" y="261.088969" style="fill: #1f77b4; stroke: #1f77b4"/>
     <use xlink:href="#m56332618da" x="362.173457" y="260.629517" style="fill: #1f77b4; stroke: #1f77b4"/>
     <use xlink:href="#m56332618da" x="363.804887" y="260.157493" style="fill: #1f77b4; stroke: #1f77b4"/>
     <use xlink:href="#m56332618da" x="365.436317" y="259.762317" style="fill: #1f77b4; stroke: #1f77b4"/>
     <use xlink:href="#m56332618da" x="367.067747" y="259.336278" style="fill: #1f77b4; stroke: #1f77b4"/>
     <use xlink:href="#m56332618da" x="368.699177" y="258.915669" style="fill: #1f77b4; stroke: #1f77b4"/>
     <use xlink:href="#m56332618da" x="370.330607" y="258.49206" style="fill: #1f77b4; stroke: #1f77b4"/>
     <use xlink:href="#m56332618da" x="371.962036" y="258.032262" style="fill: #1f77b4; stroke: #1f77b4"/>
     <use xlink:href="#m56332618da" x="373.593466" y="257.620766" style="fill: #1f77b4; stroke: #1f77b4"/>
     <use xlink:href="#m56332618da" x="375.224896" y="257.187404" style="fill: #1f77b4; stroke: #1f77b4"/>
     <use xlink:href="#m56332618da" x="376.856326" y="256.782958" style="fill: #1f77b4; stroke: #1f77b4"/>
     <use xlink:href="#m56332618da" x="378.487756" y="256.343322" style="fill: #1f77b4; stroke: #1f77b4"/>
     <use xlink:href="#m56332618da" x="380.119186" y="255.937496" style="fill: #1f77b4; stroke: #1f77b4"/>
     <use xlink:href="#m56332618da" x="381.750616" y="255.506431" style="fill: #1f77b4; stroke: #1f77b4"/>
     <use xlink:href="#m56332618da" x="383.382046" y="255.069899" style="fill: #1f77b4; stroke: #1f77b4"/>
     <use xlink:href="#m56332618da" x="385.013475" y="254.642845" style="fill: #1f77b4; stroke: #1f77b4"/>
     <use xlink:href="#m56332618da" x="386.644905" y="254.234936" style="fill: #1f77b4; stroke: #1f77b4"/>
     <use xlink:href="#m56332618da" x="388.276335" y="253.832371" style="fill: #1f77b4; stroke: #1f77b4"/>
    </g>
   </g>
   <g id="line2d_23">
    <path d="M 63.62179 270.46539 
L 69.796401 267.128869 
L 75.646032 263.715715 
L 81.170684 260.232271 
L 86.370357 256.689822 
L 91.245049 253.105534 
L 96.119742 249.235733 
L 100.669456 245.339339 
L 105.219169 241.144805 
L 109.768882 236.635647 
L 114.318596 231.809057 
L 119.193289 226.312808 
L 126.017859 218.240717 
L 131.86749 211.414306 
L 135.117285 207.958469 
L 137.392142 205.825113 
L 139.342019 204.264773 
L 140.966917 203.205745 
L 142.591814 202.412464 
L 143.891732 202.00021 
L 145.191651 201.811954 
L 146.491569 201.871973 
L 147.791487 202.203764 
L 149.091405 202.829204 
L 150.391323 203.767597 
L 151.691241 205.034652 
L 152.991159 206.641452 
L 154.291077 208.593467 
L 155.915975 211.51677 
L 157.540872 214.959781 
L 159.49075 219.72577 
L 161.440627 225.09259 
L 164.040463 232.961236 
L 168.590176 247.672983 
L 172.489931 259.990365 
L 175.089767 267.533415 
L 177.364624 273.520471 
L 179.63948 278.865764 
L 181.589357 282.918649 
L 183.539234 286.488374 
L 185.489112 289.593513 
L 187.438989 292.261668 
L 189.388866 294.525955 
L 191.338743 296.42221 
L 193.28862 297.98689 
L 195.238497 299.255599 
L 197.188375 300.2621 
L 199.138252 301.037739 
L 201.413108 301.688901 
L 203.687965 302.105326 
L 206.287801 302.33923 
L 209.212617 302.347744 
L 212.462412 302.103756 
L 216.037187 301.595761 
L 220.261921 300.753693 
L 225.136614 299.551633 
L 231.636204 297.702369 
L 241.06061 294.757627 
L 281.033092 282.018622 
L 296.30713 277.494722 
L 312.231126 273.010208 
L 329.130062 268.482814 
L 347.328915 263.838702 
L 367.152666 259.014414 
L 388.276335 254.10502 
L 388.276335 254.10502 
" clip-path="url(#p7bd5017fcb)" style="fill: none; stroke: #d62728; stroke-width: 1.5; stroke-linecap: square"/>
   </g>
   <g id="patch_9">
    <path d="M 47.389063 307.872 
L 47.389063 186.912 
" style="fill: none; stroke: #000000; stroke-width: 0.8; stroke-linejoin: miter; stroke-linecap: square"/>
   </g>
   <g id="patch_10">
    <path d="M 404.509063 307.872 
L 404.509063 186.912 
" style="fill: none; stroke: #000000; stroke-width: 0.8; stroke-linejoin: miter; stroke-linecap: square"/>
   </g>
   <g id="patch_11">
    <path d="M 47.389062 307.872 
L 404.509062 307.872 
" style="fill: none; stroke: #000000; stroke-width: 0.8; stroke-linejoin: miter; stroke-linecap: square"/>
   </g>
   <g id="patch_12">
    <path d="M 47.389062 186.912 
L 404.509062 186.912 
" style="fill: none; stroke: #000000; stroke-width: 0.8; stroke-linejoin: miter; stroke-linecap: square"/>
   </g>
  </g>
  <g id="text_19">
   <!-- S21 resonator spectroscopy -->
   <g transform="translate(136.404688 16.318125) scale(0.12 -0.12)">
    <defs>
     <path id="DejaVuSans-73" d="M 2834 3397 
L 2834 2853 
Q 2591 2978 2328 3040 
Q 2066 3103 1784 3103 
Q 1356 3103 1142 2972 
Q 928 2841 928 2578 
Q 928 2378 1081 2264 
Q 1234 2150 1697 2047 
L 1894 2003 
Q 2506 1872 2764 1633 
Q 3022 1394 3022 966 
Q 3022 478 2636 193 
Q 2250 -91 1575 -91 
Q 1294 -91 989 -36 
Q 684 19 347 128 
L 347 722 
Q 666 556 975 473 
Q 1284 391 1588 391 
Q 1994 391 2212 530 
Q 2431 669 2431 922 
Q 2431 1156 2273 1281 
Q 2116 1406 1581 1522 
L 1381 1569 
Q 847 1681 609 1914 
Q 372 2147 372 2553 
Q 372 3047 722 3315 
Q 1072 3584 1716 3584 
Q 2034 3584 2315 3537 
Q 2597 3491 2834 3397 
z
" transform="scale(0.015625)"/>
     <path id="DejaVuSans-6f" d="M 1959 3097 
Q 1497 3097 1228 2736 
Q 959 2375 959 1747 
Q 959 1119 1226 758 
Q 1494 397 1959 397 
Q 2419 397 2687 759 
Q 2956 1122 2956 1747 
Q 2956 2369 2687 2733 
Q 2419 3097 1959 3097 
z
M 1959 3584 
Q 2709 3584 3137 3096 
Q 3566 2609 3566 1747 
Q 3566 888 3137 398 
Q 2709 -91 1959 -91 
Q 1206 -91 779 398 
Q 353 888 353 1747 
Q 353 2609 779 3096 
Q 1206 3584 1959 3584 
z
" transform="scale(0.015625)"/>
     <path id="DejaVuSans-74" d="M 1172 4494 
L 1172 3500 
L 2356 3500 
L 2356 3053 
L 1172 3053 
L 1172 1153 
Q 1172 725 1289 603 
Q 1406 481 1766 481 
L 2356 481 
L 2356 0 
L 1766 0 
Q 1100 0 847 248 
Q 594 497 594 1153 
L 594 3053 
L 172 3053 
L 172 3500 
L 594 3500 
L 594 4494 
L 1172 4494 
z
" transform="scale(0.015625)"/>
     <path id="DejaVuSans-70" d="M 1159 525 
L 1159 -1331 
L 581 -1331 
L 581 3500 
L 1159 3500 
L 1159 2969 
Q 1341 3281 1617 3432 
Q 1894 3584 2278 3584 
Q 2916 3584 3314 3078 
Q 3713 2572 3713 1747 
Q 3713 922 3314 415 
Q 2916 -91 2278 -91 
Q 1894 -91 1617 61 
Q 1341 213 1159 525 
z
M 3116 1747 
Q 3116 2381 2855 2742 
Q 2594 3103 2138 3103 
Q 1681 3103 1420 2742 
Q 1159 2381 1159 1747 
Q 1159 1113 1420 752 
Q 1681 391 2138 391 
Q 2594 391 2855 752 
Q 3116 1113 3116 1747 
z
" transform="scale(0.015625)"/>
    </defs>
    <use xlink:href="#DejaVuSans-53"/>
    <use xlink:href="#DejaVuSans-32" x="63.476562"/>
    <use xlink:href="#DejaVuSans-31" x="127.099609"/>
    <use xlink:href="#DejaVuSans-20" x="190.722656"/>
    <use xlink:href="#DejaVuSans-72" x="222.509766"/>
    <use xlink:href="#DejaVuSans-65" x="261.373047"/>
    <use xlink:href="#DejaVuSans-73" x="322.896484"/>
    <use xlink:href="#DejaVuSans-6f" x="374.996094"/>
    <use xlink:href="#DejaVuSans-6e" x="436.177734"/>
    <use xlink:href="#DejaVuSans-61" x="499.556641"/>
    <use xlink:href="#DejaVuSans-74" x="560.835938"/>
    <use xlink:href="#DejaVuSans-6f" x="600.044922"/>
    <use xlink:href="#DejaVuSans-72" x="661.226562"/>
    <use xlink:href="#DejaVuSans-20" x="702.339844"/>
    <use xlink:href="#DejaVuSans-73" x="734.126953"/>
    <use xlink:href="#DejaVuSans-70" x="786.226562"/>
    <use xlink:href="#DejaVuSans-65" x="849.703125"/>
    <use xlink:href="#DejaVuSans-63" x="911.226562"/>
    <use xlink:href="#DejaVuSans-74" x="966.207031"/>
    <use xlink:href="#DejaVuSans-72" x="1005.416016"/>
    <use xlink:href="#DejaVuSans-6f" x="1044.279297"/>
    <use xlink:href="#DejaVuSans-73" x="1105.460938"/>
    <use xlink:href="#DejaVuSans-63" x="1157.560547"/>
    <use xlink:href="#DejaVuSans-6f" x="1212.541016"/>
    <use xlink:href="#DejaVuSans-70" x="1273.722656"/>
    <use xlink:href="#DejaVuSans-79" x="1337.199219"/>
   </g>
   <!-- tuid: 20240103-190040-260-7ab49d -->
   <g transform="translate(110.49125 29.7555) scale(0.12 -0.12)">
    <defs>
     <path id="DejaVuSans-69" d="M 603 3500 
L 1178 3500 
L 1178 0 
L 603 0 
L 603 3500 
z
M 603 4863 
L 1178 4863 
L 1178 4134 
L 603 4134 
L 603 4863 
z
" transform="scale(0.015625)"/>
     <path id="DejaVuSans-64" d="M 2906 2969 
L 2906 4863 
L 3481 4863 
L 3481 0 
L 2906 0 
L 2906 525 
Q 2725 213 2448 61 
Q 2172 -91 1784 -91 
Q 1150 -91 751 415 
Q 353 922 353 1747 
Q 353 2572 751 3078 
Q 1150 3584 1784 3584 
Q 2172 3584 2448 3432 
Q 2725 3281 2906 2969 
z
M 947 1747 
Q 947 1113 1208 752 
Q 1469 391 1925 391 
Q 2381 391 2643 752 
Q 2906 1113 2906 1747 
Q 2906 2381 2643 2742 
Q 2381 3103 1925 3103 
Q 1469 3103 1208 2742 
Q 947 2381 947 1747 
z
" transform="scale(0.015625)"/>
     <path id="DejaVuSans-39" d="M 703 97 
L 703 672 
Q 941 559 1184 500 
Q 1428 441 1663 441 
Q 2288 441 2617 861 
Q 2947 1281 2994 2138 
Q 2813 1869 2534 1725 
Q 2256 1581 1919 1581 
Q 1219 1581 811 2004 
Q 403 2428 403 3163 
Q 403 3881 828 4315 
Q 1253 4750 1959 4750 
Q 2769 4750 3195 4129 
Q 3622 3509 3622 2328 
Q 3622 1225 3098 567 
Q 2575 -91 1691 -91 
Q 1453 -91 1209 -44 
Q 966 3 703 97 
z
M 1959 2075 
Q 2384 2075 2632 2365 
Q 2881 2656 2881 3163 
Q 2881 3666 2632 3958 
Q 2384 4250 1959 4250 
Q 1534 4250 1286 3958 
Q 1038 3666 1038 3163 
Q 1038 2656 1286 2365 
Q 1534 2075 1959 2075 
z
" transform="scale(0.015625)"/>
     <path id="DejaVuSans-62" d="M 3116 1747 
Q 3116 2381 2855 2742 
Q 2594 3103 2138 3103 
Q 1681 3103 1420 2742 
Q 1159 2381 1159 1747 
Q 1159 1113 1420 752 
Q 1681 391 2138 391 
Q 2594 391 2855 752 
Q 3116 1113 3116 1747 
z
M 1159 2969 
Q 1341 3281 1617 3432 
Q 1894 3584 2278 3584 
Q 2916 3584 3314 3078 
Q 3713 2572 3713 1747 
Q 3713 922 3314 415 
Q 2916 -91 2278 -91 
Q 1894 -91 1617 61 
Q 1341 213 1159 525 
L 1159 0 
L 581 0 
L 581 4863 
L 1159 4863 
L 1159 2969 
z
" transform="scale(0.015625)"/>
    </defs>
    <use xlink:href="#DejaVuSans-74"/>
    <use xlink:href="#DejaVuSans-75" x="39.208984"/>
    <use xlink:href="#DejaVuSans-69" x="102.587891"/>
    <use xlink:href="#DejaVuSans-64" x="130.371094"/>
    <use xlink:href="#DejaVuSans-3a" x="193.847656"/>
    <use xlink:href="#DejaVuSans-20" x="227.539062"/>
    <use xlink:href="#DejaVuSans-32" x="259.326172"/>
    <use xlink:href="#DejaVuSans-30" x="322.949219"/>
    <use xlink:href="#DejaVuSans-32" x="386.572266"/>
    <use xlink:href="#DejaVuSans-34" x="450.195312"/>
    <use xlink:href="#DejaVuSans-30" x="513.818359"/>
    <use xlink:href="#DejaVuSans-31" x="577.441406"/>
    <use xlink:href="#DejaVuSans-30" x="641.064453"/>
    <use xlink:href="#DejaVuSans-33" x="704.6875"/>
    <use xlink:href="#DejaVuSans-2d" x="768.310547"/>
    <use xlink:href="#DejaVuSans-31" x="804.394531"/>
    <use xlink:href="#DejaVuSans-39" x="868.017578"/>
    <use xlink:href="#DejaVuSans-30" x="931.640625"/>
    <use xlink:href="#DejaVuSans-30" x="995.263672"/>
    <use xlink:href="#DejaVuSans-34" x="1058.886719"/>
    <use xlink:href="#DejaVuSans-30" x="1122.509766"/>
    <use xlink:href="#DejaVuSans-2d" x="1186.132812"/>
    <use xlink:href="#DejaVuSans-32" x="1222.216797"/>
    <use xlink:href="#DejaVuSans-36" x="1285.839844"/>
    <use xlink:href="#DejaVuSans-30" x="1349.462891"/>
    <use xlink:href="#DejaVuSans-2d" x="1413.085938"/>
    <use xlink:href="#DejaVuSans-37" x="1449.169922"/>
    <use xlink:href="#DejaVuSans-61" x="1512.792969"/>
    <use xlink:href="#DejaVuSans-62" x="1574.072266"/>
    <use xlink:href="#DejaVuSans-34" x="1637.548828"/>
    <use xlink:href="#DejaVuSans-39" x="1701.171875"/>
    <use xlink:href="#DejaVuSans-64" x="1764.794922"/>
   </g>
  </g>
 </g>
 <defs>
  <clipPath id="p283dcf76df">
   <rect x="47.389063" y="41.76" width="357.12" height="120.96"/>
  </clipPath>
  <clipPath id="p7bd5017fcb">
   <rect x="47.389063" y="186.912" width="357.12" height="120.96"/>
  </clipPath>
 </defs>
</svg>
