<?xml version="1.0" encoding="utf-8" standalone="no"?>
<!DOCTYPE svg PUBLIC "-//W3C//DTD SVG 1.1//EN"
  "http://www.w3.org/Graphics/SVG/1.1/DTD/svg11.dtd">
<svg xmlns:xlink="http://www.w3.org/1999/xlink" width="567.665063pt" height="345.42825pt" viewBox="0 0 567.665063 345.42825" xmlns="http://www.w3.org/2000/svg" version="1.1">
 <metadata>
  <rdf:RDF xmlns:dc="http://purl.org/dc/elements/1.1/" xmlns:cc="http://creativecommons.org/ns#" xmlns:rdf="http://www.w3.org/1999/02/22-rdf-syntax-ns#">
   <cc:Work>
    <dc:type rdf:resource="http://purl.org/dc/dcmitype/StillImage"/>
    <dc:date>2024-02-26T10:41:33.378760</dc:date>
    <dc:format>image/svg+xml</dc:format>
    <dc:creator>
     <cc:Agent>
      <dc:title>Matplotlib v3.8.2, https://matplotlib.org/</dc:title>
     </cc:Agent>
    </dc:creator>
   </cc:Work>
  </rdf:RDF>
 </metadata>
 <defs>
  <style type="text/css">*{stroke-linejoin: round; stroke-linecap: butt}</style>
 </defs>
 <g id="figure_1">
  <g id="patch_1">
   <path d="M 0 345.42825 
L 567.665063 345.42825 
L 567.665063 -0 
L 0 -0 
L 0 345.42825 
z
" style="fill: none; opacity: 0"/>
  </g>
  <g id="axes_1">
   <g id="patch_2">
    <path d="M 47.389063 307.872 
L 404.509063 307.872 
L 404.509063 41.76 
L 47.389063 41.76 
z
" style="fill: #ffffff"/>
   </g>
   <g id="matplotlib.axis_1">
    <g id="xtick_1">
     <g id="line2d_1">
      <defs>
       <path id="m824e8a02cd" d="M 0 0 
L 0 3.5 
" style="stroke: #000000; stroke-width: 0.8"/>
      </defs>
      <g>
       <use xlink:href="#m824e8a02cd" x="89.898587" y="307.872" style="stroke: #000000; stroke-width: 0.8"/>
      </g>
     </g>
     <g id="text_1">
      <!-- -3 -->
      <g transform="translate(84.913431 322.470438) scale(0.1 -0.1)">
       <defs>
        <path id="DejaVuSans-2d" d="M 313 2009 
L 1997 2009 
L 1997 1497 
L 313 1497 
L 313 2009 
z
" transform="scale(0.015625)"/>
        <path id="DejaVuSans-33" d="M 2597 2516 
Q 3050 2419 3304 2112 
Q 3559 1806 3559 1356 
Q 3559 666 3084 287 
Q 2609 -91 1734 -91 
Q 1441 -91 1130 -33 
Q 819 25 488 141 
L 488 750 
Q 750 597 1062 519 
Q 1375 441 1716 441 
Q 2309 441 2620 675 
Q 2931 909 2931 1356 
Q 2931 1769 2642 2001 
Q 2353 2234 1838 2234 
L 1294 2234 
L 1294 2753 
L 1863 2753 
Q 2328 2753 2575 2939 
Q 2822 3125 2822 3475 
Q 2822 3834 2567 4026 
Q 2313 4219 1838 4219 
Q 1578 4219 1281 4162 
Q 984 4106 628 3988 
L 628 4550 
Q 988 4650 1302 4700 
Q 1616 4750 1894 4750 
Q 2613 4750 3031 4423 
Q 3450 4097 3450 3541 
Q 3450 3153 3228 2886 
Q 3006 2619 2597 2516 
z
" transform="scale(0.015625)"/>
       </defs>
       <use xlink:href="#DejaVuSans-2d"/>
       <use xlink:href="#DejaVuSans-33" x="36.083984"/>
      </g>
     </g>
    </g>
    <g id="xtick_2">
     <g id="line2d_2">
      <g>
       <use xlink:href="#m824e8a02cd" x="135.243259" y="307.872" style="stroke: #000000; stroke-width: 0.8"/>
      </g>
     </g>
     <g id="text_2">
      <!-- -2 -->
      <g transform="translate(130.258103 322.470438) scale(0.1 -0.1)">
       <defs>
        <path id="DejaVuSans-32" d="M 1228 531 
L 3431 531 
L 3431 0 
L 469 0 
L 469 531 
Q 828 903 1448 1529 
Q 2069 2156 2228 2338 
Q 2531 2678 2651 2914 
Q 2772 3150 2772 3378 
Q 2772 3750 2511 3984 
Q 2250 4219 1831 4219 
Q 1534 4219 1204 4116 
Q 875 4013 500 3803 
L 500 4441 
Q 881 4594 1212 4672 
Q 1544 4750 1819 4750 
Q 2544 4750 2975 4387 
Q 3406 4025 3406 3419 
Q 3406 3131 3298 2873 
Q 3191 2616 2906 2266 
Q 2828 2175 2409 1742 
Q 1991 1309 1228 531 
z
" transform="scale(0.015625)"/>
       </defs>
       <use xlink:href="#DejaVuSans-2d"/>
       <use xlink:href="#DejaVuSans-32" x="36.083984"/>
      </g>
     </g>
    </g>
    <g id="xtick_3">
     <g id="line2d_3">
      <g>
       <use xlink:href="#m824e8a02cd" x="180.58793" y="307.872" style="stroke: #000000; stroke-width: 0.8"/>
      </g>
     </g>
     <g id="text_3">
      <!-- -1 -->
      <g transform="translate(175.602774 322.470438) scale(0.1 -0.1)">
       <defs>
        <path id="DejaVuSans-31" d="M 794 531 
L 1825 531 
L 1825 4091 
L 703 3866 
L 703 4441 
L 1819 4666 
L 2450 4666 
L 2450 531 
L 3481 531 
L 3481 0 
L 794 0 
L 794 531 
z
" transform="scale(0.015625)"/>
       </defs>
       <use xlink:href="#DejaVuSans-2d"/>
       <use xlink:href="#DejaVuSans-31" x="36.083984"/>
      </g>
     </g>
    </g>
    <g id="xtick_4">
     <g id="line2d_4">
      <g>
       <use xlink:href="#m824e8a02cd" x="225.932601" y="307.872" style="stroke: #000000; stroke-width: 0.8"/>
      </g>
     </g>
     <g id="text_4">
      <!-- 0 -->
      <g transform="translate(222.751351 322.470438) scale(0.1 -0.1)">
       <defs>
        <path id="DejaVuSans-30" d="M 2034 4250 
Q 1547 4250 1301 3770 
Q 1056 3291 1056 2328 
Q 1056 1369 1301 889 
Q 1547 409 2034 409 
Q 2525 409 2770 889 
Q 3016 1369 3016 2328 
Q 3016 3291 2770 3770 
Q 2525 4250 2034 4250 
z
M 2034 4750 
Q 2819 4750 3233 4129 
Q 3647 3509 3647 2328 
Q 3647 1150 3233 529 
Q 2819 -91 2034 -91 
Q 1250 -91 836 529 
Q 422 1150 422 2328 
Q 422 3509 836 4129 
Q 1250 4750 2034 4750 
z
" transform="scale(0.015625)"/>
       </defs>
       <use xlink:href="#DejaVuSans-30"/>
      </g>
     </g>
    </g>
    <g id="xtick_5">
     <g id="line2d_5">
      <g>
       <use xlink:href="#m824e8a02cd" x="271.277273" y="307.872" style="stroke: #000000; stroke-width: 0.8"/>
      </g>
     </g>
     <g id="text_5">
      <!-- 1 -->
      <g transform="translate(268.096023 322.470438) scale(0.1 -0.1)">
       <use xlink:href="#DejaVuSans-31"/>
      </g>
     </g>
    </g>
    <g id="xtick_6">
     <g id="line2d_6">
      <g>
       <use xlink:href="#m824e8a02cd" x="316.621944" y="307.872" style="stroke: #000000; stroke-width: 0.8"/>
      </g>
     </g>
     <g id="text_6">
      <!-- 2 -->
      <g transform="translate(313.440694 322.470438) scale(0.1 -0.1)">
       <use xlink:href="#DejaVuSans-32"/>
      </g>
     </g>
    </g>
    <g id="xtick_7">
     <g id="line2d_7">
      <g>
       <use xlink:href="#m824e8a02cd" x="361.966615" y="307.872" style="stroke: #000000; stroke-width: 0.8"/>
      </g>
     </g>
     <g id="text_7">
      <!-- 3 -->
      <g transform="translate(358.785365 322.470438) scale(0.1 -0.1)">
       <use xlink:href="#DejaVuSans-33"/>
      </g>
     </g>
    </g>
    <g id="text_8">
     <!-- Re$(S_{21})$ [mV] -->
     <g transform="translate(193.949063 336.148562) scale(0.1 -0.1)">
      <defs>
       <path id="DejaVuSans-52" d="M 2841 2188 
Q 3044 2119 3236 1894 
Q 3428 1669 3622 1275 
L 4263 0 
L 3584 0 
L 2988 1197 
Q 2756 1666 2539 1819 
Q 2322 1972 1947 1972 
L 1259 1972 
L 1259 0 
L 628 0 
L 628 4666 
L 2053 4666 
Q 2853 4666 3247 4331 
Q 3641 3997 3641 3322 
Q 3641 2881 3436 2590 
Q 3231 2300 2841 2188 
z
M 1259 4147 
L 1259 2491 
L 2053 2491 
Q 2509 2491 2742 2702 
Q 2975 2913 2975 3322 
Q 2975 3731 2742 3939 
Q 2509 4147 2053 4147 
L 1259 4147 
z
" transform="scale(0.015625)"/>
       <path id="DejaVuSans-65" d="M 3597 1894 
L 3597 1613 
L 953 1613 
Q 991 1019 1311 708 
Q 1631 397 2203 397 
Q 2534 397 2845 478 
Q 3156 559 3463 722 
L 3463 178 
Q 3153 47 2828 -22 
Q 2503 -91 2169 -91 
Q 1331 -91 842 396 
Q 353 884 353 1716 
Q 353 2575 817 3079 
Q 1281 3584 2069 3584 
Q 2775 3584 3186 3129 
Q 3597 2675 3597 1894 
z
M 3022 2063 
Q 3016 2534 2758 2815 
Q 2500 3097 2075 3097 
Q 1594 3097 1305 2825 
Q 1016 2553 972 2059 
L 3022 2063 
z
" transform="scale(0.015625)"/>
       <path id="DejaVuSans-28" d="M 1984 4856 
Q 1566 4138 1362 3434 
Q 1159 2731 1159 2009 
Q 1159 1288 1364 580 
Q 1569 -128 1984 -844 
L 1484 -844 
Q 1016 -109 783 600 
Q 550 1309 550 2009 
Q 550 2706 781 3412 
Q 1013 4119 1484 4856 
L 1984 4856 
z
" transform="scale(0.015625)"/>
       <path id="DejaVuSans-Oblique-53" d="M 3859 4513 
L 3738 3897 
Q 3422 4066 3111 4152 
Q 2800 4238 2509 4238 
Q 1944 4238 1609 3991 
Q 1275 3744 1275 3334 
Q 1275 3109 1398 2989 
Q 1522 2869 2034 2731 
L 2413 2638 
Q 3053 2472 3303 2217 
Q 3553 1963 3553 1503 
Q 3553 797 2998 353 
Q 2444 -91 1538 -91 
Q 1166 -91 791 -17 
Q 416 56 38 206 
L 166 856 
Q 513 641 861 531 
Q 1209 422 1556 422 
Q 2147 422 2503 684 
Q 2859 947 2859 1369 
Q 2859 1650 2717 1795 
Q 2575 1941 2106 2059 
L 1728 2156 
Q 1081 2325 845 2545 
Q 609 2766 609 3163 
Q 609 3859 1145 4304 
Q 1681 4750 2541 4750 
Q 2875 4750 3203 4690 
Q 3531 4631 3859 4513 
z
" transform="scale(0.015625)"/>
       <path id="DejaVuSans-29" d="M 513 4856 
L 1013 4856 
Q 1481 4119 1714 3412 
Q 1947 2706 1947 2009 
Q 1947 1309 1714 600 
Q 1481 -109 1013 -844 
L 513 -844 
Q 928 -128 1133 580 
Q 1338 1288 1338 2009 
Q 1338 2731 1133 3434 
Q 928 4138 513 4856 
z
" transform="scale(0.015625)"/>
       <path id="DejaVuSans-20" transform="scale(0.015625)"/>
       <path id="DejaVuSans-5b" d="M 550 4863 
L 1875 4863 
L 1875 4416 
L 1125 4416 
L 1125 -397 
L 1875 -397 
L 1875 -844 
L 550 -844 
L 550 4863 
z
" transform="scale(0.015625)"/>
       <path id="DejaVuSans-6d" d="M 3328 2828 
Q 3544 3216 3844 3400 
Q 4144 3584 4550 3584 
Q 5097 3584 5394 3201 
Q 5691 2819 5691 2113 
L 5691 0 
L 5113 0 
L 5113 2094 
Q 5113 2597 4934 2840 
Q 4756 3084 4391 3084 
Q 3944 3084 3684 2787 
Q 3425 2491 3425 1978 
L 3425 0 
L 2847 0 
L 2847 2094 
Q 2847 2600 2669 2842 
Q 2491 3084 2119 3084 
Q 1678 3084 1418 2786 
Q 1159 2488 1159 1978 
L 1159 0 
L 581 0 
L 581 3500 
L 1159 3500 
L 1159 2956 
Q 1356 3278 1631 3431 
Q 1906 3584 2284 3584 
Q 2666 3584 2933 3390 
Q 3200 3197 3328 2828 
z
" transform="scale(0.015625)"/>
       <path id="DejaVuSans-56" d="M 1831 0 
L 50 4666 
L 709 4666 
L 2188 738 
L 3669 4666 
L 4325 4666 
L 2547 0 
L 1831 0 
z
" transform="scale(0.015625)"/>
       <path id="DejaVuSans-5d" d="M 1947 4863 
L 1947 -844 
L 622 -844 
L 622 -397 
L 1369 -397 
L 1369 4416 
L 622 4416 
L 622 4863 
L 1947 4863 
z
" transform="scale(0.015625)"/>
      </defs>
      <use xlink:href="#DejaVuSans-52" transform="translate(0 0.015625)"/>
      <use xlink:href="#DejaVuSans-65" transform="translate(69.482422 0.015625)"/>
      <use xlink:href="#DejaVuSans-28" transform="translate(131.005859 0.015625)"/>
      <use xlink:href="#DejaVuSans-Oblique-53" transform="translate(170.019531 0.015625)"/>
      <use xlink:href="#DejaVuSans-32" transform="translate(233.496094 -16.390625) scale(0.7)"/>
      <use xlink:href="#DejaVuSans-31" transform="translate(278.032227 -16.390625) scale(0.7)"/>
      <use xlink:href="#DejaVuSans-29" transform="translate(325.302734 0.015625)"/>
      <use xlink:href="#DejaVuSans-20" transform="translate(364.316406 0.015625)"/>
      <use xlink:href="#DejaVuSans-5b" transform="translate(396.103516 0.015625)"/>
      <use xlink:href="#DejaVuSans-6d" transform="translate(435.117188 0.015625)"/>
      <use xlink:href="#DejaVuSans-56" transform="translate(532.529297 0.015625)"/>
      <use xlink:href="#DejaVuSans-5d" transform="translate(600.9375 0.015625)"/>
     </g>
    </g>
   </g>
   <g id="matplotlib.axis_2">
    <g id="ytick_1">
     <g id="line2d_8">
      <defs>
       <path id="m0a825ed266" d="M 0 0 
L -3.5 0 
" style="stroke: #000000; stroke-width: 0.8"/>
      </defs>
      <g>
       <use xlink:href="#m0a825ed266" x="47.389063" y="279.862121" style="stroke: #000000; stroke-width: 0.8"/>
      </g>
     </g>
     <g id="text_9">
      <!-- -4 -->
      <g transform="translate(30.41875 283.66134) scale(0.1 -0.1)">
       <defs>
        <path id="DejaVuSans-34" d="M 2419 4116 
L 825 1625 
L 2419 1625 
L 2419 4116 
z
M 2253 4666 
L 3047 4666 
L 3047 1625 
L 3713 1625 
L 3713 1100 
L 3047 1100 
L 3047 0 
L 2419 0 
L 2419 1100 
L 313 1100 
L 313 1709 
L 2253 4666 
z
" transform="scale(0.015625)"/>
       </defs>
       <use xlink:href="#DejaVuSans-2d"/>
       <use xlink:href="#DejaVuSans-34" x="36.083984"/>
      </g>
     </g>
    </g>
    <g id="ytick_2">
     <g id="line2d_9">
      <g>
       <use xlink:href="#m0a825ed266" x="47.389063" y="236.860912" style="stroke: #000000; stroke-width: 0.8"/>
      </g>
     </g>
     <g id="text_10">
      <!-- -3.5 -->
      <g transform="translate(20.878125 240.660131) scale(0.1 -0.1)">
       <defs>
        <path id="DejaVuSans-2e" d="M 684 794 
L 1344 794 
L 1344 0 
L 684 0 
L 684 794 
z
" transform="scale(0.015625)"/>
        <path id="DejaVuSans-35" d="M 691 4666 
L 3169 4666 
L 3169 4134 
L 1269 4134 
L 1269 2991 
Q 1406 3038 1543 3061 
Q 1681 3084 1819 3084 
Q 2600 3084 3056 2656 
Q 3513 2228 3513 1497 
Q 3513 744 3044 326 
Q 2575 -91 1722 -91 
Q 1428 -91 1123 -41 
Q 819 9 494 109 
L 494 744 
Q 775 591 1075 516 
Q 1375 441 1709 441 
Q 2250 441 2565 725 
Q 2881 1009 2881 1497 
Q 2881 1984 2565 2268 
Q 2250 2553 1709 2553 
Q 1456 2553 1204 2497 
Q 953 2441 691 2322 
L 691 4666 
z
" transform="scale(0.015625)"/>
       </defs>
       <use xlink:href="#DejaVuSans-2d"/>
       <use xlink:href="#DejaVuSans-33" x="36.083984"/>
       <use xlink:href="#DejaVuSans-2e" x="99.707031"/>
       <use xlink:href="#DejaVuSans-35" x="131.494141"/>
      </g>
     </g>
    </g>
    <g id="ytick_3">
     <g id="line2d_10">
      <g>
       <use xlink:href="#m0a825ed266" x="47.389063" y="193.859703" style="stroke: #000000; stroke-width: 0.8"/>
      </g>
     </g>
     <g id="text_11">
      <!-- -3 -->
      <g transform="translate(30.41875 197.658922) scale(0.1 -0.1)">
       <use xlink:href="#DejaVuSans-2d"/>
       <use xlink:href="#DejaVuSans-33" x="36.083984"/>
      </g>
     </g>
    </g>
    <g id="ytick_4">
     <g id="line2d_11">
      <g>
       <use xlink:href="#m0a825ed266" x="47.389063" y="150.858493" style="stroke: #000000; stroke-width: 0.8"/>
      </g>
     </g>
     <g id="text_12">
      <!-- -2.5 -->
      <g transform="translate(20.878125 154.657712) scale(0.1 -0.1)">
       <use xlink:href="#DejaVuSans-2d"/>
       <use xlink:href="#DejaVuSans-32" x="36.083984"/>
       <use xlink:href="#DejaVuSans-2e" x="99.707031"/>
       <use xlink:href="#DejaVuSans-35" x="131.494141"/>
      </g>
     </g>
    </g>
    <g id="ytick_5">
     <g id="line2d_12">
      <g>
       <use xlink:href="#m0a825ed266" x="47.389063" y="107.857284" style="stroke: #000000; stroke-width: 0.8"/>
      </g>
     </g>
     <g id="text_13">
      <!-- -2 -->
      <g transform="translate(30.41875 111.656503) scale(0.1 -0.1)">
       <use xlink:href="#DejaVuSans-2d"/>
       <use xlink:href="#DejaVuSans-32" x="36.083984"/>
      </g>
     </g>
    </g>
    <g id="ytick_6">
     <g id="line2d_13">
      <g>
       <use xlink:href="#m0a825ed266" x="47.389063" y="64.856075" style="stroke: #000000; stroke-width: 0.8"/>
      </g>
     </g>
     <g id="text_14">
      <!-- -1.5 -->
      <g transform="translate(20.878125 68.655294) scale(0.1 -0.1)">
       <use xlink:href="#DejaVuSans-2d"/>
       <use xlink:href="#DejaVuSans-31" x="36.083984"/>
       <use xlink:href="#DejaVuSans-2e" x="99.707031"/>
       <use xlink:href="#DejaVuSans-35" x="131.494141"/>
      </g>
     </g>
    </g>
    <g id="text_15">
     <!-- Im$(S_{21})$ [mV] -->
     <g transform="translate(14.798438 206.466) rotate(-90) scale(0.1 -0.1)">
      <defs>
       <path id="DejaVuSans-49" d="M 628 4666 
L 1259 4666 
L 1259 0 
L 628 0 
L 628 4666 
z
" transform="scale(0.015625)"/>
      </defs>
      <use xlink:href="#DejaVuSans-49" transform="translate(0 0.015625)"/>
      <use xlink:href="#DejaVuSans-6d" transform="translate(25.867188 0.015625)"/>
      <use xlink:href="#DejaVuSans-28" transform="translate(123.279297 0.015625)"/>
      <use xlink:href="#DejaVuSans-Oblique-53" transform="translate(162.292969 0.015625)"/>
      <use xlink:href="#DejaVuSans-32" transform="translate(225.769531 -16.390625) scale(0.7)"/>
      <use xlink:href="#DejaVuSans-31" transform="translate(270.305664 -16.390625) scale(0.7)"/>
      <use xlink:href="#DejaVuSans-29" transform="translate(317.576172 0.015625)"/>
      <use xlink:href="#DejaVuSans-20" transform="translate(356.589844 0.015625)"/>
      <use xlink:href="#DejaVuSans-5b" transform="translate(388.376953 0.015625)"/>
      <use xlink:href="#DejaVuSans-6d" transform="translate(427.390625 0.015625)"/>
      <use xlink:href="#DejaVuSans-56" transform="translate(524.802734 0.015625)"/>
      <use xlink:href="#DejaVuSans-5d" transform="translate(593.210938 0.015625)"/>
     </g>
    </g>
   </g>
   <g id="line2d_14">
    <path d="M 384.917694 53.856 
L 383.604353 54.757268 
L 381.378211 60.989187 
L 379.205676 62.898088 
L 379.739829 67.693693 
L 380.56022 68.107109 
L 376.718697 77.169784 
L 376.582796 79.633828 
L 376.619604 86.938012 
L 375.004371 86.495886 
L 373.39475 90.509542 
L 372.766932 95.1046 
L 371.725282 98.43434 
L 375.514748 108.641333 
L 371.776711 105.057759 
L 370.360511 108.851123 
L 371.882227 115.480913 
L 368.559794 115.982419 
L 362.988513 122.215319 
L 361.940513 123.049154 
L 358.854181 129.595197 
L 360.496033 131.184933 
L 359.932086 138.541213 
L 363.042527 141.433939 
L 357.120547 145.61236 
L 354.774416 140.914368 
L 355.190685 151.074025 
L 351.290718 149.269879 
L 352.832149 155.11618 
L 351.319663 163.237884 
L 350.07477 165.529811 
L 347.853834 170.414976 
L 348.460349 172.654806 
L 344.800286 165.259452 
L 341.096843 182.175922 
L 342.748331 183.59256 
L 339.475112 185.012699 
L 338.924308 186.399017 
L 335.043724 187.263243 
L 340.009154 191.190001 
L 331.401346 196.432213 
L 334.858683 194.773925 
L 334.019722 198.75411 
L 325.377985 206.929382 
L 326.553099 206.469119 
L 323.501102 206.206743 
L 321.605649 213.665187 
L 320.085853 212.724987 
L 318.725882 213.851519 
L 317.974125 228.450923 
L 315.498997 225.502319 
L 312.487796 231.009429 
L 311.405018 231.357724 
L 311.154407 226.912655 
L 306.455611 235.153608 
L 308.553457 238.455479 
L 304.211821 236.405342 
L 301.465371 242.688658 
L 301.310124 240.925685 
L 298.792687 239.055157 
L 294.734815 245.615695 
L 290.500984 251.731446 
L 292.873697 251.418933 
L 290.574602 252.943266 
L 290.062342 257.963365 
L 285.9032 255.091296 
L 278.986458 254.761837 
L 282.980015 259.056777 
L 278.711148 264.977933 
L 279.166514 260.674031 
L 275.652985 265.007973 
L 269.206895 270.966592 
L 273.608931 268.586856 
L 267.422976 271.546314 
L 266.021987 275.238984 
L 259.086711 276.572084 
L 255.082705 279.156078 
L 255.474607 283.884531 
L 254.524111 280.590572 
L 249.300835 283.800153 
L 247.675301 288.045305 
L 240.333909 280.753306 
L 240.991042 291.874451 
L 237.699658 287.455711 
L 232.246889 292.890416 
L 224.346645 290.950986 
L 222.136268 295.776 
L 217.688414 295.728804 
L 205.200392 288.189903 
L 201.384749 292.150062 
L 193.991006 289.838108 
L 181.664764 285.253693 
L 172.088112 276.208244 
L 154.255531 257.303117 
L 156.14984 196.683386 
L 154.956967 153.879852 
L 168.346272 100.266566 
L 199.538953 78.408423 
L 228.13194 89.879754 
L 246.153881 122.049084 
L 251.579809 153.912133 
L 250.124696 180.543403 
L 252.388644 193.529544 
L 246.213506 203.179783 
L 241.54838 210.851378 
L 238.208521 230.591881 
L 231.629372 226.635503 
L 230.748765 230.40807 
L 222.632542 240.138765 
L 224.128044 240.130923 
L 225.171725 241.501416 
L 219.647628 243.707354 
L 215.314889 249.173921 
L 210.07655 247.7792 
L 215.470912 250.824296 
L 208.173639 249.571722 
L 205.335111 254.382382 
L 198.584064 245.673744 
L 201.047932 254.892921 
L 199.063133 258.041791 
L 192.550365 253.478523 
L 192.575951 250.513183 
L 188.946162 250.514794 
L 188.584497 251.155576 
L 184.238357 242.12098 
L 183.060252 257.443373 
L 177.877107 259.070571 
L 175.769588 249.506881 
L 174.700285 252.679419 
L 169.761881 247.136808 
L 173.852352 239.388817 
L 166.09724 251.789915 
L 163.793862 242.803006 
L 163.004373 246.715478 
L 160.61667 242.903559 
L 161.478337 238.840186 
L 154.325494 241.922885 
L 156.472887 239.160542 
L 154.380394 236.465211 
L 151.233476 234.73508 
L 149.048352 230.50001 
L 148.657595 229.060615 
L 144.430668 226.743129 
L 142.94901 236.554071 
L 140.827203 219.671772 
L 141.340681 226.603853 
L 136.385552 225.629411 
L 135.009373 226.133927 
L 134.520373 225.970914 
L 130.741429 224.080359 
L 131.576624 215.431731 
L 131.720204 216.796902 
L 127.313996 214.929595 
L 125.916183 209.239865 
L 125.416956 203.683879 
L 122.002925 203.925949 
L 120.471241 214.142535 
L 119.42169 201.728833 
L 117.134483 197.163044 
L 115.203476 197.403924 
L 113.727024 202.679187 
L 112.752863 190.376892 
L 110.04588 190.859211 
L 105.463159 196.616864 
L 103.840025 185.087904 
L 106.843657 182.391173 
L 102.678017 183.688982 
L 101.061787 173.098332 
L 100.957637 179.323389 
L 96.635827 180.243213 
L 96.831057 178.410638 
L 96.521006 175.0587 
L 92.971444 164.724895 
L 95.504499 164.28508 
L 94.186838 164.414063 
L 87.914638 162.520217 
L 87.324478 160.867041 
L 87.843826 156.986008 
L 85.209538 158.104978 
L 82.091418 143.673279 
L 81.506316 149.233186 
L 83.009203 146.043492 
L 79.619096 136.486454 
L 81.24079 140.340458 
L 75.237365 134.511172 
L 74.547744 137.445561 
L 75.170652 130.807648 
L 74.877251 128.15111 
L 72.604221 122.755197 
L 69.449551 114.827317 
L 73.013032 119.184997 
L 71.239414 115.845874 
L 68.222601 114.997123 
L 66.268225 108.8117 
L 68.543728 102.884941 
L 63.62179 101.374612 
L 64.413346 95.846565 
L 64.413346 95.846565 
" clip-path="url(#p27e30c65d9)" style="fill: none; stroke: #1f77b4; stroke-width: 1.5; stroke-linecap: square"/>
    <defs>
     <path id="mab8fa7c5e3" d="M 0 1.5 
C 0.397805 1.5 0.77937 1.341951 1.06066 1.06066 
C 1.341951 0.77937 1.5 0.397805 1.5 0 
C 1.5 -0.397805 1.341951 -0.77937 1.06066 -1.06066 
C 0.77937 -1.341951 0.397805 -1.5 0 -1.5 
C -0.397805 -1.5 -0.77937 -1.341951 -1.06066 -1.06066 
C -1.341951 -0.77937 -1.5 -0.397805 -1.5 0 
C -1.5 0.397805 -1.341951 0.77937 -1.06066 1.06066 
C -0.77937 1.341951 -0.397805 1.5 0 1.5 
z
" style="stroke: #1f77b4"/>
    </defs>
    <g clip-path="url(#p27e30c65d9)">
     <use xlink:href="#mab8fa7c5e3" x="384.917694" y="53.856" style="fill: #1f77b4; stroke: #1f77b4"/>
     <use xlink:href="#mab8fa7c5e3" x="383.604353" y="54.757268" style="fill: #1f77b4; stroke: #1f77b4"/>
     <use xlink:href="#mab8fa7c5e3" x="381.378211" y="60.989187" style="fill: #1f77b4; stroke: #1f77b4"/>
     <use xlink:href="#mab8fa7c5e3" x="379.205676" y="62.898088" style="fill: #1f77b4; stroke: #1f77b4"/>
     <use xlink:href="#mab8fa7c5e3" x="379.739829" y="67.693693" style="fill: #1f77b4; stroke: #1f77b4"/>
     <use xlink:href="#mab8fa7c5e3" x="380.56022" y="68.107109" style="fill: #1f77b4; stroke: #1f77b4"/>
     <use xlink:href="#mab8fa7c5e3" x="376.718697" y="77.169784" style="fill: #1f77b4; stroke: #1f77b4"/>
     <use xlink:href="#mab8fa7c5e3" x="376.582796" y="79.633828" style="fill: #1f77b4; stroke: #1f77b4"/>
     <use xlink:href="#mab8fa7c5e3" x="376.619604" y="86.938012" style="fill: #1f77b4; stroke: #1f77b4"/>
     <use xlink:href="#mab8fa7c5e3" x="375.004371" y="86.495886" style="fill: #1f77b4; stroke: #1f77b4"/>
     <use xlink:href="#mab8fa7c5e3" x="373.39475" y="90.509542" style="fill: #1f77b4; stroke: #1f77b4"/>
     <use xlink:href="#mab8fa7c5e3" x="372.766932" y="95.1046" style="fill: #1f77b4; stroke: #1f77b4"/>
     <use xlink:href="#mab8fa7c5e3" x="371.725282" y="98.43434" style="fill: #1f77b4; stroke: #1f77b4"/>
     <use xlink:href="#mab8fa7c5e3" x="375.514748" y="108.641333" style="fill: #1f77b4; stroke: #1f77b4"/>
     <use xlink:href="#mab8fa7c5e3" x="371.776711" y="105.057759" style="fill: #1f77b4; stroke: #1f77b4"/>
     <use xlink:href="#mab8fa7c5e3" x="370.360511" y="108.851123" style="fill: #1f77b4; stroke: #1f77b4"/>
     <use xlink:href="#mab8fa7c5e3" x="371.882227" y="115.480913" style="fill: #1f77b4; stroke: #1f77b4"/>
     <use xlink:href="#mab8fa7c5e3" x="368.559794" y="115.982419" style="fill: #1f77b4; stroke: #1f77b4"/>
     <use xlink:href="#mab8fa7c5e3" x="362.988513" y="122.215319" style="fill: #1f77b4; stroke: #1f77b4"/>
     <use xlink:href="#mab8fa7c5e3" x="361.940513" y="123.049154" style="fill: #1f77b4; stroke: #1f77b4"/>
     <use xlink:href="#mab8fa7c5e3" x="358.854181" y="129.595197" style="fill: #1f77b4; stroke: #1f77b4"/>
     <use xlink:href="#mab8fa7c5e3" x="360.496033" y="131.184933" style="fill: #1f77b4; stroke: #1f77b4"/>
     <use xlink:href="#mab8fa7c5e3" x="359.932086" y="138.541213" style="fill: #1f77b4; stroke: #1f77b4"/>
     <use xlink:href="#mab8fa7c5e3" x="363.042527" y="141.433939" style="fill: #1f77b4; stroke: #1f77b4"/>
     <use xlink:href="#mab8fa7c5e3" x="357.120547" y="145.61236" style="fill: #1f77b4; stroke: #1f77b4"/>
     <use xlink:href="#mab8fa7c5e3" x="354.774416" y="140.914368" style="fill: #1f77b4; stroke: #1f77b4"/>
     <use xlink:href="#mab8fa7c5e3" x="355.190685" y="151.074025" style="fill: #1f77b4; stroke: #1f77b4"/>
     <use xlink:href="#mab8fa7c5e3" x="351.290718" y="149.269879" style="fill: #1f77b4; stroke: #1f77b4"/>
     <use xlink:href="#mab8fa7c5e3" x="352.832149" y="155.11618" style="fill: #1f77b4; stroke: #1f77b4"/>
     <use xlink:href="#mab8fa7c5e3" x="351.319663" y="163.237884" style="fill: #1f77b4; stroke: #1f77b4"/>
     <use xlink:href="#mab8fa7c5e3" x="350.07477" y="165.529811" style="fill: #1f77b4; stroke: #1f77b4"/>
     <use xlink:href="#mab8fa7c5e3" x="347.853834" y="170.414976" style="fill: #1f77b4; stroke: #1f77b4"/>
     <use xlink:href="#mab8fa7c5e3" x="348.460349" y="172.654806" style="fill: #1f77b4; stroke: #1f77b4"/>
     <use xlink:href="#mab8fa7c5e3" x="344.800286" y="165.259452" style="fill: #1f77b4; stroke: #1f77b4"/>
     <use xlink:href="#mab8fa7c5e3" x="341.096843" y="182.175922" style="fill: #1f77b4; stroke: #1f77b4"/>
     <use xlink:href="#mab8fa7c5e3" x="342.748331" y="183.59256" style="fill: #1f77b4; stroke: #1f77b4"/>
     <use xlink:href="#mab8fa7c5e3" x="339.475112" y="185.012699" style="fill: #1f77b4; stroke: #1f77b4"/>
     <use xlink:href="#mab8fa7c5e3" x="338.924308" y="186.399017" style="fill: #1f77b4; stroke: #1f77b4"/>
     <use xlink:href="#mab8fa7c5e3" x="335.043724" y="187.263243" style="fill: #1f77b4; stroke: #1f77b4"/>
     <use xlink:href="#mab8fa7c5e3" x="340.009154" y="191.190001" style="fill: #1f77b4; stroke: #1f77b4"/>
     <use xlink:href="#mab8fa7c5e3" x="331.401346" y="196.432213" style="fill: #1f77b4; stroke: #1f77b4"/>
     <use xlink:href="#mab8fa7c5e3" x="334.858683" y="194.773925" style="fill: #1f77b4; stroke: #1f77b4"/>
     <use xlink:href="#mab8fa7c5e3" x="334.019722" y="198.75411" style="fill: #1f77b4; stroke: #1f77b4"/>
     <use xlink:href="#mab8fa7c5e3" x="325.377985" y="206.929382" style="fill: #1f77b4; stroke: #1f77b4"/>
     <use xlink:href="#mab8fa7c5e3" x="326.553099" y="206.469119" style="fill: #1f77b4; stroke: #1f77b4"/>
     <use xlink:href="#mab8fa7c5e3" x="323.501102" y="206.206743" style="fill: #1f77b4; stroke: #1f77b4"/>
     <use xlink:href="#mab8fa7c5e3" x="321.933274" y="212.072161" style="fill: #1f77b4; stroke: #1f77b4"/>
     <use xlink:href="#mab8fa7c5e3" x="321.605649" y="213.665187" style="fill: #1f77b4; stroke: #1f77b4"/>
     <use xlink:href="#mab8fa7c5e3" x="320.085853" y="212.724987" style="fill: #1f77b4; stroke: #1f77b4"/>
     <use xlink:href="#mab8fa7c5e3" x="318.725882" y="213.851519" style="fill: #1f77b4; stroke: #1f77b4"/>
     <use xlink:href="#mab8fa7c5e3" x="317.974125" y="228.450923" style="fill: #1f77b4; stroke: #1f77b4"/>
     <use xlink:href="#mab8fa7c5e3" x="315.498997" y="225.502319" style="fill: #1f77b4; stroke: #1f77b4"/>
     <use xlink:href="#mab8fa7c5e3" x="312.487796" y="231.009429" style="fill: #1f77b4; stroke: #1f77b4"/>
     <use xlink:href="#mab8fa7c5e3" x="311.405018" y="231.357724" style="fill: #1f77b4; stroke: #1f77b4"/>
     <use xlink:href="#mab8fa7c5e3" x="311.154407" y="226.912655" style="fill: #1f77b4; stroke: #1f77b4"/>
     <use xlink:href="#mab8fa7c5e3" x="306.455611" y="235.153608" style="fill: #1f77b4; stroke: #1f77b4"/>
     <use xlink:href="#mab8fa7c5e3" x="308.553457" y="238.455479" style="fill: #1f77b4; stroke: #1f77b4"/>
     <use xlink:href="#mab8fa7c5e3" x="304.211821" y="236.405342" style="fill: #1f77b4; stroke: #1f77b4"/>
     <use xlink:href="#mab8fa7c5e3" x="301.465371" y="242.688658" style="fill: #1f77b4; stroke: #1f77b4"/>
     <use xlink:href="#mab8fa7c5e3" x="301.310124" y="240.925685" style="fill: #1f77b4; stroke: #1f77b4"/>
     <use xlink:href="#mab8fa7c5e3" x="298.792687" y="239.055157" style="fill: #1f77b4; stroke: #1f77b4"/>
     <use xlink:href="#mab8fa7c5e3" x="294.734815" y="245.615695" style="fill: #1f77b4; stroke: #1f77b4"/>
     <use xlink:href="#mab8fa7c5e3" x="290.500984" y="251.731446" style="fill: #1f77b4; stroke: #1f77b4"/>
     <use xlink:href="#mab8fa7c5e3" x="292.873697" y="251.418933" style="fill: #1f77b4; stroke: #1f77b4"/>
     <use xlink:href="#mab8fa7c5e3" x="290.574602" y="252.943266" style="fill: #1f77b4; stroke: #1f77b4"/>
     <use xlink:href="#mab8fa7c5e3" x="290.062342" y="257.963365" style="fill: #1f77b4; stroke: #1f77b4"/>
     <use xlink:href="#mab8fa7c5e3" x="285.9032" y="255.091296" style="fill: #1f77b4; stroke: #1f77b4"/>
     <use xlink:href="#mab8fa7c5e3" x="278.986458" y="254.761837" style="fill: #1f77b4; stroke: #1f77b4"/>
     <use xlink:href="#mab8fa7c5e3" x="282.980015" y="259.056777" style="fill: #1f77b4; stroke: #1f77b4"/>
     <use xlink:href="#mab8fa7c5e3" x="278.711148" y="264.977933" style="fill: #1f77b4; stroke: #1f77b4"/>
     <use xlink:href="#mab8fa7c5e3" x="279.166514" y="260.674031" style="fill: #1f77b4; stroke: #1f77b4"/>
     <use xlink:href="#mab8fa7c5e3" x="275.652985" y="265.007973" style="fill: #1f77b4; stroke: #1f77b4"/>
     <use xlink:href="#mab8fa7c5e3" x="269.206895" y="270.966592" style="fill: #1f77b4; stroke: #1f77b4"/>
     <use xlink:href="#mab8fa7c5e3" x="273.608931" y="268.586856" style="fill: #1f77b4; stroke: #1f77b4"/>
     <use xlink:href="#mab8fa7c5e3" x="267.422976" y="271.546314" style="fill: #1f77b4; stroke: #1f77b4"/>
     <use xlink:href="#mab8fa7c5e3" x="266.021987" y="275.238984" style="fill: #1f77b4; stroke: #1f77b4"/>
     <use xlink:href="#mab8fa7c5e3" x="261.300522" y="276.133809" style="fill: #1f77b4; stroke: #1f77b4"/>
     <use xlink:href="#mab8fa7c5e3" x="259.086711" y="276.572084" style="fill: #1f77b4; stroke: #1f77b4"/>
     <use xlink:href="#mab8fa7c5e3" x="255.082705" y="279.156078" style="fill: #1f77b4; stroke: #1f77b4"/>
     <use xlink:href="#mab8fa7c5e3" x="255.474607" y="283.884531" style="fill: #1f77b4; stroke: #1f77b4"/>
     <use xlink:href="#mab8fa7c5e3" x="254.524111" y="280.590572" style="fill: #1f77b4; stroke: #1f77b4"/>
     <use xlink:href="#mab8fa7c5e3" x="249.300835" y="283.800153" style="fill: #1f77b4; stroke: #1f77b4"/>
     <use xlink:href="#mab8fa7c5e3" x="247.675301" y="288.045305" style="fill: #1f77b4; stroke: #1f77b4"/>
     <use xlink:href="#mab8fa7c5e3" x="240.333909" y="280.753306" style="fill: #1f77b4; stroke: #1f77b4"/>
     <use xlink:href="#mab8fa7c5e3" x="240.991042" y="291.874451" style="fill: #1f77b4; stroke: #1f77b4"/>
     <use xlink:href="#mab8fa7c5e3" x="237.699658" y="287.455711" style="fill: #1f77b4; stroke: #1f77b4"/>
     <use xlink:href="#mab8fa7c5e3" x="232.246889" y="292.890416" style="fill: #1f77b4; stroke: #1f77b4"/>
     <use xlink:href="#mab8fa7c5e3" x="224.346645" y="290.950986" style="fill: #1f77b4; stroke: #1f77b4"/>
     <use xlink:href="#mab8fa7c5e3" x="222.136268" y="295.776" style="fill: #1f77b4; stroke: #1f77b4"/>
     <use xlink:href="#mab8fa7c5e3" x="217.688414" y="295.728804" style="fill: #1f77b4; stroke: #1f77b4"/>
     <use xlink:href="#mab8fa7c5e3" x="205.200392" y="288.189903" style="fill: #1f77b4; stroke: #1f77b4"/>
     <use xlink:href="#mab8fa7c5e3" x="201.384749" y="292.150062" style="fill: #1f77b4; stroke: #1f77b4"/>
     <use xlink:href="#mab8fa7c5e3" x="193.991006" y="289.838108" style="fill: #1f77b4; stroke: #1f77b4"/>
     <use xlink:href="#mab8fa7c5e3" x="181.664764" y="285.253693" style="fill: #1f77b4; stroke: #1f77b4"/>
     <use xlink:href="#mab8fa7c5e3" x="172.088112" y="276.208244" style="fill: #1f77b4; stroke: #1f77b4"/>
     <use xlink:href="#mab8fa7c5e3" x="154.255531" y="257.303117" style="fill: #1f77b4; stroke: #1f77b4"/>
     <use xlink:href="#mab8fa7c5e3" x="156.14984" y="196.683386" style="fill: #1f77b4; stroke: #1f77b4"/>
     <use xlink:href="#mab8fa7c5e3" x="154.956967" y="153.879852" style="fill: #1f77b4; stroke: #1f77b4"/>
     <use xlink:href="#mab8fa7c5e3" x="168.346272" y="100.266566" style="fill: #1f77b4; stroke: #1f77b4"/>
     <use xlink:href="#mab8fa7c5e3" x="199.538953" y="78.408423" style="fill: #1f77b4; stroke: #1f77b4"/>
     <use xlink:href="#mab8fa7c5e3" x="228.13194" y="89.879754" style="fill: #1f77b4; stroke: #1f77b4"/>
     <use xlink:href="#mab8fa7c5e3" x="246.153881" y="122.049084" style="fill: #1f77b4; stroke: #1f77b4"/>
     <use xlink:href="#mab8fa7c5e3" x="251.579809" y="153.912133" style="fill: #1f77b4; stroke: #1f77b4"/>
     <use xlink:href="#mab8fa7c5e3" x="250.124696" y="180.543403" style="fill: #1f77b4; stroke: #1f77b4"/>
     <use xlink:href="#mab8fa7c5e3" x="252.388644" y="193.529544" style="fill: #1f77b4; stroke: #1f77b4"/>
     <use xlink:href="#mab8fa7c5e3" x="246.213506" y="203.179783" style="fill: #1f77b4; stroke: #1f77b4"/>
     <use xlink:href="#mab8fa7c5e3" x="241.54838" y="210.851378" style="fill: #1f77b4; stroke: #1f77b4"/>
     <use xlink:href="#mab8fa7c5e3" x="238.208521" y="230.591881" style="fill: #1f77b4; stroke: #1f77b4"/>
     <use xlink:href="#mab8fa7c5e3" x="231.629372" y="226.635503" style="fill: #1f77b4; stroke: #1f77b4"/>
     <use xlink:href="#mab8fa7c5e3" x="230.748765" y="230.40807" style="fill: #1f77b4; stroke: #1f77b4"/>
     <use xlink:href="#mab8fa7c5e3" x="222.632542" y="240.138765" style="fill: #1f77b4; stroke: #1f77b4"/>
     <use xlink:href="#mab8fa7c5e3" x="224.128044" y="240.130923" style="fill: #1f77b4; stroke: #1f77b4"/>
     <use xlink:href="#mab8fa7c5e3" x="225.171725" y="241.501416" style="fill: #1f77b4; stroke: #1f77b4"/>
     <use xlink:href="#mab8fa7c5e3" x="219.647628" y="243.707354" style="fill: #1f77b4; stroke: #1f77b4"/>
     <use xlink:href="#mab8fa7c5e3" x="215.314889" y="249.173921" style="fill: #1f77b4; stroke: #1f77b4"/>
     <use xlink:href="#mab8fa7c5e3" x="210.07655" y="247.7792" style="fill: #1f77b4; stroke: #1f77b4"/>
     <use xlink:href="#mab8fa7c5e3" x="215.470912" y="250.824296" style="fill: #1f77b4; stroke: #1f77b4"/>
     <use xlink:href="#mab8fa7c5e3" x="208.173639" y="249.571722" style="fill: #1f77b4; stroke: #1f77b4"/>
     <use xlink:href="#mab8fa7c5e3" x="205.335111" y="254.382382" style="fill: #1f77b4; stroke: #1f77b4"/>
     <use xlink:href="#mab8fa7c5e3" x="198.584064" y="245.673744" style="fill: #1f77b4; stroke: #1f77b4"/>
     <use xlink:href="#mab8fa7c5e3" x="201.047932" y="254.892921" style="fill: #1f77b4; stroke: #1f77b4"/>
     <use xlink:href="#mab8fa7c5e3" x="199.063133" y="258.041791" style="fill: #1f77b4; stroke: #1f77b4"/>
     <use xlink:href="#mab8fa7c5e3" x="192.550365" y="253.478523" style="fill: #1f77b4; stroke: #1f77b4"/>
     <use xlink:href="#mab8fa7c5e3" x="192.575951" y="250.513183" style="fill: #1f77b4; stroke: #1f77b4"/>
     <use xlink:href="#mab8fa7c5e3" x="190.028497" y="250.556668" style="fill: #1f77b4; stroke: #1f77b4"/>
     <use xlink:href="#mab8fa7c5e3" x="188.946162" y="250.514794" style="fill: #1f77b4; stroke: #1f77b4"/>
     <use xlink:href="#mab8fa7c5e3" x="188.584497" y="251.155576" style="fill: #1f77b4; stroke: #1f77b4"/>
     <use xlink:href="#mab8fa7c5e3" x="184.238357" y="242.12098" style="fill: #1f77b4; stroke: #1f77b4"/>
     <use xlink:href="#mab8fa7c5e3" x="183.060252" y="257.443373" style="fill: #1f77b4; stroke: #1f77b4"/>
     <use xlink:href="#mab8fa7c5e3" x="177.877107" y="259.070571" style="fill: #1f77b4; stroke: #1f77b4"/>
     <use xlink:href="#mab8fa7c5e3" x="175.769588" y="249.506881" style="fill: #1f77b4; stroke: #1f77b4"/>
     <use xlink:href="#mab8fa7c5e3" x="174.700285" y="252.679419" style="fill: #1f77b4; stroke: #1f77b4"/>
     <use xlink:href="#mab8fa7c5e3" x="169.761881" y="247.136808" style="fill: #1f77b4; stroke: #1f77b4"/>
     <use xlink:href="#mab8fa7c5e3" x="173.852352" y="239.388817" style="fill: #1f77b4; stroke: #1f77b4"/>
     <use xlink:href="#mab8fa7c5e3" x="166.09724" y="251.789915" style="fill: #1f77b4; stroke: #1f77b4"/>
     <use xlink:href="#mab8fa7c5e3" x="163.793862" y="242.803006" style="fill: #1f77b4; stroke: #1f77b4"/>
     <use xlink:href="#mab8fa7c5e3" x="163.004373" y="246.715478" style="fill: #1f77b4; stroke: #1f77b4"/>
     <use xlink:href="#mab8fa7c5e3" x="160.61667" y="242.903559" style="fill: #1f77b4; stroke: #1f77b4"/>
     <use xlink:href="#mab8fa7c5e3" x="161.478337" y="238.840186" style="fill: #1f77b4; stroke: #1f77b4"/>
     <use xlink:href="#mab8fa7c5e3" x="154.325494" y="241.922885" style="fill: #1f77b4; stroke: #1f77b4"/>
     <use xlink:href="#mab8fa7c5e3" x="156.472887" y="239.160542" style="fill: #1f77b4; stroke: #1f77b4"/>
     <use xlink:href="#mab8fa7c5e3" x="154.380394" y="236.465211" style="fill: #1f77b4; stroke: #1f77b4"/>
     <use xlink:href="#mab8fa7c5e3" x="151.233476" y="234.73508" style="fill: #1f77b4; stroke: #1f77b4"/>
     <use xlink:href="#mab8fa7c5e3" x="149.048352" y="230.50001" style="fill: #1f77b4; stroke: #1f77b4"/>
     <use xlink:href="#mab8fa7c5e3" x="148.657595" y="229.060615" style="fill: #1f77b4; stroke: #1f77b4"/>
     <use xlink:href="#mab8fa7c5e3" x="144.430668" y="226.743129" style="fill: #1f77b4; stroke: #1f77b4"/>
     <use xlink:href="#mab8fa7c5e3" x="142.94901" y="236.554071" style="fill: #1f77b4; stroke: #1f77b4"/>
     <use xlink:href="#mab8fa7c5e3" x="140.827203" y="219.671772" style="fill: #1f77b4; stroke: #1f77b4"/>
     <use xlink:href="#mab8fa7c5e3" x="141.340681" y="226.603853" style="fill: #1f77b4; stroke: #1f77b4"/>
     <use xlink:href="#mab8fa7c5e3" x="136.385552" y="225.629411" style="fill: #1f77b4; stroke: #1f77b4"/>
     <use xlink:href="#mab8fa7c5e3" x="135.009373" y="226.133927" style="fill: #1f77b4; stroke: #1f77b4"/>
     <use xlink:href="#mab8fa7c5e3" x="134.520373" y="225.970914" style="fill: #1f77b4; stroke: #1f77b4"/>
     <use xlink:href="#mab8fa7c5e3" x="130.741429" y="224.080359" style="fill: #1f77b4; stroke: #1f77b4"/>
     <use xlink:href="#mab8fa7c5e3" x="131.576624" y="215.431731" style="fill: #1f77b4; stroke: #1f77b4"/>
     <use xlink:href="#mab8fa7c5e3" x="131.720204" y="216.796902" style="fill: #1f77b4; stroke: #1f77b4"/>
     <use xlink:href="#mab8fa7c5e3" x="127.313996" y="214.929595" style="fill: #1f77b4; stroke: #1f77b4"/>
     <use xlink:href="#mab8fa7c5e3" x="125.916183" y="209.239865" style="fill: #1f77b4; stroke: #1f77b4"/>
     <use xlink:href="#mab8fa7c5e3" x="125.416956" y="203.683879" style="fill: #1f77b4; stroke: #1f77b4"/>
     <use xlink:href="#mab8fa7c5e3" x="122.002925" y="203.925949" style="fill: #1f77b4; stroke: #1f77b4"/>
     <use xlink:href="#mab8fa7c5e3" x="120.471241" y="214.142535" style="fill: #1f77b4; stroke: #1f77b4"/>
     <use xlink:href="#mab8fa7c5e3" x="119.42169" y="201.728833" style="fill: #1f77b4; stroke: #1f77b4"/>
     <use xlink:href="#mab8fa7c5e3" x="117.134483" y="197.163044" style="fill: #1f77b4; stroke: #1f77b4"/>
     <use xlink:href="#mab8fa7c5e3" x="115.203476" y="197.403924" style="fill: #1f77b4; stroke: #1f77b4"/>
     <use xlink:href="#mab8fa7c5e3" x="113.727024" y="202.679187" style="fill: #1f77b4; stroke: #1f77b4"/>
     <use xlink:href="#mab8fa7c5e3" x="112.752863" y="190.376892" style="fill: #1f77b4; stroke: #1f77b4"/>
     <use xlink:href="#mab8fa7c5e3" x="110.04588" y="190.859211" style="fill: #1f77b4; stroke: #1f77b4"/>
     <use xlink:href="#mab8fa7c5e3" x="105.463159" y="196.616864" style="fill: #1f77b4; stroke: #1f77b4"/>
     <use xlink:href="#mab8fa7c5e3" x="103.840025" y="185.087904" style="fill: #1f77b4; stroke: #1f77b4"/>
     <use xlink:href="#mab8fa7c5e3" x="106.843657" y="182.391173" style="fill: #1f77b4; stroke: #1f77b4"/>
     <use xlink:href="#mab8fa7c5e3" x="102.678017" y="183.688982" style="fill: #1f77b4; stroke: #1f77b4"/>
     <use xlink:href="#mab8fa7c5e3" x="101.061787" y="173.098332" style="fill: #1f77b4; stroke: #1f77b4"/>
     <use xlink:href="#mab8fa7c5e3" x="100.957637" y="179.323389" style="fill: #1f77b4; stroke: #1f77b4"/>
     <use xlink:href="#mab8fa7c5e3" x="96.635827" y="180.243213" style="fill: #1f77b4; stroke: #1f77b4"/>
     <use xlink:href="#mab8fa7c5e3" x="96.831057" y="178.410638" style="fill: #1f77b4; stroke: #1f77b4"/>
     <use xlink:href="#mab8fa7c5e3" x="96.521006" y="175.0587" style="fill: #1f77b4; stroke: #1f77b4"/>
     <use xlink:href="#mab8fa7c5e3" x="92.971444" y="164.724895" style="fill: #1f77b4; stroke: #1f77b4"/>
     <use xlink:href="#mab8fa7c5e3" x="95.504499" y="164.28508" style="fill: #1f77b4; stroke: #1f77b4"/>
     <use xlink:href="#mab8fa7c5e3" x="94.186838" y="164.414063" style="fill: #1f77b4; stroke: #1f77b4"/>
     <use xlink:href="#mab8fa7c5e3" x="87.914638" y="162.520217" style="fill: #1f77b4; stroke: #1f77b4"/>
     <use xlink:href="#mab8fa7c5e3" x="87.324478" y="160.867041" style="fill: #1f77b4; stroke: #1f77b4"/>
     <use xlink:href="#mab8fa7c5e3" x="87.843826" y="156.986008" style="fill: #1f77b4; stroke: #1f77b4"/>
     <use xlink:href="#mab8fa7c5e3" x="85.209538" y="158.104978" style="fill: #1f77b4; stroke: #1f77b4"/>
     <use xlink:href="#mab8fa7c5e3" x="82.091418" y="143.673279" style="fill: #1f77b4; stroke: #1f77b4"/>
     <use xlink:href="#mab8fa7c5e3" x="81.506316" y="149.233186" style="fill: #1f77b4; stroke: #1f77b4"/>
     <use xlink:href="#mab8fa7c5e3" x="83.009203" y="146.043492" style="fill: #1f77b4; stroke: #1f77b4"/>
     <use xlink:href="#mab8fa7c5e3" x="79.619096" y="136.486454" style="fill: #1f77b4; stroke: #1f77b4"/>
     <use xlink:href="#mab8fa7c5e3" x="81.24079" y="140.340458" style="fill: #1f77b4; stroke: #1f77b4"/>
     <use xlink:href="#mab8fa7c5e3" x="75.237365" y="134.511172" style="fill: #1f77b4; stroke: #1f77b4"/>
     <use xlink:href="#mab8fa7c5e3" x="74.547744" y="137.445561" style="fill: #1f77b4; stroke: #1f77b4"/>
     <use xlink:href="#mab8fa7c5e3" x="75.170652" y="130.807648" style="fill: #1f77b4; stroke: #1f77b4"/>
     <use xlink:href="#mab8fa7c5e3" x="74.877251" y="128.15111" style="fill: #1f77b4; stroke: #1f77b4"/>
     <use xlink:href="#mab8fa7c5e3" x="72.604221" y="122.755197" style="fill: #1f77b4; stroke: #1f77b4"/>
     <use xlink:href="#mab8fa7c5e3" x="69.449551" y="114.827317" style="fill: #1f77b4; stroke: #1f77b4"/>
     <use xlink:href="#mab8fa7c5e3" x="73.013032" y="119.184997" style="fill: #1f77b4; stroke: #1f77b4"/>
     <use xlink:href="#mab8fa7c5e3" x="71.239414" y="115.845874" style="fill: #1f77b4; stroke: #1f77b4"/>
     <use xlink:href="#mab8fa7c5e3" x="68.222601" y="114.997123" style="fill: #1f77b4; stroke: #1f77b4"/>
     <use xlink:href="#mab8fa7c5e3" x="66.268225" y="108.8117" style="fill: #1f77b4; stroke: #1f77b4"/>
     <use xlink:href="#mab8fa7c5e3" x="68.543728" y="102.884941" style="fill: #1f77b4; stroke: #1f77b4"/>
     <use xlink:href="#mab8fa7c5e3" x="63.62179" y="101.374612" style="fill: #1f77b4; stroke: #1f77b4"/>
     <use xlink:href="#mab8fa7c5e3" x="64.413346" y="95.846565" style="fill: #1f77b4; stroke: #1f77b4"/>
    </g>
   </g>
   <g id="line2d_15">
    <path d="M 388.276335 73.111693 
L 385.697488 83.866412 
L 382.920172 94.460373 
L 379.946827 104.881702 
L 376.997105 114.442294 
L 373.881026 123.833221 
L 370.600822 133.045552 
L 367.158769 142.070629 
L 363.557155 150.900094 
L 359.798255 159.525911 
L 355.884287 167.940395 
L 351.817371 176.13625 
L 347.599464 184.106598 
L 343.54915 191.300109 
L 339.371267 198.288917 
L 335.066619 205.068723 
L 330.635579 211.635701 
L 326.077946 217.98657 
L 321.392771 224.118655 
L 316.578105 230.029984 
L 312.016063 235.289631 
L 307.337014 240.359949 
L 302.535347 245.241483 
L 297.603156 249.935657 
L 292.529409 254.444876 
L 287.7411 258.418797 
L 282.804724 262.243685 
L 277.697973 265.923661 
L 272.389897 269.463113 
L 267.353289 272.562001 
L 262.068242 275.548616 
L 257.045533 278.13727 
L 252.313071 280.350828 
L 247.259248 282.464428 
L 242.500067 284.204653 
L 238.10121 285.580787 
L 234.153202 286.609918 
L 229.887113 287.483676 
L 226.194931 288.02296 
L 222.201555 288.360154 
L 218.97231 288.431455 
L 215.50783 288.29307 
L 211.771211 287.87711 
L 209.108012 287.400802 
L 206.290693 286.724262 
L 203.303906 285.802446 
L 200.131446 284.578906 
L 196.756781 282.982712 
L 193.164016 280.924549 
L 189.339554 278.291882 
L 187.337461 276.717178 
L 185.274843 274.943127 
L 183.152144 272.946391 
L 180.970806 270.700959 
L 178.73356 268.177939 
L 176.444789 265.345387 
L 174.110967 262.168199 
L 171.741186 258.608108 
L 169.347787 254.623826 
L 166.947095 250.171432 
L 164.560263 245.205062 
L 162.214202 239.678046 
L 159.942578 233.544617 
L 157.786795 226.762354 
L 155.796874 219.295504 
L 154.032068 211.11934 
L 152.560987 202.22559 
L 151.460964 192.628882 
L 150.816318 182.373895 
L 150.715207 171.542602 
L 151.244792 160.260608 
L 152.484677 148.701204 
L 154.498881 137.08549 
L 157.327076 125.677 
L 160.976282 114.769789 
L 165.414575 104.670016 
L 170.568384 95.672581 
L 176.324526 88.035886 
L 182.537269 81.958783 
L 189.039602 77.563777 
L 195.656939 74.889363 
L 202.220957 73.892421 
L 208.581415 74.459421 
L 214.614464 76.423611 
L 220.226866 79.584709 
L 225.356422 83.727905 
L 229.969461 88.639908 
L 234.056487 94.120896 
L 237.627013 99.992189 
L 240.704392 106.10016 
L 243.321163 112.317193 
L 245.515177 118.540606 
L 247.32658 124.690321 
L 248.795606 130.705923 
L 249.961055 136.543552 
L 250.859335 142.17291 
L 251.523924 147.574562 
L 251.985132 152.737577 
L 252.270084 157.657559 
L 252.402829 162.33501 
L 252.404542 166.774026 
L 252.08666 174.965096 
L 251.437768 182.301271 
L 250.549096 188.864302 
L 249.488725 194.736964 
L 248.30724 199.997698 
L 247.042124 204.718135 
L 245.721102 208.962272 
L 244.364644 212.786518 
L 242.295368 217.841734 
L 240.214391 222.202007 
L 238.143459 225.980874 
L 236.095743 229.270209 
L 234.078873 232.144565 
L 232.096902 234.6647 
L 229.511368 237.558602 
L 226.991183 240.00481 
L 224.53418 242.077095 
L 222.136935 243.833607 
L 219.218381 245.654836 
L 216.379116 247.125426 
L 213.611573 248.300229 
L 210.908807 249.222144 
L 207.742282 250.041952 
L 204.650709 250.592283 
L 201.626052 250.908985 
L 198.172801 251.020547 
L 194.792281 250.887573 
L 191.476993 250.537564 
L 187.760084 249.899526 
L 184.112793 249.03206 
L 180.529054 247.955507 
L 176.567263 246.514648 
L 172.674207 244.848417 
L 168.845553 242.971879 
L 164.662948 240.655119 
L 160.552173 238.107868 
L 156.510623 235.341715 
L 152.536422 232.366447 
L 148.241065 228.86213 
L 144.024585 225.124666 
L 139.88646 221.162595 
L 135.8266 216.983554 
L 131.487231 212.185286 
L 127.242016 207.145349 
L 123.091959 201.871462 
L 119.038307 196.370919 
L 115.082484 190.650691 
L 110.909228 184.213679 
L 106.854755 177.535089 
L 102.921297 170.623107 
L 99.111146 163.485818 
L 95.426636 156.13125 
L 91.601899 147.977143 
L 87.92851 139.590348 
L 84.409349 130.980916 
L 81.047242 122.158958 
L 77.84494 113.134662 
L 74.805107 103.9183 
L 71.930302 94.520239 
L 69.222975 84.950945 
L 68.850023 83.57054 
L 68.850023 83.57054 
" clip-path="url(#p27e30c65d9)" style="fill: none; stroke: #d62728; stroke-width: 1.5; stroke-linecap: square"/>
   </g>
   <g id="patch_3">
    <path d="M 47.389063 307.872 
L 47.389063 41.76 
" style="fill: none; stroke: #000000; stroke-width: 0.8; stroke-linejoin: miter; stroke-linecap: square"/>
   </g>
   <g id="patch_4">
    <path d="M 404.509063 307.872 
L 404.509063 41.76 
" style="fill: none; stroke: #000000; stroke-width: 0.8; stroke-linejoin: miter; stroke-linecap: square"/>
   </g>
   <g id="patch_5">
    <path d="M 47.389063 307.872 
L 404.509063 307.872 
" style="fill: none; stroke: #000000; stroke-width: 0.8; stroke-linejoin: miter; stroke-linecap: square"/>
   </g>
   <g id="patch_6">
    <path d="M 47.389063 41.76 
L 404.509063 41.76 
" style="fill: none; stroke: #000000; stroke-width: 0.8; stroke-linejoin: miter; stroke-linecap: square"/>
   </g>
   <g id="text_16">
    <g id="patch_7">
     <path d="M 422.365063 102.337163 
L 560.465063 102.337163 
Q 564.465063 102.337163 564.465063 98.337163 
L 564.465063 55.0656 
Q 564.465063 51.0656 560.465063 51.0656 
L 422.365063 51.0656 
Q 418.365063 51.0656 418.365063 55.0656 
L 418.365063 98.337163 
Q 418.365063 102.337163 422.365063 102.337163 
z
" style="fill: #ffffff; opacity: 0.5; stroke: #000000; stroke-linejoin: miter"/>
    </g>
    <!-- Summary -->
    <g transform="translate(422.365063 62.664038) scale(0.1 -0.1)">
     <defs>
      <path id="DejaVuSans-53" d="M 3425 4513 
L 3425 3897 
Q 3066 4069 2747 4153 
Q 2428 4238 2131 4238 
Q 1616 4238 1336 4038 
Q 1056 3838 1056 3469 
Q 1056 3159 1242 3001 
Q 1428 2844 1947 2747 
L 2328 2669 
Q 3034 2534 3370 2195 
Q 3706 1856 3706 1288 
Q 3706 609 3251 259 
Q 2797 -91 1919 -91 
Q 1588 -91 1214 -16 
Q 841 59 441 206 
L 441 856 
Q 825 641 1194 531 
Q 1563 422 1919 422 
Q 2459 422 2753 634 
Q 3047 847 3047 1241 
Q 3047 1584 2836 1778 
Q 2625 1972 2144 2069 
L 1759 2144 
Q 1053 2284 737 2584 
Q 422 2884 422 3419 
Q 422 4038 858 4394 
Q 1294 4750 2059 4750 
Q 2388 4750 2728 4690 
Q 3069 4631 3425 4513 
z
" transform="scale(0.015625)"/>
      <path id="DejaVuSans-75" d="M 544 1381 
L 544 3500 
L 1119 3500 
L 1119 1403 
Q 1119 906 1312 657 
Q 1506 409 1894 409 
Q 2359 409 2629 706 
Q 2900 1003 2900 1516 
L 2900 3500 
L 3475 3500 
L 3475 0 
L 2900 0 
L 2900 538 
Q 2691 219 2414 64 
Q 2138 -91 1772 -91 
Q 1169 -91 856 284 
Q 544 659 544 1381 
z
M 1991 3584 
L 1991 3584 
z
" transform="scale(0.015625)"/>
      <path id="DejaVuSans-61" d="M 2194 1759 
Q 1497 1759 1228 1600 
Q 959 1441 959 1056 
Q 959 750 1161 570 
Q 1363 391 1709 391 
Q 2188 391 2477 730 
Q 2766 1069 2766 1631 
L 2766 1759 
L 2194 1759 
z
M 3341 1997 
L 3341 0 
L 2766 0 
L 2766 531 
Q 2569 213 2275 61 
Q 1981 -91 1556 -91 
Q 1019 -91 701 211 
Q 384 513 384 1019 
Q 384 1609 779 1909 
Q 1175 2209 1959 2209 
L 2766 2209 
L 2766 2266 
Q 2766 2663 2505 2880 
Q 2244 3097 1772 3097 
Q 1472 3097 1187 3025 
Q 903 2953 641 2809 
L 641 3341 
Q 956 3463 1253 3523 
Q 1550 3584 1831 3584 
Q 2591 3584 2966 3190 
Q 3341 2797 3341 1997 
z
" transform="scale(0.015625)"/>
      <path id="DejaVuSans-72" d="M 2631 2963 
Q 2534 3019 2420 3045 
Q 2306 3072 2169 3072 
Q 1681 3072 1420 2755 
Q 1159 2438 1159 1844 
L 1159 0 
L 581 0 
L 581 3500 
L 1159 3500 
L 1159 2956 
Q 1341 3275 1631 3429 
Q 1922 3584 2338 3584 
Q 2397 3584 2469 3576 
Q 2541 3569 2628 3553 
L 2631 2963 
z
" transform="scale(0.015625)"/>
      <path id="DejaVuSans-79" d="M 2059 -325 
Q 1816 -950 1584 -1140 
Q 1353 -1331 966 -1331 
L 506 -1331 
L 506 -850 
L 844 -850 
Q 1081 -850 1212 -737 
Q 1344 -625 1503 -206 
L 1606 56 
L 191 3500 
L 800 3500 
L 1894 763 
L 2988 3500 
L 3597 3500 
L 2059 -325 
z
" transform="scale(0.015625)"/>
     </defs>
     <use xlink:href="#DejaVuSans-53"/>
     <use xlink:href="#DejaVuSans-75" x="63.476562"/>
     <use xlink:href="#DejaVuSans-6d" x="126.855469"/>
     <use xlink:href="#DejaVuSans-6d" x="224.267578"/>
     <use xlink:href="#DejaVuSans-61" x="321.679688"/>
     <use xlink:href="#DejaVuSans-72" x="382.958984"/>
     <use xlink:href="#DejaVuSans-79" x="424.072266"/>
    </g>
    <!-- $Q_I$: 13.63$\pm$0.62 k -->
    <g transform="translate(422.365063 73.86185) scale(0.1 -0.1)">
     <defs>
      <path id="DejaVuSans-Oblique-51" d="M 2309 -84 
Q 2275 -88 2237 -89 
Q 2200 -91 2125 -91 
Q 1250 -91 756 411 
Q 263 913 263 1797 
Q 263 2319 452 2844 
Q 641 3369 978 3788 
Q 1369 4269 1858 4509 
Q 2347 4750 2938 4750 
Q 3794 4750 4287 4245 
Q 4781 3741 4781 2869 
Q 4781 1928 4265 1147 
Q 3750 366 2919 44 
L 3553 -825 
L 2847 -825 
L 2309 -84 
z
M 2919 4238 
Q 2400 4238 2003 3986 
Q 1606 3734 1313 3219 
Q 1125 2891 1026 2522 
Q 928 2153 928 1778 
Q 928 1128 1239 775 
Q 1550 422 2119 422 
Q 2631 422 3032 676 
Q 3434 931 3719 1434 
Q 3909 1772 4009 2142 
Q 4109 2513 4109 2881 
Q 4109 3528 3796 3883 
Q 3484 4238 2919 4238 
z
" transform="scale(0.015625)"/>
      <path id="DejaVuSans-Oblique-49" d="M 1081 4666 
L 1716 4666 
L 806 0 
L 172 0 
L 1081 4666 
z
" transform="scale(0.015625)"/>
      <path id="DejaVuSans-3a" d="M 750 794 
L 1409 794 
L 1409 0 
L 750 0 
L 750 794 
z
M 750 3309 
L 1409 3309 
L 1409 2516 
L 750 2516 
L 750 3309 
z
" transform="scale(0.015625)"/>
      <path id="DejaVuSans-36" d="M 2113 2584 
Q 1688 2584 1439 2293 
Q 1191 2003 1191 1497 
Q 1191 994 1439 701 
Q 1688 409 2113 409 
Q 2538 409 2786 701 
Q 3034 994 3034 1497 
Q 3034 2003 2786 2293 
Q 2538 2584 2113 2584 
z
M 3366 4563 
L 3366 3988 
Q 3128 4100 2886 4159 
Q 2644 4219 2406 4219 
Q 1781 4219 1451 3797 
Q 1122 3375 1075 2522 
Q 1259 2794 1537 2939 
Q 1816 3084 2150 3084 
Q 2853 3084 3261 2657 
Q 3669 2231 3669 1497 
Q 3669 778 3244 343 
Q 2819 -91 2113 -91 
Q 1303 -91 875 529 
Q 447 1150 447 2328 
Q 447 3434 972 4092 
Q 1497 4750 2381 4750 
Q 2619 4750 2861 4703 
Q 3103 4656 3366 4563 
z
" transform="scale(0.015625)"/>
      <path id="DejaVuSans-b1" d="M 2944 4013 
L 2944 2803 
L 4684 2803 
L 4684 2272 
L 2944 2272 
L 2944 1063 
L 2419 1063 
L 2419 2272 
L 678 2272 
L 678 2803 
L 2419 2803 
L 2419 4013 
L 2944 4013 
z
M 678 531 
L 4684 531 
L 4684 0 
L 678 0 
L 678 531 
z
" transform="scale(0.015625)"/>
      <path id="DejaVuSans-6b" d="M 581 4863 
L 1159 4863 
L 1159 1991 
L 2875 3500 
L 3609 3500 
L 1753 1863 
L 3688 0 
L 2938 0 
L 1159 1709 
L 1159 0 
L 581 0 
L 581 4863 
z
" transform="scale(0.015625)"/>
     </defs>
     <use xlink:href="#DejaVuSans-Oblique-51" transform="translate(0 0.015625)"/>
     <use xlink:href="#DejaVuSans-Oblique-49" transform="translate(78.710938 -16.390625) scale(0.7)"/>
     <use xlink:href="#DejaVuSans-3a" transform="translate(102.089844 0.015625)"/>
     <use xlink:href="#DejaVuSans-20" transform="translate(135.78125 0.015625)"/>
     <use xlink:href="#DejaVuSans-31" transform="translate(167.568359 0.015625)"/>
     <use xlink:href="#DejaVuSans-33" transform="translate(231.191406 0.015625)"/>
     <use xlink:href="#DejaVuSans-2e" transform="translate(294.814453 0.015625)"/>
     <use xlink:href="#DejaVuSans-36" transform="translate(326.601562 0.015625)"/>
     <use xlink:href="#DejaVuSans-33" transform="translate(390.224609 0.015625)"/>
     <use xlink:href="#DejaVuSans-b1" transform="translate(453.847656 0.015625)"/>
     <use xlink:href="#DejaVuSans-30" transform="translate(537.636719 0.015625)"/>
     <use xlink:href="#DejaVuSans-2e" transform="translate(601.259766 0.015625)"/>
     <use xlink:href="#DejaVuSans-36" transform="translate(633.046875 0.015625)"/>
     <use xlink:href="#DejaVuSans-32" transform="translate(696.669922 0.015625)"/>
     <use xlink:href="#DejaVuSans-20" transform="translate(760.292969 0.015625)"/>
     <use xlink:href="#DejaVuSans-6b" transform="translate(792.080078 0.015625)"/>
    </g>
    <!-- $Q_C$: 11.03$\pm$0.24 k -->
    <g transform="translate(422.365063 85.059663) scale(0.1 -0.1)">
     <defs>
      <path id="DejaVuSans-Oblique-43" d="M 4447 4306 
L 4319 3641 
Q 4019 3944 3683 4091 
Q 3347 4238 2956 4238 
Q 2422 4238 2017 3981 
Q 1613 3725 1319 3200 
Q 1131 2863 1032 2486 
Q 934 2109 934 1728 
Q 934 1091 1264 756 
Q 1594 422 2222 422 
Q 2656 422 3056 561 
Q 3456 700 3834 978 
L 3688 231 
Q 3316 72 2936 -9 
Q 2556 -91 2175 -91 
Q 1278 -91 773 396 
Q 269 884 269 1753 
Q 269 2309 461 2846 
Q 653 3384 1013 3828 
Q 1394 4300 1883 4525 
Q 2372 4750 3022 4750 
Q 3422 4750 3780 4639 
Q 4138 4528 4447 4306 
z
" transform="scale(0.015625)"/>
     </defs>
     <use xlink:href="#DejaVuSans-Oblique-51" transform="translate(0 0.015625)"/>
     <use xlink:href="#DejaVuSans-Oblique-43" transform="translate(78.710938 -16.390625) scale(0.7)"/>
     <use xlink:href="#DejaVuSans-3a" transform="translate(130.322266 0.015625)"/>
     <use xlink:href="#DejaVuSans-20" transform="translate(164.013672 0.015625)"/>
     <use xlink:href="#DejaVuSans-31" transform="translate(195.800781 0.015625)"/>
     <use xlink:href="#DejaVuSans-31" transform="translate(259.423828 0.015625)"/>
     <use xlink:href="#DejaVuSans-2e" transform="translate(323.046875 0.015625)"/>
     <use xlink:href="#DejaVuSans-30" transform="translate(354.833984 0.015625)"/>
     <use xlink:href="#DejaVuSans-33" transform="translate(418.457031 0.015625)"/>
     <use xlink:href="#DejaVuSans-b1" transform="translate(482.080078 0.015625)"/>
     <use xlink:href="#DejaVuSans-30" transform="translate(565.869141 0.015625)"/>
     <use xlink:href="#DejaVuSans-2e" transform="translate(629.492188 0.015625)"/>
     <use xlink:href="#DejaVuSans-32" transform="translate(655.779297 0.015625)"/>
     <use xlink:href="#DejaVuSans-34" transform="translate(719.402344 0.015625)"/>
     <use xlink:href="#DejaVuSans-20" transform="translate(783.025391 0.015625)"/>
     <use xlink:href="#DejaVuSans-6b" transform="translate(814.8125 0.015625)"/>
    </g>
    <!-- $f_{res}$: 5.719800$\pm$1.2e-05 GHz -->
    <g transform="translate(422.365063 96.257475) scale(0.1 -0.1)">
     <defs>
      <path id="DejaVuSans-Oblique-66" d="M 3059 4863 
L 2969 4384 
L 2419 4384 
Q 2106 4384 1964 4261 
Q 1822 4138 1753 3809 
L 1691 3500 
L 2638 3500 
L 2553 3053 
L 1606 3053 
L 1013 0 
L 434 0 
L 1031 3053 
L 481 3053 
L 563 3500 
L 1113 3500 
L 1159 3744 
Q 1278 4363 1576 4613 
Q 1875 4863 2516 4863 
L 3059 4863 
z
" transform="scale(0.015625)"/>
      <path id="DejaVuSans-Oblique-72" d="M 2853 2969 
Q 2766 3016 2653 3041 
Q 2541 3066 2413 3066 
Q 1953 3066 1609 2717 
Q 1266 2369 1153 1784 
L 800 0 
L 225 0 
L 909 3500 
L 1484 3500 
L 1375 2956 
Q 1603 3259 1920 3421 
Q 2238 3584 2597 3584 
Q 2691 3584 2781 3573 
Q 2872 3563 2963 3538 
L 2853 2969 
z
" transform="scale(0.015625)"/>
      <path id="DejaVuSans-Oblique-65" d="M 3078 2063 
Q 3088 2113 3092 2166 
Q 3097 2219 3097 2272 
Q 3097 2653 2873 2875 
Q 2650 3097 2266 3097 
Q 1838 3097 1509 2826 
Q 1181 2556 1013 2059 
L 3078 2063 
z
M 3578 1613 
L 903 1613 
Q 884 1494 878 1425 
Q 872 1356 872 1306 
Q 872 872 1139 634 
Q 1406 397 1894 397 
Q 2269 397 2603 481 
Q 2938 566 3225 728 
L 3116 159 
Q 2806 34 2476 -28 
Q 2147 -91 1806 -91 
Q 1078 -91 686 257 
Q 294 606 294 1247 
Q 294 1794 489 2264 
Q 684 2734 1063 3103 
Q 1306 3334 1642 3459 
Q 1978 3584 2356 3584 
Q 2950 3584 3301 3228 
Q 3653 2872 3653 2272 
Q 3653 2128 3634 1964 
Q 3616 1800 3578 1613 
z
" transform="scale(0.015625)"/>
      <path id="DejaVuSans-Oblique-73" d="M 3200 3397 
L 3091 2853 
Q 2863 2978 2609 3040 
Q 2356 3103 2088 3103 
Q 1634 3103 1373 2948 
Q 1113 2794 1113 2528 
Q 1113 2219 1719 2053 
Q 1766 2041 1788 2034 
L 1972 1978 
Q 2547 1819 2739 1644 
Q 2931 1469 2931 1166 
Q 2931 609 2489 259 
Q 2047 -91 1331 -91 
Q 1053 -91 747 -37 
Q 441 16 72 128 
L 184 722 
Q 500 559 806 475 
Q 1113 391 1394 391 
Q 1816 391 2080 572 
Q 2344 753 2344 1031 
Q 2344 1331 1650 1516 
L 1591 1531 
L 1394 1581 
Q 956 1697 753 1886 
Q 550 2075 550 2369 
Q 550 2928 970 3256 
Q 1391 3584 2113 3584 
Q 2397 3584 2667 3537 
Q 2938 3491 3200 3397 
z
" transform="scale(0.015625)"/>
      <path id="DejaVuSans-37" d="M 525 4666 
L 3525 4666 
L 3525 4397 
L 1831 0 
L 1172 0 
L 2766 4134 
L 525 4134 
L 525 4666 
z
" transform="scale(0.015625)"/>
      <path id="DejaVuSans-39" d="M 703 97 
L 703 672 
Q 941 559 1184 500 
Q 1428 441 1663 441 
Q 2288 441 2617 861 
Q 2947 1281 2994 2138 
Q 2813 1869 2534 1725 
Q 2256 1581 1919 1581 
Q 1219 1581 811 2004 
Q 403 2428 403 3163 
Q 403 3881 828 4315 
Q 1253 4750 1959 4750 
Q 2769 4750 3195 4129 
Q 3622 3509 3622 2328 
Q 3622 1225 3098 567 
Q 2575 -91 1691 -91 
Q 1453 -91 1209 -44 
Q 966 3 703 97 
z
M 1959 2075 
Q 2384 2075 2632 2365 
Q 2881 2656 2881 3163 
Q 2881 3666 2632 3958 
Q 2384 4250 1959 4250 
Q 1534 4250 1286 3958 
Q 1038 3666 1038 3163 
Q 1038 2656 1286 2365 
Q 1534 2075 1959 2075 
z
" transform="scale(0.015625)"/>
      <path id="DejaVuSans-38" d="M 2034 2216 
Q 1584 2216 1326 1975 
Q 1069 1734 1069 1313 
Q 1069 891 1326 650 
Q 1584 409 2034 409 
Q 2484 409 2743 651 
Q 3003 894 3003 1313 
Q 3003 1734 2745 1975 
Q 2488 2216 2034 2216 
z
M 1403 2484 
Q 997 2584 770 2862 
Q 544 3141 544 3541 
Q 544 4100 942 4425 
Q 1341 4750 2034 4750 
Q 2731 4750 3128 4425 
Q 3525 4100 3525 3541 
Q 3525 3141 3298 2862 
Q 3072 2584 2669 2484 
Q 3125 2378 3379 2068 
Q 3634 1759 3634 1313 
Q 3634 634 3220 271 
Q 2806 -91 2034 -91 
Q 1263 -91 848 271 
Q 434 634 434 1313 
Q 434 1759 690 2068 
Q 947 2378 1403 2484 
z
M 1172 3481 
Q 1172 3119 1398 2916 
Q 1625 2713 2034 2713 
Q 2441 2713 2670 2916 
Q 2900 3119 2900 3481 
Q 2900 3844 2670 4047 
Q 2441 4250 2034 4250 
Q 1625 4250 1398 4047 
Q 1172 3844 1172 3481 
z
" transform="scale(0.015625)"/>
      <path id="DejaVuSans-47" d="M 3809 666 
L 3809 1919 
L 2778 1919 
L 2778 2438 
L 4434 2438 
L 4434 434 
Q 4069 175 3628 42 
Q 3188 -91 2688 -91 
Q 1594 -91 976 548 
Q 359 1188 359 2328 
Q 359 3472 976 4111 
Q 1594 4750 2688 4750 
Q 3144 4750 3555 4637 
Q 3966 4525 4313 4306 
L 4313 3634 
Q 3963 3931 3569 4081 
Q 3175 4231 2741 4231 
Q 1884 4231 1454 3753 
Q 1025 3275 1025 2328 
Q 1025 1384 1454 906 
Q 1884 428 2741 428 
Q 3075 428 3337 486 
Q 3600 544 3809 666 
z
" transform="scale(0.015625)"/>
      <path id="DejaVuSans-48" d="M 628 4666 
L 1259 4666 
L 1259 2753 
L 3553 2753 
L 3553 4666 
L 4184 4666 
L 4184 0 
L 3553 0 
L 3553 2222 
L 1259 2222 
L 1259 0 
L 628 0 
L 628 4666 
z
" transform="scale(0.015625)"/>
      <path id="DejaVuSans-7a" d="M 353 3500 
L 3084 3500 
L 3084 2975 
L 922 459 
L 3084 459 
L 3084 0 
L 275 0 
L 275 525 
L 2438 3041 
L 353 3041 
L 353 3500 
z
" transform="scale(0.015625)"/>
     </defs>
     <use xlink:href="#DejaVuSans-Oblique-66" transform="translate(0 0.015625)"/>
     <use xlink:href="#DejaVuSans-Oblique-72" transform="translate(35.205078 -16.390625) scale(0.7)"/>
     <use xlink:href="#DejaVuSans-Oblique-65" transform="translate(63.984375 -16.390625) scale(0.7)"/>
     <use xlink:href="#DejaVuSans-Oblique-73" transform="translate(107.050781 -16.390625) scale(0.7)"/>
     <use xlink:href="#DejaVuSans-3a" transform="translate(146.254883 0.015625)"/>
     <use xlink:href="#DejaVuSans-20" transform="translate(179.946289 0.015625)"/>
     <use xlink:href="#DejaVuSans-35" transform="translate(211.733398 0.015625)"/>
     <use xlink:href="#DejaVuSans-2e" transform="translate(275.356445 0.015625)"/>
     <use xlink:href="#DejaVuSans-37" transform="translate(299.393555 0.015625)"/>
     <use xlink:href="#DejaVuSans-31" transform="translate(363.016602 0.015625)"/>
     <use xlink:href="#DejaVuSans-39" transform="translate(426.639648 0.015625)"/>
     <use xlink:href="#DejaVuSans-38" transform="translate(490.262695 0.015625)"/>
     <use xlink:href="#DejaVuSans-30" transform="translate(553.885742 0.015625)"/>
     <use xlink:href="#DejaVuSans-30" transform="translate(617.508789 0.015625)"/>
     <use xlink:href="#DejaVuSans-b1" transform="translate(681.131836 0.015625)"/>
     <use xlink:href="#DejaVuSans-31" transform="translate(764.920898 0.015625)"/>
     <use xlink:href="#DejaVuSans-2e" transform="translate(828.543945 0.015625)"/>
     <use xlink:href="#DejaVuSans-32" transform="translate(854.831055 0.015625)"/>
     <use xlink:href="#DejaVuSans-65" transform="translate(918.454102 0.015625)"/>
     <use xlink:href="#DejaVuSans-2d" transform="translate(979.977539 0.015625)"/>
     <use xlink:href="#DejaVuSans-30" transform="translate(1016.061523 0.015625)"/>
     <use xlink:href="#DejaVuSans-35" transform="translate(1079.68457 0.015625)"/>
     <use xlink:href="#DejaVuSans-20" transform="translate(1143.307617 0.015625)"/>
     <use xlink:href="#DejaVuSans-47" transform="translate(1175.094727 0.015625)"/>
     <use xlink:href="#DejaVuSans-48" transform="translate(1252.584961 0.015625)"/>
     <use xlink:href="#DejaVuSans-7a" transform="translate(1327.780273 0.015625)"/>
    </g>
   </g>
  </g>
  <g id="text_17">
   <!-- S21 One-tone -->
   <g transform="translate(178.938125 16.318125) scale(0.12 -0.12)">
    <defs>
     <path id="DejaVuSans-4f" d="M 2522 4238 
Q 1834 4238 1429 3725 
Q 1025 3213 1025 2328 
Q 1025 1447 1429 934 
Q 1834 422 2522 422 
Q 3209 422 3611 934 
Q 4013 1447 4013 2328 
Q 4013 3213 3611 3725 
Q 3209 4238 2522 4238 
z
M 2522 4750 
Q 3503 4750 4090 4092 
Q 4678 3434 4678 2328 
Q 4678 1225 4090 567 
Q 3503 -91 2522 -91 
Q 1538 -91 948 565 
Q 359 1222 359 2328 
Q 359 3434 948 4092 
Q 1538 4750 2522 4750 
z
" transform="scale(0.015625)"/>
     <path id="DejaVuSans-6e" d="M 3513 2113 
L 3513 0 
L 2938 0 
L 2938 2094 
Q 2938 2591 2744 2837 
Q 2550 3084 2163 3084 
Q 1697 3084 1428 2787 
Q 1159 2491 1159 1978 
L 1159 0 
L 581 0 
L 581 3500 
L 1159 3500 
L 1159 2956 
Q 1366 3272 1645 3428 
Q 1925 3584 2291 3584 
Q 2894 3584 3203 3211 
Q 3513 2838 3513 2113 
z
" transform="scale(0.015625)"/>
     <path id="DejaVuSans-74" d="M 1172 4494 
L 1172 3500 
L 2356 3500 
L 2356 3053 
L 1172 3053 
L 1172 1153 
Q 1172 725 1289 603 
Q 1406 481 1766 481 
L 2356 481 
L 2356 0 
L 1766 0 
Q 1100 0 847 248 
Q 594 497 594 1153 
L 594 3053 
L 172 3053 
L 172 3500 
L 594 3500 
L 594 4494 
L 1172 4494 
z
" transform="scale(0.015625)"/>
     <path id="DejaVuSans-6f" d="M 1959 3097 
Q 1497 3097 1228 2736 
Q 959 2375 959 1747 
Q 959 1119 1226 758 
Q 1494 397 1959 397 
Q 2419 397 2687 759 
Q 2956 1122 2956 1747 
Q 2956 2369 2687 2733 
Q 2419 3097 1959 3097 
z
M 1959 3584 
Q 2709 3584 3137 3096 
Q 3566 2609 3566 1747 
Q 3566 888 3137 398 
Q 2709 -91 1959 -91 
Q 1206 -91 779 398 
Q 353 888 353 1747 
Q 353 2609 779 3096 
Q 1206 3584 1959 3584 
z
" transform="scale(0.015625)"/>
    </defs>
    <use xlink:href="#DejaVuSans-53"/>
    <use xlink:href="#DejaVuSans-32" x="63.476562"/>
    <use xlink:href="#DejaVuSans-31" x="127.099609"/>
    <use xlink:href="#DejaVuSans-20" x="190.722656"/>
    <use xlink:href="#DejaVuSans-4f" x="222.509766"/>
    <use xlink:href="#DejaVuSans-6e" x="301.220703"/>
    <use xlink:href="#DejaVuSans-65" x="364.599609"/>
    <use xlink:href="#DejaVuSans-2d" x="426.123047"/>
    <use xlink:href="#DejaVuSans-74" x="462.207031"/>
    <use xlink:href="#DejaVuSans-6f" x="501.416016"/>
    <use xlink:href="#DejaVuSans-6e" x="562.597656"/>
    <use xlink:href="#DejaVuSans-65" x="625.976562"/>
   </g>
   <!-- tuid: 20240226-104118-404-165d16 -->
   <g transform="translate(110.342188 29.7555) scale(0.12 -0.12)">
    <defs>
     <path id="DejaVuSans-69" d="M 603 3500 
L 1178 3500 
L 1178 0 
L 603 0 
L 603 3500 
z
M 603 4863 
L 1178 4863 
L 1178 4134 
L 603 4134 
L 603 4863 
z
" transform="scale(0.015625)"/>
     <path id="DejaVuSans-64" d="M 2906 2969 
L 2906 4863 
L 3481 4863 
L 3481 0 
L 2906 0 
L 2906 525 
Q 2725 213 2448 61 
Q 2172 -91 1784 -91 
Q 1150 -91 751 415 
Q 353 922 353 1747 
Q 353 2572 751 3078 
Q 1150 3584 1784 3584 
Q 2172 3584 2448 3432 
Q 2725 3281 2906 2969 
z
M 947 1747 
Q 947 1113 1208 752 
Q 1469 391 1925 391 
Q 2381 391 2643 752 
Q 2906 1113 2906 1747 
Q 2906 2381 2643 2742 
Q 2381 3103 1925 3103 
Q 1469 3103 1208 2742 
Q 947 2381 947 1747 
z
" transform="scale(0.015625)"/>
    </defs>
    <use xlink:href="#DejaVuSans-74"/>
    <use xlink:href="#DejaVuSans-75" x="39.208984"/>
    <use xlink:href="#DejaVuSans-69" x="102.587891"/>
    <use xlink:href="#DejaVuSans-64" x="130.371094"/>
    <use xlink:href="#DejaVuSans-3a" x="193.847656"/>
    <use xlink:href="#DejaVuSans-20" x="227.539062"/>
    <use xlink:href="#DejaVuSans-32" x="259.326172"/>
    <use xlink:href="#DejaVuSans-30" x="322.949219"/>
    <use xlink:href="#DejaVuSans-32" x="386.572266"/>
    <use xlink:href="#DejaVuSans-34" x="450.195312"/>
    <use xlink:href="#DejaVuSans-30" x="513.818359"/>
    <use xlink:href="#DejaVuSans-32" x="577.441406"/>
    <use xlink:href="#DejaVuSans-32" x="641.064453"/>
    <use xlink:href="#DejaVuSans-36" x="704.6875"/>
    <use xlink:href="#DejaVuSans-2d" x="768.310547"/>
    <use xlink:href="#DejaVuSans-31" x="804.394531"/>
    <use xlink:href="#DejaVuSans-30" x="868.017578"/>
    <use xlink:href="#DejaVuSans-34" x="931.640625"/>
    <use xlink:href="#DejaVuSans-31" x="995.263672"/>
    <use xlink:href="#DejaVuSans-31" x="1058.886719"/>
    <use xlink:href="#DejaVuSans-38" x="1122.509766"/>
    <use xlink:href="#DejaVuSans-2d" x="1186.132812"/>
    <use xlink:href="#DejaVuSans-34" x="1222.216797"/>
    <use xlink:href="#DejaVuSans-30" x="1285.839844"/>
    <use xlink:href="#DejaVuSans-34" x="1349.462891"/>
    <use xlink:href="#DejaVuSans-2d" x="1413.085938"/>
    <use xlink:href="#DejaVuSans-31" x="1449.169922"/>
    <use xlink:href="#DejaVuSans-36" x="1512.792969"/>
    <use xlink:href="#DejaVuSans-35" x="1576.416016"/>
    <use xlink:href="#DejaVuSans-64" x="1640.039062"/>
    <use xlink:href="#DejaVuSans-31" x="1703.515625"/>
    <use xlink:href="#DejaVuSans-36" x="1767.138672"/>
   </g>
  </g>
 </g>
 <defs>
  <clipPath id="p27e30c65d9">
   <rect x="47.389063" y="41.76" width="357.12" height="266.112"/>
  </clipPath>
 </defs>
</svg>
