<?xml version="1.0" encoding="utf-8" standalone="no"?>
<!DOCTYPE svg PUBLIC "-//W3C//DTD SVG 1.1//EN"
  "http://www.w3.org/Graphics/SVG/1.1/DTD/svg11.dtd">
<svg xmlns:xlink="http://www.w3.org/1999/xlink" width="558.624437pt" height="345.42825pt" viewBox="0 0 558.624437 345.42825" xmlns="http://www.w3.org/2000/svg" version="1.1">
 <metadata>
  <rdf:RDF xmlns:dc="http://purl.org/dc/elements/1.1/" xmlns:cc="http://creativecommons.org/ns#" xmlns:rdf="http://www.w3.org/1999/02/22-rdf-syntax-ns#">
   <cc:Work>
    <dc:type rdf:resource="http://purl.org/dc/dcmitype/StillImage"/>
    <dc:date>2023-12-22T12:35:27.620101</dc:date>
    <dc:format>image/svg+xml</dc:format>
    <dc:creator>
     <cc:Agent>
      <dc:title>Matplotlib v3.8.2, https://matplotlib.org/</dc:title>
     </cc:Agent>
    </dc:creator>
   </cc:Work>
  </rdf:RDF>
 </metadata>
 <defs>
  <style type="text/css">*{stroke-linejoin: round; stroke-linecap: butt}</style>
 </defs>
 <g id="figure_1">
  <g id="patch_1">
   <path d="M 0 345.42825 
L 558.624437 345.42825 
L 558.624437 -0 
L 0 -0 
L 0 345.42825 
z
" style="fill: none; opacity: 0"/>
  </g>
  <g id="axes_1">
   <g id="patch_2">
    <path d="M 37.848438 307.872 
L 394.968438 307.872 
L 394.968438 41.76 
L 37.848438 41.76 
z
" style="fill: #ffffff"/>
   </g>
   <g id="matplotlib.axis_1">
    <g id="xtick_1">
     <g id="line2d_1">
      <defs>
       <path id="m2586971d4c" d="M 0 0 
L 0 3.5 
" style="stroke: #000000; stroke-width: 0.8"/>
      </defs>
      <g>
       <use xlink:href="#m2586971d4c" x="60.485562" y="307.872" style="stroke: #000000; stroke-width: 0.8"/>
      </g>
     </g>
     <g id="text_1">
      <!-- -8 -->
      <g transform="translate(55.500406 322.470438) scale(0.1 -0.1)">
       <defs>
        <path id="DejaVuSans-2d" d="M 313 2009 
L 1997 2009 
L 1997 1497 
L 313 1497 
L 313 2009 
z
" transform="scale(0.015625)"/>
        <path id="DejaVuSans-38" d="M 2034 2216 
Q 1584 2216 1326 1975 
Q 1069 1734 1069 1313 
Q 1069 891 1326 650 
Q 1584 409 2034 409 
Q 2484 409 2743 651 
Q 3003 894 3003 1313 
Q 3003 1734 2745 1975 
Q 2488 2216 2034 2216 
z
M 1403 2484 
Q 997 2584 770 2862 
Q 544 3141 544 3541 
Q 544 4100 942 4425 
Q 1341 4750 2034 4750 
Q 2731 4750 3128 4425 
Q 3525 4100 3525 3541 
Q 3525 3141 3298 2862 
Q 3072 2584 2669 2484 
Q 3125 2378 3379 2068 
Q 3634 1759 3634 1313 
Q 3634 634 3220 271 
Q 2806 -91 2034 -91 
Q 1263 -91 848 271 
Q 434 634 434 1313 
Q 434 1759 690 2068 
Q 947 2378 1403 2484 
z
M 1172 3481 
Q 1172 3119 1398 2916 
Q 1625 2713 2034 2713 
Q 2441 2713 2670 2916 
Q 2900 3119 2900 3481 
Q 2900 3844 2670 4047 
Q 2441 4250 2034 4250 
Q 1625 4250 1398 4047 
Q 1172 3844 1172 3481 
z
" transform="scale(0.015625)"/>
       </defs>
       <use xlink:href="#DejaVuSans-2d"/>
       <use xlink:href="#DejaVuSans-38" x="36.083984"/>
      </g>
     </g>
    </g>
    <g id="xtick_2">
     <g id="line2d_2">
      <g>
       <use xlink:href="#m2586971d4c" x="102.020034" y="307.872" style="stroke: #000000; stroke-width: 0.8"/>
      </g>
     </g>
     <g id="text_2">
      <!-- -7 -->
      <g transform="translate(97.034877 322.470438) scale(0.1 -0.1)">
       <defs>
        <path id="DejaVuSans-37" d="M 525 4666 
L 3525 4666 
L 3525 4397 
L 1831 0 
L 1172 0 
L 2766 4134 
L 525 4134 
L 525 4666 
z
" transform="scale(0.015625)"/>
       </defs>
       <use xlink:href="#DejaVuSans-2d"/>
       <use xlink:href="#DejaVuSans-37" x="36.083984"/>
      </g>
     </g>
    </g>
    <g id="xtick_3">
     <g id="line2d_3">
      <g>
       <use xlink:href="#m2586971d4c" x="143.554505" y="307.872" style="stroke: #000000; stroke-width: 0.8"/>
      </g>
     </g>
     <g id="text_3">
      <!-- -6 -->
      <g transform="translate(138.569349 322.470438) scale(0.1 -0.1)">
       <defs>
        <path id="DejaVuSans-36" d="M 2113 2584 
Q 1688 2584 1439 2293 
Q 1191 2003 1191 1497 
Q 1191 994 1439 701 
Q 1688 409 2113 409 
Q 2538 409 2786 701 
Q 3034 994 3034 1497 
Q 3034 2003 2786 2293 
Q 2538 2584 2113 2584 
z
M 3366 4563 
L 3366 3988 
Q 3128 4100 2886 4159 
Q 2644 4219 2406 4219 
Q 1781 4219 1451 3797 
Q 1122 3375 1075 2522 
Q 1259 2794 1537 2939 
Q 1816 3084 2150 3084 
Q 2853 3084 3261 2657 
Q 3669 2231 3669 1497 
Q 3669 778 3244 343 
Q 2819 -91 2113 -91 
Q 1303 -91 875 529 
Q 447 1150 447 2328 
Q 447 3434 972 4092 
Q 1497 4750 2381 4750 
Q 2619 4750 2861 4703 
Q 3103 4656 3366 4563 
z
" transform="scale(0.015625)"/>
       </defs>
       <use xlink:href="#DejaVuSans-2d"/>
       <use xlink:href="#DejaVuSans-36" x="36.083984"/>
      </g>
     </g>
    </g>
    <g id="xtick_4">
     <g id="line2d_4">
      <g>
       <use xlink:href="#m2586971d4c" x="185.088976" y="307.872" style="stroke: #000000; stroke-width: 0.8"/>
      </g>
     </g>
     <g id="text_4">
      <!-- -5 -->
      <g transform="translate(180.10382 322.470438) scale(0.1 -0.1)">
       <defs>
        <path id="DejaVuSans-35" d="M 691 4666 
L 3169 4666 
L 3169 4134 
L 1269 4134 
L 1269 2991 
Q 1406 3038 1543 3061 
Q 1681 3084 1819 3084 
Q 2600 3084 3056 2656 
Q 3513 2228 3513 1497 
Q 3513 744 3044 326 
Q 2575 -91 1722 -91 
Q 1428 -91 1123 -41 
Q 819 9 494 109 
L 494 744 
Q 775 591 1075 516 
Q 1375 441 1709 441 
Q 2250 441 2565 725 
Q 2881 1009 2881 1497 
Q 2881 1984 2565 2268 
Q 2250 2553 1709 2553 
Q 1456 2553 1204 2497 
Q 953 2441 691 2322 
L 691 4666 
z
" transform="scale(0.015625)"/>
       </defs>
       <use xlink:href="#DejaVuSans-2d"/>
       <use xlink:href="#DejaVuSans-35" x="36.083984"/>
      </g>
     </g>
    </g>
    <g id="xtick_5">
     <g id="line2d_5">
      <g>
       <use xlink:href="#m2586971d4c" x="226.623447" y="307.872" style="stroke: #000000; stroke-width: 0.8"/>
      </g>
     </g>
     <g id="text_5">
      <!-- -4 -->
      <g transform="translate(221.638291 322.470438) scale(0.1 -0.1)">
       <defs>
        <path id="DejaVuSans-34" d="M 2419 4116 
L 825 1625 
L 2419 1625 
L 2419 4116 
z
M 2253 4666 
L 3047 4666 
L 3047 1625 
L 3713 1625 
L 3713 1100 
L 3047 1100 
L 3047 0 
L 2419 0 
L 2419 1100 
L 313 1100 
L 313 1709 
L 2253 4666 
z
" transform="scale(0.015625)"/>
       </defs>
       <use xlink:href="#DejaVuSans-2d"/>
       <use xlink:href="#DejaVuSans-34" x="36.083984"/>
      </g>
     </g>
    </g>
    <g id="xtick_6">
     <g id="line2d_6">
      <g>
       <use xlink:href="#m2586971d4c" x="268.157919" y="307.872" style="stroke: #000000; stroke-width: 0.8"/>
      </g>
     </g>
     <g id="text_6">
      <!-- -3 -->
      <g transform="translate(263.172762 322.470438) scale(0.1 -0.1)">
       <defs>
        <path id="DejaVuSans-33" d="M 2597 2516 
Q 3050 2419 3304 2112 
Q 3559 1806 3559 1356 
Q 3559 666 3084 287 
Q 2609 -91 1734 -91 
Q 1441 -91 1130 -33 
Q 819 25 488 141 
L 488 750 
Q 750 597 1062 519 
Q 1375 441 1716 441 
Q 2309 441 2620 675 
Q 2931 909 2931 1356 
Q 2931 1769 2642 2001 
Q 2353 2234 1838 2234 
L 1294 2234 
L 1294 2753 
L 1863 2753 
Q 2328 2753 2575 2939 
Q 2822 3125 2822 3475 
Q 2822 3834 2567 4026 
Q 2313 4219 1838 4219 
Q 1578 4219 1281 4162 
Q 984 4106 628 3988 
L 628 4550 
Q 988 4650 1302 4700 
Q 1616 4750 1894 4750 
Q 2613 4750 3031 4423 
Q 3450 4097 3450 3541 
Q 3450 3153 3228 2886 
Q 3006 2619 2597 2516 
z
" transform="scale(0.015625)"/>
       </defs>
       <use xlink:href="#DejaVuSans-2d"/>
       <use xlink:href="#DejaVuSans-33" x="36.083984"/>
      </g>
     </g>
    </g>
    <g id="xtick_7">
     <g id="line2d_7">
      <g>
       <use xlink:href="#m2586971d4c" x="309.69239" y="307.872" style="stroke: #000000; stroke-width: 0.8"/>
      </g>
     </g>
     <g id="text_7">
      <!-- -2 -->
      <g transform="translate(304.707234 322.470438) scale(0.1 -0.1)">
       <defs>
        <path id="DejaVuSans-32" d="M 1228 531 
L 3431 531 
L 3431 0 
L 469 0 
L 469 531 
Q 828 903 1448 1529 
Q 2069 2156 2228 2338 
Q 2531 2678 2651 2914 
Q 2772 3150 2772 3378 
Q 2772 3750 2511 3984 
Q 2250 4219 1831 4219 
Q 1534 4219 1204 4116 
Q 875 4013 500 3803 
L 500 4441 
Q 881 4594 1212 4672 
Q 1544 4750 1819 4750 
Q 2544 4750 2975 4387 
Q 3406 4025 3406 3419 
Q 3406 3131 3298 2873 
Q 3191 2616 2906 2266 
Q 2828 2175 2409 1742 
Q 1991 1309 1228 531 
z
" transform="scale(0.015625)"/>
       </defs>
       <use xlink:href="#DejaVuSans-2d"/>
       <use xlink:href="#DejaVuSans-32" x="36.083984"/>
      </g>
     </g>
    </g>
    <g id="xtick_8">
     <g id="line2d_8">
      <g>
       <use xlink:href="#m2586971d4c" x="351.226861" y="307.872" style="stroke: #000000; stroke-width: 0.8"/>
      </g>
     </g>
     <g id="text_8">
      <!-- -1 -->
      <g transform="translate(346.241705 322.470438) scale(0.1 -0.1)">
       <defs>
        <path id="DejaVuSans-31" d="M 794 531 
L 1825 531 
L 1825 4091 
L 703 3866 
L 703 4441 
L 1819 4666 
L 2450 4666 
L 2450 531 
L 3481 531 
L 3481 0 
L 794 0 
L 794 531 
z
" transform="scale(0.015625)"/>
       </defs>
       <use xlink:href="#DejaVuSans-2d"/>
       <use xlink:href="#DejaVuSans-31" x="36.083984"/>
      </g>
     </g>
    </g>
    <g id="xtick_9">
     <g id="line2d_9">
      <g>
       <use xlink:href="#m2586971d4c" x="392.761332" y="307.872" style="stroke: #000000; stroke-width: 0.8"/>
      </g>
     </g>
     <g id="text_9">
      <!-- 0 -->
      <g transform="translate(389.580082 322.470438) scale(0.1 -0.1)">
       <defs>
        <path id="DejaVuSans-30" d="M 2034 4250 
Q 1547 4250 1301 3770 
Q 1056 3291 1056 2328 
Q 1056 1369 1301 889 
Q 1547 409 2034 409 
Q 2525 409 2770 889 
Q 3016 1369 3016 2328 
Q 3016 3291 2770 3770 
Q 2525 4250 2034 4250 
z
M 2034 4750 
Q 2819 4750 3233 4129 
Q 3647 3509 3647 2328 
Q 3647 1150 3233 529 
Q 2819 -91 2034 -91 
Q 1250 -91 836 529 
Q 422 1150 422 2328 
Q 422 3509 836 4129 
Q 1250 4750 2034 4750 
z
" transform="scale(0.015625)"/>
       </defs>
       <use xlink:href="#DejaVuSans-30"/>
      </g>
     </g>
    </g>
    <g id="text_10">
     <!-- Re$(S_{21})$ [mV] -->
     <g transform="translate(184.408438 336.148562) scale(0.1 -0.1)">
      <defs>
       <path id="DejaVuSans-52" d="M 2841 2188 
Q 3044 2119 3236 1894 
Q 3428 1669 3622 1275 
L 4263 0 
L 3584 0 
L 2988 1197 
Q 2756 1666 2539 1819 
Q 2322 1972 1947 1972 
L 1259 1972 
L 1259 0 
L 628 0 
L 628 4666 
L 2053 4666 
Q 2853 4666 3247 4331 
Q 3641 3997 3641 3322 
Q 3641 2881 3436 2590 
Q 3231 2300 2841 2188 
z
M 1259 4147 
L 1259 2491 
L 2053 2491 
Q 2509 2491 2742 2702 
Q 2975 2913 2975 3322 
Q 2975 3731 2742 3939 
Q 2509 4147 2053 4147 
L 1259 4147 
z
" transform="scale(0.015625)"/>
       <path id="DejaVuSans-65" d="M 3597 1894 
L 3597 1613 
L 953 1613 
Q 991 1019 1311 708 
Q 1631 397 2203 397 
Q 2534 397 2845 478 
Q 3156 559 3463 722 
L 3463 178 
Q 3153 47 2828 -22 
Q 2503 -91 2169 -91 
Q 1331 -91 842 396 
Q 353 884 353 1716 
Q 353 2575 817 3079 
Q 1281 3584 2069 3584 
Q 2775 3584 3186 3129 
Q 3597 2675 3597 1894 
z
M 3022 2063 
Q 3016 2534 2758 2815 
Q 2500 3097 2075 3097 
Q 1594 3097 1305 2825 
Q 1016 2553 972 2059 
L 3022 2063 
z
" transform="scale(0.015625)"/>
       <path id="DejaVuSans-28" d="M 1984 4856 
Q 1566 4138 1362 3434 
Q 1159 2731 1159 2009 
Q 1159 1288 1364 580 
Q 1569 -128 1984 -844 
L 1484 -844 
Q 1016 -109 783 600 
Q 550 1309 550 2009 
Q 550 2706 781 3412 
Q 1013 4119 1484 4856 
L 1984 4856 
z
" transform="scale(0.015625)"/>
       <path id="DejaVuSans-Oblique-53" d="M 3859 4513 
L 3738 3897 
Q 3422 4066 3111 4152 
Q 2800 4238 2509 4238 
Q 1944 4238 1609 3991 
Q 1275 3744 1275 3334 
Q 1275 3109 1398 2989 
Q 1522 2869 2034 2731 
L 2413 2638 
Q 3053 2472 3303 2217 
Q 3553 1963 3553 1503 
Q 3553 797 2998 353 
Q 2444 -91 1538 -91 
Q 1166 -91 791 -17 
Q 416 56 38 206 
L 166 856 
Q 513 641 861 531 
Q 1209 422 1556 422 
Q 2147 422 2503 684 
Q 2859 947 2859 1369 
Q 2859 1650 2717 1795 
Q 2575 1941 2106 2059 
L 1728 2156 
Q 1081 2325 845 2545 
Q 609 2766 609 3163 
Q 609 3859 1145 4304 
Q 1681 4750 2541 4750 
Q 2875 4750 3203 4690 
Q 3531 4631 3859 4513 
z
" transform="scale(0.015625)"/>
       <path id="DejaVuSans-29" d="M 513 4856 
L 1013 4856 
Q 1481 4119 1714 3412 
Q 1947 2706 1947 2009 
Q 1947 1309 1714 600 
Q 1481 -109 1013 -844 
L 513 -844 
Q 928 -128 1133 580 
Q 1338 1288 1338 2009 
Q 1338 2731 1133 3434 
Q 928 4138 513 4856 
z
" transform="scale(0.015625)"/>
       <path id="DejaVuSans-20" transform="scale(0.015625)"/>
       <path id="DejaVuSans-5b" d="M 550 4863 
L 1875 4863 
L 1875 4416 
L 1125 4416 
L 1125 -397 
L 1875 -397 
L 1875 -844 
L 550 -844 
L 550 4863 
z
" transform="scale(0.015625)"/>
       <path id="DejaVuSans-6d" d="M 3328 2828 
Q 3544 3216 3844 3400 
Q 4144 3584 4550 3584 
Q 5097 3584 5394 3201 
Q 5691 2819 5691 2113 
L 5691 0 
L 5113 0 
L 5113 2094 
Q 5113 2597 4934 2840 
Q 4756 3084 4391 3084 
Q 3944 3084 3684 2787 
Q 3425 2491 3425 1978 
L 3425 0 
L 2847 0 
L 2847 2094 
Q 2847 2600 2669 2842 
Q 2491 3084 2119 3084 
Q 1678 3084 1418 2786 
Q 1159 2488 1159 1978 
L 1159 0 
L 581 0 
L 581 3500 
L 1159 3500 
L 1159 2956 
Q 1356 3278 1631 3431 
Q 1906 3584 2284 3584 
Q 2666 3584 2933 3390 
Q 3200 3197 3328 2828 
z
" transform="scale(0.015625)"/>
       <path id="DejaVuSans-56" d="M 1831 0 
L 50 4666 
L 709 4666 
L 2188 738 
L 3669 4666 
L 4325 4666 
L 2547 0 
L 1831 0 
z
" transform="scale(0.015625)"/>
       <path id="DejaVuSans-5d" d="M 1947 4863 
L 1947 -844 
L 622 -844 
L 622 -397 
L 1369 -397 
L 1369 4416 
L 622 4416 
L 622 4863 
L 1947 4863 
z
" transform="scale(0.015625)"/>
      </defs>
      <use xlink:href="#DejaVuSans-52" transform="translate(0 0.015625)"/>
      <use xlink:href="#DejaVuSans-65" transform="translate(69.482422 0.015625)"/>
      <use xlink:href="#DejaVuSans-28" transform="translate(131.005859 0.015625)"/>
      <use xlink:href="#DejaVuSans-Oblique-53" transform="translate(170.019531 0.015625)"/>
      <use xlink:href="#DejaVuSans-32" transform="translate(233.496094 -16.390625) scale(0.7)"/>
      <use xlink:href="#DejaVuSans-31" transform="translate(278.032227 -16.390625) scale(0.7)"/>
      <use xlink:href="#DejaVuSans-29" transform="translate(325.302734 0.015625)"/>
      <use xlink:href="#DejaVuSans-20" transform="translate(364.316406 0.015625)"/>
      <use xlink:href="#DejaVuSans-5b" transform="translate(396.103516 0.015625)"/>
      <use xlink:href="#DejaVuSans-6d" transform="translate(435.117188 0.015625)"/>
      <use xlink:href="#DejaVuSans-56" transform="translate(532.529297 0.015625)"/>
      <use xlink:href="#DejaVuSans-5d" transform="translate(600.9375 0.015625)"/>
     </g>
    </g>
   </g>
   <g id="matplotlib.axis_2">
    <g id="ytick_1">
     <g id="line2d_10">
      <defs>
       <path id="m362a967b65" d="M 0 0 
L -3.5 0 
" style="stroke: #000000; stroke-width: 0.8"/>
      </defs>
      <g>
       <use xlink:href="#m362a967b65" x="37.848438" y="264.322098" style="stroke: #000000; stroke-width: 0.8"/>
      </g>
     </g>
     <g id="text_11">
      <!-- -4 -->
      <g transform="translate(20.878125 268.121316) scale(0.1 -0.1)">
       <use xlink:href="#DejaVuSans-2d"/>
       <use xlink:href="#DejaVuSans-34" x="36.083984"/>
      </g>
     </g>
    </g>
    <g id="ytick_2">
     <g id="line2d_11">
      <g>
       <use xlink:href="#m362a967b65" x="37.848438" y="215.884182" style="stroke: #000000; stroke-width: 0.8"/>
      </g>
     </g>
     <g id="text_12">
      <!-- -2 -->
      <g transform="translate(20.878125 219.6834) scale(0.1 -0.1)">
       <use xlink:href="#DejaVuSans-2d"/>
       <use xlink:href="#DejaVuSans-32" x="36.083984"/>
      </g>
     </g>
    </g>
    <g id="ytick_3">
     <g id="line2d_12">
      <g>
       <use xlink:href="#m362a967b65" x="37.848438" y="167.446265" style="stroke: #000000; stroke-width: 0.8"/>
      </g>
     </g>
     <g id="text_13">
      <!-- 0 -->
      <g transform="translate(24.485938 171.245484) scale(0.1 -0.1)">
       <use xlink:href="#DejaVuSans-30"/>
      </g>
     </g>
    </g>
    <g id="ytick_4">
     <g id="line2d_13">
      <g>
       <use xlink:href="#m362a967b65" x="37.848438" y="119.008349" style="stroke: #000000; stroke-width: 0.8"/>
      </g>
     </g>
     <g id="text_14">
      <!-- 2 -->
      <g transform="translate(24.485938 122.807568) scale(0.1 -0.1)">
       <use xlink:href="#DejaVuSans-32"/>
      </g>
     </g>
    </g>
    <g id="ytick_5">
     <g id="line2d_14">
      <g>
       <use xlink:href="#m362a967b65" x="37.848438" y="70.570433" style="stroke: #000000; stroke-width: 0.8"/>
      </g>
     </g>
     <g id="text_15">
      <!-- 4 -->
      <g transform="translate(24.485938 74.369652) scale(0.1 -0.1)">
       <use xlink:href="#DejaVuSans-34"/>
      </g>
     </g>
    </g>
    <g id="text_16">
     <!-- Im$(S_{21})$ [mV] -->
     <g transform="translate(14.798438 206.466) rotate(-90) scale(0.1 -0.1)">
      <defs>
       <path id="DejaVuSans-49" d="M 628 4666 
L 1259 4666 
L 1259 0 
L 628 0 
L 628 4666 
z
" transform="scale(0.015625)"/>
      </defs>
      <use xlink:href="#DejaVuSans-49" transform="translate(0 0.015625)"/>
      <use xlink:href="#DejaVuSans-6d" transform="translate(25.867188 0.015625)"/>
      <use xlink:href="#DejaVuSans-28" transform="translate(123.279297 0.015625)"/>
      <use xlink:href="#DejaVuSans-Oblique-53" transform="translate(162.292969 0.015625)"/>
      <use xlink:href="#DejaVuSans-32" transform="translate(225.769531 -16.390625) scale(0.7)"/>
      <use xlink:href="#DejaVuSans-31" transform="translate(270.305664 -16.390625) scale(0.7)"/>
      <use xlink:href="#DejaVuSans-29" transform="translate(317.576172 0.015625)"/>
      <use xlink:href="#DejaVuSans-20" transform="translate(356.589844 0.015625)"/>
      <use xlink:href="#DejaVuSans-5b" transform="translate(388.376953 0.015625)"/>
      <use xlink:href="#DejaVuSans-6d" transform="translate(427.390625 0.015625)"/>
      <use xlink:href="#DejaVuSans-56" transform="translate(524.802734 0.015625)"/>
      <use xlink:href="#DejaVuSans-5d" transform="translate(593.210938 0.015625)"/>
     </g>
    </g>
   </g>
   <g id="line2d_15">
    <path d="M 227.116924 287.009728 
L 225.723108 287.372157 
L 221.625554 286.489586 
L 219.224306 284.563499 
L 217.1302 284.756706 
L 218.171896 284.539552 
L 214.264572 282.548565 
L 213.375825 281.490669 
L 210.60805 282.593919 
L 209.390571 281.172372 
L 207.611062 279.843354 
L 204.306146 279.82365 
L 203.941717 278.611472 
L 199.680649 277.671543 
L 197.344222 276.158491 
L 197.749543 276.823529 
L 193.996372 276.387288 
L 192.238844 274.070147 
L 189.184257 273.782967 
L 189.993155 273.903521 
L 188.903709 272.043406 
L 183.728639 270.736749 
L 183.341918 270.049461 
L 179.853861 269.560042 
L 177.135757 268.003403 
L 174.939212 268.521912 
L 174.71296 267.932659 
L 170.163742 265.561323 
L 168.54266 265.854924 
L 167.871643 263.724697 
L 164.40811 263.445199 
L 161.802199 261.593578 
L 160.910449 260.455741 
L 157.597295 260.061549 
L 154.864353 258.387715 
L 152.854966 257.465518 
L 150.640322 256.804479 
L 147.8538 255.486883 
L 144.161148 253.492347 
L 142.876968 253.380382 
L 143.77544 251.427681 
L 139.317488 251.059448 
L 136.512339 249.161156 
L 134.021962 248.094047 
L 131.893213 245.073709 
L 127.449789 241.55634 
L 123.062515 240.919698 
L 120.590142 240.031165 
L 116.981912 238.20036 
L 114.148153 236.517527 
L 114.579555 234.326549 
L 109.672765 233.354178 
L 108.127637 232.142189 
L 105.657212 228.933384 
L 99.943134 226.810911 
L 101.6646 225.273021 
L 92.728121 219.083608 
L 91.228389 216.058096 
L 85.899356 214.720622 
L 84.252816 211.840235 
L 81.892474 208.980828 
L 78.114629 204.604165 
L 76.066704 201.591321 
L 73.772589 197.626061 
L 69.446782 194.902889 
L 66.831727 189.161257 
L 62.159711 186.251377 
L 62.836775 179.755719 
L 57.225543 173.543748 
L 57.088461 168.776829 
L 54.081165 162.658287 
L 54.414766 153.581876 
L 55.95075 146.619287 
L 54.688511 140.017296 
L 55.510137 132.755844 
L 60.427627 121.238284 
L 69.870513 111.7622 
L 78.741454 101.229757 
L 88.393954 90.277093 
L 125.649056 73.242091 
L 147.312884 64.982846 
L 168.553143 58.973461 
L 195.829151 55.005346 
L 226.195482 53.856 
L 254.380243 56.352765 
L 282.564327 60.108041 
L 309.685951 70.114686 
L 330.96882 79.735485 
L 347.557854 92.649257 
L 361.593137 106.764631 
L 368.458019 121.975312 
L 372.22346 132.376315 
L 375.897904 146.200864 
L 367.23122 156.887036 
L 361.356808 167.260464 
L 358.817396 175.537874 
L 347.825512 182.44656 
L 341.927292 187.908118 
L 333.327689 194.212935 
L 324.885484 198.355225 
L 314.030344 203.353393 
L 307.140397 205.840314 
L 298.725815 208.024114 
L 291.683703 208.817807 
L 284.423632 211.063161 
L 274.311432 213.410196 
L 266.198595 213.558057 
L 259.680206 215.360735 
L 254.508099 214.077457 
L 250.313923 214.144834 
L 245.5995 214.495297 
L 240.247944 212.178361 
L 234.940622 213.33412 
L 231.572887 213.951066 
L 228.186905 213.872206 
L 223.71479 211.556801 
L 221.22705 211.352338 
L 218.634057 211.708235 
L 214.335832 209.880017 
L 206.628113 208.222756 
L 204.737994 206.520772 
L 200.994913 204.163878 
L 200.077043 204.21413 
L 195.914479 204.121237 
L 194.664508 203.838095 
L 191.620067 201.91058 
L 187.833011 201.356798 
L 188.610877 199.259446 
L 185.839586 197.713787 
L 182.41355 198.381151 
L 181.550518 196.596923 
L 178.714094 194.665913 
L 176.738187 192.167626 
L 175.568661 193.084389 
L 174.985867 192.272594 
L 168.406498 189.136711 
L 168.880563 188.04444 
L 168.806598 186.739148 
L 165.497299 184.870049 
L 164.866646 184.915119 
L 165.064315 183.785989 
L 162.674349 182.008615 
L 161.120414 180.151986 
L 160.368749 177.99487 
L 160.888887 178.084757 
L 159.272107 177.851023 
L 157.221355 175.747985 
L 159.290923 173.907675 
L 153.345156 172.709505 
L 155.330829 170.448635 
L 153.756158 170.987289 
L 152.478836 168.639987 
L 150.66298 166.786292 
L 150.028174 166.309974 
L 150.9257 165.494125 
L 151.155212 162.732273 
L 147.207239 161.944646 
L 147.668372 161.09324 
L 148.117101 159.126405 
L 147.8841 157.346364 
L 143.635464 154.748906 
L 146.420674 155.92645 
L 144.862033 154.258248 
L 142.367164 153.004289 
L 142.542027 151.098299 
L 142.564319 148.829983 
L 143.782894 149.511238 
L 142.98057 147.36096 
L 142.097775 145.628908 
L 139.583617 143.308313 
L 142.707272 143.098439 
L 138.7379 141.659097 
L 139.925119 139.965726 
L 136.811203 137.723637 
L 140.127414 137.795817 
L 141.543373 135.701596 
L 139.541278 135.616292 
L 140.406055 132.061291 
L 139.049236 132.254538 
L 140.292605 130.71746 
L 138.917389 129.418487 
L 138.921866 128.442984 
L 140.569123 125.514166 
L 142.149583 125.453085 
L 140.171092 123.56642 
L 139.179148 121.076935 
L 141.425351 119.9122 
L 141.471762 120.646286 
L 140.734747 118.859912 
L 140.261236 116.131756 
L 139.255373 114.36178 
L 139.570388 114.235049 
L 139.464594 114.211742 
L 141.245821 110.879811 
L 141.245821 110.879811 
" clip-path="url(#pd65ad4b090)" style="fill: none; stroke: #1f77b4; stroke-width: 1.5; stroke-linecap: square"/>
    <defs>
     <path id="mcc99321882" d="M 0 1.5 
C 0.397805 1.5 0.77937 1.341951 1.06066 1.06066 
C 1.341951 0.77937 1.5 0.397805 1.5 0 
C 1.5 -0.397805 1.341951 -0.77937 1.06066 -1.06066 
C 0.77937 -1.341951 0.397805 -1.5 0 -1.5 
C -0.397805 -1.5 -0.77937 -1.341951 -1.06066 -1.06066 
C -1.341951 -0.77937 -1.5 -0.397805 -1.5 0 
C -1.5 0.397805 -1.341951 0.77937 -1.06066 1.06066 
C -0.77937 1.341951 -0.397805 1.5 0 1.5 
z
" style="stroke: #1f77b4"/>
    </defs>
    <g clip-path="url(#pd65ad4b090)">
     <use xlink:href="#mcc99321882" x="227.116924" y="287.009728" style="fill: #1f77b4; stroke: #1f77b4"/>
     <use xlink:href="#mcc99321882" x="225.723108" y="287.372157" style="fill: #1f77b4; stroke: #1f77b4"/>
     <use xlink:href="#mcc99321882" x="221.625554" y="286.489586" style="fill: #1f77b4; stroke: #1f77b4"/>
     <use xlink:href="#mcc99321882" x="219.224306" y="284.563499" style="fill: #1f77b4; stroke: #1f77b4"/>
     <use xlink:href="#mcc99321882" x="217.1302" y="284.756706" style="fill: #1f77b4; stroke: #1f77b4"/>
     <use xlink:href="#mcc99321882" x="218.171896" y="284.539552" style="fill: #1f77b4; stroke: #1f77b4"/>
     <use xlink:href="#mcc99321882" x="214.264572" y="282.548565" style="fill: #1f77b4; stroke: #1f77b4"/>
     <use xlink:href="#mcc99321882" x="213.375825" y="281.490669" style="fill: #1f77b4; stroke: #1f77b4"/>
     <use xlink:href="#mcc99321882" x="210.60805" y="282.593919" style="fill: #1f77b4; stroke: #1f77b4"/>
     <use xlink:href="#mcc99321882" x="209.390571" y="281.172372" style="fill: #1f77b4; stroke: #1f77b4"/>
     <use xlink:href="#mcc99321882" x="207.611062" y="279.843354" style="fill: #1f77b4; stroke: #1f77b4"/>
     <use xlink:href="#mcc99321882" x="204.306146" y="279.82365" style="fill: #1f77b4; stroke: #1f77b4"/>
     <use xlink:href="#mcc99321882" x="203.941717" y="278.611472" style="fill: #1f77b4; stroke: #1f77b4"/>
     <use xlink:href="#mcc99321882" x="199.680649" y="277.671543" style="fill: #1f77b4; stroke: #1f77b4"/>
     <use xlink:href="#mcc99321882" x="197.344222" y="276.158491" style="fill: #1f77b4; stroke: #1f77b4"/>
     <use xlink:href="#mcc99321882" x="197.749543" y="276.823529" style="fill: #1f77b4; stroke: #1f77b4"/>
     <use xlink:href="#mcc99321882" x="193.996372" y="276.387288" style="fill: #1f77b4; stroke: #1f77b4"/>
     <use xlink:href="#mcc99321882" x="192.238844" y="274.070147" style="fill: #1f77b4; stroke: #1f77b4"/>
     <use xlink:href="#mcc99321882" x="189.184257" y="273.782967" style="fill: #1f77b4; stroke: #1f77b4"/>
     <use xlink:href="#mcc99321882" x="189.993155" y="273.903521" style="fill: #1f77b4; stroke: #1f77b4"/>
     <use xlink:href="#mcc99321882" x="188.903709" y="272.043406" style="fill: #1f77b4; stroke: #1f77b4"/>
     <use xlink:href="#mcc99321882" x="183.728639" y="270.736749" style="fill: #1f77b4; stroke: #1f77b4"/>
     <use xlink:href="#mcc99321882" x="183.341918" y="270.049461" style="fill: #1f77b4; stroke: #1f77b4"/>
     <use xlink:href="#mcc99321882" x="179.853861" y="269.560042" style="fill: #1f77b4; stroke: #1f77b4"/>
     <use xlink:href="#mcc99321882" x="177.135757" y="268.003403" style="fill: #1f77b4; stroke: #1f77b4"/>
     <use xlink:href="#mcc99321882" x="174.939212" y="268.521912" style="fill: #1f77b4; stroke: #1f77b4"/>
     <use xlink:href="#mcc99321882" x="174.71296" y="267.932659" style="fill: #1f77b4; stroke: #1f77b4"/>
     <use xlink:href="#mcc99321882" x="170.163742" y="265.561323" style="fill: #1f77b4; stroke: #1f77b4"/>
     <use xlink:href="#mcc99321882" x="168.54266" y="265.854924" style="fill: #1f77b4; stroke: #1f77b4"/>
     <use xlink:href="#mcc99321882" x="167.871643" y="263.724697" style="fill: #1f77b4; stroke: #1f77b4"/>
     <use xlink:href="#mcc99321882" x="164.40811" y="263.445199" style="fill: #1f77b4; stroke: #1f77b4"/>
     <use xlink:href="#mcc99321882" x="161.802199" y="261.593578" style="fill: #1f77b4; stroke: #1f77b4"/>
     <use xlink:href="#mcc99321882" x="160.910449" y="260.455741" style="fill: #1f77b4; stroke: #1f77b4"/>
     <use xlink:href="#mcc99321882" x="157.597295" y="260.061549" style="fill: #1f77b4; stroke: #1f77b4"/>
     <use xlink:href="#mcc99321882" x="154.864353" y="258.387715" style="fill: #1f77b4; stroke: #1f77b4"/>
     <use xlink:href="#mcc99321882" x="152.854966" y="257.465518" style="fill: #1f77b4; stroke: #1f77b4"/>
     <use xlink:href="#mcc99321882" x="150.640322" y="256.804479" style="fill: #1f77b4; stroke: #1f77b4"/>
     <use xlink:href="#mcc99321882" x="147.8538" y="255.486883" style="fill: #1f77b4; stroke: #1f77b4"/>
     <use xlink:href="#mcc99321882" x="144.161148" y="253.492347" style="fill: #1f77b4; stroke: #1f77b4"/>
     <use xlink:href="#mcc99321882" x="142.876968" y="253.380382" style="fill: #1f77b4; stroke: #1f77b4"/>
     <use xlink:href="#mcc99321882" x="143.77544" y="251.427681" style="fill: #1f77b4; stroke: #1f77b4"/>
     <use xlink:href="#mcc99321882" x="139.317488" y="251.059448" style="fill: #1f77b4; stroke: #1f77b4"/>
     <use xlink:href="#mcc99321882" x="136.512339" y="249.161156" style="fill: #1f77b4; stroke: #1f77b4"/>
     <use xlink:href="#mcc99321882" x="134.021962" y="248.094047" style="fill: #1f77b4; stroke: #1f77b4"/>
     <use xlink:href="#mcc99321882" x="132.398796" y="245.755957" style="fill: #1f77b4; stroke: #1f77b4"/>
     <use xlink:href="#mcc99321882" x="131.893213" y="245.073709" style="fill: #1f77b4; stroke: #1f77b4"/>
     <use xlink:href="#mcc99321882" x="127.449789" y="241.55634" style="fill: #1f77b4; stroke: #1f77b4"/>
     <use xlink:href="#mcc99321882" x="123.062515" y="240.919698" style="fill: #1f77b4; stroke: #1f77b4"/>
     <use xlink:href="#mcc99321882" x="120.590142" y="240.031165" style="fill: #1f77b4; stroke: #1f77b4"/>
     <use xlink:href="#mcc99321882" x="116.981912" y="238.20036" style="fill: #1f77b4; stroke: #1f77b4"/>
     <use xlink:href="#mcc99321882" x="114.148153" y="236.517527" style="fill: #1f77b4; stroke: #1f77b4"/>
     <use xlink:href="#mcc99321882" x="114.579555" y="234.326549" style="fill: #1f77b4; stroke: #1f77b4"/>
     <use xlink:href="#mcc99321882" x="109.672765" y="233.354178" style="fill: #1f77b4; stroke: #1f77b4"/>
     <use xlink:href="#mcc99321882" x="108.127637" y="232.142189" style="fill: #1f77b4; stroke: #1f77b4"/>
     <use xlink:href="#mcc99321882" x="105.657212" y="228.933384" style="fill: #1f77b4; stroke: #1f77b4"/>
     <use xlink:href="#mcc99321882" x="99.943134" y="226.810911" style="fill: #1f77b4; stroke: #1f77b4"/>
     <use xlink:href="#mcc99321882" x="101.6646" y="225.273021" style="fill: #1f77b4; stroke: #1f77b4"/>
     <use xlink:href="#mcc99321882" x="97.629473" y="222.530383" style="fill: #1f77b4; stroke: #1f77b4"/>
     <use xlink:href="#mcc99321882" x="92.728121" y="219.083608" style="fill: #1f77b4; stroke: #1f77b4"/>
     <use xlink:href="#mcc99321882" x="91.228389" y="216.058096" style="fill: #1f77b4; stroke: #1f77b4"/>
     <use xlink:href="#mcc99321882" x="85.899356" y="214.720622" style="fill: #1f77b4; stroke: #1f77b4"/>
     <use xlink:href="#mcc99321882" x="84.252816" y="211.840235" style="fill: #1f77b4; stroke: #1f77b4"/>
     <use xlink:href="#mcc99321882" x="81.892474" y="208.980828" style="fill: #1f77b4; stroke: #1f77b4"/>
     <use xlink:href="#mcc99321882" x="78.114629" y="204.604165" style="fill: #1f77b4; stroke: #1f77b4"/>
     <use xlink:href="#mcc99321882" x="76.066704" y="201.591321" style="fill: #1f77b4; stroke: #1f77b4"/>
     <use xlink:href="#mcc99321882" x="73.772589" y="197.626061" style="fill: #1f77b4; stroke: #1f77b4"/>
     <use xlink:href="#mcc99321882" x="69.446782" y="194.902889" style="fill: #1f77b4; stroke: #1f77b4"/>
     <use xlink:href="#mcc99321882" x="66.831727" y="189.161257" style="fill: #1f77b4; stroke: #1f77b4"/>
     <use xlink:href="#mcc99321882" x="62.159711" y="186.251377" style="fill: #1f77b4; stroke: #1f77b4"/>
     <use xlink:href="#mcc99321882" x="62.836775" y="179.755719" style="fill: #1f77b4; stroke: #1f77b4"/>
     <use xlink:href="#mcc99321882" x="57.225543" y="173.543748" style="fill: #1f77b4; stroke: #1f77b4"/>
     <use xlink:href="#mcc99321882" x="57.088461" y="168.776829" style="fill: #1f77b4; stroke: #1f77b4"/>
     <use xlink:href="#mcc99321882" x="54.081165" y="162.658287" style="fill: #1f77b4; stroke: #1f77b4"/>
     <use xlink:href="#mcc99321882" x="54.414766" y="153.581876" style="fill: #1f77b4; stroke: #1f77b4"/>
     <use xlink:href="#mcc99321882" x="55.95075" y="146.619287" style="fill: #1f77b4; stroke: #1f77b4"/>
     <use xlink:href="#mcc99321882" x="54.688511" y="140.017296" style="fill: #1f77b4; stroke: #1f77b4"/>
     <use xlink:href="#mcc99321882" x="55.510137" y="132.755844" style="fill: #1f77b4; stroke: #1f77b4"/>
     <use xlink:href="#mcc99321882" x="60.427627" y="121.238284" style="fill: #1f77b4; stroke: #1f77b4"/>
     <use xlink:href="#mcc99321882" x="69.870513" y="111.7622" style="fill: #1f77b4; stroke: #1f77b4"/>
     <use xlink:href="#mcc99321882" x="78.741454" y="101.229757" style="fill: #1f77b4; stroke: #1f77b4"/>
     <use xlink:href="#mcc99321882" x="88.393954" y="90.277093" style="fill: #1f77b4; stroke: #1f77b4"/>
     <use xlink:href="#mcc99321882" x="103.901374" y="83.193886" style="fill: #1f77b4; stroke: #1f77b4"/>
     <use xlink:href="#mcc99321882" x="125.649056" y="73.242091" style="fill: #1f77b4; stroke: #1f77b4"/>
     <use xlink:href="#mcc99321882" x="147.312884" y="64.982846" style="fill: #1f77b4; stroke: #1f77b4"/>
     <use xlink:href="#mcc99321882" x="168.553143" y="58.973461" style="fill: #1f77b4; stroke: #1f77b4"/>
     <use xlink:href="#mcc99321882" x="195.829151" y="55.005346" style="fill: #1f77b4; stroke: #1f77b4"/>
     <use xlink:href="#mcc99321882" x="226.195482" y="53.856" style="fill: #1f77b4; stroke: #1f77b4"/>
     <use xlink:href="#mcc99321882" x="254.380243" y="56.352765" style="fill: #1f77b4; stroke: #1f77b4"/>
     <use xlink:href="#mcc99321882" x="282.564327" y="60.108041" style="fill: #1f77b4; stroke: #1f77b4"/>
     <use xlink:href="#mcc99321882" x="309.685951" y="70.114686" style="fill: #1f77b4; stroke: #1f77b4"/>
     <use xlink:href="#mcc99321882" x="330.96882" y="79.735485" style="fill: #1f77b4; stroke: #1f77b4"/>
     <use xlink:href="#mcc99321882" x="347.557854" y="92.649257" style="fill: #1f77b4; stroke: #1f77b4"/>
     <use xlink:href="#mcc99321882" x="361.593137" y="106.764631" style="fill: #1f77b4; stroke: #1f77b4"/>
     <use xlink:href="#mcc99321882" x="368.458019" y="121.975312" style="fill: #1f77b4; stroke: #1f77b4"/>
     <use xlink:href="#mcc99321882" x="372.22346" y="132.376315" style="fill: #1f77b4; stroke: #1f77b4"/>
     <use xlink:href="#mcc99321882" x="375.897904" y="146.200864" style="fill: #1f77b4; stroke: #1f77b4"/>
     <use xlink:href="#mcc99321882" x="367.23122" y="156.887036" style="fill: #1f77b4; stroke: #1f77b4"/>
     <use xlink:href="#mcc99321882" x="361.356808" y="167.260464" style="fill: #1f77b4; stroke: #1f77b4"/>
     <use xlink:href="#mcc99321882" x="358.817396" y="175.537874" style="fill: #1f77b4; stroke: #1f77b4"/>
     <use xlink:href="#mcc99321882" x="347.825512" y="182.44656" style="fill: #1f77b4; stroke: #1f77b4"/>
     <use xlink:href="#mcc99321882" x="341.927292" y="187.908118" style="fill: #1f77b4; stroke: #1f77b4"/>
     <use xlink:href="#mcc99321882" x="333.327689" y="194.212935" style="fill: #1f77b4; stroke: #1f77b4"/>
     <use xlink:href="#mcc99321882" x="324.885484" y="198.355225" style="fill: #1f77b4; stroke: #1f77b4"/>
     <use xlink:href="#mcc99321882" x="314.030344" y="203.353393" style="fill: #1f77b4; stroke: #1f77b4"/>
     <use xlink:href="#mcc99321882" x="307.140397" y="205.840314" style="fill: #1f77b4; stroke: #1f77b4"/>
     <use xlink:href="#mcc99321882" x="298.725815" y="208.024114" style="fill: #1f77b4; stroke: #1f77b4"/>
     <use xlink:href="#mcc99321882" x="291.683703" y="208.817807" style="fill: #1f77b4; stroke: #1f77b4"/>
     <use xlink:href="#mcc99321882" x="284.423632" y="211.063161" style="fill: #1f77b4; stroke: #1f77b4"/>
     <use xlink:href="#mcc99321882" x="279.165142" y="212.227383" style="fill: #1f77b4; stroke: #1f77b4"/>
     <use xlink:href="#mcc99321882" x="274.311432" y="213.410196" style="fill: #1f77b4; stroke: #1f77b4"/>
     <use xlink:href="#mcc99321882" x="266.198595" y="213.558057" style="fill: #1f77b4; stroke: #1f77b4"/>
     <use xlink:href="#mcc99321882" x="259.680206" y="215.360735" style="fill: #1f77b4; stroke: #1f77b4"/>
     <use xlink:href="#mcc99321882" x="254.508099" y="214.077457" style="fill: #1f77b4; stroke: #1f77b4"/>
     <use xlink:href="#mcc99321882" x="250.313923" y="214.144834" style="fill: #1f77b4; stroke: #1f77b4"/>
     <use xlink:href="#mcc99321882" x="245.5995" y="214.495297" style="fill: #1f77b4; stroke: #1f77b4"/>
     <use xlink:href="#mcc99321882" x="240.247944" y="212.178361" style="fill: #1f77b4; stroke: #1f77b4"/>
     <use xlink:href="#mcc99321882" x="234.940622" y="213.33412" style="fill: #1f77b4; stroke: #1f77b4"/>
     <use xlink:href="#mcc99321882" x="231.572887" y="213.951066" style="fill: #1f77b4; stroke: #1f77b4"/>
     <use xlink:href="#mcc99321882" x="228.186905" y="213.872206" style="fill: #1f77b4; stroke: #1f77b4"/>
     <use xlink:href="#mcc99321882" x="223.71479" y="211.556801" style="fill: #1f77b4; stroke: #1f77b4"/>
     <use xlink:href="#mcc99321882" x="221.22705" y="211.352338" style="fill: #1f77b4; stroke: #1f77b4"/>
     <use xlink:href="#mcc99321882" x="218.634057" y="211.708235" style="fill: #1f77b4; stroke: #1f77b4"/>
     <use xlink:href="#mcc99321882" x="214.335832" y="209.880017" style="fill: #1f77b4; stroke: #1f77b4"/>
     <use xlink:href="#mcc99321882" x="209.140512" y="208.694838" style="fill: #1f77b4; stroke: #1f77b4"/>
     <use xlink:href="#mcc99321882" x="206.628113" y="208.222756" style="fill: #1f77b4; stroke: #1f77b4"/>
     <use xlink:href="#mcc99321882" x="204.737994" y="206.520772" style="fill: #1f77b4; stroke: #1f77b4"/>
     <use xlink:href="#mcc99321882" x="200.994913" y="204.163878" style="fill: #1f77b4; stroke: #1f77b4"/>
     <use xlink:href="#mcc99321882" x="200.077043" y="204.21413" style="fill: #1f77b4; stroke: #1f77b4"/>
     <use xlink:href="#mcc99321882" x="195.914479" y="204.121237" style="fill: #1f77b4; stroke: #1f77b4"/>
     <use xlink:href="#mcc99321882" x="194.664508" y="203.838095" style="fill: #1f77b4; stroke: #1f77b4"/>
     <use xlink:href="#mcc99321882" x="191.620067" y="201.91058" style="fill: #1f77b4; stroke: #1f77b4"/>
     <use xlink:href="#mcc99321882" x="187.833011" y="201.356798" style="fill: #1f77b4; stroke: #1f77b4"/>
     <use xlink:href="#mcc99321882" x="188.610877" y="199.259446" style="fill: #1f77b4; stroke: #1f77b4"/>
     <use xlink:href="#mcc99321882" x="185.839586" y="197.713787" style="fill: #1f77b4; stroke: #1f77b4"/>
     <use xlink:href="#mcc99321882" x="182.41355" y="198.381151" style="fill: #1f77b4; stroke: #1f77b4"/>
     <use xlink:href="#mcc99321882" x="181.550518" y="196.596923" style="fill: #1f77b4; stroke: #1f77b4"/>
     <use xlink:href="#mcc99321882" x="178.714094" y="194.665913" style="fill: #1f77b4; stroke: #1f77b4"/>
     <use xlink:href="#mcc99321882" x="176.738187" y="192.167626" style="fill: #1f77b4; stroke: #1f77b4"/>
     <use xlink:href="#mcc99321882" x="175.568661" y="193.084389" style="fill: #1f77b4; stroke: #1f77b4"/>
     <use xlink:href="#mcc99321882" x="174.985867" y="192.272594" style="fill: #1f77b4; stroke: #1f77b4"/>
     <use xlink:href="#mcc99321882" x="171.463492" y="190.635439" style="fill: #1f77b4; stroke: #1f77b4"/>
     <use xlink:href="#mcc99321882" x="168.406498" y="189.136711" style="fill: #1f77b4; stroke: #1f77b4"/>
     <use xlink:href="#mcc99321882" x="168.880563" y="188.04444" style="fill: #1f77b4; stroke: #1f77b4"/>
     <use xlink:href="#mcc99321882" x="168.806598" y="186.739148" style="fill: #1f77b4; stroke: #1f77b4"/>
     <use xlink:href="#mcc99321882" x="165.497299" y="184.870049" style="fill: #1f77b4; stroke: #1f77b4"/>
     <use xlink:href="#mcc99321882" x="164.866646" y="184.915119" style="fill: #1f77b4; stroke: #1f77b4"/>
     <use xlink:href="#mcc99321882" x="165.064315" y="183.785989" style="fill: #1f77b4; stroke: #1f77b4"/>
     <use xlink:href="#mcc99321882" x="162.674349" y="182.008615" style="fill: #1f77b4; stroke: #1f77b4"/>
     <use xlink:href="#mcc99321882" x="161.120414" y="180.151986" style="fill: #1f77b4; stroke: #1f77b4"/>
     <use xlink:href="#mcc99321882" x="160.368749" y="177.99487" style="fill: #1f77b4; stroke: #1f77b4"/>
     <use xlink:href="#mcc99321882" x="160.888887" y="178.084757" style="fill: #1f77b4; stroke: #1f77b4"/>
     <use xlink:href="#mcc99321882" x="159.272107" y="177.851023" style="fill: #1f77b4; stroke: #1f77b4"/>
     <use xlink:href="#mcc99321882" x="157.221355" y="175.747985" style="fill: #1f77b4; stroke: #1f77b4"/>
     <use xlink:href="#mcc99321882" x="159.290923" y="173.907675" style="fill: #1f77b4; stroke: #1f77b4"/>
     <use xlink:href="#mcc99321882" x="153.345156" y="172.709505" style="fill: #1f77b4; stroke: #1f77b4"/>
     <use xlink:href="#mcc99321882" x="155.330829" y="170.448635" style="fill: #1f77b4; stroke: #1f77b4"/>
     <use xlink:href="#mcc99321882" x="153.756158" y="170.987289" style="fill: #1f77b4; stroke: #1f77b4"/>
     <use xlink:href="#mcc99321882" x="152.478836" y="168.639987" style="fill: #1f77b4; stroke: #1f77b4"/>
     <use xlink:href="#mcc99321882" x="150.66298" y="166.786292" style="fill: #1f77b4; stroke: #1f77b4"/>
     <use xlink:href="#mcc99321882" x="150.028174" y="166.309974" style="fill: #1f77b4; stroke: #1f77b4"/>
     <use xlink:href="#mcc99321882" x="150.9257" y="165.494125" style="fill: #1f77b4; stroke: #1f77b4"/>
     <use xlink:href="#mcc99321882" x="151.155212" y="162.732273" style="fill: #1f77b4; stroke: #1f77b4"/>
     <use xlink:href="#mcc99321882" x="147.207239" y="161.944646" style="fill: #1f77b4; stroke: #1f77b4"/>
     <use xlink:href="#mcc99321882" x="147.668372" y="161.09324" style="fill: #1f77b4; stroke: #1f77b4"/>
     <use xlink:href="#mcc99321882" x="148.117101" y="159.126405" style="fill: #1f77b4; stroke: #1f77b4"/>
     <use xlink:href="#mcc99321882" x="147.8841" y="157.346364" style="fill: #1f77b4; stroke: #1f77b4"/>
     <use xlink:href="#mcc99321882" x="143.635464" y="154.748906" style="fill: #1f77b4; stroke: #1f77b4"/>
     <use xlink:href="#mcc99321882" x="146.420674" y="155.92645" style="fill: #1f77b4; stroke: #1f77b4"/>
     <use xlink:href="#mcc99321882" x="144.862033" y="154.258248" style="fill: #1f77b4; stroke: #1f77b4"/>
     <use xlink:href="#mcc99321882" x="142.367164" y="153.004289" style="fill: #1f77b4; stroke: #1f77b4"/>
     <use xlink:href="#mcc99321882" x="142.542027" y="151.098299" style="fill: #1f77b4; stroke: #1f77b4"/>
     <use xlink:href="#mcc99321882" x="142.564319" y="148.829983" style="fill: #1f77b4; stroke: #1f77b4"/>
     <use xlink:href="#mcc99321882" x="143.782894" y="149.511238" style="fill: #1f77b4; stroke: #1f77b4"/>
     <use xlink:href="#mcc99321882" x="142.98057" y="147.36096" style="fill: #1f77b4; stroke: #1f77b4"/>
     <use xlink:href="#mcc99321882" x="142.097775" y="145.628908" style="fill: #1f77b4; stroke: #1f77b4"/>
     <use xlink:href="#mcc99321882" x="139.583617" y="143.308313" style="fill: #1f77b4; stroke: #1f77b4"/>
     <use xlink:href="#mcc99321882" x="142.707272" y="143.098439" style="fill: #1f77b4; stroke: #1f77b4"/>
     <use xlink:href="#mcc99321882" x="138.7379" y="141.659097" style="fill: #1f77b4; stroke: #1f77b4"/>
     <use xlink:href="#mcc99321882" x="139.925119" y="139.965726" style="fill: #1f77b4; stroke: #1f77b4"/>
     <use xlink:href="#mcc99321882" x="136.811203" y="137.723637" style="fill: #1f77b4; stroke: #1f77b4"/>
     <use xlink:href="#mcc99321882" x="140.127414" y="137.795817" style="fill: #1f77b4; stroke: #1f77b4"/>
     <use xlink:href="#mcc99321882" x="141.543373" y="135.701596" style="fill: #1f77b4; stroke: #1f77b4"/>
     <use xlink:href="#mcc99321882" x="139.541278" y="135.616292" style="fill: #1f77b4; stroke: #1f77b4"/>
     <use xlink:href="#mcc99321882" x="140.406055" y="132.061291" style="fill: #1f77b4; stroke: #1f77b4"/>
     <use xlink:href="#mcc99321882" x="139.049236" y="132.254538" style="fill: #1f77b4; stroke: #1f77b4"/>
     <use xlink:href="#mcc99321882" x="140.292605" y="130.71746" style="fill: #1f77b4; stroke: #1f77b4"/>
     <use xlink:href="#mcc99321882" x="138.917389" y="129.418487" style="fill: #1f77b4; stroke: #1f77b4"/>
     <use xlink:href="#mcc99321882" x="138.921866" y="128.442984" style="fill: #1f77b4; stroke: #1f77b4"/>
     <use xlink:href="#mcc99321882" x="140.569123" y="125.514166" style="fill: #1f77b4; stroke: #1f77b4"/>
     <use xlink:href="#mcc99321882" x="142.149583" y="125.453085" style="fill: #1f77b4; stroke: #1f77b4"/>
     <use xlink:href="#mcc99321882" x="140.171092" y="123.56642" style="fill: #1f77b4; stroke: #1f77b4"/>
     <use xlink:href="#mcc99321882" x="139.179148" y="121.076935" style="fill: #1f77b4; stroke: #1f77b4"/>
     <use xlink:href="#mcc99321882" x="141.425351" y="119.9122" style="fill: #1f77b4; stroke: #1f77b4"/>
     <use xlink:href="#mcc99321882" x="141.471762" y="120.646286" style="fill: #1f77b4; stroke: #1f77b4"/>
     <use xlink:href="#mcc99321882" x="140.734747" y="118.859912" style="fill: #1f77b4; stroke: #1f77b4"/>
     <use xlink:href="#mcc99321882" x="140.261236" y="116.131756" style="fill: #1f77b4; stroke: #1f77b4"/>
     <use xlink:href="#mcc99321882" x="139.255373" y="114.36178" style="fill: #1f77b4; stroke: #1f77b4"/>
     <use xlink:href="#mcc99321882" x="139.570388" y="114.235049" style="fill: #1f77b4; stroke: #1f77b4"/>
     <use xlink:href="#mcc99321882" x="139.464594" y="114.211742" style="fill: #1f77b4; stroke: #1f77b4"/>
     <use xlink:href="#mcc99321882" x="141.245821" y="110.879811" style="fill: #1f77b4; stroke: #1f77b4"/>
    </g>
   </g>
   <g id="line2d_16">
    <path d="M 212.685492 295.776 
L 203.739774 292.121183 
L 195.197308 288.398429 
L 186.656123 284.438313 
L 178.09993 280.22082 
L 169.899606 275.930856 
L 162.038816 271.577443 
L 154.104002 266.928113 
L 146.471135 262.196031 
L 139.128009 257.382367 
L 132.066925 252.487542 
L 125.285857 247.512219 
L 118.789553 242.458635 
L 113.037795 237.713322 
L 107.621758 232.972681 
L 102.56668 228.265854 
L 97.901562 223.632152 
L 93.656769 219.122428 
L 89.860983 214.799645 
L 86.064193 210.134637 
L 82.764566 205.730145 
L 79.975921 201.681892 
L 77.250369 197.349393 
L 75.051458 193.496735 
L 72.945234 189.399727 
L 70.963999 185.033212 
L 69.496139 181.327451 
L 68.160033 177.416241 
L 66.986786 173.283315 
L 66.013862 168.911586 
L 65.442422 165.465456 
L 65.031126 161.86751 
L 64.805524 158.110262 
L 64.794858 154.186463 
L 65.032536 150.089345 
L 65.556631 145.812923 
L 66.410403 141.352391 
L 67.186672 138.274795 
L 68.147122 135.113559 
L 69.309059 131.868861 
L 70.691119 128.541549 
L 72.313298 125.133275 
L 74.196971 121.646644 
L 76.364874 118.08538 
L 78.841054 114.454516 
L 81.650782 110.760598 
L 84.820398 107.011907 
L 88.377104 103.218699 
L 92.348664 99.393456 
L 96.763019 95.55114 
L 101.647789 91.709443 
L 107.02965 87.889028 
L 112.933587 84.113736 
L 119.381996 80.410743 
L 126.393646 76.810646 
L 133.982514 73.347463 
L 142.156486 70.05849 
L 150.915998 66.984025 
L 160.25262 64.166895 
L 165.131953 62.868746 
L 170.147696 61.651787 
L 175.295716 60.521751 
L 180.571093 59.48436 
L 185.968099 58.545292 
L 191.480179 57.710134 
L 197.099939 56.98434 
L 202.819143 56.373177 
L 208.628717 55.881686 
L 214.518765 55.514618 
L 220.478592 55.276395 
L 226.496743 55.171051 
L 232.561045 55.202185 
L 238.658666 55.37291 
L 244.776184 55.685813 
L 250.899664 56.142908 
L 257.014744 56.745601 
L 263.106735 57.49466 
L 269.160722 58.390185 
L 275.161677 59.431596 
L 281.094572 60.617616 
L 286.944495 61.94627 
L 292.696775 63.414892 
L 298.337092 65.020135 
L 303.851599 66.757995 
L 309.227026 68.623839 
L 314.45079 70.612441 
L 319.511083 72.718027 
L 324.396963 74.934323 
L 329.098427 77.254613 
L 333.60647 79.671793 
L 337.913139 82.178438 
L 342.011565 84.766863 
L 345.895989 87.429188 
L 349.561767 90.157408 
L 353.005371 92.943451 
L 356.224372 95.779243 
L 359.217408 98.656767 
L 361.984155 101.568118 
L 364.525273 104.505556 
L 366.84236 107.461549 
L 368.93788 110.42882 
L 370.815109 113.400376 
L 372.478058 116.369546 
L 373.931404 119.330001 
L 375.180414 122.275779 
L 376.230876 125.201295 
L 377.089023 128.101354 
L 377.761464 130.971156 
L 378.255112 133.806296 
L 378.577124 136.602767 
L 378.734837 139.356946 
L 378.73571 142.065591 
L 378.587271 144.72583 
L 378.297069 147.335144 
L 377.872629 149.891354 
L 377.321412 152.392608 
L 376.650782 154.837357 
L 375.867972 157.224343 
L 374.98006 159.552575 
L 372.916329 164.030063 
L 370.512317 168.266602 
L 367.817174 172.262123 
L 364.876203 176.019161 
L 361.730757 179.542353 
L 358.418252 182.837989 
L 354.97227 185.913618 
L 351.422731 188.777706 
L 347.796109 191.43935 
L 344.115674 193.90803 
L 340.40175 196.193416 
L 334.805991 199.29901 
L 329.223562 202.046197 
L 323.693567 204.466004 
L 318.246338 206.58782 
L 312.904933 208.439129 
L 307.68643 210.045383 
L 300.940125 211.846001 
L 294.451991 213.302231 
L 288.23118 214.457989 
L 282.280068 215.351709 
L 275.216327 216.150981 
L 268.557876 216.648822 
L 262.287608 216.892132 
L 256.385564 216.920176 
L 249.759179 216.715575 
L 243.595205 216.294903 
L 237.857424 215.69614 
L 231.65632 214.813355 
L 225.938188 213.769341 
L 220.657223 212.595274 
L 215.10454 211.125816 
L 210.014762 209.547914 
L 205.340212 207.884306 
L 200.526022 205.932342 
L 196.133414 203.914121 
L 192.118247 201.844874 
L 188.053596 199.500162 
L 184.363501 197.119527 
L 180.691792 194.470733 
L 177.384421 191.799814 
L 174.405028 189.114184 
L 171.492642 186.174265 
L 168.899803 183.229219 
L 166.597652 180.283353 
L 164.561598 177.340001 
L 162.631799 174.157216 
L 160.966685 170.983046 
L 159.546627 167.819566 
L 158.272063 164.426623 
L 157.243965 161.049762 
L 156.446671 157.690446 
L 155.833156 154.112083 
L 155.45452 150.556691 
L 155.298144 147.025528 
L 155.363901 143.286979 
L 155.658212 139.578683 
L 156.170706 135.901947 
L 156.944025 132.031431 
L 157.94345 128.199514 
L 159.160188 124.407711 
L 160.676559 120.438268 
L 161.423591 118.689524 
L 161.423591 118.689524 
" clip-path="url(#pd65ad4b090)" style="fill: none; stroke: #d62728; stroke-width: 1.5; stroke-linecap: square"/>
   </g>
   <g id="patch_3">
    <path d="M 37.848438 307.872 
L 37.848438 41.76 
" style="fill: none; stroke: #000000; stroke-width: 0.8; stroke-linejoin: miter; stroke-linecap: square"/>
   </g>
   <g id="patch_4">
    <path d="M 394.968438 307.872 
L 394.968438 41.76 
" style="fill: none; stroke: #000000; stroke-width: 0.8; stroke-linejoin: miter; stroke-linecap: square"/>
   </g>
   <g id="patch_5">
    <path d="M 37.848437 307.872 
L 394.968438 307.872 
" style="fill: none; stroke: #000000; stroke-width: 0.8; stroke-linejoin: miter; stroke-linecap: square"/>
   </g>
   <g id="patch_6">
    <path d="M 37.848437 41.76 
L 394.968438 41.76 
" style="fill: none; stroke: #000000; stroke-width: 0.8; stroke-linejoin: miter; stroke-linecap: square"/>
   </g>
   <g id="text_17">
    <g id="patch_7">
     <path d="M 412.824438 102.337163 
L 551.424438 102.337163 
Q 555.424438 102.337163 555.424438 98.337163 
L 555.424438 55.0656 
Q 555.424438 51.0656 551.424438 51.0656 
L 412.824438 51.0656 
Q 408.824438 51.0656 408.824438 55.0656 
L 408.824438 98.337163 
Q 408.824438 102.337163 412.824438 102.337163 
z
" style="fill: #ffffff; opacity: 0.5; stroke: #000000; stroke-linejoin: miter"/>
    </g>
    <!-- Summary -->
    <g transform="translate(412.824438 62.664038) scale(0.1 -0.1)">
     <defs>
      <path id="DejaVuSans-53" d="M 3425 4513 
L 3425 3897 
Q 3066 4069 2747 4153 
Q 2428 4238 2131 4238 
Q 1616 4238 1336 4038 
Q 1056 3838 1056 3469 
Q 1056 3159 1242 3001 
Q 1428 2844 1947 2747 
L 2328 2669 
Q 3034 2534 3370 2195 
Q 3706 1856 3706 1288 
Q 3706 609 3251 259 
Q 2797 -91 1919 -91 
Q 1588 -91 1214 -16 
Q 841 59 441 206 
L 441 856 
Q 825 641 1194 531 
Q 1563 422 1919 422 
Q 2459 422 2753 634 
Q 3047 847 3047 1241 
Q 3047 1584 2836 1778 
Q 2625 1972 2144 2069 
L 1759 2144 
Q 1053 2284 737 2584 
Q 422 2884 422 3419 
Q 422 4038 858 4394 
Q 1294 4750 2059 4750 
Q 2388 4750 2728 4690 
Q 3069 4631 3425 4513 
z
" transform="scale(0.015625)"/>
      <path id="DejaVuSans-75" d="M 544 1381 
L 544 3500 
L 1119 3500 
L 1119 1403 
Q 1119 906 1312 657 
Q 1506 409 1894 409 
Q 2359 409 2629 706 
Q 2900 1003 2900 1516 
L 2900 3500 
L 3475 3500 
L 3475 0 
L 2900 0 
L 2900 538 
Q 2691 219 2414 64 
Q 2138 -91 1772 -91 
Q 1169 -91 856 284 
Q 544 659 544 1381 
z
M 1991 3584 
L 1991 3584 
z
" transform="scale(0.015625)"/>
      <path id="DejaVuSans-61" d="M 2194 1759 
Q 1497 1759 1228 1600 
Q 959 1441 959 1056 
Q 959 750 1161 570 
Q 1363 391 1709 391 
Q 2188 391 2477 730 
Q 2766 1069 2766 1631 
L 2766 1759 
L 2194 1759 
z
M 3341 1997 
L 3341 0 
L 2766 0 
L 2766 531 
Q 2569 213 2275 61 
Q 1981 -91 1556 -91 
Q 1019 -91 701 211 
Q 384 513 384 1019 
Q 384 1609 779 1909 
Q 1175 2209 1959 2209 
L 2766 2209 
L 2766 2266 
Q 2766 2663 2505 2880 
Q 2244 3097 1772 3097 
Q 1472 3097 1187 3025 
Q 903 2953 641 2809 
L 641 3341 
Q 956 3463 1253 3523 
Q 1550 3584 1831 3584 
Q 2591 3584 2966 3190 
Q 3341 2797 3341 1997 
z
" transform="scale(0.015625)"/>
      <path id="DejaVuSans-72" d="M 2631 2963 
Q 2534 3019 2420 3045 
Q 2306 3072 2169 3072 
Q 1681 3072 1420 2755 
Q 1159 2438 1159 1844 
L 1159 0 
L 581 0 
L 581 3500 
L 1159 3500 
L 1159 2956 
Q 1341 3275 1631 3429 
Q 1922 3584 2338 3584 
Q 2397 3584 2469 3576 
Q 2541 3569 2628 3553 
L 2631 2963 
z
" transform="scale(0.015625)"/>
      <path id="DejaVuSans-79" d="M 2059 -325 
Q 1816 -950 1584 -1140 
Q 1353 -1331 966 -1331 
L 506 -1331 
L 506 -850 
L 844 -850 
Q 1081 -850 1212 -737 
Q 1344 -625 1503 -206 
L 1606 56 
L 191 3500 
L 800 3500 
L 1894 763 
L 2988 3500 
L 3597 3500 
L 2059 -325 
z
" transform="scale(0.015625)"/>
     </defs>
     <use xlink:href="#DejaVuSans-53"/>
     <use xlink:href="#DejaVuSans-75" x="63.476562"/>
     <use xlink:href="#DejaVuSans-6d" x="126.855469"/>
     <use xlink:href="#DejaVuSans-6d" x="224.267578"/>
     <use xlink:href="#DejaVuSans-61" x="321.679688"/>
     <use xlink:href="#DejaVuSans-72" x="382.958984"/>
     <use xlink:href="#DejaVuSans-79" x="424.072266"/>
    </g>
    <!-- $Q_I$: 29.6$\pm$2.8 k -->
    <g transform="translate(412.824438 73.86185) scale(0.1 -0.1)">
     <defs>
      <path id="DejaVuSans-Oblique-51" d="M 2309 -84 
Q 2275 -88 2237 -89 
Q 2200 -91 2125 -91 
Q 1250 -91 756 411 
Q 263 913 263 1797 
Q 263 2319 452 2844 
Q 641 3369 978 3788 
Q 1369 4269 1858 4509 
Q 2347 4750 2938 4750 
Q 3794 4750 4287 4245 
Q 4781 3741 4781 2869 
Q 4781 1928 4265 1147 
Q 3750 366 2919 44 
L 3553 -825 
L 2847 -825 
L 2309 -84 
z
M 2919 4238 
Q 2400 4238 2003 3986 
Q 1606 3734 1313 3219 
Q 1125 2891 1026 2522 
Q 928 2153 928 1778 
Q 928 1128 1239 775 
Q 1550 422 2119 422 
Q 2631 422 3032 676 
Q 3434 931 3719 1434 
Q 3909 1772 4009 2142 
Q 4109 2513 4109 2881 
Q 4109 3528 3796 3883 
Q 3484 4238 2919 4238 
z
" transform="scale(0.015625)"/>
      <path id="DejaVuSans-Oblique-49" d="M 1081 4666 
L 1716 4666 
L 806 0 
L 172 0 
L 1081 4666 
z
" transform="scale(0.015625)"/>
      <path id="DejaVuSans-3a" d="M 750 794 
L 1409 794 
L 1409 0 
L 750 0 
L 750 794 
z
M 750 3309 
L 1409 3309 
L 1409 2516 
L 750 2516 
L 750 3309 
z
" transform="scale(0.015625)"/>
      <path id="DejaVuSans-39" d="M 703 97 
L 703 672 
Q 941 559 1184 500 
Q 1428 441 1663 441 
Q 2288 441 2617 861 
Q 2947 1281 2994 2138 
Q 2813 1869 2534 1725 
Q 2256 1581 1919 1581 
Q 1219 1581 811 2004 
Q 403 2428 403 3163 
Q 403 3881 828 4315 
Q 1253 4750 1959 4750 
Q 2769 4750 3195 4129 
Q 3622 3509 3622 2328 
Q 3622 1225 3098 567 
Q 2575 -91 1691 -91 
Q 1453 -91 1209 -44 
Q 966 3 703 97 
z
M 1959 2075 
Q 2384 2075 2632 2365 
Q 2881 2656 2881 3163 
Q 2881 3666 2632 3958 
Q 2384 4250 1959 4250 
Q 1534 4250 1286 3958 
Q 1038 3666 1038 3163 
Q 1038 2656 1286 2365 
Q 1534 2075 1959 2075 
z
" transform="scale(0.015625)"/>
      <path id="DejaVuSans-2e" d="M 684 794 
L 1344 794 
L 1344 0 
L 684 0 
L 684 794 
z
" transform="scale(0.015625)"/>
      <path id="DejaVuSans-b1" d="M 2944 4013 
L 2944 2803 
L 4684 2803 
L 4684 2272 
L 2944 2272 
L 2944 1063 
L 2419 1063 
L 2419 2272 
L 678 2272 
L 678 2803 
L 2419 2803 
L 2419 4013 
L 2944 4013 
z
M 678 531 
L 4684 531 
L 4684 0 
L 678 0 
L 678 531 
z
" transform="scale(0.015625)"/>
      <path id="DejaVuSans-6b" d="M 581 4863 
L 1159 4863 
L 1159 1991 
L 2875 3500 
L 3609 3500 
L 1753 1863 
L 3688 0 
L 2938 0 
L 1159 1709 
L 1159 0 
L 581 0 
L 581 4863 
z
" transform="scale(0.015625)"/>
     </defs>
     <use xlink:href="#DejaVuSans-Oblique-51" transform="translate(0 0.015625)"/>
     <use xlink:href="#DejaVuSans-Oblique-49" transform="translate(78.710938 -16.390625) scale(0.7)"/>
     <use xlink:href="#DejaVuSans-3a" transform="translate(102.089844 0.015625)"/>
     <use xlink:href="#DejaVuSans-20" transform="translate(135.78125 0.015625)"/>
     <use xlink:href="#DejaVuSans-32" transform="translate(167.568359 0.015625)"/>
     <use xlink:href="#DejaVuSans-39" transform="translate(229.441406 0.015625)"/>
     <use xlink:href="#DejaVuSans-2e" transform="translate(293.064453 0.015625)"/>
     <use xlink:href="#DejaVuSans-36" transform="translate(324.851562 0.015625)"/>
     <use xlink:href="#DejaVuSans-b1" transform="translate(388.474609 0.015625)"/>
     <use xlink:href="#DejaVuSans-32" transform="translate(472.263672 0.015625)"/>
     <use xlink:href="#DejaVuSans-2e" transform="translate(535.886719 0.015625)"/>
     <use xlink:href="#DejaVuSans-38" transform="translate(565.048828 0.015625)"/>
     <use xlink:href="#DejaVuSans-20" transform="translate(628.671875 0.015625)"/>
     <use xlink:href="#DejaVuSans-6b" transform="translate(660.458984 0.015625)"/>
    </g>
    <!-- $Q_C$: 3.201$\pm$0.039 k -->
    <g transform="translate(412.824438 85.059663) scale(0.1 -0.1)">
     <defs>
      <path id="DejaVuSans-Oblique-43" d="M 4447 4306 
L 4319 3641 
Q 4019 3944 3683 4091 
Q 3347 4238 2956 4238 
Q 2422 4238 2017 3981 
Q 1613 3725 1319 3200 
Q 1131 2863 1032 2486 
Q 934 2109 934 1728 
Q 934 1091 1264 756 
Q 1594 422 2222 422 
Q 2656 422 3056 561 
Q 3456 700 3834 978 
L 3688 231 
Q 3316 72 2936 -9 
Q 2556 -91 2175 -91 
Q 1278 -91 773 396 
Q 269 884 269 1753 
Q 269 2309 461 2846 
Q 653 3384 1013 3828 
Q 1394 4300 1883 4525 
Q 2372 4750 3022 4750 
Q 3422 4750 3780 4639 
Q 4138 4528 4447 4306 
z
" transform="scale(0.015625)"/>
     </defs>
     <use xlink:href="#DejaVuSans-Oblique-51" transform="translate(0 0.015625)"/>
     <use xlink:href="#DejaVuSans-Oblique-43" transform="translate(78.710938 -16.390625) scale(0.7)"/>
     <use xlink:href="#DejaVuSans-3a" transform="translate(130.322266 0.015625)"/>
     <use xlink:href="#DejaVuSans-20" transform="translate(164.013672 0.015625)"/>
     <use xlink:href="#DejaVuSans-33" transform="translate(195.800781 0.015625)"/>
     <use xlink:href="#DejaVuSans-2e" transform="translate(259.423828 0.015625)"/>
     <use xlink:href="#DejaVuSans-32" transform="translate(285.710938 0.015625)"/>
     <use xlink:href="#DejaVuSans-30" transform="translate(349.333984 0.015625)"/>
     <use xlink:href="#DejaVuSans-31" transform="translate(412.957031 0.015625)"/>
     <use xlink:href="#DejaVuSans-b1" transform="translate(476.580078 0.015625)"/>
     <use xlink:href="#DejaVuSans-30" transform="translate(560.369141 0.015625)"/>
     <use xlink:href="#DejaVuSans-2e" transform="translate(623.992188 0.015625)"/>
     <use xlink:href="#DejaVuSans-30" transform="translate(655.779297 0.015625)"/>
     <use xlink:href="#DejaVuSans-33" transform="translate(719.402344 0.015625)"/>
     <use xlink:href="#DejaVuSans-39" transform="translate(783.025391 0.015625)"/>
     <use xlink:href="#DejaVuSans-20" transform="translate(846.648438 0.015625)"/>
     <use xlink:href="#DejaVuSans-6b" transform="translate(878.435547 0.015625)"/>
    </g>
    <!-- $f_{res}$: 5.837666$\pm$1.2e-05 GHz -->
    <g transform="translate(412.824438 96.257475) scale(0.1 -0.1)">
     <defs>
      <path id="DejaVuSans-Oblique-66" d="M 3059 4863 
L 2969 4384 
L 2419 4384 
Q 2106 4384 1964 4261 
Q 1822 4138 1753 3809 
L 1691 3500 
L 2638 3500 
L 2553 3053 
L 1606 3053 
L 1013 0 
L 434 0 
L 1031 3053 
L 481 3053 
L 563 3500 
L 1113 3500 
L 1159 3744 
Q 1278 4363 1576 4613 
Q 1875 4863 2516 4863 
L 3059 4863 
z
" transform="scale(0.015625)"/>
      <path id="DejaVuSans-Oblique-72" d="M 2853 2969 
Q 2766 3016 2653 3041 
Q 2541 3066 2413 3066 
Q 1953 3066 1609 2717 
Q 1266 2369 1153 1784 
L 800 0 
L 225 0 
L 909 3500 
L 1484 3500 
L 1375 2956 
Q 1603 3259 1920 3421 
Q 2238 3584 2597 3584 
Q 2691 3584 2781 3573 
Q 2872 3563 2963 3538 
L 2853 2969 
z
" transform="scale(0.015625)"/>
      <path id="DejaVuSans-Oblique-65" d="M 3078 2063 
Q 3088 2113 3092 2166 
Q 3097 2219 3097 2272 
Q 3097 2653 2873 2875 
Q 2650 3097 2266 3097 
Q 1838 3097 1509 2826 
Q 1181 2556 1013 2059 
L 3078 2063 
z
M 3578 1613 
L 903 1613 
Q 884 1494 878 1425 
Q 872 1356 872 1306 
Q 872 872 1139 634 
Q 1406 397 1894 397 
Q 2269 397 2603 481 
Q 2938 566 3225 728 
L 3116 159 
Q 2806 34 2476 -28 
Q 2147 -91 1806 -91 
Q 1078 -91 686 257 
Q 294 606 294 1247 
Q 294 1794 489 2264 
Q 684 2734 1063 3103 
Q 1306 3334 1642 3459 
Q 1978 3584 2356 3584 
Q 2950 3584 3301 3228 
Q 3653 2872 3653 2272 
Q 3653 2128 3634 1964 
Q 3616 1800 3578 1613 
z
" transform="scale(0.015625)"/>
      <path id="DejaVuSans-Oblique-73" d="M 3200 3397 
L 3091 2853 
Q 2863 2978 2609 3040 
Q 2356 3103 2088 3103 
Q 1634 3103 1373 2948 
Q 1113 2794 1113 2528 
Q 1113 2219 1719 2053 
Q 1766 2041 1788 2034 
L 1972 1978 
Q 2547 1819 2739 1644 
Q 2931 1469 2931 1166 
Q 2931 609 2489 259 
Q 2047 -91 1331 -91 
Q 1053 -91 747 -37 
Q 441 16 72 128 
L 184 722 
Q 500 559 806 475 
Q 1113 391 1394 391 
Q 1816 391 2080 572 
Q 2344 753 2344 1031 
Q 2344 1331 1650 1516 
L 1591 1531 
L 1394 1581 
Q 956 1697 753 1886 
Q 550 2075 550 2369 
Q 550 2928 970 3256 
Q 1391 3584 2113 3584 
Q 2397 3584 2667 3537 
Q 2938 3491 3200 3397 
z
" transform="scale(0.015625)"/>
      <path id="DejaVuSans-47" d="M 3809 666 
L 3809 1919 
L 2778 1919 
L 2778 2438 
L 4434 2438 
L 4434 434 
Q 4069 175 3628 42 
Q 3188 -91 2688 -91 
Q 1594 -91 976 548 
Q 359 1188 359 2328 
Q 359 3472 976 4111 
Q 1594 4750 2688 4750 
Q 3144 4750 3555 4637 
Q 3966 4525 4313 4306 
L 4313 3634 
Q 3963 3931 3569 4081 
Q 3175 4231 2741 4231 
Q 1884 4231 1454 3753 
Q 1025 3275 1025 2328 
Q 1025 1384 1454 906 
Q 1884 428 2741 428 
Q 3075 428 3337 486 
Q 3600 544 3809 666 
z
" transform="scale(0.015625)"/>
      <path id="DejaVuSans-48" d="M 628 4666 
L 1259 4666 
L 1259 2753 
L 3553 2753 
L 3553 4666 
L 4184 4666 
L 4184 0 
L 3553 0 
L 3553 2222 
L 1259 2222 
L 1259 0 
L 628 0 
L 628 4666 
z
" transform="scale(0.015625)"/>
      <path id="DejaVuSans-7a" d="M 353 3500 
L 3084 3500 
L 3084 2975 
L 922 459 
L 3084 459 
L 3084 0 
L 275 0 
L 275 525 
L 2438 3041 
L 353 3041 
L 353 3500 
z
" transform="scale(0.015625)"/>
     </defs>
     <use xlink:href="#DejaVuSans-Oblique-66" transform="translate(0 0.015625)"/>
     <use xlink:href="#DejaVuSans-Oblique-72" transform="translate(35.205078 -16.390625) scale(0.7)"/>
     <use xlink:href="#DejaVuSans-Oblique-65" transform="translate(63.984375 -16.390625) scale(0.7)"/>
     <use xlink:href="#DejaVuSans-Oblique-73" transform="translate(107.050781 -16.390625) scale(0.7)"/>
     <use xlink:href="#DejaVuSans-3a" transform="translate(146.254883 0.015625)"/>
     <use xlink:href="#DejaVuSans-20" transform="translate(179.946289 0.015625)"/>
     <use xlink:href="#DejaVuSans-35" transform="translate(211.733398 0.015625)"/>
     <use xlink:href="#DejaVuSans-2e" transform="translate(275.356445 0.015625)"/>
     <use xlink:href="#DejaVuSans-38" transform="translate(304.518555 0.015625)"/>
     <use xlink:href="#DejaVuSans-33" transform="translate(368.141602 0.015625)"/>
     <use xlink:href="#DejaVuSans-37" transform="translate(431.764648 0.015625)"/>
     <use xlink:href="#DejaVuSans-36" transform="translate(495.387695 0.015625)"/>
     <use xlink:href="#DejaVuSans-36" transform="translate(559.010742 0.015625)"/>
     <use xlink:href="#DejaVuSans-36" transform="translate(622.633789 0.015625)"/>
     <use xlink:href="#DejaVuSans-b1" transform="translate(686.256836 0.015625)"/>
     <use xlink:href="#DejaVuSans-31" transform="translate(770.045898 0.015625)"/>
     <use xlink:href="#DejaVuSans-2e" transform="translate(833.668945 0.015625)"/>
     <use xlink:href="#DejaVuSans-32" transform="translate(859.956055 0.015625)"/>
     <use xlink:href="#DejaVuSans-65" transform="translate(923.579102 0.015625)"/>
     <use xlink:href="#DejaVuSans-2d" transform="translate(985.102539 0.015625)"/>
     <use xlink:href="#DejaVuSans-30" transform="translate(1021.186523 0.015625)"/>
     <use xlink:href="#DejaVuSans-35" transform="translate(1084.80957 0.015625)"/>
     <use xlink:href="#DejaVuSans-20" transform="translate(1148.432617 0.015625)"/>
     <use xlink:href="#DejaVuSans-47" transform="translate(1180.219727 0.015625)"/>
     <use xlink:href="#DejaVuSans-48" transform="translate(1257.709961 0.015625)"/>
     <use xlink:href="#DejaVuSans-7a" transform="translate(1332.905273 0.015625)"/>
    </g>
   </g>
  </g>
  <g id="text_18">
   <!-- S21 resonator spectroscopy -->
   <g transform="translate(126.864063 16.318125) scale(0.12 -0.12)">
    <defs>
     <path id="DejaVuSans-73" d="M 2834 3397 
L 2834 2853 
Q 2591 2978 2328 3040 
Q 2066 3103 1784 3103 
Q 1356 3103 1142 2972 
Q 928 2841 928 2578 
Q 928 2378 1081 2264 
Q 1234 2150 1697 2047 
L 1894 2003 
Q 2506 1872 2764 1633 
Q 3022 1394 3022 966 
Q 3022 478 2636 193 
Q 2250 -91 1575 -91 
Q 1294 -91 989 -36 
Q 684 19 347 128 
L 347 722 
Q 666 556 975 473 
Q 1284 391 1588 391 
Q 1994 391 2212 530 
Q 2431 669 2431 922 
Q 2431 1156 2273 1281 
Q 2116 1406 1581 1522 
L 1381 1569 
Q 847 1681 609 1914 
Q 372 2147 372 2553 
Q 372 3047 722 3315 
Q 1072 3584 1716 3584 
Q 2034 3584 2315 3537 
Q 2597 3491 2834 3397 
z
" transform="scale(0.015625)"/>
     <path id="DejaVuSans-6f" d="M 1959 3097 
Q 1497 3097 1228 2736 
Q 959 2375 959 1747 
Q 959 1119 1226 758 
Q 1494 397 1959 397 
Q 2419 397 2687 759 
Q 2956 1122 2956 1747 
Q 2956 2369 2687 2733 
Q 2419 3097 1959 3097 
z
M 1959 3584 
Q 2709 3584 3137 3096 
Q 3566 2609 3566 1747 
Q 3566 888 3137 398 
Q 2709 -91 1959 -91 
Q 1206 -91 779 398 
Q 353 888 353 1747 
Q 353 2609 779 3096 
Q 1206 3584 1959 3584 
z
" transform="scale(0.015625)"/>
     <path id="DejaVuSans-6e" d="M 3513 2113 
L 3513 0 
L 2938 0 
L 2938 2094 
Q 2938 2591 2744 2837 
Q 2550 3084 2163 3084 
Q 1697 3084 1428 2787 
Q 1159 2491 1159 1978 
L 1159 0 
L 581 0 
L 581 3500 
L 1159 3500 
L 1159 2956 
Q 1366 3272 1645 3428 
Q 1925 3584 2291 3584 
Q 2894 3584 3203 3211 
Q 3513 2838 3513 2113 
z
" transform="scale(0.015625)"/>
     <path id="DejaVuSans-74" d="M 1172 4494 
L 1172 3500 
L 2356 3500 
L 2356 3053 
L 1172 3053 
L 1172 1153 
Q 1172 725 1289 603 
Q 1406 481 1766 481 
L 2356 481 
L 2356 0 
L 1766 0 
Q 1100 0 847 248 
Q 594 497 594 1153 
L 594 3053 
L 172 3053 
L 172 3500 
L 594 3500 
L 594 4494 
L 1172 4494 
z
" transform="scale(0.015625)"/>
     <path id="DejaVuSans-70" d="M 1159 525 
L 1159 -1331 
L 581 -1331 
L 581 3500 
L 1159 3500 
L 1159 2969 
Q 1341 3281 1617 3432 
Q 1894 3584 2278 3584 
Q 2916 3584 3314 3078 
Q 3713 2572 3713 1747 
Q 3713 922 3314 415 
Q 2916 -91 2278 -91 
Q 1894 -91 1617 61 
Q 1341 213 1159 525 
z
M 3116 1747 
Q 3116 2381 2855 2742 
Q 2594 3103 2138 3103 
Q 1681 3103 1420 2742 
Q 1159 2381 1159 1747 
Q 1159 1113 1420 752 
Q 1681 391 2138 391 
Q 2594 391 2855 752 
Q 3116 1113 3116 1747 
z
" transform="scale(0.015625)"/>
     <path id="DejaVuSans-63" d="M 3122 3366 
L 3122 2828 
Q 2878 2963 2633 3030 
Q 2388 3097 2138 3097 
Q 1578 3097 1268 2742 
Q 959 2388 959 1747 
Q 959 1106 1268 751 
Q 1578 397 2138 397 
Q 2388 397 2633 464 
Q 2878 531 3122 666 
L 3122 134 
Q 2881 22 2623 -34 
Q 2366 -91 2075 -91 
Q 1284 -91 818 406 
Q 353 903 353 1747 
Q 353 2603 823 3093 
Q 1294 3584 2113 3584 
Q 2378 3584 2631 3529 
Q 2884 3475 3122 3366 
z
" transform="scale(0.015625)"/>
    </defs>
    <use xlink:href="#DejaVuSans-53"/>
    <use xlink:href="#DejaVuSans-32" x="63.476562"/>
    <use xlink:href="#DejaVuSans-31" x="127.099609"/>
    <use xlink:href="#DejaVuSans-20" x="190.722656"/>
    <use xlink:href="#DejaVuSans-72" x="222.509766"/>
    <use xlink:href="#DejaVuSans-65" x="261.373047"/>
    <use xlink:href="#DejaVuSans-73" x="322.896484"/>
    <use xlink:href="#DejaVuSans-6f" x="374.996094"/>
    <use xlink:href="#DejaVuSans-6e" x="436.177734"/>
    <use xlink:href="#DejaVuSans-61" x="499.556641"/>
    <use xlink:href="#DejaVuSans-74" x="560.835938"/>
    <use xlink:href="#DejaVuSans-6f" x="600.044922"/>
    <use xlink:href="#DejaVuSans-72" x="661.226562"/>
    <use xlink:href="#DejaVuSans-20" x="702.339844"/>
    <use xlink:href="#DejaVuSans-73" x="734.126953"/>
    <use xlink:href="#DejaVuSans-70" x="786.226562"/>
    <use xlink:href="#DejaVuSans-65" x="849.703125"/>
    <use xlink:href="#DejaVuSans-63" x="911.226562"/>
    <use xlink:href="#DejaVuSans-74" x="966.207031"/>
    <use xlink:href="#DejaVuSans-72" x="1005.416016"/>
    <use xlink:href="#DejaVuSans-6f" x="1044.279297"/>
    <use xlink:href="#DejaVuSans-73" x="1105.460938"/>
    <use xlink:href="#DejaVuSans-63" x="1157.560547"/>
    <use xlink:href="#DejaVuSans-6f" x="1212.541016"/>
    <use xlink:href="#DejaVuSans-70" x="1273.722656"/>
    <use xlink:href="#DejaVuSans-79" x="1337.199219"/>
   </g>
   <!-- tuid: 20231222-123520-758-e84190 -->
   <g transform="translate(100.91875 29.7555) scale(0.12 -0.12)">
    <defs>
     <path id="DejaVuSans-69" d="M 603 3500 
L 1178 3500 
L 1178 0 
L 603 0 
L 603 3500 
z
M 603 4863 
L 1178 4863 
L 1178 4134 
L 603 4134 
L 603 4863 
z
" transform="scale(0.015625)"/>
     <path id="DejaVuSans-64" d="M 2906 2969 
L 2906 4863 
L 3481 4863 
L 3481 0 
L 2906 0 
L 2906 525 
Q 2725 213 2448 61 
Q 2172 -91 1784 -91 
Q 1150 -91 751 415 
Q 353 922 353 1747 
Q 353 2572 751 3078 
Q 1150 3584 1784 3584 
Q 2172 3584 2448 3432 
Q 2725 3281 2906 2969 
z
M 947 1747 
Q 947 1113 1208 752 
Q 1469 391 1925 391 
Q 2381 391 2643 752 
Q 2906 1113 2906 1747 
Q 2906 2381 2643 2742 
Q 2381 3103 1925 3103 
Q 1469 3103 1208 2742 
Q 947 2381 947 1747 
z
" transform="scale(0.015625)"/>
    </defs>
    <use xlink:href="#DejaVuSans-74"/>
    <use xlink:href="#DejaVuSans-75" x="39.208984"/>
    <use xlink:href="#DejaVuSans-69" x="102.587891"/>
    <use xlink:href="#DejaVuSans-64" x="130.371094"/>
    <use xlink:href="#DejaVuSans-3a" x="193.847656"/>
    <use xlink:href="#DejaVuSans-20" x="227.539062"/>
    <use xlink:href="#DejaVuSans-32" x="259.326172"/>
    <use xlink:href="#DejaVuSans-30" x="322.949219"/>
    <use xlink:href="#DejaVuSans-32" x="386.572266"/>
    <use xlink:href="#DejaVuSans-33" x="450.195312"/>
    <use xlink:href="#DejaVuSans-31" x="513.818359"/>
    <use xlink:href="#DejaVuSans-32" x="577.441406"/>
    <use xlink:href="#DejaVuSans-32" x="641.064453"/>
    <use xlink:href="#DejaVuSans-32" x="704.6875"/>
    <use xlink:href="#DejaVuSans-2d" x="768.310547"/>
    <use xlink:href="#DejaVuSans-31" x="804.394531"/>
    <use xlink:href="#DejaVuSans-32" x="868.017578"/>
    <use xlink:href="#DejaVuSans-33" x="931.640625"/>
    <use xlink:href="#DejaVuSans-35" x="995.263672"/>
    <use xlink:href="#DejaVuSans-32" x="1058.886719"/>
    <use xlink:href="#DejaVuSans-30" x="1122.509766"/>
    <use xlink:href="#DejaVuSans-2d" x="1186.132812"/>
    <use xlink:href="#DejaVuSans-37" x="1222.216797"/>
    <use xlink:href="#DejaVuSans-35" x="1285.839844"/>
    <use xlink:href="#DejaVuSans-38" x="1349.462891"/>
    <use xlink:href="#DejaVuSans-2d" x="1413.085938"/>
    <use xlink:href="#DejaVuSans-65" x="1449.169922"/>
    <use xlink:href="#DejaVuSans-38" x="1510.693359"/>
    <use xlink:href="#DejaVuSans-34" x="1574.316406"/>
    <use xlink:href="#DejaVuSans-31" x="1637.939453"/>
    <use xlink:href="#DejaVuSans-39" x="1701.5625"/>
    <use xlink:href="#DejaVuSans-30" x="1765.185547"/>
   </g>
  </g>
 </g>
 <defs>
  <clipPath id="pd65ad4b090">
   <rect x="37.848438" y="41.76" width="357.12" height="266.112"/>
  </clipPath>
 </defs>
</svg>
