<?xml version="1.0" encoding="utf-8" standalone="no"?>
<!DOCTYPE svg PUBLIC "-//W3C//DTD SVG 1.1//EN"
  "http://www.w3.org/Graphics/SVG/1.1/DTD/svg11.dtd">
<svg xmlns:xlink="http://www.w3.org/1999/xlink" width="592.879125pt" height="345.42825pt" viewBox="0 0 592.879125 345.42825" xmlns="http://www.w3.org/2000/svg" version="1.1">
 <metadata>
  <rdf:RDF xmlns:dc="http://purl.org/dc/elements/1.1/" xmlns:cc="http://creativecommons.org/ns#" xmlns:rdf="http://www.w3.org/1999/02/22-rdf-syntax-ns#">
   <cc:Work>
    <dc:type rdf:resource="http://purl.org/dc/dcmitype/StillImage"/>
    <dc:date>2024-03-04T13:57:43.205312</dc:date>
    <dc:format>image/svg+xml</dc:format>
    <dc:creator>
     <cc:Agent>
      <dc:title>Matplotlib v3.8.2, https://matplotlib.org/</dc:title>
     </cc:Agent>
    </dc:creator>
   </cc:Work>
  </rdf:RDF>
 </metadata>
 <defs>
  <style type="text/css">*{stroke-linejoin: round; stroke-linecap: butt}</style>
 </defs>
 <g id="figure_1">
  <g id="patch_1">
   <path d="M 0 345.42825 
L 592.879125 345.42825 
L 592.879125 -0 
L 0 -0 
L 0 345.42825 
z
" style="fill: none; opacity: 0"/>
  </g>
  <g id="axes_1">
   <g id="patch_2">
    <path d="M 50.595313 162.72 
L 407.715312 162.72 
L 407.715312 41.76 
L 50.595313 41.76 
z
" style="fill: #ffffff"/>
   </g>
   <g id="matplotlib.axis_1">
    <g id="xtick_1">
     <g id="line2d_1">
      <defs>
       <path id="m76cff4a5d1" d="M 0 0 
L 0 3.5 
" style="stroke: #000000; stroke-width: 0.8"/>
      </defs>
      <g>
       <use xlink:href="#m76cff4a5d1" x="66.82804" y="162.72" style="stroke: #000000; stroke-width: 0.8"/>
      </g>
     </g>
    </g>
    <g id="xtick_2">
     <g id="line2d_2">
      <g>
       <use xlink:href="#m76cff4a5d1" x="107.409858" y="162.72" style="stroke: #000000; stroke-width: 0.8"/>
      </g>
     </g>
    </g>
    <g id="xtick_3">
     <g id="line2d_3">
      <g>
       <use xlink:href="#m76cff4a5d1" x="147.991676" y="162.72" style="stroke: #000000; stroke-width: 0.8"/>
      </g>
     </g>
    </g>
    <g id="xtick_4">
     <g id="line2d_4">
      <g>
       <use xlink:href="#m76cff4a5d1" x="188.573494" y="162.72" style="stroke: #000000; stroke-width: 0.8"/>
      </g>
     </g>
    </g>
    <g id="xtick_5">
     <g id="line2d_5">
      <g>
       <use xlink:href="#m76cff4a5d1" x="229.155312" y="162.72" style="stroke: #000000; stroke-width: 0.8"/>
      </g>
     </g>
    </g>
    <g id="xtick_6">
     <g id="line2d_6">
      <g>
       <use xlink:href="#m76cff4a5d1" x="269.737131" y="162.72" style="stroke: #000000; stroke-width: 0.8"/>
      </g>
     </g>
    </g>
    <g id="xtick_7">
     <g id="line2d_7">
      <g>
       <use xlink:href="#m76cff4a5d1" x="310.318949" y="162.72" style="stroke: #000000; stroke-width: 0.8"/>
      </g>
     </g>
    </g>
    <g id="xtick_8">
     <g id="line2d_8">
      <g>
       <use xlink:href="#m76cff4a5d1" x="350.900767" y="162.72" style="stroke: #000000; stroke-width: 0.8"/>
      </g>
     </g>
    </g>
    <g id="xtick_9">
     <g id="line2d_9">
      <g>
       <use xlink:href="#m76cff4a5d1" x="391.482585" y="162.72" style="stroke: #000000; stroke-width: 0.8"/>
      </g>
     </g>
    </g>
   </g>
   <g id="matplotlib.axis_2">
    <g id="ytick_1">
     <g id="line2d_10">
      <defs>
       <path id="m6e58b43066" d="M 0 0 
L -3.5 0 
" style="stroke: #000000; stroke-width: 0.8"/>
      </defs>
      <g>
       <use xlink:href="#m6e58b43066" x="50.595313" y="141.913208" style="stroke: #000000; stroke-width: 0.8"/>
      </g>
     </g>
     <g id="text_1">
      <!-- 50 -->
      <g transform="translate(30.870313 145.712427) scale(0.1 -0.1)">
       <defs>
        <path id="DejaVuSans-35" d="M 691 4666 
L 3169 4666 
L 3169 4134 
L 1269 4134 
L 1269 2991 
Q 1406 3038 1543 3061 
Q 1681 3084 1819 3084 
Q 2600 3084 3056 2656 
Q 3513 2228 3513 1497 
Q 3513 744 3044 326 
Q 2575 -91 1722 -91 
Q 1428 -91 1123 -41 
Q 819 9 494 109 
L 494 744 
Q 775 591 1075 516 
Q 1375 441 1709 441 
Q 2250 441 2565 725 
Q 2881 1009 2881 1497 
Q 2881 1984 2565 2268 
Q 2250 2553 1709 2553 
Q 1456 2553 1204 2497 
Q 953 2441 691 2322 
L 691 4666 
z
" transform="scale(0.015625)"/>
        <path id="DejaVuSans-30" d="M 2034 4250 
Q 1547 4250 1301 3770 
Q 1056 3291 1056 2328 
Q 1056 1369 1301 889 
Q 1547 409 2034 409 
Q 2525 409 2770 889 
Q 3016 1369 3016 2328 
Q 3016 3291 2770 3770 
Q 2525 4250 2034 4250 
z
M 2034 4750 
Q 2819 4750 3233 4129 
Q 3647 3509 3647 2328 
Q 3647 1150 3233 529 
Q 2819 -91 2034 -91 
Q 1250 -91 836 529 
Q 422 1150 422 2328 
Q 422 3509 836 4129 
Q 1250 4750 2034 4750 
z
" transform="scale(0.015625)"/>
       </defs>
       <use xlink:href="#DejaVuSans-35"/>
       <use xlink:href="#DejaVuSans-30" x="63.623047"/>
      </g>
     </g>
    </g>
    <g id="ytick_2">
     <g id="line2d_11">
      <g>
       <use xlink:href="#m6e58b43066" x="50.595313" y="102.880607" style="stroke: #000000; stroke-width: 0.8"/>
      </g>
     </g>
     <g id="text_2">
      <!-- 100 -->
      <g transform="translate(24.507813 106.679826) scale(0.1 -0.1)">
       <defs>
        <path id="DejaVuSans-31" d="M 794 531 
L 1825 531 
L 1825 4091 
L 703 3866 
L 703 4441 
L 1819 4666 
L 2450 4666 
L 2450 531 
L 3481 531 
L 3481 0 
L 794 0 
L 794 531 
z
" transform="scale(0.015625)"/>
       </defs>
       <use xlink:href="#DejaVuSans-31"/>
       <use xlink:href="#DejaVuSans-30" x="63.623047"/>
       <use xlink:href="#DejaVuSans-30" x="127.246094"/>
      </g>
     </g>
    </g>
    <g id="ytick_3">
     <g id="line2d_12">
      <g>
       <use xlink:href="#m6e58b43066" x="50.595313" y="63.848007" style="stroke: #000000; stroke-width: 0.8"/>
      </g>
     </g>
     <g id="text_3">
      <!-- 150 -->
      <g transform="translate(24.507813 67.647226) scale(0.1 -0.1)">
       <use xlink:href="#DejaVuSans-31"/>
       <use xlink:href="#DejaVuSans-35" x="63.623047"/>
       <use xlink:href="#DejaVuSans-30" x="127.246094"/>
      </g>
     </g>
    </g>
    <g id="text_4">
     <!-- $|S_{21}|$ [μV] -->
     <g transform="translate(18.107813 125.49) rotate(-90) scale(0.1 -0.1)">
      <defs>
       <path id="DejaVuSans-7c" d="M 1344 4891 
L 1344 -1509 
L 813 -1509 
L 813 4891 
L 1344 4891 
z
" transform="scale(0.015625)"/>
       <path id="DejaVuSans-Oblique-53" d="M 3859 4513 
L 3738 3897 
Q 3422 4066 3111 4152 
Q 2800 4238 2509 4238 
Q 1944 4238 1609 3991 
Q 1275 3744 1275 3334 
Q 1275 3109 1398 2989 
Q 1522 2869 2034 2731 
L 2413 2638 
Q 3053 2472 3303 2217 
Q 3553 1963 3553 1503 
Q 3553 797 2998 353 
Q 2444 -91 1538 -91 
Q 1166 -91 791 -17 
Q 416 56 38 206 
L 166 856 
Q 513 641 861 531 
Q 1209 422 1556 422 
Q 2147 422 2503 684 
Q 2859 947 2859 1369 
Q 2859 1650 2717 1795 
Q 2575 1941 2106 2059 
L 1728 2156 
Q 1081 2325 845 2545 
Q 609 2766 609 3163 
Q 609 3859 1145 4304 
Q 1681 4750 2541 4750 
Q 2875 4750 3203 4690 
Q 3531 4631 3859 4513 
z
" transform="scale(0.015625)"/>
       <path id="DejaVuSans-32" d="M 1228 531 
L 3431 531 
L 3431 0 
L 469 0 
L 469 531 
Q 828 903 1448 1529 
Q 2069 2156 2228 2338 
Q 2531 2678 2651 2914 
Q 2772 3150 2772 3378 
Q 2772 3750 2511 3984 
Q 2250 4219 1831 4219 
Q 1534 4219 1204 4116 
Q 875 4013 500 3803 
L 500 4441 
Q 881 4594 1212 4672 
Q 1544 4750 1819 4750 
Q 2544 4750 2975 4387 
Q 3406 4025 3406 3419 
Q 3406 3131 3298 2873 
Q 3191 2616 2906 2266 
Q 2828 2175 2409 1742 
Q 1991 1309 1228 531 
z
" transform="scale(0.015625)"/>
       <path id="DejaVuSans-20" transform="scale(0.015625)"/>
       <path id="DejaVuSans-5b" d="M 550 4863 
L 1875 4863 
L 1875 4416 
L 1125 4416 
L 1125 -397 
L 1875 -397 
L 1875 -844 
L 550 -844 
L 550 4863 
z
" transform="scale(0.015625)"/>
       <path id="DejaVuSans-3bc" d="M 544 -1331 
L 544 3500 
L 1119 3500 
L 1119 1325 
Q 1119 872 1334 640 
Q 1550 409 1972 409 
Q 2434 409 2667 671 
Q 2900 934 2900 1459 
L 2900 3500 
L 3475 3500 
L 3475 806 
Q 3475 619 3529 530 
Q 3584 441 3700 441 
Q 3728 441 3778 458 
Q 3828 475 3916 513 
L 3916 50 
Q 3788 -22 3673 -56 
Q 3559 -91 3450 -91 
Q 3234 -91 3106 31 
Q 2978 153 2931 403 
Q 2775 156 2548 32 
Q 2322 -91 2016 -91 
Q 1697 -91 1473 31 
Q 1250 153 1119 397 
L 1119 -1331 
L 544 -1331 
z
" transform="scale(0.015625)"/>
       <path id="DejaVuSans-56" d="M 1831 0 
L 50 4666 
L 709 4666 
L 2188 738 
L 3669 4666 
L 4325 4666 
L 2547 0 
L 1831 0 
z
" transform="scale(0.015625)"/>
       <path id="DejaVuSans-5d" d="M 1947 4863 
L 1947 -844 
L 622 -844 
L 622 -397 
L 1369 -397 
L 1369 4416 
L 622 4416 
L 622 4863 
L 1947 4863 
z
" transform="scale(0.015625)"/>
      </defs>
      <use xlink:href="#DejaVuSans-7c" transform="translate(0 0.578125)"/>
      <use xlink:href="#DejaVuSans-Oblique-53" transform="translate(33.691406 0.578125)"/>
      <use xlink:href="#DejaVuSans-32" transform="translate(97.167969 -15.828125) scale(0.7)"/>
      <use xlink:href="#DejaVuSans-31" transform="translate(141.704102 -15.828125) scale(0.7)"/>
      <use xlink:href="#DejaVuSans-7c" transform="translate(188.974609 0.578125)"/>
      <use xlink:href="#DejaVuSans-20" transform="translate(222.666016 0.578125)"/>
      <use xlink:href="#DejaVuSans-5b" transform="translate(254.453125 0.578125)"/>
      <use xlink:href="#DejaVuSans-3bc" transform="translate(293.466797 0.578125)"/>
      <use xlink:href="#DejaVuSans-56" transform="translate(357.089844 0.578125)"/>
      <use xlink:href="#DejaVuSans-5d" transform="translate(425.498047 0.578125)"/>
     </g>
    </g>
   </g>
   <g id="line2d_13">
    <path d="M 66.82804 85.229971 
L 70.0909 83.837617 
L 71.722329 83.579709 
L 73.353759 81.849982 
L 74.985189 82.147631 
L 76.616619 80.726039 
L 78.248049 80.386178 
L 79.879479 79.647202 
L 81.510909 79.181783 
L 83.142339 79.633723 
L 84.773768 78.637451 
L 86.405198 75.579428 
L 88.036628 76.946381 
L 89.668058 75.406858 
L 91.299488 76.410526 
L 92.930918 75.470308 
L 94.562348 75.405321 
L 96.193778 76.924948 
L 97.825207 75.685215 
L 99.456637 73.461034 
L 102.719497 73.963795 
L 104.350927 73.616709 
L 105.982357 72.951717 
L 107.613787 73.023827 
L 109.245217 72.711825 
L 110.876646 73.871626 
L 112.508076 73.677223 
L 114.139506 71.493357 
L 115.770936 72.010686 
L 117.402366 73.184786 
L 119.033796 72.547729 
L 120.665226 73.883413 
L 122.296656 72.69691 
L 123.928085 72.484462 
L 125.559515 72.787141 
L 127.190945 73.888455 
L 128.822375 73.528581 
L 130.453805 73.972586 
L 132.085235 72.372852 
L 133.716665 73.158191 
L 135.348095 73.711307 
L 136.979524 73.825983 
L 138.610954 75.466702 
L 140.242384 74.185939 
L 141.873814 76.918978 
L 143.505244 75.670757 
L 145.136674 75.715912 
L 146.768104 76.812912 
L 148.399534 78.655658 
L 150.030963 77.796692 
L 151.662393 77.871387 
L 153.293823 79.385516 
L 154.925253 79.791439 
L 156.556683 80.876065 
L 158.188113 80.363381 
L 159.819543 81.036566 
L 161.450973 80.726298 
L 163.082402 82.262342 
L 164.713832 84.427892 
L 166.345262 83.802243 
L 167.976692 83.483258 
L 169.608122 86.102749 
L 171.239552 86.022817 
L 172.870982 84.437489 
L 174.502412 87.402259 
L 176.133842 86.139093 
L 177.765271 88.353707 
L 179.396701 89.769656 
L 181.028131 90.029518 
L 182.659561 91.356785 
L 184.290991 91.805081 
L 185.922421 90.65758 
L 187.553851 92.823655 
L 189.185281 93.676437 
L 190.81671 92.937706 
L 192.44814 94.024646 
L 194.07957 94.861211 
L 195.711 95.085857 
L 197.34243 95.535234 
L 198.97386 96.373735 
L 200.60529 96.742828 
L 202.23672 97.496262 
L 203.868149 99.410869 
L 205.499579 98.31198 
L 207.131009 99.767166 
L 208.762439 98.376542 
L 210.393869 98.516203 
L 212.025299 100.012542 
L 213.656729 100.108926 
L 215.288159 99.561341 
L 216.919588 100.300587 
L 218.551018 99.286352 
L 220.182448 100.414892 
L 221.813878 101.755717 
L 223.445308 100.839947 
L 225.076738 100.487229 
L 226.708168 100.816632 
L 228.339598 98.688584 
L 229.971027 100.511094 
L 231.602457 100.424002 
L 233.233887 99.803917 
L 234.865317 100.41041 
L 236.496747 98.778453 
L 238.128177 100.180693 
L 239.759607 98.814249 
L 241.391037 97.810295 
L 244.653896 97.9836 
L 246.285326 97.721817 
L 247.916756 95.088439 
L 249.548186 95.022948 
L 252.811046 95.159663 
L 254.442476 92.973978 
L 256.073905 93.014718 
L 257.705335 92.446852 
L 259.336765 91.629845 
L 260.968195 89.754881 
L 262.599625 88.999451 
L 264.231055 88.740201 
L 265.862485 87.562633 
L 267.493915 85.70599 
L 269.125344 85.546505 
L 270.756774 85.897734 
L 272.388204 83.29364 
L 274.019634 81.821831 
L 275.651064 80.080543 
L 277.282494 79.41701 
L 278.913924 81.482786 
L 280.545354 79.976302 
L 282.176783 77.103194 
L 283.808213 79.009798 
L 285.439643 75.498155 
L 287.071073 73.412189 
L 288.702503 73.383763 
L 290.333933 72.225838 
L 291.965363 71.437104 
L 293.596793 72.01923 
L 295.228223 68.398756 
L 296.859652 69.234897 
L 298.491082 68.05619 
L 300.122512 68.276869 
L 301.753942 66.136879 
L 303.385372 66.226571 
L 305.016802 65.564346 
L 306.648232 63.995057 
L 308.279662 65.142417 
L 309.911091 62.847505 
L 311.542521 62.993014 
L 313.173951 61.35065 
L 314.805381 60.077602 
L 316.436811 59.401024 
L 318.068241 58.138932 
L 321.331101 58.300157 
L 322.96253 57.604727 
L 324.59396 55.854006 
L 326.22539 55.469602 
L 327.85682 54.218035 
L 329.48825 54.338729 
L 331.11968 53.781641 
L 332.75111 52.579689 
L 334.38254 52.119407 
L 336.013969 52.527478 
L 337.645399 51.288054 
L 339.276829 52.74656 
L 340.908259 50.31434 
L 344.171119 49.483805 
L 345.802549 49.710364 
L 347.433979 51.190389 
L 349.065408 49.690815 
L 350.696838 48.580037 
L 352.328268 47.975394 
L 355.591128 48.528228 
L 357.222558 47.258182 
L 358.853988 48.251941 
L 360.485418 47.737615 
L 362.116847 48.284499 
L 363.748277 47.511231 
L 365.379707 49.103366 
L 367.011137 49.288782 
L 368.642567 51.205953 
L 370.273997 53.356738 
L 373.536857 70.759237 
L 375.168286 87.539551 
L 376.799716 100.114317 
L 380.062576 139.511474 
L 381.694006 153.057079 
L 383.325436 157.221818 
L 384.956866 151.883306 
L 388.219725 133.51355 
L 389.851155 126.451807 
L 391.482585 123.174034 
L 391.482585 123.174034 
" clip-path="url(#pfd51483a66)" style="fill: none; stroke: #1f77b4; stroke-width: 1.5; stroke-linecap: square"/>
    <defs>
     <path id="me5519394e3" d="M 0 1.5 
C 0.397805 1.5 0.77937 1.341951 1.06066 1.06066 
C 1.341951 0.77937 1.5 0.397805 1.5 0 
C 1.5 -0.397805 1.341951 -0.77937 1.06066 -1.06066 
C 0.77937 -1.341951 0.397805 -1.5 0 -1.5 
C -0.397805 -1.5 -0.77937 -1.341951 -1.06066 -1.06066 
C -1.341951 -0.77937 -1.5 -0.397805 -1.5 0 
C -1.5 0.397805 -1.341951 0.77937 -1.06066 1.06066 
C -0.77937 1.341951 -0.397805 1.5 0 1.5 
z
" style="stroke: #1f77b4"/>
    </defs>
    <g clip-path="url(#pfd51483a66)">
     <use xlink:href="#me5519394e3" x="66.82804" y="85.229971" style="fill: #1f77b4; stroke: #1f77b4"/>
     <use xlink:href="#me5519394e3" x="68.45947" y="84.48488" style="fill: #1f77b4; stroke: #1f77b4"/>
     <use xlink:href="#me5519394e3" x="70.0909" y="83.837617" style="fill: #1f77b4; stroke: #1f77b4"/>
     <use xlink:href="#me5519394e3" x="71.722329" y="83.579709" style="fill: #1f77b4; stroke: #1f77b4"/>
     <use xlink:href="#me5519394e3" x="73.353759" y="81.849982" style="fill: #1f77b4; stroke: #1f77b4"/>
     <use xlink:href="#me5519394e3" x="74.985189" y="82.147631" style="fill: #1f77b4; stroke: #1f77b4"/>
     <use xlink:href="#me5519394e3" x="76.616619" y="80.726039" style="fill: #1f77b4; stroke: #1f77b4"/>
     <use xlink:href="#me5519394e3" x="78.248049" y="80.386178" style="fill: #1f77b4; stroke: #1f77b4"/>
     <use xlink:href="#me5519394e3" x="79.879479" y="79.647202" style="fill: #1f77b4; stroke: #1f77b4"/>
     <use xlink:href="#me5519394e3" x="81.510909" y="79.181783" style="fill: #1f77b4; stroke: #1f77b4"/>
     <use xlink:href="#me5519394e3" x="83.142339" y="79.633723" style="fill: #1f77b4; stroke: #1f77b4"/>
     <use xlink:href="#me5519394e3" x="84.773768" y="78.637451" style="fill: #1f77b4; stroke: #1f77b4"/>
     <use xlink:href="#me5519394e3" x="86.405198" y="75.579428" style="fill: #1f77b4; stroke: #1f77b4"/>
     <use xlink:href="#me5519394e3" x="88.036628" y="76.946381" style="fill: #1f77b4; stroke: #1f77b4"/>
     <use xlink:href="#me5519394e3" x="89.668058" y="75.406858" style="fill: #1f77b4; stroke: #1f77b4"/>
     <use xlink:href="#me5519394e3" x="91.299488" y="76.410526" style="fill: #1f77b4; stroke: #1f77b4"/>
     <use xlink:href="#me5519394e3" x="92.930918" y="75.470308" style="fill: #1f77b4; stroke: #1f77b4"/>
     <use xlink:href="#me5519394e3" x="94.562348" y="75.405321" style="fill: #1f77b4; stroke: #1f77b4"/>
     <use xlink:href="#me5519394e3" x="96.193778" y="76.924948" style="fill: #1f77b4; stroke: #1f77b4"/>
     <use xlink:href="#me5519394e3" x="97.825207" y="75.685215" style="fill: #1f77b4; stroke: #1f77b4"/>
     <use xlink:href="#me5519394e3" x="99.456637" y="73.461034" style="fill: #1f77b4; stroke: #1f77b4"/>
     <use xlink:href="#me5519394e3" x="101.088067" y="73.701292" style="fill: #1f77b4; stroke: #1f77b4"/>
     <use xlink:href="#me5519394e3" x="102.719497" y="73.963795" style="fill: #1f77b4; stroke: #1f77b4"/>
     <use xlink:href="#me5519394e3" x="104.350927" y="73.616709" style="fill: #1f77b4; stroke: #1f77b4"/>
     <use xlink:href="#me5519394e3" x="105.982357" y="72.951717" style="fill: #1f77b4; stroke: #1f77b4"/>
     <use xlink:href="#me5519394e3" x="107.613787" y="73.023827" style="fill: #1f77b4; stroke: #1f77b4"/>
     <use xlink:href="#me5519394e3" x="109.245217" y="72.711825" style="fill: #1f77b4; stroke: #1f77b4"/>
     <use xlink:href="#me5519394e3" x="110.876646" y="73.871626" style="fill: #1f77b4; stroke: #1f77b4"/>
     <use xlink:href="#me5519394e3" x="112.508076" y="73.677223" style="fill: #1f77b4; stroke: #1f77b4"/>
     <use xlink:href="#me5519394e3" x="114.139506" y="71.493357" style="fill: #1f77b4; stroke: #1f77b4"/>
     <use xlink:href="#me5519394e3" x="115.770936" y="72.010686" style="fill: #1f77b4; stroke: #1f77b4"/>
     <use xlink:href="#me5519394e3" x="117.402366" y="73.184786" style="fill: #1f77b4; stroke: #1f77b4"/>
     <use xlink:href="#me5519394e3" x="119.033796" y="72.547729" style="fill: #1f77b4; stroke: #1f77b4"/>
     <use xlink:href="#me5519394e3" x="120.665226" y="73.883413" style="fill: #1f77b4; stroke: #1f77b4"/>
     <use xlink:href="#me5519394e3" x="122.296656" y="72.69691" style="fill: #1f77b4; stroke: #1f77b4"/>
     <use xlink:href="#me5519394e3" x="123.928085" y="72.484462" style="fill: #1f77b4; stroke: #1f77b4"/>
     <use xlink:href="#me5519394e3" x="125.559515" y="72.787141" style="fill: #1f77b4; stroke: #1f77b4"/>
     <use xlink:href="#me5519394e3" x="127.190945" y="73.888455" style="fill: #1f77b4; stroke: #1f77b4"/>
     <use xlink:href="#me5519394e3" x="128.822375" y="73.528581" style="fill: #1f77b4; stroke: #1f77b4"/>
     <use xlink:href="#me5519394e3" x="130.453805" y="73.972586" style="fill: #1f77b4; stroke: #1f77b4"/>
     <use xlink:href="#me5519394e3" x="132.085235" y="72.372852" style="fill: #1f77b4; stroke: #1f77b4"/>
     <use xlink:href="#me5519394e3" x="133.716665" y="73.158191" style="fill: #1f77b4; stroke: #1f77b4"/>
     <use xlink:href="#me5519394e3" x="135.348095" y="73.711307" style="fill: #1f77b4; stroke: #1f77b4"/>
     <use xlink:href="#me5519394e3" x="136.979524" y="73.825983" style="fill: #1f77b4; stroke: #1f77b4"/>
     <use xlink:href="#me5519394e3" x="138.610954" y="75.466702" style="fill: #1f77b4; stroke: #1f77b4"/>
     <use xlink:href="#me5519394e3" x="140.242384" y="74.185939" style="fill: #1f77b4; stroke: #1f77b4"/>
     <use xlink:href="#me5519394e3" x="141.873814" y="76.918978" style="fill: #1f77b4; stroke: #1f77b4"/>
     <use xlink:href="#me5519394e3" x="143.505244" y="75.670757" style="fill: #1f77b4; stroke: #1f77b4"/>
     <use xlink:href="#me5519394e3" x="145.136674" y="75.715912" style="fill: #1f77b4; stroke: #1f77b4"/>
     <use xlink:href="#me5519394e3" x="146.768104" y="76.812912" style="fill: #1f77b4; stroke: #1f77b4"/>
     <use xlink:href="#me5519394e3" x="148.399534" y="78.655658" style="fill: #1f77b4; stroke: #1f77b4"/>
     <use xlink:href="#me5519394e3" x="150.030963" y="77.796692" style="fill: #1f77b4; stroke: #1f77b4"/>
     <use xlink:href="#me5519394e3" x="151.662393" y="77.871387" style="fill: #1f77b4; stroke: #1f77b4"/>
     <use xlink:href="#me5519394e3" x="153.293823" y="79.385516" style="fill: #1f77b4; stroke: #1f77b4"/>
     <use xlink:href="#me5519394e3" x="154.925253" y="79.791439" style="fill: #1f77b4; stroke: #1f77b4"/>
     <use xlink:href="#me5519394e3" x="156.556683" y="80.876065" style="fill: #1f77b4; stroke: #1f77b4"/>
     <use xlink:href="#me5519394e3" x="158.188113" y="80.363381" style="fill: #1f77b4; stroke: #1f77b4"/>
     <use xlink:href="#me5519394e3" x="159.819543" y="81.036566" style="fill: #1f77b4; stroke: #1f77b4"/>
     <use xlink:href="#me5519394e3" x="161.450973" y="80.726298" style="fill: #1f77b4; stroke: #1f77b4"/>
     <use xlink:href="#me5519394e3" x="163.082402" y="82.262342" style="fill: #1f77b4; stroke: #1f77b4"/>
     <use xlink:href="#me5519394e3" x="164.713832" y="84.427892" style="fill: #1f77b4; stroke: #1f77b4"/>
     <use xlink:href="#me5519394e3" x="166.345262" y="83.802243" style="fill: #1f77b4; stroke: #1f77b4"/>
     <use xlink:href="#me5519394e3" x="167.976692" y="83.483258" style="fill: #1f77b4; stroke: #1f77b4"/>
     <use xlink:href="#me5519394e3" x="169.608122" y="86.102749" style="fill: #1f77b4; stroke: #1f77b4"/>
     <use xlink:href="#me5519394e3" x="171.239552" y="86.022817" style="fill: #1f77b4; stroke: #1f77b4"/>
     <use xlink:href="#me5519394e3" x="172.870982" y="84.437489" style="fill: #1f77b4; stroke: #1f77b4"/>
     <use xlink:href="#me5519394e3" x="174.502412" y="87.402259" style="fill: #1f77b4; stroke: #1f77b4"/>
     <use xlink:href="#me5519394e3" x="176.133842" y="86.139093" style="fill: #1f77b4; stroke: #1f77b4"/>
     <use xlink:href="#me5519394e3" x="177.765271" y="88.353707" style="fill: #1f77b4; stroke: #1f77b4"/>
     <use xlink:href="#me5519394e3" x="179.396701" y="89.769656" style="fill: #1f77b4; stroke: #1f77b4"/>
     <use xlink:href="#me5519394e3" x="181.028131" y="90.029518" style="fill: #1f77b4; stroke: #1f77b4"/>
     <use xlink:href="#me5519394e3" x="182.659561" y="91.356785" style="fill: #1f77b4; stroke: #1f77b4"/>
     <use xlink:href="#me5519394e3" x="184.290991" y="91.805081" style="fill: #1f77b4; stroke: #1f77b4"/>
     <use xlink:href="#me5519394e3" x="185.922421" y="90.65758" style="fill: #1f77b4; stroke: #1f77b4"/>
     <use xlink:href="#me5519394e3" x="187.553851" y="92.823655" style="fill: #1f77b4; stroke: #1f77b4"/>
     <use xlink:href="#me5519394e3" x="189.185281" y="93.676437" style="fill: #1f77b4; stroke: #1f77b4"/>
     <use xlink:href="#me5519394e3" x="190.81671" y="92.937706" style="fill: #1f77b4; stroke: #1f77b4"/>
     <use xlink:href="#me5519394e3" x="192.44814" y="94.024646" style="fill: #1f77b4; stroke: #1f77b4"/>
     <use xlink:href="#me5519394e3" x="194.07957" y="94.861211" style="fill: #1f77b4; stroke: #1f77b4"/>
     <use xlink:href="#me5519394e3" x="195.711" y="95.085857" style="fill: #1f77b4; stroke: #1f77b4"/>
     <use xlink:href="#me5519394e3" x="197.34243" y="95.535234" style="fill: #1f77b4; stroke: #1f77b4"/>
     <use xlink:href="#me5519394e3" x="198.97386" y="96.373735" style="fill: #1f77b4; stroke: #1f77b4"/>
     <use xlink:href="#me5519394e3" x="200.60529" y="96.742828" style="fill: #1f77b4; stroke: #1f77b4"/>
     <use xlink:href="#me5519394e3" x="202.23672" y="97.496262" style="fill: #1f77b4; stroke: #1f77b4"/>
     <use xlink:href="#me5519394e3" x="203.868149" y="99.410869" style="fill: #1f77b4; stroke: #1f77b4"/>
     <use xlink:href="#me5519394e3" x="205.499579" y="98.31198" style="fill: #1f77b4; stroke: #1f77b4"/>
     <use xlink:href="#me5519394e3" x="207.131009" y="99.767166" style="fill: #1f77b4; stroke: #1f77b4"/>
     <use xlink:href="#me5519394e3" x="208.762439" y="98.376542" style="fill: #1f77b4; stroke: #1f77b4"/>
     <use xlink:href="#me5519394e3" x="210.393869" y="98.516203" style="fill: #1f77b4; stroke: #1f77b4"/>
     <use xlink:href="#me5519394e3" x="212.025299" y="100.012542" style="fill: #1f77b4; stroke: #1f77b4"/>
     <use xlink:href="#me5519394e3" x="213.656729" y="100.108926" style="fill: #1f77b4; stroke: #1f77b4"/>
     <use xlink:href="#me5519394e3" x="215.288159" y="99.561341" style="fill: #1f77b4; stroke: #1f77b4"/>
     <use xlink:href="#me5519394e3" x="216.919588" y="100.300587" style="fill: #1f77b4; stroke: #1f77b4"/>
     <use xlink:href="#me5519394e3" x="218.551018" y="99.286352" style="fill: #1f77b4; stroke: #1f77b4"/>
     <use xlink:href="#me5519394e3" x="220.182448" y="100.414892" style="fill: #1f77b4; stroke: #1f77b4"/>
     <use xlink:href="#me5519394e3" x="221.813878" y="101.755717" style="fill: #1f77b4; stroke: #1f77b4"/>
     <use xlink:href="#me5519394e3" x="223.445308" y="100.839947" style="fill: #1f77b4; stroke: #1f77b4"/>
     <use xlink:href="#me5519394e3" x="225.076738" y="100.487229" style="fill: #1f77b4; stroke: #1f77b4"/>
     <use xlink:href="#me5519394e3" x="226.708168" y="100.816632" style="fill: #1f77b4; stroke: #1f77b4"/>
     <use xlink:href="#me5519394e3" x="228.339598" y="98.688584" style="fill: #1f77b4; stroke: #1f77b4"/>
     <use xlink:href="#me5519394e3" x="229.971027" y="100.511094" style="fill: #1f77b4; stroke: #1f77b4"/>
     <use xlink:href="#me5519394e3" x="231.602457" y="100.424002" style="fill: #1f77b4; stroke: #1f77b4"/>
     <use xlink:href="#me5519394e3" x="233.233887" y="99.803917" style="fill: #1f77b4; stroke: #1f77b4"/>
     <use xlink:href="#me5519394e3" x="234.865317" y="100.41041" style="fill: #1f77b4; stroke: #1f77b4"/>
     <use xlink:href="#me5519394e3" x="236.496747" y="98.778453" style="fill: #1f77b4; stroke: #1f77b4"/>
     <use xlink:href="#me5519394e3" x="238.128177" y="100.180693" style="fill: #1f77b4; stroke: #1f77b4"/>
     <use xlink:href="#me5519394e3" x="239.759607" y="98.814249" style="fill: #1f77b4; stroke: #1f77b4"/>
     <use xlink:href="#me5519394e3" x="241.391037" y="97.810295" style="fill: #1f77b4; stroke: #1f77b4"/>
     <use xlink:href="#me5519394e3" x="243.022466" y="97.934545" style="fill: #1f77b4; stroke: #1f77b4"/>
     <use xlink:href="#me5519394e3" x="244.653896" y="97.9836" style="fill: #1f77b4; stroke: #1f77b4"/>
     <use xlink:href="#me5519394e3" x="246.285326" y="97.721817" style="fill: #1f77b4; stroke: #1f77b4"/>
     <use xlink:href="#me5519394e3" x="247.916756" y="95.088439" style="fill: #1f77b4; stroke: #1f77b4"/>
     <use xlink:href="#me5519394e3" x="249.548186" y="95.022948" style="fill: #1f77b4; stroke: #1f77b4"/>
     <use xlink:href="#me5519394e3" x="251.179616" y="95.076552" style="fill: #1f77b4; stroke: #1f77b4"/>
     <use xlink:href="#me5519394e3" x="252.811046" y="95.159663" style="fill: #1f77b4; stroke: #1f77b4"/>
     <use xlink:href="#me5519394e3" x="254.442476" y="92.973978" style="fill: #1f77b4; stroke: #1f77b4"/>
     <use xlink:href="#me5519394e3" x="256.073905" y="93.014718" style="fill: #1f77b4; stroke: #1f77b4"/>
     <use xlink:href="#me5519394e3" x="257.705335" y="92.446852" style="fill: #1f77b4; stroke: #1f77b4"/>
     <use xlink:href="#me5519394e3" x="259.336765" y="91.629845" style="fill: #1f77b4; stroke: #1f77b4"/>
     <use xlink:href="#me5519394e3" x="260.968195" y="89.754881" style="fill: #1f77b4; stroke: #1f77b4"/>
     <use xlink:href="#me5519394e3" x="262.599625" y="88.999451" style="fill: #1f77b4; stroke: #1f77b4"/>
     <use xlink:href="#me5519394e3" x="264.231055" y="88.740201" style="fill: #1f77b4; stroke: #1f77b4"/>
     <use xlink:href="#me5519394e3" x="265.862485" y="87.562633" style="fill: #1f77b4; stroke: #1f77b4"/>
     <use xlink:href="#me5519394e3" x="267.493915" y="85.70599" style="fill: #1f77b4; stroke: #1f77b4"/>
     <use xlink:href="#me5519394e3" x="269.125344" y="85.546505" style="fill: #1f77b4; stroke: #1f77b4"/>
     <use xlink:href="#me5519394e3" x="270.756774" y="85.897734" style="fill: #1f77b4; stroke: #1f77b4"/>
     <use xlink:href="#me5519394e3" x="272.388204" y="83.29364" style="fill: #1f77b4; stroke: #1f77b4"/>
     <use xlink:href="#me5519394e3" x="274.019634" y="81.821831" style="fill: #1f77b4; stroke: #1f77b4"/>
     <use xlink:href="#me5519394e3" x="275.651064" y="80.080543" style="fill: #1f77b4; stroke: #1f77b4"/>
     <use xlink:href="#me5519394e3" x="277.282494" y="79.41701" style="fill: #1f77b4; stroke: #1f77b4"/>
     <use xlink:href="#me5519394e3" x="278.913924" y="81.482786" style="fill: #1f77b4; stroke: #1f77b4"/>
     <use xlink:href="#me5519394e3" x="280.545354" y="79.976302" style="fill: #1f77b4; stroke: #1f77b4"/>
     <use xlink:href="#me5519394e3" x="282.176783" y="77.103194" style="fill: #1f77b4; stroke: #1f77b4"/>
     <use xlink:href="#me5519394e3" x="283.808213" y="79.009798" style="fill: #1f77b4; stroke: #1f77b4"/>
     <use xlink:href="#me5519394e3" x="285.439643" y="75.498155" style="fill: #1f77b4; stroke: #1f77b4"/>
     <use xlink:href="#me5519394e3" x="287.071073" y="73.412189" style="fill: #1f77b4; stroke: #1f77b4"/>
     <use xlink:href="#me5519394e3" x="288.702503" y="73.383763" style="fill: #1f77b4; stroke: #1f77b4"/>
     <use xlink:href="#me5519394e3" x="290.333933" y="72.225838" style="fill: #1f77b4; stroke: #1f77b4"/>
     <use xlink:href="#me5519394e3" x="291.965363" y="71.437104" style="fill: #1f77b4; stroke: #1f77b4"/>
     <use xlink:href="#me5519394e3" x="293.596793" y="72.01923" style="fill: #1f77b4; stroke: #1f77b4"/>
     <use xlink:href="#me5519394e3" x="295.228223" y="68.398756" style="fill: #1f77b4; stroke: #1f77b4"/>
     <use xlink:href="#me5519394e3" x="296.859652" y="69.234897" style="fill: #1f77b4; stroke: #1f77b4"/>
     <use xlink:href="#me5519394e3" x="298.491082" y="68.05619" style="fill: #1f77b4; stroke: #1f77b4"/>
     <use xlink:href="#me5519394e3" x="300.122512" y="68.276869" style="fill: #1f77b4; stroke: #1f77b4"/>
     <use xlink:href="#me5519394e3" x="301.753942" y="66.136879" style="fill: #1f77b4; stroke: #1f77b4"/>
     <use xlink:href="#me5519394e3" x="303.385372" y="66.226571" style="fill: #1f77b4; stroke: #1f77b4"/>
     <use xlink:href="#me5519394e3" x="305.016802" y="65.564346" style="fill: #1f77b4; stroke: #1f77b4"/>
     <use xlink:href="#me5519394e3" x="306.648232" y="63.995057" style="fill: #1f77b4; stroke: #1f77b4"/>
     <use xlink:href="#me5519394e3" x="308.279662" y="65.142417" style="fill: #1f77b4; stroke: #1f77b4"/>
     <use xlink:href="#me5519394e3" x="309.911091" y="62.847505" style="fill: #1f77b4; stroke: #1f77b4"/>
     <use xlink:href="#me5519394e3" x="311.542521" y="62.993014" style="fill: #1f77b4; stroke: #1f77b4"/>
     <use xlink:href="#me5519394e3" x="313.173951" y="61.35065" style="fill: #1f77b4; stroke: #1f77b4"/>
     <use xlink:href="#me5519394e3" x="314.805381" y="60.077602" style="fill: #1f77b4; stroke: #1f77b4"/>
     <use xlink:href="#me5519394e3" x="316.436811" y="59.401024" style="fill: #1f77b4; stroke: #1f77b4"/>
     <use xlink:href="#me5519394e3" x="318.068241" y="58.138932" style="fill: #1f77b4; stroke: #1f77b4"/>
     <use xlink:href="#me5519394e3" x="319.699671" y="58.224454" style="fill: #1f77b4; stroke: #1f77b4"/>
     <use xlink:href="#me5519394e3" x="321.331101" y="58.300157" style="fill: #1f77b4; stroke: #1f77b4"/>
     <use xlink:href="#me5519394e3" x="322.96253" y="57.604727" style="fill: #1f77b4; stroke: #1f77b4"/>
     <use xlink:href="#me5519394e3" x="324.59396" y="55.854006" style="fill: #1f77b4; stroke: #1f77b4"/>
     <use xlink:href="#me5519394e3" x="326.22539" y="55.469602" style="fill: #1f77b4; stroke: #1f77b4"/>
     <use xlink:href="#me5519394e3" x="327.85682" y="54.218035" style="fill: #1f77b4; stroke: #1f77b4"/>
     <use xlink:href="#me5519394e3" x="329.48825" y="54.338729" style="fill: #1f77b4; stroke: #1f77b4"/>
     <use xlink:href="#me5519394e3" x="331.11968" y="53.781641" style="fill: #1f77b4; stroke: #1f77b4"/>
     <use xlink:href="#me5519394e3" x="332.75111" y="52.579689" style="fill: #1f77b4; stroke: #1f77b4"/>
     <use xlink:href="#me5519394e3" x="334.38254" y="52.119407" style="fill: #1f77b4; stroke: #1f77b4"/>
     <use xlink:href="#me5519394e3" x="336.013969" y="52.527478" style="fill: #1f77b4; stroke: #1f77b4"/>
     <use xlink:href="#me5519394e3" x="337.645399" y="51.288054" style="fill: #1f77b4; stroke: #1f77b4"/>
     <use xlink:href="#me5519394e3" x="339.276829" y="52.74656" style="fill: #1f77b4; stroke: #1f77b4"/>
     <use xlink:href="#me5519394e3" x="340.908259" y="50.31434" style="fill: #1f77b4; stroke: #1f77b4"/>
     <use xlink:href="#me5519394e3" x="342.539689" y="49.883017" style="fill: #1f77b4; stroke: #1f77b4"/>
     <use xlink:href="#me5519394e3" x="344.171119" y="49.483805" style="fill: #1f77b4; stroke: #1f77b4"/>
     <use xlink:href="#me5519394e3" x="345.802549" y="49.710364" style="fill: #1f77b4; stroke: #1f77b4"/>
     <use xlink:href="#me5519394e3" x="347.433979" y="51.190389" style="fill: #1f77b4; stroke: #1f77b4"/>
     <use xlink:href="#me5519394e3" x="349.065408" y="49.690815" style="fill: #1f77b4; stroke: #1f77b4"/>
     <use xlink:href="#me5519394e3" x="350.696838" y="48.580037" style="fill: #1f77b4; stroke: #1f77b4"/>
     <use xlink:href="#me5519394e3" x="352.328268" y="47.975394" style="fill: #1f77b4; stroke: #1f77b4"/>
     <use xlink:href="#me5519394e3" x="353.959698" y="48.276343" style="fill: #1f77b4; stroke: #1f77b4"/>
     <use xlink:href="#me5519394e3" x="355.591128" y="48.528228" style="fill: #1f77b4; stroke: #1f77b4"/>
     <use xlink:href="#me5519394e3" x="357.222558" y="47.258182" style="fill: #1f77b4; stroke: #1f77b4"/>
     <use xlink:href="#me5519394e3" x="358.853988" y="48.251941" style="fill: #1f77b4; stroke: #1f77b4"/>
     <use xlink:href="#me5519394e3" x="360.485418" y="47.737615" style="fill: #1f77b4; stroke: #1f77b4"/>
     <use xlink:href="#me5519394e3" x="362.116847" y="48.284499" style="fill: #1f77b4; stroke: #1f77b4"/>
     <use xlink:href="#me5519394e3" x="363.748277" y="47.511231" style="fill: #1f77b4; stroke: #1f77b4"/>
     <use xlink:href="#me5519394e3" x="365.379707" y="49.103366" style="fill: #1f77b4; stroke: #1f77b4"/>
     <use xlink:href="#me5519394e3" x="367.011137" y="49.288782" style="fill: #1f77b4; stroke: #1f77b4"/>
     <use xlink:href="#me5519394e3" x="368.642567" y="51.205953" style="fill: #1f77b4; stroke: #1f77b4"/>
     <use xlink:href="#me5519394e3" x="370.273997" y="53.356738" style="fill: #1f77b4; stroke: #1f77b4"/>
     <use xlink:href="#me5519394e3" x="371.905427" y="62.103313" style="fill: #1f77b4; stroke: #1f77b4"/>
     <use xlink:href="#me5519394e3" x="373.536857" y="70.759237" style="fill: #1f77b4; stroke: #1f77b4"/>
     <use xlink:href="#me5519394e3" x="375.168286" y="87.539551" style="fill: #1f77b4; stroke: #1f77b4"/>
     <use xlink:href="#me5519394e3" x="376.799716" y="100.114317" style="fill: #1f77b4; stroke: #1f77b4"/>
     <use xlink:href="#me5519394e3" x="378.431146" y="120.21434" style="fill: #1f77b4; stroke: #1f77b4"/>
     <use xlink:href="#me5519394e3" x="380.062576" y="139.511474" style="fill: #1f77b4; stroke: #1f77b4"/>
     <use xlink:href="#me5519394e3" x="381.694006" y="153.057079" style="fill: #1f77b4; stroke: #1f77b4"/>
     <use xlink:href="#me5519394e3" x="383.325436" y="157.221818" style="fill: #1f77b4; stroke: #1f77b4"/>
     <use xlink:href="#me5519394e3" x="384.956866" y="151.883306" style="fill: #1f77b4; stroke: #1f77b4"/>
     <use xlink:href="#me5519394e3" x="386.588296" y="142.922601" style="fill: #1f77b4; stroke: #1f77b4"/>
     <use xlink:href="#me5519394e3" x="388.219725" y="133.51355" style="fill: #1f77b4; stroke: #1f77b4"/>
     <use xlink:href="#me5519394e3" x="389.851155" y="126.451807" style="fill: #1f77b4; stroke: #1f77b4"/>
     <use xlink:href="#me5519394e3" x="391.482585" y="123.174034" style="fill: #1f77b4; stroke: #1f77b4"/>
    </g>
   </g>
   <g id="line2d_14">
    <path d="M 66.82804 82.176224 
L 142.548269 81.630757 
L 193.570055 81.054016 
L 229.642782 80.4359 
L 256.291103 79.766144 
L 276.439833 79.045374 
L 292.038851 78.27319 
L 304.388073 77.44809 
L 314.462438 76.5577 
L 322.586926 75.626321 
L 329.411496 74.629539 
L 335.261127 73.55394 
L 340.13582 72.441406 
L 344.360554 71.261915 
L 348.260308 69.937495 
L 351.510104 68.609526 
L 354.434919 67.193863 
L 357.359735 65.522025 
L 359.959571 63.784411 
L 362.559408 61.796096 
L 368.409039 57.119721 
L 369.383978 56.670484 
L 370.033937 56.544979 
L 370.683896 56.620281 
L 371.333855 56.966346 
L 371.983814 57.671535 
L 372.633773 58.844715 
L 373.283732 60.615314 
L 373.933691 63.129303 
L 374.58365 66.538535 
L 375.233609 70.980992 
L 376.208548 79.768329 
L 377.183486 91.025966 
L 378.808384 113.240236 
L 380.108302 130.426262 
L 381.08324 140.45471 
L 381.733199 144.969569 
L 382.383159 147.470921 
L 382.708138 147.983276 
L 383.033118 148.054994 
L 383.358097 147.744791 
L 383.683077 147.118679 
L 384.333036 145.177709 
L 385.632954 139.947634 
L 387.90781 130.633728 
L 389.532708 125.050016 
L 390.832626 121.273641 
L 391.482585 119.590657 
L 391.482585 119.590657 
" clip-path="url(#pfd51483a66)" style="fill: none; stroke: #d62728; stroke-width: 1.5; stroke-linecap: square"/>
   </g>
   <g id="patch_3">
    <path d="M 50.595313 162.72 
L 50.595313 41.76 
" style="fill: none; stroke: #000000; stroke-width: 0.8; stroke-linejoin: miter; stroke-linecap: square"/>
   </g>
   <g id="patch_4">
    <path d="M 407.715312 162.72 
L 407.715312 41.76 
" style="fill: none; stroke: #000000; stroke-width: 0.8; stroke-linejoin: miter; stroke-linecap: square"/>
   </g>
   <g id="patch_5">
    <path d="M 50.595312 162.72 
L 407.715312 162.72 
" style="fill: none; stroke: #000000; stroke-width: 0.8; stroke-linejoin: miter; stroke-linecap: square"/>
   </g>
   <g id="patch_6">
    <path d="M 50.595312 41.76 
L 407.715312 41.76 
" style="fill: none; stroke: #000000; stroke-width: 0.8; stroke-linejoin: miter; stroke-linecap: square"/>
   </g>
   <g id="text_5">
    <g id="patch_7">
     <path d="M 425.571312 72.683938 
L 585.679125 72.683938 
Q 589.679125 72.683938 589.679125 68.683938 
L 589.679125 47.808 
Q 589.679125 43.808 585.679125 43.808 
L 425.571312 43.808 
Q 421.571312 43.808 421.571312 47.808 
L 421.571312 68.683938 
Q 421.571312 72.683938 425.571312 72.683938 
z
" style="fill: #ffffff; opacity: 0.5; stroke: #000000; stroke-linejoin: miter"/>
    </g>
    <!-- Warning: fit failed. lmfit was not -->
    <g transform="translate(425.571312 55.406437) scale(0.1 -0.1)">
     <defs>
      <path id="DejaVuSans-57" d="M 213 4666 
L 850 4666 
L 1831 722 
L 2809 4666 
L 3519 4666 
L 4500 722 
L 5478 4666 
L 6119 4666 
L 4947 0 
L 4153 0 
L 3169 4050 
L 2175 0 
L 1381 0 
L 213 4666 
z
" transform="scale(0.015625)"/>
      <path id="DejaVuSans-61" d="M 2194 1759 
Q 1497 1759 1228 1600 
Q 959 1441 959 1056 
Q 959 750 1161 570 
Q 1363 391 1709 391 
Q 2188 391 2477 730 
Q 2766 1069 2766 1631 
L 2766 1759 
L 2194 1759 
z
M 3341 1997 
L 3341 0 
L 2766 0 
L 2766 531 
Q 2569 213 2275 61 
Q 1981 -91 1556 -91 
Q 1019 -91 701 211 
Q 384 513 384 1019 
Q 384 1609 779 1909 
Q 1175 2209 1959 2209 
L 2766 2209 
L 2766 2266 
Q 2766 2663 2505 2880 
Q 2244 3097 1772 3097 
Q 1472 3097 1187 3025 
Q 903 2953 641 2809 
L 641 3341 
Q 956 3463 1253 3523 
Q 1550 3584 1831 3584 
Q 2591 3584 2966 3190 
Q 3341 2797 3341 1997 
z
" transform="scale(0.015625)"/>
      <path id="DejaVuSans-72" d="M 2631 2963 
Q 2534 3019 2420 3045 
Q 2306 3072 2169 3072 
Q 1681 3072 1420 2755 
Q 1159 2438 1159 1844 
L 1159 0 
L 581 0 
L 581 3500 
L 1159 3500 
L 1159 2956 
Q 1341 3275 1631 3429 
Q 1922 3584 2338 3584 
Q 2397 3584 2469 3576 
Q 2541 3569 2628 3553 
L 2631 2963 
z
" transform="scale(0.015625)"/>
      <path id="DejaVuSans-6e" d="M 3513 2113 
L 3513 0 
L 2938 0 
L 2938 2094 
Q 2938 2591 2744 2837 
Q 2550 3084 2163 3084 
Q 1697 3084 1428 2787 
Q 1159 2491 1159 1978 
L 1159 0 
L 581 0 
L 581 3500 
L 1159 3500 
L 1159 2956 
Q 1366 3272 1645 3428 
Q 1925 3584 2291 3584 
Q 2894 3584 3203 3211 
Q 3513 2838 3513 2113 
z
" transform="scale(0.015625)"/>
      <path id="DejaVuSans-69" d="M 603 3500 
L 1178 3500 
L 1178 0 
L 603 0 
L 603 3500 
z
M 603 4863 
L 1178 4863 
L 1178 4134 
L 603 4134 
L 603 4863 
z
" transform="scale(0.015625)"/>
      <path id="DejaVuSans-67" d="M 2906 1791 
Q 2906 2416 2648 2759 
Q 2391 3103 1925 3103 
Q 1463 3103 1205 2759 
Q 947 2416 947 1791 
Q 947 1169 1205 825 
Q 1463 481 1925 481 
Q 2391 481 2648 825 
Q 2906 1169 2906 1791 
z
M 3481 434 
Q 3481 -459 3084 -895 
Q 2688 -1331 1869 -1331 
Q 1566 -1331 1297 -1286 
Q 1028 -1241 775 -1147 
L 775 -588 
Q 1028 -725 1275 -790 
Q 1522 -856 1778 -856 
Q 2344 -856 2625 -561 
Q 2906 -266 2906 331 
L 2906 616 
Q 2728 306 2450 153 
Q 2172 0 1784 0 
Q 1141 0 747 490 
Q 353 981 353 1791 
Q 353 2603 747 3093 
Q 1141 3584 1784 3584 
Q 2172 3584 2450 3431 
Q 2728 3278 2906 2969 
L 2906 3500 
L 3481 3500 
L 3481 434 
z
" transform="scale(0.015625)"/>
      <path id="DejaVuSans-3a" d="M 750 794 
L 1409 794 
L 1409 0 
L 750 0 
L 750 794 
z
M 750 3309 
L 1409 3309 
L 1409 2516 
L 750 2516 
L 750 3309 
z
" transform="scale(0.015625)"/>
      <path id="DejaVuSans-66" d="M 2375 4863 
L 2375 4384 
L 1825 4384 
Q 1516 4384 1395 4259 
Q 1275 4134 1275 3809 
L 1275 3500 
L 2222 3500 
L 2222 3053 
L 1275 3053 
L 1275 0 
L 697 0 
L 697 3053 
L 147 3053 
L 147 3500 
L 697 3500 
L 697 3744 
Q 697 4328 969 4595 
Q 1241 4863 1831 4863 
L 2375 4863 
z
" transform="scale(0.015625)"/>
      <path id="DejaVuSans-74" d="M 1172 4494 
L 1172 3500 
L 2356 3500 
L 2356 3053 
L 1172 3053 
L 1172 1153 
Q 1172 725 1289 603 
Q 1406 481 1766 481 
L 2356 481 
L 2356 0 
L 1766 0 
Q 1100 0 847 248 
Q 594 497 594 1153 
L 594 3053 
L 172 3053 
L 172 3500 
L 594 3500 
L 594 4494 
L 1172 4494 
z
" transform="scale(0.015625)"/>
      <path id="DejaVuSans-6c" d="M 603 4863 
L 1178 4863 
L 1178 0 
L 603 0 
L 603 4863 
z
" transform="scale(0.015625)"/>
      <path id="DejaVuSans-65" d="M 3597 1894 
L 3597 1613 
L 953 1613 
Q 991 1019 1311 708 
Q 1631 397 2203 397 
Q 2534 397 2845 478 
Q 3156 559 3463 722 
L 3463 178 
Q 3153 47 2828 -22 
Q 2503 -91 2169 -91 
Q 1331 -91 842 396 
Q 353 884 353 1716 
Q 353 2575 817 3079 
Q 1281 3584 2069 3584 
Q 2775 3584 3186 3129 
Q 3597 2675 3597 1894 
z
M 3022 2063 
Q 3016 2534 2758 2815 
Q 2500 3097 2075 3097 
Q 1594 3097 1305 2825 
Q 1016 2553 972 2059 
L 3022 2063 
z
" transform="scale(0.015625)"/>
      <path id="DejaVuSans-64" d="M 2906 2969 
L 2906 4863 
L 3481 4863 
L 3481 0 
L 2906 0 
L 2906 525 
Q 2725 213 2448 61 
Q 2172 -91 1784 -91 
Q 1150 -91 751 415 
Q 353 922 353 1747 
Q 353 2572 751 3078 
Q 1150 3584 1784 3584 
Q 2172 3584 2448 3432 
Q 2725 3281 2906 2969 
z
M 947 1747 
Q 947 1113 1208 752 
Q 1469 391 1925 391 
Q 2381 391 2643 752 
Q 2906 1113 2906 1747 
Q 2906 2381 2643 2742 
Q 2381 3103 1925 3103 
Q 1469 3103 1208 2742 
Q 947 2381 947 1747 
z
" transform="scale(0.015625)"/>
      <path id="DejaVuSans-2e" d="M 684 794 
L 1344 794 
L 1344 0 
L 684 0 
L 684 794 
z
" transform="scale(0.015625)"/>
      <path id="DejaVuSans-6d" d="M 3328 2828 
Q 3544 3216 3844 3400 
Q 4144 3584 4550 3584 
Q 5097 3584 5394 3201 
Q 5691 2819 5691 2113 
L 5691 0 
L 5113 0 
L 5113 2094 
Q 5113 2597 4934 2840 
Q 4756 3084 4391 3084 
Q 3944 3084 3684 2787 
Q 3425 2491 3425 1978 
L 3425 0 
L 2847 0 
L 2847 2094 
Q 2847 2600 2669 2842 
Q 2491 3084 2119 3084 
Q 1678 3084 1418 2786 
Q 1159 2488 1159 1978 
L 1159 0 
L 581 0 
L 581 3500 
L 1159 3500 
L 1159 2956 
Q 1356 3278 1631 3431 
Q 1906 3584 2284 3584 
Q 2666 3584 2933 3390 
Q 3200 3197 3328 2828 
z
" transform="scale(0.015625)"/>
      <path id="DejaVuSans-77" d="M 269 3500 
L 844 3500 
L 1563 769 
L 2278 3500 
L 2956 3500 
L 3675 769 
L 4391 3500 
L 4966 3500 
L 4050 0 
L 3372 0 
L 2619 2869 
L 1863 0 
L 1184 0 
L 269 3500 
z
" transform="scale(0.015625)"/>
      <path id="DejaVuSans-73" d="M 2834 3397 
L 2834 2853 
Q 2591 2978 2328 3040 
Q 2066 3103 1784 3103 
Q 1356 3103 1142 2972 
Q 928 2841 928 2578 
Q 928 2378 1081 2264 
Q 1234 2150 1697 2047 
L 1894 2003 
Q 2506 1872 2764 1633 
Q 3022 1394 3022 966 
Q 3022 478 2636 193 
Q 2250 -91 1575 -91 
Q 1294 -91 989 -36 
Q 684 19 347 128 
L 347 722 
Q 666 556 975 473 
Q 1284 391 1588 391 
Q 1994 391 2212 530 
Q 2431 669 2431 922 
Q 2431 1156 2273 1281 
Q 2116 1406 1581 1522 
L 1381 1569 
Q 847 1681 609 1914 
Q 372 2147 372 2553 
Q 372 3047 722 3315 
Q 1072 3584 1716 3584 
Q 2034 3584 2315 3537 
Q 2597 3491 2834 3397 
z
" transform="scale(0.015625)"/>
      <path id="DejaVuSans-6f" d="M 1959 3097 
Q 1497 3097 1228 2736 
Q 959 2375 959 1747 
Q 959 1119 1226 758 
Q 1494 397 1959 397 
Q 2419 397 2687 759 
Q 2956 1122 2956 1747 
Q 2956 2369 2687 2733 
Q 2419 3097 1959 3097 
z
M 1959 3584 
Q 2709 3584 3137 3096 
Q 3566 2609 3566 1747 
Q 3566 888 3137 398 
Q 2709 -91 1959 -91 
Q 1206 -91 779 398 
Q 353 888 353 1747 
Q 353 2609 779 3096 
Q 1206 3584 1959 3584 
z
" transform="scale(0.015625)"/>
     </defs>
     <use xlink:href="#DejaVuSans-57"/>
     <use xlink:href="#DejaVuSans-61" x="92.501953"/>
     <use xlink:href="#DejaVuSans-72" x="153.78125"/>
     <use xlink:href="#DejaVuSans-6e" x="193.144531"/>
     <use xlink:href="#DejaVuSans-69" x="256.523438"/>
     <use xlink:href="#DejaVuSans-6e" x="284.306641"/>
     <use xlink:href="#DejaVuSans-67" x="347.685547"/>
     <use xlink:href="#DejaVuSans-3a" x="411.162109"/>
     <use xlink:href="#DejaVuSans-20" x="444.853516"/>
     <use xlink:href="#DejaVuSans-66" x="476.640625"/>
     <use xlink:href="#DejaVuSans-69" x="511.845703"/>
     <use xlink:href="#DejaVuSans-74" x="539.628906"/>
     <use xlink:href="#DejaVuSans-20" x="578.837891"/>
     <use xlink:href="#DejaVuSans-66" x="610.625"/>
     <use xlink:href="#DejaVuSans-61" x="645.830078"/>
     <use xlink:href="#DejaVuSans-69" x="707.109375"/>
     <use xlink:href="#DejaVuSans-6c" x="734.892578"/>
     <use xlink:href="#DejaVuSans-65" x="762.675781"/>
     <use xlink:href="#DejaVuSans-64" x="824.199219"/>
     <use xlink:href="#DejaVuSans-2e" x="887.675781"/>
     <use xlink:href="#DejaVuSans-20" x="919.462891"/>
     <use xlink:href="#DejaVuSans-6c" x="951.25"/>
     <use xlink:href="#DejaVuSans-6d" x="979.033203"/>
     <use xlink:href="#DejaVuSans-66" x="1076.445312"/>
     <use xlink:href="#DejaVuSans-69" x="1111.650391"/>
     <use xlink:href="#DejaVuSans-74" x="1139.433594"/>
     <use xlink:href="#DejaVuSans-20" x="1178.642578"/>
     <use xlink:href="#DejaVuSans-77" x="1210.429688"/>
     <use xlink:href="#DejaVuSans-61" x="1292.216797"/>
     <use xlink:href="#DejaVuSans-73" x="1353.496094"/>
     <use xlink:href="#DejaVuSans-20" x="1405.595703"/>
     <use xlink:href="#DejaVuSans-6e" x="1437.382812"/>
     <use xlink:href="#DejaVuSans-6f" x="1500.761719"/>
     <use xlink:href="#DejaVuSans-74" x="1561.943359"/>
    </g>
    <!-- able to fit the data. -->
    <g transform="translate(425.571312 66.60425) scale(0.1 -0.1)">
     <defs>
      <path id="DejaVuSans-62" d="M 3116 1747 
Q 3116 2381 2855 2742 
Q 2594 3103 2138 3103 
Q 1681 3103 1420 2742 
Q 1159 2381 1159 1747 
Q 1159 1113 1420 752 
Q 1681 391 2138 391 
Q 2594 391 2855 752 
Q 3116 1113 3116 1747 
z
M 1159 2969 
Q 1341 3281 1617 3432 
Q 1894 3584 2278 3584 
Q 2916 3584 3314 3078 
Q 3713 2572 3713 1747 
Q 3713 922 3314 415 
Q 2916 -91 2278 -91 
Q 1894 -91 1617 61 
Q 1341 213 1159 525 
L 1159 0 
L 581 0 
L 581 4863 
L 1159 4863 
L 1159 2969 
z
" transform="scale(0.015625)"/>
      <path id="DejaVuSans-68" d="M 3513 2113 
L 3513 0 
L 2938 0 
L 2938 2094 
Q 2938 2591 2744 2837 
Q 2550 3084 2163 3084 
Q 1697 3084 1428 2787 
Q 1159 2491 1159 1978 
L 1159 0 
L 581 0 
L 581 4863 
L 1159 4863 
L 1159 2956 
Q 1366 3272 1645 3428 
Q 1925 3584 2291 3584 
Q 2894 3584 3203 3211 
Q 3513 2838 3513 2113 
z
" transform="scale(0.015625)"/>
     </defs>
     <use xlink:href="#DejaVuSans-61"/>
     <use xlink:href="#DejaVuSans-62" x="61.279297"/>
     <use xlink:href="#DejaVuSans-6c" x="124.755859"/>
     <use xlink:href="#DejaVuSans-65" x="152.539062"/>
     <use xlink:href="#DejaVuSans-20" x="214.0625"/>
     <use xlink:href="#DejaVuSans-74" x="245.849609"/>
     <use xlink:href="#DejaVuSans-6f" x="285.058594"/>
     <use xlink:href="#DejaVuSans-20" x="346.240234"/>
     <use xlink:href="#DejaVuSans-66" x="378.027344"/>
     <use xlink:href="#DejaVuSans-69" x="413.232422"/>
     <use xlink:href="#DejaVuSans-74" x="441.015625"/>
     <use xlink:href="#DejaVuSans-20" x="480.224609"/>
     <use xlink:href="#DejaVuSans-74" x="512.011719"/>
     <use xlink:href="#DejaVuSans-68" x="551.220703"/>
     <use xlink:href="#DejaVuSans-65" x="614.599609"/>
     <use xlink:href="#DejaVuSans-20" x="676.123047"/>
     <use xlink:href="#DejaVuSans-64" x="707.910156"/>
     <use xlink:href="#DejaVuSans-61" x="771.386719"/>
     <use xlink:href="#DejaVuSans-74" x="832.666016"/>
     <use xlink:href="#DejaVuSans-61" x="871.875"/>
     <use xlink:href="#DejaVuSans-2e" x="933.154297"/>
    </g>
   </g>
  </g>
  <g id="axes_2">
   <g id="patch_8">
    <path d="M 50.595313 307.872 
L 407.715312 307.872 
L 407.715312 186.912 
L 50.595313 186.912 
z
" style="fill: #ffffff"/>
   </g>
   <g id="matplotlib.axis_3">
    <g id="xtick_10">
     <g id="line2d_15">
      <g>
       <use xlink:href="#m76cff4a5d1" x="66.82804" y="307.872" style="stroke: #000000; stroke-width: 0.8"/>
      </g>
     </g>
     <g id="text_6">
      <!-- 340 -->
      <g transform="translate(57.28429 322.470438) scale(0.1 -0.1)">
       <defs>
        <path id="DejaVuSans-33" d="M 2597 2516 
Q 3050 2419 3304 2112 
Q 3559 1806 3559 1356 
Q 3559 666 3084 287 
Q 2609 -91 1734 -91 
Q 1441 -91 1130 -33 
Q 819 25 488 141 
L 488 750 
Q 750 597 1062 519 
Q 1375 441 1716 441 
Q 2309 441 2620 675 
Q 2931 909 2931 1356 
Q 2931 1769 2642 2001 
Q 2353 2234 1838 2234 
L 1294 2234 
L 1294 2753 
L 1863 2753 
Q 2328 2753 2575 2939 
Q 2822 3125 2822 3475 
Q 2822 3834 2567 4026 
Q 2313 4219 1838 4219 
Q 1578 4219 1281 4162 
Q 984 4106 628 3988 
L 628 4550 
Q 988 4650 1302 4700 
Q 1616 4750 1894 4750 
Q 2613 4750 3031 4423 
Q 3450 4097 3450 3541 
Q 3450 3153 3228 2886 
Q 3006 2619 2597 2516 
z
" transform="scale(0.015625)"/>
        <path id="DejaVuSans-34" d="M 2419 4116 
L 825 1625 
L 2419 1625 
L 2419 4116 
z
M 2253 4666 
L 3047 4666 
L 3047 1625 
L 3713 1625 
L 3713 1100 
L 3047 1100 
L 3047 0 
L 2419 0 
L 2419 1100 
L 313 1100 
L 313 1709 
L 2253 4666 
z
" transform="scale(0.015625)"/>
       </defs>
       <use xlink:href="#DejaVuSans-33"/>
       <use xlink:href="#DejaVuSans-34" x="63.623047"/>
       <use xlink:href="#DejaVuSans-30" x="127.246094"/>
      </g>
     </g>
    </g>
    <g id="xtick_11">
     <g id="line2d_16">
      <g>
       <use xlink:href="#m76cff4a5d1" x="107.409858" y="307.872" style="stroke: #000000; stroke-width: 0.8"/>
      </g>
     </g>
     <g id="text_7">
      <!-- 342.5 -->
      <g transform="translate(93.095795 322.470438) scale(0.1 -0.1)">
       <use xlink:href="#DejaVuSans-33"/>
       <use xlink:href="#DejaVuSans-34" x="63.623047"/>
       <use xlink:href="#DejaVuSans-32" x="127.246094"/>
       <use xlink:href="#DejaVuSans-2e" x="190.869141"/>
       <use xlink:href="#DejaVuSans-35" x="222.65625"/>
      </g>
     </g>
    </g>
    <g id="xtick_12">
     <g id="line2d_17">
      <g>
       <use xlink:href="#m76cff4a5d1" x="147.991676" y="307.872" style="stroke: #000000; stroke-width: 0.8"/>
      </g>
     </g>
     <g id="text_8">
      <!-- 345 -->
      <g transform="translate(138.447926 322.470438) scale(0.1 -0.1)">
       <use xlink:href="#DejaVuSans-33"/>
       <use xlink:href="#DejaVuSans-34" x="63.623047"/>
       <use xlink:href="#DejaVuSans-35" x="127.246094"/>
      </g>
     </g>
    </g>
    <g id="xtick_13">
     <g id="line2d_18">
      <g>
       <use xlink:href="#m76cff4a5d1" x="188.573494" y="307.872" style="stroke: #000000; stroke-width: 0.8"/>
      </g>
     </g>
     <g id="text_9">
      <!-- 347.5 -->
      <g transform="translate(174.259432 322.470438) scale(0.1 -0.1)">
       <defs>
        <path id="DejaVuSans-37" d="M 525 4666 
L 3525 4666 
L 3525 4397 
L 1831 0 
L 1172 0 
L 2766 4134 
L 525 4134 
L 525 4666 
z
" transform="scale(0.015625)"/>
       </defs>
       <use xlink:href="#DejaVuSans-33"/>
       <use xlink:href="#DejaVuSans-34" x="63.623047"/>
       <use xlink:href="#DejaVuSans-37" x="127.246094"/>
       <use xlink:href="#DejaVuSans-2e" x="190.869141"/>
       <use xlink:href="#DejaVuSans-35" x="222.65625"/>
      </g>
     </g>
    </g>
    <g id="xtick_14">
     <g id="line2d_19">
      <g>
       <use xlink:href="#m76cff4a5d1" x="229.155312" y="307.872" style="stroke: #000000; stroke-width: 0.8"/>
      </g>
     </g>
     <g id="text_10">
      <!-- 350 -->
      <g transform="translate(219.611562 322.470438) scale(0.1 -0.1)">
       <use xlink:href="#DejaVuSans-33"/>
       <use xlink:href="#DejaVuSans-35" x="63.623047"/>
       <use xlink:href="#DejaVuSans-30" x="127.246094"/>
      </g>
     </g>
    </g>
    <g id="xtick_15">
     <g id="line2d_20">
      <g>
       <use xlink:href="#m76cff4a5d1" x="269.737131" y="307.872" style="stroke: #000000; stroke-width: 0.8"/>
      </g>
     </g>
     <g id="text_11">
      <!-- 352.5 -->
      <g transform="translate(255.423068 322.470438) scale(0.1 -0.1)">
       <use xlink:href="#DejaVuSans-33"/>
       <use xlink:href="#DejaVuSans-35" x="63.623047"/>
       <use xlink:href="#DejaVuSans-32" x="127.246094"/>
       <use xlink:href="#DejaVuSans-2e" x="190.869141"/>
       <use xlink:href="#DejaVuSans-35" x="222.65625"/>
      </g>
     </g>
    </g>
    <g id="xtick_16">
     <g id="line2d_21">
      <g>
       <use xlink:href="#m76cff4a5d1" x="310.318949" y="307.872" style="stroke: #000000; stroke-width: 0.8"/>
      </g>
     </g>
     <g id="text_12">
      <!-- 355 -->
      <g transform="translate(300.775199 322.470438) scale(0.1 -0.1)">
       <use xlink:href="#DejaVuSans-33"/>
       <use xlink:href="#DejaVuSans-35" x="63.623047"/>
       <use xlink:href="#DejaVuSans-35" x="127.246094"/>
      </g>
     </g>
    </g>
    <g id="xtick_17">
     <g id="line2d_22">
      <g>
       <use xlink:href="#m76cff4a5d1" x="350.900767" y="307.872" style="stroke: #000000; stroke-width: 0.8"/>
      </g>
     </g>
     <g id="text_13">
      <!-- 357.5 -->
      <g transform="translate(336.586705 322.470438) scale(0.1 -0.1)">
       <use xlink:href="#DejaVuSans-33"/>
       <use xlink:href="#DejaVuSans-35" x="63.623047"/>
       <use xlink:href="#DejaVuSans-37" x="127.246094"/>
       <use xlink:href="#DejaVuSans-2e" x="190.869141"/>
       <use xlink:href="#DejaVuSans-35" x="222.65625"/>
      </g>
     </g>
    </g>
    <g id="xtick_18">
     <g id="line2d_23">
      <g>
       <use xlink:href="#m76cff4a5d1" x="391.482585" y="307.872" style="stroke: #000000; stroke-width: 0.8"/>
      </g>
     </g>
     <g id="text_14">
      <!-- 360 -->
      <g transform="translate(381.938835 322.470438) scale(0.1 -0.1)">
       <defs>
        <path id="DejaVuSans-36" d="M 2113 2584 
Q 1688 2584 1439 2293 
Q 1191 2003 1191 1497 
Q 1191 994 1439 701 
Q 1688 409 2113 409 
Q 2538 409 2786 701 
Q 3034 994 3034 1497 
Q 3034 2003 2786 2293 
Q 2538 2584 2113 2584 
z
M 3366 4563 
L 3366 3988 
Q 3128 4100 2886 4159 
Q 2644 4219 2406 4219 
Q 1781 4219 1451 3797 
Q 1122 3375 1075 2522 
Q 1259 2794 1537 2939 
Q 1816 3084 2150 3084 
Q 2853 3084 3261 2657 
Q 3669 2231 3669 1497 
Q 3669 778 3244 343 
Q 2819 -91 2113 -91 
Q 1303 -91 875 529 
Q 447 1150 447 2328 
Q 447 3434 972 4092 
Q 1497 4750 2381 4750 
Q 2619 4750 2861 4703 
Q 3103 4656 3366 4563 
z
" transform="scale(0.015625)"/>
       </defs>
       <use xlink:href="#DejaVuSans-33"/>
       <use xlink:href="#DejaVuSans-36" x="63.623047"/>
       <use xlink:href="#DejaVuSans-30" x="127.246094"/>
      </g>
     </g>
    </g>
    <g id="text_15">
     <!-- Frequency [MHz] -->
     <g transform="translate(187.136562 336.148562) scale(0.1 -0.1)">
      <defs>
       <path id="DejaVuSans-46" d="M 628 4666 
L 3309 4666 
L 3309 4134 
L 1259 4134 
L 1259 2759 
L 3109 2759 
L 3109 2228 
L 1259 2228 
L 1259 0 
L 628 0 
L 628 4666 
z
" transform="scale(0.015625)"/>
       <path id="DejaVuSans-71" d="M 947 1747 
Q 947 1113 1208 752 
Q 1469 391 1925 391 
Q 2381 391 2643 752 
Q 2906 1113 2906 1747 
Q 2906 2381 2643 2742 
Q 2381 3103 1925 3103 
Q 1469 3103 1208 2742 
Q 947 2381 947 1747 
z
M 2906 525 
Q 2725 213 2448 61 
Q 2172 -91 1784 -91 
Q 1150 -91 751 415 
Q 353 922 353 1747 
Q 353 2572 751 3078 
Q 1150 3584 1784 3584 
Q 2172 3584 2448 3432 
Q 2725 3281 2906 2969 
L 2906 3500 
L 3481 3500 
L 3481 -1331 
L 2906 -1331 
L 2906 525 
z
" transform="scale(0.015625)"/>
       <path id="DejaVuSans-75" d="M 544 1381 
L 544 3500 
L 1119 3500 
L 1119 1403 
Q 1119 906 1312 657 
Q 1506 409 1894 409 
Q 2359 409 2629 706 
Q 2900 1003 2900 1516 
L 2900 3500 
L 3475 3500 
L 3475 0 
L 2900 0 
L 2900 538 
Q 2691 219 2414 64 
Q 2138 -91 1772 -91 
Q 1169 -91 856 284 
Q 544 659 544 1381 
z
M 1991 3584 
L 1991 3584 
z
" transform="scale(0.015625)"/>
       <path id="DejaVuSans-63" d="M 3122 3366 
L 3122 2828 
Q 2878 2963 2633 3030 
Q 2388 3097 2138 3097 
Q 1578 3097 1268 2742 
Q 959 2388 959 1747 
Q 959 1106 1268 751 
Q 1578 397 2138 397 
Q 2388 397 2633 464 
Q 2878 531 3122 666 
L 3122 134 
Q 2881 22 2623 -34 
Q 2366 -91 2075 -91 
Q 1284 -91 818 406 
Q 353 903 353 1747 
Q 353 2603 823 3093 
Q 1294 3584 2113 3584 
Q 2378 3584 2631 3529 
Q 2884 3475 3122 3366 
z
" transform="scale(0.015625)"/>
       <path id="DejaVuSans-79" d="M 2059 -325 
Q 1816 -950 1584 -1140 
Q 1353 -1331 966 -1331 
L 506 -1331 
L 506 -850 
L 844 -850 
Q 1081 -850 1212 -737 
Q 1344 -625 1503 -206 
L 1606 56 
L 191 3500 
L 800 3500 
L 1894 763 
L 2988 3500 
L 3597 3500 
L 2059 -325 
z
" transform="scale(0.015625)"/>
       <path id="DejaVuSans-4d" d="M 628 4666 
L 1569 4666 
L 2759 1491 
L 3956 4666 
L 4897 4666 
L 4897 0 
L 4281 0 
L 4281 4097 
L 3078 897 
L 2444 897 
L 1241 4097 
L 1241 0 
L 628 0 
L 628 4666 
z
" transform="scale(0.015625)"/>
       <path id="DejaVuSans-48" d="M 628 4666 
L 1259 4666 
L 1259 2753 
L 3553 2753 
L 3553 4666 
L 4184 4666 
L 4184 0 
L 3553 0 
L 3553 2222 
L 1259 2222 
L 1259 0 
L 628 0 
L 628 4666 
z
" transform="scale(0.015625)"/>
       <path id="DejaVuSans-7a" d="M 353 3500 
L 3084 3500 
L 3084 2975 
L 922 459 
L 3084 459 
L 3084 0 
L 275 0 
L 275 525 
L 2438 3041 
L 353 3041 
L 353 3500 
z
" transform="scale(0.015625)"/>
      </defs>
      <use xlink:href="#DejaVuSans-46"/>
      <use xlink:href="#DejaVuSans-72" x="50.269531"/>
      <use xlink:href="#DejaVuSans-65" x="89.132812"/>
      <use xlink:href="#DejaVuSans-71" x="150.65625"/>
      <use xlink:href="#DejaVuSans-75" x="214.132812"/>
      <use xlink:href="#DejaVuSans-65" x="277.511719"/>
      <use xlink:href="#DejaVuSans-6e" x="339.035156"/>
      <use xlink:href="#DejaVuSans-63" x="402.414062"/>
      <use xlink:href="#DejaVuSans-79" x="457.394531"/>
      <use xlink:href="#DejaVuSans-20" x="516.574219"/>
      <use xlink:href="#DejaVuSans-5b" x="548.361328"/>
      <use xlink:href="#DejaVuSans-4d" x="587.375"/>
      <use xlink:href="#DejaVuSans-48" x="673.654297"/>
      <use xlink:href="#DejaVuSans-7a" x="748.849609"/>
      <use xlink:href="#DejaVuSans-5d" x="801.339844"/>
     </g>
    </g>
    <g id="text_16">
     <!-- +5 GHz -->
     <g transform="translate(369.277812 335.148562) scale(0.1 -0.1)">
      <defs>
       <path id="DejaVuSans-2b" d="M 2944 4013 
L 2944 2272 
L 4684 2272 
L 4684 1741 
L 2944 1741 
L 2944 0 
L 2419 0 
L 2419 1741 
L 678 1741 
L 678 2272 
L 2419 2272 
L 2419 4013 
L 2944 4013 
z
" transform="scale(0.015625)"/>
       <path id="DejaVuSans-47" d="M 3809 666 
L 3809 1919 
L 2778 1919 
L 2778 2438 
L 4434 2438 
L 4434 434 
Q 4069 175 3628 42 
Q 3188 -91 2688 -91 
Q 1594 -91 976 548 
Q 359 1188 359 2328 
Q 359 3472 976 4111 
Q 1594 4750 2688 4750 
Q 3144 4750 3555 4637 
Q 3966 4525 4313 4306 
L 4313 3634 
Q 3963 3931 3569 4081 
Q 3175 4231 2741 4231 
Q 1884 4231 1454 3753 
Q 1025 3275 1025 2328 
Q 1025 1384 1454 906 
Q 1884 428 2741 428 
Q 3075 428 3337 486 
Q 3600 544 3809 666 
z
" transform="scale(0.015625)"/>
      </defs>
      <use xlink:href="#DejaVuSans-2b"/>
      <use xlink:href="#DejaVuSans-35" x="83.789062"/>
      <use xlink:href="#DejaVuSans-20" x="147.412109"/>
      <use xlink:href="#DejaVuSans-47" x="179.199219"/>
      <use xlink:href="#DejaVuSans-48" x="256.689453"/>
      <use xlink:href="#DejaVuSans-7a" x="331.884766"/>
     </g>
    </g>
   </g>
   <g id="matplotlib.axis_4">
    <g id="ytick_4">
     <g id="line2d_24">
      <g>
       <use xlink:href="#m6e58b43066" x="50.595313" y="277.948917" style="stroke: #000000; stroke-width: 0.8"/>
      </g>
     </g>
     <g id="text_17">
      <!-- -100 -->
      <g transform="translate(20.9 281.748135) scale(0.1 -0.1)">
       <defs>
        <path id="DejaVuSans-2d" d="M 313 2009 
L 1997 2009 
L 1997 1497 
L 313 1497 
L 313 2009 
z
" transform="scale(0.015625)"/>
       </defs>
       <use xlink:href="#DejaVuSans-2d"/>
       <use xlink:href="#DejaVuSans-31" x="36.083984"/>
       <use xlink:href="#DejaVuSans-30" x="99.707031"/>
       <use xlink:href="#DejaVuSans-30" x="163.330078"/>
      </g>
     </g>
    </g>
    <g id="ytick_5">
     <g id="line2d_25">
      <g>
       <use xlink:href="#m6e58b43066" x="50.595313" y="247.388917" style="stroke: #000000; stroke-width: 0.8"/>
      </g>
     </g>
     <g id="text_18">
      <!-- 0 -->
      <g transform="translate(37.232813 251.188135) scale(0.1 -0.1)">
       <use xlink:href="#DejaVuSans-30"/>
      </g>
     </g>
    </g>
    <g id="ytick_6">
     <g id="line2d_26">
      <g>
       <use xlink:href="#m6e58b43066" x="50.595313" y="216.828917" style="stroke: #000000; stroke-width: 0.8"/>
      </g>
     </g>
     <g id="text_19">
      <!-- 100 -->
      <g transform="translate(24.507813 220.628135) scale(0.1 -0.1)">
       <use xlink:href="#DejaVuSans-31"/>
       <use xlink:href="#DejaVuSans-30" x="63.623047"/>
       <use xlink:href="#DejaVuSans-30" x="127.246094"/>
      </g>
     </g>
    </g>
    <g id="text_20">
     <!-- $\angle S_{21}$ [deg] -->
     <g transform="translate(14.8 274.592) rotate(-90) scale(0.1 -0.1)">
      <defs>
       <path id="DejaVuSans-2220" d="M 5028 631 
L 5028 0 
L 547 0 
L 3525 4666 
L 4281 4666 
L 1716 631 
L 5028 631 
z
" transform="scale(0.015625)"/>
      </defs>
      <use xlink:href="#DejaVuSans-2220" transform="translate(0 0.015625)"/>
      <use xlink:href="#DejaVuSans-Oblique-53" transform="translate(89.648438 0.015625)"/>
      <use xlink:href="#DejaVuSans-32" transform="translate(153.125 -16.390625) scale(0.7)"/>
      <use xlink:href="#DejaVuSans-31" transform="translate(197.661133 -16.390625) scale(0.7)"/>
      <use xlink:href="#DejaVuSans-20" transform="translate(244.931641 0.015625)"/>
      <use xlink:href="#DejaVuSans-5b" transform="translate(276.71875 0.015625)"/>
      <use xlink:href="#DejaVuSans-64" transform="translate(315.732422 0.015625)"/>
      <use xlink:href="#DejaVuSans-65" transform="translate(379.208984 0.015625)"/>
      <use xlink:href="#DejaVuSans-67" transform="translate(440.732422 0.015625)"/>
      <use xlink:href="#DejaVuSans-5d" transform="translate(504.208984 0.015625)"/>
     </g>
    </g>
   </g>
   <g id="line2d_27">
    <path d="M 66.82804 288.049628 
L 68.45947 288.02182 
L 70.0909 288.406493 
L 71.722329 288.527478 
L 73.353759 288.430813 
L 74.985189 288.96713 
L 76.616619 289.210301 
L 78.248049 289.314181 
L 81.510909 289.726928 
L 83.142339 289.482119 
L 89.668058 290.396017 
L 91.299488 290.119385 
L 94.562348 290.451455 
L 96.193778 290.824367 
L 97.825207 290.607727 
L 99.456637 291.062919 
L 101.088067 290.911918 
L 102.719497 291.287186 
L 104.350927 291.296672 
L 105.982357 291.719118 
L 107.613787 291.703643 
L 109.245217 291.572701 
L 112.508076 291.751531 
L 114.139506 291.977174 
L 115.770936 292.40823 
L 117.402366 292.234714 
L 119.033796 292.468878 
L 120.665226 292.572239 
L 122.296656 292.813013 
L 123.928085 292.742383 
L 127.190945 293.153401 
L 128.822375 292.991554 
L 130.453805 292.984476 
L 132.085235 293.737577 
L 133.716665 293.557543 
L 135.348095 293.778881 
L 138.610954 293.884176 
L 140.242384 293.958201 
L 143.505244 294.479192 
L 145.136674 294.52431 
L 146.768104 294.937326 
L 150.030963 295.316466 
L 151.662393 295.154394 
L 153.293823 295.352508 
L 154.925253 295.376049 
L 156.556683 295.951237 
L 158.188113 295.598365 
L 159.819543 296.10263 
L 161.450973 296.433608 
L 163.082402 296.375756 
L 164.713832 296.775557 
L 166.345262 296.913691 
L 167.976692 297.272201 
L 171.239552 297.602177 
L 172.870982 298.216688 
L 174.502412 298.551428 
L 176.133842 298.649869 
L 179.396701 298.633623 
L 182.659561 299.532066 
L 184.290991 299.783606 
L 185.922421 299.880474 
L 187.553851 300.118991 
L 192.44814 301.374465 
L 194.07957 301.380964 
L 195.711 301.995576 
L 197.34243 192.52386 
L 198.97386 192.503564 
L 200.60529 192.972363 
L 202.23672 193.221303 
L 203.868149 193.292851 
L 205.499579 193.930559 
L 207.131009 194.311288 
L 210.393869 195.357592 
L 212.025299 195.55721 
L 213.656729 196.211079 
L 215.288159 196.347931 
L 216.919588 196.658343 
L 218.551018 197.433008 
L 220.182448 197.968357 
L 221.813878 198.341171 
L 223.445308 199.024491 
L 225.076738 198.954477 
L 226.708168 199.31546 
L 229.971027 200.326059 
L 233.233887 200.829156 
L 234.865317 201.545856 
L 238.128177 202.249357 
L 239.759607 202.789537 
L 241.391037 203.110417 
L 243.022466 203.662274 
L 246.285326 204.483552 
L 247.916756 204.599439 
L 249.548186 205.004499 
L 251.179616 205.65355 
L 252.811046 205.762649 
L 254.442476 206.255382 
L 256.073905 206.4741 
L 260.968195 207.63911 
L 262.599625 207.821023 
L 264.231055 208.296951 
L 265.862485 208.6569 
L 267.493915 208.68843 
L 269.125344 208.922322 
L 270.756774 209.487487 
L 272.388204 209.530408 
L 277.282494 210.355731 
L 278.913924 210.794159 
L 282.176783 211.023505 
L 283.808213 211.327987 
L 287.071073 211.573766 
L 288.702503 212.042477 
L 291.965363 212.16622 
L 293.596793 212.540693 
L 295.228223 212.763291 
L 296.859652 213.112682 
L 298.491082 213.019599 
L 300.122512 213.06728 
L 308.279662 214.453482 
L 313.173951 214.457487 
L 314.805381 215.054652 
L 316.436811 215.05122 
L 319.699671 215.468024 
L 321.331101 215.593878 
L 322.96253 215.928999 
L 324.59396 215.773376 
L 334.38254 216.933468 
L 336.013969 217.342815 
L 337.645399 217.30543 
L 339.276829 217.719873 
L 340.908259 217.6583 
L 342.539689 217.990162 
L 344.171119 218.111279 
L 347.433979 218.854731 
L 349.065408 219.041516 
L 350.696838 219.597269 
L 352.328268 219.759287 
L 355.591128 220.431811 
L 357.222558 221.166079 
L 362.116847 222.677591 
L 363.748277 223.380522 
L 367.011137 225.390112 
L 370.273997 228.102046 
L 371.905427 230.219795 
L 373.536857 232.012565 
L 375.168286 234.280315 
L 376.799716 236.241868 
L 378.431146 237.321291 
L 380.062576 238.086422 
L 381.694006 232.516759 
L 383.325436 222.825035 
L 384.956866 214.065673 
L 386.588296 211.916254 
L 389.851155 211.45563 
L 391.482585 211.916715 
L 391.482585 211.916715 
" clip-path="url(#p7ef0b96c88)" style="fill: none; stroke: #1f77b4; stroke-width: 1.5; stroke-linecap: square"/>
    <g clip-path="url(#p7ef0b96c88)">
     <use xlink:href="#me5519394e3" x="66.82804" y="288.049628" style="fill: #1f77b4; stroke: #1f77b4"/>
     <use xlink:href="#me5519394e3" x="68.45947" y="288.02182" style="fill: #1f77b4; stroke: #1f77b4"/>
     <use xlink:href="#me5519394e3" x="70.0909" y="288.406493" style="fill: #1f77b4; stroke: #1f77b4"/>
     <use xlink:href="#me5519394e3" x="71.722329" y="288.527478" style="fill: #1f77b4; stroke: #1f77b4"/>
     <use xlink:href="#me5519394e3" x="73.353759" y="288.430813" style="fill: #1f77b4; stroke: #1f77b4"/>
     <use xlink:href="#me5519394e3" x="74.985189" y="288.96713" style="fill: #1f77b4; stroke: #1f77b4"/>
     <use xlink:href="#me5519394e3" x="76.616619" y="289.210301" style="fill: #1f77b4; stroke: #1f77b4"/>
     <use xlink:href="#me5519394e3" x="78.248049" y="289.314181" style="fill: #1f77b4; stroke: #1f77b4"/>
     <use xlink:href="#me5519394e3" x="79.879479" y="289.561337" style="fill: #1f77b4; stroke: #1f77b4"/>
     <use xlink:href="#me5519394e3" x="81.510909" y="289.726928" style="fill: #1f77b4; stroke: #1f77b4"/>
     <use xlink:href="#me5519394e3" x="83.142339" y="289.482119" style="fill: #1f77b4; stroke: #1f77b4"/>
     <use xlink:href="#me5519394e3" x="84.773768" y="289.727946" style="fill: #1f77b4; stroke: #1f77b4"/>
     <use xlink:href="#me5519394e3" x="86.405198" y="289.995783" style="fill: #1f77b4; stroke: #1f77b4"/>
     <use xlink:href="#me5519394e3" x="88.036628" y="290.311927" style="fill: #1f77b4; stroke: #1f77b4"/>
     <use xlink:href="#me5519394e3" x="89.668058" y="290.396017" style="fill: #1f77b4; stroke: #1f77b4"/>
     <use xlink:href="#me5519394e3" x="91.299488" y="290.119385" style="fill: #1f77b4; stroke: #1f77b4"/>
     <use xlink:href="#me5519394e3" x="92.930918" y="290.232631" style="fill: #1f77b4; stroke: #1f77b4"/>
     <use xlink:href="#me5519394e3" x="94.562348" y="290.451455" style="fill: #1f77b4; stroke: #1f77b4"/>
     <use xlink:href="#me5519394e3" x="96.193778" y="290.824367" style="fill: #1f77b4; stroke: #1f77b4"/>
     <use xlink:href="#me5519394e3" x="97.825207" y="290.607727" style="fill: #1f77b4; stroke: #1f77b4"/>
     <use xlink:href="#me5519394e3" x="99.456637" y="291.062919" style="fill: #1f77b4; stroke: #1f77b4"/>
     <use xlink:href="#me5519394e3" x="101.088067" y="290.911918" style="fill: #1f77b4; stroke: #1f77b4"/>
     <use xlink:href="#me5519394e3" x="102.719497" y="291.287186" style="fill: #1f77b4; stroke: #1f77b4"/>
     <use xlink:href="#me5519394e3" x="104.350927" y="291.296672" style="fill: #1f77b4; stroke: #1f77b4"/>
     <use xlink:href="#me5519394e3" x="105.982357" y="291.719118" style="fill: #1f77b4; stroke: #1f77b4"/>
     <use xlink:href="#me5519394e3" x="107.613787" y="291.703643" style="fill: #1f77b4; stroke: #1f77b4"/>
     <use xlink:href="#me5519394e3" x="109.245217" y="291.572701" style="fill: #1f77b4; stroke: #1f77b4"/>
     <use xlink:href="#me5519394e3" x="110.876646" y="291.667218" style="fill: #1f77b4; stroke: #1f77b4"/>
     <use xlink:href="#me5519394e3" x="112.508076" y="291.751531" style="fill: #1f77b4; stroke: #1f77b4"/>
     <use xlink:href="#me5519394e3" x="114.139506" y="291.977174" style="fill: #1f77b4; stroke: #1f77b4"/>
     <use xlink:href="#me5519394e3" x="115.770936" y="292.40823" style="fill: #1f77b4; stroke: #1f77b4"/>
     <use xlink:href="#me5519394e3" x="117.402366" y="292.234714" style="fill: #1f77b4; stroke: #1f77b4"/>
     <use xlink:href="#me5519394e3" x="119.033796" y="292.468878" style="fill: #1f77b4; stroke: #1f77b4"/>
     <use xlink:href="#me5519394e3" x="120.665226" y="292.572239" style="fill: #1f77b4; stroke: #1f77b4"/>
     <use xlink:href="#me5519394e3" x="122.296656" y="292.813013" style="fill: #1f77b4; stroke: #1f77b4"/>
     <use xlink:href="#me5519394e3" x="123.928085" y="292.742383" style="fill: #1f77b4; stroke: #1f77b4"/>
     <use xlink:href="#me5519394e3" x="125.559515" y="292.942157" style="fill: #1f77b4; stroke: #1f77b4"/>
     <use xlink:href="#me5519394e3" x="127.190945" y="293.153401" style="fill: #1f77b4; stroke: #1f77b4"/>
     <use xlink:href="#me5519394e3" x="128.822375" y="292.991554" style="fill: #1f77b4; stroke: #1f77b4"/>
     <use xlink:href="#me5519394e3" x="130.453805" y="292.984476" style="fill: #1f77b4; stroke: #1f77b4"/>
     <use xlink:href="#me5519394e3" x="132.085235" y="293.737577" style="fill: #1f77b4; stroke: #1f77b4"/>
     <use xlink:href="#me5519394e3" x="133.716665" y="293.557543" style="fill: #1f77b4; stroke: #1f77b4"/>
     <use xlink:href="#me5519394e3" x="135.348095" y="293.778881" style="fill: #1f77b4; stroke: #1f77b4"/>
     <use xlink:href="#me5519394e3" x="136.979524" y="293.885014" style="fill: #1f77b4; stroke: #1f77b4"/>
     <use xlink:href="#me5519394e3" x="138.610954" y="293.884176" style="fill: #1f77b4; stroke: #1f77b4"/>
     <use xlink:href="#me5519394e3" x="140.242384" y="293.958201" style="fill: #1f77b4; stroke: #1f77b4"/>
     <use xlink:href="#me5519394e3" x="141.873814" y="294.270073" style="fill: #1f77b4; stroke: #1f77b4"/>
     <use xlink:href="#me5519394e3" x="143.505244" y="294.479192" style="fill: #1f77b4; stroke: #1f77b4"/>
     <use xlink:href="#me5519394e3" x="145.136674" y="294.52431" style="fill: #1f77b4; stroke: #1f77b4"/>
     <use xlink:href="#me5519394e3" x="146.768104" y="294.937326" style="fill: #1f77b4; stroke: #1f77b4"/>
     <use xlink:href="#me5519394e3" x="148.399534" y="295.17115" style="fill: #1f77b4; stroke: #1f77b4"/>
     <use xlink:href="#me5519394e3" x="150.030963" y="295.316466" style="fill: #1f77b4; stroke: #1f77b4"/>
     <use xlink:href="#me5519394e3" x="151.662393" y="295.154394" style="fill: #1f77b4; stroke: #1f77b4"/>
     <use xlink:href="#me5519394e3" x="153.293823" y="295.352508" style="fill: #1f77b4; stroke: #1f77b4"/>
     <use xlink:href="#me5519394e3" x="154.925253" y="295.376049" style="fill: #1f77b4; stroke: #1f77b4"/>
     <use xlink:href="#me5519394e3" x="156.556683" y="295.951237" style="fill: #1f77b4; stroke: #1f77b4"/>
     <use xlink:href="#me5519394e3" x="158.188113" y="295.598365" style="fill: #1f77b4; stroke: #1f77b4"/>
     <use xlink:href="#me5519394e3" x="159.819543" y="296.10263" style="fill: #1f77b4; stroke: #1f77b4"/>
     <use xlink:href="#me5519394e3" x="161.450973" y="296.433608" style="fill: #1f77b4; stroke: #1f77b4"/>
     <use xlink:href="#me5519394e3" x="163.082402" y="296.375756" style="fill: #1f77b4; stroke: #1f77b4"/>
     <use xlink:href="#me5519394e3" x="164.713832" y="296.775557" style="fill: #1f77b4; stroke: #1f77b4"/>
     <use xlink:href="#me5519394e3" x="166.345262" y="296.913691" style="fill: #1f77b4; stroke: #1f77b4"/>
     <use xlink:href="#me5519394e3" x="167.976692" y="297.272201" style="fill: #1f77b4; stroke: #1f77b4"/>
     <use xlink:href="#me5519394e3" x="169.608122" y="297.391074" style="fill: #1f77b4; stroke: #1f77b4"/>
     <use xlink:href="#me5519394e3" x="171.239552" y="297.602177" style="fill: #1f77b4; stroke: #1f77b4"/>
     <use xlink:href="#me5519394e3" x="172.870982" y="298.216688" style="fill: #1f77b4; stroke: #1f77b4"/>
     <use xlink:href="#me5519394e3" x="174.502412" y="298.551428" style="fill: #1f77b4; stroke: #1f77b4"/>
     <use xlink:href="#me5519394e3" x="176.133842" y="298.649869" style="fill: #1f77b4; stroke: #1f77b4"/>
     <use xlink:href="#me5519394e3" x="177.765271" y="298.603613" style="fill: #1f77b4; stroke: #1f77b4"/>
     <use xlink:href="#me5519394e3" x="179.396701" y="298.633623" style="fill: #1f77b4; stroke: #1f77b4"/>
     <use xlink:href="#me5519394e3" x="181.028131" y="299.078835" style="fill: #1f77b4; stroke: #1f77b4"/>
     <use xlink:href="#me5519394e3" x="182.659561" y="299.532066" style="fill: #1f77b4; stroke: #1f77b4"/>
     <use xlink:href="#me5519394e3" x="184.290991" y="299.783606" style="fill: #1f77b4; stroke: #1f77b4"/>
     <use xlink:href="#me5519394e3" x="185.922421" y="299.880474" style="fill: #1f77b4; stroke: #1f77b4"/>
     <use xlink:href="#me5519394e3" x="187.553851" y="300.118991" style="fill: #1f77b4; stroke: #1f77b4"/>
     <use xlink:href="#me5519394e3" x="189.185281" y="300.532135" style="fill: #1f77b4; stroke: #1f77b4"/>
     <use xlink:href="#me5519394e3" x="190.81671" y="301.02764" style="fill: #1f77b4; stroke: #1f77b4"/>
     <use xlink:href="#me5519394e3" x="192.44814" y="301.374465" style="fill: #1f77b4; stroke: #1f77b4"/>
     <use xlink:href="#me5519394e3" x="194.07957" y="301.380964" style="fill: #1f77b4; stroke: #1f77b4"/>
     <use xlink:href="#me5519394e3" x="195.711" y="301.995576" style="fill: #1f77b4; stroke: #1f77b4"/>
     <use xlink:href="#me5519394e3" x="197.34243" y="192.52386" style="fill: #1f77b4; stroke: #1f77b4"/>
     <use xlink:href="#me5519394e3" x="198.97386" y="192.503564" style="fill: #1f77b4; stroke: #1f77b4"/>
     <use xlink:href="#me5519394e3" x="200.60529" y="192.972363" style="fill: #1f77b4; stroke: #1f77b4"/>
     <use xlink:href="#me5519394e3" x="202.23672" y="193.221303" style="fill: #1f77b4; stroke: #1f77b4"/>
     <use xlink:href="#me5519394e3" x="203.868149" y="193.292851" style="fill: #1f77b4; stroke: #1f77b4"/>
     <use xlink:href="#me5519394e3" x="205.499579" y="193.930559" style="fill: #1f77b4; stroke: #1f77b4"/>
     <use xlink:href="#me5519394e3" x="207.131009" y="194.311288" style="fill: #1f77b4; stroke: #1f77b4"/>
     <use xlink:href="#me5519394e3" x="208.762439" y="194.88978" style="fill: #1f77b4; stroke: #1f77b4"/>
     <use xlink:href="#me5519394e3" x="210.393869" y="195.357592" style="fill: #1f77b4; stroke: #1f77b4"/>
     <use xlink:href="#me5519394e3" x="212.025299" y="195.55721" style="fill: #1f77b4; stroke: #1f77b4"/>
     <use xlink:href="#me5519394e3" x="213.656729" y="196.211079" style="fill: #1f77b4; stroke: #1f77b4"/>
     <use xlink:href="#me5519394e3" x="215.288159" y="196.347931" style="fill: #1f77b4; stroke: #1f77b4"/>
     <use xlink:href="#me5519394e3" x="216.919588" y="196.658343" style="fill: #1f77b4; stroke: #1f77b4"/>
     <use xlink:href="#me5519394e3" x="218.551018" y="197.433008" style="fill: #1f77b4; stroke: #1f77b4"/>
     <use xlink:href="#me5519394e3" x="220.182448" y="197.968357" style="fill: #1f77b4; stroke: #1f77b4"/>
     <use xlink:href="#me5519394e3" x="221.813878" y="198.341171" style="fill: #1f77b4; stroke: #1f77b4"/>
     <use xlink:href="#me5519394e3" x="223.445308" y="199.024491" style="fill: #1f77b4; stroke: #1f77b4"/>
     <use xlink:href="#me5519394e3" x="225.076738" y="198.954477" style="fill: #1f77b4; stroke: #1f77b4"/>
     <use xlink:href="#me5519394e3" x="226.708168" y="199.31546" style="fill: #1f77b4; stroke: #1f77b4"/>
     <use xlink:href="#me5519394e3" x="228.339598" y="199.858951" style="fill: #1f77b4; stroke: #1f77b4"/>
     <use xlink:href="#me5519394e3" x="229.971027" y="200.326059" style="fill: #1f77b4; stroke: #1f77b4"/>
     <use xlink:href="#me5519394e3" x="231.602457" y="200.582703" style="fill: #1f77b4; stroke: #1f77b4"/>
     <use xlink:href="#me5519394e3" x="233.233887" y="200.829156" style="fill: #1f77b4; stroke: #1f77b4"/>
     <use xlink:href="#me5519394e3" x="234.865317" y="201.545856" style="fill: #1f77b4; stroke: #1f77b4"/>
     <use xlink:href="#me5519394e3" x="236.496747" y="201.892941" style="fill: #1f77b4; stroke: #1f77b4"/>
     <use xlink:href="#me5519394e3" x="238.128177" y="202.249357" style="fill: #1f77b4; stroke: #1f77b4"/>
     <use xlink:href="#me5519394e3" x="239.759607" y="202.789537" style="fill: #1f77b4; stroke: #1f77b4"/>
     <use xlink:href="#me5519394e3" x="241.391037" y="203.110417" style="fill: #1f77b4; stroke: #1f77b4"/>
     <use xlink:href="#me5519394e3" x="243.022466" y="203.662274" style="fill: #1f77b4; stroke: #1f77b4"/>
     <use xlink:href="#me5519394e3" x="244.653896" y="204.041283" style="fill: #1f77b4; stroke: #1f77b4"/>
     <use xlink:href="#me5519394e3" x="246.285326" y="204.483552" style="fill: #1f77b4; stroke: #1f77b4"/>
     <use xlink:href="#me5519394e3" x="247.916756" y="204.599439" style="fill: #1f77b4; stroke: #1f77b4"/>
     <use xlink:href="#me5519394e3" x="249.548186" y="205.004499" style="fill: #1f77b4; stroke: #1f77b4"/>
     <use xlink:href="#me5519394e3" x="251.179616" y="205.65355" style="fill: #1f77b4; stroke: #1f77b4"/>
     <use xlink:href="#me5519394e3" x="252.811046" y="205.762649" style="fill: #1f77b4; stroke: #1f77b4"/>
     <use xlink:href="#me5519394e3" x="254.442476" y="206.255382" style="fill: #1f77b4; stroke: #1f77b4"/>
     <use xlink:href="#me5519394e3" x="256.073905" y="206.4741" style="fill: #1f77b4; stroke: #1f77b4"/>
     <use xlink:href="#me5519394e3" x="257.705335" y="206.84022" style="fill: #1f77b4; stroke: #1f77b4"/>
     <use xlink:href="#me5519394e3" x="259.336765" y="207.144354" style="fill: #1f77b4; stroke: #1f77b4"/>
     <use xlink:href="#me5519394e3" x="260.968195" y="207.63911" style="fill: #1f77b4; stroke: #1f77b4"/>
     <use xlink:href="#me5519394e3" x="262.599625" y="207.821023" style="fill: #1f77b4; stroke: #1f77b4"/>
     <use xlink:href="#me5519394e3" x="264.231055" y="208.296951" style="fill: #1f77b4; stroke: #1f77b4"/>
     <use xlink:href="#me5519394e3" x="265.862485" y="208.6569" style="fill: #1f77b4; stroke: #1f77b4"/>
     <use xlink:href="#me5519394e3" x="267.493915" y="208.68843" style="fill: #1f77b4; stroke: #1f77b4"/>
     <use xlink:href="#me5519394e3" x="269.125344" y="208.922322" style="fill: #1f77b4; stroke: #1f77b4"/>
     <use xlink:href="#me5519394e3" x="270.756774" y="209.487487" style="fill: #1f77b4; stroke: #1f77b4"/>
     <use xlink:href="#me5519394e3" x="272.388204" y="209.530408" style="fill: #1f77b4; stroke: #1f77b4"/>
     <use xlink:href="#me5519394e3" x="274.019634" y="209.798433" style="fill: #1f77b4; stroke: #1f77b4"/>
     <use xlink:href="#me5519394e3" x="275.651064" y="210.125954" style="fill: #1f77b4; stroke: #1f77b4"/>
     <use xlink:href="#me5519394e3" x="277.282494" y="210.355731" style="fill: #1f77b4; stroke: #1f77b4"/>
     <use xlink:href="#me5519394e3" x="278.913924" y="210.794159" style="fill: #1f77b4; stroke: #1f77b4"/>
     <use xlink:href="#me5519394e3" x="280.545354" y="210.878975" style="fill: #1f77b4; stroke: #1f77b4"/>
     <use xlink:href="#me5519394e3" x="282.176783" y="211.023505" style="fill: #1f77b4; stroke: #1f77b4"/>
     <use xlink:href="#me5519394e3" x="283.808213" y="211.327987" style="fill: #1f77b4; stroke: #1f77b4"/>
     <use xlink:href="#me5519394e3" x="285.439643" y="211.483472" style="fill: #1f77b4; stroke: #1f77b4"/>
     <use xlink:href="#me5519394e3" x="287.071073" y="211.573766" style="fill: #1f77b4; stroke: #1f77b4"/>
     <use xlink:href="#me5519394e3" x="288.702503" y="212.042477" style="fill: #1f77b4; stroke: #1f77b4"/>
     <use xlink:href="#me5519394e3" x="290.333933" y="212.06234" style="fill: #1f77b4; stroke: #1f77b4"/>
     <use xlink:href="#me5519394e3" x="291.965363" y="212.16622" style="fill: #1f77b4; stroke: #1f77b4"/>
     <use xlink:href="#me5519394e3" x="293.596793" y="212.540693" style="fill: #1f77b4; stroke: #1f77b4"/>
     <use xlink:href="#me5519394e3" x="295.228223" y="212.763291" style="fill: #1f77b4; stroke: #1f77b4"/>
     <use xlink:href="#me5519394e3" x="296.859652" y="213.112682" style="fill: #1f77b4; stroke: #1f77b4"/>
     <use xlink:href="#me5519394e3" x="298.491082" y="213.019599" style="fill: #1f77b4; stroke: #1f77b4"/>
     <use xlink:href="#me5519394e3" x="300.122512" y="213.06728" style="fill: #1f77b4; stroke: #1f77b4"/>
     <use xlink:href="#me5519394e3" x="301.753942" y="213.358745" style="fill: #1f77b4; stroke: #1f77b4"/>
     <use xlink:href="#me5519394e3" x="303.385372" y="213.720077" style="fill: #1f77b4; stroke: #1f77b4"/>
     <use xlink:href="#me5519394e3" x="305.016802" y="213.920688" style="fill: #1f77b4; stroke: #1f77b4"/>
     <use xlink:href="#me5519394e3" x="306.648232" y="214.280326" style="fill: #1f77b4; stroke: #1f77b4"/>
     <use xlink:href="#me5519394e3" x="308.279662" y="214.453482" style="fill: #1f77b4; stroke: #1f77b4"/>
     <use xlink:href="#me5519394e3" x="309.911091" y="214.434293" style="fill: #1f77b4; stroke: #1f77b4"/>
     <use xlink:href="#me5519394e3" x="311.542521" y="214.434578" style="fill: #1f77b4; stroke: #1f77b4"/>
     <use xlink:href="#me5519394e3" x="313.173951" y="214.457487" style="fill: #1f77b4; stroke: #1f77b4"/>
     <use xlink:href="#me5519394e3" x="314.805381" y="215.054652" style="fill: #1f77b4; stroke: #1f77b4"/>
     <use xlink:href="#me5519394e3" x="316.436811" y="215.05122" style="fill: #1f77b4; stroke: #1f77b4"/>
     <use xlink:href="#me5519394e3" x="318.068241" y="215.289185" style="fill: #1f77b4; stroke: #1f77b4"/>
     <use xlink:href="#me5519394e3" x="319.699671" y="215.468024" style="fill: #1f77b4; stroke: #1f77b4"/>
     <use xlink:href="#me5519394e3" x="321.331101" y="215.593878" style="fill: #1f77b4; stroke: #1f77b4"/>
     <use xlink:href="#me5519394e3" x="322.96253" y="215.928999" style="fill: #1f77b4; stroke: #1f77b4"/>
     <use xlink:href="#me5519394e3" x="324.59396" y="215.773376" style="fill: #1f77b4; stroke: #1f77b4"/>
     <use xlink:href="#me5519394e3" x="326.22539" y="215.971261" style="fill: #1f77b4; stroke: #1f77b4"/>
     <use xlink:href="#me5519394e3" x="327.85682" y="216.183288" style="fill: #1f77b4; stroke: #1f77b4"/>
     <use xlink:href="#me5519394e3" x="329.48825" y="216.356817" style="fill: #1f77b4; stroke: #1f77b4"/>
     <use xlink:href="#me5519394e3" x="331.11968" y="216.572933" style="fill: #1f77b4; stroke: #1f77b4"/>
     <use xlink:href="#me5519394e3" x="332.75111" y="216.673913" style="fill: #1f77b4; stroke: #1f77b4"/>
     <use xlink:href="#me5519394e3" x="334.38254" y="216.933468" style="fill: #1f77b4; stroke: #1f77b4"/>
     <use xlink:href="#me5519394e3" x="336.013969" y="217.342815" style="fill: #1f77b4; stroke: #1f77b4"/>
     <use xlink:href="#me5519394e3" x="337.645399" y="217.30543" style="fill: #1f77b4; stroke: #1f77b4"/>
     <use xlink:href="#me5519394e3" x="339.276829" y="217.719873" style="fill: #1f77b4; stroke: #1f77b4"/>
     <use xlink:href="#me5519394e3" x="340.908259" y="217.6583" style="fill: #1f77b4; stroke: #1f77b4"/>
     <use xlink:href="#me5519394e3" x="342.539689" y="217.990162" style="fill: #1f77b4; stroke: #1f77b4"/>
     <use xlink:href="#me5519394e3" x="344.171119" y="218.111279" style="fill: #1f77b4; stroke: #1f77b4"/>
     <use xlink:href="#me5519394e3" x="345.802549" y="218.474213" style="fill: #1f77b4; stroke: #1f77b4"/>
     <use xlink:href="#me5519394e3" x="347.433979" y="218.854731" style="fill: #1f77b4; stroke: #1f77b4"/>
     <use xlink:href="#me5519394e3" x="349.065408" y="219.041516" style="fill: #1f77b4; stroke: #1f77b4"/>
     <use xlink:href="#me5519394e3" x="350.696838" y="219.597269" style="fill: #1f77b4; stroke: #1f77b4"/>
     <use xlink:href="#me5519394e3" x="352.328268" y="219.759287" style="fill: #1f77b4; stroke: #1f77b4"/>
     <use xlink:href="#me5519394e3" x="353.959698" y="220.120562" style="fill: #1f77b4; stroke: #1f77b4"/>
     <use xlink:href="#me5519394e3" x="355.591128" y="220.431811" style="fill: #1f77b4; stroke: #1f77b4"/>
     <use xlink:href="#me5519394e3" x="357.222558" y="221.166079" style="fill: #1f77b4; stroke: #1f77b4"/>
     <use xlink:href="#me5519394e3" x="358.853988" y="221.656195" style="fill: #1f77b4; stroke: #1f77b4"/>
     <use xlink:href="#me5519394e3" x="360.485418" y="222.093161" style="fill: #1f77b4; stroke: #1f77b4"/>
     <use xlink:href="#me5519394e3" x="362.116847" y="222.677591" style="fill: #1f77b4; stroke: #1f77b4"/>
     <use xlink:href="#me5519394e3" x="363.748277" y="223.380522" style="fill: #1f77b4; stroke: #1f77b4"/>
     <use xlink:href="#me5519394e3" x="365.379707" y="224.380951" style="fill: #1f77b4; stroke: #1f77b4"/>
     <use xlink:href="#me5519394e3" x="367.011137" y="225.390112" style="fill: #1f77b4; stroke: #1f77b4"/>
     <use xlink:href="#me5519394e3" x="368.642567" y="226.684085" style="fill: #1f77b4; stroke: #1f77b4"/>
     <use xlink:href="#me5519394e3" x="370.273997" y="228.102046" style="fill: #1f77b4; stroke: #1f77b4"/>
     <use xlink:href="#me5519394e3" x="371.905427" y="230.219795" style="fill: #1f77b4; stroke: #1f77b4"/>
     <use xlink:href="#me5519394e3" x="373.536857" y="232.012565" style="fill: #1f77b4; stroke: #1f77b4"/>
     <use xlink:href="#me5519394e3" x="375.168286" y="234.280315" style="fill: #1f77b4; stroke: #1f77b4"/>
     <use xlink:href="#me5519394e3" x="376.799716" y="236.241868" style="fill: #1f77b4; stroke: #1f77b4"/>
     <use xlink:href="#me5519394e3" x="378.431146" y="237.321291" style="fill: #1f77b4; stroke: #1f77b4"/>
     <use xlink:href="#me5519394e3" x="380.062576" y="238.086422" style="fill: #1f77b4; stroke: #1f77b4"/>
     <use xlink:href="#me5519394e3" x="381.694006" y="232.516759" style="fill: #1f77b4; stroke: #1f77b4"/>
     <use xlink:href="#me5519394e3" x="383.325436" y="222.825035" style="fill: #1f77b4; stroke: #1f77b4"/>
     <use xlink:href="#me5519394e3" x="384.956866" y="214.065673" style="fill: #1f77b4; stroke: #1f77b4"/>
     <use xlink:href="#me5519394e3" x="386.588296" y="211.916254" style="fill: #1f77b4; stroke: #1f77b4"/>
     <use xlink:href="#me5519394e3" x="388.219725" y="211.661915" style="fill: #1f77b4; stroke: #1f77b4"/>
     <use xlink:href="#me5519394e3" x="389.851155" y="211.45563" style="fill: #1f77b4; stroke: #1f77b4"/>
     <use xlink:href="#me5519394e3" x="391.482585" y="211.916715" style="fill: #1f77b4; stroke: #1f77b4"/>
    </g>
   </g>
   <g id="line2d_28">
    <path d="M 66.82804 283.651856 
L 183.495689 302.373818 
L 183.820669 192.410182 
L 267.340407 205.980049 
L 305.363011 212.36075 
L 326.161701 216.058164 
L 338.835902 218.518895 
L 347.28537 220.368802 
L 353.135001 221.854444 
L 357.684715 223.230395 
L 360.93451 224.419171 
L 363.534346 225.571675 
L 365.809203 226.806197 
L 367.75908 228.113207 
L 369.383978 229.451619 
L 371.008875 231.09824 
L 372.308793 232.696457 
L 373.933691 235.09752 
L 376.208548 239.031111 
L 377.508466 241.122669 
L 378.158425 241.912013 
L 378.808384 242.396638 
L 379.133363 242.486626 
L 379.458343 242.452571 
L 379.783322 242.27668 
L 380.108302 241.941231 
L 380.758261 240.730279 
L 381.40822 238.754551 
L 382.383159 234.66393 
L 383.683077 229.16925 
L 384.333036 227.126859 
L 384.982995 225.616956 
L 385.632954 224.544704 
L 386.282913 223.802863 
L 387.257851 223.11976 
L 388.23279 222.771806 
L 389.532708 222.614296 
L 391.157606 222.686219 
L 391.482585 222.721979 
L 391.482585 222.721979 
" clip-path="url(#p7ef0b96c88)" style="fill: none; stroke: #d62728; stroke-width: 1.5; stroke-linecap: square"/>
   </g>
   <g id="patch_9">
    <path d="M 50.595313 307.872 
L 50.595313 186.912 
" style="fill: none; stroke: #000000; stroke-width: 0.8; stroke-linejoin: miter; stroke-linecap: square"/>
   </g>
   <g id="patch_10">
    <path d="M 407.715312 307.872 
L 407.715312 186.912 
" style="fill: none; stroke: #000000; stroke-width: 0.8; stroke-linejoin: miter; stroke-linecap: square"/>
   </g>
   <g id="patch_11">
    <path d="M 50.595312 307.872 
L 407.715312 307.872 
" style="fill: none; stroke: #000000; stroke-width: 0.8; stroke-linejoin: miter; stroke-linecap: square"/>
   </g>
   <g id="patch_12">
    <path d="M 50.595312 186.912 
L 407.715312 186.912 
" style="fill: none; stroke: #000000; stroke-width: 0.8; stroke-linejoin: miter; stroke-linecap: square"/>
   </g>
  </g>
  <g id="text_21">
   <!-- S21 One-tone -->
   <g transform="translate(182.144375 16.318125) scale(0.12 -0.12)">
    <defs>
     <path id="DejaVuSans-53" d="M 3425 4513 
L 3425 3897 
Q 3066 4069 2747 4153 
Q 2428 4238 2131 4238 
Q 1616 4238 1336 4038 
Q 1056 3838 1056 3469 
Q 1056 3159 1242 3001 
Q 1428 2844 1947 2747 
L 2328 2669 
Q 3034 2534 3370 2195 
Q 3706 1856 3706 1288 
Q 3706 609 3251 259 
Q 2797 -91 1919 -91 
Q 1588 -91 1214 -16 
Q 841 59 441 206 
L 441 856 
Q 825 641 1194 531 
Q 1563 422 1919 422 
Q 2459 422 2753 634 
Q 3047 847 3047 1241 
Q 3047 1584 2836 1778 
Q 2625 1972 2144 2069 
L 1759 2144 
Q 1053 2284 737 2584 
Q 422 2884 422 3419 
Q 422 4038 858 4394 
Q 1294 4750 2059 4750 
Q 2388 4750 2728 4690 
Q 3069 4631 3425 4513 
z
" transform="scale(0.015625)"/>
     <path id="DejaVuSans-4f" d="M 2522 4238 
Q 1834 4238 1429 3725 
Q 1025 3213 1025 2328 
Q 1025 1447 1429 934 
Q 1834 422 2522 422 
Q 3209 422 3611 934 
Q 4013 1447 4013 2328 
Q 4013 3213 3611 3725 
Q 3209 4238 2522 4238 
z
M 2522 4750 
Q 3503 4750 4090 4092 
Q 4678 3434 4678 2328 
Q 4678 1225 4090 567 
Q 3503 -91 2522 -91 
Q 1538 -91 948 565 
Q 359 1222 359 2328 
Q 359 3434 948 4092 
Q 1538 4750 2522 4750 
z
" transform="scale(0.015625)"/>
    </defs>
    <use xlink:href="#DejaVuSans-53"/>
    <use xlink:href="#DejaVuSans-32" x="63.476562"/>
    <use xlink:href="#DejaVuSans-31" x="127.099609"/>
    <use xlink:href="#DejaVuSans-20" x="190.722656"/>
    <use xlink:href="#DejaVuSans-4f" x="222.509766"/>
    <use xlink:href="#DejaVuSans-6e" x="301.220703"/>
    <use xlink:href="#DejaVuSans-65" x="364.599609"/>
    <use xlink:href="#DejaVuSans-2d" x="426.123047"/>
    <use xlink:href="#DejaVuSans-74" x="462.207031"/>
    <use xlink:href="#DejaVuSans-6f" x="501.416016"/>
    <use xlink:href="#DejaVuSans-6e" x="562.597656"/>
    <use xlink:href="#DejaVuSans-65" x="625.976562"/>
   </g>
   <!-- tuid: 20240304-135730-470-adcb7e -->
   <g transform="translate(114.341563 29.7555) scale(0.12 -0.12)">
    <use xlink:href="#DejaVuSans-74"/>
    <use xlink:href="#DejaVuSans-75" x="39.208984"/>
    <use xlink:href="#DejaVuSans-69" x="102.587891"/>
    <use xlink:href="#DejaVuSans-64" x="130.371094"/>
    <use xlink:href="#DejaVuSans-3a" x="193.847656"/>
    <use xlink:href="#DejaVuSans-20" x="227.539062"/>
    <use xlink:href="#DejaVuSans-32" x="259.326172"/>
    <use xlink:href="#DejaVuSans-30" x="322.949219"/>
    <use xlink:href="#DejaVuSans-32" x="386.572266"/>
    <use xlink:href="#DejaVuSans-34" x="450.195312"/>
    <use xlink:href="#DejaVuSans-30" x="513.818359"/>
    <use xlink:href="#DejaVuSans-33" x="577.441406"/>
    <use xlink:href="#DejaVuSans-30" x="641.064453"/>
    <use xlink:href="#DejaVuSans-34" x="704.6875"/>
    <use xlink:href="#DejaVuSans-2d" x="768.310547"/>
    <use xlink:href="#DejaVuSans-31" x="804.394531"/>
    <use xlink:href="#DejaVuSans-33" x="868.017578"/>
    <use xlink:href="#DejaVuSans-35" x="931.640625"/>
    <use xlink:href="#DejaVuSans-37" x="995.263672"/>
    <use xlink:href="#DejaVuSans-33" x="1058.886719"/>
    <use xlink:href="#DejaVuSans-30" x="1122.509766"/>
    <use xlink:href="#DejaVuSans-2d" x="1186.132812"/>
    <use xlink:href="#DejaVuSans-34" x="1222.216797"/>
    <use xlink:href="#DejaVuSans-37" x="1285.839844"/>
    <use xlink:href="#DejaVuSans-30" x="1349.462891"/>
    <use xlink:href="#DejaVuSans-2d" x="1413.085938"/>
    <use xlink:href="#DejaVuSans-61" x="1449.169922"/>
    <use xlink:href="#DejaVuSans-64" x="1510.449219"/>
    <use xlink:href="#DejaVuSans-63" x="1573.925781"/>
    <use xlink:href="#DejaVuSans-62" x="1628.90625"/>
    <use xlink:href="#DejaVuSans-37" x="1692.382812"/>
    <use xlink:href="#DejaVuSans-65" x="1756.005859"/>
   </g>
  </g>
 </g>
 <defs>
  <clipPath id="pfd51483a66">
   <rect x="50.595313" y="41.76" width="357.12" height="120.96"/>
  </clipPath>
  <clipPath id="p7ef0b96c88">
   <rect x="50.595313" y="186.912" width="357.12" height="120.96"/>
  </clipPath>
 </defs>
</svg>
