<?xml version="1.0" encoding="utf-8" standalone="no"?>
<!DOCTYPE svg PUBLIC "-//W3C//DTD SVG 1.1//EN"
  "http://www.w3.org/Graphics/SVG/1.1/DTD/svg11.dtd">
<svg xmlns:xlink="http://www.w3.org/1999/xlink" width="577.749437pt" height="345.42825pt" viewBox="0 0 577.749437 345.42825" xmlns="http://www.w3.org/2000/svg" version="1.1">
 <metadata>
  <rdf:RDF xmlns:dc="http://purl.org/dc/elements/1.1/" xmlns:cc="http://creativecommons.org/ns#" xmlns:rdf="http://www.w3.org/1999/02/22-rdf-syntax-ns#">
   <cc:Work>
    <dc:type rdf:resource="http://purl.org/dc/dcmitype/StillImage"/>
    <dc:date>2024-03-18T13:18:35.646671</dc:date>
    <dc:format>image/svg+xml</dc:format>
    <dc:creator>
     <cc:Agent>
      <dc:title>Matplotlib v3.8.3, https://matplotlib.org/</dc:title>
     </cc:Agent>
    </dc:creator>
   </cc:Work>
  </rdf:RDF>
 </metadata>
 <defs>
  <style type="text/css">*{stroke-linejoin: round; stroke-linecap: butt}</style>
 </defs>
 <g id="figure_1">
  <g id="patch_1">
   <path d="M 0 345.42825 
L 577.749437 345.42825 
L 577.749437 -0 
L 0 -0 
L 0 345.42825 
z
" style="fill: none; opacity: 0"/>
  </g>
  <g id="axes_1">
   <g id="patch_2">
    <path d="M 50.573438 162.72 
L 407.693438 162.72 
L 407.693438 41.76 
L 50.573438 41.76 
z
" style="fill: #ffffff"/>
   </g>
   <g id="matplotlib.axis_1">
    <g id="xtick_1">
     <g id="line2d_1">
      <defs>
       <path id="m2c419370c9" d="M 0 0 
L 0 3.5 
" style="stroke: #000000; stroke-width: 0.8"/>
      </defs>
      <g>
       <use xlink:href="#m2c419370c9" x="50.573437" y="162.72" style="stroke: #000000; stroke-width: 0.8"/>
      </g>
     </g>
    </g>
    <g id="xtick_2">
     <g id="line2d_2">
      <g>
       <use xlink:href="#m2c419370c9" x="91.155256" y="162.72" style="stroke: #000000; stroke-width: 0.8"/>
      </g>
     </g>
    </g>
    <g id="xtick_3">
     <g id="line2d_3">
      <g>
       <use xlink:href="#m2c419370c9" x="131.737074" y="162.72" style="stroke: #000000; stroke-width: 0.8"/>
      </g>
     </g>
    </g>
    <g id="xtick_4">
     <g id="line2d_4">
      <g>
       <use xlink:href="#m2c419370c9" x="172.318892" y="162.72" style="stroke: #000000; stroke-width: 0.8"/>
      </g>
     </g>
    </g>
    <g id="xtick_5">
     <g id="line2d_5">
      <g>
       <use xlink:href="#m2c419370c9" x="212.90071" y="162.72" style="stroke: #000000; stroke-width: 0.8"/>
      </g>
     </g>
    </g>
    <g id="xtick_6">
     <g id="line2d_6">
      <g>
       <use xlink:href="#m2c419370c9" x="253.482528" y="162.72" style="stroke: #000000; stroke-width: 0.8"/>
      </g>
     </g>
    </g>
    <g id="xtick_7">
     <g id="line2d_7">
      <g>
       <use xlink:href="#m2c419370c9" x="294.064347" y="162.72" style="stroke: #000000; stroke-width: 0.8"/>
      </g>
     </g>
    </g>
    <g id="xtick_8">
     <g id="line2d_8">
      <g>
       <use xlink:href="#m2c419370c9" x="334.646165" y="162.72" style="stroke: #000000; stroke-width: 0.8"/>
      </g>
     </g>
    </g>
    <g id="xtick_9">
     <g id="line2d_9">
      <g>
       <use xlink:href="#m2c419370c9" x="375.227983" y="162.72" style="stroke: #000000; stroke-width: 0.8"/>
      </g>
     </g>
    </g>
   </g>
   <g id="matplotlib.axis_2">
    <g id="ytick_1">
     <g id="line2d_10">
      <defs>
       <path id="m001b861f65" d="M 0 0 
L -3.5 0 
" style="stroke: #000000; stroke-width: 0.8"/>
      </defs>
      <g>
       <use xlink:href="#m001b861f65" x="50.573438" y="155.836578" style="stroke: #000000; stroke-width: 0.8"/>
      </g>
     </g>
     <g id="text_1">
      <!-- -300 -->
      <g transform="translate(20.878125 159.635797) scale(0.1 -0.1)">
       <defs>
        <path id="DejaVuSans-2d" d="M 313 2009 
L 1997 2009 
L 1997 1497 
L 313 1497 
L 313 2009 
z
" transform="scale(0.015625)"/>
        <path id="DejaVuSans-33" d="M 2597 2516 
Q 3050 2419 3304 2112 
Q 3559 1806 3559 1356 
Q 3559 666 3084 287 
Q 2609 -91 1734 -91 
Q 1441 -91 1130 -33 
Q 819 25 488 141 
L 488 750 
Q 750 597 1062 519 
Q 1375 441 1716 441 
Q 2309 441 2620 675 
Q 2931 909 2931 1356 
Q 2931 1769 2642 2001 
Q 2353 2234 1838 2234 
L 1294 2234 
L 1294 2753 
L 1863 2753 
Q 2328 2753 2575 2939 
Q 2822 3125 2822 3475 
Q 2822 3834 2567 4026 
Q 2313 4219 1838 4219 
Q 1578 4219 1281 4162 
Q 984 4106 628 3988 
L 628 4550 
Q 988 4650 1302 4700 
Q 1616 4750 1894 4750 
Q 2613 4750 3031 4423 
Q 3450 4097 3450 3541 
Q 3450 3153 3228 2886 
Q 3006 2619 2597 2516 
z
" transform="scale(0.015625)"/>
        <path id="DejaVuSans-30" d="M 2034 4250 
Q 1547 4250 1301 3770 
Q 1056 3291 1056 2328 
Q 1056 1369 1301 889 
Q 1547 409 2034 409 
Q 2525 409 2770 889 
Q 3016 1369 3016 2328 
Q 3016 3291 2770 3770 
Q 2525 4250 2034 4250 
z
M 2034 4750 
Q 2819 4750 3233 4129 
Q 3647 3509 3647 2328 
Q 3647 1150 3233 529 
Q 2819 -91 2034 -91 
Q 1250 -91 836 529 
Q 422 1150 422 2328 
Q 422 3509 836 4129 
Q 1250 4750 2034 4750 
z
" transform="scale(0.015625)"/>
       </defs>
       <use xlink:href="#DejaVuSans-2d"/>
       <use xlink:href="#DejaVuSans-33" x="36.083984"/>
       <use xlink:href="#DejaVuSans-30" x="99.707031"/>
       <use xlink:href="#DejaVuSans-30" x="163.330078"/>
      </g>
     </g>
    </g>
    <g id="ytick_2">
     <g id="line2d_11">
      <g>
       <use xlink:href="#m001b861f65" x="50.573438" y="134.604738" style="stroke: #000000; stroke-width: 0.8"/>
      </g>
     </g>
     <g id="text_2">
      <!-- -250 -->
      <g transform="translate(20.878125 138.403956) scale(0.1 -0.1)">
       <defs>
        <path id="DejaVuSans-32" d="M 1228 531 
L 3431 531 
L 3431 0 
L 469 0 
L 469 531 
Q 828 903 1448 1529 
Q 2069 2156 2228 2338 
Q 2531 2678 2651 2914 
Q 2772 3150 2772 3378 
Q 2772 3750 2511 3984 
Q 2250 4219 1831 4219 
Q 1534 4219 1204 4116 
Q 875 4013 500 3803 
L 500 4441 
Q 881 4594 1212 4672 
Q 1544 4750 1819 4750 
Q 2544 4750 2975 4387 
Q 3406 4025 3406 3419 
Q 3406 3131 3298 2873 
Q 3191 2616 2906 2266 
Q 2828 2175 2409 1742 
Q 1991 1309 1228 531 
z
" transform="scale(0.015625)"/>
        <path id="DejaVuSans-35" d="M 691 4666 
L 3169 4666 
L 3169 4134 
L 1269 4134 
L 1269 2991 
Q 1406 3038 1543 3061 
Q 1681 3084 1819 3084 
Q 2600 3084 3056 2656 
Q 3513 2228 3513 1497 
Q 3513 744 3044 326 
Q 2575 -91 1722 -91 
Q 1428 -91 1123 -41 
Q 819 9 494 109 
L 494 744 
Q 775 591 1075 516 
Q 1375 441 1709 441 
Q 2250 441 2565 725 
Q 2881 1009 2881 1497 
Q 2881 1984 2565 2268 
Q 2250 2553 1709 2553 
Q 1456 2553 1204 2497 
Q 953 2441 691 2322 
L 691 4666 
z
" transform="scale(0.015625)"/>
       </defs>
       <use xlink:href="#DejaVuSans-2d"/>
       <use xlink:href="#DejaVuSans-32" x="36.083984"/>
       <use xlink:href="#DejaVuSans-35" x="99.707031"/>
       <use xlink:href="#DejaVuSans-30" x="163.330078"/>
      </g>
     </g>
    </g>
    <g id="ytick_3">
     <g id="line2d_12">
      <g>
       <use xlink:href="#m001b861f65" x="50.573438" y="113.372897" style="stroke: #000000; stroke-width: 0.8"/>
      </g>
     </g>
     <g id="text_3">
      <!-- -200 -->
      <g transform="translate(20.878125 117.172115) scale(0.1 -0.1)">
       <use xlink:href="#DejaVuSans-2d"/>
       <use xlink:href="#DejaVuSans-32" x="36.083984"/>
       <use xlink:href="#DejaVuSans-30" x="99.707031"/>
       <use xlink:href="#DejaVuSans-30" x="163.330078"/>
      </g>
     </g>
    </g>
    <g id="ytick_4">
     <g id="line2d_13">
      <g>
       <use xlink:href="#m001b861f65" x="50.573438" y="92.141056" style="stroke: #000000; stroke-width: 0.8"/>
      </g>
     </g>
     <g id="text_4">
      <!-- -150 -->
      <g transform="translate(20.878125 95.940275) scale(0.1 -0.1)">
       <defs>
        <path id="DejaVuSans-31" d="M 794 531 
L 1825 531 
L 1825 4091 
L 703 3866 
L 703 4441 
L 1819 4666 
L 2450 4666 
L 2450 531 
L 3481 531 
L 3481 0 
L 794 0 
L 794 531 
z
" transform="scale(0.015625)"/>
       </defs>
       <use xlink:href="#DejaVuSans-2d"/>
       <use xlink:href="#DejaVuSans-31" x="36.083984"/>
       <use xlink:href="#DejaVuSans-35" x="99.707031"/>
       <use xlink:href="#DejaVuSans-30" x="163.330078"/>
      </g>
     </g>
    </g>
    <g id="ytick_5">
     <g id="line2d_14">
      <g>
       <use xlink:href="#m001b861f65" x="50.573438" y="70.909215" style="stroke: #000000; stroke-width: 0.8"/>
      </g>
     </g>
     <g id="text_5">
      <!-- -100 -->
      <g transform="translate(20.878125 74.708434) scale(0.1 -0.1)">
       <use xlink:href="#DejaVuSans-2d"/>
       <use xlink:href="#DejaVuSans-31" x="36.083984"/>
       <use xlink:href="#DejaVuSans-30" x="99.707031"/>
       <use xlink:href="#DejaVuSans-30" x="163.330078"/>
      </g>
     </g>
    </g>
    <g id="ytick_6">
     <g id="line2d_15">
      <g>
       <use xlink:href="#m001b861f65" x="50.573438" y="49.677374" style="stroke: #000000; stroke-width: 0.8"/>
      </g>
     </g>
     <g id="text_6">
      <!-- -50 -->
      <g transform="translate(27.240625 53.476593) scale(0.1 -0.1)">
       <use xlink:href="#DejaVuSans-2d"/>
       <use xlink:href="#DejaVuSans-35" x="36.083984"/>
       <use xlink:href="#DejaVuSans-30" x="99.707031"/>
      </g>
     </g>
    </g>
    <g id="text_7">
     <!-- Re$(S_{21})$ [mV] -->
     <g transform="translate(14.798438 134.24) rotate(-90) scale(0.1 -0.1)">
      <defs>
       <path id="DejaVuSans-52" d="M 2841 2188 
Q 3044 2119 3236 1894 
Q 3428 1669 3622 1275 
L 4263 0 
L 3584 0 
L 2988 1197 
Q 2756 1666 2539 1819 
Q 2322 1972 1947 1972 
L 1259 1972 
L 1259 0 
L 628 0 
L 628 4666 
L 2053 4666 
Q 2853 4666 3247 4331 
Q 3641 3997 3641 3322 
Q 3641 2881 3436 2590 
Q 3231 2300 2841 2188 
z
M 1259 4147 
L 1259 2491 
L 2053 2491 
Q 2509 2491 2742 2702 
Q 2975 2913 2975 3322 
Q 2975 3731 2742 3939 
Q 2509 4147 2053 4147 
L 1259 4147 
z
" transform="scale(0.015625)"/>
       <path id="DejaVuSans-65" d="M 3597 1894 
L 3597 1613 
L 953 1613 
Q 991 1019 1311 708 
Q 1631 397 2203 397 
Q 2534 397 2845 478 
Q 3156 559 3463 722 
L 3463 178 
Q 3153 47 2828 -22 
Q 2503 -91 2169 -91 
Q 1331 -91 842 396 
Q 353 884 353 1716 
Q 353 2575 817 3079 
Q 1281 3584 2069 3584 
Q 2775 3584 3186 3129 
Q 3597 2675 3597 1894 
z
M 3022 2063 
Q 3016 2534 2758 2815 
Q 2500 3097 2075 3097 
Q 1594 3097 1305 2825 
Q 1016 2553 972 2059 
L 3022 2063 
z
" transform="scale(0.015625)"/>
       <path id="DejaVuSans-28" d="M 1984 4856 
Q 1566 4138 1362 3434 
Q 1159 2731 1159 2009 
Q 1159 1288 1364 580 
Q 1569 -128 1984 -844 
L 1484 -844 
Q 1016 -109 783 600 
Q 550 1309 550 2009 
Q 550 2706 781 3412 
Q 1013 4119 1484 4856 
L 1984 4856 
z
" transform="scale(0.015625)"/>
       <path id="DejaVuSans-Oblique-53" d="M 3859 4513 
L 3738 3897 
Q 3422 4066 3111 4152 
Q 2800 4238 2509 4238 
Q 1944 4238 1609 3991 
Q 1275 3744 1275 3334 
Q 1275 3109 1398 2989 
Q 1522 2869 2034 2731 
L 2413 2638 
Q 3053 2472 3303 2217 
Q 3553 1963 3553 1503 
Q 3553 797 2998 353 
Q 2444 -91 1538 -91 
Q 1166 -91 791 -17 
Q 416 56 38 206 
L 166 856 
Q 513 641 861 531 
Q 1209 422 1556 422 
Q 2147 422 2503 684 
Q 2859 947 2859 1369 
Q 2859 1650 2717 1795 
Q 2575 1941 2106 2059 
L 1728 2156 
Q 1081 2325 845 2545 
Q 609 2766 609 3163 
Q 609 3859 1145 4304 
Q 1681 4750 2541 4750 
Q 2875 4750 3203 4690 
Q 3531 4631 3859 4513 
z
" transform="scale(0.015625)"/>
       <path id="DejaVuSans-29" d="M 513 4856 
L 1013 4856 
Q 1481 4119 1714 3412 
Q 1947 2706 1947 2009 
Q 1947 1309 1714 600 
Q 1481 -109 1013 -844 
L 513 -844 
Q 928 -128 1133 580 
Q 1338 1288 1338 2009 
Q 1338 2731 1133 3434 
Q 928 4138 513 4856 
z
" transform="scale(0.015625)"/>
       <path id="DejaVuSans-20" transform="scale(0.015625)"/>
       <path id="DejaVuSans-5b" d="M 550 4863 
L 1875 4863 
L 1875 4416 
L 1125 4416 
L 1125 -397 
L 1875 -397 
L 1875 -844 
L 550 -844 
L 550 4863 
z
" transform="scale(0.015625)"/>
       <path id="DejaVuSans-6d" d="M 3328 2828 
Q 3544 3216 3844 3400 
Q 4144 3584 4550 3584 
Q 5097 3584 5394 3201 
Q 5691 2819 5691 2113 
L 5691 0 
L 5113 0 
L 5113 2094 
Q 5113 2597 4934 2840 
Q 4756 3084 4391 3084 
Q 3944 3084 3684 2787 
Q 3425 2491 3425 1978 
L 3425 0 
L 2847 0 
L 2847 2094 
Q 2847 2600 2669 2842 
Q 2491 3084 2119 3084 
Q 1678 3084 1418 2786 
Q 1159 2488 1159 1978 
L 1159 0 
L 581 0 
L 581 3500 
L 1159 3500 
L 1159 2956 
Q 1356 3278 1631 3431 
Q 1906 3584 2284 3584 
Q 2666 3584 2933 3390 
Q 3200 3197 3328 2828 
z
" transform="scale(0.015625)"/>
       <path id="DejaVuSans-56" d="M 1831 0 
L 50 4666 
L 709 4666 
L 2188 738 
L 3669 4666 
L 4325 4666 
L 2547 0 
L 1831 0 
z
" transform="scale(0.015625)"/>
       <path id="DejaVuSans-5d" d="M 1947 4863 
L 1947 -844 
L 622 -844 
L 622 -397 
L 1369 -397 
L 1369 4416 
L 622 4416 
L 622 4863 
L 1947 4863 
z
" transform="scale(0.015625)"/>
      </defs>
      <use xlink:href="#DejaVuSans-52" transform="translate(0 0.015625)"/>
      <use xlink:href="#DejaVuSans-65" transform="translate(69.482422 0.015625)"/>
      <use xlink:href="#DejaVuSans-28" transform="translate(131.005859 0.015625)"/>
      <use xlink:href="#DejaVuSans-Oblique-53" transform="translate(170.019531 0.015625)"/>
      <use xlink:href="#DejaVuSans-32" transform="translate(233.496094 -16.390625) scale(0.7)"/>
      <use xlink:href="#DejaVuSans-31" transform="translate(278.032227 -16.390625) scale(0.7)"/>
      <use xlink:href="#DejaVuSans-29" transform="translate(325.302734 0.015625)"/>
      <use xlink:href="#DejaVuSans-20" transform="translate(364.316406 0.015625)"/>
      <use xlink:href="#DejaVuSans-5b" transform="translate(396.103516 0.015625)"/>
      <use xlink:href="#DejaVuSans-6d" transform="translate(435.117188 0.015625)"/>
      <use xlink:href="#DejaVuSans-56" transform="translate(532.529297 0.015625)"/>
      <use xlink:href="#DejaVuSans-5d" transform="translate(600.9375 0.015625)"/>
     </g>
    </g>
   </g>
   <g id="line2d_16">
    <path d="M 66.806165 63.030894 
L 70.069025 65.849113 
L 88.014753 78.92178 
L 99.434762 86.983231 
L 101.066192 88.225297 
L 104.329052 90.397558 
L 122.274781 102.660009 
L 127.16907 105.881495 
L 130.43193 108.074354 
L 135.32622 111.237862 
L 158.166238 125.625815 
L 159.797668 126.587147 
L 161.429098 127.711776 
L 171.217677 133.571211 
L 176.111967 136.50386 
L 179.374826 138.43902 
L 187.531976 143.35167 
L 200.583415 151.470109 
L 202.214845 152.590339 
L 205.477704 154.488843 
L 208.740564 156.359005 
L 210.371994 156.945844 
L 212.003424 157.221818 
L 213.634854 157.136803 
L 215.266284 156.354625 
L 216.897713 154.437782 
L 218.529143 150.528307 
L 220.160573 142.896598 
L 221.792003 130.758511 
L 223.423433 113.849141 
L 226.686293 75.249257 
L 228.317723 60.471476 
L 229.949152 53.032197 
L 231.580582 53.214552 
L 233.212012 59.507149 
L 238.106302 87.620443 
L 239.737732 94.859606 
L 241.369162 100.729604 
L 243.000591 105.832082 
L 244.632021 110.188554 
L 246.263451 113.80299 
L 247.894881 116.877195 
L 249.526311 119.468556 
L 251.157741 121.704279 
L 252.789171 123.709236 
L 254.420601 125.450158 
L 256.05203 127.003473 
L 257.68346 128.374597 
L 260.94632 130.581215 
L 264.20918 132.359233 
L 265.84061 133.126422 
L 270.734899 134.807035 
L 272.366329 135.285313 
L 277.260619 136.231644 
L 280.523479 136.631045 
L 287.049198 136.949735 
L 293.574918 136.62813 
L 295.206348 136.554979 
L 306.626357 134.637402 
L 314.783506 132.568359 
L 319.677796 131.030263 
L 322.940655 129.933672 
L 331.097805 126.819626 
L 344.149244 120.901294 
L 350.674963 117.573005 
L 355.569253 114.992444 
L 370.252122 106.279419 
L 376.777841 102.104464 
L 381.672131 98.854036 
L 386.566421 95.500379 
L 391.46071 92.155853 
L 391.46071 92.155853 
" clip-path="url(#p35f7307c01)" style="fill: none; stroke: #1f77b4; stroke-width: 1.5; stroke-linecap: square"/>
    <defs>
     <path id="m44777916b0" d="M 0 1.5 
C 0.397805 1.5 0.77937 1.341951 1.06066 1.06066 
C 1.341951 0.77937 1.5 0.397805 1.5 0 
C 1.5 -0.397805 1.341951 -0.77937 1.06066 -1.06066 
C 0.77937 -1.341951 0.397805 -1.5 0 -1.5 
C -0.397805 -1.5 -0.77937 -1.341951 -1.06066 -1.06066 
C -1.341951 -0.77937 -1.5 -0.397805 -1.5 0 
C -1.5 0.397805 -1.341951 0.77937 -1.06066 1.06066 
C -0.77937 1.341951 -0.397805 1.5 0 1.5 
z
" style="stroke: #1f77b4"/>
    </defs>
    <g clip-path="url(#p35f7307c01)">
     <use xlink:href="#m44777916b0" x="66.806165" y="63.030894" style="fill: #1f77b4; stroke: #1f77b4"/>
     <use xlink:href="#m44777916b0" x="68.437595" y="64.461775" style="fill: #1f77b4; stroke: #1f77b4"/>
     <use xlink:href="#m44777916b0" x="70.069025" y="65.849113" style="fill: #1f77b4; stroke: #1f77b4"/>
     <use xlink:href="#m44777916b0" x="71.700454" y="67.047916" style="fill: #1f77b4; stroke: #1f77b4"/>
     <use xlink:href="#m44777916b0" x="73.331884" y="68.273783" style="fill: #1f77b4; stroke: #1f77b4"/>
     <use xlink:href="#m44777916b0" x="74.963314" y="69.525642" style="fill: #1f77b4; stroke: #1f77b4"/>
     <use xlink:href="#m44777916b0" x="76.594744" y="70.711334" style="fill: #1f77b4; stroke: #1f77b4"/>
     <use xlink:href="#m44777916b0" x="78.226174" y="71.957688" style="fill: #1f77b4; stroke: #1f77b4"/>
     <use xlink:href="#m44777916b0" x="79.857604" y="73.069213" style="fill: #1f77b4; stroke: #1f77b4"/>
     <use xlink:href="#m44777916b0" x="81.489034" y="74.276932" style="fill: #1f77b4; stroke: #1f77b4"/>
     <use xlink:href="#m44777916b0" x="83.120464" y="75.431142" style="fill: #1f77b4; stroke: #1f77b4"/>
     <use xlink:href="#m44777916b0" x="84.751893" y="76.610951" style="fill: #1f77b4; stroke: #1f77b4"/>
     <use xlink:href="#m44777916b0" x="86.383323" y="77.831513" style="fill: #1f77b4; stroke: #1f77b4"/>
     <use xlink:href="#m44777916b0" x="88.014753" y="78.92178" style="fill: #1f77b4; stroke: #1f77b4"/>
     <use xlink:href="#m44777916b0" x="89.646183" y="80.064265" style="fill: #1f77b4; stroke: #1f77b4"/>
     <use xlink:href="#m44777916b0" x="91.277613" y="81.281633" style="fill: #1f77b4; stroke: #1f77b4"/>
     <use xlink:href="#m44777916b0" x="92.909043" y="82.414255" style="fill: #1f77b4; stroke: #1f77b4"/>
     <use xlink:href="#m44777916b0" x="94.540473" y="83.598409" style="fill: #1f77b4; stroke: #1f77b4"/>
     <use xlink:href="#m44777916b0" x="96.171903" y="84.685155" style="fill: #1f77b4; stroke: #1f77b4"/>
     <use xlink:href="#m44777916b0" x="97.803332" y="85.879363" style="fill: #1f77b4; stroke: #1f77b4"/>
     <use xlink:href="#m44777916b0" x="99.434762" y="86.983231" style="fill: #1f77b4; stroke: #1f77b4"/>
     <use xlink:href="#m44777916b0" x="101.066192" y="88.225297" style="fill: #1f77b4; stroke: #1f77b4"/>
     <use xlink:href="#m44777916b0" x="102.697622" y="89.277085" style="fill: #1f77b4; stroke: #1f77b4"/>
     <use xlink:href="#m44777916b0" x="104.329052" y="90.397558" style="fill: #1f77b4; stroke: #1f77b4"/>
     <use xlink:href="#m44777916b0" x="105.960482" y="91.520248" style="fill: #1f77b4; stroke: #1f77b4"/>
     <use xlink:href="#m44777916b0" x="107.591912" y="92.654229" style="fill: #1f77b4; stroke: #1f77b4"/>
     <use xlink:href="#m44777916b0" x="109.223342" y="93.744098" style="fill: #1f77b4; stroke: #1f77b4"/>
     <use xlink:href="#m44777916b0" x="110.854771" y="94.900985" style="fill: #1f77b4; stroke: #1f77b4"/>
     <use xlink:href="#m44777916b0" x="112.486201" y="96.02588" style="fill: #1f77b4; stroke: #1f77b4"/>
     <use xlink:href="#m44777916b0" x="114.117631" y="97.072187" style="fill: #1f77b4; stroke: #1f77b4"/>
     <use xlink:href="#m44777916b0" x="115.749061" y="98.233914" style="fill: #1f77b4; stroke: #1f77b4"/>
     <use xlink:href="#m44777916b0" x="117.380491" y="99.35223" style="fill: #1f77b4; stroke: #1f77b4"/>
     <use xlink:href="#m44777916b0" x="119.011921" y="100.465418" style="fill: #1f77b4; stroke: #1f77b4"/>
     <use xlink:href="#m44777916b0" x="120.643351" y="101.562659" style="fill: #1f77b4; stroke: #1f77b4"/>
     <use xlink:href="#m44777916b0" x="122.274781" y="102.660009" style="fill: #1f77b4; stroke: #1f77b4"/>
     <use xlink:href="#m44777916b0" x="123.90621" y="103.697888" style="fill: #1f77b4; stroke: #1f77b4"/>
     <use xlink:href="#m44777916b0" x="125.53764" y="104.825266" style="fill: #1f77b4; stroke: #1f77b4"/>
     <use xlink:href="#m44777916b0" x="127.16907" y="105.881495" style="fill: #1f77b4; stroke: #1f77b4"/>
     <use xlink:href="#m44777916b0" x="128.8005" y="107.008364" style="fill: #1f77b4; stroke: #1f77b4"/>
     <use xlink:href="#m44777916b0" x="130.43193" y="108.074354" style="fill: #1f77b4; stroke: #1f77b4"/>
     <use xlink:href="#m44777916b0" x="132.06336" y="109.086391" style="fill: #1f77b4; stroke: #1f77b4"/>
     <use xlink:href="#m44777916b0" x="133.69479" y="110.117707" style="fill: #1f77b4; stroke: #1f77b4"/>
     <use xlink:href="#m44777916b0" x="135.32622" y="111.237862" style="fill: #1f77b4; stroke: #1f77b4"/>
     <use xlink:href="#m44777916b0" x="136.957649" y="112.273742" style="fill: #1f77b4; stroke: #1f77b4"/>
     <use xlink:href="#m44777916b0" x="138.589079" y="113.329123" style="fill: #1f77b4; stroke: #1f77b4"/>
     <use xlink:href="#m44777916b0" x="140.220509" y="114.407453" style="fill: #1f77b4; stroke: #1f77b4"/>
     <use xlink:href="#m44777916b0" x="141.851939" y="115.465207" style="fill: #1f77b4; stroke: #1f77b4"/>
     <use xlink:href="#m44777916b0" x="143.483369" y="116.489659" style="fill: #1f77b4; stroke: #1f77b4"/>
     <use xlink:href="#m44777916b0" x="145.114799" y="117.489007" style="fill: #1f77b4; stroke: #1f77b4"/>
     <use xlink:href="#m44777916b0" x="146.746229" y="118.538157" style="fill: #1f77b4; stroke: #1f77b4"/>
     <use xlink:href="#m44777916b0" x="148.377659" y="119.563708" style="fill: #1f77b4; stroke: #1f77b4"/>
     <use xlink:href="#m44777916b0" x="150.009088" y="120.639404" style="fill: #1f77b4; stroke: #1f77b4"/>
     <use xlink:href="#m44777916b0" x="151.640518" y="121.640315" style="fill: #1f77b4; stroke: #1f77b4"/>
     <use xlink:href="#m44777916b0" x="153.271948" y="122.658556" style="fill: #1f77b4; stroke: #1f77b4"/>
     <use xlink:href="#m44777916b0" x="154.903378" y="123.613591" style="fill: #1f77b4; stroke: #1f77b4"/>
     <use xlink:href="#m44777916b0" x="156.534808" y="124.667867" style="fill: #1f77b4; stroke: #1f77b4"/>
     <use xlink:href="#m44777916b0" x="158.166238" y="125.625815" style="fill: #1f77b4; stroke: #1f77b4"/>
     <use xlink:href="#m44777916b0" x="159.797668" y="126.587147" style="fill: #1f77b4; stroke: #1f77b4"/>
     <use xlink:href="#m44777916b0" x="161.429098" y="127.711776" style="fill: #1f77b4; stroke: #1f77b4"/>
     <use xlink:href="#m44777916b0" x="163.060527" y="128.667856" style="fill: #1f77b4; stroke: #1f77b4"/>
     <use xlink:href="#m44777916b0" x="164.691957" y="129.641145" style="fill: #1f77b4; stroke: #1f77b4"/>
     <use xlink:href="#m44777916b0" x="166.323387" y="130.580112" style="fill: #1f77b4; stroke: #1f77b4"/>
     <use xlink:href="#m44777916b0" x="167.954817" y="131.595133" style="fill: #1f77b4; stroke: #1f77b4"/>
     <use xlink:href="#m44777916b0" x="169.586247" y="132.563322" style="fill: #1f77b4; stroke: #1f77b4"/>
     <use xlink:href="#m44777916b0" x="171.217677" y="133.571211" style="fill: #1f77b4; stroke: #1f77b4"/>
     <use xlink:href="#m44777916b0" x="172.849107" y="134.583785" style="fill: #1f77b4; stroke: #1f77b4"/>
     <use xlink:href="#m44777916b0" x="174.480537" y="135.506337" style="fill: #1f77b4; stroke: #1f77b4"/>
     <use xlink:href="#m44777916b0" x="176.111967" y="136.50386" style="fill: #1f77b4; stroke: #1f77b4"/>
     <use xlink:href="#m44777916b0" x="177.743396" y="137.410111" style="fill: #1f77b4; stroke: #1f77b4"/>
     <use xlink:href="#m44777916b0" x="179.374826" y="138.43902" style="fill: #1f77b4; stroke: #1f77b4"/>
     <use xlink:href="#m44777916b0" x="181.006256" y="139.400867" style="fill: #1f77b4; stroke: #1f77b4"/>
     <use xlink:href="#m44777916b0" x="182.637686" y="140.358721" style="fill: #1f77b4; stroke: #1f77b4"/>
     <use xlink:href="#m44777916b0" x="184.269116" y="141.424816" style="fill: #1f77b4; stroke: #1f77b4"/>
     <use xlink:href="#m44777916b0" x="185.900546" y="142.308419" style="fill: #1f77b4; stroke: #1f77b4"/>
     <use xlink:href="#m44777916b0" x="187.531976" y="143.35167" style="fill: #1f77b4; stroke: #1f77b4"/>
     <use xlink:href="#m44777916b0" x="189.163406" y="144.361371" style="fill: #1f77b4; stroke: #1f77b4"/>
     <use xlink:href="#m44777916b0" x="190.794835" y="145.353696" style="fill: #1f77b4; stroke: #1f77b4"/>
     <use xlink:href="#m44777916b0" x="192.426265" y="146.387829" style="fill: #1f77b4; stroke: #1f77b4"/>
     <use xlink:href="#m44777916b0" x="194.057695" y="147.42322" style="fill: #1f77b4; stroke: #1f77b4"/>
     <use xlink:href="#m44777916b0" x="195.689125" y="148.390933" style="fill: #1f77b4; stroke: #1f77b4"/>
     <use xlink:href="#m44777916b0" x="197.320555" y="149.435609" style="fill: #1f77b4; stroke: #1f77b4"/>
     <use xlink:href="#m44777916b0" x="198.951985" y="150.443924" style="fill: #1f77b4; stroke: #1f77b4"/>
     <use xlink:href="#m44777916b0" x="200.583415" y="151.470109" style="fill: #1f77b4; stroke: #1f77b4"/>
     <use xlink:href="#m44777916b0" x="202.214845" y="152.590339" style="fill: #1f77b4; stroke: #1f77b4"/>
     <use xlink:href="#m44777916b0" x="203.846274" y="153.505694" style="fill: #1f77b4; stroke: #1f77b4"/>
     <use xlink:href="#m44777916b0" x="205.477704" y="154.488843" style="fill: #1f77b4; stroke: #1f77b4"/>
     <use xlink:href="#m44777916b0" x="207.109134" y="155.466226" style="fill: #1f77b4; stroke: #1f77b4"/>
     <use xlink:href="#m44777916b0" x="208.740564" y="156.359005" style="fill: #1f77b4; stroke: #1f77b4"/>
     <use xlink:href="#m44777916b0" x="210.371994" y="156.945844" style="fill: #1f77b4; stroke: #1f77b4"/>
     <use xlink:href="#m44777916b0" x="212.003424" y="157.221818" style="fill: #1f77b4; stroke: #1f77b4"/>
     <use xlink:href="#m44777916b0" x="213.634854" y="157.136803" style="fill: #1f77b4; stroke: #1f77b4"/>
     <use xlink:href="#m44777916b0" x="215.266284" y="156.354625" style="fill: #1f77b4; stroke: #1f77b4"/>
     <use xlink:href="#m44777916b0" x="216.897713" y="154.437782" style="fill: #1f77b4; stroke: #1f77b4"/>
     <use xlink:href="#m44777916b0" x="218.529143" y="150.528307" style="fill: #1f77b4; stroke: #1f77b4"/>
     <use xlink:href="#m44777916b0" x="220.160573" y="142.896598" style="fill: #1f77b4; stroke: #1f77b4"/>
     <use xlink:href="#m44777916b0" x="221.792003" y="130.758511" style="fill: #1f77b4; stroke: #1f77b4"/>
     <use xlink:href="#m44777916b0" x="223.423433" y="113.849141" style="fill: #1f77b4; stroke: #1f77b4"/>
     <use xlink:href="#m44777916b0" x="225.054863" y="94.275377" style="fill: #1f77b4; stroke: #1f77b4"/>
     <use xlink:href="#m44777916b0" x="226.686293" y="75.249257" style="fill: #1f77b4; stroke: #1f77b4"/>
     <use xlink:href="#m44777916b0" x="228.317723" y="60.471476" style="fill: #1f77b4; stroke: #1f77b4"/>
     <use xlink:href="#m44777916b0" x="229.949152" y="53.032197" style="fill: #1f77b4; stroke: #1f77b4"/>
     <use xlink:href="#m44777916b0" x="231.580582" y="53.214552" style="fill: #1f77b4; stroke: #1f77b4"/>
     <use xlink:href="#m44777916b0" x="233.212012" y="59.507149" style="fill: #1f77b4; stroke: #1f77b4"/>
     <use xlink:href="#m44777916b0" x="234.843442" y="68.84324" style="fill: #1f77b4; stroke: #1f77b4"/>
     <use xlink:href="#m44777916b0" x="236.474872" y="78.787025" style="fill: #1f77b4; stroke: #1f77b4"/>
     <use xlink:href="#m44777916b0" x="238.106302" y="87.620443" style="fill: #1f77b4; stroke: #1f77b4"/>
     <use xlink:href="#m44777916b0" x="239.737732" y="94.859606" style="fill: #1f77b4; stroke: #1f77b4"/>
     <use xlink:href="#m44777916b0" x="241.369162" y="100.729604" style="fill: #1f77b4; stroke: #1f77b4"/>
     <use xlink:href="#m44777916b0" x="243.000591" y="105.832082" style="fill: #1f77b4; stroke: #1f77b4"/>
     <use xlink:href="#m44777916b0" x="244.632021" y="110.188554" style="fill: #1f77b4; stroke: #1f77b4"/>
     <use xlink:href="#m44777916b0" x="246.263451" y="113.80299" style="fill: #1f77b4; stroke: #1f77b4"/>
     <use xlink:href="#m44777916b0" x="247.894881" y="116.877195" style="fill: #1f77b4; stroke: #1f77b4"/>
     <use xlink:href="#m44777916b0" x="249.526311" y="119.468556" style="fill: #1f77b4; stroke: #1f77b4"/>
     <use xlink:href="#m44777916b0" x="251.157741" y="121.704279" style="fill: #1f77b4; stroke: #1f77b4"/>
     <use xlink:href="#m44777916b0" x="252.789171" y="123.709236" style="fill: #1f77b4; stroke: #1f77b4"/>
     <use xlink:href="#m44777916b0" x="254.420601" y="125.450158" style="fill: #1f77b4; stroke: #1f77b4"/>
     <use xlink:href="#m44777916b0" x="256.05203" y="127.003473" style="fill: #1f77b4; stroke: #1f77b4"/>
     <use xlink:href="#m44777916b0" x="257.68346" y="128.374597" style="fill: #1f77b4; stroke: #1f77b4"/>
     <use xlink:href="#m44777916b0" x="259.31489" y="129.507625" style="fill: #1f77b4; stroke: #1f77b4"/>
     <use xlink:href="#m44777916b0" x="260.94632" y="130.581215" style="fill: #1f77b4; stroke: #1f77b4"/>
     <use xlink:href="#m44777916b0" x="262.57775" y="131.515089" style="fill: #1f77b4; stroke: #1f77b4"/>
     <use xlink:href="#m44777916b0" x="264.20918" y="132.359233" style="fill: #1f77b4; stroke: #1f77b4"/>
     <use xlink:href="#m44777916b0" x="265.84061" y="133.126422" style="fill: #1f77b4; stroke: #1f77b4"/>
     <use xlink:href="#m44777916b0" x="267.47204" y="133.720759" style="fill: #1f77b4; stroke: #1f77b4"/>
     <use xlink:href="#m44777916b0" x="269.103469" y="134.355087" style="fill: #1f77b4; stroke: #1f77b4"/>
     <use xlink:href="#m44777916b0" x="270.734899" y="134.807035" style="fill: #1f77b4; stroke: #1f77b4"/>
     <use xlink:href="#m44777916b0" x="272.366329" y="135.285313" style="fill: #1f77b4; stroke: #1f77b4"/>
     <use xlink:href="#m44777916b0" x="273.997759" y="135.610612" style="fill: #1f77b4; stroke: #1f77b4"/>
     <use xlink:href="#m44777916b0" x="275.629189" y="135.954221" style="fill: #1f77b4; stroke: #1f77b4"/>
     <use xlink:href="#m44777916b0" x="277.260619" y="136.231644" style="fill: #1f77b4; stroke: #1f77b4"/>
     <use xlink:href="#m44777916b0" x="278.892049" y="136.448852" style="fill: #1f77b4; stroke: #1f77b4"/>
     <use xlink:href="#m44777916b0" x="280.523479" y="136.631045" style="fill: #1f77b4; stroke: #1f77b4"/>
     <use xlink:href="#m44777916b0" x="282.154908" y="136.731675" style="fill: #1f77b4; stroke: #1f77b4"/>
     <use xlink:href="#m44777916b0" x="283.786338" y="136.883779" style="fill: #1f77b4; stroke: #1f77b4"/>
     <use xlink:href="#m44777916b0" x="285.417768" y="136.924404" style="fill: #1f77b4; stroke: #1f77b4"/>
     <use xlink:href="#m44777916b0" x="287.049198" y="136.949735" style="fill: #1f77b4; stroke: #1f77b4"/>
     <use xlink:href="#m44777916b0" x="288.680628" y="136.894759" style="fill: #1f77b4; stroke: #1f77b4"/>
     <use xlink:href="#m44777916b0" x="290.312058" y="136.818251" style="fill: #1f77b4; stroke: #1f77b4"/>
     <use xlink:href="#m44777916b0" x="291.943488" y="136.686" style="fill: #1f77b4; stroke: #1f77b4"/>
     <use xlink:href="#m44777916b0" x="293.574918" y="136.62813" style="fill: #1f77b4; stroke: #1f77b4"/>
     <use xlink:href="#m44777916b0" x="295.206348" y="136.554979" style="fill: #1f77b4; stroke: #1f77b4"/>
     <use xlink:href="#m44777916b0" x="296.837777" y="136.288843" style="fill: #1f77b4; stroke: #1f77b4"/>
     <use xlink:href="#m44777916b0" x="298.469207" y="136.106357" style="fill: #1f77b4; stroke: #1f77b4"/>
     <use xlink:href="#m44777916b0" x="300.100637" y="135.787732" style="fill: #1f77b4; stroke: #1f77b4"/>
     <use xlink:href="#m44777916b0" x="301.732067" y="135.589476" style="fill: #1f77b4; stroke: #1f77b4"/>
     <use xlink:href="#m44777916b0" x="303.363497" y="135.272118" style="fill: #1f77b4; stroke: #1f77b4"/>
     <use xlink:href="#m44777916b0" x="304.994927" y="134.927819" style="fill: #1f77b4; stroke: #1f77b4"/>
     <use xlink:href="#m44777916b0" x="306.626357" y="134.637402" style="fill: #1f77b4; stroke: #1f77b4"/>
     <use xlink:href="#m44777916b0" x="308.257787" y="134.242709" style="fill: #1f77b4; stroke: #1f77b4"/>
     <use xlink:href="#m44777916b0" x="309.889216" y="133.901625" style="fill: #1f77b4; stroke: #1f77b4"/>
     <use xlink:href="#m44777916b0" x="311.520646" y="133.443177" style="fill: #1f77b4; stroke: #1f77b4"/>
     <use xlink:href="#m44777916b0" x="313.152076" y="132.981594" style="fill: #1f77b4; stroke: #1f77b4"/>
     <use xlink:href="#m44777916b0" x="314.783506" y="132.568359" style="fill: #1f77b4; stroke: #1f77b4"/>
     <use xlink:href="#m44777916b0" x="316.414936" y="132.092535" style="fill: #1f77b4; stroke: #1f77b4"/>
     <use xlink:href="#m44777916b0" x="318.046366" y="131.578666" style="fill: #1f77b4; stroke: #1f77b4"/>
     <use xlink:href="#m44777916b0" x="319.677796" y="131.030263" style="fill: #1f77b4; stroke: #1f77b4"/>
     <use xlink:href="#m44777916b0" x="321.309226" y="130.514445" style="fill: #1f77b4; stroke: #1f77b4"/>
     <use xlink:href="#m44777916b0" x="322.940655" y="129.933672" style="fill: #1f77b4; stroke: #1f77b4"/>
     <use xlink:href="#m44777916b0" x="324.572085" y="129.316954" style="fill: #1f77b4; stroke: #1f77b4"/>
     <use xlink:href="#m44777916b0" x="326.203515" y="128.740853" style="fill: #1f77b4; stroke: #1f77b4"/>
     <use xlink:href="#m44777916b0" x="327.834945" y="128.053524" style="fill: #1f77b4; stroke: #1f77b4"/>
     <use xlink:href="#m44777916b0" x="329.466375" y="127.41683" style="fill: #1f77b4; stroke: #1f77b4"/>
     <use xlink:href="#m44777916b0" x="331.097805" y="126.819626" style="fill: #1f77b4; stroke: #1f77b4"/>
     <use xlink:href="#m44777916b0" x="332.729235" y="126.092148" style="fill: #1f77b4; stroke: #1f77b4"/>
     <use xlink:href="#m44777916b0" x="334.360665" y="125.413318" style="fill: #1f77b4; stroke: #1f77b4"/>
     <use xlink:href="#m44777916b0" x="335.992094" y="124.742315" style="fill: #1f77b4; stroke: #1f77b4"/>
     <use xlink:href="#m44777916b0" x="337.623524" y="123.990243" style="fill: #1f77b4; stroke: #1f77b4"/>
     <use xlink:href="#m44777916b0" x="339.254954" y="123.21224" style="fill: #1f77b4; stroke: #1f77b4"/>
     <use xlink:href="#m44777916b0" x="340.886384" y="122.499787" style="fill: #1f77b4; stroke: #1f77b4"/>
     <use xlink:href="#m44777916b0" x="342.517814" y="121.648589" style="fill: #1f77b4; stroke: #1f77b4"/>
     <use xlink:href="#m44777916b0" x="344.149244" y="120.901294" style="fill: #1f77b4; stroke: #1f77b4"/>
     <use xlink:href="#m44777916b0" x="345.780674" y="120.095688" style="fill: #1f77b4; stroke: #1f77b4"/>
     <use xlink:href="#m44777916b0" x="347.412104" y="119.297451" style="fill: #1f77b4; stroke: #1f77b4"/>
     <use xlink:href="#m44777916b0" x="349.043533" y="118.473735" style="fill: #1f77b4; stroke: #1f77b4"/>
     <use xlink:href="#m44777916b0" x="350.674963" y="117.573005" style="fill: #1f77b4; stroke: #1f77b4"/>
     <use xlink:href="#m44777916b0" x="352.306393" y="116.749223" style="fill: #1f77b4; stroke: #1f77b4"/>
     <use xlink:href="#m44777916b0" x="353.937823" y="115.853244" style="fill: #1f77b4; stroke: #1f77b4"/>
     <use xlink:href="#m44777916b0" x="355.569253" y="114.992444" style="fill: #1f77b4; stroke: #1f77b4"/>
     <use xlink:href="#m44777916b0" x="357.200683" y="114.035388" style="fill: #1f77b4; stroke: #1f77b4"/>
     <use xlink:href="#m44777916b0" x="358.832113" y="113.099963" style="fill: #1f77b4; stroke: #1f77b4"/>
     <use xlink:href="#m44777916b0" x="360.463543" y="112.167016" style="fill: #1f77b4; stroke: #1f77b4"/>
     <use xlink:href="#m44777916b0" x="362.094972" y="111.236654" style="fill: #1f77b4; stroke: #1f77b4"/>
     <use xlink:href="#m44777916b0" x="363.726402" y="110.219977" style="fill: #1f77b4; stroke: #1f77b4"/>
     <use xlink:href="#m44777916b0" x="365.357832" y="109.245164" style="fill: #1f77b4; stroke: #1f77b4"/>
     <use xlink:href="#m44777916b0" x="366.989262" y="108.31174" style="fill: #1f77b4; stroke: #1f77b4"/>
     <use xlink:href="#m44777916b0" x="368.620692" y="107.252411" style="fill: #1f77b4; stroke: #1f77b4"/>
     <use xlink:href="#m44777916b0" x="370.252122" y="106.279419" style="fill: #1f77b4; stroke: #1f77b4"/>
     <use xlink:href="#m44777916b0" x="371.883552" y="105.264732" style="fill: #1f77b4; stroke: #1f77b4"/>
     <use xlink:href="#m44777916b0" x="373.514982" y="104.199647" style="fill: #1f77b4; stroke: #1f77b4"/>
     <use xlink:href="#m44777916b0" x="375.146411" y="103.185545" style="fill: #1f77b4; stroke: #1f77b4"/>
     <use xlink:href="#m44777916b0" x="376.777841" y="102.104464" style="fill: #1f77b4; stroke: #1f77b4"/>
     <use xlink:href="#m44777916b0" x="378.409271" y="101.042489" style="fill: #1f77b4; stroke: #1f77b4"/>
     <use xlink:href="#m44777916b0" x="380.040701" y="99.9382" style="fill: #1f77b4; stroke: #1f77b4"/>
     <use xlink:href="#m44777916b0" x="381.672131" y="98.854036" style="fill: #1f77b4; stroke: #1f77b4"/>
     <use xlink:href="#m44777916b0" x="383.303561" y="97.706645" style="fill: #1f77b4; stroke: #1f77b4"/>
     <use xlink:href="#m44777916b0" x="384.934991" y="96.675338" style="fill: #1f77b4; stroke: #1f77b4"/>
     <use xlink:href="#m44777916b0" x="386.566421" y="95.500379" style="fill: #1f77b4; stroke: #1f77b4"/>
     <use xlink:href="#m44777916b0" x="388.19785" y="94.41701" style="fill: #1f77b4; stroke: #1f77b4"/>
     <use xlink:href="#m44777916b0" x="389.82928" y="93.259991" style="fill: #1f77b4; stroke: #1f77b4"/>
     <use xlink:href="#m44777916b0" x="391.46071" y="92.155853" style="fill: #1f77b4; stroke: #1f77b4"/>
    </g>
   </g>
   <g id="line2d_17">
    <path d="M 66.806165 64.852272 
L 80.455305 75.618857 
L 92.479547 84.818801 
L 103.203872 92.752028 
L 113.278237 99.938005 
L 123.027623 106.622112 
L 132.452029 112.813366 
L 141.551456 118.528233 
L 150.650882 123.980333 
L 159.750309 129.173266 
L 169.174715 134.293892 
L 179.24908 139.512915 
L 190.623364 145.149593 
L 199.072831 149.126357 
L 203.622545 151.054827 
L 206.547361 152.077441 
L 208.822217 152.633205 
L 210.447115 152.81241 
L 211.747033 152.757332 
L 213.046951 152.451173 
L 214.02189 151.998045 
L 214.996828 151.290939 
L 215.971767 150.254798 
L 216.946705 148.791483 
L 217.921644 146.773387 
L 218.896582 144.03657 
L 219.871521 140.37518 
L 220.84646 135.541248 
L 221.821398 129.258141 
L 222.796337 121.262003 
L 223.771275 111.390533 
L 225.071193 95.524849 
L 227.67103 62.01199 
L 228.320989 55.744288 
L 228.970948 51.121302 
L 229.620907 48.302316 
L 229.945886 47.566939 
L 230.270866 47.258182 
L 230.595845 47.348271 
L 230.920825 47.803282 
L 231.570784 49.653845 
L 232.220743 52.489746 
L 233.195682 57.92887 
L 237.745395 85.260942 
L 239.370293 92.882803 
L 240.670211 98.049488 
L 241.970129 102.49557 
L 243.595026 107.198641 
L 245.219924 111.122337 
L 246.844822 114.418075 
L 248.469719 117.206306 
L 250.094617 119.581561 
L 251.719514 121.617828 
L 253.669392 123.694757 
L 255.619269 125.444186 
L 257.569146 126.925189 
L 259.844003 128.373816 
L 262.118859 129.573753 
L 264.718695 130.693793 
L 267.643511 131.688903 
L 270.568327 132.451187 
L 273.818122 133.069906 
L 277.392897 133.516217 
L 281.292651 133.765265 
L 285.517385 133.79482 
L 289.742119 133.606836 
L 294.291832 133.189421 
L 299.166525 132.520509 
L 304.366198 131.578126 
L 309.890849 130.340131 
L 315.415501 128.876867 
L 321.265133 127.098878 
L 327.439744 124.983015 
L 333.614355 122.636025 
L 340.113945 119.929833 
L 346.938515 116.842461 
L 354.088065 113.353022 
L 361.237614 109.617544 
L 368.712143 105.46497 
L 376.511652 100.879556 
L 384.63614 95.848359 
L 391.46071 91.436001 
L 391.46071 91.436001 
" clip-path="url(#p35f7307c01)" style="fill: none; stroke: #d62728; stroke-width: 1.5; stroke-linecap: square"/>
   </g>
   <g id="patch_3">
    <path d="M 50.573438 162.72 
L 50.573438 41.76 
" style="fill: none; stroke: #000000; stroke-width: 0.8; stroke-linejoin: miter; stroke-linecap: square"/>
   </g>
   <g id="patch_4">
    <path d="M 407.693438 162.72 
L 407.693438 41.76 
" style="fill: none; stroke: #000000; stroke-width: 0.8; stroke-linejoin: miter; stroke-linecap: square"/>
   </g>
   <g id="patch_5">
    <path d="M 50.573437 162.72 
L 407.693437 162.72 
" style="fill: none; stroke: #000000; stroke-width: 0.8; stroke-linejoin: miter; stroke-linecap: square"/>
   </g>
   <g id="patch_6">
    <path d="M 50.573437 41.76 
L 407.693437 41.76 
" style="fill: none; stroke: #000000; stroke-width: 0.8; stroke-linejoin: miter; stroke-linecap: square"/>
   </g>
   <g id="text_8">
    <g id="patch_7">
     <path d="M 425.549438 95.079562 
L 570.549438 95.079562 
Q 574.549438 95.079562 574.549438 91.079562 
L 574.549438 47.808 
Q 574.549438 43.808 570.549438 43.808 
L 425.549438 43.808 
Q 421.549438 43.808 421.549438 47.808 
L 421.549438 91.079562 
Q 421.549438 95.079562 425.549438 95.079562 
z
" style="fill: #ffffff; opacity: 0.5; stroke: #000000; stroke-linejoin: miter"/>
    </g>
    <!-- Summary -->
    <g transform="translate(425.549438 55.406437) scale(0.1 -0.1)">
     <defs>
      <path id="DejaVuSans-53" d="M 3425 4513 
L 3425 3897 
Q 3066 4069 2747 4153 
Q 2428 4238 2131 4238 
Q 1616 4238 1336 4038 
Q 1056 3838 1056 3469 
Q 1056 3159 1242 3001 
Q 1428 2844 1947 2747 
L 2328 2669 
Q 3034 2534 3370 2195 
Q 3706 1856 3706 1288 
Q 3706 609 3251 259 
Q 2797 -91 1919 -91 
Q 1588 -91 1214 -16 
Q 841 59 441 206 
L 441 856 
Q 825 641 1194 531 
Q 1563 422 1919 422 
Q 2459 422 2753 634 
Q 3047 847 3047 1241 
Q 3047 1584 2836 1778 
Q 2625 1972 2144 2069 
L 1759 2144 
Q 1053 2284 737 2584 
Q 422 2884 422 3419 
Q 422 4038 858 4394 
Q 1294 4750 2059 4750 
Q 2388 4750 2728 4690 
Q 3069 4631 3425 4513 
z
" transform="scale(0.015625)"/>
      <path id="DejaVuSans-75" d="M 544 1381 
L 544 3500 
L 1119 3500 
L 1119 1403 
Q 1119 906 1312 657 
Q 1506 409 1894 409 
Q 2359 409 2629 706 
Q 2900 1003 2900 1516 
L 2900 3500 
L 3475 3500 
L 3475 0 
L 2900 0 
L 2900 538 
Q 2691 219 2414 64 
Q 2138 -91 1772 -91 
Q 1169 -91 856 284 
Q 544 659 544 1381 
z
M 1991 3584 
L 1991 3584 
z
" transform="scale(0.015625)"/>
      <path id="DejaVuSans-61" d="M 2194 1759 
Q 1497 1759 1228 1600 
Q 959 1441 959 1056 
Q 959 750 1161 570 
Q 1363 391 1709 391 
Q 2188 391 2477 730 
Q 2766 1069 2766 1631 
L 2766 1759 
L 2194 1759 
z
M 3341 1997 
L 3341 0 
L 2766 0 
L 2766 531 
Q 2569 213 2275 61 
Q 1981 -91 1556 -91 
Q 1019 -91 701 211 
Q 384 513 384 1019 
Q 384 1609 779 1909 
Q 1175 2209 1959 2209 
L 2766 2209 
L 2766 2266 
Q 2766 2663 2505 2880 
Q 2244 3097 1772 3097 
Q 1472 3097 1187 3025 
Q 903 2953 641 2809 
L 641 3341 
Q 956 3463 1253 3523 
Q 1550 3584 1831 3584 
Q 2591 3584 2966 3190 
Q 3341 2797 3341 1997 
z
" transform="scale(0.015625)"/>
      <path id="DejaVuSans-72" d="M 2631 2963 
Q 2534 3019 2420 3045 
Q 2306 3072 2169 3072 
Q 1681 3072 1420 2755 
Q 1159 2438 1159 1844 
L 1159 0 
L 581 0 
L 581 3500 
L 1159 3500 
L 1159 2956 
Q 1341 3275 1631 3429 
Q 1922 3584 2338 3584 
Q 2397 3584 2469 3576 
Q 2541 3569 2628 3553 
L 2631 2963 
z
" transform="scale(0.015625)"/>
      <path id="DejaVuSans-79" d="M 2059 -325 
Q 1816 -950 1584 -1140 
Q 1353 -1331 966 -1331 
L 506 -1331 
L 506 -850 
L 844 -850 
Q 1081 -850 1212 -737 
Q 1344 -625 1503 -206 
L 1606 56 
L 191 3500 
L 800 3500 
L 1894 763 
L 2988 3500 
L 3597 3500 
L 2059 -325 
z
" transform="scale(0.015625)"/>
     </defs>
     <use xlink:href="#DejaVuSans-53"/>
     <use xlink:href="#DejaVuSans-75" x="63.476562"/>
     <use xlink:href="#DejaVuSans-6d" x="126.855469"/>
     <use xlink:href="#DejaVuSans-6d" x="224.267578"/>
     <use xlink:href="#DejaVuSans-61" x="321.679688"/>
     <use xlink:href="#DejaVuSans-72" x="382.958984"/>
     <use xlink:href="#DejaVuSans-79" x="424.072266"/>
    </g>
    <!-- $Q_I$: 33.7$\pm$2.2 k -->
    <g transform="translate(425.549438 66.60425) scale(0.1 -0.1)">
     <defs>
      <path id="DejaVuSans-Oblique-51" d="M 2309 -84 
Q 2275 -88 2237 -89 
Q 2200 -91 2125 -91 
Q 1250 -91 756 411 
Q 263 913 263 1797 
Q 263 2319 452 2844 
Q 641 3369 978 3788 
Q 1369 4269 1858 4509 
Q 2347 4750 2938 4750 
Q 3794 4750 4287 4245 
Q 4781 3741 4781 2869 
Q 4781 1928 4265 1147 
Q 3750 366 2919 44 
L 3553 -825 
L 2847 -825 
L 2309 -84 
z
M 2919 4238 
Q 2400 4238 2003 3986 
Q 1606 3734 1313 3219 
Q 1125 2891 1026 2522 
Q 928 2153 928 1778 
Q 928 1128 1239 775 
Q 1550 422 2119 422 
Q 2631 422 3032 676 
Q 3434 931 3719 1434 
Q 3909 1772 4009 2142 
Q 4109 2513 4109 2881 
Q 4109 3528 3796 3883 
Q 3484 4238 2919 4238 
z
" transform="scale(0.015625)"/>
      <path id="DejaVuSans-Oblique-49" d="M 1081 4666 
L 1716 4666 
L 806 0 
L 172 0 
L 1081 4666 
z
" transform="scale(0.015625)"/>
      <path id="DejaVuSans-3a" d="M 750 794 
L 1409 794 
L 1409 0 
L 750 0 
L 750 794 
z
M 750 3309 
L 1409 3309 
L 1409 2516 
L 750 2516 
L 750 3309 
z
" transform="scale(0.015625)"/>
      <path id="DejaVuSans-2e" d="M 684 794 
L 1344 794 
L 1344 0 
L 684 0 
L 684 794 
z
" transform="scale(0.015625)"/>
      <path id="DejaVuSans-37" d="M 525 4666 
L 3525 4666 
L 3525 4397 
L 1831 0 
L 1172 0 
L 2766 4134 
L 525 4134 
L 525 4666 
z
" transform="scale(0.015625)"/>
      <path id="DejaVuSans-b1" d="M 2944 4013 
L 2944 2803 
L 4684 2803 
L 4684 2272 
L 2944 2272 
L 2944 1063 
L 2419 1063 
L 2419 2272 
L 678 2272 
L 678 2803 
L 2419 2803 
L 2419 4013 
L 2944 4013 
z
M 678 531 
L 4684 531 
L 4684 0 
L 678 0 
L 678 531 
z
" transform="scale(0.015625)"/>
      <path id="DejaVuSans-6b" d="M 581 4863 
L 1159 4863 
L 1159 1991 
L 2875 3500 
L 3609 3500 
L 1753 1863 
L 3688 0 
L 2938 0 
L 1159 1709 
L 1159 0 
L 581 0 
L 581 4863 
z
" transform="scale(0.015625)"/>
     </defs>
     <use xlink:href="#DejaVuSans-Oblique-51" transform="translate(0 0.015625)"/>
     <use xlink:href="#DejaVuSans-Oblique-49" transform="translate(78.710938 -16.390625) scale(0.7)"/>
     <use xlink:href="#DejaVuSans-3a" transform="translate(102.089844 0.015625)"/>
     <use xlink:href="#DejaVuSans-20" transform="translate(135.78125 0.015625)"/>
     <use xlink:href="#DejaVuSans-33" transform="translate(167.568359 0.015625)"/>
     <use xlink:href="#DejaVuSans-33" transform="translate(231.191406 0.015625)"/>
     <use xlink:href="#DejaVuSans-2e" transform="translate(294.814453 0.015625)"/>
     <use xlink:href="#DejaVuSans-37" transform="translate(318.851562 0.015625)"/>
     <use xlink:href="#DejaVuSans-b1" transform="translate(382.474609 0.015625)"/>
     <use xlink:href="#DejaVuSans-32" transform="translate(466.263672 0.015625)"/>
     <use xlink:href="#DejaVuSans-2e" transform="translate(529.886719 0.015625)"/>
     <use xlink:href="#DejaVuSans-32" transform="translate(556.173828 0.015625)"/>
     <use xlink:href="#DejaVuSans-20" transform="translate(619.796875 0.015625)"/>
     <use xlink:href="#DejaVuSans-6b" transform="translate(651.583984 0.015625)"/>
    </g>
    <!-- $Q_C$: 8.40$\pm$0.12 k -->
    <g transform="translate(425.549438 77.802062) scale(0.1 -0.1)">
     <defs>
      <path id="DejaVuSans-Oblique-43" d="M 4447 4306 
L 4319 3641 
Q 4019 3944 3683 4091 
Q 3347 4238 2956 4238 
Q 2422 4238 2017 3981 
Q 1613 3725 1319 3200 
Q 1131 2863 1032 2486 
Q 934 2109 934 1728 
Q 934 1091 1264 756 
Q 1594 422 2222 422 
Q 2656 422 3056 561 
Q 3456 700 3834 978 
L 3688 231 
Q 3316 72 2936 -9 
Q 2556 -91 2175 -91 
Q 1278 -91 773 396 
Q 269 884 269 1753 
Q 269 2309 461 2846 
Q 653 3384 1013 3828 
Q 1394 4300 1883 4525 
Q 2372 4750 3022 4750 
Q 3422 4750 3780 4639 
Q 4138 4528 4447 4306 
z
" transform="scale(0.015625)"/>
      <path id="DejaVuSans-38" d="M 2034 2216 
Q 1584 2216 1326 1975 
Q 1069 1734 1069 1313 
Q 1069 891 1326 650 
Q 1584 409 2034 409 
Q 2484 409 2743 651 
Q 3003 894 3003 1313 
Q 3003 1734 2745 1975 
Q 2488 2216 2034 2216 
z
M 1403 2484 
Q 997 2584 770 2862 
Q 544 3141 544 3541 
Q 544 4100 942 4425 
Q 1341 4750 2034 4750 
Q 2731 4750 3128 4425 
Q 3525 4100 3525 3541 
Q 3525 3141 3298 2862 
Q 3072 2584 2669 2484 
Q 3125 2378 3379 2068 
Q 3634 1759 3634 1313 
Q 3634 634 3220 271 
Q 2806 -91 2034 -91 
Q 1263 -91 848 271 
Q 434 634 434 1313 
Q 434 1759 690 2068 
Q 947 2378 1403 2484 
z
M 1172 3481 
Q 1172 3119 1398 2916 
Q 1625 2713 2034 2713 
Q 2441 2713 2670 2916 
Q 2900 3119 2900 3481 
Q 2900 3844 2670 4047 
Q 2441 4250 2034 4250 
Q 1625 4250 1398 4047 
Q 1172 3844 1172 3481 
z
" transform="scale(0.015625)"/>
      <path id="DejaVuSans-34" d="M 2419 4116 
L 825 1625 
L 2419 1625 
L 2419 4116 
z
M 2253 4666 
L 3047 4666 
L 3047 1625 
L 3713 1625 
L 3713 1100 
L 3047 1100 
L 3047 0 
L 2419 0 
L 2419 1100 
L 313 1100 
L 313 1709 
L 2253 4666 
z
" transform="scale(0.015625)"/>
     </defs>
     <use xlink:href="#DejaVuSans-Oblique-51" transform="translate(0 0.015625)"/>
     <use xlink:href="#DejaVuSans-Oblique-43" transform="translate(78.710938 -16.390625) scale(0.7)"/>
     <use xlink:href="#DejaVuSans-3a" transform="translate(130.322266 0.015625)"/>
     <use xlink:href="#DejaVuSans-20" transform="translate(164.013672 0.015625)"/>
     <use xlink:href="#DejaVuSans-38" transform="translate(195.800781 0.015625)"/>
     <use xlink:href="#DejaVuSans-2e" transform="translate(259.423828 0.015625)"/>
     <use xlink:href="#DejaVuSans-34" transform="translate(291.210938 0.015625)"/>
     <use xlink:href="#DejaVuSans-30" transform="translate(354.833984 0.015625)"/>
     <use xlink:href="#DejaVuSans-b1" transform="translate(418.457031 0.015625)"/>
     <use xlink:href="#DejaVuSans-30" transform="translate(502.246094 0.015625)"/>
     <use xlink:href="#DejaVuSans-2e" transform="translate(565.869141 0.015625)"/>
     <use xlink:href="#DejaVuSans-31" transform="translate(597.65625 0.015625)"/>
     <use xlink:href="#DejaVuSans-32" transform="translate(661.279297 0.015625)"/>
     <use xlink:href="#DejaVuSans-20" transform="translate(724.902344 0.015625)"/>
     <use xlink:href="#DejaVuSans-6b" transform="translate(756.689453 0.015625)"/>
    </g>
    <!-- $f_{res}$: 5.7209323$\pm$7.5e-06 GHz -->
    <g transform="translate(425.549438 88.999875) scale(0.1 -0.1)">
     <defs>
      <path id="DejaVuSans-Oblique-66" d="M 3059 4863 
L 2969 4384 
L 2419 4384 
Q 2106 4384 1964 4261 
Q 1822 4138 1753 3809 
L 1691 3500 
L 2638 3500 
L 2553 3053 
L 1606 3053 
L 1013 0 
L 434 0 
L 1031 3053 
L 481 3053 
L 563 3500 
L 1113 3500 
L 1159 3744 
Q 1278 4363 1576 4613 
Q 1875 4863 2516 4863 
L 3059 4863 
z
" transform="scale(0.015625)"/>
      <path id="DejaVuSans-Oblique-72" d="M 2853 2969 
Q 2766 3016 2653 3041 
Q 2541 3066 2413 3066 
Q 1953 3066 1609 2717 
Q 1266 2369 1153 1784 
L 800 0 
L 225 0 
L 909 3500 
L 1484 3500 
L 1375 2956 
Q 1603 3259 1920 3421 
Q 2238 3584 2597 3584 
Q 2691 3584 2781 3573 
Q 2872 3563 2963 3538 
L 2853 2969 
z
" transform="scale(0.015625)"/>
      <path id="DejaVuSans-Oblique-65" d="M 3078 2063 
Q 3088 2113 3092 2166 
Q 3097 2219 3097 2272 
Q 3097 2653 2873 2875 
Q 2650 3097 2266 3097 
Q 1838 3097 1509 2826 
Q 1181 2556 1013 2059 
L 3078 2063 
z
M 3578 1613 
L 903 1613 
Q 884 1494 878 1425 
Q 872 1356 872 1306 
Q 872 872 1139 634 
Q 1406 397 1894 397 
Q 2269 397 2603 481 
Q 2938 566 3225 728 
L 3116 159 
Q 2806 34 2476 -28 
Q 2147 -91 1806 -91 
Q 1078 -91 686 257 
Q 294 606 294 1247 
Q 294 1794 489 2264 
Q 684 2734 1063 3103 
Q 1306 3334 1642 3459 
Q 1978 3584 2356 3584 
Q 2950 3584 3301 3228 
Q 3653 2872 3653 2272 
Q 3653 2128 3634 1964 
Q 3616 1800 3578 1613 
z
" transform="scale(0.015625)"/>
      <path id="DejaVuSans-Oblique-73" d="M 3200 3397 
L 3091 2853 
Q 2863 2978 2609 3040 
Q 2356 3103 2088 3103 
Q 1634 3103 1373 2948 
Q 1113 2794 1113 2528 
Q 1113 2219 1719 2053 
Q 1766 2041 1788 2034 
L 1972 1978 
Q 2547 1819 2739 1644 
Q 2931 1469 2931 1166 
Q 2931 609 2489 259 
Q 2047 -91 1331 -91 
Q 1053 -91 747 -37 
Q 441 16 72 128 
L 184 722 
Q 500 559 806 475 
Q 1113 391 1394 391 
Q 1816 391 2080 572 
Q 2344 753 2344 1031 
Q 2344 1331 1650 1516 
L 1591 1531 
L 1394 1581 
Q 956 1697 753 1886 
Q 550 2075 550 2369 
Q 550 2928 970 3256 
Q 1391 3584 2113 3584 
Q 2397 3584 2667 3537 
Q 2938 3491 3200 3397 
z
" transform="scale(0.015625)"/>
      <path id="DejaVuSans-39" d="M 703 97 
L 703 672 
Q 941 559 1184 500 
Q 1428 441 1663 441 
Q 2288 441 2617 861 
Q 2947 1281 2994 2138 
Q 2813 1869 2534 1725 
Q 2256 1581 1919 1581 
Q 1219 1581 811 2004 
Q 403 2428 403 3163 
Q 403 3881 828 4315 
Q 1253 4750 1959 4750 
Q 2769 4750 3195 4129 
Q 3622 3509 3622 2328 
Q 3622 1225 3098 567 
Q 2575 -91 1691 -91 
Q 1453 -91 1209 -44 
Q 966 3 703 97 
z
M 1959 2075 
Q 2384 2075 2632 2365 
Q 2881 2656 2881 3163 
Q 2881 3666 2632 3958 
Q 2384 4250 1959 4250 
Q 1534 4250 1286 3958 
Q 1038 3666 1038 3163 
Q 1038 2656 1286 2365 
Q 1534 2075 1959 2075 
z
" transform="scale(0.015625)"/>
      <path id="DejaVuSans-36" d="M 2113 2584 
Q 1688 2584 1439 2293 
Q 1191 2003 1191 1497 
Q 1191 994 1439 701 
Q 1688 409 2113 409 
Q 2538 409 2786 701 
Q 3034 994 3034 1497 
Q 3034 2003 2786 2293 
Q 2538 2584 2113 2584 
z
M 3366 4563 
L 3366 3988 
Q 3128 4100 2886 4159 
Q 2644 4219 2406 4219 
Q 1781 4219 1451 3797 
Q 1122 3375 1075 2522 
Q 1259 2794 1537 2939 
Q 1816 3084 2150 3084 
Q 2853 3084 3261 2657 
Q 3669 2231 3669 1497 
Q 3669 778 3244 343 
Q 2819 -91 2113 -91 
Q 1303 -91 875 529 
Q 447 1150 447 2328 
Q 447 3434 972 4092 
Q 1497 4750 2381 4750 
Q 2619 4750 2861 4703 
Q 3103 4656 3366 4563 
z
" transform="scale(0.015625)"/>
      <path id="DejaVuSans-47" d="M 3809 666 
L 3809 1919 
L 2778 1919 
L 2778 2438 
L 4434 2438 
L 4434 434 
Q 4069 175 3628 42 
Q 3188 -91 2688 -91 
Q 1594 -91 976 548 
Q 359 1188 359 2328 
Q 359 3472 976 4111 
Q 1594 4750 2688 4750 
Q 3144 4750 3555 4637 
Q 3966 4525 4313 4306 
L 4313 3634 
Q 3963 3931 3569 4081 
Q 3175 4231 2741 4231 
Q 1884 4231 1454 3753 
Q 1025 3275 1025 2328 
Q 1025 1384 1454 906 
Q 1884 428 2741 428 
Q 3075 428 3337 486 
Q 3600 544 3809 666 
z
" transform="scale(0.015625)"/>
      <path id="DejaVuSans-48" d="M 628 4666 
L 1259 4666 
L 1259 2753 
L 3553 2753 
L 3553 4666 
L 4184 4666 
L 4184 0 
L 3553 0 
L 3553 2222 
L 1259 2222 
L 1259 0 
L 628 0 
L 628 4666 
z
" transform="scale(0.015625)"/>
      <path id="DejaVuSans-7a" d="M 353 3500 
L 3084 3500 
L 3084 2975 
L 922 459 
L 3084 459 
L 3084 0 
L 275 0 
L 275 525 
L 2438 3041 
L 353 3041 
L 353 3500 
z
" transform="scale(0.015625)"/>
     </defs>
     <use xlink:href="#DejaVuSans-Oblique-66" transform="translate(0 0.015625)"/>
     <use xlink:href="#DejaVuSans-Oblique-72" transform="translate(35.205078 -16.390625) scale(0.7)"/>
     <use xlink:href="#DejaVuSans-Oblique-65" transform="translate(63.984375 -16.390625) scale(0.7)"/>
     <use xlink:href="#DejaVuSans-Oblique-73" transform="translate(107.050781 -16.390625) scale(0.7)"/>
     <use xlink:href="#DejaVuSans-3a" transform="translate(146.254883 0.015625)"/>
     <use xlink:href="#DejaVuSans-20" transform="translate(179.946289 0.015625)"/>
     <use xlink:href="#DejaVuSans-35" transform="translate(211.733398 0.015625)"/>
     <use xlink:href="#DejaVuSans-2e" transform="translate(275.356445 0.015625)"/>
     <use xlink:href="#DejaVuSans-37" transform="translate(299.393555 0.015625)"/>
     <use xlink:href="#DejaVuSans-32" transform="translate(363.016602 0.015625)"/>
     <use xlink:href="#DejaVuSans-30" transform="translate(426.639648 0.015625)"/>
     <use xlink:href="#DejaVuSans-39" transform="translate(490.262695 0.015625)"/>
     <use xlink:href="#DejaVuSans-33" transform="translate(553.885742 0.015625)"/>
     <use xlink:href="#DejaVuSans-32" transform="translate(617.508789 0.015625)"/>
     <use xlink:href="#DejaVuSans-33" transform="translate(681.131836 0.015625)"/>
     <use xlink:href="#DejaVuSans-b1" transform="translate(744.754883 0.015625)"/>
     <use xlink:href="#DejaVuSans-37" transform="translate(828.543945 0.015625)"/>
     <use xlink:href="#DejaVuSans-2e" transform="translate(892.166992 0.015625)"/>
     <use xlink:href="#DejaVuSans-35" transform="translate(923.954102 0.015625)"/>
     <use xlink:href="#DejaVuSans-65" transform="translate(987.577148 0.015625)"/>
     <use xlink:href="#DejaVuSans-2d" transform="translate(1049.100586 0.015625)"/>
     <use xlink:href="#DejaVuSans-30" transform="translate(1085.18457 0.015625)"/>
     <use xlink:href="#DejaVuSans-36" transform="translate(1148.807617 0.015625)"/>
     <use xlink:href="#DejaVuSans-20" transform="translate(1212.430664 0.015625)"/>
     <use xlink:href="#DejaVuSans-47" transform="translate(1244.217773 0.015625)"/>
     <use xlink:href="#DejaVuSans-48" transform="translate(1321.708008 0.015625)"/>
     <use xlink:href="#DejaVuSans-7a" transform="translate(1396.90332 0.015625)"/>
    </g>
   </g>
  </g>
  <g id="axes_2">
   <g id="patch_8">
    <path d="M 50.573438 307.872 
L 407.693438 307.872 
L 407.693438 186.912 
L 50.573438 186.912 
z
" style="fill: #ffffff"/>
   </g>
   <g id="matplotlib.axis_3">
    <g id="xtick_10">
     <g id="line2d_18">
      <g>
       <use xlink:href="#m2c419370c9" x="50.573437" y="307.872" style="stroke: #000000; stroke-width: 0.8"/>
      </g>
     </g>
     <g id="text_9">
      <!-- 710 -->
      <g transform="translate(41.029687 322.470438) scale(0.1 -0.1)">
       <use xlink:href="#DejaVuSans-37"/>
       <use xlink:href="#DejaVuSans-31" x="63.623047"/>
       <use xlink:href="#DejaVuSans-30" x="127.246094"/>
      </g>
     </g>
    </g>
    <g id="xtick_11">
     <g id="line2d_19">
      <g>
       <use xlink:href="#m2c419370c9" x="91.155256" y="307.872" style="stroke: #000000; stroke-width: 0.8"/>
      </g>
     </g>
     <g id="text_10">
      <!-- 712.5 -->
      <g transform="translate(76.841193 322.470438) scale(0.1 -0.1)">
       <use xlink:href="#DejaVuSans-37"/>
       <use xlink:href="#DejaVuSans-31" x="63.623047"/>
       <use xlink:href="#DejaVuSans-32" x="127.246094"/>
       <use xlink:href="#DejaVuSans-2e" x="190.869141"/>
       <use xlink:href="#DejaVuSans-35" x="222.65625"/>
      </g>
     </g>
    </g>
    <g id="xtick_12">
     <g id="line2d_20">
      <g>
       <use xlink:href="#m2c419370c9" x="131.737074" y="307.872" style="stroke: #000000; stroke-width: 0.8"/>
      </g>
     </g>
     <g id="text_11">
      <!-- 715 -->
      <g transform="translate(122.193324 322.470438) scale(0.1 -0.1)">
       <use xlink:href="#DejaVuSans-37"/>
       <use xlink:href="#DejaVuSans-31" x="63.623047"/>
       <use xlink:href="#DejaVuSans-35" x="127.246094"/>
      </g>
     </g>
    </g>
    <g id="xtick_13">
     <g id="line2d_21">
      <g>
       <use xlink:href="#m2c419370c9" x="172.318892" y="307.872" style="stroke: #000000; stroke-width: 0.8"/>
      </g>
     </g>
     <g id="text_12">
      <!-- 717.5 -->
      <g transform="translate(158.00483 322.470438) scale(0.1 -0.1)">
       <use xlink:href="#DejaVuSans-37"/>
       <use xlink:href="#DejaVuSans-31" x="63.623047"/>
       <use xlink:href="#DejaVuSans-37" x="127.246094"/>
       <use xlink:href="#DejaVuSans-2e" x="190.869141"/>
       <use xlink:href="#DejaVuSans-35" x="222.65625"/>
      </g>
     </g>
    </g>
    <g id="xtick_14">
     <g id="line2d_22">
      <g>
       <use xlink:href="#m2c419370c9" x="212.90071" y="307.872" style="stroke: #000000; stroke-width: 0.8"/>
      </g>
     </g>
     <g id="text_13">
      <!-- 720 -->
      <g transform="translate(203.35696 322.470438) scale(0.1 -0.1)">
       <use xlink:href="#DejaVuSans-37"/>
       <use xlink:href="#DejaVuSans-32" x="63.623047"/>
       <use xlink:href="#DejaVuSans-30" x="127.246094"/>
      </g>
     </g>
    </g>
    <g id="xtick_15">
     <g id="line2d_23">
      <g>
       <use xlink:href="#m2c419370c9" x="253.482528" y="307.872" style="stroke: #000000; stroke-width: 0.8"/>
      </g>
     </g>
     <g id="text_14">
      <!-- 722.5 -->
      <g transform="translate(239.168466 322.470438) scale(0.1 -0.1)">
       <use xlink:href="#DejaVuSans-37"/>
       <use xlink:href="#DejaVuSans-32" x="63.623047"/>
       <use xlink:href="#DejaVuSans-32" x="127.246094"/>
       <use xlink:href="#DejaVuSans-2e" x="190.869141"/>
       <use xlink:href="#DejaVuSans-35" x="222.65625"/>
      </g>
     </g>
    </g>
    <g id="xtick_16">
     <g id="line2d_24">
      <g>
       <use xlink:href="#m2c419370c9" x="294.064347" y="307.872" style="stroke: #000000; stroke-width: 0.8"/>
      </g>
     </g>
     <g id="text_15">
      <!-- 725 -->
      <g transform="translate(284.520597 322.470438) scale(0.1 -0.1)">
       <use xlink:href="#DejaVuSans-37"/>
       <use xlink:href="#DejaVuSans-32" x="63.623047"/>
       <use xlink:href="#DejaVuSans-35" x="127.246094"/>
      </g>
     </g>
    </g>
    <g id="xtick_17">
     <g id="line2d_25">
      <g>
       <use xlink:href="#m2c419370c9" x="334.646165" y="307.872" style="stroke: #000000; stroke-width: 0.8"/>
      </g>
     </g>
     <g id="text_16">
      <!-- 727.5 -->
      <g transform="translate(320.332102 322.470438) scale(0.1 -0.1)">
       <use xlink:href="#DejaVuSans-37"/>
       <use xlink:href="#DejaVuSans-32" x="63.623047"/>
       <use xlink:href="#DejaVuSans-37" x="127.246094"/>
       <use xlink:href="#DejaVuSans-2e" x="190.869141"/>
       <use xlink:href="#DejaVuSans-35" x="222.65625"/>
      </g>
     </g>
    </g>
    <g id="xtick_18">
     <g id="line2d_26">
      <g>
       <use xlink:href="#m2c419370c9" x="375.227983" y="307.872" style="stroke: #000000; stroke-width: 0.8"/>
      </g>
     </g>
     <g id="text_17">
      <!-- 730 -->
      <g transform="translate(365.684233 322.470438) scale(0.1 -0.1)">
       <use xlink:href="#DejaVuSans-37"/>
       <use xlink:href="#DejaVuSans-33" x="63.623047"/>
       <use xlink:href="#DejaVuSans-30" x="127.246094"/>
      </g>
     </g>
    </g>
    <g id="text_18">
     <!-- Frequency [MHz] -->
     <g transform="translate(187.114688 336.148562) scale(0.1 -0.1)">
      <defs>
       <path id="DejaVuSans-46" d="M 628 4666 
L 3309 4666 
L 3309 4134 
L 1259 4134 
L 1259 2759 
L 3109 2759 
L 3109 2228 
L 1259 2228 
L 1259 0 
L 628 0 
L 628 4666 
z
" transform="scale(0.015625)"/>
       <path id="DejaVuSans-71" d="M 947 1747 
Q 947 1113 1208 752 
Q 1469 391 1925 391 
Q 2381 391 2643 752 
Q 2906 1113 2906 1747 
Q 2906 2381 2643 2742 
Q 2381 3103 1925 3103 
Q 1469 3103 1208 2742 
Q 947 2381 947 1747 
z
M 2906 525 
Q 2725 213 2448 61 
Q 2172 -91 1784 -91 
Q 1150 -91 751 415 
Q 353 922 353 1747 
Q 353 2572 751 3078 
Q 1150 3584 1784 3584 
Q 2172 3584 2448 3432 
Q 2725 3281 2906 2969 
L 2906 3500 
L 3481 3500 
L 3481 -1331 
L 2906 -1331 
L 2906 525 
z
" transform="scale(0.015625)"/>
       <path id="DejaVuSans-6e" d="M 3513 2113 
L 3513 0 
L 2938 0 
L 2938 2094 
Q 2938 2591 2744 2837 
Q 2550 3084 2163 3084 
Q 1697 3084 1428 2787 
Q 1159 2491 1159 1978 
L 1159 0 
L 581 0 
L 581 3500 
L 1159 3500 
L 1159 2956 
Q 1366 3272 1645 3428 
Q 1925 3584 2291 3584 
Q 2894 3584 3203 3211 
Q 3513 2838 3513 2113 
z
" transform="scale(0.015625)"/>
       <path id="DejaVuSans-63" d="M 3122 3366 
L 3122 2828 
Q 2878 2963 2633 3030 
Q 2388 3097 2138 3097 
Q 1578 3097 1268 2742 
Q 959 2388 959 1747 
Q 959 1106 1268 751 
Q 1578 397 2138 397 
Q 2388 397 2633 464 
Q 2878 531 3122 666 
L 3122 134 
Q 2881 22 2623 -34 
Q 2366 -91 2075 -91 
Q 1284 -91 818 406 
Q 353 903 353 1747 
Q 353 2603 823 3093 
Q 1294 3584 2113 3584 
Q 2378 3584 2631 3529 
Q 2884 3475 3122 3366 
z
" transform="scale(0.015625)"/>
       <path id="DejaVuSans-4d" d="M 628 4666 
L 1569 4666 
L 2759 1491 
L 3956 4666 
L 4897 4666 
L 4897 0 
L 4281 0 
L 4281 4097 
L 3078 897 
L 2444 897 
L 1241 4097 
L 1241 0 
L 628 0 
L 628 4666 
z
" transform="scale(0.015625)"/>
      </defs>
      <use xlink:href="#DejaVuSans-46"/>
      <use xlink:href="#DejaVuSans-72" x="50.269531"/>
      <use xlink:href="#DejaVuSans-65" x="89.132812"/>
      <use xlink:href="#DejaVuSans-71" x="150.65625"/>
      <use xlink:href="#DejaVuSans-75" x="214.132812"/>
      <use xlink:href="#DejaVuSans-65" x="277.511719"/>
      <use xlink:href="#DejaVuSans-6e" x="339.035156"/>
      <use xlink:href="#DejaVuSans-63" x="402.414062"/>
      <use xlink:href="#DejaVuSans-79" x="457.394531"/>
      <use xlink:href="#DejaVuSans-20" x="516.574219"/>
      <use xlink:href="#DejaVuSans-5b" x="548.361328"/>
      <use xlink:href="#DejaVuSans-4d" x="587.375"/>
      <use xlink:href="#DejaVuSans-48" x="673.654297"/>
      <use xlink:href="#DejaVuSans-7a" x="748.849609"/>
      <use xlink:href="#DejaVuSans-5d" x="801.339844"/>
     </g>
    </g>
    <g id="text_19">
     <!-- +5 GHz -->
     <g transform="translate(369.255938 335.148562) scale(0.1 -0.1)">
      <defs>
       <path id="DejaVuSans-2b" d="M 2944 4013 
L 2944 2272 
L 4684 2272 
L 4684 1741 
L 2944 1741 
L 2944 0 
L 2419 0 
L 2419 1741 
L 678 1741 
L 678 2272 
L 2419 2272 
L 2419 4013 
L 2944 4013 
z
" transform="scale(0.015625)"/>
      </defs>
      <use xlink:href="#DejaVuSans-2b"/>
      <use xlink:href="#DejaVuSans-35" x="83.789062"/>
      <use xlink:href="#DejaVuSans-20" x="147.412109"/>
      <use xlink:href="#DejaVuSans-47" x="179.199219"/>
      <use xlink:href="#DejaVuSans-48" x="256.689453"/>
      <use xlink:href="#DejaVuSans-7a" x="331.884766"/>
     </g>
    </g>
   </g>
   <g id="matplotlib.axis_4">
    <g id="ytick_7">
     <g id="line2d_27">
      <g>
       <use xlink:href="#m001b861f65" x="50.573438" y="289.166676" style="stroke: #000000; stroke-width: 0.8"/>
      </g>
     </g>
     <g id="text_20">
      <!-- -200 -->
      <g transform="translate(20.878125 292.965895) scale(0.1 -0.1)">
       <use xlink:href="#DejaVuSans-2d"/>
       <use xlink:href="#DejaVuSans-32" x="36.083984"/>
       <use xlink:href="#DejaVuSans-30" x="99.707031"/>
       <use xlink:href="#DejaVuSans-30" x="163.330078"/>
      </g>
     </g>
    </g>
    <g id="ytick_8">
     <g id="line2d_28">
      <g>
       <use xlink:href="#m001b861f65" x="50.573438" y="266.341362" style="stroke: #000000; stroke-width: 0.8"/>
      </g>
     </g>
     <g id="text_21">
      <!-- -100 -->
      <g transform="translate(20.878125 270.140581) scale(0.1 -0.1)">
       <use xlink:href="#DejaVuSans-2d"/>
       <use xlink:href="#DejaVuSans-31" x="36.083984"/>
       <use xlink:href="#DejaVuSans-30" x="99.707031"/>
       <use xlink:href="#DejaVuSans-30" x="163.330078"/>
      </g>
     </g>
    </g>
    <g id="ytick_9">
     <g id="line2d_29">
      <g>
       <use xlink:href="#m001b861f65" x="50.573438" y="243.516048" style="stroke: #000000; stroke-width: 0.8"/>
      </g>
     </g>
     <g id="text_22">
      <!-- 0 -->
      <g transform="translate(37.210938 247.315267) scale(0.1 -0.1)">
       <use xlink:href="#DejaVuSans-30"/>
      </g>
     </g>
    </g>
    <g id="ytick_10">
     <g id="line2d_30">
      <g>
       <use xlink:href="#m001b861f65" x="50.573438" y="220.690734" style="stroke: #000000; stroke-width: 0.8"/>
      </g>
     </g>
     <g id="text_23">
      <!-- 100 -->
      <g transform="translate(24.485938 224.489953) scale(0.1 -0.1)">
       <use xlink:href="#DejaVuSans-31"/>
       <use xlink:href="#DejaVuSans-30" x="63.623047"/>
       <use xlink:href="#DejaVuSans-30" x="127.246094"/>
      </g>
     </g>
    </g>
    <g id="ytick_11">
     <g id="line2d_31">
      <g>
       <use xlink:href="#m001b861f65" x="50.573438" y="197.86542" style="stroke: #000000; stroke-width: 0.8"/>
      </g>
     </g>
     <g id="text_24">
      <!-- 200 -->
      <g transform="translate(24.485938 201.664639) scale(0.1 -0.1)">
       <use xlink:href="#DejaVuSans-32"/>
       <use xlink:href="#DejaVuSans-30" x="63.623047"/>
       <use xlink:href="#DejaVuSans-30" x="127.246094"/>
      </g>
     </g>
    </g>
    <g id="text_25">
     <!-- Im$(S_{21})$ [mV] -->
     <g transform="translate(14.798438 279.042) rotate(-90) scale(0.1 -0.1)">
      <defs>
       <path id="DejaVuSans-49" d="M 628 4666 
L 1259 4666 
L 1259 0 
L 628 0 
L 628 4666 
z
" transform="scale(0.015625)"/>
      </defs>
      <use xlink:href="#DejaVuSans-49" transform="translate(0 0.015625)"/>
      <use xlink:href="#DejaVuSans-6d" transform="translate(25.867188 0.015625)"/>
      <use xlink:href="#DejaVuSans-28" transform="translate(123.279297 0.015625)"/>
      <use xlink:href="#DejaVuSans-Oblique-53" transform="translate(162.292969 0.015625)"/>
      <use xlink:href="#DejaVuSans-32" transform="translate(225.769531 -16.390625) scale(0.7)"/>
      <use xlink:href="#DejaVuSans-31" transform="translate(270.305664 -16.390625) scale(0.7)"/>
      <use xlink:href="#DejaVuSans-29" transform="translate(317.576172 0.015625)"/>
      <use xlink:href="#DejaVuSans-20" transform="translate(356.589844 0.015625)"/>
      <use xlink:href="#DejaVuSans-5b" transform="translate(388.376953 0.015625)"/>
      <use xlink:href="#DejaVuSans-6d" transform="translate(427.390625 0.015625)"/>
      <use xlink:href="#DejaVuSans-56" transform="translate(524.802734 0.015625)"/>
      <use xlink:href="#DejaVuSans-5d" transform="translate(593.210938 0.015625)"/>
     </g>
    </g>
   </g>
   <g id="line2d_32">
    <path d="M 66.806165 297.684796 
L 71.700454 297.199122 
L 83.120464 295.793889 
L 91.277613 294.587474 
L 109.223342 291.267431 
L 123.90621 287.816189 
L 136.957649 284.226068 
L 143.483369 282.198826 
L 146.746229 281.104478 
L 156.534808 277.682359 
L 159.797668 276.408307 
L 167.954817 273.137196 
L 179.374826 267.808887 
L 184.269116 265.16741 
L 187.531976 263.303122 
L 190.794835 261.22118 
L 195.689125 257.842572 
L 198.951985 255.190945 
L 202.214845 252.14421 
L 203.846274 250.468372 
L 207.109134 246.540281 
L 208.740564 244.225881 
L 210.371994 241.620804 
L 212.003424 238.654397 
L 213.634854 235.266113 
L 215.266284 231.367679 
L 216.897713 226.817022 
L 218.529143 221.452981 
L 220.160573 215.637257 
L 221.792003 210.515803 
L 223.423433 207.419546 
L 225.054863 207.932872 
L 226.686293 212.633726 
L 228.317723 221.054764 
L 231.580582 241.477181 
L 233.212012 249.717586 
L 234.843442 255.297501 
L 236.474872 258.251389 
L 238.106302 259.526191 
L 239.737732 259.740329 
L 241.369162 259.472731 
L 243.000591 258.946039 
L 244.632021 258.206571 
L 247.894881 256.255521 
L 259.31489 249.064592 
L 264.20918 246.112436 
L 273.997759 240.435656 
L 288.680628 232.528142 
L 293.574918 230.036786 
L 309.889216 222.003792 
L 319.677796 217.533096 
L 335.992094 210.508975 
L 347.412104 206.042551 
L 352.306393 204.24573 
L 362.094972 200.81126 
L 370.252122 198.182442 
L 376.777841 196.233522 
L 386.566421 193.607844 
L 389.82928 192.76325 
L 391.46071 192.410182 
L 391.46071 192.410182 
" clip-path="url(#p1cf54fc41d)" style="fill: none; stroke: #1f77b4; stroke-width: 1.5; stroke-linecap: square"/>
    <g clip-path="url(#p1cf54fc41d)">
     <use xlink:href="#m44777916b0" x="66.806165" y="297.684796" style="fill: #1f77b4; stroke: #1f77b4"/>
     <use xlink:href="#m44777916b0" x="68.437595" y="297.55616" style="fill: #1f77b4; stroke: #1f77b4"/>
     <use xlink:href="#m44777916b0" x="70.069025" y="297.368677" style="fill: #1f77b4; stroke: #1f77b4"/>
     <use xlink:href="#m44777916b0" x="71.700454" y="297.199122" style="fill: #1f77b4; stroke: #1f77b4"/>
     <use xlink:href="#m44777916b0" x="73.331884" y="297.011319" style="fill: #1f77b4; stroke: #1f77b4"/>
     <use xlink:href="#m44777916b0" x="74.963314" y="296.806968" style="fill: #1f77b4; stroke: #1f77b4"/>
     <use xlink:href="#m44777916b0" x="76.594744" y="296.621623" style="fill: #1f77b4; stroke: #1f77b4"/>
     <use xlink:href="#m44777916b0" x="78.226174" y="296.435273" style="fill: #1f77b4; stroke: #1f77b4"/>
     <use xlink:href="#m44777916b0" x="79.857604" y="296.176663" style="fill: #1f77b4; stroke: #1f77b4"/>
     <use xlink:href="#m44777916b0" x="81.489034" y="295.999233" style="fill: #1f77b4; stroke: #1f77b4"/>
     <use xlink:href="#m44777916b0" x="83.120464" y="295.793889" style="fill: #1f77b4; stroke: #1f77b4"/>
     <use xlink:href="#m44777916b0" x="84.751893" y="295.574125" style="fill: #1f77b4; stroke: #1f77b4"/>
     <use xlink:href="#m44777916b0" x="86.383323" y="295.350437" style="fill: #1f77b4; stroke: #1f77b4"/>
     <use xlink:href="#m44777916b0" x="88.014753" y="295.1058" style="fill: #1f77b4; stroke: #1f77b4"/>
     <use xlink:href="#m44777916b0" x="89.646183" y="294.854561" style="fill: #1f77b4; stroke: #1f77b4"/>
     <use xlink:href="#m44777916b0" x="91.277613" y="294.587474" style="fill: #1f77b4; stroke: #1f77b4"/>
     <use xlink:href="#m44777916b0" x="92.909043" y="294.292027" style="fill: #1f77b4; stroke: #1f77b4"/>
     <use xlink:href="#m44777916b0" x="94.540473" y="294.033629" style="fill: #1f77b4; stroke: #1f77b4"/>
     <use xlink:href="#m44777916b0" x="96.171903" y="293.75551" style="fill: #1f77b4; stroke: #1f77b4"/>
     <use xlink:href="#m44777916b0" x="97.803332" y="293.460429" style="fill: #1f77b4; stroke: #1f77b4"/>
     <use xlink:href="#m44777916b0" x="99.434762" y="293.174318" style="fill: #1f77b4; stroke: #1f77b4"/>
     <use xlink:href="#m44777916b0" x="101.066192" y="292.877191" style="fill: #1f77b4; stroke: #1f77b4"/>
     <use xlink:href="#m44777916b0" x="102.697622" y="292.547392" style="fill: #1f77b4; stroke: #1f77b4"/>
     <use xlink:href="#m44777916b0" x="104.329052" y="292.218678" style="fill: #1f77b4; stroke: #1f77b4"/>
     <use xlink:href="#m44777916b0" x="105.960482" y="291.905679" style="fill: #1f77b4; stroke: #1f77b4"/>
     <use xlink:href="#m44777916b0" x="107.591912" y="291.55024" style="fill: #1f77b4; stroke: #1f77b4"/>
     <use xlink:href="#m44777916b0" x="109.223342" y="291.267431" style="fill: #1f77b4; stroke: #1f77b4"/>
     <use xlink:href="#m44777916b0" x="110.854771" y="290.896338" style="fill: #1f77b4; stroke: #1f77b4"/>
     <use xlink:href="#m44777916b0" x="112.486201" y="290.518308" style="fill: #1f77b4; stroke: #1f77b4"/>
     <use xlink:href="#m44777916b0" x="114.117631" y="290.167875" style="fill: #1f77b4; stroke: #1f77b4"/>
     <use xlink:href="#m44777916b0" x="115.749061" y="289.795891" style="fill: #1f77b4; stroke: #1f77b4"/>
     <use xlink:href="#m44777916b0" x="117.380491" y="289.414369" style="fill: #1f77b4; stroke: #1f77b4"/>
     <use xlink:href="#m44777916b0" x="119.011921" y="289.023996" style="fill: #1f77b4; stroke: #1f77b4"/>
     <use xlink:href="#m44777916b0" x="120.643351" y="288.653315" style="fill: #1f77b4; stroke: #1f77b4"/>
     <use xlink:href="#m44777916b0" x="122.274781" y="288.211592" style="fill: #1f77b4; stroke: #1f77b4"/>
     <use xlink:href="#m44777916b0" x="123.90621" y="287.816189" style="fill: #1f77b4; stroke: #1f77b4"/>
     <use xlink:href="#m44777916b0" x="125.53764" y="287.380041" style="fill: #1f77b4; stroke: #1f77b4"/>
     <use xlink:href="#m44777916b0" x="127.16907" y="286.978101" style="fill: #1f77b4; stroke: #1f77b4"/>
     <use xlink:href="#m44777916b0" x="128.8005" y="286.521254" style="fill: #1f77b4; stroke: #1f77b4"/>
     <use xlink:href="#m44777916b0" x="130.43193" y="286.085719" style="fill: #1f77b4; stroke: #1f77b4"/>
     <use xlink:href="#m44777916b0" x="132.06336" y="285.635813" style="fill: #1f77b4; stroke: #1f77b4"/>
     <use xlink:href="#m44777916b0" x="133.69479" y="285.17209" style="fill: #1f77b4; stroke: #1f77b4"/>
     <use xlink:href="#m44777916b0" x="135.32622" y="284.706452" style="fill: #1f77b4; stroke: #1f77b4"/>
     <use xlink:href="#m44777916b0" x="136.957649" y="284.226068" style="fill: #1f77b4; stroke: #1f77b4"/>
     <use xlink:href="#m44777916b0" x="138.589079" y="283.743215" style="fill: #1f77b4; stroke: #1f77b4"/>
     <use xlink:href="#m44777916b0" x="140.220509" y="283.223987" style="fill: #1f77b4; stroke: #1f77b4"/>
     <use xlink:href="#m44777916b0" x="141.851939" y="282.727344" style="fill: #1f77b4; stroke: #1f77b4"/>
     <use xlink:href="#m44777916b0" x="143.483369" y="282.198826" style="fill: #1f77b4; stroke: #1f77b4"/>
     <use xlink:href="#m44777916b0" x="145.114799" y="281.692" style="fill: #1f77b4; stroke: #1f77b4"/>
     <use xlink:href="#m44777916b0" x="146.746229" y="281.104478" style="fill: #1f77b4; stroke: #1f77b4"/>
     <use xlink:href="#m44777916b0" x="148.377659" y="280.552374" style="fill: #1f77b4; stroke: #1f77b4"/>
     <use xlink:href="#m44777916b0" x="150.009088" y="280.021774" style="fill: #1f77b4; stroke: #1f77b4"/>
     <use xlink:href="#m44777916b0" x="151.640518" y="279.440183" style="fill: #1f77b4; stroke: #1f77b4"/>
     <use xlink:href="#m44777916b0" x="153.271948" y="278.871573" style="fill: #1f77b4; stroke: #1f77b4"/>
     <use xlink:href="#m44777916b0" x="154.903378" y="278.318625" style="fill: #1f77b4; stroke: #1f77b4"/>
     <use xlink:href="#m44777916b0" x="156.534808" y="277.682359" style="fill: #1f77b4; stroke: #1f77b4"/>
     <use xlink:href="#m44777916b0" x="158.166238" y="277.082195" style="fill: #1f77b4; stroke: #1f77b4"/>
     <use xlink:href="#m44777916b0" x="159.797668" y="276.408307" style="fill: #1f77b4; stroke: #1f77b4"/>
     <use xlink:href="#m44777916b0" x="161.429098" y="275.758391" style="fill: #1f77b4; stroke: #1f77b4"/>
     <use xlink:href="#m44777916b0" x="163.060527" y="275.126335" style="fill: #1f77b4; stroke: #1f77b4"/>
     <use xlink:href="#m44777916b0" x="164.691957" y="274.446278" style="fill: #1f77b4; stroke: #1f77b4"/>
     <use xlink:href="#m44777916b0" x="166.323387" y="273.79545" style="fill: #1f77b4; stroke: #1f77b4"/>
     <use xlink:href="#m44777916b0" x="167.954817" y="273.137196" style="fill: #1f77b4; stroke: #1f77b4"/>
     <use xlink:href="#m44777916b0" x="169.586247" y="272.386759" style="fill: #1f77b4; stroke: #1f77b4"/>
     <use xlink:href="#m44777916b0" x="171.217677" y="271.691534" style="fill: #1f77b4; stroke: #1f77b4"/>
     <use xlink:href="#m44777916b0" x="172.849107" y="270.97538" style="fill: #1f77b4; stroke: #1f77b4"/>
     <use xlink:href="#m44777916b0" x="174.480537" y="270.18528" style="fill: #1f77b4; stroke: #1f77b4"/>
     <use xlink:href="#m44777916b0" x="176.111967" y="269.417058" style="fill: #1f77b4; stroke: #1f77b4"/>
     <use xlink:href="#m44777916b0" x="177.743396" y="268.604632" style="fill: #1f77b4; stroke: #1f77b4"/>
     <use xlink:href="#m44777916b0" x="179.374826" y="267.808887" style="fill: #1f77b4; stroke: #1f77b4"/>
     <use xlink:href="#m44777916b0" x="181.006256" y="266.962069" style="fill: #1f77b4; stroke: #1f77b4"/>
     <use xlink:href="#m44777916b0" x="182.637686" y="266.11076" style="fill: #1f77b4; stroke: #1f77b4"/>
     <use xlink:href="#m44777916b0" x="184.269116" y="265.16741" style="fill: #1f77b4; stroke: #1f77b4"/>
     <use xlink:href="#m44777916b0" x="185.900546" y="264.266941" style="fill: #1f77b4; stroke: #1f77b4"/>
     <use xlink:href="#m44777916b0" x="187.531976" y="263.303122" style="fill: #1f77b4; stroke: #1f77b4"/>
     <use xlink:href="#m44777916b0" x="189.163406" y="262.321063" style="fill: #1f77b4; stroke: #1f77b4"/>
     <use xlink:href="#m44777916b0" x="190.794835" y="261.22118" style="fill: #1f77b4; stroke: #1f77b4"/>
     <use xlink:href="#m44777916b0" x="192.426265" y="260.135282" style="fill: #1f77b4; stroke: #1f77b4"/>
     <use xlink:href="#m44777916b0" x="194.057695" y="259.007523" style="fill: #1f77b4; stroke: #1f77b4"/>
     <use xlink:href="#m44777916b0" x="195.689125" y="257.842572" style="fill: #1f77b4; stroke: #1f77b4"/>
     <use xlink:href="#m44777916b0" x="197.320555" y="256.545588" style="fill: #1f77b4; stroke: #1f77b4"/>
     <use xlink:href="#m44777916b0" x="198.951985" y="255.190945" style="fill: #1f77b4; stroke: #1f77b4"/>
     <use xlink:href="#m44777916b0" x="200.583415" y="253.728103" style="fill: #1f77b4; stroke: #1f77b4"/>
     <use xlink:href="#m44777916b0" x="202.214845" y="252.14421" style="fill: #1f77b4; stroke: #1f77b4"/>
     <use xlink:href="#m44777916b0" x="203.846274" y="250.468372" style="fill: #1f77b4; stroke: #1f77b4"/>
     <use xlink:href="#m44777916b0" x="205.477704" y="248.554679" style="fill: #1f77b4; stroke: #1f77b4"/>
     <use xlink:href="#m44777916b0" x="207.109134" y="246.540281" style="fill: #1f77b4; stroke: #1f77b4"/>
     <use xlink:href="#m44777916b0" x="208.740564" y="244.225881" style="fill: #1f77b4; stroke: #1f77b4"/>
     <use xlink:href="#m44777916b0" x="210.371994" y="241.620804" style="fill: #1f77b4; stroke: #1f77b4"/>
     <use xlink:href="#m44777916b0" x="212.003424" y="238.654397" style="fill: #1f77b4; stroke: #1f77b4"/>
     <use xlink:href="#m44777916b0" x="213.634854" y="235.266113" style="fill: #1f77b4; stroke: #1f77b4"/>
     <use xlink:href="#m44777916b0" x="215.266284" y="231.367679" style="fill: #1f77b4; stroke: #1f77b4"/>
     <use xlink:href="#m44777916b0" x="216.897713" y="226.817022" style="fill: #1f77b4; stroke: #1f77b4"/>
     <use xlink:href="#m44777916b0" x="218.529143" y="221.452981" style="fill: #1f77b4; stroke: #1f77b4"/>
     <use xlink:href="#m44777916b0" x="220.160573" y="215.637257" style="fill: #1f77b4; stroke: #1f77b4"/>
     <use xlink:href="#m44777916b0" x="221.792003" y="210.515803" style="fill: #1f77b4; stroke: #1f77b4"/>
     <use xlink:href="#m44777916b0" x="223.423433" y="207.419546" style="fill: #1f77b4; stroke: #1f77b4"/>
     <use xlink:href="#m44777916b0" x="225.054863" y="207.932872" style="fill: #1f77b4; stroke: #1f77b4"/>
     <use xlink:href="#m44777916b0" x="226.686293" y="212.633726" style="fill: #1f77b4; stroke: #1f77b4"/>
     <use xlink:href="#m44777916b0" x="228.317723" y="221.054764" style="fill: #1f77b4; stroke: #1f77b4"/>
     <use xlink:href="#m44777916b0" x="229.949152" y="231.523021" style="fill: #1f77b4; stroke: #1f77b4"/>
     <use xlink:href="#m44777916b0" x="231.580582" y="241.477181" style="fill: #1f77b4; stroke: #1f77b4"/>
     <use xlink:href="#m44777916b0" x="233.212012" y="249.717586" style="fill: #1f77b4; stroke: #1f77b4"/>
     <use xlink:href="#m44777916b0" x="234.843442" y="255.297501" style="fill: #1f77b4; stroke: #1f77b4"/>
     <use xlink:href="#m44777916b0" x="236.474872" y="258.251389" style="fill: #1f77b4; stroke: #1f77b4"/>
     <use xlink:href="#m44777916b0" x="238.106302" y="259.526191" style="fill: #1f77b4; stroke: #1f77b4"/>
     <use xlink:href="#m44777916b0" x="239.737732" y="259.740329" style="fill: #1f77b4; stroke: #1f77b4"/>
     <use xlink:href="#m44777916b0" x="241.369162" y="259.472731" style="fill: #1f77b4; stroke: #1f77b4"/>
     <use xlink:href="#m44777916b0" x="243.000591" y="258.946039" style="fill: #1f77b4; stroke: #1f77b4"/>
     <use xlink:href="#m44777916b0" x="244.632021" y="258.206571" style="fill: #1f77b4; stroke: #1f77b4"/>
     <use xlink:href="#m44777916b0" x="246.263451" y="257.256318" style="fill: #1f77b4; stroke: #1f77b4"/>
     <use xlink:href="#m44777916b0" x="247.894881" y="256.255521" style="fill: #1f77b4; stroke: #1f77b4"/>
     <use xlink:href="#m44777916b0" x="249.526311" y="255.210091" style="fill: #1f77b4; stroke: #1f77b4"/>
     <use xlink:href="#m44777916b0" x="251.157741" y="254.161429" style="fill: #1f77b4; stroke: #1f77b4"/>
     <use xlink:href="#m44777916b0" x="252.789171" y="253.151847" style="fill: #1f77b4; stroke: #1f77b4"/>
     <use xlink:href="#m44777916b0" x="254.420601" y="252.145546" style="fill: #1f77b4; stroke: #1f77b4"/>
     <use xlink:href="#m44777916b0" x="256.05203" y="251.087857" style="fill: #1f77b4; stroke: #1f77b4"/>
     <use xlink:href="#m44777916b0" x="257.68346" y="250.075504" style="fill: #1f77b4; stroke: #1f77b4"/>
     <use xlink:href="#m44777916b0" x="259.31489" y="249.064592" style="fill: #1f77b4; stroke: #1f77b4"/>
     <use xlink:href="#m44777916b0" x="260.94632" y="248.050765" style="fill: #1f77b4; stroke: #1f77b4"/>
     <use xlink:href="#m44777916b0" x="262.57775" y="247.080465" style="fill: #1f77b4; stroke: #1f77b4"/>
     <use xlink:href="#m44777916b0" x="264.20918" y="246.112436" style="fill: #1f77b4; stroke: #1f77b4"/>
     <use xlink:href="#m44777916b0" x="265.84061" y="245.149821" style="fill: #1f77b4; stroke: #1f77b4"/>
     <use xlink:href="#m44777916b0" x="267.47204" y="244.169977" style="fill: #1f77b4; stroke: #1f77b4"/>
     <use xlink:href="#m44777916b0" x="269.103469" y="243.237788" style="fill: #1f77b4; stroke: #1f77b4"/>
     <use xlink:href="#m44777916b0" x="270.734899" y="242.301849" style="fill: #1f77b4; stroke: #1f77b4"/>
     <use xlink:href="#m44777916b0" x="272.366329" y="241.374738" style="fill: #1f77b4; stroke: #1f77b4"/>
     <use xlink:href="#m44777916b0" x="273.997759" y="240.435656" style="fill: #1f77b4; stroke: #1f77b4"/>
     <use xlink:href="#m44777916b0" x="275.629189" y="239.551846" style="fill: #1f77b4; stroke: #1f77b4"/>
     <use xlink:href="#m44777916b0" x="277.260619" y="238.615655" style="fill: #1f77b4; stroke: #1f77b4"/>
     <use xlink:href="#m44777916b0" x="278.892049" y="237.756921" style="fill: #1f77b4; stroke: #1f77b4"/>
     <use xlink:href="#m44777916b0" x="280.523479" y="236.823138" style="fill: #1f77b4; stroke: #1f77b4"/>
     <use xlink:href="#m44777916b0" x="282.154908" y="235.957696" style="fill: #1f77b4; stroke: #1f77b4"/>
     <use xlink:href="#m44777916b0" x="283.786338" y="235.090735" style="fill: #1f77b4; stroke: #1f77b4"/>
     <use xlink:href="#m44777916b0" x="285.417768" y="234.227023" style="fill: #1f77b4; stroke: #1f77b4"/>
     <use xlink:href="#m44777916b0" x="287.049198" y="233.415546" style="fill: #1f77b4; stroke: #1f77b4"/>
     <use xlink:href="#m44777916b0" x="288.680628" y="232.528142" style="fill: #1f77b4; stroke: #1f77b4"/>
     <use xlink:href="#m44777916b0" x="290.312058" y="231.73836" style="fill: #1f77b4; stroke: #1f77b4"/>
     <use xlink:href="#m44777916b0" x="291.943488" y="230.883304" style="fill: #1f77b4; stroke: #1f77b4"/>
     <use xlink:href="#m44777916b0" x="293.574918" y="230.036786" style="fill: #1f77b4; stroke: #1f77b4"/>
     <use xlink:href="#m44777916b0" x="295.206348" y="229.224558" style="fill: #1f77b4; stroke: #1f77b4"/>
     <use xlink:href="#m44777916b0" x="296.837777" y="228.394052" style="fill: #1f77b4; stroke: #1f77b4"/>
     <use xlink:href="#m44777916b0" x="298.469207" y="227.574355" style="fill: #1f77b4; stroke: #1f77b4"/>
     <use xlink:href="#m44777916b0" x="300.100637" y="226.769047" style="fill: #1f77b4; stroke: #1f77b4"/>
     <use xlink:href="#m44777916b0" x="301.732067" y="225.941684" style="fill: #1f77b4; stroke: #1f77b4"/>
     <use xlink:href="#m44777916b0" x="303.363497" y="225.174029" style="fill: #1f77b4; stroke: #1f77b4"/>
     <use xlink:href="#m44777916b0" x="304.994927" y="224.337783" style="fill: #1f77b4; stroke: #1f77b4"/>
     <use xlink:href="#m44777916b0" x="306.626357" y="223.564685" style="fill: #1f77b4; stroke: #1f77b4"/>
     <use xlink:href="#m44777916b0" x="308.257787" y="222.799271" style="fill: #1f77b4; stroke: #1f77b4"/>
     <use xlink:href="#m44777916b0" x="309.889216" y="222.003792" style="fill: #1f77b4; stroke: #1f77b4"/>
     <use xlink:href="#m44777916b0" x="311.520646" y="221.244141" style="fill: #1f77b4; stroke: #1f77b4"/>
     <use xlink:href="#m44777916b0" x="313.152076" y="220.491439" style="fill: #1f77b4; stroke: #1f77b4"/>
     <use xlink:href="#m44777916b0" x="314.783506" y="219.756779" style="fill: #1f77b4; stroke: #1f77b4"/>
     <use xlink:href="#m44777916b0" x="316.414936" y="218.993663" style="fill: #1f77b4; stroke: #1f77b4"/>
     <use xlink:href="#m44777916b0" x="318.046366" y="218.279028" style="fill: #1f77b4; stroke: #1f77b4"/>
     <use xlink:href="#m44777916b0" x="319.677796" y="217.533096" style="fill: #1f77b4; stroke: #1f77b4"/>
     <use xlink:href="#m44777916b0" x="321.309226" y="216.820989" style="fill: #1f77b4; stroke: #1f77b4"/>
     <use xlink:href="#m44777916b0" x="322.940655" y="216.08738" style="fill: #1f77b4; stroke: #1f77b4"/>
     <use xlink:href="#m44777916b0" x="324.572085" y="215.362704" style="fill: #1f77b4; stroke: #1f77b4"/>
     <use xlink:href="#m44777916b0" x="326.203515" y="214.670359" style="fill: #1f77b4; stroke: #1f77b4"/>
     <use xlink:href="#m44777916b0" x="327.834945" y="213.949621" style="fill: #1f77b4; stroke: #1f77b4"/>
     <use xlink:href="#m44777916b0" x="329.466375" y="213.241946" style="fill: #1f77b4; stroke: #1f77b4"/>
     <use xlink:href="#m44777916b0" x="331.097805" y="212.544186" style="fill: #1f77b4; stroke: #1f77b4"/>
     <use xlink:href="#m44777916b0" x="332.729235" y="211.907038" style="fill: #1f77b4; stroke: #1f77b4"/>
     <use xlink:href="#m44777916b0" x="334.360665" y="211.217257" style="fill: #1f77b4; stroke: #1f77b4"/>
     <use xlink:href="#m44777916b0" x="335.992094" y="210.508975" style="fill: #1f77b4; stroke: #1f77b4"/>
     <use xlink:href="#m44777916b0" x="337.623524" y="209.859905" style="fill: #1f77b4; stroke: #1f77b4"/>
     <use xlink:href="#m44777916b0" x="339.254954" y="209.185547" style="fill: #1f77b4; stroke: #1f77b4"/>
     <use xlink:href="#m44777916b0" x="340.886384" y="208.583601" style="fill: #1f77b4; stroke: #1f77b4"/>
     <use xlink:href="#m44777916b0" x="342.517814" y="207.891441" style="fill: #1f77b4; stroke: #1f77b4"/>
     <use xlink:href="#m44777916b0" x="344.149244" y="207.331334" style="fill: #1f77b4; stroke: #1f77b4"/>
     <use xlink:href="#m44777916b0" x="345.780674" y="206.68228" style="fill: #1f77b4; stroke: #1f77b4"/>
     <use xlink:href="#m44777916b0" x="347.412104" y="206.042551" style="fill: #1f77b4; stroke: #1f77b4"/>
     <use xlink:href="#m44777916b0" x="349.043533" y="205.475398" style="fill: #1f77b4; stroke: #1f77b4"/>
     <use xlink:href="#m44777916b0" x="350.674963" y="204.872265" style="fill: #1f77b4; stroke: #1f77b4"/>
     <use xlink:href="#m44777916b0" x="352.306393" y="204.24573" style="fill: #1f77b4; stroke: #1f77b4"/>
     <use xlink:href="#m44777916b0" x="353.937823" y="203.655456" style="fill: #1f77b4; stroke: #1f77b4"/>
     <use xlink:href="#m44777916b0" x="355.569253" y="203.111075" style="fill: #1f77b4; stroke: #1f77b4"/>
     <use xlink:href="#m44777916b0" x="357.200683" y="202.472681" style="fill: #1f77b4; stroke: #1f77b4"/>
     <use xlink:href="#m44777916b0" x="358.832113" y="201.912416" style="fill: #1f77b4; stroke: #1f77b4"/>
     <use xlink:href="#m44777916b0" x="360.463543" y="201.37969" style="fill: #1f77b4; stroke: #1f77b4"/>
     <use xlink:href="#m44777916b0" x="362.094972" y="200.81126" style="fill: #1f77b4; stroke: #1f77b4"/>
     <use xlink:href="#m44777916b0" x="363.726402" y="200.263739" style="fill: #1f77b4; stroke: #1f77b4"/>
     <use xlink:href="#m44777916b0" x="365.357832" y="199.715088" style="fill: #1f77b4; stroke: #1f77b4"/>
     <use xlink:href="#m44777916b0" x="366.989262" y="199.21265" style="fill: #1f77b4; stroke: #1f77b4"/>
     <use xlink:href="#m44777916b0" x="368.620692" y="198.69707" style="fill: #1f77b4; stroke: #1f77b4"/>
     <use xlink:href="#m44777916b0" x="370.252122" y="198.182442" style="fill: #1f77b4; stroke: #1f77b4"/>
     <use xlink:href="#m44777916b0" x="371.883552" y="197.668149" style="fill: #1f77b4; stroke: #1f77b4"/>
     <use xlink:href="#m44777916b0" x="373.514982" y="197.197251" style="fill: #1f77b4; stroke: #1f77b4"/>
     <use xlink:href="#m44777916b0" x="375.146411" y="196.658403" style="fill: #1f77b4; stroke: #1f77b4"/>
     <use xlink:href="#m44777916b0" x="376.777841" y="196.233522" style="fill: #1f77b4; stroke: #1f77b4"/>
     <use xlink:href="#m44777916b0" x="378.409271" y="195.77851" style="fill: #1f77b4; stroke: #1f77b4"/>
     <use xlink:href="#m44777916b0" x="380.040701" y="195.288095" style="fill: #1f77b4; stroke: #1f77b4"/>
     <use xlink:href="#m44777916b0" x="381.672131" y="194.843804" style="fill: #1f77b4; stroke: #1f77b4"/>
     <use xlink:href="#m44777916b0" x="383.303561" y="194.406978" style="fill: #1f77b4; stroke: #1f77b4"/>
     <use xlink:href="#m44777916b0" x="384.934991" y="194.008699" style="fill: #1f77b4; stroke: #1f77b4"/>
     <use xlink:href="#m44777916b0" x="386.566421" y="193.607844" style="fill: #1f77b4; stroke: #1f77b4"/>
     <use xlink:href="#m44777916b0" x="388.19785" y="193.166246" style="fill: #1f77b4; stroke: #1f77b4"/>
     <use xlink:href="#m44777916b0" x="389.82928" y="192.76325" style="fill: #1f77b4; stroke: #1f77b4"/>
     <use xlink:href="#m44777916b0" x="391.46071" y="192.410182" style="fill: #1f77b4; stroke: #1f77b4"/>
    </g>
   </g>
   <g id="line2d_33">
    <path d="M 66.806165 302.373818 
L 75.255632 301.119848 
L 83.7051 299.645216 
L 92.154568 297.951902 
L 100.929015 295.964096 
L 109.703462 293.744409 
L 118.477909 291.293816 
L 127.252356 288.611677 
L 136.026804 285.694541 
L 144.476271 282.655762 
L 152.925739 279.377244 
L 160.725247 276.11594 
L 167.874797 272.89757 
L 174.374388 269.7424 
L 180.224019 266.667661 
L 185.423691 263.691245 
L 189.973405 260.836995 
L 193.873159 258.141461 
L 197.447934 255.398658 
L 200.37275 252.896421 
L 202.972586 250.4147 
L 205.572422 247.615164 
L 207.847279 244.825113 
L 209.797156 242.107002 
L 211.747033 239.005835 
L 213.69691 235.424246 
L 215.321808 231.991624 
L 216.946705 228.085501 
L 218.896582 222.740653 
L 223.121316 210.562677 
L 223.771275 209.308073 
L 224.421234 208.525363 
L 224.746214 208.358089 
L 225.071193 208.36546 
L 225.396173 208.565244 
L 225.721152 208.973191 
L 226.371112 210.460481 
L 227.021071 212.875371 
L 227.67103 216.176285 
L 228.645968 222.458654 
L 231.895763 245.027952 
L 232.870702 249.904501 
L 233.845641 253.605395 
L 234.820579 256.270076 
L 235.795518 258.088905 
L 236.445477 258.924823 
L 237.095436 259.517578 
L 238.070374 260.042343 
L 239.045313 260.231961 
L 240.020252 260.175831 
L 241.32017 259.831574 
L 242.945067 259.118372 
L 245.219924 257.825266 
L 249.119678 255.293681 
L 258.219105 249.35049 
L 264.718695 245.409911 
L 271.868245 241.352577 
L 279.667754 237.186136 
L 288.442201 232.749949 
L 298.191587 228.071161 
L 308.590931 223.328349 
L 319.315256 218.682686 
L 330.03958 214.279039 
L 340.763904 210.119935 
L 351.163249 206.327963 
L 361.237614 202.890373 
L 370.987 199.794447 
L 380.736386 196.935257 
L 390.160792 194.405377 
L 391.46071 194.074957 
L 391.46071 194.074957 
" clip-path="url(#p1cf54fc41d)" style="fill: none; stroke: #d62728; stroke-width: 1.5; stroke-linecap: square"/>
   </g>
   <g id="patch_9">
    <path d="M 50.573438 307.872 
L 50.573438 186.912 
" style="fill: none; stroke: #000000; stroke-width: 0.8; stroke-linejoin: miter; stroke-linecap: square"/>
   </g>
   <g id="patch_10">
    <path d="M 407.693438 307.872 
L 407.693438 186.912 
" style="fill: none; stroke: #000000; stroke-width: 0.8; stroke-linejoin: miter; stroke-linecap: square"/>
   </g>
   <g id="patch_11">
    <path d="M 50.573437 307.872 
L 407.693437 307.872 
" style="fill: none; stroke: #000000; stroke-width: 0.8; stroke-linejoin: miter; stroke-linecap: square"/>
   </g>
   <g id="patch_12">
    <path d="M 50.573437 186.912 
L 407.693437 186.912 
" style="fill: none; stroke: #000000; stroke-width: 0.8; stroke-linejoin: miter; stroke-linecap: square"/>
   </g>
  </g>
  <g id="text_26">
   <!-- S21 One-tone -->
   <g transform="translate(182.1225 16.318125) scale(0.12 -0.12)">
    <defs>
     <path id="DejaVuSans-4f" d="M 2522 4238 
Q 1834 4238 1429 3725 
Q 1025 3213 1025 2328 
Q 1025 1447 1429 934 
Q 1834 422 2522 422 
Q 3209 422 3611 934 
Q 4013 1447 4013 2328 
Q 4013 3213 3611 3725 
Q 3209 4238 2522 4238 
z
M 2522 4750 
Q 3503 4750 4090 4092 
Q 4678 3434 4678 2328 
Q 4678 1225 4090 567 
Q 3503 -91 2522 -91 
Q 1538 -91 948 565 
Q 359 1222 359 2328 
Q 359 3434 948 4092 
Q 1538 4750 2522 4750 
z
" transform="scale(0.015625)"/>
     <path id="DejaVuSans-74" d="M 1172 4494 
L 1172 3500 
L 2356 3500 
L 2356 3053 
L 1172 3053 
L 1172 1153 
Q 1172 725 1289 603 
Q 1406 481 1766 481 
L 2356 481 
L 2356 0 
L 1766 0 
Q 1100 0 847 248 
Q 594 497 594 1153 
L 594 3053 
L 172 3053 
L 172 3500 
L 594 3500 
L 594 4494 
L 1172 4494 
z
" transform="scale(0.015625)"/>
     <path id="DejaVuSans-6f" d="M 1959 3097 
Q 1497 3097 1228 2736 
Q 959 2375 959 1747 
Q 959 1119 1226 758 
Q 1494 397 1959 397 
Q 2419 397 2687 759 
Q 2956 1122 2956 1747 
Q 2956 2369 2687 2733 
Q 2419 3097 1959 3097 
z
M 1959 3584 
Q 2709 3584 3137 3096 
Q 3566 2609 3566 1747 
Q 3566 888 3137 398 
Q 2709 -91 1959 -91 
Q 1206 -91 779 398 
Q 353 888 353 1747 
Q 353 2609 779 3096 
Q 1206 3584 1959 3584 
z
" transform="scale(0.015625)"/>
    </defs>
    <use xlink:href="#DejaVuSans-53"/>
    <use xlink:href="#DejaVuSans-32" x="63.476562"/>
    <use xlink:href="#DejaVuSans-31" x="127.099609"/>
    <use xlink:href="#DejaVuSans-20" x="190.722656"/>
    <use xlink:href="#DejaVuSans-4f" x="222.509766"/>
    <use xlink:href="#DejaVuSans-6e" x="301.220703"/>
    <use xlink:href="#DejaVuSans-65" x="364.599609"/>
    <use xlink:href="#DejaVuSans-2d" x="426.123047"/>
    <use xlink:href="#DejaVuSans-74" x="462.207031"/>
    <use xlink:href="#DejaVuSans-6f" x="501.416016"/>
    <use xlink:href="#DejaVuSans-6e" x="562.597656"/>
    <use xlink:href="#DejaVuSans-65" x="625.976562"/>
   </g>
   <!-- tuid: 20240318-131813-575-13f3c1 -->
   <g transform="translate(115.741875 29.7555) scale(0.12 -0.12)">
    <defs>
     <path id="DejaVuSans-69" d="M 603 3500 
L 1178 3500 
L 1178 0 
L 603 0 
L 603 3500 
z
M 603 4863 
L 1178 4863 
L 1178 4134 
L 603 4134 
L 603 4863 
z
" transform="scale(0.015625)"/>
     <path id="DejaVuSans-64" d="M 2906 2969 
L 2906 4863 
L 3481 4863 
L 3481 0 
L 2906 0 
L 2906 525 
Q 2725 213 2448 61 
Q 2172 -91 1784 -91 
Q 1150 -91 751 415 
Q 353 922 353 1747 
Q 353 2572 751 3078 
Q 1150 3584 1784 3584 
Q 2172 3584 2448 3432 
Q 2725 3281 2906 2969 
z
M 947 1747 
Q 947 1113 1208 752 
Q 1469 391 1925 391 
Q 2381 391 2643 752 
Q 2906 1113 2906 1747 
Q 2906 2381 2643 2742 
Q 2381 3103 1925 3103 
Q 1469 3103 1208 2742 
Q 947 2381 947 1747 
z
" transform="scale(0.015625)"/>
     <path id="DejaVuSans-66" d="M 2375 4863 
L 2375 4384 
L 1825 4384 
Q 1516 4384 1395 4259 
Q 1275 4134 1275 3809 
L 1275 3500 
L 2222 3500 
L 2222 3053 
L 1275 3053 
L 1275 0 
L 697 0 
L 697 3053 
L 147 3053 
L 147 3500 
L 697 3500 
L 697 3744 
Q 697 4328 969 4595 
Q 1241 4863 1831 4863 
L 2375 4863 
z
" transform="scale(0.015625)"/>
    </defs>
    <use xlink:href="#DejaVuSans-74"/>
    <use xlink:href="#DejaVuSans-75" x="39.208984"/>
    <use xlink:href="#DejaVuSans-69" x="102.587891"/>
    <use xlink:href="#DejaVuSans-64" x="130.371094"/>
    <use xlink:href="#DejaVuSans-3a" x="193.847656"/>
    <use xlink:href="#DejaVuSans-20" x="227.539062"/>
    <use xlink:href="#DejaVuSans-32" x="259.326172"/>
    <use xlink:href="#DejaVuSans-30" x="322.949219"/>
    <use xlink:href="#DejaVuSans-32" x="386.572266"/>
    <use xlink:href="#DejaVuSans-34" x="450.195312"/>
    <use xlink:href="#DejaVuSans-30" x="513.818359"/>
    <use xlink:href="#DejaVuSans-33" x="577.441406"/>
    <use xlink:href="#DejaVuSans-31" x="641.064453"/>
    <use xlink:href="#DejaVuSans-38" x="704.6875"/>
    <use xlink:href="#DejaVuSans-2d" x="768.310547"/>
    <use xlink:href="#DejaVuSans-31" x="804.394531"/>
    <use xlink:href="#DejaVuSans-33" x="868.017578"/>
    <use xlink:href="#DejaVuSans-31" x="931.640625"/>
    <use xlink:href="#DejaVuSans-38" x="995.263672"/>
    <use xlink:href="#DejaVuSans-31" x="1058.886719"/>
    <use xlink:href="#DejaVuSans-33" x="1122.509766"/>
    <use xlink:href="#DejaVuSans-2d" x="1186.132812"/>
    <use xlink:href="#DejaVuSans-35" x="1222.216797"/>
    <use xlink:href="#DejaVuSans-37" x="1285.839844"/>
    <use xlink:href="#DejaVuSans-35" x="1349.462891"/>
    <use xlink:href="#DejaVuSans-2d" x="1413.085938"/>
    <use xlink:href="#DejaVuSans-31" x="1449.169922"/>
    <use xlink:href="#DejaVuSans-33" x="1512.792969"/>
    <use xlink:href="#DejaVuSans-66" x="1576.416016"/>
    <use xlink:href="#DejaVuSans-33" x="1611.621094"/>
    <use xlink:href="#DejaVuSans-63" x="1675.244141"/>
    <use xlink:href="#DejaVuSans-31" x="1730.224609"/>
   </g>
  </g>
 </g>
 <defs>
  <clipPath id="p35f7307c01">
   <rect x="50.573438" y="41.76" width="357.12" height="120.96"/>
  </clipPath>
  <clipPath id="p1cf54fc41d">
   <rect x="50.573438" y="186.912" width="357.12" height="120.96"/>
  </clipPath>
 </defs>
</svg>
