<?xml version="1.0" encoding="utf-8" standalone="no"?>
<!DOCTYPE svg PUBLIC "-//W3C//DTD SVG 1.1//EN"
  "http://www.w3.org/Graphics/SVG/1.1/DTD/svg11.dtd">
<svg xmlns:xlink="http://www.w3.org/1999/xlink" width="577.749437pt" height="345.42825pt" viewBox="0 0 577.749437 345.42825" xmlns="http://www.w3.org/2000/svg" version="1.1">
 <metadata>
  <rdf:RDF xmlns:dc="http://purl.org/dc/elements/1.1/" xmlns:cc="http://creativecommons.org/ns#" xmlns:rdf="http://www.w3.org/1999/02/22-rdf-syntax-ns#">
   <cc:Work>
    <dc:type rdf:resource="http://purl.org/dc/dcmitype/StillImage"/>
    <dc:date>2024-03-18T13:18:39.031183</dc:date>
    <dc:format>image/svg+xml</dc:format>
    <dc:creator>
     <cc:Agent>
      <dc:title>Matplotlib v3.8.3, https://matplotlib.org/</dc:title>
     </cc:Agent>
    </dc:creator>
   </cc:Work>
  </rdf:RDF>
 </metadata>
 <defs>
  <style type="text/css">*{stroke-linejoin: round; stroke-linecap: butt}</style>
 </defs>
 <g id="figure_1">
  <g id="patch_1">
   <path d="M 0 345.42825 
L 577.749437 345.42825 
L 577.749437 -0 
L 0 -0 
L 0 345.42825 
z
" style="fill: none; opacity: 0"/>
  </g>
  <g id="axes_1">
   <g id="patch_2">
    <path d="M 50.573438 307.872 
L 407.693438 307.872 
L 407.693438 41.76 
L 50.573438 41.76 
z
" style="fill: #ffffff"/>
   </g>
   <g id="matplotlib.axis_1">
    <g id="xtick_1">
     <g id="line2d_1">
      <defs>
       <path id="m8efe5bddac" d="M 0 0 
L 0 3.5 
" style="stroke: #000000; stroke-width: 0.8"/>
      </defs>
      <g>
       <use xlink:href="#m8efe5bddac" x="70.89592" y="307.872" style="stroke: #000000; stroke-width: 0.8"/>
      </g>
     </g>
     <g id="text_1">
      <!-- -300 -->
      <g transform="translate(59.548264 322.470438) scale(0.1 -0.1)">
       <defs>
        <path id="DejaVuSans-2d" d="M 313 2009 
L 1997 2009 
L 1997 1497 
L 313 1497 
L 313 2009 
z
" transform="scale(0.015625)"/>
        <path id="DejaVuSans-33" d="M 2597 2516 
Q 3050 2419 3304 2112 
Q 3559 1806 3559 1356 
Q 3559 666 3084 287 
Q 2609 -91 1734 -91 
Q 1441 -91 1130 -33 
Q 819 25 488 141 
L 488 750 
Q 750 597 1062 519 
Q 1375 441 1716 441 
Q 2309 441 2620 675 
Q 2931 909 2931 1356 
Q 2931 1769 2642 2001 
Q 2353 2234 1838 2234 
L 1294 2234 
L 1294 2753 
L 1863 2753 
Q 2328 2753 2575 2939 
Q 2822 3125 2822 3475 
Q 2822 3834 2567 4026 
Q 2313 4219 1838 4219 
Q 1578 4219 1281 4162 
Q 984 4106 628 3988 
L 628 4550 
Q 988 4650 1302 4700 
Q 1616 4750 1894 4750 
Q 2613 4750 3031 4423 
Q 3450 4097 3450 3541 
Q 3450 3153 3228 2886 
Q 3006 2619 2597 2516 
z
" transform="scale(0.015625)"/>
        <path id="DejaVuSans-30" d="M 2034 4250 
Q 1547 4250 1301 3770 
Q 1056 3291 1056 2328 
Q 1056 1369 1301 889 
Q 1547 409 2034 409 
Q 2525 409 2770 889 
Q 3016 1369 3016 2328 
Q 3016 3291 2770 3770 
Q 2525 4250 2034 4250 
z
M 2034 4750 
Q 2819 4750 3233 4129 
Q 3647 3509 3647 2328 
Q 3647 1150 3233 529 
Q 2819 -91 2034 -91 
Q 1250 -91 836 529 
Q 422 1150 422 2328 
Q 422 3509 836 4129 
Q 1250 4750 2034 4750 
z
" transform="scale(0.015625)"/>
       </defs>
       <use xlink:href="#DejaVuSans-2d"/>
       <use xlink:href="#DejaVuSans-33" x="36.083984"/>
       <use xlink:href="#DejaVuSans-30" x="99.707031"/>
       <use xlink:href="#DejaVuSans-30" x="163.330078"/>
      </g>
     </g>
    </g>
    <g id="xtick_2">
     <g id="line2d_2">
      <g>
       <use xlink:href="#m8efe5bddac" x="133.580403" y="307.872" style="stroke: #000000; stroke-width: 0.8"/>
      </g>
     </g>
     <g id="text_2">
      <!-- -250 -->
      <g transform="translate(122.232747 322.470438) scale(0.1 -0.1)">
       <defs>
        <path id="DejaVuSans-32" d="M 1228 531 
L 3431 531 
L 3431 0 
L 469 0 
L 469 531 
Q 828 903 1448 1529 
Q 2069 2156 2228 2338 
Q 2531 2678 2651 2914 
Q 2772 3150 2772 3378 
Q 2772 3750 2511 3984 
Q 2250 4219 1831 4219 
Q 1534 4219 1204 4116 
Q 875 4013 500 3803 
L 500 4441 
Q 881 4594 1212 4672 
Q 1544 4750 1819 4750 
Q 2544 4750 2975 4387 
Q 3406 4025 3406 3419 
Q 3406 3131 3298 2873 
Q 3191 2616 2906 2266 
Q 2828 2175 2409 1742 
Q 1991 1309 1228 531 
z
" transform="scale(0.015625)"/>
        <path id="DejaVuSans-35" d="M 691 4666 
L 3169 4666 
L 3169 4134 
L 1269 4134 
L 1269 2991 
Q 1406 3038 1543 3061 
Q 1681 3084 1819 3084 
Q 2600 3084 3056 2656 
Q 3513 2228 3513 1497 
Q 3513 744 3044 326 
Q 2575 -91 1722 -91 
Q 1428 -91 1123 -41 
Q 819 9 494 109 
L 494 744 
Q 775 591 1075 516 
Q 1375 441 1709 441 
Q 2250 441 2565 725 
Q 2881 1009 2881 1497 
Q 2881 1984 2565 2268 
Q 2250 2553 1709 2553 
Q 1456 2553 1204 2497 
Q 953 2441 691 2322 
L 691 4666 
z
" transform="scale(0.015625)"/>
       </defs>
       <use xlink:href="#DejaVuSans-2d"/>
       <use xlink:href="#DejaVuSans-32" x="36.083984"/>
       <use xlink:href="#DejaVuSans-35" x="99.707031"/>
       <use xlink:href="#DejaVuSans-30" x="163.330078"/>
      </g>
     </g>
    </g>
    <g id="xtick_3">
     <g id="line2d_3">
      <g>
       <use xlink:href="#m8efe5bddac" x="196.264885" y="307.872" style="stroke: #000000; stroke-width: 0.8"/>
      </g>
     </g>
     <g id="text_3">
      <!-- -200 -->
      <g transform="translate(184.917229 322.470438) scale(0.1 -0.1)">
       <use xlink:href="#DejaVuSans-2d"/>
       <use xlink:href="#DejaVuSans-32" x="36.083984"/>
       <use xlink:href="#DejaVuSans-30" x="99.707031"/>
       <use xlink:href="#DejaVuSans-30" x="163.330078"/>
      </g>
     </g>
    </g>
    <g id="xtick_4">
     <g id="line2d_4">
      <g>
       <use xlink:href="#m8efe5bddac" x="258.949368" y="307.872" style="stroke: #000000; stroke-width: 0.8"/>
      </g>
     </g>
     <g id="text_4">
      <!-- -150 -->
      <g transform="translate(247.601711 322.470438) scale(0.1 -0.1)">
       <defs>
        <path id="DejaVuSans-31" d="M 794 531 
L 1825 531 
L 1825 4091 
L 703 3866 
L 703 4441 
L 1819 4666 
L 2450 4666 
L 2450 531 
L 3481 531 
L 3481 0 
L 794 0 
L 794 531 
z
" transform="scale(0.015625)"/>
       </defs>
       <use xlink:href="#DejaVuSans-2d"/>
       <use xlink:href="#DejaVuSans-31" x="36.083984"/>
       <use xlink:href="#DejaVuSans-35" x="99.707031"/>
       <use xlink:href="#DejaVuSans-30" x="163.330078"/>
      </g>
     </g>
    </g>
    <g id="xtick_5">
     <g id="line2d_5">
      <g>
       <use xlink:href="#m8efe5bddac" x="321.63385" y="307.872" style="stroke: #000000; stroke-width: 0.8"/>
      </g>
     </g>
     <g id="text_5">
      <!-- -100 -->
      <g transform="translate(310.286194 322.470438) scale(0.1 -0.1)">
       <use xlink:href="#DejaVuSans-2d"/>
       <use xlink:href="#DejaVuSans-31" x="36.083984"/>
       <use xlink:href="#DejaVuSans-30" x="99.707031"/>
       <use xlink:href="#DejaVuSans-30" x="163.330078"/>
      </g>
     </g>
    </g>
    <g id="xtick_6">
     <g id="line2d_6">
      <g>
       <use xlink:href="#m8efe5bddac" x="384.318333" y="307.872" style="stroke: #000000; stroke-width: 0.8"/>
      </g>
     </g>
     <g id="text_6">
      <!-- -50 -->
      <g transform="translate(376.151926 322.470438) scale(0.1 -0.1)">
       <use xlink:href="#DejaVuSans-2d"/>
       <use xlink:href="#DejaVuSans-35" x="36.083984"/>
       <use xlink:href="#DejaVuSans-30" x="99.707031"/>
      </g>
     </g>
    </g>
    <g id="text_7">
     <!-- Re$(S_{21})$ [mV] -->
     <g transform="translate(197.133438 336.148562) scale(0.1 -0.1)">
      <defs>
       <path id="DejaVuSans-52" d="M 2841 2188 
Q 3044 2119 3236 1894 
Q 3428 1669 3622 1275 
L 4263 0 
L 3584 0 
L 2988 1197 
Q 2756 1666 2539 1819 
Q 2322 1972 1947 1972 
L 1259 1972 
L 1259 0 
L 628 0 
L 628 4666 
L 2053 4666 
Q 2853 4666 3247 4331 
Q 3641 3997 3641 3322 
Q 3641 2881 3436 2590 
Q 3231 2300 2841 2188 
z
M 1259 4147 
L 1259 2491 
L 2053 2491 
Q 2509 2491 2742 2702 
Q 2975 2913 2975 3322 
Q 2975 3731 2742 3939 
Q 2509 4147 2053 4147 
L 1259 4147 
z
" transform="scale(0.015625)"/>
       <path id="DejaVuSans-65" d="M 3597 1894 
L 3597 1613 
L 953 1613 
Q 991 1019 1311 708 
Q 1631 397 2203 397 
Q 2534 397 2845 478 
Q 3156 559 3463 722 
L 3463 178 
Q 3153 47 2828 -22 
Q 2503 -91 2169 -91 
Q 1331 -91 842 396 
Q 353 884 353 1716 
Q 353 2575 817 3079 
Q 1281 3584 2069 3584 
Q 2775 3584 3186 3129 
Q 3597 2675 3597 1894 
z
M 3022 2063 
Q 3016 2534 2758 2815 
Q 2500 3097 2075 3097 
Q 1594 3097 1305 2825 
Q 1016 2553 972 2059 
L 3022 2063 
z
" transform="scale(0.015625)"/>
       <path id="DejaVuSans-28" d="M 1984 4856 
Q 1566 4138 1362 3434 
Q 1159 2731 1159 2009 
Q 1159 1288 1364 580 
Q 1569 -128 1984 -844 
L 1484 -844 
Q 1016 -109 783 600 
Q 550 1309 550 2009 
Q 550 2706 781 3412 
Q 1013 4119 1484 4856 
L 1984 4856 
z
" transform="scale(0.015625)"/>
       <path id="DejaVuSans-Oblique-53" d="M 3859 4513 
L 3738 3897 
Q 3422 4066 3111 4152 
Q 2800 4238 2509 4238 
Q 1944 4238 1609 3991 
Q 1275 3744 1275 3334 
Q 1275 3109 1398 2989 
Q 1522 2869 2034 2731 
L 2413 2638 
Q 3053 2472 3303 2217 
Q 3553 1963 3553 1503 
Q 3553 797 2998 353 
Q 2444 -91 1538 -91 
Q 1166 -91 791 -17 
Q 416 56 38 206 
L 166 856 
Q 513 641 861 531 
Q 1209 422 1556 422 
Q 2147 422 2503 684 
Q 2859 947 2859 1369 
Q 2859 1650 2717 1795 
Q 2575 1941 2106 2059 
L 1728 2156 
Q 1081 2325 845 2545 
Q 609 2766 609 3163 
Q 609 3859 1145 4304 
Q 1681 4750 2541 4750 
Q 2875 4750 3203 4690 
Q 3531 4631 3859 4513 
z
" transform="scale(0.015625)"/>
       <path id="DejaVuSans-29" d="M 513 4856 
L 1013 4856 
Q 1481 4119 1714 3412 
Q 1947 2706 1947 2009 
Q 1947 1309 1714 600 
Q 1481 -109 1013 -844 
L 513 -844 
Q 928 -128 1133 580 
Q 1338 1288 1338 2009 
Q 1338 2731 1133 3434 
Q 928 4138 513 4856 
z
" transform="scale(0.015625)"/>
       <path id="DejaVuSans-20" transform="scale(0.015625)"/>
       <path id="DejaVuSans-5b" d="M 550 4863 
L 1875 4863 
L 1875 4416 
L 1125 4416 
L 1125 -397 
L 1875 -397 
L 1875 -844 
L 550 -844 
L 550 4863 
z
" transform="scale(0.015625)"/>
       <path id="DejaVuSans-6d" d="M 3328 2828 
Q 3544 3216 3844 3400 
Q 4144 3584 4550 3584 
Q 5097 3584 5394 3201 
Q 5691 2819 5691 2113 
L 5691 0 
L 5113 0 
L 5113 2094 
Q 5113 2597 4934 2840 
Q 4756 3084 4391 3084 
Q 3944 3084 3684 2787 
Q 3425 2491 3425 1978 
L 3425 0 
L 2847 0 
L 2847 2094 
Q 2847 2600 2669 2842 
Q 2491 3084 2119 3084 
Q 1678 3084 1418 2786 
Q 1159 2488 1159 1978 
L 1159 0 
L 581 0 
L 581 3500 
L 1159 3500 
L 1159 2956 
Q 1356 3278 1631 3431 
Q 1906 3584 2284 3584 
Q 2666 3584 2933 3390 
Q 3200 3197 3328 2828 
z
" transform="scale(0.015625)"/>
       <path id="DejaVuSans-56" d="M 1831 0 
L 50 4666 
L 709 4666 
L 2188 738 
L 3669 4666 
L 4325 4666 
L 2547 0 
L 1831 0 
z
" transform="scale(0.015625)"/>
       <path id="DejaVuSans-5d" d="M 1947 4863 
L 1947 -844 
L 622 -844 
L 622 -397 
L 1369 -397 
L 1369 4416 
L 622 4416 
L 622 4863 
L 1947 4863 
z
" transform="scale(0.015625)"/>
      </defs>
      <use xlink:href="#DejaVuSans-52" transform="translate(0 0.015625)"/>
      <use xlink:href="#DejaVuSans-65" transform="translate(69.482422 0.015625)"/>
      <use xlink:href="#DejaVuSans-28" transform="translate(131.005859 0.015625)"/>
      <use xlink:href="#DejaVuSans-Oblique-53" transform="translate(170.019531 0.015625)"/>
      <use xlink:href="#DejaVuSans-32" transform="translate(233.496094 -16.390625) scale(0.7)"/>
      <use xlink:href="#DejaVuSans-31" transform="translate(278.032227 -16.390625) scale(0.7)"/>
      <use xlink:href="#DejaVuSans-29" transform="translate(325.302734 0.015625)"/>
      <use xlink:href="#DejaVuSans-20" transform="translate(364.316406 0.015625)"/>
      <use xlink:href="#DejaVuSans-5b" transform="translate(396.103516 0.015625)"/>
      <use xlink:href="#DejaVuSans-6d" transform="translate(435.117188 0.015625)"/>
      <use xlink:href="#DejaVuSans-56" transform="translate(532.529297 0.015625)"/>
      <use xlink:href="#DejaVuSans-5d" transform="translate(600.9375 0.015625)"/>
     </g>
    </g>
   </g>
   <g id="matplotlib.axis_2">
    <g id="ytick_1">
     <g id="line2d_7">
      <defs>
       <path id="m61e20f87fe" d="M 0 0 
L -3.5 0 
" style="stroke: #000000; stroke-width: 0.8"/>
      </defs>
      <g>
       <use xlink:href="#m61e20f87fe" x="50.573438" y="266.720288" style="stroke: #000000; stroke-width: 0.8"/>
      </g>
     </g>
     <g id="text_8">
      <!-- -200 -->
      <g transform="translate(20.878125 270.519507) scale(0.1 -0.1)">
       <use xlink:href="#DejaVuSans-2d"/>
       <use xlink:href="#DejaVuSans-32" x="36.083984"/>
       <use xlink:href="#DejaVuSans-30" x="99.707031"/>
       <use xlink:href="#DejaVuSans-30" x="163.330078"/>
      </g>
     </g>
    </g>
    <g id="ytick_2">
     <g id="line2d_8">
      <g>
       <use xlink:href="#m61e20f87fe" x="50.573438" y="216.504597" style="stroke: #000000; stroke-width: 0.8"/>
      </g>
     </g>
     <g id="text_9">
      <!-- -100 -->
      <g transform="translate(20.878125 220.303816) scale(0.1 -0.1)">
       <use xlink:href="#DejaVuSans-2d"/>
       <use xlink:href="#DejaVuSans-31" x="36.083984"/>
       <use xlink:href="#DejaVuSans-30" x="99.707031"/>
       <use xlink:href="#DejaVuSans-30" x="163.330078"/>
      </g>
     </g>
    </g>
    <g id="ytick_3">
     <g id="line2d_9">
      <g>
       <use xlink:href="#m61e20f87fe" x="50.573438" y="166.288906" style="stroke: #000000; stroke-width: 0.8"/>
      </g>
     </g>
     <g id="text_10">
      <!-- 0 -->
      <g transform="translate(37.210938 170.088125) scale(0.1 -0.1)">
       <use xlink:href="#DejaVuSans-30"/>
      </g>
     </g>
    </g>
    <g id="ytick_4">
     <g id="line2d_10">
      <g>
       <use xlink:href="#m61e20f87fe" x="50.573438" y="116.073216" style="stroke: #000000; stroke-width: 0.8"/>
      </g>
     </g>
     <g id="text_11">
      <!-- 100 -->
      <g transform="translate(24.485938 119.872434) scale(0.1 -0.1)">
       <use xlink:href="#DejaVuSans-31"/>
       <use xlink:href="#DejaVuSans-30" x="63.623047"/>
       <use xlink:href="#DejaVuSans-30" x="127.246094"/>
      </g>
     </g>
    </g>
    <g id="ytick_5">
     <g id="line2d_11">
      <g>
       <use xlink:href="#m61e20f87fe" x="50.573438" y="65.857525" style="stroke: #000000; stroke-width: 0.8"/>
      </g>
     </g>
     <g id="text_12">
      <!-- 200 -->
      <g transform="translate(24.485938 69.656744) scale(0.1 -0.1)">
       <use xlink:href="#DejaVuSans-32"/>
       <use xlink:href="#DejaVuSans-30" x="63.623047"/>
       <use xlink:href="#DejaVuSans-30" x="127.246094"/>
      </g>
     </g>
    </g>
    <g id="text_13">
     <!-- Im$(S_{21})$ [mV] -->
     <g transform="translate(14.798438 206.466) rotate(-90) scale(0.1 -0.1)">
      <defs>
       <path id="DejaVuSans-49" d="M 628 4666 
L 1259 4666 
L 1259 0 
L 628 0 
L 628 4666 
z
" transform="scale(0.015625)"/>
      </defs>
      <use xlink:href="#DejaVuSans-49" transform="translate(0 0.015625)"/>
      <use xlink:href="#DejaVuSans-6d" transform="translate(25.867188 0.015625)"/>
      <use xlink:href="#DejaVuSans-28" transform="translate(123.279297 0.015625)"/>
      <use xlink:href="#DejaVuSans-Oblique-53" transform="translate(162.292969 0.015625)"/>
      <use xlink:href="#DejaVuSans-32" transform="translate(225.769531 -16.390625) scale(0.7)"/>
      <use xlink:href="#DejaVuSans-31" transform="translate(270.305664 -16.390625) scale(0.7)"/>
      <use xlink:href="#DejaVuSans-29" transform="translate(317.576172 0.015625)"/>
      <use xlink:href="#DejaVuSans-20" transform="translate(356.589844 0.015625)"/>
      <use xlink:href="#DejaVuSans-5b" transform="translate(388.376953 0.015625)"/>
      <use xlink:href="#DejaVuSans-6d" transform="translate(427.390625 0.015625)"/>
      <use xlink:href="#DejaVuSans-56" transform="translate(524.802734 0.015625)"/>
      <use xlink:href="#DejaVuSans-5d" transform="translate(593.210938 0.015625)"/>
     </g>
    </g>
   </g>
   <g id="line2d_12">
    <path d="M 344.893655 285.460151 
L 340.669149 285.177151 
L 329.414651 283.978503 
L 318.538358 282.711201 
L 315.256714 282.142259 
L 308.2834 281.300157 
L 297.977705 279.78636 
L 284.170517 277.427584 
L 267.404901 274.157863 
L 247.479888 269.693878 
L 231.133206 265.590894 
L 221.500747 262.789691 
L 215.055411 260.900359 
L 208.920284 258.952389 
L 190.087588 252.553758 
L 181.01507 248.983452 
L 166.030455 242.854574 
L 160.089603 240.13443 
L 157.251385 238.651876 
L 153.931052 237.222059 
L 148.234819 234.335412 
L 133.642262 226.699435 
L 130.918539 224.961216 
L 127.97347 223.271127 
L 125.297872 221.483791 
L 122.260142 219.733151 
L 113.444933 213.921902 
L 110.8362 211.940869 
L 104.775105 207.659939 
L 98.792229 202.85122 
L 95.735359 200.37015 
L 89.794021 194.953893 
L 86.817089 191.973679 
L 80.480054 185.270862 
L 77.77758 181.584019 
L 74.874949 177.373895 
L 71.989342 172.942217 
L 69.353519 167.850538 
L 67.620946 162.119369 
L 66.806165 155.593273 
L 67.057161 148.13905 
L 69.366449 139.562494 
L 75.0257 129.551049 
L 86.567961 117.750159 
L 109.099672 104.955566 
L 144.935928 93.688367 
L 194.858832 86.876601 
L 252.648038 88.005919 
L 308.820393 98.347797 
L 352.450033 116.87408 
L 374.413619 139.904245 
L 373.875237 161.803398 
L 355.297094 179.932288 
L 327.733396 192.208103 
L 298.375554 198.706655 
L 272.295938 201.51122 
L 250.923173 201.982323 
L 233.592702 201.393609 
L 218.528244 200.234887 
L 205.666279 198.608057 
L 194.995085 196.5175 
L 185.918862 194.315746 
L 178.268175 192.015801 
L 171.66747 189.708743 
L 165.748076 187.487664 
L 160.608209 185.273802 
L 156.022232 182.946886 
L 151.974152 180.719709 
L 145.459375 176.265284 
L 142.702221 174.130623 
L 140.209987 172.000958 
L 137.944954 169.883207 
L 136.190245 167.727549 
L 134.317467 165.676734 
L 131.571085 161.578023 
L 128.777156 155.508041 
L 128.135873 153.618827 
L 127.597971 151.564504 
L 127.300874 149.660532 
L 126.851804 147.753217 
L 126.657078 144.067801 
L 127.045266 140.377993 
L 127.435722 138.496869 
L 127.822547 134.847627 
L 128.608283 133.020514 
L 129.14705 131.21718 
L 130.087753 129.445503 
L 130.67308 127.625304 
L 133.483966 122.395906 
L 134.64925 120.711997 
L 135.65626 118.961942 
L 140.997382 112.339658 
L 145.656504 107.559775 
L 149.191955 104.351549 
L 150.892825 102.828389 
L 154.801844 99.685881 
L 156.565018 98.15081 
L 158.71281 96.749083 
L 162.698031 93.673344 
L 171.831889 87.914771 
L 176.416646 85.254617 
L 178.773345 83.847213 
L 194.308958 75.993499 
L 202.571887 72.338372 
L 217.207533 66.554973 
L 220.203277 65.423529 
L 223.347813 64.387552 
L 226.34183 63.202087 
L 232.668947 61.266322 
L 239.130092 59.20997 
L 255.645845 54.63275 
L 258.90568 53.856 
L 258.90568 53.856 
" clip-path="url(#p755fed4be2)" style="fill: none; stroke: #1f77b4; stroke-width: 1.5; stroke-linecap: square"/>
    <defs>
     <path id="mc79e9ac66d" d="M 0 1.5 
C 0.397805 1.5 0.77937 1.341951 1.06066 1.06066 
C 1.341951 0.77937 1.5 0.397805 1.5 0 
C 1.5 -0.397805 1.341951 -0.77937 1.06066 -1.06066 
C 0.77937 -1.341951 0.397805 -1.5 0 -1.5 
C -0.397805 -1.5 -0.77937 -1.341951 -1.06066 -1.06066 
C -1.341951 -0.77937 -1.5 -0.397805 -1.5 0 
C -1.5 0.397805 -1.341951 0.77937 -1.06066 1.06066 
C -0.77937 1.341951 -0.397805 1.5 0 1.5 
z
" style="stroke: #1f77b4"/>
    </defs>
    <g clip-path="url(#p755fed4be2)">
     <use xlink:href="#mc79e9ac66d" x="344.893655" y="285.460151" style="fill: #1f77b4; stroke: #1f77b4"/>
     <use xlink:href="#mc79e9ac66d" x="340.669149" y="285.177151" style="fill: #1f77b4; stroke: #1f77b4"/>
     <use xlink:href="#mc79e9ac66d" x="336.5732" y="284.76469" style="fill: #1f77b4; stroke: #1f77b4"/>
     <use xlink:href="#mc79e9ac66d" x="333.033875" y="284.391668" style="fill: #1f77b4; stroke: #1f77b4"/>
     <use xlink:href="#mc79e9ac66d" x="329.414651" y="283.978503" style="fill: #1f77b4; stroke: #1f77b4"/>
     <use xlink:href="#mc79e9ac66d" x="325.718686" y="283.528929" style="fill: #1f77b4; stroke: #1f77b4"/>
     <use xlink:href="#mc79e9ac66d" x="322.21807" y="283.121171" style="fill: #1f77b4; stroke: #1f77b4"/>
     <use xlink:href="#mc79e9ac66d" x="318.538358" y="282.711201" style="fill: #1f77b4; stroke: #1f77b4"/>
     <use xlink:href="#mc79e9ac66d" x="315.256714" y="282.142259" style="fill: #1f77b4; stroke: #1f77b4"/>
     <use xlink:href="#mc79e9ac66d" x="311.691066" y="281.751914" style="fill: #1f77b4; stroke: #1f77b4"/>
     <use xlink:href="#mc79e9ac66d" x="308.2834" y="281.300157" style="fill: #1f77b4; stroke: #1f77b4"/>
     <use xlink:href="#mc79e9ac66d" x="304.800152" y="280.816674" style="fill: #1f77b4; stroke: #1f77b4"/>
     <use xlink:href="#mc79e9ac66d" x="301.196591" y="280.324561" style="fill: #1f77b4; stroke: #1f77b4"/>
     <use xlink:href="#mc79e9ac66d" x="297.977705" y="279.78636" style="fill: #1f77b4; stroke: #1f77b4"/>
     <use xlink:href="#mc79e9ac66d" x="294.604654" y="279.233635" style="fill: #1f77b4; stroke: #1f77b4"/>
     <use xlink:href="#mc79e9ac66d" x="291.010522" y="278.646042" style="fill: #1f77b4; stroke: #1f77b4"/>
     <use xlink:href="#mc79e9ac66d" x="287.66659" y="277.996059" style="fill: #1f77b4; stroke: #1f77b4"/>
     <use xlink:href="#mc79e9ac66d" x="284.170517" y="277.427584" style="fill: #1f77b4; stroke: #1f77b4"/>
     <use xlink:href="#mc79e9ac66d" x="280.962027" y="276.815722" style="fill: #1f77b4; stroke: #1f77b4"/>
     <use xlink:href="#mc79e9ac66d" x="277.436271" y="276.166544" style="fill: #1f77b4; stroke: #1f77b4"/>
     <use xlink:href="#mc79e9ac66d" x="274.177232" y="275.5371" style="fill: #1f77b4; stroke: #1f77b4"/>
     <use xlink:href="#mc79e9ac66d" x="270.510181" y="274.883419" style="fill: #1f77b4; stroke: #1f77b4"/>
     <use xlink:href="#mc79e9ac66d" x="267.404901" y="274.157863" style="fill: #1f77b4; stroke: #1f77b4"/>
     <use xlink:href="#mc79e9ac66d" x="264.096839" y="273.434691" style="fill: #1f77b4; stroke: #1f77b4"/>
     <use xlink:href="#mc79e9ac66d" x="260.78223" y="272.746095" style="fill: #1f77b4; stroke: #1f77b4"/>
     <use xlink:href="#mc79e9ac66d" x="257.434285" y="271.964127" style="fill: #1f77b4; stroke: #1f77b4"/>
     <use xlink:href="#mc79e9ac66d" x="254.216576" y="271.341948" style="fill: #1f77b4; stroke: #1f77b4"/>
     <use xlink:href="#mc79e9ac66d" x="250.801005" y="270.525545" style="fill: #1f77b4; stroke: #1f77b4"/>
     <use xlink:href="#mc79e9ac66d" x="247.479888" y="269.693878" style="fill: #1f77b4; stroke: #1f77b4"/>
     <use xlink:href="#mc79e9ac66d" x="244.390791" y="268.922924" style="fill: #1f77b4; stroke: #1f77b4"/>
     <use xlink:href="#mc79e9ac66d" x="240.96093" y="268.104561" style="fill: #1f77b4; stroke: #1f77b4"/>
     <use xlink:href="#mc79e9ac66d" x="237.659234" y="267.265212" style="fill: #1f77b4; stroke: #1f77b4"/>
     <use xlink:href="#mc79e9ac66d" x="234.372681" y="266.406391" style="fill: #1f77b4; stroke: #1f77b4"/>
     <use xlink:href="#mc79e9ac66d" x="231.133206" y="265.590894" style="fill: #1f77b4; stroke: #1f77b4"/>
     <use xlink:href="#mc79e9ac66d" x="227.89341" y="264.619103" style="fill: #1f77b4; stroke: #1f77b4"/>
     <use xlink:href="#mc79e9ac66d" x="224.829196" y="263.749216" style="fill: #1f77b4; stroke: #1f77b4"/>
     <use xlink:href="#mc79e9ac66d" x="221.500747" y="262.789691" style="fill: #1f77b4; stroke: #1f77b4"/>
     <use xlink:href="#mc79e9ac66d" x="218.382358" y="261.905422" style="fill: #1f77b4; stroke: #1f77b4"/>
     <use xlink:href="#mc79e9ac66d" x="215.055411" y="260.900359" style="fill: #1f77b4; stroke: #1f77b4"/>
     <use xlink:href="#mc79e9ac66d" x="211.908202" y="259.942181" style="fill: #1f77b4; stroke: #1f77b4"/>
     <use xlink:href="#mc79e9ac66d" x="208.920284" y="258.952389" style="fill: #1f77b4; stroke: #1f77b4"/>
     <use xlink:href="#mc79e9ac66d" x="205.875445" y="257.932198" style="fill: #1f77b4; stroke: #1f77b4"/>
     <use xlink:href="#mc79e9ac66d" x="202.568321" y="256.907795" style="fill: #1f77b4; stroke: #1f77b4"/>
     <use xlink:href="#mc79e9ac66d" x="199.510008" y="255.850949" style="fill: #1f77b4; stroke: #1f77b4"/>
     <use xlink:href="#mc79e9ac66d" x="196.394121" y="254.788674" style="fill: #1f77b4; stroke: #1f77b4"/>
     <use xlink:href="#mc79e9ac66d" x="193.21048" y="253.646372" style="fill: #1f77b4; stroke: #1f77b4"/>
     <use xlink:href="#mc79e9ac66d" x="190.087588" y="252.553758" style="fill: #1f77b4; stroke: #1f77b4"/>
     <use xlink:href="#mc79e9ac66d" x="187.063016" y="251.391018" style="fill: #1f77b4; stroke: #1f77b4"/>
     <use xlink:href="#mc79e9ac66d" x="184.11256" y="250.276" style="fill: #1f77b4; stroke: #1f77b4"/>
     <use xlink:href="#mc79e9ac66d" x="181.01507" y="248.983452" style="fill: #1f77b4; stroke: #1f77b4"/>
     <use xlink:href="#mc79e9ac66d" x="177.987252" y="247.768822" style="fill: #1f77b4; stroke: #1f77b4"/>
     <use xlink:href="#mc79e9ac66d" x="174.811388" y="246.601503" style="fill: #1f77b4; stroke: #1f77b4"/>
     <use xlink:href="#mc79e9ac66d" x="171.856316" y="245.322003" style="fill: #1f77b4; stroke: #1f77b4"/>
     <use xlink:href="#mc79e9ac66d" x="168.850083" y="244.07106" style="fill: #1f77b4; stroke: #1f77b4"/>
     <use xlink:href="#mc79e9ac66d" x="166.030455" y="242.854574" style="fill: #1f77b4; stroke: #1f77b4"/>
     <use xlink:href="#mc79e9ac66d" x="162.91783" y="241.45479" style="fill: #1f77b4; stroke: #1f77b4"/>
     <use xlink:href="#mc79e9ac66d" x="160.089603" y="240.13443" style="fill: #1f77b4; stroke: #1f77b4"/>
     <use xlink:href="#mc79e9ac66d" x="157.251385" y="238.651876" style="fill: #1f77b4; stroke: #1f77b4"/>
     <use xlink:href="#mc79e9ac66d" x="153.931052" y="237.222059" style="fill: #1f77b4; stroke: #1f77b4"/>
     <use xlink:href="#mc79e9ac66d" x="151.108338" y="235.831536" style="fill: #1f77b4; stroke: #1f77b4"/>
     <use xlink:href="#mc79e9ac66d" x="148.234819" y="234.335412" style="fill: #1f77b4; stroke: #1f77b4"/>
     <use xlink:href="#mc79e9ac66d" x="145.462631" y="232.90359" style="fill: #1f77b4; stroke: #1f77b4"/>
     <use xlink:href="#mc79e9ac66d" x="142.465901" y="231.455432" style="fill: #1f77b4; stroke: #1f77b4"/>
     <use xlink:href="#mc79e9ac66d" x="139.607439" y="229.804471" style="fill: #1f77b4; stroke: #1f77b4"/>
     <use xlink:href="#mc79e9ac66d" x="136.631766" y="228.274975" style="fill: #1f77b4; stroke: #1f77b4"/>
     <use xlink:href="#mc79e9ac66d" x="133.642262" y="226.699435" style="fill: #1f77b4; stroke: #1f77b4"/>
     <use xlink:href="#mc79e9ac66d" x="130.918539" y="224.961216" style="fill: #1f77b4; stroke: #1f77b4"/>
     <use xlink:href="#mc79e9ac66d" x="127.97347" y="223.271127" style="fill: #1f77b4; stroke: #1f77b4"/>
     <use xlink:href="#mc79e9ac66d" x="125.297872" y="221.483791" style="fill: #1f77b4; stroke: #1f77b4"/>
     <use xlink:href="#mc79e9ac66d" x="122.260142" y="219.733151" style="fill: #1f77b4; stroke: #1f77b4"/>
     <use xlink:href="#mc79e9ac66d" x="119.420401" y="217.870152" style="fill: #1f77b4; stroke: #1f77b4"/>
     <use xlink:href="#mc79e9ac66d" x="116.592453" y="215.997272" style="fill: #1f77b4; stroke: #1f77b4"/>
     <use xlink:href="#mc79e9ac66d" x="113.444933" y="213.921902" style="fill: #1f77b4; stroke: #1f77b4"/>
     <use xlink:href="#mc79e9ac66d" x="110.8362" y="211.940869" style="fill: #1f77b4; stroke: #1f77b4"/>
     <use xlink:href="#mc79e9ac66d" x="107.756125" y="209.820468" style="fill: #1f77b4; stroke: #1f77b4"/>
     <use xlink:href="#mc79e9ac66d" x="104.775105" y="207.659939" style="fill: #1f77b4; stroke: #1f77b4"/>
     <use xlink:href="#mc79e9ac66d" x="101.845382" y="205.240196" style="fill: #1f77b4; stroke: #1f77b4"/>
     <use xlink:href="#mc79e9ac66d" x="98.792229" y="202.85122" style="fill: #1f77b4; stroke: #1f77b4"/>
     <use xlink:href="#mc79e9ac66d" x="95.735359" y="200.37015" style="fill: #1f77b4; stroke: #1f77b4"/>
     <use xlink:href="#mc79e9ac66d" x="92.878301" y="197.807259" style="fill: #1f77b4; stroke: #1f77b4"/>
     <use xlink:href="#mc79e9ac66d" x="89.794021" y="194.953893" style="fill: #1f77b4; stroke: #1f77b4"/>
     <use xlink:href="#mc79e9ac66d" x="86.817089" y="191.973679" style="fill: #1f77b4; stroke: #1f77b4"/>
     <use xlink:href="#mc79e9ac66d" x="83.787401" y="188.755427" style="fill: #1f77b4; stroke: #1f77b4"/>
     <use xlink:href="#mc79e9ac66d" x="80.480054" y="185.270862" style="fill: #1f77b4; stroke: #1f77b4"/>
     <use xlink:href="#mc79e9ac66d" x="77.77758" y="181.584019" style="fill: #1f77b4; stroke: #1f77b4"/>
     <use xlink:href="#mc79e9ac66d" x="74.874949" y="177.373895" style="fill: #1f77b4; stroke: #1f77b4"/>
     <use xlink:href="#mc79e9ac66d" x="71.989342" y="172.942217" style="fill: #1f77b4; stroke: #1f77b4"/>
     <use xlink:href="#mc79e9ac66d" x="69.353519" y="167.850538" style="fill: #1f77b4; stroke: #1f77b4"/>
     <use xlink:href="#mc79e9ac66d" x="67.620946" y="162.119369" style="fill: #1f77b4; stroke: #1f77b4"/>
     <use xlink:href="#mc79e9ac66d" x="66.806165" y="155.593273" style="fill: #1f77b4; stroke: #1f77b4"/>
     <use xlink:href="#mc79e9ac66d" x="67.057161" y="148.13905" style="fill: #1f77b4; stroke: #1f77b4"/>
     <use xlink:href="#mc79e9ac66d" x="69.366449" y="139.562494" style="fill: #1f77b4; stroke: #1f77b4"/>
     <use xlink:href="#mc79e9ac66d" x="75.0257" y="129.551049" style="fill: #1f77b4; stroke: #1f77b4"/>
     <use xlink:href="#mc79e9ac66d" x="86.567961" y="117.750159" style="fill: #1f77b4; stroke: #1f77b4"/>
     <use xlink:href="#mc79e9ac66d" x="109.099672" y="104.955566" style="fill: #1f77b4; stroke: #1f77b4"/>
     <use xlink:href="#mc79e9ac66d" x="144.935928" y="93.688367" style="fill: #1f77b4; stroke: #1f77b4"/>
     <use xlink:href="#mc79e9ac66d" x="194.858832" y="86.876601" style="fill: #1f77b4; stroke: #1f77b4"/>
     <use xlink:href="#mc79e9ac66d" x="252.648038" y="88.005919" style="fill: #1f77b4; stroke: #1f77b4"/>
     <use xlink:href="#mc79e9ac66d" x="308.820393" y="98.347797" style="fill: #1f77b4; stroke: #1f77b4"/>
     <use xlink:href="#mc79e9ac66d" x="352.450033" y="116.87408" style="fill: #1f77b4; stroke: #1f77b4"/>
     <use xlink:href="#mc79e9ac66d" x="374.413619" y="139.904245" style="fill: #1f77b4; stroke: #1f77b4"/>
     <use xlink:href="#mc79e9ac66d" x="373.875237" y="161.803398" style="fill: #1f77b4; stroke: #1f77b4"/>
     <use xlink:href="#mc79e9ac66d" x="355.297094" y="179.932288" style="fill: #1f77b4; stroke: #1f77b4"/>
     <use xlink:href="#mc79e9ac66d" x="327.733396" y="192.208103" style="fill: #1f77b4; stroke: #1f77b4"/>
     <use xlink:href="#mc79e9ac66d" x="298.375554" y="198.706655" style="fill: #1f77b4; stroke: #1f77b4"/>
     <use xlink:href="#mc79e9ac66d" x="272.295938" y="201.51122" style="fill: #1f77b4; stroke: #1f77b4"/>
     <use xlink:href="#mc79e9ac66d" x="250.923173" y="201.982323" style="fill: #1f77b4; stroke: #1f77b4"/>
     <use xlink:href="#mc79e9ac66d" x="233.592702" y="201.393609" style="fill: #1f77b4; stroke: #1f77b4"/>
     <use xlink:href="#mc79e9ac66d" x="218.528244" y="200.234887" style="fill: #1f77b4; stroke: #1f77b4"/>
     <use xlink:href="#mc79e9ac66d" x="205.666279" y="198.608057" style="fill: #1f77b4; stroke: #1f77b4"/>
     <use xlink:href="#mc79e9ac66d" x="194.995085" y="196.5175" style="fill: #1f77b4; stroke: #1f77b4"/>
     <use xlink:href="#mc79e9ac66d" x="185.918862" y="194.315746" style="fill: #1f77b4; stroke: #1f77b4"/>
     <use xlink:href="#mc79e9ac66d" x="178.268175" y="192.015801" style="fill: #1f77b4; stroke: #1f77b4"/>
     <use xlink:href="#mc79e9ac66d" x="171.66747" y="189.708743" style="fill: #1f77b4; stroke: #1f77b4"/>
     <use xlink:href="#mc79e9ac66d" x="165.748076" y="187.487664" style="fill: #1f77b4; stroke: #1f77b4"/>
     <use xlink:href="#mc79e9ac66d" x="160.608209" y="185.273802" style="fill: #1f77b4; stroke: #1f77b4"/>
     <use xlink:href="#mc79e9ac66d" x="156.022232" y="182.946886" style="fill: #1f77b4; stroke: #1f77b4"/>
     <use xlink:href="#mc79e9ac66d" x="151.974152" y="180.719709" style="fill: #1f77b4; stroke: #1f77b4"/>
     <use xlink:href="#mc79e9ac66d" x="148.629022" y="178.495702" style="fill: #1f77b4; stroke: #1f77b4"/>
     <use xlink:href="#mc79e9ac66d" x="145.459375" y="176.265284" style="fill: #1f77b4; stroke: #1f77b4"/>
     <use xlink:href="#mc79e9ac66d" x="142.702221" y="174.130623" style="fill: #1f77b4; stroke: #1f77b4"/>
     <use xlink:href="#mc79e9ac66d" x="140.209987" y="172.000958" style="fill: #1f77b4; stroke: #1f77b4"/>
     <use xlink:href="#mc79e9ac66d" x="137.944954" y="169.883207" style="fill: #1f77b4; stroke: #1f77b4"/>
     <use xlink:href="#mc79e9ac66d" x="136.190245" y="167.727549" style="fill: #1f77b4; stroke: #1f77b4"/>
     <use xlink:href="#mc79e9ac66d" x="134.317467" y="165.676734" style="fill: #1f77b4; stroke: #1f77b4"/>
     <use xlink:href="#mc79e9ac66d" x="132.983143" y="163.617669" style="fill: #1f77b4; stroke: #1f77b4"/>
     <use xlink:href="#mc79e9ac66d" x="131.571085" y="161.578023" style="fill: #1f77b4; stroke: #1f77b4"/>
     <use xlink:href="#mc79e9ac66d" x="130.610678" y="159.512044" style="fill: #1f77b4; stroke: #1f77b4"/>
     <use xlink:href="#mc79e9ac66d" x="129.596215" y="157.567662" style="fill: #1f77b4; stroke: #1f77b4"/>
     <use xlink:href="#mc79e9ac66d" x="128.777156" y="155.508041" style="fill: #1f77b4; stroke: #1f77b4"/>
     <use xlink:href="#mc79e9ac66d" x="128.135873" y="153.618827" style="fill: #1f77b4; stroke: #1f77b4"/>
     <use xlink:href="#mc79e9ac66d" x="127.597971" y="151.564504" style="fill: #1f77b4; stroke: #1f77b4"/>
     <use xlink:href="#mc79e9ac66d" x="127.300874" y="149.660532" style="fill: #1f77b4; stroke: #1f77b4"/>
     <use xlink:href="#mc79e9ac66d" x="126.851804" y="147.753217" style="fill: #1f77b4; stroke: #1f77b4"/>
     <use xlink:href="#mc79e9ac66d" x="126.731862" y="145.85305" style="fill: #1f77b4; stroke: #1f77b4"/>
     <use xlink:href="#mc79e9ac66d" x="126.657078" y="144.067801" style="fill: #1f77b4; stroke: #1f77b4"/>
     <use xlink:href="#mc79e9ac66d" x="126.819386" y="142.115513" style="fill: #1f77b4; stroke: #1f77b4"/>
     <use xlink:href="#mc79e9ac66d" x="127.045266" y="140.377993" style="fill: #1f77b4; stroke: #1f77b4"/>
     <use xlink:href="#mc79e9ac66d" x="127.435722" y="138.496869" style="fill: #1f77b4; stroke: #1f77b4"/>
     <use xlink:href="#mc79e9ac66d" x="127.606579" y="136.634529" style="fill: #1f77b4; stroke: #1f77b4"/>
     <use xlink:href="#mc79e9ac66d" x="127.822547" y="134.847627" style="fill: #1f77b4; stroke: #1f77b4"/>
     <use xlink:href="#mc79e9ac66d" x="128.608283" y="133.020514" style="fill: #1f77b4; stroke: #1f77b4"/>
     <use xlink:href="#mc79e9ac66d" x="129.14705" y="131.21718" style="fill: #1f77b4; stroke: #1f77b4"/>
     <use xlink:href="#mc79e9ac66d" x="130.087753" y="129.445503" style="fill: #1f77b4; stroke: #1f77b4"/>
     <use xlink:href="#mc79e9ac66d" x="130.67308" y="127.625304" style="fill: #1f77b4; stroke: #1f77b4"/>
     <use xlink:href="#mc79e9ac66d" x="131.610041" y="125.936464" style="fill: #1f77b4; stroke: #1f77b4"/>
     <use xlink:href="#mc79e9ac66d" x="132.626543" y="124.096722" style="fill: #1f77b4; stroke: #1f77b4"/>
     <use xlink:href="#mc79e9ac66d" x="133.483966" y="122.395906" style="fill: #1f77b4; stroke: #1f77b4"/>
     <use xlink:href="#mc79e9ac66d" x="134.64925" y="120.711997" style="fill: #1f77b4; stroke: #1f77b4"/>
     <use xlink:href="#mc79e9ac66d" x="135.65626" y="118.961942" style="fill: #1f77b4; stroke: #1f77b4"/>
     <use xlink:href="#mc79e9ac66d" x="137.009773" y="117.290711" style="fill: #1f77b4; stroke: #1f77b4"/>
     <use xlink:href="#mc79e9ac66d" x="138.372541" y="115.634767" style="fill: #1f77b4; stroke: #1f77b4"/>
     <use xlink:href="#mc79e9ac66d" x="139.592569" y="114.018514" style="fill: #1f77b4; stroke: #1f77b4"/>
     <use xlink:href="#mc79e9ac66d" x="140.997382" y="112.339658" style="fill: #1f77b4; stroke: #1f77b4"/>
     <use xlink:href="#mc79e9ac66d" x="142.51452" y="110.767462" style="fill: #1f77b4; stroke: #1f77b4"/>
     <use xlink:href="#mc79e9ac66d" x="144.133613" y="109.126411" style="fill: #1f77b4; stroke: #1f77b4"/>
     <use xlink:href="#mc79e9ac66d" x="145.656504" y="107.559775" style="fill: #1f77b4; stroke: #1f77b4"/>
     <use xlink:href="#mc79e9ac66d" x="147.371167" y="105.945836" style="fill: #1f77b4; stroke: #1f77b4"/>
     <use xlink:href="#mc79e9ac66d" x="149.191955" y="104.351549" style="fill: #1f77b4; stroke: #1f77b4"/>
     <use xlink:href="#mc79e9ac66d" x="150.892825" y="102.828389" style="fill: #1f77b4; stroke: #1f77b4"/>
     <use xlink:href="#mc79e9ac66d" x="152.922081" y="101.242766" style="fill: #1f77b4; stroke: #1f77b4"/>
     <use xlink:href="#mc79e9ac66d" x="154.801844" y="99.685881" style="fill: #1f77b4; stroke: #1f77b4"/>
     <use xlink:href="#mc79e9ac66d" x="156.565018" y="98.15081" style="fill: #1f77b4; stroke: #1f77b4"/>
     <use xlink:href="#mc79e9ac66d" x="158.71281" y="96.749083" style="fill: #1f77b4; stroke: #1f77b4"/>
     <use xlink:href="#mc79e9ac66d" x="160.716976" y="95.231565" style="fill: #1f77b4; stroke: #1f77b4"/>
     <use xlink:href="#mc79e9ac66d" x="162.698031" y="93.673344" style="fill: #1f77b4; stroke: #1f77b4"/>
     <use xlink:href="#mc79e9ac66d" x="164.918433" y="92.24539" style="fill: #1f77b4; stroke: #1f77b4"/>
     <use xlink:href="#mc79e9ac66d" x="167.215397" y="90.761804" style="fill: #1f77b4; stroke: #1f77b4"/>
     <use xlink:href="#mc79e9ac66d" x="169.318829" y="89.437523" style="fill: #1f77b4; stroke: #1f77b4"/>
     <use xlink:href="#mc79e9ac66d" x="171.831889" y="87.914771" style="fill: #1f77b4; stroke: #1f77b4"/>
     <use xlink:href="#mc79e9ac66d" x="174.038188" y="86.682535" style="fill: #1f77b4; stroke: #1f77b4"/>
     <use xlink:href="#mc79e9ac66d" x="176.416646" y="85.254617" style="fill: #1f77b4; stroke: #1f77b4"/>
     <use xlink:href="#mc79e9ac66d" x="178.773345" y="83.847213" style="fill: #1f77b4; stroke: #1f77b4"/>
     <use xlink:href="#mc79e9ac66d" x="181.205267" y="82.599476" style="fill: #1f77b4; stroke: #1f77b4"/>
     <use xlink:href="#mc79e9ac66d" x="183.864567" y="81.272583" style="fill: #1f77b4; stroke: #1f77b4"/>
     <use xlink:href="#mc79e9ac66d" x="186.296683" y="79.894207" style="fill: #1f77b4; stroke: #1f77b4"/>
     <use xlink:href="#mc79e9ac66d" x="188.941955" y="78.595604" style="fill: #1f77b4; stroke: #1f77b4"/>
     <use xlink:href="#mc79e9ac66d" x="191.483365" y="77.397965" style="fill: #1f77b4; stroke: #1f77b4"/>
     <use xlink:href="#mc79e9ac66d" x="194.308958" y="75.993499" style="fill: #1f77b4; stroke: #1f77b4"/>
     <use xlink:href="#mc79e9ac66d" x="197.07069" y="74.760916" style="fill: #1f77b4; stroke: #1f77b4"/>
     <use xlink:href="#mc79e9ac66d" x="199.825106" y="73.588917" style="fill: #1f77b4; stroke: #1f77b4"/>
     <use xlink:href="#mc79e9ac66d" x="202.571887" y="72.338372" style="fill: #1f77b4; stroke: #1f77b4"/>
     <use xlink:href="#mc79e9ac66d" x="205.573506" y="71.133825" style="fill: #1f77b4; stroke: #1f77b4"/>
     <use xlink:href="#mc79e9ac66d" x="208.451525" y="69.926793" style="fill: #1f77b4; stroke: #1f77b4"/>
     <use xlink:href="#mc79e9ac66d" x="211.207347" y="68.821429" style="fill: #1f77b4; stroke: #1f77b4"/>
     <use xlink:href="#mc79e9ac66d" x="214.334891" y="67.687153" style="fill: #1f77b4; stroke: #1f77b4"/>
     <use xlink:href="#mc79e9ac66d" x="217.207533" y="66.554973" style="fill: #1f77b4; stroke: #1f77b4"/>
     <use xlink:href="#mc79e9ac66d" x="220.203277" y="65.423529" style="fill: #1f77b4; stroke: #1f77b4"/>
     <use xlink:href="#mc79e9ac66d" x="223.347813" y="64.387552" style="fill: #1f77b4; stroke: #1f77b4"/>
     <use xlink:href="#mc79e9ac66d" x="226.34183" y="63.202087" style="fill: #1f77b4; stroke: #1f77b4"/>
     <use xlink:href="#mc79e9ac66d" x="229.533593" y="62.267349" style="fill: #1f77b4; stroke: #1f77b4"/>
     <use xlink:href="#mc79e9ac66d" x="232.668947" y="61.266322" style="fill: #1f77b4; stroke: #1f77b4"/>
     <use xlink:href="#mc79e9ac66d" x="235.929229" y="60.18741" style="fill: #1f77b4; stroke: #1f77b4"/>
     <use xlink:href="#mc79e9ac66d" x="239.130092" y="59.20997" style="fill: #1f77b4; stroke: #1f77b4"/>
     <use xlink:href="#mc79e9ac66d" x="242.517628" y="58.248951" style="fill: #1f77b4; stroke: #1f77b4"/>
     <use xlink:href="#mc79e9ac66d" x="245.562439" y="57.372739" style="fill: #1f77b4; stroke: #1f77b4"/>
     <use xlink:href="#mc79e9ac66d" x="249.031367" y="56.490857" style="fill: #1f77b4; stroke: #1f77b4"/>
     <use xlink:href="#mc79e9ac66d" x="252.229884" y="55.519342" style="fill: #1f77b4; stroke: #1f77b4"/>
     <use xlink:href="#mc79e9ac66d" x="255.645845" y="54.63275" style="fill: #1f77b4; stroke: #1f77b4"/>
     <use xlink:href="#mc79e9ac66d" x="258.90568" y="53.856" style="fill: #1f77b4; stroke: #1f77b4"/>
    </g>
   </g>
   <g id="line2d_13">
    <path d="M 339.516254 295.776 
L 326.542653 294.027363 
L 313.712459 292.070562 
L 301.042622 289.906777 
L 288.549554 287.537242 
L 276.967004 285.120242 
L 265.567633 282.523048 
L 254.363413 279.746515 
L 243.365602 276.791299 
L 232.584643 273.657759 
L 222.682911 270.558059 
L 212.987118 267.301048 
L 203.50329 263.885583 
L 194.236343 260.309695 
L 185.189911 256.570313 
L 176.947425 252.928733 
L 168.899239 249.135553 
L 161.044122 245.183536 
L 153.920314 241.362957 
L 146.956272 237.386157 
L 140.146121 233.238724 
L 133.989677 229.242164 
L 127.950014 225.063174 
L 122.018143 220.67416 
L 116.666998 216.434537 
L 111.86796 212.367028 
L 107.127893 208.055481 
L 102.913057 203.922342 
L 99.213082 200.003715 
L 95.570214 195.803791 
L 92.449897 191.847162 
L 89.849925 188.201384 
L 87.760407 184.948878 
L 85.771692 181.465939 
L 84.281599 178.486153 
L 82.914238 175.306961 
L 81.712197 171.897943 
L 80.953695 169.168849 
L 80.353498 166.272569 
L 79.953612 163.189005 
L 79.808136 159.895449 
L 79.886244 157.570623 
L 80.133721 155.13298 
L 80.58112 152.573785 
L 81.264921 149.88387 
L 82.228733 147.053771 
L 83.524738 144.073954 
L 85.215398 140.935173 
L 87.375462 137.629001 
L 90.094264 134.148628 
L 93.478293 130.490003 
L 95.458406 128.593724 
L 97.653915 126.653469 
L 100.084163 124.670342 
L 102.77004 122.646052 
L 105.734041 120.583037 
L 109.000278 118.4846 
L 112.594466 116.355076 
L 116.543858 114.200006 
L 120.877113 112.026352 
L 125.624078 109.842712 
L 130.815468 107.659578 
L 136.482409 105.489589 
L 142.655818 103.347813 
L 149.365592 101.252012 
L 156.639573 99.222908 
L 164.502259 97.284396 
L 172.973239 95.463711 
L 182.065349 93.791489 
L 191.782549 92.301694 
L 202.117579 91.031361 
L 213.049459 90.020115 
L 224.540973 89.309399 
L 236.536311 88.941396 
L 248.959121 88.957612 
L 261.711243 89.397137 
L 274.672443 90.294621 
L 287.701436 91.678078 
L 300.638445 93.566657 
L 313.309406 95.968573 
L 325.531773 98.879416 
L 337.121658 102.281073 
L 347.901847 106.141426 
L 357.710026 110.414967 
L 366.406491 115.044328 
L 373.880594 119.96264 
L 380.055306 125.096517 
L 384.889532 130.369397 
L 388.37803 135.704916 
L 390.549143 141.030039 
L 391.46071 146.277689 
L 391.194731 151.388739 
L 389.851367 156.313283 
L 387.542856 161.011211 
L 384.3878 165.452181 
L 380.50616 169.615093 
L 376.015141 173.487223 
L 371.02604 177.063134 
L 365.642031 180.343502 
L 359.956773 183.333931 
L 354.053728 186.043843 
L 348.006027 188.485469 
L 341.876759 190.67298 
L 335.719536 192.62175 
L 329.579253 194.347767 
L 323.492934 195.867157 
L 317.49062 197.195825 
L 311.596243 198.34919 
L 305.828454 199.342001 
L 294.725372 200.900907 
L 284.252334 201.973584 
L 274.437305 202.646754 
L 265.279442 202.993504 
L 256.759448 203.074662 
L 248.846921 202.940429 
L 241.505424 202.632002 
L 234.695899 202.183064 
L 225.393016 201.304888 
L 217.070582 200.243456 
L 209.611039 199.051874 
L 202.909395 197.769186 
L 196.873406 196.424117 
L 189.723717 194.569377 
L 183.454897 192.67609 
L 177.934543 190.76774 
L 173.053819 188.859811 
L 168.723064 186.962397 
L 163.971307 184.614968 
L 159.846115 182.30118 
L 156.253355 180.024579 
L 153.117233 177.786384 
L 150.376231 175.586408 
L 147.538378 172.995421 
L 145.127001 170.455404 
L 143.085625 167.96336 
L 141.368562 165.516202 
L 139.938505 163.110925 
L 138.76473 160.744701 
L 137.685437 158.030002 
L 136.886944 155.361191 
L 136.341799 152.73497 
L 136.027281 150.148446 
L 135.92442 147.599099 
L 136.045665 144.728292 
L 136.402565 141.900405 
L 136.978376 139.113087 
L 137.758957 136.364369 
L 138.86695 133.316167 
L 140.204299 130.312835 
L 141.75856 127.352844 
L 143.726942 124.113345 
L 145.937246 120.924622 
L 148.37849 117.785773 
L 151.319146 114.389925 
L 154.516333 111.053225 
L 157.960035 107.775503 
L 161.987394 104.267163 
L 166.286834 100.829473 
L 170.848662 97.463035 
L 176.076345 93.897388 
L 181.590769 90.417496 
L 187.381861 87.024726 
L 193.440003 83.720567 
L 200.252189 80.263158 
L 207.352118 76.91242 
L 214.728815 73.670477 
L 222.927281 70.320145 
L 231.41794 67.099844 
L 240.187749 64.012225 
L 249.2237 61.059901 
L 259.140736 58.062761 
L 261.030959 57.518505 
L 261.030959 57.518505 
" clip-path="url(#p755fed4be2)" style="fill: none; stroke: #d62728; stroke-width: 1.5; stroke-linecap: square"/>
   </g>
   <g id="patch_3">
    <path d="M 50.573438 307.872 
L 50.573438 41.76 
" style="fill: none; stroke: #000000; stroke-width: 0.8; stroke-linejoin: miter; stroke-linecap: square"/>
   </g>
   <g id="patch_4">
    <path d="M 407.693438 307.872 
L 407.693438 41.76 
" style="fill: none; stroke: #000000; stroke-width: 0.8; stroke-linejoin: miter; stroke-linecap: square"/>
   </g>
   <g id="patch_5">
    <path d="M 50.573438 307.872 
L 407.693438 307.872 
" style="fill: none; stroke: #000000; stroke-width: 0.8; stroke-linejoin: miter; stroke-linecap: square"/>
   </g>
   <g id="patch_6">
    <path d="M 50.573438 41.76 
L 407.693438 41.76 
" style="fill: none; stroke: #000000; stroke-width: 0.8; stroke-linejoin: miter; stroke-linecap: square"/>
   </g>
   <g id="text_14">
    <g id="patch_7">
     <path d="M 425.549438 102.337163 
L 570.549438 102.337163 
Q 574.549438 102.337163 574.549438 98.337163 
L 574.549438 55.0656 
Q 574.549438 51.0656 570.549438 51.0656 
L 425.549438 51.0656 
Q 421.549438 51.0656 421.549438 55.0656 
L 421.549438 98.337163 
Q 421.549438 102.337163 425.549438 102.337163 
z
" style="fill: #ffffff; opacity: 0.5; stroke: #000000; stroke-linejoin: miter"/>
    </g>
    <!-- Summary -->
    <g transform="translate(425.549438 62.664038) scale(0.1 -0.1)">
     <defs>
      <path id="DejaVuSans-53" d="M 3425 4513 
L 3425 3897 
Q 3066 4069 2747 4153 
Q 2428 4238 2131 4238 
Q 1616 4238 1336 4038 
Q 1056 3838 1056 3469 
Q 1056 3159 1242 3001 
Q 1428 2844 1947 2747 
L 2328 2669 
Q 3034 2534 3370 2195 
Q 3706 1856 3706 1288 
Q 3706 609 3251 259 
Q 2797 -91 1919 -91 
Q 1588 -91 1214 -16 
Q 841 59 441 206 
L 441 856 
Q 825 641 1194 531 
Q 1563 422 1919 422 
Q 2459 422 2753 634 
Q 3047 847 3047 1241 
Q 3047 1584 2836 1778 
Q 2625 1972 2144 2069 
L 1759 2144 
Q 1053 2284 737 2584 
Q 422 2884 422 3419 
Q 422 4038 858 4394 
Q 1294 4750 2059 4750 
Q 2388 4750 2728 4690 
Q 3069 4631 3425 4513 
z
" transform="scale(0.015625)"/>
      <path id="DejaVuSans-75" d="M 544 1381 
L 544 3500 
L 1119 3500 
L 1119 1403 
Q 1119 906 1312 657 
Q 1506 409 1894 409 
Q 2359 409 2629 706 
Q 2900 1003 2900 1516 
L 2900 3500 
L 3475 3500 
L 3475 0 
L 2900 0 
L 2900 538 
Q 2691 219 2414 64 
Q 2138 -91 1772 -91 
Q 1169 -91 856 284 
Q 544 659 544 1381 
z
M 1991 3584 
L 1991 3584 
z
" transform="scale(0.015625)"/>
      <path id="DejaVuSans-61" d="M 2194 1759 
Q 1497 1759 1228 1600 
Q 959 1441 959 1056 
Q 959 750 1161 570 
Q 1363 391 1709 391 
Q 2188 391 2477 730 
Q 2766 1069 2766 1631 
L 2766 1759 
L 2194 1759 
z
M 3341 1997 
L 3341 0 
L 2766 0 
L 2766 531 
Q 2569 213 2275 61 
Q 1981 -91 1556 -91 
Q 1019 -91 701 211 
Q 384 513 384 1019 
Q 384 1609 779 1909 
Q 1175 2209 1959 2209 
L 2766 2209 
L 2766 2266 
Q 2766 2663 2505 2880 
Q 2244 3097 1772 3097 
Q 1472 3097 1187 3025 
Q 903 2953 641 2809 
L 641 3341 
Q 956 3463 1253 3523 
Q 1550 3584 1831 3584 
Q 2591 3584 2966 3190 
Q 3341 2797 3341 1997 
z
" transform="scale(0.015625)"/>
      <path id="DejaVuSans-72" d="M 2631 2963 
Q 2534 3019 2420 3045 
Q 2306 3072 2169 3072 
Q 1681 3072 1420 2755 
Q 1159 2438 1159 1844 
L 1159 0 
L 581 0 
L 581 3500 
L 1159 3500 
L 1159 2956 
Q 1341 3275 1631 3429 
Q 1922 3584 2338 3584 
Q 2397 3584 2469 3576 
Q 2541 3569 2628 3553 
L 2631 2963 
z
" transform="scale(0.015625)"/>
      <path id="DejaVuSans-79" d="M 2059 -325 
Q 1816 -950 1584 -1140 
Q 1353 -1331 966 -1331 
L 506 -1331 
L 506 -850 
L 844 -850 
Q 1081 -850 1212 -737 
Q 1344 -625 1503 -206 
L 1606 56 
L 191 3500 
L 800 3500 
L 1894 763 
L 2988 3500 
L 3597 3500 
L 2059 -325 
z
" transform="scale(0.015625)"/>
     </defs>
     <use xlink:href="#DejaVuSans-53"/>
     <use xlink:href="#DejaVuSans-75" x="63.476562"/>
     <use xlink:href="#DejaVuSans-6d" x="126.855469"/>
     <use xlink:href="#DejaVuSans-6d" x="224.267578"/>
     <use xlink:href="#DejaVuSans-61" x="321.679688"/>
     <use xlink:href="#DejaVuSans-72" x="382.958984"/>
     <use xlink:href="#DejaVuSans-79" x="424.072266"/>
    </g>
    <!-- $Q_I$: 33.7$\pm$2.2 k -->
    <g transform="translate(425.549438 73.86185) scale(0.1 -0.1)">
     <defs>
      <path id="DejaVuSans-Oblique-51" d="M 2309 -84 
Q 2275 -88 2237 -89 
Q 2200 -91 2125 -91 
Q 1250 -91 756 411 
Q 263 913 263 1797 
Q 263 2319 452 2844 
Q 641 3369 978 3788 
Q 1369 4269 1858 4509 
Q 2347 4750 2938 4750 
Q 3794 4750 4287 4245 
Q 4781 3741 4781 2869 
Q 4781 1928 4265 1147 
Q 3750 366 2919 44 
L 3553 -825 
L 2847 -825 
L 2309 -84 
z
M 2919 4238 
Q 2400 4238 2003 3986 
Q 1606 3734 1313 3219 
Q 1125 2891 1026 2522 
Q 928 2153 928 1778 
Q 928 1128 1239 775 
Q 1550 422 2119 422 
Q 2631 422 3032 676 
Q 3434 931 3719 1434 
Q 3909 1772 4009 2142 
Q 4109 2513 4109 2881 
Q 4109 3528 3796 3883 
Q 3484 4238 2919 4238 
z
" transform="scale(0.015625)"/>
      <path id="DejaVuSans-Oblique-49" d="M 1081 4666 
L 1716 4666 
L 806 0 
L 172 0 
L 1081 4666 
z
" transform="scale(0.015625)"/>
      <path id="DejaVuSans-3a" d="M 750 794 
L 1409 794 
L 1409 0 
L 750 0 
L 750 794 
z
M 750 3309 
L 1409 3309 
L 1409 2516 
L 750 2516 
L 750 3309 
z
" transform="scale(0.015625)"/>
      <path id="DejaVuSans-2e" d="M 684 794 
L 1344 794 
L 1344 0 
L 684 0 
L 684 794 
z
" transform="scale(0.015625)"/>
      <path id="DejaVuSans-37" d="M 525 4666 
L 3525 4666 
L 3525 4397 
L 1831 0 
L 1172 0 
L 2766 4134 
L 525 4134 
L 525 4666 
z
" transform="scale(0.015625)"/>
      <path id="DejaVuSans-b1" d="M 2944 4013 
L 2944 2803 
L 4684 2803 
L 4684 2272 
L 2944 2272 
L 2944 1063 
L 2419 1063 
L 2419 2272 
L 678 2272 
L 678 2803 
L 2419 2803 
L 2419 4013 
L 2944 4013 
z
M 678 531 
L 4684 531 
L 4684 0 
L 678 0 
L 678 531 
z
" transform="scale(0.015625)"/>
      <path id="DejaVuSans-6b" d="M 581 4863 
L 1159 4863 
L 1159 1991 
L 2875 3500 
L 3609 3500 
L 1753 1863 
L 3688 0 
L 2938 0 
L 1159 1709 
L 1159 0 
L 581 0 
L 581 4863 
z
" transform="scale(0.015625)"/>
     </defs>
     <use xlink:href="#DejaVuSans-Oblique-51" transform="translate(0 0.015625)"/>
     <use xlink:href="#DejaVuSans-Oblique-49" transform="translate(78.710938 -16.390625) scale(0.7)"/>
     <use xlink:href="#DejaVuSans-3a" transform="translate(102.089844 0.015625)"/>
     <use xlink:href="#DejaVuSans-20" transform="translate(135.78125 0.015625)"/>
     <use xlink:href="#DejaVuSans-33" transform="translate(167.568359 0.015625)"/>
     <use xlink:href="#DejaVuSans-33" transform="translate(231.191406 0.015625)"/>
     <use xlink:href="#DejaVuSans-2e" transform="translate(294.814453 0.015625)"/>
     <use xlink:href="#DejaVuSans-37" transform="translate(318.851562 0.015625)"/>
     <use xlink:href="#DejaVuSans-b1" transform="translate(382.474609 0.015625)"/>
     <use xlink:href="#DejaVuSans-32" transform="translate(466.263672 0.015625)"/>
     <use xlink:href="#DejaVuSans-2e" transform="translate(529.886719 0.015625)"/>
     <use xlink:href="#DejaVuSans-32" transform="translate(556.173828 0.015625)"/>
     <use xlink:href="#DejaVuSans-20" transform="translate(619.796875 0.015625)"/>
     <use xlink:href="#DejaVuSans-6b" transform="translate(651.583984 0.015625)"/>
    </g>
    <!-- $Q_C$: 8.40$\pm$0.12 k -->
    <g transform="translate(425.549438 85.059663) scale(0.1 -0.1)">
     <defs>
      <path id="DejaVuSans-Oblique-43" d="M 4447 4306 
L 4319 3641 
Q 4019 3944 3683 4091 
Q 3347 4238 2956 4238 
Q 2422 4238 2017 3981 
Q 1613 3725 1319 3200 
Q 1131 2863 1032 2486 
Q 934 2109 934 1728 
Q 934 1091 1264 756 
Q 1594 422 2222 422 
Q 2656 422 3056 561 
Q 3456 700 3834 978 
L 3688 231 
Q 3316 72 2936 -9 
Q 2556 -91 2175 -91 
Q 1278 -91 773 396 
Q 269 884 269 1753 
Q 269 2309 461 2846 
Q 653 3384 1013 3828 
Q 1394 4300 1883 4525 
Q 2372 4750 3022 4750 
Q 3422 4750 3780 4639 
Q 4138 4528 4447 4306 
z
" transform="scale(0.015625)"/>
      <path id="DejaVuSans-38" d="M 2034 2216 
Q 1584 2216 1326 1975 
Q 1069 1734 1069 1313 
Q 1069 891 1326 650 
Q 1584 409 2034 409 
Q 2484 409 2743 651 
Q 3003 894 3003 1313 
Q 3003 1734 2745 1975 
Q 2488 2216 2034 2216 
z
M 1403 2484 
Q 997 2584 770 2862 
Q 544 3141 544 3541 
Q 544 4100 942 4425 
Q 1341 4750 2034 4750 
Q 2731 4750 3128 4425 
Q 3525 4100 3525 3541 
Q 3525 3141 3298 2862 
Q 3072 2584 2669 2484 
Q 3125 2378 3379 2068 
Q 3634 1759 3634 1313 
Q 3634 634 3220 271 
Q 2806 -91 2034 -91 
Q 1263 -91 848 271 
Q 434 634 434 1313 
Q 434 1759 690 2068 
Q 947 2378 1403 2484 
z
M 1172 3481 
Q 1172 3119 1398 2916 
Q 1625 2713 2034 2713 
Q 2441 2713 2670 2916 
Q 2900 3119 2900 3481 
Q 2900 3844 2670 4047 
Q 2441 4250 2034 4250 
Q 1625 4250 1398 4047 
Q 1172 3844 1172 3481 
z
" transform="scale(0.015625)"/>
      <path id="DejaVuSans-34" d="M 2419 4116 
L 825 1625 
L 2419 1625 
L 2419 4116 
z
M 2253 4666 
L 3047 4666 
L 3047 1625 
L 3713 1625 
L 3713 1100 
L 3047 1100 
L 3047 0 
L 2419 0 
L 2419 1100 
L 313 1100 
L 313 1709 
L 2253 4666 
z
" transform="scale(0.015625)"/>
     </defs>
     <use xlink:href="#DejaVuSans-Oblique-51" transform="translate(0 0.015625)"/>
     <use xlink:href="#DejaVuSans-Oblique-43" transform="translate(78.710938 -16.390625) scale(0.7)"/>
     <use xlink:href="#DejaVuSans-3a" transform="translate(130.322266 0.015625)"/>
     <use xlink:href="#DejaVuSans-20" transform="translate(164.013672 0.015625)"/>
     <use xlink:href="#DejaVuSans-38" transform="translate(195.800781 0.015625)"/>
     <use xlink:href="#DejaVuSans-2e" transform="translate(259.423828 0.015625)"/>
     <use xlink:href="#DejaVuSans-34" transform="translate(291.210938 0.015625)"/>
     <use xlink:href="#DejaVuSans-30" transform="translate(354.833984 0.015625)"/>
     <use xlink:href="#DejaVuSans-b1" transform="translate(418.457031 0.015625)"/>
     <use xlink:href="#DejaVuSans-30" transform="translate(502.246094 0.015625)"/>
     <use xlink:href="#DejaVuSans-2e" transform="translate(565.869141 0.015625)"/>
     <use xlink:href="#DejaVuSans-31" transform="translate(597.65625 0.015625)"/>
     <use xlink:href="#DejaVuSans-32" transform="translate(661.279297 0.015625)"/>
     <use xlink:href="#DejaVuSans-20" transform="translate(724.902344 0.015625)"/>
     <use xlink:href="#DejaVuSans-6b" transform="translate(756.689453 0.015625)"/>
    </g>
    <!-- $f_{res}$: 5.7209323$\pm$7.5e-06 GHz -->
    <g transform="translate(425.549438 96.257475) scale(0.1 -0.1)">
     <defs>
      <path id="DejaVuSans-Oblique-66" d="M 3059 4863 
L 2969 4384 
L 2419 4384 
Q 2106 4384 1964 4261 
Q 1822 4138 1753 3809 
L 1691 3500 
L 2638 3500 
L 2553 3053 
L 1606 3053 
L 1013 0 
L 434 0 
L 1031 3053 
L 481 3053 
L 563 3500 
L 1113 3500 
L 1159 3744 
Q 1278 4363 1576 4613 
Q 1875 4863 2516 4863 
L 3059 4863 
z
" transform="scale(0.015625)"/>
      <path id="DejaVuSans-Oblique-72" d="M 2853 2969 
Q 2766 3016 2653 3041 
Q 2541 3066 2413 3066 
Q 1953 3066 1609 2717 
Q 1266 2369 1153 1784 
L 800 0 
L 225 0 
L 909 3500 
L 1484 3500 
L 1375 2956 
Q 1603 3259 1920 3421 
Q 2238 3584 2597 3584 
Q 2691 3584 2781 3573 
Q 2872 3563 2963 3538 
L 2853 2969 
z
" transform="scale(0.015625)"/>
      <path id="DejaVuSans-Oblique-65" d="M 3078 2063 
Q 3088 2113 3092 2166 
Q 3097 2219 3097 2272 
Q 3097 2653 2873 2875 
Q 2650 3097 2266 3097 
Q 1838 3097 1509 2826 
Q 1181 2556 1013 2059 
L 3078 2063 
z
M 3578 1613 
L 903 1613 
Q 884 1494 878 1425 
Q 872 1356 872 1306 
Q 872 872 1139 634 
Q 1406 397 1894 397 
Q 2269 397 2603 481 
Q 2938 566 3225 728 
L 3116 159 
Q 2806 34 2476 -28 
Q 2147 -91 1806 -91 
Q 1078 -91 686 257 
Q 294 606 294 1247 
Q 294 1794 489 2264 
Q 684 2734 1063 3103 
Q 1306 3334 1642 3459 
Q 1978 3584 2356 3584 
Q 2950 3584 3301 3228 
Q 3653 2872 3653 2272 
Q 3653 2128 3634 1964 
Q 3616 1800 3578 1613 
z
" transform="scale(0.015625)"/>
      <path id="DejaVuSans-Oblique-73" d="M 3200 3397 
L 3091 2853 
Q 2863 2978 2609 3040 
Q 2356 3103 2088 3103 
Q 1634 3103 1373 2948 
Q 1113 2794 1113 2528 
Q 1113 2219 1719 2053 
Q 1766 2041 1788 2034 
L 1972 1978 
Q 2547 1819 2739 1644 
Q 2931 1469 2931 1166 
Q 2931 609 2489 259 
Q 2047 -91 1331 -91 
Q 1053 -91 747 -37 
Q 441 16 72 128 
L 184 722 
Q 500 559 806 475 
Q 1113 391 1394 391 
Q 1816 391 2080 572 
Q 2344 753 2344 1031 
Q 2344 1331 1650 1516 
L 1591 1531 
L 1394 1581 
Q 956 1697 753 1886 
Q 550 2075 550 2369 
Q 550 2928 970 3256 
Q 1391 3584 2113 3584 
Q 2397 3584 2667 3537 
Q 2938 3491 3200 3397 
z
" transform="scale(0.015625)"/>
      <path id="DejaVuSans-39" d="M 703 97 
L 703 672 
Q 941 559 1184 500 
Q 1428 441 1663 441 
Q 2288 441 2617 861 
Q 2947 1281 2994 2138 
Q 2813 1869 2534 1725 
Q 2256 1581 1919 1581 
Q 1219 1581 811 2004 
Q 403 2428 403 3163 
Q 403 3881 828 4315 
Q 1253 4750 1959 4750 
Q 2769 4750 3195 4129 
Q 3622 3509 3622 2328 
Q 3622 1225 3098 567 
Q 2575 -91 1691 -91 
Q 1453 -91 1209 -44 
Q 966 3 703 97 
z
M 1959 2075 
Q 2384 2075 2632 2365 
Q 2881 2656 2881 3163 
Q 2881 3666 2632 3958 
Q 2384 4250 1959 4250 
Q 1534 4250 1286 3958 
Q 1038 3666 1038 3163 
Q 1038 2656 1286 2365 
Q 1534 2075 1959 2075 
z
" transform="scale(0.015625)"/>
      <path id="DejaVuSans-36" d="M 2113 2584 
Q 1688 2584 1439 2293 
Q 1191 2003 1191 1497 
Q 1191 994 1439 701 
Q 1688 409 2113 409 
Q 2538 409 2786 701 
Q 3034 994 3034 1497 
Q 3034 2003 2786 2293 
Q 2538 2584 2113 2584 
z
M 3366 4563 
L 3366 3988 
Q 3128 4100 2886 4159 
Q 2644 4219 2406 4219 
Q 1781 4219 1451 3797 
Q 1122 3375 1075 2522 
Q 1259 2794 1537 2939 
Q 1816 3084 2150 3084 
Q 2853 3084 3261 2657 
Q 3669 2231 3669 1497 
Q 3669 778 3244 343 
Q 2819 -91 2113 -91 
Q 1303 -91 875 529 
Q 447 1150 447 2328 
Q 447 3434 972 4092 
Q 1497 4750 2381 4750 
Q 2619 4750 2861 4703 
Q 3103 4656 3366 4563 
z
" transform="scale(0.015625)"/>
      <path id="DejaVuSans-47" d="M 3809 666 
L 3809 1919 
L 2778 1919 
L 2778 2438 
L 4434 2438 
L 4434 434 
Q 4069 175 3628 42 
Q 3188 -91 2688 -91 
Q 1594 -91 976 548 
Q 359 1188 359 2328 
Q 359 3472 976 4111 
Q 1594 4750 2688 4750 
Q 3144 4750 3555 4637 
Q 3966 4525 4313 4306 
L 4313 3634 
Q 3963 3931 3569 4081 
Q 3175 4231 2741 4231 
Q 1884 4231 1454 3753 
Q 1025 3275 1025 2328 
Q 1025 1384 1454 906 
Q 1884 428 2741 428 
Q 3075 428 3337 486 
Q 3600 544 3809 666 
z
" transform="scale(0.015625)"/>
      <path id="DejaVuSans-48" d="M 628 4666 
L 1259 4666 
L 1259 2753 
L 3553 2753 
L 3553 4666 
L 4184 4666 
L 4184 0 
L 3553 0 
L 3553 2222 
L 1259 2222 
L 1259 0 
L 628 0 
L 628 4666 
z
" transform="scale(0.015625)"/>
      <path id="DejaVuSans-7a" d="M 353 3500 
L 3084 3500 
L 3084 2975 
L 922 459 
L 3084 459 
L 3084 0 
L 275 0 
L 275 525 
L 2438 3041 
L 353 3041 
L 353 3500 
z
" transform="scale(0.015625)"/>
     </defs>
     <use xlink:href="#DejaVuSans-Oblique-66" transform="translate(0 0.015625)"/>
     <use xlink:href="#DejaVuSans-Oblique-72" transform="translate(35.205078 -16.390625) scale(0.7)"/>
     <use xlink:href="#DejaVuSans-Oblique-65" transform="translate(63.984375 -16.390625) scale(0.7)"/>
     <use xlink:href="#DejaVuSans-Oblique-73" transform="translate(107.050781 -16.390625) scale(0.7)"/>
     <use xlink:href="#DejaVuSans-3a" transform="translate(146.254883 0.015625)"/>
     <use xlink:href="#DejaVuSans-20" transform="translate(179.946289 0.015625)"/>
     <use xlink:href="#DejaVuSans-35" transform="translate(211.733398 0.015625)"/>
     <use xlink:href="#DejaVuSans-2e" transform="translate(275.356445 0.015625)"/>
     <use xlink:href="#DejaVuSans-37" transform="translate(299.393555 0.015625)"/>
     <use xlink:href="#DejaVuSans-32" transform="translate(363.016602 0.015625)"/>
     <use xlink:href="#DejaVuSans-30" transform="translate(426.639648 0.015625)"/>
     <use xlink:href="#DejaVuSans-39" transform="translate(490.262695 0.015625)"/>
     <use xlink:href="#DejaVuSans-33" transform="translate(553.885742 0.015625)"/>
     <use xlink:href="#DejaVuSans-32" transform="translate(617.508789 0.015625)"/>
     <use xlink:href="#DejaVuSans-33" transform="translate(681.131836 0.015625)"/>
     <use xlink:href="#DejaVuSans-b1" transform="translate(744.754883 0.015625)"/>
     <use xlink:href="#DejaVuSans-37" transform="translate(828.543945 0.015625)"/>
     <use xlink:href="#DejaVuSans-2e" transform="translate(892.166992 0.015625)"/>
     <use xlink:href="#DejaVuSans-35" transform="translate(923.954102 0.015625)"/>
     <use xlink:href="#DejaVuSans-65" transform="translate(987.577148 0.015625)"/>
     <use xlink:href="#DejaVuSans-2d" transform="translate(1049.100586 0.015625)"/>
     <use xlink:href="#DejaVuSans-30" transform="translate(1085.18457 0.015625)"/>
     <use xlink:href="#DejaVuSans-36" transform="translate(1148.807617 0.015625)"/>
     <use xlink:href="#DejaVuSans-20" transform="translate(1212.430664 0.015625)"/>
     <use xlink:href="#DejaVuSans-47" transform="translate(1244.217773 0.015625)"/>
     <use xlink:href="#DejaVuSans-48" transform="translate(1321.708008 0.015625)"/>
     <use xlink:href="#DejaVuSans-7a" transform="translate(1396.90332 0.015625)"/>
    </g>
   </g>
  </g>
  <g id="text_15">
   <!-- S21 One-tone -->
   <g transform="translate(182.1225 16.318125) scale(0.12 -0.12)">
    <defs>
     <path id="DejaVuSans-4f" d="M 2522 4238 
Q 1834 4238 1429 3725 
Q 1025 3213 1025 2328 
Q 1025 1447 1429 934 
Q 1834 422 2522 422 
Q 3209 422 3611 934 
Q 4013 1447 4013 2328 
Q 4013 3213 3611 3725 
Q 3209 4238 2522 4238 
z
M 2522 4750 
Q 3503 4750 4090 4092 
Q 4678 3434 4678 2328 
Q 4678 1225 4090 567 
Q 3503 -91 2522 -91 
Q 1538 -91 948 565 
Q 359 1222 359 2328 
Q 359 3434 948 4092 
Q 1538 4750 2522 4750 
z
" transform="scale(0.015625)"/>
     <path id="DejaVuSans-6e" d="M 3513 2113 
L 3513 0 
L 2938 0 
L 2938 2094 
Q 2938 2591 2744 2837 
Q 2550 3084 2163 3084 
Q 1697 3084 1428 2787 
Q 1159 2491 1159 1978 
L 1159 0 
L 581 0 
L 581 3500 
L 1159 3500 
L 1159 2956 
Q 1366 3272 1645 3428 
Q 1925 3584 2291 3584 
Q 2894 3584 3203 3211 
Q 3513 2838 3513 2113 
z
" transform="scale(0.015625)"/>
     <path id="DejaVuSans-74" d="M 1172 4494 
L 1172 3500 
L 2356 3500 
L 2356 3053 
L 1172 3053 
L 1172 1153 
Q 1172 725 1289 603 
Q 1406 481 1766 481 
L 2356 481 
L 2356 0 
L 1766 0 
Q 1100 0 847 248 
Q 594 497 594 1153 
L 594 3053 
L 172 3053 
L 172 3500 
L 594 3500 
L 594 4494 
L 1172 4494 
z
" transform="scale(0.015625)"/>
     <path id="DejaVuSans-6f" d="M 1959 3097 
Q 1497 3097 1228 2736 
Q 959 2375 959 1747 
Q 959 1119 1226 758 
Q 1494 397 1959 397 
Q 2419 397 2687 759 
Q 2956 1122 2956 1747 
Q 2956 2369 2687 2733 
Q 2419 3097 1959 3097 
z
M 1959 3584 
Q 2709 3584 3137 3096 
Q 3566 2609 3566 1747 
Q 3566 888 3137 398 
Q 2709 -91 1959 -91 
Q 1206 -91 779 398 
Q 353 888 353 1747 
Q 353 2609 779 3096 
Q 1206 3584 1959 3584 
z
" transform="scale(0.015625)"/>
    </defs>
    <use xlink:href="#DejaVuSans-53"/>
    <use xlink:href="#DejaVuSans-32" x="63.476562"/>
    <use xlink:href="#DejaVuSans-31" x="127.099609"/>
    <use xlink:href="#DejaVuSans-20" x="190.722656"/>
    <use xlink:href="#DejaVuSans-4f" x="222.509766"/>
    <use xlink:href="#DejaVuSans-6e" x="301.220703"/>
    <use xlink:href="#DejaVuSans-65" x="364.599609"/>
    <use xlink:href="#DejaVuSans-2d" x="426.123047"/>
    <use xlink:href="#DejaVuSans-74" x="462.207031"/>
    <use xlink:href="#DejaVuSans-6f" x="501.416016"/>
    <use xlink:href="#DejaVuSans-6e" x="562.597656"/>
    <use xlink:href="#DejaVuSans-65" x="625.976562"/>
   </g>
   <!-- tuid: 20240318-131813-575-13f3c1 -->
   <g transform="translate(115.741875 29.7555) scale(0.12 -0.12)">
    <defs>
     <path id="DejaVuSans-69" d="M 603 3500 
L 1178 3500 
L 1178 0 
L 603 0 
L 603 3500 
z
M 603 4863 
L 1178 4863 
L 1178 4134 
L 603 4134 
L 603 4863 
z
" transform="scale(0.015625)"/>
     <path id="DejaVuSans-64" d="M 2906 2969 
L 2906 4863 
L 3481 4863 
L 3481 0 
L 2906 0 
L 2906 525 
Q 2725 213 2448 61 
Q 2172 -91 1784 -91 
Q 1150 -91 751 415 
Q 353 922 353 1747 
Q 353 2572 751 3078 
Q 1150 3584 1784 3584 
Q 2172 3584 2448 3432 
Q 2725 3281 2906 2969 
z
M 947 1747 
Q 947 1113 1208 752 
Q 1469 391 1925 391 
Q 2381 391 2643 752 
Q 2906 1113 2906 1747 
Q 2906 2381 2643 2742 
Q 2381 3103 1925 3103 
Q 1469 3103 1208 2742 
Q 947 2381 947 1747 
z
" transform="scale(0.015625)"/>
     <path id="DejaVuSans-66" d="M 2375 4863 
L 2375 4384 
L 1825 4384 
Q 1516 4384 1395 4259 
Q 1275 4134 1275 3809 
L 1275 3500 
L 2222 3500 
L 2222 3053 
L 1275 3053 
L 1275 0 
L 697 0 
L 697 3053 
L 147 3053 
L 147 3500 
L 697 3500 
L 697 3744 
Q 697 4328 969 4595 
Q 1241 4863 1831 4863 
L 2375 4863 
z
" transform="scale(0.015625)"/>
     <path id="DejaVuSans-63" d="M 3122 3366 
L 3122 2828 
Q 2878 2963 2633 3030 
Q 2388 3097 2138 3097 
Q 1578 3097 1268 2742 
Q 959 2388 959 1747 
Q 959 1106 1268 751 
Q 1578 397 2138 397 
Q 2388 397 2633 464 
Q 2878 531 3122 666 
L 3122 134 
Q 2881 22 2623 -34 
Q 2366 -91 2075 -91 
Q 1284 -91 818 406 
Q 353 903 353 1747 
Q 353 2603 823 3093 
Q 1294 3584 2113 3584 
Q 2378 3584 2631 3529 
Q 2884 3475 3122 3366 
z
" transform="scale(0.015625)"/>
    </defs>
    <use xlink:href="#DejaVuSans-74"/>
    <use xlink:href="#DejaVuSans-75" x="39.208984"/>
    <use xlink:href="#DejaVuSans-69" x="102.587891"/>
    <use xlink:href="#DejaVuSans-64" x="130.371094"/>
    <use xlink:href="#DejaVuSans-3a" x="193.847656"/>
    <use xlink:href="#DejaVuSans-20" x="227.539062"/>
    <use xlink:href="#DejaVuSans-32" x="259.326172"/>
    <use xlink:href="#DejaVuSans-30" x="322.949219"/>
    <use xlink:href="#DejaVuSans-32" x="386.572266"/>
    <use xlink:href="#DejaVuSans-34" x="450.195312"/>
    <use xlink:href="#DejaVuSans-30" x="513.818359"/>
    <use xlink:href="#DejaVuSans-33" x="577.441406"/>
    <use xlink:href="#DejaVuSans-31" x="641.064453"/>
    <use xlink:href="#DejaVuSans-38" x="704.6875"/>
    <use xlink:href="#DejaVuSans-2d" x="768.310547"/>
    <use xlink:href="#DejaVuSans-31" x="804.394531"/>
    <use xlink:href="#DejaVuSans-33" x="868.017578"/>
    <use xlink:href="#DejaVuSans-31" x="931.640625"/>
    <use xlink:href="#DejaVuSans-38" x="995.263672"/>
    <use xlink:href="#DejaVuSans-31" x="1058.886719"/>
    <use xlink:href="#DejaVuSans-33" x="1122.509766"/>
    <use xlink:href="#DejaVuSans-2d" x="1186.132812"/>
    <use xlink:href="#DejaVuSans-35" x="1222.216797"/>
    <use xlink:href="#DejaVuSans-37" x="1285.839844"/>
    <use xlink:href="#DejaVuSans-35" x="1349.462891"/>
    <use xlink:href="#DejaVuSans-2d" x="1413.085938"/>
    <use xlink:href="#DejaVuSans-31" x="1449.169922"/>
    <use xlink:href="#DejaVuSans-33" x="1512.792969"/>
    <use xlink:href="#DejaVuSans-66" x="1576.416016"/>
    <use xlink:href="#DejaVuSans-33" x="1611.621094"/>
    <use xlink:href="#DejaVuSans-63" x="1675.244141"/>
    <use xlink:href="#DejaVuSans-31" x="1730.224609"/>
   </g>
  </g>
 </g>
 <defs>
  <clipPath id="p755fed4be2">
   <rect x="50.573438" y="41.76" width="357.12" height="266.112"/>
  </clipPath>
 </defs>
</svg>
