<?xml version="1.0" encoding="utf-8" standalone="no"?>
<!DOCTYPE svg PUBLIC "-//W3C//DTD SVG 1.1//EN"
  "http://www.w3.org/Graphics/SVG/1.1/DTD/svg11.dtd">
<svg xmlns:xlink="http://www.w3.org/1999/xlink" width="556.071312pt" height="345.42825pt" viewBox="0 0 556.071312 345.42825" xmlns="http://www.w3.org/2000/svg" version="1.1">
 <metadata>
  <rdf:RDF xmlns:dc="http://purl.org/dc/elements/1.1/" xmlns:cc="http://creativecommons.org/ns#" xmlns:rdf="http://www.w3.org/1999/02/22-rdf-syntax-ns#">
   <cc:Work>
    <dc:type rdf:resource="http://purl.org/dc/dcmitype/StillImage"/>
    <dc:date>2024-02-21T08:56:17.866528</dc:date>
    <dc:format>image/svg+xml</dc:format>
    <dc:creator>
     <cc:Agent>
      <dc:title>Matplotlib v3.8.2, https://matplotlib.org/</dc:title>
     </cc:Agent>
    </dc:creator>
   </cc:Work>
  </rdf:RDF>
 </metadata>
 <defs>
  <style type="text/css">*{stroke-linejoin: round; stroke-linecap: butt}</style>
 </defs>
 <g id="figure_1">
  <g id="patch_1">
   <path d="M 0 345.42825 
L 556.071312 345.42825 
L 556.071312 -0 
L 0 -0 
L 0 345.42825 
z
" style="fill: none; opacity: 0"/>
  </g>
  <g id="axes_1">
   <g id="patch_2">
    <path d="M 50.595313 162.72 
L 407.715312 162.72 
L 407.715312 41.76 
L 50.595313 41.76 
z
" style="fill: #ffffff"/>
   </g>
   <g id="matplotlib.axis_1">
    <g id="xtick_1">
     <g id="line2d_1">
      <defs>
       <path id="mec8a6473c1" d="M 0 0 
L 0 3.5 
" style="stroke: #000000; stroke-width: 0.8"/>
      </defs>
      <g>
       <use xlink:href="#mec8a6473c1" x="99.293494" y="162.72" style="stroke: #000000; stroke-width: 0.8"/>
      </g>
     </g>
    </g>
    <g id="xtick_2">
     <g id="line2d_2">
      <g>
       <use xlink:href="#mec8a6473c1" x="164.224403" y="162.72" style="stroke: #000000; stroke-width: 0.8"/>
      </g>
     </g>
    </g>
    <g id="xtick_3">
     <g id="line2d_3">
      <g>
       <use xlink:href="#mec8a6473c1" x="229.155312" y="162.72" style="stroke: #000000; stroke-width: 0.8"/>
      </g>
     </g>
    </g>
    <g id="xtick_4">
     <g id="line2d_4">
      <g>
       <use xlink:href="#mec8a6473c1" x="294.086222" y="162.72" style="stroke: #000000; stroke-width: 0.8"/>
      </g>
     </g>
    </g>
    <g id="xtick_5">
     <g id="line2d_5">
      <g>
       <use xlink:href="#mec8a6473c1" x="359.017131" y="162.72" style="stroke: #000000; stroke-width: 0.8"/>
      </g>
     </g>
    </g>
   </g>
   <g id="matplotlib.axis_2">
    <g id="ytick_1">
     <g id="line2d_6">
      <defs>
       <path id="m71c43258e6" d="M 0 0 
L -3.5 0 
" style="stroke: #000000; stroke-width: 0.8"/>
      </defs>
      <g>
       <use xlink:href="#m71c43258e6" x="50.595313" y="160.265962" style="stroke: #000000; stroke-width: 0.8"/>
      </g>
     </g>
     <g id="text_1">
      <!-- 103 -->
      <g transform="translate(24.507813 164.06518) scale(0.1 -0.1)">
       <defs>
        <path id="DejaVuSans-31" d="M 794 531 
L 1825 531 
L 1825 4091 
L 703 3866 
L 703 4441 
L 1819 4666 
L 2450 4666 
L 2450 531 
L 3481 531 
L 3481 0 
L 794 0 
L 794 531 
z
" transform="scale(0.015625)"/>
        <path id="DejaVuSans-30" d="M 2034 4250 
Q 1547 4250 1301 3770 
Q 1056 3291 1056 2328 
Q 1056 1369 1301 889 
Q 1547 409 2034 409 
Q 2525 409 2770 889 
Q 3016 1369 3016 2328 
Q 3016 3291 2770 3770 
Q 2525 4250 2034 4250 
z
M 2034 4750 
Q 2819 4750 3233 4129 
Q 3647 3509 3647 2328 
Q 3647 1150 3233 529 
Q 2819 -91 2034 -91 
Q 1250 -91 836 529 
Q 422 1150 422 2328 
Q 422 3509 836 4129 
Q 1250 4750 2034 4750 
z
" transform="scale(0.015625)"/>
        <path id="DejaVuSans-33" d="M 2597 2516 
Q 3050 2419 3304 2112 
Q 3559 1806 3559 1356 
Q 3559 666 3084 287 
Q 2609 -91 1734 -91 
Q 1441 -91 1130 -33 
Q 819 25 488 141 
L 488 750 
Q 750 597 1062 519 
Q 1375 441 1716 441 
Q 2309 441 2620 675 
Q 2931 909 2931 1356 
Q 2931 1769 2642 2001 
Q 2353 2234 1838 2234 
L 1294 2234 
L 1294 2753 
L 1863 2753 
Q 2328 2753 2575 2939 
Q 2822 3125 2822 3475 
Q 2822 3834 2567 4026 
Q 2313 4219 1838 4219 
Q 1578 4219 1281 4162 
Q 984 4106 628 3988 
L 628 4550 
Q 988 4650 1302 4700 
Q 1616 4750 1894 4750 
Q 2613 4750 3031 4423 
Q 3450 4097 3450 3541 
Q 3450 3153 3228 2886 
Q 3006 2619 2597 2516 
z
" transform="scale(0.015625)"/>
       </defs>
       <use xlink:href="#DejaVuSans-31"/>
       <use xlink:href="#DejaVuSans-30" x="63.623047"/>
       <use xlink:href="#DejaVuSans-33" x="127.246094"/>
      </g>
     </g>
    </g>
    <g id="ytick_2">
     <g id="line2d_7">
      <g>
       <use xlink:href="#m71c43258e6" x="50.595313" y="139.417335" style="stroke: #000000; stroke-width: 0.8"/>
      </g>
     </g>
     <g id="text_2">
      <!-- 104 -->
      <g transform="translate(24.507813 143.216553) scale(0.1 -0.1)">
       <defs>
        <path id="DejaVuSans-34" d="M 2419 4116 
L 825 1625 
L 2419 1625 
L 2419 4116 
z
M 2253 4666 
L 3047 4666 
L 3047 1625 
L 3713 1625 
L 3713 1100 
L 3047 1100 
L 3047 0 
L 2419 0 
L 2419 1100 
L 313 1100 
L 313 1709 
L 2253 4666 
z
" transform="scale(0.015625)"/>
       </defs>
       <use xlink:href="#DejaVuSans-31"/>
       <use xlink:href="#DejaVuSans-30" x="63.623047"/>
       <use xlink:href="#DejaVuSans-34" x="127.246094"/>
      </g>
     </g>
    </g>
    <g id="ytick_3">
     <g id="line2d_8">
      <g>
       <use xlink:href="#m71c43258e6" x="50.595313" y="118.568708" style="stroke: #000000; stroke-width: 0.8"/>
      </g>
     </g>
     <g id="text_3">
      <!-- 105 -->
      <g transform="translate(24.507813 122.367926) scale(0.1 -0.1)">
       <defs>
        <path id="DejaVuSans-35" d="M 691 4666 
L 3169 4666 
L 3169 4134 
L 1269 4134 
L 1269 2991 
Q 1406 3038 1543 3061 
Q 1681 3084 1819 3084 
Q 2600 3084 3056 2656 
Q 3513 2228 3513 1497 
Q 3513 744 3044 326 
Q 2575 -91 1722 -91 
Q 1428 -91 1123 -41 
Q 819 9 494 109 
L 494 744 
Q 775 591 1075 516 
Q 1375 441 1709 441 
Q 2250 441 2565 725 
Q 2881 1009 2881 1497 
Q 2881 1984 2565 2268 
Q 2250 2553 1709 2553 
Q 1456 2553 1204 2497 
Q 953 2441 691 2322 
L 691 4666 
z
" transform="scale(0.015625)"/>
       </defs>
       <use xlink:href="#DejaVuSans-31"/>
       <use xlink:href="#DejaVuSans-30" x="63.623047"/>
       <use xlink:href="#DejaVuSans-35" x="127.246094"/>
      </g>
     </g>
    </g>
    <g id="ytick_4">
     <g id="line2d_9">
      <g>
       <use xlink:href="#m71c43258e6" x="50.595313" y="97.720081" style="stroke: #000000; stroke-width: 0.8"/>
      </g>
     </g>
     <g id="text_4">
      <!-- 106 -->
      <g transform="translate(24.507813 101.519299) scale(0.1 -0.1)">
       <defs>
        <path id="DejaVuSans-36" d="M 2113 2584 
Q 1688 2584 1439 2293 
Q 1191 2003 1191 1497 
Q 1191 994 1439 701 
Q 1688 409 2113 409 
Q 2538 409 2786 701 
Q 3034 994 3034 1497 
Q 3034 2003 2786 2293 
Q 2538 2584 2113 2584 
z
M 3366 4563 
L 3366 3988 
Q 3128 4100 2886 4159 
Q 2644 4219 2406 4219 
Q 1781 4219 1451 3797 
Q 1122 3375 1075 2522 
Q 1259 2794 1537 2939 
Q 1816 3084 2150 3084 
Q 2853 3084 3261 2657 
Q 3669 2231 3669 1497 
Q 3669 778 3244 343 
Q 2819 -91 2113 -91 
Q 1303 -91 875 529 
Q 447 1150 447 2328 
Q 447 3434 972 4092 
Q 1497 4750 2381 4750 
Q 2619 4750 2861 4703 
Q 3103 4656 3366 4563 
z
" transform="scale(0.015625)"/>
       </defs>
       <use xlink:href="#DejaVuSans-31"/>
       <use xlink:href="#DejaVuSans-30" x="63.623047"/>
       <use xlink:href="#DejaVuSans-36" x="127.246094"/>
      </g>
     </g>
    </g>
    <g id="ytick_5">
     <g id="line2d_10">
      <g>
       <use xlink:href="#m71c43258e6" x="50.595313" y="76.871454" style="stroke: #000000; stroke-width: 0.8"/>
      </g>
     </g>
     <g id="text_5">
      <!-- 107 -->
      <g transform="translate(24.507813 80.670672) scale(0.1 -0.1)">
       <defs>
        <path id="DejaVuSans-37" d="M 525 4666 
L 3525 4666 
L 3525 4397 
L 1831 0 
L 1172 0 
L 2766 4134 
L 525 4134 
L 525 4666 
z
" transform="scale(0.015625)"/>
       </defs>
       <use xlink:href="#DejaVuSans-31"/>
       <use xlink:href="#DejaVuSans-30" x="63.623047"/>
       <use xlink:href="#DejaVuSans-37" x="127.246094"/>
      </g>
     </g>
    </g>
    <g id="ytick_6">
     <g id="line2d_11">
      <g>
       <use xlink:href="#m71c43258e6" x="50.595313" y="56.022827" style="stroke: #000000; stroke-width: 0.8"/>
      </g>
     </g>
     <g id="text_6">
      <!-- 108 -->
      <g transform="translate(24.507813 59.822045) scale(0.1 -0.1)">
       <defs>
        <path id="DejaVuSans-38" d="M 2034 2216 
Q 1584 2216 1326 1975 
Q 1069 1734 1069 1313 
Q 1069 891 1326 650 
Q 1584 409 2034 409 
Q 2484 409 2743 651 
Q 3003 894 3003 1313 
Q 3003 1734 2745 1975 
Q 2488 2216 2034 2216 
z
M 1403 2484 
Q 997 2584 770 2862 
Q 544 3141 544 3541 
Q 544 4100 942 4425 
Q 1341 4750 2034 4750 
Q 2731 4750 3128 4425 
Q 3525 4100 3525 3541 
Q 3525 3141 3298 2862 
Q 3072 2584 2669 2484 
Q 3125 2378 3379 2068 
Q 3634 1759 3634 1313 
Q 3634 634 3220 271 
Q 2806 -91 2034 -91 
Q 1263 -91 848 271 
Q 434 634 434 1313 
Q 434 1759 690 2068 
Q 947 2378 1403 2484 
z
M 1172 3481 
Q 1172 3119 1398 2916 
Q 1625 2713 2034 2713 
Q 2441 2713 2670 2916 
Q 2900 3119 2900 3481 
Q 2900 3844 2670 4047 
Q 2441 4250 2034 4250 
Q 1625 4250 1398 4047 
Q 1172 3844 1172 3481 
z
" transform="scale(0.015625)"/>
       </defs>
       <use xlink:href="#DejaVuSans-31"/>
       <use xlink:href="#DejaVuSans-30" x="63.623047"/>
       <use xlink:href="#DejaVuSans-38" x="127.246094"/>
      </g>
     </g>
    </g>
    <g id="text_7">
     <!-- $|S_{21}|$ [mV] -->
     <g transform="translate(18.107813 127.19) rotate(-90) scale(0.1 -0.1)">
      <defs>
       <path id="DejaVuSans-7c" d="M 1344 4891 
L 1344 -1509 
L 813 -1509 
L 813 4891 
L 1344 4891 
z
" transform="scale(0.015625)"/>
       <path id="DejaVuSans-Oblique-53" d="M 3859 4513 
L 3738 3897 
Q 3422 4066 3111 4152 
Q 2800 4238 2509 4238 
Q 1944 4238 1609 3991 
Q 1275 3744 1275 3334 
Q 1275 3109 1398 2989 
Q 1522 2869 2034 2731 
L 2413 2638 
Q 3053 2472 3303 2217 
Q 3553 1963 3553 1503 
Q 3553 797 2998 353 
Q 2444 -91 1538 -91 
Q 1166 -91 791 -17 
Q 416 56 38 206 
L 166 856 
Q 513 641 861 531 
Q 1209 422 1556 422 
Q 2147 422 2503 684 
Q 2859 947 2859 1369 
Q 2859 1650 2717 1795 
Q 2575 1941 2106 2059 
L 1728 2156 
Q 1081 2325 845 2545 
Q 609 2766 609 3163 
Q 609 3859 1145 4304 
Q 1681 4750 2541 4750 
Q 2875 4750 3203 4690 
Q 3531 4631 3859 4513 
z
" transform="scale(0.015625)"/>
       <path id="DejaVuSans-32" d="M 1228 531 
L 3431 531 
L 3431 0 
L 469 0 
L 469 531 
Q 828 903 1448 1529 
Q 2069 2156 2228 2338 
Q 2531 2678 2651 2914 
Q 2772 3150 2772 3378 
Q 2772 3750 2511 3984 
Q 2250 4219 1831 4219 
Q 1534 4219 1204 4116 
Q 875 4013 500 3803 
L 500 4441 
Q 881 4594 1212 4672 
Q 1544 4750 1819 4750 
Q 2544 4750 2975 4387 
Q 3406 4025 3406 3419 
Q 3406 3131 3298 2873 
Q 3191 2616 2906 2266 
Q 2828 2175 2409 1742 
Q 1991 1309 1228 531 
z
" transform="scale(0.015625)"/>
       <path id="DejaVuSans-20" transform="scale(0.015625)"/>
       <path id="DejaVuSans-5b" d="M 550 4863 
L 1875 4863 
L 1875 4416 
L 1125 4416 
L 1125 -397 
L 1875 -397 
L 1875 -844 
L 550 -844 
L 550 4863 
z
" transform="scale(0.015625)"/>
       <path id="DejaVuSans-6d" d="M 3328 2828 
Q 3544 3216 3844 3400 
Q 4144 3584 4550 3584 
Q 5097 3584 5394 3201 
Q 5691 2819 5691 2113 
L 5691 0 
L 5113 0 
L 5113 2094 
Q 5113 2597 4934 2840 
Q 4756 3084 4391 3084 
Q 3944 3084 3684 2787 
Q 3425 2491 3425 1978 
L 3425 0 
L 2847 0 
L 2847 2094 
Q 2847 2600 2669 2842 
Q 2491 3084 2119 3084 
Q 1678 3084 1418 2786 
Q 1159 2488 1159 1978 
L 1159 0 
L 581 0 
L 581 3500 
L 1159 3500 
L 1159 2956 
Q 1356 3278 1631 3431 
Q 1906 3584 2284 3584 
Q 2666 3584 2933 3390 
Q 3200 3197 3328 2828 
z
" transform="scale(0.015625)"/>
       <path id="DejaVuSans-56" d="M 1831 0 
L 50 4666 
L 709 4666 
L 2188 738 
L 3669 4666 
L 4325 4666 
L 2547 0 
L 1831 0 
z
" transform="scale(0.015625)"/>
       <path id="DejaVuSans-5d" d="M 1947 4863 
L 1947 -844 
L 622 -844 
L 622 -397 
L 1369 -397 
L 1369 4416 
L 622 4416 
L 622 4863 
L 1947 4863 
z
" transform="scale(0.015625)"/>
      </defs>
      <use xlink:href="#DejaVuSans-7c" transform="translate(0 0.578125)"/>
      <use xlink:href="#DejaVuSans-Oblique-53" transform="translate(33.691406 0.578125)"/>
      <use xlink:href="#DejaVuSans-32" transform="translate(97.167969 -15.828125) scale(0.7)"/>
      <use xlink:href="#DejaVuSans-31" transform="translate(141.704102 -15.828125) scale(0.7)"/>
      <use xlink:href="#DejaVuSans-7c" transform="translate(188.974609 0.578125)"/>
      <use xlink:href="#DejaVuSans-20" transform="translate(222.666016 0.578125)"/>
      <use xlink:href="#DejaVuSans-5b" transform="translate(254.453125 0.578125)"/>
      <use xlink:href="#DejaVuSans-6d" transform="translate(293.466797 0.578125)"/>
      <use xlink:href="#DejaVuSans-56" transform="translate(390.878906 0.578125)"/>
      <use xlink:href="#DejaVuSans-5d" transform="translate(459.287109 0.578125)"/>
     </g>
    </g>
   </g>
   <g id="line2d_12">
    <path d="M 66.82804 123.658856 
L 70.0909 122.877185 
L 71.722329 124.109602 
L 73.353759 124.134046 
L 74.985189 123.20446 
L 78.248049 123.157318 
L 79.879479 124.148237 
L 81.510909 123.001349 
L 83.142339 123.9771 
L 84.773768 123.826366 
L 86.405198 124.596565 
L 88.036628 122.786961 
L 89.668058 123.625659 
L 91.299488 123.350493 
L 92.930918 123.497421 
L 94.562348 122.659774 
L 96.193778 122.088175 
L 97.825207 121.797673 
L 99.456637 122.943338 
L 101.088067 122.331788 
L 102.719497 123.039225 
L 104.350927 122.286613 
L 105.982357 122.300479 
L 107.613787 121.090983 
L 109.245217 122.316399 
L 110.876646 121.442816 
L 112.508076 121.425364 
L 114.139506 121.881893 
L 115.770936 119.881133 
L 117.402366 121.042349 
L 119.033796 120.996342 
L 120.665226 121.147736 
L 122.296656 119.862158 
L 123.928085 120.414418 
L 125.559515 120.352166 
L 127.190945 120.562995 
L 128.822375 120.161058 
L 130.453805 120.420278 
L 132.085235 119.415185 
L 133.716665 119.146856 
L 135.348095 119.930189 
L 136.979524 119.544315 
L 138.610954 119.735424 
L 140.242384 119.499127 
L 141.873814 118.70363 
L 143.505244 118.620887 
L 145.136674 119.169033 
L 146.768104 118.801608 
L 148.399534 118.137627 
L 150.030963 118.160668 
L 151.662393 117.886953 
L 153.293823 118.024228 
L 154.925253 118.329504 
L 156.556683 117.726776 
L 158.188113 118.59183 
L 159.819543 118.653136 
L 161.450973 117.245626 
L 163.082402 117.568107 
L 164.713832 117.700733 
L 166.345262 118.071628 
L 169.608122 116.56505 
L 171.239552 116.869424 
L 172.870982 117.365465 
L 174.502412 116.623497 
L 176.133842 116.377173 
L 177.765271 116.34243 
L 179.396701 115.717945 
L 181.028131 116.984956 
L 182.659561 115.651818 
L 185.922421 115.3199 
L 187.553851 115.463382 
L 189.185281 115.724495 
L 190.81671 114.445624 
L 192.44814 115.638823 
L 194.07957 115.846538 
L 195.711 113.83414 
L 197.34243 114.072525 
L 198.97386 113.855747 
L 200.60529 114.401582 
L 202.23672 113.000517 
L 203.868149 112.540737 
L 205.499579 112.560725 
L 207.131009 113.099792 
L 210.393869 111.948479 
L 213.656729 113.231213 
L 216.919588 111.507454 
L 218.551018 111.72847 
L 220.182448 109.635389 
L 221.813878 110.589449 
L 223.445308 110.788766 
L 225.076738 110.174929 
L 226.708168 110.322933 
L 228.339598 110.286196 
L 229.971027 109.75473 
L 231.602457 110.75775 
L 233.233887 110.138358 
L 234.865317 109.938488 
L 236.496747 108.903247 
L 238.128177 110.235031 
L 239.759607 108.18819 
L 241.391037 108.46676 
L 243.022466 108.070495 
L 246.285326 106.516781 
L 247.916756 107.802636 
L 249.548186 106.203748 
L 252.811046 107.567949 
L 254.442476 106.092623 
L 257.705335 105.475833 
L 259.336765 106.051179 
L 260.968195 105.097982 
L 262.599625 105.350285 
L 264.231055 105.717763 
L 265.862485 104.720559 
L 267.493915 104.423943 
L 269.125344 104.79065 
L 270.756774 103.982624 
L 272.388204 104.585656 
L 274.019634 104.361215 
L 275.651064 103.622298 
L 277.282494 103.562025 
L 280.545354 103.033078 
L 282.176783 102.25258 
L 283.808213 102.875452 
L 285.439643 101.923109 
L 287.071073 100.806745 
L 288.702503 101.179648 
L 290.333933 101.432757 
L 291.965363 99.71018 
L 293.596793 101.248956 
L 295.228223 100.904111 
L 296.859652 100.013091 
L 298.491082 100.079135 
L 300.122512 99.485066 
L 305.016802 98.212278 
L 306.648232 98.752687 
L 308.279662 98.212056 
L 309.911091 99.058069 
L 311.542521 98.599178 
L 313.173951 97.582639 
L 314.805381 97.570324 
L 316.436811 98.435953 
L 318.068241 97.980401 
L 319.699671 98.294754 
L 321.331101 97.129283 
L 322.96253 96.756389 
L 324.59396 95.800734 
L 326.22539 96.45459 
L 327.85682 96.696687 
L 329.48825 96.18918 
L 331.11968 96.711761 
L 332.75111 97.973845 
L 334.38254 96.434308 
L 336.013969 96.585338 
L 337.645399 96.045316 
L 339.276829 97.405897 
L 340.908259 96.95822 
L 342.539689 97.659845 
L 344.171119 96.98136 
L 345.802549 97.91514 
L 347.433979 96.726037 
L 349.065408 98.71957 
L 350.696838 98.476315 
L 352.328268 97.975256 
L 353.959698 99.400914 
L 355.591128 100.665779 
L 357.222558 101.022418 
L 358.853988 102.747857 
L 360.485418 102.7376 
L 362.116847 103.974358 
L 363.748277 106.015086 
L 365.379707 106.328421 
L 367.011137 108.999545 
L 368.642567 110.061131 
L 370.273997 113.044377 
L 371.905427 114.054366 
L 373.536857 117.274783 
L 375.168286 119.5352 
L 376.799716 122.691792 
L 378.431146 124.783038 
L 380.062576 127.157273 
L 381.694006 132.163692 
L 384.956866 139.132905 
L 386.588296 144.514329 
L 388.219725 148.22126 
L 389.851155 153.670631 
L 391.482585 157.221818 
L 391.482585 157.221818 
" clip-path="url(#pf9f9958185)" style="fill: none; stroke: #1f77b4; stroke-width: 1.5; stroke-linecap: square"/>
    <defs>
     <path id="mf66a2517df" d="M 0 1.5 
C 0.397805 1.5 0.77937 1.341951 1.06066 1.06066 
C 1.341951 0.77937 1.5 0.397805 1.5 0 
C 1.5 -0.397805 1.341951 -0.77937 1.06066 -1.06066 
C 0.77937 -1.341951 0.397805 -1.5 0 -1.5 
C -0.397805 -1.5 -0.77937 -1.341951 -1.06066 -1.06066 
C -1.341951 -0.77937 -1.5 -0.397805 -1.5 0 
C -1.5 0.397805 -1.341951 0.77937 -1.06066 1.06066 
C -0.77937 1.341951 -0.397805 1.5 0 1.5 
z
" style="stroke: #1f77b4"/>
    </defs>
    <g clip-path="url(#pf9f9958185)">
     <use xlink:href="#mf66a2517df" x="66.82804" y="123.658856" style="fill: #1f77b4; stroke: #1f77b4"/>
     <use xlink:href="#mf66a2517df" x="68.45947" y="123.230235" style="fill: #1f77b4; stroke: #1f77b4"/>
     <use xlink:href="#mf66a2517df" x="70.0909" y="122.877185" style="fill: #1f77b4; stroke: #1f77b4"/>
     <use xlink:href="#mf66a2517df" x="71.722329" y="124.109602" style="fill: #1f77b4; stroke: #1f77b4"/>
     <use xlink:href="#mf66a2517df" x="73.353759" y="124.134046" style="fill: #1f77b4; stroke: #1f77b4"/>
     <use xlink:href="#mf66a2517df" x="74.985189" y="123.20446" style="fill: #1f77b4; stroke: #1f77b4"/>
     <use xlink:href="#mf66a2517df" x="76.616619" y="123.231474" style="fill: #1f77b4; stroke: #1f77b4"/>
     <use xlink:href="#mf66a2517df" x="78.248049" y="123.157318" style="fill: #1f77b4; stroke: #1f77b4"/>
     <use xlink:href="#mf66a2517df" x="79.879479" y="124.148237" style="fill: #1f77b4; stroke: #1f77b4"/>
     <use xlink:href="#mf66a2517df" x="81.510909" y="123.001349" style="fill: #1f77b4; stroke: #1f77b4"/>
     <use xlink:href="#mf66a2517df" x="83.142339" y="123.9771" style="fill: #1f77b4; stroke: #1f77b4"/>
     <use xlink:href="#mf66a2517df" x="84.773768" y="123.826366" style="fill: #1f77b4; stroke: #1f77b4"/>
     <use xlink:href="#mf66a2517df" x="86.405198" y="124.596565" style="fill: #1f77b4; stroke: #1f77b4"/>
     <use xlink:href="#mf66a2517df" x="88.036628" y="122.786961" style="fill: #1f77b4; stroke: #1f77b4"/>
     <use xlink:href="#mf66a2517df" x="89.668058" y="123.625659" style="fill: #1f77b4; stroke: #1f77b4"/>
     <use xlink:href="#mf66a2517df" x="91.299488" y="123.350493" style="fill: #1f77b4; stroke: #1f77b4"/>
     <use xlink:href="#mf66a2517df" x="92.930918" y="123.497421" style="fill: #1f77b4; stroke: #1f77b4"/>
     <use xlink:href="#mf66a2517df" x="94.562348" y="122.659774" style="fill: #1f77b4; stroke: #1f77b4"/>
     <use xlink:href="#mf66a2517df" x="96.193778" y="122.088175" style="fill: #1f77b4; stroke: #1f77b4"/>
     <use xlink:href="#mf66a2517df" x="97.825207" y="121.797673" style="fill: #1f77b4; stroke: #1f77b4"/>
     <use xlink:href="#mf66a2517df" x="99.456637" y="122.943338" style="fill: #1f77b4; stroke: #1f77b4"/>
     <use xlink:href="#mf66a2517df" x="101.088067" y="122.331788" style="fill: #1f77b4; stroke: #1f77b4"/>
     <use xlink:href="#mf66a2517df" x="102.719497" y="123.039225" style="fill: #1f77b4; stroke: #1f77b4"/>
     <use xlink:href="#mf66a2517df" x="104.350927" y="122.286613" style="fill: #1f77b4; stroke: #1f77b4"/>
     <use xlink:href="#mf66a2517df" x="105.982357" y="122.300479" style="fill: #1f77b4; stroke: #1f77b4"/>
     <use xlink:href="#mf66a2517df" x="107.613787" y="121.090983" style="fill: #1f77b4; stroke: #1f77b4"/>
     <use xlink:href="#mf66a2517df" x="109.245217" y="122.316399" style="fill: #1f77b4; stroke: #1f77b4"/>
     <use xlink:href="#mf66a2517df" x="110.876646" y="121.442816" style="fill: #1f77b4; stroke: #1f77b4"/>
     <use xlink:href="#mf66a2517df" x="112.508076" y="121.425364" style="fill: #1f77b4; stroke: #1f77b4"/>
     <use xlink:href="#mf66a2517df" x="114.139506" y="121.881893" style="fill: #1f77b4; stroke: #1f77b4"/>
     <use xlink:href="#mf66a2517df" x="115.770936" y="119.881133" style="fill: #1f77b4; stroke: #1f77b4"/>
     <use xlink:href="#mf66a2517df" x="117.402366" y="121.042349" style="fill: #1f77b4; stroke: #1f77b4"/>
     <use xlink:href="#mf66a2517df" x="119.033796" y="120.996342" style="fill: #1f77b4; stroke: #1f77b4"/>
     <use xlink:href="#mf66a2517df" x="120.665226" y="121.147736" style="fill: #1f77b4; stroke: #1f77b4"/>
     <use xlink:href="#mf66a2517df" x="122.296656" y="119.862158" style="fill: #1f77b4; stroke: #1f77b4"/>
     <use xlink:href="#mf66a2517df" x="123.928085" y="120.414418" style="fill: #1f77b4; stroke: #1f77b4"/>
     <use xlink:href="#mf66a2517df" x="125.559515" y="120.352166" style="fill: #1f77b4; stroke: #1f77b4"/>
     <use xlink:href="#mf66a2517df" x="127.190945" y="120.562995" style="fill: #1f77b4; stroke: #1f77b4"/>
     <use xlink:href="#mf66a2517df" x="128.822375" y="120.161058" style="fill: #1f77b4; stroke: #1f77b4"/>
     <use xlink:href="#mf66a2517df" x="130.453805" y="120.420278" style="fill: #1f77b4; stroke: #1f77b4"/>
     <use xlink:href="#mf66a2517df" x="132.085235" y="119.415185" style="fill: #1f77b4; stroke: #1f77b4"/>
     <use xlink:href="#mf66a2517df" x="133.716665" y="119.146856" style="fill: #1f77b4; stroke: #1f77b4"/>
     <use xlink:href="#mf66a2517df" x="135.348095" y="119.930189" style="fill: #1f77b4; stroke: #1f77b4"/>
     <use xlink:href="#mf66a2517df" x="136.979524" y="119.544315" style="fill: #1f77b4; stroke: #1f77b4"/>
     <use xlink:href="#mf66a2517df" x="138.610954" y="119.735424" style="fill: #1f77b4; stroke: #1f77b4"/>
     <use xlink:href="#mf66a2517df" x="140.242384" y="119.499127" style="fill: #1f77b4; stroke: #1f77b4"/>
     <use xlink:href="#mf66a2517df" x="141.873814" y="118.70363" style="fill: #1f77b4; stroke: #1f77b4"/>
     <use xlink:href="#mf66a2517df" x="143.505244" y="118.620887" style="fill: #1f77b4; stroke: #1f77b4"/>
     <use xlink:href="#mf66a2517df" x="145.136674" y="119.169033" style="fill: #1f77b4; stroke: #1f77b4"/>
     <use xlink:href="#mf66a2517df" x="146.768104" y="118.801608" style="fill: #1f77b4; stroke: #1f77b4"/>
     <use xlink:href="#mf66a2517df" x="148.399534" y="118.137627" style="fill: #1f77b4; stroke: #1f77b4"/>
     <use xlink:href="#mf66a2517df" x="150.030963" y="118.160668" style="fill: #1f77b4; stroke: #1f77b4"/>
     <use xlink:href="#mf66a2517df" x="151.662393" y="117.886953" style="fill: #1f77b4; stroke: #1f77b4"/>
     <use xlink:href="#mf66a2517df" x="153.293823" y="118.024228" style="fill: #1f77b4; stroke: #1f77b4"/>
     <use xlink:href="#mf66a2517df" x="154.925253" y="118.329504" style="fill: #1f77b4; stroke: #1f77b4"/>
     <use xlink:href="#mf66a2517df" x="156.556683" y="117.726776" style="fill: #1f77b4; stroke: #1f77b4"/>
     <use xlink:href="#mf66a2517df" x="158.188113" y="118.59183" style="fill: #1f77b4; stroke: #1f77b4"/>
     <use xlink:href="#mf66a2517df" x="159.819543" y="118.653136" style="fill: #1f77b4; stroke: #1f77b4"/>
     <use xlink:href="#mf66a2517df" x="161.450973" y="117.245626" style="fill: #1f77b4; stroke: #1f77b4"/>
     <use xlink:href="#mf66a2517df" x="163.082402" y="117.568107" style="fill: #1f77b4; stroke: #1f77b4"/>
     <use xlink:href="#mf66a2517df" x="164.713832" y="117.700733" style="fill: #1f77b4; stroke: #1f77b4"/>
     <use xlink:href="#mf66a2517df" x="166.345262" y="118.071628" style="fill: #1f77b4; stroke: #1f77b4"/>
     <use xlink:href="#mf66a2517df" x="167.976692" y="117.292675" style="fill: #1f77b4; stroke: #1f77b4"/>
     <use xlink:href="#mf66a2517df" x="169.608122" y="116.56505" style="fill: #1f77b4; stroke: #1f77b4"/>
     <use xlink:href="#mf66a2517df" x="171.239552" y="116.869424" style="fill: #1f77b4; stroke: #1f77b4"/>
     <use xlink:href="#mf66a2517df" x="172.870982" y="117.365465" style="fill: #1f77b4; stroke: #1f77b4"/>
     <use xlink:href="#mf66a2517df" x="174.502412" y="116.623497" style="fill: #1f77b4; stroke: #1f77b4"/>
     <use xlink:href="#mf66a2517df" x="176.133842" y="116.377173" style="fill: #1f77b4; stroke: #1f77b4"/>
     <use xlink:href="#mf66a2517df" x="177.765271" y="116.34243" style="fill: #1f77b4; stroke: #1f77b4"/>
     <use xlink:href="#mf66a2517df" x="179.396701" y="115.717945" style="fill: #1f77b4; stroke: #1f77b4"/>
     <use xlink:href="#mf66a2517df" x="181.028131" y="116.984956" style="fill: #1f77b4; stroke: #1f77b4"/>
     <use xlink:href="#mf66a2517df" x="182.659561" y="115.651818" style="fill: #1f77b4; stroke: #1f77b4"/>
     <use xlink:href="#mf66a2517df" x="184.290991" y="115.44407" style="fill: #1f77b4; stroke: #1f77b4"/>
     <use xlink:href="#mf66a2517df" x="185.922421" y="115.3199" style="fill: #1f77b4; stroke: #1f77b4"/>
     <use xlink:href="#mf66a2517df" x="187.553851" y="115.463382" style="fill: #1f77b4; stroke: #1f77b4"/>
     <use xlink:href="#mf66a2517df" x="189.185281" y="115.724495" style="fill: #1f77b4; stroke: #1f77b4"/>
     <use xlink:href="#mf66a2517df" x="190.81671" y="114.445624" style="fill: #1f77b4; stroke: #1f77b4"/>
     <use xlink:href="#mf66a2517df" x="192.44814" y="115.638823" style="fill: #1f77b4; stroke: #1f77b4"/>
     <use xlink:href="#mf66a2517df" x="194.07957" y="115.846538" style="fill: #1f77b4; stroke: #1f77b4"/>
     <use xlink:href="#mf66a2517df" x="195.711" y="113.83414" style="fill: #1f77b4; stroke: #1f77b4"/>
     <use xlink:href="#mf66a2517df" x="197.34243" y="114.072525" style="fill: #1f77b4; stroke: #1f77b4"/>
     <use xlink:href="#mf66a2517df" x="198.97386" y="113.855747" style="fill: #1f77b4; stroke: #1f77b4"/>
     <use xlink:href="#mf66a2517df" x="200.60529" y="114.401582" style="fill: #1f77b4; stroke: #1f77b4"/>
     <use xlink:href="#mf66a2517df" x="202.23672" y="113.000517" style="fill: #1f77b4; stroke: #1f77b4"/>
     <use xlink:href="#mf66a2517df" x="203.868149" y="112.540737" style="fill: #1f77b4; stroke: #1f77b4"/>
     <use xlink:href="#mf66a2517df" x="205.499579" y="112.560725" style="fill: #1f77b4; stroke: #1f77b4"/>
     <use xlink:href="#mf66a2517df" x="207.131009" y="113.099792" style="fill: #1f77b4; stroke: #1f77b4"/>
     <use xlink:href="#mf66a2517df" x="208.762439" y="112.487175" style="fill: #1f77b4; stroke: #1f77b4"/>
     <use xlink:href="#mf66a2517df" x="210.393869" y="111.948479" style="fill: #1f77b4; stroke: #1f77b4"/>
     <use xlink:href="#mf66a2517df" x="212.025299" y="112.562644" style="fill: #1f77b4; stroke: #1f77b4"/>
     <use xlink:href="#mf66a2517df" x="213.656729" y="113.231213" style="fill: #1f77b4; stroke: #1f77b4"/>
     <use xlink:href="#mf66a2517df" x="215.288159" y="112.367468" style="fill: #1f77b4; stroke: #1f77b4"/>
     <use xlink:href="#mf66a2517df" x="216.919588" y="111.507454" style="fill: #1f77b4; stroke: #1f77b4"/>
     <use xlink:href="#mf66a2517df" x="218.551018" y="111.72847" style="fill: #1f77b4; stroke: #1f77b4"/>
     <use xlink:href="#mf66a2517df" x="220.182448" y="109.635389" style="fill: #1f77b4; stroke: #1f77b4"/>
     <use xlink:href="#mf66a2517df" x="221.813878" y="110.589449" style="fill: #1f77b4; stroke: #1f77b4"/>
     <use xlink:href="#mf66a2517df" x="223.445308" y="110.788766" style="fill: #1f77b4; stroke: #1f77b4"/>
     <use xlink:href="#mf66a2517df" x="225.076738" y="110.174929" style="fill: #1f77b4; stroke: #1f77b4"/>
     <use xlink:href="#mf66a2517df" x="226.708168" y="110.322933" style="fill: #1f77b4; stroke: #1f77b4"/>
     <use xlink:href="#mf66a2517df" x="228.339598" y="110.286196" style="fill: #1f77b4; stroke: #1f77b4"/>
     <use xlink:href="#mf66a2517df" x="229.971027" y="109.75473" style="fill: #1f77b4; stroke: #1f77b4"/>
     <use xlink:href="#mf66a2517df" x="231.602457" y="110.75775" style="fill: #1f77b4; stroke: #1f77b4"/>
     <use xlink:href="#mf66a2517df" x="233.233887" y="110.138358" style="fill: #1f77b4; stroke: #1f77b4"/>
     <use xlink:href="#mf66a2517df" x="234.865317" y="109.938488" style="fill: #1f77b4; stroke: #1f77b4"/>
     <use xlink:href="#mf66a2517df" x="236.496747" y="108.903247" style="fill: #1f77b4; stroke: #1f77b4"/>
     <use xlink:href="#mf66a2517df" x="238.128177" y="110.235031" style="fill: #1f77b4; stroke: #1f77b4"/>
     <use xlink:href="#mf66a2517df" x="239.759607" y="108.18819" style="fill: #1f77b4; stroke: #1f77b4"/>
     <use xlink:href="#mf66a2517df" x="241.391037" y="108.46676" style="fill: #1f77b4; stroke: #1f77b4"/>
     <use xlink:href="#mf66a2517df" x="243.022466" y="108.070495" style="fill: #1f77b4; stroke: #1f77b4"/>
     <use xlink:href="#mf66a2517df" x="244.653896" y="107.28011" style="fill: #1f77b4; stroke: #1f77b4"/>
     <use xlink:href="#mf66a2517df" x="246.285326" y="106.516781" style="fill: #1f77b4; stroke: #1f77b4"/>
     <use xlink:href="#mf66a2517df" x="247.916756" y="107.802636" style="fill: #1f77b4; stroke: #1f77b4"/>
     <use xlink:href="#mf66a2517df" x="249.548186" y="106.203748" style="fill: #1f77b4; stroke: #1f77b4"/>
     <use xlink:href="#mf66a2517df" x="251.179616" y="106.871364" style="fill: #1f77b4; stroke: #1f77b4"/>
     <use xlink:href="#mf66a2517df" x="252.811046" y="107.567949" style="fill: #1f77b4; stroke: #1f77b4"/>
     <use xlink:href="#mf66a2517df" x="254.442476" y="106.092623" style="fill: #1f77b4; stroke: #1f77b4"/>
     <use xlink:href="#mf66a2517df" x="256.073905" y="105.74381" style="fill: #1f77b4; stroke: #1f77b4"/>
     <use xlink:href="#mf66a2517df" x="257.705335" y="105.475833" style="fill: #1f77b4; stroke: #1f77b4"/>
     <use xlink:href="#mf66a2517df" x="259.336765" y="106.051179" style="fill: #1f77b4; stroke: #1f77b4"/>
     <use xlink:href="#mf66a2517df" x="260.968195" y="105.097982" style="fill: #1f77b4; stroke: #1f77b4"/>
     <use xlink:href="#mf66a2517df" x="262.599625" y="105.350285" style="fill: #1f77b4; stroke: #1f77b4"/>
     <use xlink:href="#mf66a2517df" x="264.231055" y="105.717763" style="fill: #1f77b4; stroke: #1f77b4"/>
     <use xlink:href="#mf66a2517df" x="265.862485" y="104.720559" style="fill: #1f77b4; stroke: #1f77b4"/>
     <use xlink:href="#mf66a2517df" x="267.493915" y="104.423943" style="fill: #1f77b4; stroke: #1f77b4"/>
     <use xlink:href="#mf66a2517df" x="269.125344" y="104.79065" style="fill: #1f77b4; stroke: #1f77b4"/>
     <use xlink:href="#mf66a2517df" x="270.756774" y="103.982624" style="fill: #1f77b4; stroke: #1f77b4"/>
     <use xlink:href="#mf66a2517df" x="272.388204" y="104.585656" style="fill: #1f77b4; stroke: #1f77b4"/>
     <use xlink:href="#mf66a2517df" x="274.019634" y="104.361215" style="fill: #1f77b4; stroke: #1f77b4"/>
     <use xlink:href="#mf66a2517df" x="275.651064" y="103.622298" style="fill: #1f77b4; stroke: #1f77b4"/>
     <use xlink:href="#mf66a2517df" x="277.282494" y="103.562025" style="fill: #1f77b4; stroke: #1f77b4"/>
     <use xlink:href="#mf66a2517df" x="278.913924" y="103.275187" style="fill: #1f77b4; stroke: #1f77b4"/>
     <use xlink:href="#mf66a2517df" x="280.545354" y="103.033078" style="fill: #1f77b4; stroke: #1f77b4"/>
     <use xlink:href="#mf66a2517df" x="282.176783" y="102.25258" style="fill: #1f77b4; stroke: #1f77b4"/>
     <use xlink:href="#mf66a2517df" x="283.808213" y="102.875452" style="fill: #1f77b4; stroke: #1f77b4"/>
     <use xlink:href="#mf66a2517df" x="285.439643" y="101.923109" style="fill: #1f77b4; stroke: #1f77b4"/>
     <use xlink:href="#mf66a2517df" x="287.071073" y="100.806745" style="fill: #1f77b4; stroke: #1f77b4"/>
     <use xlink:href="#mf66a2517df" x="288.702503" y="101.179648" style="fill: #1f77b4; stroke: #1f77b4"/>
     <use xlink:href="#mf66a2517df" x="290.333933" y="101.432757" style="fill: #1f77b4; stroke: #1f77b4"/>
     <use xlink:href="#mf66a2517df" x="291.965363" y="99.71018" style="fill: #1f77b4; stroke: #1f77b4"/>
     <use xlink:href="#mf66a2517df" x="293.596793" y="101.248956" style="fill: #1f77b4; stroke: #1f77b4"/>
     <use xlink:href="#mf66a2517df" x="295.228223" y="100.904111" style="fill: #1f77b4; stroke: #1f77b4"/>
     <use xlink:href="#mf66a2517df" x="296.859652" y="100.013091" style="fill: #1f77b4; stroke: #1f77b4"/>
     <use xlink:href="#mf66a2517df" x="298.491082" y="100.079135" style="fill: #1f77b4; stroke: #1f77b4"/>
     <use xlink:href="#mf66a2517df" x="300.122512" y="99.485066" style="fill: #1f77b4; stroke: #1f77b4"/>
     <use xlink:href="#mf66a2517df" x="301.753942" y="99.090193" style="fill: #1f77b4; stroke: #1f77b4"/>
     <use xlink:href="#mf66a2517df" x="303.385372" y="98.764486" style="fill: #1f77b4; stroke: #1f77b4"/>
     <use xlink:href="#mf66a2517df" x="305.016802" y="98.212278" style="fill: #1f77b4; stroke: #1f77b4"/>
     <use xlink:href="#mf66a2517df" x="306.648232" y="98.752687" style="fill: #1f77b4; stroke: #1f77b4"/>
     <use xlink:href="#mf66a2517df" x="308.279662" y="98.212056" style="fill: #1f77b4; stroke: #1f77b4"/>
     <use xlink:href="#mf66a2517df" x="309.911091" y="99.058069" style="fill: #1f77b4; stroke: #1f77b4"/>
     <use xlink:href="#mf66a2517df" x="311.542521" y="98.599178" style="fill: #1f77b4; stroke: #1f77b4"/>
     <use xlink:href="#mf66a2517df" x="313.173951" y="97.582639" style="fill: #1f77b4; stroke: #1f77b4"/>
     <use xlink:href="#mf66a2517df" x="314.805381" y="97.570324" style="fill: #1f77b4; stroke: #1f77b4"/>
     <use xlink:href="#mf66a2517df" x="316.436811" y="98.435953" style="fill: #1f77b4; stroke: #1f77b4"/>
     <use xlink:href="#mf66a2517df" x="318.068241" y="97.980401" style="fill: #1f77b4; stroke: #1f77b4"/>
     <use xlink:href="#mf66a2517df" x="319.699671" y="98.294754" style="fill: #1f77b4; stroke: #1f77b4"/>
     <use xlink:href="#mf66a2517df" x="321.331101" y="97.129283" style="fill: #1f77b4; stroke: #1f77b4"/>
     <use xlink:href="#mf66a2517df" x="322.96253" y="96.756389" style="fill: #1f77b4; stroke: #1f77b4"/>
     <use xlink:href="#mf66a2517df" x="324.59396" y="95.800734" style="fill: #1f77b4; stroke: #1f77b4"/>
     <use xlink:href="#mf66a2517df" x="326.22539" y="96.45459" style="fill: #1f77b4; stroke: #1f77b4"/>
     <use xlink:href="#mf66a2517df" x="327.85682" y="96.696687" style="fill: #1f77b4; stroke: #1f77b4"/>
     <use xlink:href="#mf66a2517df" x="329.48825" y="96.18918" style="fill: #1f77b4; stroke: #1f77b4"/>
     <use xlink:href="#mf66a2517df" x="331.11968" y="96.711761" style="fill: #1f77b4; stroke: #1f77b4"/>
     <use xlink:href="#mf66a2517df" x="332.75111" y="97.973845" style="fill: #1f77b4; stroke: #1f77b4"/>
     <use xlink:href="#mf66a2517df" x="334.38254" y="96.434308" style="fill: #1f77b4; stroke: #1f77b4"/>
     <use xlink:href="#mf66a2517df" x="336.013969" y="96.585338" style="fill: #1f77b4; stroke: #1f77b4"/>
     <use xlink:href="#mf66a2517df" x="337.645399" y="96.045316" style="fill: #1f77b4; stroke: #1f77b4"/>
     <use xlink:href="#mf66a2517df" x="339.276829" y="97.405897" style="fill: #1f77b4; stroke: #1f77b4"/>
     <use xlink:href="#mf66a2517df" x="340.908259" y="96.95822" style="fill: #1f77b4; stroke: #1f77b4"/>
     <use xlink:href="#mf66a2517df" x="342.539689" y="97.659845" style="fill: #1f77b4; stroke: #1f77b4"/>
     <use xlink:href="#mf66a2517df" x="344.171119" y="96.98136" style="fill: #1f77b4; stroke: #1f77b4"/>
     <use xlink:href="#mf66a2517df" x="345.802549" y="97.91514" style="fill: #1f77b4; stroke: #1f77b4"/>
     <use xlink:href="#mf66a2517df" x="347.433979" y="96.726037" style="fill: #1f77b4; stroke: #1f77b4"/>
     <use xlink:href="#mf66a2517df" x="349.065408" y="98.71957" style="fill: #1f77b4; stroke: #1f77b4"/>
     <use xlink:href="#mf66a2517df" x="350.696838" y="98.476315" style="fill: #1f77b4; stroke: #1f77b4"/>
     <use xlink:href="#mf66a2517df" x="352.328268" y="97.975256" style="fill: #1f77b4; stroke: #1f77b4"/>
     <use xlink:href="#mf66a2517df" x="353.959698" y="99.400914" style="fill: #1f77b4; stroke: #1f77b4"/>
     <use xlink:href="#mf66a2517df" x="355.591128" y="100.665779" style="fill: #1f77b4; stroke: #1f77b4"/>
     <use xlink:href="#mf66a2517df" x="357.222558" y="101.022418" style="fill: #1f77b4; stroke: #1f77b4"/>
     <use xlink:href="#mf66a2517df" x="358.853988" y="102.747857" style="fill: #1f77b4; stroke: #1f77b4"/>
     <use xlink:href="#mf66a2517df" x="360.485418" y="102.7376" style="fill: #1f77b4; stroke: #1f77b4"/>
     <use xlink:href="#mf66a2517df" x="362.116847" y="103.974358" style="fill: #1f77b4; stroke: #1f77b4"/>
     <use xlink:href="#mf66a2517df" x="363.748277" y="106.015086" style="fill: #1f77b4; stroke: #1f77b4"/>
     <use xlink:href="#mf66a2517df" x="365.379707" y="106.328421" style="fill: #1f77b4; stroke: #1f77b4"/>
     <use xlink:href="#mf66a2517df" x="367.011137" y="108.999545" style="fill: #1f77b4; stroke: #1f77b4"/>
     <use xlink:href="#mf66a2517df" x="368.642567" y="110.061131" style="fill: #1f77b4; stroke: #1f77b4"/>
     <use xlink:href="#mf66a2517df" x="370.273997" y="113.044377" style="fill: #1f77b4; stroke: #1f77b4"/>
     <use xlink:href="#mf66a2517df" x="371.905427" y="114.054366" style="fill: #1f77b4; stroke: #1f77b4"/>
     <use xlink:href="#mf66a2517df" x="373.536857" y="117.274783" style="fill: #1f77b4; stroke: #1f77b4"/>
     <use xlink:href="#mf66a2517df" x="375.168286" y="119.5352" style="fill: #1f77b4; stroke: #1f77b4"/>
     <use xlink:href="#mf66a2517df" x="376.799716" y="122.691792" style="fill: #1f77b4; stroke: #1f77b4"/>
     <use xlink:href="#mf66a2517df" x="378.431146" y="124.783038" style="fill: #1f77b4; stroke: #1f77b4"/>
     <use xlink:href="#mf66a2517df" x="380.062576" y="127.157273" style="fill: #1f77b4; stroke: #1f77b4"/>
     <use xlink:href="#mf66a2517df" x="381.694006" y="132.163692" style="fill: #1f77b4; stroke: #1f77b4"/>
     <use xlink:href="#mf66a2517df" x="383.325436" y="135.634808" style="fill: #1f77b4; stroke: #1f77b4"/>
     <use xlink:href="#mf66a2517df" x="384.956866" y="139.132905" style="fill: #1f77b4; stroke: #1f77b4"/>
     <use xlink:href="#mf66a2517df" x="386.588296" y="144.514329" style="fill: #1f77b4; stroke: #1f77b4"/>
     <use xlink:href="#mf66a2517df" x="388.219725" y="148.22126" style="fill: #1f77b4; stroke: #1f77b4"/>
     <use xlink:href="#mf66a2517df" x="389.851155" y="153.670631" style="fill: #1f77b4; stroke: #1f77b4"/>
     <use xlink:href="#mf66a2517df" x="391.482585" y="157.221818" style="fill: #1f77b4; stroke: #1f77b4"/>
    </g>
   </g>
   <g id="line2d_13">
    <path d="M 66.82804 106.682099 
L 72.677671 112.322454 
L 78.202323 117.345722 
L 83.401996 121.786847 
L 88.601668 125.936035 
L 93.476361 129.550379 
L 98.351054 132.889987 
L 103.225747 135.948644 
L 107.77546 138.545919 
L 112.325173 140.892219 
L 116.874887 142.986529 
L 121.4246 144.829096 
L 125.974313 146.421379 
L 130.524027 147.765994 
L 135.07374 148.866648 
L 139.623453 149.728057 
L 144.173167 150.355862 
L 148.72288 150.756539 
L 153.272593 150.937304 
L 157.822307 150.906014 
L 162.697 150.646731 
L 167.571693 150.164576 
L 172.771365 149.417436 
L 177.971037 148.443862 
L 183.495689 147.177535 
L 189.345321 145.595378 
L 195.194952 143.78534 
L 201.369563 141.650152 
L 208.194133 139.04969 
L 215.343683 136.086899 
L 223.143191 132.615333 
L 231.917638 128.460782 
L 241.992004 123.432518 
L 254.016246 117.167006 
L 269.940243 108.599858 
L 316.412315 83.453455 
L 332.011332 75.343825 
L 346.310431 68.155962 
L 359.959571 61.541514 
L 373.283732 55.331885 
L 386.282913 49.516516 
L 391.482585 47.258182 
L 391.482585 47.258182 
" clip-path="url(#pf9f9958185)" style="fill: none; stroke: #d62728; stroke-width: 1.5; stroke-linecap: square"/>
   </g>
   <g id="patch_3">
    <path d="M 50.595313 162.72 
L 50.595313 41.76 
" style="fill: none; stroke: #000000; stroke-width: 0.8; stroke-linejoin: miter; stroke-linecap: square"/>
   </g>
   <g id="patch_4">
    <path d="M 407.715312 162.72 
L 407.715312 41.76 
" style="fill: none; stroke: #000000; stroke-width: 0.8; stroke-linejoin: miter; stroke-linecap: square"/>
   </g>
   <g id="patch_5">
    <path d="M 50.595312 162.72 
L 407.715312 162.72 
" style="fill: none; stroke: #000000; stroke-width: 0.8; stroke-linejoin: miter; stroke-linecap: square"/>
   </g>
   <g id="patch_6">
    <path d="M 50.595312 41.76 
L 407.715312 41.76 
" style="fill: none; stroke: #000000; stroke-width: 0.8; stroke-linejoin: miter; stroke-linecap: square"/>
   </g>
   <g id="text_8">
    <g id="patch_7">
     <path d="M 425.571312 95.079562 
L 548.871312 95.079562 
Q 552.871312 95.079562 552.871312 91.079562 
L 552.871312 47.808 
Q 552.871312 43.808 548.871312 43.808 
L 425.571312 43.808 
Q 421.571312 43.808 421.571312 47.808 
L 421.571312 91.079562 
Q 421.571312 95.079562 425.571312 95.079562 
z
" style="fill: #ffffff; opacity: 0.5; stroke: #000000; stroke-linejoin: miter"/>
    </g>
    <!-- Summary -->
    <g transform="translate(425.571312 55.406437) scale(0.1 -0.1)">
     <defs>
      <path id="DejaVuSans-53" d="M 3425 4513 
L 3425 3897 
Q 3066 4069 2747 4153 
Q 2428 4238 2131 4238 
Q 1616 4238 1336 4038 
Q 1056 3838 1056 3469 
Q 1056 3159 1242 3001 
Q 1428 2844 1947 2747 
L 2328 2669 
Q 3034 2534 3370 2195 
Q 3706 1856 3706 1288 
Q 3706 609 3251 259 
Q 2797 -91 1919 -91 
Q 1588 -91 1214 -16 
Q 841 59 441 206 
L 441 856 
Q 825 641 1194 531 
Q 1563 422 1919 422 
Q 2459 422 2753 634 
Q 3047 847 3047 1241 
Q 3047 1584 2836 1778 
Q 2625 1972 2144 2069 
L 1759 2144 
Q 1053 2284 737 2584 
Q 422 2884 422 3419 
Q 422 4038 858 4394 
Q 1294 4750 2059 4750 
Q 2388 4750 2728 4690 
Q 3069 4631 3425 4513 
z
" transform="scale(0.015625)"/>
      <path id="DejaVuSans-75" d="M 544 1381 
L 544 3500 
L 1119 3500 
L 1119 1403 
Q 1119 906 1312 657 
Q 1506 409 1894 409 
Q 2359 409 2629 706 
Q 2900 1003 2900 1516 
L 2900 3500 
L 3475 3500 
L 3475 0 
L 2900 0 
L 2900 538 
Q 2691 219 2414 64 
Q 2138 -91 1772 -91 
Q 1169 -91 856 284 
Q 544 659 544 1381 
z
M 1991 3584 
L 1991 3584 
z
" transform="scale(0.015625)"/>
      <path id="DejaVuSans-61" d="M 2194 1759 
Q 1497 1759 1228 1600 
Q 959 1441 959 1056 
Q 959 750 1161 570 
Q 1363 391 1709 391 
Q 2188 391 2477 730 
Q 2766 1069 2766 1631 
L 2766 1759 
L 2194 1759 
z
M 3341 1997 
L 3341 0 
L 2766 0 
L 2766 531 
Q 2569 213 2275 61 
Q 1981 -91 1556 -91 
Q 1019 -91 701 211 
Q 384 513 384 1019 
Q 384 1609 779 1909 
Q 1175 2209 1959 2209 
L 2766 2209 
L 2766 2266 
Q 2766 2663 2505 2880 
Q 2244 3097 1772 3097 
Q 1472 3097 1187 3025 
Q 903 2953 641 2809 
L 641 3341 
Q 956 3463 1253 3523 
Q 1550 3584 1831 3584 
Q 2591 3584 2966 3190 
Q 3341 2797 3341 1997 
z
" transform="scale(0.015625)"/>
      <path id="DejaVuSans-72" d="M 2631 2963 
Q 2534 3019 2420 3045 
Q 2306 3072 2169 3072 
Q 1681 3072 1420 2755 
Q 1159 2438 1159 1844 
L 1159 0 
L 581 0 
L 581 3500 
L 1159 3500 
L 1159 2956 
Q 1341 3275 1631 3429 
Q 1922 3584 2338 3584 
Q 2397 3584 2469 3576 
Q 2541 3569 2628 3553 
L 2631 2963 
z
" transform="scale(0.015625)"/>
      <path id="DejaVuSans-79" d="M 2059 -325 
Q 1816 -950 1584 -1140 
Q 1353 -1331 966 -1331 
L 506 -1331 
L 506 -850 
L 844 -850 
Q 1081 -850 1212 -737 
Q 1344 -625 1503 -206 
L 1606 56 
L 191 3500 
L 800 3500 
L 1894 763 
L 2988 3500 
L 3597 3500 
L 2059 -325 
z
" transform="scale(0.015625)"/>
     </defs>
     <use xlink:href="#DejaVuSans-53"/>
     <use xlink:href="#DejaVuSans-75" x="63.476562"/>
     <use xlink:href="#DejaVuSans-6d" x="126.855469"/>
     <use xlink:href="#DejaVuSans-6d" x="224.267578"/>
     <use xlink:href="#DejaVuSans-61" x="321.679688"/>
     <use xlink:href="#DejaVuSans-72" x="382.958984"/>
     <use xlink:href="#DejaVuSans-79" x="424.072266"/>
    </g>
    <!-- $Q_I$: 4.8e+02$\pm$2.2e+02  -->
    <g transform="translate(425.571312 66.60425) scale(0.1 -0.1)">
     <defs>
      <path id="DejaVuSans-Oblique-51" d="M 2309 -84 
Q 2275 -88 2237 -89 
Q 2200 -91 2125 -91 
Q 1250 -91 756 411 
Q 263 913 263 1797 
Q 263 2319 452 2844 
Q 641 3369 978 3788 
Q 1369 4269 1858 4509 
Q 2347 4750 2938 4750 
Q 3794 4750 4287 4245 
Q 4781 3741 4781 2869 
Q 4781 1928 4265 1147 
Q 3750 366 2919 44 
L 3553 -825 
L 2847 -825 
L 2309 -84 
z
M 2919 4238 
Q 2400 4238 2003 3986 
Q 1606 3734 1313 3219 
Q 1125 2891 1026 2522 
Q 928 2153 928 1778 
Q 928 1128 1239 775 
Q 1550 422 2119 422 
Q 2631 422 3032 676 
Q 3434 931 3719 1434 
Q 3909 1772 4009 2142 
Q 4109 2513 4109 2881 
Q 4109 3528 3796 3883 
Q 3484 4238 2919 4238 
z
" transform="scale(0.015625)"/>
      <path id="DejaVuSans-Oblique-49" d="M 1081 4666 
L 1716 4666 
L 806 0 
L 172 0 
L 1081 4666 
z
" transform="scale(0.015625)"/>
      <path id="DejaVuSans-3a" d="M 750 794 
L 1409 794 
L 1409 0 
L 750 0 
L 750 794 
z
M 750 3309 
L 1409 3309 
L 1409 2516 
L 750 2516 
L 750 3309 
z
" transform="scale(0.015625)"/>
      <path id="DejaVuSans-2e" d="M 684 794 
L 1344 794 
L 1344 0 
L 684 0 
L 684 794 
z
" transform="scale(0.015625)"/>
      <path id="DejaVuSans-65" d="M 3597 1894 
L 3597 1613 
L 953 1613 
Q 991 1019 1311 708 
Q 1631 397 2203 397 
Q 2534 397 2845 478 
Q 3156 559 3463 722 
L 3463 178 
Q 3153 47 2828 -22 
Q 2503 -91 2169 -91 
Q 1331 -91 842 396 
Q 353 884 353 1716 
Q 353 2575 817 3079 
Q 1281 3584 2069 3584 
Q 2775 3584 3186 3129 
Q 3597 2675 3597 1894 
z
M 3022 2063 
Q 3016 2534 2758 2815 
Q 2500 3097 2075 3097 
Q 1594 3097 1305 2825 
Q 1016 2553 972 2059 
L 3022 2063 
z
" transform="scale(0.015625)"/>
      <path id="DejaVuSans-2b" d="M 2944 4013 
L 2944 2272 
L 4684 2272 
L 4684 1741 
L 2944 1741 
L 2944 0 
L 2419 0 
L 2419 1741 
L 678 1741 
L 678 2272 
L 2419 2272 
L 2419 4013 
L 2944 4013 
z
" transform="scale(0.015625)"/>
      <path id="DejaVuSans-b1" d="M 2944 4013 
L 2944 2803 
L 4684 2803 
L 4684 2272 
L 2944 2272 
L 2944 1063 
L 2419 1063 
L 2419 2272 
L 678 2272 
L 678 2803 
L 2419 2803 
L 2419 4013 
L 2944 4013 
z
M 678 531 
L 4684 531 
L 4684 0 
L 678 0 
L 678 531 
z
" transform="scale(0.015625)"/>
     </defs>
     <use xlink:href="#DejaVuSans-Oblique-51" transform="translate(0 0.78125)"/>
     <use xlink:href="#DejaVuSans-Oblique-49" transform="translate(78.710938 -15.625) scale(0.7)"/>
     <use xlink:href="#DejaVuSans-3a" transform="translate(102.089844 0.78125)"/>
     <use xlink:href="#DejaVuSans-20" transform="translate(135.78125 0.78125)"/>
     <use xlink:href="#DejaVuSans-34" transform="translate(167.568359 0.78125)"/>
     <use xlink:href="#DejaVuSans-2e" transform="translate(231.191406 0.78125)"/>
     <use xlink:href="#DejaVuSans-38" transform="translate(260.353516 0.78125)"/>
     <use xlink:href="#DejaVuSans-65" transform="translate(323.976562 0.78125)"/>
     <use xlink:href="#DejaVuSans-2b" transform="translate(385.5 0.78125)"/>
     <use xlink:href="#DejaVuSans-30" transform="translate(469.289062 0.78125)"/>
     <use xlink:href="#DejaVuSans-32" transform="translate(532.912109 0.78125)"/>
     <use xlink:href="#DejaVuSans-b1" transform="translate(596.535156 0.78125)"/>
     <use xlink:href="#DejaVuSans-32" transform="translate(680.324219 0.78125)"/>
     <use xlink:href="#DejaVuSans-2e" transform="translate(743.947266 0.78125)"/>
     <use xlink:href="#DejaVuSans-32" transform="translate(770.234375 0.78125)"/>
     <use xlink:href="#DejaVuSans-65" transform="translate(833.857422 0.78125)"/>
     <use xlink:href="#DejaVuSans-2b" transform="translate(895.380859 0.78125)"/>
     <use xlink:href="#DejaVuSans-30" transform="translate(979.169922 0.78125)"/>
     <use xlink:href="#DejaVuSans-32" transform="translate(1042.792969 0.78125)"/>
     <use xlink:href="#DejaVuSans-20" transform="translate(1106.416016 0.78125)"/>
    </g>
    <!-- $Q_C$: 4.2$\pm$6.3 k -->
    <g transform="translate(425.571312 77.802062) scale(0.1 -0.1)">
     <defs>
      <path id="DejaVuSans-Oblique-43" d="M 4447 4306 
L 4319 3641 
Q 4019 3944 3683 4091 
Q 3347 4238 2956 4238 
Q 2422 4238 2017 3981 
Q 1613 3725 1319 3200 
Q 1131 2863 1032 2486 
Q 934 2109 934 1728 
Q 934 1091 1264 756 
Q 1594 422 2222 422 
Q 2656 422 3056 561 
Q 3456 700 3834 978 
L 3688 231 
Q 3316 72 2936 -9 
Q 2556 -91 2175 -91 
Q 1278 -91 773 396 
Q 269 884 269 1753 
Q 269 2309 461 2846 
Q 653 3384 1013 3828 
Q 1394 4300 1883 4525 
Q 2372 4750 3022 4750 
Q 3422 4750 3780 4639 
Q 4138 4528 4447 4306 
z
" transform="scale(0.015625)"/>
      <path id="DejaVuSans-6b" d="M 581 4863 
L 1159 4863 
L 1159 1991 
L 2875 3500 
L 3609 3500 
L 1753 1863 
L 3688 0 
L 2938 0 
L 1159 1709 
L 1159 0 
L 581 0 
L 581 4863 
z
" transform="scale(0.015625)"/>
     </defs>
     <use xlink:href="#DejaVuSans-Oblique-51" transform="translate(0 0.015625)"/>
     <use xlink:href="#DejaVuSans-Oblique-43" transform="translate(78.710938 -16.390625) scale(0.7)"/>
     <use xlink:href="#DejaVuSans-3a" transform="translate(130.322266 0.015625)"/>
     <use xlink:href="#DejaVuSans-20" transform="translate(164.013672 0.015625)"/>
     <use xlink:href="#DejaVuSans-34" transform="translate(195.800781 0.015625)"/>
     <use xlink:href="#DejaVuSans-2e" transform="translate(259.423828 0.015625)"/>
     <use xlink:href="#DejaVuSans-32" transform="translate(285.710938 0.015625)"/>
     <use xlink:href="#DejaVuSans-b1" transform="translate(349.333984 0.015625)"/>
     <use xlink:href="#DejaVuSans-36" transform="translate(433.123047 0.015625)"/>
     <use xlink:href="#DejaVuSans-2e" transform="translate(496.746094 0.015625)"/>
     <use xlink:href="#DejaVuSans-33" transform="translate(528.533203 0.015625)"/>
     <use xlink:href="#DejaVuSans-20" transform="translate(592.15625 0.015625)"/>
     <use xlink:href="#DejaVuSans-6b" transform="translate(623.943359 0.015625)"/>
    </g>
    <!-- $f_{res}$: 5.9951$\pm$0.0038 GHz -->
    <g transform="translate(425.571312 88.999875) scale(0.1 -0.1)">
     <defs>
      <path id="DejaVuSans-Oblique-66" d="M 3059 4863 
L 2969 4384 
L 2419 4384 
Q 2106 4384 1964 4261 
Q 1822 4138 1753 3809 
L 1691 3500 
L 2638 3500 
L 2553 3053 
L 1606 3053 
L 1013 0 
L 434 0 
L 1031 3053 
L 481 3053 
L 563 3500 
L 1113 3500 
L 1159 3744 
Q 1278 4363 1576 4613 
Q 1875 4863 2516 4863 
L 3059 4863 
z
" transform="scale(0.015625)"/>
      <path id="DejaVuSans-Oblique-72" d="M 2853 2969 
Q 2766 3016 2653 3041 
Q 2541 3066 2413 3066 
Q 1953 3066 1609 2717 
Q 1266 2369 1153 1784 
L 800 0 
L 225 0 
L 909 3500 
L 1484 3500 
L 1375 2956 
Q 1603 3259 1920 3421 
Q 2238 3584 2597 3584 
Q 2691 3584 2781 3573 
Q 2872 3563 2963 3538 
L 2853 2969 
z
" transform="scale(0.015625)"/>
      <path id="DejaVuSans-Oblique-65" d="M 3078 2063 
Q 3088 2113 3092 2166 
Q 3097 2219 3097 2272 
Q 3097 2653 2873 2875 
Q 2650 3097 2266 3097 
Q 1838 3097 1509 2826 
Q 1181 2556 1013 2059 
L 3078 2063 
z
M 3578 1613 
L 903 1613 
Q 884 1494 878 1425 
Q 872 1356 872 1306 
Q 872 872 1139 634 
Q 1406 397 1894 397 
Q 2269 397 2603 481 
Q 2938 566 3225 728 
L 3116 159 
Q 2806 34 2476 -28 
Q 2147 -91 1806 -91 
Q 1078 -91 686 257 
Q 294 606 294 1247 
Q 294 1794 489 2264 
Q 684 2734 1063 3103 
Q 1306 3334 1642 3459 
Q 1978 3584 2356 3584 
Q 2950 3584 3301 3228 
Q 3653 2872 3653 2272 
Q 3653 2128 3634 1964 
Q 3616 1800 3578 1613 
z
" transform="scale(0.015625)"/>
      <path id="DejaVuSans-Oblique-73" d="M 3200 3397 
L 3091 2853 
Q 2863 2978 2609 3040 
Q 2356 3103 2088 3103 
Q 1634 3103 1373 2948 
Q 1113 2794 1113 2528 
Q 1113 2219 1719 2053 
Q 1766 2041 1788 2034 
L 1972 1978 
Q 2547 1819 2739 1644 
Q 2931 1469 2931 1166 
Q 2931 609 2489 259 
Q 2047 -91 1331 -91 
Q 1053 -91 747 -37 
Q 441 16 72 128 
L 184 722 
Q 500 559 806 475 
Q 1113 391 1394 391 
Q 1816 391 2080 572 
Q 2344 753 2344 1031 
Q 2344 1331 1650 1516 
L 1591 1531 
L 1394 1581 
Q 956 1697 753 1886 
Q 550 2075 550 2369 
Q 550 2928 970 3256 
Q 1391 3584 2113 3584 
Q 2397 3584 2667 3537 
Q 2938 3491 3200 3397 
z
" transform="scale(0.015625)"/>
      <path id="DejaVuSans-39" d="M 703 97 
L 703 672 
Q 941 559 1184 500 
Q 1428 441 1663 441 
Q 2288 441 2617 861 
Q 2947 1281 2994 2138 
Q 2813 1869 2534 1725 
Q 2256 1581 1919 1581 
Q 1219 1581 811 2004 
Q 403 2428 403 3163 
Q 403 3881 828 4315 
Q 1253 4750 1959 4750 
Q 2769 4750 3195 4129 
Q 3622 3509 3622 2328 
Q 3622 1225 3098 567 
Q 2575 -91 1691 -91 
Q 1453 -91 1209 -44 
Q 966 3 703 97 
z
M 1959 2075 
Q 2384 2075 2632 2365 
Q 2881 2656 2881 3163 
Q 2881 3666 2632 3958 
Q 2384 4250 1959 4250 
Q 1534 4250 1286 3958 
Q 1038 3666 1038 3163 
Q 1038 2656 1286 2365 
Q 1534 2075 1959 2075 
z
" transform="scale(0.015625)"/>
      <path id="DejaVuSans-47" d="M 3809 666 
L 3809 1919 
L 2778 1919 
L 2778 2438 
L 4434 2438 
L 4434 434 
Q 4069 175 3628 42 
Q 3188 -91 2688 -91 
Q 1594 -91 976 548 
Q 359 1188 359 2328 
Q 359 3472 976 4111 
Q 1594 4750 2688 4750 
Q 3144 4750 3555 4637 
Q 3966 4525 4313 4306 
L 4313 3634 
Q 3963 3931 3569 4081 
Q 3175 4231 2741 4231 
Q 1884 4231 1454 3753 
Q 1025 3275 1025 2328 
Q 1025 1384 1454 906 
Q 1884 428 2741 428 
Q 3075 428 3337 486 
Q 3600 544 3809 666 
z
" transform="scale(0.015625)"/>
      <path id="DejaVuSans-48" d="M 628 4666 
L 1259 4666 
L 1259 2753 
L 3553 2753 
L 3553 4666 
L 4184 4666 
L 4184 0 
L 3553 0 
L 3553 2222 
L 1259 2222 
L 1259 0 
L 628 0 
L 628 4666 
z
" transform="scale(0.015625)"/>
      <path id="DejaVuSans-7a" d="M 353 3500 
L 3084 3500 
L 3084 2975 
L 922 459 
L 3084 459 
L 3084 0 
L 275 0 
L 275 525 
L 2438 3041 
L 353 3041 
L 353 3500 
z
" transform="scale(0.015625)"/>
     </defs>
     <use xlink:href="#DejaVuSans-Oblique-66" transform="translate(0 0.015625)"/>
     <use xlink:href="#DejaVuSans-Oblique-72" transform="translate(35.205078 -16.390625) scale(0.7)"/>
     <use xlink:href="#DejaVuSans-Oblique-65" transform="translate(63.984375 -16.390625) scale(0.7)"/>
     <use xlink:href="#DejaVuSans-Oblique-73" transform="translate(107.050781 -16.390625) scale(0.7)"/>
     <use xlink:href="#DejaVuSans-3a" transform="translate(146.254883 0.015625)"/>
     <use xlink:href="#DejaVuSans-20" transform="translate(179.946289 0.015625)"/>
     <use xlink:href="#DejaVuSans-35" transform="translate(211.733398 0.015625)"/>
     <use xlink:href="#DejaVuSans-2e" transform="translate(275.356445 0.015625)"/>
     <use xlink:href="#DejaVuSans-39" transform="translate(307.143555 0.015625)"/>
     <use xlink:href="#DejaVuSans-39" transform="translate(370.766602 0.015625)"/>
     <use xlink:href="#DejaVuSans-35" transform="translate(434.389648 0.015625)"/>
     <use xlink:href="#DejaVuSans-31" transform="translate(498.012695 0.015625)"/>
     <use xlink:href="#DejaVuSans-b1" transform="translate(561.635742 0.015625)"/>
     <use xlink:href="#DejaVuSans-30" transform="translate(645.424805 0.015625)"/>
     <use xlink:href="#DejaVuSans-2e" transform="translate(709.047852 0.015625)"/>
     <use xlink:href="#DejaVuSans-30" transform="translate(740.834961 0.015625)"/>
     <use xlink:href="#DejaVuSans-30" transform="translate(804.458008 0.015625)"/>
     <use xlink:href="#DejaVuSans-33" transform="translate(868.081055 0.015625)"/>
     <use xlink:href="#DejaVuSans-38" transform="translate(931.704102 0.015625)"/>
     <use xlink:href="#DejaVuSans-20" transform="translate(995.327148 0.015625)"/>
     <use xlink:href="#DejaVuSans-47" transform="translate(1027.114258 0.015625)"/>
     <use xlink:href="#DejaVuSans-48" transform="translate(1104.604492 0.015625)"/>
     <use xlink:href="#DejaVuSans-7a" transform="translate(1179.799805 0.015625)"/>
    </g>
   </g>
  </g>
  <g id="axes_2">
   <g id="patch_8">
    <path d="M 50.595313 307.872 
L 407.715312 307.872 
L 407.715312 186.912 
L 50.595313 186.912 
z
" style="fill: #ffffff"/>
   </g>
   <g id="matplotlib.axis_3">
    <g id="xtick_6">
     <g id="line2d_14">
      <g>
       <use xlink:href="#mec8a6473c1" x="99.293494" y="307.872" style="stroke: #000000; stroke-width: 0.8"/>
      </g>
     </g>
     <g id="text_9">
      <!-- -4 -->
      <g transform="translate(94.308338 322.470438) scale(0.1 -0.1)">
       <defs>
        <path id="DejaVuSans-2d" d="M 313 2009 
L 1997 2009 
L 1997 1497 
L 313 1497 
L 313 2009 
z
" transform="scale(0.015625)"/>
       </defs>
       <use xlink:href="#DejaVuSans-2d"/>
       <use xlink:href="#DejaVuSans-34" x="36.083984"/>
      </g>
     </g>
    </g>
    <g id="xtick_7">
     <g id="line2d_15">
      <g>
       <use xlink:href="#mec8a6473c1" x="164.224403" y="307.872" style="stroke: #000000; stroke-width: 0.8"/>
      </g>
     </g>
     <g id="text_10">
      <!-- -2 -->
      <g transform="translate(159.239247 322.470438) scale(0.1 -0.1)">
       <use xlink:href="#DejaVuSans-2d"/>
       <use xlink:href="#DejaVuSans-32" x="36.083984"/>
      </g>
     </g>
    </g>
    <g id="xtick_8">
     <g id="line2d_16">
      <g>
       <use xlink:href="#mec8a6473c1" x="229.155312" y="307.872" style="stroke: #000000; stroke-width: 0.8"/>
      </g>
     </g>
     <g id="text_11">
      <!-- 0 -->
      <g transform="translate(225.974062 322.470438) scale(0.1 -0.1)">
       <use xlink:href="#DejaVuSans-30"/>
      </g>
     </g>
    </g>
    <g id="xtick_9">
     <g id="line2d_17">
      <g>
       <use xlink:href="#mec8a6473c1" x="294.086222" y="307.872" style="stroke: #000000; stroke-width: 0.8"/>
      </g>
     </g>
     <g id="text_12">
      <!-- 2 -->
      <g transform="translate(290.904972 322.470438) scale(0.1 -0.1)">
       <use xlink:href="#DejaVuSans-32"/>
      </g>
     </g>
    </g>
    <g id="xtick_10">
     <g id="line2d_18">
      <g>
       <use xlink:href="#mec8a6473c1" x="359.017131" y="307.872" style="stroke: #000000; stroke-width: 0.8"/>
      </g>
     </g>
     <g id="text_13">
      <!-- 4 -->
      <g transform="translate(355.835881 322.470438) scale(0.1 -0.1)">
       <use xlink:href="#DejaVuSans-34"/>
      </g>
     </g>
    </g>
    <g id="text_14">
     <!-- Frequency [MHz] -->
     <g transform="translate(187.136562 336.148562) scale(0.1 -0.1)">
      <defs>
       <path id="DejaVuSans-46" d="M 628 4666 
L 3309 4666 
L 3309 4134 
L 1259 4134 
L 1259 2759 
L 3109 2759 
L 3109 2228 
L 1259 2228 
L 1259 0 
L 628 0 
L 628 4666 
z
" transform="scale(0.015625)"/>
       <path id="DejaVuSans-71" d="M 947 1747 
Q 947 1113 1208 752 
Q 1469 391 1925 391 
Q 2381 391 2643 752 
Q 2906 1113 2906 1747 
Q 2906 2381 2643 2742 
Q 2381 3103 1925 3103 
Q 1469 3103 1208 2742 
Q 947 2381 947 1747 
z
M 2906 525 
Q 2725 213 2448 61 
Q 2172 -91 1784 -91 
Q 1150 -91 751 415 
Q 353 922 353 1747 
Q 353 2572 751 3078 
Q 1150 3584 1784 3584 
Q 2172 3584 2448 3432 
Q 2725 3281 2906 2969 
L 2906 3500 
L 3481 3500 
L 3481 -1331 
L 2906 -1331 
L 2906 525 
z
" transform="scale(0.015625)"/>
       <path id="DejaVuSans-6e" d="M 3513 2113 
L 3513 0 
L 2938 0 
L 2938 2094 
Q 2938 2591 2744 2837 
Q 2550 3084 2163 3084 
Q 1697 3084 1428 2787 
Q 1159 2491 1159 1978 
L 1159 0 
L 581 0 
L 581 3500 
L 1159 3500 
L 1159 2956 
Q 1366 3272 1645 3428 
Q 1925 3584 2291 3584 
Q 2894 3584 3203 3211 
Q 3513 2838 3513 2113 
z
" transform="scale(0.015625)"/>
       <path id="DejaVuSans-63" d="M 3122 3366 
L 3122 2828 
Q 2878 2963 2633 3030 
Q 2388 3097 2138 3097 
Q 1578 3097 1268 2742 
Q 959 2388 959 1747 
Q 959 1106 1268 751 
Q 1578 397 2138 397 
Q 2388 397 2633 464 
Q 2878 531 3122 666 
L 3122 134 
Q 2881 22 2623 -34 
Q 2366 -91 2075 -91 
Q 1284 -91 818 406 
Q 353 903 353 1747 
Q 353 2603 823 3093 
Q 1294 3584 2113 3584 
Q 2378 3584 2631 3529 
Q 2884 3475 3122 3366 
z
" transform="scale(0.015625)"/>
       <path id="DejaVuSans-4d" d="M 628 4666 
L 1569 4666 
L 2759 1491 
L 3956 4666 
L 4897 4666 
L 4897 0 
L 4281 0 
L 4281 4097 
L 3078 897 
L 2444 897 
L 1241 4097 
L 1241 0 
L 628 0 
L 628 4666 
z
" transform="scale(0.015625)"/>
      </defs>
      <use xlink:href="#DejaVuSans-46"/>
      <use xlink:href="#DejaVuSans-72" x="50.269531"/>
      <use xlink:href="#DejaVuSans-65" x="89.132812"/>
      <use xlink:href="#DejaVuSans-71" x="150.65625"/>
      <use xlink:href="#DejaVuSans-75" x="214.132812"/>
      <use xlink:href="#DejaVuSans-65" x="277.511719"/>
      <use xlink:href="#DejaVuSans-6e" x="339.035156"/>
      <use xlink:href="#DejaVuSans-63" x="402.414062"/>
      <use xlink:href="#DejaVuSans-79" x="457.394531"/>
      <use xlink:href="#DejaVuSans-20" x="516.574219"/>
      <use xlink:href="#DejaVuSans-5b" x="548.361328"/>
      <use xlink:href="#DejaVuSans-4d" x="587.375"/>
      <use xlink:href="#DejaVuSans-48" x="673.654297"/>
      <use xlink:href="#DejaVuSans-7a" x="748.849609"/>
      <use xlink:href="#DejaVuSans-5d" x="801.339844"/>
     </g>
    </g>
    <g id="text_15">
     <!-- +6 GHz -->
     <g transform="translate(369.277812 335.148562) scale(0.1 -0.1)">
      <use xlink:href="#DejaVuSans-2b"/>
      <use xlink:href="#DejaVuSans-36" x="83.789062"/>
      <use xlink:href="#DejaVuSans-20" x="147.412109"/>
      <use xlink:href="#DejaVuSans-47" x="179.199219"/>
      <use xlink:href="#DejaVuSans-48" x="256.689453"/>
      <use xlink:href="#DejaVuSans-7a" x="331.884766"/>
     </g>
    </g>
   </g>
   <g id="matplotlib.axis_4">
    <g id="ytick_7">
     <g id="line2d_19">
      <g>
       <use xlink:href="#m71c43258e6" x="50.595313" y="277.978669" style="stroke: #000000; stroke-width: 0.8"/>
      </g>
     </g>
     <g id="text_16">
      <!-- -100 -->
      <g transform="translate(20.9 281.777887) scale(0.1 -0.1)">
       <use xlink:href="#DejaVuSans-2d"/>
       <use xlink:href="#DejaVuSans-31" x="36.083984"/>
       <use xlink:href="#DejaVuSans-30" x="99.707031"/>
       <use xlink:href="#DejaVuSans-30" x="163.330078"/>
      </g>
     </g>
    </g>
    <g id="ytick_8">
     <g id="line2d_20">
      <g>
       <use xlink:href="#m71c43258e6" x="50.595313" y="247.41527" style="stroke: #000000; stroke-width: 0.8"/>
      </g>
     </g>
     <g id="text_17">
      <!-- 0 -->
      <g transform="translate(37.232813 251.214488) scale(0.1 -0.1)">
       <use xlink:href="#DejaVuSans-30"/>
      </g>
     </g>
    </g>
    <g id="ytick_9">
     <g id="line2d_21">
      <g>
       <use xlink:href="#m71c43258e6" x="50.595313" y="216.851871" style="stroke: #000000; stroke-width: 0.8"/>
      </g>
     </g>
     <g id="text_18">
      <!-- 100 -->
      <g transform="translate(24.507813 220.651089) scale(0.1 -0.1)">
       <use xlink:href="#DejaVuSans-31"/>
       <use xlink:href="#DejaVuSans-30" x="63.623047"/>
       <use xlink:href="#DejaVuSans-30" x="127.246094"/>
      </g>
     </g>
    </g>
    <g id="text_19">
     <!-- $\angle S_{21}$ [deg] -->
     <g transform="translate(14.8 274.592) rotate(-90) scale(0.1 -0.1)">
      <defs>
       <path id="DejaVuSans-2220" d="M 5028 631 
L 5028 0 
L 547 0 
L 3525 4666 
L 4281 4666 
L 1716 631 
L 5028 631 
z
" transform="scale(0.015625)"/>
       <path id="DejaVuSans-64" d="M 2906 2969 
L 2906 4863 
L 3481 4863 
L 3481 0 
L 2906 0 
L 2906 525 
Q 2725 213 2448 61 
Q 2172 -91 1784 -91 
Q 1150 -91 751 415 
Q 353 922 353 1747 
Q 353 2572 751 3078 
Q 1150 3584 1784 3584 
Q 2172 3584 2448 3432 
Q 2725 3281 2906 2969 
z
M 947 1747 
Q 947 1113 1208 752 
Q 1469 391 1925 391 
Q 2381 391 2643 752 
Q 2906 1113 2906 1747 
Q 2906 2381 2643 2742 
Q 2381 3103 1925 3103 
Q 1469 3103 1208 2742 
Q 947 2381 947 1747 
z
" transform="scale(0.015625)"/>
       <path id="DejaVuSans-67" d="M 2906 1791 
Q 2906 2416 2648 2759 
Q 2391 3103 1925 3103 
Q 1463 3103 1205 2759 
Q 947 2416 947 1791 
Q 947 1169 1205 825 
Q 1463 481 1925 481 
Q 2391 481 2648 825 
Q 2906 1169 2906 1791 
z
M 3481 434 
Q 3481 -459 3084 -895 
Q 2688 -1331 1869 -1331 
Q 1566 -1331 1297 -1286 
Q 1028 -1241 775 -1147 
L 775 -588 
Q 1028 -725 1275 -790 
Q 1522 -856 1778 -856 
Q 2344 -856 2625 -561 
Q 2906 -266 2906 331 
L 2906 616 
Q 2728 306 2450 153 
Q 2172 0 1784 0 
Q 1141 0 747 490 
Q 353 981 353 1791 
Q 353 2603 747 3093 
Q 1141 3584 1784 3584 
Q 2172 3584 2450 3431 
Q 2728 3278 2906 2969 
L 2906 3500 
L 3481 3500 
L 3481 434 
z
" transform="scale(0.015625)"/>
      </defs>
      <use xlink:href="#DejaVuSans-2220" transform="translate(0 0.015625)"/>
      <use xlink:href="#DejaVuSans-Oblique-53" transform="translate(89.648438 0.015625)"/>
      <use xlink:href="#DejaVuSans-32" transform="translate(153.125 -16.390625) scale(0.7)"/>
      <use xlink:href="#DejaVuSans-31" transform="translate(197.661133 -16.390625) scale(0.7)"/>
      <use xlink:href="#DejaVuSans-20" transform="translate(244.931641 0.015625)"/>
      <use xlink:href="#DejaVuSans-5b" transform="translate(276.71875 0.015625)"/>
      <use xlink:href="#DejaVuSans-64" transform="translate(315.732422 0.015625)"/>
      <use xlink:href="#DejaVuSans-65" transform="translate(379.208984 0.015625)"/>
      <use xlink:href="#DejaVuSans-67" transform="translate(440.732422 0.015625)"/>
      <use xlink:href="#DejaVuSans-5d" transform="translate(504.208984 0.015625)"/>
     </g>
    </g>
   </g>
   <g id="line2d_22">
    <path d="M 66.82804 256.493046 
L 83.142339 267.967788 
L 130.453805 301.293345 
L 132.085235 192.410182 
L 143.505244 200.481546 
L 228.339598 260.448898 
L 287.071073 302.216317 
L 288.702503 193.363072 
L 309.911091 208.551479 
L 336.013969 227.441582 
L 349.065408 236.964417 
L 355.591128 241.76499 
L 365.379707 249.162054 
L 383.325436 263.047193 
L 391.482585 269.555322 
L 391.482585 269.555322 
" clip-path="url(#p80c32ff7ad)" style="fill: none; stroke: #1f77b4; stroke-width: 1.5; stroke-linecap: square"/>
    <g clip-path="url(#p80c32ff7ad)">
     <use xlink:href="#mf66a2517df" x="66.82804" y="256.493046" style="fill: #1f77b4; stroke: #1f77b4"/>
     <use xlink:href="#mf66a2517df" x="68.45947" y="257.653297" style="fill: #1f77b4; stroke: #1f77b4"/>
     <use xlink:href="#mf66a2517df" x="70.0909" y="258.797444" style="fill: #1f77b4; stroke: #1f77b4"/>
     <use xlink:href="#mf66a2517df" x="71.722329" y="259.949034" style="fill: #1f77b4; stroke: #1f77b4"/>
     <use xlink:href="#mf66a2517df" x="73.353759" y="261.088125" style="fill: #1f77b4; stroke: #1f77b4"/>
     <use xlink:href="#mf66a2517df" x="74.985189" y="262.235376" style="fill: #1f77b4; stroke: #1f77b4"/>
     <use xlink:href="#mf66a2517df" x="76.616619" y="263.384242" style="fill: #1f77b4; stroke: #1f77b4"/>
     <use xlink:href="#mf66a2517df" x="78.248049" y="264.52633" style="fill: #1f77b4; stroke: #1f77b4"/>
     <use xlink:href="#mf66a2517df" x="79.879479" y="265.678108" style="fill: #1f77b4; stroke: #1f77b4"/>
     <use xlink:href="#mf66a2517df" x="81.510909" y="266.824404" style="fill: #1f77b4; stroke: #1f77b4"/>
     <use xlink:href="#mf66a2517df" x="83.142339" y="267.967788" style="fill: #1f77b4; stroke: #1f77b4"/>
     <use xlink:href="#mf66a2517df" x="84.773768" y="269.116506" style="fill: #1f77b4; stroke: #1f77b4"/>
     <use xlink:href="#mf66a2517df" x="86.405198" y="270.268422" style="fill: #1f77b4; stroke: #1f77b4"/>
     <use xlink:href="#mf66a2517df" x="88.036628" y="271.416162" style="fill: #1f77b4; stroke: #1f77b4"/>
     <use xlink:href="#mf66a2517df" x="89.668058" y="272.561886" style="fill: #1f77b4; stroke: #1f77b4"/>
     <use xlink:href="#mf66a2517df" x="91.299488" y="273.718899" style="fill: #1f77b4; stroke: #1f77b4"/>
     <use xlink:href="#mf66a2517df" x="92.930918" y="274.871117" style="fill: #1f77b4; stroke: #1f77b4"/>
     <use xlink:href="#mf66a2517df" x="94.562348" y="276.008927" style="fill: #1f77b4; stroke: #1f77b4"/>
     <use xlink:href="#mf66a2517df" x="96.193778" y="277.150086" style="fill: #1f77b4; stroke: #1f77b4"/>
     <use xlink:href="#mf66a2517df" x="97.825207" y="278.311061" style="fill: #1f77b4; stroke: #1f77b4"/>
     <use xlink:href="#mf66a2517df" x="99.456637" y="279.454773" style="fill: #1f77b4; stroke: #1f77b4"/>
     <use xlink:href="#mf66a2517df" x="101.088067" y="280.602642" style="fill: #1f77b4; stroke: #1f77b4"/>
     <use xlink:href="#mf66a2517df" x="102.719497" y="281.754202" style="fill: #1f77b4; stroke: #1f77b4"/>
     <use xlink:href="#mf66a2517df" x="104.350927" y="282.897161" style="fill: #1f77b4; stroke: #1f77b4"/>
     <use xlink:href="#mf66a2517df" x="105.982357" y="284.054104" style="fill: #1f77b4; stroke: #1f77b4"/>
     <use xlink:href="#mf66a2517df" x="107.613787" y="285.211825" style="fill: #1f77b4; stroke: #1f77b4"/>
     <use xlink:href="#mf66a2517df" x="109.245217" y="286.349039" style="fill: #1f77b4; stroke: #1f77b4"/>
     <use xlink:href="#mf66a2517df" x="110.876646" y="287.513495" style="fill: #1f77b4; stroke: #1f77b4"/>
     <use xlink:href="#mf66a2517df" x="112.508076" y="288.653835" style="fill: #1f77b4; stroke: #1f77b4"/>
     <use xlink:href="#mf66a2517df" x="114.139506" y="289.800131" style="fill: #1f77b4; stroke: #1f77b4"/>
     <use xlink:href="#mf66a2517df" x="115.770936" y="290.960613" style="fill: #1f77b4; stroke: #1f77b4"/>
     <use xlink:href="#mf66a2517df" x="117.402366" y="292.104241" style="fill: #1f77b4; stroke: #1f77b4"/>
     <use xlink:href="#mf66a2517df" x="119.033796" y="293.251102" style="fill: #1f77b4; stroke: #1f77b4"/>
     <use xlink:href="#mf66a2517df" x="120.665226" y="294.405378" style="fill: #1f77b4; stroke: #1f77b4"/>
     <use xlink:href="#mf66a2517df" x="122.296656" y="295.554859" style="fill: #1f77b4; stroke: #1f77b4"/>
     <use xlink:href="#mf66a2517df" x="123.928085" y="296.699508" style="fill: #1f77b4; stroke: #1f77b4"/>
     <use xlink:href="#mf66a2517df" x="125.559515" y="297.8553" style="fill: #1f77b4; stroke: #1f77b4"/>
     <use xlink:href="#mf66a2517df" x="127.190945" y="298.99721" style="fill: #1f77b4; stroke: #1f77b4"/>
     <use xlink:href="#mf66a2517df" x="128.822375" y="300.146384" style="fill: #1f77b4; stroke: #1f77b4"/>
     <use xlink:href="#mf66a2517df" x="130.453805" y="301.293345" style="fill: #1f77b4; stroke: #1f77b4"/>
     <use xlink:href="#mf66a2517df" x="132.085235" y="192.410182" style="fill: #1f77b4; stroke: #1f77b4"/>
     <use xlink:href="#mf66a2517df" x="133.716665" y="193.580734" style="fill: #1f77b4; stroke: #1f77b4"/>
     <use xlink:href="#mf66a2517df" x="135.348095" y="194.731949" style="fill: #1f77b4; stroke: #1f77b4"/>
     <use xlink:href="#mf66a2517df" x="136.979524" y="195.875298" style="fill: #1f77b4; stroke: #1f77b4"/>
     <use xlink:href="#mf66a2517df" x="138.610954" y="197.025783" style="fill: #1f77b4; stroke: #1f77b4"/>
     <use xlink:href="#mf66a2517df" x="140.242384" y="198.1756" style="fill: #1f77b4; stroke: #1f77b4"/>
     <use xlink:href="#mf66a2517df" x="141.873814" y="199.323302" style="fill: #1f77b4; stroke: #1f77b4"/>
     <use xlink:href="#mf66a2517df" x="143.505244" y="200.481546" style="fill: #1f77b4; stroke: #1f77b4"/>
     <use xlink:href="#mf66a2517df" x="145.136674" y="201.632291" style="fill: #1f77b4; stroke: #1f77b4"/>
     <use xlink:href="#mf66a2517df" x="146.768104" y="202.772369" style="fill: #1f77b4; stroke: #1f77b4"/>
     <use xlink:href="#mf66a2517df" x="148.399534" y="203.932024" style="fill: #1f77b4; stroke: #1f77b4"/>
     <use xlink:href="#mf66a2517df" x="150.030963" y="205.087687" style="fill: #1f77b4; stroke: #1f77b4"/>
     <use xlink:href="#mf66a2517df" x="151.662393" y="206.232155" style="fill: #1f77b4; stroke: #1f77b4"/>
     <use xlink:href="#mf66a2517df" x="153.293823" y="207.383476" style="fill: #1f77b4; stroke: #1f77b4"/>
     <use xlink:href="#mf66a2517df" x="154.925253" y="208.536079" style="fill: #1f77b4; stroke: #1f77b4"/>
     <use xlink:href="#mf66a2517df" x="156.556683" y="209.687034" style="fill: #1f77b4; stroke: #1f77b4"/>
     <use xlink:href="#mf66a2517df" x="158.188113" y="210.837017" style="fill: #1f77b4; stroke: #1f77b4"/>
     <use xlink:href="#mf66a2517df" x="159.819543" y="211.994198" style="fill: #1f77b4; stroke: #1f77b4"/>
     <use xlink:href="#mf66a2517df" x="161.450973" y="213.139981" style="fill: #1f77b4; stroke: #1f77b4"/>
     <use xlink:href="#mf66a2517df" x="163.082402" y="214.302556" style="fill: #1f77b4; stroke: #1f77b4"/>
     <use xlink:href="#mf66a2517df" x="164.713832" y="215.441453" style="fill: #1f77b4; stroke: #1f77b4"/>
     <use xlink:href="#mf66a2517df" x="166.345262" y="216.601448" style="fill: #1f77b4; stroke: #1f77b4"/>
     <use xlink:href="#mf66a2517df" x="167.976692" y="217.7526" style="fill: #1f77b4; stroke: #1f77b4"/>
     <use xlink:href="#mf66a2517df" x="169.608122" y="218.903564" style="fill: #1f77b4; stroke: #1f77b4"/>
     <use xlink:href="#mf66a2517df" x="171.239552" y="220.045327" style="fill: #1f77b4; stroke: #1f77b4"/>
     <use xlink:href="#mf66a2517df" x="172.870982" y="221.203879" style="fill: #1f77b4; stroke: #1f77b4"/>
     <use xlink:href="#mf66a2517df" x="174.502412" y="222.360873" style="fill: #1f77b4; stroke: #1f77b4"/>
     <use xlink:href="#mf66a2517df" x="176.133842" y="223.513854" style="fill: #1f77b4; stroke: #1f77b4"/>
     <use xlink:href="#mf66a2517df" x="177.765271" y="224.663798" style="fill: #1f77b4; stroke: #1f77b4"/>
     <use xlink:href="#mf66a2517df" x="179.396701" y="225.82096" style="fill: #1f77b4; stroke: #1f77b4"/>
     <use xlink:href="#mf66a2517df" x="181.028131" y="226.966944" style="fill: #1f77b4; stroke: #1f77b4"/>
     <use xlink:href="#mf66a2517df" x="182.659561" y="228.1174" style="fill: #1f77b4; stroke: #1f77b4"/>
     <use xlink:href="#mf66a2517df" x="184.290991" y="229.281737" style="fill: #1f77b4; stroke: #1f77b4"/>
     <use xlink:href="#mf66a2517df" x="185.922421" y="230.432993" style="fill: #1f77b4; stroke: #1f77b4"/>
     <use xlink:href="#mf66a2517df" x="187.553851" y="231.577616" style="fill: #1f77b4; stroke: #1f77b4"/>
     <use xlink:href="#mf66a2517df" x="189.185281" y="232.736498" style="fill: #1f77b4; stroke: #1f77b4"/>
     <use xlink:href="#mf66a2517df" x="190.81671" y="233.887066" style="fill: #1f77b4; stroke: #1f77b4"/>
     <use xlink:href="#mf66a2517df" x="192.44814" y="235.039264" style="fill: #1f77b4; stroke: #1f77b4"/>
     <use xlink:href="#mf66a2517df" x="194.07957" y="236.191245" style="fill: #1f77b4; stroke: #1f77b4"/>
     <use xlink:href="#mf66a2517df" x="195.711" y="237.347189" style="fill: #1f77b4; stroke: #1f77b4"/>
     <use xlink:href="#mf66a2517df" x="197.34243" y="238.495217" style="fill: #1f77b4; stroke: #1f77b4"/>
     <use xlink:href="#mf66a2517df" x="198.97386" y="239.649342" style="fill: #1f77b4; stroke: #1f77b4"/>
     <use xlink:href="#mf66a2517df" x="200.60529" y="240.809701" style="fill: #1f77b4; stroke: #1f77b4"/>
     <use xlink:href="#mf66a2517df" x="202.23672" y="241.958853" style="fill: #1f77b4; stroke: #1f77b4"/>
     <use xlink:href="#mf66a2517df" x="203.868149" y="243.116087" style="fill: #1f77b4; stroke: #1f77b4"/>
     <use xlink:href="#mf66a2517df" x="205.499579" y="244.2733" style="fill: #1f77b4; stroke: #1f77b4"/>
     <use xlink:href="#mf66a2517df" x="207.131009" y="245.429888" style="fill: #1f77b4; stroke: #1f77b4"/>
     <use xlink:href="#mf66a2517df" x="208.762439" y="246.57398" style="fill: #1f77b4; stroke: #1f77b4"/>
     <use xlink:href="#mf66a2517df" x="210.393869" y="247.73844" style="fill: #1f77b4; stroke: #1f77b4"/>
     <use xlink:href="#mf66a2517df" x="212.025299" y="248.884898" style="fill: #1f77b4; stroke: #1f77b4"/>
     <use xlink:href="#mf66a2517df" x="213.656729" y="250.050046" style="fill: #1f77b4; stroke: #1f77b4"/>
     <use xlink:href="#mf66a2517df" x="215.288159" y="251.199483" style="fill: #1f77b4; stroke: #1f77b4"/>
     <use xlink:href="#mf66a2517df" x="216.919588" y="252.352145" style="fill: #1f77b4; stroke: #1f77b4"/>
     <use xlink:href="#mf66a2517df" x="218.551018" y="253.520951" style="fill: #1f77b4; stroke: #1f77b4"/>
     <use xlink:href="#mf66a2517df" x="220.182448" y="254.659318" style="fill: #1f77b4; stroke: #1f77b4"/>
     <use xlink:href="#mf66a2517df" x="221.813878" y="255.829202" style="fill: #1f77b4; stroke: #1f77b4"/>
     <use xlink:href="#mf66a2517df" x="223.445308" y="256.969806" style="fill: #1f77b4; stroke: #1f77b4"/>
     <use xlink:href="#mf66a2517df" x="225.076738" y="258.142535" style="fill: #1f77b4; stroke: #1f77b4"/>
     <use xlink:href="#mf66a2517df" x="226.708168" y="259.292378" style="fill: #1f77b4; stroke: #1f77b4"/>
     <use xlink:href="#mf66a2517df" x="228.339598" y="260.448898" style="fill: #1f77b4; stroke: #1f77b4"/>
     <use xlink:href="#mf66a2517df" x="229.971027" y="261.607325" style="fill: #1f77b4; stroke: #1f77b4"/>
     <use xlink:href="#mf66a2517df" x="231.602457" y="262.770773" style="fill: #1f77b4; stroke: #1f77b4"/>
     <use xlink:href="#mf66a2517df" x="233.233887" y="263.926619" style="fill: #1f77b4; stroke: #1f77b4"/>
     <use xlink:href="#mf66a2517df" x="234.865317" y="265.078692" style="fill: #1f77b4; stroke: #1f77b4"/>
     <use xlink:href="#mf66a2517df" x="236.496747" y="266.236561" style="fill: #1f77b4; stroke: #1f77b4"/>
     <use xlink:href="#mf66a2517df" x="238.128177" y="267.399845" style="fill: #1f77b4; stroke: #1f77b4"/>
     <use xlink:href="#mf66a2517df" x="239.759607" y="268.5619" style="fill: #1f77b4; stroke: #1f77b4"/>
     <use xlink:href="#mf66a2517df" x="241.391037" y="269.715154" style="fill: #1f77b4; stroke: #1f77b4"/>
     <use xlink:href="#mf66a2517df" x="243.022466" y="270.866834" style="fill: #1f77b4; stroke: #1f77b4"/>
     <use xlink:href="#mf66a2517df" x="244.653896" y="272.021399" style="fill: #1f77b4; stroke: #1f77b4"/>
     <use xlink:href="#mf66a2517df" x="246.285326" y="273.184518" style="fill: #1f77b4; stroke: #1f77b4"/>
     <use xlink:href="#mf66a2517df" x="247.916756" y="274.344711" style="fill: #1f77b4; stroke: #1f77b4"/>
     <use xlink:href="#mf66a2517df" x="249.548186" y="275.507231" style="fill: #1f77b4; stroke: #1f77b4"/>
     <use xlink:href="#mf66a2517df" x="251.179616" y="276.666195" style="fill: #1f77b4; stroke: #1f77b4"/>
     <use xlink:href="#mf66a2517df" x="252.811046" y="277.823606" style="fill: #1f77b4; stroke: #1f77b4"/>
     <use xlink:href="#mf66a2517df" x="254.442476" y="278.981403" style="fill: #1f77b4; stroke: #1f77b4"/>
     <use xlink:href="#mf66a2517df" x="256.073905" y="280.14253" style="fill: #1f77b4; stroke: #1f77b4"/>
     <use xlink:href="#mf66a2517df" x="257.705335" y="281.296336" style="fill: #1f77b4; stroke: #1f77b4"/>
     <use xlink:href="#mf66a2517df" x="259.336765" y="282.459867" style="fill: #1f77b4; stroke: #1f77b4"/>
     <use xlink:href="#mf66a2517df" x="260.968195" y="283.612213" style="fill: #1f77b4; stroke: #1f77b4"/>
     <use xlink:href="#mf66a2517df" x="262.599625" y="284.776704" style="fill: #1f77b4; stroke: #1f77b4"/>
     <use xlink:href="#mf66a2517df" x="264.231055" y="285.943516" style="fill: #1f77b4; stroke: #1f77b4"/>
     <use xlink:href="#mf66a2517df" x="265.862485" y="287.095965" style="fill: #1f77b4; stroke: #1f77b4"/>
     <use xlink:href="#mf66a2517df" x="267.493915" y="288.25858" style="fill: #1f77b4; stroke: #1f77b4"/>
     <use xlink:href="#mf66a2517df" x="269.125344" y="289.427043" style="fill: #1f77b4; stroke: #1f77b4"/>
     <use xlink:href="#mf66a2517df" x="270.756774" y="290.577365" style="fill: #1f77b4; stroke: #1f77b4"/>
     <use xlink:href="#mf66a2517df" x="272.388204" y="291.742707" style="fill: #1f77b4; stroke: #1f77b4"/>
     <use xlink:href="#mf66a2517df" x="274.019634" y="292.910591" style="fill: #1f77b4; stroke: #1f77b4"/>
     <use xlink:href="#mf66a2517df" x="275.651064" y="294.070752" style="fill: #1f77b4; stroke: #1f77b4"/>
     <use xlink:href="#mf66a2517df" x="277.282494" y="295.228004" style="fill: #1f77b4; stroke: #1f77b4"/>
     <use xlink:href="#mf66a2517df" x="278.913924" y="296.403248" style="fill: #1f77b4; stroke: #1f77b4"/>
     <use xlink:href="#mf66a2517df" x="280.545354" y="297.552902" style="fill: #1f77b4; stroke: #1f77b4"/>
     <use xlink:href="#mf66a2517df" x="282.176783" y="298.717254" style="fill: #1f77b4; stroke: #1f77b4"/>
     <use xlink:href="#mf66a2517df" x="283.808213" y="299.88824" style="fill: #1f77b4; stroke: #1f77b4"/>
     <use xlink:href="#mf66a2517df" x="285.439643" y="301.048928" style="fill: #1f77b4; stroke: #1f77b4"/>
     <use xlink:href="#mf66a2517df" x="287.071073" y="302.216317" style="fill: #1f77b4; stroke: #1f77b4"/>
     <use xlink:href="#mf66a2517df" x="288.702503" y="193.363072" style="fill: #1f77b4; stroke: #1f77b4"/>
     <use xlink:href="#mf66a2517df" x="290.333933" y="194.521815" style="fill: #1f77b4; stroke: #1f77b4"/>
     <use xlink:href="#mf66a2517df" x="291.965363" y="195.689193" style="fill: #1f77b4; stroke: #1f77b4"/>
     <use xlink:href="#mf66a2517df" x="293.596793" y="196.849653" style="fill: #1f77b4; stroke: #1f77b4"/>
     <use xlink:href="#mf66a2517df" x="295.228223" y="198.026265" style="fill: #1f77b4; stroke: #1f77b4"/>
     <use xlink:href="#mf66a2517df" x="296.859652" y="199.187542" style="fill: #1f77b4; stroke: #1f77b4"/>
     <use xlink:href="#mf66a2517df" x="298.491082" y="200.352461" style="fill: #1f77b4; stroke: #1f77b4"/>
     <use xlink:href="#mf66a2517df" x="300.122512" y="201.526499" style="fill: #1f77b4; stroke: #1f77b4"/>
     <use xlink:href="#mf66a2517df" x="301.753942" y="202.703935" style="fill: #1f77b4; stroke: #1f77b4"/>
     <use xlink:href="#mf66a2517df" x="303.385372" y="203.867034" style="fill: #1f77b4; stroke: #1f77b4"/>
     <use xlink:href="#mf66a2517df" x="305.016802" y="205.036373" style="fill: #1f77b4; stroke: #1f77b4"/>
     <use xlink:href="#mf66a2517df" x="306.648232" y="206.200299" style="fill: #1f77b4; stroke: #1f77b4"/>
     <use xlink:href="#mf66a2517df" x="308.279662" y="207.370909" style="fill: #1f77b4; stroke: #1f77b4"/>
     <use xlink:href="#mf66a2517df" x="309.911091" y="208.551479" style="fill: #1f77b4; stroke: #1f77b4"/>
     <use xlink:href="#mf66a2517df" x="311.542521" y="209.723828" style="fill: #1f77b4; stroke: #1f77b4"/>
     <use xlink:href="#mf66a2517df" x="313.173951" y="210.912899" style="fill: #1f77b4; stroke: #1f77b4"/>
     <use xlink:href="#mf66a2517df" x="314.805381" y="212.080314" style="fill: #1f77b4; stroke: #1f77b4"/>
     <use xlink:href="#mf66a2517df" x="316.436811" y="213.26184" style="fill: #1f77b4; stroke: #1f77b4"/>
     <use xlink:href="#mf66a2517df" x="318.068241" y="214.441061" style="fill: #1f77b4; stroke: #1f77b4"/>
     <use xlink:href="#mf66a2517df" x="319.699671" y="215.610661" style="fill: #1f77b4; stroke: #1f77b4"/>
     <use xlink:href="#mf66a2517df" x="321.331101" y="216.78565" style="fill: #1f77b4; stroke: #1f77b4"/>
     <use xlink:href="#mf66a2517df" x="322.96253" y="217.966331" style="fill: #1f77b4; stroke: #1f77b4"/>
     <use xlink:href="#mf66a2517df" x="324.59396" y="219.132296" style="fill: #1f77b4; stroke: #1f77b4"/>
     <use xlink:href="#mf66a2517df" x="326.22539" y="220.336213" style="fill: #1f77b4; stroke: #1f77b4"/>
     <use xlink:href="#mf66a2517df" x="327.85682" y="221.500607" style="fill: #1f77b4; stroke: #1f77b4"/>
     <use xlink:href="#mf66a2517df" x="329.48825" y="222.702756" style="fill: #1f77b4; stroke: #1f77b4"/>
     <use xlink:href="#mf66a2517df" x="331.11968" y="223.886597" style="fill: #1f77b4; stroke: #1f77b4"/>
     <use xlink:href="#mf66a2517df" x="332.75111" y="225.086261" style="fill: #1f77b4; stroke: #1f77b4"/>
     <use xlink:href="#mf66a2517df" x="334.38254" y="226.243566" style="fill: #1f77b4; stroke: #1f77b4"/>
     <use xlink:href="#mf66a2517df" x="336.013969" y="227.441582" style="fill: #1f77b4; stroke: #1f77b4"/>
     <use xlink:href="#mf66a2517df" x="337.645399" y="228.646421" style="fill: #1f77b4; stroke: #1f77b4"/>
     <use xlink:href="#mf66a2517df" x="339.276829" y="229.8139" style="fill: #1f77b4; stroke: #1f77b4"/>
     <use xlink:href="#mf66a2517df" x="340.908259" y="231.010484" style="fill: #1f77b4; stroke: #1f77b4"/>
     <use xlink:href="#mf66a2517df" x="342.539689" y="232.186041" style="fill: #1f77b4; stroke: #1f77b4"/>
     <use xlink:href="#mf66a2517df" x="344.171119" y="233.381777" style="fill: #1f77b4; stroke: #1f77b4"/>
     <use xlink:href="#mf66a2517df" x="345.802549" y="234.59165" style="fill: #1f77b4; stroke: #1f77b4"/>
     <use xlink:href="#mf66a2517df" x="347.433979" y="235.776419" style="fill: #1f77b4; stroke: #1f77b4"/>
     <use xlink:href="#mf66a2517df" x="349.065408" y="236.964417" style="fill: #1f77b4; stroke: #1f77b4"/>
     <use xlink:href="#mf66a2517df" x="350.696838" y="238.144993" style="fill: #1f77b4; stroke: #1f77b4"/>
     <use xlink:href="#mf66a2517df" x="352.328268" y="239.346473" style="fill: #1f77b4; stroke: #1f77b4"/>
     <use xlink:href="#mf66a2517df" x="353.959698" y="240.568413" style="fill: #1f77b4; stroke: #1f77b4"/>
     <use xlink:href="#mf66a2517df" x="355.591128" y="241.76499" style="fill: #1f77b4; stroke: #1f77b4"/>
     <use xlink:href="#mf66a2517df" x="357.222558" y="243.021181" style="fill: #1f77b4; stroke: #1f77b4"/>
     <use xlink:href="#mf66a2517df" x="358.853988" y="244.228707" style="fill: #1f77b4; stroke: #1f77b4"/>
     <use xlink:href="#mf66a2517df" x="360.485418" y="245.44666" style="fill: #1f77b4; stroke: #1f77b4"/>
     <use xlink:href="#mf66a2517df" x="362.116847" y="246.656868" style="fill: #1f77b4; stroke: #1f77b4"/>
     <use xlink:href="#mf66a2517df" x="363.748277" y="247.922718" style="fill: #1f77b4; stroke: #1f77b4"/>
     <use xlink:href="#mf66a2517df" x="365.379707" y="249.162054" style="fill: #1f77b4; stroke: #1f77b4"/>
     <use xlink:href="#mf66a2517df" x="367.011137" y="250.41187" style="fill: #1f77b4; stroke: #1f77b4"/>
     <use xlink:href="#mf66a2517df" x="368.642567" y="251.667262" style="fill: #1f77b4; stroke: #1f77b4"/>
     <use xlink:href="#mf66a2517df" x="370.273997" y="252.909851" style="fill: #1f77b4; stroke: #1f77b4"/>
     <use xlink:href="#mf66a2517df" x="371.905427" y="254.16454" style="fill: #1f77b4; stroke: #1f77b4"/>
     <use xlink:href="#mf66a2517df" x="373.536857" y="255.431625" style="fill: #1f77b4; stroke: #1f77b4"/>
     <use xlink:href="#mf66a2517df" x="375.168286" y="256.691302" style="fill: #1f77b4; stroke: #1f77b4"/>
     <use xlink:href="#mf66a2517df" x="376.799716" y="257.94973" style="fill: #1f77b4; stroke: #1f77b4"/>
     <use xlink:href="#mf66a2517df" x="378.431146" y="259.179528" style="fill: #1f77b4; stroke: #1f77b4"/>
     <use xlink:href="#mf66a2517df" x="380.062576" y="260.48146" style="fill: #1f77b4; stroke: #1f77b4"/>
     <use xlink:href="#mf66a2517df" x="381.694006" y="261.795049" style="fill: #1f77b4; stroke: #1f77b4"/>
     <use xlink:href="#mf66a2517df" x="383.325436" y="263.047193" style="fill: #1f77b4; stroke: #1f77b4"/>
     <use xlink:href="#mf66a2517df" x="384.956866" y="264.366095" style="fill: #1f77b4; stroke: #1f77b4"/>
     <use xlink:href="#mf66a2517df" x="386.588296" y="265.668289" style="fill: #1f77b4; stroke: #1f77b4"/>
     <use xlink:href="#mf66a2517df" x="388.219725" y="267.016757" style="fill: #1f77b4; stroke: #1f77b4"/>
     <use xlink:href="#mf66a2517df" x="389.851155" y="268.289999" style="fill: #1f77b4; stroke: #1f77b4"/>
     <use xlink:href="#mf66a2517df" x="391.482585" y="269.555322" style="fill: #1f77b4; stroke: #1f77b4"/>
    </g>
   </g>
   <g id="line2d_23">
    <path d="M 66.82804 255.998991 
L 132.148924 302.373818 
L 132.473904 192.576047 
L 224.443109 257.933834 
L 286.514199 302.275947 
L 286.839178 192.480317 
L 382.058179 260.771377 
L 391.482585 267.541423 
L 391.482585 267.541423 
" clip-path="url(#p80c32ff7ad)" style="fill: none; stroke: #d62728; stroke-width: 1.5; stroke-linecap: square"/>
   </g>
   <g id="patch_9">
    <path d="M 50.595313 307.872 
L 50.595313 186.912 
" style="fill: none; stroke: #000000; stroke-width: 0.8; stroke-linejoin: miter; stroke-linecap: square"/>
   </g>
   <g id="patch_10">
    <path d="M 407.715312 307.872 
L 407.715312 186.912 
" style="fill: none; stroke: #000000; stroke-width: 0.8; stroke-linejoin: miter; stroke-linecap: square"/>
   </g>
   <g id="patch_11">
    <path d="M 50.595312 307.872 
L 407.715312 307.872 
" style="fill: none; stroke: #000000; stroke-width: 0.8; stroke-linejoin: miter; stroke-linecap: square"/>
   </g>
   <g id="patch_12">
    <path d="M 50.595312 186.912 
L 407.715312 186.912 
" style="fill: none; stroke: #000000; stroke-width: 0.8; stroke-linejoin: miter; stroke-linecap: square"/>
   </g>
  </g>
  <g id="text_20">
   <!-- S21 One-tone -->
   <g transform="translate(182.144375 16.318125) scale(0.12 -0.12)">
    <defs>
     <path id="DejaVuSans-4f" d="M 2522 4238 
Q 1834 4238 1429 3725 
Q 1025 3213 1025 2328 
Q 1025 1447 1429 934 
Q 1834 422 2522 422 
Q 3209 422 3611 934 
Q 4013 1447 4013 2328 
Q 4013 3213 3611 3725 
Q 3209 4238 2522 4238 
z
M 2522 4750 
Q 3503 4750 4090 4092 
Q 4678 3434 4678 2328 
Q 4678 1225 4090 567 
Q 3503 -91 2522 -91 
Q 1538 -91 948 565 
Q 359 1222 359 2328 
Q 359 3434 948 4092 
Q 1538 4750 2522 4750 
z
" transform="scale(0.015625)"/>
     <path id="DejaVuSans-74" d="M 1172 4494 
L 1172 3500 
L 2356 3500 
L 2356 3053 
L 1172 3053 
L 1172 1153 
Q 1172 725 1289 603 
Q 1406 481 1766 481 
L 2356 481 
L 2356 0 
L 1766 0 
Q 1100 0 847 248 
Q 594 497 594 1153 
L 594 3053 
L 172 3053 
L 172 3500 
L 594 3500 
L 594 4494 
L 1172 4494 
z
" transform="scale(0.015625)"/>
     <path id="DejaVuSans-6f" d="M 1959 3097 
Q 1497 3097 1228 2736 
Q 959 2375 959 1747 
Q 959 1119 1226 758 
Q 1494 397 1959 397 
Q 2419 397 2687 759 
Q 2956 1122 2956 1747 
Q 2956 2369 2687 2733 
Q 2419 3097 1959 3097 
z
M 1959 3584 
Q 2709 3584 3137 3096 
Q 3566 2609 3566 1747 
Q 3566 888 3137 398 
Q 2709 -91 1959 -91 
Q 1206 -91 779 398 
Q 353 888 353 1747 
Q 353 2609 779 3096 
Q 1206 3584 1959 3584 
z
" transform="scale(0.015625)"/>
    </defs>
    <use xlink:href="#DejaVuSans-53"/>
    <use xlink:href="#DejaVuSans-32" x="63.476562"/>
    <use xlink:href="#DejaVuSans-31" x="127.099609"/>
    <use xlink:href="#DejaVuSans-20" x="190.722656"/>
    <use xlink:href="#DejaVuSans-4f" x="222.509766"/>
    <use xlink:href="#DejaVuSans-6e" x="301.220703"/>
    <use xlink:href="#DejaVuSans-65" x="364.599609"/>
    <use xlink:href="#DejaVuSans-2d" x="426.123047"/>
    <use xlink:href="#DejaVuSans-74" x="462.207031"/>
    <use xlink:href="#DejaVuSans-6f" x="501.416016"/>
    <use xlink:href="#DejaVuSans-6e" x="562.597656"/>
    <use xlink:href="#DejaVuSans-65" x="625.976562"/>
   </g>
   <!-- tuid: 20240221-085544-023-01b553 -->
   <g transform="translate(113.548438 29.7555) scale(0.12 -0.12)">
    <defs>
     <path id="DejaVuSans-69" d="M 603 3500 
L 1178 3500 
L 1178 0 
L 603 0 
L 603 3500 
z
M 603 4863 
L 1178 4863 
L 1178 4134 
L 603 4134 
L 603 4863 
z
" transform="scale(0.015625)"/>
     <path id="DejaVuSans-62" d="M 3116 1747 
Q 3116 2381 2855 2742 
Q 2594 3103 2138 3103 
Q 1681 3103 1420 2742 
Q 1159 2381 1159 1747 
Q 1159 1113 1420 752 
Q 1681 391 2138 391 
Q 2594 391 2855 752 
Q 3116 1113 3116 1747 
z
M 1159 2969 
Q 1341 3281 1617 3432 
Q 1894 3584 2278 3584 
Q 2916 3584 3314 3078 
Q 3713 2572 3713 1747 
Q 3713 922 3314 415 
Q 2916 -91 2278 -91 
Q 1894 -91 1617 61 
Q 1341 213 1159 525 
L 1159 0 
L 581 0 
L 581 4863 
L 1159 4863 
L 1159 2969 
z
" transform="scale(0.015625)"/>
    </defs>
    <use xlink:href="#DejaVuSans-74"/>
    <use xlink:href="#DejaVuSans-75" x="39.208984"/>
    <use xlink:href="#DejaVuSans-69" x="102.587891"/>
    <use xlink:href="#DejaVuSans-64" x="130.371094"/>
    <use xlink:href="#DejaVuSans-3a" x="193.847656"/>
    <use xlink:href="#DejaVuSans-20" x="227.539062"/>
    <use xlink:href="#DejaVuSans-32" x="259.326172"/>
    <use xlink:href="#DejaVuSans-30" x="322.949219"/>
    <use xlink:href="#DejaVuSans-32" x="386.572266"/>
    <use xlink:href="#DejaVuSans-34" x="450.195312"/>
    <use xlink:href="#DejaVuSans-30" x="513.818359"/>
    <use xlink:href="#DejaVuSans-32" x="577.441406"/>
    <use xlink:href="#DejaVuSans-32" x="641.064453"/>
    <use xlink:href="#DejaVuSans-31" x="704.6875"/>
    <use xlink:href="#DejaVuSans-2d" x="768.310547"/>
    <use xlink:href="#DejaVuSans-30" x="804.394531"/>
    <use xlink:href="#DejaVuSans-38" x="868.017578"/>
    <use xlink:href="#DejaVuSans-35" x="931.640625"/>
    <use xlink:href="#DejaVuSans-35" x="995.263672"/>
    <use xlink:href="#DejaVuSans-34" x="1058.886719"/>
    <use xlink:href="#DejaVuSans-34" x="1122.509766"/>
    <use xlink:href="#DejaVuSans-2d" x="1186.132812"/>
    <use xlink:href="#DejaVuSans-30" x="1222.216797"/>
    <use xlink:href="#DejaVuSans-32" x="1285.839844"/>
    <use xlink:href="#DejaVuSans-33" x="1349.462891"/>
    <use xlink:href="#DejaVuSans-2d" x="1413.085938"/>
    <use xlink:href="#DejaVuSans-30" x="1449.169922"/>
    <use xlink:href="#DejaVuSans-31" x="1512.792969"/>
    <use xlink:href="#DejaVuSans-62" x="1576.416016"/>
    <use xlink:href="#DejaVuSans-35" x="1639.892578"/>
    <use xlink:href="#DejaVuSans-35" x="1703.515625"/>
    <use xlink:href="#DejaVuSans-33" x="1767.138672"/>
   </g>
  </g>
 </g>
 <defs>
  <clipPath id="pf9f9958185">
   <rect x="50.595313" y="41.76" width="357.12" height="120.96"/>
  </clipPath>
  <clipPath id="p80c32ff7ad">
   <rect x="50.595313" y="186.912" width="357.12" height="120.96"/>
  </clipPath>
 </defs>
</svg>
