<?xml version="1.0" encoding="utf-8" standalone="no"?>
<!DOCTYPE svg PUBLIC "-//W3C//DTD SVG 1.1//EN"
  "http://www.w3.org/Graphics/SVG/1.1/DTD/svg11.dtd">
<svg xmlns:xlink="http://www.w3.org/1999/xlink" width="578.271312pt" height="345.42825pt" viewBox="0 0 578.271312 345.42825" xmlns="http://www.w3.org/2000/svg" version="1.1">
 <metadata>
  <rdf:RDF xmlns:dc="http://purl.org/dc/elements/1.1/" xmlns:cc="http://creativecommons.org/ns#" xmlns:rdf="http://www.w3.org/1999/02/22-rdf-syntax-ns#">
   <cc:Work>
    <dc:type rdf:resource="http://purl.org/dc/dcmitype/StillImage"/>
    <dc:date>2024-01-10T13:55:36.078719</dc:date>
    <dc:format>image/svg+xml</dc:format>
    <dc:creator>
     <cc:Agent>
      <dc:title>Matplotlib v3.8.1, https://matplotlib.org/</dc:title>
     </cc:Agent>
    </dc:creator>
   </cc:Work>
  </rdf:RDF>
 </metadata>
 <defs>
  <style type="text/css">*{stroke-linejoin: round; stroke-linecap: butt}</style>
 </defs>
 <g id="figure_1">
  <g id="patch_1">
   <path d="M 0 345.42825 
L 578.271312 345.42825 
L 578.271312 -0 
L 0 -0 
L 0 345.42825 
z
" style="fill: none; opacity: 0"/>
  </g>
  <g id="axes_1">
   <g id="patch_2">
    <path d="M 50.595313 162.72 
L 407.715312 162.72 
L 407.715312 41.76 
L 50.595313 41.76 
z
" style="fill: #ffffff"/>
   </g>
   <g id="matplotlib.axis_1">
    <g id="xtick_1">
     <g id="line2d_1">
      <defs>
       <path id="m833aafa9c4" d="M 0 0 
L 0 3.5 
" style="stroke: #000000; stroke-width: 0.8"/>
      </defs>
      <g>
       <use xlink:href="#m833aafa9c4" x="50.595312" y="162.72" style="stroke: #000000; stroke-width: 0.8"/>
      </g>
     </g>
    </g>
    <g id="xtick_2">
     <g id="line2d_2">
      <g>
       <use xlink:href="#m833aafa9c4" x="115.526222" y="162.72" style="stroke: #000000; stroke-width: 0.8"/>
      </g>
     </g>
    </g>
    <g id="xtick_3">
     <g id="line2d_3">
      <g>
       <use xlink:href="#m833aafa9c4" x="180.457131" y="162.72" style="stroke: #000000; stroke-width: 0.8"/>
      </g>
     </g>
    </g>
    <g id="xtick_4">
     <g id="line2d_4">
      <g>
       <use xlink:href="#m833aafa9c4" x="245.38804" y="162.72" style="stroke: #000000; stroke-width: 0.8"/>
      </g>
     </g>
    </g>
    <g id="xtick_5">
     <g id="line2d_5">
      <g>
       <use xlink:href="#m833aafa9c4" x="310.318949" y="162.72" style="stroke: #000000; stroke-width: 0.8"/>
      </g>
     </g>
    </g>
    <g id="xtick_6">
     <g id="line2d_6">
      <g>
       <use xlink:href="#m833aafa9c4" x="375.249858" y="162.72" style="stroke: #000000; stroke-width: 0.8"/>
      </g>
     </g>
    </g>
   </g>
   <g id="matplotlib.axis_2">
    <g id="ytick_1">
     <g id="line2d_7">
      <defs>
       <path id="me216580d66" d="M 0 0 
L -3.5 0 
" style="stroke: #000000; stroke-width: 0.8"/>
      </defs>
      <g>
       <use xlink:href="#me216580d66" x="50.595313" y="151.631726" style="stroke: #000000; stroke-width: 0.8"/>
      </g>
     </g>
     <g id="text_1">
      <!-- 1 -->
      <g transform="translate(37.232813 155.430944) scale(0.1 -0.1)">
       <defs>
        <path id="DejaVuSans-31" d="M 794 531 
L 1825 531 
L 1825 4091 
L 703 3866 
L 703 4441 
L 1819 4666 
L 2450 4666 
L 2450 531 
L 3481 531 
L 3481 0 
L 794 0 
L 794 531 
z
" transform="scale(0.015625)"/>
       </defs>
       <use xlink:href="#DejaVuSans-31"/>
      </g>
     </g>
    </g>
    <g id="ytick_2">
     <g id="line2d_8">
      <g>
       <use xlink:href="#me216580d66" x="50.595313" y="129.257662" style="stroke: #000000; stroke-width: 0.8"/>
      </g>
     </g>
     <g id="text_2">
      <!-- 2 -->
      <g transform="translate(37.232813 133.05688) scale(0.1 -0.1)">
       <defs>
        <path id="DejaVuSans-32" d="M 1228 531 
L 3431 531 
L 3431 0 
L 469 0 
L 469 531 
Q 828 903 1448 1529 
Q 2069 2156 2228 2338 
Q 2531 2678 2651 2914 
Q 2772 3150 2772 3378 
Q 2772 3750 2511 3984 
Q 2250 4219 1831 4219 
Q 1534 4219 1204 4116 
Q 875 4013 500 3803 
L 500 4441 
Q 881 4594 1212 4672 
Q 1544 4750 1819 4750 
Q 2544 4750 2975 4387 
Q 3406 4025 3406 3419 
Q 3406 3131 3298 2873 
Q 3191 2616 2906 2266 
Q 2828 2175 2409 1742 
Q 1991 1309 1228 531 
z
" transform="scale(0.015625)"/>
       </defs>
       <use xlink:href="#DejaVuSans-32"/>
      </g>
     </g>
    </g>
    <g id="ytick_3">
     <g id="line2d_9">
      <g>
       <use xlink:href="#me216580d66" x="50.595313" y="106.883598" style="stroke: #000000; stroke-width: 0.8"/>
      </g>
     </g>
     <g id="text_3">
      <!-- 3 -->
      <g transform="translate(37.232813 110.682816) scale(0.1 -0.1)">
       <defs>
        <path id="DejaVuSans-33" d="M 2597 2516 
Q 3050 2419 3304 2112 
Q 3559 1806 3559 1356 
Q 3559 666 3084 287 
Q 2609 -91 1734 -91 
Q 1441 -91 1130 -33 
Q 819 25 488 141 
L 488 750 
Q 750 597 1062 519 
Q 1375 441 1716 441 
Q 2309 441 2620 675 
Q 2931 909 2931 1356 
Q 2931 1769 2642 2001 
Q 2353 2234 1838 2234 
L 1294 2234 
L 1294 2753 
L 1863 2753 
Q 2328 2753 2575 2939 
Q 2822 3125 2822 3475 
Q 2822 3834 2567 4026 
Q 2313 4219 1838 4219 
Q 1578 4219 1281 4162 
Q 984 4106 628 3988 
L 628 4550 
Q 988 4650 1302 4700 
Q 1616 4750 1894 4750 
Q 2613 4750 3031 4423 
Q 3450 4097 3450 3541 
Q 3450 3153 3228 2886 
Q 3006 2619 2597 2516 
z
" transform="scale(0.015625)"/>
       </defs>
       <use xlink:href="#DejaVuSans-33"/>
      </g>
     </g>
    </g>
    <g id="ytick_4">
     <g id="line2d_10">
      <g>
       <use xlink:href="#me216580d66" x="50.595313" y="84.509534" style="stroke: #000000; stroke-width: 0.8"/>
      </g>
     </g>
     <g id="text_4">
      <!-- 4 -->
      <g transform="translate(37.232813 88.308752) scale(0.1 -0.1)">
       <defs>
        <path id="DejaVuSans-34" d="M 2419 4116 
L 825 1625 
L 2419 1625 
L 2419 4116 
z
M 2253 4666 
L 3047 4666 
L 3047 1625 
L 3713 1625 
L 3713 1100 
L 3047 1100 
L 3047 0 
L 2419 0 
L 2419 1100 
L 313 1100 
L 313 1709 
L 2253 4666 
z
" transform="scale(0.015625)"/>
       </defs>
       <use xlink:href="#DejaVuSans-34"/>
      </g>
     </g>
    </g>
    <g id="ytick_5">
     <g id="line2d_11">
      <g>
       <use xlink:href="#me216580d66" x="50.595313" y="62.13547" style="stroke: #000000; stroke-width: 0.8"/>
      </g>
     </g>
     <g id="text_5">
      <!-- 5 -->
      <g transform="translate(37.232813 65.934688) scale(0.1 -0.1)">
       <defs>
        <path id="DejaVuSans-35" d="M 691 4666 
L 3169 4666 
L 3169 4134 
L 1269 4134 
L 1269 2991 
Q 1406 3038 1543 3061 
Q 1681 3084 1819 3084 
Q 2600 3084 3056 2656 
Q 3513 2228 3513 1497 
Q 3513 744 3044 326 
Q 2575 -91 1722 -91 
Q 1428 -91 1123 -41 
Q 819 9 494 109 
L 494 744 
Q 775 591 1075 516 
Q 1375 441 1709 441 
Q 2250 441 2565 725 
Q 2881 1009 2881 1497 
Q 2881 1984 2565 2268 
Q 2250 2553 1709 2553 
Q 1456 2553 1204 2497 
Q 953 2441 691 2322 
L 691 4666 
z
" transform="scale(0.015625)"/>
       </defs>
       <use xlink:href="#DejaVuSans-35"/>
      </g>
     </g>
    </g>
    <g id="text_6">
     <!-- $|S_{21}|$ [mV] -->
     <g transform="translate(30.832813 127.19) rotate(-90) scale(0.1 -0.1)">
      <defs>
       <path id="DejaVuSans-7c" d="M 1344 4891 
L 1344 -1509 
L 813 -1509 
L 813 4891 
L 1344 4891 
z
" transform="scale(0.015625)"/>
       <path id="DejaVuSans-Oblique-53" d="M 3859 4513 
L 3738 3897 
Q 3422 4066 3111 4152 
Q 2800 4238 2509 4238 
Q 1944 4238 1609 3991 
Q 1275 3744 1275 3334 
Q 1275 3109 1398 2989 
Q 1522 2869 2034 2731 
L 2413 2638 
Q 3053 2472 3303 2217 
Q 3553 1963 3553 1503 
Q 3553 797 2998 353 
Q 2444 -91 1538 -91 
Q 1166 -91 791 -17 
Q 416 56 38 206 
L 166 856 
Q 513 641 861 531 
Q 1209 422 1556 422 
Q 2147 422 2503 684 
Q 2859 947 2859 1369 
Q 2859 1650 2717 1795 
Q 2575 1941 2106 2059 
L 1728 2156 
Q 1081 2325 845 2545 
Q 609 2766 609 3163 
Q 609 3859 1145 4304 
Q 1681 4750 2541 4750 
Q 2875 4750 3203 4690 
Q 3531 4631 3859 4513 
z
" transform="scale(0.015625)"/>
       <path id="DejaVuSans-20" transform="scale(0.015625)"/>
       <path id="DejaVuSans-5b" d="M 550 4863 
L 1875 4863 
L 1875 4416 
L 1125 4416 
L 1125 -397 
L 1875 -397 
L 1875 -844 
L 550 -844 
L 550 4863 
z
" transform="scale(0.015625)"/>
       <path id="DejaVuSans-6d" d="M 3328 2828 
Q 3544 3216 3844 3400 
Q 4144 3584 4550 3584 
Q 5097 3584 5394 3201 
Q 5691 2819 5691 2113 
L 5691 0 
L 5113 0 
L 5113 2094 
Q 5113 2597 4934 2840 
Q 4756 3084 4391 3084 
Q 3944 3084 3684 2787 
Q 3425 2491 3425 1978 
L 3425 0 
L 2847 0 
L 2847 2094 
Q 2847 2600 2669 2842 
Q 2491 3084 2119 3084 
Q 1678 3084 1418 2786 
Q 1159 2488 1159 1978 
L 1159 0 
L 581 0 
L 581 3500 
L 1159 3500 
L 1159 2956 
Q 1356 3278 1631 3431 
Q 1906 3584 2284 3584 
Q 2666 3584 2933 3390 
Q 3200 3197 3328 2828 
z
" transform="scale(0.015625)"/>
       <path id="DejaVuSans-56" d="M 1831 0 
L 50 4666 
L 709 4666 
L 2188 738 
L 3669 4666 
L 4325 4666 
L 2547 0 
L 1831 0 
z
" transform="scale(0.015625)"/>
       <path id="DejaVuSans-5d" d="M 1947 4863 
L 1947 -844 
L 622 -844 
L 622 -397 
L 1369 -397 
L 1369 4416 
L 622 4416 
L 622 4863 
L 1947 4863 
z
" transform="scale(0.015625)"/>
      </defs>
      <use xlink:href="#DejaVuSans-7c" transform="translate(0 0.578125)"/>
      <use xlink:href="#DejaVuSans-Oblique-53" transform="translate(33.691406 0.578125)"/>
      <use xlink:href="#DejaVuSans-32" transform="translate(97.167969 -15.828125) scale(0.7)"/>
      <use xlink:href="#DejaVuSans-31" transform="translate(141.704102 -15.828125) scale(0.7)"/>
      <use xlink:href="#DejaVuSans-7c" transform="translate(188.974609 0.578125)"/>
      <use xlink:href="#DejaVuSans-20" transform="translate(222.666016 0.578125)"/>
      <use xlink:href="#DejaVuSans-5b" transform="translate(254.453125 0.578125)"/>
      <use xlink:href="#DejaVuSans-6d" transform="translate(293.466797 0.578125)"/>
      <use xlink:href="#DejaVuSans-56" transform="translate(390.878906 0.578125)"/>
      <use xlink:href="#DejaVuSans-5d" transform="translate(459.287109 0.578125)"/>
     </g>
    </g>
   </g>
   <g id="line2d_12">
    <path d="M 66.82804 50.875514 
L 68.45947 48.186309 
L 70.0909 48.694908 
L 71.722329 50.382799 
L 73.353759 48.742034 
L 74.985189 48.400129 
L 76.616619 50.252 
L 78.248049 49.113508 
L 79.879479 47.258182 
L 81.510909 49.10395 
L 83.142339 48.760134 
L 84.773768 48.037525 
L 86.405198 50.714785 
L 88.036628 49.303658 
L 89.668058 48.248675 
L 91.299488 51.965022 
L 92.930918 50.944802 
L 94.562348 52.242059 
L 96.193778 48.301305 
L 97.825207 53.111036 
L 99.456637 50.986278 
L 101.088067 51.122978 
L 102.719497 51.507592 
L 104.350927 51.612038 
L 105.982357 52.184317 
L 107.613787 54.222903 
L 110.876646 53.998499 
L 112.508076 52.908169 
L 114.139506 54.063368 
L 115.770936 55.947404 
L 117.402366 54.097531 
L 119.033796 53.195823 
L 120.665226 55.600526 
L 122.296656 53.510486 
L 123.928085 58.354377 
L 125.559515 56.598343 
L 127.190945 58.166162 
L 130.453805 57.735736 
L 132.085235 60.064784 
L 133.716665 63.230486 
L 135.348095 63.016539 
L 136.979524 63.385425 
L 138.610954 63.464766 
L 140.242384 68.873462 
L 141.873814 65.234152 
L 143.505244 67.974863 
L 145.136674 70.408657 
L 146.768104 70.73392 
L 148.399534 74.412589 
L 150.030963 74.937467 
L 151.662393 77.479532 
L 153.293823 79.604077 
L 154.925253 85.687287 
L 156.556683 88.515121 
L 158.188113 85.204433 
L 159.819543 92.984797 
L 161.450973 94.936261 
L 163.082402 95.798506 
L 164.713832 102.569375 
L 166.345262 106.384686 
L 167.976692 114.928354 
L 169.608122 116.917589 
L 171.239552 121.121191 
L 172.870982 126.329562 
L 174.502412 130.117283 
L 176.133842 133.562473 
L 177.765271 140.791007 
L 179.396701 144.91225 
L 181.028131 147.743738 
L 182.659561 148.738822 
L 184.290991 151.070099 
L 185.922421 157.221818 
L 187.553851 151.985435 
L 189.185281 152.194036 
L 190.81671 151.092918 
L 194.07957 140.908038 
L 195.711 139.143419 
L 197.34243 136.641753 
L 198.97386 131.423734 
L 200.60529 128.778936 
L 202.23672 122.855423 
L 203.868149 120.095008 
L 205.499579 116.077017 
L 207.131009 112.406147 
L 208.762439 110.764826 
L 210.393869 108.131896 
L 212.025299 105.770851 
L 213.656729 101.681272 
L 215.288159 99.725897 
L 216.919588 96.787611 
L 218.551018 96.109686 
L 220.182448 94.775064 
L 221.813878 90.94381 
L 223.445308 90.265663 
L 225.076738 87.502974 
L 226.708168 85.179969 
L 228.339598 82.008611 
L 229.971027 82.241556 
L 231.602457 82.322931 
L 233.233887 78.673607 
L 234.865317 78.342356 
L 236.496747 77.2023 
L 238.128177 78.230401 
L 239.759607 75.25033 
L 241.391037 75.374006 
L 243.022466 74.095519 
L 244.653896 74.244711 
L 246.285326 71.253113 
L 247.916756 67.860019 
L 249.548186 71.465449 
L 251.179616 70.731348 
L 252.811046 67.946815 
L 254.442476 69.140227 
L 256.073905 66.019514 
L 257.705335 66.488853 
L 259.336765 67.657631 
L 260.968195 64.922124 
L 262.599625 64.502638 
L 264.231055 64.46516 
L 265.862485 65.152784 
L 267.493915 62.748913 
L 269.125344 63.518444 
L 270.756774 62.641004 
L 272.388204 64.496157 
L 274.019634 61.822817 
L 275.651064 63.167641 
L 277.282494 61.280418 
L 278.913924 62.806919 
L 280.545354 62.767458 
L 282.176783 62.131325 
L 283.808213 61.66949 
L 285.439643 60.572468 
L 287.071073 60.326503 
L 288.702503 60.406124 
L 290.333933 58.622164 
L 291.965363 58.68661 
L 293.596793 59.64249 
L 295.228223 58.127299 
L 296.859652 57.941671 
L 298.491082 59.190679 
L 300.122512 57.108066 
L 301.753942 57.383384 
L 303.385372 57.080392 
L 305.016802 58.13077 
L 306.648232 57.657285 
L 308.279662 58.022049 
L 309.911091 57.439336 
L 311.542521 53.614733 
L 313.173951 56.916183 
L 314.805381 55.558785 
L 316.436811 57.447533 
L 318.068241 54.576624 
L 319.699671 54.153814 
L 321.331101 53.995358 
L 322.96253 55.537848 
L 324.59396 55.456028 
L 326.22539 57.640726 
L 327.85682 55.273553 
L 329.48825 56.58719 
L 331.11968 54.893167 
L 332.75111 55.690942 
L 334.38254 54.663355 
L 336.013969 55.342647 
L 337.645399 55.483449 
L 339.276829 54.014136 
L 340.908259 54.700758 
L 342.539689 54.520526 
L 344.171119 56.489039 
L 345.802549 56.402203 
L 347.433979 55.231035 
L 349.065408 55.665713 
L 350.696838 54.890358 
L 352.328268 54.276129 
L 353.959698 53.457374 
L 355.591128 55.936838 
L 357.222558 54.262285 
L 358.853988 53.348087 
L 360.485418 55.558518 
L 362.116847 53.823698 
L 363.748277 53.456709 
L 365.379707 52.054709 
L 367.011137 55.204931 
L 368.642567 56.677459 
L 370.273997 53.176601 
L 371.905427 53.928171 
L 373.536857 51.641341 
L 375.168286 52.748196 
L 376.799716 53.579459 
L 378.431146 53.503942 
L 380.062576 53.672618 
L 381.694006 53.609892 
L 384.956866 54.568988 
L 386.588296 54.768873 
L 388.219725 52.995754 
L 389.851155 54.020596 
L 391.482585 51.98611 
L 391.482585 51.98611 
" clip-path="url(#p1beefd8c6c)" style="fill: none; stroke: #1f77b4; stroke-width: 1.5; stroke-linecap: square"/>
    <defs>
     <path id="md7f394593d" d="M 0 1.5 
C 0.397805 1.5 0.77937 1.341951 1.06066 1.06066 
C 1.341951 0.77937 1.5 0.397805 1.5 0 
C 1.5 -0.397805 1.341951 -0.77937 1.06066 -1.06066 
C 0.77937 -1.341951 0.397805 -1.5 0 -1.5 
C -0.397805 -1.5 -0.77937 -1.341951 -1.06066 -1.06066 
C -1.341951 -0.77937 -1.5 -0.397805 -1.5 0 
C -1.5 0.397805 -1.341951 0.77937 -1.06066 1.06066 
C -0.77937 1.341951 -0.397805 1.5 0 1.5 
z
" style="stroke: #1f77b4"/>
    </defs>
    <g clip-path="url(#p1beefd8c6c)">
     <use xlink:href="#md7f394593d" x="66.82804" y="50.875514" style="fill: #1f77b4; stroke: #1f77b4"/>
     <use xlink:href="#md7f394593d" x="68.45947" y="48.186309" style="fill: #1f77b4; stroke: #1f77b4"/>
     <use xlink:href="#md7f394593d" x="70.0909" y="48.694908" style="fill: #1f77b4; stroke: #1f77b4"/>
     <use xlink:href="#md7f394593d" x="71.722329" y="50.382799" style="fill: #1f77b4; stroke: #1f77b4"/>
     <use xlink:href="#md7f394593d" x="73.353759" y="48.742034" style="fill: #1f77b4; stroke: #1f77b4"/>
     <use xlink:href="#md7f394593d" x="74.985189" y="48.400129" style="fill: #1f77b4; stroke: #1f77b4"/>
     <use xlink:href="#md7f394593d" x="76.616619" y="50.252" style="fill: #1f77b4; stroke: #1f77b4"/>
     <use xlink:href="#md7f394593d" x="78.248049" y="49.113508" style="fill: #1f77b4; stroke: #1f77b4"/>
     <use xlink:href="#md7f394593d" x="79.879479" y="47.258182" style="fill: #1f77b4; stroke: #1f77b4"/>
     <use xlink:href="#md7f394593d" x="81.510909" y="49.10395" style="fill: #1f77b4; stroke: #1f77b4"/>
     <use xlink:href="#md7f394593d" x="83.142339" y="48.760134" style="fill: #1f77b4; stroke: #1f77b4"/>
     <use xlink:href="#md7f394593d" x="84.773768" y="48.037525" style="fill: #1f77b4; stroke: #1f77b4"/>
     <use xlink:href="#md7f394593d" x="86.405198" y="50.714785" style="fill: #1f77b4; stroke: #1f77b4"/>
     <use xlink:href="#md7f394593d" x="88.036628" y="49.303658" style="fill: #1f77b4; stroke: #1f77b4"/>
     <use xlink:href="#md7f394593d" x="89.668058" y="48.248675" style="fill: #1f77b4; stroke: #1f77b4"/>
     <use xlink:href="#md7f394593d" x="91.299488" y="51.965022" style="fill: #1f77b4; stroke: #1f77b4"/>
     <use xlink:href="#md7f394593d" x="92.930918" y="50.944802" style="fill: #1f77b4; stroke: #1f77b4"/>
     <use xlink:href="#md7f394593d" x="94.562348" y="52.242059" style="fill: #1f77b4; stroke: #1f77b4"/>
     <use xlink:href="#md7f394593d" x="96.193778" y="48.301305" style="fill: #1f77b4; stroke: #1f77b4"/>
     <use xlink:href="#md7f394593d" x="97.825207" y="53.111036" style="fill: #1f77b4; stroke: #1f77b4"/>
     <use xlink:href="#md7f394593d" x="99.456637" y="50.986278" style="fill: #1f77b4; stroke: #1f77b4"/>
     <use xlink:href="#md7f394593d" x="101.088067" y="51.122978" style="fill: #1f77b4; stroke: #1f77b4"/>
     <use xlink:href="#md7f394593d" x="102.719497" y="51.507592" style="fill: #1f77b4; stroke: #1f77b4"/>
     <use xlink:href="#md7f394593d" x="104.350927" y="51.612038" style="fill: #1f77b4; stroke: #1f77b4"/>
     <use xlink:href="#md7f394593d" x="105.982357" y="52.184317" style="fill: #1f77b4; stroke: #1f77b4"/>
     <use xlink:href="#md7f394593d" x="107.613787" y="54.222903" style="fill: #1f77b4; stroke: #1f77b4"/>
     <use xlink:href="#md7f394593d" x="109.245217" y="54.060006" style="fill: #1f77b4; stroke: #1f77b4"/>
     <use xlink:href="#md7f394593d" x="110.876646" y="53.998499" style="fill: #1f77b4; stroke: #1f77b4"/>
     <use xlink:href="#md7f394593d" x="112.508076" y="52.908169" style="fill: #1f77b4; stroke: #1f77b4"/>
     <use xlink:href="#md7f394593d" x="114.139506" y="54.063368" style="fill: #1f77b4; stroke: #1f77b4"/>
     <use xlink:href="#md7f394593d" x="115.770936" y="55.947404" style="fill: #1f77b4; stroke: #1f77b4"/>
     <use xlink:href="#md7f394593d" x="117.402366" y="54.097531" style="fill: #1f77b4; stroke: #1f77b4"/>
     <use xlink:href="#md7f394593d" x="119.033796" y="53.195823" style="fill: #1f77b4; stroke: #1f77b4"/>
     <use xlink:href="#md7f394593d" x="120.665226" y="55.600526" style="fill: #1f77b4; stroke: #1f77b4"/>
     <use xlink:href="#md7f394593d" x="122.296656" y="53.510486" style="fill: #1f77b4; stroke: #1f77b4"/>
     <use xlink:href="#md7f394593d" x="123.928085" y="58.354377" style="fill: #1f77b4; stroke: #1f77b4"/>
     <use xlink:href="#md7f394593d" x="125.559515" y="56.598343" style="fill: #1f77b4; stroke: #1f77b4"/>
     <use xlink:href="#md7f394593d" x="127.190945" y="58.166162" style="fill: #1f77b4; stroke: #1f77b4"/>
     <use xlink:href="#md7f394593d" x="128.822375" y="57.999734" style="fill: #1f77b4; stroke: #1f77b4"/>
     <use xlink:href="#md7f394593d" x="130.453805" y="57.735736" style="fill: #1f77b4; stroke: #1f77b4"/>
     <use xlink:href="#md7f394593d" x="132.085235" y="60.064784" style="fill: #1f77b4; stroke: #1f77b4"/>
     <use xlink:href="#md7f394593d" x="133.716665" y="63.230486" style="fill: #1f77b4; stroke: #1f77b4"/>
     <use xlink:href="#md7f394593d" x="135.348095" y="63.016539" style="fill: #1f77b4; stroke: #1f77b4"/>
     <use xlink:href="#md7f394593d" x="136.979524" y="63.385425" style="fill: #1f77b4; stroke: #1f77b4"/>
     <use xlink:href="#md7f394593d" x="138.610954" y="63.464766" style="fill: #1f77b4; stroke: #1f77b4"/>
     <use xlink:href="#md7f394593d" x="140.242384" y="68.873462" style="fill: #1f77b4; stroke: #1f77b4"/>
     <use xlink:href="#md7f394593d" x="141.873814" y="65.234152" style="fill: #1f77b4; stroke: #1f77b4"/>
     <use xlink:href="#md7f394593d" x="143.505244" y="67.974863" style="fill: #1f77b4; stroke: #1f77b4"/>
     <use xlink:href="#md7f394593d" x="145.136674" y="70.408657" style="fill: #1f77b4; stroke: #1f77b4"/>
     <use xlink:href="#md7f394593d" x="146.768104" y="70.73392" style="fill: #1f77b4; stroke: #1f77b4"/>
     <use xlink:href="#md7f394593d" x="148.399534" y="74.412589" style="fill: #1f77b4; stroke: #1f77b4"/>
     <use xlink:href="#md7f394593d" x="150.030963" y="74.937467" style="fill: #1f77b4; stroke: #1f77b4"/>
     <use xlink:href="#md7f394593d" x="151.662393" y="77.479532" style="fill: #1f77b4; stroke: #1f77b4"/>
     <use xlink:href="#md7f394593d" x="153.293823" y="79.604077" style="fill: #1f77b4; stroke: #1f77b4"/>
     <use xlink:href="#md7f394593d" x="154.925253" y="85.687287" style="fill: #1f77b4; stroke: #1f77b4"/>
     <use xlink:href="#md7f394593d" x="156.556683" y="88.515121" style="fill: #1f77b4; stroke: #1f77b4"/>
     <use xlink:href="#md7f394593d" x="158.188113" y="85.204433" style="fill: #1f77b4; stroke: #1f77b4"/>
     <use xlink:href="#md7f394593d" x="159.819543" y="92.984797" style="fill: #1f77b4; stroke: #1f77b4"/>
     <use xlink:href="#md7f394593d" x="161.450973" y="94.936261" style="fill: #1f77b4; stroke: #1f77b4"/>
     <use xlink:href="#md7f394593d" x="163.082402" y="95.798506" style="fill: #1f77b4; stroke: #1f77b4"/>
     <use xlink:href="#md7f394593d" x="164.713832" y="102.569375" style="fill: #1f77b4; stroke: #1f77b4"/>
     <use xlink:href="#md7f394593d" x="166.345262" y="106.384686" style="fill: #1f77b4; stroke: #1f77b4"/>
     <use xlink:href="#md7f394593d" x="167.976692" y="114.928354" style="fill: #1f77b4; stroke: #1f77b4"/>
     <use xlink:href="#md7f394593d" x="169.608122" y="116.917589" style="fill: #1f77b4; stroke: #1f77b4"/>
     <use xlink:href="#md7f394593d" x="171.239552" y="121.121191" style="fill: #1f77b4; stroke: #1f77b4"/>
     <use xlink:href="#md7f394593d" x="172.870982" y="126.329562" style="fill: #1f77b4; stroke: #1f77b4"/>
     <use xlink:href="#md7f394593d" x="174.502412" y="130.117283" style="fill: #1f77b4; stroke: #1f77b4"/>
     <use xlink:href="#md7f394593d" x="176.133842" y="133.562473" style="fill: #1f77b4; stroke: #1f77b4"/>
     <use xlink:href="#md7f394593d" x="177.765271" y="140.791007" style="fill: #1f77b4; stroke: #1f77b4"/>
     <use xlink:href="#md7f394593d" x="179.396701" y="144.91225" style="fill: #1f77b4; stroke: #1f77b4"/>
     <use xlink:href="#md7f394593d" x="181.028131" y="147.743738" style="fill: #1f77b4; stroke: #1f77b4"/>
     <use xlink:href="#md7f394593d" x="182.659561" y="148.738822" style="fill: #1f77b4; stroke: #1f77b4"/>
     <use xlink:href="#md7f394593d" x="184.290991" y="151.070099" style="fill: #1f77b4; stroke: #1f77b4"/>
     <use xlink:href="#md7f394593d" x="185.922421" y="157.221818" style="fill: #1f77b4; stroke: #1f77b4"/>
     <use xlink:href="#md7f394593d" x="187.553851" y="151.985435" style="fill: #1f77b4; stroke: #1f77b4"/>
     <use xlink:href="#md7f394593d" x="189.185281" y="152.194036" style="fill: #1f77b4; stroke: #1f77b4"/>
     <use xlink:href="#md7f394593d" x="190.81671" y="151.092918" style="fill: #1f77b4; stroke: #1f77b4"/>
     <use xlink:href="#md7f394593d" x="192.44814" y="145.836357" style="fill: #1f77b4; stroke: #1f77b4"/>
     <use xlink:href="#md7f394593d" x="194.07957" y="140.908038" style="fill: #1f77b4; stroke: #1f77b4"/>
     <use xlink:href="#md7f394593d" x="195.711" y="139.143419" style="fill: #1f77b4; stroke: #1f77b4"/>
     <use xlink:href="#md7f394593d" x="197.34243" y="136.641753" style="fill: #1f77b4; stroke: #1f77b4"/>
     <use xlink:href="#md7f394593d" x="198.97386" y="131.423734" style="fill: #1f77b4; stroke: #1f77b4"/>
     <use xlink:href="#md7f394593d" x="200.60529" y="128.778936" style="fill: #1f77b4; stroke: #1f77b4"/>
     <use xlink:href="#md7f394593d" x="202.23672" y="122.855423" style="fill: #1f77b4; stroke: #1f77b4"/>
     <use xlink:href="#md7f394593d" x="203.868149" y="120.095008" style="fill: #1f77b4; stroke: #1f77b4"/>
     <use xlink:href="#md7f394593d" x="205.499579" y="116.077017" style="fill: #1f77b4; stroke: #1f77b4"/>
     <use xlink:href="#md7f394593d" x="207.131009" y="112.406147" style="fill: #1f77b4; stroke: #1f77b4"/>
     <use xlink:href="#md7f394593d" x="208.762439" y="110.764826" style="fill: #1f77b4; stroke: #1f77b4"/>
     <use xlink:href="#md7f394593d" x="210.393869" y="108.131896" style="fill: #1f77b4; stroke: #1f77b4"/>
     <use xlink:href="#md7f394593d" x="212.025299" y="105.770851" style="fill: #1f77b4; stroke: #1f77b4"/>
     <use xlink:href="#md7f394593d" x="213.656729" y="101.681272" style="fill: #1f77b4; stroke: #1f77b4"/>
     <use xlink:href="#md7f394593d" x="215.288159" y="99.725897" style="fill: #1f77b4; stroke: #1f77b4"/>
     <use xlink:href="#md7f394593d" x="216.919588" y="96.787611" style="fill: #1f77b4; stroke: #1f77b4"/>
     <use xlink:href="#md7f394593d" x="218.551018" y="96.109686" style="fill: #1f77b4; stroke: #1f77b4"/>
     <use xlink:href="#md7f394593d" x="220.182448" y="94.775064" style="fill: #1f77b4; stroke: #1f77b4"/>
     <use xlink:href="#md7f394593d" x="221.813878" y="90.94381" style="fill: #1f77b4; stroke: #1f77b4"/>
     <use xlink:href="#md7f394593d" x="223.445308" y="90.265663" style="fill: #1f77b4; stroke: #1f77b4"/>
     <use xlink:href="#md7f394593d" x="225.076738" y="87.502974" style="fill: #1f77b4; stroke: #1f77b4"/>
     <use xlink:href="#md7f394593d" x="226.708168" y="85.179969" style="fill: #1f77b4; stroke: #1f77b4"/>
     <use xlink:href="#md7f394593d" x="228.339598" y="82.008611" style="fill: #1f77b4; stroke: #1f77b4"/>
     <use xlink:href="#md7f394593d" x="229.971027" y="82.241556" style="fill: #1f77b4; stroke: #1f77b4"/>
     <use xlink:href="#md7f394593d" x="231.602457" y="82.322931" style="fill: #1f77b4; stroke: #1f77b4"/>
     <use xlink:href="#md7f394593d" x="233.233887" y="78.673607" style="fill: #1f77b4; stroke: #1f77b4"/>
     <use xlink:href="#md7f394593d" x="234.865317" y="78.342356" style="fill: #1f77b4; stroke: #1f77b4"/>
     <use xlink:href="#md7f394593d" x="236.496747" y="77.2023" style="fill: #1f77b4; stroke: #1f77b4"/>
     <use xlink:href="#md7f394593d" x="238.128177" y="78.230401" style="fill: #1f77b4; stroke: #1f77b4"/>
     <use xlink:href="#md7f394593d" x="239.759607" y="75.25033" style="fill: #1f77b4; stroke: #1f77b4"/>
     <use xlink:href="#md7f394593d" x="241.391037" y="75.374006" style="fill: #1f77b4; stroke: #1f77b4"/>
     <use xlink:href="#md7f394593d" x="243.022466" y="74.095519" style="fill: #1f77b4; stroke: #1f77b4"/>
     <use xlink:href="#md7f394593d" x="244.653896" y="74.244711" style="fill: #1f77b4; stroke: #1f77b4"/>
     <use xlink:href="#md7f394593d" x="246.285326" y="71.253113" style="fill: #1f77b4; stroke: #1f77b4"/>
     <use xlink:href="#md7f394593d" x="247.916756" y="67.860019" style="fill: #1f77b4; stroke: #1f77b4"/>
     <use xlink:href="#md7f394593d" x="249.548186" y="71.465449" style="fill: #1f77b4; stroke: #1f77b4"/>
     <use xlink:href="#md7f394593d" x="251.179616" y="70.731348" style="fill: #1f77b4; stroke: #1f77b4"/>
     <use xlink:href="#md7f394593d" x="252.811046" y="67.946815" style="fill: #1f77b4; stroke: #1f77b4"/>
     <use xlink:href="#md7f394593d" x="254.442476" y="69.140227" style="fill: #1f77b4; stroke: #1f77b4"/>
     <use xlink:href="#md7f394593d" x="256.073905" y="66.019514" style="fill: #1f77b4; stroke: #1f77b4"/>
     <use xlink:href="#md7f394593d" x="257.705335" y="66.488853" style="fill: #1f77b4; stroke: #1f77b4"/>
     <use xlink:href="#md7f394593d" x="259.336765" y="67.657631" style="fill: #1f77b4; stroke: #1f77b4"/>
     <use xlink:href="#md7f394593d" x="260.968195" y="64.922124" style="fill: #1f77b4; stroke: #1f77b4"/>
     <use xlink:href="#md7f394593d" x="262.599625" y="64.502638" style="fill: #1f77b4; stroke: #1f77b4"/>
     <use xlink:href="#md7f394593d" x="264.231055" y="64.46516" style="fill: #1f77b4; stroke: #1f77b4"/>
     <use xlink:href="#md7f394593d" x="265.862485" y="65.152784" style="fill: #1f77b4; stroke: #1f77b4"/>
     <use xlink:href="#md7f394593d" x="267.493915" y="62.748913" style="fill: #1f77b4; stroke: #1f77b4"/>
     <use xlink:href="#md7f394593d" x="269.125344" y="63.518444" style="fill: #1f77b4; stroke: #1f77b4"/>
     <use xlink:href="#md7f394593d" x="270.756774" y="62.641004" style="fill: #1f77b4; stroke: #1f77b4"/>
     <use xlink:href="#md7f394593d" x="272.388204" y="64.496157" style="fill: #1f77b4; stroke: #1f77b4"/>
     <use xlink:href="#md7f394593d" x="274.019634" y="61.822817" style="fill: #1f77b4; stroke: #1f77b4"/>
     <use xlink:href="#md7f394593d" x="275.651064" y="63.167641" style="fill: #1f77b4; stroke: #1f77b4"/>
     <use xlink:href="#md7f394593d" x="277.282494" y="61.280418" style="fill: #1f77b4; stroke: #1f77b4"/>
     <use xlink:href="#md7f394593d" x="278.913924" y="62.806919" style="fill: #1f77b4; stroke: #1f77b4"/>
     <use xlink:href="#md7f394593d" x="280.545354" y="62.767458" style="fill: #1f77b4; stroke: #1f77b4"/>
     <use xlink:href="#md7f394593d" x="282.176783" y="62.131325" style="fill: #1f77b4; stroke: #1f77b4"/>
     <use xlink:href="#md7f394593d" x="283.808213" y="61.66949" style="fill: #1f77b4; stroke: #1f77b4"/>
     <use xlink:href="#md7f394593d" x="285.439643" y="60.572468" style="fill: #1f77b4; stroke: #1f77b4"/>
     <use xlink:href="#md7f394593d" x="287.071073" y="60.326503" style="fill: #1f77b4; stroke: #1f77b4"/>
     <use xlink:href="#md7f394593d" x="288.702503" y="60.406124" style="fill: #1f77b4; stroke: #1f77b4"/>
     <use xlink:href="#md7f394593d" x="290.333933" y="58.622164" style="fill: #1f77b4; stroke: #1f77b4"/>
     <use xlink:href="#md7f394593d" x="291.965363" y="58.68661" style="fill: #1f77b4; stroke: #1f77b4"/>
     <use xlink:href="#md7f394593d" x="293.596793" y="59.64249" style="fill: #1f77b4; stroke: #1f77b4"/>
     <use xlink:href="#md7f394593d" x="295.228223" y="58.127299" style="fill: #1f77b4; stroke: #1f77b4"/>
     <use xlink:href="#md7f394593d" x="296.859652" y="57.941671" style="fill: #1f77b4; stroke: #1f77b4"/>
     <use xlink:href="#md7f394593d" x="298.491082" y="59.190679" style="fill: #1f77b4; stroke: #1f77b4"/>
     <use xlink:href="#md7f394593d" x="300.122512" y="57.108066" style="fill: #1f77b4; stroke: #1f77b4"/>
     <use xlink:href="#md7f394593d" x="301.753942" y="57.383384" style="fill: #1f77b4; stroke: #1f77b4"/>
     <use xlink:href="#md7f394593d" x="303.385372" y="57.080392" style="fill: #1f77b4; stroke: #1f77b4"/>
     <use xlink:href="#md7f394593d" x="305.016802" y="58.13077" style="fill: #1f77b4; stroke: #1f77b4"/>
     <use xlink:href="#md7f394593d" x="306.648232" y="57.657285" style="fill: #1f77b4; stroke: #1f77b4"/>
     <use xlink:href="#md7f394593d" x="308.279662" y="58.022049" style="fill: #1f77b4; stroke: #1f77b4"/>
     <use xlink:href="#md7f394593d" x="309.911091" y="57.439336" style="fill: #1f77b4; stroke: #1f77b4"/>
     <use xlink:href="#md7f394593d" x="311.542521" y="53.614733" style="fill: #1f77b4; stroke: #1f77b4"/>
     <use xlink:href="#md7f394593d" x="313.173951" y="56.916183" style="fill: #1f77b4; stroke: #1f77b4"/>
     <use xlink:href="#md7f394593d" x="314.805381" y="55.558785" style="fill: #1f77b4; stroke: #1f77b4"/>
     <use xlink:href="#md7f394593d" x="316.436811" y="57.447533" style="fill: #1f77b4; stroke: #1f77b4"/>
     <use xlink:href="#md7f394593d" x="318.068241" y="54.576624" style="fill: #1f77b4; stroke: #1f77b4"/>
     <use xlink:href="#md7f394593d" x="319.699671" y="54.153814" style="fill: #1f77b4; stroke: #1f77b4"/>
     <use xlink:href="#md7f394593d" x="321.331101" y="53.995358" style="fill: #1f77b4; stroke: #1f77b4"/>
     <use xlink:href="#md7f394593d" x="322.96253" y="55.537848" style="fill: #1f77b4; stroke: #1f77b4"/>
     <use xlink:href="#md7f394593d" x="324.59396" y="55.456028" style="fill: #1f77b4; stroke: #1f77b4"/>
     <use xlink:href="#md7f394593d" x="326.22539" y="57.640726" style="fill: #1f77b4; stroke: #1f77b4"/>
     <use xlink:href="#md7f394593d" x="327.85682" y="55.273553" style="fill: #1f77b4; stroke: #1f77b4"/>
     <use xlink:href="#md7f394593d" x="329.48825" y="56.58719" style="fill: #1f77b4; stroke: #1f77b4"/>
     <use xlink:href="#md7f394593d" x="331.11968" y="54.893167" style="fill: #1f77b4; stroke: #1f77b4"/>
     <use xlink:href="#md7f394593d" x="332.75111" y="55.690942" style="fill: #1f77b4; stroke: #1f77b4"/>
     <use xlink:href="#md7f394593d" x="334.38254" y="54.663355" style="fill: #1f77b4; stroke: #1f77b4"/>
     <use xlink:href="#md7f394593d" x="336.013969" y="55.342647" style="fill: #1f77b4; stroke: #1f77b4"/>
     <use xlink:href="#md7f394593d" x="337.645399" y="55.483449" style="fill: #1f77b4; stroke: #1f77b4"/>
     <use xlink:href="#md7f394593d" x="339.276829" y="54.014136" style="fill: #1f77b4; stroke: #1f77b4"/>
     <use xlink:href="#md7f394593d" x="340.908259" y="54.700758" style="fill: #1f77b4; stroke: #1f77b4"/>
     <use xlink:href="#md7f394593d" x="342.539689" y="54.520526" style="fill: #1f77b4; stroke: #1f77b4"/>
     <use xlink:href="#md7f394593d" x="344.171119" y="56.489039" style="fill: #1f77b4; stroke: #1f77b4"/>
     <use xlink:href="#md7f394593d" x="345.802549" y="56.402203" style="fill: #1f77b4; stroke: #1f77b4"/>
     <use xlink:href="#md7f394593d" x="347.433979" y="55.231035" style="fill: #1f77b4; stroke: #1f77b4"/>
     <use xlink:href="#md7f394593d" x="349.065408" y="55.665713" style="fill: #1f77b4; stroke: #1f77b4"/>
     <use xlink:href="#md7f394593d" x="350.696838" y="54.890358" style="fill: #1f77b4; stroke: #1f77b4"/>
     <use xlink:href="#md7f394593d" x="352.328268" y="54.276129" style="fill: #1f77b4; stroke: #1f77b4"/>
     <use xlink:href="#md7f394593d" x="353.959698" y="53.457374" style="fill: #1f77b4; stroke: #1f77b4"/>
     <use xlink:href="#md7f394593d" x="355.591128" y="55.936838" style="fill: #1f77b4; stroke: #1f77b4"/>
     <use xlink:href="#md7f394593d" x="357.222558" y="54.262285" style="fill: #1f77b4; stroke: #1f77b4"/>
     <use xlink:href="#md7f394593d" x="358.853988" y="53.348087" style="fill: #1f77b4; stroke: #1f77b4"/>
     <use xlink:href="#md7f394593d" x="360.485418" y="55.558518" style="fill: #1f77b4; stroke: #1f77b4"/>
     <use xlink:href="#md7f394593d" x="362.116847" y="53.823698" style="fill: #1f77b4; stroke: #1f77b4"/>
     <use xlink:href="#md7f394593d" x="363.748277" y="53.456709" style="fill: #1f77b4; stroke: #1f77b4"/>
     <use xlink:href="#md7f394593d" x="365.379707" y="52.054709" style="fill: #1f77b4; stroke: #1f77b4"/>
     <use xlink:href="#md7f394593d" x="367.011137" y="55.204931" style="fill: #1f77b4; stroke: #1f77b4"/>
     <use xlink:href="#md7f394593d" x="368.642567" y="56.677459" style="fill: #1f77b4; stroke: #1f77b4"/>
     <use xlink:href="#md7f394593d" x="370.273997" y="53.176601" style="fill: #1f77b4; stroke: #1f77b4"/>
     <use xlink:href="#md7f394593d" x="371.905427" y="53.928171" style="fill: #1f77b4; stroke: #1f77b4"/>
     <use xlink:href="#md7f394593d" x="373.536857" y="51.641341" style="fill: #1f77b4; stroke: #1f77b4"/>
     <use xlink:href="#md7f394593d" x="375.168286" y="52.748196" style="fill: #1f77b4; stroke: #1f77b4"/>
     <use xlink:href="#md7f394593d" x="376.799716" y="53.579459" style="fill: #1f77b4; stroke: #1f77b4"/>
     <use xlink:href="#md7f394593d" x="378.431146" y="53.503942" style="fill: #1f77b4; stroke: #1f77b4"/>
     <use xlink:href="#md7f394593d" x="380.062576" y="53.672618" style="fill: #1f77b4; stroke: #1f77b4"/>
     <use xlink:href="#md7f394593d" x="381.694006" y="53.609892" style="fill: #1f77b4; stroke: #1f77b4"/>
     <use xlink:href="#md7f394593d" x="383.325436" y="54.119072" style="fill: #1f77b4; stroke: #1f77b4"/>
     <use xlink:href="#md7f394593d" x="384.956866" y="54.568988" style="fill: #1f77b4; stroke: #1f77b4"/>
     <use xlink:href="#md7f394593d" x="386.588296" y="54.768873" style="fill: #1f77b4; stroke: #1f77b4"/>
     <use xlink:href="#md7f394593d" x="388.219725" y="52.995754" style="fill: #1f77b4; stroke: #1f77b4"/>
     <use xlink:href="#md7f394593d" x="389.851155" y="54.020596" style="fill: #1f77b4; stroke: #1f77b4"/>
     <use xlink:href="#md7f394593d" x="391.482585" y="51.98611" style="fill: #1f77b4; stroke: #1f77b4"/>
    </g>
   </g>
   <g id="line2d_13">
    <path d="M 66.82804 47.821355 
L 77.877344 48.485924 
L 86.97677 49.247796 
L 94.776279 50.120607 
L 101.275869 51.059747 
L 107.125501 52.123163 
L 112.325173 53.29244 
L 116.874887 54.534176 
L 121.09962 55.913921 
L 124.999375 57.424231 
L 128.57415 59.049512 
L 131.823945 60.764891 
L 135.07374 62.747239 
L 137.998556 64.797457 
L 140.923371 67.139633 
L 143.523208 69.501803 
L 146.123044 72.16295 
L 148.72288 75.159768 
L 151.322716 78.531046 
L 153.922552 82.316451 
L 156.522389 86.554602 
L 159.122225 91.280218 
L 161.722061 96.520153 
L 164.321897 102.288127 
L 166.921733 108.577965 
L 169.846549 116.233222 
L 173.421324 126.256146 
L 180.245894 145.602863 
L 181.870792 149.542901 
L 183.17071 152.178643 
L 184.145648 153.723287 
L 185.120587 154.795066 
L 185.770546 155.207564 
L 186.420505 155.361309 
L 187.070464 155.253514 
L 187.720423 154.892991 
L 188.370382 154.298662 
L 189.345321 153.026418 
L 190.320259 151.385274 
L 191.620177 148.784155 
L 193.570055 144.348257 
L 203.64442 120.521676 
L 206.569236 114.475844 
L 209.494051 108.960051 
L 212.418867 103.963942 
L 215.018703 99.936252 
L 217.943519 95.835976 
L 220.868335 92.152387 
L 223.79315 88.84415 
L 226.717966 85.871625 
L 229.642782 83.197963 
L 232.892577 80.537041 
L 236.142372 78.162632 
L 239.717147 75.838782 
L 243.291922 73.776482 
L 247.191676 71.78338 
L 251.41641 69.882666 
L 255.966123 68.090392 
L 260.840816 66.416291 
L 266.040489 64.86479 
L 271.89012 63.358241 
L 278.389711 61.926811 
L 285.53926 60.590195 
L 293.338769 59.359179 
L 302.113216 58.198136 
L 312.187581 57.092913 
L 323.886844 56.043288 
L 337.211005 55.07771 
L 352.810022 54.176112 
L 371.333855 53.336257 
L 391.482585 52.62445 
L 391.482585 52.62445 
" clip-path="url(#p1beefd8c6c)" style="fill: none; stroke: #d62728; stroke-width: 1.5; stroke-linecap: square"/>
   </g>
   <g id="patch_3">
    <path d="M 50.595313 162.72 
L 50.595313 41.76 
" style="fill: none; stroke: #000000; stroke-width: 0.8; stroke-linejoin: miter; stroke-linecap: square"/>
   </g>
   <g id="patch_4">
    <path d="M 407.715312 162.72 
L 407.715312 41.76 
" style="fill: none; stroke: #000000; stroke-width: 0.8; stroke-linejoin: miter; stroke-linecap: square"/>
   </g>
   <g id="patch_5">
    <path d="M 50.595312 162.72 
L 407.715312 162.72 
" style="fill: none; stroke: #000000; stroke-width: 0.8; stroke-linejoin: miter; stroke-linecap: square"/>
   </g>
   <g id="patch_6">
    <path d="M 50.595312 41.76 
L 407.715312 41.76 
" style="fill: none; stroke: #000000; stroke-width: 0.8; stroke-linejoin: miter; stroke-linecap: square"/>
   </g>
   <g id="text_7">
    <g id="patch_7">
     <path d="M 425.571312 95.079562 
L 571.071312 95.079562 
Q 575.071312 95.079562 575.071312 91.079562 
L 575.071312 47.808 
Q 575.071312 43.808 571.071312 43.808 
L 425.571312 43.808 
Q 421.571312 43.808 421.571312 47.808 
L 421.571312 91.079562 
Q 421.571312 95.079562 425.571312 95.079562 
z
" style="fill: #ffffff; opacity: 0.5; stroke: #000000; stroke-linejoin: miter"/>
    </g>
    <!-- Summary -->
    <g transform="translate(425.571312 55.406437) scale(0.1 -0.1)">
     <defs>
      <path id="DejaVuSans-53" d="M 3425 4513 
L 3425 3897 
Q 3066 4069 2747 4153 
Q 2428 4238 2131 4238 
Q 1616 4238 1336 4038 
Q 1056 3838 1056 3469 
Q 1056 3159 1242 3001 
Q 1428 2844 1947 2747 
L 2328 2669 
Q 3034 2534 3370 2195 
Q 3706 1856 3706 1288 
Q 3706 609 3251 259 
Q 2797 -91 1919 -91 
Q 1588 -91 1214 -16 
Q 841 59 441 206 
L 441 856 
Q 825 641 1194 531 
Q 1563 422 1919 422 
Q 2459 422 2753 634 
Q 3047 847 3047 1241 
Q 3047 1584 2836 1778 
Q 2625 1972 2144 2069 
L 1759 2144 
Q 1053 2284 737 2584 
Q 422 2884 422 3419 
Q 422 4038 858 4394 
Q 1294 4750 2059 4750 
Q 2388 4750 2728 4690 
Q 3069 4631 3425 4513 
z
" transform="scale(0.015625)"/>
      <path id="DejaVuSans-75" d="M 544 1381 
L 544 3500 
L 1119 3500 
L 1119 1403 
Q 1119 906 1312 657 
Q 1506 409 1894 409 
Q 2359 409 2629 706 
Q 2900 1003 2900 1516 
L 2900 3500 
L 3475 3500 
L 3475 0 
L 2900 0 
L 2900 538 
Q 2691 219 2414 64 
Q 2138 -91 1772 -91 
Q 1169 -91 856 284 
Q 544 659 544 1381 
z
M 1991 3584 
L 1991 3584 
z
" transform="scale(0.015625)"/>
      <path id="DejaVuSans-61" d="M 2194 1759 
Q 1497 1759 1228 1600 
Q 959 1441 959 1056 
Q 959 750 1161 570 
Q 1363 391 1709 391 
Q 2188 391 2477 730 
Q 2766 1069 2766 1631 
L 2766 1759 
L 2194 1759 
z
M 3341 1997 
L 3341 0 
L 2766 0 
L 2766 531 
Q 2569 213 2275 61 
Q 1981 -91 1556 -91 
Q 1019 -91 701 211 
Q 384 513 384 1019 
Q 384 1609 779 1909 
Q 1175 2209 1959 2209 
L 2766 2209 
L 2766 2266 
Q 2766 2663 2505 2880 
Q 2244 3097 1772 3097 
Q 1472 3097 1187 3025 
Q 903 2953 641 2809 
L 641 3341 
Q 956 3463 1253 3523 
Q 1550 3584 1831 3584 
Q 2591 3584 2966 3190 
Q 3341 2797 3341 1997 
z
" transform="scale(0.015625)"/>
      <path id="DejaVuSans-72" d="M 2631 2963 
Q 2534 3019 2420 3045 
Q 2306 3072 2169 3072 
Q 1681 3072 1420 2755 
Q 1159 2438 1159 1844 
L 1159 0 
L 581 0 
L 581 3500 
L 1159 3500 
L 1159 2956 
Q 1341 3275 1631 3429 
Q 1922 3584 2338 3584 
Q 2397 3584 2469 3576 
Q 2541 3569 2628 3553 
L 2631 2963 
z
" transform="scale(0.015625)"/>
      <path id="DejaVuSans-79" d="M 2059 -325 
Q 1816 -950 1584 -1140 
Q 1353 -1331 966 -1331 
L 506 -1331 
L 506 -850 
L 844 -850 
Q 1081 -850 1212 -737 
Q 1344 -625 1503 -206 
L 1606 56 
L 191 3500 
L 800 3500 
L 1894 763 
L 2988 3500 
L 3597 3500 
L 2059 -325 
z
" transform="scale(0.015625)"/>
     </defs>
     <use xlink:href="#DejaVuSans-53"/>
     <use xlink:href="#DejaVuSans-75" x="63.476562"/>
     <use xlink:href="#DejaVuSans-6d" x="126.855469"/>
     <use xlink:href="#DejaVuSans-6d" x="224.267578"/>
     <use xlink:href="#DejaVuSans-61" x="321.679688"/>
     <use xlink:href="#DejaVuSans-72" x="382.958984"/>
     <use xlink:href="#DejaVuSans-79" x="424.072266"/>
    </g>
    <!-- $Q_I$: 18.00$\pm$0.30 k -->
    <g transform="translate(425.571312 66.60425) scale(0.1 -0.1)">
     <defs>
      <path id="DejaVuSans-Oblique-51" d="M 2309 -84 
Q 2275 -88 2237 -89 
Q 2200 -91 2125 -91 
Q 1250 -91 756 411 
Q 263 913 263 1797 
Q 263 2319 452 2844 
Q 641 3369 978 3788 
Q 1369 4269 1858 4509 
Q 2347 4750 2938 4750 
Q 3794 4750 4287 4245 
Q 4781 3741 4781 2869 
Q 4781 1928 4265 1147 
Q 3750 366 2919 44 
L 3553 -825 
L 2847 -825 
L 2309 -84 
z
M 2919 4238 
Q 2400 4238 2003 3986 
Q 1606 3734 1313 3219 
Q 1125 2891 1026 2522 
Q 928 2153 928 1778 
Q 928 1128 1239 775 
Q 1550 422 2119 422 
Q 2631 422 3032 676 
Q 3434 931 3719 1434 
Q 3909 1772 4009 2142 
Q 4109 2513 4109 2881 
Q 4109 3528 3796 3883 
Q 3484 4238 2919 4238 
z
" transform="scale(0.015625)"/>
      <path id="DejaVuSans-Oblique-49" d="M 1081 4666 
L 1716 4666 
L 806 0 
L 172 0 
L 1081 4666 
z
" transform="scale(0.015625)"/>
      <path id="DejaVuSans-3a" d="M 750 794 
L 1409 794 
L 1409 0 
L 750 0 
L 750 794 
z
M 750 3309 
L 1409 3309 
L 1409 2516 
L 750 2516 
L 750 3309 
z
" transform="scale(0.015625)"/>
      <path id="DejaVuSans-38" d="M 2034 2216 
Q 1584 2216 1326 1975 
Q 1069 1734 1069 1313 
Q 1069 891 1326 650 
Q 1584 409 2034 409 
Q 2484 409 2743 651 
Q 3003 894 3003 1313 
Q 3003 1734 2745 1975 
Q 2488 2216 2034 2216 
z
M 1403 2484 
Q 997 2584 770 2862 
Q 544 3141 544 3541 
Q 544 4100 942 4425 
Q 1341 4750 2034 4750 
Q 2731 4750 3128 4425 
Q 3525 4100 3525 3541 
Q 3525 3141 3298 2862 
Q 3072 2584 2669 2484 
Q 3125 2378 3379 2068 
Q 3634 1759 3634 1313 
Q 3634 634 3220 271 
Q 2806 -91 2034 -91 
Q 1263 -91 848 271 
Q 434 634 434 1313 
Q 434 1759 690 2068 
Q 947 2378 1403 2484 
z
M 1172 3481 
Q 1172 3119 1398 2916 
Q 1625 2713 2034 2713 
Q 2441 2713 2670 2916 
Q 2900 3119 2900 3481 
Q 2900 3844 2670 4047 
Q 2441 4250 2034 4250 
Q 1625 4250 1398 4047 
Q 1172 3844 1172 3481 
z
" transform="scale(0.015625)"/>
      <path id="DejaVuSans-2e" d="M 684 794 
L 1344 794 
L 1344 0 
L 684 0 
L 684 794 
z
" transform="scale(0.015625)"/>
      <path id="DejaVuSans-30" d="M 2034 4250 
Q 1547 4250 1301 3770 
Q 1056 3291 1056 2328 
Q 1056 1369 1301 889 
Q 1547 409 2034 409 
Q 2525 409 2770 889 
Q 3016 1369 3016 2328 
Q 3016 3291 2770 3770 
Q 2525 4250 2034 4250 
z
M 2034 4750 
Q 2819 4750 3233 4129 
Q 3647 3509 3647 2328 
Q 3647 1150 3233 529 
Q 2819 -91 2034 -91 
Q 1250 -91 836 529 
Q 422 1150 422 2328 
Q 422 3509 836 4129 
Q 1250 4750 2034 4750 
z
" transform="scale(0.015625)"/>
      <path id="DejaVuSans-b1" d="M 2944 4013 
L 2944 2803 
L 4684 2803 
L 4684 2272 
L 2944 2272 
L 2944 1063 
L 2419 1063 
L 2419 2272 
L 678 2272 
L 678 2803 
L 2419 2803 
L 2419 4013 
L 2944 4013 
z
M 678 531 
L 4684 531 
L 4684 0 
L 678 0 
L 678 531 
z
" transform="scale(0.015625)"/>
      <path id="DejaVuSans-6b" d="M 581 4863 
L 1159 4863 
L 1159 1991 
L 2875 3500 
L 3609 3500 
L 1753 1863 
L 3688 0 
L 2938 0 
L 1159 1709 
L 1159 0 
L 581 0 
L 581 4863 
z
" transform="scale(0.015625)"/>
     </defs>
     <use xlink:href="#DejaVuSans-Oblique-51" transform="translate(0 0.015625)"/>
     <use xlink:href="#DejaVuSans-Oblique-49" transform="translate(78.710938 -16.390625) scale(0.7)"/>
     <use xlink:href="#DejaVuSans-3a" transform="translate(102.089844 0.015625)"/>
     <use xlink:href="#DejaVuSans-20" transform="translate(135.78125 0.015625)"/>
     <use xlink:href="#DejaVuSans-31" transform="translate(167.568359 0.015625)"/>
     <use xlink:href="#DejaVuSans-38" transform="translate(231.191406 0.015625)"/>
     <use xlink:href="#DejaVuSans-2e" transform="translate(294.814453 0.015625)"/>
     <use xlink:href="#DejaVuSans-30" transform="translate(326.601562 0.015625)"/>
     <use xlink:href="#DejaVuSans-30" transform="translate(390.224609 0.015625)"/>
     <use xlink:href="#DejaVuSans-b1" transform="translate(453.847656 0.015625)"/>
     <use xlink:href="#DejaVuSans-30" transform="translate(537.636719 0.015625)"/>
     <use xlink:href="#DejaVuSans-2e" transform="translate(601.259766 0.015625)"/>
     <use xlink:href="#DejaVuSans-33" transform="translate(633.046875 0.015625)"/>
     <use xlink:href="#DejaVuSans-30" transform="translate(696.669922 0.015625)"/>
     <use xlink:href="#DejaVuSans-20" transform="translate(760.292969 0.015625)"/>
     <use xlink:href="#DejaVuSans-6b" transform="translate(792.080078 0.015625)"/>
    </g>
    <!-- $Q_C$: 3.155$\pm$0.014 k -->
    <g transform="translate(425.571312 77.802062) scale(0.1 -0.1)">
     <defs>
      <path id="DejaVuSans-Oblique-43" d="M 4447 4306 
L 4319 3641 
Q 4019 3944 3683 4091 
Q 3347 4238 2956 4238 
Q 2422 4238 2017 3981 
Q 1613 3725 1319 3200 
Q 1131 2863 1032 2486 
Q 934 2109 934 1728 
Q 934 1091 1264 756 
Q 1594 422 2222 422 
Q 2656 422 3056 561 
Q 3456 700 3834 978 
L 3688 231 
Q 3316 72 2936 -9 
Q 2556 -91 2175 -91 
Q 1278 -91 773 396 
Q 269 884 269 1753 
Q 269 2309 461 2846 
Q 653 3384 1013 3828 
Q 1394 4300 1883 4525 
Q 2372 4750 3022 4750 
Q 3422 4750 3780 4639 
Q 4138 4528 4447 4306 
z
" transform="scale(0.015625)"/>
     </defs>
     <use xlink:href="#DejaVuSans-Oblique-51" transform="translate(0 0.015625)"/>
     <use xlink:href="#DejaVuSans-Oblique-43" transform="translate(78.710938 -16.390625) scale(0.7)"/>
     <use xlink:href="#DejaVuSans-3a" transform="translate(130.322266 0.015625)"/>
     <use xlink:href="#DejaVuSans-20" transform="translate(164.013672 0.015625)"/>
     <use xlink:href="#DejaVuSans-33" transform="translate(195.800781 0.015625)"/>
     <use xlink:href="#DejaVuSans-2e" transform="translate(259.423828 0.015625)"/>
     <use xlink:href="#DejaVuSans-31" transform="translate(291.210938 0.015625)"/>
     <use xlink:href="#DejaVuSans-35" transform="translate(354.833984 0.015625)"/>
     <use xlink:href="#DejaVuSans-35" transform="translate(418.457031 0.015625)"/>
     <use xlink:href="#DejaVuSans-b1" transform="translate(482.080078 0.015625)"/>
     <use xlink:href="#DejaVuSans-30" transform="translate(565.869141 0.015625)"/>
     <use xlink:href="#DejaVuSans-2e" transform="translate(629.492188 0.015625)"/>
     <use xlink:href="#DejaVuSans-30" transform="translate(661.279297 0.015625)"/>
     <use xlink:href="#DejaVuSans-31" transform="translate(724.902344 0.015625)"/>
     <use xlink:href="#DejaVuSans-34" transform="translate(788.525391 0.015625)"/>
     <use xlink:href="#DejaVuSans-20" transform="translate(852.148438 0.015625)"/>
     <use xlink:href="#DejaVuSans-6b" transform="translate(883.935547 0.015625)"/>
    </g>
    <!-- $f_{res}$: 6.0080172$\pm$5.8e-06 GHz -->
    <g transform="translate(425.571312 88.999875) scale(0.1 -0.1)">
     <defs>
      <path id="DejaVuSans-Oblique-66" d="M 3059 4863 
L 2969 4384 
L 2419 4384 
Q 2106 4384 1964 4261 
Q 1822 4138 1753 3809 
L 1691 3500 
L 2638 3500 
L 2553 3053 
L 1606 3053 
L 1013 0 
L 434 0 
L 1031 3053 
L 481 3053 
L 563 3500 
L 1113 3500 
L 1159 3744 
Q 1278 4363 1576 4613 
Q 1875 4863 2516 4863 
L 3059 4863 
z
" transform="scale(0.015625)"/>
      <path id="DejaVuSans-Oblique-72" d="M 2853 2969 
Q 2766 3016 2653 3041 
Q 2541 3066 2413 3066 
Q 1953 3066 1609 2717 
Q 1266 2369 1153 1784 
L 800 0 
L 225 0 
L 909 3500 
L 1484 3500 
L 1375 2956 
Q 1603 3259 1920 3421 
Q 2238 3584 2597 3584 
Q 2691 3584 2781 3573 
Q 2872 3563 2963 3538 
L 2853 2969 
z
" transform="scale(0.015625)"/>
      <path id="DejaVuSans-Oblique-65" d="M 3078 2063 
Q 3088 2113 3092 2166 
Q 3097 2219 3097 2272 
Q 3097 2653 2873 2875 
Q 2650 3097 2266 3097 
Q 1838 3097 1509 2826 
Q 1181 2556 1013 2059 
L 3078 2063 
z
M 3578 1613 
L 903 1613 
Q 884 1494 878 1425 
Q 872 1356 872 1306 
Q 872 872 1139 634 
Q 1406 397 1894 397 
Q 2269 397 2603 481 
Q 2938 566 3225 728 
L 3116 159 
Q 2806 34 2476 -28 
Q 2147 -91 1806 -91 
Q 1078 -91 686 257 
Q 294 606 294 1247 
Q 294 1794 489 2264 
Q 684 2734 1063 3103 
Q 1306 3334 1642 3459 
Q 1978 3584 2356 3584 
Q 2950 3584 3301 3228 
Q 3653 2872 3653 2272 
Q 3653 2128 3634 1964 
Q 3616 1800 3578 1613 
z
" transform="scale(0.015625)"/>
      <path id="DejaVuSans-Oblique-73" d="M 3200 3397 
L 3091 2853 
Q 2863 2978 2609 3040 
Q 2356 3103 2088 3103 
Q 1634 3103 1373 2948 
Q 1113 2794 1113 2528 
Q 1113 2219 1719 2053 
Q 1766 2041 1788 2034 
L 1972 1978 
Q 2547 1819 2739 1644 
Q 2931 1469 2931 1166 
Q 2931 609 2489 259 
Q 2047 -91 1331 -91 
Q 1053 -91 747 -37 
Q 441 16 72 128 
L 184 722 
Q 500 559 806 475 
Q 1113 391 1394 391 
Q 1816 391 2080 572 
Q 2344 753 2344 1031 
Q 2344 1331 1650 1516 
L 1591 1531 
L 1394 1581 
Q 956 1697 753 1886 
Q 550 2075 550 2369 
Q 550 2928 970 3256 
Q 1391 3584 2113 3584 
Q 2397 3584 2667 3537 
Q 2938 3491 3200 3397 
z
" transform="scale(0.015625)"/>
      <path id="DejaVuSans-36" d="M 2113 2584 
Q 1688 2584 1439 2293 
Q 1191 2003 1191 1497 
Q 1191 994 1439 701 
Q 1688 409 2113 409 
Q 2538 409 2786 701 
Q 3034 994 3034 1497 
Q 3034 2003 2786 2293 
Q 2538 2584 2113 2584 
z
M 3366 4563 
L 3366 3988 
Q 3128 4100 2886 4159 
Q 2644 4219 2406 4219 
Q 1781 4219 1451 3797 
Q 1122 3375 1075 2522 
Q 1259 2794 1537 2939 
Q 1816 3084 2150 3084 
Q 2853 3084 3261 2657 
Q 3669 2231 3669 1497 
Q 3669 778 3244 343 
Q 2819 -91 2113 -91 
Q 1303 -91 875 529 
Q 447 1150 447 2328 
Q 447 3434 972 4092 
Q 1497 4750 2381 4750 
Q 2619 4750 2861 4703 
Q 3103 4656 3366 4563 
z
" transform="scale(0.015625)"/>
      <path id="DejaVuSans-37" d="M 525 4666 
L 3525 4666 
L 3525 4397 
L 1831 0 
L 1172 0 
L 2766 4134 
L 525 4134 
L 525 4666 
z
" transform="scale(0.015625)"/>
      <path id="DejaVuSans-65" d="M 3597 1894 
L 3597 1613 
L 953 1613 
Q 991 1019 1311 708 
Q 1631 397 2203 397 
Q 2534 397 2845 478 
Q 3156 559 3463 722 
L 3463 178 
Q 3153 47 2828 -22 
Q 2503 -91 2169 -91 
Q 1331 -91 842 396 
Q 353 884 353 1716 
Q 353 2575 817 3079 
Q 1281 3584 2069 3584 
Q 2775 3584 3186 3129 
Q 3597 2675 3597 1894 
z
M 3022 2063 
Q 3016 2534 2758 2815 
Q 2500 3097 2075 3097 
Q 1594 3097 1305 2825 
Q 1016 2553 972 2059 
L 3022 2063 
z
" transform="scale(0.015625)"/>
      <path id="DejaVuSans-2d" d="M 313 2009 
L 1997 2009 
L 1997 1497 
L 313 1497 
L 313 2009 
z
" transform="scale(0.015625)"/>
      <path id="DejaVuSans-47" d="M 3809 666 
L 3809 1919 
L 2778 1919 
L 2778 2438 
L 4434 2438 
L 4434 434 
Q 4069 175 3628 42 
Q 3188 -91 2688 -91 
Q 1594 -91 976 548 
Q 359 1188 359 2328 
Q 359 3472 976 4111 
Q 1594 4750 2688 4750 
Q 3144 4750 3555 4637 
Q 3966 4525 4313 4306 
L 4313 3634 
Q 3963 3931 3569 4081 
Q 3175 4231 2741 4231 
Q 1884 4231 1454 3753 
Q 1025 3275 1025 2328 
Q 1025 1384 1454 906 
Q 1884 428 2741 428 
Q 3075 428 3337 486 
Q 3600 544 3809 666 
z
" transform="scale(0.015625)"/>
      <path id="DejaVuSans-48" d="M 628 4666 
L 1259 4666 
L 1259 2753 
L 3553 2753 
L 3553 4666 
L 4184 4666 
L 4184 0 
L 3553 0 
L 3553 2222 
L 1259 2222 
L 1259 0 
L 628 0 
L 628 4666 
z
" transform="scale(0.015625)"/>
      <path id="DejaVuSans-7a" d="M 353 3500 
L 3084 3500 
L 3084 2975 
L 922 459 
L 3084 459 
L 3084 0 
L 275 0 
L 275 525 
L 2438 3041 
L 353 3041 
L 353 3500 
z
" transform="scale(0.015625)"/>
     </defs>
     <use xlink:href="#DejaVuSans-Oblique-66" transform="translate(0 0.015625)"/>
     <use xlink:href="#DejaVuSans-Oblique-72" transform="translate(35.205078 -16.390625) scale(0.7)"/>
     <use xlink:href="#DejaVuSans-Oblique-65" transform="translate(63.984375 -16.390625) scale(0.7)"/>
     <use xlink:href="#DejaVuSans-Oblique-73" transform="translate(107.050781 -16.390625) scale(0.7)"/>
     <use xlink:href="#DejaVuSans-3a" transform="translate(146.254883 0.015625)"/>
     <use xlink:href="#DejaVuSans-20" transform="translate(179.946289 0.015625)"/>
     <use xlink:href="#DejaVuSans-36" transform="translate(211.733398 0.015625)"/>
     <use xlink:href="#DejaVuSans-2e" transform="translate(275.356445 0.015625)"/>
     <use xlink:href="#DejaVuSans-30" transform="translate(307.143555 0.015625)"/>
     <use xlink:href="#DejaVuSans-30" transform="translate(370.766602 0.015625)"/>
     <use xlink:href="#DejaVuSans-38" transform="translate(434.389648 0.015625)"/>
     <use xlink:href="#DejaVuSans-30" transform="translate(498.012695 0.015625)"/>
     <use xlink:href="#DejaVuSans-31" transform="translate(561.635742 0.015625)"/>
     <use xlink:href="#DejaVuSans-37" transform="translate(625.258789 0.015625)"/>
     <use xlink:href="#DejaVuSans-32" transform="translate(688.881836 0.015625)"/>
     <use xlink:href="#DejaVuSans-b1" transform="translate(752.504883 0.015625)"/>
     <use xlink:href="#DejaVuSans-35" transform="translate(836.293945 0.015625)"/>
     <use xlink:href="#DejaVuSans-2e" transform="translate(899.916992 0.015625)"/>
     <use xlink:href="#DejaVuSans-38" transform="translate(929.079102 0.015625)"/>
     <use xlink:href="#DejaVuSans-65" transform="translate(992.702148 0.015625)"/>
     <use xlink:href="#DejaVuSans-2d" transform="translate(1054.225586 0.015625)"/>
     <use xlink:href="#DejaVuSans-30" transform="translate(1090.30957 0.015625)"/>
     <use xlink:href="#DejaVuSans-36" transform="translate(1153.932617 0.015625)"/>
     <use xlink:href="#DejaVuSans-20" transform="translate(1217.555664 0.015625)"/>
     <use xlink:href="#DejaVuSans-47" transform="translate(1249.342773 0.015625)"/>
     <use xlink:href="#DejaVuSans-48" transform="translate(1326.833008 0.015625)"/>
     <use xlink:href="#DejaVuSans-7a" transform="translate(1402.02832 0.015625)"/>
    </g>
   </g>
  </g>
  <g id="axes_2">
   <g id="patch_8">
    <path d="M 50.595313 307.872 
L 407.715312 307.872 
L 407.715312 186.912 
L 50.595313 186.912 
z
" style="fill: #ffffff"/>
   </g>
   <g id="matplotlib.axis_3">
    <g id="xtick_7">
     <g id="line2d_14">
      <g>
       <use xlink:href="#m833aafa9c4" x="50.595312" y="307.872" style="stroke: #000000; stroke-width: 0.8"/>
      </g>
     </g>
     <g id="text_8">
      <!-- 4 -->
      <g transform="translate(47.414062 322.470438) scale(0.1 -0.1)">
       <use xlink:href="#DejaVuSans-34"/>
      </g>
     </g>
    </g>
    <g id="xtick_8">
     <g id="line2d_15">
      <g>
       <use xlink:href="#m833aafa9c4" x="115.526222" y="307.872" style="stroke: #000000; stroke-width: 0.8"/>
      </g>
     </g>
     <g id="text_9">
      <!-- 6 -->
      <g transform="translate(112.344972 322.470438) scale(0.1 -0.1)">
       <use xlink:href="#DejaVuSans-36"/>
      </g>
     </g>
    </g>
    <g id="xtick_9">
     <g id="line2d_16">
      <g>
       <use xlink:href="#m833aafa9c4" x="180.457131" y="307.872" style="stroke: #000000; stroke-width: 0.8"/>
      </g>
     </g>
     <g id="text_10">
      <!-- 8 -->
      <g transform="translate(177.275881 322.470438) scale(0.1 -0.1)">
       <use xlink:href="#DejaVuSans-38"/>
      </g>
     </g>
    </g>
    <g id="xtick_10">
     <g id="line2d_17">
      <g>
       <use xlink:href="#m833aafa9c4" x="245.38804" y="307.872" style="stroke: #000000; stroke-width: 0.8"/>
      </g>
     </g>
     <g id="text_11">
      <!-- 10 -->
      <g transform="translate(239.02554 322.470438) scale(0.1 -0.1)">
       <use xlink:href="#DejaVuSans-31"/>
       <use xlink:href="#DejaVuSans-30" x="63.623047"/>
      </g>
     </g>
    </g>
    <g id="xtick_11">
     <g id="line2d_18">
      <g>
       <use xlink:href="#m833aafa9c4" x="310.318949" y="307.872" style="stroke: #000000; stroke-width: 0.8"/>
      </g>
     </g>
     <g id="text_12">
      <!-- 12 -->
      <g transform="translate(303.956449 322.470438) scale(0.1 -0.1)">
       <use xlink:href="#DejaVuSans-31"/>
       <use xlink:href="#DejaVuSans-32" x="63.623047"/>
      </g>
     </g>
    </g>
    <g id="xtick_12">
     <g id="line2d_19">
      <g>
       <use xlink:href="#m833aafa9c4" x="375.249858" y="307.872" style="stroke: #000000; stroke-width: 0.8"/>
      </g>
     </g>
     <g id="text_13">
      <!-- 14 -->
      <g transform="translate(368.887358 322.470438) scale(0.1 -0.1)">
       <use xlink:href="#DejaVuSans-31"/>
       <use xlink:href="#DejaVuSans-34" x="63.623047"/>
      </g>
     </g>
    </g>
    <g id="text_14">
     <!-- Frequency [MHz] -->
     <g transform="translate(187.136562 336.148562) scale(0.1 -0.1)">
      <defs>
       <path id="DejaVuSans-46" d="M 628 4666 
L 3309 4666 
L 3309 4134 
L 1259 4134 
L 1259 2759 
L 3109 2759 
L 3109 2228 
L 1259 2228 
L 1259 0 
L 628 0 
L 628 4666 
z
" transform="scale(0.015625)"/>
       <path id="DejaVuSans-71" d="M 947 1747 
Q 947 1113 1208 752 
Q 1469 391 1925 391 
Q 2381 391 2643 752 
Q 2906 1113 2906 1747 
Q 2906 2381 2643 2742 
Q 2381 3103 1925 3103 
Q 1469 3103 1208 2742 
Q 947 2381 947 1747 
z
M 2906 525 
Q 2725 213 2448 61 
Q 2172 -91 1784 -91 
Q 1150 -91 751 415 
Q 353 922 353 1747 
Q 353 2572 751 3078 
Q 1150 3584 1784 3584 
Q 2172 3584 2448 3432 
Q 2725 3281 2906 2969 
L 2906 3500 
L 3481 3500 
L 3481 -1331 
L 2906 -1331 
L 2906 525 
z
" transform="scale(0.015625)"/>
       <path id="DejaVuSans-6e" d="M 3513 2113 
L 3513 0 
L 2938 0 
L 2938 2094 
Q 2938 2591 2744 2837 
Q 2550 3084 2163 3084 
Q 1697 3084 1428 2787 
Q 1159 2491 1159 1978 
L 1159 0 
L 581 0 
L 581 3500 
L 1159 3500 
L 1159 2956 
Q 1366 3272 1645 3428 
Q 1925 3584 2291 3584 
Q 2894 3584 3203 3211 
Q 3513 2838 3513 2113 
z
" transform="scale(0.015625)"/>
       <path id="DejaVuSans-63" d="M 3122 3366 
L 3122 2828 
Q 2878 2963 2633 3030 
Q 2388 3097 2138 3097 
Q 1578 3097 1268 2742 
Q 959 2388 959 1747 
Q 959 1106 1268 751 
Q 1578 397 2138 397 
Q 2388 397 2633 464 
Q 2878 531 3122 666 
L 3122 134 
Q 2881 22 2623 -34 
Q 2366 -91 2075 -91 
Q 1284 -91 818 406 
Q 353 903 353 1747 
Q 353 2603 823 3093 
Q 1294 3584 2113 3584 
Q 2378 3584 2631 3529 
Q 2884 3475 3122 3366 
z
" transform="scale(0.015625)"/>
       <path id="DejaVuSans-4d" d="M 628 4666 
L 1569 4666 
L 2759 1491 
L 3956 4666 
L 4897 4666 
L 4897 0 
L 4281 0 
L 4281 4097 
L 3078 897 
L 2444 897 
L 1241 4097 
L 1241 0 
L 628 0 
L 628 4666 
z
" transform="scale(0.015625)"/>
      </defs>
      <use xlink:href="#DejaVuSans-46"/>
      <use xlink:href="#DejaVuSans-72" x="50.269531"/>
      <use xlink:href="#DejaVuSans-65" x="89.132812"/>
      <use xlink:href="#DejaVuSans-71" x="150.65625"/>
      <use xlink:href="#DejaVuSans-75" x="214.132812"/>
      <use xlink:href="#DejaVuSans-65" x="277.511719"/>
      <use xlink:href="#DejaVuSans-6e" x="339.035156"/>
      <use xlink:href="#DejaVuSans-63" x="402.414062"/>
      <use xlink:href="#DejaVuSans-79" x="457.394531"/>
      <use xlink:href="#DejaVuSans-20" x="516.574219"/>
      <use xlink:href="#DejaVuSans-5b" x="548.361328"/>
      <use xlink:href="#DejaVuSans-4d" x="587.375"/>
      <use xlink:href="#DejaVuSans-48" x="673.654297"/>
      <use xlink:href="#DejaVuSans-7a" x="748.849609"/>
      <use xlink:href="#DejaVuSans-5d" x="801.339844"/>
     </g>
    </g>
    <g id="text_15">
     <!-- +6 GHz -->
     <g transform="translate(369.277812 335.148562) scale(0.1 -0.1)">
      <defs>
       <path id="DejaVuSans-2b" d="M 2944 4013 
L 2944 2272 
L 4684 2272 
L 4684 1741 
L 2944 1741 
L 2944 0 
L 2419 0 
L 2419 1741 
L 678 1741 
L 678 2272 
L 2419 2272 
L 2419 4013 
L 2944 4013 
z
" transform="scale(0.015625)"/>
      </defs>
      <use xlink:href="#DejaVuSans-2b"/>
      <use xlink:href="#DejaVuSans-36" x="83.789062"/>
      <use xlink:href="#DejaVuSans-20" x="147.412109"/>
      <use xlink:href="#DejaVuSans-47" x="179.199219"/>
      <use xlink:href="#DejaVuSans-48" x="256.689453"/>
      <use xlink:href="#DejaVuSans-7a" x="331.884766"/>
     </g>
    </g>
   </g>
   <g id="matplotlib.axis_4">
    <g id="ytick_6">
     <g id="line2d_20">
      <g>
       <use xlink:href="#me216580d66" x="50.595313" y="277.938837" style="stroke: #000000; stroke-width: 0.8"/>
      </g>
     </g>
     <g id="text_16">
      <!-- -100 -->
      <g transform="translate(20.9 281.738056) scale(0.1 -0.1)">
       <use xlink:href="#DejaVuSans-2d"/>
       <use xlink:href="#DejaVuSans-31" x="36.083984"/>
       <use xlink:href="#DejaVuSans-30" x="99.707031"/>
       <use xlink:href="#DejaVuSans-30" x="163.330078"/>
      </g>
     </g>
    </g>
    <g id="ytick_7">
     <g id="line2d_21">
      <g>
       <use xlink:href="#me216580d66" x="50.595313" y="247.37462" style="stroke: #000000; stroke-width: 0.8"/>
      </g>
     </g>
     <g id="text_17">
      <!-- 0 -->
      <g transform="translate(37.232813 251.173839) scale(0.1 -0.1)">
       <use xlink:href="#DejaVuSans-30"/>
      </g>
     </g>
    </g>
    <g id="ytick_8">
     <g id="line2d_22">
      <g>
       <use xlink:href="#me216580d66" x="50.595313" y="216.810403" style="stroke: #000000; stroke-width: 0.8"/>
      </g>
     </g>
     <g id="text_18">
      <!-- 100 -->
      <g transform="translate(24.507813 220.609622) scale(0.1 -0.1)">
       <use xlink:href="#DejaVuSans-31"/>
       <use xlink:href="#DejaVuSans-30" x="63.623047"/>
       <use xlink:href="#DejaVuSans-30" x="127.246094"/>
      </g>
     </g>
    </g>
    <g id="text_19">
     <!-- $\angle S_{21}$ [deg] -->
     <g transform="translate(14.8 274.592) rotate(-90) scale(0.1 -0.1)">
      <defs>
       <path id="DejaVuSans-2220" d="M 5028 631 
L 5028 0 
L 547 0 
L 3525 4666 
L 4281 4666 
L 1716 631 
L 5028 631 
z
" transform="scale(0.015625)"/>
       <path id="DejaVuSans-64" d="M 2906 2969 
L 2906 4863 
L 3481 4863 
L 3481 0 
L 2906 0 
L 2906 525 
Q 2725 213 2448 61 
Q 2172 -91 1784 -91 
Q 1150 -91 751 415 
Q 353 922 353 1747 
Q 353 2572 751 3078 
Q 1150 3584 1784 3584 
Q 2172 3584 2448 3432 
Q 2725 3281 2906 2969 
z
M 947 1747 
Q 947 1113 1208 752 
Q 1469 391 1925 391 
Q 2381 391 2643 752 
Q 2906 1113 2906 1747 
Q 2906 2381 2643 2742 
Q 2381 3103 1925 3103 
Q 1469 3103 1208 2742 
Q 947 2381 947 1747 
z
" transform="scale(0.015625)"/>
       <path id="DejaVuSans-67" d="M 2906 1791 
Q 2906 2416 2648 2759 
Q 2391 3103 1925 3103 
Q 1463 3103 1205 2759 
Q 947 2416 947 1791 
Q 947 1169 1205 825 
Q 1463 481 1925 481 
Q 2391 481 2648 825 
Q 2906 1169 2906 1791 
z
M 3481 434 
Q 3481 -459 3084 -895 
Q 2688 -1331 1869 -1331 
Q 1566 -1331 1297 -1286 
Q 1028 -1241 775 -1147 
L 775 -588 
Q 1028 -725 1275 -790 
Q 1522 -856 1778 -856 
Q 2344 -856 2625 -561 
Q 2906 -266 2906 331 
L 2906 616 
Q 2728 306 2450 153 
Q 2172 0 1784 0 
Q 1141 0 747 490 
Q 353 981 353 1791 
Q 353 2603 747 3093 
Q 1141 3584 1784 3584 
Q 2172 3584 2450 3431 
Q 2728 3278 2906 2969 
L 2906 3500 
L 3481 3500 
L 3481 434 
z
" transform="scale(0.015625)"/>
      </defs>
      <use xlink:href="#DejaVuSans-2220" transform="translate(0 0.015625)"/>
      <use xlink:href="#DejaVuSans-Oblique-53" transform="translate(89.648438 0.015625)"/>
      <use xlink:href="#DejaVuSans-32" transform="translate(153.125 -16.390625) scale(0.7)"/>
      <use xlink:href="#DejaVuSans-31" transform="translate(197.661133 -16.390625) scale(0.7)"/>
      <use xlink:href="#DejaVuSans-20" transform="translate(244.931641 0.015625)"/>
      <use xlink:href="#DejaVuSans-5b" transform="translate(276.71875 0.015625)"/>
      <use xlink:href="#DejaVuSans-64" transform="translate(315.732422 0.015625)"/>
      <use xlink:href="#DejaVuSans-65" transform="translate(379.208984 0.015625)"/>
      <use xlink:href="#DejaVuSans-67" transform="translate(440.732422 0.015625)"/>
      <use xlink:href="#DejaVuSans-5d" transform="translate(504.208984 0.015625)"/>
     </g>
    </g>
   </g>
   <g id="line2d_23">
    <path d="M 66.82804 292.549155 
L 70.0909 292.485825 
L 71.722329 293.138601 
L 73.353759 293.028769 
L 74.985189 293.123002 
L 76.616619 293.4202 
L 78.248049 293.34668 
L 79.879479 293.591742 
L 83.142339 293.463563 
L 84.773768 294.039065 
L 86.405198 293.994374 
L 88.036628 294.46048 
L 89.668058 294.736599 
L 91.299488 294.39995 
L 92.930918 294.903405 
L 94.562348 295.139585 
L 96.193778 294.90826 
L 97.825207 295.012015 
L 99.456637 295.40249 
L 101.088067 295.515767 
L 102.719497 295.812209 
L 104.350927 295.679823 
L 105.982357 296.397702 
L 107.613787 296.533012 
L 110.876646 296.440205 
L 114.139506 297.339436 
L 115.770936 297.201385 
L 117.402366 297.304341 
L 122.296656 298.356007 
L 123.928085 298.480949 
L 125.559515 299.152566 
L 128.822375 299.190072 
L 130.453805 299.877594 
L 132.085235 299.65741 
L 133.716665 300.239115 
L 135.348095 300.653247 
L 136.979524 300.580988 
L 138.610954 301.060451 
L 140.242384 301.719428 
L 141.873814 302.13978 
L 143.505244 192.410182 
L 145.136674 192.915125 
L 146.768104 192.800836 
L 148.399534 193.627781 
L 150.030963 193.384217 
L 151.662393 194.578031 
L 154.925253 194.920099 
L 156.556683 195.885685 
L 159.819543 196.801308 
L 161.450973 197.035271 
L 163.082402 196.918358 
L 164.713832 197.064272 
L 166.345262 197.564196 
L 167.976692 198.286787 
L 169.608122 199.302431 
L 171.239552 198.531651 
L 172.870982 198.506543 
L 174.502412 198.945971 
L 176.133842 197.756676 
L 177.765271 198.346164 
L 181.028131 195.894435 
L 182.659561 195.73129 
L 184.290991 299.425856 
L 185.922421 296.06535 
L 187.553851 292.005142 
L 189.185281 288.969581 
L 190.81671 287.001317 
L 192.44814 284.374956 
L 194.07957 282.202606 
L 195.711 282.368251 
L 197.34243 281.262127 
L 198.97386 280.370024 
L 200.60529 280.560918 
L 202.23672 280.399903 
L 203.868149 281.609277 
L 205.499579 280.411614 
L 207.131009 280.700461 
L 208.762439 281.989247 
L 210.393869 281.938969 
L 212.025299 282.001163 
L 213.656729 282.94871 
L 216.919588 282.96894 
L 218.551018 284.143459 
L 220.182448 283.740463 
L 221.813878 284.295789 
L 226.708168 284.829527 
L 228.339598 284.68907 
L 229.971027 285.457541 
L 231.602457 285.9458 
L 233.233887 286.006141 
L 234.865317 285.719975 
L 236.496747 286.619229 
L 238.128177 286.179964 
L 239.759607 286.785246 
L 243.022466 287.581135 
L 244.653896 287.454307 
L 247.916756 287.870719 
L 249.548186 288.071834 
L 251.179616 288.435715 
L 252.811046 288.536362 
L 254.442476 289.223041 
L 256.073905 288.969262 
L 257.705335 289.646453 
L 259.336765 289.135544 
L 260.968195 289.270972 
L 265.862485 290.064238 
L 267.493915 289.798995 
L 274.019634 290.964789 
L 275.651064 290.575946 
L 277.282494 291.025679 
L 278.913924 291.075908 
L 280.545354 291.939396 
L 283.808213 291.469794 
L 285.439643 291.98263 
L 287.071073 292.25268 
L 290.333933 291.922129 
L 296.859652 292.621702 
L 301.753942 292.789044 
L 303.385372 293.221466 
L 305.016802 293.377817 
L 306.648232 293.052944 
L 308.279662 293.277205 
L 309.911091 293.726372 
L 311.542521 293.478728 
L 313.173951 293.811215 
L 314.805381 293.588323 
L 316.436811 294.147721 
L 318.068241 294.139391 
L 319.699671 294.529784 
L 321.331101 294.615083 
L 322.96253 294.523067 
L 324.59396 294.781962 
L 326.22539 294.644941 
L 327.85682 295.000153 
L 329.48825 295.130085 
L 331.11968 294.973903 
L 332.75111 295.269963 
L 334.38254 295.373749 
L 337.645399 295.428271 
L 339.276829 295.701657 
L 340.908259 295.77415 
L 342.539689 295.53759 
L 344.171119 295.714192 
L 345.802549 296.103439 
L 347.433979 295.840288 
L 349.065408 296.403267 
L 350.696838 296.274466 
L 352.328268 296.290948 
L 353.959698 296.779958 
L 357.222558 296.652885 
L 358.853988 296.954825 
L 360.485418 296.784689 
L 362.116847 296.930064 
L 363.748277 297.279569 
L 367.011137 297.173501 
L 371.905427 297.60887 
L 373.536857 297.486534 
L 375.168286 297.237196 
L 376.799716 297.955529 
L 380.062576 297.72306 
L 381.694006 298.284137 
L 383.325436 298.372804 
L 384.956866 297.984048 
L 386.588296 298.267206 
L 388.219725 298.067324 
L 389.851155 298.04028 
L 391.482585 298.341372 
L 391.482585 298.341372 
" clip-path="url(#p758081d10a)" style="fill: none; stroke: #1f77b4; stroke-width: 1.5; stroke-linecap: square"/>
    <g clip-path="url(#p758081d10a)">
     <use xlink:href="#md7f394593d" x="66.82804" y="292.549155" style="fill: #1f77b4; stroke: #1f77b4"/>
     <use xlink:href="#md7f394593d" x="68.45947" y="292.538292" style="fill: #1f77b4; stroke: #1f77b4"/>
     <use xlink:href="#md7f394593d" x="70.0909" y="292.485825" style="fill: #1f77b4; stroke: #1f77b4"/>
     <use xlink:href="#md7f394593d" x="71.722329" y="293.138601" style="fill: #1f77b4; stroke: #1f77b4"/>
     <use xlink:href="#md7f394593d" x="73.353759" y="293.028769" style="fill: #1f77b4; stroke: #1f77b4"/>
     <use xlink:href="#md7f394593d" x="74.985189" y="293.123002" style="fill: #1f77b4; stroke: #1f77b4"/>
     <use xlink:href="#md7f394593d" x="76.616619" y="293.4202" style="fill: #1f77b4; stroke: #1f77b4"/>
     <use xlink:href="#md7f394593d" x="78.248049" y="293.34668" style="fill: #1f77b4; stroke: #1f77b4"/>
     <use xlink:href="#md7f394593d" x="79.879479" y="293.591742" style="fill: #1f77b4; stroke: #1f77b4"/>
     <use xlink:href="#md7f394593d" x="81.510909" y="293.545376" style="fill: #1f77b4; stroke: #1f77b4"/>
     <use xlink:href="#md7f394593d" x="83.142339" y="293.463563" style="fill: #1f77b4; stroke: #1f77b4"/>
     <use xlink:href="#md7f394593d" x="84.773768" y="294.039065" style="fill: #1f77b4; stroke: #1f77b4"/>
     <use xlink:href="#md7f394593d" x="86.405198" y="293.994374" style="fill: #1f77b4; stroke: #1f77b4"/>
     <use xlink:href="#md7f394593d" x="88.036628" y="294.46048" style="fill: #1f77b4; stroke: #1f77b4"/>
     <use xlink:href="#md7f394593d" x="89.668058" y="294.736599" style="fill: #1f77b4; stroke: #1f77b4"/>
     <use xlink:href="#md7f394593d" x="91.299488" y="294.39995" style="fill: #1f77b4; stroke: #1f77b4"/>
     <use xlink:href="#md7f394593d" x="92.930918" y="294.903405" style="fill: #1f77b4; stroke: #1f77b4"/>
     <use xlink:href="#md7f394593d" x="94.562348" y="295.139585" style="fill: #1f77b4; stroke: #1f77b4"/>
     <use xlink:href="#md7f394593d" x="96.193778" y="294.90826" style="fill: #1f77b4; stroke: #1f77b4"/>
     <use xlink:href="#md7f394593d" x="97.825207" y="295.012015" style="fill: #1f77b4; stroke: #1f77b4"/>
     <use xlink:href="#md7f394593d" x="99.456637" y="295.40249" style="fill: #1f77b4; stroke: #1f77b4"/>
     <use xlink:href="#md7f394593d" x="101.088067" y="295.515767" style="fill: #1f77b4; stroke: #1f77b4"/>
     <use xlink:href="#md7f394593d" x="102.719497" y="295.812209" style="fill: #1f77b4; stroke: #1f77b4"/>
     <use xlink:href="#md7f394593d" x="104.350927" y="295.679823" style="fill: #1f77b4; stroke: #1f77b4"/>
     <use xlink:href="#md7f394593d" x="105.982357" y="296.397702" style="fill: #1f77b4; stroke: #1f77b4"/>
     <use xlink:href="#md7f394593d" x="107.613787" y="296.533012" style="fill: #1f77b4; stroke: #1f77b4"/>
     <use xlink:href="#md7f394593d" x="109.245217" y="296.490189" style="fill: #1f77b4; stroke: #1f77b4"/>
     <use xlink:href="#md7f394593d" x="110.876646" y="296.440205" style="fill: #1f77b4; stroke: #1f77b4"/>
     <use xlink:href="#md7f394593d" x="112.508076" y="296.882355" style="fill: #1f77b4; stroke: #1f77b4"/>
     <use xlink:href="#md7f394593d" x="114.139506" y="297.339436" style="fill: #1f77b4; stroke: #1f77b4"/>
     <use xlink:href="#md7f394593d" x="115.770936" y="297.201385" style="fill: #1f77b4; stroke: #1f77b4"/>
     <use xlink:href="#md7f394593d" x="117.402366" y="297.304341" style="fill: #1f77b4; stroke: #1f77b4"/>
     <use xlink:href="#md7f394593d" x="119.033796" y="297.667637" style="fill: #1f77b4; stroke: #1f77b4"/>
     <use xlink:href="#md7f394593d" x="120.665226" y="298.141795" style="fill: #1f77b4; stroke: #1f77b4"/>
     <use xlink:href="#md7f394593d" x="122.296656" y="298.356007" style="fill: #1f77b4; stroke: #1f77b4"/>
     <use xlink:href="#md7f394593d" x="123.928085" y="298.480949" style="fill: #1f77b4; stroke: #1f77b4"/>
     <use xlink:href="#md7f394593d" x="125.559515" y="299.152566" style="fill: #1f77b4; stroke: #1f77b4"/>
     <use xlink:href="#md7f394593d" x="127.190945" y="299.161602" style="fill: #1f77b4; stroke: #1f77b4"/>
     <use xlink:href="#md7f394593d" x="128.822375" y="299.190072" style="fill: #1f77b4; stroke: #1f77b4"/>
     <use xlink:href="#md7f394593d" x="130.453805" y="299.877594" style="fill: #1f77b4; stroke: #1f77b4"/>
     <use xlink:href="#md7f394593d" x="132.085235" y="299.65741" style="fill: #1f77b4; stroke: #1f77b4"/>
     <use xlink:href="#md7f394593d" x="133.716665" y="300.239115" style="fill: #1f77b4; stroke: #1f77b4"/>
     <use xlink:href="#md7f394593d" x="135.348095" y="300.653247" style="fill: #1f77b4; stroke: #1f77b4"/>
     <use xlink:href="#md7f394593d" x="136.979524" y="300.580988" style="fill: #1f77b4; stroke: #1f77b4"/>
     <use xlink:href="#md7f394593d" x="138.610954" y="301.060451" style="fill: #1f77b4; stroke: #1f77b4"/>
     <use xlink:href="#md7f394593d" x="140.242384" y="301.719428" style="fill: #1f77b4; stroke: #1f77b4"/>
     <use xlink:href="#md7f394593d" x="141.873814" y="302.13978" style="fill: #1f77b4; stroke: #1f77b4"/>
     <use xlink:href="#md7f394593d" x="143.505244" y="192.410182" style="fill: #1f77b4; stroke: #1f77b4"/>
     <use xlink:href="#md7f394593d" x="145.136674" y="192.915125" style="fill: #1f77b4; stroke: #1f77b4"/>
     <use xlink:href="#md7f394593d" x="146.768104" y="192.800836" style="fill: #1f77b4; stroke: #1f77b4"/>
     <use xlink:href="#md7f394593d" x="148.399534" y="193.627781" style="fill: #1f77b4; stroke: #1f77b4"/>
     <use xlink:href="#md7f394593d" x="150.030963" y="193.384217" style="fill: #1f77b4; stroke: #1f77b4"/>
     <use xlink:href="#md7f394593d" x="151.662393" y="194.578031" style="fill: #1f77b4; stroke: #1f77b4"/>
     <use xlink:href="#md7f394593d" x="153.293823" y="194.771513" style="fill: #1f77b4; stroke: #1f77b4"/>
     <use xlink:href="#md7f394593d" x="154.925253" y="194.920099" style="fill: #1f77b4; stroke: #1f77b4"/>
     <use xlink:href="#md7f394593d" x="156.556683" y="195.885685" style="fill: #1f77b4; stroke: #1f77b4"/>
     <use xlink:href="#md7f394593d" x="158.188113" y="196.389464" style="fill: #1f77b4; stroke: #1f77b4"/>
     <use xlink:href="#md7f394593d" x="159.819543" y="196.801308" style="fill: #1f77b4; stroke: #1f77b4"/>
     <use xlink:href="#md7f394593d" x="161.450973" y="197.035271" style="fill: #1f77b4; stroke: #1f77b4"/>
     <use xlink:href="#md7f394593d" x="163.082402" y="196.918358" style="fill: #1f77b4; stroke: #1f77b4"/>
     <use xlink:href="#md7f394593d" x="164.713832" y="197.064272" style="fill: #1f77b4; stroke: #1f77b4"/>
     <use xlink:href="#md7f394593d" x="166.345262" y="197.564196" style="fill: #1f77b4; stroke: #1f77b4"/>
     <use xlink:href="#md7f394593d" x="167.976692" y="198.286787" style="fill: #1f77b4; stroke: #1f77b4"/>
     <use xlink:href="#md7f394593d" x="169.608122" y="199.302431" style="fill: #1f77b4; stroke: #1f77b4"/>
     <use xlink:href="#md7f394593d" x="171.239552" y="198.531651" style="fill: #1f77b4; stroke: #1f77b4"/>
     <use xlink:href="#md7f394593d" x="172.870982" y="198.506543" style="fill: #1f77b4; stroke: #1f77b4"/>
     <use xlink:href="#md7f394593d" x="174.502412" y="198.945971" style="fill: #1f77b4; stroke: #1f77b4"/>
     <use xlink:href="#md7f394593d" x="176.133842" y="197.756676" style="fill: #1f77b4; stroke: #1f77b4"/>
     <use xlink:href="#md7f394593d" x="177.765271" y="198.346164" style="fill: #1f77b4; stroke: #1f77b4"/>
     <use xlink:href="#md7f394593d" x="179.396701" y="197.138836" style="fill: #1f77b4; stroke: #1f77b4"/>
     <use xlink:href="#md7f394593d" x="181.028131" y="195.894435" style="fill: #1f77b4; stroke: #1f77b4"/>
     <use xlink:href="#md7f394593d" x="182.659561" y="195.73129" style="fill: #1f77b4; stroke: #1f77b4"/>
     <use xlink:href="#md7f394593d" x="184.290991" y="299.425856" style="fill: #1f77b4; stroke: #1f77b4"/>
     <use xlink:href="#md7f394593d" x="185.922421" y="296.06535" style="fill: #1f77b4; stroke: #1f77b4"/>
     <use xlink:href="#md7f394593d" x="187.553851" y="292.005142" style="fill: #1f77b4; stroke: #1f77b4"/>
     <use xlink:href="#md7f394593d" x="189.185281" y="288.969581" style="fill: #1f77b4; stroke: #1f77b4"/>
     <use xlink:href="#md7f394593d" x="190.81671" y="287.001317" style="fill: #1f77b4; stroke: #1f77b4"/>
     <use xlink:href="#md7f394593d" x="192.44814" y="284.374956" style="fill: #1f77b4; stroke: #1f77b4"/>
     <use xlink:href="#md7f394593d" x="194.07957" y="282.202606" style="fill: #1f77b4; stroke: #1f77b4"/>
     <use xlink:href="#md7f394593d" x="195.711" y="282.368251" style="fill: #1f77b4; stroke: #1f77b4"/>
     <use xlink:href="#md7f394593d" x="197.34243" y="281.262127" style="fill: #1f77b4; stroke: #1f77b4"/>
     <use xlink:href="#md7f394593d" x="198.97386" y="280.370024" style="fill: #1f77b4; stroke: #1f77b4"/>
     <use xlink:href="#md7f394593d" x="200.60529" y="280.560918" style="fill: #1f77b4; stroke: #1f77b4"/>
     <use xlink:href="#md7f394593d" x="202.23672" y="280.399903" style="fill: #1f77b4; stroke: #1f77b4"/>
     <use xlink:href="#md7f394593d" x="203.868149" y="281.609277" style="fill: #1f77b4; stroke: #1f77b4"/>
     <use xlink:href="#md7f394593d" x="205.499579" y="280.411614" style="fill: #1f77b4; stroke: #1f77b4"/>
     <use xlink:href="#md7f394593d" x="207.131009" y="280.700461" style="fill: #1f77b4; stroke: #1f77b4"/>
     <use xlink:href="#md7f394593d" x="208.762439" y="281.989247" style="fill: #1f77b4; stroke: #1f77b4"/>
     <use xlink:href="#md7f394593d" x="210.393869" y="281.938969" style="fill: #1f77b4; stroke: #1f77b4"/>
     <use xlink:href="#md7f394593d" x="212.025299" y="282.001163" style="fill: #1f77b4; stroke: #1f77b4"/>
     <use xlink:href="#md7f394593d" x="213.656729" y="282.94871" style="fill: #1f77b4; stroke: #1f77b4"/>
     <use xlink:href="#md7f394593d" x="215.288159" y="282.910875" style="fill: #1f77b4; stroke: #1f77b4"/>
     <use xlink:href="#md7f394593d" x="216.919588" y="282.96894" style="fill: #1f77b4; stroke: #1f77b4"/>
     <use xlink:href="#md7f394593d" x="218.551018" y="284.143459" style="fill: #1f77b4; stroke: #1f77b4"/>
     <use xlink:href="#md7f394593d" x="220.182448" y="283.740463" style="fill: #1f77b4; stroke: #1f77b4"/>
     <use xlink:href="#md7f394593d" x="221.813878" y="284.295789" style="fill: #1f77b4; stroke: #1f77b4"/>
     <use xlink:href="#md7f394593d" x="223.445308" y="284.50007" style="fill: #1f77b4; stroke: #1f77b4"/>
     <use xlink:href="#md7f394593d" x="225.076738" y="284.59798" style="fill: #1f77b4; stroke: #1f77b4"/>
     <use xlink:href="#md7f394593d" x="226.708168" y="284.829527" style="fill: #1f77b4; stroke: #1f77b4"/>
     <use xlink:href="#md7f394593d" x="228.339598" y="284.68907" style="fill: #1f77b4; stroke: #1f77b4"/>
     <use xlink:href="#md7f394593d" x="229.971027" y="285.457541" style="fill: #1f77b4; stroke: #1f77b4"/>
     <use xlink:href="#md7f394593d" x="231.602457" y="285.9458" style="fill: #1f77b4; stroke: #1f77b4"/>
     <use xlink:href="#md7f394593d" x="233.233887" y="286.006141" style="fill: #1f77b4; stroke: #1f77b4"/>
     <use xlink:href="#md7f394593d" x="234.865317" y="285.719975" style="fill: #1f77b4; stroke: #1f77b4"/>
     <use xlink:href="#md7f394593d" x="236.496747" y="286.619229" style="fill: #1f77b4; stroke: #1f77b4"/>
     <use xlink:href="#md7f394593d" x="238.128177" y="286.179964" style="fill: #1f77b4; stroke: #1f77b4"/>
     <use xlink:href="#md7f394593d" x="239.759607" y="286.785246" style="fill: #1f77b4; stroke: #1f77b4"/>
     <use xlink:href="#md7f394593d" x="241.391037" y="287.225867" style="fill: #1f77b4; stroke: #1f77b4"/>
     <use xlink:href="#md7f394593d" x="243.022466" y="287.581135" style="fill: #1f77b4; stroke: #1f77b4"/>
     <use xlink:href="#md7f394593d" x="244.653896" y="287.454307" style="fill: #1f77b4; stroke: #1f77b4"/>
     <use xlink:href="#md7f394593d" x="246.285326" y="287.609299" style="fill: #1f77b4; stroke: #1f77b4"/>
     <use xlink:href="#md7f394593d" x="247.916756" y="287.870719" style="fill: #1f77b4; stroke: #1f77b4"/>
     <use xlink:href="#md7f394593d" x="249.548186" y="288.071834" style="fill: #1f77b4; stroke: #1f77b4"/>
     <use xlink:href="#md7f394593d" x="251.179616" y="288.435715" style="fill: #1f77b4; stroke: #1f77b4"/>
     <use xlink:href="#md7f394593d" x="252.811046" y="288.536362" style="fill: #1f77b4; stroke: #1f77b4"/>
     <use xlink:href="#md7f394593d" x="254.442476" y="289.223041" style="fill: #1f77b4; stroke: #1f77b4"/>
     <use xlink:href="#md7f394593d" x="256.073905" y="288.969262" style="fill: #1f77b4; stroke: #1f77b4"/>
     <use xlink:href="#md7f394593d" x="257.705335" y="289.646453" style="fill: #1f77b4; stroke: #1f77b4"/>
     <use xlink:href="#md7f394593d" x="259.336765" y="289.135544" style="fill: #1f77b4; stroke: #1f77b4"/>
     <use xlink:href="#md7f394593d" x="260.968195" y="289.270972" style="fill: #1f77b4; stroke: #1f77b4"/>
     <use xlink:href="#md7f394593d" x="262.599625" y="289.550608" style="fill: #1f77b4; stroke: #1f77b4"/>
     <use xlink:href="#md7f394593d" x="264.231055" y="289.867963" style="fill: #1f77b4; stroke: #1f77b4"/>
     <use xlink:href="#md7f394593d" x="265.862485" y="290.064238" style="fill: #1f77b4; stroke: #1f77b4"/>
     <use xlink:href="#md7f394593d" x="267.493915" y="289.798995" style="fill: #1f77b4; stroke: #1f77b4"/>
     <use xlink:href="#md7f394593d" x="269.125344" y="290.100487" style="fill: #1f77b4; stroke: #1f77b4"/>
     <use xlink:href="#md7f394593d" x="270.756774" y="290.325429" style="fill: #1f77b4; stroke: #1f77b4"/>
     <use xlink:href="#md7f394593d" x="272.388204" y="290.59648" style="fill: #1f77b4; stroke: #1f77b4"/>
     <use xlink:href="#md7f394593d" x="274.019634" y="290.964789" style="fill: #1f77b4; stroke: #1f77b4"/>
     <use xlink:href="#md7f394593d" x="275.651064" y="290.575946" style="fill: #1f77b4; stroke: #1f77b4"/>
     <use xlink:href="#md7f394593d" x="277.282494" y="291.025679" style="fill: #1f77b4; stroke: #1f77b4"/>
     <use xlink:href="#md7f394593d" x="278.913924" y="291.075908" style="fill: #1f77b4; stroke: #1f77b4"/>
     <use xlink:href="#md7f394593d" x="280.545354" y="291.939396" style="fill: #1f77b4; stroke: #1f77b4"/>
     <use xlink:href="#md7f394593d" x="282.176783" y="291.718373" style="fill: #1f77b4; stroke: #1f77b4"/>
     <use xlink:href="#md7f394593d" x="283.808213" y="291.469794" style="fill: #1f77b4; stroke: #1f77b4"/>
     <use xlink:href="#md7f394593d" x="285.439643" y="291.98263" style="fill: #1f77b4; stroke: #1f77b4"/>
     <use xlink:href="#md7f394593d" x="287.071073" y="292.25268" style="fill: #1f77b4; stroke: #1f77b4"/>
     <use xlink:href="#md7f394593d" x="288.702503" y="292.059801" style="fill: #1f77b4; stroke: #1f77b4"/>
     <use xlink:href="#md7f394593d" x="290.333933" y="291.922129" style="fill: #1f77b4; stroke: #1f77b4"/>
     <use xlink:href="#md7f394593d" x="291.965363" y="292.122958" style="fill: #1f77b4; stroke: #1f77b4"/>
     <use xlink:href="#md7f394593d" x="293.596793" y="292.294799" style="fill: #1f77b4; stroke: #1f77b4"/>
     <use xlink:href="#md7f394593d" x="295.228223" y="292.501754" style="fill: #1f77b4; stroke: #1f77b4"/>
     <use xlink:href="#md7f394593d" x="296.859652" y="292.621702" style="fill: #1f77b4; stroke: #1f77b4"/>
     <use xlink:href="#md7f394593d" x="298.491082" y="292.671107" style="fill: #1f77b4; stroke: #1f77b4"/>
     <use xlink:href="#md7f394593d" x="300.122512" y="292.777994" style="fill: #1f77b4; stroke: #1f77b4"/>
     <use xlink:href="#md7f394593d" x="301.753942" y="292.789044" style="fill: #1f77b4; stroke: #1f77b4"/>
     <use xlink:href="#md7f394593d" x="303.385372" y="293.221466" style="fill: #1f77b4; stroke: #1f77b4"/>
     <use xlink:href="#md7f394593d" x="305.016802" y="293.377817" style="fill: #1f77b4; stroke: #1f77b4"/>
     <use xlink:href="#md7f394593d" x="306.648232" y="293.052944" style="fill: #1f77b4; stroke: #1f77b4"/>
     <use xlink:href="#md7f394593d" x="308.279662" y="293.277205" style="fill: #1f77b4; stroke: #1f77b4"/>
     <use xlink:href="#md7f394593d" x="309.911091" y="293.726372" style="fill: #1f77b4; stroke: #1f77b4"/>
     <use xlink:href="#md7f394593d" x="311.542521" y="293.478728" style="fill: #1f77b4; stroke: #1f77b4"/>
     <use xlink:href="#md7f394593d" x="313.173951" y="293.811215" style="fill: #1f77b4; stroke: #1f77b4"/>
     <use xlink:href="#md7f394593d" x="314.805381" y="293.588323" style="fill: #1f77b4; stroke: #1f77b4"/>
     <use xlink:href="#md7f394593d" x="316.436811" y="294.147721" style="fill: #1f77b4; stroke: #1f77b4"/>
     <use xlink:href="#md7f394593d" x="318.068241" y="294.139391" style="fill: #1f77b4; stroke: #1f77b4"/>
     <use xlink:href="#md7f394593d" x="319.699671" y="294.529784" style="fill: #1f77b4; stroke: #1f77b4"/>
     <use xlink:href="#md7f394593d" x="321.331101" y="294.615083" style="fill: #1f77b4; stroke: #1f77b4"/>
     <use xlink:href="#md7f394593d" x="322.96253" y="294.523067" style="fill: #1f77b4; stroke: #1f77b4"/>
     <use xlink:href="#md7f394593d" x="324.59396" y="294.781962" style="fill: #1f77b4; stroke: #1f77b4"/>
     <use xlink:href="#md7f394593d" x="326.22539" y="294.644941" style="fill: #1f77b4; stroke: #1f77b4"/>
     <use xlink:href="#md7f394593d" x="327.85682" y="295.000153" style="fill: #1f77b4; stroke: #1f77b4"/>
     <use xlink:href="#md7f394593d" x="329.48825" y="295.130085" style="fill: #1f77b4; stroke: #1f77b4"/>
     <use xlink:href="#md7f394593d" x="331.11968" y="294.973903" style="fill: #1f77b4; stroke: #1f77b4"/>
     <use xlink:href="#md7f394593d" x="332.75111" y="295.269963" style="fill: #1f77b4; stroke: #1f77b4"/>
     <use xlink:href="#md7f394593d" x="334.38254" y="295.373749" style="fill: #1f77b4; stroke: #1f77b4"/>
     <use xlink:href="#md7f394593d" x="336.013969" y="295.362342" style="fill: #1f77b4; stroke: #1f77b4"/>
     <use xlink:href="#md7f394593d" x="337.645399" y="295.428271" style="fill: #1f77b4; stroke: #1f77b4"/>
     <use xlink:href="#md7f394593d" x="339.276829" y="295.701657" style="fill: #1f77b4; stroke: #1f77b4"/>
     <use xlink:href="#md7f394593d" x="340.908259" y="295.77415" style="fill: #1f77b4; stroke: #1f77b4"/>
     <use xlink:href="#md7f394593d" x="342.539689" y="295.53759" style="fill: #1f77b4; stroke: #1f77b4"/>
     <use xlink:href="#md7f394593d" x="344.171119" y="295.714192" style="fill: #1f77b4; stroke: #1f77b4"/>
     <use xlink:href="#md7f394593d" x="345.802549" y="296.103439" style="fill: #1f77b4; stroke: #1f77b4"/>
     <use xlink:href="#md7f394593d" x="347.433979" y="295.840288" style="fill: #1f77b4; stroke: #1f77b4"/>
     <use xlink:href="#md7f394593d" x="349.065408" y="296.403267" style="fill: #1f77b4; stroke: #1f77b4"/>
     <use xlink:href="#md7f394593d" x="350.696838" y="296.274466" style="fill: #1f77b4; stroke: #1f77b4"/>
     <use xlink:href="#md7f394593d" x="352.328268" y="296.290948" style="fill: #1f77b4; stroke: #1f77b4"/>
     <use xlink:href="#md7f394593d" x="353.959698" y="296.779958" style="fill: #1f77b4; stroke: #1f77b4"/>
     <use xlink:href="#md7f394593d" x="355.591128" y="296.745089" style="fill: #1f77b4; stroke: #1f77b4"/>
     <use xlink:href="#md7f394593d" x="357.222558" y="296.652885" style="fill: #1f77b4; stroke: #1f77b4"/>
     <use xlink:href="#md7f394593d" x="358.853988" y="296.954825" style="fill: #1f77b4; stroke: #1f77b4"/>
     <use xlink:href="#md7f394593d" x="360.485418" y="296.784689" style="fill: #1f77b4; stroke: #1f77b4"/>
     <use xlink:href="#md7f394593d" x="362.116847" y="296.930064" style="fill: #1f77b4; stroke: #1f77b4"/>
     <use xlink:href="#md7f394593d" x="363.748277" y="297.279569" style="fill: #1f77b4; stroke: #1f77b4"/>
     <use xlink:href="#md7f394593d" x="365.379707" y="297.237377" style="fill: #1f77b4; stroke: #1f77b4"/>
     <use xlink:href="#md7f394593d" x="367.011137" y="297.173501" style="fill: #1f77b4; stroke: #1f77b4"/>
     <use xlink:href="#md7f394593d" x="368.642567" y="297.287463" style="fill: #1f77b4; stroke: #1f77b4"/>
     <use xlink:href="#md7f394593d" x="370.273997" y="297.426484" style="fill: #1f77b4; stroke: #1f77b4"/>
     <use xlink:href="#md7f394593d" x="371.905427" y="297.60887" style="fill: #1f77b4; stroke: #1f77b4"/>
     <use xlink:href="#md7f394593d" x="373.536857" y="297.486534" style="fill: #1f77b4; stroke: #1f77b4"/>
     <use xlink:href="#md7f394593d" x="375.168286" y="297.237196" style="fill: #1f77b4; stroke: #1f77b4"/>
     <use xlink:href="#md7f394593d" x="376.799716" y="297.955529" style="fill: #1f77b4; stroke: #1f77b4"/>
     <use xlink:href="#md7f394593d" x="378.431146" y="297.80899" style="fill: #1f77b4; stroke: #1f77b4"/>
     <use xlink:href="#md7f394593d" x="380.062576" y="297.72306" style="fill: #1f77b4; stroke: #1f77b4"/>
     <use xlink:href="#md7f394593d" x="381.694006" y="298.284137" style="fill: #1f77b4; stroke: #1f77b4"/>
     <use xlink:href="#md7f394593d" x="383.325436" y="298.372804" style="fill: #1f77b4; stroke: #1f77b4"/>
     <use xlink:href="#md7f394593d" x="384.956866" y="297.984048" style="fill: #1f77b4; stroke: #1f77b4"/>
     <use xlink:href="#md7f394593d" x="386.588296" y="298.267206" style="fill: #1f77b4; stroke: #1f77b4"/>
     <use xlink:href="#md7f394593d" x="388.219725" y="298.067324" style="fill: #1f77b4; stroke: #1f77b4"/>
     <use xlink:href="#md7f394593d" x="389.851155" y="298.04028" style="fill: #1f77b4; stroke: #1f77b4"/>
     <use xlink:href="#md7f394593d" x="391.482585" y="298.341372" style="fill: #1f77b4; stroke: #1f77b4"/>
    </g>
   </g>
   <g id="line2d_24">
    <path d="M 66.82804 292.445988 
L 84.701914 293.953497 
L 99.325992 295.401406 
L 111.350235 296.804498 
L 121.749579 298.235912 
L 130.849006 299.711745 
L 138.973494 301.254876 
L 144.173167 302.373818 
L 144.498146 192.416203 
L 151.972675 194.22541 
L 169.846549 198.72031 
L 172.446385 199.04093 
L 174.396263 199.075977 
L 176.02116 198.898693 
L 177.321078 198.565328 
L 178.620996 197.999607 
L 179.595935 197.376516 
L 180.570874 196.537446 
L 181.545812 195.434165 
L 182.520751 194.016502 
L 183.17071 192.875876 
L 183.495689 302.275446 
L 184.795607 299.355489 
L 186.745484 294.192596 
L 188.370382 290.040669 
L 189.6703 287.31029 
L 190.645239 285.678715 
L 191.620177 284.378943 
L 192.595116 283.364314 
L 193.895034 282.369379 
L 195.194952 281.689382 
L 196.49487 281.243362 
L 198.119768 280.924884 
L 200.069645 280.787667 
L 202.344502 280.849898 
L 205.594297 281.186702 
L 210.46899 281.960858 
L 236.467352 286.450471 
L 246.866697 287.877906 
L 258.56596 289.256168 
L 272.2151 290.63493 
L 288.464076 292.047047 
L 308.287827 293.540187 
L 332.986271 295.17037 
L 364.834264 297.038055 
L 391.482585 298.472781 
L 391.482585 298.472781 
" clip-path="url(#p758081d10a)" style="fill: none; stroke: #d62728; stroke-width: 1.5; stroke-linecap: square"/>
   </g>
   <g id="patch_9">
    <path d="M 50.595313 307.872 
L 50.595313 186.912 
" style="fill: none; stroke: #000000; stroke-width: 0.8; stroke-linejoin: miter; stroke-linecap: square"/>
   </g>
   <g id="patch_10">
    <path d="M 407.715312 307.872 
L 407.715312 186.912 
" style="fill: none; stroke: #000000; stroke-width: 0.8; stroke-linejoin: miter; stroke-linecap: square"/>
   </g>
   <g id="patch_11">
    <path d="M 50.595312 307.872 
L 407.715312 307.872 
" style="fill: none; stroke: #000000; stroke-width: 0.8; stroke-linejoin: miter; stroke-linecap: square"/>
   </g>
   <g id="patch_12">
    <path d="M 50.595312 186.912 
L 407.715312 186.912 
" style="fill: none; stroke: #000000; stroke-width: 0.8; stroke-linejoin: miter; stroke-linecap: square"/>
   </g>
  </g>
  <g id="text_20">
   <!-- S21 resonator spectroscopy -->
   <g transform="translate(139.610938 16.318125) scale(0.12 -0.12)">
    <defs>
     <path id="DejaVuSans-73" d="M 2834 3397 
L 2834 2853 
Q 2591 2978 2328 3040 
Q 2066 3103 1784 3103 
Q 1356 3103 1142 2972 
Q 928 2841 928 2578 
Q 928 2378 1081 2264 
Q 1234 2150 1697 2047 
L 1894 2003 
Q 2506 1872 2764 1633 
Q 3022 1394 3022 966 
Q 3022 478 2636 193 
Q 2250 -91 1575 -91 
Q 1294 -91 989 -36 
Q 684 19 347 128 
L 347 722 
Q 666 556 975 473 
Q 1284 391 1588 391 
Q 1994 391 2212 530 
Q 2431 669 2431 922 
Q 2431 1156 2273 1281 
Q 2116 1406 1581 1522 
L 1381 1569 
Q 847 1681 609 1914 
Q 372 2147 372 2553 
Q 372 3047 722 3315 
Q 1072 3584 1716 3584 
Q 2034 3584 2315 3537 
Q 2597 3491 2834 3397 
z
" transform="scale(0.015625)"/>
     <path id="DejaVuSans-6f" d="M 1959 3097 
Q 1497 3097 1228 2736 
Q 959 2375 959 1747 
Q 959 1119 1226 758 
Q 1494 397 1959 397 
Q 2419 397 2687 759 
Q 2956 1122 2956 1747 
Q 2956 2369 2687 2733 
Q 2419 3097 1959 3097 
z
M 1959 3584 
Q 2709 3584 3137 3096 
Q 3566 2609 3566 1747 
Q 3566 888 3137 398 
Q 2709 -91 1959 -91 
Q 1206 -91 779 398 
Q 353 888 353 1747 
Q 353 2609 779 3096 
Q 1206 3584 1959 3584 
z
" transform="scale(0.015625)"/>
     <path id="DejaVuSans-74" d="M 1172 4494 
L 1172 3500 
L 2356 3500 
L 2356 3053 
L 1172 3053 
L 1172 1153 
Q 1172 725 1289 603 
Q 1406 481 1766 481 
L 2356 481 
L 2356 0 
L 1766 0 
Q 1100 0 847 248 
Q 594 497 594 1153 
L 594 3053 
L 172 3053 
L 172 3500 
L 594 3500 
L 594 4494 
L 1172 4494 
z
" transform="scale(0.015625)"/>
     <path id="DejaVuSans-70" d="M 1159 525 
L 1159 -1331 
L 581 -1331 
L 581 3500 
L 1159 3500 
L 1159 2969 
Q 1341 3281 1617 3432 
Q 1894 3584 2278 3584 
Q 2916 3584 3314 3078 
Q 3713 2572 3713 1747 
Q 3713 922 3314 415 
Q 2916 -91 2278 -91 
Q 1894 -91 1617 61 
Q 1341 213 1159 525 
z
M 3116 1747 
Q 3116 2381 2855 2742 
Q 2594 3103 2138 3103 
Q 1681 3103 1420 2742 
Q 1159 2381 1159 1747 
Q 1159 1113 1420 752 
Q 1681 391 2138 391 
Q 2594 391 2855 752 
Q 3116 1113 3116 1747 
z
" transform="scale(0.015625)"/>
    </defs>
    <use xlink:href="#DejaVuSans-53"/>
    <use xlink:href="#DejaVuSans-32" x="63.476562"/>
    <use xlink:href="#DejaVuSans-31" x="127.099609"/>
    <use xlink:href="#DejaVuSans-20" x="190.722656"/>
    <use xlink:href="#DejaVuSans-72" x="222.509766"/>
    <use xlink:href="#DejaVuSans-65" x="261.373047"/>
    <use xlink:href="#DejaVuSans-73" x="322.896484"/>
    <use xlink:href="#DejaVuSans-6f" x="374.996094"/>
    <use xlink:href="#DejaVuSans-6e" x="436.177734"/>
    <use xlink:href="#DejaVuSans-61" x="499.556641"/>
    <use xlink:href="#DejaVuSans-74" x="560.835938"/>
    <use xlink:href="#DejaVuSans-6f" x="600.044922"/>
    <use xlink:href="#DejaVuSans-72" x="661.226562"/>
    <use xlink:href="#DejaVuSans-20" x="702.339844"/>
    <use xlink:href="#DejaVuSans-73" x="734.126953"/>
    <use xlink:href="#DejaVuSans-70" x="786.226562"/>
    <use xlink:href="#DejaVuSans-65" x="849.703125"/>
    <use xlink:href="#DejaVuSans-63" x="911.226562"/>
    <use xlink:href="#DejaVuSans-74" x="966.207031"/>
    <use xlink:href="#DejaVuSans-72" x="1005.416016"/>
    <use xlink:href="#DejaVuSans-6f" x="1044.279297"/>
    <use xlink:href="#DejaVuSans-73" x="1105.460938"/>
    <use xlink:href="#DejaVuSans-63" x="1157.560547"/>
    <use xlink:href="#DejaVuSans-6f" x="1212.541016"/>
    <use xlink:href="#DejaVuSans-70" x="1273.722656"/>
    <use xlink:href="#DejaVuSans-79" x="1337.199219"/>
   </g>
   <!-- tuid: 20240110-135522-382-58d61e -->
   <g transform="translate(113.674063 29.7555) scale(0.12 -0.12)">
    <defs>
     <path id="DejaVuSans-69" d="M 603 3500 
L 1178 3500 
L 1178 0 
L 603 0 
L 603 3500 
z
M 603 4863 
L 1178 4863 
L 1178 4134 
L 603 4134 
L 603 4863 
z
" transform="scale(0.015625)"/>
    </defs>
    <use xlink:href="#DejaVuSans-74"/>
    <use xlink:href="#DejaVuSans-75" x="39.208984"/>
    <use xlink:href="#DejaVuSans-69" x="102.587891"/>
    <use xlink:href="#DejaVuSans-64" x="130.371094"/>
    <use xlink:href="#DejaVuSans-3a" x="193.847656"/>
    <use xlink:href="#DejaVuSans-20" x="227.539062"/>
    <use xlink:href="#DejaVuSans-32" x="259.326172"/>
    <use xlink:href="#DejaVuSans-30" x="322.949219"/>
    <use xlink:href="#DejaVuSans-32" x="386.572266"/>
    <use xlink:href="#DejaVuSans-34" x="450.195312"/>
    <use xlink:href="#DejaVuSans-30" x="513.818359"/>
    <use xlink:href="#DejaVuSans-31" x="577.441406"/>
    <use xlink:href="#DejaVuSans-31" x="641.064453"/>
    <use xlink:href="#DejaVuSans-30" x="704.6875"/>
    <use xlink:href="#DejaVuSans-2d" x="768.310547"/>
    <use xlink:href="#DejaVuSans-31" x="804.394531"/>
    <use xlink:href="#DejaVuSans-33" x="868.017578"/>
    <use xlink:href="#DejaVuSans-35" x="931.640625"/>
    <use xlink:href="#DejaVuSans-35" x="995.263672"/>
    <use xlink:href="#DejaVuSans-32" x="1058.886719"/>
    <use xlink:href="#DejaVuSans-32" x="1122.509766"/>
    <use xlink:href="#DejaVuSans-2d" x="1186.132812"/>
    <use xlink:href="#DejaVuSans-33" x="1222.216797"/>
    <use xlink:href="#DejaVuSans-38" x="1285.839844"/>
    <use xlink:href="#DejaVuSans-32" x="1349.462891"/>
    <use xlink:href="#DejaVuSans-2d" x="1413.085938"/>
    <use xlink:href="#DejaVuSans-35" x="1449.169922"/>
    <use xlink:href="#DejaVuSans-38" x="1512.792969"/>
    <use xlink:href="#DejaVuSans-64" x="1576.416016"/>
    <use xlink:href="#DejaVuSans-36" x="1639.892578"/>
    <use xlink:href="#DejaVuSans-31" x="1703.515625"/>
    <use xlink:href="#DejaVuSans-65" x="1767.138672"/>
   </g>
  </g>
 </g>
 <defs>
  <clipPath id="p1beefd8c6c">
   <rect x="50.595313" y="41.76" width="357.12" height="120.96"/>
  </clipPath>
  <clipPath id="p758081d10a">
   <rect x="50.595313" y="186.912" width="357.12" height="120.96"/>
  </clipPath>
 </defs>
</svg>
