<?xml version="1.0" encoding="utf-8" standalone="no"?>
<!DOCTYPE svg PUBLIC "-//W3C//DTD SVG 1.1//EN"
  "http://www.w3.org/Graphics/SVG/1.1/DTD/svg11.dtd">
<svg xmlns:xlink="http://www.w3.org/1999/xlink" width="592.879125pt" height="345.42825pt" viewBox="0 0 592.879125 345.42825" xmlns="http://www.w3.org/2000/svg" version="1.1">
 <metadata>
  <rdf:RDF xmlns:dc="http://purl.org/dc/elements/1.1/" xmlns:cc="http://creativecommons.org/ns#" xmlns:rdf="http://www.w3.org/1999/02/22-rdf-syntax-ns#">
   <cc:Work>
    <dc:type rdf:resource="http://purl.org/dc/dcmitype/StillImage"/>
    <dc:date>2023-12-25T14:10:28.339700</dc:date>
    <dc:format>image/svg+xml</dc:format>
    <dc:creator>
     <cc:Agent>
      <dc:title>Matplotlib v3.8.1, https://matplotlib.org/</dc:title>
     </cc:Agent>
    </dc:creator>
   </cc:Work>
  </rdf:RDF>
 </metadata>
 <defs>
  <style type="text/css">*{stroke-linejoin: round; stroke-linecap: butt}</style>
 </defs>
 <g id="figure_1">
  <g id="patch_1">
   <path d="M 0 345.42825 
L 592.879125 345.42825 
L 592.879125 -0 
L 0 -0 
L 0 345.42825 
z
" style="fill: none; opacity: 0"/>
  </g>
  <g id="axes_1">
   <g id="patch_2">
    <path d="M 50.595313 162.72 
L 407.715312 162.72 
L 407.715312 41.76 
L 50.595313 41.76 
z
" style="fill: #ffffff"/>
   </g>
   <g id="matplotlib.axis_1">
    <g id="xtick_1">
     <g id="line2d_1">
      <defs>
       <path id="m7034b6db56" d="M 0 0 
L 0 3.5 
" style="stroke: #000000; stroke-width: 0.8"/>
      </defs>
      <g>
       <use xlink:href="#m7034b6db56" x="77.649858" y="162.72" style="stroke: #000000; stroke-width: 0.8"/>
      </g>
     </g>
    </g>
    <g id="xtick_2">
     <g id="line2d_2">
      <g>
       <use xlink:href="#m7034b6db56" x="131.758949" y="162.72" style="stroke: #000000; stroke-width: 0.8"/>
      </g>
     </g>
    </g>
    <g id="xtick_3">
     <g id="line2d_3">
      <g>
       <use xlink:href="#m7034b6db56" x="185.86804" y="162.72" style="stroke: #000000; stroke-width: 0.8"/>
      </g>
     </g>
    </g>
    <g id="xtick_4">
     <g id="line2d_4">
      <g>
       <use xlink:href="#m7034b6db56" x="239.977131" y="162.72" style="stroke: #000000; stroke-width: 0.8"/>
      </g>
     </g>
    </g>
    <g id="xtick_5">
     <g id="line2d_5">
      <g>
       <use xlink:href="#m7034b6db56" x="294.086222" y="162.72" style="stroke: #000000; stroke-width: 0.8"/>
      </g>
     </g>
    </g>
    <g id="xtick_6">
     <g id="line2d_6">
      <g>
       <use xlink:href="#m7034b6db56" x="348.195313" y="162.72" style="stroke: #000000; stroke-width: 0.8"/>
      </g>
     </g>
    </g>
    <g id="xtick_7">
     <g id="line2d_7">
      <g>
       <use xlink:href="#m7034b6db56" x="402.304403" y="162.72" style="stroke: #000000; stroke-width: 0.8"/>
      </g>
     </g>
    </g>
   </g>
   <g id="matplotlib.axis_2">
    <g id="ytick_1">
     <g id="line2d_8">
      <defs>
       <path id="m77f22c1536" d="M 0 0 
L -3.5 0 
" style="stroke: #000000; stroke-width: 0.8"/>
      </defs>
      <g>
       <use xlink:href="#m77f22c1536" x="50.595313" y="146.566464" style="stroke: #000000; stroke-width: 0.8"/>
      </g>
     </g>
     <g id="text_1">
      <!-- 2.5 -->
      <g transform="translate(27.692188 150.365683) scale(0.1 -0.1)">
       <defs>
        <path id="DejaVuSans-32" d="M 1228 531 
L 3431 531 
L 3431 0 
L 469 0 
L 469 531 
Q 828 903 1448 1529 
Q 2069 2156 2228 2338 
Q 2531 2678 2651 2914 
Q 2772 3150 2772 3378 
Q 2772 3750 2511 3984 
Q 2250 4219 1831 4219 
Q 1534 4219 1204 4116 
Q 875 4013 500 3803 
L 500 4441 
Q 881 4594 1212 4672 
Q 1544 4750 1819 4750 
Q 2544 4750 2975 4387 
Q 3406 4025 3406 3419 
Q 3406 3131 3298 2873 
Q 3191 2616 2906 2266 
Q 2828 2175 2409 1742 
Q 1991 1309 1228 531 
z
" transform="scale(0.015625)"/>
        <path id="DejaVuSans-2e" d="M 684 794 
L 1344 794 
L 1344 0 
L 684 0 
L 684 794 
z
" transform="scale(0.015625)"/>
        <path id="DejaVuSans-35" d="M 691 4666 
L 3169 4666 
L 3169 4134 
L 1269 4134 
L 1269 2991 
Q 1406 3038 1543 3061 
Q 1681 3084 1819 3084 
Q 2600 3084 3056 2656 
Q 3513 2228 3513 1497 
Q 3513 744 3044 326 
Q 2575 -91 1722 -91 
Q 1428 -91 1123 -41 
Q 819 9 494 109 
L 494 744 
Q 775 591 1075 516 
Q 1375 441 1709 441 
Q 2250 441 2565 725 
Q 2881 1009 2881 1497 
Q 2881 1984 2565 2268 
Q 2250 2553 1709 2553 
Q 1456 2553 1204 2497 
Q 953 2441 691 2322 
L 691 4666 
z
" transform="scale(0.015625)"/>
       </defs>
       <use xlink:href="#DejaVuSans-32"/>
       <use xlink:href="#DejaVuSans-2e" x="63.623047"/>
       <use xlink:href="#DejaVuSans-35" x="95.410156"/>
      </g>
     </g>
    </g>
    <g id="ytick_2">
     <g id="line2d_9">
      <g>
       <use xlink:href="#m77f22c1536" x="50.595313" y="121.925003" style="stroke: #000000; stroke-width: 0.8"/>
      </g>
     </g>
     <g id="text_2">
      <!-- 5 -->
      <g transform="translate(37.232813 125.724222) scale(0.1 -0.1)">
       <use xlink:href="#DejaVuSans-35"/>
      </g>
     </g>
    </g>
    <g id="ytick_3">
     <g id="line2d_10">
      <g>
       <use xlink:href="#m77f22c1536" x="50.595313" y="97.283543" style="stroke: #000000; stroke-width: 0.8"/>
      </g>
     </g>
     <g id="text_3">
      <!-- 7.5 -->
      <g transform="translate(27.692188 101.082761) scale(0.1 -0.1)">
       <defs>
        <path id="DejaVuSans-37" d="M 525 4666 
L 3525 4666 
L 3525 4397 
L 1831 0 
L 1172 0 
L 2766 4134 
L 525 4134 
L 525 4666 
z
" transform="scale(0.015625)"/>
       </defs>
       <use xlink:href="#DejaVuSans-37"/>
       <use xlink:href="#DejaVuSans-2e" x="63.623047"/>
       <use xlink:href="#DejaVuSans-35" x="95.410156"/>
      </g>
     </g>
    </g>
    <g id="ytick_4">
     <g id="line2d_11">
      <g>
       <use xlink:href="#m77f22c1536" x="50.595313" y="72.642082" style="stroke: #000000; stroke-width: 0.8"/>
      </g>
     </g>
     <g id="text_4">
      <!-- 10 -->
      <g transform="translate(30.870313 76.441301) scale(0.1 -0.1)">
       <defs>
        <path id="DejaVuSans-31" d="M 794 531 
L 1825 531 
L 1825 4091 
L 703 3866 
L 703 4441 
L 1819 4666 
L 2450 4666 
L 2450 531 
L 3481 531 
L 3481 0 
L 794 0 
L 794 531 
z
" transform="scale(0.015625)"/>
        <path id="DejaVuSans-30" d="M 2034 4250 
Q 1547 4250 1301 3770 
Q 1056 3291 1056 2328 
Q 1056 1369 1301 889 
Q 1547 409 2034 409 
Q 2525 409 2770 889 
Q 3016 1369 3016 2328 
Q 3016 3291 2770 3770 
Q 2525 4250 2034 4250 
z
M 2034 4750 
Q 2819 4750 3233 4129 
Q 3647 3509 3647 2328 
Q 3647 1150 3233 529 
Q 2819 -91 2034 -91 
Q 1250 -91 836 529 
Q 422 1150 422 2328 
Q 422 3509 836 4129 
Q 1250 4750 2034 4750 
z
" transform="scale(0.015625)"/>
       </defs>
       <use xlink:href="#DejaVuSans-31"/>
       <use xlink:href="#DejaVuSans-30" x="63.623047"/>
      </g>
     </g>
    </g>
    <g id="ytick_5">
     <g id="line2d_12">
      <g>
       <use xlink:href="#m77f22c1536" x="50.595313" y="48.000621" style="stroke: #000000; stroke-width: 0.8"/>
      </g>
     </g>
     <g id="text_5">
      <!-- 12.5 -->
      <g transform="translate(21.329688 51.79984) scale(0.1 -0.1)">
       <use xlink:href="#DejaVuSans-31"/>
       <use xlink:href="#DejaVuSans-32" x="63.623047"/>
       <use xlink:href="#DejaVuSans-2e" x="127.246094"/>
       <use xlink:href="#DejaVuSans-35" x="159.033203"/>
      </g>
     </g>
    </g>
    <g id="text_6">
     <!-- $|S_{21}|$ [mV] -->
     <g transform="translate(14.929688 127.19) rotate(-90) scale(0.1 -0.1)">
      <defs>
       <path id="DejaVuSans-7c" d="M 1344 4891 
L 1344 -1509 
L 813 -1509 
L 813 4891 
L 1344 4891 
z
" transform="scale(0.015625)"/>
       <path id="DejaVuSans-Oblique-53" d="M 3859 4513 
L 3738 3897 
Q 3422 4066 3111 4152 
Q 2800 4238 2509 4238 
Q 1944 4238 1609 3991 
Q 1275 3744 1275 3334 
Q 1275 3109 1398 2989 
Q 1522 2869 2034 2731 
L 2413 2638 
Q 3053 2472 3303 2217 
Q 3553 1963 3553 1503 
Q 3553 797 2998 353 
Q 2444 -91 1538 -91 
Q 1166 -91 791 -17 
Q 416 56 38 206 
L 166 856 
Q 513 641 861 531 
Q 1209 422 1556 422 
Q 2147 422 2503 684 
Q 2859 947 2859 1369 
Q 2859 1650 2717 1795 
Q 2575 1941 2106 2059 
L 1728 2156 
Q 1081 2325 845 2545 
Q 609 2766 609 3163 
Q 609 3859 1145 4304 
Q 1681 4750 2541 4750 
Q 2875 4750 3203 4690 
Q 3531 4631 3859 4513 
z
" transform="scale(0.015625)"/>
       <path id="DejaVuSans-20" transform="scale(0.015625)"/>
       <path id="DejaVuSans-5b" d="M 550 4863 
L 1875 4863 
L 1875 4416 
L 1125 4416 
L 1125 -397 
L 1875 -397 
L 1875 -844 
L 550 -844 
L 550 4863 
z
" transform="scale(0.015625)"/>
       <path id="DejaVuSans-6d" d="M 3328 2828 
Q 3544 3216 3844 3400 
Q 4144 3584 4550 3584 
Q 5097 3584 5394 3201 
Q 5691 2819 5691 2113 
L 5691 0 
L 5113 0 
L 5113 2094 
Q 5113 2597 4934 2840 
Q 4756 3084 4391 3084 
Q 3944 3084 3684 2787 
Q 3425 2491 3425 1978 
L 3425 0 
L 2847 0 
L 2847 2094 
Q 2847 2600 2669 2842 
Q 2491 3084 2119 3084 
Q 1678 3084 1418 2786 
Q 1159 2488 1159 1978 
L 1159 0 
L 581 0 
L 581 3500 
L 1159 3500 
L 1159 2956 
Q 1356 3278 1631 3431 
Q 1906 3584 2284 3584 
Q 2666 3584 2933 3390 
Q 3200 3197 3328 2828 
z
" transform="scale(0.015625)"/>
       <path id="DejaVuSans-56" d="M 1831 0 
L 50 4666 
L 709 4666 
L 2188 738 
L 3669 4666 
L 4325 4666 
L 2547 0 
L 1831 0 
z
" transform="scale(0.015625)"/>
       <path id="DejaVuSans-5d" d="M 1947 4863 
L 1947 -844 
L 622 -844 
L 622 -397 
L 1369 -397 
L 1369 4416 
L 622 4416 
L 622 4863 
L 1947 4863 
z
" transform="scale(0.015625)"/>
      </defs>
      <use xlink:href="#DejaVuSans-7c" transform="translate(0 0.578125)"/>
      <use xlink:href="#DejaVuSans-Oblique-53" transform="translate(33.691406 0.578125)"/>
      <use xlink:href="#DejaVuSans-32" transform="translate(97.167969 -15.828125) scale(0.7)"/>
      <use xlink:href="#DejaVuSans-31" transform="translate(141.704102 -15.828125) scale(0.7)"/>
      <use xlink:href="#DejaVuSans-7c" transform="translate(188.974609 0.578125)"/>
      <use xlink:href="#DejaVuSans-20" transform="translate(222.666016 0.578125)"/>
      <use xlink:href="#DejaVuSans-5b" transform="translate(254.453125 0.578125)"/>
      <use xlink:href="#DejaVuSans-6d" transform="translate(293.466797 0.578125)"/>
      <use xlink:href="#DejaVuSans-56" transform="translate(390.878906 0.578125)"/>
      <use xlink:href="#DejaVuSans-5d" transform="translate(459.287109 0.578125)"/>
     </g>
    </g>
   </g>
   <g id="line2d_13">
    <path d="M 66.82804 82.351121 
L 68.45947 81.674977 
L 70.0909 82.722578 
L 71.722329 81.111561 
L 74.985189 83.126415 
L 76.616619 82.314173 
L 78.248049 81.142048 
L 81.510909 81.897015 
L 83.142339 81.476557 
L 84.773768 82.89616 
L 88.036628 82.007555 
L 89.668058 80.951259 
L 92.930918 83.810147 
L 94.562348 83.447442 
L 96.193778 82.495875 
L 97.825207 82.065997 
L 99.456637 83.09435 
L 101.088067 82.385245 
L 102.719497 83.321779 
L 104.350927 83.572401 
L 105.982357 81.801724 
L 107.613787 82.556116 
L 109.245217 83.555885 
L 110.876646 82.741791 
L 112.508076 83.82953 
L 114.139506 82.885973 
L 115.770936 82.333667 
L 117.402366 83.475125 
L 119.033796 82.597529 
L 120.665226 82.796082 
L 122.296656 84.153232 
L 123.928085 83.091054 
L 125.559515 82.949912 
L 127.190945 83.889823 
L 128.822375 83.039302 
L 130.453805 83.671368 
L 133.716665 83.673702 
L 135.348095 83.952856 
L 136.979524 83.954569 
L 138.610954 83.759128 
L 140.242384 83.964236 
L 141.873814 83.476248 
L 143.505244 83.120049 
L 145.136674 83.392272 
L 146.768104 84.382513 
L 148.399534 83.481456 
L 151.662393 83.757167 
L 153.293823 84.159079 
L 154.925253 83.901602 
L 156.556683 84.70313 
L 159.819543 84.523438 
L 161.450973 84.271284 
L 163.082402 84.150569 
L 164.713832 83.751348 
L 166.345262 84.436159 
L 167.976692 84.305987 
L 169.608122 83.105053 
L 172.870982 83.378455 
L 174.502412 83.962053 
L 176.133842 83.284329 
L 177.765271 83.575033 
L 179.396701 83.557726 
L 181.028131 84.451355 
L 182.659561 83.782996 
L 184.290991 84.175286 
L 185.922421 83.034658 
L 187.553851 83.440876 
L 189.185281 83.492882 
L 190.81671 83.18133 
L 192.44814 83.303427 
L 194.07957 83.855821 
L 195.711 83.687724 
L 197.34243 83.121631 
L 198.97386 82.998955 
L 200.60529 83.716314 
L 203.868149 83.151376 
L 205.499579 83.838197 
L 207.131009 83.099317 
L 208.762439 83.555542 
L 210.393869 82.856761 
L 212.025299 82.380902 
L 213.656729 82.465522 
L 215.288159 82.352705 
L 218.551018 82.874827 
L 220.182448 83.199904 
L 221.813878 81.936521 
L 223.445308 82.606614 
L 225.076738 82.905224 
L 226.708168 82.836383 
L 228.339598 83.031648 
L 229.971027 84.82731 
L 231.602457 83.456895 
L 233.233887 84.88762 
L 234.865317 82.92228 
L 236.496747 84.172555 
L 238.128177 84.824292 
L 239.759607 85.917543 
L 241.391037 83.786853 
L 243.022466 84.499227 
L 244.653896 85.488785 
L 246.285326 85.696729 
L 247.916756 87.808014 
L 249.548186 87.093607 
L 251.179616 88.040663 
L 252.811046 88.475206 
L 254.442476 90.470591 
L 256.073905 92.847704 
L 257.705335 94.202906 
L 259.336765 96.286197 
L 260.968195 99.654666 
L 262.599625 103.562245 
L 264.231055 108.716549 
L 265.862485 115.755467 
L 269.125344 132.005422 
L 270.756774 142.268727 
L 272.388204 151.483114 
L 274.019634 157.221818 
L 275.651064 155.568841 
L 277.282494 149.452422 
L 278.913924 140.118791 
L 280.545354 132.451758 
L 282.176783 126.226117 
L 283.808213 120.587725 
L 285.439643 116.359621 
L 287.071073 111.555435 
L 288.702503 109.59738 
L 290.333933 107.309262 
L 291.965363 103.797793 
L 293.596793 102.831655 
L 296.859652 98.687988 
L 298.491082 98.885056 
L 300.122512 97.084293 
L 301.753942 96.118492 
L 303.385372 95.866469 
L 305.016802 94.412107 
L 306.648232 94.450771 
L 308.279662 93.982325 
L 309.911091 93.772514 
L 311.542521 92.410355 
L 313.173951 92.922753 
L 314.805381 92.255349 
L 316.436811 91.828426 
L 318.068241 91.890649 
L 319.699671 90.974809 
L 321.331101 90.762616 
L 322.96253 90.836358 
L 326.22539 89.914929 
L 329.48825 89.875371 
L 331.11968 90.057614 
L 332.75111 89.99281 
L 334.38254 89.568803 
L 337.645399 89.426695 
L 339.276829 89.750431 
L 340.908259 89.609099 
L 342.539689 89.04311 
L 344.171119 89.528503 
L 345.802549 89.86638 
L 347.433979 88.56734 
L 349.065408 88.257354 
L 350.696838 90.003477 
L 353.959698 88.431833 
L 355.591128 87.933615 
L 357.222558 88.880128 
L 360.485418 88.623758 
L 362.116847 87.883936 
L 363.748277 88.757005 
L 365.379707 88.299805 
L 367.011137 88.092862 
L 368.642567 88.27184 
L 370.273997 87.951093 
L 371.905427 88.658881 
L 373.536857 88.158165 
L 375.168286 87.887126 
L 376.799716 87.067141 
L 378.431146 88.112865 
L 380.062576 87.619931 
L 383.325436 87.537839 
L 384.956866 86.558686 
L 388.219725 87.778585 
L 389.851155 87.859561 
L 391.482585 87.688147 
L 391.482585 87.688147 
" clip-path="url(#paf638568d8)" style="fill: none; stroke: #1f77b4; stroke-width: 1.5; stroke-linecap: square"/>
    <defs>
     <path id="md2674d494e" d="M 0 1.5 
C 0.397805 1.5 0.77937 1.341951 1.06066 1.06066 
C 1.341951 0.77937 1.5 0.397805 1.5 0 
C 1.5 -0.397805 1.341951 -0.77937 1.06066 -1.06066 
C 0.77937 -1.341951 0.397805 -1.5 0 -1.5 
C -0.397805 -1.5 -0.77937 -1.341951 -1.06066 -1.06066 
C -1.341951 -0.77937 -1.5 -0.397805 -1.5 0 
C -1.5 0.397805 -1.341951 0.77937 -1.06066 1.06066 
C -0.77937 1.341951 -0.397805 1.5 0 1.5 
z
" style="stroke: #1f77b4"/>
    </defs>
    <g clip-path="url(#paf638568d8)">
     <use xlink:href="#md2674d494e" x="66.82804" y="82.351121" style="fill: #1f77b4; stroke: #1f77b4"/>
     <use xlink:href="#md2674d494e" x="68.45947" y="81.674977" style="fill: #1f77b4; stroke: #1f77b4"/>
     <use xlink:href="#md2674d494e" x="70.0909" y="82.722578" style="fill: #1f77b4; stroke: #1f77b4"/>
     <use xlink:href="#md2674d494e" x="71.722329" y="81.111561" style="fill: #1f77b4; stroke: #1f77b4"/>
     <use xlink:href="#md2674d494e" x="73.353759" y="82.16422" style="fill: #1f77b4; stroke: #1f77b4"/>
     <use xlink:href="#md2674d494e" x="74.985189" y="83.126415" style="fill: #1f77b4; stroke: #1f77b4"/>
     <use xlink:href="#md2674d494e" x="76.616619" y="82.314173" style="fill: #1f77b4; stroke: #1f77b4"/>
     <use xlink:href="#md2674d494e" x="78.248049" y="81.142048" style="fill: #1f77b4; stroke: #1f77b4"/>
     <use xlink:href="#md2674d494e" x="79.879479" y="81.57141" style="fill: #1f77b4; stroke: #1f77b4"/>
     <use xlink:href="#md2674d494e" x="81.510909" y="81.897015" style="fill: #1f77b4; stroke: #1f77b4"/>
     <use xlink:href="#md2674d494e" x="83.142339" y="81.476557" style="fill: #1f77b4; stroke: #1f77b4"/>
     <use xlink:href="#md2674d494e" x="84.773768" y="82.89616" style="fill: #1f77b4; stroke: #1f77b4"/>
     <use xlink:href="#md2674d494e" x="86.405198" y="82.449745" style="fill: #1f77b4; stroke: #1f77b4"/>
     <use xlink:href="#md2674d494e" x="88.036628" y="82.007555" style="fill: #1f77b4; stroke: #1f77b4"/>
     <use xlink:href="#md2674d494e" x="89.668058" y="80.951259" style="fill: #1f77b4; stroke: #1f77b4"/>
     <use xlink:href="#md2674d494e" x="91.299488" y="82.326096" style="fill: #1f77b4; stroke: #1f77b4"/>
     <use xlink:href="#md2674d494e" x="92.930918" y="83.810147" style="fill: #1f77b4; stroke: #1f77b4"/>
     <use xlink:href="#md2674d494e" x="94.562348" y="83.447442" style="fill: #1f77b4; stroke: #1f77b4"/>
     <use xlink:href="#md2674d494e" x="96.193778" y="82.495875" style="fill: #1f77b4; stroke: #1f77b4"/>
     <use xlink:href="#md2674d494e" x="97.825207" y="82.065997" style="fill: #1f77b4; stroke: #1f77b4"/>
     <use xlink:href="#md2674d494e" x="99.456637" y="83.09435" style="fill: #1f77b4; stroke: #1f77b4"/>
     <use xlink:href="#md2674d494e" x="101.088067" y="82.385245" style="fill: #1f77b4; stroke: #1f77b4"/>
     <use xlink:href="#md2674d494e" x="102.719497" y="83.321779" style="fill: #1f77b4; stroke: #1f77b4"/>
     <use xlink:href="#md2674d494e" x="104.350927" y="83.572401" style="fill: #1f77b4; stroke: #1f77b4"/>
     <use xlink:href="#md2674d494e" x="105.982357" y="81.801724" style="fill: #1f77b4; stroke: #1f77b4"/>
     <use xlink:href="#md2674d494e" x="107.613787" y="82.556116" style="fill: #1f77b4; stroke: #1f77b4"/>
     <use xlink:href="#md2674d494e" x="109.245217" y="83.555885" style="fill: #1f77b4; stroke: #1f77b4"/>
     <use xlink:href="#md2674d494e" x="110.876646" y="82.741791" style="fill: #1f77b4; stroke: #1f77b4"/>
     <use xlink:href="#md2674d494e" x="112.508076" y="83.82953" style="fill: #1f77b4; stroke: #1f77b4"/>
     <use xlink:href="#md2674d494e" x="114.139506" y="82.885973" style="fill: #1f77b4; stroke: #1f77b4"/>
     <use xlink:href="#md2674d494e" x="115.770936" y="82.333667" style="fill: #1f77b4; stroke: #1f77b4"/>
     <use xlink:href="#md2674d494e" x="117.402366" y="83.475125" style="fill: #1f77b4; stroke: #1f77b4"/>
     <use xlink:href="#md2674d494e" x="119.033796" y="82.597529" style="fill: #1f77b4; stroke: #1f77b4"/>
     <use xlink:href="#md2674d494e" x="120.665226" y="82.796082" style="fill: #1f77b4; stroke: #1f77b4"/>
     <use xlink:href="#md2674d494e" x="122.296656" y="84.153232" style="fill: #1f77b4; stroke: #1f77b4"/>
     <use xlink:href="#md2674d494e" x="123.928085" y="83.091054" style="fill: #1f77b4; stroke: #1f77b4"/>
     <use xlink:href="#md2674d494e" x="125.559515" y="82.949912" style="fill: #1f77b4; stroke: #1f77b4"/>
     <use xlink:href="#md2674d494e" x="127.190945" y="83.889823" style="fill: #1f77b4; stroke: #1f77b4"/>
     <use xlink:href="#md2674d494e" x="128.822375" y="83.039302" style="fill: #1f77b4; stroke: #1f77b4"/>
     <use xlink:href="#md2674d494e" x="130.453805" y="83.671368" style="fill: #1f77b4; stroke: #1f77b4"/>
     <use xlink:href="#md2674d494e" x="132.085235" y="83.679196" style="fill: #1f77b4; stroke: #1f77b4"/>
     <use xlink:href="#md2674d494e" x="133.716665" y="83.673702" style="fill: #1f77b4; stroke: #1f77b4"/>
     <use xlink:href="#md2674d494e" x="135.348095" y="83.952856" style="fill: #1f77b4; stroke: #1f77b4"/>
     <use xlink:href="#md2674d494e" x="136.979524" y="83.954569" style="fill: #1f77b4; stroke: #1f77b4"/>
     <use xlink:href="#md2674d494e" x="138.610954" y="83.759128" style="fill: #1f77b4; stroke: #1f77b4"/>
     <use xlink:href="#md2674d494e" x="140.242384" y="83.964236" style="fill: #1f77b4; stroke: #1f77b4"/>
     <use xlink:href="#md2674d494e" x="141.873814" y="83.476248" style="fill: #1f77b4; stroke: #1f77b4"/>
     <use xlink:href="#md2674d494e" x="143.505244" y="83.120049" style="fill: #1f77b4; stroke: #1f77b4"/>
     <use xlink:href="#md2674d494e" x="145.136674" y="83.392272" style="fill: #1f77b4; stroke: #1f77b4"/>
     <use xlink:href="#md2674d494e" x="146.768104" y="84.382513" style="fill: #1f77b4; stroke: #1f77b4"/>
     <use xlink:href="#md2674d494e" x="148.399534" y="83.481456" style="fill: #1f77b4; stroke: #1f77b4"/>
     <use xlink:href="#md2674d494e" x="150.030963" y="83.57722" style="fill: #1f77b4; stroke: #1f77b4"/>
     <use xlink:href="#md2674d494e" x="151.662393" y="83.757167" style="fill: #1f77b4; stroke: #1f77b4"/>
     <use xlink:href="#md2674d494e" x="153.293823" y="84.159079" style="fill: #1f77b4; stroke: #1f77b4"/>
     <use xlink:href="#md2674d494e" x="154.925253" y="83.901602" style="fill: #1f77b4; stroke: #1f77b4"/>
     <use xlink:href="#md2674d494e" x="156.556683" y="84.70313" style="fill: #1f77b4; stroke: #1f77b4"/>
     <use xlink:href="#md2674d494e" x="158.188113" y="84.649896" style="fill: #1f77b4; stroke: #1f77b4"/>
     <use xlink:href="#md2674d494e" x="159.819543" y="84.523438" style="fill: #1f77b4; stroke: #1f77b4"/>
     <use xlink:href="#md2674d494e" x="161.450973" y="84.271284" style="fill: #1f77b4; stroke: #1f77b4"/>
     <use xlink:href="#md2674d494e" x="163.082402" y="84.150569" style="fill: #1f77b4; stroke: #1f77b4"/>
     <use xlink:href="#md2674d494e" x="164.713832" y="83.751348" style="fill: #1f77b4; stroke: #1f77b4"/>
     <use xlink:href="#md2674d494e" x="166.345262" y="84.436159" style="fill: #1f77b4; stroke: #1f77b4"/>
     <use xlink:href="#md2674d494e" x="167.976692" y="84.305987" style="fill: #1f77b4; stroke: #1f77b4"/>
     <use xlink:href="#md2674d494e" x="169.608122" y="83.105053" style="fill: #1f77b4; stroke: #1f77b4"/>
     <use xlink:href="#md2674d494e" x="171.239552" y="83.295337" style="fill: #1f77b4; stroke: #1f77b4"/>
     <use xlink:href="#md2674d494e" x="172.870982" y="83.378455" style="fill: #1f77b4; stroke: #1f77b4"/>
     <use xlink:href="#md2674d494e" x="174.502412" y="83.962053" style="fill: #1f77b4; stroke: #1f77b4"/>
     <use xlink:href="#md2674d494e" x="176.133842" y="83.284329" style="fill: #1f77b4; stroke: #1f77b4"/>
     <use xlink:href="#md2674d494e" x="177.765271" y="83.575033" style="fill: #1f77b4; stroke: #1f77b4"/>
     <use xlink:href="#md2674d494e" x="179.396701" y="83.557726" style="fill: #1f77b4; stroke: #1f77b4"/>
     <use xlink:href="#md2674d494e" x="181.028131" y="84.451355" style="fill: #1f77b4; stroke: #1f77b4"/>
     <use xlink:href="#md2674d494e" x="182.659561" y="83.782996" style="fill: #1f77b4; stroke: #1f77b4"/>
     <use xlink:href="#md2674d494e" x="184.290991" y="84.175286" style="fill: #1f77b4; stroke: #1f77b4"/>
     <use xlink:href="#md2674d494e" x="185.922421" y="83.034658" style="fill: #1f77b4; stroke: #1f77b4"/>
     <use xlink:href="#md2674d494e" x="187.553851" y="83.440876" style="fill: #1f77b4; stroke: #1f77b4"/>
     <use xlink:href="#md2674d494e" x="189.185281" y="83.492882" style="fill: #1f77b4; stroke: #1f77b4"/>
     <use xlink:href="#md2674d494e" x="190.81671" y="83.18133" style="fill: #1f77b4; stroke: #1f77b4"/>
     <use xlink:href="#md2674d494e" x="192.44814" y="83.303427" style="fill: #1f77b4; stroke: #1f77b4"/>
     <use xlink:href="#md2674d494e" x="194.07957" y="83.855821" style="fill: #1f77b4; stroke: #1f77b4"/>
     <use xlink:href="#md2674d494e" x="195.711" y="83.687724" style="fill: #1f77b4; stroke: #1f77b4"/>
     <use xlink:href="#md2674d494e" x="197.34243" y="83.121631" style="fill: #1f77b4; stroke: #1f77b4"/>
     <use xlink:href="#md2674d494e" x="198.97386" y="82.998955" style="fill: #1f77b4; stroke: #1f77b4"/>
     <use xlink:href="#md2674d494e" x="200.60529" y="83.716314" style="fill: #1f77b4; stroke: #1f77b4"/>
     <use xlink:href="#md2674d494e" x="202.23672" y="83.405422" style="fill: #1f77b4; stroke: #1f77b4"/>
     <use xlink:href="#md2674d494e" x="203.868149" y="83.151376" style="fill: #1f77b4; stroke: #1f77b4"/>
     <use xlink:href="#md2674d494e" x="205.499579" y="83.838197" style="fill: #1f77b4; stroke: #1f77b4"/>
     <use xlink:href="#md2674d494e" x="207.131009" y="83.099317" style="fill: #1f77b4; stroke: #1f77b4"/>
     <use xlink:href="#md2674d494e" x="208.762439" y="83.555542" style="fill: #1f77b4; stroke: #1f77b4"/>
     <use xlink:href="#md2674d494e" x="210.393869" y="82.856761" style="fill: #1f77b4; stroke: #1f77b4"/>
     <use xlink:href="#md2674d494e" x="212.025299" y="82.380902" style="fill: #1f77b4; stroke: #1f77b4"/>
     <use xlink:href="#md2674d494e" x="213.656729" y="82.465522" style="fill: #1f77b4; stroke: #1f77b4"/>
     <use xlink:href="#md2674d494e" x="215.288159" y="82.352705" style="fill: #1f77b4; stroke: #1f77b4"/>
     <use xlink:href="#md2674d494e" x="216.919588" y="82.592547" style="fill: #1f77b4; stroke: #1f77b4"/>
     <use xlink:href="#md2674d494e" x="218.551018" y="82.874827" style="fill: #1f77b4; stroke: #1f77b4"/>
     <use xlink:href="#md2674d494e" x="220.182448" y="83.199904" style="fill: #1f77b4; stroke: #1f77b4"/>
     <use xlink:href="#md2674d494e" x="221.813878" y="81.936521" style="fill: #1f77b4; stroke: #1f77b4"/>
     <use xlink:href="#md2674d494e" x="223.445308" y="82.606614" style="fill: #1f77b4; stroke: #1f77b4"/>
     <use xlink:href="#md2674d494e" x="225.076738" y="82.905224" style="fill: #1f77b4; stroke: #1f77b4"/>
     <use xlink:href="#md2674d494e" x="226.708168" y="82.836383" style="fill: #1f77b4; stroke: #1f77b4"/>
     <use xlink:href="#md2674d494e" x="228.339598" y="83.031648" style="fill: #1f77b4; stroke: #1f77b4"/>
     <use xlink:href="#md2674d494e" x="229.971027" y="84.82731" style="fill: #1f77b4; stroke: #1f77b4"/>
     <use xlink:href="#md2674d494e" x="231.602457" y="83.456895" style="fill: #1f77b4; stroke: #1f77b4"/>
     <use xlink:href="#md2674d494e" x="233.233887" y="84.88762" style="fill: #1f77b4; stroke: #1f77b4"/>
     <use xlink:href="#md2674d494e" x="234.865317" y="82.92228" style="fill: #1f77b4; stroke: #1f77b4"/>
     <use xlink:href="#md2674d494e" x="236.496747" y="84.172555" style="fill: #1f77b4; stroke: #1f77b4"/>
     <use xlink:href="#md2674d494e" x="238.128177" y="84.824292" style="fill: #1f77b4; stroke: #1f77b4"/>
     <use xlink:href="#md2674d494e" x="239.759607" y="85.917543" style="fill: #1f77b4; stroke: #1f77b4"/>
     <use xlink:href="#md2674d494e" x="241.391037" y="83.786853" style="fill: #1f77b4; stroke: #1f77b4"/>
     <use xlink:href="#md2674d494e" x="243.022466" y="84.499227" style="fill: #1f77b4; stroke: #1f77b4"/>
     <use xlink:href="#md2674d494e" x="244.653896" y="85.488785" style="fill: #1f77b4; stroke: #1f77b4"/>
     <use xlink:href="#md2674d494e" x="246.285326" y="85.696729" style="fill: #1f77b4; stroke: #1f77b4"/>
     <use xlink:href="#md2674d494e" x="247.916756" y="87.808014" style="fill: #1f77b4; stroke: #1f77b4"/>
     <use xlink:href="#md2674d494e" x="249.548186" y="87.093607" style="fill: #1f77b4; stroke: #1f77b4"/>
     <use xlink:href="#md2674d494e" x="251.179616" y="88.040663" style="fill: #1f77b4; stroke: #1f77b4"/>
     <use xlink:href="#md2674d494e" x="252.811046" y="88.475206" style="fill: #1f77b4; stroke: #1f77b4"/>
     <use xlink:href="#md2674d494e" x="254.442476" y="90.470591" style="fill: #1f77b4; stroke: #1f77b4"/>
     <use xlink:href="#md2674d494e" x="256.073905" y="92.847704" style="fill: #1f77b4; stroke: #1f77b4"/>
     <use xlink:href="#md2674d494e" x="257.705335" y="94.202906" style="fill: #1f77b4; stroke: #1f77b4"/>
     <use xlink:href="#md2674d494e" x="259.336765" y="96.286197" style="fill: #1f77b4; stroke: #1f77b4"/>
     <use xlink:href="#md2674d494e" x="260.968195" y="99.654666" style="fill: #1f77b4; stroke: #1f77b4"/>
     <use xlink:href="#md2674d494e" x="262.599625" y="103.562245" style="fill: #1f77b4; stroke: #1f77b4"/>
     <use xlink:href="#md2674d494e" x="264.231055" y="108.716549" style="fill: #1f77b4; stroke: #1f77b4"/>
     <use xlink:href="#md2674d494e" x="265.862485" y="115.755467" style="fill: #1f77b4; stroke: #1f77b4"/>
     <use xlink:href="#md2674d494e" x="267.493915" y="123.8237" style="fill: #1f77b4; stroke: #1f77b4"/>
     <use xlink:href="#md2674d494e" x="269.125344" y="132.005422" style="fill: #1f77b4; stroke: #1f77b4"/>
     <use xlink:href="#md2674d494e" x="270.756774" y="142.268727" style="fill: #1f77b4; stroke: #1f77b4"/>
     <use xlink:href="#md2674d494e" x="272.388204" y="151.483114" style="fill: #1f77b4; stroke: #1f77b4"/>
     <use xlink:href="#md2674d494e" x="274.019634" y="157.221818" style="fill: #1f77b4; stroke: #1f77b4"/>
     <use xlink:href="#md2674d494e" x="275.651064" y="155.568841" style="fill: #1f77b4; stroke: #1f77b4"/>
     <use xlink:href="#md2674d494e" x="277.282494" y="149.452422" style="fill: #1f77b4; stroke: #1f77b4"/>
     <use xlink:href="#md2674d494e" x="278.913924" y="140.118791" style="fill: #1f77b4; stroke: #1f77b4"/>
     <use xlink:href="#md2674d494e" x="280.545354" y="132.451758" style="fill: #1f77b4; stroke: #1f77b4"/>
     <use xlink:href="#md2674d494e" x="282.176783" y="126.226117" style="fill: #1f77b4; stroke: #1f77b4"/>
     <use xlink:href="#md2674d494e" x="283.808213" y="120.587725" style="fill: #1f77b4; stroke: #1f77b4"/>
     <use xlink:href="#md2674d494e" x="285.439643" y="116.359621" style="fill: #1f77b4; stroke: #1f77b4"/>
     <use xlink:href="#md2674d494e" x="287.071073" y="111.555435" style="fill: #1f77b4; stroke: #1f77b4"/>
     <use xlink:href="#md2674d494e" x="288.702503" y="109.59738" style="fill: #1f77b4; stroke: #1f77b4"/>
     <use xlink:href="#md2674d494e" x="290.333933" y="107.309262" style="fill: #1f77b4; stroke: #1f77b4"/>
     <use xlink:href="#md2674d494e" x="291.965363" y="103.797793" style="fill: #1f77b4; stroke: #1f77b4"/>
     <use xlink:href="#md2674d494e" x="293.596793" y="102.831655" style="fill: #1f77b4; stroke: #1f77b4"/>
     <use xlink:href="#md2674d494e" x="295.228223" y="100.81816" style="fill: #1f77b4; stroke: #1f77b4"/>
     <use xlink:href="#md2674d494e" x="296.859652" y="98.687988" style="fill: #1f77b4; stroke: #1f77b4"/>
     <use xlink:href="#md2674d494e" x="298.491082" y="98.885056" style="fill: #1f77b4; stroke: #1f77b4"/>
     <use xlink:href="#md2674d494e" x="300.122512" y="97.084293" style="fill: #1f77b4; stroke: #1f77b4"/>
     <use xlink:href="#md2674d494e" x="301.753942" y="96.118492" style="fill: #1f77b4; stroke: #1f77b4"/>
     <use xlink:href="#md2674d494e" x="303.385372" y="95.866469" style="fill: #1f77b4; stroke: #1f77b4"/>
     <use xlink:href="#md2674d494e" x="305.016802" y="94.412107" style="fill: #1f77b4; stroke: #1f77b4"/>
     <use xlink:href="#md2674d494e" x="306.648232" y="94.450771" style="fill: #1f77b4; stroke: #1f77b4"/>
     <use xlink:href="#md2674d494e" x="308.279662" y="93.982325" style="fill: #1f77b4; stroke: #1f77b4"/>
     <use xlink:href="#md2674d494e" x="309.911091" y="93.772514" style="fill: #1f77b4; stroke: #1f77b4"/>
     <use xlink:href="#md2674d494e" x="311.542521" y="92.410355" style="fill: #1f77b4; stroke: #1f77b4"/>
     <use xlink:href="#md2674d494e" x="313.173951" y="92.922753" style="fill: #1f77b4; stroke: #1f77b4"/>
     <use xlink:href="#md2674d494e" x="314.805381" y="92.255349" style="fill: #1f77b4; stroke: #1f77b4"/>
     <use xlink:href="#md2674d494e" x="316.436811" y="91.828426" style="fill: #1f77b4; stroke: #1f77b4"/>
     <use xlink:href="#md2674d494e" x="318.068241" y="91.890649" style="fill: #1f77b4; stroke: #1f77b4"/>
     <use xlink:href="#md2674d494e" x="319.699671" y="90.974809" style="fill: #1f77b4; stroke: #1f77b4"/>
     <use xlink:href="#md2674d494e" x="321.331101" y="90.762616" style="fill: #1f77b4; stroke: #1f77b4"/>
     <use xlink:href="#md2674d494e" x="322.96253" y="90.836358" style="fill: #1f77b4; stroke: #1f77b4"/>
     <use xlink:href="#md2674d494e" x="324.59396" y="90.333678" style="fill: #1f77b4; stroke: #1f77b4"/>
     <use xlink:href="#md2674d494e" x="326.22539" y="89.914929" style="fill: #1f77b4; stroke: #1f77b4"/>
     <use xlink:href="#md2674d494e" x="327.85682" y="89.917258" style="fill: #1f77b4; stroke: #1f77b4"/>
     <use xlink:href="#md2674d494e" x="329.48825" y="89.875371" style="fill: #1f77b4; stroke: #1f77b4"/>
     <use xlink:href="#md2674d494e" x="331.11968" y="90.057614" style="fill: #1f77b4; stroke: #1f77b4"/>
     <use xlink:href="#md2674d494e" x="332.75111" y="89.99281" style="fill: #1f77b4; stroke: #1f77b4"/>
     <use xlink:href="#md2674d494e" x="334.38254" y="89.568803" style="fill: #1f77b4; stroke: #1f77b4"/>
     <use xlink:href="#md2674d494e" x="336.013969" y="89.472517" style="fill: #1f77b4; stroke: #1f77b4"/>
     <use xlink:href="#md2674d494e" x="337.645399" y="89.426695" style="fill: #1f77b4; stroke: #1f77b4"/>
     <use xlink:href="#md2674d494e" x="339.276829" y="89.750431" style="fill: #1f77b4; stroke: #1f77b4"/>
     <use xlink:href="#md2674d494e" x="340.908259" y="89.609099" style="fill: #1f77b4; stroke: #1f77b4"/>
     <use xlink:href="#md2674d494e" x="342.539689" y="89.04311" style="fill: #1f77b4; stroke: #1f77b4"/>
     <use xlink:href="#md2674d494e" x="344.171119" y="89.528503" style="fill: #1f77b4; stroke: #1f77b4"/>
     <use xlink:href="#md2674d494e" x="345.802549" y="89.86638" style="fill: #1f77b4; stroke: #1f77b4"/>
     <use xlink:href="#md2674d494e" x="347.433979" y="88.56734" style="fill: #1f77b4; stroke: #1f77b4"/>
     <use xlink:href="#md2674d494e" x="349.065408" y="88.257354" style="fill: #1f77b4; stroke: #1f77b4"/>
     <use xlink:href="#md2674d494e" x="350.696838" y="90.003477" style="fill: #1f77b4; stroke: #1f77b4"/>
     <use xlink:href="#md2674d494e" x="352.328268" y="89.205214" style="fill: #1f77b4; stroke: #1f77b4"/>
     <use xlink:href="#md2674d494e" x="353.959698" y="88.431833" style="fill: #1f77b4; stroke: #1f77b4"/>
     <use xlink:href="#md2674d494e" x="355.591128" y="87.933615" style="fill: #1f77b4; stroke: #1f77b4"/>
     <use xlink:href="#md2674d494e" x="357.222558" y="88.880128" style="fill: #1f77b4; stroke: #1f77b4"/>
     <use xlink:href="#md2674d494e" x="358.853988" y="88.710962" style="fill: #1f77b4; stroke: #1f77b4"/>
     <use xlink:href="#md2674d494e" x="360.485418" y="88.623758" style="fill: #1f77b4; stroke: #1f77b4"/>
     <use xlink:href="#md2674d494e" x="362.116847" y="87.883936" style="fill: #1f77b4; stroke: #1f77b4"/>
     <use xlink:href="#md2674d494e" x="363.748277" y="88.757005" style="fill: #1f77b4; stroke: #1f77b4"/>
     <use xlink:href="#md2674d494e" x="365.379707" y="88.299805" style="fill: #1f77b4; stroke: #1f77b4"/>
     <use xlink:href="#md2674d494e" x="367.011137" y="88.092862" style="fill: #1f77b4; stroke: #1f77b4"/>
     <use xlink:href="#md2674d494e" x="368.642567" y="88.27184" style="fill: #1f77b4; stroke: #1f77b4"/>
     <use xlink:href="#md2674d494e" x="370.273997" y="87.951093" style="fill: #1f77b4; stroke: #1f77b4"/>
     <use xlink:href="#md2674d494e" x="371.905427" y="88.658881" style="fill: #1f77b4; stroke: #1f77b4"/>
     <use xlink:href="#md2674d494e" x="373.536857" y="88.158165" style="fill: #1f77b4; stroke: #1f77b4"/>
     <use xlink:href="#md2674d494e" x="375.168286" y="87.887126" style="fill: #1f77b4; stroke: #1f77b4"/>
     <use xlink:href="#md2674d494e" x="376.799716" y="87.067141" style="fill: #1f77b4; stroke: #1f77b4"/>
     <use xlink:href="#md2674d494e" x="378.431146" y="88.112865" style="fill: #1f77b4; stroke: #1f77b4"/>
     <use xlink:href="#md2674d494e" x="380.062576" y="87.619931" style="fill: #1f77b4; stroke: #1f77b4"/>
     <use xlink:href="#md2674d494e" x="381.694006" y="87.539207" style="fill: #1f77b4; stroke: #1f77b4"/>
     <use xlink:href="#md2674d494e" x="383.325436" y="87.537839" style="fill: #1f77b4; stroke: #1f77b4"/>
     <use xlink:href="#md2674d494e" x="384.956866" y="86.558686" style="fill: #1f77b4; stroke: #1f77b4"/>
     <use xlink:href="#md2674d494e" x="386.588296" y="87.133393" style="fill: #1f77b4; stroke: #1f77b4"/>
     <use xlink:href="#md2674d494e" x="388.219725" y="87.778585" style="fill: #1f77b4; stroke: #1f77b4"/>
     <use xlink:href="#md2674d494e" x="389.851155" y="87.859561" style="fill: #1f77b4; stroke: #1f77b4"/>
     <use xlink:href="#md2674d494e" x="391.482585" y="87.688147" style="fill: #1f77b4; stroke: #1f77b4"/>
    </g>
   </g>
   <g id="line2d_14">
    <path d="M 66.82804 47.258182 
L 81.777098 55.338444 
L 97.051136 63.85189 
L 112.650153 72.801158 
L 129.549088 82.759315 
L 148.72288 94.327562 
L 195.844911 122.908177 
L 205.269317 128.264773 
L 212.743846 132.25738 
L 218.918457 135.303925 
L 224.11813 137.630389 
L 228.667843 139.437708 
L 232.892577 140.883581 
L 236.792331 141.985015 
L 240.367106 142.771075 
L 243.941881 143.321079 
L 247.191676 143.601504 
L 250.441471 143.663627 
L 253.691267 143.503696 
L 256.941062 143.123336 
L 260.190857 142.529274 
L 263.765632 141.642224 
L 267.340407 140.528931 
L 271.240161 139.081695 
L 275.464895 137.272377 
L 280.014608 135.082448 
L 285.214281 132.322897 
L 291.063912 128.951437 
L 297.563503 124.942203 
L 305.038032 120.066674 
L 313.812479 114.071436 
L 324.211824 106.690607 
L 337.211005 97.176917 
L 354.10994 84.51444 
L 383.033118 62.51326 
L 391.482585 56.075934 
L 391.482585 56.075934 
" clip-path="url(#paf638568d8)" style="fill: none; stroke: #d62728; stroke-width: 1.5; stroke-linecap: square"/>
   </g>
   <g id="patch_3">
    <path d="M 50.595313 162.72 
L 50.595313 41.76 
" style="fill: none; stroke: #000000; stroke-width: 0.8; stroke-linejoin: miter; stroke-linecap: square"/>
   </g>
   <g id="patch_4">
    <path d="M 407.715312 162.72 
L 407.715312 41.76 
" style="fill: none; stroke: #000000; stroke-width: 0.8; stroke-linejoin: miter; stroke-linecap: square"/>
   </g>
   <g id="patch_5">
    <path d="M 50.595313 162.72 
L 407.715313 162.72 
" style="fill: none; stroke: #000000; stroke-width: 0.8; stroke-linejoin: miter; stroke-linecap: square"/>
   </g>
   <g id="patch_6">
    <path d="M 50.595313 41.76 
L 407.715313 41.76 
" style="fill: none; stroke: #000000; stroke-width: 0.8; stroke-linejoin: miter; stroke-linecap: square"/>
   </g>
   <g id="text_7">
    <g id="patch_7">
     <path d="M 425.571312 72.683938 
L 585.679125 72.683938 
Q 589.679125 72.683938 589.679125 68.683938 
L 589.679125 47.808 
Q 589.679125 43.808 585.679125 43.808 
L 425.571312 43.808 
Q 421.571312 43.808 421.571312 47.808 
L 421.571312 68.683938 
Q 421.571312 72.683938 425.571312 72.683938 
z
" style="fill: #ffffff; opacity: 0.5; stroke: #000000; stroke-linejoin: miter"/>
    </g>
    <!-- Warning: fit failed. lmfit was not -->
    <g transform="translate(425.571312 55.406437) scale(0.1 -0.1)">
     <defs>
      <path id="DejaVuSans-57" d="M 213 4666 
L 850 4666 
L 1831 722 
L 2809 4666 
L 3519 4666 
L 4500 722 
L 5478 4666 
L 6119 4666 
L 4947 0 
L 4153 0 
L 3169 4050 
L 2175 0 
L 1381 0 
L 213 4666 
z
" transform="scale(0.015625)"/>
      <path id="DejaVuSans-61" d="M 2194 1759 
Q 1497 1759 1228 1600 
Q 959 1441 959 1056 
Q 959 750 1161 570 
Q 1363 391 1709 391 
Q 2188 391 2477 730 
Q 2766 1069 2766 1631 
L 2766 1759 
L 2194 1759 
z
M 3341 1997 
L 3341 0 
L 2766 0 
L 2766 531 
Q 2569 213 2275 61 
Q 1981 -91 1556 -91 
Q 1019 -91 701 211 
Q 384 513 384 1019 
Q 384 1609 779 1909 
Q 1175 2209 1959 2209 
L 2766 2209 
L 2766 2266 
Q 2766 2663 2505 2880 
Q 2244 3097 1772 3097 
Q 1472 3097 1187 3025 
Q 903 2953 641 2809 
L 641 3341 
Q 956 3463 1253 3523 
Q 1550 3584 1831 3584 
Q 2591 3584 2966 3190 
Q 3341 2797 3341 1997 
z
" transform="scale(0.015625)"/>
      <path id="DejaVuSans-72" d="M 2631 2963 
Q 2534 3019 2420 3045 
Q 2306 3072 2169 3072 
Q 1681 3072 1420 2755 
Q 1159 2438 1159 1844 
L 1159 0 
L 581 0 
L 581 3500 
L 1159 3500 
L 1159 2956 
Q 1341 3275 1631 3429 
Q 1922 3584 2338 3584 
Q 2397 3584 2469 3576 
Q 2541 3569 2628 3553 
L 2631 2963 
z
" transform="scale(0.015625)"/>
      <path id="DejaVuSans-6e" d="M 3513 2113 
L 3513 0 
L 2938 0 
L 2938 2094 
Q 2938 2591 2744 2837 
Q 2550 3084 2163 3084 
Q 1697 3084 1428 2787 
Q 1159 2491 1159 1978 
L 1159 0 
L 581 0 
L 581 3500 
L 1159 3500 
L 1159 2956 
Q 1366 3272 1645 3428 
Q 1925 3584 2291 3584 
Q 2894 3584 3203 3211 
Q 3513 2838 3513 2113 
z
" transform="scale(0.015625)"/>
      <path id="DejaVuSans-69" d="M 603 3500 
L 1178 3500 
L 1178 0 
L 603 0 
L 603 3500 
z
M 603 4863 
L 1178 4863 
L 1178 4134 
L 603 4134 
L 603 4863 
z
" transform="scale(0.015625)"/>
      <path id="DejaVuSans-67" d="M 2906 1791 
Q 2906 2416 2648 2759 
Q 2391 3103 1925 3103 
Q 1463 3103 1205 2759 
Q 947 2416 947 1791 
Q 947 1169 1205 825 
Q 1463 481 1925 481 
Q 2391 481 2648 825 
Q 2906 1169 2906 1791 
z
M 3481 434 
Q 3481 -459 3084 -895 
Q 2688 -1331 1869 -1331 
Q 1566 -1331 1297 -1286 
Q 1028 -1241 775 -1147 
L 775 -588 
Q 1028 -725 1275 -790 
Q 1522 -856 1778 -856 
Q 2344 -856 2625 -561 
Q 2906 -266 2906 331 
L 2906 616 
Q 2728 306 2450 153 
Q 2172 0 1784 0 
Q 1141 0 747 490 
Q 353 981 353 1791 
Q 353 2603 747 3093 
Q 1141 3584 1784 3584 
Q 2172 3584 2450 3431 
Q 2728 3278 2906 2969 
L 2906 3500 
L 3481 3500 
L 3481 434 
z
" transform="scale(0.015625)"/>
      <path id="DejaVuSans-3a" d="M 750 794 
L 1409 794 
L 1409 0 
L 750 0 
L 750 794 
z
M 750 3309 
L 1409 3309 
L 1409 2516 
L 750 2516 
L 750 3309 
z
" transform="scale(0.015625)"/>
      <path id="DejaVuSans-66" d="M 2375 4863 
L 2375 4384 
L 1825 4384 
Q 1516 4384 1395 4259 
Q 1275 4134 1275 3809 
L 1275 3500 
L 2222 3500 
L 2222 3053 
L 1275 3053 
L 1275 0 
L 697 0 
L 697 3053 
L 147 3053 
L 147 3500 
L 697 3500 
L 697 3744 
Q 697 4328 969 4595 
Q 1241 4863 1831 4863 
L 2375 4863 
z
" transform="scale(0.015625)"/>
      <path id="DejaVuSans-74" d="M 1172 4494 
L 1172 3500 
L 2356 3500 
L 2356 3053 
L 1172 3053 
L 1172 1153 
Q 1172 725 1289 603 
Q 1406 481 1766 481 
L 2356 481 
L 2356 0 
L 1766 0 
Q 1100 0 847 248 
Q 594 497 594 1153 
L 594 3053 
L 172 3053 
L 172 3500 
L 594 3500 
L 594 4494 
L 1172 4494 
z
" transform="scale(0.015625)"/>
      <path id="DejaVuSans-6c" d="M 603 4863 
L 1178 4863 
L 1178 0 
L 603 0 
L 603 4863 
z
" transform="scale(0.015625)"/>
      <path id="DejaVuSans-65" d="M 3597 1894 
L 3597 1613 
L 953 1613 
Q 991 1019 1311 708 
Q 1631 397 2203 397 
Q 2534 397 2845 478 
Q 3156 559 3463 722 
L 3463 178 
Q 3153 47 2828 -22 
Q 2503 -91 2169 -91 
Q 1331 -91 842 396 
Q 353 884 353 1716 
Q 353 2575 817 3079 
Q 1281 3584 2069 3584 
Q 2775 3584 3186 3129 
Q 3597 2675 3597 1894 
z
M 3022 2063 
Q 3016 2534 2758 2815 
Q 2500 3097 2075 3097 
Q 1594 3097 1305 2825 
Q 1016 2553 972 2059 
L 3022 2063 
z
" transform="scale(0.015625)"/>
      <path id="DejaVuSans-64" d="M 2906 2969 
L 2906 4863 
L 3481 4863 
L 3481 0 
L 2906 0 
L 2906 525 
Q 2725 213 2448 61 
Q 2172 -91 1784 -91 
Q 1150 -91 751 415 
Q 353 922 353 1747 
Q 353 2572 751 3078 
Q 1150 3584 1784 3584 
Q 2172 3584 2448 3432 
Q 2725 3281 2906 2969 
z
M 947 1747 
Q 947 1113 1208 752 
Q 1469 391 1925 391 
Q 2381 391 2643 752 
Q 2906 1113 2906 1747 
Q 2906 2381 2643 2742 
Q 2381 3103 1925 3103 
Q 1469 3103 1208 2742 
Q 947 2381 947 1747 
z
" transform="scale(0.015625)"/>
      <path id="DejaVuSans-77" d="M 269 3500 
L 844 3500 
L 1563 769 
L 2278 3500 
L 2956 3500 
L 3675 769 
L 4391 3500 
L 4966 3500 
L 4050 0 
L 3372 0 
L 2619 2869 
L 1863 0 
L 1184 0 
L 269 3500 
z
" transform="scale(0.015625)"/>
      <path id="DejaVuSans-73" d="M 2834 3397 
L 2834 2853 
Q 2591 2978 2328 3040 
Q 2066 3103 1784 3103 
Q 1356 3103 1142 2972 
Q 928 2841 928 2578 
Q 928 2378 1081 2264 
Q 1234 2150 1697 2047 
L 1894 2003 
Q 2506 1872 2764 1633 
Q 3022 1394 3022 966 
Q 3022 478 2636 193 
Q 2250 -91 1575 -91 
Q 1294 -91 989 -36 
Q 684 19 347 128 
L 347 722 
Q 666 556 975 473 
Q 1284 391 1588 391 
Q 1994 391 2212 530 
Q 2431 669 2431 922 
Q 2431 1156 2273 1281 
Q 2116 1406 1581 1522 
L 1381 1569 
Q 847 1681 609 1914 
Q 372 2147 372 2553 
Q 372 3047 722 3315 
Q 1072 3584 1716 3584 
Q 2034 3584 2315 3537 
Q 2597 3491 2834 3397 
z
" transform="scale(0.015625)"/>
      <path id="DejaVuSans-6f" d="M 1959 3097 
Q 1497 3097 1228 2736 
Q 959 2375 959 1747 
Q 959 1119 1226 758 
Q 1494 397 1959 397 
Q 2419 397 2687 759 
Q 2956 1122 2956 1747 
Q 2956 2369 2687 2733 
Q 2419 3097 1959 3097 
z
M 1959 3584 
Q 2709 3584 3137 3096 
Q 3566 2609 3566 1747 
Q 3566 888 3137 398 
Q 2709 -91 1959 -91 
Q 1206 -91 779 398 
Q 353 888 353 1747 
Q 353 2609 779 3096 
Q 1206 3584 1959 3584 
z
" transform="scale(0.015625)"/>
     </defs>
     <use xlink:href="#DejaVuSans-57"/>
     <use xlink:href="#DejaVuSans-61" x="92.501953"/>
     <use xlink:href="#DejaVuSans-72" x="153.78125"/>
     <use xlink:href="#DejaVuSans-6e" x="193.144531"/>
     <use xlink:href="#DejaVuSans-69" x="256.523438"/>
     <use xlink:href="#DejaVuSans-6e" x="284.306641"/>
     <use xlink:href="#DejaVuSans-67" x="347.685547"/>
     <use xlink:href="#DejaVuSans-3a" x="411.162109"/>
     <use xlink:href="#DejaVuSans-20" x="444.853516"/>
     <use xlink:href="#DejaVuSans-66" x="476.640625"/>
     <use xlink:href="#DejaVuSans-69" x="511.845703"/>
     <use xlink:href="#DejaVuSans-74" x="539.628906"/>
     <use xlink:href="#DejaVuSans-20" x="578.837891"/>
     <use xlink:href="#DejaVuSans-66" x="610.625"/>
     <use xlink:href="#DejaVuSans-61" x="645.830078"/>
     <use xlink:href="#DejaVuSans-69" x="707.109375"/>
     <use xlink:href="#DejaVuSans-6c" x="734.892578"/>
     <use xlink:href="#DejaVuSans-65" x="762.675781"/>
     <use xlink:href="#DejaVuSans-64" x="824.199219"/>
     <use xlink:href="#DejaVuSans-2e" x="887.675781"/>
     <use xlink:href="#DejaVuSans-20" x="919.462891"/>
     <use xlink:href="#DejaVuSans-6c" x="951.25"/>
     <use xlink:href="#DejaVuSans-6d" x="979.033203"/>
     <use xlink:href="#DejaVuSans-66" x="1076.445312"/>
     <use xlink:href="#DejaVuSans-69" x="1111.650391"/>
     <use xlink:href="#DejaVuSans-74" x="1139.433594"/>
     <use xlink:href="#DejaVuSans-20" x="1178.642578"/>
     <use xlink:href="#DejaVuSans-77" x="1210.429688"/>
     <use xlink:href="#DejaVuSans-61" x="1292.216797"/>
     <use xlink:href="#DejaVuSans-73" x="1353.496094"/>
     <use xlink:href="#DejaVuSans-20" x="1405.595703"/>
     <use xlink:href="#DejaVuSans-6e" x="1437.382812"/>
     <use xlink:href="#DejaVuSans-6f" x="1500.761719"/>
     <use xlink:href="#DejaVuSans-74" x="1561.943359"/>
    </g>
    <!-- able to fit the data. -->
    <g transform="translate(425.571312 66.60425) scale(0.1 -0.1)">
     <defs>
      <path id="DejaVuSans-62" d="M 3116 1747 
Q 3116 2381 2855 2742 
Q 2594 3103 2138 3103 
Q 1681 3103 1420 2742 
Q 1159 2381 1159 1747 
Q 1159 1113 1420 752 
Q 1681 391 2138 391 
Q 2594 391 2855 752 
Q 3116 1113 3116 1747 
z
M 1159 2969 
Q 1341 3281 1617 3432 
Q 1894 3584 2278 3584 
Q 2916 3584 3314 3078 
Q 3713 2572 3713 1747 
Q 3713 922 3314 415 
Q 2916 -91 2278 -91 
Q 1894 -91 1617 61 
Q 1341 213 1159 525 
L 1159 0 
L 581 0 
L 581 4863 
L 1159 4863 
L 1159 2969 
z
" transform="scale(0.015625)"/>
      <path id="DejaVuSans-68" d="M 3513 2113 
L 3513 0 
L 2938 0 
L 2938 2094 
Q 2938 2591 2744 2837 
Q 2550 3084 2163 3084 
Q 1697 3084 1428 2787 
Q 1159 2491 1159 1978 
L 1159 0 
L 581 0 
L 581 4863 
L 1159 4863 
L 1159 2956 
Q 1366 3272 1645 3428 
Q 1925 3584 2291 3584 
Q 2894 3584 3203 3211 
Q 3513 2838 3513 2113 
z
" transform="scale(0.015625)"/>
     </defs>
     <use xlink:href="#DejaVuSans-61"/>
     <use xlink:href="#DejaVuSans-62" x="61.279297"/>
     <use xlink:href="#DejaVuSans-6c" x="124.755859"/>
     <use xlink:href="#DejaVuSans-65" x="152.539062"/>
     <use xlink:href="#DejaVuSans-20" x="214.0625"/>
     <use xlink:href="#DejaVuSans-74" x="245.849609"/>
     <use xlink:href="#DejaVuSans-6f" x="285.058594"/>
     <use xlink:href="#DejaVuSans-20" x="346.240234"/>
     <use xlink:href="#DejaVuSans-66" x="378.027344"/>
     <use xlink:href="#DejaVuSans-69" x="413.232422"/>
     <use xlink:href="#DejaVuSans-74" x="441.015625"/>
     <use xlink:href="#DejaVuSans-20" x="480.224609"/>
     <use xlink:href="#DejaVuSans-74" x="512.011719"/>
     <use xlink:href="#DejaVuSans-68" x="551.220703"/>
     <use xlink:href="#DejaVuSans-65" x="614.599609"/>
     <use xlink:href="#DejaVuSans-20" x="676.123047"/>
     <use xlink:href="#DejaVuSans-64" x="707.910156"/>
     <use xlink:href="#DejaVuSans-61" x="771.386719"/>
     <use xlink:href="#DejaVuSans-74" x="832.666016"/>
     <use xlink:href="#DejaVuSans-61" x="871.875"/>
     <use xlink:href="#DejaVuSans-2e" x="933.154297"/>
    </g>
   </g>
  </g>
  <g id="axes_2">
   <g id="patch_8">
    <path d="M 50.595313 307.872 
L 407.715312 307.872 
L 407.715312 186.912 
L 50.595313 186.912 
z
" style="fill: #ffffff"/>
   </g>
   <g id="matplotlib.axis_3">
    <g id="xtick_8">
     <g id="line2d_15">
      <g>
       <use xlink:href="#m7034b6db56" x="77.649858" y="307.872" style="stroke: #000000; stroke-width: 0.8"/>
      </g>
     </g>
     <g id="text_8">
      <!-- -10 -->
      <g transform="translate(69.483452 322.470438) scale(0.1 -0.1)">
       <defs>
        <path id="DejaVuSans-2d" d="M 313 2009 
L 1997 2009 
L 1997 1497 
L 313 1497 
L 313 2009 
z
" transform="scale(0.015625)"/>
       </defs>
       <use xlink:href="#DejaVuSans-2d"/>
       <use xlink:href="#DejaVuSans-31" x="36.083984"/>
       <use xlink:href="#DejaVuSans-30" x="99.707031"/>
      </g>
     </g>
    </g>
    <g id="xtick_9">
     <g id="line2d_16">
      <g>
       <use xlink:href="#m7034b6db56" x="131.758949" y="307.872" style="stroke: #000000; stroke-width: 0.8"/>
      </g>
     </g>
     <g id="text_9">
      <!-- -5 -->
      <g transform="translate(126.773793 322.470438) scale(0.1 -0.1)">
       <use xlink:href="#DejaVuSans-2d"/>
       <use xlink:href="#DejaVuSans-35" x="36.083984"/>
      </g>
     </g>
    </g>
    <g id="xtick_10">
     <g id="line2d_17">
      <g>
       <use xlink:href="#m7034b6db56" x="185.86804" y="307.872" style="stroke: #000000; stroke-width: 0.8"/>
      </g>
     </g>
     <g id="text_10">
      <!-- 0 -->
      <g transform="translate(182.68679 322.470438) scale(0.1 -0.1)">
       <use xlink:href="#DejaVuSans-30"/>
      </g>
     </g>
    </g>
    <g id="xtick_11">
     <g id="line2d_18">
      <g>
       <use xlink:href="#m7034b6db56" x="239.977131" y="307.872" style="stroke: #000000; stroke-width: 0.8"/>
      </g>
     </g>
     <g id="text_11">
      <!-- 5 -->
      <g transform="translate(236.795881 322.470438) scale(0.1 -0.1)">
       <use xlink:href="#DejaVuSans-35"/>
      </g>
     </g>
    </g>
    <g id="xtick_12">
     <g id="line2d_19">
      <g>
       <use xlink:href="#m7034b6db56" x="294.086222" y="307.872" style="stroke: #000000; stroke-width: 0.8"/>
      </g>
     </g>
     <g id="text_12">
      <!-- 10 -->
      <g transform="translate(287.723722 322.470438) scale(0.1 -0.1)">
       <use xlink:href="#DejaVuSans-31"/>
       <use xlink:href="#DejaVuSans-30" x="63.623047"/>
      </g>
     </g>
    </g>
    <g id="xtick_13">
     <g id="line2d_20">
      <g>
       <use xlink:href="#m7034b6db56" x="348.195313" y="307.872" style="stroke: #000000; stroke-width: 0.8"/>
      </g>
     </g>
     <g id="text_13">
      <!-- 15 -->
      <g transform="translate(341.832813 322.470438) scale(0.1 -0.1)">
       <use xlink:href="#DejaVuSans-31"/>
       <use xlink:href="#DejaVuSans-35" x="63.623047"/>
      </g>
     </g>
    </g>
    <g id="xtick_14">
     <g id="line2d_21">
      <g>
       <use xlink:href="#m7034b6db56" x="402.304403" y="307.872" style="stroke: #000000; stroke-width: 0.8"/>
      </g>
     </g>
     <g id="text_14">
      <!-- 20 -->
      <g transform="translate(395.941903 322.470438) scale(0.1 -0.1)">
       <use xlink:href="#DejaVuSans-32"/>
       <use xlink:href="#DejaVuSans-30" x="63.623047"/>
      </g>
     </g>
    </g>
    <g id="text_15">
     <!-- Frequency [MHz] -->
     <g transform="translate(187.136562 336.148562) scale(0.1 -0.1)">
      <defs>
       <path id="DejaVuSans-46" d="M 628 4666 
L 3309 4666 
L 3309 4134 
L 1259 4134 
L 1259 2759 
L 3109 2759 
L 3109 2228 
L 1259 2228 
L 1259 0 
L 628 0 
L 628 4666 
z
" transform="scale(0.015625)"/>
       <path id="DejaVuSans-71" d="M 947 1747 
Q 947 1113 1208 752 
Q 1469 391 1925 391 
Q 2381 391 2643 752 
Q 2906 1113 2906 1747 
Q 2906 2381 2643 2742 
Q 2381 3103 1925 3103 
Q 1469 3103 1208 2742 
Q 947 2381 947 1747 
z
M 2906 525 
Q 2725 213 2448 61 
Q 2172 -91 1784 -91 
Q 1150 -91 751 415 
Q 353 922 353 1747 
Q 353 2572 751 3078 
Q 1150 3584 1784 3584 
Q 2172 3584 2448 3432 
Q 2725 3281 2906 2969 
L 2906 3500 
L 3481 3500 
L 3481 -1331 
L 2906 -1331 
L 2906 525 
z
" transform="scale(0.015625)"/>
       <path id="DejaVuSans-75" d="M 544 1381 
L 544 3500 
L 1119 3500 
L 1119 1403 
Q 1119 906 1312 657 
Q 1506 409 1894 409 
Q 2359 409 2629 706 
Q 2900 1003 2900 1516 
L 2900 3500 
L 3475 3500 
L 3475 0 
L 2900 0 
L 2900 538 
Q 2691 219 2414 64 
Q 2138 -91 1772 -91 
Q 1169 -91 856 284 
Q 544 659 544 1381 
z
M 1991 3584 
L 1991 3584 
z
" transform="scale(0.015625)"/>
       <path id="DejaVuSans-63" d="M 3122 3366 
L 3122 2828 
Q 2878 2963 2633 3030 
Q 2388 3097 2138 3097 
Q 1578 3097 1268 2742 
Q 959 2388 959 1747 
Q 959 1106 1268 751 
Q 1578 397 2138 397 
Q 2388 397 2633 464 
Q 2878 531 3122 666 
L 3122 134 
Q 2881 22 2623 -34 
Q 2366 -91 2075 -91 
Q 1284 -91 818 406 
Q 353 903 353 1747 
Q 353 2603 823 3093 
Q 1294 3584 2113 3584 
Q 2378 3584 2631 3529 
Q 2884 3475 3122 3366 
z
" transform="scale(0.015625)"/>
       <path id="DejaVuSans-79" d="M 2059 -325 
Q 1816 -950 1584 -1140 
Q 1353 -1331 966 -1331 
L 506 -1331 
L 506 -850 
L 844 -850 
Q 1081 -850 1212 -737 
Q 1344 -625 1503 -206 
L 1606 56 
L 191 3500 
L 800 3500 
L 1894 763 
L 2988 3500 
L 3597 3500 
L 2059 -325 
z
" transform="scale(0.015625)"/>
       <path id="DejaVuSans-4d" d="M 628 4666 
L 1569 4666 
L 2759 1491 
L 3956 4666 
L 4897 4666 
L 4897 0 
L 4281 0 
L 4281 4097 
L 3078 897 
L 2444 897 
L 1241 4097 
L 1241 0 
L 628 0 
L 628 4666 
z
" transform="scale(0.015625)"/>
       <path id="DejaVuSans-48" d="M 628 4666 
L 1259 4666 
L 1259 2753 
L 3553 2753 
L 3553 4666 
L 4184 4666 
L 4184 0 
L 3553 0 
L 3553 2222 
L 1259 2222 
L 1259 0 
L 628 0 
L 628 4666 
z
" transform="scale(0.015625)"/>
       <path id="DejaVuSans-7a" d="M 353 3500 
L 3084 3500 
L 3084 2975 
L 922 459 
L 3084 459 
L 3084 0 
L 275 0 
L 275 525 
L 2438 3041 
L 353 3041 
L 353 3500 
z
" transform="scale(0.015625)"/>
      </defs>
      <use xlink:href="#DejaVuSans-46"/>
      <use xlink:href="#DejaVuSans-72" x="50.269531"/>
      <use xlink:href="#DejaVuSans-65" x="89.132812"/>
      <use xlink:href="#DejaVuSans-71" x="150.65625"/>
      <use xlink:href="#DejaVuSans-75" x="214.132812"/>
      <use xlink:href="#DejaVuSans-65" x="277.511719"/>
      <use xlink:href="#DejaVuSans-6e" x="339.035156"/>
      <use xlink:href="#DejaVuSans-63" x="402.414062"/>
      <use xlink:href="#DejaVuSans-79" x="457.394531"/>
      <use xlink:href="#DejaVuSans-20" x="516.574219"/>
      <use xlink:href="#DejaVuSans-5b" x="548.361328"/>
      <use xlink:href="#DejaVuSans-4d" x="587.375"/>
      <use xlink:href="#DejaVuSans-48" x="673.654297"/>
      <use xlink:href="#DejaVuSans-7a" x="748.849609"/>
      <use xlink:href="#DejaVuSans-5d" x="801.339844"/>
     </g>
    </g>
    <g id="text_16">
     <!-- +6 GHz -->
     <g transform="translate(369.277812 335.148562) scale(0.1 -0.1)">
      <defs>
       <path id="DejaVuSans-2b" d="M 2944 4013 
L 2944 2272 
L 4684 2272 
L 4684 1741 
L 2944 1741 
L 2944 0 
L 2419 0 
L 2419 1741 
L 678 1741 
L 678 2272 
L 2419 2272 
L 2419 4013 
L 2944 4013 
z
" transform="scale(0.015625)"/>
       <path id="DejaVuSans-36" d="M 2113 2584 
Q 1688 2584 1439 2293 
Q 1191 2003 1191 1497 
Q 1191 994 1439 701 
Q 1688 409 2113 409 
Q 2538 409 2786 701 
Q 3034 994 3034 1497 
Q 3034 2003 2786 2293 
Q 2538 2584 2113 2584 
z
M 3366 4563 
L 3366 3988 
Q 3128 4100 2886 4159 
Q 2644 4219 2406 4219 
Q 1781 4219 1451 3797 
Q 1122 3375 1075 2522 
Q 1259 2794 1537 2939 
Q 1816 3084 2150 3084 
Q 2853 3084 3261 2657 
Q 3669 2231 3669 1497 
Q 3669 778 3244 343 
Q 2819 -91 2113 -91 
Q 1303 -91 875 529 
Q 447 1150 447 2328 
Q 447 3434 972 4092 
Q 1497 4750 2381 4750 
Q 2619 4750 2861 4703 
Q 3103 4656 3366 4563 
z
" transform="scale(0.015625)"/>
       <path id="DejaVuSans-47" d="M 3809 666 
L 3809 1919 
L 2778 1919 
L 2778 2438 
L 4434 2438 
L 4434 434 
Q 4069 175 3628 42 
Q 3188 -91 2688 -91 
Q 1594 -91 976 548 
Q 359 1188 359 2328 
Q 359 3472 976 4111 
Q 1594 4750 2688 4750 
Q 3144 4750 3555 4637 
Q 3966 4525 4313 4306 
L 4313 3634 
Q 3963 3931 3569 4081 
Q 3175 4231 2741 4231 
Q 1884 4231 1454 3753 
Q 1025 3275 1025 2328 
Q 1025 1384 1454 906 
Q 1884 428 2741 428 
Q 3075 428 3337 486 
Q 3600 544 3809 666 
z
" transform="scale(0.015625)"/>
      </defs>
      <use xlink:href="#DejaVuSans-2b"/>
      <use xlink:href="#DejaVuSans-36" x="83.789062"/>
      <use xlink:href="#DejaVuSans-20" x="147.412109"/>
      <use xlink:href="#DejaVuSans-47" x="179.199219"/>
      <use xlink:href="#DejaVuSans-48" x="256.689453"/>
      <use xlink:href="#DejaVuSans-7a" x="331.884766"/>
     </g>
    </g>
   </g>
   <g id="matplotlib.axis_4">
    <g id="ytick_6">
     <g id="line2d_22">
      <g>
       <use xlink:href="#m77f22c1536" x="50.595313" y="278.002703" style="stroke: #000000; stroke-width: 0.8"/>
      </g>
     </g>
     <g id="text_17">
      <!-- -100 -->
      <g transform="translate(20.9 281.801921) scale(0.1 -0.1)">
       <use xlink:href="#DejaVuSans-2d"/>
       <use xlink:href="#DejaVuSans-31" x="36.083984"/>
       <use xlink:href="#DejaVuSans-30" x="99.707031"/>
       <use xlink:href="#DejaVuSans-30" x="163.330078"/>
      </g>
     </g>
    </g>
    <g id="ytick_7">
     <g id="line2d_23">
      <g>
       <use xlink:href="#m77f22c1536" x="50.595313" y="247.428145" style="stroke: #000000; stroke-width: 0.8"/>
      </g>
     </g>
     <g id="text_18">
      <!-- 0 -->
      <g transform="translate(37.232813 251.227364) scale(0.1 -0.1)">
       <use xlink:href="#DejaVuSans-30"/>
      </g>
     </g>
    </g>
    <g id="ytick_8">
     <g id="line2d_24">
      <g>
       <use xlink:href="#m77f22c1536" x="50.595313" y="216.853587" style="stroke: #000000; stroke-width: 0.8"/>
      </g>
     </g>
     <g id="text_19">
      <!-- 100 -->
      <g transform="translate(24.507813 220.652806) scale(0.1 -0.1)">
       <use xlink:href="#DejaVuSans-31"/>
       <use xlink:href="#DejaVuSans-30" x="63.623047"/>
       <use xlink:href="#DejaVuSans-30" x="127.246094"/>
      </g>
     </g>
    </g>
    <g id="text_20">
     <!-- $\angle S_{21}$ [deg] -->
     <g transform="translate(14.8 274.592) rotate(-90) scale(0.1 -0.1)">
      <defs>
       <path id="DejaVuSans-2220" d="M 5028 631 
L 5028 0 
L 547 0 
L 3525 4666 
L 4281 4666 
L 1716 631 
L 5028 631 
z
" transform="scale(0.015625)"/>
      </defs>
      <use xlink:href="#DejaVuSans-2220" transform="translate(0 0.015625)"/>
      <use xlink:href="#DejaVuSans-Oblique-53" transform="translate(89.648438 0.015625)"/>
      <use xlink:href="#DejaVuSans-32" transform="translate(153.125 -16.390625) scale(0.7)"/>
      <use xlink:href="#DejaVuSans-31" transform="translate(197.661133 -16.390625) scale(0.7)"/>
      <use xlink:href="#DejaVuSans-20" transform="translate(244.931641 0.015625)"/>
      <use xlink:href="#DejaVuSans-5b" transform="translate(276.71875 0.015625)"/>
      <use xlink:href="#DejaVuSans-64" transform="translate(315.732422 0.015625)"/>
      <use xlink:href="#DejaVuSans-65" transform="translate(379.208984 0.015625)"/>
      <use xlink:href="#DejaVuSans-67" transform="translate(440.732422 0.015625)"/>
      <use xlink:href="#DejaVuSans-5d" transform="translate(504.208984 0.015625)"/>
     </g>
    </g>
   </g>
   <g id="line2d_25">
    <path d="M 66.82804 198.814918 
L 68.45947 198.928122 
L 70.0909 199.280779 
L 71.722329 199.420186 
L 73.353759 199.83048 
L 74.985189 199.905743 
L 76.616619 200.374619 
L 78.248049 200.189233 
L 83.142339 201.193855 
L 84.773768 201.168167 
L 94.562348 202.673045 
L 97.825207 203.051843 
L 99.456637 203.486832 
L 107.613787 204.326286 
L 110.876646 204.918783 
L 112.508076 205.089413 
L 114.139506 205.457521 
L 115.770936 205.397803 
L 117.402366 205.748759 
L 119.033796 205.908783 
L 120.665226 205.956668 
L 123.928085 206.626944 
L 125.559515 206.782929 
L 130.453805 207.568087 
L 132.085235 207.545379 
L 133.716665 207.673154 
L 135.348095 208.322693 
L 136.979524 208.215918 
L 141.873814 208.913001 
L 150.030963 210.245847 
L 151.662393 210.297409 
L 153.293823 210.63109 
L 154.925253 210.810775 
L 156.556683 210.826603 
L 158.188113 211.198456 
L 169.608122 212.633735 
L 172.870982 213.200147 
L 174.502412 213.594324 
L 179.396701 213.962999 
L 181.028131 214.429282 
L 182.659561 214.52624 
L 187.553851 215.3982 
L 189.185281 215.445946 
L 190.81671 215.877271 
L 192.44814 215.962112 
L 194.07957 216.311905 
L 198.97386 216.877177 
L 200.60529 217.280869 
L 205.499579 217.999497 
L 207.131009 218.377437 
L 216.919588 219.768368 
L 218.551018 220.057996 
L 220.182448 220.093503 
L 221.813878 220.609877 
L 225.076738 221.142924 
L 228.339598 221.731065 
L 229.971027 300.709291 
L 231.602457 300.815157 
L 236.496747 302.373818 
L 238.128177 192.53486 
L 239.759607 193.131966 
L 241.391037 193.269138 
L 243.022466 194.045325 
L 244.653896 194.547362 
L 246.285326 195.337639 
L 247.916756 195.602089 
L 251.179616 196.833068 
L 257.705335 200.272047 
L 260.968195 202.315002 
L 262.599625 203.888497 
L 264.231055 205.205334 
L 267.493915 207.250896 
L 269.125344 207.967418 
L 270.756774 208.266137 
L 272.388204 206.47964 
L 274.019634 198.44335 
L 275.651064 296.682774 
L 277.282494 292.745363 
L 278.913924 291.547771 
L 280.545354 291.514306 
L 285.439643 293.777934 
L 288.702503 295.293835 
L 291.965363 297.04139 
L 298.491082 299.374925 
L 300.122512 299.632498 
L 303.385372 300.786674 
L 305.016802 300.952764 
L 306.648232 301.770072 
L 308.279662 302.215584 
L 309.911091 192.410182 
L 318.068241 194.175987 
L 321.331101 194.644929 
L 324.59396 195.470402 
L 331.11968 196.603278 
L 334.38254 197.296046 
L 337.645399 197.661448 
L 339.276829 197.977297 
L 340.908259 198.440532 
L 342.539689 198.473941 
L 349.065408 199.584546 
L 360.485418 201.412935 
L 362.116847 201.45113 
L 363.748277 201.889493 
L 365.379707 201.941412 
L 367.011137 202.336046 
L 368.642567 202.468854 
L 370.273997 202.840597 
L 371.905427 202.838344 
L 373.536857 203.198216 
L 375.168286 203.418287 
L 376.799716 203.822553 
L 378.431146 203.923781 
L 389.851155 205.469457 
L 391.482585 205.585663 
L 391.482585 205.585663 
" clip-path="url(#p58fc0a9009)" style="fill: none; stroke: #1f77b4; stroke-width: 1.5; stroke-linecap: square"/>
    <g clip-path="url(#p58fc0a9009)">
     <use xlink:href="#md2674d494e" x="66.82804" y="198.814918" style="fill: #1f77b4; stroke: #1f77b4"/>
     <use xlink:href="#md2674d494e" x="68.45947" y="198.928122" style="fill: #1f77b4; stroke: #1f77b4"/>
     <use xlink:href="#md2674d494e" x="70.0909" y="199.280779" style="fill: #1f77b4; stroke: #1f77b4"/>
     <use xlink:href="#md2674d494e" x="71.722329" y="199.420186" style="fill: #1f77b4; stroke: #1f77b4"/>
     <use xlink:href="#md2674d494e" x="73.353759" y="199.83048" style="fill: #1f77b4; stroke: #1f77b4"/>
     <use xlink:href="#md2674d494e" x="74.985189" y="199.905743" style="fill: #1f77b4; stroke: #1f77b4"/>
     <use xlink:href="#md2674d494e" x="76.616619" y="200.374619" style="fill: #1f77b4; stroke: #1f77b4"/>
     <use xlink:href="#md2674d494e" x="78.248049" y="200.189233" style="fill: #1f77b4; stroke: #1f77b4"/>
     <use xlink:href="#md2674d494e" x="79.879479" y="200.531127" style="fill: #1f77b4; stroke: #1f77b4"/>
     <use xlink:href="#md2674d494e" x="81.510909" y="200.83557" style="fill: #1f77b4; stroke: #1f77b4"/>
     <use xlink:href="#md2674d494e" x="83.142339" y="201.193855" style="fill: #1f77b4; stroke: #1f77b4"/>
     <use xlink:href="#md2674d494e" x="84.773768" y="201.168167" style="fill: #1f77b4; stroke: #1f77b4"/>
     <use xlink:href="#md2674d494e" x="86.405198" y="201.430725" style="fill: #1f77b4; stroke: #1f77b4"/>
     <use xlink:href="#md2674d494e" x="88.036628" y="201.616151" style="fill: #1f77b4; stroke: #1f77b4"/>
     <use xlink:href="#md2674d494e" x="89.668058" y="201.862415" style="fill: #1f77b4; stroke: #1f77b4"/>
     <use xlink:href="#md2674d494e" x="91.299488" y="202.23406" style="fill: #1f77b4; stroke: #1f77b4"/>
     <use xlink:href="#md2674d494e" x="92.930918" y="202.487918" style="fill: #1f77b4; stroke: #1f77b4"/>
     <use xlink:href="#md2674d494e" x="94.562348" y="202.673045" style="fill: #1f77b4; stroke: #1f77b4"/>
     <use xlink:href="#md2674d494e" x="96.193778" y="202.857995" style="fill: #1f77b4; stroke: #1f77b4"/>
     <use xlink:href="#md2674d494e" x="97.825207" y="203.051843" style="fill: #1f77b4; stroke: #1f77b4"/>
     <use xlink:href="#md2674d494e" x="99.456637" y="203.486832" style="fill: #1f77b4; stroke: #1f77b4"/>
     <use xlink:href="#md2674d494e" x="101.088067" y="203.649553" style="fill: #1f77b4; stroke: #1f77b4"/>
     <use xlink:href="#md2674d494e" x="102.719497" y="203.842039" style="fill: #1f77b4; stroke: #1f77b4"/>
     <use xlink:href="#md2674d494e" x="104.350927" y="203.975736" style="fill: #1f77b4; stroke: #1f77b4"/>
     <use xlink:href="#md2674d494e" x="105.982357" y="204.049336" style="fill: #1f77b4; stroke: #1f77b4"/>
     <use xlink:href="#md2674d494e" x="107.613787" y="204.326286" style="fill: #1f77b4; stroke: #1f77b4"/>
     <use xlink:href="#md2674d494e" x="109.245217" y="204.61936" style="fill: #1f77b4; stroke: #1f77b4"/>
     <use xlink:href="#md2674d494e" x="110.876646" y="204.918783" style="fill: #1f77b4; stroke: #1f77b4"/>
     <use xlink:href="#md2674d494e" x="112.508076" y="205.089413" style="fill: #1f77b4; stroke: #1f77b4"/>
     <use xlink:href="#md2674d494e" x="114.139506" y="205.457521" style="fill: #1f77b4; stroke: #1f77b4"/>
     <use xlink:href="#md2674d494e" x="115.770936" y="205.397803" style="fill: #1f77b4; stroke: #1f77b4"/>
     <use xlink:href="#md2674d494e" x="117.402366" y="205.748759" style="fill: #1f77b4; stroke: #1f77b4"/>
     <use xlink:href="#md2674d494e" x="119.033796" y="205.908783" style="fill: #1f77b4; stroke: #1f77b4"/>
     <use xlink:href="#md2674d494e" x="120.665226" y="205.956668" style="fill: #1f77b4; stroke: #1f77b4"/>
     <use xlink:href="#md2674d494e" x="122.296656" y="206.326622" style="fill: #1f77b4; stroke: #1f77b4"/>
     <use xlink:href="#md2674d494e" x="123.928085" y="206.626944" style="fill: #1f77b4; stroke: #1f77b4"/>
     <use xlink:href="#md2674d494e" x="125.559515" y="206.782929" style="fill: #1f77b4; stroke: #1f77b4"/>
     <use xlink:href="#md2674d494e" x="127.190945" y="207.067147" style="fill: #1f77b4; stroke: #1f77b4"/>
     <use xlink:href="#md2674d494e" x="128.822375" y="207.257246" style="fill: #1f77b4; stroke: #1f77b4"/>
     <use xlink:href="#md2674d494e" x="130.453805" y="207.568087" style="fill: #1f77b4; stroke: #1f77b4"/>
     <use xlink:href="#md2674d494e" x="132.085235" y="207.545379" style="fill: #1f77b4; stroke: #1f77b4"/>
     <use xlink:href="#md2674d494e" x="133.716665" y="207.673154" style="fill: #1f77b4; stroke: #1f77b4"/>
     <use xlink:href="#md2674d494e" x="135.348095" y="208.322693" style="fill: #1f77b4; stroke: #1f77b4"/>
     <use xlink:href="#md2674d494e" x="136.979524" y="208.215918" style="fill: #1f77b4; stroke: #1f77b4"/>
     <use xlink:href="#md2674d494e" x="138.610954" y="208.423164" style="fill: #1f77b4; stroke: #1f77b4"/>
     <use xlink:href="#md2674d494e" x="140.242384" y="208.667988" style="fill: #1f77b4; stroke: #1f77b4"/>
     <use xlink:href="#md2674d494e" x="141.873814" y="208.913001" style="fill: #1f77b4; stroke: #1f77b4"/>
     <use xlink:href="#md2674d494e" x="143.505244" y="209.191705" style="fill: #1f77b4; stroke: #1f77b4"/>
     <use xlink:href="#md2674d494e" x="145.136674" y="209.366013" style="fill: #1f77b4; stroke: #1f77b4"/>
     <use xlink:href="#md2674d494e" x="146.768104" y="209.754024" style="fill: #1f77b4; stroke: #1f77b4"/>
     <use xlink:href="#md2674d494e" x="148.399534" y="209.973004" style="fill: #1f77b4; stroke: #1f77b4"/>
     <use xlink:href="#md2674d494e" x="150.030963" y="210.245847" style="fill: #1f77b4; stroke: #1f77b4"/>
     <use xlink:href="#md2674d494e" x="151.662393" y="210.297409" style="fill: #1f77b4; stroke: #1f77b4"/>
     <use xlink:href="#md2674d494e" x="153.293823" y="210.63109" style="fill: #1f77b4; stroke: #1f77b4"/>
     <use xlink:href="#md2674d494e" x="154.925253" y="210.810775" style="fill: #1f77b4; stroke: #1f77b4"/>
     <use xlink:href="#md2674d494e" x="156.556683" y="210.826603" style="fill: #1f77b4; stroke: #1f77b4"/>
     <use xlink:href="#md2674d494e" x="158.188113" y="211.198456" style="fill: #1f77b4; stroke: #1f77b4"/>
     <use xlink:href="#md2674d494e" x="159.819543" y="211.396677" style="fill: #1f77b4; stroke: #1f77b4"/>
     <use xlink:href="#md2674d494e" x="161.450973" y="211.681838" style="fill: #1f77b4; stroke: #1f77b4"/>
     <use xlink:href="#md2674d494e" x="163.082402" y="211.704054" style="fill: #1f77b4; stroke: #1f77b4"/>
     <use xlink:href="#md2674d494e" x="164.713832" y="211.957103" style="fill: #1f77b4; stroke: #1f77b4"/>
     <use xlink:href="#md2674d494e" x="166.345262" y="212.208532" style="fill: #1f77b4; stroke: #1f77b4"/>
     <use xlink:href="#md2674d494e" x="167.976692" y="212.439722" style="fill: #1f77b4; stroke: #1f77b4"/>
     <use xlink:href="#md2674d494e" x="169.608122" y="212.633735" style="fill: #1f77b4; stroke: #1f77b4"/>
     <use xlink:href="#md2674d494e" x="171.239552" y="212.90712" style="fill: #1f77b4; stroke: #1f77b4"/>
     <use xlink:href="#md2674d494e" x="172.870982" y="213.200147" style="fill: #1f77b4; stroke: #1f77b4"/>
     <use xlink:href="#md2674d494e" x="174.502412" y="213.594324" style="fill: #1f77b4; stroke: #1f77b4"/>
     <use xlink:href="#md2674d494e" x="176.133842" y="213.730521" style="fill: #1f77b4; stroke: #1f77b4"/>
     <use xlink:href="#md2674d494e" x="177.765271" y="213.912258" style="fill: #1f77b4; stroke: #1f77b4"/>
     <use xlink:href="#md2674d494e" x="179.396701" y="213.962999" style="fill: #1f77b4; stroke: #1f77b4"/>
     <use xlink:href="#md2674d494e" x="181.028131" y="214.429282" style="fill: #1f77b4; stroke: #1f77b4"/>
     <use xlink:href="#md2674d494e" x="182.659561" y="214.52624" style="fill: #1f77b4; stroke: #1f77b4"/>
     <use xlink:href="#md2674d494e" x="184.290991" y="214.795237" style="fill: #1f77b4; stroke: #1f77b4"/>
     <use xlink:href="#md2674d494e" x="185.922421" y="215.035198" style="fill: #1f77b4; stroke: #1f77b4"/>
     <use xlink:href="#md2674d494e" x="187.553851" y="215.3982" style="fill: #1f77b4; stroke: #1f77b4"/>
     <use xlink:href="#md2674d494e" x="189.185281" y="215.445946" style="fill: #1f77b4; stroke: #1f77b4"/>
     <use xlink:href="#md2674d494e" x="190.81671" y="215.877271" style="fill: #1f77b4; stroke: #1f77b4"/>
     <use xlink:href="#md2674d494e" x="192.44814" y="215.962112" style="fill: #1f77b4; stroke: #1f77b4"/>
     <use xlink:href="#md2674d494e" x="194.07957" y="216.311905" style="fill: #1f77b4; stroke: #1f77b4"/>
     <use xlink:href="#md2674d494e" x="195.711" y="216.478303" style="fill: #1f77b4; stroke: #1f77b4"/>
     <use xlink:href="#md2674d494e" x="197.34243" y="216.661253" style="fill: #1f77b4; stroke: #1f77b4"/>
     <use xlink:href="#md2674d494e" x="198.97386" y="216.877177" style="fill: #1f77b4; stroke: #1f77b4"/>
     <use xlink:href="#md2674d494e" x="200.60529" y="217.280869" style="fill: #1f77b4; stroke: #1f77b4"/>
     <use xlink:href="#md2674d494e" x="202.23672" y="217.523425" style="fill: #1f77b4; stroke: #1f77b4"/>
     <use xlink:href="#md2674d494e" x="203.868149" y="217.742847" style="fill: #1f77b4; stroke: #1f77b4"/>
     <use xlink:href="#md2674d494e" x="205.499579" y="217.999497" style="fill: #1f77b4; stroke: #1f77b4"/>
     <use xlink:href="#md2674d494e" x="207.131009" y="218.377437" style="fill: #1f77b4; stroke: #1f77b4"/>
     <use xlink:href="#md2674d494e" x="208.762439" y="218.596903" style="fill: #1f77b4; stroke: #1f77b4"/>
     <use xlink:href="#md2674d494e" x="210.393869" y="218.816437" style="fill: #1f77b4; stroke: #1f77b4"/>
     <use xlink:href="#md2674d494e" x="212.025299" y="219.057913" style="fill: #1f77b4; stroke: #1f77b4"/>
     <use xlink:href="#md2674d494e" x="213.656729" y="219.302597" style="fill: #1f77b4; stroke: #1f77b4"/>
     <use xlink:href="#md2674d494e" x="215.288159" y="219.563424" style="fill: #1f77b4; stroke: #1f77b4"/>
     <use xlink:href="#md2674d494e" x="216.919588" y="219.768368" style="fill: #1f77b4; stroke: #1f77b4"/>
     <use xlink:href="#md2674d494e" x="218.551018" y="220.057996" style="fill: #1f77b4; stroke: #1f77b4"/>
     <use xlink:href="#md2674d494e" x="220.182448" y="220.093503" style="fill: #1f77b4; stroke: #1f77b4"/>
     <use xlink:href="#md2674d494e" x="221.813878" y="220.609877" style="fill: #1f77b4; stroke: #1f77b4"/>
     <use xlink:href="#md2674d494e" x="223.445308" y="220.830623" style="fill: #1f77b4; stroke: #1f77b4"/>
     <use xlink:href="#md2674d494e" x="225.076738" y="221.142924" style="fill: #1f77b4; stroke: #1f77b4"/>
     <use xlink:href="#md2674d494e" x="226.708168" y="221.455375" style="fill: #1f77b4; stroke: #1f77b4"/>
     <use xlink:href="#md2674d494e" x="228.339598" y="221.731065" style="fill: #1f77b4; stroke: #1f77b4"/>
     <use xlink:href="#md2674d494e" x="229.971027" y="300.709291" style="fill: #1f77b4; stroke: #1f77b4"/>
     <use xlink:href="#md2674d494e" x="231.602457" y="300.815157" style="fill: #1f77b4; stroke: #1f77b4"/>
     <use xlink:href="#md2674d494e" x="233.233887" y="301.3626" style="fill: #1f77b4; stroke: #1f77b4"/>
     <use xlink:href="#md2674d494e" x="234.865317" y="301.974981" style="fill: #1f77b4; stroke: #1f77b4"/>
     <use xlink:href="#md2674d494e" x="236.496747" y="302.373818" style="fill: #1f77b4; stroke: #1f77b4"/>
     <use xlink:href="#md2674d494e" x="238.128177" y="192.53486" style="fill: #1f77b4; stroke: #1f77b4"/>
     <use xlink:href="#md2674d494e" x="239.759607" y="193.131966" style="fill: #1f77b4; stroke: #1f77b4"/>
     <use xlink:href="#md2674d494e" x="241.391037" y="193.269138" style="fill: #1f77b4; stroke: #1f77b4"/>
     <use xlink:href="#md2674d494e" x="243.022466" y="194.045325" style="fill: #1f77b4; stroke: #1f77b4"/>
     <use xlink:href="#md2674d494e" x="244.653896" y="194.547362" style="fill: #1f77b4; stroke: #1f77b4"/>
     <use xlink:href="#md2674d494e" x="246.285326" y="195.337639" style="fill: #1f77b4; stroke: #1f77b4"/>
     <use xlink:href="#md2674d494e" x="247.916756" y="195.602089" style="fill: #1f77b4; stroke: #1f77b4"/>
     <use xlink:href="#md2674d494e" x="249.548186" y="196.188557" style="fill: #1f77b4; stroke: #1f77b4"/>
     <use xlink:href="#md2674d494e" x="251.179616" y="196.833068" style="fill: #1f77b4; stroke: #1f77b4"/>
     <use xlink:href="#md2674d494e" x="252.811046" y="197.688895" style="fill: #1f77b4; stroke: #1f77b4"/>
     <use xlink:href="#md2674d494e" x="254.442476" y="198.514323" style="fill: #1f77b4; stroke: #1f77b4"/>
     <use xlink:href="#md2674d494e" x="256.073905" y="199.343802" style="fill: #1f77b4; stroke: #1f77b4"/>
     <use xlink:href="#md2674d494e" x="257.705335" y="200.272047" style="fill: #1f77b4; stroke: #1f77b4"/>
     <use xlink:href="#md2674d494e" x="259.336765" y="201.332923" style="fill: #1f77b4; stroke: #1f77b4"/>
     <use xlink:href="#md2674d494e" x="260.968195" y="202.315002" style="fill: #1f77b4; stroke: #1f77b4"/>
     <use xlink:href="#md2674d494e" x="262.599625" y="203.888497" style="fill: #1f77b4; stroke: #1f77b4"/>
     <use xlink:href="#md2674d494e" x="264.231055" y="205.205334" style="fill: #1f77b4; stroke: #1f77b4"/>
     <use xlink:href="#md2674d494e" x="265.862485" y="206.225335" style="fill: #1f77b4; stroke: #1f77b4"/>
     <use xlink:href="#md2674d494e" x="267.493915" y="207.250896" style="fill: #1f77b4; stroke: #1f77b4"/>
     <use xlink:href="#md2674d494e" x="269.125344" y="207.967418" style="fill: #1f77b4; stroke: #1f77b4"/>
     <use xlink:href="#md2674d494e" x="270.756774" y="208.266137" style="fill: #1f77b4; stroke: #1f77b4"/>
     <use xlink:href="#md2674d494e" x="272.388204" y="206.47964" style="fill: #1f77b4; stroke: #1f77b4"/>
     <use xlink:href="#md2674d494e" x="274.019634" y="198.44335" style="fill: #1f77b4; stroke: #1f77b4"/>
     <use xlink:href="#md2674d494e" x="275.651064" y="296.682774" style="fill: #1f77b4; stroke: #1f77b4"/>
     <use xlink:href="#md2674d494e" x="277.282494" y="292.745363" style="fill: #1f77b4; stroke: #1f77b4"/>
     <use xlink:href="#md2674d494e" x="278.913924" y="291.547771" style="fill: #1f77b4; stroke: #1f77b4"/>
     <use xlink:href="#md2674d494e" x="280.545354" y="291.514306" style="fill: #1f77b4; stroke: #1f77b4"/>
     <use xlink:href="#md2674d494e" x="282.176783" y="292.23515" style="fill: #1f77b4; stroke: #1f77b4"/>
     <use xlink:href="#md2674d494e" x="283.808213" y="292.936964" style="fill: #1f77b4; stroke: #1f77b4"/>
     <use xlink:href="#md2674d494e" x="285.439643" y="293.777934" style="fill: #1f77b4; stroke: #1f77b4"/>
     <use xlink:href="#md2674d494e" x="287.071073" y="294.52907" style="fill: #1f77b4; stroke: #1f77b4"/>
     <use xlink:href="#md2674d494e" x="288.702503" y="295.293835" style="fill: #1f77b4; stroke: #1f77b4"/>
     <use xlink:href="#md2674d494e" x="290.333933" y="296.201373" style="fill: #1f77b4; stroke: #1f77b4"/>
     <use xlink:href="#md2674d494e" x="291.965363" y="297.04139" style="fill: #1f77b4; stroke: #1f77b4"/>
     <use xlink:href="#md2674d494e" x="293.596793" y="297.603849" style="fill: #1f77b4; stroke: #1f77b4"/>
     <use xlink:href="#md2674d494e" x="295.228223" y="298.069464" style="fill: #1f77b4; stroke: #1f77b4"/>
     <use xlink:href="#md2674d494e" x="296.859652" y="298.727817" style="fill: #1f77b4; stroke: #1f77b4"/>
     <use xlink:href="#md2674d494e" x="298.491082" y="299.374925" style="fill: #1f77b4; stroke: #1f77b4"/>
     <use xlink:href="#md2674d494e" x="300.122512" y="299.632498" style="fill: #1f77b4; stroke: #1f77b4"/>
     <use xlink:href="#md2674d494e" x="301.753942" y="300.235815" style="fill: #1f77b4; stroke: #1f77b4"/>
     <use xlink:href="#md2674d494e" x="303.385372" y="300.786674" style="fill: #1f77b4; stroke: #1f77b4"/>
     <use xlink:href="#md2674d494e" x="305.016802" y="300.952764" style="fill: #1f77b4; stroke: #1f77b4"/>
     <use xlink:href="#md2674d494e" x="306.648232" y="301.770072" style="fill: #1f77b4; stroke: #1f77b4"/>
     <use xlink:href="#md2674d494e" x="308.279662" y="302.215584" style="fill: #1f77b4; stroke: #1f77b4"/>
     <use xlink:href="#md2674d494e" x="309.911091" y="192.410182" style="fill: #1f77b4; stroke: #1f77b4"/>
     <use xlink:href="#md2674d494e" x="311.542521" y="192.768545" style="fill: #1f77b4; stroke: #1f77b4"/>
     <use xlink:href="#md2674d494e" x="313.173951" y="193.157378" style="fill: #1f77b4; stroke: #1f77b4"/>
     <use xlink:href="#md2674d494e" x="314.805381" y="193.49213" style="fill: #1f77b4; stroke: #1f77b4"/>
     <use xlink:href="#md2674d494e" x="316.436811" y="193.848016" style="fill: #1f77b4; stroke: #1f77b4"/>
     <use xlink:href="#md2674d494e" x="318.068241" y="194.175987" style="fill: #1f77b4; stroke: #1f77b4"/>
     <use xlink:href="#md2674d494e" x="319.699671" y="194.408283" style="fill: #1f77b4; stroke: #1f77b4"/>
     <use xlink:href="#md2674d494e" x="321.331101" y="194.644929" style="fill: #1f77b4; stroke: #1f77b4"/>
     <use xlink:href="#md2674d494e" x="322.96253" y="195.068718" style="fill: #1f77b4; stroke: #1f77b4"/>
     <use xlink:href="#md2674d494e" x="324.59396" y="195.470402" style="fill: #1f77b4; stroke: #1f77b4"/>
     <use xlink:href="#md2674d494e" x="326.22539" y="195.726092" style="fill: #1f77b4; stroke: #1f77b4"/>
     <use xlink:href="#md2674d494e" x="327.85682" y="196.044436" style="fill: #1f77b4; stroke: #1f77b4"/>
     <use xlink:href="#md2674d494e" x="329.48825" y="196.16429" style="fill: #1f77b4; stroke: #1f77b4"/>
     <use xlink:href="#md2674d494e" x="331.11968" y="196.603278" style="fill: #1f77b4; stroke: #1f77b4"/>
     <use xlink:href="#md2674d494e" x="332.75111" y="196.99987" style="fill: #1f77b4; stroke: #1f77b4"/>
     <use xlink:href="#md2674d494e" x="334.38254" y="197.296046" style="fill: #1f77b4; stroke: #1f77b4"/>
     <use xlink:href="#md2674d494e" x="336.013969" y="197.462452" style="fill: #1f77b4; stroke: #1f77b4"/>
     <use xlink:href="#md2674d494e" x="337.645399" y="197.661448" style="fill: #1f77b4; stroke: #1f77b4"/>
     <use xlink:href="#md2674d494e" x="339.276829" y="197.977297" style="fill: #1f77b4; stroke: #1f77b4"/>
     <use xlink:href="#md2674d494e" x="340.908259" y="198.440532" style="fill: #1f77b4; stroke: #1f77b4"/>
     <use xlink:href="#md2674d494e" x="342.539689" y="198.473941" style="fill: #1f77b4; stroke: #1f77b4"/>
     <use xlink:href="#md2674d494e" x="344.171119" y="198.776791" style="fill: #1f77b4; stroke: #1f77b4"/>
     <use xlink:href="#md2674d494e" x="345.802549" y="199.045874" style="fill: #1f77b4; stroke: #1f77b4"/>
     <use xlink:href="#md2674d494e" x="347.433979" y="199.406647" style="fill: #1f77b4; stroke: #1f77b4"/>
     <use xlink:href="#md2674d494e" x="349.065408" y="199.584546" style="fill: #1f77b4; stroke: #1f77b4"/>
     <use xlink:href="#md2674d494e" x="350.696838" y="199.845511" style="fill: #1f77b4; stroke: #1f77b4"/>
     <use xlink:href="#md2674d494e" x="352.328268" y="200.04344" style="fill: #1f77b4; stroke: #1f77b4"/>
     <use xlink:href="#md2674d494e" x="353.959698" y="200.280359" style="fill: #1f77b4; stroke: #1f77b4"/>
     <use xlink:href="#md2674d494e" x="355.591128" y="200.533706" style="fill: #1f77b4; stroke: #1f77b4"/>
     <use xlink:href="#md2674d494e" x="357.222558" y="200.882089" style="fill: #1f77b4; stroke: #1f77b4"/>
     <use xlink:href="#md2674d494e" x="358.853988" y="201.0952" style="fill: #1f77b4; stroke: #1f77b4"/>
     <use xlink:href="#md2674d494e" x="360.485418" y="201.412935" style="fill: #1f77b4; stroke: #1f77b4"/>
     <use xlink:href="#md2674d494e" x="362.116847" y="201.45113" style="fill: #1f77b4; stroke: #1f77b4"/>
     <use xlink:href="#md2674d494e" x="363.748277" y="201.889493" style="fill: #1f77b4; stroke: #1f77b4"/>
     <use xlink:href="#md2674d494e" x="365.379707" y="201.941412" style="fill: #1f77b4; stroke: #1f77b4"/>
     <use xlink:href="#md2674d494e" x="367.011137" y="202.336046" style="fill: #1f77b4; stroke: #1f77b4"/>
     <use xlink:href="#md2674d494e" x="368.642567" y="202.468854" style="fill: #1f77b4; stroke: #1f77b4"/>
     <use xlink:href="#md2674d494e" x="370.273997" y="202.840597" style="fill: #1f77b4; stroke: #1f77b4"/>
     <use xlink:href="#md2674d494e" x="371.905427" y="202.838344" style="fill: #1f77b4; stroke: #1f77b4"/>
     <use xlink:href="#md2674d494e" x="373.536857" y="203.198216" style="fill: #1f77b4; stroke: #1f77b4"/>
     <use xlink:href="#md2674d494e" x="375.168286" y="203.418287" style="fill: #1f77b4; stroke: #1f77b4"/>
     <use xlink:href="#md2674d494e" x="376.799716" y="203.822553" style="fill: #1f77b4; stroke: #1f77b4"/>
     <use xlink:href="#md2674d494e" x="378.431146" y="203.923781" style="fill: #1f77b4; stroke: #1f77b4"/>
     <use xlink:href="#md2674d494e" x="380.062576" y="204.149644" style="fill: #1f77b4; stroke: #1f77b4"/>
     <use xlink:href="#md2674d494e" x="381.694006" y="204.403331" style="fill: #1f77b4; stroke: #1f77b4"/>
     <use xlink:href="#md2674d494e" x="383.325436" y="204.572847" style="fill: #1f77b4; stroke: #1f77b4"/>
     <use xlink:href="#md2674d494e" x="384.956866" y="204.865993" style="fill: #1f77b4; stroke: #1f77b4"/>
     <use xlink:href="#md2674d494e" x="386.588296" y="205.029255" style="fill: #1f77b4; stroke: #1f77b4"/>
     <use xlink:href="#md2674d494e" x="388.219725" y="205.257573" style="fill: #1f77b4; stroke: #1f77b4"/>
     <use xlink:href="#md2674d494e" x="389.851155" y="205.469457" style="fill: #1f77b4; stroke: #1f77b4"/>
     <use xlink:href="#md2674d494e" x="391.482585" y="205.585663" style="fill: #1f77b4; stroke: #1f77b4"/>
    </g>
   </g>
   <g id="line2d_26">
    <path d="M 66.82804 197.378112 
L 101.925828 202.481326 
L 126.949252 205.904486 
L 146.123044 208.310429 
L 161.397082 210.008622 
L 173.746303 211.166691 
L 184.145648 211.926605 
L 192.920095 212.355899 
L 200.719604 212.519902 
L 207.544174 212.446476 
L 213.718785 212.16206 
L 219.243437 211.696415 
L 224.443109 211.047629 
L 229.642782 210.173652 
L 234.842454 209.066278 
L 240.367106 207.650078 
L 247.191676 205.644925 
L 261.165796 201.456898 
L 266.690448 200.075309 
L 271.89012 199.006181 
L 277.089792 198.17224 
L 282.289465 197.563049 
L 287.814117 197.137843 
L 293.988728 196.896328 
L 300.488318 196.864325 
L 307.962847 197.055023 
L 316.412315 197.500831 
L 326.161701 198.246728 
L 337.535984 199.349474 
L 350.860145 200.871067 
L 367.109121 202.961357 
L 386.932872 205.747347 
L 391.482585 206.413601 
L 391.482585 206.413601 
" clip-path="url(#p58fc0a9009)" style="fill: none; stroke: #d62728; stroke-width: 1.5; stroke-linecap: square"/>
   </g>
   <g id="patch_9">
    <path d="M 50.595313 307.872 
L 50.595313 186.912 
" style="fill: none; stroke: #000000; stroke-width: 0.8; stroke-linejoin: miter; stroke-linecap: square"/>
   </g>
   <g id="patch_10">
    <path d="M 407.715312 307.872 
L 407.715312 186.912 
" style="fill: none; stroke: #000000; stroke-width: 0.8; stroke-linejoin: miter; stroke-linecap: square"/>
   </g>
   <g id="patch_11">
    <path d="M 50.595313 307.872 
L 407.715313 307.872 
" style="fill: none; stroke: #000000; stroke-width: 0.8; stroke-linejoin: miter; stroke-linecap: square"/>
   </g>
   <g id="patch_12">
    <path d="M 50.595313 186.912 
L 407.715313 186.912 
" style="fill: none; stroke: #000000; stroke-width: 0.8; stroke-linejoin: miter; stroke-linecap: square"/>
   </g>
  </g>
  <g id="text_21">
   <!-- S21 resonator spectroscopy -->
   <g transform="translate(139.610938 16.318125) scale(0.12 -0.12)">
    <defs>
     <path id="DejaVuSans-53" d="M 3425 4513 
L 3425 3897 
Q 3066 4069 2747 4153 
Q 2428 4238 2131 4238 
Q 1616 4238 1336 4038 
Q 1056 3838 1056 3469 
Q 1056 3159 1242 3001 
Q 1428 2844 1947 2747 
L 2328 2669 
Q 3034 2534 3370 2195 
Q 3706 1856 3706 1288 
Q 3706 609 3251 259 
Q 2797 -91 1919 -91 
Q 1588 -91 1214 -16 
Q 841 59 441 206 
L 441 856 
Q 825 641 1194 531 
Q 1563 422 1919 422 
Q 2459 422 2753 634 
Q 3047 847 3047 1241 
Q 3047 1584 2836 1778 
Q 2625 1972 2144 2069 
L 1759 2144 
Q 1053 2284 737 2584 
Q 422 2884 422 3419 
Q 422 4038 858 4394 
Q 1294 4750 2059 4750 
Q 2388 4750 2728 4690 
Q 3069 4631 3425 4513 
z
" transform="scale(0.015625)"/>
     <path id="DejaVuSans-70" d="M 1159 525 
L 1159 -1331 
L 581 -1331 
L 581 3500 
L 1159 3500 
L 1159 2969 
Q 1341 3281 1617 3432 
Q 1894 3584 2278 3584 
Q 2916 3584 3314 3078 
Q 3713 2572 3713 1747 
Q 3713 922 3314 415 
Q 2916 -91 2278 -91 
Q 1894 -91 1617 61 
Q 1341 213 1159 525 
z
M 3116 1747 
Q 3116 2381 2855 2742 
Q 2594 3103 2138 3103 
Q 1681 3103 1420 2742 
Q 1159 2381 1159 1747 
Q 1159 1113 1420 752 
Q 1681 391 2138 391 
Q 2594 391 2855 752 
Q 3116 1113 3116 1747 
z
" transform="scale(0.015625)"/>
    </defs>
    <use xlink:href="#DejaVuSans-53"/>
    <use xlink:href="#DejaVuSans-32" x="63.476562"/>
    <use xlink:href="#DejaVuSans-31" x="127.099609"/>
    <use xlink:href="#DejaVuSans-20" x="190.722656"/>
    <use xlink:href="#DejaVuSans-72" x="222.509766"/>
    <use xlink:href="#DejaVuSans-65" x="261.373047"/>
    <use xlink:href="#DejaVuSans-73" x="322.896484"/>
    <use xlink:href="#DejaVuSans-6f" x="374.996094"/>
    <use xlink:href="#DejaVuSans-6e" x="436.177734"/>
    <use xlink:href="#DejaVuSans-61" x="499.556641"/>
    <use xlink:href="#DejaVuSans-74" x="560.835938"/>
    <use xlink:href="#DejaVuSans-6f" x="600.044922"/>
    <use xlink:href="#DejaVuSans-72" x="661.226562"/>
    <use xlink:href="#DejaVuSans-20" x="702.339844"/>
    <use xlink:href="#DejaVuSans-73" x="734.126953"/>
    <use xlink:href="#DejaVuSans-70" x="786.226562"/>
    <use xlink:href="#DejaVuSans-65" x="849.703125"/>
    <use xlink:href="#DejaVuSans-63" x="911.226562"/>
    <use xlink:href="#DejaVuSans-74" x="966.207031"/>
    <use xlink:href="#DejaVuSans-72" x="1005.416016"/>
    <use xlink:href="#DejaVuSans-6f" x="1044.279297"/>
    <use xlink:href="#DejaVuSans-73" x="1105.460938"/>
    <use xlink:href="#DejaVuSans-63" x="1157.560547"/>
    <use xlink:href="#DejaVuSans-6f" x="1212.541016"/>
    <use xlink:href="#DejaVuSans-70" x="1273.722656"/>
    <use xlink:href="#DejaVuSans-79" x="1337.199219"/>
   </g>
   <!-- tuid: 20231225-141017-587-5ee795 -->
   <g transform="translate(113.79125 29.7555) scale(0.12 -0.12)">
    <defs>
     <path id="DejaVuSans-33" d="M 2597 2516 
Q 3050 2419 3304 2112 
Q 3559 1806 3559 1356 
Q 3559 666 3084 287 
Q 2609 -91 1734 -91 
Q 1441 -91 1130 -33 
Q 819 25 488 141 
L 488 750 
Q 750 597 1062 519 
Q 1375 441 1716 441 
Q 2309 441 2620 675 
Q 2931 909 2931 1356 
Q 2931 1769 2642 2001 
Q 2353 2234 1838 2234 
L 1294 2234 
L 1294 2753 
L 1863 2753 
Q 2328 2753 2575 2939 
Q 2822 3125 2822 3475 
Q 2822 3834 2567 4026 
Q 2313 4219 1838 4219 
Q 1578 4219 1281 4162 
Q 984 4106 628 3988 
L 628 4550 
Q 988 4650 1302 4700 
Q 1616 4750 1894 4750 
Q 2613 4750 3031 4423 
Q 3450 4097 3450 3541 
Q 3450 3153 3228 2886 
Q 3006 2619 2597 2516 
z
" transform="scale(0.015625)"/>
     <path id="DejaVuSans-34" d="M 2419 4116 
L 825 1625 
L 2419 1625 
L 2419 4116 
z
M 2253 4666 
L 3047 4666 
L 3047 1625 
L 3713 1625 
L 3713 1100 
L 3047 1100 
L 3047 0 
L 2419 0 
L 2419 1100 
L 313 1100 
L 313 1709 
L 2253 4666 
z
" transform="scale(0.015625)"/>
     <path id="DejaVuSans-38" d="M 2034 2216 
Q 1584 2216 1326 1975 
Q 1069 1734 1069 1313 
Q 1069 891 1326 650 
Q 1584 409 2034 409 
Q 2484 409 2743 651 
Q 3003 894 3003 1313 
Q 3003 1734 2745 1975 
Q 2488 2216 2034 2216 
z
M 1403 2484 
Q 997 2584 770 2862 
Q 544 3141 544 3541 
Q 544 4100 942 4425 
Q 1341 4750 2034 4750 
Q 2731 4750 3128 4425 
Q 3525 4100 3525 3541 
Q 3525 3141 3298 2862 
Q 3072 2584 2669 2484 
Q 3125 2378 3379 2068 
Q 3634 1759 3634 1313 
Q 3634 634 3220 271 
Q 2806 -91 2034 -91 
Q 1263 -91 848 271 
Q 434 634 434 1313 
Q 434 1759 690 2068 
Q 947 2378 1403 2484 
z
M 1172 3481 
Q 1172 3119 1398 2916 
Q 1625 2713 2034 2713 
Q 2441 2713 2670 2916 
Q 2900 3119 2900 3481 
Q 2900 3844 2670 4047 
Q 2441 4250 2034 4250 
Q 1625 4250 1398 4047 
Q 1172 3844 1172 3481 
z
" transform="scale(0.015625)"/>
     <path id="DejaVuSans-39" d="M 703 97 
L 703 672 
Q 941 559 1184 500 
Q 1428 441 1663 441 
Q 2288 441 2617 861 
Q 2947 1281 2994 2138 
Q 2813 1869 2534 1725 
Q 2256 1581 1919 1581 
Q 1219 1581 811 2004 
Q 403 2428 403 3163 
Q 403 3881 828 4315 
Q 1253 4750 1959 4750 
Q 2769 4750 3195 4129 
Q 3622 3509 3622 2328 
Q 3622 1225 3098 567 
Q 2575 -91 1691 -91 
Q 1453 -91 1209 -44 
Q 966 3 703 97 
z
M 1959 2075 
Q 2384 2075 2632 2365 
Q 2881 2656 2881 3163 
Q 2881 3666 2632 3958 
Q 2384 4250 1959 4250 
Q 1534 4250 1286 3958 
Q 1038 3666 1038 3163 
Q 1038 2656 1286 2365 
Q 1534 2075 1959 2075 
z
" transform="scale(0.015625)"/>
    </defs>
    <use xlink:href="#DejaVuSans-74"/>
    <use xlink:href="#DejaVuSans-75" x="39.208984"/>
    <use xlink:href="#DejaVuSans-69" x="102.587891"/>
    <use xlink:href="#DejaVuSans-64" x="130.371094"/>
    <use xlink:href="#DejaVuSans-3a" x="193.847656"/>
    <use xlink:href="#DejaVuSans-20" x="227.539062"/>
    <use xlink:href="#DejaVuSans-32" x="259.326172"/>
    <use xlink:href="#DejaVuSans-30" x="322.949219"/>
    <use xlink:href="#DejaVuSans-32" x="386.572266"/>
    <use xlink:href="#DejaVuSans-33" x="450.195312"/>
    <use xlink:href="#DejaVuSans-31" x="513.818359"/>
    <use xlink:href="#DejaVuSans-32" x="577.441406"/>
    <use xlink:href="#DejaVuSans-32" x="641.064453"/>
    <use xlink:href="#DejaVuSans-35" x="704.6875"/>
    <use xlink:href="#DejaVuSans-2d" x="768.310547"/>
    <use xlink:href="#DejaVuSans-31" x="804.394531"/>
    <use xlink:href="#DejaVuSans-34" x="868.017578"/>
    <use xlink:href="#DejaVuSans-31" x="931.640625"/>
    <use xlink:href="#DejaVuSans-30" x="995.263672"/>
    <use xlink:href="#DejaVuSans-31" x="1058.886719"/>
    <use xlink:href="#DejaVuSans-37" x="1122.509766"/>
    <use xlink:href="#DejaVuSans-2d" x="1186.132812"/>
    <use xlink:href="#DejaVuSans-35" x="1222.216797"/>
    <use xlink:href="#DejaVuSans-38" x="1285.839844"/>
    <use xlink:href="#DejaVuSans-37" x="1349.462891"/>
    <use xlink:href="#DejaVuSans-2d" x="1413.085938"/>
    <use xlink:href="#DejaVuSans-35" x="1449.169922"/>
    <use xlink:href="#DejaVuSans-65" x="1512.792969"/>
    <use xlink:href="#DejaVuSans-65" x="1574.316406"/>
    <use xlink:href="#DejaVuSans-37" x="1635.839844"/>
    <use xlink:href="#DejaVuSans-39" x="1699.462891"/>
    <use xlink:href="#DejaVuSans-35" x="1763.085938"/>
   </g>
  </g>
 </g>
 <defs>
  <clipPath id="paf638568d8">
   <rect x="50.595313" y="41.76" width="357.12" height="120.96"/>
  </clipPath>
  <clipPath id="p58fc0a9009">
   <rect x="50.595313" y="186.912" width="357.12" height="120.96"/>
  </clipPath>
 </defs>
</svg>
