<?xml version="1.0" encoding="utf-8" standalone="no"?>
<!DOCTYPE svg PUBLIC "-//W3C//DTD SVG 1.1//EN"
  "http://www.w3.org/Graphics/SVG/1.1/DTD/svg11.dtd">
<svg xmlns:xlink="http://www.w3.org/1999/xlink" width="565.824437pt" height="345.42825pt" viewBox="0 0 565.824437 345.42825" xmlns="http://www.w3.org/2000/svg" version="1.1">
 <metadata>
  <rdf:RDF xmlns:dc="http://purl.org/dc/elements/1.1/" xmlns:cc="http://creativecommons.org/ns#" xmlns:rdf="http://www.w3.org/1999/02/22-rdf-syntax-ns#">
   <cc:Work>
    <dc:type rdf:resource="http://purl.org/dc/dcmitype/StillImage"/>
    <dc:date>2024-01-04T12:03:06.569901</dc:date>
    <dc:format>image/svg+xml</dc:format>
    <dc:creator>
     <cc:Agent>
      <dc:title>Matplotlib v3.8.1, https://matplotlib.org/</dc:title>
     </cc:Agent>
    </dc:creator>
   </cc:Work>
  </rdf:RDF>
 </metadata>
 <defs>
  <style type="text/css">*{stroke-linejoin: round; stroke-linecap: butt}</style>
 </defs>
 <g id="figure_1">
  <g id="patch_1">
   <path d="M 0 345.42825 
L 565.824437 345.42825 
L 565.824437 -0 
L 0 -0 
L 0 345.42825 
z
" style="fill: none; opacity: 0"/>
  </g>
  <g id="axes_1">
   <g id="patch_2">
    <path d="M 37.848438 307.872 
L 394.968438 307.872 
L 394.968438 41.76 
L 37.848438 41.76 
z
" style="fill: #ffffff"/>
   </g>
   <g id="matplotlib.axis_1">
    <g id="xtick_1">
     <g id="line2d_1">
      <defs>
       <path id="m9332b93b7d" d="M 0 0 
L 0 3.5 
" style="stroke: #000000; stroke-width: 0.8"/>
      </defs>
      <g>
       <use xlink:href="#m9332b93b7d" x="40.259803" y="307.872" style="stroke: #000000; stroke-width: 0.8"/>
      </g>
     </g>
     <g id="text_1">
      <!-- -5 -->
      <g transform="translate(35.274647 322.470438) scale(0.1 -0.1)">
       <defs>
        <path id="DejaVuSans-2d" d="M 313 2009 
L 1997 2009 
L 1997 1497 
L 313 1497 
L 313 2009 
z
" transform="scale(0.015625)"/>
        <path id="DejaVuSans-35" d="M 691 4666 
L 3169 4666 
L 3169 4134 
L 1269 4134 
L 1269 2991 
Q 1406 3038 1543 3061 
Q 1681 3084 1819 3084 
Q 2600 3084 3056 2656 
Q 3513 2228 3513 1497 
Q 3513 744 3044 326 
Q 2575 -91 1722 -91 
Q 1428 -91 1123 -41 
Q 819 9 494 109 
L 494 744 
Q 775 591 1075 516 
Q 1375 441 1709 441 
Q 2250 441 2565 725 
Q 2881 1009 2881 1497 
Q 2881 1984 2565 2268 
Q 2250 2553 1709 2553 
Q 1456 2553 1204 2497 
Q 953 2441 691 2322 
L 691 4666 
z
" transform="scale(0.015625)"/>
       </defs>
       <use xlink:href="#DejaVuSans-2d"/>
       <use xlink:href="#DejaVuSans-35" x="36.083984"/>
      </g>
     </g>
    </g>
    <g id="xtick_2">
     <g id="line2d_2">
      <g>
       <use xlink:href="#m9332b93b7d" x="115.46535" y="307.872" style="stroke: #000000; stroke-width: 0.8"/>
      </g>
     </g>
     <g id="text_2">
      <!-- -4 -->
      <g transform="translate(110.480194 322.470438) scale(0.1 -0.1)">
       <defs>
        <path id="DejaVuSans-34" d="M 2419 4116 
L 825 1625 
L 2419 1625 
L 2419 4116 
z
M 2253 4666 
L 3047 4666 
L 3047 1625 
L 3713 1625 
L 3713 1100 
L 3047 1100 
L 3047 0 
L 2419 0 
L 2419 1100 
L 313 1100 
L 313 1709 
L 2253 4666 
z
" transform="scale(0.015625)"/>
       </defs>
       <use xlink:href="#DejaVuSans-2d"/>
       <use xlink:href="#DejaVuSans-34" x="36.083984"/>
      </g>
     </g>
    </g>
    <g id="xtick_3">
     <g id="line2d_3">
      <g>
       <use xlink:href="#m9332b93b7d" x="190.670897" y="307.872" style="stroke: #000000; stroke-width: 0.8"/>
      </g>
     </g>
     <g id="text_3">
      <!-- -3 -->
      <g transform="translate(185.685741 322.470438) scale(0.1 -0.1)">
       <defs>
        <path id="DejaVuSans-33" d="M 2597 2516 
Q 3050 2419 3304 2112 
Q 3559 1806 3559 1356 
Q 3559 666 3084 287 
Q 2609 -91 1734 -91 
Q 1441 -91 1130 -33 
Q 819 25 488 141 
L 488 750 
Q 750 597 1062 519 
Q 1375 441 1716 441 
Q 2309 441 2620 675 
Q 2931 909 2931 1356 
Q 2931 1769 2642 2001 
Q 2353 2234 1838 2234 
L 1294 2234 
L 1294 2753 
L 1863 2753 
Q 2328 2753 2575 2939 
Q 2822 3125 2822 3475 
Q 2822 3834 2567 4026 
Q 2313 4219 1838 4219 
Q 1578 4219 1281 4162 
Q 984 4106 628 3988 
L 628 4550 
Q 988 4650 1302 4700 
Q 1616 4750 1894 4750 
Q 2613 4750 3031 4423 
Q 3450 4097 3450 3541 
Q 3450 3153 3228 2886 
Q 3006 2619 2597 2516 
z
" transform="scale(0.015625)"/>
       </defs>
       <use xlink:href="#DejaVuSans-2d"/>
       <use xlink:href="#DejaVuSans-33" x="36.083984"/>
      </g>
     </g>
    </g>
    <g id="xtick_4">
     <g id="line2d_4">
      <g>
       <use xlink:href="#m9332b93b7d" x="265.876444" y="307.872" style="stroke: #000000; stroke-width: 0.8"/>
      </g>
     </g>
     <g id="text_4">
      <!-- -2 -->
      <g transform="translate(260.891288 322.470438) scale(0.1 -0.1)">
       <defs>
        <path id="DejaVuSans-32" d="M 1228 531 
L 3431 531 
L 3431 0 
L 469 0 
L 469 531 
Q 828 903 1448 1529 
Q 2069 2156 2228 2338 
Q 2531 2678 2651 2914 
Q 2772 3150 2772 3378 
Q 2772 3750 2511 3984 
Q 2250 4219 1831 4219 
Q 1534 4219 1204 4116 
Q 875 4013 500 3803 
L 500 4441 
Q 881 4594 1212 4672 
Q 1544 4750 1819 4750 
Q 2544 4750 2975 4387 
Q 3406 4025 3406 3419 
Q 3406 3131 3298 2873 
Q 3191 2616 2906 2266 
Q 2828 2175 2409 1742 
Q 1991 1309 1228 531 
z
" transform="scale(0.015625)"/>
       </defs>
       <use xlink:href="#DejaVuSans-2d"/>
       <use xlink:href="#DejaVuSans-32" x="36.083984"/>
      </g>
     </g>
    </g>
    <g id="xtick_5">
     <g id="line2d_5">
      <g>
       <use xlink:href="#m9332b93b7d" x="341.081991" y="307.872" style="stroke: #000000; stroke-width: 0.8"/>
      </g>
     </g>
     <g id="text_5">
      <!-- -1 -->
      <g transform="translate(336.096835 322.470438) scale(0.1 -0.1)">
       <defs>
        <path id="DejaVuSans-31" d="M 794 531 
L 1825 531 
L 1825 4091 
L 703 3866 
L 703 4441 
L 1819 4666 
L 2450 4666 
L 2450 531 
L 3481 531 
L 3481 0 
L 794 0 
L 794 531 
z
" transform="scale(0.015625)"/>
       </defs>
       <use xlink:href="#DejaVuSans-2d"/>
       <use xlink:href="#DejaVuSans-31" x="36.083984"/>
      </g>
     </g>
    </g>
    <g id="text_6">
     <!-- Re$(S_{21})$ [mV] -->
     <g transform="translate(184.408438 336.148562) scale(0.1 -0.1)">
      <defs>
       <path id="DejaVuSans-52" d="M 2841 2188 
Q 3044 2119 3236 1894 
Q 3428 1669 3622 1275 
L 4263 0 
L 3584 0 
L 2988 1197 
Q 2756 1666 2539 1819 
Q 2322 1972 1947 1972 
L 1259 1972 
L 1259 0 
L 628 0 
L 628 4666 
L 2053 4666 
Q 2853 4666 3247 4331 
Q 3641 3997 3641 3322 
Q 3641 2881 3436 2590 
Q 3231 2300 2841 2188 
z
M 1259 4147 
L 1259 2491 
L 2053 2491 
Q 2509 2491 2742 2702 
Q 2975 2913 2975 3322 
Q 2975 3731 2742 3939 
Q 2509 4147 2053 4147 
L 1259 4147 
z
" transform="scale(0.015625)"/>
       <path id="DejaVuSans-65" d="M 3597 1894 
L 3597 1613 
L 953 1613 
Q 991 1019 1311 708 
Q 1631 397 2203 397 
Q 2534 397 2845 478 
Q 3156 559 3463 722 
L 3463 178 
Q 3153 47 2828 -22 
Q 2503 -91 2169 -91 
Q 1331 -91 842 396 
Q 353 884 353 1716 
Q 353 2575 817 3079 
Q 1281 3584 2069 3584 
Q 2775 3584 3186 3129 
Q 3597 2675 3597 1894 
z
M 3022 2063 
Q 3016 2534 2758 2815 
Q 2500 3097 2075 3097 
Q 1594 3097 1305 2825 
Q 1016 2553 972 2059 
L 3022 2063 
z
" transform="scale(0.015625)"/>
       <path id="DejaVuSans-28" d="M 1984 4856 
Q 1566 4138 1362 3434 
Q 1159 2731 1159 2009 
Q 1159 1288 1364 580 
Q 1569 -128 1984 -844 
L 1484 -844 
Q 1016 -109 783 600 
Q 550 1309 550 2009 
Q 550 2706 781 3412 
Q 1013 4119 1484 4856 
L 1984 4856 
z
" transform="scale(0.015625)"/>
       <path id="DejaVuSans-Oblique-53" d="M 3859 4513 
L 3738 3897 
Q 3422 4066 3111 4152 
Q 2800 4238 2509 4238 
Q 1944 4238 1609 3991 
Q 1275 3744 1275 3334 
Q 1275 3109 1398 2989 
Q 1522 2869 2034 2731 
L 2413 2638 
Q 3053 2472 3303 2217 
Q 3553 1963 3553 1503 
Q 3553 797 2998 353 
Q 2444 -91 1538 -91 
Q 1166 -91 791 -17 
Q 416 56 38 206 
L 166 856 
Q 513 641 861 531 
Q 1209 422 1556 422 
Q 2147 422 2503 684 
Q 2859 947 2859 1369 
Q 2859 1650 2717 1795 
Q 2575 1941 2106 2059 
L 1728 2156 
Q 1081 2325 845 2545 
Q 609 2766 609 3163 
Q 609 3859 1145 4304 
Q 1681 4750 2541 4750 
Q 2875 4750 3203 4690 
Q 3531 4631 3859 4513 
z
" transform="scale(0.015625)"/>
       <path id="DejaVuSans-29" d="M 513 4856 
L 1013 4856 
Q 1481 4119 1714 3412 
Q 1947 2706 1947 2009 
Q 1947 1309 1714 600 
Q 1481 -109 1013 -844 
L 513 -844 
Q 928 -128 1133 580 
Q 1338 1288 1338 2009 
Q 1338 2731 1133 3434 
Q 928 4138 513 4856 
z
" transform="scale(0.015625)"/>
       <path id="DejaVuSans-20" transform="scale(0.015625)"/>
       <path id="DejaVuSans-5b" d="M 550 4863 
L 1875 4863 
L 1875 4416 
L 1125 4416 
L 1125 -397 
L 1875 -397 
L 1875 -844 
L 550 -844 
L 550 4863 
z
" transform="scale(0.015625)"/>
       <path id="DejaVuSans-6d" d="M 3328 2828 
Q 3544 3216 3844 3400 
Q 4144 3584 4550 3584 
Q 5097 3584 5394 3201 
Q 5691 2819 5691 2113 
L 5691 0 
L 5113 0 
L 5113 2094 
Q 5113 2597 4934 2840 
Q 4756 3084 4391 3084 
Q 3944 3084 3684 2787 
Q 3425 2491 3425 1978 
L 3425 0 
L 2847 0 
L 2847 2094 
Q 2847 2600 2669 2842 
Q 2491 3084 2119 3084 
Q 1678 3084 1418 2786 
Q 1159 2488 1159 1978 
L 1159 0 
L 581 0 
L 581 3500 
L 1159 3500 
L 1159 2956 
Q 1356 3278 1631 3431 
Q 1906 3584 2284 3584 
Q 2666 3584 2933 3390 
Q 3200 3197 3328 2828 
z
" transform="scale(0.015625)"/>
       <path id="DejaVuSans-56" d="M 1831 0 
L 50 4666 
L 709 4666 
L 2188 738 
L 3669 4666 
L 4325 4666 
L 2547 0 
L 1831 0 
z
" transform="scale(0.015625)"/>
       <path id="DejaVuSans-5d" d="M 1947 4863 
L 1947 -844 
L 622 -844 
L 622 -397 
L 1369 -397 
L 1369 4416 
L 622 4416 
L 622 4863 
L 1947 4863 
z
" transform="scale(0.015625)"/>
      </defs>
      <use xlink:href="#DejaVuSans-52" transform="translate(0 0.015625)"/>
      <use xlink:href="#DejaVuSans-65" transform="translate(69.482422 0.015625)"/>
      <use xlink:href="#DejaVuSans-28" transform="translate(131.005859 0.015625)"/>
      <use xlink:href="#DejaVuSans-Oblique-53" transform="translate(170.019531 0.015625)"/>
      <use xlink:href="#DejaVuSans-32" transform="translate(233.496094 -16.390625) scale(0.7)"/>
      <use xlink:href="#DejaVuSans-31" transform="translate(278.032227 -16.390625) scale(0.7)"/>
      <use xlink:href="#DejaVuSans-29" transform="translate(325.302734 0.015625)"/>
      <use xlink:href="#DejaVuSans-20" transform="translate(364.316406 0.015625)"/>
      <use xlink:href="#DejaVuSans-5b" transform="translate(396.103516 0.015625)"/>
      <use xlink:href="#DejaVuSans-6d" transform="translate(435.117188 0.015625)"/>
      <use xlink:href="#DejaVuSans-56" transform="translate(532.529297 0.015625)"/>
      <use xlink:href="#DejaVuSans-5d" transform="translate(600.9375 0.015625)"/>
     </g>
    </g>
   </g>
   <g id="matplotlib.axis_2">
    <g id="ytick_1">
     <g id="line2d_6">
      <defs>
       <path id="m7bef7a9bc1" d="M 0 0 
L -3.5 0 
" style="stroke: #000000; stroke-width: 0.8"/>
      </defs>
      <g>
       <use xlink:href="#m7bef7a9bc1" x="37.848438" y="268.728525" style="stroke: #000000; stroke-width: 0.8"/>
      </g>
     </g>
     <g id="text_7">
      <!-- -4 -->
      <g transform="translate(20.878125 272.527744) scale(0.1 -0.1)">
       <use xlink:href="#DejaVuSans-2d"/>
       <use xlink:href="#DejaVuSans-34" x="36.083984"/>
      </g>
     </g>
    </g>
    <g id="ytick_2">
     <g id="line2d_7">
      <g>
       <use xlink:href="#m7bef7a9bc1" x="37.848438" y="220.033323" style="stroke: #000000; stroke-width: 0.8"/>
      </g>
     </g>
     <g id="text_8">
      <!-- -3 -->
      <g transform="translate(20.878125 223.832542) scale(0.1 -0.1)">
       <use xlink:href="#DejaVuSans-2d"/>
       <use xlink:href="#DejaVuSans-33" x="36.083984"/>
      </g>
     </g>
    </g>
    <g id="ytick_3">
     <g id="line2d_8">
      <g>
       <use xlink:href="#m7bef7a9bc1" x="37.848438" y="171.338121" style="stroke: #000000; stroke-width: 0.8"/>
      </g>
     </g>
     <g id="text_9">
      <!-- -2 -->
      <g transform="translate(20.878125 175.13734) scale(0.1 -0.1)">
       <use xlink:href="#DejaVuSans-2d"/>
       <use xlink:href="#DejaVuSans-32" x="36.083984"/>
      </g>
     </g>
    </g>
    <g id="ytick_4">
     <g id="line2d_9">
      <g>
       <use xlink:href="#m7bef7a9bc1" x="37.848438" y="122.642919" style="stroke: #000000; stroke-width: 0.8"/>
      </g>
     </g>
     <g id="text_10">
      <!-- -1 -->
      <g transform="translate(20.878125 126.442137) scale(0.1 -0.1)">
       <use xlink:href="#DejaVuSans-2d"/>
       <use xlink:href="#DejaVuSans-31" x="36.083984"/>
      </g>
     </g>
    </g>
    <g id="ytick_5">
     <g id="line2d_10">
      <g>
       <use xlink:href="#m7bef7a9bc1" x="37.848438" y="73.947716" style="stroke: #000000; stroke-width: 0.8"/>
      </g>
     </g>
     <g id="text_11">
      <!-- 0 -->
      <g transform="translate(24.485938 77.746935) scale(0.1 -0.1)">
       <defs>
        <path id="DejaVuSans-30" d="M 2034 4250 
Q 1547 4250 1301 3770 
Q 1056 3291 1056 2328 
Q 1056 1369 1301 889 
Q 1547 409 2034 409 
Q 2525 409 2770 889 
Q 3016 1369 3016 2328 
Q 3016 3291 2770 3770 
Q 2525 4250 2034 4250 
z
M 2034 4750 
Q 2819 4750 3233 4129 
Q 3647 3509 3647 2328 
Q 3647 1150 3233 529 
Q 2819 -91 2034 -91 
Q 1250 -91 836 529 
Q 422 1150 422 2328 
Q 422 3509 836 4129 
Q 1250 4750 2034 4750 
z
" transform="scale(0.015625)"/>
       </defs>
       <use xlink:href="#DejaVuSans-30"/>
      </g>
     </g>
    </g>
    <g id="text_12">
     <!-- Im$(S_{21})$ [mV] -->
     <g transform="translate(14.798438 206.466) rotate(-90) scale(0.1 -0.1)">
      <defs>
       <path id="DejaVuSans-49" d="M 628 4666 
L 1259 4666 
L 1259 0 
L 628 0 
L 628 4666 
z
" transform="scale(0.015625)"/>
      </defs>
      <use xlink:href="#DejaVuSans-49" transform="translate(0 0.015625)"/>
      <use xlink:href="#DejaVuSans-6d" transform="translate(25.867188 0.015625)"/>
      <use xlink:href="#DejaVuSans-28" transform="translate(123.279297 0.015625)"/>
      <use xlink:href="#DejaVuSans-Oblique-53" transform="translate(162.292969 0.015625)"/>
      <use xlink:href="#DejaVuSans-32" transform="translate(225.769531 -16.390625) scale(0.7)"/>
      <use xlink:href="#DejaVuSans-31" transform="translate(270.305664 -16.390625) scale(0.7)"/>
      <use xlink:href="#DejaVuSans-29" transform="translate(317.576172 0.015625)"/>
      <use xlink:href="#DejaVuSans-20" transform="translate(356.589844 0.015625)"/>
      <use xlink:href="#DejaVuSans-5b" transform="translate(388.376953 0.015625)"/>
      <use xlink:href="#DejaVuSans-6d" transform="translate(427.390625 0.015625)"/>
      <use xlink:href="#DejaVuSans-56" transform="translate(524.802734 0.015625)"/>
      <use xlink:href="#DejaVuSans-5d" transform="translate(593.210938 0.015625)"/>
     </g>
    </g>
   </g>
   <g id="line2d_11">
    <path d="M 221.720587 294.333326 
L 222.557021 286.008859 
L 221.443899 293.147915 
L 222.061447 285.324119 
L 212.253334 288.387135 
L 212.799853 293.581607 
L 215.739821 288.395382 
L 215.550001 290.002855 
L 210.397913 292.181359 
L 204.450539 289.733145 
L 204.51569 287.121213 
L 200.056262 288.27591 
L 204.624031 289.703859 
L 199.673519 291.620372 
L 198.542517 288.103998 
L 198.006694 285.463625 
L 192.358624 281.870124 
L 192.943923 282.142371 
L 193.518609 283.307905 
L 192.484926 282.556715 
L 185.70169 284.875836 
L 191.215294 284.918709 
L 176.732215 279.080254 
L 183.12038 282.094741 
L 176.087479 278.702755 
L 175.222226 276.358312 
L 177.214154 272.566467 
L 174.501154 274.86143 
L 163.298413 275.56092 
L 170.051359 274.010328 
L 154.821655 268.939715 
L 170.322415 273.956777 
L 161.482916 270.232544 
L 156.205995 274.119174 
L 154.942568 269.858059 
L 153.247249 268.819609 
L 149.16689 266.978691 
L 153.506547 262.756431 
L 152.568958 264.179781 
L 146.44744 262.279021 
L 149.028831 259.972058 
L 144.345783 258.228198 
L 138.275618 261.406456 
L 140.770631 251.894993 
L 135.573149 256.243967 
L 135.59503 251.460032 
L 124.827284 250.36523 
L 123.999423 252.832633 
L 117.114868 250.781054 
L 126.388137 247.251887 
L 109.273374 243.387249 
L 116.275903 242.961011 
L 107.31247 237.515754 
L 102.334935 240.740004 
L 98.056917 234.158553 
L 95.804221 236.755472 
L 106.230372 230.036575 
L 101.26443 223.441062 
L 93.648353 227.159903 
L 83.066019 221.75588 
L 87.40837 219.475349 
L 80.490097 215.504984 
L 76.169707 209.069911 
L 77.211963 207.551619 
L 76.568207 209.319321 
L 71.911937 200.416687 
L 73.63575 189.77606 
L 72.52124 189.114103 
L 64.275776 184.076688 
L 63.256135 180.259998 
L 65.591047 174.754582 
L 61.05618 165.127771 
L 60.888077 163.443963 
L 54.081165 151.929767 
L 64.995297 151.693731 
L 66.819939 137.763674 
L 70.550212 123.04669 
L 73.851043 111.632353 
L 82.059849 106.026286 
L 87.212345 97.187035 
L 97.462882 96.023879 
L 120.320258 83.511409 
L 128.077659 76.070503 
L 144.611939 66.119903 
L 154.702701 63.74205 
L 179.318913 64.089152 
L 196.098694 59.52846 
L 215.923273 54.634094 
L 235.058948 54.482799 
L 247.356359 54.222446 
L 272.45247 56.95496 
L 287.701688 62.641326 
L 300.251703 73.974835 
L 324.57098 76.445781 
L 337.620732 83.594774 
L 344.700169 89.780807 
L 361.014176 102.918071 
L 368.555631 111.906926 
L 374.935958 121.272856 
L 368.407857 125.595292 
L 372.767844 138.305683 
L 375.17207 148.528583 
L 378.435917 157.629614 
L 372.825239 164.242678 
L 378.73571 174.249577 
L 365.708981 177.427995 
L 359.777201 183.538855 
L 354.575066 188.371953 
L 350.486053 199.780633 
L 348.263237 203.807721 
L 345.095403 202.425764 
L 345.463532 208.465787 
L 343.165442 212.529245 
L 331.235343 213.846815 
L 325.262497 220.340883 
L 321.283375 219.894821 
L 320.09212 223.359547 
L 316.37344 225.652712 
L 307.313505 228.826741 
L 302.582287 225.989769 
L 302.351073 234.433496 
L 299.432251 229.28824 
L 287.317394 235.353373 
L 285.862187 235.42088 
L 280.810193 238.08927 
L 279.98968 231.658797 
L 283.502864 231.068893 
L 267.75293 238.105077 
L 271.359187 237.100565 
L 260.261277 236.558238 
L 261.978803 229.926619 
L 260.192043 235.055065 
L 255.077756 234.283839 
L 252.821385 237.816442 
L 252.36598 237.637605 
L 244.785173 244.282598 
L 236.212891 238.67098 
L 245.048472 238.58513 
L 225.288962 234.817708 
L 233.562348 238.515932 
L 223.923073 231.983379 
L 225.414203 234.653884 
L 222.082837 234.277601 
L 227.505164 240.647387 
L 221.383564 239.86818 
L 222.26531 236.807014 
L 211.50385 238.376425 
L 208.287275 235.897233 
L 206.532193 235.79896 
L 208.501752 235.910713 
L 201.34508 230.449756 
L 205.198553 232.282375 
L 201.246292 233.314217 
L 200.314744 233.734218 
L 194.117706 229.988205 
L 186.895394 238.830416 
L 198.170878 233.542693 
L 187.910707 234.71806 
L 189.165807 231.504594 
L 183.396497 235.51244 
L 187.877887 230.340223 
L 181.44294 231.163942 
L 186.709574 230.900312 
L 181.014396 235.786273 
L 178.404347 232.5856 
L 177.185742 225.588113 
L 174.007458 231.711661 
L 168.888353 225.253593 
L 172.756522 223.507934 
L 167.801194 227.104396 
L 169.562481 225.847884 
L 164.88482 222.863053 
L 165.526943 230.523924 
L 164.873717 226.201329 
L 161.616974 227.605225 
L 158.954429 226.131179 
L 163.431818 224.312041 
L 159.177069 217.260052 
L 154.524229 224.036252 
L 154.305997 220.578769 
L 152.329417 214.74634 
L 147.177492 219.834398 
L 153.198998 213.256488 
L 143.729377 223.021115 
L 146.555208 219.125234 
L 145.258063 217.700193 
L 143.77175 214.271996 
L 135.98512 211.731218 
L 142.777255 218.662784 
L 136.655982 211.83446 
L 130.683462 217.317461 
L 137.282429 216.713602 
L 143.069864 214.953776 
L 134.033442 211.451623 
L 123.153273 209.559322 
L 122.727995 205.561837 
L 125.776222 208.919039 
L 131.223694 209.002986 
L 131.223694 209.002986 
" clip-path="url(#p8dd6ea76ff)" style="fill: none; stroke: #1f77b4; stroke-width: 1.5; stroke-linecap: square"/>
    <defs>
     <path id="m0f3db3f1f2" d="M 0 1.5 
C 0.397805 1.5 0.77937 1.341951 1.06066 1.06066 
C 1.341951 0.77937 1.5 0.397805 1.5 0 
C 1.5 -0.397805 1.341951 -0.77937 1.06066 -1.06066 
C 0.77937 -1.341951 0.397805 -1.5 0 -1.5 
C -0.397805 -1.5 -0.77937 -1.341951 -1.06066 -1.06066 
C -1.341951 -0.77937 -1.5 -0.397805 -1.5 0 
C -1.5 0.397805 -1.341951 0.77937 -1.06066 1.06066 
C -0.77937 1.341951 -0.397805 1.5 0 1.5 
z
" style="stroke: #1f77b4"/>
    </defs>
    <g clip-path="url(#p8dd6ea76ff)">
     <use xlink:href="#m0f3db3f1f2" x="221.720587" y="294.333326" style="fill: #1f77b4; stroke: #1f77b4"/>
     <use xlink:href="#m0f3db3f1f2" x="222.557021" y="286.008859" style="fill: #1f77b4; stroke: #1f77b4"/>
     <use xlink:href="#m0f3db3f1f2" x="221.443899" y="293.147915" style="fill: #1f77b4; stroke: #1f77b4"/>
     <use xlink:href="#m0f3db3f1f2" x="222.061447" y="285.324119" style="fill: #1f77b4; stroke: #1f77b4"/>
     <use xlink:href="#m0f3db3f1f2" x="212.253334" y="288.387135" style="fill: #1f77b4; stroke: #1f77b4"/>
     <use xlink:href="#m0f3db3f1f2" x="212.799853" y="293.581607" style="fill: #1f77b4; stroke: #1f77b4"/>
     <use xlink:href="#m0f3db3f1f2" x="215.739821" y="288.395382" style="fill: #1f77b4; stroke: #1f77b4"/>
     <use xlink:href="#m0f3db3f1f2" x="215.550001" y="290.002855" style="fill: #1f77b4; stroke: #1f77b4"/>
     <use xlink:href="#m0f3db3f1f2" x="210.397913" y="292.181359" style="fill: #1f77b4; stroke: #1f77b4"/>
     <use xlink:href="#m0f3db3f1f2" x="204.450539" y="289.733145" style="fill: #1f77b4; stroke: #1f77b4"/>
     <use xlink:href="#m0f3db3f1f2" x="204.51569" y="287.121213" style="fill: #1f77b4; stroke: #1f77b4"/>
     <use xlink:href="#m0f3db3f1f2" x="200.056262" y="288.27591" style="fill: #1f77b4; stroke: #1f77b4"/>
     <use xlink:href="#m0f3db3f1f2" x="204.624031" y="289.703859" style="fill: #1f77b4; stroke: #1f77b4"/>
     <use xlink:href="#m0f3db3f1f2" x="199.673519" y="291.620372" style="fill: #1f77b4; stroke: #1f77b4"/>
     <use xlink:href="#m0f3db3f1f2" x="198.542517" y="288.103998" style="fill: #1f77b4; stroke: #1f77b4"/>
     <use xlink:href="#m0f3db3f1f2" x="198.006694" y="285.463625" style="fill: #1f77b4; stroke: #1f77b4"/>
     <use xlink:href="#m0f3db3f1f2" x="192.358624" y="281.870124" style="fill: #1f77b4; stroke: #1f77b4"/>
     <use xlink:href="#m0f3db3f1f2" x="192.943923" y="282.142371" style="fill: #1f77b4; stroke: #1f77b4"/>
     <use xlink:href="#m0f3db3f1f2" x="193.518609" y="283.307905" style="fill: #1f77b4; stroke: #1f77b4"/>
     <use xlink:href="#m0f3db3f1f2" x="192.484926" y="282.556715" style="fill: #1f77b4; stroke: #1f77b4"/>
     <use xlink:href="#m0f3db3f1f2" x="185.70169" y="284.875836" style="fill: #1f77b4; stroke: #1f77b4"/>
     <use xlink:href="#m0f3db3f1f2" x="191.215294" y="284.918709" style="fill: #1f77b4; stroke: #1f77b4"/>
     <use xlink:href="#m0f3db3f1f2" x="176.732215" y="279.080254" style="fill: #1f77b4; stroke: #1f77b4"/>
     <use xlink:href="#m0f3db3f1f2" x="183.12038" y="282.094741" style="fill: #1f77b4; stroke: #1f77b4"/>
     <use xlink:href="#m0f3db3f1f2" x="180.709622" y="280.977471" style="fill: #1f77b4; stroke: #1f77b4"/>
     <use xlink:href="#m0f3db3f1f2" x="176.087479" y="278.702755" style="fill: #1f77b4; stroke: #1f77b4"/>
     <use xlink:href="#m0f3db3f1f2" x="175.222226" y="276.358312" style="fill: #1f77b4; stroke: #1f77b4"/>
     <use xlink:href="#m0f3db3f1f2" x="177.214154" y="272.566467" style="fill: #1f77b4; stroke: #1f77b4"/>
     <use xlink:href="#m0f3db3f1f2" x="174.501154" y="274.86143" style="fill: #1f77b4; stroke: #1f77b4"/>
     <use xlink:href="#m0f3db3f1f2" x="163.298413" y="275.56092" style="fill: #1f77b4; stroke: #1f77b4"/>
     <use xlink:href="#m0f3db3f1f2" x="170.051359" y="274.010328" style="fill: #1f77b4; stroke: #1f77b4"/>
     <use xlink:href="#m0f3db3f1f2" x="154.821655" y="268.939715" style="fill: #1f77b4; stroke: #1f77b4"/>
     <use xlink:href="#m0f3db3f1f2" x="170.322415" y="273.956777" style="fill: #1f77b4; stroke: #1f77b4"/>
     <use xlink:href="#m0f3db3f1f2" x="161.482916" y="270.232544" style="fill: #1f77b4; stroke: #1f77b4"/>
     <use xlink:href="#m0f3db3f1f2" x="156.205995" y="274.119174" style="fill: #1f77b4; stroke: #1f77b4"/>
     <use xlink:href="#m0f3db3f1f2" x="154.942568" y="269.858059" style="fill: #1f77b4; stroke: #1f77b4"/>
     <use xlink:href="#m0f3db3f1f2" x="153.247249" y="268.819609" style="fill: #1f77b4; stroke: #1f77b4"/>
     <use xlink:href="#m0f3db3f1f2" x="149.16689" y="266.978691" style="fill: #1f77b4; stroke: #1f77b4"/>
     <use xlink:href="#m0f3db3f1f2" x="153.506547" y="262.756431" style="fill: #1f77b4; stroke: #1f77b4"/>
     <use xlink:href="#m0f3db3f1f2" x="152.568958" y="264.179781" style="fill: #1f77b4; stroke: #1f77b4"/>
     <use xlink:href="#m0f3db3f1f2" x="146.44744" y="262.279021" style="fill: #1f77b4; stroke: #1f77b4"/>
     <use xlink:href="#m0f3db3f1f2" x="149.028831" y="259.972058" style="fill: #1f77b4; stroke: #1f77b4"/>
     <use xlink:href="#m0f3db3f1f2" x="144.345783" y="258.228198" style="fill: #1f77b4; stroke: #1f77b4"/>
     <use xlink:href="#m0f3db3f1f2" x="138.275618" y="261.406456" style="fill: #1f77b4; stroke: #1f77b4"/>
     <use xlink:href="#m0f3db3f1f2" x="140.770631" y="251.894993" style="fill: #1f77b4; stroke: #1f77b4"/>
     <use xlink:href="#m0f3db3f1f2" x="135.573149" y="256.243967" style="fill: #1f77b4; stroke: #1f77b4"/>
     <use xlink:href="#m0f3db3f1f2" x="135.59503" y="251.460032" style="fill: #1f77b4; stroke: #1f77b4"/>
     <use xlink:href="#m0f3db3f1f2" x="124.827284" y="250.36523" style="fill: #1f77b4; stroke: #1f77b4"/>
     <use xlink:href="#m0f3db3f1f2" x="123.999423" y="252.832633" style="fill: #1f77b4; stroke: #1f77b4"/>
     <use xlink:href="#m0f3db3f1f2" x="117.114868" y="250.781054" style="fill: #1f77b4; stroke: #1f77b4"/>
     <use xlink:href="#m0f3db3f1f2" x="126.388137" y="247.251887" style="fill: #1f77b4; stroke: #1f77b4"/>
     <use xlink:href="#m0f3db3f1f2" x="109.273374" y="243.387249" style="fill: #1f77b4; stroke: #1f77b4"/>
     <use xlink:href="#m0f3db3f1f2" x="116.275903" y="242.961011" style="fill: #1f77b4; stroke: #1f77b4"/>
     <use xlink:href="#m0f3db3f1f2" x="107.31247" y="237.515754" style="fill: #1f77b4; stroke: #1f77b4"/>
     <use xlink:href="#m0f3db3f1f2" x="102.334935" y="240.740004" style="fill: #1f77b4; stroke: #1f77b4"/>
     <use xlink:href="#m0f3db3f1f2" x="98.056917" y="234.158553" style="fill: #1f77b4; stroke: #1f77b4"/>
     <use xlink:href="#m0f3db3f1f2" x="95.804221" y="236.755472" style="fill: #1f77b4; stroke: #1f77b4"/>
     <use xlink:href="#m0f3db3f1f2" x="106.230372" y="230.036575" style="fill: #1f77b4; stroke: #1f77b4"/>
     <use xlink:href="#m0f3db3f1f2" x="101.26443" y="223.441062" style="fill: #1f77b4; stroke: #1f77b4"/>
     <use xlink:href="#m0f3db3f1f2" x="93.648353" y="227.159903" style="fill: #1f77b4; stroke: #1f77b4"/>
     <use xlink:href="#m0f3db3f1f2" x="83.066019" y="221.75588" style="fill: #1f77b4; stroke: #1f77b4"/>
     <use xlink:href="#m0f3db3f1f2" x="87.40837" y="219.475349" style="fill: #1f77b4; stroke: #1f77b4"/>
     <use xlink:href="#m0f3db3f1f2" x="80.490097" y="215.504984" style="fill: #1f77b4; stroke: #1f77b4"/>
     <use xlink:href="#m0f3db3f1f2" x="76.169707" y="209.069911" style="fill: #1f77b4; stroke: #1f77b4"/>
     <use xlink:href="#m0f3db3f1f2" x="77.211963" y="207.551619" style="fill: #1f77b4; stroke: #1f77b4"/>
     <use xlink:href="#m0f3db3f1f2" x="76.568207" y="209.319321" style="fill: #1f77b4; stroke: #1f77b4"/>
     <use xlink:href="#m0f3db3f1f2" x="71.911937" y="200.416687" style="fill: #1f77b4; stroke: #1f77b4"/>
     <use xlink:href="#m0f3db3f1f2" x="73.63575" y="189.77606" style="fill: #1f77b4; stroke: #1f77b4"/>
     <use xlink:href="#m0f3db3f1f2" x="72.52124" y="189.114103" style="fill: #1f77b4; stroke: #1f77b4"/>
     <use xlink:href="#m0f3db3f1f2" x="64.275776" y="184.076688" style="fill: #1f77b4; stroke: #1f77b4"/>
     <use xlink:href="#m0f3db3f1f2" x="63.256135" y="180.259998" style="fill: #1f77b4; stroke: #1f77b4"/>
     <use xlink:href="#m0f3db3f1f2" x="65.591047" y="174.754582" style="fill: #1f77b4; stroke: #1f77b4"/>
     <use xlink:href="#m0f3db3f1f2" x="61.05618" y="165.127771" style="fill: #1f77b4; stroke: #1f77b4"/>
     <use xlink:href="#m0f3db3f1f2" x="60.888077" y="163.443963" style="fill: #1f77b4; stroke: #1f77b4"/>
     <use xlink:href="#m0f3db3f1f2" x="54.081165" y="151.929767" style="fill: #1f77b4; stroke: #1f77b4"/>
     <use xlink:href="#m0f3db3f1f2" x="64.995297" y="151.693731" style="fill: #1f77b4; stroke: #1f77b4"/>
     <use xlink:href="#m0f3db3f1f2" x="66.819939" y="137.763674" style="fill: #1f77b4; stroke: #1f77b4"/>
     <use xlink:href="#m0f3db3f1f2" x="67.161288" y="136.381452" style="fill: #1f77b4; stroke: #1f77b4"/>
     <use xlink:href="#m0f3db3f1f2" x="70.550212" y="123.04669" style="fill: #1f77b4; stroke: #1f77b4"/>
     <use xlink:href="#m0f3db3f1f2" x="73.851043" y="111.632353" style="fill: #1f77b4; stroke: #1f77b4"/>
     <use xlink:href="#m0f3db3f1f2" x="82.059849" y="106.026286" style="fill: #1f77b4; stroke: #1f77b4"/>
     <use xlink:href="#m0f3db3f1f2" x="87.212345" y="97.187035" style="fill: #1f77b4; stroke: #1f77b4"/>
     <use xlink:href="#m0f3db3f1f2" x="97.462882" y="96.023879" style="fill: #1f77b4; stroke: #1f77b4"/>
     <use xlink:href="#m0f3db3f1f2" x="120.320258" y="83.511409" style="fill: #1f77b4; stroke: #1f77b4"/>
     <use xlink:href="#m0f3db3f1f2" x="128.077659" y="76.070503" style="fill: #1f77b4; stroke: #1f77b4"/>
     <use xlink:href="#m0f3db3f1f2" x="144.611939" y="66.119903" style="fill: #1f77b4; stroke: #1f77b4"/>
     <use xlink:href="#m0f3db3f1f2" x="154.702701" y="63.74205" style="fill: #1f77b4; stroke: #1f77b4"/>
     <use xlink:href="#m0f3db3f1f2" x="179.318913" y="64.089152" style="fill: #1f77b4; stroke: #1f77b4"/>
     <use xlink:href="#m0f3db3f1f2" x="196.098694" y="59.52846" style="fill: #1f77b4; stroke: #1f77b4"/>
     <use xlink:href="#m0f3db3f1f2" x="215.923273" y="54.634094" style="fill: #1f77b4; stroke: #1f77b4"/>
     <use xlink:href="#m0f3db3f1f2" x="235.058948" y="54.482799" style="fill: #1f77b4; stroke: #1f77b4"/>
     <use xlink:href="#m0f3db3f1f2" x="247.356359" y="54.222446" style="fill: #1f77b4; stroke: #1f77b4"/>
     <use xlink:href="#m0f3db3f1f2" x="272.45247" y="56.95496" style="fill: #1f77b4; stroke: #1f77b4"/>
     <use xlink:href="#m0f3db3f1f2" x="287.701688" y="62.641326" style="fill: #1f77b4; stroke: #1f77b4"/>
     <use xlink:href="#m0f3db3f1f2" x="300.251703" y="73.974835" style="fill: #1f77b4; stroke: #1f77b4"/>
     <use xlink:href="#m0f3db3f1f2" x="324.57098" y="76.445781" style="fill: #1f77b4; stroke: #1f77b4"/>
     <use xlink:href="#m0f3db3f1f2" x="337.620732" y="83.594774" style="fill: #1f77b4; stroke: #1f77b4"/>
     <use xlink:href="#m0f3db3f1f2" x="344.700169" y="89.780807" style="fill: #1f77b4; stroke: #1f77b4"/>
     <use xlink:href="#m0f3db3f1f2" x="361.014176" y="102.918071" style="fill: #1f77b4; stroke: #1f77b4"/>
     <use xlink:href="#m0f3db3f1f2" x="368.555631" y="111.906926" style="fill: #1f77b4; stroke: #1f77b4"/>
     <use xlink:href="#m0f3db3f1f2" x="374.935958" y="121.272856" style="fill: #1f77b4; stroke: #1f77b4"/>
     <use xlink:href="#m0f3db3f1f2" x="368.407857" y="125.595292" style="fill: #1f77b4; stroke: #1f77b4"/>
     <use xlink:href="#m0f3db3f1f2" x="372.767844" y="138.305683" style="fill: #1f77b4; stroke: #1f77b4"/>
     <use xlink:href="#m0f3db3f1f2" x="375.17207" y="148.528583" style="fill: #1f77b4; stroke: #1f77b4"/>
     <use xlink:href="#m0f3db3f1f2" x="378.435917" y="157.629614" style="fill: #1f77b4; stroke: #1f77b4"/>
     <use xlink:href="#m0f3db3f1f2" x="372.825239" y="164.242678" style="fill: #1f77b4; stroke: #1f77b4"/>
     <use xlink:href="#m0f3db3f1f2" x="378.73571" y="174.249577" style="fill: #1f77b4; stroke: #1f77b4"/>
     <use xlink:href="#m0f3db3f1f2" x="365.708981" y="177.427995" style="fill: #1f77b4; stroke: #1f77b4"/>
     <use xlink:href="#m0f3db3f1f2" x="359.777201" y="183.538855" style="fill: #1f77b4; stroke: #1f77b4"/>
     <use xlink:href="#m0f3db3f1f2" x="354.575066" y="188.371953" style="fill: #1f77b4; stroke: #1f77b4"/>
     <use xlink:href="#m0f3db3f1f2" x="350.486053" y="199.780633" style="fill: #1f77b4; stroke: #1f77b4"/>
     <use xlink:href="#m0f3db3f1f2" x="348.263237" y="203.807721" style="fill: #1f77b4; stroke: #1f77b4"/>
     <use xlink:href="#m0f3db3f1f2" x="345.095403" y="202.425764" style="fill: #1f77b4; stroke: #1f77b4"/>
     <use xlink:href="#m0f3db3f1f2" x="345.463532" y="208.465787" style="fill: #1f77b4; stroke: #1f77b4"/>
     <use xlink:href="#m0f3db3f1f2" x="343.165442" y="212.529245" style="fill: #1f77b4; stroke: #1f77b4"/>
     <use xlink:href="#m0f3db3f1f2" x="331.235343" y="213.846815" style="fill: #1f77b4; stroke: #1f77b4"/>
     <use xlink:href="#m0f3db3f1f2" x="325.262497" y="220.340883" style="fill: #1f77b4; stroke: #1f77b4"/>
     <use xlink:href="#m0f3db3f1f2" x="321.283375" y="219.894821" style="fill: #1f77b4; stroke: #1f77b4"/>
     <use xlink:href="#m0f3db3f1f2" x="320.09212" y="223.359547" style="fill: #1f77b4; stroke: #1f77b4"/>
     <use xlink:href="#m0f3db3f1f2" x="316.37344" y="225.652712" style="fill: #1f77b4; stroke: #1f77b4"/>
     <use xlink:href="#m0f3db3f1f2" x="307.313505" y="228.826741" style="fill: #1f77b4; stroke: #1f77b4"/>
     <use xlink:href="#m0f3db3f1f2" x="302.582287" y="225.989769" style="fill: #1f77b4; stroke: #1f77b4"/>
     <use xlink:href="#m0f3db3f1f2" x="302.351073" y="234.433496" style="fill: #1f77b4; stroke: #1f77b4"/>
     <use xlink:href="#m0f3db3f1f2" x="299.432251" y="229.28824" style="fill: #1f77b4; stroke: #1f77b4"/>
     <use xlink:href="#m0f3db3f1f2" x="287.317394" y="235.353373" style="fill: #1f77b4; stroke: #1f77b4"/>
     <use xlink:href="#m0f3db3f1f2" x="285.862187" y="235.42088" style="fill: #1f77b4; stroke: #1f77b4"/>
     <use xlink:href="#m0f3db3f1f2" x="280.810193" y="238.08927" style="fill: #1f77b4; stroke: #1f77b4"/>
     <use xlink:href="#m0f3db3f1f2" x="279.98968" y="231.658797" style="fill: #1f77b4; stroke: #1f77b4"/>
     <use xlink:href="#m0f3db3f1f2" x="283.502864" y="231.068893" style="fill: #1f77b4; stroke: #1f77b4"/>
     <use xlink:href="#m0f3db3f1f2" x="267.75293" y="238.105077" style="fill: #1f77b4; stroke: #1f77b4"/>
     <use xlink:href="#m0f3db3f1f2" x="271.359187" y="237.100565" style="fill: #1f77b4; stroke: #1f77b4"/>
     <use xlink:href="#m0f3db3f1f2" x="260.261277" y="236.558238" style="fill: #1f77b4; stroke: #1f77b4"/>
     <use xlink:href="#m0f3db3f1f2" x="261.978803" y="229.926619" style="fill: #1f77b4; stroke: #1f77b4"/>
     <use xlink:href="#m0f3db3f1f2" x="260.192043" y="235.055065" style="fill: #1f77b4; stroke: #1f77b4"/>
     <use xlink:href="#m0f3db3f1f2" x="255.077756" y="234.283839" style="fill: #1f77b4; stroke: #1f77b4"/>
     <use xlink:href="#m0f3db3f1f2" x="252.821385" y="237.816442" style="fill: #1f77b4; stroke: #1f77b4"/>
     <use xlink:href="#m0f3db3f1f2" x="252.36598" y="237.637605" style="fill: #1f77b4; stroke: #1f77b4"/>
     <use xlink:href="#m0f3db3f1f2" x="244.785173" y="244.282598" style="fill: #1f77b4; stroke: #1f77b4"/>
     <use xlink:href="#m0f3db3f1f2" x="236.212891" y="238.67098" style="fill: #1f77b4; stroke: #1f77b4"/>
     <use xlink:href="#m0f3db3f1f2" x="245.048472" y="238.58513" style="fill: #1f77b4; stroke: #1f77b4"/>
     <use xlink:href="#m0f3db3f1f2" x="225.288962" y="234.817708" style="fill: #1f77b4; stroke: #1f77b4"/>
     <use xlink:href="#m0f3db3f1f2" x="233.562348" y="238.515932" style="fill: #1f77b4; stroke: #1f77b4"/>
     <use xlink:href="#m0f3db3f1f2" x="223.923073" y="231.983379" style="fill: #1f77b4; stroke: #1f77b4"/>
     <use xlink:href="#m0f3db3f1f2" x="225.414203" y="234.653884" style="fill: #1f77b4; stroke: #1f77b4"/>
     <use xlink:href="#m0f3db3f1f2" x="222.082837" y="234.277601" style="fill: #1f77b4; stroke: #1f77b4"/>
     <use xlink:href="#m0f3db3f1f2" x="227.505164" y="240.647387" style="fill: #1f77b4; stroke: #1f77b4"/>
     <use xlink:href="#m0f3db3f1f2" x="221.383564" y="239.86818" style="fill: #1f77b4; stroke: #1f77b4"/>
     <use xlink:href="#m0f3db3f1f2" x="222.26531" y="236.807014" style="fill: #1f77b4; stroke: #1f77b4"/>
     <use xlink:href="#m0f3db3f1f2" x="211.50385" y="238.376425" style="fill: #1f77b4; stroke: #1f77b4"/>
     <use xlink:href="#m0f3db3f1f2" x="208.287275" y="235.897233" style="fill: #1f77b4; stroke: #1f77b4"/>
     <use xlink:href="#m0f3db3f1f2" x="206.532193" y="235.79896" style="fill: #1f77b4; stroke: #1f77b4"/>
     <use xlink:href="#m0f3db3f1f2" x="208.501752" y="235.910713" style="fill: #1f77b4; stroke: #1f77b4"/>
     <use xlink:href="#m0f3db3f1f2" x="201.34508" y="230.449756" style="fill: #1f77b4; stroke: #1f77b4"/>
     <use xlink:href="#m0f3db3f1f2" x="205.198553" y="232.282375" style="fill: #1f77b4; stroke: #1f77b4"/>
     <use xlink:href="#m0f3db3f1f2" x="201.246292" y="233.314217" style="fill: #1f77b4; stroke: #1f77b4"/>
     <use xlink:href="#m0f3db3f1f2" x="200.314744" y="233.734218" style="fill: #1f77b4; stroke: #1f77b4"/>
     <use xlink:href="#m0f3db3f1f2" x="194.117706" y="229.988205" style="fill: #1f77b4; stroke: #1f77b4"/>
     <use xlink:href="#m0f3db3f1f2" x="186.895394" y="238.830416" style="fill: #1f77b4; stroke: #1f77b4"/>
     <use xlink:href="#m0f3db3f1f2" x="198.170878" y="233.542693" style="fill: #1f77b4; stroke: #1f77b4"/>
     <use xlink:href="#m0f3db3f1f2" x="187.910707" y="234.71806" style="fill: #1f77b4; stroke: #1f77b4"/>
     <use xlink:href="#m0f3db3f1f2" x="189.165807" y="231.504594" style="fill: #1f77b4; stroke: #1f77b4"/>
     <use xlink:href="#m0f3db3f1f2" x="183.396497" y="235.51244" style="fill: #1f77b4; stroke: #1f77b4"/>
     <use xlink:href="#m0f3db3f1f2" x="187.877887" y="230.340223" style="fill: #1f77b4; stroke: #1f77b4"/>
     <use xlink:href="#m0f3db3f1f2" x="181.44294" y="231.163942" style="fill: #1f77b4; stroke: #1f77b4"/>
     <use xlink:href="#m0f3db3f1f2" x="186.709574" y="230.900312" style="fill: #1f77b4; stroke: #1f77b4"/>
     <use xlink:href="#m0f3db3f1f2" x="181.014396" y="235.786273" style="fill: #1f77b4; stroke: #1f77b4"/>
     <use xlink:href="#m0f3db3f1f2" x="178.404347" y="232.5856" style="fill: #1f77b4; stroke: #1f77b4"/>
     <use xlink:href="#m0f3db3f1f2" x="177.185742" y="225.588113" style="fill: #1f77b4; stroke: #1f77b4"/>
     <use xlink:href="#m0f3db3f1f2" x="174.007458" y="231.711661" style="fill: #1f77b4; stroke: #1f77b4"/>
     <use xlink:href="#m0f3db3f1f2" x="168.888353" y="225.253593" style="fill: #1f77b4; stroke: #1f77b4"/>
     <use xlink:href="#m0f3db3f1f2" x="172.756522" y="223.507934" style="fill: #1f77b4; stroke: #1f77b4"/>
     <use xlink:href="#m0f3db3f1f2" x="167.801194" y="227.104396" style="fill: #1f77b4; stroke: #1f77b4"/>
     <use xlink:href="#m0f3db3f1f2" x="169.562481" y="225.847884" style="fill: #1f77b4; stroke: #1f77b4"/>
     <use xlink:href="#m0f3db3f1f2" x="164.88482" y="222.863053" style="fill: #1f77b4; stroke: #1f77b4"/>
     <use xlink:href="#m0f3db3f1f2" x="165.526943" y="230.523924" style="fill: #1f77b4; stroke: #1f77b4"/>
     <use xlink:href="#m0f3db3f1f2" x="164.873717" y="226.201329" style="fill: #1f77b4; stroke: #1f77b4"/>
     <use xlink:href="#m0f3db3f1f2" x="161.616974" y="227.605225" style="fill: #1f77b4; stroke: #1f77b4"/>
     <use xlink:href="#m0f3db3f1f2" x="158.954429" y="226.131179" style="fill: #1f77b4; stroke: #1f77b4"/>
     <use xlink:href="#m0f3db3f1f2" x="163.431818" y="224.312041" style="fill: #1f77b4; stroke: #1f77b4"/>
     <use xlink:href="#m0f3db3f1f2" x="159.177069" y="217.260052" style="fill: #1f77b4; stroke: #1f77b4"/>
     <use xlink:href="#m0f3db3f1f2" x="154.524229" y="224.036252" style="fill: #1f77b4; stroke: #1f77b4"/>
     <use xlink:href="#m0f3db3f1f2" x="154.305997" y="220.578769" style="fill: #1f77b4; stroke: #1f77b4"/>
     <use xlink:href="#m0f3db3f1f2" x="152.329417" y="214.74634" style="fill: #1f77b4; stroke: #1f77b4"/>
     <use xlink:href="#m0f3db3f1f2" x="147.177492" y="219.834398" style="fill: #1f77b4; stroke: #1f77b4"/>
     <use xlink:href="#m0f3db3f1f2" x="153.198998" y="213.256488" style="fill: #1f77b4; stroke: #1f77b4"/>
     <use xlink:href="#m0f3db3f1f2" x="143.729377" y="223.021115" style="fill: #1f77b4; stroke: #1f77b4"/>
     <use xlink:href="#m0f3db3f1f2" x="146.555208" y="219.125234" style="fill: #1f77b4; stroke: #1f77b4"/>
     <use xlink:href="#m0f3db3f1f2" x="145.258063" y="217.700193" style="fill: #1f77b4; stroke: #1f77b4"/>
     <use xlink:href="#m0f3db3f1f2" x="143.77175" y="214.271996" style="fill: #1f77b4; stroke: #1f77b4"/>
     <use xlink:href="#m0f3db3f1f2" x="135.98512" y="211.731218" style="fill: #1f77b4; stroke: #1f77b4"/>
     <use xlink:href="#m0f3db3f1f2" x="142.777255" y="218.662784" style="fill: #1f77b4; stroke: #1f77b4"/>
     <use xlink:href="#m0f3db3f1f2" x="136.655982" y="211.83446" style="fill: #1f77b4; stroke: #1f77b4"/>
     <use xlink:href="#m0f3db3f1f2" x="130.683462" y="217.317461" style="fill: #1f77b4; stroke: #1f77b4"/>
     <use xlink:href="#m0f3db3f1f2" x="137.282429" y="216.713602" style="fill: #1f77b4; stroke: #1f77b4"/>
     <use xlink:href="#m0f3db3f1f2" x="143.069864" y="214.953776" style="fill: #1f77b4; stroke: #1f77b4"/>
     <use xlink:href="#m0f3db3f1f2" x="134.033442" y="211.451623" style="fill: #1f77b4; stroke: #1f77b4"/>
     <use xlink:href="#m0f3db3f1f2" x="123.153273" y="209.559322" style="fill: #1f77b4; stroke: #1f77b4"/>
     <use xlink:href="#m0f3db3f1f2" x="122.727995" y="205.561837" style="fill: #1f77b4; stroke: #1f77b4"/>
     <use xlink:href="#m0f3db3f1f2" x="125.776222" y="208.919039" style="fill: #1f77b4; stroke: #1f77b4"/>
     <use xlink:href="#m0f3db3f1f2" x="131.223694" y="209.002986" style="fill: #1f77b4; stroke: #1f77b4"/>
    </g>
   </g>
   <g id="line2d_12">
    <path d="M 224.19531 295.776 
L 213.792701 292.514666 
L 203.431778 289.03009 
L 193.480812 285.443816 
L 183.9642 281.774553 
L 174.917024 278.047263 
L 166.385499 274.295652 
L 158.426449 270.564609 
L 150.63985 266.67205 
L 143.533517 262.883809 
L 136.689136 258.994318 
L 130.143767 255.023313 
L 123.938228 250.998757 
L 118.115476 246.957954 
L 112.718497 242.948232 
L 107.787866 239.026949 
L 102.803412 234.769708 
L 98.345696 230.667692 
L 94.442302 226.804141 
L 90.557 222.656795 
L 86.715802 218.196193 
L 83.483635 214.099001 
L 80.334923 209.725732 
L 77.798148 205.853383 
L 75.36476 201.7584 
L 73.061782 197.425752 
L 70.92111 192.84003 
L 69.350443 188.978805 
L 67.929711 184.937829 
L 66.684035 180.709524 
L 65.641804 176.286791 
L 64.835003 171.663272 
L 64.405842 168.060635 
L 64.145905 164.340342 
L 64.073281 160.50126 
L 64.207513 156.542964 
L 64.569637 152.465879 
L 65.182201 148.271455 
L 66.069255 143.962348 
L 67.256313 139.542628 
L 68.77026 135.018007 
L 70.639214 130.396084 
L 72.89232 125.686602 
L 74.622549 122.504198 
L 76.545755 119.292482 
L 78.670922 116.056273 
L 81.006978 112.800993 
L 83.562723 109.532696 
L 86.346729 106.258097 
L 89.367251 102.9846 
L 92.632107 99.720316 
L 96.14856 96.474078 
L 99.923185 93.255444 
L 103.961725 90.074698 
L 108.268945 86.942833 
L 112.848472 83.871525 
L 117.702638 80.873094 
L 122.832312 77.960448 
L 128.236745 75.147011 
L 133.913413 72.446638 
L 139.857871 69.873507 
L 146.06362 67.441996 
L 152.522 65.166547 
L 159.222098 63.061505 
L 166.150693 61.140957 
L 173.292228 59.418541 
L 180.628828 57.907266 
L 188.140352 56.619313 
L 195.804496 55.565844 
L 203.596939 54.756814 
L 211.491531 54.200785 
L 219.460531 53.904771 
L 227.474881 53.874087 
L 235.504517 54.112233 
L 243.518712 54.620804 
L 251.486434 55.399428 
L 259.376726 56.445749 
L 267.15908 57.755435 
L 274.803814 59.322232 
L 282.282425 61.138044 
L 289.567925 63.193053 
L 296.635139 65.475862 
L 303.460966 67.973671 
L 310.024595 70.672461 
L 316.307672 73.557208 
L 322.29442 76.612088 
L 327.9717 79.820702 
L 333.329039 83.166284 
L 338.358594 86.631914 
L 343.055087 90.200712 
L 347.415699 93.856019 
L 351.439931 97.581558 
L 355.129446 101.361586 
L 358.487879 105.181005 
L 361.520653 109.025473 
L 364.234767 112.881481 
L 366.638596 116.736411 
L 368.741686 120.57858 
L 370.554556 124.397262 
L 372.088506 128.182697 
L 373.355445 131.926079 
L 374.36772 135.619548 
L 375.137965 139.25615 
L 375.67897 142.829809 
L 376.003552 146.335284 
L 376.124456 149.768115 
L 376.054257 153.124581 
L 375.805288 156.401642 
L 375.38957 159.596887 
L 374.818759 162.708484 
L 374.10411 165.735124 
L 372.785973 170.114081 
L 371.202967 174.299036 
L 369.387205 178.290728 
L 367.368329 182.091394 
L 365.17354 185.704485 
L 362.827653 189.134417 
L 360.353198 192.38635 
L 357.770537 195.466008 
L 355.097993 198.37951 
L 351.422916 202.016774 
L 347.651186 205.38553 
L 343.811986 208.501396 
L 339.930107 211.379812 
L 336.026486 214.03583 
L 331.142862 217.065152 
L 326.280495 219.796523 
L 321.461425 222.255128 
L 316.702768 224.464338 
L 311.090277 226.816411 
L 305.599806 228.874197 
L 300.242364 230.66813 
L 294.169087 232.463726 
L 288.291514 233.975349 
L 281.815219 235.397834 
L 275.592737 236.53599 
L 268.887394 237.522246 
L 262.481887 238.239682 
L 255.698199 238.766846 
L 249.244644 239.051021 
L 242.500951 239.125138 
L 235.53637 238.965082 
L 228.947272 238.593434 
L 222.195563 237.990488 
L 215.332528 237.146076 
L 208.852093 236.132525 
L 202.291535 234.889703 
L 195.686306 233.414387 
L 189.06652 231.705558 
L 182.457412 229.763784 
L 175.879916 227.590679 
L 169.351306 225.188457 
L 163.185323 222.68699 
L 157.061333 219.969688 
L 150.992373 217.037551 
L 144.98994 213.89154 
L 139.064431 210.532479 
L 133.225521 206.960998 
L 132.546279 206.52788 
L 132.546279 206.52788 
" clip-path="url(#p8dd6ea76ff)" style="fill: none; stroke: #d62728; stroke-width: 1.5; stroke-linecap: square"/>
   </g>
   <g id="patch_3">
    <path d="M 37.848438 307.872 
L 37.848438 41.76 
" style="fill: none; stroke: #000000; stroke-width: 0.8; stroke-linejoin: miter; stroke-linecap: square"/>
   </g>
   <g id="patch_4">
    <path d="M 394.968438 307.872 
L 394.968438 41.76 
" style="fill: none; stroke: #000000; stroke-width: 0.8; stroke-linejoin: miter; stroke-linecap: square"/>
   </g>
   <g id="patch_5">
    <path d="M 37.848437 307.872 
L 394.968437 307.872 
" style="fill: none; stroke: #000000; stroke-width: 0.8; stroke-linejoin: miter; stroke-linecap: square"/>
   </g>
   <g id="patch_6">
    <path d="M 37.848437 41.76 
L 394.968437 41.76 
" style="fill: none; stroke: #000000; stroke-width: 0.8; stroke-linejoin: miter; stroke-linecap: square"/>
   </g>
   <g id="text_13">
    <g id="patch_7">
     <path d="M 412.824438 102.337163 
L 558.624438 102.337163 
Q 562.624438 102.337163 562.624438 98.337163 
L 562.624438 55.0656 
Q 562.624438 51.0656 558.624438 51.0656 
L 412.824438 51.0656 
Q 408.824438 51.0656 408.824438 55.0656 
L 408.824438 98.337163 
Q 408.824438 102.337163 412.824438 102.337163 
z
" style="fill: #ffffff; opacity: 0.5; stroke: #000000; stroke-linejoin: miter"/>
    </g>
    <!-- Summary -->
    <g transform="translate(412.824438 62.664038) scale(0.1 -0.1)">
     <defs>
      <path id="DejaVuSans-53" d="M 3425 4513 
L 3425 3897 
Q 3066 4069 2747 4153 
Q 2428 4238 2131 4238 
Q 1616 4238 1336 4038 
Q 1056 3838 1056 3469 
Q 1056 3159 1242 3001 
Q 1428 2844 1947 2747 
L 2328 2669 
Q 3034 2534 3370 2195 
Q 3706 1856 3706 1288 
Q 3706 609 3251 259 
Q 2797 -91 1919 -91 
Q 1588 -91 1214 -16 
Q 841 59 441 206 
L 441 856 
Q 825 641 1194 531 
Q 1563 422 1919 422 
Q 2459 422 2753 634 
Q 3047 847 3047 1241 
Q 3047 1584 2836 1778 
Q 2625 1972 2144 2069 
L 1759 2144 
Q 1053 2284 737 2584 
Q 422 2884 422 3419 
Q 422 4038 858 4394 
Q 1294 4750 2059 4750 
Q 2388 4750 2728 4690 
Q 3069 4631 3425 4513 
z
" transform="scale(0.015625)"/>
      <path id="DejaVuSans-75" d="M 544 1381 
L 544 3500 
L 1119 3500 
L 1119 1403 
Q 1119 906 1312 657 
Q 1506 409 1894 409 
Q 2359 409 2629 706 
Q 2900 1003 2900 1516 
L 2900 3500 
L 3475 3500 
L 3475 0 
L 2900 0 
L 2900 538 
Q 2691 219 2414 64 
Q 2138 -91 1772 -91 
Q 1169 -91 856 284 
Q 544 659 544 1381 
z
M 1991 3584 
L 1991 3584 
z
" transform="scale(0.015625)"/>
      <path id="DejaVuSans-61" d="M 2194 1759 
Q 1497 1759 1228 1600 
Q 959 1441 959 1056 
Q 959 750 1161 570 
Q 1363 391 1709 391 
Q 2188 391 2477 730 
Q 2766 1069 2766 1631 
L 2766 1759 
L 2194 1759 
z
M 3341 1997 
L 3341 0 
L 2766 0 
L 2766 531 
Q 2569 213 2275 61 
Q 1981 -91 1556 -91 
Q 1019 -91 701 211 
Q 384 513 384 1019 
Q 384 1609 779 1909 
Q 1175 2209 1959 2209 
L 2766 2209 
L 2766 2266 
Q 2766 2663 2505 2880 
Q 2244 3097 1772 3097 
Q 1472 3097 1187 3025 
Q 903 2953 641 2809 
L 641 3341 
Q 956 3463 1253 3523 
Q 1550 3584 1831 3584 
Q 2591 3584 2966 3190 
Q 3341 2797 3341 1997 
z
" transform="scale(0.015625)"/>
      <path id="DejaVuSans-72" d="M 2631 2963 
Q 2534 3019 2420 3045 
Q 2306 3072 2169 3072 
Q 1681 3072 1420 2755 
Q 1159 2438 1159 1844 
L 1159 0 
L 581 0 
L 581 3500 
L 1159 3500 
L 1159 2956 
Q 1341 3275 1631 3429 
Q 1922 3584 2338 3584 
Q 2397 3584 2469 3576 
Q 2541 3569 2628 3553 
L 2631 2963 
z
" transform="scale(0.015625)"/>
      <path id="DejaVuSans-79" d="M 2059 -325 
Q 1816 -950 1584 -1140 
Q 1353 -1331 966 -1331 
L 506 -1331 
L 506 -850 
L 844 -850 
Q 1081 -850 1212 -737 
Q 1344 -625 1503 -206 
L 1606 56 
L 191 3500 
L 800 3500 
L 1894 763 
L 2988 3500 
L 3597 3500 
L 2059 -325 
z
" transform="scale(0.015625)"/>
     </defs>
     <use xlink:href="#DejaVuSans-53"/>
     <use xlink:href="#DejaVuSans-75" x="63.476562"/>
     <use xlink:href="#DejaVuSans-6d" x="126.855469"/>
     <use xlink:href="#DejaVuSans-6d" x="224.267578"/>
     <use xlink:href="#DejaVuSans-61" x="321.679688"/>
     <use xlink:href="#DejaVuSans-72" x="382.958984"/>
     <use xlink:href="#DejaVuSans-79" x="424.072266"/>
    </g>
    <!-- $Q_I$: 17.19$\pm$0.27 k -->
    <g transform="translate(412.824438 73.86185) scale(0.1 -0.1)">
     <defs>
      <path id="DejaVuSans-Oblique-51" d="M 2309 -84 
Q 2275 -88 2237 -89 
Q 2200 -91 2125 -91 
Q 1250 -91 756 411 
Q 263 913 263 1797 
Q 263 2319 452 2844 
Q 641 3369 978 3788 
Q 1369 4269 1858 4509 
Q 2347 4750 2938 4750 
Q 3794 4750 4287 4245 
Q 4781 3741 4781 2869 
Q 4781 1928 4265 1147 
Q 3750 366 2919 44 
L 3553 -825 
L 2847 -825 
L 2309 -84 
z
M 2919 4238 
Q 2400 4238 2003 3986 
Q 1606 3734 1313 3219 
Q 1125 2891 1026 2522 
Q 928 2153 928 1778 
Q 928 1128 1239 775 
Q 1550 422 2119 422 
Q 2631 422 3032 676 
Q 3434 931 3719 1434 
Q 3909 1772 4009 2142 
Q 4109 2513 4109 2881 
Q 4109 3528 3796 3883 
Q 3484 4238 2919 4238 
z
" transform="scale(0.015625)"/>
      <path id="DejaVuSans-Oblique-49" d="M 1081 4666 
L 1716 4666 
L 806 0 
L 172 0 
L 1081 4666 
z
" transform="scale(0.015625)"/>
      <path id="DejaVuSans-3a" d="M 750 794 
L 1409 794 
L 1409 0 
L 750 0 
L 750 794 
z
M 750 3309 
L 1409 3309 
L 1409 2516 
L 750 2516 
L 750 3309 
z
" transform="scale(0.015625)"/>
      <path id="DejaVuSans-37" d="M 525 4666 
L 3525 4666 
L 3525 4397 
L 1831 0 
L 1172 0 
L 2766 4134 
L 525 4134 
L 525 4666 
z
" transform="scale(0.015625)"/>
      <path id="DejaVuSans-2e" d="M 684 794 
L 1344 794 
L 1344 0 
L 684 0 
L 684 794 
z
" transform="scale(0.015625)"/>
      <path id="DejaVuSans-39" d="M 703 97 
L 703 672 
Q 941 559 1184 500 
Q 1428 441 1663 441 
Q 2288 441 2617 861 
Q 2947 1281 2994 2138 
Q 2813 1869 2534 1725 
Q 2256 1581 1919 1581 
Q 1219 1581 811 2004 
Q 403 2428 403 3163 
Q 403 3881 828 4315 
Q 1253 4750 1959 4750 
Q 2769 4750 3195 4129 
Q 3622 3509 3622 2328 
Q 3622 1225 3098 567 
Q 2575 -91 1691 -91 
Q 1453 -91 1209 -44 
Q 966 3 703 97 
z
M 1959 2075 
Q 2384 2075 2632 2365 
Q 2881 2656 2881 3163 
Q 2881 3666 2632 3958 
Q 2384 4250 1959 4250 
Q 1534 4250 1286 3958 
Q 1038 3666 1038 3163 
Q 1038 2656 1286 2365 
Q 1534 2075 1959 2075 
z
" transform="scale(0.015625)"/>
      <path id="DejaVuSans-b1" d="M 2944 4013 
L 2944 2803 
L 4684 2803 
L 4684 2272 
L 2944 2272 
L 2944 1063 
L 2419 1063 
L 2419 2272 
L 678 2272 
L 678 2803 
L 2419 2803 
L 2419 4013 
L 2944 4013 
z
M 678 531 
L 4684 531 
L 4684 0 
L 678 0 
L 678 531 
z
" transform="scale(0.015625)"/>
      <path id="DejaVuSans-6b" d="M 581 4863 
L 1159 4863 
L 1159 1991 
L 2875 3500 
L 3609 3500 
L 1753 1863 
L 3688 0 
L 2938 0 
L 1159 1709 
L 1159 0 
L 581 0 
L 581 4863 
z
" transform="scale(0.015625)"/>
     </defs>
     <use xlink:href="#DejaVuSans-Oblique-51" transform="translate(0 0.015625)"/>
     <use xlink:href="#DejaVuSans-Oblique-49" transform="translate(78.710938 -16.390625) scale(0.7)"/>
     <use xlink:href="#DejaVuSans-3a" transform="translate(102.089844 0.015625)"/>
     <use xlink:href="#DejaVuSans-20" transform="translate(135.78125 0.015625)"/>
     <use xlink:href="#DejaVuSans-31" transform="translate(167.568359 0.015625)"/>
     <use xlink:href="#DejaVuSans-37" transform="translate(231.191406 0.015625)"/>
     <use xlink:href="#DejaVuSans-2e" transform="translate(294.814453 0.015625)"/>
     <use xlink:href="#DejaVuSans-31" transform="translate(326.601562 0.015625)"/>
     <use xlink:href="#DejaVuSans-39" transform="translate(390.224609 0.015625)"/>
     <use xlink:href="#DejaVuSans-b1" transform="translate(453.847656 0.015625)"/>
     <use xlink:href="#DejaVuSans-30" transform="translate(537.636719 0.015625)"/>
     <use xlink:href="#DejaVuSans-2e" transform="translate(601.259766 0.015625)"/>
     <use xlink:href="#DejaVuSans-32" transform="translate(627.546875 0.015625)"/>
     <use xlink:href="#DejaVuSans-37" transform="translate(691.169922 0.015625)"/>
     <use xlink:href="#DejaVuSans-20" transform="translate(754.792969 0.015625)"/>
     <use xlink:href="#DejaVuSans-6b" transform="translate(786.580078 0.015625)"/>
    </g>
    <!-- $Q_C$: 4.636$\pm$0.023 k -->
    <g transform="translate(412.824438 85.059663) scale(0.1 -0.1)">
     <defs>
      <path id="DejaVuSans-Oblique-43" d="M 4447 4306 
L 4319 3641 
Q 4019 3944 3683 4091 
Q 3347 4238 2956 4238 
Q 2422 4238 2017 3981 
Q 1613 3725 1319 3200 
Q 1131 2863 1032 2486 
Q 934 2109 934 1728 
Q 934 1091 1264 756 
Q 1594 422 2222 422 
Q 2656 422 3056 561 
Q 3456 700 3834 978 
L 3688 231 
Q 3316 72 2936 -9 
Q 2556 -91 2175 -91 
Q 1278 -91 773 396 
Q 269 884 269 1753 
Q 269 2309 461 2846 
Q 653 3384 1013 3828 
Q 1394 4300 1883 4525 
Q 2372 4750 3022 4750 
Q 3422 4750 3780 4639 
Q 4138 4528 4447 4306 
z
" transform="scale(0.015625)"/>
      <path id="DejaVuSans-36" d="M 2113 2584 
Q 1688 2584 1439 2293 
Q 1191 2003 1191 1497 
Q 1191 994 1439 701 
Q 1688 409 2113 409 
Q 2538 409 2786 701 
Q 3034 994 3034 1497 
Q 3034 2003 2786 2293 
Q 2538 2584 2113 2584 
z
M 3366 4563 
L 3366 3988 
Q 3128 4100 2886 4159 
Q 2644 4219 2406 4219 
Q 1781 4219 1451 3797 
Q 1122 3375 1075 2522 
Q 1259 2794 1537 2939 
Q 1816 3084 2150 3084 
Q 2853 3084 3261 2657 
Q 3669 2231 3669 1497 
Q 3669 778 3244 343 
Q 2819 -91 2113 -91 
Q 1303 -91 875 529 
Q 447 1150 447 2328 
Q 447 3434 972 4092 
Q 1497 4750 2381 4750 
Q 2619 4750 2861 4703 
Q 3103 4656 3366 4563 
z
" transform="scale(0.015625)"/>
     </defs>
     <use xlink:href="#DejaVuSans-Oblique-51" transform="translate(0 0.015625)"/>
     <use xlink:href="#DejaVuSans-Oblique-43" transform="translate(78.710938 -16.390625) scale(0.7)"/>
     <use xlink:href="#DejaVuSans-3a" transform="translate(130.322266 0.015625)"/>
     <use xlink:href="#DejaVuSans-20" transform="translate(164.013672 0.015625)"/>
     <use xlink:href="#DejaVuSans-34" transform="translate(195.800781 0.015625)"/>
     <use xlink:href="#DejaVuSans-2e" transform="translate(259.423828 0.015625)"/>
     <use xlink:href="#DejaVuSans-36" transform="translate(291.210938 0.015625)"/>
     <use xlink:href="#DejaVuSans-33" transform="translate(354.833984 0.015625)"/>
     <use xlink:href="#DejaVuSans-36" transform="translate(418.457031 0.015625)"/>
     <use xlink:href="#DejaVuSans-b1" transform="translate(482.080078 0.015625)"/>
     <use xlink:href="#DejaVuSans-30" transform="translate(565.869141 0.015625)"/>
     <use xlink:href="#DejaVuSans-2e" transform="translate(629.492188 0.015625)"/>
     <use xlink:href="#DejaVuSans-30" transform="translate(661.279297 0.015625)"/>
     <use xlink:href="#DejaVuSans-32" transform="translate(724.902344 0.015625)"/>
     <use xlink:href="#DejaVuSans-33" transform="translate(788.525391 0.015625)"/>
     <use xlink:href="#DejaVuSans-20" transform="translate(852.148438 0.015625)"/>
     <use xlink:href="#DejaVuSans-6b" transform="translate(883.935547 0.015625)"/>
    </g>
    <!-- $f_{res}$: 5.9134904$\pm$4.5e-06 GHz -->
    <g transform="translate(412.824438 96.257475) scale(0.1 -0.1)">
     <defs>
      <path id="DejaVuSans-Oblique-66" d="M 3059 4863 
L 2969 4384 
L 2419 4384 
Q 2106 4384 1964 4261 
Q 1822 4138 1753 3809 
L 1691 3500 
L 2638 3500 
L 2553 3053 
L 1606 3053 
L 1013 0 
L 434 0 
L 1031 3053 
L 481 3053 
L 563 3500 
L 1113 3500 
L 1159 3744 
Q 1278 4363 1576 4613 
Q 1875 4863 2516 4863 
L 3059 4863 
z
" transform="scale(0.015625)"/>
      <path id="DejaVuSans-Oblique-72" d="M 2853 2969 
Q 2766 3016 2653 3041 
Q 2541 3066 2413 3066 
Q 1953 3066 1609 2717 
Q 1266 2369 1153 1784 
L 800 0 
L 225 0 
L 909 3500 
L 1484 3500 
L 1375 2956 
Q 1603 3259 1920 3421 
Q 2238 3584 2597 3584 
Q 2691 3584 2781 3573 
Q 2872 3563 2963 3538 
L 2853 2969 
z
" transform="scale(0.015625)"/>
      <path id="DejaVuSans-Oblique-65" d="M 3078 2063 
Q 3088 2113 3092 2166 
Q 3097 2219 3097 2272 
Q 3097 2653 2873 2875 
Q 2650 3097 2266 3097 
Q 1838 3097 1509 2826 
Q 1181 2556 1013 2059 
L 3078 2063 
z
M 3578 1613 
L 903 1613 
Q 884 1494 878 1425 
Q 872 1356 872 1306 
Q 872 872 1139 634 
Q 1406 397 1894 397 
Q 2269 397 2603 481 
Q 2938 566 3225 728 
L 3116 159 
Q 2806 34 2476 -28 
Q 2147 -91 1806 -91 
Q 1078 -91 686 257 
Q 294 606 294 1247 
Q 294 1794 489 2264 
Q 684 2734 1063 3103 
Q 1306 3334 1642 3459 
Q 1978 3584 2356 3584 
Q 2950 3584 3301 3228 
Q 3653 2872 3653 2272 
Q 3653 2128 3634 1964 
Q 3616 1800 3578 1613 
z
" transform="scale(0.015625)"/>
      <path id="DejaVuSans-Oblique-73" d="M 3200 3397 
L 3091 2853 
Q 2863 2978 2609 3040 
Q 2356 3103 2088 3103 
Q 1634 3103 1373 2948 
Q 1113 2794 1113 2528 
Q 1113 2219 1719 2053 
Q 1766 2041 1788 2034 
L 1972 1978 
Q 2547 1819 2739 1644 
Q 2931 1469 2931 1166 
Q 2931 609 2489 259 
Q 2047 -91 1331 -91 
Q 1053 -91 747 -37 
Q 441 16 72 128 
L 184 722 
Q 500 559 806 475 
Q 1113 391 1394 391 
Q 1816 391 2080 572 
Q 2344 753 2344 1031 
Q 2344 1331 1650 1516 
L 1591 1531 
L 1394 1581 
Q 956 1697 753 1886 
Q 550 2075 550 2369 
Q 550 2928 970 3256 
Q 1391 3584 2113 3584 
Q 2397 3584 2667 3537 
Q 2938 3491 3200 3397 
z
" transform="scale(0.015625)"/>
      <path id="DejaVuSans-47" d="M 3809 666 
L 3809 1919 
L 2778 1919 
L 2778 2438 
L 4434 2438 
L 4434 434 
Q 4069 175 3628 42 
Q 3188 -91 2688 -91 
Q 1594 -91 976 548 
Q 359 1188 359 2328 
Q 359 3472 976 4111 
Q 1594 4750 2688 4750 
Q 3144 4750 3555 4637 
Q 3966 4525 4313 4306 
L 4313 3634 
Q 3963 3931 3569 4081 
Q 3175 4231 2741 4231 
Q 1884 4231 1454 3753 
Q 1025 3275 1025 2328 
Q 1025 1384 1454 906 
Q 1884 428 2741 428 
Q 3075 428 3337 486 
Q 3600 544 3809 666 
z
" transform="scale(0.015625)"/>
      <path id="DejaVuSans-48" d="M 628 4666 
L 1259 4666 
L 1259 2753 
L 3553 2753 
L 3553 4666 
L 4184 4666 
L 4184 0 
L 3553 0 
L 3553 2222 
L 1259 2222 
L 1259 0 
L 628 0 
L 628 4666 
z
" transform="scale(0.015625)"/>
      <path id="DejaVuSans-7a" d="M 353 3500 
L 3084 3500 
L 3084 2975 
L 922 459 
L 3084 459 
L 3084 0 
L 275 0 
L 275 525 
L 2438 3041 
L 353 3041 
L 353 3500 
z
" transform="scale(0.015625)"/>
     </defs>
     <use xlink:href="#DejaVuSans-Oblique-66" transform="translate(0 0.015625)"/>
     <use xlink:href="#DejaVuSans-Oblique-72" transform="translate(35.205078 -16.390625) scale(0.7)"/>
     <use xlink:href="#DejaVuSans-Oblique-65" transform="translate(63.984375 -16.390625) scale(0.7)"/>
     <use xlink:href="#DejaVuSans-Oblique-73" transform="translate(107.050781 -16.390625) scale(0.7)"/>
     <use xlink:href="#DejaVuSans-3a" transform="translate(146.254883 0.015625)"/>
     <use xlink:href="#DejaVuSans-20" transform="translate(179.946289 0.015625)"/>
     <use xlink:href="#DejaVuSans-35" transform="translate(211.733398 0.015625)"/>
     <use xlink:href="#DejaVuSans-2e" transform="translate(275.356445 0.015625)"/>
     <use xlink:href="#DejaVuSans-39" transform="translate(307.143555 0.015625)"/>
     <use xlink:href="#DejaVuSans-31" transform="translate(370.766602 0.015625)"/>
     <use xlink:href="#DejaVuSans-33" transform="translate(434.389648 0.015625)"/>
     <use xlink:href="#DejaVuSans-34" transform="translate(498.012695 0.015625)"/>
     <use xlink:href="#DejaVuSans-39" transform="translate(561.635742 0.015625)"/>
     <use xlink:href="#DejaVuSans-30" transform="translate(625.258789 0.015625)"/>
     <use xlink:href="#DejaVuSans-34" transform="translate(688.881836 0.015625)"/>
     <use xlink:href="#DejaVuSans-b1" transform="translate(752.504883 0.015625)"/>
     <use xlink:href="#DejaVuSans-34" transform="translate(836.293945 0.015625)"/>
     <use xlink:href="#DejaVuSans-2e" transform="translate(899.916992 0.015625)"/>
     <use xlink:href="#DejaVuSans-35" transform="translate(931.704102 0.015625)"/>
     <use xlink:href="#DejaVuSans-65" transform="translate(995.327148 0.015625)"/>
     <use xlink:href="#DejaVuSans-2d" transform="translate(1056.850586 0.015625)"/>
     <use xlink:href="#DejaVuSans-30" transform="translate(1092.93457 0.015625)"/>
     <use xlink:href="#DejaVuSans-36" transform="translate(1156.557617 0.015625)"/>
     <use xlink:href="#DejaVuSans-20" transform="translate(1220.180664 0.015625)"/>
     <use xlink:href="#DejaVuSans-47" transform="translate(1251.967773 0.015625)"/>
     <use xlink:href="#DejaVuSans-48" transform="translate(1329.458008 0.015625)"/>
     <use xlink:href="#DejaVuSans-7a" transform="translate(1404.65332 0.015625)"/>
    </g>
   </g>
  </g>
  <g id="text_14">
   <!-- S21 resonator spectroscopy -->
   <g transform="translate(126.864063 16.318125) scale(0.12 -0.12)">
    <defs>
     <path id="DejaVuSans-73" d="M 2834 3397 
L 2834 2853 
Q 2591 2978 2328 3040 
Q 2066 3103 1784 3103 
Q 1356 3103 1142 2972 
Q 928 2841 928 2578 
Q 928 2378 1081 2264 
Q 1234 2150 1697 2047 
L 1894 2003 
Q 2506 1872 2764 1633 
Q 3022 1394 3022 966 
Q 3022 478 2636 193 
Q 2250 -91 1575 -91 
Q 1294 -91 989 -36 
Q 684 19 347 128 
L 347 722 
Q 666 556 975 473 
Q 1284 391 1588 391 
Q 1994 391 2212 530 
Q 2431 669 2431 922 
Q 2431 1156 2273 1281 
Q 2116 1406 1581 1522 
L 1381 1569 
Q 847 1681 609 1914 
Q 372 2147 372 2553 
Q 372 3047 722 3315 
Q 1072 3584 1716 3584 
Q 2034 3584 2315 3537 
Q 2597 3491 2834 3397 
z
" transform="scale(0.015625)"/>
     <path id="DejaVuSans-6f" d="M 1959 3097 
Q 1497 3097 1228 2736 
Q 959 2375 959 1747 
Q 959 1119 1226 758 
Q 1494 397 1959 397 
Q 2419 397 2687 759 
Q 2956 1122 2956 1747 
Q 2956 2369 2687 2733 
Q 2419 3097 1959 3097 
z
M 1959 3584 
Q 2709 3584 3137 3096 
Q 3566 2609 3566 1747 
Q 3566 888 3137 398 
Q 2709 -91 1959 -91 
Q 1206 -91 779 398 
Q 353 888 353 1747 
Q 353 2609 779 3096 
Q 1206 3584 1959 3584 
z
" transform="scale(0.015625)"/>
     <path id="DejaVuSans-6e" d="M 3513 2113 
L 3513 0 
L 2938 0 
L 2938 2094 
Q 2938 2591 2744 2837 
Q 2550 3084 2163 3084 
Q 1697 3084 1428 2787 
Q 1159 2491 1159 1978 
L 1159 0 
L 581 0 
L 581 3500 
L 1159 3500 
L 1159 2956 
Q 1366 3272 1645 3428 
Q 1925 3584 2291 3584 
Q 2894 3584 3203 3211 
Q 3513 2838 3513 2113 
z
" transform="scale(0.015625)"/>
     <path id="DejaVuSans-74" d="M 1172 4494 
L 1172 3500 
L 2356 3500 
L 2356 3053 
L 1172 3053 
L 1172 1153 
Q 1172 725 1289 603 
Q 1406 481 1766 481 
L 2356 481 
L 2356 0 
L 1766 0 
Q 1100 0 847 248 
Q 594 497 594 1153 
L 594 3053 
L 172 3053 
L 172 3500 
L 594 3500 
L 594 4494 
L 1172 4494 
z
" transform="scale(0.015625)"/>
     <path id="DejaVuSans-70" d="M 1159 525 
L 1159 -1331 
L 581 -1331 
L 581 3500 
L 1159 3500 
L 1159 2969 
Q 1341 3281 1617 3432 
Q 1894 3584 2278 3584 
Q 2916 3584 3314 3078 
Q 3713 2572 3713 1747 
Q 3713 922 3314 415 
Q 2916 -91 2278 -91 
Q 1894 -91 1617 61 
Q 1341 213 1159 525 
z
M 3116 1747 
Q 3116 2381 2855 2742 
Q 2594 3103 2138 3103 
Q 1681 3103 1420 2742 
Q 1159 2381 1159 1747 
Q 1159 1113 1420 752 
Q 1681 391 2138 391 
Q 2594 391 2855 752 
Q 3116 1113 3116 1747 
z
" transform="scale(0.015625)"/>
     <path id="DejaVuSans-63" d="M 3122 3366 
L 3122 2828 
Q 2878 2963 2633 3030 
Q 2388 3097 2138 3097 
Q 1578 3097 1268 2742 
Q 959 2388 959 1747 
Q 959 1106 1268 751 
Q 1578 397 2138 397 
Q 2388 397 2633 464 
Q 2878 531 3122 666 
L 3122 134 
Q 2881 22 2623 -34 
Q 2366 -91 2075 -91 
Q 1284 -91 818 406 
Q 353 903 353 1747 
Q 353 2603 823 3093 
Q 1294 3584 2113 3584 
Q 2378 3584 2631 3529 
Q 2884 3475 3122 3366 
z
" transform="scale(0.015625)"/>
    </defs>
    <use xlink:href="#DejaVuSans-53"/>
    <use xlink:href="#DejaVuSans-32" x="63.476562"/>
    <use xlink:href="#DejaVuSans-31" x="127.099609"/>
    <use xlink:href="#DejaVuSans-20" x="190.722656"/>
    <use xlink:href="#DejaVuSans-72" x="222.509766"/>
    <use xlink:href="#DejaVuSans-65" x="261.373047"/>
    <use xlink:href="#DejaVuSans-73" x="322.896484"/>
    <use xlink:href="#DejaVuSans-6f" x="374.996094"/>
    <use xlink:href="#DejaVuSans-6e" x="436.177734"/>
    <use xlink:href="#DejaVuSans-61" x="499.556641"/>
    <use xlink:href="#DejaVuSans-74" x="560.835938"/>
    <use xlink:href="#DejaVuSans-6f" x="600.044922"/>
    <use xlink:href="#DejaVuSans-72" x="661.226562"/>
    <use xlink:href="#DejaVuSans-20" x="702.339844"/>
    <use xlink:href="#DejaVuSans-73" x="734.126953"/>
    <use xlink:href="#DejaVuSans-70" x="786.226562"/>
    <use xlink:href="#DejaVuSans-65" x="849.703125"/>
    <use xlink:href="#DejaVuSans-63" x="911.226562"/>
    <use xlink:href="#DejaVuSans-74" x="966.207031"/>
    <use xlink:href="#DejaVuSans-72" x="1005.416016"/>
    <use xlink:href="#DejaVuSans-6f" x="1044.279297"/>
    <use xlink:href="#DejaVuSans-73" x="1105.460938"/>
    <use xlink:href="#DejaVuSans-63" x="1157.560547"/>
    <use xlink:href="#DejaVuSans-6f" x="1212.541016"/>
    <use xlink:href="#DejaVuSans-70" x="1273.722656"/>
    <use xlink:href="#DejaVuSans-79" x="1337.199219"/>
   </g>
   <!-- tuid: 20240104-120242-490-18e2f6 -->
   <g transform="translate(102.624063 29.7555) scale(0.12 -0.12)">
    <defs>
     <path id="DejaVuSans-69" d="M 603 3500 
L 1178 3500 
L 1178 0 
L 603 0 
L 603 3500 
z
M 603 4863 
L 1178 4863 
L 1178 4134 
L 603 4134 
L 603 4863 
z
" transform="scale(0.015625)"/>
     <path id="DejaVuSans-64" d="M 2906 2969 
L 2906 4863 
L 3481 4863 
L 3481 0 
L 2906 0 
L 2906 525 
Q 2725 213 2448 61 
Q 2172 -91 1784 -91 
Q 1150 -91 751 415 
Q 353 922 353 1747 
Q 353 2572 751 3078 
Q 1150 3584 1784 3584 
Q 2172 3584 2448 3432 
Q 2725 3281 2906 2969 
z
M 947 1747 
Q 947 1113 1208 752 
Q 1469 391 1925 391 
Q 2381 391 2643 752 
Q 2906 1113 2906 1747 
Q 2906 2381 2643 2742 
Q 2381 3103 1925 3103 
Q 1469 3103 1208 2742 
Q 947 2381 947 1747 
z
" transform="scale(0.015625)"/>
     <path id="DejaVuSans-38" d="M 2034 2216 
Q 1584 2216 1326 1975 
Q 1069 1734 1069 1313 
Q 1069 891 1326 650 
Q 1584 409 2034 409 
Q 2484 409 2743 651 
Q 3003 894 3003 1313 
Q 3003 1734 2745 1975 
Q 2488 2216 2034 2216 
z
M 1403 2484 
Q 997 2584 770 2862 
Q 544 3141 544 3541 
Q 544 4100 942 4425 
Q 1341 4750 2034 4750 
Q 2731 4750 3128 4425 
Q 3525 4100 3525 3541 
Q 3525 3141 3298 2862 
Q 3072 2584 2669 2484 
Q 3125 2378 3379 2068 
Q 3634 1759 3634 1313 
Q 3634 634 3220 271 
Q 2806 -91 2034 -91 
Q 1263 -91 848 271 
Q 434 634 434 1313 
Q 434 1759 690 2068 
Q 947 2378 1403 2484 
z
M 1172 3481 
Q 1172 3119 1398 2916 
Q 1625 2713 2034 2713 
Q 2441 2713 2670 2916 
Q 2900 3119 2900 3481 
Q 2900 3844 2670 4047 
Q 2441 4250 2034 4250 
Q 1625 4250 1398 4047 
Q 1172 3844 1172 3481 
z
" transform="scale(0.015625)"/>
     <path id="DejaVuSans-66" d="M 2375 4863 
L 2375 4384 
L 1825 4384 
Q 1516 4384 1395 4259 
Q 1275 4134 1275 3809 
L 1275 3500 
L 2222 3500 
L 2222 3053 
L 1275 3053 
L 1275 0 
L 697 0 
L 697 3053 
L 147 3053 
L 147 3500 
L 697 3500 
L 697 3744 
Q 697 4328 969 4595 
Q 1241 4863 1831 4863 
L 2375 4863 
z
" transform="scale(0.015625)"/>
    </defs>
    <use xlink:href="#DejaVuSans-74"/>
    <use xlink:href="#DejaVuSans-75" x="39.208984"/>
    <use xlink:href="#DejaVuSans-69" x="102.587891"/>
    <use xlink:href="#DejaVuSans-64" x="130.371094"/>
    <use xlink:href="#DejaVuSans-3a" x="193.847656"/>
    <use xlink:href="#DejaVuSans-20" x="227.539062"/>
    <use xlink:href="#DejaVuSans-32" x="259.326172"/>
    <use xlink:href="#DejaVuSans-30" x="322.949219"/>
    <use xlink:href="#DejaVuSans-32" x="386.572266"/>
    <use xlink:href="#DejaVuSans-34" x="450.195312"/>
    <use xlink:href="#DejaVuSans-30" x="513.818359"/>
    <use xlink:href="#DejaVuSans-31" x="577.441406"/>
    <use xlink:href="#DejaVuSans-30" x="641.064453"/>
    <use xlink:href="#DejaVuSans-34" x="704.6875"/>
    <use xlink:href="#DejaVuSans-2d" x="768.310547"/>
    <use xlink:href="#DejaVuSans-31" x="804.394531"/>
    <use xlink:href="#DejaVuSans-32" x="868.017578"/>
    <use xlink:href="#DejaVuSans-30" x="931.640625"/>
    <use xlink:href="#DejaVuSans-32" x="995.263672"/>
    <use xlink:href="#DejaVuSans-34" x="1058.886719"/>
    <use xlink:href="#DejaVuSans-32" x="1122.509766"/>
    <use xlink:href="#DejaVuSans-2d" x="1186.132812"/>
    <use xlink:href="#DejaVuSans-34" x="1222.216797"/>
    <use xlink:href="#DejaVuSans-39" x="1285.839844"/>
    <use xlink:href="#DejaVuSans-30" x="1349.462891"/>
    <use xlink:href="#DejaVuSans-2d" x="1413.085938"/>
    <use xlink:href="#DejaVuSans-31" x="1449.169922"/>
    <use xlink:href="#DejaVuSans-38" x="1512.792969"/>
    <use xlink:href="#DejaVuSans-65" x="1576.416016"/>
    <use xlink:href="#DejaVuSans-32" x="1637.939453"/>
    <use xlink:href="#DejaVuSans-66" x="1701.5625"/>
    <use xlink:href="#DejaVuSans-36" x="1736.767578"/>
   </g>
  </g>
 </g>
 <defs>
  <clipPath id="p8dd6ea76ff">
   <rect x="37.848438" y="41.76" width="357.12" height="266.112"/>
  </clipPath>
 </defs>
</svg>
