<?xml version="1.0" encoding="utf-8" standalone="no"?>
<!DOCTYPE svg PUBLIC "-//W3C//DTD SVG 1.1//EN"
  "http://www.w3.org/Graphics/SVG/1.1/DTD/svg11.dtd">
<svg xmlns:xlink="http://www.w3.org/1999/xlink" width="643.841625pt" height="345.42825pt" viewBox="0 0 643.841625 345.42825" xmlns="http://www.w3.org/2000/svg" version="1.1">
 <metadata>
  <rdf:RDF xmlns:dc="http://purl.org/dc/elements/1.1/" xmlns:cc="http://creativecommons.org/ns#" xmlns:rdf="http://www.w3.org/1999/02/22-rdf-syntax-ns#">
   <cc:Work>
    <dc:type rdf:resource="http://purl.org/dc/dcmitype/StillImage"/>
    <dc:date>2024-03-04T15:13:26.834172</dc:date>
    <dc:format>image/svg+xml</dc:format>
    <dc:creator>
     <cc:Agent>
      <dc:title>Matplotlib v3.8.2, https://matplotlib.org/</dc:title>
     </cc:Agent>
    </dc:creator>
   </cc:Work>
  </rdf:RDF>
 </metadata>
 <defs>
  <style type="text/css">*{stroke-linejoin: round; stroke-linecap: butt}</style>
 </defs>
 <g id="figure_1">
  <g id="patch_1">
   <path d="M 0 345.42825 
L 643.841625 345.42825 
L 643.841625 -0 
L 0 -0 
L 0 345.42825 
z
" style="fill: none; opacity: 0"/>
  </g>
  <g id="axes_1">
   <g id="patch_2">
    <path d="M 43.78125 307.872 
L 400.90125 307.872 
L 400.90125 41.76 
L 43.78125 41.76 
z
" style="fill: #ffffff"/>
   </g>
   <g id="matplotlib.axis_1">
    <g id="xtick_1">
     <g id="line2d_1">
      <defs>
       <path id="mb721655158" d="M 0 0 
L 0 3.5 
" style="stroke: #000000; stroke-width: 0.8"/>
      </defs>
      <g>
       <use xlink:href="#mb721655158" x="52.003283" y="307.872" style="stroke: #000000; stroke-width: 0.8"/>
      </g>
     </g>
     <g id="text_1">
      <!-- 356 -->
      <g transform="translate(42.459533 322.470438) scale(0.1 -0.1)">
       <defs>
        <path id="DejaVuSans-33" d="M 2597 2516 
Q 3050 2419 3304 2112 
Q 3559 1806 3559 1356 
Q 3559 666 3084 287 
Q 2609 -91 1734 -91 
Q 1441 -91 1130 -33 
Q 819 25 488 141 
L 488 750 
Q 750 597 1062 519 
Q 1375 441 1716 441 
Q 2309 441 2620 675 
Q 2931 909 2931 1356 
Q 2931 1769 2642 2001 
Q 2353 2234 1838 2234 
L 1294 2234 
L 1294 2753 
L 1863 2753 
Q 2328 2753 2575 2939 
Q 2822 3125 2822 3475 
Q 2822 3834 2567 4026 
Q 2313 4219 1838 4219 
Q 1578 4219 1281 4162 
Q 984 4106 628 3988 
L 628 4550 
Q 988 4650 1302 4700 
Q 1616 4750 1894 4750 
Q 2613 4750 3031 4423 
Q 3450 4097 3450 3541 
Q 3450 3153 3228 2886 
Q 3006 2619 2597 2516 
z
" transform="scale(0.015625)"/>
        <path id="DejaVuSans-35" d="M 691 4666 
L 3169 4666 
L 3169 4134 
L 1269 4134 
L 1269 2991 
Q 1406 3038 1543 3061 
Q 1681 3084 1819 3084 
Q 2600 3084 3056 2656 
Q 3513 2228 3513 1497 
Q 3513 744 3044 326 
Q 2575 -91 1722 -91 
Q 1428 -91 1123 -41 
Q 819 9 494 109 
L 494 744 
Q 775 591 1075 516 
Q 1375 441 1709 441 
Q 2250 441 2565 725 
Q 2881 1009 2881 1497 
Q 2881 1984 2565 2268 
Q 2250 2553 1709 2553 
Q 1456 2553 1204 2497 
Q 953 2441 691 2322 
L 691 4666 
z
" transform="scale(0.015625)"/>
        <path id="DejaVuSans-36" d="M 2113 2584 
Q 1688 2584 1439 2293 
Q 1191 2003 1191 1497 
Q 1191 994 1439 701 
Q 1688 409 2113 409 
Q 2538 409 2786 701 
Q 3034 994 3034 1497 
Q 3034 2003 2786 2293 
Q 2538 2584 2113 2584 
z
M 3366 4563 
L 3366 3988 
Q 3128 4100 2886 4159 
Q 2644 4219 2406 4219 
Q 1781 4219 1451 3797 
Q 1122 3375 1075 2522 
Q 1259 2794 1537 2939 
Q 1816 3084 2150 3084 
Q 2853 3084 3261 2657 
Q 3669 2231 3669 1497 
Q 3669 778 3244 343 
Q 2819 -91 2113 -91 
Q 1303 -91 875 529 
Q 447 1150 447 2328 
Q 447 3434 972 4092 
Q 1497 4750 2381 4750 
Q 2619 4750 2861 4703 
Q 3103 4656 3366 4563 
z
" transform="scale(0.015625)"/>
       </defs>
       <use xlink:href="#DejaVuSans-33"/>
       <use xlink:href="#DejaVuSans-35" x="63.623047"/>
       <use xlink:href="#DejaVuSans-36" x="127.246094"/>
      </g>
     </g>
    </g>
    <g id="xtick_2">
     <g id="line2d_2">
      <g>
       <use xlink:href="#mb721655158" x="106.112374" y="307.872" style="stroke: #000000; stroke-width: 0.8"/>
      </g>
     </g>
     <g id="text_2">
      <!-- 357 -->
      <g transform="translate(96.568624 322.470438) scale(0.1 -0.1)">
       <defs>
        <path id="DejaVuSans-37" d="M 525 4666 
L 3525 4666 
L 3525 4397 
L 1831 0 
L 1172 0 
L 2766 4134 
L 525 4134 
L 525 4666 
z
" transform="scale(0.015625)"/>
       </defs>
       <use xlink:href="#DejaVuSans-33"/>
       <use xlink:href="#DejaVuSans-35" x="63.623047"/>
       <use xlink:href="#DejaVuSans-37" x="127.246094"/>
      </g>
     </g>
    </g>
    <g id="xtick_3">
     <g id="line2d_3">
      <g>
       <use xlink:href="#mb721655158" x="160.221465" y="307.872" style="stroke: #000000; stroke-width: 0.8"/>
      </g>
     </g>
     <g id="text_3">
      <!-- 358 -->
      <g transform="translate(150.677715 322.470438) scale(0.1 -0.1)">
       <defs>
        <path id="DejaVuSans-38" d="M 2034 2216 
Q 1584 2216 1326 1975 
Q 1069 1734 1069 1313 
Q 1069 891 1326 650 
Q 1584 409 2034 409 
Q 2484 409 2743 651 
Q 3003 894 3003 1313 
Q 3003 1734 2745 1975 
Q 2488 2216 2034 2216 
z
M 1403 2484 
Q 997 2584 770 2862 
Q 544 3141 544 3541 
Q 544 4100 942 4425 
Q 1341 4750 2034 4750 
Q 2731 4750 3128 4425 
Q 3525 4100 3525 3541 
Q 3525 3141 3298 2862 
Q 3072 2584 2669 2484 
Q 3125 2378 3379 2068 
Q 3634 1759 3634 1313 
Q 3634 634 3220 271 
Q 2806 -91 2034 -91 
Q 1263 -91 848 271 
Q 434 634 434 1313 
Q 434 1759 690 2068 
Q 947 2378 1403 2484 
z
M 1172 3481 
Q 1172 3119 1398 2916 
Q 1625 2713 2034 2713 
Q 2441 2713 2670 2916 
Q 2900 3119 2900 3481 
Q 2900 3844 2670 4047 
Q 2441 4250 2034 4250 
Q 1625 4250 1398 4047 
Q 1172 3844 1172 3481 
z
" transform="scale(0.015625)"/>
       </defs>
       <use xlink:href="#DejaVuSans-33"/>
       <use xlink:href="#DejaVuSans-35" x="63.623047"/>
       <use xlink:href="#DejaVuSans-38" x="127.246094"/>
      </g>
     </g>
    </g>
    <g id="xtick_4">
     <g id="line2d_4">
      <g>
       <use xlink:href="#mb721655158" x="214.330555" y="307.872" style="stroke: #000000; stroke-width: 0.8"/>
      </g>
     </g>
     <g id="text_4">
      <!-- 359 -->
      <g transform="translate(204.786805 322.470438) scale(0.1 -0.1)">
       <defs>
        <path id="DejaVuSans-39" d="M 703 97 
L 703 672 
Q 941 559 1184 500 
Q 1428 441 1663 441 
Q 2288 441 2617 861 
Q 2947 1281 2994 2138 
Q 2813 1869 2534 1725 
Q 2256 1581 1919 1581 
Q 1219 1581 811 2004 
Q 403 2428 403 3163 
Q 403 3881 828 4315 
Q 1253 4750 1959 4750 
Q 2769 4750 3195 4129 
Q 3622 3509 3622 2328 
Q 3622 1225 3098 567 
Q 2575 -91 1691 -91 
Q 1453 -91 1209 -44 
Q 966 3 703 97 
z
M 1959 2075 
Q 2384 2075 2632 2365 
Q 2881 2656 2881 3163 
Q 2881 3666 2632 3958 
Q 2384 4250 1959 4250 
Q 1534 4250 1286 3958 
Q 1038 3666 1038 3163 
Q 1038 2656 1286 2365 
Q 1534 2075 1959 2075 
z
" transform="scale(0.015625)"/>
       </defs>
       <use xlink:href="#DejaVuSans-33"/>
       <use xlink:href="#DejaVuSans-35" x="63.623047"/>
       <use xlink:href="#DejaVuSans-39" x="127.246094"/>
      </g>
     </g>
    </g>
    <g id="xtick_5">
     <g id="line2d_5">
      <g>
       <use xlink:href="#mb721655158" x="268.439646" y="307.872" style="stroke: #000000; stroke-width: 0.8"/>
      </g>
     </g>
     <g id="text_5">
      <!-- 360 -->
      <g transform="translate(258.895896 322.470438) scale(0.1 -0.1)">
       <defs>
        <path id="DejaVuSans-30" d="M 2034 4250 
Q 1547 4250 1301 3770 
Q 1056 3291 1056 2328 
Q 1056 1369 1301 889 
Q 1547 409 2034 409 
Q 2525 409 2770 889 
Q 3016 1369 3016 2328 
Q 3016 3291 2770 3770 
Q 2525 4250 2034 4250 
z
M 2034 4750 
Q 2819 4750 3233 4129 
Q 3647 3509 3647 2328 
Q 3647 1150 3233 529 
Q 2819 -91 2034 -91 
Q 1250 -91 836 529 
Q 422 1150 422 2328 
Q 422 3509 836 4129 
Q 1250 4750 2034 4750 
z
" transform="scale(0.015625)"/>
       </defs>
       <use xlink:href="#DejaVuSans-33"/>
       <use xlink:href="#DejaVuSans-36" x="63.623047"/>
       <use xlink:href="#DejaVuSans-30" x="127.246094"/>
      </g>
     </g>
    </g>
    <g id="xtick_6">
     <g id="line2d_6">
      <g>
       <use xlink:href="#mb721655158" x="322.548737" y="307.872" style="stroke: #000000; stroke-width: 0.8"/>
      </g>
     </g>
     <g id="text_6">
      <!-- 361 -->
      <g transform="translate(313.004987 322.470438) scale(0.1 -0.1)">
       <defs>
        <path id="DejaVuSans-31" d="M 794 531 
L 1825 531 
L 1825 4091 
L 703 3866 
L 703 4441 
L 1819 4666 
L 2450 4666 
L 2450 531 
L 3481 531 
L 3481 0 
L 794 0 
L 794 531 
z
" transform="scale(0.015625)"/>
       </defs>
       <use xlink:href="#DejaVuSans-33"/>
       <use xlink:href="#DejaVuSans-36" x="63.623047"/>
       <use xlink:href="#DejaVuSans-31" x="127.246094"/>
      </g>
     </g>
    </g>
    <g id="xtick_7">
     <g id="line2d_7">
      <g>
       <use xlink:href="#mb721655158" x="376.657828" y="307.872" style="stroke: #000000; stroke-width: 0.8"/>
      </g>
     </g>
     <g id="text_7">
      <!-- 362 -->
      <g transform="translate(367.114078 322.470438) scale(0.1 -0.1)">
       <defs>
        <path id="DejaVuSans-32" d="M 1228 531 
L 3431 531 
L 3431 0 
L 469 0 
L 469 531 
Q 828 903 1448 1529 
Q 2069 2156 2228 2338 
Q 2531 2678 2651 2914 
Q 2772 3150 2772 3378 
Q 2772 3750 2511 3984 
Q 2250 4219 1831 4219 
Q 1534 4219 1204 4116 
Q 875 4013 500 3803 
L 500 4441 
Q 881 4594 1212 4672 
Q 1544 4750 1819 4750 
Q 2544 4750 2975 4387 
Q 3406 4025 3406 3419 
Q 3406 3131 3298 2873 
Q 3191 2616 2906 2266 
Q 2828 2175 2409 1742 
Q 1991 1309 1228 531 
z
" transform="scale(0.015625)"/>
       </defs>
       <use xlink:href="#DejaVuSans-33"/>
       <use xlink:href="#DejaVuSans-36" x="63.623047"/>
       <use xlink:href="#DejaVuSans-32" x="127.246094"/>
      </g>
     </g>
    </g>
    <g id="text_8">
     <!-- Frequency [MHz] -->
     <g transform="translate(180.3225 336.148562) scale(0.1 -0.1)">
      <defs>
       <path id="DejaVuSans-46" d="M 628 4666 
L 3309 4666 
L 3309 4134 
L 1259 4134 
L 1259 2759 
L 3109 2759 
L 3109 2228 
L 1259 2228 
L 1259 0 
L 628 0 
L 628 4666 
z
" transform="scale(0.015625)"/>
       <path id="DejaVuSans-72" d="M 2631 2963 
Q 2534 3019 2420 3045 
Q 2306 3072 2169 3072 
Q 1681 3072 1420 2755 
Q 1159 2438 1159 1844 
L 1159 0 
L 581 0 
L 581 3500 
L 1159 3500 
L 1159 2956 
Q 1341 3275 1631 3429 
Q 1922 3584 2338 3584 
Q 2397 3584 2469 3576 
Q 2541 3569 2628 3553 
L 2631 2963 
z
" transform="scale(0.015625)"/>
       <path id="DejaVuSans-65" d="M 3597 1894 
L 3597 1613 
L 953 1613 
Q 991 1019 1311 708 
Q 1631 397 2203 397 
Q 2534 397 2845 478 
Q 3156 559 3463 722 
L 3463 178 
Q 3153 47 2828 -22 
Q 2503 -91 2169 -91 
Q 1331 -91 842 396 
Q 353 884 353 1716 
Q 353 2575 817 3079 
Q 1281 3584 2069 3584 
Q 2775 3584 3186 3129 
Q 3597 2675 3597 1894 
z
M 3022 2063 
Q 3016 2534 2758 2815 
Q 2500 3097 2075 3097 
Q 1594 3097 1305 2825 
Q 1016 2553 972 2059 
L 3022 2063 
z
" transform="scale(0.015625)"/>
       <path id="DejaVuSans-71" d="M 947 1747 
Q 947 1113 1208 752 
Q 1469 391 1925 391 
Q 2381 391 2643 752 
Q 2906 1113 2906 1747 
Q 2906 2381 2643 2742 
Q 2381 3103 1925 3103 
Q 1469 3103 1208 2742 
Q 947 2381 947 1747 
z
M 2906 525 
Q 2725 213 2448 61 
Q 2172 -91 1784 -91 
Q 1150 -91 751 415 
Q 353 922 353 1747 
Q 353 2572 751 3078 
Q 1150 3584 1784 3584 
Q 2172 3584 2448 3432 
Q 2725 3281 2906 2969 
L 2906 3500 
L 3481 3500 
L 3481 -1331 
L 2906 -1331 
L 2906 525 
z
" transform="scale(0.015625)"/>
       <path id="DejaVuSans-75" d="M 544 1381 
L 544 3500 
L 1119 3500 
L 1119 1403 
Q 1119 906 1312 657 
Q 1506 409 1894 409 
Q 2359 409 2629 706 
Q 2900 1003 2900 1516 
L 2900 3500 
L 3475 3500 
L 3475 0 
L 2900 0 
L 2900 538 
Q 2691 219 2414 64 
Q 2138 -91 1772 -91 
Q 1169 -91 856 284 
Q 544 659 544 1381 
z
M 1991 3584 
L 1991 3584 
z
" transform="scale(0.015625)"/>
       <path id="DejaVuSans-6e" d="M 3513 2113 
L 3513 0 
L 2938 0 
L 2938 2094 
Q 2938 2591 2744 2837 
Q 2550 3084 2163 3084 
Q 1697 3084 1428 2787 
Q 1159 2491 1159 1978 
L 1159 0 
L 581 0 
L 581 3500 
L 1159 3500 
L 1159 2956 
Q 1366 3272 1645 3428 
Q 1925 3584 2291 3584 
Q 2894 3584 3203 3211 
Q 3513 2838 3513 2113 
z
" transform="scale(0.015625)"/>
       <path id="DejaVuSans-63" d="M 3122 3366 
L 3122 2828 
Q 2878 2963 2633 3030 
Q 2388 3097 2138 3097 
Q 1578 3097 1268 2742 
Q 959 2388 959 1747 
Q 959 1106 1268 751 
Q 1578 397 2138 397 
Q 2388 397 2633 464 
Q 2878 531 3122 666 
L 3122 134 
Q 2881 22 2623 -34 
Q 2366 -91 2075 -91 
Q 1284 -91 818 406 
Q 353 903 353 1747 
Q 353 2603 823 3093 
Q 1294 3584 2113 3584 
Q 2378 3584 2631 3529 
Q 2884 3475 3122 3366 
z
" transform="scale(0.015625)"/>
       <path id="DejaVuSans-79" d="M 2059 -325 
Q 1816 -950 1584 -1140 
Q 1353 -1331 966 -1331 
L 506 -1331 
L 506 -850 
L 844 -850 
Q 1081 -850 1212 -737 
Q 1344 -625 1503 -206 
L 1606 56 
L 191 3500 
L 800 3500 
L 1894 763 
L 2988 3500 
L 3597 3500 
L 2059 -325 
z
" transform="scale(0.015625)"/>
       <path id="DejaVuSans-20" transform="scale(0.015625)"/>
       <path id="DejaVuSans-5b" d="M 550 4863 
L 1875 4863 
L 1875 4416 
L 1125 4416 
L 1125 -397 
L 1875 -397 
L 1875 -844 
L 550 -844 
L 550 4863 
z
" transform="scale(0.015625)"/>
       <path id="DejaVuSans-4d" d="M 628 4666 
L 1569 4666 
L 2759 1491 
L 3956 4666 
L 4897 4666 
L 4897 0 
L 4281 0 
L 4281 4097 
L 3078 897 
L 2444 897 
L 1241 4097 
L 1241 0 
L 628 0 
L 628 4666 
z
" transform="scale(0.015625)"/>
       <path id="DejaVuSans-48" d="M 628 4666 
L 1259 4666 
L 1259 2753 
L 3553 2753 
L 3553 4666 
L 4184 4666 
L 4184 0 
L 3553 0 
L 3553 2222 
L 1259 2222 
L 1259 0 
L 628 0 
L 628 4666 
z
" transform="scale(0.015625)"/>
       <path id="DejaVuSans-7a" d="M 353 3500 
L 3084 3500 
L 3084 2975 
L 922 459 
L 3084 459 
L 3084 0 
L 275 0 
L 275 525 
L 2438 3041 
L 353 3041 
L 353 3500 
z
" transform="scale(0.015625)"/>
       <path id="DejaVuSans-5d" d="M 1947 4863 
L 1947 -844 
L 622 -844 
L 622 -397 
L 1369 -397 
L 1369 4416 
L 622 4416 
L 622 4863 
L 1947 4863 
z
" transform="scale(0.015625)"/>
      </defs>
      <use xlink:href="#DejaVuSans-46"/>
      <use xlink:href="#DejaVuSans-72" x="50.269531"/>
      <use xlink:href="#DejaVuSans-65" x="89.132812"/>
      <use xlink:href="#DejaVuSans-71" x="150.65625"/>
      <use xlink:href="#DejaVuSans-75" x="214.132812"/>
      <use xlink:href="#DejaVuSans-65" x="277.511719"/>
      <use xlink:href="#DejaVuSans-6e" x="339.035156"/>
      <use xlink:href="#DejaVuSans-63" x="402.414062"/>
      <use xlink:href="#DejaVuSans-79" x="457.394531"/>
      <use xlink:href="#DejaVuSans-20" x="516.574219"/>
      <use xlink:href="#DejaVuSans-5b" x="548.361328"/>
      <use xlink:href="#DejaVuSans-4d" x="587.375"/>
      <use xlink:href="#DejaVuSans-48" x="673.654297"/>
      <use xlink:href="#DejaVuSans-7a" x="748.849609"/>
      <use xlink:href="#DejaVuSans-5d" x="801.339844"/>
     </g>
    </g>
    <g id="text_9">
     <!-- +5 GHz -->
     <g transform="translate(362.46375 335.148562) scale(0.1 -0.1)">
      <defs>
       <path id="DejaVuSans-2b" d="M 2944 4013 
L 2944 2272 
L 4684 2272 
L 4684 1741 
L 2944 1741 
L 2944 0 
L 2419 0 
L 2419 1741 
L 678 1741 
L 678 2272 
L 2419 2272 
L 2419 4013 
L 2944 4013 
z
" transform="scale(0.015625)"/>
       <path id="DejaVuSans-47" d="M 3809 666 
L 3809 1919 
L 2778 1919 
L 2778 2438 
L 4434 2438 
L 4434 434 
Q 4069 175 3628 42 
Q 3188 -91 2688 -91 
Q 1594 -91 976 548 
Q 359 1188 359 2328 
Q 359 3472 976 4111 
Q 1594 4750 2688 4750 
Q 3144 4750 3555 4637 
Q 3966 4525 4313 4306 
L 4313 3634 
Q 3963 3931 3569 4081 
Q 3175 4231 2741 4231 
Q 1884 4231 1454 3753 
Q 1025 3275 1025 2328 
Q 1025 1384 1454 906 
Q 1884 428 2741 428 
Q 3075 428 3337 486 
Q 3600 544 3809 666 
z
" transform="scale(0.015625)"/>
      </defs>
      <use xlink:href="#DejaVuSans-2b"/>
      <use xlink:href="#DejaVuSans-35" x="83.789062"/>
      <use xlink:href="#DejaVuSans-20" x="147.412109"/>
      <use xlink:href="#DejaVuSans-47" x="179.199219"/>
      <use xlink:href="#DejaVuSans-48" x="256.689453"/>
      <use xlink:href="#DejaVuSans-7a" x="331.884766"/>
     </g>
    </g>
   </g>
   <g id="matplotlib.axis_2">
    <g id="ytick_1">
     <g id="line2d_8">
      <defs>
       <path id="m70f6479185" d="M 0 0 
L -3.5 0 
" style="stroke: #000000; stroke-width: 0.8"/>
      </defs>
      <g>
       <use xlink:href="#m70f6479185" x="43.78125" y="301.181103" style="stroke: #000000; stroke-width: 0.8"/>
      </g>
     </g>
     <g id="text_10">
      <!-- 0 -->
      <g transform="translate(30.41875 304.980322) scale(0.1 -0.1)">
       <use xlink:href="#DejaVuSans-30"/>
      </g>
     </g>
    </g>
    <g id="ytick_2">
     <g id="line2d_9">
      <g>
       <use xlink:href="#m70f6479185" x="43.78125" y="258.721498" style="stroke: #000000; stroke-width: 0.8"/>
      </g>
     </g>
     <g id="text_11">
      <!-- 0.2 -->
      <g transform="translate(20.878125 262.520717) scale(0.1 -0.1)">
       <defs>
        <path id="DejaVuSans-2e" d="M 684 794 
L 1344 794 
L 1344 0 
L 684 0 
L 684 794 
z
" transform="scale(0.015625)"/>
       </defs>
       <use xlink:href="#DejaVuSans-30"/>
       <use xlink:href="#DejaVuSans-2e" x="63.623047"/>
       <use xlink:href="#DejaVuSans-32" x="95.410156"/>
      </g>
     </g>
    </g>
    <g id="ytick_3">
     <g id="line2d_10">
      <g>
       <use xlink:href="#m70f6479185" x="43.78125" y="216.261893" style="stroke: #000000; stroke-width: 0.8"/>
      </g>
     </g>
     <g id="text_12">
      <!-- 0.4 -->
      <g transform="translate(20.878125 220.061111) scale(0.1 -0.1)">
       <defs>
        <path id="DejaVuSans-34" d="M 2419 4116 
L 825 1625 
L 2419 1625 
L 2419 4116 
z
M 2253 4666 
L 3047 4666 
L 3047 1625 
L 3713 1625 
L 3713 1100 
L 3047 1100 
L 3047 0 
L 2419 0 
L 2419 1100 
L 313 1100 
L 313 1709 
L 2253 4666 
z
" transform="scale(0.015625)"/>
       </defs>
       <use xlink:href="#DejaVuSans-30"/>
       <use xlink:href="#DejaVuSans-2e" x="63.623047"/>
       <use xlink:href="#DejaVuSans-34" x="95.410156"/>
      </g>
     </g>
    </g>
    <g id="ytick_4">
     <g id="line2d_11">
      <g>
       <use xlink:href="#m70f6479185" x="43.78125" y="173.802287" style="stroke: #000000; stroke-width: 0.8"/>
      </g>
     </g>
     <g id="text_13">
      <!-- 0.6 -->
      <g transform="translate(20.878125 177.601506) scale(0.1 -0.1)">
       <use xlink:href="#DejaVuSans-30"/>
       <use xlink:href="#DejaVuSans-2e" x="63.623047"/>
       <use xlink:href="#DejaVuSans-36" x="95.410156"/>
      </g>
     </g>
    </g>
    <g id="ytick_5">
     <g id="line2d_12">
      <g>
       <use xlink:href="#m70f6479185" x="43.78125" y="131.342682" style="stroke: #000000; stroke-width: 0.8"/>
      </g>
     </g>
     <g id="text_14">
      <!-- 0.8 -->
      <g transform="translate(20.878125 135.141901) scale(0.1 -0.1)">
       <use xlink:href="#DejaVuSans-30"/>
       <use xlink:href="#DejaVuSans-2e" x="63.623047"/>
       <use xlink:href="#DejaVuSans-38" x="95.410156"/>
      </g>
     </g>
    </g>
    <g id="ytick_6">
     <g id="line2d_13">
      <g>
       <use xlink:href="#m70f6479185" x="43.78125" y="88.883077" style="stroke: #000000; stroke-width: 0.8"/>
      </g>
     </g>
     <g id="text_15">
      <!-- 1 -->
      <g transform="translate(30.41875 92.682295) scale(0.1 -0.1)">
       <use xlink:href="#DejaVuSans-31"/>
      </g>
     </g>
    </g>
    <g id="ytick_7">
     <g id="line2d_14">
      <g>
       <use xlink:href="#m70f6479185" x="43.78125" y="46.423471" style="stroke: #000000; stroke-width: 0.8"/>
      </g>
     </g>
     <g id="text_16">
      <!-- 1.2 -->
      <g transform="translate(20.878125 50.22269) scale(0.1 -0.1)">
       <use xlink:href="#DejaVuSans-31"/>
       <use xlink:href="#DejaVuSans-2e" x="63.623047"/>
       <use xlink:href="#DejaVuSans-32" x="95.410156"/>
      </g>
     </g>
    </g>
    <g id="text_17">
     <!-- Magnitude0 [mV] -->
     <g transform="translate(14.798438 218.268344) rotate(-90) scale(0.1 -0.1)">
      <defs>
       <path id="DejaVuSans-61" d="M 2194 1759 
Q 1497 1759 1228 1600 
Q 959 1441 959 1056 
Q 959 750 1161 570 
Q 1363 391 1709 391 
Q 2188 391 2477 730 
Q 2766 1069 2766 1631 
L 2766 1759 
L 2194 1759 
z
M 3341 1997 
L 3341 0 
L 2766 0 
L 2766 531 
Q 2569 213 2275 61 
Q 1981 -91 1556 -91 
Q 1019 -91 701 211 
Q 384 513 384 1019 
Q 384 1609 779 1909 
Q 1175 2209 1959 2209 
L 2766 2209 
L 2766 2266 
Q 2766 2663 2505 2880 
Q 2244 3097 1772 3097 
Q 1472 3097 1187 3025 
Q 903 2953 641 2809 
L 641 3341 
Q 956 3463 1253 3523 
Q 1550 3584 1831 3584 
Q 2591 3584 2966 3190 
Q 3341 2797 3341 1997 
z
" transform="scale(0.015625)"/>
       <path id="DejaVuSans-67" d="M 2906 1791 
Q 2906 2416 2648 2759 
Q 2391 3103 1925 3103 
Q 1463 3103 1205 2759 
Q 947 2416 947 1791 
Q 947 1169 1205 825 
Q 1463 481 1925 481 
Q 2391 481 2648 825 
Q 2906 1169 2906 1791 
z
M 3481 434 
Q 3481 -459 3084 -895 
Q 2688 -1331 1869 -1331 
Q 1566 -1331 1297 -1286 
Q 1028 -1241 775 -1147 
L 775 -588 
Q 1028 -725 1275 -790 
Q 1522 -856 1778 -856 
Q 2344 -856 2625 -561 
Q 2906 -266 2906 331 
L 2906 616 
Q 2728 306 2450 153 
Q 2172 0 1784 0 
Q 1141 0 747 490 
Q 353 981 353 1791 
Q 353 2603 747 3093 
Q 1141 3584 1784 3584 
Q 2172 3584 2450 3431 
Q 2728 3278 2906 2969 
L 2906 3500 
L 3481 3500 
L 3481 434 
z
" transform="scale(0.015625)"/>
       <path id="DejaVuSans-69" d="M 603 3500 
L 1178 3500 
L 1178 0 
L 603 0 
L 603 3500 
z
M 603 4863 
L 1178 4863 
L 1178 4134 
L 603 4134 
L 603 4863 
z
" transform="scale(0.015625)"/>
       <path id="DejaVuSans-74" d="M 1172 4494 
L 1172 3500 
L 2356 3500 
L 2356 3053 
L 1172 3053 
L 1172 1153 
Q 1172 725 1289 603 
Q 1406 481 1766 481 
L 2356 481 
L 2356 0 
L 1766 0 
Q 1100 0 847 248 
Q 594 497 594 1153 
L 594 3053 
L 172 3053 
L 172 3500 
L 594 3500 
L 594 4494 
L 1172 4494 
z
" transform="scale(0.015625)"/>
       <path id="DejaVuSans-64" d="M 2906 2969 
L 2906 4863 
L 3481 4863 
L 3481 0 
L 2906 0 
L 2906 525 
Q 2725 213 2448 61 
Q 2172 -91 1784 -91 
Q 1150 -91 751 415 
Q 353 922 353 1747 
Q 353 2572 751 3078 
Q 1150 3584 1784 3584 
Q 2172 3584 2448 3432 
Q 2725 3281 2906 2969 
z
M 947 1747 
Q 947 1113 1208 752 
Q 1469 391 1925 391 
Q 2381 391 2643 752 
Q 2906 1113 2906 1747 
Q 2906 2381 2643 2742 
Q 2381 3103 1925 3103 
Q 1469 3103 1208 2742 
Q 947 2381 947 1747 
z
" transform="scale(0.015625)"/>
       <path id="DejaVuSans-6d" d="M 3328 2828 
Q 3544 3216 3844 3400 
Q 4144 3584 4550 3584 
Q 5097 3584 5394 3201 
Q 5691 2819 5691 2113 
L 5691 0 
L 5113 0 
L 5113 2094 
Q 5113 2597 4934 2840 
Q 4756 3084 4391 3084 
Q 3944 3084 3684 2787 
Q 3425 2491 3425 1978 
L 3425 0 
L 2847 0 
L 2847 2094 
Q 2847 2600 2669 2842 
Q 2491 3084 2119 3084 
Q 1678 3084 1418 2786 
Q 1159 2488 1159 1978 
L 1159 0 
L 581 0 
L 581 3500 
L 1159 3500 
L 1159 2956 
Q 1356 3278 1631 3431 
Q 1906 3584 2284 3584 
Q 2666 3584 2933 3390 
Q 3200 3197 3328 2828 
z
" transform="scale(0.015625)"/>
       <path id="DejaVuSans-56" d="M 1831 0 
L 50 4666 
L 709 4666 
L 2188 738 
L 3669 4666 
L 4325 4666 
L 2547 0 
L 1831 0 
z
" transform="scale(0.015625)"/>
      </defs>
      <use xlink:href="#DejaVuSans-4d"/>
      <use xlink:href="#DejaVuSans-61" x="86.279297"/>
      <use xlink:href="#DejaVuSans-67" x="147.558594"/>
      <use xlink:href="#DejaVuSans-6e" x="211.035156"/>
      <use xlink:href="#DejaVuSans-69" x="274.414062"/>
      <use xlink:href="#DejaVuSans-74" x="302.197266"/>
      <use xlink:href="#DejaVuSans-75" x="341.40625"/>
      <use xlink:href="#DejaVuSans-64" x="404.785156"/>
      <use xlink:href="#DejaVuSans-65" x="468.261719"/>
      <use xlink:href="#DejaVuSans-30" x="529.785156"/>
      <use xlink:href="#DejaVuSans-20" x="593.408203"/>
      <use xlink:href="#DejaVuSans-5b" x="625.195312"/>
      <use xlink:href="#DejaVuSans-6d" x="664.208984"/>
      <use xlink:href="#DejaVuSans-56" x="761.621094"/>
      <use xlink:href="#DejaVuSans-5d" x="830.029297"/>
     </g>
    </g>
   </g>
   <g id="line2d_15">
    <path d="M 60.013977 267.703687 
L 71.208962 266.395159 
L 82.403946 267.085884 
L 93.59893 266.331698 
L 104.793915 266.250965 
L 115.988899 266.656221 
L 127.183883 265.71903 
L 138.378868 266.085665 
L 149.573852 266.009025 
L 160.768836 264.930922 
L 171.963821 264.94071 
L 183.158805 265.820498 
L 194.353789 267.356452 
L 205.548774 270.220313 
L 216.743758 278.321499 
L 227.938742 288.497325 
L 239.133726 295.776 
L 250.328711 291.43236 
L 261.523695 287.236266 
L 272.718679 284.416508 
L 283.913664 282.325155 
L 295.108648 281.23683 
L 306.303632 280.611719 
L 317.498617 280.638075 
L 328.693601 279.468032 
L 339.888585 280.328548 
L 351.08357 280.842327 
L 362.278554 280.459731 
L 373.473538 279.562852 
L 384.668523 280.613628 
" clip-path="url(#pc8fa1dbd78)" style="fill: none; stroke: #440154; stroke-width: 1.5; stroke-linecap: square"/>
   </g>
   <g id="line2d_16">
    <path d="M 60.013977 260.949601 
L 71.208962 260.295991 
L 82.403946 259.589604 
L 93.59893 259.767835 
L 104.793915 259.499165 
L 115.988899 259.116999 
L 127.183883 257.952835 
L 138.378868 258.775399 
L 149.573852 258.601822 
L 160.768836 258.566781 
L 171.963821 257.71914 
L 183.158805 258.299444 
L 194.353789 259.356958 
L 205.548774 264.417207 
L 216.743758 274.079204 
L 227.938742 285.604472 
L 239.133726 293.402141 
L 250.328711 289.28784 
L 261.523695 283.404568 
L 272.718679 279.90122 
L 283.913664 278.34948 
L 295.108648 277.129624 
L 306.303632 275.991825 
L 317.498617 275.835239 
L 328.693601 274.732416 
L 339.888585 274.736326 
L 351.08357 275.326878 
L 362.278554 276.09538 
L 373.473538 276.189124 
L 384.668523 275.893791 
" clip-path="url(#pc8fa1dbd78)" style="fill: none; stroke: #470d60; stroke-width: 1.5; stroke-linecap: square"/>
   </g>
   <g id="line2d_17">
    <path d="M 60.013977 253.873826 
L 71.208962 253.021166 
L 82.403946 252.450238 
L 93.59893 252.119609 
L 104.793915 251.955684 
L 115.988899 251.26321 
L 127.183883 251.128373 
L 138.378868 250.970863 
L 149.573852 250.428343 
L 160.768836 250.493674 
L 171.963821 250.06167 
L 183.158805 250.637477 
L 194.353789 252.761464 
L 205.548774 258.457469 
L 216.743758 268.876389 
L 227.938742 283.996314 
L 239.133726 292.27648 
L 250.328711 286.754139 
L 261.523695 280.528396 
L 272.718679 276.657764 
L 283.913664 274.743219 
L 295.108648 272.592296 
L 306.303632 271.481056 
L 317.498617 271.682484 
L 328.693601 270.777996 
L 339.888585 270.793372 
L 351.08357 270.783656 
L 362.278554 270.736739 
L 373.473538 271.960872 
L 384.668523 271.611056 
" clip-path="url(#pc8fa1dbd78)" style="fill: none; stroke: #481a6c; stroke-width: 1.5; stroke-linecap: square"/>
   </g>
   <g id="line2d_18">
    <path d="M 60.013977 246.35807 
L 71.208962 245.849078 
L 82.403946 245.9518 
L 93.59893 244.576755 
L 104.793915 244.751109 
L 115.988899 244.366387 
L 127.183883 243.832065 
L 138.378868 243.173907 
L 149.573852 243.341265 
L 160.768836 242.605328 
L 171.963821 243.00509 
L 183.158805 243.07809 
L 194.353789 245.285745 
L 205.548774 251.41415 
L 216.743758 264.613604 
L 227.938742 281.4715 
L 239.133726 291.128287 
L 250.328711 284.238664 
L 261.523695 277.448735 
L 272.718679 272.57455 
L 283.913664 269.444968 
L 295.108648 268.378391 
L 306.303632 267.521646 
L 317.498617 266.681058 
L 328.693601 266.303966 
L 339.888585 267.099511 
L 351.08357 266.609424 
L 362.278554 266.841857 
L 373.473538 267.154987 
L 384.668523 267.537278 
" clip-path="url(#pc8fa1dbd78)" style="fill: none; stroke: #482576; stroke-width: 1.5; stroke-linecap: square"/>
   </g>
   <g id="line2d_19">
    <path d="M 60.013977 239.921794 
L 71.208962 239.32626 
L 82.403946 238.121905 
L 93.59893 238.301357 
L 104.793915 237.61725 
L 115.988899 237.842758 
L 127.183883 236.67142 
L 138.378868 236.030438 
L 149.573852 235.807146 
L 160.768836 235.41153 
L 171.963821 235.205286 
L 183.158805 235.830633 
L 194.353789 238.108078 
L 205.548774 245.901096 
L 216.743758 260.942941 
L 227.938742 280.835877 
L 239.133726 290.342706 
L 250.328711 282.594401 
L 261.523695 274.559021 
L 272.718679 269.008072 
L 283.913664 266.507083 
L 295.108648 263.85285 
L 306.303632 262.49487 
L 317.498617 262.314874 
L 328.693601 261.67909 
L 339.888585 261.238162 
L 351.08357 261.876725 
L 362.278554 261.332447 
L 373.473538 263.095014 
L 384.668523 262.449415 
" clip-path="url(#pc8fa1dbd78)" style="fill: none; stroke: #46307e; stroke-width: 1.5; stroke-linecap: square"/>
   </g>
   <g id="line2d_20">
    <path d="M 60.013977 233.066418 
L 71.208962 232.867966 
L 82.403946 231.761136 
L 93.59893 231.53905 
L 104.793915 231.801119 
L 115.988899 230.200721 
L 127.183883 230.683983 
L 138.378868 230.335386 
L 149.573852 229.616845 
L 160.768836 228.353477 
L 171.963821 228.577825 
L 183.158805 229.244038 
L 194.353789 231.880298 
L 205.548774 240.395148 
L 216.743758 257.307838 
L 227.938742 277.772715 
L 239.133726 289.743042 
L 250.328711 279.612412 
L 261.523695 271.512123 
L 272.718679 265.967037 
L 283.913664 262.848734 
L 295.108648 260.596972 
L 306.303632 258.92987 
L 317.498617 258.009934 
L 328.693601 257.76884 
L 339.888585 257.476672 
L 351.08357 257.966391 
L 362.278554 258.705866 
L 373.473538 258.273389 
L 384.668523 258.990974 
" clip-path="url(#pc8fa1dbd78)" style="fill: none; stroke: #443b84; stroke-width: 1.5; stroke-linecap: square"/>
   </g>
   <g id="line2d_21">
    <path d="M 60.013977 226.257556 
L 71.208962 224.863112 
L 82.403946 224.843997 
L 93.59893 223.731999 
L 104.793915 224.052772 
L 115.988899 223.336093 
L 127.183883 222.096133 
L 138.378868 221.74526 
L 149.573852 221.738324 
L 160.768836 221.072185 
L 171.963821 220.259697 
L 183.158805 221.154761 
L 194.353789 223.627315 
L 205.548774 233.737829 
L 216.743758 253.322334 
L 227.938742 277.339776 
L 239.133726 287.695179 
L 250.328711 277.39513 
L 261.523695 268.308704 
L 272.718679 262.492151 
L 283.913664 258.405597 
L 295.108648 256.379253 
L 306.303632 253.950556 
L 317.498617 253.668591 
L 328.693601 253.123731 
L 339.888585 253.275199 
L 351.08357 253.161934 
L 362.278554 253.018367 
L 373.473538 253.219773 
L 384.668523 254.112935 
" clip-path="url(#pc8fa1dbd78)" style="fill: none; stroke: #404588; stroke-width: 1.5; stroke-linecap: square"/>
   </g>
   <g id="line2d_22">
    <path d="M 60.013977 218.517784 
L 71.208962 218.222701 
L 82.403946 217.939939 
L 93.59893 216.105865 
L 104.793915 215.97116 
L 115.988899 214.994536 
L 127.183883 215.105044 
L 138.378868 213.951396 
L 149.573852 213.369528 
L 160.768836 213.130193 
L 171.963821 212.499611 
L 183.158805 213.641667 
L 194.353789 216.620449 
L 205.548774 227.977148 
L 216.743758 248.934569 
L 227.938742 274.632689 
L 239.133726 286.304762 
L 250.328711 274.388716 
L 261.523695 264.633231 
L 272.718679 258.152983 
L 283.913664 253.733447 
L 295.108648 251.575268 
L 306.303632 250.658149 
L 317.498617 249.445059 
L 328.693601 248.681101 
L 339.888585 248.865888 
L 351.08357 248.162601 
L 362.278554 248.568323 
L 373.473538 248.538147 
L 384.668523 249.090071 
" clip-path="url(#pc8fa1dbd78)" style="fill: none; stroke: #3c4f8a; stroke-width: 1.5; stroke-linecap: square"/>
   </g>
   <g id="line2d_23">
    <path d="M 60.013977 212.13272 
L 71.208962 212.246019 
L 82.403946 210.767956 
L 93.59893 209.239634 
L 104.793915 209.173847 
L 115.988899 208.731899 
L 127.183883 208.529107 
L 138.378868 207.615529 
L 149.573852 206.175636 
L 160.768836 206.351595 
L 171.963821 206.370041 
L 183.158805 206.788478 
L 194.353789 210.71859 
L 205.548774 222.470934 
L 216.743758 243.849707 
L 227.938742 272.86549 
L 239.133726 285.839315 
L 250.328711 272.597078 
L 261.523695 261.837754 
L 272.718679 254.099322 
L 283.913664 250.71043 
L 295.108648 247.44408 
L 306.303632 245.187642 
L 317.498617 244.987505 
L 328.693601 244.557618 
L 339.888585 244.406172 
L 351.08357 244.525949 
L 362.278554 244.418999 
L 373.473538 244.693422 
L 384.668523 245.015099 
" clip-path="url(#pc8fa1dbd78)" style="fill: none; stroke: #38598c; stroke-width: 1.5; stroke-linecap: square"/>
   </g>
   <g id="line2d_24">
    <path d="M 60.013977 205.856116 
L 71.208962 204.746002 
L 82.403946 203.84844 
L 93.59893 202.667518 
L 104.793915 202.659415 
L 115.988899 201.621345 
L 127.183883 201.20822 
L 138.378868 199.889928 
L 149.573852 199.131242 
L 160.768836 199.178385 
L 171.963821 199.13975 
L 183.158805 198.550009 
L 194.353789 203.781841 
L 205.548774 216.160572 
L 216.743758 240.039966 
L 227.938742 270.967029 
L 239.133726 283.609204 
L 250.328711 269.385547 
L 261.523695 258.576029 
L 272.718679 251.84491 
L 283.913664 246.489236 
L 295.108648 242.988811 
L 306.303632 241.685182 
L 317.498617 240.214842 
L 328.693601 239.803544 
L 339.888585 239.236673 
L 351.08357 239.306496 
L 362.278554 239.534321 
L 373.473538 240.169128 
L 384.668523 239.927594 
" clip-path="url(#pc8fa1dbd78)" style="fill: none; stroke: #33628d; stroke-width: 1.5; stroke-linecap: square"/>
   </g>
   <g id="line2d_25">
    <path d="M 60.013977 198.492943 
L 71.208962 197.35207 
L 82.403946 196.252317 
L 93.59893 195.831844 
L 104.793915 195.110603 
L 115.988899 194.04641 
L 127.183883 193.207225 
L 138.378868 192.815468 
L 149.573852 191.552311 
L 160.768836 191.275521 
L 171.963821 190.751477 
L 183.158805 190.7536 
L 194.353789 195.817936 
L 205.548774 208.956476 
L 216.743758 234.628123 
L 227.938742 268.376704 
L 239.133726 282.5757 
L 250.328711 266.672083 
L 261.523695 254.783076 
L 272.718679 246.724825 
L 283.913664 241.218055 
L 295.108648 238.351731 
L 306.303632 237.038601 
L 317.498617 234.957118 
L 328.693601 234.205184 
L 339.888585 234.397974 
L 351.08357 235.260746 
L 362.278554 235.509877 
L 373.473538 235.791474 
L 384.668523 235.805837 
" clip-path="url(#pc8fa1dbd78)" style="fill: none; stroke: #2f6b8e; stroke-width: 1.5; stroke-linecap: square"/>
   </g>
   <g id="line2d_26">
    <path d="M 60.013977 191.860086 
L 71.208962 190.192112 
L 82.403946 189.767359 
L 93.59893 188.693548 
L 104.793915 188.236164 
L 115.988899 187.117769 
L 127.183883 186.116716 
L 138.378868 185.146698 
L 149.573852 184.328037 
L 160.768836 184.130295 
L 171.963821 183.77927 
L 183.158805 184.15545 
L 194.353789 189.90144 
L 205.548774 203.85897 
L 216.743758 231.330574 
L 227.938742 266.266069 
L 239.133726 280.703947 
L 250.328711 264.686775 
L 261.523695 251.141276 
L 272.718679 243.806976 
L 283.913664 237.93712 
L 295.108648 235.138921 
L 306.303632 232.830081 
L 317.498617 231.421456 
L 328.693601 231.096034 
L 339.888585 231.085846 
L 351.08357 231.087785 
L 362.278554 230.911264 
L 373.473538 231.605315 
L 384.668523 231.740583 
" clip-path="url(#pc8fa1dbd78)" style="fill: none; stroke: #2c738e; stroke-width: 1.5; stroke-linecap: square"/>
   </g>
   <g id="line2d_27">
    <path d="M 60.013977 185.81175 
L 71.208962 183.802361 
L 82.403946 182.474405 
L 93.59893 182.272454 
L 104.793915 180.687908 
L 115.988899 179.551176 
L 127.183883 179.134873 
L 138.378868 178.563986 
L 149.573852 177.182752 
L 160.768836 176.511782 
L 171.963821 175.942143 
L 183.158805 177.05837 
L 194.353789 182.448585 
L 205.548774 196.797039 
L 216.743758 226.354184 
L 227.938742 263.978388 
L 239.133726 280.71616 
L 250.328711 261.307328 
L 261.523695 248.454726 
L 272.718679 239.417699 
L 283.913664 234.579184 
L 295.108648 230.760276 
L 306.303632 228.601007 
L 317.498617 227.166557 
L 328.693601 225.913351 
L 339.888585 226.297816 
L 351.08357 226.097051 
L 362.278554 227.347628 
L 373.473538 227.115336 
L 384.668523 228.229524 
" clip-path="url(#pc8fa1dbd78)" style="fill: none; stroke: #297b8e; stroke-width: 1.5; stroke-linecap: square"/>
   </g>
   <g id="line2d_28">
    <path d="M 60.013977 178.099847 
L 71.208962 176.245444 
L 82.403946 175.405735 
L 93.59893 174.213693 
L 104.793915 173.754934 
L 115.988899 172.539038 
L 127.183883 171.943743 
L 138.378868 169.394739 
L 149.573852 170.412477 
L 160.768836 168.597271 
L 171.963821 168.309372 
L 183.158805 168.758803 
L 194.353789 175.31802 
L 205.548774 190.349332 
L 216.743758 222.587588 
L 227.938742 261.320175 
L 239.133726 279.63545 
L 250.328711 258.891702 
L 261.523695 244.423818 
L 272.718679 235.431804 
L 283.913664 229.904616 
L 295.108648 225.841014 
L 306.303632 224.075792 
L 317.498617 221.85578 
L 328.693601 220.986255 
L 339.888585 221.589675 
L 351.08357 221.966972 
L 362.278554 221.990474 
L 373.473538 221.71 
L 384.668523 223.222179 
" clip-path="url(#pc8fa1dbd78)" style="fill: none; stroke: #25838e; stroke-width: 1.5; stroke-linecap: square"/>
   </g>
   <g id="line2d_29">
    <path d="M 60.013977 170.528859 
L 71.208962 169.954722 
L 82.403946 168.665246 
L 93.59893 167.582027 
L 104.793915 167.403152 
L 115.988899 165.790585 
L 127.183883 164.933257 
L 138.378868 163.707117 
L 149.573852 163.25859 
L 160.768836 161.53703 
L 171.963821 161.895545 
L 183.158805 162.980571 
L 194.353789 168.025132 
L 205.548774 184.727511 
L 216.743758 217.82308 
L 227.938742 259.920403 
L 239.133726 278.105321 
L 250.328711 257.420559 
L 261.523695 241.673586 
L 272.718679 233.228539 
L 283.913664 226.124124 
L 295.108648 221.868478 
L 306.303632 219.878078 
L 317.498617 218.685657 
L 328.693601 217.693653 
L 339.888585 217.536321 
L 351.08357 218.098171 
L 362.278554 217.938145 
L 373.473538 218.685458 
L 384.668523 219.155926 
" clip-path="url(#pc8fa1dbd78)" style="fill: none; stroke: #228c8d; stroke-width: 1.5; stroke-linecap: square"/>
   </g>
   <g id="line2d_30">
    <path d="M 60.013977 164.727888 
L 71.208962 163.328507 
L 82.403946 162.27415 
L 93.59893 161.456981 
L 104.793915 159.71223 
L 115.988899 159.071582 
L 127.183883 158.562691 
L 138.378868 156.31526 
L 149.573852 156.065501 
L 160.768836 154.393187 
L 171.963821 154.412219 
L 183.158805 155.924044 
L 194.353789 161.372717 
L 205.548774 178.126583 
L 216.743758 213.533099 
L 227.938742 257.773919 
L 239.133726 277.259793 
L 250.328711 254.949005 
L 261.523695 238.115764 
L 272.718679 228.75587 
L 283.913664 222.56368 
L 295.108648 218.366243 
L 306.303632 215.292994 
L 317.498617 214.064497 
L 328.693601 213.578252 
L 339.888585 213.022683 
L 351.08357 213.822808 
L 362.278554 213.330042 
L 373.473538 214.571386 
L 384.668523 215.543498 
" clip-path="url(#pc8fa1dbd78)" style="fill: none; stroke: #1f948c; stroke-width: 1.5; stroke-linecap: square"/>
   </g>
   <g id="line2d_31">
    <path d="M 60.013977 157.628596 
L 71.208962 156.344488 
L 82.403946 155.417811 
L 93.59893 154.064254 
L 104.793915 153.369023 
L 115.988899 151.484161 
L 127.183883 150.490554 
L 138.378868 148.776068 
L 149.573852 148.830052 
L 160.768836 147.359646 
L 171.963821 147.741954 
L 183.158805 147.89198 
L 194.353789 154.521816 
L 205.548774 172.917181 
L 216.743758 209.856908 
L 227.938742 254.129726 
L 239.133726 276.984375 
L 250.328711 252.948928 
L 261.523695 234.740244 
L 272.718679 224.606206 
L 283.913664 218.657201 
L 295.108648 214.208987 
L 306.303632 211.834449 
L 317.498617 209.329097 
L 328.693601 208.768835 
L 339.888585 209.122165 
L 351.08357 208.697013 
L 362.278554 208.972494 
L 373.473538 209.989495 
L 384.668523 210.556603 
" clip-path="url(#pc8fa1dbd78)" style="fill: none; stroke: #1e9d89; stroke-width: 1.5; stroke-linecap: square"/>
   </g>
   <g id="line2d_32">
    <path d="M 60.013977 149.642288 
L 71.208962 149.216226 
L 82.403946 147.613265 
L 93.59893 146.798061 
L 104.793915 146.063833 
L 115.988899 143.973802 
L 127.183883 142.72292 
L 138.378868 141.910156 
L 149.573852 140.840478 
L 160.768836 140.368377 
L 171.963821 139.343744 
L 183.158805 140.745359 
L 194.353789 147.28341 
L 205.548774 166.83346 
L 216.743758 204.831365 
L 227.938742 253.557414 
L 239.133726 275.395067 
L 250.328711 251.392077 
L 261.523695 231.661136 
L 272.718679 221.29815 
L 283.913664 213.641914 
L 295.108648 209.387651 
L 306.303632 206.06685 
L 317.498617 204.951537 
L 328.693601 203.510206 
L 339.888585 203.728326 
L 351.08357 204.653322 
L 362.278554 204.504226 
L 373.473538 205.621886 
L 384.668523 205.485248 
" clip-path="url(#pc8fa1dbd78)" style="fill: none; stroke: #21a585; stroke-width: 1.5; stroke-linecap: square"/>
   </g>
   <g id="line2d_33">
    <path d="M 60.013977 142.92231 
L 71.208962 141.569609 
L 82.403946 140.880685 
L 93.59893 138.687246 
L 104.793915 137.399384 
L 115.988899 137.418582 
L 127.183883 135.361583 
L 138.378868 134.699166 
L 149.573852 132.385422 
L 160.768836 131.314714 
L 171.963821 131.177204 
L 183.158805 132.817012 
L 194.353789 139.623137 
L 205.548774 159.311576 
L 216.743758 199.622987 
L 227.938742 250.456423 
L 239.133726 273.57992 
L 250.328711 248.693692 
L 261.523695 228.098899 
L 272.718679 217.102937 
L 283.913664 208.869418 
L 295.108648 204.589531 
L 306.303632 201.449101 
L 317.498617 199.717714 
L 328.693601 199.454725 
L 339.888585 199.190398 
L 351.08357 198.416759 
L 362.278554 200.597069 
L 373.473538 200.416564 
L 384.668523 200.761693 
" clip-path="url(#pc8fa1dbd78)" style="fill: none; stroke: #26ad81; stroke-width: 1.5; stroke-linecap: square"/>
   </g>
   <g id="line2d_34">
    <path d="M 60.013977 137.919733 
L 71.208962 135.737851 
L 82.403946 134.19909 
L 93.59893 132.482862 
L 104.793915 131.754769 
L 115.988899 130.641691 
L 127.183883 129.025063 
L 138.378868 128.149742 
L 149.573852 126.456128 
L 160.768836 125.098568 
L 171.963821 124.656218 
L 183.158805 126.366051 
L 194.353789 133.308568 
L 205.548774 155.250015 
L 216.743758 196.117142 
L 227.938742 249.915384 
L 239.133726 272.294734 
L 250.328711 245.994518 
L 261.523695 226.904081 
L 272.718679 213.524155 
L 283.913664 206.150039 
L 295.108648 201.19397 
L 306.303632 198.695444 
L 317.498617 196.682457 
L 328.693601 195.869815 
L 339.888585 196.128426 
L 351.08357 195.770263 
L 362.278554 196.139182 
L 373.473538 197.099567 
L 384.668523 197.611805 
" clip-path="url(#pc8fa1dbd78)" style="fill: none; stroke: #31b57b; stroke-width: 1.5; stroke-linecap: square"/>
   </g>
   <g id="line2d_35">
    <path d="M 60.013977 130.193354 
L 71.208962 128.849859 
L 82.403946 126.953229 
L 93.59893 124.885576 
L 104.793915 123.514762 
L 115.988899 123.015261 
L 127.183883 121.498993 
L 138.378868 119.209735 
L 149.573852 118.156885 
L 160.768836 117.152127 
L 171.963821 117.197199 
L 183.158805 118.190414 
L 194.353789 125.34183 
L 205.548774 147.586776 
L 216.743758 191.603906 
L 227.938742 246.424714 
L 239.133726 271.396576 
L 250.328711 244.655944 
L 261.523695 222.077581 
L 272.718679 209.32784 
L 283.913664 202.051367 
L 295.108648 196.283333 
L 306.303632 193.070727 
L 317.498617 192.991119 
L 328.693601 190.712671 
L 339.888585 190.468845 
L 351.08357 191.544282 
L 362.278554 191.715188 
L 373.473538 191.832127 
L 384.668523 192.740945 
" clip-path="url(#pc8fa1dbd78)" style="fill: none; stroke: #3fbc73; stroke-width: 1.5; stroke-linecap: square"/>
   </g>
   <g id="line2d_36">
    <path d="M 60.013977 123.166171 
L 71.208962 122.30304 
L 82.403946 119.847075 
L 93.59893 118.74143 
L 104.793915 117.426578 
L 115.988899 116.1487 
L 127.183883 113.847856 
L 138.378868 113.082301 
L 149.573852 111.958267 
L 160.768836 109.949724 
L 171.963821 110.051911 
L 183.158805 111.356135 
L 194.353789 119.104267 
L 205.548774 142.231813 
L 216.743758 187.66338 
L 227.938742 244.352814 
L 239.133726 270.318043 
L 250.328711 242.772636 
L 261.523695 219.565375 
L 272.718679 205.484627 
L 283.913664 198.247401 
L 295.108648 192.828758 
L 306.303632 190.067127 
L 317.498617 188.233554 
L 328.693601 187.100035 
L 339.888585 186.310596 
L 351.08357 187.533333 
L 362.278554 187.517605 
L 373.473538 188.229132 
L 384.668523 188.516618 
" clip-path="url(#pc8fa1dbd78)" style="fill: none; stroke: #50c46a; stroke-width: 1.5; stroke-linecap: square"/>
   </g>
   <g id="line2d_37">
    <path d="M 60.013977 117.456685 
L 71.208962 117.425483 
L 82.403946 115.013041 
L 93.59893 113.767351 
L 104.793915 112.373384 
L 115.988899 111.77749 
L 127.183883 109.603042 
L 138.378868 107.961096 
L 149.573852 106.956261 
L 160.768836 106.374447 
L 171.963821 105.226189 
L 183.158805 107.394473 
L 194.353789 114.36452 
L 205.548774 138.547 
L 216.743758 184.13806 
L 227.938742 242.811119 
L 239.133726 269.306145 
L 250.328711 241.716372 
L 261.523695 217.751851 
L 272.718679 203.410821 
L 283.913664 194.991108 
L 295.108648 190.953249 
L 306.303632 186.128861 
L 317.498617 184.739495 
L 328.693601 183.984264 
L 339.888585 183.702403 
L 351.08357 183.601552 
L 362.278554 184.379694 
L 373.473538 185.3614 
L 384.668523 186.009806 
" clip-path="url(#pc8fa1dbd78)" style="fill: none; stroke: #63cb5f; stroke-width: 1.5; stroke-linecap: square"/>
   </g>
   <g id="line2d_38">
    <path d="M 60.013977 110.643049 
L 71.208962 110.738414 
L 82.403946 108.201999 
L 93.59893 105.962133 
L 104.793915 104.426722 
L 115.988899 103.438764 
L 127.183883 101.412008 
L 138.378868 100.246072 
L 149.573852 98.899583 
L 160.768836 97.776232 
L 171.963821 96.464492 
L 183.158805 99.373711 
L 194.353789 106.500301 
L 205.548774 130.846646 
L 216.743758 179.615152 
L 227.938742 240.360439 
L 239.133726 268.554731 
L 250.328711 238.608285 
L 261.523695 214.447399 
L 272.718679 199.877203 
L 283.913664 191.212762 
L 295.108648 185.76077 
L 306.303632 181.85962 
L 317.498617 180.333582 
L 328.693601 179.613154 
L 339.888585 178.672098 
L 351.08357 178.379913 
L 362.278554 179.4123 
L 373.473538 180.555598 
L 384.668523 180.940259 
" clip-path="url(#pc8fa1dbd78)" style="fill: none; stroke: #77d153; stroke-width: 1.5; stroke-linecap: square"/>
   </g>
   <g id="line2d_39">
    <path d="M 60.013977 105.235546 
L 71.208962 103.63804 
L 82.403946 101.892182 
L 93.59893 100.969864 
L 104.793915 99.162142 
L 115.988899 97.845061 
L 127.183883 96.107788 
L 138.378868 95.191144 
L 149.573852 93.073681 
L 160.768836 92.290567 
L 171.963821 92.407798 
L 183.158805 93.897275 
L 194.353789 101.388796 
L 205.548774 126.848775 
L 216.743758 176.270824 
L 227.938742 238.33765 
L 239.133726 267.786688 
L 250.328711 236.962957 
L 261.523695 212.334556 
L 272.718679 197.266133 
L 283.913664 187.600976 
L 295.108648 182.168328 
L 306.303632 178.12708 
L 317.498617 177.495392 
L 328.693601 176.280944 
L 339.888585 175.21487 
L 351.08357 175.835548 
L 362.278554 175.54963 
L 373.473538 176.847714 
L 384.668523 177.994459 
" clip-path="url(#pc8fa1dbd78)" style="fill: none; stroke: #8bd646; stroke-width: 1.5; stroke-linecap: square"/>
   </g>
   <g id="line2d_40">
    <path d="M 60.013977 98.899216 
L 71.208962 97.589897 
L 82.403946 95.332254 
L 93.59893 93.936276 
L 104.793915 93.0151 
L 115.988899 91.208613 
L 127.183883 90.031751 
L 138.378868 88.415784 
L 149.573852 86.80464 
L 160.768836 85.750693 
L 171.963821 85.41576 
L 183.158805 87.277459 
L 194.353789 94.937776 
L 205.548774 121.17784 
L 216.743758 171.352713 
L 227.938742 236.264572 
L 239.133726 266.308678 
L 250.328711 235.51308 
L 261.523695 210.240825 
L 272.718679 194.577547 
L 283.913664 184.678691 
L 295.108648 178.246635 
L 306.303632 174.917166 
L 317.498617 173.344272 
L 328.693601 172.250415 
L 339.888585 171.975539 
L 351.08357 171.926028 
L 362.278554 171.854979 
L 373.473538 174.049958 
L 384.668523 174.13027 
" clip-path="url(#pc8fa1dbd78)" style="fill: none; stroke: #a2da37; stroke-width: 1.5; stroke-linecap: square"/>
   </g>
   <g id="line2d_41">
    <path d="M 60.013977 92.513445 
L 71.208962 91.742058 
L 82.403946 89.345492 
L 93.59893 88.071869 
L 104.793915 86.430876 
L 115.988899 85.864435 
L 127.183883 83.945071 
L 138.378868 82.518491 
L 149.573852 81.197276 
L 160.768836 78.962807 
L 171.963821 78.227995 
L 183.158805 80.651944 
L 194.353789 89.508433 
L 205.548774 116.441603 
L 216.743758 168.203993 
L 227.938742 233.956482 
L 239.133726 265.759655 
L 250.328711 233.016101 
L 261.523695 207.580545 
L 272.718679 191.017877 
L 283.913664 181.297773 
L 295.108648 175.460914 
L 306.303632 171.62371 
L 317.498617 169.292534 
L 328.693601 168.797936 
L 339.888585 167.817766 
L 351.08357 168.910103 
L 362.278554 169.405275 
L 373.473538 169.842163 
L 384.668523 171.217645 
" clip-path="url(#pc8fa1dbd78)" style="fill: none; stroke: #bade28; stroke-width: 1.5; stroke-linecap: square"/>
   </g>
   <g id="line2d_42">
    <path d="M 60.013977 84.277908 
L 71.208962 82.083745 
L 82.403946 79.882679 
L 93.59893 79.216479 
L 104.793915 77.547091 
L 115.988899 75.746717 
L 127.183883 74.115504 
L 138.378868 72.200504 
L 149.573852 70.035136 
L 160.768836 68.556127 
L 171.963821 69.614328 
L 183.158805 71.249171 
L 194.353789 79.16581 
L 205.548774 107.760161 
L 216.743758 162.653682 
L 227.938742 232.035503 
L 239.133726 264.770575 
L 250.328711 228.954938 
L 261.523695 203.174282 
L 272.718679 186.08284 
L 283.913664 175.542838 
L 295.108648 168.144629 
L 306.303632 165.2349 
L 317.498617 162.577356 
L 328.693601 161.744423 
L 339.888585 162.031334 
L 351.08357 162.026283 
L 362.278554 162.615962 
L 373.473538 163.835536 
L 384.668523 164.713367 
" clip-path="url(#pc8fa1dbd78)" style="fill: none; stroke: #d2e21b; stroke-width: 1.5; stroke-linecap: square"/>
   </g>
   <g id="line2d_43">
    <path d="M 60.013977 77.338952 
L 71.208962 75.83803 
L 82.403946 73.192996 
L 93.59893 71.769382 
L 104.793915 69.848662 
L 115.988899 69.197158 
L 127.183883 66.826692 
L 138.378868 64.414093 
L 149.573852 63.192602 
L 160.768836 61.901143 
L 171.963821 61.868391 
L 183.158805 63.522969 
L 194.353789 72.915677 
L 205.548774 101.678233 
L 216.743758 158.398295 
L 227.938742 230.574202 
L 239.133726 264.073293 
L 250.328711 227.033743 
L 261.523695 199.987233 
L 272.718679 182.339754 
L 283.913664 170.369571 
L 295.108648 165.029428 
L 306.303632 160.518156 
L 317.498617 158.222048 
L 328.693601 158.205394 
L 339.888585 157.694382 
L 351.08357 157.669269 
L 362.278554 158.849839 
L 373.473538 160.254248 
L 384.668523 161.354494 
" clip-path="url(#pc8fa1dbd78)" style="fill: none; stroke: #eae51a; stroke-width: 1.5; stroke-linecap: square"/>
   </g>
   <g id="line2d_44">
    <path d="M 60.013977 70.276044 
L 71.208962 68.495351 
L 82.403946 66.922068 
L 93.59893 65.089927 
L 104.793915 62.900752 
L 115.988899 60.599546 
L 127.183883 59.87007 
L 138.378868 58.490045 
L 149.573852 56.093683 
L 160.768836 54.491537 
L 171.963821 53.856 
L 183.158805 56.929634 
L 194.353789 66.271462 
L 205.548774 95.53445 
L 216.743758 153.534642 
L 227.938742 227.777448 
L 239.133726 262.422192 
L 250.328711 223.828407 
L 261.523695 196.893785 
L 272.718679 178.696856 
L 283.913664 167.466936 
L 295.108648 161.200667 
L 306.303632 157.174366 
L 317.498617 154.097178 
L 328.693601 153.537849 
L 339.888585 152.78134 
L 351.08357 152.472087 
L 362.278554 153.449585 
L 373.473538 155.217094 
L 384.668523 156.299993 
" clip-path="url(#pc8fa1dbd78)" style="fill: none; stroke: #fde725; stroke-width: 1.5; stroke-linecap: square"/>
   </g>
   <g id="patch_3">
    <path d="M 43.78125 307.872 
L 43.78125 41.76 
" style="fill: none; stroke: #000000; stroke-width: 0.8; stroke-linejoin: miter; stroke-linecap: square"/>
   </g>
   <g id="patch_4">
    <path d="M 400.90125 307.872 
L 400.90125 41.76 
" style="fill: none; stroke: #000000; stroke-width: 0.8; stroke-linejoin: miter; stroke-linecap: square"/>
   </g>
   <g id="patch_5">
    <path d="M 43.78125 307.872 
L 400.90125 307.872 
" style="fill: none; stroke: #000000; stroke-width: 0.8; stroke-linejoin: miter; stroke-linecap: square"/>
   </g>
   <g id="patch_6">
    <path d="M 43.78125 41.76 
L 400.90125 41.76 
" style="fill: none; stroke: #000000; stroke-width: 0.8; stroke-linejoin: miter; stroke-linecap: square"/>
   </g>
   <g id="legend_1">
    <g id="patch_7">
     <path d="M 420.75725 307.872 
L 634.641625 307.872 
Q 636.641625 307.872 636.641625 305.872 
L 636.641625 145.412625 
Q 636.641625 143.412625 634.641625 143.412625 
L 420.75725 143.412625 
Q 418.75725 143.412625 418.75725 145.412625 
L 418.75725 305.872 
Q 418.75725 307.872 420.75725 307.872 
z
" style="fill: #ffffff; opacity: 0.8; stroke: #cccccc; stroke-linejoin: miter"/>
    </g>
    <g id="text_18">
     <!-- Readout pulse amplitude () -->
     <g transform="translate(459.598656 155.011063) scale(0.1 -0.1)">
      <defs>
       <path id="DejaVuSans-52" d="M 2841 2188 
Q 3044 2119 3236 1894 
Q 3428 1669 3622 1275 
L 4263 0 
L 3584 0 
L 2988 1197 
Q 2756 1666 2539 1819 
Q 2322 1972 1947 1972 
L 1259 1972 
L 1259 0 
L 628 0 
L 628 4666 
L 2053 4666 
Q 2853 4666 3247 4331 
Q 3641 3997 3641 3322 
Q 3641 2881 3436 2590 
Q 3231 2300 2841 2188 
z
M 1259 4147 
L 1259 2491 
L 2053 2491 
Q 2509 2491 2742 2702 
Q 2975 2913 2975 3322 
Q 2975 3731 2742 3939 
Q 2509 4147 2053 4147 
L 1259 4147 
z
" transform="scale(0.015625)"/>
       <path id="DejaVuSans-6f" d="M 1959 3097 
Q 1497 3097 1228 2736 
Q 959 2375 959 1747 
Q 959 1119 1226 758 
Q 1494 397 1959 397 
Q 2419 397 2687 759 
Q 2956 1122 2956 1747 
Q 2956 2369 2687 2733 
Q 2419 3097 1959 3097 
z
M 1959 3584 
Q 2709 3584 3137 3096 
Q 3566 2609 3566 1747 
Q 3566 888 3137 398 
Q 2709 -91 1959 -91 
Q 1206 -91 779 398 
Q 353 888 353 1747 
Q 353 2609 779 3096 
Q 1206 3584 1959 3584 
z
" transform="scale(0.015625)"/>
       <path id="DejaVuSans-70" d="M 1159 525 
L 1159 -1331 
L 581 -1331 
L 581 3500 
L 1159 3500 
L 1159 2969 
Q 1341 3281 1617 3432 
Q 1894 3584 2278 3584 
Q 2916 3584 3314 3078 
Q 3713 2572 3713 1747 
Q 3713 922 3314 415 
Q 2916 -91 2278 -91 
Q 1894 -91 1617 61 
Q 1341 213 1159 525 
z
M 3116 1747 
Q 3116 2381 2855 2742 
Q 2594 3103 2138 3103 
Q 1681 3103 1420 2742 
Q 1159 2381 1159 1747 
Q 1159 1113 1420 752 
Q 1681 391 2138 391 
Q 2594 391 2855 752 
Q 3116 1113 3116 1747 
z
" transform="scale(0.015625)"/>
       <path id="DejaVuSans-6c" d="M 603 4863 
L 1178 4863 
L 1178 0 
L 603 0 
L 603 4863 
z
" transform="scale(0.015625)"/>
       <path id="DejaVuSans-73" d="M 2834 3397 
L 2834 2853 
Q 2591 2978 2328 3040 
Q 2066 3103 1784 3103 
Q 1356 3103 1142 2972 
Q 928 2841 928 2578 
Q 928 2378 1081 2264 
Q 1234 2150 1697 2047 
L 1894 2003 
Q 2506 1872 2764 1633 
Q 3022 1394 3022 966 
Q 3022 478 2636 193 
Q 2250 -91 1575 -91 
Q 1294 -91 989 -36 
Q 684 19 347 128 
L 347 722 
Q 666 556 975 473 
Q 1284 391 1588 391 
Q 1994 391 2212 530 
Q 2431 669 2431 922 
Q 2431 1156 2273 1281 
Q 2116 1406 1581 1522 
L 1381 1569 
Q 847 1681 609 1914 
Q 372 2147 372 2553 
Q 372 3047 722 3315 
Q 1072 3584 1716 3584 
Q 2034 3584 2315 3537 
Q 2597 3491 2834 3397 
z
" transform="scale(0.015625)"/>
       <path id="DejaVuSans-28" d="M 1984 4856 
Q 1566 4138 1362 3434 
Q 1159 2731 1159 2009 
Q 1159 1288 1364 580 
Q 1569 -128 1984 -844 
L 1484 -844 
Q 1016 -109 783 600 
Q 550 1309 550 2009 
Q 550 2706 781 3412 
Q 1013 4119 1484 4856 
L 1984 4856 
z
" transform="scale(0.015625)"/>
       <path id="DejaVuSans-29" d="M 513 4856 
L 1013 4856 
Q 1481 4119 1714 3412 
Q 1947 2706 1947 2009 
Q 1947 1309 1714 600 
Q 1481 -109 1013 -844 
L 513 -844 
Q 928 -128 1133 580 
Q 1338 1288 1338 2009 
Q 1338 2731 1133 3434 
Q 928 4138 513 4856 
z
" transform="scale(0.015625)"/>
      </defs>
      <use xlink:href="#DejaVuSans-52"/>
      <use xlink:href="#DejaVuSans-65" x="64.982422"/>
      <use xlink:href="#DejaVuSans-61" x="126.505859"/>
      <use xlink:href="#DejaVuSans-64" x="187.785156"/>
      <use xlink:href="#DejaVuSans-6f" x="251.261719"/>
      <use xlink:href="#DejaVuSans-75" x="312.443359"/>
      <use xlink:href="#DejaVuSans-74" x="375.822266"/>
      <use xlink:href="#DejaVuSans-20" x="415.03125"/>
      <use xlink:href="#DejaVuSans-70" x="446.818359"/>
      <use xlink:href="#DejaVuSans-75" x="510.294922"/>
      <use xlink:href="#DejaVuSans-6c" x="573.673828"/>
      <use xlink:href="#DejaVuSans-73" x="601.457031"/>
      <use xlink:href="#DejaVuSans-65" x="653.556641"/>
      <use xlink:href="#DejaVuSans-20" x="715.080078"/>
      <use xlink:href="#DejaVuSans-61" x="746.867188"/>
      <use xlink:href="#DejaVuSans-6d" x="808.146484"/>
      <use xlink:href="#DejaVuSans-70" x="905.558594"/>
      <use xlink:href="#DejaVuSans-6c" x="969.035156"/>
      <use xlink:href="#DejaVuSans-69" x="996.818359"/>
      <use xlink:href="#DejaVuSans-74" x="1024.601562"/>
      <use xlink:href="#DejaVuSans-75" x="1063.810547"/>
      <use xlink:href="#DejaVuSans-64" x="1127.189453"/>
      <use xlink:href="#DejaVuSans-65" x="1190.666016"/>
      <use xlink:href="#DejaVuSans-20" x="1252.189453"/>
      <use xlink:href="#DejaVuSans-28" x="1283.976562"/>
      <use xlink:href="#DejaVuSans-29" x="1322.990234"/>
     </g>
    </g>
    <g id="line2d_45">
     <path d="M 422.75725 166.189188 
L 432.75725 166.189188 
L 442.75725 166.189188 
" style="fill: none; stroke: #440154; stroke-width: 1.5; stroke-linecap: square"/>
    </g>
    <g id="text_19">
     <!-- 0.1 -->
     <g transform="translate(450.75725 169.689188) scale(0.1 -0.1)">
      <use xlink:href="#DejaVuSans-30"/>
      <use xlink:href="#DejaVuSans-2e" x="63.623047"/>
      <use xlink:href="#DejaVuSans-31" x="95.410156"/>
     </g>
    </g>
    <g id="line2d_46">
     <path d="M 422.75725 180.867313 
L 432.75725 180.867313 
L 442.75725 180.867313 
" style="fill: none; stroke: #470d60; stroke-width: 1.5; stroke-linecap: square"/>
    </g>
    <g id="text_20">
     <!-- 0.121 -->
     <g transform="translate(450.75725 184.367313) scale(0.1 -0.1)">
      <use xlink:href="#DejaVuSans-30"/>
      <use xlink:href="#DejaVuSans-2e" x="63.623047"/>
      <use xlink:href="#DejaVuSans-31" x="95.410156"/>
      <use xlink:href="#DejaVuSans-32" x="159.033203"/>
      <use xlink:href="#DejaVuSans-31" x="222.65625"/>
     </g>
    </g>
    <g id="line2d_47">
     <path d="M 422.75725 195.545438 
L 432.75725 195.545438 
L 442.75725 195.545438 
" style="fill: none; stroke: #481a6c; stroke-width: 1.5; stroke-linecap: square"/>
    </g>
    <g id="text_21">
     <!-- 0.141 -->
     <g transform="translate(450.75725 199.045438) scale(0.1 -0.1)">
      <use xlink:href="#DejaVuSans-30"/>
      <use xlink:href="#DejaVuSans-2e" x="63.623047"/>
      <use xlink:href="#DejaVuSans-31" x="95.410156"/>
      <use xlink:href="#DejaVuSans-34" x="159.033203"/>
      <use xlink:href="#DejaVuSans-31" x="222.65625"/>
     </g>
    </g>
    <g id="line2d_48">
     <path d="M 422.75725 210.223563 
L 432.75725 210.223563 
L 442.75725 210.223563 
" style="fill: none; stroke: #482576; stroke-width: 1.5; stroke-linecap: square"/>
    </g>
    <g id="text_22">
     <!-- 0.162 -->
     <g transform="translate(450.75725 213.723563) scale(0.1 -0.1)">
      <use xlink:href="#DejaVuSans-30"/>
      <use xlink:href="#DejaVuSans-2e" x="63.623047"/>
      <use xlink:href="#DejaVuSans-31" x="95.410156"/>
      <use xlink:href="#DejaVuSans-36" x="159.033203"/>
      <use xlink:href="#DejaVuSans-32" x="222.65625"/>
     </g>
    </g>
    <g id="line2d_49">
     <path d="M 422.75725 224.901688 
L 432.75725 224.901688 
L 442.75725 224.901688 
" style="fill: none; stroke: #46307e; stroke-width: 1.5; stroke-linecap: square"/>
    </g>
    <g id="text_23">
     <!-- 0.183 -->
     <g transform="translate(450.75725 228.401688) scale(0.1 -0.1)">
      <use xlink:href="#DejaVuSans-30"/>
      <use xlink:href="#DejaVuSans-2e" x="63.623047"/>
      <use xlink:href="#DejaVuSans-31" x="95.410156"/>
      <use xlink:href="#DejaVuSans-38" x="159.033203"/>
      <use xlink:href="#DejaVuSans-33" x="222.65625"/>
     </g>
    </g>
    <g id="line2d_50">
     <path d="M 422.75725 239.579813 
L 432.75725 239.579813 
L 442.75725 239.579813 
" style="fill: none; stroke: #443b84; stroke-width: 1.5; stroke-linecap: square"/>
    </g>
    <g id="text_24">
     <!-- 0.203 -->
     <g transform="translate(450.75725 243.079813) scale(0.1 -0.1)">
      <use xlink:href="#DejaVuSans-30"/>
      <use xlink:href="#DejaVuSans-2e" x="63.623047"/>
      <use xlink:href="#DejaVuSans-32" x="95.410156"/>
      <use xlink:href="#DejaVuSans-30" x="159.033203"/>
      <use xlink:href="#DejaVuSans-33" x="222.65625"/>
     </g>
    </g>
    <g id="line2d_51">
     <path d="M 422.75725 254.257938 
L 432.75725 254.257938 
L 442.75725 254.257938 
" style="fill: none; stroke: #404588; stroke-width: 1.5; stroke-linecap: square"/>
    </g>
    <g id="text_25">
     <!-- 0.224 -->
     <g transform="translate(450.75725 257.757938) scale(0.1 -0.1)">
      <use xlink:href="#DejaVuSans-30"/>
      <use xlink:href="#DejaVuSans-2e" x="63.623047"/>
      <use xlink:href="#DejaVuSans-32" x="95.410156"/>
      <use xlink:href="#DejaVuSans-32" x="159.033203"/>
      <use xlink:href="#DejaVuSans-34" x="222.65625"/>
     </g>
    </g>
    <g id="line2d_52">
     <path d="M 422.75725 268.936062 
L 432.75725 268.936062 
L 442.75725 268.936062 
" style="fill: none; stroke: #3c4f8a; stroke-width: 1.5; stroke-linecap: square"/>
    </g>
    <g id="text_26">
     <!-- 0.245 -->
     <g transform="translate(450.75725 272.436062) scale(0.1 -0.1)">
      <use xlink:href="#DejaVuSans-30"/>
      <use xlink:href="#DejaVuSans-2e" x="63.623047"/>
      <use xlink:href="#DejaVuSans-32" x="95.410156"/>
      <use xlink:href="#DejaVuSans-34" x="159.033203"/>
      <use xlink:href="#DejaVuSans-35" x="222.65625"/>
     </g>
    </g>
    <g id="line2d_53">
     <path d="M 422.75725 283.614188 
L 432.75725 283.614188 
L 442.75725 283.614188 
" style="fill: none; stroke: #38598c; stroke-width: 1.5; stroke-linecap: square"/>
    </g>
    <g id="text_27">
     <!-- 0.266 -->
     <g transform="translate(450.75725 287.114188) scale(0.1 -0.1)">
      <use xlink:href="#DejaVuSans-30"/>
      <use xlink:href="#DejaVuSans-2e" x="63.623047"/>
      <use xlink:href="#DejaVuSans-32" x="95.410156"/>
      <use xlink:href="#DejaVuSans-36" x="159.033203"/>
      <use xlink:href="#DejaVuSans-36" x="222.65625"/>
     </g>
    </g>
    <g id="line2d_54">
     <path d="M 422.75725 298.292312 
L 432.75725 298.292312 
L 442.75725 298.292312 
" style="fill: none; stroke: #33628d; stroke-width: 1.5; stroke-linecap: square"/>
    </g>
    <g id="text_28">
     <!-- 0.286 -->
     <g transform="translate(450.75725 301.792312) scale(0.1 -0.1)">
      <use xlink:href="#DejaVuSans-30"/>
      <use xlink:href="#DejaVuSans-2e" x="63.623047"/>
      <use xlink:href="#DejaVuSans-32" x="95.410156"/>
      <use xlink:href="#DejaVuSans-38" x="159.033203"/>
      <use xlink:href="#DejaVuSans-36" x="222.65625"/>
     </g>
    </g>
    <g id="line2d_55">
     <path d="M 499.385375 166.189188 
L 509.385375 166.189188 
L 519.385375 166.189188 
" style="fill: none; stroke: #2f6b8e; stroke-width: 1.5; stroke-linecap: square"/>
    </g>
    <g id="text_29">
     <!-- 0.307 -->
     <g transform="translate(527.385375 169.689188) scale(0.1 -0.1)">
      <use xlink:href="#DejaVuSans-30"/>
      <use xlink:href="#DejaVuSans-2e" x="63.623047"/>
      <use xlink:href="#DejaVuSans-33" x="95.410156"/>
      <use xlink:href="#DejaVuSans-30" x="159.033203"/>
      <use xlink:href="#DejaVuSans-37" x="222.65625"/>
     </g>
    </g>
    <g id="line2d_56">
     <path d="M 499.385375 180.867313 
L 509.385375 180.867313 
L 519.385375 180.867313 
" style="fill: none; stroke: #2c738e; stroke-width: 1.5; stroke-linecap: square"/>
    </g>
    <g id="text_30">
     <!-- 0.328 -->
     <g transform="translate(527.385375 184.367313) scale(0.1 -0.1)">
      <use xlink:href="#DejaVuSans-30"/>
      <use xlink:href="#DejaVuSans-2e" x="63.623047"/>
      <use xlink:href="#DejaVuSans-33" x="95.410156"/>
      <use xlink:href="#DejaVuSans-32" x="159.033203"/>
      <use xlink:href="#DejaVuSans-38" x="222.65625"/>
     </g>
    </g>
    <g id="line2d_57">
     <path d="M 499.385375 195.545438 
L 509.385375 195.545438 
L 519.385375 195.545438 
" style="fill: none; stroke: #297b8e; stroke-width: 1.5; stroke-linecap: square"/>
    </g>
    <g id="text_31">
     <!-- 0.348 -->
     <g transform="translate(527.385375 199.045438) scale(0.1 -0.1)">
      <use xlink:href="#DejaVuSans-30"/>
      <use xlink:href="#DejaVuSans-2e" x="63.623047"/>
      <use xlink:href="#DejaVuSans-33" x="95.410156"/>
      <use xlink:href="#DejaVuSans-34" x="159.033203"/>
      <use xlink:href="#DejaVuSans-38" x="222.65625"/>
     </g>
    </g>
    <g id="line2d_58">
     <path d="M 499.385375 210.223563 
L 509.385375 210.223563 
L 519.385375 210.223563 
" style="fill: none; stroke: #25838e; stroke-width: 1.5; stroke-linecap: square"/>
    </g>
    <g id="text_32">
     <!-- 0.369 -->
     <g transform="translate(527.385375 213.723563) scale(0.1 -0.1)">
      <use xlink:href="#DejaVuSans-30"/>
      <use xlink:href="#DejaVuSans-2e" x="63.623047"/>
      <use xlink:href="#DejaVuSans-33" x="95.410156"/>
      <use xlink:href="#DejaVuSans-36" x="159.033203"/>
      <use xlink:href="#DejaVuSans-39" x="222.65625"/>
     </g>
    </g>
    <g id="line2d_59">
     <path d="M 499.385375 224.901688 
L 509.385375 224.901688 
L 519.385375 224.901688 
" style="fill: none; stroke: #228c8d; stroke-width: 1.5; stroke-linecap: square"/>
    </g>
    <g id="text_33">
     <!-- 0.39 -->
     <g transform="translate(527.385375 228.401688) scale(0.1 -0.1)">
      <use xlink:href="#DejaVuSans-30"/>
      <use xlink:href="#DejaVuSans-2e" x="63.623047"/>
      <use xlink:href="#DejaVuSans-33" x="95.410156"/>
      <use xlink:href="#DejaVuSans-39" x="159.033203"/>
     </g>
    </g>
    <g id="line2d_60">
     <path d="M 499.385375 239.579813 
L 509.385375 239.579813 
L 519.385375 239.579813 
" style="fill: none; stroke: #1f948c; stroke-width: 1.5; stroke-linecap: square"/>
    </g>
    <g id="text_34">
     <!-- 0.41 -->
     <g transform="translate(527.385375 243.079813) scale(0.1 -0.1)">
      <use xlink:href="#DejaVuSans-30"/>
      <use xlink:href="#DejaVuSans-2e" x="63.623047"/>
      <use xlink:href="#DejaVuSans-34" x="95.410156"/>
      <use xlink:href="#DejaVuSans-31" x="159.033203"/>
     </g>
    </g>
    <g id="line2d_61">
     <path d="M 499.385375 254.257938 
L 509.385375 254.257938 
L 519.385375 254.257938 
" style="fill: none; stroke: #1e9d89; stroke-width: 1.5; stroke-linecap: square"/>
    </g>
    <g id="text_35">
     <!-- 0.431 -->
     <g transform="translate(527.385375 257.757938) scale(0.1 -0.1)">
      <use xlink:href="#DejaVuSans-30"/>
      <use xlink:href="#DejaVuSans-2e" x="63.623047"/>
      <use xlink:href="#DejaVuSans-34" x="95.410156"/>
      <use xlink:href="#DejaVuSans-33" x="159.033203"/>
      <use xlink:href="#DejaVuSans-31" x="222.65625"/>
     </g>
    </g>
    <g id="line2d_62">
     <path d="M 499.385375 268.936062 
L 509.385375 268.936062 
L 519.385375 268.936062 
" style="fill: none; stroke: #21a585; stroke-width: 1.5; stroke-linecap: square"/>
    </g>
    <g id="text_36">
     <!-- 0.452 -->
     <g transform="translate(527.385375 272.436062) scale(0.1 -0.1)">
      <use xlink:href="#DejaVuSans-30"/>
      <use xlink:href="#DejaVuSans-2e" x="63.623047"/>
      <use xlink:href="#DejaVuSans-34" x="95.410156"/>
      <use xlink:href="#DejaVuSans-35" x="159.033203"/>
      <use xlink:href="#DejaVuSans-32" x="222.65625"/>
     </g>
    </g>
    <g id="line2d_63">
     <path d="M 499.385375 283.614188 
L 509.385375 283.614188 
L 519.385375 283.614188 
" style="fill: none; stroke: #26ad81; stroke-width: 1.5; stroke-linecap: square"/>
    </g>
    <g id="text_37">
     <!-- 0.472 -->
     <g transform="translate(527.385375 287.114188) scale(0.1 -0.1)">
      <use xlink:href="#DejaVuSans-30"/>
      <use xlink:href="#DejaVuSans-2e" x="63.623047"/>
      <use xlink:href="#DejaVuSans-34" x="95.410156"/>
      <use xlink:href="#DejaVuSans-37" x="159.033203"/>
      <use xlink:href="#DejaVuSans-32" x="222.65625"/>
     </g>
    </g>
    <g id="line2d_64">
     <path d="M 499.385375 298.292312 
L 509.385375 298.292312 
L 519.385375 298.292312 
" style="fill: none; stroke: #31b57b; stroke-width: 1.5; stroke-linecap: square"/>
    </g>
    <g id="text_38">
     <!-- 0.493 -->
     <g transform="translate(527.385375 301.792312) scale(0.1 -0.1)">
      <use xlink:href="#DejaVuSans-30"/>
      <use xlink:href="#DejaVuSans-2e" x="63.623047"/>
      <use xlink:href="#DejaVuSans-34" x="95.410156"/>
      <use xlink:href="#DejaVuSans-39" x="159.033203"/>
      <use xlink:href="#DejaVuSans-33" x="222.65625"/>
     </g>
    </g>
    <g id="line2d_65">
     <path d="M 576.0135 166.189188 
L 586.0135 166.189188 
L 596.0135 166.189188 
" style="fill: none; stroke: #3fbc73; stroke-width: 1.5; stroke-linecap: square"/>
    </g>
    <g id="text_39">
     <!-- 0.514 -->
     <g transform="translate(604.0135 169.689188) scale(0.1 -0.1)">
      <use xlink:href="#DejaVuSans-30"/>
      <use xlink:href="#DejaVuSans-2e" x="63.623047"/>
      <use xlink:href="#DejaVuSans-35" x="95.410156"/>
      <use xlink:href="#DejaVuSans-31" x="159.033203"/>
      <use xlink:href="#DejaVuSans-34" x="222.65625"/>
     </g>
    </g>
    <g id="line2d_66">
     <path d="M 576.0135 180.867313 
L 586.0135 180.867313 
L 596.0135 180.867313 
" style="fill: none; stroke: #50c46a; stroke-width: 1.5; stroke-linecap: square"/>
    </g>
    <g id="text_40">
     <!-- 0.534 -->
     <g transform="translate(604.0135 184.367313) scale(0.1 -0.1)">
      <use xlink:href="#DejaVuSans-30"/>
      <use xlink:href="#DejaVuSans-2e" x="63.623047"/>
      <use xlink:href="#DejaVuSans-35" x="95.410156"/>
      <use xlink:href="#DejaVuSans-33" x="159.033203"/>
      <use xlink:href="#DejaVuSans-34" x="222.65625"/>
     </g>
    </g>
    <g id="line2d_67">
     <path d="M 576.0135 195.545438 
L 586.0135 195.545438 
L 596.0135 195.545438 
" style="fill: none; stroke: #63cb5f; stroke-width: 1.5; stroke-linecap: square"/>
    </g>
    <g id="text_41">
     <!-- 0.555 -->
     <g transform="translate(604.0135 199.045438) scale(0.1 -0.1)">
      <use xlink:href="#DejaVuSans-30"/>
      <use xlink:href="#DejaVuSans-2e" x="63.623047"/>
      <use xlink:href="#DejaVuSans-35" x="95.410156"/>
      <use xlink:href="#DejaVuSans-35" x="159.033203"/>
      <use xlink:href="#DejaVuSans-35" x="222.65625"/>
     </g>
    </g>
    <g id="line2d_68">
     <path d="M 576.0135 210.223563 
L 586.0135 210.223563 
L 596.0135 210.223563 
" style="fill: none; stroke: #77d153; stroke-width: 1.5; stroke-linecap: square"/>
    </g>
    <g id="text_42">
     <!-- 0.576 -->
     <g transform="translate(604.0135 213.723563) scale(0.1 -0.1)">
      <use xlink:href="#DejaVuSans-30"/>
      <use xlink:href="#DejaVuSans-2e" x="63.623047"/>
      <use xlink:href="#DejaVuSans-35" x="95.410156"/>
      <use xlink:href="#DejaVuSans-37" x="159.033203"/>
      <use xlink:href="#DejaVuSans-36" x="222.65625"/>
     </g>
    </g>
    <g id="line2d_69">
     <path d="M 576.0135 224.901688 
L 586.0135 224.901688 
L 596.0135 224.901688 
" style="fill: none; stroke: #8bd646; stroke-width: 1.5; stroke-linecap: square"/>
    </g>
    <g id="text_43">
     <!-- 0.597 -->
     <g transform="translate(604.0135 228.401688) scale(0.1 -0.1)">
      <use xlink:href="#DejaVuSans-30"/>
      <use xlink:href="#DejaVuSans-2e" x="63.623047"/>
      <use xlink:href="#DejaVuSans-35" x="95.410156"/>
      <use xlink:href="#DejaVuSans-39" x="159.033203"/>
      <use xlink:href="#DejaVuSans-37" x="222.65625"/>
     </g>
    </g>
    <g id="line2d_70">
     <path d="M 576.0135 239.579813 
L 586.0135 239.579813 
L 596.0135 239.579813 
" style="fill: none; stroke: #a2da37; stroke-width: 1.5; stroke-linecap: square"/>
    </g>
    <g id="text_44">
     <!-- 0.617 -->
     <g transform="translate(604.0135 243.079813) scale(0.1 -0.1)">
      <use xlink:href="#DejaVuSans-30"/>
      <use xlink:href="#DejaVuSans-2e" x="63.623047"/>
      <use xlink:href="#DejaVuSans-36" x="95.410156"/>
      <use xlink:href="#DejaVuSans-31" x="159.033203"/>
      <use xlink:href="#DejaVuSans-37" x="222.65625"/>
     </g>
    </g>
    <g id="line2d_71">
     <path d="M 576.0135 254.257938 
L 586.0135 254.257938 
L 596.0135 254.257938 
" style="fill: none; stroke: #bade28; stroke-width: 1.5; stroke-linecap: square"/>
    </g>
    <g id="text_45">
     <!-- 0.638 -->
     <g transform="translate(604.0135 257.757938) scale(0.1 -0.1)">
      <use xlink:href="#DejaVuSans-30"/>
      <use xlink:href="#DejaVuSans-2e" x="63.623047"/>
      <use xlink:href="#DejaVuSans-36" x="95.410156"/>
      <use xlink:href="#DejaVuSans-33" x="159.033203"/>
      <use xlink:href="#DejaVuSans-38" x="222.65625"/>
     </g>
    </g>
    <g id="line2d_72">
     <path d="M 576.0135 268.936062 
L 586.0135 268.936062 
L 596.0135 268.936062 
" style="fill: none; stroke: #d2e21b; stroke-width: 1.5; stroke-linecap: square"/>
    </g>
    <g id="text_46">
     <!-- 0.659 -->
     <g transform="translate(604.0135 272.436062) scale(0.1 -0.1)">
      <use xlink:href="#DejaVuSans-30"/>
      <use xlink:href="#DejaVuSans-2e" x="63.623047"/>
      <use xlink:href="#DejaVuSans-36" x="95.410156"/>
      <use xlink:href="#DejaVuSans-35" x="159.033203"/>
      <use xlink:href="#DejaVuSans-39" x="222.65625"/>
     </g>
    </g>
    <g id="line2d_73">
     <path d="M 576.0135 283.614188 
L 586.0135 283.614188 
L 596.0135 283.614188 
" style="fill: none; stroke: #eae51a; stroke-width: 1.5; stroke-linecap: square"/>
    </g>
    <g id="text_47">
     <!-- 0.679 -->
     <g transform="translate(604.0135 287.114188) scale(0.1 -0.1)">
      <use xlink:href="#DejaVuSans-30"/>
      <use xlink:href="#DejaVuSans-2e" x="63.623047"/>
      <use xlink:href="#DejaVuSans-36" x="95.410156"/>
      <use xlink:href="#DejaVuSans-37" x="159.033203"/>
      <use xlink:href="#DejaVuSans-39" x="222.65625"/>
     </g>
    </g>
    <g id="line2d_74">
     <path d="M 576.0135 298.292312 
L 586.0135 298.292312 
L 596.0135 298.292312 
" style="fill: none; stroke: #fde725; stroke-width: 1.5; stroke-linecap: square"/>
    </g>
    <g id="text_48">
     <!-- 0.7 -->
     <g transform="translate(604.0135 301.792312) scale(0.1 -0.1)">
      <use xlink:href="#DejaVuSans-30"/>
      <use xlink:href="#DejaVuSans-2e" x="63.623047"/>
      <use xlink:href="#DejaVuSans-37" x="95.410156"/>
     </g>
    </g>
   </g>
  </g>
  <g id="text_49">
   <!-- x0x1-y0 One-tone-powerDep -->
   <g transform="translate(129.777188 16.318125) scale(0.12 -0.12)">
    <defs>
     <path id="DejaVuSans-78" d="M 3513 3500 
L 2247 1797 
L 3578 0 
L 2900 0 
L 1881 1375 
L 863 0 
L 184 0 
L 1544 1831 
L 300 3500 
L 978 3500 
L 1906 2253 
L 2834 3500 
L 3513 3500 
z
" transform="scale(0.015625)"/>
     <path id="DejaVuSans-2d" d="M 313 2009 
L 1997 2009 
L 1997 1497 
L 313 1497 
L 313 2009 
z
" transform="scale(0.015625)"/>
     <path id="DejaVuSans-4f" d="M 2522 4238 
Q 1834 4238 1429 3725 
Q 1025 3213 1025 2328 
Q 1025 1447 1429 934 
Q 1834 422 2522 422 
Q 3209 422 3611 934 
Q 4013 1447 4013 2328 
Q 4013 3213 3611 3725 
Q 3209 4238 2522 4238 
z
M 2522 4750 
Q 3503 4750 4090 4092 
Q 4678 3434 4678 2328 
Q 4678 1225 4090 567 
Q 3503 -91 2522 -91 
Q 1538 -91 948 565 
Q 359 1222 359 2328 
Q 359 3434 948 4092 
Q 1538 4750 2522 4750 
z
" transform="scale(0.015625)"/>
     <path id="DejaVuSans-77" d="M 269 3500 
L 844 3500 
L 1563 769 
L 2278 3500 
L 2956 3500 
L 3675 769 
L 4391 3500 
L 4966 3500 
L 4050 0 
L 3372 0 
L 2619 2869 
L 1863 0 
L 1184 0 
L 269 3500 
z
" transform="scale(0.015625)"/>
     <path id="DejaVuSans-44" d="M 1259 4147 
L 1259 519 
L 2022 519 
Q 2988 519 3436 956 
Q 3884 1394 3884 2338 
Q 3884 3275 3436 3711 
Q 2988 4147 2022 4147 
L 1259 4147 
z
M 628 4666 
L 1925 4666 
Q 3281 4666 3915 4102 
Q 4550 3538 4550 2338 
Q 4550 1131 3912 565 
Q 3275 0 1925 0 
L 628 0 
L 628 4666 
z
" transform="scale(0.015625)"/>
    </defs>
    <use xlink:href="#DejaVuSans-78"/>
    <use xlink:href="#DejaVuSans-30" x="59.179688"/>
    <use xlink:href="#DejaVuSans-78" x="122.802734"/>
    <use xlink:href="#DejaVuSans-31" x="181.982422"/>
    <use xlink:href="#DejaVuSans-2d" x="245.605469"/>
    <use xlink:href="#DejaVuSans-79" x="279.939453"/>
    <use xlink:href="#DejaVuSans-30" x="339.119141"/>
    <use xlink:href="#DejaVuSans-20" x="402.742188"/>
    <use xlink:href="#DejaVuSans-4f" x="434.529297"/>
    <use xlink:href="#DejaVuSans-6e" x="513.240234"/>
    <use xlink:href="#DejaVuSans-65" x="576.619141"/>
    <use xlink:href="#DejaVuSans-2d" x="638.142578"/>
    <use xlink:href="#DejaVuSans-74" x="674.226562"/>
    <use xlink:href="#DejaVuSans-6f" x="713.435547"/>
    <use xlink:href="#DejaVuSans-6e" x="774.617188"/>
    <use xlink:href="#DejaVuSans-65" x="837.996094"/>
    <use xlink:href="#DejaVuSans-2d" x="899.519531"/>
    <use xlink:href="#DejaVuSans-70" x="935.603516"/>
    <use xlink:href="#DejaVuSans-6f" x="999.080078"/>
    <use xlink:href="#DejaVuSans-77" x="1060.261719"/>
    <use xlink:href="#DejaVuSans-65" x="1142.048828"/>
    <use xlink:href="#DejaVuSans-72" x="1203.572266"/>
    <use xlink:href="#DejaVuSans-44" x="1244.685547"/>
    <use xlink:href="#DejaVuSans-65" x="1321.6875"/>
    <use xlink:href="#DejaVuSans-70" x="1383.210938"/>
   </g>
   <!-- tuid: 20240304-151245-272-f93a83 -->
   <g transform="translate(108.571875 29.7555) scale(0.12 -0.12)">
    <defs>
     <path id="DejaVuSans-3a" d="M 750 794 
L 1409 794 
L 1409 0 
L 750 0 
L 750 794 
z
M 750 3309 
L 1409 3309 
L 1409 2516 
L 750 2516 
L 750 3309 
z
" transform="scale(0.015625)"/>
     <path id="DejaVuSans-66" d="M 2375 4863 
L 2375 4384 
L 1825 4384 
Q 1516 4384 1395 4259 
Q 1275 4134 1275 3809 
L 1275 3500 
L 2222 3500 
L 2222 3053 
L 1275 3053 
L 1275 0 
L 697 0 
L 697 3053 
L 147 3053 
L 147 3500 
L 697 3500 
L 697 3744 
Q 697 4328 969 4595 
Q 1241 4863 1831 4863 
L 2375 4863 
z
" transform="scale(0.015625)"/>
    </defs>
    <use xlink:href="#DejaVuSans-74"/>
    <use xlink:href="#DejaVuSans-75" x="39.208984"/>
    <use xlink:href="#DejaVuSans-69" x="102.587891"/>
    <use xlink:href="#DejaVuSans-64" x="130.371094"/>
    <use xlink:href="#DejaVuSans-3a" x="193.847656"/>
    <use xlink:href="#DejaVuSans-20" x="227.539062"/>
    <use xlink:href="#DejaVuSans-32" x="259.326172"/>
    <use xlink:href="#DejaVuSans-30" x="322.949219"/>
    <use xlink:href="#DejaVuSans-32" x="386.572266"/>
    <use xlink:href="#DejaVuSans-34" x="450.195312"/>
    <use xlink:href="#DejaVuSans-30" x="513.818359"/>
    <use xlink:href="#DejaVuSans-33" x="577.441406"/>
    <use xlink:href="#DejaVuSans-30" x="641.064453"/>
    <use xlink:href="#DejaVuSans-34" x="704.6875"/>
    <use xlink:href="#DejaVuSans-2d" x="768.310547"/>
    <use xlink:href="#DejaVuSans-31" x="804.394531"/>
    <use xlink:href="#DejaVuSans-35" x="868.017578"/>
    <use xlink:href="#DejaVuSans-31" x="931.640625"/>
    <use xlink:href="#DejaVuSans-32" x="995.263672"/>
    <use xlink:href="#DejaVuSans-34" x="1058.886719"/>
    <use xlink:href="#DejaVuSans-35" x="1122.509766"/>
    <use xlink:href="#DejaVuSans-2d" x="1186.132812"/>
    <use xlink:href="#DejaVuSans-32" x="1222.216797"/>
    <use xlink:href="#DejaVuSans-37" x="1285.839844"/>
    <use xlink:href="#DejaVuSans-32" x="1349.462891"/>
    <use xlink:href="#DejaVuSans-2d" x="1413.085938"/>
    <use xlink:href="#DejaVuSans-66" x="1449.169922"/>
    <use xlink:href="#DejaVuSans-39" x="1484.375"/>
    <use xlink:href="#DejaVuSans-33" x="1547.998047"/>
    <use xlink:href="#DejaVuSans-61" x="1611.621094"/>
    <use xlink:href="#DejaVuSans-38" x="1672.900391"/>
    <use xlink:href="#DejaVuSans-33" x="1736.523438"/>
   </g>
  </g>
 </g>
 <defs>
  <clipPath id="pc8fa1dbd78">
   <rect x="43.78125" y="41.76" width="357.12" height="266.112"/>
  </clipPath>
 </defs>
</svg>
