<?xml version="1.0" encoding="utf-8" standalone="no"?>
<!DOCTYPE svg PUBLIC "-//W3C//DTD SVG 1.1//EN"
  "http://www.w3.org/Graphics/SVG/1.1/DTD/svg11.dtd">
<svg xmlns:xlink="http://www.w3.org/1999/xlink" width="650.633813pt" height="345.42825pt" viewBox="0 0 650.633813 345.42825" xmlns="http://www.w3.org/2000/svg" version="1.1">
 <metadata>
  <rdf:RDF xmlns:dc="http://purl.org/dc/elements/1.1/" xmlns:cc="http://creativecommons.org/ns#" xmlns:rdf="http://www.w3.org/1999/02/22-rdf-syntax-ns#">
   <cc:Work>
    <dc:type rdf:resource="http://purl.org/dc/dcmitype/StillImage"/>
    <dc:date>2024-03-04T15:27:19.168944</dc:date>
    <dc:format>image/svg+xml</dc:format>
    <dc:creator>
     <cc:Agent>
      <dc:title>Matplotlib v3.8.2, https://matplotlib.org/</dc:title>
     </cc:Agent>
    </dc:creator>
   </cc:Work>
  </rdf:RDF>
 </metadata>
 <defs>
  <style type="text/css">*{stroke-linejoin: round; stroke-linecap: butt}</style>
 </defs>
 <g id="figure_1">
  <g id="patch_1">
   <path d="M 0 345.42825 
L 650.633813 345.42825 
L 650.633813 -0 
L 0 -0 
L 0 345.42825 
z
" style="fill: none; opacity: 0"/>
  </g>
  <g id="axes_1">
   <g id="patch_2">
    <path d="M 50.573438 307.872 
L 407.693438 307.872 
L 407.693438 41.76 
L 50.573438 41.76 
z
" style="fill: #ffffff"/>
   </g>
   <g id="matplotlib.axis_1">
    <g id="xtick_1">
     <g id="line2d_1">
      <defs>
       <path id="mcc213672d2" d="M 0 0 
L 0 3.5 
" style="stroke: #000000; stroke-width: 0.8"/>
      </defs>
      <g>
       <use xlink:href="#mcc213672d2" x="57.962151" y="307.872" style="stroke: #000000; stroke-width: 0.8"/>
      </g>
     </g>
     <g id="text_1">
      <!-- 524 -->
      <g transform="translate(48.418401 322.470438) scale(0.1 -0.1)">
       <defs>
        <path id="DejaVuSans-35" d="M 691 4666 
L 3169 4666 
L 3169 4134 
L 1269 4134 
L 1269 2991 
Q 1406 3038 1543 3061 
Q 1681 3084 1819 3084 
Q 2600 3084 3056 2656 
Q 3513 2228 3513 1497 
Q 3513 744 3044 326 
Q 2575 -91 1722 -91 
Q 1428 -91 1123 -41 
Q 819 9 494 109 
L 494 744 
Q 775 591 1075 516 
Q 1375 441 1709 441 
Q 2250 441 2565 725 
Q 2881 1009 2881 1497 
Q 2881 1984 2565 2268 
Q 2250 2553 1709 2553 
Q 1456 2553 1204 2497 
Q 953 2441 691 2322 
L 691 4666 
z
" transform="scale(0.015625)"/>
        <path id="DejaVuSans-32" d="M 1228 531 
L 3431 531 
L 3431 0 
L 469 0 
L 469 531 
Q 828 903 1448 1529 
Q 2069 2156 2228 2338 
Q 2531 2678 2651 2914 
Q 2772 3150 2772 3378 
Q 2772 3750 2511 3984 
Q 2250 4219 1831 4219 
Q 1534 4219 1204 4116 
Q 875 4013 500 3803 
L 500 4441 
Q 881 4594 1212 4672 
Q 1544 4750 1819 4750 
Q 2544 4750 2975 4387 
Q 3406 4025 3406 3419 
Q 3406 3131 3298 2873 
Q 3191 2616 2906 2266 
Q 2828 2175 2409 1742 
Q 1991 1309 1228 531 
z
" transform="scale(0.015625)"/>
        <path id="DejaVuSans-34" d="M 2419 4116 
L 825 1625 
L 2419 1625 
L 2419 4116 
z
M 2253 4666 
L 3047 4666 
L 3047 1625 
L 3713 1625 
L 3713 1100 
L 3047 1100 
L 3047 0 
L 2419 0 
L 2419 1100 
L 313 1100 
L 313 1709 
L 2253 4666 
z
" transform="scale(0.015625)"/>
       </defs>
       <use xlink:href="#DejaVuSans-35"/>
       <use xlink:href="#DejaVuSans-32" x="63.623047"/>
       <use xlink:href="#DejaVuSans-34" x="127.246094"/>
      </g>
     </g>
    </g>
    <g id="xtick_2">
     <g id="line2d_2">
      <g>
       <use xlink:href="#mcc213672d2" x="112.071242" y="307.872" style="stroke: #000000; stroke-width: 0.8"/>
      </g>
     </g>
     <g id="text_2">
      <!-- 525 -->
      <g transform="translate(102.527492 322.470438) scale(0.1 -0.1)">
       <use xlink:href="#DejaVuSans-35"/>
       <use xlink:href="#DejaVuSans-32" x="63.623047"/>
       <use xlink:href="#DejaVuSans-35" x="127.246094"/>
      </g>
     </g>
    </g>
    <g id="xtick_3">
     <g id="line2d_3">
      <g>
       <use xlink:href="#mcc213672d2" x="166.180333" y="307.872" style="stroke: #000000; stroke-width: 0.8"/>
      </g>
     </g>
     <g id="text_3">
      <!-- 526 -->
      <g transform="translate(156.636583 322.470438) scale(0.1 -0.1)">
       <defs>
        <path id="DejaVuSans-36" d="M 2113 2584 
Q 1688 2584 1439 2293 
Q 1191 2003 1191 1497 
Q 1191 994 1439 701 
Q 1688 409 2113 409 
Q 2538 409 2786 701 
Q 3034 994 3034 1497 
Q 3034 2003 2786 2293 
Q 2538 2584 2113 2584 
z
M 3366 4563 
L 3366 3988 
Q 3128 4100 2886 4159 
Q 2644 4219 2406 4219 
Q 1781 4219 1451 3797 
Q 1122 3375 1075 2522 
Q 1259 2794 1537 2939 
Q 1816 3084 2150 3084 
Q 2853 3084 3261 2657 
Q 3669 2231 3669 1497 
Q 3669 778 3244 343 
Q 2819 -91 2113 -91 
Q 1303 -91 875 529 
Q 447 1150 447 2328 
Q 447 3434 972 4092 
Q 1497 4750 2381 4750 
Q 2619 4750 2861 4703 
Q 3103 4656 3366 4563 
z
" transform="scale(0.015625)"/>
       </defs>
       <use xlink:href="#DejaVuSans-35"/>
       <use xlink:href="#DejaVuSans-32" x="63.623047"/>
       <use xlink:href="#DejaVuSans-36" x="127.246094"/>
      </g>
     </g>
    </g>
    <g id="xtick_4">
     <g id="line2d_4">
      <g>
       <use xlink:href="#mcc213672d2" x="220.289424" y="307.872" style="stroke: #000000; stroke-width: 0.8"/>
      </g>
     </g>
     <g id="text_4">
      <!-- 527 -->
      <g transform="translate(210.745674 322.470438) scale(0.1 -0.1)">
       <defs>
        <path id="DejaVuSans-37" d="M 525 4666 
L 3525 4666 
L 3525 4397 
L 1831 0 
L 1172 0 
L 2766 4134 
L 525 4134 
L 525 4666 
z
" transform="scale(0.015625)"/>
       </defs>
       <use xlink:href="#DejaVuSans-35"/>
       <use xlink:href="#DejaVuSans-32" x="63.623047"/>
       <use xlink:href="#DejaVuSans-37" x="127.246094"/>
      </g>
     </g>
    </g>
    <g id="xtick_5">
     <g id="line2d_5">
      <g>
       <use xlink:href="#mcc213672d2" x="274.398515" y="307.872" style="stroke: #000000; stroke-width: 0.8"/>
      </g>
     </g>
     <g id="text_5">
      <!-- 528 -->
      <g transform="translate(264.854765 322.470438) scale(0.1 -0.1)">
       <defs>
        <path id="DejaVuSans-38" d="M 2034 2216 
Q 1584 2216 1326 1975 
Q 1069 1734 1069 1313 
Q 1069 891 1326 650 
Q 1584 409 2034 409 
Q 2484 409 2743 651 
Q 3003 894 3003 1313 
Q 3003 1734 2745 1975 
Q 2488 2216 2034 2216 
z
M 1403 2484 
Q 997 2584 770 2862 
Q 544 3141 544 3541 
Q 544 4100 942 4425 
Q 1341 4750 2034 4750 
Q 2731 4750 3128 4425 
Q 3525 4100 3525 3541 
Q 3525 3141 3298 2862 
Q 3072 2584 2669 2484 
Q 3125 2378 3379 2068 
Q 3634 1759 3634 1313 
Q 3634 634 3220 271 
Q 2806 -91 2034 -91 
Q 1263 -91 848 271 
Q 434 634 434 1313 
Q 434 1759 690 2068 
Q 947 2378 1403 2484 
z
M 1172 3481 
Q 1172 3119 1398 2916 
Q 1625 2713 2034 2713 
Q 2441 2713 2670 2916 
Q 2900 3119 2900 3481 
Q 2900 3844 2670 4047 
Q 2441 4250 2034 4250 
Q 1625 4250 1398 4047 
Q 1172 3844 1172 3481 
z
" transform="scale(0.015625)"/>
       </defs>
       <use xlink:href="#DejaVuSans-35"/>
       <use xlink:href="#DejaVuSans-32" x="63.623047"/>
       <use xlink:href="#DejaVuSans-38" x="127.246094"/>
      </g>
     </g>
    </g>
    <g id="xtick_6">
     <g id="line2d_6">
      <g>
       <use xlink:href="#mcc213672d2" x="328.507606" y="307.872" style="stroke: #000000; stroke-width: 0.8"/>
      </g>
     </g>
     <g id="text_6">
      <!-- 529 -->
      <g transform="translate(318.963856 322.470438) scale(0.1 -0.1)">
       <defs>
        <path id="DejaVuSans-39" d="M 703 97 
L 703 672 
Q 941 559 1184 500 
Q 1428 441 1663 441 
Q 2288 441 2617 861 
Q 2947 1281 2994 2138 
Q 2813 1869 2534 1725 
Q 2256 1581 1919 1581 
Q 1219 1581 811 2004 
Q 403 2428 403 3163 
Q 403 3881 828 4315 
Q 1253 4750 1959 4750 
Q 2769 4750 3195 4129 
Q 3622 3509 3622 2328 
Q 3622 1225 3098 567 
Q 2575 -91 1691 -91 
Q 1453 -91 1209 -44 
Q 966 3 703 97 
z
M 1959 2075 
Q 2384 2075 2632 2365 
Q 2881 2656 2881 3163 
Q 2881 3666 2632 3958 
Q 2384 4250 1959 4250 
Q 1534 4250 1286 3958 
Q 1038 3666 1038 3163 
Q 1038 2656 1286 2365 
Q 1534 2075 1959 2075 
z
" transform="scale(0.015625)"/>
       </defs>
       <use xlink:href="#DejaVuSans-35"/>
       <use xlink:href="#DejaVuSans-32" x="63.623047"/>
       <use xlink:href="#DejaVuSans-39" x="127.246094"/>
      </g>
     </g>
    </g>
    <g id="xtick_7">
     <g id="line2d_7">
      <g>
       <use xlink:href="#mcc213672d2" x="382.616697" y="307.872" style="stroke: #000000; stroke-width: 0.8"/>
      </g>
     </g>
     <g id="text_7">
      <!-- 530 -->
      <g transform="translate(373.072947 322.470438) scale(0.1 -0.1)">
       <defs>
        <path id="DejaVuSans-33" d="M 2597 2516 
Q 3050 2419 3304 2112 
Q 3559 1806 3559 1356 
Q 3559 666 3084 287 
Q 2609 -91 1734 -91 
Q 1441 -91 1130 -33 
Q 819 25 488 141 
L 488 750 
Q 750 597 1062 519 
Q 1375 441 1716 441 
Q 2309 441 2620 675 
Q 2931 909 2931 1356 
Q 2931 1769 2642 2001 
Q 2353 2234 1838 2234 
L 1294 2234 
L 1294 2753 
L 1863 2753 
Q 2328 2753 2575 2939 
Q 2822 3125 2822 3475 
Q 2822 3834 2567 4026 
Q 2313 4219 1838 4219 
Q 1578 4219 1281 4162 
Q 984 4106 628 3988 
L 628 4550 
Q 988 4650 1302 4700 
Q 1616 4750 1894 4750 
Q 2613 4750 3031 4423 
Q 3450 4097 3450 3541 
Q 3450 3153 3228 2886 
Q 3006 2619 2597 2516 
z
" transform="scale(0.015625)"/>
        <path id="DejaVuSans-30" d="M 2034 4250 
Q 1547 4250 1301 3770 
Q 1056 3291 1056 2328 
Q 1056 1369 1301 889 
Q 1547 409 2034 409 
Q 2525 409 2770 889 
Q 3016 1369 3016 2328 
Q 3016 3291 2770 3770 
Q 2525 4250 2034 4250 
z
M 2034 4750 
Q 2819 4750 3233 4129 
Q 3647 3509 3647 2328 
Q 3647 1150 3233 529 
Q 2819 -91 2034 -91 
Q 1250 -91 836 529 
Q 422 1150 422 2328 
Q 422 3509 836 4129 
Q 1250 4750 2034 4750 
z
" transform="scale(0.015625)"/>
       </defs>
       <use xlink:href="#DejaVuSans-35"/>
       <use xlink:href="#DejaVuSans-33" x="63.623047"/>
       <use xlink:href="#DejaVuSans-30" x="127.246094"/>
      </g>
     </g>
    </g>
    <g id="text_8">
     <!-- Frequency [MHz] -->
     <g transform="translate(187.114688 336.148562) scale(0.1 -0.1)">
      <defs>
       <path id="DejaVuSans-46" d="M 628 4666 
L 3309 4666 
L 3309 4134 
L 1259 4134 
L 1259 2759 
L 3109 2759 
L 3109 2228 
L 1259 2228 
L 1259 0 
L 628 0 
L 628 4666 
z
" transform="scale(0.015625)"/>
       <path id="DejaVuSans-72" d="M 2631 2963 
Q 2534 3019 2420 3045 
Q 2306 3072 2169 3072 
Q 1681 3072 1420 2755 
Q 1159 2438 1159 1844 
L 1159 0 
L 581 0 
L 581 3500 
L 1159 3500 
L 1159 2956 
Q 1341 3275 1631 3429 
Q 1922 3584 2338 3584 
Q 2397 3584 2469 3576 
Q 2541 3569 2628 3553 
L 2631 2963 
z
" transform="scale(0.015625)"/>
       <path id="DejaVuSans-65" d="M 3597 1894 
L 3597 1613 
L 953 1613 
Q 991 1019 1311 708 
Q 1631 397 2203 397 
Q 2534 397 2845 478 
Q 3156 559 3463 722 
L 3463 178 
Q 3153 47 2828 -22 
Q 2503 -91 2169 -91 
Q 1331 -91 842 396 
Q 353 884 353 1716 
Q 353 2575 817 3079 
Q 1281 3584 2069 3584 
Q 2775 3584 3186 3129 
Q 3597 2675 3597 1894 
z
M 3022 2063 
Q 3016 2534 2758 2815 
Q 2500 3097 2075 3097 
Q 1594 3097 1305 2825 
Q 1016 2553 972 2059 
L 3022 2063 
z
" transform="scale(0.015625)"/>
       <path id="DejaVuSans-71" d="M 947 1747 
Q 947 1113 1208 752 
Q 1469 391 1925 391 
Q 2381 391 2643 752 
Q 2906 1113 2906 1747 
Q 2906 2381 2643 2742 
Q 2381 3103 1925 3103 
Q 1469 3103 1208 2742 
Q 947 2381 947 1747 
z
M 2906 525 
Q 2725 213 2448 61 
Q 2172 -91 1784 -91 
Q 1150 -91 751 415 
Q 353 922 353 1747 
Q 353 2572 751 3078 
Q 1150 3584 1784 3584 
Q 2172 3584 2448 3432 
Q 2725 3281 2906 2969 
L 2906 3500 
L 3481 3500 
L 3481 -1331 
L 2906 -1331 
L 2906 525 
z
" transform="scale(0.015625)"/>
       <path id="DejaVuSans-75" d="M 544 1381 
L 544 3500 
L 1119 3500 
L 1119 1403 
Q 1119 906 1312 657 
Q 1506 409 1894 409 
Q 2359 409 2629 706 
Q 2900 1003 2900 1516 
L 2900 3500 
L 3475 3500 
L 3475 0 
L 2900 0 
L 2900 538 
Q 2691 219 2414 64 
Q 2138 -91 1772 -91 
Q 1169 -91 856 284 
Q 544 659 544 1381 
z
M 1991 3584 
L 1991 3584 
z
" transform="scale(0.015625)"/>
       <path id="DejaVuSans-6e" d="M 3513 2113 
L 3513 0 
L 2938 0 
L 2938 2094 
Q 2938 2591 2744 2837 
Q 2550 3084 2163 3084 
Q 1697 3084 1428 2787 
Q 1159 2491 1159 1978 
L 1159 0 
L 581 0 
L 581 3500 
L 1159 3500 
L 1159 2956 
Q 1366 3272 1645 3428 
Q 1925 3584 2291 3584 
Q 2894 3584 3203 3211 
Q 3513 2838 3513 2113 
z
" transform="scale(0.015625)"/>
       <path id="DejaVuSans-63" d="M 3122 3366 
L 3122 2828 
Q 2878 2963 2633 3030 
Q 2388 3097 2138 3097 
Q 1578 3097 1268 2742 
Q 959 2388 959 1747 
Q 959 1106 1268 751 
Q 1578 397 2138 397 
Q 2388 397 2633 464 
Q 2878 531 3122 666 
L 3122 134 
Q 2881 22 2623 -34 
Q 2366 -91 2075 -91 
Q 1284 -91 818 406 
Q 353 903 353 1747 
Q 353 2603 823 3093 
Q 1294 3584 2113 3584 
Q 2378 3584 2631 3529 
Q 2884 3475 3122 3366 
z
" transform="scale(0.015625)"/>
       <path id="DejaVuSans-79" d="M 2059 -325 
Q 1816 -950 1584 -1140 
Q 1353 -1331 966 -1331 
L 506 -1331 
L 506 -850 
L 844 -850 
Q 1081 -850 1212 -737 
Q 1344 -625 1503 -206 
L 1606 56 
L 191 3500 
L 800 3500 
L 1894 763 
L 2988 3500 
L 3597 3500 
L 2059 -325 
z
" transform="scale(0.015625)"/>
       <path id="DejaVuSans-20" transform="scale(0.015625)"/>
       <path id="DejaVuSans-5b" d="M 550 4863 
L 1875 4863 
L 1875 4416 
L 1125 4416 
L 1125 -397 
L 1875 -397 
L 1875 -844 
L 550 -844 
L 550 4863 
z
" transform="scale(0.015625)"/>
       <path id="DejaVuSans-4d" d="M 628 4666 
L 1569 4666 
L 2759 1491 
L 3956 4666 
L 4897 4666 
L 4897 0 
L 4281 0 
L 4281 4097 
L 3078 897 
L 2444 897 
L 1241 4097 
L 1241 0 
L 628 0 
L 628 4666 
z
" transform="scale(0.015625)"/>
       <path id="DejaVuSans-48" d="M 628 4666 
L 1259 4666 
L 1259 2753 
L 3553 2753 
L 3553 4666 
L 4184 4666 
L 4184 0 
L 3553 0 
L 3553 2222 
L 1259 2222 
L 1259 0 
L 628 0 
L 628 4666 
z
" transform="scale(0.015625)"/>
       <path id="DejaVuSans-7a" d="M 353 3500 
L 3084 3500 
L 3084 2975 
L 922 459 
L 3084 459 
L 3084 0 
L 275 0 
L 275 525 
L 2438 3041 
L 353 3041 
L 353 3500 
z
" transform="scale(0.015625)"/>
       <path id="DejaVuSans-5d" d="M 1947 4863 
L 1947 -844 
L 622 -844 
L 622 -397 
L 1369 -397 
L 1369 4416 
L 622 4416 
L 622 4863 
L 1947 4863 
z
" transform="scale(0.015625)"/>
      </defs>
      <use xlink:href="#DejaVuSans-46"/>
      <use xlink:href="#DejaVuSans-72" x="50.269531"/>
      <use xlink:href="#DejaVuSans-65" x="89.132812"/>
      <use xlink:href="#DejaVuSans-71" x="150.65625"/>
      <use xlink:href="#DejaVuSans-75" x="214.132812"/>
      <use xlink:href="#DejaVuSans-65" x="277.511719"/>
      <use xlink:href="#DejaVuSans-6e" x="339.035156"/>
      <use xlink:href="#DejaVuSans-63" x="402.414062"/>
      <use xlink:href="#DejaVuSans-79" x="457.394531"/>
      <use xlink:href="#DejaVuSans-20" x="516.574219"/>
      <use xlink:href="#DejaVuSans-5b" x="548.361328"/>
      <use xlink:href="#DejaVuSans-4d" x="587.375"/>
      <use xlink:href="#DejaVuSans-48" x="673.654297"/>
      <use xlink:href="#DejaVuSans-7a" x="748.849609"/>
      <use xlink:href="#DejaVuSans-5d" x="801.339844"/>
     </g>
    </g>
    <g id="text_9">
     <!-- +5 GHz -->
     <g transform="translate(369.255938 335.148562) scale(0.1 -0.1)">
      <defs>
       <path id="DejaVuSans-2b" d="M 2944 4013 
L 2944 2272 
L 4684 2272 
L 4684 1741 
L 2944 1741 
L 2944 0 
L 2419 0 
L 2419 1741 
L 678 1741 
L 678 2272 
L 2419 2272 
L 2419 4013 
L 2944 4013 
z
" transform="scale(0.015625)"/>
       <path id="DejaVuSans-47" d="M 3809 666 
L 3809 1919 
L 2778 1919 
L 2778 2438 
L 4434 2438 
L 4434 434 
Q 4069 175 3628 42 
Q 3188 -91 2688 -91 
Q 1594 -91 976 548 
Q 359 1188 359 2328 
Q 359 3472 976 4111 
Q 1594 4750 2688 4750 
Q 3144 4750 3555 4637 
Q 3966 4525 4313 4306 
L 4313 3634 
Q 3963 3931 3569 4081 
Q 3175 4231 2741 4231 
Q 1884 4231 1454 3753 
Q 1025 3275 1025 2328 
Q 1025 1384 1454 906 
Q 1884 428 2741 428 
Q 3075 428 3337 486 
Q 3600 544 3809 666 
z
" transform="scale(0.015625)"/>
      </defs>
      <use xlink:href="#DejaVuSans-2b"/>
      <use xlink:href="#DejaVuSans-35" x="83.789062"/>
      <use xlink:href="#DejaVuSans-20" x="147.412109"/>
      <use xlink:href="#DejaVuSans-47" x="179.199219"/>
      <use xlink:href="#DejaVuSans-48" x="256.689453"/>
      <use xlink:href="#DejaVuSans-7a" x="331.884766"/>
     </g>
    </g>
   </g>
   <g id="matplotlib.axis_2">
    <g id="ytick_1">
     <g id="line2d_8">
      <defs>
       <path id="ma143be1899" d="M 0 0 
L -3.5 0 
" style="stroke: #000000; stroke-width: 0.8"/>
      </defs>
      <g>
       <use xlink:href="#ma143be1899" x="50.573438" y="275.628738" style="stroke: #000000; stroke-width: 0.8"/>
      </g>
     </g>
     <g id="text_10">
      <!-- -150 -->
      <g transform="translate(20.878125 279.427956) scale(0.1 -0.1)">
       <defs>
        <path id="DejaVuSans-2d" d="M 313 2009 
L 1997 2009 
L 1997 1497 
L 313 1497 
L 313 2009 
z
" transform="scale(0.015625)"/>
        <path id="DejaVuSans-31" d="M 794 531 
L 1825 531 
L 1825 4091 
L 703 3866 
L 703 4441 
L 1819 4666 
L 2450 4666 
L 2450 531 
L 3481 531 
L 3481 0 
L 794 0 
L 794 531 
z
" transform="scale(0.015625)"/>
       </defs>
       <use xlink:href="#DejaVuSans-2d"/>
       <use xlink:href="#DejaVuSans-31" x="36.083984"/>
       <use xlink:href="#DejaVuSans-35" x="99.707031"/>
       <use xlink:href="#DejaVuSans-30" x="163.330078"/>
      </g>
     </g>
    </g>
    <g id="ytick_2">
     <g id="line2d_9">
      <g>
       <use xlink:href="#ma143be1899" x="50.573438" y="242.025125" style="stroke: #000000; stroke-width: 0.8"/>
      </g>
     </g>
     <g id="text_11">
      <!-- -100 -->
      <g transform="translate(20.878125 245.824343) scale(0.1 -0.1)">
       <use xlink:href="#DejaVuSans-2d"/>
       <use xlink:href="#DejaVuSans-31" x="36.083984"/>
       <use xlink:href="#DejaVuSans-30" x="99.707031"/>
       <use xlink:href="#DejaVuSans-30" x="163.330078"/>
      </g>
     </g>
    </g>
    <g id="ytick_3">
     <g id="line2d_10">
      <g>
       <use xlink:href="#ma143be1899" x="50.573438" y="208.421512" style="stroke: #000000; stroke-width: 0.8"/>
      </g>
     </g>
     <g id="text_12">
      <!-- -50 -->
      <g transform="translate(27.240625 212.22073) scale(0.1 -0.1)">
       <use xlink:href="#DejaVuSans-2d"/>
       <use xlink:href="#DejaVuSans-35" x="36.083984"/>
       <use xlink:href="#DejaVuSans-30" x="99.707031"/>
      </g>
     </g>
    </g>
    <g id="ytick_4">
     <g id="line2d_11">
      <g>
       <use xlink:href="#ma143be1899" x="50.573438" y="174.817899" style="stroke: #000000; stroke-width: 0.8"/>
      </g>
     </g>
     <g id="text_13">
      <!-- 0 -->
      <g transform="translate(37.210938 178.617117) scale(0.1 -0.1)">
       <use xlink:href="#DejaVuSans-30"/>
      </g>
     </g>
    </g>
    <g id="ytick_5">
     <g id="line2d_12">
      <g>
       <use xlink:href="#ma143be1899" x="50.573438" y="141.214285" style="stroke: #000000; stroke-width: 0.8"/>
      </g>
     </g>
     <g id="text_14">
      <!-- 50 -->
      <g transform="translate(30.848438 145.013504) scale(0.1 -0.1)">
       <use xlink:href="#DejaVuSans-35"/>
       <use xlink:href="#DejaVuSans-30" x="63.623047"/>
      </g>
     </g>
    </g>
    <g id="ytick_6">
     <g id="line2d_13">
      <g>
       <use xlink:href="#ma143be1899" x="50.573438" y="107.610672" style="stroke: #000000; stroke-width: 0.8"/>
      </g>
     </g>
     <g id="text_15">
      <!-- 100 -->
      <g transform="translate(24.485938 111.409891) scale(0.1 -0.1)">
       <use xlink:href="#DejaVuSans-31"/>
       <use xlink:href="#DejaVuSans-30" x="63.623047"/>
       <use xlink:href="#DejaVuSans-30" x="127.246094"/>
      </g>
     </g>
    </g>
    <g id="ytick_7">
     <g id="line2d_14">
      <g>
       <use xlink:href="#ma143be1899" x="50.573438" y="74.007059" style="stroke: #000000; stroke-width: 0.8"/>
      </g>
     </g>
     <g id="text_16">
      <!-- 150 -->
      <g transform="translate(24.485938 77.806278) scale(0.1 -0.1)">
       <use xlink:href="#DejaVuSans-31"/>
       <use xlink:href="#DejaVuSans-35" x="63.623047"/>
       <use xlink:href="#DejaVuSans-30" x="127.246094"/>
      </g>
     </g>
    </g>
    <g id="text_17">
     <!-- Phase0 [deg] -->
     <g transform="translate(14.798438 207.841781) rotate(-90) scale(0.1 -0.1)">
      <defs>
       <path id="DejaVuSans-50" d="M 1259 4147 
L 1259 2394 
L 2053 2394 
Q 2494 2394 2734 2622 
Q 2975 2850 2975 3272 
Q 2975 3691 2734 3919 
Q 2494 4147 2053 4147 
L 1259 4147 
z
M 628 4666 
L 2053 4666 
Q 2838 4666 3239 4311 
Q 3641 3956 3641 3272 
Q 3641 2581 3239 2228 
Q 2838 1875 2053 1875 
L 1259 1875 
L 1259 0 
L 628 0 
L 628 4666 
z
" transform="scale(0.015625)"/>
       <path id="DejaVuSans-68" d="M 3513 2113 
L 3513 0 
L 2938 0 
L 2938 2094 
Q 2938 2591 2744 2837 
Q 2550 3084 2163 3084 
Q 1697 3084 1428 2787 
Q 1159 2491 1159 1978 
L 1159 0 
L 581 0 
L 581 4863 
L 1159 4863 
L 1159 2956 
Q 1366 3272 1645 3428 
Q 1925 3584 2291 3584 
Q 2894 3584 3203 3211 
Q 3513 2838 3513 2113 
z
" transform="scale(0.015625)"/>
       <path id="DejaVuSans-61" d="M 2194 1759 
Q 1497 1759 1228 1600 
Q 959 1441 959 1056 
Q 959 750 1161 570 
Q 1363 391 1709 391 
Q 2188 391 2477 730 
Q 2766 1069 2766 1631 
L 2766 1759 
L 2194 1759 
z
M 3341 1997 
L 3341 0 
L 2766 0 
L 2766 531 
Q 2569 213 2275 61 
Q 1981 -91 1556 -91 
Q 1019 -91 701 211 
Q 384 513 384 1019 
Q 384 1609 779 1909 
Q 1175 2209 1959 2209 
L 2766 2209 
L 2766 2266 
Q 2766 2663 2505 2880 
Q 2244 3097 1772 3097 
Q 1472 3097 1187 3025 
Q 903 2953 641 2809 
L 641 3341 
Q 956 3463 1253 3523 
Q 1550 3584 1831 3584 
Q 2591 3584 2966 3190 
Q 3341 2797 3341 1997 
z
" transform="scale(0.015625)"/>
       <path id="DejaVuSans-73" d="M 2834 3397 
L 2834 2853 
Q 2591 2978 2328 3040 
Q 2066 3103 1784 3103 
Q 1356 3103 1142 2972 
Q 928 2841 928 2578 
Q 928 2378 1081 2264 
Q 1234 2150 1697 2047 
L 1894 2003 
Q 2506 1872 2764 1633 
Q 3022 1394 3022 966 
Q 3022 478 2636 193 
Q 2250 -91 1575 -91 
Q 1294 -91 989 -36 
Q 684 19 347 128 
L 347 722 
Q 666 556 975 473 
Q 1284 391 1588 391 
Q 1994 391 2212 530 
Q 2431 669 2431 922 
Q 2431 1156 2273 1281 
Q 2116 1406 1581 1522 
L 1381 1569 
Q 847 1681 609 1914 
Q 372 2147 372 2553 
Q 372 3047 722 3315 
Q 1072 3584 1716 3584 
Q 2034 3584 2315 3537 
Q 2597 3491 2834 3397 
z
" transform="scale(0.015625)"/>
       <path id="DejaVuSans-64" d="M 2906 2969 
L 2906 4863 
L 3481 4863 
L 3481 0 
L 2906 0 
L 2906 525 
Q 2725 213 2448 61 
Q 2172 -91 1784 -91 
Q 1150 -91 751 415 
Q 353 922 353 1747 
Q 353 2572 751 3078 
Q 1150 3584 1784 3584 
Q 2172 3584 2448 3432 
Q 2725 3281 2906 2969 
z
M 947 1747 
Q 947 1113 1208 752 
Q 1469 391 1925 391 
Q 2381 391 2643 752 
Q 2906 1113 2906 1747 
Q 2906 2381 2643 2742 
Q 2381 3103 1925 3103 
Q 1469 3103 1208 2742 
Q 947 2381 947 1747 
z
" transform="scale(0.015625)"/>
       <path id="DejaVuSans-67" d="M 2906 1791 
Q 2906 2416 2648 2759 
Q 2391 3103 1925 3103 
Q 1463 3103 1205 2759 
Q 947 2416 947 1791 
Q 947 1169 1205 825 
Q 1463 481 1925 481 
Q 2391 481 2648 825 
Q 2906 1169 2906 1791 
z
M 3481 434 
Q 3481 -459 3084 -895 
Q 2688 -1331 1869 -1331 
Q 1566 -1331 1297 -1286 
Q 1028 -1241 775 -1147 
L 775 -588 
Q 1028 -725 1275 -790 
Q 1522 -856 1778 -856 
Q 2344 -856 2625 -561 
Q 2906 -266 2906 331 
L 2906 616 
Q 2728 306 2450 153 
Q 2172 0 1784 0 
Q 1141 0 747 490 
Q 353 981 353 1791 
Q 353 2603 747 3093 
Q 1141 3584 1784 3584 
Q 2172 3584 2450 3431 
Q 2728 3278 2906 2969 
L 2906 3500 
L 3481 3500 
L 3481 434 
z
" transform="scale(0.015625)"/>
      </defs>
      <use xlink:href="#DejaVuSans-50"/>
      <use xlink:href="#DejaVuSans-68" x="60.302734"/>
      <use xlink:href="#DejaVuSans-61" x="123.681641"/>
      <use xlink:href="#DejaVuSans-73" x="184.960938"/>
      <use xlink:href="#DejaVuSans-65" x="237.060547"/>
      <use xlink:href="#DejaVuSans-30" x="298.583984"/>
      <use xlink:href="#DejaVuSans-20" x="362.207031"/>
      <use xlink:href="#DejaVuSans-5b" x="393.994141"/>
      <use xlink:href="#DejaVuSans-64" x="433.007812"/>
      <use xlink:href="#DejaVuSans-65" x="496.484375"/>
      <use xlink:href="#DejaVuSans-67" x="558.007812"/>
      <use xlink:href="#DejaVuSans-5d" x="621.484375"/>
     </g>
    </g>
   </g>
   <g id="line2d_15">
    <path d="M 66.806165 108.798713 
L 78.001149 109.330382 
L 89.196133 100.648146 
L 100.391118 95.715913 
L 111.586102 85.840478 
L 122.781086 89.113328 
L 133.976071 91.377141 
L 145.171055 70.730003 
L 156.366039 76.567518 
L 167.561024 72.383986 
L 178.756008 62.818193 
L 189.950992 66.758017 
L 201.145977 61.857434 
L 212.340961 58.269191 
L 223.535945 63.558544 
L 234.73093 66.55099 
L 245.925914 67.12926 
L 257.120898 64.411111 
L 268.315883 62.79203 
L 279.510867 58.363628 
L 290.705851 54.061445 
L 301.900836 292.543143 
L 313.09582 289.295576 
L 324.290804 289.845252 
L 335.485789 285.620048 
L 346.680773 279.051679 
L 357.875757 280.497387 
L 369.070742 277.553912 
L 380.265726 270.401863 
L 391.46071 274.553449 
" clip-path="url(#pfa69d87108)" style="fill: none; stroke: #440154; stroke-width: 1.5; stroke-linecap: square"/>
   </g>
   <g id="line2d_16">
    <path d="M 66.806165 114.10342 
L 78.001149 104.357012 
L 89.196133 106.01157 
L 100.391118 102.265946 
L 111.586102 96.29082 
L 122.781086 87.479796 
L 133.976071 82.545239 
L 145.171055 81.778117 
L 156.366039 76.476401 
L 167.561024 73.268232 
L 178.756008 66.833107 
L 189.950992 60.536668 
L 201.145977 61.463806 
L 212.340961 61.290017 
L 223.535945 63.126218 
L 234.73093 64.558239 
L 245.925914 68.205806 
L 257.120898 66.483109 
L 268.315883 58.70678 
L 279.510867 60.280432 
L 290.705851 293.653496 
L 301.900836 290.518468 
L 313.09582 289.757107 
L 324.290804 288.653568 
L 335.485789 281.548641 
L 346.680773 276.422304 
L 357.875757 279.719554 
L 369.070742 275.329637 
L 380.265726 274.85619 
L 391.46071 271.553754 
" clip-path="url(#pfa69d87108)" style="fill: none; stroke: #470d60; stroke-width: 1.5; stroke-linecap: square"/>
   </g>
   <g id="line2d_17">
    <path d="M 66.806165 110.686517 
L 78.001149 110.34826 
L 89.196133 104.30079 
L 100.391118 101.114959 
L 111.586102 86.969812 
L 122.781086 85.326055 
L 133.976071 85.63965 
L 145.171055 78.505116 
L 156.366039 72.750255 
L 167.561024 69.050367 
L 178.756008 64.526186 
L 189.950992 61.960416 
L 201.145977 64.089429 
L 212.340961 59.167782 
L 223.535945 63.387413 
L 234.73093 65.014809 
L 245.925914 67.137508 
L 257.120898 66.452265 
L 268.315883 60.168606 
L 279.510867 57.824309 
L 290.705851 56.967381 
L 301.900836 291.823605 
L 313.09582 285.923449 
L 324.290804 287.729928 
L 335.485789 285.139823 
L 346.680773 279.978405 
L 357.875757 278.240147 
L 369.070742 278.455463 
L 380.265726 278.135476 
L 391.46071 270.80168 
" clip-path="url(#pfa69d87108)" style="fill: none; stroke: #481a6c; stroke-width: 1.5; stroke-linecap: square"/>
   </g>
   <g id="line2d_18">
    <path d="M 66.806165 112.205404 
L 78.001149 108.639109 
L 89.196133 101.474284 
L 100.391118 97.305835 
L 111.586102 95.587515 
L 122.781086 91.903908 
L 133.976071 88.719253 
L 145.171055 77.723264 
L 156.366039 72.872033 
L 167.561024 65.63489 
L 178.756008 67.279546 
L 189.950992 62.939854 
L 201.145977 59.13982 
L 212.340961 60.089292 
L 223.535945 64.390393 
L 234.73093 66.582241 
L 245.925914 68.993033 
L 257.120898 66.304252 
L 268.315883 61.519408 
L 279.510867 59.413483 
L 290.705851 59.092341 
L 301.900836 294.002318 
L 313.09582 290.372904 
L 324.290804 285.58396 
L 335.485789 284.526728 
L 346.680773 281.984391 
L 357.875757 278.699045 
L 369.070742 277.426741 
L 380.265726 273.522343 
L 391.46071 272.379235 
" clip-path="url(#pfa69d87108)" style="fill: none; stroke: #482576; stroke-width: 1.5; stroke-linecap: square"/>
   </g>
   <g id="line2d_19">
    <path d="M 66.806165 113.095925 
L 78.001149 108.038178 
L 89.196133 102.412268 
L 100.391118 97.918358 
L 111.586102 95.93173 
L 122.781086 92.426461 
L 133.976071 85.932511 
L 145.171055 75.93882 
L 156.366039 74.347579 
L 167.561024 72.638196 
L 178.756008 66.437928 
L 189.950992 63.830483 
L 201.145977 62.509045 
L 212.340961 60.90781 
L 223.535945 63.597706 
L 234.73093 66.438075 
L 245.925914 67.288391 
L 257.120898 66.370204 
L 268.315883 62.415114 
L 279.510867 57.551411 
L 290.705851 57.191599 
L 301.900836 294.061623 
L 313.09582 289.319091 
L 324.290804 289.380581 
L 335.485789 283.522817 
L 346.680773 281.339259 
L 357.875757 279.2015 
L 369.070742 276.708605 
L 380.265726 275.581958 
L 391.46071 271.967558 
" clip-path="url(#pfa69d87108)" style="fill: none; stroke: #46307e; stroke-width: 1.5; stroke-linecap: square"/>
   </g>
   <g id="line2d_20">
    <path d="M 66.806165 114.645114 
L 78.001149 112.70419 
L 89.196133 104.203024 
L 100.391118 95.485725 
L 111.586102 95.939718 
L 122.781086 92.188157 
L 133.976071 89.13569 
L 145.171055 79.57358 
L 156.366039 75.018579 
L 167.561024 71.376171 
L 178.756008 66.812498 
L 189.950992 62.122786 
L 201.145977 59.735723 
L 212.340961 61.869872 
L 223.535945 65.470228 
L 234.73093 66.515774 
L 245.925914 68.445753 
L 257.120898 67.072933 
L 268.315883 62.345523 
L 279.510867 59.055827 
L 290.705851 294.186585 
L 301.900836 291.946033 
L 313.09582 287.597126 
L 324.290804 286.734767 
L 335.485789 283.152818 
L 346.680773 281.811419 
L 357.875757 279.464875 
L 369.070742 276.960321 
L 380.265726 273.696797 
L 391.46071 272.195236 
" clip-path="url(#pfa69d87108)" style="fill: none; stroke: #443b84; stroke-width: 1.5; stroke-linecap: square"/>
   </g>
   <g id="line2d_21">
    <path d="M 66.806165 115.14734 
L 78.001149 111.457289 
L 89.196133 106.269786 
L 100.391118 99.453655 
L 111.586102 96.85567 
L 122.781086 91.161573 
L 133.976071 85.059584 
L 145.171055 85.063779 
L 156.366039 72.787565 
L 167.561024 68.583248 
L 178.756008 65.504648 
L 189.950992 63.851936 
L 201.145977 61.569243 
L 212.340961 61.054968 
L 223.535945 62.752641 
L 234.73093 67.613933 
L 245.925914 68.152531 
L 257.120898 64.686385 
L 268.315883 61.516852 
L 279.510867 61.137891 
L 290.705851 55.15014 
L 301.900836 293.804171 
L 313.09582 289.071484 
L 324.290804 285.202773 
L 335.485789 284.366968 
L 346.680773 279.585474 
L 357.875757 279.461595 
L 369.070742 276.916851 
L 380.265726 274.630344 
L 391.46071 273.161213 
" clip-path="url(#pfa69d87108)" style="fill: none; stroke: #404588; stroke-width: 1.5; stroke-linecap: square"/>
   </g>
   <g id="line2d_22">
    <path d="M 66.806165 112.25477 
L 78.001149 111.095136 
L 89.196133 107.706561 
L 100.391118 100.269831 
L 111.586102 94.05562 
L 122.781086 88.784631 
L 133.976071 86.168284 
L 145.171055 82.706792 
L 156.366039 75.232531 
L 167.561024 69.473557 
L 178.756008 66.263779 
L 189.950992 63.443491 
L 201.145977 59.032404 
L 212.340961 62.015622 
L 223.535945 63.961671 
L 234.73093 65.560698 
L 245.925914 68.139576 
L 257.120898 65.049052 
L 268.315883 65.089011 
L 279.510867 60.165924 
L 290.705851 55.001093 
L 301.900836 294.084881 
L 313.09582 290.377829 
L 324.290804 287.142999 
L 335.485789 284.116492 
L 346.680773 280.774908 
L 357.875757 279.552688 
L 369.070742 277.330401 
L 380.265726 274.530118 
L 391.46071 271.955077 
" clip-path="url(#pfa69d87108)" style="fill: none; stroke: #3c4f8a; stroke-width: 1.5; stroke-linecap: square"/>
   </g>
   <g id="line2d_23">
    <path d="M 66.806165 116.495315 
L 78.001149 111.048434 
L 89.196133 105.849278 
L 100.391118 102.27066 
L 111.586102 96.205804 
L 122.781086 91.629317 
L 133.976071 84.320423 
L 145.171055 79.28975 
L 156.366039 76.059247 
L 167.561024 71.231267 
L 178.756008 65.602237 
L 189.950992 64.4877 
L 201.145977 60.362509 
L 212.340961 62.142958 
L 223.535945 64.248576 
L 234.73093 66.800912 
L 245.925914 68.628033 
L 257.120898 65.524358 
L 268.315883 62.772457 
L 279.510867 57.987792 
L 290.705851 54.808733 
L 301.900836 294.300691 
L 313.09582 289.514217 
L 324.290804 287.445701 
L 335.485789 284.84272 
L 346.680773 280.607924 
L 357.875757 278.938272 
L 369.070742 278.72093 
L 380.265726 274.063801 
L 391.46071 272.01266 
" clip-path="url(#pfa69d87108)" style="fill: none; stroke: #38598c; stroke-width: 1.5; stroke-linecap: square"/>
   </g>
   <g id="line2d_24">
    <path d="M 66.806165 114.510789 
L 78.001149 109.352248 
L 89.196133 106.84823 
L 100.391118 99.189821 
L 111.586102 96.540989 
L 122.781086 92.226882 
L 133.976071 85.840707 
L 145.171055 79.584617 
L 156.366039 73.601182 
L 167.561024 70.264628 
L 178.756008 66.494266 
L 189.950992 61.621371 
L 201.145977 60.923708 
L 212.340961 61.166689 
L 223.535945 63.825602 
L 234.73093 67.477415 
L 245.925914 67.294265 
L 257.120898 65.909214 
L 268.315883 62.648839 
L 279.510867 58.421286 
L 290.705851 56.043609 
L 301.900836 292.983001 
L 313.09582 289.587534 
L 324.290804 288.662533 
L 335.485789 283.652963 
L 346.680773 283.008188 
L 357.875757 279.756964 
L 369.070742 275.814331 
L 380.265726 275.003978 
L 391.46071 272.938358 
" clip-path="url(#pfa69d87108)" style="fill: none; stroke: #33628d; stroke-width: 1.5; stroke-linecap: square"/>
   </g>
   <g id="line2d_25">
    <path d="M 66.806165 112.356319 
L 78.001149 110.05627 
L 89.196133 104.963121 
L 100.391118 99.384544 
L 111.586102 92.881792 
L 122.781086 90.154745 
L 133.976071 85.364506 
L 145.171055 80.854116 
L 156.366039 74.320989 
L 167.561024 70.004963 
L 178.756008 67.415245 
L 189.950992 61.975579 
L 201.145977 59.754898 
L 212.340961 61.716315 
L 223.535945 63.730194 
L 234.73093 66.964463 
L 245.925914 67.703948 
L 257.120898 64.937562 
L 268.315883 63.770771 
L 279.510867 59.430818 
L 290.705851 54.799252 
L 301.900836 292.209886 
L 313.09582 289.456399 
L 324.290804 286.9572 
L 335.485789 283.943202 
L 346.680773 282.194432 
L 357.875757 278.488283 
L 369.070742 276.898399 
L 380.265726 273.928824 
L 391.46071 272.653266 
" clip-path="url(#pfa69d87108)" style="fill: none; stroke: #2f6b8e; stroke-width: 1.5; stroke-linecap: square"/>
   </g>
   <g id="line2d_26">
    <path d="M 66.806165 115.190365 
L 78.001149 109.759674 
L 89.196133 105.470458 
L 100.391118 103.655153 
L 111.586102 95.558785 
L 122.781086 87.246773 
L 133.976071 84.048127 
L 145.171055 80.397913 
L 156.366039 75.32325 
L 167.561024 70.336018 
L 178.756008 64.994725 
L 189.950992 61.088634 
L 201.145977 60.51818 
L 212.340961 60.529097 
L 223.535945 63.801888 
L 234.73093 66.533038 
L 245.925914 67.654268 
L 257.120898 66.112088 
L 268.315883 61.907039 
L 279.510867 59.506866 
L 290.705851 55.075586 
L 301.900836 292.483004 
L 313.09582 288.113032 
L 324.290804 285.741761 
L 335.485789 284.17987 
L 346.680773 281.302811 
L 357.875757 278.699474 
L 369.070742 276.555868 
L 380.265726 276.36855 
L 391.46071 273.41791 
" clip-path="url(#pfa69d87108)" style="fill: none; stroke: #2c738e; stroke-width: 1.5; stroke-linecap: square"/>
   </g>
   <g id="line2d_27">
    <path d="M 66.806165 113.265882 
L 78.001149 110.014359 
L 89.196133 106.789486 
L 100.391118 101.704013 
L 111.586102 95.743083 
L 122.781086 88.486992 
L 133.976071 83.177133 
L 145.171055 78.094407 
L 156.366039 75.982872 
L 167.561024 70.362911 
L 178.756008 63.398025 
L 189.950992 62.415779 
L 201.145977 61.270894 
L 212.340961 61.365767 
L 223.535945 62.995181 
L 234.73093 66.289503 
L 245.925914 66.98419 
L 257.120898 65.392221 
L 268.315883 62.56381 
L 279.510867 57.181467 
L 290.705851 295.447669 
L 301.900836 292.617341 
L 313.09582 289.627195 
L 324.290804 285.129283 
L 335.485789 284.071339 
L 346.680773 281.077824 
L 357.875757 278.74026 
L 369.070742 277.337813 
L 380.265726 273.272523 
L 391.46071 272.757178 
" clip-path="url(#pfa69d87108)" style="fill: none; stroke: #297b8e; stroke-width: 1.5; stroke-linecap: square"/>
   </g>
   <g id="line2d_28">
    <path d="M 66.806165 114.545027 
L 78.001149 110.416827 
L 89.196133 106.511664 
L 100.391118 102.121557 
L 111.586102 94.281293 
L 122.781086 89.468035 
L 133.976071 84.772054 
L 145.171055 80.702889 
L 156.366039 75.703684 
L 167.561024 68.281837 
L 178.756008 64.943613 
L 189.950992 63.591321 
L 201.145977 60.947958 
L 212.340961 61.000449 
L 223.535945 62.915668 
L 234.73093 66.991591 
L 245.925914 66.33242 
L 257.120898 66.134768 
L 268.315883 61.471188 
L 279.510867 58.123979 
L 290.705851 53.954328 
L 301.900836 292.985132 
L 313.09582 290.723691 
L 324.290804 287.674884 
L 335.485789 283.420349 
L 346.680773 280.840993 
L 357.875757 278.828938 
L 369.070742 276.641421 
L 380.265726 274.811745 
L 391.46071 272.600876 
" clip-path="url(#pfa69d87108)" style="fill: none; stroke: #25838e; stroke-width: 1.5; stroke-linecap: square"/>
   </g>
   <g id="line2d_29">
    <path d="M 66.806165 116.180151 
L 78.001149 108.855732 
L 89.196133 104.935416 
L 100.391118 100.541154 
L 111.586102 94.71827 
L 122.781086 90.196435 
L 133.976071 85.126525 
L 145.171055 78.90948 
L 156.366039 74.868046 
L 167.561024 70.850561 
L 178.756008 66.148502 
L 189.950992 61.501057 
L 201.145977 59.956267 
L 212.340961 61.311127 
L 223.535945 63.292209 
L 234.73093 66.877479 
L 245.925914 67.124164 
L 257.120898 66.245617 
L 268.315883 62.616353 
L 279.510867 56.740438 
L 290.705851 295.776 
L 301.900836 291.809134 
L 313.09582 289.415883 
L 324.290804 286.715686 
L 335.485789 282.705956 
L 346.680773 281.076687 
L 357.875757 280.112888 
L 369.070742 275.558047 
L 380.265726 274.345067 
L 391.46071 271.827397 
" clip-path="url(#pfa69d87108)" style="fill: none; stroke: #228c8d; stroke-width: 1.5; stroke-linecap: square"/>
   </g>
   <g id="line2d_30">
    <path d="M 66.806165 112.309731 
L 78.001149 110.759217 
L 89.196133 106.219869 
L 100.391118 99.48672 
L 111.586102 93.687125 
L 122.781086 89.815412 
L 133.976071 84.942789 
L 145.171055 80.978211 
L 156.366039 74.01023 
L 167.561024 69.816868 
L 178.756008 64.919737 
L 189.950992 62.944776 
L 201.145977 60.529411 
L 212.340961 60.744972 
L 223.535945 64.087474 
L 234.73093 67.329562 
L 245.925914 67.823702 
L 257.120898 66.034831 
L 268.315883 61.39041 
L 279.510867 58.343024 
L 290.705851 54.705339 
L 301.900836 292.90654 
L 313.09582 289.260123 
L 324.290804 286.455217 
L 335.485789 284.051384 
L 346.680773 280.058378 
L 357.875757 278.457066 
L 369.070742 276.826758 
L 380.265726 274.466079 
L 391.46071 271.620381 
" clip-path="url(#pfa69d87108)" style="fill: none; stroke: #1f948c; stroke-width: 1.5; stroke-linecap: square"/>
   </g>
   <g id="line2d_31">
    <path d="M 66.806165 115.209458 
L 78.001149 110.943094 
L 89.196133 104.933872 
L 100.391118 99.723929 
L 111.586102 93.926729 
L 122.781086 91.407117 
L 133.976071 83.749283 
L 145.171055 78.080893 
L 156.366039 74.761457 
L 167.561024 69.588321 
L 178.756008 64.903712 
L 189.950992 62.26157 
L 201.145977 60.347743 
L 212.340961 61.152965 
L 223.535945 63.096506 
L 234.73093 66.468032 
L 245.925914 67.03831 
L 257.120898 66.047077 
L 268.315883 61.711 
L 279.510867 57.104962 
L 290.705851 54.141653 
L 301.900836 292.378362 
L 313.09582 289.703543 
L 324.290804 285.939404 
L 335.485789 283.966874 
L 346.680773 281.555533 
L 357.875757 278.725803 
L 369.070742 276.304426 
L 380.265726 274.254618 
L 391.46071 272.15597 
" clip-path="url(#pfa69d87108)" style="fill: none; stroke: #1e9d89; stroke-width: 1.5; stroke-linecap: square"/>
   </g>
   <g id="line2d_32">
    <path d="M 66.806165 114.413074 
L 78.001149 109.780206 
L 89.196133 105.499642 
L 100.391118 98.553258 
L 111.586102 95.532616 
L 122.781086 89.595186 
L 133.976071 83.863733 
L 145.171055 78.747868 
L 156.366039 73.920549 
L 167.561024 69.580552 
L 178.756008 64.343711 
L 189.950992 62.61851 
L 201.145977 61.508415 
L 212.340961 61.269587 
L 223.535945 64.216667 
L 234.73093 65.83672 
L 245.925914 67.198223 
L 257.120898 65.310185 
L 268.315883 63.094198 
L 279.510867 58.098251 
L 290.705851 53.885972 
L 301.900836 292.174252 
L 313.09582 289.313532 
L 324.290804 286.024347 
L 335.485789 282.540571 
L 346.680773 279.939848 
L 357.875757 278.668893 
L 369.070742 276.311008 
L 380.265726 274.966699 
L 391.46071 272.131831 
" clip-path="url(#pfa69d87108)" style="fill: none; stroke: #21a585; stroke-width: 1.5; stroke-linecap: square"/>
   </g>
   <g id="line2d_33">
    <path d="M 66.806165 113.460029 
L 78.001149 109.628752 
L 89.196133 106.125544 
L 100.391118 100.156189 
L 111.586102 95.756078 
L 122.781086 89.449238 
L 133.976071 83.46568 
L 145.171055 77.983782 
L 156.366039 73.243555 
L 167.561024 69.924498 
L 178.756008 66.152232 
L 189.950992 61.560773 
L 201.145977 59.884979 
L 212.340961 60.639804 
L 223.535945 64.496219 
L 234.73093 66.565386 
L 245.925914 66.704024 
L 257.120898 65.842987 
L 268.315883 61.431569 
L 279.510867 57.268814 
L 290.705851 53.856 
L 301.900836 291.791749 
L 313.09582 288.64895 
L 324.290804 285.935124 
L 335.485789 283.639887 
L 346.680773 280.988513 
L 357.875757 278.760665 
L 369.070742 276.655809 
L 380.265726 274.033362 
L 391.46071 271.226336 
" clip-path="url(#pfa69d87108)" style="fill: none; stroke: #26ad81; stroke-width: 1.5; stroke-linecap: square"/>
   </g>
   <g id="line2d_34">
    <path d="M 66.806165 113.449073 
L 78.001149 109.978664 
L 89.196133 104.745985 
L 100.391118 99.511249 
L 111.586102 94.184082 
L 122.781086 91.555422 
L 133.976071 85.219839 
L 145.171055 79.854739 
L 156.366039 75.653175 
L 167.561024 70.183123 
L 178.756008 64.738342 
L 189.950992 61.955513 
L 201.145977 60.166128 
L 212.340961 60.280999 
L 223.535945 63.340247 
L 234.73093 66.149323 
L 245.925914 67.152588 
L 257.120898 65.652673 
L 268.315883 61.342904 
L 279.510867 59.017249 
L 290.705851 295.236843 
L 301.900836 292.441545 
L 313.09582 288.114681 
L 324.290804 285.630577 
L 335.485789 283.561222 
L 346.680773 279.626546 
L 357.875757 277.549901 
L 369.070742 276.286973 
L 380.265726 274.020971 
L 391.46071 272.229273 
" clip-path="url(#pfa69d87108)" style="fill: none; stroke: #31b57b; stroke-width: 1.5; stroke-linecap: square"/>
   </g>
   <g id="line2d_35">
    <path d="M 66.806165 115.123992 
L 78.001149 110.176256 
L 89.196133 104.793964 
L 100.391118 100.327327 
L 111.586102 94.707252 
L 122.781086 89.770686 
L 133.976071 83.824759 
L 145.171055 78.2438 
L 156.366039 74.416613 
L 167.561024 69.225839 
L 178.756008 65.310288 
L 189.950992 61.56748 
L 201.145977 60.053474 
L 212.340961 60.846503 
L 223.535945 63.691888 
L 234.73093 67.057837 
L 245.925914 68.189702 
L 257.120898 65.711229 
L 268.315883 62.15042 
L 279.510867 58.215279 
L 290.705851 295.727167 
L 301.900836 292.332406 
L 313.09582 288.575896 
L 324.290804 285.0219 
L 335.485789 283.13437 
L 346.680773 280.473932 
L 357.875757 278.40946 
L 369.070742 275.745631 
L 380.265726 274.302627 
L 391.46071 272.577115 
" clip-path="url(#pfa69d87108)" style="fill: none; stroke: #3fbc73; stroke-width: 1.5; stroke-linecap: square"/>
   </g>
   <g id="line2d_36">
    <path d="M 66.806165 114.003539 
L 78.001149 108.966693 
L 89.196133 103.460393 
L 100.391118 100.705497 
L 111.586102 95.350659 
L 122.781086 91.049244 
L 133.976071 84.700882 
L 145.171055 79.327744 
L 156.366039 74.430332 
L 167.561024 68.514792 
L 178.756008 65.597337 
L 189.950992 62.607927 
L 201.145977 60.860306 
L 212.340961 60.665031 
L 223.535945 64.164739 
L 234.73093 66.534029 
L 245.925914 67.297842 
L 257.120898 65.663128 
L 268.315883 61.987584 
L 279.510867 57.795864 
L 290.705851 294.928487 
L 301.900836 292.112696 
L 313.09582 288.177766 
L 324.290804 285.780895 
L 335.485789 283.428619 
L 346.680773 281.106124 
L 357.875757 277.825035 
L 369.070742 276.137607 
L 380.265726 273.183371 
L 391.46071 271.574984 
" clip-path="url(#pfa69d87108)" style="fill: none; stroke: #50c46a; stroke-width: 1.5; stroke-linecap: square"/>
   </g>
   <g id="line2d_37">
    <path d="M 66.806165 114.358315 
L 78.001149 109.394567 
L 89.196133 105.308675 
L 100.391118 101.562505 
L 111.586102 95.439744 
L 122.781086 90.135979 
L 133.976071 85.088155 
L 145.171055 78.892538 
L 156.366039 74.362422 
L 167.561024 69.977263 
L 178.756008 64.525402 
L 189.950992 61.728586 
L 201.145977 60.738543 
L 212.340961 60.959228 
L 223.535945 63.468825 
L 234.73093 67.091124 
L 245.925914 67.130068 
L 257.120898 64.960493 
L 268.315883 61.5474 
L 279.510867 58.224499 
L 290.705851 295.353133 
L 301.900836 291.171183 
L 313.09582 288.107372 
L 324.290804 285.953006 
L 335.485789 283.020456 
L 346.680773 280.742964 
L 357.875757 278.048476 
L 369.070742 275.954373 
L 380.265726 274.115138 
L 391.46071 271.712771 
" clip-path="url(#pfa69d87108)" style="fill: none; stroke: #63cb5f; stroke-width: 1.5; stroke-linecap: square"/>
   </g>
   <g id="line2d_38">
    <path d="M 66.806165 115.02151 
L 78.001149 109.155982 
L 89.196133 104.413575 
L 100.391118 100.663365 
L 111.586102 95.025672 
L 122.781086 88.411265 
L 133.976071 82.851324 
L 145.171055 78.561219 
L 156.366039 73.984352 
L 167.561024 69.214064 
L 178.756008 64.951881 
L 189.950992 62.691339 
L 201.145977 60.769677 
L 212.340961 61.284634 
L 223.535945 63.534825 
L 234.73093 67.608017 
L 245.925914 67.720777 
L 257.120898 65.388796 
L 268.315883 62.454371 
L 279.510867 57.037569 
L 290.705851 295.3265 
L 301.900836 291.640094 
L 313.09582 288.723253 
L 324.290804 286.893345 
L 335.485789 282.026722 
L 346.680773 280.823722 
L 357.875757 278.497051 
L 369.070742 275.548543 
L 380.265726 273.743133 
L 391.46071 272.086774 
" clip-path="url(#pfa69d87108)" style="fill: none; stroke: #77d153; stroke-width: 1.5; stroke-linecap: square"/>
   </g>
   <g id="line2d_39">
    <path d="M 66.806165 115.347264 
L 78.001149 109.39042 
L 89.196133 105.978703 
L 100.391118 100.007175 
L 111.586102 94.822784 
L 122.781086 89.561547 
L 133.976071 84.307939 
L 145.171055 79.479795 
L 156.366039 74.323428 
L 167.561024 69.333305 
L 178.756008 64.889551 
L 189.950992 62.38753 
L 201.145977 59.86257 
L 212.340961 60.119696 
L 223.535945 63.383295 
L 234.73093 66.882185 
L 245.925914 66.762048 
L 257.120898 65.116652 
L 268.315883 61.436737 
L 279.510867 57.739349 
L 290.705851 53.999631 
L 301.900836 291.79742 
L 313.09582 288.71554 
L 324.290804 285.172022 
L 335.485789 282.520077 
L 346.680773 279.873359 
L 357.875757 278.145603 
L 369.070742 276.512614 
L 380.265726 273.329646 
L 391.46071 272.058324 
" clip-path="url(#pfa69d87108)" style="fill: none; stroke: #8bd646; stroke-width: 1.5; stroke-linecap: square"/>
   </g>
   <g id="line2d_40">
    <path d="M 66.806165 113.912983 
L 78.001149 110.34234 
L 89.196133 104.945246 
L 100.391118 99.200594 
L 111.586102 94.619943 
L 122.781086 89.557313 
L 133.976071 85.075596 
L 145.171055 79.294354 
L 156.366039 74.516701 
L 167.561024 69.170684 
L 178.756008 64.916637 
L 189.950992 61.310756 
L 201.145977 59.730488 
L 212.340961 60.908681 
L 223.535945 63.455703 
L 234.73093 66.370583 
L 245.925914 67.225417 
L 257.120898 65.128656 
L 268.315883 61.244023 
L 279.510867 57.15257 
L 290.705851 295.531048 
L 301.900836 292.240723 
L 313.09582 289.707813 
L 324.290804 285.763835 
L 335.485789 283.058771 
L 346.680773 280.542946 
L 357.875757 277.672884 
L 369.070742 275.505159 
L 380.265726 274.73477 
L 391.46071 271.920548 
" clip-path="url(#pfa69d87108)" style="fill: none; stroke: #a2da37; stroke-width: 1.5; stroke-linecap: square"/>
   </g>
   <g id="line2d_41">
    <path d="M 66.806165 113.598825 
L 78.001149 110.117882 
L 89.196133 105.477803 
L 100.391118 101.307526 
L 111.586102 94.479031 
L 122.781086 90.23089 
L 133.976071 83.273825 
L 145.171055 78.914122 
L 156.366039 72.670234 
L 167.561024 68.457989 
L 178.756008 65.353142 
L 189.950992 62.364841 
L 201.145977 60.131587 
L 212.340961 61.055558 
L 223.535945 63.697354 
L 234.73093 65.814749 
L 245.925914 67.209773 
L 257.120898 65.408706 
L 268.315883 61.415685 
L 279.510867 57.556054 
L 290.705851 53.990298 
L 301.900836 291.668812 
L 313.09582 288.527888 
L 324.290804 285.74136 
L 335.485789 282.606555 
L 346.680773 280.63739 
L 357.875757 277.795655 
L 369.070742 276.163149 
L 380.265726 274.217555 
L 391.46071 272.13318 
" clip-path="url(#pfa69d87108)" style="fill: none; stroke: #bade28; stroke-width: 1.5; stroke-linecap: square"/>
   </g>
   <g id="line2d_42">
    <path d="M 66.806165 113.957568 
L 78.001149 109.461065 
L 89.196133 105.020198 
L 100.391118 99.770991 
L 111.586102 94.385064 
L 122.781086 89.577505 
L 133.976071 84.86349 
L 145.171055 78.096952 
L 156.366039 74.296698 
L 167.561024 68.89596 
L 178.756008 64.87006 
L 189.950992 61.837699 
L 201.145977 59.970434 
L 212.340961 60.279376 
L 223.535945 63.973335 
L 234.73093 66.361814 
L 245.925914 67.596877 
L 257.120898 64.555485 
L 268.315883 61.823825 
L 279.510867 57.372747 
L 290.705851 295.431746 
L 301.900836 291.93775 
L 313.09582 289.060509 
L 324.290804 286.263495 
L 335.485789 282.698878 
L 346.680773 280.081728 
L 357.875757 277.886464 
L 369.070742 276.079453 
L 380.265726 273.901684 
L 391.46071 271.981208 
" clip-path="url(#pfa69d87108)" style="fill: none; stroke: #d2e21b; stroke-width: 1.5; stroke-linecap: square"/>
   </g>
   <g id="line2d_43">
    <path d="M 66.806165 114.376267 
L 78.001149 110.286979 
L 89.196133 105.291586 
L 100.391118 100.237664 
L 111.586102 94.394852 
L 122.781086 89.808046 
L 133.976071 83.683972 
L 145.171055 78.712572 
L 156.366039 72.876686 
L 167.561024 68.896924 
L 178.756008 64.693002 
L 189.950992 61.5575 
L 201.145977 60.211833 
L 212.340961 61.161592 
L 223.535945 64.343105 
L 234.73093 66.524683 
L 245.925914 67.920072 
L 257.120898 65.519167 
L 268.315883 61.74392 
L 279.510867 57.40604 
L 290.705851 295.179223 
L 301.900836 291.645265 
L 313.09582 288.469441 
L 324.290804 286.45904 
L 335.485789 282.283414 
L 346.680773 279.985906 
L 357.875757 278.03909 
L 369.070742 275.963883 
L 380.265726 274.425133 
L 391.46071 271.422409 
" clip-path="url(#pfa69d87108)" style="fill: none; stroke: #eae51a; stroke-width: 1.5; stroke-linecap: square"/>
   </g>
   <g id="line2d_44">
    <path d="M 66.806165 114.465206 
L 78.001149 110.016923 
L 89.196133 105.644431 
L 100.391118 99.783467 
L 111.586102 93.55198 
L 122.781086 88.889225 
L 133.976071 83.66206 
L 145.171055 77.863483 
L 156.366039 74.834831 
L 167.561024 69.205044 
L 178.756008 64.868024 
L 189.950992 61.684745 
L 201.145977 59.686073 
L 212.340961 60.78929 
L 223.535945 63.805949 
L 234.73093 66.674072 
L 245.925914 67.819461 
L 257.120898 65.040975 
L 268.315883 61.327134 
L 279.510867 57.360561 
L 290.705851 295.313415 
L 301.900836 291.379326 
L 313.09582 288.715871 
L 324.290804 285.226064 
L 335.485789 282.280715 
L 346.680773 279.019576 
L 357.875757 277.8957 
L 369.070742 275.153408 
L 380.265726 273.771623 
L 391.46071 272.380239 
" clip-path="url(#pfa69d87108)" style="fill: none; stroke: #fde725; stroke-width: 1.5; stroke-linecap: square"/>
   </g>
   <g id="patch_3">
    <path d="M 50.573438 307.872 
L 50.573438 41.76 
" style="fill: none; stroke: #000000; stroke-width: 0.8; stroke-linejoin: miter; stroke-linecap: square"/>
   </g>
   <g id="patch_4">
    <path d="M 407.693438 307.872 
L 407.693438 41.76 
" style="fill: none; stroke: #000000; stroke-width: 0.8; stroke-linejoin: miter; stroke-linecap: square"/>
   </g>
   <g id="patch_5">
    <path d="M 50.573437 307.872 
L 407.693437 307.872 
" style="fill: none; stroke: #000000; stroke-width: 0.8; stroke-linejoin: miter; stroke-linecap: square"/>
   </g>
   <g id="patch_6">
    <path d="M 50.573437 41.76 
L 407.693437 41.76 
" style="fill: none; stroke: #000000; stroke-width: 0.8; stroke-linejoin: miter; stroke-linecap: square"/>
   </g>
   <g id="legend_1">
    <g id="patch_7">
     <path d="M 427.549438 307.872 
L 641.433812 307.872 
Q 643.433812 307.872 643.433812 305.872 
L 643.433812 145.412625 
Q 643.433812 143.412625 641.433812 143.412625 
L 427.549438 143.412625 
Q 425.549438 143.412625 425.549438 145.412625 
L 425.549438 305.872 
Q 425.549438 307.872 427.549438 307.872 
z
" style="fill: #ffffff; opacity: 0.8; stroke: #cccccc; stroke-linejoin: miter"/>
    </g>
    <g id="text_18">
     <!-- Readout pulse amplitude () -->
     <g transform="translate(466.390844 155.011063) scale(0.1 -0.1)">
      <defs>
       <path id="DejaVuSans-52" d="M 2841 2188 
Q 3044 2119 3236 1894 
Q 3428 1669 3622 1275 
L 4263 0 
L 3584 0 
L 2988 1197 
Q 2756 1666 2539 1819 
Q 2322 1972 1947 1972 
L 1259 1972 
L 1259 0 
L 628 0 
L 628 4666 
L 2053 4666 
Q 2853 4666 3247 4331 
Q 3641 3997 3641 3322 
Q 3641 2881 3436 2590 
Q 3231 2300 2841 2188 
z
M 1259 4147 
L 1259 2491 
L 2053 2491 
Q 2509 2491 2742 2702 
Q 2975 2913 2975 3322 
Q 2975 3731 2742 3939 
Q 2509 4147 2053 4147 
L 1259 4147 
z
" transform="scale(0.015625)"/>
       <path id="DejaVuSans-6f" d="M 1959 3097 
Q 1497 3097 1228 2736 
Q 959 2375 959 1747 
Q 959 1119 1226 758 
Q 1494 397 1959 397 
Q 2419 397 2687 759 
Q 2956 1122 2956 1747 
Q 2956 2369 2687 2733 
Q 2419 3097 1959 3097 
z
M 1959 3584 
Q 2709 3584 3137 3096 
Q 3566 2609 3566 1747 
Q 3566 888 3137 398 
Q 2709 -91 1959 -91 
Q 1206 -91 779 398 
Q 353 888 353 1747 
Q 353 2609 779 3096 
Q 1206 3584 1959 3584 
z
" transform="scale(0.015625)"/>
       <path id="DejaVuSans-74" d="M 1172 4494 
L 1172 3500 
L 2356 3500 
L 2356 3053 
L 1172 3053 
L 1172 1153 
Q 1172 725 1289 603 
Q 1406 481 1766 481 
L 2356 481 
L 2356 0 
L 1766 0 
Q 1100 0 847 248 
Q 594 497 594 1153 
L 594 3053 
L 172 3053 
L 172 3500 
L 594 3500 
L 594 4494 
L 1172 4494 
z
" transform="scale(0.015625)"/>
       <path id="DejaVuSans-70" d="M 1159 525 
L 1159 -1331 
L 581 -1331 
L 581 3500 
L 1159 3500 
L 1159 2969 
Q 1341 3281 1617 3432 
Q 1894 3584 2278 3584 
Q 2916 3584 3314 3078 
Q 3713 2572 3713 1747 
Q 3713 922 3314 415 
Q 2916 -91 2278 -91 
Q 1894 -91 1617 61 
Q 1341 213 1159 525 
z
M 3116 1747 
Q 3116 2381 2855 2742 
Q 2594 3103 2138 3103 
Q 1681 3103 1420 2742 
Q 1159 2381 1159 1747 
Q 1159 1113 1420 752 
Q 1681 391 2138 391 
Q 2594 391 2855 752 
Q 3116 1113 3116 1747 
z
" transform="scale(0.015625)"/>
       <path id="DejaVuSans-6c" d="M 603 4863 
L 1178 4863 
L 1178 0 
L 603 0 
L 603 4863 
z
" transform="scale(0.015625)"/>
       <path id="DejaVuSans-6d" d="M 3328 2828 
Q 3544 3216 3844 3400 
Q 4144 3584 4550 3584 
Q 5097 3584 5394 3201 
Q 5691 2819 5691 2113 
L 5691 0 
L 5113 0 
L 5113 2094 
Q 5113 2597 4934 2840 
Q 4756 3084 4391 3084 
Q 3944 3084 3684 2787 
Q 3425 2491 3425 1978 
L 3425 0 
L 2847 0 
L 2847 2094 
Q 2847 2600 2669 2842 
Q 2491 3084 2119 3084 
Q 1678 3084 1418 2786 
Q 1159 2488 1159 1978 
L 1159 0 
L 581 0 
L 581 3500 
L 1159 3500 
L 1159 2956 
Q 1356 3278 1631 3431 
Q 1906 3584 2284 3584 
Q 2666 3584 2933 3390 
Q 3200 3197 3328 2828 
z
" transform="scale(0.015625)"/>
       <path id="DejaVuSans-69" d="M 603 3500 
L 1178 3500 
L 1178 0 
L 603 0 
L 603 3500 
z
M 603 4863 
L 1178 4863 
L 1178 4134 
L 603 4134 
L 603 4863 
z
" transform="scale(0.015625)"/>
       <path id="DejaVuSans-28" d="M 1984 4856 
Q 1566 4138 1362 3434 
Q 1159 2731 1159 2009 
Q 1159 1288 1364 580 
Q 1569 -128 1984 -844 
L 1484 -844 
Q 1016 -109 783 600 
Q 550 1309 550 2009 
Q 550 2706 781 3412 
Q 1013 4119 1484 4856 
L 1984 4856 
z
" transform="scale(0.015625)"/>
       <path id="DejaVuSans-29" d="M 513 4856 
L 1013 4856 
Q 1481 4119 1714 3412 
Q 1947 2706 1947 2009 
Q 1947 1309 1714 600 
Q 1481 -109 1013 -844 
L 513 -844 
Q 928 -128 1133 580 
Q 1338 1288 1338 2009 
Q 1338 2731 1133 3434 
Q 928 4138 513 4856 
z
" transform="scale(0.015625)"/>
      </defs>
      <use xlink:href="#DejaVuSans-52"/>
      <use xlink:href="#DejaVuSans-65" x="64.982422"/>
      <use xlink:href="#DejaVuSans-61" x="126.505859"/>
      <use xlink:href="#DejaVuSans-64" x="187.785156"/>
      <use xlink:href="#DejaVuSans-6f" x="251.261719"/>
      <use xlink:href="#DejaVuSans-75" x="312.443359"/>
      <use xlink:href="#DejaVuSans-74" x="375.822266"/>
      <use xlink:href="#DejaVuSans-20" x="415.03125"/>
      <use xlink:href="#DejaVuSans-70" x="446.818359"/>
      <use xlink:href="#DejaVuSans-75" x="510.294922"/>
      <use xlink:href="#DejaVuSans-6c" x="573.673828"/>
      <use xlink:href="#DejaVuSans-73" x="601.457031"/>
      <use xlink:href="#DejaVuSans-65" x="653.556641"/>
      <use xlink:href="#DejaVuSans-20" x="715.080078"/>
      <use xlink:href="#DejaVuSans-61" x="746.867188"/>
      <use xlink:href="#DejaVuSans-6d" x="808.146484"/>
      <use xlink:href="#DejaVuSans-70" x="905.558594"/>
      <use xlink:href="#DejaVuSans-6c" x="969.035156"/>
      <use xlink:href="#DejaVuSans-69" x="996.818359"/>
      <use xlink:href="#DejaVuSans-74" x="1024.601562"/>
      <use xlink:href="#DejaVuSans-75" x="1063.810547"/>
      <use xlink:href="#DejaVuSans-64" x="1127.189453"/>
      <use xlink:href="#DejaVuSans-65" x="1190.666016"/>
      <use xlink:href="#DejaVuSans-20" x="1252.189453"/>
      <use xlink:href="#DejaVuSans-28" x="1283.976562"/>
      <use xlink:href="#DejaVuSans-29" x="1322.990234"/>
     </g>
    </g>
    <g id="line2d_45">
     <path d="M 429.549438 166.189188 
L 439.549438 166.189188 
L 449.549438 166.189188 
" style="fill: none; stroke: #440154; stroke-width: 1.5; stroke-linecap: square"/>
    </g>
    <g id="text_19">
     <!-- 0.1 -->
     <g transform="translate(457.549438 169.689188) scale(0.1 -0.1)">
      <defs>
       <path id="DejaVuSans-2e" d="M 684 794 
L 1344 794 
L 1344 0 
L 684 0 
L 684 794 
z
" transform="scale(0.015625)"/>
      </defs>
      <use xlink:href="#DejaVuSans-30"/>
      <use xlink:href="#DejaVuSans-2e" x="63.623047"/>
      <use xlink:href="#DejaVuSans-31" x="95.410156"/>
     </g>
    </g>
    <g id="line2d_46">
     <path d="M 429.549438 180.867313 
L 439.549438 180.867313 
L 449.549438 180.867313 
" style="fill: none; stroke: #470d60; stroke-width: 1.5; stroke-linecap: square"/>
    </g>
    <g id="text_20">
     <!-- 0.121 -->
     <g transform="translate(457.549438 184.367313) scale(0.1 -0.1)">
      <use xlink:href="#DejaVuSans-30"/>
      <use xlink:href="#DejaVuSans-2e" x="63.623047"/>
      <use xlink:href="#DejaVuSans-31" x="95.410156"/>
      <use xlink:href="#DejaVuSans-32" x="159.033203"/>
      <use xlink:href="#DejaVuSans-31" x="222.65625"/>
     </g>
    </g>
    <g id="line2d_47">
     <path d="M 429.549438 195.545438 
L 439.549438 195.545438 
L 449.549438 195.545438 
" style="fill: none; stroke: #481a6c; stroke-width: 1.5; stroke-linecap: square"/>
    </g>
    <g id="text_21">
     <!-- 0.141 -->
     <g transform="translate(457.549438 199.045438) scale(0.1 -0.1)">
      <use xlink:href="#DejaVuSans-30"/>
      <use xlink:href="#DejaVuSans-2e" x="63.623047"/>
      <use xlink:href="#DejaVuSans-31" x="95.410156"/>
      <use xlink:href="#DejaVuSans-34" x="159.033203"/>
      <use xlink:href="#DejaVuSans-31" x="222.65625"/>
     </g>
    </g>
    <g id="line2d_48">
     <path d="M 429.549438 210.223563 
L 439.549438 210.223563 
L 449.549438 210.223563 
" style="fill: none; stroke: #482576; stroke-width: 1.5; stroke-linecap: square"/>
    </g>
    <g id="text_22">
     <!-- 0.162 -->
     <g transform="translate(457.549438 213.723563) scale(0.1 -0.1)">
      <use xlink:href="#DejaVuSans-30"/>
      <use xlink:href="#DejaVuSans-2e" x="63.623047"/>
      <use xlink:href="#DejaVuSans-31" x="95.410156"/>
      <use xlink:href="#DejaVuSans-36" x="159.033203"/>
      <use xlink:href="#DejaVuSans-32" x="222.65625"/>
     </g>
    </g>
    <g id="line2d_49">
     <path d="M 429.549438 224.901688 
L 439.549438 224.901688 
L 449.549438 224.901688 
" style="fill: none; stroke: #46307e; stroke-width: 1.5; stroke-linecap: square"/>
    </g>
    <g id="text_23">
     <!-- 0.183 -->
     <g transform="translate(457.549438 228.401688) scale(0.1 -0.1)">
      <use xlink:href="#DejaVuSans-30"/>
      <use xlink:href="#DejaVuSans-2e" x="63.623047"/>
      <use xlink:href="#DejaVuSans-31" x="95.410156"/>
      <use xlink:href="#DejaVuSans-38" x="159.033203"/>
      <use xlink:href="#DejaVuSans-33" x="222.65625"/>
     </g>
    </g>
    <g id="line2d_50">
     <path d="M 429.549438 239.579813 
L 439.549438 239.579813 
L 449.549438 239.579813 
" style="fill: none; stroke: #443b84; stroke-width: 1.5; stroke-linecap: square"/>
    </g>
    <g id="text_24">
     <!-- 0.203 -->
     <g transform="translate(457.549438 243.079813) scale(0.1 -0.1)">
      <use xlink:href="#DejaVuSans-30"/>
      <use xlink:href="#DejaVuSans-2e" x="63.623047"/>
      <use xlink:href="#DejaVuSans-32" x="95.410156"/>
      <use xlink:href="#DejaVuSans-30" x="159.033203"/>
      <use xlink:href="#DejaVuSans-33" x="222.65625"/>
     </g>
    </g>
    <g id="line2d_51">
     <path d="M 429.549438 254.257938 
L 439.549438 254.257938 
L 449.549438 254.257938 
" style="fill: none; stroke: #404588; stroke-width: 1.5; stroke-linecap: square"/>
    </g>
    <g id="text_25">
     <!-- 0.224 -->
     <g transform="translate(457.549438 257.757938) scale(0.1 -0.1)">
      <use xlink:href="#DejaVuSans-30"/>
      <use xlink:href="#DejaVuSans-2e" x="63.623047"/>
      <use xlink:href="#DejaVuSans-32" x="95.410156"/>
      <use xlink:href="#DejaVuSans-32" x="159.033203"/>
      <use xlink:href="#DejaVuSans-34" x="222.65625"/>
     </g>
    </g>
    <g id="line2d_52">
     <path d="M 429.549438 268.936062 
L 439.549438 268.936062 
L 449.549438 268.936062 
" style="fill: none; stroke: #3c4f8a; stroke-width: 1.5; stroke-linecap: square"/>
    </g>
    <g id="text_26">
     <!-- 0.245 -->
     <g transform="translate(457.549438 272.436062) scale(0.1 -0.1)">
      <use xlink:href="#DejaVuSans-30"/>
      <use xlink:href="#DejaVuSans-2e" x="63.623047"/>
      <use xlink:href="#DejaVuSans-32" x="95.410156"/>
      <use xlink:href="#DejaVuSans-34" x="159.033203"/>
      <use xlink:href="#DejaVuSans-35" x="222.65625"/>
     </g>
    </g>
    <g id="line2d_53">
     <path d="M 429.549438 283.614188 
L 439.549438 283.614188 
L 449.549438 283.614188 
" style="fill: none; stroke: #38598c; stroke-width: 1.5; stroke-linecap: square"/>
    </g>
    <g id="text_27">
     <!-- 0.266 -->
     <g transform="translate(457.549438 287.114188) scale(0.1 -0.1)">
      <use xlink:href="#DejaVuSans-30"/>
      <use xlink:href="#DejaVuSans-2e" x="63.623047"/>
      <use xlink:href="#DejaVuSans-32" x="95.410156"/>
      <use xlink:href="#DejaVuSans-36" x="159.033203"/>
      <use xlink:href="#DejaVuSans-36" x="222.65625"/>
     </g>
    </g>
    <g id="line2d_54">
     <path d="M 429.549438 298.292312 
L 439.549438 298.292312 
L 449.549438 298.292312 
" style="fill: none; stroke: #33628d; stroke-width: 1.5; stroke-linecap: square"/>
    </g>
    <g id="text_28">
     <!-- 0.286 -->
     <g transform="translate(457.549438 301.792312) scale(0.1 -0.1)">
      <use xlink:href="#DejaVuSans-30"/>
      <use xlink:href="#DejaVuSans-2e" x="63.623047"/>
      <use xlink:href="#DejaVuSans-32" x="95.410156"/>
      <use xlink:href="#DejaVuSans-38" x="159.033203"/>
      <use xlink:href="#DejaVuSans-36" x="222.65625"/>
     </g>
    </g>
    <g id="line2d_55">
     <path d="M 506.177563 166.189188 
L 516.177563 166.189188 
L 526.177563 166.189188 
" style="fill: none; stroke: #2f6b8e; stroke-width: 1.5; stroke-linecap: square"/>
    </g>
    <g id="text_29">
     <!-- 0.307 -->
     <g transform="translate(534.177563 169.689188) scale(0.1 -0.1)">
      <use xlink:href="#DejaVuSans-30"/>
      <use xlink:href="#DejaVuSans-2e" x="63.623047"/>
      <use xlink:href="#DejaVuSans-33" x="95.410156"/>
      <use xlink:href="#DejaVuSans-30" x="159.033203"/>
      <use xlink:href="#DejaVuSans-37" x="222.65625"/>
     </g>
    </g>
    <g id="line2d_56">
     <path d="M 506.177563 180.867313 
L 516.177563 180.867313 
L 526.177563 180.867313 
" style="fill: none; stroke: #2c738e; stroke-width: 1.5; stroke-linecap: square"/>
    </g>
    <g id="text_30">
     <!-- 0.328 -->
     <g transform="translate(534.177563 184.367313) scale(0.1 -0.1)">
      <use xlink:href="#DejaVuSans-30"/>
      <use xlink:href="#DejaVuSans-2e" x="63.623047"/>
      <use xlink:href="#DejaVuSans-33" x="95.410156"/>
      <use xlink:href="#DejaVuSans-32" x="159.033203"/>
      <use xlink:href="#DejaVuSans-38" x="222.65625"/>
     </g>
    </g>
    <g id="line2d_57">
     <path d="M 506.177563 195.545438 
L 516.177563 195.545438 
L 526.177563 195.545438 
" style="fill: none; stroke: #297b8e; stroke-width: 1.5; stroke-linecap: square"/>
    </g>
    <g id="text_31">
     <!-- 0.348 -->
     <g transform="translate(534.177563 199.045438) scale(0.1 -0.1)">
      <use xlink:href="#DejaVuSans-30"/>
      <use xlink:href="#DejaVuSans-2e" x="63.623047"/>
      <use xlink:href="#DejaVuSans-33" x="95.410156"/>
      <use xlink:href="#DejaVuSans-34" x="159.033203"/>
      <use xlink:href="#DejaVuSans-38" x="222.65625"/>
     </g>
    </g>
    <g id="line2d_58">
     <path d="M 506.177563 210.223563 
L 516.177563 210.223563 
L 526.177563 210.223563 
" style="fill: none; stroke: #25838e; stroke-width: 1.5; stroke-linecap: square"/>
    </g>
    <g id="text_32">
     <!-- 0.369 -->
     <g transform="translate(534.177563 213.723563) scale(0.1 -0.1)">
      <use xlink:href="#DejaVuSans-30"/>
      <use xlink:href="#DejaVuSans-2e" x="63.623047"/>
      <use xlink:href="#DejaVuSans-33" x="95.410156"/>
      <use xlink:href="#DejaVuSans-36" x="159.033203"/>
      <use xlink:href="#DejaVuSans-39" x="222.65625"/>
     </g>
    </g>
    <g id="line2d_59">
     <path d="M 506.177563 224.901688 
L 516.177563 224.901688 
L 526.177563 224.901688 
" style="fill: none; stroke: #228c8d; stroke-width: 1.5; stroke-linecap: square"/>
    </g>
    <g id="text_33">
     <!-- 0.39 -->
     <g transform="translate(534.177563 228.401688) scale(0.1 -0.1)">
      <use xlink:href="#DejaVuSans-30"/>
      <use xlink:href="#DejaVuSans-2e" x="63.623047"/>
      <use xlink:href="#DejaVuSans-33" x="95.410156"/>
      <use xlink:href="#DejaVuSans-39" x="159.033203"/>
     </g>
    </g>
    <g id="line2d_60">
     <path d="M 506.177563 239.579813 
L 516.177563 239.579813 
L 526.177563 239.579813 
" style="fill: none; stroke: #1f948c; stroke-width: 1.5; stroke-linecap: square"/>
    </g>
    <g id="text_34">
     <!-- 0.41 -->
     <g transform="translate(534.177563 243.079813) scale(0.1 -0.1)">
      <use xlink:href="#DejaVuSans-30"/>
      <use xlink:href="#DejaVuSans-2e" x="63.623047"/>
      <use xlink:href="#DejaVuSans-34" x="95.410156"/>
      <use xlink:href="#DejaVuSans-31" x="159.033203"/>
     </g>
    </g>
    <g id="line2d_61">
     <path d="M 506.177563 254.257938 
L 516.177563 254.257938 
L 526.177563 254.257938 
" style="fill: none; stroke: #1e9d89; stroke-width: 1.5; stroke-linecap: square"/>
    </g>
    <g id="text_35">
     <!-- 0.431 -->
     <g transform="translate(534.177563 257.757938) scale(0.1 -0.1)">
      <use xlink:href="#DejaVuSans-30"/>
      <use xlink:href="#DejaVuSans-2e" x="63.623047"/>
      <use xlink:href="#DejaVuSans-34" x="95.410156"/>
      <use xlink:href="#DejaVuSans-33" x="159.033203"/>
      <use xlink:href="#DejaVuSans-31" x="222.65625"/>
     </g>
    </g>
    <g id="line2d_62">
     <path d="M 506.177563 268.936062 
L 516.177563 268.936062 
L 526.177563 268.936062 
" style="fill: none; stroke: #21a585; stroke-width: 1.5; stroke-linecap: square"/>
    </g>
    <g id="text_36">
     <!-- 0.452 -->
     <g transform="translate(534.177563 272.436062) scale(0.1 -0.1)">
      <use xlink:href="#DejaVuSans-30"/>
      <use xlink:href="#DejaVuSans-2e" x="63.623047"/>
      <use xlink:href="#DejaVuSans-34" x="95.410156"/>
      <use xlink:href="#DejaVuSans-35" x="159.033203"/>
      <use xlink:href="#DejaVuSans-32" x="222.65625"/>
     </g>
    </g>
    <g id="line2d_63">
     <path d="M 506.177563 283.614188 
L 516.177563 283.614188 
L 526.177563 283.614188 
" style="fill: none; stroke: #26ad81; stroke-width: 1.5; stroke-linecap: square"/>
    </g>
    <g id="text_37">
     <!-- 0.472 -->
     <g transform="translate(534.177563 287.114188) scale(0.1 -0.1)">
      <use xlink:href="#DejaVuSans-30"/>
      <use xlink:href="#DejaVuSans-2e" x="63.623047"/>
      <use xlink:href="#DejaVuSans-34" x="95.410156"/>
      <use xlink:href="#DejaVuSans-37" x="159.033203"/>
      <use xlink:href="#DejaVuSans-32" x="222.65625"/>
     </g>
    </g>
    <g id="line2d_64">
     <path d="M 506.177563 298.292312 
L 516.177563 298.292312 
L 526.177563 298.292312 
" style="fill: none; stroke: #31b57b; stroke-width: 1.5; stroke-linecap: square"/>
    </g>
    <g id="text_38">
     <!-- 0.493 -->
     <g transform="translate(534.177563 301.792312) scale(0.1 -0.1)">
      <use xlink:href="#DejaVuSans-30"/>
      <use xlink:href="#DejaVuSans-2e" x="63.623047"/>
      <use xlink:href="#DejaVuSans-34" x="95.410156"/>
      <use xlink:href="#DejaVuSans-39" x="159.033203"/>
      <use xlink:href="#DejaVuSans-33" x="222.65625"/>
     </g>
    </g>
    <g id="line2d_65">
     <path d="M 582.805687 166.189188 
L 592.805687 166.189188 
L 602.805687 166.189188 
" style="fill: none; stroke: #3fbc73; stroke-width: 1.5; stroke-linecap: square"/>
    </g>
    <g id="text_39">
     <!-- 0.514 -->
     <g transform="translate(610.805687 169.689188) scale(0.1 -0.1)">
      <use xlink:href="#DejaVuSans-30"/>
      <use xlink:href="#DejaVuSans-2e" x="63.623047"/>
      <use xlink:href="#DejaVuSans-35" x="95.410156"/>
      <use xlink:href="#DejaVuSans-31" x="159.033203"/>
      <use xlink:href="#DejaVuSans-34" x="222.65625"/>
     </g>
    </g>
    <g id="line2d_66">
     <path d="M 582.805687 180.867313 
L 592.805687 180.867313 
L 602.805687 180.867313 
" style="fill: none; stroke: #50c46a; stroke-width: 1.5; stroke-linecap: square"/>
    </g>
    <g id="text_40">
     <!-- 0.534 -->
     <g transform="translate(610.805687 184.367313) scale(0.1 -0.1)">
      <use xlink:href="#DejaVuSans-30"/>
      <use xlink:href="#DejaVuSans-2e" x="63.623047"/>
      <use xlink:href="#DejaVuSans-35" x="95.410156"/>
      <use xlink:href="#DejaVuSans-33" x="159.033203"/>
      <use xlink:href="#DejaVuSans-34" x="222.65625"/>
     </g>
    </g>
    <g id="line2d_67">
     <path d="M 582.805687 195.545438 
L 592.805687 195.545438 
L 602.805687 195.545438 
" style="fill: none; stroke: #63cb5f; stroke-width: 1.5; stroke-linecap: square"/>
    </g>
    <g id="text_41">
     <!-- 0.555 -->
     <g transform="translate(610.805687 199.045438) scale(0.1 -0.1)">
      <use xlink:href="#DejaVuSans-30"/>
      <use xlink:href="#DejaVuSans-2e" x="63.623047"/>
      <use xlink:href="#DejaVuSans-35" x="95.410156"/>
      <use xlink:href="#DejaVuSans-35" x="159.033203"/>
      <use xlink:href="#DejaVuSans-35" x="222.65625"/>
     </g>
    </g>
    <g id="line2d_68">
     <path d="M 582.805687 210.223563 
L 592.805687 210.223563 
L 602.805687 210.223563 
" style="fill: none; stroke: #77d153; stroke-width: 1.5; stroke-linecap: square"/>
    </g>
    <g id="text_42">
     <!-- 0.576 -->
     <g transform="translate(610.805687 213.723563) scale(0.1 -0.1)">
      <use xlink:href="#DejaVuSans-30"/>
      <use xlink:href="#DejaVuSans-2e" x="63.623047"/>
      <use xlink:href="#DejaVuSans-35" x="95.410156"/>
      <use xlink:href="#DejaVuSans-37" x="159.033203"/>
      <use xlink:href="#DejaVuSans-36" x="222.65625"/>
     </g>
    </g>
    <g id="line2d_69">
     <path d="M 582.805687 224.901688 
L 592.805687 224.901688 
L 602.805687 224.901688 
" style="fill: none; stroke: #8bd646; stroke-width: 1.5; stroke-linecap: square"/>
    </g>
    <g id="text_43">
     <!-- 0.597 -->
     <g transform="translate(610.805687 228.401688) scale(0.1 -0.1)">
      <use xlink:href="#DejaVuSans-30"/>
      <use xlink:href="#DejaVuSans-2e" x="63.623047"/>
      <use xlink:href="#DejaVuSans-35" x="95.410156"/>
      <use xlink:href="#DejaVuSans-39" x="159.033203"/>
      <use xlink:href="#DejaVuSans-37" x="222.65625"/>
     </g>
    </g>
    <g id="line2d_70">
     <path d="M 582.805687 239.579813 
L 592.805687 239.579813 
L 602.805687 239.579813 
" style="fill: none; stroke: #a2da37; stroke-width: 1.5; stroke-linecap: square"/>
    </g>
    <g id="text_44">
     <!-- 0.617 -->
     <g transform="translate(610.805687 243.079813) scale(0.1 -0.1)">
      <use xlink:href="#DejaVuSans-30"/>
      <use xlink:href="#DejaVuSans-2e" x="63.623047"/>
      <use xlink:href="#DejaVuSans-36" x="95.410156"/>
      <use xlink:href="#DejaVuSans-31" x="159.033203"/>
      <use xlink:href="#DejaVuSans-37" x="222.65625"/>
     </g>
    </g>
    <g id="line2d_71">
     <path d="M 582.805687 254.257938 
L 592.805687 254.257938 
L 602.805687 254.257938 
" style="fill: none; stroke: #bade28; stroke-width: 1.5; stroke-linecap: square"/>
    </g>
    <g id="text_45">
     <!-- 0.638 -->
     <g transform="translate(610.805687 257.757938) scale(0.1 -0.1)">
      <use xlink:href="#DejaVuSans-30"/>
      <use xlink:href="#DejaVuSans-2e" x="63.623047"/>
      <use xlink:href="#DejaVuSans-36" x="95.410156"/>
      <use xlink:href="#DejaVuSans-33" x="159.033203"/>
      <use xlink:href="#DejaVuSans-38" x="222.65625"/>
     </g>
    </g>
    <g id="line2d_72">
     <path d="M 582.805687 268.936062 
L 592.805687 268.936062 
L 602.805687 268.936062 
" style="fill: none; stroke: #d2e21b; stroke-width: 1.5; stroke-linecap: square"/>
    </g>
    <g id="text_46">
     <!-- 0.659 -->
     <g transform="translate(610.805687 272.436062) scale(0.1 -0.1)">
      <use xlink:href="#DejaVuSans-30"/>
      <use xlink:href="#DejaVuSans-2e" x="63.623047"/>
      <use xlink:href="#DejaVuSans-36" x="95.410156"/>
      <use xlink:href="#DejaVuSans-35" x="159.033203"/>
      <use xlink:href="#DejaVuSans-39" x="222.65625"/>
     </g>
    </g>
    <g id="line2d_73">
     <path d="M 582.805687 283.614188 
L 592.805687 283.614188 
L 602.805687 283.614188 
" style="fill: none; stroke: #eae51a; stroke-width: 1.5; stroke-linecap: square"/>
    </g>
    <g id="text_47">
     <!-- 0.679 -->
     <g transform="translate(610.805687 287.114188) scale(0.1 -0.1)">
      <use xlink:href="#DejaVuSans-30"/>
      <use xlink:href="#DejaVuSans-2e" x="63.623047"/>
      <use xlink:href="#DejaVuSans-36" x="95.410156"/>
      <use xlink:href="#DejaVuSans-37" x="159.033203"/>
      <use xlink:href="#DejaVuSans-39" x="222.65625"/>
     </g>
    </g>
    <g id="line2d_74">
     <path d="M 582.805687 298.292312 
L 592.805687 298.292312 
L 602.805687 298.292312 
" style="fill: none; stroke: #fde725; stroke-width: 1.5; stroke-linecap: square"/>
    </g>
    <g id="text_48">
     <!-- 0.7 -->
     <g transform="translate(610.805687 301.792312) scale(0.1 -0.1)">
      <use xlink:href="#DejaVuSans-30"/>
      <use xlink:href="#DejaVuSans-2e" x="63.623047"/>
      <use xlink:href="#DejaVuSans-37" x="95.410156"/>
     </g>
    </g>
   </g>
  </g>
  <g id="text_49">
   <!-- x0x1-y1 One-tone-powerDep -->
   <g transform="translate(136.569375 16.318125) scale(0.12 -0.12)">
    <defs>
     <path id="DejaVuSans-78" d="M 3513 3500 
L 2247 1797 
L 3578 0 
L 2900 0 
L 1881 1375 
L 863 0 
L 184 0 
L 1544 1831 
L 300 3500 
L 978 3500 
L 1906 2253 
L 2834 3500 
L 3513 3500 
z
" transform="scale(0.015625)"/>
     <path id="DejaVuSans-4f" d="M 2522 4238 
Q 1834 4238 1429 3725 
Q 1025 3213 1025 2328 
Q 1025 1447 1429 934 
Q 1834 422 2522 422 
Q 3209 422 3611 934 
Q 4013 1447 4013 2328 
Q 4013 3213 3611 3725 
Q 3209 4238 2522 4238 
z
M 2522 4750 
Q 3503 4750 4090 4092 
Q 4678 3434 4678 2328 
Q 4678 1225 4090 567 
Q 3503 -91 2522 -91 
Q 1538 -91 948 565 
Q 359 1222 359 2328 
Q 359 3434 948 4092 
Q 1538 4750 2522 4750 
z
" transform="scale(0.015625)"/>
     <path id="DejaVuSans-77" d="M 269 3500 
L 844 3500 
L 1563 769 
L 2278 3500 
L 2956 3500 
L 3675 769 
L 4391 3500 
L 4966 3500 
L 4050 0 
L 3372 0 
L 2619 2869 
L 1863 0 
L 1184 0 
L 269 3500 
z
" transform="scale(0.015625)"/>
     <path id="DejaVuSans-44" d="M 1259 4147 
L 1259 519 
L 2022 519 
Q 2988 519 3436 956 
Q 3884 1394 3884 2338 
Q 3884 3275 3436 3711 
Q 2988 4147 2022 4147 
L 1259 4147 
z
M 628 4666 
L 1925 4666 
Q 3281 4666 3915 4102 
Q 4550 3538 4550 2338 
Q 4550 1131 3912 565 
Q 3275 0 1925 0 
L 628 0 
L 628 4666 
z
" transform="scale(0.015625)"/>
    </defs>
    <use xlink:href="#DejaVuSans-78"/>
    <use xlink:href="#DejaVuSans-30" x="59.179688"/>
    <use xlink:href="#DejaVuSans-78" x="122.802734"/>
    <use xlink:href="#DejaVuSans-31" x="181.982422"/>
    <use xlink:href="#DejaVuSans-2d" x="245.605469"/>
    <use xlink:href="#DejaVuSans-79" x="279.939453"/>
    <use xlink:href="#DejaVuSans-31" x="339.119141"/>
    <use xlink:href="#DejaVuSans-20" x="402.742188"/>
    <use xlink:href="#DejaVuSans-4f" x="434.529297"/>
    <use xlink:href="#DejaVuSans-6e" x="513.240234"/>
    <use xlink:href="#DejaVuSans-65" x="576.619141"/>
    <use xlink:href="#DejaVuSans-2d" x="638.142578"/>
    <use xlink:href="#DejaVuSans-74" x="674.226562"/>
    <use xlink:href="#DejaVuSans-6f" x="713.435547"/>
    <use xlink:href="#DejaVuSans-6e" x="774.617188"/>
    <use xlink:href="#DejaVuSans-65" x="837.996094"/>
    <use xlink:href="#DejaVuSans-2d" x="899.519531"/>
    <use xlink:href="#DejaVuSans-70" x="935.603516"/>
    <use xlink:href="#DejaVuSans-6f" x="999.080078"/>
    <use xlink:href="#DejaVuSans-77" x="1060.261719"/>
    <use xlink:href="#DejaVuSans-65" x="1142.048828"/>
    <use xlink:href="#DejaVuSans-72" x="1203.572266"/>
    <use xlink:href="#DejaVuSans-44" x="1244.685547"/>
    <use xlink:href="#DejaVuSans-65" x="1321.6875"/>
    <use xlink:href="#DejaVuSans-70" x="1383.210938"/>
   </g>
   <!-- tuid: 20240304-152639-057-1898a0 -->
   <g transform="translate(113.65875 29.7555) scale(0.12 -0.12)">
    <defs>
     <path id="DejaVuSans-3a" d="M 750 794 
L 1409 794 
L 1409 0 
L 750 0 
L 750 794 
z
M 750 3309 
L 1409 3309 
L 1409 2516 
L 750 2516 
L 750 3309 
z
" transform="scale(0.015625)"/>
    </defs>
    <use xlink:href="#DejaVuSans-74"/>
    <use xlink:href="#DejaVuSans-75" x="39.208984"/>
    <use xlink:href="#DejaVuSans-69" x="102.587891"/>
    <use xlink:href="#DejaVuSans-64" x="130.371094"/>
    <use xlink:href="#DejaVuSans-3a" x="193.847656"/>
    <use xlink:href="#DejaVuSans-20" x="227.539062"/>
    <use xlink:href="#DejaVuSans-32" x="259.326172"/>
    <use xlink:href="#DejaVuSans-30" x="322.949219"/>
    <use xlink:href="#DejaVuSans-32" x="386.572266"/>
    <use xlink:href="#DejaVuSans-34" x="450.195312"/>
    <use xlink:href="#DejaVuSans-30" x="513.818359"/>
    <use xlink:href="#DejaVuSans-33" x="577.441406"/>
    <use xlink:href="#DejaVuSans-30" x="641.064453"/>
    <use xlink:href="#DejaVuSans-34" x="704.6875"/>
    <use xlink:href="#DejaVuSans-2d" x="768.310547"/>
    <use xlink:href="#DejaVuSans-31" x="804.394531"/>
    <use xlink:href="#DejaVuSans-35" x="868.017578"/>
    <use xlink:href="#DejaVuSans-32" x="931.640625"/>
    <use xlink:href="#DejaVuSans-36" x="995.263672"/>
    <use xlink:href="#DejaVuSans-33" x="1058.886719"/>
    <use xlink:href="#DejaVuSans-39" x="1122.509766"/>
    <use xlink:href="#DejaVuSans-2d" x="1186.132812"/>
    <use xlink:href="#DejaVuSans-30" x="1222.216797"/>
    <use xlink:href="#DejaVuSans-35" x="1285.839844"/>
    <use xlink:href="#DejaVuSans-37" x="1349.462891"/>
    <use xlink:href="#DejaVuSans-2d" x="1413.085938"/>
    <use xlink:href="#DejaVuSans-31" x="1449.169922"/>
    <use xlink:href="#DejaVuSans-38" x="1512.792969"/>
    <use xlink:href="#DejaVuSans-39" x="1576.416016"/>
    <use xlink:href="#DejaVuSans-38" x="1640.039062"/>
    <use xlink:href="#DejaVuSans-61" x="1703.662109"/>
    <use xlink:href="#DejaVuSans-30" x="1764.941406"/>
   </g>
  </g>
 </g>
 <defs>
  <clipPath id="pfa69d87108">
   <rect x="50.573438" y="41.76" width="357.12" height="266.112"/>
  </clipPath>
 </defs>
</svg>
