<?xml version="1.0" encoding="utf-8" standalone="no"?>
<!DOCTYPE svg PUBLIC "-//W3C//DTD SVG 1.1//EN"
  "http://www.w3.org/Graphics/SVG/1.1/DTD/svg11.dtd">
<svg xmlns:xlink="http://www.w3.org/1999/xlink" width="572.186937pt" height="345.42825pt" viewBox="0 0 572.186937 345.42825" xmlns="http://www.w3.org/2000/svg" version="1.1">
 <metadata>
  <rdf:RDF xmlns:dc="http://purl.org/dc/elements/1.1/" xmlns:cc="http://creativecommons.org/ns#" xmlns:rdf="http://www.w3.org/1999/02/22-rdf-syntax-ns#">
   <cc:Work>
    <dc:type rdf:resource="http://purl.org/dc/dcmitype/StillImage"/>
    <dc:date>2024-02-22T18:11:07.818432</dc:date>
    <dc:format>image/svg+xml</dc:format>
    <dc:creator>
     <cc:Agent>
      <dc:title>Matplotlib v3.8.2, https://matplotlib.org/</dc:title>
     </cc:Agent>
    </dc:creator>
   </cc:Work>
  </rdf:RDF>
 </metadata>
 <defs>
  <style type="text/css">*{stroke-linejoin: round; stroke-linecap: butt}</style>
 </defs>
 <g id="figure_1">
  <g id="patch_1">
   <path d="M 0 345.42825 
L 572.186937 345.42825 
L 572.186937 -0 
L 0 -0 
L 0 345.42825 
z
" style="fill: none; opacity: 0"/>
  </g>
  <g id="axes_1">
   <g id="patch_2">
    <path d="M 44.210938 307.872 
L 401.330938 307.872 
L 401.330938 41.76 
L 44.210938 41.76 
z
" style="fill: #ffffff"/>
   </g>
   <g id="matplotlib.axis_1">
    <g id="xtick_1">
     <g id="line2d_1">
      <defs>
       <path id="m51b497a245" d="M 0 0 
L 0 3.5 
" style="stroke: #000000; stroke-width: 0.8"/>
      </defs>
      <g>
       <use xlink:href="#m51b497a245" x="68.528286" y="307.872" style="stroke: #000000; stroke-width: 0.8"/>
      </g>
     </g>
     <g id="text_1">
      <!-- -10 -->
      <g transform="translate(60.36188 322.470438) scale(0.1 -0.1)">
       <defs>
        <path id="DejaVuSans-2d" d="M 313 2009 
L 1997 2009 
L 1997 1497 
L 313 1497 
L 313 2009 
z
" transform="scale(0.015625)"/>
        <path id="DejaVuSans-31" d="M 794 531 
L 1825 531 
L 1825 4091 
L 703 3866 
L 703 4441 
L 1819 4666 
L 2450 4666 
L 2450 531 
L 3481 531 
L 3481 0 
L 794 0 
L 794 531 
z
" transform="scale(0.015625)"/>
        <path id="DejaVuSans-30" d="M 2034 4250 
Q 1547 4250 1301 3770 
Q 1056 3291 1056 2328 
Q 1056 1369 1301 889 
Q 1547 409 2034 409 
Q 2525 409 2770 889 
Q 3016 1369 3016 2328 
Q 3016 3291 2770 3770 
Q 2525 4250 2034 4250 
z
M 2034 4750 
Q 2819 4750 3233 4129 
Q 3647 3509 3647 2328 
Q 3647 1150 3233 529 
Q 2819 -91 2034 -91 
Q 1250 -91 836 529 
Q 422 1150 422 2328 
Q 422 3509 836 4129 
Q 1250 4750 2034 4750 
z
" transform="scale(0.015625)"/>
       </defs>
       <use xlink:href="#DejaVuSans-2d"/>
       <use xlink:href="#DejaVuSans-31" x="36.083984"/>
       <use xlink:href="#DejaVuSans-30" x="99.707031"/>
      </g>
     </g>
    </g>
    <g id="xtick_2">
     <g id="line2d_2">
      <g>
       <use xlink:href="#m51b497a245" x="145.059336" y="307.872" style="stroke: #000000; stroke-width: 0.8"/>
      </g>
     </g>
     <g id="text_2">
      <!-- -5 -->
      <g transform="translate(140.074179 322.470438) scale(0.1 -0.1)">
       <defs>
        <path id="DejaVuSans-35" d="M 691 4666 
L 3169 4666 
L 3169 4134 
L 1269 4134 
L 1269 2991 
Q 1406 3038 1543 3061 
Q 1681 3084 1819 3084 
Q 2600 3084 3056 2656 
Q 3513 2228 3513 1497 
Q 3513 744 3044 326 
Q 2575 -91 1722 -91 
Q 1428 -91 1123 -41 
Q 819 9 494 109 
L 494 744 
Q 775 591 1075 516 
Q 1375 441 1709 441 
Q 2250 441 2565 725 
Q 2881 1009 2881 1497 
Q 2881 1984 2565 2268 
Q 2250 2553 1709 2553 
Q 1456 2553 1204 2497 
Q 953 2441 691 2322 
L 691 4666 
z
" transform="scale(0.015625)"/>
       </defs>
       <use xlink:href="#DejaVuSans-2d"/>
       <use xlink:href="#DejaVuSans-35" x="36.083984"/>
      </g>
     </g>
    </g>
    <g id="xtick_3">
     <g id="line2d_3">
      <g>
       <use xlink:href="#m51b497a245" x="221.590385" y="307.872" style="stroke: #000000; stroke-width: 0.8"/>
      </g>
     </g>
     <g id="text_3">
      <!-- 0 -->
      <g transform="translate(218.409135 322.470438) scale(0.1 -0.1)">
       <use xlink:href="#DejaVuSans-30"/>
      </g>
     </g>
    </g>
    <g id="xtick_4">
     <g id="line2d_4">
      <g>
       <use xlink:href="#m51b497a245" x="298.121435" y="307.872" style="stroke: #000000; stroke-width: 0.8"/>
      </g>
     </g>
     <g id="text_4">
      <!-- 5 -->
      <g transform="translate(294.940185 322.470438) scale(0.1 -0.1)">
       <use xlink:href="#DejaVuSans-35"/>
      </g>
     </g>
    </g>
    <g id="xtick_5">
     <g id="line2d_5">
      <g>
       <use xlink:href="#m51b497a245" x="374.652485" y="307.872" style="stroke: #000000; stroke-width: 0.8"/>
      </g>
     </g>
     <g id="text_5">
      <!-- 10 -->
      <g transform="translate(368.289985 322.470438) scale(0.1 -0.1)">
       <use xlink:href="#DejaVuSans-31"/>
       <use xlink:href="#DejaVuSans-30" x="63.623047"/>
      </g>
     </g>
    </g>
    <g id="text_6">
     <!-- Re$(S_{21})$ [mV] -->
     <g transform="translate(190.770938 336.148562) scale(0.1 -0.1)">
      <defs>
       <path id="DejaVuSans-52" d="M 2841 2188 
Q 3044 2119 3236 1894 
Q 3428 1669 3622 1275 
L 4263 0 
L 3584 0 
L 2988 1197 
Q 2756 1666 2539 1819 
Q 2322 1972 1947 1972 
L 1259 1972 
L 1259 0 
L 628 0 
L 628 4666 
L 2053 4666 
Q 2853 4666 3247 4331 
Q 3641 3997 3641 3322 
Q 3641 2881 3436 2590 
Q 3231 2300 2841 2188 
z
M 1259 4147 
L 1259 2491 
L 2053 2491 
Q 2509 2491 2742 2702 
Q 2975 2913 2975 3322 
Q 2975 3731 2742 3939 
Q 2509 4147 2053 4147 
L 1259 4147 
z
" transform="scale(0.015625)"/>
       <path id="DejaVuSans-65" d="M 3597 1894 
L 3597 1613 
L 953 1613 
Q 991 1019 1311 708 
Q 1631 397 2203 397 
Q 2534 397 2845 478 
Q 3156 559 3463 722 
L 3463 178 
Q 3153 47 2828 -22 
Q 2503 -91 2169 -91 
Q 1331 -91 842 396 
Q 353 884 353 1716 
Q 353 2575 817 3079 
Q 1281 3584 2069 3584 
Q 2775 3584 3186 3129 
Q 3597 2675 3597 1894 
z
M 3022 2063 
Q 3016 2534 2758 2815 
Q 2500 3097 2075 3097 
Q 1594 3097 1305 2825 
Q 1016 2553 972 2059 
L 3022 2063 
z
" transform="scale(0.015625)"/>
       <path id="DejaVuSans-28" d="M 1984 4856 
Q 1566 4138 1362 3434 
Q 1159 2731 1159 2009 
Q 1159 1288 1364 580 
Q 1569 -128 1984 -844 
L 1484 -844 
Q 1016 -109 783 600 
Q 550 1309 550 2009 
Q 550 2706 781 3412 
Q 1013 4119 1484 4856 
L 1984 4856 
z
" transform="scale(0.015625)"/>
       <path id="DejaVuSans-Oblique-53" d="M 3859 4513 
L 3738 3897 
Q 3422 4066 3111 4152 
Q 2800 4238 2509 4238 
Q 1944 4238 1609 3991 
Q 1275 3744 1275 3334 
Q 1275 3109 1398 2989 
Q 1522 2869 2034 2731 
L 2413 2638 
Q 3053 2472 3303 2217 
Q 3553 1963 3553 1503 
Q 3553 797 2998 353 
Q 2444 -91 1538 -91 
Q 1166 -91 791 -17 
Q 416 56 38 206 
L 166 856 
Q 513 641 861 531 
Q 1209 422 1556 422 
Q 2147 422 2503 684 
Q 2859 947 2859 1369 
Q 2859 1650 2717 1795 
Q 2575 1941 2106 2059 
L 1728 2156 
Q 1081 2325 845 2545 
Q 609 2766 609 3163 
Q 609 3859 1145 4304 
Q 1681 4750 2541 4750 
Q 2875 4750 3203 4690 
Q 3531 4631 3859 4513 
z
" transform="scale(0.015625)"/>
       <path id="DejaVuSans-32" d="M 1228 531 
L 3431 531 
L 3431 0 
L 469 0 
L 469 531 
Q 828 903 1448 1529 
Q 2069 2156 2228 2338 
Q 2531 2678 2651 2914 
Q 2772 3150 2772 3378 
Q 2772 3750 2511 3984 
Q 2250 4219 1831 4219 
Q 1534 4219 1204 4116 
Q 875 4013 500 3803 
L 500 4441 
Q 881 4594 1212 4672 
Q 1544 4750 1819 4750 
Q 2544 4750 2975 4387 
Q 3406 4025 3406 3419 
Q 3406 3131 3298 2873 
Q 3191 2616 2906 2266 
Q 2828 2175 2409 1742 
Q 1991 1309 1228 531 
z
" transform="scale(0.015625)"/>
       <path id="DejaVuSans-29" d="M 513 4856 
L 1013 4856 
Q 1481 4119 1714 3412 
Q 1947 2706 1947 2009 
Q 1947 1309 1714 600 
Q 1481 -109 1013 -844 
L 513 -844 
Q 928 -128 1133 580 
Q 1338 1288 1338 2009 
Q 1338 2731 1133 3434 
Q 928 4138 513 4856 
z
" transform="scale(0.015625)"/>
       <path id="DejaVuSans-20" transform="scale(0.015625)"/>
       <path id="DejaVuSans-5b" d="M 550 4863 
L 1875 4863 
L 1875 4416 
L 1125 4416 
L 1125 -397 
L 1875 -397 
L 1875 -844 
L 550 -844 
L 550 4863 
z
" transform="scale(0.015625)"/>
       <path id="DejaVuSans-6d" d="M 3328 2828 
Q 3544 3216 3844 3400 
Q 4144 3584 4550 3584 
Q 5097 3584 5394 3201 
Q 5691 2819 5691 2113 
L 5691 0 
L 5113 0 
L 5113 2094 
Q 5113 2597 4934 2840 
Q 4756 3084 4391 3084 
Q 3944 3084 3684 2787 
Q 3425 2491 3425 1978 
L 3425 0 
L 2847 0 
L 2847 2094 
Q 2847 2600 2669 2842 
Q 2491 3084 2119 3084 
Q 1678 3084 1418 2786 
Q 1159 2488 1159 1978 
L 1159 0 
L 581 0 
L 581 3500 
L 1159 3500 
L 1159 2956 
Q 1356 3278 1631 3431 
Q 1906 3584 2284 3584 
Q 2666 3584 2933 3390 
Q 3200 3197 3328 2828 
z
" transform="scale(0.015625)"/>
       <path id="DejaVuSans-56" d="M 1831 0 
L 50 4666 
L 709 4666 
L 2188 738 
L 3669 4666 
L 4325 4666 
L 2547 0 
L 1831 0 
z
" transform="scale(0.015625)"/>
       <path id="DejaVuSans-5d" d="M 1947 4863 
L 1947 -844 
L 622 -844 
L 622 -397 
L 1369 -397 
L 1369 4416 
L 622 4416 
L 622 4863 
L 1947 4863 
z
" transform="scale(0.015625)"/>
      </defs>
      <use xlink:href="#DejaVuSans-52" transform="translate(0 0.015625)"/>
      <use xlink:href="#DejaVuSans-65" transform="translate(69.482422 0.015625)"/>
      <use xlink:href="#DejaVuSans-28" transform="translate(131.005859 0.015625)"/>
      <use xlink:href="#DejaVuSans-Oblique-53" transform="translate(170.019531 0.015625)"/>
      <use xlink:href="#DejaVuSans-32" transform="translate(233.496094 -16.390625) scale(0.7)"/>
      <use xlink:href="#DejaVuSans-31" transform="translate(278.032227 -16.390625) scale(0.7)"/>
      <use xlink:href="#DejaVuSans-29" transform="translate(325.302734 0.015625)"/>
      <use xlink:href="#DejaVuSans-20" transform="translate(364.316406 0.015625)"/>
      <use xlink:href="#DejaVuSans-5b" transform="translate(396.103516 0.015625)"/>
      <use xlink:href="#DejaVuSans-6d" transform="translate(435.117188 0.015625)"/>
      <use xlink:href="#DejaVuSans-56" transform="translate(532.529297 0.015625)"/>
      <use xlink:href="#DejaVuSans-5d" transform="translate(600.9375 0.015625)"/>
     </g>
    </g>
   </g>
   <g id="matplotlib.axis_2">
    <g id="ytick_1">
     <g id="line2d_6">
      <defs>
       <path id="mcc03a46561" d="M 0 0 
L -3.5 0 
" style="stroke: #000000; stroke-width: 0.8"/>
      </defs>
      <g>
       <use xlink:href="#mcc03a46561" x="44.210938" y="284.383183" style="stroke: #000000; stroke-width: 0.8"/>
      </g>
     </g>
     <g id="text_7">
      <!-- -10 -->
      <g transform="translate(20.878125 288.182402) scale(0.1 -0.1)">
       <use xlink:href="#DejaVuSans-2d"/>
       <use xlink:href="#DejaVuSans-31" x="36.083984"/>
       <use xlink:href="#DejaVuSans-30" x="99.707031"/>
      </g>
     </g>
    </g>
    <g id="ytick_2">
     <g id="line2d_7">
      <g>
       <use xlink:href="#mcc03a46561" x="44.210938" y="253.133631" style="stroke: #000000; stroke-width: 0.8"/>
      </g>
     </g>
     <g id="text_8">
      <!-- -8 -->
      <g transform="translate(27.240625 256.93285) scale(0.1 -0.1)">
       <defs>
        <path id="DejaVuSans-38" d="M 2034 2216 
Q 1584 2216 1326 1975 
Q 1069 1734 1069 1313 
Q 1069 891 1326 650 
Q 1584 409 2034 409 
Q 2484 409 2743 651 
Q 3003 894 3003 1313 
Q 3003 1734 2745 1975 
Q 2488 2216 2034 2216 
z
M 1403 2484 
Q 997 2584 770 2862 
Q 544 3141 544 3541 
Q 544 4100 942 4425 
Q 1341 4750 2034 4750 
Q 2731 4750 3128 4425 
Q 3525 4100 3525 3541 
Q 3525 3141 3298 2862 
Q 3072 2584 2669 2484 
Q 3125 2378 3379 2068 
Q 3634 1759 3634 1313 
Q 3634 634 3220 271 
Q 2806 -91 2034 -91 
Q 1263 -91 848 271 
Q 434 634 434 1313 
Q 434 1759 690 2068 
Q 947 2378 1403 2484 
z
M 1172 3481 
Q 1172 3119 1398 2916 
Q 1625 2713 2034 2713 
Q 2441 2713 2670 2916 
Q 2900 3119 2900 3481 
Q 2900 3844 2670 4047 
Q 2441 4250 2034 4250 
Q 1625 4250 1398 4047 
Q 1172 3844 1172 3481 
z
" transform="scale(0.015625)"/>
       </defs>
       <use xlink:href="#DejaVuSans-2d"/>
       <use xlink:href="#DejaVuSans-38" x="36.083984"/>
      </g>
     </g>
    </g>
    <g id="ytick_3">
     <g id="line2d_8">
      <g>
       <use xlink:href="#mcc03a46561" x="44.210938" y="221.88408" style="stroke: #000000; stroke-width: 0.8"/>
      </g>
     </g>
     <g id="text_9">
      <!-- -6 -->
      <g transform="translate(27.240625 225.683298) scale(0.1 -0.1)">
       <defs>
        <path id="DejaVuSans-36" d="M 2113 2584 
Q 1688 2584 1439 2293 
Q 1191 2003 1191 1497 
Q 1191 994 1439 701 
Q 1688 409 2113 409 
Q 2538 409 2786 701 
Q 3034 994 3034 1497 
Q 3034 2003 2786 2293 
Q 2538 2584 2113 2584 
z
M 3366 4563 
L 3366 3988 
Q 3128 4100 2886 4159 
Q 2644 4219 2406 4219 
Q 1781 4219 1451 3797 
Q 1122 3375 1075 2522 
Q 1259 2794 1537 2939 
Q 1816 3084 2150 3084 
Q 2853 3084 3261 2657 
Q 3669 2231 3669 1497 
Q 3669 778 3244 343 
Q 2819 -91 2113 -91 
Q 1303 -91 875 529 
Q 447 1150 447 2328 
Q 447 3434 972 4092 
Q 1497 4750 2381 4750 
Q 2619 4750 2861 4703 
Q 3103 4656 3366 4563 
z
" transform="scale(0.015625)"/>
       </defs>
       <use xlink:href="#DejaVuSans-2d"/>
       <use xlink:href="#DejaVuSans-36" x="36.083984"/>
      </g>
     </g>
    </g>
    <g id="ytick_4">
     <g id="line2d_9">
      <g>
       <use xlink:href="#mcc03a46561" x="44.210938" y="190.634528" style="stroke: #000000; stroke-width: 0.8"/>
      </g>
     </g>
     <g id="text_10">
      <!-- -4 -->
      <g transform="translate(27.240625 194.433747) scale(0.1 -0.1)">
       <defs>
        <path id="DejaVuSans-34" d="M 2419 4116 
L 825 1625 
L 2419 1625 
L 2419 4116 
z
M 2253 4666 
L 3047 4666 
L 3047 1625 
L 3713 1625 
L 3713 1100 
L 3047 1100 
L 3047 0 
L 2419 0 
L 2419 1100 
L 313 1100 
L 313 1709 
L 2253 4666 
z
" transform="scale(0.015625)"/>
       </defs>
       <use xlink:href="#DejaVuSans-2d"/>
       <use xlink:href="#DejaVuSans-34" x="36.083984"/>
      </g>
     </g>
    </g>
    <g id="ytick_5">
     <g id="line2d_10">
      <g>
       <use xlink:href="#mcc03a46561" x="44.210938" y="159.384976" style="stroke: #000000; stroke-width: 0.8"/>
      </g>
     </g>
     <g id="text_11">
      <!-- -2 -->
      <g transform="translate(27.240625 163.184195) scale(0.1 -0.1)">
       <use xlink:href="#DejaVuSans-2d"/>
       <use xlink:href="#DejaVuSans-32" x="36.083984"/>
      </g>
     </g>
    </g>
    <g id="ytick_6">
     <g id="line2d_11">
      <g>
       <use xlink:href="#mcc03a46561" x="44.210938" y="128.135425" style="stroke: #000000; stroke-width: 0.8"/>
      </g>
     </g>
     <g id="text_12">
      <!-- 0 -->
      <g transform="translate(30.848437 131.934644) scale(0.1 -0.1)">
       <use xlink:href="#DejaVuSans-30"/>
      </g>
     </g>
    </g>
    <g id="ytick_7">
     <g id="line2d_12">
      <g>
       <use xlink:href="#mcc03a46561" x="44.210938" y="96.885873" style="stroke: #000000; stroke-width: 0.8"/>
      </g>
     </g>
     <g id="text_13">
      <!-- 2 -->
      <g transform="translate(30.848437 100.685092) scale(0.1 -0.1)">
       <use xlink:href="#DejaVuSans-32"/>
      </g>
     </g>
    </g>
    <g id="ytick_8">
     <g id="line2d_13">
      <g>
       <use xlink:href="#mcc03a46561" x="44.210938" y="65.636321" style="stroke: #000000; stroke-width: 0.8"/>
      </g>
     </g>
     <g id="text_14">
      <!-- 4 -->
      <g transform="translate(30.848437 69.43554) scale(0.1 -0.1)">
       <use xlink:href="#DejaVuSans-34"/>
      </g>
     </g>
    </g>
    <g id="text_15">
     <!-- Im$(S_{21})$ [mV] -->
     <g transform="translate(14.798437 206.466) rotate(-90) scale(0.1 -0.1)">
      <defs>
       <path id="DejaVuSans-49" d="M 628 4666 
L 1259 4666 
L 1259 0 
L 628 0 
L 628 4666 
z
" transform="scale(0.015625)"/>
      </defs>
      <use xlink:href="#DejaVuSans-49" transform="translate(0 0.015625)"/>
      <use xlink:href="#DejaVuSans-6d" transform="translate(25.867188 0.015625)"/>
      <use xlink:href="#DejaVuSans-28" transform="translate(123.279297 0.015625)"/>
      <use xlink:href="#DejaVuSans-Oblique-53" transform="translate(162.292969 0.015625)"/>
      <use xlink:href="#DejaVuSans-32" transform="translate(225.769531 -16.390625) scale(0.7)"/>
      <use xlink:href="#DejaVuSans-31" transform="translate(270.305664 -16.390625) scale(0.7)"/>
      <use xlink:href="#DejaVuSans-29" transform="translate(317.576172 0.015625)"/>
      <use xlink:href="#DejaVuSans-20" transform="translate(356.589844 0.015625)"/>
      <use xlink:href="#DejaVuSans-5b" transform="translate(388.376953 0.015625)"/>
      <use xlink:href="#DejaVuSans-6d" transform="translate(427.390625 0.015625)"/>
      <use xlink:href="#DejaVuSans-56" transform="translate(524.802734 0.015625)"/>
      <use xlink:href="#DejaVuSans-5d" transform="translate(593.210938 0.015625)"/>
     </g>
    </g>
   </g>
   <g id="line2d_14">
    <path d="M 385.09821 147.12971 
L 383.050771 156.412567 
L 382.938334 158.831942 
L 381.396896 164.667399 
L 380.506033 168.540523 
L 379.352205 170.991055 
L 378.282629 173.955568 
L 378.199932 177.343557 
L 376.030287 180.14427 
L 374.970262 182.884548 
L 373.90546 186.61361 
L 372.749632 188.640205 
L 372.181758 191.273423 
L 371.075049 194.771136 
L 369.684236 196.855357 
L 369.130128 200.280491 
L 366.896891 202.385512 
L 365.994479 206.033252 
L 363.17854 208.221049 
L 362.758591 211.265934 
L 361.180107 214.157185 
L 359.143447 215.72588 
L 357.078234 218.846156 
L 355.3868 221.901758 
L 354.608494 224.751257 
L 352.715317 226.241957 
L 349.603977 231.393828 
L 346.112056 235.542321 
L 345.301836 236.754584 
L 342.891512 239.392546 
L 340.841945 241.899505 
L 339.091975 243.535813 
L 337.415175 246.604154 
L 334.852529 248.435157 
L 333.060734 250.703418 
L 330.438744 253.513103 
L 329.24087 255.303479 
L 326.796068 257.800459 
L 324.343653 260.036947 
L 322.394119 261.532158 
L 320.197211 264.913148 
L 317.291323 266.931953 
L 314.151134 269.385024 
L 311.087425 270.323037 
L 307.578968 272.368261 
L 304.852679 272.701591 
L 302.239538 274.408523 
L 299.767776 276.546663 
L 298.543335 277.038649 
L 295.037798 278.968702 
L 292.780996 279.911639 
L 289.310371 280.49269 
L 286.661589 281.568769 
L 284.036136 282.83559 
L 281.978805 284.417722 
L 280.121052 285.447885 
L 276.298735 285.735967 
L 273.349628 286.387124 
L 271.181257 287.589231 
L 267.517637 287.934686 
L 264.940338 288.80038 
L 262.37638 290.585982 
L 259.718192 290.861988 
L 256.651424 291.404665 
L 253.702829 291.672691 
L 251.003728 292.574512 
L 244.844291 293.475837 
L 241.532021 292.877355 
L 239.423462 294.036386 
L 236.342543 293.757873 
L 232.725077 294.065682 
L 229.659943 294.475372 
L 226.21977 294.164094 
L 224.237264 294.81835 
L 220.374054 293.378031 
L 217.99251 294.639402 
L 215.147252 292.932054 
L 211.834927 293.572414 
L 208.778549 292.912093 
L 205.800512 293.373047 
L 199.935743 292.515379 
L 195.492538 292.240781 
L 192.590535 291.60215 
L 189.529031 290.430292 
L 184.95898 290.414366 
L 179.563298 287.266092 
L 176.870276 287.078907 
L 172.862419 287.179758 
L 170.266129 285.245133 
L 166.842521 285.075009 
L 163.961824 284.203139 
L 159.887292 282.246798 
L 156.962037 281.76293 
L 153.988487 280.296682 
L 147.181515 276.610193 
L 143.650869 275.815638 
L 140.296816 273.835188 
L 138.168629 271.66323 
L 134.159897 270.736025 
L 130.543657 268.90653 
L 126.710925 266.53338 
L 123.075109 264.07115 
L 120.106015 261.283253 
L 117.594462 257.830354 
L 113.742561 255.818162 
L 109.948307 253.411687 
L 107.245568 249.910123 
L 103.309898 245.746509 
L 99.050749 242.32134 
L 92.63329 232.988509 
L 89.551425 227.599256 
L 84.965409 221.718627 
L 83.056036 215.002625 
L 79.402877 207.3486 
L 77.833523 198.248553 
L 76.088881 187.256909 
L 75.586763 174.898673 
L 77.483466 160.289004 
L 84.651613 143.877253 
L 97.736404 126.002666 
L 117.753072 111.618682 
L 146.837107 105.232763 
L 179.959109 113.905536 
L 205.65317 136.153564 
L 216.625457 167.077347 
L 212.793502 195.713786 
L 203.704574 215.631269 
L 189.685032 229.863295 
L 176.216494 238.024485 
L 163.876687 242.268787 
L 152.858111 242.91531 
L 142.726062 242.858235 
L 134.945471 240.591085 
L 128.107252 239.195854 
L 120.915382 236.613999 
L 115.350184 233.559226 
L 111.233079 230.290362 
L 106.135023 227.678918 
L 101.646116 224.124323 
L 97.631889 221.477713 
L 95.321754 217.330851 
L 91.833127 213.761608 
L 88.806707 210.870632 
L 86.346408 208.055409 
L 81.262331 200.843682 
L 80.162628 196.683408 
L 77.879184 192.949926 
L 76.129539 189.12879 
L 74.204673 186.396928 
L 72.322155 182.783223 
L 69.570596 171.117374 
L 66.633217 169.32878 
L 65.427717 164.155414 
L 65.743277 161.257343 
L 63.724548 158.352089 
L 64.140118 154.712814 
L 62.833931 150.065149 
L 61.8963 143.640278 
L 61.884681 139.874856 
L 60.79127 136.486203 
L 61.608638 133.602642 
L 60.619189 129.298677 
L 60.776427 125.736636 
L 60.728191 123.417525 
L 60.443665 119.889944 
L 60.98056 116.119155 
L 60.487654 113.223538 
L 61.6818 106.598316 
L 61.328389 103.186928 
L 62.709619 100.50473 
L 62.921674 97.572627 
L 65.137486 85.756193 
L 66.935221 81.305514 
L 67.70639 78.840417 
L 68.074416 76.248853 
L 69.251622 73.392225 
L 70.750969 70.571484 
L 71.147439 67.674275 
L 72.403942 64.30612 
L 73.464471 62.277647 
L 74.815127 58.843811 
L 77.212874 56.59037 
L 78.310962 53.856 
L 78.310962 53.856 
" clip-path="url(#p7130f8bccb)" style="fill: none; stroke: #1f77b4; stroke-width: 1.5; stroke-linecap: square"/>
    <defs>
     <path id="m43e2d54cdd" d="M 0 1.5 
C 0.397805 1.5 0.77937 1.341951 1.06066 1.06066 
C 1.341951 0.77937 1.5 0.397805 1.5 0 
C 1.5 -0.397805 1.341951 -0.77937 1.06066 -1.06066 
C 0.77937 -1.341951 0.397805 -1.5 0 -1.5 
C -0.397805 -1.5 -0.77937 -1.341951 -1.06066 -1.06066 
C -1.341951 -0.77937 -1.5 -0.397805 -1.5 0 
C -1.5 0.397805 -1.341951 0.77937 -1.06066 1.06066 
C -0.77937 1.341951 -0.397805 1.5 0 1.5 
z
" style="stroke: #1f77b4"/>
    </defs>
    <g clip-path="url(#p7130f8bccb)">
     <use xlink:href="#m43e2d54cdd" x="385.09821" y="147.12971" style="fill: #1f77b4; stroke: #1f77b4"/>
     <use xlink:href="#m43e2d54cdd" x="384.428087" y="150.016011" style="fill: #1f77b4; stroke: #1f77b4"/>
     <use xlink:href="#m43e2d54cdd" x="383.566423" y="153.660004" style="fill: #1f77b4; stroke: #1f77b4"/>
     <use xlink:href="#m43e2d54cdd" x="383.050771" y="156.412567" style="fill: #1f77b4; stroke: #1f77b4"/>
     <use xlink:href="#m43e2d54cdd" x="382.938334" y="158.831942" style="fill: #1f77b4; stroke: #1f77b4"/>
     <use xlink:href="#m43e2d54cdd" x="382.003548" y="162.131155" style="fill: #1f77b4; stroke: #1f77b4"/>
     <use xlink:href="#m43e2d54cdd" x="381.396896" y="164.667399" style="fill: #1f77b4; stroke: #1f77b4"/>
     <use xlink:href="#m43e2d54cdd" x="380.506033" y="168.540523" style="fill: #1f77b4; stroke: #1f77b4"/>
     <use xlink:href="#m43e2d54cdd" x="379.352205" y="170.991055" style="fill: #1f77b4; stroke: #1f77b4"/>
     <use xlink:href="#m43e2d54cdd" x="378.282629" y="173.955568" style="fill: #1f77b4; stroke: #1f77b4"/>
     <use xlink:href="#m43e2d54cdd" x="378.199932" y="177.343557" style="fill: #1f77b4; stroke: #1f77b4"/>
     <use xlink:href="#m43e2d54cdd" x="376.030287" y="180.14427" style="fill: #1f77b4; stroke: #1f77b4"/>
     <use xlink:href="#m43e2d54cdd" x="374.970262" y="182.884548" style="fill: #1f77b4; stroke: #1f77b4"/>
     <use xlink:href="#m43e2d54cdd" x="373.90546" y="186.61361" style="fill: #1f77b4; stroke: #1f77b4"/>
     <use xlink:href="#m43e2d54cdd" x="372.749632" y="188.640205" style="fill: #1f77b4; stroke: #1f77b4"/>
     <use xlink:href="#m43e2d54cdd" x="372.181758" y="191.273423" style="fill: #1f77b4; stroke: #1f77b4"/>
     <use xlink:href="#m43e2d54cdd" x="371.075049" y="194.771136" style="fill: #1f77b4; stroke: #1f77b4"/>
     <use xlink:href="#m43e2d54cdd" x="369.684236" y="196.855357" style="fill: #1f77b4; stroke: #1f77b4"/>
     <use xlink:href="#m43e2d54cdd" x="369.130128" y="200.280491" style="fill: #1f77b4; stroke: #1f77b4"/>
     <use xlink:href="#m43e2d54cdd" x="366.896891" y="202.385512" style="fill: #1f77b4; stroke: #1f77b4"/>
     <use xlink:href="#m43e2d54cdd" x="365.994479" y="206.033252" style="fill: #1f77b4; stroke: #1f77b4"/>
     <use xlink:href="#m43e2d54cdd" x="363.17854" y="208.221049" style="fill: #1f77b4; stroke: #1f77b4"/>
     <use xlink:href="#m43e2d54cdd" x="362.758591" y="211.265934" style="fill: #1f77b4; stroke: #1f77b4"/>
     <use xlink:href="#m43e2d54cdd" x="361.180107" y="214.157185" style="fill: #1f77b4; stroke: #1f77b4"/>
     <use xlink:href="#m43e2d54cdd" x="359.143447" y="215.72588" style="fill: #1f77b4; stroke: #1f77b4"/>
     <use xlink:href="#m43e2d54cdd" x="357.078234" y="218.846156" style="fill: #1f77b4; stroke: #1f77b4"/>
     <use xlink:href="#m43e2d54cdd" x="355.3868" y="221.901758" style="fill: #1f77b4; stroke: #1f77b4"/>
     <use xlink:href="#m43e2d54cdd" x="354.608494" y="224.751257" style="fill: #1f77b4; stroke: #1f77b4"/>
     <use xlink:href="#m43e2d54cdd" x="352.715317" y="226.241957" style="fill: #1f77b4; stroke: #1f77b4"/>
     <use xlink:href="#m43e2d54cdd" x="350.604817" y="229.794315" style="fill: #1f77b4; stroke: #1f77b4"/>
     <use xlink:href="#m43e2d54cdd" x="349.603977" y="231.393828" style="fill: #1f77b4; stroke: #1f77b4"/>
     <use xlink:href="#m43e2d54cdd" x="346.112056" y="235.542321" style="fill: #1f77b4; stroke: #1f77b4"/>
     <use xlink:href="#m43e2d54cdd" x="345.301836" y="236.754584" style="fill: #1f77b4; stroke: #1f77b4"/>
     <use xlink:href="#m43e2d54cdd" x="342.891512" y="239.392546" style="fill: #1f77b4; stroke: #1f77b4"/>
     <use xlink:href="#m43e2d54cdd" x="340.841945" y="241.899505" style="fill: #1f77b4; stroke: #1f77b4"/>
     <use xlink:href="#m43e2d54cdd" x="339.091975" y="243.535813" style="fill: #1f77b4; stroke: #1f77b4"/>
     <use xlink:href="#m43e2d54cdd" x="337.415175" y="246.604154" style="fill: #1f77b4; stroke: #1f77b4"/>
     <use xlink:href="#m43e2d54cdd" x="334.852529" y="248.435157" style="fill: #1f77b4; stroke: #1f77b4"/>
     <use xlink:href="#m43e2d54cdd" x="333.060734" y="250.703418" style="fill: #1f77b4; stroke: #1f77b4"/>
     <use xlink:href="#m43e2d54cdd" x="330.438744" y="253.513103" style="fill: #1f77b4; stroke: #1f77b4"/>
     <use xlink:href="#m43e2d54cdd" x="329.24087" y="255.303479" style="fill: #1f77b4; stroke: #1f77b4"/>
     <use xlink:href="#m43e2d54cdd" x="326.796068" y="257.800459" style="fill: #1f77b4; stroke: #1f77b4"/>
     <use xlink:href="#m43e2d54cdd" x="324.343653" y="260.036947" style="fill: #1f77b4; stroke: #1f77b4"/>
     <use xlink:href="#m43e2d54cdd" x="322.394119" y="261.532158" style="fill: #1f77b4; stroke: #1f77b4"/>
     <use xlink:href="#m43e2d54cdd" x="320.197211" y="264.913148" style="fill: #1f77b4; stroke: #1f77b4"/>
     <use xlink:href="#m43e2d54cdd" x="317.291323" y="266.931953" style="fill: #1f77b4; stroke: #1f77b4"/>
     <use xlink:href="#m43e2d54cdd" x="314.151134" y="269.385024" style="fill: #1f77b4; stroke: #1f77b4"/>
     <use xlink:href="#m43e2d54cdd" x="311.087425" y="270.323037" style="fill: #1f77b4; stroke: #1f77b4"/>
     <use xlink:href="#m43e2d54cdd" x="307.578968" y="272.368261" style="fill: #1f77b4; stroke: #1f77b4"/>
     <use xlink:href="#m43e2d54cdd" x="304.852679" y="272.701591" style="fill: #1f77b4; stroke: #1f77b4"/>
     <use xlink:href="#m43e2d54cdd" x="302.239538" y="274.408523" style="fill: #1f77b4; stroke: #1f77b4"/>
     <use xlink:href="#m43e2d54cdd" x="299.767776" y="276.546663" style="fill: #1f77b4; stroke: #1f77b4"/>
     <use xlink:href="#m43e2d54cdd" x="298.543335" y="277.038649" style="fill: #1f77b4; stroke: #1f77b4"/>
     <use xlink:href="#m43e2d54cdd" x="295.037798" y="278.968702" style="fill: #1f77b4; stroke: #1f77b4"/>
     <use xlink:href="#m43e2d54cdd" x="292.780996" y="279.911639" style="fill: #1f77b4; stroke: #1f77b4"/>
     <use xlink:href="#m43e2d54cdd" x="289.310371" y="280.49269" style="fill: #1f77b4; stroke: #1f77b4"/>
     <use xlink:href="#m43e2d54cdd" x="286.661589" y="281.568769" style="fill: #1f77b4; stroke: #1f77b4"/>
     <use xlink:href="#m43e2d54cdd" x="284.036136" y="282.83559" style="fill: #1f77b4; stroke: #1f77b4"/>
     <use xlink:href="#m43e2d54cdd" x="281.978805" y="284.417722" style="fill: #1f77b4; stroke: #1f77b4"/>
     <use xlink:href="#m43e2d54cdd" x="280.121052" y="285.447885" style="fill: #1f77b4; stroke: #1f77b4"/>
     <use xlink:href="#m43e2d54cdd" x="276.298735" y="285.735967" style="fill: #1f77b4; stroke: #1f77b4"/>
     <use xlink:href="#m43e2d54cdd" x="273.349628" y="286.387124" style="fill: #1f77b4; stroke: #1f77b4"/>
     <use xlink:href="#m43e2d54cdd" x="271.181257" y="287.589231" style="fill: #1f77b4; stroke: #1f77b4"/>
     <use xlink:href="#m43e2d54cdd" x="267.517637" y="287.934686" style="fill: #1f77b4; stroke: #1f77b4"/>
     <use xlink:href="#m43e2d54cdd" x="264.940338" y="288.80038" style="fill: #1f77b4; stroke: #1f77b4"/>
     <use xlink:href="#m43e2d54cdd" x="262.37638" y="290.585982" style="fill: #1f77b4; stroke: #1f77b4"/>
     <use xlink:href="#m43e2d54cdd" x="259.718192" y="290.861988" style="fill: #1f77b4; stroke: #1f77b4"/>
     <use xlink:href="#m43e2d54cdd" x="256.651424" y="291.404665" style="fill: #1f77b4; stroke: #1f77b4"/>
     <use xlink:href="#m43e2d54cdd" x="253.702829" y="291.672691" style="fill: #1f77b4; stroke: #1f77b4"/>
     <use xlink:href="#m43e2d54cdd" x="251.003728" y="292.574512" style="fill: #1f77b4; stroke: #1f77b4"/>
     <use xlink:href="#m43e2d54cdd" x="247.936556" y="293.005483" style="fill: #1f77b4; stroke: #1f77b4"/>
     <use xlink:href="#m43e2d54cdd" x="244.844291" y="293.475837" style="fill: #1f77b4; stroke: #1f77b4"/>
     <use xlink:href="#m43e2d54cdd" x="241.532021" y="292.877355" style="fill: #1f77b4; stroke: #1f77b4"/>
     <use xlink:href="#m43e2d54cdd" x="239.423462" y="294.036386" style="fill: #1f77b4; stroke: #1f77b4"/>
     <use xlink:href="#m43e2d54cdd" x="236.342543" y="293.757873" style="fill: #1f77b4; stroke: #1f77b4"/>
     <use xlink:href="#m43e2d54cdd" x="232.725077" y="294.065682" style="fill: #1f77b4; stroke: #1f77b4"/>
     <use xlink:href="#m43e2d54cdd" x="229.659943" y="294.475372" style="fill: #1f77b4; stroke: #1f77b4"/>
     <use xlink:href="#m43e2d54cdd" x="226.21977" y="294.164094" style="fill: #1f77b4; stroke: #1f77b4"/>
     <use xlink:href="#m43e2d54cdd" x="224.237264" y="294.81835" style="fill: #1f77b4; stroke: #1f77b4"/>
     <use xlink:href="#m43e2d54cdd" x="220.374054" y="293.378031" style="fill: #1f77b4; stroke: #1f77b4"/>
     <use xlink:href="#m43e2d54cdd" x="217.99251" y="294.639402" style="fill: #1f77b4; stroke: #1f77b4"/>
     <use xlink:href="#m43e2d54cdd" x="215.147252" y="292.932054" style="fill: #1f77b4; stroke: #1f77b4"/>
     <use xlink:href="#m43e2d54cdd" x="211.834927" y="293.572414" style="fill: #1f77b4; stroke: #1f77b4"/>
     <use xlink:href="#m43e2d54cdd" x="208.778549" y="292.912093" style="fill: #1f77b4; stroke: #1f77b4"/>
     <use xlink:href="#m43e2d54cdd" x="205.800512" y="293.373047" style="fill: #1f77b4; stroke: #1f77b4"/>
     <use xlink:href="#m43e2d54cdd" x="201.589117" y="292.830992" style="fill: #1f77b4; stroke: #1f77b4"/>
     <use xlink:href="#m43e2d54cdd" x="199.935743" y="292.515379" style="fill: #1f77b4; stroke: #1f77b4"/>
     <use xlink:href="#m43e2d54cdd" x="195.492538" y="292.240781" style="fill: #1f77b4; stroke: #1f77b4"/>
     <use xlink:href="#m43e2d54cdd" x="192.590535" y="291.60215" style="fill: #1f77b4; stroke: #1f77b4"/>
     <use xlink:href="#m43e2d54cdd" x="189.529031" y="290.430292" style="fill: #1f77b4; stroke: #1f77b4"/>
     <use xlink:href="#m43e2d54cdd" x="184.95898" y="290.414366" style="fill: #1f77b4; stroke: #1f77b4"/>
     <use xlink:href="#m43e2d54cdd" x="182.855131" y="289.17423" style="fill: #1f77b4; stroke: #1f77b4"/>
     <use xlink:href="#m43e2d54cdd" x="179.563298" y="287.266092" style="fill: #1f77b4; stroke: #1f77b4"/>
     <use xlink:href="#m43e2d54cdd" x="176.870276" y="287.078907" style="fill: #1f77b4; stroke: #1f77b4"/>
     <use xlink:href="#m43e2d54cdd" x="172.862419" y="287.179758" style="fill: #1f77b4; stroke: #1f77b4"/>
     <use xlink:href="#m43e2d54cdd" x="170.266129" y="285.245133" style="fill: #1f77b4; stroke: #1f77b4"/>
     <use xlink:href="#m43e2d54cdd" x="166.842521" y="285.075009" style="fill: #1f77b4; stroke: #1f77b4"/>
     <use xlink:href="#m43e2d54cdd" x="163.961824" y="284.203139" style="fill: #1f77b4; stroke: #1f77b4"/>
     <use xlink:href="#m43e2d54cdd" x="159.887292" y="282.246798" style="fill: #1f77b4; stroke: #1f77b4"/>
     <use xlink:href="#m43e2d54cdd" x="156.962037" y="281.76293" style="fill: #1f77b4; stroke: #1f77b4"/>
     <use xlink:href="#m43e2d54cdd" x="153.988487" y="280.296682" style="fill: #1f77b4; stroke: #1f77b4"/>
     <use xlink:href="#m43e2d54cdd" x="150.116535" y="278.216789" style="fill: #1f77b4; stroke: #1f77b4"/>
     <use xlink:href="#m43e2d54cdd" x="147.181515" y="276.610193" style="fill: #1f77b4; stroke: #1f77b4"/>
     <use xlink:href="#m43e2d54cdd" x="143.650869" y="275.815638" style="fill: #1f77b4; stroke: #1f77b4"/>
     <use xlink:href="#m43e2d54cdd" x="140.296816" y="273.835188" style="fill: #1f77b4; stroke: #1f77b4"/>
     <use xlink:href="#m43e2d54cdd" x="138.168629" y="271.66323" style="fill: #1f77b4; stroke: #1f77b4"/>
     <use xlink:href="#m43e2d54cdd" x="134.159897" y="270.736025" style="fill: #1f77b4; stroke: #1f77b4"/>
     <use xlink:href="#m43e2d54cdd" x="130.543657" y="268.90653" style="fill: #1f77b4; stroke: #1f77b4"/>
     <use xlink:href="#m43e2d54cdd" x="126.710925" y="266.53338" style="fill: #1f77b4; stroke: #1f77b4"/>
     <use xlink:href="#m43e2d54cdd" x="123.075109" y="264.07115" style="fill: #1f77b4; stroke: #1f77b4"/>
     <use xlink:href="#m43e2d54cdd" x="120.106015" y="261.283253" style="fill: #1f77b4; stroke: #1f77b4"/>
     <use xlink:href="#m43e2d54cdd" x="117.594462" y="257.830354" style="fill: #1f77b4; stroke: #1f77b4"/>
     <use xlink:href="#m43e2d54cdd" x="113.742561" y="255.818162" style="fill: #1f77b4; stroke: #1f77b4"/>
     <use xlink:href="#m43e2d54cdd" x="109.948307" y="253.411687" style="fill: #1f77b4; stroke: #1f77b4"/>
     <use xlink:href="#m43e2d54cdd" x="107.245568" y="249.910123" style="fill: #1f77b4; stroke: #1f77b4"/>
     <use xlink:href="#m43e2d54cdd" x="103.309898" y="245.746509" style="fill: #1f77b4; stroke: #1f77b4"/>
     <use xlink:href="#m43e2d54cdd" x="99.050749" y="242.32134" style="fill: #1f77b4; stroke: #1f77b4"/>
     <use xlink:href="#m43e2d54cdd" x="96.108315" y="238.041334" style="fill: #1f77b4; stroke: #1f77b4"/>
     <use xlink:href="#m43e2d54cdd" x="92.63329" y="232.988509" style="fill: #1f77b4; stroke: #1f77b4"/>
     <use xlink:href="#m43e2d54cdd" x="89.551425" y="227.599256" style="fill: #1f77b4; stroke: #1f77b4"/>
     <use xlink:href="#m43e2d54cdd" x="84.965409" y="221.718627" style="fill: #1f77b4; stroke: #1f77b4"/>
     <use xlink:href="#m43e2d54cdd" x="83.056036" y="215.002625" style="fill: #1f77b4; stroke: #1f77b4"/>
     <use xlink:href="#m43e2d54cdd" x="79.402877" y="207.3486" style="fill: #1f77b4; stroke: #1f77b4"/>
     <use xlink:href="#m43e2d54cdd" x="77.833523" y="198.248553" style="fill: #1f77b4; stroke: #1f77b4"/>
     <use xlink:href="#m43e2d54cdd" x="76.088881" y="187.256909" style="fill: #1f77b4; stroke: #1f77b4"/>
     <use xlink:href="#m43e2d54cdd" x="75.586763" y="174.898673" style="fill: #1f77b4; stroke: #1f77b4"/>
     <use xlink:href="#m43e2d54cdd" x="77.483466" y="160.289004" style="fill: #1f77b4; stroke: #1f77b4"/>
     <use xlink:href="#m43e2d54cdd" x="84.651613" y="143.877253" style="fill: #1f77b4; stroke: #1f77b4"/>
     <use xlink:href="#m43e2d54cdd" x="97.736404" y="126.002666" style="fill: #1f77b4; stroke: #1f77b4"/>
     <use xlink:href="#m43e2d54cdd" x="117.753072" y="111.618682" style="fill: #1f77b4; stroke: #1f77b4"/>
     <use xlink:href="#m43e2d54cdd" x="146.837107" y="105.232763" style="fill: #1f77b4; stroke: #1f77b4"/>
     <use xlink:href="#m43e2d54cdd" x="179.959109" y="113.905536" style="fill: #1f77b4; stroke: #1f77b4"/>
     <use xlink:href="#m43e2d54cdd" x="205.65317" y="136.153564" style="fill: #1f77b4; stroke: #1f77b4"/>
     <use xlink:href="#m43e2d54cdd" x="216.625457" y="167.077347" style="fill: #1f77b4; stroke: #1f77b4"/>
     <use xlink:href="#m43e2d54cdd" x="212.793502" y="195.713786" style="fill: #1f77b4; stroke: #1f77b4"/>
     <use xlink:href="#m43e2d54cdd" x="203.704574" y="215.631269" style="fill: #1f77b4; stroke: #1f77b4"/>
     <use xlink:href="#m43e2d54cdd" x="189.685032" y="229.863295" style="fill: #1f77b4; stroke: #1f77b4"/>
     <use xlink:href="#m43e2d54cdd" x="176.216494" y="238.024485" style="fill: #1f77b4; stroke: #1f77b4"/>
     <use xlink:href="#m43e2d54cdd" x="163.876687" y="242.268787" style="fill: #1f77b4; stroke: #1f77b4"/>
     <use xlink:href="#m43e2d54cdd" x="152.858111" y="242.91531" style="fill: #1f77b4; stroke: #1f77b4"/>
     <use xlink:href="#m43e2d54cdd" x="142.726062" y="242.858235" style="fill: #1f77b4; stroke: #1f77b4"/>
     <use xlink:href="#m43e2d54cdd" x="134.945471" y="240.591085" style="fill: #1f77b4; stroke: #1f77b4"/>
     <use xlink:href="#m43e2d54cdd" x="128.107252" y="239.195854" style="fill: #1f77b4; stroke: #1f77b4"/>
     <use xlink:href="#m43e2d54cdd" x="120.915382" y="236.613999" style="fill: #1f77b4; stroke: #1f77b4"/>
     <use xlink:href="#m43e2d54cdd" x="115.350184" y="233.559226" style="fill: #1f77b4; stroke: #1f77b4"/>
     <use xlink:href="#m43e2d54cdd" x="111.233079" y="230.290362" style="fill: #1f77b4; stroke: #1f77b4"/>
     <use xlink:href="#m43e2d54cdd" x="106.135023" y="227.678918" style="fill: #1f77b4; stroke: #1f77b4"/>
     <use xlink:href="#m43e2d54cdd" x="101.646116" y="224.124323" style="fill: #1f77b4; stroke: #1f77b4"/>
     <use xlink:href="#m43e2d54cdd" x="97.631889" y="221.477713" style="fill: #1f77b4; stroke: #1f77b4"/>
     <use xlink:href="#m43e2d54cdd" x="95.321754" y="217.330851" style="fill: #1f77b4; stroke: #1f77b4"/>
     <use xlink:href="#m43e2d54cdd" x="91.833127" y="213.761608" style="fill: #1f77b4; stroke: #1f77b4"/>
     <use xlink:href="#m43e2d54cdd" x="88.806707" y="210.870632" style="fill: #1f77b4; stroke: #1f77b4"/>
     <use xlink:href="#m43e2d54cdd" x="86.346408" y="208.055409" style="fill: #1f77b4; stroke: #1f77b4"/>
     <use xlink:href="#m43e2d54cdd" x="83.308159" y="203.66053" style="fill: #1f77b4; stroke: #1f77b4"/>
     <use xlink:href="#m43e2d54cdd" x="81.262331" y="200.843682" style="fill: #1f77b4; stroke: #1f77b4"/>
     <use xlink:href="#m43e2d54cdd" x="80.162628" y="196.683408" style="fill: #1f77b4; stroke: #1f77b4"/>
     <use xlink:href="#m43e2d54cdd" x="77.879184" y="192.949926" style="fill: #1f77b4; stroke: #1f77b4"/>
     <use xlink:href="#m43e2d54cdd" x="76.129539" y="189.12879" style="fill: #1f77b4; stroke: #1f77b4"/>
     <use xlink:href="#m43e2d54cdd" x="74.204673" y="186.396928" style="fill: #1f77b4; stroke: #1f77b4"/>
     <use xlink:href="#m43e2d54cdd" x="72.322155" y="182.783223" style="fill: #1f77b4; stroke: #1f77b4"/>
     <use xlink:href="#m43e2d54cdd" x="71.612016" y="179.696364" style="fill: #1f77b4; stroke: #1f77b4"/>
     <use xlink:href="#m43e2d54cdd" x="70.648327" y="175.54583" style="fill: #1f77b4; stroke: #1f77b4"/>
     <use xlink:href="#m43e2d54cdd" x="69.570596" y="171.117374" style="fill: #1f77b4; stroke: #1f77b4"/>
     <use xlink:href="#m43e2d54cdd" x="66.633217" y="169.32878" style="fill: #1f77b4; stroke: #1f77b4"/>
     <use xlink:href="#m43e2d54cdd" x="65.427717" y="164.155414" style="fill: #1f77b4; stroke: #1f77b4"/>
     <use xlink:href="#m43e2d54cdd" x="65.743277" y="161.257343" style="fill: #1f77b4; stroke: #1f77b4"/>
     <use xlink:href="#m43e2d54cdd" x="63.724548" y="158.352089" style="fill: #1f77b4; stroke: #1f77b4"/>
     <use xlink:href="#m43e2d54cdd" x="64.140118" y="154.712814" style="fill: #1f77b4; stroke: #1f77b4"/>
     <use xlink:href="#m43e2d54cdd" x="62.833931" y="150.065149" style="fill: #1f77b4; stroke: #1f77b4"/>
     <use xlink:href="#m43e2d54cdd" x="62.413182" y="147.328603" style="fill: #1f77b4; stroke: #1f77b4"/>
     <use xlink:href="#m43e2d54cdd" x="61.8963" y="143.640278" style="fill: #1f77b4; stroke: #1f77b4"/>
     <use xlink:href="#m43e2d54cdd" x="61.884681" y="139.874856" style="fill: #1f77b4; stroke: #1f77b4"/>
     <use xlink:href="#m43e2d54cdd" x="60.79127" y="136.486203" style="fill: #1f77b4; stroke: #1f77b4"/>
     <use xlink:href="#m43e2d54cdd" x="61.608638" y="133.602642" style="fill: #1f77b4; stroke: #1f77b4"/>
     <use xlink:href="#m43e2d54cdd" x="60.619189" y="129.298677" style="fill: #1f77b4; stroke: #1f77b4"/>
     <use xlink:href="#m43e2d54cdd" x="60.776427" y="125.736636" style="fill: #1f77b4; stroke: #1f77b4"/>
     <use xlink:href="#m43e2d54cdd" x="60.728191" y="123.417525" style="fill: #1f77b4; stroke: #1f77b4"/>
     <use xlink:href="#m43e2d54cdd" x="60.443665" y="119.889944" style="fill: #1f77b4; stroke: #1f77b4"/>
     <use xlink:href="#m43e2d54cdd" x="60.98056" y="116.119155" style="fill: #1f77b4; stroke: #1f77b4"/>
     <use xlink:href="#m43e2d54cdd" x="60.487654" y="113.223538" style="fill: #1f77b4; stroke: #1f77b4"/>
     <use xlink:href="#m43e2d54cdd" x="61.103305" y="110.01465" style="fill: #1f77b4; stroke: #1f77b4"/>
     <use xlink:href="#m43e2d54cdd" x="61.6818" y="106.598316" style="fill: #1f77b4; stroke: #1f77b4"/>
     <use xlink:href="#m43e2d54cdd" x="61.328389" y="103.186928" style="fill: #1f77b4; stroke: #1f77b4"/>
     <use xlink:href="#m43e2d54cdd" x="62.709619" y="100.50473" style="fill: #1f77b4; stroke: #1f77b4"/>
     <use xlink:href="#m43e2d54cdd" x="62.921674" y="97.572627" style="fill: #1f77b4; stroke: #1f77b4"/>
     <use xlink:href="#m43e2d54cdd" x="63.570969" y="94.101232" style="fill: #1f77b4; stroke: #1f77b4"/>
     <use xlink:href="#m43e2d54cdd" x="64.1999" y="90.701649" style="fill: #1f77b4; stroke: #1f77b4"/>
     <use xlink:href="#m43e2d54cdd" x="64.72092" y="87.577129" style="fill: #1f77b4; stroke: #1f77b4"/>
     <use xlink:href="#m43e2d54cdd" x="65.137486" y="85.756193" style="fill: #1f77b4; stroke: #1f77b4"/>
     <use xlink:href="#m43e2d54cdd" x="66.935221" y="81.305514" style="fill: #1f77b4; stroke: #1f77b4"/>
     <use xlink:href="#m43e2d54cdd" x="67.70639" y="78.840417" style="fill: #1f77b4; stroke: #1f77b4"/>
     <use xlink:href="#m43e2d54cdd" x="68.074416" y="76.248853" style="fill: #1f77b4; stroke: #1f77b4"/>
     <use xlink:href="#m43e2d54cdd" x="69.251622" y="73.392225" style="fill: #1f77b4; stroke: #1f77b4"/>
     <use xlink:href="#m43e2d54cdd" x="70.750969" y="70.571484" style="fill: #1f77b4; stroke: #1f77b4"/>
     <use xlink:href="#m43e2d54cdd" x="71.147439" y="67.674275" style="fill: #1f77b4; stroke: #1f77b4"/>
     <use xlink:href="#m43e2d54cdd" x="72.403942" y="64.30612" style="fill: #1f77b4; stroke: #1f77b4"/>
     <use xlink:href="#m43e2d54cdd" x="73.464471" y="62.277647" style="fill: #1f77b4; stroke: #1f77b4"/>
     <use xlink:href="#m43e2d54cdd" x="74.815127" y="58.843811" style="fill: #1f77b4; stroke: #1f77b4"/>
     <use xlink:href="#m43e2d54cdd" x="77.212874" y="56.59037" style="fill: #1f77b4; stroke: #1f77b4"/>
     <use xlink:href="#m43e2d54cdd" x="78.310962" y="53.856" style="fill: #1f77b4; stroke: #1f77b4"/>
    </g>
   </g>
   <g id="line2d_15">
    <path d="M 383.382003 148.684886 
L 382.572094 154.634627 
L 381.552049 160.553732 
L 380.322883 166.434565 
L 378.885869 172.269526 
L 377.242537 178.051062 
L 375.394668 183.771675 
L 373.344295 189.423933 
L 371.093698 195.000474 
L 368.645401 200.494018 
L 366.002169 205.897376 
L 363.167001 211.203454 
L 360.143129 216.405265 
L 356.934012 221.495933 
L 353.543327 226.468705 
L 349.974969 231.31695 
L 346.23304 236.034175 
L 342.321845 240.614025 
L 338.245887 245.05029 
L 334.009852 249.336911 
L 329.618611 253.467984 
L 325.077203 257.437765 
L 320.390834 261.240672 
L 315.564859 264.871292 
L 310.604781 268.324376 
L 305.516234 271.594845 
L 300.304975 274.67779 
L 294.976871 277.568469 
L 289.537888 280.262304 
L 283.994076 282.754879 
L 278.351555 285.041931 
L 272.6165 287.119346 
L 266.795123 288.983143 
L 260.893658 290.629462 
L 254.918336 292.054549 
L 248.875371 293.25473 
L 242.770926 294.226382 
L 236.611095 294.965903 
L 230.401869 295.469665 
L 224.149101 295.733961 
L 217.858471 295.754936 
L 212.169049 295.562404 
L 206.45718 295.166265 
L 200.726446 294.563009 
L 194.980179 293.748721 
L 189.221411 292.718961 
L 183.452823 291.4686 
L 177.676682 289.991621 
L 171.89477 288.280852 
L 166.108302 286.327626 
L 160.317828 284.12132 
L 155.167224 281.937114 
L 150.012571 279.531114 
L 144.852538 276.889138 
L 139.685138 273.993458 
L 134.507715 270.82168 
L 129.966681 267.797578 
L 125.412983 264.515962 
L 120.84408 260.946037 
L 116.257796 257.048413 
L 112.312028 253.408514 
L 108.353477 249.449487 
L 105.047195 245.86911 
L 101.738443 241.992838 
L 98.434806 237.77326 
L 95.149276 233.150977 
L 92.547986 229.113476 
L 89.988873 224.723249 
L 87.497081 219.92275 
L 85.694127 216.011614 
L 83.971358 211.795818 
L 82.358054 207.235205 
L 80.893596 202.283811 
L 80.025501 198.740343 
L 79.266863 194.983343 
L 78.642248 190.994959 
L 78.18171 186.75665 
L 77.922011 182.249706 
L 77.908074 177.456096 
L 78.194671 172.359792 
L 78.848333 166.94877 
L 79.949382 161.217947 
L 80.69704 158.233928 
L 81.593901 155.173412 
L 82.654689 152.039877 
L 83.895249 148.838351 
L 85.332519 145.575721 
L 86.984456 142.261083 
L 88.869909 138.906124 
L 91.008406 135.525547 
L 93.419861 132.137527 
L 96.124155 128.76417 
L 99.140588 125.431977 
L 102.487166 122.172268 
L 106.17972 119.02153 
L 110.230835 116.021628 
L 114.648595 113.219833 
L 119.435172 110.668572 
L 124.585287 108.424821 
L 130.084643 106.549079 
L 135.908423 105.103838 
L 142.020018 104.151518 
L 148.370157 103.751892 
L 154.896633 103.959061 
L 161.524816 104.818148 
L 168.169084 106.361953 
L 174.735246 108.607859 
L 181.123903 111.555358 
L 187.234563 115.184505 
L 192.97021 119.455589 
L 198.241927 124.310138 
L 202.97312 129.673261 
L 207.102943 135.457124 
L 210.588597 141.56523 
L 213.406341 147.897075 
L 215.5512 154.352746 
L 217.035525 160.837043 
L 217.886661 167.262857 
L 218.14405 173.5536 
L 217.856073 179.644681 
L 217.076953 185.484063 
L 215.863908 191.032067 
L 214.274709 196.260584 
L 212.365719 201.151894 
L 210.190427 205.697262 
L 207.798425 209.895447 
L 205.234797 213.751242 
L 202.539827 217.27412 
L 199.748966 220.477022 
L 196.892975 223.375315 
L 193.998209 225.985924 
L 191.086966 228.326626 
L 188.17788 230.415494 
L 185.286329 232.27047 
L 182.424835 233.909052 
L 179.603436 235.348063 
L 176.83004 236.603507 
L 174.110739 237.690467 
L 171.450089 238.623062 
L 166.316756 240.076742 
L 161.444459 241.058185 
L 156.835854 241.646657 
L 152.485905 241.908608 
L 148.384782 241.899393 
L 144.519872 241.664949 
L 140.877162 241.243315 
L 137.442154 240.66596 
L 134.200469 239.958919 
L 129.670226 238.701313 
L 125.500123 237.257399 
L 121.650704 235.670971 
L 118.086949 233.975303 
L 114.778055 232.19578 
L 110.71658 229.725578 
L 107.006132 227.174524 
L 103.601289 224.566835 
L 100.46419 221.919764 
L 96.871635 218.574008 
L 93.59755 215.202487 
L 90.600899 211.816274 
L 87.3246 207.743548 
L 84.353698 203.668138 
L 81.651355 199.594866 
L 78.798978 194.84912 
L 76.234794 190.112559 
L 73.929274 185.386409 
L 71.858831 180.671259 
L 69.756208 175.29638 
L 67.912999 169.936635 
L 66.310877 164.59249 
L 64.934984 159.264625 
L 63.773135 153.953975 
L 62.709391 148.00159 
L 61.89185 142.074653 
L 61.31056 136.175675 
L 60.957112 130.307515 
L 60.824291 124.473342 
L 60.905809 118.676587 
L 61.196095 112.920908 
L 61.690138 107.210156 
L 62.383352 101.548337 
L 63.382015 95.319856 
L 64.615829 89.162723 
L 66.079569 83.082884 
L 67.768188 77.086369 
L 69.676753 71.179262 
L 71.800382 65.367676 
L 74.134206 59.657722 
L 76.410324 54.610698 
L 76.410324 54.610698 
" clip-path="url(#p7130f8bccb)" style="fill: none; stroke: #d62728; stroke-width: 1.5; stroke-linecap: square"/>
   </g>
   <g id="patch_3">
    <path d="M 44.210938 307.872 
L 44.210938 41.76 
" style="fill: none; stroke: #000000; stroke-width: 0.8; stroke-linejoin: miter; stroke-linecap: square"/>
   </g>
   <g id="patch_4">
    <path d="M 401.330938 307.872 
L 401.330938 41.76 
" style="fill: none; stroke: #000000; stroke-width: 0.8; stroke-linejoin: miter; stroke-linecap: square"/>
   </g>
   <g id="patch_5">
    <path d="M 44.210938 307.872 
L 401.330938 307.872 
" style="fill: none; stroke: #000000; stroke-width: 0.8; stroke-linejoin: miter; stroke-linecap: square"/>
   </g>
   <g id="patch_6">
    <path d="M 44.210938 41.76 
L 401.330938 41.76 
" style="fill: none; stroke: #000000; stroke-width: 0.8; stroke-linejoin: miter; stroke-linecap: square"/>
   </g>
   <g id="text_16">
    <g id="patch_7">
     <path d="M 419.186937 102.337163 
L 564.986938 102.337163 
Q 568.986938 102.337163 568.986938 98.337163 
L 568.986938 55.0656 
Q 568.986938 51.0656 564.986938 51.0656 
L 419.186937 51.0656 
Q 415.186937 51.0656 415.186937 55.0656 
L 415.186937 98.337163 
Q 415.186937 102.337163 419.186937 102.337163 
z
" style="fill: #ffffff; opacity: 0.5; stroke: #000000; stroke-linejoin: miter"/>
    </g>
    <!-- Summary -->
    <g transform="translate(419.186937 62.664038) scale(0.1 -0.1)">
     <defs>
      <path id="DejaVuSans-53" d="M 3425 4513 
L 3425 3897 
Q 3066 4069 2747 4153 
Q 2428 4238 2131 4238 
Q 1616 4238 1336 4038 
Q 1056 3838 1056 3469 
Q 1056 3159 1242 3001 
Q 1428 2844 1947 2747 
L 2328 2669 
Q 3034 2534 3370 2195 
Q 3706 1856 3706 1288 
Q 3706 609 3251 259 
Q 2797 -91 1919 -91 
Q 1588 -91 1214 -16 
Q 841 59 441 206 
L 441 856 
Q 825 641 1194 531 
Q 1563 422 1919 422 
Q 2459 422 2753 634 
Q 3047 847 3047 1241 
Q 3047 1584 2836 1778 
Q 2625 1972 2144 2069 
L 1759 2144 
Q 1053 2284 737 2584 
Q 422 2884 422 3419 
Q 422 4038 858 4394 
Q 1294 4750 2059 4750 
Q 2388 4750 2728 4690 
Q 3069 4631 3425 4513 
z
" transform="scale(0.015625)"/>
      <path id="DejaVuSans-75" d="M 544 1381 
L 544 3500 
L 1119 3500 
L 1119 1403 
Q 1119 906 1312 657 
Q 1506 409 1894 409 
Q 2359 409 2629 706 
Q 2900 1003 2900 1516 
L 2900 3500 
L 3475 3500 
L 3475 0 
L 2900 0 
L 2900 538 
Q 2691 219 2414 64 
Q 2138 -91 1772 -91 
Q 1169 -91 856 284 
Q 544 659 544 1381 
z
M 1991 3584 
L 1991 3584 
z
" transform="scale(0.015625)"/>
      <path id="DejaVuSans-61" d="M 2194 1759 
Q 1497 1759 1228 1600 
Q 959 1441 959 1056 
Q 959 750 1161 570 
Q 1363 391 1709 391 
Q 2188 391 2477 730 
Q 2766 1069 2766 1631 
L 2766 1759 
L 2194 1759 
z
M 3341 1997 
L 3341 0 
L 2766 0 
L 2766 531 
Q 2569 213 2275 61 
Q 1981 -91 1556 -91 
Q 1019 -91 701 211 
Q 384 513 384 1019 
Q 384 1609 779 1909 
Q 1175 2209 1959 2209 
L 2766 2209 
L 2766 2266 
Q 2766 2663 2505 2880 
Q 2244 3097 1772 3097 
Q 1472 3097 1187 3025 
Q 903 2953 641 2809 
L 641 3341 
Q 956 3463 1253 3523 
Q 1550 3584 1831 3584 
Q 2591 3584 2966 3190 
Q 3341 2797 3341 1997 
z
" transform="scale(0.015625)"/>
      <path id="DejaVuSans-72" d="M 2631 2963 
Q 2534 3019 2420 3045 
Q 2306 3072 2169 3072 
Q 1681 3072 1420 2755 
Q 1159 2438 1159 1844 
L 1159 0 
L 581 0 
L 581 3500 
L 1159 3500 
L 1159 2956 
Q 1341 3275 1631 3429 
Q 1922 3584 2338 3584 
Q 2397 3584 2469 3576 
Q 2541 3569 2628 3553 
L 2631 2963 
z
" transform="scale(0.015625)"/>
      <path id="DejaVuSans-79" d="M 2059 -325 
Q 1816 -950 1584 -1140 
Q 1353 -1331 966 -1331 
L 506 -1331 
L 506 -850 
L 844 -850 
Q 1081 -850 1212 -737 
Q 1344 -625 1503 -206 
L 1606 56 
L 191 3500 
L 800 3500 
L 1894 763 
L 2988 3500 
L 3597 3500 
L 2059 -325 
z
" transform="scale(0.015625)"/>
     </defs>
     <use xlink:href="#DejaVuSans-53"/>
     <use xlink:href="#DejaVuSans-75" x="63.476562"/>
     <use xlink:href="#DejaVuSans-6d" x="126.855469"/>
     <use xlink:href="#DejaVuSans-6d" x="224.267578"/>
     <use xlink:href="#DejaVuSans-61" x="321.679688"/>
     <use xlink:href="#DejaVuSans-72" x="382.958984"/>
     <use xlink:href="#DejaVuSans-79" x="424.072266"/>
    </g>
    <!-- $Q_I$: 29.0$\pm$1.1 k -->
    <g transform="translate(419.186937 73.86185) scale(0.1 -0.1)">
     <defs>
      <path id="DejaVuSans-Oblique-51" d="M 2309 -84 
Q 2275 -88 2237 -89 
Q 2200 -91 2125 -91 
Q 1250 -91 756 411 
Q 263 913 263 1797 
Q 263 2319 452 2844 
Q 641 3369 978 3788 
Q 1369 4269 1858 4509 
Q 2347 4750 2938 4750 
Q 3794 4750 4287 4245 
Q 4781 3741 4781 2869 
Q 4781 1928 4265 1147 
Q 3750 366 2919 44 
L 3553 -825 
L 2847 -825 
L 2309 -84 
z
M 2919 4238 
Q 2400 4238 2003 3986 
Q 1606 3734 1313 3219 
Q 1125 2891 1026 2522 
Q 928 2153 928 1778 
Q 928 1128 1239 775 
Q 1550 422 2119 422 
Q 2631 422 3032 676 
Q 3434 931 3719 1434 
Q 3909 1772 4009 2142 
Q 4109 2513 4109 2881 
Q 4109 3528 3796 3883 
Q 3484 4238 2919 4238 
z
" transform="scale(0.015625)"/>
      <path id="DejaVuSans-Oblique-49" d="M 1081 4666 
L 1716 4666 
L 806 0 
L 172 0 
L 1081 4666 
z
" transform="scale(0.015625)"/>
      <path id="DejaVuSans-3a" d="M 750 794 
L 1409 794 
L 1409 0 
L 750 0 
L 750 794 
z
M 750 3309 
L 1409 3309 
L 1409 2516 
L 750 2516 
L 750 3309 
z
" transform="scale(0.015625)"/>
      <path id="DejaVuSans-39" d="M 703 97 
L 703 672 
Q 941 559 1184 500 
Q 1428 441 1663 441 
Q 2288 441 2617 861 
Q 2947 1281 2994 2138 
Q 2813 1869 2534 1725 
Q 2256 1581 1919 1581 
Q 1219 1581 811 2004 
Q 403 2428 403 3163 
Q 403 3881 828 4315 
Q 1253 4750 1959 4750 
Q 2769 4750 3195 4129 
Q 3622 3509 3622 2328 
Q 3622 1225 3098 567 
Q 2575 -91 1691 -91 
Q 1453 -91 1209 -44 
Q 966 3 703 97 
z
M 1959 2075 
Q 2384 2075 2632 2365 
Q 2881 2656 2881 3163 
Q 2881 3666 2632 3958 
Q 2384 4250 1959 4250 
Q 1534 4250 1286 3958 
Q 1038 3666 1038 3163 
Q 1038 2656 1286 2365 
Q 1534 2075 1959 2075 
z
" transform="scale(0.015625)"/>
      <path id="DejaVuSans-2e" d="M 684 794 
L 1344 794 
L 1344 0 
L 684 0 
L 684 794 
z
" transform="scale(0.015625)"/>
      <path id="DejaVuSans-b1" d="M 2944 4013 
L 2944 2803 
L 4684 2803 
L 4684 2272 
L 2944 2272 
L 2944 1063 
L 2419 1063 
L 2419 2272 
L 678 2272 
L 678 2803 
L 2419 2803 
L 2419 4013 
L 2944 4013 
z
M 678 531 
L 4684 531 
L 4684 0 
L 678 0 
L 678 531 
z
" transform="scale(0.015625)"/>
      <path id="DejaVuSans-6b" d="M 581 4863 
L 1159 4863 
L 1159 1991 
L 2875 3500 
L 3609 3500 
L 1753 1863 
L 3688 0 
L 2938 0 
L 1159 1709 
L 1159 0 
L 581 0 
L 581 4863 
z
" transform="scale(0.015625)"/>
     </defs>
     <use xlink:href="#DejaVuSans-Oblique-51" transform="translate(0 0.015625)"/>
     <use xlink:href="#DejaVuSans-Oblique-49" transform="translate(78.710938 -16.390625) scale(0.7)"/>
     <use xlink:href="#DejaVuSans-3a" transform="translate(102.089844 0.015625)"/>
     <use xlink:href="#DejaVuSans-20" transform="translate(135.78125 0.015625)"/>
     <use xlink:href="#DejaVuSans-32" transform="translate(167.568359 0.015625)"/>
     <use xlink:href="#DejaVuSans-39" transform="translate(229.441406 0.015625)"/>
     <use xlink:href="#DejaVuSans-2e" transform="translate(293.064453 0.015625)"/>
     <use xlink:href="#DejaVuSans-30" transform="translate(324.851562 0.015625)"/>
     <use xlink:href="#DejaVuSans-b1" transform="translate(388.474609 0.015625)"/>
     <use xlink:href="#DejaVuSans-31" transform="translate(472.263672 0.015625)"/>
     <use xlink:href="#DejaVuSans-2e" transform="translate(535.886719 0.015625)"/>
     <use xlink:href="#DejaVuSans-31" transform="translate(567.673828 0.015625)"/>
     <use xlink:href="#DejaVuSans-20" transform="translate(631.296875 0.015625)"/>
     <use xlink:href="#DejaVuSans-6b" transform="translate(663.083984 0.015625)"/>
    </g>
    <!-- $Q_C$: 3.202$\pm$0.013 k -->
    <g transform="translate(419.186937 85.059663) scale(0.1 -0.1)">
     <defs>
      <path id="DejaVuSans-Oblique-43" d="M 4447 4306 
L 4319 3641 
Q 4019 3944 3683 4091 
Q 3347 4238 2956 4238 
Q 2422 4238 2017 3981 
Q 1613 3725 1319 3200 
Q 1131 2863 1032 2486 
Q 934 2109 934 1728 
Q 934 1091 1264 756 
Q 1594 422 2222 422 
Q 2656 422 3056 561 
Q 3456 700 3834 978 
L 3688 231 
Q 3316 72 2936 -9 
Q 2556 -91 2175 -91 
Q 1278 -91 773 396 
Q 269 884 269 1753 
Q 269 2309 461 2846 
Q 653 3384 1013 3828 
Q 1394 4300 1883 4525 
Q 2372 4750 3022 4750 
Q 3422 4750 3780 4639 
Q 4138 4528 4447 4306 
z
" transform="scale(0.015625)"/>
      <path id="DejaVuSans-33" d="M 2597 2516 
Q 3050 2419 3304 2112 
Q 3559 1806 3559 1356 
Q 3559 666 3084 287 
Q 2609 -91 1734 -91 
Q 1441 -91 1130 -33 
Q 819 25 488 141 
L 488 750 
Q 750 597 1062 519 
Q 1375 441 1716 441 
Q 2309 441 2620 675 
Q 2931 909 2931 1356 
Q 2931 1769 2642 2001 
Q 2353 2234 1838 2234 
L 1294 2234 
L 1294 2753 
L 1863 2753 
Q 2328 2753 2575 2939 
Q 2822 3125 2822 3475 
Q 2822 3834 2567 4026 
Q 2313 4219 1838 4219 
Q 1578 4219 1281 4162 
Q 984 4106 628 3988 
L 628 4550 
Q 988 4650 1302 4700 
Q 1616 4750 1894 4750 
Q 2613 4750 3031 4423 
Q 3450 4097 3450 3541 
Q 3450 3153 3228 2886 
Q 3006 2619 2597 2516 
z
" transform="scale(0.015625)"/>
     </defs>
     <use xlink:href="#DejaVuSans-Oblique-51" transform="translate(0 0.015625)"/>
     <use xlink:href="#DejaVuSans-Oblique-43" transform="translate(78.710938 -16.390625) scale(0.7)"/>
     <use xlink:href="#DejaVuSans-3a" transform="translate(130.322266 0.015625)"/>
     <use xlink:href="#DejaVuSans-20" transform="translate(164.013672 0.015625)"/>
     <use xlink:href="#DejaVuSans-33" transform="translate(195.800781 0.015625)"/>
     <use xlink:href="#DejaVuSans-2e" transform="translate(259.423828 0.015625)"/>
     <use xlink:href="#DejaVuSans-32" transform="translate(285.710938 0.015625)"/>
     <use xlink:href="#DejaVuSans-30" transform="translate(349.333984 0.015625)"/>
     <use xlink:href="#DejaVuSans-32" transform="translate(412.957031 0.015625)"/>
     <use xlink:href="#DejaVuSans-b1" transform="translate(476.580078 0.015625)"/>
     <use xlink:href="#DejaVuSans-30" transform="translate(560.369141 0.015625)"/>
     <use xlink:href="#DejaVuSans-2e" transform="translate(623.992188 0.015625)"/>
     <use xlink:href="#DejaVuSans-30" transform="translate(655.779297 0.015625)"/>
     <use xlink:href="#DejaVuSans-31" transform="translate(719.402344 0.015625)"/>
     <use xlink:href="#DejaVuSans-33" transform="translate(783.025391 0.015625)"/>
     <use xlink:href="#DejaVuSans-20" transform="translate(846.648438 0.015625)"/>
     <use xlink:href="#DejaVuSans-6b" transform="translate(878.435547 0.015625)"/>
    </g>
    <!-- $f_{res}$: 6.0080480$\pm$6.0e-06 GHz -->
    <g transform="translate(419.186937 96.257475) scale(0.1 -0.1)">
     <defs>
      <path id="DejaVuSans-Oblique-66" d="M 3059 4863 
L 2969 4384 
L 2419 4384 
Q 2106 4384 1964 4261 
Q 1822 4138 1753 3809 
L 1691 3500 
L 2638 3500 
L 2553 3053 
L 1606 3053 
L 1013 0 
L 434 0 
L 1031 3053 
L 481 3053 
L 563 3500 
L 1113 3500 
L 1159 3744 
Q 1278 4363 1576 4613 
Q 1875 4863 2516 4863 
L 3059 4863 
z
" transform="scale(0.015625)"/>
      <path id="DejaVuSans-Oblique-72" d="M 2853 2969 
Q 2766 3016 2653 3041 
Q 2541 3066 2413 3066 
Q 1953 3066 1609 2717 
Q 1266 2369 1153 1784 
L 800 0 
L 225 0 
L 909 3500 
L 1484 3500 
L 1375 2956 
Q 1603 3259 1920 3421 
Q 2238 3584 2597 3584 
Q 2691 3584 2781 3573 
Q 2872 3563 2963 3538 
L 2853 2969 
z
" transform="scale(0.015625)"/>
      <path id="DejaVuSans-Oblique-65" d="M 3078 2063 
Q 3088 2113 3092 2166 
Q 3097 2219 3097 2272 
Q 3097 2653 2873 2875 
Q 2650 3097 2266 3097 
Q 1838 3097 1509 2826 
Q 1181 2556 1013 2059 
L 3078 2063 
z
M 3578 1613 
L 903 1613 
Q 884 1494 878 1425 
Q 872 1356 872 1306 
Q 872 872 1139 634 
Q 1406 397 1894 397 
Q 2269 397 2603 481 
Q 2938 566 3225 728 
L 3116 159 
Q 2806 34 2476 -28 
Q 2147 -91 1806 -91 
Q 1078 -91 686 257 
Q 294 606 294 1247 
Q 294 1794 489 2264 
Q 684 2734 1063 3103 
Q 1306 3334 1642 3459 
Q 1978 3584 2356 3584 
Q 2950 3584 3301 3228 
Q 3653 2872 3653 2272 
Q 3653 2128 3634 1964 
Q 3616 1800 3578 1613 
z
" transform="scale(0.015625)"/>
      <path id="DejaVuSans-Oblique-73" d="M 3200 3397 
L 3091 2853 
Q 2863 2978 2609 3040 
Q 2356 3103 2088 3103 
Q 1634 3103 1373 2948 
Q 1113 2794 1113 2528 
Q 1113 2219 1719 2053 
Q 1766 2041 1788 2034 
L 1972 1978 
Q 2547 1819 2739 1644 
Q 2931 1469 2931 1166 
Q 2931 609 2489 259 
Q 2047 -91 1331 -91 
Q 1053 -91 747 -37 
Q 441 16 72 128 
L 184 722 
Q 500 559 806 475 
Q 1113 391 1394 391 
Q 1816 391 2080 572 
Q 2344 753 2344 1031 
Q 2344 1331 1650 1516 
L 1591 1531 
L 1394 1581 
Q 956 1697 753 1886 
Q 550 2075 550 2369 
Q 550 2928 970 3256 
Q 1391 3584 2113 3584 
Q 2397 3584 2667 3537 
Q 2938 3491 3200 3397 
z
" transform="scale(0.015625)"/>
      <path id="DejaVuSans-47" d="M 3809 666 
L 3809 1919 
L 2778 1919 
L 2778 2438 
L 4434 2438 
L 4434 434 
Q 4069 175 3628 42 
Q 3188 -91 2688 -91 
Q 1594 -91 976 548 
Q 359 1188 359 2328 
Q 359 3472 976 4111 
Q 1594 4750 2688 4750 
Q 3144 4750 3555 4637 
Q 3966 4525 4313 4306 
L 4313 3634 
Q 3963 3931 3569 4081 
Q 3175 4231 2741 4231 
Q 1884 4231 1454 3753 
Q 1025 3275 1025 2328 
Q 1025 1384 1454 906 
Q 1884 428 2741 428 
Q 3075 428 3337 486 
Q 3600 544 3809 666 
z
" transform="scale(0.015625)"/>
      <path id="DejaVuSans-48" d="M 628 4666 
L 1259 4666 
L 1259 2753 
L 3553 2753 
L 3553 4666 
L 4184 4666 
L 4184 0 
L 3553 0 
L 3553 2222 
L 1259 2222 
L 1259 0 
L 628 0 
L 628 4666 
z
" transform="scale(0.015625)"/>
      <path id="DejaVuSans-7a" d="M 353 3500 
L 3084 3500 
L 3084 2975 
L 922 459 
L 3084 459 
L 3084 0 
L 275 0 
L 275 525 
L 2438 3041 
L 353 3041 
L 353 3500 
z
" transform="scale(0.015625)"/>
     </defs>
     <use xlink:href="#DejaVuSans-Oblique-66" transform="translate(0 0.015625)"/>
     <use xlink:href="#DejaVuSans-Oblique-72" transform="translate(35.205078 -16.390625) scale(0.7)"/>
     <use xlink:href="#DejaVuSans-Oblique-65" transform="translate(63.984375 -16.390625) scale(0.7)"/>
     <use xlink:href="#DejaVuSans-Oblique-73" transform="translate(107.050781 -16.390625) scale(0.7)"/>
     <use xlink:href="#DejaVuSans-3a" transform="translate(146.254883 0.015625)"/>
     <use xlink:href="#DejaVuSans-20" transform="translate(179.946289 0.015625)"/>
     <use xlink:href="#DejaVuSans-36" transform="translate(211.733398 0.015625)"/>
     <use xlink:href="#DejaVuSans-2e" transform="translate(275.356445 0.015625)"/>
     <use xlink:href="#DejaVuSans-30" transform="translate(307.143555 0.015625)"/>
     <use xlink:href="#DejaVuSans-30" transform="translate(370.766602 0.015625)"/>
     <use xlink:href="#DejaVuSans-38" transform="translate(434.389648 0.015625)"/>
     <use xlink:href="#DejaVuSans-30" transform="translate(498.012695 0.015625)"/>
     <use xlink:href="#DejaVuSans-34" transform="translate(561.635742 0.015625)"/>
     <use xlink:href="#DejaVuSans-38" transform="translate(625.258789 0.015625)"/>
     <use xlink:href="#DejaVuSans-30" transform="translate(688.881836 0.015625)"/>
     <use xlink:href="#DejaVuSans-b1" transform="translate(752.504883 0.015625)"/>
     <use xlink:href="#DejaVuSans-36" transform="translate(836.293945 0.015625)"/>
     <use xlink:href="#DejaVuSans-2e" transform="translate(899.916992 0.015625)"/>
     <use xlink:href="#DejaVuSans-30" transform="translate(931.704102 0.015625)"/>
     <use xlink:href="#DejaVuSans-65" transform="translate(995.327148 0.015625)"/>
     <use xlink:href="#DejaVuSans-2d" transform="translate(1056.850586 0.015625)"/>
     <use xlink:href="#DejaVuSans-30" transform="translate(1092.93457 0.015625)"/>
     <use xlink:href="#DejaVuSans-36" transform="translate(1156.557617 0.015625)"/>
     <use xlink:href="#DejaVuSans-20" transform="translate(1220.180664 0.015625)"/>
     <use xlink:href="#DejaVuSans-47" transform="translate(1251.967773 0.015625)"/>
     <use xlink:href="#DejaVuSans-48" transform="translate(1329.458008 0.015625)"/>
     <use xlink:href="#DejaVuSans-7a" transform="translate(1404.65332 0.015625)"/>
    </g>
   </g>
  </g>
  <g id="text_17">
   <!-- S21 One-tone -->
   <g transform="translate(175.76 16.318125) scale(0.12 -0.12)">
    <defs>
     <path id="DejaVuSans-4f" d="M 2522 4238 
Q 1834 4238 1429 3725 
Q 1025 3213 1025 2328 
Q 1025 1447 1429 934 
Q 1834 422 2522 422 
Q 3209 422 3611 934 
Q 4013 1447 4013 2328 
Q 4013 3213 3611 3725 
Q 3209 4238 2522 4238 
z
M 2522 4750 
Q 3503 4750 4090 4092 
Q 4678 3434 4678 2328 
Q 4678 1225 4090 567 
Q 3503 -91 2522 -91 
Q 1538 -91 948 565 
Q 359 1222 359 2328 
Q 359 3434 948 4092 
Q 1538 4750 2522 4750 
z
" transform="scale(0.015625)"/>
     <path id="DejaVuSans-6e" d="M 3513 2113 
L 3513 0 
L 2938 0 
L 2938 2094 
Q 2938 2591 2744 2837 
Q 2550 3084 2163 3084 
Q 1697 3084 1428 2787 
Q 1159 2491 1159 1978 
L 1159 0 
L 581 0 
L 581 3500 
L 1159 3500 
L 1159 2956 
Q 1366 3272 1645 3428 
Q 1925 3584 2291 3584 
Q 2894 3584 3203 3211 
Q 3513 2838 3513 2113 
z
" transform="scale(0.015625)"/>
     <path id="DejaVuSans-74" d="M 1172 4494 
L 1172 3500 
L 2356 3500 
L 2356 3053 
L 1172 3053 
L 1172 1153 
Q 1172 725 1289 603 
Q 1406 481 1766 481 
L 2356 481 
L 2356 0 
L 1766 0 
Q 1100 0 847 248 
Q 594 497 594 1153 
L 594 3053 
L 172 3053 
L 172 3500 
L 594 3500 
L 594 4494 
L 1172 4494 
z
" transform="scale(0.015625)"/>
     <path id="DejaVuSans-6f" d="M 1959 3097 
Q 1497 3097 1228 2736 
Q 959 2375 959 1747 
Q 959 1119 1226 758 
Q 1494 397 1959 397 
Q 2419 397 2687 759 
Q 2956 1122 2956 1747 
Q 2956 2369 2687 2733 
Q 2419 3097 1959 3097 
z
M 1959 3584 
Q 2709 3584 3137 3096 
Q 3566 2609 3566 1747 
Q 3566 888 3137 398 
Q 2709 -91 1959 -91 
Q 1206 -91 779 398 
Q 353 888 353 1747 
Q 353 2609 779 3096 
Q 1206 3584 1959 3584 
z
" transform="scale(0.015625)"/>
    </defs>
    <use xlink:href="#DejaVuSans-53"/>
    <use xlink:href="#DejaVuSans-32" x="63.476562"/>
    <use xlink:href="#DejaVuSans-31" x="127.099609"/>
    <use xlink:href="#DejaVuSans-20" x="190.722656"/>
    <use xlink:href="#DejaVuSans-4f" x="222.509766"/>
    <use xlink:href="#DejaVuSans-6e" x="301.220703"/>
    <use xlink:href="#DejaVuSans-65" x="364.599609"/>
    <use xlink:href="#DejaVuSans-2d" x="426.123047"/>
    <use xlink:href="#DejaVuSans-74" x="462.207031"/>
    <use xlink:href="#DejaVuSans-6f" x="501.416016"/>
    <use xlink:href="#DejaVuSans-6e" x="562.597656"/>
    <use xlink:href="#DejaVuSans-65" x="625.976562"/>
   </g>
   <!-- tuid: 20240222-181033-519-44efb0 -->
   <g transform="translate(108.995 29.7555) scale(0.12 -0.12)">
    <defs>
     <path id="DejaVuSans-69" d="M 603 3500 
L 1178 3500 
L 1178 0 
L 603 0 
L 603 3500 
z
M 603 4863 
L 1178 4863 
L 1178 4134 
L 603 4134 
L 603 4863 
z
" transform="scale(0.015625)"/>
     <path id="DejaVuSans-64" d="M 2906 2969 
L 2906 4863 
L 3481 4863 
L 3481 0 
L 2906 0 
L 2906 525 
Q 2725 213 2448 61 
Q 2172 -91 1784 -91 
Q 1150 -91 751 415 
Q 353 922 353 1747 
Q 353 2572 751 3078 
Q 1150 3584 1784 3584 
Q 2172 3584 2448 3432 
Q 2725 3281 2906 2969 
z
M 947 1747 
Q 947 1113 1208 752 
Q 1469 391 1925 391 
Q 2381 391 2643 752 
Q 2906 1113 2906 1747 
Q 2906 2381 2643 2742 
Q 2381 3103 1925 3103 
Q 1469 3103 1208 2742 
Q 947 2381 947 1747 
z
" transform="scale(0.015625)"/>
     <path id="DejaVuSans-66" d="M 2375 4863 
L 2375 4384 
L 1825 4384 
Q 1516 4384 1395 4259 
Q 1275 4134 1275 3809 
L 1275 3500 
L 2222 3500 
L 2222 3053 
L 1275 3053 
L 1275 0 
L 697 0 
L 697 3053 
L 147 3053 
L 147 3500 
L 697 3500 
L 697 3744 
Q 697 4328 969 4595 
Q 1241 4863 1831 4863 
L 2375 4863 
z
" transform="scale(0.015625)"/>
     <path id="DejaVuSans-62" d="M 3116 1747 
Q 3116 2381 2855 2742 
Q 2594 3103 2138 3103 
Q 1681 3103 1420 2742 
Q 1159 2381 1159 1747 
Q 1159 1113 1420 752 
Q 1681 391 2138 391 
Q 2594 391 2855 752 
Q 3116 1113 3116 1747 
z
M 1159 2969 
Q 1341 3281 1617 3432 
Q 1894 3584 2278 3584 
Q 2916 3584 3314 3078 
Q 3713 2572 3713 1747 
Q 3713 922 3314 415 
Q 2916 -91 2278 -91 
Q 1894 -91 1617 61 
Q 1341 213 1159 525 
L 1159 0 
L 581 0 
L 581 4863 
L 1159 4863 
L 1159 2969 
z
" transform="scale(0.015625)"/>
    </defs>
    <use xlink:href="#DejaVuSans-74"/>
    <use xlink:href="#DejaVuSans-75" x="39.208984"/>
    <use xlink:href="#DejaVuSans-69" x="102.587891"/>
    <use xlink:href="#DejaVuSans-64" x="130.371094"/>
    <use xlink:href="#DejaVuSans-3a" x="193.847656"/>
    <use xlink:href="#DejaVuSans-20" x="227.539062"/>
    <use xlink:href="#DejaVuSans-32" x="259.326172"/>
    <use xlink:href="#DejaVuSans-30" x="322.949219"/>
    <use xlink:href="#DejaVuSans-32" x="386.572266"/>
    <use xlink:href="#DejaVuSans-34" x="450.195312"/>
    <use xlink:href="#DejaVuSans-30" x="513.818359"/>
    <use xlink:href="#DejaVuSans-32" x="577.441406"/>
    <use xlink:href="#DejaVuSans-32" x="641.064453"/>
    <use xlink:href="#DejaVuSans-32" x="704.6875"/>
    <use xlink:href="#DejaVuSans-2d" x="768.310547"/>
    <use xlink:href="#DejaVuSans-31" x="804.394531"/>
    <use xlink:href="#DejaVuSans-38" x="868.017578"/>
    <use xlink:href="#DejaVuSans-31" x="931.640625"/>
    <use xlink:href="#DejaVuSans-30" x="995.263672"/>
    <use xlink:href="#DejaVuSans-33" x="1058.886719"/>
    <use xlink:href="#DejaVuSans-33" x="1122.509766"/>
    <use xlink:href="#DejaVuSans-2d" x="1186.132812"/>
    <use xlink:href="#DejaVuSans-35" x="1222.216797"/>
    <use xlink:href="#DejaVuSans-31" x="1285.839844"/>
    <use xlink:href="#DejaVuSans-39" x="1349.462891"/>
    <use xlink:href="#DejaVuSans-2d" x="1413.085938"/>
    <use xlink:href="#DejaVuSans-34" x="1449.169922"/>
    <use xlink:href="#DejaVuSans-34" x="1512.792969"/>
    <use xlink:href="#DejaVuSans-65" x="1576.416016"/>
    <use xlink:href="#DejaVuSans-66" x="1637.939453"/>
    <use xlink:href="#DejaVuSans-62" x="1673.144531"/>
    <use xlink:href="#DejaVuSans-30" x="1736.621094"/>
   </g>
  </g>
 </g>
 <defs>
  <clipPath id="p7130f8bccb">
   <rect x="44.210938" y="41.76" width="357.12" height="266.112"/>
  </clipPath>
 </defs>
</svg>
