<?xml version="1.0" encoding="utf-8" standalone="no"?>
<!DOCTYPE svg PUBLIC "-//W3C//DTD SVG 1.1//EN"
  "http://www.w3.org/Graphics/SVG/1.1/DTD/svg11.dtd">
<svg xmlns:xlink="http://www.w3.org/1999/xlink" width="592.85725pt" height="345.42825pt" viewBox="0 0 592.85725 345.42825" xmlns="http://www.w3.org/2000/svg" version="1.1">
 <metadata>
  <rdf:RDF xmlns:dc="http://purl.org/dc/elements/1.1/" xmlns:cc="http://creativecommons.org/ns#" xmlns:rdf="http://www.w3.org/1999/02/22-rdf-syntax-ns#">
   <cc:Work>
    <dc:type rdf:resource="http://purl.org/dc/dcmitype/StillImage"/>
    <dc:date>2024-03-01T18:27:11.067420</dc:date>
    <dc:format>image/svg+xml</dc:format>
    <dc:creator>
     <cc:Agent>
      <dc:title>Matplotlib v3.8.2, https://matplotlib.org/</dc:title>
     </cc:Agent>
    </dc:creator>
   </cc:Work>
  </rdf:RDF>
 </metadata>
 <defs>
  <style type="text/css">*{stroke-linejoin: round; stroke-linecap: butt}</style>
 </defs>
 <g id="figure_1">
  <g id="patch_1">
   <path d="M 0 345.42825 
L 592.85725 345.42825 
L 592.85725 -0 
L 0 -0 
L 0 345.42825 
z
" style="fill: none; opacity: 0"/>
  </g>
  <g id="axes_1">
   <g id="patch_2">
    <path d="M 50.573438 162.72 
L 407.693438 162.72 
L 407.693438 41.76 
L 50.573438 41.76 
z
" style="fill: #ffffff"/>
   </g>
   <g id="matplotlib.axis_1">
    <g id="xtick_1">
     <g id="line2d_1">
      <defs>
       <path id="mff84344f3c" d="M 0 0 
L 0 3.5 
" style="stroke: #000000; stroke-width: 0.8"/>
      </defs>
      <g>
       <use xlink:href="#mff84344f3c" x="66.806165" y="162.72" style="stroke: #000000; stroke-width: 0.8"/>
      </g>
     </g>
    </g>
    <g id="xtick_2">
     <g id="line2d_2">
      <g>
       <use xlink:href="#mff84344f3c" x="107.387983" y="162.72" style="stroke: #000000; stroke-width: 0.8"/>
      </g>
     </g>
    </g>
    <g id="xtick_3">
     <g id="line2d_3">
      <g>
       <use xlink:href="#mff84344f3c" x="147.969801" y="162.72" style="stroke: #000000; stroke-width: 0.8"/>
      </g>
     </g>
    </g>
    <g id="xtick_4">
     <g id="line2d_4">
      <g>
       <use xlink:href="#mff84344f3c" x="188.551619" y="162.72" style="stroke: #000000; stroke-width: 0.8"/>
      </g>
     </g>
    </g>
    <g id="xtick_5">
     <g id="line2d_5">
      <g>
       <use xlink:href="#mff84344f3c" x="229.133438" y="162.72" style="stroke: #000000; stroke-width: 0.8"/>
      </g>
     </g>
    </g>
    <g id="xtick_6">
     <g id="line2d_6">
      <g>
       <use xlink:href="#mff84344f3c" x="269.715256" y="162.72" style="stroke: #000000; stroke-width: 0.8"/>
      </g>
     </g>
    </g>
    <g id="xtick_7">
     <g id="line2d_7">
      <g>
       <use xlink:href="#mff84344f3c" x="310.297074" y="162.72" style="stroke: #000000; stroke-width: 0.8"/>
      </g>
     </g>
    </g>
    <g id="xtick_8">
     <g id="line2d_8">
      <g>
       <use xlink:href="#mff84344f3c" x="350.878892" y="162.72" style="stroke: #000000; stroke-width: 0.8"/>
      </g>
     </g>
    </g>
    <g id="xtick_9">
     <g id="line2d_9">
      <g>
       <use xlink:href="#mff84344f3c" x="391.46071" y="162.72" style="stroke: #000000; stroke-width: 0.8"/>
      </g>
     </g>
    </g>
   </g>
   <g id="matplotlib.axis_2">
    <g id="ytick_1">
     <g id="line2d_10">
      <defs>
       <path id="m5de5a7d0ba" d="M 0 0 
L -3.5 0 
" style="stroke: #000000; stroke-width: 0.8"/>
      </defs>
      <g>
       <use xlink:href="#m5de5a7d0ba" x="50.573438" y="159.963735" style="stroke: #000000; stroke-width: 0.8"/>
      </g>
     </g>
     <g id="text_1">
      <!-- -100 -->
      <g transform="translate(20.878125 163.762954) scale(0.1 -0.1)">
       <defs>
        <path id="DejaVuSans-2d" d="M 313 2009 
L 1997 2009 
L 1997 1497 
L 313 1497 
L 313 2009 
z
" transform="scale(0.015625)"/>
        <path id="DejaVuSans-31" d="M 794 531 
L 1825 531 
L 1825 4091 
L 703 3866 
L 703 4441 
L 1819 4666 
L 2450 4666 
L 2450 531 
L 3481 531 
L 3481 0 
L 794 0 
L 794 531 
z
" transform="scale(0.015625)"/>
        <path id="DejaVuSans-30" d="M 2034 4250 
Q 1547 4250 1301 3770 
Q 1056 3291 1056 2328 
Q 1056 1369 1301 889 
Q 1547 409 2034 409 
Q 2525 409 2770 889 
Q 3016 1369 3016 2328 
Q 3016 3291 2770 3770 
Q 2525 4250 2034 4250 
z
M 2034 4750 
Q 2819 4750 3233 4129 
Q 3647 3509 3647 2328 
Q 3647 1150 3233 529 
Q 2819 -91 2034 -91 
Q 1250 -91 836 529 
Q 422 1150 422 2328 
Q 422 3509 836 4129 
Q 1250 4750 2034 4750 
z
" transform="scale(0.015625)"/>
       </defs>
       <use xlink:href="#DejaVuSans-2d"/>
       <use xlink:href="#DejaVuSans-31" x="36.083984"/>
       <use xlink:href="#DejaVuSans-30" x="99.707031"/>
       <use xlink:href="#DejaVuSans-30" x="163.330078"/>
      </g>
     </g>
    </g>
    <g id="ytick_2">
     <g id="line2d_11">
      <g>
       <use xlink:href="#m5de5a7d0ba" x="50.573438" y="138.570414" style="stroke: #000000; stroke-width: 0.8"/>
      </g>
     </g>
     <g id="text_2">
      <!-- -50 -->
      <g transform="translate(27.240625 142.369633) scale(0.1 -0.1)">
       <defs>
        <path id="DejaVuSans-35" d="M 691 4666 
L 3169 4666 
L 3169 4134 
L 1269 4134 
L 1269 2991 
Q 1406 3038 1543 3061 
Q 1681 3084 1819 3084 
Q 2600 3084 3056 2656 
Q 3513 2228 3513 1497 
Q 3513 744 3044 326 
Q 2575 -91 1722 -91 
Q 1428 -91 1123 -41 
Q 819 9 494 109 
L 494 744 
Q 775 591 1075 516 
Q 1375 441 1709 441 
Q 2250 441 2565 725 
Q 2881 1009 2881 1497 
Q 2881 1984 2565 2268 
Q 2250 2553 1709 2553 
Q 1456 2553 1204 2497 
Q 953 2441 691 2322 
L 691 4666 
z
" transform="scale(0.015625)"/>
       </defs>
       <use xlink:href="#DejaVuSans-2d"/>
       <use xlink:href="#DejaVuSans-35" x="36.083984"/>
       <use xlink:href="#DejaVuSans-30" x="99.707031"/>
      </g>
     </g>
    </g>
    <g id="ytick_3">
     <g id="line2d_12">
      <g>
       <use xlink:href="#m5de5a7d0ba" x="50.573438" y="117.177094" style="stroke: #000000; stroke-width: 0.8"/>
      </g>
     </g>
     <g id="text_3">
      <!-- 0 -->
      <g transform="translate(37.210938 120.976313) scale(0.1 -0.1)">
       <use xlink:href="#DejaVuSans-30"/>
      </g>
     </g>
    </g>
    <g id="ytick_4">
     <g id="line2d_13">
      <g>
       <use xlink:href="#m5de5a7d0ba" x="50.573438" y="95.783773" style="stroke: #000000; stroke-width: 0.8"/>
      </g>
     </g>
     <g id="text_4">
      <!-- 50 -->
      <g transform="translate(30.848438 99.582992) scale(0.1 -0.1)">
       <use xlink:href="#DejaVuSans-35"/>
       <use xlink:href="#DejaVuSans-30" x="63.623047"/>
      </g>
     </g>
    </g>
    <g id="ytick_5">
     <g id="line2d_14">
      <g>
       <use xlink:href="#m5de5a7d0ba" x="50.573438" y="74.390452" style="stroke: #000000; stroke-width: 0.8"/>
      </g>
     </g>
     <g id="text_5">
      <!-- 100 -->
      <g transform="translate(24.485938 78.189671) scale(0.1 -0.1)">
       <use xlink:href="#DejaVuSans-31"/>
       <use xlink:href="#DejaVuSans-30" x="63.623047"/>
       <use xlink:href="#DejaVuSans-30" x="127.246094"/>
      </g>
     </g>
    </g>
    <g id="ytick_6">
     <g id="line2d_15">
      <g>
       <use xlink:href="#m5de5a7d0ba" x="50.573438" y="52.997132" style="stroke: #000000; stroke-width: 0.8"/>
      </g>
     </g>
     <g id="text_6">
      <!-- 150 -->
      <g transform="translate(24.485938 56.796351) scale(0.1 -0.1)">
       <use xlink:href="#DejaVuSans-31"/>
       <use xlink:href="#DejaVuSans-35" x="63.623047"/>
       <use xlink:href="#DejaVuSans-30" x="127.246094"/>
      </g>
     </g>
    </g>
    <g id="text_7">
     <!-- Re$(S_{21})$ [mV] -->
     <g transform="translate(14.798438 134.24) rotate(-90) scale(0.1 -0.1)">
      <defs>
       <path id="DejaVuSans-52" d="M 2841 2188 
Q 3044 2119 3236 1894 
Q 3428 1669 3622 1275 
L 4263 0 
L 3584 0 
L 2988 1197 
Q 2756 1666 2539 1819 
Q 2322 1972 1947 1972 
L 1259 1972 
L 1259 0 
L 628 0 
L 628 4666 
L 2053 4666 
Q 2853 4666 3247 4331 
Q 3641 3997 3641 3322 
Q 3641 2881 3436 2590 
Q 3231 2300 2841 2188 
z
M 1259 4147 
L 1259 2491 
L 2053 2491 
Q 2509 2491 2742 2702 
Q 2975 2913 2975 3322 
Q 2975 3731 2742 3939 
Q 2509 4147 2053 4147 
L 1259 4147 
z
" transform="scale(0.015625)"/>
       <path id="DejaVuSans-65" d="M 3597 1894 
L 3597 1613 
L 953 1613 
Q 991 1019 1311 708 
Q 1631 397 2203 397 
Q 2534 397 2845 478 
Q 3156 559 3463 722 
L 3463 178 
Q 3153 47 2828 -22 
Q 2503 -91 2169 -91 
Q 1331 -91 842 396 
Q 353 884 353 1716 
Q 353 2575 817 3079 
Q 1281 3584 2069 3584 
Q 2775 3584 3186 3129 
Q 3597 2675 3597 1894 
z
M 3022 2063 
Q 3016 2534 2758 2815 
Q 2500 3097 2075 3097 
Q 1594 3097 1305 2825 
Q 1016 2553 972 2059 
L 3022 2063 
z
" transform="scale(0.015625)"/>
       <path id="DejaVuSans-28" d="M 1984 4856 
Q 1566 4138 1362 3434 
Q 1159 2731 1159 2009 
Q 1159 1288 1364 580 
Q 1569 -128 1984 -844 
L 1484 -844 
Q 1016 -109 783 600 
Q 550 1309 550 2009 
Q 550 2706 781 3412 
Q 1013 4119 1484 4856 
L 1984 4856 
z
" transform="scale(0.015625)"/>
       <path id="DejaVuSans-Oblique-53" d="M 3859 4513 
L 3738 3897 
Q 3422 4066 3111 4152 
Q 2800 4238 2509 4238 
Q 1944 4238 1609 3991 
Q 1275 3744 1275 3334 
Q 1275 3109 1398 2989 
Q 1522 2869 2034 2731 
L 2413 2638 
Q 3053 2472 3303 2217 
Q 3553 1963 3553 1503 
Q 3553 797 2998 353 
Q 2444 -91 1538 -91 
Q 1166 -91 791 -17 
Q 416 56 38 206 
L 166 856 
Q 513 641 861 531 
Q 1209 422 1556 422 
Q 2147 422 2503 684 
Q 2859 947 2859 1369 
Q 2859 1650 2717 1795 
Q 2575 1941 2106 2059 
L 1728 2156 
Q 1081 2325 845 2545 
Q 609 2766 609 3163 
Q 609 3859 1145 4304 
Q 1681 4750 2541 4750 
Q 2875 4750 3203 4690 
Q 3531 4631 3859 4513 
z
" transform="scale(0.015625)"/>
       <path id="DejaVuSans-32" d="M 1228 531 
L 3431 531 
L 3431 0 
L 469 0 
L 469 531 
Q 828 903 1448 1529 
Q 2069 2156 2228 2338 
Q 2531 2678 2651 2914 
Q 2772 3150 2772 3378 
Q 2772 3750 2511 3984 
Q 2250 4219 1831 4219 
Q 1534 4219 1204 4116 
Q 875 4013 500 3803 
L 500 4441 
Q 881 4594 1212 4672 
Q 1544 4750 1819 4750 
Q 2544 4750 2975 4387 
Q 3406 4025 3406 3419 
Q 3406 3131 3298 2873 
Q 3191 2616 2906 2266 
Q 2828 2175 2409 1742 
Q 1991 1309 1228 531 
z
" transform="scale(0.015625)"/>
       <path id="DejaVuSans-29" d="M 513 4856 
L 1013 4856 
Q 1481 4119 1714 3412 
Q 1947 2706 1947 2009 
Q 1947 1309 1714 600 
Q 1481 -109 1013 -844 
L 513 -844 
Q 928 -128 1133 580 
Q 1338 1288 1338 2009 
Q 1338 2731 1133 3434 
Q 928 4138 513 4856 
z
" transform="scale(0.015625)"/>
       <path id="DejaVuSans-20" transform="scale(0.015625)"/>
       <path id="DejaVuSans-5b" d="M 550 4863 
L 1875 4863 
L 1875 4416 
L 1125 4416 
L 1125 -397 
L 1875 -397 
L 1875 -844 
L 550 -844 
L 550 4863 
z
" transform="scale(0.015625)"/>
       <path id="DejaVuSans-6d" d="M 3328 2828 
Q 3544 3216 3844 3400 
Q 4144 3584 4550 3584 
Q 5097 3584 5394 3201 
Q 5691 2819 5691 2113 
L 5691 0 
L 5113 0 
L 5113 2094 
Q 5113 2597 4934 2840 
Q 4756 3084 4391 3084 
Q 3944 3084 3684 2787 
Q 3425 2491 3425 1978 
L 3425 0 
L 2847 0 
L 2847 2094 
Q 2847 2600 2669 2842 
Q 2491 3084 2119 3084 
Q 1678 3084 1418 2786 
Q 1159 2488 1159 1978 
L 1159 0 
L 581 0 
L 581 3500 
L 1159 3500 
L 1159 2956 
Q 1356 3278 1631 3431 
Q 1906 3584 2284 3584 
Q 2666 3584 2933 3390 
Q 3200 3197 3328 2828 
z
" transform="scale(0.015625)"/>
       <path id="DejaVuSans-56" d="M 1831 0 
L 50 4666 
L 709 4666 
L 2188 738 
L 3669 4666 
L 4325 4666 
L 2547 0 
L 1831 0 
z
" transform="scale(0.015625)"/>
       <path id="DejaVuSans-5d" d="M 1947 4863 
L 1947 -844 
L 622 -844 
L 622 -397 
L 1369 -397 
L 1369 4416 
L 622 4416 
L 622 4863 
L 1947 4863 
z
" transform="scale(0.015625)"/>
      </defs>
      <use xlink:href="#DejaVuSans-52" transform="translate(0 0.015625)"/>
      <use xlink:href="#DejaVuSans-65" transform="translate(69.482422 0.015625)"/>
      <use xlink:href="#DejaVuSans-28" transform="translate(131.005859 0.015625)"/>
      <use xlink:href="#DejaVuSans-Oblique-53" transform="translate(170.019531 0.015625)"/>
      <use xlink:href="#DejaVuSans-32" transform="translate(233.496094 -16.390625) scale(0.7)"/>
      <use xlink:href="#DejaVuSans-31" transform="translate(278.032227 -16.390625) scale(0.7)"/>
      <use xlink:href="#DejaVuSans-29" transform="translate(325.302734 0.015625)"/>
      <use xlink:href="#DejaVuSans-20" transform="translate(364.316406 0.015625)"/>
      <use xlink:href="#DejaVuSans-5b" transform="translate(396.103516 0.015625)"/>
      <use xlink:href="#DejaVuSans-6d" transform="translate(435.117188 0.015625)"/>
      <use xlink:href="#DejaVuSans-56" transform="translate(532.529297 0.015625)"/>
      <use xlink:href="#DejaVuSans-5d" transform="translate(600.9375 0.015625)"/>
     </g>
    </g>
   </g>
   <g id="line2d_16">
    <path d="M 66.806165 59.380218 
L 73.331884 59.221107 
L 74.963314 59.067307 
L 78.226174 59.193041 
L 79.857604 59.073946 
L 83.120464 59.270568 
L 88.014753 59.503786 
L 89.646183 59.385271 
L 94.540473 59.657122 
L 97.803332 59.908551 
L 101.066192 60.024883 
L 104.329052 60.281493 
L 107.591912 60.559625 
L 109.223342 60.626124 
L 110.854771 60.902561 
L 112.486201 60.876044 
L 114.117631 61.206473 
L 115.749061 61.210644 
L 130.43193 63.052179 
L 132.06336 63.216024 
L 135.32622 63.738972 
L 138.589079 64.20957 
L 141.851939 64.723572 
L 145.114799 65.197956 
L 146.746229 65.533923 
L 148.377659 65.696135 
L 150.009088 66.063094 
L 153.271948 66.54156 
L 158.166238 67.52232 
L 166.323387 69.083277 
L 182.637686 72.793064 
L 185.900546 73.685479 
L 190.794835 75.006842 
L 194.057695 76.002724 
L 197.320555 77.0565 
L 202.214845 78.621859 
L 203.846274 79.196365 
L 205.477704 79.996905 
L 208.740564 81.160032 
L 210.371994 82.001695 
L 212.003424 82.573862 
L 213.634854 83.532591 
L 215.266284 85.167126 
L 218.529143 88.023177 
L 220.160573 89.729409 
L 221.792003 92.778398 
L 223.423433 95.276297 
L 225.054863 97.436364 
L 228.317723 102.920728 
L 229.949152 106.500325 
L 231.580582 110.822757 
L 233.212012 115.524932 
L 234.843442 121.997951 
L 239.737732 143.624848 
L 241.369162 147.366313 
L 243.000591 145.613188 
L 244.632021 138.133326 
L 246.263451 127.274079 
L 247.894881 115.357184 
L 249.526311 105.997097 
L 251.157741 99.043244 
L 252.789171 94.629583 
L 254.420601 91.922379 
L 256.05203 90.458685 
L 257.68346 89.618155 
L 259.31489 89.39202 
L 260.94632 89.524022 
L 262.57775 89.808211 
L 265.84061 90.791842 
L 272.366329 93.371691 
L 277.260619 95.483826 
L 287.049198 100.229832 
L 301.732067 106.786221 
L 303.363497 107.397803 
L 306.626357 109.188461 
L 313.152076 112.260312 
L 314.783506 112.897688 
L 316.414936 113.709928 
L 321.309226 116.53241 
L 322.940655 117.379233 
L 324.572085 118.464613 
L 331.097805 122.047924 
L 365.357832 141.925946 
L 366.989262 142.992028 
L 370.252122 144.845471 
L 371.883552 145.755963 
L 373.514982 146.795305 
L 378.409271 149.504796 
L 381.672131 151.496276 
L 391.46071 157.221818 
L 391.46071 157.221818 
" clip-path="url(#p2ccee938ef)" style="fill: none; stroke: #1f77b4; stroke-width: 1.5; stroke-linecap: square"/>
    <defs>
     <path id="m8640fae8de" d="M 0 1.5 
C 0.397805 1.5 0.77937 1.341951 1.06066 1.06066 
C 1.341951 0.77937 1.5 0.397805 1.5 0 
C 1.5 -0.397805 1.341951 -0.77937 1.06066 -1.06066 
C 0.77937 -1.341951 0.397805 -1.5 0 -1.5 
C -0.397805 -1.5 -0.77937 -1.341951 -1.06066 -1.06066 
C -1.341951 -0.77937 -1.5 -0.397805 -1.5 0 
C -1.5 0.397805 -1.341951 0.77937 -1.06066 1.06066 
C -0.77937 1.341951 -0.397805 1.5 0 1.5 
z
" style="stroke: #1f77b4"/>
    </defs>
    <g clip-path="url(#p2ccee938ef)">
     <use xlink:href="#m8640fae8de" x="66.806165" y="59.380218" style="fill: #1f77b4; stroke: #1f77b4"/>
     <use xlink:href="#m8640fae8de" x="68.437595" y="59.344431" style="fill: #1f77b4; stroke: #1f77b4"/>
     <use xlink:href="#m8640fae8de" x="70.069025" y="59.239576" style="fill: #1f77b4; stroke: #1f77b4"/>
     <use xlink:href="#m8640fae8de" x="71.700454" y="59.177856" style="fill: #1f77b4; stroke: #1f77b4"/>
     <use xlink:href="#m8640fae8de" x="73.331884" y="59.221107" style="fill: #1f77b4; stroke: #1f77b4"/>
     <use xlink:href="#m8640fae8de" x="74.963314" y="59.067307" style="fill: #1f77b4; stroke: #1f77b4"/>
     <use xlink:href="#m8640fae8de" x="76.594744" y="59.182105" style="fill: #1f77b4; stroke: #1f77b4"/>
     <use xlink:href="#m8640fae8de" x="78.226174" y="59.193041" style="fill: #1f77b4; stroke: #1f77b4"/>
     <use xlink:href="#m8640fae8de" x="79.857604" y="59.073946" style="fill: #1f77b4; stroke: #1f77b4"/>
     <use xlink:href="#m8640fae8de" x="81.489034" y="59.223939" style="fill: #1f77b4; stroke: #1f77b4"/>
     <use xlink:href="#m8640fae8de" x="83.120464" y="59.270568" style="fill: #1f77b4; stroke: #1f77b4"/>
     <use xlink:href="#m8640fae8de" x="84.751893" y="59.352012" style="fill: #1f77b4; stroke: #1f77b4"/>
     <use xlink:href="#m8640fae8de" x="86.383323" y="59.434595" style="fill: #1f77b4; stroke: #1f77b4"/>
     <use xlink:href="#m8640fae8de" x="88.014753" y="59.503786" style="fill: #1f77b4; stroke: #1f77b4"/>
     <use xlink:href="#m8640fae8de" x="89.646183" y="59.385271" style="fill: #1f77b4; stroke: #1f77b4"/>
     <use xlink:href="#m8640fae8de" x="91.277613" y="59.459454" style="fill: #1f77b4; stroke: #1f77b4"/>
     <use xlink:href="#m8640fae8de" x="92.909043" y="59.52756" style="fill: #1f77b4; stroke: #1f77b4"/>
     <use xlink:href="#m8640fae8de" x="94.540473" y="59.657122" style="fill: #1f77b4; stroke: #1f77b4"/>
     <use xlink:href="#m8640fae8de" x="96.171903" y="59.829114" style="fill: #1f77b4; stroke: #1f77b4"/>
     <use xlink:href="#m8640fae8de" x="97.803332" y="59.908551" style="fill: #1f77b4; stroke: #1f77b4"/>
     <use xlink:href="#m8640fae8de" x="99.434762" y="60.015347" style="fill: #1f77b4; stroke: #1f77b4"/>
     <use xlink:href="#m8640fae8de" x="101.066192" y="60.024883" style="fill: #1f77b4; stroke: #1f77b4"/>
     <use xlink:href="#m8640fae8de" x="102.697622" y="60.11593" style="fill: #1f77b4; stroke: #1f77b4"/>
     <use xlink:href="#m8640fae8de" x="104.329052" y="60.281493" style="fill: #1f77b4; stroke: #1f77b4"/>
     <use xlink:href="#m8640fae8de" x="105.960482" y="60.440948" style="fill: #1f77b4; stroke: #1f77b4"/>
     <use xlink:href="#m8640fae8de" x="107.591912" y="60.559625" style="fill: #1f77b4; stroke: #1f77b4"/>
     <use xlink:href="#m8640fae8de" x="109.223342" y="60.626124" style="fill: #1f77b4; stroke: #1f77b4"/>
     <use xlink:href="#m8640fae8de" x="110.854771" y="60.902561" style="fill: #1f77b4; stroke: #1f77b4"/>
     <use xlink:href="#m8640fae8de" x="112.486201" y="60.876044" style="fill: #1f77b4; stroke: #1f77b4"/>
     <use xlink:href="#m8640fae8de" x="114.117631" y="61.206473" style="fill: #1f77b4; stroke: #1f77b4"/>
     <use xlink:href="#m8640fae8de" x="115.749061" y="61.210644" style="fill: #1f77b4; stroke: #1f77b4"/>
     <use xlink:href="#m8640fae8de" x="117.380491" y="61.426225" style="fill: #1f77b4; stroke: #1f77b4"/>
     <use xlink:href="#m8640fae8de" x="119.011921" y="61.643705" style="fill: #1f77b4; stroke: #1f77b4"/>
     <use xlink:href="#m8640fae8de" x="120.643351" y="61.848708" style="fill: #1f77b4; stroke: #1f77b4"/>
     <use xlink:href="#m8640fae8de" x="122.274781" y="62.073839" style="fill: #1f77b4; stroke: #1f77b4"/>
     <use xlink:href="#m8640fae8de" x="123.90621" y="62.218183" style="fill: #1f77b4; stroke: #1f77b4"/>
     <use xlink:href="#m8640fae8de" x="125.53764" y="62.392506" style="fill: #1f77b4; stroke: #1f77b4"/>
     <use xlink:href="#m8640fae8de" x="127.16907" y="62.692193" style="fill: #1f77b4; stroke: #1f77b4"/>
     <use xlink:href="#m8640fae8de" x="128.8005" y="62.843875" style="fill: #1f77b4; stroke: #1f77b4"/>
     <use xlink:href="#m8640fae8de" x="130.43193" y="63.052179" style="fill: #1f77b4; stroke: #1f77b4"/>
     <use xlink:href="#m8640fae8de" x="132.06336" y="63.216024" style="fill: #1f77b4; stroke: #1f77b4"/>
     <use xlink:href="#m8640fae8de" x="133.69479" y="63.510748" style="fill: #1f77b4; stroke: #1f77b4"/>
     <use xlink:href="#m8640fae8de" x="135.32622" y="63.738972" style="fill: #1f77b4; stroke: #1f77b4"/>
     <use xlink:href="#m8640fae8de" x="136.957649" y="63.936953" style="fill: #1f77b4; stroke: #1f77b4"/>
     <use xlink:href="#m8640fae8de" x="138.589079" y="64.20957" style="fill: #1f77b4; stroke: #1f77b4"/>
     <use xlink:href="#m8640fae8de" x="140.220509" y="64.489067" style="fill: #1f77b4; stroke: #1f77b4"/>
     <use xlink:href="#m8640fae8de" x="141.851939" y="64.723572" style="fill: #1f77b4; stroke: #1f77b4"/>
     <use xlink:href="#m8640fae8de" x="143.483369" y="64.921727" style="fill: #1f77b4; stroke: #1f77b4"/>
     <use xlink:href="#m8640fae8de" x="145.114799" y="65.197956" style="fill: #1f77b4; stroke: #1f77b4"/>
     <use xlink:href="#m8640fae8de" x="146.746229" y="65.533923" style="fill: #1f77b4; stroke: #1f77b4"/>
     <use xlink:href="#m8640fae8de" x="148.377659" y="65.696135" style="fill: #1f77b4; stroke: #1f77b4"/>
     <use xlink:href="#m8640fae8de" x="150.009088" y="66.063094" style="fill: #1f77b4; stroke: #1f77b4"/>
     <use xlink:href="#m8640fae8de" x="151.640518" y="66.285302" style="fill: #1f77b4; stroke: #1f77b4"/>
     <use xlink:href="#m8640fae8de" x="153.271948" y="66.54156" style="fill: #1f77b4; stroke: #1f77b4"/>
     <use xlink:href="#m8640fae8de" x="154.903378" y="66.898618" style="fill: #1f77b4; stroke: #1f77b4"/>
     <use xlink:href="#m8640fae8de" x="156.534808" y="67.167304" style="fill: #1f77b4; stroke: #1f77b4"/>
     <use xlink:href="#m8640fae8de" x="158.166238" y="67.52232" style="fill: #1f77b4; stroke: #1f77b4"/>
     <use xlink:href="#m8640fae8de" x="159.797668" y="67.819855" style="fill: #1f77b4; stroke: #1f77b4"/>
     <use xlink:href="#m8640fae8de" x="161.429098" y="68.112885" style="fill: #1f77b4; stroke: #1f77b4"/>
     <use xlink:href="#m8640fae8de" x="163.060527" y="68.412929" style="fill: #1f77b4; stroke: #1f77b4"/>
     <use xlink:href="#m8640fae8de" x="164.691957" y="68.714201" style="fill: #1f77b4; stroke: #1f77b4"/>
     <use xlink:href="#m8640fae8de" x="166.323387" y="69.083277" style="fill: #1f77b4; stroke: #1f77b4"/>
     <use xlink:href="#m8640fae8de" x="167.954817" y="69.447978" style="fill: #1f77b4; stroke: #1f77b4"/>
     <use xlink:href="#m8640fae8de" x="169.586247" y="69.76544" style="fill: #1f77b4; stroke: #1f77b4"/>
     <use xlink:href="#m8640fae8de" x="171.217677" y="70.152281" style="fill: #1f77b4; stroke: #1f77b4"/>
     <use xlink:href="#m8640fae8de" x="172.849107" y="70.521858" style="fill: #1f77b4; stroke: #1f77b4"/>
     <use xlink:href="#m8640fae8de" x="174.480537" y="70.857922" style="fill: #1f77b4; stroke: #1f77b4"/>
     <use xlink:href="#m8640fae8de" x="176.111967" y="71.238505" style="fill: #1f77b4; stroke: #1f77b4"/>
     <use xlink:href="#m8640fae8de" x="177.743396" y="71.656678" style="fill: #1f77b4; stroke: #1f77b4"/>
     <use xlink:href="#m8640fae8de" x="179.374826" y="72.015577" style="fill: #1f77b4; stroke: #1f77b4"/>
     <use xlink:href="#m8640fae8de" x="181.006256" y="72.455116" style="fill: #1f77b4; stroke: #1f77b4"/>
     <use xlink:href="#m8640fae8de" x="182.637686" y="72.793064" style="fill: #1f77b4; stroke: #1f77b4"/>
     <use xlink:href="#m8640fae8de" x="184.269116" y="73.284887" style="fill: #1f77b4; stroke: #1f77b4"/>
     <use xlink:href="#m8640fae8de" x="185.900546" y="73.685479" style="fill: #1f77b4; stroke: #1f77b4"/>
     <use xlink:href="#m8640fae8de" x="187.531976" y="74.094706" style="fill: #1f77b4; stroke: #1f77b4"/>
     <use xlink:href="#m8640fae8de" x="189.163406" y="74.561824" style="fill: #1f77b4; stroke: #1f77b4"/>
     <use xlink:href="#m8640fae8de" x="190.794835" y="75.006842" style="fill: #1f77b4; stroke: #1f77b4"/>
     <use xlink:href="#m8640fae8de" x="192.426265" y="75.557279" style="fill: #1f77b4; stroke: #1f77b4"/>
     <use xlink:href="#m8640fae8de" x="194.057695" y="76.002724" style="fill: #1f77b4; stroke: #1f77b4"/>
     <use xlink:href="#m8640fae8de" x="195.689125" y="76.480621" style="fill: #1f77b4; stroke: #1f77b4"/>
     <use xlink:href="#m8640fae8de" x="197.320555" y="77.0565" style="fill: #1f77b4; stroke: #1f77b4"/>
     <use xlink:href="#m8640fae8de" x="198.951985" y="77.55523" style="fill: #1f77b4; stroke: #1f77b4"/>
     <use xlink:href="#m8640fae8de" x="200.583415" y="78.083709" style="fill: #1f77b4; stroke: #1f77b4"/>
     <use xlink:href="#m8640fae8de" x="202.214845" y="78.621859" style="fill: #1f77b4; stroke: #1f77b4"/>
     <use xlink:href="#m8640fae8de" x="203.846274" y="79.196365" style="fill: #1f77b4; stroke: #1f77b4"/>
     <use xlink:href="#m8640fae8de" x="205.477704" y="79.996905" style="fill: #1f77b4; stroke: #1f77b4"/>
     <use xlink:href="#m8640fae8de" x="207.109134" y="80.618298" style="fill: #1f77b4; stroke: #1f77b4"/>
     <use xlink:href="#m8640fae8de" x="208.740564" y="81.160032" style="fill: #1f77b4; stroke: #1f77b4"/>
     <use xlink:href="#m8640fae8de" x="210.371994" y="82.001695" style="fill: #1f77b4; stroke: #1f77b4"/>
     <use xlink:href="#m8640fae8de" x="212.003424" y="82.573862" style="fill: #1f77b4; stroke: #1f77b4"/>
     <use xlink:href="#m8640fae8de" x="213.634854" y="83.532591" style="fill: #1f77b4; stroke: #1f77b4"/>
     <use xlink:href="#m8640fae8de" x="215.266284" y="85.167126" style="fill: #1f77b4; stroke: #1f77b4"/>
     <use xlink:href="#m8640fae8de" x="216.897713" y="86.633345" style="fill: #1f77b4; stroke: #1f77b4"/>
     <use xlink:href="#m8640fae8de" x="218.529143" y="88.023177" style="fill: #1f77b4; stroke: #1f77b4"/>
     <use xlink:href="#m8640fae8de" x="220.160573" y="89.729409" style="fill: #1f77b4; stroke: #1f77b4"/>
     <use xlink:href="#m8640fae8de" x="221.792003" y="92.778398" style="fill: #1f77b4; stroke: #1f77b4"/>
     <use xlink:href="#m8640fae8de" x="223.423433" y="95.276297" style="fill: #1f77b4; stroke: #1f77b4"/>
     <use xlink:href="#m8640fae8de" x="225.054863" y="97.436364" style="fill: #1f77b4; stroke: #1f77b4"/>
     <use xlink:href="#m8640fae8de" x="226.686293" y="100.112148" style="fill: #1f77b4; stroke: #1f77b4"/>
     <use xlink:href="#m8640fae8de" x="228.317723" y="102.920728" style="fill: #1f77b4; stroke: #1f77b4"/>
     <use xlink:href="#m8640fae8de" x="229.949152" y="106.500325" style="fill: #1f77b4; stroke: #1f77b4"/>
     <use xlink:href="#m8640fae8de" x="231.580582" y="110.822757" style="fill: #1f77b4; stroke: #1f77b4"/>
     <use xlink:href="#m8640fae8de" x="233.212012" y="115.524932" style="fill: #1f77b4; stroke: #1f77b4"/>
     <use xlink:href="#m8640fae8de" x="234.843442" y="121.997951" style="fill: #1f77b4; stroke: #1f77b4"/>
     <use xlink:href="#m8640fae8de" x="236.474872" y="129.184914" style="fill: #1f77b4; stroke: #1f77b4"/>
     <use xlink:href="#m8640fae8de" x="238.106302" y="136.799955" style="fill: #1f77b4; stroke: #1f77b4"/>
     <use xlink:href="#m8640fae8de" x="239.737732" y="143.624848" style="fill: #1f77b4; stroke: #1f77b4"/>
     <use xlink:href="#m8640fae8de" x="241.369162" y="147.366313" style="fill: #1f77b4; stroke: #1f77b4"/>
     <use xlink:href="#m8640fae8de" x="243.000591" y="145.613188" style="fill: #1f77b4; stroke: #1f77b4"/>
     <use xlink:href="#m8640fae8de" x="244.632021" y="138.133326" style="fill: #1f77b4; stroke: #1f77b4"/>
     <use xlink:href="#m8640fae8de" x="246.263451" y="127.274079" style="fill: #1f77b4; stroke: #1f77b4"/>
     <use xlink:href="#m8640fae8de" x="247.894881" y="115.357184" style="fill: #1f77b4; stroke: #1f77b4"/>
     <use xlink:href="#m8640fae8de" x="249.526311" y="105.997097" style="fill: #1f77b4; stroke: #1f77b4"/>
     <use xlink:href="#m8640fae8de" x="251.157741" y="99.043244" style="fill: #1f77b4; stroke: #1f77b4"/>
     <use xlink:href="#m8640fae8de" x="252.789171" y="94.629583" style="fill: #1f77b4; stroke: #1f77b4"/>
     <use xlink:href="#m8640fae8de" x="254.420601" y="91.922379" style="fill: #1f77b4; stroke: #1f77b4"/>
     <use xlink:href="#m8640fae8de" x="256.05203" y="90.458685" style="fill: #1f77b4; stroke: #1f77b4"/>
     <use xlink:href="#m8640fae8de" x="257.68346" y="89.618155" style="fill: #1f77b4; stroke: #1f77b4"/>
     <use xlink:href="#m8640fae8de" x="259.31489" y="89.39202" style="fill: #1f77b4; stroke: #1f77b4"/>
     <use xlink:href="#m8640fae8de" x="260.94632" y="89.524022" style="fill: #1f77b4; stroke: #1f77b4"/>
     <use xlink:href="#m8640fae8de" x="262.57775" y="89.808211" style="fill: #1f77b4; stroke: #1f77b4"/>
     <use xlink:href="#m8640fae8de" x="264.20918" y="90.279229" style="fill: #1f77b4; stroke: #1f77b4"/>
     <use xlink:href="#m8640fae8de" x="265.84061" y="90.791842" style="fill: #1f77b4; stroke: #1f77b4"/>
     <use xlink:href="#m8640fae8de" x="267.47204" y="91.41699" style="fill: #1f77b4; stroke: #1f77b4"/>
     <use xlink:href="#m8640fae8de" x="269.103469" y="91.988672" style="fill: #1f77b4; stroke: #1f77b4"/>
     <use xlink:href="#m8640fae8de" x="270.734899" y="92.724612" style="fill: #1f77b4; stroke: #1f77b4"/>
     <use xlink:href="#m8640fae8de" x="272.366329" y="93.371691" style="fill: #1f77b4; stroke: #1f77b4"/>
     <use xlink:href="#m8640fae8de" x="273.997759" y="94.040555" style="fill: #1f77b4; stroke: #1f77b4"/>
     <use xlink:href="#m8640fae8de" x="275.629189" y="94.782629" style="fill: #1f77b4; stroke: #1f77b4"/>
     <use xlink:href="#m8640fae8de" x="277.260619" y="95.483826" style="fill: #1f77b4; stroke: #1f77b4"/>
     <use xlink:href="#m8640fae8de" x="278.892049" y="96.291941" style="fill: #1f77b4; stroke: #1f77b4"/>
     <use xlink:href="#m8640fae8de" x="280.523479" y="97.121172" style="fill: #1f77b4; stroke: #1f77b4"/>
     <use xlink:href="#m8640fae8de" x="282.154908" y="97.867062" style="fill: #1f77b4; stroke: #1f77b4"/>
     <use xlink:href="#m8640fae8de" x="283.786338" y="98.646116" style="fill: #1f77b4; stroke: #1f77b4"/>
     <use xlink:href="#m8640fae8de" x="285.417768" y="99.430295" style="fill: #1f77b4; stroke: #1f77b4"/>
     <use xlink:href="#m8640fae8de" x="287.049198" y="100.229832" style="fill: #1f77b4; stroke: #1f77b4"/>
     <use xlink:href="#m8640fae8de" x="288.680628" y="100.964974" style="fill: #1f77b4; stroke: #1f77b4"/>
     <use xlink:href="#m8640fae8de" x="290.312058" y="101.614466" style="fill: #1f77b4; stroke: #1f77b4"/>
     <use xlink:href="#m8640fae8de" x="291.943488" y="102.414537" style="fill: #1f77b4; stroke: #1f77b4"/>
     <use xlink:href="#m8640fae8de" x="293.574918" y="103.097141" style="fill: #1f77b4; stroke: #1f77b4"/>
     <use xlink:href="#m8640fae8de" x="295.206348" y="103.831505" style="fill: #1f77b4; stroke: #1f77b4"/>
     <use xlink:href="#m8640fae8de" x="296.837777" y="104.630557" style="fill: #1f77b4; stroke: #1f77b4"/>
     <use xlink:href="#m8640fae8de" x="298.469207" y="105.3543" style="fill: #1f77b4; stroke: #1f77b4"/>
     <use xlink:href="#m8640fae8de" x="300.100637" y="106.035025" style="fill: #1f77b4; stroke: #1f77b4"/>
     <use xlink:href="#m8640fae8de" x="301.732067" y="106.786221" style="fill: #1f77b4; stroke: #1f77b4"/>
     <use xlink:href="#m8640fae8de" x="303.363497" y="107.397803" style="fill: #1f77b4; stroke: #1f77b4"/>
     <use xlink:href="#m8640fae8de" x="304.994927" y="108.357512" style="fill: #1f77b4; stroke: #1f77b4"/>
     <use xlink:href="#m8640fae8de" x="306.626357" y="109.188461" style="fill: #1f77b4; stroke: #1f77b4"/>
     <use xlink:href="#m8640fae8de" x="308.257787" y="109.964184" style="fill: #1f77b4; stroke: #1f77b4"/>
     <use xlink:href="#m8640fae8de" x="309.889216" y="110.725583" style="fill: #1f77b4; stroke: #1f77b4"/>
     <use xlink:href="#m8640fae8de" x="311.520646" y="111.520326" style="fill: #1f77b4; stroke: #1f77b4"/>
     <use xlink:href="#m8640fae8de" x="313.152076" y="112.260312" style="fill: #1f77b4; stroke: #1f77b4"/>
     <use xlink:href="#m8640fae8de" x="314.783506" y="112.897688" style="fill: #1f77b4; stroke: #1f77b4"/>
     <use xlink:href="#m8640fae8de" x="316.414936" y="113.709928" style="fill: #1f77b4; stroke: #1f77b4"/>
     <use xlink:href="#m8640fae8de" x="318.046366" y="114.692497" style="fill: #1f77b4; stroke: #1f77b4"/>
     <use xlink:href="#m8640fae8de" x="319.677796" y="115.630177" style="fill: #1f77b4; stroke: #1f77b4"/>
     <use xlink:href="#m8640fae8de" x="321.309226" y="116.53241" style="fill: #1f77b4; stroke: #1f77b4"/>
     <use xlink:href="#m8640fae8de" x="322.940655" y="117.379233" style="fill: #1f77b4; stroke: #1f77b4"/>
     <use xlink:href="#m8640fae8de" x="324.572085" y="118.464613" style="fill: #1f77b4; stroke: #1f77b4"/>
     <use xlink:href="#m8640fae8de" x="326.203515" y="119.332482" style="fill: #1f77b4; stroke: #1f77b4"/>
     <use xlink:href="#m8640fae8de" x="327.834945" y="120.200871" style="fill: #1f77b4; stroke: #1f77b4"/>
     <use xlink:href="#m8640fae8de" x="329.466375" y="121.130612" style="fill: #1f77b4; stroke: #1f77b4"/>
     <use xlink:href="#m8640fae8de" x="331.097805" y="122.047924" style="fill: #1f77b4; stroke: #1f77b4"/>
     <use xlink:href="#m8640fae8de" x="332.729235" y="122.991307" style="fill: #1f77b4; stroke: #1f77b4"/>
     <use xlink:href="#m8640fae8de" x="334.360665" y="123.941393" style="fill: #1f77b4; stroke: #1f77b4"/>
     <use xlink:href="#m8640fae8de" x="335.992094" y="124.863579" style="fill: #1f77b4; stroke: #1f77b4"/>
     <use xlink:href="#m8640fae8de" x="337.623524" y="125.803276" style="fill: #1f77b4; stroke: #1f77b4"/>
     <use xlink:href="#m8640fae8de" x="339.254954" y="126.707498" style="fill: #1f77b4; stroke: #1f77b4"/>
     <use xlink:href="#m8640fae8de" x="340.886384" y="127.728947" style="fill: #1f77b4; stroke: #1f77b4"/>
     <use xlink:href="#m8640fae8de" x="342.517814" y="128.691221" style="fill: #1f77b4; stroke: #1f77b4"/>
     <use xlink:href="#m8640fae8de" x="344.149244" y="129.651781" style="fill: #1f77b4; stroke: #1f77b4"/>
     <use xlink:href="#m8640fae8de" x="345.780674" y="130.554333" style="fill: #1f77b4; stroke: #1f77b4"/>
     <use xlink:href="#m8640fae8de" x="347.412104" y="131.543876" style="fill: #1f77b4; stroke: #1f77b4"/>
     <use xlink:href="#m8640fae8de" x="349.043533" y="132.462506" style="fill: #1f77b4; stroke: #1f77b4"/>
     <use xlink:href="#m8640fae8de" x="350.674963" y="133.403437" style="fill: #1f77b4; stroke: #1f77b4"/>
     <use xlink:href="#m8640fae8de" x="352.306393" y="134.308569" style="fill: #1f77b4; stroke: #1f77b4"/>
     <use xlink:href="#m8640fae8de" x="353.937823" y="135.295596" style="fill: #1f77b4; stroke: #1f77b4"/>
     <use xlink:href="#m8640fae8de" x="355.569253" y="136.213905" style="fill: #1f77b4; stroke: #1f77b4"/>
     <use xlink:href="#m8640fae8de" x="357.200683" y="137.116164" style="fill: #1f77b4; stroke: #1f77b4"/>
     <use xlink:href="#m8640fae8de" x="358.832113" y="138.136063" style="fill: #1f77b4; stroke: #1f77b4"/>
     <use xlink:href="#m8640fae8de" x="360.463543" y="139.082538" style="fill: #1f77b4; stroke: #1f77b4"/>
     <use xlink:href="#m8640fae8de" x="362.094972" y="140.077052" style="fill: #1f77b4; stroke: #1f77b4"/>
     <use xlink:href="#m8640fae8de" x="363.726402" y="140.999917" style="fill: #1f77b4; stroke: #1f77b4"/>
     <use xlink:href="#m8640fae8de" x="365.357832" y="141.925946" style="fill: #1f77b4; stroke: #1f77b4"/>
     <use xlink:href="#m8640fae8de" x="366.989262" y="142.992028" style="fill: #1f77b4; stroke: #1f77b4"/>
     <use xlink:href="#m8640fae8de" x="368.620692" y="143.860894" style="fill: #1f77b4; stroke: #1f77b4"/>
     <use xlink:href="#m8640fae8de" x="370.252122" y="144.845471" style="fill: #1f77b4; stroke: #1f77b4"/>
     <use xlink:href="#m8640fae8de" x="371.883552" y="145.755963" style="fill: #1f77b4; stroke: #1f77b4"/>
     <use xlink:href="#m8640fae8de" x="373.514982" y="146.795305" style="fill: #1f77b4; stroke: #1f77b4"/>
     <use xlink:href="#m8640fae8de" x="375.146411" y="147.658599" style="fill: #1f77b4; stroke: #1f77b4"/>
     <use xlink:href="#m8640fae8de" x="376.777841" y="148.620989" style="fill: #1f77b4; stroke: #1f77b4"/>
     <use xlink:href="#m8640fae8de" x="378.409271" y="149.504796" style="fill: #1f77b4; stroke: #1f77b4"/>
     <use xlink:href="#m8640fae8de" x="380.040701" y="150.541294" style="fill: #1f77b4; stroke: #1f77b4"/>
     <use xlink:href="#m8640fae8de" x="381.672131" y="151.496276" style="fill: #1f77b4; stroke: #1f77b4"/>
     <use xlink:href="#m8640fae8de" x="383.303561" y="152.454498" style="fill: #1f77b4; stroke: #1f77b4"/>
     <use xlink:href="#m8640fae8de" x="384.934991" y="153.417936" style="fill: #1f77b4; stroke: #1f77b4"/>
     <use xlink:href="#m8640fae8de" x="386.566421" y="154.388545" style="fill: #1f77b4; stroke: #1f77b4"/>
     <use xlink:href="#m8640fae8de" x="388.19785" y="155.269181" style="fill: #1f77b4; stroke: #1f77b4"/>
     <use xlink:href="#m8640fae8de" x="389.82928" y="156.227723" style="fill: #1f77b4; stroke: #1f77b4"/>
     <use xlink:href="#m8640fae8de" x="391.46071" y="157.221818" style="fill: #1f77b4; stroke: #1f77b4"/>
    </g>
   </g>
   <g id="line2d_17">
    <path d="M 66.806165 47.258182 
L 75.905591 47.818259 
L 85.005018 48.606025 
L 94.104445 49.621821 
L 103.203872 50.865944 
L 112.303298 52.338866 
L 121.402725 54.041556 
L 130.502152 55.975948 
L 139.276599 58.064053 
L 148.051046 60.376631 
L 156.825493 62.923272 
L 165.274961 65.611664 
L 173.074469 68.319206 
L 180.548999 71.14579 
L 187.373569 73.961228 
L 193.54818 76.746215 
L 199.072831 79.481596 
L 203.947524 82.144207 
L 208.172258 84.701307 
L 211.747033 87.104215 
L 214.996828 89.539342 
L 217.921644 91.998525 
L 220.52148 94.462267 
L 222.796337 96.895006 
L 225.071193 99.659792 
L 227.021071 102.365094 
L 228.970948 105.461231 
L 230.920825 109.044217 
L 232.545723 112.481227 
L 234.17062 116.393495 
L 236.120497 121.752458 
L 240.670211 135.075175 
L 241.32017 136.362509 
L 241.970129 137.198943 
L 242.295108 137.405291 
L 242.620088 137.447605 
L 242.945067 137.309869 
L 243.270047 136.977804 
L 243.920006 135.687143 
L 244.569965 133.526645 
L 245.219924 130.521927 
L 246.194863 124.691127 
L 250.094617 98.744554 
L 251.069555 94.214741 
L 252.044494 90.727661 
L 253.019433 88.15421 
L 253.994371 86.332905 
L 254.96931 85.107351 
L 255.944248 84.342485 
L 256.919187 83.928632 
L 257.894125 83.779817 
L 258.869064 83.830004 
L 260.168982 84.121633 
L 261.79388 84.731607 
L 264.068736 85.857461 
L 267.643511 87.922157 
L 283.567508 97.388331 
L 292.016976 102.033693 
L 301.766361 107.130629 
L 313.465624 112.986799 
L 327.114764 119.563097 
L 342.063822 126.515034 
L 357.012881 133.225384 
L 371.636959 139.547771 
L 385.286099 145.212745 
L 391.46071 147.694135 
L 391.46071 147.694135 
" clip-path="url(#p2ccee938ef)" style="fill: none; stroke: #d62728; stroke-width: 1.5; stroke-linecap: square"/>
   </g>
   <g id="patch_3">
    <path d="M 50.573438 162.72 
L 50.573438 41.76 
" style="fill: none; stroke: #000000; stroke-width: 0.8; stroke-linejoin: miter; stroke-linecap: square"/>
   </g>
   <g id="patch_4">
    <path d="M 407.693438 162.72 
L 407.693438 41.76 
" style="fill: none; stroke: #000000; stroke-width: 0.8; stroke-linejoin: miter; stroke-linecap: square"/>
   </g>
   <g id="patch_5">
    <path d="M 50.573438 162.72 
L 407.693438 162.72 
" style="fill: none; stroke: #000000; stroke-width: 0.8; stroke-linejoin: miter; stroke-linecap: square"/>
   </g>
   <g id="patch_6">
    <path d="M 50.573438 41.76 
L 407.693438 41.76 
" style="fill: none; stroke: #000000; stroke-width: 0.8; stroke-linejoin: miter; stroke-linecap: square"/>
   </g>
   <g id="text_8">
    <g id="patch_7">
     <path d="M 425.549438 72.683938 
L 585.65725 72.683938 
Q 589.65725 72.683938 589.65725 68.683938 
L 589.65725 47.808 
Q 589.65725 43.808 585.65725 43.808 
L 425.549438 43.808 
Q 421.549438 43.808 421.549438 47.808 
L 421.549438 68.683938 
Q 421.549438 72.683938 425.549438 72.683938 
z
" style="fill: #ffffff; opacity: 0.5; stroke: #000000; stroke-linejoin: miter"/>
    </g>
    <!-- Warning: fit failed. lmfit was not -->
    <g transform="translate(425.549438 55.406437) scale(0.1 -0.1)">
     <defs>
      <path id="DejaVuSans-57" d="M 213 4666 
L 850 4666 
L 1831 722 
L 2809 4666 
L 3519 4666 
L 4500 722 
L 5478 4666 
L 6119 4666 
L 4947 0 
L 4153 0 
L 3169 4050 
L 2175 0 
L 1381 0 
L 213 4666 
z
" transform="scale(0.015625)"/>
      <path id="DejaVuSans-61" d="M 2194 1759 
Q 1497 1759 1228 1600 
Q 959 1441 959 1056 
Q 959 750 1161 570 
Q 1363 391 1709 391 
Q 2188 391 2477 730 
Q 2766 1069 2766 1631 
L 2766 1759 
L 2194 1759 
z
M 3341 1997 
L 3341 0 
L 2766 0 
L 2766 531 
Q 2569 213 2275 61 
Q 1981 -91 1556 -91 
Q 1019 -91 701 211 
Q 384 513 384 1019 
Q 384 1609 779 1909 
Q 1175 2209 1959 2209 
L 2766 2209 
L 2766 2266 
Q 2766 2663 2505 2880 
Q 2244 3097 1772 3097 
Q 1472 3097 1187 3025 
Q 903 2953 641 2809 
L 641 3341 
Q 956 3463 1253 3523 
Q 1550 3584 1831 3584 
Q 2591 3584 2966 3190 
Q 3341 2797 3341 1997 
z
" transform="scale(0.015625)"/>
      <path id="DejaVuSans-72" d="M 2631 2963 
Q 2534 3019 2420 3045 
Q 2306 3072 2169 3072 
Q 1681 3072 1420 2755 
Q 1159 2438 1159 1844 
L 1159 0 
L 581 0 
L 581 3500 
L 1159 3500 
L 1159 2956 
Q 1341 3275 1631 3429 
Q 1922 3584 2338 3584 
Q 2397 3584 2469 3576 
Q 2541 3569 2628 3553 
L 2631 2963 
z
" transform="scale(0.015625)"/>
      <path id="DejaVuSans-6e" d="M 3513 2113 
L 3513 0 
L 2938 0 
L 2938 2094 
Q 2938 2591 2744 2837 
Q 2550 3084 2163 3084 
Q 1697 3084 1428 2787 
Q 1159 2491 1159 1978 
L 1159 0 
L 581 0 
L 581 3500 
L 1159 3500 
L 1159 2956 
Q 1366 3272 1645 3428 
Q 1925 3584 2291 3584 
Q 2894 3584 3203 3211 
Q 3513 2838 3513 2113 
z
" transform="scale(0.015625)"/>
      <path id="DejaVuSans-69" d="M 603 3500 
L 1178 3500 
L 1178 0 
L 603 0 
L 603 3500 
z
M 603 4863 
L 1178 4863 
L 1178 4134 
L 603 4134 
L 603 4863 
z
" transform="scale(0.015625)"/>
      <path id="DejaVuSans-67" d="M 2906 1791 
Q 2906 2416 2648 2759 
Q 2391 3103 1925 3103 
Q 1463 3103 1205 2759 
Q 947 2416 947 1791 
Q 947 1169 1205 825 
Q 1463 481 1925 481 
Q 2391 481 2648 825 
Q 2906 1169 2906 1791 
z
M 3481 434 
Q 3481 -459 3084 -895 
Q 2688 -1331 1869 -1331 
Q 1566 -1331 1297 -1286 
Q 1028 -1241 775 -1147 
L 775 -588 
Q 1028 -725 1275 -790 
Q 1522 -856 1778 -856 
Q 2344 -856 2625 -561 
Q 2906 -266 2906 331 
L 2906 616 
Q 2728 306 2450 153 
Q 2172 0 1784 0 
Q 1141 0 747 490 
Q 353 981 353 1791 
Q 353 2603 747 3093 
Q 1141 3584 1784 3584 
Q 2172 3584 2450 3431 
Q 2728 3278 2906 2969 
L 2906 3500 
L 3481 3500 
L 3481 434 
z
" transform="scale(0.015625)"/>
      <path id="DejaVuSans-3a" d="M 750 794 
L 1409 794 
L 1409 0 
L 750 0 
L 750 794 
z
M 750 3309 
L 1409 3309 
L 1409 2516 
L 750 2516 
L 750 3309 
z
" transform="scale(0.015625)"/>
      <path id="DejaVuSans-66" d="M 2375 4863 
L 2375 4384 
L 1825 4384 
Q 1516 4384 1395 4259 
Q 1275 4134 1275 3809 
L 1275 3500 
L 2222 3500 
L 2222 3053 
L 1275 3053 
L 1275 0 
L 697 0 
L 697 3053 
L 147 3053 
L 147 3500 
L 697 3500 
L 697 3744 
Q 697 4328 969 4595 
Q 1241 4863 1831 4863 
L 2375 4863 
z
" transform="scale(0.015625)"/>
      <path id="DejaVuSans-74" d="M 1172 4494 
L 1172 3500 
L 2356 3500 
L 2356 3053 
L 1172 3053 
L 1172 1153 
Q 1172 725 1289 603 
Q 1406 481 1766 481 
L 2356 481 
L 2356 0 
L 1766 0 
Q 1100 0 847 248 
Q 594 497 594 1153 
L 594 3053 
L 172 3053 
L 172 3500 
L 594 3500 
L 594 4494 
L 1172 4494 
z
" transform="scale(0.015625)"/>
      <path id="DejaVuSans-6c" d="M 603 4863 
L 1178 4863 
L 1178 0 
L 603 0 
L 603 4863 
z
" transform="scale(0.015625)"/>
      <path id="DejaVuSans-64" d="M 2906 2969 
L 2906 4863 
L 3481 4863 
L 3481 0 
L 2906 0 
L 2906 525 
Q 2725 213 2448 61 
Q 2172 -91 1784 -91 
Q 1150 -91 751 415 
Q 353 922 353 1747 
Q 353 2572 751 3078 
Q 1150 3584 1784 3584 
Q 2172 3584 2448 3432 
Q 2725 3281 2906 2969 
z
M 947 1747 
Q 947 1113 1208 752 
Q 1469 391 1925 391 
Q 2381 391 2643 752 
Q 2906 1113 2906 1747 
Q 2906 2381 2643 2742 
Q 2381 3103 1925 3103 
Q 1469 3103 1208 2742 
Q 947 2381 947 1747 
z
" transform="scale(0.015625)"/>
      <path id="DejaVuSans-2e" d="M 684 794 
L 1344 794 
L 1344 0 
L 684 0 
L 684 794 
z
" transform="scale(0.015625)"/>
      <path id="DejaVuSans-77" d="M 269 3500 
L 844 3500 
L 1563 769 
L 2278 3500 
L 2956 3500 
L 3675 769 
L 4391 3500 
L 4966 3500 
L 4050 0 
L 3372 0 
L 2619 2869 
L 1863 0 
L 1184 0 
L 269 3500 
z
" transform="scale(0.015625)"/>
      <path id="DejaVuSans-73" d="M 2834 3397 
L 2834 2853 
Q 2591 2978 2328 3040 
Q 2066 3103 1784 3103 
Q 1356 3103 1142 2972 
Q 928 2841 928 2578 
Q 928 2378 1081 2264 
Q 1234 2150 1697 2047 
L 1894 2003 
Q 2506 1872 2764 1633 
Q 3022 1394 3022 966 
Q 3022 478 2636 193 
Q 2250 -91 1575 -91 
Q 1294 -91 989 -36 
Q 684 19 347 128 
L 347 722 
Q 666 556 975 473 
Q 1284 391 1588 391 
Q 1994 391 2212 530 
Q 2431 669 2431 922 
Q 2431 1156 2273 1281 
Q 2116 1406 1581 1522 
L 1381 1569 
Q 847 1681 609 1914 
Q 372 2147 372 2553 
Q 372 3047 722 3315 
Q 1072 3584 1716 3584 
Q 2034 3584 2315 3537 
Q 2597 3491 2834 3397 
z
" transform="scale(0.015625)"/>
      <path id="DejaVuSans-6f" d="M 1959 3097 
Q 1497 3097 1228 2736 
Q 959 2375 959 1747 
Q 959 1119 1226 758 
Q 1494 397 1959 397 
Q 2419 397 2687 759 
Q 2956 1122 2956 1747 
Q 2956 2369 2687 2733 
Q 2419 3097 1959 3097 
z
M 1959 3584 
Q 2709 3584 3137 3096 
Q 3566 2609 3566 1747 
Q 3566 888 3137 398 
Q 2709 -91 1959 -91 
Q 1206 -91 779 398 
Q 353 888 353 1747 
Q 353 2609 779 3096 
Q 1206 3584 1959 3584 
z
" transform="scale(0.015625)"/>
     </defs>
     <use xlink:href="#DejaVuSans-57"/>
     <use xlink:href="#DejaVuSans-61" x="92.501953"/>
     <use xlink:href="#DejaVuSans-72" x="153.78125"/>
     <use xlink:href="#DejaVuSans-6e" x="193.144531"/>
     <use xlink:href="#DejaVuSans-69" x="256.523438"/>
     <use xlink:href="#DejaVuSans-6e" x="284.306641"/>
     <use xlink:href="#DejaVuSans-67" x="347.685547"/>
     <use xlink:href="#DejaVuSans-3a" x="411.162109"/>
     <use xlink:href="#DejaVuSans-20" x="444.853516"/>
     <use xlink:href="#DejaVuSans-66" x="476.640625"/>
     <use xlink:href="#DejaVuSans-69" x="511.845703"/>
     <use xlink:href="#DejaVuSans-74" x="539.628906"/>
     <use xlink:href="#DejaVuSans-20" x="578.837891"/>
     <use xlink:href="#DejaVuSans-66" x="610.625"/>
     <use xlink:href="#DejaVuSans-61" x="645.830078"/>
     <use xlink:href="#DejaVuSans-69" x="707.109375"/>
     <use xlink:href="#DejaVuSans-6c" x="734.892578"/>
     <use xlink:href="#DejaVuSans-65" x="762.675781"/>
     <use xlink:href="#DejaVuSans-64" x="824.199219"/>
     <use xlink:href="#DejaVuSans-2e" x="887.675781"/>
     <use xlink:href="#DejaVuSans-20" x="919.462891"/>
     <use xlink:href="#DejaVuSans-6c" x="951.25"/>
     <use xlink:href="#DejaVuSans-6d" x="979.033203"/>
     <use xlink:href="#DejaVuSans-66" x="1076.445312"/>
     <use xlink:href="#DejaVuSans-69" x="1111.650391"/>
     <use xlink:href="#DejaVuSans-74" x="1139.433594"/>
     <use xlink:href="#DejaVuSans-20" x="1178.642578"/>
     <use xlink:href="#DejaVuSans-77" x="1210.429688"/>
     <use xlink:href="#DejaVuSans-61" x="1292.216797"/>
     <use xlink:href="#DejaVuSans-73" x="1353.496094"/>
     <use xlink:href="#DejaVuSans-20" x="1405.595703"/>
     <use xlink:href="#DejaVuSans-6e" x="1437.382812"/>
     <use xlink:href="#DejaVuSans-6f" x="1500.761719"/>
     <use xlink:href="#DejaVuSans-74" x="1561.943359"/>
    </g>
    <!-- able to fit the data. -->
    <g transform="translate(425.549438 66.60425) scale(0.1 -0.1)">
     <defs>
      <path id="DejaVuSans-62" d="M 3116 1747 
Q 3116 2381 2855 2742 
Q 2594 3103 2138 3103 
Q 1681 3103 1420 2742 
Q 1159 2381 1159 1747 
Q 1159 1113 1420 752 
Q 1681 391 2138 391 
Q 2594 391 2855 752 
Q 3116 1113 3116 1747 
z
M 1159 2969 
Q 1341 3281 1617 3432 
Q 1894 3584 2278 3584 
Q 2916 3584 3314 3078 
Q 3713 2572 3713 1747 
Q 3713 922 3314 415 
Q 2916 -91 2278 -91 
Q 1894 -91 1617 61 
Q 1341 213 1159 525 
L 1159 0 
L 581 0 
L 581 4863 
L 1159 4863 
L 1159 2969 
z
" transform="scale(0.015625)"/>
      <path id="DejaVuSans-68" d="M 3513 2113 
L 3513 0 
L 2938 0 
L 2938 2094 
Q 2938 2591 2744 2837 
Q 2550 3084 2163 3084 
Q 1697 3084 1428 2787 
Q 1159 2491 1159 1978 
L 1159 0 
L 581 0 
L 581 4863 
L 1159 4863 
L 1159 2956 
Q 1366 3272 1645 3428 
Q 1925 3584 2291 3584 
Q 2894 3584 3203 3211 
Q 3513 2838 3513 2113 
z
" transform="scale(0.015625)"/>
     </defs>
     <use xlink:href="#DejaVuSans-61"/>
     <use xlink:href="#DejaVuSans-62" x="61.279297"/>
     <use xlink:href="#DejaVuSans-6c" x="124.755859"/>
     <use xlink:href="#DejaVuSans-65" x="152.539062"/>
     <use xlink:href="#DejaVuSans-20" x="214.0625"/>
     <use xlink:href="#DejaVuSans-74" x="245.849609"/>
     <use xlink:href="#DejaVuSans-6f" x="285.058594"/>
     <use xlink:href="#DejaVuSans-20" x="346.240234"/>
     <use xlink:href="#DejaVuSans-66" x="378.027344"/>
     <use xlink:href="#DejaVuSans-69" x="413.232422"/>
     <use xlink:href="#DejaVuSans-74" x="441.015625"/>
     <use xlink:href="#DejaVuSans-20" x="480.224609"/>
     <use xlink:href="#DejaVuSans-74" x="512.011719"/>
     <use xlink:href="#DejaVuSans-68" x="551.220703"/>
     <use xlink:href="#DejaVuSans-65" x="614.599609"/>
     <use xlink:href="#DejaVuSans-20" x="676.123047"/>
     <use xlink:href="#DejaVuSans-64" x="707.910156"/>
     <use xlink:href="#DejaVuSans-61" x="771.386719"/>
     <use xlink:href="#DejaVuSans-74" x="832.666016"/>
     <use xlink:href="#DejaVuSans-61" x="871.875"/>
     <use xlink:href="#DejaVuSans-2e" x="933.154297"/>
    </g>
   </g>
  </g>
  <g id="axes_2">
   <g id="patch_8">
    <path d="M 50.573438 307.872 
L 407.693438 307.872 
L 407.693438 186.912 
L 50.573438 186.912 
z
" style="fill: #ffffff"/>
   </g>
   <g id="matplotlib.axis_3">
    <g id="xtick_10">
     <g id="line2d_18">
      <g>
       <use xlink:href="#mff84344f3c" x="66.806165" y="307.872" style="stroke: #000000; stroke-width: 0.8"/>
      </g>
     </g>
     <g id="text_9">
      <!-- 710 -->
      <g transform="translate(57.262415 322.470438) scale(0.1 -0.1)">
       <defs>
        <path id="DejaVuSans-37" d="M 525 4666 
L 3525 4666 
L 3525 4397 
L 1831 0 
L 1172 0 
L 2766 4134 
L 525 4134 
L 525 4666 
z
" transform="scale(0.015625)"/>
       </defs>
       <use xlink:href="#DejaVuSans-37"/>
       <use xlink:href="#DejaVuSans-31" x="63.623047"/>
       <use xlink:href="#DejaVuSans-30" x="127.246094"/>
      </g>
     </g>
    </g>
    <g id="xtick_11">
     <g id="line2d_19">
      <g>
       <use xlink:href="#mff84344f3c" x="107.387983" y="307.872" style="stroke: #000000; stroke-width: 0.8"/>
      </g>
     </g>
     <g id="text_10">
      <!-- 712.5 -->
      <g transform="translate(93.07392 322.470438) scale(0.1 -0.1)">
       <use xlink:href="#DejaVuSans-37"/>
       <use xlink:href="#DejaVuSans-31" x="63.623047"/>
       <use xlink:href="#DejaVuSans-32" x="127.246094"/>
       <use xlink:href="#DejaVuSans-2e" x="190.869141"/>
       <use xlink:href="#DejaVuSans-35" x="222.65625"/>
      </g>
     </g>
    </g>
    <g id="xtick_12">
     <g id="line2d_20">
      <g>
       <use xlink:href="#mff84344f3c" x="147.969801" y="307.872" style="stroke: #000000; stroke-width: 0.8"/>
      </g>
     </g>
     <g id="text_11">
      <!-- 715 -->
      <g transform="translate(138.426051 322.470438) scale(0.1 -0.1)">
       <use xlink:href="#DejaVuSans-37"/>
       <use xlink:href="#DejaVuSans-31" x="63.623047"/>
       <use xlink:href="#DejaVuSans-35" x="127.246094"/>
      </g>
     </g>
    </g>
    <g id="xtick_13">
     <g id="line2d_21">
      <g>
       <use xlink:href="#mff84344f3c" x="188.551619" y="307.872" style="stroke: #000000; stroke-width: 0.8"/>
      </g>
     </g>
     <g id="text_12">
      <!-- 717.5 -->
      <g transform="translate(174.237557 322.470438) scale(0.1 -0.1)">
       <use xlink:href="#DejaVuSans-37"/>
       <use xlink:href="#DejaVuSans-31" x="63.623047"/>
       <use xlink:href="#DejaVuSans-37" x="127.246094"/>
       <use xlink:href="#DejaVuSans-2e" x="190.869141"/>
       <use xlink:href="#DejaVuSans-35" x="222.65625"/>
      </g>
     </g>
    </g>
    <g id="xtick_14">
     <g id="line2d_22">
      <g>
       <use xlink:href="#mff84344f3c" x="229.133438" y="307.872" style="stroke: #000000; stroke-width: 0.8"/>
      </g>
     </g>
     <g id="text_13">
      <!-- 720 -->
      <g transform="translate(219.589688 322.470438) scale(0.1 -0.1)">
       <use xlink:href="#DejaVuSans-37"/>
       <use xlink:href="#DejaVuSans-32" x="63.623047"/>
       <use xlink:href="#DejaVuSans-30" x="127.246094"/>
      </g>
     </g>
    </g>
    <g id="xtick_15">
     <g id="line2d_23">
      <g>
       <use xlink:href="#mff84344f3c" x="269.715256" y="307.872" style="stroke: #000000; stroke-width: 0.8"/>
      </g>
     </g>
     <g id="text_14">
      <!-- 722.5 -->
      <g transform="translate(255.401193 322.470438) scale(0.1 -0.1)">
       <use xlink:href="#DejaVuSans-37"/>
       <use xlink:href="#DejaVuSans-32" x="63.623047"/>
       <use xlink:href="#DejaVuSans-32" x="127.246094"/>
       <use xlink:href="#DejaVuSans-2e" x="190.869141"/>
       <use xlink:href="#DejaVuSans-35" x="222.65625"/>
      </g>
     </g>
    </g>
    <g id="xtick_16">
     <g id="line2d_24">
      <g>
       <use xlink:href="#mff84344f3c" x="310.297074" y="307.872" style="stroke: #000000; stroke-width: 0.8"/>
      </g>
     </g>
     <g id="text_15">
      <!-- 725 -->
      <g transform="translate(300.753324 322.470438) scale(0.1 -0.1)">
       <use xlink:href="#DejaVuSans-37"/>
       <use xlink:href="#DejaVuSans-32" x="63.623047"/>
       <use xlink:href="#DejaVuSans-35" x="127.246094"/>
      </g>
     </g>
    </g>
    <g id="xtick_17">
     <g id="line2d_25">
      <g>
       <use xlink:href="#mff84344f3c" x="350.878892" y="307.872" style="stroke: #000000; stroke-width: 0.8"/>
      </g>
     </g>
     <g id="text_16">
      <!-- 727.5 -->
      <g transform="translate(336.56483 322.470438) scale(0.1 -0.1)">
       <use xlink:href="#DejaVuSans-37"/>
       <use xlink:href="#DejaVuSans-32" x="63.623047"/>
       <use xlink:href="#DejaVuSans-37" x="127.246094"/>
       <use xlink:href="#DejaVuSans-2e" x="190.869141"/>
       <use xlink:href="#DejaVuSans-35" x="222.65625"/>
      </g>
     </g>
    </g>
    <g id="xtick_18">
     <g id="line2d_26">
      <g>
       <use xlink:href="#mff84344f3c" x="391.46071" y="307.872" style="stroke: #000000; stroke-width: 0.8"/>
      </g>
     </g>
     <g id="text_17">
      <!-- 730 -->
      <g transform="translate(381.91696 322.470438) scale(0.1 -0.1)">
       <defs>
        <path id="DejaVuSans-33" d="M 2597 2516 
Q 3050 2419 3304 2112 
Q 3559 1806 3559 1356 
Q 3559 666 3084 287 
Q 2609 -91 1734 -91 
Q 1441 -91 1130 -33 
Q 819 25 488 141 
L 488 750 
Q 750 597 1062 519 
Q 1375 441 1716 441 
Q 2309 441 2620 675 
Q 2931 909 2931 1356 
Q 2931 1769 2642 2001 
Q 2353 2234 1838 2234 
L 1294 2234 
L 1294 2753 
L 1863 2753 
Q 2328 2753 2575 2939 
Q 2822 3125 2822 3475 
Q 2822 3834 2567 4026 
Q 2313 4219 1838 4219 
Q 1578 4219 1281 4162 
Q 984 4106 628 3988 
L 628 4550 
Q 988 4650 1302 4700 
Q 1616 4750 1894 4750 
Q 2613 4750 3031 4423 
Q 3450 4097 3450 3541 
Q 3450 3153 3228 2886 
Q 3006 2619 2597 2516 
z
" transform="scale(0.015625)"/>
       </defs>
       <use xlink:href="#DejaVuSans-37"/>
       <use xlink:href="#DejaVuSans-33" x="63.623047"/>
       <use xlink:href="#DejaVuSans-30" x="127.246094"/>
      </g>
     </g>
    </g>
    <g id="text_18">
     <!-- Frequency [MHz] -->
     <g transform="translate(187.114688 336.148562) scale(0.1 -0.1)">
      <defs>
       <path id="DejaVuSans-46" d="M 628 4666 
L 3309 4666 
L 3309 4134 
L 1259 4134 
L 1259 2759 
L 3109 2759 
L 3109 2228 
L 1259 2228 
L 1259 0 
L 628 0 
L 628 4666 
z
" transform="scale(0.015625)"/>
       <path id="DejaVuSans-71" d="M 947 1747 
Q 947 1113 1208 752 
Q 1469 391 1925 391 
Q 2381 391 2643 752 
Q 2906 1113 2906 1747 
Q 2906 2381 2643 2742 
Q 2381 3103 1925 3103 
Q 1469 3103 1208 2742 
Q 947 2381 947 1747 
z
M 2906 525 
Q 2725 213 2448 61 
Q 2172 -91 1784 -91 
Q 1150 -91 751 415 
Q 353 922 353 1747 
Q 353 2572 751 3078 
Q 1150 3584 1784 3584 
Q 2172 3584 2448 3432 
Q 2725 3281 2906 2969 
L 2906 3500 
L 3481 3500 
L 3481 -1331 
L 2906 -1331 
L 2906 525 
z
" transform="scale(0.015625)"/>
       <path id="DejaVuSans-75" d="M 544 1381 
L 544 3500 
L 1119 3500 
L 1119 1403 
Q 1119 906 1312 657 
Q 1506 409 1894 409 
Q 2359 409 2629 706 
Q 2900 1003 2900 1516 
L 2900 3500 
L 3475 3500 
L 3475 0 
L 2900 0 
L 2900 538 
Q 2691 219 2414 64 
Q 2138 -91 1772 -91 
Q 1169 -91 856 284 
Q 544 659 544 1381 
z
M 1991 3584 
L 1991 3584 
z
" transform="scale(0.015625)"/>
       <path id="DejaVuSans-63" d="M 3122 3366 
L 3122 2828 
Q 2878 2963 2633 3030 
Q 2388 3097 2138 3097 
Q 1578 3097 1268 2742 
Q 959 2388 959 1747 
Q 959 1106 1268 751 
Q 1578 397 2138 397 
Q 2388 397 2633 464 
Q 2878 531 3122 666 
L 3122 134 
Q 2881 22 2623 -34 
Q 2366 -91 2075 -91 
Q 1284 -91 818 406 
Q 353 903 353 1747 
Q 353 2603 823 3093 
Q 1294 3584 2113 3584 
Q 2378 3584 2631 3529 
Q 2884 3475 3122 3366 
z
" transform="scale(0.015625)"/>
       <path id="DejaVuSans-79" d="M 2059 -325 
Q 1816 -950 1584 -1140 
Q 1353 -1331 966 -1331 
L 506 -1331 
L 506 -850 
L 844 -850 
Q 1081 -850 1212 -737 
Q 1344 -625 1503 -206 
L 1606 56 
L 191 3500 
L 800 3500 
L 1894 763 
L 2988 3500 
L 3597 3500 
L 2059 -325 
z
" transform="scale(0.015625)"/>
       <path id="DejaVuSans-4d" d="M 628 4666 
L 1569 4666 
L 2759 1491 
L 3956 4666 
L 4897 4666 
L 4897 0 
L 4281 0 
L 4281 4097 
L 3078 897 
L 2444 897 
L 1241 4097 
L 1241 0 
L 628 0 
L 628 4666 
z
" transform="scale(0.015625)"/>
       <path id="DejaVuSans-48" d="M 628 4666 
L 1259 4666 
L 1259 2753 
L 3553 2753 
L 3553 4666 
L 4184 4666 
L 4184 0 
L 3553 0 
L 3553 2222 
L 1259 2222 
L 1259 0 
L 628 0 
L 628 4666 
z
" transform="scale(0.015625)"/>
       <path id="DejaVuSans-7a" d="M 353 3500 
L 3084 3500 
L 3084 2975 
L 922 459 
L 3084 459 
L 3084 0 
L 275 0 
L 275 525 
L 2438 3041 
L 353 3041 
L 353 3500 
z
" transform="scale(0.015625)"/>
      </defs>
      <use xlink:href="#DejaVuSans-46"/>
      <use xlink:href="#DejaVuSans-72" x="50.269531"/>
      <use xlink:href="#DejaVuSans-65" x="89.132812"/>
      <use xlink:href="#DejaVuSans-71" x="150.65625"/>
      <use xlink:href="#DejaVuSans-75" x="214.132812"/>
      <use xlink:href="#DejaVuSans-65" x="277.511719"/>
      <use xlink:href="#DejaVuSans-6e" x="339.035156"/>
      <use xlink:href="#DejaVuSans-63" x="402.414062"/>
      <use xlink:href="#DejaVuSans-79" x="457.394531"/>
      <use xlink:href="#DejaVuSans-20" x="516.574219"/>
      <use xlink:href="#DejaVuSans-5b" x="548.361328"/>
      <use xlink:href="#DejaVuSans-4d" x="587.375"/>
      <use xlink:href="#DejaVuSans-48" x="673.654297"/>
      <use xlink:href="#DejaVuSans-7a" x="748.849609"/>
      <use xlink:href="#DejaVuSans-5d" x="801.339844"/>
     </g>
    </g>
    <g id="text_19">
     <!-- +5 GHz -->
     <g transform="translate(369.255938 335.148562) scale(0.1 -0.1)">
      <defs>
       <path id="DejaVuSans-2b" d="M 2944 4013 
L 2944 2272 
L 4684 2272 
L 4684 1741 
L 2944 1741 
L 2944 0 
L 2419 0 
L 2419 1741 
L 678 1741 
L 678 2272 
L 2419 2272 
L 2419 4013 
L 2944 4013 
z
" transform="scale(0.015625)"/>
       <path id="DejaVuSans-47" d="M 3809 666 
L 3809 1919 
L 2778 1919 
L 2778 2438 
L 4434 2438 
L 4434 434 
Q 4069 175 3628 42 
Q 3188 -91 2688 -91 
Q 1594 -91 976 548 
Q 359 1188 359 2328 
Q 359 3472 976 4111 
Q 1594 4750 2688 4750 
Q 3144 4750 3555 4637 
Q 3966 4525 4313 4306 
L 4313 3634 
Q 3963 3931 3569 4081 
Q 3175 4231 2741 4231 
Q 1884 4231 1454 3753 
Q 1025 3275 1025 2328 
Q 1025 1384 1454 906 
Q 1884 428 2741 428 
Q 3075 428 3337 486 
Q 3600 544 3809 666 
z
" transform="scale(0.015625)"/>
      </defs>
      <use xlink:href="#DejaVuSans-2b"/>
      <use xlink:href="#DejaVuSans-35" x="83.789062"/>
      <use xlink:href="#DejaVuSans-20" x="147.412109"/>
      <use xlink:href="#DejaVuSans-47" x="179.199219"/>
      <use xlink:href="#DejaVuSans-48" x="256.689453"/>
      <use xlink:href="#DejaVuSans-7a" x="331.884766"/>
     </g>
    </g>
   </g>
   <g id="matplotlib.axis_4">
    <g id="ytick_7">
     <g id="line2d_27">
      <g>
       <use xlink:href="#m5de5a7d0ba" x="50.573438" y="280.901814" style="stroke: #000000; stroke-width: 0.8"/>
      </g>
     </g>
     <g id="text_20">
      <!-- -150 -->
      <g transform="translate(20.878125 284.701032) scale(0.1 -0.1)">
       <use xlink:href="#DejaVuSans-2d"/>
       <use xlink:href="#DejaVuSans-31" x="36.083984"/>
       <use xlink:href="#DejaVuSans-35" x="99.707031"/>
       <use xlink:href="#DejaVuSans-30" x="163.330078"/>
      </g>
     </g>
    </g>
    <g id="ytick_8">
     <g id="line2d_28">
      <g>
       <use xlink:href="#m5de5a7d0ba" x="50.573438" y="247.997399" style="stroke: #000000; stroke-width: 0.8"/>
      </g>
     </g>
     <g id="text_21">
      <!-- -100 -->
      <g transform="translate(20.878125 251.796617) scale(0.1 -0.1)">
       <use xlink:href="#DejaVuSans-2d"/>
       <use xlink:href="#DejaVuSans-31" x="36.083984"/>
       <use xlink:href="#DejaVuSans-30" x="99.707031"/>
       <use xlink:href="#DejaVuSans-30" x="163.330078"/>
      </g>
     </g>
    </g>
    <g id="ytick_9">
     <g id="line2d_29">
      <g>
       <use xlink:href="#m5de5a7d0ba" x="50.573438" y="215.092984" style="stroke: #000000; stroke-width: 0.8"/>
      </g>
     </g>
     <g id="text_22">
      <!-- -50 -->
      <g transform="translate(27.240625 218.892202) scale(0.1 -0.1)">
       <use xlink:href="#DejaVuSans-2d"/>
       <use xlink:href="#DejaVuSans-35" x="36.083984"/>
       <use xlink:href="#DejaVuSans-30" x="99.707031"/>
      </g>
     </g>
    </g>
    <g id="text_23">
     <!-- Im$(S_{21})$ [mV] -->
     <g transform="translate(14.798438 279.042) rotate(-90) scale(0.1 -0.1)">
      <defs>
       <path id="DejaVuSans-49" d="M 628 4666 
L 1259 4666 
L 1259 0 
L 628 0 
L 628 4666 
z
" transform="scale(0.015625)"/>
      </defs>
      <use xlink:href="#DejaVuSans-49" transform="translate(0 0.015625)"/>
      <use xlink:href="#DejaVuSans-6d" transform="translate(25.867188 0.015625)"/>
      <use xlink:href="#DejaVuSans-28" transform="translate(123.279297 0.015625)"/>
      <use xlink:href="#DejaVuSans-Oblique-53" transform="translate(162.292969 0.015625)"/>
      <use xlink:href="#DejaVuSans-32" transform="translate(225.769531 -16.390625) scale(0.7)"/>
      <use xlink:href="#DejaVuSans-31" transform="translate(270.305664 -16.390625) scale(0.7)"/>
      <use xlink:href="#DejaVuSans-29" transform="translate(317.576172 0.015625)"/>
      <use xlink:href="#DejaVuSans-20" transform="translate(356.589844 0.015625)"/>
      <use xlink:href="#DejaVuSans-5b" transform="translate(388.376953 0.015625)"/>
      <use xlink:href="#DejaVuSans-6d" transform="translate(427.390625 0.015625)"/>
      <use xlink:href="#DejaVuSans-56" transform="translate(524.802734 0.015625)"/>
      <use xlink:href="#DejaVuSans-5d" transform="translate(593.210938 0.015625)"/>
     </g>
    </g>
   </g>
   <g id="line2d_30">
    <path d="M 66.806165 192.410182 
L 68.437595 193.234015 
L 70.069025 194.205381 
L 73.331884 195.815081 
L 79.857604 199.456778 
L 84.751893 202.571642 
L 88.014753 204.579314 
L 89.646183 205.286845 
L 91.277613 206.305408 
L 92.909043 207.184343 
L 99.434762 211.213628 
L 101.066192 212.012929 
L 107.591912 215.912172 
L 109.223342 216.850353 
L 110.854771 217.97762 
L 112.486201 218.735266 
L 114.117631 219.877557 
L 115.749061 220.707502 
L 117.380491 221.773184 
L 119.011921 222.618907 
L 122.274781 224.634086 
L 127.16907 227.419255 
L 128.8005 228.47542 
L 130.43193 229.33622 
L 132.06336 230.332904 
L 133.69479 231.163367 
L 136.957649 233.158683 
L 138.589079 234.00397 
L 140.220509 235.048109 
L 143.483369 236.855434 
L 156.534808 244.44167 
L 159.797668 246.258937 
L 176.111967 255.523816 
L 177.743396 256.5448 
L 181.006256 258.343706 
L 184.269116 260.397087 
L 185.900546 261.272012 
L 189.163406 263.275709 
L 190.794835 264.186956 
L 192.426265 265.379879 
L 195.689125 267.185445 
L 198.951985 269.336453 
L 200.583415 270.252421 
L 202.214845 271.459845 
L 203.846274 272.337176 
L 205.477704 273.76063 
L 207.109134 274.910196 
L 208.740564 275.721381 
L 210.371994 277.144163 
L 212.003424 278.044421 
L 213.634854 279.503208 
L 215.266284 282.028745 
L 216.897713 284.248337 
L 218.529143 286.066647 
L 220.160573 288.223848 
L 221.792003 291.815147 
L 223.423433 294.172855 
L 226.686293 297.643786 
L 228.317723 299.135366 
L 229.949152 300.45977 
L 231.580582 301.595782 
L 233.212012 301.610288 
L 234.843442 300.483857 
L 236.474872 296.618536 
L 238.106302 288.849511 
L 239.737732 275.493262 
L 241.369162 256.757941 
L 243.000591 236.396143 
L 244.632021 219.249065 
L 246.263451 209.831045 
L 247.894881 208.557616 
L 249.526311 212.986014 
L 252.789171 227.452686 
L 254.420601 234.707554 
L 257.68346 247.160484 
L 259.31489 251.978144 
L 260.94632 255.854193 
L 262.57775 259.004359 
L 264.20918 261.902887 
L 265.84061 264.391298 
L 267.47204 267.479391 
L 269.103469 269.345057 
L 270.734899 271.01383 
L 272.366329 272.922469 
L 278.892049 279.008788 
L 282.154908 281.485831 
L 283.786338 282.429766 
L 285.417768 283.63259 
L 287.049198 284.380042 
L 288.680628 285.579912 
L 290.312058 285.981487 
L 291.943488 286.922104 
L 293.574918 287.444881 
L 295.206348 288.090093 
L 296.837777 288.941409 
L 300.100637 290.115039 
L 301.732067 290.593281 
L 303.363497 290.785014 
L 304.994927 291.765421 
L 306.626357 292.400998 
L 318.046366 295.707238 
L 319.677796 296.449829 
L 321.309226 296.841152 
L 322.940655 297.354831 
L 324.572085 298.105118 
L 327.834945 298.629624 
L 331.097805 299.3391 
L 335.992094 300.316999 
L 339.254954 300.823208 
L 347.412104 301.86757 
L 349.043533 301.913147 
L 350.674963 302.08514 
L 352.306393 302.082948 
L 355.569253 302.286952 
L 357.200683 302.196676 
L 358.832113 302.373818 
L 363.726402 302.204816 
L 365.357832 302.221715 
L 373.514982 301.580894 
L 375.146411 301.373122 
L 378.409271 301.11119 
L 389.82928 299.186254 
L 391.46071 298.805891 
L 391.46071 298.805891 
" clip-path="url(#pcd7a83add6)" style="fill: none; stroke: #1f77b4; stroke-width: 1.5; stroke-linecap: square"/>
    <g clip-path="url(#pcd7a83add6)">
     <use xlink:href="#m8640fae8de" x="66.806165" y="192.410182" style="fill: #1f77b4; stroke: #1f77b4"/>
     <use xlink:href="#m8640fae8de" x="68.437595" y="193.234015" style="fill: #1f77b4; stroke: #1f77b4"/>
     <use xlink:href="#m8640fae8de" x="70.069025" y="194.205381" style="fill: #1f77b4; stroke: #1f77b4"/>
     <use xlink:href="#m8640fae8de" x="71.700454" y="194.99095" style="fill: #1f77b4; stroke: #1f77b4"/>
     <use xlink:href="#m8640fae8de" x="73.331884" y="195.815081" style="fill: #1f77b4; stroke: #1f77b4"/>
     <use xlink:href="#m8640fae8de" x="74.963314" y="196.718574" style="fill: #1f77b4; stroke: #1f77b4"/>
     <use xlink:href="#m8640fae8de" x="76.594744" y="197.736786" style="fill: #1f77b4; stroke: #1f77b4"/>
     <use xlink:href="#m8640fae8de" x="78.226174" y="198.640249" style="fill: #1f77b4; stroke: #1f77b4"/>
     <use xlink:href="#m8640fae8de" x="79.857604" y="199.456778" style="fill: #1f77b4; stroke: #1f77b4"/>
     <use xlink:href="#m8640fae8de" x="81.489034" y="200.516163" style="fill: #1f77b4; stroke: #1f77b4"/>
     <use xlink:href="#m8640fae8de" x="83.120464" y="201.642391" style="fill: #1f77b4; stroke: #1f77b4"/>
     <use xlink:href="#m8640fae8de" x="84.751893" y="202.571642" style="fill: #1f77b4; stroke: #1f77b4"/>
     <use xlink:href="#m8640fae8de" x="86.383323" y="203.561441" style="fill: #1f77b4; stroke: #1f77b4"/>
     <use xlink:href="#m8640fae8de" x="88.014753" y="204.579314" style="fill: #1f77b4; stroke: #1f77b4"/>
     <use xlink:href="#m8640fae8de" x="89.646183" y="205.286845" style="fill: #1f77b4; stroke: #1f77b4"/>
     <use xlink:href="#m8640fae8de" x="91.277613" y="206.305408" style="fill: #1f77b4; stroke: #1f77b4"/>
     <use xlink:href="#m8640fae8de" x="92.909043" y="207.184343" style="fill: #1f77b4; stroke: #1f77b4"/>
     <use xlink:href="#m8640fae8de" x="94.540473" y="208.20024" style="fill: #1f77b4; stroke: #1f77b4"/>
     <use xlink:href="#m8640fae8de" x="96.171903" y="209.346777" style="fill: #1f77b4; stroke: #1f77b4"/>
     <use xlink:href="#m8640fae8de" x="97.803332" y="210.320739" style="fill: #1f77b4; stroke: #1f77b4"/>
     <use xlink:href="#m8640fae8de" x="99.434762" y="211.213628" style="fill: #1f77b4; stroke: #1f77b4"/>
     <use xlink:href="#m8640fae8de" x="101.066192" y="212.012929" style="fill: #1f77b4; stroke: #1f77b4"/>
     <use xlink:href="#m8640fae8de" x="102.697622" y="213.012095" style="fill: #1f77b4; stroke: #1f77b4"/>
     <use xlink:href="#m8640fae8de" x="104.329052" y="213.942714" style="fill: #1f77b4; stroke: #1f77b4"/>
     <use xlink:href="#m8640fae8de" x="105.960482" y="215.068022" style="fill: #1f77b4; stroke: #1f77b4"/>
     <use xlink:href="#m8640fae8de" x="107.591912" y="215.912172" style="fill: #1f77b4; stroke: #1f77b4"/>
     <use xlink:href="#m8640fae8de" x="109.223342" y="216.850353" style="fill: #1f77b4; stroke: #1f77b4"/>
     <use xlink:href="#m8640fae8de" x="110.854771" y="217.97762" style="fill: #1f77b4; stroke: #1f77b4"/>
     <use xlink:href="#m8640fae8de" x="112.486201" y="218.735266" style="fill: #1f77b4; stroke: #1f77b4"/>
     <use xlink:href="#m8640fae8de" x="114.117631" y="219.877557" style="fill: #1f77b4; stroke: #1f77b4"/>
     <use xlink:href="#m8640fae8de" x="115.749061" y="220.707502" style="fill: #1f77b4; stroke: #1f77b4"/>
     <use xlink:href="#m8640fae8de" x="117.380491" y="221.773184" style="fill: #1f77b4; stroke: #1f77b4"/>
     <use xlink:href="#m8640fae8de" x="119.011921" y="222.618907" style="fill: #1f77b4; stroke: #1f77b4"/>
     <use xlink:href="#m8640fae8de" x="120.643351" y="223.638689" style="fill: #1f77b4; stroke: #1f77b4"/>
     <use xlink:href="#m8640fae8de" x="122.274781" y="224.634086" style="fill: #1f77b4; stroke: #1f77b4"/>
     <use xlink:href="#m8640fae8de" x="123.90621" y="225.52831" style="fill: #1f77b4; stroke: #1f77b4"/>
     <use xlink:href="#m8640fae8de" x="125.53764" y="226.484065" style="fill: #1f77b4; stroke: #1f77b4"/>
     <use xlink:href="#m8640fae8de" x="127.16907" y="227.419255" style="fill: #1f77b4; stroke: #1f77b4"/>
     <use xlink:href="#m8640fae8de" x="128.8005" y="228.47542" style="fill: #1f77b4; stroke: #1f77b4"/>
     <use xlink:href="#m8640fae8de" x="130.43193" y="229.33622" style="fill: #1f77b4; stroke: #1f77b4"/>
     <use xlink:href="#m8640fae8de" x="132.06336" y="230.332904" style="fill: #1f77b4; stroke: #1f77b4"/>
     <use xlink:href="#m8640fae8de" x="133.69479" y="231.163367" style="fill: #1f77b4; stroke: #1f77b4"/>
     <use xlink:href="#m8640fae8de" x="135.32622" y="232.204792" style="fill: #1f77b4; stroke: #1f77b4"/>
     <use xlink:href="#m8640fae8de" x="136.957649" y="233.158683" style="fill: #1f77b4; stroke: #1f77b4"/>
     <use xlink:href="#m8640fae8de" x="138.589079" y="234.00397" style="fill: #1f77b4; stroke: #1f77b4"/>
     <use xlink:href="#m8640fae8de" x="140.220509" y="235.048109" style="fill: #1f77b4; stroke: #1f77b4"/>
     <use xlink:href="#m8640fae8de" x="141.851939" y="235.919839" style="fill: #1f77b4; stroke: #1f77b4"/>
     <use xlink:href="#m8640fae8de" x="143.483369" y="236.855434" style="fill: #1f77b4; stroke: #1f77b4"/>
     <use xlink:href="#m8640fae8de" x="145.114799" y="237.809739" style="fill: #1f77b4; stroke: #1f77b4"/>
     <use xlink:href="#m8640fae8de" x="146.746229" y="238.763614" style="fill: #1f77b4; stroke: #1f77b4"/>
     <use xlink:href="#m8640fae8de" x="148.377659" y="239.682453" style="fill: #1f77b4; stroke: #1f77b4"/>
     <use xlink:href="#m8640fae8de" x="150.009088" y="240.714346" style="fill: #1f77b4; stroke: #1f77b4"/>
     <use xlink:href="#m8640fae8de" x="151.640518" y="241.550499" style="fill: #1f77b4; stroke: #1f77b4"/>
     <use xlink:href="#m8640fae8de" x="153.271948" y="242.580093" style="fill: #1f77b4; stroke: #1f77b4"/>
     <use xlink:href="#m8640fae8de" x="154.903378" y="243.465371" style="fill: #1f77b4; stroke: #1f77b4"/>
     <use xlink:href="#m8640fae8de" x="156.534808" y="244.44167" style="fill: #1f77b4; stroke: #1f77b4"/>
     <use xlink:href="#m8640fae8de" x="158.166238" y="245.311254" style="fill: #1f77b4; stroke: #1f77b4"/>
     <use xlink:href="#m8640fae8de" x="159.797668" y="246.258937" style="fill: #1f77b4; stroke: #1f77b4"/>
     <use xlink:href="#m8640fae8de" x="161.429098" y="247.17739" style="fill: #1f77b4; stroke: #1f77b4"/>
     <use xlink:href="#m8640fae8de" x="163.060527" y="248.089384" style="fill: #1f77b4; stroke: #1f77b4"/>
     <use xlink:href="#m8640fae8de" x="164.691957" y="249.020071" style="fill: #1f77b4; stroke: #1f77b4"/>
     <use xlink:href="#m8640fae8de" x="166.323387" y="249.958033" style="fill: #1f77b4; stroke: #1f77b4"/>
     <use xlink:href="#m8640fae8de" x="167.954817" y="250.881228" style="fill: #1f77b4; stroke: #1f77b4"/>
     <use xlink:href="#m8640fae8de" x="169.586247" y="251.819982" style="fill: #1f77b4; stroke: #1f77b4"/>
     <use xlink:href="#m8640fae8de" x="171.217677" y="252.733064" style="fill: #1f77b4; stroke: #1f77b4"/>
     <use xlink:href="#m8640fae8de" x="172.849107" y="253.691108" style="fill: #1f77b4; stroke: #1f77b4"/>
     <use xlink:href="#m8640fae8de" x="174.480537" y="254.633771" style="fill: #1f77b4; stroke: #1f77b4"/>
     <use xlink:href="#m8640fae8de" x="176.111967" y="255.523816" style="fill: #1f77b4; stroke: #1f77b4"/>
     <use xlink:href="#m8640fae8de" x="177.743396" y="256.5448" style="fill: #1f77b4; stroke: #1f77b4"/>
     <use xlink:href="#m8640fae8de" x="179.374826" y="257.393264" style="fill: #1f77b4; stroke: #1f77b4"/>
     <use xlink:href="#m8640fae8de" x="181.006256" y="258.343706" style="fill: #1f77b4; stroke: #1f77b4"/>
     <use xlink:href="#m8640fae8de" x="182.637686" y="259.371299" style="fill: #1f77b4; stroke: #1f77b4"/>
     <use xlink:href="#m8640fae8de" x="184.269116" y="260.397087" style="fill: #1f77b4; stroke: #1f77b4"/>
     <use xlink:href="#m8640fae8de" x="185.900546" y="261.272012" style="fill: #1f77b4; stroke: #1f77b4"/>
     <use xlink:href="#m8640fae8de" x="187.531976" y="262.336383" style="fill: #1f77b4; stroke: #1f77b4"/>
     <use xlink:href="#m8640fae8de" x="189.163406" y="263.275709" style="fill: #1f77b4; stroke: #1f77b4"/>
     <use xlink:href="#m8640fae8de" x="190.794835" y="264.186956" style="fill: #1f77b4; stroke: #1f77b4"/>
     <use xlink:href="#m8640fae8de" x="192.426265" y="265.379879" style="fill: #1f77b4; stroke: #1f77b4"/>
     <use xlink:href="#m8640fae8de" x="194.057695" y="266.276271" style="fill: #1f77b4; stroke: #1f77b4"/>
     <use xlink:href="#m8640fae8de" x="195.689125" y="267.185445" style="fill: #1f77b4; stroke: #1f77b4"/>
     <use xlink:href="#m8640fae8de" x="197.320555" y="268.280738" style="fill: #1f77b4; stroke: #1f77b4"/>
     <use xlink:href="#m8640fae8de" x="198.951985" y="269.336453" style="fill: #1f77b4; stroke: #1f77b4"/>
     <use xlink:href="#m8640fae8de" x="200.583415" y="270.252421" style="fill: #1f77b4; stroke: #1f77b4"/>
     <use xlink:href="#m8640fae8de" x="202.214845" y="271.459845" style="fill: #1f77b4; stroke: #1f77b4"/>
     <use xlink:href="#m8640fae8de" x="203.846274" y="272.337176" style="fill: #1f77b4; stroke: #1f77b4"/>
     <use xlink:href="#m8640fae8de" x="205.477704" y="273.76063" style="fill: #1f77b4; stroke: #1f77b4"/>
     <use xlink:href="#m8640fae8de" x="207.109134" y="274.910196" style="fill: #1f77b4; stroke: #1f77b4"/>
     <use xlink:href="#m8640fae8de" x="208.740564" y="275.721381" style="fill: #1f77b4; stroke: #1f77b4"/>
     <use xlink:href="#m8640fae8de" x="210.371994" y="277.144163" style="fill: #1f77b4; stroke: #1f77b4"/>
     <use xlink:href="#m8640fae8de" x="212.003424" y="278.044421" style="fill: #1f77b4; stroke: #1f77b4"/>
     <use xlink:href="#m8640fae8de" x="213.634854" y="279.503208" style="fill: #1f77b4; stroke: #1f77b4"/>
     <use xlink:href="#m8640fae8de" x="215.266284" y="282.028745" style="fill: #1f77b4; stroke: #1f77b4"/>
     <use xlink:href="#m8640fae8de" x="216.897713" y="284.248337" style="fill: #1f77b4; stroke: #1f77b4"/>
     <use xlink:href="#m8640fae8de" x="218.529143" y="286.066647" style="fill: #1f77b4; stroke: #1f77b4"/>
     <use xlink:href="#m8640fae8de" x="220.160573" y="288.223848" style="fill: #1f77b4; stroke: #1f77b4"/>
     <use xlink:href="#m8640fae8de" x="221.792003" y="291.815147" style="fill: #1f77b4; stroke: #1f77b4"/>
     <use xlink:href="#m8640fae8de" x="223.423433" y="294.172855" style="fill: #1f77b4; stroke: #1f77b4"/>
     <use xlink:href="#m8640fae8de" x="225.054863" y="295.89555" style="fill: #1f77b4; stroke: #1f77b4"/>
     <use xlink:href="#m8640fae8de" x="226.686293" y="297.643786" style="fill: #1f77b4; stroke: #1f77b4"/>
     <use xlink:href="#m8640fae8de" x="228.317723" y="299.135366" style="fill: #1f77b4; stroke: #1f77b4"/>
     <use xlink:href="#m8640fae8de" x="229.949152" y="300.45977" style="fill: #1f77b4; stroke: #1f77b4"/>
     <use xlink:href="#m8640fae8de" x="231.580582" y="301.595782" style="fill: #1f77b4; stroke: #1f77b4"/>
     <use xlink:href="#m8640fae8de" x="233.212012" y="301.610288" style="fill: #1f77b4; stroke: #1f77b4"/>
     <use xlink:href="#m8640fae8de" x="234.843442" y="300.483857" style="fill: #1f77b4; stroke: #1f77b4"/>
     <use xlink:href="#m8640fae8de" x="236.474872" y="296.618536" style="fill: #1f77b4; stroke: #1f77b4"/>
     <use xlink:href="#m8640fae8de" x="238.106302" y="288.849511" style="fill: #1f77b4; stroke: #1f77b4"/>
     <use xlink:href="#m8640fae8de" x="239.737732" y="275.493262" style="fill: #1f77b4; stroke: #1f77b4"/>
     <use xlink:href="#m8640fae8de" x="241.369162" y="256.757941" style="fill: #1f77b4; stroke: #1f77b4"/>
     <use xlink:href="#m8640fae8de" x="243.000591" y="236.396143" style="fill: #1f77b4; stroke: #1f77b4"/>
     <use xlink:href="#m8640fae8de" x="244.632021" y="219.249065" style="fill: #1f77b4; stroke: #1f77b4"/>
     <use xlink:href="#m8640fae8de" x="246.263451" y="209.831045" style="fill: #1f77b4; stroke: #1f77b4"/>
     <use xlink:href="#m8640fae8de" x="247.894881" y="208.557616" style="fill: #1f77b4; stroke: #1f77b4"/>
     <use xlink:href="#m8640fae8de" x="249.526311" y="212.986014" style="fill: #1f77b4; stroke: #1f77b4"/>
     <use xlink:href="#m8640fae8de" x="251.157741" y="220.02812" style="fill: #1f77b4; stroke: #1f77b4"/>
     <use xlink:href="#m8640fae8de" x="252.789171" y="227.452686" style="fill: #1f77b4; stroke: #1f77b4"/>
     <use xlink:href="#m8640fae8de" x="254.420601" y="234.707554" style="fill: #1f77b4; stroke: #1f77b4"/>
     <use xlink:href="#m8640fae8de" x="256.05203" y="240.939124" style="fill: #1f77b4; stroke: #1f77b4"/>
     <use xlink:href="#m8640fae8de" x="257.68346" y="247.160484" style="fill: #1f77b4; stroke: #1f77b4"/>
     <use xlink:href="#m8640fae8de" x="259.31489" y="251.978144" style="fill: #1f77b4; stroke: #1f77b4"/>
     <use xlink:href="#m8640fae8de" x="260.94632" y="255.854193" style="fill: #1f77b4; stroke: #1f77b4"/>
     <use xlink:href="#m8640fae8de" x="262.57775" y="259.004359" style="fill: #1f77b4; stroke: #1f77b4"/>
     <use xlink:href="#m8640fae8de" x="264.20918" y="261.902887" style="fill: #1f77b4; stroke: #1f77b4"/>
     <use xlink:href="#m8640fae8de" x="265.84061" y="264.391298" style="fill: #1f77b4; stroke: #1f77b4"/>
     <use xlink:href="#m8640fae8de" x="267.47204" y="267.479391" style="fill: #1f77b4; stroke: #1f77b4"/>
     <use xlink:href="#m8640fae8de" x="269.103469" y="269.345057" style="fill: #1f77b4; stroke: #1f77b4"/>
     <use xlink:href="#m8640fae8de" x="270.734899" y="271.01383" style="fill: #1f77b4; stroke: #1f77b4"/>
     <use xlink:href="#m8640fae8de" x="272.366329" y="272.922469" style="fill: #1f77b4; stroke: #1f77b4"/>
     <use xlink:href="#m8640fae8de" x="273.997759" y="274.452603" style="fill: #1f77b4; stroke: #1f77b4"/>
     <use xlink:href="#m8640fae8de" x="275.629189" y="275.983924" style="fill: #1f77b4; stroke: #1f77b4"/>
     <use xlink:href="#m8640fae8de" x="277.260619" y="277.378368" style="fill: #1f77b4; stroke: #1f77b4"/>
     <use xlink:href="#m8640fae8de" x="278.892049" y="279.008788" style="fill: #1f77b4; stroke: #1f77b4"/>
     <use xlink:href="#m8640fae8de" x="280.523479" y="280.282822" style="fill: #1f77b4; stroke: #1f77b4"/>
     <use xlink:href="#m8640fae8de" x="282.154908" y="281.485831" style="fill: #1f77b4; stroke: #1f77b4"/>
     <use xlink:href="#m8640fae8de" x="283.786338" y="282.429766" style="fill: #1f77b4; stroke: #1f77b4"/>
     <use xlink:href="#m8640fae8de" x="285.417768" y="283.63259" style="fill: #1f77b4; stroke: #1f77b4"/>
     <use xlink:href="#m8640fae8de" x="287.049198" y="284.380042" style="fill: #1f77b4; stroke: #1f77b4"/>
     <use xlink:href="#m8640fae8de" x="288.680628" y="285.579912" style="fill: #1f77b4; stroke: #1f77b4"/>
     <use xlink:href="#m8640fae8de" x="290.312058" y="285.981487" style="fill: #1f77b4; stroke: #1f77b4"/>
     <use xlink:href="#m8640fae8de" x="291.943488" y="286.922104" style="fill: #1f77b4; stroke: #1f77b4"/>
     <use xlink:href="#m8640fae8de" x="293.574918" y="287.444881" style="fill: #1f77b4; stroke: #1f77b4"/>
     <use xlink:href="#m8640fae8de" x="295.206348" y="288.090093" style="fill: #1f77b4; stroke: #1f77b4"/>
     <use xlink:href="#m8640fae8de" x="296.837777" y="288.941409" style="fill: #1f77b4; stroke: #1f77b4"/>
     <use xlink:href="#m8640fae8de" x="298.469207" y="289.569145" style="fill: #1f77b4; stroke: #1f77b4"/>
     <use xlink:href="#m8640fae8de" x="300.100637" y="290.115039" style="fill: #1f77b4; stroke: #1f77b4"/>
     <use xlink:href="#m8640fae8de" x="301.732067" y="290.593281" style="fill: #1f77b4; stroke: #1f77b4"/>
     <use xlink:href="#m8640fae8de" x="303.363497" y="290.785014" style="fill: #1f77b4; stroke: #1f77b4"/>
     <use xlink:href="#m8640fae8de" x="304.994927" y="291.765421" style="fill: #1f77b4; stroke: #1f77b4"/>
     <use xlink:href="#m8640fae8de" x="306.626357" y="292.400998" style="fill: #1f77b4; stroke: #1f77b4"/>
     <use xlink:href="#m8640fae8de" x="308.257787" y="292.869351" style="fill: #1f77b4; stroke: #1f77b4"/>
     <use xlink:href="#m8640fae8de" x="309.889216" y="293.321434" style="fill: #1f77b4; stroke: #1f77b4"/>
     <use xlink:href="#m8640fae8de" x="311.520646" y="293.882634" style="fill: #1f77b4; stroke: #1f77b4"/>
     <use xlink:href="#m8640fae8de" x="313.152076" y="294.227697" style="fill: #1f77b4; stroke: #1f77b4"/>
     <use xlink:href="#m8640fae8de" x="314.783506" y="294.689603" style="fill: #1f77b4; stroke: #1f77b4"/>
     <use xlink:href="#m8640fae8de" x="316.414936" y="295.17292" style="fill: #1f77b4; stroke: #1f77b4"/>
     <use xlink:href="#m8640fae8de" x="318.046366" y="295.707238" style="fill: #1f77b4; stroke: #1f77b4"/>
     <use xlink:href="#m8640fae8de" x="319.677796" y="296.449829" style="fill: #1f77b4; stroke: #1f77b4"/>
     <use xlink:href="#m8640fae8de" x="321.309226" y="296.841152" style="fill: #1f77b4; stroke: #1f77b4"/>
     <use xlink:href="#m8640fae8de" x="322.940655" y="297.354831" style="fill: #1f77b4; stroke: #1f77b4"/>
     <use xlink:href="#m8640fae8de" x="324.572085" y="298.105118" style="fill: #1f77b4; stroke: #1f77b4"/>
     <use xlink:href="#m8640fae8de" x="326.203515" y="298.322547" style="fill: #1f77b4; stroke: #1f77b4"/>
     <use xlink:href="#m8640fae8de" x="327.834945" y="298.629624" style="fill: #1f77b4; stroke: #1f77b4"/>
     <use xlink:href="#m8640fae8de" x="329.466375" y="299.030384" style="fill: #1f77b4; stroke: #1f77b4"/>
     <use xlink:href="#m8640fae8de" x="331.097805" y="299.3391" style="fill: #1f77b4; stroke: #1f77b4"/>
     <use xlink:href="#m8640fae8de" x="332.729235" y="299.689724" style="fill: #1f77b4; stroke: #1f77b4"/>
     <use xlink:href="#m8640fae8de" x="334.360665" y="299.999959" style="fill: #1f77b4; stroke: #1f77b4"/>
     <use xlink:href="#m8640fae8de" x="335.992094" y="300.316999" style="fill: #1f77b4; stroke: #1f77b4"/>
     <use xlink:href="#m8640fae8de" x="337.623524" y="300.609513" style="fill: #1f77b4; stroke: #1f77b4"/>
     <use xlink:href="#m8640fae8de" x="339.254954" y="300.823208" style="fill: #1f77b4; stroke: #1f77b4"/>
     <use xlink:href="#m8640fae8de" x="340.886384" y="301.025102" style="fill: #1f77b4; stroke: #1f77b4"/>
     <use xlink:href="#m8640fae8de" x="342.517814" y="301.247164" style="fill: #1f77b4; stroke: #1f77b4"/>
     <use xlink:href="#m8640fae8de" x="344.149244" y="301.506005" style="fill: #1f77b4; stroke: #1f77b4"/>
     <use xlink:href="#m8640fae8de" x="345.780674" y="301.684074" style="fill: #1f77b4; stroke: #1f77b4"/>
     <use xlink:href="#m8640fae8de" x="347.412104" y="301.86757" style="fill: #1f77b4; stroke: #1f77b4"/>
     <use xlink:href="#m8640fae8de" x="349.043533" y="301.913147" style="fill: #1f77b4; stroke: #1f77b4"/>
     <use xlink:href="#m8640fae8de" x="350.674963" y="302.08514" style="fill: #1f77b4; stroke: #1f77b4"/>
     <use xlink:href="#m8640fae8de" x="352.306393" y="302.082948" style="fill: #1f77b4; stroke: #1f77b4"/>
     <use xlink:href="#m8640fae8de" x="353.937823" y="302.216167" style="fill: #1f77b4; stroke: #1f77b4"/>
     <use xlink:href="#m8640fae8de" x="355.569253" y="302.286952" style="fill: #1f77b4; stroke: #1f77b4"/>
     <use xlink:href="#m8640fae8de" x="357.200683" y="302.196676" style="fill: #1f77b4; stroke: #1f77b4"/>
     <use xlink:href="#m8640fae8de" x="358.832113" y="302.373818" style="fill: #1f77b4; stroke: #1f77b4"/>
     <use xlink:href="#m8640fae8de" x="360.463543" y="302.305722" style="fill: #1f77b4; stroke: #1f77b4"/>
     <use xlink:href="#m8640fae8de" x="362.094972" y="302.240746" style="fill: #1f77b4; stroke: #1f77b4"/>
     <use xlink:href="#m8640fae8de" x="363.726402" y="302.204816" style="fill: #1f77b4; stroke: #1f77b4"/>
     <use xlink:href="#m8640fae8de" x="365.357832" y="302.221715" style="fill: #1f77b4; stroke: #1f77b4"/>
     <use xlink:href="#m8640fae8de" x="366.989262" y="302.103741" style="fill: #1f77b4; stroke: #1f77b4"/>
     <use xlink:href="#m8640fae8de" x="368.620692" y="301.93041" style="fill: #1f77b4; stroke: #1f77b4"/>
     <use xlink:href="#m8640fae8de" x="370.252122" y="301.85927" style="fill: #1f77b4; stroke: #1f77b4"/>
     <use xlink:href="#m8640fae8de" x="371.883552" y="301.732933" style="fill: #1f77b4; stroke: #1f77b4"/>
     <use xlink:href="#m8640fae8de" x="373.514982" y="301.580894" style="fill: #1f77b4; stroke: #1f77b4"/>
     <use xlink:href="#m8640fae8de" x="375.146411" y="301.373122" style="fill: #1f77b4; stroke: #1f77b4"/>
     <use xlink:href="#m8640fae8de" x="376.777841" y="301.281037" style="fill: #1f77b4; stroke: #1f77b4"/>
     <use xlink:href="#m8640fae8de" x="378.409271" y="301.11119" style="fill: #1f77b4; stroke: #1f77b4"/>
     <use xlink:href="#m8640fae8de" x="380.040701" y="300.842504" style="fill: #1f77b4; stroke: #1f77b4"/>
     <use xlink:href="#m8640fae8de" x="381.672131" y="300.614624" style="fill: #1f77b4; stroke: #1f77b4"/>
     <use xlink:href="#m8640fae8de" x="383.303561" y="300.346222" style="fill: #1f77b4; stroke: #1f77b4"/>
     <use xlink:href="#m8640fae8de" x="384.934991" y="300.104779" style="fill: #1f77b4; stroke: #1f77b4"/>
     <use xlink:href="#m8640fae8de" x="386.566421" y="299.770651" style="fill: #1f77b4; stroke: #1f77b4"/>
     <use xlink:href="#m8640fae8de" x="388.19785" y="299.526934" style="fill: #1f77b4; stroke: #1f77b4"/>
     <use xlink:href="#m8640fae8de" x="389.82928" y="299.186254" style="fill: #1f77b4; stroke: #1f77b4"/>
     <use xlink:href="#m8640fae8de" x="391.46071" y="298.805891" style="fill: #1f77b4; stroke: #1f77b4"/>
    </g>
   </g>
   <g id="line2d_31">
    <path d="M 66.806165 195.233339 
L 92.479547 212.453165 
L 110.028442 223.957803 
L 124.9775 233.497273 
L 138.62664 241.950251 
L 151.625821 249.745741 
L 164.625002 257.282569 
L 178.274142 264.933024 
L 195.173077 274.12655 
L 219.871521 287.316098 
L 223.771275 289.132664 
L 226.046132 289.988426 
L 227.996009 290.492699 
L 229.295927 290.643666 
L 230.595845 290.577531 
L 231.570784 290.334493 
L 232.545723 289.871909 
L 233.520661 289.125679 
L 234.4956 288.012809 
L 235.470538 286.426639 
L 236.445477 284.232062 
L 237.420415 281.262301 
L 238.395354 277.320584 
L 239.370293 272.193023 
L 240.345231 265.68279 
L 241.32017 257.677893 
L 242.620088 244.862708 
L 245.544904 214.612743 
L 246.194863 209.78571 
L 246.844822 206.249622 
L 247.494781 204.093036 
L 247.81976 203.524336 
L 248.14474 203.277116 
L 248.469719 203.330794 
L 248.794699 203.660842 
L 249.444658 205.040039 
L 250.094617 207.186963 
L 251.069555 211.372124 
L 253.344412 222.796607 
L 255.294289 232.098808 
L 256.919187 238.82886 
L 258.544085 244.587484 
L 260.168982 249.478901 
L 261.79388 253.638196 
L 263.418777 257.193329 
L 265.043675 260.253524 
L 266.668573 262.908044 
L 268.61845 265.657759 
L 270.568327 268.022412 
L 272.843184 270.39194 
L 275.11804 272.425364 
L 277.717876 274.421015 
L 280.317713 276.135156 
L 283.242528 277.792772 
L 286.492324 279.362598 
L 290.067098 280.821818 
L 293.966853 282.153504 
L 298.191587 283.34432 
L 302.7413 284.382687 
L 307.615993 285.257424 
L 312.815665 285.956824 
L 318.340317 286.46807 
L 324.189949 286.776919 
L 330.36456 286.867569 
L 336.539171 286.735497 
L 343.038761 286.371931 
L 349.538352 285.791073 
L 356.362922 284.958862 
L 363.187492 283.908804 
L 370.337041 282.584378 
L 377.486591 281.038827 
L 384.96112 279.195018 
L 391.46071 277.40858 
L 391.46071 277.40858 
" clip-path="url(#pcd7a83add6)" style="fill: none; stroke: #d62728; stroke-width: 1.5; stroke-linecap: square"/>
   </g>
   <g id="patch_9">
    <path d="M 50.573438 307.872 
L 50.573438 186.912 
" style="fill: none; stroke: #000000; stroke-width: 0.8; stroke-linejoin: miter; stroke-linecap: square"/>
   </g>
   <g id="patch_10">
    <path d="M 407.693438 307.872 
L 407.693438 186.912 
" style="fill: none; stroke: #000000; stroke-width: 0.8; stroke-linejoin: miter; stroke-linecap: square"/>
   </g>
   <g id="patch_11">
    <path d="M 50.573438 307.872 
L 407.693438 307.872 
" style="fill: none; stroke: #000000; stroke-width: 0.8; stroke-linejoin: miter; stroke-linecap: square"/>
   </g>
   <g id="patch_12">
    <path d="M 50.573438 186.912 
L 407.693438 186.912 
" style="fill: none; stroke: #000000; stroke-width: 0.8; stroke-linejoin: miter; stroke-linecap: square"/>
   </g>
  </g>
  <g id="text_24">
   <!-- S21 One-tone -->
   <g transform="translate(182.1225 16.318125) scale(0.12 -0.12)">
    <defs>
     <path id="DejaVuSans-53" d="M 3425 4513 
L 3425 3897 
Q 3066 4069 2747 4153 
Q 2428 4238 2131 4238 
Q 1616 4238 1336 4038 
Q 1056 3838 1056 3469 
Q 1056 3159 1242 3001 
Q 1428 2844 1947 2747 
L 2328 2669 
Q 3034 2534 3370 2195 
Q 3706 1856 3706 1288 
Q 3706 609 3251 259 
Q 2797 -91 1919 -91 
Q 1588 -91 1214 -16 
Q 841 59 441 206 
L 441 856 
Q 825 641 1194 531 
Q 1563 422 1919 422 
Q 2459 422 2753 634 
Q 3047 847 3047 1241 
Q 3047 1584 2836 1778 
Q 2625 1972 2144 2069 
L 1759 2144 
Q 1053 2284 737 2584 
Q 422 2884 422 3419 
Q 422 4038 858 4394 
Q 1294 4750 2059 4750 
Q 2388 4750 2728 4690 
Q 3069 4631 3425 4513 
z
" transform="scale(0.015625)"/>
     <path id="DejaVuSans-4f" d="M 2522 4238 
Q 1834 4238 1429 3725 
Q 1025 3213 1025 2328 
Q 1025 1447 1429 934 
Q 1834 422 2522 422 
Q 3209 422 3611 934 
Q 4013 1447 4013 2328 
Q 4013 3213 3611 3725 
Q 3209 4238 2522 4238 
z
M 2522 4750 
Q 3503 4750 4090 4092 
Q 4678 3434 4678 2328 
Q 4678 1225 4090 567 
Q 3503 -91 2522 -91 
Q 1538 -91 948 565 
Q 359 1222 359 2328 
Q 359 3434 948 4092 
Q 1538 4750 2522 4750 
z
" transform="scale(0.015625)"/>
    </defs>
    <use xlink:href="#DejaVuSans-53"/>
    <use xlink:href="#DejaVuSans-32" x="63.476562"/>
    <use xlink:href="#DejaVuSans-31" x="127.099609"/>
    <use xlink:href="#DejaVuSans-20" x="190.722656"/>
    <use xlink:href="#DejaVuSans-4f" x="222.509766"/>
    <use xlink:href="#DejaVuSans-6e" x="301.220703"/>
    <use xlink:href="#DejaVuSans-65" x="364.599609"/>
    <use xlink:href="#DejaVuSans-2d" x="426.123047"/>
    <use xlink:href="#DejaVuSans-74" x="462.207031"/>
    <use xlink:href="#DejaVuSans-6f" x="501.416016"/>
    <use xlink:href="#DejaVuSans-6e" x="562.597656"/>
    <use xlink:href="#DejaVuSans-65" x="625.976562"/>
   </g>
   <!-- tuid: 20240301-182654-305-5fea9d -->
   <g transform="translate(115.498125 29.7555) scale(0.12 -0.12)">
    <defs>
     <path id="DejaVuSans-34" d="M 2419 4116 
L 825 1625 
L 2419 1625 
L 2419 4116 
z
M 2253 4666 
L 3047 4666 
L 3047 1625 
L 3713 1625 
L 3713 1100 
L 3047 1100 
L 3047 0 
L 2419 0 
L 2419 1100 
L 313 1100 
L 313 1709 
L 2253 4666 
z
" transform="scale(0.015625)"/>
     <path id="DejaVuSans-38" d="M 2034 2216 
Q 1584 2216 1326 1975 
Q 1069 1734 1069 1313 
Q 1069 891 1326 650 
Q 1584 409 2034 409 
Q 2484 409 2743 651 
Q 3003 894 3003 1313 
Q 3003 1734 2745 1975 
Q 2488 2216 2034 2216 
z
M 1403 2484 
Q 997 2584 770 2862 
Q 544 3141 544 3541 
Q 544 4100 942 4425 
Q 1341 4750 2034 4750 
Q 2731 4750 3128 4425 
Q 3525 4100 3525 3541 
Q 3525 3141 3298 2862 
Q 3072 2584 2669 2484 
Q 3125 2378 3379 2068 
Q 3634 1759 3634 1313 
Q 3634 634 3220 271 
Q 2806 -91 2034 -91 
Q 1263 -91 848 271 
Q 434 634 434 1313 
Q 434 1759 690 2068 
Q 947 2378 1403 2484 
z
M 1172 3481 
Q 1172 3119 1398 2916 
Q 1625 2713 2034 2713 
Q 2441 2713 2670 2916 
Q 2900 3119 2900 3481 
Q 2900 3844 2670 4047 
Q 2441 4250 2034 4250 
Q 1625 4250 1398 4047 
Q 1172 3844 1172 3481 
z
" transform="scale(0.015625)"/>
     <path id="DejaVuSans-36" d="M 2113 2584 
Q 1688 2584 1439 2293 
Q 1191 2003 1191 1497 
Q 1191 994 1439 701 
Q 1688 409 2113 409 
Q 2538 409 2786 701 
Q 3034 994 3034 1497 
Q 3034 2003 2786 2293 
Q 2538 2584 2113 2584 
z
M 3366 4563 
L 3366 3988 
Q 3128 4100 2886 4159 
Q 2644 4219 2406 4219 
Q 1781 4219 1451 3797 
Q 1122 3375 1075 2522 
Q 1259 2794 1537 2939 
Q 1816 3084 2150 3084 
Q 2853 3084 3261 2657 
Q 3669 2231 3669 1497 
Q 3669 778 3244 343 
Q 2819 -91 2113 -91 
Q 1303 -91 875 529 
Q 447 1150 447 2328 
Q 447 3434 972 4092 
Q 1497 4750 2381 4750 
Q 2619 4750 2861 4703 
Q 3103 4656 3366 4563 
z
" transform="scale(0.015625)"/>
     <path id="DejaVuSans-39" d="M 703 97 
L 703 672 
Q 941 559 1184 500 
Q 1428 441 1663 441 
Q 2288 441 2617 861 
Q 2947 1281 2994 2138 
Q 2813 1869 2534 1725 
Q 2256 1581 1919 1581 
Q 1219 1581 811 2004 
Q 403 2428 403 3163 
Q 403 3881 828 4315 
Q 1253 4750 1959 4750 
Q 2769 4750 3195 4129 
Q 3622 3509 3622 2328 
Q 3622 1225 3098 567 
Q 2575 -91 1691 -91 
Q 1453 -91 1209 -44 
Q 966 3 703 97 
z
M 1959 2075 
Q 2384 2075 2632 2365 
Q 2881 2656 2881 3163 
Q 2881 3666 2632 3958 
Q 2384 4250 1959 4250 
Q 1534 4250 1286 3958 
Q 1038 3666 1038 3163 
Q 1038 2656 1286 2365 
Q 1534 2075 1959 2075 
z
" transform="scale(0.015625)"/>
    </defs>
    <use xlink:href="#DejaVuSans-74"/>
    <use xlink:href="#DejaVuSans-75" x="39.208984"/>
    <use xlink:href="#DejaVuSans-69" x="102.587891"/>
    <use xlink:href="#DejaVuSans-64" x="130.371094"/>
    <use xlink:href="#DejaVuSans-3a" x="193.847656"/>
    <use xlink:href="#DejaVuSans-20" x="227.539062"/>
    <use xlink:href="#DejaVuSans-32" x="259.326172"/>
    <use xlink:href="#DejaVuSans-30" x="322.949219"/>
    <use xlink:href="#DejaVuSans-32" x="386.572266"/>
    <use xlink:href="#DejaVuSans-34" x="450.195312"/>
    <use xlink:href="#DejaVuSans-30" x="513.818359"/>
    <use xlink:href="#DejaVuSans-33" x="577.441406"/>
    <use xlink:href="#DejaVuSans-30" x="641.064453"/>
    <use xlink:href="#DejaVuSans-31" x="704.6875"/>
    <use xlink:href="#DejaVuSans-2d" x="768.310547"/>
    <use xlink:href="#DejaVuSans-31" x="804.394531"/>
    <use xlink:href="#DejaVuSans-38" x="868.017578"/>
    <use xlink:href="#DejaVuSans-32" x="931.640625"/>
    <use xlink:href="#DejaVuSans-36" x="995.263672"/>
    <use xlink:href="#DejaVuSans-35" x="1058.886719"/>
    <use xlink:href="#DejaVuSans-34" x="1122.509766"/>
    <use xlink:href="#DejaVuSans-2d" x="1186.132812"/>
    <use xlink:href="#DejaVuSans-33" x="1222.216797"/>
    <use xlink:href="#DejaVuSans-30" x="1285.839844"/>
    <use xlink:href="#DejaVuSans-35" x="1349.462891"/>
    <use xlink:href="#DejaVuSans-2d" x="1413.085938"/>
    <use xlink:href="#DejaVuSans-35" x="1449.169922"/>
    <use xlink:href="#DejaVuSans-66" x="1512.792969"/>
    <use xlink:href="#DejaVuSans-65" x="1547.998047"/>
    <use xlink:href="#DejaVuSans-61" x="1609.521484"/>
    <use xlink:href="#DejaVuSans-39" x="1670.800781"/>
    <use xlink:href="#DejaVuSans-64" x="1734.423828"/>
   </g>
  </g>
 </g>
 <defs>
  <clipPath id="p2ccee938ef">
   <rect x="50.573438" y="41.76" width="357.12" height="120.96"/>
  </clipPath>
  <clipPath id="pcd7a83add6">
   <rect x="50.573438" y="186.912" width="357.12" height="120.96"/>
  </clipPath>
 </defs>
</svg>
