<?xml version="1.0" encoding="utf-8" standalone="no"?>
<!DOCTYPE svg PUBLIC "-//W3C//DTD SVG 1.1//EN"
  "http://www.w3.org/Graphics/SVG/1.1/DTD/svg11.dtd">
<svg xmlns:xlink="http://www.w3.org/1999/xlink" width="571.386937pt" height="345.42825pt" viewBox="0 0 571.386937 345.42825" xmlns="http://www.w3.org/2000/svg" version="1.1">
 <metadata>
  <rdf:RDF xmlns:dc="http://purl.org/dc/elements/1.1/" xmlns:cc="http://creativecommons.org/ns#" xmlns:rdf="http://www.w3.org/1999/02/22-rdf-syntax-ns#">
   <cc:Work>
    <dc:type rdf:resource="http://purl.org/dc/dcmitype/StillImage"/>
    <dc:date>2024-02-26T10:41:45.791702</dc:date>
    <dc:format>image/svg+xml</dc:format>
    <dc:creator>
     <cc:Agent>
      <dc:title>Matplotlib v3.8.2, https://matplotlib.org/</dc:title>
     </cc:Agent>
    </dc:creator>
   </cc:Work>
  </rdf:RDF>
 </metadata>
 <defs>
  <style type="text/css">*{stroke-linejoin: round; stroke-linecap: butt}</style>
 </defs>
 <g id="figure_1">
  <g id="patch_1">
   <path d="M 0 345.42825 
L 571.386937 345.42825 
L 571.386937 -0 
L 0 -0 
L 0 345.42825 
z
" style="fill: none; opacity: 0"/>
  </g>
  <g id="axes_1">
   <g id="patch_2">
    <path d="M 44.210938 307.872 
L 401.330938 307.872 
L 401.330938 41.76 
L 44.210938 41.76 
z
" style="fill: #ffffff"/>
   </g>
   <g id="matplotlib.axis_1">
    <g id="xtick_1">
     <g id="line2d_1">
      <defs>
       <path id="m287e3cb6b9" d="M 0 0 
L 0 3.5 
" style="stroke: #000000; stroke-width: 0.8"/>
      </defs>
      <g>
       <use xlink:href="#m287e3cb6b9" x="57.869319" y="307.872" style="stroke: #000000; stroke-width: 0.8"/>
      </g>
     </g>
     <g id="text_1">
      <!-- -10 -->
      <g transform="translate(49.702913 322.470438) scale(0.1 -0.1)">
       <defs>
        <path id="DejaVuSans-2d" d="M 313 2009 
L 1997 2009 
L 1997 1497 
L 313 1497 
L 313 2009 
z
" transform="scale(0.015625)"/>
        <path id="DejaVuSans-31" d="M 794 531 
L 1825 531 
L 1825 4091 
L 703 3866 
L 703 4441 
L 1819 4666 
L 2450 4666 
L 2450 531 
L 3481 531 
L 3481 0 
L 794 0 
L 794 531 
z
" transform="scale(0.015625)"/>
        <path id="DejaVuSans-30" d="M 2034 4250 
Q 1547 4250 1301 3770 
Q 1056 3291 1056 2328 
Q 1056 1369 1301 889 
Q 1547 409 2034 409 
Q 2525 409 2770 889 
Q 3016 1369 3016 2328 
Q 3016 3291 2770 3770 
Q 2525 4250 2034 4250 
z
M 2034 4750 
Q 2819 4750 3233 4129 
Q 3647 3509 3647 2328 
Q 3647 1150 3233 529 
Q 2819 -91 2034 -91 
Q 1250 -91 836 529 
Q 422 1150 422 2328 
Q 422 3509 836 4129 
Q 1250 4750 2034 4750 
z
" transform="scale(0.015625)"/>
       </defs>
       <use xlink:href="#DejaVuSans-2d"/>
       <use xlink:href="#DejaVuSans-31" x="36.083984"/>
       <use xlink:href="#DejaVuSans-30" x="99.707031"/>
      </g>
     </g>
    </g>
    <g id="xtick_2">
     <g id="line2d_2">
      <g>
       <use xlink:href="#m287e3cb6b9" x="105.308633" y="307.872" style="stroke: #000000; stroke-width: 0.8"/>
      </g>
     </g>
     <g id="text_2">
      <!-- -7.5 -->
      <g transform="translate(95.553164 322.470438) scale(0.1 -0.1)">
       <defs>
        <path id="DejaVuSans-37" d="M 525 4666 
L 3525 4666 
L 3525 4397 
L 1831 0 
L 1172 0 
L 2766 4134 
L 525 4134 
L 525 4666 
z
" transform="scale(0.015625)"/>
        <path id="DejaVuSans-2e" d="M 684 794 
L 1344 794 
L 1344 0 
L 684 0 
L 684 794 
z
" transform="scale(0.015625)"/>
        <path id="DejaVuSans-35" d="M 691 4666 
L 3169 4666 
L 3169 4134 
L 1269 4134 
L 1269 2991 
Q 1406 3038 1543 3061 
Q 1681 3084 1819 3084 
Q 2600 3084 3056 2656 
Q 3513 2228 3513 1497 
Q 3513 744 3044 326 
Q 2575 -91 1722 -91 
Q 1428 -91 1123 -41 
Q 819 9 494 109 
L 494 744 
Q 775 591 1075 516 
Q 1375 441 1709 441 
Q 2250 441 2565 725 
Q 2881 1009 2881 1497 
Q 2881 1984 2565 2268 
Q 2250 2553 1709 2553 
Q 1456 2553 1204 2497 
Q 953 2441 691 2322 
L 691 4666 
z
" transform="scale(0.015625)"/>
       </defs>
       <use xlink:href="#DejaVuSans-2d"/>
       <use xlink:href="#DejaVuSans-37" x="36.083984"/>
       <use xlink:href="#DejaVuSans-2e" x="99.707031"/>
       <use xlink:href="#DejaVuSans-35" x="131.494141"/>
      </g>
     </g>
    </g>
    <g id="xtick_3">
     <g id="line2d_3">
      <g>
       <use xlink:href="#m287e3cb6b9" x="152.747946" y="307.872" style="stroke: #000000; stroke-width: 0.8"/>
      </g>
     </g>
     <g id="text_3">
      <!-- -5 -->
      <g transform="translate(147.76279 322.470438) scale(0.1 -0.1)">
       <use xlink:href="#DejaVuSans-2d"/>
       <use xlink:href="#DejaVuSans-35" x="36.083984"/>
      </g>
     </g>
    </g>
    <g id="xtick_4">
     <g id="line2d_4">
      <g>
       <use xlink:href="#m287e3cb6b9" x="200.18726" y="307.872" style="stroke: #000000; stroke-width: 0.8"/>
      </g>
     </g>
     <g id="text_4">
      <!-- -2.5 -->
      <g transform="translate(190.431791 322.470438) scale(0.1 -0.1)">
       <defs>
        <path id="DejaVuSans-32" d="M 1228 531 
L 3431 531 
L 3431 0 
L 469 0 
L 469 531 
Q 828 903 1448 1529 
Q 2069 2156 2228 2338 
Q 2531 2678 2651 2914 
Q 2772 3150 2772 3378 
Q 2772 3750 2511 3984 
Q 2250 4219 1831 4219 
Q 1534 4219 1204 4116 
Q 875 4013 500 3803 
L 500 4441 
Q 881 4594 1212 4672 
Q 1544 4750 1819 4750 
Q 2544 4750 2975 4387 
Q 3406 4025 3406 3419 
Q 3406 3131 3298 2873 
Q 3191 2616 2906 2266 
Q 2828 2175 2409 1742 
Q 1991 1309 1228 531 
z
" transform="scale(0.015625)"/>
       </defs>
       <use xlink:href="#DejaVuSans-2d"/>
       <use xlink:href="#DejaVuSans-32" x="36.083984"/>
       <use xlink:href="#DejaVuSans-2e" x="99.707031"/>
       <use xlink:href="#DejaVuSans-35" x="131.494141"/>
      </g>
     </g>
    </g>
    <g id="xtick_5">
     <g id="line2d_5">
      <g>
       <use xlink:href="#m287e3cb6b9" x="247.626573" y="307.872" style="stroke: #000000; stroke-width: 0.8"/>
      </g>
     </g>
     <g id="text_5">
      <!-- 0 -->
      <g transform="translate(244.445323 322.470438) scale(0.1 -0.1)">
       <use xlink:href="#DejaVuSans-30"/>
      </g>
     </g>
    </g>
    <g id="xtick_6">
     <g id="line2d_6">
      <g>
       <use xlink:href="#m287e3cb6b9" x="295.065887" y="307.872" style="stroke: #000000; stroke-width: 0.8"/>
      </g>
     </g>
     <g id="text_6">
      <!-- 2.5 -->
      <g transform="translate(287.114324 322.470438) scale(0.1 -0.1)">
       <use xlink:href="#DejaVuSans-32"/>
       <use xlink:href="#DejaVuSans-2e" x="63.623047"/>
       <use xlink:href="#DejaVuSans-35" x="95.410156"/>
      </g>
     </g>
    </g>
    <g id="xtick_7">
     <g id="line2d_7">
      <g>
       <use xlink:href="#m287e3cb6b9" x="342.5052" y="307.872" style="stroke: #000000; stroke-width: 0.8"/>
      </g>
     </g>
     <g id="text_7">
      <!-- 5 -->
      <g transform="translate(339.32395 322.470438) scale(0.1 -0.1)">
       <use xlink:href="#DejaVuSans-35"/>
      </g>
     </g>
    </g>
    <g id="xtick_8">
     <g id="line2d_8">
      <g>
       <use xlink:href="#m287e3cb6b9" x="389.944513" y="307.872" style="stroke: #000000; stroke-width: 0.8"/>
      </g>
     </g>
     <g id="text_8">
      <!-- 7.5 -->
      <g transform="translate(381.992951 322.470438) scale(0.1 -0.1)">
       <use xlink:href="#DejaVuSans-37"/>
       <use xlink:href="#DejaVuSans-2e" x="63.623047"/>
       <use xlink:href="#DejaVuSans-35" x="95.410156"/>
      </g>
     </g>
    </g>
    <g id="text_9">
     <!-- Re$(S_{21})$ [mV] -->
     <g transform="translate(190.770938 336.148562) scale(0.1 -0.1)">
      <defs>
       <path id="DejaVuSans-52" d="M 2841 2188 
Q 3044 2119 3236 1894 
Q 3428 1669 3622 1275 
L 4263 0 
L 3584 0 
L 2988 1197 
Q 2756 1666 2539 1819 
Q 2322 1972 1947 1972 
L 1259 1972 
L 1259 0 
L 628 0 
L 628 4666 
L 2053 4666 
Q 2853 4666 3247 4331 
Q 3641 3997 3641 3322 
Q 3641 2881 3436 2590 
Q 3231 2300 2841 2188 
z
M 1259 4147 
L 1259 2491 
L 2053 2491 
Q 2509 2491 2742 2702 
Q 2975 2913 2975 3322 
Q 2975 3731 2742 3939 
Q 2509 4147 2053 4147 
L 1259 4147 
z
" transform="scale(0.015625)"/>
       <path id="DejaVuSans-65" d="M 3597 1894 
L 3597 1613 
L 953 1613 
Q 991 1019 1311 708 
Q 1631 397 2203 397 
Q 2534 397 2845 478 
Q 3156 559 3463 722 
L 3463 178 
Q 3153 47 2828 -22 
Q 2503 -91 2169 -91 
Q 1331 -91 842 396 
Q 353 884 353 1716 
Q 353 2575 817 3079 
Q 1281 3584 2069 3584 
Q 2775 3584 3186 3129 
Q 3597 2675 3597 1894 
z
M 3022 2063 
Q 3016 2534 2758 2815 
Q 2500 3097 2075 3097 
Q 1594 3097 1305 2825 
Q 1016 2553 972 2059 
L 3022 2063 
z
" transform="scale(0.015625)"/>
       <path id="DejaVuSans-28" d="M 1984 4856 
Q 1566 4138 1362 3434 
Q 1159 2731 1159 2009 
Q 1159 1288 1364 580 
Q 1569 -128 1984 -844 
L 1484 -844 
Q 1016 -109 783 600 
Q 550 1309 550 2009 
Q 550 2706 781 3412 
Q 1013 4119 1484 4856 
L 1984 4856 
z
" transform="scale(0.015625)"/>
       <path id="DejaVuSans-Oblique-53" d="M 3859 4513 
L 3738 3897 
Q 3422 4066 3111 4152 
Q 2800 4238 2509 4238 
Q 1944 4238 1609 3991 
Q 1275 3744 1275 3334 
Q 1275 3109 1398 2989 
Q 1522 2869 2034 2731 
L 2413 2638 
Q 3053 2472 3303 2217 
Q 3553 1963 3553 1503 
Q 3553 797 2998 353 
Q 2444 -91 1538 -91 
Q 1166 -91 791 -17 
Q 416 56 38 206 
L 166 856 
Q 513 641 861 531 
Q 1209 422 1556 422 
Q 2147 422 2503 684 
Q 2859 947 2859 1369 
Q 2859 1650 2717 1795 
Q 2575 1941 2106 2059 
L 1728 2156 
Q 1081 2325 845 2545 
Q 609 2766 609 3163 
Q 609 3859 1145 4304 
Q 1681 4750 2541 4750 
Q 2875 4750 3203 4690 
Q 3531 4631 3859 4513 
z
" transform="scale(0.015625)"/>
       <path id="DejaVuSans-29" d="M 513 4856 
L 1013 4856 
Q 1481 4119 1714 3412 
Q 1947 2706 1947 2009 
Q 1947 1309 1714 600 
Q 1481 -109 1013 -844 
L 513 -844 
Q 928 -128 1133 580 
Q 1338 1288 1338 2009 
Q 1338 2731 1133 3434 
Q 928 4138 513 4856 
z
" transform="scale(0.015625)"/>
       <path id="DejaVuSans-20" transform="scale(0.015625)"/>
       <path id="DejaVuSans-5b" d="M 550 4863 
L 1875 4863 
L 1875 4416 
L 1125 4416 
L 1125 -397 
L 1875 -397 
L 1875 -844 
L 550 -844 
L 550 4863 
z
" transform="scale(0.015625)"/>
       <path id="DejaVuSans-6d" d="M 3328 2828 
Q 3544 3216 3844 3400 
Q 4144 3584 4550 3584 
Q 5097 3584 5394 3201 
Q 5691 2819 5691 2113 
L 5691 0 
L 5113 0 
L 5113 2094 
Q 5113 2597 4934 2840 
Q 4756 3084 4391 3084 
Q 3944 3084 3684 2787 
Q 3425 2491 3425 1978 
L 3425 0 
L 2847 0 
L 2847 2094 
Q 2847 2600 2669 2842 
Q 2491 3084 2119 3084 
Q 1678 3084 1418 2786 
Q 1159 2488 1159 1978 
L 1159 0 
L 581 0 
L 581 3500 
L 1159 3500 
L 1159 2956 
Q 1356 3278 1631 3431 
Q 1906 3584 2284 3584 
Q 2666 3584 2933 3390 
Q 3200 3197 3328 2828 
z
" transform="scale(0.015625)"/>
       <path id="DejaVuSans-56" d="M 1831 0 
L 50 4666 
L 709 4666 
L 2188 738 
L 3669 4666 
L 4325 4666 
L 2547 0 
L 1831 0 
z
" transform="scale(0.015625)"/>
       <path id="DejaVuSans-5d" d="M 1947 4863 
L 1947 -844 
L 622 -844 
L 622 -397 
L 1369 -397 
L 1369 4416 
L 622 4416 
L 622 4863 
L 1947 4863 
z
" transform="scale(0.015625)"/>
      </defs>
      <use xlink:href="#DejaVuSans-52" transform="translate(0 0.015625)"/>
      <use xlink:href="#DejaVuSans-65" transform="translate(69.482422 0.015625)"/>
      <use xlink:href="#DejaVuSans-28" transform="translate(131.005859 0.015625)"/>
      <use xlink:href="#DejaVuSans-Oblique-53" transform="translate(170.019531 0.015625)"/>
      <use xlink:href="#DejaVuSans-32" transform="translate(233.496094 -16.390625) scale(0.7)"/>
      <use xlink:href="#DejaVuSans-31" transform="translate(278.032227 -16.390625) scale(0.7)"/>
      <use xlink:href="#DejaVuSans-29" transform="translate(325.302734 0.015625)"/>
      <use xlink:href="#DejaVuSans-20" transform="translate(364.316406 0.015625)"/>
      <use xlink:href="#DejaVuSans-5b" transform="translate(396.103516 0.015625)"/>
      <use xlink:href="#DejaVuSans-6d" transform="translate(435.117188 0.015625)"/>
      <use xlink:href="#DejaVuSans-56" transform="translate(532.529297 0.015625)"/>
      <use xlink:href="#DejaVuSans-5d" transform="translate(600.9375 0.015625)"/>
     </g>
    </g>
   </g>
   <g id="matplotlib.axis_2">
    <g id="ytick_1">
     <g id="line2d_9">
      <defs>
       <path id="mb5fd114a59" d="M 0 0 
L -3.5 0 
" style="stroke: #000000; stroke-width: 0.8"/>
      </defs>
      <g>
       <use xlink:href="#mb5fd114a59" x="44.210938" y="277.355314" style="stroke: #000000; stroke-width: 0.8"/>
      </g>
     </g>
     <g id="text_10">
      <!-- -10 -->
      <g transform="translate(20.878125 281.154533) scale(0.1 -0.1)">
       <use xlink:href="#DejaVuSans-2d"/>
       <use xlink:href="#DejaVuSans-31" x="36.083984"/>
       <use xlink:href="#DejaVuSans-30" x="99.707031"/>
      </g>
     </g>
    </g>
    <g id="ytick_2">
     <g id="line2d_10">
      <g>
       <use xlink:href="#mb5fd114a59" x="44.210938" y="238.549913" style="stroke: #000000; stroke-width: 0.8"/>
      </g>
     </g>
     <g id="text_11">
      <!-- -8 -->
      <g transform="translate(27.240625 242.349132) scale(0.1 -0.1)">
       <defs>
        <path id="DejaVuSans-38" d="M 2034 2216 
Q 1584 2216 1326 1975 
Q 1069 1734 1069 1313 
Q 1069 891 1326 650 
Q 1584 409 2034 409 
Q 2484 409 2743 651 
Q 3003 894 3003 1313 
Q 3003 1734 2745 1975 
Q 2488 2216 2034 2216 
z
M 1403 2484 
Q 997 2584 770 2862 
Q 544 3141 544 3541 
Q 544 4100 942 4425 
Q 1341 4750 2034 4750 
Q 2731 4750 3128 4425 
Q 3525 4100 3525 3541 
Q 3525 3141 3298 2862 
Q 3072 2584 2669 2484 
Q 3125 2378 3379 2068 
Q 3634 1759 3634 1313 
Q 3634 634 3220 271 
Q 2806 -91 2034 -91 
Q 1263 -91 848 271 
Q 434 634 434 1313 
Q 434 1759 690 2068 
Q 947 2378 1403 2484 
z
M 1172 3481 
Q 1172 3119 1398 2916 
Q 1625 2713 2034 2713 
Q 2441 2713 2670 2916 
Q 2900 3119 2900 3481 
Q 2900 3844 2670 4047 
Q 2441 4250 2034 4250 
Q 1625 4250 1398 4047 
Q 1172 3844 1172 3481 
z
" transform="scale(0.015625)"/>
       </defs>
       <use xlink:href="#DejaVuSans-2d"/>
       <use xlink:href="#DejaVuSans-38" x="36.083984"/>
      </g>
     </g>
    </g>
    <g id="ytick_3">
     <g id="line2d_11">
      <g>
       <use xlink:href="#mb5fd114a59" x="44.210938" y="199.744512" style="stroke: #000000; stroke-width: 0.8"/>
      </g>
     </g>
     <g id="text_12">
      <!-- -6 -->
      <g transform="translate(27.240625 203.543731) scale(0.1 -0.1)">
       <defs>
        <path id="DejaVuSans-36" d="M 2113 2584 
Q 1688 2584 1439 2293 
Q 1191 2003 1191 1497 
Q 1191 994 1439 701 
Q 1688 409 2113 409 
Q 2538 409 2786 701 
Q 3034 994 3034 1497 
Q 3034 2003 2786 2293 
Q 2538 2584 2113 2584 
z
M 3366 4563 
L 3366 3988 
Q 3128 4100 2886 4159 
Q 2644 4219 2406 4219 
Q 1781 4219 1451 3797 
Q 1122 3375 1075 2522 
Q 1259 2794 1537 2939 
Q 1816 3084 2150 3084 
Q 2853 3084 3261 2657 
Q 3669 2231 3669 1497 
Q 3669 778 3244 343 
Q 2819 -91 2113 -91 
Q 1303 -91 875 529 
Q 447 1150 447 2328 
Q 447 3434 972 4092 
Q 1497 4750 2381 4750 
Q 2619 4750 2861 4703 
Q 3103 4656 3366 4563 
z
" transform="scale(0.015625)"/>
       </defs>
       <use xlink:href="#DejaVuSans-2d"/>
       <use xlink:href="#DejaVuSans-36" x="36.083984"/>
      </g>
     </g>
    </g>
    <g id="ytick_4">
     <g id="line2d_12">
      <g>
       <use xlink:href="#mb5fd114a59" x="44.210938" y="160.939111" style="stroke: #000000; stroke-width: 0.8"/>
      </g>
     </g>
     <g id="text_13">
      <!-- -4 -->
      <g transform="translate(27.240625 164.73833) scale(0.1 -0.1)">
       <defs>
        <path id="DejaVuSans-34" d="M 2419 4116 
L 825 1625 
L 2419 1625 
L 2419 4116 
z
M 2253 4666 
L 3047 4666 
L 3047 1625 
L 3713 1625 
L 3713 1100 
L 3047 1100 
L 3047 0 
L 2419 0 
L 2419 1100 
L 313 1100 
L 313 1709 
L 2253 4666 
z
" transform="scale(0.015625)"/>
       </defs>
       <use xlink:href="#DejaVuSans-2d"/>
       <use xlink:href="#DejaVuSans-34" x="36.083984"/>
      </g>
     </g>
    </g>
    <g id="ytick_5">
     <g id="line2d_13">
      <g>
       <use xlink:href="#mb5fd114a59" x="44.210938" y="122.13371" style="stroke: #000000; stroke-width: 0.8"/>
      </g>
     </g>
     <g id="text_14">
      <!-- -2 -->
      <g transform="translate(27.240625 125.932929) scale(0.1 -0.1)">
       <use xlink:href="#DejaVuSans-2d"/>
       <use xlink:href="#DejaVuSans-32" x="36.083984"/>
      </g>
     </g>
    </g>
    <g id="ytick_6">
     <g id="line2d_14">
      <g>
       <use xlink:href="#mb5fd114a59" x="44.210938" y="83.328309" style="stroke: #000000; stroke-width: 0.8"/>
      </g>
     </g>
     <g id="text_15">
      <!-- 0 -->
      <g transform="translate(30.848437 87.127528) scale(0.1 -0.1)">
       <use xlink:href="#DejaVuSans-30"/>
      </g>
     </g>
    </g>
    <g id="ytick_7">
     <g id="line2d_15">
      <g>
       <use xlink:href="#mb5fd114a59" x="44.210938" y="44.522908" style="stroke: #000000; stroke-width: 0.8"/>
      </g>
     </g>
     <g id="text_16">
      <!-- 2 -->
      <g transform="translate(30.848437 48.322127) scale(0.1 -0.1)">
       <use xlink:href="#DejaVuSans-32"/>
      </g>
     </g>
    </g>
    <g id="text_17">
     <!-- Im$(S_{21})$ [mV] -->
     <g transform="translate(14.798437 206.466) rotate(-90) scale(0.1 -0.1)">
      <defs>
       <path id="DejaVuSans-49" d="M 628 4666 
L 1259 4666 
L 1259 0 
L 628 0 
L 628 4666 
z
" transform="scale(0.015625)"/>
      </defs>
      <use xlink:href="#DejaVuSans-49" transform="translate(0 0.015625)"/>
      <use xlink:href="#DejaVuSans-6d" transform="translate(25.867188 0.015625)"/>
      <use xlink:href="#DejaVuSans-28" transform="translate(123.279297 0.015625)"/>
      <use xlink:href="#DejaVuSans-Oblique-53" transform="translate(162.292969 0.015625)"/>
      <use xlink:href="#DejaVuSans-32" transform="translate(225.769531 -16.390625) scale(0.7)"/>
      <use xlink:href="#DejaVuSans-31" transform="translate(270.305664 -16.390625) scale(0.7)"/>
      <use xlink:href="#DejaVuSans-29" transform="translate(317.576172 0.015625)"/>
      <use xlink:href="#DejaVuSans-20" transform="translate(356.589844 0.015625)"/>
      <use xlink:href="#DejaVuSans-5b" transform="translate(388.376953 0.015625)"/>
      <use xlink:href="#DejaVuSans-6d" transform="translate(427.390625 0.015625)"/>
      <use xlink:href="#DejaVuSans-56" transform="translate(524.802734 0.015625)"/>
      <use xlink:href="#DejaVuSans-5d" transform="translate(593.210938 0.015625)"/>
     </g>
    </g>
   </g>
   <g id="line2d_16">
    <path d="M 385.09821 241.919683 
L 383.757318 242.467151 
L 382.636897 243.31694 
L 381.057085 247.487099 
L 378.809971 249.616656 
L 378.434628 251.202853 
L 376.748134 253.717037 
L 372.435969 253.700275 
L 371.369593 257.440896 
L 369.89773 258.46577 
L 367.165763 260.802024 
L 365.109117 260.651836 
L 363.023796 262.672547 
L 361.801915 264.091005 
L 358.943691 262.895737 
L 356.933611 265.595006 
L 353.744571 265.775273 
L 350.214239 267.020525 
L 349.04787 269.828782 
L 348.38287 266.995091 
L 347.253164 270.223218 
L 344.970298 271.236213 
L 342.417815 271.847725 
L 341.181797 273.682924 
L 338.59214 275.453354 
L 336.357355 274.177233 
L 334.464696 275.16612 
L 335.367055 275.767127 
L 332.086133 279.410765 
L 328.626794 280.12185 
L 327.035689 280.289969 
L 325.691953 279.903953 
L 324.738455 280.820818 
L 320.485 281.309266 
L 316.823606 282.235863 
L 316.014148 284.806586 
L 315.562003 282.752068 
L 313.079539 283.416581 
L 310.814673 286.873032 
L 307.53114 286.080132 
L 305.350152 286.245486 
L 304.226363 286.461361 
L 301.733285 286.237208 
L 298.908896 289.513945 
L 295.83417 288.081112 
L 292.751364 288.735373 
L 291.585119 288.728485 
L 288.845056 291.501482 
L 286.550109 289.697783 
L 284.664664 291.017646 
L 282.523244 293.087631 
L 279.372041 291.23864 
L 276.677216 291.434278 
L 274.941282 293.270331 
L 271.363936 291.676868 
L 270.73532 292.745517 
L 268.334448 292.590194 
L 264.257247 292.651963 
L 263.325301 295.776 
L 261.574488 292.421696 
L 257.747454 293.7569 
L 257.754453 291.339287 
L 254.547892 293.451072 
L 251.646732 293.801575 
L 249.664555 293.626679 
L 246.741595 292.258554 
L 245.65002 293.961922 
L 242.366487 292.708566 
L 240.639251 293.366365 
L 237.936454 293.54292 
L 234.757672 293.054772 
L 234.03662 292.625376 
L 231.658675 291.746425 
L 228.502435 292.559926 
L 227.783189 291.091011 
L 223.522087 292.463607 
L 223.28119 289.969597 
L 219.552836 290.379421 
L 216.470601 291.517674 
L 213.957314 290.548535 
L 211.027015 288.295945 
L 209.365766 289.177597 
L 206.691366 288.873808 
L 203.851203 289.905032 
L 201.976836 287.28314 
L 200.335688 287.736849 
L 198.175403 287.912298 
L 194.36263 286.407617 
L 192.778801 285.559235 
L 189.030392 284.735244 
L 187.774521 284.020652 
L 183.368096 284.205169 
L 182.876151 283.304512 
L 178.340394 280.824404 
L 173.228612 279.299708 
L 171.284674 278.595416 
L 169.921117 278.411942 
L 168.040833 277.394082 
L 164.629868 276.643787 
L 164.162953 275.513827 
L 159.631676 276.176429 
L 157.47703 273.2701 
L 154.687867 272.933878 
L 150.746565 269.890835 
L 148.576593 269.65406 
L 144.161639 267.203335 
L 141.608135 266.949498 
L 139.836898 264.889498 
L 136.684767 264.349549 
L 134.230546 263.064472 
L 133.63436 261.145181 
L 129.396834 260.0256 
L 126.450637 258.476006 
L 124.316031 254.828182 
L 121.291749 254.918513 
L 118.563815 250.459873 
L 116.840071 249.619674 
L 113.738307 246.518764 
L 110.922184 246.127709 
L 109.05888 242.084168 
L 105.290556 242.22551 
L 103.900903 237.804642 
L 99.337938 235.361864 
L 98.094999 232.738597 
L 96.931704 229.625524 
L 94.176192 226.531708 
L 87.327565 220.916347 
L 81.53402 212.640547 
L 78.457672 205.960343 
L 76.090635 204.215664 
L 73.821211 196.790253 
L 70.744184 191.054592 
L 68.23771 184.884938 
L 66.452196 178.844571 
L 66.895241 171.6181 
L 62.820775 154.833469 
L 64.815034 143.325339 
L 65.732472 133.687953 
L 68.938956 122.960797 
L 72.509102 107.586882 
L 80.568872 97.301097 
L 90.948835 82.446704 
L 105.158551 71.504146 
L 123.556955 61.825371 
L 145.233716 55.509209 
L 172.331244 57.107507 
L 196.24038 65.935183 
L 216.756782 79.648731 
L 231.956335 102.45297 
L 239.05397 122.453123 
L 241.105997 148.125414 
L 239.556189 170.506813 
L 231.420621 187.082931 
L 221.473398 198.363622 
L 212.29279 210.983308 
L 191.609357 222.518546 
L 183.100269 226.894328 
L 173.667084 226.94894 
L 165.290728 229.650216 
L 156.326744 229.197613 
L 149.907551 230.746701 
L 143.177117 230.572073 
L 137.766022 228.387445 
L 131.719267 224.936886 
L 126.945888 224.272262 
L 122.231667 221.668284 
L 115.349699 221.392978 
L 111.912686 215.933729 
L 109.853846 216.459033 
L 107.757802 213.984707 
L 101.663028 211.370193 
L 99.606552 207.222214 
L 97.307449 205.094978 
L 91.549749 203.128089 
L 89.771744 198.366955 
L 86.052118 197.509126 
L 83.712335 194.107208 
L 80.770742 191.330609 
L 82.606345 187.018571 
L 78.875117 184.725144 
L 76.598972 181.858751 
L 74.431719 180.938964 
L 71.812059 176.281399 
L 71.576956 172.971439 
L 69.37202 172.227653 
L 67.764228 168.919242 
L 65.354951 165.911254 
L 65.875277 163.168763 
L 64.847865 160.468419 
L 62.021777 157.600968 
L 60.443665 152.816659 
L 60.443665 152.816659 
" clip-path="url(#pb9cced79b6)" style="fill: none; stroke: #1f77b4; stroke-width: 1.5; stroke-linecap: square"/>
    <defs>
     <path id="m5ff98cddff" d="M 0 1.5 
C 0.397805 1.5 0.77937 1.341951 1.06066 1.06066 
C 1.341951 0.77937 1.5 0.397805 1.5 0 
C 1.5 -0.397805 1.341951 -0.77937 1.06066 -1.06066 
C 0.77937 -1.341951 0.397805 -1.5 0 -1.5 
C -0.397805 -1.5 -0.77937 -1.341951 -1.06066 -1.06066 
C -1.341951 -0.77937 -1.5 -0.397805 -1.5 0 
C -1.5 0.397805 -1.341951 0.77937 -1.06066 1.06066 
C -0.77937 1.341951 -0.397805 1.5 0 1.5 
z
" style="stroke: #1f77b4"/>
    </defs>
    <g clip-path="url(#pb9cced79b6)">
     <use xlink:href="#m5ff98cddff" x="385.09821" y="241.919683" style="fill: #1f77b4; stroke: #1f77b4"/>
     <use xlink:href="#m5ff98cddff" x="383.757318" y="242.467151" style="fill: #1f77b4; stroke: #1f77b4"/>
     <use xlink:href="#m5ff98cddff" x="382.636897" y="243.31694" style="fill: #1f77b4; stroke: #1f77b4"/>
     <use xlink:href="#m5ff98cddff" x="381.057085" y="247.487099" style="fill: #1f77b4; stroke: #1f77b4"/>
     <use xlink:href="#m5ff98cddff" x="378.809971" y="249.616656" style="fill: #1f77b4; stroke: #1f77b4"/>
     <use xlink:href="#m5ff98cddff" x="378.434628" y="251.202853" style="fill: #1f77b4; stroke: #1f77b4"/>
     <use xlink:href="#m5ff98cddff" x="376.748134" y="253.717037" style="fill: #1f77b4; stroke: #1f77b4"/>
     <use xlink:href="#m5ff98cddff" x="372.435969" y="253.700275" style="fill: #1f77b4; stroke: #1f77b4"/>
     <use xlink:href="#m5ff98cddff" x="371.369593" y="257.440896" style="fill: #1f77b4; stroke: #1f77b4"/>
     <use xlink:href="#m5ff98cddff" x="369.89773" y="258.46577" style="fill: #1f77b4; stroke: #1f77b4"/>
     <use xlink:href="#m5ff98cddff" x="367.165763" y="260.802024" style="fill: #1f77b4; stroke: #1f77b4"/>
     <use xlink:href="#m5ff98cddff" x="365.109117" y="260.651836" style="fill: #1f77b4; stroke: #1f77b4"/>
     <use xlink:href="#m5ff98cddff" x="363.023796" y="262.672547" style="fill: #1f77b4; stroke: #1f77b4"/>
     <use xlink:href="#m5ff98cddff" x="361.801915" y="264.091005" style="fill: #1f77b4; stroke: #1f77b4"/>
     <use xlink:href="#m5ff98cddff" x="358.943691" y="262.895737" style="fill: #1f77b4; stroke: #1f77b4"/>
     <use xlink:href="#m5ff98cddff" x="356.933611" y="265.595006" style="fill: #1f77b4; stroke: #1f77b4"/>
     <use xlink:href="#m5ff98cddff" x="353.744571" y="265.775273" style="fill: #1f77b4; stroke: #1f77b4"/>
     <use xlink:href="#m5ff98cddff" x="350.214239" y="267.020525" style="fill: #1f77b4; stroke: #1f77b4"/>
     <use xlink:href="#m5ff98cddff" x="349.04787" y="269.828782" style="fill: #1f77b4; stroke: #1f77b4"/>
     <use xlink:href="#m5ff98cddff" x="348.38287" y="266.995091" style="fill: #1f77b4; stroke: #1f77b4"/>
     <use xlink:href="#m5ff98cddff" x="347.253164" y="270.223218" style="fill: #1f77b4; stroke: #1f77b4"/>
     <use xlink:href="#m5ff98cddff" x="344.970298" y="271.236213" style="fill: #1f77b4; stroke: #1f77b4"/>
     <use xlink:href="#m5ff98cddff" x="342.417815" y="271.847725" style="fill: #1f77b4; stroke: #1f77b4"/>
     <use xlink:href="#m5ff98cddff" x="341.181797" y="273.682924" style="fill: #1f77b4; stroke: #1f77b4"/>
     <use xlink:href="#m5ff98cddff" x="338.59214" y="275.453354" style="fill: #1f77b4; stroke: #1f77b4"/>
     <use xlink:href="#m5ff98cddff" x="336.357355" y="274.177233" style="fill: #1f77b4; stroke: #1f77b4"/>
     <use xlink:href="#m5ff98cddff" x="334.464696" y="275.16612" style="fill: #1f77b4; stroke: #1f77b4"/>
     <use xlink:href="#m5ff98cddff" x="335.367055" y="275.767127" style="fill: #1f77b4; stroke: #1f77b4"/>
     <use xlink:href="#m5ff98cddff" x="332.086133" y="279.410765" style="fill: #1f77b4; stroke: #1f77b4"/>
     <use xlink:href="#m5ff98cddff" x="328.626794" y="280.12185" style="fill: #1f77b4; stroke: #1f77b4"/>
     <use xlink:href="#m5ff98cddff" x="327.035689" y="280.289969" style="fill: #1f77b4; stroke: #1f77b4"/>
     <use xlink:href="#m5ff98cddff" x="325.691953" y="279.903953" style="fill: #1f77b4; stroke: #1f77b4"/>
     <use xlink:href="#m5ff98cddff" x="324.738455" y="280.820818" style="fill: #1f77b4; stroke: #1f77b4"/>
     <use xlink:href="#m5ff98cddff" x="320.485" y="281.309266" style="fill: #1f77b4; stroke: #1f77b4"/>
     <use xlink:href="#m5ff98cddff" x="316.823606" y="282.235863" style="fill: #1f77b4; stroke: #1f77b4"/>
     <use xlink:href="#m5ff98cddff" x="316.014148" y="284.806586" style="fill: #1f77b4; stroke: #1f77b4"/>
     <use xlink:href="#m5ff98cddff" x="315.562003" y="282.752068" style="fill: #1f77b4; stroke: #1f77b4"/>
     <use xlink:href="#m5ff98cddff" x="313.079539" y="283.416581" style="fill: #1f77b4; stroke: #1f77b4"/>
     <use xlink:href="#m5ff98cddff" x="310.814673" y="286.873032" style="fill: #1f77b4; stroke: #1f77b4"/>
     <use xlink:href="#m5ff98cddff" x="307.53114" y="286.080132" style="fill: #1f77b4; stroke: #1f77b4"/>
     <use xlink:href="#m5ff98cddff" x="305.350152" y="286.245486" style="fill: #1f77b4; stroke: #1f77b4"/>
     <use xlink:href="#m5ff98cddff" x="304.226363" y="286.461361" style="fill: #1f77b4; stroke: #1f77b4"/>
     <use xlink:href="#m5ff98cddff" x="301.733285" y="286.237208" style="fill: #1f77b4; stroke: #1f77b4"/>
     <use xlink:href="#m5ff98cddff" x="299.817188" y="288.418329" style="fill: #1f77b4; stroke: #1f77b4"/>
     <use xlink:href="#m5ff98cddff" x="298.908896" y="289.513945" style="fill: #1f77b4; stroke: #1f77b4"/>
     <use xlink:href="#m5ff98cddff" x="295.83417" y="288.081112" style="fill: #1f77b4; stroke: #1f77b4"/>
     <use xlink:href="#m5ff98cddff" x="292.751364" y="288.735373" style="fill: #1f77b4; stroke: #1f77b4"/>
     <use xlink:href="#m5ff98cddff" x="291.585119" y="288.728485" style="fill: #1f77b4; stroke: #1f77b4"/>
     <use xlink:href="#m5ff98cddff" x="288.845056" y="291.501482" style="fill: #1f77b4; stroke: #1f77b4"/>
     <use xlink:href="#m5ff98cddff" x="286.550109" y="289.697783" style="fill: #1f77b4; stroke: #1f77b4"/>
     <use xlink:href="#m5ff98cddff" x="284.664664" y="291.017646" style="fill: #1f77b4; stroke: #1f77b4"/>
     <use xlink:href="#m5ff98cddff" x="282.523244" y="293.087631" style="fill: #1f77b4; stroke: #1f77b4"/>
     <use xlink:href="#m5ff98cddff" x="279.372041" y="291.23864" style="fill: #1f77b4; stroke: #1f77b4"/>
     <use xlink:href="#m5ff98cddff" x="276.677216" y="291.434278" style="fill: #1f77b4; stroke: #1f77b4"/>
     <use xlink:href="#m5ff98cddff" x="274.941282" y="293.270331" style="fill: #1f77b4; stroke: #1f77b4"/>
     <use xlink:href="#m5ff98cddff" x="271.363936" y="291.676868" style="fill: #1f77b4; stroke: #1f77b4"/>
     <use xlink:href="#m5ff98cddff" x="270.73532" y="292.745517" style="fill: #1f77b4; stroke: #1f77b4"/>
     <use xlink:href="#m5ff98cddff" x="268.334448" y="292.590194" style="fill: #1f77b4; stroke: #1f77b4"/>
     <use xlink:href="#m5ff98cddff" x="264.257247" y="292.651963" style="fill: #1f77b4; stroke: #1f77b4"/>
     <use xlink:href="#m5ff98cddff" x="263.325301" y="295.776" style="fill: #1f77b4; stroke: #1f77b4"/>
     <use xlink:href="#m5ff98cddff" x="261.574488" y="292.421696" style="fill: #1f77b4; stroke: #1f77b4"/>
     <use xlink:href="#m5ff98cddff" x="257.747454" y="293.7569" style="fill: #1f77b4; stroke: #1f77b4"/>
     <use xlink:href="#m5ff98cddff" x="257.754453" y="291.339287" style="fill: #1f77b4; stroke: #1f77b4"/>
     <use xlink:href="#m5ff98cddff" x="254.547892" y="293.451072" style="fill: #1f77b4; stroke: #1f77b4"/>
     <use xlink:href="#m5ff98cddff" x="251.646732" y="293.801575" style="fill: #1f77b4; stroke: #1f77b4"/>
     <use xlink:href="#m5ff98cddff" x="249.664555" y="293.626679" style="fill: #1f77b4; stroke: #1f77b4"/>
     <use xlink:href="#m5ff98cddff" x="246.741595" y="292.258554" style="fill: #1f77b4; stroke: #1f77b4"/>
     <use xlink:href="#m5ff98cddff" x="245.65002" y="293.961922" style="fill: #1f77b4; stroke: #1f77b4"/>
     <use xlink:href="#m5ff98cddff" x="242.366487" y="292.708566" style="fill: #1f77b4; stroke: #1f77b4"/>
     <use xlink:href="#m5ff98cddff" x="240.639251" y="293.366365" style="fill: #1f77b4; stroke: #1f77b4"/>
     <use xlink:href="#m5ff98cddff" x="237.936454" y="293.54292" style="fill: #1f77b4; stroke: #1f77b4"/>
     <use xlink:href="#m5ff98cddff" x="234.757672" y="293.054772" style="fill: #1f77b4; stroke: #1f77b4"/>
     <use xlink:href="#m5ff98cddff" x="234.03662" y="292.625376" style="fill: #1f77b4; stroke: #1f77b4"/>
     <use xlink:href="#m5ff98cddff" x="231.658675" y="291.746425" style="fill: #1f77b4; stroke: #1f77b4"/>
     <use xlink:href="#m5ff98cddff" x="228.502435" y="292.559926" style="fill: #1f77b4; stroke: #1f77b4"/>
     <use xlink:href="#m5ff98cddff" x="227.783189" y="291.091011" style="fill: #1f77b4; stroke: #1f77b4"/>
     <use xlink:href="#m5ff98cddff" x="223.522087" y="292.463607" style="fill: #1f77b4; stroke: #1f77b4"/>
     <use xlink:href="#m5ff98cddff" x="223.28119" y="289.969597" style="fill: #1f77b4; stroke: #1f77b4"/>
     <use xlink:href="#m5ff98cddff" x="219.552836" y="290.379421" style="fill: #1f77b4; stroke: #1f77b4"/>
     <use xlink:href="#m5ff98cddff" x="216.470601" y="291.517674" style="fill: #1f77b4; stroke: #1f77b4"/>
     <use xlink:href="#m5ff98cddff" x="213.957314" y="290.548535" style="fill: #1f77b4; stroke: #1f77b4"/>
     <use xlink:href="#m5ff98cddff" x="211.027015" y="288.295945" style="fill: #1f77b4; stroke: #1f77b4"/>
     <use xlink:href="#m5ff98cddff" x="209.365766" y="289.177597" style="fill: #1f77b4; stroke: #1f77b4"/>
     <use xlink:href="#m5ff98cddff" x="206.691366" y="288.873808" style="fill: #1f77b4; stroke: #1f77b4"/>
     <use xlink:href="#m5ff98cddff" x="203.851203" y="289.905032" style="fill: #1f77b4; stroke: #1f77b4"/>
     <use xlink:href="#m5ff98cddff" x="201.976836" y="287.28314" style="fill: #1f77b4; stroke: #1f77b4"/>
     <use xlink:href="#m5ff98cddff" x="200.335688" y="287.736849" style="fill: #1f77b4; stroke: #1f77b4"/>
     <use xlink:href="#m5ff98cddff" x="198.175403" y="287.912298" style="fill: #1f77b4; stroke: #1f77b4"/>
     <use xlink:href="#m5ff98cddff" x="194.36263" y="286.407617" style="fill: #1f77b4; stroke: #1f77b4"/>
     <use xlink:href="#m5ff98cddff" x="192.778801" y="285.559235" style="fill: #1f77b4; stroke: #1f77b4"/>
     <use xlink:href="#m5ff98cddff" x="189.030392" y="284.735244" style="fill: #1f77b4; stroke: #1f77b4"/>
     <use xlink:href="#m5ff98cddff" x="187.774521" y="284.020652" style="fill: #1f77b4; stroke: #1f77b4"/>
     <use xlink:href="#m5ff98cddff" x="183.368096" y="284.205169" style="fill: #1f77b4; stroke: #1f77b4"/>
     <use xlink:href="#m5ff98cddff" x="182.876151" y="283.304512" style="fill: #1f77b4; stroke: #1f77b4"/>
     <use xlink:href="#m5ff98cddff" x="179.635152" y="281.593245" style="fill: #1f77b4; stroke: #1f77b4"/>
     <use xlink:href="#m5ff98cddff" x="178.340394" y="280.824404" style="fill: #1f77b4; stroke: #1f77b4"/>
     <use xlink:href="#m5ff98cddff" x="173.228612" y="279.299708" style="fill: #1f77b4; stroke: #1f77b4"/>
     <use xlink:href="#m5ff98cddff" x="171.284674" y="278.595416" style="fill: #1f77b4; stroke: #1f77b4"/>
     <use xlink:href="#m5ff98cddff" x="169.921117" y="278.411942" style="fill: #1f77b4; stroke: #1f77b4"/>
     <use xlink:href="#m5ff98cddff" x="168.040833" y="277.394082" style="fill: #1f77b4; stroke: #1f77b4"/>
     <use xlink:href="#m5ff98cddff" x="164.629868" y="276.643787" style="fill: #1f77b4; stroke: #1f77b4"/>
     <use xlink:href="#m5ff98cddff" x="164.162953" y="275.513827" style="fill: #1f77b4; stroke: #1f77b4"/>
     <use xlink:href="#m5ff98cddff" x="159.631676" y="276.176429" style="fill: #1f77b4; stroke: #1f77b4"/>
     <use xlink:href="#m5ff98cddff" x="157.47703" y="273.2701" style="fill: #1f77b4; stroke: #1f77b4"/>
     <use xlink:href="#m5ff98cddff" x="154.687867" y="272.933878" style="fill: #1f77b4; stroke: #1f77b4"/>
     <use xlink:href="#m5ff98cddff" x="150.746565" y="269.890835" style="fill: #1f77b4; stroke: #1f77b4"/>
     <use xlink:href="#m5ff98cddff" x="149.128267" y="269.664944" style="fill: #1f77b4; stroke: #1f77b4"/>
     <use xlink:href="#m5ff98cddff" x="148.576593" y="269.65406" style="fill: #1f77b4; stroke: #1f77b4"/>
     <use xlink:href="#m5ff98cddff" x="144.161639" y="267.203335" style="fill: #1f77b4; stroke: #1f77b4"/>
     <use xlink:href="#m5ff98cddff" x="141.608135" y="266.949498" style="fill: #1f77b4; stroke: #1f77b4"/>
     <use xlink:href="#m5ff98cddff" x="139.836898" y="264.889498" style="fill: #1f77b4; stroke: #1f77b4"/>
     <use xlink:href="#m5ff98cddff" x="136.684767" y="264.349549" style="fill: #1f77b4; stroke: #1f77b4"/>
     <use xlink:href="#m5ff98cddff" x="134.230546" y="263.064472" style="fill: #1f77b4; stroke: #1f77b4"/>
     <use xlink:href="#m5ff98cddff" x="133.63436" y="261.145181" style="fill: #1f77b4; stroke: #1f77b4"/>
     <use xlink:href="#m5ff98cddff" x="129.396834" y="260.0256" style="fill: #1f77b4; stroke: #1f77b4"/>
     <use xlink:href="#m5ff98cddff" x="126.450637" y="258.476006" style="fill: #1f77b4; stroke: #1f77b4"/>
     <use xlink:href="#m5ff98cddff" x="124.316031" y="254.828182" style="fill: #1f77b4; stroke: #1f77b4"/>
     <use xlink:href="#m5ff98cddff" x="121.291749" y="254.918513" style="fill: #1f77b4; stroke: #1f77b4"/>
     <use xlink:href="#m5ff98cddff" x="118.563815" y="250.459873" style="fill: #1f77b4; stroke: #1f77b4"/>
     <use xlink:href="#m5ff98cddff" x="116.840071" y="249.619674" style="fill: #1f77b4; stroke: #1f77b4"/>
     <use xlink:href="#m5ff98cddff" x="113.738307" y="246.518764" style="fill: #1f77b4; stroke: #1f77b4"/>
     <use xlink:href="#m5ff98cddff" x="110.922184" y="246.127709" style="fill: #1f77b4; stroke: #1f77b4"/>
     <use xlink:href="#m5ff98cddff" x="109.05888" y="242.084168" style="fill: #1f77b4; stroke: #1f77b4"/>
     <use xlink:href="#m5ff98cddff" x="105.290556" y="242.22551" style="fill: #1f77b4; stroke: #1f77b4"/>
     <use xlink:href="#m5ff98cddff" x="103.900903" y="237.804642" style="fill: #1f77b4; stroke: #1f77b4"/>
     <use xlink:href="#m5ff98cddff" x="99.337938" y="235.361864" style="fill: #1f77b4; stroke: #1f77b4"/>
     <use xlink:href="#m5ff98cddff" x="98.094999" y="232.738597" style="fill: #1f77b4; stroke: #1f77b4"/>
     <use xlink:href="#m5ff98cddff" x="96.931704" y="229.625524" style="fill: #1f77b4; stroke: #1f77b4"/>
     <use xlink:href="#m5ff98cddff" x="94.176192" y="226.531708" style="fill: #1f77b4; stroke: #1f77b4"/>
     <use xlink:href="#m5ff98cddff" x="89.244836" y="222.532275" style="fill: #1f77b4; stroke: #1f77b4"/>
     <use xlink:href="#m5ff98cddff" x="87.327565" y="220.916347" style="fill: #1f77b4; stroke: #1f77b4"/>
     <use xlink:href="#m5ff98cddff" x="84.059266" y="216.231294" style="fill: #1f77b4; stroke: #1f77b4"/>
     <use xlink:href="#m5ff98cddff" x="81.53402" y="212.640547" style="fill: #1f77b4; stroke: #1f77b4"/>
     <use xlink:href="#m5ff98cddff" x="78.457672" y="205.960343" style="fill: #1f77b4; stroke: #1f77b4"/>
     <use xlink:href="#m5ff98cddff" x="76.090635" y="204.215664" style="fill: #1f77b4; stroke: #1f77b4"/>
     <use xlink:href="#m5ff98cddff" x="73.821211" y="196.790253" style="fill: #1f77b4; stroke: #1f77b4"/>
     <use xlink:href="#m5ff98cddff" x="70.744184" y="191.054592" style="fill: #1f77b4; stroke: #1f77b4"/>
     <use xlink:href="#m5ff98cddff" x="68.23771" y="184.884938" style="fill: #1f77b4; stroke: #1f77b4"/>
     <use xlink:href="#m5ff98cddff" x="66.452196" y="178.844571" style="fill: #1f77b4; stroke: #1f77b4"/>
     <use xlink:href="#m5ff98cddff" x="66.895241" y="171.6181" style="fill: #1f77b4; stroke: #1f77b4"/>
     <use xlink:href="#m5ff98cddff" x="64.603044" y="162.015312" style="fill: #1f77b4; stroke: #1f77b4"/>
     <use xlink:href="#m5ff98cddff" x="62.820775" y="154.833469" style="fill: #1f77b4; stroke: #1f77b4"/>
     <use xlink:href="#m5ff98cddff" x="64.815034" y="143.325339" style="fill: #1f77b4; stroke: #1f77b4"/>
     <use xlink:href="#m5ff98cddff" x="65.732472" y="133.687953" style="fill: #1f77b4; stroke: #1f77b4"/>
     <use xlink:href="#m5ff98cddff" x="68.938956" y="122.960797" style="fill: #1f77b4; stroke: #1f77b4"/>
     <use xlink:href="#m5ff98cddff" x="72.509102" y="107.586882" style="fill: #1f77b4; stroke: #1f77b4"/>
     <use xlink:href="#m5ff98cddff" x="80.568872" y="97.301097" style="fill: #1f77b4; stroke: #1f77b4"/>
     <use xlink:href="#m5ff98cddff" x="90.948835" y="82.446704" style="fill: #1f77b4; stroke: #1f77b4"/>
     <use xlink:href="#m5ff98cddff" x="105.158551" y="71.504146" style="fill: #1f77b4; stroke: #1f77b4"/>
     <use xlink:href="#m5ff98cddff" x="123.556955" y="61.825371" style="fill: #1f77b4; stroke: #1f77b4"/>
     <use xlink:href="#m5ff98cddff" x="145.233716" y="55.509209" style="fill: #1f77b4; stroke: #1f77b4"/>
     <use xlink:href="#m5ff98cddff" x="172.331244" y="57.107507" style="fill: #1f77b4; stroke: #1f77b4"/>
     <use xlink:href="#m5ff98cddff" x="196.24038" y="65.935183" style="fill: #1f77b4; stroke: #1f77b4"/>
     <use xlink:href="#m5ff98cddff" x="216.756782" y="79.648731" style="fill: #1f77b4; stroke: #1f77b4"/>
     <use xlink:href="#m5ff98cddff" x="231.956335" y="102.45297" style="fill: #1f77b4; stroke: #1f77b4"/>
     <use xlink:href="#m5ff98cddff" x="239.05397" y="122.453123" style="fill: #1f77b4; stroke: #1f77b4"/>
     <use xlink:href="#m5ff98cddff" x="241.105997" y="148.125414" style="fill: #1f77b4; stroke: #1f77b4"/>
     <use xlink:href="#m5ff98cddff" x="239.556189" y="170.506813" style="fill: #1f77b4; stroke: #1f77b4"/>
     <use xlink:href="#m5ff98cddff" x="231.420621" y="187.082931" style="fill: #1f77b4; stroke: #1f77b4"/>
     <use xlink:href="#m5ff98cddff" x="221.473398" y="198.363622" style="fill: #1f77b4; stroke: #1f77b4"/>
     <use xlink:href="#m5ff98cddff" x="212.29279" y="210.983308" style="fill: #1f77b4; stroke: #1f77b4"/>
     <use xlink:href="#m5ff98cddff" x="202.066277" y="216.746425" style="fill: #1f77b4; stroke: #1f77b4"/>
     <use xlink:href="#m5ff98cddff" x="191.609357" y="222.518546" style="fill: #1f77b4; stroke: #1f77b4"/>
     <use xlink:href="#m5ff98cddff" x="183.100269" y="226.894328" style="fill: #1f77b4; stroke: #1f77b4"/>
     <use xlink:href="#m5ff98cddff" x="173.667084" y="226.94894" style="fill: #1f77b4; stroke: #1f77b4"/>
     <use xlink:href="#m5ff98cddff" x="165.290728" y="229.650216" style="fill: #1f77b4; stroke: #1f77b4"/>
     <use xlink:href="#m5ff98cddff" x="156.326744" y="229.197613" style="fill: #1f77b4; stroke: #1f77b4"/>
     <use xlink:href="#m5ff98cddff" x="149.907551" y="230.746701" style="fill: #1f77b4; stroke: #1f77b4"/>
     <use xlink:href="#m5ff98cddff" x="143.177117" y="230.572073" style="fill: #1f77b4; stroke: #1f77b4"/>
     <use xlink:href="#m5ff98cddff" x="137.766022" y="228.387445" style="fill: #1f77b4; stroke: #1f77b4"/>
     <use xlink:href="#m5ff98cddff" x="131.719267" y="224.936886" style="fill: #1f77b4; stroke: #1f77b4"/>
     <use xlink:href="#m5ff98cddff" x="126.945888" y="224.272262" style="fill: #1f77b4; stroke: #1f77b4"/>
     <use xlink:href="#m5ff98cddff" x="122.231667" y="221.668284" style="fill: #1f77b4; stroke: #1f77b4"/>
     <use xlink:href="#m5ff98cddff" x="115.349699" y="221.392978" style="fill: #1f77b4; stroke: #1f77b4"/>
     <use xlink:href="#m5ff98cddff" x="111.912686" y="215.933729" style="fill: #1f77b4; stroke: #1f77b4"/>
     <use xlink:href="#m5ff98cddff" x="109.853846" y="216.459033" style="fill: #1f77b4; stroke: #1f77b4"/>
     <use xlink:href="#m5ff98cddff" x="107.757802" y="213.984707" style="fill: #1f77b4; stroke: #1f77b4"/>
     <use xlink:href="#m5ff98cddff" x="101.663028" y="211.370193" style="fill: #1f77b4; stroke: #1f77b4"/>
     <use xlink:href="#m5ff98cddff" x="99.606552" y="207.222214" style="fill: #1f77b4; stroke: #1f77b4"/>
     <use xlink:href="#m5ff98cddff" x="97.307449" y="205.094978" style="fill: #1f77b4; stroke: #1f77b4"/>
     <use xlink:href="#m5ff98cddff" x="92.818752" y="203.640439" style="fill: #1f77b4; stroke: #1f77b4"/>
     <use xlink:href="#m5ff98cddff" x="91.549749" y="203.128089" style="fill: #1f77b4; stroke: #1f77b4"/>
     <use xlink:href="#m5ff98cddff" x="89.771744" y="198.366955" style="fill: #1f77b4; stroke: #1f77b4"/>
     <use xlink:href="#m5ff98cddff" x="86.052118" y="197.509126" style="fill: #1f77b4; stroke: #1f77b4"/>
     <use xlink:href="#m5ff98cddff" x="83.712335" y="194.107208" style="fill: #1f77b4; stroke: #1f77b4"/>
     <use xlink:href="#m5ff98cddff" x="80.770742" y="191.330609" style="fill: #1f77b4; stroke: #1f77b4"/>
     <use xlink:href="#m5ff98cddff" x="82.606345" y="187.018571" style="fill: #1f77b4; stroke: #1f77b4"/>
     <use xlink:href="#m5ff98cddff" x="78.875117" y="184.725144" style="fill: #1f77b4; stroke: #1f77b4"/>
     <use xlink:href="#m5ff98cddff" x="76.598972" y="181.858751" style="fill: #1f77b4; stroke: #1f77b4"/>
     <use xlink:href="#m5ff98cddff" x="74.431719" y="180.938964" style="fill: #1f77b4; stroke: #1f77b4"/>
     <use xlink:href="#m5ff98cddff" x="71.812059" y="176.281399" style="fill: #1f77b4; stroke: #1f77b4"/>
     <use xlink:href="#m5ff98cddff" x="71.576956" y="172.971439" style="fill: #1f77b4; stroke: #1f77b4"/>
     <use xlink:href="#m5ff98cddff" x="69.37202" y="172.227653" style="fill: #1f77b4; stroke: #1f77b4"/>
     <use xlink:href="#m5ff98cddff" x="67.764228" y="168.919242" style="fill: #1f77b4; stroke: #1f77b4"/>
     <use xlink:href="#m5ff98cddff" x="65.354951" y="165.911254" style="fill: #1f77b4; stroke: #1f77b4"/>
     <use xlink:href="#m5ff98cddff" x="65.875277" y="163.168763" style="fill: #1f77b4; stroke: #1f77b4"/>
     <use xlink:href="#m5ff98cddff" x="64.847865" y="160.468419" style="fill: #1f77b4; stroke: #1f77b4"/>
     <use xlink:href="#m5ff98cddff" x="62.101391" y="157.6631" style="fill: #1f77b4; stroke: #1f77b4"/>
     <use xlink:href="#m5ff98cddff" x="62.021777" y="157.600968" style="fill: #1f77b4; stroke: #1f77b4"/>
     <use xlink:href="#m5ff98cddff" x="60.443665" y="152.816659" style="fill: #1f77b4; stroke: #1f77b4"/>
    </g>
   </g>
   <g id="line2d_17">
    <path d="M 384.23029 241.814637 
L 379.159409 246.285023 
L 373.943653 250.590577 
L 368.587673 254.7265 
L 363.09623 258.68812 
L 357.474189 262.470898 
L 351.72651 266.070424 
L 345.85824 269.482417 
L 339.874508 272.702724 
L 333.780508 275.727319 
L 327.581497 278.552297 
L 321.282778 281.17387 
L 314.889692 283.588362 
L 308.407605 285.792198 
L 301.841894 287.781898 
L 295.197932 289.554062 
L 288.481074 291.105355 
L 281.696638 292.43249 
L 274.849885 293.532202 
L 267.945997 294.401226 
L 261.455307 295.001268 
L 254.923305 295.394732 
L 248.353903 295.578777 
L 241.750868 295.550426 
L 235.117796 295.306512 
L 228.458077 294.843615 
L 221.774863 294.157986 
L 215.071022 293.245446 
L 208.349093 292.101268 
L 201.611226 290.720026 
L 194.859117 289.095402 
L 188.577581 287.362407 
L 182.28524 285.406077 
L 175.982025 283.217988 
L 169.667259 280.78801 
L 163.339566 278.103837 
L 157.485287 275.387532 
L 151.615783 272.427261 
L 145.727977 269.205141 
L 140.31149 266.00266 
L 134.872926 262.540436 
L 129.408314 258.792259 
L 124.414265 255.109253 
L 119.391871 251.132194 
L 114.845043 247.269912 
L 110.271369 243.103738 
L 105.670597 238.590519 
L 101.559831 234.244049 
L 97.433156 229.533654 
L 93.815329 225.06783 
L 90.200358 220.23054 
L 87.114921 215.744346 
L 84.055972 210.897446 
L 81.541335 206.544556 
L 79.075123 201.867812 
L 76.679373 196.824907 
L 74.833275 192.494229 
L 73.071305 187.869364 
L 71.419151 182.91835 
L 69.909697 177.605711 
L 68.89618 173.3606 
L 68.008406 168.872601 
L 67.272911 164.123279 
L 66.721667 159.093722 
L 66.393171 153.765072 
L 66.333709 148.119347 
L 66.470519 144.171398 
L 66.770403 140.071545 
L 67.254768 135.817004 
L 67.947598 131.406438 
L 68.875663 126.84044 
L 70.068697 122.122121 
L 71.559532 117.257834 
L 73.384142 112.258029 
L 75.581561 107.138281 
L 78.193621 101.920461 
L 81.264437 96.634084 
L 84.839551 91.317776 
L 86.830534 88.663338 
L 88.964641 86.020815 
L 91.247301 83.398281 
L 93.683693 80.804664 
L 96.278645 78.249771 
L 99.036534 75.744325 
L 101.961164 73.299979 
L 105.055643 70.92932 
L 108.32224 68.645857 
L 111.762238 66.463997 
L 115.375778 64.398987 
L 119.161695 62.466841 
L 123.11736 60.684235 
L 127.238515 59.068376 
L 131.519124 57.636829 
L 135.951235 56.407322 
L 140.524858 55.397512 
L 145.227878 54.62472 
L 150.045998 54.105635 
L 154.962724 53.856 
L 159.959401 53.890271 
L 165.015305 54.221278 
L 170.107785 54.859876 
L 175.212478 55.814619 
L 180.303578 57.091454 
L 185.354162 58.69345 
L 190.336572 60.620592 
L 195.222836 62.869619 
L 199.98512 65.433952 
L 204.596201 68.303692 
L 209.029935 71.465704 
L 213.261713 74.903785 
L 217.268882 78.598908 
L 221.031129 82.529544 
L 224.530786 86.672035 
L 227.753085 91.001028 
L 230.686324 95.48992 
L 233.321953 100.11134 
L 235.654587 104.837608 
L 237.681939 109.641193 
L 239.404684 114.49513 
L 240.826268 119.373399 
L 241.952664 124.251251 
L 242.792102 129.105481 
L 243.354762 133.914643 
L 243.652464 138.659198 
L 243.698358 143.32162 
L 243.506612 147.886436 
L 243.092127 152.340231 
L 242.470262 156.671604 
L 241.656593 160.871098 
L 240.666695 164.931097 
L 239.515955 168.845707 
L 238.21941 172.610626 
L 236.791624 176.222997 
L 235.246579 179.681264 
L 233.597595 182.985028 
L 231.857279 186.134903 
L 230.037483 189.13238 
L 228.149286 191.979699 
L 226.202986 194.679731 
L 224.20811 197.235863 
L 222.173425 199.651905 
L 218.016051 204.080518 
L 213.786865 208.001264 
L 209.531702 211.451797 
L 205.287456 214.47015 
L 201.0833 217.0936 
L 196.941865 219.35789 
L 192.880303 221.296737 
L 188.911241 222.941552 
L 185.043614 224.321311 
L 181.283362 225.462546 
L 177.63404 226.389403 
L 174.097307 227.12376 
L 169.003384 227.907007 
L 164.158999 228.359586 
L 159.556376 228.531233 
L 155.185339 228.464113 
L 151.034343 228.193914 
L 147.091199 227.750815 
L 142.135713 226.934598 
L 137.499261 225.905848 
L 133.154699 224.704573 
L 129.076771 223.362909 
L 124.31919 221.527341 
L 119.901425 219.552361 
L 115.787583 217.468629 
L 111.94619 215.29982 
L 107.65764 212.610505 
L 103.680909 209.849106 
L 99.981065 207.033642 
L 95.975065 203.698401 
L 92.265677 200.323574 
L 88.347042 196.432582 
L 84.731106 192.516656 
L 81.383836 188.584129 
L 77.904381 184.147324 
L 74.696267 179.702406 
L 71.417017 174.758603 
L 68.408721 169.812745 
L 65.646422 164.867001 
L 62.867623 159.42851 
L 61.005076 155.47517 
L 61.005076 155.47517 
" clip-path="url(#pb9cced79b6)" style="fill: none; stroke: #d62728; stroke-width: 1.5; stroke-linecap: square"/>
   </g>
   <g id="patch_3">
    <path d="M 44.210938 307.872 
L 44.210938 41.76 
" style="fill: none; stroke: #000000; stroke-width: 0.8; stroke-linejoin: miter; stroke-linecap: square"/>
   </g>
   <g id="patch_4">
    <path d="M 401.330938 307.872 
L 401.330938 41.76 
" style="fill: none; stroke: #000000; stroke-width: 0.8; stroke-linejoin: miter; stroke-linecap: square"/>
   </g>
   <g id="patch_5">
    <path d="M 44.210938 307.872 
L 401.330938 307.872 
" style="fill: none; stroke: #000000; stroke-width: 0.8; stroke-linejoin: miter; stroke-linecap: square"/>
   </g>
   <g id="patch_6">
    <path d="M 44.210938 41.76 
L 401.330938 41.76 
" style="fill: none; stroke: #000000; stroke-width: 0.8; stroke-linejoin: miter; stroke-linecap: square"/>
   </g>
   <g id="text_18">
    <g id="patch_7">
     <path d="M 419.186937 102.337163 
L 564.186937 102.337163 
Q 568.186937 102.337163 568.186937 98.337163 
L 568.186937 55.0656 
Q 568.186937 51.0656 564.186937 51.0656 
L 419.186937 51.0656 
Q 415.186937 51.0656 415.186937 55.0656 
L 415.186937 98.337163 
Q 415.186937 102.337163 419.186937 102.337163 
z
" style="fill: #ffffff; opacity: 0.5; stroke: #000000; stroke-linejoin: miter"/>
    </g>
    <!-- Summary -->
    <g transform="translate(419.186937 62.664038) scale(0.1 -0.1)">
     <defs>
      <path id="DejaVuSans-53" d="M 3425 4513 
L 3425 3897 
Q 3066 4069 2747 4153 
Q 2428 4238 2131 4238 
Q 1616 4238 1336 4038 
Q 1056 3838 1056 3469 
Q 1056 3159 1242 3001 
Q 1428 2844 1947 2747 
L 2328 2669 
Q 3034 2534 3370 2195 
Q 3706 1856 3706 1288 
Q 3706 609 3251 259 
Q 2797 -91 1919 -91 
Q 1588 -91 1214 -16 
Q 841 59 441 206 
L 441 856 
Q 825 641 1194 531 
Q 1563 422 1919 422 
Q 2459 422 2753 634 
Q 3047 847 3047 1241 
Q 3047 1584 2836 1778 
Q 2625 1972 2144 2069 
L 1759 2144 
Q 1053 2284 737 2584 
Q 422 2884 422 3419 
Q 422 4038 858 4394 
Q 1294 4750 2059 4750 
Q 2388 4750 2728 4690 
Q 3069 4631 3425 4513 
z
" transform="scale(0.015625)"/>
      <path id="DejaVuSans-75" d="M 544 1381 
L 544 3500 
L 1119 3500 
L 1119 1403 
Q 1119 906 1312 657 
Q 1506 409 1894 409 
Q 2359 409 2629 706 
Q 2900 1003 2900 1516 
L 2900 3500 
L 3475 3500 
L 3475 0 
L 2900 0 
L 2900 538 
Q 2691 219 2414 64 
Q 2138 -91 1772 -91 
Q 1169 -91 856 284 
Q 544 659 544 1381 
z
M 1991 3584 
L 1991 3584 
z
" transform="scale(0.015625)"/>
      <path id="DejaVuSans-61" d="M 2194 1759 
Q 1497 1759 1228 1600 
Q 959 1441 959 1056 
Q 959 750 1161 570 
Q 1363 391 1709 391 
Q 2188 391 2477 730 
Q 2766 1069 2766 1631 
L 2766 1759 
L 2194 1759 
z
M 3341 1997 
L 3341 0 
L 2766 0 
L 2766 531 
Q 2569 213 2275 61 
Q 1981 -91 1556 -91 
Q 1019 -91 701 211 
Q 384 513 384 1019 
Q 384 1609 779 1909 
Q 1175 2209 1959 2209 
L 2766 2209 
L 2766 2266 
Q 2766 2663 2505 2880 
Q 2244 3097 1772 3097 
Q 1472 3097 1187 3025 
Q 903 2953 641 2809 
L 641 3341 
Q 956 3463 1253 3523 
Q 1550 3584 1831 3584 
Q 2591 3584 2966 3190 
Q 3341 2797 3341 1997 
z
" transform="scale(0.015625)"/>
      <path id="DejaVuSans-72" d="M 2631 2963 
Q 2534 3019 2420 3045 
Q 2306 3072 2169 3072 
Q 1681 3072 1420 2755 
Q 1159 2438 1159 1844 
L 1159 0 
L 581 0 
L 581 3500 
L 1159 3500 
L 1159 2956 
Q 1341 3275 1631 3429 
Q 1922 3584 2338 3584 
Q 2397 3584 2469 3576 
Q 2541 3569 2628 3553 
L 2631 2963 
z
" transform="scale(0.015625)"/>
      <path id="DejaVuSans-79" d="M 2059 -325 
Q 1816 -950 1584 -1140 
Q 1353 -1331 966 -1331 
L 506 -1331 
L 506 -850 
L 844 -850 
Q 1081 -850 1212 -737 
Q 1344 -625 1503 -206 
L 1606 56 
L 191 3500 
L 800 3500 
L 1894 763 
L 2988 3500 
L 3597 3500 
L 2059 -325 
z
" transform="scale(0.015625)"/>
     </defs>
     <use xlink:href="#DejaVuSans-53"/>
     <use xlink:href="#DejaVuSans-75" x="63.476562"/>
     <use xlink:href="#DejaVuSans-6d" x="126.855469"/>
     <use xlink:href="#DejaVuSans-6d" x="224.267578"/>
     <use xlink:href="#DejaVuSans-61" x="321.679688"/>
     <use xlink:href="#DejaVuSans-72" x="382.958984"/>
     <use xlink:href="#DejaVuSans-79" x="424.072266"/>
    </g>
    <!-- $Q_I$: 28.52$\pm$0.81 k -->
    <g transform="translate(419.186937 73.86185) scale(0.1 -0.1)">
     <defs>
      <path id="DejaVuSans-Oblique-51" d="M 2309 -84 
Q 2275 -88 2237 -89 
Q 2200 -91 2125 -91 
Q 1250 -91 756 411 
Q 263 913 263 1797 
Q 263 2319 452 2844 
Q 641 3369 978 3788 
Q 1369 4269 1858 4509 
Q 2347 4750 2938 4750 
Q 3794 4750 4287 4245 
Q 4781 3741 4781 2869 
Q 4781 1928 4265 1147 
Q 3750 366 2919 44 
L 3553 -825 
L 2847 -825 
L 2309 -84 
z
M 2919 4238 
Q 2400 4238 2003 3986 
Q 1606 3734 1313 3219 
Q 1125 2891 1026 2522 
Q 928 2153 928 1778 
Q 928 1128 1239 775 
Q 1550 422 2119 422 
Q 2631 422 3032 676 
Q 3434 931 3719 1434 
Q 3909 1772 4009 2142 
Q 4109 2513 4109 2881 
Q 4109 3528 3796 3883 
Q 3484 4238 2919 4238 
z
" transform="scale(0.015625)"/>
      <path id="DejaVuSans-Oblique-49" d="M 1081 4666 
L 1716 4666 
L 806 0 
L 172 0 
L 1081 4666 
z
" transform="scale(0.015625)"/>
      <path id="DejaVuSans-3a" d="M 750 794 
L 1409 794 
L 1409 0 
L 750 0 
L 750 794 
z
M 750 3309 
L 1409 3309 
L 1409 2516 
L 750 2516 
L 750 3309 
z
" transform="scale(0.015625)"/>
      <path id="DejaVuSans-b1" d="M 2944 4013 
L 2944 2803 
L 4684 2803 
L 4684 2272 
L 2944 2272 
L 2944 1063 
L 2419 1063 
L 2419 2272 
L 678 2272 
L 678 2803 
L 2419 2803 
L 2419 4013 
L 2944 4013 
z
M 678 531 
L 4684 531 
L 4684 0 
L 678 0 
L 678 531 
z
" transform="scale(0.015625)"/>
      <path id="DejaVuSans-6b" d="M 581 4863 
L 1159 4863 
L 1159 1991 
L 2875 3500 
L 3609 3500 
L 1753 1863 
L 3688 0 
L 2938 0 
L 1159 1709 
L 1159 0 
L 581 0 
L 581 4863 
z
" transform="scale(0.015625)"/>
     </defs>
     <use xlink:href="#DejaVuSans-Oblique-51" transform="translate(0 0.015625)"/>
     <use xlink:href="#DejaVuSans-Oblique-49" transform="translate(78.710938 -16.390625) scale(0.7)"/>
     <use xlink:href="#DejaVuSans-3a" transform="translate(102.089844 0.015625)"/>
     <use xlink:href="#DejaVuSans-20" transform="translate(135.78125 0.015625)"/>
     <use xlink:href="#DejaVuSans-32" transform="translate(167.568359 0.015625)"/>
     <use xlink:href="#DejaVuSans-38" transform="translate(231.191406 0.015625)"/>
     <use xlink:href="#DejaVuSans-2e" transform="translate(294.814453 0.015625)"/>
     <use xlink:href="#DejaVuSans-35" transform="translate(326.601562 0.015625)"/>
     <use xlink:href="#DejaVuSans-32" transform="translate(390.224609 0.015625)"/>
     <use xlink:href="#DejaVuSans-b1" transform="translate(453.847656 0.015625)"/>
     <use xlink:href="#DejaVuSans-30" transform="translate(537.636719 0.015625)"/>
     <use xlink:href="#DejaVuSans-2e" transform="translate(601.259766 0.015625)"/>
     <use xlink:href="#DejaVuSans-38" transform="translate(630.421875 0.015625)"/>
     <use xlink:href="#DejaVuSans-31" transform="translate(694.044922 0.015625)"/>
     <use xlink:href="#DejaVuSans-20" transform="translate(757.667969 0.015625)"/>
     <use xlink:href="#DejaVuSans-6b" transform="translate(789.455078 0.015625)"/>
    </g>
    <!-- $Q_C$: 3.221$\pm$0.011 k -->
    <g transform="translate(419.186937 85.059663) scale(0.1 -0.1)">
     <defs>
      <path id="DejaVuSans-Oblique-43" d="M 4447 4306 
L 4319 3641 
Q 4019 3944 3683 4091 
Q 3347 4238 2956 4238 
Q 2422 4238 2017 3981 
Q 1613 3725 1319 3200 
Q 1131 2863 1032 2486 
Q 934 2109 934 1728 
Q 934 1091 1264 756 
Q 1594 422 2222 422 
Q 2656 422 3056 561 
Q 3456 700 3834 978 
L 3688 231 
Q 3316 72 2936 -9 
Q 2556 -91 2175 -91 
Q 1278 -91 773 396 
Q 269 884 269 1753 
Q 269 2309 461 2846 
Q 653 3384 1013 3828 
Q 1394 4300 1883 4525 
Q 2372 4750 3022 4750 
Q 3422 4750 3780 4639 
Q 4138 4528 4447 4306 
z
" transform="scale(0.015625)"/>
      <path id="DejaVuSans-33" d="M 2597 2516 
Q 3050 2419 3304 2112 
Q 3559 1806 3559 1356 
Q 3559 666 3084 287 
Q 2609 -91 1734 -91 
Q 1441 -91 1130 -33 
Q 819 25 488 141 
L 488 750 
Q 750 597 1062 519 
Q 1375 441 1716 441 
Q 2309 441 2620 675 
Q 2931 909 2931 1356 
Q 2931 1769 2642 2001 
Q 2353 2234 1838 2234 
L 1294 2234 
L 1294 2753 
L 1863 2753 
Q 2328 2753 2575 2939 
Q 2822 3125 2822 3475 
Q 2822 3834 2567 4026 
Q 2313 4219 1838 4219 
Q 1578 4219 1281 4162 
Q 984 4106 628 3988 
L 628 4550 
Q 988 4650 1302 4700 
Q 1616 4750 1894 4750 
Q 2613 4750 3031 4423 
Q 3450 4097 3450 3541 
Q 3450 3153 3228 2886 
Q 3006 2619 2597 2516 
z
" transform="scale(0.015625)"/>
     </defs>
     <use xlink:href="#DejaVuSans-Oblique-51" transform="translate(0 0.015625)"/>
     <use xlink:href="#DejaVuSans-Oblique-43" transform="translate(78.710938 -16.390625) scale(0.7)"/>
     <use xlink:href="#DejaVuSans-3a" transform="translate(130.322266 0.015625)"/>
     <use xlink:href="#DejaVuSans-20" transform="translate(164.013672 0.015625)"/>
     <use xlink:href="#DejaVuSans-33" transform="translate(195.800781 0.015625)"/>
     <use xlink:href="#DejaVuSans-2e" transform="translate(259.423828 0.015625)"/>
     <use xlink:href="#DejaVuSans-32" transform="translate(285.710938 0.015625)"/>
     <use xlink:href="#DejaVuSans-32" transform="translate(349.333984 0.015625)"/>
     <use xlink:href="#DejaVuSans-31" transform="translate(412.957031 0.015625)"/>
     <use xlink:href="#DejaVuSans-b1" transform="translate(476.580078 0.015625)"/>
     <use xlink:href="#DejaVuSans-30" transform="translate(560.369141 0.015625)"/>
     <use xlink:href="#DejaVuSans-2e" transform="translate(623.992188 0.015625)"/>
     <use xlink:href="#DejaVuSans-30" transform="translate(655.779297 0.015625)"/>
     <use xlink:href="#DejaVuSans-31" transform="translate(719.402344 0.015625)"/>
     <use xlink:href="#DejaVuSans-31" transform="translate(783.025391 0.015625)"/>
     <use xlink:href="#DejaVuSans-20" transform="translate(846.648438 0.015625)"/>
     <use xlink:href="#DejaVuSans-6b" transform="translate(878.435547 0.015625)"/>
    </g>
    <!-- $f_{res}$: 6.0080164$\pm$4.7e-06 GHz -->
    <g transform="translate(419.186937 96.257475) scale(0.1 -0.1)">
     <defs>
      <path id="DejaVuSans-Oblique-66" d="M 3059 4863 
L 2969 4384 
L 2419 4384 
Q 2106 4384 1964 4261 
Q 1822 4138 1753 3809 
L 1691 3500 
L 2638 3500 
L 2553 3053 
L 1606 3053 
L 1013 0 
L 434 0 
L 1031 3053 
L 481 3053 
L 563 3500 
L 1113 3500 
L 1159 3744 
Q 1278 4363 1576 4613 
Q 1875 4863 2516 4863 
L 3059 4863 
z
" transform="scale(0.015625)"/>
      <path id="DejaVuSans-Oblique-72" d="M 2853 2969 
Q 2766 3016 2653 3041 
Q 2541 3066 2413 3066 
Q 1953 3066 1609 2717 
Q 1266 2369 1153 1784 
L 800 0 
L 225 0 
L 909 3500 
L 1484 3500 
L 1375 2956 
Q 1603 3259 1920 3421 
Q 2238 3584 2597 3584 
Q 2691 3584 2781 3573 
Q 2872 3563 2963 3538 
L 2853 2969 
z
" transform="scale(0.015625)"/>
      <path id="DejaVuSans-Oblique-65" d="M 3078 2063 
Q 3088 2113 3092 2166 
Q 3097 2219 3097 2272 
Q 3097 2653 2873 2875 
Q 2650 3097 2266 3097 
Q 1838 3097 1509 2826 
Q 1181 2556 1013 2059 
L 3078 2063 
z
M 3578 1613 
L 903 1613 
Q 884 1494 878 1425 
Q 872 1356 872 1306 
Q 872 872 1139 634 
Q 1406 397 1894 397 
Q 2269 397 2603 481 
Q 2938 566 3225 728 
L 3116 159 
Q 2806 34 2476 -28 
Q 2147 -91 1806 -91 
Q 1078 -91 686 257 
Q 294 606 294 1247 
Q 294 1794 489 2264 
Q 684 2734 1063 3103 
Q 1306 3334 1642 3459 
Q 1978 3584 2356 3584 
Q 2950 3584 3301 3228 
Q 3653 2872 3653 2272 
Q 3653 2128 3634 1964 
Q 3616 1800 3578 1613 
z
" transform="scale(0.015625)"/>
      <path id="DejaVuSans-Oblique-73" d="M 3200 3397 
L 3091 2853 
Q 2863 2978 2609 3040 
Q 2356 3103 2088 3103 
Q 1634 3103 1373 2948 
Q 1113 2794 1113 2528 
Q 1113 2219 1719 2053 
Q 1766 2041 1788 2034 
L 1972 1978 
Q 2547 1819 2739 1644 
Q 2931 1469 2931 1166 
Q 2931 609 2489 259 
Q 2047 -91 1331 -91 
Q 1053 -91 747 -37 
Q 441 16 72 128 
L 184 722 
Q 500 559 806 475 
Q 1113 391 1394 391 
Q 1816 391 2080 572 
Q 2344 753 2344 1031 
Q 2344 1331 1650 1516 
L 1591 1531 
L 1394 1581 
Q 956 1697 753 1886 
Q 550 2075 550 2369 
Q 550 2928 970 3256 
Q 1391 3584 2113 3584 
Q 2397 3584 2667 3537 
Q 2938 3491 3200 3397 
z
" transform="scale(0.015625)"/>
      <path id="DejaVuSans-47" d="M 3809 666 
L 3809 1919 
L 2778 1919 
L 2778 2438 
L 4434 2438 
L 4434 434 
Q 4069 175 3628 42 
Q 3188 -91 2688 -91 
Q 1594 -91 976 548 
Q 359 1188 359 2328 
Q 359 3472 976 4111 
Q 1594 4750 2688 4750 
Q 3144 4750 3555 4637 
Q 3966 4525 4313 4306 
L 4313 3634 
Q 3963 3931 3569 4081 
Q 3175 4231 2741 4231 
Q 1884 4231 1454 3753 
Q 1025 3275 1025 2328 
Q 1025 1384 1454 906 
Q 1884 428 2741 428 
Q 3075 428 3337 486 
Q 3600 544 3809 666 
z
" transform="scale(0.015625)"/>
      <path id="DejaVuSans-48" d="M 628 4666 
L 1259 4666 
L 1259 2753 
L 3553 2753 
L 3553 4666 
L 4184 4666 
L 4184 0 
L 3553 0 
L 3553 2222 
L 1259 2222 
L 1259 0 
L 628 0 
L 628 4666 
z
" transform="scale(0.015625)"/>
      <path id="DejaVuSans-7a" d="M 353 3500 
L 3084 3500 
L 3084 2975 
L 922 459 
L 3084 459 
L 3084 0 
L 275 0 
L 275 525 
L 2438 3041 
L 353 3041 
L 353 3500 
z
" transform="scale(0.015625)"/>
     </defs>
     <use xlink:href="#DejaVuSans-Oblique-66" transform="translate(0 0.015625)"/>
     <use xlink:href="#DejaVuSans-Oblique-72" transform="translate(35.205078 -16.390625) scale(0.7)"/>
     <use xlink:href="#DejaVuSans-Oblique-65" transform="translate(63.984375 -16.390625) scale(0.7)"/>
     <use xlink:href="#DejaVuSans-Oblique-73" transform="translate(107.050781 -16.390625) scale(0.7)"/>
     <use xlink:href="#DejaVuSans-3a" transform="translate(146.254883 0.015625)"/>
     <use xlink:href="#DejaVuSans-20" transform="translate(179.946289 0.015625)"/>
     <use xlink:href="#DejaVuSans-36" transform="translate(211.733398 0.015625)"/>
     <use xlink:href="#DejaVuSans-2e" transform="translate(275.356445 0.015625)"/>
     <use xlink:href="#DejaVuSans-30" transform="translate(307.143555 0.015625)"/>
     <use xlink:href="#DejaVuSans-30" transform="translate(370.766602 0.015625)"/>
     <use xlink:href="#DejaVuSans-38" transform="translate(434.389648 0.015625)"/>
     <use xlink:href="#DejaVuSans-30" transform="translate(498.012695 0.015625)"/>
     <use xlink:href="#DejaVuSans-31" transform="translate(561.635742 0.015625)"/>
     <use xlink:href="#DejaVuSans-36" transform="translate(625.258789 0.015625)"/>
     <use xlink:href="#DejaVuSans-34" transform="translate(688.881836 0.015625)"/>
     <use xlink:href="#DejaVuSans-b1" transform="translate(752.504883 0.015625)"/>
     <use xlink:href="#DejaVuSans-34" transform="translate(836.293945 0.015625)"/>
     <use xlink:href="#DejaVuSans-2e" transform="translate(899.916992 0.015625)"/>
     <use xlink:href="#DejaVuSans-37" transform="translate(923.954102 0.015625)"/>
     <use xlink:href="#DejaVuSans-65" transform="translate(987.577148 0.015625)"/>
     <use xlink:href="#DejaVuSans-2d" transform="translate(1049.100586 0.015625)"/>
     <use xlink:href="#DejaVuSans-30" transform="translate(1085.18457 0.015625)"/>
     <use xlink:href="#DejaVuSans-36" transform="translate(1148.807617 0.015625)"/>
     <use xlink:href="#DejaVuSans-20" transform="translate(1212.430664 0.015625)"/>
     <use xlink:href="#DejaVuSans-47" transform="translate(1244.217773 0.015625)"/>
     <use xlink:href="#DejaVuSans-48" transform="translate(1321.708008 0.015625)"/>
     <use xlink:href="#DejaVuSans-7a" transform="translate(1396.90332 0.015625)"/>
    </g>
   </g>
  </g>
  <g id="text_19">
   <!-- S21 One-tone -->
   <g transform="translate(175.76 16.318125) scale(0.12 -0.12)">
    <defs>
     <path id="DejaVuSans-4f" d="M 2522 4238 
Q 1834 4238 1429 3725 
Q 1025 3213 1025 2328 
Q 1025 1447 1429 934 
Q 1834 422 2522 422 
Q 3209 422 3611 934 
Q 4013 1447 4013 2328 
Q 4013 3213 3611 3725 
Q 3209 4238 2522 4238 
z
M 2522 4750 
Q 3503 4750 4090 4092 
Q 4678 3434 4678 2328 
Q 4678 1225 4090 567 
Q 3503 -91 2522 -91 
Q 1538 -91 948 565 
Q 359 1222 359 2328 
Q 359 3434 948 4092 
Q 1538 4750 2522 4750 
z
" transform="scale(0.015625)"/>
     <path id="DejaVuSans-6e" d="M 3513 2113 
L 3513 0 
L 2938 0 
L 2938 2094 
Q 2938 2591 2744 2837 
Q 2550 3084 2163 3084 
Q 1697 3084 1428 2787 
Q 1159 2491 1159 1978 
L 1159 0 
L 581 0 
L 581 3500 
L 1159 3500 
L 1159 2956 
Q 1366 3272 1645 3428 
Q 1925 3584 2291 3584 
Q 2894 3584 3203 3211 
Q 3513 2838 3513 2113 
z
" transform="scale(0.015625)"/>
     <path id="DejaVuSans-74" d="M 1172 4494 
L 1172 3500 
L 2356 3500 
L 2356 3053 
L 1172 3053 
L 1172 1153 
Q 1172 725 1289 603 
Q 1406 481 1766 481 
L 2356 481 
L 2356 0 
L 1766 0 
Q 1100 0 847 248 
Q 594 497 594 1153 
L 594 3053 
L 172 3053 
L 172 3500 
L 594 3500 
L 594 4494 
L 1172 4494 
z
" transform="scale(0.015625)"/>
     <path id="DejaVuSans-6f" d="M 1959 3097 
Q 1497 3097 1228 2736 
Q 959 2375 959 1747 
Q 959 1119 1226 758 
Q 1494 397 1959 397 
Q 2419 397 2687 759 
Q 2956 1122 2956 1747 
Q 2956 2369 2687 2733 
Q 2419 3097 1959 3097 
z
M 1959 3584 
Q 2709 3584 3137 3096 
Q 3566 2609 3566 1747 
Q 3566 888 3137 398 
Q 2709 -91 1959 -91 
Q 1206 -91 779 398 
Q 353 888 353 1747 
Q 353 2609 779 3096 
Q 1206 3584 1959 3584 
z
" transform="scale(0.015625)"/>
    </defs>
    <use xlink:href="#DejaVuSans-53"/>
    <use xlink:href="#DejaVuSans-32" x="63.476562"/>
    <use xlink:href="#DejaVuSans-31" x="127.099609"/>
    <use xlink:href="#DejaVuSans-20" x="190.722656"/>
    <use xlink:href="#DejaVuSans-4f" x="222.509766"/>
    <use xlink:href="#DejaVuSans-6e" x="301.220703"/>
    <use xlink:href="#DejaVuSans-65" x="364.599609"/>
    <use xlink:href="#DejaVuSans-2d" x="426.123047"/>
    <use xlink:href="#DejaVuSans-74" x="462.207031"/>
    <use xlink:href="#DejaVuSans-6f" x="501.416016"/>
    <use xlink:href="#DejaVuSans-6e" x="562.597656"/>
    <use xlink:href="#DejaVuSans-65" x="625.976562"/>
   </g>
   <!-- tuid: 20240226-104133-490-3a4f64 -->
   <g transform="translate(109.001563 29.7555) scale(0.12 -0.12)">
    <defs>
     <path id="DejaVuSans-69" d="M 603 3500 
L 1178 3500 
L 1178 0 
L 603 0 
L 603 3500 
z
M 603 4863 
L 1178 4863 
L 1178 4134 
L 603 4134 
L 603 4863 
z
" transform="scale(0.015625)"/>
     <path id="DejaVuSans-64" d="M 2906 2969 
L 2906 4863 
L 3481 4863 
L 3481 0 
L 2906 0 
L 2906 525 
Q 2725 213 2448 61 
Q 2172 -91 1784 -91 
Q 1150 -91 751 415 
Q 353 922 353 1747 
Q 353 2572 751 3078 
Q 1150 3584 1784 3584 
Q 2172 3584 2448 3432 
Q 2725 3281 2906 2969 
z
M 947 1747 
Q 947 1113 1208 752 
Q 1469 391 1925 391 
Q 2381 391 2643 752 
Q 2906 1113 2906 1747 
Q 2906 2381 2643 2742 
Q 2381 3103 1925 3103 
Q 1469 3103 1208 2742 
Q 947 2381 947 1747 
z
" transform="scale(0.015625)"/>
     <path id="DejaVuSans-39" d="M 703 97 
L 703 672 
Q 941 559 1184 500 
Q 1428 441 1663 441 
Q 2288 441 2617 861 
Q 2947 1281 2994 2138 
Q 2813 1869 2534 1725 
Q 2256 1581 1919 1581 
Q 1219 1581 811 2004 
Q 403 2428 403 3163 
Q 403 3881 828 4315 
Q 1253 4750 1959 4750 
Q 2769 4750 3195 4129 
Q 3622 3509 3622 2328 
Q 3622 1225 3098 567 
Q 2575 -91 1691 -91 
Q 1453 -91 1209 -44 
Q 966 3 703 97 
z
M 1959 2075 
Q 2384 2075 2632 2365 
Q 2881 2656 2881 3163 
Q 2881 3666 2632 3958 
Q 2384 4250 1959 4250 
Q 1534 4250 1286 3958 
Q 1038 3666 1038 3163 
Q 1038 2656 1286 2365 
Q 1534 2075 1959 2075 
z
" transform="scale(0.015625)"/>
     <path id="DejaVuSans-66" d="M 2375 4863 
L 2375 4384 
L 1825 4384 
Q 1516 4384 1395 4259 
Q 1275 4134 1275 3809 
L 1275 3500 
L 2222 3500 
L 2222 3053 
L 1275 3053 
L 1275 0 
L 697 0 
L 697 3053 
L 147 3053 
L 147 3500 
L 697 3500 
L 697 3744 
Q 697 4328 969 4595 
Q 1241 4863 1831 4863 
L 2375 4863 
z
" transform="scale(0.015625)"/>
    </defs>
    <use xlink:href="#DejaVuSans-74"/>
    <use xlink:href="#DejaVuSans-75" x="39.208984"/>
    <use xlink:href="#DejaVuSans-69" x="102.587891"/>
    <use xlink:href="#DejaVuSans-64" x="130.371094"/>
    <use xlink:href="#DejaVuSans-3a" x="193.847656"/>
    <use xlink:href="#DejaVuSans-20" x="227.539062"/>
    <use xlink:href="#DejaVuSans-32" x="259.326172"/>
    <use xlink:href="#DejaVuSans-30" x="322.949219"/>
    <use xlink:href="#DejaVuSans-32" x="386.572266"/>
    <use xlink:href="#DejaVuSans-34" x="450.195312"/>
    <use xlink:href="#DejaVuSans-30" x="513.818359"/>
    <use xlink:href="#DejaVuSans-32" x="577.441406"/>
    <use xlink:href="#DejaVuSans-32" x="641.064453"/>
    <use xlink:href="#DejaVuSans-36" x="704.6875"/>
    <use xlink:href="#DejaVuSans-2d" x="768.310547"/>
    <use xlink:href="#DejaVuSans-31" x="804.394531"/>
    <use xlink:href="#DejaVuSans-30" x="868.017578"/>
    <use xlink:href="#DejaVuSans-34" x="931.640625"/>
    <use xlink:href="#DejaVuSans-31" x="995.263672"/>
    <use xlink:href="#DejaVuSans-33" x="1058.886719"/>
    <use xlink:href="#DejaVuSans-33" x="1122.509766"/>
    <use xlink:href="#DejaVuSans-2d" x="1186.132812"/>
    <use xlink:href="#DejaVuSans-34" x="1222.216797"/>
    <use xlink:href="#DejaVuSans-39" x="1285.839844"/>
    <use xlink:href="#DejaVuSans-30" x="1349.462891"/>
    <use xlink:href="#DejaVuSans-2d" x="1413.085938"/>
    <use xlink:href="#DejaVuSans-33" x="1449.169922"/>
    <use xlink:href="#DejaVuSans-61" x="1512.792969"/>
    <use xlink:href="#DejaVuSans-34" x="1574.072266"/>
    <use xlink:href="#DejaVuSans-66" x="1637.695312"/>
    <use xlink:href="#DejaVuSans-36" x="1672.900391"/>
    <use xlink:href="#DejaVuSans-34" x="1736.523438"/>
   </g>
  </g>
 </g>
 <defs>
  <clipPath id="pb9cced79b6">
   <rect x="44.210938" y="41.76" width="357.12" height="266.112"/>
  </clipPath>
 </defs>
</svg>
