<?xml version="1.0" encoding="utf-8" standalone="no"?>
<!DOCTYPE svg PUBLIC "-//W3C//DTD SVG 1.1//EN"
  "http://www.w3.org/Graphics/SVG/1.1/DTD/svg11.dtd">
<svg xmlns:xlink="http://www.w3.org/1999/xlink" width="571.886937pt" height="345.42825pt" viewBox="0 0 571.886937 345.42825" xmlns="http://www.w3.org/2000/svg" version="1.1">
 <metadata>
  <rdf:RDF xmlns:dc="http://purl.org/dc/elements/1.1/" xmlns:cc="http://creativecommons.org/ns#" xmlns:rdf="http://www.w3.org/1999/02/22-rdf-syntax-ns#">
   <cc:Work>
    <dc:type rdf:resource="http://purl.org/dc/dcmitype/StillImage"/>
    <dc:date>2024-01-04T12:02:00.285415</dc:date>
    <dc:format>image/svg+xml</dc:format>
    <dc:creator>
     <cc:Agent>
      <dc:title>Matplotlib v3.8.1, https://matplotlib.org/</dc:title>
     </cc:Agent>
    </dc:creator>
   </cc:Work>
  </rdf:RDF>
 </metadata>
 <defs>
  <style type="text/css">*{stroke-linejoin: round; stroke-linecap: butt}</style>
 </defs>
 <g id="figure_1">
  <g id="patch_1">
   <path d="M 0 345.42825 
L 571.886937 345.42825 
L 571.886937 -0 
L 0 -0 
L 0 345.42825 
z
" style="fill: none; opacity: 0"/>
  </g>
  <g id="axes_1">
   <g id="patch_2">
    <path d="M 44.210938 307.872 
L 401.330938 307.872 
L 401.330938 41.76 
L 44.210938 41.76 
z
" style="fill: #ffffff"/>
   </g>
   <g id="matplotlib.axis_1">
    <g id="xtick_1">
     <g id="line2d_1">
      <defs>
       <path id="mfcf1d53147" d="M 0 0 
L 0 3.5 
" style="stroke: #000000; stroke-width: 0.8"/>
      </defs>
      <g>
       <use xlink:href="#mfcf1d53147" x="103.769222" y="307.872" style="stroke: #000000; stroke-width: 0.8"/>
      </g>
     </g>
     <g id="text_1">
      <!-- -80 -->
      <g transform="translate(95.602816 322.470438) scale(0.1 -0.1)">
       <defs>
        <path id="DejaVuSans-2d" d="M 313 2009 
L 1997 2009 
L 1997 1497 
L 313 1497 
L 313 2009 
z
" transform="scale(0.015625)"/>
        <path id="DejaVuSans-38" d="M 2034 2216 
Q 1584 2216 1326 1975 
Q 1069 1734 1069 1313 
Q 1069 891 1326 650 
Q 1584 409 2034 409 
Q 2484 409 2743 651 
Q 3003 894 3003 1313 
Q 3003 1734 2745 1975 
Q 2488 2216 2034 2216 
z
M 1403 2484 
Q 997 2584 770 2862 
Q 544 3141 544 3541 
Q 544 4100 942 4425 
Q 1341 4750 2034 4750 
Q 2731 4750 3128 4425 
Q 3525 4100 3525 3541 
Q 3525 3141 3298 2862 
Q 3072 2584 2669 2484 
Q 3125 2378 3379 2068 
Q 3634 1759 3634 1313 
Q 3634 634 3220 271 
Q 2806 -91 2034 -91 
Q 1263 -91 848 271 
Q 434 634 434 1313 
Q 434 1759 690 2068 
Q 947 2378 1403 2484 
z
M 1172 3481 
Q 1172 3119 1398 2916 
Q 1625 2713 2034 2713 
Q 2441 2713 2670 2916 
Q 2900 3119 2900 3481 
Q 2900 3844 2670 4047 
Q 2441 4250 2034 4250 
Q 1625 4250 1398 4047 
Q 1172 3844 1172 3481 
z
" transform="scale(0.015625)"/>
        <path id="DejaVuSans-30" d="M 2034 4250 
Q 1547 4250 1301 3770 
Q 1056 3291 1056 2328 
Q 1056 1369 1301 889 
Q 1547 409 2034 409 
Q 2525 409 2770 889 
Q 3016 1369 3016 2328 
Q 3016 3291 2770 3770 
Q 2525 4250 2034 4250 
z
M 2034 4750 
Q 2819 4750 3233 4129 
Q 3647 3509 3647 2328 
Q 3647 1150 3233 529 
Q 2819 -91 2034 -91 
Q 1250 -91 836 529 
Q 422 1150 422 2328 
Q 422 3509 836 4129 
Q 1250 4750 2034 4750 
z
" transform="scale(0.015625)"/>
       </defs>
       <use xlink:href="#DejaVuSans-2d"/>
       <use xlink:href="#DejaVuSans-38" x="36.083984"/>
       <use xlink:href="#DejaVuSans-30" x="99.707031"/>
      </g>
     </g>
    </g>
    <g id="xtick_2">
     <g id="line2d_2">
      <g>
       <use xlink:href="#mfcf1d53147" x="181.978015" y="307.872" style="stroke: #000000; stroke-width: 0.8"/>
      </g>
     </g>
     <g id="text_2">
      <!-- -60 -->
      <g transform="translate(173.811609 322.470438) scale(0.1 -0.1)">
       <defs>
        <path id="DejaVuSans-36" d="M 2113 2584 
Q 1688 2584 1439 2293 
Q 1191 2003 1191 1497 
Q 1191 994 1439 701 
Q 1688 409 2113 409 
Q 2538 409 2786 701 
Q 3034 994 3034 1497 
Q 3034 2003 2786 2293 
Q 2538 2584 2113 2584 
z
M 3366 4563 
L 3366 3988 
Q 3128 4100 2886 4159 
Q 2644 4219 2406 4219 
Q 1781 4219 1451 3797 
Q 1122 3375 1075 2522 
Q 1259 2794 1537 2939 
Q 1816 3084 2150 3084 
Q 2853 3084 3261 2657 
Q 3669 2231 3669 1497 
Q 3669 778 3244 343 
Q 2819 -91 2113 -91 
Q 1303 -91 875 529 
Q 447 1150 447 2328 
Q 447 3434 972 4092 
Q 1497 4750 2381 4750 
Q 2619 4750 2861 4703 
Q 3103 4656 3366 4563 
z
" transform="scale(0.015625)"/>
       </defs>
       <use xlink:href="#DejaVuSans-2d"/>
       <use xlink:href="#DejaVuSans-36" x="36.083984"/>
       <use xlink:href="#DejaVuSans-30" x="99.707031"/>
      </g>
     </g>
    </g>
    <g id="xtick_3">
     <g id="line2d_3">
      <g>
       <use xlink:href="#mfcf1d53147" x="260.186809" y="307.872" style="stroke: #000000; stroke-width: 0.8"/>
      </g>
     </g>
     <g id="text_3">
      <!-- -40 -->
      <g transform="translate(252.020402 322.470438) scale(0.1 -0.1)">
       <defs>
        <path id="DejaVuSans-34" d="M 2419 4116 
L 825 1625 
L 2419 1625 
L 2419 4116 
z
M 2253 4666 
L 3047 4666 
L 3047 1625 
L 3713 1625 
L 3713 1100 
L 3047 1100 
L 3047 0 
L 2419 0 
L 2419 1100 
L 313 1100 
L 313 1709 
L 2253 4666 
z
" transform="scale(0.015625)"/>
       </defs>
       <use xlink:href="#DejaVuSans-2d"/>
       <use xlink:href="#DejaVuSans-34" x="36.083984"/>
       <use xlink:href="#DejaVuSans-30" x="99.707031"/>
      </g>
     </g>
    </g>
    <g id="xtick_4">
     <g id="line2d_4">
      <g>
       <use xlink:href="#mfcf1d53147" x="338.395602" y="307.872" style="stroke: #000000; stroke-width: 0.8"/>
      </g>
     </g>
     <g id="text_4">
      <!-- -20 -->
      <g transform="translate(330.229196 322.470438) scale(0.1 -0.1)">
       <defs>
        <path id="DejaVuSans-32" d="M 1228 531 
L 3431 531 
L 3431 0 
L 469 0 
L 469 531 
Q 828 903 1448 1529 
Q 2069 2156 2228 2338 
Q 2531 2678 2651 2914 
Q 2772 3150 2772 3378 
Q 2772 3750 2511 3984 
Q 2250 4219 1831 4219 
Q 1534 4219 1204 4116 
Q 875 4013 500 3803 
L 500 4441 
Q 881 4594 1212 4672 
Q 1544 4750 1819 4750 
Q 2544 4750 2975 4387 
Q 3406 4025 3406 3419 
Q 3406 3131 3298 2873 
Q 3191 2616 2906 2266 
Q 2828 2175 2409 1742 
Q 1991 1309 1228 531 
z
" transform="scale(0.015625)"/>
       </defs>
       <use xlink:href="#DejaVuSans-2d"/>
       <use xlink:href="#DejaVuSans-32" x="36.083984"/>
       <use xlink:href="#DejaVuSans-30" x="99.707031"/>
      </g>
     </g>
    </g>
    <g id="text_5">
     <!-- Re$(S_{21})$ [mV] -->
     <g transform="translate(190.770938 336.148562) scale(0.1 -0.1)">
      <defs>
       <path id="DejaVuSans-52" d="M 2841 2188 
Q 3044 2119 3236 1894 
Q 3428 1669 3622 1275 
L 4263 0 
L 3584 0 
L 2988 1197 
Q 2756 1666 2539 1819 
Q 2322 1972 1947 1972 
L 1259 1972 
L 1259 0 
L 628 0 
L 628 4666 
L 2053 4666 
Q 2853 4666 3247 4331 
Q 3641 3997 3641 3322 
Q 3641 2881 3436 2590 
Q 3231 2300 2841 2188 
z
M 1259 4147 
L 1259 2491 
L 2053 2491 
Q 2509 2491 2742 2702 
Q 2975 2913 2975 3322 
Q 2975 3731 2742 3939 
Q 2509 4147 2053 4147 
L 1259 4147 
z
" transform="scale(0.015625)"/>
       <path id="DejaVuSans-65" d="M 3597 1894 
L 3597 1613 
L 953 1613 
Q 991 1019 1311 708 
Q 1631 397 2203 397 
Q 2534 397 2845 478 
Q 3156 559 3463 722 
L 3463 178 
Q 3153 47 2828 -22 
Q 2503 -91 2169 -91 
Q 1331 -91 842 396 
Q 353 884 353 1716 
Q 353 2575 817 3079 
Q 1281 3584 2069 3584 
Q 2775 3584 3186 3129 
Q 3597 2675 3597 1894 
z
M 3022 2063 
Q 3016 2534 2758 2815 
Q 2500 3097 2075 3097 
Q 1594 3097 1305 2825 
Q 1016 2553 972 2059 
L 3022 2063 
z
" transform="scale(0.015625)"/>
       <path id="DejaVuSans-28" d="M 1984 4856 
Q 1566 4138 1362 3434 
Q 1159 2731 1159 2009 
Q 1159 1288 1364 580 
Q 1569 -128 1984 -844 
L 1484 -844 
Q 1016 -109 783 600 
Q 550 1309 550 2009 
Q 550 2706 781 3412 
Q 1013 4119 1484 4856 
L 1984 4856 
z
" transform="scale(0.015625)"/>
       <path id="DejaVuSans-Oblique-53" d="M 3859 4513 
L 3738 3897 
Q 3422 4066 3111 4152 
Q 2800 4238 2509 4238 
Q 1944 4238 1609 3991 
Q 1275 3744 1275 3334 
Q 1275 3109 1398 2989 
Q 1522 2869 2034 2731 
L 2413 2638 
Q 3053 2472 3303 2217 
Q 3553 1963 3553 1503 
Q 3553 797 2998 353 
Q 2444 -91 1538 -91 
Q 1166 -91 791 -17 
Q 416 56 38 206 
L 166 856 
Q 513 641 861 531 
Q 1209 422 1556 422 
Q 2147 422 2503 684 
Q 2859 947 2859 1369 
Q 2859 1650 2717 1795 
Q 2575 1941 2106 2059 
L 1728 2156 
Q 1081 2325 845 2545 
Q 609 2766 609 3163 
Q 609 3859 1145 4304 
Q 1681 4750 2541 4750 
Q 2875 4750 3203 4690 
Q 3531 4631 3859 4513 
z
" transform="scale(0.015625)"/>
       <path id="DejaVuSans-31" d="M 794 531 
L 1825 531 
L 1825 4091 
L 703 3866 
L 703 4441 
L 1819 4666 
L 2450 4666 
L 2450 531 
L 3481 531 
L 3481 0 
L 794 0 
L 794 531 
z
" transform="scale(0.015625)"/>
       <path id="DejaVuSans-29" d="M 513 4856 
L 1013 4856 
Q 1481 4119 1714 3412 
Q 1947 2706 1947 2009 
Q 1947 1309 1714 600 
Q 1481 -109 1013 -844 
L 513 -844 
Q 928 -128 1133 580 
Q 1338 1288 1338 2009 
Q 1338 2731 1133 3434 
Q 928 4138 513 4856 
z
" transform="scale(0.015625)"/>
       <path id="DejaVuSans-20" transform="scale(0.015625)"/>
       <path id="DejaVuSans-5b" d="M 550 4863 
L 1875 4863 
L 1875 4416 
L 1125 4416 
L 1125 -397 
L 1875 -397 
L 1875 -844 
L 550 -844 
L 550 4863 
z
" transform="scale(0.015625)"/>
       <path id="DejaVuSans-6d" d="M 3328 2828 
Q 3544 3216 3844 3400 
Q 4144 3584 4550 3584 
Q 5097 3584 5394 3201 
Q 5691 2819 5691 2113 
L 5691 0 
L 5113 0 
L 5113 2094 
Q 5113 2597 4934 2840 
Q 4756 3084 4391 3084 
Q 3944 3084 3684 2787 
Q 3425 2491 3425 1978 
L 3425 0 
L 2847 0 
L 2847 2094 
Q 2847 2600 2669 2842 
Q 2491 3084 2119 3084 
Q 1678 3084 1418 2786 
Q 1159 2488 1159 1978 
L 1159 0 
L 581 0 
L 581 3500 
L 1159 3500 
L 1159 2956 
Q 1356 3278 1631 3431 
Q 1906 3584 2284 3584 
Q 2666 3584 2933 3390 
Q 3200 3197 3328 2828 
z
" transform="scale(0.015625)"/>
       <path id="DejaVuSans-56" d="M 1831 0 
L 50 4666 
L 709 4666 
L 2188 738 
L 3669 4666 
L 4325 4666 
L 2547 0 
L 1831 0 
z
" transform="scale(0.015625)"/>
       <path id="DejaVuSans-5d" d="M 1947 4863 
L 1947 -844 
L 622 -844 
L 622 -397 
L 1369 -397 
L 1369 4416 
L 622 4416 
L 622 4863 
L 1947 4863 
z
" transform="scale(0.015625)"/>
      </defs>
      <use xlink:href="#DejaVuSans-52" transform="translate(0 0.015625)"/>
      <use xlink:href="#DejaVuSans-65" transform="translate(69.482422 0.015625)"/>
      <use xlink:href="#DejaVuSans-28" transform="translate(131.005859 0.015625)"/>
      <use xlink:href="#DejaVuSans-Oblique-53" transform="translate(170.019531 0.015625)"/>
      <use xlink:href="#DejaVuSans-32" transform="translate(233.496094 -16.390625) scale(0.7)"/>
      <use xlink:href="#DejaVuSans-31" transform="translate(278.032227 -16.390625) scale(0.7)"/>
      <use xlink:href="#DejaVuSans-29" transform="translate(325.302734 0.015625)"/>
      <use xlink:href="#DejaVuSans-20" transform="translate(364.316406 0.015625)"/>
      <use xlink:href="#DejaVuSans-5b" transform="translate(396.103516 0.015625)"/>
      <use xlink:href="#DejaVuSans-6d" transform="translate(435.117188 0.015625)"/>
      <use xlink:href="#DejaVuSans-56" transform="translate(532.529297 0.015625)"/>
      <use xlink:href="#DejaVuSans-5d" transform="translate(600.9375 0.015625)"/>
     </g>
    </g>
   </g>
   <g id="matplotlib.axis_2">
    <g id="ytick_1">
     <g id="line2d_5">
      <defs>
       <path id="mc9728d0fde" d="M 0 0 
L -3.5 0 
" style="stroke: #000000; stroke-width: 0.8"/>
      </defs>
      <g>
       <use xlink:href="#mc9728d0fde" x="44.210938" y="280.728291" style="stroke: #000000; stroke-width: 0.8"/>
      </g>
     </g>
     <g id="text_6">
      <!-- -80 -->
      <g transform="translate(20.878125 284.527509) scale(0.1 -0.1)">
       <use xlink:href="#DejaVuSans-2d"/>
       <use xlink:href="#DejaVuSans-38" x="36.083984"/>
       <use xlink:href="#DejaVuSans-30" x="99.707031"/>
      </g>
     </g>
    </g>
    <g id="ytick_2">
     <g id="line2d_6">
      <g>
       <use xlink:href="#mc9728d0fde" x="44.210938" y="230.478522" style="stroke: #000000; stroke-width: 0.8"/>
      </g>
     </g>
     <g id="text_7">
      <!-- -60 -->
      <g transform="translate(20.878125 234.277741) scale(0.1 -0.1)">
       <use xlink:href="#DejaVuSans-2d"/>
       <use xlink:href="#DejaVuSans-36" x="36.083984"/>
       <use xlink:href="#DejaVuSans-30" x="99.707031"/>
      </g>
     </g>
    </g>
    <g id="ytick_3">
     <g id="line2d_7">
      <g>
       <use xlink:href="#mc9728d0fde" x="44.210938" y="180.228754" style="stroke: #000000; stroke-width: 0.8"/>
      </g>
     </g>
     <g id="text_8">
      <!-- -40 -->
      <g transform="translate(20.878125 184.027972) scale(0.1 -0.1)">
       <use xlink:href="#DejaVuSans-2d"/>
       <use xlink:href="#DejaVuSans-34" x="36.083984"/>
       <use xlink:href="#DejaVuSans-30" x="99.707031"/>
      </g>
     </g>
    </g>
    <g id="ytick_4">
     <g id="line2d_8">
      <g>
       <use xlink:href="#mc9728d0fde" x="44.210938" y="129.978985" style="stroke: #000000; stroke-width: 0.8"/>
      </g>
     </g>
     <g id="text_9">
      <!-- -20 -->
      <g transform="translate(20.878125 133.778204) scale(0.1 -0.1)">
       <use xlink:href="#DejaVuSans-2d"/>
       <use xlink:href="#DejaVuSans-32" x="36.083984"/>
       <use xlink:href="#DejaVuSans-30" x="99.707031"/>
      </g>
     </g>
    </g>
    <g id="ytick_5">
     <g id="line2d_9">
      <g>
       <use xlink:href="#mc9728d0fde" x="44.210938" y="79.729216" style="stroke: #000000; stroke-width: 0.8"/>
      </g>
     </g>
     <g id="text_10">
      <!-- 0 -->
      <g transform="translate(30.848437 83.528435) scale(0.1 -0.1)">
       <use xlink:href="#DejaVuSans-30"/>
      </g>
     </g>
    </g>
    <g id="text_11">
     <!-- Im$(S_{21})$ [mV] -->
     <g transform="translate(14.798437 206.466) rotate(-90) scale(0.1 -0.1)">
      <defs>
       <path id="DejaVuSans-49" d="M 628 4666 
L 1259 4666 
L 1259 0 
L 628 0 
L 628 4666 
z
" transform="scale(0.015625)"/>
      </defs>
      <use xlink:href="#DejaVuSans-49" transform="translate(0 0.015625)"/>
      <use xlink:href="#DejaVuSans-6d" transform="translate(25.867188 0.015625)"/>
      <use xlink:href="#DejaVuSans-28" transform="translate(123.279297 0.015625)"/>
      <use xlink:href="#DejaVuSans-Oblique-53" transform="translate(162.292969 0.015625)"/>
      <use xlink:href="#DejaVuSans-32" transform="translate(225.769531 -16.390625) scale(0.7)"/>
      <use xlink:href="#DejaVuSans-31" transform="translate(270.305664 -16.390625) scale(0.7)"/>
      <use xlink:href="#DejaVuSans-29" transform="translate(317.576172 0.015625)"/>
      <use xlink:href="#DejaVuSans-20" transform="translate(356.589844 0.015625)"/>
      <use xlink:href="#DejaVuSans-5b" transform="translate(388.376953 0.015625)"/>
      <use xlink:href="#DejaVuSans-6d" transform="translate(427.390625 0.015625)"/>
      <use xlink:href="#DejaVuSans-56" transform="translate(524.802734 0.015625)"/>
      <use xlink:href="#DejaVuSans-5d" transform="translate(593.210938 0.015625)"/>
     </g>
    </g>
   </g>
   <g id="line2d_10">
    <path d="M 214.102777 293.998553 
L 211.905914 293.516621 
L 211.470919 293.073445 
L 207.57738 292.048429 
L 202.490128 289.899112 
L 199.372656 288.700708 
L 197.312721 288.213057 
L 195.91119 287.442105 
L 193.824519 286.816141 
L 192.614543 286.09925 
L 184.365555 283.247933 
L 180.368493 281.233819 
L 177.758324 280.633508 
L 176.541305 279.825772 
L 173.77364 278.863649 
L 172.234672 277.927527 
L 169.501491 276.687492 
L 167.62768 276.294105 
L 165.145227 275.056114 
L 163.387871 273.725094 
L 160.799021 273.34599 
L 158.393664 272.249917 
L 156.233288 270.74367 
L 154.348716 270.044327 
L 150.927932 268.348709 
L 149.205483 267.163332 
L 145.958194 265.758701 
L 144.000287 264.760404 
L 141.363832 262.966504 
L 138.750802 261.741837 
L 136.841493 260.418476 
L 133.004898 258.428898 
L 127.946259 255.46177 
L 124.864116 253.477718 
L 122.17637 251.479251 
L 116.017696 247.649536 
L 107.393635 241.182195 
L 103.784017 238.252709 
L 100.820692 235.645018 
L 97.353584 232.743703 
L 94.32788 229.760133 
L 91.369093 226.651973 
L 87.715062 222.991923 
L 84.473882 219.58116 
L 81.878333 216.360336 
L 78.639416 212.126146 
L 75.872269 207.593275 
L 72.973883 203.543618 
L 69.80572 198.088546 
L 67.564914 192.93362 
L 66.070563 188.140175 
L 63.539558 182.201202 
L 62.210565 177.345304 
L 61.046895 170.86028 
L 60.866123 162.892545 
L 60.443665 157.847766 
L 61.232473 149.63909 
L 63.186377 141.244319 
L 65.517443 133.522462 
L 69.952157 124.013664 
L 74.92411 116.202949 
L 81.862898 107.349266 
L 89.632572 99.165447 
L 100.024179 90.552863 
L 112.439705 82.504764 
L 127.211178 75.055039 
L 142.757997 68.611531 
L 159.190759 63.035214 
L 177.612052 58.90981 
L 196.915852 56.302367 
L 218.972422 54.484884 
L 240.300808 54.816252 
L 259.470822 56.641435 
L 280.014493 60.136695 
L 297.599802 65.210656 
L 315.374814 71.559425 
L 332.131703 79.563389 
L 345.223217 88.073706 
L 356.371356 96.493448 
L 365.776003 106.029252 
L 373.600049 116.604904 
L 380.01553 127.755189 
L 383.100849 136.802728 
L 385.09821 146.364171 
L 384.957521 156.102223 
L 384.122848 165.011987 
L 381.646037 173.179829 
L 378.934158 180.192442 
L 373.215279 188.643278 
L 370.37815 193.062148 
L 366.267929 197.785111 
L 361.846854 202.113263 
L 356.247206 207.879494 
L 351.379433 211.719629 
L 347.088856 214.621514 
L 341.507359 218.590299 
L 332.10537 224.277104 
L 320.942853 229.351201 
L 317.418533 230.405999 
L 311.17884 233.269737 
L 306.383185 234.289775 
L 297.355934 237.33793 
L 293.966245 237.858471 
L 288.90631 239.176222 
L 286.122722 239.70717 
L 281.405623 240.919891 
L 277.288418 241.100671 
L 275.291893 241.315736 
L 266.981257 242.441044 
L 263.504843 243.050974 
L 261.003185 242.879258 
L 258.352449 243.191828 
L 251.267848 243.335257 
L 245.176591 243.650674 
L 241.93958 243.349754 
L 239.297398 243.333375 
L 237.143606 243.028071 
L 234.188432 242.987924 
L 232.202673 242.808151 
L 229.041404 242.823747 
L 226.712206 242.209777 
L 224.094977 242.367563 
L 220.706659 241.775043 
L 218.163746 241.705307 
L 216.524091 241.535421 
L 215.084316 241.194027 
L 212.235589 240.963638 
L 208.308097 240.297888 
L 206.634867 239.593396 
L 204.429653 239.412551 
L 201.949781 238.872083 
L 199.50573 238.548755 
L 188.505641 235.923502 
L 186.081585 235.595017 
L 184.012943 235.016224 
L 182.855463 234.352991 
L 181.2715 233.628844 
L 177.795825 233.020607 
L 172.255465 231.420934 
L 171.044313 230.865017 
L 167.612534 229.773899 
L 165.740617 229.402111 
L 164.671284 228.566764 
L 162.79988 227.99584 
L 161.729151 227.401986 
L 160.078556 226.644584 
L 158.617864 226.339046 
L 157.006945 225.875411 
L 156.328027 225.298857 
L 154.485317 224.85492 
L 152.885019 224.03889 
L 151.513587 223.171284 
L 150.035614 222.7984 
L 148.618278 221.946224 
L 146.946135 221.348041 
L 145.633575 221.12149 
L 144.634193 220.012054 
L 141.538852 219.125375 
L 138.925355 217.339655 
L 135.878379 216.424906 
L 134.49843 215.924181 
L 133.945964 215.05127 
L 133.016 214.34186 
L 130.970655 213.718474 
L 130.230726 213.069392 
L 128.678649 212.294674 
L 126.657162 211.058455 
L 125.324343 210.361968 
L 125.324343 210.361968 
" clip-path="url(#pceb80e28e7)" style="fill: none; stroke: #1f77b4; stroke-width: 1.5; stroke-linecap: square"/>
    <defs>
     <path id="m628e91283d" d="M 0 1.5 
C 0.397805 1.5 0.77937 1.341951 1.06066 1.06066 
C 1.341951 0.77937 1.5 0.397805 1.5 0 
C 1.5 -0.397805 1.341951 -0.77937 1.06066 -1.06066 
C 0.77937 -1.341951 0.397805 -1.5 0 -1.5 
C -0.397805 -1.5 -0.77937 -1.341951 -1.06066 -1.06066 
C -1.341951 -0.77937 -1.5 -0.397805 -1.5 0 
C -1.5 0.397805 -1.341951 0.77937 -1.06066 1.06066 
C -0.77937 1.341951 -0.397805 1.5 0 1.5 
z
" style="stroke: #1f77b4"/>
    </defs>
    <g clip-path="url(#pceb80e28e7)">
     <use xlink:href="#m628e91283d" x="214.102777" y="293.998553" style="fill: #1f77b4; stroke: #1f77b4"/>
     <use xlink:href="#m628e91283d" x="211.905914" y="293.516621" style="fill: #1f77b4; stroke: #1f77b4"/>
     <use xlink:href="#m628e91283d" x="211.470919" y="293.073445" style="fill: #1f77b4; stroke: #1f77b4"/>
     <use xlink:href="#m628e91283d" x="209.359796" y="292.546328" style="fill: #1f77b4; stroke: #1f77b4"/>
     <use xlink:href="#m628e91283d" x="207.57738" y="292.048429" style="fill: #1f77b4; stroke: #1f77b4"/>
     <use xlink:href="#m628e91283d" x="205.87836" y="291.299401" style="fill: #1f77b4; stroke: #1f77b4"/>
     <use xlink:href="#m628e91283d" x="204.985817" y="290.983894" style="fill: #1f77b4; stroke: #1f77b4"/>
     <use xlink:href="#m628e91283d" x="202.490128" y="289.899112" style="fill: #1f77b4; stroke: #1f77b4"/>
     <use xlink:href="#m628e91283d" x="200.729681" y="289.285289" style="fill: #1f77b4; stroke: #1f77b4"/>
     <use xlink:href="#m628e91283d" x="199.372656" y="288.700708" style="fill: #1f77b4; stroke: #1f77b4"/>
     <use xlink:href="#m628e91283d" x="197.312721" y="288.213057" style="fill: #1f77b4; stroke: #1f77b4"/>
     <use xlink:href="#m628e91283d" x="195.91119" y="287.442105" style="fill: #1f77b4; stroke: #1f77b4"/>
     <use xlink:href="#m628e91283d" x="193.824519" y="286.816141" style="fill: #1f77b4; stroke: #1f77b4"/>
     <use xlink:href="#m628e91283d" x="192.614543" y="286.09925" style="fill: #1f77b4; stroke: #1f77b4"/>
     <use xlink:href="#m628e91283d" x="190.314267" y="285.275719" style="fill: #1f77b4; stroke: #1f77b4"/>
     <use xlink:href="#m628e91283d" x="188.605653" y="284.670327" style="fill: #1f77b4; stroke: #1f77b4"/>
     <use xlink:href="#m628e91283d" x="186.2951" y="283.774221" style="fill: #1f77b4; stroke: #1f77b4"/>
     <use xlink:href="#m628e91283d" x="184.365555" y="283.247933" style="fill: #1f77b4; stroke: #1f77b4"/>
     <use xlink:href="#m628e91283d" x="182.51365" y="282.341182" style="fill: #1f77b4; stroke: #1f77b4"/>
     <use xlink:href="#m628e91283d" x="180.368493" y="281.233819" style="fill: #1f77b4; stroke: #1f77b4"/>
     <use xlink:href="#m628e91283d" x="177.758324" y="280.633508" style="fill: #1f77b4; stroke: #1f77b4"/>
     <use xlink:href="#m628e91283d" x="176.541305" y="279.825772" style="fill: #1f77b4; stroke: #1f77b4"/>
     <use xlink:href="#m628e91283d" x="173.77364" y="278.863649" style="fill: #1f77b4; stroke: #1f77b4"/>
     <use xlink:href="#m628e91283d" x="172.234672" y="277.927527" style="fill: #1f77b4; stroke: #1f77b4"/>
     <use xlink:href="#m628e91283d" x="169.501491" y="276.687492" style="fill: #1f77b4; stroke: #1f77b4"/>
     <use xlink:href="#m628e91283d" x="167.62768" y="276.294105" style="fill: #1f77b4; stroke: #1f77b4"/>
     <use xlink:href="#m628e91283d" x="165.145227" y="275.056114" style="fill: #1f77b4; stroke: #1f77b4"/>
     <use xlink:href="#m628e91283d" x="163.387871" y="273.725094" style="fill: #1f77b4; stroke: #1f77b4"/>
     <use xlink:href="#m628e91283d" x="160.799021" y="273.34599" style="fill: #1f77b4; stroke: #1f77b4"/>
     <use xlink:href="#m628e91283d" x="158.393664" y="272.249917" style="fill: #1f77b4; stroke: #1f77b4"/>
     <use xlink:href="#m628e91283d" x="156.233288" y="270.74367" style="fill: #1f77b4; stroke: #1f77b4"/>
     <use xlink:href="#m628e91283d" x="154.348716" y="270.044327" style="fill: #1f77b4; stroke: #1f77b4"/>
     <use xlink:href="#m628e91283d" x="150.927932" y="268.348709" style="fill: #1f77b4; stroke: #1f77b4"/>
     <use xlink:href="#m628e91283d" x="149.205483" y="267.163332" style="fill: #1f77b4; stroke: #1f77b4"/>
     <use xlink:href="#m628e91283d" x="145.958194" y="265.758701" style="fill: #1f77b4; stroke: #1f77b4"/>
     <use xlink:href="#m628e91283d" x="144.000287" y="264.760404" style="fill: #1f77b4; stroke: #1f77b4"/>
     <use xlink:href="#m628e91283d" x="141.363832" y="262.966504" style="fill: #1f77b4; stroke: #1f77b4"/>
     <use xlink:href="#m628e91283d" x="138.750802" y="261.741837" style="fill: #1f77b4; stroke: #1f77b4"/>
     <use xlink:href="#m628e91283d" x="136.841493" y="260.418476" style="fill: #1f77b4; stroke: #1f77b4"/>
     <use xlink:href="#m628e91283d" x="133.004898" y="258.428898" style="fill: #1f77b4; stroke: #1f77b4"/>
     <use xlink:href="#m628e91283d" x="130.378513" y="256.896909" style="fill: #1f77b4; stroke: #1f77b4"/>
     <use xlink:href="#m628e91283d" x="127.946259" y="255.46177" style="fill: #1f77b4; stroke: #1f77b4"/>
     <use xlink:href="#m628e91283d" x="124.864116" y="253.477718" style="fill: #1f77b4; stroke: #1f77b4"/>
     <use xlink:href="#m628e91283d" x="122.17637" y="251.479251" style="fill: #1f77b4; stroke: #1f77b4"/>
     <use xlink:href="#m628e91283d" x="118.666161" y="249.35517" style="fill: #1f77b4; stroke: #1f77b4"/>
     <use xlink:href="#m628e91283d" x="116.017696" y="247.649536" style="fill: #1f77b4; stroke: #1f77b4"/>
     <use xlink:href="#m628e91283d" x="113.005934" y="245.375308" style="fill: #1f77b4; stroke: #1f77b4"/>
     <use xlink:href="#m628e91283d" x="109.80046" y="243.075986" style="fill: #1f77b4; stroke: #1f77b4"/>
     <use xlink:href="#m628e91283d" x="107.393635" y="241.182195" style="fill: #1f77b4; stroke: #1f77b4"/>
     <use xlink:href="#m628e91283d" x="103.784017" y="238.252709" style="fill: #1f77b4; stroke: #1f77b4"/>
     <use xlink:href="#m628e91283d" x="100.820692" y="235.645018" style="fill: #1f77b4; stroke: #1f77b4"/>
     <use xlink:href="#m628e91283d" x="97.353584" y="232.743703" style="fill: #1f77b4; stroke: #1f77b4"/>
     <use xlink:href="#m628e91283d" x="94.32788" y="229.760133" style="fill: #1f77b4; stroke: #1f77b4"/>
     <use xlink:href="#m628e91283d" x="91.369093" y="226.651973" style="fill: #1f77b4; stroke: #1f77b4"/>
     <use xlink:href="#m628e91283d" x="87.715062" y="222.991923" style="fill: #1f77b4; stroke: #1f77b4"/>
     <use xlink:href="#m628e91283d" x="84.473882" y="219.58116" style="fill: #1f77b4; stroke: #1f77b4"/>
     <use xlink:href="#m628e91283d" x="81.878333" y="216.360336" style="fill: #1f77b4; stroke: #1f77b4"/>
     <use xlink:href="#m628e91283d" x="78.639416" y="212.126146" style="fill: #1f77b4; stroke: #1f77b4"/>
     <use xlink:href="#m628e91283d" x="75.872269" y="207.593275" style="fill: #1f77b4; stroke: #1f77b4"/>
     <use xlink:href="#m628e91283d" x="72.973883" y="203.543618" style="fill: #1f77b4; stroke: #1f77b4"/>
     <use xlink:href="#m628e91283d" x="69.80572" y="198.088546" style="fill: #1f77b4; stroke: #1f77b4"/>
     <use xlink:href="#m628e91283d" x="67.564914" y="192.93362" style="fill: #1f77b4; stroke: #1f77b4"/>
     <use xlink:href="#m628e91283d" x="66.070563" y="188.140175" style="fill: #1f77b4; stroke: #1f77b4"/>
     <use xlink:href="#m628e91283d" x="63.539558" y="182.201202" style="fill: #1f77b4; stroke: #1f77b4"/>
     <use xlink:href="#m628e91283d" x="62.210565" y="177.345304" style="fill: #1f77b4; stroke: #1f77b4"/>
     <use xlink:href="#m628e91283d" x="61.046895" y="170.86028" style="fill: #1f77b4; stroke: #1f77b4"/>
     <use xlink:href="#m628e91283d" x="60.866123" y="162.892545" style="fill: #1f77b4; stroke: #1f77b4"/>
     <use xlink:href="#m628e91283d" x="60.443665" y="157.847766" style="fill: #1f77b4; stroke: #1f77b4"/>
     <use xlink:href="#m628e91283d" x="61.232473" y="149.63909" style="fill: #1f77b4; stroke: #1f77b4"/>
     <use xlink:href="#m628e91283d" x="63.186377" y="141.244319" style="fill: #1f77b4; stroke: #1f77b4"/>
     <use xlink:href="#m628e91283d" x="65.517443" y="133.522462" style="fill: #1f77b4; stroke: #1f77b4"/>
     <use xlink:href="#m628e91283d" x="69.952157" y="124.013664" style="fill: #1f77b4; stroke: #1f77b4"/>
     <use xlink:href="#m628e91283d" x="74.92411" y="116.202949" style="fill: #1f77b4; stroke: #1f77b4"/>
     <use xlink:href="#m628e91283d" x="81.862898" y="107.349266" style="fill: #1f77b4; stroke: #1f77b4"/>
     <use xlink:href="#m628e91283d" x="89.632572" y="99.165447" style="fill: #1f77b4; stroke: #1f77b4"/>
     <use xlink:href="#m628e91283d" x="100.024179" y="90.552863" style="fill: #1f77b4; stroke: #1f77b4"/>
     <use xlink:href="#m628e91283d" x="112.439705" y="82.504764" style="fill: #1f77b4; stroke: #1f77b4"/>
     <use xlink:href="#m628e91283d" x="127.211178" y="75.055039" style="fill: #1f77b4; stroke: #1f77b4"/>
     <use xlink:href="#m628e91283d" x="142.757997" y="68.611531" style="fill: #1f77b4; stroke: #1f77b4"/>
     <use xlink:href="#m628e91283d" x="159.190759" y="63.035214" style="fill: #1f77b4; stroke: #1f77b4"/>
     <use xlink:href="#m628e91283d" x="177.612052" y="58.90981" style="fill: #1f77b4; stroke: #1f77b4"/>
     <use xlink:href="#m628e91283d" x="196.915852" y="56.302367" style="fill: #1f77b4; stroke: #1f77b4"/>
     <use xlink:href="#m628e91283d" x="218.972422" y="54.484884" style="fill: #1f77b4; stroke: #1f77b4"/>
     <use xlink:href="#m628e91283d" x="240.300808" y="54.816252" style="fill: #1f77b4; stroke: #1f77b4"/>
     <use xlink:href="#m628e91283d" x="259.470822" y="56.641435" style="fill: #1f77b4; stroke: #1f77b4"/>
     <use xlink:href="#m628e91283d" x="280.014493" y="60.136695" style="fill: #1f77b4; stroke: #1f77b4"/>
     <use xlink:href="#m628e91283d" x="297.599802" y="65.210656" style="fill: #1f77b4; stroke: #1f77b4"/>
     <use xlink:href="#m628e91283d" x="315.374814" y="71.559425" style="fill: #1f77b4; stroke: #1f77b4"/>
     <use xlink:href="#m628e91283d" x="332.131703" y="79.563389" style="fill: #1f77b4; stroke: #1f77b4"/>
     <use xlink:href="#m628e91283d" x="345.223217" y="88.073706" style="fill: #1f77b4; stroke: #1f77b4"/>
     <use xlink:href="#m628e91283d" x="356.371356" y="96.493448" style="fill: #1f77b4; stroke: #1f77b4"/>
     <use xlink:href="#m628e91283d" x="365.776003" y="106.029252" style="fill: #1f77b4; stroke: #1f77b4"/>
     <use xlink:href="#m628e91283d" x="373.600049" y="116.604904" style="fill: #1f77b4; stroke: #1f77b4"/>
     <use xlink:href="#m628e91283d" x="380.01553" y="127.755189" style="fill: #1f77b4; stroke: #1f77b4"/>
     <use xlink:href="#m628e91283d" x="383.100849" y="136.802728" style="fill: #1f77b4; stroke: #1f77b4"/>
     <use xlink:href="#m628e91283d" x="385.09821" y="146.364171" style="fill: #1f77b4; stroke: #1f77b4"/>
     <use xlink:href="#m628e91283d" x="384.957521" y="156.102223" style="fill: #1f77b4; stroke: #1f77b4"/>
     <use xlink:href="#m628e91283d" x="384.122848" y="165.011987" style="fill: #1f77b4; stroke: #1f77b4"/>
     <use xlink:href="#m628e91283d" x="381.646037" y="173.179829" style="fill: #1f77b4; stroke: #1f77b4"/>
     <use xlink:href="#m628e91283d" x="378.934158" y="180.192442" style="fill: #1f77b4; stroke: #1f77b4"/>
     <use xlink:href="#m628e91283d" x="373.215279" y="188.643278" style="fill: #1f77b4; stroke: #1f77b4"/>
     <use xlink:href="#m628e91283d" x="370.37815" y="193.062148" style="fill: #1f77b4; stroke: #1f77b4"/>
     <use xlink:href="#m628e91283d" x="366.267929" y="197.785111" style="fill: #1f77b4; stroke: #1f77b4"/>
     <use xlink:href="#m628e91283d" x="361.846854" y="202.113263" style="fill: #1f77b4; stroke: #1f77b4"/>
     <use xlink:href="#m628e91283d" x="356.247206" y="207.879494" style="fill: #1f77b4; stroke: #1f77b4"/>
     <use xlink:href="#m628e91283d" x="351.379433" y="211.719629" style="fill: #1f77b4; stroke: #1f77b4"/>
     <use xlink:href="#m628e91283d" x="347.088856" y="214.621514" style="fill: #1f77b4; stroke: #1f77b4"/>
     <use xlink:href="#m628e91283d" x="341.507359" y="218.590299" style="fill: #1f77b4; stroke: #1f77b4"/>
     <use xlink:href="#m628e91283d" x="336.506467" y="221.582311" style="fill: #1f77b4; stroke: #1f77b4"/>
     <use xlink:href="#m628e91283d" x="332.10537" y="224.277104" style="fill: #1f77b4; stroke: #1f77b4"/>
     <use xlink:href="#m628e91283d" x="326.119487" y="226.969281" style="fill: #1f77b4; stroke: #1f77b4"/>
     <use xlink:href="#m628e91283d" x="320.942853" y="229.351201" style="fill: #1f77b4; stroke: #1f77b4"/>
     <use xlink:href="#m628e91283d" x="317.418533" y="230.405999" style="fill: #1f77b4; stroke: #1f77b4"/>
     <use xlink:href="#m628e91283d" x="311.17884" y="233.269737" style="fill: #1f77b4; stroke: #1f77b4"/>
     <use xlink:href="#m628e91283d" x="306.383185" y="234.289775" style="fill: #1f77b4; stroke: #1f77b4"/>
     <use xlink:href="#m628e91283d" x="301.717363" y="235.839627" style="fill: #1f77b4; stroke: #1f77b4"/>
     <use xlink:href="#m628e91283d" x="297.355934" y="237.33793" style="fill: #1f77b4; stroke: #1f77b4"/>
     <use xlink:href="#m628e91283d" x="293.966245" y="237.858471" style="fill: #1f77b4; stroke: #1f77b4"/>
     <use xlink:href="#m628e91283d" x="288.90631" y="239.176222" style="fill: #1f77b4; stroke: #1f77b4"/>
     <use xlink:href="#m628e91283d" x="286.122722" y="239.70717" style="fill: #1f77b4; stroke: #1f77b4"/>
     <use xlink:href="#m628e91283d" x="281.405623" y="240.919891" style="fill: #1f77b4; stroke: #1f77b4"/>
     <use xlink:href="#m628e91283d" x="277.288418" y="241.100671" style="fill: #1f77b4; stroke: #1f77b4"/>
     <use xlink:href="#m628e91283d" x="275.291893" y="241.315736" style="fill: #1f77b4; stroke: #1f77b4"/>
     <use xlink:href="#m628e91283d" x="271.32003" y="241.862095" style="fill: #1f77b4; stroke: #1f77b4"/>
     <use xlink:href="#m628e91283d" x="266.981257" y="242.441044" style="fill: #1f77b4; stroke: #1f77b4"/>
     <use xlink:href="#m628e91283d" x="263.504843" y="243.050974" style="fill: #1f77b4; stroke: #1f77b4"/>
     <use xlink:href="#m628e91283d" x="261.003185" y="242.879258" style="fill: #1f77b4; stroke: #1f77b4"/>
     <use xlink:href="#m628e91283d" x="258.352449" y="243.191828" style="fill: #1f77b4; stroke: #1f77b4"/>
     <use xlink:href="#m628e91283d" x="254.661969" y="243.209792" style="fill: #1f77b4; stroke: #1f77b4"/>
     <use xlink:href="#m628e91283d" x="251.267848" y="243.335257" style="fill: #1f77b4; stroke: #1f77b4"/>
     <use xlink:href="#m628e91283d" x="249.129997" y="243.444471" style="fill: #1f77b4; stroke: #1f77b4"/>
     <use xlink:href="#m628e91283d" x="245.176591" y="243.650674" style="fill: #1f77b4; stroke: #1f77b4"/>
     <use xlink:href="#m628e91283d" x="241.93958" y="243.349754" style="fill: #1f77b4; stroke: #1f77b4"/>
     <use xlink:href="#m628e91283d" x="239.297398" y="243.333375" style="fill: #1f77b4; stroke: #1f77b4"/>
     <use xlink:href="#m628e91283d" x="237.143606" y="243.028071" style="fill: #1f77b4; stroke: #1f77b4"/>
     <use xlink:href="#m628e91283d" x="234.188432" y="242.987924" style="fill: #1f77b4; stroke: #1f77b4"/>
     <use xlink:href="#m628e91283d" x="232.202673" y="242.808151" style="fill: #1f77b4; stroke: #1f77b4"/>
     <use xlink:href="#m628e91283d" x="229.041404" y="242.823747" style="fill: #1f77b4; stroke: #1f77b4"/>
     <use xlink:href="#m628e91283d" x="226.712206" y="242.209777" style="fill: #1f77b4; stroke: #1f77b4"/>
     <use xlink:href="#m628e91283d" x="224.094977" y="242.367563" style="fill: #1f77b4; stroke: #1f77b4"/>
     <use xlink:href="#m628e91283d" x="220.706659" y="241.775043" style="fill: #1f77b4; stroke: #1f77b4"/>
     <use xlink:href="#m628e91283d" x="218.163746" y="241.705307" style="fill: #1f77b4; stroke: #1f77b4"/>
     <use xlink:href="#m628e91283d" x="216.524091" y="241.535421" style="fill: #1f77b4; stroke: #1f77b4"/>
     <use xlink:href="#m628e91283d" x="215.084316" y="241.194027" style="fill: #1f77b4; stroke: #1f77b4"/>
     <use xlink:href="#m628e91283d" x="212.235589" y="240.963638" style="fill: #1f77b4; stroke: #1f77b4"/>
     <use xlink:href="#m628e91283d" x="210.324587" y="240.656638" style="fill: #1f77b4; stroke: #1f77b4"/>
     <use xlink:href="#m628e91283d" x="208.308097" y="240.297888" style="fill: #1f77b4; stroke: #1f77b4"/>
     <use xlink:href="#m628e91283d" x="206.634867" y="239.593396" style="fill: #1f77b4; stroke: #1f77b4"/>
     <use xlink:href="#m628e91283d" x="204.429653" y="239.412551" style="fill: #1f77b4; stroke: #1f77b4"/>
     <use xlink:href="#m628e91283d" x="201.949781" y="238.872083" style="fill: #1f77b4; stroke: #1f77b4"/>
     <use xlink:href="#m628e91283d" x="199.50573" y="238.548755" style="fill: #1f77b4; stroke: #1f77b4"/>
     <use xlink:href="#m628e91283d" x="197.572135" y="238.091827" style="fill: #1f77b4; stroke: #1f77b4"/>
     <use xlink:href="#m628e91283d" x="196.000581" y="237.83353" style="fill: #1f77b4; stroke: #1f77b4"/>
     <use xlink:href="#m628e91283d" x="194.213495" y="237.261401" style="fill: #1f77b4; stroke: #1f77b4"/>
     <use xlink:href="#m628e91283d" x="192.273002" y="236.814477" style="fill: #1f77b4; stroke: #1f77b4"/>
     <use xlink:href="#m628e91283d" x="190.270232" y="236.341251" style="fill: #1f77b4; stroke: #1f77b4"/>
     <use xlink:href="#m628e91283d" x="188.505641" y="235.923502" style="fill: #1f77b4; stroke: #1f77b4"/>
     <use xlink:href="#m628e91283d" x="186.081585" y="235.595017" style="fill: #1f77b4; stroke: #1f77b4"/>
     <use xlink:href="#m628e91283d" x="184.012943" y="235.016224" style="fill: #1f77b4; stroke: #1f77b4"/>
     <use xlink:href="#m628e91283d" x="182.855463" y="234.352991" style="fill: #1f77b4; stroke: #1f77b4"/>
     <use xlink:href="#m628e91283d" x="181.2715" y="233.628844" style="fill: #1f77b4; stroke: #1f77b4"/>
     <use xlink:href="#m628e91283d" x="179.141681" y="233.277955" style="fill: #1f77b4; stroke: #1f77b4"/>
     <use xlink:href="#m628e91283d" x="177.795825" y="233.020607" style="fill: #1f77b4; stroke: #1f77b4"/>
     <use xlink:href="#m628e91283d" x="175.734188" y="232.421579" style="fill: #1f77b4; stroke: #1f77b4"/>
     <use xlink:href="#m628e91283d" x="173.579262" y="231.761952" style="fill: #1f77b4; stroke: #1f77b4"/>
     <use xlink:href="#m628e91283d" x="172.255465" y="231.420934" style="fill: #1f77b4; stroke: #1f77b4"/>
     <use xlink:href="#m628e91283d" x="171.044313" y="230.865017" style="fill: #1f77b4; stroke: #1f77b4"/>
     <use xlink:href="#m628e91283d" x="169.602122" y="230.423502" style="fill: #1f77b4; stroke: #1f77b4"/>
     <use xlink:href="#m628e91283d" x="167.612534" y="229.773899" style="fill: #1f77b4; stroke: #1f77b4"/>
     <use xlink:href="#m628e91283d" x="165.740617" y="229.402111" style="fill: #1f77b4; stroke: #1f77b4"/>
     <use xlink:href="#m628e91283d" x="164.671284" y="228.566764" style="fill: #1f77b4; stroke: #1f77b4"/>
     <use xlink:href="#m628e91283d" x="162.79988" y="227.99584" style="fill: #1f77b4; stroke: #1f77b4"/>
     <use xlink:href="#m628e91283d" x="161.729151" y="227.401986" style="fill: #1f77b4; stroke: #1f77b4"/>
     <use xlink:href="#m628e91283d" x="160.078556" y="226.644584" style="fill: #1f77b4; stroke: #1f77b4"/>
     <use xlink:href="#m628e91283d" x="158.617864" y="226.339046" style="fill: #1f77b4; stroke: #1f77b4"/>
     <use xlink:href="#m628e91283d" x="157.006945" y="225.875411" style="fill: #1f77b4; stroke: #1f77b4"/>
     <use xlink:href="#m628e91283d" x="156.328027" y="225.298857" style="fill: #1f77b4; stroke: #1f77b4"/>
     <use xlink:href="#m628e91283d" x="154.485317" y="224.85492" style="fill: #1f77b4; stroke: #1f77b4"/>
     <use xlink:href="#m628e91283d" x="152.885019" y="224.03889" style="fill: #1f77b4; stroke: #1f77b4"/>
     <use xlink:href="#m628e91283d" x="151.513587" y="223.171284" style="fill: #1f77b4; stroke: #1f77b4"/>
     <use xlink:href="#m628e91283d" x="150.035614" y="222.7984" style="fill: #1f77b4; stroke: #1f77b4"/>
     <use xlink:href="#m628e91283d" x="148.618278" y="221.946224" style="fill: #1f77b4; stroke: #1f77b4"/>
     <use xlink:href="#m628e91283d" x="146.946135" y="221.348041" style="fill: #1f77b4; stroke: #1f77b4"/>
     <use xlink:href="#m628e91283d" x="145.633575" y="221.12149" style="fill: #1f77b4; stroke: #1f77b4"/>
     <use xlink:href="#m628e91283d" x="144.634193" y="220.012054" style="fill: #1f77b4; stroke: #1f77b4"/>
     <use xlink:href="#m628e91283d" x="143.01781" y="219.55473" style="fill: #1f77b4; stroke: #1f77b4"/>
     <use xlink:href="#m628e91283d" x="141.538852" y="219.125375" style="fill: #1f77b4; stroke: #1f77b4"/>
     <use xlink:href="#m628e91283d" x="140.138141" y="218.166576" style="fill: #1f77b4; stroke: #1f77b4"/>
     <use xlink:href="#m628e91283d" x="138.925355" y="217.339655" style="fill: #1f77b4; stroke: #1f77b4"/>
     <use xlink:href="#m628e91283d" x="137.571595" y="216.954736" style="fill: #1f77b4; stroke: #1f77b4"/>
     <use xlink:href="#m628e91283d" x="135.878379" y="216.424906" style="fill: #1f77b4; stroke: #1f77b4"/>
     <use xlink:href="#m628e91283d" x="134.49843" y="215.924181" style="fill: #1f77b4; stroke: #1f77b4"/>
     <use xlink:href="#m628e91283d" x="133.945964" y="215.05127" style="fill: #1f77b4; stroke: #1f77b4"/>
     <use xlink:href="#m628e91283d" x="133.016" y="214.34186" style="fill: #1f77b4; stroke: #1f77b4"/>
     <use xlink:href="#m628e91283d" x="130.970655" y="213.718474" style="fill: #1f77b4; stroke: #1f77b4"/>
     <use xlink:href="#m628e91283d" x="130.230726" y="213.069392" style="fill: #1f77b4; stroke: #1f77b4"/>
     <use xlink:href="#m628e91283d" x="128.678649" y="212.294674" style="fill: #1f77b4; stroke: #1f77b4"/>
     <use xlink:href="#m628e91283d" x="127.496122" y="211.51423" style="fill: #1f77b4; stroke: #1f77b4"/>
     <use xlink:href="#m628e91283d" x="126.657162" y="211.058455" style="fill: #1f77b4; stroke: #1f77b4"/>
     <use xlink:href="#m628e91283d" x="125.324343" y="210.361968" style="fill: #1f77b4; stroke: #1f77b4"/>
    </g>
   </g>
   <g id="line2d_11">
    <path d="M 215.193657 295.776 
L 204.718968 292.332961 
L 194.630138 288.777235 
L 184.952456 285.125417 
L 175.723012 281.400549 
L 166.991391 277.63489 
L 158.819307 273.872694 
L 150.798398 269.928704 
L 143.455127 266.071371 
L 136.361399 262.091089 
L 129.558319 258.006491 
L 123.637353 254.207916 
L 117.568862 250.044223 
L 111.932307 245.893508 
L 106.774068 241.816336 
L 102.135302 237.883938 
L 97.464508 233.624685 
L 93.370864 229.598232 
L 89.294602 225.260576 
L 85.836919 221.269534 
L 82.437812 217.002072 
L 79.671363 213.216675 
L 76.987363 209.20648 
L 74.411023 204.955208 
L 71.972378 200.445909 
L 70.144357 196.640992 
L 68.448398 192.650783 
L 66.90875 188.466346 
L 65.553033 184.079005 
L 64.412618 179.480576 
L 63.71979 175.888746 
L 63.184577 172.171302 
L 62.825134 168.326021 
L 62.661212 164.351287 
L 62.714241 160.246232 
L 63.007376 156.01091 
L 63.565535 151.646483 
L 64.415395 147.155438 
L 65.585359 142.541825 
L 67.10546 137.811525 
L 68.32889 134.597016 
L 69.731574 131.337102 
L 71.32338 128.035255 
L 73.114331 124.695509 
L 75.114554 121.322505 
L 77.334204 117.921529 
L 79.783384 114.498555 
L 82.472055 111.060286 
L 85.409923 107.614184 
L 88.606326 104.168504 
L 92.070093 100.732316 
L 95.809405 97.31552 
L 99.831631 93.928856 
L 104.14316 90.583894 
L 108.74922 87.293019 
L 113.653689 84.069393 
L 118.858906 80.926908 
L 124.365475 77.880115 
L 130.172075 74.944134 
L 136.275279 72.134545 
L 142.669386 69.467254 
L 149.346272 66.958346 
L 156.295268 64.623907 
L 163.503068 62.479837 
L 170.953681 60.541642 
L 178.62842 58.824217 
L 186.505947 57.341618 
L 194.562364 56.106836 
L 202.771369 55.131568 
L 211.104452 54.426002 
L 219.531167 53.998616 
L 228.019433 53.856 
L 236.535897 54.002706 
L 245.046328 54.441133 
L 253.516038 55.171447 
L 261.910327 56.191546 
L 270.19493 57.497069 
L 278.336463 59.081443 
L 286.302843 60.935982 
L 294.063691 63.050016 
L 301.590685 65.411063 
L 308.857877 68.005028 
L 315.841939 70.816424 
L 322.52237 73.828617 
L 328.881629 77.024074 
L 334.905208 80.384618 
L 340.581653 83.891682 
L 345.902522 87.526546 
L 350.862298 91.270568 
L 355.458258 95.105389 
L 359.690302 99.013123 
L 363.560758 102.97652 
L 367.074163 106.979098 
L 370.23703 111.00526 
L 373.057606 115.040375 
L 375.545635 119.070848 
L 377.712116 123.084151 
L 379.569076 127.068849 
L 381.12935 131.014598 
L 382.406382 134.912135 
L 383.414034 138.753248 
L 384.166423 142.530736 
L 384.677762 146.238369 
L 384.962234 149.87083 
L 385.033876 153.423658 
L 384.906478 156.893191 
L 384.593504 160.2765 
L 384.108025 163.571332 
L 383.462666 166.776045 
L 382.669562 169.88955 
L 381.740332 172.911255 
L 380.11534 177.271463 
L 378.243937 181.425959 
L 376.158389 185.37745 
L 373.888198 189.129949 
L 371.460181 192.68849 
L 368.898595 196.058891 
L 366.225279 199.247543 
L 363.459809 202.261235 
L 359.659094 206.019521 
L 355.761564 209.496305 
L 351.797964 212.708609 
L 347.794262 215.673174 
L 343.772258 218.406239 
L 338.746407 221.520703 
L 333.748896 224.326541 
L 328.802161 226.850559 
L 323.923445 229.117528 
L 318.176817 231.530485 
L 312.562696 233.641594 
L 307.091558 235.482721 
L 300.897371 237.327185 
L 294.910505 238.882428 
L 288.322144 240.349843 
L 281.999811 241.528981 
L 275.194951 242.557901 
L 268.701724 243.315408 
L 261.832431 243.885026 
L 255.3039 244.210227 
L 248.488061 244.328473 
L 241.455043 244.215924 
L 234.806328 243.891526 
L 227.998151 243.339775 
L 221.081929 242.550715 
L 214.102243 241.518744 
L 207.522365 240.326225 
L 200.898703 238.906794 
L 194.260936 237.259416 
L 187.633834 235.384593 
L 181.03786 233.283835 
L 174.489825 230.959232 
L 168.003557 228.413112 
L 161.590533 225.647795 
L 155.528275 222.796845 
L 149.528374 219.737342 
L 143.601002 216.469884 
L 137.755626 212.994887 
L 132.001342 209.312564 
L 129.449541 207.591668 
L 129.449541 207.591668 
" clip-path="url(#pceb80e28e7)" style="fill: none; stroke: #d62728; stroke-width: 1.5; stroke-linecap: square"/>
   </g>
   <g id="patch_3">
    <path d="M 44.210938 307.872 
L 44.210938 41.76 
" style="fill: none; stroke: #000000; stroke-width: 0.8; stroke-linejoin: miter; stroke-linecap: square"/>
   </g>
   <g id="patch_4">
    <path d="M 401.330938 307.872 
L 401.330938 41.76 
" style="fill: none; stroke: #000000; stroke-width: 0.8; stroke-linejoin: miter; stroke-linecap: square"/>
   </g>
   <g id="patch_5">
    <path d="M 44.210938 307.872 
L 401.330937 307.872 
" style="fill: none; stroke: #000000; stroke-width: 0.8; stroke-linejoin: miter; stroke-linecap: square"/>
   </g>
   <g id="patch_6">
    <path d="M 44.210938 41.76 
L 401.330937 41.76 
" style="fill: none; stroke: #000000; stroke-width: 0.8; stroke-linejoin: miter; stroke-linecap: square"/>
   </g>
   <g id="text_12">
    <g id="patch_7">
     <path d="M 419.186937 102.337163 
L 564.686937 102.337163 
Q 568.686937 102.337163 568.686937 98.337163 
L 568.686937 55.0656 
Q 568.686937 51.0656 564.686937 51.0656 
L 419.186937 51.0656 
Q 415.186937 51.0656 415.186937 55.0656 
L 415.186937 98.337163 
Q 415.186937 102.337163 419.186937 102.337163 
z
" style="fill: #ffffff; opacity: 0.5; stroke: #000000; stroke-linejoin: miter"/>
    </g>
    <!-- Summary -->
    <g transform="translate(419.186937 62.664038) scale(0.1 -0.1)">
     <defs>
      <path id="DejaVuSans-53" d="M 3425 4513 
L 3425 3897 
Q 3066 4069 2747 4153 
Q 2428 4238 2131 4238 
Q 1616 4238 1336 4038 
Q 1056 3838 1056 3469 
Q 1056 3159 1242 3001 
Q 1428 2844 1947 2747 
L 2328 2669 
Q 3034 2534 3370 2195 
Q 3706 1856 3706 1288 
Q 3706 609 3251 259 
Q 2797 -91 1919 -91 
Q 1588 -91 1214 -16 
Q 841 59 441 206 
L 441 856 
Q 825 641 1194 531 
Q 1563 422 1919 422 
Q 2459 422 2753 634 
Q 3047 847 3047 1241 
Q 3047 1584 2836 1778 
Q 2625 1972 2144 2069 
L 1759 2144 
Q 1053 2284 737 2584 
Q 422 2884 422 3419 
Q 422 4038 858 4394 
Q 1294 4750 2059 4750 
Q 2388 4750 2728 4690 
Q 3069 4631 3425 4513 
z
" transform="scale(0.015625)"/>
      <path id="DejaVuSans-75" d="M 544 1381 
L 544 3500 
L 1119 3500 
L 1119 1403 
Q 1119 906 1312 657 
Q 1506 409 1894 409 
Q 2359 409 2629 706 
Q 2900 1003 2900 1516 
L 2900 3500 
L 3475 3500 
L 3475 0 
L 2900 0 
L 2900 538 
Q 2691 219 2414 64 
Q 2138 -91 1772 -91 
Q 1169 -91 856 284 
Q 544 659 544 1381 
z
M 1991 3584 
L 1991 3584 
z
" transform="scale(0.015625)"/>
      <path id="DejaVuSans-61" d="M 2194 1759 
Q 1497 1759 1228 1600 
Q 959 1441 959 1056 
Q 959 750 1161 570 
Q 1363 391 1709 391 
Q 2188 391 2477 730 
Q 2766 1069 2766 1631 
L 2766 1759 
L 2194 1759 
z
M 3341 1997 
L 3341 0 
L 2766 0 
L 2766 531 
Q 2569 213 2275 61 
Q 1981 -91 1556 -91 
Q 1019 -91 701 211 
Q 384 513 384 1019 
Q 384 1609 779 1909 
Q 1175 2209 1959 2209 
L 2766 2209 
L 2766 2266 
Q 2766 2663 2505 2880 
Q 2244 3097 1772 3097 
Q 1472 3097 1187 3025 
Q 903 2953 641 2809 
L 641 3341 
Q 956 3463 1253 3523 
Q 1550 3584 1831 3584 
Q 2591 3584 2966 3190 
Q 3341 2797 3341 1997 
z
" transform="scale(0.015625)"/>
      <path id="DejaVuSans-72" d="M 2631 2963 
Q 2534 3019 2420 3045 
Q 2306 3072 2169 3072 
Q 1681 3072 1420 2755 
Q 1159 2438 1159 1844 
L 1159 0 
L 581 0 
L 581 3500 
L 1159 3500 
L 1159 2956 
Q 1341 3275 1631 3429 
Q 1922 3584 2338 3584 
Q 2397 3584 2469 3576 
Q 2541 3569 2628 3553 
L 2631 2963 
z
" transform="scale(0.015625)"/>
      <path id="DejaVuSans-79" d="M 2059 -325 
Q 1816 -950 1584 -1140 
Q 1353 -1331 966 -1331 
L 506 -1331 
L 506 -850 
L 844 -850 
Q 1081 -850 1212 -737 
Q 1344 -625 1503 -206 
L 1606 56 
L 191 3500 
L 800 3500 
L 1894 763 
L 2988 3500 
L 3597 3500 
L 2059 -325 
z
" transform="scale(0.015625)"/>
     </defs>
     <use xlink:href="#DejaVuSans-53"/>
     <use xlink:href="#DejaVuSans-75" x="63.476562"/>
     <use xlink:href="#DejaVuSans-6d" x="126.855469"/>
     <use xlink:href="#DejaVuSans-6d" x="224.267578"/>
     <use xlink:href="#DejaVuSans-61" x="321.679688"/>
     <use xlink:href="#DejaVuSans-72" x="382.958984"/>
     <use xlink:href="#DejaVuSans-79" x="424.072266"/>
    </g>
    <!-- $Q_I$: 20.26$\pm$0.15 k -->
    <g transform="translate(419.186937 73.86185) scale(0.1 -0.1)">
     <defs>
      <path id="DejaVuSans-Oblique-51" d="M 2309 -84 
Q 2275 -88 2237 -89 
Q 2200 -91 2125 -91 
Q 1250 -91 756 411 
Q 263 913 263 1797 
Q 263 2319 452 2844 
Q 641 3369 978 3788 
Q 1369 4269 1858 4509 
Q 2347 4750 2938 4750 
Q 3794 4750 4287 4245 
Q 4781 3741 4781 2869 
Q 4781 1928 4265 1147 
Q 3750 366 2919 44 
L 3553 -825 
L 2847 -825 
L 2309 -84 
z
M 2919 4238 
Q 2400 4238 2003 3986 
Q 1606 3734 1313 3219 
Q 1125 2891 1026 2522 
Q 928 2153 928 1778 
Q 928 1128 1239 775 
Q 1550 422 2119 422 
Q 2631 422 3032 676 
Q 3434 931 3719 1434 
Q 3909 1772 4009 2142 
Q 4109 2513 4109 2881 
Q 4109 3528 3796 3883 
Q 3484 4238 2919 4238 
z
" transform="scale(0.015625)"/>
      <path id="DejaVuSans-Oblique-49" d="M 1081 4666 
L 1716 4666 
L 806 0 
L 172 0 
L 1081 4666 
z
" transform="scale(0.015625)"/>
      <path id="DejaVuSans-3a" d="M 750 794 
L 1409 794 
L 1409 0 
L 750 0 
L 750 794 
z
M 750 3309 
L 1409 3309 
L 1409 2516 
L 750 2516 
L 750 3309 
z
" transform="scale(0.015625)"/>
      <path id="DejaVuSans-2e" d="M 684 794 
L 1344 794 
L 1344 0 
L 684 0 
L 684 794 
z
" transform="scale(0.015625)"/>
      <path id="DejaVuSans-b1" d="M 2944 4013 
L 2944 2803 
L 4684 2803 
L 4684 2272 
L 2944 2272 
L 2944 1063 
L 2419 1063 
L 2419 2272 
L 678 2272 
L 678 2803 
L 2419 2803 
L 2419 4013 
L 2944 4013 
z
M 678 531 
L 4684 531 
L 4684 0 
L 678 0 
L 678 531 
z
" transform="scale(0.015625)"/>
      <path id="DejaVuSans-35" d="M 691 4666 
L 3169 4666 
L 3169 4134 
L 1269 4134 
L 1269 2991 
Q 1406 3038 1543 3061 
Q 1681 3084 1819 3084 
Q 2600 3084 3056 2656 
Q 3513 2228 3513 1497 
Q 3513 744 3044 326 
Q 2575 -91 1722 -91 
Q 1428 -91 1123 -41 
Q 819 9 494 109 
L 494 744 
Q 775 591 1075 516 
Q 1375 441 1709 441 
Q 2250 441 2565 725 
Q 2881 1009 2881 1497 
Q 2881 1984 2565 2268 
Q 2250 2553 1709 2553 
Q 1456 2553 1204 2497 
Q 953 2441 691 2322 
L 691 4666 
z
" transform="scale(0.015625)"/>
      <path id="DejaVuSans-6b" d="M 581 4863 
L 1159 4863 
L 1159 1991 
L 2875 3500 
L 3609 3500 
L 1753 1863 
L 3688 0 
L 2938 0 
L 1159 1709 
L 1159 0 
L 581 0 
L 581 4863 
z
" transform="scale(0.015625)"/>
     </defs>
     <use xlink:href="#DejaVuSans-Oblique-51" transform="translate(0 0.015625)"/>
     <use xlink:href="#DejaVuSans-Oblique-49" transform="translate(78.710938 -16.390625) scale(0.7)"/>
     <use xlink:href="#DejaVuSans-3a" transform="translate(102.089844 0.015625)"/>
     <use xlink:href="#DejaVuSans-20" transform="translate(135.78125 0.015625)"/>
     <use xlink:href="#DejaVuSans-32" transform="translate(167.568359 0.015625)"/>
     <use xlink:href="#DejaVuSans-30" transform="translate(231.191406 0.015625)"/>
     <use xlink:href="#DejaVuSans-2e" transform="translate(294.814453 0.015625)"/>
     <use xlink:href="#DejaVuSans-32" transform="translate(321.101562 0.015625)"/>
     <use xlink:href="#DejaVuSans-36" transform="translate(384.724609 0.015625)"/>
     <use xlink:href="#DejaVuSans-b1" transform="translate(448.347656 0.015625)"/>
     <use xlink:href="#DejaVuSans-30" transform="translate(532.136719 0.015625)"/>
     <use xlink:href="#DejaVuSans-2e" transform="translate(595.759766 0.015625)"/>
     <use xlink:href="#DejaVuSans-31" transform="translate(627.546875 0.015625)"/>
     <use xlink:href="#DejaVuSans-35" transform="translate(691.169922 0.015625)"/>
     <use xlink:href="#DejaVuSans-20" transform="translate(754.792969 0.015625)"/>
     <use xlink:href="#DejaVuSans-6b" transform="translate(786.580078 0.015625)"/>
    </g>
    <!-- $Q_C$: 4.6119$\pm$0.0097 k -->
    <g transform="translate(419.186937 85.059663) scale(0.1 -0.1)">
     <defs>
      <path id="DejaVuSans-Oblique-43" d="M 4447 4306 
L 4319 3641 
Q 4019 3944 3683 4091 
Q 3347 4238 2956 4238 
Q 2422 4238 2017 3981 
Q 1613 3725 1319 3200 
Q 1131 2863 1032 2486 
Q 934 2109 934 1728 
Q 934 1091 1264 756 
Q 1594 422 2222 422 
Q 2656 422 3056 561 
Q 3456 700 3834 978 
L 3688 231 
Q 3316 72 2936 -9 
Q 2556 -91 2175 -91 
Q 1278 -91 773 396 
Q 269 884 269 1753 
Q 269 2309 461 2846 
Q 653 3384 1013 3828 
Q 1394 4300 1883 4525 
Q 2372 4750 3022 4750 
Q 3422 4750 3780 4639 
Q 4138 4528 4447 4306 
z
" transform="scale(0.015625)"/>
      <path id="DejaVuSans-39" d="M 703 97 
L 703 672 
Q 941 559 1184 500 
Q 1428 441 1663 441 
Q 2288 441 2617 861 
Q 2947 1281 2994 2138 
Q 2813 1869 2534 1725 
Q 2256 1581 1919 1581 
Q 1219 1581 811 2004 
Q 403 2428 403 3163 
Q 403 3881 828 4315 
Q 1253 4750 1959 4750 
Q 2769 4750 3195 4129 
Q 3622 3509 3622 2328 
Q 3622 1225 3098 567 
Q 2575 -91 1691 -91 
Q 1453 -91 1209 -44 
Q 966 3 703 97 
z
M 1959 2075 
Q 2384 2075 2632 2365 
Q 2881 2656 2881 3163 
Q 2881 3666 2632 3958 
Q 2384 4250 1959 4250 
Q 1534 4250 1286 3958 
Q 1038 3666 1038 3163 
Q 1038 2656 1286 2365 
Q 1534 2075 1959 2075 
z
" transform="scale(0.015625)"/>
      <path id="DejaVuSans-37" d="M 525 4666 
L 3525 4666 
L 3525 4397 
L 1831 0 
L 1172 0 
L 2766 4134 
L 525 4134 
L 525 4666 
z
" transform="scale(0.015625)"/>
     </defs>
     <use xlink:href="#DejaVuSans-Oblique-51" transform="translate(0 0.015625)"/>
     <use xlink:href="#DejaVuSans-Oblique-43" transform="translate(78.710938 -16.390625) scale(0.7)"/>
     <use xlink:href="#DejaVuSans-3a" transform="translate(130.322266 0.015625)"/>
     <use xlink:href="#DejaVuSans-20" transform="translate(164.013672 0.015625)"/>
     <use xlink:href="#DejaVuSans-34" transform="translate(195.800781 0.015625)"/>
     <use xlink:href="#DejaVuSans-2e" transform="translate(259.423828 0.015625)"/>
     <use xlink:href="#DejaVuSans-36" transform="translate(291.210938 0.015625)"/>
     <use xlink:href="#DejaVuSans-31" transform="translate(354.833984 0.015625)"/>
     <use xlink:href="#DejaVuSans-31" transform="translate(418.457031 0.015625)"/>
     <use xlink:href="#DejaVuSans-39" transform="translate(482.080078 0.015625)"/>
     <use xlink:href="#DejaVuSans-b1" transform="translate(545.703125 0.015625)"/>
     <use xlink:href="#DejaVuSans-30" transform="translate(629.492188 0.015625)"/>
     <use xlink:href="#DejaVuSans-2e" transform="translate(693.115234 0.015625)"/>
     <use xlink:href="#DejaVuSans-30" transform="translate(724.902344 0.015625)"/>
     <use xlink:href="#DejaVuSans-30" transform="translate(788.525391 0.015625)"/>
     <use xlink:href="#DejaVuSans-39" transform="translate(852.148438 0.015625)"/>
     <use xlink:href="#DejaVuSans-37" transform="translate(915.771484 0.015625)"/>
     <use xlink:href="#DejaVuSans-20" transform="translate(979.394531 0.015625)"/>
     <use xlink:href="#DejaVuSans-6b" transform="translate(1011.181641 0.015625)"/>
    </g>
    <!-- $f_{res}$: 5.9131213$\pm$1.8e-06 GHz -->
    <g transform="translate(419.186937 96.257475) scale(0.1 -0.1)">
     <defs>
      <path id="DejaVuSans-Oblique-66" d="M 3059 4863 
L 2969 4384 
L 2419 4384 
Q 2106 4384 1964 4261 
Q 1822 4138 1753 3809 
L 1691 3500 
L 2638 3500 
L 2553 3053 
L 1606 3053 
L 1013 0 
L 434 0 
L 1031 3053 
L 481 3053 
L 563 3500 
L 1113 3500 
L 1159 3744 
Q 1278 4363 1576 4613 
Q 1875 4863 2516 4863 
L 3059 4863 
z
" transform="scale(0.015625)"/>
      <path id="DejaVuSans-Oblique-72" d="M 2853 2969 
Q 2766 3016 2653 3041 
Q 2541 3066 2413 3066 
Q 1953 3066 1609 2717 
Q 1266 2369 1153 1784 
L 800 0 
L 225 0 
L 909 3500 
L 1484 3500 
L 1375 2956 
Q 1603 3259 1920 3421 
Q 2238 3584 2597 3584 
Q 2691 3584 2781 3573 
Q 2872 3563 2963 3538 
L 2853 2969 
z
" transform="scale(0.015625)"/>
      <path id="DejaVuSans-Oblique-65" d="M 3078 2063 
Q 3088 2113 3092 2166 
Q 3097 2219 3097 2272 
Q 3097 2653 2873 2875 
Q 2650 3097 2266 3097 
Q 1838 3097 1509 2826 
Q 1181 2556 1013 2059 
L 3078 2063 
z
M 3578 1613 
L 903 1613 
Q 884 1494 878 1425 
Q 872 1356 872 1306 
Q 872 872 1139 634 
Q 1406 397 1894 397 
Q 2269 397 2603 481 
Q 2938 566 3225 728 
L 3116 159 
Q 2806 34 2476 -28 
Q 2147 -91 1806 -91 
Q 1078 -91 686 257 
Q 294 606 294 1247 
Q 294 1794 489 2264 
Q 684 2734 1063 3103 
Q 1306 3334 1642 3459 
Q 1978 3584 2356 3584 
Q 2950 3584 3301 3228 
Q 3653 2872 3653 2272 
Q 3653 2128 3634 1964 
Q 3616 1800 3578 1613 
z
" transform="scale(0.015625)"/>
      <path id="DejaVuSans-Oblique-73" d="M 3200 3397 
L 3091 2853 
Q 2863 2978 2609 3040 
Q 2356 3103 2088 3103 
Q 1634 3103 1373 2948 
Q 1113 2794 1113 2528 
Q 1113 2219 1719 2053 
Q 1766 2041 1788 2034 
L 1972 1978 
Q 2547 1819 2739 1644 
Q 2931 1469 2931 1166 
Q 2931 609 2489 259 
Q 2047 -91 1331 -91 
Q 1053 -91 747 -37 
Q 441 16 72 128 
L 184 722 
Q 500 559 806 475 
Q 1113 391 1394 391 
Q 1816 391 2080 572 
Q 2344 753 2344 1031 
Q 2344 1331 1650 1516 
L 1591 1531 
L 1394 1581 
Q 956 1697 753 1886 
Q 550 2075 550 2369 
Q 550 2928 970 3256 
Q 1391 3584 2113 3584 
Q 2397 3584 2667 3537 
Q 2938 3491 3200 3397 
z
" transform="scale(0.015625)"/>
      <path id="DejaVuSans-33" d="M 2597 2516 
Q 3050 2419 3304 2112 
Q 3559 1806 3559 1356 
Q 3559 666 3084 287 
Q 2609 -91 1734 -91 
Q 1441 -91 1130 -33 
Q 819 25 488 141 
L 488 750 
Q 750 597 1062 519 
Q 1375 441 1716 441 
Q 2309 441 2620 675 
Q 2931 909 2931 1356 
Q 2931 1769 2642 2001 
Q 2353 2234 1838 2234 
L 1294 2234 
L 1294 2753 
L 1863 2753 
Q 2328 2753 2575 2939 
Q 2822 3125 2822 3475 
Q 2822 3834 2567 4026 
Q 2313 4219 1838 4219 
Q 1578 4219 1281 4162 
Q 984 4106 628 3988 
L 628 4550 
Q 988 4650 1302 4700 
Q 1616 4750 1894 4750 
Q 2613 4750 3031 4423 
Q 3450 4097 3450 3541 
Q 3450 3153 3228 2886 
Q 3006 2619 2597 2516 
z
" transform="scale(0.015625)"/>
      <path id="DejaVuSans-47" d="M 3809 666 
L 3809 1919 
L 2778 1919 
L 2778 2438 
L 4434 2438 
L 4434 434 
Q 4069 175 3628 42 
Q 3188 -91 2688 -91 
Q 1594 -91 976 548 
Q 359 1188 359 2328 
Q 359 3472 976 4111 
Q 1594 4750 2688 4750 
Q 3144 4750 3555 4637 
Q 3966 4525 4313 4306 
L 4313 3634 
Q 3963 3931 3569 4081 
Q 3175 4231 2741 4231 
Q 1884 4231 1454 3753 
Q 1025 3275 1025 2328 
Q 1025 1384 1454 906 
Q 1884 428 2741 428 
Q 3075 428 3337 486 
Q 3600 544 3809 666 
z
" transform="scale(0.015625)"/>
      <path id="DejaVuSans-48" d="M 628 4666 
L 1259 4666 
L 1259 2753 
L 3553 2753 
L 3553 4666 
L 4184 4666 
L 4184 0 
L 3553 0 
L 3553 2222 
L 1259 2222 
L 1259 0 
L 628 0 
L 628 4666 
z
" transform="scale(0.015625)"/>
      <path id="DejaVuSans-7a" d="M 353 3500 
L 3084 3500 
L 3084 2975 
L 922 459 
L 3084 459 
L 3084 0 
L 275 0 
L 275 525 
L 2438 3041 
L 353 3041 
L 353 3500 
z
" transform="scale(0.015625)"/>
     </defs>
     <use xlink:href="#DejaVuSans-Oblique-66" transform="translate(0 0.015625)"/>
     <use xlink:href="#DejaVuSans-Oblique-72" transform="translate(35.205078 -16.390625) scale(0.7)"/>
     <use xlink:href="#DejaVuSans-Oblique-65" transform="translate(63.984375 -16.390625) scale(0.7)"/>
     <use xlink:href="#DejaVuSans-Oblique-73" transform="translate(107.050781 -16.390625) scale(0.7)"/>
     <use xlink:href="#DejaVuSans-3a" transform="translate(146.254883 0.015625)"/>
     <use xlink:href="#DejaVuSans-20" transform="translate(179.946289 0.015625)"/>
     <use xlink:href="#DejaVuSans-35" transform="translate(211.733398 0.015625)"/>
     <use xlink:href="#DejaVuSans-2e" transform="translate(275.356445 0.015625)"/>
     <use xlink:href="#DejaVuSans-39" transform="translate(307.143555 0.015625)"/>
     <use xlink:href="#DejaVuSans-31" transform="translate(370.766602 0.015625)"/>
     <use xlink:href="#DejaVuSans-33" transform="translate(434.389648 0.015625)"/>
     <use xlink:href="#DejaVuSans-31" transform="translate(498.012695 0.015625)"/>
     <use xlink:href="#DejaVuSans-32" transform="translate(561.635742 0.015625)"/>
     <use xlink:href="#DejaVuSans-31" transform="translate(625.258789 0.015625)"/>
     <use xlink:href="#DejaVuSans-33" transform="translate(688.881836 0.015625)"/>
     <use xlink:href="#DejaVuSans-b1" transform="translate(752.504883 0.015625)"/>
     <use xlink:href="#DejaVuSans-31" transform="translate(836.293945 0.015625)"/>
     <use xlink:href="#DejaVuSans-2e" transform="translate(899.916992 0.015625)"/>
     <use xlink:href="#DejaVuSans-38" transform="translate(929.079102 0.015625)"/>
     <use xlink:href="#DejaVuSans-65" transform="translate(992.702148 0.015625)"/>
     <use xlink:href="#DejaVuSans-2d" transform="translate(1054.225586 0.015625)"/>
     <use xlink:href="#DejaVuSans-30" transform="translate(1090.30957 0.015625)"/>
     <use xlink:href="#DejaVuSans-36" transform="translate(1153.932617 0.015625)"/>
     <use xlink:href="#DejaVuSans-20" transform="translate(1217.555664 0.015625)"/>
     <use xlink:href="#DejaVuSans-47" transform="translate(1249.342773 0.015625)"/>
     <use xlink:href="#DejaVuSans-48" transform="translate(1326.833008 0.015625)"/>
     <use xlink:href="#DejaVuSans-7a" transform="translate(1402.02832 0.015625)"/>
    </g>
   </g>
  </g>
  <g id="text_13">
   <!-- S21 resonator spectroscopy -->
   <g transform="translate(133.226562 16.318125) scale(0.12 -0.12)">
    <defs>
     <path id="DejaVuSans-73" d="M 2834 3397 
L 2834 2853 
Q 2591 2978 2328 3040 
Q 2066 3103 1784 3103 
Q 1356 3103 1142 2972 
Q 928 2841 928 2578 
Q 928 2378 1081 2264 
Q 1234 2150 1697 2047 
L 1894 2003 
Q 2506 1872 2764 1633 
Q 3022 1394 3022 966 
Q 3022 478 2636 193 
Q 2250 -91 1575 -91 
Q 1294 -91 989 -36 
Q 684 19 347 128 
L 347 722 
Q 666 556 975 473 
Q 1284 391 1588 391 
Q 1994 391 2212 530 
Q 2431 669 2431 922 
Q 2431 1156 2273 1281 
Q 2116 1406 1581 1522 
L 1381 1569 
Q 847 1681 609 1914 
Q 372 2147 372 2553 
Q 372 3047 722 3315 
Q 1072 3584 1716 3584 
Q 2034 3584 2315 3537 
Q 2597 3491 2834 3397 
z
" transform="scale(0.015625)"/>
     <path id="DejaVuSans-6f" d="M 1959 3097 
Q 1497 3097 1228 2736 
Q 959 2375 959 1747 
Q 959 1119 1226 758 
Q 1494 397 1959 397 
Q 2419 397 2687 759 
Q 2956 1122 2956 1747 
Q 2956 2369 2687 2733 
Q 2419 3097 1959 3097 
z
M 1959 3584 
Q 2709 3584 3137 3096 
Q 3566 2609 3566 1747 
Q 3566 888 3137 398 
Q 2709 -91 1959 -91 
Q 1206 -91 779 398 
Q 353 888 353 1747 
Q 353 2609 779 3096 
Q 1206 3584 1959 3584 
z
" transform="scale(0.015625)"/>
     <path id="DejaVuSans-6e" d="M 3513 2113 
L 3513 0 
L 2938 0 
L 2938 2094 
Q 2938 2591 2744 2837 
Q 2550 3084 2163 3084 
Q 1697 3084 1428 2787 
Q 1159 2491 1159 1978 
L 1159 0 
L 581 0 
L 581 3500 
L 1159 3500 
L 1159 2956 
Q 1366 3272 1645 3428 
Q 1925 3584 2291 3584 
Q 2894 3584 3203 3211 
Q 3513 2838 3513 2113 
z
" transform="scale(0.015625)"/>
     <path id="DejaVuSans-74" d="M 1172 4494 
L 1172 3500 
L 2356 3500 
L 2356 3053 
L 1172 3053 
L 1172 1153 
Q 1172 725 1289 603 
Q 1406 481 1766 481 
L 2356 481 
L 2356 0 
L 1766 0 
Q 1100 0 847 248 
Q 594 497 594 1153 
L 594 3053 
L 172 3053 
L 172 3500 
L 594 3500 
L 594 4494 
L 1172 4494 
z
" transform="scale(0.015625)"/>
     <path id="DejaVuSans-70" d="M 1159 525 
L 1159 -1331 
L 581 -1331 
L 581 3500 
L 1159 3500 
L 1159 2969 
Q 1341 3281 1617 3432 
Q 1894 3584 2278 3584 
Q 2916 3584 3314 3078 
Q 3713 2572 3713 1747 
Q 3713 922 3314 415 
Q 2916 -91 2278 -91 
Q 1894 -91 1617 61 
Q 1341 213 1159 525 
z
M 3116 1747 
Q 3116 2381 2855 2742 
Q 2594 3103 2138 3103 
Q 1681 3103 1420 2742 
Q 1159 2381 1159 1747 
Q 1159 1113 1420 752 
Q 1681 391 2138 391 
Q 2594 391 2855 752 
Q 3116 1113 3116 1747 
z
" transform="scale(0.015625)"/>
     <path id="DejaVuSans-63" d="M 3122 3366 
L 3122 2828 
Q 2878 2963 2633 3030 
Q 2388 3097 2138 3097 
Q 1578 3097 1268 2742 
Q 959 2388 959 1747 
Q 959 1106 1268 751 
Q 1578 397 2138 397 
Q 2388 397 2633 464 
Q 2878 531 3122 666 
L 3122 134 
Q 2881 22 2623 -34 
Q 2366 -91 2075 -91 
Q 1284 -91 818 406 
Q 353 903 353 1747 
Q 353 2603 823 3093 
Q 1294 3584 2113 3584 
Q 2378 3584 2631 3529 
Q 2884 3475 3122 3366 
z
" transform="scale(0.015625)"/>
    </defs>
    <use xlink:href="#DejaVuSans-53"/>
    <use xlink:href="#DejaVuSans-32" x="63.476562"/>
    <use xlink:href="#DejaVuSans-31" x="127.099609"/>
    <use xlink:href="#DejaVuSans-20" x="190.722656"/>
    <use xlink:href="#DejaVuSans-72" x="222.509766"/>
    <use xlink:href="#DejaVuSans-65" x="261.373047"/>
    <use xlink:href="#DejaVuSans-73" x="322.896484"/>
    <use xlink:href="#DejaVuSans-6f" x="374.996094"/>
    <use xlink:href="#DejaVuSans-6e" x="436.177734"/>
    <use xlink:href="#DejaVuSans-61" x="499.556641"/>
    <use xlink:href="#DejaVuSans-74" x="560.835938"/>
    <use xlink:href="#DejaVuSans-6f" x="600.044922"/>
    <use xlink:href="#DejaVuSans-72" x="661.226562"/>
    <use xlink:href="#DejaVuSans-20" x="702.339844"/>
    <use xlink:href="#DejaVuSans-73" x="734.126953"/>
    <use xlink:href="#DejaVuSans-70" x="786.226562"/>
    <use xlink:href="#DejaVuSans-65" x="849.703125"/>
    <use xlink:href="#DejaVuSans-63" x="911.226562"/>
    <use xlink:href="#DejaVuSans-74" x="966.207031"/>
    <use xlink:href="#DejaVuSans-72" x="1005.416016"/>
    <use xlink:href="#DejaVuSans-6f" x="1044.279297"/>
    <use xlink:href="#DejaVuSans-73" x="1105.460938"/>
    <use xlink:href="#DejaVuSans-63" x="1157.560547"/>
    <use xlink:href="#DejaVuSans-6f" x="1212.541016"/>
    <use xlink:href="#DejaVuSans-70" x="1273.722656"/>
    <use xlink:href="#DejaVuSans-79" x="1337.199219"/>
   </g>
   <!-- tuid: 20240104-120134-165-18e8b6 -->
   <g transform="translate(107.289688 29.7555) scale(0.12 -0.12)">
    <defs>
     <path id="DejaVuSans-69" d="M 603 3500 
L 1178 3500 
L 1178 0 
L 603 0 
L 603 3500 
z
M 603 4863 
L 1178 4863 
L 1178 4134 
L 603 4134 
L 603 4863 
z
" transform="scale(0.015625)"/>
     <path id="DejaVuSans-64" d="M 2906 2969 
L 2906 4863 
L 3481 4863 
L 3481 0 
L 2906 0 
L 2906 525 
Q 2725 213 2448 61 
Q 2172 -91 1784 -91 
Q 1150 -91 751 415 
Q 353 922 353 1747 
Q 353 2572 751 3078 
Q 1150 3584 1784 3584 
Q 2172 3584 2448 3432 
Q 2725 3281 2906 2969 
z
M 947 1747 
Q 947 1113 1208 752 
Q 1469 391 1925 391 
Q 2381 391 2643 752 
Q 2906 1113 2906 1747 
Q 2906 2381 2643 2742 
Q 2381 3103 1925 3103 
Q 1469 3103 1208 2742 
Q 947 2381 947 1747 
z
" transform="scale(0.015625)"/>
     <path id="DejaVuSans-62" d="M 3116 1747 
Q 3116 2381 2855 2742 
Q 2594 3103 2138 3103 
Q 1681 3103 1420 2742 
Q 1159 2381 1159 1747 
Q 1159 1113 1420 752 
Q 1681 391 2138 391 
Q 2594 391 2855 752 
Q 3116 1113 3116 1747 
z
M 1159 2969 
Q 1341 3281 1617 3432 
Q 1894 3584 2278 3584 
Q 2916 3584 3314 3078 
Q 3713 2572 3713 1747 
Q 3713 922 3314 415 
Q 2916 -91 2278 -91 
Q 1894 -91 1617 61 
Q 1341 213 1159 525 
L 1159 0 
L 581 0 
L 581 4863 
L 1159 4863 
L 1159 2969 
z
" transform="scale(0.015625)"/>
    </defs>
    <use xlink:href="#DejaVuSans-74"/>
    <use xlink:href="#DejaVuSans-75" x="39.208984"/>
    <use xlink:href="#DejaVuSans-69" x="102.587891"/>
    <use xlink:href="#DejaVuSans-64" x="130.371094"/>
    <use xlink:href="#DejaVuSans-3a" x="193.847656"/>
    <use xlink:href="#DejaVuSans-20" x="227.539062"/>
    <use xlink:href="#DejaVuSans-32" x="259.326172"/>
    <use xlink:href="#DejaVuSans-30" x="322.949219"/>
    <use xlink:href="#DejaVuSans-32" x="386.572266"/>
    <use xlink:href="#DejaVuSans-34" x="450.195312"/>
    <use xlink:href="#DejaVuSans-30" x="513.818359"/>
    <use xlink:href="#DejaVuSans-31" x="577.441406"/>
    <use xlink:href="#DejaVuSans-30" x="641.064453"/>
    <use xlink:href="#DejaVuSans-34" x="704.6875"/>
    <use xlink:href="#DejaVuSans-2d" x="768.310547"/>
    <use xlink:href="#DejaVuSans-31" x="804.394531"/>
    <use xlink:href="#DejaVuSans-32" x="868.017578"/>
    <use xlink:href="#DejaVuSans-30" x="931.640625"/>
    <use xlink:href="#DejaVuSans-31" x="995.263672"/>
    <use xlink:href="#DejaVuSans-33" x="1058.886719"/>
    <use xlink:href="#DejaVuSans-34" x="1122.509766"/>
    <use xlink:href="#DejaVuSans-2d" x="1186.132812"/>
    <use xlink:href="#DejaVuSans-31" x="1222.216797"/>
    <use xlink:href="#DejaVuSans-36" x="1285.839844"/>
    <use xlink:href="#DejaVuSans-35" x="1349.462891"/>
    <use xlink:href="#DejaVuSans-2d" x="1413.085938"/>
    <use xlink:href="#DejaVuSans-31" x="1449.169922"/>
    <use xlink:href="#DejaVuSans-38" x="1512.792969"/>
    <use xlink:href="#DejaVuSans-65" x="1576.416016"/>
    <use xlink:href="#DejaVuSans-38" x="1637.939453"/>
    <use xlink:href="#DejaVuSans-62" x="1701.5625"/>
    <use xlink:href="#DejaVuSans-36" x="1765.039062"/>
   </g>
  </g>
 </g>
 <defs>
  <clipPath id="pceb80e28e7">
   <rect x="44.210938" y="41.76" width="357.12" height="266.112"/>
  </clipPath>
 </defs>
</svg>
