<?xml version="1.0" encoding="utf-8" standalone="no"?>
<!DOCTYPE svg PUBLIC "-//W3C//DTD SVG 1.1//EN"
  "http://www.w3.org/Graphics/SVG/1.1/DTD/svg11.dtd">
<svg xmlns:xlink="http://www.w3.org/1999/xlink" width="572.186937pt" height="345.42825pt" viewBox="0 0 572.186937 345.42825" xmlns="http://www.w3.org/2000/svg" version="1.1">
 <metadata>
  <rdf:RDF xmlns:dc="http://purl.org/dc/elements/1.1/" xmlns:cc="http://creativecommons.org/ns#" xmlns:rdf="http://www.w3.org/1999/02/22-rdf-syntax-ns#">
   <cc:Work>
    <dc:type rdf:resource="http://purl.org/dc/dcmitype/StillImage"/>
    <dc:date>2024-02-22T16:32:28.440795</dc:date>
    <dc:format>image/svg+xml</dc:format>
    <dc:creator>
     <cc:Agent>
      <dc:title>Matplotlib v3.8.2, https://matplotlib.org/</dc:title>
     </cc:Agent>
    </dc:creator>
   </cc:Work>
  </rdf:RDF>
 </metadata>
 <defs>
  <style type="text/css">*{stroke-linejoin: round; stroke-linecap: butt}</style>
 </defs>
 <g id="figure_1">
  <g id="patch_1">
   <path d="M 0 345.42825 
L 572.186937 345.42825 
L 572.186937 -0 
L 0 -0 
L 0 345.42825 
z
" style="fill: none; opacity: 0"/>
  </g>
  <g id="axes_1">
   <g id="patch_2">
    <path d="M 44.210938 162.72 
L 401.330938 162.72 
L 401.330938 41.76 
L 44.210938 41.76 
z
" style="fill: #ffffff"/>
   </g>
   <g id="matplotlib.axis_1">
    <g id="xtick_1">
     <g id="line2d_1">
      <defs>
       <path id="m64147b62e6" d="M 0 0 
L 0 3.5 
" style="stroke: #000000; stroke-width: 0.8"/>
      </defs>
      <g>
       <use xlink:href="#m64147b62e6" x="92.909119" y="162.72" style="stroke: #000000; stroke-width: 0.8"/>
      </g>
     </g>
    </g>
    <g id="xtick_2">
     <g id="line2d_2">
      <g>
       <use xlink:href="#m64147b62e6" x="157.840028" y="162.72" style="stroke: #000000; stroke-width: 0.8"/>
      </g>
     </g>
    </g>
    <g id="xtick_3">
     <g id="line2d_3">
      <g>
       <use xlink:href="#m64147b62e6" x="222.770937" y="162.72" style="stroke: #000000; stroke-width: 0.8"/>
      </g>
     </g>
    </g>
    <g id="xtick_4">
     <g id="line2d_4">
      <g>
       <use xlink:href="#m64147b62e6" x="287.701847" y="162.72" style="stroke: #000000; stroke-width: 0.8"/>
      </g>
     </g>
    </g>
    <g id="xtick_5">
     <g id="line2d_5">
      <g>
       <use xlink:href="#m64147b62e6" x="352.632756" y="162.72" style="stroke: #000000; stroke-width: 0.8"/>
      </g>
     </g>
    </g>
   </g>
   <g id="matplotlib.axis_2">
    <g id="ytick_1">
     <g id="line2d_6">
      <defs>
       <path id="m4871fe2c53" d="M 0 0 
L -3.5 0 
" style="stroke: #000000; stroke-width: 0.8"/>
      </defs>
      <g>
       <use xlink:href="#m4871fe2c53" x="44.210938" y="154.288282" style="stroke: #000000; stroke-width: 0.8"/>
      </g>
     </g>
     <g id="text_1">
      <!-- -10 -->
      <g transform="translate(20.878125 158.087501) scale(0.1 -0.1)">
       <defs>
        <path id="DejaVuSans-2d" d="M 313 2009 
L 1997 2009 
L 1997 1497 
L 313 1497 
L 313 2009 
z
" transform="scale(0.015625)"/>
        <path id="DejaVuSans-31" d="M 794 531 
L 1825 531 
L 1825 4091 
L 703 3866 
L 703 4441 
L 1819 4666 
L 2450 4666 
L 2450 531 
L 3481 531 
L 3481 0 
L 794 0 
L 794 531 
z
" transform="scale(0.015625)"/>
        <path id="DejaVuSans-30" d="M 2034 4250 
Q 1547 4250 1301 3770 
Q 1056 3291 1056 2328 
Q 1056 1369 1301 889 
Q 1547 409 2034 409 
Q 2525 409 2770 889 
Q 3016 1369 3016 2328 
Q 3016 3291 2770 3770 
Q 2525 4250 2034 4250 
z
M 2034 4750 
Q 2819 4750 3233 4129 
Q 3647 3509 3647 2328 
Q 3647 1150 3233 529 
Q 2819 -91 2034 -91 
Q 1250 -91 836 529 
Q 422 1150 422 2328 
Q 422 3509 836 4129 
Q 1250 4750 2034 4750 
z
" transform="scale(0.015625)"/>
       </defs>
       <use xlink:href="#DejaVuSans-2d"/>
       <use xlink:href="#DejaVuSans-31" x="36.083984"/>
       <use xlink:href="#DejaVuSans-30" x="99.707031"/>
      </g>
     </g>
    </g>
    <g id="ytick_2">
     <g id="line2d_7">
      <g>
       <use xlink:href="#m4871fe2c53" x="44.210938" y="128.373001" style="stroke: #000000; stroke-width: 0.8"/>
      </g>
     </g>
     <g id="text_2">
      <!-- -5 -->
      <g transform="translate(27.240625 132.172219) scale(0.1 -0.1)">
       <defs>
        <path id="DejaVuSans-35" d="M 691 4666 
L 3169 4666 
L 3169 4134 
L 1269 4134 
L 1269 2991 
Q 1406 3038 1543 3061 
Q 1681 3084 1819 3084 
Q 2600 3084 3056 2656 
Q 3513 2228 3513 1497 
Q 3513 744 3044 326 
Q 2575 -91 1722 -91 
Q 1428 -91 1123 -41 
Q 819 9 494 109 
L 494 744 
Q 775 591 1075 516 
Q 1375 441 1709 441 
Q 2250 441 2565 725 
Q 2881 1009 2881 1497 
Q 2881 1984 2565 2268 
Q 2250 2553 1709 2553 
Q 1456 2553 1204 2497 
Q 953 2441 691 2322 
L 691 4666 
z
" transform="scale(0.015625)"/>
       </defs>
       <use xlink:href="#DejaVuSans-2d"/>
       <use xlink:href="#DejaVuSans-35" x="36.083984"/>
      </g>
     </g>
    </g>
    <g id="ytick_3">
     <g id="line2d_8">
      <g>
       <use xlink:href="#m4871fe2c53" x="44.210938" y="102.457719" style="stroke: #000000; stroke-width: 0.8"/>
      </g>
     </g>
     <g id="text_3">
      <!-- 0 -->
      <g transform="translate(30.848437 106.256938) scale(0.1 -0.1)">
       <use xlink:href="#DejaVuSans-30"/>
      </g>
     </g>
    </g>
    <g id="ytick_4">
     <g id="line2d_9">
      <g>
       <use xlink:href="#m4871fe2c53" x="44.210938" y="76.542438" style="stroke: #000000; stroke-width: 0.8"/>
      </g>
     </g>
     <g id="text_4">
      <!-- 5 -->
      <g transform="translate(30.848437 80.341657) scale(0.1 -0.1)">
       <use xlink:href="#DejaVuSans-35"/>
      </g>
     </g>
    </g>
    <g id="ytick_5">
     <g id="line2d_10">
      <g>
       <use xlink:href="#m4871fe2c53" x="44.210938" y="50.627157" style="stroke: #000000; stroke-width: 0.8"/>
      </g>
     </g>
     <g id="text_5">
      <!-- 10 -->
      <g transform="translate(24.485937 54.426376) scale(0.1 -0.1)">
       <use xlink:href="#DejaVuSans-31"/>
       <use xlink:href="#DejaVuSans-30" x="63.623047"/>
      </g>
     </g>
    </g>
    <g id="text_6">
     <!-- Re$(S_{21})$ [mV] -->
     <g transform="translate(14.798437 134.24) rotate(-90) scale(0.1 -0.1)">
      <defs>
       <path id="DejaVuSans-52" d="M 2841 2188 
Q 3044 2119 3236 1894 
Q 3428 1669 3622 1275 
L 4263 0 
L 3584 0 
L 2988 1197 
Q 2756 1666 2539 1819 
Q 2322 1972 1947 1972 
L 1259 1972 
L 1259 0 
L 628 0 
L 628 4666 
L 2053 4666 
Q 2853 4666 3247 4331 
Q 3641 3997 3641 3322 
Q 3641 2881 3436 2590 
Q 3231 2300 2841 2188 
z
M 1259 4147 
L 1259 2491 
L 2053 2491 
Q 2509 2491 2742 2702 
Q 2975 2913 2975 3322 
Q 2975 3731 2742 3939 
Q 2509 4147 2053 4147 
L 1259 4147 
z
" transform="scale(0.015625)"/>
       <path id="DejaVuSans-65" d="M 3597 1894 
L 3597 1613 
L 953 1613 
Q 991 1019 1311 708 
Q 1631 397 2203 397 
Q 2534 397 2845 478 
Q 3156 559 3463 722 
L 3463 178 
Q 3153 47 2828 -22 
Q 2503 -91 2169 -91 
Q 1331 -91 842 396 
Q 353 884 353 1716 
Q 353 2575 817 3079 
Q 1281 3584 2069 3584 
Q 2775 3584 3186 3129 
Q 3597 2675 3597 1894 
z
M 3022 2063 
Q 3016 2534 2758 2815 
Q 2500 3097 2075 3097 
Q 1594 3097 1305 2825 
Q 1016 2553 972 2059 
L 3022 2063 
z
" transform="scale(0.015625)"/>
       <path id="DejaVuSans-28" d="M 1984 4856 
Q 1566 4138 1362 3434 
Q 1159 2731 1159 2009 
Q 1159 1288 1364 580 
Q 1569 -128 1984 -844 
L 1484 -844 
Q 1016 -109 783 600 
Q 550 1309 550 2009 
Q 550 2706 781 3412 
Q 1013 4119 1484 4856 
L 1984 4856 
z
" transform="scale(0.015625)"/>
       <path id="DejaVuSans-Oblique-53" d="M 3859 4513 
L 3738 3897 
Q 3422 4066 3111 4152 
Q 2800 4238 2509 4238 
Q 1944 4238 1609 3991 
Q 1275 3744 1275 3334 
Q 1275 3109 1398 2989 
Q 1522 2869 2034 2731 
L 2413 2638 
Q 3053 2472 3303 2217 
Q 3553 1963 3553 1503 
Q 3553 797 2998 353 
Q 2444 -91 1538 -91 
Q 1166 -91 791 -17 
Q 416 56 38 206 
L 166 856 
Q 513 641 861 531 
Q 1209 422 1556 422 
Q 2147 422 2503 684 
Q 2859 947 2859 1369 
Q 2859 1650 2717 1795 
Q 2575 1941 2106 2059 
L 1728 2156 
Q 1081 2325 845 2545 
Q 609 2766 609 3163 
Q 609 3859 1145 4304 
Q 1681 4750 2541 4750 
Q 2875 4750 3203 4690 
Q 3531 4631 3859 4513 
z
" transform="scale(0.015625)"/>
       <path id="DejaVuSans-32" d="M 1228 531 
L 3431 531 
L 3431 0 
L 469 0 
L 469 531 
Q 828 903 1448 1529 
Q 2069 2156 2228 2338 
Q 2531 2678 2651 2914 
Q 2772 3150 2772 3378 
Q 2772 3750 2511 3984 
Q 2250 4219 1831 4219 
Q 1534 4219 1204 4116 
Q 875 4013 500 3803 
L 500 4441 
Q 881 4594 1212 4672 
Q 1544 4750 1819 4750 
Q 2544 4750 2975 4387 
Q 3406 4025 3406 3419 
Q 3406 3131 3298 2873 
Q 3191 2616 2906 2266 
Q 2828 2175 2409 1742 
Q 1991 1309 1228 531 
z
" transform="scale(0.015625)"/>
       <path id="DejaVuSans-29" d="M 513 4856 
L 1013 4856 
Q 1481 4119 1714 3412 
Q 1947 2706 1947 2009 
Q 1947 1309 1714 600 
Q 1481 -109 1013 -844 
L 513 -844 
Q 928 -128 1133 580 
Q 1338 1288 1338 2009 
Q 1338 2731 1133 3434 
Q 928 4138 513 4856 
z
" transform="scale(0.015625)"/>
       <path id="DejaVuSans-20" transform="scale(0.015625)"/>
       <path id="DejaVuSans-5b" d="M 550 4863 
L 1875 4863 
L 1875 4416 
L 1125 4416 
L 1125 -397 
L 1875 -397 
L 1875 -844 
L 550 -844 
L 550 4863 
z
" transform="scale(0.015625)"/>
       <path id="DejaVuSans-6d" d="M 3328 2828 
Q 3544 3216 3844 3400 
Q 4144 3584 4550 3584 
Q 5097 3584 5394 3201 
Q 5691 2819 5691 2113 
L 5691 0 
L 5113 0 
L 5113 2094 
Q 5113 2597 4934 2840 
Q 4756 3084 4391 3084 
Q 3944 3084 3684 2787 
Q 3425 2491 3425 1978 
L 3425 0 
L 2847 0 
L 2847 2094 
Q 2847 2600 2669 2842 
Q 2491 3084 2119 3084 
Q 1678 3084 1418 2786 
Q 1159 2488 1159 1978 
L 1159 0 
L 581 0 
L 581 3500 
L 1159 3500 
L 1159 2956 
Q 1356 3278 1631 3431 
Q 1906 3584 2284 3584 
Q 2666 3584 2933 3390 
Q 3200 3197 3328 2828 
z
" transform="scale(0.015625)"/>
       <path id="DejaVuSans-56" d="M 1831 0 
L 50 4666 
L 709 4666 
L 2188 738 
L 3669 4666 
L 4325 4666 
L 2547 0 
L 1831 0 
z
" transform="scale(0.015625)"/>
       <path id="DejaVuSans-5d" d="M 1947 4863 
L 1947 -844 
L 622 -844 
L 622 -397 
L 1369 -397 
L 1369 4416 
L 622 4416 
L 622 4863 
L 1947 4863 
z
" transform="scale(0.015625)"/>
      </defs>
      <use xlink:href="#DejaVuSans-52" transform="translate(0 0.015625)"/>
      <use xlink:href="#DejaVuSans-65" transform="translate(69.482422 0.015625)"/>
      <use xlink:href="#DejaVuSans-28" transform="translate(131.005859 0.015625)"/>
      <use xlink:href="#DejaVuSans-Oblique-53" transform="translate(170.019531 0.015625)"/>
      <use xlink:href="#DejaVuSans-32" transform="translate(233.496094 -16.390625) scale(0.7)"/>
      <use xlink:href="#DejaVuSans-31" transform="translate(278.032227 -16.390625) scale(0.7)"/>
      <use xlink:href="#DejaVuSans-29" transform="translate(325.302734 0.015625)"/>
      <use xlink:href="#DejaVuSans-20" transform="translate(364.316406 0.015625)"/>
      <use xlink:href="#DejaVuSans-5b" transform="translate(396.103516 0.015625)"/>
      <use xlink:href="#DejaVuSans-6d" transform="translate(435.117188 0.015625)"/>
      <use xlink:href="#DejaVuSans-56" transform="translate(532.529297 0.015625)"/>
      <use xlink:href="#DejaVuSans-5d" transform="translate(600.9375 0.015625)"/>
     </g>
    </g>
   </g>
   <g id="line2d_11">
    <path d="M 60.443665 47.258182 
L 63.706525 47.652583 
L 65.337954 47.597387 
L 68.600814 48.016001 
L 70.232244 48.317351 
L 71.863674 48.466158 
L 73.495104 48.815247 
L 75.126534 49.326533 
L 76.757964 49.546757 
L 78.389393 50.05982 
L 80.020823 50.358969 
L 81.652253 50.532999 
L 83.283683 51.166324 
L 84.915113 51.607176 
L 86.546543 51.926603 
L 91.440832 53.267044 
L 93.072262 53.542743 
L 96.335122 54.548973 
L 97.966552 54.936163 
L 99.597982 55.768826 
L 101.229412 56.211392 
L 104.492271 57.70264 
L 106.123701 58.479055 
L 107.755131 58.783647 
L 109.386561 59.633931 
L 111.017991 60.020545 
L 112.649421 60.580671 
L 114.280851 61.325703 
L 115.912281 61.869552 
L 117.54371 62.765335 
L 120.80657 63.899973 
L 122.438 64.800267 
L 124.06943 65.222394 
L 125.70086 65.858369 
L 128.96372 67.889119 
L 130.595149 68.224285 
L 133.858009 69.724882 
L 137.120869 72.204142 
L 138.752299 72.901535 
L 142.015159 75.057543 
L 143.646588 75.708148 
L 150.172308 79.150703 
L 151.803738 80.236834 
L 153.435168 80.891797 
L 155.066598 82.020811 
L 156.698027 82.737715 
L 158.329457 83.953119 
L 166.486607 88.578219 
L 168.118037 89.661676 
L 171.380896 91.486714 
L 173.012326 92.46028 
L 174.643756 93.566955 
L 177.906616 95.153135 
L 179.538046 96.410894 
L 181.169476 97.068993 
L 182.800906 98.524216 
L 186.063765 100.521176 
L 187.695195 101.719169 
L 189.326625 102.351571 
L 192.589485 104.858762 
L 194.220915 105.700114 
L 195.852345 106.792112 
L 197.483774 108.079749 
L 199.115204 109.122254 
L 200.746634 109.785701 
L 207.272354 114.3384 
L 208.903784 115.173706 
L 213.798073 118.905291 
L 215.429503 119.911532 
L 218.692363 122.139358 
L 221.955223 124.170675 
L 223.586652 125.313836 
L 225.218082 126.233307 
L 226.849512 127.455251 
L 228.480942 128.824447 
L 230.112372 129.713136 
L 235.006662 133.212632 
L 236.638091 134.112711 
L 239.900951 136.512978 
L 241.532381 137.87443 
L 244.795241 139.904356 
L 246.426671 141.446617 
L 248.058101 142.676108 
L 249.68953 143.639017 
L 251.32096 144.797033 
L 252.95239 145.770098 
L 256.21525 148.672925 
L 259.47811 150.554082 
L 261.10954 151.115647 
L 262.740969 151.867189 
L 264.372399 151.845023 
L 266.003829 151.178846 
L 267.635259 148.818477 
L 269.266689 144.664449 
L 270.898119 137.161959 
L 272.529549 127.58854 
L 274.160979 116.271932 
L 275.792408 107.882573 
L 277.423838 104.165435 
L 279.055268 104.863426 
L 280.686698 108.598219 
L 285.580988 122.087133 
L 287.212418 125.981232 
L 288.843848 129.119497 
L 292.106707 134.348687 
L 293.738137 136.112175 
L 295.369567 138.430938 
L 297.000997 139.809959 
L 298.632427 141.457106 
L 301.895287 144.204209 
L 303.526716 145.275106 
L 306.789576 147.137288 
L 308.421006 148.195459 
L 311.683866 149.684768 
L 314.946726 150.917849 
L 316.578155 151.773354 
L 319.841015 152.705221 
L 321.472445 153.494245 
L 323.103875 153.669583 
L 324.735305 154.352261 
L 329.629594 155.321825 
L 331.261024 155.416292 
L 337.786744 156.486301 
L 339.418174 156.566013 
L 341.049604 156.846909 
L 342.681033 156.996308 
L 344.312463 156.948946 
L 345.943893 157.199039 
L 347.575323 156.961339 
L 349.206753 157.019566 
L 350.838183 157.221818 
L 352.469613 156.998454 
L 354.101043 156.946785 
L 355.732472 156.720254 
L 358.995332 156.465381 
L 360.626762 156.206676 
L 362.258192 156.178072 
L 363.889622 155.967696 
L 365.521052 155.971533 
L 368.783911 155.043771 
L 370.415341 154.858543 
L 372.046771 154.358564 
L 376.941061 153.612051 
L 378.572491 153.008569 
L 380.203921 152.654668 
L 381.83535 151.985512 
L 383.46678 152.014633 
L 385.09821 151.257797 
L 385.09821 151.257797 
" clip-path="url(#p4707c561b0)" style="fill: none; stroke: #1f77b4; stroke-width: 1.5; stroke-linecap: square"/>
    <defs>
     <path id="m039d4ffc7e" d="M 0 1.5 
C 0.397805 1.5 0.77937 1.341951 1.06066 1.06066 
C 1.341951 0.77937 1.5 0.397805 1.5 0 
C 1.5 -0.397805 1.341951 -0.77937 1.06066 -1.06066 
C 0.77937 -1.341951 0.397805 -1.5 0 -1.5 
C -0.397805 -1.5 -0.77937 -1.341951 -1.06066 -1.06066 
C -1.341951 -0.77937 -1.5 -0.397805 -1.5 0 
C -1.5 0.397805 -1.341951 0.77937 -1.06066 1.06066 
C -0.77937 1.341951 -0.397805 1.5 0 1.5 
z
" style="stroke: #1f77b4"/>
    </defs>
    <g clip-path="url(#p4707c561b0)">
     <use xlink:href="#m039d4ffc7e" x="60.443665" y="47.258182" style="fill: #1f77b4; stroke: #1f77b4"/>
     <use xlink:href="#m039d4ffc7e" x="62.075095" y="47.414053" style="fill: #1f77b4; stroke: #1f77b4"/>
     <use xlink:href="#m039d4ffc7e" x="63.706525" y="47.652583" style="fill: #1f77b4; stroke: #1f77b4"/>
     <use xlink:href="#m039d4ffc7e" x="65.337954" y="47.597387" style="fill: #1f77b4; stroke: #1f77b4"/>
     <use xlink:href="#m039d4ffc7e" x="66.969384" y="47.756683" style="fill: #1f77b4; stroke: #1f77b4"/>
     <use xlink:href="#m039d4ffc7e" x="68.600814" y="48.016001" style="fill: #1f77b4; stroke: #1f77b4"/>
     <use xlink:href="#m039d4ffc7e" x="70.232244" y="48.317351" style="fill: #1f77b4; stroke: #1f77b4"/>
     <use xlink:href="#m039d4ffc7e" x="71.863674" y="48.466158" style="fill: #1f77b4; stroke: #1f77b4"/>
     <use xlink:href="#m039d4ffc7e" x="73.495104" y="48.815247" style="fill: #1f77b4; stroke: #1f77b4"/>
     <use xlink:href="#m039d4ffc7e" x="75.126534" y="49.326533" style="fill: #1f77b4; stroke: #1f77b4"/>
     <use xlink:href="#m039d4ffc7e" x="76.757964" y="49.546757" style="fill: #1f77b4; stroke: #1f77b4"/>
     <use xlink:href="#m039d4ffc7e" x="78.389393" y="50.05982" style="fill: #1f77b4; stroke: #1f77b4"/>
     <use xlink:href="#m039d4ffc7e" x="80.020823" y="50.358969" style="fill: #1f77b4; stroke: #1f77b4"/>
     <use xlink:href="#m039d4ffc7e" x="81.652253" y="50.532999" style="fill: #1f77b4; stroke: #1f77b4"/>
     <use xlink:href="#m039d4ffc7e" x="83.283683" y="51.166324" style="fill: #1f77b4; stroke: #1f77b4"/>
     <use xlink:href="#m039d4ffc7e" x="84.915113" y="51.607176" style="fill: #1f77b4; stroke: #1f77b4"/>
     <use xlink:href="#m039d4ffc7e" x="86.546543" y="51.926603" style="fill: #1f77b4; stroke: #1f77b4"/>
     <use xlink:href="#m039d4ffc7e" x="88.177973" y="52.402772" style="fill: #1f77b4; stroke: #1f77b4"/>
     <use xlink:href="#m039d4ffc7e" x="89.809403" y="52.853206" style="fill: #1f77b4; stroke: #1f77b4"/>
     <use xlink:href="#m039d4ffc7e" x="91.440832" y="53.267044" style="fill: #1f77b4; stroke: #1f77b4"/>
     <use xlink:href="#m039d4ffc7e" x="93.072262" y="53.542743" style="fill: #1f77b4; stroke: #1f77b4"/>
     <use xlink:href="#m039d4ffc7e" x="94.703692" y="54.048637" style="fill: #1f77b4; stroke: #1f77b4"/>
     <use xlink:href="#m039d4ffc7e" x="96.335122" y="54.548973" style="fill: #1f77b4; stroke: #1f77b4"/>
     <use xlink:href="#m039d4ffc7e" x="97.966552" y="54.936163" style="fill: #1f77b4; stroke: #1f77b4"/>
     <use xlink:href="#m039d4ffc7e" x="99.597982" y="55.768826" style="fill: #1f77b4; stroke: #1f77b4"/>
     <use xlink:href="#m039d4ffc7e" x="101.229412" y="56.211392" style="fill: #1f77b4; stroke: #1f77b4"/>
     <use xlink:href="#m039d4ffc7e" x="102.860842" y="56.910288" style="fill: #1f77b4; stroke: #1f77b4"/>
     <use xlink:href="#m039d4ffc7e" x="104.492271" y="57.70264" style="fill: #1f77b4; stroke: #1f77b4"/>
     <use xlink:href="#m039d4ffc7e" x="106.123701" y="58.479055" style="fill: #1f77b4; stroke: #1f77b4"/>
     <use xlink:href="#m039d4ffc7e" x="107.755131" y="58.783647" style="fill: #1f77b4; stroke: #1f77b4"/>
     <use xlink:href="#m039d4ffc7e" x="109.386561" y="59.633931" style="fill: #1f77b4; stroke: #1f77b4"/>
     <use xlink:href="#m039d4ffc7e" x="111.017991" y="60.020545" style="fill: #1f77b4; stroke: #1f77b4"/>
     <use xlink:href="#m039d4ffc7e" x="112.649421" y="60.580671" style="fill: #1f77b4; stroke: #1f77b4"/>
     <use xlink:href="#m039d4ffc7e" x="114.280851" y="61.325703" style="fill: #1f77b4; stroke: #1f77b4"/>
     <use xlink:href="#m039d4ffc7e" x="115.912281" y="61.869552" style="fill: #1f77b4; stroke: #1f77b4"/>
     <use xlink:href="#m039d4ffc7e" x="117.54371" y="62.765335" style="fill: #1f77b4; stroke: #1f77b4"/>
     <use xlink:href="#m039d4ffc7e" x="119.17514" y="63.356852" style="fill: #1f77b4; stroke: #1f77b4"/>
     <use xlink:href="#m039d4ffc7e" x="120.80657" y="63.899973" style="fill: #1f77b4; stroke: #1f77b4"/>
     <use xlink:href="#m039d4ffc7e" x="122.438" y="64.800267" style="fill: #1f77b4; stroke: #1f77b4"/>
     <use xlink:href="#m039d4ffc7e" x="124.06943" y="65.222394" style="fill: #1f77b4; stroke: #1f77b4"/>
     <use xlink:href="#m039d4ffc7e" x="125.70086" y="65.858369" style="fill: #1f77b4; stroke: #1f77b4"/>
     <use xlink:href="#m039d4ffc7e" x="127.33229" y="66.821202" style="fill: #1f77b4; stroke: #1f77b4"/>
     <use xlink:href="#m039d4ffc7e" x="128.96372" y="67.889119" style="fill: #1f77b4; stroke: #1f77b4"/>
     <use xlink:href="#m039d4ffc7e" x="130.595149" y="68.224285" style="fill: #1f77b4; stroke: #1f77b4"/>
     <use xlink:href="#m039d4ffc7e" x="132.226579" y="69.027232" style="fill: #1f77b4; stroke: #1f77b4"/>
     <use xlink:href="#m039d4ffc7e" x="133.858009" y="69.724882" style="fill: #1f77b4; stroke: #1f77b4"/>
     <use xlink:href="#m039d4ffc7e" x="135.489439" y="70.977987" style="fill: #1f77b4; stroke: #1f77b4"/>
     <use xlink:href="#m039d4ffc7e" x="137.120869" y="72.204142" style="fill: #1f77b4; stroke: #1f77b4"/>
     <use xlink:href="#m039d4ffc7e" x="138.752299" y="72.901535" style="fill: #1f77b4; stroke: #1f77b4"/>
     <use xlink:href="#m039d4ffc7e" x="140.383729" y="74.038242" style="fill: #1f77b4; stroke: #1f77b4"/>
     <use xlink:href="#m039d4ffc7e" x="142.015159" y="75.057543" style="fill: #1f77b4; stroke: #1f77b4"/>
     <use xlink:href="#m039d4ffc7e" x="143.646588" y="75.708148" style="fill: #1f77b4; stroke: #1f77b4"/>
     <use xlink:href="#m039d4ffc7e" x="145.278018" y="76.569546" style="fill: #1f77b4; stroke: #1f77b4"/>
     <use xlink:href="#m039d4ffc7e" x="146.909448" y="77.455712" style="fill: #1f77b4; stroke: #1f77b4"/>
     <use xlink:href="#m039d4ffc7e" x="148.540878" y="78.202072" style="fill: #1f77b4; stroke: #1f77b4"/>
     <use xlink:href="#m039d4ffc7e" x="150.172308" y="79.150703" style="fill: #1f77b4; stroke: #1f77b4"/>
     <use xlink:href="#m039d4ffc7e" x="151.803738" y="80.236834" style="fill: #1f77b4; stroke: #1f77b4"/>
     <use xlink:href="#m039d4ffc7e" x="153.435168" y="80.891797" style="fill: #1f77b4; stroke: #1f77b4"/>
     <use xlink:href="#m039d4ffc7e" x="155.066598" y="82.020811" style="fill: #1f77b4; stroke: #1f77b4"/>
     <use xlink:href="#m039d4ffc7e" x="156.698027" y="82.737715" style="fill: #1f77b4; stroke: #1f77b4"/>
     <use xlink:href="#m039d4ffc7e" x="158.329457" y="83.953119" style="fill: #1f77b4; stroke: #1f77b4"/>
     <use xlink:href="#m039d4ffc7e" x="159.960887" y="84.8597" style="fill: #1f77b4; stroke: #1f77b4"/>
     <use xlink:href="#m039d4ffc7e" x="161.592317" y="85.683241" style="fill: #1f77b4; stroke: #1f77b4"/>
     <use xlink:href="#m039d4ffc7e" x="163.223747" y="86.756615" style="fill: #1f77b4; stroke: #1f77b4"/>
     <use xlink:href="#m039d4ffc7e" x="164.855177" y="87.510649" style="fill: #1f77b4; stroke: #1f77b4"/>
     <use xlink:href="#m039d4ffc7e" x="166.486607" y="88.578219" style="fill: #1f77b4; stroke: #1f77b4"/>
     <use xlink:href="#m039d4ffc7e" x="168.118037" y="89.661676" style="fill: #1f77b4; stroke: #1f77b4"/>
     <use xlink:href="#m039d4ffc7e" x="169.749467" y="90.511796" style="fill: #1f77b4; stroke: #1f77b4"/>
     <use xlink:href="#m039d4ffc7e" x="171.380896" y="91.486714" style="fill: #1f77b4; stroke: #1f77b4"/>
     <use xlink:href="#m039d4ffc7e" x="173.012326" y="92.46028" style="fill: #1f77b4; stroke: #1f77b4"/>
     <use xlink:href="#m039d4ffc7e" x="174.643756" y="93.566955" style="fill: #1f77b4; stroke: #1f77b4"/>
     <use xlink:href="#m039d4ffc7e" x="176.275186" y="94.380405" style="fill: #1f77b4; stroke: #1f77b4"/>
     <use xlink:href="#m039d4ffc7e" x="177.906616" y="95.153135" style="fill: #1f77b4; stroke: #1f77b4"/>
     <use xlink:href="#m039d4ffc7e" x="179.538046" y="96.410894" style="fill: #1f77b4; stroke: #1f77b4"/>
     <use xlink:href="#m039d4ffc7e" x="181.169476" y="97.068993" style="fill: #1f77b4; stroke: #1f77b4"/>
     <use xlink:href="#m039d4ffc7e" x="182.800906" y="98.524216" style="fill: #1f77b4; stroke: #1f77b4"/>
     <use xlink:href="#m039d4ffc7e" x="184.432335" y="99.521428" style="fill: #1f77b4; stroke: #1f77b4"/>
     <use xlink:href="#m039d4ffc7e" x="186.063765" y="100.521176" style="fill: #1f77b4; stroke: #1f77b4"/>
     <use xlink:href="#m039d4ffc7e" x="187.695195" y="101.719169" style="fill: #1f77b4; stroke: #1f77b4"/>
     <use xlink:href="#m039d4ffc7e" x="189.326625" y="102.351571" style="fill: #1f77b4; stroke: #1f77b4"/>
     <use xlink:href="#m039d4ffc7e" x="190.958055" y="103.61157" style="fill: #1f77b4; stroke: #1f77b4"/>
     <use xlink:href="#m039d4ffc7e" x="192.589485" y="104.858762" style="fill: #1f77b4; stroke: #1f77b4"/>
     <use xlink:href="#m039d4ffc7e" x="194.220915" y="105.700114" style="fill: #1f77b4; stroke: #1f77b4"/>
     <use xlink:href="#m039d4ffc7e" x="195.852345" y="106.792112" style="fill: #1f77b4; stroke: #1f77b4"/>
     <use xlink:href="#m039d4ffc7e" x="197.483774" y="108.079749" style="fill: #1f77b4; stroke: #1f77b4"/>
     <use xlink:href="#m039d4ffc7e" x="199.115204" y="109.122254" style="fill: #1f77b4; stroke: #1f77b4"/>
     <use xlink:href="#m039d4ffc7e" x="200.746634" y="109.785701" style="fill: #1f77b4; stroke: #1f77b4"/>
     <use xlink:href="#m039d4ffc7e" x="202.378064" y="110.94942" style="fill: #1f77b4; stroke: #1f77b4"/>
     <use xlink:href="#m039d4ffc7e" x="204.009494" y="112.062978" style="fill: #1f77b4; stroke: #1f77b4"/>
     <use xlink:href="#m039d4ffc7e" x="205.640924" y="113.358244" style="fill: #1f77b4; stroke: #1f77b4"/>
     <use xlink:href="#m039d4ffc7e" x="207.272354" y="114.3384" style="fill: #1f77b4; stroke: #1f77b4"/>
     <use xlink:href="#m039d4ffc7e" x="208.903784" y="115.173706" style="fill: #1f77b4; stroke: #1f77b4"/>
     <use xlink:href="#m039d4ffc7e" x="210.535213" y="116.413311" style="fill: #1f77b4; stroke: #1f77b4"/>
     <use xlink:href="#m039d4ffc7e" x="212.166643" y="117.621056" style="fill: #1f77b4; stroke: #1f77b4"/>
     <use xlink:href="#m039d4ffc7e" x="213.798073" y="118.905291" style="fill: #1f77b4; stroke: #1f77b4"/>
     <use xlink:href="#m039d4ffc7e" x="215.429503" y="119.911532" style="fill: #1f77b4; stroke: #1f77b4"/>
     <use xlink:href="#m039d4ffc7e" x="217.060933" y="121.079738" style="fill: #1f77b4; stroke: #1f77b4"/>
     <use xlink:href="#m039d4ffc7e" x="218.692363" y="122.139358" style="fill: #1f77b4; stroke: #1f77b4"/>
     <use xlink:href="#m039d4ffc7e" x="220.323793" y="123.092816" style="fill: #1f77b4; stroke: #1f77b4"/>
     <use xlink:href="#m039d4ffc7e" x="221.955223" y="124.170675" style="fill: #1f77b4; stroke: #1f77b4"/>
     <use xlink:href="#m039d4ffc7e" x="223.586652" y="125.313836" style="fill: #1f77b4; stroke: #1f77b4"/>
     <use xlink:href="#m039d4ffc7e" x="225.218082" y="126.233307" style="fill: #1f77b4; stroke: #1f77b4"/>
     <use xlink:href="#m039d4ffc7e" x="226.849512" y="127.455251" style="fill: #1f77b4; stroke: #1f77b4"/>
     <use xlink:href="#m039d4ffc7e" x="228.480942" y="128.824447" style="fill: #1f77b4; stroke: #1f77b4"/>
     <use xlink:href="#m039d4ffc7e" x="230.112372" y="129.713136" style="fill: #1f77b4; stroke: #1f77b4"/>
     <use xlink:href="#m039d4ffc7e" x="231.743802" y="130.850404" style="fill: #1f77b4; stroke: #1f77b4"/>
     <use xlink:href="#m039d4ffc7e" x="233.375232" y="131.97004" style="fill: #1f77b4; stroke: #1f77b4"/>
     <use xlink:href="#m039d4ffc7e" x="235.006662" y="133.212632" style="fill: #1f77b4; stroke: #1f77b4"/>
     <use xlink:href="#m039d4ffc7e" x="236.638091" y="134.112711" style="fill: #1f77b4; stroke: #1f77b4"/>
     <use xlink:href="#m039d4ffc7e" x="238.269521" y="135.320296" style="fill: #1f77b4; stroke: #1f77b4"/>
     <use xlink:href="#m039d4ffc7e" x="239.900951" y="136.512978" style="fill: #1f77b4; stroke: #1f77b4"/>
     <use xlink:href="#m039d4ffc7e" x="241.532381" y="137.87443" style="fill: #1f77b4; stroke: #1f77b4"/>
     <use xlink:href="#m039d4ffc7e" x="243.163811" y="138.904921" style="fill: #1f77b4; stroke: #1f77b4"/>
     <use xlink:href="#m039d4ffc7e" x="244.795241" y="139.904356" style="fill: #1f77b4; stroke: #1f77b4"/>
     <use xlink:href="#m039d4ffc7e" x="246.426671" y="141.446617" style="fill: #1f77b4; stroke: #1f77b4"/>
     <use xlink:href="#m039d4ffc7e" x="248.058101" y="142.676108" style="fill: #1f77b4; stroke: #1f77b4"/>
     <use xlink:href="#m039d4ffc7e" x="249.68953" y="143.639017" style="fill: #1f77b4; stroke: #1f77b4"/>
     <use xlink:href="#m039d4ffc7e" x="251.32096" y="144.797033" style="fill: #1f77b4; stroke: #1f77b4"/>
     <use xlink:href="#m039d4ffc7e" x="252.95239" y="145.770098" style="fill: #1f77b4; stroke: #1f77b4"/>
     <use xlink:href="#m039d4ffc7e" x="254.58382" y="147.159779" style="fill: #1f77b4; stroke: #1f77b4"/>
     <use xlink:href="#m039d4ffc7e" x="256.21525" y="148.672925" style="fill: #1f77b4; stroke: #1f77b4"/>
     <use xlink:href="#m039d4ffc7e" x="257.84668" y="149.664354" style="fill: #1f77b4; stroke: #1f77b4"/>
     <use xlink:href="#m039d4ffc7e" x="259.47811" y="150.554082" style="fill: #1f77b4; stroke: #1f77b4"/>
     <use xlink:href="#m039d4ffc7e" x="261.10954" y="151.115647" style="fill: #1f77b4; stroke: #1f77b4"/>
     <use xlink:href="#m039d4ffc7e" x="262.740969" y="151.867189" style="fill: #1f77b4; stroke: #1f77b4"/>
     <use xlink:href="#m039d4ffc7e" x="264.372399" y="151.845023" style="fill: #1f77b4; stroke: #1f77b4"/>
     <use xlink:href="#m039d4ffc7e" x="266.003829" y="151.178846" style="fill: #1f77b4; stroke: #1f77b4"/>
     <use xlink:href="#m039d4ffc7e" x="267.635259" y="148.818477" style="fill: #1f77b4; stroke: #1f77b4"/>
     <use xlink:href="#m039d4ffc7e" x="269.266689" y="144.664449" style="fill: #1f77b4; stroke: #1f77b4"/>
     <use xlink:href="#m039d4ffc7e" x="270.898119" y="137.161959" style="fill: #1f77b4; stroke: #1f77b4"/>
     <use xlink:href="#m039d4ffc7e" x="272.529549" y="127.58854" style="fill: #1f77b4; stroke: #1f77b4"/>
     <use xlink:href="#m039d4ffc7e" x="274.160979" y="116.271932" style="fill: #1f77b4; stroke: #1f77b4"/>
     <use xlink:href="#m039d4ffc7e" x="275.792408" y="107.882573" style="fill: #1f77b4; stroke: #1f77b4"/>
     <use xlink:href="#m039d4ffc7e" x="277.423838" y="104.165435" style="fill: #1f77b4; stroke: #1f77b4"/>
     <use xlink:href="#m039d4ffc7e" x="279.055268" y="104.863426" style="fill: #1f77b4; stroke: #1f77b4"/>
     <use xlink:href="#m039d4ffc7e" x="280.686698" y="108.598219" style="fill: #1f77b4; stroke: #1f77b4"/>
     <use xlink:href="#m039d4ffc7e" x="282.318128" y="113.205426" style="fill: #1f77b4; stroke: #1f77b4"/>
     <use xlink:href="#m039d4ffc7e" x="283.949558" y="117.975786" style="fill: #1f77b4; stroke: #1f77b4"/>
     <use xlink:href="#m039d4ffc7e" x="285.580988" y="122.087133" style="fill: #1f77b4; stroke: #1f77b4"/>
     <use xlink:href="#m039d4ffc7e" x="287.212418" y="125.981232" style="fill: #1f77b4; stroke: #1f77b4"/>
     <use xlink:href="#m039d4ffc7e" x="288.843848" y="129.119497" style="fill: #1f77b4; stroke: #1f77b4"/>
     <use xlink:href="#m039d4ffc7e" x="290.475277" y="131.654972" style="fill: #1f77b4; stroke: #1f77b4"/>
     <use xlink:href="#m039d4ffc7e" x="292.106707" y="134.348687" style="fill: #1f77b4; stroke: #1f77b4"/>
     <use xlink:href="#m039d4ffc7e" x="293.738137" y="136.112175" style="fill: #1f77b4; stroke: #1f77b4"/>
     <use xlink:href="#m039d4ffc7e" x="295.369567" y="138.430938" style="fill: #1f77b4; stroke: #1f77b4"/>
     <use xlink:href="#m039d4ffc7e" x="297.000997" y="139.809959" style="fill: #1f77b4; stroke: #1f77b4"/>
     <use xlink:href="#m039d4ffc7e" x="298.632427" y="141.457106" style="fill: #1f77b4; stroke: #1f77b4"/>
     <use xlink:href="#m039d4ffc7e" x="300.263857" y="142.864241" style="fill: #1f77b4; stroke: #1f77b4"/>
     <use xlink:href="#m039d4ffc7e" x="301.895287" y="144.204209" style="fill: #1f77b4; stroke: #1f77b4"/>
     <use xlink:href="#m039d4ffc7e" x="303.526716" y="145.275106" style="fill: #1f77b4; stroke: #1f77b4"/>
     <use xlink:href="#m039d4ffc7e" x="305.158146" y="146.172388" style="fill: #1f77b4; stroke: #1f77b4"/>
     <use xlink:href="#m039d4ffc7e" x="306.789576" y="147.137288" style="fill: #1f77b4; stroke: #1f77b4"/>
     <use xlink:href="#m039d4ffc7e" x="308.421006" y="148.195459" style="fill: #1f77b4; stroke: #1f77b4"/>
     <use xlink:href="#m039d4ffc7e" x="310.052436" y="148.988983" style="fill: #1f77b4; stroke: #1f77b4"/>
     <use xlink:href="#m039d4ffc7e" x="311.683866" y="149.684768" style="fill: #1f77b4; stroke: #1f77b4"/>
     <use xlink:href="#m039d4ffc7e" x="313.315296" y="150.280211" style="fill: #1f77b4; stroke: #1f77b4"/>
     <use xlink:href="#m039d4ffc7e" x="314.946726" y="150.917849" style="fill: #1f77b4; stroke: #1f77b4"/>
     <use xlink:href="#m039d4ffc7e" x="316.578155" y="151.773354" style="fill: #1f77b4; stroke: #1f77b4"/>
     <use xlink:href="#m039d4ffc7e" x="318.209585" y="152.233154" style="fill: #1f77b4; stroke: #1f77b4"/>
     <use xlink:href="#m039d4ffc7e" x="319.841015" y="152.705221" style="fill: #1f77b4; stroke: #1f77b4"/>
     <use xlink:href="#m039d4ffc7e" x="321.472445" y="153.494245" style="fill: #1f77b4; stroke: #1f77b4"/>
     <use xlink:href="#m039d4ffc7e" x="323.103875" y="153.669583" style="fill: #1f77b4; stroke: #1f77b4"/>
     <use xlink:href="#m039d4ffc7e" x="324.735305" y="154.352261" style="fill: #1f77b4; stroke: #1f77b4"/>
     <use xlink:href="#m039d4ffc7e" x="326.366735" y="154.665631" style="fill: #1f77b4; stroke: #1f77b4"/>
     <use xlink:href="#m039d4ffc7e" x="327.998165" y="154.958556" style="fill: #1f77b4; stroke: #1f77b4"/>
     <use xlink:href="#m039d4ffc7e" x="329.629594" y="155.321825" style="fill: #1f77b4; stroke: #1f77b4"/>
     <use xlink:href="#m039d4ffc7e" x="331.261024" y="155.416292" style="fill: #1f77b4; stroke: #1f77b4"/>
     <use xlink:href="#m039d4ffc7e" x="332.892454" y="155.708387" style="fill: #1f77b4; stroke: #1f77b4"/>
     <use xlink:href="#m039d4ffc7e" x="334.523884" y="156.093527" style="fill: #1f77b4; stroke: #1f77b4"/>
     <use xlink:href="#m039d4ffc7e" x="336.155314" y="156.228403" style="fill: #1f77b4; stroke: #1f77b4"/>
     <use xlink:href="#m039d4ffc7e" x="337.786744" y="156.486301" style="fill: #1f77b4; stroke: #1f77b4"/>
     <use xlink:href="#m039d4ffc7e" x="339.418174" y="156.566013" style="fill: #1f77b4; stroke: #1f77b4"/>
     <use xlink:href="#m039d4ffc7e" x="341.049604" y="156.846909" style="fill: #1f77b4; stroke: #1f77b4"/>
     <use xlink:href="#m039d4ffc7e" x="342.681033" y="156.996308" style="fill: #1f77b4; stroke: #1f77b4"/>
     <use xlink:href="#m039d4ffc7e" x="344.312463" y="156.948946" style="fill: #1f77b4; stroke: #1f77b4"/>
     <use xlink:href="#m039d4ffc7e" x="345.943893" y="157.199039" style="fill: #1f77b4; stroke: #1f77b4"/>
     <use xlink:href="#m039d4ffc7e" x="347.575323" y="156.961339" style="fill: #1f77b4; stroke: #1f77b4"/>
     <use xlink:href="#m039d4ffc7e" x="349.206753" y="157.019566" style="fill: #1f77b4; stroke: #1f77b4"/>
     <use xlink:href="#m039d4ffc7e" x="350.838183" y="157.221818" style="fill: #1f77b4; stroke: #1f77b4"/>
     <use xlink:href="#m039d4ffc7e" x="352.469613" y="156.998454" style="fill: #1f77b4; stroke: #1f77b4"/>
     <use xlink:href="#m039d4ffc7e" x="354.101043" y="156.946785" style="fill: #1f77b4; stroke: #1f77b4"/>
     <use xlink:href="#m039d4ffc7e" x="355.732472" y="156.720254" style="fill: #1f77b4; stroke: #1f77b4"/>
     <use xlink:href="#m039d4ffc7e" x="357.363902" y="156.624461" style="fill: #1f77b4; stroke: #1f77b4"/>
     <use xlink:href="#m039d4ffc7e" x="358.995332" y="156.465381" style="fill: #1f77b4; stroke: #1f77b4"/>
     <use xlink:href="#m039d4ffc7e" x="360.626762" y="156.206676" style="fill: #1f77b4; stroke: #1f77b4"/>
     <use xlink:href="#m039d4ffc7e" x="362.258192" y="156.178072" style="fill: #1f77b4; stroke: #1f77b4"/>
     <use xlink:href="#m039d4ffc7e" x="363.889622" y="155.967696" style="fill: #1f77b4; stroke: #1f77b4"/>
     <use xlink:href="#m039d4ffc7e" x="365.521052" y="155.971533" style="fill: #1f77b4; stroke: #1f77b4"/>
     <use xlink:href="#m039d4ffc7e" x="367.152482" y="155.470345" style="fill: #1f77b4; stroke: #1f77b4"/>
     <use xlink:href="#m039d4ffc7e" x="368.783911" y="155.043771" style="fill: #1f77b4; stroke: #1f77b4"/>
     <use xlink:href="#m039d4ffc7e" x="370.415341" y="154.858543" style="fill: #1f77b4; stroke: #1f77b4"/>
     <use xlink:href="#m039d4ffc7e" x="372.046771" y="154.358564" style="fill: #1f77b4; stroke: #1f77b4"/>
     <use xlink:href="#m039d4ffc7e" x="373.678201" y="154.113534" style="fill: #1f77b4; stroke: #1f77b4"/>
     <use xlink:href="#m039d4ffc7e" x="375.309631" y="153.908493" style="fill: #1f77b4; stroke: #1f77b4"/>
     <use xlink:href="#m039d4ffc7e" x="376.941061" y="153.612051" style="fill: #1f77b4; stroke: #1f77b4"/>
     <use xlink:href="#m039d4ffc7e" x="378.572491" y="153.008569" style="fill: #1f77b4; stroke: #1f77b4"/>
     <use xlink:href="#m039d4ffc7e" x="380.203921" y="152.654668" style="fill: #1f77b4; stroke: #1f77b4"/>
     <use xlink:href="#m039d4ffc7e" x="381.83535" y="151.985512" style="fill: #1f77b4; stroke: #1f77b4"/>
     <use xlink:href="#m039d4ffc7e" x="383.46678" y="152.014633" style="fill: #1f77b4; stroke: #1f77b4"/>
     <use xlink:href="#m039d4ffc7e" x="385.09821" y="151.257797" style="fill: #1f77b4; stroke: #1f77b4"/>
    </g>
   </g>
   <g id="line2d_12">
    <path d="M 60.443665 47.647513 
L 66.293296 48.185857 
L 72.142928 48.953605 
L 77.992559 49.948177 
L 83.842191 51.166086 
L 89.691822 52.602966 
L 95.866433 54.351436 
L 102.041044 56.330884 
L 108.540634 58.655062 
L 115.040225 61.215465 
L 121.864795 64.145246 
L 129.014345 67.463797 
L 136.488874 71.18622 
L 144.288382 75.322336 
L 152.73785 80.062601 
L 161.837277 85.429401 
L 171.911642 91.634023 
L 183.610905 99.106088 
L 198.884942 109.144335 
L 225.533263 126.97341 
L 245.032035 140.216434 
L 256.731298 148.16718 
L 259.331134 149.681139 
L 261.281011 150.566617 
L 262.580929 150.941718 
L 263.555868 151.049453 
L 264.530806 150.949227 
L 265.505745 150.567876 
L 266.155704 150.110697 
L 266.805663 149.450417 
L 267.455622 148.545348 
L 268.105581 147.347936 
L 268.75554 145.805966 
L 269.730479 142.729622 
L 270.705417 138.599749 
L 271.680356 133.355516 
L 272.980274 124.927718 
L 274.930151 112.022211 
L 275.90509 107.252112 
L 276.555049 105.134457 
L 277.205008 103.924626 
L 277.529987 103.645992 
L 277.854967 103.56806 
L 278.179947 103.674223 
L 278.504926 103.945953 
L 279.154885 104.908024 
L 279.804844 106.300494 
L 281.104762 109.845056 
L 285.004517 121.15226 
L 286.629414 125.100537 
L 288.254312 128.5155 
L 289.879209 131.462274 
L 291.504107 134.01577 
L 293.453984 136.655977 
L 295.403861 138.923993 
L 297.678718 141.198286 
L 299.953575 143.155634 
L 302.553411 145.086401 
L 305.478227 146.949237 
L 308.403042 148.55052 
L 311.652838 150.081281 
L 315.227612 151.515997 
L 319.127367 152.83194 
L 323.3521 154.007172 
L 327.576834 154.954896 
L 332.126548 155.748231 
L 337.001241 156.359958 
L 341.875933 156.743527 
L 346.750626 156.912921 
L 351.950299 156.869672 
L 357.149971 156.605555 
L 362.674623 156.092785 
L 368.199275 155.349943 
L 373.723927 154.385565 
L 379.573558 153.132057 
L 385.09821 151.737148 
L 385.09821 151.737148 
" clip-path="url(#p4707c561b0)" style="fill: none; stroke: #d62728; stroke-width: 1.5; stroke-linecap: square"/>
   </g>
   <g id="patch_3">
    <path d="M 44.210938 162.72 
L 44.210938 41.76 
" style="fill: none; stroke: #000000; stroke-width: 0.8; stroke-linejoin: miter; stroke-linecap: square"/>
   </g>
   <g id="patch_4">
    <path d="M 401.330938 162.72 
L 401.330938 41.76 
" style="fill: none; stroke: #000000; stroke-width: 0.8; stroke-linejoin: miter; stroke-linecap: square"/>
   </g>
   <g id="patch_5">
    <path d="M 44.210938 162.72 
L 401.330937 162.72 
" style="fill: none; stroke: #000000; stroke-width: 0.8; stroke-linejoin: miter; stroke-linecap: square"/>
   </g>
   <g id="patch_6">
    <path d="M 44.210938 41.76 
L 401.330937 41.76 
" style="fill: none; stroke: #000000; stroke-width: 0.8; stroke-linejoin: miter; stroke-linecap: square"/>
   </g>
   <g id="text_7">
    <g id="patch_7">
     <path d="M 419.186937 95.079562 
L 564.986938 95.079562 
Q 568.986938 95.079562 568.986938 91.079562 
L 568.986938 47.808 
Q 568.986938 43.808 564.986938 43.808 
L 419.186937 43.808 
Q 415.186937 43.808 415.186937 47.808 
L 415.186937 91.079562 
Q 415.186937 95.079562 419.186937 95.079562 
z
" style="fill: #ffffff; opacity: 0.5; stroke: #000000; stroke-linejoin: miter"/>
    </g>
    <!-- Summary -->
    <g transform="translate(419.186937 55.406437) scale(0.1 -0.1)">
     <defs>
      <path id="DejaVuSans-53" d="M 3425 4513 
L 3425 3897 
Q 3066 4069 2747 4153 
Q 2428 4238 2131 4238 
Q 1616 4238 1336 4038 
Q 1056 3838 1056 3469 
Q 1056 3159 1242 3001 
Q 1428 2844 1947 2747 
L 2328 2669 
Q 3034 2534 3370 2195 
Q 3706 1856 3706 1288 
Q 3706 609 3251 259 
Q 2797 -91 1919 -91 
Q 1588 -91 1214 -16 
Q 841 59 441 206 
L 441 856 
Q 825 641 1194 531 
Q 1563 422 1919 422 
Q 2459 422 2753 634 
Q 3047 847 3047 1241 
Q 3047 1584 2836 1778 
Q 2625 1972 2144 2069 
L 1759 2144 
Q 1053 2284 737 2584 
Q 422 2884 422 3419 
Q 422 4038 858 4394 
Q 1294 4750 2059 4750 
Q 2388 4750 2728 4690 
Q 3069 4631 3425 4513 
z
" transform="scale(0.015625)"/>
      <path id="DejaVuSans-75" d="M 544 1381 
L 544 3500 
L 1119 3500 
L 1119 1403 
Q 1119 906 1312 657 
Q 1506 409 1894 409 
Q 2359 409 2629 706 
Q 2900 1003 2900 1516 
L 2900 3500 
L 3475 3500 
L 3475 0 
L 2900 0 
L 2900 538 
Q 2691 219 2414 64 
Q 2138 -91 1772 -91 
Q 1169 -91 856 284 
Q 544 659 544 1381 
z
M 1991 3584 
L 1991 3584 
z
" transform="scale(0.015625)"/>
      <path id="DejaVuSans-61" d="M 2194 1759 
Q 1497 1759 1228 1600 
Q 959 1441 959 1056 
Q 959 750 1161 570 
Q 1363 391 1709 391 
Q 2188 391 2477 730 
Q 2766 1069 2766 1631 
L 2766 1759 
L 2194 1759 
z
M 3341 1997 
L 3341 0 
L 2766 0 
L 2766 531 
Q 2569 213 2275 61 
Q 1981 -91 1556 -91 
Q 1019 -91 701 211 
Q 384 513 384 1019 
Q 384 1609 779 1909 
Q 1175 2209 1959 2209 
L 2766 2209 
L 2766 2266 
Q 2766 2663 2505 2880 
Q 2244 3097 1772 3097 
Q 1472 3097 1187 3025 
Q 903 2953 641 2809 
L 641 3341 
Q 956 3463 1253 3523 
Q 1550 3584 1831 3584 
Q 2591 3584 2966 3190 
Q 3341 2797 3341 1997 
z
" transform="scale(0.015625)"/>
      <path id="DejaVuSans-72" d="M 2631 2963 
Q 2534 3019 2420 3045 
Q 2306 3072 2169 3072 
Q 1681 3072 1420 2755 
Q 1159 2438 1159 1844 
L 1159 0 
L 581 0 
L 581 3500 
L 1159 3500 
L 1159 2956 
Q 1341 3275 1631 3429 
Q 1922 3584 2338 3584 
Q 2397 3584 2469 3576 
Q 2541 3569 2628 3553 
L 2631 2963 
z
" transform="scale(0.015625)"/>
      <path id="DejaVuSans-79" d="M 2059 -325 
Q 1816 -950 1584 -1140 
Q 1353 -1331 966 -1331 
L 506 -1331 
L 506 -850 
L 844 -850 
Q 1081 -850 1212 -737 
Q 1344 -625 1503 -206 
L 1606 56 
L 191 3500 
L 800 3500 
L 1894 763 
L 2988 3500 
L 3597 3500 
L 2059 -325 
z
" transform="scale(0.015625)"/>
     </defs>
     <use xlink:href="#DejaVuSans-53"/>
     <use xlink:href="#DejaVuSans-75" x="63.476562"/>
     <use xlink:href="#DejaVuSans-6d" x="126.855469"/>
     <use xlink:href="#DejaVuSans-6d" x="224.267578"/>
     <use xlink:href="#DejaVuSans-61" x="321.679688"/>
     <use xlink:href="#DejaVuSans-72" x="382.958984"/>
     <use xlink:href="#DejaVuSans-79" x="424.072266"/>
    </g>
    <!-- $Q_I$: 29.0$\pm$1.1 k -->
    <g transform="translate(419.186937 66.60425) scale(0.1 -0.1)">
     <defs>
      <path id="DejaVuSans-Oblique-51" d="M 2309 -84 
Q 2275 -88 2237 -89 
Q 2200 -91 2125 -91 
Q 1250 -91 756 411 
Q 263 913 263 1797 
Q 263 2319 452 2844 
Q 641 3369 978 3788 
Q 1369 4269 1858 4509 
Q 2347 4750 2938 4750 
Q 3794 4750 4287 4245 
Q 4781 3741 4781 2869 
Q 4781 1928 4265 1147 
Q 3750 366 2919 44 
L 3553 -825 
L 2847 -825 
L 2309 -84 
z
M 2919 4238 
Q 2400 4238 2003 3986 
Q 1606 3734 1313 3219 
Q 1125 2891 1026 2522 
Q 928 2153 928 1778 
Q 928 1128 1239 775 
Q 1550 422 2119 422 
Q 2631 422 3032 676 
Q 3434 931 3719 1434 
Q 3909 1772 4009 2142 
Q 4109 2513 4109 2881 
Q 4109 3528 3796 3883 
Q 3484 4238 2919 4238 
z
" transform="scale(0.015625)"/>
      <path id="DejaVuSans-Oblique-49" d="M 1081 4666 
L 1716 4666 
L 806 0 
L 172 0 
L 1081 4666 
z
" transform="scale(0.015625)"/>
      <path id="DejaVuSans-3a" d="M 750 794 
L 1409 794 
L 1409 0 
L 750 0 
L 750 794 
z
M 750 3309 
L 1409 3309 
L 1409 2516 
L 750 2516 
L 750 3309 
z
" transform="scale(0.015625)"/>
      <path id="DejaVuSans-39" d="M 703 97 
L 703 672 
Q 941 559 1184 500 
Q 1428 441 1663 441 
Q 2288 441 2617 861 
Q 2947 1281 2994 2138 
Q 2813 1869 2534 1725 
Q 2256 1581 1919 1581 
Q 1219 1581 811 2004 
Q 403 2428 403 3163 
Q 403 3881 828 4315 
Q 1253 4750 1959 4750 
Q 2769 4750 3195 4129 
Q 3622 3509 3622 2328 
Q 3622 1225 3098 567 
Q 2575 -91 1691 -91 
Q 1453 -91 1209 -44 
Q 966 3 703 97 
z
M 1959 2075 
Q 2384 2075 2632 2365 
Q 2881 2656 2881 3163 
Q 2881 3666 2632 3958 
Q 2384 4250 1959 4250 
Q 1534 4250 1286 3958 
Q 1038 3666 1038 3163 
Q 1038 2656 1286 2365 
Q 1534 2075 1959 2075 
z
" transform="scale(0.015625)"/>
      <path id="DejaVuSans-2e" d="M 684 794 
L 1344 794 
L 1344 0 
L 684 0 
L 684 794 
z
" transform="scale(0.015625)"/>
      <path id="DejaVuSans-b1" d="M 2944 4013 
L 2944 2803 
L 4684 2803 
L 4684 2272 
L 2944 2272 
L 2944 1063 
L 2419 1063 
L 2419 2272 
L 678 2272 
L 678 2803 
L 2419 2803 
L 2419 4013 
L 2944 4013 
z
M 678 531 
L 4684 531 
L 4684 0 
L 678 0 
L 678 531 
z
" transform="scale(0.015625)"/>
      <path id="DejaVuSans-6b" d="M 581 4863 
L 1159 4863 
L 1159 1991 
L 2875 3500 
L 3609 3500 
L 1753 1863 
L 3688 0 
L 2938 0 
L 1159 1709 
L 1159 0 
L 581 0 
L 581 4863 
z
" transform="scale(0.015625)"/>
     </defs>
     <use xlink:href="#DejaVuSans-Oblique-51" transform="translate(0 0.015625)"/>
     <use xlink:href="#DejaVuSans-Oblique-49" transform="translate(78.710938 -16.390625) scale(0.7)"/>
     <use xlink:href="#DejaVuSans-3a" transform="translate(102.089844 0.015625)"/>
     <use xlink:href="#DejaVuSans-20" transform="translate(135.78125 0.015625)"/>
     <use xlink:href="#DejaVuSans-32" transform="translate(167.568359 0.015625)"/>
     <use xlink:href="#DejaVuSans-39" transform="translate(229.441406 0.015625)"/>
     <use xlink:href="#DejaVuSans-2e" transform="translate(293.064453 0.015625)"/>
     <use xlink:href="#DejaVuSans-30" transform="translate(324.851562 0.015625)"/>
     <use xlink:href="#DejaVuSans-b1" transform="translate(388.474609 0.015625)"/>
     <use xlink:href="#DejaVuSans-31" transform="translate(472.263672 0.015625)"/>
     <use xlink:href="#DejaVuSans-2e" transform="translate(535.886719 0.015625)"/>
     <use xlink:href="#DejaVuSans-31" transform="translate(567.673828 0.015625)"/>
     <use xlink:href="#DejaVuSans-20" transform="translate(631.296875 0.015625)"/>
     <use xlink:href="#DejaVuSans-6b" transform="translate(663.083984 0.015625)"/>
    </g>
    <!-- $Q_C$: 3.209$\pm$0.014 k -->
    <g transform="translate(419.186937 77.802062) scale(0.1 -0.1)">
     <defs>
      <path id="DejaVuSans-Oblique-43" d="M 4447 4306 
L 4319 3641 
Q 4019 3944 3683 4091 
Q 3347 4238 2956 4238 
Q 2422 4238 2017 3981 
Q 1613 3725 1319 3200 
Q 1131 2863 1032 2486 
Q 934 2109 934 1728 
Q 934 1091 1264 756 
Q 1594 422 2222 422 
Q 2656 422 3056 561 
Q 3456 700 3834 978 
L 3688 231 
Q 3316 72 2936 -9 
Q 2556 -91 2175 -91 
Q 1278 -91 773 396 
Q 269 884 269 1753 
Q 269 2309 461 2846 
Q 653 3384 1013 3828 
Q 1394 4300 1883 4525 
Q 2372 4750 3022 4750 
Q 3422 4750 3780 4639 
Q 4138 4528 4447 4306 
z
" transform="scale(0.015625)"/>
      <path id="DejaVuSans-33" d="M 2597 2516 
Q 3050 2419 3304 2112 
Q 3559 1806 3559 1356 
Q 3559 666 3084 287 
Q 2609 -91 1734 -91 
Q 1441 -91 1130 -33 
Q 819 25 488 141 
L 488 750 
Q 750 597 1062 519 
Q 1375 441 1716 441 
Q 2309 441 2620 675 
Q 2931 909 2931 1356 
Q 2931 1769 2642 2001 
Q 2353 2234 1838 2234 
L 1294 2234 
L 1294 2753 
L 1863 2753 
Q 2328 2753 2575 2939 
Q 2822 3125 2822 3475 
Q 2822 3834 2567 4026 
Q 2313 4219 1838 4219 
Q 1578 4219 1281 4162 
Q 984 4106 628 3988 
L 628 4550 
Q 988 4650 1302 4700 
Q 1616 4750 1894 4750 
Q 2613 4750 3031 4423 
Q 3450 4097 3450 3541 
Q 3450 3153 3228 2886 
Q 3006 2619 2597 2516 
z
" transform="scale(0.015625)"/>
      <path id="DejaVuSans-34" d="M 2419 4116 
L 825 1625 
L 2419 1625 
L 2419 4116 
z
M 2253 4666 
L 3047 4666 
L 3047 1625 
L 3713 1625 
L 3713 1100 
L 3047 1100 
L 3047 0 
L 2419 0 
L 2419 1100 
L 313 1100 
L 313 1709 
L 2253 4666 
z
" transform="scale(0.015625)"/>
     </defs>
     <use xlink:href="#DejaVuSans-Oblique-51" transform="translate(0 0.015625)"/>
     <use xlink:href="#DejaVuSans-Oblique-43" transform="translate(78.710938 -16.390625) scale(0.7)"/>
     <use xlink:href="#DejaVuSans-3a" transform="translate(130.322266 0.015625)"/>
     <use xlink:href="#DejaVuSans-20" transform="translate(164.013672 0.015625)"/>
     <use xlink:href="#DejaVuSans-33" transform="translate(195.800781 0.015625)"/>
     <use xlink:href="#DejaVuSans-2e" transform="translate(259.423828 0.015625)"/>
     <use xlink:href="#DejaVuSans-32" transform="translate(285.710938 0.015625)"/>
     <use xlink:href="#DejaVuSans-30" transform="translate(349.333984 0.015625)"/>
     <use xlink:href="#DejaVuSans-39" transform="translate(412.957031 0.015625)"/>
     <use xlink:href="#DejaVuSans-b1" transform="translate(476.580078 0.015625)"/>
     <use xlink:href="#DejaVuSans-30" transform="translate(560.369141 0.015625)"/>
     <use xlink:href="#DejaVuSans-2e" transform="translate(623.992188 0.015625)"/>
     <use xlink:href="#DejaVuSans-30" transform="translate(655.779297 0.015625)"/>
     <use xlink:href="#DejaVuSans-31" transform="translate(719.402344 0.015625)"/>
     <use xlink:href="#DejaVuSans-34" transform="translate(783.025391 0.015625)"/>
     <use xlink:href="#DejaVuSans-20" transform="translate(846.648438 0.015625)"/>
     <use xlink:href="#DejaVuSans-6b" transform="translate(878.435547 0.015625)"/>
    </g>
    <!-- $f_{res}$: 6.0080449$\pm$6.0e-06 GHz -->
    <g transform="translate(419.186937 88.999875) scale(0.1 -0.1)">
     <defs>
      <path id="DejaVuSans-Oblique-66" d="M 3059 4863 
L 2969 4384 
L 2419 4384 
Q 2106 4384 1964 4261 
Q 1822 4138 1753 3809 
L 1691 3500 
L 2638 3500 
L 2553 3053 
L 1606 3053 
L 1013 0 
L 434 0 
L 1031 3053 
L 481 3053 
L 563 3500 
L 1113 3500 
L 1159 3744 
Q 1278 4363 1576 4613 
Q 1875 4863 2516 4863 
L 3059 4863 
z
" transform="scale(0.015625)"/>
      <path id="DejaVuSans-Oblique-72" d="M 2853 2969 
Q 2766 3016 2653 3041 
Q 2541 3066 2413 3066 
Q 1953 3066 1609 2717 
Q 1266 2369 1153 1784 
L 800 0 
L 225 0 
L 909 3500 
L 1484 3500 
L 1375 2956 
Q 1603 3259 1920 3421 
Q 2238 3584 2597 3584 
Q 2691 3584 2781 3573 
Q 2872 3563 2963 3538 
L 2853 2969 
z
" transform="scale(0.015625)"/>
      <path id="DejaVuSans-Oblique-65" d="M 3078 2063 
Q 3088 2113 3092 2166 
Q 3097 2219 3097 2272 
Q 3097 2653 2873 2875 
Q 2650 3097 2266 3097 
Q 1838 3097 1509 2826 
Q 1181 2556 1013 2059 
L 3078 2063 
z
M 3578 1613 
L 903 1613 
Q 884 1494 878 1425 
Q 872 1356 872 1306 
Q 872 872 1139 634 
Q 1406 397 1894 397 
Q 2269 397 2603 481 
Q 2938 566 3225 728 
L 3116 159 
Q 2806 34 2476 -28 
Q 2147 -91 1806 -91 
Q 1078 -91 686 257 
Q 294 606 294 1247 
Q 294 1794 489 2264 
Q 684 2734 1063 3103 
Q 1306 3334 1642 3459 
Q 1978 3584 2356 3584 
Q 2950 3584 3301 3228 
Q 3653 2872 3653 2272 
Q 3653 2128 3634 1964 
Q 3616 1800 3578 1613 
z
" transform="scale(0.015625)"/>
      <path id="DejaVuSans-Oblique-73" d="M 3200 3397 
L 3091 2853 
Q 2863 2978 2609 3040 
Q 2356 3103 2088 3103 
Q 1634 3103 1373 2948 
Q 1113 2794 1113 2528 
Q 1113 2219 1719 2053 
Q 1766 2041 1788 2034 
L 1972 1978 
Q 2547 1819 2739 1644 
Q 2931 1469 2931 1166 
Q 2931 609 2489 259 
Q 2047 -91 1331 -91 
Q 1053 -91 747 -37 
Q 441 16 72 128 
L 184 722 
Q 500 559 806 475 
Q 1113 391 1394 391 
Q 1816 391 2080 572 
Q 2344 753 2344 1031 
Q 2344 1331 1650 1516 
L 1591 1531 
L 1394 1581 
Q 956 1697 753 1886 
Q 550 2075 550 2369 
Q 550 2928 970 3256 
Q 1391 3584 2113 3584 
Q 2397 3584 2667 3537 
Q 2938 3491 3200 3397 
z
" transform="scale(0.015625)"/>
      <path id="DejaVuSans-36" d="M 2113 2584 
Q 1688 2584 1439 2293 
Q 1191 2003 1191 1497 
Q 1191 994 1439 701 
Q 1688 409 2113 409 
Q 2538 409 2786 701 
Q 3034 994 3034 1497 
Q 3034 2003 2786 2293 
Q 2538 2584 2113 2584 
z
M 3366 4563 
L 3366 3988 
Q 3128 4100 2886 4159 
Q 2644 4219 2406 4219 
Q 1781 4219 1451 3797 
Q 1122 3375 1075 2522 
Q 1259 2794 1537 2939 
Q 1816 3084 2150 3084 
Q 2853 3084 3261 2657 
Q 3669 2231 3669 1497 
Q 3669 778 3244 343 
Q 2819 -91 2113 -91 
Q 1303 -91 875 529 
Q 447 1150 447 2328 
Q 447 3434 972 4092 
Q 1497 4750 2381 4750 
Q 2619 4750 2861 4703 
Q 3103 4656 3366 4563 
z
" transform="scale(0.015625)"/>
      <path id="DejaVuSans-38" d="M 2034 2216 
Q 1584 2216 1326 1975 
Q 1069 1734 1069 1313 
Q 1069 891 1326 650 
Q 1584 409 2034 409 
Q 2484 409 2743 651 
Q 3003 894 3003 1313 
Q 3003 1734 2745 1975 
Q 2488 2216 2034 2216 
z
M 1403 2484 
Q 997 2584 770 2862 
Q 544 3141 544 3541 
Q 544 4100 942 4425 
Q 1341 4750 2034 4750 
Q 2731 4750 3128 4425 
Q 3525 4100 3525 3541 
Q 3525 3141 3298 2862 
Q 3072 2584 2669 2484 
Q 3125 2378 3379 2068 
Q 3634 1759 3634 1313 
Q 3634 634 3220 271 
Q 2806 -91 2034 -91 
Q 1263 -91 848 271 
Q 434 634 434 1313 
Q 434 1759 690 2068 
Q 947 2378 1403 2484 
z
M 1172 3481 
Q 1172 3119 1398 2916 
Q 1625 2713 2034 2713 
Q 2441 2713 2670 2916 
Q 2900 3119 2900 3481 
Q 2900 3844 2670 4047 
Q 2441 4250 2034 4250 
Q 1625 4250 1398 4047 
Q 1172 3844 1172 3481 
z
" transform="scale(0.015625)"/>
      <path id="DejaVuSans-47" d="M 3809 666 
L 3809 1919 
L 2778 1919 
L 2778 2438 
L 4434 2438 
L 4434 434 
Q 4069 175 3628 42 
Q 3188 -91 2688 -91 
Q 1594 -91 976 548 
Q 359 1188 359 2328 
Q 359 3472 976 4111 
Q 1594 4750 2688 4750 
Q 3144 4750 3555 4637 
Q 3966 4525 4313 4306 
L 4313 3634 
Q 3963 3931 3569 4081 
Q 3175 4231 2741 4231 
Q 1884 4231 1454 3753 
Q 1025 3275 1025 2328 
Q 1025 1384 1454 906 
Q 1884 428 2741 428 
Q 3075 428 3337 486 
Q 3600 544 3809 666 
z
" transform="scale(0.015625)"/>
      <path id="DejaVuSans-48" d="M 628 4666 
L 1259 4666 
L 1259 2753 
L 3553 2753 
L 3553 4666 
L 4184 4666 
L 4184 0 
L 3553 0 
L 3553 2222 
L 1259 2222 
L 1259 0 
L 628 0 
L 628 4666 
z
" transform="scale(0.015625)"/>
      <path id="DejaVuSans-7a" d="M 353 3500 
L 3084 3500 
L 3084 2975 
L 922 459 
L 3084 459 
L 3084 0 
L 275 0 
L 275 525 
L 2438 3041 
L 353 3041 
L 353 3500 
z
" transform="scale(0.015625)"/>
     </defs>
     <use xlink:href="#DejaVuSans-Oblique-66" transform="translate(0 0.015625)"/>
     <use xlink:href="#DejaVuSans-Oblique-72" transform="translate(35.205078 -16.390625) scale(0.7)"/>
     <use xlink:href="#DejaVuSans-Oblique-65" transform="translate(63.984375 -16.390625) scale(0.7)"/>
     <use xlink:href="#DejaVuSans-Oblique-73" transform="translate(107.050781 -16.390625) scale(0.7)"/>
     <use xlink:href="#DejaVuSans-3a" transform="translate(146.254883 0.015625)"/>
     <use xlink:href="#DejaVuSans-20" transform="translate(179.946289 0.015625)"/>
     <use xlink:href="#DejaVuSans-36" transform="translate(211.733398 0.015625)"/>
     <use xlink:href="#DejaVuSans-2e" transform="translate(275.356445 0.015625)"/>
     <use xlink:href="#DejaVuSans-30" transform="translate(307.143555 0.015625)"/>
     <use xlink:href="#DejaVuSans-30" transform="translate(370.766602 0.015625)"/>
     <use xlink:href="#DejaVuSans-38" transform="translate(434.389648 0.015625)"/>
     <use xlink:href="#DejaVuSans-30" transform="translate(498.012695 0.015625)"/>
     <use xlink:href="#DejaVuSans-34" transform="translate(561.635742 0.015625)"/>
     <use xlink:href="#DejaVuSans-34" transform="translate(625.258789 0.015625)"/>
     <use xlink:href="#DejaVuSans-39" transform="translate(688.881836 0.015625)"/>
     <use xlink:href="#DejaVuSans-b1" transform="translate(752.504883 0.015625)"/>
     <use xlink:href="#DejaVuSans-36" transform="translate(836.293945 0.015625)"/>
     <use xlink:href="#DejaVuSans-2e" transform="translate(899.916992 0.015625)"/>
     <use xlink:href="#DejaVuSans-30" transform="translate(931.704102 0.015625)"/>
     <use xlink:href="#DejaVuSans-65" transform="translate(995.327148 0.015625)"/>
     <use xlink:href="#DejaVuSans-2d" transform="translate(1056.850586 0.015625)"/>
     <use xlink:href="#DejaVuSans-30" transform="translate(1092.93457 0.015625)"/>
     <use xlink:href="#DejaVuSans-36" transform="translate(1156.557617 0.015625)"/>
     <use xlink:href="#DejaVuSans-20" transform="translate(1220.180664 0.015625)"/>
     <use xlink:href="#DejaVuSans-47" transform="translate(1251.967773 0.015625)"/>
     <use xlink:href="#DejaVuSans-48" transform="translate(1329.458008 0.015625)"/>
     <use xlink:href="#DejaVuSans-7a" transform="translate(1404.65332 0.015625)"/>
    </g>
   </g>
  </g>
  <g id="axes_2">
   <g id="patch_8">
    <path d="M 44.210938 307.872 
L 401.330938 307.872 
L 401.330938 186.912 
L 44.210938 186.912 
z
" style="fill: #ffffff"/>
   </g>
   <g id="matplotlib.axis_3">
    <g id="xtick_6">
     <g id="line2d_13">
      <g>
       <use xlink:href="#m64147b62e6" x="92.909119" y="307.872" style="stroke: #000000; stroke-width: 0.8"/>
      </g>
     </g>
     <g id="text_8">
      <!-- -20 -->
      <g transform="translate(84.742713 322.470438) scale(0.1 -0.1)">
       <use xlink:href="#DejaVuSans-2d"/>
       <use xlink:href="#DejaVuSans-32" x="36.083984"/>
       <use xlink:href="#DejaVuSans-30" x="99.707031"/>
      </g>
     </g>
    </g>
    <g id="xtick_7">
     <g id="line2d_14">
      <g>
       <use xlink:href="#m64147b62e6" x="157.840028" y="307.872" style="stroke: #000000; stroke-width: 0.8"/>
      </g>
     </g>
     <g id="text_9">
      <!-- -10 -->
      <g transform="translate(149.673622 322.470438) scale(0.1 -0.1)">
       <use xlink:href="#DejaVuSans-2d"/>
       <use xlink:href="#DejaVuSans-31" x="36.083984"/>
       <use xlink:href="#DejaVuSans-30" x="99.707031"/>
      </g>
     </g>
    </g>
    <g id="xtick_8">
     <g id="line2d_15">
      <g>
       <use xlink:href="#m64147b62e6" x="222.770937" y="307.872" style="stroke: #000000; stroke-width: 0.8"/>
      </g>
     </g>
     <g id="text_10">
      <!-- 0 -->
      <g transform="translate(219.589687 322.470438) scale(0.1 -0.1)">
       <use xlink:href="#DejaVuSans-30"/>
      </g>
     </g>
    </g>
    <g id="xtick_9">
     <g id="line2d_16">
      <g>
       <use xlink:href="#m64147b62e6" x="287.701847" y="307.872" style="stroke: #000000; stroke-width: 0.8"/>
      </g>
     </g>
     <g id="text_11">
      <!-- 10 -->
      <g transform="translate(281.339347 322.470438) scale(0.1 -0.1)">
       <use xlink:href="#DejaVuSans-31"/>
       <use xlink:href="#DejaVuSans-30" x="63.623047"/>
      </g>
     </g>
    </g>
    <g id="xtick_10">
     <g id="line2d_17">
      <g>
       <use xlink:href="#m64147b62e6" x="352.632756" y="307.872" style="stroke: #000000; stroke-width: 0.8"/>
      </g>
     </g>
     <g id="text_12">
      <!-- 20 -->
      <g transform="translate(346.270256 322.470438) scale(0.1 -0.1)">
       <use xlink:href="#DejaVuSans-32"/>
       <use xlink:href="#DejaVuSans-30" x="63.623047"/>
      </g>
     </g>
    </g>
    <g id="text_13">
     <!-- Frequency [MHz] -->
     <g transform="translate(180.752187 336.148562) scale(0.1 -0.1)">
      <defs>
       <path id="DejaVuSans-46" d="M 628 4666 
L 3309 4666 
L 3309 4134 
L 1259 4134 
L 1259 2759 
L 3109 2759 
L 3109 2228 
L 1259 2228 
L 1259 0 
L 628 0 
L 628 4666 
z
" transform="scale(0.015625)"/>
       <path id="DejaVuSans-71" d="M 947 1747 
Q 947 1113 1208 752 
Q 1469 391 1925 391 
Q 2381 391 2643 752 
Q 2906 1113 2906 1747 
Q 2906 2381 2643 2742 
Q 2381 3103 1925 3103 
Q 1469 3103 1208 2742 
Q 947 2381 947 1747 
z
M 2906 525 
Q 2725 213 2448 61 
Q 2172 -91 1784 -91 
Q 1150 -91 751 415 
Q 353 922 353 1747 
Q 353 2572 751 3078 
Q 1150 3584 1784 3584 
Q 2172 3584 2448 3432 
Q 2725 3281 2906 2969 
L 2906 3500 
L 3481 3500 
L 3481 -1331 
L 2906 -1331 
L 2906 525 
z
" transform="scale(0.015625)"/>
       <path id="DejaVuSans-6e" d="M 3513 2113 
L 3513 0 
L 2938 0 
L 2938 2094 
Q 2938 2591 2744 2837 
Q 2550 3084 2163 3084 
Q 1697 3084 1428 2787 
Q 1159 2491 1159 1978 
L 1159 0 
L 581 0 
L 581 3500 
L 1159 3500 
L 1159 2956 
Q 1366 3272 1645 3428 
Q 1925 3584 2291 3584 
Q 2894 3584 3203 3211 
Q 3513 2838 3513 2113 
z
" transform="scale(0.015625)"/>
       <path id="DejaVuSans-63" d="M 3122 3366 
L 3122 2828 
Q 2878 2963 2633 3030 
Q 2388 3097 2138 3097 
Q 1578 3097 1268 2742 
Q 959 2388 959 1747 
Q 959 1106 1268 751 
Q 1578 397 2138 397 
Q 2388 397 2633 464 
Q 2878 531 3122 666 
L 3122 134 
Q 2881 22 2623 -34 
Q 2366 -91 2075 -91 
Q 1284 -91 818 406 
Q 353 903 353 1747 
Q 353 2603 823 3093 
Q 1294 3584 2113 3584 
Q 2378 3584 2631 3529 
Q 2884 3475 3122 3366 
z
" transform="scale(0.015625)"/>
       <path id="DejaVuSans-4d" d="M 628 4666 
L 1569 4666 
L 2759 1491 
L 3956 4666 
L 4897 4666 
L 4897 0 
L 4281 0 
L 4281 4097 
L 3078 897 
L 2444 897 
L 1241 4097 
L 1241 0 
L 628 0 
L 628 4666 
z
" transform="scale(0.015625)"/>
      </defs>
      <use xlink:href="#DejaVuSans-46"/>
      <use xlink:href="#DejaVuSans-72" x="50.269531"/>
      <use xlink:href="#DejaVuSans-65" x="89.132812"/>
      <use xlink:href="#DejaVuSans-71" x="150.65625"/>
      <use xlink:href="#DejaVuSans-75" x="214.132812"/>
      <use xlink:href="#DejaVuSans-65" x="277.511719"/>
      <use xlink:href="#DejaVuSans-6e" x="339.035156"/>
      <use xlink:href="#DejaVuSans-63" x="402.414062"/>
      <use xlink:href="#DejaVuSans-79" x="457.394531"/>
      <use xlink:href="#DejaVuSans-20" x="516.574219"/>
      <use xlink:href="#DejaVuSans-5b" x="548.361328"/>
      <use xlink:href="#DejaVuSans-4d" x="587.375"/>
      <use xlink:href="#DejaVuSans-48" x="673.654297"/>
      <use xlink:href="#DejaVuSans-7a" x="748.849609"/>
      <use xlink:href="#DejaVuSans-5d" x="801.339844"/>
     </g>
    </g>
    <g id="text_14">
     <!-- +6 GHz -->
     <g transform="translate(362.893438 335.148562) scale(0.1 -0.1)">
      <defs>
       <path id="DejaVuSans-2b" d="M 2944 4013 
L 2944 2272 
L 4684 2272 
L 4684 1741 
L 2944 1741 
L 2944 0 
L 2419 0 
L 2419 1741 
L 678 1741 
L 678 2272 
L 2419 2272 
L 2419 4013 
L 2944 4013 
z
" transform="scale(0.015625)"/>
      </defs>
      <use xlink:href="#DejaVuSans-2b"/>
      <use xlink:href="#DejaVuSans-36" x="83.789062"/>
      <use xlink:href="#DejaVuSans-20" x="147.412109"/>
      <use xlink:href="#DejaVuSans-47" x="179.199219"/>
      <use xlink:href="#DejaVuSans-48" x="256.689453"/>
      <use xlink:href="#DejaVuSans-7a" x="331.884766"/>
     </g>
    </g>
   </g>
   <g id="matplotlib.axis_4">
    <g id="ytick_6">
     <g id="line2d_18">
      <g>
       <use xlink:href="#m4871fe2c53" x="44.210938" y="297.167057" style="stroke: #000000; stroke-width: 0.8"/>
      </g>
     </g>
     <g id="text_15">
      <!-- -10 -->
      <g transform="translate(20.878125 300.966276) scale(0.1 -0.1)">
       <use xlink:href="#DejaVuSans-2d"/>
       <use xlink:href="#DejaVuSans-31" x="36.083984"/>
       <use xlink:href="#DejaVuSans-30" x="99.707031"/>
      </g>
     </g>
    </g>
    <g id="ytick_7">
     <g id="line2d_19">
      <g>
       <use xlink:href="#m4871fe2c53" x="44.210938" y="261.561268" style="stroke: #000000; stroke-width: 0.8"/>
      </g>
     </g>
     <g id="text_16">
      <!-- -5 -->
      <g transform="translate(27.240625 265.360486) scale(0.1 -0.1)">
       <use xlink:href="#DejaVuSans-2d"/>
       <use xlink:href="#DejaVuSans-35" x="36.083984"/>
      </g>
     </g>
    </g>
    <g id="ytick_8">
     <g id="line2d_20">
      <g>
       <use xlink:href="#m4871fe2c53" x="44.210938" y="225.955478" style="stroke: #000000; stroke-width: 0.8"/>
      </g>
     </g>
     <g id="text_17">
      <!-- 0 -->
      <g transform="translate(30.848437 229.754697) scale(0.1 -0.1)">
       <use xlink:href="#DejaVuSans-30"/>
      </g>
     </g>
    </g>
    <g id="ytick_9">
     <g id="line2d_21">
      <g>
       <use xlink:href="#m4871fe2c53" x="44.210938" y="190.349689" style="stroke: #000000; stroke-width: 0.8"/>
      </g>
     </g>
     <g id="text_18">
      <!-- 5 -->
      <g transform="translate(30.848437 194.148907) scale(0.1 -0.1)">
       <use xlink:href="#DejaVuSans-35"/>
      </g>
     </g>
    </g>
    <g id="text_19">
     <!-- Im$(S_{21})$ [mV] -->
     <g transform="translate(14.798437 279.042) rotate(-90) scale(0.1 -0.1)">
      <defs>
       <path id="DejaVuSans-49" d="M 628 4666 
L 1259 4666 
L 1259 0 
L 628 0 
L 628 4666 
z
" transform="scale(0.015625)"/>
      </defs>
      <use xlink:href="#DejaVuSans-49" transform="translate(0 0.015625)"/>
      <use xlink:href="#DejaVuSans-6d" transform="translate(25.867188 0.015625)"/>
      <use xlink:href="#DejaVuSans-28" transform="translate(123.279297 0.015625)"/>
      <use xlink:href="#DejaVuSans-Oblique-53" transform="translate(162.292969 0.015625)"/>
      <use xlink:href="#DejaVuSans-32" transform="translate(225.769531 -16.390625) scale(0.7)"/>
      <use xlink:href="#DejaVuSans-31" transform="translate(270.305664 -16.390625) scale(0.7)"/>
      <use xlink:href="#DejaVuSans-29" transform="translate(317.576172 0.015625)"/>
      <use xlink:href="#DejaVuSans-20" transform="translate(356.589844 0.015625)"/>
      <use xlink:href="#DejaVuSans-5b" transform="translate(388.376953 0.015625)"/>
      <use xlink:href="#DejaVuSans-6d" transform="translate(427.390625 0.015625)"/>
      <use xlink:href="#DejaVuSans-56" transform="translate(524.802734 0.015625)"/>
      <use xlink:href="#DejaVuSans-5d" transform="translate(593.210938 0.015625)"/>
     </g>
    </g>
   </g>
   <g id="line2d_22">
    <path d="M 60.443665 234.173766 
L 62.075095 235.74862 
L 63.706525 237.484069 
L 65.337954 238.119581 
L 66.969384 239.925435 
L 68.600814 241.275522 
L 70.232244 242.78207 
L 71.863674 244.0599 
L 73.495104 245.60536 
L 75.126534 246.452894 
L 76.757964 248.271352 
L 83.283683 253.448481 
L 84.915113 254.934425 
L 88.177973 257.72351 
L 89.809403 258.744043 
L 91.440832 260.086854 
L 93.072262 261.156402 
L 94.703692 262.577708 
L 96.335122 263.675714 
L 97.966552 264.595018 
L 99.597982 265.774994 
L 104.492271 269.884061 
L 106.123701 270.427281 
L 107.755131 272.044534 
L 109.386561 273.05395 
L 112.649421 275.690278 
L 114.280851 276.306559 
L 117.54371 278.442913 
L 119.17514 279.810438 
L 120.80657 280.640991 
L 122.438 282.114596 
L 125.70086 283.752819 
L 127.33229 284.213709 
L 128.96372 285.814143 
L 130.595149 287.082706 
L 132.226579 288.08859 
L 133.858009 288.767495 
L 135.489439 290.199122 
L 138.752299 291.581514 
L 140.383729 291.773598 
L 142.015159 292.264462 
L 145.278018 293.500466 
L 148.540878 294.644631 
L 150.172308 295.558453 
L 151.803738 295.756337 
L 153.435168 296.509601 
L 155.066598 296.838005 
L 156.698027 297.318071 
L 158.329457 297.99874 
L 161.592317 298.907283 
L 163.223747 298.848732 
L 164.855177 299.272307 
L 166.486607 300.145308 
L 168.118037 300.243176 
L 169.749467 300.212985 
L 171.380896 300.295978 
L 173.012326 300.528254 
L 174.643756 300.960655 
L 176.275186 300.850962 
L 177.906616 300.994302 
L 179.538046 301.486093 
L 182.800906 301.167161 
L 184.432335 301.35372 
L 186.063765 301.749839 
L 189.326625 301.709751 
L 190.958055 301.779343 
L 192.589485 301.352905 
L 194.220915 301.514105 
L 195.852345 301.543273 
L 197.483774 301.099197 
L 202.378064 300.512018 
L 204.009494 300.589593 
L 205.640924 300.162028 
L 207.272354 300.388219 
L 208.903784 299.805504 
L 210.535213 298.767173 
L 212.166643 298.729008 
L 215.429503 297.710149 
L 217.060933 297.620049 
L 218.692363 297.256663 
L 220.323793 296.227541 
L 221.955223 295.856891 
L 226.849512 294.032386 
L 228.480942 293.508601 
L 230.112372 292.407598 
L 231.743802 291.642268 
L 233.375232 291.027433 
L 235.006662 289.827208 
L 236.638091 288.981359 
L 239.900951 286.958375 
L 241.532381 285.848658 
L 243.163811 284.331951 
L 248.058101 280.259882 
L 252.95239 274.423314 
L 257.84668 265.763481 
L 259.47811 262.071984 
L 261.10954 257.915259 
L 262.740969 253.010495 
L 264.372399 247.726663 
L 266.003829 241.049047 
L 269.266689 225.640855 
L 270.898119 218.678096 
L 272.529549 215.730247 
L 274.160979 219.486155 
L 275.792408 230.421509 
L 277.423838 243.99762 
L 279.055268 256.449786 
L 280.686698 266.344927 
L 282.318128 272.409009 
L 283.949558 275.899576 
L 285.580988 278.120155 
L 287.212418 278.849345 
L 288.843848 278.526475 
L 290.475277 277.904822 
L 292.106707 276.846057 
L 293.738137 275.434577 
L 295.369567 274.430974 
L 297.000997 272.977486 
L 298.632427 271.176024 
L 300.263857 270.125511 
L 303.526716 267.066631 
L 305.158146 265.236681 
L 308.421006 262.501963 
L 310.052436 260.392373 
L 313.315296 257.423466 
L 314.946726 256.15722 
L 316.578155 253.936579 
L 318.209585 252.907487 
L 321.472445 249.40359 
L 323.103875 247.717617 
L 324.735305 246.556553 
L 326.366735 244.494094 
L 327.998165 242.71043 
L 331.261024 239.597895 
L 332.892454 238.201974 
L 334.523884 236.304267 
L 341.049604 230.248444 
L 342.681033 228.285153 
L 344.312463 227.052952 
L 347.575323 223.680825 
L 349.206753 222.643633 
L 350.838183 221.255858 
L 352.469613 219.315979 
L 355.732472 216.550039 
L 357.363902 214.742439 
L 358.995332 213.906451 
L 360.626762 211.98576 
L 365.521052 207.622982 
L 367.152482 206.699246 
L 368.783911 205.492024 
L 372.046771 202.454305 
L 373.678201 201.197473 
L 375.309631 199.526915 
L 376.941061 198.361875 
L 380.203921 195.809682 
L 381.83535 194.887042 
L 385.09821 192.410182 
L 385.09821 192.410182 
" clip-path="url(#pe62a4dcdb1)" style="fill: none; stroke: #1f77b4; stroke-width: 1.5; stroke-linecap: square"/>
    <g clip-path="url(#pe62a4dcdb1)">
     <use xlink:href="#m039d4ffc7e" x="60.443665" y="234.173766" style="fill: #1f77b4; stroke: #1f77b4"/>
     <use xlink:href="#m039d4ffc7e" x="62.075095" y="235.74862" style="fill: #1f77b4; stroke: #1f77b4"/>
     <use xlink:href="#m039d4ffc7e" x="63.706525" y="237.484069" style="fill: #1f77b4; stroke: #1f77b4"/>
     <use xlink:href="#m039d4ffc7e" x="65.337954" y="238.119581" style="fill: #1f77b4; stroke: #1f77b4"/>
     <use xlink:href="#m039d4ffc7e" x="66.969384" y="239.925435" style="fill: #1f77b4; stroke: #1f77b4"/>
     <use xlink:href="#m039d4ffc7e" x="68.600814" y="241.275522" style="fill: #1f77b4; stroke: #1f77b4"/>
     <use xlink:href="#m039d4ffc7e" x="70.232244" y="242.78207" style="fill: #1f77b4; stroke: #1f77b4"/>
     <use xlink:href="#m039d4ffc7e" x="71.863674" y="244.0599" style="fill: #1f77b4; stroke: #1f77b4"/>
     <use xlink:href="#m039d4ffc7e" x="73.495104" y="245.60536" style="fill: #1f77b4; stroke: #1f77b4"/>
     <use xlink:href="#m039d4ffc7e" x="75.126534" y="246.452894" style="fill: #1f77b4; stroke: #1f77b4"/>
     <use xlink:href="#m039d4ffc7e" x="76.757964" y="248.271352" style="fill: #1f77b4; stroke: #1f77b4"/>
     <use xlink:href="#m039d4ffc7e" x="78.389393" y="249.545075" style="fill: #1f77b4; stroke: #1f77b4"/>
     <use xlink:href="#m039d4ffc7e" x="80.020823" y="250.749482" style="fill: #1f77b4; stroke: #1f77b4"/>
     <use xlink:href="#m039d4ffc7e" x="81.652253" y="252.232958" style="fill: #1f77b4; stroke: #1f77b4"/>
     <use xlink:href="#m039d4ffc7e" x="83.283683" y="253.448481" style="fill: #1f77b4; stroke: #1f77b4"/>
     <use xlink:href="#m039d4ffc7e" x="84.915113" y="254.934425" style="fill: #1f77b4; stroke: #1f77b4"/>
     <use xlink:href="#m039d4ffc7e" x="86.546543" y="256.259879" style="fill: #1f77b4; stroke: #1f77b4"/>
     <use xlink:href="#m039d4ffc7e" x="88.177973" y="257.72351" style="fill: #1f77b4; stroke: #1f77b4"/>
     <use xlink:href="#m039d4ffc7e" x="89.809403" y="258.744043" style="fill: #1f77b4; stroke: #1f77b4"/>
     <use xlink:href="#m039d4ffc7e" x="91.440832" y="260.086854" style="fill: #1f77b4; stroke: #1f77b4"/>
     <use xlink:href="#m039d4ffc7e" x="93.072262" y="261.156402" style="fill: #1f77b4; stroke: #1f77b4"/>
     <use xlink:href="#m039d4ffc7e" x="94.703692" y="262.577708" style="fill: #1f77b4; stroke: #1f77b4"/>
     <use xlink:href="#m039d4ffc7e" x="96.335122" y="263.675714" style="fill: #1f77b4; stroke: #1f77b4"/>
     <use xlink:href="#m039d4ffc7e" x="97.966552" y="264.595018" style="fill: #1f77b4; stroke: #1f77b4"/>
     <use xlink:href="#m039d4ffc7e" x="99.597982" y="265.774994" style="fill: #1f77b4; stroke: #1f77b4"/>
     <use xlink:href="#m039d4ffc7e" x="101.229412" y="267.163558" style="fill: #1f77b4; stroke: #1f77b4"/>
     <use xlink:href="#m039d4ffc7e" x="102.860842" y="268.50304" style="fill: #1f77b4; stroke: #1f77b4"/>
     <use xlink:href="#m039d4ffc7e" x="104.492271" y="269.884061" style="fill: #1f77b4; stroke: #1f77b4"/>
     <use xlink:href="#m039d4ffc7e" x="106.123701" y="270.427281" style="fill: #1f77b4; stroke: #1f77b4"/>
     <use xlink:href="#m039d4ffc7e" x="107.755131" y="272.044534" style="fill: #1f77b4; stroke: #1f77b4"/>
     <use xlink:href="#m039d4ffc7e" x="109.386561" y="273.05395" style="fill: #1f77b4; stroke: #1f77b4"/>
     <use xlink:href="#m039d4ffc7e" x="111.017991" y="274.302341" style="fill: #1f77b4; stroke: #1f77b4"/>
     <use xlink:href="#m039d4ffc7e" x="112.649421" y="275.690278" style="fill: #1f77b4; stroke: #1f77b4"/>
     <use xlink:href="#m039d4ffc7e" x="114.280851" y="276.306559" style="fill: #1f77b4; stroke: #1f77b4"/>
     <use xlink:href="#m039d4ffc7e" x="115.912281" y="277.347593" style="fill: #1f77b4; stroke: #1f77b4"/>
     <use xlink:href="#m039d4ffc7e" x="117.54371" y="278.442913" style="fill: #1f77b4; stroke: #1f77b4"/>
     <use xlink:href="#m039d4ffc7e" x="119.17514" y="279.810438" style="fill: #1f77b4; stroke: #1f77b4"/>
     <use xlink:href="#m039d4ffc7e" x="120.80657" y="280.640991" style="fill: #1f77b4; stroke: #1f77b4"/>
     <use xlink:href="#m039d4ffc7e" x="122.438" y="282.114596" style="fill: #1f77b4; stroke: #1f77b4"/>
     <use xlink:href="#m039d4ffc7e" x="124.06943" y="282.911216" style="fill: #1f77b4; stroke: #1f77b4"/>
     <use xlink:href="#m039d4ffc7e" x="125.70086" y="283.752819" style="fill: #1f77b4; stroke: #1f77b4"/>
     <use xlink:href="#m039d4ffc7e" x="127.33229" y="284.213709" style="fill: #1f77b4; stroke: #1f77b4"/>
     <use xlink:href="#m039d4ffc7e" x="128.96372" y="285.814143" style="fill: #1f77b4; stroke: #1f77b4"/>
     <use xlink:href="#m039d4ffc7e" x="130.595149" y="287.082706" style="fill: #1f77b4; stroke: #1f77b4"/>
     <use xlink:href="#m039d4ffc7e" x="132.226579" y="288.08859" style="fill: #1f77b4; stroke: #1f77b4"/>
     <use xlink:href="#m039d4ffc7e" x="133.858009" y="288.767495" style="fill: #1f77b4; stroke: #1f77b4"/>
     <use xlink:href="#m039d4ffc7e" x="135.489439" y="290.199122" style="fill: #1f77b4; stroke: #1f77b4"/>
     <use xlink:href="#m039d4ffc7e" x="137.120869" y="290.86801" style="fill: #1f77b4; stroke: #1f77b4"/>
     <use xlink:href="#m039d4ffc7e" x="138.752299" y="291.581514" style="fill: #1f77b4; stroke: #1f77b4"/>
     <use xlink:href="#m039d4ffc7e" x="140.383729" y="291.773598" style="fill: #1f77b4; stroke: #1f77b4"/>
     <use xlink:href="#m039d4ffc7e" x="142.015159" y="292.264462" style="fill: #1f77b4; stroke: #1f77b4"/>
     <use xlink:href="#m039d4ffc7e" x="143.646588" y="292.931483" style="fill: #1f77b4; stroke: #1f77b4"/>
     <use xlink:href="#m039d4ffc7e" x="145.278018" y="293.500466" style="fill: #1f77b4; stroke: #1f77b4"/>
     <use xlink:href="#m039d4ffc7e" x="146.909448" y="294.053243" style="fill: #1f77b4; stroke: #1f77b4"/>
     <use xlink:href="#m039d4ffc7e" x="148.540878" y="294.644631" style="fill: #1f77b4; stroke: #1f77b4"/>
     <use xlink:href="#m039d4ffc7e" x="150.172308" y="295.558453" style="fill: #1f77b4; stroke: #1f77b4"/>
     <use xlink:href="#m039d4ffc7e" x="151.803738" y="295.756337" style="fill: #1f77b4; stroke: #1f77b4"/>
     <use xlink:href="#m039d4ffc7e" x="153.435168" y="296.509601" style="fill: #1f77b4; stroke: #1f77b4"/>
     <use xlink:href="#m039d4ffc7e" x="155.066598" y="296.838005" style="fill: #1f77b4; stroke: #1f77b4"/>
     <use xlink:href="#m039d4ffc7e" x="156.698027" y="297.318071" style="fill: #1f77b4; stroke: #1f77b4"/>
     <use xlink:href="#m039d4ffc7e" x="158.329457" y="297.99874" style="fill: #1f77b4; stroke: #1f77b4"/>
     <use xlink:href="#m039d4ffc7e" x="159.960887" y="298.407701" style="fill: #1f77b4; stroke: #1f77b4"/>
     <use xlink:href="#m039d4ffc7e" x="161.592317" y="298.907283" style="fill: #1f77b4; stroke: #1f77b4"/>
     <use xlink:href="#m039d4ffc7e" x="163.223747" y="298.848732" style="fill: #1f77b4; stroke: #1f77b4"/>
     <use xlink:href="#m039d4ffc7e" x="164.855177" y="299.272307" style="fill: #1f77b4; stroke: #1f77b4"/>
     <use xlink:href="#m039d4ffc7e" x="166.486607" y="300.145308" style="fill: #1f77b4; stroke: #1f77b4"/>
     <use xlink:href="#m039d4ffc7e" x="168.118037" y="300.243176" style="fill: #1f77b4; stroke: #1f77b4"/>
     <use xlink:href="#m039d4ffc7e" x="169.749467" y="300.212985" style="fill: #1f77b4; stroke: #1f77b4"/>
     <use xlink:href="#m039d4ffc7e" x="171.380896" y="300.295978" style="fill: #1f77b4; stroke: #1f77b4"/>
     <use xlink:href="#m039d4ffc7e" x="173.012326" y="300.528254" style="fill: #1f77b4; stroke: #1f77b4"/>
     <use xlink:href="#m039d4ffc7e" x="174.643756" y="300.960655" style="fill: #1f77b4; stroke: #1f77b4"/>
     <use xlink:href="#m039d4ffc7e" x="176.275186" y="300.850962" style="fill: #1f77b4; stroke: #1f77b4"/>
     <use xlink:href="#m039d4ffc7e" x="177.906616" y="300.994302" style="fill: #1f77b4; stroke: #1f77b4"/>
     <use xlink:href="#m039d4ffc7e" x="179.538046" y="301.486093" style="fill: #1f77b4; stroke: #1f77b4"/>
     <use xlink:href="#m039d4ffc7e" x="181.169476" y="301.278656" style="fill: #1f77b4; stroke: #1f77b4"/>
     <use xlink:href="#m039d4ffc7e" x="182.800906" y="301.167161" style="fill: #1f77b4; stroke: #1f77b4"/>
     <use xlink:href="#m039d4ffc7e" x="184.432335" y="301.35372" style="fill: #1f77b4; stroke: #1f77b4"/>
     <use xlink:href="#m039d4ffc7e" x="186.063765" y="301.749839" style="fill: #1f77b4; stroke: #1f77b4"/>
     <use xlink:href="#m039d4ffc7e" x="187.695195" y="301.715339" style="fill: #1f77b4; stroke: #1f77b4"/>
     <use xlink:href="#m039d4ffc7e" x="189.326625" y="301.709751" style="fill: #1f77b4; stroke: #1f77b4"/>
     <use xlink:href="#m039d4ffc7e" x="190.958055" y="301.779343" style="fill: #1f77b4; stroke: #1f77b4"/>
     <use xlink:href="#m039d4ffc7e" x="192.589485" y="301.352905" style="fill: #1f77b4; stroke: #1f77b4"/>
     <use xlink:href="#m039d4ffc7e" x="194.220915" y="301.514105" style="fill: #1f77b4; stroke: #1f77b4"/>
     <use xlink:href="#m039d4ffc7e" x="195.852345" y="301.543273" style="fill: #1f77b4; stroke: #1f77b4"/>
     <use xlink:href="#m039d4ffc7e" x="197.483774" y="301.099197" style="fill: #1f77b4; stroke: #1f77b4"/>
     <use xlink:href="#m039d4ffc7e" x="199.115204" y="300.88566" style="fill: #1f77b4; stroke: #1f77b4"/>
     <use xlink:href="#m039d4ffc7e" x="200.746634" y="300.601332" style="fill: #1f77b4; stroke: #1f77b4"/>
     <use xlink:href="#m039d4ffc7e" x="202.378064" y="300.512018" style="fill: #1f77b4; stroke: #1f77b4"/>
     <use xlink:href="#m039d4ffc7e" x="204.009494" y="300.589593" style="fill: #1f77b4; stroke: #1f77b4"/>
     <use xlink:href="#m039d4ffc7e" x="205.640924" y="300.162028" style="fill: #1f77b4; stroke: #1f77b4"/>
     <use xlink:href="#m039d4ffc7e" x="207.272354" y="300.388219" style="fill: #1f77b4; stroke: #1f77b4"/>
     <use xlink:href="#m039d4ffc7e" x="208.903784" y="299.805504" style="fill: #1f77b4; stroke: #1f77b4"/>
     <use xlink:href="#m039d4ffc7e" x="210.535213" y="298.767173" style="fill: #1f77b4; stroke: #1f77b4"/>
     <use xlink:href="#m039d4ffc7e" x="212.166643" y="298.729008" style="fill: #1f77b4; stroke: #1f77b4"/>
     <use xlink:href="#m039d4ffc7e" x="213.798073" y="298.272865" style="fill: #1f77b4; stroke: #1f77b4"/>
     <use xlink:href="#m039d4ffc7e" x="215.429503" y="297.710149" style="fill: #1f77b4; stroke: #1f77b4"/>
     <use xlink:href="#m039d4ffc7e" x="217.060933" y="297.620049" style="fill: #1f77b4; stroke: #1f77b4"/>
     <use xlink:href="#m039d4ffc7e" x="218.692363" y="297.256663" style="fill: #1f77b4; stroke: #1f77b4"/>
     <use xlink:href="#m039d4ffc7e" x="220.323793" y="296.227541" style="fill: #1f77b4; stroke: #1f77b4"/>
     <use xlink:href="#m039d4ffc7e" x="221.955223" y="295.856891" style="fill: #1f77b4; stroke: #1f77b4"/>
     <use xlink:href="#m039d4ffc7e" x="223.586652" y="295.21167" style="fill: #1f77b4; stroke: #1f77b4"/>
     <use xlink:href="#m039d4ffc7e" x="225.218082" y="294.601941" style="fill: #1f77b4; stroke: #1f77b4"/>
     <use xlink:href="#m039d4ffc7e" x="226.849512" y="294.032386" style="fill: #1f77b4; stroke: #1f77b4"/>
     <use xlink:href="#m039d4ffc7e" x="228.480942" y="293.508601" style="fill: #1f77b4; stroke: #1f77b4"/>
     <use xlink:href="#m039d4ffc7e" x="230.112372" y="292.407598" style="fill: #1f77b4; stroke: #1f77b4"/>
     <use xlink:href="#m039d4ffc7e" x="231.743802" y="291.642268" style="fill: #1f77b4; stroke: #1f77b4"/>
     <use xlink:href="#m039d4ffc7e" x="233.375232" y="291.027433" style="fill: #1f77b4; stroke: #1f77b4"/>
     <use xlink:href="#m039d4ffc7e" x="235.006662" y="289.827208" style="fill: #1f77b4; stroke: #1f77b4"/>
     <use xlink:href="#m039d4ffc7e" x="236.638091" y="288.981359" style="fill: #1f77b4; stroke: #1f77b4"/>
     <use xlink:href="#m039d4ffc7e" x="238.269521" y="287.990925" style="fill: #1f77b4; stroke: #1f77b4"/>
     <use xlink:href="#m039d4ffc7e" x="239.900951" y="286.958375" style="fill: #1f77b4; stroke: #1f77b4"/>
     <use xlink:href="#m039d4ffc7e" x="241.532381" y="285.848658" style="fill: #1f77b4; stroke: #1f77b4"/>
     <use xlink:href="#m039d4ffc7e" x="243.163811" y="284.331951" style="fill: #1f77b4; stroke: #1f77b4"/>
     <use xlink:href="#m039d4ffc7e" x="244.795241" y="282.985984" style="fill: #1f77b4; stroke: #1f77b4"/>
     <use xlink:href="#m039d4ffc7e" x="246.426671" y="281.643973" style="fill: #1f77b4; stroke: #1f77b4"/>
     <use xlink:href="#m039d4ffc7e" x="248.058101" y="280.259882" style="fill: #1f77b4; stroke: #1f77b4"/>
     <use xlink:href="#m039d4ffc7e" x="249.68953" y="278.345426" style="fill: #1f77b4; stroke: #1f77b4"/>
     <use xlink:href="#m039d4ffc7e" x="251.32096" y="276.315888" style="fill: #1f77b4; stroke: #1f77b4"/>
     <use xlink:href="#m039d4ffc7e" x="252.95239" y="274.423314" style="fill: #1f77b4; stroke: #1f77b4"/>
     <use xlink:href="#m039d4ffc7e" x="254.58382" y="271.578836" style="fill: #1f77b4; stroke: #1f77b4"/>
     <use xlink:href="#m039d4ffc7e" x="256.21525" y="268.798293" style="fill: #1f77b4; stroke: #1f77b4"/>
     <use xlink:href="#m039d4ffc7e" x="257.84668" y="265.763481" style="fill: #1f77b4; stroke: #1f77b4"/>
     <use xlink:href="#m039d4ffc7e" x="259.47811" y="262.071984" style="fill: #1f77b4; stroke: #1f77b4"/>
     <use xlink:href="#m039d4ffc7e" x="261.10954" y="257.915259" style="fill: #1f77b4; stroke: #1f77b4"/>
     <use xlink:href="#m039d4ffc7e" x="262.740969" y="253.010495" style="fill: #1f77b4; stroke: #1f77b4"/>
     <use xlink:href="#m039d4ffc7e" x="264.372399" y="247.726663" style="fill: #1f77b4; stroke: #1f77b4"/>
     <use xlink:href="#m039d4ffc7e" x="266.003829" y="241.049047" style="fill: #1f77b4; stroke: #1f77b4"/>
     <use xlink:href="#m039d4ffc7e" x="267.635259" y="233.399273" style="fill: #1f77b4; stroke: #1f77b4"/>
     <use xlink:href="#m039d4ffc7e" x="269.266689" y="225.640855" style="fill: #1f77b4; stroke: #1f77b4"/>
     <use xlink:href="#m039d4ffc7e" x="270.898119" y="218.678096" style="fill: #1f77b4; stroke: #1f77b4"/>
     <use xlink:href="#m039d4ffc7e" x="272.529549" y="215.730247" style="fill: #1f77b4; stroke: #1f77b4"/>
     <use xlink:href="#m039d4ffc7e" x="274.160979" y="219.486155" style="fill: #1f77b4; stroke: #1f77b4"/>
     <use xlink:href="#m039d4ffc7e" x="275.792408" y="230.421509" style="fill: #1f77b4; stroke: #1f77b4"/>
     <use xlink:href="#m039d4ffc7e" x="277.423838" y="243.99762" style="fill: #1f77b4; stroke: #1f77b4"/>
     <use xlink:href="#m039d4ffc7e" x="279.055268" y="256.449786" style="fill: #1f77b4; stroke: #1f77b4"/>
     <use xlink:href="#m039d4ffc7e" x="280.686698" y="266.344927" style="fill: #1f77b4; stroke: #1f77b4"/>
     <use xlink:href="#m039d4ffc7e" x="282.318128" y="272.409009" style="fill: #1f77b4; stroke: #1f77b4"/>
     <use xlink:href="#m039d4ffc7e" x="283.949558" y="275.899576" style="fill: #1f77b4; stroke: #1f77b4"/>
     <use xlink:href="#m039d4ffc7e" x="285.580988" y="278.120155" style="fill: #1f77b4; stroke: #1f77b4"/>
     <use xlink:href="#m039d4ffc7e" x="287.212418" y="278.849345" style="fill: #1f77b4; stroke: #1f77b4"/>
     <use xlink:href="#m039d4ffc7e" x="288.843848" y="278.526475" style="fill: #1f77b4; stroke: #1f77b4"/>
     <use xlink:href="#m039d4ffc7e" x="290.475277" y="277.904822" style="fill: #1f77b4; stroke: #1f77b4"/>
     <use xlink:href="#m039d4ffc7e" x="292.106707" y="276.846057" style="fill: #1f77b4; stroke: #1f77b4"/>
     <use xlink:href="#m039d4ffc7e" x="293.738137" y="275.434577" style="fill: #1f77b4; stroke: #1f77b4"/>
     <use xlink:href="#m039d4ffc7e" x="295.369567" y="274.430974" style="fill: #1f77b4; stroke: #1f77b4"/>
     <use xlink:href="#m039d4ffc7e" x="297.000997" y="272.977486" style="fill: #1f77b4; stroke: #1f77b4"/>
     <use xlink:href="#m039d4ffc7e" x="298.632427" y="271.176024" style="fill: #1f77b4; stroke: #1f77b4"/>
     <use xlink:href="#m039d4ffc7e" x="300.263857" y="270.125511" style="fill: #1f77b4; stroke: #1f77b4"/>
     <use xlink:href="#m039d4ffc7e" x="301.895287" y="268.662941" style="fill: #1f77b4; stroke: #1f77b4"/>
     <use xlink:href="#m039d4ffc7e" x="303.526716" y="267.066631" style="fill: #1f77b4; stroke: #1f77b4"/>
     <use xlink:href="#m039d4ffc7e" x="305.158146" y="265.236681" style="fill: #1f77b4; stroke: #1f77b4"/>
     <use xlink:href="#m039d4ffc7e" x="306.789576" y="263.802378" style="fill: #1f77b4; stroke: #1f77b4"/>
     <use xlink:href="#m039d4ffc7e" x="308.421006" y="262.501963" style="fill: #1f77b4; stroke: #1f77b4"/>
     <use xlink:href="#m039d4ffc7e" x="310.052436" y="260.392373" style="fill: #1f77b4; stroke: #1f77b4"/>
     <use xlink:href="#m039d4ffc7e" x="311.683866" y="258.869362" style="fill: #1f77b4; stroke: #1f77b4"/>
     <use xlink:href="#m039d4ffc7e" x="313.315296" y="257.423466" style="fill: #1f77b4; stroke: #1f77b4"/>
     <use xlink:href="#m039d4ffc7e" x="314.946726" y="256.15722" style="fill: #1f77b4; stroke: #1f77b4"/>
     <use xlink:href="#m039d4ffc7e" x="316.578155" y="253.936579" style="fill: #1f77b4; stroke: #1f77b4"/>
     <use xlink:href="#m039d4ffc7e" x="318.209585" y="252.907487" style="fill: #1f77b4; stroke: #1f77b4"/>
     <use xlink:href="#m039d4ffc7e" x="319.841015" y="251.072279" style="fill: #1f77b4; stroke: #1f77b4"/>
     <use xlink:href="#m039d4ffc7e" x="321.472445" y="249.40359" style="fill: #1f77b4; stroke: #1f77b4"/>
     <use xlink:href="#m039d4ffc7e" x="323.103875" y="247.717617" style="fill: #1f77b4; stroke: #1f77b4"/>
     <use xlink:href="#m039d4ffc7e" x="324.735305" y="246.556553" style="fill: #1f77b4; stroke: #1f77b4"/>
     <use xlink:href="#m039d4ffc7e" x="326.366735" y="244.494094" style="fill: #1f77b4; stroke: #1f77b4"/>
     <use xlink:href="#m039d4ffc7e" x="327.998165" y="242.71043" style="fill: #1f77b4; stroke: #1f77b4"/>
     <use xlink:href="#m039d4ffc7e" x="329.629594" y="241.127569" style="fill: #1f77b4; stroke: #1f77b4"/>
     <use xlink:href="#m039d4ffc7e" x="331.261024" y="239.597895" style="fill: #1f77b4; stroke: #1f77b4"/>
     <use xlink:href="#m039d4ffc7e" x="332.892454" y="238.201974" style="fill: #1f77b4; stroke: #1f77b4"/>
     <use xlink:href="#m039d4ffc7e" x="334.523884" y="236.304267" style="fill: #1f77b4; stroke: #1f77b4"/>
     <use xlink:href="#m039d4ffc7e" x="336.155314" y="234.813958" style="fill: #1f77b4; stroke: #1f77b4"/>
     <use xlink:href="#m039d4ffc7e" x="337.786744" y="233.202397" style="fill: #1f77b4; stroke: #1f77b4"/>
     <use xlink:href="#m039d4ffc7e" x="339.418174" y="231.695472" style="fill: #1f77b4; stroke: #1f77b4"/>
     <use xlink:href="#m039d4ffc7e" x="341.049604" y="230.248444" style="fill: #1f77b4; stroke: #1f77b4"/>
     <use xlink:href="#m039d4ffc7e" x="342.681033" y="228.285153" style="fill: #1f77b4; stroke: #1f77b4"/>
     <use xlink:href="#m039d4ffc7e" x="344.312463" y="227.052952" style="fill: #1f77b4; stroke: #1f77b4"/>
     <use xlink:href="#m039d4ffc7e" x="345.943893" y="225.387394" style="fill: #1f77b4; stroke: #1f77b4"/>
     <use xlink:href="#m039d4ffc7e" x="347.575323" y="223.680825" style="fill: #1f77b4; stroke: #1f77b4"/>
     <use xlink:href="#m039d4ffc7e" x="349.206753" y="222.643633" style="fill: #1f77b4; stroke: #1f77b4"/>
     <use xlink:href="#m039d4ffc7e" x="350.838183" y="221.255858" style="fill: #1f77b4; stroke: #1f77b4"/>
     <use xlink:href="#m039d4ffc7e" x="352.469613" y="219.315979" style="fill: #1f77b4; stroke: #1f77b4"/>
     <use xlink:href="#m039d4ffc7e" x="354.101043" y="217.909803" style="fill: #1f77b4; stroke: #1f77b4"/>
     <use xlink:href="#m039d4ffc7e" x="355.732472" y="216.550039" style="fill: #1f77b4; stroke: #1f77b4"/>
     <use xlink:href="#m039d4ffc7e" x="357.363902" y="214.742439" style="fill: #1f77b4; stroke: #1f77b4"/>
     <use xlink:href="#m039d4ffc7e" x="358.995332" y="213.906451" style="fill: #1f77b4; stroke: #1f77b4"/>
     <use xlink:href="#m039d4ffc7e" x="360.626762" y="211.98576" style="fill: #1f77b4; stroke: #1f77b4"/>
     <use xlink:href="#m039d4ffc7e" x="362.258192" y="210.55089" style="fill: #1f77b4; stroke: #1f77b4"/>
     <use xlink:href="#m039d4ffc7e" x="363.889622" y="209.09407" style="fill: #1f77b4; stroke: #1f77b4"/>
     <use xlink:href="#m039d4ffc7e" x="365.521052" y="207.622982" style="fill: #1f77b4; stroke: #1f77b4"/>
     <use xlink:href="#m039d4ffc7e" x="367.152482" y="206.699246" style="fill: #1f77b4; stroke: #1f77b4"/>
     <use xlink:href="#m039d4ffc7e" x="368.783911" y="205.492024" style="fill: #1f77b4; stroke: #1f77b4"/>
     <use xlink:href="#m039d4ffc7e" x="370.415341" y="203.977249" style="fill: #1f77b4; stroke: #1f77b4"/>
     <use xlink:href="#m039d4ffc7e" x="372.046771" y="202.454305" style="fill: #1f77b4; stroke: #1f77b4"/>
     <use xlink:href="#m039d4ffc7e" x="373.678201" y="201.197473" style="fill: #1f77b4; stroke: #1f77b4"/>
     <use xlink:href="#m039d4ffc7e" x="375.309631" y="199.526915" style="fill: #1f77b4; stroke: #1f77b4"/>
     <use xlink:href="#m039d4ffc7e" x="376.941061" y="198.361875" style="fill: #1f77b4; stroke: #1f77b4"/>
     <use xlink:href="#m039d4ffc7e" x="378.572491" y="197.051785" style="fill: #1f77b4; stroke: #1f77b4"/>
     <use xlink:href="#m039d4ffc7e" x="380.203921" y="195.809682" style="fill: #1f77b4; stroke: #1f77b4"/>
     <use xlink:href="#m039d4ffc7e" x="381.83535" y="194.887042" style="fill: #1f77b4; stroke: #1f77b4"/>
     <use xlink:href="#m039d4ffc7e" x="383.46678" y="193.6556" style="fill: #1f77b4; stroke: #1f77b4"/>
     <use xlink:href="#m039d4ffc7e" x="385.09821" y="192.410182" style="fill: #1f77b4; stroke: #1f77b4"/>
    </g>
   </g>
   <g id="line2d_23">
    <path d="M 60.443665 235.190822 
L 74.417784 246.730964 
L 84.49215 254.77792 
L 93.266597 261.511331 
L 101.066105 267.226817 
L 108.215655 272.204243 
L 115.040225 276.691441 
L 121.539815 280.700443 
L 127.714426 284.249637 
L 133.564058 287.362457 
L 139.413689 290.217821 
L 144.938341 292.66593 
L 150.138014 294.73956 
L 155.337686 296.581051 
L 160.537358 298.182403 
L 165.412051 299.458837 
L 170.286744 300.511607 
L 175.161437 301.334992 
L 180.03613 301.923401 
L 184.585843 302.25566 
L 189.135557 302.373711 
L 193.68527 302.272605 
L 198.234983 301.946876 
L 202.784697 301.39021 
L 207.33441 300.594993 
L 211.559144 299.634643 
L 215.783878 298.450459 
L 220.008612 297.029343 
L 223.908366 295.491963 
L 227.80812 293.718387 
L 231.382895 291.862461 
L 234.95767 289.756903 
L 238.207465 287.59215 
L 241.45726 285.144134 
L 244.382076 282.647732 
L 246.981912 280.141797 
L 249.256769 277.675599 
L 251.531625 274.892101 
L 253.481503 272.192156 
L 255.43138 269.129021 
L 257.381257 265.608842 
L 259.006155 262.23682 
L 260.631052 258.367409 
L 262.25595 253.886156 
L 263.880847 248.66297 
L 265.505745 242.577436 
L 267.130643 235.595469 
L 271.030397 218.149019 
L 271.680356 216.270408 
L 272.330315 215.182608 
L 272.655295 215.005576 
L 272.980274 215.106948 
L 273.305254 215.507248 
L 273.630233 216.221279 
L 274.280192 218.612956 
L 274.930151 222.240681 
L 275.90509 229.569864 
L 279.479865 259.506995 
L 280.454803 265.226108 
L 281.429742 269.590277 
L 282.40468 272.78025 
L 283.379619 275.013806 
L 284.354557 276.495852 
L 285.004517 277.153252 
L 285.654476 277.596728 
L 286.629414 277.937829 
L 287.604353 277.974626 
L 288.579291 277.781072 
L 289.879209 277.258954 
L 291.504107 276.310133 
L 293.453984 274.892664 
L 296.3788 272.44498 
L 300.928513 268.294109 
L 313.927694 255.982813 
L 332.126548 238.900126 
L 347.075606 225.160069 
L 358.774869 214.696801 
L 368.849234 205.982718 
L 377.623681 198.681799 
L 385.09821 192.717626 
L 385.09821 192.717626 
" clip-path="url(#pe62a4dcdb1)" style="fill: none; stroke: #d62728; stroke-width: 1.5; stroke-linecap: square"/>
   </g>
   <g id="patch_9">
    <path d="M 44.210938 307.872 
L 44.210938 186.912 
" style="fill: none; stroke: #000000; stroke-width: 0.8; stroke-linejoin: miter; stroke-linecap: square"/>
   </g>
   <g id="patch_10">
    <path d="M 401.330938 307.872 
L 401.330938 186.912 
" style="fill: none; stroke: #000000; stroke-width: 0.8; stroke-linejoin: miter; stroke-linecap: square"/>
   </g>
   <g id="patch_11">
    <path d="M 44.210938 307.872 
L 401.330937 307.872 
" style="fill: none; stroke: #000000; stroke-width: 0.8; stroke-linejoin: miter; stroke-linecap: square"/>
   </g>
   <g id="patch_12">
    <path d="M 44.210938 186.912 
L 401.330937 186.912 
" style="fill: none; stroke: #000000; stroke-width: 0.8; stroke-linejoin: miter; stroke-linecap: square"/>
   </g>
  </g>
  <g id="text_20">
   <!-- S21 One-tone -->
   <g transform="translate(175.76 16.318125) scale(0.12 -0.12)">
    <defs>
     <path id="DejaVuSans-4f" d="M 2522 4238 
Q 1834 4238 1429 3725 
Q 1025 3213 1025 2328 
Q 1025 1447 1429 934 
Q 1834 422 2522 422 
Q 3209 422 3611 934 
Q 4013 1447 4013 2328 
Q 4013 3213 3611 3725 
Q 3209 4238 2522 4238 
z
M 2522 4750 
Q 3503 4750 4090 4092 
Q 4678 3434 4678 2328 
Q 4678 1225 4090 567 
Q 3503 -91 2522 -91 
Q 1538 -91 948 565 
Q 359 1222 359 2328 
Q 359 3434 948 4092 
Q 1538 4750 2522 4750 
z
" transform="scale(0.015625)"/>
     <path id="DejaVuSans-74" d="M 1172 4494 
L 1172 3500 
L 2356 3500 
L 2356 3053 
L 1172 3053 
L 1172 1153 
Q 1172 725 1289 603 
Q 1406 481 1766 481 
L 2356 481 
L 2356 0 
L 1766 0 
Q 1100 0 847 248 
Q 594 497 594 1153 
L 594 3053 
L 172 3053 
L 172 3500 
L 594 3500 
L 594 4494 
L 1172 4494 
z
" transform="scale(0.015625)"/>
     <path id="DejaVuSans-6f" d="M 1959 3097 
Q 1497 3097 1228 2736 
Q 959 2375 959 1747 
Q 959 1119 1226 758 
Q 1494 397 1959 397 
Q 2419 397 2687 759 
Q 2956 1122 2956 1747 
Q 2956 2369 2687 2733 
Q 2419 3097 1959 3097 
z
M 1959 3584 
Q 2709 3584 3137 3096 
Q 3566 2609 3566 1747 
Q 3566 888 3137 398 
Q 2709 -91 1959 -91 
Q 1206 -91 779 398 
Q 353 888 353 1747 
Q 353 2609 779 3096 
Q 1206 3584 1959 3584 
z
" transform="scale(0.015625)"/>
    </defs>
    <use xlink:href="#DejaVuSans-53"/>
    <use xlink:href="#DejaVuSans-32" x="63.476562"/>
    <use xlink:href="#DejaVuSans-31" x="127.099609"/>
    <use xlink:href="#DejaVuSans-20" x="190.722656"/>
    <use xlink:href="#DejaVuSans-4f" x="222.509766"/>
    <use xlink:href="#DejaVuSans-6e" x="301.220703"/>
    <use xlink:href="#DejaVuSans-65" x="364.599609"/>
    <use xlink:href="#DejaVuSans-2d" x="426.123047"/>
    <use xlink:href="#DejaVuSans-74" x="462.207031"/>
    <use xlink:href="#DejaVuSans-6f" x="501.416016"/>
    <use xlink:href="#DejaVuSans-6e" x="562.597656"/>
    <use xlink:href="#DejaVuSans-65" x="625.976562"/>
   </g>
   <!-- tuid: 20240222-163155-335-cdbcdf -->
   <g transform="translate(109.923125 29.7555) scale(0.12 -0.12)">
    <defs>
     <path id="DejaVuSans-69" d="M 603 3500 
L 1178 3500 
L 1178 0 
L 603 0 
L 603 3500 
z
M 603 4863 
L 1178 4863 
L 1178 4134 
L 603 4134 
L 603 4863 
z
" transform="scale(0.015625)"/>
     <path id="DejaVuSans-64" d="M 2906 2969 
L 2906 4863 
L 3481 4863 
L 3481 0 
L 2906 0 
L 2906 525 
Q 2725 213 2448 61 
Q 2172 -91 1784 -91 
Q 1150 -91 751 415 
Q 353 922 353 1747 
Q 353 2572 751 3078 
Q 1150 3584 1784 3584 
Q 2172 3584 2448 3432 
Q 2725 3281 2906 2969 
z
M 947 1747 
Q 947 1113 1208 752 
Q 1469 391 1925 391 
Q 2381 391 2643 752 
Q 2906 1113 2906 1747 
Q 2906 2381 2643 2742 
Q 2381 3103 1925 3103 
Q 1469 3103 1208 2742 
Q 947 2381 947 1747 
z
" transform="scale(0.015625)"/>
     <path id="DejaVuSans-62" d="M 3116 1747 
Q 3116 2381 2855 2742 
Q 2594 3103 2138 3103 
Q 1681 3103 1420 2742 
Q 1159 2381 1159 1747 
Q 1159 1113 1420 752 
Q 1681 391 2138 391 
Q 2594 391 2855 752 
Q 3116 1113 3116 1747 
z
M 1159 2969 
Q 1341 3281 1617 3432 
Q 1894 3584 2278 3584 
Q 2916 3584 3314 3078 
Q 3713 2572 3713 1747 
Q 3713 922 3314 415 
Q 2916 -91 2278 -91 
Q 1894 -91 1617 61 
Q 1341 213 1159 525 
L 1159 0 
L 581 0 
L 581 4863 
L 1159 4863 
L 1159 2969 
z
" transform="scale(0.015625)"/>
     <path id="DejaVuSans-66" d="M 2375 4863 
L 2375 4384 
L 1825 4384 
Q 1516 4384 1395 4259 
Q 1275 4134 1275 3809 
L 1275 3500 
L 2222 3500 
L 2222 3053 
L 1275 3053 
L 1275 0 
L 697 0 
L 697 3053 
L 147 3053 
L 147 3500 
L 697 3500 
L 697 3744 
Q 697 4328 969 4595 
Q 1241 4863 1831 4863 
L 2375 4863 
z
" transform="scale(0.015625)"/>
    </defs>
    <use xlink:href="#DejaVuSans-74"/>
    <use xlink:href="#DejaVuSans-75" x="39.208984"/>
    <use xlink:href="#DejaVuSans-69" x="102.587891"/>
    <use xlink:href="#DejaVuSans-64" x="130.371094"/>
    <use xlink:href="#DejaVuSans-3a" x="193.847656"/>
    <use xlink:href="#DejaVuSans-20" x="227.539062"/>
    <use xlink:href="#DejaVuSans-32" x="259.326172"/>
    <use xlink:href="#DejaVuSans-30" x="322.949219"/>
    <use xlink:href="#DejaVuSans-32" x="386.572266"/>
    <use xlink:href="#DejaVuSans-34" x="450.195312"/>
    <use xlink:href="#DejaVuSans-30" x="513.818359"/>
    <use xlink:href="#DejaVuSans-32" x="577.441406"/>
    <use xlink:href="#DejaVuSans-32" x="641.064453"/>
    <use xlink:href="#DejaVuSans-32" x="704.6875"/>
    <use xlink:href="#DejaVuSans-2d" x="768.310547"/>
    <use xlink:href="#DejaVuSans-31" x="804.394531"/>
    <use xlink:href="#DejaVuSans-36" x="868.017578"/>
    <use xlink:href="#DejaVuSans-33" x="931.640625"/>
    <use xlink:href="#DejaVuSans-31" x="995.263672"/>
    <use xlink:href="#DejaVuSans-35" x="1058.886719"/>
    <use xlink:href="#DejaVuSans-35" x="1122.509766"/>
    <use xlink:href="#DejaVuSans-2d" x="1186.132812"/>
    <use xlink:href="#DejaVuSans-33" x="1222.216797"/>
    <use xlink:href="#DejaVuSans-33" x="1285.839844"/>
    <use xlink:href="#DejaVuSans-35" x="1349.462891"/>
    <use xlink:href="#DejaVuSans-2d" x="1413.085938"/>
    <use xlink:href="#DejaVuSans-63" x="1449.169922"/>
    <use xlink:href="#DejaVuSans-64" x="1504.150391"/>
    <use xlink:href="#DejaVuSans-62" x="1567.626953"/>
    <use xlink:href="#DejaVuSans-63" x="1631.103516"/>
    <use xlink:href="#DejaVuSans-64" x="1686.083984"/>
    <use xlink:href="#DejaVuSans-66" x="1749.560547"/>
   </g>
  </g>
 </g>
 <defs>
  <clipPath id="p4707c561b0">
   <rect x="44.210938" y="41.76" width="357.12" height="120.96"/>
  </clipPath>
  <clipPath id="pe62a4dcdb1">
   <rect x="44.210938" y="186.912" width="357.12" height="120.96"/>
  </clipPath>
 </defs>
</svg>
