<?xml version="1.0" encoding="utf-8" standalone="no"?>
<!DOCTYPE svg PUBLIC "-//W3C//DTD SVG 1.1//EN"
  "http://www.w3.org/Graphics/SVG/1.1/DTD/svg11.dtd">
<svg xmlns:xlink="http://www.w3.org/1999/xlink" width="640.6635pt" height="345.42825pt" viewBox="0 0 640.6635 345.42825" xmlns="http://www.w3.org/2000/svg" version="1.1">
 <metadata>
  <rdf:RDF xmlns:dc="http://purl.org/dc/elements/1.1/" xmlns:cc="http://creativecommons.org/ns#" xmlns:rdf="http://www.w3.org/1999/02/22-rdf-syntax-ns#">
   <cc:Work>
    <dc:type rdf:resource="http://purl.org/dc/dcmitype/StillImage"/>
    <dc:date>2024-03-04T16:27:07.988197</dc:date>
    <dc:format>image/svg+xml</dc:format>
    <dc:creator>
     <cc:Agent>
      <dc:title>Matplotlib v3.8.2, https://matplotlib.org/</dc:title>
     </cc:Agent>
    </dc:creator>
   </cc:Work>
  </rdf:RDF>
 </metadata>
 <defs>
  <style type="text/css">*{stroke-linejoin: round; stroke-linecap: butt}</style>
 </defs>
 <g id="figure_1">
  <g id="patch_1">
   <path d="M 0 345.42825 
L 640.6635 345.42825 
L 640.6635 -0 
L 0 -0 
L 0 345.42825 
z
" style="fill: none; opacity: 0"/>
  </g>
  <g id="axes_1">
   <g id="patch_2">
    <path d="M 40.603125 307.872 
L 397.723125 307.872 
L 397.723125 41.76 
L 40.603125 41.76 
z
" style="fill: #ffffff"/>
   </g>
   <g id="matplotlib.axis_1">
    <g id="xtick_1">
     <g id="line2d_1">
      <defs>
       <path id="ma2c79021d8" d="M 0 0 
L 0 3.5 
" style="stroke: #000000; stroke-width: 0.8"/>
      </defs>
      <g>
       <use xlink:href="#ma2c79021d8" x="68.586155" y="307.872" style="stroke: #000000; stroke-width: 0.8"/>
      </g>
     </g>
     <g id="text_1">
      <!-- 256 -->
      <g transform="translate(59.042405 322.470438) scale(0.1 -0.1)">
       <defs>
        <path id="DejaVuSans-32" d="M 1228 531 
L 3431 531 
L 3431 0 
L 469 0 
L 469 531 
Q 828 903 1448 1529 
Q 2069 2156 2228 2338 
Q 2531 2678 2651 2914 
Q 2772 3150 2772 3378 
Q 2772 3750 2511 3984 
Q 2250 4219 1831 4219 
Q 1534 4219 1204 4116 
Q 875 4013 500 3803 
L 500 4441 
Q 881 4594 1212 4672 
Q 1544 4750 1819 4750 
Q 2544 4750 2975 4387 
Q 3406 4025 3406 3419 
Q 3406 3131 3298 2873 
Q 3191 2616 2906 2266 
Q 2828 2175 2409 1742 
Q 1991 1309 1228 531 
z
" transform="scale(0.015625)"/>
        <path id="DejaVuSans-35" d="M 691 4666 
L 3169 4666 
L 3169 4134 
L 1269 4134 
L 1269 2991 
Q 1406 3038 1543 3061 
Q 1681 3084 1819 3084 
Q 2600 3084 3056 2656 
Q 3513 2228 3513 1497 
Q 3513 744 3044 326 
Q 2575 -91 1722 -91 
Q 1428 -91 1123 -41 
Q 819 9 494 109 
L 494 744 
Q 775 591 1075 516 
Q 1375 441 1709 441 
Q 2250 441 2565 725 
Q 2881 1009 2881 1497 
Q 2881 1984 2565 2268 
Q 2250 2553 1709 2553 
Q 1456 2553 1204 2497 
Q 953 2441 691 2322 
L 691 4666 
z
" transform="scale(0.015625)"/>
        <path id="DejaVuSans-36" d="M 2113 2584 
Q 1688 2584 1439 2293 
Q 1191 2003 1191 1497 
Q 1191 994 1439 701 
Q 1688 409 2113 409 
Q 2538 409 2786 701 
Q 3034 994 3034 1497 
Q 3034 2003 2786 2293 
Q 2538 2584 2113 2584 
z
M 3366 4563 
L 3366 3988 
Q 3128 4100 2886 4159 
Q 2644 4219 2406 4219 
Q 1781 4219 1451 3797 
Q 1122 3375 1075 2522 
Q 1259 2794 1537 2939 
Q 1816 3084 2150 3084 
Q 2853 3084 3261 2657 
Q 3669 2231 3669 1497 
Q 3669 778 3244 343 
Q 2819 -91 2113 -91 
Q 1303 -91 875 529 
Q 447 1150 447 2328 
Q 447 3434 972 4092 
Q 1497 4750 2381 4750 
Q 2619 4750 2861 4703 
Q 3103 4656 3366 4563 
z
" transform="scale(0.015625)"/>
       </defs>
       <use xlink:href="#DejaVuSans-32"/>
       <use xlink:href="#DejaVuSans-35" x="63.623047"/>
       <use xlink:href="#DejaVuSans-36" x="127.246094"/>
      </g>
     </g>
    </g>
    <g id="xtick_2">
     <g id="line2d_2">
      <g>
       <use xlink:href="#ma2c79021d8" x="122.695246" y="307.872" style="stroke: #000000; stroke-width: 0.8"/>
      </g>
     </g>
     <g id="text_2">
      <!-- 257 -->
      <g transform="translate(113.151496 322.470438) scale(0.1 -0.1)">
       <defs>
        <path id="DejaVuSans-37" d="M 525 4666 
L 3525 4666 
L 3525 4397 
L 1831 0 
L 1172 0 
L 2766 4134 
L 525 4134 
L 525 4666 
z
" transform="scale(0.015625)"/>
       </defs>
       <use xlink:href="#DejaVuSans-32"/>
       <use xlink:href="#DejaVuSans-35" x="63.623047"/>
       <use xlink:href="#DejaVuSans-37" x="127.246094"/>
      </g>
     </g>
    </g>
    <g id="xtick_3">
     <g id="line2d_3">
      <g>
       <use xlink:href="#ma2c79021d8" x="176.804337" y="307.872" style="stroke: #000000; stroke-width: 0.8"/>
      </g>
     </g>
     <g id="text_3">
      <!-- 258 -->
      <g transform="translate(167.260587 322.470438) scale(0.1 -0.1)">
       <defs>
        <path id="DejaVuSans-38" d="M 2034 2216 
Q 1584 2216 1326 1975 
Q 1069 1734 1069 1313 
Q 1069 891 1326 650 
Q 1584 409 2034 409 
Q 2484 409 2743 651 
Q 3003 894 3003 1313 
Q 3003 1734 2745 1975 
Q 2488 2216 2034 2216 
z
M 1403 2484 
Q 997 2584 770 2862 
Q 544 3141 544 3541 
Q 544 4100 942 4425 
Q 1341 4750 2034 4750 
Q 2731 4750 3128 4425 
Q 3525 4100 3525 3541 
Q 3525 3141 3298 2862 
Q 3072 2584 2669 2484 
Q 3125 2378 3379 2068 
Q 3634 1759 3634 1313 
Q 3634 634 3220 271 
Q 2806 -91 2034 -91 
Q 1263 -91 848 271 
Q 434 634 434 1313 
Q 434 1759 690 2068 
Q 947 2378 1403 2484 
z
M 1172 3481 
Q 1172 3119 1398 2916 
Q 1625 2713 2034 2713 
Q 2441 2713 2670 2916 
Q 2900 3119 2900 3481 
Q 2900 3844 2670 4047 
Q 2441 4250 2034 4250 
Q 1625 4250 1398 4047 
Q 1172 3844 1172 3481 
z
" transform="scale(0.015625)"/>
       </defs>
       <use xlink:href="#DejaVuSans-32"/>
       <use xlink:href="#DejaVuSans-35" x="63.623047"/>
       <use xlink:href="#DejaVuSans-38" x="127.246094"/>
      </g>
     </g>
    </g>
    <g id="xtick_4">
     <g id="line2d_4">
      <g>
       <use xlink:href="#ma2c79021d8" x="230.913428" y="307.872" style="stroke: #000000; stroke-width: 0.8"/>
      </g>
     </g>
     <g id="text_4">
      <!-- 259 -->
      <g transform="translate(221.369678 322.470438) scale(0.1 -0.1)">
       <defs>
        <path id="DejaVuSans-39" d="M 703 97 
L 703 672 
Q 941 559 1184 500 
Q 1428 441 1663 441 
Q 2288 441 2617 861 
Q 2947 1281 2994 2138 
Q 2813 1869 2534 1725 
Q 2256 1581 1919 1581 
Q 1219 1581 811 2004 
Q 403 2428 403 3163 
Q 403 3881 828 4315 
Q 1253 4750 1959 4750 
Q 2769 4750 3195 4129 
Q 3622 3509 3622 2328 
Q 3622 1225 3098 567 
Q 2575 -91 1691 -91 
Q 1453 -91 1209 -44 
Q 966 3 703 97 
z
M 1959 2075 
Q 2384 2075 2632 2365 
Q 2881 2656 2881 3163 
Q 2881 3666 2632 3958 
Q 2384 4250 1959 4250 
Q 1534 4250 1286 3958 
Q 1038 3666 1038 3163 
Q 1038 2656 1286 2365 
Q 1534 2075 1959 2075 
z
" transform="scale(0.015625)"/>
       </defs>
       <use xlink:href="#DejaVuSans-32"/>
       <use xlink:href="#DejaVuSans-35" x="63.623047"/>
       <use xlink:href="#DejaVuSans-39" x="127.246094"/>
      </g>
     </g>
    </g>
    <g id="xtick_5">
     <g id="line2d_5">
      <g>
       <use xlink:href="#ma2c79021d8" x="285.022519" y="307.872" style="stroke: #000000; stroke-width: 0.8"/>
      </g>
     </g>
     <g id="text_5">
      <!-- 260 -->
      <g transform="translate(275.478769 322.470438) scale(0.1 -0.1)">
       <defs>
        <path id="DejaVuSans-30" d="M 2034 4250 
Q 1547 4250 1301 3770 
Q 1056 3291 1056 2328 
Q 1056 1369 1301 889 
Q 1547 409 2034 409 
Q 2525 409 2770 889 
Q 3016 1369 3016 2328 
Q 3016 3291 2770 3770 
Q 2525 4250 2034 4250 
z
M 2034 4750 
Q 2819 4750 3233 4129 
Q 3647 3509 3647 2328 
Q 3647 1150 3233 529 
Q 2819 -91 2034 -91 
Q 1250 -91 836 529 
Q 422 1150 422 2328 
Q 422 3509 836 4129 
Q 1250 4750 2034 4750 
z
" transform="scale(0.015625)"/>
       </defs>
       <use xlink:href="#DejaVuSans-32"/>
       <use xlink:href="#DejaVuSans-36" x="63.623047"/>
       <use xlink:href="#DejaVuSans-30" x="127.246094"/>
      </g>
     </g>
    </g>
    <g id="xtick_6">
     <g id="line2d_6">
      <g>
       <use xlink:href="#ma2c79021d8" x="339.13161" y="307.872" style="stroke: #000000; stroke-width: 0.8"/>
      </g>
     </g>
     <g id="text_6">
      <!-- 261 -->
      <g transform="translate(329.58786 322.470438) scale(0.1 -0.1)">
       <defs>
        <path id="DejaVuSans-31" d="M 794 531 
L 1825 531 
L 1825 4091 
L 703 3866 
L 703 4441 
L 1819 4666 
L 2450 4666 
L 2450 531 
L 3481 531 
L 3481 0 
L 794 0 
L 794 531 
z
" transform="scale(0.015625)"/>
       </defs>
       <use xlink:href="#DejaVuSans-32"/>
       <use xlink:href="#DejaVuSans-36" x="63.623047"/>
       <use xlink:href="#DejaVuSans-31" x="127.246094"/>
      </g>
     </g>
    </g>
    <g id="xtick_7">
     <g id="line2d_7">
      <g>
       <use xlink:href="#ma2c79021d8" x="393.240701" y="307.872" style="stroke: #000000; stroke-width: 0.8"/>
      </g>
     </g>
     <g id="text_7">
      <!-- 262 -->
      <g transform="translate(383.696951 322.470438) scale(0.1 -0.1)">
       <use xlink:href="#DejaVuSans-32"/>
       <use xlink:href="#DejaVuSans-36" x="63.623047"/>
       <use xlink:href="#DejaVuSans-32" x="127.246094"/>
      </g>
     </g>
    </g>
    <g id="text_8">
     <!-- Frequency [MHz] -->
     <g transform="translate(177.144375 336.148562) scale(0.1 -0.1)">
      <defs>
       <path id="DejaVuSans-46" d="M 628 4666 
L 3309 4666 
L 3309 4134 
L 1259 4134 
L 1259 2759 
L 3109 2759 
L 3109 2228 
L 1259 2228 
L 1259 0 
L 628 0 
L 628 4666 
z
" transform="scale(0.015625)"/>
       <path id="DejaVuSans-72" d="M 2631 2963 
Q 2534 3019 2420 3045 
Q 2306 3072 2169 3072 
Q 1681 3072 1420 2755 
Q 1159 2438 1159 1844 
L 1159 0 
L 581 0 
L 581 3500 
L 1159 3500 
L 1159 2956 
Q 1341 3275 1631 3429 
Q 1922 3584 2338 3584 
Q 2397 3584 2469 3576 
Q 2541 3569 2628 3553 
L 2631 2963 
z
" transform="scale(0.015625)"/>
       <path id="DejaVuSans-65" d="M 3597 1894 
L 3597 1613 
L 953 1613 
Q 991 1019 1311 708 
Q 1631 397 2203 397 
Q 2534 397 2845 478 
Q 3156 559 3463 722 
L 3463 178 
Q 3153 47 2828 -22 
Q 2503 -91 2169 -91 
Q 1331 -91 842 396 
Q 353 884 353 1716 
Q 353 2575 817 3079 
Q 1281 3584 2069 3584 
Q 2775 3584 3186 3129 
Q 3597 2675 3597 1894 
z
M 3022 2063 
Q 3016 2534 2758 2815 
Q 2500 3097 2075 3097 
Q 1594 3097 1305 2825 
Q 1016 2553 972 2059 
L 3022 2063 
z
" transform="scale(0.015625)"/>
       <path id="DejaVuSans-71" d="M 947 1747 
Q 947 1113 1208 752 
Q 1469 391 1925 391 
Q 2381 391 2643 752 
Q 2906 1113 2906 1747 
Q 2906 2381 2643 2742 
Q 2381 3103 1925 3103 
Q 1469 3103 1208 2742 
Q 947 2381 947 1747 
z
M 2906 525 
Q 2725 213 2448 61 
Q 2172 -91 1784 -91 
Q 1150 -91 751 415 
Q 353 922 353 1747 
Q 353 2572 751 3078 
Q 1150 3584 1784 3584 
Q 2172 3584 2448 3432 
Q 2725 3281 2906 2969 
L 2906 3500 
L 3481 3500 
L 3481 -1331 
L 2906 -1331 
L 2906 525 
z
" transform="scale(0.015625)"/>
       <path id="DejaVuSans-75" d="M 544 1381 
L 544 3500 
L 1119 3500 
L 1119 1403 
Q 1119 906 1312 657 
Q 1506 409 1894 409 
Q 2359 409 2629 706 
Q 2900 1003 2900 1516 
L 2900 3500 
L 3475 3500 
L 3475 0 
L 2900 0 
L 2900 538 
Q 2691 219 2414 64 
Q 2138 -91 1772 -91 
Q 1169 -91 856 284 
Q 544 659 544 1381 
z
M 1991 3584 
L 1991 3584 
z
" transform="scale(0.015625)"/>
       <path id="DejaVuSans-6e" d="M 3513 2113 
L 3513 0 
L 2938 0 
L 2938 2094 
Q 2938 2591 2744 2837 
Q 2550 3084 2163 3084 
Q 1697 3084 1428 2787 
Q 1159 2491 1159 1978 
L 1159 0 
L 581 0 
L 581 3500 
L 1159 3500 
L 1159 2956 
Q 1366 3272 1645 3428 
Q 1925 3584 2291 3584 
Q 2894 3584 3203 3211 
Q 3513 2838 3513 2113 
z
" transform="scale(0.015625)"/>
       <path id="DejaVuSans-63" d="M 3122 3366 
L 3122 2828 
Q 2878 2963 2633 3030 
Q 2388 3097 2138 3097 
Q 1578 3097 1268 2742 
Q 959 2388 959 1747 
Q 959 1106 1268 751 
Q 1578 397 2138 397 
Q 2388 397 2633 464 
Q 2878 531 3122 666 
L 3122 134 
Q 2881 22 2623 -34 
Q 2366 -91 2075 -91 
Q 1284 -91 818 406 
Q 353 903 353 1747 
Q 353 2603 823 3093 
Q 1294 3584 2113 3584 
Q 2378 3584 2631 3529 
Q 2884 3475 3122 3366 
z
" transform="scale(0.015625)"/>
       <path id="DejaVuSans-79" d="M 2059 -325 
Q 1816 -950 1584 -1140 
Q 1353 -1331 966 -1331 
L 506 -1331 
L 506 -850 
L 844 -850 
Q 1081 -850 1212 -737 
Q 1344 -625 1503 -206 
L 1606 56 
L 191 3500 
L 800 3500 
L 1894 763 
L 2988 3500 
L 3597 3500 
L 2059 -325 
z
" transform="scale(0.015625)"/>
       <path id="DejaVuSans-20" transform="scale(0.015625)"/>
       <path id="DejaVuSans-5b" d="M 550 4863 
L 1875 4863 
L 1875 4416 
L 1125 4416 
L 1125 -397 
L 1875 -397 
L 1875 -844 
L 550 -844 
L 550 4863 
z
" transform="scale(0.015625)"/>
       <path id="DejaVuSans-4d" d="M 628 4666 
L 1569 4666 
L 2759 1491 
L 3956 4666 
L 4897 4666 
L 4897 0 
L 4281 0 
L 4281 4097 
L 3078 897 
L 2444 897 
L 1241 4097 
L 1241 0 
L 628 0 
L 628 4666 
z
" transform="scale(0.015625)"/>
       <path id="DejaVuSans-48" d="M 628 4666 
L 1259 4666 
L 1259 2753 
L 3553 2753 
L 3553 4666 
L 4184 4666 
L 4184 0 
L 3553 0 
L 3553 2222 
L 1259 2222 
L 1259 0 
L 628 0 
L 628 4666 
z
" transform="scale(0.015625)"/>
       <path id="DejaVuSans-7a" d="M 353 3500 
L 3084 3500 
L 3084 2975 
L 922 459 
L 3084 459 
L 3084 0 
L 275 0 
L 275 525 
L 2438 3041 
L 353 3041 
L 353 3500 
z
" transform="scale(0.015625)"/>
       <path id="DejaVuSans-5d" d="M 1947 4863 
L 1947 -844 
L 622 -844 
L 622 -397 
L 1369 -397 
L 1369 4416 
L 622 4416 
L 622 4863 
L 1947 4863 
z
" transform="scale(0.015625)"/>
      </defs>
      <use xlink:href="#DejaVuSans-46"/>
      <use xlink:href="#DejaVuSans-72" x="50.269531"/>
      <use xlink:href="#DejaVuSans-65" x="89.132812"/>
      <use xlink:href="#DejaVuSans-71" x="150.65625"/>
      <use xlink:href="#DejaVuSans-75" x="214.132812"/>
      <use xlink:href="#DejaVuSans-65" x="277.511719"/>
      <use xlink:href="#DejaVuSans-6e" x="339.035156"/>
      <use xlink:href="#DejaVuSans-63" x="402.414062"/>
      <use xlink:href="#DejaVuSans-79" x="457.394531"/>
      <use xlink:href="#DejaVuSans-20" x="516.574219"/>
      <use xlink:href="#DejaVuSans-5b" x="548.361328"/>
      <use xlink:href="#DejaVuSans-4d" x="587.375"/>
      <use xlink:href="#DejaVuSans-48" x="673.654297"/>
      <use xlink:href="#DejaVuSans-7a" x="748.849609"/>
      <use xlink:href="#DejaVuSans-5d" x="801.339844"/>
     </g>
    </g>
    <g id="text_9">
     <!-- +5 GHz -->
     <g transform="translate(359.285625 335.148562) scale(0.1 -0.1)">
      <defs>
       <path id="DejaVuSans-2b" d="M 2944 4013 
L 2944 2272 
L 4684 2272 
L 4684 1741 
L 2944 1741 
L 2944 0 
L 2419 0 
L 2419 1741 
L 678 1741 
L 678 2272 
L 2419 2272 
L 2419 4013 
L 2944 4013 
z
" transform="scale(0.015625)"/>
       <path id="DejaVuSans-47" d="M 3809 666 
L 3809 1919 
L 2778 1919 
L 2778 2438 
L 4434 2438 
L 4434 434 
Q 4069 175 3628 42 
Q 3188 -91 2688 -91 
Q 1594 -91 976 548 
Q 359 1188 359 2328 
Q 359 3472 976 4111 
Q 1594 4750 2688 4750 
Q 3144 4750 3555 4637 
Q 3966 4525 4313 4306 
L 4313 3634 
Q 3963 3931 3569 4081 
Q 3175 4231 2741 4231 
Q 1884 4231 1454 3753 
Q 1025 3275 1025 2328 
Q 1025 1384 1454 906 
Q 1884 428 2741 428 
Q 3075 428 3337 486 
Q 3600 544 3809 666 
z
" transform="scale(0.015625)"/>
      </defs>
      <use xlink:href="#DejaVuSans-2b"/>
      <use xlink:href="#DejaVuSans-35" x="83.789062"/>
      <use xlink:href="#DejaVuSans-20" x="147.412109"/>
      <use xlink:href="#DejaVuSans-47" x="179.199219"/>
      <use xlink:href="#DejaVuSans-48" x="256.689453"/>
      <use xlink:href="#DejaVuSans-7a" x="331.884766"/>
     </g>
    </g>
   </g>
   <g id="matplotlib.axis_2">
    <g id="ytick_1">
     <g id="line2d_8">
      <defs>
       <path id="m5983bbacb0" d="M 0 0 
L -3.5 0 
" style="stroke: #000000; stroke-width: 0.8"/>
      </defs>
      <g>
       <use xlink:href="#m5983bbacb0" x="40.603125" y="262.54441" style="stroke: #000000; stroke-width: 0.8"/>
      </g>
     </g>
     <g id="text_10">
      <!-- 5 -->
      <g transform="translate(27.240625 266.343629) scale(0.1 -0.1)">
       <use xlink:href="#DejaVuSans-35"/>
      </g>
     </g>
    </g>
    <g id="ytick_2">
     <g id="line2d_9">
      <g>
       <use xlink:href="#m5983bbacb0" x="40.603125" y="213.737893" style="stroke: #000000; stroke-width: 0.8"/>
      </g>
     </g>
     <g id="text_11">
      <!-- 10 -->
      <g transform="translate(20.878125 217.537112) scale(0.1 -0.1)">
       <use xlink:href="#DejaVuSans-31"/>
       <use xlink:href="#DejaVuSans-30" x="63.623047"/>
      </g>
     </g>
    </g>
    <g id="ytick_3">
     <g id="line2d_10">
      <g>
       <use xlink:href="#m5983bbacb0" x="40.603125" y="164.931375" style="stroke: #000000; stroke-width: 0.8"/>
      </g>
     </g>
     <g id="text_12">
      <!-- 15 -->
      <g transform="translate(20.878125 168.730594) scale(0.1 -0.1)">
       <use xlink:href="#DejaVuSans-31"/>
       <use xlink:href="#DejaVuSans-35" x="63.623047"/>
      </g>
     </g>
    </g>
    <g id="ytick_4">
     <g id="line2d_11">
      <g>
       <use xlink:href="#m5983bbacb0" x="40.603125" y="116.124858" style="stroke: #000000; stroke-width: 0.8"/>
      </g>
     </g>
     <g id="text_13">
      <!-- 20 -->
      <g transform="translate(20.878125 119.924077) scale(0.1 -0.1)">
       <use xlink:href="#DejaVuSans-32"/>
       <use xlink:href="#DejaVuSans-30" x="63.623047"/>
      </g>
     </g>
    </g>
    <g id="ytick_5">
     <g id="line2d_12">
      <g>
       <use xlink:href="#m5983bbacb0" x="40.603125" y="67.318341" style="stroke: #000000; stroke-width: 0.8"/>
      </g>
     </g>
     <g id="text_14">
      <!-- 25 -->
      <g transform="translate(20.878125 71.117559) scale(0.1 -0.1)">
       <use xlink:href="#DejaVuSans-32"/>
       <use xlink:href="#DejaVuSans-35" x="63.623047"/>
      </g>
     </g>
    </g>
    <g id="text_15">
     <!-- Magnitude0 [mV] -->
     <g transform="translate(14.798438 218.268344) rotate(-90) scale(0.1 -0.1)">
      <defs>
       <path id="DejaVuSans-61" d="M 2194 1759 
Q 1497 1759 1228 1600 
Q 959 1441 959 1056 
Q 959 750 1161 570 
Q 1363 391 1709 391 
Q 2188 391 2477 730 
Q 2766 1069 2766 1631 
L 2766 1759 
L 2194 1759 
z
M 3341 1997 
L 3341 0 
L 2766 0 
L 2766 531 
Q 2569 213 2275 61 
Q 1981 -91 1556 -91 
Q 1019 -91 701 211 
Q 384 513 384 1019 
Q 384 1609 779 1909 
Q 1175 2209 1959 2209 
L 2766 2209 
L 2766 2266 
Q 2766 2663 2505 2880 
Q 2244 3097 1772 3097 
Q 1472 3097 1187 3025 
Q 903 2953 641 2809 
L 641 3341 
Q 956 3463 1253 3523 
Q 1550 3584 1831 3584 
Q 2591 3584 2966 3190 
Q 3341 2797 3341 1997 
z
" transform="scale(0.015625)"/>
       <path id="DejaVuSans-67" d="M 2906 1791 
Q 2906 2416 2648 2759 
Q 2391 3103 1925 3103 
Q 1463 3103 1205 2759 
Q 947 2416 947 1791 
Q 947 1169 1205 825 
Q 1463 481 1925 481 
Q 2391 481 2648 825 
Q 2906 1169 2906 1791 
z
M 3481 434 
Q 3481 -459 3084 -895 
Q 2688 -1331 1869 -1331 
Q 1566 -1331 1297 -1286 
Q 1028 -1241 775 -1147 
L 775 -588 
Q 1028 -725 1275 -790 
Q 1522 -856 1778 -856 
Q 2344 -856 2625 -561 
Q 2906 -266 2906 331 
L 2906 616 
Q 2728 306 2450 153 
Q 2172 0 1784 0 
Q 1141 0 747 490 
Q 353 981 353 1791 
Q 353 2603 747 3093 
Q 1141 3584 1784 3584 
Q 2172 3584 2450 3431 
Q 2728 3278 2906 2969 
L 2906 3500 
L 3481 3500 
L 3481 434 
z
" transform="scale(0.015625)"/>
       <path id="DejaVuSans-69" d="M 603 3500 
L 1178 3500 
L 1178 0 
L 603 0 
L 603 3500 
z
M 603 4863 
L 1178 4863 
L 1178 4134 
L 603 4134 
L 603 4863 
z
" transform="scale(0.015625)"/>
       <path id="DejaVuSans-74" d="M 1172 4494 
L 1172 3500 
L 2356 3500 
L 2356 3053 
L 1172 3053 
L 1172 1153 
Q 1172 725 1289 603 
Q 1406 481 1766 481 
L 2356 481 
L 2356 0 
L 1766 0 
Q 1100 0 847 248 
Q 594 497 594 1153 
L 594 3053 
L 172 3053 
L 172 3500 
L 594 3500 
L 594 4494 
L 1172 4494 
z
" transform="scale(0.015625)"/>
       <path id="DejaVuSans-64" d="M 2906 2969 
L 2906 4863 
L 3481 4863 
L 3481 0 
L 2906 0 
L 2906 525 
Q 2725 213 2448 61 
Q 2172 -91 1784 -91 
Q 1150 -91 751 415 
Q 353 922 353 1747 
Q 353 2572 751 3078 
Q 1150 3584 1784 3584 
Q 2172 3584 2448 3432 
Q 2725 3281 2906 2969 
z
M 947 1747 
Q 947 1113 1208 752 
Q 1469 391 1925 391 
Q 2381 391 2643 752 
Q 2906 1113 2906 1747 
Q 2906 2381 2643 2742 
Q 2381 3103 1925 3103 
Q 1469 3103 1208 2742 
Q 947 2381 947 1747 
z
" transform="scale(0.015625)"/>
       <path id="DejaVuSans-6d" d="M 3328 2828 
Q 3544 3216 3844 3400 
Q 4144 3584 4550 3584 
Q 5097 3584 5394 3201 
Q 5691 2819 5691 2113 
L 5691 0 
L 5113 0 
L 5113 2094 
Q 5113 2597 4934 2840 
Q 4756 3084 4391 3084 
Q 3944 3084 3684 2787 
Q 3425 2491 3425 1978 
L 3425 0 
L 2847 0 
L 2847 2094 
Q 2847 2600 2669 2842 
Q 2491 3084 2119 3084 
Q 1678 3084 1418 2786 
Q 1159 2488 1159 1978 
L 1159 0 
L 581 0 
L 581 3500 
L 1159 3500 
L 1159 2956 
Q 1356 3278 1631 3431 
Q 1906 3584 2284 3584 
Q 2666 3584 2933 3390 
Q 3200 3197 3328 2828 
z
" transform="scale(0.015625)"/>
       <path id="DejaVuSans-56" d="M 1831 0 
L 50 4666 
L 709 4666 
L 2188 738 
L 3669 4666 
L 4325 4666 
L 2547 0 
L 1831 0 
z
" transform="scale(0.015625)"/>
      </defs>
      <use xlink:href="#DejaVuSans-4d"/>
      <use xlink:href="#DejaVuSans-61" x="86.279297"/>
      <use xlink:href="#DejaVuSans-67" x="147.558594"/>
      <use xlink:href="#DejaVuSans-6e" x="211.035156"/>
      <use xlink:href="#DejaVuSans-69" x="274.414062"/>
      <use xlink:href="#DejaVuSans-74" x="302.197266"/>
      <use xlink:href="#DejaVuSans-75" x="341.40625"/>
      <use xlink:href="#DejaVuSans-64" x="404.785156"/>
      <use xlink:href="#DejaVuSans-65" x="468.261719"/>
      <use xlink:href="#DejaVuSans-30" x="529.785156"/>
      <use xlink:href="#DejaVuSans-20" x="593.408203"/>
      <use xlink:href="#DejaVuSans-5b" x="625.195312"/>
      <use xlink:href="#DejaVuSans-6d" x="664.208984"/>
      <use xlink:href="#DejaVuSans-56" x="761.621094"/>
      <use xlink:href="#DejaVuSans-5d" x="830.029297"/>
     </g>
    </g>
   </g>
   <g id="line2d_13">
    <path d="M 56.835852 276.048268 
L 62.338472 274.400283 
L 67.841091 274.297957 
L 73.343711 274.440923 
L 78.84633 275.635591 
L 84.348949 274.046832 
L 89.851569 273.928578 
L 95.354188 274.276077 
L 100.856808 275.28215 
L 106.359427 275.41476 
L 111.862046 274.577992 
L 117.364666 274.219036 
L 122.867285 275.345488 
L 128.369905 275.372217 
L 133.872524 274.704598 
L 139.375143 274.700954 
L 144.877763 274.74124 
L 150.380382 274.94993 
L 155.883002 275.241895 
L 161.385621 274.989358 
L 166.888241 276.118002 
L 172.39086 276.558673 
L 177.893479 275.915365 
L 183.396099 276.436276 
L 188.898718 277.986402 
L 194.401338 279.364576 
L 199.903957 281.38146 
L 205.406576 284.228986 
L 210.909196 287.93679 
L 216.411815 292.787639 
L 221.914435 294.308537 
L 227.417054 295.776 
L 232.919674 293.35975 
L 238.422293 289.626362 
L 243.924912 287.222163 
L 249.427532 284.387716 
L 254.930151 282.407362 
L 260.432771 280.586982 
L 265.93539 279.652692 
L 271.438009 279.575908 
L 276.940629 278.798449 
L 282.443248 277.960974 
L 287.945868 277.748787 
L 293.448487 276.958371 
L 298.951107 277.0281 
L 304.453726 276.770414 
L 309.956345 276.11608 
L 315.458965 276.780656 
L 320.961584 276.458073 
L 326.464204 275.683831 
L 331.966823 276.206721 
L 337.469442 276.25547 
L 342.972062 275.845236 
L 348.474681 275.693884 
L 353.977301 275.77279 
L 359.47992 275.396449 
L 364.982539 275.864159 
L 370.485159 276.078533 
L 375.987778 275.540781 
L 381.490398 275.77665 
" clip-path="url(#pd8ac88f058)" style="fill: none; stroke: #440154; stroke-width: 1.5; stroke-linecap: square"/>
   </g>
   <g id="line2d_14">
    <path d="M 56.835852 267.102892 
L 62.338472 266.00085 
L 67.841091 267.738916 
L 73.343711 267.905093 
L 78.84633 266.68879 
L 84.348949 267.25505 
L 89.851569 266.16176 
L 95.354188 266.566504 
L 100.856808 267.998365 
L 106.359427 266.120123 
L 111.862046 266.980056 
L 117.364666 266.367419 
L 122.867285 267.772434 
L 128.369905 266.934443 
L 133.872524 267.518935 
L 139.375143 267.689215 
L 144.877763 267.550162 
L 150.380382 267.551763 
L 155.883002 268.220515 
L 161.385621 268.139797 
L 166.888241 267.933569 
L 172.39086 269.484866 
L 177.893479 268.676417 
L 183.396099 270.41159 
L 188.898718 270.579161 
L 194.401338 273.086078 
L 199.903957 274.680623 
L 205.406576 279.569037 
L 210.909196 283.076371 
L 216.411815 287.848314 
L 221.914435 291.005714 
L 227.417054 291.967224 
L 232.919674 289.551137 
L 238.422293 284.992578 
L 243.924912 281.744079 
L 249.427532 277.804491 
L 254.930151 275.7578 
L 260.432771 274.306814 
L 265.93539 274.016372 
L 271.438009 271.79984 
L 276.940629 272.614915 
L 282.443248 271.489424 
L 287.945868 269.838366 
L 293.448487 269.925321 
L 298.951107 269.672688 
L 304.453726 269.358294 
L 309.956345 269.677026 
L 315.458965 268.356583 
L 320.961584 268.587439 
L 326.464204 268.517341 
L 331.966823 268.652661 
L 337.469442 267.641485 
L 342.972062 268.39901 
L 348.474681 268.819731 
L 353.977301 267.911882 
L 359.47992 268.751466 
L 364.982539 268.291404 
L 370.485159 268.000913 
L 375.987778 268.129126 
L 381.490398 267.847474 
" clip-path="url(#pd8ac88f058)" style="fill: none; stroke: #470d60; stroke-width: 1.5; stroke-linecap: square"/>
   </g>
   <g id="line2d_15">
    <path d="M 56.835852 259.154364 
L 62.338472 260.134299 
L 67.841091 259.495755 
L 73.343711 258.77051 
L 78.84633 258.922384 
L 84.348949 259.472168 
L 89.851569 259.780724 
L 95.354188 259.103807 
L 100.856808 260.220579 
L 106.359427 259.032053 
L 111.862046 259.474315 
L 117.364666 259.758359 
L 122.867285 258.854666 
L 128.369905 260.622553 
L 133.872524 258.54013 
L 139.375143 260.12514 
L 144.877763 259.605808 
L 150.380382 259.937372 
L 155.883002 260.315641 
L 161.385621 260.156898 
L 166.888241 261.316578 
L 172.39086 261.023184 
L 177.893479 262.810121 
L 183.396099 262.934305 
L 188.898718 262.884222 
L 194.401338 267.104611 
L 199.903957 269.05746 
L 205.406576 273.149531 
L 210.909196 278.747658 
L 216.411815 283.856421 
L 221.914435 288.879838 
L 227.417054 288.482347 
L 232.919674 285.893359 
L 238.422293 280.526315 
L 243.924912 275.61081 
L 249.427532 272.030797 
L 254.930151 270.190218 
L 260.432771 267.927405 
L 265.93539 266.699957 
L 271.438009 266.538879 
L 276.940629 264.85846 
L 282.443248 263.964222 
L 287.945868 264.010606 
L 293.448487 263.428854 
L 298.951107 262.733116 
L 304.453726 262.779876 
L 309.956345 261.8913 
L 315.458965 261.467118 
L 320.961584 261.910344 
L 326.464204 261.227953 
L 331.966823 260.955719 
L 337.469442 261.450284 
L 342.972062 260.879824 
L 348.474681 260.697559 
L 353.977301 261.386564 
L 359.47992 261.087782 
L 364.982539 260.509417 
L 370.485159 260.057418 
L 375.987778 260.636261 
L 381.490398 261.41492 
" clip-path="url(#pd8ac88f058)" style="fill: none; stroke: #481a6c; stroke-width: 1.5; stroke-linecap: square"/>
   </g>
   <g id="line2d_16">
    <path d="M 56.835852 251.572042 
L 62.338472 251.43632 
L 67.841091 251.741604 
L 73.343711 251.528876 
L 78.84633 251.50882 
L 84.348949 251.804613 
L 89.851569 251.062967 
L 95.354188 252.203381 
L 100.856808 252.520871 
L 106.359427 251.24195 
L 111.862046 251.87086 
L 117.364666 252.43784 
L 122.867285 251.856031 
L 128.369905 252.338769 
L 133.872524 253.260389 
L 139.375143 252.609907 
L 144.877763 252.272894 
L 150.380382 252.621571 
L 155.883002 253.266713 
L 161.385621 252.928221 
L 166.888241 253.865345 
L 172.39086 253.806814 
L 177.893479 254.196572 
L 183.396099 255.771348 
L 188.898718 257.230751 
L 194.401338 259.652705 
L 199.903957 263.576429 
L 205.406576 267.849955 
L 210.909196 275.895987 
L 216.411815 280.170886 
L 221.914435 284.089102 
L 227.417054 285.276466 
L 232.919674 280.520094 
L 238.422293 274.838356 
L 243.924912 270.526617 
L 249.427532 267.18216 
L 254.930151 263.665402 
L 260.432771 261.855235 
L 265.93539 260.540071 
L 271.438009 258.889566 
L 276.940629 257.566539 
L 282.443248 257.681664 
L 287.945868 255.954517 
L 293.448487 256.866987 
L 298.951107 255.009357 
L 304.453726 255.28716 
L 309.956345 254.498556 
L 315.458965 254.169189 
L 320.961584 254.857891 
L 326.464204 253.99286 
L 331.966823 254.439157 
L 337.469442 253.449606 
L 342.972062 253.463932 
L 348.474681 253.809926 
L 353.977301 253.09735 
L 359.47992 252.429964 
L 364.982539 253.279275 
L 370.485159 253.224959 
L 375.987778 252.779332 
L 381.490398 252.911521 
" clip-path="url(#pd8ac88f058)" style="fill: none; stroke: #482576; stroke-width: 1.5; stroke-linecap: square"/>
   </g>
   <g id="line2d_17">
    <path d="M 56.835852 244.923217 
L 62.338472 245.407973 
L 67.841091 244.244302 
L 73.343711 243.827807 
L 78.84633 244.825569 
L 84.348949 244.011633 
L 89.851569 245.033177 
L 95.354188 244.505373 
L 100.856808 244.252673 
L 106.359427 244.049319 
L 111.862046 244.851519 
L 117.364666 244.079524 
L 122.867285 245.43751 
L 128.369905 243.850418 
L 133.872524 244.230742 
L 139.375143 245.972185 
L 144.877763 245.489836 
L 150.380382 245.43039 
L 155.883002 245.481096 
L 161.385621 246.367782 
L 166.888241 246.241347 
L 172.39086 246.458748 
L 177.893479 247.074573 
L 183.396099 248.351528 
L 188.898718 249.769888 
L 194.401338 252.560075 
L 199.903957 256.07905 
L 205.406576 264.063225 
L 210.909196 271.259207 
L 216.411815 277.824285 
L 221.914435 281.844339 
L 227.417054 281.72267 
L 232.919674 276.589749 
L 238.422293 270.443736 
L 243.924912 263.610796 
L 249.427532 260.743995 
L 254.930151 256.564235 
L 260.432771 254.876345 
L 265.93539 252.997269 
L 271.438009 252.048576 
L 276.940629 251.286755 
L 282.443248 250.029368 
L 287.945868 248.829736 
L 293.448487 249.309098 
L 298.951107 248.538316 
L 304.453726 248.663951 
L 309.956345 247.53615 
L 315.458965 247.200383 
L 320.961584 246.951443 
L 326.464204 246.894417 
L 331.966823 246.4105 
L 337.469442 245.815805 
L 342.972062 245.96543 
L 348.474681 245.944882 
L 353.977301 246.858563 
L 359.47992 246.066456 
L 364.982539 245.202183 
L 370.485159 245.239471 
L 375.987778 245.34704 
L 381.490398 244.878002 
" clip-path="url(#pd8ac88f058)" style="fill: none; stroke: #46307e; stroke-width: 1.5; stroke-linecap: square"/>
   </g>
   <g id="line2d_18">
    <path d="M 56.835852 235.979226 
L 62.338472 236.130315 
L 67.841091 236.311454 
L 73.343711 236.442424 
L 78.84633 236.18954 
L 84.348949 236.998418 
L 89.851569 236.62023 
L 95.354188 236.728268 
L 100.856808 236.872981 
L 106.359427 237.009213 
L 111.862046 237.583959 
L 117.364666 236.657854 
L 122.867285 236.879116 
L 128.369905 237.243562 
L 133.872524 237.421921 
L 139.375143 237.376768 
L 144.877763 237.332752 
L 150.380382 238.071267 
L 155.883002 238.031994 
L 161.385621 238.750793 
L 166.888241 238.244275 
L 172.39086 239.219847 
L 177.893479 240.620897 
L 183.396099 241.285369 
L 188.898718 243.046851 
L 194.401338 247.099635 
L 199.903957 251.768043 
L 205.406576 258.544874 
L 210.909196 266.159689 
L 216.411815 273.625093 
L 221.914435 278.894856 
L 227.417054 277.916506 
L 232.919674 271.569983 
L 238.422293 264.724648 
L 243.924912 259.345632 
L 249.427532 254.426882 
L 254.930151 250.776101 
L 260.432771 248.251578 
L 265.93539 246.838566 
L 271.438009 244.707415 
L 276.940629 245.055711 
L 282.443248 243.455211 
L 287.945868 242.041082 
L 293.448487 241.923602 
L 298.951107 240.568046 
L 304.453726 240.501507 
L 309.956345 239.699905 
L 315.458965 240.284965 
L 320.961584 240.205053 
L 326.464204 239.708097 
L 331.966823 239.602558 
L 337.469442 238.821756 
L 342.972062 239.034637 
L 348.474681 239.708012 
L 353.977301 238.435476 
L 359.47992 238.554776 
L 364.982539 238.040904 
L 370.485159 237.992235 
L 375.987778 238.731207 
L 381.490398 238.741059 
" clip-path="url(#pd8ac88f058)" style="fill: none; stroke: #443b84; stroke-width: 1.5; stroke-linecap: square"/>
   </g>
   <g id="line2d_19">
    <path d="M 56.835852 228.659171 
L 62.338472 228.701919 
L 67.841091 229.558759 
L 73.343711 229.301241 
L 78.84633 228.704034 
L 84.348949 229.704635 
L 89.851569 229.776552 
L 95.354188 228.705583 
L 100.856808 229.122634 
L 106.359427 229.345535 
L 111.862046 228.429129 
L 117.364666 229.263435 
L 122.867285 229.16699 
L 128.369905 229.704037 
L 133.872524 229.814128 
L 139.375143 229.445802 
L 144.877763 230.644377 
L 150.380382 230.861176 
L 155.883002 230.233343 
L 161.385621 230.056602 
L 166.888241 231.099839 
L 172.39086 232.366004 
L 177.893479 233.149025 
L 183.396099 234.71861 
L 188.898718 236.015492 
L 194.401338 240.398796 
L 199.903957 245.176113 
L 205.406576 252.335663 
L 210.909196 261.245221 
L 216.411815 269.838839 
L 221.914435 275.395555 
L 227.417054 275.587344 
L 232.919674 268.422483 
L 238.422293 261.344597 
L 243.924912 254.523312 
L 249.427532 249.489661 
L 254.930151 245.193346 
L 260.432771 241.969515 
L 265.93539 239.431378 
L 271.438009 238.402591 
L 276.940629 237.870437 
L 282.443248 236.148811 
L 287.945868 234.844796 
L 293.448487 234.925961 
L 298.951107 233.754138 
L 304.453726 233.706802 
L 309.956345 233.084244 
L 315.458965 233.55864 
L 320.961584 231.7023 
L 326.464204 232.17047 
L 331.966823 232.211501 
L 337.469442 231.818354 
L 342.972062 232.13725 
L 348.474681 231.109097 
L 353.977301 231.058046 
L 359.47992 230.43259 
L 364.982539 230.906555 
L 370.485159 231.66278 
L 375.987778 230.626253 
L 381.490398 231.170639 
" clip-path="url(#pd8ac88f058)" style="fill: none; stroke: #404588; stroke-width: 1.5; stroke-linecap: square"/>
   </g>
   <g id="line2d_20">
    <path d="M 56.835852 220.950003 
L 62.338472 220.58875 
L 67.841091 221.601466 
L 73.343711 220.379424 
L 78.84633 221.385867 
L 84.348949 221.367595 
L 89.851569 220.84864 
L 95.354188 221.517062 
L 100.856808 222.023399 
L 106.359427 221.638119 
L 111.862046 221.776348 
L 117.364666 221.444722 
L 122.867285 221.608365 
L 128.369905 222.492745 
L 133.872524 222.08249 
L 139.375143 221.945404 
L 144.877763 223.118748 
L 150.380382 222.798733 
L 155.883002 222.289686 
L 161.385621 224.180867 
L 166.888241 223.760521 
L 172.39086 224.416599 
L 177.893479 226.151998 
L 183.396099 226.521734 
L 188.898718 229.629643 
L 194.401338 233.240323 
L 199.903957 239.45234 
L 205.406576 247.523741 
L 210.909196 258.445828 
L 216.411815 267.802833 
L 221.914435 272.22585 
L 227.417054 270.159112 
L 232.919674 261.872447 
L 238.422293 256.193235 
L 243.924912 247.739258 
L 249.427532 242.779783 
L 254.930151 238.535539 
L 260.432771 235.567085 
L 265.93539 234.11033 
L 271.438009 232.282101 
L 276.940629 230.286771 
L 282.443248 229.126618 
L 287.945868 227.069736 
L 293.448487 227.328989 
L 298.951107 227.056325 
L 304.453726 227.011649 
L 309.956345 226.327334 
L 315.458965 225.756357 
L 320.961584 226.181592 
L 326.464204 224.92156 
L 331.966823 224.481464 
L 337.469442 223.981075 
L 342.972062 223.596512 
L 348.474681 224.427003 
L 353.977301 223.757628 
L 359.47992 223.890643 
L 364.982539 223.983991 
L 370.485159 223.62831 
L 375.987778 222.874021 
L 381.490398 223.456147 
" clip-path="url(#pd8ac88f058)" style="fill: none; stroke: #3c4f8a; stroke-width: 1.5; stroke-linecap: square"/>
   </g>
   <g id="line2d_21">
    <path d="M 56.835852 214.246101 
L 62.338472 214.019213 
L 67.841091 214.043763 
L 73.343711 214.496874 
L 78.84633 213.862976 
L 84.348949 214.248689 
L 89.851569 213.405369 
L 95.354188 214.917296 
L 100.856808 214.56338 
L 106.359427 214.229265 
L 111.862046 214.808065 
L 117.364666 213.937744 
L 122.867285 213.76659 
L 128.369905 214.906175 
L 133.872524 215.156559 
L 139.375143 214.250392 
L 144.877763 215.950122 
L 150.380382 215.687337 
L 155.883002 216.153026 
L 161.385621 215.901651 
L 166.888241 215.880128 
L 172.39086 217.417183 
L 177.893479 218.499851 
L 183.396099 219.936265 
L 188.898718 223.550808 
L 194.401338 227.373064 
L 199.903957 234.62596 
L 205.406576 244.536301 
L 210.909196 252.375984 
L 216.411815 262.488341 
L 221.914435 269.575722 
L 227.417054 265.453265 
L 232.919674 259.126244 
L 238.422293 250.744111 
L 243.924912 242.04588 
L 249.427532 236.171657 
L 254.930151 232.335509 
L 260.432771 229.11424 
L 265.93539 227.399609 
L 271.438009 224.786947 
L 276.940629 223.28162 
L 282.443248 222.807777 
L 287.945868 221.492716 
L 293.448487 220.700961 
L 298.951107 220.29328 
L 304.453726 219.77517 
L 309.956345 219.496277 
L 315.458965 218.434102 
L 320.961584 218.407518 
L 326.464204 218.185987 
L 331.966823 218.014147 
L 337.469442 217.703021 
L 342.972062 216.9358 
L 348.474681 216.953455 
L 353.977301 216.510748 
L 359.47992 215.468024 
L 364.982539 216.105905 
L 370.485159 216.7906 
L 375.987778 215.493858 
L 381.490398 216.339452 
" clip-path="url(#pd8ac88f058)" style="fill: none; stroke: #38598c; stroke-width: 1.5; stroke-linecap: square"/>
   </g>
   <g id="line2d_22">
    <path d="M 56.835852 206.360135 
L 62.338472 206.276084 
L 67.841091 206.30502 
L 73.343711 206.089307 
L 78.84633 205.326362 
L 84.348949 206.378183 
L 89.851569 206.436623 
L 95.354188 207.043076 
L 100.856808 207.164532 
L 106.359427 206.121033 
L 111.862046 206.610155 
L 117.364666 206.602825 
L 122.867285 207.042916 
L 128.369905 207.374234 
L 133.872524 206.717136 
L 139.375143 207.903934 
L 144.877763 207.372965 
L 150.380382 207.802411 
L 155.883002 207.642103 
L 161.385621 208.648248 
L 166.888241 208.909033 
L 172.39086 210.425312 
L 177.893479 211.441425 
L 183.396099 213.871752 
L 188.898718 216.023484 
L 194.401338 220.819904 
L 199.903957 227.399978 
L 205.406576 239.373323 
L 210.909196 249.18319 
L 216.411815 262.575601 
L 221.914435 267.132862 
L 227.417054 263.792193 
L 232.919674 254.365629 
L 238.422293 246.82287 
L 243.924912 236.12811 
L 249.427532 230.478382 
L 254.930151 224.676133 
L 260.432771 222.436509 
L 265.93539 220.796752 
L 271.438009 218.943447 
L 276.940629 216.584949 
L 282.443248 215.379318 
L 287.945868 214.066988 
L 293.448487 213.01321 
L 298.951107 213.179744 
L 304.453726 212.430141 
L 309.956345 210.369639 
L 315.458965 211.380953 
L 320.961584 211.433622 
L 326.464204 210.73529 
L 331.966823 210.892699 
L 337.469442 210.190326 
L 342.972062 209.513411 
L 348.474681 209.745869 
L 353.977301 209.270388 
L 359.47992 209.431007 
L 364.982539 209.016349 
L 370.485159 208.387398 
L 375.987778 208.633582 
L 381.490398 208.404478 
" clip-path="url(#pd8ac88f058)" style="fill: none; stroke: #33628d; stroke-width: 1.5; stroke-linecap: square"/>
   </g>
   <g id="line2d_23">
    <path d="M 56.835852 198.572898 
L 62.338472 197.94999 
L 67.841091 198.55238 
L 73.343711 199.130046 
L 78.84633 197.99401 
L 84.348949 199.519147 
L 89.851569 198.555498 
L 95.354188 198.550743 
L 100.856808 199.087193 
L 106.359427 199.149473 
L 111.862046 198.918728 
L 117.364666 199.228524 
L 122.867285 198.794925 
L 128.369905 199.500581 
L 133.872524 199.774839 
L 139.375143 200.398735 
L 144.877763 199.247673 
L 150.380382 200.057104 
L 155.883002 201.54576 
L 161.385621 201.486949 
L 166.888241 201.643681 
L 172.39086 202.561991 
L 177.893479 203.571027 
L 183.396099 205.992657 
L 188.898718 209.581507 
L 194.401338 216.257234 
L 199.903957 223.080377 
L 205.406576 233.090146 
L 210.909196 245.058774 
L 216.411815 257.507095 
L 221.914435 262.782944 
L 227.417054 258.190379 
L 232.919674 250.446759 
L 238.422293 240.288351 
L 243.924912 231.406207 
L 249.427532 223.790251 
L 254.930151 220.543944 
L 260.432771 215.458952 
L 265.93539 213.513186 
L 271.438009 210.639677 
L 276.940629 209.59367 
L 282.443248 209.599854 
L 287.945868 207.636499 
L 293.448487 206.860272 
L 298.951107 205.623292 
L 304.453726 205.463374 
L 309.956345 204.535544 
L 315.458965 203.668754 
L 320.961584 203.340765 
L 326.464204 203.260945 
L 331.966823 203.06971 
L 337.469442 202.496685 
L 342.972062 202.268175 
L 348.474681 202.052391 
L 353.977301 201.911996 
L 359.47992 202.561105 
L 364.982539 202.182785 
L 370.485159 200.920189 
L 375.987778 201.605116 
L 381.490398 200.363341 
" clip-path="url(#pd8ac88f058)" style="fill: none; stroke: #2f6b8e; stroke-width: 1.5; stroke-linecap: square"/>
   </g>
   <g id="line2d_24">
    <path d="M 56.835852 191.221242 
L 62.338472 190.934351 
L 67.841091 190.314959 
L 73.343711 191.308775 
L 78.84633 191.516991 
L 84.348949 191.248033 
L 89.851569 191.177227 
L 95.354188 191.57856 
L 100.856808 191.496052 
L 106.359427 192.3291 
L 111.862046 191.620711 
L 117.364666 191.557902 
L 122.867285 191.425417 
L 128.369905 190.587666 
L 133.872524 191.600916 
L 139.375143 191.753929 
L 144.877763 192.20565 
L 150.380382 192.870721 
L 155.883002 192.446419 
L 161.385621 193.749357 
L 166.888241 195.692507 
L 172.39086 196.101704 
L 177.893479 196.790728 
L 183.396099 200.061078 
L 188.898718 202.329309 
L 194.401338 210.007368 
L 199.903957 216.645429 
L 205.406576 227.597022 
L 210.909196 242.045214 
L 216.411815 255.58705 
L 221.914435 260.121555 
L 227.417054 255.10913 
L 232.919674 245.184143 
L 238.422293 234.710285 
L 243.924912 223.807132 
L 249.427532 217.52758 
L 254.930151 212.433851 
L 260.432771 209.154528 
L 265.93539 207.074342 
L 271.438009 204.850944 
L 276.940629 201.679394 
L 282.443248 201.62602 
L 287.945868 200.296782 
L 293.448487 199.509358 
L 298.951107 199.61684 
L 304.453726 197.754745 
L 309.956345 197.82755 
L 315.458965 198.150927 
L 320.961584 195.721545 
L 326.464204 194.826463 
L 331.966823 196.131573 
L 337.469442 195.274964 
L 342.972062 195.347629 
L 348.474681 194.315623 
L 353.977301 194.303211 
L 359.47992 195.162576 
L 364.982539 194.265138 
L 370.485159 193.93262 
L 375.987778 193.588868 
L 381.490398 193.612283 
" clip-path="url(#pd8ac88f058)" style="fill: none; stroke: #2c738e; stroke-width: 1.5; stroke-linecap: square"/>
   </g>
   <g id="line2d_25">
    <path d="M 56.835852 183.751131 
L 62.338472 184.518174 
L 67.841091 183.34733 
L 73.343711 182.774795 
L 78.84633 183.795859 
L 84.348949 183.824232 
L 89.851569 184.288341 
L 95.354188 184.524964 
L 100.856808 184.052583 
L 106.359427 183.239908 
L 111.862046 183.082609 
L 117.364666 183.853678 
L 122.867285 184.281961 
L 128.369905 184.184315 
L 133.872524 184.318766 
L 139.375143 184.835134 
L 144.877763 184.744406 
L 150.380382 184.944001 
L 155.883002 186.524734 
L 161.385621 186.051329 
L 166.888241 187.483755 
L 172.39086 188.698765 
L 177.893479 190.471246 
L 183.396099 192.509519 
L 188.898718 196.56671 
L 194.401338 202.31072 
L 199.903957 210.066088 
L 205.406576 222.424943 
L 210.909196 239.092607 
L 216.411815 250.779816 
L 221.914435 255.985343 
L 227.417054 251.751876 
L 232.919674 241.303939 
L 238.422293 227.947578 
L 243.924912 219.850952 
L 249.427532 211.893099 
L 254.930151 206.399414 
L 260.432771 203.544463 
L 265.93539 200.726591 
L 271.438009 197.835745 
L 276.940629 195.628092 
L 282.443248 193.852143 
L 287.945868 192.714751 
L 293.448487 192.663018 
L 298.951107 191.92262 
L 304.453726 190.636896 
L 309.956345 190.161001 
L 315.458965 190.153092 
L 320.961584 189.173238 
L 326.464204 188.31104 
L 331.966823 187.938206 
L 337.469442 189.259798 
L 342.972062 187.869044 
L 348.474681 188.056141 
L 353.977301 186.829678 
L 359.47992 187.010088 
L 364.982539 186.526284 
L 370.485159 185.726312 
L 375.987778 186.476778 
L 381.490398 186.483719 
" clip-path="url(#pd8ac88f058)" style="fill: none; stroke: #297b8e; stroke-width: 1.5; stroke-linecap: square"/>
   </g>
   <g id="line2d_26">
    <path d="M 56.835852 175.833804 
L 62.338472 175.970408 
L 67.841091 174.725608 
L 73.343711 175.861998 
L 78.84633 175.889498 
L 84.348949 176.040054 
L 89.851569 175.800112 
L 95.354188 176.557177 
L 100.856808 175.956839 
L 106.359427 175.654709 
L 111.862046 176.5172 
L 117.364666 175.83896 
L 122.867285 175.995414 
L 128.369905 176.057402 
L 133.872524 176.046093 
L 139.375143 177.80918 
L 144.877763 178.493262 
L 150.380382 176.955994 
L 155.883002 177.692096 
L 161.385621 178.800973 
L 166.888241 179.822664 
L 172.39086 181.665267 
L 177.893479 182.95029 
L 183.396099 185.028831 
L 188.898718 188.855375 
L 194.401338 196.772032 
L 199.903957 205.95907 
L 205.406576 220.926181 
L 210.909196 236.303095 
L 216.411815 248.37001 
L 221.914435 253.490862 
L 227.417054 247.013198 
L 232.919674 236.430362 
L 238.422293 223.911538 
L 243.924912 213.211923 
L 249.427532 205.575255 
L 254.930151 199.631291 
L 260.432771 195.460746 
L 265.93539 193.526491 
L 271.438009 190.05241 
L 276.940629 189.453372 
L 282.443248 187.919184 
L 287.945868 186.221841 
L 293.448487 185.409674 
L 298.951107 184.681849 
L 304.453726 183.417074 
L 309.956345 182.734252 
L 315.458965 182.540897 
L 320.961584 181.444138 
L 326.464204 181.323652 
L 331.966823 180.980778 
L 337.469442 180.429454 
L 342.972062 181.180984 
L 348.474681 180.537814 
L 353.977301 180.222809 
L 359.47992 180.651638 
L 364.982539 178.878497 
L 370.485159 178.884067 
L 375.987778 178.584497 
L 381.490398 178.48951 
" clip-path="url(#pd8ac88f058)" style="fill: none; stroke: #25838e; stroke-width: 1.5; stroke-linecap: square"/>
   </g>
   <g id="line2d_27">
    <path d="M 56.835852 167.986084 
L 62.338472 168.892859 
L 67.841091 168.240145 
L 73.343711 167.727319 
L 78.84633 168.670432 
L 84.348949 168.471089 
L 89.851569 168.388214 
L 95.354188 168.045293 
L 100.856808 168.5323 
L 106.359427 168.41722 
L 111.862046 168.327853 
L 117.364666 167.409613 
L 122.867285 169.166419 
L 128.369905 167.985184 
L 133.872524 168.341135 
L 139.375143 169.585615 
L 144.877763 169.601668 
L 150.380382 170.73238 
L 155.883002 170.187385 
L 161.385621 170.509731 
L 166.888241 173.344456 
L 172.39086 173.946899 
L 177.893479 175.915991 
L 183.396099 178.589394 
L 188.898718 182.599619 
L 194.401338 188.683868 
L 199.903957 199.68171 
L 205.406576 216.060463 
L 210.909196 232.320643 
L 216.411815 245.847418 
L 221.914435 251.327389 
L 227.417054 244.375987 
L 232.919674 231.595586 
L 238.422293 217.128031 
L 243.924912 206.557724 
L 249.427532 199.957478 
L 254.930151 193.734805 
L 260.432771 190.261884 
L 265.93539 186.38735 
L 271.438009 183.469759 
L 276.940629 181.66042 
L 282.443248 179.955949 
L 287.945868 178.023079 
L 293.448487 177.935875 
L 298.951107 177.076039 
L 304.453726 176.087592 
L 309.956345 175.640779 
L 315.458965 175.961745 
L 320.961584 174.963941 
L 326.464204 173.137529 
L 331.966823 173.543372 
L 337.469442 173.234061 
L 342.972062 172.62058 
L 348.474681 172.552145 
L 353.977301 172.205194 
L 359.47992 171.162064 
L 364.982539 171.841054 
L 370.485159 171.668659 
L 375.987778 171.288555 
L 381.490398 171.215739 
" clip-path="url(#pd8ac88f058)" style="fill: none; stroke: #228c8d; stroke-width: 1.5; stroke-linecap: square"/>
   </g>
   <g id="line2d_28">
    <path d="M 56.835852 160.453306 
L 62.338472 160.694994 
L 67.841091 160.908369 
L 73.343711 160.830782 
L 78.84633 160.352394 
L 84.348949 160.970397 
L 89.851569 161.686622 
L 95.354188 160.619488 
L 100.856808 161.20784 
L 106.359427 161.106844 
L 111.862046 162.323291 
L 117.364666 160.202926 
L 122.867285 161.736168 
L 128.369905 161.645996 
L 133.872524 161.975635 
L 139.375143 162.272569 
L 144.877763 162.105342 
L 150.380382 163.043549 
L 155.883002 163.073498 
L 161.385621 163.317791 
L 166.888241 164.638555 
L 172.39086 166.655032 
L 177.893479 168.091357 
L 183.396099 170.088402 
L 188.898718 175.301728 
L 194.401338 183.635645 
L 199.903957 195.806914 
L 205.406576 210.301311 
L 210.909196 228.47816 
L 216.411815 242.975345 
L 221.914435 247.652041 
L 227.417054 239.246477 
L 232.919674 224.038278 
L 238.422293 212.284247 
L 243.924912 200.960056 
L 249.427532 192.487608 
L 254.930151 185.959639 
L 260.432771 182.519048 
L 265.93539 179.054882 
L 271.438009 177.807046 
L 276.940629 174.761548 
L 282.443248 173.068872 
L 287.945868 172.633669 
L 293.448487 170.051981 
L 298.951107 169.940624 
L 304.453726 169.264048 
L 309.956345 168.002766 
L 315.458965 167.778743 
L 320.961584 166.930372 
L 326.464204 166.544294 
L 331.966823 166.593806 
L 337.469442 166.23274 
L 342.972062 165.377538 
L 348.474681 164.994667 
L 353.977301 164.731136 
L 359.47992 165.358601 
L 364.982539 165.218655 
L 370.485159 164.3916 
L 375.987778 164.449342 
L 381.490398 164.467593 
" clip-path="url(#pd8ac88f058)" style="fill: none; stroke: #1f948c; stroke-width: 1.5; stroke-linecap: square"/>
   </g>
   <g id="line2d_29">
    <path d="M 56.835852 152.439808 
L 62.338472 152.040207 
L 67.841091 152.726864 
L 73.343711 153.170626 
L 78.84633 152.782333 
L 84.348949 152.944534 
L 89.851569 153.968889 
L 95.354188 153.36143 
L 100.856808 153.615357 
L 106.359427 152.855354 
L 111.862046 153.741152 
L 117.364666 153.970186 
L 122.867285 154.01166 
L 128.369905 154.185856 
L 133.872524 153.69004 
L 139.375143 154.651499 
L 144.877763 154.603584 
L 150.380382 155.512504 
L 155.883002 155.95421 
L 161.385621 155.963561 
L 166.888241 157.289226 
L 172.39086 159.991392 
L 177.893479 161.365991 
L 183.396099 164.320348 
L 188.898718 169.162138 
L 194.401338 177.875134 
L 199.903957 191.321386 
L 205.406576 207.139543 
L 210.909196 223.560624 
L 216.411815 240.566221 
L 221.914435 244.496268 
L 227.417054 235.256476 
L 232.919674 220.634787 
L 238.422293 207.524135 
L 243.924912 196.290363 
L 249.427532 186.623563 
L 254.930151 180.601691 
L 260.432771 176.292249 
L 265.93539 173.088066 
L 271.438009 169.819794 
L 276.940629 166.939758 
L 282.443248 165.878958 
L 287.945868 164.794775 
L 293.448487 164.09427 
L 298.951107 162.4727 
L 304.453726 162.343079 
L 309.956345 161.266448 
L 315.458965 160.516498 
L 320.961584 159.095893 
L 326.464204 159.478619 
L 331.966823 159.614164 
L 337.469442 159.024526 
L 342.972062 157.737506 
L 348.474681 157.364124 
L 353.977301 157.673043 
L 359.47992 157.444827 
L 364.982539 156.400316 
L 370.485159 155.961208 
L 375.987778 156.55369 
L 381.490398 156.062253 
" clip-path="url(#pd8ac88f058)" style="fill: none; stroke: #1e9d89; stroke-width: 1.5; stroke-linecap: square"/>
   </g>
   <g id="line2d_30">
    <path d="M 56.835852 146.049103 
L 62.338472 145.292782 
L 67.841091 145.631326 
L 73.343711 145.734172 
L 78.84633 146.029328 
L 84.348949 145.592365 
L 89.851569 144.87533 
L 95.354188 145.754015 
L 100.856808 145.992729 
L 106.359427 146.127493 
L 111.862046 145.796934 
L 117.364666 145.969522 
L 122.867285 145.935917 
L 128.369905 146.913941 
L 133.872524 146.211295 
L 139.375143 146.805922 
L 144.877763 147.41949 
L 150.380382 146.194278 
L 155.883002 148.629967 
L 161.385621 149.072638 
L 166.888241 150.444906 
L 172.39086 151.370391 
L 177.893479 154.578741 
L 183.396099 157.12502 
L 188.898718 162.784824 
L 194.401338 169.824681 
L 199.903957 184.495097 
L 205.406576 202.347529 
L 210.909196 222.739228 
L 216.411815 236.417445 
L 221.914435 241.268163 
L 227.417054 232.315291 
L 232.919674 215.643518 
L 238.422293 202.080673 
L 243.924912 189.638727 
L 249.427532 179.229329 
L 254.930151 175.125239 
L 260.432771 169.663409 
L 265.93539 166.097764 
L 271.438009 163.319772 
L 276.940629 161.025959 
L 282.443248 158.678407 
L 287.945868 157.921154 
L 293.448487 156.114883 
L 298.951107 155.159014 
L 304.453726 154.589134 
L 309.956345 152.911396 
L 315.458965 152.354306 
L 320.961584 152.492368 
L 326.464204 151.918932 
L 331.966823 151.616468 
L 337.469442 151.370018 
L 342.972062 150.413644 
L 348.474681 151.217238 
L 353.977301 150.234294 
L 359.47992 149.482941 
L 364.982539 149.255175 
L 370.485159 149.9272 
L 375.987778 149.428816 
L 381.490398 148.909508 
" clip-path="url(#pd8ac88f058)" style="fill: none; stroke: #21a585; stroke-width: 1.5; stroke-linecap: square"/>
   </g>
   <g id="line2d_31">
    <path d="M 56.835852 138.052128 
L 62.338472 137.581105 
L 67.841091 137.65184 
L 73.343711 138.142124 
L 78.84633 137.878799 
L 84.348949 138.044481 
L 89.851569 137.849914 
L 95.354188 138.121884 
L 100.856808 137.531822 
L 106.359427 138.646851 
L 111.862046 138.946592 
L 117.364666 138.85775 
L 122.867285 137.607115 
L 128.369905 139.053719 
L 133.872524 139.365672 
L 139.375143 139.37784 
L 144.877763 139.404476 
L 150.380382 139.967047 
L 155.883002 141.190098 
L 161.385621 140.880318 
L 166.888241 143.399665 
L 172.39086 145.258319 
L 177.893479 147.912192 
L 183.396099 150.67303 
L 188.898718 154.985739 
L 194.401338 164.069076 
L 199.903957 180.202087 
L 205.406576 197.805196 
L 210.909196 217.978654 
L 216.411815 234.753909 
L 221.914435 238.589675 
L 227.417054 228.306121 
L 232.919674 212.754394 
L 238.422293 196.961783 
L 243.924912 184.128861 
L 249.427532 173.798195 
L 254.930151 167.804338 
L 260.432771 162.999298 
L 265.93539 159.52826 
L 271.438009 156.645069 
L 276.940629 153.940269 
L 282.443248 151.733593 
L 287.945868 151.246957 
L 293.448487 148.764468 
L 298.951107 148.101892 
L 304.453726 147.101203 
L 309.956345 146.51307 
L 315.458965 145.421235 
L 320.961584 145.246569 
L 326.464204 145.578921 
L 331.966823 143.63119 
L 337.469442 143.281651 
L 342.972062 143.299424 
L 348.474681 142.50862 
L 353.977301 142.484492 
L 359.47992 142.826456 
L 364.982539 141.287595 
L 370.485159 141.787292 
L 375.987778 141.634973 
L 381.490398 141.519657 
" clip-path="url(#pd8ac88f058)" style="fill: none; stroke: #26ad81; stroke-width: 1.5; stroke-linecap: square"/>
   </g>
   <g id="line2d_32">
    <path d="M 56.835852 128.914416 
L 62.338472 129.859574 
L 67.841091 129.603067 
L 73.343711 129.768163 
L 78.84633 130.475969 
L 84.348949 130.332115 
L 89.851569 130.104665 
L 95.354188 130.530736 
L 100.856808 130.382663 
L 106.359427 129.74841 
L 111.862046 130.577448 
L 117.364666 130.397104 
L 122.867285 131.004058 
L 128.369905 131.403404 
L 133.872524 131.493631 
L 139.375143 130.831054 
L 144.877763 132.585668 
L 150.380382 132.98527 
L 155.883002 132.785394 
L 161.385621 133.624342 
L 166.888241 135.353767 
L 172.39086 137.82309 
L 177.893479 139.768969 
L 183.396099 143.362384 
L 188.898718 149.187052 
L 194.401338 158.011206 
L 199.903957 172.082395 
L 205.406576 193.911098 
L 210.909196 213.846383 
L 216.411815 232.532733 
L 221.914435 234.908462 
L 227.417054 223.674919 
L 232.919674 207.782409 
L 238.422293 188.553252 
L 243.924912 175.271131 
L 249.427532 168.70236 
L 254.930151 162.801569 
L 260.432771 156.541363 
L 265.93539 152.259848 
L 271.438009 150.202978 
L 276.940629 146.998367 
L 282.443248 144.975016 
L 287.945868 143.669395 
L 293.448487 143.077162 
L 298.951107 141.636696 
L 304.453726 140.530157 
L 309.956345 138.63118 
L 315.458965 138.493279 
L 320.961584 137.441143 
L 326.464204 137.627419 
L 331.966823 136.829131 
L 337.469442 136.725858 
L 342.972062 136.046676 
L 348.474681 135.629244 
L 353.977301 135.340802 
L 359.47992 134.852357 
L 364.982539 134.232943 
L 370.485159 134.644097 
L 375.987778 134.037847 
L 381.490398 133.33655 
" clip-path="url(#pd8ac88f058)" style="fill: none; stroke: #31b57b; stroke-width: 1.5; stroke-linecap: square"/>
   </g>
   <g id="line2d_33">
    <path d="M 56.835852 123.196602 
L 62.338472 123.102596 
L 67.841091 122.789697 
L 73.343711 122.648339 
L 78.84633 123.669314 
L 84.348949 123.118671 
L 89.851569 123.22648 
L 95.354188 123.965704 
L 100.856808 122.293479 
L 106.359427 123.766913 
L 111.862046 123.606775 
L 117.364666 123.487658 
L 122.867285 123.379227 
L 128.369905 123.337605 
L 133.872524 123.832035 
L 139.375143 123.877332 
L 144.877763 125.056613 
L 150.380382 126.031138 
L 155.883002 127.035548 
L 161.385621 127.129671 
L 166.888241 128.499386 
L 172.39086 129.987157 
L 177.893479 133.902688 
L 183.396099 136.611914 
L 188.898718 142.587937 
L 194.401338 152.225778 
L 199.903957 168.553871 
L 205.406576 190.47073 
L 210.909196 211.503142 
L 216.411815 229.175909 
L 221.914435 232.647785 
L 227.417054 219.334788 
L 232.919674 202.54047 
L 238.422293 185.251286 
L 243.924912 170.775309 
L 249.427532 162.43239 
L 254.930151 153.815522 
L 260.432771 148.505416 
L 265.93539 146.593885 
L 271.438009 143.410204 
L 276.940629 139.518201 
L 282.443248 138.852513 
L 287.945868 136.093925 
L 293.448487 135.594687 
L 298.951107 133.717952 
L 304.453726 133.982377 
L 309.956345 131.714728 
L 315.458965 131.009503 
L 320.961584 130.701782 
L 326.464204 129.43578 
L 331.966823 129.690889 
L 337.469442 128.689326 
L 342.972062 128.523686 
L 348.474681 127.721435 
L 353.977301 127.332613 
L 359.47992 127.625313 
L 364.982539 127.627786 
L 370.485159 127.114624 
L 375.987778 126.896864 
L 381.490398 126.151629 
" clip-path="url(#pd8ac88f058)" style="fill: none; stroke: #3fbc73; stroke-width: 1.5; stroke-linecap: square"/>
   </g>
   <g id="line2d_34">
    <path d="M 56.835852 114.303332 
L 62.338472 115.012999 
L 67.841091 115.683657 
L 73.343711 114.735343 
L 78.84633 115.610567 
L 84.348949 115.533048 
L 89.851569 115.336705 
L 95.354188 115.706977 
L 100.856808 114.451317 
L 106.359427 116.118703 
L 111.862046 116.102739 
L 117.364666 116.153155 
L 122.867285 115.978676 
L 128.369905 116.248632 
L 133.872524 116.515681 
L 139.375143 116.957216 
L 144.877763 116.309704 
L 150.380382 117.463889 
L 155.883002 118.799699 
L 161.385621 119.579988 
L 166.888241 121.0636 
L 172.39086 123.497584 
L 177.893479 126.235494 
L 183.396099 129.877904 
L 188.898718 136.55215 
L 194.401338 146.644651 
L 199.903957 163.000269 
L 205.406576 186.000269 
L 210.909196 209.854644 
L 216.411815 226.684002 
L 221.914435 228.845248 
L 227.417054 216.169795 
L 232.919674 198.359577 
L 238.422293 180.612777 
L 243.924912 165.629245 
L 249.427532 156.180449 
L 254.930151 149.136038 
L 260.432771 143.389775 
L 265.93539 140.424116 
L 271.438009 135.993042 
L 276.940629 134.226354 
L 282.443248 131.159076 
L 287.945868 129.591817 
L 293.448487 128.290174 
L 298.951107 126.684224 
L 304.453726 126.130233 
L 309.956345 125.128626 
L 315.458965 124.788303 
L 320.961584 123.174588 
L 326.464204 123.718127 
L 331.966823 122.604637 
L 337.469442 121.56404 
L 342.972062 122.438189 
L 348.474681 120.525998 
L 353.977301 121.178244 
L 359.47992 119.683971 
L 364.982539 119.496704 
L 370.485159 120.053002 
L 375.987778 120.043609 
L 381.490398 119.291269 
" clip-path="url(#pd8ac88f058)" style="fill: none; stroke: #50c46a; stroke-width: 1.5; stroke-linecap: square"/>
   </g>
   <g id="line2d_35">
    <path d="M 56.835852 106.996437 
L 62.338472 107.906653 
L 67.841091 107.956066 
L 73.343711 107.713869 
L 78.84633 108.147381 
L 84.348949 106.88532 
L 89.851569 107.567593 
L 95.354188 108.179118 
L 100.856808 107.231136 
L 106.359427 107.521739 
L 111.862046 109.461862 
L 117.364666 107.702292 
L 122.867285 108.717118 
L 128.369905 109.117222 
L 133.872524 108.598456 
L 139.375143 109.3768 
L 144.877763 109.342066 
L 150.380382 110.521505 
L 155.883002 111.036417 
L 161.385621 112.319735 
L 166.888241 114.448505 
L 172.39086 115.543371 
L 177.893479 119.09093 
L 183.396099 122.029192 
L 188.898718 128.13792 
L 194.401338 140.394954 
L 199.903957 158.141936 
L 205.406576 182.247414 
L 210.909196 204.094991 
L 216.411815 223.425426 
L 221.914435 224.987002 
L 227.417054 212.765888 
L 232.919674 193.613506 
L 238.422293 173.849629 
L 243.924912 158.914009 
L 249.427532 148.621588 
L 254.930151 142.869297 
L 260.432771 137.646448 
L 265.93539 133.265606 
L 271.438009 128.524542 
L 276.940629 126.350303 
L 282.443248 124.507645 
L 287.945868 121.541511 
L 293.448487 121.170223 
L 298.951107 120.013598 
L 304.453726 119.504448 
L 309.956345 117.254088 
L 315.458965 117.445597 
L 320.961584 116.566635 
L 326.464204 114.721711 
L 331.966823 115.620927 
L 337.469442 115.214043 
L 342.972062 113.624603 
L 348.474681 113.75308 
L 353.977301 113.129506 
L 359.47992 113.094859 
L 364.982539 112.284188 
L 370.485159 112.424189 
L 375.987778 111.053368 
L 381.490398 111.586231 
" clip-path="url(#pd8ac88f058)" style="fill: none; stroke: #63cb5f; stroke-width: 1.5; stroke-linecap: square"/>
   </g>
   <g id="line2d_36">
    <path d="M 56.835852 99.601774 
L 62.338472 100.694589 
L 67.841091 99.682771 
L 73.343711 100.049405 
L 78.84633 100.083383 
L 84.348949 99.553146 
L 89.851569 99.510892 
L 95.354188 100.517595 
L 100.856808 100.929832 
L 106.359427 100.263998 
L 111.862046 101.194595 
L 117.364666 100.414869 
L 122.867285 99.764325 
L 128.369905 101.308033 
L 133.872524 101.899539 
L 139.375143 103.165013 
L 144.877763 102.663016 
L 150.380382 103.077815 
L 155.883002 103.382965 
L 161.385621 104.479758 
L 166.888241 106.934982 
L 172.39086 107.777845 
L 177.893479 111.641263 
L 183.396099 115.721799 
L 188.898718 122.145638 
L 194.401338 135.399982 
L 199.903957 152.300502 
L 205.406576 177.947531 
L 210.909196 201.700414 
L 216.411815 220.509077 
L 221.914435 222.012364 
L 227.417054 207.70849 
L 232.919674 188.32873 
L 238.422293 168.905276 
L 243.924912 153.358222 
L 249.427532 142.465748 
L 254.930151 134.634151 
L 260.432771 129.935214 
L 265.93539 127.247256 
L 271.438009 121.850604 
L 276.940629 120.096054 
L 282.443248 116.609011 
L 287.945868 115.334774 
L 293.448487 113.649363 
L 298.951107 112.578658 
L 304.453726 112.281268 
L 309.956345 111.04707 
L 315.458965 110.330001 
L 320.961584 108.886076 
L 326.464204 108.436989 
L 331.966823 107.548533 
L 337.469442 107.668292 
L 342.972062 106.702094 
L 348.474681 106.648523 
L 353.977301 105.191409 
L 359.47992 104.407941 
L 364.982539 105.404303 
L 370.485159 104.861945 
L 375.987778 105.053522 
L 381.490398 103.69662 
" clip-path="url(#pd8ac88f058)" style="fill: none; stroke: #77d153; stroke-width: 1.5; stroke-linecap: square"/>
   </g>
   <g id="line2d_37">
    <path d="M 56.835852 92.688722 
L 62.338472 91.562735 
L 67.841091 91.255737 
L 73.343711 92.202932 
L 78.84633 92.544126 
L 84.348949 92.602297 
L 89.851569 92.891921 
L 95.354188 92.942803 
L 100.856808 92.871412 
L 106.359427 93.340046 
L 111.862046 93.379727 
L 117.364666 94.010545 
L 122.867285 93.494568 
L 128.369905 93.261971 
L 133.872524 94.2272 
L 139.375143 93.458823 
L 144.877763 95.104067 
L 150.380382 96.272562 
L 155.883002 95.351098 
L 161.385621 97.693792 
L 166.888241 98.54864 
L 172.39086 101.592397 
L 177.893479 103.469051 
L 183.396099 108.333553 
L 188.898718 116.223432 
L 194.401338 127.864911 
L 199.903957 149.048204 
L 205.406576 172.685183 
L 210.909196 199.132528 
L 216.411815 216.664535 
L 221.914435 218.260247 
L 227.417054 203.515513 
L 232.919674 181.541518 
L 238.422293 162.737426 
L 243.924912 148.384295 
L 249.427532 135.463263 
L 254.930151 129.035649 
L 260.432771 124.49061 
L 265.93539 119.068518 
L 271.438009 115.111588 
L 276.940629 112.061388 
L 282.443248 110.486642 
L 287.945868 108.152653 
L 293.448487 106.319012 
L 298.951107 104.928962 
L 304.453726 104.653157 
L 309.956345 102.363847 
L 315.458965 102.351579 
L 320.961584 101.991652 
L 326.464204 100.593868 
L 331.966823 100.393094 
L 337.469442 99.78334 
L 342.972062 100.155277 
L 348.474681 98.957113 
L 353.977301 98.200968 
L 359.47992 98.326633 
L 364.982539 97.203521 
L 370.485159 96.988027 
L 375.987778 97.003726 
L 381.490398 96.98698 
" clip-path="url(#pd8ac88f058)" style="fill: none; stroke: #8bd646; stroke-width: 1.5; stroke-linecap: square"/>
   </g>
   <g id="line2d_38">
    <path d="M 56.835852 83.854859 
L 62.338472 84.922139 
L 67.841091 84.942585 
L 73.343711 85.295599 
L 78.84633 84.455547 
L 84.348949 85.168916 
L 89.851569 84.069152 
L 95.354188 85.226543 
L 100.856808 84.193031 
L 106.359427 85.561285 
L 111.862046 86.180633 
L 117.364666 86.104106 
L 122.867285 85.344487 
L 128.369905 86.637889 
L 133.872524 86.973391 
L 139.375143 86.802353 
L 144.877763 87.662578 
L 150.380382 87.842122 
L 155.883002 89.445546 
L 161.385621 89.626744 
L 166.888241 90.962355 
L 172.39086 94.131376 
L 177.893479 97.044963 
L 183.396099 102.581736 
L 188.898718 108.855065 
L 194.401338 123.115431 
L 199.903957 143.375181 
L 205.406576 167.708839 
L 210.909196 195.037939 
L 216.411815 214.636001 
L 221.914435 215.326587 
L 227.417054 199.278794 
L 232.919674 177.039608 
L 238.422293 157.878679 
L 243.924912 140.333862 
L 249.427532 130.017113 
L 254.930151 122.939531 
L 260.432771 117.356129 
L 265.93539 112.311273 
L 271.438009 108.565219 
L 276.940629 105.300751 
L 282.443248 102.59641 
L 287.945868 101.334159 
L 293.448487 100.009491 
L 298.951107 98.534089 
L 304.453726 97.29395 
L 309.956345 96.419991 
L 315.458965 95.264981 
L 320.961584 94.726318 
L 326.464204 93.4958 
L 331.966823 93.895728 
L 337.469442 93.163129 
L 342.972062 91.660438 
L 348.474681 91.034939 
L 353.977301 92.192777 
L 359.47992 90.833176 
L 364.982539 90.013959 
L 370.485159 90.074538 
L 375.987778 90.441637 
L 381.490398 89.304506 
" clip-path="url(#pd8ac88f058)" style="fill: none; stroke: #a2da37; stroke-width: 1.5; stroke-linecap: square"/>
   </g>
   <g id="line2d_39">
    <path d="M 56.835852 77.358088 
L 62.338472 77.912525 
L 67.841091 76.647273 
L 73.343711 77.343594 
L 78.84633 77.124574 
L 84.348949 77.4139 
L 89.851569 77.608075 
L 95.354188 77.344158 
L 100.856808 77.520295 
L 106.359427 77.761713 
L 111.862046 78.260562 
L 117.364666 77.573431 
L 122.867285 77.155318 
L 128.369905 78.289339 
L 133.872524 77.974314 
L 139.375143 79.399126 
L 144.877763 79.838445 
L 150.380382 80.227807 
L 155.883002 81.32077 
L 161.385621 81.767751 
L 166.888241 84.667825 
L 172.39086 86.845155 
L 177.893479 89.80931 
L 183.396099 94.101771 
L 188.898718 102.837556 
L 194.401338 118.0248 
L 199.903957 137.457327 
L 205.406576 164.410559 
L 210.909196 193.674267 
L 216.411815 212.851137 
L 221.914435 211.779849 
L 227.417054 195.035494 
L 232.919674 172.549793 
L 238.422293 151.852931 
L 243.924912 135.594887 
L 249.427532 125.056541 
L 254.930151 116.053349 
L 260.432771 110.361366 
L 265.93539 105.805621 
L 271.438009 102.543843 
L 276.940629 97.645896 
L 282.443248 96.791524 
L 287.945868 94.597543 
L 293.448487 92.706074 
L 298.951107 91.804968 
L 304.453726 89.68595 
L 309.956345 89.758709 
L 315.458965 87.79209 
L 320.961584 86.991894 
L 326.464204 86.587328 
L 331.966823 85.894934 
L 337.469442 85.430736 
L 342.972062 84.518006 
L 348.474681 84.516416 
L 353.977301 83.674995 
L 359.47992 83.733249 
L 364.982539 82.952495 
L 370.485159 82.61597 
L 375.987778 82.852114 
L 381.490398 82.559767 
" clip-path="url(#pd8ac88f058)" style="fill: none; stroke: #bade28; stroke-width: 1.5; stroke-linecap: square"/>
   </g>
   <g id="line2d_40">
    <path d="M 56.835852 69.261949 
L 62.338472 70.061986 
L 67.841091 69.966893 
L 73.343711 69.955564 
L 78.84633 69.781882 
L 84.348949 69.204424 
L 89.851569 71.244521 
L 95.354188 70.03887 
L 100.856808 70.780274 
L 106.359427 70.756464 
L 111.862046 69.52023 
L 117.364666 69.299124 
L 122.867285 70.193856 
L 128.369905 70.504735 
L 133.872524 71.511848 
L 139.375143 71.635218 
L 144.877763 72.385546 
L 150.380382 72.434589 
L 155.883002 74.619284 
L 161.385621 75.633849 
L 166.888241 76.890438 
L 172.39086 79.09165 
L 177.893479 83.167019 
L 183.396099 88.928442 
L 188.898718 96.95535 
L 194.401338 110.616319 
L 199.903957 130.562731 
L 205.406576 161.520514 
L 210.909196 189.756492 
L 216.411815 209.096724 
L 221.914435 208.56329 
L 227.417054 190.580761 
L 232.919674 166.251358 
L 238.422293 144.619798 
L 243.924912 128.618089 
L 249.427532 117.642269 
L 254.930151 108.707976 
L 260.432771 104.093659 
L 265.93539 98.151755 
L 271.438009 94.606338 
L 276.940629 92.086846 
L 282.443248 90.186424 
L 287.945868 86.941843 
L 293.448487 85.589334 
L 298.951107 85.235825 
L 304.453726 82.514732 
L 309.956345 81.884292 
L 315.458965 80.638742 
L 320.961584 80.144067 
L 326.464204 78.711484 
L 331.966823 78.62585 
L 337.469442 77.662935 
L 342.972062 77.303484 
L 348.474681 77.000754 
L 353.977301 76.171935 
L 359.47992 75.328198 
L 364.982539 76.155176 
L 370.485159 76.10471 
L 375.987778 75.56149 
L 381.490398 74.567887 
" clip-path="url(#pd8ac88f058)" style="fill: none; stroke: #d2e21b; stroke-width: 1.5; stroke-linecap: square"/>
   </g>
   <g id="line2d_41">
    <path d="M 56.835852 62.222204 
L 62.338472 63.074574 
L 67.841091 61.700342 
L 73.343711 61.476019 
L 78.84633 62.333986 
L 84.348949 62.324377 
L 89.851569 62.103218 
L 95.354188 62.551997 
L 100.856808 63.138957 
L 106.359427 62.944485 
L 111.862046 63.243917 
L 117.364666 63.064529 
L 122.867285 63.662461 
L 128.369905 63.525057 
L 133.872524 63.11604 
L 139.375143 65.167512 
L 144.877763 65.203817 
L 150.380382 65.732047 
L 155.883002 66.421171 
L 161.385621 67.14279 
L 166.888241 70.514645 
L 172.39086 72.304733 
L 177.893479 76.569954 
L 183.396099 80.92698 
L 188.898718 89.523605 
L 194.401338 104.325264 
L 199.903957 127.043701 
L 205.406576 156.612854 
L 210.909196 186.521053 
L 216.411815 206.481688 
L 221.914435 205.778908 
L 227.417054 186.198946 
L 232.919674 162.550142 
L 238.422293 141.177823 
L 243.924912 123.085529 
L 249.427532 110.01441 
L 254.930151 102.164944 
L 260.432771 95.821082 
L 265.93539 92.851365 
L 271.438009 87.600203 
L 276.940629 84.190362 
L 282.443248 82.61122 
L 287.945868 79.883916 
L 293.448487 78.70397 
L 298.951107 77.165156 
L 304.453726 75.550058 
L 309.956345 74.648189 
L 315.458965 73.570956 
L 320.961584 72.946321 
L 326.464204 71.840104 
L 331.966823 70.686834 
L 337.469442 71.014798 
L 342.972062 69.531508 
L 348.474681 68.953959 
L 353.977301 68.6006 
L 359.47992 68.512583 
L 364.982539 68.231901 
L 370.485159 68.143562 
L 375.987778 67.563277 
L 381.490398 67.498508 
" clip-path="url(#pd8ac88f058)" style="fill: none; stroke: #eae51a; stroke-width: 1.5; stroke-linecap: square"/>
   </g>
   <g id="line2d_42">
    <path d="M 56.835852 54.35912 
L 62.338472 54.623889 
L 67.841091 54.446427 
L 73.343711 53.856 
L 78.84633 54.6527 
L 84.348949 54.992232 
L 89.851569 54.84165 
L 95.354188 55.39562 
L 100.856808 55.126407 
L 106.359427 55.459337 
L 111.862046 54.899082 
L 117.364666 56.617872 
L 122.867285 55.879088 
L 128.369905 56.343462 
L 133.872524 56.516923 
L 139.375143 56.296895 
L 144.877763 57.791024 
L 150.380382 58.598729 
L 155.883002 59.572766 
L 161.385621 60.350346 
L 166.888241 62.15877 
L 172.39086 65.563525 
L 177.893479 69.862119 
L 183.396099 73.958477 
L 188.898718 84.577266 
L 194.401338 98.783703 
L 199.903957 121.950594 
L 205.406576 153.40357 
L 210.909196 183.750539 
L 216.411815 203.927317 
L 221.914435 201.490147 
L 227.417054 182.285669 
L 232.919674 156.726864 
L 238.422293 134.293005 
L 243.924912 117.040339 
L 249.427532 103.51993 
L 254.930151 96.135255 
L 260.432771 90.922508 
L 265.93539 84.929589 
L 271.438009 80.382465 
L 276.940629 77.383608 
L 282.443248 75.200716 
L 287.945868 73.069029 
L 293.448487 70.89208 
L 298.951107 70.383635 
L 304.453726 69.040042 
L 309.956345 66.877166 
L 315.458965 66.145407 
L 320.961584 66.172542 
L 326.464204 64.952062 
L 331.966823 64.293677 
L 337.469442 63.538287 
L 342.972062 63.853491 
L 348.474681 61.303428 
L 353.977301 61.744179 
L 359.47992 61.933791 
L 364.982539 61.053927 
L 370.485159 60.194075 
L 375.987778 61.048343 
L 381.490398 59.78684 
" clip-path="url(#pd8ac88f058)" style="fill: none; stroke: #fde725; stroke-width: 1.5; stroke-linecap: square"/>
   </g>
   <g id="patch_3">
    <path d="M 40.603125 307.872 
L 40.603125 41.76 
" style="fill: none; stroke: #000000; stroke-width: 0.8; stroke-linejoin: miter; stroke-linecap: square"/>
   </g>
   <g id="patch_4">
    <path d="M 397.723125 307.872 
L 397.723125 41.76 
" style="fill: none; stroke: #000000; stroke-width: 0.8; stroke-linejoin: miter; stroke-linecap: square"/>
   </g>
   <g id="patch_5">
    <path d="M 40.603125 307.872 
L 397.723125 307.872 
" style="fill: none; stroke: #000000; stroke-width: 0.8; stroke-linejoin: miter; stroke-linecap: square"/>
   </g>
   <g id="patch_6">
    <path d="M 40.603125 41.76 
L 397.723125 41.76 
" style="fill: none; stroke: #000000; stroke-width: 0.8; stroke-linejoin: miter; stroke-linecap: square"/>
   </g>
   <g id="legend_1">
    <g id="patch_7">
     <path d="M 417.579125 307.872 
L 631.4635 307.872 
Q 633.4635 307.872 633.4635 305.872 
L 633.4635 145.412625 
Q 633.4635 143.412625 631.4635 143.412625 
L 417.579125 143.412625 
Q 415.579125 143.412625 415.579125 145.412625 
L 415.579125 305.872 
Q 415.579125 307.872 417.579125 307.872 
z
" style="fill: #ffffff; opacity: 0.8; stroke: #cccccc; stroke-linejoin: miter"/>
    </g>
    <g id="text_16">
     <!-- Readout pulse amplitude () -->
     <g transform="translate(456.420531 155.011063) scale(0.1 -0.1)">
      <defs>
       <path id="DejaVuSans-52" d="M 2841 2188 
Q 3044 2119 3236 1894 
Q 3428 1669 3622 1275 
L 4263 0 
L 3584 0 
L 2988 1197 
Q 2756 1666 2539 1819 
Q 2322 1972 1947 1972 
L 1259 1972 
L 1259 0 
L 628 0 
L 628 4666 
L 2053 4666 
Q 2853 4666 3247 4331 
Q 3641 3997 3641 3322 
Q 3641 2881 3436 2590 
Q 3231 2300 2841 2188 
z
M 1259 4147 
L 1259 2491 
L 2053 2491 
Q 2509 2491 2742 2702 
Q 2975 2913 2975 3322 
Q 2975 3731 2742 3939 
Q 2509 4147 2053 4147 
L 1259 4147 
z
" transform="scale(0.015625)"/>
       <path id="DejaVuSans-6f" d="M 1959 3097 
Q 1497 3097 1228 2736 
Q 959 2375 959 1747 
Q 959 1119 1226 758 
Q 1494 397 1959 397 
Q 2419 397 2687 759 
Q 2956 1122 2956 1747 
Q 2956 2369 2687 2733 
Q 2419 3097 1959 3097 
z
M 1959 3584 
Q 2709 3584 3137 3096 
Q 3566 2609 3566 1747 
Q 3566 888 3137 398 
Q 2709 -91 1959 -91 
Q 1206 -91 779 398 
Q 353 888 353 1747 
Q 353 2609 779 3096 
Q 1206 3584 1959 3584 
z
" transform="scale(0.015625)"/>
       <path id="DejaVuSans-70" d="M 1159 525 
L 1159 -1331 
L 581 -1331 
L 581 3500 
L 1159 3500 
L 1159 2969 
Q 1341 3281 1617 3432 
Q 1894 3584 2278 3584 
Q 2916 3584 3314 3078 
Q 3713 2572 3713 1747 
Q 3713 922 3314 415 
Q 2916 -91 2278 -91 
Q 1894 -91 1617 61 
Q 1341 213 1159 525 
z
M 3116 1747 
Q 3116 2381 2855 2742 
Q 2594 3103 2138 3103 
Q 1681 3103 1420 2742 
Q 1159 2381 1159 1747 
Q 1159 1113 1420 752 
Q 1681 391 2138 391 
Q 2594 391 2855 752 
Q 3116 1113 3116 1747 
z
" transform="scale(0.015625)"/>
       <path id="DejaVuSans-6c" d="M 603 4863 
L 1178 4863 
L 1178 0 
L 603 0 
L 603 4863 
z
" transform="scale(0.015625)"/>
       <path id="DejaVuSans-73" d="M 2834 3397 
L 2834 2853 
Q 2591 2978 2328 3040 
Q 2066 3103 1784 3103 
Q 1356 3103 1142 2972 
Q 928 2841 928 2578 
Q 928 2378 1081 2264 
Q 1234 2150 1697 2047 
L 1894 2003 
Q 2506 1872 2764 1633 
Q 3022 1394 3022 966 
Q 3022 478 2636 193 
Q 2250 -91 1575 -91 
Q 1294 -91 989 -36 
Q 684 19 347 128 
L 347 722 
Q 666 556 975 473 
Q 1284 391 1588 391 
Q 1994 391 2212 530 
Q 2431 669 2431 922 
Q 2431 1156 2273 1281 
Q 2116 1406 1581 1522 
L 1381 1569 
Q 847 1681 609 1914 
Q 372 2147 372 2553 
Q 372 3047 722 3315 
Q 1072 3584 1716 3584 
Q 2034 3584 2315 3537 
Q 2597 3491 2834 3397 
z
" transform="scale(0.015625)"/>
       <path id="DejaVuSans-28" d="M 1984 4856 
Q 1566 4138 1362 3434 
Q 1159 2731 1159 2009 
Q 1159 1288 1364 580 
Q 1569 -128 1984 -844 
L 1484 -844 
Q 1016 -109 783 600 
Q 550 1309 550 2009 
Q 550 2706 781 3412 
Q 1013 4119 1484 4856 
L 1984 4856 
z
" transform="scale(0.015625)"/>
       <path id="DejaVuSans-29" d="M 513 4856 
L 1013 4856 
Q 1481 4119 1714 3412 
Q 1947 2706 1947 2009 
Q 1947 1309 1714 600 
Q 1481 -109 1013 -844 
L 513 -844 
Q 928 -128 1133 580 
Q 1338 1288 1338 2009 
Q 1338 2731 1133 3434 
Q 928 4138 513 4856 
z
" transform="scale(0.015625)"/>
      </defs>
      <use xlink:href="#DejaVuSans-52"/>
      <use xlink:href="#DejaVuSans-65" x="64.982422"/>
      <use xlink:href="#DejaVuSans-61" x="126.505859"/>
      <use xlink:href="#DejaVuSans-64" x="187.785156"/>
      <use xlink:href="#DejaVuSans-6f" x="251.261719"/>
      <use xlink:href="#DejaVuSans-75" x="312.443359"/>
      <use xlink:href="#DejaVuSans-74" x="375.822266"/>
      <use xlink:href="#DejaVuSans-20" x="415.03125"/>
      <use xlink:href="#DejaVuSans-70" x="446.818359"/>
      <use xlink:href="#DejaVuSans-75" x="510.294922"/>
      <use xlink:href="#DejaVuSans-6c" x="573.673828"/>
      <use xlink:href="#DejaVuSans-73" x="601.457031"/>
      <use xlink:href="#DejaVuSans-65" x="653.556641"/>
      <use xlink:href="#DejaVuSans-20" x="715.080078"/>
      <use xlink:href="#DejaVuSans-61" x="746.867188"/>
      <use xlink:href="#DejaVuSans-6d" x="808.146484"/>
      <use xlink:href="#DejaVuSans-70" x="905.558594"/>
      <use xlink:href="#DejaVuSans-6c" x="969.035156"/>
      <use xlink:href="#DejaVuSans-69" x="996.818359"/>
      <use xlink:href="#DejaVuSans-74" x="1024.601562"/>
      <use xlink:href="#DejaVuSans-75" x="1063.810547"/>
      <use xlink:href="#DejaVuSans-64" x="1127.189453"/>
      <use xlink:href="#DejaVuSans-65" x="1190.666016"/>
      <use xlink:href="#DejaVuSans-20" x="1252.189453"/>
      <use xlink:href="#DejaVuSans-28" x="1283.976562"/>
      <use xlink:href="#DejaVuSans-29" x="1322.990234"/>
     </g>
    </g>
    <g id="line2d_43">
     <path d="M 419.579125 166.189188 
L 429.579125 166.189188 
L 439.579125 166.189188 
" style="fill: none; stroke: #440154; stroke-width: 1.5; stroke-linecap: square"/>
    </g>
    <g id="text_17">
     <!-- 0.1 -->
     <g transform="translate(447.579125 169.689188) scale(0.1 -0.1)">
      <defs>
       <path id="DejaVuSans-2e" d="M 684 794 
L 1344 794 
L 1344 0 
L 684 0 
L 684 794 
z
" transform="scale(0.015625)"/>
      </defs>
      <use xlink:href="#DejaVuSans-30"/>
      <use xlink:href="#DejaVuSans-2e" x="63.623047"/>
      <use xlink:href="#DejaVuSans-31" x="95.410156"/>
     </g>
    </g>
    <g id="line2d_44">
     <path d="M 419.579125 180.867313 
L 429.579125 180.867313 
L 439.579125 180.867313 
" style="fill: none; stroke: #470d60; stroke-width: 1.5; stroke-linecap: square"/>
    </g>
    <g id="text_18">
     <!-- 0.121 -->
     <g transform="translate(447.579125 184.367313) scale(0.1 -0.1)">
      <use xlink:href="#DejaVuSans-30"/>
      <use xlink:href="#DejaVuSans-2e" x="63.623047"/>
      <use xlink:href="#DejaVuSans-31" x="95.410156"/>
      <use xlink:href="#DejaVuSans-32" x="159.033203"/>
      <use xlink:href="#DejaVuSans-31" x="222.65625"/>
     </g>
    </g>
    <g id="line2d_45">
     <path d="M 419.579125 195.545438 
L 429.579125 195.545438 
L 439.579125 195.545438 
" style="fill: none; stroke: #481a6c; stroke-width: 1.5; stroke-linecap: square"/>
    </g>
    <g id="text_19">
     <!-- 0.141 -->
     <g transform="translate(447.579125 199.045438) scale(0.1 -0.1)">
      <defs>
       <path id="DejaVuSans-34" d="M 2419 4116 
L 825 1625 
L 2419 1625 
L 2419 4116 
z
M 2253 4666 
L 3047 4666 
L 3047 1625 
L 3713 1625 
L 3713 1100 
L 3047 1100 
L 3047 0 
L 2419 0 
L 2419 1100 
L 313 1100 
L 313 1709 
L 2253 4666 
z
" transform="scale(0.015625)"/>
      </defs>
      <use xlink:href="#DejaVuSans-30"/>
      <use xlink:href="#DejaVuSans-2e" x="63.623047"/>
      <use xlink:href="#DejaVuSans-31" x="95.410156"/>
      <use xlink:href="#DejaVuSans-34" x="159.033203"/>
      <use xlink:href="#DejaVuSans-31" x="222.65625"/>
     </g>
    </g>
    <g id="line2d_46">
     <path d="M 419.579125 210.223563 
L 429.579125 210.223563 
L 439.579125 210.223563 
" style="fill: none; stroke: #482576; stroke-width: 1.5; stroke-linecap: square"/>
    </g>
    <g id="text_20">
     <!-- 0.162 -->
     <g transform="translate(447.579125 213.723563) scale(0.1 -0.1)">
      <use xlink:href="#DejaVuSans-30"/>
      <use xlink:href="#DejaVuSans-2e" x="63.623047"/>
      <use xlink:href="#DejaVuSans-31" x="95.410156"/>
      <use xlink:href="#DejaVuSans-36" x="159.033203"/>
      <use xlink:href="#DejaVuSans-32" x="222.65625"/>
     </g>
    </g>
    <g id="line2d_47">
     <path d="M 419.579125 224.901688 
L 429.579125 224.901688 
L 439.579125 224.901688 
" style="fill: none; stroke: #46307e; stroke-width: 1.5; stroke-linecap: square"/>
    </g>
    <g id="text_21">
     <!-- 0.183 -->
     <g transform="translate(447.579125 228.401688) scale(0.1 -0.1)">
      <defs>
       <path id="DejaVuSans-33" d="M 2597 2516 
Q 3050 2419 3304 2112 
Q 3559 1806 3559 1356 
Q 3559 666 3084 287 
Q 2609 -91 1734 -91 
Q 1441 -91 1130 -33 
Q 819 25 488 141 
L 488 750 
Q 750 597 1062 519 
Q 1375 441 1716 441 
Q 2309 441 2620 675 
Q 2931 909 2931 1356 
Q 2931 1769 2642 2001 
Q 2353 2234 1838 2234 
L 1294 2234 
L 1294 2753 
L 1863 2753 
Q 2328 2753 2575 2939 
Q 2822 3125 2822 3475 
Q 2822 3834 2567 4026 
Q 2313 4219 1838 4219 
Q 1578 4219 1281 4162 
Q 984 4106 628 3988 
L 628 4550 
Q 988 4650 1302 4700 
Q 1616 4750 1894 4750 
Q 2613 4750 3031 4423 
Q 3450 4097 3450 3541 
Q 3450 3153 3228 2886 
Q 3006 2619 2597 2516 
z
" transform="scale(0.015625)"/>
      </defs>
      <use xlink:href="#DejaVuSans-30"/>
      <use xlink:href="#DejaVuSans-2e" x="63.623047"/>
      <use xlink:href="#DejaVuSans-31" x="95.410156"/>
      <use xlink:href="#DejaVuSans-38" x="159.033203"/>
      <use xlink:href="#DejaVuSans-33" x="222.65625"/>
     </g>
    </g>
    <g id="line2d_48">
     <path d="M 419.579125 239.579813 
L 429.579125 239.579813 
L 439.579125 239.579813 
" style="fill: none; stroke: #443b84; stroke-width: 1.5; stroke-linecap: square"/>
    </g>
    <g id="text_22">
     <!-- 0.203 -->
     <g transform="translate(447.579125 243.079813) scale(0.1 -0.1)">
      <use xlink:href="#DejaVuSans-30"/>
      <use xlink:href="#DejaVuSans-2e" x="63.623047"/>
      <use xlink:href="#DejaVuSans-32" x="95.410156"/>
      <use xlink:href="#DejaVuSans-30" x="159.033203"/>
      <use xlink:href="#DejaVuSans-33" x="222.65625"/>
     </g>
    </g>
    <g id="line2d_49">
     <path d="M 419.579125 254.257938 
L 429.579125 254.257938 
L 439.579125 254.257938 
" style="fill: none; stroke: #404588; stroke-width: 1.5; stroke-linecap: square"/>
    </g>
    <g id="text_23">
     <!-- 0.224 -->
     <g transform="translate(447.579125 257.757938) scale(0.1 -0.1)">
      <use xlink:href="#DejaVuSans-30"/>
      <use xlink:href="#DejaVuSans-2e" x="63.623047"/>
      <use xlink:href="#DejaVuSans-32" x="95.410156"/>
      <use xlink:href="#DejaVuSans-32" x="159.033203"/>
      <use xlink:href="#DejaVuSans-34" x="222.65625"/>
     </g>
    </g>
    <g id="line2d_50">
     <path d="M 419.579125 268.936062 
L 429.579125 268.936062 
L 439.579125 268.936062 
" style="fill: none; stroke: #3c4f8a; stroke-width: 1.5; stroke-linecap: square"/>
    </g>
    <g id="text_24">
     <!-- 0.245 -->
     <g transform="translate(447.579125 272.436062) scale(0.1 -0.1)">
      <use xlink:href="#DejaVuSans-30"/>
      <use xlink:href="#DejaVuSans-2e" x="63.623047"/>
      <use xlink:href="#DejaVuSans-32" x="95.410156"/>
      <use xlink:href="#DejaVuSans-34" x="159.033203"/>
      <use xlink:href="#DejaVuSans-35" x="222.65625"/>
     </g>
    </g>
    <g id="line2d_51">
     <path d="M 419.579125 283.614188 
L 429.579125 283.614188 
L 439.579125 283.614188 
" style="fill: none; stroke: #38598c; stroke-width: 1.5; stroke-linecap: square"/>
    </g>
    <g id="text_25">
     <!-- 0.266 -->
     <g transform="translate(447.579125 287.114188) scale(0.1 -0.1)">
      <use xlink:href="#DejaVuSans-30"/>
      <use xlink:href="#DejaVuSans-2e" x="63.623047"/>
      <use xlink:href="#DejaVuSans-32" x="95.410156"/>
      <use xlink:href="#DejaVuSans-36" x="159.033203"/>
      <use xlink:href="#DejaVuSans-36" x="222.65625"/>
     </g>
    </g>
    <g id="line2d_52">
     <path d="M 419.579125 298.292312 
L 429.579125 298.292312 
L 439.579125 298.292312 
" style="fill: none; stroke: #33628d; stroke-width: 1.5; stroke-linecap: square"/>
    </g>
    <g id="text_26">
     <!-- 0.286 -->
     <g transform="translate(447.579125 301.792312) scale(0.1 -0.1)">
      <use xlink:href="#DejaVuSans-30"/>
      <use xlink:href="#DejaVuSans-2e" x="63.623047"/>
      <use xlink:href="#DejaVuSans-32" x="95.410156"/>
      <use xlink:href="#DejaVuSans-38" x="159.033203"/>
      <use xlink:href="#DejaVuSans-36" x="222.65625"/>
     </g>
    </g>
    <g id="line2d_53">
     <path d="M 496.20725 166.189188 
L 506.20725 166.189188 
L 516.20725 166.189188 
" style="fill: none; stroke: #2f6b8e; stroke-width: 1.5; stroke-linecap: square"/>
    </g>
    <g id="text_27">
     <!-- 0.307 -->
     <g transform="translate(524.20725 169.689188) scale(0.1 -0.1)">
      <use xlink:href="#DejaVuSans-30"/>
      <use xlink:href="#DejaVuSans-2e" x="63.623047"/>
      <use xlink:href="#DejaVuSans-33" x="95.410156"/>
      <use xlink:href="#DejaVuSans-30" x="159.033203"/>
      <use xlink:href="#DejaVuSans-37" x="222.65625"/>
     </g>
    </g>
    <g id="line2d_54">
     <path d="M 496.20725 180.867313 
L 506.20725 180.867313 
L 516.20725 180.867313 
" style="fill: none; stroke: #2c738e; stroke-width: 1.5; stroke-linecap: square"/>
    </g>
    <g id="text_28">
     <!-- 0.328 -->
     <g transform="translate(524.20725 184.367313) scale(0.1 -0.1)">
      <use xlink:href="#DejaVuSans-30"/>
      <use xlink:href="#DejaVuSans-2e" x="63.623047"/>
      <use xlink:href="#DejaVuSans-33" x="95.410156"/>
      <use xlink:href="#DejaVuSans-32" x="159.033203"/>
      <use xlink:href="#DejaVuSans-38" x="222.65625"/>
     </g>
    </g>
    <g id="line2d_55">
     <path d="M 496.20725 195.545438 
L 506.20725 195.545438 
L 516.20725 195.545438 
" style="fill: none; stroke: #297b8e; stroke-width: 1.5; stroke-linecap: square"/>
    </g>
    <g id="text_29">
     <!-- 0.348 -->
     <g transform="translate(524.20725 199.045438) scale(0.1 -0.1)">
      <use xlink:href="#DejaVuSans-30"/>
      <use xlink:href="#DejaVuSans-2e" x="63.623047"/>
      <use xlink:href="#DejaVuSans-33" x="95.410156"/>
      <use xlink:href="#DejaVuSans-34" x="159.033203"/>
      <use xlink:href="#DejaVuSans-38" x="222.65625"/>
     </g>
    </g>
    <g id="line2d_56">
     <path d="M 496.20725 210.223563 
L 506.20725 210.223563 
L 516.20725 210.223563 
" style="fill: none; stroke: #25838e; stroke-width: 1.5; stroke-linecap: square"/>
    </g>
    <g id="text_30">
     <!-- 0.369 -->
     <g transform="translate(524.20725 213.723563) scale(0.1 -0.1)">
      <use xlink:href="#DejaVuSans-30"/>
      <use xlink:href="#DejaVuSans-2e" x="63.623047"/>
      <use xlink:href="#DejaVuSans-33" x="95.410156"/>
      <use xlink:href="#DejaVuSans-36" x="159.033203"/>
      <use xlink:href="#DejaVuSans-39" x="222.65625"/>
     </g>
    </g>
    <g id="line2d_57">
     <path d="M 496.20725 224.901688 
L 506.20725 224.901688 
L 516.20725 224.901688 
" style="fill: none; stroke: #228c8d; stroke-width: 1.5; stroke-linecap: square"/>
    </g>
    <g id="text_31">
     <!-- 0.39 -->
     <g transform="translate(524.20725 228.401688) scale(0.1 -0.1)">
      <use xlink:href="#DejaVuSans-30"/>
      <use xlink:href="#DejaVuSans-2e" x="63.623047"/>
      <use xlink:href="#DejaVuSans-33" x="95.410156"/>
      <use xlink:href="#DejaVuSans-39" x="159.033203"/>
     </g>
    </g>
    <g id="line2d_58">
     <path d="M 496.20725 239.579813 
L 506.20725 239.579813 
L 516.20725 239.579813 
" style="fill: none; stroke: #1f948c; stroke-width: 1.5; stroke-linecap: square"/>
    </g>
    <g id="text_32">
     <!-- 0.41 -->
     <g transform="translate(524.20725 243.079813) scale(0.1 -0.1)">
      <use xlink:href="#DejaVuSans-30"/>
      <use xlink:href="#DejaVuSans-2e" x="63.623047"/>
      <use xlink:href="#DejaVuSans-34" x="95.410156"/>
      <use xlink:href="#DejaVuSans-31" x="159.033203"/>
     </g>
    </g>
    <g id="line2d_59">
     <path d="M 496.20725 254.257938 
L 506.20725 254.257938 
L 516.20725 254.257938 
" style="fill: none; stroke: #1e9d89; stroke-width: 1.5; stroke-linecap: square"/>
    </g>
    <g id="text_33">
     <!-- 0.431 -->
     <g transform="translate(524.20725 257.757938) scale(0.1 -0.1)">
      <use xlink:href="#DejaVuSans-30"/>
      <use xlink:href="#DejaVuSans-2e" x="63.623047"/>
      <use xlink:href="#DejaVuSans-34" x="95.410156"/>
      <use xlink:href="#DejaVuSans-33" x="159.033203"/>
      <use xlink:href="#DejaVuSans-31" x="222.65625"/>
     </g>
    </g>
    <g id="line2d_60">
     <path d="M 496.20725 268.936062 
L 506.20725 268.936062 
L 516.20725 268.936062 
" style="fill: none; stroke: #21a585; stroke-width: 1.5; stroke-linecap: square"/>
    </g>
    <g id="text_34">
     <!-- 0.452 -->
     <g transform="translate(524.20725 272.436062) scale(0.1 -0.1)">
      <use xlink:href="#DejaVuSans-30"/>
      <use xlink:href="#DejaVuSans-2e" x="63.623047"/>
      <use xlink:href="#DejaVuSans-34" x="95.410156"/>
      <use xlink:href="#DejaVuSans-35" x="159.033203"/>
      <use xlink:href="#DejaVuSans-32" x="222.65625"/>
     </g>
    </g>
    <g id="line2d_61">
     <path d="M 496.20725 283.614188 
L 506.20725 283.614188 
L 516.20725 283.614188 
" style="fill: none; stroke: #26ad81; stroke-width: 1.5; stroke-linecap: square"/>
    </g>
    <g id="text_35">
     <!-- 0.472 -->
     <g transform="translate(524.20725 287.114188) scale(0.1 -0.1)">
      <use xlink:href="#DejaVuSans-30"/>
      <use xlink:href="#DejaVuSans-2e" x="63.623047"/>
      <use xlink:href="#DejaVuSans-34" x="95.410156"/>
      <use xlink:href="#DejaVuSans-37" x="159.033203"/>
      <use xlink:href="#DejaVuSans-32" x="222.65625"/>
     </g>
    </g>
    <g id="line2d_62">
     <path d="M 496.20725 298.292312 
L 506.20725 298.292312 
L 516.20725 298.292312 
" style="fill: none; stroke: #31b57b; stroke-width: 1.5; stroke-linecap: square"/>
    </g>
    <g id="text_36">
     <!-- 0.493 -->
     <g transform="translate(524.20725 301.792312) scale(0.1 -0.1)">
      <use xlink:href="#DejaVuSans-30"/>
      <use xlink:href="#DejaVuSans-2e" x="63.623047"/>
      <use xlink:href="#DejaVuSans-34" x="95.410156"/>
      <use xlink:href="#DejaVuSans-39" x="159.033203"/>
      <use xlink:href="#DejaVuSans-33" x="222.65625"/>
     </g>
    </g>
    <g id="line2d_63">
     <path d="M 572.835375 166.189188 
L 582.835375 166.189188 
L 592.835375 166.189188 
" style="fill: none; stroke: #3fbc73; stroke-width: 1.5; stroke-linecap: square"/>
    </g>
    <g id="text_37">
     <!-- 0.514 -->
     <g transform="translate(600.835375 169.689188) scale(0.1 -0.1)">
      <use xlink:href="#DejaVuSans-30"/>
      <use xlink:href="#DejaVuSans-2e" x="63.623047"/>
      <use xlink:href="#DejaVuSans-35" x="95.410156"/>
      <use xlink:href="#DejaVuSans-31" x="159.033203"/>
      <use xlink:href="#DejaVuSans-34" x="222.65625"/>
     </g>
    </g>
    <g id="line2d_64">
     <path d="M 572.835375 180.867313 
L 582.835375 180.867313 
L 592.835375 180.867313 
" style="fill: none; stroke: #50c46a; stroke-width: 1.5; stroke-linecap: square"/>
    </g>
    <g id="text_38">
     <!-- 0.534 -->
     <g transform="translate(600.835375 184.367313) scale(0.1 -0.1)">
      <use xlink:href="#DejaVuSans-30"/>
      <use xlink:href="#DejaVuSans-2e" x="63.623047"/>
      <use xlink:href="#DejaVuSans-35" x="95.410156"/>
      <use xlink:href="#DejaVuSans-33" x="159.033203"/>
      <use xlink:href="#DejaVuSans-34" x="222.65625"/>
     </g>
    </g>
    <g id="line2d_65">
     <path d="M 572.835375 195.545438 
L 582.835375 195.545438 
L 592.835375 195.545438 
" style="fill: none; stroke: #63cb5f; stroke-width: 1.5; stroke-linecap: square"/>
    </g>
    <g id="text_39">
     <!-- 0.555 -->
     <g transform="translate(600.835375 199.045438) scale(0.1 -0.1)">
      <use xlink:href="#DejaVuSans-30"/>
      <use xlink:href="#DejaVuSans-2e" x="63.623047"/>
      <use xlink:href="#DejaVuSans-35" x="95.410156"/>
      <use xlink:href="#DejaVuSans-35" x="159.033203"/>
      <use xlink:href="#DejaVuSans-35" x="222.65625"/>
     </g>
    </g>
    <g id="line2d_66">
     <path d="M 572.835375 210.223563 
L 582.835375 210.223563 
L 592.835375 210.223563 
" style="fill: none; stroke: #77d153; stroke-width: 1.5; stroke-linecap: square"/>
    </g>
    <g id="text_40">
     <!-- 0.576 -->
     <g transform="translate(600.835375 213.723563) scale(0.1 -0.1)">
      <use xlink:href="#DejaVuSans-30"/>
      <use xlink:href="#DejaVuSans-2e" x="63.623047"/>
      <use xlink:href="#DejaVuSans-35" x="95.410156"/>
      <use xlink:href="#DejaVuSans-37" x="159.033203"/>
      <use xlink:href="#DejaVuSans-36" x="222.65625"/>
     </g>
    </g>
    <g id="line2d_67">
     <path d="M 572.835375 224.901688 
L 582.835375 224.901688 
L 592.835375 224.901688 
" style="fill: none; stroke: #8bd646; stroke-width: 1.5; stroke-linecap: square"/>
    </g>
    <g id="text_41">
     <!-- 0.597 -->
     <g transform="translate(600.835375 228.401688) scale(0.1 -0.1)">
      <use xlink:href="#DejaVuSans-30"/>
      <use xlink:href="#DejaVuSans-2e" x="63.623047"/>
      <use xlink:href="#DejaVuSans-35" x="95.410156"/>
      <use xlink:href="#DejaVuSans-39" x="159.033203"/>
      <use xlink:href="#DejaVuSans-37" x="222.65625"/>
     </g>
    </g>
    <g id="line2d_68">
     <path d="M 572.835375 239.579813 
L 582.835375 239.579813 
L 592.835375 239.579813 
" style="fill: none; stroke: #a2da37; stroke-width: 1.5; stroke-linecap: square"/>
    </g>
    <g id="text_42">
     <!-- 0.617 -->
     <g transform="translate(600.835375 243.079813) scale(0.1 -0.1)">
      <use xlink:href="#DejaVuSans-30"/>
      <use xlink:href="#DejaVuSans-2e" x="63.623047"/>
      <use xlink:href="#DejaVuSans-36" x="95.410156"/>
      <use xlink:href="#DejaVuSans-31" x="159.033203"/>
      <use xlink:href="#DejaVuSans-37" x="222.65625"/>
     </g>
    </g>
    <g id="line2d_69">
     <path d="M 572.835375 254.257938 
L 582.835375 254.257938 
L 592.835375 254.257938 
" style="fill: none; stroke: #bade28; stroke-width: 1.5; stroke-linecap: square"/>
    </g>
    <g id="text_43">
     <!-- 0.638 -->
     <g transform="translate(600.835375 257.757938) scale(0.1 -0.1)">
      <use xlink:href="#DejaVuSans-30"/>
      <use xlink:href="#DejaVuSans-2e" x="63.623047"/>
      <use xlink:href="#DejaVuSans-36" x="95.410156"/>
      <use xlink:href="#DejaVuSans-33" x="159.033203"/>
      <use xlink:href="#DejaVuSans-38" x="222.65625"/>
     </g>
    </g>
    <g id="line2d_70">
     <path d="M 572.835375 268.936062 
L 582.835375 268.936062 
L 592.835375 268.936062 
" style="fill: none; stroke: #d2e21b; stroke-width: 1.5; stroke-linecap: square"/>
    </g>
    <g id="text_44">
     <!-- 0.659 -->
     <g transform="translate(600.835375 272.436062) scale(0.1 -0.1)">
      <use xlink:href="#DejaVuSans-30"/>
      <use xlink:href="#DejaVuSans-2e" x="63.623047"/>
      <use xlink:href="#DejaVuSans-36" x="95.410156"/>
      <use xlink:href="#DejaVuSans-35" x="159.033203"/>
      <use xlink:href="#DejaVuSans-39" x="222.65625"/>
     </g>
    </g>
    <g id="line2d_71">
     <path d="M 572.835375 283.614188 
L 582.835375 283.614188 
L 592.835375 283.614188 
" style="fill: none; stroke: #eae51a; stroke-width: 1.5; stroke-linecap: square"/>
    </g>
    <g id="text_45">
     <!-- 0.679 -->
     <g transform="translate(600.835375 287.114188) scale(0.1 -0.1)">
      <use xlink:href="#DejaVuSans-30"/>
      <use xlink:href="#DejaVuSans-2e" x="63.623047"/>
      <use xlink:href="#DejaVuSans-36" x="95.410156"/>
      <use xlink:href="#DejaVuSans-37" x="159.033203"/>
      <use xlink:href="#DejaVuSans-39" x="222.65625"/>
     </g>
    </g>
    <g id="line2d_72">
     <path d="M 572.835375 298.292312 
L 582.835375 298.292312 
L 592.835375 298.292312 
" style="fill: none; stroke: #fde725; stroke-width: 1.5; stroke-linecap: square"/>
    </g>
    <g id="text_46">
     <!-- 0.7 -->
     <g transform="translate(600.835375 301.792312) scale(0.1 -0.1)">
      <use xlink:href="#DejaVuSans-30"/>
      <use xlink:href="#DejaVuSans-2e" x="63.623047"/>
      <use xlink:href="#DejaVuSans-37" x="95.410156"/>
     </g>
    </g>
   </g>
  </g>
  <g id="text_47">
   <!-- x0x1-y0 One-tone-powerDep -->
   <g transform="translate(126.599063 16.318125) scale(0.12 -0.12)">
    <defs>
     <path id="DejaVuSans-78" d="M 3513 3500 
L 2247 1797 
L 3578 0 
L 2900 0 
L 1881 1375 
L 863 0 
L 184 0 
L 1544 1831 
L 300 3500 
L 978 3500 
L 1906 2253 
L 2834 3500 
L 3513 3500 
z
" transform="scale(0.015625)"/>
     <path id="DejaVuSans-2d" d="M 313 2009 
L 1997 2009 
L 1997 1497 
L 313 1497 
L 313 2009 
z
" transform="scale(0.015625)"/>
     <path id="DejaVuSans-4f" d="M 2522 4238 
Q 1834 4238 1429 3725 
Q 1025 3213 1025 2328 
Q 1025 1447 1429 934 
Q 1834 422 2522 422 
Q 3209 422 3611 934 
Q 4013 1447 4013 2328 
Q 4013 3213 3611 3725 
Q 3209 4238 2522 4238 
z
M 2522 4750 
Q 3503 4750 4090 4092 
Q 4678 3434 4678 2328 
Q 4678 1225 4090 567 
Q 3503 -91 2522 -91 
Q 1538 -91 948 565 
Q 359 1222 359 2328 
Q 359 3434 948 4092 
Q 1538 4750 2522 4750 
z
" transform="scale(0.015625)"/>
     <path id="DejaVuSans-77" d="M 269 3500 
L 844 3500 
L 1563 769 
L 2278 3500 
L 2956 3500 
L 3675 769 
L 4391 3500 
L 4966 3500 
L 4050 0 
L 3372 0 
L 2619 2869 
L 1863 0 
L 1184 0 
L 269 3500 
z
" transform="scale(0.015625)"/>
     <path id="DejaVuSans-44" d="M 1259 4147 
L 1259 519 
L 2022 519 
Q 2988 519 3436 956 
Q 3884 1394 3884 2338 
Q 3884 3275 3436 3711 
Q 2988 4147 2022 4147 
L 1259 4147 
z
M 628 4666 
L 1925 4666 
Q 3281 4666 3915 4102 
Q 4550 3538 4550 2338 
Q 4550 1131 3912 565 
Q 3275 0 1925 0 
L 628 0 
L 628 4666 
z
" transform="scale(0.015625)"/>
    </defs>
    <use xlink:href="#DejaVuSans-78"/>
    <use xlink:href="#DejaVuSans-30" x="59.179688"/>
    <use xlink:href="#DejaVuSans-78" x="122.802734"/>
    <use xlink:href="#DejaVuSans-31" x="181.982422"/>
    <use xlink:href="#DejaVuSans-2d" x="245.605469"/>
    <use xlink:href="#DejaVuSans-79" x="279.939453"/>
    <use xlink:href="#DejaVuSans-30" x="339.119141"/>
    <use xlink:href="#DejaVuSans-20" x="402.742188"/>
    <use xlink:href="#DejaVuSans-4f" x="434.529297"/>
    <use xlink:href="#DejaVuSans-6e" x="513.240234"/>
    <use xlink:href="#DejaVuSans-65" x="576.619141"/>
    <use xlink:href="#DejaVuSans-2d" x="638.142578"/>
    <use xlink:href="#DejaVuSans-74" x="674.226562"/>
    <use xlink:href="#DejaVuSans-6f" x="713.435547"/>
    <use xlink:href="#DejaVuSans-6e" x="774.617188"/>
    <use xlink:href="#DejaVuSans-65" x="837.996094"/>
    <use xlink:href="#DejaVuSans-2d" x="899.519531"/>
    <use xlink:href="#DejaVuSans-70" x="935.603516"/>
    <use xlink:href="#DejaVuSans-6f" x="999.080078"/>
    <use xlink:href="#DejaVuSans-77" x="1060.261719"/>
    <use xlink:href="#DejaVuSans-65" x="1142.048828"/>
    <use xlink:href="#DejaVuSans-72" x="1203.572266"/>
    <use xlink:href="#DejaVuSans-44" x="1244.685547"/>
    <use xlink:href="#DejaVuSans-65" x="1321.6875"/>
    <use xlink:href="#DejaVuSans-70" x="1383.210938"/>
   </g>
   <!-- tuid: 20240304-162613-644-506e98 -->
   <g transform="translate(103.673438 29.7555) scale(0.12 -0.12)">
    <defs>
     <path id="DejaVuSans-3a" d="M 750 794 
L 1409 794 
L 1409 0 
L 750 0 
L 750 794 
z
M 750 3309 
L 1409 3309 
L 1409 2516 
L 750 2516 
L 750 3309 
z
" transform="scale(0.015625)"/>
    </defs>
    <use xlink:href="#DejaVuSans-74"/>
    <use xlink:href="#DejaVuSans-75" x="39.208984"/>
    <use xlink:href="#DejaVuSans-69" x="102.587891"/>
    <use xlink:href="#DejaVuSans-64" x="130.371094"/>
    <use xlink:href="#DejaVuSans-3a" x="193.847656"/>
    <use xlink:href="#DejaVuSans-20" x="227.539062"/>
    <use xlink:href="#DejaVuSans-32" x="259.326172"/>
    <use xlink:href="#DejaVuSans-30" x="322.949219"/>
    <use xlink:href="#DejaVuSans-32" x="386.572266"/>
    <use xlink:href="#DejaVuSans-34" x="450.195312"/>
    <use xlink:href="#DejaVuSans-30" x="513.818359"/>
    <use xlink:href="#DejaVuSans-33" x="577.441406"/>
    <use xlink:href="#DejaVuSans-30" x="641.064453"/>
    <use xlink:href="#DejaVuSans-34" x="704.6875"/>
    <use xlink:href="#DejaVuSans-2d" x="768.310547"/>
    <use xlink:href="#DejaVuSans-31" x="804.394531"/>
    <use xlink:href="#DejaVuSans-36" x="868.017578"/>
    <use xlink:href="#DejaVuSans-32" x="931.640625"/>
    <use xlink:href="#DejaVuSans-36" x="995.263672"/>
    <use xlink:href="#DejaVuSans-31" x="1058.886719"/>
    <use xlink:href="#DejaVuSans-33" x="1122.509766"/>
    <use xlink:href="#DejaVuSans-2d" x="1186.132812"/>
    <use xlink:href="#DejaVuSans-36" x="1222.216797"/>
    <use xlink:href="#DejaVuSans-34" x="1285.839844"/>
    <use xlink:href="#DejaVuSans-34" x="1349.462891"/>
    <use xlink:href="#DejaVuSans-2d" x="1413.085938"/>
    <use xlink:href="#DejaVuSans-35" x="1449.169922"/>
    <use xlink:href="#DejaVuSans-30" x="1512.792969"/>
    <use xlink:href="#DejaVuSans-36" x="1576.416016"/>
    <use xlink:href="#DejaVuSans-65" x="1640.039062"/>
    <use xlink:href="#DejaVuSans-39" x="1701.5625"/>
    <use xlink:href="#DejaVuSans-38" x="1765.185547"/>
   </g>
  </g>
 </g>
 <defs>
  <clipPath id="pd8ac88f058">
   <rect x="40.603125" y="41.76" width="357.12" height="266.112"/>
  </clipPath>
 </defs>
</svg>
