<?xml version="1.0" encoding="utf-8" standalone="no"?>
<!DOCTYPE svg PUBLIC "-//W3C//DTD SVG 1.1//EN"
  "http://www.w3.org/Graphics/SVG/1.1/DTD/svg11.dtd">
<svg xmlns:xlink="http://www.w3.org/1999/xlink" width="589.672875pt" height="345.42825pt" viewBox="0 0 589.672875 345.42825" xmlns="http://www.w3.org/2000/svg" version="1.1">
 <metadata>
  <rdf:RDF xmlns:dc="http://purl.org/dc/elements/1.1/" xmlns:cc="http://creativecommons.org/ns#" xmlns:rdf="http://www.w3.org/1999/02/22-rdf-syntax-ns#">
   <cc:Work>
    <dc:type rdf:resource="http://purl.org/dc/dcmitype/StillImage"/>
    <dc:date>2023-12-20T14:56:30.204561</dc:date>
    <dc:format>image/svg+xml</dc:format>
    <dc:creator>
     <cc:Agent>
      <dc:title>Matplotlib v3.8.2, https://matplotlib.org/</dc:title>
     </cc:Agent>
    </dc:creator>
   </cc:Work>
  </rdf:RDF>
 </metadata>
 <defs>
  <style type="text/css">*{stroke-linejoin: round; stroke-linecap: butt}</style>
 </defs>
 <g id="figure_1">
  <g id="patch_1">
   <path d="M 0 345.42825 
L 589.672875 345.42825 
L 589.672875 -0 
L 0 -0 
L 0 345.42825 
z
" style="fill: none; opacity: 0"/>
  </g>
  <g id="axes_1">
   <g id="patch_2">
    <path d="M 47.389063 307.872 
L 404.509063 307.872 
L 404.509063 41.76 
L 47.389063 41.76 
z
" style="fill: #ffffff"/>
   </g>
   <g id="matplotlib.axis_1">
    <g id="xtick_1">
     <g id="line2d_1">
      <defs>
       <path id="mf09eea85e2" d="M 0 0 
L 0 3.5 
" style="stroke: #000000; stroke-width: 0.8"/>
      </defs>
      <g>
       <use xlink:href="#mf09eea85e2" x="70.075372" y="307.872" style="stroke: #000000; stroke-width: 0.8"/>
      </g>
     </g>
     <g id="text_1">
      <!-- -7.5 -->
      <g transform="translate(60.319903 322.470438) scale(0.1 -0.1)">
       <defs>
        <path id="DejaVuSans-2d" d="M 313 2009 
L 1997 2009 
L 1997 1497 
L 313 1497 
L 313 2009 
z
" transform="scale(0.015625)"/>
        <path id="DejaVuSans-37" d="M 525 4666 
L 3525 4666 
L 3525 4397 
L 1831 0 
L 1172 0 
L 2766 4134 
L 525 4134 
L 525 4666 
z
" transform="scale(0.015625)"/>
        <path id="DejaVuSans-2e" d="M 684 794 
L 1344 794 
L 1344 0 
L 684 0 
L 684 794 
z
" transform="scale(0.015625)"/>
        <path id="DejaVuSans-35" d="M 691 4666 
L 3169 4666 
L 3169 4134 
L 1269 4134 
L 1269 2991 
Q 1406 3038 1543 3061 
Q 1681 3084 1819 3084 
Q 2600 3084 3056 2656 
Q 3513 2228 3513 1497 
Q 3513 744 3044 326 
Q 2575 -91 1722 -91 
Q 1428 -91 1123 -41 
Q 819 9 494 109 
L 494 744 
Q 775 591 1075 516 
Q 1375 441 1709 441 
Q 2250 441 2565 725 
Q 2881 1009 2881 1497 
Q 2881 1984 2565 2268 
Q 2250 2553 1709 2553 
Q 1456 2553 1204 2497 
Q 953 2441 691 2322 
L 691 4666 
z
" transform="scale(0.015625)"/>
       </defs>
       <use xlink:href="#DejaVuSans-2d"/>
       <use xlink:href="#DejaVuSans-37" x="36.083984"/>
       <use xlink:href="#DejaVuSans-2e" x="99.707031"/>
       <use xlink:href="#DejaVuSans-35" x="131.494141"/>
      </g>
     </g>
    </g>
    <g id="xtick_2">
     <g id="line2d_2">
      <g>
       <use xlink:href="#mf09eea85e2" x="114.551431" y="307.872" style="stroke: #000000; stroke-width: 0.8"/>
      </g>
     </g>
     <g id="text_2">
      <!-- -5 -->
      <g transform="translate(109.566275 322.470438) scale(0.1 -0.1)">
       <use xlink:href="#DejaVuSans-2d"/>
       <use xlink:href="#DejaVuSans-35" x="36.083984"/>
      </g>
     </g>
    </g>
    <g id="xtick_3">
     <g id="line2d_3">
      <g>
       <use xlink:href="#mf09eea85e2" x="159.027491" y="307.872" style="stroke: #000000; stroke-width: 0.8"/>
      </g>
     </g>
     <g id="text_3">
      <!-- -2.5 -->
      <g transform="translate(149.272022 322.470438) scale(0.1 -0.1)">
       <defs>
        <path id="DejaVuSans-32" d="M 1228 531 
L 3431 531 
L 3431 0 
L 469 0 
L 469 531 
Q 828 903 1448 1529 
Q 2069 2156 2228 2338 
Q 2531 2678 2651 2914 
Q 2772 3150 2772 3378 
Q 2772 3750 2511 3984 
Q 2250 4219 1831 4219 
Q 1534 4219 1204 4116 
Q 875 4013 500 3803 
L 500 4441 
Q 881 4594 1212 4672 
Q 1544 4750 1819 4750 
Q 2544 4750 2975 4387 
Q 3406 4025 3406 3419 
Q 3406 3131 3298 2873 
Q 3191 2616 2906 2266 
Q 2828 2175 2409 1742 
Q 1991 1309 1228 531 
z
" transform="scale(0.015625)"/>
       </defs>
       <use xlink:href="#DejaVuSans-2d"/>
       <use xlink:href="#DejaVuSans-32" x="36.083984"/>
       <use xlink:href="#DejaVuSans-2e" x="99.707031"/>
       <use xlink:href="#DejaVuSans-35" x="131.494141"/>
      </g>
     </g>
    </g>
    <g id="xtick_4">
     <g id="line2d_4">
      <g>
       <use xlink:href="#mf09eea85e2" x="203.503551" y="307.872" style="stroke: #000000; stroke-width: 0.8"/>
      </g>
     </g>
     <g id="text_4">
      <!-- 0 -->
      <g transform="translate(200.322301 322.470438) scale(0.1 -0.1)">
       <defs>
        <path id="DejaVuSans-30" d="M 2034 4250 
Q 1547 4250 1301 3770 
Q 1056 3291 1056 2328 
Q 1056 1369 1301 889 
Q 1547 409 2034 409 
Q 2525 409 2770 889 
Q 3016 1369 3016 2328 
Q 3016 3291 2770 3770 
Q 2525 4250 2034 4250 
z
M 2034 4750 
Q 2819 4750 3233 4129 
Q 3647 3509 3647 2328 
Q 3647 1150 3233 529 
Q 2819 -91 2034 -91 
Q 1250 -91 836 529 
Q 422 1150 422 2328 
Q 422 3509 836 4129 
Q 1250 4750 2034 4750 
z
" transform="scale(0.015625)"/>
       </defs>
       <use xlink:href="#DejaVuSans-30"/>
      </g>
     </g>
    </g>
    <g id="xtick_5">
     <g id="line2d_5">
      <g>
       <use xlink:href="#mf09eea85e2" x="247.979611" y="307.872" style="stroke: #000000; stroke-width: 0.8"/>
      </g>
     </g>
     <g id="text_5">
      <!-- 2.5 -->
      <g transform="translate(240.028048 322.470438) scale(0.1 -0.1)">
       <use xlink:href="#DejaVuSans-32"/>
       <use xlink:href="#DejaVuSans-2e" x="63.623047"/>
       <use xlink:href="#DejaVuSans-35" x="95.410156"/>
      </g>
     </g>
    </g>
    <g id="xtick_6">
     <g id="line2d_6">
      <g>
       <use xlink:href="#mf09eea85e2" x="292.455671" y="307.872" style="stroke: #000000; stroke-width: 0.8"/>
      </g>
     </g>
     <g id="text_6">
      <!-- 5 -->
      <g transform="translate(289.274421 322.470438) scale(0.1 -0.1)">
       <use xlink:href="#DejaVuSans-35"/>
      </g>
     </g>
    </g>
    <g id="xtick_7">
     <g id="line2d_7">
      <g>
       <use xlink:href="#mf09eea85e2" x="336.93173" y="307.872" style="stroke: #000000; stroke-width: 0.8"/>
      </g>
     </g>
     <g id="text_7">
      <!-- 7.5 -->
      <g transform="translate(328.980168 322.470438) scale(0.1 -0.1)">
       <use xlink:href="#DejaVuSans-37"/>
       <use xlink:href="#DejaVuSans-2e" x="63.623047"/>
       <use xlink:href="#DejaVuSans-35" x="95.410156"/>
      </g>
     </g>
    </g>
    <g id="xtick_8">
     <g id="line2d_8">
      <g>
       <use xlink:href="#mf09eea85e2" x="381.40779" y="307.872" style="stroke: #000000; stroke-width: 0.8"/>
      </g>
     </g>
     <g id="text_8">
      <!-- 10 -->
      <g transform="translate(375.04529 322.470438) scale(0.1 -0.1)">
       <defs>
        <path id="DejaVuSans-31" d="M 794 531 
L 1825 531 
L 1825 4091 
L 703 3866 
L 703 4441 
L 1819 4666 
L 2450 4666 
L 2450 531 
L 3481 531 
L 3481 0 
L 794 0 
L 794 531 
z
" transform="scale(0.015625)"/>
       </defs>
       <use xlink:href="#DejaVuSans-31"/>
       <use xlink:href="#DejaVuSans-30" x="63.623047"/>
      </g>
     </g>
    </g>
    <g id="text_9">
     <!-- Re$(S_{21})$ [mV] -->
     <g transform="translate(193.949063 336.148562) scale(0.1 -0.1)">
      <defs>
       <path id="DejaVuSans-52" d="M 2841 2188 
Q 3044 2119 3236 1894 
Q 3428 1669 3622 1275 
L 4263 0 
L 3584 0 
L 2988 1197 
Q 2756 1666 2539 1819 
Q 2322 1972 1947 1972 
L 1259 1972 
L 1259 0 
L 628 0 
L 628 4666 
L 2053 4666 
Q 2853 4666 3247 4331 
Q 3641 3997 3641 3322 
Q 3641 2881 3436 2590 
Q 3231 2300 2841 2188 
z
M 1259 4147 
L 1259 2491 
L 2053 2491 
Q 2509 2491 2742 2702 
Q 2975 2913 2975 3322 
Q 2975 3731 2742 3939 
Q 2509 4147 2053 4147 
L 1259 4147 
z
" transform="scale(0.015625)"/>
       <path id="DejaVuSans-65" d="M 3597 1894 
L 3597 1613 
L 953 1613 
Q 991 1019 1311 708 
Q 1631 397 2203 397 
Q 2534 397 2845 478 
Q 3156 559 3463 722 
L 3463 178 
Q 3153 47 2828 -22 
Q 2503 -91 2169 -91 
Q 1331 -91 842 396 
Q 353 884 353 1716 
Q 353 2575 817 3079 
Q 1281 3584 2069 3584 
Q 2775 3584 3186 3129 
Q 3597 2675 3597 1894 
z
M 3022 2063 
Q 3016 2534 2758 2815 
Q 2500 3097 2075 3097 
Q 1594 3097 1305 2825 
Q 1016 2553 972 2059 
L 3022 2063 
z
" transform="scale(0.015625)"/>
       <path id="DejaVuSans-28" d="M 1984 4856 
Q 1566 4138 1362 3434 
Q 1159 2731 1159 2009 
Q 1159 1288 1364 580 
Q 1569 -128 1984 -844 
L 1484 -844 
Q 1016 -109 783 600 
Q 550 1309 550 2009 
Q 550 2706 781 3412 
Q 1013 4119 1484 4856 
L 1984 4856 
z
" transform="scale(0.015625)"/>
       <path id="DejaVuSans-Oblique-53" d="M 3859 4513 
L 3738 3897 
Q 3422 4066 3111 4152 
Q 2800 4238 2509 4238 
Q 1944 4238 1609 3991 
Q 1275 3744 1275 3334 
Q 1275 3109 1398 2989 
Q 1522 2869 2034 2731 
L 2413 2638 
Q 3053 2472 3303 2217 
Q 3553 1963 3553 1503 
Q 3553 797 2998 353 
Q 2444 -91 1538 -91 
Q 1166 -91 791 -17 
Q 416 56 38 206 
L 166 856 
Q 513 641 861 531 
Q 1209 422 1556 422 
Q 2147 422 2503 684 
Q 2859 947 2859 1369 
Q 2859 1650 2717 1795 
Q 2575 1941 2106 2059 
L 1728 2156 
Q 1081 2325 845 2545 
Q 609 2766 609 3163 
Q 609 3859 1145 4304 
Q 1681 4750 2541 4750 
Q 2875 4750 3203 4690 
Q 3531 4631 3859 4513 
z
" transform="scale(0.015625)"/>
       <path id="DejaVuSans-29" d="M 513 4856 
L 1013 4856 
Q 1481 4119 1714 3412 
Q 1947 2706 1947 2009 
Q 1947 1309 1714 600 
Q 1481 -109 1013 -844 
L 513 -844 
Q 928 -128 1133 580 
Q 1338 1288 1338 2009 
Q 1338 2731 1133 3434 
Q 928 4138 513 4856 
z
" transform="scale(0.015625)"/>
       <path id="DejaVuSans-20" transform="scale(0.015625)"/>
       <path id="DejaVuSans-5b" d="M 550 4863 
L 1875 4863 
L 1875 4416 
L 1125 4416 
L 1125 -397 
L 1875 -397 
L 1875 -844 
L 550 -844 
L 550 4863 
z
" transform="scale(0.015625)"/>
       <path id="DejaVuSans-6d" d="M 3328 2828 
Q 3544 3216 3844 3400 
Q 4144 3584 4550 3584 
Q 5097 3584 5394 3201 
Q 5691 2819 5691 2113 
L 5691 0 
L 5113 0 
L 5113 2094 
Q 5113 2597 4934 2840 
Q 4756 3084 4391 3084 
Q 3944 3084 3684 2787 
Q 3425 2491 3425 1978 
L 3425 0 
L 2847 0 
L 2847 2094 
Q 2847 2600 2669 2842 
Q 2491 3084 2119 3084 
Q 1678 3084 1418 2786 
Q 1159 2488 1159 1978 
L 1159 0 
L 581 0 
L 581 3500 
L 1159 3500 
L 1159 2956 
Q 1356 3278 1631 3431 
Q 1906 3584 2284 3584 
Q 2666 3584 2933 3390 
Q 3200 3197 3328 2828 
z
" transform="scale(0.015625)"/>
       <path id="DejaVuSans-56" d="M 1831 0 
L 50 4666 
L 709 4666 
L 2188 738 
L 3669 4666 
L 4325 4666 
L 2547 0 
L 1831 0 
z
" transform="scale(0.015625)"/>
       <path id="DejaVuSans-5d" d="M 1947 4863 
L 1947 -844 
L 622 -844 
L 622 -397 
L 1369 -397 
L 1369 4416 
L 622 4416 
L 622 4863 
L 1947 4863 
z
" transform="scale(0.015625)"/>
      </defs>
      <use xlink:href="#DejaVuSans-52" transform="translate(0 0.015625)"/>
      <use xlink:href="#DejaVuSans-65" transform="translate(69.482422 0.015625)"/>
      <use xlink:href="#DejaVuSans-28" transform="translate(131.005859 0.015625)"/>
      <use xlink:href="#DejaVuSans-Oblique-53" transform="translate(170.019531 0.015625)"/>
      <use xlink:href="#DejaVuSans-32" transform="translate(233.496094 -16.390625) scale(0.7)"/>
      <use xlink:href="#DejaVuSans-31" transform="translate(278.032227 -16.390625) scale(0.7)"/>
      <use xlink:href="#DejaVuSans-29" transform="translate(325.302734 0.015625)"/>
      <use xlink:href="#DejaVuSans-20" transform="translate(364.316406 0.015625)"/>
      <use xlink:href="#DejaVuSans-5b" transform="translate(396.103516 0.015625)"/>
      <use xlink:href="#DejaVuSans-6d" transform="translate(435.117188 0.015625)"/>
      <use xlink:href="#DejaVuSans-56" transform="translate(532.529297 0.015625)"/>
      <use xlink:href="#DejaVuSans-5d" transform="translate(600.9375 0.015625)"/>
     </g>
    </g>
   </g>
   <g id="matplotlib.axis_2">
    <g id="ytick_1">
     <g id="line2d_9">
      <defs>
       <path id="m2ff84337eb" d="M 0 0 
L -3.5 0 
" style="stroke: #000000; stroke-width: 0.8"/>
      </defs>
      <g>
       <use xlink:href="#m2ff84337eb" x="47.389063" y="300.620466" style="stroke: #000000; stroke-width: 0.8"/>
      </g>
     </g>
     <g id="text_10">
      <!-- -10 -->
      <g transform="translate(24.05625 304.419684) scale(0.1 -0.1)">
       <use xlink:href="#DejaVuSans-2d"/>
       <use xlink:href="#DejaVuSans-31" x="36.083984"/>
       <use xlink:href="#DejaVuSans-30" x="99.707031"/>
      </g>
     </g>
    </g>
    <g id="ytick_2">
     <g id="line2d_10">
      <g>
       <use xlink:href="#m2ff84337eb" x="47.389063" y="266.991929" style="stroke: #000000; stroke-width: 0.8"/>
      </g>
     </g>
     <g id="text_11">
      <!-- -7.5 -->
      <g transform="translate(20.878125 270.791148) scale(0.1 -0.1)">
       <use xlink:href="#DejaVuSans-2d"/>
       <use xlink:href="#DejaVuSans-37" x="36.083984"/>
       <use xlink:href="#DejaVuSans-2e" x="99.707031"/>
       <use xlink:href="#DejaVuSans-35" x="131.494141"/>
      </g>
     </g>
    </g>
    <g id="ytick_3">
     <g id="line2d_11">
      <g>
       <use xlink:href="#m2ff84337eb" x="47.389063" y="233.363393" style="stroke: #000000; stroke-width: 0.8"/>
      </g>
     </g>
     <g id="text_12">
      <!-- -5 -->
      <g transform="translate(30.41875 237.162611) scale(0.1 -0.1)">
       <use xlink:href="#DejaVuSans-2d"/>
       <use xlink:href="#DejaVuSans-35" x="36.083984"/>
      </g>
     </g>
    </g>
    <g id="ytick_4">
     <g id="line2d_12">
      <g>
       <use xlink:href="#m2ff84337eb" x="47.389063" y="199.734856" style="stroke: #000000; stroke-width: 0.8"/>
      </g>
     </g>
     <g id="text_13">
      <!-- -2.5 -->
      <g transform="translate(20.878125 203.534075) scale(0.1 -0.1)">
       <use xlink:href="#DejaVuSans-2d"/>
       <use xlink:href="#DejaVuSans-32" x="36.083984"/>
       <use xlink:href="#DejaVuSans-2e" x="99.707031"/>
       <use xlink:href="#DejaVuSans-35" x="131.494141"/>
      </g>
     </g>
    </g>
    <g id="ytick_5">
     <g id="line2d_13">
      <g>
       <use xlink:href="#m2ff84337eb" x="47.389063" y="166.10632" style="stroke: #000000; stroke-width: 0.8"/>
      </g>
     </g>
     <g id="text_14">
      <!-- 0 -->
      <g transform="translate(34.026563 169.905539) scale(0.1 -0.1)">
       <use xlink:href="#DejaVuSans-30"/>
      </g>
     </g>
    </g>
    <g id="ytick_6">
     <g id="line2d_14">
      <g>
       <use xlink:href="#m2ff84337eb" x="47.389063" y="132.477783" style="stroke: #000000; stroke-width: 0.8"/>
      </g>
     </g>
     <g id="text_15">
      <!-- 2.5 -->
      <g transform="translate(24.485938 136.277002) scale(0.1 -0.1)">
       <use xlink:href="#DejaVuSans-32"/>
       <use xlink:href="#DejaVuSans-2e" x="63.623047"/>
       <use xlink:href="#DejaVuSans-35" x="95.410156"/>
      </g>
     </g>
    </g>
    <g id="ytick_7">
     <g id="line2d_15">
      <g>
       <use xlink:href="#m2ff84337eb" x="47.389063" y="98.849247" style="stroke: #000000; stroke-width: 0.8"/>
      </g>
     </g>
     <g id="text_16">
      <!-- 5 -->
      <g transform="translate(34.026563 102.648466) scale(0.1 -0.1)">
       <use xlink:href="#DejaVuSans-35"/>
      </g>
     </g>
    </g>
    <g id="ytick_8">
     <g id="line2d_16">
      <g>
       <use xlink:href="#m2ff84337eb" x="47.389063" y="65.22071" style="stroke: #000000; stroke-width: 0.8"/>
      </g>
     </g>
     <g id="text_17">
      <!-- 7.5 -->
      <g transform="translate(24.485938 69.019929) scale(0.1 -0.1)">
       <use xlink:href="#DejaVuSans-37"/>
       <use xlink:href="#DejaVuSans-2e" x="63.623047"/>
       <use xlink:href="#DejaVuSans-35" x="95.410156"/>
      </g>
     </g>
    </g>
    <g id="text_18">
     <!-- Im$(S_{21})$ [mV] -->
     <g transform="translate(14.798438 206.466) rotate(-90) scale(0.1 -0.1)">
      <defs>
       <path id="DejaVuSans-49" d="M 628 4666 
L 1259 4666 
L 1259 0 
L 628 0 
L 628 4666 
z
" transform="scale(0.015625)"/>
      </defs>
      <use xlink:href="#DejaVuSans-49" transform="translate(0 0.015625)"/>
      <use xlink:href="#DejaVuSans-6d" transform="translate(25.867188 0.015625)"/>
      <use xlink:href="#DejaVuSans-28" transform="translate(123.279297 0.015625)"/>
      <use xlink:href="#DejaVuSans-Oblique-53" transform="translate(162.292969 0.015625)"/>
      <use xlink:href="#DejaVuSans-32" transform="translate(225.769531 -16.390625) scale(0.7)"/>
      <use xlink:href="#DejaVuSans-31" transform="translate(270.305664 -16.390625) scale(0.7)"/>
      <use xlink:href="#DejaVuSans-29" transform="translate(317.576172 0.015625)"/>
      <use xlink:href="#DejaVuSans-20" transform="translate(356.589844 0.015625)"/>
      <use xlink:href="#DejaVuSans-5b" transform="translate(388.376953 0.015625)"/>
      <use xlink:href="#DejaVuSans-6d" transform="translate(427.390625 0.015625)"/>
      <use xlink:href="#DejaVuSans-56" transform="translate(524.802734 0.015625)"/>
      <use xlink:href="#DejaVuSans-5d" transform="translate(593.210938 0.015625)"/>
     </g>
    </g>
   </g>
   <g id="line2d_17">
    <path d="M 286.438118 271.358546 
L 258.531131 275.755792 
L 253.915894 287.779056 
L 212.886883 291.201978 
L 218.269811 279.513941 
L 162.447963 277.133586 
L 168.903619 252.961913 
L 137.044811 224.594779 
L 141.191396 197.806619 
L 149.075361 202.759742 
L 177.555379 198.858648 
L 138.41151 122.238464 
L 155.739418 103.0765 
L 195.584231 228.608295 
L 140.545118 221.413233 
L 263.158449 231.0945 
L 149.649148 233.141835 
L 281.886238 200.964264 
L 148.581453 225.071887 
L 212.625997 206.21002 
L 116.75913 167.822837 
L 129.523781 163.254587 
L 137.901437 126.61137 
L 138.645836 115.389591 
L 148.277712 76.879874 
L 170.924626 58.601169 
L 169.237578 73.18107 
L 191.169069 53.856 
L 242.567115 60.923329 
L 250.305342 56.29482 
L 272.146846 56.403055 
L 293.403517 57.662422 
L 322.222544 75.980561 
L 330.901941 76.721315 
L 315.879262 90.633271 
L 326.500945 94.727726 
L 335.780515 96.868518 
L 338.480566 101.97219 
L 349.326033 109.283411 
L 349.689559 115.302095 
L 351.830771 108.645622 
L 357.671402 120.63565 
L 353.68327 120.308038 
L 355.157798 127.552791 
L 353.271648 130.19814 
L 356.479009 130.647333 
L 353.206614 132.263698 
L 359.512428 144.884995 
L 360.601259 147.681102 
L 356.16284 141.650754 
L 360.081939 145.560595 
L 357.984242 151.905569 
L 360.481159 154.844187 
L 355.468692 153.497659 
L 364.52473 156.456648 
L 356.614683 157.068638 
L 363.414067 163.267276 
L 360.718049 163.706796 
L 358.293432 169.922894 
L 360.287915 173.812384 
L 360.893111 177.094042 
L 352.659369 172.476278 
L 356.938222 174.504747 
L 353.956393 183.717435 
L 352.469245 181.678885 
L 354.607538 184.515412 
L 356.115648 185.370139 
L 353.495545 184.853642 
L 356.068777 190.700145 
L 356.829455 189.276483 
L 350.328154 195.320939 
L 351.00114 197.525348 
L 350.715389 195.966811 
L 349.653743 196.780027 
L 348.80666 197.18142 
L 351.389592 199.088847 
L 344.723128 200.724261 
L 345.004229 200.489857 
L 342.382336 205.453745 
L 344.70851 204.18778 
L 342.820126 207.601614 
L 342.432065 209.946037 
L 343.152704 211.931688 
L 340.283735 210.21197 
L 335.744787 211.99148 
L 343.590112 214.627274 
L 337.021873 215.755747 
L 337.03497 218.532962 
L 338.253349 219.296762 
L 336.865592 221.553846 
L 334.318772 219.484937 
L 335.216836 223.769301 
L 334.689355 222.619024 
L 331.88801 226.348582 
L 330.214928 225.502411 
L 330.486939 227.458143 
L 331.691881 228.952347 
L 330.042725 230.32039 
L 328.19127 232.352907 
L 326.418024 229.405161 
L 326.26628 232.549277 
L 322.980005 233.152862 
L 323.421255 234.426278 
L 322.827679 235.253083 
L 319.977004 237.685601 
L 321.444336 239.427418 
L 315.588097 238.938869 
L 317.271982 240.622649 
L 318.12594 240.47879 
L 315.813385 240.888503 
L 314.368623 241.323055 
L 313.961642 241.241295 
L 311.080758 244.076475 
L 309.089048 243.16515 
L 309.670039 247.523697 
L 307.657723 247.339294 
L 307.426656 248.319657 
L 307.946358 248.241709 
L 306.133969 249.370261 
L 303.254449 251.910883 
L 305.025035 253.42325 
L 299.470512 251.335718 
L 300.321089 252.700304 
L 299.900298 255.025559 
L 298.002911 254.860107 
L 297.274529 255.30399 
L 294.82277 256.459701 
L 296.185524 258.689088 
L 291.220118 260.143214 
L 292.823759 261.226234 
L 288.117614 261.144507 
L 288.8305 261.366636 
L 288.405894 263.17521 
L 287.21842 264.64426 
L 284.283913 263.990174 
L 280.58506 264.377255 
L 281.893756 267.412537 
L 278.78974 267.61258 
L 275.995261 269.949164 
L 274.305223 270.676585 
L 272.735616 270.312056 
L 271.11242 273.467737 
L 270.616113 272.772003 
L 265.579529 275.115795 
L 266.653889 276.255781 
L 263.944626 278.601597 
L 261.267432 279.632257 
L 258.601015 281.185741 
L 251.91916 284.404026 
L 247.9597 286.486899 
L 244.09518 289.731871 
L 238.121934 291.087993 
L 231.728697 291.991084 
L 221.055121 291.357987 
L 204.567039 289.571991 
L 189.654058 283.987092 
L 172.103835 270.116239 
L 161.206788 256.133897 
L 177.89696 234.969697 
L 187.177913 218.152406 
L 205.524854 210.282112 
L 226.726338 210.548617 
L 236.544557 206.127794 
L 246.878073 210.560117 
L 257.999139 221.216976 
L 258.560628 231.443777 
L 262.3203 234.965944 
L 259.699111 238.864601 
L 258.405086 241.901578 
L 257.12786 246.915762 
L 255.848992 248.650955 
L 252.939767 251.046444 
L 251.350918 255.985163 
L 248.575099 257.301969 
L 247.73901 256.443865 
L 246.458829 258.255363 
L 244.356874 259.847316 
L 241.109213 260.663738 
L 241.698687 262.56094 
L 237.213154 262.413743 
L 237.526603 263.97021 
L 234.326395 263.063873 
L 234.545824 264.441687 
L 232.788501 264.509023 
L 231.123241 265.294429 
L 229.195191 264.739011 
L 230.669806 267.300694 
L 226.140523 265.929826 
L 226.341449 266.054089 
L 222.147689 267.862999 
L 221.794957 268.466308 
L 220.681174 268.178801 
L 218.281831 269.723854 
L 219.162444 270.355998 
L 215.455274 268.617691 
L 214.248124 270.408082 
L 212.950692 270.549667 
L 211.318284 270.334911 
L 209.286629 270.253178 
L 207.750856 269.71246 
L 207.43002 272.368105 
L 205.229344 271.256376 
L 204.375716 270.52605 
L 202.233591 271.070244 
L 200.18472 270.670618 
L 198.215893 270.924158 
L 195.546669 271.051076 
L 196.67753 271.27103 
L 196.329143 270.331718 
L 191.290473 271.761241 
L 190.91039 271.522578 
L 190.217224 270.897787 
L 189.065436 272.124679 
L 187.778659 269.871997 
L 185.220227 271.310977 
L 185.96022 271.466506 
L 182.632437 272.316626 
L 181.411894 271.663828 
L 179.263807 270.931058 
L 178.427822 271.886108 
L 177.250908 271.306738 
L 176.571187 270.131878 
L 173.480381 270.240876 
L 172.849199 269.365647 
L 171.497953 270.746839 
L 168.308183 270.979547 
L 169.182243 269.409556 
L 168.075186 269.880251 
L 165.346238 270.115246 
L 164.143702 268.89632 
L 162.66608 266.999177 
L 159.199555 267.389998 
L 159.185145 269.064459 
L 158.232432 267.546802 
L 157.329318 267.033013 
L 155.632241 268.020933 
L 152.325829 266.756329 
L 151.50561 265.771885 
L 149.456964 266.176998 
L 150.305282 264.472217 
L 148.192593 266.012617 
L 147.841669 264.84862 
L 146.696694 265.548941 
L 143.638983 265.276936 
L 141.517264 265.531054 
L 141.882998 262.598048 
L 138.958381 262.093104 
L 139.161976 263.15476 
L 135.358388 261.957933 
L 134.283949 262.010398 
L 131.239388 260.368254 
L 133.062494 260.147111 
L 129.764895 259.191029 
L 128.112428 259.985339 
L 128.473876 258.90663 
L 126.897455 257.555712 
L 125.419833 257.944338 
L 123.843803 257.883665 
L 125.947619 257.546178 
L 120.159222 254.483783 
L 119.279625 254.576431 
L 118.878954 253.680982 
L 117.17654 254.401155 
L 115.985086 252.592988 
L 114.715256 252.685098 
L 114.809771 252.164843 
L 111.873308 251.018982 
L 112.412183 250.133745 
L 111.918188 249.12895 
L 109.221396 248.780442 
L 108.750441 247.999912 
L 108.365352 247.111645 
L 106.643836 246.117936 
L 106.177469 245.343221 
L 104.167117 245.250546 
L 105.064434 243.78494 
L 101.938047 243.604664 
L 102.40722 243.489738 
L 101.370335 242.303891 
L 98.987357 240.930066 
L 98.501375 240.140855 
L 99.284484 239.832071 
L 97.985531 238.621345 
L 96.166093 237.27667 
L 96.165693 238.11581 
L 94.124687 236.60586 
L 94.492959 236.077595 
L 93.557158 233.993395 
L 91.86566 233.974404 
L 92.167975 232.8062 
L 90.173545 231.156125 
L 89.352786 231.302323 
L 89.352786 231.302323 
" clip-path="url(#p316c803655)" style="fill: none; stroke: #1f77b4; stroke-width: 1.5; stroke-linecap: square"/>
    <defs>
     <path id="ma39b1b3d4b" d="M 0 1.5 
C 0.397805 1.5 0.77937 1.341951 1.06066 1.06066 
C 1.341951 0.77937 1.5 0.397805 1.5 0 
C 1.5 -0.397805 1.341951 -0.77937 1.06066 -1.06066 
C 0.77937 -1.341951 0.397805 -1.5 0 -1.5 
C -0.397805 -1.5 -0.77937 -1.341951 -1.06066 -1.06066 
C -1.341951 -0.77937 -1.5 -0.397805 -1.5 0 
C -1.5 0.397805 -1.341951 0.77937 -1.06066 1.06066 
C -0.77937 1.341951 -0.397805 1.5 0 1.5 
z
" style="stroke: #1f77b4"/>
    </defs>
    <g clip-path="url(#p316c803655)">
     <use xlink:href="#ma39b1b3d4b" x="286.438118" y="271.358546" style="fill: #1f77b4; stroke: #1f77b4"/>
     <use xlink:href="#ma39b1b3d4b" x="258.531131" y="275.755792" style="fill: #1f77b4; stroke: #1f77b4"/>
     <use xlink:href="#ma39b1b3d4b" x="253.915894" y="287.779056" style="fill: #1f77b4; stroke: #1f77b4"/>
     <use xlink:href="#ma39b1b3d4b" x="212.886883" y="291.201978" style="fill: #1f77b4; stroke: #1f77b4"/>
     <use xlink:href="#ma39b1b3d4b" x="218.269811" y="279.513941" style="fill: #1f77b4; stroke: #1f77b4"/>
     <use xlink:href="#ma39b1b3d4b" x="162.447963" y="277.133586" style="fill: #1f77b4; stroke: #1f77b4"/>
     <use xlink:href="#ma39b1b3d4b" x="168.903619" y="252.961913" style="fill: #1f77b4; stroke: #1f77b4"/>
     <use xlink:href="#ma39b1b3d4b" x="137.044811" y="224.594779" style="fill: #1f77b4; stroke: #1f77b4"/>
     <use xlink:href="#ma39b1b3d4b" x="141.191396" y="197.806619" style="fill: #1f77b4; stroke: #1f77b4"/>
     <use xlink:href="#ma39b1b3d4b" x="149.075361" y="202.759742" style="fill: #1f77b4; stroke: #1f77b4"/>
     <use xlink:href="#ma39b1b3d4b" x="177.555379" y="198.858648" style="fill: #1f77b4; stroke: #1f77b4"/>
     <use xlink:href="#ma39b1b3d4b" x="138.41151" y="122.238464" style="fill: #1f77b4; stroke: #1f77b4"/>
     <use xlink:href="#ma39b1b3d4b" x="155.739418" y="103.0765" style="fill: #1f77b4; stroke: #1f77b4"/>
     <use xlink:href="#ma39b1b3d4b" x="195.584231" y="228.608295" style="fill: #1f77b4; stroke: #1f77b4"/>
     <use xlink:href="#ma39b1b3d4b" x="140.545118" y="221.413233" style="fill: #1f77b4; stroke: #1f77b4"/>
     <use xlink:href="#ma39b1b3d4b" x="263.158449" y="231.0945" style="fill: #1f77b4; stroke: #1f77b4"/>
     <use xlink:href="#ma39b1b3d4b" x="149.649148" y="233.141835" style="fill: #1f77b4; stroke: #1f77b4"/>
     <use xlink:href="#ma39b1b3d4b" x="281.886238" y="200.964264" style="fill: #1f77b4; stroke: #1f77b4"/>
     <use xlink:href="#ma39b1b3d4b" x="148.581453" y="225.071887" style="fill: #1f77b4; stroke: #1f77b4"/>
     <use xlink:href="#ma39b1b3d4b" x="212.625997" y="206.21002" style="fill: #1f77b4; stroke: #1f77b4"/>
     <use xlink:href="#ma39b1b3d4b" x="116.75913" y="167.822837" style="fill: #1f77b4; stroke: #1f77b4"/>
     <use xlink:href="#ma39b1b3d4b" x="129.523781" y="163.254587" style="fill: #1f77b4; stroke: #1f77b4"/>
     <use xlink:href="#ma39b1b3d4b" x="137.901437" y="126.61137" style="fill: #1f77b4; stroke: #1f77b4"/>
     <use xlink:href="#ma39b1b3d4b" x="138.645836" y="115.389591" style="fill: #1f77b4; stroke: #1f77b4"/>
     <use xlink:href="#ma39b1b3d4b" x="148.277712" y="76.879874" style="fill: #1f77b4; stroke: #1f77b4"/>
     <use xlink:href="#ma39b1b3d4b" x="170.924626" y="58.601169" style="fill: #1f77b4; stroke: #1f77b4"/>
     <use xlink:href="#ma39b1b3d4b" x="169.237578" y="73.18107" style="fill: #1f77b4; stroke: #1f77b4"/>
     <use xlink:href="#ma39b1b3d4b" x="191.169069" y="53.856" style="fill: #1f77b4; stroke: #1f77b4"/>
     <use xlink:href="#ma39b1b3d4b" x="242.567115" y="60.923329" style="fill: #1f77b4; stroke: #1f77b4"/>
     <use xlink:href="#ma39b1b3d4b" x="250.305342" y="56.29482" style="fill: #1f77b4; stroke: #1f77b4"/>
     <use xlink:href="#ma39b1b3d4b" x="272.146846" y="56.403055" style="fill: #1f77b4; stroke: #1f77b4"/>
     <use xlink:href="#ma39b1b3d4b" x="292.132245" y="57.593121" style="fill: #1f77b4; stroke: #1f77b4"/>
     <use xlink:href="#ma39b1b3d4b" x="293.403517" y="57.662422" style="fill: #1f77b4; stroke: #1f77b4"/>
     <use xlink:href="#ma39b1b3d4b" x="322.222544" y="75.980561" style="fill: #1f77b4; stroke: #1f77b4"/>
     <use xlink:href="#ma39b1b3d4b" x="330.901941" y="76.721315" style="fill: #1f77b4; stroke: #1f77b4"/>
     <use xlink:href="#ma39b1b3d4b" x="315.879262" y="90.633271" style="fill: #1f77b4; stroke: #1f77b4"/>
     <use xlink:href="#ma39b1b3d4b" x="326.500945" y="94.727726" style="fill: #1f77b4; stroke: #1f77b4"/>
     <use xlink:href="#ma39b1b3d4b" x="335.780515" y="96.868518" style="fill: #1f77b4; stroke: #1f77b4"/>
     <use xlink:href="#ma39b1b3d4b" x="338.480566" y="101.97219" style="fill: #1f77b4; stroke: #1f77b4"/>
     <use xlink:href="#ma39b1b3d4b" x="349.326033" y="109.283411" style="fill: #1f77b4; stroke: #1f77b4"/>
     <use xlink:href="#ma39b1b3d4b" x="349.689559" y="115.302095" style="fill: #1f77b4; stroke: #1f77b4"/>
     <use xlink:href="#ma39b1b3d4b" x="351.830771" y="108.645622" style="fill: #1f77b4; stroke: #1f77b4"/>
     <use xlink:href="#ma39b1b3d4b" x="357.671402" y="120.63565" style="fill: #1f77b4; stroke: #1f77b4"/>
     <use xlink:href="#ma39b1b3d4b" x="353.68327" y="120.308038" style="fill: #1f77b4; stroke: #1f77b4"/>
     <use xlink:href="#ma39b1b3d4b" x="355.157798" y="127.552791" style="fill: #1f77b4; stroke: #1f77b4"/>
     <use xlink:href="#ma39b1b3d4b" x="353.271648" y="130.19814" style="fill: #1f77b4; stroke: #1f77b4"/>
     <use xlink:href="#ma39b1b3d4b" x="356.479009" y="130.647333" style="fill: #1f77b4; stroke: #1f77b4"/>
     <use xlink:href="#ma39b1b3d4b" x="353.206614" y="132.263698" style="fill: #1f77b4; stroke: #1f77b4"/>
     <use xlink:href="#ma39b1b3d4b" x="359.512428" y="144.884995" style="fill: #1f77b4; stroke: #1f77b4"/>
     <use xlink:href="#ma39b1b3d4b" x="360.601259" y="147.681102" style="fill: #1f77b4; stroke: #1f77b4"/>
     <use xlink:href="#ma39b1b3d4b" x="356.16284" y="141.650754" style="fill: #1f77b4; stroke: #1f77b4"/>
     <use xlink:href="#ma39b1b3d4b" x="360.081939" y="145.560595" style="fill: #1f77b4; stroke: #1f77b4"/>
     <use xlink:href="#ma39b1b3d4b" x="357.984242" y="151.905569" style="fill: #1f77b4; stroke: #1f77b4"/>
     <use xlink:href="#ma39b1b3d4b" x="360.481159" y="154.844187" style="fill: #1f77b4; stroke: #1f77b4"/>
     <use xlink:href="#ma39b1b3d4b" x="355.468692" y="153.497659" style="fill: #1f77b4; stroke: #1f77b4"/>
     <use xlink:href="#ma39b1b3d4b" x="364.52473" y="156.456648" style="fill: #1f77b4; stroke: #1f77b4"/>
     <use xlink:href="#ma39b1b3d4b" x="356.614683" y="157.068638" style="fill: #1f77b4; stroke: #1f77b4"/>
     <use xlink:href="#ma39b1b3d4b" x="363.414067" y="163.267276" style="fill: #1f77b4; stroke: #1f77b4"/>
     <use xlink:href="#ma39b1b3d4b" x="360.718049" y="163.706796" style="fill: #1f77b4; stroke: #1f77b4"/>
     <use xlink:href="#ma39b1b3d4b" x="358.35539" y="169.901827" style="fill: #1f77b4; stroke: #1f77b4"/>
     <use xlink:href="#ma39b1b3d4b" x="358.293432" y="169.922894" style="fill: #1f77b4; stroke: #1f77b4"/>
     <use xlink:href="#ma39b1b3d4b" x="360.287915" y="173.812384" style="fill: #1f77b4; stroke: #1f77b4"/>
     <use xlink:href="#ma39b1b3d4b" x="360.893111" y="177.094042" style="fill: #1f77b4; stroke: #1f77b4"/>
     <use xlink:href="#ma39b1b3d4b" x="352.659369" y="172.476278" style="fill: #1f77b4; stroke: #1f77b4"/>
     <use xlink:href="#ma39b1b3d4b" x="356.938222" y="174.504747" style="fill: #1f77b4; stroke: #1f77b4"/>
     <use xlink:href="#ma39b1b3d4b" x="353.956393" y="183.717435" style="fill: #1f77b4; stroke: #1f77b4"/>
     <use xlink:href="#ma39b1b3d4b" x="352.469245" y="181.678885" style="fill: #1f77b4; stroke: #1f77b4"/>
     <use xlink:href="#ma39b1b3d4b" x="354.607538" y="184.515412" style="fill: #1f77b4; stroke: #1f77b4"/>
     <use xlink:href="#ma39b1b3d4b" x="356.115648" y="185.370139" style="fill: #1f77b4; stroke: #1f77b4"/>
     <use xlink:href="#ma39b1b3d4b" x="353.495545" y="184.853642" style="fill: #1f77b4; stroke: #1f77b4"/>
     <use xlink:href="#ma39b1b3d4b" x="356.068777" y="190.700145" style="fill: #1f77b4; stroke: #1f77b4"/>
     <use xlink:href="#ma39b1b3d4b" x="356.829455" y="189.276483" style="fill: #1f77b4; stroke: #1f77b4"/>
     <use xlink:href="#ma39b1b3d4b" x="350.328154" y="195.320939" style="fill: #1f77b4; stroke: #1f77b4"/>
     <use xlink:href="#ma39b1b3d4b" x="351.00114" y="197.525348" style="fill: #1f77b4; stroke: #1f77b4"/>
     <use xlink:href="#ma39b1b3d4b" x="350.715389" y="195.966811" style="fill: #1f77b4; stroke: #1f77b4"/>
     <use xlink:href="#ma39b1b3d4b" x="349.653743" y="196.780027" style="fill: #1f77b4; stroke: #1f77b4"/>
     <use xlink:href="#ma39b1b3d4b" x="348.80666" y="197.18142" style="fill: #1f77b4; stroke: #1f77b4"/>
     <use xlink:href="#ma39b1b3d4b" x="351.389592" y="199.088847" style="fill: #1f77b4; stroke: #1f77b4"/>
     <use xlink:href="#ma39b1b3d4b" x="344.723128" y="200.724261" style="fill: #1f77b4; stroke: #1f77b4"/>
     <use xlink:href="#ma39b1b3d4b" x="345.004229" y="200.489857" style="fill: #1f77b4; stroke: #1f77b4"/>
     <use xlink:href="#ma39b1b3d4b" x="342.382336" y="205.453745" style="fill: #1f77b4; stroke: #1f77b4"/>
     <use xlink:href="#ma39b1b3d4b" x="344.70851" y="204.18778" style="fill: #1f77b4; stroke: #1f77b4"/>
     <use xlink:href="#ma39b1b3d4b" x="342.820126" y="207.601614" style="fill: #1f77b4; stroke: #1f77b4"/>
     <use xlink:href="#ma39b1b3d4b" x="342.432065" y="209.946037" style="fill: #1f77b4; stroke: #1f77b4"/>
     <use xlink:href="#ma39b1b3d4b" x="343.152704" y="211.931688" style="fill: #1f77b4; stroke: #1f77b4"/>
     <use xlink:href="#ma39b1b3d4b" x="340.283735" y="210.21197" style="fill: #1f77b4; stroke: #1f77b4"/>
     <use xlink:href="#ma39b1b3d4b" x="335.744787" y="211.99148" style="fill: #1f77b4; stroke: #1f77b4"/>
     <use xlink:href="#ma39b1b3d4b" x="343.590112" y="214.627274" style="fill: #1f77b4; stroke: #1f77b4"/>
     <use xlink:href="#ma39b1b3d4b" x="340.481324" y="215.113878" style="fill: #1f77b4; stroke: #1f77b4"/>
     <use xlink:href="#ma39b1b3d4b" x="337.021873" y="215.755747" style="fill: #1f77b4; stroke: #1f77b4"/>
     <use xlink:href="#ma39b1b3d4b" x="337.03497" y="218.532962" style="fill: #1f77b4; stroke: #1f77b4"/>
     <use xlink:href="#ma39b1b3d4b" x="338.253349" y="219.296762" style="fill: #1f77b4; stroke: #1f77b4"/>
     <use xlink:href="#ma39b1b3d4b" x="336.865592" y="221.553846" style="fill: #1f77b4; stroke: #1f77b4"/>
     <use xlink:href="#ma39b1b3d4b" x="334.318772" y="219.484937" style="fill: #1f77b4; stroke: #1f77b4"/>
     <use xlink:href="#ma39b1b3d4b" x="335.216836" y="223.769301" style="fill: #1f77b4; stroke: #1f77b4"/>
     <use xlink:href="#ma39b1b3d4b" x="334.689355" y="222.619024" style="fill: #1f77b4; stroke: #1f77b4"/>
     <use xlink:href="#ma39b1b3d4b" x="331.88801" y="226.348582" style="fill: #1f77b4; stroke: #1f77b4"/>
     <use xlink:href="#ma39b1b3d4b" x="330.214928" y="225.502411" style="fill: #1f77b4; stroke: #1f77b4"/>
     <use xlink:href="#ma39b1b3d4b" x="330.486939" y="227.458143" style="fill: #1f77b4; stroke: #1f77b4"/>
     <use xlink:href="#ma39b1b3d4b" x="331.691881" y="228.952347" style="fill: #1f77b4; stroke: #1f77b4"/>
     <use xlink:href="#ma39b1b3d4b" x="330.042725" y="230.32039" style="fill: #1f77b4; stroke: #1f77b4"/>
     <use xlink:href="#ma39b1b3d4b" x="328.19127" y="232.352907" style="fill: #1f77b4; stroke: #1f77b4"/>
     <use xlink:href="#ma39b1b3d4b" x="326.418024" y="229.405161" style="fill: #1f77b4; stroke: #1f77b4"/>
     <use xlink:href="#ma39b1b3d4b" x="326.26628" y="232.549277" style="fill: #1f77b4; stroke: #1f77b4"/>
     <use xlink:href="#ma39b1b3d4b" x="322.980005" y="233.152862" style="fill: #1f77b4; stroke: #1f77b4"/>
     <use xlink:href="#ma39b1b3d4b" x="323.421255" y="234.426278" style="fill: #1f77b4; stroke: #1f77b4"/>
     <use xlink:href="#ma39b1b3d4b" x="322.827679" y="235.253083" style="fill: #1f77b4; stroke: #1f77b4"/>
     <use xlink:href="#ma39b1b3d4b" x="319.977004" y="237.685601" style="fill: #1f77b4; stroke: #1f77b4"/>
     <use xlink:href="#ma39b1b3d4b" x="321.444336" y="239.427418" style="fill: #1f77b4; stroke: #1f77b4"/>
     <use xlink:href="#ma39b1b3d4b" x="315.588097" y="238.938869" style="fill: #1f77b4; stroke: #1f77b4"/>
     <use xlink:href="#ma39b1b3d4b" x="317.271982" y="240.622649" style="fill: #1f77b4; stroke: #1f77b4"/>
     <use xlink:href="#ma39b1b3d4b" x="318.12594" y="240.47879" style="fill: #1f77b4; stroke: #1f77b4"/>
     <use xlink:href="#ma39b1b3d4b" x="315.813385" y="240.888503" style="fill: #1f77b4; stroke: #1f77b4"/>
     <use xlink:href="#ma39b1b3d4b" x="314.368623" y="241.323055" style="fill: #1f77b4; stroke: #1f77b4"/>
     <use xlink:href="#ma39b1b3d4b" x="313.961642" y="241.241295" style="fill: #1f77b4; stroke: #1f77b4"/>
     <use xlink:href="#ma39b1b3d4b" x="311.080758" y="244.076475" style="fill: #1f77b4; stroke: #1f77b4"/>
     <use xlink:href="#ma39b1b3d4b" x="309.089048" y="243.16515" style="fill: #1f77b4; stroke: #1f77b4"/>
     <use xlink:href="#ma39b1b3d4b" x="309.670039" y="247.523697" style="fill: #1f77b4; stroke: #1f77b4"/>
     <use xlink:href="#ma39b1b3d4b" x="307.657723" y="247.339294" style="fill: #1f77b4; stroke: #1f77b4"/>
     <use xlink:href="#ma39b1b3d4b" x="307.426656" y="248.319657" style="fill: #1f77b4; stroke: #1f77b4"/>
     <use xlink:href="#ma39b1b3d4b" x="307.946358" y="248.241709" style="fill: #1f77b4; stroke: #1f77b4"/>
     <use xlink:href="#ma39b1b3d4b" x="306.133969" y="249.370261" style="fill: #1f77b4; stroke: #1f77b4"/>
     <use xlink:href="#ma39b1b3d4b" x="303.254449" y="251.910883" style="fill: #1f77b4; stroke: #1f77b4"/>
     <use xlink:href="#ma39b1b3d4b" x="305.025035" y="253.42325" style="fill: #1f77b4; stroke: #1f77b4"/>
     <use xlink:href="#ma39b1b3d4b" x="299.470512" y="251.335718" style="fill: #1f77b4; stroke: #1f77b4"/>
     <use xlink:href="#ma39b1b3d4b" x="300.321089" y="252.700304" style="fill: #1f77b4; stroke: #1f77b4"/>
     <use xlink:href="#ma39b1b3d4b" x="299.900298" y="255.025559" style="fill: #1f77b4; stroke: #1f77b4"/>
     <use xlink:href="#ma39b1b3d4b" x="298.002911" y="254.860107" style="fill: #1f77b4; stroke: #1f77b4"/>
     <use xlink:href="#ma39b1b3d4b" x="297.274529" y="255.30399" style="fill: #1f77b4; stroke: #1f77b4"/>
     <use xlink:href="#ma39b1b3d4b" x="294.82277" y="256.459701" style="fill: #1f77b4; stroke: #1f77b4"/>
     <use xlink:href="#ma39b1b3d4b" x="296.185524" y="258.689088" style="fill: #1f77b4; stroke: #1f77b4"/>
     <use xlink:href="#ma39b1b3d4b" x="291.220118" y="260.143214" style="fill: #1f77b4; stroke: #1f77b4"/>
     <use xlink:href="#ma39b1b3d4b" x="292.823759" y="261.226234" style="fill: #1f77b4; stroke: #1f77b4"/>
     <use xlink:href="#ma39b1b3d4b" x="288.117614" y="261.144507" style="fill: #1f77b4; stroke: #1f77b4"/>
     <use xlink:href="#ma39b1b3d4b" x="288.8305" y="261.366636" style="fill: #1f77b4; stroke: #1f77b4"/>
     <use xlink:href="#ma39b1b3d4b" x="288.405894" y="263.17521" style="fill: #1f77b4; stroke: #1f77b4"/>
     <use xlink:href="#ma39b1b3d4b" x="287.21842" y="264.64426" style="fill: #1f77b4; stroke: #1f77b4"/>
     <use xlink:href="#ma39b1b3d4b" x="284.283913" y="263.990174" style="fill: #1f77b4; stroke: #1f77b4"/>
     <use xlink:href="#ma39b1b3d4b" x="280.58506" y="264.377255" style="fill: #1f77b4; stroke: #1f77b4"/>
     <use xlink:href="#ma39b1b3d4b" x="281.893756" y="267.412537" style="fill: #1f77b4; stroke: #1f77b4"/>
     <use xlink:href="#ma39b1b3d4b" x="279.786108" y="267.599076" style="fill: #1f77b4; stroke: #1f77b4"/>
     <use xlink:href="#ma39b1b3d4b" x="278.78974" y="267.61258" style="fill: #1f77b4; stroke: #1f77b4"/>
     <use xlink:href="#ma39b1b3d4b" x="275.995261" y="269.949164" style="fill: #1f77b4; stroke: #1f77b4"/>
     <use xlink:href="#ma39b1b3d4b" x="274.305223" y="270.676585" style="fill: #1f77b4; stroke: #1f77b4"/>
     <use xlink:href="#ma39b1b3d4b" x="272.735616" y="270.312056" style="fill: #1f77b4; stroke: #1f77b4"/>
     <use xlink:href="#ma39b1b3d4b" x="271.11242" y="273.467737" style="fill: #1f77b4; stroke: #1f77b4"/>
     <use xlink:href="#ma39b1b3d4b" x="270.616113" y="272.772003" style="fill: #1f77b4; stroke: #1f77b4"/>
     <use xlink:href="#ma39b1b3d4b" x="265.579529" y="275.115795" style="fill: #1f77b4; stroke: #1f77b4"/>
     <use xlink:href="#ma39b1b3d4b" x="266.653889" y="276.255781" style="fill: #1f77b4; stroke: #1f77b4"/>
     <use xlink:href="#ma39b1b3d4b" x="263.944626" y="278.601597" style="fill: #1f77b4; stroke: #1f77b4"/>
     <use xlink:href="#ma39b1b3d4b" x="261.267432" y="279.632257" style="fill: #1f77b4; stroke: #1f77b4"/>
     <use xlink:href="#ma39b1b3d4b" x="258.601015" y="281.185741" style="fill: #1f77b4; stroke: #1f77b4"/>
     <use xlink:href="#ma39b1b3d4b" x="251.91916" y="284.404026" style="fill: #1f77b4; stroke: #1f77b4"/>
     <use xlink:href="#ma39b1b3d4b" x="247.9597" y="286.486899" style="fill: #1f77b4; stroke: #1f77b4"/>
     <use xlink:href="#ma39b1b3d4b" x="244.09518" y="289.731871" style="fill: #1f77b4; stroke: #1f77b4"/>
     <use xlink:href="#ma39b1b3d4b" x="238.121934" y="291.087993" style="fill: #1f77b4; stroke: #1f77b4"/>
     <use xlink:href="#ma39b1b3d4b" x="231.728697" y="291.991084" style="fill: #1f77b4; stroke: #1f77b4"/>
     <use xlink:href="#ma39b1b3d4b" x="221.055121" y="291.357987" style="fill: #1f77b4; stroke: #1f77b4"/>
     <use xlink:href="#ma39b1b3d4b" x="204.567039" y="289.571991" style="fill: #1f77b4; stroke: #1f77b4"/>
     <use xlink:href="#ma39b1b3d4b" x="189.654058" y="283.987092" style="fill: #1f77b4; stroke: #1f77b4"/>
     <use xlink:href="#ma39b1b3d4b" x="172.103835" y="270.116239" style="fill: #1f77b4; stroke: #1f77b4"/>
     <use xlink:href="#ma39b1b3d4b" x="161.206788" y="256.133897" style="fill: #1f77b4; stroke: #1f77b4"/>
     <use xlink:href="#ma39b1b3d4b" x="177.89696" y="234.969697" style="fill: #1f77b4; stroke: #1f77b4"/>
     <use xlink:href="#ma39b1b3d4b" x="187.177913" y="218.152406" style="fill: #1f77b4; stroke: #1f77b4"/>
     <use xlink:href="#ma39b1b3d4b" x="205.524854" y="210.282112" style="fill: #1f77b4; stroke: #1f77b4"/>
     <use xlink:href="#ma39b1b3d4b" x="226.726338" y="210.548617" style="fill: #1f77b4; stroke: #1f77b4"/>
     <use xlink:href="#ma39b1b3d4b" x="236.544557" y="206.127794" style="fill: #1f77b4; stroke: #1f77b4"/>
     <use xlink:href="#ma39b1b3d4b" x="246.878073" y="210.560117" style="fill: #1f77b4; stroke: #1f77b4"/>
     <use xlink:href="#ma39b1b3d4b" x="257.999139" y="221.216976" style="fill: #1f77b4; stroke: #1f77b4"/>
     <use xlink:href="#ma39b1b3d4b" x="258.560628" y="231.443777" style="fill: #1f77b4; stroke: #1f77b4"/>
     <use xlink:href="#ma39b1b3d4b" x="262.3203" y="234.965944" style="fill: #1f77b4; stroke: #1f77b4"/>
     <use xlink:href="#ma39b1b3d4b" x="259.699111" y="238.864601" style="fill: #1f77b4; stroke: #1f77b4"/>
     <use xlink:href="#ma39b1b3d4b" x="258.405086" y="241.901578" style="fill: #1f77b4; stroke: #1f77b4"/>
     <use xlink:href="#ma39b1b3d4b" x="257.12786" y="246.915762" style="fill: #1f77b4; stroke: #1f77b4"/>
     <use xlink:href="#ma39b1b3d4b" x="255.848992" y="248.650955" style="fill: #1f77b4; stroke: #1f77b4"/>
     <use xlink:href="#ma39b1b3d4b" x="252.939767" y="251.046444" style="fill: #1f77b4; stroke: #1f77b4"/>
     <use xlink:href="#ma39b1b3d4b" x="251.350918" y="255.985163" style="fill: #1f77b4; stroke: #1f77b4"/>
     <use xlink:href="#ma39b1b3d4b" x="248.575099" y="257.301969" style="fill: #1f77b4; stroke: #1f77b4"/>
     <use xlink:href="#ma39b1b3d4b" x="247.73901" y="256.443865" style="fill: #1f77b4; stroke: #1f77b4"/>
     <use xlink:href="#ma39b1b3d4b" x="246.458829" y="258.255363" style="fill: #1f77b4; stroke: #1f77b4"/>
     <use xlink:href="#ma39b1b3d4b" x="244.356874" y="259.847316" style="fill: #1f77b4; stroke: #1f77b4"/>
     <use xlink:href="#ma39b1b3d4b" x="241.109213" y="260.663738" style="fill: #1f77b4; stroke: #1f77b4"/>
     <use xlink:href="#ma39b1b3d4b" x="241.698687" y="262.56094" style="fill: #1f77b4; stroke: #1f77b4"/>
     <use xlink:href="#ma39b1b3d4b" x="237.213154" y="262.413743" style="fill: #1f77b4; stroke: #1f77b4"/>
     <use xlink:href="#ma39b1b3d4b" x="237.526603" y="263.97021" style="fill: #1f77b4; stroke: #1f77b4"/>
     <use xlink:href="#ma39b1b3d4b" x="234.326395" y="263.063873" style="fill: #1f77b4; stroke: #1f77b4"/>
     <use xlink:href="#ma39b1b3d4b" x="234.545824" y="264.441687" style="fill: #1f77b4; stroke: #1f77b4"/>
     <use xlink:href="#ma39b1b3d4b" x="232.788501" y="264.509023" style="fill: #1f77b4; stroke: #1f77b4"/>
     <use xlink:href="#ma39b1b3d4b" x="231.123241" y="265.294429" style="fill: #1f77b4; stroke: #1f77b4"/>
     <use xlink:href="#ma39b1b3d4b" x="229.195191" y="264.739011" style="fill: #1f77b4; stroke: #1f77b4"/>
     <use xlink:href="#ma39b1b3d4b" x="230.669806" y="267.300694" style="fill: #1f77b4; stroke: #1f77b4"/>
     <use xlink:href="#ma39b1b3d4b" x="226.140523" y="265.929826" style="fill: #1f77b4; stroke: #1f77b4"/>
     <use xlink:href="#ma39b1b3d4b" x="226.341449" y="266.054089" style="fill: #1f77b4; stroke: #1f77b4"/>
     <use xlink:href="#ma39b1b3d4b" x="222.147689" y="267.862999" style="fill: #1f77b4; stroke: #1f77b4"/>
     <use xlink:href="#ma39b1b3d4b" x="221.794957" y="268.466308" style="fill: #1f77b4; stroke: #1f77b4"/>
     <use xlink:href="#ma39b1b3d4b" x="220.681174" y="268.178801" style="fill: #1f77b4; stroke: #1f77b4"/>
     <use xlink:href="#ma39b1b3d4b" x="218.281831" y="269.723854" style="fill: #1f77b4; stroke: #1f77b4"/>
     <use xlink:href="#ma39b1b3d4b" x="219.162444" y="270.355998" style="fill: #1f77b4; stroke: #1f77b4"/>
     <use xlink:href="#ma39b1b3d4b" x="215.455274" y="268.617691" style="fill: #1f77b4; stroke: #1f77b4"/>
     <use xlink:href="#ma39b1b3d4b" x="214.248124" y="270.408082" style="fill: #1f77b4; stroke: #1f77b4"/>
     <use xlink:href="#ma39b1b3d4b" x="212.950692" y="270.549667" style="fill: #1f77b4; stroke: #1f77b4"/>
     <use xlink:href="#ma39b1b3d4b" x="211.318284" y="270.334911" style="fill: #1f77b4; stroke: #1f77b4"/>
     <use xlink:href="#ma39b1b3d4b" x="209.286629" y="270.253178" style="fill: #1f77b4; stroke: #1f77b4"/>
     <use xlink:href="#ma39b1b3d4b" x="207.750856" y="269.71246" style="fill: #1f77b4; stroke: #1f77b4"/>
     <use xlink:href="#ma39b1b3d4b" x="207.43002" y="272.368105" style="fill: #1f77b4; stroke: #1f77b4"/>
     <use xlink:href="#ma39b1b3d4b" x="205.229344" y="271.256376" style="fill: #1f77b4; stroke: #1f77b4"/>
     <use xlink:href="#ma39b1b3d4b" x="204.375716" y="270.52605" style="fill: #1f77b4; stroke: #1f77b4"/>
     <use xlink:href="#ma39b1b3d4b" x="202.233591" y="271.070244" style="fill: #1f77b4; stroke: #1f77b4"/>
     <use xlink:href="#ma39b1b3d4b" x="200.18472" y="270.670618" style="fill: #1f77b4; stroke: #1f77b4"/>
     <use xlink:href="#ma39b1b3d4b" x="198.215893" y="270.924158" style="fill: #1f77b4; stroke: #1f77b4"/>
     <use xlink:href="#ma39b1b3d4b" x="195.546669" y="271.051076" style="fill: #1f77b4; stroke: #1f77b4"/>
     <use xlink:href="#ma39b1b3d4b" x="196.67753" y="271.27103" style="fill: #1f77b4; stroke: #1f77b4"/>
     <use xlink:href="#ma39b1b3d4b" x="196.329143" y="270.331718" style="fill: #1f77b4; stroke: #1f77b4"/>
     <use xlink:href="#ma39b1b3d4b" x="191.290473" y="271.761241" style="fill: #1f77b4; stroke: #1f77b4"/>
     <use xlink:href="#ma39b1b3d4b" x="190.91039" y="271.522578" style="fill: #1f77b4; stroke: #1f77b4"/>
     <use xlink:href="#ma39b1b3d4b" x="190.217224" y="270.897787" style="fill: #1f77b4; stroke: #1f77b4"/>
     <use xlink:href="#ma39b1b3d4b" x="189.065436" y="272.124679" style="fill: #1f77b4; stroke: #1f77b4"/>
     <use xlink:href="#ma39b1b3d4b" x="187.778659" y="269.871997" style="fill: #1f77b4; stroke: #1f77b4"/>
     <use xlink:href="#ma39b1b3d4b" x="185.220227" y="271.310977" style="fill: #1f77b4; stroke: #1f77b4"/>
     <use xlink:href="#ma39b1b3d4b" x="185.96022" y="271.466506" style="fill: #1f77b4; stroke: #1f77b4"/>
     <use xlink:href="#ma39b1b3d4b" x="182.632437" y="272.316626" style="fill: #1f77b4; stroke: #1f77b4"/>
     <use xlink:href="#ma39b1b3d4b" x="181.411894" y="271.663828" style="fill: #1f77b4; stroke: #1f77b4"/>
     <use xlink:href="#ma39b1b3d4b" x="179.263807" y="270.931058" style="fill: #1f77b4; stroke: #1f77b4"/>
     <use xlink:href="#ma39b1b3d4b" x="178.427822" y="271.886108" style="fill: #1f77b4; stroke: #1f77b4"/>
     <use xlink:href="#ma39b1b3d4b" x="177.250908" y="271.306738" style="fill: #1f77b4; stroke: #1f77b4"/>
     <use xlink:href="#ma39b1b3d4b" x="176.571187" y="270.131878" style="fill: #1f77b4; stroke: #1f77b4"/>
     <use xlink:href="#ma39b1b3d4b" x="173.480381" y="270.240876" style="fill: #1f77b4; stroke: #1f77b4"/>
     <use xlink:href="#ma39b1b3d4b" x="172.849199" y="269.365647" style="fill: #1f77b4; stroke: #1f77b4"/>
     <use xlink:href="#ma39b1b3d4b" x="171.497953" y="270.746839" style="fill: #1f77b4; stroke: #1f77b4"/>
     <use xlink:href="#ma39b1b3d4b" x="168.308183" y="270.979547" style="fill: #1f77b4; stroke: #1f77b4"/>
     <use xlink:href="#ma39b1b3d4b" x="169.182243" y="269.409556" style="fill: #1f77b4; stroke: #1f77b4"/>
     <use xlink:href="#ma39b1b3d4b" x="168.075186" y="269.880251" style="fill: #1f77b4; stroke: #1f77b4"/>
     <use xlink:href="#ma39b1b3d4b" x="165.346238" y="270.115246" style="fill: #1f77b4; stroke: #1f77b4"/>
     <use xlink:href="#ma39b1b3d4b" x="164.420397" y="269.207811" style="fill: #1f77b4; stroke: #1f77b4"/>
     <use xlink:href="#ma39b1b3d4b" x="164.143702" y="268.89632" style="fill: #1f77b4; stroke: #1f77b4"/>
     <use xlink:href="#ma39b1b3d4b" x="162.66608" y="266.999177" style="fill: #1f77b4; stroke: #1f77b4"/>
     <use xlink:href="#ma39b1b3d4b" x="159.199555" y="267.389998" style="fill: #1f77b4; stroke: #1f77b4"/>
     <use xlink:href="#ma39b1b3d4b" x="159.185145" y="269.064459" style="fill: #1f77b4; stroke: #1f77b4"/>
     <use xlink:href="#ma39b1b3d4b" x="158.232432" y="267.546802" style="fill: #1f77b4; stroke: #1f77b4"/>
     <use xlink:href="#ma39b1b3d4b" x="157.329318" y="267.033013" style="fill: #1f77b4; stroke: #1f77b4"/>
     <use xlink:href="#ma39b1b3d4b" x="155.632241" y="268.020933" style="fill: #1f77b4; stroke: #1f77b4"/>
     <use xlink:href="#ma39b1b3d4b" x="152.325829" y="266.756329" style="fill: #1f77b4; stroke: #1f77b4"/>
     <use xlink:href="#ma39b1b3d4b" x="151.50561" y="265.771885" style="fill: #1f77b4; stroke: #1f77b4"/>
     <use xlink:href="#ma39b1b3d4b" x="149.456964" y="266.176998" style="fill: #1f77b4; stroke: #1f77b4"/>
     <use xlink:href="#ma39b1b3d4b" x="150.305282" y="264.472217" style="fill: #1f77b4; stroke: #1f77b4"/>
     <use xlink:href="#ma39b1b3d4b" x="148.192593" y="266.012617" style="fill: #1f77b4; stroke: #1f77b4"/>
     <use xlink:href="#ma39b1b3d4b" x="147.841669" y="264.84862" style="fill: #1f77b4; stroke: #1f77b4"/>
     <use xlink:href="#ma39b1b3d4b" x="146.696694" y="265.548941" style="fill: #1f77b4; stroke: #1f77b4"/>
     <use xlink:href="#ma39b1b3d4b" x="143.638983" y="265.276936" style="fill: #1f77b4; stroke: #1f77b4"/>
     <use xlink:href="#ma39b1b3d4b" x="141.517264" y="265.531054" style="fill: #1f77b4; stroke: #1f77b4"/>
     <use xlink:href="#ma39b1b3d4b" x="141.882998" y="262.598048" style="fill: #1f77b4; stroke: #1f77b4"/>
     <use xlink:href="#ma39b1b3d4b" x="138.958381" y="262.093104" style="fill: #1f77b4; stroke: #1f77b4"/>
     <use xlink:href="#ma39b1b3d4b" x="139.161976" y="263.15476" style="fill: #1f77b4; stroke: #1f77b4"/>
     <use xlink:href="#ma39b1b3d4b" x="137.739228" y="262.669149" style="fill: #1f77b4; stroke: #1f77b4"/>
     <use xlink:href="#ma39b1b3d4b" x="136.383115" y="262.118292" style="fill: #1f77b4; stroke: #1f77b4"/>
     <use xlink:href="#ma39b1b3d4b" x="135.358388" y="261.957933" style="fill: #1f77b4; stroke: #1f77b4"/>
     <use xlink:href="#ma39b1b3d4b" x="134.283949" y="262.010398" style="fill: #1f77b4; stroke: #1f77b4"/>
     <use xlink:href="#ma39b1b3d4b" x="131.239388" y="260.368254" style="fill: #1f77b4; stroke: #1f77b4"/>
     <use xlink:href="#ma39b1b3d4b" x="133.062494" y="260.147111" style="fill: #1f77b4; stroke: #1f77b4"/>
     <use xlink:href="#ma39b1b3d4b" x="129.764895" y="259.191029" style="fill: #1f77b4; stroke: #1f77b4"/>
     <use xlink:href="#ma39b1b3d4b" x="128.112428" y="259.985339" style="fill: #1f77b4; stroke: #1f77b4"/>
     <use xlink:href="#ma39b1b3d4b" x="128.473876" y="258.90663" style="fill: #1f77b4; stroke: #1f77b4"/>
     <use xlink:href="#ma39b1b3d4b" x="126.897455" y="257.555712" style="fill: #1f77b4; stroke: #1f77b4"/>
     <use xlink:href="#ma39b1b3d4b" x="125.419833" y="257.944338" style="fill: #1f77b4; stroke: #1f77b4"/>
     <use xlink:href="#ma39b1b3d4b" x="123.843803" y="257.883665" style="fill: #1f77b4; stroke: #1f77b4"/>
     <use xlink:href="#ma39b1b3d4b" x="125.947619" y="257.546178" style="fill: #1f77b4; stroke: #1f77b4"/>
     <use xlink:href="#ma39b1b3d4b" x="123.567822" y="256.278275" style="fill: #1f77b4; stroke: #1f77b4"/>
     <use xlink:href="#ma39b1b3d4b" x="120.159222" y="254.483783" style="fill: #1f77b4; stroke: #1f77b4"/>
     <use xlink:href="#ma39b1b3d4b" x="119.279625" y="254.576431" style="fill: #1f77b4; stroke: #1f77b4"/>
     <use xlink:href="#ma39b1b3d4b" x="118.878954" y="253.680982" style="fill: #1f77b4; stroke: #1f77b4"/>
     <use xlink:href="#ma39b1b3d4b" x="117.17654" y="254.401155" style="fill: #1f77b4; stroke: #1f77b4"/>
     <use xlink:href="#ma39b1b3d4b" x="115.985086" y="252.592988" style="fill: #1f77b4; stroke: #1f77b4"/>
     <use xlink:href="#ma39b1b3d4b" x="114.715256" y="252.685098" style="fill: #1f77b4; stroke: #1f77b4"/>
     <use xlink:href="#ma39b1b3d4b" x="114.809771" y="252.164843" style="fill: #1f77b4; stroke: #1f77b4"/>
     <use xlink:href="#ma39b1b3d4b" x="111.873308" y="251.018982" style="fill: #1f77b4; stroke: #1f77b4"/>
     <use xlink:href="#ma39b1b3d4b" x="112.412183" y="250.133745" style="fill: #1f77b4; stroke: #1f77b4"/>
     <use xlink:href="#ma39b1b3d4b" x="111.918188" y="249.12895" style="fill: #1f77b4; stroke: #1f77b4"/>
     <use xlink:href="#ma39b1b3d4b" x="109.221396" y="248.780442" style="fill: #1f77b4; stroke: #1f77b4"/>
     <use xlink:href="#ma39b1b3d4b" x="108.750441" y="247.999912" style="fill: #1f77b4; stroke: #1f77b4"/>
     <use xlink:href="#ma39b1b3d4b" x="108.365352" y="247.111645" style="fill: #1f77b4; stroke: #1f77b4"/>
     <use xlink:href="#ma39b1b3d4b" x="106.643836" y="246.117936" style="fill: #1f77b4; stroke: #1f77b4"/>
     <use xlink:href="#ma39b1b3d4b" x="106.177469" y="245.343221" style="fill: #1f77b4; stroke: #1f77b4"/>
     <use xlink:href="#ma39b1b3d4b" x="104.167117" y="245.250546" style="fill: #1f77b4; stroke: #1f77b4"/>
     <use xlink:href="#ma39b1b3d4b" x="105.064434" y="243.78494" style="fill: #1f77b4; stroke: #1f77b4"/>
     <use xlink:href="#ma39b1b3d4b" x="101.938047" y="243.604664" style="fill: #1f77b4; stroke: #1f77b4"/>
     <use xlink:href="#ma39b1b3d4b" x="102.40722" y="243.489738" style="fill: #1f77b4; stroke: #1f77b4"/>
     <use xlink:href="#ma39b1b3d4b" x="101.370335" y="242.303891" style="fill: #1f77b4; stroke: #1f77b4"/>
     <use xlink:href="#ma39b1b3d4b" x="98.987357" y="240.930066" style="fill: #1f77b4; stroke: #1f77b4"/>
     <use xlink:href="#ma39b1b3d4b" x="98.501375" y="240.140855" style="fill: #1f77b4; stroke: #1f77b4"/>
     <use xlink:href="#ma39b1b3d4b" x="99.284484" y="239.832071" style="fill: #1f77b4; stroke: #1f77b4"/>
     <use xlink:href="#ma39b1b3d4b" x="97.985531" y="238.621345" style="fill: #1f77b4; stroke: #1f77b4"/>
     <use xlink:href="#ma39b1b3d4b" x="96.166093" y="237.27667" style="fill: #1f77b4; stroke: #1f77b4"/>
     <use xlink:href="#ma39b1b3d4b" x="96.165693" y="238.11581" style="fill: #1f77b4; stroke: #1f77b4"/>
     <use xlink:href="#ma39b1b3d4b" x="94.124687" y="236.60586" style="fill: #1f77b4; stroke: #1f77b4"/>
     <use xlink:href="#ma39b1b3d4b" x="94.492959" y="236.077595" style="fill: #1f77b4; stroke: #1f77b4"/>
     <use xlink:href="#ma39b1b3d4b" x="93.557158" y="233.993395" style="fill: #1f77b4; stroke: #1f77b4"/>
     <use xlink:href="#ma39b1b3d4b" x="91.86566" y="233.974404" style="fill: #1f77b4; stroke: #1f77b4"/>
     <use xlink:href="#ma39b1b3d4b" x="92.167975" y="232.8062" style="fill: #1f77b4; stroke: #1f77b4"/>
     <use xlink:href="#ma39b1b3d4b" x="90.173545" y="231.156125" style="fill: #1f77b4; stroke: #1f77b4"/>
     <use xlink:href="#ma39b1b3d4b" x="89.352786" y="231.302323" style="fill: #1f77b4; stroke: #1f77b4"/>
    </g>
   </g>
   <g id="line2d_18">
    <path d="M 388.276335 285.473506 
L 373.580835 289.758416 
L 358.510331 292.909818 
L 343.283857 294.910884 
L 328.116803 295.776 
L 313.211751 295.548447 
L 298.750841 294.296419 
L 284.890148 292.107899 
L 271.756302 289.084954 
L 259.445292 285.338011 
L 248.023171 280.980566 
L 237.528255 276.124631 
L 227.974344 270.877117 
L 219.354527 265.33718 
L 211.645168 259.594494 
L 204.809789 253.72833 
L 198.80263 247.807295 
L 193.571772 241.889569 
L 189.061756 236.023506 
L 185.215711 230.248448 
L 181.977013 224.59568 
L 179.29052 219.089407 
L 177.103461 213.747735 
L 175.366024 208.583591 
L 174.03171 203.605564 
L 173.057512 198.81867 
L 172.403945 194.225009 
L 172.034986 189.82435 
L 171.917941 185.614618 
L 172.023263 181.592308 
L 172.32435 177.752836 
L 172.797322 174.090821 
L 173.4208 170.600322 
L 174.175684 167.275028 
L 175.044945 164.108407 
L 176.013422 161.093834 
L 177.067634 158.224679 
L 179.386741 152.896525 
L 181.92189 148.073272 
L 184.610055 143.707368 
L 187.401977 139.754964 
L 190.259284 136.176095 
L 193.15219 132.934628 
L 196.057674 129.998067 
L 198.958037 127.337295 
L 201.83977 124.926279 
L 206.105814 121.727877 
L 210.283412 118.971481 
L 214.357641 116.599524 
L 218.319981 114.563349 
L 222.166324 112.821725 
L 225.895584 111.339602 
L 230.687649 109.716068 
L 235.279158 108.441921 
L 239.678212 107.46864 
L 243.894039 106.75625 
L 247.93623 106.271596 
L 252.759224 105.944287 
L 257.343413 105.885283 
L 261.705195 106.058357 
L 265.859509 106.433799 
L 269.819826 106.987025 
L 274.333027 107.856916 
L 278.602583 108.924033 
L 282.644498 110.164193 
L 286.472678 111.557285 
L 290.099202 113.086409 
L 294.089216 115.023283 
L 297.83338 117.106526 
L 301.343972 119.319768 
L 304.631507 121.648972 
L 307.705026 124.08196 
L 310.572335 126.60804 
L 313.605402 129.596853 
L 316.386683 132.68228 
L 318.9237 135.853043 
L 321.222985 139.09894 
L 323.29026 142.410648 
L 325.130589 145.779557 
L 326.748503 149.197652 
L 328.148101 152.657411 
L 329.333142 156.151727 
L 330.307115 159.673845 
L 331.073297 163.217313 
L 331.634813 166.775939 
L 331.994671 170.34376 
L 332.162121 174.361383 
L 332.082173 178.375425 
L 331.758918 182.378214 
L 331.196463 186.362313 
L 330.398964 190.3205 
L 329.370653 194.245758 
L 328.115865 198.131262 
L 326.639051 201.970371 
L 324.944798 205.756622 
L 323.037839 209.483729 
L 320.923061 213.145581 
L 318.605515 216.736237 
L 316.090423 220.249933 
L 313.383175 223.681077 
L 310.156532 227.390059 
L 306.707424 230.983275 
L 303.044008 234.453835 
L 299.174698 237.795127 
L 295.10817 241.00083 
L 290.853348 244.064917 
L 286.419401 246.981657 
L 281.815729 249.745628 
L 277.051957 252.351717 
L 272.137923 254.795128 
L 267.083661 257.071389 
L 261.899393 259.176354 
L 256.595512 261.106211 
L 251.182568 262.857483 
L 245.671251 264.427038 
L 239.508095 265.940344 
L 233.253546 267.227179 
L 226.922283 268.28483 
L 220.529087 269.111105 
L 214.088819 269.704332 
L 207.616381 270.06336 
L 201.126694 270.187563 
L 194.634666 270.076836 
L 188.155164 269.731596 
L 181.702978 269.15278 
L 175.292801 268.341841 
L 168.939189 267.300743 
L 162.656538 266.031954 
L 156.459052 264.538445 
L 150.360717 262.823679 
L 144.375265 260.8916 
L 138.516153 258.746629 
L 133.310396 256.616017 
L 128.229569 254.317487 
L 123.283072 251.855336 
L 118.480046 249.234155 
L 113.829354 246.458818 
L 109.339572 243.534476 
L 105.018969 240.466547 
L 100.875495 237.260704 
L 96.916767 233.922867 
L 93.150058 230.459189 
L 89.582279 226.876049 
L 86.219974 223.180036 
L 83.069305 219.377941 
L 80.136043 215.47674 
L 77.425556 211.483586 
L 74.942802 207.405793 
L 72.69232 203.250824 
L 70.678225 199.026276 
L 68.904194 194.739868 
L 67.373469 190.399428 
L 66.206161 186.453377 
L 65.239926 182.475802 
L 64.476194 178.472575 
L 63.916096 174.449602 
L 63.62179 171.310769 
L 63.62179 171.310769 
" clip-path="url(#p316c803655)" style="fill: none; stroke: #d62728; stroke-width: 1.5; stroke-linecap: square"/>
   </g>
   <g id="patch_3">
    <path d="M 47.389063 307.872 
L 47.389063 41.76 
" style="fill: none; stroke: #000000; stroke-width: 0.8; stroke-linejoin: miter; stroke-linecap: square"/>
   </g>
   <g id="patch_4">
    <path d="M 404.509063 307.872 
L 404.509063 41.76 
" style="fill: none; stroke: #000000; stroke-width: 0.8; stroke-linejoin: miter; stroke-linecap: square"/>
   </g>
   <g id="patch_5">
    <path d="M 47.389062 307.872 
L 404.509063 307.872 
" style="fill: none; stroke: #000000; stroke-width: 0.8; stroke-linejoin: miter; stroke-linecap: square"/>
   </g>
   <g id="patch_6">
    <path d="M 47.389062 41.76 
L 404.509063 41.76 
" style="fill: none; stroke: #000000; stroke-width: 0.8; stroke-linejoin: miter; stroke-linecap: square"/>
   </g>
   <g id="text_19">
    <g id="patch_7">
     <path d="M 422.365063 79.941538 
L 582.472875 79.941538 
Q 586.472875 79.941538 586.472875 75.941538 
L 586.472875 55.0656 
Q 586.472875 51.0656 582.472875 51.0656 
L 422.365063 51.0656 
Q 418.365063 51.0656 418.365063 55.0656 
L 418.365063 75.941538 
Q 418.365063 79.941538 422.365063 79.941538 
z
" style="fill: #ffffff; opacity: 0.5; stroke: #000000; stroke-linejoin: miter"/>
    </g>
    <!-- Warning: fit failed. lmfit was not -->
    <g transform="translate(422.365063 62.664038) scale(0.1 -0.1)">
     <defs>
      <path id="DejaVuSans-57" d="M 213 4666 
L 850 4666 
L 1831 722 
L 2809 4666 
L 3519 4666 
L 4500 722 
L 5478 4666 
L 6119 4666 
L 4947 0 
L 4153 0 
L 3169 4050 
L 2175 0 
L 1381 0 
L 213 4666 
z
" transform="scale(0.015625)"/>
      <path id="DejaVuSans-61" d="M 2194 1759 
Q 1497 1759 1228 1600 
Q 959 1441 959 1056 
Q 959 750 1161 570 
Q 1363 391 1709 391 
Q 2188 391 2477 730 
Q 2766 1069 2766 1631 
L 2766 1759 
L 2194 1759 
z
M 3341 1997 
L 3341 0 
L 2766 0 
L 2766 531 
Q 2569 213 2275 61 
Q 1981 -91 1556 -91 
Q 1019 -91 701 211 
Q 384 513 384 1019 
Q 384 1609 779 1909 
Q 1175 2209 1959 2209 
L 2766 2209 
L 2766 2266 
Q 2766 2663 2505 2880 
Q 2244 3097 1772 3097 
Q 1472 3097 1187 3025 
Q 903 2953 641 2809 
L 641 3341 
Q 956 3463 1253 3523 
Q 1550 3584 1831 3584 
Q 2591 3584 2966 3190 
Q 3341 2797 3341 1997 
z
" transform="scale(0.015625)"/>
      <path id="DejaVuSans-72" d="M 2631 2963 
Q 2534 3019 2420 3045 
Q 2306 3072 2169 3072 
Q 1681 3072 1420 2755 
Q 1159 2438 1159 1844 
L 1159 0 
L 581 0 
L 581 3500 
L 1159 3500 
L 1159 2956 
Q 1341 3275 1631 3429 
Q 1922 3584 2338 3584 
Q 2397 3584 2469 3576 
Q 2541 3569 2628 3553 
L 2631 2963 
z
" transform="scale(0.015625)"/>
      <path id="DejaVuSans-6e" d="M 3513 2113 
L 3513 0 
L 2938 0 
L 2938 2094 
Q 2938 2591 2744 2837 
Q 2550 3084 2163 3084 
Q 1697 3084 1428 2787 
Q 1159 2491 1159 1978 
L 1159 0 
L 581 0 
L 581 3500 
L 1159 3500 
L 1159 2956 
Q 1366 3272 1645 3428 
Q 1925 3584 2291 3584 
Q 2894 3584 3203 3211 
Q 3513 2838 3513 2113 
z
" transform="scale(0.015625)"/>
      <path id="DejaVuSans-69" d="M 603 3500 
L 1178 3500 
L 1178 0 
L 603 0 
L 603 3500 
z
M 603 4863 
L 1178 4863 
L 1178 4134 
L 603 4134 
L 603 4863 
z
" transform="scale(0.015625)"/>
      <path id="DejaVuSans-67" d="M 2906 1791 
Q 2906 2416 2648 2759 
Q 2391 3103 1925 3103 
Q 1463 3103 1205 2759 
Q 947 2416 947 1791 
Q 947 1169 1205 825 
Q 1463 481 1925 481 
Q 2391 481 2648 825 
Q 2906 1169 2906 1791 
z
M 3481 434 
Q 3481 -459 3084 -895 
Q 2688 -1331 1869 -1331 
Q 1566 -1331 1297 -1286 
Q 1028 -1241 775 -1147 
L 775 -588 
Q 1028 -725 1275 -790 
Q 1522 -856 1778 -856 
Q 2344 -856 2625 -561 
Q 2906 -266 2906 331 
L 2906 616 
Q 2728 306 2450 153 
Q 2172 0 1784 0 
Q 1141 0 747 490 
Q 353 981 353 1791 
Q 353 2603 747 3093 
Q 1141 3584 1784 3584 
Q 2172 3584 2450 3431 
Q 2728 3278 2906 2969 
L 2906 3500 
L 3481 3500 
L 3481 434 
z
" transform="scale(0.015625)"/>
      <path id="DejaVuSans-3a" d="M 750 794 
L 1409 794 
L 1409 0 
L 750 0 
L 750 794 
z
M 750 3309 
L 1409 3309 
L 1409 2516 
L 750 2516 
L 750 3309 
z
" transform="scale(0.015625)"/>
      <path id="DejaVuSans-66" d="M 2375 4863 
L 2375 4384 
L 1825 4384 
Q 1516 4384 1395 4259 
Q 1275 4134 1275 3809 
L 1275 3500 
L 2222 3500 
L 2222 3053 
L 1275 3053 
L 1275 0 
L 697 0 
L 697 3053 
L 147 3053 
L 147 3500 
L 697 3500 
L 697 3744 
Q 697 4328 969 4595 
Q 1241 4863 1831 4863 
L 2375 4863 
z
" transform="scale(0.015625)"/>
      <path id="DejaVuSans-74" d="M 1172 4494 
L 1172 3500 
L 2356 3500 
L 2356 3053 
L 1172 3053 
L 1172 1153 
Q 1172 725 1289 603 
Q 1406 481 1766 481 
L 2356 481 
L 2356 0 
L 1766 0 
Q 1100 0 847 248 
Q 594 497 594 1153 
L 594 3053 
L 172 3053 
L 172 3500 
L 594 3500 
L 594 4494 
L 1172 4494 
z
" transform="scale(0.015625)"/>
      <path id="DejaVuSans-6c" d="M 603 4863 
L 1178 4863 
L 1178 0 
L 603 0 
L 603 4863 
z
" transform="scale(0.015625)"/>
      <path id="DejaVuSans-64" d="M 2906 2969 
L 2906 4863 
L 3481 4863 
L 3481 0 
L 2906 0 
L 2906 525 
Q 2725 213 2448 61 
Q 2172 -91 1784 -91 
Q 1150 -91 751 415 
Q 353 922 353 1747 
Q 353 2572 751 3078 
Q 1150 3584 1784 3584 
Q 2172 3584 2448 3432 
Q 2725 3281 2906 2969 
z
M 947 1747 
Q 947 1113 1208 752 
Q 1469 391 1925 391 
Q 2381 391 2643 752 
Q 2906 1113 2906 1747 
Q 2906 2381 2643 2742 
Q 2381 3103 1925 3103 
Q 1469 3103 1208 2742 
Q 947 2381 947 1747 
z
" transform="scale(0.015625)"/>
      <path id="DejaVuSans-77" d="M 269 3500 
L 844 3500 
L 1563 769 
L 2278 3500 
L 2956 3500 
L 3675 769 
L 4391 3500 
L 4966 3500 
L 4050 0 
L 3372 0 
L 2619 2869 
L 1863 0 
L 1184 0 
L 269 3500 
z
" transform="scale(0.015625)"/>
      <path id="DejaVuSans-73" d="M 2834 3397 
L 2834 2853 
Q 2591 2978 2328 3040 
Q 2066 3103 1784 3103 
Q 1356 3103 1142 2972 
Q 928 2841 928 2578 
Q 928 2378 1081 2264 
Q 1234 2150 1697 2047 
L 1894 2003 
Q 2506 1872 2764 1633 
Q 3022 1394 3022 966 
Q 3022 478 2636 193 
Q 2250 -91 1575 -91 
Q 1294 -91 989 -36 
Q 684 19 347 128 
L 347 722 
Q 666 556 975 473 
Q 1284 391 1588 391 
Q 1994 391 2212 530 
Q 2431 669 2431 922 
Q 2431 1156 2273 1281 
Q 2116 1406 1581 1522 
L 1381 1569 
Q 847 1681 609 1914 
Q 372 2147 372 2553 
Q 372 3047 722 3315 
Q 1072 3584 1716 3584 
Q 2034 3584 2315 3537 
Q 2597 3491 2834 3397 
z
" transform="scale(0.015625)"/>
      <path id="DejaVuSans-6f" d="M 1959 3097 
Q 1497 3097 1228 2736 
Q 959 2375 959 1747 
Q 959 1119 1226 758 
Q 1494 397 1959 397 
Q 2419 397 2687 759 
Q 2956 1122 2956 1747 
Q 2956 2369 2687 2733 
Q 2419 3097 1959 3097 
z
M 1959 3584 
Q 2709 3584 3137 3096 
Q 3566 2609 3566 1747 
Q 3566 888 3137 398 
Q 2709 -91 1959 -91 
Q 1206 -91 779 398 
Q 353 888 353 1747 
Q 353 2609 779 3096 
Q 1206 3584 1959 3584 
z
" transform="scale(0.015625)"/>
     </defs>
     <use xlink:href="#DejaVuSans-57"/>
     <use xlink:href="#DejaVuSans-61" x="92.501953"/>
     <use xlink:href="#DejaVuSans-72" x="153.78125"/>
     <use xlink:href="#DejaVuSans-6e" x="193.144531"/>
     <use xlink:href="#DejaVuSans-69" x="256.523438"/>
     <use xlink:href="#DejaVuSans-6e" x="284.306641"/>
     <use xlink:href="#DejaVuSans-67" x="347.685547"/>
     <use xlink:href="#DejaVuSans-3a" x="411.162109"/>
     <use xlink:href="#DejaVuSans-20" x="444.853516"/>
     <use xlink:href="#DejaVuSans-66" x="476.640625"/>
     <use xlink:href="#DejaVuSans-69" x="511.845703"/>
     <use xlink:href="#DejaVuSans-74" x="539.628906"/>
     <use xlink:href="#DejaVuSans-20" x="578.837891"/>
     <use xlink:href="#DejaVuSans-66" x="610.625"/>
     <use xlink:href="#DejaVuSans-61" x="645.830078"/>
     <use xlink:href="#DejaVuSans-69" x="707.109375"/>
     <use xlink:href="#DejaVuSans-6c" x="734.892578"/>
     <use xlink:href="#DejaVuSans-65" x="762.675781"/>
     <use xlink:href="#DejaVuSans-64" x="824.199219"/>
     <use xlink:href="#DejaVuSans-2e" x="887.675781"/>
     <use xlink:href="#DejaVuSans-20" x="919.462891"/>
     <use xlink:href="#DejaVuSans-6c" x="951.25"/>
     <use xlink:href="#DejaVuSans-6d" x="979.033203"/>
     <use xlink:href="#DejaVuSans-66" x="1076.445312"/>
     <use xlink:href="#DejaVuSans-69" x="1111.650391"/>
     <use xlink:href="#DejaVuSans-74" x="1139.433594"/>
     <use xlink:href="#DejaVuSans-20" x="1178.642578"/>
     <use xlink:href="#DejaVuSans-77" x="1210.429688"/>
     <use xlink:href="#DejaVuSans-61" x="1292.216797"/>
     <use xlink:href="#DejaVuSans-73" x="1353.496094"/>
     <use xlink:href="#DejaVuSans-20" x="1405.595703"/>
     <use xlink:href="#DejaVuSans-6e" x="1437.382812"/>
     <use xlink:href="#DejaVuSans-6f" x="1500.761719"/>
     <use xlink:href="#DejaVuSans-74" x="1561.943359"/>
    </g>
    <!-- able to fit the data. -->
    <g transform="translate(422.365063 73.86185) scale(0.1 -0.1)">
     <defs>
      <path id="DejaVuSans-62" d="M 3116 1747 
Q 3116 2381 2855 2742 
Q 2594 3103 2138 3103 
Q 1681 3103 1420 2742 
Q 1159 2381 1159 1747 
Q 1159 1113 1420 752 
Q 1681 391 2138 391 
Q 2594 391 2855 752 
Q 3116 1113 3116 1747 
z
M 1159 2969 
Q 1341 3281 1617 3432 
Q 1894 3584 2278 3584 
Q 2916 3584 3314 3078 
Q 3713 2572 3713 1747 
Q 3713 922 3314 415 
Q 2916 -91 2278 -91 
Q 1894 -91 1617 61 
Q 1341 213 1159 525 
L 1159 0 
L 581 0 
L 581 4863 
L 1159 4863 
L 1159 2969 
z
" transform="scale(0.015625)"/>
      <path id="DejaVuSans-68" d="M 3513 2113 
L 3513 0 
L 2938 0 
L 2938 2094 
Q 2938 2591 2744 2837 
Q 2550 3084 2163 3084 
Q 1697 3084 1428 2787 
Q 1159 2491 1159 1978 
L 1159 0 
L 581 0 
L 581 4863 
L 1159 4863 
L 1159 2956 
Q 1366 3272 1645 3428 
Q 1925 3584 2291 3584 
Q 2894 3584 3203 3211 
Q 3513 2838 3513 2113 
z
" transform="scale(0.015625)"/>
     </defs>
     <use xlink:href="#DejaVuSans-61"/>
     <use xlink:href="#DejaVuSans-62" x="61.279297"/>
     <use xlink:href="#DejaVuSans-6c" x="124.755859"/>
     <use xlink:href="#DejaVuSans-65" x="152.539062"/>
     <use xlink:href="#DejaVuSans-20" x="214.0625"/>
     <use xlink:href="#DejaVuSans-74" x="245.849609"/>
     <use xlink:href="#DejaVuSans-6f" x="285.058594"/>
     <use xlink:href="#DejaVuSans-20" x="346.240234"/>
     <use xlink:href="#DejaVuSans-66" x="378.027344"/>
     <use xlink:href="#DejaVuSans-69" x="413.232422"/>
     <use xlink:href="#DejaVuSans-74" x="441.015625"/>
     <use xlink:href="#DejaVuSans-20" x="480.224609"/>
     <use xlink:href="#DejaVuSans-74" x="512.011719"/>
     <use xlink:href="#DejaVuSans-68" x="551.220703"/>
     <use xlink:href="#DejaVuSans-65" x="614.599609"/>
     <use xlink:href="#DejaVuSans-20" x="676.123047"/>
     <use xlink:href="#DejaVuSans-64" x="707.910156"/>
     <use xlink:href="#DejaVuSans-61" x="771.386719"/>
     <use xlink:href="#DejaVuSans-74" x="832.666016"/>
     <use xlink:href="#DejaVuSans-61" x="871.875"/>
     <use xlink:href="#DejaVuSans-2e" x="933.154297"/>
    </g>
   </g>
  </g>
  <g id="text_20">
   <!-- S21 resonator spectroscopy -->
   <g transform="translate(136.404688 16.318125) scale(0.12 -0.12)">
    <defs>
     <path id="DejaVuSans-53" d="M 3425 4513 
L 3425 3897 
Q 3066 4069 2747 4153 
Q 2428 4238 2131 4238 
Q 1616 4238 1336 4038 
Q 1056 3838 1056 3469 
Q 1056 3159 1242 3001 
Q 1428 2844 1947 2747 
L 2328 2669 
Q 3034 2534 3370 2195 
Q 3706 1856 3706 1288 
Q 3706 609 3251 259 
Q 2797 -91 1919 -91 
Q 1588 -91 1214 -16 
Q 841 59 441 206 
L 441 856 
Q 825 641 1194 531 
Q 1563 422 1919 422 
Q 2459 422 2753 634 
Q 3047 847 3047 1241 
Q 3047 1584 2836 1778 
Q 2625 1972 2144 2069 
L 1759 2144 
Q 1053 2284 737 2584 
Q 422 2884 422 3419 
Q 422 4038 858 4394 
Q 1294 4750 2059 4750 
Q 2388 4750 2728 4690 
Q 3069 4631 3425 4513 
z
" transform="scale(0.015625)"/>
     <path id="DejaVuSans-70" d="M 1159 525 
L 1159 -1331 
L 581 -1331 
L 581 3500 
L 1159 3500 
L 1159 2969 
Q 1341 3281 1617 3432 
Q 1894 3584 2278 3584 
Q 2916 3584 3314 3078 
Q 3713 2572 3713 1747 
Q 3713 922 3314 415 
Q 2916 -91 2278 -91 
Q 1894 -91 1617 61 
Q 1341 213 1159 525 
z
M 3116 1747 
Q 3116 2381 2855 2742 
Q 2594 3103 2138 3103 
Q 1681 3103 1420 2742 
Q 1159 2381 1159 1747 
Q 1159 1113 1420 752 
Q 1681 391 2138 391 
Q 2594 391 2855 752 
Q 3116 1113 3116 1747 
z
" transform="scale(0.015625)"/>
     <path id="DejaVuSans-63" d="M 3122 3366 
L 3122 2828 
Q 2878 2963 2633 3030 
Q 2388 3097 2138 3097 
Q 1578 3097 1268 2742 
Q 959 2388 959 1747 
Q 959 1106 1268 751 
Q 1578 397 2138 397 
Q 2388 397 2633 464 
Q 2878 531 3122 666 
L 3122 134 
Q 2881 22 2623 -34 
Q 2366 -91 2075 -91 
Q 1284 -91 818 406 
Q 353 903 353 1747 
Q 353 2603 823 3093 
Q 1294 3584 2113 3584 
Q 2378 3584 2631 3529 
Q 2884 3475 3122 3366 
z
" transform="scale(0.015625)"/>
     <path id="DejaVuSans-79" d="M 2059 -325 
Q 1816 -950 1584 -1140 
Q 1353 -1331 966 -1331 
L 506 -1331 
L 506 -850 
L 844 -850 
Q 1081 -850 1212 -737 
Q 1344 -625 1503 -206 
L 1606 56 
L 191 3500 
L 800 3500 
L 1894 763 
L 2988 3500 
L 3597 3500 
L 2059 -325 
z
" transform="scale(0.015625)"/>
    </defs>
    <use xlink:href="#DejaVuSans-53"/>
    <use xlink:href="#DejaVuSans-32" x="63.476562"/>
    <use xlink:href="#DejaVuSans-31" x="127.099609"/>
    <use xlink:href="#DejaVuSans-20" x="190.722656"/>
    <use xlink:href="#DejaVuSans-72" x="222.509766"/>
    <use xlink:href="#DejaVuSans-65" x="261.373047"/>
    <use xlink:href="#DejaVuSans-73" x="322.896484"/>
    <use xlink:href="#DejaVuSans-6f" x="374.996094"/>
    <use xlink:href="#DejaVuSans-6e" x="436.177734"/>
    <use xlink:href="#DejaVuSans-61" x="499.556641"/>
    <use xlink:href="#DejaVuSans-74" x="560.835938"/>
    <use xlink:href="#DejaVuSans-6f" x="600.044922"/>
    <use xlink:href="#DejaVuSans-72" x="661.226562"/>
    <use xlink:href="#DejaVuSans-20" x="702.339844"/>
    <use xlink:href="#DejaVuSans-73" x="734.126953"/>
    <use xlink:href="#DejaVuSans-70" x="786.226562"/>
    <use xlink:href="#DejaVuSans-65" x="849.703125"/>
    <use xlink:href="#DejaVuSans-63" x="911.226562"/>
    <use xlink:href="#DejaVuSans-74" x="966.207031"/>
    <use xlink:href="#DejaVuSans-72" x="1005.416016"/>
    <use xlink:href="#DejaVuSans-6f" x="1044.279297"/>
    <use xlink:href="#DejaVuSans-73" x="1105.460938"/>
    <use xlink:href="#DejaVuSans-63" x="1157.560547"/>
    <use xlink:href="#DejaVuSans-6f" x="1212.541016"/>
    <use xlink:href="#DejaVuSans-70" x="1273.722656"/>
    <use xlink:href="#DejaVuSans-79" x="1337.199219"/>
   </g>
   <!-- tuid: 20231220-145621-142-799d1f -->
   <g transform="translate(112.0475 29.7555) scale(0.12 -0.12)">
    <defs>
     <path id="DejaVuSans-75" d="M 544 1381 
L 544 3500 
L 1119 3500 
L 1119 1403 
Q 1119 906 1312 657 
Q 1506 409 1894 409 
Q 2359 409 2629 706 
Q 2900 1003 2900 1516 
L 2900 3500 
L 3475 3500 
L 3475 0 
L 2900 0 
L 2900 538 
Q 2691 219 2414 64 
Q 2138 -91 1772 -91 
Q 1169 -91 856 284 
Q 544 659 544 1381 
z
M 1991 3584 
L 1991 3584 
z
" transform="scale(0.015625)"/>
     <path id="DejaVuSans-33" d="M 2597 2516 
Q 3050 2419 3304 2112 
Q 3559 1806 3559 1356 
Q 3559 666 3084 287 
Q 2609 -91 1734 -91 
Q 1441 -91 1130 -33 
Q 819 25 488 141 
L 488 750 
Q 750 597 1062 519 
Q 1375 441 1716 441 
Q 2309 441 2620 675 
Q 2931 909 2931 1356 
Q 2931 1769 2642 2001 
Q 2353 2234 1838 2234 
L 1294 2234 
L 1294 2753 
L 1863 2753 
Q 2328 2753 2575 2939 
Q 2822 3125 2822 3475 
Q 2822 3834 2567 4026 
Q 2313 4219 1838 4219 
Q 1578 4219 1281 4162 
Q 984 4106 628 3988 
L 628 4550 
Q 988 4650 1302 4700 
Q 1616 4750 1894 4750 
Q 2613 4750 3031 4423 
Q 3450 4097 3450 3541 
Q 3450 3153 3228 2886 
Q 3006 2619 2597 2516 
z
" transform="scale(0.015625)"/>
     <path id="DejaVuSans-34" d="M 2419 4116 
L 825 1625 
L 2419 1625 
L 2419 4116 
z
M 2253 4666 
L 3047 4666 
L 3047 1625 
L 3713 1625 
L 3713 1100 
L 3047 1100 
L 3047 0 
L 2419 0 
L 2419 1100 
L 313 1100 
L 313 1709 
L 2253 4666 
z
" transform="scale(0.015625)"/>
     <path id="DejaVuSans-36" d="M 2113 2584 
Q 1688 2584 1439 2293 
Q 1191 2003 1191 1497 
Q 1191 994 1439 701 
Q 1688 409 2113 409 
Q 2538 409 2786 701 
Q 3034 994 3034 1497 
Q 3034 2003 2786 2293 
Q 2538 2584 2113 2584 
z
M 3366 4563 
L 3366 3988 
Q 3128 4100 2886 4159 
Q 2644 4219 2406 4219 
Q 1781 4219 1451 3797 
Q 1122 3375 1075 2522 
Q 1259 2794 1537 2939 
Q 1816 3084 2150 3084 
Q 2853 3084 3261 2657 
Q 3669 2231 3669 1497 
Q 3669 778 3244 343 
Q 2819 -91 2113 -91 
Q 1303 -91 875 529 
Q 447 1150 447 2328 
Q 447 3434 972 4092 
Q 1497 4750 2381 4750 
Q 2619 4750 2861 4703 
Q 3103 4656 3366 4563 
z
" transform="scale(0.015625)"/>
     <path id="DejaVuSans-39" d="M 703 97 
L 703 672 
Q 941 559 1184 500 
Q 1428 441 1663 441 
Q 2288 441 2617 861 
Q 2947 1281 2994 2138 
Q 2813 1869 2534 1725 
Q 2256 1581 1919 1581 
Q 1219 1581 811 2004 
Q 403 2428 403 3163 
Q 403 3881 828 4315 
Q 1253 4750 1959 4750 
Q 2769 4750 3195 4129 
Q 3622 3509 3622 2328 
Q 3622 1225 3098 567 
Q 2575 -91 1691 -91 
Q 1453 -91 1209 -44 
Q 966 3 703 97 
z
M 1959 2075 
Q 2384 2075 2632 2365 
Q 2881 2656 2881 3163 
Q 2881 3666 2632 3958 
Q 2384 4250 1959 4250 
Q 1534 4250 1286 3958 
Q 1038 3666 1038 3163 
Q 1038 2656 1286 2365 
Q 1534 2075 1959 2075 
z
" transform="scale(0.015625)"/>
    </defs>
    <use xlink:href="#DejaVuSans-74"/>
    <use xlink:href="#DejaVuSans-75" x="39.208984"/>
    <use xlink:href="#DejaVuSans-69" x="102.587891"/>
    <use xlink:href="#DejaVuSans-64" x="130.371094"/>
    <use xlink:href="#DejaVuSans-3a" x="193.847656"/>
    <use xlink:href="#DejaVuSans-20" x="227.539062"/>
    <use xlink:href="#DejaVuSans-32" x="259.326172"/>
    <use xlink:href="#DejaVuSans-30" x="322.949219"/>
    <use xlink:href="#DejaVuSans-32" x="386.572266"/>
    <use xlink:href="#DejaVuSans-33" x="450.195312"/>
    <use xlink:href="#DejaVuSans-31" x="513.818359"/>
    <use xlink:href="#DejaVuSans-32" x="577.441406"/>
    <use xlink:href="#DejaVuSans-32" x="641.064453"/>
    <use xlink:href="#DejaVuSans-30" x="704.6875"/>
    <use xlink:href="#DejaVuSans-2d" x="768.310547"/>
    <use xlink:href="#DejaVuSans-31" x="804.394531"/>
    <use xlink:href="#DejaVuSans-34" x="868.017578"/>
    <use xlink:href="#DejaVuSans-35" x="931.640625"/>
    <use xlink:href="#DejaVuSans-36" x="995.263672"/>
    <use xlink:href="#DejaVuSans-32" x="1058.886719"/>
    <use xlink:href="#DejaVuSans-31" x="1122.509766"/>
    <use xlink:href="#DejaVuSans-2d" x="1186.132812"/>
    <use xlink:href="#DejaVuSans-31" x="1222.216797"/>
    <use xlink:href="#DejaVuSans-34" x="1285.839844"/>
    <use xlink:href="#DejaVuSans-32" x="1349.462891"/>
    <use xlink:href="#DejaVuSans-2d" x="1413.085938"/>
    <use xlink:href="#DejaVuSans-37" x="1449.169922"/>
    <use xlink:href="#DejaVuSans-39" x="1512.792969"/>
    <use xlink:href="#DejaVuSans-39" x="1576.416016"/>
    <use xlink:href="#DejaVuSans-64" x="1640.039062"/>
    <use xlink:href="#DejaVuSans-31" x="1703.515625"/>
    <use xlink:href="#DejaVuSans-66" x="1767.138672"/>
   </g>
  </g>
 </g>
 <defs>
  <clipPath id="p316c803655">
   <rect x="47.389063" y="41.76" width="357.12" height="266.112"/>
  </clipPath>
 </defs>
</svg>
