<?xml version="1.0" encoding="utf-8" standalone="no"?>
<!DOCTYPE svg PUBLIC "-//W3C//DTD SVG 1.1//EN"
  "http://www.w3.org/Graphics/SVG/1.1/DTD/svg11.dtd">
<svg xmlns:xlink="http://www.w3.org/1999/xlink" width="577.471312pt" height="345.42825pt" viewBox="0 0 577.471312 345.42825" xmlns="http://www.w3.org/2000/svg" version="1.1">
 <metadata>
  <rdf:RDF xmlns:dc="http://purl.org/dc/elements/1.1/" xmlns:cc="http://creativecommons.org/ns#" xmlns:rdf="http://www.w3.org/1999/02/22-rdf-syntax-ns#">
   <cc:Work>
    <dc:type rdf:resource="http://purl.org/dc/dcmitype/StillImage"/>
    <dc:date>2024-01-02T13:56:18.274081</dc:date>
    <dc:format>image/svg+xml</dc:format>
    <dc:creator>
     <cc:Agent>
      <dc:title>Matplotlib v3.8.1, https://matplotlib.org/</dc:title>
     </cc:Agent>
    </dc:creator>
   </cc:Work>
  </rdf:RDF>
 </metadata>
 <defs>
  <style type="text/css">*{stroke-linejoin: round; stroke-linecap: butt}</style>
 </defs>
 <g id="figure_1">
  <g id="patch_1">
   <path d="M 0 345.42825 
L 577.471312 345.42825 
L 577.471312 -0 
L 0 -0 
L 0 345.42825 
z
" style="fill: none; opacity: 0"/>
  </g>
  <g id="axes_1">
   <g id="patch_2">
    <path d="M 50.595313 162.72 
L 407.715312 162.72 
L 407.715312 41.76 
L 50.595313 41.76 
z
" style="fill: #ffffff"/>
   </g>
   <g id="matplotlib.axis_1">
    <g id="xtick_1">
     <g id="line2d_1">
      <defs>
       <path id="m968aa39c1d" d="M 0 0 
L 0 3.5 
" style="stroke: #000000; stroke-width: 0.8"/>
      </defs>
      <g>
       <use xlink:href="#m968aa39c1d" x="74.944403" y="162.72" style="stroke: #000000; stroke-width: 0.8"/>
      </g>
     </g>
    </g>
    <g id="xtick_2">
     <g id="line2d_2">
      <g>
       <use xlink:href="#m968aa39c1d" x="139.875312" y="162.72" style="stroke: #000000; stroke-width: 0.8"/>
      </g>
     </g>
    </g>
    <g id="xtick_3">
     <g id="line2d_3">
      <g>
       <use xlink:href="#m968aa39c1d" x="204.806222" y="162.72" style="stroke: #000000; stroke-width: 0.8"/>
      </g>
     </g>
    </g>
    <g id="xtick_4">
     <g id="line2d_4">
      <g>
       <use xlink:href="#m968aa39c1d" x="269.737131" y="162.72" style="stroke: #000000; stroke-width: 0.8"/>
      </g>
     </g>
    </g>
    <g id="xtick_5">
     <g id="line2d_5">
      <g>
       <use xlink:href="#m968aa39c1d" x="334.66804" y="162.72" style="stroke: #000000; stroke-width: 0.8"/>
      </g>
     </g>
    </g>
    <g id="xtick_6">
     <g id="line2d_6">
      <g>
       <use xlink:href="#m968aa39c1d" x="399.598949" y="162.72" style="stroke: #000000; stroke-width: 0.8"/>
      </g>
     </g>
    </g>
   </g>
   <g id="matplotlib.axis_2">
    <g id="ytick_1">
     <g id="line2d_7">
      <defs>
       <path id="maed6e1a461" d="M 0 0 
L -3.5 0 
" style="stroke: #000000; stroke-width: 0.8"/>
      </defs>
      <g>
       <use xlink:href="#maed6e1a461" x="50.595313" y="147.978327" style="stroke: #000000; stroke-width: 0.8"/>
      </g>
     </g>
     <g id="text_1">
      <!-- 2 -->
      <g transform="translate(37.232813 151.777545) scale(0.1 -0.1)">
       <defs>
        <path id="DejaVuSans-32" d="M 1228 531 
L 3431 531 
L 3431 0 
L 469 0 
L 469 531 
Q 828 903 1448 1529 
Q 2069 2156 2228 2338 
Q 2531 2678 2651 2914 
Q 2772 3150 2772 3378 
Q 2772 3750 2511 3984 
Q 2250 4219 1831 4219 
Q 1534 4219 1204 4116 
Q 875 4013 500 3803 
L 500 4441 
Q 881 4594 1212 4672 
Q 1544 4750 1819 4750 
Q 2544 4750 2975 4387 
Q 3406 4025 3406 3419 
Q 3406 3131 3298 2873 
Q 3191 2616 2906 2266 
Q 2828 2175 2409 1742 
Q 1991 1309 1228 531 
z
" transform="scale(0.015625)"/>
       </defs>
       <use xlink:href="#DejaVuSans-32"/>
      </g>
     </g>
    </g>
    <g id="ytick_2">
     <g id="line2d_8">
      <g>
       <use xlink:href="#maed6e1a461" x="50.595313" y="122.645136" style="stroke: #000000; stroke-width: 0.8"/>
      </g>
     </g>
     <g id="text_2">
      <!-- 4 -->
      <g transform="translate(37.232813 126.444355) scale(0.1 -0.1)">
       <defs>
        <path id="DejaVuSans-34" d="M 2419 4116 
L 825 1625 
L 2419 1625 
L 2419 4116 
z
M 2253 4666 
L 3047 4666 
L 3047 1625 
L 3713 1625 
L 3713 1100 
L 3047 1100 
L 3047 0 
L 2419 0 
L 2419 1100 
L 313 1100 
L 313 1709 
L 2253 4666 
z
" transform="scale(0.015625)"/>
       </defs>
       <use xlink:href="#DejaVuSans-34"/>
      </g>
     </g>
    </g>
    <g id="ytick_3">
     <g id="line2d_9">
      <g>
       <use xlink:href="#maed6e1a461" x="50.595313" y="97.311945" style="stroke: #000000; stroke-width: 0.8"/>
      </g>
     </g>
     <g id="text_3">
      <!-- 6 -->
      <g transform="translate(37.232813 101.111164) scale(0.1 -0.1)">
       <defs>
        <path id="DejaVuSans-36" d="M 2113 2584 
Q 1688 2584 1439 2293 
Q 1191 2003 1191 1497 
Q 1191 994 1439 701 
Q 1688 409 2113 409 
Q 2538 409 2786 701 
Q 3034 994 3034 1497 
Q 3034 2003 2786 2293 
Q 2538 2584 2113 2584 
z
M 3366 4563 
L 3366 3988 
Q 3128 4100 2886 4159 
Q 2644 4219 2406 4219 
Q 1781 4219 1451 3797 
Q 1122 3375 1075 2522 
Q 1259 2794 1537 2939 
Q 1816 3084 2150 3084 
Q 2853 3084 3261 2657 
Q 3669 2231 3669 1497 
Q 3669 778 3244 343 
Q 2819 -91 2113 -91 
Q 1303 -91 875 529 
Q 447 1150 447 2328 
Q 447 3434 972 4092 
Q 1497 4750 2381 4750 
Q 2619 4750 2861 4703 
Q 3103 4656 3366 4563 
z
" transform="scale(0.015625)"/>
       </defs>
       <use xlink:href="#DejaVuSans-36"/>
      </g>
     </g>
    </g>
    <g id="ytick_4">
     <g id="line2d_10">
      <g>
       <use xlink:href="#maed6e1a461" x="50.595313" y="71.978754" style="stroke: #000000; stroke-width: 0.8"/>
      </g>
     </g>
     <g id="text_4">
      <!-- 8 -->
      <g transform="translate(37.232813 75.777973) scale(0.1 -0.1)">
       <defs>
        <path id="DejaVuSans-38" d="M 2034 2216 
Q 1584 2216 1326 1975 
Q 1069 1734 1069 1313 
Q 1069 891 1326 650 
Q 1584 409 2034 409 
Q 2484 409 2743 651 
Q 3003 894 3003 1313 
Q 3003 1734 2745 1975 
Q 2488 2216 2034 2216 
z
M 1403 2484 
Q 997 2584 770 2862 
Q 544 3141 544 3541 
Q 544 4100 942 4425 
Q 1341 4750 2034 4750 
Q 2731 4750 3128 4425 
Q 3525 4100 3525 3541 
Q 3525 3141 3298 2862 
Q 3072 2584 2669 2484 
Q 3125 2378 3379 2068 
Q 3634 1759 3634 1313 
Q 3634 634 3220 271 
Q 2806 -91 2034 -91 
Q 1263 -91 848 271 
Q 434 634 434 1313 
Q 434 1759 690 2068 
Q 947 2378 1403 2484 
z
M 1172 3481 
Q 1172 3119 1398 2916 
Q 1625 2713 2034 2713 
Q 2441 2713 2670 2916 
Q 2900 3119 2900 3481 
Q 2900 3844 2670 4047 
Q 2441 4250 2034 4250 
Q 1625 4250 1398 4047 
Q 1172 3844 1172 3481 
z
" transform="scale(0.015625)"/>
       </defs>
       <use xlink:href="#DejaVuSans-38"/>
      </g>
     </g>
    </g>
    <g id="ytick_5">
     <g id="line2d_11">
      <g>
       <use xlink:href="#maed6e1a461" x="50.595313" y="46.645564" style="stroke: #000000; stroke-width: 0.8"/>
      </g>
     </g>
     <g id="text_5">
      <!-- 10 -->
      <g transform="translate(30.870313 50.444782) scale(0.1 -0.1)">
       <defs>
        <path id="DejaVuSans-31" d="M 794 531 
L 1825 531 
L 1825 4091 
L 703 3866 
L 703 4441 
L 1819 4666 
L 2450 4666 
L 2450 531 
L 3481 531 
L 3481 0 
L 794 0 
L 794 531 
z
" transform="scale(0.015625)"/>
        <path id="DejaVuSans-30" d="M 2034 4250 
Q 1547 4250 1301 3770 
Q 1056 3291 1056 2328 
Q 1056 1369 1301 889 
Q 1547 409 2034 409 
Q 2525 409 2770 889 
Q 3016 1369 3016 2328 
Q 3016 3291 2770 3770 
Q 2525 4250 2034 4250 
z
M 2034 4750 
Q 2819 4750 3233 4129 
Q 3647 3509 3647 2328 
Q 3647 1150 3233 529 
Q 2819 -91 2034 -91 
Q 1250 -91 836 529 
Q 422 1150 422 2328 
Q 422 3509 836 4129 
Q 1250 4750 2034 4750 
z
" transform="scale(0.015625)"/>
       </defs>
       <use xlink:href="#DejaVuSans-31"/>
       <use xlink:href="#DejaVuSans-30" x="63.623047"/>
      </g>
     </g>
    </g>
    <g id="text_6">
     <!-- $|S_{21}|$ [mV] -->
     <g transform="translate(24.470313 127.19) rotate(-90) scale(0.1 -0.1)">
      <defs>
       <path id="DejaVuSans-7c" d="M 1344 4891 
L 1344 -1509 
L 813 -1509 
L 813 4891 
L 1344 4891 
z
" transform="scale(0.015625)"/>
       <path id="DejaVuSans-Oblique-53" d="M 3859 4513 
L 3738 3897 
Q 3422 4066 3111 4152 
Q 2800 4238 2509 4238 
Q 1944 4238 1609 3991 
Q 1275 3744 1275 3334 
Q 1275 3109 1398 2989 
Q 1522 2869 2034 2731 
L 2413 2638 
Q 3053 2472 3303 2217 
Q 3553 1963 3553 1503 
Q 3553 797 2998 353 
Q 2444 -91 1538 -91 
Q 1166 -91 791 -17 
Q 416 56 38 206 
L 166 856 
Q 513 641 861 531 
Q 1209 422 1556 422 
Q 2147 422 2503 684 
Q 2859 947 2859 1369 
Q 2859 1650 2717 1795 
Q 2575 1941 2106 2059 
L 1728 2156 
Q 1081 2325 845 2545 
Q 609 2766 609 3163 
Q 609 3859 1145 4304 
Q 1681 4750 2541 4750 
Q 2875 4750 3203 4690 
Q 3531 4631 3859 4513 
z
" transform="scale(0.015625)"/>
       <path id="DejaVuSans-20" transform="scale(0.015625)"/>
       <path id="DejaVuSans-5b" d="M 550 4863 
L 1875 4863 
L 1875 4416 
L 1125 4416 
L 1125 -397 
L 1875 -397 
L 1875 -844 
L 550 -844 
L 550 4863 
z
" transform="scale(0.015625)"/>
       <path id="DejaVuSans-6d" d="M 3328 2828 
Q 3544 3216 3844 3400 
Q 4144 3584 4550 3584 
Q 5097 3584 5394 3201 
Q 5691 2819 5691 2113 
L 5691 0 
L 5113 0 
L 5113 2094 
Q 5113 2597 4934 2840 
Q 4756 3084 4391 3084 
Q 3944 3084 3684 2787 
Q 3425 2491 3425 1978 
L 3425 0 
L 2847 0 
L 2847 2094 
Q 2847 2600 2669 2842 
Q 2491 3084 2119 3084 
Q 1678 3084 1418 2786 
Q 1159 2488 1159 1978 
L 1159 0 
L 581 0 
L 581 3500 
L 1159 3500 
L 1159 2956 
Q 1356 3278 1631 3431 
Q 1906 3584 2284 3584 
Q 2666 3584 2933 3390 
Q 3200 3197 3328 2828 
z
" transform="scale(0.015625)"/>
       <path id="DejaVuSans-56" d="M 1831 0 
L 50 4666 
L 709 4666 
L 2188 738 
L 3669 4666 
L 4325 4666 
L 2547 0 
L 1831 0 
z
" transform="scale(0.015625)"/>
       <path id="DejaVuSans-5d" d="M 1947 4863 
L 1947 -844 
L 622 -844 
L 622 -397 
L 1369 -397 
L 1369 4416 
L 622 4416 
L 622 4863 
L 1947 4863 
z
" transform="scale(0.015625)"/>
      </defs>
      <use xlink:href="#DejaVuSans-7c" transform="translate(0 0.578125)"/>
      <use xlink:href="#DejaVuSans-Oblique-53" transform="translate(33.691406 0.578125)"/>
      <use xlink:href="#DejaVuSans-32" transform="translate(97.167969 -15.828125) scale(0.7)"/>
      <use xlink:href="#DejaVuSans-31" transform="translate(141.704102 -15.828125) scale(0.7)"/>
      <use xlink:href="#DejaVuSans-7c" transform="translate(188.974609 0.578125)"/>
      <use xlink:href="#DejaVuSans-20" transform="translate(222.666016 0.578125)"/>
      <use xlink:href="#DejaVuSans-5b" transform="translate(254.453125 0.578125)"/>
      <use xlink:href="#DejaVuSans-6d" transform="translate(293.466797 0.578125)"/>
      <use xlink:href="#DejaVuSans-56" transform="translate(390.878906 0.578125)"/>
      <use xlink:href="#DejaVuSans-5d" transform="translate(459.287109 0.578125)"/>
     </g>
    </g>
   </g>
   <g id="line2d_12">
    <path d="M 66.82804 61.472617 
L 68.45947 60.898343 
L 70.0909 60.458759 
L 71.722329 62.061576 
L 73.353759 60.412179 
L 74.985189 61.397348 
L 76.616619 60.579818 
L 78.248049 60.164238 
L 79.879479 59.010381 
L 81.510909 58.412572 
L 83.142339 58.269489 
L 86.405198 57.559946 
L 88.036628 57.980969 
L 89.668058 57.017511 
L 92.930918 57.259647 
L 94.562348 55.779412 
L 96.193778 56.619107 
L 97.825207 56.463469 
L 99.456637 55.476434 
L 101.088067 55.955786 
L 102.719497 54.260158 
L 104.350927 56.655348 
L 105.982357 55.197459 
L 107.613787 54.321655 
L 109.245217 54.358701 
L 110.876646 54.598729 
L 112.508076 52.349304 
L 114.139506 53.43598 
L 115.770936 52.462127 
L 117.402366 53.154113 
L 119.033796 52.732315 
L 120.665226 52.713886 
L 122.296656 53.020004 
L 123.928085 51.322442 
L 125.559515 50.983119 
L 127.190945 51.612719 
L 128.822375 51.201467 
L 130.453805 50.938904 
L 132.085235 50.525927 
L 135.348095 48.951761 
L 136.979524 48.992144 
L 138.610954 49.202168 
L 140.242384 49.179547 
L 141.873814 48.642726 
L 143.505244 49.04057 
L 145.136674 48.024077 
L 146.768104 47.258182 
L 148.399534 47.827283 
L 150.030963 48.65806 
L 151.662393 48.15196 
L 153.293823 50.360783 
L 154.925253 49.846919 
L 156.556683 49.955802 
L 158.188113 50.790901 
L 159.819543 50.573817 
L 161.450973 53.951665 
L 163.082402 53.412679 
L 166.345262 57.085258 
L 167.976692 55.033896 
L 169.608122 60.286582 
L 171.239552 61.44666 
L 172.870982 64.047985 
L 174.502412 63.307096 
L 176.133842 67.319573 
L 177.765271 69.145878 
L 179.396701 71.406391 
L 181.028131 74.249118 
L 182.659561 81.737508 
L 184.290991 85.627241 
L 185.922421 86.596774 
L 187.553851 91.061307 
L 189.185281 94.103241 
L 190.81671 96.823895 
L 192.44814 102.121899 
L 194.07957 107.896415 
L 195.711 112.142672 
L 197.34243 117.015558 
L 198.97386 120.451297 
L 200.60529 124.256268 
L 202.23672 129.229917 
L 203.868149 132.756978 
L 205.499579 138.028742 
L 207.131009 140.845123 
L 208.762439 145.36147 
L 210.393869 146.898924 
L 212.025299 151.253459 
L 213.656729 153.292889 
L 215.288159 154.8559 
L 216.919588 157.178871 
L 218.551018 157.042232 
L 220.182448 155.850787 
L 221.813878 156.606154 
L 225.076738 151.461368 
L 226.708168 149.974458 
L 228.339598 147.291675 
L 229.971027 145.181449 
L 231.602457 143.784762 
L 233.233887 140.29419 
L 234.865317 139.544105 
L 236.496747 136.731628 
L 238.128177 135.536802 
L 239.759607 130.644764 
L 241.391037 132.138948 
L 243.022466 129.892824 
L 244.653896 128.987231 
L 246.285326 125.856904 
L 249.548186 124.860745 
L 251.179616 122.544636 
L 252.811046 121.652647 
L 254.442476 120.889096 
L 256.073905 117.869145 
L 257.705335 119.012637 
L 259.336765 116.476861 
L 260.968195 115.860229 
L 262.599625 114.24768 
L 264.231055 113.709244 
L 265.862485 113.419445 
L 269.125344 111.635851 
L 270.756774 110.419238 
L 272.388204 109.457029 
L 274.019634 108.736636 
L 275.651064 107.089388 
L 277.282494 106.136737 
L 278.913924 106.489647 
L 282.176783 104.711323 
L 283.808213 103.616922 
L 285.439643 102.852613 
L 287.071073 103.337306 
L 288.702503 102.740238 
L 290.333933 102.420847 
L 291.965363 101.085732 
L 293.596793 101.223009 
L 295.228223 102.095231 
L 296.859652 99.316576 
L 298.491082 99.164047 
L 300.122512 99.917108 
L 301.753942 98.514061 
L 303.385372 98.205221 
L 305.016802 98.534294 
L 306.648232 97.973083 
L 308.279662 97.679092 
L 309.911091 96.201229 
L 311.542521 97.77353 
L 313.173951 95.653821 
L 314.805381 94.756052 
L 316.436811 94.813456 
L 318.068241 94.63364 
L 319.699671 94.641042 
L 321.331101 93.564455 
L 322.96253 94.072873 
L 324.59396 92.241768 
L 326.22539 92.315312 
L 327.85682 93.056148 
L 329.48825 91.058423 
L 331.11968 91.412186 
L 332.75111 91.352137 
L 334.38254 91.541609 
L 336.013969 91.123477 
L 337.645399 91.073977 
L 340.908259 90.264085 
L 342.539689 89.647336 
L 344.171119 89.876872 
L 345.802549 88.992447 
L 347.433979 89.059987 
L 349.065408 89.813328 
L 350.696838 88.292485 
L 352.328268 87.929411 
L 353.959698 87.787237 
L 355.591128 87.022343 
L 357.222558 86.758476 
L 358.853988 88.549379 
L 360.485418 87.4003 
L 363.748277 86.824005 
L 365.379707 87.314764 
L 367.011137 86.046207 
L 368.642567 87.048866 
L 370.273997 87.134854 
L 371.905427 85.111244 
L 373.536857 86.060065 
L 375.168286 86.571205 
L 376.799716 85.555317 
L 378.431146 86.219004 
L 380.062576 84.446797 
L 381.694006 83.855203 
L 383.325436 84.547045 
L 384.956866 84.876434 
L 386.588296 84.04771 
L 388.219725 84.492794 
L 389.851155 82.84692 
L 391.482585 83.255305 
L 391.482585 83.255305 
" clip-path="url(#p9e76b1ab15)" style="fill: none; stroke: #1f77b4; stroke-width: 1.5; stroke-linecap: square"/>
    <defs>
     <path id="m25cf650f91" d="M 0 1.5 
C 0.397805 1.5 0.77937 1.341951 1.06066 1.06066 
C 1.341951 0.77937 1.5 0.397805 1.5 0 
C 1.5 -0.397805 1.341951 -0.77937 1.06066 -1.06066 
C 0.77937 -1.341951 0.397805 -1.5 0 -1.5 
C -0.397805 -1.5 -0.77937 -1.341951 -1.06066 -1.06066 
C -1.341951 -0.77937 -1.5 -0.397805 -1.5 0 
C -1.5 0.397805 -1.341951 0.77937 -1.06066 1.06066 
C -0.77937 1.341951 -0.397805 1.5 0 1.5 
z
" style="stroke: #1f77b4"/>
    </defs>
    <g clip-path="url(#p9e76b1ab15)">
     <use xlink:href="#m25cf650f91" x="66.82804" y="61.472617" style="fill: #1f77b4; stroke: #1f77b4"/>
     <use xlink:href="#m25cf650f91" x="68.45947" y="60.898343" style="fill: #1f77b4; stroke: #1f77b4"/>
     <use xlink:href="#m25cf650f91" x="70.0909" y="60.458759" style="fill: #1f77b4; stroke: #1f77b4"/>
     <use xlink:href="#m25cf650f91" x="71.722329" y="62.061576" style="fill: #1f77b4; stroke: #1f77b4"/>
     <use xlink:href="#m25cf650f91" x="73.353759" y="60.412179" style="fill: #1f77b4; stroke: #1f77b4"/>
     <use xlink:href="#m25cf650f91" x="74.985189" y="61.397348" style="fill: #1f77b4; stroke: #1f77b4"/>
     <use xlink:href="#m25cf650f91" x="76.616619" y="60.579818" style="fill: #1f77b4; stroke: #1f77b4"/>
     <use xlink:href="#m25cf650f91" x="78.248049" y="60.164238" style="fill: #1f77b4; stroke: #1f77b4"/>
     <use xlink:href="#m25cf650f91" x="79.879479" y="59.010381" style="fill: #1f77b4; stroke: #1f77b4"/>
     <use xlink:href="#m25cf650f91" x="81.510909" y="58.412572" style="fill: #1f77b4; stroke: #1f77b4"/>
     <use xlink:href="#m25cf650f91" x="83.142339" y="58.269489" style="fill: #1f77b4; stroke: #1f77b4"/>
     <use xlink:href="#m25cf650f91" x="84.773768" y="57.942723" style="fill: #1f77b4; stroke: #1f77b4"/>
     <use xlink:href="#m25cf650f91" x="86.405198" y="57.559946" style="fill: #1f77b4; stroke: #1f77b4"/>
     <use xlink:href="#m25cf650f91" x="88.036628" y="57.980969" style="fill: #1f77b4; stroke: #1f77b4"/>
     <use xlink:href="#m25cf650f91" x="89.668058" y="57.017511" style="fill: #1f77b4; stroke: #1f77b4"/>
     <use xlink:href="#m25cf650f91" x="91.299488" y="57.153814" style="fill: #1f77b4; stroke: #1f77b4"/>
     <use xlink:href="#m25cf650f91" x="92.930918" y="57.259647" style="fill: #1f77b4; stroke: #1f77b4"/>
     <use xlink:href="#m25cf650f91" x="94.562348" y="55.779412" style="fill: #1f77b4; stroke: #1f77b4"/>
     <use xlink:href="#m25cf650f91" x="96.193778" y="56.619107" style="fill: #1f77b4; stroke: #1f77b4"/>
     <use xlink:href="#m25cf650f91" x="97.825207" y="56.463469" style="fill: #1f77b4; stroke: #1f77b4"/>
     <use xlink:href="#m25cf650f91" x="99.456637" y="55.476434" style="fill: #1f77b4; stroke: #1f77b4"/>
     <use xlink:href="#m25cf650f91" x="101.088067" y="55.955786" style="fill: #1f77b4; stroke: #1f77b4"/>
     <use xlink:href="#m25cf650f91" x="102.719497" y="54.260158" style="fill: #1f77b4; stroke: #1f77b4"/>
     <use xlink:href="#m25cf650f91" x="104.350927" y="56.655348" style="fill: #1f77b4; stroke: #1f77b4"/>
     <use xlink:href="#m25cf650f91" x="105.982357" y="55.197459" style="fill: #1f77b4; stroke: #1f77b4"/>
     <use xlink:href="#m25cf650f91" x="107.613787" y="54.321655" style="fill: #1f77b4; stroke: #1f77b4"/>
     <use xlink:href="#m25cf650f91" x="109.245217" y="54.358701" style="fill: #1f77b4; stroke: #1f77b4"/>
     <use xlink:href="#m25cf650f91" x="110.876646" y="54.598729" style="fill: #1f77b4; stroke: #1f77b4"/>
     <use xlink:href="#m25cf650f91" x="112.508076" y="52.349304" style="fill: #1f77b4; stroke: #1f77b4"/>
     <use xlink:href="#m25cf650f91" x="114.139506" y="53.43598" style="fill: #1f77b4; stroke: #1f77b4"/>
     <use xlink:href="#m25cf650f91" x="115.770936" y="52.462127" style="fill: #1f77b4; stroke: #1f77b4"/>
     <use xlink:href="#m25cf650f91" x="117.402366" y="53.154113" style="fill: #1f77b4; stroke: #1f77b4"/>
     <use xlink:href="#m25cf650f91" x="119.033796" y="52.732315" style="fill: #1f77b4; stroke: #1f77b4"/>
     <use xlink:href="#m25cf650f91" x="120.665226" y="52.713886" style="fill: #1f77b4; stroke: #1f77b4"/>
     <use xlink:href="#m25cf650f91" x="122.296656" y="53.020004" style="fill: #1f77b4; stroke: #1f77b4"/>
     <use xlink:href="#m25cf650f91" x="123.928085" y="51.322442" style="fill: #1f77b4; stroke: #1f77b4"/>
     <use xlink:href="#m25cf650f91" x="125.559515" y="50.983119" style="fill: #1f77b4; stroke: #1f77b4"/>
     <use xlink:href="#m25cf650f91" x="127.190945" y="51.612719" style="fill: #1f77b4; stroke: #1f77b4"/>
     <use xlink:href="#m25cf650f91" x="128.822375" y="51.201467" style="fill: #1f77b4; stroke: #1f77b4"/>
     <use xlink:href="#m25cf650f91" x="130.453805" y="50.938904" style="fill: #1f77b4; stroke: #1f77b4"/>
     <use xlink:href="#m25cf650f91" x="132.085235" y="50.525927" style="fill: #1f77b4; stroke: #1f77b4"/>
     <use xlink:href="#m25cf650f91" x="133.716665" y="49.734591" style="fill: #1f77b4; stroke: #1f77b4"/>
     <use xlink:href="#m25cf650f91" x="135.348095" y="48.951761" style="fill: #1f77b4; stroke: #1f77b4"/>
     <use xlink:href="#m25cf650f91" x="136.979524" y="48.992144" style="fill: #1f77b4; stroke: #1f77b4"/>
     <use xlink:href="#m25cf650f91" x="138.610954" y="49.202168" style="fill: #1f77b4; stroke: #1f77b4"/>
     <use xlink:href="#m25cf650f91" x="140.242384" y="49.179547" style="fill: #1f77b4; stroke: #1f77b4"/>
     <use xlink:href="#m25cf650f91" x="141.873814" y="48.642726" style="fill: #1f77b4; stroke: #1f77b4"/>
     <use xlink:href="#m25cf650f91" x="143.505244" y="49.04057" style="fill: #1f77b4; stroke: #1f77b4"/>
     <use xlink:href="#m25cf650f91" x="145.136674" y="48.024077" style="fill: #1f77b4; stroke: #1f77b4"/>
     <use xlink:href="#m25cf650f91" x="146.768104" y="47.258182" style="fill: #1f77b4; stroke: #1f77b4"/>
     <use xlink:href="#m25cf650f91" x="148.399534" y="47.827283" style="fill: #1f77b4; stroke: #1f77b4"/>
     <use xlink:href="#m25cf650f91" x="150.030963" y="48.65806" style="fill: #1f77b4; stroke: #1f77b4"/>
     <use xlink:href="#m25cf650f91" x="151.662393" y="48.15196" style="fill: #1f77b4; stroke: #1f77b4"/>
     <use xlink:href="#m25cf650f91" x="153.293823" y="50.360783" style="fill: #1f77b4; stroke: #1f77b4"/>
     <use xlink:href="#m25cf650f91" x="154.925253" y="49.846919" style="fill: #1f77b4; stroke: #1f77b4"/>
     <use xlink:href="#m25cf650f91" x="156.556683" y="49.955802" style="fill: #1f77b4; stroke: #1f77b4"/>
     <use xlink:href="#m25cf650f91" x="158.188113" y="50.790901" style="fill: #1f77b4; stroke: #1f77b4"/>
     <use xlink:href="#m25cf650f91" x="159.819543" y="50.573817" style="fill: #1f77b4; stroke: #1f77b4"/>
     <use xlink:href="#m25cf650f91" x="161.450973" y="53.951665" style="fill: #1f77b4; stroke: #1f77b4"/>
     <use xlink:href="#m25cf650f91" x="163.082402" y="53.412679" style="fill: #1f77b4; stroke: #1f77b4"/>
     <use xlink:href="#m25cf650f91" x="164.713832" y="55.216947" style="fill: #1f77b4; stroke: #1f77b4"/>
     <use xlink:href="#m25cf650f91" x="166.345262" y="57.085258" style="fill: #1f77b4; stroke: #1f77b4"/>
     <use xlink:href="#m25cf650f91" x="167.976692" y="55.033896" style="fill: #1f77b4; stroke: #1f77b4"/>
     <use xlink:href="#m25cf650f91" x="169.608122" y="60.286582" style="fill: #1f77b4; stroke: #1f77b4"/>
     <use xlink:href="#m25cf650f91" x="171.239552" y="61.44666" style="fill: #1f77b4; stroke: #1f77b4"/>
     <use xlink:href="#m25cf650f91" x="172.870982" y="64.047985" style="fill: #1f77b4; stroke: #1f77b4"/>
     <use xlink:href="#m25cf650f91" x="174.502412" y="63.307096" style="fill: #1f77b4; stroke: #1f77b4"/>
     <use xlink:href="#m25cf650f91" x="176.133842" y="67.319573" style="fill: #1f77b4; stroke: #1f77b4"/>
     <use xlink:href="#m25cf650f91" x="177.765271" y="69.145878" style="fill: #1f77b4; stroke: #1f77b4"/>
     <use xlink:href="#m25cf650f91" x="179.396701" y="71.406391" style="fill: #1f77b4; stroke: #1f77b4"/>
     <use xlink:href="#m25cf650f91" x="181.028131" y="74.249118" style="fill: #1f77b4; stroke: #1f77b4"/>
     <use xlink:href="#m25cf650f91" x="182.659561" y="81.737508" style="fill: #1f77b4; stroke: #1f77b4"/>
     <use xlink:href="#m25cf650f91" x="184.290991" y="85.627241" style="fill: #1f77b4; stroke: #1f77b4"/>
     <use xlink:href="#m25cf650f91" x="185.922421" y="86.596774" style="fill: #1f77b4; stroke: #1f77b4"/>
     <use xlink:href="#m25cf650f91" x="187.553851" y="91.061307" style="fill: #1f77b4; stroke: #1f77b4"/>
     <use xlink:href="#m25cf650f91" x="189.185281" y="94.103241" style="fill: #1f77b4; stroke: #1f77b4"/>
     <use xlink:href="#m25cf650f91" x="190.81671" y="96.823895" style="fill: #1f77b4; stroke: #1f77b4"/>
     <use xlink:href="#m25cf650f91" x="192.44814" y="102.121899" style="fill: #1f77b4; stroke: #1f77b4"/>
     <use xlink:href="#m25cf650f91" x="194.07957" y="107.896415" style="fill: #1f77b4; stroke: #1f77b4"/>
     <use xlink:href="#m25cf650f91" x="195.711" y="112.142672" style="fill: #1f77b4; stroke: #1f77b4"/>
     <use xlink:href="#m25cf650f91" x="197.34243" y="117.015558" style="fill: #1f77b4; stroke: #1f77b4"/>
     <use xlink:href="#m25cf650f91" x="198.97386" y="120.451297" style="fill: #1f77b4; stroke: #1f77b4"/>
     <use xlink:href="#m25cf650f91" x="200.60529" y="124.256268" style="fill: #1f77b4; stroke: #1f77b4"/>
     <use xlink:href="#m25cf650f91" x="202.23672" y="129.229917" style="fill: #1f77b4; stroke: #1f77b4"/>
     <use xlink:href="#m25cf650f91" x="203.868149" y="132.756978" style="fill: #1f77b4; stroke: #1f77b4"/>
     <use xlink:href="#m25cf650f91" x="205.499579" y="138.028742" style="fill: #1f77b4; stroke: #1f77b4"/>
     <use xlink:href="#m25cf650f91" x="207.131009" y="140.845123" style="fill: #1f77b4; stroke: #1f77b4"/>
     <use xlink:href="#m25cf650f91" x="208.762439" y="145.36147" style="fill: #1f77b4; stroke: #1f77b4"/>
     <use xlink:href="#m25cf650f91" x="210.393869" y="146.898924" style="fill: #1f77b4; stroke: #1f77b4"/>
     <use xlink:href="#m25cf650f91" x="212.025299" y="151.253459" style="fill: #1f77b4; stroke: #1f77b4"/>
     <use xlink:href="#m25cf650f91" x="213.656729" y="153.292889" style="fill: #1f77b4; stroke: #1f77b4"/>
     <use xlink:href="#m25cf650f91" x="215.288159" y="154.8559" style="fill: #1f77b4; stroke: #1f77b4"/>
     <use xlink:href="#m25cf650f91" x="216.919588" y="157.178871" style="fill: #1f77b4; stroke: #1f77b4"/>
     <use xlink:href="#m25cf650f91" x="218.551018" y="157.042232" style="fill: #1f77b4; stroke: #1f77b4"/>
     <use xlink:href="#m25cf650f91" x="220.182448" y="155.850787" style="fill: #1f77b4; stroke: #1f77b4"/>
     <use xlink:href="#m25cf650f91" x="221.813878" y="156.606154" style="fill: #1f77b4; stroke: #1f77b4"/>
     <use xlink:href="#m25cf650f91" x="223.445308" y="153.990443" style="fill: #1f77b4; stroke: #1f77b4"/>
     <use xlink:href="#m25cf650f91" x="225.076738" y="151.461368" style="fill: #1f77b4; stroke: #1f77b4"/>
     <use xlink:href="#m25cf650f91" x="226.708168" y="149.974458" style="fill: #1f77b4; stroke: #1f77b4"/>
     <use xlink:href="#m25cf650f91" x="228.339598" y="147.291675" style="fill: #1f77b4; stroke: #1f77b4"/>
     <use xlink:href="#m25cf650f91" x="229.971027" y="145.181449" style="fill: #1f77b4; stroke: #1f77b4"/>
     <use xlink:href="#m25cf650f91" x="231.602457" y="143.784762" style="fill: #1f77b4; stroke: #1f77b4"/>
     <use xlink:href="#m25cf650f91" x="233.233887" y="140.29419" style="fill: #1f77b4; stroke: #1f77b4"/>
     <use xlink:href="#m25cf650f91" x="234.865317" y="139.544105" style="fill: #1f77b4; stroke: #1f77b4"/>
     <use xlink:href="#m25cf650f91" x="236.496747" y="136.731628" style="fill: #1f77b4; stroke: #1f77b4"/>
     <use xlink:href="#m25cf650f91" x="238.128177" y="135.536802" style="fill: #1f77b4; stroke: #1f77b4"/>
     <use xlink:href="#m25cf650f91" x="239.759607" y="130.644764" style="fill: #1f77b4; stroke: #1f77b4"/>
     <use xlink:href="#m25cf650f91" x="241.391037" y="132.138948" style="fill: #1f77b4; stroke: #1f77b4"/>
     <use xlink:href="#m25cf650f91" x="243.022466" y="129.892824" style="fill: #1f77b4; stroke: #1f77b4"/>
     <use xlink:href="#m25cf650f91" x="244.653896" y="128.987231" style="fill: #1f77b4; stroke: #1f77b4"/>
     <use xlink:href="#m25cf650f91" x="246.285326" y="125.856904" style="fill: #1f77b4; stroke: #1f77b4"/>
     <use xlink:href="#m25cf650f91" x="247.916756" y="125.393433" style="fill: #1f77b4; stroke: #1f77b4"/>
     <use xlink:href="#m25cf650f91" x="249.548186" y="124.860745" style="fill: #1f77b4; stroke: #1f77b4"/>
     <use xlink:href="#m25cf650f91" x="251.179616" y="122.544636" style="fill: #1f77b4; stroke: #1f77b4"/>
     <use xlink:href="#m25cf650f91" x="252.811046" y="121.652647" style="fill: #1f77b4; stroke: #1f77b4"/>
     <use xlink:href="#m25cf650f91" x="254.442476" y="120.889096" style="fill: #1f77b4; stroke: #1f77b4"/>
     <use xlink:href="#m25cf650f91" x="256.073905" y="117.869145" style="fill: #1f77b4; stroke: #1f77b4"/>
     <use xlink:href="#m25cf650f91" x="257.705335" y="119.012637" style="fill: #1f77b4; stroke: #1f77b4"/>
     <use xlink:href="#m25cf650f91" x="259.336765" y="116.476861" style="fill: #1f77b4; stroke: #1f77b4"/>
     <use xlink:href="#m25cf650f91" x="260.968195" y="115.860229" style="fill: #1f77b4; stroke: #1f77b4"/>
     <use xlink:href="#m25cf650f91" x="262.599625" y="114.24768" style="fill: #1f77b4; stroke: #1f77b4"/>
     <use xlink:href="#m25cf650f91" x="264.231055" y="113.709244" style="fill: #1f77b4; stroke: #1f77b4"/>
     <use xlink:href="#m25cf650f91" x="265.862485" y="113.419445" style="fill: #1f77b4; stroke: #1f77b4"/>
     <use xlink:href="#m25cf650f91" x="267.493915" y="112.57202" style="fill: #1f77b4; stroke: #1f77b4"/>
     <use xlink:href="#m25cf650f91" x="269.125344" y="111.635851" style="fill: #1f77b4; stroke: #1f77b4"/>
     <use xlink:href="#m25cf650f91" x="270.756774" y="110.419238" style="fill: #1f77b4; stroke: #1f77b4"/>
     <use xlink:href="#m25cf650f91" x="272.388204" y="109.457029" style="fill: #1f77b4; stroke: #1f77b4"/>
     <use xlink:href="#m25cf650f91" x="274.019634" y="108.736636" style="fill: #1f77b4; stroke: #1f77b4"/>
     <use xlink:href="#m25cf650f91" x="275.651064" y="107.089388" style="fill: #1f77b4; stroke: #1f77b4"/>
     <use xlink:href="#m25cf650f91" x="277.282494" y="106.136737" style="fill: #1f77b4; stroke: #1f77b4"/>
     <use xlink:href="#m25cf650f91" x="278.913924" y="106.489647" style="fill: #1f77b4; stroke: #1f77b4"/>
     <use xlink:href="#m25cf650f91" x="280.545354" y="105.603094" style="fill: #1f77b4; stroke: #1f77b4"/>
     <use xlink:href="#m25cf650f91" x="282.176783" y="104.711323" style="fill: #1f77b4; stroke: #1f77b4"/>
     <use xlink:href="#m25cf650f91" x="283.808213" y="103.616922" style="fill: #1f77b4; stroke: #1f77b4"/>
     <use xlink:href="#m25cf650f91" x="285.439643" y="102.852613" style="fill: #1f77b4; stroke: #1f77b4"/>
     <use xlink:href="#m25cf650f91" x="287.071073" y="103.337306" style="fill: #1f77b4; stroke: #1f77b4"/>
     <use xlink:href="#m25cf650f91" x="288.702503" y="102.740238" style="fill: #1f77b4; stroke: #1f77b4"/>
     <use xlink:href="#m25cf650f91" x="290.333933" y="102.420847" style="fill: #1f77b4; stroke: #1f77b4"/>
     <use xlink:href="#m25cf650f91" x="291.965363" y="101.085732" style="fill: #1f77b4; stroke: #1f77b4"/>
     <use xlink:href="#m25cf650f91" x="293.596793" y="101.223009" style="fill: #1f77b4; stroke: #1f77b4"/>
     <use xlink:href="#m25cf650f91" x="295.228223" y="102.095231" style="fill: #1f77b4; stroke: #1f77b4"/>
     <use xlink:href="#m25cf650f91" x="296.859652" y="99.316576" style="fill: #1f77b4; stroke: #1f77b4"/>
     <use xlink:href="#m25cf650f91" x="298.491082" y="99.164047" style="fill: #1f77b4; stroke: #1f77b4"/>
     <use xlink:href="#m25cf650f91" x="300.122512" y="99.917108" style="fill: #1f77b4; stroke: #1f77b4"/>
     <use xlink:href="#m25cf650f91" x="301.753942" y="98.514061" style="fill: #1f77b4; stroke: #1f77b4"/>
     <use xlink:href="#m25cf650f91" x="303.385372" y="98.205221" style="fill: #1f77b4; stroke: #1f77b4"/>
     <use xlink:href="#m25cf650f91" x="305.016802" y="98.534294" style="fill: #1f77b4; stroke: #1f77b4"/>
     <use xlink:href="#m25cf650f91" x="306.648232" y="97.973083" style="fill: #1f77b4; stroke: #1f77b4"/>
     <use xlink:href="#m25cf650f91" x="308.279662" y="97.679092" style="fill: #1f77b4; stroke: #1f77b4"/>
     <use xlink:href="#m25cf650f91" x="309.911091" y="96.201229" style="fill: #1f77b4; stroke: #1f77b4"/>
     <use xlink:href="#m25cf650f91" x="311.542521" y="97.77353" style="fill: #1f77b4; stroke: #1f77b4"/>
     <use xlink:href="#m25cf650f91" x="313.173951" y="95.653821" style="fill: #1f77b4; stroke: #1f77b4"/>
     <use xlink:href="#m25cf650f91" x="314.805381" y="94.756052" style="fill: #1f77b4; stroke: #1f77b4"/>
     <use xlink:href="#m25cf650f91" x="316.436811" y="94.813456" style="fill: #1f77b4; stroke: #1f77b4"/>
     <use xlink:href="#m25cf650f91" x="318.068241" y="94.63364" style="fill: #1f77b4; stroke: #1f77b4"/>
     <use xlink:href="#m25cf650f91" x="319.699671" y="94.641042" style="fill: #1f77b4; stroke: #1f77b4"/>
     <use xlink:href="#m25cf650f91" x="321.331101" y="93.564455" style="fill: #1f77b4; stroke: #1f77b4"/>
     <use xlink:href="#m25cf650f91" x="322.96253" y="94.072873" style="fill: #1f77b4; stroke: #1f77b4"/>
     <use xlink:href="#m25cf650f91" x="324.59396" y="92.241768" style="fill: #1f77b4; stroke: #1f77b4"/>
     <use xlink:href="#m25cf650f91" x="326.22539" y="92.315312" style="fill: #1f77b4; stroke: #1f77b4"/>
     <use xlink:href="#m25cf650f91" x="327.85682" y="93.056148" style="fill: #1f77b4; stroke: #1f77b4"/>
     <use xlink:href="#m25cf650f91" x="329.48825" y="91.058423" style="fill: #1f77b4; stroke: #1f77b4"/>
     <use xlink:href="#m25cf650f91" x="331.11968" y="91.412186" style="fill: #1f77b4; stroke: #1f77b4"/>
     <use xlink:href="#m25cf650f91" x="332.75111" y="91.352137" style="fill: #1f77b4; stroke: #1f77b4"/>
     <use xlink:href="#m25cf650f91" x="334.38254" y="91.541609" style="fill: #1f77b4; stroke: #1f77b4"/>
     <use xlink:href="#m25cf650f91" x="336.013969" y="91.123477" style="fill: #1f77b4; stroke: #1f77b4"/>
     <use xlink:href="#m25cf650f91" x="337.645399" y="91.073977" style="fill: #1f77b4; stroke: #1f77b4"/>
     <use xlink:href="#m25cf650f91" x="339.276829" y="90.650016" style="fill: #1f77b4; stroke: #1f77b4"/>
     <use xlink:href="#m25cf650f91" x="340.908259" y="90.264085" style="fill: #1f77b4; stroke: #1f77b4"/>
     <use xlink:href="#m25cf650f91" x="342.539689" y="89.647336" style="fill: #1f77b4; stroke: #1f77b4"/>
     <use xlink:href="#m25cf650f91" x="344.171119" y="89.876872" style="fill: #1f77b4; stroke: #1f77b4"/>
     <use xlink:href="#m25cf650f91" x="345.802549" y="88.992447" style="fill: #1f77b4; stroke: #1f77b4"/>
     <use xlink:href="#m25cf650f91" x="347.433979" y="89.059987" style="fill: #1f77b4; stroke: #1f77b4"/>
     <use xlink:href="#m25cf650f91" x="349.065408" y="89.813328" style="fill: #1f77b4; stroke: #1f77b4"/>
     <use xlink:href="#m25cf650f91" x="350.696838" y="88.292485" style="fill: #1f77b4; stroke: #1f77b4"/>
     <use xlink:href="#m25cf650f91" x="352.328268" y="87.929411" style="fill: #1f77b4; stroke: #1f77b4"/>
     <use xlink:href="#m25cf650f91" x="353.959698" y="87.787237" style="fill: #1f77b4; stroke: #1f77b4"/>
     <use xlink:href="#m25cf650f91" x="355.591128" y="87.022343" style="fill: #1f77b4; stroke: #1f77b4"/>
     <use xlink:href="#m25cf650f91" x="357.222558" y="86.758476" style="fill: #1f77b4; stroke: #1f77b4"/>
     <use xlink:href="#m25cf650f91" x="358.853988" y="88.549379" style="fill: #1f77b4; stroke: #1f77b4"/>
     <use xlink:href="#m25cf650f91" x="360.485418" y="87.4003" style="fill: #1f77b4; stroke: #1f77b4"/>
     <use xlink:href="#m25cf650f91" x="362.116847" y="87.08779" style="fill: #1f77b4; stroke: #1f77b4"/>
     <use xlink:href="#m25cf650f91" x="363.748277" y="86.824005" style="fill: #1f77b4; stroke: #1f77b4"/>
     <use xlink:href="#m25cf650f91" x="365.379707" y="87.314764" style="fill: #1f77b4; stroke: #1f77b4"/>
     <use xlink:href="#m25cf650f91" x="367.011137" y="86.046207" style="fill: #1f77b4; stroke: #1f77b4"/>
     <use xlink:href="#m25cf650f91" x="368.642567" y="87.048866" style="fill: #1f77b4; stroke: #1f77b4"/>
     <use xlink:href="#m25cf650f91" x="370.273997" y="87.134854" style="fill: #1f77b4; stroke: #1f77b4"/>
     <use xlink:href="#m25cf650f91" x="371.905427" y="85.111244" style="fill: #1f77b4; stroke: #1f77b4"/>
     <use xlink:href="#m25cf650f91" x="373.536857" y="86.060065" style="fill: #1f77b4; stroke: #1f77b4"/>
     <use xlink:href="#m25cf650f91" x="375.168286" y="86.571205" style="fill: #1f77b4; stroke: #1f77b4"/>
     <use xlink:href="#m25cf650f91" x="376.799716" y="85.555317" style="fill: #1f77b4; stroke: #1f77b4"/>
     <use xlink:href="#m25cf650f91" x="378.431146" y="86.219004" style="fill: #1f77b4; stroke: #1f77b4"/>
     <use xlink:href="#m25cf650f91" x="380.062576" y="84.446797" style="fill: #1f77b4; stroke: #1f77b4"/>
     <use xlink:href="#m25cf650f91" x="381.694006" y="83.855203" style="fill: #1f77b4; stroke: #1f77b4"/>
     <use xlink:href="#m25cf650f91" x="383.325436" y="84.547045" style="fill: #1f77b4; stroke: #1f77b4"/>
     <use xlink:href="#m25cf650f91" x="384.956866" y="84.876434" style="fill: #1f77b4; stroke: #1f77b4"/>
     <use xlink:href="#m25cf650f91" x="386.588296" y="84.04771" style="fill: #1f77b4; stroke: #1f77b4"/>
     <use xlink:href="#m25cf650f91" x="388.219725" y="84.492794" style="fill: #1f77b4; stroke: #1f77b4"/>
     <use xlink:href="#m25cf650f91" x="389.851155" y="82.84692" style="fill: #1f77b4; stroke: #1f77b4"/>
     <use xlink:href="#m25cf650f91" x="391.482585" y="83.255305" style="fill: #1f77b4; stroke: #1f77b4"/>
    </g>
   </g>
   <g id="line2d_13">
    <path d="M 66.82804 57.615549 
L 83.401996 56.080945 
L 100.62591 54.257509 
L 131.498965 50.911874 
L 137.998556 50.481863 
L 143.198228 50.359413 
L 147.422962 50.483756 
L 150.997737 50.808788 
L 154.247532 51.335049 
L 157.172348 52.046751 
L 159.772184 52.911797 
L 162.047041 53.882455 
L 164.321897 55.085658 
L 166.596754 56.556005 
L 168.871611 58.33046 
L 170.821488 60.122523 
L 172.771365 62.190331 
L 174.721242 64.557026 
L 176.671119 67.243552 
L 178.620996 70.267258 
L 180.895853 74.236966 
L 183.17071 78.689398 
L 185.445566 83.616277 
L 188.045403 89.793065 
L 190.970218 97.351334 
L 194.544993 107.250857 
L 205.594297 138.428492 
L 208.194133 144.83884 
L 210.14401 149.093469 
L 211.768908 152.138915 
L 213.068826 154.153833 
L 214.368744 155.710829 
L 215.343683 156.534474 
L 216.318621 157.039768 
L 217.29356 157.221818 
L 218.268498 157.094174 
L 219.243437 156.687156 
L 220.218376 156.042074 
L 221.518294 154.889552 
L 223.143191 153.117481 
L 225.743027 149.862091 
L 234.842454 138.115327 
L 238.417229 133.979072 
L 241.992004 130.192905 
L 245.566779 126.744662 
L 249.141553 123.609829 
L 252.716328 120.759945 
L 256.616082 117.942446 
L 260.515837 115.395286 
L 264.74057 112.904483 
L 269.290284 110.495177 
L 273.839997 108.33198 
L 278.71469 106.250547 
L 283.914362 104.262702 
L 289.763994 102.271543 
L 295.938605 100.408867 
L 302.763175 98.590581 
L 310.237704 96.841278 
L 318.362192 95.177929 
L 327.136639 93.611008 
L 336.886025 92.098715 
L 347.610349 90.661136 
L 359.634592 89.275883 
L 373.283732 87.934653 
L 388.55777 86.663374 
L 391.482585 86.44308 
L 391.482585 86.44308 
" clip-path="url(#p9e76b1ab15)" style="fill: none; stroke: #d62728; stroke-width: 1.5; stroke-linecap: square"/>
   </g>
   <g id="patch_3">
    <path d="M 50.595313 162.72 
L 50.595313 41.76 
" style="fill: none; stroke: #000000; stroke-width: 0.8; stroke-linejoin: miter; stroke-linecap: square"/>
   </g>
   <g id="patch_4">
    <path d="M 407.715312 162.72 
L 407.715312 41.76 
" style="fill: none; stroke: #000000; stroke-width: 0.8; stroke-linejoin: miter; stroke-linecap: square"/>
   </g>
   <g id="patch_5">
    <path d="M 50.595312 162.72 
L 407.715312 162.72 
" style="fill: none; stroke: #000000; stroke-width: 0.8; stroke-linejoin: miter; stroke-linecap: square"/>
   </g>
   <g id="patch_6">
    <path d="M 50.595312 41.76 
L 407.715312 41.76 
" style="fill: none; stroke: #000000; stroke-width: 0.8; stroke-linejoin: miter; stroke-linecap: square"/>
   </g>
   <g id="text_7">
    <g id="patch_7">
     <path d="M 425.571312 95.079562 
L 570.271313 95.079562 
Q 574.271313 95.079562 574.271313 91.079562 
L 574.271313 47.808 
Q 574.271313 43.808 570.271313 43.808 
L 425.571312 43.808 
Q 421.571312 43.808 421.571312 47.808 
L 421.571312 91.079562 
Q 421.571312 95.079562 425.571312 95.079562 
z
" style="fill: #ffffff; opacity: 0.5; stroke: #000000; stroke-linejoin: miter"/>
    </g>
    <!-- Summary -->
    <g transform="translate(425.571312 55.406437) scale(0.1 -0.1)">
     <defs>
      <path id="DejaVuSans-53" d="M 3425 4513 
L 3425 3897 
Q 3066 4069 2747 4153 
Q 2428 4238 2131 4238 
Q 1616 4238 1336 4038 
Q 1056 3838 1056 3469 
Q 1056 3159 1242 3001 
Q 1428 2844 1947 2747 
L 2328 2669 
Q 3034 2534 3370 2195 
Q 3706 1856 3706 1288 
Q 3706 609 3251 259 
Q 2797 -91 1919 -91 
Q 1588 -91 1214 -16 
Q 841 59 441 206 
L 441 856 
Q 825 641 1194 531 
Q 1563 422 1919 422 
Q 2459 422 2753 634 
Q 3047 847 3047 1241 
Q 3047 1584 2836 1778 
Q 2625 1972 2144 2069 
L 1759 2144 
Q 1053 2284 737 2584 
Q 422 2884 422 3419 
Q 422 4038 858 4394 
Q 1294 4750 2059 4750 
Q 2388 4750 2728 4690 
Q 3069 4631 3425 4513 
z
" transform="scale(0.015625)"/>
      <path id="DejaVuSans-75" d="M 544 1381 
L 544 3500 
L 1119 3500 
L 1119 1403 
Q 1119 906 1312 657 
Q 1506 409 1894 409 
Q 2359 409 2629 706 
Q 2900 1003 2900 1516 
L 2900 3500 
L 3475 3500 
L 3475 0 
L 2900 0 
L 2900 538 
Q 2691 219 2414 64 
Q 2138 -91 1772 -91 
Q 1169 -91 856 284 
Q 544 659 544 1381 
z
M 1991 3584 
L 1991 3584 
z
" transform="scale(0.015625)"/>
      <path id="DejaVuSans-61" d="M 2194 1759 
Q 1497 1759 1228 1600 
Q 959 1441 959 1056 
Q 959 750 1161 570 
Q 1363 391 1709 391 
Q 2188 391 2477 730 
Q 2766 1069 2766 1631 
L 2766 1759 
L 2194 1759 
z
M 3341 1997 
L 3341 0 
L 2766 0 
L 2766 531 
Q 2569 213 2275 61 
Q 1981 -91 1556 -91 
Q 1019 -91 701 211 
Q 384 513 384 1019 
Q 384 1609 779 1909 
Q 1175 2209 1959 2209 
L 2766 2209 
L 2766 2266 
Q 2766 2663 2505 2880 
Q 2244 3097 1772 3097 
Q 1472 3097 1187 3025 
Q 903 2953 641 2809 
L 641 3341 
Q 956 3463 1253 3523 
Q 1550 3584 1831 3584 
Q 2591 3584 2966 3190 
Q 3341 2797 3341 1997 
z
" transform="scale(0.015625)"/>
      <path id="DejaVuSans-72" d="M 2631 2963 
Q 2534 3019 2420 3045 
Q 2306 3072 2169 3072 
Q 1681 3072 1420 2755 
Q 1159 2438 1159 1844 
L 1159 0 
L 581 0 
L 581 3500 
L 1159 3500 
L 1159 2956 
Q 1341 3275 1631 3429 
Q 1922 3584 2338 3584 
Q 2397 3584 2469 3576 
Q 2541 3569 2628 3553 
L 2631 2963 
z
" transform="scale(0.015625)"/>
      <path id="DejaVuSans-79" d="M 2059 -325 
Q 1816 -950 1584 -1140 
Q 1353 -1331 966 -1331 
L 506 -1331 
L 506 -850 
L 844 -850 
Q 1081 -850 1212 -737 
Q 1344 -625 1503 -206 
L 1606 56 
L 191 3500 
L 800 3500 
L 1894 763 
L 2988 3500 
L 3597 3500 
L 2059 -325 
z
" transform="scale(0.015625)"/>
     </defs>
     <use xlink:href="#DejaVuSans-53"/>
     <use xlink:href="#DejaVuSans-75" x="63.476562"/>
     <use xlink:href="#DejaVuSans-6d" x="126.855469"/>
     <use xlink:href="#DejaVuSans-6d" x="224.267578"/>
     <use xlink:href="#DejaVuSans-61" x="321.679688"/>
     <use xlink:href="#DejaVuSans-72" x="382.958984"/>
     <use xlink:href="#DejaVuSans-79" x="424.072266"/>
    </g>
    <!-- $Q_I$: 13.71$\pm$0.24 k -->
    <g transform="translate(425.571312 66.60425) scale(0.1 -0.1)">
     <defs>
      <path id="DejaVuSans-Oblique-51" d="M 2309 -84 
Q 2275 -88 2237 -89 
Q 2200 -91 2125 -91 
Q 1250 -91 756 411 
Q 263 913 263 1797 
Q 263 2319 452 2844 
Q 641 3369 978 3788 
Q 1369 4269 1858 4509 
Q 2347 4750 2938 4750 
Q 3794 4750 4287 4245 
Q 4781 3741 4781 2869 
Q 4781 1928 4265 1147 
Q 3750 366 2919 44 
L 3553 -825 
L 2847 -825 
L 2309 -84 
z
M 2919 4238 
Q 2400 4238 2003 3986 
Q 1606 3734 1313 3219 
Q 1125 2891 1026 2522 
Q 928 2153 928 1778 
Q 928 1128 1239 775 
Q 1550 422 2119 422 
Q 2631 422 3032 676 
Q 3434 931 3719 1434 
Q 3909 1772 4009 2142 
Q 4109 2513 4109 2881 
Q 4109 3528 3796 3883 
Q 3484 4238 2919 4238 
z
" transform="scale(0.015625)"/>
      <path id="DejaVuSans-Oblique-49" d="M 1081 4666 
L 1716 4666 
L 806 0 
L 172 0 
L 1081 4666 
z
" transform="scale(0.015625)"/>
      <path id="DejaVuSans-3a" d="M 750 794 
L 1409 794 
L 1409 0 
L 750 0 
L 750 794 
z
M 750 3309 
L 1409 3309 
L 1409 2516 
L 750 2516 
L 750 3309 
z
" transform="scale(0.015625)"/>
      <path id="DejaVuSans-33" d="M 2597 2516 
Q 3050 2419 3304 2112 
Q 3559 1806 3559 1356 
Q 3559 666 3084 287 
Q 2609 -91 1734 -91 
Q 1441 -91 1130 -33 
Q 819 25 488 141 
L 488 750 
Q 750 597 1062 519 
Q 1375 441 1716 441 
Q 2309 441 2620 675 
Q 2931 909 2931 1356 
Q 2931 1769 2642 2001 
Q 2353 2234 1838 2234 
L 1294 2234 
L 1294 2753 
L 1863 2753 
Q 2328 2753 2575 2939 
Q 2822 3125 2822 3475 
Q 2822 3834 2567 4026 
Q 2313 4219 1838 4219 
Q 1578 4219 1281 4162 
Q 984 4106 628 3988 
L 628 4550 
Q 988 4650 1302 4700 
Q 1616 4750 1894 4750 
Q 2613 4750 3031 4423 
Q 3450 4097 3450 3541 
Q 3450 3153 3228 2886 
Q 3006 2619 2597 2516 
z
" transform="scale(0.015625)"/>
      <path id="DejaVuSans-2e" d="M 684 794 
L 1344 794 
L 1344 0 
L 684 0 
L 684 794 
z
" transform="scale(0.015625)"/>
      <path id="DejaVuSans-37" d="M 525 4666 
L 3525 4666 
L 3525 4397 
L 1831 0 
L 1172 0 
L 2766 4134 
L 525 4134 
L 525 4666 
z
" transform="scale(0.015625)"/>
      <path id="DejaVuSans-b1" d="M 2944 4013 
L 2944 2803 
L 4684 2803 
L 4684 2272 
L 2944 2272 
L 2944 1063 
L 2419 1063 
L 2419 2272 
L 678 2272 
L 678 2803 
L 2419 2803 
L 2419 4013 
L 2944 4013 
z
M 678 531 
L 4684 531 
L 4684 0 
L 678 0 
L 678 531 
z
" transform="scale(0.015625)"/>
      <path id="DejaVuSans-6b" d="M 581 4863 
L 1159 4863 
L 1159 1991 
L 2875 3500 
L 3609 3500 
L 1753 1863 
L 3688 0 
L 2938 0 
L 1159 1709 
L 1159 0 
L 581 0 
L 581 4863 
z
" transform="scale(0.015625)"/>
     </defs>
     <use xlink:href="#DejaVuSans-Oblique-51" transform="translate(0 0.015625)"/>
     <use xlink:href="#DejaVuSans-Oblique-49" transform="translate(78.710938 -16.390625) scale(0.7)"/>
     <use xlink:href="#DejaVuSans-3a" transform="translate(102.089844 0.015625)"/>
     <use xlink:href="#DejaVuSans-20" transform="translate(135.78125 0.015625)"/>
     <use xlink:href="#DejaVuSans-31" transform="translate(167.568359 0.015625)"/>
     <use xlink:href="#DejaVuSans-33" transform="translate(231.191406 0.015625)"/>
     <use xlink:href="#DejaVuSans-2e" transform="translate(294.814453 0.015625)"/>
     <use xlink:href="#DejaVuSans-37" transform="translate(318.851562 0.015625)"/>
     <use xlink:href="#DejaVuSans-31" transform="translate(382.474609 0.015625)"/>
     <use xlink:href="#DejaVuSans-b1" transform="translate(446.097656 0.015625)"/>
     <use xlink:href="#DejaVuSans-30" transform="translate(529.886719 0.015625)"/>
     <use xlink:href="#DejaVuSans-2e" transform="translate(593.509766 0.015625)"/>
     <use xlink:href="#DejaVuSans-32" transform="translate(619.796875 0.015625)"/>
     <use xlink:href="#DejaVuSans-34" transform="translate(683.419922 0.015625)"/>
     <use xlink:href="#DejaVuSans-20" transform="translate(747.042969 0.015625)"/>
     <use xlink:href="#DejaVuSans-6b" transform="translate(778.830078 0.015625)"/>
    </g>
    <!-- $Q_C$: 3.346$\pm$0.020 k -->
    <g transform="translate(425.571312 77.802062) scale(0.1 -0.1)">
     <defs>
      <path id="DejaVuSans-Oblique-43" d="M 4447 4306 
L 4319 3641 
Q 4019 3944 3683 4091 
Q 3347 4238 2956 4238 
Q 2422 4238 2017 3981 
Q 1613 3725 1319 3200 
Q 1131 2863 1032 2486 
Q 934 2109 934 1728 
Q 934 1091 1264 756 
Q 1594 422 2222 422 
Q 2656 422 3056 561 
Q 3456 700 3834 978 
L 3688 231 
Q 3316 72 2936 -9 
Q 2556 -91 2175 -91 
Q 1278 -91 773 396 
Q 269 884 269 1753 
Q 269 2309 461 2846 
Q 653 3384 1013 3828 
Q 1394 4300 1883 4525 
Q 2372 4750 3022 4750 
Q 3422 4750 3780 4639 
Q 4138 4528 4447 4306 
z
" transform="scale(0.015625)"/>
     </defs>
     <use xlink:href="#DejaVuSans-Oblique-51" transform="translate(0 0.015625)"/>
     <use xlink:href="#DejaVuSans-Oblique-43" transform="translate(78.710938 -16.390625) scale(0.7)"/>
     <use xlink:href="#DejaVuSans-3a" transform="translate(130.322266 0.015625)"/>
     <use xlink:href="#DejaVuSans-20" transform="translate(164.013672 0.015625)"/>
     <use xlink:href="#DejaVuSans-33" transform="translate(195.800781 0.015625)"/>
     <use xlink:href="#DejaVuSans-2e" transform="translate(259.423828 0.015625)"/>
     <use xlink:href="#DejaVuSans-33" transform="translate(291.210938 0.015625)"/>
     <use xlink:href="#DejaVuSans-34" transform="translate(354.833984 0.015625)"/>
     <use xlink:href="#DejaVuSans-36" transform="translate(418.457031 0.015625)"/>
     <use xlink:href="#DejaVuSans-b1" transform="translate(482.080078 0.015625)"/>
     <use xlink:href="#DejaVuSans-30" transform="translate(565.869141 0.015625)"/>
     <use xlink:href="#DejaVuSans-2e" transform="translate(629.492188 0.015625)"/>
     <use xlink:href="#DejaVuSans-30" transform="translate(661.279297 0.015625)"/>
     <use xlink:href="#DejaVuSans-32" transform="translate(724.902344 0.015625)"/>
     <use xlink:href="#DejaVuSans-30" transform="translate(788.525391 0.015625)"/>
     <use xlink:href="#DejaVuSans-20" transform="translate(852.148438 0.015625)"/>
     <use xlink:href="#DejaVuSans-6b" transform="translate(883.935547 0.015625)"/>
    </g>
    <!-- $f_{res}$: 5.8376100$\pm$5.7e-06 GHz -->
    <g transform="translate(425.571312 88.999875) scale(0.1 -0.1)">
     <defs>
      <path id="DejaVuSans-Oblique-66" d="M 3059 4863 
L 2969 4384 
L 2419 4384 
Q 2106 4384 1964 4261 
Q 1822 4138 1753 3809 
L 1691 3500 
L 2638 3500 
L 2553 3053 
L 1606 3053 
L 1013 0 
L 434 0 
L 1031 3053 
L 481 3053 
L 563 3500 
L 1113 3500 
L 1159 3744 
Q 1278 4363 1576 4613 
Q 1875 4863 2516 4863 
L 3059 4863 
z
" transform="scale(0.015625)"/>
      <path id="DejaVuSans-Oblique-72" d="M 2853 2969 
Q 2766 3016 2653 3041 
Q 2541 3066 2413 3066 
Q 1953 3066 1609 2717 
Q 1266 2369 1153 1784 
L 800 0 
L 225 0 
L 909 3500 
L 1484 3500 
L 1375 2956 
Q 1603 3259 1920 3421 
Q 2238 3584 2597 3584 
Q 2691 3584 2781 3573 
Q 2872 3563 2963 3538 
L 2853 2969 
z
" transform="scale(0.015625)"/>
      <path id="DejaVuSans-Oblique-65" d="M 3078 2063 
Q 3088 2113 3092 2166 
Q 3097 2219 3097 2272 
Q 3097 2653 2873 2875 
Q 2650 3097 2266 3097 
Q 1838 3097 1509 2826 
Q 1181 2556 1013 2059 
L 3078 2063 
z
M 3578 1613 
L 903 1613 
Q 884 1494 878 1425 
Q 872 1356 872 1306 
Q 872 872 1139 634 
Q 1406 397 1894 397 
Q 2269 397 2603 481 
Q 2938 566 3225 728 
L 3116 159 
Q 2806 34 2476 -28 
Q 2147 -91 1806 -91 
Q 1078 -91 686 257 
Q 294 606 294 1247 
Q 294 1794 489 2264 
Q 684 2734 1063 3103 
Q 1306 3334 1642 3459 
Q 1978 3584 2356 3584 
Q 2950 3584 3301 3228 
Q 3653 2872 3653 2272 
Q 3653 2128 3634 1964 
Q 3616 1800 3578 1613 
z
" transform="scale(0.015625)"/>
      <path id="DejaVuSans-Oblique-73" d="M 3200 3397 
L 3091 2853 
Q 2863 2978 2609 3040 
Q 2356 3103 2088 3103 
Q 1634 3103 1373 2948 
Q 1113 2794 1113 2528 
Q 1113 2219 1719 2053 
Q 1766 2041 1788 2034 
L 1972 1978 
Q 2547 1819 2739 1644 
Q 2931 1469 2931 1166 
Q 2931 609 2489 259 
Q 2047 -91 1331 -91 
Q 1053 -91 747 -37 
Q 441 16 72 128 
L 184 722 
Q 500 559 806 475 
Q 1113 391 1394 391 
Q 1816 391 2080 572 
Q 2344 753 2344 1031 
Q 2344 1331 1650 1516 
L 1591 1531 
L 1394 1581 
Q 956 1697 753 1886 
Q 550 2075 550 2369 
Q 550 2928 970 3256 
Q 1391 3584 2113 3584 
Q 2397 3584 2667 3537 
Q 2938 3491 3200 3397 
z
" transform="scale(0.015625)"/>
      <path id="DejaVuSans-35" d="M 691 4666 
L 3169 4666 
L 3169 4134 
L 1269 4134 
L 1269 2991 
Q 1406 3038 1543 3061 
Q 1681 3084 1819 3084 
Q 2600 3084 3056 2656 
Q 3513 2228 3513 1497 
Q 3513 744 3044 326 
Q 2575 -91 1722 -91 
Q 1428 -91 1123 -41 
Q 819 9 494 109 
L 494 744 
Q 775 591 1075 516 
Q 1375 441 1709 441 
Q 2250 441 2565 725 
Q 2881 1009 2881 1497 
Q 2881 1984 2565 2268 
Q 2250 2553 1709 2553 
Q 1456 2553 1204 2497 
Q 953 2441 691 2322 
L 691 4666 
z
" transform="scale(0.015625)"/>
      <path id="DejaVuSans-65" d="M 3597 1894 
L 3597 1613 
L 953 1613 
Q 991 1019 1311 708 
Q 1631 397 2203 397 
Q 2534 397 2845 478 
Q 3156 559 3463 722 
L 3463 178 
Q 3153 47 2828 -22 
Q 2503 -91 2169 -91 
Q 1331 -91 842 396 
Q 353 884 353 1716 
Q 353 2575 817 3079 
Q 1281 3584 2069 3584 
Q 2775 3584 3186 3129 
Q 3597 2675 3597 1894 
z
M 3022 2063 
Q 3016 2534 2758 2815 
Q 2500 3097 2075 3097 
Q 1594 3097 1305 2825 
Q 1016 2553 972 2059 
L 3022 2063 
z
" transform="scale(0.015625)"/>
      <path id="DejaVuSans-2d" d="M 313 2009 
L 1997 2009 
L 1997 1497 
L 313 1497 
L 313 2009 
z
" transform="scale(0.015625)"/>
      <path id="DejaVuSans-47" d="M 3809 666 
L 3809 1919 
L 2778 1919 
L 2778 2438 
L 4434 2438 
L 4434 434 
Q 4069 175 3628 42 
Q 3188 -91 2688 -91 
Q 1594 -91 976 548 
Q 359 1188 359 2328 
Q 359 3472 976 4111 
Q 1594 4750 2688 4750 
Q 3144 4750 3555 4637 
Q 3966 4525 4313 4306 
L 4313 3634 
Q 3963 3931 3569 4081 
Q 3175 4231 2741 4231 
Q 1884 4231 1454 3753 
Q 1025 3275 1025 2328 
Q 1025 1384 1454 906 
Q 1884 428 2741 428 
Q 3075 428 3337 486 
Q 3600 544 3809 666 
z
" transform="scale(0.015625)"/>
      <path id="DejaVuSans-48" d="M 628 4666 
L 1259 4666 
L 1259 2753 
L 3553 2753 
L 3553 4666 
L 4184 4666 
L 4184 0 
L 3553 0 
L 3553 2222 
L 1259 2222 
L 1259 0 
L 628 0 
L 628 4666 
z
" transform="scale(0.015625)"/>
      <path id="DejaVuSans-7a" d="M 353 3500 
L 3084 3500 
L 3084 2975 
L 922 459 
L 3084 459 
L 3084 0 
L 275 0 
L 275 525 
L 2438 3041 
L 353 3041 
L 353 3500 
z
" transform="scale(0.015625)"/>
     </defs>
     <use xlink:href="#DejaVuSans-Oblique-66" transform="translate(0 0.015625)"/>
     <use xlink:href="#DejaVuSans-Oblique-72" transform="translate(35.205078 -16.390625) scale(0.7)"/>
     <use xlink:href="#DejaVuSans-Oblique-65" transform="translate(63.984375 -16.390625) scale(0.7)"/>
     <use xlink:href="#DejaVuSans-Oblique-73" transform="translate(107.050781 -16.390625) scale(0.7)"/>
     <use xlink:href="#DejaVuSans-3a" transform="translate(146.254883 0.015625)"/>
     <use xlink:href="#DejaVuSans-20" transform="translate(179.946289 0.015625)"/>
     <use xlink:href="#DejaVuSans-35" transform="translate(211.733398 0.015625)"/>
     <use xlink:href="#DejaVuSans-2e" transform="translate(275.356445 0.015625)"/>
     <use xlink:href="#DejaVuSans-38" transform="translate(304.518555 0.015625)"/>
     <use xlink:href="#DejaVuSans-33" transform="translate(368.141602 0.015625)"/>
     <use xlink:href="#DejaVuSans-37" transform="translate(431.764648 0.015625)"/>
     <use xlink:href="#DejaVuSans-36" transform="translate(495.387695 0.015625)"/>
     <use xlink:href="#DejaVuSans-31" transform="translate(559.010742 0.015625)"/>
     <use xlink:href="#DejaVuSans-30" transform="translate(622.633789 0.015625)"/>
     <use xlink:href="#DejaVuSans-30" transform="translate(686.256836 0.015625)"/>
     <use xlink:href="#DejaVuSans-b1" transform="translate(749.879883 0.015625)"/>
     <use xlink:href="#DejaVuSans-35" transform="translate(833.668945 0.015625)"/>
     <use xlink:href="#DejaVuSans-2e" transform="translate(897.291992 0.015625)"/>
     <use xlink:href="#DejaVuSans-37" transform="translate(921.329102 0.015625)"/>
     <use xlink:href="#DejaVuSans-65" transform="translate(984.952148 0.015625)"/>
     <use xlink:href="#DejaVuSans-2d" transform="translate(1046.475586 0.015625)"/>
     <use xlink:href="#DejaVuSans-30" transform="translate(1082.55957 0.015625)"/>
     <use xlink:href="#DejaVuSans-36" transform="translate(1146.182617 0.015625)"/>
     <use xlink:href="#DejaVuSans-20" transform="translate(1209.805664 0.015625)"/>
     <use xlink:href="#DejaVuSans-47" transform="translate(1241.592773 0.015625)"/>
     <use xlink:href="#DejaVuSans-48" transform="translate(1319.083008 0.015625)"/>
     <use xlink:href="#DejaVuSans-7a" transform="translate(1394.27832 0.015625)"/>
    </g>
   </g>
  </g>
  <g id="axes_2">
   <g id="patch_8">
    <path d="M 50.595313 307.872 
L 407.715312 307.872 
L 407.715312 186.912 
L 50.595313 186.912 
z
" style="fill: #ffffff"/>
   </g>
   <g id="matplotlib.axis_3">
    <g id="xtick_7">
     <g id="line2d_14">
      <g>
       <use xlink:href="#m968aa39c1d" x="74.944403" y="307.872" style="stroke: #000000; stroke-width: 0.8"/>
      </g>
     </g>
     <g id="text_8">
      <!-- 834 -->
      <g transform="translate(65.400653 322.470438) scale(0.1 -0.1)">
       <use xlink:href="#DejaVuSans-38"/>
       <use xlink:href="#DejaVuSans-33" x="63.623047"/>
       <use xlink:href="#DejaVuSans-34" x="127.246094"/>
      </g>
     </g>
    </g>
    <g id="xtick_8">
     <g id="line2d_15">
      <g>
       <use xlink:href="#m968aa39c1d" x="139.875312" y="307.872" style="stroke: #000000; stroke-width: 0.8"/>
      </g>
     </g>
     <g id="text_9">
      <!-- 836 -->
      <g transform="translate(130.331562 322.470438) scale(0.1 -0.1)">
       <use xlink:href="#DejaVuSans-38"/>
       <use xlink:href="#DejaVuSans-33" x="63.623047"/>
       <use xlink:href="#DejaVuSans-36" x="127.246094"/>
      </g>
     </g>
    </g>
    <g id="xtick_9">
     <g id="line2d_16">
      <g>
       <use xlink:href="#m968aa39c1d" x="204.806222" y="307.872" style="stroke: #000000; stroke-width: 0.8"/>
      </g>
     </g>
     <g id="text_10">
      <!-- 838 -->
      <g transform="translate(195.262472 322.470438) scale(0.1 -0.1)">
       <use xlink:href="#DejaVuSans-38"/>
       <use xlink:href="#DejaVuSans-33" x="63.623047"/>
       <use xlink:href="#DejaVuSans-38" x="127.246094"/>
      </g>
     </g>
    </g>
    <g id="xtick_10">
     <g id="line2d_17">
      <g>
       <use xlink:href="#m968aa39c1d" x="269.737131" y="307.872" style="stroke: #000000; stroke-width: 0.8"/>
      </g>
     </g>
     <g id="text_11">
      <!-- 840 -->
      <g transform="translate(260.193381 322.470438) scale(0.1 -0.1)">
       <use xlink:href="#DejaVuSans-38"/>
       <use xlink:href="#DejaVuSans-34" x="63.623047"/>
       <use xlink:href="#DejaVuSans-30" x="127.246094"/>
      </g>
     </g>
    </g>
    <g id="xtick_11">
     <g id="line2d_18">
      <g>
       <use xlink:href="#m968aa39c1d" x="334.66804" y="307.872" style="stroke: #000000; stroke-width: 0.8"/>
      </g>
     </g>
     <g id="text_12">
      <!-- 842 -->
      <g transform="translate(325.12429 322.470438) scale(0.1 -0.1)">
       <use xlink:href="#DejaVuSans-38"/>
       <use xlink:href="#DejaVuSans-34" x="63.623047"/>
       <use xlink:href="#DejaVuSans-32" x="127.246094"/>
      </g>
     </g>
    </g>
    <g id="xtick_12">
     <g id="line2d_19">
      <g>
       <use xlink:href="#m968aa39c1d" x="399.598949" y="307.872" style="stroke: #000000; stroke-width: 0.8"/>
      </g>
     </g>
     <g id="text_13">
      <!-- 844 -->
      <g transform="translate(390.055199 322.470438) scale(0.1 -0.1)">
       <use xlink:href="#DejaVuSans-38"/>
       <use xlink:href="#DejaVuSans-34" x="63.623047"/>
       <use xlink:href="#DejaVuSans-34" x="127.246094"/>
      </g>
     </g>
    </g>
    <g id="text_14">
     <!-- Frequency [MHz] -->
     <g transform="translate(187.136562 336.148562) scale(0.1 -0.1)">
      <defs>
       <path id="DejaVuSans-46" d="M 628 4666 
L 3309 4666 
L 3309 4134 
L 1259 4134 
L 1259 2759 
L 3109 2759 
L 3109 2228 
L 1259 2228 
L 1259 0 
L 628 0 
L 628 4666 
z
" transform="scale(0.015625)"/>
       <path id="DejaVuSans-71" d="M 947 1747 
Q 947 1113 1208 752 
Q 1469 391 1925 391 
Q 2381 391 2643 752 
Q 2906 1113 2906 1747 
Q 2906 2381 2643 2742 
Q 2381 3103 1925 3103 
Q 1469 3103 1208 2742 
Q 947 2381 947 1747 
z
M 2906 525 
Q 2725 213 2448 61 
Q 2172 -91 1784 -91 
Q 1150 -91 751 415 
Q 353 922 353 1747 
Q 353 2572 751 3078 
Q 1150 3584 1784 3584 
Q 2172 3584 2448 3432 
Q 2725 3281 2906 2969 
L 2906 3500 
L 3481 3500 
L 3481 -1331 
L 2906 -1331 
L 2906 525 
z
" transform="scale(0.015625)"/>
       <path id="DejaVuSans-6e" d="M 3513 2113 
L 3513 0 
L 2938 0 
L 2938 2094 
Q 2938 2591 2744 2837 
Q 2550 3084 2163 3084 
Q 1697 3084 1428 2787 
Q 1159 2491 1159 1978 
L 1159 0 
L 581 0 
L 581 3500 
L 1159 3500 
L 1159 2956 
Q 1366 3272 1645 3428 
Q 1925 3584 2291 3584 
Q 2894 3584 3203 3211 
Q 3513 2838 3513 2113 
z
" transform="scale(0.015625)"/>
       <path id="DejaVuSans-63" d="M 3122 3366 
L 3122 2828 
Q 2878 2963 2633 3030 
Q 2388 3097 2138 3097 
Q 1578 3097 1268 2742 
Q 959 2388 959 1747 
Q 959 1106 1268 751 
Q 1578 397 2138 397 
Q 2388 397 2633 464 
Q 2878 531 3122 666 
L 3122 134 
Q 2881 22 2623 -34 
Q 2366 -91 2075 -91 
Q 1284 -91 818 406 
Q 353 903 353 1747 
Q 353 2603 823 3093 
Q 1294 3584 2113 3584 
Q 2378 3584 2631 3529 
Q 2884 3475 3122 3366 
z
" transform="scale(0.015625)"/>
       <path id="DejaVuSans-4d" d="M 628 4666 
L 1569 4666 
L 2759 1491 
L 3956 4666 
L 4897 4666 
L 4897 0 
L 4281 0 
L 4281 4097 
L 3078 897 
L 2444 897 
L 1241 4097 
L 1241 0 
L 628 0 
L 628 4666 
z
" transform="scale(0.015625)"/>
      </defs>
      <use xlink:href="#DejaVuSans-46"/>
      <use xlink:href="#DejaVuSans-72" x="50.269531"/>
      <use xlink:href="#DejaVuSans-65" x="89.132812"/>
      <use xlink:href="#DejaVuSans-71" x="150.65625"/>
      <use xlink:href="#DejaVuSans-75" x="214.132812"/>
      <use xlink:href="#DejaVuSans-65" x="277.511719"/>
      <use xlink:href="#DejaVuSans-6e" x="339.035156"/>
      <use xlink:href="#DejaVuSans-63" x="402.414062"/>
      <use xlink:href="#DejaVuSans-79" x="457.394531"/>
      <use xlink:href="#DejaVuSans-20" x="516.574219"/>
      <use xlink:href="#DejaVuSans-5b" x="548.361328"/>
      <use xlink:href="#DejaVuSans-4d" x="587.375"/>
      <use xlink:href="#DejaVuSans-48" x="673.654297"/>
      <use xlink:href="#DejaVuSans-7a" x="748.849609"/>
      <use xlink:href="#DejaVuSans-5d" x="801.339844"/>
     </g>
    </g>
    <g id="text_15">
     <!-- +5 GHz -->
     <g transform="translate(369.277812 335.148562) scale(0.1 -0.1)">
      <defs>
       <path id="DejaVuSans-2b" d="M 2944 4013 
L 2944 2272 
L 4684 2272 
L 4684 1741 
L 2944 1741 
L 2944 0 
L 2419 0 
L 2419 1741 
L 678 1741 
L 678 2272 
L 2419 2272 
L 2419 4013 
L 2944 4013 
z
" transform="scale(0.015625)"/>
      </defs>
      <use xlink:href="#DejaVuSans-2b"/>
      <use xlink:href="#DejaVuSans-35" x="83.789062"/>
      <use xlink:href="#DejaVuSans-20" x="147.412109"/>
      <use xlink:href="#DejaVuSans-47" x="179.199219"/>
      <use xlink:href="#DejaVuSans-48" x="256.689453"/>
      <use xlink:href="#DejaVuSans-7a" x="331.884766"/>
     </g>
    </g>
   </g>
   <g id="matplotlib.axis_4">
    <g id="ytick_6">
     <g id="line2d_20">
      <g>
       <use xlink:href="#maed6e1a461" x="50.595313" y="277.94018" style="stroke: #000000; stroke-width: 0.8"/>
      </g>
     </g>
     <g id="text_16">
      <!-- -100 -->
      <g transform="translate(20.9 281.739399) scale(0.1 -0.1)">
       <use xlink:href="#DejaVuSans-2d"/>
       <use xlink:href="#DejaVuSans-31" x="36.083984"/>
       <use xlink:href="#DejaVuSans-30" x="99.707031"/>
       <use xlink:href="#DejaVuSans-30" x="163.330078"/>
      </g>
     </g>
    </g>
    <g id="ytick_7">
     <g id="line2d_21">
      <g>
       <use xlink:href="#maed6e1a461" x="50.595313" y="247.390781" style="stroke: #000000; stroke-width: 0.8"/>
      </g>
     </g>
     <g id="text_17">
      <!-- 0 -->
      <g transform="translate(37.232813 251.189999) scale(0.1 -0.1)">
       <use xlink:href="#DejaVuSans-30"/>
      </g>
     </g>
    </g>
    <g id="ytick_8">
     <g id="line2d_22">
      <g>
       <use xlink:href="#maed6e1a461" x="50.595313" y="216.841381" style="stroke: #000000; stroke-width: 0.8"/>
      </g>
     </g>
     <g id="text_18">
      <!-- 100 -->
      <g transform="translate(24.507813 220.6406) scale(0.1 -0.1)">
       <use xlink:href="#DejaVuSans-31"/>
       <use xlink:href="#DejaVuSans-30" x="63.623047"/>
       <use xlink:href="#DejaVuSans-30" x="127.246094"/>
      </g>
     </g>
    </g>
    <g id="text_19">
     <!-- $\angle S_{21}$ [deg] -->
     <g transform="translate(14.8 274.592) rotate(-90) scale(0.1 -0.1)">
      <defs>
       <path id="DejaVuSans-2220" d="M 5028 631 
L 5028 0 
L 547 0 
L 3525 4666 
L 4281 4666 
L 1716 631 
L 5028 631 
z
" transform="scale(0.015625)"/>
       <path id="DejaVuSans-64" d="M 2906 2969 
L 2906 4863 
L 3481 4863 
L 3481 0 
L 2906 0 
L 2906 525 
Q 2725 213 2448 61 
Q 2172 -91 1784 -91 
Q 1150 -91 751 415 
Q 353 922 353 1747 
Q 353 2572 751 3078 
Q 1150 3584 1784 3584 
Q 2172 3584 2448 3432 
Q 2725 3281 2906 2969 
z
M 947 1747 
Q 947 1113 1208 752 
Q 1469 391 1925 391 
Q 2381 391 2643 752 
Q 2906 1113 2906 1747 
Q 2906 2381 2643 2742 
Q 2381 3103 1925 3103 
Q 1469 3103 1208 2742 
Q 947 2381 947 1747 
z
" transform="scale(0.015625)"/>
       <path id="DejaVuSans-67" d="M 2906 1791 
Q 2906 2416 2648 2759 
Q 2391 3103 1925 3103 
Q 1463 3103 1205 2759 
Q 947 2416 947 1791 
Q 947 1169 1205 825 
Q 1463 481 1925 481 
Q 2391 481 2648 825 
Q 2906 1169 2906 1791 
z
M 3481 434 
Q 3481 -459 3084 -895 
Q 2688 -1331 1869 -1331 
Q 1566 -1331 1297 -1286 
Q 1028 -1241 775 -1147 
L 775 -588 
Q 1028 -725 1275 -790 
Q 1522 -856 1778 -856 
Q 2344 -856 2625 -561 
Q 2906 -266 2906 331 
L 2906 616 
Q 2728 306 2450 153 
Q 2172 0 1784 0 
Q 1141 0 747 490 
Q 353 981 353 1791 
Q 353 2603 747 3093 
Q 1141 3584 1784 3584 
Q 2172 3584 2450 3431 
Q 2728 3278 2906 2969 
L 2906 3500 
L 3481 3500 
L 3481 434 
z
" transform="scale(0.015625)"/>
      </defs>
      <use xlink:href="#DejaVuSans-2220" transform="translate(0 0.015625)"/>
      <use xlink:href="#DejaVuSans-Oblique-53" transform="translate(89.648438 0.015625)"/>
      <use xlink:href="#DejaVuSans-32" transform="translate(153.125 -16.390625) scale(0.7)"/>
      <use xlink:href="#DejaVuSans-31" transform="translate(197.661133 -16.390625) scale(0.7)"/>
      <use xlink:href="#DejaVuSans-20" transform="translate(244.931641 0.015625)"/>
      <use xlink:href="#DejaVuSans-5b" transform="translate(276.71875 0.015625)"/>
      <use xlink:href="#DejaVuSans-64" transform="translate(315.732422 0.015625)"/>
      <use xlink:href="#DejaVuSans-65" transform="translate(379.208984 0.015625)"/>
      <use xlink:href="#DejaVuSans-67" transform="translate(440.732422 0.015625)"/>
      <use xlink:href="#DejaVuSans-5d" transform="translate(504.208984 0.015625)"/>
     </g>
    </g>
   </g>
   <g id="line2d_23">
    <path d="M 66.82804 301.710949 
L 70.0909 301.803459 
L 71.722329 302.15786 
L 73.353759 302.260162 
L 74.985189 192.449606 
L 78.248049 192.447878 
L 79.879479 192.862728 
L 81.510909 192.626881 
L 84.773768 193.185559 
L 86.405198 193.161723 
L 89.668058 193.477471 
L 91.299488 193.395768 
L 92.930918 193.621007 
L 94.562348 193.637515 
L 99.456637 194.227623 
L 101.088067 194.201907 
L 102.719497 194.590319 
L 107.613787 194.894861 
L 110.876646 195.254156 
L 112.508076 195.598134 
L 119.033796 196.090303 
L 120.665226 196.593638 
L 122.296656 196.461073 
L 123.928085 196.732941 
L 125.559515 197.187333 
L 127.190945 197.206438 
L 128.822375 197.510364 
L 130.453805 197.554311 
L 132.085235 197.885952 
L 133.716665 198.035817 
L 135.348095 198.423922 
L 136.979524 198.588139 
L 146.768104 200.386969 
L 151.662393 201.771291 
L 153.293823 201.991983 
L 154.925253 202.596986 
L 156.556683 202.698572 
L 161.450973 204.211009 
L 163.082402 204.637827 
L 164.713832 205.260779 
L 166.345262 205.74266 
L 167.976692 206.070817 
L 169.608122 206.926573 
L 171.239552 207.078751 
L 172.870982 207.912273 
L 174.502412 208.532663 
L 176.133842 209.008325 
L 181.028131 211.019163 
L 182.659561 211.872971 
L 184.290991 212.223047 
L 185.922421 212.748297 
L 187.553851 213.685963 
L 189.185281 214.095675 
L 190.81671 214.740345 
L 192.44814 215.082754 
L 194.07957 215.659518 
L 195.711 216.416253 
L 198.97386 216.987048 
L 200.60529 217.685103 
L 202.23672 217.854886 
L 203.868149 217.845124 
L 205.499579 217.220485 
L 207.131009 217.063078 
L 208.762439 217.980195 
L 210.393869 216.748481 
L 212.025299 214.349087 
L 213.656729 209.595511 
L 215.288159 208.498043 
L 216.919588 205.790213 
L 220.182448 196.690134 
L 221.813878 196.909361 
L 223.445308 194.185417 
L 225.076738 302.165896 
L 228.339598 299.881373 
L 229.971027 299.959895 
L 231.602457 298.936734 
L 233.233887 299.2177 
L 234.865317 299.269027 
L 236.496747 299.200625 
L 238.128177 298.579188 
L 239.759607 298.951329 
L 243.022466 298.630675 
L 244.653896 298.670472 
L 246.285326 298.902628 
L 247.916756 298.81015 
L 249.548186 299.389981 
L 251.179616 299.010559 
L 252.811046 299.527602 
L 254.442476 299.294249 
L 256.073905 299.554807 
L 257.705335 299.214665 
L 259.336765 299.780945 
L 260.968195 299.447925 
L 264.231055 299.970335 
L 265.862485 299.669731 
L 267.493915 300.209281 
L 269.125344 300.302059 
L 270.756774 300.18867 
L 272.388204 300.292974 
L 274.019634 300.76233 
L 275.651064 300.790928 
L 277.282494 301.085446 
L 282.176783 301.118455 
L 283.808213 301.293186 
L 285.439643 301.589989 
L 287.071073 301.364245 
L 288.702503 301.668619 
L 291.965363 301.996641 
L 293.596793 302.305147 
L 295.228223 302.175005 
L 298.491082 302.364547 
L 300.122512 192.548494 
L 305.016802 192.73542 
L 308.279662 193.014352 
L 309.911091 192.967552 
L 311.542521 193.200436 
L 313.173951 193.671106 
L 314.805381 193.322169 
L 318.068241 193.366499 
L 319.699671 193.578576 
L 321.331101 193.579452 
L 322.96253 193.958862 
L 326.22539 194.183728 
L 327.85682 193.88634 
L 332.75111 194.643382 
L 334.38254 194.453406 
L 336.013969 194.607197 
L 337.645399 194.633251 
L 342.539689 195.419224 
L 344.171119 195.142775 
L 347.433979 195.183855 
L 349.065408 195.182898 
L 350.696838 195.505253 
L 353.959698 195.520106 
L 355.591128 195.536103 
L 357.222558 196.113444 
L 358.853988 195.708981 
L 360.485418 196.014397 
L 362.116847 196.005345 
L 365.379707 196.415763 
L 368.642567 196.325413 
L 370.273997 196.549052 
L 373.536857 196.493461 
L 375.168286 196.880432 
L 376.799716 196.668059 
L 378.431146 196.6634 
L 384.956866 197.154833 
L 386.588296 197.046175 
L 388.219725 197.185904 
L 389.851155 197.463898 
L 391.482585 197.233703 
L 391.482585 197.233703 
" clip-path="url(#pf6f556f731)" style="fill: none; stroke: #1f77b4; stroke-width: 1.5; stroke-linecap: square"/>
    <g clip-path="url(#pf6f556f731)">
     <use xlink:href="#m25cf650f91" x="66.82804" y="301.710949" style="fill: #1f77b4; stroke: #1f77b4"/>
     <use xlink:href="#m25cf650f91" x="68.45947" y="301.748357" style="fill: #1f77b4; stroke: #1f77b4"/>
     <use xlink:href="#m25cf650f91" x="70.0909" y="301.803459" style="fill: #1f77b4; stroke: #1f77b4"/>
     <use xlink:href="#m25cf650f91" x="71.722329" y="302.15786" style="fill: #1f77b4; stroke: #1f77b4"/>
     <use xlink:href="#m25cf650f91" x="73.353759" y="302.260162" style="fill: #1f77b4; stroke: #1f77b4"/>
     <use xlink:href="#m25cf650f91" x="74.985189" y="192.449606" style="fill: #1f77b4; stroke: #1f77b4"/>
     <use xlink:href="#m25cf650f91" x="76.616619" y="192.466157" style="fill: #1f77b4; stroke: #1f77b4"/>
     <use xlink:href="#m25cf650f91" x="78.248049" y="192.447878" style="fill: #1f77b4; stroke: #1f77b4"/>
     <use xlink:href="#m25cf650f91" x="79.879479" y="192.862728" style="fill: #1f77b4; stroke: #1f77b4"/>
     <use xlink:href="#m25cf650f91" x="81.510909" y="192.626881" style="fill: #1f77b4; stroke: #1f77b4"/>
     <use xlink:href="#m25cf650f91" x="83.142339" y="192.90781" style="fill: #1f77b4; stroke: #1f77b4"/>
     <use xlink:href="#m25cf650f91" x="84.773768" y="193.185559" style="fill: #1f77b4; stroke: #1f77b4"/>
     <use xlink:href="#m25cf650f91" x="86.405198" y="193.161723" style="fill: #1f77b4; stroke: #1f77b4"/>
     <use xlink:href="#m25cf650f91" x="88.036628" y="193.335863" style="fill: #1f77b4; stroke: #1f77b4"/>
     <use xlink:href="#m25cf650f91" x="89.668058" y="193.477471" style="fill: #1f77b4; stroke: #1f77b4"/>
     <use xlink:href="#m25cf650f91" x="91.299488" y="193.395768" style="fill: #1f77b4; stroke: #1f77b4"/>
     <use xlink:href="#m25cf650f91" x="92.930918" y="193.621007" style="fill: #1f77b4; stroke: #1f77b4"/>
     <use xlink:href="#m25cf650f91" x="94.562348" y="193.637515" style="fill: #1f77b4; stroke: #1f77b4"/>
     <use xlink:href="#m25cf650f91" x="96.193778" y="193.829059" style="fill: #1f77b4; stroke: #1f77b4"/>
     <use xlink:href="#m25cf650f91" x="97.825207" y="194.108284" style="fill: #1f77b4; stroke: #1f77b4"/>
     <use xlink:href="#m25cf650f91" x="99.456637" y="194.227623" style="fill: #1f77b4; stroke: #1f77b4"/>
     <use xlink:href="#m25cf650f91" x="101.088067" y="194.201907" style="fill: #1f77b4; stroke: #1f77b4"/>
     <use xlink:href="#m25cf650f91" x="102.719497" y="194.590319" style="fill: #1f77b4; stroke: #1f77b4"/>
     <use xlink:href="#m25cf650f91" x="104.350927" y="194.660698" style="fill: #1f77b4; stroke: #1f77b4"/>
     <use xlink:href="#m25cf650f91" x="105.982357" y="194.82597" style="fill: #1f77b4; stroke: #1f77b4"/>
     <use xlink:href="#m25cf650f91" x="107.613787" y="194.894861" style="fill: #1f77b4; stroke: #1f77b4"/>
     <use xlink:href="#m25cf650f91" x="109.245217" y="195.059161" style="fill: #1f77b4; stroke: #1f77b4"/>
     <use xlink:href="#m25cf650f91" x="110.876646" y="195.254156" style="fill: #1f77b4; stroke: #1f77b4"/>
     <use xlink:href="#m25cf650f91" x="112.508076" y="195.598134" style="fill: #1f77b4; stroke: #1f77b4"/>
     <use xlink:href="#m25cf650f91" x="114.139506" y="195.736096" style="fill: #1f77b4; stroke: #1f77b4"/>
     <use xlink:href="#m25cf650f91" x="115.770936" y="195.942118" style="fill: #1f77b4; stroke: #1f77b4"/>
     <use xlink:href="#m25cf650f91" x="117.402366" y="196.019878" style="fill: #1f77b4; stroke: #1f77b4"/>
     <use xlink:href="#m25cf650f91" x="119.033796" y="196.090303" style="fill: #1f77b4; stroke: #1f77b4"/>
     <use xlink:href="#m25cf650f91" x="120.665226" y="196.593638" style="fill: #1f77b4; stroke: #1f77b4"/>
     <use xlink:href="#m25cf650f91" x="122.296656" y="196.461073" style="fill: #1f77b4; stroke: #1f77b4"/>
     <use xlink:href="#m25cf650f91" x="123.928085" y="196.732941" style="fill: #1f77b4; stroke: #1f77b4"/>
     <use xlink:href="#m25cf650f91" x="125.559515" y="197.187333" style="fill: #1f77b4; stroke: #1f77b4"/>
     <use xlink:href="#m25cf650f91" x="127.190945" y="197.206438" style="fill: #1f77b4; stroke: #1f77b4"/>
     <use xlink:href="#m25cf650f91" x="128.822375" y="197.510364" style="fill: #1f77b4; stroke: #1f77b4"/>
     <use xlink:href="#m25cf650f91" x="130.453805" y="197.554311" style="fill: #1f77b4; stroke: #1f77b4"/>
     <use xlink:href="#m25cf650f91" x="132.085235" y="197.885952" style="fill: #1f77b4; stroke: #1f77b4"/>
     <use xlink:href="#m25cf650f91" x="133.716665" y="198.035817" style="fill: #1f77b4; stroke: #1f77b4"/>
     <use xlink:href="#m25cf650f91" x="135.348095" y="198.423922" style="fill: #1f77b4; stroke: #1f77b4"/>
     <use xlink:href="#m25cf650f91" x="136.979524" y="198.588139" style="fill: #1f77b4; stroke: #1f77b4"/>
     <use xlink:href="#m25cf650f91" x="138.610954" y="198.88828" style="fill: #1f77b4; stroke: #1f77b4"/>
     <use xlink:href="#m25cf650f91" x="140.242384" y="199.178217" style="fill: #1f77b4; stroke: #1f77b4"/>
     <use xlink:href="#m25cf650f91" x="141.873814" y="199.579444" style="fill: #1f77b4; stroke: #1f77b4"/>
     <use xlink:href="#m25cf650f91" x="143.505244" y="199.837348" style="fill: #1f77b4; stroke: #1f77b4"/>
     <use xlink:href="#m25cf650f91" x="145.136674" y="200.112196" style="fill: #1f77b4; stroke: #1f77b4"/>
     <use xlink:href="#m25cf650f91" x="146.768104" y="200.386969" style="fill: #1f77b4; stroke: #1f77b4"/>
     <use xlink:href="#m25cf650f91" x="148.399534" y="200.88543" style="fill: #1f77b4; stroke: #1f77b4"/>
     <use xlink:href="#m25cf650f91" x="150.030963" y="201.377767" style="fill: #1f77b4; stroke: #1f77b4"/>
     <use xlink:href="#m25cf650f91" x="151.662393" y="201.771291" style="fill: #1f77b4; stroke: #1f77b4"/>
     <use xlink:href="#m25cf650f91" x="153.293823" y="201.991983" style="fill: #1f77b4; stroke: #1f77b4"/>
     <use xlink:href="#m25cf650f91" x="154.925253" y="202.596986" style="fill: #1f77b4; stroke: #1f77b4"/>
     <use xlink:href="#m25cf650f91" x="156.556683" y="202.698572" style="fill: #1f77b4; stroke: #1f77b4"/>
     <use xlink:href="#m25cf650f91" x="158.188113" y="203.23608" style="fill: #1f77b4; stroke: #1f77b4"/>
     <use xlink:href="#m25cf650f91" x="159.819543" y="203.786734" style="fill: #1f77b4; stroke: #1f77b4"/>
     <use xlink:href="#m25cf650f91" x="161.450973" y="204.211009" style="fill: #1f77b4; stroke: #1f77b4"/>
     <use xlink:href="#m25cf650f91" x="163.082402" y="204.637827" style="fill: #1f77b4; stroke: #1f77b4"/>
     <use xlink:href="#m25cf650f91" x="164.713832" y="205.260779" style="fill: #1f77b4; stroke: #1f77b4"/>
     <use xlink:href="#m25cf650f91" x="166.345262" y="205.74266" style="fill: #1f77b4; stroke: #1f77b4"/>
     <use xlink:href="#m25cf650f91" x="167.976692" y="206.070817" style="fill: #1f77b4; stroke: #1f77b4"/>
     <use xlink:href="#m25cf650f91" x="169.608122" y="206.926573" style="fill: #1f77b4; stroke: #1f77b4"/>
     <use xlink:href="#m25cf650f91" x="171.239552" y="207.078751" style="fill: #1f77b4; stroke: #1f77b4"/>
     <use xlink:href="#m25cf650f91" x="172.870982" y="207.912273" style="fill: #1f77b4; stroke: #1f77b4"/>
     <use xlink:href="#m25cf650f91" x="174.502412" y="208.532663" style="fill: #1f77b4; stroke: #1f77b4"/>
     <use xlink:href="#m25cf650f91" x="176.133842" y="209.008325" style="fill: #1f77b4; stroke: #1f77b4"/>
     <use xlink:href="#m25cf650f91" x="177.765271" y="209.681994" style="fill: #1f77b4; stroke: #1f77b4"/>
     <use xlink:href="#m25cf650f91" x="179.396701" y="210.254517" style="fill: #1f77b4; stroke: #1f77b4"/>
     <use xlink:href="#m25cf650f91" x="181.028131" y="211.019163" style="fill: #1f77b4; stroke: #1f77b4"/>
     <use xlink:href="#m25cf650f91" x="182.659561" y="211.872971" style="fill: #1f77b4; stroke: #1f77b4"/>
     <use xlink:href="#m25cf650f91" x="184.290991" y="212.223047" style="fill: #1f77b4; stroke: #1f77b4"/>
     <use xlink:href="#m25cf650f91" x="185.922421" y="212.748297" style="fill: #1f77b4; stroke: #1f77b4"/>
     <use xlink:href="#m25cf650f91" x="187.553851" y="213.685963" style="fill: #1f77b4; stroke: #1f77b4"/>
     <use xlink:href="#m25cf650f91" x="189.185281" y="214.095675" style="fill: #1f77b4; stroke: #1f77b4"/>
     <use xlink:href="#m25cf650f91" x="190.81671" y="214.740345" style="fill: #1f77b4; stroke: #1f77b4"/>
     <use xlink:href="#m25cf650f91" x="192.44814" y="215.082754" style="fill: #1f77b4; stroke: #1f77b4"/>
     <use xlink:href="#m25cf650f91" x="194.07957" y="215.659518" style="fill: #1f77b4; stroke: #1f77b4"/>
     <use xlink:href="#m25cf650f91" x="195.711" y="216.416253" style="fill: #1f77b4; stroke: #1f77b4"/>
     <use xlink:href="#m25cf650f91" x="197.34243" y="216.668213" style="fill: #1f77b4; stroke: #1f77b4"/>
     <use xlink:href="#m25cf650f91" x="198.97386" y="216.987048" style="fill: #1f77b4; stroke: #1f77b4"/>
     <use xlink:href="#m25cf650f91" x="200.60529" y="217.685103" style="fill: #1f77b4; stroke: #1f77b4"/>
     <use xlink:href="#m25cf650f91" x="202.23672" y="217.854886" style="fill: #1f77b4; stroke: #1f77b4"/>
     <use xlink:href="#m25cf650f91" x="203.868149" y="217.845124" style="fill: #1f77b4; stroke: #1f77b4"/>
     <use xlink:href="#m25cf650f91" x="205.499579" y="217.220485" style="fill: #1f77b4; stroke: #1f77b4"/>
     <use xlink:href="#m25cf650f91" x="207.131009" y="217.063078" style="fill: #1f77b4; stroke: #1f77b4"/>
     <use xlink:href="#m25cf650f91" x="208.762439" y="217.980195" style="fill: #1f77b4; stroke: #1f77b4"/>
     <use xlink:href="#m25cf650f91" x="210.393869" y="216.748481" style="fill: #1f77b4; stroke: #1f77b4"/>
     <use xlink:href="#m25cf650f91" x="212.025299" y="214.349087" style="fill: #1f77b4; stroke: #1f77b4"/>
     <use xlink:href="#m25cf650f91" x="213.656729" y="209.595511" style="fill: #1f77b4; stroke: #1f77b4"/>
     <use xlink:href="#m25cf650f91" x="215.288159" y="208.498043" style="fill: #1f77b4; stroke: #1f77b4"/>
     <use xlink:href="#m25cf650f91" x="216.919588" y="205.790213" style="fill: #1f77b4; stroke: #1f77b4"/>
     <use xlink:href="#m25cf650f91" x="218.551018" y="201.139005" style="fill: #1f77b4; stroke: #1f77b4"/>
     <use xlink:href="#m25cf650f91" x="220.182448" y="196.690134" style="fill: #1f77b4; stroke: #1f77b4"/>
     <use xlink:href="#m25cf650f91" x="221.813878" y="196.909361" style="fill: #1f77b4; stroke: #1f77b4"/>
     <use xlink:href="#m25cf650f91" x="223.445308" y="194.185417" style="fill: #1f77b4; stroke: #1f77b4"/>
     <use xlink:href="#m25cf650f91" x="225.076738" y="302.165896" style="fill: #1f77b4; stroke: #1f77b4"/>
     <use xlink:href="#m25cf650f91" x="226.708168" y="301.082603" style="fill: #1f77b4; stroke: #1f77b4"/>
     <use xlink:href="#m25cf650f91" x="228.339598" y="299.881373" style="fill: #1f77b4; stroke: #1f77b4"/>
     <use xlink:href="#m25cf650f91" x="229.971027" y="299.959895" style="fill: #1f77b4; stroke: #1f77b4"/>
     <use xlink:href="#m25cf650f91" x="231.602457" y="298.936734" style="fill: #1f77b4; stroke: #1f77b4"/>
     <use xlink:href="#m25cf650f91" x="233.233887" y="299.2177" style="fill: #1f77b4; stroke: #1f77b4"/>
     <use xlink:href="#m25cf650f91" x="234.865317" y="299.269027" style="fill: #1f77b4; stroke: #1f77b4"/>
     <use xlink:href="#m25cf650f91" x="236.496747" y="299.200625" style="fill: #1f77b4; stroke: #1f77b4"/>
     <use xlink:href="#m25cf650f91" x="238.128177" y="298.579188" style="fill: #1f77b4; stroke: #1f77b4"/>
     <use xlink:href="#m25cf650f91" x="239.759607" y="298.951329" style="fill: #1f77b4; stroke: #1f77b4"/>
     <use xlink:href="#m25cf650f91" x="241.391037" y="298.749412" style="fill: #1f77b4; stroke: #1f77b4"/>
     <use xlink:href="#m25cf650f91" x="243.022466" y="298.630675" style="fill: #1f77b4; stroke: #1f77b4"/>
     <use xlink:href="#m25cf650f91" x="244.653896" y="298.670472" style="fill: #1f77b4; stroke: #1f77b4"/>
     <use xlink:href="#m25cf650f91" x="246.285326" y="298.902628" style="fill: #1f77b4; stroke: #1f77b4"/>
     <use xlink:href="#m25cf650f91" x="247.916756" y="298.81015" style="fill: #1f77b4; stroke: #1f77b4"/>
     <use xlink:href="#m25cf650f91" x="249.548186" y="299.389981" style="fill: #1f77b4; stroke: #1f77b4"/>
     <use xlink:href="#m25cf650f91" x="251.179616" y="299.010559" style="fill: #1f77b4; stroke: #1f77b4"/>
     <use xlink:href="#m25cf650f91" x="252.811046" y="299.527602" style="fill: #1f77b4; stroke: #1f77b4"/>
     <use xlink:href="#m25cf650f91" x="254.442476" y="299.294249" style="fill: #1f77b4; stroke: #1f77b4"/>
     <use xlink:href="#m25cf650f91" x="256.073905" y="299.554807" style="fill: #1f77b4; stroke: #1f77b4"/>
     <use xlink:href="#m25cf650f91" x="257.705335" y="299.214665" style="fill: #1f77b4; stroke: #1f77b4"/>
     <use xlink:href="#m25cf650f91" x="259.336765" y="299.780945" style="fill: #1f77b4; stroke: #1f77b4"/>
     <use xlink:href="#m25cf650f91" x="260.968195" y="299.447925" style="fill: #1f77b4; stroke: #1f77b4"/>
     <use xlink:href="#m25cf650f91" x="262.599625" y="299.741797" style="fill: #1f77b4; stroke: #1f77b4"/>
     <use xlink:href="#m25cf650f91" x="264.231055" y="299.970335" style="fill: #1f77b4; stroke: #1f77b4"/>
     <use xlink:href="#m25cf650f91" x="265.862485" y="299.669731" style="fill: #1f77b4; stroke: #1f77b4"/>
     <use xlink:href="#m25cf650f91" x="267.493915" y="300.209281" style="fill: #1f77b4; stroke: #1f77b4"/>
     <use xlink:href="#m25cf650f91" x="269.125344" y="300.302059" style="fill: #1f77b4; stroke: #1f77b4"/>
     <use xlink:href="#m25cf650f91" x="270.756774" y="300.18867" style="fill: #1f77b4; stroke: #1f77b4"/>
     <use xlink:href="#m25cf650f91" x="272.388204" y="300.292974" style="fill: #1f77b4; stroke: #1f77b4"/>
     <use xlink:href="#m25cf650f91" x="274.019634" y="300.76233" style="fill: #1f77b4; stroke: #1f77b4"/>
     <use xlink:href="#m25cf650f91" x="275.651064" y="300.790928" style="fill: #1f77b4; stroke: #1f77b4"/>
     <use xlink:href="#m25cf650f91" x="277.282494" y="301.085446" style="fill: #1f77b4; stroke: #1f77b4"/>
     <use xlink:href="#m25cf650f91" x="278.913924" y="301.07585" style="fill: #1f77b4; stroke: #1f77b4"/>
     <use xlink:href="#m25cf650f91" x="280.545354" y="301.048023" style="fill: #1f77b4; stroke: #1f77b4"/>
     <use xlink:href="#m25cf650f91" x="282.176783" y="301.118455" style="fill: #1f77b4; stroke: #1f77b4"/>
     <use xlink:href="#m25cf650f91" x="283.808213" y="301.293186" style="fill: #1f77b4; stroke: #1f77b4"/>
     <use xlink:href="#m25cf650f91" x="285.439643" y="301.589989" style="fill: #1f77b4; stroke: #1f77b4"/>
     <use xlink:href="#m25cf650f91" x="287.071073" y="301.364245" style="fill: #1f77b4; stroke: #1f77b4"/>
     <use xlink:href="#m25cf650f91" x="288.702503" y="301.668619" style="fill: #1f77b4; stroke: #1f77b4"/>
     <use xlink:href="#m25cf650f91" x="290.333933" y="301.837032" style="fill: #1f77b4; stroke: #1f77b4"/>
     <use xlink:href="#m25cf650f91" x="291.965363" y="301.996641" style="fill: #1f77b4; stroke: #1f77b4"/>
     <use xlink:href="#m25cf650f91" x="293.596793" y="302.305147" style="fill: #1f77b4; stroke: #1f77b4"/>
     <use xlink:href="#m25cf650f91" x="295.228223" y="302.175005" style="fill: #1f77b4; stroke: #1f77b4"/>
     <use xlink:href="#m25cf650f91" x="296.859652" y="302.261031" style="fill: #1f77b4; stroke: #1f77b4"/>
     <use xlink:href="#m25cf650f91" x="298.491082" y="302.364547" style="fill: #1f77b4; stroke: #1f77b4"/>
     <use xlink:href="#m25cf650f91" x="300.122512" y="192.548494" style="fill: #1f77b4; stroke: #1f77b4"/>
     <use xlink:href="#m25cf650f91" x="301.753942" y="192.5813" style="fill: #1f77b4; stroke: #1f77b4"/>
     <use xlink:href="#m25cf650f91" x="303.385372" y="192.606011" style="fill: #1f77b4; stroke: #1f77b4"/>
     <use xlink:href="#m25cf650f91" x="305.016802" y="192.73542" style="fill: #1f77b4; stroke: #1f77b4"/>
     <use xlink:href="#m25cf650f91" x="306.648232" y="192.88445" style="fill: #1f77b4; stroke: #1f77b4"/>
     <use xlink:href="#m25cf650f91" x="308.279662" y="193.014352" style="fill: #1f77b4; stroke: #1f77b4"/>
     <use xlink:href="#m25cf650f91" x="309.911091" y="192.967552" style="fill: #1f77b4; stroke: #1f77b4"/>
     <use xlink:href="#m25cf650f91" x="311.542521" y="193.200436" style="fill: #1f77b4; stroke: #1f77b4"/>
     <use xlink:href="#m25cf650f91" x="313.173951" y="193.671106" style="fill: #1f77b4; stroke: #1f77b4"/>
     <use xlink:href="#m25cf650f91" x="314.805381" y="193.322169" style="fill: #1f77b4; stroke: #1f77b4"/>
     <use xlink:href="#m25cf650f91" x="316.436811" y="193.34881" style="fill: #1f77b4; stroke: #1f77b4"/>
     <use xlink:href="#m25cf650f91" x="318.068241" y="193.366499" style="fill: #1f77b4; stroke: #1f77b4"/>
     <use xlink:href="#m25cf650f91" x="319.699671" y="193.578576" style="fill: #1f77b4; stroke: #1f77b4"/>
     <use xlink:href="#m25cf650f91" x="321.331101" y="193.579452" style="fill: #1f77b4; stroke: #1f77b4"/>
     <use xlink:href="#m25cf650f91" x="322.96253" y="193.958862" style="fill: #1f77b4; stroke: #1f77b4"/>
     <use xlink:href="#m25cf650f91" x="324.59396" y="194.098452" style="fill: #1f77b4; stroke: #1f77b4"/>
     <use xlink:href="#m25cf650f91" x="326.22539" y="194.183728" style="fill: #1f77b4; stroke: #1f77b4"/>
     <use xlink:href="#m25cf650f91" x="327.85682" y="193.88634" style="fill: #1f77b4; stroke: #1f77b4"/>
     <use xlink:href="#m25cf650f91" x="329.48825" y="194.110658" style="fill: #1f77b4; stroke: #1f77b4"/>
     <use xlink:href="#m25cf650f91" x="331.11968" y="194.339384" style="fill: #1f77b4; stroke: #1f77b4"/>
     <use xlink:href="#m25cf650f91" x="332.75111" y="194.643382" style="fill: #1f77b4; stroke: #1f77b4"/>
     <use xlink:href="#m25cf650f91" x="334.38254" y="194.453406" style="fill: #1f77b4; stroke: #1f77b4"/>
     <use xlink:href="#m25cf650f91" x="336.013969" y="194.607197" style="fill: #1f77b4; stroke: #1f77b4"/>
     <use xlink:href="#m25cf650f91" x="337.645399" y="194.633251" style="fill: #1f77b4; stroke: #1f77b4"/>
     <use xlink:href="#m25cf650f91" x="339.276829" y="194.862738" style="fill: #1f77b4; stroke: #1f77b4"/>
     <use xlink:href="#m25cf650f91" x="340.908259" y="194.991982" style="fill: #1f77b4; stroke: #1f77b4"/>
     <use xlink:href="#m25cf650f91" x="342.539689" y="195.419224" style="fill: #1f77b4; stroke: #1f77b4"/>
     <use xlink:href="#m25cf650f91" x="344.171119" y="195.142775" style="fill: #1f77b4; stroke: #1f77b4"/>
     <use xlink:href="#m25cf650f91" x="345.802549" y="195.111015" style="fill: #1f77b4; stroke: #1f77b4"/>
     <use xlink:href="#m25cf650f91" x="347.433979" y="195.183855" style="fill: #1f77b4; stroke: #1f77b4"/>
     <use xlink:href="#m25cf650f91" x="349.065408" y="195.182898" style="fill: #1f77b4; stroke: #1f77b4"/>
     <use xlink:href="#m25cf650f91" x="350.696838" y="195.505253" style="fill: #1f77b4; stroke: #1f77b4"/>
     <use xlink:href="#m25cf650f91" x="352.328268" y="195.559679" style="fill: #1f77b4; stroke: #1f77b4"/>
     <use xlink:href="#m25cf650f91" x="353.959698" y="195.520106" style="fill: #1f77b4; stroke: #1f77b4"/>
     <use xlink:href="#m25cf650f91" x="355.591128" y="195.536103" style="fill: #1f77b4; stroke: #1f77b4"/>
     <use xlink:href="#m25cf650f91" x="357.222558" y="196.113444" style="fill: #1f77b4; stroke: #1f77b4"/>
     <use xlink:href="#m25cf650f91" x="358.853988" y="195.708981" style="fill: #1f77b4; stroke: #1f77b4"/>
     <use xlink:href="#m25cf650f91" x="360.485418" y="196.014397" style="fill: #1f77b4; stroke: #1f77b4"/>
     <use xlink:href="#m25cf650f91" x="362.116847" y="196.005345" style="fill: #1f77b4; stroke: #1f77b4"/>
     <use xlink:href="#m25cf650f91" x="363.748277" y="196.20535" style="fill: #1f77b4; stroke: #1f77b4"/>
     <use xlink:href="#m25cf650f91" x="365.379707" y="196.415763" style="fill: #1f77b4; stroke: #1f77b4"/>
     <use xlink:href="#m25cf650f91" x="367.011137" y="196.326615" style="fill: #1f77b4; stroke: #1f77b4"/>
     <use xlink:href="#m25cf650f91" x="368.642567" y="196.325413" style="fill: #1f77b4; stroke: #1f77b4"/>
     <use xlink:href="#m25cf650f91" x="370.273997" y="196.549052" style="fill: #1f77b4; stroke: #1f77b4"/>
     <use xlink:href="#m25cf650f91" x="371.905427" y="196.502208" style="fill: #1f77b4; stroke: #1f77b4"/>
     <use xlink:href="#m25cf650f91" x="373.536857" y="196.493461" style="fill: #1f77b4; stroke: #1f77b4"/>
     <use xlink:href="#m25cf650f91" x="375.168286" y="196.880432" style="fill: #1f77b4; stroke: #1f77b4"/>
     <use xlink:href="#m25cf650f91" x="376.799716" y="196.668059" style="fill: #1f77b4; stroke: #1f77b4"/>
     <use xlink:href="#m25cf650f91" x="378.431146" y="196.6634" style="fill: #1f77b4; stroke: #1f77b4"/>
     <use xlink:href="#m25cf650f91" x="380.062576" y="196.811466" style="fill: #1f77b4; stroke: #1f77b4"/>
     <use xlink:href="#m25cf650f91" x="381.694006" y="196.905283" style="fill: #1f77b4; stroke: #1f77b4"/>
     <use xlink:href="#m25cf650f91" x="383.325436" y="197.131062" style="fill: #1f77b4; stroke: #1f77b4"/>
     <use xlink:href="#m25cf650f91" x="384.956866" y="197.154833" style="fill: #1f77b4; stroke: #1f77b4"/>
     <use xlink:href="#m25cf650f91" x="386.588296" y="197.046175" style="fill: #1f77b4; stroke: #1f77b4"/>
     <use xlink:href="#m25cf650f91" x="388.219725" y="197.185904" style="fill: #1f77b4; stroke: #1f77b4"/>
     <use xlink:href="#m25cf650f91" x="389.851155" y="197.463898" style="fill: #1f77b4; stroke: #1f77b4"/>
     <use xlink:href="#m25cf650f91" x="391.482585" y="197.233703" style="fill: #1f77b4; stroke: #1f77b4"/>
    </g>
   </g>
   <g id="line2d_24">
    <path d="M 66.82804 301.694569 
L 76.252446 302.364079 
L 76.577426 192.410182 
L 94.776279 193.864581 
L 109.400358 195.249599 
L 121.4246 196.605076 
L 131.498965 197.95721 
L 140.273412 199.357341 
L 147.747941 200.767107 
L 154.572512 202.276997 
L 160.747122 203.866416 
L 166.596754 205.598204 
L 172.446385 207.564734 
L 178.945976 210.002069 
L 193.570055 215.624241 
L 196.81985 216.575476 
L 199.419686 217.126861 
L 201.694543 217.388044 
L 203.64442 217.385989 
L 205.269317 217.172389 
L 206.894215 216.707279 
L 208.194133 216.104899 
L 209.494051 215.246712 
L 210.793969 214.077562 
L 212.093887 212.541418 
L 213.393806 210.598056 
L 214.693724 208.25313 
L 216.643601 204.197382 
L 219.243437 198.813826 
L 220.868335 196.035965 
L 222.168253 194.242936 
L 223.468171 192.805796 
L 223.79315 192.496181 
L 224.11813 302.182486 
L 225.418048 301.179507 
L 227.042946 300.231885 
L 228.667843 299.544161 
L 230.61772 298.970174 
L 232.892577 298.546545 
L 235.817393 298.26254 
L 239.392168 298.165271 
L 244.26686 298.283588 
L 251.41641 298.708739 
L 266.365468 299.881129 
L 292.36383 301.8743 
L 299.51338 302.373818 
L 299.838359 192.418198 
L 325.186762 194.037466 
L 356.384797 195.796556 
L 391.482585 197.58137 
L 391.482585 197.58137 
" clip-path="url(#pf6f556f731)" style="fill: none; stroke: #d62728; stroke-width: 1.5; stroke-linecap: square"/>
   </g>
   <g id="patch_9">
    <path d="M 50.595313 307.872 
L 50.595313 186.912 
" style="fill: none; stroke: #000000; stroke-width: 0.8; stroke-linejoin: miter; stroke-linecap: square"/>
   </g>
   <g id="patch_10">
    <path d="M 407.715312 307.872 
L 407.715312 186.912 
" style="fill: none; stroke: #000000; stroke-width: 0.8; stroke-linejoin: miter; stroke-linecap: square"/>
   </g>
   <g id="patch_11">
    <path d="M 50.595312 307.872 
L 407.715312 307.872 
" style="fill: none; stroke: #000000; stroke-width: 0.8; stroke-linejoin: miter; stroke-linecap: square"/>
   </g>
   <g id="patch_12">
    <path d="M 50.595312 186.912 
L 407.715312 186.912 
" style="fill: none; stroke: #000000; stroke-width: 0.8; stroke-linejoin: miter; stroke-linecap: square"/>
   </g>
  </g>
  <g id="text_20">
   <!-- S21 resonator spectroscopy -->
   <g transform="translate(139.610938 16.318125) scale(0.12 -0.12)">
    <defs>
     <path id="DejaVuSans-73" d="M 2834 3397 
L 2834 2853 
Q 2591 2978 2328 3040 
Q 2066 3103 1784 3103 
Q 1356 3103 1142 2972 
Q 928 2841 928 2578 
Q 928 2378 1081 2264 
Q 1234 2150 1697 2047 
L 1894 2003 
Q 2506 1872 2764 1633 
Q 3022 1394 3022 966 
Q 3022 478 2636 193 
Q 2250 -91 1575 -91 
Q 1294 -91 989 -36 
Q 684 19 347 128 
L 347 722 
Q 666 556 975 473 
Q 1284 391 1588 391 
Q 1994 391 2212 530 
Q 2431 669 2431 922 
Q 2431 1156 2273 1281 
Q 2116 1406 1581 1522 
L 1381 1569 
Q 847 1681 609 1914 
Q 372 2147 372 2553 
Q 372 3047 722 3315 
Q 1072 3584 1716 3584 
Q 2034 3584 2315 3537 
Q 2597 3491 2834 3397 
z
" transform="scale(0.015625)"/>
     <path id="DejaVuSans-6f" d="M 1959 3097 
Q 1497 3097 1228 2736 
Q 959 2375 959 1747 
Q 959 1119 1226 758 
Q 1494 397 1959 397 
Q 2419 397 2687 759 
Q 2956 1122 2956 1747 
Q 2956 2369 2687 2733 
Q 2419 3097 1959 3097 
z
M 1959 3584 
Q 2709 3584 3137 3096 
Q 3566 2609 3566 1747 
Q 3566 888 3137 398 
Q 2709 -91 1959 -91 
Q 1206 -91 779 398 
Q 353 888 353 1747 
Q 353 2609 779 3096 
Q 1206 3584 1959 3584 
z
" transform="scale(0.015625)"/>
     <path id="DejaVuSans-74" d="M 1172 4494 
L 1172 3500 
L 2356 3500 
L 2356 3053 
L 1172 3053 
L 1172 1153 
Q 1172 725 1289 603 
Q 1406 481 1766 481 
L 2356 481 
L 2356 0 
L 1766 0 
Q 1100 0 847 248 
Q 594 497 594 1153 
L 594 3053 
L 172 3053 
L 172 3500 
L 594 3500 
L 594 4494 
L 1172 4494 
z
" transform="scale(0.015625)"/>
     <path id="DejaVuSans-70" d="M 1159 525 
L 1159 -1331 
L 581 -1331 
L 581 3500 
L 1159 3500 
L 1159 2969 
Q 1341 3281 1617 3432 
Q 1894 3584 2278 3584 
Q 2916 3584 3314 3078 
Q 3713 2572 3713 1747 
Q 3713 922 3314 415 
Q 2916 -91 2278 -91 
Q 1894 -91 1617 61 
Q 1341 213 1159 525 
z
M 3116 1747 
Q 3116 2381 2855 2742 
Q 2594 3103 2138 3103 
Q 1681 3103 1420 2742 
Q 1159 2381 1159 1747 
Q 1159 1113 1420 752 
Q 1681 391 2138 391 
Q 2594 391 2855 752 
Q 3116 1113 3116 1747 
z
" transform="scale(0.015625)"/>
    </defs>
    <use xlink:href="#DejaVuSans-53"/>
    <use xlink:href="#DejaVuSans-32" x="63.476562"/>
    <use xlink:href="#DejaVuSans-31" x="127.099609"/>
    <use xlink:href="#DejaVuSans-20" x="190.722656"/>
    <use xlink:href="#DejaVuSans-72" x="222.509766"/>
    <use xlink:href="#DejaVuSans-65" x="261.373047"/>
    <use xlink:href="#DejaVuSans-73" x="322.896484"/>
    <use xlink:href="#DejaVuSans-6f" x="374.996094"/>
    <use xlink:href="#DejaVuSans-6e" x="436.177734"/>
    <use xlink:href="#DejaVuSans-61" x="499.556641"/>
    <use xlink:href="#DejaVuSans-74" x="560.835938"/>
    <use xlink:href="#DejaVuSans-6f" x="600.044922"/>
    <use xlink:href="#DejaVuSans-72" x="661.226562"/>
    <use xlink:href="#DejaVuSans-20" x="702.339844"/>
    <use xlink:href="#DejaVuSans-73" x="734.126953"/>
    <use xlink:href="#DejaVuSans-70" x="786.226562"/>
    <use xlink:href="#DejaVuSans-65" x="849.703125"/>
    <use xlink:href="#DejaVuSans-63" x="911.226562"/>
    <use xlink:href="#DejaVuSans-74" x="966.207031"/>
    <use xlink:href="#DejaVuSans-72" x="1005.416016"/>
    <use xlink:href="#DejaVuSans-6f" x="1044.279297"/>
    <use xlink:href="#DejaVuSans-73" x="1105.460938"/>
    <use xlink:href="#DejaVuSans-63" x="1157.560547"/>
    <use xlink:href="#DejaVuSans-6f" x="1212.541016"/>
    <use xlink:href="#DejaVuSans-70" x="1273.722656"/>
    <use xlink:href="#DejaVuSans-79" x="1337.199219"/>
   </g>
   <!-- tuid: 20240102-135537-110-4aabd7 -->
   <g transform="translate(113.838125 29.7555) scale(0.12 -0.12)">
    <defs>
     <path id="DejaVuSans-69" d="M 603 3500 
L 1178 3500 
L 1178 0 
L 603 0 
L 603 3500 
z
M 603 4863 
L 1178 4863 
L 1178 4134 
L 603 4134 
L 603 4863 
z
" transform="scale(0.015625)"/>
     <path id="DejaVuSans-62" d="M 3116 1747 
Q 3116 2381 2855 2742 
Q 2594 3103 2138 3103 
Q 1681 3103 1420 2742 
Q 1159 2381 1159 1747 
Q 1159 1113 1420 752 
Q 1681 391 2138 391 
Q 2594 391 2855 752 
Q 3116 1113 3116 1747 
z
M 1159 2969 
Q 1341 3281 1617 3432 
Q 1894 3584 2278 3584 
Q 2916 3584 3314 3078 
Q 3713 2572 3713 1747 
Q 3713 922 3314 415 
Q 2916 -91 2278 -91 
Q 1894 -91 1617 61 
Q 1341 213 1159 525 
L 1159 0 
L 581 0 
L 581 4863 
L 1159 4863 
L 1159 2969 
z
" transform="scale(0.015625)"/>
    </defs>
    <use xlink:href="#DejaVuSans-74"/>
    <use xlink:href="#DejaVuSans-75" x="39.208984"/>
    <use xlink:href="#DejaVuSans-69" x="102.587891"/>
    <use xlink:href="#DejaVuSans-64" x="130.371094"/>
    <use xlink:href="#DejaVuSans-3a" x="193.847656"/>
    <use xlink:href="#DejaVuSans-20" x="227.539062"/>
    <use xlink:href="#DejaVuSans-32" x="259.326172"/>
    <use xlink:href="#DejaVuSans-30" x="322.949219"/>
    <use xlink:href="#DejaVuSans-32" x="386.572266"/>
    <use xlink:href="#DejaVuSans-34" x="450.195312"/>
    <use xlink:href="#DejaVuSans-30" x="513.818359"/>
    <use xlink:href="#DejaVuSans-31" x="577.441406"/>
    <use xlink:href="#DejaVuSans-30" x="641.064453"/>
    <use xlink:href="#DejaVuSans-32" x="704.6875"/>
    <use xlink:href="#DejaVuSans-2d" x="768.310547"/>
    <use xlink:href="#DejaVuSans-31" x="804.394531"/>
    <use xlink:href="#DejaVuSans-33" x="868.017578"/>
    <use xlink:href="#DejaVuSans-35" x="931.640625"/>
    <use xlink:href="#DejaVuSans-35" x="995.263672"/>
    <use xlink:href="#DejaVuSans-33" x="1058.886719"/>
    <use xlink:href="#DejaVuSans-37" x="1122.509766"/>
    <use xlink:href="#DejaVuSans-2d" x="1186.132812"/>
    <use xlink:href="#DejaVuSans-31" x="1222.216797"/>
    <use xlink:href="#DejaVuSans-31" x="1285.839844"/>
    <use xlink:href="#DejaVuSans-30" x="1349.462891"/>
    <use xlink:href="#DejaVuSans-2d" x="1413.085938"/>
    <use xlink:href="#DejaVuSans-34" x="1449.169922"/>
    <use xlink:href="#DejaVuSans-61" x="1512.792969"/>
    <use xlink:href="#DejaVuSans-61" x="1574.072266"/>
    <use xlink:href="#DejaVuSans-62" x="1635.351562"/>
    <use xlink:href="#DejaVuSans-64" x="1698.828125"/>
    <use xlink:href="#DejaVuSans-37" x="1762.304688"/>
   </g>
  </g>
 </g>
 <defs>
  <clipPath id="p9e76b1ab15">
   <rect x="50.595313" y="41.76" width="357.12" height="120.96"/>
  </clipPath>
  <clipPath id="pf6f556f731">
   <rect x="50.595313" y="186.912" width="357.12" height="120.96"/>
  </clipPath>
 </defs>
</svg>
