<?xml version="1.0" encoding="utf-8" standalone="no"?>
<!DOCTYPE svg PUBLIC "-//W3C//DTD SVG 1.1//EN"
  "http://www.w3.org/Graphics/SVG/1.1/DTD/svg11.dtd">
<svg xmlns:xlink="http://www.w3.org/1999/xlink" width="539.565062pt" height="345.42825pt" viewBox="0 0 539.565062 345.42825" xmlns="http://www.w3.org/2000/svg" version="1.1">
 <metadata>
  <rdf:RDF xmlns:dc="http://purl.org/dc/elements/1.1/" xmlns:cc="http://creativecommons.org/ns#" xmlns:rdf="http://www.w3.org/1999/02/22-rdf-syntax-ns#">
   <cc:Work>
    <dc:type rdf:resource="http://purl.org/dc/dcmitype/StillImage"/>
    <dc:date>2023-12-25T13:52:52.112143</dc:date>
    <dc:format>image/svg+xml</dc:format>
    <dc:creator>
     <cc:Agent>
      <dc:title>Matplotlib v3.8.1, https://matplotlib.org/</dc:title>
     </cc:Agent>
    </dc:creator>
   </cc:Work>
  </rdf:RDF>
 </metadata>
 <defs>
  <style type="text/css">*{stroke-linejoin: round; stroke-linecap: butt}</style>
 </defs>
 <g id="figure_1">
  <g id="patch_1">
   <path d="M 0 345.42825 
L 539.565062 345.42825 
L 539.565062 -0 
L 0 -0 
L 0 345.42825 
z
" style="fill: none; opacity: 0"/>
  </g>
  <g id="axes_1">
   <g id="patch_2">
    <path d="M 47.389063 307.872 
L 404.509063 307.872 
L 404.509063 41.76 
L 47.389063 41.76 
z
" style="fill: #ffffff"/>
   </g>
   <g id="matplotlib.axis_1">
    <g id="xtick_1">
     <g id="line2d_1">
      <defs>
       <path id="m3ccd192b8d" d="M 0 0 
L 0 3.5 
" style="stroke: #000000; stroke-width: 0.8"/>
      </defs>
      <g>
       <use xlink:href="#m3ccd192b8d" x="48.831837" y="307.872" style="stroke: #000000; stroke-width: 0.8"/>
      </g>
     </g>
     <g id="text_1">
      <!-- -8 -->
      <g transform="translate(43.846681 322.470438) scale(0.1 -0.1)">
       <defs>
        <path id="DejaVuSans-2d" d="M 313 2009 
L 1997 2009 
L 1997 1497 
L 313 1497 
L 313 2009 
z
" transform="scale(0.015625)"/>
        <path id="DejaVuSans-38" d="M 2034 2216 
Q 1584 2216 1326 1975 
Q 1069 1734 1069 1313 
Q 1069 891 1326 650 
Q 1584 409 2034 409 
Q 2484 409 2743 651 
Q 3003 894 3003 1313 
Q 3003 1734 2745 1975 
Q 2488 2216 2034 2216 
z
M 1403 2484 
Q 997 2584 770 2862 
Q 544 3141 544 3541 
Q 544 4100 942 4425 
Q 1341 4750 2034 4750 
Q 2731 4750 3128 4425 
Q 3525 4100 3525 3541 
Q 3525 3141 3298 2862 
Q 3072 2584 2669 2484 
Q 3125 2378 3379 2068 
Q 3634 1759 3634 1313 
Q 3634 634 3220 271 
Q 2806 -91 2034 -91 
Q 1263 -91 848 271 
Q 434 634 434 1313 
Q 434 1759 690 2068 
Q 947 2378 1403 2484 
z
M 1172 3481 
Q 1172 3119 1398 2916 
Q 1625 2713 2034 2713 
Q 2441 2713 2670 2916 
Q 2900 3119 2900 3481 
Q 2900 3844 2670 4047 
Q 2441 4250 2034 4250 
Q 1625 4250 1398 4047 
Q 1172 3844 1172 3481 
z
" transform="scale(0.015625)"/>
       </defs>
       <use xlink:href="#DejaVuSans-2d"/>
       <use xlink:href="#DejaVuSans-38" x="36.083984"/>
      </g>
     </g>
    </g>
    <g id="xtick_2">
     <g id="line2d_2">
      <g>
       <use xlink:href="#m3ccd192b8d" x="89.460904" y="307.872" style="stroke: #000000; stroke-width: 0.8"/>
      </g>
     </g>
     <g id="text_2">
      <!-- -6 -->
      <g transform="translate(84.475747 322.470438) scale(0.1 -0.1)">
       <defs>
        <path id="DejaVuSans-36" d="M 2113 2584 
Q 1688 2584 1439 2293 
Q 1191 2003 1191 1497 
Q 1191 994 1439 701 
Q 1688 409 2113 409 
Q 2538 409 2786 701 
Q 3034 994 3034 1497 
Q 3034 2003 2786 2293 
Q 2538 2584 2113 2584 
z
M 3366 4563 
L 3366 3988 
Q 3128 4100 2886 4159 
Q 2644 4219 2406 4219 
Q 1781 4219 1451 3797 
Q 1122 3375 1075 2522 
Q 1259 2794 1537 2939 
Q 1816 3084 2150 3084 
Q 2853 3084 3261 2657 
Q 3669 2231 3669 1497 
Q 3669 778 3244 343 
Q 2819 -91 2113 -91 
Q 1303 -91 875 529 
Q 447 1150 447 2328 
Q 447 3434 972 4092 
Q 1497 4750 2381 4750 
Q 2619 4750 2861 4703 
Q 3103 4656 3366 4563 
z
" transform="scale(0.015625)"/>
       </defs>
       <use xlink:href="#DejaVuSans-2d"/>
       <use xlink:href="#DejaVuSans-36" x="36.083984"/>
      </g>
     </g>
    </g>
    <g id="xtick_3">
     <g id="line2d_3">
      <g>
       <use xlink:href="#m3ccd192b8d" x="130.08997" y="307.872" style="stroke: #000000; stroke-width: 0.8"/>
      </g>
     </g>
     <g id="text_3">
      <!-- -4 -->
      <g transform="translate(125.104814 322.470438) scale(0.1 -0.1)">
       <defs>
        <path id="DejaVuSans-34" d="M 2419 4116 
L 825 1625 
L 2419 1625 
L 2419 4116 
z
M 2253 4666 
L 3047 4666 
L 3047 1625 
L 3713 1625 
L 3713 1100 
L 3047 1100 
L 3047 0 
L 2419 0 
L 2419 1100 
L 313 1100 
L 313 1709 
L 2253 4666 
z
" transform="scale(0.015625)"/>
       </defs>
       <use xlink:href="#DejaVuSans-2d"/>
       <use xlink:href="#DejaVuSans-34" x="36.083984"/>
      </g>
     </g>
    </g>
    <g id="xtick_4">
     <g id="line2d_4">
      <g>
       <use xlink:href="#m3ccd192b8d" x="170.719037" y="307.872" style="stroke: #000000; stroke-width: 0.8"/>
      </g>
     </g>
     <g id="text_4">
      <!-- -2 -->
      <g transform="translate(165.73388 322.470438) scale(0.1 -0.1)">
       <defs>
        <path id="DejaVuSans-32" d="M 1228 531 
L 3431 531 
L 3431 0 
L 469 0 
L 469 531 
Q 828 903 1448 1529 
Q 2069 2156 2228 2338 
Q 2531 2678 2651 2914 
Q 2772 3150 2772 3378 
Q 2772 3750 2511 3984 
Q 2250 4219 1831 4219 
Q 1534 4219 1204 4116 
Q 875 4013 500 3803 
L 500 4441 
Q 881 4594 1212 4672 
Q 1544 4750 1819 4750 
Q 2544 4750 2975 4387 
Q 3406 4025 3406 3419 
Q 3406 3131 3298 2873 
Q 3191 2616 2906 2266 
Q 2828 2175 2409 1742 
Q 1991 1309 1228 531 
z
" transform="scale(0.015625)"/>
       </defs>
       <use xlink:href="#DejaVuSans-2d"/>
       <use xlink:href="#DejaVuSans-32" x="36.083984"/>
      </g>
     </g>
    </g>
    <g id="xtick_5">
     <g id="line2d_5">
      <g>
       <use xlink:href="#m3ccd192b8d" x="211.348103" y="307.872" style="stroke: #000000; stroke-width: 0.8"/>
      </g>
     </g>
     <g id="text_5">
      <!-- 0 -->
      <g transform="translate(208.166853 322.470438) scale(0.1 -0.1)">
       <defs>
        <path id="DejaVuSans-30" d="M 2034 4250 
Q 1547 4250 1301 3770 
Q 1056 3291 1056 2328 
Q 1056 1369 1301 889 
Q 1547 409 2034 409 
Q 2525 409 2770 889 
Q 3016 1369 3016 2328 
Q 3016 3291 2770 3770 
Q 2525 4250 2034 4250 
z
M 2034 4750 
Q 2819 4750 3233 4129 
Q 3647 3509 3647 2328 
Q 3647 1150 3233 529 
Q 2819 -91 2034 -91 
Q 1250 -91 836 529 
Q 422 1150 422 2328 
Q 422 3509 836 4129 
Q 1250 4750 2034 4750 
z
" transform="scale(0.015625)"/>
       </defs>
       <use xlink:href="#DejaVuSans-30"/>
      </g>
     </g>
    </g>
    <g id="xtick_6">
     <g id="line2d_6">
      <g>
       <use xlink:href="#m3ccd192b8d" x="251.97717" y="307.872" style="stroke: #000000; stroke-width: 0.8"/>
      </g>
     </g>
     <g id="text_6">
      <!-- 2 -->
      <g transform="translate(248.79592 322.470438) scale(0.1 -0.1)">
       <use xlink:href="#DejaVuSans-32"/>
      </g>
     </g>
    </g>
    <g id="xtick_7">
     <g id="line2d_7">
      <g>
       <use xlink:href="#m3ccd192b8d" x="292.606237" y="307.872" style="stroke: #000000; stroke-width: 0.8"/>
      </g>
     </g>
     <g id="text_7">
      <!-- 4 -->
      <g transform="translate(289.424987 322.470438) scale(0.1 -0.1)">
       <use xlink:href="#DejaVuSans-34"/>
      </g>
     </g>
    </g>
    <g id="xtick_8">
     <g id="line2d_8">
      <g>
       <use xlink:href="#m3ccd192b8d" x="333.235303" y="307.872" style="stroke: #000000; stroke-width: 0.8"/>
      </g>
     </g>
     <g id="text_8">
      <!-- 6 -->
      <g transform="translate(330.054053 322.470438) scale(0.1 -0.1)">
       <use xlink:href="#DejaVuSans-36"/>
      </g>
     </g>
    </g>
    <g id="xtick_9">
     <g id="line2d_9">
      <g>
       <use xlink:href="#m3ccd192b8d" x="373.86437" y="307.872" style="stroke: #000000; stroke-width: 0.8"/>
      </g>
     </g>
     <g id="text_9">
      <!-- 8 -->
      <g transform="translate(370.68312 322.470438) scale(0.1 -0.1)">
       <use xlink:href="#DejaVuSans-38"/>
      </g>
     </g>
    </g>
    <g id="text_10">
     <!-- Re$(S_{21})$ [mV] -->
     <g transform="translate(193.949063 336.148562) scale(0.1 -0.1)">
      <defs>
       <path id="DejaVuSans-52" d="M 2841 2188 
Q 3044 2119 3236 1894 
Q 3428 1669 3622 1275 
L 4263 0 
L 3584 0 
L 2988 1197 
Q 2756 1666 2539 1819 
Q 2322 1972 1947 1972 
L 1259 1972 
L 1259 0 
L 628 0 
L 628 4666 
L 2053 4666 
Q 2853 4666 3247 4331 
Q 3641 3997 3641 3322 
Q 3641 2881 3436 2590 
Q 3231 2300 2841 2188 
z
M 1259 4147 
L 1259 2491 
L 2053 2491 
Q 2509 2491 2742 2702 
Q 2975 2913 2975 3322 
Q 2975 3731 2742 3939 
Q 2509 4147 2053 4147 
L 1259 4147 
z
" transform="scale(0.015625)"/>
       <path id="DejaVuSans-65" d="M 3597 1894 
L 3597 1613 
L 953 1613 
Q 991 1019 1311 708 
Q 1631 397 2203 397 
Q 2534 397 2845 478 
Q 3156 559 3463 722 
L 3463 178 
Q 3153 47 2828 -22 
Q 2503 -91 2169 -91 
Q 1331 -91 842 396 
Q 353 884 353 1716 
Q 353 2575 817 3079 
Q 1281 3584 2069 3584 
Q 2775 3584 3186 3129 
Q 3597 2675 3597 1894 
z
M 3022 2063 
Q 3016 2534 2758 2815 
Q 2500 3097 2075 3097 
Q 1594 3097 1305 2825 
Q 1016 2553 972 2059 
L 3022 2063 
z
" transform="scale(0.015625)"/>
       <path id="DejaVuSans-28" d="M 1984 4856 
Q 1566 4138 1362 3434 
Q 1159 2731 1159 2009 
Q 1159 1288 1364 580 
Q 1569 -128 1984 -844 
L 1484 -844 
Q 1016 -109 783 600 
Q 550 1309 550 2009 
Q 550 2706 781 3412 
Q 1013 4119 1484 4856 
L 1984 4856 
z
" transform="scale(0.015625)"/>
       <path id="DejaVuSans-Oblique-53" d="M 3859 4513 
L 3738 3897 
Q 3422 4066 3111 4152 
Q 2800 4238 2509 4238 
Q 1944 4238 1609 3991 
Q 1275 3744 1275 3334 
Q 1275 3109 1398 2989 
Q 1522 2869 2034 2731 
L 2413 2638 
Q 3053 2472 3303 2217 
Q 3553 1963 3553 1503 
Q 3553 797 2998 353 
Q 2444 -91 1538 -91 
Q 1166 -91 791 -17 
Q 416 56 38 206 
L 166 856 
Q 513 641 861 531 
Q 1209 422 1556 422 
Q 2147 422 2503 684 
Q 2859 947 2859 1369 
Q 2859 1650 2717 1795 
Q 2575 1941 2106 2059 
L 1728 2156 
Q 1081 2325 845 2545 
Q 609 2766 609 3163 
Q 609 3859 1145 4304 
Q 1681 4750 2541 4750 
Q 2875 4750 3203 4690 
Q 3531 4631 3859 4513 
z
" transform="scale(0.015625)"/>
       <path id="DejaVuSans-31" d="M 794 531 
L 1825 531 
L 1825 4091 
L 703 3866 
L 703 4441 
L 1819 4666 
L 2450 4666 
L 2450 531 
L 3481 531 
L 3481 0 
L 794 0 
L 794 531 
z
" transform="scale(0.015625)"/>
       <path id="DejaVuSans-29" d="M 513 4856 
L 1013 4856 
Q 1481 4119 1714 3412 
Q 1947 2706 1947 2009 
Q 1947 1309 1714 600 
Q 1481 -109 1013 -844 
L 513 -844 
Q 928 -128 1133 580 
Q 1338 1288 1338 2009 
Q 1338 2731 1133 3434 
Q 928 4138 513 4856 
z
" transform="scale(0.015625)"/>
       <path id="DejaVuSans-20" transform="scale(0.015625)"/>
       <path id="DejaVuSans-5b" d="M 550 4863 
L 1875 4863 
L 1875 4416 
L 1125 4416 
L 1125 -397 
L 1875 -397 
L 1875 -844 
L 550 -844 
L 550 4863 
z
" transform="scale(0.015625)"/>
       <path id="DejaVuSans-6d" d="M 3328 2828 
Q 3544 3216 3844 3400 
Q 4144 3584 4550 3584 
Q 5097 3584 5394 3201 
Q 5691 2819 5691 2113 
L 5691 0 
L 5113 0 
L 5113 2094 
Q 5113 2597 4934 2840 
Q 4756 3084 4391 3084 
Q 3944 3084 3684 2787 
Q 3425 2491 3425 1978 
L 3425 0 
L 2847 0 
L 2847 2094 
Q 2847 2600 2669 2842 
Q 2491 3084 2119 3084 
Q 1678 3084 1418 2786 
Q 1159 2488 1159 1978 
L 1159 0 
L 581 0 
L 581 3500 
L 1159 3500 
L 1159 2956 
Q 1356 3278 1631 3431 
Q 1906 3584 2284 3584 
Q 2666 3584 2933 3390 
Q 3200 3197 3328 2828 
z
" transform="scale(0.015625)"/>
       <path id="DejaVuSans-56" d="M 1831 0 
L 50 4666 
L 709 4666 
L 2188 738 
L 3669 4666 
L 4325 4666 
L 2547 0 
L 1831 0 
z
" transform="scale(0.015625)"/>
       <path id="DejaVuSans-5d" d="M 1947 4863 
L 1947 -844 
L 622 -844 
L 622 -397 
L 1369 -397 
L 1369 4416 
L 622 4416 
L 622 4863 
L 1947 4863 
z
" transform="scale(0.015625)"/>
      </defs>
      <use xlink:href="#DejaVuSans-52" transform="translate(0 0.015625)"/>
      <use xlink:href="#DejaVuSans-65" transform="translate(69.482422 0.015625)"/>
      <use xlink:href="#DejaVuSans-28" transform="translate(131.005859 0.015625)"/>
      <use xlink:href="#DejaVuSans-Oblique-53" transform="translate(170.019531 0.015625)"/>
      <use xlink:href="#DejaVuSans-32" transform="translate(233.496094 -16.390625) scale(0.7)"/>
      <use xlink:href="#DejaVuSans-31" transform="translate(278.032227 -16.390625) scale(0.7)"/>
      <use xlink:href="#DejaVuSans-29" transform="translate(325.302734 0.015625)"/>
      <use xlink:href="#DejaVuSans-20" transform="translate(364.316406 0.015625)"/>
      <use xlink:href="#DejaVuSans-5b" transform="translate(396.103516 0.015625)"/>
      <use xlink:href="#DejaVuSans-6d" transform="translate(435.117188 0.015625)"/>
      <use xlink:href="#DejaVuSans-56" transform="translate(532.529297 0.015625)"/>
      <use xlink:href="#DejaVuSans-5d" transform="translate(600.9375 0.015625)"/>
     </g>
    </g>
   </g>
   <g id="matplotlib.axis_2">
    <g id="ytick_1">
     <g id="line2d_10">
      <defs>
       <path id="maf6c25645c" d="M 0 0 
L -3.5 0 
" style="stroke: #000000; stroke-width: 0.8"/>
      </defs>
      <g>
       <use xlink:href="#maf6c25645c" x="47.389063" y="286.380631" style="stroke: #000000; stroke-width: 0.8"/>
      </g>
     </g>
     <g id="text_11">
      <!-- -7.5 -->
      <g transform="translate(20.878125 290.17985) scale(0.1 -0.1)">
       <defs>
        <path id="DejaVuSans-37" d="M 525 4666 
L 3525 4666 
L 3525 4397 
L 1831 0 
L 1172 0 
L 2766 4134 
L 525 4134 
L 525 4666 
z
" transform="scale(0.015625)"/>
        <path id="DejaVuSans-2e" d="M 684 794 
L 1344 794 
L 1344 0 
L 684 0 
L 684 794 
z
" transform="scale(0.015625)"/>
        <path id="DejaVuSans-35" d="M 691 4666 
L 3169 4666 
L 3169 4134 
L 1269 4134 
L 1269 2991 
Q 1406 3038 1543 3061 
Q 1681 3084 1819 3084 
Q 2600 3084 3056 2656 
Q 3513 2228 3513 1497 
Q 3513 744 3044 326 
Q 2575 -91 1722 -91 
Q 1428 -91 1123 -41 
Q 819 9 494 109 
L 494 744 
Q 775 591 1075 516 
Q 1375 441 1709 441 
Q 2250 441 2565 725 
Q 2881 1009 2881 1497 
Q 2881 1984 2565 2268 
Q 2250 2553 1709 2553 
Q 1456 2553 1204 2497 
Q 953 2441 691 2322 
L 691 4666 
z
" transform="scale(0.015625)"/>
       </defs>
       <use xlink:href="#DejaVuSans-2d"/>
       <use xlink:href="#DejaVuSans-37" x="36.083984"/>
       <use xlink:href="#DejaVuSans-2e" x="99.707031"/>
       <use xlink:href="#DejaVuSans-35" x="131.494141"/>
      </g>
     </g>
    </g>
    <g id="ytick_2">
     <g id="line2d_11">
      <g>
       <use xlink:href="#maf6c25645c" x="47.389063" y="249.594102" style="stroke: #000000; stroke-width: 0.8"/>
      </g>
     </g>
     <g id="text_12">
      <!-- -5 -->
      <g transform="translate(30.41875 253.393321) scale(0.1 -0.1)">
       <use xlink:href="#DejaVuSans-2d"/>
       <use xlink:href="#DejaVuSans-35" x="36.083984"/>
      </g>
     </g>
    </g>
    <g id="ytick_3">
     <g id="line2d_12">
      <g>
       <use xlink:href="#maf6c25645c" x="47.389063" y="212.807574" style="stroke: #000000; stroke-width: 0.8"/>
      </g>
     </g>
     <g id="text_13">
      <!-- -2.5 -->
      <g transform="translate(20.878125 216.606793) scale(0.1 -0.1)">
       <use xlink:href="#DejaVuSans-2d"/>
       <use xlink:href="#DejaVuSans-32" x="36.083984"/>
       <use xlink:href="#DejaVuSans-2e" x="99.707031"/>
       <use xlink:href="#DejaVuSans-35" x="131.494141"/>
      </g>
     </g>
    </g>
    <g id="ytick_4">
     <g id="line2d_13">
      <g>
       <use xlink:href="#maf6c25645c" x="47.389063" y="176.021045" style="stroke: #000000; stroke-width: 0.8"/>
      </g>
     </g>
     <g id="text_14">
      <!-- 0 -->
      <g transform="translate(34.026563 179.820264) scale(0.1 -0.1)">
       <use xlink:href="#DejaVuSans-30"/>
      </g>
     </g>
    </g>
    <g id="ytick_5">
     <g id="line2d_14">
      <g>
       <use xlink:href="#maf6c25645c" x="47.389063" y="139.234517" style="stroke: #000000; stroke-width: 0.8"/>
      </g>
     </g>
     <g id="text_15">
      <!-- 2.5 -->
      <g transform="translate(24.485938 143.033736) scale(0.1 -0.1)">
       <use xlink:href="#DejaVuSans-32"/>
       <use xlink:href="#DejaVuSans-2e" x="63.623047"/>
       <use xlink:href="#DejaVuSans-35" x="95.410156"/>
      </g>
     </g>
    </g>
    <g id="ytick_6">
     <g id="line2d_15">
      <g>
       <use xlink:href="#maf6c25645c" x="47.389063" y="102.447989" style="stroke: #000000; stroke-width: 0.8"/>
      </g>
     </g>
     <g id="text_16">
      <!-- 5 -->
      <g transform="translate(34.026563 106.247207) scale(0.1 -0.1)">
       <use xlink:href="#DejaVuSans-35"/>
      </g>
     </g>
    </g>
    <g id="ytick_7">
     <g id="line2d_16">
      <g>
       <use xlink:href="#maf6c25645c" x="47.389063" y="65.66146" style="stroke: #000000; stroke-width: 0.8"/>
      </g>
     </g>
     <g id="text_17">
      <!-- 7.5 -->
      <g transform="translate(24.485938 69.460679) scale(0.1 -0.1)">
       <use xlink:href="#DejaVuSans-37"/>
       <use xlink:href="#DejaVuSans-2e" x="63.623047"/>
       <use xlink:href="#DejaVuSans-35" x="95.410156"/>
      </g>
     </g>
    </g>
    <g id="text_18">
     <!-- Im$(S_{21})$ [mV] -->
     <g transform="translate(14.798438 206.466) rotate(-90) scale(0.1 -0.1)">
      <defs>
       <path id="DejaVuSans-49" d="M 628 4666 
L 1259 4666 
L 1259 0 
L 628 0 
L 628 4666 
z
" transform="scale(0.015625)"/>
      </defs>
      <use xlink:href="#DejaVuSans-49" transform="translate(0 0.015625)"/>
      <use xlink:href="#DejaVuSans-6d" transform="translate(25.867188 0.015625)"/>
      <use xlink:href="#DejaVuSans-28" transform="translate(123.279297 0.015625)"/>
      <use xlink:href="#DejaVuSans-Oblique-53" transform="translate(162.292969 0.015625)"/>
      <use xlink:href="#DejaVuSans-32" transform="translate(225.769531 -16.390625) scale(0.7)"/>
      <use xlink:href="#DejaVuSans-31" transform="translate(270.305664 -16.390625) scale(0.7)"/>
      <use xlink:href="#DejaVuSans-29" transform="translate(317.576172 0.015625)"/>
      <use xlink:href="#DejaVuSans-20" transform="translate(356.589844 0.015625)"/>
      <use xlink:href="#DejaVuSans-5b" transform="translate(388.376953 0.015625)"/>
      <use xlink:href="#DejaVuSans-6d" transform="translate(427.390625 0.015625)"/>
      <use xlink:href="#DejaVuSans-56" transform="translate(524.802734 0.015625)"/>
      <use xlink:href="#DejaVuSans-5d" transform="translate(593.210938 0.015625)"/>
     </g>
    </g>
   </g>
   <g id="line2d_17">
    <path d="M 330.734019 135.3314 
L 337.241398 157.258092 
L 339.563183 177.535522 
L 335.778864 198.16995 
L 328.042973 221.633528 
L 244.19148 202.41325 
L 293.875337 233.263697 
L 273.52296 249.262177 
L 247.311364 258.18305 
L 220.64692 263.10674 
L 193.714003 261.720893 
L 167.841022 256.294639 
L 145.467486 243.978263 
L 126.68743 230.293435 
L 115.060643 215.807126 
L 105.949794 201.523813 
L 104.453016 184.196743 
L 105.66285 168.382252 
L 113.533245 152.72707 
L 124.163882 136.241779 
L 136.500967 124.879032 
L 155.050991 116.220448 
L 173.815407 110.202701 
L 193.804947 108.056127 
L 214.251954 108.608065 
L 234.252715 112.425909 
L 251.200322 116.834211 
L 265.715617 125.335974 
L 276.135249 134.692089 
L 284.601986 145.535682 
L 290.390983 156.13983 
L 295.113594 168.290275 
L 296.228019 180.246082 
L 293.242024 191.82507 
L 286.944618 203.222815 
L 277.091266 214.296953 
L 263.390292 224.705213 
L 248.528139 231.903909 
L 230.910473 236.440404 
L 212.914701 237.631437 
L 194.851267 236.556501 
L 173.920582 232.958334 
L 155.166229 225.072386 
L 127.537167 211.91657 
L 165.736184 145.09053 
L 168.812871 201.68234 
L 146.793148 193.913534 
L 138.325907 180.924507 
L 134.1638 167.475108 
L 136.065672 153.666716 
L 143.274483 141.35679 
L 157.821455 129.615321 
L 174.381872 119.819856 
L 195.849137 113.692793 
L 216.703949 111.758477 
L 238.816515 115.80495 
L 258.653093 123.078789 
L 276.169798 135.313951 
L 288.551666 149.947147 
L 293.659205 166.21602 
L 291.734382 182.796351 
L 280.413256 199.024116 
L 263.525815 209.675636 
L 246.14288 214.991346 
L 227.207862 215.80623 
L 212.819523 211.17873 
L 203.353598 204.733774 
L 198.39193 198.641196 
L 195.705258 193.983544 
L 192.458359 179.63403 
L 206.659426 188.618214 
L 204.220054 189.100468 
L 202.393228 189.306219 
L 199.741687 190.418793 
L 197.559117 191.497673 
L 191.52663 190.331306 
L 184.920725 188.80378 
L 180.321337 186.243466 
L 175.407946 182.359873 
L 172.111613 176.314557 
L 170.819462 170.22462 
L 170.839991 162.92011 
L 172.057771 155.38563 
L 177.0577 149.278853 
L 185.98234 141.106663 
L 196.298994 135.80141 
L 209.406893 132.56835 
L 225.718864 131.479622 
L 243.419396 133.044331 
L 260.244593 138.792465 
L 273.600626 147.596677 
L 282.385291 160.638878 
L 289.237775 175.803856 
L 288.776644 191.24446 
L 283.780672 206.975925 
L 270.030415 220.760854 
L 249.537501 231.758364 
L 223.749681 238.736478 
L 195.688446 239.490088 
L 165.364257 232.562327 
L 295.174045 68.640837 
L 172.353151 82.551088 
L 251.99547 53.856 
L 305.236464 65.722255 
L 345.300694 87.750423 
L 373.009565 114.791935 
L 386.44507 144.009273 
L 388.276335 174.287558 
L 381.025903 202.406215 
L 365.499744 229.24638 
L 345.280349 253.72858 
L 318.92578 273.615853 
L 285.568688 286.969843 
L 249.062866 295.510217 
L 210.175683 295.776 
L 170.872482 290.711514 
L 137.742995 280.059698 
L 108.089771 264.97189 
L 87.317613 244.72941 
L 73.588058 222.396473 
L 66.099118 198.367261 
L 63.62179 173.695054 
L 68.466626 151.115254 
L 80.556277 129.672454 
L 100.160738 111.691453 
L 123.989834 97.023106 
L 154.554517 85.031122 
L 186.054826 79.761317 
L 218.19636 79.270484 
L 242.583175 85.381838 
L 271.259271 94.449494 
L 299.16704 111.205974 
L 318.445364 139.59269 
L 274.030371 191.645183 
L 278.141846 122.420966 
L 317.82302 147.155943 
L 326.844379 172.140021 
L 323.851914 193.650774 
L 315.454823 212.255818 
L 299.358455 229.908334 
L 280.418449 242.250023 
L 257.254708 249.666355 
L 231.575801 255.375222 
L 204.037372 254.377197 
L 179.933591 250.305953 
L 159.462959 241.512246 
L 143.709546 231.352364 
L 130.393196 217.998858 
L 120.230796 204.932973 
L 115.616509 190.013738 
L 111.375002 172.979724 
L 113.868188 156.342633 
L 123.068671 139.835715 
L 140.567029 127.236159 
L 161.830494 115.486399 
L 185.543697 108.328849 
L 209.310808 107.487176 
L 233.986075 110.540881 
L 254.317625 118.536836 
L 272.63055 132.359197 
L 282.005914 149.715154 
L 284.230476 165.390123 
L 279.048566 180.218028 
L 267.354144 190.931545 
L 253.276566 196.80664 
L 239.225611 199.066005 
L 228.748598 198.671454 
L 220.358388 196.702653 
L 216.975762 193.887028 
L 215.474048 191.516171 
L 213.167896 189.041145 
L 213.435158 187.314942 
L 213.311074 188.504806 
L 213.853457 189.05118 
L 211.709716 189.63503 
L 211.063025 191.356378 
L 207.95505 193.031903 
L 202.657479 193.877424 
L 198.00599 193.200106 
L 191.030388 193.090771 
L 184.859573 191.188189 
L 179.115717 188.156888 
L 174.937288 182.612635 
L 171.247115 177.204545 
L 169.765653 168.779022 
L 170.497697 163.092717 
L 174.106843 156.123795 
L 179.708553 149.403811 
L 188.002493 144.075459 
L 199.893472 137.99514 
L 213.642299 135.001415 
L 228.107722 134.228377 
L 243.336682 137.518301 
L 256.429285 144.141324 
L 268.25229 153.509334 
L 277.012561 165.309129 
L 281.362875 178.375053 
L 279.307783 192.582567 
L 272.072567 206.494361 
L 260.123949 218.037925 
L 260.123949 218.037925 
" clip-path="url(#p2644af9830)" style="fill: none; stroke: #1f77b4; stroke-width: 1.5; stroke-linecap: square"/>
    <defs>
     <path id="mc4fbc6b9cd" d="M 0 1.5 
C 0.397805 1.5 0.77937 1.341951 1.06066 1.06066 
C 1.341951 0.77937 1.5 0.397805 1.5 0 
C 1.5 -0.397805 1.341951 -0.77937 1.06066 -1.06066 
C 0.77937 -1.341951 0.397805 -1.5 0 -1.5 
C -0.397805 -1.5 -0.77937 -1.341951 -1.06066 -1.06066 
C -1.341951 -0.77937 -1.5 -0.397805 -1.5 0 
C -1.5 0.397805 -1.341951 0.77937 -1.06066 1.06066 
C -0.77937 1.341951 -0.397805 1.5 0 1.5 
z
" style="stroke: #1f77b4"/>
    </defs>
    <g clip-path="url(#p2644af9830)">
     <use xlink:href="#mc4fbc6b9cd" x="330.734019" y="135.3314" style="fill: #1f77b4; stroke: #1f77b4"/>
     <use xlink:href="#mc4fbc6b9cd" x="337.241398" y="157.258092" style="fill: #1f77b4; stroke: #1f77b4"/>
     <use xlink:href="#mc4fbc6b9cd" x="339.563183" y="177.535522" style="fill: #1f77b4; stroke: #1f77b4"/>
     <use xlink:href="#mc4fbc6b9cd" x="335.778864" y="198.16995" style="fill: #1f77b4; stroke: #1f77b4"/>
     <use xlink:href="#mc4fbc6b9cd" x="328.042973" y="221.633528" style="fill: #1f77b4; stroke: #1f77b4"/>
     <use xlink:href="#mc4fbc6b9cd" x="244.19148" y="202.41325" style="fill: #1f77b4; stroke: #1f77b4"/>
     <use xlink:href="#mc4fbc6b9cd" x="293.875337" y="233.263697" style="fill: #1f77b4; stroke: #1f77b4"/>
     <use xlink:href="#mc4fbc6b9cd" x="273.52296" y="249.262177" style="fill: #1f77b4; stroke: #1f77b4"/>
     <use xlink:href="#mc4fbc6b9cd" x="247.311364" y="258.18305" style="fill: #1f77b4; stroke: #1f77b4"/>
     <use xlink:href="#mc4fbc6b9cd" x="220.64692" y="263.10674" style="fill: #1f77b4; stroke: #1f77b4"/>
     <use xlink:href="#mc4fbc6b9cd" x="193.714003" y="261.720893" style="fill: #1f77b4; stroke: #1f77b4"/>
     <use xlink:href="#mc4fbc6b9cd" x="167.841022" y="256.294639" style="fill: #1f77b4; stroke: #1f77b4"/>
     <use xlink:href="#mc4fbc6b9cd" x="145.467486" y="243.978263" style="fill: #1f77b4; stroke: #1f77b4"/>
     <use xlink:href="#mc4fbc6b9cd" x="126.68743" y="230.293435" style="fill: #1f77b4; stroke: #1f77b4"/>
     <use xlink:href="#mc4fbc6b9cd" x="115.060643" y="215.807126" style="fill: #1f77b4; stroke: #1f77b4"/>
     <use xlink:href="#mc4fbc6b9cd" x="105.949794" y="201.523813" style="fill: #1f77b4; stroke: #1f77b4"/>
     <use xlink:href="#mc4fbc6b9cd" x="104.453016" y="184.196743" style="fill: #1f77b4; stroke: #1f77b4"/>
     <use xlink:href="#mc4fbc6b9cd" x="105.66285" y="168.382252" style="fill: #1f77b4; stroke: #1f77b4"/>
     <use xlink:href="#mc4fbc6b9cd" x="113.533245" y="152.72707" style="fill: #1f77b4; stroke: #1f77b4"/>
     <use xlink:href="#mc4fbc6b9cd" x="124.163882" y="136.241779" style="fill: #1f77b4; stroke: #1f77b4"/>
     <use xlink:href="#mc4fbc6b9cd" x="136.500967" y="124.879032" style="fill: #1f77b4; stroke: #1f77b4"/>
     <use xlink:href="#mc4fbc6b9cd" x="155.050991" y="116.220448" style="fill: #1f77b4; stroke: #1f77b4"/>
     <use xlink:href="#mc4fbc6b9cd" x="173.815407" y="110.202701" style="fill: #1f77b4; stroke: #1f77b4"/>
     <use xlink:href="#mc4fbc6b9cd" x="193.804947" y="108.056127" style="fill: #1f77b4; stroke: #1f77b4"/>
     <use xlink:href="#mc4fbc6b9cd" x="214.251954" y="108.608065" style="fill: #1f77b4; stroke: #1f77b4"/>
     <use xlink:href="#mc4fbc6b9cd" x="234.252715" y="112.425909" style="fill: #1f77b4; stroke: #1f77b4"/>
     <use xlink:href="#mc4fbc6b9cd" x="251.200322" y="116.834211" style="fill: #1f77b4; stroke: #1f77b4"/>
     <use xlink:href="#mc4fbc6b9cd" x="265.715617" y="125.335974" style="fill: #1f77b4; stroke: #1f77b4"/>
     <use xlink:href="#mc4fbc6b9cd" x="276.135249" y="134.692089" style="fill: #1f77b4; stroke: #1f77b4"/>
     <use xlink:href="#mc4fbc6b9cd" x="284.601986" y="145.535682" style="fill: #1f77b4; stroke: #1f77b4"/>
     <use xlink:href="#mc4fbc6b9cd" x="290.390983" y="156.13983" style="fill: #1f77b4; stroke: #1f77b4"/>
     <use xlink:href="#mc4fbc6b9cd" x="295.113594" y="168.290275" style="fill: #1f77b4; stroke: #1f77b4"/>
     <use xlink:href="#mc4fbc6b9cd" x="296.228019" y="180.246082" style="fill: #1f77b4; stroke: #1f77b4"/>
     <use xlink:href="#mc4fbc6b9cd" x="293.242024" y="191.82507" style="fill: #1f77b4; stroke: #1f77b4"/>
     <use xlink:href="#mc4fbc6b9cd" x="286.944618" y="203.222815" style="fill: #1f77b4; stroke: #1f77b4"/>
     <use xlink:href="#mc4fbc6b9cd" x="277.091266" y="214.296953" style="fill: #1f77b4; stroke: #1f77b4"/>
     <use xlink:href="#mc4fbc6b9cd" x="263.390292" y="224.705213" style="fill: #1f77b4; stroke: #1f77b4"/>
     <use xlink:href="#mc4fbc6b9cd" x="248.528139" y="231.903909" style="fill: #1f77b4; stroke: #1f77b4"/>
     <use xlink:href="#mc4fbc6b9cd" x="230.910473" y="236.440404" style="fill: #1f77b4; stroke: #1f77b4"/>
     <use xlink:href="#mc4fbc6b9cd" x="212.914701" y="237.631437" style="fill: #1f77b4; stroke: #1f77b4"/>
     <use xlink:href="#mc4fbc6b9cd" x="194.851267" y="236.556501" style="fill: #1f77b4; stroke: #1f77b4"/>
     <use xlink:href="#mc4fbc6b9cd" x="173.920582" y="232.958334" style="fill: #1f77b4; stroke: #1f77b4"/>
     <use xlink:href="#mc4fbc6b9cd" x="155.166229" y="225.072386" style="fill: #1f77b4; stroke: #1f77b4"/>
     <use xlink:href="#mc4fbc6b9cd" x="127.537167" y="211.91657" style="fill: #1f77b4; stroke: #1f77b4"/>
     <use xlink:href="#mc4fbc6b9cd" x="165.736184" y="145.09053" style="fill: #1f77b4; stroke: #1f77b4"/>
     <use xlink:href="#mc4fbc6b9cd" x="168.812871" y="201.68234" style="fill: #1f77b4; stroke: #1f77b4"/>
     <use xlink:href="#mc4fbc6b9cd" x="146.793148" y="193.913534" style="fill: #1f77b4; stroke: #1f77b4"/>
     <use xlink:href="#mc4fbc6b9cd" x="138.325907" y="180.924507" style="fill: #1f77b4; stroke: #1f77b4"/>
     <use xlink:href="#mc4fbc6b9cd" x="134.1638" y="167.475108" style="fill: #1f77b4; stroke: #1f77b4"/>
     <use xlink:href="#mc4fbc6b9cd" x="136.065672" y="153.666716" style="fill: #1f77b4; stroke: #1f77b4"/>
     <use xlink:href="#mc4fbc6b9cd" x="143.274483" y="141.35679" style="fill: #1f77b4; stroke: #1f77b4"/>
     <use xlink:href="#mc4fbc6b9cd" x="157.821455" y="129.615321" style="fill: #1f77b4; stroke: #1f77b4"/>
     <use xlink:href="#mc4fbc6b9cd" x="174.381872" y="119.819856" style="fill: #1f77b4; stroke: #1f77b4"/>
     <use xlink:href="#mc4fbc6b9cd" x="195.849137" y="113.692793" style="fill: #1f77b4; stroke: #1f77b4"/>
     <use xlink:href="#mc4fbc6b9cd" x="216.703949" y="111.758477" style="fill: #1f77b4; stroke: #1f77b4"/>
     <use xlink:href="#mc4fbc6b9cd" x="238.816515" y="115.80495" style="fill: #1f77b4; stroke: #1f77b4"/>
     <use xlink:href="#mc4fbc6b9cd" x="258.653093" y="123.078789" style="fill: #1f77b4; stroke: #1f77b4"/>
     <use xlink:href="#mc4fbc6b9cd" x="276.169798" y="135.313951" style="fill: #1f77b4; stroke: #1f77b4"/>
     <use xlink:href="#mc4fbc6b9cd" x="288.551666" y="149.947147" style="fill: #1f77b4; stroke: #1f77b4"/>
     <use xlink:href="#mc4fbc6b9cd" x="293.659205" y="166.21602" style="fill: #1f77b4; stroke: #1f77b4"/>
     <use xlink:href="#mc4fbc6b9cd" x="291.734382" y="182.796351" style="fill: #1f77b4; stroke: #1f77b4"/>
     <use xlink:href="#mc4fbc6b9cd" x="280.413256" y="199.024116" style="fill: #1f77b4; stroke: #1f77b4"/>
     <use xlink:href="#mc4fbc6b9cd" x="263.525815" y="209.675636" style="fill: #1f77b4; stroke: #1f77b4"/>
     <use xlink:href="#mc4fbc6b9cd" x="246.14288" y="214.991346" style="fill: #1f77b4; stroke: #1f77b4"/>
     <use xlink:href="#mc4fbc6b9cd" x="227.207862" y="215.80623" style="fill: #1f77b4; stroke: #1f77b4"/>
     <use xlink:href="#mc4fbc6b9cd" x="212.819523" y="211.17873" style="fill: #1f77b4; stroke: #1f77b4"/>
     <use xlink:href="#mc4fbc6b9cd" x="203.353598" y="204.733774" style="fill: #1f77b4; stroke: #1f77b4"/>
     <use xlink:href="#mc4fbc6b9cd" x="198.39193" y="198.641196" style="fill: #1f77b4; stroke: #1f77b4"/>
     <use xlink:href="#mc4fbc6b9cd" x="195.705258" y="193.983544" style="fill: #1f77b4; stroke: #1f77b4"/>
     <use xlink:href="#mc4fbc6b9cd" x="192.458359" y="179.63403" style="fill: #1f77b4; stroke: #1f77b4"/>
     <use xlink:href="#mc4fbc6b9cd" x="206.659426" y="188.618214" style="fill: #1f77b4; stroke: #1f77b4"/>
     <use xlink:href="#mc4fbc6b9cd" x="204.220054" y="189.100468" style="fill: #1f77b4; stroke: #1f77b4"/>
     <use xlink:href="#mc4fbc6b9cd" x="202.393228" y="189.306219" style="fill: #1f77b4; stroke: #1f77b4"/>
     <use xlink:href="#mc4fbc6b9cd" x="199.741687" y="190.418793" style="fill: #1f77b4; stroke: #1f77b4"/>
     <use xlink:href="#mc4fbc6b9cd" x="197.559117" y="191.497673" style="fill: #1f77b4; stroke: #1f77b4"/>
     <use xlink:href="#mc4fbc6b9cd" x="191.52663" y="190.331306" style="fill: #1f77b4; stroke: #1f77b4"/>
     <use xlink:href="#mc4fbc6b9cd" x="184.920725" y="188.80378" style="fill: #1f77b4; stroke: #1f77b4"/>
     <use xlink:href="#mc4fbc6b9cd" x="180.321337" y="186.243466" style="fill: #1f77b4; stroke: #1f77b4"/>
     <use xlink:href="#mc4fbc6b9cd" x="175.407946" y="182.359873" style="fill: #1f77b4; stroke: #1f77b4"/>
     <use xlink:href="#mc4fbc6b9cd" x="172.111613" y="176.314557" style="fill: #1f77b4; stroke: #1f77b4"/>
     <use xlink:href="#mc4fbc6b9cd" x="170.819462" y="170.22462" style="fill: #1f77b4; stroke: #1f77b4"/>
     <use xlink:href="#mc4fbc6b9cd" x="170.839991" y="162.92011" style="fill: #1f77b4; stroke: #1f77b4"/>
     <use xlink:href="#mc4fbc6b9cd" x="172.057771" y="155.38563" style="fill: #1f77b4; stroke: #1f77b4"/>
     <use xlink:href="#mc4fbc6b9cd" x="177.0577" y="149.278853" style="fill: #1f77b4; stroke: #1f77b4"/>
     <use xlink:href="#mc4fbc6b9cd" x="185.98234" y="141.106663" style="fill: #1f77b4; stroke: #1f77b4"/>
     <use xlink:href="#mc4fbc6b9cd" x="196.298994" y="135.80141" style="fill: #1f77b4; stroke: #1f77b4"/>
     <use xlink:href="#mc4fbc6b9cd" x="209.406893" y="132.56835" style="fill: #1f77b4; stroke: #1f77b4"/>
     <use xlink:href="#mc4fbc6b9cd" x="225.718864" y="131.479622" style="fill: #1f77b4; stroke: #1f77b4"/>
     <use xlink:href="#mc4fbc6b9cd" x="243.419396" y="133.044331" style="fill: #1f77b4; stroke: #1f77b4"/>
     <use xlink:href="#mc4fbc6b9cd" x="260.244593" y="138.792465" style="fill: #1f77b4; stroke: #1f77b4"/>
     <use xlink:href="#mc4fbc6b9cd" x="273.600626" y="147.596677" style="fill: #1f77b4; stroke: #1f77b4"/>
     <use xlink:href="#mc4fbc6b9cd" x="282.385291" y="160.638878" style="fill: #1f77b4; stroke: #1f77b4"/>
     <use xlink:href="#mc4fbc6b9cd" x="289.237775" y="175.803856" style="fill: #1f77b4; stroke: #1f77b4"/>
     <use xlink:href="#mc4fbc6b9cd" x="288.776644" y="191.24446" style="fill: #1f77b4; stroke: #1f77b4"/>
     <use xlink:href="#mc4fbc6b9cd" x="283.780672" y="206.975925" style="fill: #1f77b4; stroke: #1f77b4"/>
     <use xlink:href="#mc4fbc6b9cd" x="270.030415" y="220.760854" style="fill: #1f77b4; stroke: #1f77b4"/>
     <use xlink:href="#mc4fbc6b9cd" x="249.537501" y="231.758364" style="fill: #1f77b4; stroke: #1f77b4"/>
     <use xlink:href="#mc4fbc6b9cd" x="223.749681" y="238.736478" style="fill: #1f77b4; stroke: #1f77b4"/>
     <use xlink:href="#mc4fbc6b9cd" x="195.688446" y="239.490088" style="fill: #1f77b4; stroke: #1f77b4"/>
     <use xlink:href="#mc4fbc6b9cd" x="165.364257" y="232.562327" style="fill: #1f77b4; stroke: #1f77b4"/>
     <use xlink:href="#mc4fbc6b9cd" x="295.174045" y="68.640837" style="fill: #1f77b4; stroke: #1f77b4"/>
     <use xlink:href="#mc4fbc6b9cd" x="172.353151" y="82.551088" style="fill: #1f77b4; stroke: #1f77b4"/>
     <use xlink:href="#mc4fbc6b9cd" x="251.99547" y="53.856" style="fill: #1f77b4; stroke: #1f77b4"/>
     <use xlink:href="#mc4fbc6b9cd" x="305.236464" y="65.722255" style="fill: #1f77b4; stroke: #1f77b4"/>
     <use xlink:href="#mc4fbc6b9cd" x="345.300694" y="87.750423" style="fill: #1f77b4; stroke: #1f77b4"/>
     <use xlink:href="#mc4fbc6b9cd" x="373.009565" y="114.791935" style="fill: #1f77b4; stroke: #1f77b4"/>
     <use xlink:href="#mc4fbc6b9cd" x="386.44507" y="144.009273" style="fill: #1f77b4; stroke: #1f77b4"/>
     <use xlink:href="#mc4fbc6b9cd" x="388.276335" y="174.287558" style="fill: #1f77b4; stroke: #1f77b4"/>
     <use xlink:href="#mc4fbc6b9cd" x="381.025903" y="202.406215" style="fill: #1f77b4; stroke: #1f77b4"/>
     <use xlink:href="#mc4fbc6b9cd" x="365.499744" y="229.24638" style="fill: #1f77b4; stroke: #1f77b4"/>
     <use xlink:href="#mc4fbc6b9cd" x="345.280349" y="253.72858" style="fill: #1f77b4; stroke: #1f77b4"/>
     <use xlink:href="#mc4fbc6b9cd" x="318.92578" y="273.615853" style="fill: #1f77b4; stroke: #1f77b4"/>
     <use xlink:href="#mc4fbc6b9cd" x="285.568688" y="286.969843" style="fill: #1f77b4; stroke: #1f77b4"/>
     <use xlink:href="#mc4fbc6b9cd" x="249.062866" y="295.510217" style="fill: #1f77b4; stroke: #1f77b4"/>
     <use xlink:href="#mc4fbc6b9cd" x="210.175683" y="295.776" style="fill: #1f77b4; stroke: #1f77b4"/>
     <use xlink:href="#mc4fbc6b9cd" x="170.872482" y="290.711514" style="fill: #1f77b4; stroke: #1f77b4"/>
     <use xlink:href="#mc4fbc6b9cd" x="137.742995" y="280.059698" style="fill: #1f77b4; stroke: #1f77b4"/>
     <use xlink:href="#mc4fbc6b9cd" x="108.089771" y="264.97189" style="fill: #1f77b4; stroke: #1f77b4"/>
     <use xlink:href="#mc4fbc6b9cd" x="87.317613" y="244.72941" style="fill: #1f77b4; stroke: #1f77b4"/>
     <use xlink:href="#mc4fbc6b9cd" x="73.588058" y="222.396473" style="fill: #1f77b4; stroke: #1f77b4"/>
     <use xlink:href="#mc4fbc6b9cd" x="66.099118" y="198.367261" style="fill: #1f77b4; stroke: #1f77b4"/>
     <use xlink:href="#mc4fbc6b9cd" x="63.62179" y="173.695054" style="fill: #1f77b4; stroke: #1f77b4"/>
     <use xlink:href="#mc4fbc6b9cd" x="68.466626" y="151.115254" style="fill: #1f77b4; stroke: #1f77b4"/>
     <use xlink:href="#mc4fbc6b9cd" x="80.556277" y="129.672454" style="fill: #1f77b4; stroke: #1f77b4"/>
     <use xlink:href="#mc4fbc6b9cd" x="100.160738" y="111.691453" style="fill: #1f77b4; stroke: #1f77b4"/>
     <use xlink:href="#mc4fbc6b9cd" x="123.989834" y="97.023106" style="fill: #1f77b4; stroke: #1f77b4"/>
     <use xlink:href="#mc4fbc6b9cd" x="154.554517" y="85.031122" style="fill: #1f77b4; stroke: #1f77b4"/>
     <use xlink:href="#mc4fbc6b9cd" x="186.054826" y="79.761317" style="fill: #1f77b4; stroke: #1f77b4"/>
     <use xlink:href="#mc4fbc6b9cd" x="218.19636" y="79.270484" style="fill: #1f77b4; stroke: #1f77b4"/>
     <use xlink:href="#mc4fbc6b9cd" x="242.583175" y="85.381838" style="fill: #1f77b4; stroke: #1f77b4"/>
     <use xlink:href="#mc4fbc6b9cd" x="271.259271" y="94.449494" style="fill: #1f77b4; stroke: #1f77b4"/>
     <use xlink:href="#mc4fbc6b9cd" x="299.16704" y="111.205974" style="fill: #1f77b4; stroke: #1f77b4"/>
     <use xlink:href="#mc4fbc6b9cd" x="318.445364" y="139.59269" style="fill: #1f77b4; stroke: #1f77b4"/>
     <use xlink:href="#mc4fbc6b9cd" x="274.030371" y="191.645183" style="fill: #1f77b4; stroke: #1f77b4"/>
     <use xlink:href="#mc4fbc6b9cd" x="278.141846" y="122.420966" style="fill: #1f77b4; stroke: #1f77b4"/>
     <use xlink:href="#mc4fbc6b9cd" x="317.82302" y="147.155943" style="fill: #1f77b4; stroke: #1f77b4"/>
     <use xlink:href="#mc4fbc6b9cd" x="326.844379" y="172.140021" style="fill: #1f77b4; stroke: #1f77b4"/>
     <use xlink:href="#mc4fbc6b9cd" x="323.851914" y="193.650774" style="fill: #1f77b4; stroke: #1f77b4"/>
     <use xlink:href="#mc4fbc6b9cd" x="315.454823" y="212.255818" style="fill: #1f77b4; stroke: #1f77b4"/>
     <use xlink:href="#mc4fbc6b9cd" x="299.358455" y="229.908334" style="fill: #1f77b4; stroke: #1f77b4"/>
     <use xlink:href="#mc4fbc6b9cd" x="280.418449" y="242.250023" style="fill: #1f77b4; stroke: #1f77b4"/>
     <use xlink:href="#mc4fbc6b9cd" x="257.254708" y="249.666355" style="fill: #1f77b4; stroke: #1f77b4"/>
     <use xlink:href="#mc4fbc6b9cd" x="231.575801" y="255.375222" style="fill: #1f77b4; stroke: #1f77b4"/>
     <use xlink:href="#mc4fbc6b9cd" x="204.037372" y="254.377197" style="fill: #1f77b4; stroke: #1f77b4"/>
     <use xlink:href="#mc4fbc6b9cd" x="179.933591" y="250.305953" style="fill: #1f77b4; stroke: #1f77b4"/>
     <use xlink:href="#mc4fbc6b9cd" x="159.462959" y="241.512246" style="fill: #1f77b4; stroke: #1f77b4"/>
     <use xlink:href="#mc4fbc6b9cd" x="143.709546" y="231.352364" style="fill: #1f77b4; stroke: #1f77b4"/>
     <use xlink:href="#mc4fbc6b9cd" x="130.393196" y="217.998858" style="fill: #1f77b4; stroke: #1f77b4"/>
     <use xlink:href="#mc4fbc6b9cd" x="120.230796" y="204.932973" style="fill: #1f77b4; stroke: #1f77b4"/>
     <use xlink:href="#mc4fbc6b9cd" x="115.616509" y="190.013738" style="fill: #1f77b4; stroke: #1f77b4"/>
     <use xlink:href="#mc4fbc6b9cd" x="111.375002" y="172.979724" style="fill: #1f77b4; stroke: #1f77b4"/>
     <use xlink:href="#mc4fbc6b9cd" x="113.868188" y="156.342633" style="fill: #1f77b4; stroke: #1f77b4"/>
     <use xlink:href="#mc4fbc6b9cd" x="123.068671" y="139.835715" style="fill: #1f77b4; stroke: #1f77b4"/>
     <use xlink:href="#mc4fbc6b9cd" x="140.567029" y="127.236159" style="fill: #1f77b4; stroke: #1f77b4"/>
     <use xlink:href="#mc4fbc6b9cd" x="161.830494" y="115.486399" style="fill: #1f77b4; stroke: #1f77b4"/>
     <use xlink:href="#mc4fbc6b9cd" x="185.543697" y="108.328849" style="fill: #1f77b4; stroke: #1f77b4"/>
     <use xlink:href="#mc4fbc6b9cd" x="209.310808" y="107.487176" style="fill: #1f77b4; stroke: #1f77b4"/>
     <use xlink:href="#mc4fbc6b9cd" x="233.986075" y="110.540881" style="fill: #1f77b4; stroke: #1f77b4"/>
     <use xlink:href="#mc4fbc6b9cd" x="254.317625" y="118.536836" style="fill: #1f77b4; stroke: #1f77b4"/>
     <use xlink:href="#mc4fbc6b9cd" x="272.63055" y="132.359197" style="fill: #1f77b4; stroke: #1f77b4"/>
     <use xlink:href="#mc4fbc6b9cd" x="282.005914" y="149.715154" style="fill: #1f77b4; stroke: #1f77b4"/>
     <use xlink:href="#mc4fbc6b9cd" x="284.230476" y="165.390123" style="fill: #1f77b4; stroke: #1f77b4"/>
     <use xlink:href="#mc4fbc6b9cd" x="279.048566" y="180.218028" style="fill: #1f77b4; stroke: #1f77b4"/>
     <use xlink:href="#mc4fbc6b9cd" x="267.354144" y="190.931545" style="fill: #1f77b4; stroke: #1f77b4"/>
     <use xlink:href="#mc4fbc6b9cd" x="253.276566" y="196.80664" style="fill: #1f77b4; stroke: #1f77b4"/>
     <use xlink:href="#mc4fbc6b9cd" x="239.225611" y="199.066005" style="fill: #1f77b4; stroke: #1f77b4"/>
     <use xlink:href="#mc4fbc6b9cd" x="228.748598" y="198.671454" style="fill: #1f77b4; stroke: #1f77b4"/>
     <use xlink:href="#mc4fbc6b9cd" x="220.358388" y="196.702653" style="fill: #1f77b4; stroke: #1f77b4"/>
     <use xlink:href="#mc4fbc6b9cd" x="216.975762" y="193.887028" style="fill: #1f77b4; stroke: #1f77b4"/>
     <use xlink:href="#mc4fbc6b9cd" x="215.474048" y="191.516171" style="fill: #1f77b4; stroke: #1f77b4"/>
     <use xlink:href="#mc4fbc6b9cd" x="213.167896" y="189.041145" style="fill: #1f77b4; stroke: #1f77b4"/>
     <use xlink:href="#mc4fbc6b9cd" x="213.435158" y="187.314942" style="fill: #1f77b4; stroke: #1f77b4"/>
     <use xlink:href="#mc4fbc6b9cd" x="213.311074" y="188.504806" style="fill: #1f77b4; stroke: #1f77b4"/>
     <use xlink:href="#mc4fbc6b9cd" x="213.853457" y="189.05118" style="fill: #1f77b4; stroke: #1f77b4"/>
     <use xlink:href="#mc4fbc6b9cd" x="211.709716" y="189.63503" style="fill: #1f77b4; stroke: #1f77b4"/>
     <use xlink:href="#mc4fbc6b9cd" x="211.063025" y="191.356378" style="fill: #1f77b4; stroke: #1f77b4"/>
     <use xlink:href="#mc4fbc6b9cd" x="207.95505" y="193.031903" style="fill: #1f77b4; stroke: #1f77b4"/>
     <use xlink:href="#mc4fbc6b9cd" x="202.657479" y="193.877424" style="fill: #1f77b4; stroke: #1f77b4"/>
     <use xlink:href="#mc4fbc6b9cd" x="198.00599" y="193.200106" style="fill: #1f77b4; stroke: #1f77b4"/>
     <use xlink:href="#mc4fbc6b9cd" x="191.030388" y="193.090771" style="fill: #1f77b4; stroke: #1f77b4"/>
     <use xlink:href="#mc4fbc6b9cd" x="184.859573" y="191.188189" style="fill: #1f77b4; stroke: #1f77b4"/>
     <use xlink:href="#mc4fbc6b9cd" x="179.115717" y="188.156888" style="fill: #1f77b4; stroke: #1f77b4"/>
     <use xlink:href="#mc4fbc6b9cd" x="174.937288" y="182.612635" style="fill: #1f77b4; stroke: #1f77b4"/>
     <use xlink:href="#mc4fbc6b9cd" x="171.247115" y="177.204545" style="fill: #1f77b4; stroke: #1f77b4"/>
     <use xlink:href="#mc4fbc6b9cd" x="169.765653" y="168.779022" style="fill: #1f77b4; stroke: #1f77b4"/>
     <use xlink:href="#mc4fbc6b9cd" x="170.497697" y="163.092717" style="fill: #1f77b4; stroke: #1f77b4"/>
     <use xlink:href="#mc4fbc6b9cd" x="174.106843" y="156.123795" style="fill: #1f77b4; stroke: #1f77b4"/>
     <use xlink:href="#mc4fbc6b9cd" x="179.708553" y="149.403811" style="fill: #1f77b4; stroke: #1f77b4"/>
     <use xlink:href="#mc4fbc6b9cd" x="188.002493" y="144.075459" style="fill: #1f77b4; stroke: #1f77b4"/>
     <use xlink:href="#mc4fbc6b9cd" x="199.893472" y="137.99514" style="fill: #1f77b4; stroke: #1f77b4"/>
     <use xlink:href="#mc4fbc6b9cd" x="213.642299" y="135.001415" style="fill: #1f77b4; stroke: #1f77b4"/>
     <use xlink:href="#mc4fbc6b9cd" x="228.107722" y="134.228377" style="fill: #1f77b4; stroke: #1f77b4"/>
     <use xlink:href="#mc4fbc6b9cd" x="243.336682" y="137.518301" style="fill: #1f77b4; stroke: #1f77b4"/>
     <use xlink:href="#mc4fbc6b9cd" x="256.429285" y="144.141324" style="fill: #1f77b4; stroke: #1f77b4"/>
     <use xlink:href="#mc4fbc6b9cd" x="268.25229" y="153.509334" style="fill: #1f77b4; stroke: #1f77b4"/>
     <use xlink:href="#mc4fbc6b9cd" x="277.012561" y="165.309129" style="fill: #1f77b4; stroke: #1f77b4"/>
     <use xlink:href="#mc4fbc6b9cd" x="281.362875" y="178.375053" style="fill: #1f77b4; stroke: #1f77b4"/>
     <use xlink:href="#mc4fbc6b9cd" x="279.307783" y="192.582567" style="fill: #1f77b4; stroke: #1f77b4"/>
     <use xlink:href="#mc4fbc6b9cd" x="272.072567" y="206.494361" style="fill: #1f77b4; stroke: #1f77b4"/>
     <use xlink:href="#mc4fbc6b9cd" x="260.123949" y="218.037925" style="fill: #1f77b4; stroke: #1f77b4"/>
    </g>
   </g>
   <g id="line2d_18">
    <path d="M 252.472631 133.117209 
L 255.217503 134.561023 
L 257.8659 136.09692 
L 260.411939 137.721521 
L 262.84996 139.431253 
L 265.174542 141.22235 
L 267.380514 143.090869 
L 269.462964 145.032691 
L 271.417254 147.043536 
L 273.23903 149.118969 
L 274.924227 151.254412 
L 276.469084 153.445153 
L 277.870147 155.686356 
L 279.124282 157.97307 
L 280.228678 160.300247 
L 281.180856 162.662744 
L 281.978671 165.055339 
L 282.620321 167.472744 
L 283.10435 169.909614 
L 283.429648 172.360559 
L 283.595459 174.820157 
L 283.601376 177.282965 
L 283.447351 179.743531 
L 283.133685 182.19641 
L 282.661035 184.636168 
L 282.030411 187.057402 
L 281.243172 189.454746 
L 280.301022 191.822889 
L 279.206011 194.156581 
L 277.960528 196.450647 
L 276.567293 198.699999 
L 275.029358 200.899646 
L 273.350092 203.044707 
L 271.533179 205.13042 
L 269.582611 207.152153 
L 267.502674 209.105415 
L 265.297942 210.985865 
L 262.973267 212.789323 
L 260.533769 214.511777 
L 257.984821 216.149394 
L 255.332041 217.698528 
L 252.581278 219.155729 
L 249.738601 220.517747 
L 246.810281 221.781546 
L 243.802782 222.944302 
L 240.722746 224.003418 
L 237.576974 224.956524 
L 234.372418 225.801484 
L 231.116159 226.536401 
L 227.815397 227.159622 
L 224.477429 227.669741 
L 221.109638 228.0656 
L 217.719477 228.346297 
L 214.314445 228.511183 
L 210.902082 228.559864 
L 207.489942 228.492206 
L 204.085582 228.30833 
L 200.696542 228.008617 
L 197.330332 227.593703 
L 193.994413 227.064479 
L 190.69618 226.42209 
L 187.442946 225.667932 
L 184.241928 224.803649 
L 181.100227 223.831129 
L 178.024816 222.7525 
L 175.022522 221.570127 
L 172.100013 220.286602 
L 169.26378 218.904746 
L 166.520126 217.427595 
L 163.87515 215.858399 
L 161.334735 214.200611 
L 158.904532 212.457883 
L 156.58995 210.634055 
L 154.396145 208.733147 
L 152.328004 206.759352 
L 150.390139 204.717025 
L 148.586873 202.610674 
L 146.922233 200.444949 
L 145.39994 198.224634 
L 144.0234 195.954635 
L 142.795696 193.639968 
L 141.719585 191.285751 
L 140.797487 188.89719 
L 140.03148 186.479568 
L 139.423299 184.038235 
L 138.97433 181.578593 
L 138.685605 179.106088 
L 138.557801 176.626194 
L 138.59124 174.144405 
L 138.785887 171.666218 
L 139.14135 169.197125 
L 139.656877 166.742599 
L 140.331366 164.308081 
L 141.163361 161.898972 
L 142.151054 159.520615 
L 143.292295 157.178287 
L 144.584591 154.877187 
L 146.025116 152.622425 
L 147.610712 150.419007 
L 149.337901 148.271828 
L 151.202889 146.18566 
L 153.201576 144.165141 
L 155.329564 142.214763 
L 157.58217 140.338866 
L 159.954431 138.541625 
L 162.441117 136.827041 
L 165.036747 135.198935 
L 167.735592 133.660934 
L 170.531697 132.21647 
L 173.418888 130.868766 
L 176.390787 129.620832 
L 179.440829 128.475458 
L 182.562271 127.435207 
L 185.748213 126.50241 
L 188.991609 125.67916 
L 192.285283 124.967309 
L 195.621946 124.36846 
L 198.994214 123.883969 
L 202.394619 123.514936 
L 205.81563 123.262208 
L 209.249671 123.126372 
L 212.68913 123.107758 
L 216.126386 123.206435 
L 219.553818 123.422213 
L 222.963825 123.754641 
L 226.348844 124.203011 
L 229.701364 124.766356 
L 233.013946 125.443455 
L 236.279235 126.232835 
L 239.489982 127.132772 
L 242.639054 128.141297 
L 245.719455 129.256202 
L 248.724339 130.475039 
L 251.647025 131.795131 
L 254.481013 133.213576 
L 257.219998 134.727252 
L 259.857885 136.332826 
L 262.388798 138.02676 
L 264.807102 139.805319 
L 267.107407 141.66458 
L 269.284582 143.60044 
L 271.33377 145.608624 
L 273.250398 147.684697 
L 275.030181 149.82407 
L 276.66914 152.022016 
L 278.163608 154.273673 
L 279.510233 156.574062 
L 280.705995 158.918093 
L 281.748205 161.300577 
L 282.634514 163.71624 
L 283.362918 166.159732 
L 283.931765 168.625641 
L 284.339754 171.108503 
L 284.585941 173.602815 
L 284.66974 176.103047 
L 284.590927 178.603655 
L 284.349637 181.099093 
L 283.946366 183.583823 
L 283.381969 186.052333 
L 282.657659 188.499142 
L 281.775004 190.918817 
L 280.735923 193.305983 
L 279.542685 195.655339 
L 278.197897 197.961661 
L 276.704507 200.219825 
L 275.065793 202.424807 
L 273.285353 204.571703 
L 271.367104 206.655737 
L 269.315269 208.672269 
L 267.134366 210.616808 
L 264.829204 212.485023 
L 262.404867 214.272751 
L 259.866705 215.976004 
L 257.220322 217.590983 
L 254.471563 219.114083 
L 251.626505 220.541902 
L 248.691435 221.871248 
L 245.672845 223.099148 
L 242.577414 224.222852 
L 239.411991 225.23984 
L 236.183585 226.147831 
L 232.899344 226.944782 
L 229.566544 227.628898 
L 226.192569 228.198632 
L 222.784898 228.652693 
L 219.351085 228.990044 
L 215.898745 229.209909 
L 212.435536 229.311769 
L 208.969142 229.295371 
L 205.507256 229.160723 
L 202.057565 228.908092 
L 198.627728 228.538013 
L 195.225363 228.051277 
L 191.85803 227.448937 
L 188.533212 226.732301 
L 185.258301 225.902931 
L 182.04058 224.962643 
L 178.887204 223.913495 
L 175.805192 222.75779 
L 172.801402 221.498068 
L 169.882524 220.137101 
L 167.055058 218.677884 
L 164.325305 217.123635 
L 161.699349 215.477779 
L 159.183047 213.74395 
L 156.782013 211.925975 
L 154.501607 210.027871 
L 152.346922 208.053832 
L 150.322774 206.008224 
L 148.433689 203.895571 
L 146.683897 201.720548 
L 145.077317 199.487971 
L 143.617552 197.202783 
L 142.307881 194.870046 
L 141.15125 192.494929 
L 140.150264 190.082698 
L 139.307186 187.638699 
L 138.623927 185.168355 
L 138.102045 182.677145 
L 137.742737 180.170597 
L 137.546843 177.654276 
L 137.514839 175.133768 
L 137.646834 172.614672 
L 137.942578 170.102584 
L 138.401454 167.603085 
L 139.022482 165.121733 
L 139.804324 162.664043 
L 140.745281 160.235482 
L 141.843303 157.841452 
L 143.09599 155.487282 
L 144.500596 153.178212 
L 146.054039 150.919382 
L 147.752903 148.715825 
L 149.59345 146.572451 
L 151.571625 144.494038 
L 153.683067 142.485219 
L 155.923117 140.550476 
L 158.286829 138.694128 
L 160.768981 136.920318 
L 163.364085 135.23301 
L 166.066404 133.635976 
L 168.869957 132.132786 
L 171.76854 130.726805 
L 174.755732 129.421183 
L 177.824917 128.218846 
L 180.969294 127.122492 
L 184.181891 126.134586 
L 187.455585 125.25735 
L 190.783113 124.492761 
L 194.157092 123.842549 
L 197.570034 123.308186 
L 201.01436 122.890889 
L 204.482421 122.591617 
L 207.966513 122.411063 
L 211.458893 122.349658 
L 214.951799 122.40757 
L 218.437464 122.584699 
L 221.908137 122.880681 
L 225.356095 123.294889 
L 228.773667 123.82643 
L 232.153245 124.474152 
L 235.487304 125.236644 
L 238.768419 126.112239 
L 241.989278 127.099018 
L 245.142703 128.194815 
L 248.221665 129.39722 
L 251.219297 130.703586 
L 254.12891 132.111033 
L 256.94401 133.616455 
L 259.658313 135.21653 
L 262.265755 136.907722 
L 264.760509 138.686291 
L 267.136996 140.548304 
L 269.389901 142.489639 
L 271.514179 144.505997 
L 273.505072 146.592912 
L 275.358117 148.745757 
L 277.069157 150.959761 
L 278.634348 153.230012 
L 280.05017 155.551472 
L 281.313436 157.918991 
L 282.421296 160.32731 
L 283.371244 162.771081 
L 284.161128 165.244875 
L 284.789148 167.743194 
L 285.253865 170.260484 
L 285.554204 172.791148 
L 285.689455 175.329556 
L 285.659275 177.870061 
L 285.463688 180.407009 
L 285.103088 182.934751 
L 284.578235 185.447659 
L 283.890257 187.940134 
L 283.040642 190.406624 
L 282.031242 192.84163 
L 280.864262 195.239723 
L 279.54226 197.595555 
L 278.068141 199.903869 
L 276.445148 202.159515 
L 274.676855 204.357456 
L 272.767165 206.492783 
L 270.720292 208.560725 
L 268.54076 210.55666 
L 266.233388 212.476125 
L 263.803283 214.314825 
L 261.255825 216.068644 
L 258.596658 217.733654 
L 255.831676 219.306125 
L 252.967009 220.782529 
L 250.009015 222.159554 
L 246.964257 223.434107 
L 243.839497 224.603321 
L 240.641674 225.664566 
L 237.377894 226.615448 
L 234.055412 227.453821 
L 230.681614 228.177788 
L 227.264005 228.785707 
L 223.810189 229.276193 
L 220.327852 229.648122 
L 216.824746 229.900635 
L 213.308674 230.033139 
L 209.787467 230.045307 
L 206.268971 229.937081 
L 202.76103 229.708671 
L 199.271464 229.360555 
L 195.808056 228.893477 
L 192.378533 228.308449 
L 188.990549 227.606742 
L 185.651667 226.789892 
L 182.369343 225.85969 
L 179.150909 224.818179 
L 176.003558 223.667653 
L 172.934326 222.410648 
L 169.950076 221.04994 
L 167.057485 219.588535 
L 164.263027 218.029667 
L 161.572959 216.376786 
L 158.993308 214.633553 
L 156.529855 212.803832 
L 154.188126 210.891683 
L 151.973375 208.901347 
L 149.890575 206.837245 
L 147.944408 204.703961 
L 146.13925 202.506235 
L 144.479164 200.248954 
L 142.967894 197.937137 
L 141.60885 195.575928 
L 140.405103 193.170583 
L 139.359381 190.726456 
L 138.474059 188.248991 
L 137.751154 185.743708 
L 137.192322 183.21619 
L 136.798855 180.672072 
L 136.571673 178.117027 
L 136.511328 175.556755 
L 136.617998 172.996969 
L 136.89149 170.443384 
L 137.331237 167.9017 
L 137.936301 165.377596 
L 138.705377 162.87671 
L 139.636789 160.404633 
L 140.728502 157.966892 
L 141.97812 155.568938 
L 143.382896 153.216136 
L 144.939733 150.913753 
L 146.645195 148.666944 
L 148.495514 146.480741 
L 150.486594 144.360042 
L 152.614028 142.309603 
L 154.873098 140.334022 
L 157.258794 138.437731 
L 159.765821 136.624989 
L 162.38861 134.899866 
L 165.121332 133.266242 
L 167.957912 131.727789 
L 170.892039 130.287972 
L 173.917182 128.950033 
L 177.026607 127.716991 
L 180.213387 126.591628 
L 183.47042 125.57649 
L 186.790446 124.673873 
L 190.166062 123.885827 
L 193.589736 123.214143 
L 197.053829 122.660355 
L 200.550606 122.225731 
L 204.07226 121.911277 
L 207.610923 121.717727 
L 211.158687 121.645548 
L 214.707622 121.694932 
L 218.249792 121.865803 
L 221.777274 122.157812 
L 225.282173 122.570338 
L 228.756646 123.102492 
L 232.192912 123.753115 
L 235.583274 124.520784 
L 238.920135 125.403814 
L 242.196015 126.400261 
L 245.403569 127.507926 
L 248.5356 128.724361 
L 251.585081 130.046875 
L 254.545164 131.472535 
L 257.4092 132.998181 
L 260.170754 134.620425 
L 262.823616 136.335662 
L 265.361818 138.140079 
L 267.779647 140.02966 
L 270.071658 142.0002 
L 272.232684 144.047308 
L 274.25785 146.166422 
L 276.142586 148.352817 
L 277.882631 150.601616 
L 279.474049 152.907799 
L 280.913235 155.266218 
L 282.196924 157.671605 
L 283.322197 160.118584 
L 284.286489 162.601686 
L 285.087596 165.115358 
L 285.723678 167.653977 
L 286.193263 170.211862 
L 286.495255 172.783287 
L 286.628928 175.362492 
L 286.593937 177.943701 
L 286.390313 180.521128 
L 286.018466 183.088996 
L 285.479183 185.641545 
L 284.773625 188.173049 
L 283.903328 190.677827 
L 282.870197 193.150256 
L 281.676504 195.584782 
L 280.324879 197.975936 
L 278.818311 200.318343 
L 277.160134 202.606736 
L 275.354026 204.835966 
L 273.403995 207.001017 
L 271.314377 209.097014 
L 269.08982 211.119235 
L 266.735277 213.063122 
L 264.255995 214.92429 
L 261.657502 216.69854 
L 258.945597 218.381866 
L 256.126334 219.970463 
L 253.206011 221.460738 
L 250.191155 222.84932 
L 247.088508 224.13306 
L 243.905012 225.309048 
L 240.64779 226.374612 
L 237.324137 227.327327 
L 233.941499 228.165023 
L 230.507456 228.885784 
L 227.029707 229.487958 
L 223.516052 229.97016 
L 219.974374 230.33127 
L 216.412624 230.570444 
L 212.838799 230.687108 
L 209.260926 230.680966 
L 205.687047 230.551995 
L 202.125194 230.300452 
L 198.583378 229.926865 
L 195.069568 229.43204 
L 191.591671 228.817054 
L 188.157518 228.083256 
L 184.774844 227.23226 
L 181.451272 226.265948 
L 178.194294 225.186459 
L 175.011255 223.996189 
L 171.909339 222.697784 
L 168.895547 221.294132 
L 165.976687 219.788363 
L 163.159354 218.183834 
L 160.449919 216.484129 
L 157.854511 214.693044 
L 155.379007 212.814586 
L 153.029014 210.852958 
L 150.80986 208.812552 
L 148.72658 206.69794 
L 146.783906 204.513861 
L 144.986254 202.265215 
L 143.337716 199.957049 
L 141.84205 197.594543 
L 140.502671 195.183005 
L 139.322642 192.727854 
L 138.304669 190.23461 
L 137.451095 187.708881 
L 136.763893 185.15635 
L 136.24466 182.582764 
L 135.894617 179.993919 
L 135.714603 177.395647 
L 135.705076 174.793805 
L 135.866106 172.194259 
L 136.197382 169.602875 
L 136.698207 167.025501 
L 137.367502 164.467955 
L 138.203806 161.936015 
L 139.205282 159.435401 
L 140.36972 156.971768 
L 141.694539 154.550687 
L 143.176798 152.177637 
L 144.813195 149.85799 
L 146.600084 147.597001 
L 148.533473 145.399794 
L 150.609039 143.27135 
L 152.822136 141.216498 
L 155.167807 139.239903 
L 157.640791 137.346056 
L 160.235536 135.539262 
L 162.946217 133.823629 
L 165.76674 132.203065 
L 168.690762 130.681263 
L 171.711702 129.261692 
L 174.822759 127.947596 
L 178.016923 126.741977 
L 181.286994 125.647597 
L 184.625596 124.666965 
L 188.025197 123.802335 
L 191.478121 123.0557 
L 194.976569 122.428786 
L 198.512636 121.923048 
L 202.078326 121.539669 
L 205.665575 121.279555 
L 209.266265 121.143333 
L 212.872245 121.131349 
L 216.475345 121.24367 
L 220.067402 121.480079 
L 223.640272 121.840078 
L 227.18585 122.322891 
L 230.696091 122.92746 
L 234.163024 123.652454 
L 237.578776 124.496265 
L 240.935582 125.457017 
L 244.225809 126.532566 
L 247.441973 127.720509 
L 250.576752 129.018185 
L 253.623006 130.422683 
L 256.573792 131.930849 
L 259.422382 133.539292 
L 262.162275 135.24439 
L 264.787213 137.042301 
L 267.291199 138.928971 
L 269.668505 140.900142 
L 271.91369 142.951361 
L 274.021608 145.077991 
L 275.987425 147.275223 
L 277.806626 149.538083 
L 279.475028 151.861446 
L 280.988788 154.240048 
L 282.344413 156.668494 
L 283.538769 159.141277 
L 284.569086 161.652781 
L 285.432966 164.197304 
L 286.128389 166.769063 
L 286.653719 169.36221 
L 287.007703 171.970847 
L 287.189481 174.589036 
L 287.198582 177.210815 
L 287.034931 179.830211 
L 286.698845 182.441252 
L 286.191034 185.037983 
L 285.512601 187.614477 
L 284.665037 190.164852 
L 283.650221 192.683281 
L 282.470416 195.164007 
L 281.128259 197.601357 
L 279.626761 199.989752 
L 277.9693 202.323723 
L 276.159609 204.597922 
L 274.201772 206.807134 
L 272.100215 208.946291 
L 269.859693 211.01048 
L 267.485282 212.994959 
L 264.982367 214.895164 
L 262.35663 216.706722 
L 259.614037 218.425459 
L 256.760824 220.047413 
L 253.803485 221.568838 
L 250.748756 222.98622 
L 247.603598 224.296278 
L 244.375185 225.495976 
L 241.070886 226.58253 
L 237.698248 227.553411 
L 234.264977 228.406356 
L 230.778926 229.13937 
L 227.24807 229.750732 
L 223.680495 230.238999 
L 220.084375 230.60301 
L 216.467952 230.841887 
L 212.839524 230.95504 
L 209.207418 230.942167 
L 205.579976 230.803256 
L 201.965535 230.538583 
L 198.372406 230.148713 
L 194.808857 229.634502 
L 191.283094 228.997089 
L 187.803238 228.2379 
L 184.377315 227.35864 
L 181.013226 226.361292 
L 177.718739 225.248113 
L 174.501465 224.021626 
L 171.368842 222.68462 
L 168.328119 221.240137 
L 165.386337 219.691471 
L 162.550313 218.042159 
L 159.826626 216.295969 
L 157.221598 214.456899 
L 154.741284 212.529161 
L 152.391453 210.517177 
L 150.177578 208.425566 
L 148.104821 206.259131 
L 146.178021 204.022857 
L 144.401685 201.721888 
L 142.779971 199.361526 
L 141.316687 196.947211 
L 140.015273 194.484513 
L 138.878799 191.979118 
L 137.909954 189.436814 
L 137.111041 186.863479 
L 136.483971 184.265069 
L 136.030258 181.6476 
L 135.751014 179.017137 
L 135.646947 176.379781 
L 135.718361 173.741652 
L 135.96515 171.108878 
L 136.386802 168.487577 
L 136.982397 165.883846 
L 137.750611 163.303747 
L 138.689717 160.753289 
L 139.797588 158.238419 
L 141.071705 155.765004 
L 142.509157 153.33882 
L 144.106651 150.965538 
L 145.86052 148.650709 
L 147.766727 146.399751 
L 149.820877 144.217941 
L 152.018227 142.110395 
L 154.353694 140.082061 
L 156.821871 138.137707 
L 159.417033 136.281907 
L 162.133155 134.519032 
L 164.963925 132.853241 
L 167.902754 131.288466 
L 170.942798 129.828409 
L 174.076969 128.476526 
L 177.297949 127.236026 
L 180.598216 126.109857 
L 183.970049 125.100702 
L 187.405558 124.210973 
L 190.896692 123.4428 
L 194.435265 122.798033 
L 198.01297 122.278229 
L 201.621402 121.884658 
L 205.252076 121.618288 
L 208.896445 121.479792 
L 212.545925 121.469541 
L 216.191909 121.587604 
L 219.825792 121.833746 
L 223.438989 122.207431 
L 227.022956 122.70782 
L 230.56921 123.333774 
L 234.069349 124.083855 
L 237.515071 124.956331 
L 240.898196 125.949178 
L 244.210686 127.060083 
L 247.444659 128.286454 
L 250.592414 129.625418 
L 253.646447 131.073835 
L 256.599468 132.628301 
L 259.444421 134.285155 
L 262.1745 136.040489 
L 264.783164 137.890158 
L 267.264157 139.829785 
L 269.611519 141.854775 
L 271.819604 143.960325 
L 273.883093 146.141435 
L 275.797005 148.392915 
L 277.556713 150.709407 
L 279.157955 153.085385 
L 280.596842 155.515179 
L 281.869873 157.992982 
L 282.973937 160.512865 
L 283.906331 163.068792 
L 284.664756 165.654632 
L 285.247333 168.264175 
L 285.652604 170.891149 
L 285.879535 173.52923 
L 285.927522 176.172061 
L 285.796394 178.813266 
L 285.48641 181.446464 
L 284.998264 184.065286 
L 284.333084 186.663393 
L 283.492424 189.234484 
L 282.478271 191.772317 
L 281.293031 194.270725 
L 279.939535 196.723627 
L 278.421021 199.125046 
L 276.741137 201.469121 
L 274.90393 203.750125 
L 272.913834 205.962478 
L 270.775664 208.100759 
L 268.494604 210.15972 
L 266.076195 212.134304 
L 263.526323 214.01965 
L 260.851203 215.811111 
L 258.057369 217.504266 
L 255.151655 219.094927 
L 252.141181 220.579155 
L 249.033336 221.953266 
L 245.83576 223.213845 
L 242.556326 224.357751 
L 239.20312 225.382128 
L 235.784427 226.284413 
L 232.308703 227.062341 
L 228.78456 227.713954 
L 225.220746 228.237606 
L 221.626117 228.631965 
L 218.009625 228.896024 
L 214.380286 229.029096 
L 210.747166 229.030824 
L 207.119353 228.90118 
L 203.505938 228.640464 
L 199.915989 228.249308 
L 196.358531 227.728673 
L 192.842522 227.07985 
L 189.37683 226.304454 
L 185.970211 225.404425 
L 182.631285 224.382023 
L 179.368518 223.239821 
L 176.190193 221.980704 
L 173.104394 220.607859 
L 170.118985 219.124768 
L 167.241583 217.535204 
L 164.479546 215.84322 
L 161.839947 214.053138 
L 159.329558 212.169541 
L 156.954828 210.197264 
L 154.72187 208.141377 
L 152.636441 206.007179 
L 150.703925 203.800182 
L 148.929321 201.526098 
L 147.317223 199.190825 
L 145.871812 196.800433 
L 144.596839 194.36115 
L 143.495618 191.879342 
L 142.57101 189.361502 
L 141.825417 186.814232 
L 141.260772 184.244225 
L 140.878534 181.658248 
L 140.679679 179.063126 
L 140.664697 176.465721 
L 140.833587 173.87292 
L 141.185859 171.291608 
L 141.720524 168.728659 
L 142.436103 166.190911 
L 143.330625 163.685148 
L 144.401629 161.218085 
L 145.646167 158.796347 
L 147.060816 156.426451 
L 148.641674 154.114786 
L 150.384379 151.8676 
L 152.28411 149.690975 
L 154.335603 147.590815 
L 156.533161 145.572827 
L 158.870665 143.642501 
L 161.341592 141.8051 
L 163.93903 140.065638 
L 166.655694 138.428868 
L 169.483944 136.899263 
L 172.415805 135.481007 
L 175.442986 134.177979 
L 178.556905 132.993737 
L 181.748708 131.931511 
L 185.009293 130.994187 
L 188.329336 130.184301 
L 191.699317 129.504023 
L 195.109543 128.955154 
L 198.550177 128.539116 
L 202.011268 128.256945 
L 205.482775 128.109282 
L 208.954599 128.096375 
L 212.416613 128.218071 
L 215.85869 128.473812 
L 219.270734 128.862636 
L 222.642714 129.383178 
L 225.964688 130.033668 
L 229.226842 130.811933 
L 232.419516 131.715403 
L 235.533237 132.741114 
L 238.558752 133.885715 
L 241.487052 135.145473 
L 244.309413 136.516284 
L 247.017416 137.993681 
L 249.602984 139.572844 
L 252.058406 141.248618 
L 254.37637 143.015518 
L 256.549985 144.867752 
L 258.572813 146.799232 
L 260.438891 148.803593 
L 262.142758 150.874211 
L 263.679475 153.004223 
L 265.044651 155.186551 
L 266.234459 157.413917 
L 267.245658 159.678872 
L 268.075611 161.97382 
L 268.722296 164.291037 
L 269.184323 166.622706 
L 269.460946 168.960937 
L 269.552071 171.297795 
L 269.458261 173.625333 
L 269.180747 175.935616 
L 268.721426 178.220752 
L 268.082863 180.472926 
L 267.268286 182.684421 
L 266.281588 184.847657 
L 265.127309 186.955219 
L 263.810637 188.999887 
L 262.337386 190.974665 
L 260.713984 192.872814 
L 258.947455 194.687882 
L 257.045396 196.41373 
L 255.015952 198.044565 
L 252.86779 199.574965 
L 250.610068 200.999906 
L 248.252404 202.314791 
L 245.804834 203.515469 
L 243.277783 204.598264 
L 240.682015 205.559993 
L 238.028595 206.397987 
L 235.32884 207.110107 
L 232.594271 207.694764 
L 229.836565 208.150927 
L 227.067497 208.478138 
L 224.298894 208.67652 
L 221.542571 208.746783 
L 218.810279 208.690224 
L 216.113647 208.508731 
L 213.464121 208.20478 
L 210.872906 207.781425 
L 208.350908 207.242292 
L 205.908674 206.591567 
L 203.556333 205.833977 
L 201.303541 204.974774 
L 199.159424 204.019707 
L 197.132522 202.975003 
L 195.230743 201.847334 
L 193.461305 200.643781 
L 191.830698 199.371805 
L 190.344637 198.039204 
L 189.008024 196.654071 
L 187.824914 195.224754 
L 186.798483 193.759803 
L 185.931005 192.267926 
L 185.22383 190.757936 
L 184.677374 189.238701 
L 184.291105 187.719087 
L 184.063544 186.207906 
L 183.992268 184.713859 
L 184.073922 183.245481 
L 184.304234 181.811091 
L 184.67804 180.418729 
L 185.189311 179.076109 
L 185.831193 177.790569 
L 186.596049 176.569014 
L 187.475505 175.417878 
L 188.460507 174.343074 
L 189.54138 173.349955 
L 190.707894 172.443278 
L 191.949332 171.627168 
L 194.612133 170.279841 
L 197.437216 169.327418 
L 200.329273 168.777939 
L 203.192952 168.627861 
L 205.935571 168.862215 
L 208.469753 169.455128 
L 210.715893 170.370657 
L 212.604372 171.563942 
L 214.077453 172.982613 
L 214.643804 173.758443 
L 215.090783 174.568405 
L 215.415115 175.404587 
L 215.614469 176.258933 
L 215.687469 177.123307 
L 215.633695 177.98955 
L 215.453676 178.849538 
L 215.148878 179.695241 
L 214.721683 180.518777 
L 214.175364 181.312468 
L 213.514053 182.06889 
L 211.867031 183.441807 
L 209.82925 184.58503 
L 207.460129 185.452944 
L 204.828029 186.007884 
L 202.008235 186.220937 
L 199.080834 186.072483 
L 196.128559 185.552464 
L 193.234657 184.6604 
L 190.480839 183.405155 
L 187.945366 181.804488 
L 185.701303 179.88441 
L 184.70958 178.814782 
L 183.814984 177.678381 
L 183.02454 176.480397 
L 182.344702 175.226367 
L 181.781324 173.922132 
L 181.33964 172.573808 
L 181.02424 171.18775 
L 180.839057 169.770511 
L 180.787355 168.328812 
L 180.87172 166.869501 
L 181.094055 165.399522 
L 181.45558 163.925873 
L 181.956835 162.455577 
L 182.597684 160.995645 
L 183.377324 159.553042 
L 184.294298 158.134657 
L 185.34651 156.747269 
L 186.531239 155.39752 
L 187.845162 154.091884 
L 189.284375 152.836641 
L 190.844415 151.637851 
L 192.520288 150.501329 
L 194.306498 149.432623 
L 196.197071 148.436996 
L 198.185592 147.5194 
L 200.265232 146.684466 
L 204.668686 145.279382 
L 209.345819 144.25173 
L 214.23059 143.625469 
L 219.253659 143.418273 
L 224.343524 143.641377 
L 229.427647 144.299523 
L 234.433551 145.39101 
L 236.8848 146.096996 
L 239.289879 146.907831 
L 241.640209 147.821567 
L 243.927402 148.83589 
L 246.143292 149.948135 
L 248.27996 151.155301 
L 250.329758 152.454057 
L 252.285336 153.84076 
L 254.139662 155.311471 
L 255.886046 156.861967 
L 257.518158 158.487761 
L 259.030046 160.184113 
L 260.416157 161.946054 
L 261.671347 163.768399 
L 262.790899 165.645769 
L 263.770533 167.572607 
L 264.606419 169.543196 
L 265.295186 171.551682 
L 265.833929 173.592091 
L 266.220215 175.658349 
L 266.452089 177.744301 
L 266.528076 179.843732 
L 266.447187 181.950385 
L 266.208912 184.057982 
L 265.813225 186.160242 
L 265.260579 188.250903 
L 264.551904 190.323735 
L 263.688599 192.372566 
L 262.672526 194.391293 
L 261.506004 196.373908 
L 260.1918 198.314506 
L 258.733115 200.207309 
L 257.133578 202.046681 
L 255.397227 203.827142 
L 253.528503 205.543385 
L 251.532227 207.190288 
L 249.413593 208.762933 
L 247.178143 210.256614 
L 244.831757 211.666853 
L 242.380631 212.989411 
L 239.831258 214.220297 
L 237.190409 215.355783 
L 234.465115 216.392409 
L 231.662642 217.326994 
L 231.662642 217.326994 
" clip-path="url(#p2644af9830)" style="fill: none; stroke: #d62728; stroke-width: 1.5; stroke-linecap: square"/>
   </g>
   <g id="patch_3">
    <path d="M 47.389063 307.872 
L 47.389063 41.76 
" style="fill: none; stroke: #000000; stroke-width: 0.8; stroke-linejoin: miter; stroke-linecap: square"/>
   </g>
   <g id="patch_4">
    <path d="M 404.509063 307.872 
L 404.509063 41.76 
" style="fill: none; stroke: #000000; stroke-width: 0.8; stroke-linejoin: miter; stroke-linecap: square"/>
   </g>
   <g id="patch_5">
    <path d="M 47.389063 307.872 
L 404.509063 307.872 
" style="fill: none; stroke: #000000; stroke-width: 0.8; stroke-linejoin: miter; stroke-linecap: square"/>
   </g>
   <g id="patch_6">
    <path d="M 47.389063 41.76 
L 404.509063 41.76 
" style="fill: none; stroke: #000000; stroke-width: 0.8; stroke-linejoin: miter; stroke-linecap: square"/>
   </g>
   <g id="text_19">
    <g id="patch_7">
     <path d="M 422.365063 102.337163 
L 532.365063 102.337163 
Q 536.365063 102.337163 536.365063 98.337163 
L 536.365063 55.0656 
Q 536.365063 51.0656 532.365063 51.0656 
L 422.365063 51.0656 
Q 418.365063 51.0656 418.365063 55.0656 
L 418.365063 98.337163 
Q 418.365063 102.337163 422.365063 102.337163 
z
" style="fill: #ffffff; opacity: 0.5; stroke: #000000; stroke-linejoin: miter"/>
    </g>
    <!-- Summary -->
    <g transform="translate(422.365063 62.664038) scale(0.1 -0.1)">
     <defs>
      <path id="DejaVuSans-53" d="M 3425 4513 
L 3425 3897 
Q 3066 4069 2747 4153 
Q 2428 4238 2131 4238 
Q 1616 4238 1336 4038 
Q 1056 3838 1056 3469 
Q 1056 3159 1242 3001 
Q 1428 2844 1947 2747 
L 2328 2669 
Q 3034 2534 3370 2195 
Q 3706 1856 3706 1288 
Q 3706 609 3251 259 
Q 2797 -91 1919 -91 
Q 1588 -91 1214 -16 
Q 841 59 441 206 
L 441 856 
Q 825 641 1194 531 
Q 1563 422 1919 422 
Q 2459 422 2753 634 
Q 3047 847 3047 1241 
Q 3047 1584 2836 1778 
Q 2625 1972 2144 2069 
L 1759 2144 
Q 1053 2284 737 2584 
Q 422 2884 422 3419 
Q 422 4038 858 4394 
Q 1294 4750 2059 4750 
Q 2388 4750 2728 4690 
Q 3069 4631 3425 4513 
z
" transform="scale(0.015625)"/>
      <path id="DejaVuSans-75" d="M 544 1381 
L 544 3500 
L 1119 3500 
L 1119 1403 
Q 1119 906 1312 657 
Q 1506 409 1894 409 
Q 2359 409 2629 706 
Q 2900 1003 2900 1516 
L 2900 3500 
L 3475 3500 
L 3475 0 
L 2900 0 
L 2900 538 
Q 2691 219 2414 64 
Q 2138 -91 1772 -91 
Q 1169 -91 856 284 
Q 544 659 544 1381 
z
M 1991 3584 
L 1991 3584 
z
" transform="scale(0.015625)"/>
      <path id="DejaVuSans-61" d="M 2194 1759 
Q 1497 1759 1228 1600 
Q 959 1441 959 1056 
Q 959 750 1161 570 
Q 1363 391 1709 391 
Q 2188 391 2477 730 
Q 2766 1069 2766 1631 
L 2766 1759 
L 2194 1759 
z
M 3341 1997 
L 3341 0 
L 2766 0 
L 2766 531 
Q 2569 213 2275 61 
Q 1981 -91 1556 -91 
Q 1019 -91 701 211 
Q 384 513 384 1019 
Q 384 1609 779 1909 
Q 1175 2209 1959 2209 
L 2766 2209 
L 2766 2266 
Q 2766 2663 2505 2880 
Q 2244 3097 1772 3097 
Q 1472 3097 1187 3025 
Q 903 2953 641 2809 
L 641 3341 
Q 956 3463 1253 3523 
Q 1550 3584 1831 3584 
Q 2591 3584 2966 3190 
Q 3341 2797 3341 1997 
z
" transform="scale(0.015625)"/>
      <path id="DejaVuSans-72" d="M 2631 2963 
Q 2534 3019 2420 3045 
Q 2306 3072 2169 3072 
Q 1681 3072 1420 2755 
Q 1159 2438 1159 1844 
L 1159 0 
L 581 0 
L 581 3500 
L 1159 3500 
L 1159 2956 
Q 1341 3275 1631 3429 
Q 1922 3584 2338 3584 
Q 2397 3584 2469 3576 
Q 2541 3569 2628 3553 
L 2631 2963 
z
" transform="scale(0.015625)"/>
      <path id="DejaVuSans-79" d="M 2059 -325 
Q 1816 -950 1584 -1140 
Q 1353 -1331 966 -1331 
L 506 -1331 
L 506 -850 
L 844 -850 
Q 1081 -850 1212 -737 
Q 1344 -625 1503 -206 
L 1606 56 
L 191 3500 
L 800 3500 
L 1894 763 
L 2988 3500 
L 3597 3500 
L 2059 -325 
z
" transform="scale(0.015625)"/>
     </defs>
     <use xlink:href="#DejaVuSans-53"/>
     <use xlink:href="#DejaVuSans-75" x="63.476562"/>
     <use xlink:href="#DejaVuSans-6d" x="126.855469"/>
     <use xlink:href="#DejaVuSans-6d" x="224.267578"/>
     <use xlink:href="#DejaVuSans-61" x="321.679688"/>
     <use xlink:href="#DejaVuSans-72" x="382.958984"/>
     <use xlink:href="#DejaVuSans-79" x="424.072266"/>
    </g>
    <!-- $Q_I$: -1.2$\pm$3.0 k -->
    <g transform="translate(422.365063 73.86185) scale(0.1 -0.1)">
     <defs>
      <path id="DejaVuSans-Oblique-51" d="M 2309 -84 
Q 2275 -88 2237 -89 
Q 2200 -91 2125 -91 
Q 1250 -91 756 411 
Q 263 913 263 1797 
Q 263 2319 452 2844 
Q 641 3369 978 3788 
Q 1369 4269 1858 4509 
Q 2347 4750 2938 4750 
Q 3794 4750 4287 4245 
Q 4781 3741 4781 2869 
Q 4781 1928 4265 1147 
Q 3750 366 2919 44 
L 3553 -825 
L 2847 -825 
L 2309 -84 
z
M 2919 4238 
Q 2400 4238 2003 3986 
Q 1606 3734 1313 3219 
Q 1125 2891 1026 2522 
Q 928 2153 928 1778 
Q 928 1128 1239 775 
Q 1550 422 2119 422 
Q 2631 422 3032 676 
Q 3434 931 3719 1434 
Q 3909 1772 4009 2142 
Q 4109 2513 4109 2881 
Q 4109 3528 3796 3883 
Q 3484 4238 2919 4238 
z
" transform="scale(0.015625)"/>
      <path id="DejaVuSans-Oblique-49" d="M 1081 4666 
L 1716 4666 
L 806 0 
L 172 0 
L 1081 4666 
z
" transform="scale(0.015625)"/>
      <path id="DejaVuSans-3a" d="M 750 794 
L 1409 794 
L 1409 0 
L 750 0 
L 750 794 
z
M 750 3309 
L 1409 3309 
L 1409 2516 
L 750 2516 
L 750 3309 
z
" transform="scale(0.015625)"/>
      <path id="DejaVuSans-b1" d="M 2944 4013 
L 2944 2803 
L 4684 2803 
L 4684 2272 
L 2944 2272 
L 2944 1063 
L 2419 1063 
L 2419 2272 
L 678 2272 
L 678 2803 
L 2419 2803 
L 2419 4013 
L 2944 4013 
z
M 678 531 
L 4684 531 
L 4684 0 
L 678 0 
L 678 531 
z
" transform="scale(0.015625)"/>
      <path id="DejaVuSans-33" d="M 2597 2516 
Q 3050 2419 3304 2112 
Q 3559 1806 3559 1356 
Q 3559 666 3084 287 
Q 2609 -91 1734 -91 
Q 1441 -91 1130 -33 
Q 819 25 488 141 
L 488 750 
Q 750 597 1062 519 
Q 1375 441 1716 441 
Q 2309 441 2620 675 
Q 2931 909 2931 1356 
Q 2931 1769 2642 2001 
Q 2353 2234 1838 2234 
L 1294 2234 
L 1294 2753 
L 1863 2753 
Q 2328 2753 2575 2939 
Q 2822 3125 2822 3475 
Q 2822 3834 2567 4026 
Q 2313 4219 1838 4219 
Q 1578 4219 1281 4162 
Q 984 4106 628 3988 
L 628 4550 
Q 988 4650 1302 4700 
Q 1616 4750 1894 4750 
Q 2613 4750 3031 4423 
Q 3450 4097 3450 3541 
Q 3450 3153 3228 2886 
Q 3006 2619 2597 2516 
z
" transform="scale(0.015625)"/>
      <path id="DejaVuSans-6b" d="M 581 4863 
L 1159 4863 
L 1159 1991 
L 2875 3500 
L 3609 3500 
L 1753 1863 
L 3688 0 
L 2938 0 
L 1159 1709 
L 1159 0 
L 581 0 
L 581 4863 
z
" transform="scale(0.015625)"/>
     </defs>
     <use xlink:href="#DejaVuSans-Oblique-51" transform="translate(0 0.015625)"/>
     <use xlink:href="#DejaVuSans-Oblique-49" transform="translate(78.710938 -16.390625) scale(0.7)"/>
     <use xlink:href="#DejaVuSans-3a" transform="translate(102.089844 0.015625)"/>
     <use xlink:href="#DejaVuSans-20" transform="translate(135.78125 0.015625)"/>
     <use xlink:href="#DejaVuSans-2d" transform="translate(167.568359 0.015625)"/>
     <use xlink:href="#DejaVuSans-31" transform="translate(203.652344 0.015625)"/>
     <use xlink:href="#DejaVuSans-2e" transform="translate(267.275391 0.015625)"/>
     <use xlink:href="#DejaVuSans-32" transform="translate(293.5625 0.015625)"/>
     <use xlink:href="#DejaVuSans-b1" transform="translate(357.185547 0.015625)"/>
     <use xlink:href="#DejaVuSans-33" transform="translate(440.974609 0.015625)"/>
     <use xlink:href="#DejaVuSans-2e" transform="translate(504.597656 0.015625)"/>
     <use xlink:href="#DejaVuSans-30" transform="translate(536.384766 0.015625)"/>
     <use xlink:href="#DejaVuSans-20" transform="translate(600.007812 0.015625)"/>
     <use xlink:href="#DejaVuSans-6b" transform="translate(631.794922 0.015625)"/>
    </g>
    <!-- $Q_C$: 61$\pm$14  -->
    <g transform="translate(422.365063 85.059663) scale(0.1 -0.1)">
     <defs>
      <path id="DejaVuSans-Oblique-43" d="M 4447 4306 
L 4319 3641 
Q 4019 3944 3683 4091 
Q 3347 4238 2956 4238 
Q 2422 4238 2017 3981 
Q 1613 3725 1319 3200 
Q 1131 2863 1032 2486 
Q 934 2109 934 1728 
Q 934 1091 1264 756 
Q 1594 422 2222 422 
Q 2656 422 3056 561 
Q 3456 700 3834 978 
L 3688 231 
Q 3316 72 2936 -9 
Q 2556 -91 2175 -91 
Q 1278 -91 773 396 
Q 269 884 269 1753 
Q 269 2309 461 2846 
Q 653 3384 1013 3828 
Q 1394 4300 1883 4525 
Q 2372 4750 3022 4750 
Q 3422 4750 3780 4639 
Q 4138 4528 4447 4306 
z
" transform="scale(0.015625)"/>
     </defs>
     <use xlink:href="#DejaVuSans-Oblique-51" transform="translate(0 0.78125)"/>
     <use xlink:href="#DejaVuSans-Oblique-43" transform="translate(78.710938 -15.625) scale(0.7)"/>
     <use xlink:href="#DejaVuSans-3a" transform="translate(130.322266 0.78125)"/>
     <use xlink:href="#DejaVuSans-20" transform="translate(164.013672 0.78125)"/>
     <use xlink:href="#DejaVuSans-36" transform="translate(195.800781 0.78125)"/>
     <use xlink:href="#DejaVuSans-31" transform="translate(259.423828 0.78125)"/>
     <use xlink:href="#DejaVuSans-b1" transform="translate(323.046875 0.78125)"/>
     <use xlink:href="#DejaVuSans-31" transform="translate(406.835938 0.78125)"/>
     <use xlink:href="#DejaVuSans-34" transform="translate(470.458984 0.78125)"/>
     <use xlink:href="#DejaVuSans-20" transform="translate(534.082031 0.78125)"/>
    </g>
    <!-- $f_{res}$: 6.230$\pm$0.015 GHz -->
    <g transform="translate(422.365063 96.257475) scale(0.1 -0.1)">
     <defs>
      <path id="DejaVuSans-Oblique-66" d="M 3059 4863 
L 2969 4384 
L 2419 4384 
Q 2106 4384 1964 4261 
Q 1822 4138 1753 3809 
L 1691 3500 
L 2638 3500 
L 2553 3053 
L 1606 3053 
L 1013 0 
L 434 0 
L 1031 3053 
L 481 3053 
L 563 3500 
L 1113 3500 
L 1159 3744 
Q 1278 4363 1576 4613 
Q 1875 4863 2516 4863 
L 3059 4863 
z
" transform="scale(0.015625)"/>
      <path id="DejaVuSans-Oblique-72" d="M 2853 2969 
Q 2766 3016 2653 3041 
Q 2541 3066 2413 3066 
Q 1953 3066 1609 2717 
Q 1266 2369 1153 1784 
L 800 0 
L 225 0 
L 909 3500 
L 1484 3500 
L 1375 2956 
Q 1603 3259 1920 3421 
Q 2238 3584 2597 3584 
Q 2691 3584 2781 3573 
Q 2872 3563 2963 3538 
L 2853 2969 
z
" transform="scale(0.015625)"/>
      <path id="DejaVuSans-Oblique-65" d="M 3078 2063 
Q 3088 2113 3092 2166 
Q 3097 2219 3097 2272 
Q 3097 2653 2873 2875 
Q 2650 3097 2266 3097 
Q 1838 3097 1509 2826 
Q 1181 2556 1013 2059 
L 3078 2063 
z
M 3578 1613 
L 903 1613 
Q 884 1494 878 1425 
Q 872 1356 872 1306 
Q 872 872 1139 634 
Q 1406 397 1894 397 
Q 2269 397 2603 481 
Q 2938 566 3225 728 
L 3116 159 
Q 2806 34 2476 -28 
Q 2147 -91 1806 -91 
Q 1078 -91 686 257 
Q 294 606 294 1247 
Q 294 1794 489 2264 
Q 684 2734 1063 3103 
Q 1306 3334 1642 3459 
Q 1978 3584 2356 3584 
Q 2950 3584 3301 3228 
Q 3653 2872 3653 2272 
Q 3653 2128 3634 1964 
Q 3616 1800 3578 1613 
z
" transform="scale(0.015625)"/>
      <path id="DejaVuSans-Oblique-73" d="M 3200 3397 
L 3091 2853 
Q 2863 2978 2609 3040 
Q 2356 3103 2088 3103 
Q 1634 3103 1373 2948 
Q 1113 2794 1113 2528 
Q 1113 2219 1719 2053 
Q 1766 2041 1788 2034 
L 1972 1978 
Q 2547 1819 2739 1644 
Q 2931 1469 2931 1166 
Q 2931 609 2489 259 
Q 2047 -91 1331 -91 
Q 1053 -91 747 -37 
Q 441 16 72 128 
L 184 722 
Q 500 559 806 475 
Q 1113 391 1394 391 
Q 1816 391 2080 572 
Q 2344 753 2344 1031 
Q 2344 1331 1650 1516 
L 1591 1531 
L 1394 1581 
Q 956 1697 753 1886 
Q 550 2075 550 2369 
Q 550 2928 970 3256 
Q 1391 3584 2113 3584 
Q 2397 3584 2667 3537 
Q 2938 3491 3200 3397 
z
" transform="scale(0.015625)"/>
      <path id="DejaVuSans-47" d="M 3809 666 
L 3809 1919 
L 2778 1919 
L 2778 2438 
L 4434 2438 
L 4434 434 
Q 4069 175 3628 42 
Q 3188 -91 2688 -91 
Q 1594 -91 976 548 
Q 359 1188 359 2328 
Q 359 3472 976 4111 
Q 1594 4750 2688 4750 
Q 3144 4750 3555 4637 
Q 3966 4525 4313 4306 
L 4313 3634 
Q 3963 3931 3569 4081 
Q 3175 4231 2741 4231 
Q 1884 4231 1454 3753 
Q 1025 3275 1025 2328 
Q 1025 1384 1454 906 
Q 1884 428 2741 428 
Q 3075 428 3337 486 
Q 3600 544 3809 666 
z
" transform="scale(0.015625)"/>
      <path id="DejaVuSans-48" d="M 628 4666 
L 1259 4666 
L 1259 2753 
L 3553 2753 
L 3553 4666 
L 4184 4666 
L 4184 0 
L 3553 0 
L 3553 2222 
L 1259 2222 
L 1259 0 
L 628 0 
L 628 4666 
z
" transform="scale(0.015625)"/>
      <path id="DejaVuSans-7a" d="M 353 3500 
L 3084 3500 
L 3084 2975 
L 922 459 
L 3084 459 
L 3084 0 
L 275 0 
L 275 525 
L 2438 3041 
L 353 3041 
L 353 3500 
z
" transform="scale(0.015625)"/>
     </defs>
     <use xlink:href="#DejaVuSans-Oblique-66" transform="translate(0 0.015625)"/>
     <use xlink:href="#DejaVuSans-Oblique-72" transform="translate(35.205078 -16.390625) scale(0.7)"/>
     <use xlink:href="#DejaVuSans-Oblique-65" transform="translate(63.984375 -16.390625) scale(0.7)"/>
     <use xlink:href="#DejaVuSans-Oblique-73" transform="translate(107.050781 -16.390625) scale(0.7)"/>
     <use xlink:href="#DejaVuSans-3a" transform="translate(146.254883 0.015625)"/>
     <use xlink:href="#DejaVuSans-20" transform="translate(179.946289 0.015625)"/>
     <use xlink:href="#DejaVuSans-36" transform="translate(211.733398 0.015625)"/>
     <use xlink:href="#DejaVuSans-2e" transform="translate(275.356445 0.015625)"/>
     <use xlink:href="#DejaVuSans-32" transform="translate(301.643555 0.015625)"/>
     <use xlink:href="#DejaVuSans-33" transform="translate(365.266602 0.015625)"/>
     <use xlink:href="#DejaVuSans-30" transform="translate(428.889648 0.015625)"/>
     <use xlink:href="#DejaVuSans-b1" transform="translate(492.512695 0.015625)"/>
     <use xlink:href="#DejaVuSans-30" transform="translate(576.301758 0.015625)"/>
     <use xlink:href="#DejaVuSans-2e" transform="translate(639.924805 0.015625)"/>
     <use xlink:href="#DejaVuSans-30" transform="translate(671.711914 0.015625)"/>
     <use xlink:href="#DejaVuSans-31" transform="translate(735.334961 0.015625)"/>
     <use xlink:href="#DejaVuSans-35" transform="translate(798.958008 0.015625)"/>
     <use xlink:href="#DejaVuSans-20" transform="translate(862.581055 0.015625)"/>
     <use xlink:href="#DejaVuSans-47" transform="translate(894.368164 0.015625)"/>
     <use xlink:href="#DejaVuSans-48" transform="translate(971.858398 0.015625)"/>
     <use xlink:href="#DejaVuSans-7a" transform="translate(1047.053711 0.015625)"/>
    </g>
   </g>
  </g>
  <g id="text_20">
   <!-- S21 resonator spectroscopy -->
   <g transform="translate(136.404688 16.318125) scale(0.12 -0.12)">
    <defs>
     <path id="DejaVuSans-73" d="M 2834 3397 
L 2834 2853 
Q 2591 2978 2328 3040 
Q 2066 3103 1784 3103 
Q 1356 3103 1142 2972 
Q 928 2841 928 2578 
Q 928 2378 1081 2264 
Q 1234 2150 1697 2047 
L 1894 2003 
Q 2506 1872 2764 1633 
Q 3022 1394 3022 966 
Q 3022 478 2636 193 
Q 2250 -91 1575 -91 
Q 1294 -91 989 -36 
Q 684 19 347 128 
L 347 722 
Q 666 556 975 473 
Q 1284 391 1588 391 
Q 1994 391 2212 530 
Q 2431 669 2431 922 
Q 2431 1156 2273 1281 
Q 2116 1406 1581 1522 
L 1381 1569 
Q 847 1681 609 1914 
Q 372 2147 372 2553 
Q 372 3047 722 3315 
Q 1072 3584 1716 3584 
Q 2034 3584 2315 3537 
Q 2597 3491 2834 3397 
z
" transform="scale(0.015625)"/>
     <path id="DejaVuSans-6f" d="M 1959 3097 
Q 1497 3097 1228 2736 
Q 959 2375 959 1747 
Q 959 1119 1226 758 
Q 1494 397 1959 397 
Q 2419 397 2687 759 
Q 2956 1122 2956 1747 
Q 2956 2369 2687 2733 
Q 2419 3097 1959 3097 
z
M 1959 3584 
Q 2709 3584 3137 3096 
Q 3566 2609 3566 1747 
Q 3566 888 3137 398 
Q 2709 -91 1959 -91 
Q 1206 -91 779 398 
Q 353 888 353 1747 
Q 353 2609 779 3096 
Q 1206 3584 1959 3584 
z
" transform="scale(0.015625)"/>
     <path id="DejaVuSans-6e" d="M 3513 2113 
L 3513 0 
L 2938 0 
L 2938 2094 
Q 2938 2591 2744 2837 
Q 2550 3084 2163 3084 
Q 1697 3084 1428 2787 
Q 1159 2491 1159 1978 
L 1159 0 
L 581 0 
L 581 3500 
L 1159 3500 
L 1159 2956 
Q 1366 3272 1645 3428 
Q 1925 3584 2291 3584 
Q 2894 3584 3203 3211 
Q 3513 2838 3513 2113 
z
" transform="scale(0.015625)"/>
     <path id="DejaVuSans-74" d="M 1172 4494 
L 1172 3500 
L 2356 3500 
L 2356 3053 
L 1172 3053 
L 1172 1153 
Q 1172 725 1289 603 
Q 1406 481 1766 481 
L 2356 481 
L 2356 0 
L 1766 0 
Q 1100 0 847 248 
Q 594 497 594 1153 
L 594 3053 
L 172 3053 
L 172 3500 
L 594 3500 
L 594 4494 
L 1172 4494 
z
" transform="scale(0.015625)"/>
     <path id="DejaVuSans-70" d="M 1159 525 
L 1159 -1331 
L 581 -1331 
L 581 3500 
L 1159 3500 
L 1159 2969 
Q 1341 3281 1617 3432 
Q 1894 3584 2278 3584 
Q 2916 3584 3314 3078 
Q 3713 2572 3713 1747 
Q 3713 922 3314 415 
Q 2916 -91 2278 -91 
Q 1894 -91 1617 61 
Q 1341 213 1159 525 
z
M 3116 1747 
Q 3116 2381 2855 2742 
Q 2594 3103 2138 3103 
Q 1681 3103 1420 2742 
Q 1159 2381 1159 1747 
Q 1159 1113 1420 752 
Q 1681 391 2138 391 
Q 2594 391 2855 752 
Q 3116 1113 3116 1747 
z
" transform="scale(0.015625)"/>
     <path id="DejaVuSans-63" d="M 3122 3366 
L 3122 2828 
Q 2878 2963 2633 3030 
Q 2388 3097 2138 3097 
Q 1578 3097 1268 2742 
Q 959 2388 959 1747 
Q 959 1106 1268 751 
Q 1578 397 2138 397 
Q 2388 397 2633 464 
Q 2878 531 3122 666 
L 3122 134 
Q 2881 22 2623 -34 
Q 2366 -91 2075 -91 
Q 1284 -91 818 406 
Q 353 903 353 1747 
Q 353 2603 823 3093 
Q 1294 3584 2113 3584 
Q 2378 3584 2631 3529 
Q 2884 3475 3122 3366 
z
" transform="scale(0.015625)"/>
    </defs>
    <use xlink:href="#DejaVuSans-53"/>
    <use xlink:href="#DejaVuSans-32" x="63.476562"/>
    <use xlink:href="#DejaVuSans-31" x="127.099609"/>
    <use xlink:href="#DejaVuSans-20" x="190.722656"/>
    <use xlink:href="#DejaVuSans-72" x="222.509766"/>
    <use xlink:href="#DejaVuSans-65" x="261.373047"/>
    <use xlink:href="#DejaVuSans-73" x="322.896484"/>
    <use xlink:href="#DejaVuSans-6f" x="374.996094"/>
    <use xlink:href="#DejaVuSans-6e" x="436.177734"/>
    <use xlink:href="#DejaVuSans-61" x="499.556641"/>
    <use xlink:href="#DejaVuSans-74" x="560.835938"/>
    <use xlink:href="#DejaVuSans-6f" x="600.044922"/>
    <use xlink:href="#DejaVuSans-72" x="661.226562"/>
    <use xlink:href="#DejaVuSans-20" x="702.339844"/>
    <use xlink:href="#DejaVuSans-73" x="734.126953"/>
    <use xlink:href="#DejaVuSans-70" x="786.226562"/>
    <use xlink:href="#DejaVuSans-65" x="849.703125"/>
    <use xlink:href="#DejaVuSans-63" x="911.226562"/>
    <use xlink:href="#DejaVuSans-74" x="966.207031"/>
    <use xlink:href="#DejaVuSans-72" x="1005.416016"/>
    <use xlink:href="#DejaVuSans-6f" x="1044.279297"/>
    <use xlink:href="#DejaVuSans-73" x="1105.460938"/>
    <use xlink:href="#DejaVuSans-63" x="1157.560547"/>
    <use xlink:href="#DejaVuSans-6f" x="1212.541016"/>
    <use xlink:href="#DejaVuSans-70" x="1273.722656"/>
    <use xlink:href="#DejaVuSans-79" x="1337.199219"/>
   </g>
   <!-- tuid: 20231225-135240-934-7e8079 -->
   <g transform="translate(110.459375 29.7555) scale(0.12 -0.12)">
    <defs>
     <path id="DejaVuSans-69" d="M 603 3500 
L 1178 3500 
L 1178 0 
L 603 0 
L 603 3500 
z
M 603 4863 
L 1178 4863 
L 1178 4134 
L 603 4134 
L 603 4863 
z
" transform="scale(0.015625)"/>
     <path id="DejaVuSans-64" d="M 2906 2969 
L 2906 4863 
L 3481 4863 
L 3481 0 
L 2906 0 
L 2906 525 
Q 2725 213 2448 61 
Q 2172 -91 1784 -91 
Q 1150 -91 751 415 
Q 353 922 353 1747 
Q 353 2572 751 3078 
Q 1150 3584 1784 3584 
Q 2172 3584 2448 3432 
Q 2725 3281 2906 2969 
z
M 947 1747 
Q 947 1113 1208 752 
Q 1469 391 1925 391 
Q 2381 391 2643 752 
Q 2906 1113 2906 1747 
Q 2906 2381 2643 2742 
Q 2381 3103 1925 3103 
Q 1469 3103 1208 2742 
Q 947 2381 947 1747 
z
" transform="scale(0.015625)"/>
     <path id="DejaVuSans-39" d="M 703 97 
L 703 672 
Q 941 559 1184 500 
Q 1428 441 1663 441 
Q 2288 441 2617 861 
Q 2947 1281 2994 2138 
Q 2813 1869 2534 1725 
Q 2256 1581 1919 1581 
Q 1219 1581 811 2004 
Q 403 2428 403 3163 
Q 403 3881 828 4315 
Q 1253 4750 1959 4750 
Q 2769 4750 3195 4129 
Q 3622 3509 3622 2328 
Q 3622 1225 3098 567 
Q 2575 -91 1691 -91 
Q 1453 -91 1209 -44 
Q 966 3 703 97 
z
M 1959 2075 
Q 2384 2075 2632 2365 
Q 2881 2656 2881 3163 
Q 2881 3666 2632 3958 
Q 2384 4250 1959 4250 
Q 1534 4250 1286 3958 
Q 1038 3666 1038 3163 
Q 1038 2656 1286 2365 
Q 1534 2075 1959 2075 
z
" transform="scale(0.015625)"/>
    </defs>
    <use xlink:href="#DejaVuSans-74"/>
    <use xlink:href="#DejaVuSans-75" x="39.208984"/>
    <use xlink:href="#DejaVuSans-69" x="102.587891"/>
    <use xlink:href="#DejaVuSans-64" x="130.371094"/>
    <use xlink:href="#DejaVuSans-3a" x="193.847656"/>
    <use xlink:href="#DejaVuSans-20" x="227.539062"/>
    <use xlink:href="#DejaVuSans-32" x="259.326172"/>
    <use xlink:href="#DejaVuSans-30" x="322.949219"/>
    <use xlink:href="#DejaVuSans-32" x="386.572266"/>
    <use xlink:href="#DejaVuSans-33" x="450.195312"/>
    <use xlink:href="#DejaVuSans-31" x="513.818359"/>
    <use xlink:href="#DejaVuSans-32" x="577.441406"/>
    <use xlink:href="#DejaVuSans-32" x="641.064453"/>
    <use xlink:href="#DejaVuSans-35" x="704.6875"/>
    <use xlink:href="#DejaVuSans-2d" x="768.310547"/>
    <use xlink:href="#DejaVuSans-31" x="804.394531"/>
    <use xlink:href="#DejaVuSans-33" x="868.017578"/>
    <use xlink:href="#DejaVuSans-35" x="931.640625"/>
    <use xlink:href="#DejaVuSans-32" x="995.263672"/>
    <use xlink:href="#DejaVuSans-34" x="1058.886719"/>
    <use xlink:href="#DejaVuSans-30" x="1122.509766"/>
    <use xlink:href="#DejaVuSans-2d" x="1186.132812"/>
    <use xlink:href="#DejaVuSans-39" x="1222.216797"/>
    <use xlink:href="#DejaVuSans-33" x="1285.839844"/>
    <use xlink:href="#DejaVuSans-34" x="1349.462891"/>
    <use xlink:href="#DejaVuSans-2d" x="1413.085938"/>
    <use xlink:href="#DejaVuSans-37" x="1449.169922"/>
    <use xlink:href="#DejaVuSans-65" x="1512.792969"/>
    <use xlink:href="#DejaVuSans-38" x="1574.316406"/>
    <use xlink:href="#DejaVuSans-30" x="1637.939453"/>
    <use xlink:href="#DejaVuSans-37" x="1701.5625"/>
    <use xlink:href="#DejaVuSans-39" x="1765.185547"/>
   </g>
  </g>
 </g>
 <defs>
  <clipPath id="p2644af9830">
   <rect x="47.389063" y="41.76" width="357.12" height="266.112"/>
  </clipPath>
 </defs>
</svg>
