<?xml version="1.0" encoding="utf-8" standalone="no"?>
<!DOCTYPE svg PUBLIC "-//W3C//DTD SVG 1.1//EN"
  "http://www.w3.org/Graphics/SVG/1.1/DTD/svg11.dtd">
<svg xmlns:xlink="http://www.w3.org/1999/xlink" width="578.271312pt" height="345.42825pt" viewBox="0 0 578.271312 345.42825" xmlns="http://www.w3.org/2000/svg" version="1.1">
 <metadata>
  <rdf:RDF xmlns:dc="http://purl.org/dc/elements/1.1/" xmlns:cc="http://creativecommons.org/ns#" xmlns:rdf="http://www.w3.org/1999/02/22-rdf-syntax-ns#">
   <cc:Work>
    <dc:type rdf:resource="http://purl.org/dc/dcmitype/StillImage"/>
    <dc:date>2024-03-11T11:33:39.876186</dc:date>
    <dc:format>image/svg+xml</dc:format>
    <dc:creator>
     <cc:Agent>
      <dc:title>Matplotlib v3.8.2, https://matplotlib.org/</dc:title>
     </cc:Agent>
    </dc:creator>
   </cc:Work>
  </rdf:RDF>
 </metadata>
 <defs>
  <style type="text/css">*{stroke-linejoin: round; stroke-linecap: butt}</style>
 </defs>
 <g id="figure_1">
  <g id="patch_1">
   <path d="M 0 345.42825 
L 578.271312 345.42825 
L 578.271312 -0 
L 0 -0 
L 0 345.42825 
z
" style="fill: none; opacity: 0"/>
  </g>
  <g id="axes_1">
   <g id="patch_2">
    <path d="M 50.595313 162.72 
L 407.715312 162.72 
L 407.715312 41.76 
L 50.595313 41.76 
z
" style="fill: #ffffff"/>
   </g>
   <g id="matplotlib.axis_1">
    <g id="xtick_1">
     <g id="line2d_1">
      <defs>
       <path id="m277c746985" d="M 0 0 
L 0 3.5 
" style="stroke: #000000; stroke-width: 0.8"/>
      </defs>
      <g>
       <use xlink:href="#m277c746985" x="69.425276" y="162.72" style="stroke: #000000; stroke-width: 0.8"/>
      </g>
     </g>
    </g>
    <g id="xtick_2">
     <g id="line2d_2">
      <g>
       <use xlink:href="#m277c746985" x="123.534367" y="162.72" style="stroke: #000000; stroke-width: 0.8"/>
      </g>
     </g>
    </g>
    <g id="xtick_3">
     <g id="line2d_3">
      <g>
       <use xlink:href="#m277c746985" x="177.643458" y="162.72" style="stroke: #000000; stroke-width: 0.8"/>
      </g>
     </g>
    </g>
    <g id="xtick_4">
     <g id="line2d_4">
      <g>
       <use xlink:href="#m277c746985" x="231.752549" y="162.72" style="stroke: #000000; stroke-width: 0.8"/>
      </g>
     </g>
    </g>
    <g id="xtick_5">
     <g id="line2d_5">
      <g>
       <use xlink:href="#m277c746985" x="285.86164" y="162.72" style="stroke: #000000; stroke-width: 0.8"/>
      </g>
     </g>
    </g>
    <g id="xtick_6">
     <g id="line2d_6">
      <g>
       <use xlink:href="#m277c746985" x="339.970731" y="162.72" style="stroke: #000000; stroke-width: 0.8"/>
      </g>
     </g>
    </g>
    <g id="xtick_7">
     <g id="line2d_7">
      <g>
       <use xlink:href="#m277c746985" x="394.079822" y="162.72" style="stroke: #000000; stroke-width: 0.8"/>
      </g>
     </g>
    </g>
   </g>
   <g id="matplotlib.axis_2">
    <g id="ytick_1">
     <g id="line2d_8">
      <defs>
       <path id="ma68b92fdd0" d="M 0 0 
L -3.5 0 
" style="stroke: #000000; stroke-width: 0.8"/>
      </defs>
      <g>
       <use xlink:href="#ma68b92fdd0" x="50.595313" y="129.629954" style="stroke: #000000; stroke-width: 0.8"/>
      </g>
     </g>
     <g id="text_1">
      <!-- 100 -->
      <g transform="translate(24.507813 133.429173) scale(0.1 -0.1)">
       <defs>
        <path id="DejaVuSans-31" d="M 794 531 
L 1825 531 
L 1825 4091 
L 703 3866 
L 703 4441 
L 1819 4666 
L 2450 4666 
L 2450 531 
L 3481 531 
L 3481 0 
L 794 0 
L 794 531 
z
" transform="scale(0.015625)"/>
        <path id="DejaVuSans-30" d="M 2034 4250 
Q 1547 4250 1301 3770 
Q 1056 3291 1056 2328 
Q 1056 1369 1301 889 
Q 1547 409 2034 409 
Q 2525 409 2770 889 
Q 3016 1369 3016 2328 
Q 3016 3291 2770 3770 
Q 2525 4250 2034 4250 
z
M 2034 4750 
Q 2819 4750 3233 4129 
Q 3647 3509 3647 2328 
Q 3647 1150 3233 529 
Q 2819 -91 2034 -91 
Q 1250 -91 836 529 
Q 422 1150 422 2328 
Q 422 3509 836 4129 
Q 1250 4750 2034 4750 
z
" transform="scale(0.015625)"/>
       </defs>
       <use xlink:href="#DejaVuSans-31"/>
       <use xlink:href="#DejaVuSans-30" x="63.623047"/>
       <use xlink:href="#DejaVuSans-30" x="127.246094"/>
      </g>
     </g>
    </g>
    <g id="ytick_2">
     <g id="line2d_9">
      <g>
       <use xlink:href="#ma68b92fdd0" x="50.595313" y="95.308036" style="stroke: #000000; stroke-width: 0.8"/>
      </g>
     </g>
     <g id="text_2">
      <!-- 200 -->
      <g transform="translate(24.507813 99.107255) scale(0.1 -0.1)">
       <defs>
        <path id="DejaVuSans-32" d="M 1228 531 
L 3431 531 
L 3431 0 
L 469 0 
L 469 531 
Q 828 903 1448 1529 
Q 2069 2156 2228 2338 
Q 2531 2678 2651 2914 
Q 2772 3150 2772 3378 
Q 2772 3750 2511 3984 
Q 2250 4219 1831 4219 
Q 1534 4219 1204 4116 
Q 875 4013 500 3803 
L 500 4441 
Q 881 4594 1212 4672 
Q 1544 4750 1819 4750 
Q 2544 4750 2975 4387 
Q 3406 4025 3406 3419 
Q 3406 3131 3298 2873 
Q 3191 2616 2906 2266 
Q 2828 2175 2409 1742 
Q 1991 1309 1228 531 
z
" transform="scale(0.015625)"/>
       </defs>
       <use xlink:href="#DejaVuSans-32"/>
       <use xlink:href="#DejaVuSans-30" x="63.623047"/>
       <use xlink:href="#DejaVuSans-30" x="127.246094"/>
      </g>
     </g>
    </g>
    <g id="ytick_3">
     <g id="line2d_10">
      <g>
       <use xlink:href="#ma68b92fdd0" x="50.595313" y="60.986118" style="stroke: #000000; stroke-width: 0.8"/>
      </g>
     </g>
     <g id="text_3">
      <!-- 300 -->
      <g transform="translate(24.507813 64.785337) scale(0.1 -0.1)">
       <defs>
        <path id="DejaVuSans-33" d="M 2597 2516 
Q 3050 2419 3304 2112 
Q 3559 1806 3559 1356 
Q 3559 666 3084 287 
Q 2609 -91 1734 -91 
Q 1441 -91 1130 -33 
Q 819 25 488 141 
L 488 750 
Q 750 597 1062 519 
Q 1375 441 1716 441 
Q 2309 441 2620 675 
Q 2931 909 2931 1356 
Q 2931 1769 2642 2001 
Q 2353 2234 1838 2234 
L 1294 2234 
L 1294 2753 
L 1863 2753 
Q 2328 2753 2575 2939 
Q 2822 3125 2822 3475 
Q 2822 3834 2567 4026 
Q 2313 4219 1838 4219 
Q 1578 4219 1281 4162 
Q 984 4106 628 3988 
L 628 4550 
Q 988 4650 1302 4700 
Q 1616 4750 1894 4750 
Q 2613 4750 3031 4423 
Q 3450 4097 3450 3541 
Q 3450 3153 3228 2886 
Q 3006 2619 2597 2516 
z
" transform="scale(0.015625)"/>
       </defs>
       <use xlink:href="#DejaVuSans-33"/>
       <use xlink:href="#DejaVuSans-30" x="63.623047"/>
       <use xlink:href="#DejaVuSans-30" x="127.246094"/>
      </g>
     </g>
    </g>
    <g id="text_4">
     <!-- $|S_{21}|$ [mV] -->
     <g transform="translate(18.107813 127.19) rotate(-90) scale(0.1 -0.1)">
      <defs>
       <path id="DejaVuSans-7c" d="M 1344 4891 
L 1344 -1509 
L 813 -1509 
L 813 4891 
L 1344 4891 
z
" transform="scale(0.015625)"/>
       <path id="DejaVuSans-Oblique-53" d="M 3859 4513 
L 3738 3897 
Q 3422 4066 3111 4152 
Q 2800 4238 2509 4238 
Q 1944 4238 1609 3991 
Q 1275 3744 1275 3334 
Q 1275 3109 1398 2989 
Q 1522 2869 2034 2731 
L 2413 2638 
Q 3053 2472 3303 2217 
Q 3553 1963 3553 1503 
Q 3553 797 2998 353 
Q 2444 -91 1538 -91 
Q 1166 -91 791 -17 
Q 416 56 38 206 
L 166 856 
Q 513 641 861 531 
Q 1209 422 1556 422 
Q 2147 422 2503 684 
Q 2859 947 2859 1369 
Q 2859 1650 2717 1795 
Q 2575 1941 2106 2059 
L 1728 2156 
Q 1081 2325 845 2545 
Q 609 2766 609 3163 
Q 609 3859 1145 4304 
Q 1681 4750 2541 4750 
Q 2875 4750 3203 4690 
Q 3531 4631 3859 4513 
z
" transform="scale(0.015625)"/>
       <path id="DejaVuSans-20" transform="scale(0.015625)"/>
       <path id="DejaVuSans-5b" d="M 550 4863 
L 1875 4863 
L 1875 4416 
L 1125 4416 
L 1125 -397 
L 1875 -397 
L 1875 -844 
L 550 -844 
L 550 4863 
z
" transform="scale(0.015625)"/>
       <path id="DejaVuSans-6d" d="M 3328 2828 
Q 3544 3216 3844 3400 
Q 4144 3584 4550 3584 
Q 5097 3584 5394 3201 
Q 5691 2819 5691 2113 
L 5691 0 
L 5113 0 
L 5113 2094 
Q 5113 2597 4934 2840 
Q 4756 3084 4391 3084 
Q 3944 3084 3684 2787 
Q 3425 2491 3425 1978 
L 3425 0 
L 2847 0 
L 2847 2094 
Q 2847 2600 2669 2842 
Q 2491 3084 2119 3084 
Q 1678 3084 1418 2786 
Q 1159 2488 1159 1978 
L 1159 0 
L 581 0 
L 581 3500 
L 1159 3500 
L 1159 2956 
Q 1356 3278 1631 3431 
Q 1906 3584 2284 3584 
Q 2666 3584 2933 3390 
Q 3200 3197 3328 2828 
z
" transform="scale(0.015625)"/>
       <path id="DejaVuSans-56" d="M 1831 0 
L 50 4666 
L 709 4666 
L 2188 738 
L 3669 4666 
L 4325 4666 
L 2547 0 
L 1831 0 
z
" transform="scale(0.015625)"/>
       <path id="DejaVuSans-5d" d="M 1947 4863 
L 1947 -844 
L 622 -844 
L 622 -397 
L 1369 -397 
L 1369 4416 
L 622 4416 
L 622 4863 
L 1947 4863 
z
" transform="scale(0.015625)"/>
      </defs>
      <use xlink:href="#DejaVuSans-7c" transform="translate(0 0.578125)"/>
      <use xlink:href="#DejaVuSans-Oblique-53" transform="translate(33.691406 0.578125)"/>
      <use xlink:href="#DejaVuSans-32" transform="translate(97.167969 -15.828125) scale(0.7)"/>
      <use xlink:href="#DejaVuSans-31" transform="translate(141.704102 -15.828125) scale(0.7)"/>
      <use xlink:href="#DejaVuSans-7c" transform="translate(188.974609 0.578125)"/>
      <use xlink:href="#DejaVuSans-20" transform="translate(222.666016 0.578125)"/>
      <use xlink:href="#DejaVuSans-5b" transform="translate(254.453125 0.578125)"/>
      <use xlink:href="#DejaVuSans-6d" transform="translate(293.466797 0.578125)"/>
      <use xlink:href="#DejaVuSans-56" transform="translate(390.878906 0.578125)"/>
      <use xlink:href="#DejaVuSans-5d" transform="translate(459.287109 0.578125)"/>
     </g>
    </g>
   </g>
   <g id="line2d_11">
    <path d="M 66.82804 72.816951 
L 71.722329 72.320952 
L 78.248049 71.682049 
L 88.036628 70.778463 
L 128.822375 67.665915 
L 130.453805 67.591151 
L 132.085235 67.391024 
L 133.716665 67.350223 
L 140.242384 66.820536 
L 143.505244 66.597736 
L 150.030963 66.073659 
L 158.188113 65.298376 
L 174.502412 63.109464 
L 179.396701 62.228038 
L 187.553851 60.327768 
L 192.44814 58.832796 
L 194.07957 58.275945 
L 200.60529 55.436702 
L 202.23672 54.636372 
L 212.025299 48.974608 
L 213.656729 48.35398 
L 215.288159 48.243838 
L 216.919588 49.036156 
L 218.551018 51.297597 
L 220.182448 55.794935 
L 221.813878 63.344633 
L 223.445308 74.527652 
L 225.076738 89.2967 
L 229.971027 140.846502 
L 231.602457 153.752958 
L 233.233887 155.33437 
L 236.496747 139.579882 
L 238.128177 132.871965 
L 239.759607 127.135355 
L 241.391037 122.405886 
L 243.022466 118.463891 
L 244.653896 115.088492 
L 246.285326 112.08316 
L 247.916756 109.656822 
L 249.548186 107.457412 
L 251.179616 105.549505 
L 254.442476 102.430366 
L 256.073905 101.09233 
L 257.705335 99.905812 
L 260.968195 97.898334 
L 264.231055 96.186759 
L 265.862485 95.436628 
L 272.388204 93.00964 
L 282.176783 90.357974 
L 288.702503 89.008344 
L 308.279662 86.053054 
L 316.436811 84.994495 
L 321.331101 84.337299 
L 324.59396 84.029284 
L 329.48825 83.442201 
L 340.908259 82.12631 
L 344.171119 81.70407 
L 347.433979 81.322017 
L 355.591128 80.311586 
L 365.379707 79.154234 
L 380.062576 77.414635 
L 383.325436 76.951753 
L 391.482585 75.982286 
L 391.482585 75.982286 
" clip-path="url(#pdee6ab46a4)" style="fill: none; stroke: #1f77b4; stroke-width: 1.5; stroke-linecap: square"/>
    <defs>
     <path id="ma16ae1955d" d="M 0 1.5 
C 0.397805 1.5 0.77937 1.341951 1.06066 1.06066 
C 1.341951 0.77937 1.5 0.397805 1.5 0 
C 1.5 -0.397805 1.341951 -0.77937 1.06066 -1.06066 
C 0.77937 -1.341951 0.397805 -1.5 0 -1.5 
C -0.397805 -1.5 -0.77937 -1.341951 -1.06066 -1.06066 
C -1.341951 -0.77937 -1.5 -0.397805 -1.5 0 
C -1.5 0.397805 -1.341951 0.77937 -1.06066 1.06066 
C -0.77937 1.341951 -0.397805 1.5 0 1.5 
z
" style="stroke: #1f77b4"/>
    </defs>
    <g clip-path="url(#pdee6ab46a4)">
     <use xlink:href="#ma16ae1955d" x="66.82804" y="72.816951" style="fill: #1f77b4; stroke: #1f77b4"/>
     <use xlink:href="#ma16ae1955d" x="68.45947" y="72.618181" style="fill: #1f77b4; stroke: #1f77b4"/>
     <use xlink:href="#ma16ae1955d" x="70.0909" y="72.442986" style="fill: #1f77b4; stroke: #1f77b4"/>
     <use xlink:href="#ma16ae1955d" x="71.722329" y="72.320952" style="fill: #1f77b4; stroke: #1f77b4"/>
     <use xlink:href="#ma16ae1955d" x="73.353759" y="72.185926" style="fill: #1f77b4; stroke: #1f77b4"/>
     <use xlink:href="#ma16ae1955d" x="74.985189" y="71.991597" style="fill: #1f77b4; stroke: #1f77b4"/>
     <use xlink:href="#ma16ae1955d" x="76.616619" y="71.808946" style="fill: #1f77b4; stroke: #1f77b4"/>
     <use xlink:href="#ma16ae1955d" x="78.248049" y="71.682049" style="fill: #1f77b4; stroke: #1f77b4"/>
     <use xlink:href="#ma16ae1955d" x="79.879479" y="71.51575" style="fill: #1f77b4; stroke: #1f77b4"/>
     <use xlink:href="#ma16ae1955d" x="81.510909" y="71.313867" style="fill: #1f77b4; stroke: #1f77b4"/>
     <use xlink:href="#ma16ae1955d" x="83.142339" y="71.188756" style="fill: #1f77b4; stroke: #1f77b4"/>
     <use xlink:href="#ma16ae1955d" x="84.773768" y="71.058206" style="fill: #1f77b4; stroke: #1f77b4"/>
     <use xlink:href="#ma16ae1955d" x="86.405198" y="70.882278" style="fill: #1f77b4; stroke: #1f77b4"/>
     <use xlink:href="#ma16ae1955d" x="88.036628" y="70.778463" style="fill: #1f77b4; stroke: #1f77b4"/>
     <use xlink:href="#ma16ae1955d" x="89.668058" y="70.650832" style="fill: #1f77b4; stroke: #1f77b4"/>
     <use xlink:href="#ma16ae1955d" x="91.299488" y="70.510362" style="fill: #1f77b4; stroke: #1f77b4"/>
     <use xlink:href="#ma16ae1955d" x="92.930918" y="70.340014" style="fill: #1f77b4; stroke: #1f77b4"/>
     <use xlink:href="#ma16ae1955d" x="94.562348" y="70.212226" style="fill: #1f77b4; stroke: #1f77b4"/>
     <use xlink:href="#ma16ae1955d" x="96.193778" y="70.057853" style="fill: #1f77b4; stroke: #1f77b4"/>
     <use xlink:href="#ma16ae1955d" x="97.825207" y="69.939527" style="fill: #1f77b4; stroke: #1f77b4"/>
     <use xlink:href="#ma16ae1955d" x="99.456637" y="69.782221" style="fill: #1f77b4; stroke: #1f77b4"/>
     <use xlink:href="#ma16ae1955d" x="101.088067" y="69.681123" style="fill: #1f77b4; stroke: #1f77b4"/>
     <use xlink:href="#ma16ae1955d" x="102.719497" y="69.593174" style="fill: #1f77b4; stroke: #1f77b4"/>
     <use xlink:href="#ma16ae1955d" x="104.350927" y="69.40702" style="fill: #1f77b4; stroke: #1f77b4"/>
     <use xlink:href="#ma16ae1955d" x="105.982357" y="69.327237" style="fill: #1f77b4; stroke: #1f77b4"/>
     <use xlink:href="#ma16ae1955d" x="107.613787" y="69.172114" style="fill: #1f77b4; stroke: #1f77b4"/>
     <use xlink:href="#ma16ae1955d" x="109.245217" y="69.061267" style="fill: #1f77b4; stroke: #1f77b4"/>
     <use xlink:href="#ma16ae1955d" x="110.876646" y="68.930297" style="fill: #1f77b4; stroke: #1f77b4"/>
     <use xlink:href="#ma16ae1955d" x="112.508076" y="68.847857" style="fill: #1f77b4; stroke: #1f77b4"/>
     <use xlink:href="#ma16ae1955d" x="114.139506" y="68.714462" style="fill: #1f77b4; stroke: #1f77b4"/>
     <use xlink:href="#ma16ae1955d" x="115.770936" y="68.60475" style="fill: #1f77b4; stroke: #1f77b4"/>
     <use xlink:href="#ma16ae1955d" x="117.402366" y="68.495295" style="fill: #1f77b4; stroke: #1f77b4"/>
     <use xlink:href="#ma16ae1955d" x="119.033796" y="68.333048" style="fill: #1f77b4; stroke: #1f77b4"/>
     <use xlink:href="#ma16ae1955d" x="120.665226" y="68.242129" style="fill: #1f77b4; stroke: #1f77b4"/>
     <use xlink:href="#ma16ae1955d" x="122.296656" y="68.156376" style="fill: #1f77b4; stroke: #1f77b4"/>
     <use xlink:href="#ma16ae1955d" x="123.928085" y="68.012938" style="fill: #1f77b4; stroke: #1f77b4"/>
     <use xlink:href="#ma16ae1955d" x="125.559515" y="67.929844" style="fill: #1f77b4; stroke: #1f77b4"/>
     <use xlink:href="#ma16ae1955d" x="127.190945" y="67.8205" style="fill: #1f77b4; stroke: #1f77b4"/>
     <use xlink:href="#ma16ae1955d" x="128.822375" y="67.665915" style="fill: #1f77b4; stroke: #1f77b4"/>
     <use xlink:href="#ma16ae1955d" x="130.453805" y="67.591151" style="fill: #1f77b4; stroke: #1f77b4"/>
     <use xlink:href="#ma16ae1955d" x="132.085235" y="67.391024" style="fill: #1f77b4; stroke: #1f77b4"/>
     <use xlink:href="#ma16ae1955d" x="133.716665" y="67.350223" style="fill: #1f77b4; stroke: #1f77b4"/>
     <use xlink:href="#ma16ae1955d" x="135.348095" y="67.191897" style="fill: #1f77b4; stroke: #1f77b4"/>
     <use xlink:href="#ma16ae1955d" x="136.979524" y="67.078991" style="fill: #1f77b4; stroke: #1f77b4"/>
     <use xlink:href="#ma16ae1955d" x="138.610954" y="66.962833" style="fill: #1f77b4; stroke: #1f77b4"/>
     <use xlink:href="#ma16ae1955d" x="140.242384" y="66.820536" style="fill: #1f77b4; stroke: #1f77b4"/>
     <use xlink:href="#ma16ae1955d" x="141.873814" y="66.751421" style="fill: #1f77b4; stroke: #1f77b4"/>
     <use xlink:href="#ma16ae1955d" x="143.505244" y="66.597736" style="fill: #1f77b4; stroke: #1f77b4"/>
     <use xlink:href="#ma16ae1955d" x="145.136674" y="66.439655" style="fill: #1f77b4; stroke: #1f77b4"/>
     <use xlink:href="#ma16ae1955d" x="146.768104" y="66.355672" style="fill: #1f77b4; stroke: #1f77b4"/>
     <use xlink:href="#ma16ae1955d" x="148.399534" y="66.121767" style="fill: #1f77b4; stroke: #1f77b4"/>
     <use xlink:href="#ma16ae1955d" x="150.030963" y="66.073659" style="fill: #1f77b4; stroke: #1f77b4"/>
     <use xlink:href="#ma16ae1955d" x="151.662393" y="65.930472" style="fill: #1f77b4; stroke: #1f77b4"/>
     <use xlink:href="#ma16ae1955d" x="153.293823" y="65.739668" style="fill: #1f77b4; stroke: #1f77b4"/>
     <use xlink:href="#ma16ae1955d" x="154.925253" y="65.568825" style="fill: #1f77b4; stroke: #1f77b4"/>
     <use xlink:href="#ma16ae1955d" x="156.556683" y="65.434204" style="fill: #1f77b4; stroke: #1f77b4"/>
     <use xlink:href="#ma16ae1955d" x="158.188113" y="65.298376" style="fill: #1f77b4; stroke: #1f77b4"/>
     <use xlink:href="#ma16ae1955d" x="159.819543" y="65.087626" style="fill: #1f77b4; stroke: #1f77b4"/>
     <use xlink:href="#ma16ae1955d" x="161.450973" y="64.902293" style="fill: #1f77b4; stroke: #1f77b4"/>
     <use xlink:href="#ma16ae1955d" x="163.082402" y="64.729028" style="fill: #1f77b4; stroke: #1f77b4"/>
     <use xlink:href="#ma16ae1955d" x="164.713832" y="64.523746" style="fill: #1f77b4; stroke: #1f77b4"/>
     <use xlink:href="#ma16ae1955d" x="166.345262" y="64.326091" style="fill: #1f77b4; stroke: #1f77b4"/>
     <use xlink:href="#ma16ae1955d" x="167.976692" y="64.101205" style="fill: #1f77b4; stroke: #1f77b4"/>
     <use xlink:href="#ma16ae1955d" x="169.608122" y="63.886804" style="fill: #1f77b4; stroke: #1f77b4"/>
     <use xlink:href="#ma16ae1955d" x="171.239552" y="63.621026" style="fill: #1f77b4; stroke: #1f77b4"/>
     <use xlink:href="#ma16ae1955d" x="172.870982" y="63.337564" style="fill: #1f77b4; stroke: #1f77b4"/>
     <use xlink:href="#ma16ae1955d" x="174.502412" y="63.109464" style="fill: #1f77b4; stroke: #1f77b4"/>
     <use xlink:href="#ma16ae1955d" x="176.133842" y="62.850045" style="fill: #1f77b4; stroke: #1f77b4"/>
     <use xlink:href="#ma16ae1955d" x="177.765271" y="62.493846" style="fill: #1f77b4; stroke: #1f77b4"/>
     <use xlink:href="#ma16ae1955d" x="179.396701" y="62.228038" style="fill: #1f77b4; stroke: #1f77b4"/>
     <use xlink:href="#ma16ae1955d" x="181.028131" y="61.858271" style="fill: #1f77b4; stroke: #1f77b4"/>
     <use xlink:href="#ma16ae1955d" x="182.659561" y="61.530519" style="fill: #1f77b4; stroke: #1f77b4"/>
     <use xlink:href="#ma16ae1955d" x="184.290991" y="61.159898" style="fill: #1f77b4; stroke: #1f77b4"/>
     <use xlink:href="#ma16ae1955d" x="185.922421" y="60.807594" style="fill: #1f77b4; stroke: #1f77b4"/>
     <use xlink:href="#ma16ae1955d" x="187.553851" y="60.327768" style="fill: #1f77b4; stroke: #1f77b4"/>
     <use xlink:href="#ma16ae1955d" x="189.185281" y="59.847931" style="fill: #1f77b4; stroke: #1f77b4"/>
     <use xlink:href="#ma16ae1955d" x="190.81671" y="59.372655" style="fill: #1f77b4; stroke: #1f77b4"/>
     <use xlink:href="#ma16ae1955d" x="192.44814" y="58.832796" style="fill: #1f77b4; stroke: #1f77b4"/>
     <use xlink:href="#ma16ae1955d" x="194.07957" y="58.275945" style="fill: #1f77b4; stroke: #1f77b4"/>
     <use xlink:href="#ma16ae1955d" x="195.711" y="57.591604" style="fill: #1f77b4; stroke: #1f77b4"/>
     <use xlink:href="#ma16ae1955d" x="197.34243" y="56.898803" style="fill: #1f77b4; stroke: #1f77b4"/>
     <use xlink:href="#ma16ae1955d" x="198.97386" y="56.230069" style="fill: #1f77b4; stroke: #1f77b4"/>
     <use xlink:href="#ma16ae1955d" x="200.60529" y="55.436702" style="fill: #1f77b4; stroke: #1f77b4"/>
     <use xlink:href="#ma16ae1955d" x="202.23672" y="54.636372" style="fill: #1f77b4; stroke: #1f77b4"/>
     <use xlink:href="#ma16ae1955d" x="203.868149" y="53.672127" style="fill: #1f77b4; stroke: #1f77b4"/>
     <use xlink:href="#ma16ae1955d" x="205.499579" y="52.810164" style="fill: #1f77b4; stroke: #1f77b4"/>
     <use xlink:href="#ma16ae1955d" x="207.131009" y="51.709635" style="fill: #1f77b4; stroke: #1f77b4"/>
     <use xlink:href="#ma16ae1955d" x="208.762439" y="50.810187" style="fill: #1f77b4; stroke: #1f77b4"/>
     <use xlink:href="#ma16ae1955d" x="210.393869" y="49.77843" style="fill: #1f77b4; stroke: #1f77b4"/>
     <use xlink:href="#ma16ae1955d" x="212.025299" y="48.974608" style="fill: #1f77b4; stroke: #1f77b4"/>
     <use xlink:href="#ma16ae1955d" x="213.656729" y="48.35398" style="fill: #1f77b4; stroke: #1f77b4"/>
     <use xlink:href="#ma16ae1955d" x="215.288159" y="48.243838" style="fill: #1f77b4; stroke: #1f77b4"/>
     <use xlink:href="#ma16ae1955d" x="216.919588" y="49.036156" style="fill: #1f77b4; stroke: #1f77b4"/>
     <use xlink:href="#ma16ae1955d" x="218.551018" y="51.297597" style="fill: #1f77b4; stroke: #1f77b4"/>
     <use xlink:href="#ma16ae1955d" x="220.182448" y="55.794935" style="fill: #1f77b4; stroke: #1f77b4"/>
     <use xlink:href="#ma16ae1955d" x="221.813878" y="63.344633" style="fill: #1f77b4; stroke: #1f77b4"/>
     <use xlink:href="#ma16ae1955d" x="223.445308" y="74.527652" style="fill: #1f77b4; stroke: #1f77b4"/>
     <use xlink:href="#ma16ae1955d" x="225.076738" y="89.2967" style="fill: #1f77b4; stroke: #1f77b4"/>
     <use xlink:href="#ma16ae1955d" x="226.708168" y="106.453962" style="fill: #1f77b4; stroke: #1f77b4"/>
     <use xlink:href="#ma16ae1955d" x="228.339598" y="124.182683" style="fill: #1f77b4; stroke: #1f77b4"/>
     <use xlink:href="#ma16ae1955d" x="229.971027" y="140.846502" style="fill: #1f77b4; stroke: #1f77b4"/>
     <use xlink:href="#ma16ae1955d" x="231.602457" y="153.752958" style="fill: #1f77b4; stroke: #1f77b4"/>
     <use xlink:href="#ma16ae1955d" x="233.233887" y="155.33437" style="fill: #1f77b4; stroke: #1f77b4"/>
     <use xlink:href="#ma16ae1955d" x="234.865317" y="147.400516" style="fill: #1f77b4; stroke: #1f77b4"/>
     <use xlink:href="#ma16ae1955d" x="236.496747" y="139.579882" style="fill: #1f77b4; stroke: #1f77b4"/>
     <use xlink:href="#ma16ae1955d" x="238.128177" y="132.871965" style="fill: #1f77b4; stroke: #1f77b4"/>
     <use xlink:href="#ma16ae1955d" x="239.759607" y="127.135355" style="fill: #1f77b4; stroke: #1f77b4"/>
     <use xlink:href="#ma16ae1955d" x="241.391037" y="122.405886" style="fill: #1f77b4; stroke: #1f77b4"/>
     <use xlink:href="#ma16ae1955d" x="243.022466" y="118.463891" style="fill: #1f77b4; stroke: #1f77b4"/>
     <use xlink:href="#ma16ae1955d" x="244.653896" y="115.088492" style="fill: #1f77b4; stroke: #1f77b4"/>
     <use xlink:href="#ma16ae1955d" x="246.285326" y="112.08316" style="fill: #1f77b4; stroke: #1f77b4"/>
     <use xlink:href="#ma16ae1955d" x="247.916756" y="109.656822" style="fill: #1f77b4; stroke: #1f77b4"/>
     <use xlink:href="#ma16ae1955d" x="249.548186" y="107.457412" style="fill: #1f77b4; stroke: #1f77b4"/>
     <use xlink:href="#ma16ae1955d" x="251.179616" y="105.549505" style="fill: #1f77b4; stroke: #1f77b4"/>
     <use xlink:href="#ma16ae1955d" x="252.811046" y="103.94872" style="fill: #1f77b4; stroke: #1f77b4"/>
     <use xlink:href="#ma16ae1955d" x="254.442476" y="102.430366" style="fill: #1f77b4; stroke: #1f77b4"/>
     <use xlink:href="#ma16ae1955d" x="256.073905" y="101.09233" style="fill: #1f77b4; stroke: #1f77b4"/>
     <use xlink:href="#ma16ae1955d" x="257.705335" y="99.905812" style="fill: #1f77b4; stroke: #1f77b4"/>
     <use xlink:href="#ma16ae1955d" x="259.336765" y="98.873394" style="fill: #1f77b4; stroke: #1f77b4"/>
     <use xlink:href="#ma16ae1955d" x="260.968195" y="97.898334" style="fill: #1f77b4; stroke: #1f77b4"/>
     <use xlink:href="#ma16ae1955d" x="262.599625" y="97.010815" style="fill: #1f77b4; stroke: #1f77b4"/>
     <use xlink:href="#ma16ae1955d" x="264.231055" y="96.186759" style="fill: #1f77b4; stroke: #1f77b4"/>
     <use xlink:href="#ma16ae1955d" x="265.862485" y="95.436628" style="fill: #1f77b4; stroke: #1f77b4"/>
     <use xlink:href="#ma16ae1955d" x="267.493915" y="94.830539" style="fill: #1f77b4; stroke: #1f77b4"/>
     <use xlink:href="#ma16ae1955d" x="269.125344" y="94.203893" style="fill: #1f77b4; stroke: #1f77b4"/>
     <use xlink:href="#ma16ae1955d" x="270.756774" y="93.555985" style="fill: #1f77b4; stroke: #1f77b4"/>
     <use xlink:href="#ma16ae1955d" x="272.388204" y="93.00964" style="fill: #1f77b4; stroke: #1f77b4"/>
     <use xlink:href="#ma16ae1955d" x="274.019634" y="92.562286" style="fill: #1f77b4; stroke: #1f77b4"/>
     <use xlink:href="#ma16ae1955d" x="275.651064" y="92.043201" style="fill: #1f77b4; stroke: #1f77b4"/>
     <use xlink:href="#ma16ae1955d" x="277.282494" y="91.638316" style="fill: #1f77b4; stroke: #1f77b4"/>
     <use xlink:href="#ma16ae1955d" x="278.913924" y="91.171669" style="fill: #1f77b4; stroke: #1f77b4"/>
     <use xlink:href="#ma16ae1955d" x="280.545354" y="90.794932" style="fill: #1f77b4; stroke: #1f77b4"/>
     <use xlink:href="#ma16ae1955d" x="282.176783" y="90.357974" style="fill: #1f77b4; stroke: #1f77b4"/>
     <use xlink:href="#ma16ae1955d" x="283.808213" y="90.003666" style="fill: #1f77b4; stroke: #1f77b4"/>
     <use xlink:href="#ma16ae1955d" x="285.439643" y="89.647239" style="fill: #1f77b4; stroke: #1f77b4"/>
     <use xlink:href="#ma16ae1955d" x="287.071073" y="89.315646" style="fill: #1f77b4; stroke: #1f77b4"/>
     <use xlink:href="#ma16ae1955d" x="288.702503" y="89.008344" style="fill: #1f77b4; stroke: #1f77b4"/>
     <use xlink:href="#ma16ae1955d" x="290.333933" y="88.755782" style="fill: #1f77b4; stroke: #1f77b4"/>
     <use xlink:href="#ma16ae1955d" x="291.965363" y="88.461258" style="fill: #1f77b4; stroke: #1f77b4"/>
     <use xlink:href="#ma16ae1955d" x="293.596793" y="88.161648" style="fill: #1f77b4; stroke: #1f77b4"/>
     <use xlink:href="#ma16ae1955d" x="295.228223" y="87.892941" style="fill: #1f77b4; stroke: #1f77b4"/>
     <use xlink:href="#ma16ae1955d" x="296.859652" y="87.680269" style="fill: #1f77b4; stroke: #1f77b4"/>
     <use xlink:href="#ma16ae1955d" x="298.491082" y="87.396503" style="fill: #1f77b4; stroke: #1f77b4"/>
     <use xlink:href="#ma16ae1955d" x="300.122512" y="87.228304" style="fill: #1f77b4; stroke: #1f77b4"/>
     <use xlink:href="#ma16ae1955d" x="301.753942" y="86.930835" style="fill: #1f77b4; stroke: #1f77b4"/>
     <use xlink:href="#ma16ae1955d" x="303.385372" y="86.73087" style="fill: #1f77b4; stroke: #1f77b4"/>
     <use xlink:href="#ma16ae1955d" x="305.016802" y="86.46361" style="fill: #1f77b4; stroke: #1f77b4"/>
     <use xlink:href="#ma16ae1955d" x="306.648232" y="86.27397" style="fill: #1f77b4; stroke: #1f77b4"/>
     <use xlink:href="#ma16ae1955d" x="308.279662" y="86.053054" style="fill: #1f77b4; stroke: #1f77b4"/>
     <use xlink:href="#ma16ae1955d" x="309.911091" y="85.862086" style="fill: #1f77b4; stroke: #1f77b4"/>
     <use xlink:href="#ma16ae1955d" x="311.542521" y="85.607828" style="fill: #1f77b4; stroke: #1f77b4"/>
     <use xlink:href="#ma16ae1955d" x="313.173951" y="85.443776" style="fill: #1f77b4; stroke: #1f77b4"/>
     <use xlink:href="#ma16ae1955d" x="314.805381" y="85.229535" style="fill: #1f77b4; stroke: #1f77b4"/>
     <use xlink:href="#ma16ae1955d" x="316.436811" y="84.994495" style="fill: #1f77b4; stroke: #1f77b4"/>
     <use xlink:href="#ma16ae1955d" x="318.068241" y="84.772074" style="fill: #1f77b4; stroke: #1f77b4"/>
     <use xlink:href="#ma16ae1955d" x="319.699671" y="84.607174" style="fill: #1f77b4; stroke: #1f77b4"/>
     <use xlink:href="#ma16ae1955d" x="321.331101" y="84.337299" style="fill: #1f77b4; stroke: #1f77b4"/>
     <use xlink:href="#ma16ae1955d" x="322.96253" y="84.233182" style="fill: #1f77b4; stroke: #1f77b4"/>
     <use xlink:href="#ma16ae1955d" x="324.59396" y="84.029284" style="fill: #1f77b4; stroke: #1f77b4"/>
     <use xlink:href="#ma16ae1955d" x="326.22539" y="83.87053" style="fill: #1f77b4; stroke: #1f77b4"/>
     <use xlink:href="#ma16ae1955d" x="327.85682" y="83.672665" style="fill: #1f77b4; stroke: #1f77b4"/>
     <use xlink:href="#ma16ae1955d" x="329.48825" y="83.442201" style="fill: #1f77b4; stroke: #1f77b4"/>
     <use xlink:href="#ma16ae1955d" x="331.11968" y="83.260631" style="fill: #1f77b4; stroke: #1f77b4"/>
     <use xlink:href="#ma16ae1955d" x="332.75111" y="83.061825" style="fill: #1f77b4; stroke: #1f77b4"/>
     <use xlink:href="#ma16ae1955d" x="334.38254" y="82.830967" style="fill: #1f77b4; stroke: #1f77b4"/>
     <use xlink:href="#ma16ae1955d" x="336.013969" y="82.664885" style="fill: #1f77b4; stroke: #1f77b4"/>
     <use xlink:href="#ma16ae1955d" x="337.645399" y="82.476531" style="fill: #1f77b4; stroke: #1f77b4"/>
     <use xlink:href="#ma16ae1955d" x="339.276829" y="82.28818" style="fill: #1f77b4; stroke: #1f77b4"/>
     <use xlink:href="#ma16ae1955d" x="340.908259" y="82.12631" style="fill: #1f77b4; stroke: #1f77b4"/>
     <use xlink:href="#ma16ae1955d" x="342.539689" y="81.865556" style="fill: #1f77b4; stroke: #1f77b4"/>
     <use xlink:href="#ma16ae1955d" x="344.171119" y="81.70407" style="fill: #1f77b4; stroke: #1f77b4"/>
     <use xlink:href="#ma16ae1955d" x="345.802549" y="81.462195" style="fill: #1f77b4; stroke: #1f77b4"/>
     <use xlink:href="#ma16ae1955d" x="347.433979" y="81.322017" style="fill: #1f77b4; stroke: #1f77b4"/>
     <use xlink:href="#ma16ae1955d" x="349.065408" y="81.105022" style="fill: #1f77b4; stroke: #1f77b4"/>
     <use xlink:href="#ma16ae1955d" x="350.696838" y="80.92019" style="fill: #1f77b4; stroke: #1f77b4"/>
     <use xlink:href="#ma16ae1955d" x="352.328268" y="80.727233" style="fill: #1f77b4; stroke: #1f77b4"/>
     <use xlink:href="#ma16ae1955d" x="353.959698" y="80.503968" style="fill: #1f77b4; stroke: #1f77b4"/>
     <use xlink:href="#ma16ae1955d" x="355.591128" y="80.311586" style="fill: #1f77b4; stroke: #1f77b4"/>
     <use xlink:href="#ma16ae1955d" x="357.222558" y="80.136242" style="fill: #1f77b4; stroke: #1f77b4"/>
     <use xlink:href="#ma16ae1955d" x="358.853988" y="79.927807" style="fill: #1f77b4; stroke: #1f77b4"/>
     <use xlink:href="#ma16ae1955d" x="360.485418" y="79.717311" style="fill: #1f77b4; stroke: #1f77b4"/>
     <use xlink:href="#ma16ae1955d" x="362.116847" y="79.576961" style="fill: #1f77b4; stroke: #1f77b4"/>
     <use xlink:href="#ma16ae1955d" x="363.748277" y="79.362738" style="fill: #1f77b4; stroke: #1f77b4"/>
     <use xlink:href="#ma16ae1955d" x="365.379707" y="79.154234" style="fill: #1f77b4; stroke: #1f77b4"/>
     <use xlink:href="#ma16ae1955d" x="367.011137" y="78.968069" style="fill: #1f77b4; stroke: #1f77b4"/>
     <use xlink:href="#ma16ae1955d" x="368.642567" y="78.780219" style="fill: #1f77b4; stroke: #1f77b4"/>
     <use xlink:href="#ma16ae1955d" x="370.273997" y="78.581439" style="fill: #1f77b4; stroke: #1f77b4"/>
     <use xlink:href="#ma16ae1955d" x="371.905427" y="78.441452" style="fill: #1f77b4; stroke: #1f77b4"/>
     <use xlink:href="#ma16ae1955d" x="373.536857" y="78.204627" style="fill: #1f77b4; stroke: #1f77b4"/>
     <use xlink:href="#ma16ae1955d" x="375.168286" y="78.0098" style="fill: #1f77b4; stroke: #1f77b4"/>
     <use xlink:href="#ma16ae1955d" x="376.799716" y="77.797617" style="fill: #1f77b4; stroke: #1f77b4"/>
     <use xlink:href="#ma16ae1955d" x="378.431146" y="77.593721" style="fill: #1f77b4; stroke: #1f77b4"/>
     <use xlink:href="#ma16ae1955d" x="380.062576" y="77.414635" style="fill: #1f77b4; stroke: #1f77b4"/>
     <use xlink:href="#ma16ae1955d" x="381.694006" y="77.153246" style="fill: #1f77b4; stroke: #1f77b4"/>
     <use xlink:href="#ma16ae1955d" x="383.325436" y="76.951753" style="fill: #1f77b4; stroke: #1f77b4"/>
     <use xlink:href="#ma16ae1955d" x="384.956866" y="76.776464" style="fill: #1f77b4; stroke: #1f77b4"/>
     <use xlink:href="#ma16ae1955d" x="386.588296" y="76.625472" style="fill: #1f77b4; stroke: #1f77b4"/>
     <use xlink:href="#ma16ae1955d" x="388.219725" y="76.350581" style="fill: #1f77b4; stroke: #1f77b4"/>
     <use xlink:href="#ma16ae1955d" x="389.851155" y="76.176461" style="fill: #1f77b4; stroke: #1f77b4"/>
     <use xlink:href="#ma16ae1955d" x="391.482585" y="75.982286" style="fill: #1f77b4; stroke: #1f77b4"/>
    </g>
   </g>
   <g id="line2d_12">
    <path d="M 66.82804 71.262423 
L 90.876525 70.463846 
L 110.050317 69.611024 
L 125.324354 68.719953 
L 137.998556 67.767834 
L 148.72288 66.743475 
L 157.822307 65.651104 
L 165.296836 64.541558 
L 171.796426 63.366562 
L 177.646058 62.088136 
L 182.84573 60.723522 
L 187.395444 59.305432 
L 191.620177 57.756726 
L 195.519932 56.090346 
L 199.419686 54.167287 
L 203.31944 51.992325 
L 209.819031 48.277992 
L 211.443928 47.608049 
L 212.743846 47.29994 
L 213.718785 47.272807 
L 214.693724 47.489929 
L 215.343683 47.80945 
L 215.993642 48.301619 
L 216.643601 48.999085 
L 217.29356 49.938505 
L 217.943519 51.160203 
L 218.918457 53.616999 
L 219.893396 56.956465 
L 220.868335 61.31806 
L 221.843273 66.805186 
L 222.818212 73.45487 
L 224.11813 84.017091 
L 225.743027 99.300859 
L 229.967761 140.268857 
L 231.267679 150.534621 
L 231.917638 154.589061 
L 232.242618 156.087655 
L 232.567598 157.017547 
L 232.892577 157.221818 
L 233.217557 156.71038 
L 233.867516 154.323984 
L 238.092249 135.200917 
L 239.717147 129.467484 
L 241.342045 124.585527 
L 242.966942 120.411222 
L 244.59184 116.820315 
L 246.216738 113.710612 
L 248.166615 110.49893 
L 250.116492 107.749109 
L 252.066369 105.3739 
L 254.341226 102.986613 
L 256.616082 100.934372 
L 259.215919 98.918681 
L 261.815755 97.186529 
L 264.74057 95.509733 
L 267.990366 93.916804 
L 271.565141 92.425112 
L 275.464895 91.043221 
L 280.014608 89.683763 
L 284.889301 88.461532 
L 290.413953 87.30162 
L 296.913543 86.170364 
L 304.388073 85.10334 
L 313.16252 84.086084 
L 323.236885 83.14588 
L 335.261127 82.251343 
L 349.885206 81.397096 
L 367.4341 80.603463 
L 389.207729 79.85233 
L 391.482585 79.784975 
L 391.482585 79.784975 
" clip-path="url(#pdee6ab46a4)" style="fill: none; stroke: #d62728; stroke-width: 1.5; stroke-linecap: square"/>
   </g>
   <g id="patch_3">
    <path d="M 50.595313 162.72 
L 50.595313 41.76 
" style="fill: none; stroke: #000000; stroke-width: 0.8; stroke-linejoin: miter; stroke-linecap: square"/>
   </g>
   <g id="patch_4">
    <path d="M 407.715312 162.72 
L 407.715312 41.76 
" style="fill: none; stroke: #000000; stroke-width: 0.8; stroke-linejoin: miter; stroke-linecap: square"/>
   </g>
   <g id="patch_5">
    <path d="M 50.595313 162.72 
L 407.715313 162.72 
" style="fill: none; stroke: #000000; stroke-width: 0.8; stroke-linejoin: miter; stroke-linecap: square"/>
   </g>
   <g id="patch_6">
    <path d="M 50.595313 41.76 
L 407.715313 41.76 
" style="fill: none; stroke: #000000; stroke-width: 0.8; stroke-linejoin: miter; stroke-linecap: square"/>
   </g>
   <g id="text_5">
    <g id="patch_7">
     <path d="M 425.571312 95.079562 
L 571.071312 95.079562 
Q 575.071312 95.079562 575.071312 91.079562 
L 575.071312 47.808 
Q 575.071312 43.808 571.071312 43.808 
L 425.571312 43.808 
Q 421.571312 43.808 421.571312 47.808 
L 421.571312 91.079562 
Q 421.571312 95.079562 425.571312 95.079562 
z
" style="fill: #ffffff; opacity: 0.5; stroke: #000000; stroke-linejoin: miter"/>
    </g>
    <!-- Summary -->
    <g transform="translate(425.571312 55.406437) scale(0.1 -0.1)">
     <defs>
      <path id="DejaVuSans-53" d="M 3425 4513 
L 3425 3897 
Q 3066 4069 2747 4153 
Q 2428 4238 2131 4238 
Q 1616 4238 1336 4038 
Q 1056 3838 1056 3469 
Q 1056 3159 1242 3001 
Q 1428 2844 1947 2747 
L 2328 2669 
Q 3034 2534 3370 2195 
Q 3706 1856 3706 1288 
Q 3706 609 3251 259 
Q 2797 -91 1919 -91 
Q 1588 -91 1214 -16 
Q 841 59 441 206 
L 441 856 
Q 825 641 1194 531 
Q 1563 422 1919 422 
Q 2459 422 2753 634 
Q 3047 847 3047 1241 
Q 3047 1584 2836 1778 
Q 2625 1972 2144 2069 
L 1759 2144 
Q 1053 2284 737 2584 
Q 422 2884 422 3419 
Q 422 4038 858 4394 
Q 1294 4750 2059 4750 
Q 2388 4750 2728 4690 
Q 3069 4631 3425 4513 
z
" transform="scale(0.015625)"/>
      <path id="DejaVuSans-75" d="M 544 1381 
L 544 3500 
L 1119 3500 
L 1119 1403 
Q 1119 906 1312 657 
Q 1506 409 1894 409 
Q 2359 409 2629 706 
Q 2900 1003 2900 1516 
L 2900 3500 
L 3475 3500 
L 3475 0 
L 2900 0 
L 2900 538 
Q 2691 219 2414 64 
Q 2138 -91 1772 -91 
Q 1169 -91 856 284 
Q 544 659 544 1381 
z
M 1991 3584 
L 1991 3584 
z
" transform="scale(0.015625)"/>
      <path id="DejaVuSans-61" d="M 2194 1759 
Q 1497 1759 1228 1600 
Q 959 1441 959 1056 
Q 959 750 1161 570 
Q 1363 391 1709 391 
Q 2188 391 2477 730 
Q 2766 1069 2766 1631 
L 2766 1759 
L 2194 1759 
z
M 3341 1997 
L 3341 0 
L 2766 0 
L 2766 531 
Q 2569 213 2275 61 
Q 1981 -91 1556 -91 
Q 1019 -91 701 211 
Q 384 513 384 1019 
Q 384 1609 779 1909 
Q 1175 2209 1959 2209 
L 2766 2209 
L 2766 2266 
Q 2766 2663 2505 2880 
Q 2244 3097 1772 3097 
Q 1472 3097 1187 3025 
Q 903 2953 641 2809 
L 641 3341 
Q 956 3463 1253 3523 
Q 1550 3584 1831 3584 
Q 2591 3584 2966 3190 
Q 3341 2797 3341 1997 
z
" transform="scale(0.015625)"/>
      <path id="DejaVuSans-72" d="M 2631 2963 
Q 2534 3019 2420 3045 
Q 2306 3072 2169 3072 
Q 1681 3072 1420 2755 
Q 1159 2438 1159 1844 
L 1159 0 
L 581 0 
L 581 3500 
L 1159 3500 
L 1159 2956 
Q 1341 3275 1631 3429 
Q 1922 3584 2338 3584 
Q 2397 3584 2469 3576 
Q 2541 3569 2628 3553 
L 2631 2963 
z
" transform="scale(0.015625)"/>
      <path id="DejaVuSans-79" d="M 2059 -325 
Q 1816 -950 1584 -1140 
Q 1353 -1331 966 -1331 
L 506 -1331 
L 506 -850 
L 844 -850 
Q 1081 -850 1212 -737 
Q 1344 -625 1503 -206 
L 1606 56 
L 191 3500 
L 800 3500 
L 1894 763 
L 2988 3500 
L 3597 3500 
L 2059 -325 
z
" transform="scale(0.015625)"/>
     </defs>
     <use xlink:href="#DejaVuSans-53"/>
     <use xlink:href="#DejaVuSans-75" x="63.476562"/>
     <use xlink:href="#DejaVuSans-6d" x="126.855469"/>
     <use xlink:href="#DejaVuSans-6d" x="224.267578"/>
     <use xlink:href="#DejaVuSans-61" x="321.679688"/>
     <use xlink:href="#DejaVuSans-72" x="382.958984"/>
     <use xlink:href="#DejaVuSans-79" x="424.072266"/>
    </g>
    <!-- $Q_I$: 32.8$\pm$2.1 k -->
    <g transform="translate(425.571312 66.60425) scale(0.1 -0.1)">
     <defs>
      <path id="DejaVuSans-Oblique-51" d="M 2309 -84 
Q 2275 -88 2237 -89 
Q 2200 -91 2125 -91 
Q 1250 -91 756 411 
Q 263 913 263 1797 
Q 263 2319 452 2844 
Q 641 3369 978 3788 
Q 1369 4269 1858 4509 
Q 2347 4750 2938 4750 
Q 3794 4750 4287 4245 
Q 4781 3741 4781 2869 
Q 4781 1928 4265 1147 
Q 3750 366 2919 44 
L 3553 -825 
L 2847 -825 
L 2309 -84 
z
M 2919 4238 
Q 2400 4238 2003 3986 
Q 1606 3734 1313 3219 
Q 1125 2891 1026 2522 
Q 928 2153 928 1778 
Q 928 1128 1239 775 
Q 1550 422 2119 422 
Q 2631 422 3032 676 
Q 3434 931 3719 1434 
Q 3909 1772 4009 2142 
Q 4109 2513 4109 2881 
Q 4109 3528 3796 3883 
Q 3484 4238 2919 4238 
z
" transform="scale(0.015625)"/>
      <path id="DejaVuSans-Oblique-49" d="M 1081 4666 
L 1716 4666 
L 806 0 
L 172 0 
L 1081 4666 
z
" transform="scale(0.015625)"/>
      <path id="DejaVuSans-3a" d="M 750 794 
L 1409 794 
L 1409 0 
L 750 0 
L 750 794 
z
M 750 3309 
L 1409 3309 
L 1409 2516 
L 750 2516 
L 750 3309 
z
" transform="scale(0.015625)"/>
      <path id="DejaVuSans-2e" d="M 684 794 
L 1344 794 
L 1344 0 
L 684 0 
L 684 794 
z
" transform="scale(0.015625)"/>
      <path id="DejaVuSans-38" d="M 2034 2216 
Q 1584 2216 1326 1975 
Q 1069 1734 1069 1313 
Q 1069 891 1326 650 
Q 1584 409 2034 409 
Q 2484 409 2743 651 
Q 3003 894 3003 1313 
Q 3003 1734 2745 1975 
Q 2488 2216 2034 2216 
z
M 1403 2484 
Q 997 2584 770 2862 
Q 544 3141 544 3541 
Q 544 4100 942 4425 
Q 1341 4750 2034 4750 
Q 2731 4750 3128 4425 
Q 3525 4100 3525 3541 
Q 3525 3141 3298 2862 
Q 3072 2584 2669 2484 
Q 3125 2378 3379 2068 
Q 3634 1759 3634 1313 
Q 3634 634 3220 271 
Q 2806 -91 2034 -91 
Q 1263 -91 848 271 
Q 434 634 434 1313 
Q 434 1759 690 2068 
Q 947 2378 1403 2484 
z
M 1172 3481 
Q 1172 3119 1398 2916 
Q 1625 2713 2034 2713 
Q 2441 2713 2670 2916 
Q 2900 3119 2900 3481 
Q 2900 3844 2670 4047 
Q 2441 4250 2034 4250 
Q 1625 4250 1398 4047 
Q 1172 3844 1172 3481 
z
" transform="scale(0.015625)"/>
      <path id="DejaVuSans-b1" d="M 2944 4013 
L 2944 2803 
L 4684 2803 
L 4684 2272 
L 2944 2272 
L 2944 1063 
L 2419 1063 
L 2419 2272 
L 678 2272 
L 678 2803 
L 2419 2803 
L 2419 4013 
L 2944 4013 
z
M 678 531 
L 4684 531 
L 4684 0 
L 678 0 
L 678 531 
z
" transform="scale(0.015625)"/>
      <path id="DejaVuSans-6b" d="M 581 4863 
L 1159 4863 
L 1159 1991 
L 2875 3500 
L 3609 3500 
L 1753 1863 
L 3688 0 
L 2938 0 
L 1159 1709 
L 1159 0 
L 581 0 
L 581 4863 
z
" transform="scale(0.015625)"/>
     </defs>
     <use xlink:href="#DejaVuSans-Oblique-51" transform="translate(0 0.015625)"/>
     <use xlink:href="#DejaVuSans-Oblique-49" transform="translate(78.710938 -16.390625) scale(0.7)"/>
     <use xlink:href="#DejaVuSans-3a" transform="translate(102.089844 0.015625)"/>
     <use xlink:href="#DejaVuSans-20" transform="translate(135.78125 0.015625)"/>
     <use xlink:href="#DejaVuSans-33" transform="translate(167.568359 0.015625)"/>
     <use xlink:href="#DejaVuSans-32" transform="translate(231.191406 0.015625)"/>
     <use xlink:href="#DejaVuSans-2e" transform="translate(294.814453 0.015625)"/>
     <use xlink:href="#DejaVuSans-38" transform="translate(323.976562 0.015625)"/>
     <use xlink:href="#DejaVuSans-b1" transform="translate(387.599609 0.015625)"/>
     <use xlink:href="#DejaVuSans-32" transform="translate(471.388672 0.015625)"/>
     <use xlink:href="#DejaVuSans-2e" transform="translate(535.011719 0.015625)"/>
     <use xlink:href="#DejaVuSans-31" transform="translate(566.798828 0.015625)"/>
     <use xlink:href="#DejaVuSans-20" transform="translate(630.421875 0.015625)"/>
     <use xlink:href="#DejaVuSans-6b" transform="translate(662.208984 0.015625)"/>
    </g>
    <!-- $Q_C$: 3.645$\pm$0.027 k -->
    <g transform="translate(425.571312 77.802062) scale(0.1 -0.1)">
     <defs>
      <path id="DejaVuSans-Oblique-43" d="M 4447 4306 
L 4319 3641 
Q 4019 3944 3683 4091 
Q 3347 4238 2956 4238 
Q 2422 4238 2017 3981 
Q 1613 3725 1319 3200 
Q 1131 2863 1032 2486 
Q 934 2109 934 1728 
Q 934 1091 1264 756 
Q 1594 422 2222 422 
Q 2656 422 3056 561 
Q 3456 700 3834 978 
L 3688 231 
Q 3316 72 2936 -9 
Q 2556 -91 2175 -91 
Q 1278 -91 773 396 
Q 269 884 269 1753 
Q 269 2309 461 2846 
Q 653 3384 1013 3828 
Q 1394 4300 1883 4525 
Q 2372 4750 3022 4750 
Q 3422 4750 3780 4639 
Q 4138 4528 4447 4306 
z
" transform="scale(0.015625)"/>
      <path id="DejaVuSans-36" d="M 2113 2584 
Q 1688 2584 1439 2293 
Q 1191 2003 1191 1497 
Q 1191 994 1439 701 
Q 1688 409 2113 409 
Q 2538 409 2786 701 
Q 3034 994 3034 1497 
Q 3034 2003 2786 2293 
Q 2538 2584 2113 2584 
z
M 3366 4563 
L 3366 3988 
Q 3128 4100 2886 4159 
Q 2644 4219 2406 4219 
Q 1781 4219 1451 3797 
Q 1122 3375 1075 2522 
Q 1259 2794 1537 2939 
Q 1816 3084 2150 3084 
Q 2853 3084 3261 2657 
Q 3669 2231 3669 1497 
Q 3669 778 3244 343 
Q 2819 -91 2113 -91 
Q 1303 -91 875 529 
Q 447 1150 447 2328 
Q 447 3434 972 4092 
Q 1497 4750 2381 4750 
Q 2619 4750 2861 4703 
Q 3103 4656 3366 4563 
z
" transform="scale(0.015625)"/>
      <path id="DejaVuSans-34" d="M 2419 4116 
L 825 1625 
L 2419 1625 
L 2419 4116 
z
M 2253 4666 
L 3047 4666 
L 3047 1625 
L 3713 1625 
L 3713 1100 
L 3047 1100 
L 3047 0 
L 2419 0 
L 2419 1100 
L 313 1100 
L 313 1709 
L 2253 4666 
z
" transform="scale(0.015625)"/>
      <path id="DejaVuSans-35" d="M 691 4666 
L 3169 4666 
L 3169 4134 
L 1269 4134 
L 1269 2991 
Q 1406 3038 1543 3061 
Q 1681 3084 1819 3084 
Q 2600 3084 3056 2656 
Q 3513 2228 3513 1497 
Q 3513 744 3044 326 
Q 2575 -91 1722 -91 
Q 1428 -91 1123 -41 
Q 819 9 494 109 
L 494 744 
Q 775 591 1075 516 
Q 1375 441 1709 441 
Q 2250 441 2565 725 
Q 2881 1009 2881 1497 
Q 2881 1984 2565 2268 
Q 2250 2553 1709 2553 
Q 1456 2553 1204 2497 
Q 953 2441 691 2322 
L 691 4666 
z
" transform="scale(0.015625)"/>
      <path id="DejaVuSans-37" d="M 525 4666 
L 3525 4666 
L 3525 4397 
L 1831 0 
L 1172 0 
L 2766 4134 
L 525 4134 
L 525 4666 
z
" transform="scale(0.015625)"/>
     </defs>
     <use xlink:href="#DejaVuSans-Oblique-51" transform="translate(0 0.015625)"/>
     <use xlink:href="#DejaVuSans-Oblique-43" transform="translate(78.710938 -16.390625) scale(0.7)"/>
     <use xlink:href="#DejaVuSans-3a" transform="translate(130.322266 0.015625)"/>
     <use xlink:href="#DejaVuSans-20" transform="translate(164.013672 0.015625)"/>
     <use xlink:href="#DejaVuSans-33" transform="translate(195.800781 0.015625)"/>
     <use xlink:href="#DejaVuSans-2e" transform="translate(259.423828 0.015625)"/>
     <use xlink:href="#DejaVuSans-36" transform="translate(291.210938 0.015625)"/>
     <use xlink:href="#DejaVuSans-34" transform="translate(354.833984 0.015625)"/>
     <use xlink:href="#DejaVuSans-35" transform="translate(418.457031 0.015625)"/>
     <use xlink:href="#DejaVuSans-b1" transform="translate(482.080078 0.015625)"/>
     <use xlink:href="#DejaVuSans-30" transform="translate(565.869141 0.015625)"/>
     <use xlink:href="#DejaVuSans-2e" transform="translate(629.492188 0.015625)"/>
     <use xlink:href="#DejaVuSans-30" transform="translate(661.279297 0.015625)"/>
     <use xlink:href="#DejaVuSans-32" transform="translate(724.902344 0.015625)"/>
     <use xlink:href="#DejaVuSans-37" transform="translate(788.525391 0.015625)"/>
     <use xlink:href="#DejaVuSans-20" transform="translate(852.148438 0.015625)"/>
     <use xlink:href="#DejaVuSans-6b" transform="translate(883.935547 0.015625)"/>
    </g>
    <!-- $f_{res}$: 5.8343306$\pm$6.4e-06 GHz -->
    <g transform="translate(425.571312 88.999875) scale(0.1 -0.1)">
     <defs>
      <path id="DejaVuSans-Oblique-66" d="M 3059 4863 
L 2969 4384 
L 2419 4384 
Q 2106 4384 1964 4261 
Q 1822 4138 1753 3809 
L 1691 3500 
L 2638 3500 
L 2553 3053 
L 1606 3053 
L 1013 0 
L 434 0 
L 1031 3053 
L 481 3053 
L 563 3500 
L 1113 3500 
L 1159 3744 
Q 1278 4363 1576 4613 
Q 1875 4863 2516 4863 
L 3059 4863 
z
" transform="scale(0.015625)"/>
      <path id="DejaVuSans-Oblique-72" d="M 2853 2969 
Q 2766 3016 2653 3041 
Q 2541 3066 2413 3066 
Q 1953 3066 1609 2717 
Q 1266 2369 1153 1784 
L 800 0 
L 225 0 
L 909 3500 
L 1484 3500 
L 1375 2956 
Q 1603 3259 1920 3421 
Q 2238 3584 2597 3584 
Q 2691 3584 2781 3573 
Q 2872 3563 2963 3538 
L 2853 2969 
z
" transform="scale(0.015625)"/>
      <path id="DejaVuSans-Oblique-65" d="M 3078 2063 
Q 3088 2113 3092 2166 
Q 3097 2219 3097 2272 
Q 3097 2653 2873 2875 
Q 2650 3097 2266 3097 
Q 1838 3097 1509 2826 
Q 1181 2556 1013 2059 
L 3078 2063 
z
M 3578 1613 
L 903 1613 
Q 884 1494 878 1425 
Q 872 1356 872 1306 
Q 872 872 1139 634 
Q 1406 397 1894 397 
Q 2269 397 2603 481 
Q 2938 566 3225 728 
L 3116 159 
Q 2806 34 2476 -28 
Q 2147 -91 1806 -91 
Q 1078 -91 686 257 
Q 294 606 294 1247 
Q 294 1794 489 2264 
Q 684 2734 1063 3103 
Q 1306 3334 1642 3459 
Q 1978 3584 2356 3584 
Q 2950 3584 3301 3228 
Q 3653 2872 3653 2272 
Q 3653 2128 3634 1964 
Q 3616 1800 3578 1613 
z
" transform="scale(0.015625)"/>
      <path id="DejaVuSans-Oblique-73" d="M 3200 3397 
L 3091 2853 
Q 2863 2978 2609 3040 
Q 2356 3103 2088 3103 
Q 1634 3103 1373 2948 
Q 1113 2794 1113 2528 
Q 1113 2219 1719 2053 
Q 1766 2041 1788 2034 
L 1972 1978 
Q 2547 1819 2739 1644 
Q 2931 1469 2931 1166 
Q 2931 609 2489 259 
Q 2047 -91 1331 -91 
Q 1053 -91 747 -37 
Q 441 16 72 128 
L 184 722 
Q 500 559 806 475 
Q 1113 391 1394 391 
Q 1816 391 2080 572 
Q 2344 753 2344 1031 
Q 2344 1331 1650 1516 
L 1591 1531 
L 1394 1581 
Q 956 1697 753 1886 
Q 550 2075 550 2369 
Q 550 2928 970 3256 
Q 1391 3584 2113 3584 
Q 2397 3584 2667 3537 
Q 2938 3491 3200 3397 
z
" transform="scale(0.015625)"/>
      <path id="DejaVuSans-65" d="M 3597 1894 
L 3597 1613 
L 953 1613 
Q 991 1019 1311 708 
Q 1631 397 2203 397 
Q 2534 397 2845 478 
Q 3156 559 3463 722 
L 3463 178 
Q 3153 47 2828 -22 
Q 2503 -91 2169 -91 
Q 1331 -91 842 396 
Q 353 884 353 1716 
Q 353 2575 817 3079 
Q 1281 3584 2069 3584 
Q 2775 3584 3186 3129 
Q 3597 2675 3597 1894 
z
M 3022 2063 
Q 3016 2534 2758 2815 
Q 2500 3097 2075 3097 
Q 1594 3097 1305 2825 
Q 1016 2553 972 2059 
L 3022 2063 
z
" transform="scale(0.015625)"/>
      <path id="DejaVuSans-2d" d="M 313 2009 
L 1997 2009 
L 1997 1497 
L 313 1497 
L 313 2009 
z
" transform="scale(0.015625)"/>
      <path id="DejaVuSans-47" d="M 3809 666 
L 3809 1919 
L 2778 1919 
L 2778 2438 
L 4434 2438 
L 4434 434 
Q 4069 175 3628 42 
Q 3188 -91 2688 -91 
Q 1594 -91 976 548 
Q 359 1188 359 2328 
Q 359 3472 976 4111 
Q 1594 4750 2688 4750 
Q 3144 4750 3555 4637 
Q 3966 4525 4313 4306 
L 4313 3634 
Q 3963 3931 3569 4081 
Q 3175 4231 2741 4231 
Q 1884 4231 1454 3753 
Q 1025 3275 1025 2328 
Q 1025 1384 1454 906 
Q 1884 428 2741 428 
Q 3075 428 3337 486 
Q 3600 544 3809 666 
z
" transform="scale(0.015625)"/>
      <path id="DejaVuSans-48" d="M 628 4666 
L 1259 4666 
L 1259 2753 
L 3553 2753 
L 3553 4666 
L 4184 4666 
L 4184 0 
L 3553 0 
L 3553 2222 
L 1259 2222 
L 1259 0 
L 628 0 
L 628 4666 
z
" transform="scale(0.015625)"/>
      <path id="DejaVuSans-7a" d="M 353 3500 
L 3084 3500 
L 3084 2975 
L 922 459 
L 3084 459 
L 3084 0 
L 275 0 
L 275 525 
L 2438 3041 
L 353 3041 
L 353 3500 
z
" transform="scale(0.015625)"/>
     </defs>
     <use xlink:href="#DejaVuSans-Oblique-66" transform="translate(0 0.015625)"/>
     <use xlink:href="#DejaVuSans-Oblique-72" transform="translate(35.205078 -16.390625) scale(0.7)"/>
     <use xlink:href="#DejaVuSans-Oblique-65" transform="translate(63.984375 -16.390625) scale(0.7)"/>
     <use xlink:href="#DejaVuSans-Oblique-73" transform="translate(107.050781 -16.390625) scale(0.7)"/>
     <use xlink:href="#DejaVuSans-3a" transform="translate(146.254883 0.015625)"/>
     <use xlink:href="#DejaVuSans-20" transform="translate(179.946289 0.015625)"/>
     <use xlink:href="#DejaVuSans-35" transform="translate(211.733398 0.015625)"/>
     <use xlink:href="#DejaVuSans-2e" transform="translate(275.356445 0.015625)"/>
     <use xlink:href="#DejaVuSans-38" transform="translate(304.518555 0.015625)"/>
     <use xlink:href="#DejaVuSans-33" transform="translate(368.141602 0.015625)"/>
     <use xlink:href="#DejaVuSans-34" transform="translate(431.764648 0.015625)"/>
     <use xlink:href="#DejaVuSans-33" transform="translate(495.387695 0.015625)"/>
     <use xlink:href="#DejaVuSans-33" transform="translate(559.010742 0.015625)"/>
     <use xlink:href="#DejaVuSans-30" transform="translate(622.633789 0.015625)"/>
     <use xlink:href="#DejaVuSans-36" transform="translate(686.256836 0.015625)"/>
     <use xlink:href="#DejaVuSans-b1" transform="translate(749.879883 0.015625)"/>
     <use xlink:href="#DejaVuSans-36" transform="translate(833.668945 0.015625)"/>
     <use xlink:href="#DejaVuSans-2e" transform="translate(897.291992 0.015625)"/>
     <use xlink:href="#DejaVuSans-34" transform="translate(929.079102 0.015625)"/>
     <use xlink:href="#DejaVuSans-65" transform="translate(992.702148 0.015625)"/>
     <use xlink:href="#DejaVuSans-2d" transform="translate(1054.225586 0.015625)"/>
     <use xlink:href="#DejaVuSans-30" transform="translate(1090.30957 0.015625)"/>
     <use xlink:href="#DejaVuSans-36" transform="translate(1153.932617 0.015625)"/>
     <use xlink:href="#DejaVuSans-20" transform="translate(1217.555664 0.015625)"/>
     <use xlink:href="#DejaVuSans-47" transform="translate(1249.342773 0.015625)"/>
     <use xlink:href="#DejaVuSans-48" transform="translate(1326.833008 0.015625)"/>
     <use xlink:href="#DejaVuSans-7a" transform="translate(1402.02832 0.015625)"/>
    </g>
   </g>
  </g>
  <g id="axes_2">
   <g id="patch_8">
    <path d="M 50.595313 307.872 
L 407.715312 307.872 
L 407.715312 186.912 
L 50.595313 186.912 
z
" style="fill: #ffffff"/>
   </g>
   <g id="matplotlib.axis_3">
    <g id="xtick_8">
     <g id="line2d_13">
      <g>
       <use xlink:href="#m277c746985" x="69.425276" y="307.872" style="stroke: #000000; stroke-width: 0.8"/>
      </g>
     </g>
     <g id="text_6">
      <!-- 820 -->
      <g transform="translate(59.881526 322.470438) scale(0.1 -0.1)">
       <use xlink:href="#DejaVuSans-38"/>
       <use xlink:href="#DejaVuSans-32" x="63.623047"/>
       <use xlink:href="#DejaVuSans-30" x="127.246094"/>
      </g>
     </g>
    </g>
    <g id="xtick_9">
     <g id="line2d_14">
      <g>
       <use xlink:href="#m277c746985" x="123.534367" y="307.872" style="stroke: #000000; stroke-width: 0.8"/>
      </g>
     </g>
     <g id="text_7">
      <!-- 825 -->
      <g transform="translate(113.990617 322.470438) scale(0.1 -0.1)">
       <use xlink:href="#DejaVuSans-38"/>
       <use xlink:href="#DejaVuSans-32" x="63.623047"/>
       <use xlink:href="#DejaVuSans-35" x="127.246094"/>
      </g>
     </g>
    </g>
    <g id="xtick_10">
     <g id="line2d_15">
      <g>
       <use xlink:href="#m277c746985" x="177.643458" y="307.872" style="stroke: #000000; stroke-width: 0.8"/>
      </g>
     </g>
     <g id="text_8">
      <!-- 830 -->
      <g transform="translate(168.099708 322.470438) scale(0.1 -0.1)">
       <use xlink:href="#DejaVuSans-38"/>
       <use xlink:href="#DejaVuSans-33" x="63.623047"/>
       <use xlink:href="#DejaVuSans-30" x="127.246094"/>
      </g>
     </g>
    </g>
    <g id="xtick_11">
     <g id="line2d_16">
      <g>
       <use xlink:href="#m277c746985" x="231.752549" y="307.872" style="stroke: #000000; stroke-width: 0.8"/>
      </g>
     </g>
     <g id="text_9">
      <!-- 835 -->
      <g transform="translate(222.208799 322.470438) scale(0.1 -0.1)">
       <use xlink:href="#DejaVuSans-38"/>
       <use xlink:href="#DejaVuSans-33" x="63.623047"/>
       <use xlink:href="#DejaVuSans-35" x="127.246094"/>
      </g>
     </g>
    </g>
    <g id="xtick_12">
     <g id="line2d_17">
      <g>
       <use xlink:href="#m277c746985" x="285.86164" y="307.872" style="stroke: #000000; stroke-width: 0.8"/>
      </g>
     </g>
     <g id="text_10">
      <!-- 840 -->
      <g transform="translate(276.31789 322.470438) scale(0.1 -0.1)">
       <use xlink:href="#DejaVuSans-38"/>
       <use xlink:href="#DejaVuSans-34" x="63.623047"/>
       <use xlink:href="#DejaVuSans-30" x="127.246094"/>
      </g>
     </g>
    </g>
    <g id="xtick_13">
     <g id="line2d_18">
      <g>
       <use xlink:href="#m277c746985" x="339.970731" y="307.872" style="stroke: #000000; stroke-width: 0.8"/>
      </g>
     </g>
     <g id="text_11">
      <!-- 845 -->
      <g transform="translate(330.426981 322.470438) scale(0.1 -0.1)">
       <use xlink:href="#DejaVuSans-38"/>
       <use xlink:href="#DejaVuSans-34" x="63.623047"/>
       <use xlink:href="#DejaVuSans-35" x="127.246094"/>
      </g>
     </g>
    </g>
    <g id="xtick_14">
     <g id="line2d_19">
      <g>
       <use xlink:href="#m277c746985" x="394.079822" y="307.872" style="stroke: #000000; stroke-width: 0.8"/>
      </g>
     </g>
     <g id="text_12">
      <!-- 850 -->
      <g transform="translate(384.536072 322.470438) scale(0.1 -0.1)">
       <use xlink:href="#DejaVuSans-38"/>
       <use xlink:href="#DejaVuSans-35" x="63.623047"/>
       <use xlink:href="#DejaVuSans-30" x="127.246094"/>
      </g>
     </g>
    </g>
    <g id="text_13">
     <!-- Frequency [MHz] -->
     <g transform="translate(187.136562 336.148562) scale(0.1 -0.1)">
      <defs>
       <path id="DejaVuSans-46" d="M 628 4666 
L 3309 4666 
L 3309 4134 
L 1259 4134 
L 1259 2759 
L 3109 2759 
L 3109 2228 
L 1259 2228 
L 1259 0 
L 628 0 
L 628 4666 
z
" transform="scale(0.015625)"/>
       <path id="DejaVuSans-71" d="M 947 1747 
Q 947 1113 1208 752 
Q 1469 391 1925 391 
Q 2381 391 2643 752 
Q 2906 1113 2906 1747 
Q 2906 2381 2643 2742 
Q 2381 3103 1925 3103 
Q 1469 3103 1208 2742 
Q 947 2381 947 1747 
z
M 2906 525 
Q 2725 213 2448 61 
Q 2172 -91 1784 -91 
Q 1150 -91 751 415 
Q 353 922 353 1747 
Q 353 2572 751 3078 
Q 1150 3584 1784 3584 
Q 2172 3584 2448 3432 
Q 2725 3281 2906 2969 
L 2906 3500 
L 3481 3500 
L 3481 -1331 
L 2906 -1331 
L 2906 525 
z
" transform="scale(0.015625)"/>
       <path id="DejaVuSans-6e" d="M 3513 2113 
L 3513 0 
L 2938 0 
L 2938 2094 
Q 2938 2591 2744 2837 
Q 2550 3084 2163 3084 
Q 1697 3084 1428 2787 
Q 1159 2491 1159 1978 
L 1159 0 
L 581 0 
L 581 3500 
L 1159 3500 
L 1159 2956 
Q 1366 3272 1645 3428 
Q 1925 3584 2291 3584 
Q 2894 3584 3203 3211 
Q 3513 2838 3513 2113 
z
" transform="scale(0.015625)"/>
       <path id="DejaVuSans-63" d="M 3122 3366 
L 3122 2828 
Q 2878 2963 2633 3030 
Q 2388 3097 2138 3097 
Q 1578 3097 1268 2742 
Q 959 2388 959 1747 
Q 959 1106 1268 751 
Q 1578 397 2138 397 
Q 2388 397 2633 464 
Q 2878 531 3122 666 
L 3122 134 
Q 2881 22 2623 -34 
Q 2366 -91 2075 -91 
Q 1284 -91 818 406 
Q 353 903 353 1747 
Q 353 2603 823 3093 
Q 1294 3584 2113 3584 
Q 2378 3584 2631 3529 
Q 2884 3475 3122 3366 
z
" transform="scale(0.015625)"/>
       <path id="DejaVuSans-4d" d="M 628 4666 
L 1569 4666 
L 2759 1491 
L 3956 4666 
L 4897 4666 
L 4897 0 
L 4281 0 
L 4281 4097 
L 3078 897 
L 2444 897 
L 1241 4097 
L 1241 0 
L 628 0 
L 628 4666 
z
" transform="scale(0.015625)"/>
      </defs>
      <use xlink:href="#DejaVuSans-46"/>
      <use xlink:href="#DejaVuSans-72" x="50.269531"/>
      <use xlink:href="#DejaVuSans-65" x="89.132812"/>
      <use xlink:href="#DejaVuSans-71" x="150.65625"/>
      <use xlink:href="#DejaVuSans-75" x="214.132812"/>
      <use xlink:href="#DejaVuSans-65" x="277.511719"/>
      <use xlink:href="#DejaVuSans-6e" x="339.035156"/>
      <use xlink:href="#DejaVuSans-63" x="402.414062"/>
      <use xlink:href="#DejaVuSans-79" x="457.394531"/>
      <use xlink:href="#DejaVuSans-20" x="516.574219"/>
      <use xlink:href="#DejaVuSans-5b" x="548.361328"/>
      <use xlink:href="#DejaVuSans-4d" x="587.375"/>
      <use xlink:href="#DejaVuSans-48" x="673.654297"/>
      <use xlink:href="#DejaVuSans-7a" x="748.849609"/>
      <use xlink:href="#DejaVuSans-5d" x="801.339844"/>
     </g>
    </g>
    <g id="text_14">
     <!-- +5 GHz -->
     <g transform="translate(369.277812 335.148562) scale(0.1 -0.1)">
      <defs>
       <path id="DejaVuSans-2b" d="M 2944 4013 
L 2944 2272 
L 4684 2272 
L 4684 1741 
L 2944 1741 
L 2944 0 
L 2419 0 
L 2419 1741 
L 678 1741 
L 678 2272 
L 2419 2272 
L 2419 4013 
L 2944 4013 
z
" transform="scale(0.015625)"/>
      </defs>
      <use xlink:href="#DejaVuSans-2b"/>
      <use xlink:href="#DejaVuSans-35" x="83.789062"/>
      <use xlink:href="#DejaVuSans-20" x="147.412109"/>
      <use xlink:href="#DejaVuSans-47" x="179.199219"/>
      <use xlink:href="#DejaVuSans-48" x="256.689453"/>
      <use xlink:href="#DejaVuSans-7a" x="331.884766"/>
     </g>
    </g>
   </g>
   <g id="matplotlib.axis_4">
    <g id="ytick_4">
     <g id="line2d_20">
      <g>
       <use xlink:href="#ma68b92fdd0" x="50.595313" y="277.948369" style="stroke: #000000; stroke-width: 0.8"/>
      </g>
     </g>
     <g id="text_15">
      <!-- -100 -->
      <g transform="translate(20.9 281.747588) scale(0.1 -0.1)">
       <use xlink:href="#DejaVuSans-2d"/>
       <use xlink:href="#DejaVuSans-31" x="36.083984"/>
       <use xlink:href="#DejaVuSans-30" x="99.707031"/>
       <use xlink:href="#DejaVuSans-30" x="163.330078"/>
      </g>
     </g>
    </g>
    <g id="ytick_5">
     <g id="line2d_21">
      <g>
       <use xlink:href="#ma68b92fdd0" x="50.595313" y="247.385611" style="stroke: #000000; stroke-width: 0.8"/>
      </g>
     </g>
     <g id="text_16">
      <!-- 0 -->
      <g transform="translate(37.232813 251.18483) scale(0.1 -0.1)">
       <use xlink:href="#DejaVuSans-30"/>
      </g>
     </g>
    </g>
    <g id="ytick_6">
     <g id="line2d_22">
      <g>
       <use xlink:href="#ma68b92fdd0" x="50.595313" y="216.822853" style="stroke: #000000; stroke-width: 0.8"/>
      </g>
     </g>
     <g id="text_17">
      <!-- 100 -->
      <g transform="translate(24.507813 220.622072) scale(0.1 -0.1)">
       <use xlink:href="#DejaVuSans-31"/>
       <use xlink:href="#DejaVuSans-30" x="63.623047"/>
       <use xlink:href="#DejaVuSans-30" x="127.246094"/>
      </g>
     </g>
    </g>
    <g id="text_18">
     <!-- $\angle S_{21}$ [deg] -->
     <g transform="translate(14.8 274.592) rotate(-90) scale(0.1 -0.1)">
      <defs>
       <path id="DejaVuSans-2220" d="M 5028 631 
L 5028 0 
L 547 0 
L 3525 4666 
L 4281 4666 
L 1716 631 
L 5028 631 
z
" transform="scale(0.015625)"/>
       <path id="DejaVuSans-64" d="M 2906 2969 
L 2906 4863 
L 3481 4863 
L 3481 0 
L 2906 0 
L 2906 525 
Q 2725 213 2448 61 
Q 2172 -91 1784 -91 
Q 1150 -91 751 415 
Q 353 922 353 1747 
Q 353 2572 751 3078 
Q 1150 3584 1784 3584 
Q 2172 3584 2448 3432 
Q 2725 3281 2906 2969 
z
M 947 1747 
Q 947 1113 1208 752 
Q 1469 391 1925 391 
Q 2381 391 2643 752 
Q 2906 1113 2906 1747 
Q 2906 2381 2643 2742 
Q 2381 3103 1925 3103 
Q 1469 3103 1208 2742 
Q 947 2381 947 1747 
z
" transform="scale(0.015625)"/>
       <path id="DejaVuSans-67" d="M 2906 1791 
Q 2906 2416 2648 2759 
Q 2391 3103 1925 3103 
Q 1463 3103 1205 2759 
Q 947 2416 947 1791 
Q 947 1169 1205 825 
Q 1463 481 1925 481 
Q 2391 481 2648 825 
Q 2906 1169 2906 1791 
z
M 3481 434 
Q 3481 -459 3084 -895 
Q 2688 -1331 1869 -1331 
Q 1566 -1331 1297 -1286 
Q 1028 -1241 775 -1147 
L 775 -588 
Q 1028 -725 1275 -790 
Q 1522 -856 1778 -856 
Q 2344 -856 2625 -561 
Q 2906 -266 2906 331 
L 2906 616 
Q 2728 306 2450 153 
Q 2172 0 1784 0 
Q 1141 0 747 490 
Q 353 981 353 1791 
Q 353 2603 747 3093 
Q 1141 3584 1784 3584 
Q 2172 3584 2450 3431 
Q 2728 3278 2906 2969 
L 2906 3500 
L 3481 3500 
L 3481 434 
z
" transform="scale(0.015625)"/>
      </defs>
      <use xlink:href="#DejaVuSans-2220" transform="translate(0 0.015625)"/>
      <use xlink:href="#DejaVuSans-Oblique-53" transform="translate(89.648438 0.015625)"/>
      <use xlink:href="#DejaVuSans-32" transform="translate(153.125 -16.390625) scale(0.7)"/>
      <use xlink:href="#DejaVuSans-31" transform="translate(197.661133 -16.390625) scale(0.7)"/>
      <use xlink:href="#DejaVuSans-20" transform="translate(244.931641 0.015625)"/>
      <use xlink:href="#DejaVuSans-5b" transform="translate(276.71875 0.015625)"/>
      <use xlink:href="#DejaVuSans-64" transform="translate(315.732422 0.015625)"/>
      <use xlink:href="#DejaVuSans-65" transform="translate(379.208984 0.015625)"/>
      <use xlink:href="#DejaVuSans-67" transform="translate(440.732422 0.015625)"/>
      <use xlink:href="#DejaVuSans-5d" transform="translate(504.208984 0.015625)"/>
     </g>
    </g>
   </g>
   <g id="line2d_23">
    <path d="M 66.82804 263.305271 
L 73.353759 264.592866 
L 132.085235 275.90881 
L 169.608122 283.737274 
L 182.659561 286.85894 
L 189.185281 288.602549 
L 195.711 290.599374 
L 200.60529 292.347376 
L 203.868149 293.725116 
L 207.131009 295.367577 
L 210.393869 297.365054 
L 212.025299 298.565636 
L 213.656729 299.951264 
L 215.288159 301.537836 
L 216.919588 193.36672 
L 218.551018 195.515425 
L 220.182448 197.977695 
L 223.445308 203.634449 
L 226.708168 209.308572 
L 228.339598 211.378132 
L 229.971027 211.908647 
L 231.602457 206.222246 
L 233.233887 294.283615 
L 234.865317 286.571951 
L 236.496747 285.365974 
L 238.128177 285.499088 
L 241.391037 286.629061 
L 246.285326 288.523165 
L 251.179616 290.165422 
L 257.705335 292.03604 
L 267.493915 294.406733 
L 275.651064 296.173179 
L 293.596793 299.68879 
L 308.279662 302.370976 
L 309.911091 192.646448 
L 381.694006 205.640041 
L 391.482585 207.580998 
L 391.482585 207.580998 
" clip-path="url(#p24ebc6bb3b)" style="fill: none; stroke: #1f77b4; stroke-width: 1.5; stroke-linecap: square"/>
    <g clip-path="url(#p24ebc6bb3b)">
     <use xlink:href="#ma16ae1955d" x="66.82804" y="263.305271" style="fill: #1f77b4; stroke: #1f77b4"/>
     <use xlink:href="#ma16ae1955d" x="68.45947" y="263.651373" style="fill: #1f77b4; stroke: #1f77b4"/>
     <use xlink:href="#ma16ae1955d" x="70.0909" y="263.958652" style="fill: #1f77b4; stroke: #1f77b4"/>
     <use xlink:href="#ma16ae1955d" x="71.722329" y="264.286" style="fill: #1f77b4; stroke: #1f77b4"/>
     <use xlink:href="#ma16ae1955d" x="73.353759" y="264.592866" style="fill: #1f77b4; stroke: #1f77b4"/>
     <use xlink:href="#ma16ae1955d" x="74.985189" y="264.904205" style="fill: #1f77b4; stroke: #1f77b4"/>
     <use xlink:href="#ma16ae1955d" x="76.616619" y="265.22289" style="fill: #1f77b4; stroke: #1f77b4"/>
     <use xlink:href="#ma16ae1955d" x="78.248049" y="265.528097" style="fill: #1f77b4; stroke: #1f77b4"/>
     <use xlink:href="#ma16ae1955d" x="79.879479" y="265.838897" style="fill: #1f77b4; stroke: #1f77b4"/>
     <use xlink:href="#ma16ae1955d" x="81.510909" y="266.158486" style="fill: #1f77b4; stroke: #1f77b4"/>
     <use xlink:href="#ma16ae1955d" x="83.142339" y="266.458011" style="fill: #1f77b4; stroke: #1f77b4"/>
     <use xlink:href="#ma16ae1955d" x="84.773768" y="266.777692" style="fill: #1f77b4; stroke: #1f77b4"/>
     <use xlink:href="#ma16ae1955d" x="86.405198" y="267.083225" style="fill: #1f77b4; stroke: #1f77b4"/>
     <use xlink:href="#ma16ae1955d" x="88.036628" y="267.397073" style="fill: #1f77b4; stroke: #1f77b4"/>
     <use xlink:href="#ma16ae1955d" x="89.668058" y="267.70377" style="fill: #1f77b4; stroke: #1f77b4"/>
     <use xlink:href="#ma16ae1955d" x="91.299488" y="268.00791" style="fill: #1f77b4; stroke: #1f77b4"/>
     <use xlink:href="#ma16ae1955d" x="92.930918" y="268.327948" style="fill: #1f77b4; stroke: #1f77b4"/>
     <use xlink:href="#ma16ae1955d" x="94.562348" y="268.635838" style="fill: #1f77b4; stroke: #1f77b4"/>
     <use xlink:href="#ma16ae1955d" x="96.193778" y="268.945663" style="fill: #1f77b4; stroke: #1f77b4"/>
     <use xlink:href="#ma16ae1955d" x="97.825207" y="269.25642" style="fill: #1f77b4; stroke: #1f77b4"/>
     <use xlink:href="#ma16ae1955d" x="99.456637" y="269.558681" style="fill: #1f77b4; stroke: #1f77b4"/>
     <use xlink:href="#ma16ae1955d" x="101.088067" y="269.88759" style="fill: #1f77b4; stroke: #1f77b4"/>
     <use xlink:href="#ma16ae1955d" x="102.719497" y="270.188815" style="fill: #1f77b4; stroke: #1f77b4"/>
     <use xlink:href="#ma16ae1955d" x="104.350927" y="270.513461" style="fill: #1f77b4; stroke: #1f77b4"/>
     <use xlink:href="#ma16ae1955d" x="105.982357" y="270.817922" style="fill: #1f77b4; stroke: #1f77b4"/>
     <use xlink:href="#ma16ae1955d" x="107.613787" y="271.136101" style="fill: #1f77b4; stroke: #1f77b4"/>
     <use xlink:href="#ma16ae1955d" x="109.245217" y="271.456746" style="fill: #1f77b4; stroke: #1f77b4"/>
     <use xlink:href="#ma16ae1955d" x="110.876646" y="271.767562" style="fill: #1f77b4; stroke: #1f77b4"/>
     <use xlink:href="#ma16ae1955d" x="112.508076" y="272.080708" style="fill: #1f77b4; stroke: #1f77b4"/>
     <use xlink:href="#ma16ae1955d" x="114.139506" y="272.395119" style="fill: #1f77b4; stroke: #1f77b4"/>
     <use xlink:href="#ma16ae1955d" x="115.770936" y="272.716883" style="fill: #1f77b4; stroke: #1f77b4"/>
     <use xlink:href="#ma16ae1955d" x="117.402366" y="273.034959" style="fill: #1f77b4; stroke: #1f77b4"/>
     <use xlink:href="#ma16ae1955d" x="119.033796" y="273.343501" style="fill: #1f77b4; stroke: #1f77b4"/>
     <use xlink:href="#ma16ae1955d" x="120.665226" y="273.667883" style="fill: #1f77b4; stroke: #1f77b4"/>
     <use xlink:href="#ma16ae1955d" x="122.296656" y="273.985181" style="fill: #1f77b4; stroke: #1f77b4"/>
     <use xlink:href="#ma16ae1955d" x="123.928085" y="274.305673" style="fill: #1f77b4; stroke: #1f77b4"/>
     <use xlink:href="#ma16ae1955d" x="125.559515" y="274.62067" style="fill: #1f77b4; stroke: #1f77b4"/>
     <use xlink:href="#ma16ae1955d" x="127.190945" y="274.940478" style="fill: #1f77b4; stroke: #1f77b4"/>
     <use xlink:href="#ma16ae1955d" x="128.822375" y="275.265189" style="fill: #1f77b4; stroke: #1f77b4"/>
     <use xlink:href="#ma16ae1955d" x="130.453805" y="275.589645" style="fill: #1f77b4; stroke: #1f77b4"/>
     <use xlink:href="#ma16ae1955d" x="132.085235" y="275.90881" style="fill: #1f77b4; stroke: #1f77b4"/>
     <use xlink:href="#ma16ae1955d" x="133.716665" y="276.245798" style="fill: #1f77b4; stroke: #1f77b4"/>
     <use xlink:href="#ma16ae1955d" x="135.348095" y="276.556579" style="fill: #1f77b4; stroke: #1f77b4"/>
     <use xlink:href="#ma16ae1955d" x="136.979524" y="276.888107" style="fill: #1f77b4; stroke: #1f77b4"/>
     <use xlink:href="#ma16ae1955d" x="138.610954" y="277.207154" style="fill: #1f77b4; stroke: #1f77b4"/>
     <use xlink:href="#ma16ae1955d" x="140.242384" y="277.537812" style="fill: #1f77b4; stroke: #1f77b4"/>
     <use xlink:href="#ma16ae1955d" x="141.873814" y="277.869283" style="fill: #1f77b4; stroke: #1f77b4"/>
     <use xlink:href="#ma16ae1955d" x="143.505244" y="278.192302" style="fill: #1f77b4; stroke: #1f77b4"/>
     <use xlink:href="#ma16ae1955d" x="145.136674" y="278.535145" style="fill: #1f77b4; stroke: #1f77b4"/>
     <use xlink:href="#ma16ae1955d" x="146.768104" y="278.870733" style="fill: #1f77b4; stroke: #1f77b4"/>
     <use xlink:href="#ma16ae1955d" x="148.399534" y="279.200303" style="fill: #1f77b4; stroke: #1f77b4"/>
     <use xlink:href="#ma16ae1955d" x="150.030963" y="279.539161" style="fill: #1f77b4; stroke: #1f77b4"/>
     <use xlink:href="#ma16ae1955d" x="151.662393" y="279.876948" style="fill: #1f77b4; stroke: #1f77b4"/>
     <use xlink:href="#ma16ae1955d" x="153.293823" y="280.208467" style="fill: #1f77b4; stroke: #1f77b4"/>
     <use xlink:href="#ma16ae1955d" x="154.925253" y="280.550024" style="fill: #1f77b4; stroke: #1f77b4"/>
     <use xlink:href="#ma16ae1955d" x="156.556683" y="280.893009" style="fill: #1f77b4; stroke: #1f77b4"/>
     <use xlink:href="#ma16ae1955d" x="158.188113" y="281.243085" style="fill: #1f77b4; stroke: #1f77b4"/>
     <use xlink:href="#ma16ae1955d" x="159.819543" y="281.603571" style="fill: #1f77b4; stroke: #1f77b4"/>
     <use xlink:href="#ma16ae1955d" x="161.450973" y="281.939801" style="fill: #1f77b4; stroke: #1f77b4"/>
     <use xlink:href="#ma16ae1955d" x="163.082402" y="282.293317" style="fill: #1f77b4; stroke: #1f77b4"/>
     <use xlink:href="#ma16ae1955d" x="164.713832" y="282.652425" style="fill: #1f77b4; stroke: #1f77b4"/>
     <use xlink:href="#ma16ae1955d" x="166.345262" y="283.007268" style="fill: #1f77b4; stroke: #1f77b4"/>
     <use xlink:href="#ma16ae1955d" x="167.976692" y="283.364766" style="fill: #1f77b4; stroke: #1f77b4"/>
     <use xlink:href="#ma16ae1955d" x="169.608122" y="283.737274" style="fill: #1f77b4; stroke: #1f77b4"/>
     <use xlink:href="#ma16ae1955d" x="171.239552" y="284.115727" style="fill: #1f77b4; stroke: #1f77b4"/>
     <use xlink:href="#ma16ae1955d" x="172.870982" y="284.478622" style="fill: #1f77b4; stroke: #1f77b4"/>
     <use xlink:href="#ma16ae1955d" x="174.502412" y="284.863245" style="fill: #1f77b4; stroke: #1f77b4"/>
     <use xlink:href="#ma16ae1955d" x="176.133842" y="285.249903" style="fill: #1f77b4; stroke: #1f77b4"/>
     <use xlink:href="#ma16ae1955d" x="177.765271" y="285.645483" style="fill: #1f77b4; stroke: #1f77b4"/>
     <use xlink:href="#ma16ae1955d" x="179.396701" y="286.030604" style="fill: #1f77b4; stroke: #1f77b4"/>
     <use xlink:href="#ma16ae1955d" x="181.028131" y="286.441398" style="fill: #1f77b4; stroke: #1f77b4"/>
     <use xlink:href="#ma16ae1955d" x="182.659561" y="286.85894" style="fill: #1f77b4; stroke: #1f77b4"/>
     <use xlink:href="#ma16ae1955d" x="184.290991" y="287.267245" style="fill: #1f77b4; stroke: #1f77b4"/>
     <use xlink:href="#ma16ae1955d" x="185.922421" y="287.702978" style="fill: #1f77b4; stroke: #1f77b4"/>
     <use xlink:href="#ma16ae1955d" x="187.553851" y="288.147922" style="fill: #1f77b4; stroke: #1f77b4"/>
     <use xlink:href="#ma16ae1955d" x="189.185281" y="288.602549" style="fill: #1f77b4; stroke: #1f77b4"/>
     <use xlink:href="#ma16ae1955d" x="190.81671" y="289.074063" style="fill: #1f77b4; stroke: #1f77b4"/>
     <use xlink:href="#ma16ae1955d" x="192.44814" y="289.565666" style="fill: #1f77b4; stroke: #1f77b4"/>
     <use xlink:href="#ma16ae1955d" x="194.07957" y="290.074648" style="fill: #1f77b4; stroke: #1f77b4"/>
     <use xlink:href="#ma16ae1955d" x="195.711" y="290.599374" style="fill: #1f77b4; stroke: #1f77b4"/>
     <use xlink:href="#ma16ae1955d" x="197.34243" y="291.148681" style="fill: #1f77b4; stroke: #1f77b4"/>
     <use xlink:href="#ma16ae1955d" x="198.97386" y="291.734382" style="fill: #1f77b4; stroke: #1f77b4"/>
     <use xlink:href="#ma16ae1955d" x="200.60529" y="292.347376" style="fill: #1f77b4; stroke: #1f77b4"/>
     <use xlink:href="#ma16ae1955d" x="202.23672" y="293.010807" style="fill: #1f77b4; stroke: #1f77b4"/>
     <use xlink:href="#ma16ae1955d" x="203.868149" y="293.725116" style="fill: #1f77b4; stroke: #1f77b4"/>
     <use xlink:href="#ma16ae1955d" x="205.499579" y="294.496418" style="fill: #1f77b4; stroke: #1f77b4"/>
     <use xlink:href="#ma16ae1955d" x="207.131009" y="295.367577" style="fill: #1f77b4; stroke: #1f77b4"/>
     <use xlink:href="#ma16ae1955d" x="208.762439" y="296.315719" style="fill: #1f77b4; stroke: #1f77b4"/>
     <use xlink:href="#ma16ae1955d" x="210.393869" y="297.365054" style="fill: #1f77b4; stroke: #1f77b4"/>
     <use xlink:href="#ma16ae1955d" x="212.025299" y="298.565636" style="fill: #1f77b4; stroke: #1f77b4"/>
     <use xlink:href="#ma16ae1955d" x="213.656729" y="299.951264" style="fill: #1f77b4; stroke: #1f77b4"/>
     <use xlink:href="#ma16ae1955d" x="215.288159" y="301.537836" style="fill: #1f77b4; stroke: #1f77b4"/>
     <use xlink:href="#ma16ae1955d" x="216.919588" y="193.36672" style="fill: #1f77b4; stroke: #1f77b4"/>
     <use xlink:href="#ma16ae1955d" x="218.551018" y="195.515425" style="fill: #1f77b4; stroke: #1f77b4"/>
     <use xlink:href="#ma16ae1955d" x="220.182448" y="197.977695" style="fill: #1f77b4; stroke: #1f77b4"/>
     <use xlink:href="#ma16ae1955d" x="221.813878" y="200.722178" style="fill: #1f77b4; stroke: #1f77b4"/>
     <use xlink:href="#ma16ae1955d" x="223.445308" y="203.634449" style="fill: #1f77b4; stroke: #1f77b4"/>
     <use xlink:href="#ma16ae1955d" x="225.076738" y="206.572457" style="fill: #1f77b4; stroke: #1f77b4"/>
     <use xlink:href="#ma16ae1955d" x="226.708168" y="209.308572" style="fill: #1f77b4; stroke: #1f77b4"/>
     <use xlink:href="#ma16ae1955d" x="228.339598" y="211.378132" style="fill: #1f77b4; stroke: #1f77b4"/>
     <use xlink:href="#ma16ae1955d" x="229.971027" y="211.908647" style="fill: #1f77b4; stroke: #1f77b4"/>
     <use xlink:href="#ma16ae1955d" x="231.602457" y="206.222246" style="fill: #1f77b4; stroke: #1f77b4"/>
     <use xlink:href="#ma16ae1955d" x="233.233887" y="294.283615" style="fill: #1f77b4; stroke: #1f77b4"/>
     <use xlink:href="#ma16ae1955d" x="234.865317" y="286.571951" style="fill: #1f77b4; stroke: #1f77b4"/>
     <use xlink:href="#ma16ae1955d" x="236.496747" y="285.365974" style="fill: #1f77b4; stroke: #1f77b4"/>
     <use xlink:href="#ma16ae1955d" x="238.128177" y="285.499088" style="fill: #1f77b4; stroke: #1f77b4"/>
     <use xlink:href="#ma16ae1955d" x="239.759607" y="286.034496" style="fill: #1f77b4; stroke: #1f77b4"/>
     <use xlink:href="#ma16ae1955d" x="241.391037" y="286.629061" style="fill: #1f77b4; stroke: #1f77b4"/>
     <use xlink:href="#ma16ae1955d" x="243.022466" y="287.286912" style="fill: #1f77b4; stroke: #1f77b4"/>
     <use xlink:href="#ma16ae1955d" x="244.653896" y="287.903942" style="fill: #1f77b4; stroke: #1f77b4"/>
     <use xlink:href="#ma16ae1955d" x="246.285326" y="288.523165" style="fill: #1f77b4; stroke: #1f77b4"/>
     <use xlink:href="#ma16ae1955d" x="247.916756" y="289.089128" style="fill: #1f77b4; stroke: #1f77b4"/>
     <use xlink:href="#ma16ae1955d" x="249.548186" y="289.637602" style="fill: #1f77b4; stroke: #1f77b4"/>
     <use xlink:href="#ma16ae1955d" x="251.179616" y="290.165422" style="fill: #1f77b4; stroke: #1f77b4"/>
     <use xlink:href="#ma16ae1955d" x="252.811046" y="290.661273" style="fill: #1f77b4; stroke: #1f77b4"/>
     <use xlink:href="#ma16ae1955d" x="254.442476" y="291.142294" style="fill: #1f77b4; stroke: #1f77b4"/>
     <use xlink:href="#ma16ae1955d" x="256.073905" y="291.590596" style="fill: #1f77b4; stroke: #1f77b4"/>
     <use xlink:href="#ma16ae1955d" x="257.705335" y="292.03604" style="fill: #1f77b4; stroke: #1f77b4"/>
     <use xlink:href="#ma16ae1955d" x="259.336765" y="292.450075" style="fill: #1f77b4; stroke: #1f77b4"/>
     <use xlink:href="#ma16ae1955d" x="260.968195" y="292.870792" style="fill: #1f77b4; stroke: #1f77b4"/>
     <use xlink:href="#ma16ae1955d" x="262.599625" y="293.270863" style="fill: #1f77b4; stroke: #1f77b4"/>
     <use xlink:href="#ma16ae1955d" x="264.231055" y="293.658545" style="fill: #1f77b4; stroke: #1f77b4"/>
     <use xlink:href="#ma16ae1955d" x="265.862485" y="294.054847" style="fill: #1f77b4; stroke: #1f77b4"/>
     <use xlink:href="#ma16ae1955d" x="267.493915" y="294.406733" style="fill: #1f77b4; stroke: #1f77b4"/>
     <use xlink:href="#ma16ae1955d" x="269.125344" y="294.775613" style="fill: #1f77b4; stroke: #1f77b4"/>
     <use xlink:href="#ma16ae1955d" x="270.756774" y="295.129916" style="fill: #1f77b4; stroke: #1f77b4"/>
     <use xlink:href="#ma16ae1955d" x="272.388204" y="295.477807" style="fill: #1f77b4; stroke: #1f77b4"/>
     <use xlink:href="#ma16ae1955d" x="274.019634" y="295.82709" style="fill: #1f77b4; stroke: #1f77b4"/>
     <use xlink:href="#ma16ae1955d" x="275.651064" y="296.173179" style="fill: #1f77b4; stroke: #1f77b4"/>
     <use xlink:href="#ma16ae1955d" x="277.282494" y="296.50121" style="fill: #1f77b4; stroke: #1f77b4"/>
     <use xlink:href="#ma16ae1955d" x="278.913924" y="296.829711" style="fill: #1f77b4; stroke: #1f77b4"/>
     <use xlink:href="#ma16ae1955d" x="280.545354" y="297.16775" style="fill: #1f77b4; stroke: #1f77b4"/>
     <use xlink:href="#ma16ae1955d" x="282.176783" y="297.487479" style="fill: #1f77b4; stroke: #1f77b4"/>
     <use xlink:href="#ma16ae1955d" x="283.808213" y="297.807518" style="fill: #1f77b4; stroke: #1f77b4"/>
     <use xlink:href="#ma16ae1955d" x="285.439643" y="298.126958" style="fill: #1f77b4; stroke: #1f77b4"/>
     <use xlink:href="#ma16ae1955d" x="287.071073" y="298.441069" style="fill: #1f77b4; stroke: #1f77b4"/>
     <use xlink:href="#ma16ae1955d" x="288.702503" y="298.748713" style="fill: #1f77b4; stroke: #1f77b4"/>
     <use xlink:href="#ma16ae1955d" x="290.333933" y="299.062312" style="fill: #1f77b4; stroke: #1f77b4"/>
     <use xlink:href="#ma16ae1955d" x="291.965363" y="299.377586" style="fill: #1f77b4; stroke: #1f77b4"/>
     <use xlink:href="#ma16ae1955d" x="293.596793" y="299.68879" style="fill: #1f77b4; stroke: #1f77b4"/>
     <use xlink:href="#ma16ae1955d" x="295.228223" y="299.987146" style="fill: #1f77b4; stroke: #1f77b4"/>
     <use xlink:href="#ma16ae1955d" x="296.859652" y="300.297643" style="fill: #1f77b4; stroke: #1f77b4"/>
     <use xlink:href="#ma16ae1955d" x="298.491082" y="300.597771" style="fill: #1f77b4; stroke: #1f77b4"/>
     <use xlink:href="#ma16ae1955d" x="300.122512" y="300.885809" style="fill: #1f77b4; stroke: #1f77b4"/>
     <use xlink:href="#ma16ae1955d" x="301.753942" y="301.202439" style="fill: #1f77b4; stroke: #1f77b4"/>
     <use xlink:href="#ma16ae1955d" x="303.385372" y="301.491196" style="fill: #1f77b4; stroke: #1f77b4"/>
     <use xlink:href="#ma16ae1955d" x="305.016802" y="301.785579" style="fill: #1f77b4; stroke: #1f77b4"/>
     <use xlink:href="#ma16ae1955d" x="306.648232" y="302.079865" style="fill: #1f77b4; stroke: #1f77b4"/>
     <use xlink:href="#ma16ae1955d" x="308.279662" y="302.370976" style="fill: #1f77b4; stroke: #1f77b4"/>
     <use xlink:href="#ma16ae1955d" x="309.911091" y="192.646448" style="fill: #1f77b4; stroke: #1f77b4"/>
     <use xlink:href="#ma16ae1955d" x="311.542521" y="192.939221" style="fill: #1f77b4; stroke: #1f77b4"/>
     <use xlink:href="#ma16ae1955d" x="313.173951" y="193.229608" style="fill: #1f77b4; stroke: #1f77b4"/>
     <use xlink:href="#ma16ae1955d" x="314.805381" y="193.514865" style="fill: #1f77b4; stroke: #1f77b4"/>
     <use xlink:href="#ma16ae1955d" x="316.436811" y="193.805336" style="fill: #1f77b4; stroke: #1f77b4"/>
     <use xlink:href="#ma16ae1955d" x="318.068241" y="194.0916" style="fill: #1f77b4; stroke: #1f77b4"/>
     <use xlink:href="#ma16ae1955d" x="319.699671" y="194.387825" style="fill: #1f77b4; stroke: #1f77b4"/>
     <use xlink:href="#ma16ae1955d" x="321.331101" y="194.676132" style="fill: #1f77b4; stroke: #1f77b4"/>
     <use xlink:href="#ma16ae1955d" x="322.96253" y="194.970462" style="fill: #1f77b4; stroke: #1f77b4"/>
     <use xlink:href="#ma16ae1955d" x="324.59396" y="195.257944" style="fill: #1f77b4; stroke: #1f77b4"/>
     <use xlink:href="#ma16ae1955d" x="326.22539" y="195.54619" style="fill: #1f77b4; stroke: #1f77b4"/>
     <use xlink:href="#ma16ae1955d" x="327.85682" y="195.828171" style="fill: #1f77b4; stroke: #1f77b4"/>
     <use xlink:href="#ma16ae1955d" x="329.48825" y="196.115509" style="fill: #1f77b4; stroke: #1f77b4"/>
     <use xlink:href="#ma16ae1955d" x="331.11968" y="196.403201" style="fill: #1f77b4; stroke: #1f77b4"/>
     <use xlink:href="#ma16ae1955d" x="332.75111" y="196.699081" style="fill: #1f77b4; stroke: #1f77b4"/>
     <use xlink:href="#ma16ae1955d" x="334.38254" y="196.992299" style="fill: #1f77b4; stroke: #1f77b4"/>
     <use xlink:href="#ma16ae1955d" x="336.013969" y="197.266094" style="fill: #1f77b4; stroke: #1f77b4"/>
     <use xlink:href="#ma16ae1955d" x="337.645399" y="197.566734" style="fill: #1f77b4; stroke: #1f77b4"/>
     <use xlink:href="#ma16ae1955d" x="339.276829" y="197.853405" style="fill: #1f77b4; stroke: #1f77b4"/>
     <use xlink:href="#ma16ae1955d" x="340.908259" y="198.143955" style="fill: #1f77b4; stroke: #1f77b4"/>
     <use xlink:href="#ma16ae1955d" x="342.539689" y="198.435414" style="fill: #1f77b4; stroke: #1f77b4"/>
     <use xlink:href="#ma16ae1955d" x="344.171119" y="198.719337" style="fill: #1f77b4; stroke: #1f77b4"/>
     <use xlink:href="#ma16ae1955d" x="345.802549" y="199.011798" style="fill: #1f77b4; stroke: #1f77b4"/>
     <use xlink:href="#ma16ae1955d" x="347.433979" y="199.310062" style="fill: #1f77b4; stroke: #1f77b4"/>
     <use xlink:href="#ma16ae1955d" x="349.065408" y="199.594097" style="fill: #1f77b4; stroke: #1f77b4"/>
     <use xlink:href="#ma16ae1955d" x="350.696838" y="199.888943" style="fill: #1f77b4; stroke: #1f77b4"/>
     <use xlink:href="#ma16ae1955d" x="352.328268" y="200.186656" style="fill: #1f77b4; stroke: #1f77b4"/>
     <use xlink:href="#ma16ae1955d" x="353.959698" y="200.47521" style="fill: #1f77b4; stroke: #1f77b4"/>
     <use xlink:href="#ma16ae1955d" x="355.591128" y="200.774694" style="fill: #1f77b4; stroke: #1f77b4"/>
     <use xlink:href="#ma16ae1955d" x="357.222558" y="201.070536" style="fill: #1f77b4; stroke: #1f77b4"/>
     <use xlink:href="#ma16ae1955d" x="358.853988" y="201.371199" style="fill: #1f77b4; stroke: #1f77b4"/>
     <use xlink:href="#ma16ae1955d" x="360.485418" y="201.668963" style="fill: #1f77b4; stroke: #1f77b4"/>
     <use xlink:href="#ma16ae1955d" x="362.116847" y="201.957296" style="fill: #1f77b4; stroke: #1f77b4"/>
     <use xlink:href="#ma16ae1955d" x="363.748277" y="202.25902" style="fill: #1f77b4; stroke: #1f77b4"/>
     <use xlink:href="#ma16ae1955d" x="365.379707" y="202.568232" style="fill: #1f77b4; stroke: #1f77b4"/>
     <use xlink:href="#ma16ae1955d" x="367.011137" y="202.865828" style="fill: #1f77b4; stroke: #1f77b4"/>
     <use xlink:href="#ma16ae1955d" x="368.642567" y="203.171393" style="fill: #1f77b4; stroke: #1f77b4"/>
     <use xlink:href="#ma16ae1955d" x="370.273997" y="203.467604" style="fill: #1f77b4; stroke: #1f77b4"/>
     <use xlink:href="#ma16ae1955d" x="371.905427" y="203.776302" style="fill: #1f77b4; stroke: #1f77b4"/>
     <use xlink:href="#ma16ae1955d" x="373.536857" y="204.081786" style="fill: #1f77b4; stroke: #1f77b4"/>
     <use xlink:href="#ma16ae1955d" x="375.168286" y="204.396607" style="fill: #1f77b4; stroke: #1f77b4"/>
     <use xlink:href="#ma16ae1955d" x="376.799716" y="204.704236" style="fill: #1f77b4; stroke: #1f77b4"/>
     <use xlink:href="#ma16ae1955d" x="378.431146" y="205.020134" style="fill: #1f77b4; stroke: #1f77b4"/>
     <use xlink:href="#ma16ae1955d" x="380.062576" y="205.323165" style="fill: #1f77b4; stroke: #1f77b4"/>
     <use xlink:href="#ma16ae1955d" x="381.694006" y="205.640041" style="fill: #1f77b4; stroke: #1f77b4"/>
     <use xlink:href="#ma16ae1955d" x="383.325436" y="205.954638" style="fill: #1f77b4; stroke: #1f77b4"/>
     <use xlink:href="#ma16ae1955d" x="384.956866" y="206.28033" style="fill: #1f77b4; stroke: #1f77b4"/>
     <use xlink:href="#ma16ae1955d" x="386.588296" y="206.601914" style="fill: #1f77b4; stroke: #1f77b4"/>
     <use xlink:href="#ma16ae1955d" x="388.219725" y="206.918854" style="fill: #1f77b4; stroke: #1f77b4"/>
     <use xlink:href="#ma16ae1955d" x="389.851155" y="207.240066" style="fill: #1f77b4; stroke: #1f77b4"/>
     <use xlink:href="#ma16ae1955d" x="391.482585" y="207.580998" style="fill: #1f77b4; stroke: #1f77b4"/>
    </g>
   </g>
   <g id="line2d_24">
    <path d="M 66.82804 264.026189 
L 112.325173 272.185385 
L 140.273412 277.407384 
L 158.797245 281.078332 
L 171.796426 283.86449 
L 181.545812 286.172772 
L 188.695362 288.078053 
L 194.544993 289.863132 
L 199.094706 291.477175 
L 202.669481 292.957353 
L 205.919276 294.541402 
L 208.519113 296.040306 
L 210.793969 297.583888 
L 213.068826 299.416362 
L 215.018703 301.284079 
L 215.993642 302.341919 
L 216.318621 192.688952 
L 218.268498 195.157897 
L 220.218376 198.040875 
L 222.493232 201.862084 
L 226.392987 208.539314 
L 227.692905 210.312471 
L 228.667843 211.271146 
L 229.317802 211.627249 
L 229.967761 211.62539 
L 230.292741 211.425175 
L 230.61772 211.033039 
L 230.9427 210.376565 
L 231.267679 209.34431 
L 231.592659 207.76386 
L 231.917638 205.380031 
L 232.242618 201.883367 
L 232.567598 197.143096 
L 232.892577 301.721651 
L 233.542536 292.868211 
L 234.192495 288.346208 
L 234.842454 286.223836 
L 235.492413 285.203782 
L 236.142372 284.729258 
L 236.792331 284.549678 
L 237.76727 284.577882 
L 239.067188 284.890109 
L 241.342045 285.714003 
L 249.466533 288.8008 
L 254.666205 290.484688 
L 260.840816 292.244562 
L 268.640325 294.219992 
L 278.389711 296.448599 
L 291.388892 299.178137 
L 307.637868 302.373818 
L 307.962847 192.410182 
L 332.336312 196.967624 
L 368.409039 203.469691 
L 391.482585 207.551534 
L 391.482585 207.551534 
" clip-path="url(#p24ebc6bb3b)" style="fill: none; stroke: #d62728; stroke-width: 1.5; stroke-linecap: square"/>
   </g>
   <g id="patch_9">
    <path d="M 50.595313 307.872 
L 50.595313 186.912 
" style="fill: none; stroke: #000000; stroke-width: 0.8; stroke-linejoin: miter; stroke-linecap: square"/>
   </g>
   <g id="patch_10">
    <path d="M 407.715312 307.872 
L 407.715312 186.912 
" style="fill: none; stroke: #000000; stroke-width: 0.8; stroke-linejoin: miter; stroke-linecap: square"/>
   </g>
   <g id="patch_11">
    <path d="M 50.595313 307.872 
L 407.715313 307.872 
" style="fill: none; stroke: #000000; stroke-width: 0.8; stroke-linejoin: miter; stroke-linecap: square"/>
   </g>
   <g id="patch_12">
    <path d="M 50.595313 186.912 
L 407.715313 186.912 
" style="fill: none; stroke: #000000; stroke-width: 0.8; stroke-linejoin: miter; stroke-linecap: square"/>
   </g>
  </g>
  <g id="text_19">
   <!-- S21 One-tone -->
   <g transform="translate(182.144375 16.318125) scale(0.12 -0.12)">
    <defs>
     <path id="DejaVuSans-4f" d="M 2522 4238 
Q 1834 4238 1429 3725 
Q 1025 3213 1025 2328 
Q 1025 1447 1429 934 
Q 1834 422 2522 422 
Q 3209 422 3611 934 
Q 4013 1447 4013 2328 
Q 4013 3213 3611 3725 
Q 3209 4238 2522 4238 
z
M 2522 4750 
Q 3503 4750 4090 4092 
Q 4678 3434 4678 2328 
Q 4678 1225 4090 567 
Q 3503 -91 2522 -91 
Q 1538 -91 948 565 
Q 359 1222 359 2328 
Q 359 3434 948 4092 
Q 1538 4750 2522 4750 
z
" transform="scale(0.015625)"/>
     <path id="DejaVuSans-74" d="M 1172 4494 
L 1172 3500 
L 2356 3500 
L 2356 3053 
L 1172 3053 
L 1172 1153 
Q 1172 725 1289 603 
Q 1406 481 1766 481 
L 2356 481 
L 2356 0 
L 1766 0 
Q 1100 0 847 248 
Q 594 497 594 1153 
L 594 3053 
L 172 3053 
L 172 3500 
L 594 3500 
L 594 4494 
L 1172 4494 
z
" transform="scale(0.015625)"/>
     <path id="DejaVuSans-6f" d="M 1959 3097 
Q 1497 3097 1228 2736 
Q 959 2375 959 1747 
Q 959 1119 1226 758 
Q 1494 397 1959 397 
Q 2419 397 2687 759 
Q 2956 1122 2956 1747 
Q 2956 2369 2687 2733 
Q 2419 3097 1959 3097 
z
M 1959 3584 
Q 2709 3584 3137 3096 
Q 3566 2609 3566 1747 
Q 3566 888 3137 398 
Q 2709 -91 1959 -91 
Q 1206 -91 779 398 
Q 353 888 353 1747 
Q 353 2609 779 3096 
Q 1206 3584 1959 3584 
z
" transform="scale(0.015625)"/>
    </defs>
    <use xlink:href="#DejaVuSans-53"/>
    <use xlink:href="#DejaVuSans-32" x="63.476562"/>
    <use xlink:href="#DejaVuSans-31" x="127.099609"/>
    <use xlink:href="#DejaVuSans-20" x="190.722656"/>
    <use xlink:href="#DejaVuSans-4f" x="222.509766"/>
    <use xlink:href="#DejaVuSans-6e" x="301.220703"/>
    <use xlink:href="#DejaVuSans-65" x="364.599609"/>
    <use xlink:href="#DejaVuSans-2d" x="426.123047"/>
    <use xlink:href="#DejaVuSans-74" x="462.207031"/>
    <use xlink:href="#DejaVuSans-6f" x="501.416016"/>
    <use xlink:href="#DejaVuSans-6e" x="562.597656"/>
    <use xlink:href="#DejaVuSans-65" x="625.976562"/>
   </g>
   <!-- tuid: 20240311-113327-556-e8c8ac -->
   <g transform="translate(114.843125 29.7555) scale(0.12 -0.12)">
    <defs>
     <path id="DejaVuSans-69" d="M 603 3500 
L 1178 3500 
L 1178 0 
L 603 0 
L 603 3500 
z
M 603 4863 
L 1178 4863 
L 1178 4134 
L 603 4134 
L 603 4863 
z
" transform="scale(0.015625)"/>
    </defs>
    <use xlink:href="#DejaVuSans-74"/>
    <use xlink:href="#DejaVuSans-75" x="39.208984"/>
    <use xlink:href="#DejaVuSans-69" x="102.587891"/>
    <use xlink:href="#DejaVuSans-64" x="130.371094"/>
    <use xlink:href="#DejaVuSans-3a" x="193.847656"/>
    <use xlink:href="#DejaVuSans-20" x="227.539062"/>
    <use xlink:href="#DejaVuSans-32" x="259.326172"/>
    <use xlink:href="#DejaVuSans-30" x="322.949219"/>
    <use xlink:href="#DejaVuSans-32" x="386.572266"/>
    <use xlink:href="#DejaVuSans-34" x="450.195312"/>
    <use xlink:href="#DejaVuSans-30" x="513.818359"/>
    <use xlink:href="#DejaVuSans-33" x="577.441406"/>
    <use xlink:href="#DejaVuSans-31" x="641.064453"/>
    <use xlink:href="#DejaVuSans-31" x="704.6875"/>
    <use xlink:href="#DejaVuSans-2d" x="768.310547"/>
    <use xlink:href="#DejaVuSans-31" x="804.394531"/>
    <use xlink:href="#DejaVuSans-31" x="868.017578"/>
    <use xlink:href="#DejaVuSans-33" x="931.640625"/>
    <use xlink:href="#DejaVuSans-33" x="995.263672"/>
    <use xlink:href="#DejaVuSans-32" x="1058.886719"/>
    <use xlink:href="#DejaVuSans-37" x="1122.509766"/>
    <use xlink:href="#DejaVuSans-2d" x="1186.132812"/>
    <use xlink:href="#DejaVuSans-35" x="1222.216797"/>
    <use xlink:href="#DejaVuSans-35" x="1285.839844"/>
    <use xlink:href="#DejaVuSans-36" x="1349.462891"/>
    <use xlink:href="#DejaVuSans-2d" x="1413.085938"/>
    <use xlink:href="#DejaVuSans-65" x="1449.169922"/>
    <use xlink:href="#DejaVuSans-38" x="1510.693359"/>
    <use xlink:href="#DejaVuSans-63" x="1574.316406"/>
    <use xlink:href="#DejaVuSans-38" x="1629.296875"/>
    <use xlink:href="#DejaVuSans-61" x="1692.919922"/>
    <use xlink:href="#DejaVuSans-63" x="1754.199219"/>
   </g>
  </g>
 </g>
 <defs>
  <clipPath id="pdee6ab46a4">
   <rect x="50.595313" y="41.76" width="357.12" height="120.96"/>
  </clipPath>
  <clipPath id="p24ebc6bb3b">
   <rect x="50.595313" y="186.912" width="357.12" height="120.96"/>
  </clipPath>
 </defs>
</svg>
