<?xml version="1.0" encoding="utf-8" standalone="no"?>
<!DOCTYPE svg PUBLIC "-//W3C//DTD SVG 1.1//EN"
  "http://www.w3.org/Graphics/SVG/1.1/DTD/svg11.dtd">
<svg xmlns:xlink="http://www.w3.org/1999/xlink" width="640.6635pt" height="345.42825pt" viewBox="0 0 640.6635 345.42825" xmlns="http://www.w3.org/2000/svg" version="1.1">
 <metadata>
  <rdf:RDF xmlns:dc="http://purl.org/dc/elements/1.1/" xmlns:cc="http://creativecommons.org/ns#" xmlns:rdf="http://www.w3.org/1999/02/22-rdf-syntax-ns#">
   <cc:Work>
    <dc:type rdf:resource="http://purl.org/dc/dcmitype/StillImage"/>
    <dc:date>2024-02-22T18:26:50.349422</dc:date>
    <dc:format>image/svg+xml</dc:format>
    <dc:creator>
     <cc:Agent>
      <dc:title>Matplotlib v3.8.2, https://matplotlib.org/</dc:title>
     </cc:Agent>
    </dc:creator>
   </cc:Work>
  </rdf:RDF>
 </metadata>
 <defs>
  <style type="text/css">*{stroke-linejoin: round; stroke-linecap: butt}</style>
 </defs>
 <g id="figure_1">
  <g id="patch_1">
   <path d="M 0 345.42825 
L 640.6635 345.42825 
L 640.6635 -0 
L 0 -0 
L 0 345.42825 
z
" style="fill: none; opacity: 0"/>
  </g>
  <g id="axes_1">
   <g id="patch_2">
    <path d="M 40.603125 307.872 
L 397.723125 307.872 
L 397.723125 41.76 
L 40.603125 41.76 
z
" style="fill: #ffffff"/>
   </g>
   <g id="matplotlib.axis_1">
    <g id="xtick_1">
     <g id="line2d_1">
      <defs>
       <path id="m6af572f3a8" d="M 0 0 
L 0 3.5 
" style="stroke: #000000; stroke-width: 0.8"/>
      </defs>
      <g>
       <use xlink:href="#m6af572f3a8" x="47.960511" y="307.872" style="stroke: #000000; stroke-width: 0.8"/>
      </g>
     </g>
     <g id="text_1">
      <!-- 790 -->
      <g transform="translate(38.416761 322.470438) scale(0.1 -0.1)">
       <defs>
        <path id="DejaVuSans-37" d="M 525 4666 
L 3525 4666 
L 3525 4397 
L 1831 0 
L 1172 0 
L 2766 4134 
L 525 4134 
L 525 4666 
z
" transform="scale(0.015625)"/>
        <path id="DejaVuSans-39" d="M 703 97 
L 703 672 
Q 941 559 1184 500 
Q 1428 441 1663 441 
Q 2288 441 2617 861 
Q 2947 1281 2994 2138 
Q 2813 1869 2534 1725 
Q 2256 1581 1919 1581 
Q 1219 1581 811 2004 
Q 403 2428 403 3163 
Q 403 3881 828 4315 
Q 1253 4750 1959 4750 
Q 2769 4750 3195 4129 
Q 3622 3509 3622 2328 
Q 3622 1225 3098 567 
Q 2575 -91 1691 -91 
Q 1453 -91 1209 -44 
Q 966 3 703 97 
z
M 1959 2075 
Q 2384 2075 2632 2365 
Q 2881 2656 2881 3163 
Q 2881 3666 2632 3958 
Q 2384 4250 1959 4250 
Q 1534 4250 1286 3958 
Q 1038 3666 1038 3163 
Q 1038 2656 1286 2365 
Q 1534 2075 1959 2075 
z
" transform="scale(0.015625)"/>
        <path id="DejaVuSans-30" d="M 2034 4250 
Q 1547 4250 1301 3770 
Q 1056 3291 1056 2328 
Q 1056 1369 1301 889 
Q 1547 409 2034 409 
Q 2525 409 2770 889 
Q 3016 1369 3016 2328 
Q 3016 3291 2770 3770 
Q 2525 4250 2034 4250 
z
M 2034 4750 
Q 2819 4750 3233 4129 
Q 3647 3509 3647 2328 
Q 3647 1150 3233 529 
Q 2819 -91 2034 -91 
Q 1250 -91 836 529 
Q 422 1150 422 2328 
Q 422 3509 836 4129 
Q 1250 4750 2034 4750 
z
" transform="scale(0.015625)"/>
       </defs>
       <use xlink:href="#DejaVuSans-37"/>
       <use xlink:href="#DejaVuSans-39" x="63.623047"/>
       <use xlink:href="#DejaVuSans-30" x="127.246094"/>
      </g>
     </g>
    </g>
    <g id="xtick_2">
     <g id="line2d_2">
      <g>
       <use xlink:href="#m6af572f3a8" x="102.069602" y="307.872" style="stroke: #000000; stroke-width: 0.8"/>
      </g>
     </g>
     <g id="text_2">
      <!-- 791 -->
      <g transform="translate(92.525852 322.470438) scale(0.1 -0.1)">
       <defs>
        <path id="DejaVuSans-31" d="M 794 531 
L 1825 531 
L 1825 4091 
L 703 3866 
L 703 4441 
L 1819 4666 
L 2450 4666 
L 2450 531 
L 3481 531 
L 3481 0 
L 794 0 
L 794 531 
z
" transform="scale(0.015625)"/>
       </defs>
       <use xlink:href="#DejaVuSans-37"/>
       <use xlink:href="#DejaVuSans-39" x="63.623047"/>
       <use xlink:href="#DejaVuSans-31" x="127.246094"/>
      </g>
     </g>
    </g>
    <g id="xtick_3">
     <g id="line2d_3">
      <g>
       <use xlink:href="#m6af572f3a8" x="156.178692" y="307.872" style="stroke: #000000; stroke-width: 0.8"/>
      </g>
     </g>
     <g id="text_3">
      <!-- 792 -->
      <g transform="translate(146.634942 322.470438) scale(0.1 -0.1)">
       <defs>
        <path id="DejaVuSans-32" d="M 1228 531 
L 3431 531 
L 3431 0 
L 469 0 
L 469 531 
Q 828 903 1448 1529 
Q 2069 2156 2228 2338 
Q 2531 2678 2651 2914 
Q 2772 3150 2772 3378 
Q 2772 3750 2511 3984 
Q 2250 4219 1831 4219 
Q 1534 4219 1204 4116 
Q 875 4013 500 3803 
L 500 4441 
Q 881 4594 1212 4672 
Q 1544 4750 1819 4750 
Q 2544 4750 2975 4387 
Q 3406 4025 3406 3419 
Q 3406 3131 3298 2873 
Q 3191 2616 2906 2266 
Q 2828 2175 2409 1742 
Q 1991 1309 1228 531 
z
" transform="scale(0.015625)"/>
       </defs>
       <use xlink:href="#DejaVuSans-37"/>
       <use xlink:href="#DejaVuSans-39" x="63.623047"/>
       <use xlink:href="#DejaVuSans-32" x="127.246094"/>
      </g>
     </g>
    </g>
    <g id="xtick_4">
     <g id="line2d_4">
      <g>
       <use xlink:href="#m6af572f3a8" x="210.287783" y="307.872" style="stroke: #000000; stroke-width: 0.8"/>
      </g>
     </g>
     <g id="text_4">
      <!-- 793 -->
      <g transform="translate(200.744033 322.470438) scale(0.1 -0.1)">
       <defs>
        <path id="DejaVuSans-33" d="M 2597 2516 
Q 3050 2419 3304 2112 
Q 3559 1806 3559 1356 
Q 3559 666 3084 287 
Q 2609 -91 1734 -91 
Q 1441 -91 1130 -33 
Q 819 25 488 141 
L 488 750 
Q 750 597 1062 519 
Q 1375 441 1716 441 
Q 2309 441 2620 675 
Q 2931 909 2931 1356 
Q 2931 1769 2642 2001 
Q 2353 2234 1838 2234 
L 1294 2234 
L 1294 2753 
L 1863 2753 
Q 2328 2753 2575 2939 
Q 2822 3125 2822 3475 
Q 2822 3834 2567 4026 
Q 2313 4219 1838 4219 
Q 1578 4219 1281 4162 
Q 984 4106 628 3988 
L 628 4550 
Q 988 4650 1302 4700 
Q 1616 4750 1894 4750 
Q 2613 4750 3031 4423 
Q 3450 4097 3450 3541 
Q 3450 3153 3228 2886 
Q 3006 2619 2597 2516 
z
" transform="scale(0.015625)"/>
       </defs>
       <use xlink:href="#DejaVuSans-37"/>
       <use xlink:href="#DejaVuSans-39" x="63.623047"/>
       <use xlink:href="#DejaVuSans-33" x="127.246094"/>
      </g>
     </g>
    </g>
    <g id="xtick_5">
     <g id="line2d_5">
      <g>
       <use xlink:href="#m6af572f3a8" x="264.396874" y="307.872" style="stroke: #000000; stroke-width: 0.8"/>
      </g>
     </g>
     <g id="text_5">
      <!-- 794 -->
      <g transform="translate(254.853124 322.470438) scale(0.1 -0.1)">
       <defs>
        <path id="DejaVuSans-34" d="M 2419 4116 
L 825 1625 
L 2419 1625 
L 2419 4116 
z
M 2253 4666 
L 3047 4666 
L 3047 1625 
L 3713 1625 
L 3713 1100 
L 3047 1100 
L 3047 0 
L 2419 0 
L 2419 1100 
L 313 1100 
L 313 1709 
L 2253 4666 
z
" transform="scale(0.015625)"/>
       </defs>
       <use xlink:href="#DejaVuSans-37"/>
       <use xlink:href="#DejaVuSans-39" x="63.623047"/>
       <use xlink:href="#DejaVuSans-34" x="127.246094"/>
      </g>
     </g>
    </g>
    <g id="xtick_6">
     <g id="line2d_6">
      <g>
       <use xlink:href="#m6af572f3a8" x="318.505965" y="307.872" style="stroke: #000000; stroke-width: 0.8"/>
      </g>
     </g>
     <g id="text_6">
      <!-- 795 -->
      <g transform="translate(308.962215 322.470438) scale(0.1 -0.1)">
       <defs>
        <path id="DejaVuSans-35" d="M 691 4666 
L 3169 4666 
L 3169 4134 
L 1269 4134 
L 1269 2991 
Q 1406 3038 1543 3061 
Q 1681 3084 1819 3084 
Q 2600 3084 3056 2656 
Q 3513 2228 3513 1497 
Q 3513 744 3044 326 
Q 2575 -91 1722 -91 
Q 1428 -91 1123 -41 
Q 819 9 494 109 
L 494 744 
Q 775 591 1075 516 
Q 1375 441 1709 441 
Q 2250 441 2565 725 
Q 2881 1009 2881 1497 
Q 2881 1984 2565 2268 
Q 2250 2553 1709 2553 
Q 1456 2553 1204 2497 
Q 953 2441 691 2322 
L 691 4666 
z
" transform="scale(0.015625)"/>
       </defs>
       <use xlink:href="#DejaVuSans-37"/>
       <use xlink:href="#DejaVuSans-39" x="63.623047"/>
       <use xlink:href="#DejaVuSans-35" x="127.246094"/>
      </g>
     </g>
    </g>
    <g id="xtick_7">
     <g id="line2d_7">
      <g>
       <use xlink:href="#m6af572f3a8" x="372.615056" y="307.872" style="stroke: #000000; stroke-width: 0.8"/>
      </g>
     </g>
     <g id="text_7">
      <!-- 796 -->
      <g transform="translate(363.071306 322.470438) scale(0.1 -0.1)">
       <defs>
        <path id="DejaVuSans-36" d="M 2113 2584 
Q 1688 2584 1439 2293 
Q 1191 2003 1191 1497 
Q 1191 994 1439 701 
Q 1688 409 2113 409 
Q 2538 409 2786 701 
Q 3034 994 3034 1497 
Q 3034 2003 2786 2293 
Q 2538 2584 2113 2584 
z
M 3366 4563 
L 3366 3988 
Q 3128 4100 2886 4159 
Q 2644 4219 2406 4219 
Q 1781 4219 1451 3797 
Q 1122 3375 1075 2522 
Q 1259 2794 1537 2939 
Q 1816 3084 2150 3084 
Q 2853 3084 3261 2657 
Q 3669 2231 3669 1497 
Q 3669 778 3244 343 
Q 2819 -91 2113 -91 
Q 1303 -91 875 529 
Q 447 1150 447 2328 
Q 447 3434 972 4092 
Q 1497 4750 2381 4750 
Q 2619 4750 2861 4703 
Q 3103 4656 3366 4563 
z
" transform="scale(0.015625)"/>
       </defs>
       <use xlink:href="#DejaVuSans-37"/>
       <use xlink:href="#DejaVuSans-39" x="63.623047"/>
       <use xlink:href="#DejaVuSans-36" x="127.246094"/>
      </g>
     </g>
    </g>
    <g id="text_8">
     <!-- Frequency [MHz] -->
     <g transform="translate(177.144375 336.148562) scale(0.1 -0.1)">
      <defs>
       <path id="DejaVuSans-46" d="M 628 4666 
L 3309 4666 
L 3309 4134 
L 1259 4134 
L 1259 2759 
L 3109 2759 
L 3109 2228 
L 1259 2228 
L 1259 0 
L 628 0 
L 628 4666 
z
" transform="scale(0.015625)"/>
       <path id="DejaVuSans-72" d="M 2631 2963 
Q 2534 3019 2420 3045 
Q 2306 3072 2169 3072 
Q 1681 3072 1420 2755 
Q 1159 2438 1159 1844 
L 1159 0 
L 581 0 
L 581 3500 
L 1159 3500 
L 1159 2956 
Q 1341 3275 1631 3429 
Q 1922 3584 2338 3584 
Q 2397 3584 2469 3576 
Q 2541 3569 2628 3553 
L 2631 2963 
z
" transform="scale(0.015625)"/>
       <path id="DejaVuSans-65" d="M 3597 1894 
L 3597 1613 
L 953 1613 
Q 991 1019 1311 708 
Q 1631 397 2203 397 
Q 2534 397 2845 478 
Q 3156 559 3463 722 
L 3463 178 
Q 3153 47 2828 -22 
Q 2503 -91 2169 -91 
Q 1331 -91 842 396 
Q 353 884 353 1716 
Q 353 2575 817 3079 
Q 1281 3584 2069 3584 
Q 2775 3584 3186 3129 
Q 3597 2675 3597 1894 
z
M 3022 2063 
Q 3016 2534 2758 2815 
Q 2500 3097 2075 3097 
Q 1594 3097 1305 2825 
Q 1016 2553 972 2059 
L 3022 2063 
z
" transform="scale(0.015625)"/>
       <path id="DejaVuSans-71" d="M 947 1747 
Q 947 1113 1208 752 
Q 1469 391 1925 391 
Q 2381 391 2643 752 
Q 2906 1113 2906 1747 
Q 2906 2381 2643 2742 
Q 2381 3103 1925 3103 
Q 1469 3103 1208 2742 
Q 947 2381 947 1747 
z
M 2906 525 
Q 2725 213 2448 61 
Q 2172 -91 1784 -91 
Q 1150 -91 751 415 
Q 353 922 353 1747 
Q 353 2572 751 3078 
Q 1150 3584 1784 3584 
Q 2172 3584 2448 3432 
Q 2725 3281 2906 2969 
L 2906 3500 
L 3481 3500 
L 3481 -1331 
L 2906 -1331 
L 2906 525 
z
" transform="scale(0.015625)"/>
       <path id="DejaVuSans-75" d="M 544 1381 
L 544 3500 
L 1119 3500 
L 1119 1403 
Q 1119 906 1312 657 
Q 1506 409 1894 409 
Q 2359 409 2629 706 
Q 2900 1003 2900 1516 
L 2900 3500 
L 3475 3500 
L 3475 0 
L 2900 0 
L 2900 538 
Q 2691 219 2414 64 
Q 2138 -91 1772 -91 
Q 1169 -91 856 284 
Q 544 659 544 1381 
z
M 1991 3584 
L 1991 3584 
z
" transform="scale(0.015625)"/>
       <path id="DejaVuSans-6e" d="M 3513 2113 
L 3513 0 
L 2938 0 
L 2938 2094 
Q 2938 2591 2744 2837 
Q 2550 3084 2163 3084 
Q 1697 3084 1428 2787 
Q 1159 2491 1159 1978 
L 1159 0 
L 581 0 
L 581 3500 
L 1159 3500 
L 1159 2956 
Q 1366 3272 1645 3428 
Q 1925 3584 2291 3584 
Q 2894 3584 3203 3211 
Q 3513 2838 3513 2113 
z
" transform="scale(0.015625)"/>
       <path id="DejaVuSans-63" d="M 3122 3366 
L 3122 2828 
Q 2878 2963 2633 3030 
Q 2388 3097 2138 3097 
Q 1578 3097 1268 2742 
Q 959 2388 959 1747 
Q 959 1106 1268 751 
Q 1578 397 2138 397 
Q 2388 397 2633 464 
Q 2878 531 3122 666 
L 3122 134 
Q 2881 22 2623 -34 
Q 2366 -91 2075 -91 
Q 1284 -91 818 406 
Q 353 903 353 1747 
Q 353 2603 823 3093 
Q 1294 3584 2113 3584 
Q 2378 3584 2631 3529 
Q 2884 3475 3122 3366 
z
" transform="scale(0.015625)"/>
       <path id="DejaVuSans-79" d="M 2059 -325 
Q 1816 -950 1584 -1140 
Q 1353 -1331 966 -1331 
L 506 -1331 
L 506 -850 
L 844 -850 
Q 1081 -850 1212 -737 
Q 1344 -625 1503 -206 
L 1606 56 
L 191 3500 
L 800 3500 
L 1894 763 
L 2988 3500 
L 3597 3500 
L 2059 -325 
z
" transform="scale(0.015625)"/>
       <path id="DejaVuSans-20" transform="scale(0.015625)"/>
       <path id="DejaVuSans-5b" d="M 550 4863 
L 1875 4863 
L 1875 4416 
L 1125 4416 
L 1125 -397 
L 1875 -397 
L 1875 -844 
L 550 -844 
L 550 4863 
z
" transform="scale(0.015625)"/>
       <path id="DejaVuSans-4d" d="M 628 4666 
L 1569 4666 
L 2759 1491 
L 3956 4666 
L 4897 4666 
L 4897 0 
L 4281 0 
L 4281 4097 
L 3078 897 
L 2444 897 
L 1241 4097 
L 1241 0 
L 628 0 
L 628 4666 
z
" transform="scale(0.015625)"/>
       <path id="DejaVuSans-48" d="M 628 4666 
L 1259 4666 
L 1259 2753 
L 3553 2753 
L 3553 4666 
L 4184 4666 
L 4184 0 
L 3553 0 
L 3553 2222 
L 1259 2222 
L 1259 0 
L 628 0 
L 628 4666 
z
" transform="scale(0.015625)"/>
       <path id="DejaVuSans-7a" d="M 353 3500 
L 3084 3500 
L 3084 2975 
L 922 459 
L 3084 459 
L 3084 0 
L 275 0 
L 275 525 
L 2438 3041 
L 353 3041 
L 353 3500 
z
" transform="scale(0.015625)"/>
       <path id="DejaVuSans-5d" d="M 1947 4863 
L 1947 -844 
L 622 -844 
L 622 -397 
L 1369 -397 
L 1369 4416 
L 622 4416 
L 622 4863 
L 1947 4863 
z
" transform="scale(0.015625)"/>
      </defs>
      <use xlink:href="#DejaVuSans-46"/>
      <use xlink:href="#DejaVuSans-72" x="50.269531"/>
      <use xlink:href="#DejaVuSans-65" x="89.132812"/>
      <use xlink:href="#DejaVuSans-71" x="150.65625"/>
      <use xlink:href="#DejaVuSans-75" x="214.132812"/>
      <use xlink:href="#DejaVuSans-65" x="277.511719"/>
      <use xlink:href="#DejaVuSans-6e" x="339.035156"/>
      <use xlink:href="#DejaVuSans-63" x="402.414062"/>
      <use xlink:href="#DejaVuSans-79" x="457.394531"/>
      <use xlink:href="#DejaVuSans-20" x="516.574219"/>
      <use xlink:href="#DejaVuSans-5b" x="548.361328"/>
      <use xlink:href="#DejaVuSans-4d" x="587.375"/>
      <use xlink:href="#DejaVuSans-48" x="673.654297"/>
      <use xlink:href="#DejaVuSans-7a" x="748.849609"/>
      <use xlink:href="#DejaVuSans-5d" x="801.339844"/>
     </g>
    </g>
    <g id="text_9">
     <!-- +5 GHz -->
     <g transform="translate(359.285625 335.148562) scale(0.1 -0.1)">
      <defs>
       <path id="DejaVuSans-2b" d="M 2944 4013 
L 2944 2272 
L 4684 2272 
L 4684 1741 
L 2944 1741 
L 2944 0 
L 2419 0 
L 2419 1741 
L 678 1741 
L 678 2272 
L 2419 2272 
L 2419 4013 
L 2944 4013 
z
" transform="scale(0.015625)"/>
       <path id="DejaVuSans-47" d="M 3809 666 
L 3809 1919 
L 2778 1919 
L 2778 2438 
L 4434 2438 
L 4434 434 
Q 4069 175 3628 42 
Q 3188 -91 2688 -91 
Q 1594 -91 976 548 
Q 359 1188 359 2328 
Q 359 3472 976 4111 
Q 1594 4750 2688 4750 
Q 3144 4750 3555 4637 
Q 3966 4525 4313 4306 
L 4313 3634 
Q 3963 3931 3569 4081 
Q 3175 4231 2741 4231 
Q 1884 4231 1454 3753 
Q 1025 3275 1025 2328 
Q 1025 1384 1454 906 
Q 1884 428 2741 428 
Q 3075 428 3337 486 
Q 3600 544 3809 666 
z
" transform="scale(0.015625)"/>
      </defs>
      <use xlink:href="#DejaVuSans-2b"/>
      <use xlink:href="#DejaVuSans-35" x="83.789062"/>
      <use xlink:href="#DejaVuSans-20" x="147.412109"/>
      <use xlink:href="#DejaVuSans-47" x="179.199219"/>
      <use xlink:href="#DejaVuSans-48" x="256.689453"/>
      <use xlink:href="#DejaVuSans-7a" x="331.884766"/>
     </g>
    </g>
   </g>
   <g id="matplotlib.axis_2">
    <g id="ytick_1">
     <g id="line2d_8">
      <defs>
       <path id="m89b5d409c5" d="M 0 0 
L -3.5 0 
" style="stroke: #000000; stroke-width: 0.8"/>
      </defs>
      <g>
       <use xlink:href="#m89b5d409c5" x="40.603125" y="290.285695" style="stroke: #000000; stroke-width: 0.8"/>
      </g>
     </g>
     <g id="text_10">
      <!-- 5 -->
      <g transform="translate(27.240625 294.084914) scale(0.1 -0.1)">
       <use xlink:href="#DejaVuSans-35"/>
      </g>
     </g>
    </g>
    <g id="ytick_2">
     <g id="line2d_9">
      <g>
       <use xlink:href="#m89b5d409c5" x="40.603125" y="250.873722" style="stroke: #000000; stroke-width: 0.8"/>
      </g>
     </g>
     <g id="text_11">
      <!-- 10 -->
      <g transform="translate(20.878125 254.672941) scale(0.1 -0.1)">
       <use xlink:href="#DejaVuSans-31"/>
       <use xlink:href="#DejaVuSans-30" x="63.623047"/>
      </g>
     </g>
    </g>
    <g id="ytick_3">
     <g id="line2d_10">
      <g>
       <use xlink:href="#m89b5d409c5" x="40.603125" y="211.46175" style="stroke: #000000; stroke-width: 0.8"/>
      </g>
     </g>
     <g id="text_12">
      <!-- 15 -->
      <g transform="translate(20.878125 215.260968) scale(0.1 -0.1)">
       <use xlink:href="#DejaVuSans-31"/>
       <use xlink:href="#DejaVuSans-35" x="63.623047"/>
      </g>
     </g>
    </g>
    <g id="ytick_4">
     <g id="line2d_11">
      <g>
       <use xlink:href="#m89b5d409c5" x="40.603125" y="172.049777" style="stroke: #000000; stroke-width: 0.8"/>
      </g>
     </g>
     <g id="text_13">
      <!-- 20 -->
      <g transform="translate(20.878125 175.848996) scale(0.1 -0.1)">
       <use xlink:href="#DejaVuSans-32"/>
       <use xlink:href="#DejaVuSans-30" x="63.623047"/>
      </g>
     </g>
    </g>
    <g id="ytick_5">
     <g id="line2d_12">
      <g>
       <use xlink:href="#m89b5d409c5" x="40.603125" y="132.637804" style="stroke: #000000; stroke-width: 0.8"/>
      </g>
     </g>
     <g id="text_14">
      <!-- 25 -->
      <g transform="translate(20.878125 136.437023) scale(0.1 -0.1)">
       <use xlink:href="#DejaVuSans-32"/>
       <use xlink:href="#DejaVuSans-35" x="63.623047"/>
      </g>
     </g>
    </g>
    <g id="ytick_6">
     <g id="line2d_13">
      <g>
       <use xlink:href="#m89b5d409c5" x="40.603125" y="93.225831" style="stroke: #000000; stroke-width: 0.8"/>
      </g>
     </g>
     <g id="text_15">
      <!-- 30 -->
      <g transform="translate(20.878125 97.02505) scale(0.1 -0.1)">
       <use xlink:href="#DejaVuSans-33"/>
       <use xlink:href="#DejaVuSans-30" x="63.623047"/>
      </g>
     </g>
    </g>
    <g id="ytick_7">
     <g id="line2d_14">
      <g>
       <use xlink:href="#m89b5d409c5" x="40.603125" y="53.813859" style="stroke: #000000; stroke-width: 0.8"/>
      </g>
     </g>
     <g id="text_16">
      <!-- 35 -->
      <g transform="translate(20.878125 57.613077) scale(0.1 -0.1)">
       <use xlink:href="#DejaVuSans-33"/>
       <use xlink:href="#DejaVuSans-35" x="63.623047"/>
      </g>
     </g>
    </g>
    <g id="text_17">
     <!-- Magnitude0 [mV] -->
     <g transform="translate(14.798438 218.268344) rotate(-90) scale(0.1 -0.1)">
      <defs>
       <path id="DejaVuSans-61" d="M 2194 1759 
Q 1497 1759 1228 1600 
Q 959 1441 959 1056 
Q 959 750 1161 570 
Q 1363 391 1709 391 
Q 2188 391 2477 730 
Q 2766 1069 2766 1631 
L 2766 1759 
L 2194 1759 
z
M 3341 1997 
L 3341 0 
L 2766 0 
L 2766 531 
Q 2569 213 2275 61 
Q 1981 -91 1556 -91 
Q 1019 -91 701 211 
Q 384 513 384 1019 
Q 384 1609 779 1909 
Q 1175 2209 1959 2209 
L 2766 2209 
L 2766 2266 
Q 2766 2663 2505 2880 
Q 2244 3097 1772 3097 
Q 1472 3097 1187 3025 
Q 903 2953 641 2809 
L 641 3341 
Q 956 3463 1253 3523 
Q 1550 3584 1831 3584 
Q 2591 3584 2966 3190 
Q 3341 2797 3341 1997 
z
" transform="scale(0.015625)"/>
       <path id="DejaVuSans-67" d="M 2906 1791 
Q 2906 2416 2648 2759 
Q 2391 3103 1925 3103 
Q 1463 3103 1205 2759 
Q 947 2416 947 1791 
Q 947 1169 1205 825 
Q 1463 481 1925 481 
Q 2391 481 2648 825 
Q 2906 1169 2906 1791 
z
M 3481 434 
Q 3481 -459 3084 -895 
Q 2688 -1331 1869 -1331 
Q 1566 -1331 1297 -1286 
Q 1028 -1241 775 -1147 
L 775 -588 
Q 1028 -725 1275 -790 
Q 1522 -856 1778 -856 
Q 2344 -856 2625 -561 
Q 2906 -266 2906 331 
L 2906 616 
Q 2728 306 2450 153 
Q 2172 0 1784 0 
Q 1141 0 747 490 
Q 353 981 353 1791 
Q 353 2603 747 3093 
Q 1141 3584 1784 3584 
Q 2172 3584 2450 3431 
Q 2728 3278 2906 2969 
L 2906 3500 
L 3481 3500 
L 3481 434 
z
" transform="scale(0.015625)"/>
       <path id="DejaVuSans-69" d="M 603 3500 
L 1178 3500 
L 1178 0 
L 603 0 
L 603 3500 
z
M 603 4863 
L 1178 4863 
L 1178 4134 
L 603 4134 
L 603 4863 
z
" transform="scale(0.015625)"/>
       <path id="DejaVuSans-74" d="M 1172 4494 
L 1172 3500 
L 2356 3500 
L 2356 3053 
L 1172 3053 
L 1172 1153 
Q 1172 725 1289 603 
Q 1406 481 1766 481 
L 2356 481 
L 2356 0 
L 1766 0 
Q 1100 0 847 248 
Q 594 497 594 1153 
L 594 3053 
L 172 3053 
L 172 3500 
L 594 3500 
L 594 4494 
L 1172 4494 
z
" transform="scale(0.015625)"/>
       <path id="DejaVuSans-64" d="M 2906 2969 
L 2906 4863 
L 3481 4863 
L 3481 0 
L 2906 0 
L 2906 525 
Q 2725 213 2448 61 
Q 2172 -91 1784 -91 
Q 1150 -91 751 415 
Q 353 922 353 1747 
Q 353 2572 751 3078 
Q 1150 3584 1784 3584 
Q 2172 3584 2448 3432 
Q 2725 3281 2906 2969 
z
M 947 1747 
Q 947 1113 1208 752 
Q 1469 391 1925 391 
Q 2381 391 2643 752 
Q 2906 1113 2906 1747 
Q 2906 2381 2643 2742 
Q 2381 3103 1925 3103 
Q 1469 3103 1208 2742 
Q 947 2381 947 1747 
z
" transform="scale(0.015625)"/>
       <path id="DejaVuSans-6d" d="M 3328 2828 
Q 3544 3216 3844 3400 
Q 4144 3584 4550 3584 
Q 5097 3584 5394 3201 
Q 5691 2819 5691 2113 
L 5691 0 
L 5113 0 
L 5113 2094 
Q 5113 2597 4934 2840 
Q 4756 3084 4391 3084 
Q 3944 3084 3684 2787 
Q 3425 2491 3425 1978 
L 3425 0 
L 2847 0 
L 2847 2094 
Q 2847 2600 2669 2842 
Q 2491 3084 2119 3084 
Q 1678 3084 1418 2786 
Q 1159 2488 1159 1978 
L 1159 0 
L 581 0 
L 581 3500 
L 1159 3500 
L 1159 2956 
Q 1356 3278 1631 3431 
Q 1906 3584 2284 3584 
Q 2666 3584 2933 3390 
Q 3200 3197 3328 2828 
z
" transform="scale(0.015625)"/>
       <path id="DejaVuSans-56" d="M 1831 0 
L 50 4666 
L 709 4666 
L 2188 738 
L 3669 4666 
L 4325 4666 
L 2547 0 
L 1831 0 
z
" transform="scale(0.015625)"/>
      </defs>
      <use xlink:href="#DejaVuSans-4d"/>
      <use xlink:href="#DejaVuSans-61" x="86.279297"/>
      <use xlink:href="#DejaVuSans-67" x="147.558594"/>
      <use xlink:href="#DejaVuSans-6e" x="211.035156"/>
      <use xlink:href="#DejaVuSans-69" x="274.414062"/>
      <use xlink:href="#DejaVuSans-74" x="302.197266"/>
      <use xlink:href="#DejaVuSans-75" x="341.40625"/>
      <use xlink:href="#DejaVuSans-64" x="404.785156"/>
      <use xlink:href="#DejaVuSans-65" x="468.261719"/>
      <use xlink:href="#DejaVuSans-30" x="529.785156"/>
      <use xlink:href="#DejaVuSans-20" x="593.408203"/>
      <use xlink:href="#DejaVuSans-5b" x="625.195312"/>
      <use xlink:href="#DejaVuSans-6d" x="664.208984"/>
      <use xlink:href="#DejaVuSans-56" x="761.621094"/>
      <use xlink:href="#DejaVuSans-5d" x="830.029297"/>
     </g>
    </g>
   </g>
   <g id="line2d_15">
    <path d="M 56.835852 291.658668 
L 68.030837 291.416761 
L 79.225821 290.781811 
L 90.420805 290.843058 
L 101.61579 291.705857 
L 112.810774 290.787348 
L 124.005758 292.253593 
L 135.200743 292.142791 
L 146.395727 291.54075 
L 157.590711 292.42276 
L 168.785696 292.877172 
L 179.98068 293.824773 
L 191.175664 295.776 
L 202.370649 294.220605 
L 213.565633 294.17849 
L 224.760617 294.291907 
L 235.955601 293.480775 
L 247.150586 294.000471 
L 258.34557 293.989086 
L 269.540554 294.169048 
L 280.735539 293.425988 
L 291.930523 292.50834 
L 303.125507 291.633438 
L 314.320492 293.409273 
L 325.515476 291.026464 
L 336.71046 291.540626 
L 347.905445 290.801839 
L 359.100429 291.600524 
L 370.295413 291.38252 
L 381.490398 290.169005 
" clip-path="url(#pe765818988)" style="fill: none; stroke: #440154; stroke-width: 1.5; stroke-linecap: square"/>
   </g>
   <g id="line2d_16">
    <path d="M 56.835852 283.358283 
L 68.030837 283.074943 
L 79.225821 283.017666 
L 90.420805 283.527772 
L 101.61579 283.160357 
L 112.810774 283.442916 
L 124.005758 283.585164 
L 135.200743 283.738994 
L 146.395727 284.576207 
L 157.590711 284.864076 
L 168.785696 285.786866 
L 179.98068 286.2541 
L 191.175664 284.632576 
L 202.370649 287.348348 
L 213.565633 287.650009 
L 224.760617 287.388885 
L 235.955601 287.286981 
L 247.150586 286.377721 
L 258.34557 286.478026 
L 269.540554 286.084675 
L 280.735539 284.777531 
L 291.930523 285.193585 
L 303.125507 284.979927 
L 314.320492 283.55122 
L 325.515476 282.356962 
L 336.71046 283.244691 
L 347.905445 284.022805 
L 359.100429 283.241484 
L 370.295413 282.348754 
L 381.490398 281.716649 
" clip-path="url(#pe765818988)" style="fill: none; stroke: #470d60; stroke-width: 1.5; stroke-linecap: square"/>
   </g>
   <g id="line2d_17">
    <path d="M 56.835852 275.891004 
L 68.030837 275.232524 
L 79.225821 275.472216 
L 90.420805 276.238302 
L 101.61579 275.376715 
L 112.810774 275.759675 
L 124.005758 275.654184 
L 135.200743 276.101557 
L 146.395727 275.573634 
L 157.590711 276.148801 
L 168.785696 277.906979 
L 179.98068 278.793023 
L 191.175664 278.548189 
L 202.370649 279.405809 
L 213.565633 280.069099 
L 224.760617 279.700715 
L 235.955601 280.174826 
L 247.150586 279.251572 
L 258.34557 278.428418 
L 269.540554 279.529432 
L 280.735539 276.653373 
L 291.930523 277.203032 
L 303.125507 276.758831 
L 314.320492 276.541634 
L 325.515476 275.559896 
L 336.71046 275.130974 
L 347.905445 275.712292 
L 359.100429 273.915286 
L 370.295413 273.668745 
L 381.490398 272.651269 
" clip-path="url(#pe765818988)" style="fill: none; stroke: #481a6c; stroke-width: 1.5; stroke-linecap: square"/>
   </g>
   <g id="line2d_18">
    <path d="M 56.835852 267.400597 
L 68.030837 267.794455 
L 79.225821 268.179806 
L 90.420805 268.77075 
L 101.61579 266.683231 
L 112.810774 266.992168 
L 124.005758 269.000967 
L 135.200743 269.206288 
L 146.395727 269.361524 
L 157.590711 268.687547 
L 168.785696 269.807014 
L 179.98068 271.457209 
L 191.175664 271.618453 
L 202.370649 272.031517 
L 213.565633 273.319221 
L 224.760617 272.827184 
L 235.955601 272.392157 
L 247.150586 271.764735 
L 258.34557 271.687838 
L 269.540554 270.846143 
L 280.735539 268.79256 
L 291.930523 269.073764 
L 303.125507 268.122698 
L 314.320492 268.102247 
L 325.515476 267.853589 
L 336.71046 267.744516 
L 347.905445 266.43202 
L 359.100429 266.129394 
L 370.295413 265.758094 
L 381.490398 266.001832 
" clip-path="url(#pe765818988)" style="fill: none; stroke: #482576; stroke-width: 1.5; stroke-linecap: square"/>
   </g>
   <g id="line2d_19">
    <path d="M 56.835852 259.732226 
L 68.030837 259.482929 
L 79.225821 260.556619 
L 90.420805 259.641479 
L 101.61579 259.923559 
L 112.810774 260.507606 
L 124.005758 259.548149 
L 135.200743 260.247973 
L 146.395727 261.396712 
L 157.590711 261.499768 
L 168.785696 261.80985 
L 179.98068 262.45008 
L 191.175664 263.91354 
L 202.370649 264.245383 
L 213.565633 264.3822 
L 224.760617 264.450287 
L 235.955601 264.019004 
L 247.150586 264.408286 
L 258.34557 262.975392 
L 269.540554 262.63551 
L 280.735539 262.307211 
L 291.930523 263.075626 
L 303.125507 261.111083 
L 314.320492 259.301463 
L 325.515476 258.30566 
L 336.71046 258.614266 
L 347.905445 258.488885 
L 359.100429 258.647366 
L 370.295413 258.313871 
L 381.490398 256.591819 
" clip-path="url(#pe765818988)" style="fill: none; stroke: #46307e; stroke-width: 1.5; stroke-linecap: square"/>
   </g>
   <g id="line2d_20">
    <path d="M 56.835852 252.526353 
L 68.030837 251.825626 
L 79.225821 251.765913 
L 90.420805 251.240653 
L 101.61579 251.080781 
L 112.810774 252.3099 
L 124.005758 251.962623 
L 135.200743 253.004145 
L 146.395727 253.730477 
L 157.590711 253.694522 
L 168.785696 255.001546 
L 179.98068 256.016401 
L 191.175664 256.473784 
L 202.370649 257.815348 
L 213.565633 258.205453 
L 224.760617 257.421281 
L 235.955601 258.51158 
L 247.150586 258.36229 
L 258.34557 256.856311 
L 269.540554 256.243491 
L 280.735539 253.985837 
L 291.930523 253.114797 
L 303.125507 253.281833 
L 314.320492 253.021228 
L 325.515476 251.710833 
L 336.71046 250.845463 
L 347.905445 250.828594 
L 359.100429 250.622273 
L 370.295413 250.016316 
L 381.490398 249.627348 
" clip-path="url(#pe765818988)" style="fill: none; stroke: #443b84; stroke-width: 1.5; stroke-linecap: square"/>
   </g>
   <g id="line2d_21">
    <path d="M 56.835852 244.504753 
L 68.030837 243.373229 
L 79.225821 244.303656 
L 90.420805 244.885504 
L 101.61579 243.553854 
L 112.810774 243.837242 
L 124.005758 244.136188 
L 135.200743 245.082037 
L 146.395727 245.366618 
L 157.590711 246.397824 
L 168.785696 246.515645 
L 179.98068 247.576801 
L 191.175664 249.793252 
L 202.370649 248.895221 
L 213.565633 249.905004 
L 224.760617 249.86294 
L 235.955601 250.351066 
L 247.150586 250.134338 
L 258.34557 249.33251 
L 269.540554 247.158506 
L 280.735539 246.738469 
L 291.930523 245.768816 
L 303.125507 244.861817 
L 314.320492 243.96646 
L 325.515476 243.357119 
L 336.71046 243.310926 
L 347.905445 242.82952 
L 359.100429 243.069902 
L 370.295413 241.916863 
L 381.490398 241.385994 
" clip-path="url(#pe765818988)" style="fill: none; stroke: #404588; stroke-width: 1.5; stroke-linecap: square"/>
   </g>
   <g id="line2d_22">
    <path d="M 56.835852 236.074106 
L 68.030837 236.533902 
L 79.225821 235.73914 
L 90.420805 234.891436 
L 101.61579 236.541882 
L 112.810774 236.609992 
L 124.005758 236.077802 
L 135.200743 236.706786 
L 146.395727 237.151496 
L 157.590711 239.412218 
L 168.785696 238.753314 
L 179.98068 240.193841 
L 191.175664 241.590421 
L 202.370649 241.864568 
L 213.565633 243.006224 
L 224.760617 244.684975 
L 235.955601 242.446145 
L 247.150586 242.529461 
L 258.34557 241.640759 
L 269.540554 240.032729 
L 280.735539 239.340316 
L 291.930523 237.960118 
L 303.125507 238.915851 
L 314.320492 237.51857 
L 325.515476 235.430246 
L 336.71046 234.501697 
L 347.905445 234.741651 
L 359.100429 234.340847 
L 370.295413 233.402714 
L 381.490398 232.698129 
" clip-path="url(#pe765818988)" style="fill: none; stroke: #3c4f8a; stroke-width: 1.5; stroke-linecap: square"/>
   </g>
   <g id="line2d_23">
    <path d="M 56.835852 227.568983 
L 68.030837 228.523397 
L 79.225821 227.826619 
L 90.420805 227.831584 
L 101.61579 227.699792 
L 112.810774 230.013052 
L 124.005758 229.356672 
L 135.200743 229.80813 
L 146.395727 229.01876 
L 157.590711 230.266151 
L 168.785696 232.01054 
L 179.98068 233.277931 
L 191.175664 234.452274 
L 202.370649 235.307409 
L 213.565633 235.81804 
L 224.760617 236.989625 
L 235.955601 235.279971 
L 247.150586 235.289156 
L 258.34557 234.577559 
L 269.540554 232.979195 
L 280.735539 231.726593 
L 291.930523 230.55297 
L 303.125507 230.468012 
L 314.320492 227.875427 
L 325.515476 227.808984 
L 336.71046 227.733314 
L 347.905445 226.067042 
L 359.100429 225.663696 
L 370.295413 225.347081 
L 381.490398 224.907786 
" clip-path="url(#pe765818988)" style="fill: none; stroke: #38598c; stroke-width: 1.5; stroke-linecap: square"/>
   </g>
   <g id="line2d_24">
    <path d="M 56.835852 220.193638 
L 68.030837 220.012231 
L 79.225821 220.21822 
L 90.420805 220.710989 
L 101.61579 220.378458 
L 112.810774 220.36307 
L 124.005758 221.668732 
L 135.200743 221.754236 
L 146.395727 222.616029 
L 157.590711 222.497675 
L 168.785696 223.852064 
L 179.98068 225.059153 
L 191.175664 226.492935 
L 202.370649 227.344733 
L 213.565633 228.70572 
L 224.760617 228.580673 
L 235.955601 228.617306 
L 247.150586 226.416687 
L 258.34557 227.275577 
L 269.540554 224.575586 
L 280.735539 224.092705 
L 291.930523 222.41235 
L 303.125507 222.174828 
L 314.320492 221.034218 
L 325.515476 219.810552 
L 336.71046 219.009659 
L 347.905445 218.407014 
L 359.100429 218.234429 
L 370.295413 217.00884 
L 381.490398 216.911674 
" clip-path="url(#pe765818988)" style="fill: none; stroke: #33628d; stroke-width: 1.5; stroke-linecap: square"/>
   </g>
   <g id="line2d_25">
    <path d="M 56.835852 212.821711 
L 68.030837 211.802664 
L 79.225821 212.400395 
L 90.420805 210.843611 
L 101.61579 211.831721 
L 112.810774 212.557719 
L 124.005758 213.388414 
L 135.200743 214.411501 
L 146.395727 215.123987 
L 157.590711 215.404288 
L 168.785696 216.726576 
L 179.98068 217.388634 
L 191.175664 218.998758 
L 202.370649 219.934495 
L 213.565633 221.096574 
L 224.760617 221.470243 
L 235.955601 220.622899 
L 247.150586 219.847078 
L 258.34557 219.508795 
L 269.540554 217.550308 
L 280.735539 216.659362 
L 291.930523 216.065458 
L 303.125507 215.217274 
L 314.320492 212.044572 
L 325.515476 212.014393 
L 336.71046 212.518277 
L 347.905445 210.205807 
L 359.100429 210.273891 
L 370.295413 209.730422 
L 381.490398 208.522736 
" clip-path="url(#pe765818988)" style="fill: none; stroke: #2f6b8e; stroke-width: 1.5; stroke-linecap: square"/>
   </g>
   <g id="line2d_26">
    <path d="M 56.835852 204.679802 
L 68.030837 204.831043 
L 79.225821 204.12605 
L 90.420805 205.314441 
L 101.61579 204.473705 
L 112.810774 205.735665 
L 124.005758 205.81062 
L 135.200743 206.756053 
L 146.395727 207.067137 
L 157.590711 208.122468 
L 168.785696 208.81293 
L 179.98068 210.222789 
L 191.175664 210.832029 
L 202.370649 212.799573 
L 213.565633 214.300088 
L 224.760617 212.977709 
L 235.955601 213.495031 
L 247.150586 212.709282 
L 258.34557 210.794362 
L 269.540554 209.660277 
L 280.735539 208.594673 
L 291.930523 208.082954 
L 303.125507 206.223682 
L 314.320492 205.503582 
L 325.515476 203.629081 
L 336.71046 202.851255 
L 347.905445 202.429331 
L 359.100429 201.740924 
L 370.295413 200.854917 
L 381.490398 200.239822 
" clip-path="url(#pe765818988)" style="fill: none; stroke: #2c738e; stroke-width: 1.5; stroke-linecap: square"/>
   </g>
   <g id="line2d_27">
    <path d="M 56.835852 196.310239 
L 68.030837 195.738333 
L 79.225821 196.446591 
L 90.420805 197.436657 
L 101.61579 196.864816 
L 112.810774 197.689903 
L 124.005758 199.110253 
L 135.200743 199.210714 
L 146.395727 199.292515 
L 157.590711 200.029169 
L 168.785696 200.527032 
L 179.98068 202.580278 
L 191.175664 205.088987 
L 202.370649 205.832376 
L 213.565633 205.766011 
L 224.760617 207.301422 
L 235.955601 208.02095 
L 247.150586 205.026296 
L 258.34557 203.578756 
L 269.540554 203.019772 
L 280.735539 202.283347 
L 291.930523 199.820945 
L 303.125507 197.94823 
L 314.320492 195.40214 
L 325.515476 196.204778 
L 336.71046 194.254273 
L 347.905445 194.283768 
L 359.100429 194.796519 
L 370.295413 192.157628 
L 381.490398 191.919335 
" clip-path="url(#pe765818988)" style="fill: none; stroke: #297b8e; stroke-width: 1.5; stroke-linecap: square"/>
   </g>
   <g id="line2d_28">
    <path d="M 56.835852 187.534842 
L 68.030837 186.700022 
L 79.225821 188.963616 
L 90.420805 188.200137 
L 101.61579 190.47215 
L 112.810774 189.083685 
L 124.005758 189.620897 
L 135.200743 189.983191 
L 146.395727 191.417664 
L 157.590711 190.986621 
L 168.785696 194.085728 
L 179.98068 194.889672 
L 191.175664 196.322431 
L 202.370649 197.852434 
L 213.565633 199.042969 
L 224.760617 198.823872 
L 235.955601 200.354758 
L 247.150586 198.793166 
L 258.34557 197.142816 
L 269.540554 195.47455 
L 280.735539 193.797864 
L 291.930523 191.712848 
L 303.125507 190.602761 
L 314.320492 189.251132 
L 325.515476 188.409589 
L 336.71046 187.796308 
L 347.905445 186.802334 
L 359.100429 186.50679 
L 370.295413 184.670708 
L 381.490398 183.631915 
" clip-path="url(#pe765818988)" style="fill: none; stroke: #25838e; stroke-width: 1.5; stroke-linecap: square"/>
   </g>
   <g id="line2d_29">
    <path d="M 56.835852 180.85693 
L 68.030837 180.257576 
L 79.225821 181.113369 
L 90.420805 180.516025 
L 101.61579 180.196811 
L 112.810774 181.91777 
L 124.005758 182.501807 
L 135.200743 182.907237 
L 146.395727 183.181761 
L 157.590711 185.115183 
L 168.785696 185.915859 
L 179.98068 187.047157 
L 191.175664 189.937318 
L 202.370649 190.378231 
L 213.565633 191.565735 
L 224.760617 192.653608 
L 235.955601 192.662908 
L 247.150586 191.336811 
L 258.34557 188.816921 
L 269.540554 187.930746 
L 280.735539 185.594879 
L 291.930523 184.703919 
L 303.125507 183.813856 
L 314.320492 181.629127 
L 325.515476 180.567224 
L 336.71046 179.702181 
L 347.905445 178.964793 
L 359.100429 178.19422 
L 370.295413 175.469092 
L 381.490398 175.366859 
" clip-path="url(#pe765818988)" style="fill: none; stroke: #228c8d; stroke-width: 1.5; stroke-linecap: square"/>
   </g>
   <g id="line2d_30">
    <path d="M 56.835852 171.807269 
L 68.030837 171.808816 
L 79.225821 173.131435 
L 90.420805 172.918749 
L 101.61579 173.104475 
L 112.810774 173.796216 
L 124.005758 173.734558 
L 135.200743 174.899978 
L 146.395727 175.987642 
L 157.590711 176.507364 
L 168.785696 178.790868 
L 179.98068 178.598876 
L 191.175664 181.366156 
L 202.370649 182.779728 
L 213.565633 184.570463 
L 224.760617 184.311988 
L 235.955601 184.653754 
L 247.150586 182.584664 
L 258.34557 182.125485 
L 269.540554 180.187675 
L 280.735539 178.096993 
L 291.930523 177.177182 
L 303.125507 174.760597 
L 314.320492 174.177725 
L 325.515476 173.00097 
L 336.71046 171.58146 
L 347.905445 170.754248 
L 359.100429 169.667784 
L 370.295413 169.039815 
L 381.490398 167.993752 
" clip-path="url(#pe765818988)" style="fill: none; stroke: #1f948c; stroke-width: 1.5; stroke-linecap: square"/>
   </g>
   <g id="line2d_31">
    <path d="M 56.835852 164.70975 
L 68.030837 164.395971 
L 79.225821 165.254278 
L 90.420805 165.414807 
L 101.61579 164.540649 
L 112.810774 165.953762 
L 124.005758 165.966207 
L 135.200743 166.359531 
L 146.395727 167.757012 
L 157.590711 169.712721 
L 168.785696 170.364038 
L 179.98068 172.576566 
L 191.175664 174.361943 
L 202.370649 176.529993 
L 213.565633 176.30604 
L 224.760617 177.475573 
L 235.955601 176.88811 
L 247.150586 175.756707 
L 258.34557 175.175202 
L 269.540554 173.28989 
L 280.735539 170.810285 
L 291.930523 169.645056 
L 303.125507 168.261459 
L 314.320492 166.561386 
L 325.515476 164.019912 
L 336.71046 163.764144 
L 347.905445 162.667618 
L 359.100429 161.523348 
L 370.295413 160.886205 
L 381.490398 160.200363 
" clip-path="url(#pe765818988)" style="fill: none; stroke: #1e9d89; stroke-width: 1.5; stroke-linecap: square"/>
   </g>
   <g id="line2d_32">
    <path d="M 56.835852 157.227184 
L 68.030837 155.79049 
L 79.225821 156.735194 
L 90.420805 156.896492 
L 101.61579 157.390339 
L 112.810774 159.00207 
L 124.005758 157.904079 
L 135.200743 159.165856 
L 146.395727 160.343752 
L 157.590711 161.951137 
L 168.785696 163.345 
L 179.98068 165.726988 
L 191.175664 166.958083 
L 202.370649 168.25135 
L 213.565633 170.091554 
L 224.760617 169.684703 
L 235.955601 169.429194 
L 247.150586 168.980332 
L 258.34557 167.150957 
L 269.540554 163.900959 
L 280.735539 163.521651 
L 291.930523 160.223972 
L 303.125507 159.603661 
L 314.320492 158.456211 
L 325.515476 156.052443 
L 336.71046 155.292793 
L 347.905445 154.59153 
L 359.100429 153.628716 
L 370.295413 152.059884 
L 381.490398 150.429375 
" clip-path="url(#pe765818988)" style="fill: none; stroke: #21a585; stroke-width: 1.5; stroke-linecap: square"/>
   </g>
   <g id="line2d_33">
    <path d="M 56.835852 149.181169 
L 68.030837 148.443678 
L 79.225821 149.144767 
L 90.420805 150.10636 
L 101.61579 150.726081 
L 112.810774 150.048722 
L 124.005758 150.334273 
L 135.200743 150.725646 
L 146.395727 152.525997 
L 157.590711 154.174227 
L 168.785696 155.225506 
L 179.98068 157.457622 
L 191.175664 160.09774 
L 202.370649 159.615478 
L 213.565633 162.973983 
L 224.760617 163.014675 
L 235.955601 162.904159 
L 247.150586 160.787568 
L 258.34557 160.576308 
L 269.540554 157.407238 
L 280.735539 157.006699 
L 291.930523 153.277213 
L 303.125507 152.496638 
L 314.320492 150.182408 
L 325.515476 149.818706 
L 336.71046 147.446693 
L 347.905445 146.181858 
L 359.100429 146.045554 
L 370.295413 144.493044 
L 381.490398 144.259537 
" clip-path="url(#pe765818988)" style="fill: none; stroke: #26ad81; stroke-width: 1.5; stroke-linecap: square"/>
   </g>
   <g id="line2d_34">
    <path d="M 56.835852 141.939964 
L 68.030837 140.995233 
L 79.225821 141.173375 
L 90.420805 141.872767 
L 101.61579 141.626194 
L 112.810774 142.726133 
L 124.005758 142.195181 
L 135.200743 143.653015 
L 146.395727 144.389382 
L 157.590711 146.025104 
L 168.785696 148.111148 
L 179.98068 150.58999 
L 191.175664 152.136599 
L 202.370649 153.27975 
L 213.565633 153.866365 
L 224.760617 155.640762 
L 235.955601 155.84486 
L 247.150586 154.25951 
L 258.34557 151.534965 
L 269.540554 149.871571 
L 280.735539 148.100196 
L 291.930523 145.990531 
L 303.125507 144.932576 
L 314.320492 142.557255 
L 325.515476 141.337276 
L 336.71046 140.399178 
L 347.905445 139.050878 
L 359.100429 137.164076 
L 370.295413 136.405105 
L 381.490398 135.589237 
" clip-path="url(#pe765818988)" style="fill: none; stroke: #31b57b; stroke-width: 1.5; stroke-linecap: square"/>
   </g>
   <g id="line2d_35">
    <path d="M 56.835852 132.640804 
L 68.030837 132.461363 
L 79.225821 133.575066 
L 90.420805 132.742235 
L 101.61579 133.405397 
L 112.810774 134.745582 
L 124.005758 135.717231 
L 135.200743 134.598845 
L 146.395727 137.759621 
L 157.590711 138.381015 
L 168.785696 141.565343 
L 179.98068 143.453604 
L 191.175664 144.272413 
L 202.370649 147.063691 
L 213.565633 147.719756 
L 224.760617 147.935907 
L 235.955601 148.14081 
L 247.150586 146.529713 
L 258.34557 144.47768 
L 269.540554 143.312047 
L 280.735539 140.306054 
L 291.930523 138.839837 
L 303.125507 135.967248 
L 314.320492 134.615049 
L 325.515476 132.89153 
L 336.71046 131.442264 
L 347.905445 130.899207 
L 359.100429 129.808509 
L 370.295413 128.003416 
L 381.490398 126.567534 
" clip-path="url(#pe765818988)" style="fill: none; stroke: #3fbc73; stroke-width: 1.5; stroke-linecap: square"/>
   </g>
   <g id="line2d_36">
    <path d="M 56.835852 124.787869 
L 68.030837 125.762225 
L 79.225821 126.698705 
L 90.420805 125.869304 
L 101.61579 126.586847 
L 112.810774 126.476673 
L 124.005758 127.883093 
L 135.200743 127.808525 
L 146.395727 129.917375 
L 157.590711 131.829415 
L 168.785696 133.367206 
L 179.98068 135.277102 
L 191.175664 136.688897 
L 202.370649 139.931591 
L 213.565633 140.085974 
L 224.760617 141.284057 
L 235.955601 140.595092 
L 247.150586 139.298102 
L 258.34557 137.036378 
L 269.540554 134.968384 
L 280.735539 131.979261 
L 291.930523 130.381136 
L 303.125507 128.523687 
L 314.320492 125.646472 
L 325.515476 124.346937 
L 336.71046 123.996123 
L 347.905445 122.119337 
L 359.100429 121.20847 
L 370.295413 119.467567 
L 381.490398 119.235914 
" clip-path="url(#pe765818988)" style="fill: none; stroke: #50c46a; stroke-width: 1.5; stroke-linecap: square"/>
   </g>
   <g id="line2d_37">
    <path d="M 56.835852 116.900101 
L 68.030837 117.240216 
L 79.225821 117.631985 
L 90.420805 117.749677 
L 101.61579 119.341203 
L 112.810774 118.392164 
L 124.005758 119.366738 
L 135.200743 120.851492 
L 146.395727 122.422642 
L 157.590711 123.422057 
L 168.785696 126.598012 
L 179.98068 127.688921 
L 191.175664 129.2513 
L 202.370649 133.108902 
L 213.565633 134.209895 
L 224.760617 133.516153 
L 235.955601 134.24988 
L 247.150586 132.960102 
L 258.34557 130.865984 
L 269.540554 128.030215 
L 280.735539 126.08895 
L 291.930523 123.118096 
L 303.125507 120.93254 
L 314.320492 118.811655 
L 325.515476 117.448571 
L 336.71046 115.795603 
L 347.905445 114.493272 
L 359.100429 114.397428 
L 370.295413 111.404031 
L 381.490398 111.116069 
" clip-path="url(#pe765818988)" style="fill: none; stroke: #63cb5f; stroke-width: 1.5; stroke-linecap: square"/>
   </g>
   <g id="line2d_38">
    <path d="M 56.835852 110.170534 
L 68.030837 108.701645 
L 79.225821 109.668289 
L 90.420805 109.579244 
L 101.61579 111.028292 
L 112.810774 110.773682 
L 124.005758 112.010761 
L 135.200743 112.879258 
L 146.395727 113.725598 
L 157.590711 115.379416 
L 168.785696 118.414572 
L 179.98068 120.473008 
L 191.175664 122.695002 
L 202.370649 125.097746 
L 213.565633 125.783383 
L 224.760617 127.227893 
L 235.955601 126.41605 
L 247.150586 124.285051 
L 258.34557 123.793186 
L 269.540554 121.200645 
L 280.735539 118.040153 
L 291.930523 116.472416 
L 303.125507 112.210331 
L 314.320492 112.502945 
L 325.515476 109.743075 
L 336.71046 108.188702 
L 347.905445 106.459054 
L 359.100429 105.612332 
L 370.295413 104.696822 
L 381.490398 103.270923 
" clip-path="url(#pe765818988)" style="fill: none; stroke: #77d153; stroke-width: 1.5; stroke-linecap: square"/>
   </g>
   <g id="line2d_39">
    <path d="M 56.835852 101.686188 
L 68.030837 101.835776 
L 79.225821 102.835865 
L 90.420805 103.213839 
L 101.61579 102.350752 
L 112.810774 104.258629 
L 124.005758 104.144178 
L 135.200743 105.130789 
L 146.395727 105.928736 
L 157.590711 109.20316 
L 168.785696 109.771254 
L 179.98068 113.568745 
L 191.175664 114.456044 
L 202.370649 116.935561 
L 213.565633 119.301257 
L 224.760617 119.912165 
L 235.955601 118.97992 
L 247.150586 117.136349 
L 258.34557 114.568293 
L 269.540554 112.339102 
L 280.735539 110.227908 
L 291.930523 108.81126 
L 303.125507 105.844888 
L 314.320492 103.317422 
L 325.515476 102.620669 
L 336.71046 99.859298 
L 347.905445 98.307345 
L 359.100429 97.608804 
L 370.295413 96.807287 
L 381.490398 95.602396 
" clip-path="url(#pe765818988)" style="fill: none; stroke: #8bd646; stroke-width: 1.5; stroke-linecap: square"/>
   </g>
   <g id="line2d_40">
    <path d="M 56.835852 93.499603 
L 68.030837 94.313728 
L 79.225821 93.622781 
L 90.420805 94.434345 
L 101.61579 94.373646 
L 112.810774 95.496482 
L 124.005758 95.5566 
L 135.200743 96.821807 
L 146.395727 98.969144 
L 157.590711 101.049753 
L 168.785696 102.703321 
L 179.98068 106.101857 
L 191.175664 107.759934 
L 202.370649 109.753524 
L 213.565633 111.241315 
L 224.760617 113.209826 
L 235.955601 111.491287 
L 247.150586 110.347631 
L 258.34557 108.57923 
L 269.540554 105.694636 
L 280.735539 102.142518 
L 291.930523 100.311299 
L 303.125507 98.03815 
L 314.320492 95.619543 
L 325.515476 94.224102 
L 336.71046 92.031164 
L 347.905445 91.195886 
L 359.100429 89.517526 
L 370.295413 88.822667 
L 381.490398 87.046124 
" clip-path="url(#pe765818988)" style="fill: none; stroke: #a2da37; stroke-width: 1.5; stroke-linecap: square"/>
   </g>
   <g id="line2d_41">
    <path d="M 56.835852 86.808008 
L 68.030837 86.271504 
L 79.225821 86.248088 
L 90.420805 86.311198 
L 101.61579 88.124723 
L 112.810774 87.401497 
L 124.005758 88.515439 
L 135.200743 89.35753 
L 146.395727 90.255756 
L 157.590711 93.529971 
L 168.785696 95.504673 
L 179.98068 98.098874 
L 191.175664 101.037161 
L 202.370649 102.532108 
L 213.565633 103.711151 
L 224.760617 105.83166 
L 235.955601 104.422278 
L 247.150586 103.468602 
L 258.34557 99.800876 
L 269.540554 96.488805 
L 280.735539 95.394519 
L 291.930523 92.777656 
L 303.125507 90.216028 
L 314.320492 89.207724 
L 325.515476 86.144445 
L 336.71046 84.726297 
L 347.905445 83.111177 
L 359.100429 81.450943 
L 370.295413 79.931305 
L 381.490398 78.753941 
" clip-path="url(#pe765818988)" style="fill: none; stroke: #bade28; stroke-width: 1.5; stroke-linecap: square"/>
   </g>
   <g id="line2d_42">
    <path d="M 56.835852 78.052578 
L 68.030837 78.400882 
L 79.225821 79.336018 
L 90.420805 79.092092 
L 101.61579 79.008143 
L 112.810774 80.703152 
L 124.005758 81.641484 
L 135.200743 82.4143 
L 146.395727 84.612294 
L 157.590711 85.65198 
L 168.785696 88.606482 
L 179.98068 89.657977 
L 191.175664 93.921364 
L 202.370649 95.611185 
L 213.565633 97.381165 
L 224.760617 97.581521 
L 235.955601 97.079365 
L 247.150586 96.515575 
L 258.34557 93.50008 
L 269.540554 90.456338 
L 280.735539 87.828761 
L 291.930523 85.781258 
L 303.125507 83.825871 
L 314.320492 81.230575 
L 325.515476 78.700336 
L 336.71046 76.307666 
L 347.905445 75.175458 
L 359.100429 73.616915 
L 370.295413 72.969248 
L 381.490398 72.546807 
" clip-path="url(#pe765818988)" style="fill: none; stroke: #d2e21b; stroke-width: 1.5; stroke-linecap: square"/>
   </g>
   <g id="line2d_43">
    <path d="M 56.835852 70.445412 
L 68.030837 71.762835 
L 79.225821 71.38266 
L 90.420805 71.935846 
L 101.61579 72.492773 
L 112.810774 71.63252 
L 124.005758 73.616441 
L 135.200743 74.778865 
L 146.395727 77.288555 
L 157.590711 77.541297 
L 168.785696 79.841089 
L 179.98068 81.808714 
L 191.175664 85.743695 
L 202.370649 88.228198 
L 213.565633 89.597832 
L 224.760617 90.542116 
L 235.955601 91.137398 
L 247.150586 87.004395 
L 258.34557 86.127985 
L 269.540554 82.723422 
L 280.735539 78.886062 
L 291.930523 77.028543 
L 303.125507 75.054919 
L 314.320492 72.65046 
L 325.515476 70.599036 
L 336.71046 68.451785 
L 347.905445 66.878474 
L 359.100429 64.939073 
L 370.295413 64.763756 
L 381.490398 62.976057 
" clip-path="url(#pe765818988)" style="fill: none; stroke: #eae51a; stroke-width: 1.5; stroke-linecap: square"/>
   </g>
   <g id="line2d_44">
    <path d="M 56.835852 62.056618 
L 68.030837 63.516295 
L 79.225821 64.25336 
L 90.420805 63.568938 
L 101.61579 64.710419 
L 112.810774 65.2553 
L 124.005758 67.374725 
L 135.200743 66.403607 
L 146.395727 69.229635 
L 157.590711 69.968636 
L 168.785696 73.419223 
L 179.98068 74.605878 
L 191.175664 78.899651 
L 202.370649 79.7585 
L 213.565633 82.712152 
L 224.760617 84.214423 
L 235.955601 82.396121 
L 247.150586 81.265874 
L 258.34557 77.640819 
L 269.540554 76.25721 
L 280.735539 73.216923 
L 291.930523 71.367566 
L 303.125507 69.620025 
L 314.320492 64.396605 
L 325.515476 63.757774 
L 336.71046 61.331007 
L 347.905445 57.801284 
L 359.100429 58.150738 
L 370.295413 57.01404 
L 381.490398 53.856 
" clip-path="url(#pe765818988)" style="fill: none; stroke: #fde725; stroke-width: 1.5; stroke-linecap: square"/>
   </g>
   <g id="patch_3">
    <path d="M 40.603125 307.872 
L 40.603125 41.76 
" style="fill: none; stroke: #000000; stroke-width: 0.8; stroke-linejoin: miter; stroke-linecap: square"/>
   </g>
   <g id="patch_4">
    <path d="M 397.723125 307.872 
L 397.723125 41.76 
" style="fill: none; stroke: #000000; stroke-width: 0.8; stroke-linejoin: miter; stroke-linecap: square"/>
   </g>
   <g id="patch_5">
    <path d="M 40.603125 307.872 
L 397.723125 307.872 
" style="fill: none; stroke: #000000; stroke-width: 0.8; stroke-linejoin: miter; stroke-linecap: square"/>
   </g>
   <g id="patch_6">
    <path d="M 40.603125 41.76 
L 397.723125 41.76 
" style="fill: none; stroke: #000000; stroke-width: 0.8; stroke-linejoin: miter; stroke-linecap: square"/>
   </g>
   <g id="legend_1">
    <g id="patch_7">
     <path d="M 417.579125 307.872 
L 631.4635 307.872 
Q 633.4635 307.872 633.4635 305.872 
L 633.4635 145.412625 
Q 633.4635 143.412625 631.4635 143.412625 
L 417.579125 143.412625 
Q 415.579125 143.412625 415.579125 145.412625 
L 415.579125 305.872 
Q 415.579125 307.872 417.579125 307.872 
z
" style="fill: #ffffff; opacity: 0.8; stroke: #cccccc; stroke-linejoin: miter"/>
    </g>
    <g id="text_18">
     <!-- Readout pulse amplitude () -->
     <g transform="translate(456.420531 155.011063) scale(0.1 -0.1)">
      <defs>
       <path id="DejaVuSans-52" d="M 2841 2188 
Q 3044 2119 3236 1894 
Q 3428 1669 3622 1275 
L 4263 0 
L 3584 0 
L 2988 1197 
Q 2756 1666 2539 1819 
Q 2322 1972 1947 1972 
L 1259 1972 
L 1259 0 
L 628 0 
L 628 4666 
L 2053 4666 
Q 2853 4666 3247 4331 
Q 3641 3997 3641 3322 
Q 3641 2881 3436 2590 
Q 3231 2300 2841 2188 
z
M 1259 4147 
L 1259 2491 
L 2053 2491 
Q 2509 2491 2742 2702 
Q 2975 2913 2975 3322 
Q 2975 3731 2742 3939 
Q 2509 4147 2053 4147 
L 1259 4147 
z
" transform="scale(0.015625)"/>
       <path id="DejaVuSans-6f" d="M 1959 3097 
Q 1497 3097 1228 2736 
Q 959 2375 959 1747 
Q 959 1119 1226 758 
Q 1494 397 1959 397 
Q 2419 397 2687 759 
Q 2956 1122 2956 1747 
Q 2956 2369 2687 2733 
Q 2419 3097 1959 3097 
z
M 1959 3584 
Q 2709 3584 3137 3096 
Q 3566 2609 3566 1747 
Q 3566 888 3137 398 
Q 2709 -91 1959 -91 
Q 1206 -91 779 398 
Q 353 888 353 1747 
Q 353 2609 779 3096 
Q 1206 3584 1959 3584 
z
" transform="scale(0.015625)"/>
       <path id="DejaVuSans-70" d="M 1159 525 
L 1159 -1331 
L 581 -1331 
L 581 3500 
L 1159 3500 
L 1159 2969 
Q 1341 3281 1617 3432 
Q 1894 3584 2278 3584 
Q 2916 3584 3314 3078 
Q 3713 2572 3713 1747 
Q 3713 922 3314 415 
Q 2916 -91 2278 -91 
Q 1894 -91 1617 61 
Q 1341 213 1159 525 
z
M 3116 1747 
Q 3116 2381 2855 2742 
Q 2594 3103 2138 3103 
Q 1681 3103 1420 2742 
Q 1159 2381 1159 1747 
Q 1159 1113 1420 752 
Q 1681 391 2138 391 
Q 2594 391 2855 752 
Q 3116 1113 3116 1747 
z
" transform="scale(0.015625)"/>
       <path id="DejaVuSans-6c" d="M 603 4863 
L 1178 4863 
L 1178 0 
L 603 0 
L 603 4863 
z
" transform="scale(0.015625)"/>
       <path id="DejaVuSans-73" d="M 2834 3397 
L 2834 2853 
Q 2591 2978 2328 3040 
Q 2066 3103 1784 3103 
Q 1356 3103 1142 2972 
Q 928 2841 928 2578 
Q 928 2378 1081 2264 
Q 1234 2150 1697 2047 
L 1894 2003 
Q 2506 1872 2764 1633 
Q 3022 1394 3022 966 
Q 3022 478 2636 193 
Q 2250 -91 1575 -91 
Q 1294 -91 989 -36 
Q 684 19 347 128 
L 347 722 
Q 666 556 975 473 
Q 1284 391 1588 391 
Q 1994 391 2212 530 
Q 2431 669 2431 922 
Q 2431 1156 2273 1281 
Q 2116 1406 1581 1522 
L 1381 1569 
Q 847 1681 609 1914 
Q 372 2147 372 2553 
Q 372 3047 722 3315 
Q 1072 3584 1716 3584 
Q 2034 3584 2315 3537 
Q 2597 3491 2834 3397 
z
" transform="scale(0.015625)"/>
       <path id="DejaVuSans-28" d="M 1984 4856 
Q 1566 4138 1362 3434 
Q 1159 2731 1159 2009 
Q 1159 1288 1364 580 
Q 1569 -128 1984 -844 
L 1484 -844 
Q 1016 -109 783 600 
Q 550 1309 550 2009 
Q 550 2706 781 3412 
Q 1013 4119 1484 4856 
L 1984 4856 
z
" transform="scale(0.015625)"/>
       <path id="DejaVuSans-29" d="M 513 4856 
L 1013 4856 
Q 1481 4119 1714 3412 
Q 1947 2706 1947 2009 
Q 1947 1309 1714 600 
Q 1481 -109 1013 -844 
L 513 -844 
Q 928 -128 1133 580 
Q 1338 1288 1338 2009 
Q 1338 2731 1133 3434 
Q 928 4138 513 4856 
z
" transform="scale(0.015625)"/>
      </defs>
      <use xlink:href="#DejaVuSans-52"/>
      <use xlink:href="#DejaVuSans-65" x="64.982422"/>
      <use xlink:href="#DejaVuSans-61" x="126.505859"/>
      <use xlink:href="#DejaVuSans-64" x="187.785156"/>
      <use xlink:href="#DejaVuSans-6f" x="251.261719"/>
      <use xlink:href="#DejaVuSans-75" x="312.443359"/>
      <use xlink:href="#DejaVuSans-74" x="375.822266"/>
      <use xlink:href="#DejaVuSans-20" x="415.03125"/>
      <use xlink:href="#DejaVuSans-70" x="446.818359"/>
      <use xlink:href="#DejaVuSans-75" x="510.294922"/>
      <use xlink:href="#DejaVuSans-6c" x="573.673828"/>
      <use xlink:href="#DejaVuSans-73" x="601.457031"/>
      <use xlink:href="#DejaVuSans-65" x="653.556641"/>
      <use xlink:href="#DejaVuSans-20" x="715.080078"/>
      <use xlink:href="#DejaVuSans-61" x="746.867188"/>
      <use xlink:href="#DejaVuSans-6d" x="808.146484"/>
      <use xlink:href="#DejaVuSans-70" x="905.558594"/>
      <use xlink:href="#DejaVuSans-6c" x="969.035156"/>
      <use xlink:href="#DejaVuSans-69" x="996.818359"/>
      <use xlink:href="#DejaVuSans-74" x="1024.601562"/>
      <use xlink:href="#DejaVuSans-75" x="1063.810547"/>
      <use xlink:href="#DejaVuSans-64" x="1127.189453"/>
      <use xlink:href="#DejaVuSans-65" x="1190.666016"/>
      <use xlink:href="#DejaVuSans-20" x="1252.189453"/>
      <use xlink:href="#DejaVuSans-28" x="1283.976562"/>
      <use xlink:href="#DejaVuSans-29" x="1322.990234"/>
     </g>
    </g>
    <g id="line2d_45">
     <path d="M 419.579125 166.189188 
L 429.579125 166.189188 
L 439.579125 166.189188 
" style="fill: none; stroke: #440154; stroke-width: 1.5; stroke-linecap: square"/>
    </g>
    <g id="text_19">
     <!-- 0.1 -->
     <g transform="translate(447.579125 169.689188) scale(0.1 -0.1)">
      <defs>
       <path id="DejaVuSans-2e" d="M 684 794 
L 1344 794 
L 1344 0 
L 684 0 
L 684 794 
z
" transform="scale(0.015625)"/>
      </defs>
      <use xlink:href="#DejaVuSans-30"/>
      <use xlink:href="#DejaVuSans-2e" x="63.623047"/>
      <use xlink:href="#DejaVuSans-31" x="95.410156"/>
     </g>
    </g>
    <g id="line2d_46">
     <path d="M 419.579125 180.867313 
L 429.579125 180.867313 
L 439.579125 180.867313 
" style="fill: none; stroke: #470d60; stroke-width: 1.5; stroke-linecap: square"/>
    </g>
    <g id="text_20">
     <!-- 0.121 -->
     <g transform="translate(447.579125 184.367313) scale(0.1 -0.1)">
      <use xlink:href="#DejaVuSans-30"/>
      <use xlink:href="#DejaVuSans-2e" x="63.623047"/>
      <use xlink:href="#DejaVuSans-31" x="95.410156"/>
      <use xlink:href="#DejaVuSans-32" x="159.033203"/>
      <use xlink:href="#DejaVuSans-31" x="222.65625"/>
     </g>
    </g>
    <g id="line2d_47">
     <path d="M 419.579125 195.545438 
L 429.579125 195.545438 
L 439.579125 195.545438 
" style="fill: none; stroke: #481a6c; stroke-width: 1.5; stroke-linecap: square"/>
    </g>
    <g id="text_21">
     <!-- 0.141 -->
     <g transform="translate(447.579125 199.045438) scale(0.1 -0.1)">
      <use xlink:href="#DejaVuSans-30"/>
      <use xlink:href="#DejaVuSans-2e" x="63.623047"/>
      <use xlink:href="#DejaVuSans-31" x="95.410156"/>
      <use xlink:href="#DejaVuSans-34" x="159.033203"/>
      <use xlink:href="#DejaVuSans-31" x="222.65625"/>
     </g>
    </g>
    <g id="line2d_48">
     <path d="M 419.579125 210.223563 
L 429.579125 210.223563 
L 439.579125 210.223563 
" style="fill: none; stroke: #482576; stroke-width: 1.5; stroke-linecap: square"/>
    </g>
    <g id="text_22">
     <!-- 0.162 -->
     <g transform="translate(447.579125 213.723563) scale(0.1 -0.1)">
      <use xlink:href="#DejaVuSans-30"/>
      <use xlink:href="#DejaVuSans-2e" x="63.623047"/>
      <use xlink:href="#DejaVuSans-31" x="95.410156"/>
      <use xlink:href="#DejaVuSans-36" x="159.033203"/>
      <use xlink:href="#DejaVuSans-32" x="222.65625"/>
     </g>
    </g>
    <g id="line2d_49">
     <path d="M 419.579125 224.901688 
L 429.579125 224.901688 
L 439.579125 224.901688 
" style="fill: none; stroke: #46307e; stroke-width: 1.5; stroke-linecap: square"/>
    </g>
    <g id="text_23">
     <!-- 0.183 -->
     <g transform="translate(447.579125 228.401688) scale(0.1 -0.1)">
      <defs>
       <path id="DejaVuSans-38" d="M 2034 2216 
Q 1584 2216 1326 1975 
Q 1069 1734 1069 1313 
Q 1069 891 1326 650 
Q 1584 409 2034 409 
Q 2484 409 2743 651 
Q 3003 894 3003 1313 
Q 3003 1734 2745 1975 
Q 2488 2216 2034 2216 
z
M 1403 2484 
Q 997 2584 770 2862 
Q 544 3141 544 3541 
Q 544 4100 942 4425 
Q 1341 4750 2034 4750 
Q 2731 4750 3128 4425 
Q 3525 4100 3525 3541 
Q 3525 3141 3298 2862 
Q 3072 2584 2669 2484 
Q 3125 2378 3379 2068 
Q 3634 1759 3634 1313 
Q 3634 634 3220 271 
Q 2806 -91 2034 -91 
Q 1263 -91 848 271 
Q 434 634 434 1313 
Q 434 1759 690 2068 
Q 947 2378 1403 2484 
z
M 1172 3481 
Q 1172 3119 1398 2916 
Q 1625 2713 2034 2713 
Q 2441 2713 2670 2916 
Q 2900 3119 2900 3481 
Q 2900 3844 2670 4047 
Q 2441 4250 2034 4250 
Q 1625 4250 1398 4047 
Q 1172 3844 1172 3481 
z
" transform="scale(0.015625)"/>
      </defs>
      <use xlink:href="#DejaVuSans-30"/>
      <use xlink:href="#DejaVuSans-2e" x="63.623047"/>
      <use xlink:href="#DejaVuSans-31" x="95.410156"/>
      <use xlink:href="#DejaVuSans-38" x="159.033203"/>
      <use xlink:href="#DejaVuSans-33" x="222.65625"/>
     </g>
    </g>
    <g id="line2d_50">
     <path d="M 419.579125 239.579813 
L 429.579125 239.579813 
L 439.579125 239.579813 
" style="fill: none; stroke: #443b84; stroke-width: 1.5; stroke-linecap: square"/>
    </g>
    <g id="text_24">
     <!-- 0.203 -->
     <g transform="translate(447.579125 243.079813) scale(0.1 -0.1)">
      <use xlink:href="#DejaVuSans-30"/>
      <use xlink:href="#DejaVuSans-2e" x="63.623047"/>
      <use xlink:href="#DejaVuSans-32" x="95.410156"/>
      <use xlink:href="#DejaVuSans-30" x="159.033203"/>
      <use xlink:href="#DejaVuSans-33" x="222.65625"/>
     </g>
    </g>
    <g id="line2d_51">
     <path d="M 419.579125 254.257938 
L 429.579125 254.257938 
L 439.579125 254.257938 
" style="fill: none; stroke: #404588; stroke-width: 1.5; stroke-linecap: square"/>
    </g>
    <g id="text_25">
     <!-- 0.224 -->
     <g transform="translate(447.579125 257.757938) scale(0.1 -0.1)">
      <use xlink:href="#DejaVuSans-30"/>
      <use xlink:href="#DejaVuSans-2e" x="63.623047"/>
      <use xlink:href="#DejaVuSans-32" x="95.410156"/>
      <use xlink:href="#DejaVuSans-32" x="159.033203"/>
      <use xlink:href="#DejaVuSans-34" x="222.65625"/>
     </g>
    </g>
    <g id="line2d_52">
     <path d="M 419.579125 268.936062 
L 429.579125 268.936062 
L 439.579125 268.936062 
" style="fill: none; stroke: #3c4f8a; stroke-width: 1.5; stroke-linecap: square"/>
    </g>
    <g id="text_26">
     <!-- 0.245 -->
     <g transform="translate(447.579125 272.436062) scale(0.1 -0.1)">
      <use xlink:href="#DejaVuSans-30"/>
      <use xlink:href="#DejaVuSans-2e" x="63.623047"/>
      <use xlink:href="#DejaVuSans-32" x="95.410156"/>
      <use xlink:href="#DejaVuSans-34" x="159.033203"/>
      <use xlink:href="#DejaVuSans-35" x="222.65625"/>
     </g>
    </g>
    <g id="line2d_53">
     <path d="M 419.579125 283.614188 
L 429.579125 283.614188 
L 439.579125 283.614188 
" style="fill: none; stroke: #38598c; stroke-width: 1.5; stroke-linecap: square"/>
    </g>
    <g id="text_27">
     <!-- 0.266 -->
     <g transform="translate(447.579125 287.114188) scale(0.1 -0.1)">
      <use xlink:href="#DejaVuSans-30"/>
      <use xlink:href="#DejaVuSans-2e" x="63.623047"/>
      <use xlink:href="#DejaVuSans-32" x="95.410156"/>
      <use xlink:href="#DejaVuSans-36" x="159.033203"/>
      <use xlink:href="#DejaVuSans-36" x="222.65625"/>
     </g>
    </g>
    <g id="line2d_54">
     <path d="M 419.579125 298.292312 
L 429.579125 298.292312 
L 439.579125 298.292312 
" style="fill: none; stroke: #33628d; stroke-width: 1.5; stroke-linecap: square"/>
    </g>
    <g id="text_28">
     <!-- 0.286 -->
     <g transform="translate(447.579125 301.792312) scale(0.1 -0.1)">
      <use xlink:href="#DejaVuSans-30"/>
      <use xlink:href="#DejaVuSans-2e" x="63.623047"/>
      <use xlink:href="#DejaVuSans-32" x="95.410156"/>
      <use xlink:href="#DejaVuSans-38" x="159.033203"/>
      <use xlink:href="#DejaVuSans-36" x="222.65625"/>
     </g>
    </g>
    <g id="line2d_55">
     <path d="M 496.20725 166.189188 
L 506.20725 166.189188 
L 516.20725 166.189188 
" style="fill: none; stroke: #2f6b8e; stroke-width: 1.5; stroke-linecap: square"/>
    </g>
    <g id="text_29">
     <!-- 0.307 -->
     <g transform="translate(524.20725 169.689188) scale(0.1 -0.1)">
      <use xlink:href="#DejaVuSans-30"/>
      <use xlink:href="#DejaVuSans-2e" x="63.623047"/>
      <use xlink:href="#DejaVuSans-33" x="95.410156"/>
      <use xlink:href="#DejaVuSans-30" x="159.033203"/>
      <use xlink:href="#DejaVuSans-37" x="222.65625"/>
     </g>
    </g>
    <g id="line2d_56">
     <path d="M 496.20725 180.867313 
L 506.20725 180.867313 
L 516.20725 180.867313 
" style="fill: none; stroke: #2c738e; stroke-width: 1.5; stroke-linecap: square"/>
    </g>
    <g id="text_30">
     <!-- 0.328 -->
     <g transform="translate(524.20725 184.367313) scale(0.1 -0.1)">
      <use xlink:href="#DejaVuSans-30"/>
      <use xlink:href="#DejaVuSans-2e" x="63.623047"/>
      <use xlink:href="#DejaVuSans-33" x="95.410156"/>
      <use xlink:href="#DejaVuSans-32" x="159.033203"/>
      <use xlink:href="#DejaVuSans-38" x="222.65625"/>
     </g>
    </g>
    <g id="line2d_57">
     <path d="M 496.20725 195.545438 
L 506.20725 195.545438 
L 516.20725 195.545438 
" style="fill: none; stroke: #297b8e; stroke-width: 1.5; stroke-linecap: square"/>
    </g>
    <g id="text_31">
     <!-- 0.348 -->
     <g transform="translate(524.20725 199.045438) scale(0.1 -0.1)">
      <use xlink:href="#DejaVuSans-30"/>
      <use xlink:href="#DejaVuSans-2e" x="63.623047"/>
      <use xlink:href="#DejaVuSans-33" x="95.410156"/>
      <use xlink:href="#DejaVuSans-34" x="159.033203"/>
      <use xlink:href="#DejaVuSans-38" x="222.65625"/>
     </g>
    </g>
    <g id="line2d_58">
     <path d="M 496.20725 210.223563 
L 506.20725 210.223563 
L 516.20725 210.223563 
" style="fill: none; stroke: #25838e; stroke-width: 1.5; stroke-linecap: square"/>
    </g>
    <g id="text_32">
     <!-- 0.369 -->
     <g transform="translate(524.20725 213.723563) scale(0.1 -0.1)">
      <use xlink:href="#DejaVuSans-30"/>
      <use xlink:href="#DejaVuSans-2e" x="63.623047"/>
      <use xlink:href="#DejaVuSans-33" x="95.410156"/>
      <use xlink:href="#DejaVuSans-36" x="159.033203"/>
      <use xlink:href="#DejaVuSans-39" x="222.65625"/>
     </g>
    </g>
    <g id="line2d_59">
     <path d="M 496.20725 224.901688 
L 506.20725 224.901688 
L 516.20725 224.901688 
" style="fill: none; stroke: #228c8d; stroke-width: 1.5; stroke-linecap: square"/>
    </g>
    <g id="text_33">
     <!-- 0.39 -->
     <g transform="translate(524.20725 228.401688) scale(0.1 -0.1)">
      <use xlink:href="#DejaVuSans-30"/>
      <use xlink:href="#DejaVuSans-2e" x="63.623047"/>
      <use xlink:href="#DejaVuSans-33" x="95.410156"/>
      <use xlink:href="#DejaVuSans-39" x="159.033203"/>
     </g>
    </g>
    <g id="line2d_60">
     <path d="M 496.20725 239.579813 
L 506.20725 239.579813 
L 516.20725 239.579813 
" style="fill: none; stroke: #1f948c; stroke-width: 1.5; stroke-linecap: square"/>
    </g>
    <g id="text_34">
     <!-- 0.41 -->
     <g transform="translate(524.20725 243.079813) scale(0.1 -0.1)">
      <use xlink:href="#DejaVuSans-30"/>
      <use xlink:href="#DejaVuSans-2e" x="63.623047"/>
      <use xlink:href="#DejaVuSans-34" x="95.410156"/>
      <use xlink:href="#DejaVuSans-31" x="159.033203"/>
     </g>
    </g>
    <g id="line2d_61">
     <path d="M 496.20725 254.257938 
L 506.20725 254.257938 
L 516.20725 254.257938 
" style="fill: none; stroke: #1e9d89; stroke-width: 1.5; stroke-linecap: square"/>
    </g>
    <g id="text_35">
     <!-- 0.431 -->
     <g transform="translate(524.20725 257.757938) scale(0.1 -0.1)">
      <use xlink:href="#DejaVuSans-30"/>
      <use xlink:href="#DejaVuSans-2e" x="63.623047"/>
      <use xlink:href="#DejaVuSans-34" x="95.410156"/>
      <use xlink:href="#DejaVuSans-33" x="159.033203"/>
      <use xlink:href="#DejaVuSans-31" x="222.65625"/>
     </g>
    </g>
    <g id="line2d_62">
     <path d="M 496.20725 268.936062 
L 506.20725 268.936062 
L 516.20725 268.936062 
" style="fill: none; stroke: #21a585; stroke-width: 1.5; stroke-linecap: square"/>
    </g>
    <g id="text_36">
     <!-- 0.452 -->
     <g transform="translate(524.20725 272.436062) scale(0.1 -0.1)">
      <use xlink:href="#DejaVuSans-30"/>
      <use xlink:href="#DejaVuSans-2e" x="63.623047"/>
      <use xlink:href="#DejaVuSans-34" x="95.410156"/>
      <use xlink:href="#DejaVuSans-35" x="159.033203"/>
      <use xlink:href="#DejaVuSans-32" x="222.65625"/>
     </g>
    </g>
    <g id="line2d_63">
     <path d="M 496.20725 283.614188 
L 506.20725 283.614188 
L 516.20725 283.614188 
" style="fill: none; stroke: #26ad81; stroke-width: 1.5; stroke-linecap: square"/>
    </g>
    <g id="text_37">
     <!-- 0.472 -->
     <g transform="translate(524.20725 287.114188) scale(0.1 -0.1)">
      <use xlink:href="#DejaVuSans-30"/>
      <use xlink:href="#DejaVuSans-2e" x="63.623047"/>
      <use xlink:href="#DejaVuSans-34" x="95.410156"/>
      <use xlink:href="#DejaVuSans-37" x="159.033203"/>
      <use xlink:href="#DejaVuSans-32" x="222.65625"/>
     </g>
    </g>
    <g id="line2d_64">
     <path d="M 496.20725 298.292312 
L 506.20725 298.292312 
L 516.20725 298.292312 
" style="fill: none; stroke: #31b57b; stroke-width: 1.5; stroke-linecap: square"/>
    </g>
    <g id="text_38">
     <!-- 0.493 -->
     <g transform="translate(524.20725 301.792312) scale(0.1 -0.1)">
      <use xlink:href="#DejaVuSans-30"/>
      <use xlink:href="#DejaVuSans-2e" x="63.623047"/>
      <use xlink:href="#DejaVuSans-34" x="95.410156"/>
      <use xlink:href="#DejaVuSans-39" x="159.033203"/>
      <use xlink:href="#DejaVuSans-33" x="222.65625"/>
     </g>
    </g>
    <g id="line2d_65">
     <path d="M 572.835375 166.189188 
L 582.835375 166.189188 
L 592.835375 166.189188 
" style="fill: none; stroke: #3fbc73; stroke-width: 1.5; stroke-linecap: square"/>
    </g>
    <g id="text_39">
     <!-- 0.514 -->
     <g transform="translate(600.835375 169.689188) scale(0.1 -0.1)">
      <use xlink:href="#DejaVuSans-30"/>
      <use xlink:href="#DejaVuSans-2e" x="63.623047"/>
      <use xlink:href="#DejaVuSans-35" x="95.410156"/>
      <use xlink:href="#DejaVuSans-31" x="159.033203"/>
      <use xlink:href="#DejaVuSans-34" x="222.65625"/>
     </g>
    </g>
    <g id="line2d_66">
     <path d="M 572.835375 180.867313 
L 582.835375 180.867313 
L 592.835375 180.867313 
" style="fill: none; stroke: #50c46a; stroke-width: 1.5; stroke-linecap: square"/>
    </g>
    <g id="text_40">
     <!-- 0.534 -->
     <g transform="translate(600.835375 184.367313) scale(0.1 -0.1)">
      <use xlink:href="#DejaVuSans-30"/>
      <use xlink:href="#DejaVuSans-2e" x="63.623047"/>
      <use xlink:href="#DejaVuSans-35" x="95.410156"/>
      <use xlink:href="#DejaVuSans-33" x="159.033203"/>
      <use xlink:href="#DejaVuSans-34" x="222.65625"/>
     </g>
    </g>
    <g id="line2d_67">
     <path d="M 572.835375 195.545438 
L 582.835375 195.545438 
L 592.835375 195.545438 
" style="fill: none; stroke: #63cb5f; stroke-width: 1.5; stroke-linecap: square"/>
    </g>
    <g id="text_41">
     <!-- 0.555 -->
     <g transform="translate(600.835375 199.045438) scale(0.1 -0.1)">
      <use xlink:href="#DejaVuSans-30"/>
      <use xlink:href="#DejaVuSans-2e" x="63.623047"/>
      <use xlink:href="#DejaVuSans-35" x="95.410156"/>
      <use xlink:href="#DejaVuSans-35" x="159.033203"/>
      <use xlink:href="#DejaVuSans-35" x="222.65625"/>
     </g>
    </g>
    <g id="line2d_68">
     <path d="M 572.835375 210.223563 
L 582.835375 210.223563 
L 592.835375 210.223563 
" style="fill: none; stroke: #77d153; stroke-width: 1.5; stroke-linecap: square"/>
    </g>
    <g id="text_42">
     <!-- 0.576 -->
     <g transform="translate(600.835375 213.723563) scale(0.1 -0.1)">
      <use xlink:href="#DejaVuSans-30"/>
      <use xlink:href="#DejaVuSans-2e" x="63.623047"/>
      <use xlink:href="#DejaVuSans-35" x="95.410156"/>
      <use xlink:href="#DejaVuSans-37" x="159.033203"/>
      <use xlink:href="#DejaVuSans-36" x="222.65625"/>
     </g>
    </g>
    <g id="line2d_69">
     <path d="M 572.835375 224.901688 
L 582.835375 224.901688 
L 592.835375 224.901688 
" style="fill: none; stroke: #8bd646; stroke-width: 1.5; stroke-linecap: square"/>
    </g>
    <g id="text_43">
     <!-- 0.597 -->
     <g transform="translate(600.835375 228.401688) scale(0.1 -0.1)">
      <use xlink:href="#DejaVuSans-30"/>
      <use xlink:href="#DejaVuSans-2e" x="63.623047"/>
      <use xlink:href="#DejaVuSans-35" x="95.410156"/>
      <use xlink:href="#DejaVuSans-39" x="159.033203"/>
      <use xlink:href="#DejaVuSans-37" x="222.65625"/>
     </g>
    </g>
    <g id="line2d_70">
     <path d="M 572.835375 239.579813 
L 582.835375 239.579813 
L 592.835375 239.579813 
" style="fill: none; stroke: #a2da37; stroke-width: 1.5; stroke-linecap: square"/>
    </g>
    <g id="text_44">
     <!-- 0.617 -->
     <g transform="translate(600.835375 243.079813) scale(0.1 -0.1)">
      <use xlink:href="#DejaVuSans-30"/>
      <use xlink:href="#DejaVuSans-2e" x="63.623047"/>
      <use xlink:href="#DejaVuSans-36" x="95.410156"/>
      <use xlink:href="#DejaVuSans-31" x="159.033203"/>
      <use xlink:href="#DejaVuSans-37" x="222.65625"/>
     </g>
    </g>
    <g id="line2d_71">
     <path d="M 572.835375 254.257938 
L 582.835375 254.257938 
L 592.835375 254.257938 
" style="fill: none; stroke: #bade28; stroke-width: 1.5; stroke-linecap: square"/>
    </g>
    <g id="text_45">
     <!-- 0.638 -->
     <g transform="translate(600.835375 257.757938) scale(0.1 -0.1)">
      <use xlink:href="#DejaVuSans-30"/>
      <use xlink:href="#DejaVuSans-2e" x="63.623047"/>
      <use xlink:href="#DejaVuSans-36" x="95.410156"/>
      <use xlink:href="#DejaVuSans-33" x="159.033203"/>
      <use xlink:href="#DejaVuSans-38" x="222.65625"/>
     </g>
    </g>
    <g id="line2d_72">
     <path d="M 572.835375 268.936062 
L 582.835375 268.936062 
L 592.835375 268.936062 
" style="fill: none; stroke: #d2e21b; stroke-width: 1.5; stroke-linecap: square"/>
    </g>
    <g id="text_46">
     <!-- 0.659 -->
     <g transform="translate(600.835375 272.436062) scale(0.1 -0.1)">
      <use xlink:href="#DejaVuSans-30"/>
      <use xlink:href="#DejaVuSans-2e" x="63.623047"/>
      <use xlink:href="#DejaVuSans-36" x="95.410156"/>
      <use xlink:href="#DejaVuSans-35" x="159.033203"/>
      <use xlink:href="#DejaVuSans-39" x="222.65625"/>
     </g>
    </g>
    <g id="line2d_73">
     <path d="M 572.835375 283.614188 
L 582.835375 283.614188 
L 592.835375 283.614188 
" style="fill: none; stroke: #eae51a; stroke-width: 1.5; stroke-linecap: square"/>
    </g>
    <g id="text_47">
     <!-- 0.679 -->
     <g transform="translate(600.835375 287.114188) scale(0.1 -0.1)">
      <use xlink:href="#DejaVuSans-30"/>
      <use xlink:href="#DejaVuSans-2e" x="63.623047"/>
      <use xlink:href="#DejaVuSans-36" x="95.410156"/>
      <use xlink:href="#DejaVuSans-37" x="159.033203"/>
      <use xlink:href="#DejaVuSans-39" x="222.65625"/>
     </g>
    </g>
    <g id="line2d_74">
     <path d="M 572.835375 298.292312 
L 582.835375 298.292312 
L 592.835375 298.292312 
" style="fill: none; stroke: #fde725; stroke-width: 1.5; stroke-linecap: square"/>
    </g>
    <g id="text_48">
     <!-- 0.7 -->
     <g transform="translate(600.835375 301.792312) scale(0.1 -0.1)">
      <use xlink:href="#DejaVuSans-30"/>
      <use xlink:href="#DejaVuSans-2e" x="63.623047"/>
      <use xlink:href="#DejaVuSans-37" x="95.410156"/>
     </g>
    </g>
   </g>
  </g>
  <g id="text_49">
   <!-- x0x1-y0 One-tone-powerDep -->
   <g transform="translate(126.599063 16.318125) scale(0.12 -0.12)">
    <defs>
     <path id="DejaVuSans-78" d="M 3513 3500 
L 2247 1797 
L 3578 0 
L 2900 0 
L 1881 1375 
L 863 0 
L 184 0 
L 1544 1831 
L 300 3500 
L 978 3500 
L 1906 2253 
L 2834 3500 
L 3513 3500 
z
" transform="scale(0.015625)"/>
     <path id="DejaVuSans-2d" d="M 313 2009 
L 1997 2009 
L 1997 1497 
L 313 1497 
L 313 2009 
z
" transform="scale(0.015625)"/>
     <path id="DejaVuSans-4f" d="M 2522 4238 
Q 1834 4238 1429 3725 
Q 1025 3213 1025 2328 
Q 1025 1447 1429 934 
Q 1834 422 2522 422 
Q 3209 422 3611 934 
Q 4013 1447 4013 2328 
Q 4013 3213 3611 3725 
Q 3209 4238 2522 4238 
z
M 2522 4750 
Q 3503 4750 4090 4092 
Q 4678 3434 4678 2328 
Q 4678 1225 4090 567 
Q 3503 -91 2522 -91 
Q 1538 -91 948 565 
Q 359 1222 359 2328 
Q 359 3434 948 4092 
Q 1538 4750 2522 4750 
z
" transform="scale(0.015625)"/>
     <path id="DejaVuSans-77" d="M 269 3500 
L 844 3500 
L 1563 769 
L 2278 3500 
L 2956 3500 
L 3675 769 
L 4391 3500 
L 4966 3500 
L 4050 0 
L 3372 0 
L 2619 2869 
L 1863 0 
L 1184 0 
L 269 3500 
z
" transform="scale(0.015625)"/>
     <path id="DejaVuSans-44" d="M 1259 4147 
L 1259 519 
L 2022 519 
Q 2988 519 3436 956 
Q 3884 1394 3884 2338 
Q 3884 3275 3436 3711 
Q 2988 4147 2022 4147 
L 1259 4147 
z
M 628 4666 
L 1925 4666 
Q 3281 4666 3915 4102 
Q 4550 3538 4550 2338 
Q 4550 1131 3912 565 
Q 3275 0 1925 0 
L 628 0 
L 628 4666 
z
" transform="scale(0.015625)"/>
    </defs>
    <use xlink:href="#DejaVuSans-78"/>
    <use xlink:href="#DejaVuSans-30" x="59.179688"/>
    <use xlink:href="#DejaVuSans-78" x="122.802734"/>
    <use xlink:href="#DejaVuSans-31" x="181.982422"/>
    <use xlink:href="#DejaVuSans-2d" x="245.605469"/>
    <use xlink:href="#DejaVuSans-79" x="279.939453"/>
    <use xlink:href="#DejaVuSans-30" x="339.119141"/>
    <use xlink:href="#DejaVuSans-20" x="402.742188"/>
    <use xlink:href="#DejaVuSans-4f" x="434.529297"/>
    <use xlink:href="#DejaVuSans-6e" x="513.240234"/>
    <use xlink:href="#DejaVuSans-65" x="576.619141"/>
    <use xlink:href="#DejaVuSans-2d" x="638.142578"/>
    <use xlink:href="#DejaVuSans-74" x="674.226562"/>
    <use xlink:href="#DejaVuSans-6f" x="713.435547"/>
    <use xlink:href="#DejaVuSans-6e" x="774.617188"/>
    <use xlink:href="#DejaVuSans-65" x="837.996094"/>
    <use xlink:href="#DejaVuSans-2d" x="899.519531"/>
    <use xlink:href="#DejaVuSans-70" x="935.603516"/>
    <use xlink:href="#DejaVuSans-6f" x="999.080078"/>
    <use xlink:href="#DejaVuSans-77" x="1060.261719"/>
    <use xlink:href="#DejaVuSans-65" x="1142.048828"/>
    <use xlink:href="#DejaVuSans-72" x="1203.572266"/>
    <use xlink:href="#DejaVuSans-44" x="1244.685547"/>
    <use xlink:href="#DejaVuSans-65" x="1321.6875"/>
    <use xlink:href="#DejaVuSans-70" x="1383.210938"/>
   </g>
   <!-- tuid: 20240222-182610-000-4c2928 -->
   <g transform="translate(104.06625 29.7555) scale(0.12 -0.12)">
    <defs>
     <path id="DejaVuSans-3a" d="M 750 794 
L 1409 794 
L 1409 0 
L 750 0 
L 750 794 
z
M 750 3309 
L 1409 3309 
L 1409 2516 
L 750 2516 
L 750 3309 
z
" transform="scale(0.015625)"/>
    </defs>
    <use xlink:href="#DejaVuSans-74"/>
    <use xlink:href="#DejaVuSans-75" x="39.208984"/>
    <use xlink:href="#DejaVuSans-69" x="102.587891"/>
    <use xlink:href="#DejaVuSans-64" x="130.371094"/>
    <use xlink:href="#DejaVuSans-3a" x="193.847656"/>
    <use xlink:href="#DejaVuSans-20" x="227.539062"/>
    <use xlink:href="#DejaVuSans-32" x="259.326172"/>
    <use xlink:href="#DejaVuSans-30" x="322.949219"/>
    <use xlink:href="#DejaVuSans-32" x="386.572266"/>
    <use xlink:href="#DejaVuSans-34" x="450.195312"/>
    <use xlink:href="#DejaVuSans-30" x="513.818359"/>
    <use xlink:href="#DejaVuSans-32" x="577.441406"/>
    <use xlink:href="#DejaVuSans-32" x="641.064453"/>
    <use xlink:href="#DejaVuSans-32" x="704.6875"/>
    <use xlink:href="#DejaVuSans-2d" x="768.310547"/>
    <use xlink:href="#DejaVuSans-31" x="804.394531"/>
    <use xlink:href="#DejaVuSans-38" x="868.017578"/>
    <use xlink:href="#DejaVuSans-32" x="931.640625"/>
    <use xlink:href="#DejaVuSans-36" x="995.263672"/>
    <use xlink:href="#DejaVuSans-31" x="1058.886719"/>
    <use xlink:href="#DejaVuSans-30" x="1122.509766"/>
    <use xlink:href="#DejaVuSans-2d" x="1186.132812"/>
    <use xlink:href="#DejaVuSans-30" x="1222.216797"/>
    <use xlink:href="#DejaVuSans-30" x="1285.839844"/>
    <use xlink:href="#DejaVuSans-30" x="1349.462891"/>
    <use xlink:href="#DejaVuSans-2d" x="1413.085938"/>
    <use xlink:href="#DejaVuSans-34" x="1449.169922"/>
    <use xlink:href="#DejaVuSans-63" x="1512.792969"/>
    <use xlink:href="#DejaVuSans-32" x="1567.773438"/>
    <use xlink:href="#DejaVuSans-39" x="1631.396484"/>
    <use xlink:href="#DejaVuSans-32" x="1695.019531"/>
    <use xlink:href="#DejaVuSans-38" x="1758.642578"/>
   </g>
  </g>
 </g>
 <defs>
  <clipPath id="pe765818988">
   <rect x="40.603125" y="41.76" width="357.12" height="266.112"/>
  </clipPath>
 </defs>
</svg>
