<?xml version="1.0" encoding="utf-8" standalone="no"?>
<!DOCTYPE svg PUBLIC "-//W3C//DTD SVG 1.1//EN"
  "http://www.w3.org/Graphics/SVG/1.1/DTD/svg11.dtd">
<svg xmlns:xlink="http://www.w3.org/1999/xlink" width="653.811937pt" height="345.42825pt" viewBox="0 0 653.811937 345.42825" xmlns="http://www.w3.org/2000/svg" version="1.1">
 <metadata>
  <rdf:RDF xmlns:dc="http://purl.org/dc/elements/1.1/" xmlns:cc="http://creativecommons.org/ns#" xmlns:rdf="http://www.w3.org/1999/02/22-rdf-syntax-ns#">
   <cc:Work>
    <dc:type rdf:resource="http://purl.org/dc/dcmitype/StillImage"/>
    <dc:date>2024-02-22T18:26:51.070276</dc:date>
    <dc:format>image/svg+xml</dc:format>
    <dc:creator>
     <cc:Agent>
      <dc:title>Matplotlib v3.8.2, https://matplotlib.org/</dc:title>
     </cc:Agent>
    </dc:creator>
   </cc:Work>
  </rdf:RDF>
 </metadata>
 <defs>
  <style type="text/css">*{stroke-linejoin: round; stroke-linecap: butt}</style>
 </defs>
 <g id="figure_1">
  <g id="patch_1">
   <path d="M 0 345.42825 
L 653.811937 345.42825 
L 653.811937 -0 
L 0 -0 
L 0 345.42825 
z
" style="fill: none; opacity: 0"/>
  </g>
  <g id="axes_1">
   <g id="patch_2">
    <path d="M 53.751563 307.872 
L 410.871562 307.872 
L 410.871562 41.76 
L 53.751563 41.76 
z
" style="fill: #ffffff"/>
   </g>
   <g id="matplotlib.axis_1">
    <g id="xtick_1">
     <g id="line2d_1">
      <defs>
       <path id="md5c40cc4ea" d="M 0 0 
L 0 3.5 
" style="stroke: #000000; stroke-width: 0.8"/>
      </defs>
      <g>
       <use xlink:href="#md5c40cc4ea" x="61.108948" y="307.872" style="stroke: #000000; stroke-width: 0.8"/>
      </g>
     </g>
     <g id="text_1">
      <!-- 790 -->
      <g transform="translate(51.565198 322.470438) scale(0.1 -0.1)">
       <defs>
        <path id="DejaVuSans-37" d="M 525 4666 
L 3525 4666 
L 3525 4397 
L 1831 0 
L 1172 0 
L 2766 4134 
L 525 4134 
L 525 4666 
z
" transform="scale(0.015625)"/>
        <path id="DejaVuSans-39" d="M 703 97 
L 703 672 
Q 941 559 1184 500 
Q 1428 441 1663 441 
Q 2288 441 2617 861 
Q 2947 1281 2994 2138 
Q 2813 1869 2534 1725 
Q 2256 1581 1919 1581 
Q 1219 1581 811 2004 
Q 403 2428 403 3163 
Q 403 3881 828 4315 
Q 1253 4750 1959 4750 
Q 2769 4750 3195 4129 
Q 3622 3509 3622 2328 
Q 3622 1225 3098 567 
Q 2575 -91 1691 -91 
Q 1453 -91 1209 -44 
Q 966 3 703 97 
z
M 1959 2075 
Q 2384 2075 2632 2365 
Q 2881 2656 2881 3163 
Q 2881 3666 2632 3958 
Q 2384 4250 1959 4250 
Q 1534 4250 1286 3958 
Q 1038 3666 1038 3163 
Q 1038 2656 1286 2365 
Q 1534 2075 1959 2075 
z
" transform="scale(0.015625)"/>
        <path id="DejaVuSans-30" d="M 2034 4250 
Q 1547 4250 1301 3770 
Q 1056 3291 1056 2328 
Q 1056 1369 1301 889 
Q 1547 409 2034 409 
Q 2525 409 2770 889 
Q 3016 1369 3016 2328 
Q 3016 3291 2770 3770 
Q 2525 4250 2034 4250 
z
M 2034 4750 
Q 2819 4750 3233 4129 
Q 3647 3509 3647 2328 
Q 3647 1150 3233 529 
Q 2819 -91 2034 -91 
Q 1250 -91 836 529 
Q 422 1150 422 2328 
Q 422 3509 836 4129 
Q 1250 4750 2034 4750 
z
" transform="scale(0.015625)"/>
       </defs>
       <use xlink:href="#DejaVuSans-37"/>
       <use xlink:href="#DejaVuSans-39" x="63.623047"/>
       <use xlink:href="#DejaVuSans-30" x="127.246094"/>
      </g>
     </g>
    </g>
    <g id="xtick_2">
     <g id="line2d_2">
      <g>
       <use xlink:href="#md5c40cc4ea" x="115.218039" y="307.872" style="stroke: #000000; stroke-width: 0.8"/>
      </g>
     </g>
     <g id="text_2">
      <!-- 791 -->
      <g transform="translate(105.674289 322.470438) scale(0.1 -0.1)">
       <defs>
        <path id="DejaVuSans-31" d="M 794 531 
L 1825 531 
L 1825 4091 
L 703 3866 
L 703 4441 
L 1819 4666 
L 2450 4666 
L 2450 531 
L 3481 531 
L 3481 0 
L 794 0 
L 794 531 
z
" transform="scale(0.015625)"/>
       </defs>
       <use xlink:href="#DejaVuSans-37"/>
       <use xlink:href="#DejaVuSans-39" x="63.623047"/>
       <use xlink:href="#DejaVuSans-31" x="127.246094"/>
      </g>
     </g>
    </g>
    <g id="xtick_3">
     <g id="line2d_3">
      <g>
       <use xlink:href="#md5c40cc4ea" x="169.32713" y="307.872" style="stroke: #000000; stroke-width: 0.8"/>
      </g>
     </g>
     <g id="text_3">
      <!-- 792 -->
      <g transform="translate(159.78338 322.470438) scale(0.1 -0.1)">
       <defs>
        <path id="DejaVuSans-32" d="M 1228 531 
L 3431 531 
L 3431 0 
L 469 0 
L 469 531 
Q 828 903 1448 1529 
Q 2069 2156 2228 2338 
Q 2531 2678 2651 2914 
Q 2772 3150 2772 3378 
Q 2772 3750 2511 3984 
Q 2250 4219 1831 4219 
Q 1534 4219 1204 4116 
Q 875 4013 500 3803 
L 500 4441 
Q 881 4594 1212 4672 
Q 1544 4750 1819 4750 
Q 2544 4750 2975 4387 
Q 3406 4025 3406 3419 
Q 3406 3131 3298 2873 
Q 3191 2616 2906 2266 
Q 2828 2175 2409 1742 
Q 1991 1309 1228 531 
z
" transform="scale(0.015625)"/>
       </defs>
       <use xlink:href="#DejaVuSans-37"/>
       <use xlink:href="#DejaVuSans-39" x="63.623047"/>
       <use xlink:href="#DejaVuSans-32" x="127.246094"/>
      </g>
     </g>
    </g>
    <g id="xtick_4">
     <g id="line2d_4">
      <g>
       <use xlink:href="#md5c40cc4ea" x="223.436221" y="307.872" style="stroke: #000000; stroke-width: 0.8"/>
      </g>
     </g>
     <g id="text_4">
      <!-- 793 -->
      <g transform="translate(213.892471 322.470438) scale(0.1 -0.1)">
       <defs>
        <path id="DejaVuSans-33" d="M 2597 2516 
Q 3050 2419 3304 2112 
Q 3559 1806 3559 1356 
Q 3559 666 3084 287 
Q 2609 -91 1734 -91 
Q 1441 -91 1130 -33 
Q 819 25 488 141 
L 488 750 
Q 750 597 1062 519 
Q 1375 441 1716 441 
Q 2309 441 2620 675 
Q 2931 909 2931 1356 
Q 2931 1769 2642 2001 
Q 2353 2234 1838 2234 
L 1294 2234 
L 1294 2753 
L 1863 2753 
Q 2328 2753 2575 2939 
Q 2822 3125 2822 3475 
Q 2822 3834 2567 4026 
Q 2313 4219 1838 4219 
Q 1578 4219 1281 4162 
Q 984 4106 628 3988 
L 628 4550 
Q 988 4650 1302 4700 
Q 1616 4750 1894 4750 
Q 2613 4750 3031 4423 
Q 3450 4097 3450 3541 
Q 3450 3153 3228 2886 
Q 3006 2619 2597 2516 
z
" transform="scale(0.015625)"/>
       </defs>
       <use xlink:href="#DejaVuSans-37"/>
       <use xlink:href="#DejaVuSans-39" x="63.623047"/>
       <use xlink:href="#DejaVuSans-33" x="127.246094"/>
      </g>
     </g>
    </g>
    <g id="xtick_5">
     <g id="line2d_5">
      <g>
       <use xlink:href="#md5c40cc4ea" x="277.545312" y="307.872" style="stroke: #000000; stroke-width: 0.8"/>
      </g>
     </g>
     <g id="text_5">
      <!-- 794 -->
      <g transform="translate(268.001562 322.470438) scale(0.1 -0.1)">
       <defs>
        <path id="DejaVuSans-34" d="M 2419 4116 
L 825 1625 
L 2419 1625 
L 2419 4116 
z
M 2253 4666 
L 3047 4666 
L 3047 1625 
L 3713 1625 
L 3713 1100 
L 3047 1100 
L 3047 0 
L 2419 0 
L 2419 1100 
L 313 1100 
L 313 1709 
L 2253 4666 
z
" transform="scale(0.015625)"/>
       </defs>
       <use xlink:href="#DejaVuSans-37"/>
       <use xlink:href="#DejaVuSans-39" x="63.623047"/>
       <use xlink:href="#DejaVuSans-34" x="127.246094"/>
      </g>
     </g>
    </g>
    <g id="xtick_6">
     <g id="line2d_6">
      <g>
       <use xlink:href="#md5c40cc4ea" x="331.654403" y="307.872" style="stroke: #000000; stroke-width: 0.8"/>
      </g>
     </g>
     <g id="text_6">
      <!-- 795 -->
      <g transform="translate(322.110653 322.470438) scale(0.1 -0.1)">
       <defs>
        <path id="DejaVuSans-35" d="M 691 4666 
L 3169 4666 
L 3169 4134 
L 1269 4134 
L 1269 2991 
Q 1406 3038 1543 3061 
Q 1681 3084 1819 3084 
Q 2600 3084 3056 2656 
Q 3513 2228 3513 1497 
Q 3513 744 3044 326 
Q 2575 -91 1722 -91 
Q 1428 -91 1123 -41 
Q 819 9 494 109 
L 494 744 
Q 775 591 1075 516 
Q 1375 441 1709 441 
Q 2250 441 2565 725 
Q 2881 1009 2881 1497 
Q 2881 1984 2565 2268 
Q 2250 2553 1709 2553 
Q 1456 2553 1204 2497 
Q 953 2441 691 2322 
L 691 4666 
z
" transform="scale(0.015625)"/>
       </defs>
       <use xlink:href="#DejaVuSans-37"/>
       <use xlink:href="#DejaVuSans-39" x="63.623047"/>
       <use xlink:href="#DejaVuSans-35" x="127.246094"/>
      </g>
     </g>
    </g>
    <g id="xtick_7">
     <g id="line2d_7">
      <g>
       <use xlink:href="#md5c40cc4ea" x="385.763494" y="307.872" style="stroke: #000000; stroke-width: 0.8"/>
      </g>
     </g>
     <g id="text_7">
      <!-- 796 -->
      <g transform="translate(376.219744 322.470438) scale(0.1 -0.1)">
       <defs>
        <path id="DejaVuSans-36" d="M 2113 2584 
Q 1688 2584 1439 2293 
Q 1191 2003 1191 1497 
Q 1191 994 1439 701 
Q 1688 409 2113 409 
Q 2538 409 2786 701 
Q 3034 994 3034 1497 
Q 3034 2003 2786 2293 
Q 2538 2584 2113 2584 
z
M 3366 4563 
L 3366 3988 
Q 3128 4100 2886 4159 
Q 2644 4219 2406 4219 
Q 1781 4219 1451 3797 
Q 1122 3375 1075 2522 
Q 1259 2794 1537 2939 
Q 1816 3084 2150 3084 
Q 2853 3084 3261 2657 
Q 3669 2231 3669 1497 
Q 3669 778 3244 343 
Q 2819 -91 2113 -91 
Q 1303 -91 875 529 
Q 447 1150 447 2328 
Q 447 3434 972 4092 
Q 1497 4750 2381 4750 
Q 2619 4750 2861 4703 
Q 3103 4656 3366 4563 
z
" transform="scale(0.015625)"/>
       </defs>
       <use xlink:href="#DejaVuSans-37"/>
       <use xlink:href="#DejaVuSans-39" x="63.623047"/>
       <use xlink:href="#DejaVuSans-36" x="127.246094"/>
      </g>
     </g>
    </g>
    <g id="text_8">
     <!-- Frequency [MHz] -->
     <g transform="translate(190.292812 336.148562) scale(0.1 -0.1)">
      <defs>
       <path id="DejaVuSans-46" d="M 628 4666 
L 3309 4666 
L 3309 4134 
L 1259 4134 
L 1259 2759 
L 3109 2759 
L 3109 2228 
L 1259 2228 
L 1259 0 
L 628 0 
L 628 4666 
z
" transform="scale(0.015625)"/>
       <path id="DejaVuSans-72" d="M 2631 2963 
Q 2534 3019 2420 3045 
Q 2306 3072 2169 3072 
Q 1681 3072 1420 2755 
Q 1159 2438 1159 1844 
L 1159 0 
L 581 0 
L 581 3500 
L 1159 3500 
L 1159 2956 
Q 1341 3275 1631 3429 
Q 1922 3584 2338 3584 
Q 2397 3584 2469 3576 
Q 2541 3569 2628 3553 
L 2631 2963 
z
" transform="scale(0.015625)"/>
       <path id="DejaVuSans-65" d="M 3597 1894 
L 3597 1613 
L 953 1613 
Q 991 1019 1311 708 
Q 1631 397 2203 397 
Q 2534 397 2845 478 
Q 3156 559 3463 722 
L 3463 178 
Q 3153 47 2828 -22 
Q 2503 -91 2169 -91 
Q 1331 -91 842 396 
Q 353 884 353 1716 
Q 353 2575 817 3079 
Q 1281 3584 2069 3584 
Q 2775 3584 3186 3129 
Q 3597 2675 3597 1894 
z
M 3022 2063 
Q 3016 2534 2758 2815 
Q 2500 3097 2075 3097 
Q 1594 3097 1305 2825 
Q 1016 2553 972 2059 
L 3022 2063 
z
" transform="scale(0.015625)"/>
       <path id="DejaVuSans-71" d="M 947 1747 
Q 947 1113 1208 752 
Q 1469 391 1925 391 
Q 2381 391 2643 752 
Q 2906 1113 2906 1747 
Q 2906 2381 2643 2742 
Q 2381 3103 1925 3103 
Q 1469 3103 1208 2742 
Q 947 2381 947 1747 
z
M 2906 525 
Q 2725 213 2448 61 
Q 2172 -91 1784 -91 
Q 1150 -91 751 415 
Q 353 922 353 1747 
Q 353 2572 751 3078 
Q 1150 3584 1784 3584 
Q 2172 3584 2448 3432 
Q 2725 3281 2906 2969 
L 2906 3500 
L 3481 3500 
L 3481 -1331 
L 2906 -1331 
L 2906 525 
z
" transform="scale(0.015625)"/>
       <path id="DejaVuSans-75" d="M 544 1381 
L 544 3500 
L 1119 3500 
L 1119 1403 
Q 1119 906 1312 657 
Q 1506 409 1894 409 
Q 2359 409 2629 706 
Q 2900 1003 2900 1516 
L 2900 3500 
L 3475 3500 
L 3475 0 
L 2900 0 
L 2900 538 
Q 2691 219 2414 64 
Q 2138 -91 1772 -91 
Q 1169 -91 856 284 
Q 544 659 544 1381 
z
M 1991 3584 
L 1991 3584 
z
" transform="scale(0.015625)"/>
       <path id="DejaVuSans-6e" d="M 3513 2113 
L 3513 0 
L 2938 0 
L 2938 2094 
Q 2938 2591 2744 2837 
Q 2550 3084 2163 3084 
Q 1697 3084 1428 2787 
Q 1159 2491 1159 1978 
L 1159 0 
L 581 0 
L 581 3500 
L 1159 3500 
L 1159 2956 
Q 1366 3272 1645 3428 
Q 1925 3584 2291 3584 
Q 2894 3584 3203 3211 
Q 3513 2838 3513 2113 
z
" transform="scale(0.015625)"/>
       <path id="DejaVuSans-63" d="M 3122 3366 
L 3122 2828 
Q 2878 2963 2633 3030 
Q 2388 3097 2138 3097 
Q 1578 3097 1268 2742 
Q 959 2388 959 1747 
Q 959 1106 1268 751 
Q 1578 397 2138 397 
Q 2388 397 2633 464 
Q 2878 531 3122 666 
L 3122 134 
Q 2881 22 2623 -34 
Q 2366 -91 2075 -91 
Q 1284 -91 818 406 
Q 353 903 353 1747 
Q 353 2603 823 3093 
Q 1294 3584 2113 3584 
Q 2378 3584 2631 3529 
Q 2884 3475 3122 3366 
z
" transform="scale(0.015625)"/>
       <path id="DejaVuSans-79" d="M 2059 -325 
Q 1816 -950 1584 -1140 
Q 1353 -1331 966 -1331 
L 506 -1331 
L 506 -850 
L 844 -850 
Q 1081 -850 1212 -737 
Q 1344 -625 1503 -206 
L 1606 56 
L 191 3500 
L 800 3500 
L 1894 763 
L 2988 3500 
L 3597 3500 
L 2059 -325 
z
" transform="scale(0.015625)"/>
       <path id="DejaVuSans-20" transform="scale(0.015625)"/>
       <path id="DejaVuSans-5b" d="M 550 4863 
L 1875 4863 
L 1875 4416 
L 1125 4416 
L 1125 -397 
L 1875 -397 
L 1875 -844 
L 550 -844 
L 550 4863 
z
" transform="scale(0.015625)"/>
       <path id="DejaVuSans-4d" d="M 628 4666 
L 1569 4666 
L 2759 1491 
L 3956 4666 
L 4897 4666 
L 4897 0 
L 4281 0 
L 4281 4097 
L 3078 897 
L 2444 897 
L 1241 4097 
L 1241 0 
L 628 0 
L 628 4666 
z
" transform="scale(0.015625)"/>
       <path id="DejaVuSans-48" d="M 628 4666 
L 1259 4666 
L 1259 2753 
L 3553 2753 
L 3553 4666 
L 4184 4666 
L 4184 0 
L 3553 0 
L 3553 2222 
L 1259 2222 
L 1259 0 
L 628 0 
L 628 4666 
z
" transform="scale(0.015625)"/>
       <path id="DejaVuSans-7a" d="M 353 3500 
L 3084 3500 
L 3084 2975 
L 922 459 
L 3084 459 
L 3084 0 
L 275 0 
L 275 525 
L 2438 3041 
L 353 3041 
L 353 3500 
z
" transform="scale(0.015625)"/>
       <path id="DejaVuSans-5d" d="M 1947 4863 
L 1947 -844 
L 622 -844 
L 622 -397 
L 1369 -397 
L 1369 4416 
L 622 4416 
L 622 4863 
L 1947 4863 
z
" transform="scale(0.015625)"/>
      </defs>
      <use xlink:href="#DejaVuSans-46"/>
      <use xlink:href="#DejaVuSans-72" x="50.269531"/>
      <use xlink:href="#DejaVuSans-65" x="89.132812"/>
      <use xlink:href="#DejaVuSans-71" x="150.65625"/>
      <use xlink:href="#DejaVuSans-75" x="214.132812"/>
      <use xlink:href="#DejaVuSans-65" x="277.511719"/>
      <use xlink:href="#DejaVuSans-6e" x="339.035156"/>
      <use xlink:href="#DejaVuSans-63" x="402.414062"/>
      <use xlink:href="#DejaVuSans-79" x="457.394531"/>
      <use xlink:href="#DejaVuSans-20" x="516.574219"/>
      <use xlink:href="#DejaVuSans-5b" x="548.361328"/>
      <use xlink:href="#DejaVuSans-4d" x="587.375"/>
      <use xlink:href="#DejaVuSans-48" x="673.654297"/>
      <use xlink:href="#DejaVuSans-7a" x="748.849609"/>
      <use xlink:href="#DejaVuSans-5d" x="801.339844"/>
     </g>
    </g>
    <g id="text_9">
     <!-- +5 GHz -->
     <g transform="translate(372.434062 335.148562) scale(0.1 -0.1)">
      <defs>
       <path id="DejaVuSans-2b" d="M 2944 4013 
L 2944 2272 
L 4684 2272 
L 4684 1741 
L 2944 1741 
L 2944 0 
L 2419 0 
L 2419 1741 
L 678 1741 
L 678 2272 
L 2419 2272 
L 2419 4013 
L 2944 4013 
z
" transform="scale(0.015625)"/>
       <path id="DejaVuSans-47" d="M 3809 666 
L 3809 1919 
L 2778 1919 
L 2778 2438 
L 4434 2438 
L 4434 434 
Q 4069 175 3628 42 
Q 3188 -91 2688 -91 
Q 1594 -91 976 548 
Q 359 1188 359 2328 
Q 359 3472 976 4111 
Q 1594 4750 2688 4750 
Q 3144 4750 3555 4637 
Q 3966 4525 4313 4306 
L 4313 3634 
Q 3963 3931 3569 4081 
Q 3175 4231 2741 4231 
Q 1884 4231 1454 3753 
Q 1025 3275 1025 2328 
Q 1025 1384 1454 906 
Q 1884 428 2741 428 
Q 3075 428 3337 486 
Q 3600 544 3809 666 
z
" transform="scale(0.015625)"/>
      </defs>
      <use xlink:href="#DejaVuSans-2b"/>
      <use xlink:href="#DejaVuSans-35" x="83.789062"/>
      <use xlink:href="#DejaVuSans-20" x="147.412109"/>
      <use xlink:href="#DejaVuSans-47" x="179.199219"/>
      <use xlink:href="#DejaVuSans-48" x="256.689453"/>
      <use xlink:href="#DejaVuSans-7a" x="331.884766"/>
     </g>
    </g>
   </g>
   <g id="matplotlib.axis_2">
    <g id="ytick_1">
     <g id="line2d_8">
      <defs>
       <path id="mc1699c6204" d="M 0 0 
L -3.5 0 
" style="stroke: #000000; stroke-width: 0.8"/>
      </defs>
      <g>
       <use xlink:href="#mc1699c6204" x="53.751563" y="299.120529" style="stroke: #000000; stroke-width: 0.8"/>
      </g>
     </g>
     <g id="text_10">
      <!-- -22.5 -->
      <g transform="translate(20.878125 302.919748) scale(0.1 -0.1)">
       <defs>
        <path id="DejaVuSans-2d" d="M 313 2009 
L 1997 2009 
L 1997 1497 
L 313 1497 
L 313 2009 
z
" transform="scale(0.015625)"/>
        <path id="DejaVuSans-2e" d="M 684 794 
L 1344 794 
L 1344 0 
L 684 0 
L 684 794 
z
" transform="scale(0.015625)"/>
       </defs>
       <use xlink:href="#DejaVuSans-2d"/>
       <use xlink:href="#DejaVuSans-32" x="36.083984"/>
       <use xlink:href="#DejaVuSans-32" x="99.707031"/>
       <use xlink:href="#DejaVuSans-2e" x="163.330078"/>
       <use xlink:href="#DejaVuSans-35" x="195.117188"/>
      </g>
     </g>
    </g>
    <g id="ytick_2">
     <g id="line2d_9">
      <g>
       <use xlink:href="#mc1699c6204" x="53.751563" y="269.166926" style="stroke: #000000; stroke-width: 0.8"/>
      </g>
     </g>
     <g id="text_11">
      <!-- -20 -->
      <g transform="translate(30.41875 272.966144) scale(0.1 -0.1)">
       <use xlink:href="#DejaVuSans-2d"/>
       <use xlink:href="#DejaVuSans-32" x="36.083984"/>
       <use xlink:href="#DejaVuSans-30" x="99.707031"/>
      </g>
     </g>
    </g>
    <g id="ytick_3">
     <g id="line2d_10">
      <g>
       <use xlink:href="#mc1699c6204" x="53.751563" y="239.213322" style="stroke: #000000; stroke-width: 0.8"/>
      </g>
     </g>
     <g id="text_12">
      <!-- -17.5 -->
      <g transform="translate(20.878125 243.012541) scale(0.1 -0.1)">
       <use xlink:href="#DejaVuSans-2d"/>
       <use xlink:href="#DejaVuSans-31" x="36.083984"/>
       <use xlink:href="#DejaVuSans-37" x="99.707031"/>
       <use xlink:href="#DejaVuSans-2e" x="163.330078"/>
       <use xlink:href="#DejaVuSans-35" x="195.117188"/>
      </g>
     </g>
    </g>
    <g id="ytick_4">
     <g id="line2d_11">
      <g>
       <use xlink:href="#mc1699c6204" x="53.751563" y="209.259719" style="stroke: #000000; stroke-width: 0.8"/>
      </g>
     </g>
     <g id="text_13">
      <!-- -15 -->
      <g transform="translate(30.41875 213.058938) scale(0.1 -0.1)">
       <use xlink:href="#DejaVuSans-2d"/>
       <use xlink:href="#DejaVuSans-31" x="36.083984"/>
       <use xlink:href="#DejaVuSans-35" x="99.707031"/>
      </g>
     </g>
    </g>
    <g id="ytick_5">
     <g id="line2d_12">
      <g>
       <use xlink:href="#mc1699c6204" x="53.751563" y="179.306115" style="stroke: #000000; stroke-width: 0.8"/>
      </g>
     </g>
     <g id="text_14">
      <!-- -12.5 -->
      <g transform="translate(20.878125 183.105334) scale(0.1 -0.1)">
       <use xlink:href="#DejaVuSans-2d"/>
       <use xlink:href="#DejaVuSans-31" x="36.083984"/>
       <use xlink:href="#DejaVuSans-32" x="99.707031"/>
       <use xlink:href="#DejaVuSans-2e" x="163.330078"/>
       <use xlink:href="#DejaVuSans-35" x="195.117188"/>
      </g>
     </g>
    </g>
    <g id="ytick_6">
     <g id="line2d_13">
      <g>
       <use xlink:href="#mc1699c6204" x="53.751563" y="149.352512" style="stroke: #000000; stroke-width: 0.8"/>
      </g>
     </g>
     <g id="text_15">
      <!-- -10 -->
      <g transform="translate(30.41875 153.151731) scale(0.1 -0.1)">
       <use xlink:href="#DejaVuSans-2d"/>
       <use xlink:href="#DejaVuSans-31" x="36.083984"/>
       <use xlink:href="#DejaVuSans-30" x="99.707031"/>
      </g>
     </g>
    </g>
    <g id="ytick_7">
     <g id="line2d_14">
      <g>
       <use xlink:href="#mc1699c6204" x="53.751563" y="119.398909" style="stroke: #000000; stroke-width: 0.8"/>
      </g>
     </g>
     <g id="text_16">
      <!-- -7.5 -->
      <g transform="translate(27.240625 123.198127) scale(0.1 -0.1)">
       <use xlink:href="#DejaVuSans-2d"/>
       <use xlink:href="#DejaVuSans-37" x="36.083984"/>
       <use xlink:href="#DejaVuSans-2e" x="99.707031"/>
       <use xlink:href="#DejaVuSans-35" x="131.494141"/>
      </g>
     </g>
    </g>
    <g id="ytick_8">
     <g id="line2d_15">
      <g>
       <use xlink:href="#mc1699c6204" x="53.751563" y="89.445305" style="stroke: #000000; stroke-width: 0.8"/>
      </g>
     </g>
     <g id="text_17">
      <!-- -5 -->
      <g transform="translate(36.78125 93.244524) scale(0.1 -0.1)">
       <use xlink:href="#DejaVuSans-2d"/>
       <use xlink:href="#DejaVuSans-35" x="36.083984"/>
      </g>
     </g>
    </g>
    <g id="ytick_9">
     <g id="line2d_16">
      <g>
       <use xlink:href="#mc1699c6204" x="53.751563" y="59.491702" style="stroke: #000000; stroke-width: 0.8"/>
      </g>
     </g>
     <g id="text_18">
      <!-- -2.5 -->
      <g transform="translate(27.240625 63.290921) scale(0.1 -0.1)">
       <use xlink:href="#DejaVuSans-2d"/>
       <use xlink:href="#DejaVuSans-32" x="36.083984"/>
       <use xlink:href="#DejaVuSans-2e" x="99.707031"/>
       <use xlink:href="#DejaVuSans-35" x="131.494141"/>
      </g>
     </g>
    </g>
    <g id="text_19">
     <!-- Phase0 [deg] -->
     <g transform="translate(14.798438 207.841781) rotate(-90) scale(0.1 -0.1)">
      <defs>
       <path id="DejaVuSans-50" d="M 1259 4147 
L 1259 2394 
L 2053 2394 
Q 2494 2394 2734 2622 
Q 2975 2850 2975 3272 
Q 2975 3691 2734 3919 
Q 2494 4147 2053 4147 
L 1259 4147 
z
M 628 4666 
L 2053 4666 
Q 2838 4666 3239 4311 
Q 3641 3956 3641 3272 
Q 3641 2581 3239 2228 
Q 2838 1875 2053 1875 
L 1259 1875 
L 1259 0 
L 628 0 
L 628 4666 
z
" transform="scale(0.015625)"/>
       <path id="DejaVuSans-68" d="M 3513 2113 
L 3513 0 
L 2938 0 
L 2938 2094 
Q 2938 2591 2744 2837 
Q 2550 3084 2163 3084 
Q 1697 3084 1428 2787 
Q 1159 2491 1159 1978 
L 1159 0 
L 581 0 
L 581 4863 
L 1159 4863 
L 1159 2956 
Q 1366 3272 1645 3428 
Q 1925 3584 2291 3584 
Q 2894 3584 3203 3211 
Q 3513 2838 3513 2113 
z
" transform="scale(0.015625)"/>
       <path id="DejaVuSans-61" d="M 2194 1759 
Q 1497 1759 1228 1600 
Q 959 1441 959 1056 
Q 959 750 1161 570 
Q 1363 391 1709 391 
Q 2188 391 2477 730 
Q 2766 1069 2766 1631 
L 2766 1759 
L 2194 1759 
z
M 3341 1997 
L 3341 0 
L 2766 0 
L 2766 531 
Q 2569 213 2275 61 
Q 1981 -91 1556 -91 
Q 1019 -91 701 211 
Q 384 513 384 1019 
Q 384 1609 779 1909 
Q 1175 2209 1959 2209 
L 2766 2209 
L 2766 2266 
Q 2766 2663 2505 2880 
Q 2244 3097 1772 3097 
Q 1472 3097 1187 3025 
Q 903 2953 641 2809 
L 641 3341 
Q 956 3463 1253 3523 
Q 1550 3584 1831 3584 
Q 2591 3584 2966 3190 
Q 3341 2797 3341 1997 
z
" transform="scale(0.015625)"/>
       <path id="DejaVuSans-73" d="M 2834 3397 
L 2834 2853 
Q 2591 2978 2328 3040 
Q 2066 3103 1784 3103 
Q 1356 3103 1142 2972 
Q 928 2841 928 2578 
Q 928 2378 1081 2264 
Q 1234 2150 1697 2047 
L 1894 2003 
Q 2506 1872 2764 1633 
Q 3022 1394 3022 966 
Q 3022 478 2636 193 
Q 2250 -91 1575 -91 
Q 1294 -91 989 -36 
Q 684 19 347 128 
L 347 722 
Q 666 556 975 473 
Q 1284 391 1588 391 
Q 1994 391 2212 530 
Q 2431 669 2431 922 
Q 2431 1156 2273 1281 
Q 2116 1406 1581 1522 
L 1381 1569 
Q 847 1681 609 1914 
Q 372 2147 372 2553 
Q 372 3047 722 3315 
Q 1072 3584 1716 3584 
Q 2034 3584 2315 3537 
Q 2597 3491 2834 3397 
z
" transform="scale(0.015625)"/>
       <path id="DejaVuSans-64" d="M 2906 2969 
L 2906 4863 
L 3481 4863 
L 3481 0 
L 2906 0 
L 2906 525 
Q 2725 213 2448 61 
Q 2172 -91 1784 -91 
Q 1150 -91 751 415 
Q 353 922 353 1747 
Q 353 2572 751 3078 
Q 1150 3584 1784 3584 
Q 2172 3584 2448 3432 
Q 2725 3281 2906 2969 
z
M 947 1747 
Q 947 1113 1208 752 
Q 1469 391 1925 391 
Q 2381 391 2643 752 
Q 2906 1113 2906 1747 
Q 2906 2381 2643 2742 
Q 2381 3103 1925 3103 
Q 1469 3103 1208 2742 
Q 947 2381 947 1747 
z
" transform="scale(0.015625)"/>
       <path id="DejaVuSans-67" d="M 2906 1791 
Q 2906 2416 2648 2759 
Q 2391 3103 1925 3103 
Q 1463 3103 1205 2759 
Q 947 2416 947 1791 
Q 947 1169 1205 825 
Q 1463 481 1925 481 
Q 2391 481 2648 825 
Q 2906 1169 2906 1791 
z
M 3481 434 
Q 3481 -459 3084 -895 
Q 2688 -1331 1869 -1331 
Q 1566 -1331 1297 -1286 
Q 1028 -1241 775 -1147 
L 775 -588 
Q 1028 -725 1275 -790 
Q 1522 -856 1778 -856 
Q 2344 -856 2625 -561 
Q 2906 -266 2906 331 
L 2906 616 
Q 2728 306 2450 153 
Q 2172 0 1784 0 
Q 1141 0 747 490 
Q 353 981 353 1791 
Q 353 2603 747 3093 
Q 1141 3584 1784 3584 
Q 2172 3584 2450 3431 
Q 2728 3278 2906 2969 
L 2906 3500 
L 3481 3500 
L 3481 434 
z
" transform="scale(0.015625)"/>
      </defs>
      <use xlink:href="#DejaVuSans-50"/>
      <use xlink:href="#DejaVuSans-68" x="60.302734"/>
      <use xlink:href="#DejaVuSans-61" x="123.681641"/>
      <use xlink:href="#DejaVuSans-73" x="184.960938"/>
      <use xlink:href="#DejaVuSans-65" x="237.060547"/>
      <use xlink:href="#DejaVuSans-30" x="298.583984"/>
      <use xlink:href="#DejaVuSans-20" x="362.207031"/>
      <use xlink:href="#DejaVuSans-5b" x="393.994141"/>
      <use xlink:href="#DejaVuSans-64" x="433.007812"/>
      <use xlink:href="#DejaVuSans-65" x="496.484375"/>
      <use xlink:href="#DejaVuSans-67" x="558.007812"/>
      <use xlink:href="#DejaVuSans-5d" x="621.484375"/>
     </g>
    </g>
   </g>
   <g id="line2d_17">
    <path d="M 69.98429 67.183067 
L 81.179274 81.991212 
L 92.374258 96.011481 
L 103.569243 100.381943 
L 114.764227 115.563433 
L 125.959211 115.288335 
L 137.154196 137.35455 
L 148.34918 123.095523 
L 159.544164 143.447591 
L 170.739149 153.272468 
L 181.934133 156.925213 
L 193.129117 194.509794 
L 204.324102 179.744631 
L 215.519086 194.644116 
L 226.71407 184.143767 
L 237.909055 186.062916 
L 249.104039 168.862207 
L 260.299023 186.241381 
L 271.494008 197.869719 
L 282.688992 180.789535 
L 293.883976 193.870311 
L 305.078961 185.099783 
L 316.273945 207.40102 
L 327.468929 205.270564 
L 338.663914 218.223045 
L 349.858898 256.828061 
L 361.053882 258.86446 
L 372.248867 261.118852 
L 383.443851 247.03333 
L 394.638835 295.776 
" clip-path="url(#p8053aae720)" style="fill: none; stroke: #440154; stroke-width: 1.5; stroke-linecap: square"/>
   </g>
   <g id="line2d_18">
    <path d="M 69.98429 69.233684 
L 81.179274 67.614465 
L 92.374258 84.568491 
L 103.569243 119.412952 
L 114.764227 111.334313 
L 125.959211 123.368407 
L 137.154196 128.336307 
L 148.34918 153.835192 
L 159.544164 146.689533 
L 170.739149 165.280623 
L 181.934133 175.959119 
L 193.129117 179.074805 
L 204.324102 177.599708 
L 215.519086 207.604175 
L 226.71407 174.308873 
L 237.909055 191.564536 
L 249.104039 191.483235 
L 260.299023 176.695637 
L 271.494008 179.263511 
L 282.688992 191.152849 
L 293.883976 169.643984 
L 305.078961 192.530155 
L 316.273945 194.202881 
L 327.468929 216.386341 
L 338.663914 235.425141 
L 349.858898 233.465685 
L 361.053882 249.819266 
L 372.248867 252.376079 
L 383.443851 275.074924 
L 394.638835 290.127412 
" clip-path="url(#p8053aae720)" style="fill: none; stroke: #470d60; stroke-width: 1.5; stroke-linecap: square"/>
   </g>
   <g id="line2d_19">
    <path d="M 69.98429 57.416271 
L 81.179274 75.079679 
L 92.374258 74.903376 
L 103.569243 96.910729 
L 114.764227 100.47034 
L 125.959211 123.473497 
L 137.154196 121.958558 
L 148.34918 127.89539 
L 159.544164 157.880522 
L 170.739149 171.227117 
L 181.934133 180.922549 
L 193.129117 172.367797 
L 204.324102 192.899058 
L 215.519086 190.377884 
L 226.71407 196.906017 
L 237.909055 183.585116 
L 249.104039 188.470609 
L 260.299023 187.462705 
L 271.494008 194.66625 
L 282.688992 201.730214 
L 293.883976 193.311415 
L 305.078961 196.668107 
L 316.273945 223.320716 
L 327.468929 223.137097 
L 338.663914 224.03324 
L 349.858898 235.64163 
L 361.053882 239.789113 
L 372.248867 244.652266 
L 383.443851 262.277248 
L 394.638835 277.774681 
" clip-path="url(#p8053aae720)" style="fill: none; stroke: #481a6c; stroke-width: 1.5; stroke-linecap: square"/>
   </g>
   <g id="line2d_20">
    <path d="M 69.98429 66.336062 
L 81.179274 80.648751 
L 92.374258 84.934585 
L 103.569243 84.621854 
L 114.764227 105.328872 
L 125.959211 116.648803 
L 137.154196 124.904367 
L 148.34918 144.240259 
L 159.544164 144.469953 
L 170.739149 162.166739 
L 181.934133 172.586297 
L 193.129117 176.700389 
L 204.324102 192.419033 
L 215.519086 178.629527 
L 226.71407 185.309162 
L 237.909055 179.781374 
L 249.104039 180.894547 
L 260.299023 173.479558 
L 271.494008 188.923743 
L 282.688992 179.550497 
L 293.883976 196.532742 
L 305.078961 208.168677 
L 316.273945 207.403762 
L 327.468929 219.138958 
L 338.663914 216.612604 
L 349.858898 236.920337 
L 361.053882 247.244735 
L 372.248867 256.917493 
L 383.443851 261.552708 
L 394.638835 277.52031 
" clip-path="url(#p8053aae720)" style="fill: none; stroke: #482576; stroke-width: 1.5; stroke-linecap: square"/>
   </g>
   <g id="line2d_21">
    <path d="M 69.98429 62.41409 
L 81.179274 74.249974 
L 92.374258 78.319074 
L 103.569243 88.04259 
L 114.764227 115.069384 
L 125.959211 121.454049 
L 137.154196 129.26769 
L 148.34918 140.432194 
L 159.544164 152.31364 
L 170.739149 154.95983 
L 181.934133 165.367818 
L 193.129117 172.685581 
L 204.324102 186.892409 
L 215.519086 187.101468 
L 226.71407 185.10399 
L 237.909055 185.512 
L 249.104039 183.909648 
L 260.299023 171.877366 
L 271.494008 186.74203 
L 282.688992 187.380738 
L 293.883976 183.888148 
L 305.078961 198.018648 
L 316.273945 204.098506 
L 327.468929 216.152112 
L 338.663914 223.575193 
L 349.858898 239.778391 
L 361.053882 239.090272 
L 372.248867 261.07181 
L 383.443851 265.648581 
L 394.638835 268.668856 
" clip-path="url(#p8053aae720)" style="fill: none; stroke: #46307e; stroke-width: 1.5; stroke-linecap: square"/>
   </g>
   <g id="line2d_22">
    <path d="M 69.98429 59.227061 
L 81.179274 71.549758 
L 92.374258 84.508605 
L 103.569243 93.166494 
L 114.764227 101.468942 
L 125.959211 118.207493 
L 137.154196 131.504781 
L 148.34918 148.972736 
L 159.544164 158.613671 
L 170.739149 154.849589 
L 181.934133 164.803157 
L 193.129117 172.264988 
L 204.324102 189.801636 
L 215.519086 175.931016 
L 226.71407 171.72513 
L 237.909055 187.563702 
L 249.104039 187.753413 
L 260.299023 175.270416 
L 271.494008 188.40504 
L 282.688992 185.130592 
L 293.883976 194.233706 
L 305.078961 195.379443 
L 316.273945 196.60718 
L 327.468929 224.393394 
L 338.663914 224.362306 
L 349.858898 225.397749 
L 361.053882 245.457998 
L 372.248867 254.499201 
L 383.443851 265.315687 
L 394.638835 261.739876 
" clip-path="url(#p8053aae720)" style="fill: none; stroke: #443b84; stroke-width: 1.5; stroke-linecap: square"/>
   </g>
   <g id="line2d_23">
    <path d="M 69.98429 53.856 
L 81.179274 65.941838 
L 92.374258 77.935451 
L 103.569243 98.408778 
L 114.764227 103.560531 
L 125.959211 123.253639 
L 137.154196 136.184919 
L 148.34918 142.365074 
L 159.544164 147.611911 
L 170.739149 164.394069 
L 181.934133 179.523668 
L 193.129117 174.343357 
L 204.324102 183.779792 
L 215.519086 179.901598 
L 226.71407 189.530598 
L 237.909055 178.396202 
L 249.104039 177.376268 
L 260.299023 188.366048 
L 271.494008 190.035828 
L 282.688992 184.357451 
L 293.883976 189.553161 
L 305.078961 204.39343 
L 316.273945 202.257498 
L 327.468929 218.818322 
L 338.663914 223.704547 
L 349.858898 237.497286 
L 361.053882 238.225908 
L 372.248867 251.471375 
L 383.443851 265.770857 
L 394.638835 274.113626 
" clip-path="url(#p8053aae720)" style="fill: none; stroke: #404588; stroke-width: 1.5; stroke-linecap: square"/>
   </g>
   <g id="line2d_24">
    <path d="M 69.98429 63.605111 
L 81.179274 70.432891 
L 92.374258 81.883262 
L 103.569243 93.138491 
L 114.764227 111.243131 
L 125.959211 115.935889 
L 137.154196 129.822364 
L 148.34918 146.508453 
L 159.544164 144.608114 
L 170.739149 164.973319 
L 181.934133 172.940958 
L 193.129117 177.774661 
L 204.324102 187.826973 
L 215.519086 182.511229 
L 226.71407 182.111387 
L 237.909055 178.802464 
L 249.104039 185.033592 
L 260.299023 183.44791 
L 271.494008 176.226515 
L 282.688992 186.410843 
L 293.883976 185.713218 
L 305.078961 203.945158 
L 316.273945 203.906354 
L 327.468929 211.074478 
L 338.663914 220.029038 
L 349.858898 237.32488 
L 361.053882 238.786502 
L 372.248867 255.116452 
L 383.443851 266.80082 
L 394.638835 271.081962 
" clip-path="url(#p8053aae720)" style="fill: none; stroke: #3c4f8a; stroke-width: 1.5; stroke-linecap: square"/>
   </g>
   <g id="line2d_25">
    <path d="M 69.98429 60.372699 
L 81.179274 68.294242 
L 92.374258 81.605965 
L 103.569243 101.304297 
L 114.764227 106.447647 
L 125.959211 118.192786 
L 137.154196 126.826501 
L 148.34918 140.243355 
L 159.544164 152.94744 
L 170.739149 165.832941 
L 181.934133 172.902805 
L 193.129117 171.175994 
L 204.324102 186.843263 
L 215.519086 188.576335 
L 226.71407 187.16173 
L 237.909055 183.875505 
L 249.104039 175.987659 
L 260.299023 184.762973 
L 271.494008 182.426089 
L 282.688992 183.426657 
L 293.883976 188.041733 
L 305.078961 198.784824 
L 316.273945 210.362224 
L 327.468929 209.210813 
L 338.663914 220.330049 
L 349.858898 237.518349 
L 361.053882 242.499104 
L 372.248867 253.929327 
L 383.443851 254.260372 
L 394.638835 271.266322 
" clip-path="url(#p8053aae720)" style="fill: none; stroke: #38598c; stroke-width: 1.5; stroke-linecap: square"/>
   </g>
   <g id="line2d_26">
    <path d="M 69.98429 58.86053 
L 81.179274 74.91048 
L 92.374258 79.599628 
L 103.569243 93.091294 
L 114.764227 101.679864 
L 125.959211 115.783624 
L 137.154196 130.081528 
L 148.34918 140.619412 
L 159.544164 150.876813 
L 170.739149 171.548297 
L 181.934133 166.598738 
L 193.129117 178.293141 
L 204.324102 180.300899 
L 215.519086 183.857953 
L 226.71407 179.961484 
L 237.909055 185.562292 
L 249.104039 188.42826 
L 260.299023 177.8685 
L 271.494008 179.917821 
L 282.688992 185.80746 
L 293.883976 188.130381 
L 305.078961 196.069376 
L 316.273945 201.284977 
L 327.468929 208.020264 
L 338.663914 225.353551 
L 349.858898 230.750116 
L 361.053882 243.815553 
L 372.248867 255.232864 
L 383.443851 261.18955 
L 394.638835 281.918692 
" clip-path="url(#p8053aae720)" style="fill: none; stroke: #33628d; stroke-width: 1.5; stroke-linecap: square"/>
   </g>
   <g id="line2d_27">
    <path d="M 69.98429 64.124322 
L 81.179274 75.361222 
L 92.374258 81.872836 
L 103.569243 100.633308 
L 114.764227 107.625744 
L 125.959211 121.78936 
L 137.154196 131.631808 
L 148.34918 144.761454 
L 159.544164 153.950713 
L 170.739149 166.496683 
L 181.934133 176.751766 
L 193.129117 176.740877 
L 204.324102 182.335327 
L 215.519086 186.468762 
L 226.71407 190.018237 
L 237.909055 189.111074 
L 249.104039 181.282951 
L 260.299023 178.962593 
L 271.494008 188.972404 
L 282.688992 181.256591 
L 293.883976 189.67751 
L 305.078961 192.639493 
L 316.273945 204.734024 
L 327.468929 217.321986 
L 338.663914 217.859282 
L 349.858898 228.246152 
L 361.053882 242.937881 
L 372.248867 254.365781 
L 383.443851 263.140943 
L 394.638835 271.507853 
" clip-path="url(#p8053aae720)" style="fill: none; stroke: #2f6b8e; stroke-width: 1.5; stroke-linecap: square"/>
   </g>
   <g id="line2d_28">
    <path d="M 69.98429 56.049156 
L 81.179274 79.846438 
L 92.374258 78.734429 
L 103.569243 95.656625 
L 114.764227 108.864638 
L 125.959211 116.176012 
L 137.154196 133.21733 
L 148.34918 137.747733 
L 159.544164 150.220543 
L 170.739149 159.491362 
L 181.934133 169.24875 
L 193.129117 176.170873 
L 204.324102 184.758142 
L 215.519086 187.030901 
L 226.71407 184.049973 
L 237.909055 185.900705 
L 249.104039 180.686377 
L 260.299023 180.915603 
L 271.494008 184.517753 
L 282.688992 190.738687 
L 293.883976 189.587286 
L 305.078961 199.624727 
L 316.273945 206.825305 
L 327.468929 204.705038 
L 338.663914 224.358259 
L 349.858898 236.796294 
L 361.053882 247.221716 
L 372.248867 253.152144 
L 383.443851 262.620156 
L 394.638835 267.267025 
" clip-path="url(#p8053aae720)" style="fill: none; stroke: #2c738e; stroke-width: 1.5; stroke-linecap: square"/>
   </g>
   <g id="line2d_29">
    <path d="M 69.98429 68.289942 
L 81.179274 72.920171 
L 92.374258 82.651594 
L 103.569243 97.754046 
L 114.764227 105.654218 
L 125.959211 116.488467 
L 137.154196 127.077067 
L 148.34918 141.050727 
L 159.544164 146.053677 
L 170.739149 162.360678 
L 181.934133 174.887166 
L 193.129117 175.312496 
L 204.324102 186.149509 
L 215.519086 188.508546 
L 226.71407 193.645043 
L 237.909055 183.270904 
L 249.104039 182.198925 
L 260.299023 185.358 
L 271.494008 177.794557 
L 282.688992 188.952602 
L 293.883976 191.435384 
L 305.078961 194.199474 
L 316.273945 198.176114 
L 327.468929 214.569325 
L 338.663914 229.581701 
L 349.858898 233.964859 
L 361.053882 244.400907 
L 372.248867 257.197474 
L 383.443851 266.699694 
L 394.638835 272.85321 
" clip-path="url(#p8053aae720)" style="fill: none; stroke: #297b8e; stroke-width: 1.5; stroke-linecap: square"/>
   </g>
   <g id="line2d_30">
    <path d="M 69.98429 64.272406 
L 81.179274 77.301583 
L 92.374258 85.676338 
L 103.569243 94.988028 
L 114.764227 106.028106 
L 125.959211 119.342136 
L 137.154196 134.280365 
L 148.34918 144.500429 
L 159.544164 149.001789 
L 170.739149 157.456906 
L 181.934133 175.444052 
L 193.129117 180.936495 
L 204.324102 183.790701 
L 215.519086 184.372082 
L 226.71407 187.869042 
L 237.909055 178.056749 
L 249.104039 174.529265 
L 260.299023 179.390275 
L 271.494008 179.610511 
L 282.688992 178.729869 
L 293.883976 187.207559 
L 305.078961 195.115998 
L 316.273945 205.316645 
L 327.468929 218.101976 
L 338.663914 218.397997 
L 349.858898 235.109956 
L 361.053882 243.882913 
L 372.248867 249.78641 
L 383.443851 259.772102 
L 394.638835 270.220451 
" clip-path="url(#p8053aae720)" style="fill: none; stroke: #25838e; stroke-width: 1.5; stroke-linecap: square"/>
   </g>
   <g id="line2d_31">
    <path d="M 69.98429 63.390421 
L 81.179274 74.16534 
L 92.374258 83.204166 
L 103.569243 94.602485 
L 114.764227 101.719901 
L 125.959211 116.157371 
L 137.154196 131.536769 
L 148.34918 139.742742 
L 159.544164 152.109203 
L 170.739149 158.776981 
L 181.934133 168.929001 
L 193.129117 177.785578 
L 204.324102 179.960255 
L 215.519086 185.620653 
L 226.71407 188.11414 
L 237.909055 179.502665 
L 249.104039 181.826597 
L 260.299023 182.067686 
L 271.494008 177.094871 
L 282.688992 181.232897 
L 293.883976 189.649381 
L 305.078961 202.779681 
L 316.273945 205.420203 
L 327.468929 213.062679 
L 338.663914 224.955395 
L 349.858898 234.310992 
L 361.053882 249.824452 
L 372.248867 251.807998 
L 383.443851 265.179678 
L 394.638835 273.365178 
" clip-path="url(#p8053aae720)" style="fill: none; stroke: #228c8d; stroke-width: 1.5; stroke-linecap: square"/>
   </g>
   <g id="line2d_32">
    <path d="M 69.98429 60.760947 
L 81.179274 78.137319 
L 92.374258 88.451271 
L 103.569243 98.151605 
L 114.764227 108.746788 
L 125.959211 121.335865 
L 137.154196 129.213705 
L 148.34918 138.949254 
L 159.544164 149.339716 
L 170.739149 162.53297 
L 181.934133 173.202538 
L 193.129117 178.173935 
L 204.324102 190.951876 
L 215.519086 187.423641 
L 226.71407 185.729986 
L 237.909055 185.044077 
L 249.104039 183.423217 
L 260.299023 176.925212 
L 271.494008 175.153086 
L 282.688992 185.64135 
L 293.883976 190.353672 
L 305.078961 200.649535 
L 316.273945 206.273374 
L 327.468929 208.231723 
L 338.663914 226.00365 
L 349.858898 234.595116 
L 361.053882 243.261634 
L 372.248867 255.132864 
L 383.443851 262.775251 
L 394.638835 274.288868 
" clip-path="url(#p8053aae720)" style="fill: none; stroke: #1f948c; stroke-width: 1.5; stroke-linecap: square"/>
   </g>
   <g id="line2d_33">
    <path d="M 69.98429 63.317778 
L 81.179274 75.69053 
L 92.374258 81.653694 
L 103.569243 89.500142 
L 114.764227 104.950459 
L 125.959211 117.635218 
L 137.154196 128.952895 
L 148.34918 143.009878 
L 159.544164 150.560314 
L 170.739149 161.826414 
L 181.934133 171.444963 
L 193.129117 177.98226 
L 204.324102 182.975309 
L 215.519086 188.607036 
L 226.71407 184.609643 
L 237.909055 183.14106 
L 249.104039 181.271768 
L 260.299023 181.262708 
L 271.494008 183.873114 
L 282.688992 182.742899 
L 293.883976 188.967666 
L 305.078961 197.674492 
L 316.273945 203.823462 
L 327.468929 213.664188 
L 338.663914 224.819825 
L 349.858898 230.735177 
L 361.053882 248.150529 
L 372.248867 253.052959 
L 383.443851 266.049297 
L 394.638835 273.275788 
" clip-path="url(#p8053aae720)" style="fill: none; stroke: #1e9d89; stroke-width: 1.5; stroke-linecap: square"/>
   </g>
   <g id="line2d_34">
    <path d="M 69.98429 63.735979 
L 81.179274 75.298987 
L 92.374258 85.899501 
L 103.569243 94.510261 
L 114.764227 108.624928 
L 125.959211 119.046199 
L 137.154196 127.602385 
L 148.34918 141.476913 
L 159.544164 152.248631 
L 170.739149 162.377993 
L 181.934133 170.663674 
L 193.129117 176.337138 
L 204.324102 183.555778 
L 215.519086 187.096984 
L 226.71407 181.537243 
L 237.909055 179.548043 
L 249.104039 176.834351 
L 260.299023 177.704958 
L 271.494008 178.732488 
L 282.688992 184.653091 
L 293.883976 187.666469 
L 305.078961 199.425563 
L 316.273945 207.18603 
L 327.468929 218.409127 
L 338.663914 220.757023 
L 349.858898 233.22028 
L 361.053882 245.254515 
L 372.248867 254.237874 
L 383.443851 263.478931 
L 394.638835 275.066255 
" clip-path="url(#p8053aae720)" style="fill: none; stroke: #21a585; stroke-width: 1.5; stroke-linecap: square"/>
   </g>
   <g id="line2d_35">
    <path d="M 69.98429 65.158833 
L 81.179274 76.663673 
L 92.374258 83.837084 
L 103.569243 97.683674 
L 114.764227 109.887198 
L 125.959211 117.217132 
L 137.154196 129.854711 
L 148.34918 140.753169 
L 159.544164 152.680472 
L 170.739149 158.272809 
L 181.934133 170.732596 
L 193.129117 176.153693 
L 204.324102 181.395341 
L 215.519086 186.165023 
L 226.71407 180.745533 
L 237.909055 178.393717 
L 249.104039 183.168415 
L 260.299023 177.887275 
L 271.494008 179.499267 
L 282.688992 184.307547 
L 293.883976 183.852883 
L 305.078961 194.848145 
L 316.273945 204.534216 
L 327.468929 217.301643 
L 338.663914 226.567039 
L 349.858898 230.82252 
L 361.053882 247.512971 
L 372.248867 251.326066 
L 383.443851 267.490374 
L 394.638835 277.554922 
" clip-path="url(#p8053aae720)" style="fill: none; stroke: #26ad81; stroke-width: 1.5; stroke-linecap: square"/>
   </g>
   <g id="line2d_36">
    <path d="M 69.98429 63.172607 
L 81.179274 72.878863 
L 92.374258 82.960421 
L 103.569243 96.940108 
L 114.764227 108.557738 
L 125.959211 114.718512 
L 137.154196 136.004103 
L 148.34918 145.559471 
L 159.544164 153.18669 
L 170.739149 162.903579 
L 181.934133 173.02309 
L 193.129117 181.687195 
L 204.324102 187.721462 
L 215.519086 186.47956 
L 226.71407 183.248004 
L 237.909055 179.297294 
L 249.104039 180.915358 
L 260.299023 177.034827 
L 271.494008 183.207149 
L 282.688992 178.659328 
L 293.883976 190.071421 
L 305.078961 195.709212 
L 316.273945 206.514906 
L 327.468929 212.152788 
L 338.663914 227.038085 
L 349.858898 229.868394 
L 361.053882 243.241791 
L 372.248867 249.973279 
L 383.443851 261.710363 
L 394.638835 272.027896 
" clip-path="url(#p8053aae720)" style="fill: none; stroke: #31b57b; stroke-width: 1.5; stroke-linecap: square"/>
   </g>
   <g id="line2d_37">
    <path d="M 69.98429 64.054202 
L 81.179274 76.303616 
L 92.374258 85.679804 
L 103.569243 95.380041 
L 114.764227 108.509974 
L 125.959211 117.961072 
L 137.154196 132.683213 
L 148.34918 140.097515 
L 159.544164 149.401721 
L 170.739149 158.326673 
L 181.934133 173.878623 
L 193.129117 179.025104 
L 204.324102 181.423203 
L 215.519086 185.339518 
L 226.71407 189.463672 
L 237.909055 184.838812 
L 249.104039 183.741483 
L 260.299023 176.319033 
L 271.494008 181.52287 
L 282.688992 178.596669 
L 293.883976 188.335888 
L 305.078961 196.731434 
L 316.273945 204.312224 
L 327.468929 214.968678 
L 338.663914 225.207023 
L 349.858898 235.854735 
L 361.053882 244.719206 
L 372.248867 250.639198 
L 383.443851 265.911507 
L 394.638835 271.870382 
" clip-path="url(#p8053aae720)" style="fill: none; stroke: #3fbc73; stroke-width: 1.5; stroke-linecap: square"/>
   </g>
   <g id="line2d_38">
    <path d="M 69.98429 61.498644 
L 81.179274 75.241701 
L 92.374258 90.948978 
L 103.569243 96.799157 
L 114.764227 107.088287 
L 125.959211 119.436565 
L 137.154196 129.857468 
L 148.34918 141.698392 
L 159.544164 155.277523 
L 170.739149 162.927232 
L 181.934133 170.940912 
L 193.129117 181.492155 
L 204.324102 186.192809 
L 215.519086 184.961591 
L 226.71407 186.329534 
L 237.909055 185.02237 
L 249.104039 181.563576 
L 260.299023 182.272633 
L 271.494008 186.904852 
L 282.688992 185.601936 
L 293.883976 191.808718 
L 305.078961 198.426559 
L 316.273945 205.470836 
L 327.468929 216.051467 
L 338.663914 225.631649 
L 349.858898 237.378956 
L 361.053882 243.121155 
L 372.248867 255.755602 
L 383.443851 264.227863 
L 394.638835 276.659855 
" clip-path="url(#p8053aae720)" style="fill: none; stroke: #50c46a; stroke-width: 1.5; stroke-linecap: square"/>
   </g>
   <g id="line2d_39">
    <path d="M 69.98429 61.221424 
L 81.179274 74.866163 
L 92.374258 83.078771 
L 103.569243 95.654007 
L 114.764227 105.235427 
L 125.959211 119.909675 
L 137.154196 127.084387 
L 148.34918 142.528767 
L 159.544164 149.60764 
L 170.739149 163.884053 
L 181.934133 169.380916 
L 193.129117 179.669803 
L 204.324102 185.911397 
L 215.519086 189.556217 
L 226.71407 186.39616 
L 237.909055 183.296334 
L 249.104039 178.821197 
L 260.299023 180.10106 
L 271.494008 182.284976 
L 282.688992 188.04279 
L 293.883976 193.182298 
L 305.078961 200.219712 
L 316.273945 205.790976 
L 327.468929 217.300958 
L 338.663914 226.342174 
L 349.858898 232.825436 
L 361.053882 245.67586 
L 372.248867 252.557589 
L 383.443851 265.394562 
L 394.638835 274.333384 
" clip-path="url(#p8053aae720)" style="fill: none; stroke: #63cb5f; stroke-width: 1.5; stroke-linecap: square"/>
   </g>
   <g id="line2d_40">
    <path d="M 69.98429 61.296534 
L 81.179274 76.242537 
L 92.374258 83.942507 
L 103.569243 95.75926 
L 114.764227 107.399073 
L 125.959211 121.873603 
L 137.154196 131.953828 
L 148.34918 142.205405 
L 159.544164 155.624667 
L 170.739149 162.069369 
L 181.934133 172.076025 
L 193.129117 179.853148 
L 204.324102 182.318719 
L 215.519086 186.555125 
L 226.71407 184.362434 
L 237.909055 183.673835 
L 249.104039 185.856905 
L 260.299023 178.875284 
L 271.494008 182.194105 
L 282.688992 184.877775 
L 293.883976 192.941789 
L 305.078961 197.14867 
L 316.273945 205.03513 
L 327.468929 211.567084 
L 338.663914 220.607188 
L 349.858898 233.879802 
L 361.053882 242.951651 
L 372.248867 252.586525 
L 383.443851 264.938901 
L 394.638835 271.533608 
" clip-path="url(#p8053aae720)" style="fill: none; stroke: #77d153; stroke-width: 1.5; stroke-linecap: square"/>
   </g>
   <g id="line2d_41">
    <path d="M 69.98429 62.822975 
L 81.179274 73.658448 
L 92.374258 85.27393 
L 103.569243 96.448709 
L 114.764227 109.249508 
L 125.959211 120.653631 
L 137.154196 128.302853 
L 148.34918 139.399196 
L 159.544164 152.277838 
L 170.739149 160.407931 
L 181.934133 168.084321 
L 193.129117 178.15224 
L 204.324102 181.634917 
L 215.519086 187.88283 
L 226.71407 187.810925 
L 237.909055 185.146783 
L 249.104039 182.615684 
L 260.299023 184.183427 
L 271.494008 182.361656 
L 282.688992 183.096604 
L 293.883976 191.016603 
L 305.078961 201.674969 
L 316.273945 206.377614 
L 327.468929 218.19538 
L 338.663914 225.980762 
L 349.858898 234.370096 
L 361.053882 247.184996 
L 372.248867 255.135136 
L 383.443851 265.188177 
L 394.638835 277.998054 
" clip-path="url(#p8053aae720)" style="fill: none; stroke: #8bd646; stroke-width: 1.5; stroke-linecap: square"/>
   </g>
   <g id="line2d_42">
    <path d="M 69.98429 64.382663 
L 81.179274 73.611694 
L 92.374258 84.708295 
L 103.569243 96.550678 
L 114.764227 111.499007 
L 125.959211 117.954688 
L 137.154196 133.75241 
L 148.34918 139.230906 
L 159.544164 152.229106 
L 170.739149 168.297555 
L 181.934133 169.15884 
L 193.129117 178.736429 
L 204.324102 187.933111 
L 215.519086 188.741181 
L 226.71407 187.62514 
L 237.909055 182.160114 
L 249.104039 184.088824 
L 260.299023 183.058879 
L 271.494008 180.04445 
L 282.688992 185.421103 
L 293.883976 189.513886 
L 305.078961 201.37539 
L 316.273945 206.100954 
L 327.468929 218.684879 
L 338.663914 224.222069 
L 349.858898 236.468035 
L 361.053882 245.920469 
L 372.248867 256.034252 
L 383.443851 266.230997 
L 394.638835 276.409737 
" clip-path="url(#p8053aae720)" style="fill: none; stroke: #a2da37; stroke-width: 1.5; stroke-linecap: square"/>
   </g>
   <g id="line2d_43">
    <path d="M 69.98429 64.946538 
L 81.179274 73.698545 
L 92.374258 85.975599 
L 103.569243 98.478658 
L 114.764227 108.665843 
L 125.959211 117.587506 
L 137.154196 129.914035 
L 148.34918 143.614829 
L 159.544164 151.406624 
L 170.739149 164.449398 
L 181.934133 173.424099 
L 193.129117 182.223499 
L 204.324102 186.381457 
L 215.519086 185.241256 
L 226.71407 189.592311 
L 237.909055 185.201157 
L 249.104039 183.532112 
L 260.299023 178.962776 
L 271.494008 182.133301 
L 282.688992 185.575671 
L 293.883976 192.632171 
L 305.078961 200.189396 
L 316.273945 204.77602 
L 327.468929 214.309217 
L 338.663914 224.489369 
L 349.858898 235.348616 
L 361.053882 244.982855 
L 372.248867 260.102876 
L 383.443851 267.010022 
L 394.638835 275.561488 
" clip-path="url(#p8053aae720)" style="fill: none; stroke: #bade28; stroke-width: 1.5; stroke-linecap: square"/>
   </g>
   <g id="line2d_44">
    <path d="M 69.98429 61.302981 
L 81.179274 72.191146 
L 92.374258 86.606772 
L 103.569243 96.539026 
L 114.764227 107.124699 
L 125.959211 119.188007 
L 137.154196 132.698097 
L 148.34918 143.509594 
L 159.544164 150.918414 
L 170.739149 166.82225 
L 181.934133 172.820196 
L 193.129117 177.541552 
L 204.324102 182.837818 
L 215.519086 184.728227 
L 226.71407 183.419636 
L 237.909055 184.499548 
L 249.104039 183.840294 
L 260.299023 179.355669 
L 271.494008 185.937621 
L 282.688992 182.900098 
L 293.883976 190.511865 
L 305.078961 199.439316 
L 316.273945 212.050905 
L 327.468929 214.808108 
L 338.663914 225.05129 
L 349.858898 236.928549 
L 361.053882 246.375792 
L 372.248867 256.178776 
L 383.443851 265.616134 
L 394.638835 276.545323 
" clip-path="url(#p8053aae720)" style="fill: none; stroke: #d2e21b; stroke-width: 1.5; stroke-linecap: square"/>
   </g>
   <g id="line2d_45">
    <path d="M 69.98429 63.167394 
L 81.179274 73.506312 
L 92.374258 88.087534 
L 103.569243 99.248144 
L 114.764227 104.277121 
L 125.959211 122.495126 
L 137.154196 130.84982 
L 148.34918 141.03049 
L 159.544164 151.774806 
L 170.739149 166.704643 
L 181.934133 173.332255 
L 193.129117 181.226037 
L 204.324102 185.780505 
L 215.519086 189.309662 
L 226.71407 187.667668 
L 237.909055 179.747665 
L 249.104039 186.579327 
L 260.299023 183.217723 
L 271.494008 185.352393 
L 282.688992 183.378714 
L 293.883976 189.849736 
L 305.078961 199.24042 
L 316.273945 209.742461 
L 327.468929 216.64614 
L 338.663914 226.308983 
L 349.858898 238.739435 
L 361.053882 245.855982 
L 372.248867 256.663749 
L 383.443851 266.662414 
L 394.638835 280.21804 
" clip-path="url(#p8053aae720)" style="fill: none; stroke: #eae51a; stroke-width: 1.5; stroke-linecap: square"/>
   </g>
   <g id="line2d_46">
    <path d="M 69.98429 63.646985 
L 81.179274 75.90787 
L 92.374258 88.654974 
L 103.569243 101.00086 
L 114.764227 107.89092 
L 125.959211 121.442328 
L 137.154196 130.006706 
L 148.34918 141.602192 
L 159.544164 154.71491 
L 170.739149 162.695526 
L 181.934133 171.751411 
L 193.129117 180.847569 
L 204.324102 185.592729 
L 215.519086 189.996333 
L 226.71407 187.701214 
L 237.909055 188.429988 
L 249.104039 183.622506 
L 260.299023 184.322479 
L 271.494008 182.676325 
L 282.688992 185.982767 
L 293.883976 194.12725 
L 305.078961 197.908517 
L 316.273945 207.355674 
L 327.468929 217.924405 
L 338.663914 226.830414 
L 349.858898 235.378523 
L 361.053882 245.493783 
L 372.248867 254.435712 
L 383.443851 265.881454 
L 394.638835 278.358448 
" clip-path="url(#p8053aae720)" style="fill: none; stroke: #fde725; stroke-width: 1.5; stroke-linecap: square"/>
   </g>
   <g id="patch_3">
    <path d="M 53.751563 307.872 
L 53.751563 41.76 
" style="fill: none; stroke: #000000; stroke-width: 0.8; stroke-linejoin: miter; stroke-linecap: square"/>
   </g>
   <g id="patch_4">
    <path d="M 410.871562 307.872 
L 410.871562 41.76 
" style="fill: none; stroke: #000000; stroke-width: 0.8; stroke-linejoin: miter; stroke-linecap: square"/>
   </g>
   <g id="patch_5">
    <path d="M 53.751563 307.872 
L 410.871563 307.872 
" style="fill: none; stroke: #000000; stroke-width: 0.8; stroke-linejoin: miter; stroke-linecap: square"/>
   </g>
   <g id="patch_6">
    <path d="M 53.751563 41.76 
L 410.871563 41.76 
" style="fill: none; stroke: #000000; stroke-width: 0.8; stroke-linejoin: miter; stroke-linecap: square"/>
   </g>
   <g id="legend_1">
    <g id="patch_7">
     <path d="M 430.727562 307.872 
L 644.611937 307.872 
Q 646.611937 307.872 646.611937 305.872 
L 646.611937 145.412625 
Q 646.611937 143.412625 644.611937 143.412625 
L 430.727562 143.412625 
Q 428.727562 143.412625 428.727562 145.412625 
L 428.727562 305.872 
Q 428.727562 307.872 430.727562 307.872 
z
" style="fill: #ffffff; opacity: 0.8; stroke: #cccccc; stroke-linejoin: miter"/>
    </g>
    <g id="text_20">
     <!-- Readout pulse amplitude () -->
     <g transform="translate(469.568969 155.011063) scale(0.1 -0.1)">
      <defs>
       <path id="DejaVuSans-52" d="M 2841 2188 
Q 3044 2119 3236 1894 
Q 3428 1669 3622 1275 
L 4263 0 
L 3584 0 
L 2988 1197 
Q 2756 1666 2539 1819 
Q 2322 1972 1947 1972 
L 1259 1972 
L 1259 0 
L 628 0 
L 628 4666 
L 2053 4666 
Q 2853 4666 3247 4331 
Q 3641 3997 3641 3322 
Q 3641 2881 3436 2590 
Q 3231 2300 2841 2188 
z
M 1259 4147 
L 1259 2491 
L 2053 2491 
Q 2509 2491 2742 2702 
Q 2975 2913 2975 3322 
Q 2975 3731 2742 3939 
Q 2509 4147 2053 4147 
L 1259 4147 
z
" transform="scale(0.015625)"/>
       <path id="DejaVuSans-6f" d="M 1959 3097 
Q 1497 3097 1228 2736 
Q 959 2375 959 1747 
Q 959 1119 1226 758 
Q 1494 397 1959 397 
Q 2419 397 2687 759 
Q 2956 1122 2956 1747 
Q 2956 2369 2687 2733 
Q 2419 3097 1959 3097 
z
M 1959 3584 
Q 2709 3584 3137 3096 
Q 3566 2609 3566 1747 
Q 3566 888 3137 398 
Q 2709 -91 1959 -91 
Q 1206 -91 779 398 
Q 353 888 353 1747 
Q 353 2609 779 3096 
Q 1206 3584 1959 3584 
z
" transform="scale(0.015625)"/>
       <path id="DejaVuSans-74" d="M 1172 4494 
L 1172 3500 
L 2356 3500 
L 2356 3053 
L 1172 3053 
L 1172 1153 
Q 1172 725 1289 603 
Q 1406 481 1766 481 
L 2356 481 
L 2356 0 
L 1766 0 
Q 1100 0 847 248 
Q 594 497 594 1153 
L 594 3053 
L 172 3053 
L 172 3500 
L 594 3500 
L 594 4494 
L 1172 4494 
z
" transform="scale(0.015625)"/>
       <path id="DejaVuSans-70" d="M 1159 525 
L 1159 -1331 
L 581 -1331 
L 581 3500 
L 1159 3500 
L 1159 2969 
Q 1341 3281 1617 3432 
Q 1894 3584 2278 3584 
Q 2916 3584 3314 3078 
Q 3713 2572 3713 1747 
Q 3713 922 3314 415 
Q 2916 -91 2278 -91 
Q 1894 -91 1617 61 
Q 1341 213 1159 525 
z
M 3116 1747 
Q 3116 2381 2855 2742 
Q 2594 3103 2138 3103 
Q 1681 3103 1420 2742 
Q 1159 2381 1159 1747 
Q 1159 1113 1420 752 
Q 1681 391 2138 391 
Q 2594 391 2855 752 
Q 3116 1113 3116 1747 
z
" transform="scale(0.015625)"/>
       <path id="DejaVuSans-6c" d="M 603 4863 
L 1178 4863 
L 1178 0 
L 603 0 
L 603 4863 
z
" transform="scale(0.015625)"/>
       <path id="DejaVuSans-6d" d="M 3328 2828 
Q 3544 3216 3844 3400 
Q 4144 3584 4550 3584 
Q 5097 3584 5394 3201 
Q 5691 2819 5691 2113 
L 5691 0 
L 5113 0 
L 5113 2094 
Q 5113 2597 4934 2840 
Q 4756 3084 4391 3084 
Q 3944 3084 3684 2787 
Q 3425 2491 3425 1978 
L 3425 0 
L 2847 0 
L 2847 2094 
Q 2847 2600 2669 2842 
Q 2491 3084 2119 3084 
Q 1678 3084 1418 2786 
Q 1159 2488 1159 1978 
L 1159 0 
L 581 0 
L 581 3500 
L 1159 3500 
L 1159 2956 
Q 1356 3278 1631 3431 
Q 1906 3584 2284 3584 
Q 2666 3584 2933 3390 
Q 3200 3197 3328 2828 
z
" transform="scale(0.015625)"/>
       <path id="DejaVuSans-69" d="M 603 3500 
L 1178 3500 
L 1178 0 
L 603 0 
L 603 3500 
z
M 603 4863 
L 1178 4863 
L 1178 4134 
L 603 4134 
L 603 4863 
z
" transform="scale(0.015625)"/>
       <path id="DejaVuSans-28" d="M 1984 4856 
Q 1566 4138 1362 3434 
Q 1159 2731 1159 2009 
Q 1159 1288 1364 580 
Q 1569 -128 1984 -844 
L 1484 -844 
Q 1016 -109 783 600 
Q 550 1309 550 2009 
Q 550 2706 781 3412 
Q 1013 4119 1484 4856 
L 1984 4856 
z
" transform="scale(0.015625)"/>
       <path id="DejaVuSans-29" d="M 513 4856 
L 1013 4856 
Q 1481 4119 1714 3412 
Q 1947 2706 1947 2009 
Q 1947 1309 1714 600 
Q 1481 -109 1013 -844 
L 513 -844 
Q 928 -128 1133 580 
Q 1338 1288 1338 2009 
Q 1338 2731 1133 3434 
Q 928 4138 513 4856 
z
" transform="scale(0.015625)"/>
      </defs>
      <use xlink:href="#DejaVuSans-52"/>
      <use xlink:href="#DejaVuSans-65" x="64.982422"/>
      <use xlink:href="#DejaVuSans-61" x="126.505859"/>
      <use xlink:href="#DejaVuSans-64" x="187.785156"/>
      <use xlink:href="#DejaVuSans-6f" x="251.261719"/>
      <use xlink:href="#DejaVuSans-75" x="312.443359"/>
      <use xlink:href="#DejaVuSans-74" x="375.822266"/>
      <use xlink:href="#DejaVuSans-20" x="415.03125"/>
      <use xlink:href="#DejaVuSans-70" x="446.818359"/>
      <use xlink:href="#DejaVuSans-75" x="510.294922"/>
      <use xlink:href="#DejaVuSans-6c" x="573.673828"/>
      <use xlink:href="#DejaVuSans-73" x="601.457031"/>
      <use xlink:href="#DejaVuSans-65" x="653.556641"/>
      <use xlink:href="#DejaVuSans-20" x="715.080078"/>
      <use xlink:href="#DejaVuSans-61" x="746.867188"/>
      <use xlink:href="#DejaVuSans-6d" x="808.146484"/>
      <use xlink:href="#DejaVuSans-70" x="905.558594"/>
      <use xlink:href="#DejaVuSans-6c" x="969.035156"/>
      <use xlink:href="#DejaVuSans-69" x="996.818359"/>
      <use xlink:href="#DejaVuSans-74" x="1024.601562"/>
      <use xlink:href="#DejaVuSans-75" x="1063.810547"/>
      <use xlink:href="#DejaVuSans-64" x="1127.189453"/>
      <use xlink:href="#DejaVuSans-65" x="1190.666016"/>
      <use xlink:href="#DejaVuSans-20" x="1252.189453"/>
      <use xlink:href="#DejaVuSans-28" x="1283.976562"/>
      <use xlink:href="#DejaVuSans-29" x="1322.990234"/>
     </g>
    </g>
    <g id="line2d_47">
     <path d="M 432.727562 166.189188 
L 442.727562 166.189188 
L 452.727562 166.189188 
" style="fill: none; stroke: #440154; stroke-width: 1.5; stroke-linecap: square"/>
    </g>
    <g id="text_21">
     <!-- 0.1 -->
     <g transform="translate(460.727562 169.689188) scale(0.1 -0.1)">
      <use xlink:href="#DejaVuSans-30"/>
      <use xlink:href="#DejaVuSans-2e" x="63.623047"/>
      <use xlink:href="#DejaVuSans-31" x="95.410156"/>
     </g>
    </g>
    <g id="line2d_48">
     <path d="M 432.727562 180.867313 
L 442.727562 180.867313 
L 452.727562 180.867313 
" style="fill: none; stroke: #470d60; stroke-width: 1.5; stroke-linecap: square"/>
    </g>
    <g id="text_22">
     <!-- 0.121 -->
     <g transform="translate(460.727562 184.367313) scale(0.1 -0.1)">
      <use xlink:href="#DejaVuSans-30"/>
      <use xlink:href="#DejaVuSans-2e" x="63.623047"/>
      <use xlink:href="#DejaVuSans-31" x="95.410156"/>
      <use xlink:href="#DejaVuSans-32" x="159.033203"/>
      <use xlink:href="#DejaVuSans-31" x="222.65625"/>
     </g>
    </g>
    <g id="line2d_49">
     <path d="M 432.727562 195.545438 
L 442.727562 195.545438 
L 452.727562 195.545438 
" style="fill: none; stroke: #481a6c; stroke-width: 1.5; stroke-linecap: square"/>
    </g>
    <g id="text_23">
     <!-- 0.141 -->
     <g transform="translate(460.727562 199.045438) scale(0.1 -0.1)">
      <use xlink:href="#DejaVuSans-30"/>
      <use xlink:href="#DejaVuSans-2e" x="63.623047"/>
      <use xlink:href="#DejaVuSans-31" x="95.410156"/>
      <use xlink:href="#DejaVuSans-34" x="159.033203"/>
      <use xlink:href="#DejaVuSans-31" x="222.65625"/>
     </g>
    </g>
    <g id="line2d_50">
     <path d="M 432.727562 210.223563 
L 442.727562 210.223563 
L 452.727562 210.223563 
" style="fill: none; stroke: #482576; stroke-width: 1.5; stroke-linecap: square"/>
    </g>
    <g id="text_24">
     <!-- 0.162 -->
     <g transform="translate(460.727562 213.723563) scale(0.1 -0.1)">
      <use xlink:href="#DejaVuSans-30"/>
      <use xlink:href="#DejaVuSans-2e" x="63.623047"/>
      <use xlink:href="#DejaVuSans-31" x="95.410156"/>
      <use xlink:href="#DejaVuSans-36" x="159.033203"/>
      <use xlink:href="#DejaVuSans-32" x="222.65625"/>
     </g>
    </g>
    <g id="line2d_51">
     <path d="M 432.727562 224.901688 
L 442.727562 224.901688 
L 452.727562 224.901688 
" style="fill: none; stroke: #46307e; stroke-width: 1.5; stroke-linecap: square"/>
    </g>
    <g id="text_25">
     <!-- 0.183 -->
     <g transform="translate(460.727562 228.401688) scale(0.1 -0.1)">
      <defs>
       <path id="DejaVuSans-38" d="M 2034 2216 
Q 1584 2216 1326 1975 
Q 1069 1734 1069 1313 
Q 1069 891 1326 650 
Q 1584 409 2034 409 
Q 2484 409 2743 651 
Q 3003 894 3003 1313 
Q 3003 1734 2745 1975 
Q 2488 2216 2034 2216 
z
M 1403 2484 
Q 997 2584 770 2862 
Q 544 3141 544 3541 
Q 544 4100 942 4425 
Q 1341 4750 2034 4750 
Q 2731 4750 3128 4425 
Q 3525 4100 3525 3541 
Q 3525 3141 3298 2862 
Q 3072 2584 2669 2484 
Q 3125 2378 3379 2068 
Q 3634 1759 3634 1313 
Q 3634 634 3220 271 
Q 2806 -91 2034 -91 
Q 1263 -91 848 271 
Q 434 634 434 1313 
Q 434 1759 690 2068 
Q 947 2378 1403 2484 
z
M 1172 3481 
Q 1172 3119 1398 2916 
Q 1625 2713 2034 2713 
Q 2441 2713 2670 2916 
Q 2900 3119 2900 3481 
Q 2900 3844 2670 4047 
Q 2441 4250 2034 4250 
Q 1625 4250 1398 4047 
Q 1172 3844 1172 3481 
z
" transform="scale(0.015625)"/>
      </defs>
      <use xlink:href="#DejaVuSans-30"/>
      <use xlink:href="#DejaVuSans-2e" x="63.623047"/>
      <use xlink:href="#DejaVuSans-31" x="95.410156"/>
      <use xlink:href="#DejaVuSans-38" x="159.033203"/>
      <use xlink:href="#DejaVuSans-33" x="222.65625"/>
     </g>
    </g>
    <g id="line2d_52">
     <path d="M 432.727562 239.579813 
L 442.727562 239.579813 
L 452.727562 239.579813 
" style="fill: none; stroke: #443b84; stroke-width: 1.5; stroke-linecap: square"/>
    </g>
    <g id="text_26">
     <!-- 0.203 -->
     <g transform="translate(460.727562 243.079813) scale(0.1 -0.1)">
      <use xlink:href="#DejaVuSans-30"/>
      <use xlink:href="#DejaVuSans-2e" x="63.623047"/>
      <use xlink:href="#DejaVuSans-32" x="95.410156"/>
      <use xlink:href="#DejaVuSans-30" x="159.033203"/>
      <use xlink:href="#DejaVuSans-33" x="222.65625"/>
     </g>
    </g>
    <g id="line2d_53">
     <path d="M 432.727562 254.257938 
L 442.727562 254.257938 
L 452.727562 254.257938 
" style="fill: none; stroke: #404588; stroke-width: 1.5; stroke-linecap: square"/>
    </g>
    <g id="text_27">
     <!-- 0.224 -->
     <g transform="translate(460.727562 257.757938) scale(0.1 -0.1)">
      <use xlink:href="#DejaVuSans-30"/>
      <use xlink:href="#DejaVuSans-2e" x="63.623047"/>
      <use xlink:href="#DejaVuSans-32" x="95.410156"/>
      <use xlink:href="#DejaVuSans-32" x="159.033203"/>
      <use xlink:href="#DejaVuSans-34" x="222.65625"/>
     </g>
    </g>
    <g id="line2d_54">
     <path d="M 432.727562 268.936062 
L 442.727562 268.936062 
L 452.727562 268.936062 
" style="fill: none; stroke: #3c4f8a; stroke-width: 1.5; stroke-linecap: square"/>
    </g>
    <g id="text_28">
     <!-- 0.245 -->
     <g transform="translate(460.727562 272.436062) scale(0.1 -0.1)">
      <use xlink:href="#DejaVuSans-30"/>
      <use xlink:href="#DejaVuSans-2e" x="63.623047"/>
      <use xlink:href="#DejaVuSans-32" x="95.410156"/>
      <use xlink:href="#DejaVuSans-34" x="159.033203"/>
      <use xlink:href="#DejaVuSans-35" x="222.65625"/>
     </g>
    </g>
    <g id="line2d_55">
     <path d="M 432.727562 283.614188 
L 442.727562 283.614188 
L 452.727562 283.614188 
" style="fill: none; stroke: #38598c; stroke-width: 1.5; stroke-linecap: square"/>
    </g>
    <g id="text_29">
     <!-- 0.266 -->
     <g transform="translate(460.727562 287.114188) scale(0.1 -0.1)">
      <use xlink:href="#DejaVuSans-30"/>
      <use xlink:href="#DejaVuSans-2e" x="63.623047"/>
      <use xlink:href="#DejaVuSans-32" x="95.410156"/>
      <use xlink:href="#DejaVuSans-36" x="159.033203"/>
      <use xlink:href="#DejaVuSans-36" x="222.65625"/>
     </g>
    </g>
    <g id="line2d_56">
     <path d="M 432.727562 298.292312 
L 442.727562 298.292312 
L 452.727562 298.292312 
" style="fill: none; stroke: #33628d; stroke-width: 1.5; stroke-linecap: square"/>
    </g>
    <g id="text_30">
     <!-- 0.286 -->
     <g transform="translate(460.727562 301.792312) scale(0.1 -0.1)">
      <use xlink:href="#DejaVuSans-30"/>
      <use xlink:href="#DejaVuSans-2e" x="63.623047"/>
      <use xlink:href="#DejaVuSans-32" x="95.410156"/>
      <use xlink:href="#DejaVuSans-38" x="159.033203"/>
      <use xlink:href="#DejaVuSans-36" x="222.65625"/>
     </g>
    </g>
    <g id="line2d_57">
     <path d="M 509.355687 166.189188 
L 519.355687 166.189188 
L 529.355687 166.189188 
" style="fill: none; stroke: #2f6b8e; stroke-width: 1.5; stroke-linecap: square"/>
    </g>
    <g id="text_31">
     <!-- 0.307 -->
     <g transform="translate(537.355687 169.689188) scale(0.1 -0.1)">
      <use xlink:href="#DejaVuSans-30"/>
      <use xlink:href="#DejaVuSans-2e" x="63.623047"/>
      <use xlink:href="#DejaVuSans-33" x="95.410156"/>
      <use xlink:href="#DejaVuSans-30" x="159.033203"/>
      <use xlink:href="#DejaVuSans-37" x="222.65625"/>
     </g>
    </g>
    <g id="line2d_58">
     <path d="M 509.355687 180.867313 
L 519.355687 180.867313 
L 529.355687 180.867313 
" style="fill: none; stroke: #2c738e; stroke-width: 1.5; stroke-linecap: square"/>
    </g>
    <g id="text_32">
     <!-- 0.328 -->
     <g transform="translate(537.355687 184.367313) scale(0.1 -0.1)">
      <use xlink:href="#DejaVuSans-30"/>
      <use xlink:href="#DejaVuSans-2e" x="63.623047"/>
      <use xlink:href="#DejaVuSans-33" x="95.410156"/>
      <use xlink:href="#DejaVuSans-32" x="159.033203"/>
      <use xlink:href="#DejaVuSans-38" x="222.65625"/>
     </g>
    </g>
    <g id="line2d_59">
     <path d="M 509.355687 195.545438 
L 519.355687 195.545438 
L 529.355687 195.545438 
" style="fill: none; stroke: #297b8e; stroke-width: 1.5; stroke-linecap: square"/>
    </g>
    <g id="text_33">
     <!-- 0.348 -->
     <g transform="translate(537.355687 199.045438) scale(0.1 -0.1)">
      <use xlink:href="#DejaVuSans-30"/>
      <use xlink:href="#DejaVuSans-2e" x="63.623047"/>
      <use xlink:href="#DejaVuSans-33" x="95.410156"/>
      <use xlink:href="#DejaVuSans-34" x="159.033203"/>
      <use xlink:href="#DejaVuSans-38" x="222.65625"/>
     </g>
    </g>
    <g id="line2d_60">
     <path d="M 509.355687 210.223563 
L 519.355687 210.223563 
L 529.355687 210.223563 
" style="fill: none; stroke: #25838e; stroke-width: 1.5; stroke-linecap: square"/>
    </g>
    <g id="text_34">
     <!-- 0.369 -->
     <g transform="translate(537.355687 213.723563) scale(0.1 -0.1)">
      <use xlink:href="#DejaVuSans-30"/>
      <use xlink:href="#DejaVuSans-2e" x="63.623047"/>
      <use xlink:href="#DejaVuSans-33" x="95.410156"/>
      <use xlink:href="#DejaVuSans-36" x="159.033203"/>
      <use xlink:href="#DejaVuSans-39" x="222.65625"/>
     </g>
    </g>
    <g id="line2d_61">
     <path d="M 509.355687 224.901688 
L 519.355687 224.901688 
L 529.355687 224.901688 
" style="fill: none; stroke: #228c8d; stroke-width: 1.5; stroke-linecap: square"/>
    </g>
    <g id="text_35">
     <!-- 0.39 -->
     <g transform="translate(537.355687 228.401688) scale(0.1 -0.1)">
      <use xlink:href="#DejaVuSans-30"/>
      <use xlink:href="#DejaVuSans-2e" x="63.623047"/>
      <use xlink:href="#DejaVuSans-33" x="95.410156"/>
      <use xlink:href="#DejaVuSans-39" x="159.033203"/>
     </g>
    </g>
    <g id="line2d_62">
     <path d="M 509.355687 239.579813 
L 519.355687 239.579813 
L 529.355687 239.579813 
" style="fill: none; stroke: #1f948c; stroke-width: 1.5; stroke-linecap: square"/>
    </g>
    <g id="text_36">
     <!-- 0.41 -->
     <g transform="translate(537.355687 243.079813) scale(0.1 -0.1)">
      <use xlink:href="#DejaVuSans-30"/>
      <use xlink:href="#DejaVuSans-2e" x="63.623047"/>
      <use xlink:href="#DejaVuSans-34" x="95.410156"/>
      <use xlink:href="#DejaVuSans-31" x="159.033203"/>
     </g>
    </g>
    <g id="line2d_63">
     <path d="M 509.355687 254.257938 
L 519.355687 254.257938 
L 529.355687 254.257938 
" style="fill: none; stroke: #1e9d89; stroke-width: 1.5; stroke-linecap: square"/>
    </g>
    <g id="text_37">
     <!-- 0.431 -->
     <g transform="translate(537.355687 257.757938) scale(0.1 -0.1)">
      <use xlink:href="#DejaVuSans-30"/>
      <use xlink:href="#DejaVuSans-2e" x="63.623047"/>
      <use xlink:href="#DejaVuSans-34" x="95.410156"/>
      <use xlink:href="#DejaVuSans-33" x="159.033203"/>
      <use xlink:href="#DejaVuSans-31" x="222.65625"/>
     </g>
    </g>
    <g id="line2d_64">
     <path d="M 509.355687 268.936062 
L 519.355687 268.936062 
L 529.355687 268.936062 
" style="fill: none; stroke: #21a585; stroke-width: 1.5; stroke-linecap: square"/>
    </g>
    <g id="text_38">
     <!-- 0.452 -->
     <g transform="translate(537.355687 272.436062) scale(0.1 -0.1)">
      <use xlink:href="#DejaVuSans-30"/>
      <use xlink:href="#DejaVuSans-2e" x="63.623047"/>
      <use xlink:href="#DejaVuSans-34" x="95.410156"/>
      <use xlink:href="#DejaVuSans-35" x="159.033203"/>
      <use xlink:href="#DejaVuSans-32" x="222.65625"/>
     </g>
    </g>
    <g id="line2d_65">
     <path d="M 509.355687 283.614188 
L 519.355687 283.614188 
L 529.355687 283.614188 
" style="fill: none; stroke: #26ad81; stroke-width: 1.5; stroke-linecap: square"/>
    </g>
    <g id="text_39">
     <!-- 0.472 -->
     <g transform="translate(537.355687 287.114188) scale(0.1 -0.1)">
      <use xlink:href="#DejaVuSans-30"/>
      <use xlink:href="#DejaVuSans-2e" x="63.623047"/>
      <use xlink:href="#DejaVuSans-34" x="95.410156"/>
      <use xlink:href="#DejaVuSans-37" x="159.033203"/>
      <use xlink:href="#DejaVuSans-32" x="222.65625"/>
     </g>
    </g>
    <g id="line2d_66">
     <path d="M 509.355687 298.292312 
L 519.355687 298.292312 
L 529.355687 298.292312 
" style="fill: none; stroke: #31b57b; stroke-width: 1.5; stroke-linecap: square"/>
    </g>
    <g id="text_40">
     <!-- 0.493 -->
     <g transform="translate(537.355687 301.792312) scale(0.1 -0.1)">
      <use xlink:href="#DejaVuSans-30"/>
      <use xlink:href="#DejaVuSans-2e" x="63.623047"/>
      <use xlink:href="#DejaVuSans-34" x="95.410156"/>
      <use xlink:href="#DejaVuSans-39" x="159.033203"/>
      <use xlink:href="#DejaVuSans-33" x="222.65625"/>
     </g>
    </g>
    <g id="line2d_67">
     <path d="M 585.983812 166.189188 
L 595.983812 166.189188 
L 605.983812 166.189188 
" style="fill: none; stroke: #3fbc73; stroke-width: 1.5; stroke-linecap: square"/>
    </g>
    <g id="text_41">
     <!-- 0.514 -->
     <g transform="translate(613.983812 169.689188) scale(0.1 -0.1)">
      <use xlink:href="#DejaVuSans-30"/>
      <use xlink:href="#DejaVuSans-2e" x="63.623047"/>
      <use xlink:href="#DejaVuSans-35" x="95.410156"/>
      <use xlink:href="#DejaVuSans-31" x="159.033203"/>
      <use xlink:href="#DejaVuSans-34" x="222.65625"/>
     </g>
    </g>
    <g id="line2d_68">
     <path d="M 585.983812 180.867313 
L 595.983812 180.867313 
L 605.983812 180.867313 
" style="fill: none; stroke: #50c46a; stroke-width: 1.5; stroke-linecap: square"/>
    </g>
    <g id="text_42">
     <!-- 0.534 -->
     <g transform="translate(613.983812 184.367313) scale(0.1 -0.1)">
      <use xlink:href="#DejaVuSans-30"/>
      <use xlink:href="#DejaVuSans-2e" x="63.623047"/>
      <use xlink:href="#DejaVuSans-35" x="95.410156"/>
      <use xlink:href="#DejaVuSans-33" x="159.033203"/>
      <use xlink:href="#DejaVuSans-34" x="222.65625"/>
     </g>
    </g>
    <g id="line2d_69">
     <path d="M 585.983812 195.545438 
L 595.983812 195.545438 
L 605.983812 195.545438 
" style="fill: none; stroke: #63cb5f; stroke-width: 1.5; stroke-linecap: square"/>
    </g>
    <g id="text_43">
     <!-- 0.555 -->
     <g transform="translate(613.983812 199.045438) scale(0.1 -0.1)">
      <use xlink:href="#DejaVuSans-30"/>
      <use xlink:href="#DejaVuSans-2e" x="63.623047"/>
      <use xlink:href="#DejaVuSans-35" x="95.410156"/>
      <use xlink:href="#DejaVuSans-35" x="159.033203"/>
      <use xlink:href="#DejaVuSans-35" x="222.65625"/>
     </g>
    </g>
    <g id="line2d_70">
     <path d="M 585.983812 210.223563 
L 595.983812 210.223563 
L 605.983812 210.223563 
" style="fill: none; stroke: #77d153; stroke-width: 1.5; stroke-linecap: square"/>
    </g>
    <g id="text_44">
     <!-- 0.576 -->
     <g transform="translate(613.983812 213.723563) scale(0.1 -0.1)">
      <use xlink:href="#DejaVuSans-30"/>
      <use xlink:href="#DejaVuSans-2e" x="63.623047"/>
      <use xlink:href="#DejaVuSans-35" x="95.410156"/>
      <use xlink:href="#DejaVuSans-37" x="159.033203"/>
      <use xlink:href="#DejaVuSans-36" x="222.65625"/>
     </g>
    </g>
    <g id="line2d_71">
     <path d="M 585.983812 224.901688 
L 595.983812 224.901688 
L 605.983812 224.901688 
" style="fill: none; stroke: #8bd646; stroke-width: 1.5; stroke-linecap: square"/>
    </g>
    <g id="text_45">
     <!-- 0.597 -->
     <g transform="translate(613.983812 228.401688) scale(0.1 -0.1)">
      <use xlink:href="#DejaVuSans-30"/>
      <use xlink:href="#DejaVuSans-2e" x="63.623047"/>
      <use xlink:href="#DejaVuSans-35" x="95.410156"/>
      <use xlink:href="#DejaVuSans-39" x="159.033203"/>
      <use xlink:href="#DejaVuSans-37" x="222.65625"/>
     </g>
    </g>
    <g id="line2d_72">
     <path d="M 585.983812 239.579813 
L 595.983812 239.579813 
L 605.983812 239.579813 
" style="fill: none; stroke: #a2da37; stroke-width: 1.5; stroke-linecap: square"/>
    </g>
    <g id="text_46">
     <!-- 0.617 -->
     <g transform="translate(613.983812 243.079813) scale(0.1 -0.1)">
      <use xlink:href="#DejaVuSans-30"/>
      <use xlink:href="#DejaVuSans-2e" x="63.623047"/>
      <use xlink:href="#DejaVuSans-36" x="95.410156"/>
      <use xlink:href="#DejaVuSans-31" x="159.033203"/>
      <use xlink:href="#DejaVuSans-37" x="222.65625"/>
     </g>
    </g>
    <g id="line2d_73">
     <path d="M 585.983812 254.257938 
L 595.983812 254.257938 
L 605.983812 254.257938 
" style="fill: none; stroke: #bade28; stroke-width: 1.5; stroke-linecap: square"/>
    </g>
    <g id="text_47">
     <!-- 0.638 -->
     <g transform="translate(613.983812 257.757938) scale(0.1 -0.1)">
      <use xlink:href="#DejaVuSans-30"/>
      <use xlink:href="#DejaVuSans-2e" x="63.623047"/>
      <use xlink:href="#DejaVuSans-36" x="95.410156"/>
      <use xlink:href="#DejaVuSans-33" x="159.033203"/>
      <use xlink:href="#DejaVuSans-38" x="222.65625"/>
     </g>
    </g>
    <g id="line2d_74">
     <path d="M 585.983812 268.936062 
L 595.983812 268.936062 
L 605.983812 268.936062 
" style="fill: none; stroke: #d2e21b; stroke-width: 1.5; stroke-linecap: square"/>
    </g>
    <g id="text_48">
     <!-- 0.659 -->
     <g transform="translate(613.983812 272.436062) scale(0.1 -0.1)">
      <use xlink:href="#DejaVuSans-30"/>
      <use xlink:href="#DejaVuSans-2e" x="63.623047"/>
      <use xlink:href="#DejaVuSans-36" x="95.410156"/>
      <use xlink:href="#DejaVuSans-35" x="159.033203"/>
      <use xlink:href="#DejaVuSans-39" x="222.65625"/>
     </g>
    </g>
    <g id="line2d_75">
     <path d="M 585.983812 283.614188 
L 595.983812 283.614188 
L 605.983812 283.614188 
" style="fill: none; stroke: #eae51a; stroke-width: 1.5; stroke-linecap: square"/>
    </g>
    <g id="text_49">
     <!-- 0.679 -->
     <g transform="translate(613.983812 287.114188) scale(0.1 -0.1)">
      <use xlink:href="#DejaVuSans-30"/>
      <use xlink:href="#DejaVuSans-2e" x="63.623047"/>
      <use xlink:href="#DejaVuSans-36" x="95.410156"/>
      <use xlink:href="#DejaVuSans-37" x="159.033203"/>
      <use xlink:href="#DejaVuSans-39" x="222.65625"/>
     </g>
    </g>
    <g id="line2d_76">
     <path d="M 585.983812 298.292312 
L 595.983812 298.292312 
L 605.983812 298.292312 
" style="fill: none; stroke: #fde725; stroke-width: 1.5; stroke-linecap: square"/>
    </g>
    <g id="text_50">
     <!-- 0.7 -->
     <g transform="translate(613.983812 301.792312) scale(0.1 -0.1)">
      <use xlink:href="#DejaVuSans-30"/>
      <use xlink:href="#DejaVuSans-2e" x="63.623047"/>
      <use xlink:href="#DejaVuSans-37" x="95.410156"/>
     </g>
    </g>
   </g>
  </g>
  <g id="text_51">
   <!-- x0x1-y1 One-tone-powerDep -->
   <g transform="translate(139.7475 16.318125) scale(0.12 -0.12)">
    <defs>
     <path id="DejaVuSans-78" d="M 3513 3500 
L 2247 1797 
L 3578 0 
L 2900 0 
L 1881 1375 
L 863 0 
L 184 0 
L 1544 1831 
L 300 3500 
L 978 3500 
L 1906 2253 
L 2834 3500 
L 3513 3500 
z
" transform="scale(0.015625)"/>
     <path id="DejaVuSans-4f" d="M 2522 4238 
Q 1834 4238 1429 3725 
Q 1025 3213 1025 2328 
Q 1025 1447 1429 934 
Q 1834 422 2522 422 
Q 3209 422 3611 934 
Q 4013 1447 4013 2328 
Q 4013 3213 3611 3725 
Q 3209 4238 2522 4238 
z
M 2522 4750 
Q 3503 4750 4090 4092 
Q 4678 3434 4678 2328 
Q 4678 1225 4090 567 
Q 3503 -91 2522 -91 
Q 1538 -91 948 565 
Q 359 1222 359 2328 
Q 359 3434 948 4092 
Q 1538 4750 2522 4750 
z
" transform="scale(0.015625)"/>
     <path id="DejaVuSans-77" d="M 269 3500 
L 844 3500 
L 1563 769 
L 2278 3500 
L 2956 3500 
L 3675 769 
L 4391 3500 
L 4966 3500 
L 4050 0 
L 3372 0 
L 2619 2869 
L 1863 0 
L 1184 0 
L 269 3500 
z
" transform="scale(0.015625)"/>
     <path id="DejaVuSans-44" d="M 1259 4147 
L 1259 519 
L 2022 519 
Q 2988 519 3436 956 
Q 3884 1394 3884 2338 
Q 3884 3275 3436 3711 
Q 2988 4147 2022 4147 
L 1259 4147 
z
M 628 4666 
L 1925 4666 
Q 3281 4666 3915 4102 
Q 4550 3538 4550 2338 
Q 4550 1131 3912 565 
Q 3275 0 1925 0 
L 628 0 
L 628 4666 
z
" transform="scale(0.015625)"/>
    </defs>
    <use xlink:href="#DejaVuSans-78"/>
    <use xlink:href="#DejaVuSans-30" x="59.179688"/>
    <use xlink:href="#DejaVuSans-78" x="122.802734"/>
    <use xlink:href="#DejaVuSans-31" x="181.982422"/>
    <use xlink:href="#DejaVuSans-2d" x="245.605469"/>
    <use xlink:href="#DejaVuSans-79" x="279.939453"/>
    <use xlink:href="#DejaVuSans-31" x="339.119141"/>
    <use xlink:href="#DejaVuSans-20" x="402.742188"/>
    <use xlink:href="#DejaVuSans-4f" x="434.529297"/>
    <use xlink:href="#DejaVuSans-6e" x="513.240234"/>
    <use xlink:href="#DejaVuSans-65" x="576.619141"/>
    <use xlink:href="#DejaVuSans-2d" x="638.142578"/>
    <use xlink:href="#DejaVuSans-74" x="674.226562"/>
    <use xlink:href="#DejaVuSans-6f" x="713.435547"/>
    <use xlink:href="#DejaVuSans-6e" x="774.617188"/>
    <use xlink:href="#DejaVuSans-65" x="837.996094"/>
    <use xlink:href="#DejaVuSans-2d" x="899.519531"/>
    <use xlink:href="#DejaVuSans-70" x="935.603516"/>
    <use xlink:href="#DejaVuSans-6f" x="999.080078"/>
    <use xlink:href="#DejaVuSans-77" x="1060.261719"/>
    <use xlink:href="#DejaVuSans-65" x="1142.048828"/>
    <use xlink:href="#DejaVuSans-72" x="1203.572266"/>
    <use xlink:href="#DejaVuSans-44" x="1244.685547"/>
    <use xlink:href="#DejaVuSans-65" x="1321.6875"/>
    <use xlink:href="#DejaVuSans-70" x="1383.210938"/>
   </g>
   <!-- tuid: 20240222-182610-000-4c2928 -->
   <g transform="translate(117.214688 29.7555) scale(0.12 -0.12)">
    <defs>
     <path id="DejaVuSans-3a" d="M 750 794 
L 1409 794 
L 1409 0 
L 750 0 
L 750 794 
z
M 750 3309 
L 1409 3309 
L 1409 2516 
L 750 2516 
L 750 3309 
z
" transform="scale(0.015625)"/>
    </defs>
    <use xlink:href="#DejaVuSans-74"/>
    <use xlink:href="#DejaVuSans-75" x="39.208984"/>
    <use xlink:href="#DejaVuSans-69" x="102.587891"/>
    <use xlink:href="#DejaVuSans-64" x="130.371094"/>
    <use xlink:href="#DejaVuSans-3a" x="193.847656"/>
    <use xlink:href="#DejaVuSans-20" x="227.539062"/>
    <use xlink:href="#DejaVuSans-32" x="259.326172"/>
    <use xlink:href="#DejaVuSans-30" x="322.949219"/>
    <use xlink:href="#DejaVuSans-32" x="386.572266"/>
    <use xlink:href="#DejaVuSans-34" x="450.195312"/>
    <use xlink:href="#DejaVuSans-30" x="513.818359"/>
    <use xlink:href="#DejaVuSans-32" x="577.441406"/>
    <use xlink:href="#DejaVuSans-32" x="641.064453"/>
    <use xlink:href="#DejaVuSans-32" x="704.6875"/>
    <use xlink:href="#DejaVuSans-2d" x="768.310547"/>
    <use xlink:href="#DejaVuSans-31" x="804.394531"/>
    <use xlink:href="#DejaVuSans-38" x="868.017578"/>
    <use xlink:href="#DejaVuSans-32" x="931.640625"/>
    <use xlink:href="#DejaVuSans-36" x="995.263672"/>
    <use xlink:href="#DejaVuSans-31" x="1058.886719"/>
    <use xlink:href="#DejaVuSans-30" x="1122.509766"/>
    <use xlink:href="#DejaVuSans-2d" x="1186.132812"/>
    <use xlink:href="#DejaVuSans-30" x="1222.216797"/>
    <use xlink:href="#DejaVuSans-30" x="1285.839844"/>
    <use xlink:href="#DejaVuSans-30" x="1349.462891"/>
    <use xlink:href="#DejaVuSans-2d" x="1413.085938"/>
    <use xlink:href="#DejaVuSans-34" x="1449.169922"/>
    <use xlink:href="#DejaVuSans-63" x="1512.792969"/>
    <use xlink:href="#DejaVuSans-32" x="1567.773438"/>
    <use xlink:href="#DejaVuSans-39" x="1631.396484"/>
    <use xlink:href="#DejaVuSans-32" x="1695.019531"/>
    <use xlink:href="#DejaVuSans-38" x="1758.642578"/>
   </g>
  </g>
 </g>
 <defs>
  <clipPath id="p8053aae720">
   <rect x="53.751563" y="41.76" width="357.12" height="266.112"/>
  </clipPath>
 </defs>
</svg>
