<?xml version="1.0" encoding="utf-8" standalone="no"?>
<!DOCTYPE svg PUBLIC "-//W3C//DTD SVG 1.1//EN"
  "http://www.w3.org/Graphics/SVG/1.1/DTD/svg11.dtd">
<svg xmlns:xlink="http://www.w3.org/1999/xlink" width="556.071312pt" height="345.42825pt" viewBox="0 0 556.071312 345.42825" xmlns="http://www.w3.org/2000/svg" version="1.1">
 <metadata>
  <rdf:RDF xmlns:dc="http://purl.org/dc/elements/1.1/" xmlns:cc="http://creativecommons.org/ns#" xmlns:rdf="http://www.w3.org/1999/02/22-rdf-syntax-ns#">
   <cc:Work>
    <dc:type rdf:resource="http://purl.org/dc/dcmitype/StillImage"/>
    <dc:date>2024-02-20T17:10:54.286183</dc:date>
    <dc:format>image/svg+xml</dc:format>
    <dc:creator>
     <cc:Agent>
      <dc:title>Matplotlib v3.8.2, https://matplotlib.org/</dc:title>
     </cc:Agent>
    </dc:creator>
   </cc:Work>
  </rdf:RDF>
 </metadata>
 <defs>
  <style type="text/css">*{stroke-linejoin: round; stroke-linecap: butt}</style>
 </defs>
 <g id="figure_1">
  <g id="patch_1">
   <path d="M 0 345.42825 
L 556.071312 345.42825 
L 556.071312 -0 
L 0 -0 
L 0 345.42825 
z
" style="fill: none; opacity: 0"/>
  </g>
  <g id="axes_1">
   <g id="patch_2">
    <path d="M 50.595313 162.72 
L 407.715312 162.72 
L 407.715312 41.76 
L 50.595313 41.76 
z
" style="fill: #ffffff"/>
   </g>
   <g id="matplotlib.axis_1">
    <g id="xtick_1">
     <g id="line2d_1">
      <defs>
       <path id="m6bb078b223" d="M 0 0 
L 0 3.5 
" style="stroke: #000000; stroke-width: 0.8"/>
      </defs>
      <g>
       <use xlink:href="#m6bb078b223" x="99.293494" y="162.72" style="stroke: #000000; stroke-width: 0.8"/>
      </g>
     </g>
    </g>
    <g id="xtick_2">
     <g id="line2d_2">
      <g>
       <use xlink:href="#m6bb078b223" x="164.224403" y="162.72" style="stroke: #000000; stroke-width: 0.8"/>
      </g>
     </g>
    </g>
    <g id="xtick_3">
     <g id="line2d_3">
      <g>
       <use xlink:href="#m6bb078b223" x="229.155312" y="162.72" style="stroke: #000000; stroke-width: 0.8"/>
      </g>
     </g>
    </g>
    <g id="xtick_4">
     <g id="line2d_4">
      <g>
       <use xlink:href="#m6bb078b223" x="294.086222" y="162.72" style="stroke: #000000; stroke-width: 0.8"/>
      </g>
     </g>
    </g>
    <g id="xtick_5">
     <g id="line2d_5">
      <g>
       <use xlink:href="#m6bb078b223" x="359.017131" y="162.72" style="stroke: #000000; stroke-width: 0.8"/>
      </g>
     </g>
    </g>
   </g>
   <g id="matplotlib.axis_2">
    <g id="ytick_1">
     <g id="line2d_6">
      <defs>
       <path id="mddd8417bd4" d="M 0 0 
L -3.5 0 
" style="stroke: #000000; stroke-width: 0.8"/>
      </defs>
      <g>
       <use xlink:href="#mddd8417bd4" x="50.595313" y="141.56688" style="stroke: #000000; stroke-width: 0.8"/>
      </g>
     </g>
     <g id="text_1">
      <!-- 50 -->
      <g transform="translate(30.870313 145.366099) scale(0.1 -0.1)">
       <defs>
        <path id="DejaVuSans-35" d="M 691 4666 
L 3169 4666 
L 3169 4134 
L 1269 4134 
L 1269 2991 
Q 1406 3038 1543 3061 
Q 1681 3084 1819 3084 
Q 2600 3084 3056 2656 
Q 3513 2228 3513 1497 
Q 3513 744 3044 326 
Q 2575 -91 1722 -91 
Q 1428 -91 1123 -41 
Q 819 9 494 109 
L 494 744 
Q 775 591 1075 516 
Q 1375 441 1709 441 
Q 2250 441 2565 725 
Q 2881 1009 2881 1497 
Q 2881 1984 2565 2268 
Q 2250 2553 1709 2553 
Q 1456 2553 1204 2497 
Q 953 2441 691 2322 
L 691 4666 
z
" transform="scale(0.015625)"/>
        <path id="DejaVuSans-30" d="M 2034 4250 
Q 1547 4250 1301 3770 
Q 1056 3291 1056 2328 
Q 1056 1369 1301 889 
Q 1547 409 2034 409 
Q 2525 409 2770 889 
Q 3016 1369 3016 2328 
Q 3016 3291 2770 3770 
Q 2525 4250 2034 4250 
z
M 2034 4750 
Q 2819 4750 3233 4129 
Q 3647 3509 3647 2328 
Q 3647 1150 3233 529 
Q 2819 -91 2034 -91 
Q 1250 -91 836 529 
Q 422 1150 422 2328 
Q 422 3509 836 4129 
Q 1250 4750 2034 4750 
z
" transform="scale(0.015625)"/>
       </defs>
       <use xlink:href="#DejaVuSans-35"/>
       <use xlink:href="#DejaVuSans-30" x="63.623047"/>
      </g>
     </g>
    </g>
    <g id="ytick_2">
     <g id="line2d_7">
      <g>
       <use xlink:href="#mddd8417bd4" x="50.595313" y="102.724335" style="stroke: #000000; stroke-width: 0.8"/>
      </g>
     </g>
     <g id="text_2">
      <!-- 60 -->
      <g transform="translate(30.870313 106.523554) scale(0.1 -0.1)">
       <defs>
        <path id="DejaVuSans-36" d="M 2113 2584 
Q 1688 2584 1439 2293 
Q 1191 2003 1191 1497 
Q 1191 994 1439 701 
Q 1688 409 2113 409 
Q 2538 409 2786 701 
Q 3034 994 3034 1497 
Q 3034 2003 2786 2293 
Q 2538 2584 2113 2584 
z
M 3366 4563 
L 3366 3988 
Q 3128 4100 2886 4159 
Q 2644 4219 2406 4219 
Q 1781 4219 1451 3797 
Q 1122 3375 1075 2522 
Q 1259 2794 1537 2939 
Q 1816 3084 2150 3084 
Q 2853 3084 3261 2657 
Q 3669 2231 3669 1497 
Q 3669 778 3244 343 
Q 2819 -91 2113 -91 
Q 1303 -91 875 529 
Q 447 1150 447 2328 
Q 447 3434 972 4092 
Q 1497 4750 2381 4750 
Q 2619 4750 2861 4703 
Q 3103 4656 3366 4563 
z
" transform="scale(0.015625)"/>
       </defs>
       <use xlink:href="#DejaVuSans-36"/>
       <use xlink:href="#DejaVuSans-30" x="63.623047"/>
      </g>
     </g>
    </g>
    <g id="ytick_3">
     <g id="line2d_8">
      <g>
       <use xlink:href="#mddd8417bd4" x="50.595313" y="63.881789" style="stroke: #000000; stroke-width: 0.8"/>
      </g>
     </g>
     <g id="text_3">
      <!-- 70 -->
      <g transform="translate(30.870313 67.681008) scale(0.1 -0.1)">
       <defs>
        <path id="DejaVuSans-37" d="M 525 4666 
L 3525 4666 
L 3525 4397 
L 1831 0 
L 1172 0 
L 2766 4134 
L 525 4134 
L 525 4666 
z
" transform="scale(0.015625)"/>
       </defs>
       <use xlink:href="#DejaVuSans-37"/>
       <use xlink:href="#DejaVuSans-30" x="63.623047"/>
      </g>
     </g>
    </g>
    <g id="text_4">
     <!-- $|S_{21}|$ [mV] -->
     <g transform="translate(24.470313 127.19) rotate(-90) scale(0.1 -0.1)">
      <defs>
       <path id="DejaVuSans-7c" d="M 1344 4891 
L 1344 -1509 
L 813 -1509 
L 813 4891 
L 1344 4891 
z
" transform="scale(0.015625)"/>
       <path id="DejaVuSans-Oblique-53" d="M 3859 4513 
L 3738 3897 
Q 3422 4066 3111 4152 
Q 2800 4238 2509 4238 
Q 1944 4238 1609 3991 
Q 1275 3744 1275 3334 
Q 1275 3109 1398 2989 
Q 1522 2869 2034 2731 
L 2413 2638 
Q 3053 2472 3303 2217 
Q 3553 1963 3553 1503 
Q 3553 797 2998 353 
Q 2444 -91 1538 -91 
Q 1166 -91 791 -17 
Q 416 56 38 206 
L 166 856 
Q 513 641 861 531 
Q 1209 422 1556 422 
Q 2147 422 2503 684 
Q 2859 947 2859 1369 
Q 2859 1650 2717 1795 
Q 2575 1941 2106 2059 
L 1728 2156 
Q 1081 2325 845 2545 
Q 609 2766 609 3163 
Q 609 3859 1145 4304 
Q 1681 4750 2541 4750 
Q 2875 4750 3203 4690 
Q 3531 4631 3859 4513 
z
" transform="scale(0.015625)"/>
       <path id="DejaVuSans-32" d="M 1228 531 
L 3431 531 
L 3431 0 
L 469 0 
L 469 531 
Q 828 903 1448 1529 
Q 2069 2156 2228 2338 
Q 2531 2678 2651 2914 
Q 2772 3150 2772 3378 
Q 2772 3750 2511 3984 
Q 2250 4219 1831 4219 
Q 1534 4219 1204 4116 
Q 875 4013 500 3803 
L 500 4441 
Q 881 4594 1212 4672 
Q 1544 4750 1819 4750 
Q 2544 4750 2975 4387 
Q 3406 4025 3406 3419 
Q 3406 3131 3298 2873 
Q 3191 2616 2906 2266 
Q 2828 2175 2409 1742 
Q 1991 1309 1228 531 
z
" transform="scale(0.015625)"/>
       <path id="DejaVuSans-31" d="M 794 531 
L 1825 531 
L 1825 4091 
L 703 3866 
L 703 4441 
L 1819 4666 
L 2450 4666 
L 2450 531 
L 3481 531 
L 3481 0 
L 794 0 
L 794 531 
z
" transform="scale(0.015625)"/>
       <path id="DejaVuSans-20" transform="scale(0.015625)"/>
       <path id="DejaVuSans-5b" d="M 550 4863 
L 1875 4863 
L 1875 4416 
L 1125 4416 
L 1125 -397 
L 1875 -397 
L 1875 -844 
L 550 -844 
L 550 4863 
z
" transform="scale(0.015625)"/>
       <path id="DejaVuSans-6d" d="M 3328 2828 
Q 3544 3216 3844 3400 
Q 4144 3584 4550 3584 
Q 5097 3584 5394 3201 
Q 5691 2819 5691 2113 
L 5691 0 
L 5113 0 
L 5113 2094 
Q 5113 2597 4934 2840 
Q 4756 3084 4391 3084 
Q 3944 3084 3684 2787 
Q 3425 2491 3425 1978 
L 3425 0 
L 2847 0 
L 2847 2094 
Q 2847 2600 2669 2842 
Q 2491 3084 2119 3084 
Q 1678 3084 1418 2786 
Q 1159 2488 1159 1978 
L 1159 0 
L 581 0 
L 581 3500 
L 1159 3500 
L 1159 2956 
Q 1356 3278 1631 3431 
Q 1906 3584 2284 3584 
Q 2666 3584 2933 3390 
Q 3200 3197 3328 2828 
z
" transform="scale(0.015625)"/>
       <path id="DejaVuSans-56" d="M 1831 0 
L 50 4666 
L 709 4666 
L 2188 738 
L 3669 4666 
L 4325 4666 
L 2547 0 
L 1831 0 
z
" transform="scale(0.015625)"/>
       <path id="DejaVuSans-5d" d="M 1947 4863 
L 1947 -844 
L 622 -844 
L 622 -397 
L 1369 -397 
L 1369 4416 
L 622 4416 
L 622 4863 
L 1947 4863 
z
" transform="scale(0.015625)"/>
      </defs>
      <use xlink:href="#DejaVuSans-7c" transform="translate(0 0.578125)"/>
      <use xlink:href="#DejaVuSans-Oblique-53" transform="translate(33.691406 0.578125)"/>
      <use xlink:href="#DejaVuSans-32" transform="translate(97.167969 -15.828125) scale(0.7)"/>
      <use xlink:href="#DejaVuSans-31" transform="translate(141.704102 -15.828125) scale(0.7)"/>
      <use xlink:href="#DejaVuSans-7c" transform="translate(188.974609 0.578125)"/>
      <use xlink:href="#DejaVuSans-20" transform="translate(222.666016 0.578125)"/>
      <use xlink:href="#DejaVuSans-5b" transform="translate(254.453125 0.578125)"/>
      <use xlink:href="#DejaVuSans-6d" transform="translate(293.466797 0.578125)"/>
      <use xlink:href="#DejaVuSans-56" transform="translate(390.878906 0.578125)"/>
      <use xlink:href="#DejaVuSans-5d" transform="translate(459.287109 0.578125)"/>
     </g>
    </g>
   </g>
   <g id="line2d_9">
    <path d="M 66.82804 47.258182 
L 68.45947 47.722137 
L 70.0909 47.647479 
L 74.985189 47.92922 
L 78.248049 47.955484 
L 79.879479 48.000052 
L 83.142339 48.292972 
L 86.405198 48.30871 
L 88.036628 48.322203 
L 89.668058 48.579939 
L 91.299488 48.640134 
L 92.930918 48.393838 
L 94.562348 48.635481 
L 97.825207 48.781943 
L 101.088067 48.917015 
L 112.508076 49.385848 
L 114.139506 49.536131 
L 122.296656 49.654924 
L 123.928085 49.88971 
L 125.559515 49.918329 
L 127.190945 49.83199 
L 128.822375 50.013538 
L 130.453805 49.875274 
L 133.716665 50.154032 
L 135.348095 50.3436 
L 138.610954 50.166722 
L 140.242384 50.399996 
L 141.873814 50.296854 
L 145.136674 50.57427 
L 146.768104 50.458058 
L 148.399534 50.800014 
L 151.662393 50.626505 
L 154.925253 50.963701 
L 156.556683 51.269807 
L 161.450973 51.174968 
L 163.082402 51.526314 
L 166.345262 51.438734 
L 167.976692 51.705052 
L 169.608122 51.522105 
L 171.239552 51.876803 
L 179.396701 52.240419 
L 181.028131 52.586517 
L 182.659561 52.555378 
L 185.922421 52.740447 
L 187.553851 52.715462 
L 189.185281 52.932787 
L 190.81671 52.773236 
L 192.44814 53.081374 
L 195.711 53.081032 
L 200.60529 53.729686 
L 202.23672 53.698529 
L 203.868149 53.946652 
L 213.656729 54.417555 
L 215.288159 54.823576 
L 216.919588 55.03181 
L 218.551018 54.881254 
L 220.182448 55.213687 
L 221.813878 55.184115 
L 225.076738 55.696876 
L 228.339598 55.743807 
L 229.971027 55.947122 
L 231.602457 55.972655 
L 234.865317 56.595539 
L 238.128177 56.755204 
L 239.759607 57.064214 
L 246.285326 57.706539 
L 249.548186 58.01846 
L 251.179616 58.149257 
L 252.811046 58.656129 
L 254.442476 58.611732 
L 256.073905 59.110553 
L 257.705335 59.305809 
L 259.336765 59.195625 
L 264.231055 60.00261 
L 267.493915 60.26156 
L 270.756774 60.853069 
L 272.388204 61.053376 
L 274.019634 61.379867 
L 277.282494 61.791071 
L 280.545354 62.492836 
L 282.176783 62.538187 
L 283.808213 62.967116 
L 285.439643 63.257375 
L 287.071073 63.301031 
L 288.702503 63.919905 
L 290.333933 63.917207 
L 295.228223 65.337302 
L 296.859652 65.133775 
L 298.491082 65.745675 
L 303.385372 66.694978 
L 306.648232 67.605666 
L 308.279662 68.077098 
L 309.911091 68.383327 
L 311.542521 69.031173 
L 313.173951 69.124488 
L 316.436811 70.531034 
L 318.068241 70.747359 
L 322.96253 72.672297 
L 324.59396 73.483169 
L 326.22539 73.945145 
L 327.85682 74.989011 
L 329.48825 75.542498 
L 334.38254 77.675007 
L 340.908259 81.075214 
L 342.539689 82.269113 
L 345.802549 84.190663 
L 347.433979 85.867337 
L 349.065408 86.814569 
L 350.696838 88.176138 
L 352.328268 90.16692 
L 353.959698 91.198913 
L 355.591128 93.317054 
L 357.222558 94.182229 
L 358.853988 97.445146 
L 360.485418 98.21524 
L 363.748277 101.781713 
L 367.011137 106.967648 
L 370.273997 112.234089 
L 371.905427 114.437362 
L 373.536857 117.156625 
L 375.168286 119.484476 
L 376.799716 121.201257 
L 378.431146 124.955801 
L 380.062576 127.881276 
L 383.325436 135.956565 
L 384.956866 139.362807 
L 386.588296 142.477375 
L 389.851155 149.581996 
L 391.482585 154.252228 
L 391.482585 154.252228 
" clip-path="url(#p25d0f3ec6d)" style="fill: none; stroke: #1f77b4; stroke-width: 1.5; stroke-linecap: square"/>
    <defs>
     <path id="m1f406961b3" d="M 0 1.5 
C 0.397805 1.5 0.77937 1.341951 1.06066 1.06066 
C 1.341951 0.77937 1.5 0.397805 1.5 0 
C 1.5 -0.397805 1.341951 -0.77937 1.06066 -1.06066 
C 0.77937 -1.341951 0.397805 -1.5 0 -1.5 
C -0.397805 -1.5 -0.77937 -1.341951 -1.06066 -1.06066 
C -1.341951 -0.77937 -1.5 -0.397805 -1.5 0 
C -1.5 0.397805 -1.341951 0.77937 -1.06066 1.06066 
C -0.77937 1.341951 -0.397805 1.5 0 1.5 
z
" style="stroke: #1f77b4"/>
    </defs>
    <g clip-path="url(#p25d0f3ec6d)">
     <use xlink:href="#m1f406961b3" x="66.82804" y="47.258182" style="fill: #1f77b4; stroke: #1f77b4"/>
     <use xlink:href="#m1f406961b3" x="68.45947" y="47.722137" style="fill: #1f77b4; stroke: #1f77b4"/>
     <use xlink:href="#m1f406961b3" x="70.0909" y="47.647479" style="fill: #1f77b4; stroke: #1f77b4"/>
     <use xlink:href="#m1f406961b3" x="71.722329" y="47.759203" style="fill: #1f77b4; stroke: #1f77b4"/>
     <use xlink:href="#m1f406961b3" x="73.353759" y="47.795981" style="fill: #1f77b4; stroke: #1f77b4"/>
     <use xlink:href="#m1f406961b3" x="74.985189" y="47.92922" style="fill: #1f77b4; stroke: #1f77b4"/>
     <use xlink:href="#m1f406961b3" x="76.616619" y="47.888313" style="fill: #1f77b4; stroke: #1f77b4"/>
     <use xlink:href="#m1f406961b3" x="78.248049" y="47.955484" style="fill: #1f77b4; stroke: #1f77b4"/>
     <use xlink:href="#m1f406961b3" x="79.879479" y="48.000052" style="fill: #1f77b4; stroke: #1f77b4"/>
     <use xlink:href="#m1f406961b3" x="81.510909" y="48.159905" style="fill: #1f77b4; stroke: #1f77b4"/>
     <use xlink:href="#m1f406961b3" x="83.142339" y="48.292972" style="fill: #1f77b4; stroke: #1f77b4"/>
     <use xlink:href="#m1f406961b3" x="84.773768" y="48.262873" style="fill: #1f77b4; stroke: #1f77b4"/>
     <use xlink:href="#m1f406961b3" x="86.405198" y="48.30871" style="fill: #1f77b4; stroke: #1f77b4"/>
     <use xlink:href="#m1f406961b3" x="88.036628" y="48.322203" style="fill: #1f77b4; stroke: #1f77b4"/>
     <use xlink:href="#m1f406961b3" x="89.668058" y="48.579939" style="fill: #1f77b4; stroke: #1f77b4"/>
     <use xlink:href="#m1f406961b3" x="91.299488" y="48.640134" style="fill: #1f77b4; stroke: #1f77b4"/>
     <use xlink:href="#m1f406961b3" x="92.930918" y="48.393838" style="fill: #1f77b4; stroke: #1f77b4"/>
     <use xlink:href="#m1f406961b3" x="94.562348" y="48.635481" style="fill: #1f77b4; stroke: #1f77b4"/>
     <use xlink:href="#m1f406961b3" x="96.193778" y="48.654215" style="fill: #1f77b4; stroke: #1f77b4"/>
     <use xlink:href="#m1f406961b3" x="97.825207" y="48.781943" style="fill: #1f77b4; stroke: #1f77b4"/>
     <use xlink:href="#m1f406961b3" x="99.456637" y="48.808222" style="fill: #1f77b4; stroke: #1f77b4"/>
     <use xlink:href="#m1f406961b3" x="101.088067" y="48.917015" style="fill: #1f77b4; stroke: #1f77b4"/>
     <use xlink:href="#m1f406961b3" x="102.719497" y="48.979065" style="fill: #1f77b4; stroke: #1f77b4"/>
     <use xlink:href="#m1f406961b3" x="104.350927" y="48.966014" style="fill: #1f77b4; stroke: #1f77b4"/>
     <use xlink:href="#m1f406961b3" x="105.982357" y="49.174928" style="fill: #1f77b4; stroke: #1f77b4"/>
     <use xlink:href="#m1f406961b3" x="107.613787" y="49.17335" style="fill: #1f77b4; stroke: #1f77b4"/>
     <use xlink:href="#m1f406961b3" x="109.245217" y="49.204796" style="fill: #1f77b4; stroke: #1f77b4"/>
     <use xlink:href="#m1f406961b3" x="110.876646" y="49.236315" style="fill: #1f77b4; stroke: #1f77b4"/>
     <use xlink:href="#m1f406961b3" x="112.508076" y="49.385848" style="fill: #1f77b4; stroke: #1f77b4"/>
     <use xlink:href="#m1f406961b3" x="114.139506" y="49.536131" style="fill: #1f77b4; stroke: #1f77b4"/>
     <use xlink:href="#m1f406961b3" x="115.770936" y="49.537703" style="fill: #1f77b4; stroke: #1f77b4"/>
     <use xlink:href="#m1f406961b3" x="117.402366" y="49.463148" style="fill: #1f77b4; stroke: #1f77b4"/>
     <use xlink:href="#m1f406961b3" x="119.033796" y="49.50998" style="fill: #1f77b4; stroke: #1f77b4"/>
     <use xlink:href="#m1f406961b3" x="120.665226" y="49.648093" style="fill: #1f77b4; stroke: #1f77b4"/>
     <use xlink:href="#m1f406961b3" x="122.296656" y="49.654924" style="fill: #1f77b4; stroke: #1f77b4"/>
     <use xlink:href="#m1f406961b3" x="123.928085" y="49.88971" style="fill: #1f77b4; stroke: #1f77b4"/>
     <use xlink:href="#m1f406961b3" x="125.559515" y="49.918329" style="fill: #1f77b4; stroke: #1f77b4"/>
     <use xlink:href="#m1f406961b3" x="127.190945" y="49.83199" style="fill: #1f77b4; stroke: #1f77b4"/>
     <use xlink:href="#m1f406961b3" x="128.822375" y="50.013538" style="fill: #1f77b4; stroke: #1f77b4"/>
     <use xlink:href="#m1f406961b3" x="130.453805" y="49.875274" style="fill: #1f77b4; stroke: #1f77b4"/>
     <use xlink:href="#m1f406961b3" x="132.085235" y="49.971011" style="fill: #1f77b4; stroke: #1f77b4"/>
     <use xlink:href="#m1f406961b3" x="133.716665" y="50.154032" style="fill: #1f77b4; stroke: #1f77b4"/>
     <use xlink:href="#m1f406961b3" x="135.348095" y="50.3436" style="fill: #1f77b4; stroke: #1f77b4"/>
     <use xlink:href="#m1f406961b3" x="136.979524" y="50.273537" style="fill: #1f77b4; stroke: #1f77b4"/>
     <use xlink:href="#m1f406961b3" x="138.610954" y="50.166722" style="fill: #1f77b4; stroke: #1f77b4"/>
     <use xlink:href="#m1f406961b3" x="140.242384" y="50.399996" style="fill: #1f77b4; stroke: #1f77b4"/>
     <use xlink:href="#m1f406961b3" x="141.873814" y="50.296854" style="fill: #1f77b4; stroke: #1f77b4"/>
     <use xlink:href="#m1f406961b3" x="143.505244" y="50.425557" style="fill: #1f77b4; stroke: #1f77b4"/>
     <use xlink:href="#m1f406961b3" x="145.136674" y="50.57427" style="fill: #1f77b4; stroke: #1f77b4"/>
     <use xlink:href="#m1f406961b3" x="146.768104" y="50.458058" style="fill: #1f77b4; stroke: #1f77b4"/>
     <use xlink:href="#m1f406961b3" x="148.399534" y="50.800014" style="fill: #1f77b4; stroke: #1f77b4"/>
     <use xlink:href="#m1f406961b3" x="150.030963" y="50.69448" style="fill: #1f77b4; stroke: #1f77b4"/>
     <use xlink:href="#m1f406961b3" x="151.662393" y="50.626505" style="fill: #1f77b4; stroke: #1f77b4"/>
     <use xlink:href="#m1f406961b3" x="153.293823" y="50.795232" style="fill: #1f77b4; stroke: #1f77b4"/>
     <use xlink:href="#m1f406961b3" x="154.925253" y="50.963701" style="fill: #1f77b4; stroke: #1f77b4"/>
     <use xlink:href="#m1f406961b3" x="156.556683" y="51.269807" style="fill: #1f77b4; stroke: #1f77b4"/>
     <use xlink:href="#m1f406961b3" x="158.188113" y="51.206668" style="fill: #1f77b4; stroke: #1f77b4"/>
     <use xlink:href="#m1f406961b3" x="159.819543" y="51.155465" style="fill: #1f77b4; stroke: #1f77b4"/>
     <use xlink:href="#m1f406961b3" x="161.450973" y="51.174968" style="fill: #1f77b4; stroke: #1f77b4"/>
     <use xlink:href="#m1f406961b3" x="163.082402" y="51.526314" style="fill: #1f77b4; stroke: #1f77b4"/>
     <use xlink:href="#m1f406961b3" x="164.713832" y="51.517223" style="fill: #1f77b4; stroke: #1f77b4"/>
     <use xlink:href="#m1f406961b3" x="166.345262" y="51.438734" style="fill: #1f77b4; stroke: #1f77b4"/>
     <use xlink:href="#m1f406961b3" x="167.976692" y="51.705052" style="fill: #1f77b4; stroke: #1f77b4"/>
     <use xlink:href="#m1f406961b3" x="169.608122" y="51.522105" style="fill: #1f77b4; stroke: #1f77b4"/>
     <use xlink:href="#m1f406961b3" x="171.239552" y="51.876803" style="fill: #1f77b4; stroke: #1f77b4"/>
     <use xlink:href="#m1f406961b3" x="172.870982" y="51.930103" style="fill: #1f77b4; stroke: #1f77b4"/>
     <use xlink:href="#m1f406961b3" x="174.502412" y="52.073373" style="fill: #1f77b4; stroke: #1f77b4"/>
     <use xlink:href="#m1f406961b3" x="176.133842" y="52.011994" style="fill: #1f77b4; stroke: #1f77b4"/>
     <use xlink:href="#m1f406961b3" x="177.765271" y="52.077257" style="fill: #1f77b4; stroke: #1f77b4"/>
     <use xlink:href="#m1f406961b3" x="179.396701" y="52.240419" style="fill: #1f77b4; stroke: #1f77b4"/>
     <use xlink:href="#m1f406961b3" x="181.028131" y="52.586517" style="fill: #1f77b4; stroke: #1f77b4"/>
     <use xlink:href="#m1f406961b3" x="182.659561" y="52.555378" style="fill: #1f77b4; stroke: #1f77b4"/>
     <use xlink:href="#m1f406961b3" x="184.290991" y="52.695968" style="fill: #1f77b4; stroke: #1f77b4"/>
     <use xlink:href="#m1f406961b3" x="185.922421" y="52.740447" style="fill: #1f77b4; stroke: #1f77b4"/>
     <use xlink:href="#m1f406961b3" x="187.553851" y="52.715462" style="fill: #1f77b4; stroke: #1f77b4"/>
     <use xlink:href="#m1f406961b3" x="189.185281" y="52.932787" style="fill: #1f77b4; stroke: #1f77b4"/>
     <use xlink:href="#m1f406961b3" x="190.81671" y="52.773236" style="fill: #1f77b4; stroke: #1f77b4"/>
     <use xlink:href="#m1f406961b3" x="192.44814" y="53.081374" style="fill: #1f77b4; stroke: #1f77b4"/>
     <use xlink:href="#m1f406961b3" x="194.07957" y="53.096689" style="fill: #1f77b4; stroke: #1f77b4"/>
     <use xlink:href="#m1f406961b3" x="195.711" y="53.081032" style="fill: #1f77b4; stroke: #1f77b4"/>
     <use xlink:href="#m1f406961b3" x="197.34243" y="53.27711" style="fill: #1f77b4; stroke: #1f77b4"/>
     <use xlink:href="#m1f406961b3" x="198.97386" y="53.382426" style="fill: #1f77b4; stroke: #1f77b4"/>
     <use xlink:href="#m1f406961b3" x="200.60529" y="53.729686" style="fill: #1f77b4; stroke: #1f77b4"/>
     <use xlink:href="#m1f406961b3" x="202.23672" y="53.698529" style="fill: #1f77b4; stroke: #1f77b4"/>
     <use xlink:href="#m1f406961b3" x="203.868149" y="53.946652" style="fill: #1f77b4; stroke: #1f77b4"/>
     <use xlink:href="#m1f406961b3" x="205.499579" y="54.030227" style="fill: #1f77b4; stroke: #1f77b4"/>
     <use xlink:href="#m1f406961b3" x="207.131009" y="54.083856" style="fill: #1f77b4; stroke: #1f77b4"/>
     <use xlink:href="#m1f406961b3" x="208.762439" y="54.206321" style="fill: #1f77b4; stroke: #1f77b4"/>
     <use xlink:href="#m1f406961b3" x="210.393869" y="54.299557" style="fill: #1f77b4; stroke: #1f77b4"/>
     <use xlink:href="#m1f406961b3" x="212.025299" y="54.366299" style="fill: #1f77b4; stroke: #1f77b4"/>
     <use xlink:href="#m1f406961b3" x="213.656729" y="54.417555" style="fill: #1f77b4; stroke: #1f77b4"/>
     <use xlink:href="#m1f406961b3" x="215.288159" y="54.823576" style="fill: #1f77b4; stroke: #1f77b4"/>
     <use xlink:href="#m1f406961b3" x="216.919588" y="55.03181" style="fill: #1f77b4; stroke: #1f77b4"/>
     <use xlink:href="#m1f406961b3" x="218.551018" y="54.881254" style="fill: #1f77b4; stroke: #1f77b4"/>
     <use xlink:href="#m1f406961b3" x="220.182448" y="55.213687" style="fill: #1f77b4; stroke: #1f77b4"/>
     <use xlink:href="#m1f406961b3" x="221.813878" y="55.184115" style="fill: #1f77b4; stroke: #1f77b4"/>
     <use xlink:href="#m1f406961b3" x="223.445308" y="55.402238" style="fill: #1f77b4; stroke: #1f77b4"/>
     <use xlink:href="#m1f406961b3" x="225.076738" y="55.696876" style="fill: #1f77b4; stroke: #1f77b4"/>
     <use xlink:href="#m1f406961b3" x="226.708168" y="55.724943" style="fill: #1f77b4; stroke: #1f77b4"/>
     <use xlink:href="#m1f406961b3" x="228.339598" y="55.743807" style="fill: #1f77b4; stroke: #1f77b4"/>
     <use xlink:href="#m1f406961b3" x="229.971027" y="55.947122" style="fill: #1f77b4; stroke: #1f77b4"/>
     <use xlink:href="#m1f406961b3" x="231.602457" y="55.972655" style="fill: #1f77b4; stroke: #1f77b4"/>
     <use xlink:href="#m1f406961b3" x="233.233887" y="56.272756" style="fill: #1f77b4; stroke: #1f77b4"/>
     <use xlink:href="#m1f406961b3" x="234.865317" y="56.595539" style="fill: #1f77b4; stroke: #1f77b4"/>
     <use xlink:href="#m1f406961b3" x="236.496747" y="56.675776" style="fill: #1f77b4; stroke: #1f77b4"/>
     <use xlink:href="#m1f406961b3" x="238.128177" y="56.755204" style="fill: #1f77b4; stroke: #1f77b4"/>
     <use xlink:href="#m1f406961b3" x="239.759607" y="57.064214" style="fill: #1f77b4; stroke: #1f77b4"/>
     <use xlink:href="#m1f406961b3" x="241.391037" y="57.200214" style="fill: #1f77b4; stroke: #1f77b4"/>
     <use xlink:href="#m1f406961b3" x="243.022466" y="57.380929" style="fill: #1f77b4; stroke: #1f77b4"/>
     <use xlink:href="#m1f406961b3" x="244.653896" y="57.463511" style="fill: #1f77b4; stroke: #1f77b4"/>
     <use xlink:href="#m1f406961b3" x="246.285326" y="57.706539" style="fill: #1f77b4; stroke: #1f77b4"/>
     <use xlink:href="#m1f406961b3" x="247.916756" y="57.906494" style="fill: #1f77b4; stroke: #1f77b4"/>
     <use xlink:href="#m1f406961b3" x="249.548186" y="58.01846" style="fill: #1f77b4; stroke: #1f77b4"/>
     <use xlink:href="#m1f406961b3" x="251.179616" y="58.149257" style="fill: #1f77b4; stroke: #1f77b4"/>
     <use xlink:href="#m1f406961b3" x="252.811046" y="58.656129" style="fill: #1f77b4; stroke: #1f77b4"/>
     <use xlink:href="#m1f406961b3" x="254.442476" y="58.611732" style="fill: #1f77b4; stroke: #1f77b4"/>
     <use xlink:href="#m1f406961b3" x="256.073905" y="59.110553" style="fill: #1f77b4; stroke: #1f77b4"/>
     <use xlink:href="#m1f406961b3" x="257.705335" y="59.305809" style="fill: #1f77b4; stroke: #1f77b4"/>
     <use xlink:href="#m1f406961b3" x="259.336765" y="59.195625" style="fill: #1f77b4; stroke: #1f77b4"/>
     <use xlink:href="#m1f406961b3" x="260.968195" y="59.452727" style="fill: #1f77b4; stroke: #1f77b4"/>
     <use xlink:href="#m1f406961b3" x="262.599625" y="59.706091" style="fill: #1f77b4; stroke: #1f77b4"/>
     <use xlink:href="#m1f406961b3" x="264.231055" y="60.00261" style="fill: #1f77b4; stroke: #1f77b4"/>
     <use xlink:href="#m1f406961b3" x="265.862485" y="60.108688" style="fill: #1f77b4; stroke: #1f77b4"/>
     <use xlink:href="#m1f406961b3" x="267.493915" y="60.26156" style="fill: #1f77b4; stroke: #1f77b4"/>
     <use xlink:href="#m1f406961b3" x="269.125344" y="60.594509" style="fill: #1f77b4; stroke: #1f77b4"/>
     <use xlink:href="#m1f406961b3" x="270.756774" y="60.853069" style="fill: #1f77b4; stroke: #1f77b4"/>
     <use xlink:href="#m1f406961b3" x="272.388204" y="61.053376" style="fill: #1f77b4; stroke: #1f77b4"/>
     <use xlink:href="#m1f406961b3" x="274.019634" y="61.379867" style="fill: #1f77b4; stroke: #1f77b4"/>
     <use xlink:href="#m1f406961b3" x="275.651064" y="61.574052" style="fill: #1f77b4; stroke: #1f77b4"/>
     <use xlink:href="#m1f406961b3" x="277.282494" y="61.791071" style="fill: #1f77b4; stroke: #1f77b4"/>
     <use xlink:href="#m1f406961b3" x="278.913924" y="62.184289" style="fill: #1f77b4; stroke: #1f77b4"/>
     <use xlink:href="#m1f406961b3" x="280.545354" y="62.492836" style="fill: #1f77b4; stroke: #1f77b4"/>
     <use xlink:href="#m1f406961b3" x="282.176783" y="62.538187" style="fill: #1f77b4; stroke: #1f77b4"/>
     <use xlink:href="#m1f406961b3" x="283.808213" y="62.967116" style="fill: #1f77b4; stroke: #1f77b4"/>
     <use xlink:href="#m1f406961b3" x="285.439643" y="63.257375" style="fill: #1f77b4; stroke: #1f77b4"/>
     <use xlink:href="#m1f406961b3" x="287.071073" y="63.301031" style="fill: #1f77b4; stroke: #1f77b4"/>
     <use xlink:href="#m1f406961b3" x="288.702503" y="63.919905" style="fill: #1f77b4; stroke: #1f77b4"/>
     <use xlink:href="#m1f406961b3" x="290.333933" y="63.917207" style="fill: #1f77b4; stroke: #1f77b4"/>
     <use xlink:href="#m1f406961b3" x="291.965363" y="64.372663" style="fill: #1f77b4; stroke: #1f77b4"/>
     <use xlink:href="#m1f406961b3" x="293.596793" y="64.77215" style="fill: #1f77b4; stroke: #1f77b4"/>
     <use xlink:href="#m1f406961b3" x="295.228223" y="65.337302" style="fill: #1f77b4; stroke: #1f77b4"/>
     <use xlink:href="#m1f406961b3" x="296.859652" y="65.133775" style="fill: #1f77b4; stroke: #1f77b4"/>
     <use xlink:href="#m1f406961b3" x="298.491082" y="65.745675" style="fill: #1f77b4; stroke: #1f77b4"/>
     <use xlink:href="#m1f406961b3" x="300.122512" y="66.039598" style="fill: #1f77b4; stroke: #1f77b4"/>
     <use xlink:href="#m1f406961b3" x="301.753942" y="66.312452" style="fill: #1f77b4; stroke: #1f77b4"/>
     <use xlink:href="#m1f406961b3" x="303.385372" y="66.694978" style="fill: #1f77b4; stroke: #1f77b4"/>
     <use xlink:href="#m1f406961b3" x="305.016802" y="67.100153" style="fill: #1f77b4; stroke: #1f77b4"/>
     <use xlink:href="#m1f406961b3" x="306.648232" y="67.605666" style="fill: #1f77b4; stroke: #1f77b4"/>
     <use xlink:href="#m1f406961b3" x="308.279662" y="68.077098" style="fill: #1f77b4; stroke: #1f77b4"/>
     <use xlink:href="#m1f406961b3" x="309.911091" y="68.383327" style="fill: #1f77b4; stroke: #1f77b4"/>
     <use xlink:href="#m1f406961b3" x="311.542521" y="69.031173" style="fill: #1f77b4; stroke: #1f77b4"/>
     <use xlink:href="#m1f406961b3" x="313.173951" y="69.124488" style="fill: #1f77b4; stroke: #1f77b4"/>
     <use xlink:href="#m1f406961b3" x="314.805381" y="69.853933" style="fill: #1f77b4; stroke: #1f77b4"/>
     <use xlink:href="#m1f406961b3" x="316.436811" y="70.531034" style="fill: #1f77b4; stroke: #1f77b4"/>
     <use xlink:href="#m1f406961b3" x="318.068241" y="70.747359" style="fill: #1f77b4; stroke: #1f77b4"/>
     <use xlink:href="#m1f406961b3" x="319.699671" y="71.352176" style="fill: #1f77b4; stroke: #1f77b4"/>
     <use xlink:href="#m1f406961b3" x="321.331101" y="71.892645" style="fill: #1f77b4; stroke: #1f77b4"/>
     <use xlink:href="#m1f406961b3" x="322.96253" y="72.672297" style="fill: #1f77b4; stroke: #1f77b4"/>
     <use xlink:href="#m1f406961b3" x="324.59396" y="73.483169" style="fill: #1f77b4; stroke: #1f77b4"/>
     <use xlink:href="#m1f406961b3" x="326.22539" y="73.945145" style="fill: #1f77b4; stroke: #1f77b4"/>
     <use xlink:href="#m1f406961b3" x="327.85682" y="74.989011" style="fill: #1f77b4; stroke: #1f77b4"/>
     <use xlink:href="#m1f406961b3" x="329.48825" y="75.542498" style="fill: #1f77b4; stroke: #1f77b4"/>
     <use xlink:href="#m1f406961b3" x="331.11968" y="76.222193" style="fill: #1f77b4; stroke: #1f77b4"/>
     <use xlink:href="#m1f406961b3" x="332.75111" y="76.867088" style="fill: #1f77b4; stroke: #1f77b4"/>
     <use xlink:href="#m1f406961b3" x="334.38254" y="77.675007" style="fill: #1f77b4; stroke: #1f77b4"/>
     <use xlink:href="#m1f406961b3" x="336.013969" y="78.509159" style="fill: #1f77b4; stroke: #1f77b4"/>
     <use xlink:href="#m1f406961b3" x="337.645399" y="79.363061" style="fill: #1f77b4; stroke: #1f77b4"/>
     <use xlink:href="#m1f406961b3" x="339.276829" y="80.082831" style="fill: #1f77b4; stroke: #1f77b4"/>
     <use xlink:href="#m1f406961b3" x="340.908259" y="81.075214" style="fill: #1f77b4; stroke: #1f77b4"/>
     <use xlink:href="#m1f406961b3" x="342.539689" y="82.269113" style="fill: #1f77b4; stroke: #1f77b4"/>
     <use xlink:href="#m1f406961b3" x="344.171119" y="83.290386" style="fill: #1f77b4; stroke: #1f77b4"/>
     <use xlink:href="#m1f406961b3" x="345.802549" y="84.190663" style="fill: #1f77b4; stroke: #1f77b4"/>
     <use xlink:href="#m1f406961b3" x="347.433979" y="85.867337" style="fill: #1f77b4; stroke: #1f77b4"/>
     <use xlink:href="#m1f406961b3" x="349.065408" y="86.814569" style="fill: #1f77b4; stroke: #1f77b4"/>
     <use xlink:href="#m1f406961b3" x="350.696838" y="88.176138" style="fill: #1f77b4; stroke: #1f77b4"/>
     <use xlink:href="#m1f406961b3" x="352.328268" y="90.16692" style="fill: #1f77b4; stroke: #1f77b4"/>
     <use xlink:href="#m1f406961b3" x="353.959698" y="91.198913" style="fill: #1f77b4; stroke: #1f77b4"/>
     <use xlink:href="#m1f406961b3" x="355.591128" y="93.317054" style="fill: #1f77b4; stroke: #1f77b4"/>
     <use xlink:href="#m1f406961b3" x="357.222558" y="94.182229" style="fill: #1f77b4; stroke: #1f77b4"/>
     <use xlink:href="#m1f406961b3" x="358.853988" y="97.445146" style="fill: #1f77b4; stroke: #1f77b4"/>
     <use xlink:href="#m1f406961b3" x="360.485418" y="98.21524" style="fill: #1f77b4; stroke: #1f77b4"/>
     <use xlink:href="#m1f406961b3" x="362.116847" y="100.064944" style="fill: #1f77b4; stroke: #1f77b4"/>
     <use xlink:href="#m1f406961b3" x="363.748277" y="101.781713" style="fill: #1f77b4; stroke: #1f77b4"/>
     <use xlink:href="#m1f406961b3" x="365.379707" y="104.46906" style="fill: #1f77b4; stroke: #1f77b4"/>
     <use xlink:href="#m1f406961b3" x="367.011137" y="106.967648" style="fill: #1f77b4; stroke: #1f77b4"/>
     <use xlink:href="#m1f406961b3" x="368.642567" y="109.558486" style="fill: #1f77b4; stroke: #1f77b4"/>
     <use xlink:href="#m1f406961b3" x="370.273997" y="112.234089" style="fill: #1f77b4; stroke: #1f77b4"/>
     <use xlink:href="#m1f406961b3" x="371.905427" y="114.437362" style="fill: #1f77b4; stroke: #1f77b4"/>
     <use xlink:href="#m1f406961b3" x="373.536857" y="117.156625" style="fill: #1f77b4; stroke: #1f77b4"/>
     <use xlink:href="#m1f406961b3" x="375.168286" y="119.484476" style="fill: #1f77b4; stroke: #1f77b4"/>
     <use xlink:href="#m1f406961b3" x="376.799716" y="121.201257" style="fill: #1f77b4; stroke: #1f77b4"/>
     <use xlink:href="#m1f406961b3" x="378.431146" y="124.955801" style="fill: #1f77b4; stroke: #1f77b4"/>
     <use xlink:href="#m1f406961b3" x="380.062576" y="127.881276" style="fill: #1f77b4; stroke: #1f77b4"/>
     <use xlink:href="#m1f406961b3" x="381.694006" y="132.044909" style="fill: #1f77b4; stroke: #1f77b4"/>
     <use xlink:href="#m1f406961b3" x="383.325436" y="135.956565" style="fill: #1f77b4; stroke: #1f77b4"/>
     <use xlink:href="#m1f406961b3" x="384.956866" y="139.362807" style="fill: #1f77b4; stroke: #1f77b4"/>
     <use xlink:href="#m1f406961b3" x="386.588296" y="142.477375" style="fill: #1f77b4; stroke: #1f77b4"/>
     <use xlink:href="#m1f406961b3" x="388.219725" y="146.016334" style="fill: #1f77b4; stroke: #1f77b4"/>
     <use xlink:href="#m1f406961b3" x="389.851155" y="149.581996" style="fill: #1f77b4; stroke: #1f77b4"/>
     <use xlink:href="#m1f406961b3" x="391.482585" y="154.252228" style="fill: #1f77b4; stroke: #1f77b4"/>
    </g>
   </g>
   <g id="line2d_10">
    <path d="M 66.82804 59.873873 
L 104.850644 57.968197 
L 146.773003 55.635717 
L 207.219195 52.255396 
L 225.093068 51.506108 
L 238.417229 51.159309 
L 249.466533 51.087992 
L 258.890939 51.24683 
L 267.015427 51.600098 
L 274.164977 52.122304 
L 280.664567 52.809047 
L 286.839178 53.687434 
L 292.36383 54.694748 
L 297.563503 55.865975 
L 302.438195 57.190253 
L 306.987909 58.650973 
L 311.212643 60.225785 
L 315.437376 62.034976 
L 319.337131 63.934721 
L 323.236885 66.0764 
L 327.136639 68.481677 
L 330.711414 70.937001 
L 334.286189 73.649567 
L 337.860964 76.636173 
L 341.435738 79.912829 
L 345.010513 83.494199 
L 348.585288 87.392946 
L 352.160063 91.618982 
L 355.734837 96.178631 
L 359.634592 101.535302 
L 363.534346 107.286076 
L 367.75908 113.944214 
L 371.983814 121.016394 
L 376.858507 129.627979 
L 382.708138 140.460102 
L 391.482585 157.221818 
L 391.482585 157.221818 
" clip-path="url(#p25d0f3ec6d)" style="fill: none; stroke: #d62728; stroke-width: 1.5; stroke-linecap: square"/>
   </g>
   <g id="patch_3">
    <path d="M 50.595313 162.72 
L 50.595313 41.76 
" style="fill: none; stroke: #000000; stroke-width: 0.8; stroke-linejoin: miter; stroke-linecap: square"/>
   </g>
   <g id="patch_4">
    <path d="M 407.715312 162.72 
L 407.715312 41.76 
" style="fill: none; stroke: #000000; stroke-width: 0.8; stroke-linejoin: miter; stroke-linecap: square"/>
   </g>
   <g id="patch_5">
    <path d="M 50.595312 162.72 
L 407.715312 162.72 
" style="fill: none; stroke: #000000; stroke-width: 0.8; stroke-linejoin: miter; stroke-linecap: square"/>
   </g>
   <g id="patch_6">
    <path d="M 50.595312 41.76 
L 407.715312 41.76 
" style="fill: none; stroke: #000000; stroke-width: 0.8; stroke-linejoin: miter; stroke-linecap: square"/>
   </g>
   <g id="text_5">
    <g id="patch_7">
     <path d="M 425.571312 95.079562 
L 548.871312 95.079562 
Q 552.871312 95.079562 552.871312 91.079562 
L 552.871312 47.808 
Q 552.871312 43.808 548.871312 43.808 
L 425.571312 43.808 
Q 421.571312 43.808 421.571312 47.808 
L 421.571312 91.079562 
Q 421.571312 95.079562 425.571312 95.079562 
z
" style="fill: #ffffff; opacity: 0.5; stroke: #000000; stroke-linejoin: miter"/>
    </g>
    <!-- Summary -->
    <g transform="translate(425.571312 55.406437) scale(0.1 -0.1)">
     <defs>
      <path id="DejaVuSans-53" d="M 3425 4513 
L 3425 3897 
Q 3066 4069 2747 4153 
Q 2428 4238 2131 4238 
Q 1616 4238 1336 4038 
Q 1056 3838 1056 3469 
Q 1056 3159 1242 3001 
Q 1428 2844 1947 2747 
L 2328 2669 
Q 3034 2534 3370 2195 
Q 3706 1856 3706 1288 
Q 3706 609 3251 259 
Q 2797 -91 1919 -91 
Q 1588 -91 1214 -16 
Q 841 59 441 206 
L 441 856 
Q 825 641 1194 531 
Q 1563 422 1919 422 
Q 2459 422 2753 634 
Q 3047 847 3047 1241 
Q 3047 1584 2836 1778 
Q 2625 1972 2144 2069 
L 1759 2144 
Q 1053 2284 737 2584 
Q 422 2884 422 3419 
Q 422 4038 858 4394 
Q 1294 4750 2059 4750 
Q 2388 4750 2728 4690 
Q 3069 4631 3425 4513 
z
" transform="scale(0.015625)"/>
      <path id="DejaVuSans-75" d="M 544 1381 
L 544 3500 
L 1119 3500 
L 1119 1403 
Q 1119 906 1312 657 
Q 1506 409 1894 409 
Q 2359 409 2629 706 
Q 2900 1003 2900 1516 
L 2900 3500 
L 3475 3500 
L 3475 0 
L 2900 0 
L 2900 538 
Q 2691 219 2414 64 
Q 2138 -91 1772 -91 
Q 1169 -91 856 284 
Q 544 659 544 1381 
z
M 1991 3584 
L 1991 3584 
z
" transform="scale(0.015625)"/>
      <path id="DejaVuSans-61" d="M 2194 1759 
Q 1497 1759 1228 1600 
Q 959 1441 959 1056 
Q 959 750 1161 570 
Q 1363 391 1709 391 
Q 2188 391 2477 730 
Q 2766 1069 2766 1631 
L 2766 1759 
L 2194 1759 
z
M 3341 1997 
L 3341 0 
L 2766 0 
L 2766 531 
Q 2569 213 2275 61 
Q 1981 -91 1556 -91 
Q 1019 -91 701 211 
Q 384 513 384 1019 
Q 384 1609 779 1909 
Q 1175 2209 1959 2209 
L 2766 2209 
L 2766 2266 
Q 2766 2663 2505 2880 
Q 2244 3097 1772 3097 
Q 1472 3097 1187 3025 
Q 903 2953 641 2809 
L 641 3341 
Q 956 3463 1253 3523 
Q 1550 3584 1831 3584 
Q 2591 3584 2966 3190 
Q 3341 2797 3341 1997 
z
" transform="scale(0.015625)"/>
      <path id="DejaVuSans-72" d="M 2631 2963 
Q 2534 3019 2420 3045 
Q 2306 3072 2169 3072 
Q 1681 3072 1420 2755 
Q 1159 2438 1159 1844 
L 1159 0 
L 581 0 
L 581 3500 
L 1159 3500 
L 1159 2956 
Q 1341 3275 1631 3429 
Q 1922 3584 2338 3584 
Q 2397 3584 2469 3576 
Q 2541 3569 2628 3553 
L 2631 2963 
z
" transform="scale(0.015625)"/>
      <path id="DejaVuSans-79" d="M 2059 -325 
Q 1816 -950 1584 -1140 
Q 1353 -1331 966 -1331 
L 506 -1331 
L 506 -850 
L 844 -850 
Q 1081 -850 1212 -737 
Q 1344 -625 1503 -206 
L 1606 56 
L 191 3500 
L 800 3500 
L 1894 763 
L 2988 3500 
L 3597 3500 
L 2059 -325 
z
" transform="scale(0.015625)"/>
     </defs>
     <use xlink:href="#DejaVuSans-53"/>
     <use xlink:href="#DejaVuSans-75" x="63.476562"/>
     <use xlink:href="#DejaVuSans-6d" x="126.855469"/>
     <use xlink:href="#DejaVuSans-6d" x="224.267578"/>
     <use xlink:href="#DejaVuSans-61" x="321.679688"/>
     <use xlink:href="#DejaVuSans-72" x="382.958984"/>
     <use xlink:href="#DejaVuSans-79" x="424.072266"/>
    </g>
    <!-- $Q_I$: 2.15$\pm$0.30 k -->
    <g transform="translate(425.571312 66.60425) scale(0.1 -0.1)">
     <defs>
      <path id="DejaVuSans-Oblique-51" d="M 2309 -84 
Q 2275 -88 2237 -89 
Q 2200 -91 2125 -91 
Q 1250 -91 756 411 
Q 263 913 263 1797 
Q 263 2319 452 2844 
Q 641 3369 978 3788 
Q 1369 4269 1858 4509 
Q 2347 4750 2938 4750 
Q 3794 4750 4287 4245 
Q 4781 3741 4781 2869 
Q 4781 1928 4265 1147 
Q 3750 366 2919 44 
L 3553 -825 
L 2847 -825 
L 2309 -84 
z
M 2919 4238 
Q 2400 4238 2003 3986 
Q 1606 3734 1313 3219 
Q 1125 2891 1026 2522 
Q 928 2153 928 1778 
Q 928 1128 1239 775 
Q 1550 422 2119 422 
Q 2631 422 3032 676 
Q 3434 931 3719 1434 
Q 3909 1772 4009 2142 
Q 4109 2513 4109 2881 
Q 4109 3528 3796 3883 
Q 3484 4238 2919 4238 
z
" transform="scale(0.015625)"/>
      <path id="DejaVuSans-Oblique-49" d="M 1081 4666 
L 1716 4666 
L 806 0 
L 172 0 
L 1081 4666 
z
" transform="scale(0.015625)"/>
      <path id="DejaVuSans-3a" d="M 750 794 
L 1409 794 
L 1409 0 
L 750 0 
L 750 794 
z
M 750 3309 
L 1409 3309 
L 1409 2516 
L 750 2516 
L 750 3309 
z
" transform="scale(0.015625)"/>
      <path id="DejaVuSans-2e" d="M 684 794 
L 1344 794 
L 1344 0 
L 684 0 
L 684 794 
z
" transform="scale(0.015625)"/>
      <path id="DejaVuSans-b1" d="M 2944 4013 
L 2944 2803 
L 4684 2803 
L 4684 2272 
L 2944 2272 
L 2944 1063 
L 2419 1063 
L 2419 2272 
L 678 2272 
L 678 2803 
L 2419 2803 
L 2419 4013 
L 2944 4013 
z
M 678 531 
L 4684 531 
L 4684 0 
L 678 0 
L 678 531 
z
" transform="scale(0.015625)"/>
      <path id="DejaVuSans-33" d="M 2597 2516 
Q 3050 2419 3304 2112 
Q 3559 1806 3559 1356 
Q 3559 666 3084 287 
Q 2609 -91 1734 -91 
Q 1441 -91 1130 -33 
Q 819 25 488 141 
L 488 750 
Q 750 597 1062 519 
Q 1375 441 1716 441 
Q 2309 441 2620 675 
Q 2931 909 2931 1356 
Q 2931 1769 2642 2001 
Q 2353 2234 1838 2234 
L 1294 2234 
L 1294 2753 
L 1863 2753 
Q 2328 2753 2575 2939 
Q 2822 3125 2822 3475 
Q 2822 3834 2567 4026 
Q 2313 4219 1838 4219 
Q 1578 4219 1281 4162 
Q 984 4106 628 3988 
L 628 4550 
Q 988 4650 1302 4700 
Q 1616 4750 1894 4750 
Q 2613 4750 3031 4423 
Q 3450 4097 3450 3541 
Q 3450 3153 3228 2886 
Q 3006 2619 2597 2516 
z
" transform="scale(0.015625)"/>
      <path id="DejaVuSans-6b" d="M 581 4863 
L 1159 4863 
L 1159 1991 
L 2875 3500 
L 3609 3500 
L 1753 1863 
L 3688 0 
L 2938 0 
L 1159 1709 
L 1159 0 
L 581 0 
L 581 4863 
z
" transform="scale(0.015625)"/>
     </defs>
     <use xlink:href="#DejaVuSans-Oblique-51" transform="translate(0 0.015625)"/>
     <use xlink:href="#DejaVuSans-Oblique-49" transform="translate(78.710938 -16.390625) scale(0.7)"/>
     <use xlink:href="#DejaVuSans-3a" transform="translate(102.089844 0.015625)"/>
     <use xlink:href="#DejaVuSans-20" transform="translate(135.78125 0.015625)"/>
     <use xlink:href="#DejaVuSans-32" transform="translate(167.568359 0.015625)"/>
     <use xlink:href="#DejaVuSans-2e" transform="translate(231.191406 0.015625)"/>
     <use xlink:href="#DejaVuSans-31" transform="translate(262.978516 0.015625)"/>
     <use xlink:href="#DejaVuSans-35" transform="translate(326.601562 0.015625)"/>
     <use xlink:href="#DejaVuSans-b1" transform="translate(390.224609 0.015625)"/>
     <use xlink:href="#DejaVuSans-30" transform="translate(474.013672 0.015625)"/>
     <use xlink:href="#DejaVuSans-2e" transform="translate(537.636719 0.015625)"/>
     <use xlink:href="#DejaVuSans-33" transform="translate(569.423828 0.015625)"/>
     <use xlink:href="#DejaVuSans-30" transform="translate(633.046875 0.015625)"/>
     <use xlink:href="#DejaVuSans-20" transform="translate(696.669922 0.015625)"/>
     <use xlink:href="#DejaVuSans-6b" transform="translate(728.457031 0.015625)"/>
    </g>
    <!-- $Q_C$: 2.52$\pm$0.44 k -->
    <g transform="translate(425.571312 77.802062) scale(0.1 -0.1)">
     <defs>
      <path id="DejaVuSans-Oblique-43" d="M 4447 4306 
L 4319 3641 
Q 4019 3944 3683 4091 
Q 3347 4238 2956 4238 
Q 2422 4238 2017 3981 
Q 1613 3725 1319 3200 
Q 1131 2863 1032 2486 
Q 934 2109 934 1728 
Q 934 1091 1264 756 
Q 1594 422 2222 422 
Q 2656 422 3056 561 
Q 3456 700 3834 978 
L 3688 231 
Q 3316 72 2936 -9 
Q 2556 -91 2175 -91 
Q 1278 -91 773 396 
Q 269 884 269 1753 
Q 269 2309 461 2846 
Q 653 3384 1013 3828 
Q 1394 4300 1883 4525 
Q 2372 4750 3022 4750 
Q 3422 4750 3780 4639 
Q 4138 4528 4447 4306 
z
" transform="scale(0.015625)"/>
      <path id="DejaVuSans-34" d="M 2419 4116 
L 825 1625 
L 2419 1625 
L 2419 4116 
z
M 2253 4666 
L 3047 4666 
L 3047 1625 
L 3713 1625 
L 3713 1100 
L 3047 1100 
L 3047 0 
L 2419 0 
L 2419 1100 
L 313 1100 
L 313 1709 
L 2253 4666 
z
" transform="scale(0.015625)"/>
     </defs>
     <use xlink:href="#DejaVuSans-Oblique-51" transform="translate(0 0.015625)"/>
     <use xlink:href="#DejaVuSans-Oblique-43" transform="translate(78.710938 -16.390625) scale(0.7)"/>
     <use xlink:href="#DejaVuSans-3a" transform="translate(130.322266 0.015625)"/>
     <use xlink:href="#DejaVuSans-20" transform="translate(164.013672 0.015625)"/>
     <use xlink:href="#DejaVuSans-32" transform="translate(195.800781 0.015625)"/>
     <use xlink:href="#DejaVuSans-2e" transform="translate(259.423828 0.015625)"/>
     <use xlink:href="#DejaVuSans-35" transform="translate(291.210938 0.015625)"/>
     <use xlink:href="#DejaVuSans-32" transform="translate(354.833984 0.015625)"/>
     <use xlink:href="#DejaVuSans-b1" transform="translate(418.457031 0.015625)"/>
     <use xlink:href="#DejaVuSans-30" transform="translate(502.246094 0.015625)"/>
     <use xlink:href="#DejaVuSans-2e" transform="translate(565.869141 0.015625)"/>
     <use xlink:href="#DejaVuSans-34" transform="translate(597.65625 0.015625)"/>
     <use xlink:href="#DejaVuSans-34" transform="translate(661.279297 0.015625)"/>
     <use xlink:href="#DejaVuSans-20" transform="translate(724.902344 0.015625)"/>
     <use xlink:href="#DejaVuSans-6b" transform="translate(756.689453 0.015625)"/>
    </g>
    <!-- $f_{res}$: 6.1050$\pm$0.0036 GHz -->
    <g transform="translate(425.571312 88.999875) scale(0.1 -0.1)">
     <defs>
      <path id="DejaVuSans-Oblique-66" d="M 3059 4863 
L 2969 4384 
L 2419 4384 
Q 2106 4384 1964 4261 
Q 1822 4138 1753 3809 
L 1691 3500 
L 2638 3500 
L 2553 3053 
L 1606 3053 
L 1013 0 
L 434 0 
L 1031 3053 
L 481 3053 
L 563 3500 
L 1113 3500 
L 1159 3744 
Q 1278 4363 1576 4613 
Q 1875 4863 2516 4863 
L 3059 4863 
z
" transform="scale(0.015625)"/>
      <path id="DejaVuSans-Oblique-72" d="M 2853 2969 
Q 2766 3016 2653 3041 
Q 2541 3066 2413 3066 
Q 1953 3066 1609 2717 
Q 1266 2369 1153 1784 
L 800 0 
L 225 0 
L 909 3500 
L 1484 3500 
L 1375 2956 
Q 1603 3259 1920 3421 
Q 2238 3584 2597 3584 
Q 2691 3584 2781 3573 
Q 2872 3563 2963 3538 
L 2853 2969 
z
" transform="scale(0.015625)"/>
      <path id="DejaVuSans-Oblique-65" d="M 3078 2063 
Q 3088 2113 3092 2166 
Q 3097 2219 3097 2272 
Q 3097 2653 2873 2875 
Q 2650 3097 2266 3097 
Q 1838 3097 1509 2826 
Q 1181 2556 1013 2059 
L 3078 2063 
z
M 3578 1613 
L 903 1613 
Q 884 1494 878 1425 
Q 872 1356 872 1306 
Q 872 872 1139 634 
Q 1406 397 1894 397 
Q 2269 397 2603 481 
Q 2938 566 3225 728 
L 3116 159 
Q 2806 34 2476 -28 
Q 2147 -91 1806 -91 
Q 1078 -91 686 257 
Q 294 606 294 1247 
Q 294 1794 489 2264 
Q 684 2734 1063 3103 
Q 1306 3334 1642 3459 
Q 1978 3584 2356 3584 
Q 2950 3584 3301 3228 
Q 3653 2872 3653 2272 
Q 3653 2128 3634 1964 
Q 3616 1800 3578 1613 
z
" transform="scale(0.015625)"/>
      <path id="DejaVuSans-Oblique-73" d="M 3200 3397 
L 3091 2853 
Q 2863 2978 2609 3040 
Q 2356 3103 2088 3103 
Q 1634 3103 1373 2948 
Q 1113 2794 1113 2528 
Q 1113 2219 1719 2053 
Q 1766 2041 1788 2034 
L 1972 1978 
Q 2547 1819 2739 1644 
Q 2931 1469 2931 1166 
Q 2931 609 2489 259 
Q 2047 -91 1331 -91 
Q 1053 -91 747 -37 
Q 441 16 72 128 
L 184 722 
Q 500 559 806 475 
Q 1113 391 1394 391 
Q 1816 391 2080 572 
Q 2344 753 2344 1031 
Q 2344 1331 1650 1516 
L 1591 1531 
L 1394 1581 
Q 956 1697 753 1886 
Q 550 2075 550 2369 
Q 550 2928 970 3256 
Q 1391 3584 2113 3584 
Q 2397 3584 2667 3537 
Q 2938 3491 3200 3397 
z
" transform="scale(0.015625)"/>
      <path id="DejaVuSans-47" d="M 3809 666 
L 3809 1919 
L 2778 1919 
L 2778 2438 
L 4434 2438 
L 4434 434 
Q 4069 175 3628 42 
Q 3188 -91 2688 -91 
Q 1594 -91 976 548 
Q 359 1188 359 2328 
Q 359 3472 976 4111 
Q 1594 4750 2688 4750 
Q 3144 4750 3555 4637 
Q 3966 4525 4313 4306 
L 4313 3634 
Q 3963 3931 3569 4081 
Q 3175 4231 2741 4231 
Q 1884 4231 1454 3753 
Q 1025 3275 1025 2328 
Q 1025 1384 1454 906 
Q 1884 428 2741 428 
Q 3075 428 3337 486 
Q 3600 544 3809 666 
z
" transform="scale(0.015625)"/>
      <path id="DejaVuSans-48" d="M 628 4666 
L 1259 4666 
L 1259 2753 
L 3553 2753 
L 3553 4666 
L 4184 4666 
L 4184 0 
L 3553 0 
L 3553 2222 
L 1259 2222 
L 1259 0 
L 628 0 
L 628 4666 
z
" transform="scale(0.015625)"/>
      <path id="DejaVuSans-7a" d="M 353 3500 
L 3084 3500 
L 3084 2975 
L 922 459 
L 3084 459 
L 3084 0 
L 275 0 
L 275 525 
L 2438 3041 
L 353 3041 
L 353 3500 
z
" transform="scale(0.015625)"/>
     </defs>
     <use xlink:href="#DejaVuSans-Oblique-66" transform="translate(0 0.015625)"/>
     <use xlink:href="#DejaVuSans-Oblique-72" transform="translate(35.205078 -16.390625) scale(0.7)"/>
     <use xlink:href="#DejaVuSans-Oblique-65" transform="translate(63.984375 -16.390625) scale(0.7)"/>
     <use xlink:href="#DejaVuSans-Oblique-73" transform="translate(107.050781 -16.390625) scale(0.7)"/>
     <use xlink:href="#DejaVuSans-3a" transform="translate(146.254883 0.015625)"/>
     <use xlink:href="#DejaVuSans-20" transform="translate(179.946289 0.015625)"/>
     <use xlink:href="#DejaVuSans-36" transform="translate(211.733398 0.015625)"/>
     <use xlink:href="#DejaVuSans-2e" transform="translate(275.356445 0.015625)"/>
     <use xlink:href="#DejaVuSans-31" transform="translate(307.143555 0.015625)"/>
     <use xlink:href="#DejaVuSans-30" transform="translate(370.766602 0.015625)"/>
     <use xlink:href="#DejaVuSans-35" transform="translate(434.389648 0.015625)"/>
     <use xlink:href="#DejaVuSans-30" transform="translate(498.012695 0.015625)"/>
     <use xlink:href="#DejaVuSans-b1" transform="translate(561.635742 0.015625)"/>
     <use xlink:href="#DejaVuSans-30" transform="translate(645.424805 0.015625)"/>
     <use xlink:href="#DejaVuSans-2e" transform="translate(709.047852 0.015625)"/>
     <use xlink:href="#DejaVuSans-30" transform="translate(740.834961 0.015625)"/>
     <use xlink:href="#DejaVuSans-30" transform="translate(804.458008 0.015625)"/>
     <use xlink:href="#DejaVuSans-33" transform="translate(868.081055 0.015625)"/>
     <use xlink:href="#DejaVuSans-36" transform="translate(931.704102 0.015625)"/>
     <use xlink:href="#DejaVuSans-20" transform="translate(995.327148 0.015625)"/>
     <use xlink:href="#DejaVuSans-47" transform="translate(1027.114258 0.015625)"/>
     <use xlink:href="#DejaVuSans-48" transform="translate(1104.604492 0.015625)"/>
     <use xlink:href="#DejaVuSans-7a" transform="translate(1179.799805 0.015625)"/>
    </g>
   </g>
  </g>
  <g id="axes_2">
   <g id="patch_8">
    <path d="M 50.595313 307.872 
L 407.715312 307.872 
L 407.715312 186.912 
L 50.595313 186.912 
z
" style="fill: #ffffff"/>
   </g>
   <g id="matplotlib.axis_3">
    <g id="xtick_6">
     <g id="line2d_11">
      <g>
       <use xlink:href="#m6bb078b223" x="99.293494" y="307.872" style="stroke: #000000; stroke-width: 0.8"/>
      </g>
     </g>
     <g id="text_6">
      <!-- 96 -->
      <g transform="translate(92.930994 322.470438) scale(0.1 -0.1)">
       <defs>
        <path id="DejaVuSans-39" d="M 703 97 
L 703 672 
Q 941 559 1184 500 
Q 1428 441 1663 441 
Q 2288 441 2617 861 
Q 2947 1281 2994 2138 
Q 2813 1869 2534 1725 
Q 2256 1581 1919 1581 
Q 1219 1581 811 2004 
Q 403 2428 403 3163 
Q 403 3881 828 4315 
Q 1253 4750 1959 4750 
Q 2769 4750 3195 4129 
Q 3622 3509 3622 2328 
Q 3622 1225 3098 567 
Q 2575 -91 1691 -91 
Q 1453 -91 1209 -44 
Q 966 3 703 97 
z
M 1959 2075 
Q 2384 2075 2632 2365 
Q 2881 2656 2881 3163 
Q 2881 3666 2632 3958 
Q 2384 4250 1959 4250 
Q 1534 4250 1286 3958 
Q 1038 3666 1038 3163 
Q 1038 2656 1286 2365 
Q 1534 2075 1959 2075 
z
" transform="scale(0.015625)"/>
       </defs>
       <use xlink:href="#DejaVuSans-39"/>
       <use xlink:href="#DejaVuSans-36" x="63.623047"/>
      </g>
     </g>
    </g>
    <g id="xtick_7">
     <g id="line2d_12">
      <g>
       <use xlink:href="#m6bb078b223" x="164.224403" y="307.872" style="stroke: #000000; stroke-width: 0.8"/>
      </g>
     </g>
     <g id="text_7">
      <!-- 98 -->
      <g transform="translate(157.861903 322.470438) scale(0.1 -0.1)">
       <defs>
        <path id="DejaVuSans-38" d="M 2034 2216 
Q 1584 2216 1326 1975 
Q 1069 1734 1069 1313 
Q 1069 891 1326 650 
Q 1584 409 2034 409 
Q 2484 409 2743 651 
Q 3003 894 3003 1313 
Q 3003 1734 2745 1975 
Q 2488 2216 2034 2216 
z
M 1403 2484 
Q 997 2584 770 2862 
Q 544 3141 544 3541 
Q 544 4100 942 4425 
Q 1341 4750 2034 4750 
Q 2731 4750 3128 4425 
Q 3525 4100 3525 3541 
Q 3525 3141 3298 2862 
Q 3072 2584 2669 2484 
Q 3125 2378 3379 2068 
Q 3634 1759 3634 1313 
Q 3634 634 3220 271 
Q 2806 -91 2034 -91 
Q 1263 -91 848 271 
Q 434 634 434 1313 
Q 434 1759 690 2068 
Q 947 2378 1403 2484 
z
M 1172 3481 
Q 1172 3119 1398 2916 
Q 1625 2713 2034 2713 
Q 2441 2713 2670 2916 
Q 2900 3119 2900 3481 
Q 2900 3844 2670 4047 
Q 2441 4250 2034 4250 
Q 1625 4250 1398 4047 
Q 1172 3844 1172 3481 
z
" transform="scale(0.015625)"/>
       </defs>
       <use xlink:href="#DejaVuSans-39"/>
       <use xlink:href="#DejaVuSans-38" x="63.623047"/>
      </g>
     </g>
    </g>
    <g id="xtick_8">
     <g id="line2d_13">
      <g>
       <use xlink:href="#m6bb078b223" x="229.155312" y="307.872" style="stroke: #000000; stroke-width: 0.8"/>
      </g>
     </g>
     <g id="text_8">
      <!-- 100 -->
      <g transform="translate(219.611562 322.470438) scale(0.1 -0.1)">
       <use xlink:href="#DejaVuSans-31"/>
       <use xlink:href="#DejaVuSans-30" x="63.623047"/>
       <use xlink:href="#DejaVuSans-30" x="127.246094"/>
      </g>
     </g>
    </g>
    <g id="xtick_9">
     <g id="line2d_14">
      <g>
       <use xlink:href="#m6bb078b223" x="294.086222" y="307.872" style="stroke: #000000; stroke-width: 0.8"/>
      </g>
     </g>
     <g id="text_9">
      <!-- 102 -->
      <g transform="translate(284.542472 322.470438) scale(0.1 -0.1)">
       <use xlink:href="#DejaVuSans-31"/>
       <use xlink:href="#DejaVuSans-30" x="63.623047"/>
       <use xlink:href="#DejaVuSans-32" x="127.246094"/>
      </g>
     </g>
    </g>
    <g id="xtick_10">
     <g id="line2d_15">
      <g>
       <use xlink:href="#m6bb078b223" x="359.017131" y="307.872" style="stroke: #000000; stroke-width: 0.8"/>
      </g>
     </g>
     <g id="text_10">
      <!-- 104 -->
      <g transform="translate(349.473381 322.470438) scale(0.1 -0.1)">
       <use xlink:href="#DejaVuSans-31"/>
       <use xlink:href="#DejaVuSans-30" x="63.623047"/>
       <use xlink:href="#DejaVuSans-34" x="127.246094"/>
      </g>
     </g>
    </g>
    <g id="text_11">
     <!-- Frequency [MHz] -->
     <g transform="translate(187.136562 336.148562) scale(0.1 -0.1)">
      <defs>
       <path id="DejaVuSans-46" d="M 628 4666 
L 3309 4666 
L 3309 4134 
L 1259 4134 
L 1259 2759 
L 3109 2759 
L 3109 2228 
L 1259 2228 
L 1259 0 
L 628 0 
L 628 4666 
z
" transform="scale(0.015625)"/>
       <path id="DejaVuSans-65" d="M 3597 1894 
L 3597 1613 
L 953 1613 
Q 991 1019 1311 708 
Q 1631 397 2203 397 
Q 2534 397 2845 478 
Q 3156 559 3463 722 
L 3463 178 
Q 3153 47 2828 -22 
Q 2503 -91 2169 -91 
Q 1331 -91 842 396 
Q 353 884 353 1716 
Q 353 2575 817 3079 
Q 1281 3584 2069 3584 
Q 2775 3584 3186 3129 
Q 3597 2675 3597 1894 
z
M 3022 2063 
Q 3016 2534 2758 2815 
Q 2500 3097 2075 3097 
Q 1594 3097 1305 2825 
Q 1016 2553 972 2059 
L 3022 2063 
z
" transform="scale(0.015625)"/>
       <path id="DejaVuSans-71" d="M 947 1747 
Q 947 1113 1208 752 
Q 1469 391 1925 391 
Q 2381 391 2643 752 
Q 2906 1113 2906 1747 
Q 2906 2381 2643 2742 
Q 2381 3103 1925 3103 
Q 1469 3103 1208 2742 
Q 947 2381 947 1747 
z
M 2906 525 
Q 2725 213 2448 61 
Q 2172 -91 1784 -91 
Q 1150 -91 751 415 
Q 353 922 353 1747 
Q 353 2572 751 3078 
Q 1150 3584 1784 3584 
Q 2172 3584 2448 3432 
Q 2725 3281 2906 2969 
L 2906 3500 
L 3481 3500 
L 3481 -1331 
L 2906 -1331 
L 2906 525 
z
" transform="scale(0.015625)"/>
       <path id="DejaVuSans-6e" d="M 3513 2113 
L 3513 0 
L 2938 0 
L 2938 2094 
Q 2938 2591 2744 2837 
Q 2550 3084 2163 3084 
Q 1697 3084 1428 2787 
Q 1159 2491 1159 1978 
L 1159 0 
L 581 0 
L 581 3500 
L 1159 3500 
L 1159 2956 
Q 1366 3272 1645 3428 
Q 1925 3584 2291 3584 
Q 2894 3584 3203 3211 
Q 3513 2838 3513 2113 
z
" transform="scale(0.015625)"/>
       <path id="DejaVuSans-63" d="M 3122 3366 
L 3122 2828 
Q 2878 2963 2633 3030 
Q 2388 3097 2138 3097 
Q 1578 3097 1268 2742 
Q 959 2388 959 1747 
Q 959 1106 1268 751 
Q 1578 397 2138 397 
Q 2388 397 2633 464 
Q 2878 531 3122 666 
L 3122 134 
Q 2881 22 2623 -34 
Q 2366 -91 2075 -91 
Q 1284 -91 818 406 
Q 353 903 353 1747 
Q 353 2603 823 3093 
Q 1294 3584 2113 3584 
Q 2378 3584 2631 3529 
Q 2884 3475 3122 3366 
z
" transform="scale(0.015625)"/>
       <path id="DejaVuSans-4d" d="M 628 4666 
L 1569 4666 
L 2759 1491 
L 3956 4666 
L 4897 4666 
L 4897 0 
L 4281 0 
L 4281 4097 
L 3078 897 
L 2444 897 
L 1241 4097 
L 1241 0 
L 628 0 
L 628 4666 
z
" transform="scale(0.015625)"/>
      </defs>
      <use xlink:href="#DejaVuSans-46"/>
      <use xlink:href="#DejaVuSans-72" x="50.269531"/>
      <use xlink:href="#DejaVuSans-65" x="89.132812"/>
      <use xlink:href="#DejaVuSans-71" x="150.65625"/>
      <use xlink:href="#DejaVuSans-75" x="214.132812"/>
      <use xlink:href="#DejaVuSans-65" x="277.511719"/>
      <use xlink:href="#DejaVuSans-6e" x="339.035156"/>
      <use xlink:href="#DejaVuSans-63" x="402.414062"/>
      <use xlink:href="#DejaVuSans-79" x="457.394531"/>
      <use xlink:href="#DejaVuSans-20" x="516.574219"/>
      <use xlink:href="#DejaVuSans-5b" x="548.361328"/>
      <use xlink:href="#DejaVuSans-4d" x="587.375"/>
      <use xlink:href="#DejaVuSans-48" x="673.654297"/>
      <use xlink:href="#DejaVuSans-7a" x="748.849609"/>
      <use xlink:href="#DejaVuSans-5d" x="801.339844"/>
     </g>
    </g>
    <g id="text_12">
     <!-- +6 GHz -->
     <g transform="translate(369.277812 335.148562) scale(0.1 -0.1)">
      <defs>
       <path id="DejaVuSans-2b" d="M 2944 4013 
L 2944 2272 
L 4684 2272 
L 4684 1741 
L 2944 1741 
L 2944 0 
L 2419 0 
L 2419 1741 
L 678 1741 
L 678 2272 
L 2419 2272 
L 2419 4013 
L 2944 4013 
z
" transform="scale(0.015625)"/>
      </defs>
      <use xlink:href="#DejaVuSans-2b"/>
      <use xlink:href="#DejaVuSans-36" x="83.789062"/>
      <use xlink:href="#DejaVuSans-20" x="147.412109"/>
      <use xlink:href="#DejaVuSans-47" x="179.199219"/>
      <use xlink:href="#DejaVuSans-48" x="256.689453"/>
      <use xlink:href="#DejaVuSans-7a" x="331.884766"/>
     </g>
    </g>
   </g>
   <g id="matplotlib.axis_4">
    <g id="ytick_4">
     <g id="line2d_16">
      <g>
       <use xlink:href="#mddd8417bd4" x="50.595313" y="277.943879" style="stroke: #000000; stroke-width: 0.8"/>
      </g>
     </g>
     <g id="text_13">
      <!-- -100 -->
      <g transform="translate(20.9 281.743098) scale(0.1 -0.1)">
       <defs>
        <path id="DejaVuSans-2d" d="M 313 2009 
L 1997 2009 
L 1997 1497 
L 313 1497 
L 313 2009 
z
" transform="scale(0.015625)"/>
       </defs>
       <use xlink:href="#DejaVuSans-2d"/>
       <use xlink:href="#DejaVuSans-31" x="36.083984"/>
       <use xlink:href="#DejaVuSans-30" x="99.707031"/>
       <use xlink:href="#DejaVuSans-30" x="163.330078"/>
      </g>
     </g>
    </g>
    <g id="ytick_5">
     <g id="line2d_17">
      <g>
       <use xlink:href="#mddd8417bd4" x="50.595313" y="247.387235" style="stroke: #000000; stroke-width: 0.8"/>
      </g>
     </g>
     <g id="text_14">
      <!-- 0 -->
      <g transform="translate(37.232813 251.186454) scale(0.1 -0.1)">
       <use xlink:href="#DejaVuSans-30"/>
      </g>
     </g>
    </g>
    <g id="ytick_6">
     <g id="line2d_18">
      <g>
       <use xlink:href="#mddd8417bd4" x="50.595313" y="216.830592" style="stroke: #000000; stroke-width: 0.8"/>
      </g>
     </g>
     <g id="text_15">
      <!-- 100 -->
      <g transform="translate(24.507813 220.62981) scale(0.1 -0.1)">
       <use xlink:href="#DejaVuSans-31"/>
       <use xlink:href="#DejaVuSans-30" x="63.623047"/>
       <use xlink:href="#DejaVuSans-30" x="127.246094"/>
      </g>
     </g>
    </g>
    <g id="text_16">
     <!-- $\angle S_{21}$ [deg] -->
     <g transform="translate(14.8 274.592) rotate(-90) scale(0.1 -0.1)">
      <defs>
       <path id="DejaVuSans-2220" d="M 5028 631 
L 5028 0 
L 547 0 
L 3525 4666 
L 4281 4666 
L 1716 631 
L 5028 631 
z
" transform="scale(0.015625)"/>
       <path id="DejaVuSans-64" d="M 2906 2969 
L 2906 4863 
L 3481 4863 
L 3481 0 
L 2906 0 
L 2906 525 
Q 2725 213 2448 61 
Q 2172 -91 1784 -91 
Q 1150 -91 751 415 
Q 353 922 353 1747 
Q 353 2572 751 3078 
Q 1150 3584 1784 3584 
Q 2172 3584 2448 3432 
Q 2725 3281 2906 2969 
z
M 947 1747 
Q 947 1113 1208 752 
Q 1469 391 1925 391 
Q 2381 391 2643 752 
Q 2906 1113 2906 1747 
Q 2906 2381 2643 2742 
Q 2381 3103 1925 3103 
Q 1469 3103 1208 2742 
Q 947 2381 947 1747 
z
" transform="scale(0.015625)"/>
       <path id="DejaVuSans-67" d="M 2906 1791 
Q 2906 2416 2648 2759 
Q 2391 3103 1925 3103 
Q 1463 3103 1205 2759 
Q 947 2416 947 1791 
Q 947 1169 1205 825 
Q 1463 481 1925 481 
Q 2391 481 2648 825 
Q 2906 1169 2906 1791 
z
M 3481 434 
Q 3481 -459 3084 -895 
Q 2688 -1331 1869 -1331 
Q 1566 -1331 1297 -1286 
Q 1028 -1241 775 -1147 
L 775 -588 
Q 1028 -725 1275 -790 
Q 1522 -856 1778 -856 
Q 2344 -856 2625 -561 
Q 2906 -266 2906 331 
L 2906 616 
Q 2728 306 2450 153 
Q 2172 0 1784 0 
Q 1141 0 747 490 
Q 353 981 353 1791 
Q 353 2603 747 3093 
Q 1141 3584 1784 3584 
Q 2172 3584 2450 3431 
Q 2728 3278 2906 2969 
L 2906 3500 
L 3481 3500 
L 3481 434 
z
" transform="scale(0.015625)"/>
      </defs>
      <use xlink:href="#DejaVuSans-2220" transform="translate(0 0.015625)"/>
      <use xlink:href="#DejaVuSans-Oblique-53" transform="translate(89.648438 0.015625)"/>
      <use xlink:href="#DejaVuSans-32" transform="translate(153.125 -16.390625) scale(0.7)"/>
      <use xlink:href="#DejaVuSans-31" transform="translate(197.661133 -16.390625) scale(0.7)"/>
      <use xlink:href="#DejaVuSans-20" transform="translate(244.931641 0.015625)"/>
      <use xlink:href="#DejaVuSans-5b" transform="translate(276.71875 0.015625)"/>
      <use xlink:href="#DejaVuSans-64" transform="translate(315.732422 0.015625)"/>
      <use xlink:href="#DejaVuSans-65" transform="translate(379.208984 0.015625)"/>
      <use xlink:href="#DejaVuSans-67" transform="translate(440.732422 0.015625)"/>
      <use xlink:href="#DejaVuSans-5d" transform="translate(504.208984 0.015625)"/>
     </g>
    </g>
   </g>
   <g id="line2d_19">
    <path d="M 66.82804 229.140547 
L 97.825207 251.031516 
L 110.876646 260.249396 
L 123.928085 269.498463 
L 136.979524 278.765465 
L 167.976692 300.775551 
L 169.608122 301.949229 
L 171.239552 193.08946 
L 202.23672 215.234328 
L 213.656729 223.392719 
L 234.865317 238.628382 
L 256.073905 253.922521 
L 293.596793 281.226793 
L 319.699671 300.626783 
L 321.331101 301.852217 
L 322.96253 193.08645 
L 326.22539 195.565733 
L 349.065408 213.35795 
L 357.222558 219.917124 
L 380.062576 239.208839 
L 386.588296 244.924233 
L 389.851155 247.68707 
L 391.482585 249.106765 
L 391.482585 249.106765 
" clip-path="url(#p3cc1a23aed)" style="fill: none; stroke: #1f77b4; stroke-width: 1.5; stroke-linecap: square"/>
    <g clip-path="url(#p3cc1a23aed)">
     <use xlink:href="#m1f406961b3" x="66.82804" y="229.140547" style="fill: #1f77b4; stroke: #1f77b4"/>
     <use xlink:href="#m1f406961b3" x="68.45947" y="230.299172" style="fill: #1f77b4; stroke: #1f77b4"/>
     <use xlink:href="#m1f406961b3" x="70.0909" y="231.444494" style="fill: #1f77b4; stroke: #1f77b4"/>
     <use xlink:href="#m1f406961b3" x="71.722329" y="232.601117" style="fill: #1f77b4; stroke: #1f77b4"/>
     <use xlink:href="#m1f406961b3" x="73.353759" y="233.753908" style="fill: #1f77b4; stroke: #1f77b4"/>
     <use xlink:href="#m1f406961b3" x="74.985189" y="234.908097" style="fill: #1f77b4; stroke: #1f77b4"/>
     <use xlink:href="#m1f406961b3" x="76.616619" y="236.059601" style="fill: #1f77b4; stroke: #1f77b4"/>
     <use xlink:href="#m1f406961b3" x="78.248049" y="237.205077" style="fill: #1f77b4; stroke: #1f77b4"/>
     <use xlink:href="#m1f406961b3" x="79.879479" y="238.353992" style="fill: #1f77b4; stroke: #1f77b4"/>
     <use xlink:href="#m1f406961b3" x="81.510909" y="239.510993" style="fill: #1f77b4; stroke: #1f77b4"/>
     <use xlink:href="#m1f406961b3" x="83.142339" y="240.654374" style="fill: #1f77b4; stroke: #1f77b4"/>
     <use xlink:href="#m1f406961b3" x="84.773768" y="241.806843" style="fill: #1f77b4; stroke: #1f77b4"/>
     <use xlink:href="#m1f406961b3" x="86.405198" y="242.968313" style="fill: #1f77b4; stroke: #1f77b4"/>
     <use xlink:href="#m1f406961b3" x="88.036628" y="244.11266" style="fill: #1f77b4; stroke: #1f77b4"/>
     <use xlink:href="#m1f406961b3" x="89.668058" y="245.260691" style="fill: #1f77b4; stroke: #1f77b4"/>
     <use xlink:href="#m1f406961b3" x="91.299488" y="246.404225" style="fill: #1f77b4; stroke: #1f77b4"/>
     <use xlink:href="#m1f406961b3" x="92.930918" y="247.574119" style="fill: #1f77b4; stroke: #1f77b4"/>
     <use xlink:href="#m1f406961b3" x="94.562348" y="248.711822" style="fill: #1f77b4; stroke: #1f77b4"/>
     <use xlink:href="#m1f406961b3" x="96.193778" y="249.864918" style="fill: #1f77b4; stroke: #1f77b4"/>
     <use xlink:href="#m1f406961b3" x="97.825207" y="251.031516" style="fill: #1f77b4; stroke: #1f77b4"/>
     <use xlink:href="#m1f406961b3" x="99.456637" y="252.168035" style="fill: #1f77b4; stroke: #1f77b4"/>
     <use xlink:href="#m1f406961b3" x="101.088067" y="253.331616" style="fill: #1f77b4; stroke: #1f77b4"/>
     <use xlink:href="#m1f406961b3" x="102.719497" y="254.474505" style="fill: #1f77b4; stroke: #1f77b4"/>
     <use xlink:href="#m1f406961b3" x="104.350927" y="255.628753" style="fill: #1f77b4; stroke: #1f77b4"/>
     <use xlink:href="#m1f406961b3" x="105.982357" y="256.792458" style="fill: #1f77b4; stroke: #1f77b4"/>
     <use xlink:href="#m1f406961b3" x="107.613787" y="257.944969" style="fill: #1f77b4; stroke: #1f77b4"/>
     <use xlink:href="#m1f406961b3" x="109.245217" y="259.09057" style="fill: #1f77b4; stroke: #1f77b4"/>
     <use xlink:href="#m1f406961b3" x="110.876646" y="260.249396" style="fill: #1f77b4; stroke: #1f77b4"/>
     <use xlink:href="#m1f406961b3" x="112.508076" y="261.420934" style="fill: #1f77b4; stroke: #1f77b4"/>
     <use xlink:href="#m1f406961b3" x="114.139506" y="262.566818" style="fill: #1f77b4; stroke: #1f77b4"/>
     <use xlink:href="#m1f406961b3" x="115.770936" y="263.712426" style="fill: #1f77b4; stroke: #1f77b4"/>
     <use xlink:href="#m1f406961b3" x="117.402366" y="264.874185" style="fill: #1f77b4; stroke: #1f77b4"/>
     <use xlink:href="#m1f406961b3" x="119.033796" y="266.019696" style="fill: #1f77b4; stroke: #1f77b4"/>
     <use xlink:href="#m1f406961b3" x="120.665226" y="267.180657" style="fill: #1f77b4; stroke: #1f77b4"/>
     <use xlink:href="#m1f406961b3" x="122.296656" y="268.336505" style="fill: #1f77b4; stroke: #1f77b4"/>
     <use xlink:href="#m1f406961b3" x="123.928085" y="269.498463" style="fill: #1f77b4; stroke: #1f77b4"/>
     <use xlink:href="#m1f406961b3" x="125.559515" y="270.64017" style="fill: #1f77b4; stroke: #1f77b4"/>
     <use xlink:href="#m1f406961b3" x="127.190945" y="271.797453" style="fill: #1f77b4; stroke: #1f77b4"/>
     <use xlink:href="#m1f406961b3" x="128.822375" y="272.956711" style="fill: #1f77b4; stroke: #1f77b4"/>
     <use xlink:href="#m1f406961b3" x="130.453805" y="274.120964" style="fill: #1f77b4; stroke: #1f77b4"/>
     <use xlink:href="#m1f406961b3" x="132.085235" y="275.259555" style="fill: #1f77b4; stroke: #1f77b4"/>
     <use xlink:href="#m1f406961b3" x="133.716665" y="276.427661" style="fill: #1f77b4; stroke: #1f77b4"/>
     <use xlink:href="#m1f406961b3" x="135.348095" y="277.591511" style="fill: #1f77b4; stroke: #1f77b4"/>
     <use xlink:href="#m1f406961b3" x="136.979524" y="278.765465" style="fill: #1f77b4; stroke: #1f77b4"/>
     <use xlink:href="#m1f406961b3" x="138.610954" y="279.917161" style="fill: #1f77b4; stroke: #1f77b4"/>
     <use xlink:href="#m1f406961b3" x="140.242384" y="281.06252" style="fill: #1f77b4; stroke: #1f77b4"/>
     <use xlink:href="#m1f406961b3" x="141.873814" y="282.220607" style="fill: #1f77b4; stroke: #1f77b4"/>
     <use xlink:href="#m1f406961b3" x="143.505244" y="283.375447" style="fill: #1f77b4; stroke: #1f77b4"/>
     <use xlink:href="#m1f406961b3" x="145.136674" y="284.538393" style="fill: #1f77b4; stroke: #1f77b4"/>
     <use xlink:href="#m1f406961b3" x="146.768104" y="285.69368" style="fill: #1f77b4; stroke: #1f77b4"/>
     <use xlink:href="#m1f406961b3" x="148.399534" y="286.856142" style="fill: #1f77b4; stroke: #1f77b4"/>
     <use xlink:href="#m1f406961b3" x="150.030963" y="288.017094" style="fill: #1f77b4; stroke: #1f77b4"/>
     <use xlink:href="#m1f406961b3" x="151.662393" y="289.16793" style="fill: #1f77b4; stroke: #1f77b4"/>
     <use xlink:href="#m1f406961b3" x="153.293823" y="290.327977" style="fill: #1f77b4; stroke: #1f77b4"/>
     <use xlink:href="#m1f406961b3" x="154.925253" y="291.494768" style="fill: #1f77b4; stroke: #1f77b4"/>
     <use xlink:href="#m1f406961b3" x="156.556683" y="292.653097" style="fill: #1f77b4; stroke: #1f77b4"/>
     <use xlink:href="#m1f406961b3" x="158.188113" y="293.810249" style="fill: #1f77b4; stroke: #1f77b4"/>
     <use xlink:href="#m1f406961b3" x="159.819543" y="294.991355" style="fill: #1f77b4; stroke: #1f77b4"/>
     <use xlink:href="#m1f406961b3" x="161.450973" y="296.139007" style="fill: #1f77b4; stroke: #1f77b4"/>
     <use xlink:href="#m1f406961b3" x="163.082402" y="297.294868" style="fill: #1f77b4; stroke: #1f77b4"/>
     <use xlink:href="#m1f406961b3" x="164.713832" y="298.463644" style="fill: #1f77b4; stroke: #1f77b4"/>
     <use xlink:href="#m1f406961b3" x="166.345262" y="299.621773" style="fill: #1f77b4; stroke: #1f77b4"/>
     <use xlink:href="#m1f406961b3" x="167.976692" y="300.775551" style="fill: #1f77b4; stroke: #1f77b4"/>
     <use xlink:href="#m1f406961b3" x="169.608122" y="301.949229" style="fill: #1f77b4; stroke: #1f77b4"/>
     <use xlink:href="#m1f406961b3" x="171.239552" y="193.08946" style="fill: #1f77b4; stroke: #1f77b4"/>
     <use xlink:href="#m1f406961b3" x="172.870982" y="194.261195" style="fill: #1f77b4; stroke: #1f77b4"/>
     <use xlink:href="#m1f406961b3" x="174.502412" y="195.427157" style="fill: #1f77b4; stroke: #1f77b4"/>
     <use xlink:href="#m1f406961b3" x="176.133842" y="196.587949" style="fill: #1f77b4; stroke: #1f77b4"/>
     <use xlink:href="#m1f406961b3" x="177.765271" y="197.747138" style="fill: #1f77b4; stroke: #1f77b4"/>
     <use xlink:href="#m1f406961b3" x="179.396701" y="198.912668" style="fill: #1f77b4; stroke: #1f77b4"/>
     <use xlink:href="#m1f406961b3" x="181.028131" y="200.082558" style="fill: #1f77b4; stroke: #1f77b4"/>
     <use xlink:href="#m1f406961b3" x="182.659561" y="201.247087" style="fill: #1f77b4; stroke: #1f77b4"/>
     <use xlink:href="#m1f406961b3" x="184.290991" y="202.401772" style="fill: #1f77b4; stroke: #1f77b4"/>
     <use xlink:href="#m1f406961b3" x="185.922421" y="203.559299" style="fill: #1f77b4; stroke: #1f77b4"/>
     <use xlink:href="#m1f406961b3" x="187.553851" y="204.742336" style="fill: #1f77b4; stroke: #1f77b4"/>
     <use xlink:href="#m1f406961b3" x="189.185281" y="205.90491" style="fill: #1f77b4; stroke: #1f77b4"/>
     <use xlink:href="#m1f406961b3" x="190.81671" y="207.067927" style="fill: #1f77b4; stroke: #1f77b4"/>
     <use xlink:href="#m1f406961b3" x="192.44814" y="208.226941" style="fill: #1f77b4; stroke: #1f77b4"/>
     <use xlink:href="#m1f406961b3" x="194.07957" y="209.3988" style="fill: #1f77b4; stroke: #1f77b4"/>
     <use xlink:href="#m1f406961b3" x="195.711" y="210.557531" style="fill: #1f77b4; stroke: #1f77b4"/>
     <use xlink:href="#m1f406961b3" x="197.34243" y="211.714154" style="fill: #1f77b4; stroke: #1f77b4"/>
     <use xlink:href="#m1f406961b3" x="198.97386" y="212.886013" style="fill: #1f77b4; stroke: #1f77b4"/>
     <use xlink:href="#m1f406961b3" x="200.60529" y="214.05555" style="fill: #1f77b4; stroke: #1f77b4"/>
     <use xlink:href="#m1f406961b3" x="202.23672" y="215.234328" style="fill: #1f77b4; stroke: #1f77b4"/>
     <use xlink:href="#m1f406961b3" x="203.868149" y="216.383495" style="fill: #1f77b4; stroke: #1f77b4"/>
     <use xlink:href="#m1f406961b3" x="205.499579" y="217.556432" style="fill: #1f77b4; stroke: #1f77b4"/>
     <use xlink:href="#m1f406961b3" x="207.131009" y="218.722225" style="fill: #1f77b4; stroke: #1f77b4"/>
     <use xlink:href="#m1f406961b3" x="208.762439" y="219.893357" style="fill: #1f77b4; stroke: #1f77b4"/>
     <use xlink:href="#m1f406961b3" x="210.393869" y="221.06349" style="fill: #1f77b4; stroke: #1f77b4"/>
     <use xlink:href="#m1f406961b3" x="212.025299" y="222.221664" style="fill: #1f77b4; stroke: #1f77b4"/>
     <use xlink:href="#m1f406961b3" x="213.656729" y="223.392719" style="fill: #1f77b4; stroke: #1f77b4"/>
     <use xlink:href="#m1f406961b3" x="215.288159" y="224.575065" style="fill: #1f77b4; stroke: #1f77b4"/>
     <use xlink:href="#m1f406961b3" x="216.919588" y="225.739611" style="fill: #1f77b4; stroke: #1f77b4"/>
     <use xlink:href="#m1f406961b3" x="218.551018" y="226.901195" style="fill: #1f77b4; stroke: #1f77b4"/>
     <use xlink:href="#m1f406961b3" x="220.182448" y="228.062432" style="fill: #1f77b4; stroke: #1f77b4"/>
     <use xlink:href="#m1f406961b3" x="221.813878" y="229.24676" style="fill: #1f77b4; stroke: #1f77b4"/>
     <use xlink:href="#m1f406961b3" x="223.445308" y="230.413102" style="fill: #1f77b4; stroke: #1f77b4"/>
     <use xlink:href="#m1f406961b3" x="225.076738" y="231.591388" style="fill: #1f77b4; stroke: #1f77b4"/>
     <use xlink:href="#m1f406961b3" x="226.708168" y="232.7581" style="fill: #1f77b4; stroke: #1f77b4"/>
     <use xlink:href="#m1f406961b3" x="228.339598" y="233.93291" style="fill: #1f77b4; stroke: #1f77b4"/>
     <use xlink:href="#m1f406961b3" x="229.971027" y="235.109928" style="fill: #1f77b4; stroke: #1f77b4"/>
     <use xlink:href="#m1f406961b3" x="231.602457" y="236.27342" style="fill: #1f77b4; stroke: #1f77b4"/>
     <use xlink:href="#m1f406961b3" x="233.233887" y="237.450982" style="fill: #1f77b4; stroke: #1f77b4"/>
     <use xlink:href="#m1f406961b3" x="234.865317" y="238.628382" style="fill: #1f77b4; stroke: #1f77b4"/>
     <use xlink:href="#m1f406961b3" x="236.496747" y="239.794797" style="fill: #1f77b4; stroke: #1f77b4"/>
     <use xlink:href="#m1f406961b3" x="238.128177" y="240.96513" style="fill: #1f77b4; stroke: #1f77b4"/>
     <use xlink:href="#m1f406961b3" x="239.759607" y="242.150498" style="fill: #1f77b4; stroke: #1f77b4"/>
     <use xlink:href="#m1f406961b3" x="241.391037" y="243.318841" style="fill: #1f77b4; stroke: #1f77b4"/>
     <use xlink:href="#m1f406961b3" x="243.022466" y="244.495633" style="fill: #1f77b4; stroke: #1f77b4"/>
     <use xlink:href="#m1f406961b3" x="244.653896" y="245.677667" style="fill: #1f77b4; stroke: #1f77b4"/>
     <use xlink:href="#m1f406961b3" x="246.285326" y="246.863923" style="fill: #1f77b4; stroke: #1f77b4"/>
     <use xlink:href="#m1f406961b3" x="247.916756" y="248.033999" style="fill: #1f77b4; stroke: #1f77b4"/>
     <use xlink:href="#m1f406961b3" x="249.548186" y="249.199742" style="fill: #1f77b4; stroke: #1f77b4"/>
     <use xlink:href="#m1f406961b3" x="251.179616" y="250.381638" style="fill: #1f77b4; stroke: #1f77b4"/>
     <use xlink:href="#m1f406961b3" x="252.811046" y="251.575452" style="fill: #1f77b4; stroke: #1f77b4"/>
     <use xlink:href="#m1f406961b3" x="254.442476" y="252.755471" style="fill: #1f77b4; stroke: #1f77b4"/>
     <use xlink:href="#m1f406961b3" x="256.073905" y="253.922521" style="fill: #1f77b4; stroke: #1f77b4"/>
     <use xlink:href="#m1f406961b3" x="257.705335" y="255.10417" style="fill: #1f77b4; stroke: #1f77b4"/>
     <use xlink:href="#m1f406961b3" x="259.336765" y="256.271371" style="fill: #1f77b4; stroke: #1f77b4"/>
     <use xlink:href="#m1f406961b3" x="260.968195" y="257.471775" style="fill: #1f77b4; stroke: #1f77b4"/>
     <use xlink:href="#m1f406961b3" x="262.599625" y="258.654333" style="fill: #1f77b4; stroke: #1f77b4"/>
     <use xlink:href="#m1f406961b3" x="264.231055" y="259.823908" style="fill: #1f77b4; stroke: #1f77b4"/>
     <use xlink:href="#m1f406961b3" x="265.862485" y="261.024157" style="fill: #1f77b4; stroke: #1f77b4"/>
     <use xlink:href="#m1f406961b3" x="267.493915" y="262.211468" style="fill: #1f77b4; stroke: #1f77b4"/>
     <use xlink:href="#m1f406961b3" x="269.125344" y="263.382203" style="fill: #1f77b4; stroke: #1f77b4"/>
     <use xlink:href="#m1f406961b3" x="270.756774" y="264.573745" style="fill: #1f77b4; stroke: #1f77b4"/>
     <use xlink:href="#m1f406961b3" x="272.388204" y="265.749701" style="fill: #1f77b4; stroke: #1f77b4"/>
     <use xlink:href="#m1f406961b3" x="274.019634" y="266.933539" style="fill: #1f77b4; stroke: #1f77b4"/>
     <use xlink:href="#m1f406961b3" x="275.651064" y="268.122924" style="fill: #1f77b4; stroke: #1f77b4"/>
     <use xlink:href="#m1f406961b3" x="277.282494" y="269.305788" style="fill: #1f77b4; stroke: #1f77b4"/>
     <use xlink:href="#m1f406961b3" x="278.913924" y="270.483642" style="fill: #1f77b4; stroke: #1f77b4"/>
     <use xlink:href="#m1f406961b3" x="280.545354" y="271.691881" style="fill: #1f77b4; stroke: #1f77b4"/>
     <use xlink:href="#m1f406961b3" x="282.176783" y="272.878776" style="fill: #1f77b4; stroke: #1f77b4"/>
     <use xlink:href="#m1f406961b3" x="283.808213" y="274.074583" style="fill: #1f77b4; stroke: #1f77b4"/>
     <use xlink:href="#m1f406961b3" x="285.439643" y="275.253871" style="fill: #1f77b4; stroke: #1f77b4"/>
     <use xlink:href="#m1f406961b3" x="287.071073" y="276.459858" style="fill: #1f77b4; stroke: #1f77b4"/>
     <use xlink:href="#m1f406961b3" x="288.702503" y="277.664816" style="fill: #1f77b4; stroke: #1f77b4"/>
     <use xlink:href="#m1f406961b3" x="290.333933" y="278.83518" style="fill: #1f77b4; stroke: #1f77b4"/>
     <use xlink:href="#m1f406961b3" x="291.965363" y="280.031476" style="fill: #1f77b4; stroke: #1f77b4"/>
     <use xlink:href="#m1f406961b3" x="293.596793" y="281.226793" style="fill: #1f77b4; stroke: #1f77b4"/>
     <use xlink:href="#m1f406961b3" x="295.228223" y="282.431867" style="fill: #1f77b4; stroke: #1f77b4"/>
     <use xlink:href="#m1f406961b3" x="296.859652" y="283.610446" style="fill: #1f77b4; stroke: #1f77b4"/>
     <use xlink:href="#m1f406961b3" x="298.491082" y="284.820311" style="fill: #1f77b4; stroke: #1f77b4"/>
     <use xlink:href="#m1f406961b3" x="300.122512" y="286.013395" style="fill: #1f77b4; stroke: #1f77b4"/>
     <use xlink:href="#m1f406961b3" x="301.753942" y="287.218064" style="fill: #1f77b4; stroke: #1f77b4"/>
     <use xlink:href="#m1f406961b3" x="303.385372" y="288.43478" style="fill: #1f77b4; stroke: #1f77b4"/>
     <use xlink:href="#m1f406961b3" x="305.016802" y="289.628305" style="fill: #1f77b4; stroke: #1f77b4"/>
     <use xlink:href="#m1f406961b3" x="306.648232" y="290.846915" style="fill: #1f77b4; stroke: #1f77b4"/>
     <use xlink:href="#m1f406961b3" x="308.279662" y="292.062526" style="fill: #1f77b4; stroke: #1f77b4"/>
     <use xlink:href="#m1f406961b3" x="309.911091" y="293.268631" style="fill: #1f77b4; stroke: #1f77b4"/>
     <use xlink:href="#m1f406961b3" x="311.542521" y="294.464969" style="fill: #1f77b4; stroke: #1f77b4"/>
     <use xlink:href="#m1f406961b3" x="313.173951" y="295.67076" style="fill: #1f77b4; stroke: #1f77b4"/>
     <use xlink:href="#m1f406961b3" x="314.805381" y="296.926351" style="fill: #1f77b4; stroke: #1f77b4"/>
     <use xlink:href="#m1f406961b3" x="316.436811" y="298.150342" style="fill: #1f77b4; stroke: #1f77b4"/>
     <use xlink:href="#m1f406961b3" x="318.068241" y="299.384549" style="fill: #1f77b4; stroke: #1f77b4"/>
     <use xlink:href="#m1f406961b3" x="319.699671" y="300.626783" style="fill: #1f77b4; stroke: #1f77b4"/>
     <use xlink:href="#m1f406961b3" x="321.331101" y="301.852217" style="fill: #1f77b4; stroke: #1f77b4"/>
     <use xlink:href="#m1f406961b3" x="322.96253" y="193.08645" style="fill: #1f77b4; stroke: #1f77b4"/>
     <use xlink:href="#m1f406961b3" x="324.59396" y="194.277395" style="fill: #1f77b4; stroke: #1f77b4"/>
     <use xlink:href="#m1f406961b3" x="326.22539" y="195.565733" style="fill: #1f77b4; stroke: #1f77b4"/>
     <use xlink:href="#m1f406961b3" x="327.85682" y="196.82708" style="fill: #1f77b4; stroke: #1f77b4"/>
     <use xlink:href="#m1f406961b3" x="329.48825" y="198.086204" style="fill: #1f77b4; stroke: #1f77b4"/>
     <use xlink:href="#m1f406961b3" x="331.11968" y="199.310009" style="fill: #1f77b4; stroke: #1f77b4"/>
     <use xlink:href="#m1f406961b3" x="332.75111" y="200.580761" style="fill: #1f77b4; stroke: #1f77b4"/>
     <use xlink:href="#m1f406961b3" x="334.38254" y="201.827345" style="fill: #1f77b4; stroke: #1f77b4"/>
     <use xlink:href="#m1f406961b3" x="336.013969" y="203.082885" style="fill: #1f77b4; stroke: #1f77b4"/>
     <use xlink:href="#m1f406961b3" x="337.645399" y="204.348898" style="fill: #1f77b4; stroke: #1f77b4"/>
     <use xlink:href="#m1f406961b3" x="339.276829" y="205.58763" style="fill: #1f77b4; stroke: #1f77b4"/>
     <use xlink:href="#m1f406961b3" x="340.908259" y="206.792827" style="fill: #1f77b4; stroke: #1f77b4"/>
     <use xlink:href="#m1f406961b3" x="342.539689" y="208.140553" style="fill: #1f77b4; stroke: #1f77b4"/>
     <use xlink:href="#m1f406961b3" x="344.171119" y="209.372441" style="fill: #1f77b4; stroke: #1f77b4"/>
     <use xlink:href="#m1f406961b3" x="345.802549" y="210.674837" style="fill: #1f77b4; stroke: #1f77b4"/>
     <use xlink:href="#m1f406961b3" x="347.433979" y="211.963005" style="fill: #1f77b4; stroke: #1f77b4"/>
     <use xlink:href="#m1f406961b3" x="349.065408" y="213.35795" style="fill: #1f77b4; stroke: #1f77b4"/>
     <use xlink:href="#m1f406961b3" x="350.696838" y="214.644026" style="fill: #1f77b4; stroke: #1f77b4"/>
     <use xlink:href="#m1f406961b3" x="352.328268" y="215.967226" style="fill: #1f77b4; stroke: #1f77b4"/>
     <use xlink:href="#m1f406961b3" x="353.959698" y="217.242387" style="fill: #1f77b4; stroke: #1f77b4"/>
     <use xlink:href="#m1f406961b3" x="355.591128" y="218.632822" style="fill: #1f77b4; stroke: #1f77b4"/>
     <use xlink:href="#m1f406961b3" x="357.222558" y="219.917124" style="fill: #1f77b4; stroke: #1f77b4"/>
     <use xlink:href="#m1f406961b3" x="358.853988" y="221.288685" style="fill: #1f77b4; stroke: #1f77b4"/>
     <use xlink:href="#m1f406961b3" x="360.485418" y="222.634605" style="fill: #1f77b4; stroke: #1f77b4"/>
     <use xlink:href="#m1f406961b3" x="362.116847" y="223.927842" style="fill: #1f77b4; stroke: #1f77b4"/>
     <use xlink:href="#m1f406961b3" x="363.748277" y="225.298034" style="fill: #1f77b4; stroke: #1f77b4"/>
     <use xlink:href="#m1f406961b3" x="365.379707" y="226.693368" style="fill: #1f77b4; stroke: #1f77b4"/>
     <use xlink:href="#m1f406961b3" x="367.011137" y="228.075907" style="fill: #1f77b4; stroke: #1f77b4"/>
     <use xlink:href="#m1f406961b3" x="368.642567" y="229.505728" style="fill: #1f77b4; stroke: #1f77b4"/>
     <use xlink:href="#m1f406961b3" x="370.273997" y="230.966229" style="fill: #1f77b4; stroke: #1f77b4"/>
     <use xlink:href="#m1f406961b3" x="371.905427" y="232.277411" style="fill: #1f77b4; stroke: #1f77b4"/>
     <use xlink:href="#m1f406961b3" x="373.536857" y="233.674507" style="fill: #1f77b4; stroke: #1f77b4"/>
     <use xlink:href="#m1f406961b3" x="375.168286" y="235.036875" style="fill: #1f77b4; stroke: #1f77b4"/>
     <use xlink:href="#m1f406961b3" x="376.799716" y="236.29835" style="fill: #1f77b4; stroke: #1f77b4"/>
     <use xlink:href="#m1f406961b3" x="378.431146" y="237.79711" style="fill: #1f77b4; stroke: #1f77b4"/>
     <use xlink:href="#m1f406961b3" x="380.062576" y="239.208839" style="fill: #1f77b4; stroke: #1f77b4"/>
     <use xlink:href="#m1f406961b3" x="381.694006" y="240.663444" style="fill: #1f77b4; stroke: #1f77b4"/>
     <use xlink:href="#m1f406961b3" x="383.325436" y="242.119533" style="fill: #1f77b4; stroke: #1f77b4"/>
     <use xlink:href="#m1f406961b3" x="384.956866" y="243.454188" style="fill: #1f77b4; stroke: #1f77b4"/>
     <use xlink:href="#m1f406961b3" x="386.588296" y="244.924233" style="fill: #1f77b4; stroke: #1f77b4"/>
     <use xlink:href="#m1f406961b3" x="388.219725" y="246.240345" style="fill: #1f77b4; stroke: #1f77b4"/>
     <use xlink:href="#m1f406961b3" x="389.851155" y="247.68707" style="fill: #1f77b4; stroke: #1f77b4"/>
     <use xlink:href="#m1f406961b3" x="391.482585" y="249.106765" style="fill: #1f77b4; stroke: #1f77b4"/>
    </g>
   </g>
   <g id="line2d_20">
    <path d="M 66.82804 228.959378 
L 137.023617 278.577675 
L 170.496508 302.373818 
L 170.821488 192.601534 
L 213.718785 223.314129 
L 247.516656 247.775779 
L 275.139915 268.032896 
L 299.1884 285.938201 
L 320.637049 302.166292 
L 320.962028 192.410182 
L 347.610349 212.873212 
L 370.033937 230.009999 
L 381.08324 238.174594 
L 389.857688 244.384587 
L 391.482585 245.499538 
L 391.482585 245.499538 
" clip-path="url(#p3cc1a23aed)" style="fill: none; stroke: #d62728; stroke-width: 1.5; stroke-linecap: square"/>
   </g>
   <g id="patch_9">
    <path d="M 50.595313 307.872 
L 50.595313 186.912 
" style="fill: none; stroke: #000000; stroke-width: 0.8; stroke-linejoin: miter; stroke-linecap: square"/>
   </g>
   <g id="patch_10">
    <path d="M 407.715312 307.872 
L 407.715312 186.912 
" style="fill: none; stroke: #000000; stroke-width: 0.8; stroke-linejoin: miter; stroke-linecap: square"/>
   </g>
   <g id="patch_11">
    <path d="M 50.595312 307.872 
L 407.715312 307.872 
" style="fill: none; stroke: #000000; stroke-width: 0.8; stroke-linejoin: miter; stroke-linecap: square"/>
   </g>
   <g id="patch_12">
    <path d="M 50.595312 186.912 
L 407.715312 186.912 
" style="fill: none; stroke: #000000; stroke-width: 0.8; stroke-linejoin: miter; stroke-linecap: square"/>
   </g>
  </g>
  <g id="text_17">
   <!-- S21 One-tone -->
   <g transform="translate(182.144375 16.318125) scale(0.12 -0.12)">
    <defs>
     <path id="DejaVuSans-4f" d="M 2522 4238 
Q 1834 4238 1429 3725 
Q 1025 3213 1025 2328 
Q 1025 1447 1429 934 
Q 1834 422 2522 422 
Q 3209 422 3611 934 
Q 4013 1447 4013 2328 
Q 4013 3213 3611 3725 
Q 3209 4238 2522 4238 
z
M 2522 4750 
Q 3503 4750 4090 4092 
Q 4678 3434 4678 2328 
Q 4678 1225 4090 567 
Q 3503 -91 2522 -91 
Q 1538 -91 948 565 
Q 359 1222 359 2328 
Q 359 3434 948 4092 
Q 1538 4750 2522 4750 
z
" transform="scale(0.015625)"/>
     <path id="DejaVuSans-74" d="M 1172 4494 
L 1172 3500 
L 2356 3500 
L 2356 3053 
L 1172 3053 
L 1172 1153 
Q 1172 725 1289 603 
Q 1406 481 1766 481 
L 2356 481 
L 2356 0 
L 1766 0 
Q 1100 0 847 248 
Q 594 497 594 1153 
L 594 3053 
L 172 3053 
L 172 3500 
L 594 3500 
L 594 4494 
L 1172 4494 
z
" transform="scale(0.015625)"/>
     <path id="DejaVuSans-6f" d="M 1959 3097 
Q 1497 3097 1228 2736 
Q 959 2375 959 1747 
Q 959 1119 1226 758 
Q 1494 397 1959 397 
Q 2419 397 2687 759 
Q 2956 1122 2956 1747 
Q 2956 2369 2687 2733 
Q 2419 3097 1959 3097 
z
M 1959 3584 
Q 2709 3584 3137 3096 
Q 3566 2609 3566 1747 
Q 3566 888 3137 398 
Q 2709 -91 1959 -91 
Q 1206 -91 779 398 
Q 353 888 353 1747 
Q 353 2609 779 3096 
Q 1206 3584 1959 3584 
z
" transform="scale(0.015625)"/>
    </defs>
    <use xlink:href="#DejaVuSans-53"/>
    <use xlink:href="#DejaVuSans-32" x="63.476562"/>
    <use xlink:href="#DejaVuSans-31" x="127.099609"/>
    <use xlink:href="#DejaVuSans-20" x="190.722656"/>
    <use xlink:href="#DejaVuSans-4f" x="222.509766"/>
    <use xlink:href="#DejaVuSans-6e" x="301.220703"/>
    <use xlink:href="#DejaVuSans-65" x="364.599609"/>
    <use xlink:href="#DejaVuSans-2d" x="426.123047"/>
    <use xlink:href="#DejaVuSans-74" x="462.207031"/>
    <use xlink:href="#DejaVuSans-6f" x="501.416016"/>
    <use xlink:href="#DejaVuSans-6e" x="562.597656"/>
    <use xlink:href="#DejaVuSans-65" x="625.976562"/>
   </g>
   <!-- tuid: 20240220-171019-653-a24b43 -->
   <g transform="translate(113.689063 29.7555) scale(0.12 -0.12)">
    <defs>
     <path id="DejaVuSans-69" d="M 603 3500 
L 1178 3500 
L 1178 0 
L 603 0 
L 603 3500 
z
M 603 4863 
L 1178 4863 
L 1178 4134 
L 603 4134 
L 603 4863 
z
" transform="scale(0.015625)"/>
     <path id="DejaVuSans-62" d="M 3116 1747 
Q 3116 2381 2855 2742 
Q 2594 3103 2138 3103 
Q 1681 3103 1420 2742 
Q 1159 2381 1159 1747 
Q 1159 1113 1420 752 
Q 1681 391 2138 391 
Q 2594 391 2855 752 
Q 3116 1113 3116 1747 
z
M 1159 2969 
Q 1341 3281 1617 3432 
Q 1894 3584 2278 3584 
Q 2916 3584 3314 3078 
Q 3713 2572 3713 1747 
Q 3713 922 3314 415 
Q 2916 -91 2278 -91 
Q 1894 -91 1617 61 
Q 1341 213 1159 525 
L 1159 0 
L 581 0 
L 581 4863 
L 1159 4863 
L 1159 2969 
z
" transform="scale(0.015625)"/>
    </defs>
    <use xlink:href="#DejaVuSans-74"/>
    <use xlink:href="#DejaVuSans-75" x="39.208984"/>
    <use xlink:href="#DejaVuSans-69" x="102.587891"/>
    <use xlink:href="#DejaVuSans-64" x="130.371094"/>
    <use xlink:href="#DejaVuSans-3a" x="193.847656"/>
    <use xlink:href="#DejaVuSans-20" x="227.539062"/>
    <use xlink:href="#DejaVuSans-32" x="259.326172"/>
    <use xlink:href="#DejaVuSans-30" x="322.949219"/>
    <use xlink:href="#DejaVuSans-32" x="386.572266"/>
    <use xlink:href="#DejaVuSans-34" x="450.195312"/>
    <use xlink:href="#DejaVuSans-30" x="513.818359"/>
    <use xlink:href="#DejaVuSans-32" x="577.441406"/>
    <use xlink:href="#DejaVuSans-32" x="641.064453"/>
    <use xlink:href="#DejaVuSans-30" x="704.6875"/>
    <use xlink:href="#DejaVuSans-2d" x="768.310547"/>
    <use xlink:href="#DejaVuSans-31" x="804.394531"/>
    <use xlink:href="#DejaVuSans-37" x="868.017578"/>
    <use xlink:href="#DejaVuSans-31" x="931.640625"/>
    <use xlink:href="#DejaVuSans-30" x="995.263672"/>
    <use xlink:href="#DejaVuSans-31" x="1058.886719"/>
    <use xlink:href="#DejaVuSans-39" x="1122.509766"/>
    <use xlink:href="#DejaVuSans-2d" x="1186.132812"/>
    <use xlink:href="#DejaVuSans-36" x="1222.216797"/>
    <use xlink:href="#DejaVuSans-35" x="1285.839844"/>
    <use xlink:href="#DejaVuSans-33" x="1349.462891"/>
    <use xlink:href="#DejaVuSans-2d" x="1413.085938"/>
    <use xlink:href="#DejaVuSans-61" x="1449.169922"/>
    <use xlink:href="#DejaVuSans-32" x="1510.449219"/>
    <use xlink:href="#DejaVuSans-34" x="1574.072266"/>
    <use xlink:href="#DejaVuSans-62" x="1637.695312"/>
    <use xlink:href="#DejaVuSans-34" x="1701.171875"/>
    <use xlink:href="#DejaVuSans-33" x="1764.794922"/>
   </g>
  </g>
 </g>
 <defs>
  <clipPath id="p25d0f3ec6d">
   <rect x="50.595313" y="41.76" width="357.12" height="120.96"/>
  </clipPath>
  <clipPath id="p3cc1a23aed">
   <rect x="50.595313" y="186.912" width="357.12" height="120.96"/>
  </clipPath>
 </defs>
</svg>
