<?xml version="1.0" encoding="utf-8" standalone="no"?>
<!DOCTYPE svg PUBLIC "-//W3C//DTD SVG 1.1//EN"
  "http://www.w3.org/Graphics/SVG/1.1/DTD/svg11.dtd">
<svg xmlns:xlink="http://www.w3.org/1999/xlink" width="562.386937pt" height="345.42825pt" viewBox="0 0 562.386937 345.42825" xmlns="http://www.w3.org/2000/svg" version="1.1">
 <metadata>
  <rdf:RDF xmlns:dc="http://purl.org/dc/elements/1.1/" xmlns:cc="http://creativecommons.org/ns#" xmlns:rdf="http://www.w3.org/1999/02/22-rdf-syntax-ns#">
   <cc:Work>
    <dc:type rdf:resource="http://purl.org/dc/dcmitype/StillImage"/>
    <dc:date>2024-02-21T08:56:51.812308</dc:date>
    <dc:format>image/svg+xml</dc:format>
    <dc:creator>
     <cc:Agent>
      <dc:title>Matplotlib v3.8.2, https://matplotlib.org/</dc:title>
     </cc:Agent>
    </dc:creator>
   </cc:Work>
  </rdf:RDF>
 </metadata>
 <defs>
  <style type="text/css">*{stroke-linejoin: round; stroke-linecap: butt}</style>
 </defs>
 <g id="figure_1">
  <g id="patch_1">
   <path d="M 0 345.42825 
L 562.386937 345.42825 
L 562.386937 -0 
L 0 -0 
L 0 345.42825 
z
" style="fill: none; opacity: 0"/>
  </g>
  <g id="axes_1">
   <g id="patch_2">
    <path d="M 44.210938 162.72 
L 401.330938 162.72 
L 401.330938 41.76 
L 44.210938 41.76 
z
" style="fill: #ffffff"/>
   </g>
   <g id="matplotlib.axis_1">
    <g id="xtick_1">
     <g id="line2d_1">
      <defs>
       <path id="m114ed5df3a" d="M 0 0 
L 0 3.5 
" style="stroke: #000000; stroke-width: 0.8"/>
      </defs>
      <g>
       <use xlink:href="#m114ed5df3a" x="92.909119" y="162.72" style="stroke: #000000; stroke-width: 0.8"/>
      </g>
     </g>
    </g>
    <g id="xtick_2">
     <g id="line2d_2">
      <g>
       <use xlink:href="#m114ed5df3a" x="157.840028" y="162.72" style="stroke: #000000; stroke-width: 0.8"/>
      </g>
     </g>
    </g>
    <g id="xtick_3">
     <g id="line2d_3">
      <g>
       <use xlink:href="#m114ed5df3a" x="222.770937" y="162.72" style="stroke: #000000; stroke-width: 0.8"/>
      </g>
     </g>
    </g>
    <g id="xtick_4">
     <g id="line2d_4">
      <g>
       <use xlink:href="#m114ed5df3a" x="287.701847" y="162.72" style="stroke: #000000; stroke-width: 0.8"/>
      </g>
     </g>
    </g>
    <g id="xtick_5">
     <g id="line2d_5">
      <g>
       <use xlink:href="#m114ed5df3a" x="352.632756" y="162.72" style="stroke: #000000; stroke-width: 0.8"/>
      </g>
     </g>
    </g>
   </g>
   <g id="matplotlib.axis_2">
    <g id="ytick_1">
     <g id="line2d_6">
      <defs>
       <path id="ma6d131e53f" d="M 0 0 
L -3.5 0 
" style="stroke: #000000; stroke-width: 0.8"/>
      </defs>
      <g>
       <use xlink:href="#ma6d131e53f" x="44.210938" y="135.95024" style="stroke: #000000; stroke-width: 0.8"/>
      </g>
     </g>
     <g id="text_1">
      <!-- -50 -->
      <g transform="translate(20.878125 139.749459) scale(0.1 -0.1)">
       <defs>
        <path id="DejaVuSans-2d" d="M 313 2009 
L 1997 2009 
L 1997 1497 
L 313 1497 
L 313 2009 
z
" transform="scale(0.015625)"/>
        <path id="DejaVuSans-35" d="M 691 4666 
L 3169 4666 
L 3169 4134 
L 1269 4134 
L 1269 2991 
Q 1406 3038 1543 3061 
Q 1681 3084 1819 3084 
Q 2600 3084 3056 2656 
Q 3513 2228 3513 1497 
Q 3513 744 3044 326 
Q 2575 -91 1722 -91 
Q 1428 -91 1123 -41 
Q 819 9 494 109 
L 494 744 
Q 775 591 1075 516 
Q 1375 441 1709 441 
Q 2250 441 2565 725 
Q 2881 1009 2881 1497 
Q 2881 1984 2565 2268 
Q 2250 2553 1709 2553 
Q 1456 2553 1204 2497 
Q 953 2441 691 2322 
L 691 4666 
z
" transform="scale(0.015625)"/>
        <path id="DejaVuSans-30" d="M 2034 4250 
Q 1547 4250 1301 3770 
Q 1056 3291 1056 2328 
Q 1056 1369 1301 889 
Q 1547 409 2034 409 
Q 2525 409 2770 889 
Q 3016 1369 3016 2328 
Q 3016 3291 2770 3770 
Q 2525 4250 2034 4250 
z
M 2034 4750 
Q 2819 4750 3233 4129 
Q 3647 3509 3647 2328 
Q 3647 1150 3233 529 
Q 2819 -91 2034 -91 
Q 1250 -91 836 529 
Q 422 1150 422 2328 
Q 422 3509 836 4129 
Q 1250 4750 2034 4750 
z
" transform="scale(0.015625)"/>
       </defs>
       <use xlink:href="#DejaVuSans-2d"/>
       <use xlink:href="#DejaVuSans-35" x="36.083984"/>
       <use xlink:href="#DejaVuSans-30" x="99.707031"/>
      </g>
     </g>
    </g>
    <g id="ytick_2">
     <g id="line2d_7">
      <g>
       <use xlink:href="#ma6d131e53f" x="44.210938" y="102.456454" style="stroke: #000000; stroke-width: 0.8"/>
      </g>
     </g>
     <g id="text_2">
      <!-- 0 -->
      <g transform="translate(30.848437 106.255673) scale(0.1 -0.1)">
       <use xlink:href="#DejaVuSans-30"/>
      </g>
     </g>
    </g>
    <g id="ytick_3">
     <g id="line2d_8">
      <g>
       <use xlink:href="#ma6d131e53f" x="44.210938" y="68.962667" style="stroke: #000000; stroke-width: 0.8"/>
      </g>
     </g>
     <g id="text_3">
      <!-- 50 -->
      <g transform="translate(24.485937 72.761886) scale(0.1 -0.1)">
       <use xlink:href="#DejaVuSans-35"/>
       <use xlink:href="#DejaVuSans-30" x="63.623047"/>
      </g>
     </g>
    </g>
    <g id="text_4">
     <!-- Re$(S_{21})$ [mV] -->
     <g transform="translate(14.798437 134.24) rotate(-90) scale(0.1 -0.1)">
      <defs>
       <path id="DejaVuSans-52" d="M 2841 2188 
Q 3044 2119 3236 1894 
Q 3428 1669 3622 1275 
L 4263 0 
L 3584 0 
L 2988 1197 
Q 2756 1666 2539 1819 
Q 2322 1972 1947 1972 
L 1259 1972 
L 1259 0 
L 628 0 
L 628 4666 
L 2053 4666 
Q 2853 4666 3247 4331 
Q 3641 3997 3641 3322 
Q 3641 2881 3436 2590 
Q 3231 2300 2841 2188 
z
M 1259 4147 
L 1259 2491 
L 2053 2491 
Q 2509 2491 2742 2702 
Q 2975 2913 2975 3322 
Q 2975 3731 2742 3939 
Q 2509 4147 2053 4147 
L 1259 4147 
z
" transform="scale(0.015625)"/>
       <path id="DejaVuSans-65" d="M 3597 1894 
L 3597 1613 
L 953 1613 
Q 991 1019 1311 708 
Q 1631 397 2203 397 
Q 2534 397 2845 478 
Q 3156 559 3463 722 
L 3463 178 
Q 3153 47 2828 -22 
Q 2503 -91 2169 -91 
Q 1331 -91 842 396 
Q 353 884 353 1716 
Q 353 2575 817 3079 
Q 1281 3584 2069 3584 
Q 2775 3584 3186 3129 
Q 3597 2675 3597 1894 
z
M 3022 2063 
Q 3016 2534 2758 2815 
Q 2500 3097 2075 3097 
Q 1594 3097 1305 2825 
Q 1016 2553 972 2059 
L 3022 2063 
z
" transform="scale(0.015625)"/>
       <path id="DejaVuSans-28" d="M 1984 4856 
Q 1566 4138 1362 3434 
Q 1159 2731 1159 2009 
Q 1159 1288 1364 580 
Q 1569 -128 1984 -844 
L 1484 -844 
Q 1016 -109 783 600 
Q 550 1309 550 2009 
Q 550 2706 781 3412 
Q 1013 4119 1484 4856 
L 1984 4856 
z
" transform="scale(0.015625)"/>
       <path id="DejaVuSans-Oblique-53" d="M 3859 4513 
L 3738 3897 
Q 3422 4066 3111 4152 
Q 2800 4238 2509 4238 
Q 1944 4238 1609 3991 
Q 1275 3744 1275 3334 
Q 1275 3109 1398 2989 
Q 1522 2869 2034 2731 
L 2413 2638 
Q 3053 2472 3303 2217 
Q 3553 1963 3553 1503 
Q 3553 797 2998 353 
Q 2444 -91 1538 -91 
Q 1166 -91 791 -17 
Q 416 56 38 206 
L 166 856 
Q 513 641 861 531 
Q 1209 422 1556 422 
Q 2147 422 2503 684 
Q 2859 947 2859 1369 
Q 2859 1650 2717 1795 
Q 2575 1941 2106 2059 
L 1728 2156 
Q 1081 2325 845 2545 
Q 609 2766 609 3163 
Q 609 3859 1145 4304 
Q 1681 4750 2541 4750 
Q 2875 4750 3203 4690 
Q 3531 4631 3859 4513 
z
" transform="scale(0.015625)"/>
       <path id="DejaVuSans-32" d="M 1228 531 
L 3431 531 
L 3431 0 
L 469 0 
L 469 531 
Q 828 903 1448 1529 
Q 2069 2156 2228 2338 
Q 2531 2678 2651 2914 
Q 2772 3150 2772 3378 
Q 2772 3750 2511 3984 
Q 2250 4219 1831 4219 
Q 1534 4219 1204 4116 
Q 875 4013 500 3803 
L 500 4441 
Q 881 4594 1212 4672 
Q 1544 4750 1819 4750 
Q 2544 4750 2975 4387 
Q 3406 4025 3406 3419 
Q 3406 3131 3298 2873 
Q 3191 2616 2906 2266 
Q 2828 2175 2409 1742 
Q 1991 1309 1228 531 
z
" transform="scale(0.015625)"/>
       <path id="DejaVuSans-31" d="M 794 531 
L 1825 531 
L 1825 4091 
L 703 3866 
L 703 4441 
L 1819 4666 
L 2450 4666 
L 2450 531 
L 3481 531 
L 3481 0 
L 794 0 
L 794 531 
z
" transform="scale(0.015625)"/>
       <path id="DejaVuSans-29" d="M 513 4856 
L 1013 4856 
Q 1481 4119 1714 3412 
Q 1947 2706 1947 2009 
Q 1947 1309 1714 600 
Q 1481 -109 1013 -844 
L 513 -844 
Q 928 -128 1133 580 
Q 1338 1288 1338 2009 
Q 1338 2731 1133 3434 
Q 928 4138 513 4856 
z
" transform="scale(0.015625)"/>
       <path id="DejaVuSans-20" transform="scale(0.015625)"/>
       <path id="DejaVuSans-5b" d="M 550 4863 
L 1875 4863 
L 1875 4416 
L 1125 4416 
L 1125 -397 
L 1875 -397 
L 1875 -844 
L 550 -844 
L 550 4863 
z
" transform="scale(0.015625)"/>
       <path id="DejaVuSans-6d" d="M 3328 2828 
Q 3544 3216 3844 3400 
Q 4144 3584 4550 3584 
Q 5097 3584 5394 3201 
Q 5691 2819 5691 2113 
L 5691 0 
L 5113 0 
L 5113 2094 
Q 5113 2597 4934 2840 
Q 4756 3084 4391 3084 
Q 3944 3084 3684 2787 
Q 3425 2491 3425 1978 
L 3425 0 
L 2847 0 
L 2847 2094 
Q 2847 2600 2669 2842 
Q 2491 3084 2119 3084 
Q 1678 3084 1418 2786 
Q 1159 2488 1159 1978 
L 1159 0 
L 581 0 
L 581 3500 
L 1159 3500 
L 1159 2956 
Q 1356 3278 1631 3431 
Q 1906 3584 2284 3584 
Q 2666 3584 2933 3390 
Q 3200 3197 3328 2828 
z
" transform="scale(0.015625)"/>
       <path id="DejaVuSans-56" d="M 1831 0 
L 50 4666 
L 709 4666 
L 2188 738 
L 3669 4666 
L 4325 4666 
L 2547 0 
L 1831 0 
z
" transform="scale(0.015625)"/>
       <path id="DejaVuSans-5d" d="M 1947 4863 
L 1947 -844 
L 622 -844 
L 622 -397 
L 1369 -397 
L 1369 4416 
L 622 4416 
L 622 4863 
L 1947 4863 
z
" transform="scale(0.015625)"/>
      </defs>
      <use xlink:href="#DejaVuSans-52" transform="translate(0 0.015625)"/>
      <use xlink:href="#DejaVuSans-65" transform="translate(69.482422 0.015625)"/>
      <use xlink:href="#DejaVuSans-28" transform="translate(131.005859 0.015625)"/>
      <use xlink:href="#DejaVuSans-Oblique-53" transform="translate(170.019531 0.015625)"/>
      <use xlink:href="#DejaVuSans-32" transform="translate(233.496094 -16.390625) scale(0.7)"/>
      <use xlink:href="#DejaVuSans-31" transform="translate(278.032227 -16.390625) scale(0.7)"/>
      <use xlink:href="#DejaVuSans-29" transform="translate(325.302734 0.015625)"/>
      <use xlink:href="#DejaVuSans-20" transform="translate(364.316406 0.015625)"/>
      <use xlink:href="#DejaVuSans-5b" transform="translate(396.103516 0.015625)"/>
      <use xlink:href="#DejaVuSans-6d" transform="translate(435.117188 0.015625)"/>
      <use xlink:href="#DejaVuSans-56" transform="translate(532.529297 0.015625)"/>
      <use xlink:href="#DejaVuSans-5d" transform="translate(600.9375 0.015625)"/>
     </g>
    </g>
   </g>
   <g id="line2d_9">
    <path d="M 60.443665 101.630121 
L 68.600814 83.863079 
L 71.863674 77.275296 
L 75.126534 71.006263 
L 78.389393 65.32809 
L 81.652253 60.320825 
L 83.283683 58.000211 
L 86.546543 54.129734 
L 88.177973 52.502258 
L 89.809403 51.035914 
L 91.440832 49.862874 
L 93.072262 48.850108 
L 94.703692 48.094945 
L 96.335122 47.542553 
L 97.966552 47.278106 
L 99.597982 47.258182 
L 101.229412 47.435977 
L 102.860842 47.872965 
L 104.492271 48.503148 
L 106.123701 49.401117 
L 107.755131 50.5787 
L 109.386561 51.90191 
L 111.017991 53.458204 
L 114.280851 57.24101 
L 117.54371 61.785888 
L 120.80657 67.04718 
L 124.06943 72.881695 
L 127.33229 79.267613 
L 132.226579 89.543177 
L 137.120869 100.342621 
L 143.646588 114.784382 
L 148.540878 125.076358 
L 151.803738 131.438921 
L 155.066598 137.335833 
L 156.698027 140.106265 
L 159.960887 144.995018 
L 161.592317 147.216027 
L 163.223747 149.218774 
L 166.486607 152.55318 
L 168.118037 153.928974 
L 169.749467 155.024742 
L 171.380896 155.932424 
L 173.012326 156.573556 
L 174.643756 157.043474 
L 176.275186 157.221818 
L 177.906616 157.168348 
L 179.538046 156.899754 
L 181.169476 156.310334 
L 182.800906 155.582692 
L 184.432335 154.558825 
L 186.063765 153.338347 
L 187.695195 151.853252 
L 189.326625 150.178699 
L 190.958055 148.314812 
L 194.220915 143.943403 
L 197.483774 138.801924 
L 200.746634 133.133675 
L 204.009494 126.853611 
L 208.903784 116.695048 
L 217.060933 98.717874 
L 221.955223 88.050636 
L 226.849512 77.946018 
L 230.112372 71.783901 
L 233.375232 66.112633 
L 236.638091 61.154498 
L 239.900951 56.936967 
L 241.532381 55.10058 
L 243.163811 53.531088 
L 244.795241 52.191959 
L 246.426671 51.027478 
L 248.058101 50.112405 
L 249.68953 49.428245 
L 251.32096 49.0073 
L 252.95239 48.811136 
L 254.58382 48.879039 
L 256.21525 49.135881 
L 257.84668 49.677255 
L 259.47811 50.419478 
L 262.740969 52.752277 
L 264.372399 54.202154 
L 266.003829 55.919084 
L 267.635259 57.801221 
L 269.266689 59.874295 
L 272.529549 64.578074 
L 275.792408 70.070565 
L 279.055268 76.142066 
L 282.318128 82.615099 
L 287.212418 92.974511 
L 298.632427 117.845593 
L 301.895287 124.470101 
L 305.158146 130.678424 
L 308.421006 136.295306 
L 311.683866 141.271015 
L 313.315296 143.47476 
L 314.946726 145.474723 
L 316.578155 147.228153 
L 318.209585 148.770606 
L 319.841015 150.077957 
L 321.472445 151.140151 
L 323.103875 151.994554 
L 324.735305 152.517108 
L 326.366735 152.79374 
L 327.998165 152.822614 
L 329.629594 152.633987 
L 332.892454 151.494304 
L 336.155314 149.1326 
L 337.786744 147.536008 
L 339.418174 145.698702 
L 342.681033 141.028028 
L 345.943893 135.765732 
L 347.575323 132.839626 
L 350.838183 126.373592 
L 352.469613 123.461238 
L 355.732472 116.251917 
L 357.363902 112.930849 
L 360.626762 105.115425 
L 365.521052 95.019644 
L 368.783911 89.00716 
L 372.046771 83.513147 
L 373.678201 81.019395 
L 375.309631 78.747472 
L 376.941061 76.762782 
L 378.572491 75.028516 
L 380.203921 73.531914 
L 381.83535 72.335114 
L 383.46678 71.417727 
L 385.09821 70.720142 
L 385.09821 70.720142 
" clip-path="url(#pba8dc2be29)" style="fill: none; stroke: #1f77b4; stroke-width: 1.5; stroke-linecap: square"/>
    <defs>
     <path id="mbd0b8a403d" d="M 0 1.5 
C 0.397805 1.5 0.77937 1.341951 1.06066 1.06066 
C 1.341951 0.77937 1.5 0.397805 1.5 0 
C 1.5 -0.397805 1.341951 -0.77937 1.06066 -1.06066 
C 0.77937 -1.341951 0.397805 -1.5 0 -1.5 
C -0.397805 -1.5 -0.77937 -1.341951 -1.06066 -1.06066 
C -1.341951 -0.77937 -1.5 -0.397805 -1.5 0 
C -1.5 0.397805 -1.341951 0.77937 -1.06066 1.06066 
C -0.77937 1.341951 -0.397805 1.5 0 1.5 
z
" style="stroke: #1f77b4"/>
    </defs>
    <g clip-path="url(#pba8dc2be29)">
     <use xlink:href="#mbd0b8a403d" x="60.443665" y="101.630121" style="fill: #1f77b4; stroke: #1f77b4"/>
     <use xlink:href="#mbd0b8a403d" x="62.075095" y="98.022965" style="fill: #1f77b4; stroke: #1f77b4"/>
     <use xlink:href="#mbd0b8a403d" x="63.706525" y="94.426508" style="fill: #1f77b4; stroke: #1f77b4"/>
     <use xlink:href="#mbd0b8a403d" x="65.337954" y="90.860188" style="fill: #1f77b4; stroke: #1f77b4"/>
     <use xlink:href="#mbd0b8a403d" x="66.969384" y="87.32046" style="fill: #1f77b4; stroke: #1f77b4"/>
     <use xlink:href="#mbd0b8a403d" x="68.600814" y="83.863079" style="fill: #1f77b4; stroke: #1f77b4"/>
     <use xlink:href="#mbd0b8a403d" x="70.232244" y="80.506983" style="fill: #1f77b4; stroke: #1f77b4"/>
     <use xlink:href="#mbd0b8a403d" x="71.863674" y="77.275296" style="fill: #1f77b4; stroke: #1f77b4"/>
     <use xlink:href="#mbd0b8a403d" x="73.495104" y="74.052995" style="fill: #1f77b4; stroke: #1f77b4"/>
     <use xlink:href="#mbd0b8a403d" x="75.126534" y="71.006263" style="fill: #1f77b4; stroke: #1f77b4"/>
     <use xlink:href="#mbd0b8a403d" x="76.757964" y="68.091346" style="fill: #1f77b4; stroke: #1f77b4"/>
     <use xlink:href="#mbd0b8a403d" x="78.389393" y="65.32809" style="fill: #1f77b4; stroke: #1f77b4"/>
     <use xlink:href="#mbd0b8a403d" x="80.020823" y="62.750006" style="fill: #1f77b4; stroke: #1f77b4"/>
     <use xlink:href="#mbd0b8a403d" x="81.652253" y="60.320825" style="fill: #1f77b4; stroke: #1f77b4"/>
     <use xlink:href="#mbd0b8a403d" x="83.283683" y="58.000211" style="fill: #1f77b4; stroke: #1f77b4"/>
     <use xlink:href="#mbd0b8a403d" x="84.915113" y="56.007639" style="fill: #1f77b4; stroke: #1f77b4"/>
     <use xlink:href="#mbd0b8a403d" x="86.546543" y="54.129734" style="fill: #1f77b4; stroke: #1f77b4"/>
     <use xlink:href="#mbd0b8a403d" x="88.177973" y="52.502258" style="fill: #1f77b4; stroke: #1f77b4"/>
     <use xlink:href="#mbd0b8a403d" x="89.809403" y="51.035914" style="fill: #1f77b4; stroke: #1f77b4"/>
     <use xlink:href="#mbd0b8a403d" x="91.440832" y="49.862874" style="fill: #1f77b4; stroke: #1f77b4"/>
     <use xlink:href="#mbd0b8a403d" x="93.072262" y="48.850108" style="fill: #1f77b4; stroke: #1f77b4"/>
     <use xlink:href="#mbd0b8a403d" x="94.703692" y="48.094945" style="fill: #1f77b4; stroke: #1f77b4"/>
     <use xlink:href="#mbd0b8a403d" x="96.335122" y="47.542553" style="fill: #1f77b4; stroke: #1f77b4"/>
     <use xlink:href="#mbd0b8a403d" x="97.966552" y="47.278106" style="fill: #1f77b4; stroke: #1f77b4"/>
     <use xlink:href="#mbd0b8a403d" x="99.597982" y="47.258182" style="fill: #1f77b4; stroke: #1f77b4"/>
     <use xlink:href="#mbd0b8a403d" x="101.229412" y="47.435977" style="fill: #1f77b4; stroke: #1f77b4"/>
     <use xlink:href="#mbd0b8a403d" x="102.860842" y="47.872965" style="fill: #1f77b4; stroke: #1f77b4"/>
     <use xlink:href="#mbd0b8a403d" x="104.492271" y="48.503148" style="fill: #1f77b4; stroke: #1f77b4"/>
     <use xlink:href="#mbd0b8a403d" x="106.123701" y="49.401117" style="fill: #1f77b4; stroke: #1f77b4"/>
     <use xlink:href="#mbd0b8a403d" x="107.755131" y="50.5787" style="fill: #1f77b4; stroke: #1f77b4"/>
     <use xlink:href="#mbd0b8a403d" x="109.386561" y="51.90191" style="fill: #1f77b4; stroke: #1f77b4"/>
     <use xlink:href="#mbd0b8a403d" x="111.017991" y="53.458204" style="fill: #1f77b4; stroke: #1f77b4"/>
     <use xlink:href="#mbd0b8a403d" x="112.649421" y="55.269932" style="fill: #1f77b4; stroke: #1f77b4"/>
     <use xlink:href="#mbd0b8a403d" x="114.280851" y="57.24101" style="fill: #1f77b4; stroke: #1f77b4"/>
     <use xlink:href="#mbd0b8a403d" x="115.912281" y="59.42117" style="fill: #1f77b4; stroke: #1f77b4"/>
     <use xlink:href="#mbd0b8a403d" x="117.54371" y="61.785888" style="fill: #1f77b4; stroke: #1f77b4"/>
     <use xlink:href="#mbd0b8a403d" x="119.17514" y="64.364649" style="fill: #1f77b4; stroke: #1f77b4"/>
     <use xlink:href="#mbd0b8a403d" x="120.80657" y="67.04718" style="fill: #1f77b4; stroke: #1f77b4"/>
     <use xlink:href="#mbd0b8a403d" x="122.438" y="69.907334" style="fill: #1f77b4; stroke: #1f77b4"/>
     <use xlink:href="#mbd0b8a403d" x="124.06943" y="72.881695" style="fill: #1f77b4; stroke: #1f77b4"/>
     <use xlink:href="#mbd0b8a403d" x="125.70086" y="76.021501" style="fill: #1f77b4; stroke: #1f77b4"/>
     <use xlink:href="#mbd0b8a403d" x="127.33229" y="79.267613" style="fill: #1f77b4; stroke: #1f77b4"/>
     <use xlink:href="#mbd0b8a403d" x="128.96372" y="82.62405" style="fill: #1f77b4; stroke: #1f77b4"/>
     <use xlink:href="#mbd0b8a403d" x="130.595149" y="86.068818" style="fill: #1f77b4; stroke: #1f77b4"/>
     <use xlink:href="#mbd0b8a403d" x="132.226579" y="89.543177" style="fill: #1f77b4; stroke: #1f77b4"/>
     <use xlink:href="#mbd0b8a403d" x="133.858009" y="93.084234" style="fill: #1f77b4; stroke: #1f77b4"/>
     <use xlink:href="#mbd0b8a403d" x="135.489439" y="96.728584" style="fill: #1f77b4; stroke: #1f77b4"/>
     <use xlink:href="#mbd0b8a403d" x="137.120869" y="100.342621" style="fill: #1f77b4; stroke: #1f77b4"/>
     <use xlink:href="#mbd0b8a403d" x="138.752299" y="103.981963" style="fill: #1f77b4; stroke: #1f77b4"/>
     <use xlink:href="#mbd0b8a403d" x="140.383729" y="107.570215" style="fill: #1f77b4; stroke: #1f77b4"/>
     <use xlink:href="#mbd0b8a403d" x="142.015159" y="111.167678" style="fill: #1f77b4; stroke: #1f77b4"/>
     <use xlink:href="#mbd0b8a403d" x="143.646588" y="114.784382" style="fill: #1f77b4; stroke: #1f77b4"/>
     <use xlink:href="#mbd0b8a403d" x="145.278018" y="118.25697" style="fill: #1f77b4; stroke: #1f77b4"/>
     <use xlink:href="#mbd0b8a403d" x="146.909448" y="121.707165" style="fill: #1f77b4; stroke: #1f77b4"/>
     <use xlink:href="#mbd0b8a403d" x="148.540878" y="125.076358" style="fill: #1f77b4; stroke: #1f77b4"/>
     <use xlink:href="#mbd0b8a403d" x="150.172308" y="128.326324" style="fill: #1f77b4; stroke: #1f77b4"/>
     <use xlink:href="#mbd0b8a403d" x="151.803738" y="131.438921" style="fill: #1f77b4; stroke: #1f77b4"/>
     <use xlink:href="#mbd0b8a403d" x="153.435168" y="134.497701" style="fill: #1f77b4; stroke: #1f77b4"/>
     <use xlink:href="#mbd0b8a403d" x="155.066598" y="137.335833" style="fill: #1f77b4; stroke: #1f77b4"/>
     <use xlink:href="#mbd0b8a403d" x="156.698027" y="140.106265" style="fill: #1f77b4; stroke: #1f77b4"/>
     <use xlink:href="#mbd0b8a403d" x="158.329457" y="142.64226" style="fill: #1f77b4; stroke: #1f77b4"/>
     <use xlink:href="#mbd0b8a403d" x="159.960887" y="144.995018" style="fill: #1f77b4; stroke: #1f77b4"/>
     <use xlink:href="#mbd0b8a403d" x="161.592317" y="147.216027" style="fill: #1f77b4; stroke: #1f77b4"/>
     <use xlink:href="#mbd0b8a403d" x="163.223747" y="149.218774" style="fill: #1f77b4; stroke: #1f77b4"/>
     <use xlink:href="#mbd0b8a403d" x="164.855177" y="150.952041" style="fill: #1f77b4; stroke: #1f77b4"/>
     <use xlink:href="#mbd0b8a403d" x="166.486607" y="152.55318" style="fill: #1f77b4; stroke: #1f77b4"/>
     <use xlink:href="#mbd0b8a403d" x="168.118037" y="153.928974" style="fill: #1f77b4; stroke: #1f77b4"/>
     <use xlink:href="#mbd0b8a403d" x="169.749467" y="155.024742" style="fill: #1f77b4; stroke: #1f77b4"/>
     <use xlink:href="#mbd0b8a403d" x="171.380896" y="155.932424" style="fill: #1f77b4; stroke: #1f77b4"/>
     <use xlink:href="#mbd0b8a403d" x="173.012326" y="156.573556" style="fill: #1f77b4; stroke: #1f77b4"/>
     <use xlink:href="#mbd0b8a403d" x="174.643756" y="157.043474" style="fill: #1f77b4; stroke: #1f77b4"/>
     <use xlink:href="#mbd0b8a403d" x="176.275186" y="157.221818" style="fill: #1f77b4; stroke: #1f77b4"/>
     <use xlink:href="#mbd0b8a403d" x="177.906616" y="157.168348" style="fill: #1f77b4; stroke: #1f77b4"/>
     <use xlink:href="#mbd0b8a403d" x="179.538046" y="156.899754" style="fill: #1f77b4; stroke: #1f77b4"/>
     <use xlink:href="#mbd0b8a403d" x="181.169476" y="156.310334" style="fill: #1f77b4; stroke: #1f77b4"/>
     <use xlink:href="#mbd0b8a403d" x="182.800906" y="155.582692" style="fill: #1f77b4; stroke: #1f77b4"/>
     <use xlink:href="#mbd0b8a403d" x="184.432335" y="154.558825" style="fill: #1f77b4; stroke: #1f77b4"/>
     <use xlink:href="#mbd0b8a403d" x="186.063765" y="153.338347" style="fill: #1f77b4; stroke: #1f77b4"/>
     <use xlink:href="#mbd0b8a403d" x="187.695195" y="151.853252" style="fill: #1f77b4; stroke: #1f77b4"/>
     <use xlink:href="#mbd0b8a403d" x="189.326625" y="150.178699" style="fill: #1f77b4; stroke: #1f77b4"/>
     <use xlink:href="#mbd0b8a403d" x="190.958055" y="148.314812" style="fill: #1f77b4; stroke: #1f77b4"/>
     <use xlink:href="#mbd0b8a403d" x="192.589485" y="146.200573" style="fill: #1f77b4; stroke: #1f77b4"/>
     <use xlink:href="#mbd0b8a403d" x="194.220915" y="143.943403" style="fill: #1f77b4; stroke: #1f77b4"/>
     <use xlink:href="#mbd0b8a403d" x="195.852345" y="141.451867" style="fill: #1f77b4; stroke: #1f77b4"/>
     <use xlink:href="#mbd0b8a403d" x="197.483774" y="138.801924" style="fill: #1f77b4; stroke: #1f77b4"/>
     <use xlink:href="#mbd0b8a403d" x="199.115204" y="136.041957" style="fill: #1f77b4; stroke: #1f77b4"/>
     <use xlink:href="#mbd0b8a403d" x="200.746634" y="133.133675" style="fill: #1f77b4; stroke: #1f77b4"/>
     <use xlink:href="#mbd0b8a403d" x="202.378064" y="130.04439" style="fill: #1f77b4; stroke: #1f77b4"/>
     <use xlink:href="#mbd0b8a403d" x="204.009494" y="126.853611" style="fill: #1f77b4; stroke: #1f77b4"/>
     <use xlink:href="#mbd0b8a403d" x="205.640924" y="123.534783" style="fill: #1f77b4; stroke: #1f77b4"/>
     <use xlink:href="#mbd0b8a403d" x="207.272354" y="120.122966" style="fill: #1f77b4; stroke: #1f77b4"/>
     <use xlink:href="#mbd0b8a403d" x="208.903784" y="116.695048" style="fill: #1f77b4; stroke: #1f77b4"/>
     <use xlink:href="#mbd0b8a403d" x="210.535213" y="113.149585" style="fill: #1f77b4; stroke: #1f77b4"/>
     <use xlink:href="#mbd0b8a403d" x="212.166643" y="109.547863" style="fill: #1f77b4; stroke: #1f77b4"/>
     <use xlink:href="#mbd0b8a403d" x="213.798073" y="105.986333" style="fill: #1f77b4; stroke: #1f77b4"/>
     <use xlink:href="#mbd0b8a403d" x="215.429503" y="102.31463" style="fill: #1f77b4; stroke: #1f77b4"/>
     <use xlink:href="#mbd0b8a403d" x="217.060933" y="98.717874" style="fill: #1f77b4; stroke: #1f77b4"/>
     <use xlink:href="#mbd0b8a403d" x="218.692363" y="95.104294" style="fill: #1f77b4; stroke: #1f77b4"/>
     <use xlink:href="#mbd0b8a403d" x="220.323793" y="91.536347" style="fill: #1f77b4; stroke: #1f77b4"/>
     <use xlink:href="#mbd0b8a403d" x="221.955223" y="88.050636" style="fill: #1f77b4; stroke: #1f77b4"/>
     <use xlink:href="#mbd0b8a403d" x="223.586652" y="84.622524" style="fill: #1f77b4; stroke: #1f77b4"/>
     <use xlink:href="#mbd0b8a403d" x="225.218082" y="81.212992" style="fill: #1f77b4; stroke: #1f77b4"/>
     <use xlink:href="#mbd0b8a403d" x="226.849512" y="77.946018" style="fill: #1f77b4; stroke: #1f77b4"/>
     <use xlink:href="#mbd0b8a403d" x="228.480942" y="74.808737" style="fill: #1f77b4; stroke: #1f77b4"/>
     <use xlink:href="#mbd0b8a403d" x="230.112372" y="71.783901" style="fill: #1f77b4; stroke: #1f77b4"/>
     <use xlink:href="#mbd0b8a403d" x="231.743802" y="68.879992" style="fill: #1f77b4; stroke: #1f77b4"/>
     <use xlink:href="#mbd0b8a403d" x="233.375232" y="66.112633" style="fill: #1f77b4; stroke: #1f77b4"/>
     <use xlink:href="#mbd0b8a403d" x="235.006662" y="63.557579" style="fill: #1f77b4; stroke: #1f77b4"/>
     <use xlink:href="#mbd0b8a403d" x="236.638091" y="61.154498" style="fill: #1f77b4; stroke: #1f77b4"/>
     <use xlink:href="#mbd0b8a403d" x="238.269521" y="58.967002" style="fill: #1f77b4; stroke: #1f77b4"/>
     <use xlink:href="#mbd0b8a403d" x="239.900951" y="56.936967" style="fill: #1f77b4; stroke: #1f77b4"/>
     <use xlink:href="#mbd0b8a403d" x="241.532381" y="55.10058" style="fill: #1f77b4; stroke: #1f77b4"/>
     <use xlink:href="#mbd0b8a403d" x="243.163811" y="53.531088" style="fill: #1f77b4; stroke: #1f77b4"/>
     <use xlink:href="#mbd0b8a403d" x="244.795241" y="52.191959" style="fill: #1f77b4; stroke: #1f77b4"/>
     <use xlink:href="#mbd0b8a403d" x="246.426671" y="51.027478" style="fill: #1f77b4; stroke: #1f77b4"/>
     <use xlink:href="#mbd0b8a403d" x="248.058101" y="50.112405" style="fill: #1f77b4; stroke: #1f77b4"/>
     <use xlink:href="#mbd0b8a403d" x="249.68953" y="49.428245" style="fill: #1f77b4; stroke: #1f77b4"/>
     <use xlink:href="#mbd0b8a403d" x="251.32096" y="49.0073" style="fill: #1f77b4; stroke: #1f77b4"/>
     <use xlink:href="#mbd0b8a403d" x="252.95239" y="48.811136" style="fill: #1f77b4; stroke: #1f77b4"/>
     <use xlink:href="#mbd0b8a403d" x="254.58382" y="48.879039" style="fill: #1f77b4; stroke: #1f77b4"/>
     <use xlink:href="#mbd0b8a403d" x="256.21525" y="49.135881" style="fill: #1f77b4; stroke: #1f77b4"/>
     <use xlink:href="#mbd0b8a403d" x="257.84668" y="49.677255" style="fill: #1f77b4; stroke: #1f77b4"/>
     <use xlink:href="#mbd0b8a403d" x="259.47811" y="50.419478" style="fill: #1f77b4; stroke: #1f77b4"/>
     <use xlink:href="#mbd0b8a403d" x="261.10954" y="51.53527" style="fill: #1f77b4; stroke: #1f77b4"/>
     <use xlink:href="#mbd0b8a403d" x="262.740969" y="52.752277" style="fill: #1f77b4; stroke: #1f77b4"/>
     <use xlink:href="#mbd0b8a403d" x="264.372399" y="54.202154" style="fill: #1f77b4; stroke: #1f77b4"/>
     <use xlink:href="#mbd0b8a403d" x="266.003829" y="55.919084" style="fill: #1f77b4; stroke: #1f77b4"/>
     <use xlink:href="#mbd0b8a403d" x="267.635259" y="57.801221" style="fill: #1f77b4; stroke: #1f77b4"/>
     <use xlink:href="#mbd0b8a403d" x="269.266689" y="59.874295" style="fill: #1f77b4; stroke: #1f77b4"/>
     <use xlink:href="#mbd0b8a403d" x="270.898119" y="62.152861" style="fill: #1f77b4; stroke: #1f77b4"/>
     <use xlink:href="#mbd0b8a403d" x="272.529549" y="64.578074" style="fill: #1f77b4; stroke: #1f77b4"/>
     <use xlink:href="#mbd0b8a403d" x="274.160979" y="67.282863" style="fill: #1f77b4; stroke: #1f77b4"/>
     <use xlink:href="#mbd0b8a403d" x="275.792408" y="70.070565" style="fill: #1f77b4; stroke: #1f77b4"/>
     <use xlink:href="#mbd0b8a403d" x="277.423838" y="72.993098" style="fill: #1f77b4; stroke: #1f77b4"/>
     <use xlink:href="#mbd0b8a403d" x="279.055268" y="76.142066" style="fill: #1f77b4; stroke: #1f77b4"/>
     <use xlink:href="#mbd0b8a403d" x="280.686698" y="79.308076" style="fill: #1f77b4; stroke: #1f77b4"/>
     <use xlink:href="#mbd0b8a403d" x="282.318128" y="82.615099" style="fill: #1f77b4; stroke: #1f77b4"/>
     <use xlink:href="#mbd0b8a403d" x="283.949558" y="86.020255" style="fill: #1f77b4; stroke: #1f77b4"/>
     <use xlink:href="#mbd0b8a403d" x="285.580988" y="89.443417" style="fill: #1f77b4; stroke: #1f77b4"/>
     <use xlink:href="#mbd0b8a403d" x="287.212418" y="92.974511" style="fill: #1f77b4; stroke: #1f77b4"/>
     <use xlink:href="#mbd0b8a403d" x="288.843848" y="96.546078" style="fill: #1f77b4; stroke: #1f77b4"/>
     <use xlink:href="#mbd0b8a403d" x="290.475277" y="100.142978" style="fill: #1f77b4; stroke: #1f77b4"/>
     <use xlink:href="#mbd0b8a403d" x="292.106707" y="103.702226" style="fill: #1f77b4; stroke: #1f77b4"/>
     <use xlink:href="#mbd0b8a403d" x="293.738137" y="107.326356" style="fill: #1f77b4; stroke: #1f77b4"/>
     <use xlink:href="#mbd0b8a403d" x="295.369567" y="110.837837" style="fill: #1f77b4; stroke: #1f77b4"/>
     <use xlink:href="#mbd0b8a403d" x="297.000997" y="114.3435" style="fill: #1f77b4; stroke: #1f77b4"/>
     <use xlink:href="#mbd0b8a403d" x="298.632427" y="117.845593" style="fill: #1f77b4; stroke: #1f77b4"/>
     <use xlink:href="#mbd0b8a403d" x="300.263857" y="121.223476" style="fill: #1f77b4; stroke: #1f77b4"/>
     <use xlink:href="#mbd0b8a403d" x="301.895287" y="124.470101" style="fill: #1f77b4; stroke: #1f77b4"/>
     <use xlink:href="#mbd0b8a403d" x="303.526716" y="127.658872" style="fill: #1f77b4; stroke: #1f77b4"/>
     <use xlink:href="#mbd0b8a403d" x="305.158146" y="130.678424" style="fill: #1f77b4; stroke: #1f77b4"/>
     <use xlink:href="#mbd0b8a403d" x="306.789576" y="133.513511" style="fill: #1f77b4; stroke: #1f77b4"/>
     <use xlink:href="#mbd0b8a403d" x="308.421006" y="136.295306" style="fill: #1f77b4; stroke: #1f77b4"/>
     <use xlink:href="#mbd0b8a403d" x="310.052436" y="138.881184" style="fill: #1f77b4; stroke: #1f77b4"/>
     <use xlink:href="#mbd0b8a403d" x="311.683866" y="141.271015" style="fill: #1f77b4; stroke: #1f77b4"/>
     <use xlink:href="#mbd0b8a403d" x="313.315296" y="143.47476" style="fill: #1f77b4; stroke: #1f77b4"/>
     <use xlink:href="#mbd0b8a403d" x="314.946726" y="145.474723" style="fill: #1f77b4; stroke: #1f77b4"/>
     <use xlink:href="#mbd0b8a403d" x="316.578155" y="147.228153" style="fill: #1f77b4; stroke: #1f77b4"/>
     <use xlink:href="#mbd0b8a403d" x="318.209585" y="148.770606" style="fill: #1f77b4; stroke: #1f77b4"/>
     <use xlink:href="#mbd0b8a403d" x="319.841015" y="150.077957" style="fill: #1f77b4; stroke: #1f77b4"/>
     <use xlink:href="#mbd0b8a403d" x="321.472445" y="151.140151" style="fill: #1f77b4; stroke: #1f77b4"/>
     <use xlink:href="#mbd0b8a403d" x="323.103875" y="151.994554" style="fill: #1f77b4; stroke: #1f77b4"/>
     <use xlink:href="#mbd0b8a403d" x="324.735305" y="152.517108" style="fill: #1f77b4; stroke: #1f77b4"/>
     <use xlink:href="#mbd0b8a403d" x="326.366735" y="152.79374" style="fill: #1f77b4; stroke: #1f77b4"/>
     <use xlink:href="#mbd0b8a403d" x="327.998165" y="152.822614" style="fill: #1f77b4; stroke: #1f77b4"/>
     <use xlink:href="#mbd0b8a403d" x="329.629594" y="152.633987" style="fill: #1f77b4; stroke: #1f77b4"/>
     <use xlink:href="#mbd0b8a403d" x="331.261024" y="152.101285" style="fill: #1f77b4; stroke: #1f77b4"/>
     <use xlink:href="#mbd0b8a403d" x="332.892454" y="151.494304" style="fill: #1f77b4; stroke: #1f77b4"/>
     <use xlink:href="#mbd0b8a403d" x="334.523884" y="150.333469" style="fill: #1f77b4; stroke: #1f77b4"/>
     <use xlink:href="#mbd0b8a403d" x="336.155314" y="149.1326" style="fill: #1f77b4; stroke: #1f77b4"/>
     <use xlink:href="#mbd0b8a403d" x="337.786744" y="147.536008" style="fill: #1f77b4; stroke: #1f77b4"/>
     <use xlink:href="#mbd0b8a403d" x="339.418174" y="145.698702" style="fill: #1f77b4; stroke: #1f77b4"/>
     <use xlink:href="#mbd0b8a403d" x="341.049604" y="143.431405" style="fill: #1f77b4; stroke: #1f77b4"/>
     <use xlink:href="#mbd0b8a403d" x="342.681033" y="141.028028" style="fill: #1f77b4; stroke: #1f77b4"/>
     <use xlink:href="#mbd0b8a403d" x="344.312463" y="138.482663" style="fill: #1f77b4; stroke: #1f77b4"/>
     <use xlink:href="#mbd0b8a403d" x="345.943893" y="135.765732" style="fill: #1f77b4; stroke: #1f77b4"/>
     <use xlink:href="#mbd0b8a403d" x="347.575323" y="132.839626" style="fill: #1f77b4; stroke: #1f77b4"/>
     <use xlink:href="#mbd0b8a403d" x="349.206753" y="129.571182" style="fill: #1f77b4; stroke: #1f77b4"/>
     <use xlink:href="#mbd0b8a403d" x="350.838183" y="126.373592" style="fill: #1f77b4; stroke: #1f77b4"/>
     <use xlink:href="#mbd0b8a403d" x="352.469613" y="123.461238" style="fill: #1f77b4; stroke: #1f77b4"/>
     <use xlink:href="#mbd0b8a403d" x="354.101043" y="119.83224" style="fill: #1f77b4; stroke: #1f77b4"/>
     <use xlink:href="#mbd0b8a403d" x="355.732472" y="116.251917" style="fill: #1f77b4; stroke: #1f77b4"/>
     <use xlink:href="#mbd0b8a403d" x="357.363902" y="112.930849" style="fill: #1f77b4; stroke: #1f77b4"/>
     <use xlink:href="#mbd0b8a403d" x="358.995332" y="109.071519" style="fill: #1f77b4; stroke: #1f77b4"/>
     <use xlink:href="#mbd0b8a403d" x="360.626762" y="105.115425" style="fill: #1f77b4; stroke: #1f77b4"/>
     <use xlink:href="#mbd0b8a403d" x="362.258192" y="101.710667" style="fill: #1f77b4; stroke: #1f77b4"/>
     <use xlink:href="#mbd0b8a403d" x="363.889622" y="98.337066" style="fill: #1f77b4; stroke: #1f77b4"/>
     <use xlink:href="#mbd0b8a403d" x="365.521052" y="95.019644" style="fill: #1f77b4; stroke: #1f77b4"/>
     <use xlink:href="#mbd0b8a403d" x="367.152482" y="92.00259" style="fill: #1f77b4; stroke: #1f77b4"/>
     <use xlink:href="#mbd0b8a403d" x="368.783911" y="89.00716" style="fill: #1f77b4; stroke: #1f77b4"/>
     <use xlink:href="#mbd0b8a403d" x="370.415341" y="86.222212" style="fill: #1f77b4; stroke: #1f77b4"/>
     <use xlink:href="#mbd0b8a403d" x="372.046771" y="83.513147" style="fill: #1f77b4; stroke: #1f77b4"/>
     <use xlink:href="#mbd0b8a403d" x="373.678201" y="81.019395" style="fill: #1f77b4; stroke: #1f77b4"/>
     <use xlink:href="#mbd0b8a403d" x="375.309631" y="78.747472" style="fill: #1f77b4; stroke: #1f77b4"/>
     <use xlink:href="#mbd0b8a403d" x="376.941061" y="76.762782" style="fill: #1f77b4; stroke: #1f77b4"/>
     <use xlink:href="#mbd0b8a403d" x="378.572491" y="75.028516" style="fill: #1f77b4; stroke: #1f77b4"/>
     <use xlink:href="#mbd0b8a403d" x="380.203921" y="73.531914" style="fill: #1f77b4; stroke: #1f77b4"/>
     <use xlink:href="#mbd0b8a403d" x="381.83535" y="72.335114" style="fill: #1f77b4; stroke: #1f77b4"/>
     <use xlink:href="#mbd0b8a403d" x="383.46678" y="71.417727" style="fill: #1f77b4; stroke: #1f77b4"/>
     <use xlink:href="#mbd0b8a403d" x="385.09821" y="70.720142" style="fill: #1f77b4; stroke: #1f77b4"/>
    </g>
   </g>
   <g id="line2d_10">
    <path d="M 60.443665 105.605591 
L 69.543091 85.902127 
L 73.442846 78.00085 
L 76.692641 71.883288 
L 79.617457 66.836694 
L 82.217293 62.777245 
L 84.49215 59.592527 
L 86.767006 56.779783 
L 88.716883 54.683589 
L 90.666761 52.892175 
L 92.616638 51.417033 
L 94.241535 50.436242 
L 95.866433 49.686086 
L 97.491331 49.169927 
L 99.116228 48.890093 
L 100.741126 48.847863 
L 102.366023 49.043464 
L 103.990921 49.476069 
L 105.615819 50.143799 
L 107.240716 51.043733 
L 108.865614 52.171919 
L 110.815491 53.819973 
L 112.765368 55.779048 
L 114.715245 58.036695 
L 116.990102 61.02872 
L 119.264959 64.381597 
L 121.864795 68.617897 
L 124.789611 73.841689 
L 128.039406 80.126311 
L 131.93916 88.18273 
L 137.463812 100.173382 
L 146.238259 119.217355 
L 150.138014 127.133698 
L 153.387809 133.258425 
L 156.312625 138.306662 
L 158.912461 142.363372 
L 161.187318 145.54223 
L 163.462174 148.345726 
L 165.412051 150.431208 
L 167.361928 152.209282 
L 169.311806 153.668427 
L 170.936703 154.633848 
L 172.561601 155.366788 
L 174.186499 155.8639 
L 175.811396 156.122888 
L 177.436294 156.142511 
L 179.061191 155.922597 
L 180.686089 155.464039 
L 182.310987 154.768793 
L 183.935884 153.839872 
L 185.560782 152.681329 
L 187.510659 150.995204 
L 189.460536 148.996476 
L 191.410413 146.697842 
L 193.68527 143.656679 
L 195.960127 140.253693 
L 198.559963 135.959597 
L 201.484779 130.671102 
L 204.734574 124.316469 
L 208.634328 116.181174 
L 214.48396 103.374515 
L 222.283468 86.328653 
L 226.183223 78.314391 
L 229.433018 72.100816 
L 232.357833 66.969828 
L 234.95767 62.839405 
L 237.232526 59.597368 
L 239.507383 56.73316 
L 241.45726 54.598483 
L 243.407137 52.774592 
L 245.357014 51.273694 
L 246.981912 50.277056 
L 248.60681 49.516535 
L 250.231707 48.995811 
L 251.856605 48.717491 
L 253.481503 48.683093 
L 255.1064 48.89304 
L 256.731298 49.346654 
L 258.356195 50.042154 
L 259.981093 50.976666 
L 261.605991 52.14623 
L 263.555868 53.852817 
L 265.505745 55.879891 
L 267.455622 58.214649 
L 269.730479 61.307493 
L 272.005336 64.77191 
L 274.605172 69.147174 
L 277.529987 74.539155 
L 280.779783 81.020681 
L 284.679537 89.318385 
L 290.529168 102.368263 
L 298.003698 118.973933 
L 301.903452 127.101146 
L 305.153247 133.374546 
L 308.078063 138.522827 
L 310.677899 142.632428 
L 312.952756 145.823333 
L 315.227612 148.601445 
L 317.17749 150.631478 
L 319.127367 152.319688 
L 320.752264 153.454877 
L 322.377162 154.335346 
L 324.00206 154.955001 
L 325.626957 155.308917 
L 327.251855 155.393393 
L 328.876752 155.205992 
L 330.50165 154.74559 
L 332.126548 154.01242 
L 333.751445 153.008126 
L 335.376343 151.735804 
L 337.001241 150.20007 
L 338.951118 148.018307 
L 340.900995 145.480047 
L 342.850872 142.602715 
L 345.125729 138.845851 
L 347.725565 134.075537 
L 350.650381 128.190942 
L 354.225155 120.439512 
L 364.94948 96.69714 
L 367.224336 92.323002 
L 369.174214 88.972504 
L 371.124091 86.065826 
L 372.748988 84.024394 
L 374.373886 82.352308 
L 375.673804 81.285376 
L 376.973722 80.45419 
L 378.27364 79.845548 
L 379.898538 79.363867 
L 381.523435 79.135355 
L 383.798292 79.092931 
L 385.09821 79.131721 
L 385.09821 79.131721 
" clip-path="url(#pba8dc2be29)" style="fill: none; stroke: #d62728; stroke-width: 1.5; stroke-linecap: square"/>
   </g>
   <g id="patch_3">
    <path d="M 44.210938 162.72 
L 44.210938 41.76 
" style="fill: none; stroke: #000000; stroke-width: 0.8; stroke-linejoin: miter; stroke-linecap: square"/>
   </g>
   <g id="patch_4">
    <path d="M 401.330938 162.72 
L 401.330938 41.76 
" style="fill: none; stroke: #000000; stroke-width: 0.8; stroke-linejoin: miter; stroke-linecap: square"/>
   </g>
   <g id="patch_5">
    <path d="M 44.210937 162.72 
L 401.330937 162.72 
" style="fill: none; stroke: #000000; stroke-width: 0.8; stroke-linejoin: miter; stroke-linecap: square"/>
   </g>
   <g id="patch_6">
    <path d="M 44.210937 41.76 
L 401.330937 41.76 
" style="fill: none; stroke: #000000; stroke-width: 0.8; stroke-linejoin: miter; stroke-linecap: square"/>
   </g>
   <g id="text_5">
    <g id="patch_7">
     <path d="M 419.186937 95.079562 
L 555.186937 95.079562 
Q 559.186937 95.079562 559.186937 91.079562 
L 559.186937 47.808 
Q 559.186937 43.808 555.186937 43.808 
L 419.186937 43.808 
Q 415.186937 43.808 415.186937 47.808 
L 415.186937 91.079562 
Q 415.186937 95.079562 419.186937 95.079562 
z
" style="fill: #ffffff; opacity: 0.5; stroke: #000000; stroke-linejoin: miter"/>
    </g>
    <!-- Summary -->
    <g transform="translate(419.186937 55.406437) scale(0.1 -0.1)">
     <defs>
      <path id="DejaVuSans-53" d="M 3425 4513 
L 3425 3897 
Q 3066 4069 2747 4153 
Q 2428 4238 2131 4238 
Q 1616 4238 1336 4038 
Q 1056 3838 1056 3469 
Q 1056 3159 1242 3001 
Q 1428 2844 1947 2747 
L 2328 2669 
Q 3034 2534 3370 2195 
Q 3706 1856 3706 1288 
Q 3706 609 3251 259 
Q 2797 -91 1919 -91 
Q 1588 -91 1214 -16 
Q 841 59 441 206 
L 441 856 
Q 825 641 1194 531 
Q 1563 422 1919 422 
Q 2459 422 2753 634 
Q 3047 847 3047 1241 
Q 3047 1584 2836 1778 
Q 2625 1972 2144 2069 
L 1759 2144 
Q 1053 2284 737 2584 
Q 422 2884 422 3419 
Q 422 4038 858 4394 
Q 1294 4750 2059 4750 
Q 2388 4750 2728 4690 
Q 3069 4631 3425 4513 
z
" transform="scale(0.015625)"/>
      <path id="DejaVuSans-75" d="M 544 1381 
L 544 3500 
L 1119 3500 
L 1119 1403 
Q 1119 906 1312 657 
Q 1506 409 1894 409 
Q 2359 409 2629 706 
Q 2900 1003 2900 1516 
L 2900 3500 
L 3475 3500 
L 3475 0 
L 2900 0 
L 2900 538 
Q 2691 219 2414 64 
Q 2138 -91 1772 -91 
Q 1169 -91 856 284 
Q 544 659 544 1381 
z
M 1991 3584 
L 1991 3584 
z
" transform="scale(0.015625)"/>
      <path id="DejaVuSans-61" d="M 2194 1759 
Q 1497 1759 1228 1600 
Q 959 1441 959 1056 
Q 959 750 1161 570 
Q 1363 391 1709 391 
Q 2188 391 2477 730 
Q 2766 1069 2766 1631 
L 2766 1759 
L 2194 1759 
z
M 3341 1997 
L 3341 0 
L 2766 0 
L 2766 531 
Q 2569 213 2275 61 
Q 1981 -91 1556 -91 
Q 1019 -91 701 211 
Q 384 513 384 1019 
Q 384 1609 779 1909 
Q 1175 2209 1959 2209 
L 2766 2209 
L 2766 2266 
Q 2766 2663 2505 2880 
Q 2244 3097 1772 3097 
Q 1472 3097 1187 3025 
Q 903 2953 641 2809 
L 641 3341 
Q 956 3463 1253 3523 
Q 1550 3584 1831 3584 
Q 2591 3584 2966 3190 
Q 3341 2797 3341 1997 
z
" transform="scale(0.015625)"/>
      <path id="DejaVuSans-72" d="M 2631 2963 
Q 2534 3019 2420 3045 
Q 2306 3072 2169 3072 
Q 1681 3072 1420 2755 
Q 1159 2438 1159 1844 
L 1159 0 
L 581 0 
L 581 3500 
L 1159 3500 
L 1159 2956 
Q 1341 3275 1631 3429 
Q 1922 3584 2338 3584 
Q 2397 3584 2469 3576 
Q 2541 3569 2628 3553 
L 2631 2963 
z
" transform="scale(0.015625)"/>
      <path id="DejaVuSans-79" d="M 2059 -325 
Q 1816 -950 1584 -1140 
Q 1353 -1331 966 -1331 
L 506 -1331 
L 506 -850 
L 844 -850 
Q 1081 -850 1212 -737 
Q 1344 -625 1503 -206 
L 1606 56 
L 191 3500 
L 800 3500 
L 1894 763 
L 2988 3500 
L 3597 3500 
L 2059 -325 
z
" transform="scale(0.015625)"/>
     </defs>
     <use xlink:href="#DejaVuSans-53"/>
     <use xlink:href="#DejaVuSans-75" x="63.476562"/>
     <use xlink:href="#DejaVuSans-6d" x="126.855469"/>
     <use xlink:href="#DejaVuSans-6d" x="224.267578"/>
     <use xlink:href="#DejaVuSans-61" x="321.679688"/>
     <use xlink:href="#DejaVuSans-72" x="382.958984"/>
     <use xlink:href="#DejaVuSans-79" x="424.072266"/>
    </g>
    <!-- $Q_I$: 6.85$\pm$0.83 k -->
    <g transform="translate(419.186937 66.60425) scale(0.1 -0.1)">
     <defs>
      <path id="DejaVuSans-Oblique-51" d="M 2309 -84 
Q 2275 -88 2237 -89 
Q 2200 -91 2125 -91 
Q 1250 -91 756 411 
Q 263 913 263 1797 
Q 263 2319 452 2844 
Q 641 3369 978 3788 
Q 1369 4269 1858 4509 
Q 2347 4750 2938 4750 
Q 3794 4750 4287 4245 
Q 4781 3741 4781 2869 
Q 4781 1928 4265 1147 
Q 3750 366 2919 44 
L 3553 -825 
L 2847 -825 
L 2309 -84 
z
M 2919 4238 
Q 2400 4238 2003 3986 
Q 1606 3734 1313 3219 
Q 1125 2891 1026 2522 
Q 928 2153 928 1778 
Q 928 1128 1239 775 
Q 1550 422 2119 422 
Q 2631 422 3032 676 
Q 3434 931 3719 1434 
Q 3909 1772 4009 2142 
Q 4109 2513 4109 2881 
Q 4109 3528 3796 3883 
Q 3484 4238 2919 4238 
z
" transform="scale(0.015625)"/>
      <path id="DejaVuSans-Oblique-49" d="M 1081 4666 
L 1716 4666 
L 806 0 
L 172 0 
L 1081 4666 
z
" transform="scale(0.015625)"/>
      <path id="DejaVuSans-3a" d="M 750 794 
L 1409 794 
L 1409 0 
L 750 0 
L 750 794 
z
M 750 3309 
L 1409 3309 
L 1409 2516 
L 750 2516 
L 750 3309 
z
" transform="scale(0.015625)"/>
      <path id="DejaVuSans-36" d="M 2113 2584 
Q 1688 2584 1439 2293 
Q 1191 2003 1191 1497 
Q 1191 994 1439 701 
Q 1688 409 2113 409 
Q 2538 409 2786 701 
Q 3034 994 3034 1497 
Q 3034 2003 2786 2293 
Q 2538 2584 2113 2584 
z
M 3366 4563 
L 3366 3988 
Q 3128 4100 2886 4159 
Q 2644 4219 2406 4219 
Q 1781 4219 1451 3797 
Q 1122 3375 1075 2522 
Q 1259 2794 1537 2939 
Q 1816 3084 2150 3084 
Q 2853 3084 3261 2657 
Q 3669 2231 3669 1497 
Q 3669 778 3244 343 
Q 2819 -91 2113 -91 
Q 1303 -91 875 529 
Q 447 1150 447 2328 
Q 447 3434 972 4092 
Q 1497 4750 2381 4750 
Q 2619 4750 2861 4703 
Q 3103 4656 3366 4563 
z
" transform="scale(0.015625)"/>
      <path id="DejaVuSans-2e" d="M 684 794 
L 1344 794 
L 1344 0 
L 684 0 
L 684 794 
z
" transform="scale(0.015625)"/>
      <path id="DejaVuSans-38" d="M 2034 2216 
Q 1584 2216 1326 1975 
Q 1069 1734 1069 1313 
Q 1069 891 1326 650 
Q 1584 409 2034 409 
Q 2484 409 2743 651 
Q 3003 894 3003 1313 
Q 3003 1734 2745 1975 
Q 2488 2216 2034 2216 
z
M 1403 2484 
Q 997 2584 770 2862 
Q 544 3141 544 3541 
Q 544 4100 942 4425 
Q 1341 4750 2034 4750 
Q 2731 4750 3128 4425 
Q 3525 4100 3525 3541 
Q 3525 3141 3298 2862 
Q 3072 2584 2669 2484 
Q 3125 2378 3379 2068 
Q 3634 1759 3634 1313 
Q 3634 634 3220 271 
Q 2806 -91 2034 -91 
Q 1263 -91 848 271 
Q 434 634 434 1313 
Q 434 1759 690 2068 
Q 947 2378 1403 2484 
z
M 1172 3481 
Q 1172 3119 1398 2916 
Q 1625 2713 2034 2713 
Q 2441 2713 2670 2916 
Q 2900 3119 2900 3481 
Q 2900 3844 2670 4047 
Q 2441 4250 2034 4250 
Q 1625 4250 1398 4047 
Q 1172 3844 1172 3481 
z
" transform="scale(0.015625)"/>
      <path id="DejaVuSans-b1" d="M 2944 4013 
L 2944 2803 
L 4684 2803 
L 4684 2272 
L 2944 2272 
L 2944 1063 
L 2419 1063 
L 2419 2272 
L 678 2272 
L 678 2803 
L 2419 2803 
L 2419 4013 
L 2944 4013 
z
M 678 531 
L 4684 531 
L 4684 0 
L 678 0 
L 678 531 
z
" transform="scale(0.015625)"/>
      <path id="DejaVuSans-33" d="M 2597 2516 
Q 3050 2419 3304 2112 
Q 3559 1806 3559 1356 
Q 3559 666 3084 287 
Q 2609 -91 1734 -91 
Q 1441 -91 1130 -33 
Q 819 25 488 141 
L 488 750 
Q 750 597 1062 519 
Q 1375 441 1716 441 
Q 2309 441 2620 675 
Q 2931 909 2931 1356 
Q 2931 1769 2642 2001 
Q 2353 2234 1838 2234 
L 1294 2234 
L 1294 2753 
L 1863 2753 
Q 2328 2753 2575 2939 
Q 2822 3125 2822 3475 
Q 2822 3834 2567 4026 
Q 2313 4219 1838 4219 
Q 1578 4219 1281 4162 
Q 984 4106 628 3988 
L 628 4550 
Q 988 4650 1302 4700 
Q 1616 4750 1894 4750 
Q 2613 4750 3031 4423 
Q 3450 4097 3450 3541 
Q 3450 3153 3228 2886 
Q 3006 2619 2597 2516 
z
" transform="scale(0.015625)"/>
      <path id="DejaVuSans-6b" d="M 581 4863 
L 1159 4863 
L 1159 1991 
L 2875 3500 
L 3609 3500 
L 1753 1863 
L 3688 0 
L 2938 0 
L 1159 1709 
L 1159 0 
L 581 0 
L 581 4863 
z
" transform="scale(0.015625)"/>
     </defs>
     <use xlink:href="#DejaVuSans-Oblique-51" transform="translate(0 0.015625)"/>
     <use xlink:href="#DejaVuSans-Oblique-49" transform="translate(78.710938 -16.390625) scale(0.7)"/>
     <use xlink:href="#DejaVuSans-3a" transform="translate(102.089844 0.015625)"/>
     <use xlink:href="#DejaVuSans-20" transform="translate(135.78125 0.015625)"/>
     <use xlink:href="#DejaVuSans-36" transform="translate(167.568359 0.015625)"/>
     <use xlink:href="#DejaVuSans-2e" transform="translate(231.191406 0.015625)"/>
     <use xlink:href="#DejaVuSans-38" transform="translate(260.353516 0.015625)"/>
     <use xlink:href="#DejaVuSans-35" transform="translate(323.976562 0.015625)"/>
     <use xlink:href="#DejaVuSans-b1" transform="translate(387.599609 0.015625)"/>
     <use xlink:href="#DejaVuSans-30" transform="translate(471.388672 0.015625)"/>
     <use xlink:href="#DejaVuSans-2e" transform="translate(535.011719 0.015625)"/>
     <use xlink:href="#DejaVuSans-38" transform="translate(564.173828 0.015625)"/>
     <use xlink:href="#DejaVuSans-33" transform="translate(627.796875 0.015625)"/>
     <use xlink:href="#DejaVuSans-20" transform="translate(691.419922 0.015625)"/>
     <use xlink:href="#DejaVuSans-6b" transform="translate(723.207031 0.015625)"/>
    </g>
    <!-- $Q_C$: 9.4$\pm$1.0 k -->
    <g transform="translate(419.186937 77.802062) scale(0.1 -0.1)">
     <defs>
      <path id="DejaVuSans-Oblique-43" d="M 4447 4306 
L 4319 3641 
Q 4019 3944 3683 4091 
Q 3347 4238 2956 4238 
Q 2422 4238 2017 3981 
Q 1613 3725 1319 3200 
Q 1131 2863 1032 2486 
Q 934 2109 934 1728 
Q 934 1091 1264 756 
Q 1594 422 2222 422 
Q 2656 422 3056 561 
Q 3456 700 3834 978 
L 3688 231 
Q 3316 72 2936 -9 
Q 2556 -91 2175 -91 
Q 1278 -91 773 396 
Q 269 884 269 1753 
Q 269 2309 461 2846 
Q 653 3384 1013 3828 
Q 1394 4300 1883 4525 
Q 2372 4750 3022 4750 
Q 3422 4750 3780 4639 
Q 4138 4528 4447 4306 
z
" transform="scale(0.015625)"/>
      <path id="DejaVuSans-39" d="M 703 97 
L 703 672 
Q 941 559 1184 500 
Q 1428 441 1663 441 
Q 2288 441 2617 861 
Q 2947 1281 2994 2138 
Q 2813 1869 2534 1725 
Q 2256 1581 1919 1581 
Q 1219 1581 811 2004 
Q 403 2428 403 3163 
Q 403 3881 828 4315 
Q 1253 4750 1959 4750 
Q 2769 4750 3195 4129 
Q 3622 3509 3622 2328 
Q 3622 1225 3098 567 
Q 2575 -91 1691 -91 
Q 1453 -91 1209 -44 
Q 966 3 703 97 
z
M 1959 2075 
Q 2384 2075 2632 2365 
Q 2881 2656 2881 3163 
Q 2881 3666 2632 3958 
Q 2384 4250 1959 4250 
Q 1534 4250 1286 3958 
Q 1038 3666 1038 3163 
Q 1038 2656 1286 2365 
Q 1534 2075 1959 2075 
z
" transform="scale(0.015625)"/>
      <path id="DejaVuSans-34" d="M 2419 4116 
L 825 1625 
L 2419 1625 
L 2419 4116 
z
M 2253 4666 
L 3047 4666 
L 3047 1625 
L 3713 1625 
L 3713 1100 
L 3047 1100 
L 3047 0 
L 2419 0 
L 2419 1100 
L 313 1100 
L 313 1709 
L 2253 4666 
z
" transform="scale(0.015625)"/>
     </defs>
     <use xlink:href="#DejaVuSans-Oblique-51" transform="translate(0 0.015625)"/>
     <use xlink:href="#DejaVuSans-Oblique-43" transform="translate(78.710938 -16.390625) scale(0.7)"/>
     <use xlink:href="#DejaVuSans-3a" transform="translate(130.322266 0.015625)"/>
     <use xlink:href="#DejaVuSans-20" transform="translate(164.013672 0.015625)"/>
     <use xlink:href="#DejaVuSans-39" transform="translate(195.800781 0.015625)"/>
     <use xlink:href="#DejaVuSans-2e" transform="translate(259.423828 0.015625)"/>
     <use xlink:href="#DejaVuSans-34" transform="translate(291.210938 0.015625)"/>
     <use xlink:href="#DejaVuSans-b1" transform="translate(354.833984 0.015625)"/>
     <use xlink:href="#DejaVuSans-31" transform="translate(438.623047 0.015625)"/>
     <use xlink:href="#DejaVuSans-2e" transform="translate(502.246094 0.015625)"/>
     <use xlink:href="#DejaVuSans-30" transform="translate(534.033203 0.015625)"/>
     <use xlink:href="#DejaVuSans-20" transform="translate(597.65625 0.015625)"/>
     <use xlink:href="#DejaVuSans-6b" transform="translate(629.443359 0.015625)"/>
    </g>
    <!-- $f_{res}$: 6.10500$\pm$0.00015 GHz -->
    <g transform="translate(419.186937 88.999875) scale(0.1 -0.1)">
     <defs>
      <path id="DejaVuSans-Oblique-66" d="M 3059 4863 
L 2969 4384 
L 2419 4384 
Q 2106 4384 1964 4261 
Q 1822 4138 1753 3809 
L 1691 3500 
L 2638 3500 
L 2553 3053 
L 1606 3053 
L 1013 0 
L 434 0 
L 1031 3053 
L 481 3053 
L 563 3500 
L 1113 3500 
L 1159 3744 
Q 1278 4363 1576 4613 
Q 1875 4863 2516 4863 
L 3059 4863 
z
" transform="scale(0.015625)"/>
      <path id="DejaVuSans-Oblique-72" d="M 2853 2969 
Q 2766 3016 2653 3041 
Q 2541 3066 2413 3066 
Q 1953 3066 1609 2717 
Q 1266 2369 1153 1784 
L 800 0 
L 225 0 
L 909 3500 
L 1484 3500 
L 1375 2956 
Q 1603 3259 1920 3421 
Q 2238 3584 2597 3584 
Q 2691 3584 2781 3573 
Q 2872 3563 2963 3538 
L 2853 2969 
z
" transform="scale(0.015625)"/>
      <path id="DejaVuSans-Oblique-65" d="M 3078 2063 
Q 3088 2113 3092 2166 
Q 3097 2219 3097 2272 
Q 3097 2653 2873 2875 
Q 2650 3097 2266 3097 
Q 1838 3097 1509 2826 
Q 1181 2556 1013 2059 
L 3078 2063 
z
M 3578 1613 
L 903 1613 
Q 884 1494 878 1425 
Q 872 1356 872 1306 
Q 872 872 1139 634 
Q 1406 397 1894 397 
Q 2269 397 2603 481 
Q 2938 566 3225 728 
L 3116 159 
Q 2806 34 2476 -28 
Q 2147 -91 1806 -91 
Q 1078 -91 686 257 
Q 294 606 294 1247 
Q 294 1794 489 2264 
Q 684 2734 1063 3103 
Q 1306 3334 1642 3459 
Q 1978 3584 2356 3584 
Q 2950 3584 3301 3228 
Q 3653 2872 3653 2272 
Q 3653 2128 3634 1964 
Q 3616 1800 3578 1613 
z
" transform="scale(0.015625)"/>
      <path id="DejaVuSans-Oblique-73" d="M 3200 3397 
L 3091 2853 
Q 2863 2978 2609 3040 
Q 2356 3103 2088 3103 
Q 1634 3103 1373 2948 
Q 1113 2794 1113 2528 
Q 1113 2219 1719 2053 
Q 1766 2041 1788 2034 
L 1972 1978 
Q 2547 1819 2739 1644 
Q 2931 1469 2931 1166 
Q 2931 609 2489 259 
Q 2047 -91 1331 -91 
Q 1053 -91 747 -37 
Q 441 16 72 128 
L 184 722 
Q 500 559 806 475 
Q 1113 391 1394 391 
Q 1816 391 2080 572 
Q 2344 753 2344 1031 
Q 2344 1331 1650 1516 
L 1591 1531 
L 1394 1581 
Q 956 1697 753 1886 
Q 550 2075 550 2369 
Q 550 2928 970 3256 
Q 1391 3584 2113 3584 
Q 2397 3584 2667 3537 
Q 2938 3491 3200 3397 
z
" transform="scale(0.015625)"/>
      <path id="DejaVuSans-47" d="M 3809 666 
L 3809 1919 
L 2778 1919 
L 2778 2438 
L 4434 2438 
L 4434 434 
Q 4069 175 3628 42 
Q 3188 -91 2688 -91 
Q 1594 -91 976 548 
Q 359 1188 359 2328 
Q 359 3472 976 4111 
Q 1594 4750 2688 4750 
Q 3144 4750 3555 4637 
Q 3966 4525 4313 4306 
L 4313 3634 
Q 3963 3931 3569 4081 
Q 3175 4231 2741 4231 
Q 1884 4231 1454 3753 
Q 1025 3275 1025 2328 
Q 1025 1384 1454 906 
Q 1884 428 2741 428 
Q 3075 428 3337 486 
Q 3600 544 3809 666 
z
" transform="scale(0.015625)"/>
      <path id="DejaVuSans-48" d="M 628 4666 
L 1259 4666 
L 1259 2753 
L 3553 2753 
L 3553 4666 
L 4184 4666 
L 4184 0 
L 3553 0 
L 3553 2222 
L 1259 2222 
L 1259 0 
L 628 0 
L 628 4666 
z
" transform="scale(0.015625)"/>
      <path id="DejaVuSans-7a" d="M 353 3500 
L 3084 3500 
L 3084 2975 
L 922 459 
L 3084 459 
L 3084 0 
L 275 0 
L 275 525 
L 2438 3041 
L 353 3041 
L 353 3500 
z
" transform="scale(0.015625)"/>
     </defs>
     <use xlink:href="#DejaVuSans-Oblique-66" transform="translate(0 0.015625)"/>
     <use xlink:href="#DejaVuSans-Oblique-72" transform="translate(35.205078 -16.390625) scale(0.7)"/>
     <use xlink:href="#DejaVuSans-Oblique-65" transform="translate(63.984375 -16.390625) scale(0.7)"/>
     <use xlink:href="#DejaVuSans-Oblique-73" transform="translate(107.050781 -16.390625) scale(0.7)"/>
     <use xlink:href="#DejaVuSans-3a" transform="translate(146.254883 0.015625)"/>
     <use xlink:href="#DejaVuSans-20" transform="translate(179.946289 0.015625)"/>
     <use xlink:href="#DejaVuSans-36" transform="translate(211.733398 0.015625)"/>
     <use xlink:href="#DejaVuSans-2e" transform="translate(275.356445 0.015625)"/>
     <use xlink:href="#DejaVuSans-31" transform="translate(307.143555 0.015625)"/>
     <use xlink:href="#DejaVuSans-30" transform="translate(370.766602 0.015625)"/>
     <use xlink:href="#DejaVuSans-35" transform="translate(434.389648 0.015625)"/>
     <use xlink:href="#DejaVuSans-30" transform="translate(498.012695 0.015625)"/>
     <use xlink:href="#DejaVuSans-30" transform="translate(561.635742 0.015625)"/>
     <use xlink:href="#DejaVuSans-b1" transform="translate(625.258789 0.015625)"/>
     <use xlink:href="#DejaVuSans-30" transform="translate(709.047852 0.015625)"/>
     <use xlink:href="#DejaVuSans-2e" transform="translate(772.670898 0.015625)"/>
     <use xlink:href="#DejaVuSans-30" transform="translate(804.458008 0.015625)"/>
     <use xlink:href="#DejaVuSans-30" transform="translate(868.081055 0.015625)"/>
     <use xlink:href="#DejaVuSans-30" transform="translate(931.704102 0.015625)"/>
     <use xlink:href="#DejaVuSans-31" transform="translate(995.327148 0.015625)"/>
     <use xlink:href="#DejaVuSans-35" transform="translate(1058.950195 0.015625)"/>
     <use xlink:href="#DejaVuSans-20" transform="translate(1122.573242 0.015625)"/>
     <use xlink:href="#DejaVuSans-47" transform="translate(1154.360352 0.015625)"/>
     <use xlink:href="#DejaVuSans-48" transform="translate(1231.850586 0.015625)"/>
     <use xlink:href="#DejaVuSans-7a" transform="translate(1307.045898 0.015625)"/>
    </g>
   </g>
  </g>
  <g id="axes_2">
   <g id="patch_8">
    <path d="M 44.210938 307.872 
L 401.330938 307.872 
L 401.330938 186.912 
L 44.210938 186.912 
z
" style="fill: #ffffff"/>
   </g>
   <g id="matplotlib.axis_3">
    <g id="xtick_6">
     <g id="line2d_11">
      <g>
       <use xlink:href="#m114ed5df3a" x="92.909119" y="307.872" style="stroke: #000000; stroke-width: 0.8"/>
      </g>
     </g>
     <g id="text_6">
      <!-- 96 -->
      <g transform="translate(86.546619 322.470438) scale(0.1 -0.1)">
       <use xlink:href="#DejaVuSans-39"/>
       <use xlink:href="#DejaVuSans-36" x="63.623047"/>
      </g>
     </g>
    </g>
    <g id="xtick_7">
     <g id="line2d_12">
      <g>
       <use xlink:href="#m114ed5df3a" x="157.840028" y="307.872" style="stroke: #000000; stroke-width: 0.8"/>
      </g>
     </g>
     <g id="text_7">
      <!-- 98 -->
      <g transform="translate(151.477528 322.470438) scale(0.1 -0.1)">
       <use xlink:href="#DejaVuSans-39"/>
       <use xlink:href="#DejaVuSans-38" x="63.623047"/>
      </g>
     </g>
    </g>
    <g id="xtick_8">
     <g id="line2d_13">
      <g>
       <use xlink:href="#m114ed5df3a" x="222.770937" y="307.872" style="stroke: #000000; stroke-width: 0.8"/>
      </g>
     </g>
     <g id="text_8">
      <!-- 100 -->
      <g transform="translate(213.227187 322.470438) scale(0.1 -0.1)">
       <use xlink:href="#DejaVuSans-31"/>
       <use xlink:href="#DejaVuSans-30" x="63.623047"/>
       <use xlink:href="#DejaVuSans-30" x="127.246094"/>
      </g>
     </g>
    </g>
    <g id="xtick_9">
     <g id="line2d_14">
      <g>
       <use xlink:href="#m114ed5df3a" x="287.701847" y="307.872" style="stroke: #000000; stroke-width: 0.8"/>
      </g>
     </g>
     <g id="text_9">
      <!-- 102 -->
      <g transform="translate(278.158097 322.470438) scale(0.1 -0.1)">
       <use xlink:href="#DejaVuSans-31"/>
       <use xlink:href="#DejaVuSans-30" x="63.623047"/>
       <use xlink:href="#DejaVuSans-32" x="127.246094"/>
      </g>
     </g>
    </g>
    <g id="xtick_10">
     <g id="line2d_15">
      <g>
       <use xlink:href="#m114ed5df3a" x="352.632756" y="307.872" style="stroke: #000000; stroke-width: 0.8"/>
      </g>
     </g>
     <g id="text_10">
      <!-- 104 -->
      <g transform="translate(343.089006 322.470438) scale(0.1 -0.1)">
       <use xlink:href="#DejaVuSans-31"/>
       <use xlink:href="#DejaVuSans-30" x="63.623047"/>
       <use xlink:href="#DejaVuSans-34" x="127.246094"/>
      </g>
     </g>
    </g>
    <g id="text_11">
     <!-- Frequency [MHz] -->
     <g transform="translate(180.752187 336.148562) scale(0.1 -0.1)">
      <defs>
       <path id="DejaVuSans-46" d="M 628 4666 
L 3309 4666 
L 3309 4134 
L 1259 4134 
L 1259 2759 
L 3109 2759 
L 3109 2228 
L 1259 2228 
L 1259 0 
L 628 0 
L 628 4666 
z
" transform="scale(0.015625)"/>
       <path id="DejaVuSans-71" d="M 947 1747 
Q 947 1113 1208 752 
Q 1469 391 1925 391 
Q 2381 391 2643 752 
Q 2906 1113 2906 1747 
Q 2906 2381 2643 2742 
Q 2381 3103 1925 3103 
Q 1469 3103 1208 2742 
Q 947 2381 947 1747 
z
M 2906 525 
Q 2725 213 2448 61 
Q 2172 -91 1784 -91 
Q 1150 -91 751 415 
Q 353 922 353 1747 
Q 353 2572 751 3078 
Q 1150 3584 1784 3584 
Q 2172 3584 2448 3432 
Q 2725 3281 2906 2969 
L 2906 3500 
L 3481 3500 
L 3481 -1331 
L 2906 -1331 
L 2906 525 
z
" transform="scale(0.015625)"/>
       <path id="DejaVuSans-6e" d="M 3513 2113 
L 3513 0 
L 2938 0 
L 2938 2094 
Q 2938 2591 2744 2837 
Q 2550 3084 2163 3084 
Q 1697 3084 1428 2787 
Q 1159 2491 1159 1978 
L 1159 0 
L 581 0 
L 581 3500 
L 1159 3500 
L 1159 2956 
Q 1366 3272 1645 3428 
Q 1925 3584 2291 3584 
Q 2894 3584 3203 3211 
Q 3513 2838 3513 2113 
z
" transform="scale(0.015625)"/>
       <path id="DejaVuSans-63" d="M 3122 3366 
L 3122 2828 
Q 2878 2963 2633 3030 
Q 2388 3097 2138 3097 
Q 1578 3097 1268 2742 
Q 959 2388 959 1747 
Q 959 1106 1268 751 
Q 1578 397 2138 397 
Q 2388 397 2633 464 
Q 2878 531 3122 666 
L 3122 134 
Q 2881 22 2623 -34 
Q 2366 -91 2075 -91 
Q 1284 -91 818 406 
Q 353 903 353 1747 
Q 353 2603 823 3093 
Q 1294 3584 2113 3584 
Q 2378 3584 2631 3529 
Q 2884 3475 3122 3366 
z
" transform="scale(0.015625)"/>
       <path id="DejaVuSans-4d" d="M 628 4666 
L 1569 4666 
L 2759 1491 
L 3956 4666 
L 4897 4666 
L 4897 0 
L 4281 0 
L 4281 4097 
L 3078 897 
L 2444 897 
L 1241 4097 
L 1241 0 
L 628 0 
L 628 4666 
z
" transform="scale(0.015625)"/>
      </defs>
      <use xlink:href="#DejaVuSans-46"/>
      <use xlink:href="#DejaVuSans-72" x="50.269531"/>
      <use xlink:href="#DejaVuSans-65" x="89.132812"/>
      <use xlink:href="#DejaVuSans-71" x="150.65625"/>
      <use xlink:href="#DejaVuSans-75" x="214.132812"/>
      <use xlink:href="#DejaVuSans-65" x="277.511719"/>
      <use xlink:href="#DejaVuSans-6e" x="339.035156"/>
      <use xlink:href="#DejaVuSans-63" x="402.414062"/>
      <use xlink:href="#DejaVuSans-79" x="457.394531"/>
      <use xlink:href="#DejaVuSans-20" x="516.574219"/>
      <use xlink:href="#DejaVuSans-5b" x="548.361328"/>
      <use xlink:href="#DejaVuSans-4d" x="587.375"/>
      <use xlink:href="#DejaVuSans-48" x="673.654297"/>
      <use xlink:href="#DejaVuSans-7a" x="748.849609"/>
      <use xlink:href="#DejaVuSans-5d" x="801.339844"/>
     </g>
    </g>
    <g id="text_12">
     <!-- +6 GHz -->
     <g transform="translate(362.893438 335.148562) scale(0.1 -0.1)">
      <defs>
       <path id="DejaVuSans-2b" d="M 2944 4013 
L 2944 2272 
L 4684 2272 
L 4684 1741 
L 2944 1741 
L 2944 0 
L 2419 0 
L 2419 1741 
L 678 1741 
L 678 2272 
L 2419 2272 
L 2419 4013 
L 2944 4013 
z
" transform="scale(0.015625)"/>
      </defs>
      <use xlink:href="#DejaVuSans-2b"/>
      <use xlink:href="#DejaVuSans-36" x="83.789062"/>
      <use xlink:href="#DejaVuSans-20" x="147.412109"/>
      <use xlink:href="#DejaVuSans-47" x="179.199219"/>
      <use xlink:href="#DejaVuSans-48" x="256.689453"/>
      <use xlink:href="#DejaVuSans-7a" x="331.884766"/>
     </g>
    </g>
   </g>
   <g id="matplotlib.axis_4">
    <g id="ytick_4">
     <g id="line2d_16">
      <g>
       <use xlink:href="#ma6d131e53f" x="44.210938" y="280.929107" style="stroke: #000000; stroke-width: 0.8"/>
      </g>
     </g>
     <g id="text_13">
      <!-- -50 -->
      <g transform="translate(20.878125 284.728326) scale(0.1 -0.1)">
       <use xlink:href="#DejaVuSans-2d"/>
       <use xlink:href="#DejaVuSans-35" x="36.083984"/>
       <use xlink:href="#DejaVuSans-30" x="99.707031"/>
      </g>
     </g>
    </g>
    <g id="ytick_5">
     <g id="line2d_17">
      <g>
       <use xlink:href="#ma6d131e53f" x="44.210938" y="247.58497" style="stroke: #000000; stroke-width: 0.8"/>
      </g>
     </g>
     <g id="text_14">
      <!-- 0 -->
      <g transform="translate(30.848437 251.384189) scale(0.1 -0.1)">
       <use xlink:href="#DejaVuSans-30"/>
      </g>
     </g>
    </g>
    <g id="ytick_6">
     <g id="line2d_18">
      <g>
       <use xlink:href="#ma6d131e53f" x="44.210938" y="214.240833" style="stroke: #000000; stroke-width: 0.8"/>
      </g>
     </g>
     <g id="text_15">
      <!-- 50 -->
      <g transform="translate(24.485937 218.040051) scale(0.1 -0.1)">
       <use xlink:href="#DejaVuSans-35"/>
       <use xlink:href="#DejaVuSans-30" x="63.623047"/>
      </g>
     </g>
    </g>
    <g id="text_16">
     <!-- Im$(S_{21})$ [mV] -->
     <g transform="translate(14.798437 279.042) rotate(-90) scale(0.1 -0.1)">
      <defs>
       <path id="DejaVuSans-49" d="M 628 4666 
L 1259 4666 
L 1259 0 
L 628 0 
L 628 4666 
z
" transform="scale(0.015625)"/>
      </defs>
      <use xlink:href="#DejaVuSans-49" transform="translate(0 0.015625)"/>
      <use xlink:href="#DejaVuSans-6d" transform="translate(25.867188 0.015625)"/>
      <use xlink:href="#DejaVuSans-28" transform="translate(123.279297 0.015625)"/>
      <use xlink:href="#DejaVuSans-Oblique-53" transform="translate(162.292969 0.015625)"/>
      <use xlink:href="#DejaVuSans-32" transform="translate(225.769531 -16.390625) scale(0.7)"/>
      <use xlink:href="#DejaVuSans-31" transform="translate(270.305664 -16.390625) scale(0.7)"/>
      <use xlink:href="#DejaVuSans-29" transform="translate(317.576172 0.015625)"/>
      <use xlink:href="#DejaVuSans-20" transform="translate(356.589844 0.015625)"/>
      <use xlink:href="#DejaVuSans-5b" transform="translate(388.376953 0.015625)"/>
      <use xlink:href="#DejaVuSans-6d" transform="translate(427.390625 0.015625)"/>
      <use xlink:href="#DejaVuSans-56" transform="translate(524.802734 0.015625)"/>
      <use xlink:href="#DejaVuSans-5d" transform="translate(593.210938 0.015625)"/>
     </g>
    </g>
   </g>
   <g id="line2d_19">
    <path d="M 60.443665 192.410182 
L 62.075095 192.601259 
L 63.706525 192.989238 
L 65.337954 193.656404 
L 66.969384 194.561408 
L 68.600814 195.635143 
L 70.232244 196.977014 
L 71.863674 198.52046 
L 73.495104 200.263151 
L 76.757964 204.41097 
L 78.389393 206.736629 
L 81.652253 211.955759 
L 84.915113 217.716814 
L 88.177973 224.07189 
L 91.440832 230.751751 
L 101.229412 252.161338 
L 106.123701 262.804862 
L 109.386561 269.601403 
L 112.649421 276.013709 
L 115.912281 281.876364 
L 119.17514 287.241365 
L 122.438 291.868254 
L 124.06943 293.907287 
L 125.70086 295.720668 
L 127.33229 297.338146 
L 128.96372 298.772669 
L 132.226579 300.934068 
L 135.489439 302.120106 
L 137.120869 302.373818 
L 138.752299 302.345636 
L 140.383729 302.138629 
L 142.015159 301.666191 
L 143.646588 300.974995 
L 145.278018 300.019226 
L 146.909448 298.886224 
L 148.540878 297.47502 
L 150.172308 295.873889 
L 151.803738 294.097712 
L 153.435168 292.069163 
L 156.698027 287.444515 
L 159.960887 282.132633 
L 163.223747 276.219272 
L 166.486607 269.8326 
L 169.749467 263.021519 
L 174.643756 252.397595 
L 184.432335 230.993455 
L 187.695195 224.2689 
L 190.958055 218.035255 
L 194.220915 212.220353 
L 197.483774 207.110539 
L 200.746634 202.686627 
L 204.009494 199.059151 
L 205.640924 197.586701 
L 207.272354 196.33216 
L 208.903784 195.278032 
L 210.535213 194.464819 
L 212.166643 193.909499 
L 213.798073 193.573003 
L 215.429503 193.498123 
L 217.060933 193.600964 
L 218.692363 194.054573 
L 220.323793 194.681683 
L 221.955223 195.547169 
L 223.586652 196.65575 
L 225.218082 197.951653 
L 228.480942 201.263211 
L 230.112372 203.233839 
L 231.743802 205.388894 
L 235.006662 210.230833 
L 238.269521 215.824076 
L 241.532381 221.938513 
L 244.795241 228.487238 
L 249.68953 238.873239 
L 261.10954 263.670707 
L 264.372399 270.324109 
L 267.635259 276.555845 
L 270.898119 282.197649 
L 274.160979 287.216383 
L 275.792408 289.467521 
L 277.423838 291.50639 
L 279.055268 293.353022 
L 280.686698 294.955213 
L 282.318128 296.356138 
L 283.949558 297.53336 
L 285.580988 298.479411 
L 287.212418 299.21485 
L 288.843848 299.676947 
L 290.475277 299.890232 
L 292.106707 299.900892 
L 293.738137 299.591607 
L 295.369567 299.072596 
L 297.000997 298.309386 
L 298.632427 297.310159 
L 300.263857 296.051212 
L 301.895287 294.616404 
L 303.526716 292.902944 
L 305.158146 291.025669 
L 308.421006 286.679948 
L 311.683866 281.488949 
L 314.946726 275.590295 
L 318.209585 269.179143 
L 323.103875 259.051349 
L 334.523884 234.153323 
L 339.418174 224.386769 
L 342.681033 218.442955 
L 344.312463 215.806746 
L 345.943893 213.41179 
L 347.575323 211.2304 
L 349.206753 209.279455 
L 350.838183 207.575689 
L 352.469613 206.164641 
L 354.101043 205.026076 
L 355.732472 204.171915 
L 357.363902 203.548422 
L 358.995332 203.411284 
L 362.258192 204.086096 
L 363.889622 204.767301 
L 367.152482 206.752373 
L 368.783911 208.133409 
L 370.415341 209.702718 
L 373.678201 213.7836 
L 380.203921 223.81785 
L 381.83535 226.512486 
L 383.46678 229.671655 
L 385.09821 232.411888 
L 385.09821 232.411888 
" clip-path="url(#p581cd58b9c)" style="fill: none; stroke: #1f77b4; stroke-width: 1.5; stroke-linecap: square"/>
    <g clip-path="url(#p581cd58b9c)">
     <use xlink:href="#mbd0b8a403d" x="60.443665" y="192.410182" style="fill: #1f77b4; stroke: #1f77b4"/>
     <use xlink:href="#mbd0b8a403d" x="62.075095" y="192.601259" style="fill: #1f77b4; stroke: #1f77b4"/>
     <use xlink:href="#mbd0b8a403d" x="63.706525" y="192.989238" style="fill: #1f77b4; stroke: #1f77b4"/>
     <use xlink:href="#mbd0b8a403d" x="65.337954" y="193.656404" style="fill: #1f77b4; stroke: #1f77b4"/>
     <use xlink:href="#mbd0b8a403d" x="66.969384" y="194.561408" style="fill: #1f77b4; stroke: #1f77b4"/>
     <use xlink:href="#mbd0b8a403d" x="68.600814" y="195.635143" style="fill: #1f77b4; stroke: #1f77b4"/>
     <use xlink:href="#mbd0b8a403d" x="70.232244" y="196.977014" style="fill: #1f77b4; stroke: #1f77b4"/>
     <use xlink:href="#mbd0b8a403d" x="71.863674" y="198.52046" style="fill: #1f77b4; stroke: #1f77b4"/>
     <use xlink:href="#mbd0b8a403d" x="73.495104" y="200.263151" style="fill: #1f77b4; stroke: #1f77b4"/>
     <use xlink:href="#mbd0b8a403d" x="75.126534" y="202.269606" style="fill: #1f77b4; stroke: #1f77b4"/>
     <use xlink:href="#mbd0b8a403d" x="76.757964" y="204.41097" style="fill: #1f77b4; stroke: #1f77b4"/>
     <use xlink:href="#mbd0b8a403d" x="78.389393" y="206.736629" style="fill: #1f77b4; stroke: #1f77b4"/>
     <use xlink:href="#mbd0b8a403d" x="80.020823" y="209.279742" style="fill: #1f77b4; stroke: #1f77b4"/>
     <use xlink:href="#mbd0b8a403d" x="81.652253" y="211.955759" style="fill: #1f77b4; stroke: #1f77b4"/>
     <use xlink:href="#mbd0b8a403d" x="83.283683" y="214.777945" style="fill: #1f77b4; stroke: #1f77b4"/>
     <use xlink:href="#mbd0b8a403d" x="84.915113" y="217.716814" style="fill: #1f77b4; stroke: #1f77b4"/>
     <use xlink:href="#mbd0b8a403d" x="86.546543" y="220.838446" style="fill: #1f77b4; stroke: #1f77b4"/>
     <use xlink:href="#mbd0b8a403d" x="88.177973" y="224.07189" style="fill: #1f77b4; stroke: #1f77b4"/>
     <use xlink:href="#mbd0b8a403d" x="89.809403" y="227.383494" style="fill: #1f77b4; stroke: #1f77b4"/>
     <use xlink:href="#mbd0b8a403d" x="91.440832" y="230.751751" style="fill: #1f77b4; stroke: #1f77b4"/>
     <use xlink:href="#mbd0b8a403d" x="93.072262" y="234.280843" style="fill: #1f77b4; stroke: #1f77b4"/>
     <use xlink:href="#mbd0b8a403d" x="94.703692" y="237.753844" style="fill: #1f77b4; stroke: #1f77b4"/>
     <use xlink:href="#mbd0b8a403d" x="96.335122" y="241.338054" style="fill: #1f77b4; stroke: #1f77b4"/>
     <use xlink:href="#mbd0b8a403d" x="97.966552" y="244.94097" style="fill: #1f77b4; stroke: #1f77b4"/>
     <use xlink:href="#mbd0b8a403d" x="99.597982" y="248.572629" style="fill: #1f77b4; stroke: #1f77b4"/>
     <use xlink:href="#mbd0b8a403d" x="101.229412" y="252.161338" style="fill: #1f77b4; stroke: #1f77b4"/>
     <use xlink:href="#mbd0b8a403d" x="102.860842" y="255.769884" style="fill: #1f77b4; stroke: #1f77b4"/>
     <use xlink:href="#mbd0b8a403d" x="104.492271" y="259.312024" style="fill: #1f77b4; stroke: #1f77b4"/>
     <use xlink:href="#mbd0b8a403d" x="106.123701" y="262.804862" style="fill: #1f77b4; stroke: #1f77b4"/>
     <use xlink:href="#mbd0b8a403d" x="107.755131" y="266.245668" style="fill: #1f77b4; stroke: #1f77b4"/>
     <use xlink:href="#mbd0b8a403d" x="109.386561" y="269.601403" style="fill: #1f77b4; stroke: #1f77b4"/>
     <use xlink:href="#mbd0b8a403d" x="111.017991" y="272.863305" style="fill: #1f77b4; stroke: #1f77b4"/>
     <use xlink:href="#mbd0b8a403d" x="112.649421" y="276.013709" style="fill: #1f77b4; stroke: #1f77b4"/>
     <use xlink:href="#mbd0b8a403d" x="114.280851" y="279.036496" style="fill: #1f77b4; stroke: #1f77b4"/>
     <use xlink:href="#mbd0b8a403d" x="115.912281" y="281.876364" style="fill: #1f77b4; stroke: #1f77b4"/>
     <use xlink:href="#mbd0b8a403d" x="117.54371" y="284.645081" style="fill: #1f77b4; stroke: #1f77b4"/>
     <use xlink:href="#mbd0b8a403d" x="119.17514" y="287.241365" style="fill: #1f77b4; stroke: #1f77b4"/>
     <use xlink:href="#mbd0b8a403d" x="120.80657" y="289.643055" style="fill: #1f77b4; stroke: #1f77b4"/>
     <use xlink:href="#mbd0b8a403d" x="122.438" y="291.868254" style="fill: #1f77b4; stroke: #1f77b4"/>
     <use xlink:href="#mbd0b8a403d" x="124.06943" y="293.907287" style="fill: #1f77b4; stroke: #1f77b4"/>
     <use xlink:href="#mbd0b8a403d" x="125.70086" y="295.720668" style="fill: #1f77b4; stroke: #1f77b4"/>
     <use xlink:href="#mbd0b8a403d" x="127.33229" y="297.338146" style="fill: #1f77b4; stroke: #1f77b4"/>
     <use xlink:href="#mbd0b8a403d" x="128.96372" y="298.772669" style="fill: #1f77b4; stroke: #1f77b4"/>
     <use xlink:href="#mbd0b8a403d" x="130.595149" y="299.918161" style="fill: #1f77b4; stroke: #1f77b4"/>
     <use xlink:href="#mbd0b8a403d" x="132.226579" y="300.934068" style="fill: #1f77b4; stroke: #1f77b4"/>
     <use xlink:href="#mbd0b8a403d" x="133.858009" y="301.581791" style="fill: #1f77b4; stroke: #1f77b4"/>
     <use xlink:href="#mbd0b8a403d" x="135.489439" y="302.120106" style="fill: #1f77b4; stroke: #1f77b4"/>
     <use xlink:href="#mbd0b8a403d" x="137.120869" y="302.373818" style="fill: #1f77b4; stroke: #1f77b4"/>
     <use xlink:href="#mbd0b8a403d" x="138.752299" y="302.345636" style="fill: #1f77b4; stroke: #1f77b4"/>
     <use xlink:href="#mbd0b8a403d" x="140.383729" y="302.138629" style="fill: #1f77b4; stroke: #1f77b4"/>
     <use xlink:href="#mbd0b8a403d" x="142.015159" y="301.666191" style="fill: #1f77b4; stroke: #1f77b4"/>
     <use xlink:href="#mbd0b8a403d" x="143.646588" y="300.974995" style="fill: #1f77b4; stroke: #1f77b4"/>
     <use xlink:href="#mbd0b8a403d" x="145.278018" y="300.019226" style="fill: #1f77b4; stroke: #1f77b4"/>
     <use xlink:href="#mbd0b8a403d" x="146.909448" y="298.886224" style="fill: #1f77b4; stroke: #1f77b4"/>
     <use xlink:href="#mbd0b8a403d" x="148.540878" y="297.47502" style="fill: #1f77b4; stroke: #1f77b4"/>
     <use xlink:href="#mbd0b8a403d" x="150.172308" y="295.873889" style="fill: #1f77b4; stroke: #1f77b4"/>
     <use xlink:href="#mbd0b8a403d" x="151.803738" y="294.097712" style="fill: #1f77b4; stroke: #1f77b4"/>
     <use xlink:href="#mbd0b8a403d" x="153.435168" y="292.069163" style="fill: #1f77b4; stroke: #1f77b4"/>
     <use xlink:href="#mbd0b8a403d" x="155.066598" y="289.814475" style="fill: #1f77b4; stroke: #1f77b4"/>
     <use xlink:href="#mbd0b8a403d" x="156.698027" y="287.444515" style="fill: #1f77b4; stroke: #1f77b4"/>
     <use xlink:href="#mbd0b8a403d" x="158.329457" y="284.862197" style="fill: #1f77b4; stroke: #1f77b4"/>
     <use xlink:href="#mbd0b8a403d" x="159.960887" y="282.132633" style="fill: #1f77b4; stroke: #1f77b4"/>
     <use xlink:href="#mbd0b8a403d" x="161.592317" y="279.266846" style="fill: #1f77b4; stroke: #1f77b4"/>
     <use xlink:href="#mbd0b8a403d" x="163.223747" y="276.219272" style="fill: #1f77b4; stroke: #1f77b4"/>
     <use xlink:href="#mbd0b8a403d" x="164.855177" y="273.11524" style="fill: #1f77b4; stroke: #1f77b4"/>
     <use xlink:href="#mbd0b8a403d" x="166.486607" y="269.8326" style="fill: #1f77b4; stroke: #1f77b4"/>
     <use xlink:href="#mbd0b8a403d" x="168.118037" y="266.492558" style="fill: #1f77b4; stroke: #1f77b4"/>
     <use xlink:href="#mbd0b8a403d" x="169.749467" y="263.021519" style="fill: #1f77b4; stroke: #1f77b4"/>
     <use xlink:href="#mbd0b8a403d" x="171.380896" y="259.545039" style="fill: #1f77b4; stroke: #1f77b4"/>
     <use xlink:href="#mbd0b8a403d" x="173.012326" y="256.013375" style="fill: #1f77b4; stroke: #1f77b4"/>
     <use xlink:href="#mbd0b8a403d" x="174.643756" y="252.397595" style="fill: #1f77b4; stroke: #1f77b4"/>
     <use xlink:href="#mbd0b8a403d" x="176.275186" y="248.80002" style="fill: #1f77b4; stroke: #1f77b4"/>
     <use xlink:href="#mbd0b8a403d" x="177.906616" y="245.197461" style="fill: #1f77b4; stroke: #1f77b4"/>
     <use xlink:href="#mbd0b8a403d" x="179.538046" y="241.555454" style="fill: #1f77b4; stroke: #1f77b4"/>
     <use xlink:href="#mbd0b8a403d" x="181.169476" y="237.998829" style="fill: #1f77b4; stroke: #1f77b4"/>
     <use xlink:href="#mbd0b8a403d" x="182.800906" y="234.474441" style="fill: #1f77b4; stroke: #1f77b4"/>
     <use xlink:href="#mbd0b8a403d" x="184.432335" y="230.993455" style="fill: #1f77b4; stroke: #1f77b4"/>
     <use xlink:href="#mbd0b8a403d" x="186.063765" y="227.583961" style="fill: #1f77b4; stroke: #1f77b4"/>
     <use xlink:href="#mbd0b8a403d" x="187.695195" y="224.2689" style="fill: #1f77b4; stroke: #1f77b4"/>
     <use xlink:href="#mbd0b8a403d" x="189.326625" y="221.110549" style="fill: #1f77b4; stroke: #1f77b4"/>
     <use xlink:href="#mbd0b8a403d" x="190.958055" y="218.035255" style="fill: #1f77b4; stroke: #1f77b4"/>
     <use xlink:href="#mbd0b8a403d" x="192.589485" y="215.071179" style="fill: #1f77b4; stroke: #1f77b4"/>
     <use xlink:href="#mbd0b8a403d" x="194.220915" y="212.220353" style="fill: #1f77b4; stroke: #1f77b4"/>
     <use xlink:href="#mbd0b8a403d" x="195.852345" y="209.617108" style="fill: #1f77b4; stroke: #1f77b4"/>
     <use xlink:href="#mbd0b8a403d" x="197.483774" y="207.110539" style="fill: #1f77b4; stroke: #1f77b4"/>
     <use xlink:href="#mbd0b8a403d" x="199.115204" y="204.805979" style="fill: #1f77b4; stroke: #1f77b4"/>
     <use xlink:href="#mbd0b8a403d" x="200.746634" y="202.686627" style="fill: #1f77b4; stroke: #1f77b4"/>
     <use xlink:href="#mbd0b8a403d" x="202.378064" y="200.803251" style="fill: #1f77b4; stroke: #1f77b4"/>
     <use xlink:href="#mbd0b8a403d" x="204.009494" y="199.059151" style="fill: #1f77b4; stroke: #1f77b4"/>
     <use xlink:href="#mbd0b8a403d" x="205.640924" y="197.586701" style="fill: #1f77b4; stroke: #1f77b4"/>
     <use xlink:href="#mbd0b8a403d" x="207.272354" y="196.33216" style="fill: #1f77b4; stroke: #1f77b4"/>
     <use xlink:href="#mbd0b8a403d" x="208.903784" y="195.278032" style="fill: #1f77b4; stroke: #1f77b4"/>
     <use xlink:href="#mbd0b8a403d" x="210.535213" y="194.464819" style="fill: #1f77b4; stroke: #1f77b4"/>
     <use xlink:href="#mbd0b8a403d" x="212.166643" y="193.909499" style="fill: #1f77b4; stroke: #1f77b4"/>
     <use xlink:href="#mbd0b8a403d" x="213.798073" y="193.573003" style="fill: #1f77b4; stroke: #1f77b4"/>
     <use xlink:href="#mbd0b8a403d" x="215.429503" y="193.498123" style="fill: #1f77b4; stroke: #1f77b4"/>
     <use xlink:href="#mbd0b8a403d" x="217.060933" y="193.600964" style="fill: #1f77b4; stroke: #1f77b4"/>
     <use xlink:href="#mbd0b8a403d" x="218.692363" y="194.054573" style="fill: #1f77b4; stroke: #1f77b4"/>
     <use xlink:href="#mbd0b8a403d" x="220.323793" y="194.681683" style="fill: #1f77b4; stroke: #1f77b4"/>
     <use xlink:href="#mbd0b8a403d" x="221.955223" y="195.547169" style="fill: #1f77b4; stroke: #1f77b4"/>
     <use xlink:href="#mbd0b8a403d" x="223.586652" y="196.65575" style="fill: #1f77b4; stroke: #1f77b4"/>
     <use xlink:href="#mbd0b8a403d" x="225.218082" y="197.951653" style="fill: #1f77b4; stroke: #1f77b4"/>
     <use xlink:href="#mbd0b8a403d" x="226.849512" y="199.530227" style="fill: #1f77b4; stroke: #1f77b4"/>
     <use xlink:href="#mbd0b8a403d" x="228.480942" y="201.263211" style="fill: #1f77b4; stroke: #1f77b4"/>
     <use xlink:href="#mbd0b8a403d" x="230.112372" y="203.233839" style="fill: #1f77b4; stroke: #1f77b4"/>
     <use xlink:href="#mbd0b8a403d" x="231.743802" y="205.388894" style="fill: #1f77b4; stroke: #1f77b4"/>
     <use xlink:href="#mbd0b8a403d" x="233.375232" y="207.745116" style="fill: #1f77b4; stroke: #1f77b4"/>
     <use xlink:href="#mbd0b8a403d" x="235.006662" y="210.230833" style="fill: #1f77b4; stroke: #1f77b4"/>
     <use xlink:href="#mbd0b8a403d" x="236.638091" y="212.99779" style="fill: #1f77b4; stroke: #1f77b4"/>
     <use xlink:href="#mbd0b8a403d" x="238.269521" y="215.824076" style="fill: #1f77b4; stroke: #1f77b4"/>
     <use xlink:href="#mbd0b8a403d" x="239.900951" y="218.841821" style="fill: #1f77b4; stroke: #1f77b4"/>
     <use xlink:href="#mbd0b8a403d" x="241.532381" y="221.938513" style="fill: #1f77b4; stroke: #1f77b4"/>
     <use xlink:href="#mbd0b8a403d" x="243.163811" y="225.148215" style="fill: #1f77b4; stroke: #1f77b4"/>
     <use xlink:href="#mbd0b8a403d" x="244.795241" y="228.487238" style="fill: #1f77b4; stroke: #1f77b4"/>
     <use xlink:href="#mbd0b8a403d" x="246.426671" y="231.886952" style="fill: #1f77b4; stroke: #1f77b4"/>
     <use xlink:href="#mbd0b8a403d" x="248.058101" y="235.390634" style="fill: #1f77b4; stroke: #1f77b4"/>
     <use xlink:href="#mbd0b8a403d" x="249.68953" y="238.873239" style="fill: #1f77b4; stroke: #1f77b4"/>
     <use xlink:href="#mbd0b8a403d" x="251.32096" y="242.44991" style="fill: #1f77b4; stroke: #1f77b4"/>
     <use xlink:href="#mbd0b8a403d" x="252.95239" y="246.055529" style="fill: #1f77b4; stroke: #1f77b4"/>
     <use xlink:href="#mbd0b8a403d" x="254.58382" y="249.60012" style="fill: #1f77b4; stroke: #1f77b4"/>
     <use xlink:href="#mbd0b8a403d" x="256.21525" y="253.179037" style="fill: #1f77b4; stroke: #1f77b4"/>
     <use xlink:href="#mbd0b8a403d" x="257.84668" y="256.748385" style="fill: #1f77b4; stroke: #1f77b4"/>
     <use xlink:href="#mbd0b8a403d" x="259.47811" y="260.239684" style="fill: #1f77b4; stroke: #1f77b4"/>
     <use xlink:href="#mbd0b8a403d" x="261.10954" y="263.670707" style="fill: #1f77b4; stroke: #1f77b4"/>
     <use xlink:href="#mbd0b8a403d" x="262.740969" y="267.046938" style="fill: #1f77b4; stroke: #1f77b4"/>
     <use xlink:href="#mbd0b8a403d" x="264.372399" y="270.324109" style="fill: #1f77b4; stroke: #1f77b4"/>
     <use xlink:href="#mbd0b8a403d" x="266.003829" y="273.49655" style="fill: #1f77b4; stroke: #1f77b4"/>
     <use xlink:href="#mbd0b8a403d" x="267.635259" y="276.555845" style="fill: #1f77b4; stroke: #1f77b4"/>
     <use xlink:href="#mbd0b8a403d" x="269.266689" y="279.402413" style="fill: #1f77b4; stroke: #1f77b4"/>
     <use xlink:href="#mbd0b8a403d" x="270.898119" y="282.197649" style="fill: #1f77b4; stroke: #1f77b4"/>
     <use xlink:href="#mbd0b8a403d" x="272.529549" y="284.78195" style="fill: #1f77b4; stroke: #1f77b4"/>
     <use xlink:href="#mbd0b8a403d" x="274.160979" y="287.216383" style="fill: #1f77b4; stroke: #1f77b4"/>
     <use xlink:href="#mbd0b8a403d" x="275.792408" y="289.467521" style="fill: #1f77b4; stroke: #1f77b4"/>
     <use xlink:href="#mbd0b8a403d" x="277.423838" y="291.50639" style="fill: #1f77b4; stroke: #1f77b4"/>
     <use xlink:href="#mbd0b8a403d" x="279.055268" y="293.353022" style="fill: #1f77b4; stroke: #1f77b4"/>
     <use xlink:href="#mbd0b8a403d" x="280.686698" y="294.955213" style="fill: #1f77b4; stroke: #1f77b4"/>
     <use xlink:href="#mbd0b8a403d" x="282.318128" y="296.356138" style="fill: #1f77b4; stroke: #1f77b4"/>
     <use xlink:href="#mbd0b8a403d" x="283.949558" y="297.53336" style="fill: #1f77b4; stroke: #1f77b4"/>
     <use xlink:href="#mbd0b8a403d" x="285.580988" y="298.479411" style="fill: #1f77b4; stroke: #1f77b4"/>
     <use xlink:href="#mbd0b8a403d" x="287.212418" y="299.21485" style="fill: #1f77b4; stroke: #1f77b4"/>
     <use xlink:href="#mbd0b8a403d" x="288.843848" y="299.676947" style="fill: #1f77b4; stroke: #1f77b4"/>
     <use xlink:href="#mbd0b8a403d" x="290.475277" y="299.890232" style="fill: #1f77b4; stroke: #1f77b4"/>
     <use xlink:href="#mbd0b8a403d" x="292.106707" y="299.900892" style="fill: #1f77b4; stroke: #1f77b4"/>
     <use xlink:href="#mbd0b8a403d" x="293.738137" y="299.591607" style="fill: #1f77b4; stroke: #1f77b4"/>
     <use xlink:href="#mbd0b8a403d" x="295.369567" y="299.072596" style="fill: #1f77b4; stroke: #1f77b4"/>
     <use xlink:href="#mbd0b8a403d" x="297.000997" y="298.309386" style="fill: #1f77b4; stroke: #1f77b4"/>
     <use xlink:href="#mbd0b8a403d" x="298.632427" y="297.310159" style="fill: #1f77b4; stroke: #1f77b4"/>
     <use xlink:href="#mbd0b8a403d" x="300.263857" y="296.051212" style="fill: #1f77b4; stroke: #1f77b4"/>
     <use xlink:href="#mbd0b8a403d" x="301.895287" y="294.616404" style="fill: #1f77b4; stroke: #1f77b4"/>
     <use xlink:href="#mbd0b8a403d" x="303.526716" y="292.902944" style="fill: #1f77b4; stroke: #1f77b4"/>
     <use xlink:href="#mbd0b8a403d" x="305.158146" y="291.025669" style="fill: #1f77b4; stroke: #1f77b4"/>
     <use xlink:href="#mbd0b8a403d" x="306.789576" y="288.919423" style="fill: #1f77b4; stroke: #1f77b4"/>
     <use xlink:href="#mbd0b8a403d" x="308.421006" y="286.679948" style="fill: #1f77b4; stroke: #1f77b4"/>
     <use xlink:href="#mbd0b8a403d" x="310.052436" y="284.120805" style="fill: #1f77b4; stroke: #1f77b4"/>
     <use xlink:href="#mbd0b8a403d" x="311.683866" y="281.488949" style="fill: #1f77b4; stroke: #1f77b4"/>
     <use xlink:href="#mbd0b8a403d" x="313.315296" y="278.65006" style="fill: #1f77b4; stroke: #1f77b4"/>
     <use xlink:href="#mbd0b8a403d" x="314.946726" y="275.590295" style="fill: #1f77b4; stroke: #1f77b4"/>
     <use xlink:href="#mbd0b8a403d" x="316.578155" y="272.461148" style="fill: #1f77b4; stroke: #1f77b4"/>
     <use xlink:href="#mbd0b8a403d" x="318.209585" y="269.179143" style="fill: #1f77b4; stroke: #1f77b4"/>
     <use xlink:href="#mbd0b8a403d" x="319.841015" y="265.872301" style="fill: #1f77b4; stroke: #1f77b4"/>
     <use xlink:href="#mbd0b8a403d" x="321.472445" y="262.398669" style="fill: #1f77b4; stroke: #1f77b4"/>
     <use xlink:href="#mbd0b8a403d" x="323.103875" y="259.051349" style="fill: #1f77b4; stroke: #1f77b4"/>
     <use xlink:href="#mbd0b8a403d" x="324.735305" y="255.472762" style="fill: #1f77b4; stroke: #1f77b4"/>
     <use xlink:href="#mbd0b8a403d" x="326.366735" y="251.783275" style="fill: #1f77b4; stroke: #1f77b4"/>
     <use xlink:href="#mbd0b8a403d" x="327.998165" y="248.201" style="fill: #1f77b4; stroke: #1f77b4"/>
     <use xlink:href="#mbd0b8a403d" x="329.629594" y="244.721106" style="fill: #1f77b4; stroke: #1f77b4"/>
     <use xlink:href="#mbd0b8a403d" x="331.261024" y="241.083827" style="fill: #1f77b4; stroke: #1f77b4"/>
     <use xlink:href="#mbd0b8a403d" x="332.892454" y="237.776316" style="fill: #1f77b4; stroke: #1f77b4"/>
     <use xlink:href="#mbd0b8a403d" x="334.523884" y="234.153323" style="fill: #1f77b4; stroke: #1f77b4"/>
     <use xlink:href="#mbd0b8a403d" x="336.155314" y="230.882532" style="fill: #1f77b4; stroke: #1f77b4"/>
     <use xlink:href="#mbd0b8a403d" x="337.786744" y="227.617142" style="fill: #1f77b4; stroke: #1f77b4"/>
     <use xlink:href="#mbd0b8a403d" x="339.418174" y="224.386769" style="fill: #1f77b4; stroke: #1f77b4"/>
     <use xlink:href="#mbd0b8a403d" x="341.049604" y="221.319335" style="fill: #1f77b4; stroke: #1f77b4"/>
     <use xlink:href="#mbd0b8a403d" x="342.681033" y="218.442955" style="fill: #1f77b4; stroke: #1f77b4"/>
     <use xlink:href="#mbd0b8a403d" x="344.312463" y="215.806746" style="fill: #1f77b4; stroke: #1f77b4"/>
     <use xlink:href="#mbd0b8a403d" x="345.943893" y="213.41179" style="fill: #1f77b4; stroke: #1f77b4"/>
     <use xlink:href="#mbd0b8a403d" x="347.575323" y="211.2304" style="fill: #1f77b4; stroke: #1f77b4"/>
     <use xlink:href="#mbd0b8a403d" x="349.206753" y="209.279455" style="fill: #1f77b4; stroke: #1f77b4"/>
     <use xlink:href="#mbd0b8a403d" x="350.838183" y="207.575689" style="fill: #1f77b4; stroke: #1f77b4"/>
     <use xlink:href="#mbd0b8a403d" x="352.469613" y="206.164641" style="fill: #1f77b4; stroke: #1f77b4"/>
     <use xlink:href="#mbd0b8a403d" x="354.101043" y="205.026076" style="fill: #1f77b4; stroke: #1f77b4"/>
     <use xlink:href="#mbd0b8a403d" x="355.732472" y="204.171915" style="fill: #1f77b4; stroke: #1f77b4"/>
     <use xlink:href="#mbd0b8a403d" x="357.363902" y="203.548422" style="fill: #1f77b4; stroke: #1f77b4"/>
     <use xlink:href="#mbd0b8a403d" x="358.995332" y="203.411284" style="fill: #1f77b4; stroke: #1f77b4"/>
     <use xlink:href="#mbd0b8a403d" x="360.626762" y="203.737669" style="fill: #1f77b4; stroke: #1f77b4"/>
     <use xlink:href="#mbd0b8a403d" x="362.258192" y="204.086096" style="fill: #1f77b4; stroke: #1f77b4"/>
     <use xlink:href="#mbd0b8a403d" x="363.889622" y="204.767301" style="fill: #1f77b4; stroke: #1f77b4"/>
     <use xlink:href="#mbd0b8a403d" x="365.521052" y="205.707062" style="fill: #1f77b4; stroke: #1f77b4"/>
     <use xlink:href="#mbd0b8a403d" x="367.152482" y="206.752373" style="fill: #1f77b4; stroke: #1f77b4"/>
     <use xlink:href="#mbd0b8a403d" x="368.783911" y="208.133409" style="fill: #1f77b4; stroke: #1f77b4"/>
     <use xlink:href="#mbd0b8a403d" x="370.415341" y="209.702718" style="fill: #1f77b4; stroke: #1f77b4"/>
     <use xlink:href="#mbd0b8a403d" x="372.046771" y="211.714998" style="fill: #1f77b4; stroke: #1f77b4"/>
     <use xlink:href="#mbd0b8a403d" x="373.678201" y="213.7836" style="fill: #1f77b4; stroke: #1f77b4"/>
     <use xlink:href="#mbd0b8a403d" x="375.309631" y="216.252087" style="fill: #1f77b4; stroke: #1f77b4"/>
     <use xlink:href="#mbd0b8a403d" x="376.941061" y="218.769077" style="fill: #1f77b4; stroke: #1f77b4"/>
     <use xlink:href="#mbd0b8a403d" x="378.572491" y="221.133934" style="fill: #1f77b4; stroke: #1f77b4"/>
     <use xlink:href="#mbd0b8a403d" x="380.203921" y="223.81785" style="fill: #1f77b4; stroke: #1f77b4"/>
     <use xlink:href="#mbd0b8a403d" x="381.83535" y="226.512486" style="fill: #1f77b4; stroke: #1f77b4"/>
     <use xlink:href="#mbd0b8a403d" x="383.46678" y="229.671655" style="fill: #1f77b4; stroke: #1f77b4"/>
     <use xlink:href="#mbd0b8a403d" x="385.09821" y="232.411888" style="fill: #1f77b4; stroke: #1f77b4"/>
    </g>
   </g>
   <g id="line2d_20">
    <path d="M 60.443665 194.328952 
L 62.068562 194.237148 
L 63.69346 194.381669 
L 65.318358 194.761904 
L 66.943255 195.376199 
L 68.568153 196.221861 
L 70.193051 197.295174 
L 72.142928 198.876923 
L 74.092805 200.769592 
L 76.042682 202.961155 
L 78.317539 205.877056 
L 80.592395 209.155502 
L 83.192232 213.309664 
L 86.117047 218.445949 
L 89.366842 224.640989 
L 93.266597 232.602888 
L 98.466269 243.779155 
L 108.215655 264.803707 
L 112.115409 272.633275 
L 115.365204 278.679005 
L 118.29002 283.652478 
L 120.889856 287.640929 
L 123.164713 290.759454 
L 125.43957 293.502723 
L 127.389447 295.537156 
L 129.339324 297.265135 
L 131.289201 298.675529 
L 132.914099 299.601626 
L 134.538996 300.296654 
L 136.163894 300.757472 
L 137.788792 300.981977 
L 139.413689 300.969116 
L 141.038587 300.71889 
L 142.663485 300.232354 
L 144.288382 299.511612 
L 145.91328 298.559811 
L 147.538177 297.381124 
L 149.488055 295.674578 
L 151.437932 293.65966 
L 153.387809 291.349176 
L 155.662666 288.299767 
L 157.937522 284.894587 
L 160.537358 280.605358 
L 163.462174 275.331546 
L 166.711969 269.004167 
L 170.611724 260.915587 
L 176.461355 248.203262 
L 184.260864 231.313707 
L 188.160618 223.383037 
L 191.410413 217.238184 
L 194.335229 212.166276 
L 196.935065 208.08475 
L 199.209922 204.881743 
L 201.484779 202.052267 
L 203.434656 199.943387 
L 205.384533 198.141166 
L 207.33441 196.657409 
L 208.959308 195.671325 
L 210.584205 194.917757 
L 212.209103 194.400208 
L 213.834001 194.121132 
L 215.458898 194.081916 
L 217.083796 194.282878 
L 218.708693 194.72326 
L 220.333591 195.401234 
L 221.958489 196.313904 
L 223.583386 197.457323 
L 225.533263 199.126924 
L 227.483141 201.111028 
L 229.433018 203.397051 
L 231.707874 206.426151 
L 233.982731 209.819994 
L 236.582567 214.107223 
L 239.507383 219.392435 
L 242.757178 225.748558 
L 246.656933 233.891771 
L 252.181585 245.997498 
L 260.306073 263.794044 
L 264.205827 271.81623 
L 267.455622 278.029177 
L 270.380438 283.151831 
L 272.980274 287.267152 
L 275.255131 290.488995 
L 277.529987 293.325631 
L 279.479865 295.430201 
L 281.429742 297.217512 
L 283.379619 298.674921 
L 285.004517 299.629754 
L 286.629414 300.343198 
L 288.254312 300.811401 
L 289.879209 301.031614 
L 291.504107 301.002215 
L 293.129005 300.722716 
L 294.753902 300.193779 
L 296.3788 299.417211 
L 298.003698 298.395973 
L 299.628595 297.134167 
L 301.578472 295.309905 
L 303.528349 293.15801 
L 305.478227 290.691941 
L 307.753083 287.438816 
L 310.02794 283.808079 
L 312.627776 279.237999 
L 315.552592 273.625393 
L 318.802387 266.904857 
L 323.027121 257.613901 
L 337.001241 226.342498 
L 340.251036 219.885207 
L 342.850872 215.183464 
L 345.125729 211.479794 
L 347.400585 208.216708 
L 349.350462 205.81054 
L 350.97536 204.105079 
L 352.600258 202.690231 
L 354.225155 201.58152 
L 355.525073 200.924215 
L 356.824992 200.477522 
L 358.12491 200.246163 
L 359.424828 200.233422 
L 360.724746 200.440871 
L 362.024664 200.86804 
L 363.324582 201.512062 
L 364.6245 202.367272 
L 366.249398 203.719426 
L 367.874295 205.362103 
L 369.824173 207.666473 
L 372.099029 210.709546 
L 380.223517 221.994157 
L 382.173395 224.126875 
L 383.798292 225.594178 
L 385.09821 226.555283 
L 385.09821 226.555283 
" clip-path="url(#p581cd58b9c)" style="fill: none; stroke: #d62728; stroke-width: 1.5; stroke-linecap: square"/>
   </g>
   <g id="patch_9">
    <path d="M 44.210938 307.872 
L 44.210938 186.912 
" style="fill: none; stroke: #000000; stroke-width: 0.8; stroke-linejoin: miter; stroke-linecap: square"/>
   </g>
   <g id="patch_10">
    <path d="M 401.330938 307.872 
L 401.330938 186.912 
" style="fill: none; stroke: #000000; stroke-width: 0.8; stroke-linejoin: miter; stroke-linecap: square"/>
   </g>
   <g id="patch_11">
    <path d="M 44.210937 307.872 
L 401.330937 307.872 
" style="fill: none; stroke: #000000; stroke-width: 0.8; stroke-linejoin: miter; stroke-linecap: square"/>
   </g>
   <g id="patch_12">
    <path d="M 44.210937 186.912 
L 401.330937 186.912 
" style="fill: none; stroke: #000000; stroke-width: 0.8; stroke-linejoin: miter; stroke-linecap: square"/>
   </g>
  </g>
  <g id="text_17">
   <!-- S21 One-tone -->
   <g transform="translate(175.76 16.318125) scale(0.12 -0.12)">
    <defs>
     <path id="DejaVuSans-4f" d="M 2522 4238 
Q 1834 4238 1429 3725 
Q 1025 3213 1025 2328 
Q 1025 1447 1429 934 
Q 1834 422 2522 422 
Q 3209 422 3611 934 
Q 4013 1447 4013 2328 
Q 4013 3213 3611 3725 
Q 3209 4238 2522 4238 
z
M 2522 4750 
Q 3503 4750 4090 4092 
Q 4678 3434 4678 2328 
Q 4678 1225 4090 567 
Q 3503 -91 2522 -91 
Q 1538 -91 948 565 
Q 359 1222 359 2328 
Q 359 3434 948 4092 
Q 1538 4750 2522 4750 
z
" transform="scale(0.015625)"/>
     <path id="DejaVuSans-74" d="M 1172 4494 
L 1172 3500 
L 2356 3500 
L 2356 3053 
L 1172 3053 
L 1172 1153 
Q 1172 725 1289 603 
Q 1406 481 1766 481 
L 2356 481 
L 2356 0 
L 1766 0 
Q 1100 0 847 248 
Q 594 497 594 1153 
L 594 3053 
L 172 3053 
L 172 3500 
L 594 3500 
L 594 4494 
L 1172 4494 
z
" transform="scale(0.015625)"/>
     <path id="DejaVuSans-6f" d="M 1959 3097 
Q 1497 3097 1228 2736 
Q 959 2375 959 1747 
Q 959 1119 1226 758 
Q 1494 397 1959 397 
Q 2419 397 2687 759 
Q 2956 1122 2956 1747 
Q 2956 2369 2687 2733 
Q 2419 3097 1959 3097 
z
M 1959 3584 
Q 2709 3584 3137 3096 
Q 3566 2609 3566 1747 
Q 3566 888 3137 398 
Q 2709 -91 1959 -91 
Q 1206 -91 779 398 
Q 353 888 353 1747 
Q 353 2609 779 3096 
Q 1206 3584 1959 3584 
z
" transform="scale(0.015625)"/>
    </defs>
    <use xlink:href="#DejaVuSans-53"/>
    <use xlink:href="#DejaVuSans-32" x="63.476562"/>
    <use xlink:href="#DejaVuSans-31" x="127.099609"/>
    <use xlink:href="#DejaVuSans-20" x="190.722656"/>
    <use xlink:href="#DejaVuSans-4f" x="222.509766"/>
    <use xlink:href="#DejaVuSans-6e" x="301.220703"/>
    <use xlink:href="#DejaVuSans-65" x="364.599609"/>
    <use xlink:href="#DejaVuSans-2d" x="426.123047"/>
    <use xlink:href="#DejaVuSans-74" x="462.207031"/>
    <use xlink:href="#DejaVuSans-6f" x="501.416016"/>
    <use xlink:href="#DejaVuSans-6e" x="562.597656"/>
    <use xlink:href="#DejaVuSans-65" x="625.976562"/>
   </g>
   <!-- tuid: 20240221-085618-471-ba4c16 -->
   <g transform="translate(107.823125 29.7555) scale(0.12 -0.12)">
    <defs>
     <path id="DejaVuSans-69" d="M 603 3500 
L 1178 3500 
L 1178 0 
L 603 0 
L 603 3500 
z
M 603 4863 
L 1178 4863 
L 1178 4134 
L 603 4134 
L 603 4863 
z
" transform="scale(0.015625)"/>
     <path id="DejaVuSans-64" d="M 2906 2969 
L 2906 4863 
L 3481 4863 
L 3481 0 
L 2906 0 
L 2906 525 
Q 2725 213 2448 61 
Q 2172 -91 1784 -91 
Q 1150 -91 751 415 
Q 353 922 353 1747 
Q 353 2572 751 3078 
Q 1150 3584 1784 3584 
Q 2172 3584 2448 3432 
Q 2725 3281 2906 2969 
z
M 947 1747 
Q 947 1113 1208 752 
Q 1469 391 1925 391 
Q 2381 391 2643 752 
Q 2906 1113 2906 1747 
Q 2906 2381 2643 2742 
Q 2381 3103 1925 3103 
Q 1469 3103 1208 2742 
Q 947 2381 947 1747 
z
" transform="scale(0.015625)"/>
     <path id="DejaVuSans-37" d="M 525 4666 
L 3525 4666 
L 3525 4397 
L 1831 0 
L 1172 0 
L 2766 4134 
L 525 4134 
L 525 4666 
z
" transform="scale(0.015625)"/>
     <path id="DejaVuSans-62" d="M 3116 1747 
Q 3116 2381 2855 2742 
Q 2594 3103 2138 3103 
Q 1681 3103 1420 2742 
Q 1159 2381 1159 1747 
Q 1159 1113 1420 752 
Q 1681 391 2138 391 
Q 2594 391 2855 752 
Q 3116 1113 3116 1747 
z
M 1159 2969 
Q 1341 3281 1617 3432 
Q 1894 3584 2278 3584 
Q 2916 3584 3314 3078 
Q 3713 2572 3713 1747 
Q 3713 922 3314 415 
Q 2916 -91 2278 -91 
Q 1894 -91 1617 61 
Q 1341 213 1159 525 
L 1159 0 
L 581 0 
L 581 4863 
L 1159 4863 
L 1159 2969 
z
" transform="scale(0.015625)"/>
    </defs>
    <use xlink:href="#DejaVuSans-74"/>
    <use xlink:href="#DejaVuSans-75" x="39.208984"/>
    <use xlink:href="#DejaVuSans-69" x="102.587891"/>
    <use xlink:href="#DejaVuSans-64" x="130.371094"/>
    <use xlink:href="#DejaVuSans-3a" x="193.847656"/>
    <use xlink:href="#DejaVuSans-20" x="227.539062"/>
    <use xlink:href="#DejaVuSans-32" x="259.326172"/>
    <use xlink:href="#DejaVuSans-30" x="322.949219"/>
    <use xlink:href="#DejaVuSans-32" x="386.572266"/>
    <use xlink:href="#DejaVuSans-34" x="450.195312"/>
    <use xlink:href="#DejaVuSans-30" x="513.818359"/>
    <use xlink:href="#DejaVuSans-32" x="577.441406"/>
    <use xlink:href="#DejaVuSans-32" x="641.064453"/>
    <use xlink:href="#DejaVuSans-31" x="704.6875"/>
    <use xlink:href="#DejaVuSans-2d" x="768.310547"/>
    <use xlink:href="#DejaVuSans-30" x="804.394531"/>
    <use xlink:href="#DejaVuSans-38" x="868.017578"/>
    <use xlink:href="#DejaVuSans-35" x="931.640625"/>
    <use xlink:href="#DejaVuSans-36" x="995.263672"/>
    <use xlink:href="#DejaVuSans-31" x="1058.886719"/>
    <use xlink:href="#DejaVuSans-38" x="1122.509766"/>
    <use xlink:href="#DejaVuSans-2d" x="1186.132812"/>
    <use xlink:href="#DejaVuSans-34" x="1222.216797"/>
    <use xlink:href="#DejaVuSans-37" x="1285.839844"/>
    <use xlink:href="#DejaVuSans-31" x="1349.462891"/>
    <use xlink:href="#DejaVuSans-2d" x="1413.085938"/>
    <use xlink:href="#DejaVuSans-62" x="1449.169922"/>
    <use xlink:href="#DejaVuSans-61" x="1512.646484"/>
    <use xlink:href="#DejaVuSans-34" x="1573.925781"/>
    <use xlink:href="#DejaVuSans-63" x="1637.548828"/>
    <use xlink:href="#DejaVuSans-31" x="1692.529297"/>
    <use xlink:href="#DejaVuSans-36" x="1756.152344"/>
   </g>
  </g>
 </g>
 <defs>
  <clipPath id="pba8dc2be29">
   <rect x="44.210938" y="41.76" width="357.12" height="120.96"/>
  </clipPath>
  <clipPath id="p581cd58b9c">
   <rect x="44.210938" y="186.912" width="357.12" height="120.96"/>
  </clipPath>
 </defs>
</svg>
