<?xml version="1.0" encoding="utf-8" standalone="no"?>
<!DOCTYPE svg PUBLIC "-//W3C//DTD SVG 1.1//EN"
  "http://www.w3.org/Graphics/SVG/1.1/DTD/svg11.dtd">
<svg xmlns:xlink="http://www.w3.org/1999/xlink" width="580.13225pt" height="345.42825pt" viewBox="0 0 580.13225 345.42825" xmlns="http://www.w3.org/2000/svg" version="1.1">
 <metadata>
  <rdf:RDF xmlns:dc="http://purl.org/dc/elements/1.1/" xmlns:cc="http://creativecommons.org/ns#" xmlns:rdf="http://www.w3.org/1999/02/22-rdf-syntax-ns#">
   <cc:Work>
    <dc:type rdf:resource="http://purl.org/dc/dcmitype/StillImage"/>
    <dc:date>2024-02-22T16:52:35.818547</dc:date>
    <dc:format>image/svg+xml</dc:format>
    <dc:creator>
     <cc:Agent>
      <dc:title>Matplotlib v3.8.2, https://matplotlib.org/</dc:title>
     </cc:Agent>
    </dc:creator>
   </cc:Work>
  </rdf:RDF>
 </metadata>
 <defs>
  <style type="text/css">*{stroke-linejoin: round; stroke-linecap: butt}</style>
 </defs>
 <g id="figure_1">
  <g id="patch_1">
   <path d="M 0 345.42825 
L 580.13225 345.42825 
L 580.13225 -0 
L 0 -0 
L 0 345.42825 
z
" style="fill: none; opacity: 0"/>
  </g>
  <g id="axes_1">
   <g id="patch_2">
    <path d="M 37.848438 162.72 
L 394.968438 162.72 
L 394.968438 41.76 
L 37.848438 41.76 
z
" style="fill: #ffffff"/>
   </g>
   <g id="matplotlib.axis_1">
    <g id="xtick_1">
     <g id="line2d_1">
      <defs>
       <path id="mc40ea4549d" d="M 0 0 
L 0 3.5 
" style="stroke: #000000; stroke-width: 0.8"/>
      </defs>
      <g>
       <use xlink:href="#mc40ea4549d" x="86.546619" y="162.72" style="stroke: #000000; stroke-width: 0.8"/>
      </g>
     </g>
    </g>
    <g id="xtick_2">
     <g id="line2d_2">
      <g>
       <use xlink:href="#mc40ea4549d" x="151.477528" y="162.72" style="stroke: #000000; stroke-width: 0.8"/>
      </g>
     </g>
    </g>
    <g id="xtick_3">
     <g id="line2d_3">
      <g>
       <use xlink:href="#mc40ea4549d" x="216.408437" y="162.72" style="stroke: #000000; stroke-width: 0.8"/>
      </g>
     </g>
    </g>
    <g id="xtick_4">
     <g id="line2d_4">
      <g>
       <use xlink:href="#mc40ea4549d" x="281.339347" y="162.72" style="stroke: #000000; stroke-width: 0.8"/>
      </g>
     </g>
    </g>
    <g id="xtick_5">
     <g id="line2d_5">
      <g>
       <use xlink:href="#mc40ea4549d" x="346.270256" y="162.72" style="stroke: #000000; stroke-width: 0.8"/>
      </g>
     </g>
    </g>
   </g>
   <g id="matplotlib.axis_2">
    <g id="ytick_1">
     <g id="line2d_6">
      <defs>
       <path id="m0e7ecabb80" d="M 0 0 
L -3.5 0 
" style="stroke: #000000; stroke-width: 0.8"/>
      </defs>
      <g>
       <use xlink:href="#m0e7ecabb80" x="37.848438" y="157.673076" style="stroke: #000000; stroke-width: 0.8"/>
      </g>
     </g>
     <g id="text_1">
      <!-- -4 -->
      <g transform="translate(20.878125 161.472295) scale(0.1 -0.1)">
       <defs>
        <path id="DejaVuSans-2d" d="M 313 2009 
L 1997 2009 
L 1997 1497 
L 313 1497 
L 313 2009 
z
" transform="scale(0.015625)"/>
        <path id="DejaVuSans-34" d="M 2419 4116 
L 825 1625 
L 2419 1625 
L 2419 4116 
z
M 2253 4666 
L 3047 4666 
L 3047 1625 
L 3713 1625 
L 3713 1100 
L 3047 1100 
L 3047 0 
L 2419 0 
L 2419 1100 
L 313 1100 
L 313 1709 
L 2253 4666 
z
" transform="scale(0.015625)"/>
       </defs>
       <use xlink:href="#DejaVuSans-2d"/>
       <use xlink:href="#DejaVuSans-34" x="36.083984"/>
      </g>
     </g>
    </g>
    <g id="ytick_2">
     <g id="line2d_7">
      <g>
       <use xlink:href="#m0e7ecabb80" x="37.848438" y="129.249693" style="stroke: #000000; stroke-width: 0.8"/>
      </g>
     </g>
     <g id="text_2">
      <!-- -2 -->
      <g transform="translate(20.878125 133.048911) scale(0.1 -0.1)">
       <defs>
        <path id="DejaVuSans-32" d="M 1228 531 
L 3431 531 
L 3431 0 
L 469 0 
L 469 531 
Q 828 903 1448 1529 
Q 2069 2156 2228 2338 
Q 2531 2678 2651 2914 
Q 2772 3150 2772 3378 
Q 2772 3750 2511 3984 
Q 2250 4219 1831 4219 
Q 1534 4219 1204 4116 
Q 875 4013 500 3803 
L 500 4441 
Q 881 4594 1212 4672 
Q 1544 4750 1819 4750 
Q 2544 4750 2975 4387 
Q 3406 4025 3406 3419 
Q 3406 3131 3298 2873 
Q 3191 2616 2906 2266 
Q 2828 2175 2409 1742 
Q 1991 1309 1228 531 
z
" transform="scale(0.015625)"/>
       </defs>
       <use xlink:href="#DejaVuSans-2d"/>
       <use xlink:href="#DejaVuSans-32" x="36.083984"/>
      </g>
     </g>
    </g>
    <g id="ytick_3">
     <g id="line2d_8">
      <g>
       <use xlink:href="#m0e7ecabb80" x="37.848438" y="100.82631" style="stroke: #000000; stroke-width: 0.8"/>
      </g>
     </g>
     <g id="text_3">
      <!-- 0 -->
      <g transform="translate(24.485938 104.625528) scale(0.1 -0.1)">
       <defs>
        <path id="DejaVuSans-30" d="M 2034 4250 
Q 1547 4250 1301 3770 
Q 1056 3291 1056 2328 
Q 1056 1369 1301 889 
Q 1547 409 2034 409 
Q 2525 409 2770 889 
Q 3016 1369 3016 2328 
Q 3016 3291 2770 3770 
Q 2525 4250 2034 4250 
z
M 2034 4750 
Q 2819 4750 3233 4129 
Q 3647 3509 3647 2328 
Q 3647 1150 3233 529 
Q 2819 -91 2034 -91 
Q 1250 -91 836 529 
Q 422 1150 422 2328 
Q 422 3509 836 4129 
Q 1250 4750 2034 4750 
z
" transform="scale(0.015625)"/>
       </defs>
       <use xlink:href="#DejaVuSans-30"/>
      </g>
     </g>
    </g>
    <g id="ytick_4">
     <g id="line2d_9">
      <g>
       <use xlink:href="#m0e7ecabb80" x="37.848438" y="72.402926" style="stroke: #000000; stroke-width: 0.8"/>
      </g>
     </g>
     <g id="text_4">
      <!-- 2 -->
      <g transform="translate(24.485938 76.202145) scale(0.1 -0.1)">
       <use xlink:href="#DejaVuSans-32"/>
      </g>
     </g>
    </g>
    <g id="ytick_5">
     <g id="line2d_10">
      <g>
       <use xlink:href="#m0e7ecabb80" x="37.848438" y="43.979543" style="stroke: #000000; stroke-width: 0.8"/>
      </g>
     </g>
     <g id="text_5">
      <!-- 4 -->
      <g transform="translate(24.485938 47.778762) scale(0.1 -0.1)">
       <use xlink:href="#DejaVuSans-34"/>
      </g>
     </g>
    </g>
    <g id="text_6">
     <!-- Re$(S_{21})$ [mV] -->
     <g transform="translate(14.798438 134.24) rotate(-90) scale(0.1 -0.1)">
      <defs>
       <path id="DejaVuSans-52" d="M 2841 2188 
Q 3044 2119 3236 1894 
Q 3428 1669 3622 1275 
L 4263 0 
L 3584 0 
L 2988 1197 
Q 2756 1666 2539 1819 
Q 2322 1972 1947 1972 
L 1259 1972 
L 1259 0 
L 628 0 
L 628 4666 
L 2053 4666 
Q 2853 4666 3247 4331 
Q 3641 3997 3641 3322 
Q 3641 2881 3436 2590 
Q 3231 2300 2841 2188 
z
M 1259 4147 
L 1259 2491 
L 2053 2491 
Q 2509 2491 2742 2702 
Q 2975 2913 2975 3322 
Q 2975 3731 2742 3939 
Q 2509 4147 2053 4147 
L 1259 4147 
z
" transform="scale(0.015625)"/>
       <path id="DejaVuSans-65" d="M 3597 1894 
L 3597 1613 
L 953 1613 
Q 991 1019 1311 708 
Q 1631 397 2203 397 
Q 2534 397 2845 478 
Q 3156 559 3463 722 
L 3463 178 
Q 3153 47 2828 -22 
Q 2503 -91 2169 -91 
Q 1331 -91 842 396 
Q 353 884 353 1716 
Q 353 2575 817 3079 
Q 1281 3584 2069 3584 
Q 2775 3584 3186 3129 
Q 3597 2675 3597 1894 
z
M 3022 2063 
Q 3016 2534 2758 2815 
Q 2500 3097 2075 3097 
Q 1594 3097 1305 2825 
Q 1016 2553 972 2059 
L 3022 2063 
z
" transform="scale(0.015625)"/>
       <path id="DejaVuSans-28" d="M 1984 4856 
Q 1566 4138 1362 3434 
Q 1159 2731 1159 2009 
Q 1159 1288 1364 580 
Q 1569 -128 1984 -844 
L 1484 -844 
Q 1016 -109 783 600 
Q 550 1309 550 2009 
Q 550 2706 781 3412 
Q 1013 4119 1484 4856 
L 1984 4856 
z
" transform="scale(0.015625)"/>
       <path id="DejaVuSans-Oblique-53" d="M 3859 4513 
L 3738 3897 
Q 3422 4066 3111 4152 
Q 2800 4238 2509 4238 
Q 1944 4238 1609 3991 
Q 1275 3744 1275 3334 
Q 1275 3109 1398 2989 
Q 1522 2869 2034 2731 
L 2413 2638 
Q 3053 2472 3303 2217 
Q 3553 1963 3553 1503 
Q 3553 797 2998 353 
Q 2444 -91 1538 -91 
Q 1166 -91 791 -17 
Q 416 56 38 206 
L 166 856 
Q 513 641 861 531 
Q 1209 422 1556 422 
Q 2147 422 2503 684 
Q 2859 947 2859 1369 
Q 2859 1650 2717 1795 
Q 2575 1941 2106 2059 
L 1728 2156 
Q 1081 2325 845 2545 
Q 609 2766 609 3163 
Q 609 3859 1145 4304 
Q 1681 4750 2541 4750 
Q 2875 4750 3203 4690 
Q 3531 4631 3859 4513 
z
" transform="scale(0.015625)"/>
       <path id="DejaVuSans-31" d="M 794 531 
L 1825 531 
L 1825 4091 
L 703 3866 
L 703 4441 
L 1819 4666 
L 2450 4666 
L 2450 531 
L 3481 531 
L 3481 0 
L 794 0 
L 794 531 
z
" transform="scale(0.015625)"/>
       <path id="DejaVuSans-29" d="M 513 4856 
L 1013 4856 
Q 1481 4119 1714 3412 
Q 1947 2706 1947 2009 
Q 1947 1309 1714 600 
Q 1481 -109 1013 -844 
L 513 -844 
Q 928 -128 1133 580 
Q 1338 1288 1338 2009 
Q 1338 2731 1133 3434 
Q 928 4138 513 4856 
z
" transform="scale(0.015625)"/>
       <path id="DejaVuSans-20" transform="scale(0.015625)"/>
       <path id="DejaVuSans-5b" d="M 550 4863 
L 1875 4863 
L 1875 4416 
L 1125 4416 
L 1125 -397 
L 1875 -397 
L 1875 -844 
L 550 -844 
L 550 4863 
z
" transform="scale(0.015625)"/>
       <path id="DejaVuSans-6d" d="M 3328 2828 
Q 3544 3216 3844 3400 
Q 4144 3584 4550 3584 
Q 5097 3584 5394 3201 
Q 5691 2819 5691 2113 
L 5691 0 
L 5113 0 
L 5113 2094 
Q 5113 2597 4934 2840 
Q 4756 3084 4391 3084 
Q 3944 3084 3684 2787 
Q 3425 2491 3425 1978 
L 3425 0 
L 2847 0 
L 2847 2094 
Q 2847 2600 2669 2842 
Q 2491 3084 2119 3084 
Q 1678 3084 1418 2786 
Q 1159 2488 1159 1978 
L 1159 0 
L 581 0 
L 581 3500 
L 1159 3500 
L 1159 2956 
Q 1356 3278 1631 3431 
Q 1906 3584 2284 3584 
Q 2666 3584 2933 3390 
Q 3200 3197 3328 2828 
z
" transform="scale(0.015625)"/>
       <path id="DejaVuSans-56" d="M 1831 0 
L 50 4666 
L 709 4666 
L 2188 738 
L 3669 4666 
L 4325 4666 
L 2547 0 
L 1831 0 
z
" transform="scale(0.015625)"/>
       <path id="DejaVuSans-5d" d="M 1947 4863 
L 1947 -844 
L 622 -844 
L 622 -397 
L 1369 -397 
L 1369 4416 
L 622 4416 
L 622 4863 
L 1947 4863 
z
" transform="scale(0.015625)"/>
      </defs>
      <use xlink:href="#DejaVuSans-52" transform="translate(0 0.015625)"/>
      <use xlink:href="#DejaVuSans-65" transform="translate(69.482422 0.015625)"/>
      <use xlink:href="#DejaVuSans-28" transform="translate(131.005859 0.015625)"/>
      <use xlink:href="#DejaVuSans-Oblique-53" transform="translate(170.019531 0.015625)"/>
      <use xlink:href="#DejaVuSans-32" transform="translate(233.496094 -16.390625) scale(0.7)"/>
      <use xlink:href="#DejaVuSans-31" transform="translate(278.032227 -16.390625) scale(0.7)"/>
      <use xlink:href="#DejaVuSans-29" transform="translate(325.302734 0.015625)"/>
      <use xlink:href="#DejaVuSans-20" transform="translate(364.316406 0.015625)"/>
      <use xlink:href="#DejaVuSans-5b" transform="translate(396.103516 0.015625)"/>
      <use xlink:href="#DejaVuSans-6d" transform="translate(435.117188 0.015625)"/>
      <use xlink:href="#DejaVuSans-56" transform="translate(532.529297 0.015625)"/>
      <use xlink:href="#DejaVuSans-5d" transform="translate(600.9375 0.015625)"/>
     </g>
    </g>
   </g>
   <g id="line2d_11">
    <path d="M 54.081165 64.038898 
L 55.712595 63.368918 
L 57.344025 62.082763 
L 58.975454 61.195675 
L 60.606884 61.129851 
L 62.238314 59.79919 
L 63.869744 58.849426 
L 65.501174 58.655312 
L 67.132604 57.8233 
L 68.764034 57.207108 
L 70.395464 56.361443 
L 72.026893 55.852447 
L 73.658323 54.967503 
L 75.289753 54.770216 
L 76.921183 53.621947 
L 78.552613 53.599262 
L 80.184043 52.748053 
L 81.815473 52.838332 
L 83.446903 52.308567 
L 85.078332 51.481841 
L 86.709762 51.661438 
L 88.341192 51.657575 
L 89.972622 50.672899 
L 93.235482 50.556929 
L 94.866912 50.747603 
L 96.498342 50.33068 
L 99.761201 49.828217 
L 103.024061 50.545327 
L 104.655491 50.515696 
L 106.286921 51.040484 
L 107.918351 51.43091 
L 109.549781 50.739751 
L 111.18121 50.670726 
L 112.81264 51.009929 
L 114.44407 51.507276 
L 117.70693 51.826876 
L 120.96979 53.330378 
L 122.60122 53.769823 
L 124.232649 54.023155 
L 125.864079 54.519755 
L 127.495509 54.879185 
L 129.126939 55.459469 
L 130.758369 55.866322 
L 134.021229 57.698953 
L 135.652659 58.254292 
L 137.284088 58.511421 
L 138.915518 59.949177 
L 140.546948 60.107265 
L 143.809808 62.057606 
L 145.441238 62.046068 
L 147.072668 62.6154 
L 148.704098 63.696085 
L 150.335527 64.589624 
L 151.966957 65.059901 
L 153.598387 65.846748 
L 155.229817 67.033604 
L 156.861247 67.763653 
L 158.492677 68.180138 
L 160.124107 70.047299 
L 161.755537 70.28921 
L 163.386967 71.229969 
L 165.018396 71.885491 
L 166.649826 73.308288 
L 169.912686 74.789491 
L 171.544116 75.794251 
L 173.175546 76.998923 
L 174.806976 78.026959 
L 176.438406 78.458693 
L 178.069835 79.674532 
L 179.701265 80.344061 
L 181.332695 82.055435 
L 182.964125 83.152301 
L 184.595555 83.790299 
L 186.226985 85.651889 
L 187.858415 86.164669 
L 189.489845 87.281096 
L 191.121274 88.762166 
L 192.752704 90.399767 
L 194.384134 91.208757 
L 196.015564 92.799873 
L 197.646994 94.03537 
L 199.278424 95.48556 
L 200.909854 97.526462 
L 202.541284 98.855609 
L 204.172713 100.93967 
L 205.804143 104.266119 
L 207.435573 107.276255 
L 209.067003 111.851264 
L 210.698433 117.101088 
L 212.329863 121.381331 
L 213.961293 124.212446 
L 215.592723 112.038237 
L 217.224152 98.002397 
L 218.855582 93.523756 
L 220.487012 94.690066 
L 222.118442 96.142703 
L 225.381302 100.188137 
L 227.012732 101.552237 
L 228.644162 103.162244 
L 230.275591 105.226963 
L 231.907021 106.12256 
L 233.538451 107.530153 
L 235.169881 108.550138 
L 236.801311 110.069619 
L 241.695601 113.848756 
L 243.32703 114.662533 
L 246.58989 117.32071 
L 248.22132 118.133137 
L 249.85275 118.735103 
L 251.48418 120.286468 
L 253.11561 120.626126 
L 254.74704 122.687765 
L 256.378469 123.654275 
L 258.009899 124.016076 
L 259.641329 125.51869 
L 261.272759 126.563777 
L 262.904189 127.276468 
L 264.535619 128.20504 
L 266.167049 129.369239 
L 267.798479 129.917139 
L 269.429908 130.977701 
L 274.324198 133.656442 
L 275.955628 134.601606 
L 277.587058 135.805448 
L 279.218488 136.485787 
L 280.849918 137.722652 
L 282.481348 138.679174 
L 284.112777 138.583001 
L 285.744207 140.303546 
L 287.375637 140.15845 
L 289.007067 141.782162 
L 290.638497 141.691935 
L 292.269927 142.91546 
L 293.901357 143.21981 
L 295.532787 144.13695 
L 298.795646 144.961943 
L 300.427076 145.874824 
L 302.058506 147.113709 
L 303.689936 147.347105 
L 305.321366 148.202112 
L 306.952796 148.036108 
L 308.584226 148.580818 
L 310.215655 149.649073 
L 311.847085 149.748451 
L 313.478515 150.591637 
L 315.109945 151.12553 
L 316.741375 151.376942 
L 318.372805 152.008252 
L 320.004235 152.273341 
L 321.635665 153.123887 
L 323.267094 152.845381 
L 324.898524 153.771866 
L 326.529954 153.695385 
L 328.161384 154.40505 
L 329.792814 154.60385 
L 331.424244 155.1146 
L 333.055674 154.697858 
L 334.687104 154.939602 
L 336.318533 155.004249 
L 337.949963 155.98664 
L 339.581393 155.379502 
L 341.212823 155.239728 
L 342.844253 156.239833 
L 344.475683 155.898659 
L 346.107113 156.512851 
L 347.738543 155.956297 
L 349.369972 156.02545 
L 351.001402 156.753558 
L 352.632832 156.603686 
L 354.264262 156.746633 
L 355.895692 157.221818 
L 357.527122 156.35931 
L 359.158552 156.239608 
L 360.789982 156.463871 
L 362.421411 156.339735 
L 364.052841 156.582705 
L 365.684271 156.187253 
L 367.315701 155.547279 
L 368.947131 156.167935 
L 370.578561 156.009478 
L 372.209991 155.566753 
L 373.841421 155.625888 
L 375.47285 154.891753 
L 377.10428 155.112173 
L 378.73571 155.172231 
L 378.73571 155.172231 
" clip-path="url(#p11374f322e)" style="fill: none; stroke: #1f77b4; stroke-width: 1.5; stroke-linecap: square"/>
    <defs>
     <path id="m8bf1b5a9a7" d="M 0 1.5 
C 0.397805 1.5 0.77937 1.341951 1.06066 1.06066 
C 1.341951 0.77937 1.5 0.397805 1.5 0 
C 1.5 -0.397805 1.341951 -0.77937 1.06066 -1.06066 
C 0.77937 -1.341951 0.397805 -1.5 0 -1.5 
C -0.397805 -1.5 -0.77937 -1.341951 -1.06066 -1.06066 
C -1.341951 -0.77937 -1.5 -0.397805 -1.5 0 
C -1.5 0.397805 -1.341951 0.77937 -1.06066 1.06066 
C -0.77937 1.341951 -0.397805 1.5 0 1.5 
z
" style="stroke: #1f77b4"/>
    </defs>
    <g clip-path="url(#p11374f322e)">
     <use xlink:href="#m8bf1b5a9a7" x="54.081165" y="64.038898" style="fill: #1f77b4; stroke: #1f77b4"/>
     <use xlink:href="#m8bf1b5a9a7" x="55.712595" y="63.368918" style="fill: #1f77b4; stroke: #1f77b4"/>
     <use xlink:href="#m8bf1b5a9a7" x="57.344025" y="62.082763" style="fill: #1f77b4; stroke: #1f77b4"/>
     <use xlink:href="#m8bf1b5a9a7" x="58.975454" y="61.195675" style="fill: #1f77b4; stroke: #1f77b4"/>
     <use xlink:href="#m8bf1b5a9a7" x="60.606884" y="61.129851" style="fill: #1f77b4; stroke: #1f77b4"/>
     <use xlink:href="#m8bf1b5a9a7" x="62.238314" y="59.79919" style="fill: #1f77b4; stroke: #1f77b4"/>
     <use xlink:href="#m8bf1b5a9a7" x="63.869744" y="58.849426" style="fill: #1f77b4; stroke: #1f77b4"/>
     <use xlink:href="#m8bf1b5a9a7" x="65.501174" y="58.655312" style="fill: #1f77b4; stroke: #1f77b4"/>
     <use xlink:href="#m8bf1b5a9a7" x="67.132604" y="57.8233" style="fill: #1f77b4; stroke: #1f77b4"/>
     <use xlink:href="#m8bf1b5a9a7" x="68.764034" y="57.207108" style="fill: #1f77b4; stroke: #1f77b4"/>
     <use xlink:href="#m8bf1b5a9a7" x="70.395464" y="56.361443" style="fill: #1f77b4; stroke: #1f77b4"/>
     <use xlink:href="#m8bf1b5a9a7" x="72.026893" y="55.852447" style="fill: #1f77b4; stroke: #1f77b4"/>
     <use xlink:href="#m8bf1b5a9a7" x="73.658323" y="54.967503" style="fill: #1f77b4; stroke: #1f77b4"/>
     <use xlink:href="#m8bf1b5a9a7" x="75.289753" y="54.770216" style="fill: #1f77b4; stroke: #1f77b4"/>
     <use xlink:href="#m8bf1b5a9a7" x="76.921183" y="53.621947" style="fill: #1f77b4; stroke: #1f77b4"/>
     <use xlink:href="#m8bf1b5a9a7" x="78.552613" y="53.599262" style="fill: #1f77b4; stroke: #1f77b4"/>
     <use xlink:href="#m8bf1b5a9a7" x="80.184043" y="52.748053" style="fill: #1f77b4; stroke: #1f77b4"/>
     <use xlink:href="#m8bf1b5a9a7" x="81.815473" y="52.838332" style="fill: #1f77b4; stroke: #1f77b4"/>
     <use xlink:href="#m8bf1b5a9a7" x="83.446903" y="52.308567" style="fill: #1f77b4; stroke: #1f77b4"/>
     <use xlink:href="#m8bf1b5a9a7" x="85.078332" y="51.481841" style="fill: #1f77b4; stroke: #1f77b4"/>
     <use xlink:href="#m8bf1b5a9a7" x="86.709762" y="51.661438" style="fill: #1f77b4; stroke: #1f77b4"/>
     <use xlink:href="#m8bf1b5a9a7" x="88.341192" y="51.657575" style="fill: #1f77b4; stroke: #1f77b4"/>
     <use xlink:href="#m8bf1b5a9a7" x="89.972622" y="50.672899" style="fill: #1f77b4; stroke: #1f77b4"/>
     <use xlink:href="#m8bf1b5a9a7" x="91.604052" y="50.66051" style="fill: #1f77b4; stroke: #1f77b4"/>
     <use xlink:href="#m8bf1b5a9a7" x="93.235482" y="50.556929" style="fill: #1f77b4; stroke: #1f77b4"/>
     <use xlink:href="#m8bf1b5a9a7" x="94.866912" y="50.747603" style="fill: #1f77b4; stroke: #1f77b4"/>
     <use xlink:href="#m8bf1b5a9a7" x="96.498342" y="50.33068" style="fill: #1f77b4; stroke: #1f77b4"/>
     <use xlink:href="#m8bf1b5a9a7" x="98.129771" y="50.128915" style="fill: #1f77b4; stroke: #1f77b4"/>
     <use xlink:href="#m8bf1b5a9a7" x="99.761201" y="49.828217" style="fill: #1f77b4; stroke: #1f77b4"/>
     <use xlink:href="#m8bf1b5a9a7" x="101.392631" y="50.195711" style="fill: #1f77b4; stroke: #1f77b4"/>
     <use xlink:href="#m8bf1b5a9a7" x="103.024061" y="50.545327" style="fill: #1f77b4; stroke: #1f77b4"/>
     <use xlink:href="#m8bf1b5a9a7" x="104.655491" y="50.515696" style="fill: #1f77b4; stroke: #1f77b4"/>
     <use xlink:href="#m8bf1b5a9a7" x="106.286921" y="51.040484" style="fill: #1f77b4; stroke: #1f77b4"/>
     <use xlink:href="#m8bf1b5a9a7" x="107.918351" y="51.43091" style="fill: #1f77b4; stroke: #1f77b4"/>
     <use xlink:href="#m8bf1b5a9a7" x="109.549781" y="50.739751" style="fill: #1f77b4; stroke: #1f77b4"/>
     <use xlink:href="#m8bf1b5a9a7" x="111.18121" y="50.670726" style="fill: #1f77b4; stroke: #1f77b4"/>
     <use xlink:href="#m8bf1b5a9a7" x="112.81264" y="51.009929" style="fill: #1f77b4; stroke: #1f77b4"/>
     <use xlink:href="#m8bf1b5a9a7" x="114.44407" y="51.507276" style="fill: #1f77b4; stroke: #1f77b4"/>
     <use xlink:href="#m8bf1b5a9a7" x="116.0755" y="51.722388" style="fill: #1f77b4; stroke: #1f77b4"/>
     <use xlink:href="#m8bf1b5a9a7" x="117.70693" y="51.826876" style="fill: #1f77b4; stroke: #1f77b4"/>
     <use xlink:href="#m8bf1b5a9a7" x="119.33836" y="52.623747" style="fill: #1f77b4; stroke: #1f77b4"/>
     <use xlink:href="#m8bf1b5a9a7" x="120.96979" y="53.330378" style="fill: #1f77b4; stroke: #1f77b4"/>
     <use xlink:href="#m8bf1b5a9a7" x="122.60122" y="53.769823" style="fill: #1f77b4; stroke: #1f77b4"/>
     <use xlink:href="#m8bf1b5a9a7" x="124.232649" y="54.023155" style="fill: #1f77b4; stroke: #1f77b4"/>
     <use xlink:href="#m8bf1b5a9a7" x="125.864079" y="54.519755" style="fill: #1f77b4; stroke: #1f77b4"/>
     <use xlink:href="#m8bf1b5a9a7" x="127.495509" y="54.879185" style="fill: #1f77b4; stroke: #1f77b4"/>
     <use xlink:href="#m8bf1b5a9a7" x="129.126939" y="55.459469" style="fill: #1f77b4; stroke: #1f77b4"/>
     <use xlink:href="#m8bf1b5a9a7" x="130.758369" y="55.866322" style="fill: #1f77b4; stroke: #1f77b4"/>
     <use xlink:href="#m8bf1b5a9a7" x="132.389799" y="56.747311" style="fill: #1f77b4; stroke: #1f77b4"/>
     <use xlink:href="#m8bf1b5a9a7" x="134.021229" y="57.698953" style="fill: #1f77b4; stroke: #1f77b4"/>
     <use xlink:href="#m8bf1b5a9a7" x="135.652659" y="58.254292" style="fill: #1f77b4; stroke: #1f77b4"/>
     <use xlink:href="#m8bf1b5a9a7" x="137.284088" y="58.511421" style="fill: #1f77b4; stroke: #1f77b4"/>
     <use xlink:href="#m8bf1b5a9a7" x="138.915518" y="59.949177" style="fill: #1f77b4; stroke: #1f77b4"/>
     <use xlink:href="#m8bf1b5a9a7" x="140.546948" y="60.107265" style="fill: #1f77b4; stroke: #1f77b4"/>
     <use xlink:href="#m8bf1b5a9a7" x="142.178378" y="61.081582" style="fill: #1f77b4; stroke: #1f77b4"/>
     <use xlink:href="#m8bf1b5a9a7" x="143.809808" y="62.057606" style="fill: #1f77b4; stroke: #1f77b4"/>
     <use xlink:href="#m8bf1b5a9a7" x="145.441238" y="62.046068" style="fill: #1f77b4; stroke: #1f77b4"/>
     <use xlink:href="#m8bf1b5a9a7" x="147.072668" y="62.6154" style="fill: #1f77b4; stroke: #1f77b4"/>
     <use xlink:href="#m8bf1b5a9a7" x="148.704098" y="63.696085" style="fill: #1f77b4; stroke: #1f77b4"/>
     <use xlink:href="#m8bf1b5a9a7" x="150.335527" y="64.589624" style="fill: #1f77b4; stroke: #1f77b4"/>
     <use xlink:href="#m8bf1b5a9a7" x="151.966957" y="65.059901" style="fill: #1f77b4; stroke: #1f77b4"/>
     <use xlink:href="#m8bf1b5a9a7" x="153.598387" y="65.846748" style="fill: #1f77b4; stroke: #1f77b4"/>
     <use xlink:href="#m8bf1b5a9a7" x="155.229817" y="67.033604" style="fill: #1f77b4; stroke: #1f77b4"/>
     <use xlink:href="#m8bf1b5a9a7" x="156.861247" y="67.763653" style="fill: #1f77b4; stroke: #1f77b4"/>
     <use xlink:href="#m8bf1b5a9a7" x="158.492677" y="68.180138" style="fill: #1f77b4; stroke: #1f77b4"/>
     <use xlink:href="#m8bf1b5a9a7" x="160.124107" y="70.047299" style="fill: #1f77b4; stroke: #1f77b4"/>
     <use xlink:href="#m8bf1b5a9a7" x="161.755537" y="70.28921" style="fill: #1f77b4; stroke: #1f77b4"/>
     <use xlink:href="#m8bf1b5a9a7" x="163.386967" y="71.229969" style="fill: #1f77b4; stroke: #1f77b4"/>
     <use xlink:href="#m8bf1b5a9a7" x="165.018396" y="71.885491" style="fill: #1f77b4; stroke: #1f77b4"/>
     <use xlink:href="#m8bf1b5a9a7" x="166.649826" y="73.308288" style="fill: #1f77b4; stroke: #1f77b4"/>
     <use xlink:href="#m8bf1b5a9a7" x="168.281256" y="74.025295" style="fill: #1f77b4; stroke: #1f77b4"/>
     <use xlink:href="#m8bf1b5a9a7" x="169.912686" y="74.789491" style="fill: #1f77b4; stroke: #1f77b4"/>
     <use xlink:href="#m8bf1b5a9a7" x="171.544116" y="75.794251" style="fill: #1f77b4; stroke: #1f77b4"/>
     <use xlink:href="#m8bf1b5a9a7" x="173.175546" y="76.998923" style="fill: #1f77b4; stroke: #1f77b4"/>
     <use xlink:href="#m8bf1b5a9a7" x="174.806976" y="78.026959" style="fill: #1f77b4; stroke: #1f77b4"/>
     <use xlink:href="#m8bf1b5a9a7" x="176.438406" y="78.458693" style="fill: #1f77b4; stroke: #1f77b4"/>
     <use xlink:href="#m8bf1b5a9a7" x="178.069835" y="79.674532" style="fill: #1f77b4; stroke: #1f77b4"/>
     <use xlink:href="#m8bf1b5a9a7" x="179.701265" y="80.344061" style="fill: #1f77b4; stroke: #1f77b4"/>
     <use xlink:href="#m8bf1b5a9a7" x="181.332695" y="82.055435" style="fill: #1f77b4; stroke: #1f77b4"/>
     <use xlink:href="#m8bf1b5a9a7" x="182.964125" y="83.152301" style="fill: #1f77b4; stroke: #1f77b4"/>
     <use xlink:href="#m8bf1b5a9a7" x="184.595555" y="83.790299" style="fill: #1f77b4; stroke: #1f77b4"/>
     <use xlink:href="#m8bf1b5a9a7" x="186.226985" y="85.651889" style="fill: #1f77b4; stroke: #1f77b4"/>
     <use xlink:href="#m8bf1b5a9a7" x="187.858415" y="86.164669" style="fill: #1f77b4; stroke: #1f77b4"/>
     <use xlink:href="#m8bf1b5a9a7" x="189.489845" y="87.281096" style="fill: #1f77b4; stroke: #1f77b4"/>
     <use xlink:href="#m8bf1b5a9a7" x="191.121274" y="88.762166" style="fill: #1f77b4; stroke: #1f77b4"/>
     <use xlink:href="#m8bf1b5a9a7" x="192.752704" y="90.399767" style="fill: #1f77b4; stroke: #1f77b4"/>
     <use xlink:href="#m8bf1b5a9a7" x="194.384134" y="91.208757" style="fill: #1f77b4; stroke: #1f77b4"/>
     <use xlink:href="#m8bf1b5a9a7" x="196.015564" y="92.799873" style="fill: #1f77b4; stroke: #1f77b4"/>
     <use xlink:href="#m8bf1b5a9a7" x="197.646994" y="94.03537" style="fill: #1f77b4; stroke: #1f77b4"/>
     <use xlink:href="#m8bf1b5a9a7" x="199.278424" y="95.48556" style="fill: #1f77b4; stroke: #1f77b4"/>
     <use xlink:href="#m8bf1b5a9a7" x="200.909854" y="97.526462" style="fill: #1f77b4; stroke: #1f77b4"/>
     <use xlink:href="#m8bf1b5a9a7" x="202.541284" y="98.855609" style="fill: #1f77b4; stroke: #1f77b4"/>
     <use xlink:href="#m8bf1b5a9a7" x="204.172713" y="100.93967" style="fill: #1f77b4; stroke: #1f77b4"/>
     <use xlink:href="#m8bf1b5a9a7" x="205.804143" y="104.266119" style="fill: #1f77b4; stroke: #1f77b4"/>
     <use xlink:href="#m8bf1b5a9a7" x="207.435573" y="107.276255" style="fill: #1f77b4; stroke: #1f77b4"/>
     <use xlink:href="#m8bf1b5a9a7" x="209.067003" y="111.851264" style="fill: #1f77b4; stroke: #1f77b4"/>
     <use xlink:href="#m8bf1b5a9a7" x="210.698433" y="117.101088" style="fill: #1f77b4; stroke: #1f77b4"/>
     <use xlink:href="#m8bf1b5a9a7" x="212.329863" y="121.381331" style="fill: #1f77b4; stroke: #1f77b4"/>
     <use xlink:href="#m8bf1b5a9a7" x="213.961293" y="124.212446" style="fill: #1f77b4; stroke: #1f77b4"/>
     <use xlink:href="#m8bf1b5a9a7" x="215.592723" y="112.038237" style="fill: #1f77b4; stroke: #1f77b4"/>
     <use xlink:href="#m8bf1b5a9a7" x="217.224152" y="98.002397" style="fill: #1f77b4; stroke: #1f77b4"/>
     <use xlink:href="#m8bf1b5a9a7" x="218.855582" y="93.523756" style="fill: #1f77b4; stroke: #1f77b4"/>
     <use xlink:href="#m8bf1b5a9a7" x="220.487012" y="94.690066" style="fill: #1f77b4; stroke: #1f77b4"/>
     <use xlink:href="#m8bf1b5a9a7" x="222.118442" y="96.142703" style="fill: #1f77b4; stroke: #1f77b4"/>
     <use xlink:href="#m8bf1b5a9a7" x="223.749872" y="98.175905" style="fill: #1f77b4; stroke: #1f77b4"/>
     <use xlink:href="#m8bf1b5a9a7" x="225.381302" y="100.188137" style="fill: #1f77b4; stroke: #1f77b4"/>
     <use xlink:href="#m8bf1b5a9a7" x="227.012732" y="101.552237" style="fill: #1f77b4; stroke: #1f77b4"/>
     <use xlink:href="#m8bf1b5a9a7" x="228.644162" y="103.162244" style="fill: #1f77b4; stroke: #1f77b4"/>
     <use xlink:href="#m8bf1b5a9a7" x="230.275591" y="105.226963" style="fill: #1f77b4; stroke: #1f77b4"/>
     <use xlink:href="#m8bf1b5a9a7" x="231.907021" y="106.12256" style="fill: #1f77b4; stroke: #1f77b4"/>
     <use xlink:href="#m8bf1b5a9a7" x="233.538451" y="107.530153" style="fill: #1f77b4; stroke: #1f77b4"/>
     <use xlink:href="#m8bf1b5a9a7" x="235.169881" y="108.550138" style="fill: #1f77b4; stroke: #1f77b4"/>
     <use xlink:href="#m8bf1b5a9a7" x="236.801311" y="110.069619" style="fill: #1f77b4; stroke: #1f77b4"/>
     <use xlink:href="#m8bf1b5a9a7" x="238.432741" y="111.304961" style="fill: #1f77b4; stroke: #1f77b4"/>
     <use xlink:href="#m8bf1b5a9a7" x="240.064171" y="112.472548" style="fill: #1f77b4; stroke: #1f77b4"/>
     <use xlink:href="#m8bf1b5a9a7" x="241.695601" y="113.848756" style="fill: #1f77b4; stroke: #1f77b4"/>
     <use xlink:href="#m8bf1b5a9a7" x="243.32703" y="114.662533" style="fill: #1f77b4; stroke: #1f77b4"/>
     <use xlink:href="#m8bf1b5a9a7" x="244.95846" y="115.978066" style="fill: #1f77b4; stroke: #1f77b4"/>
     <use xlink:href="#m8bf1b5a9a7" x="246.58989" y="117.32071" style="fill: #1f77b4; stroke: #1f77b4"/>
     <use xlink:href="#m8bf1b5a9a7" x="248.22132" y="118.133137" style="fill: #1f77b4; stroke: #1f77b4"/>
     <use xlink:href="#m8bf1b5a9a7" x="249.85275" y="118.735103" style="fill: #1f77b4; stroke: #1f77b4"/>
     <use xlink:href="#m8bf1b5a9a7" x="251.48418" y="120.286468" style="fill: #1f77b4; stroke: #1f77b4"/>
     <use xlink:href="#m8bf1b5a9a7" x="253.11561" y="120.626126" style="fill: #1f77b4; stroke: #1f77b4"/>
     <use xlink:href="#m8bf1b5a9a7" x="254.74704" y="122.687765" style="fill: #1f77b4; stroke: #1f77b4"/>
     <use xlink:href="#m8bf1b5a9a7" x="256.378469" y="123.654275" style="fill: #1f77b4; stroke: #1f77b4"/>
     <use xlink:href="#m8bf1b5a9a7" x="258.009899" y="124.016076" style="fill: #1f77b4; stroke: #1f77b4"/>
     <use xlink:href="#m8bf1b5a9a7" x="259.641329" y="125.51869" style="fill: #1f77b4; stroke: #1f77b4"/>
     <use xlink:href="#m8bf1b5a9a7" x="261.272759" y="126.563777" style="fill: #1f77b4; stroke: #1f77b4"/>
     <use xlink:href="#m8bf1b5a9a7" x="262.904189" y="127.276468" style="fill: #1f77b4; stroke: #1f77b4"/>
     <use xlink:href="#m8bf1b5a9a7" x="264.535619" y="128.20504" style="fill: #1f77b4; stroke: #1f77b4"/>
     <use xlink:href="#m8bf1b5a9a7" x="266.167049" y="129.369239" style="fill: #1f77b4; stroke: #1f77b4"/>
     <use xlink:href="#m8bf1b5a9a7" x="267.798479" y="129.917139" style="fill: #1f77b4; stroke: #1f77b4"/>
     <use xlink:href="#m8bf1b5a9a7" x="269.429908" y="130.977701" style="fill: #1f77b4; stroke: #1f77b4"/>
     <use xlink:href="#m8bf1b5a9a7" x="271.061338" y="131.839484" style="fill: #1f77b4; stroke: #1f77b4"/>
     <use xlink:href="#m8bf1b5a9a7" x="272.692768" y="132.57862" style="fill: #1f77b4; stroke: #1f77b4"/>
     <use xlink:href="#m8bf1b5a9a7" x="274.324198" y="133.656442" style="fill: #1f77b4; stroke: #1f77b4"/>
     <use xlink:href="#m8bf1b5a9a7" x="275.955628" y="134.601606" style="fill: #1f77b4; stroke: #1f77b4"/>
     <use xlink:href="#m8bf1b5a9a7" x="277.587058" y="135.805448" style="fill: #1f77b4; stroke: #1f77b4"/>
     <use xlink:href="#m8bf1b5a9a7" x="279.218488" y="136.485787" style="fill: #1f77b4; stroke: #1f77b4"/>
     <use xlink:href="#m8bf1b5a9a7" x="280.849918" y="137.722652" style="fill: #1f77b4; stroke: #1f77b4"/>
     <use xlink:href="#m8bf1b5a9a7" x="282.481348" y="138.679174" style="fill: #1f77b4; stroke: #1f77b4"/>
     <use xlink:href="#m8bf1b5a9a7" x="284.112777" y="138.583001" style="fill: #1f77b4; stroke: #1f77b4"/>
     <use xlink:href="#m8bf1b5a9a7" x="285.744207" y="140.303546" style="fill: #1f77b4; stroke: #1f77b4"/>
     <use xlink:href="#m8bf1b5a9a7" x="287.375637" y="140.15845" style="fill: #1f77b4; stroke: #1f77b4"/>
     <use xlink:href="#m8bf1b5a9a7" x="289.007067" y="141.782162" style="fill: #1f77b4; stroke: #1f77b4"/>
     <use xlink:href="#m8bf1b5a9a7" x="290.638497" y="141.691935" style="fill: #1f77b4; stroke: #1f77b4"/>
     <use xlink:href="#m8bf1b5a9a7" x="292.269927" y="142.91546" style="fill: #1f77b4; stroke: #1f77b4"/>
     <use xlink:href="#m8bf1b5a9a7" x="293.901357" y="143.21981" style="fill: #1f77b4; stroke: #1f77b4"/>
     <use xlink:href="#m8bf1b5a9a7" x="295.532787" y="144.13695" style="fill: #1f77b4; stroke: #1f77b4"/>
     <use xlink:href="#m8bf1b5a9a7" x="297.164216" y="144.597382" style="fill: #1f77b4; stroke: #1f77b4"/>
     <use xlink:href="#m8bf1b5a9a7" x="298.795646" y="144.961943" style="fill: #1f77b4; stroke: #1f77b4"/>
     <use xlink:href="#m8bf1b5a9a7" x="300.427076" y="145.874824" style="fill: #1f77b4; stroke: #1f77b4"/>
     <use xlink:href="#m8bf1b5a9a7" x="302.058506" y="147.113709" style="fill: #1f77b4; stroke: #1f77b4"/>
     <use xlink:href="#m8bf1b5a9a7" x="303.689936" y="147.347105" style="fill: #1f77b4; stroke: #1f77b4"/>
     <use xlink:href="#m8bf1b5a9a7" x="305.321366" y="148.202112" style="fill: #1f77b4; stroke: #1f77b4"/>
     <use xlink:href="#m8bf1b5a9a7" x="306.952796" y="148.036108" style="fill: #1f77b4; stroke: #1f77b4"/>
     <use xlink:href="#m8bf1b5a9a7" x="308.584226" y="148.580818" style="fill: #1f77b4; stroke: #1f77b4"/>
     <use xlink:href="#m8bf1b5a9a7" x="310.215655" y="149.649073" style="fill: #1f77b4; stroke: #1f77b4"/>
     <use xlink:href="#m8bf1b5a9a7" x="311.847085" y="149.748451" style="fill: #1f77b4; stroke: #1f77b4"/>
     <use xlink:href="#m8bf1b5a9a7" x="313.478515" y="150.591637" style="fill: #1f77b4; stroke: #1f77b4"/>
     <use xlink:href="#m8bf1b5a9a7" x="315.109945" y="151.12553" style="fill: #1f77b4; stroke: #1f77b4"/>
     <use xlink:href="#m8bf1b5a9a7" x="316.741375" y="151.376942" style="fill: #1f77b4; stroke: #1f77b4"/>
     <use xlink:href="#m8bf1b5a9a7" x="318.372805" y="152.008252" style="fill: #1f77b4; stroke: #1f77b4"/>
     <use xlink:href="#m8bf1b5a9a7" x="320.004235" y="152.273341" style="fill: #1f77b4; stroke: #1f77b4"/>
     <use xlink:href="#m8bf1b5a9a7" x="321.635665" y="153.123887" style="fill: #1f77b4; stroke: #1f77b4"/>
     <use xlink:href="#m8bf1b5a9a7" x="323.267094" y="152.845381" style="fill: #1f77b4; stroke: #1f77b4"/>
     <use xlink:href="#m8bf1b5a9a7" x="324.898524" y="153.771866" style="fill: #1f77b4; stroke: #1f77b4"/>
     <use xlink:href="#m8bf1b5a9a7" x="326.529954" y="153.695385" style="fill: #1f77b4; stroke: #1f77b4"/>
     <use xlink:href="#m8bf1b5a9a7" x="328.161384" y="154.40505" style="fill: #1f77b4; stroke: #1f77b4"/>
     <use xlink:href="#m8bf1b5a9a7" x="329.792814" y="154.60385" style="fill: #1f77b4; stroke: #1f77b4"/>
     <use xlink:href="#m8bf1b5a9a7" x="331.424244" y="155.1146" style="fill: #1f77b4; stroke: #1f77b4"/>
     <use xlink:href="#m8bf1b5a9a7" x="333.055674" y="154.697858" style="fill: #1f77b4; stroke: #1f77b4"/>
     <use xlink:href="#m8bf1b5a9a7" x="334.687104" y="154.939602" style="fill: #1f77b4; stroke: #1f77b4"/>
     <use xlink:href="#m8bf1b5a9a7" x="336.318533" y="155.004249" style="fill: #1f77b4; stroke: #1f77b4"/>
     <use xlink:href="#m8bf1b5a9a7" x="337.949963" y="155.98664" style="fill: #1f77b4; stroke: #1f77b4"/>
     <use xlink:href="#m8bf1b5a9a7" x="339.581393" y="155.379502" style="fill: #1f77b4; stroke: #1f77b4"/>
     <use xlink:href="#m8bf1b5a9a7" x="341.212823" y="155.239728" style="fill: #1f77b4; stroke: #1f77b4"/>
     <use xlink:href="#m8bf1b5a9a7" x="342.844253" y="156.239833" style="fill: #1f77b4; stroke: #1f77b4"/>
     <use xlink:href="#m8bf1b5a9a7" x="344.475683" y="155.898659" style="fill: #1f77b4; stroke: #1f77b4"/>
     <use xlink:href="#m8bf1b5a9a7" x="346.107113" y="156.512851" style="fill: #1f77b4; stroke: #1f77b4"/>
     <use xlink:href="#m8bf1b5a9a7" x="347.738543" y="155.956297" style="fill: #1f77b4; stroke: #1f77b4"/>
     <use xlink:href="#m8bf1b5a9a7" x="349.369972" y="156.02545" style="fill: #1f77b4; stroke: #1f77b4"/>
     <use xlink:href="#m8bf1b5a9a7" x="351.001402" y="156.753558" style="fill: #1f77b4; stroke: #1f77b4"/>
     <use xlink:href="#m8bf1b5a9a7" x="352.632832" y="156.603686" style="fill: #1f77b4; stroke: #1f77b4"/>
     <use xlink:href="#m8bf1b5a9a7" x="354.264262" y="156.746633" style="fill: #1f77b4; stroke: #1f77b4"/>
     <use xlink:href="#m8bf1b5a9a7" x="355.895692" y="157.221818" style="fill: #1f77b4; stroke: #1f77b4"/>
     <use xlink:href="#m8bf1b5a9a7" x="357.527122" y="156.35931" style="fill: #1f77b4; stroke: #1f77b4"/>
     <use xlink:href="#m8bf1b5a9a7" x="359.158552" y="156.239608" style="fill: #1f77b4; stroke: #1f77b4"/>
     <use xlink:href="#m8bf1b5a9a7" x="360.789982" y="156.463871" style="fill: #1f77b4; stroke: #1f77b4"/>
     <use xlink:href="#m8bf1b5a9a7" x="362.421411" y="156.339735" style="fill: #1f77b4; stroke: #1f77b4"/>
     <use xlink:href="#m8bf1b5a9a7" x="364.052841" y="156.582705" style="fill: #1f77b4; stroke: #1f77b4"/>
     <use xlink:href="#m8bf1b5a9a7" x="365.684271" y="156.187253" style="fill: #1f77b4; stroke: #1f77b4"/>
     <use xlink:href="#m8bf1b5a9a7" x="367.315701" y="155.547279" style="fill: #1f77b4; stroke: #1f77b4"/>
     <use xlink:href="#m8bf1b5a9a7" x="368.947131" y="156.167935" style="fill: #1f77b4; stroke: #1f77b4"/>
     <use xlink:href="#m8bf1b5a9a7" x="370.578561" y="156.009478" style="fill: #1f77b4; stroke: #1f77b4"/>
     <use xlink:href="#m8bf1b5a9a7" x="372.209991" y="155.566753" style="fill: #1f77b4; stroke: #1f77b4"/>
     <use xlink:href="#m8bf1b5a9a7" x="373.841421" y="155.625888" style="fill: #1f77b4; stroke: #1f77b4"/>
     <use xlink:href="#m8bf1b5a9a7" x="375.47285" y="154.891753" style="fill: #1f77b4; stroke: #1f77b4"/>
     <use xlink:href="#m8bf1b5a9a7" x="377.10428" y="155.112173" style="fill: #1f77b4; stroke: #1f77b4"/>
     <use xlink:href="#m8bf1b5a9a7" x="378.73571" y="155.172231" style="fill: #1f77b4; stroke: #1f77b4"/>
    </g>
   </g>
   <g id="line2d_12">
    <path d="M 54.081165 51.829917 
L 59.605817 50.498741 
L 65.130469 49.389686 
L 70.655121 48.508004 
L 76.179772 47.857991 
L 81.704424 47.442978 
L 86.904097 47.26917 
L 92.103769 47.306801 
L 97.303442 47.556293 
L 102.503114 48.017326 
L 108.027766 48.737777 
L 113.552418 49.693735 
L 119.07707 50.882252 
L 124.601722 52.299616 
L 130.126374 53.941446 
L 135.976005 55.919048 
L 141.825637 58.136545 
L 147.675268 60.58762 
L 153.849879 63.421844 
L 160.02449 66.504675 
L 166.199101 69.83464 
L 172.373712 73.417625 
L 178.223343 77.063791 
L 183.747995 80.770434 
L 188.622688 84.315165 
L 192.522442 87.411769 
L 195.772238 90.255109 
L 198.372074 92.787706 
L 200.646931 95.285737 
L 202.596808 97.737777 
L 204.221705 100.101504 
L 205.846603 102.887292 
L 207.146521 105.543465 
L 208.446439 108.718076 
L 209.746357 112.542521 
L 212.671173 122.007632 
L 212.996152 122.497056 
L 213.321132 122.631382 
L 213.646112 122.319204 
L 213.971091 121.483616 
L 214.296071 120.081875 
L 214.94603 115.684911 
L 216.895907 99.381506 
L 217.545866 96.005858 
L 218.195825 93.897234 
L 218.845784 92.753458 
L 219.495743 92.278828 
L 220.145702 92.245352 
L 220.795661 92.494269 
L 221.7706 93.177016 
L 223.395497 94.688602 
L 229.895088 101.052187 
L 233.794842 104.451245 
L 238.344555 108.100401 
L 243.544228 111.981976 
L 249.718839 116.306129 
L 256.543409 120.804753 
L 263.692958 125.242058 
L 270.842508 129.408789 
L 277.667078 133.129648 
L 284.166668 136.430674 
L 290.666259 139.483135 
L 296.84087 142.141291 
L 303.015481 144.552977 
L 308.865112 146.601008 
L 314.714744 148.410402 
L 320.239396 149.893517 
L 325.764048 151.151768 
L 331.2887 152.180529 
L 336.813352 152.976039 
L 342.338003 153.535455 
L 347.537676 153.844579 
L 352.737348 153.942081 
L 357.937021 153.827941 
L 363.136693 153.502923 
L 368.661345 152.92828 
L 374.185997 152.120167 
L 378.73571 151.282032 
L 378.73571 151.282032 
" clip-path="url(#p11374f322e)" style="fill: none; stroke: #d62728; stroke-width: 1.5; stroke-linecap: square"/>
   </g>
   <g id="patch_3">
    <path d="M 37.848438 162.72 
L 37.848438 41.76 
" style="fill: none; stroke: #000000; stroke-width: 0.8; stroke-linejoin: miter; stroke-linecap: square"/>
   </g>
   <g id="patch_4">
    <path d="M 394.968438 162.72 
L 394.968438 41.76 
" style="fill: none; stroke: #000000; stroke-width: 0.8; stroke-linejoin: miter; stroke-linecap: square"/>
   </g>
   <g id="patch_5">
    <path d="M 37.848437 162.72 
L 394.968437 162.72 
" style="fill: none; stroke: #000000; stroke-width: 0.8; stroke-linejoin: miter; stroke-linecap: square"/>
   </g>
   <g id="patch_6">
    <path d="M 37.848437 41.76 
L 394.968437 41.76 
" style="fill: none; stroke: #000000; stroke-width: 0.8; stroke-linejoin: miter; stroke-linecap: square"/>
   </g>
   <g id="text_7">
    <g id="patch_7">
     <path d="M 412.824438 72.683938 
L 572.93225 72.683938 
Q 576.93225 72.683938 576.93225 68.683938 
L 576.93225 47.808 
Q 576.93225 43.808 572.93225 43.808 
L 412.824438 43.808 
Q 408.824438 43.808 408.824438 47.808 
L 408.824438 68.683938 
Q 408.824438 72.683938 412.824438 72.683938 
z
" style="fill: #ffffff; opacity: 0.5; stroke: #000000; stroke-linejoin: miter"/>
    </g>
    <!-- Warning: fit failed. lmfit was not -->
    <g transform="translate(412.824438 55.406437) scale(0.1 -0.1)">
     <defs>
      <path id="DejaVuSans-57" d="M 213 4666 
L 850 4666 
L 1831 722 
L 2809 4666 
L 3519 4666 
L 4500 722 
L 5478 4666 
L 6119 4666 
L 4947 0 
L 4153 0 
L 3169 4050 
L 2175 0 
L 1381 0 
L 213 4666 
z
" transform="scale(0.015625)"/>
      <path id="DejaVuSans-61" d="M 2194 1759 
Q 1497 1759 1228 1600 
Q 959 1441 959 1056 
Q 959 750 1161 570 
Q 1363 391 1709 391 
Q 2188 391 2477 730 
Q 2766 1069 2766 1631 
L 2766 1759 
L 2194 1759 
z
M 3341 1997 
L 3341 0 
L 2766 0 
L 2766 531 
Q 2569 213 2275 61 
Q 1981 -91 1556 -91 
Q 1019 -91 701 211 
Q 384 513 384 1019 
Q 384 1609 779 1909 
Q 1175 2209 1959 2209 
L 2766 2209 
L 2766 2266 
Q 2766 2663 2505 2880 
Q 2244 3097 1772 3097 
Q 1472 3097 1187 3025 
Q 903 2953 641 2809 
L 641 3341 
Q 956 3463 1253 3523 
Q 1550 3584 1831 3584 
Q 2591 3584 2966 3190 
Q 3341 2797 3341 1997 
z
" transform="scale(0.015625)"/>
      <path id="DejaVuSans-72" d="M 2631 2963 
Q 2534 3019 2420 3045 
Q 2306 3072 2169 3072 
Q 1681 3072 1420 2755 
Q 1159 2438 1159 1844 
L 1159 0 
L 581 0 
L 581 3500 
L 1159 3500 
L 1159 2956 
Q 1341 3275 1631 3429 
Q 1922 3584 2338 3584 
Q 2397 3584 2469 3576 
Q 2541 3569 2628 3553 
L 2631 2963 
z
" transform="scale(0.015625)"/>
      <path id="DejaVuSans-6e" d="M 3513 2113 
L 3513 0 
L 2938 0 
L 2938 2094 
Q 2938 2591 2744 2837 
Q 2550 3084 2163 3084 
Q 1697 3084 1428 2787 
Q 1159 2491 1159 1978 
L 1159 0 
L 581 0 
L 581 3500 
L 1159 3500 
L 1159 2956 
Q 1366 3272 1645 3428 
Q 1925 3584 2291 3584 
Q 2894 3584 3203 3211 
Q 3513 2838 3513 2113 
z
" transform="scale(0.015625)"/>
      <path id="DejaVuSans-69" d="M 603 3500 
L 1178 3500 
L 1178 0 
L 603 0 
L 603 3500 
z
M 603 4863 
L 1178 4863 
L 1178 4134 
L 603 4134 
L 603 4863 
z
" transform="scale(0.015625)"/>
      <path id="DejaVuSans-67" d="M 2906 1791 
Q 2906 2416 2648 2759 
Q 2391 3103 1925 3103 
Q 1463 3103 1205 2759 
Q 947 2416 947 1791 
Q 947 1169 1205 825 
Q 1463 481 1925 481 
Q 2391 481 2648 825 
Q 2906 1169 2906 1791 
z
M 3481 434 
Q 3481 -459 3084 -895 
Q 2688 -1331 1869 -1331 
Q 1566 -1331 1297 -1286 
Q 1028 -1241 775 -1147 
L 775 -588 
Q 1028 -725 1275 -790 
Q 1522 -856 1778 -856 
Q 2344 -856 2625 -561 
Q 2906 -266 2906 331 
L 2906 616 
Q 2728 306 2450 153 
Q 2172 0 1784 0 
Q 1141 0 747 490 
Q 353 981 353 1791 
Q 353 2603 747 3093 
Q 1141 3584 1784 3584 
Q 2172 3584 2450 3431 
Q 2728 3278 2906 2969 
L 2906 3500 
L 3481 3500 
L 3481 434 
z
" transform="scale(0.015625)"/>
      <path id="DejaVuSans-3a" d="M 750 794 
L 1409 794 
L 1409 0 
L 750 0 
L 750 794 
z
M 750 3309 
L 1409 3309 
L 1409 2516 
L 750 2516 
L 750 3309 
z
" transform="scale(0.015625)"/>
      <path id="DejaVuSans-66" d="M 2375 4863 
L 2375 4384 
L 1825 4384 
Q 1516 4384 1395 4259 
Q 1275 4134 1275 3809 
L 1275 3500 
L 2222 3500 
L 2222 3053 
L 1275 3053 
L 1275 0 
L 697 0 
L 697 3053 
L 147 3053 
L 147 3500 
L 697 3500 
L 697 3744 
Q 697 4328 969 4595 
Q 1241 4863 1831 4863 
L 2375 4863 
z
" transform="scale(0.015625)"/>
      <path id="DejaVuSans-74" d="M 1172 4494 
L 1172 3500 
L 2356 3500 
L 2356 3053 
L 1172 3053 
L 1172 1153 
Q 1172 725 1289 603 
Q 1406 481 1766 481 
L 2356 481 
L 2356 0 
L 1766 0 
Q 1100 0 847 248 
Q 594 497 594 1153 
L 594 3053 
L 172 3053 
L 172 3500 
L 594 3500 
L 594 4494 
L 1172 4494 
z
" transform="scale(0.015625)"/>
      <path id="DejaVuSans-6c" d="M 603 4863 
L 1178 4863 
L 1178 0 
L 603 0 
L 603 4863 
z
" transform="scale(0.015625)"/>
      <path id="DejaVuSans-64" d="M 2906 2969 
L 2906 4863 
L 3481 4863 
L 3481 0 
L 2906 0 
L 2906 525 
Q 2725 213 2448 61 
Q 2172 -91 1784 -91 
Q 1150 -91 751 415 
Q 353 922 353 1747 
Q 353 2572 751 3078 
Q 1150 3584 1784 3584 
Q 2172 3584 2448 3432 
Q 2725 3281 2906 2969 
z
M 947 1747 
Q 947 1113 1208 752 
Q 1469 391 1925 391 
Q 2381 391 2643 752 
Q 2906 1113 2906 1747 
Q 2906 2381 2643 2742 
Q 2381 3103 1925 3103 
Q 1469 3103 1208 2742 
Q 947 2381 947 1747 
z
" transform="scale(0.015625)"/>
      <path id="DejaVuSans-2e" d="M 684 794 
L 1344 794 
L 1344 0 
L 684 0 
L 684 794 
z
" transform="scale(0.015625)"/>
      <path id="DejaVuSans-77" d="M 269 3500 
L 844 3500 
L 1563 769 
L 2278 3500 
L 2956 3500 
L 3675 769 
L 4391 3500 
L 4966 3500 
L 4050 0 
L 3372 0 
L 2619 2869 
L 1863 0 
L 1184 0 
L 269 3500 
z
" transform="scale(0.015625)"/>
      <path id="DejaVuSans-73" d="M 2834 3397 
L 2834 2853 
Q 2591 2978 2328 3040 
Q 2066 3103 1784 3103 
Q 1356 3103 1142 2972 
Q 928 2841 928 2578 
Q 928 2378 1081 2264 
Q 1234 2150 1697 2047 
L 1894 2003 
Q 2506 1872 2764 1633 
Q 3022 1394 3022 966 
Q 3022 478 2636 193 
Q 2250 -91 1575 -91 
Q 1294 -91 989 -36 
Q 684 19 347 128 
L 347 722 
Q 666 556 975 473 
Q 1284 391 1588 391 
Q 1994 391 2212 530 
Q 2431 669 2431 922 
Q 2431 1156 2273 1281 
Q 2116 1406 1581 1522 
L 1381 1569 
Q 847 1681 609 1914 
Q 372 2147 372 2553 
Q 372 3047 722 3315 
Q 1072 3584 1716 3584 
Q 2034 3584 2315 3537 
Q 2597 3491 2834 3397 
z
" transform="scale(0.015625)"/>
      <path id="DejaVuSans-6f" d="M 1959 3097 
Q 1497 3097 1228 2736 
Q 959 2375 959 1747 
Q 959 1119 1226 758 
Q 1494 397 1959 397 
Q 2419 397 2687 759 
Q 2956 1122 2956 1747 
Q 2956 2369 2687 2733 
Q 2419 3097 1959 3097 
z
M 1959 3584 
Q 2709 3584 3137 3096 
Q 3566 2609 3566 1747 
Q 3566 888 3137 398 
Q 2709 -91 1959 -91 
Q 1206 -91 779 398 
Q 353 888 353 1747 
Q 353 2609 779 3096 
Q 1206 3584 1959 3584 
z
" transform="scale(0.015625)"/>
     </defs>
     <use xlink:href="#DejaVuSans-57"/>
     <use xlink:href="#DejaVuSans-61" x="92.501953"/>
     <use xlink:href="#DejaVuSans-72" x="153.78125"/>
     <use xlink:href="#DejaVuSans-6e" x="193.144531"/>
     <use xlink:href="#DejaVuSans-69" x="256.523438"/>
     <use xlink:href="#DejaVuSans-6e" x="284.306641"/>
     <use xlink:href="#DejaVuSans-67" x="347.685547"/>
     <use xlink:href="#DejaVuSans-3a" x="411.162109"/>
     <use xlink:href="#DejaVuSans-20" x="444.853516"/>
     <use xlink:href="#DejaVuSans-66" x="476.640625"/>
     <use xlink:href="#DejaVuSans-69" x="511.845703"/>
     <use xlink:href="#DejaVuSans-74" x="539.628906"/>
     <use xlink:href="#DejaVuSans-20" x="578.837891"/>
     <use xlink:href="#DejaVuSans-66" x="610.625"/>
     <use xlink:href="#DejaVuSans-61" x="645.830078"/>
     <use xlink:href="#DejaVuSans-69" x="707.109375"/>
     <use xlink:href="#DejaVuSans-6c" x="734.892578"/>
     <use xlink:href="#DejaVuSans-65" x="762.675781"/>
     <use xlink:href="#DejaVuSans-64" x="824.199219"/>
     <use xlink:href="#DejaVuSans-2e" x="887.675781"/>
     <use xlink:href="#DejaVuSans-20" x="919.462891"/>
     <use xlink:href="#DejaVuSans-6c" x="951.25"/>
     <use xlink:href="#DejaVuSans-6d" x="979.033203"/>
     <use xlink:href="#DejaVuSans-66" x="1076.445312"/>
     <use xlink:href="#DejaVuSans-69" x="1111.650391"/>
     <use xlink:href="#DejaVuSans-74" x="1139.433594"/>
     <use xlink:href="#DejaVuSans-20" x="1178.642578"/>
     <use xlink:href="#DejaVuSans-77" x="1210.429688"/>
     <use xlink:href="#DejaVuSans-61" x="1292.216797"/>
     <use xlink:href="#DejaVuSans-73" x="1353.496094"/>
     <use xlink:href="#DejaVuSans-20" x="1405.595703"/>
     <use xlink:href="#DejaVuSans-6e" x="1437.382812"/>
     <use xlink:href="#DejaVuSans-6f" x="1500.761719"/>
     <use xlink:href="#DejaVuSans-74" x="1561.943359"/>
    </g>
    <!-- able to fit the data. -->
    <g transform="translate(412.824438 66.60425) scale(0.1 -0.1)">
     <defs>
      <path id="DejaVuSans-62" d="M 3116 1747 
Q 3116 2381 2855 2742 
Q 2594 3103 2138 3103 
Q 1681 3103 1420 2742 
Q 1159 2381 1159 1747 
Q 1159 1113 1420 752 
Q 1681 391 2138 391 
Q 2594 391 2855 752 
Q 3116 1113 3116 1747 
z
M 1159 2969 
Q 1341 3281 1617 3432 
Q 1894 3584 2278 3584 
Q 2916 3584 3314 3078 
Q 3713 2572 3713 1747 
Q 3713 922 3314 415 
Q 2916 -91 2278 -91 
Q 1894 -91 1617 61 
Q 1341 213 1159 525 
L 1159 0 
L 581 0 
L 581 4863 
L 1159 4863 
L 1159 2969 
z
" transform="scale(0.015625)"/>
      <path id="DejaVuSans-68" d="M 3513 2113 
L 3513 0 
L 2938 0 
L 2938 2094 
Q 2938 2591 2744 2837 
Q 2550 3084 2163 3084 
Q 1697 3084 1428 2787 
Q 1159 2491 1159 1978 
L 1159 0 
L 581 0 
L 581 4863 
L 1159 4863 
L 1159 2956 
Q 1366 3272 1645 3428 
Q 1925 3584 2291 3584 
Q 2894 3584 3203 3211 
Q 3513 2838 3513 2113 
z
" transform="scale(0.015625)"/>
     </defs>
     <use xlink:href="#DejaVuSans-61"/>
     <use xlink:href="#DejaVuSans-62" x="61.279297"/>
     <use xlink:href="#DejaVuSans-6c" x="124.755859"/>
     <use xlink:href="#DejaVuSans-65" x="152.539062"/>
     <use xlink:href="#DejaVuSans-20" x="214.0625"/>
     <use xlink:href="#DejaVuSans-74" x="245.849609"/>
     <use xlink:href="#DejaVuSans-6f" x="285.058594"/>
     <use xlink:href="#DejaVuSans-20" x="346.240234"/>
     <use xlink:href="#DejaVuSans-66" x="378.027344"/>
     <use xlink:href="#DejaVuSans-69" x="413.232422"/>
     <use xlink:href="#DejaVuSans-74" x="441.015625"/>
     <use xlink:href="#DejaVuSans-20" x="480.224609"/>
     <use xlink:href="#DejaVuSans-74" x="512.011719"/>
     <use xlink:href="#DejaVuSans-68" x="551.220703"/>
     <use xlink:href="#DejaVuSans-65" x="614.599609"/>
     <use xlink:href="#DejaVuSans-20" x="676.123047"/>
     <use xlink:href="#DejaVuSans-64" x="707.910156"/>
     <use xlink:href="#DejaVuSans-61" x="771.386719"/>
     <use xlink:href="#DejaVuSans-74" x="832.666016"/>
     <use xlink:href="#DejaVuSans-61" x="871.875"/>
     <use xlink:href="#DejaVuSans-2e" x="933.154297"/>
    </g>
   </g>
  </g>
  <g id="axes_2">
   <g id="patch_8">
    <path d="M 37.848438 307.872 
L 394.968438 307.872 
L 394.968438 186.912 
L 37.848438 186.912 
z
" style="fill: #ffffff"/>
   </g>
   <g id="matplotlib.axis_3">
    <g id="xtick_6">
     <g id="line2d_13">
      <g>
       <use xlink:href="#mc40ea4549d" x="86.546619" y="307.872" style="stroke: #000000; stroke-width: 0.8"/>
      </g>
     </g>
     <g id="text_8">
      <!-- 700 -->
      <g transform="translate(77.002869 322.470438) scale(0.1 -0.1)">
       <defs>
        <path id="DejaVuSans-37" d="M 525 4666 
L 3525 4666 
L 3525 4397 
L 1831 0 
L 1172 0 
L 2766 4134 
L 525 4134 
L 525 4666 
z
" transform="scale(0.015625)"/>
       </defs>
       <use xlink:href="#DejaVuSans-37"/>
       <use xlink:href="#DejaVuSans-30" x="63.623047"/>
       <use xlink:href="#DejaVuSans-30" x="127.246094"/>
      </g>
     </g>
    </g>
    <g id="xtick_7">
     <g id="line2d_14">
      <g>
       <use xlink:href="#mc40ea4549d" x="151.477528" y="307.872" style="stroke: #000000; stroke-width: 0.8"/>
      </g>
     </g>
     <g id="text_9">
      <!-- 710 -->
      <g transform="translate(141.933778 322.470438) scale(0.1 -0.1)">
       <use xlink:href="#DejaVuSans-37"/>
       <use xlink:href="#DejaVuSans-31" x="63.623047"/>
       <use xlink:href="#DejaVuSans-30" x="127.246094"/>
      </g>
     </g>
    </g>
    <g id="xtick_8">
     <g id="line2d_15">
      <g>
       <use xlink:href="#mc40ea4549d" x="216.408437" y="307.872" style="stroke: #000000; stroke-width: 0.8"/>
      </g>
     </g>
     <g id="text_10">
      <!-- 720 -->
      <g transform="translate(206.864687 322.470438) scale(0.1 -0.1)">
       <use xlink:href="#DejaVuSans-37"/>
       <use xlink:href="#DejaVuSans-32" x="63.623047"/>
       <use xlink:href="#DejaVuSans-30" x="127.246094"/>
      </g>
     </g>
    </g>
    <g id="xtick_9">
     <g id="line2d_16">
      <g>
       <use xlink:href="#mc40ea4549d" x="281.339347" y="307.872" style="stroke: #000000; stroke-width: 0.8"/>
      </g>
     </g>
     <g id="text_11">
      <!-- 730 -->
      <g transform="translate(271.795597 322.470438) scale(0.1 -0.1)">
       <defs>
        <path id="DejaVuSans-33" d="M 2597 2516 
Q 3050 2419 3304 2112 
Q 3559 1806 3559 1356 
Q 3559 666 3084 287 
Q 2609 -91 1734 -91 
Q 1441 -91 1130 -33 
Q 819 25 488 141 
L 488 750 
Q 750 597 1062 519 
Q 1375 441 1716 441 
Q 2309 441 2620 675 
Q 2931 909 2931 1356 
Q 2931 1769 2642 2001 
Q 2353 2234 1838 2234 
L 1294 2234 
L 1294 2753 
L 1863 2753 
Q 2328 2753 2575 2939 
Q 2822 3125 2822 3475 
Q 2822 3834 2567 4026 
Q 2313 4219 1838 4219 
Q 1578 4219 1281 4162 
Q 984 4106 628 3988 
L 628 4550 
Q 988 4650 1302 4700 
Q 1616 4750 1894 4750 
Q 2613 4750 3031 4423 
Q 3450 4097 3450 3541 
Q 3450 3153 3228 2886 
Q 3006 2619 2597 2516 
z
" transform="scale(0.015625)"/>
       </defs>
       <use xlink:href="#DejaVuSans-37"/>
       <use xlink:href="#DejaVuSans-33" x="63.623047"/>
       <use xlink:href="#DejaVuSans-30" x="127.246094"/>
      </g>
     </g>
    </g>
    <g id="xtick_10">
     <g id="line2d_17">
      <g>
       <use xlink:href="#mc40ea4549d" x="346.270256" y="307.872" style="stroke: #000000; stroke-width: 0.8"/>
      </g>
     </g>
     <g id="text_12">
      <!-- 740 -->
      <g transform="translate(336.726506 322.470438) scale(0.1 -0.1)">
       <use xlink:href="#DejaVuSans-37"/>
       <use xlink:href="#DejaVuSans-34" x="63.623047"/>
       <use xlink:href="#DejaVuSans-30" x="127.246094"/>
      </g>
     </g>
    </g>
    <g id="text_13">
     <!-- Frequency [MHz] -->
     <g transform="translate(174.389688 336.148562) scale(0.1 -0.1)">
      <defs>
       <path id="DejaVuSans-46" d="M 628 4666 
L 3309 4666 
L 3309 4134 
L 1259 4134 
L 1259 2759 
L 3109 2759 
L 3109 2228 
L 1259 2228 
L 1259 0 
L 628 0 
L 628 4666 
z
" transform="scale(0.015625)"/>
       <path id="DejaVuSans-71" d="M 947 1747 
Q 947 1113 1208 752 
Q 1469 391 1925 391 
Q 2381 391 2643 752 
Q 2906 1113 2906 1747 
Q 2906 2381 2643 2742 
Q 2381 3103 1925 3103 
Q 1469 3103 1208 2742 
Q 947 2381 947 1747 
z
M 2906 525 
Q 2725 213 2448 61 
Q 2172 -91 1784 -91 
Q 1150 -91 751 415 
Q 353 922 353 1747 
Q 353 2572 751 3078 
Q 1150 3584 1784 3584 
Q 2172 3584 2448 3432 
Q 2725 3281 2906 2969 
L 2906 3500 
L 3481 3500 
L 3481 -1331 
L 2906 -1331 
L 2906 525 
z
" transform="scale(0.015625)"/>
       <path id="DejaVuSans-75" d="M 544 1381 
L 544 3500 
L 1119 3500 
L 1119 1403 
Q 1119 906 1312 657 
Q 1506 409 1894 409 
Q 2359 409 2629 706 
Q 2900 1003 2900 1516 
L 2900 3500 
L 3475 3500 
L 3475 0 
L 2900 0 
L 2900 538 
Q 2691 219 2414 64 
Q 2138 -91 1772 -91 
Q 1169 -91 856 284 
Q 544 659 544 1381 
z
M 1991 3584 
L 1991 3584 
z
" transform="scale(0.015625)"/>
       <path id="DejaVuSans-63" d="M 3122 3366 
L 3122 2828 
Q 2878 2963 2633 3030 
Q 2388 3097 2138 3097 
Q 1578 3097 1268 2742 
Q 959 2388 959 1747 
Q 959 1106 1268 751 
Q 1578 397 2138 397 
Q 2388 397 2633 464 
Q 2878 531 3122 666 
L 3122 134 
Q 2881 22 2623 -34 
Q 2366 -91 2075 -91 
Q 1284 -91 818 406 
Q 353 903 353 1747 
Q 353 2603 823 3093 
Q 1294 3584 2113 3584 
Q 2378 3584 2631 3529 
Q 2884 3475 3122 3366 
z
" transform="scale(0.015625)"/>
       <path id="DejaVuSans-79" d="M 2059 -325 
Q 1816 -950 1584 -1140 
Q 1353 -1331 966 -1331 
L 506 -1331 
L 506 -850 
L 844 -850 
Q 1081 -850 1212 -737 
Q 1344 -625 1503 -206 
L 1606 56 
L 191 3500 
L 800 3500 
L 1894 763 
L 2988 3500 
L 3597 3500 
L 2059 -325 
z
" transform="scale(0.015625)"/>
       <path id="DejaVuSans-4d" d="M 628 4666 
L 1569 4666 
L 2759 1491 
L 3956 4666 
L 4897 4666 
L 4897 0 
L 4281 0 
L 4281 4097 
L 3078 897 
L 2444 897 
L 1241 4097 
L 1241 0 
L 628 0 
L 628 4666 
z
" transform="scale(0.015625)"/>
       <path id="DejaVuSans-48" d="M 628 4666 
L 1259 4666 
L 1259 2753 
L 3553 2753 
L 3553 4666 
L 4184 4666 
L 4184 0 
L 3553 0 
L 3553 2222 
L 1259 2222 
L 1259 0 
L 628 0 
L 628 4666 
z
" transform="scale(0.015625)"/>
       <path id="DejaVuSans-7a" d="M 353 3500 
L 3084 3500 
L 3084 2975 
L 922 459 
L 3084 459 
L 3084 0 
L 275 0 
L 275 525 
L 2438 3041 
L 353 3041 
L 353 3500 
z
" transform="scale(0.015625)"/>
      </defs>
      <use xlink:href="#DejaVuSans-46"/>
      <use xlink:href="#DejaVuSans-72" x="50.269531"/>
      <use xlink:href="#DejaVuSans-65" x="89.132812"/>
      <use xlink:href="#DejaVuSans-71" x="150.65625"/>
      <use xlink:href="#DejaVuSans-75" x="214.132812"/>
      <use xlink:href="#DejaVuSans-65" x="277.511719"/>
      <use xlink:href="#DejaVuSans-6e" x="339.035156"/>
      <use xlink:href="#DejaVuSans-63" x="402.414062"/>
      <use xlink:href="#DejaVuSans-79" x="457.394531"/>
      <use xlink:href="#DejaVuSans-20" x="516.574219"/>
      <use xlink:href="#DejaVuSans-5b" x="548.361328"/>
      <use xlink:href="#DejaVuSans-4d" x="587.375"/>
      <use xlink:href="#DejaVuSans-48" x="673.654297"/>
      <use xlink:href="#DejaVuSans-7a" x="748.849609"/>
      <use xlink:href="#DejaVuSans-5d" x="801.339844"/>
     </g>
    </g>
    <g id="text_14">
     <!-- +5 GHz -->
     <g transform="translate(356.530938 335.148562) scale(0.1 -0.1)">
      <defs>
       <path id="DejaVuSans-2b" d="M 2944 4013 
L 2944 2272 
L 4684 2272 
L 4684 1741 
L 2944 1741 
L 2944 0 
L 2419 0 
L 2419 1741 
L 678 1741 
L 678 2272 
L 2419 2272 
L 2419 4013 
L 2944 4013 
z
" transform="scale(0.015625)"/>
       <path id="DejaVuSans-35" d="M 691 4666 
L 3169 4666 
L 3169 4134 
L 1269 4134 
L 1269 2991 
Q 1406 3038 1543 3061 
Q 1681 3084 1819 3084 
Q 2600 3084 3056 2656 
Q 3513 2228 3513 1497 
Q 3513 744 3044 326 
Q 2575 -91 1722 -91 
Q 1428 -91 1123 -41 
Q 819 9 494 109 
L 494 744 
Q 775 591 1075 516 
Q 1375 441 1709 441 
Q 2250 441 2565 725 
Q 2881 1009 2881 1497 
Q 2881 1984 2565 2268 
Q 2250 2553 1709 2553 
Q 1456 2553 1204 2497 
Q 953 2441 691 2322 
L 691 4666 
z
" transform="scale(0.015625)"/>
       <path id="DejaVuSans-47" d="M 3809 666 
L 3809 1919 
L 2778 1919 
L 2778 2438 
L 4434 2438 
L 4434 434 
Q 4069 175 3628 42 
Q 3188 -91 2688 -91 
Q 1594 -91 976 548 
Q 359 1188 359 2328 
Q 359 3472 976 4111 
Q 1594 4750 2688 4750 
Q 3144 4750 3555 4637 
Q 3966 4525 4313 4306 
L 4313 3634 
Q 3963 3931 3569 4081 
Q 3175 4231 2741 4231 
Q 1884 4231 1454 3753 
Q 1025 3275 1025 2328 
Q 1025 1384 1454 906 
Q 1884 428 2741 428 
Q 3075 428 3337 486 
Q 3600 544 3809 666 
z
" transform="scale(0.015625)"/>
      </defs>
      <use xlink:href="#DejaVuSans-2b"/>
      <use xlink:href="#DejaVuSans-35" x="83.789062"/>
      <use xlink:href="#DejaVuSans-20" x="147.412109"/>
      <use xlink:href="#DejaVuSans-47" x="179.199219"/>
      <use xlink:href="#DejaVuSans-48" x="256.689453"/>
      <use xlink:href="#DejaVuSans-7a" x="331.884766"/>
     </g>
    </g>
   </g>
   <g id="matplotlib.axis_4">
    <g id="ytick_6">
     <g id="line2d_18">
      <g>
       <use xlink:href="#m0e7ecabb80" x="37.848438" y="300.662607" style="stroke: #000000; stroke-width: 0.8"/>
      </g>
     </g>
     <g id="text_15">
      <!-- -4 -->
      <g transform="translate(20.878125 304.461826) scale(0.1 -0.1)">
       <use xlink:href="#DejaVuSans-2d"/>
       <use xlink:href="#DejaVuSans-34" x="36.083984"/>
      </g>
     </g>
    </g>
    <g id="ytick_7">
     <g id="line2d_19">
      <g>
       <use xlink:href="#m0e7ecabb80" x="37.848438" y="262.325741" style="stroke: #000000; stroke-width: 0.8"/>
      </g>
     </g>
     <g id="text_16">
      <!-- -2 -->
      <g transform="translate(20.878125 266.124959) scale(0.1 -0.1)">
       <use xlink:href="#DejaVuSans-2d"/>
       <use xlink:href="#DejaVuSans-32" x="36.083984"/>
      </g>
     </g>
    </g>
    <g id="ytick_8">
     <g id="line2d_20">
      <g>
       <use xlink:href="#m0e7ecabb80" x="37.848438" y="223.988874" style="stroke: #000000; stroke-width: 0.8"/>
      </g>
     </g>
     <g id="text_17">
      <!-- 0 -->
      <g transform="translate(24.485938 227.788093) scale(0.1 -0.1)">
       <use xlink:href="#DejaVuSans-30"/>
      </g>
     </g>
    </g>
    <g id="text_18">
     <!-- Im$(S_{21})$ [mV] -->
     <g transform="translate(14.798438 279.042) rotate(-90) scale(0.1 -0.1)">
      <defs>
       <path id="DejaVuSans-49" d="M 628 4666 
L 1259 4666 
L 1259 0 
L 628 0 
L 628 4666 
z
" transform="scale(0.015625)"/>
      </defs>
      <use xlink:href="#DejaVuSans-49" transform="translate(0 0.015625)"/>
      <use xlink:href="#DejaVuSans-6d" transform="translate(25.867188 0.015625)"/>
      <use xlink:href="#DejaVuSans-28" transform="translate(123.279297 0.015625)"/>
      <use xlink:href="#DejaVuSans-Oblique-53" transform="translate(162.292969 0.015625)"/>
      <use xlink:href="#DejaVuSans-32" transform="translate(225.769531 -16.390625) scale(0.7)"/>
      <use xlink:href="#DejaVuSans-31" transform="translate(270.305664 -16.390625) scale(0.7)"/>
      <use xlink:href="#DejaVuSans-29" transform="translate(317.576172 0.015625)"/>
      <use xlink:href="#DejaVuSans-20" transform="translate(356.589844 0.015625)"/>
      <use xlink:href="#DejaVuSans-5b" transform="translate(388.376953 0.015625)"/>
      <use xlink:href="#DejaVuSans-6d" transform="translate(427.390625 0.015625)"/>
      <use xlink:href="#DejaVuSans-56" transform="translate(524.802734 0.015625)"/>
      <use xlink:href="#DejaVuSans-5d" transform="translate(593.210938 0.015625)"/>
     </g>
    </g>
   </g>
   <g id="line2d_21">
    <path d="M 54.081165 192.410182 
L 55.712595 193.736891 
L 58.975454 196.879793 
L 60.606884 196.874287 
L 62.238314 197.731534 
L 63.869744 199.300344 
L 65.501174 201.243505 
L 67.132604 200.969927 
L 72.026893 205.228896 
L 73.658323 207.254944 
L 75.289753 207.398885 
L 80.184043 212.681891 
L 81.815473 213.353474 
L 83.446903 215.348888 
L 85.078332 217.541445 
L 86.709762 218.801383 
L 88.341192 219.910315 
L 89.972622 221.66609 
L 91.604052 223.916129 
L 93.235482 224.620369 
L 94.866912 225.47711 
L 96.498342 228.450577 
L 99.761201 231.244182 
L 101.392631 233.194058 
L 104.655491 236.018681 
L 106.286921 237.941986 
L 107.918351 239.294437 
L 111.18121 242.816812 
L 114.44407 245.602547 
L 116.0755 247.371052 
L 117.70693 249.363699 
L 119.33836 250.680267 
L 120.96979 251.475382 
L 124.232649 255.335499 
L 127.495509 257.859233 
L 129.126939 260.800394 
L 130.758369 261.081169 
L 132.389799 262.763304 
L 134.021229 263.596771 
L 137.284088 266.38117 
L 138.915518 268.08084 
L 140.546948 269.121746 
L 142.178378 269.948437 
L 143.809808 271.749067 
L 145.441238 272.269733 
L 147.072668 273.816158 
L 148.704098 274.274861 
L 150.335527 275.57891 
L 153.598387 277.432226 
L 155.229817 279.37992 
L 156.861247 280.052899 
L 158.492677 281.65395 
L 160.124107 281.704526 
L 161.755537 283.118134 
L 163.386967 284.235695 
L 165.018396 285.594163 
L 166.649826 285.868594 
L 173.175546 289.799682 
L 174.806976 289.754935 
L 176.438406 291.348158 
L 178.069835 292.448849 
L 179.701265 293.007871 
L 181.332695 292.574156 
L 182.964125 293.251933 
L 184.595555 294.815865 
L 186.226985 294.708463 
L 187.858415 295.589181 
L 189.489845 297.660467 
L 191.121274 296.800187 
L 192.752704 297.857835 
L 194.384134 297.786925 
L 196.015564 298.807497 
L 199.278424 300.19703 
L 200.909854 300.464911 
L 202.541284 301.222743 
L 204.172713 301.292529 
L 205.804143 302.373818 
L 207.435573 302.133974 
L 209.067003 301.288648 
L 210.698433 297.475998 
L 212.329863 288.426915 
L 213.961293 269.010191 
L 215.592723 253.965485 
L 217.224152 259.403678 
L 218.855582 270.835593 
L 220.487012 279.016244 
L 222.118442 283.536333 
L 223.749872 287.147649 
L 225.381302 289.398222 
L 227.012732 290.625395 
L 228.644162 290.668208 
L 230.275591 292.122344 
L 231.907021 291.985422 
L 233.538451 293.035944 
L 235.169881 292.943221 
L 236.801311 293.225363 
L 240.064171 292.428833 
L 241.695601 292.389874 
L 243.32703 291.349104 
L 244.95846 290.942905 
L 246.58989 292.157839 
L 248.22132 292.065977 
L 249.85275 291.430754 
L 251.48418 290.279178 
L 253.11561 290.869794 
L 254.74704 291.066578 
L 256.378469 289.102736 
L 258.009899 288.256056 
L 259.641329 288.917058 
L 261.272759 288.848386 
L 262.904189 287.218798 
L 264.535619 286.293221 
L 266.167049 285.76681 
L 267.798479 284.761586 
L 269.429908 284.74593 
L 271.061338 284.215581 
L 275.955628 281.342896 
L 277.587058 280.845266 
L 279.218488 279.870878 
L 282.481348 279.018037 
L 284.112777 277.30155 
L 285.744207 276.257942 
L 287.375637 275.994964 
L 289.007067 274.587901 
L 290.638497 273.882021 
L 293.901357 271.194957 
L 295.532787 271.264219 
L 297.164216 270.117971 
L 298.795646 268.653234 
L 300.427076 267.016782 
L 302.058506 266.528867 
L 303.689936 264.844606 
L 305.321366 264.234573 
L 306.952796 262.663403 
L 308.584226 260.644293 
L 310.215655 261.226931 
L 311.847085 259.37891 
L 313.478515 257.700314 
L 315.109945 256.864409 
L 318.372805 255.049237 
L 320.004235 252.932548 
L 321.635665 251.738791 
L 323.267094 251.245941 
L 324.898524 249.984575 
L 326.529954 248.94851 
L 328.161384 246.707227 
L 329.792814 244.725106 
L 331.424244 245.230054 
L 333.055674 242.704045 
L 334.687104 242.27039 
L 336.318533 240.984762 
L 337.949963 238.947954 
L 339.581393 237.422659 
L 341.212823 237.526283 
L 342.844253 236.110263 
L 344.475683 234.385268 
L 346.107113 231.578675 
L 347.738543 230.54143 
L 349.369972 229.232002 
L 351.001402 228.768242 
L 355.895692 224.436963 
L 357.527122 222.742687 
L 359.158552 222.495464 
L 360.789982 220.417075 
L 362.421411 219.363523 
L 365.684271 216.624651 
L 370.578561 212.751556 
L 372.209991 210.764242 
L 373.841421 210.537255 
L 375.47285 209.733169 
L 378.73571 205.79605 
L 378.73571 205.79605 
" clip-path="url(#pf7f672d645)" style="fill: none; stroke: #1f77b4; stroke-width: 1.5; stroke-linecap: square"/>
    <g clip-path="url(#pf7f672d645)">
     <use xlink:href="#m8bf1b5a9a7" x="54.081165" y="192.410182" style="fill: #1f77b4; stroke: #1f77b4"/>
     <use xlink:href="#m8bf1b5a9a7" x="55.712595" y="193.736891" style="fill: #1f77b4; stroke: #1f77b4"/>
     <use xlink:href="#m8bf1b5a9a7" x="57.344025" y="195.31059" style="fill: #1f77b4; stroke: #1f77b4"/>
     <use xlink:href="#m8bf1b5a9a7" x="58.975454" y="196.879793" style="fill: #1f77b4; stroke: #1f77b4"/>
     <use xlink:href="#m8bf1b5a9a7" x="60.606884" y="196.874287" style="fill: #1f77b4; stroke: #1f77b4"/>
     <use xlink:href="#m8bf1b5a9a7" x="62.238314" y="197.731534" style="fill: #1f77b4; stroke: #1f77b4"/>
     <use xlink:href="#m8bf1b5a9a7" x="63.869744" y="199.300344" style="fill: #1f77b4; stroke: #1f77b4"/>
     <use xlink:href="#m8bf1b5a9a7" x="65.501174" y="201.243505" style="fill: #1f77b4; stroke: #1f77b4"/>
     <use xlink:href="#m8bf1b5a9a7" x="67.132604" y="200.969927" style="fill: #1f77b4; stroke: #1f77b4"/>
     <use xlink:href="#m8bf1b5a9a7" x="68.764034" y="202.341968" style="fill: #1f77b4; stroke: #1f77b4"/>
     <use xlink:href="#m8bf1b5a9a7" x="70.395464" y="203.767118" style="fill: #1f77b4; stroke: #1f77b4"/>
     <use xlink:href="#m8bf1b5a9a7" x="72.026893" y="205.228896" style="fill: #1f77b4; stroke: #1f77b4"/>
     <use xlink:href="#m8bf1b5a9a7" x="73.658323" y="207.254944" style="fill: #1f77b4; stroke: #1f77b4"/>
     <use xlink:href="#m8bf1b5a9a7" x="75.289753" y="207.398885" style="fill: #1f77b4; stroke: #1f77b4"/>
     <use xlink:href="#m8bf1b5a9a7" x="76.921183" y="209.110246" style="fill: #1f77b4; stroke: #1f77b4"/>
     <use xlink:href="#m8bf1b5a9a7" x="78.552613" y="210.952682" style="fill: #1f77b4; stroke: #1f77b4"/>
     <use xlink:href="#m8bf1b5a9a7" x="80.184043" y="212.681891" style="fill: #1f77b4; stroke: #1f77b4"/>
     <use xlink:href="#m8bf1b5a9a7" x="81.815473" y="213.353474" style="fill: #1f77b4; stroke: #1f77b4"/>
     <use xlink:href="#m8bf1b5a9a7" x="83.446903" y="215.348888" style="fill: #1f77b4; stroke: #1f77b4"/>
     <use xlink:href="#m8bf1b5a9a7" x="85.078332" y="217.541445" style="fill: #1f77b4; stroke: #1f77b4"/>
     <use xlink:href="#m8bf1b5a9a7" x="86.709762" y="218.801383" style="fill: #1f77b4; stroke: #1f77b4"/>
     <use xlink:href="#m8bf1b5a9a7" x="88.341192" y="219.910315" style="fill: #1f77b4; stroke: #1f77b4"/>
     <use xlink:href="#m8bf1b5a9a7" x="89.972622" y="221.66609" style="fill: #1f77b4; stroke: #1f77b4"/>
     <use xlink:href="#m8bf1b5a9a7" x="91.604052" y="223.916129" style="fill: #1f77b4; stroke: #1f77b4"/>
     <use xlink:href="#m8bf1b5a9a7" x="93.235482" y="224.620369" style="fill: #1f77b4; stroke: #1f77b4"/>
     <use xlink:href="#m8bf1b5a9a7" x="94.866912" y="225.47711" style="fill: #1f77b4; stroke: #1f77b4"/>
     <use xlink:href="#m8bf1b5a9a7" x="96.498342" y="228.450577" style="fill: #1f77b4; stroke: #1f77b4"/>
     <use xlink:href="#m8bf1b5a9a7" x="98.129771" y="229.822483" style="fill: #1f77b4; stroke: #1f77b4"/>
     <use xlink:href="#m8bf1b5a9a7" x="99.761201" y="231.244182" style="fill: #1f77b4; stroke: #1f77b4"/>
     <use xlink:href="#m8bf1b5a9a7" x="101.392631" y="233.194058" style="fill: #1f77b4; stroke: #1f77b4"/>
     <use xlink:href="#m8bf1b5a9a7" x="103.024061" y="234.659399" style="fill: #1f77b4; stroke: #1f77b4"/>
     <use xlink:href="#m8bf1b5a9a7" x="104.655491" y="236.018681" style="fill: #1f77b4; stroke: #1f77b4"/>
     <use xlink:href="#m8bf1b5a9a7" x="106.286921" y="237.941986" style="fill: #1f77b4; stroke: #1f77b4"/>
     <use xlink:href="#m8bf1b5a9a7" x="107.918351" y="239.294437" style="fill: #1f77b4; stroke: #1f77b4"/>
     <use xlink:href="#m8bf1b5a9a7" x="109.549781" y="241.021408" style="fill: #1f77b4; stroke: #1f77b4"/>
     <use xlink:href="#m8bf1b5a9a7" x="111.18121" y="242.816812" style="fill: #1f77b4; stroke: #1f77b4"/>
     <use xlink:href="#m8bf1b5a9a7" x="112.81264" y="244.156374" style="fill: #1f77b4; stroke: #1f77b4"/>
     <use xlink:href="#m8bf1b5a9a7" x="114.44407" y="245.602547" style="fill: #1f77b4; stroke: #1f77b4"/>
     <use xlink:href="#m8bf1b5a9a7" x="116.0755" y="247.371052" style="fill: #1f77b4; stroke: #1f77b4"/>
     <use xlink:href="#m8bf1b5a9a7" x="117.70693" y="249.363699" style="fill: #1f77b4; stroke: #1f77b4"/>
     <use xlink:href="#m8bf1b5a9a7" x="119.33836" y="250.680267" style="fill: #1f77b4; stroke: #1f77b4"/>
     <use xlink:href="#m8bf1b5a9a7" x="120.96979" y="251.475382" style="fill: #1f77b4; stroke: #1f77b4"/>
     <use xlink:href="#m8bf1b5a9a7" x="122.60122" y="253.479584" style="fill: #1f77b4; stroke: #1f77b4"/>
     <use xlink:href="#m8bf1b5a9a7" x="124.232649" y="255.335499" style="fill: #1f77b4; stroke: #1f77b4"/>
     <use xlink:href="#m8bf1b5a9a7" x="125.864079" y="256.58001" style="fill: #1f77b4; stroke: #1f77b4"/>
     <use xlink:href="#m8bf1b5a9a7" x="127.495509" y="257.859233" style="fill: #1f77b4; stroke: #1f77b4"/>
     <use xlink:href="#m8bf1b5a9a7" x="129.126939" y="260.800394" style="fill: #1f77b4; stroke: #1f77b4"/>
     <use xlink:href="#m8bf1b5a9a7" x="130.758369" y="261.081169" style="fill: #1f77b4; stroke: #1f77b4"/>
     <use xlink:href="#m8bf1b5a9a7" x="132.389799" y="262.763304" style="fill: #1f77b4; stroke: #1f77b4"/>
     <use xlink:href="#m8bf1b5a9a7" x="134.021229" y="263.596771" style="fill: #1f77b4; stroke: #1f77b4"/>
     <use xlink:href="#m8bf1b5a9a7" x="135.652659" y="265.024814" style="fill: #1f77b4; stroke: #1f77b4"/>
     <use xlink:href="#m8bf1b5a9a7" x="137.284088" y="266.38117" style="fill: #1f77b4; stroke: #1f77b4"/>
     <use xlink:href="#m8bf1b5a9a7" x="138.915518" y="268.08084" style="fill: #1f77b4; stroke: #1f77b4"/>
     <use xlink:href="#m8bf1b5a9a7" x="140.546948" y="269.121746" style="fill: #1f77b4; stroke: #1f77b4"/>
     <use xlink:href="#m8bf1b5a9a7" x="142.178378" y="269.948437" style="fill: #1f77b4; stroke: #1f77b4"/>
     <use xlink:href="#m8bf1b5a9a7" x="143.809808" y="271.749067" style="fill: #1f77b4; stroke: #1f77b4"/>
     <use xlink:href="#m8bf1b5a9a7" x="145.441238" y="272.269733" style="fill: #1f77b4; stroke: #1f77b4"/>
     <use xlink:href="#m8bf1b5a9a7" x="147.072668" y="273.816158" style="fill: #1f77b4; stroke: #1f77b4"/>
     <use xlink:href="#m8bf1b5a9a7" x="148.704098" y="274.274861" style="fill: #1f77b4; stroke: #1f77b4"/>
     <use xlink:href="#m8bf1b5a9a7" x="150.335527" y="275.57891" style="fill: #1f77b4; stroke: #1f77b4"/>
     <use xlink:href="#m8bf1b5a9a7" x="151.966957" y="276.570031" style="fill: #1f77b4; stroke: #1f77b4"/>
     <use xlink:href="#m8bf1b5a9a7" x="153.598387" y="277.432226" style="fill: #1f77b4; stroke: #1f77b4"/>
     <use xlink:href="#m8bf1b5a9a7" x="155.229817" y="279.37992" style="fill: #1f77b4; stroke: #1f77b4"/>
     <use xlink:href="#m8bf1b5a9a7" x="156.861247" y="280.052899" style="fill: #1f77b4; stroke: #1f77b4"/>
     <use xlink:href="#m8bf1b5a9a7" x="158.492677" y="281.65395" style="fill: #1f77b4; stroke: #1f77b4"/>
     <use xlink:href="#m8bf1b5a9a7" x="160.124107" y="281.704526" style="fill: #1f77b4; stroke: #1f77b4"/>
     <use xlink:href="#m8bf1b5a9a7" x="161.755537" y="283.118134" style="fill: #1f77b4; stroke: #1f77b4"/>
     <use xlink:href="#m8bf1b5a9a7" x="163.386967" y="284.235695" style="fill: #1f77b4; stroke: #1f77b4"/>
     <use xlink:href="#m8bf1b5a9a7" x="165.018396" y="285.594163" style="fill: #1f77b4; stroke: #1f77b4"/>
     <use xlink:href="#m8bf1b5a9a7" x="166.649826" y="285.868594" style="fill: #1f77b4; stroke: #1f77b4"/>
     <use xlink:href="#m8bf1b5a9a7" x="168.281256" y="286.856559" style="fill: #1f77b4; stroke: #1f77b4"/>
     <use xlink:href="#m8bf1b5a9a7" x="169.912686" y="287.78937" style="fill: #1f77b4; stroke: #1f77b4"/>
     <use xlink:href="#m8bf1b5a9a7" x="171.544116" y="288.765303" style="fill: #1f77b4; stroke: #1f77b4"/>
     <use xlink:href="#m8bf1b5a9a7" x="173.175546" y="289.799682" style="fill: #1f77b4; stroke: #1f77b4"/>
     <use xlink:href="#m8bf1b5a9a7" x="174.806976" y="289.754935" style="fill: #1f77b4; stroke: #1f77b4"/>
     <use xlink:href="#m8bf1b5a9a7" x="176.438406" y="291.348158" style="fill: #1f77b4; stroke: #1f77b4"/>
     <use xlink:href="#m8bf1b5a9a7" x="178.069835" y="292.448849" style="fill: #1f77b4; stroke: #1f77b4"/>
     <use xlink:href="#m8bf1b5a9a7" x="179.701265" y="293.007871" style="fill: #1f77b4; stroke: #1f77b4"/>
     <use xlink:href="#m8bf1b5a9a7" x="181.332695" y="292.574156" style="fill: #1f77b4; stroke: #1f77b4"/>
     <use xlink:href="#m8bf1b5a9a7" x="182.964125" y="293.251933" style="fill: #1f77b4; stroke: #1f77b4"/>
     <use xlink:href="#m8bf1b5a9a7" x="184.595555" y="294.815865" style="fill: #1f77b4; stroke: #1f77b4"/>
     <use xlink:href="#m8bf1b5a9a7" x="186.226985" y="294.708463" style="fill: #1f77b4; stroke: #1f77b4"/>
     <use xlink:href="#m8bf1b5a9a7" x="187.858415" y="295.589181" style="fill: #1f77b4; stroke: #1f77b4"/>
     <use xlink:href="#m8bf1b5a9a7" x="189.489845" y="297.660467" style="fill: #1f77b4; stroke: #1f77b4"/>
     <use xlink:href="#m8bf1b5a9a7" x="191.121274" y="296.800187" style="fill: #1f77b4; stroke: #1f77b4"/>
     <use xlink:href="#m8bf1b5a9a7" x="192.752704" y="297.857835" style="fill: #1f77b4; stroke: #1f77b4"/>
     <use xlink:href="#m8bf1b5a9a7" x="194.384134" y="297.786925" style="fill: #1f77b4; stroke: #1f77b4"/>
     <use xlink:href="#m8bf1b5a9a7" x="196.015564" y="298.807497" style="fill: #1f77b4; stroke: #1f77b4"/>
     <use xlink:href="#m8bf1b5a9a7" x="197.646994" y="299.543684" style="fill: #1f77b4; stroke: #1f77b4"/>
     <use xlink:href="#m8bf1b5a9a7" x="199.278424" y="300.19703" style="fill: #1f77b4; stroke: #1f77b4"/>
     <use xlink:href="#m8bf1b5a9a7" x="200.909854" y="300.464911" style="fill: #1f77b4; stroke: #1f77b4"/>
     <use xlink:href="#m8bf1b5a9a7" x="202.541284" y="301.222743" style="fill: #1f77b4; stroke: #1f77b4"/>
     <use xlink:href="#m8bf1b5a9a7" x="204.172713" y="301.292529" style="fill: #1f77b4; stroke: #1f77b4"/>
     <use xlink:href="#m8bf1b5a9a7" x="205.804143" y="302.373818" style="fill: #1f77b4; stroke: #1f77b4"/>
     <use xlink:href="#m8bf1b5a9a7" x="207.435573" y="302.133974" style="fill: #1f77b4; stroke: #1f77b4"/>
     <use xlink:href="#m8bf1b5a9a7" x="209.067003" y="301.288648" style="fill: #1f77b4; stroke: #1f77b4"/>
     <use xlink:href="#m8bf1b5a9a7" x="210.698433" y="297.475998" style="fill: #1f77b4; stroke: #1f77b4"/>
     <use xlink:href="#m8bf1b5a9a7" x="212.329863" y="288.426915" style="fill: #1f77b4; stroke: #1f77b4"/>
     <use xlink:href="#m8bf1b5a9a7" x="213.961293" y="269.010191" style="fill: #1f77b4; stroke: #1f77b4"/>
     <use xlink:href="#m8bf1b5a9a7" x="215.592723" y="253.965485" style="fill: #1f77b4; stroke: #1f77b4"/>
     <use xlink:href="#m8bf1b5a9a7" x="217.224152" y="259.403678" style="fill: #1f77b4; stroke: #1f77b4"/>
     <use xlink:href="#m8bf1b5a9a7" x="218.855582" y="270.835593" style="fill: #1f77b4; stroke: #1f77b4"/>
     <use xlink:href="#m8bf1b5a9a7" x="220.487012" y="279.016244" style="fill: #1f77b4; stroke: #1f77b4"/>
     <use xlink:href="#m8bf1b5a9a7" x="222.118442" y="283.536333" style="fill: #1f77b4; stroke: #1f77b4"/>
     <use xlink:href="#m8bf1b5a9a7" x="223.749872" y="287.147649" style="fill: #1f77b4; stroke: #1f77b4"/>
     <use xlink:href="#m8bf1b5a9a7" x="225.381302" y="289.398222" style="fill: #1f77b4; stroke: #1f77b4"/>
     <use xlink:href="#m8bf1b5a9a7" x="227.012732" y="290.625395" style="fill: #1f77b4; stroke: #1f77b4"/>
     <use xlink:href="#m8bf1b5a9a7" x="228.644162" y="290.668208" style="fill: #1f77b4; stroke: #1f77b4"/>
     <use xlink:href="#m8bf1b5a9a7" x="230.275591" y="292.122344" style="fill: #1f77b4; stroke: #1f77b4"/>
     <use xlink:href="#m8bf1b5a9a7" x="231.907021" y="291.985422" style="fill: #1f77b4; stroke: #1f77b4"/>
     <use xlink:href="#m8bf1b5a9a7" x="233.538451" y="293.035944" style="fill: #1f77b4; stroke: #1f77b4"/>
     <use xlink:href="#m8bf1b5a9a7" x="235.169881" y="292.943221" style="fill: #1f77b4; stroke: #1f77b4"/>
     <use xlink:href="#m8bf1b5a9a7" x="236.801311" y="293.225363" style="fill: #1f77b4; stroke: #1f77b4"/>
     <use xlink:href="#m8bf1b5a9a7" x="238.432741" y="292.862871" style="fill: #1f77b4; stroke: #1f77b4"/>
     <use xlink:href="#m8bf1b5a9a7" x="240.064171" y="292.428833" style="fill: #1f77b4; stroke: #1f77b4"/>
     <use xlink:href="#m8bf1b5a9a7" x="241.695601" y="292.389874" style="fill: #1f77b4; stroke: #1f77b4"/>
     <use xlink:href="#m8bf1b5a9a7" x="243.32703" y="291.349104" style="fill: #1f77b4; stroke: #1f77b4"/>
     <use xlink:href="#m8bf1b5a9a7" x="244.95846" y="290.942905" style="fill: #1f77b4; stroke: #1f77b4"/>
     <use xlink:href="#m8bf1b5a9a7" x="246.58989" y="292.157839" style="fill: #1f77b4; stroke: #1f77b4"/>
     <use xlink:href="#m8bf1b5a9a7" x="248.22132" y="292.065977" style="fill: #1f77b4; stroke: #1f77b4"/>
     <use xlink:href="#m8bf1b5a9a7" x="249.85275" y="291.430754" style="fill: #1f77b4; stroke: #1f77b4"/>
     <use xlink:href="#m8bf1b5a9a7" x="251.48418" y="290.279178" style="fill: #1f77b4; stroke: #1f77b4"/>
     <use xlink:href="#m8bf1b5a9a7" x="253.11561" y="290.869794" style="fill: #1f77b4; stroke: #1f77b4"/>
     <use xlink:href="#m8bf1b5a9a7" x="254.74704" y="291.066578" style="fill: #1f77b4; stroke: #1f77b4"/>
     <use xlink:href="#m8bf1b5a9a7" x="256.378469" y="289.102736" style="fill: #1f77b4; stroke: #1f77b4"/>
     <use xlink:href="#m8bf1b5a9a7" x="258.009899" y="288.256056" style="fill: #1f77b4; stroke: #1f77b4"/>
     <use xlink:href="#m8bf1b5a9a7" x="259.641329" y="288.917058" style="fill: #1f77b4; stroke: #1f77b4"/>
     <use xlink:href="#m8bf1b5a9a7" x="261.272759" y="288.848386" style="fill: #1f77b4; stroke: #1f77b4"/>
     <use xlink:href="#m8bf1b5a9a7" x="262.904189" y="287.218798" style="fill: #1f77b4; stroke: #1f77b4"/>
     <use xlink:href="#m8bf1b5a9a7" x="264.535619" y="286.293221" style="fill: #1f77b4; stroke: #1f77b4"/>
     <use xlink:href="#m8bf1b5a9a7" x="266.167049" y="285.76681" style="fill: #1f77b4; stroke: #1f77b4"/>
     <use xlink:href="#m8bf1b5a9a7" x="267.798479" y="284.761586" style="fill: #1f77b4; stroke: #1f77b4"/>
     <use xlink:href="#m8bf1b5a9a7" x="269.429908" y="284.74593" style="fill: #1f77b4; stroke: #1f77b4"/>
     <use xlink:href="#m8bf1b5a9a7" x="271.061338" y="284.215581" style="fill: #1f77b4; stroke: #1f77b4"/>
     <use xlink:href="#m8bf1b5a9a7" x="272.692768" y="283.269188" style="fill: #1f77b4; stroke: #1f77b4"/>
     <use xlink:href="#m8bf1b5a9a7" x="274.324198" y="282.326807" style="fill: #1f77b4; stroke: #1f77b4"/>
     <use xlink:href="#m8bf1b5a9a7" x="275.955628" y="281.342896" style="fill: #1f77b4; stroke: #1f77b4"/>
     <use xlink:href="#m8bf1b5a9a7" x="277.587058" y="280.845266" style="fill: #1f77b4; stroke: #1f77b4"/>
     <use xlink:href="#m8bf1b5a9a7" x="279.218488" y="279.870878" style="fill: #1f77b4; stroke: #1f77b4"/>
     <use xlink:href="#m8bf1b5a9a7" x="280.849918" y="279.406486" style="fill: #1f77b4; stroke: #1f77b4"/>
     <use xlink:href="#m8bf1b5a9a7" x="282.481348" y="279.018037" style="fill: #1f77b4; stroke: #1f77b4"/>
     <use xlink:href="#m8bf1b5a9a7" x="284.112777" y="277.30155" style="fill: #1f77b4; stroke: #1f77b4"/>
     <use xlink:href="#m8bf1b5a9a7" x="285.744207" y="276.257942" style="fill: #1f77b4; stroke: #1f77b4"/>
     <use xlink:href="#m8bf1b5a9a7" x="287.375637" y="275.994964" style="fill: #1f77b4; stroke: #1f77b4"/>
     <use xlink:href="#m8bf1b5a9a7" x="289.007067" y="274.587901" style="fill: #1f77b4; stroke: #1f77b4"/>
     <use xlink:href="#m8bf1b5a9a7" x="290.638497" y="273.882021" style="fill: #1f77b4; stroke: #1f77b4"/>
     <use xlink:href="#m8bf1b5a9a7" x="292.269927" y="272.573235" style="fill: #1f77b4; stroke: #1f77b4"/>
     <use xlink:href="#m8bf1b5a9a7" x="293.901357" y="271.194957" style="fill: #1f77b4; stroke: #1f77b4"/>
     <use xlink:href="#m8bf1b5a9a7" x="295.532787" y="271.264219" style="fill: #1f77b4; stroke: #1f77b4"/>
     <use xlink:href="#m8bf1b5a9a7" x="297.164216" y="270.117971" style="fill: #1f77b4; stroke: #1f77b4"/>
     <use xlink:href="#m8bf1b5a9a7" x="298.795646" y="268.653234" style="fill: #1f77b4; stroke: #1f77b4"/>
     <use xlink:href="#m8bf1b5a9a7" x="300.427076" y="267.016782" style="fill: #1f77b4; stroke: #1f77b4"/>
     <use xlink:href="#m8bf1b5a9a7" x="302.058506" y="266.528867" style="fill: #1f77b4; stroke: #1f77b4"/>
     <use xlink:href="#m8bf1b5a9a7" x="303.689936" y="264.844606" style="fill: #1f77b4; stroke: #1f77b4"/>
     <use xlink:href="#m8bf1b5a9a7" x="305.321366" y="264.234573" style="fill: #1f77b4; stroke: #1f77b4"/>
     <use xlink:href="#m8bf1b5a9a7" x="306.952796" y="262.663403" style="fill: #1f77b4; stroke: #1f77b4"/>
     <use xlink:href="#m8bf1b5a9a7" x="308.584226" y="260.644293" style="fill: #1f77b4; stroke: #1f77b4"/>
     <use xlink:href="#m8bf1b5a9a7" x="310.215655" y="261.226931" style="fill: #1f77b4; stroke: #1f77b4"/>
     <use xlink:href="#m8bf1b5a9a7" x="311.847085" y="259.37891" style="fill: #1f77b4; stroke: #1f77b4"/>
     <use xlink:href="#m8bf1b5a9a7" x="313.478515" y="257.700314" style="fill: #1f77b4; stroke: #1f77b4"/>
     <use xlink:href="#m8bf1b5a9a7" x="315.109945" y="256.864409" style="fill: #1f77b4; stroke: #1f77b4"/>
     <use xlink:href="#m8bf1b5a9a7" x="316.741375" y="255.897564" style="fill: #1f77b4; stroke: #1f77b4"/>
     <use xlink:href="#m8bf1b5a9a7" x="318.372805" y="255.049237" style="fill: #1f77b4; stroke: #1f77b4"/>
     <use xlink:href="#m8bf1b5a9a7" x="320.004235" y="252.932548" style="fill: #1f77b4; stroke: #1f77b4"/>
     <use xlink:href="#m8bf1b5a9a7" x="321.635665" y="251.738791" style="fill: #1f77b4; stroke: #1f77b4"/>
     <use xlink:href="#m8bf1b5a9a7" x="323.267094" y="251.245941" style="fill: #1f77b4; stroke: #1f77b4"/>
     <use xlink:href="#m8bf1b5a9a7" x="324.898524" y="249.984575" style="fill: #1f77b4; stroke: #1f77b4"/>
     <use xlink:href="#m8bf1b5a9a7" x="326.529954" y="248.94851" style="fill: #1f77b4; stroke: #1f77b4"/>
     <use xlink:href="#m8bf1b5a9a7" x="328.161384" y="246.707227" style="fill: #1f77b4; stroke: #1f77b4"/>
     <use xlink:href="#m8bf1b5a9a7" x="329.792814" y="244.725106" style="fill: #1f77b4; stroke: #1f77b4"/>
     <use xlink:href="#m8bf1b5a9a7" x="331.424244" y="245.230054" style="fill: #1f77b4; stroke: #1f77b4"/>
     <use xlink:href="#m8bf1b5a9a7" x="333.055674" y="242.704045" style="fill: #1f77b4; stroke: #1f77b4"/>
     <use xlink:href="#m8bf1b5a9a7" x="334.687104" y="242.27039" style="fill: #1f77b4; stroke: #1f77b4"/>
     <use xlink:href="#m8bf1b5a9a7" x="336.318533" y="240.984762" style="fill: #1f77b4; stroke: #1f77b4"/>
     <use xlink:href="#m8bf1b5a9a7" x="337.949963" y="238.947954" style="fill: #1f77b4; stroke: #1f77b4"/>
     <use xlink:href="#m8bf1b5a9a7" x="339.581393" y="237.422659" style="fill: #1f77b4; stroke: #1f77b4"/>
     <use xlink:href="#m8bf1b5a9a7" x="341.212823" y="237.526283" style="fill: #1f77b4; stroke: #1f77b4"/>
     <use xlink:href="#m8bf1b5a9a7" x="342.844253" y="236.110263" style="fill: #1f77b4; stroke: #1f77b4"/>
     <use xlink:href="#m8bf1b5a9a7" x="344.475683" y="234.385268" style="fill: #1f77b4; stroke: #1f77b4"/>
     <use xlink:href="#m8bf1b5a9a7" x="346.107113" y="231.578675" style="fill: #1f77b4; stroke: #1f77b4"/>
     <use xlink:href="#m8bf1b5a9a7" x="347.738543" y="230.54143" style="fill: #1f77b4; stroke: #1f77b4"/>
     <use xlink:href="#m8bf1b5a9a7" x="349.369972" y="229.232002" style="fill: #1f77b4; stroke: #1f77b4"/>
     <use xlink:href="#m8bf1b5a9a7" x="351.001402" y="228.768242" style="fill: #1f77b4; stroke: #1f77b4"/>
     <use xlink:href="#m8bf1b5a9a7" x="352.632832" y="227.371208" style="fill: #1f77b4; stroke: #1f77b4"/>
     <use xlink:href="#m8bf1b5a9a7" x="354.264262" y="226.110263" style="fill: #1f77b4; stroke: #1f77b4"/>
     <use xlink:href="#m8bf1b5a9a7" x="355.895692" y="224.436963" style="fill: #1f77b4; stroke: #1f77b4"/>
     <use xlink:href="#m8bf1b5a9a7" x="357.527122" y="222.742687" style="fill: #1f77b4; stroke: #1f77b4"/>
     <use xlink:href="#m8bf1b5a9a7" x="359.158552" y="222.495464" style="fill: #1f77b4; stroke: #1f77b4"/>
     <use xlink:href="#m8bf1b5a9a7" x="360.789982" y="220.417075" style="fill: #1f77b4; stroke: #1f77b4"/>
     <use xlink:href="#m8bf1b5a9a7" x="362.421411" y="219.363523" style="fill: #1f77b4; stroke: #1f77b4"/>
     <use xlink:href="#m8bf1b5a9a7" x="364.052841" y="217.985797" style="fill: #1f77b4; stroke: #1f77b4"/>
     <use xlink:href="#m8bf1b5a9a7" x="365.684271" y="216.624651" style="fill: #1f77b4; stroke: #1f77b4"/>
     <use xlink:href="#m8bf1b5a9a7" x="367.315701" y="215.376901" style="fill: #1f77b4; stroke: #1f77b4"/>
     <use xlink:href="#m8bf1b5a9a7" x="368.947131" y="214.195738" style="fill: #1f77b4; stroke: #1f77b4"/>
     <use xlink:href="#m8bf1b5a9a7" x="370.578561" y="212.751556" style="fill: #1f77b4; stroke: #1f77b4"/>
     <use xlink:href="#m8bf1b5a9a7" x="372.209991" y="210.764242" style="fill: #1f77b4; stroke: #1f77b4"/>
     <use xlink:href="#m8bf1b5a9a7" x="373.841421" y="210.537255" style="fill: #1f77b4; stroke: #1f77b4"/>
     <use xlink:href="#m8bf1b5a9a7" x="375.47285" y="209.733169" style="fill: #1f77b4; stroke: #1f77b4"/>
     <use xlink:href="#m8bf1b5a9a7" x="377.10428" y="207.805323" style="fill: #1f77b4; stroke: #1f77b4"/>
     <use xlink:href="#m8bf1b5a9a7" x="378.73571" y="205.79605" style="fill: #1f77b4; stroke: #1f77b4"/>
    </g>
   </g>
   <g id="line2d_22">
    <path d="M 54.081165 195.237415 
L 62.530632 202.111677 
L 72.280018 210.337981 
L 85.604179 221.897628 
L 110.627602 243.655139 
L 120.701967 252.085582 
L 129.151435 258.878066 
L 136.950944 264.862455 
L 144.100493 270.065413 
L 150.600084 274.53177 
L 157.099674 278.724341 
L 163.274285 282.437023 
L 169.123917 285.700581 
L 174.973548 288.711631 
L 180.82318 291.470525 
L 186.672811 293.985167 
L 192.847422 296.390021 
L 198.372074 298.314513 
L 201.946849 299.356143 
L 204.221705 299.792595 
L 205.521623 299.857148 
L 206.496562 299.740742 
L 207.471501 299.392435 
L 208.12146 298.965148 
L 208.771419 298.310583 
L 209.421378 297.33849 
L 210.071337 295.921303 
L 210.721296 293.882438 
L 211.371255 290.989418 
L 212.021214 286.969394 
L 212.671173 281.586501 
L 213.646112 271.099057 
L 214.62105 260.254058 
L 215.271009 255.421742 
L 215.595989 254.197082 
L 215.920968 253.79833 
L 216.245948 254.145792 
L 216.570927 255.106397 
L 217.220886 258.251685 
L 219.495743 271.230726 
L 220.470682 275.417584 
L 221.44562 278.700017 
L 222.420559 281.267155 
L 223.395497 283.289561 
L 224.370436 284.899463 
L 225.670354 286.569332 
L 226.970272 287.838862 
L 228.27019 288.815607 
L 229.895088 289.733193 
L 231.519985 290.399855 
L 233.469863 290.953968 
L 235.744719 291.346326 
L 238.344555 291.542552 
L 241.269371 291.516922 
L 244.519166 291.247295 
L 248.093941 290.711778 
L 251.993695 289.886917 
L 256.218429 288.74701 
L 260.443163 287.378303 
L 264.992876 285.671247 
L 269.867569 283.594789 
L 274.742262 281.280425 
L 279.941935 278.567378 
L 285.466587 275.427352 
L 291.316218 271.834944 
L 297.490829 267.768914 
L 303.990419 263.2136 
L 310.81499 258.160481 
L 318.289519 252.351979 
L 326.738986 245.501747 
L 336.813352 237.039219 
L 351.76241 224.152278 
L 371.261181 207.383567 
L 378.73571 201.145031 
L 378.73571 201.145031 
" clip-path="url(#pf7f672d645)" style="fill: none; stroke: #d62728; stroke-width: 1.5; stroke-linecap: square"/>
   </g>
   <g id="patch_9">
    <path d="M 37.848438 307.872 
L 37.848438 186.912 
" style="fill: none; stroke: #000000; stroke-width: 0.8; stroke-linejoin: miter; stroke-linecap: square"/>
   </g>
   <g id="patch_10">
    <path d="M 394.968438 307.872 
L 394.968438 186.912 
" style="fill: none; stroke: #000000; stroke-width: 0.8; stroke-linejoin: miter; stroke-linecap: square"/>
   </g>
   <g id="patch_11">
    <path d="M 37.848437 307.872 
L 394.968437 307.872 
" style="fill: none; stroke: #000000; stroke-width: 0.8; stroke-linejoin: miter; stroke-linecap: square"/>
   </g>
   <g id="patch_12">
    <path d="M 37.848437 186.912 
L 394.968437 186.912 
" style="fill: none; stroke: #000000; stroke-width: 0.8; stroke-linejoin: miter; stroke-linecap: square"/>
   </g>
  </g>
  <g id="text_19">
   <!-- S21 One-tone -->
   <g transform="translate(169.3975 16.318125) scale(0.12 -0.12)">
    <defs>
     <path id="DejaVuSans-53" d="M 3425 4513 
L 3425 3897 
Q 3066 4069 2747 4153 
Q 2428 4238 2131 4238 
Q 1616 4238 1336 4038 
Q 1056 3838 1056 3469 
Q 1056 3159 1242 3001 
Q 1428 2844 1947 2747 
L 2328 2669 
Q 3034 2534 3370 2195 
Q 3706 1856 3706 1288 
Q 3706 609 3251 259 
Q 2797 -91 1919 -91 
Q 1588 -91 1214 -16 
Q 841 59 441 206 
L 441 856 
Q 825 641 1194 531 
Q 1563 422 1919 422 
Q 2459 422 2753 634 
Q 3047 847 3047 1241 
Q 3047 1584 2836 1778 
Q 2625 1972 2144 2069 
L 1759 2144 
Q 1053 2284 737 2584 
Q 422 2884 422 3419 
Q 422 4038 858 4394 
Q 1294 4750 2059 4750 
Q 2388 4750 2728 4690 
Q 3069 4631 3425 4513 
z
" transform="scale(0.015625)"/>
     <path id="DejaVuSans-4f" d="M 2522 4238 
Q 1834 4238 1429 3725 
Q 1025 3213 1025 2328 
Q 1025 1447 1429 934 
Q 1834 422 2522 422 
Q 3209 422 3611 934 
Q 4013 1447 4013 2328 
Q 4013 3213 3611 3725 
Q 3209 4238 2522 4238 
z
M 2522 4750 
Q 3503 4750 4090 4092 
Q 4678 3434 4678 2328 
Q 4678 1225 4090 567 
Q 3503 -91 2522 -91 
Q 1538 -91 948 565 
Q 359 1222 359 2328 
Q 359 3434 948 4092 
Q 1538 4750 2522 4750 
z
" transform="scale(0.015625)"/>
    </defs>
    <use xlink:href="#DejaVuSans-53"/>
    <use xlink:href="#DejaVuSans-32" x="63.476562"/>
    <use xlink:href="#DejaVuSans-31" x="127.099609"/>
    <use xlink:href="#DejaVuSans-20" x="190.722656"/>
    <use xlink:href="#DejaVuSans-4f" x="222.509766"/>
    <use xlink:href="#DejaVuSans-6e" x="301.220703"/>
    <use xlink:href="#DejaVuSans-65" x="364.599609"/>
    <use xlink:href="#DejaVuSans-2d" x="426.123047"/>
    <use xlink:href="#DejaVuSans-74" x="462.207031"/>
    <use xlink:href="#DejaVuSans-6f" x="501.416016"/>
    <use xlink:href="#DejaVuSans-6e" x="562.597656"/>
    <use xlink:href="#DejaVuSans-65" x="625.976562"/>
   </g>
   <!-- tuid: 20240222-165159-648-183d57 -->
   <g transform="translate(100.801563 29.7555) scale(0.12 -0.12)">
    <defs>
     <path id="DejaVuSans-36" d="M 2113 2584 
Q 1688 2584 1439 2293 
Q 1191 2003 1191 1497 
Q 1191 994 1439 701 
Q 1688 409 2113 409 
Q 2538 409 2786 701 
Q 3034 994 3034 1497 
Q 3034 2003 2786 2293 
Q 2538 2584 2113 2584 
z
M 3366 4563 
L 3366 3988 
Q 3128 4100 2886 4159 
Q 2644 4219 2406 4219 
Q 1781 4219 1451 3797 
Q 1122 3375 1075 2522 
Q 1259 2794 1537 2939 
Q 1816 3084 2150 3084 
Q 2853 3084 3261 2657 
Q 3669 2231 3669 1497 
Q 3669 778 3244 343 
Q 2819 -91 2113 -91 
Q 1303 -91 875 529 
Q 447 1150 447 2328 
Q 447 3434 972 4092 
Q 1497 4750 2381 4750 
Q 2619 4750 2861 4703 
Q 3103 4656 3366 4563 
z
" transform="scale(0.015625)"/>
     <path id="DejaVuSans-39" d="M 703 97 
L 703 672 
Q 941 559 1184 500 
Q 1428 441 1663 441 
Q 2288 441 2617 861 
Q 2947 1281 2994 2138 
Q 2813 1869 2534 1725 
Q 2256 1581 1919 1581 
Q 1219 1581 811 2004 
Q 403 2428 403 3163 
Q 403 3881 828 4315 
Q 1253 4750 1959 4750 
Q 2769 4750 3195 4129 
Q 3622 3509 3622 2328 
Q 3622 1225 3098 567 
Q 2575 -91 1691 -91 
Q 1453 -91 1209 -44 
Q 966 3 703 97 
z
M 1959 2075 
Q 2384 2075 2632 2365 
Q 2881 2656 2881 3163 
Q 2881 3666 2632 3958 
Q 2384 4250 1959 4250 
Q 1534 4250 1286 3958 
Q 1038 3666 1038 3163 
Q 1038 2656 1286 2365 
Q 1534 2075 1959 2075 
z
" transform="scale(0.015625)"/>
     <path id="DejaVuSans-38" d="M 2034 2216 
Q 1584 2216 1326 1975 
Q 1069 1734 1069 1313 
Q 1069 891 1326 650 
Q 1584 409 2034 409 
Q 2484 409 2743 651 
Q 3003 894 3003 1313 
Q 3003 1734 2745 1975 
Q 2488 2216 2034 2216 
z
M 1403 2484 
Q 997 2584 770 2862 
Q 544 3141 544 3541 
Q 544 4100 942 4425 
Q 1341 4750 2034 4750 
Q 2731 4750 3128 4425 
Q 3525 4100 3525 3541 
Q 3525 3141 3298 2862 
Q 3072 2584 2669 2484 
Q 3125 2378 3379 2068 
Q 3634 1759 3634 1313 
Q 3634 634 3220 271 
Q 2806 -91 2034 -91 
Q 1263 -91 848 271 
Q 434 634 434 1313 
Q 434 1759 690 2068 
Q 947 2378 1403 2484 
z
M 1172 3481 
Q 1172 3119 1398 2916 
Q 1625 2713 2034 2713 
Q 2441 2713 2670 2916 
Q 2900 3119 2900 3481 
Q 2900 3844 2670 4047 
Q 2441 4250 2034 4250 
Q 1625 4250 1398 4047 
Q 1172 3844 1172 3481 
z
" transform="scale(0.015625)"/>
    </defs>
    <use xlink:href="#DejaVuSans-74"/>
    <use xlink:href="#DejaVuSans-75" x="39.208984"/>
    <use xlink:href="#DejaVuSans-69" x="102.587891"/>
    <use xlink:href="#DejaVuSans-64" x="130.371094"/>
    <use xlink:href="#DejaVuSans-3a" x="193.847656"/>
    <use xlink:href="#DejaVuSans-20" x="227.539062"/>
    <use xlink:href="#DejaVuSans-32" x="259.326172"/>
    <use xlink:href="#DejaVuSans-30" x="322.949219"/>
    <use xlink:href="#DejaVuSans-32" x="386.572266"/>
    <use xlink:href="#DejaVuSans-34" x="450.195312"/>
    <use xlink:href="#DejaVuSans-30" x="513.818359"/>
    <use xlink:href="#DejaVuSans-32" x="577.441406"/>
    <use xlink:href="#DejaVuSans-32" x="641.064453"/>
    <use xlink:href="#DejaVuSans-32" x="704.6875"/>
    <use xlink:href="#DejaVuSans-2d" x="768.310547"/>
    <use xlink:href="#DejaVuSans-31" x="804.394531"/>
    <use xlink:href="#DejaVuSans-36" x="868.017578"/>
    <use xlink:href="#DejaVuSans-35" x="931.640625"/>
    <use xlink:href="#DejaVuSans-31" x="995.263672"/>
    <use xlink:href="#DejaVuSans-35" x="1058.886719"/>
    <use xlink:href="#DejaVuSans-39" x="1122.509766"/>
    <use xlink:href="#DejaVuSans-2d" x="1186.132812"/>
    <use xlink:href="#DejaVuSans-36" x="1222.216797"/>
    <use xlink:href="#DejaVuSans-34" x="1285.839844"/>
    <use xlink:href="#DejaVuSans-38" x="1349.462891"/>
    <use xlink:href="#DejaVuSans-2d" x="1413.085938"/>
    <use xlink:href="#DejaVuSans-31" x="1449.169922"/>
    <use xlink:href="#DejaVuSans-38" x="1512.792969"/>
    <use xlink:href="#DejaVuSans-33" x="1576.416016"/>
    <use xlink:href="#DejaVuSans-64" x="1640.039062"/>
    <use xlink:href="#DejaVuSans-35" x="1703.515625"/>
    <use xlink:href="#DejaVuSans-37" x="1767.138672"/>
   </g>
  </g>
 </g>
 <defs>
  <clipPath id="p11374f322e">
   <rect x="37.848438" y="41.76" width="357.12" height="120.96"/>
  </clipPath>
  <clipPath id="pf7f672d645">
   <rect x="37.848438" y="186.912" width="357.12" height="120.96"/>
  </clipPath>
 </defs>
</svg>
