<?xml version="1.0" encoding="utf-8" standalone="no"?>
<!DOCTYPE svg PUBLIC "-//W3C//DTD SVG 1.1//EN"
  "http://www.w3.org/Graphics/SVG/1.1/DTD/svg11.dtd">
<svg xmlns:xlink="http://www.w3.org/1999/xlink" width="640.6635pt" height="345.42825pt" viewBox="0 0 640.6635 345.42825" xmlns="http://www.w3.org/2000/svg" version="1.1">
 <metadata>
  <rdf:RDF xmlns:dc="http://purl.org/dc/elements/1.1/" xmlns:cc="http://creativecommons.org/ns#" xmlns:rdf="http://www.w3.org/1999/02/22-rdf-syntax-ns#">
   <cc:Work>
    <dc:type rdf:resource="http://purl.org/dc/dcmitype/StillImage"/>
    <dc:date>2024-02-23T10:47:48.576632</dc:date>
    <dc:format>image/svg+xml</dc:format>
    <dc:creator>
     <cc:Agent>
      <dc:title>Matplotlib v3.8.2, https://matplotlib.org/</dc:title>
     </cc:Agent>
    </dc:creator>
   </cc:Work>
  </rdf:RDF>
 </metadata>
 <defs>
  <style type="text/css">*{stroke-linejoin: round; stroke-linecap: butt}</style>
 </defs>
 <g id="figure_1">
  <g id="patch_1">
   <path d="M 0 345.42825 
L 640.6635 345.42825 
L 640.6635 -0 
L 0 -0 
L 0 345.42825 
z
" style="fill: none; opacity: 0"/>
  </g>
  <g id="axes_1">
   <g id="patch_2">
    <path d="M 40.603125 307.872 
L 397.723125 307.872 
L 397.723125 41.76 
L 40.603125 41.76 
z
" style="fill: #ffffff"/>
   </g>
   <g id="matplotlib.axis_1">
    <g id="xtick_1">
     <g id="line2d_1">
      <defs>
       <path id="m3beeb183ec" d="M 0 0 
L 0 3.5 
" style="stroke: #000000; stroke-width: 0.8"/>
      </defs>
      <g>
       <use xlink:href="#m3beeb183ec" x="44.319441" y="307.872" style="stroke: #000000; stroke-width: 0.8"/>
      </g>
     </g>
     <g id="text_1">
      <!-- 777 -->
      <g transform="translate(34.775691 322.470438) scale(0.1 -0.1)">
       <defs>
        <path id="DejaVuSans-37" d="M 525 4666 
L 3525 4666 
L 3525 4397 
L 1831 0 
L 1172 0 
L 2766 4134 
L 525 4134 
L 525 4666 
z
" transform="scale(0.015625)"/>
       </defs>
       <use xlink:href="#DejaVuSans-37"/>
       <use xlink:href="#DejaVuSans-37" x="63.623047"/>
       <use xlink:href="#DejaVuSans-37" x="127.246094"/>
      </g>
     </g>
    </g>
    <g id="xtick_2">
     <g id="line2d_2">
      <g>
       <use xlink:href="#m3beeb183ec" x="98.428532" y="307.872" style="stroke: #000000; stroke-width: 0.8"/>
      </g>
     </g>
     <g id="text_2">
      <!-- 778 -->
      <g transform="translate(88.884782 322.470438) scale(0.1 -0.1)">
       <defs>
        <path id="DejaVuSans-38" d="M 2034 2216 
Q 1584 2216 1326 1975 
Q 1069 1734 1069 1313 
Q 1069 891 1326 650 
Q 1584 409 2034 409 
Q 2484 409 2743 651 
Q 3003 894 3003 1313 
Q 3003 1734 2745 1975 
Q 2488 2216 2034 2216 
z
M 1403 2484 
Q 997 2584 770 2862 
Q 544 3141 544 3541 
Q 544 4100 942 4425 
Q 1341 4750 2034 4750 
Q 2731 4750 3128 4425 
Q 3525 4100 3525 3541 
Q 3525 3141 3298 2862 
Q 3072 2584 2669 2484 
Q 3125 2378 3379 2068 
Q 3634 1759 3634 1313 
Q 3634 634 3220 271 
Q 2806 -91 2034 -91 
Q 1263 -91 848 271 
Q 434 634 434 1313 
Q 434 1759 690 2068 
Q 947 2378 1403 2484 
z
M 1172 3481 
Q 1172 3119 1398 2916 
Q 1625 2713 2034 2713 
Q 2441 2713 2670 2916 
Q 2900 3119 2900 3481 
Q 2900 3844 2670 4047 
Q 2441 4250 2034 4250 
Q 1625 4250 1398 4047 
Q 1172 3844 1172 3481 
z
" transform="scale(0.015625)"/>
       </defs>
       <use xlink:href="#DejaVuSans-37"/>
       <use xlink:href="#DejaVuSans-37" x="63.623047"/>
       <use xlink:href="#DejaVuSans-38" x="127.246094"/>
      </g>
     </g>
    </g>
    <g id="xtick_3">
     <g id="line2d_3">
      <g>
       <use xlink:href="#m3beeb183ec" x="152.537623" y="307.872" style="stroke: #000000; stroke-width: 0.8"/>
      </g>
     </g>
     <g id="text_3">
      <!-- 779 -->
      <g transform="translate(142.993873 322.470438) scale(0.1 -0.1)">
       <defs>
        <path id="DejaVuSans-39" d="M 703 97 
L 703 672 
Q 941 559 1184 500 
Q 1428 441 1663 441 
Q 2288 441 2617 861 
Q 2947 1281 2994 2138 
Q 2813 1869 2534 1725 
Q 2256 1581 1919 1581 
Q 1219 1581 811 2004 
Q 403 2428 403 3163 
Q 403 3881 828 4315 
Q 1253 4750 1959 4750 
Q 2769 4750 3195 4129 
Q 3622 3509 3622 2328 
Q 3622 1225 3098 567 
Q 2575 -91 1691 -91 
Q 1453 -91 1209 -44 
Q 966 3 703 97 
z
M 1959 2075 
Q 2384 2075 2632 2365 
Q 2881 2656 2881 3163 
Q 2881 3666 2632 3958 
Q 2384 4250 1959 4250 
Q 1534 4250 1286 3958 
Q 1038 3666 1038 3163 
Q 1038 2656 1286 2365 
Q 1534 2075 1959 2075 
z
" transform="scale(0.015625)"/>
       </defs>
       <use xlink:href="#DejaVuSans-37"/>
       <use xlink:href="#DejaVuSans-37" x="63.623047"/>
       <use xlink:href="#DejaVuSans-39" x="127.246094"/>
      </g>
     </g>
    </g>
    <g id="xtick_4">
     <g id="line2d_4">
      <g>
       <use xlink:href="#m3beeb183ec" x="206.646713" y="307.872" style="stroke: #000000; stroke-width: 0.8"/>
      </g>
     </g>
     <g id="text_4">
      <!-- 780 -->
      <g transform="translate(197.102963 322.470438) scale(0.1 -0.1)">
       <defs>
        <path id="DejaVuSans-30" d="M 2034 4250 
Q 1547 4250 1301 3770 
Q 1056 3291 1056 2328 
Q 1056 1369 1301 889 
Q 1547 409 2034 409 
Q 2525 409 2770 889 
Q 3016 1369 3016 2328 
Q 3016 3291 2770 3770 
Q 2525 4250 2034 4250 
z
M 2034 4750 
Q 2819 4750 3233 4129 
Q 3647 3509 3647 2328 
Q 3647 1150 3233 529 
Q 2819 -91 2034 -91 
Q 1250 -91 836 529 
Q 422 1150 422 2328 
Q 422 3509 836 4129 
Q 1250 4750 2034 4750 
z
" transform="scale(0.015625)"/>
       </defs>
       <use xlink:href="#DejaVuSans-37"/>
       <use xlink:href="#DejaVuSans-38" x="63.623047"/>
       <use xlink:href="#DejaVuSans-30" x="127.246094"/>
      </g>
     </g>
    </g>
    <g id="xtick_5">
     <g id="line2d_5">
      <g>
       <use xlink:href="#m3beeb183ec" x="260.755804" y="307.872" style="stroke: #000000; stroke-width: 0.8"/>
      </g>
     </g>
     <g id="text_5">
      <!-- 781 -->
      <g transform="translate(251.212054 322.470438) scale(0.1 -0.1)">
       <defs>
        <path id="DejaVuSans-31" d="M 794 531 
L 1825 531 
L 1825 4091 
L 703 3866 
L 703 4441 
L 1819 4666 
L 2450 4666 
L 2450 531 
L 3481 531 
L 3481 0 
L 794 0 
L 794 531 
z
" transform="scale(0.015625)"/>
       </defs>
       <use xlink:href="#DejaVuSans-37"/>
       <use xlink:href="#DejaVuSans-38" x="63.623047"/>
       <use xlink:href="#DejaVuSans-31" x="127.246094"/>
      </g>
     </g>
    </g>
    <g id="xtick_6">
     <g id="line2d_6">
      <g>
       <use xlink:href="#m3beeb183ec" x="314.864895" y="307.872" style="stroke: #000000; stroke-width: 0.8"/>
      </g>
     </g>
     <g id="text_6">
      <!-- 782 -->
      <g transform="translate(305.321145 322.470438) scale(0.1 -0.1)">
       <defs>
        <path id="DejaVuSans-32" d="M 1228 531 
L 3431 531 
L 3431 0 
L 469 0 
L 469 531 
Q 828 903 1448 1529 
Q 2069 2156 2228 2338 
Q 2531 2678 2651 2914 
Q 2772 3150 2772 3378 
Q 2772 3750 2511 3984 
Q 2250 4219 1831 4219 
Q 1534 4219 1204 4116 
Q 875 4013 500 3803 
L 500 4441 
Q 881 4594 1212 4672 
Q 1544 4750 1819 4750 
Q 2544 4750 2975 4387 
Q 3406 4025 3406 3419 
Q 3406 3131 3298 2873 
Q 3191 2616 2906 2266 
Q 2828 2175 2409 1742 
Q 1991 1309 1228 531 
z
" transform="scale(0.015625)"/>
       </defs>
       <use xlink:href="#DejaVuSans-37"/>
       <use xlink:href="#DejaVuSans-38" x="63.623047"/>
       <use xlink:href="#DejaVuSans-32" x="127.246094"/>
      </g>
     </g>
    </g>
    <g id="xtick_7">
     <g id="line2d_7">
      <g>
       <use xlink:href="#m3beeb183ec" x="368.973986" y="307.872" style="stroke: #000000; stroke-width: 0.8"/>
      </g>
     </g>
     <g id="text_7">
      <!-- 783 -->
      <g transform="translate(359.430236 322.470438) scale(0.1 -0.1)">
       <defs>
        <path id="DejaVuSans-33" d="M 2597 2516 
Q 3050 2419 3304 2112 
Q 3559 1806 3559 1356 
Q 3559 666 3084 287 
Q 2609 -91 1734 -91 
Q 1441 -91 1130 -33 
Q 819 25 488 141 
L 488 750 
Q 750 597 1062 519 
Q 1375 441 1716 441 
Q 2309 441 2620 675 
Q 2931 909 2931 1356 
Q 2931 1769 2642 2001 
Q 2353 2234 1838 2234 
L 1294 2234 
L 1294 2753 
L 1863 2753 
Q 2328 2753 2575 2939 
Q 2822 3125 2822 3475 
Q 2822 3834 2567 4026 
Q 2313 4219 1838 4219 
Q 1578 4219 1281 4162 
Q 984 4106 628 3988 
L 628 4550 
Q 988 4650 1302 4700 
Q 1616 4750 1894 4750 
Q 2613 4750 3031 4423 
Q 3450 4097 3450 3541 
Q 3450 3153 3228 2886 
Q 3006 2619 2597 2516 
z
" transform="scale(0.015625)"/>
       </defs>
       <use xlink:href="#DejaVuSans-37"/>
       <use xlink:href="#DejaVuSans-38" x="63.623047"/>
       <use xlink:href="#DejaVuSans-33" x="127.246094"/>
      </g>
     </g>
    </g>
    <g id="text_8">
     <!-- Frequency [MHz] -->
     <g transform="translate(177.144375 336.148562) scale(0.1 -0.1)">
      <defs>
       <path id="DejaVuSans-46" d="M 628 4666 
L 3309 4666 
L 3309 4134 
L 1259 4134 
L 1259 2759 
L 3109 2759 
L 3109 2228 
L 1259 2228 
L 1259 0 
L 628 0 
L 628 4666 
z
" transform="scale(0.015625)"/>
       <path id="DejaVuSans-72" d="M 2631 2963 
Q 2534 3019 2420 3045 
Q 2306 3072 2169 3072 
Q 1681 3072 1420 2755 
Q 1159 2438 1159 1844 
L 1159 0 
L 581 0 
L 581 3500 
L 1159 3500 
L 1159 2956 
Q 1341 3275 1631 3429 
Q 1922 3584 2338 3584 
Q 2397 3584 2469 3576 
Q 2541 3569 2628 3553 
L 2631 2963 
z
" transform="scale(0.015625)"/>
       <path id="DejaVuSans-65" d="M 3597 1894 
L 3597 1613 
L 953 1613 
Q 991 1019 1311 708 
Q 1631 397 2203 397 
Q 2534 397 2845 478 
Q 3156 559 3463 722 
L 3463 178 
Q 3153 47 2828 -22 
Q 2503 -91 2169 -91 
Q 1331 -91 842 396 
Q 353 884 353 1716 
Q 353 2575 817 3079 
Q 1281 3584 2069 3584 
Q 2775 3584 3186 3129 
Q 3597 2675 3597 1894 
z
M 3022 2063 
Q 3016 2534 2758 2815 
Q 2500 3097 2075 3097 
Q 1594 3097 1305 2825 
Q 1016 2553 972 2059 
L 3022 2063 
z
" transform="scale(0.015625)"/>
       <path id="DejaVuSans-71" d="M 947 1747 
Q 947 1113 1208 752 
Q 1469 391 1925 391 
Q 2381 391 2643 752 
Q 2906 1113 2906 1747 
Q 2906 2381 2643 2742 
Q 2381 3103 1925 3103 
Q 1469 3103 1208 2742 
Q 947 2381 947 1747 
z
M 2906 525 
Q 2725 213 2448 61 
Q 2172 -91 1784 -91 
Q 1150 -91 751 415 
Q 353 922 353 1747 
Q 353 2572 751 3078 
Q 1150 3584 1784 3584 
Q 2172 3584 2448 3432 
Q 2725 3281 2906 2969 
L 2906 3500 
L 3481 3500 
L 3481 -1331 
L 2906 -1331 
L 2906 525 
z
" transform="scale(0.015625)"/>
       <path id="DejaVuSans-75" d="M 544 1381 
L 544 3500 
L 1119 3500 
L 1119 1403 
Q 1119 906 1312 657 
Q 1506 409 1894 409 
Q 2359 409 2629 706 
Q 2900 1003 2900 1516 
L 2900 3500 
L 3475 3500 
L 3475 0 
L 2900 0 
L 2900 538 
Q 2691 219 2414 64 
Q 2138 -91 1772 -91 
Q 1169 -91 856 284 
Q 544 659 544 1381 
z
M 1991 3584 
L 1991 3584 
z
" transform="scale(0.015625)"/>
       <path id="DejaVuSans-6e" d="M 3513 2113 
L 3513 0 
L 2938 0 
L 2938 2094 
Q 2938 2591 2744 2837 
Q 2550 3084 2163 3084 
Q 1697 3084 1428 2787 
Q 1159 2491 1159 1978 
L 1159 0 
L 581 0 
L 581 3500 
L 1159 3500 
L 1159 2956 
Q 1366 3272 1645 3428 
Q 1925 3584 2291 3584 
Q 2894 3584 3203 3211 
Q 3513 2838 3513 2113 
z
" transform="scale(0.015625)"/>
       <path id="DejaVuSans-63" d="M 3122 3366 
L 3122 2828 
Q 2878 2963 2633 3030 
Q 2388 3097 2138 3097 
Q 1578 3097 1268 2742 
Q 959 2388 959 1747 
Q 959 1106 1268 751 
Q 1578 397 2138 397 
Q 2388 397 2633 464 
Q 2878 531 3122 666 
L 3122 134 
Q 2881 22 2623 -34 
Q 2366 -91 2075 -91 
Q 1284 -91 818 406 
Q 353 903 353 1747 
Q 353 2603 823 3093 
Q 1294 3584 2113 3584 
Q 2378 3584 2631 3529 
Q 2884 3475 3122 3366 
z
" transform="scale(0.015625)"/>
       <path id="DejaVuSans-79" d="M 2059 -325 
Q 1816 -950 1584 -1140 
Q 1353 -1331 966 -1331 
L 506 -1331 
L 506 -850 
L 844 -850 
Q 1081 -850 1212 -737 
Q 1344 -625 1503 -206 
L 1606 56 
L 191 3500 
L 800 3500 
L 1894 763 
L 2988 3500 
L 3597 3500 
L 2059 -325 
z
" transform="scale(0.015625)"/>
       <path id="DejaVuSans-20" transform="scale(0.015625)"/>
       <path id="DejaVuSans-5b" d="M 550 4863 
L 1875 4863 
L 1875 4416 
L 1125 4416 
L 1125 -397 
L 1875 -397 
L 1875 -844 
L 550 -844 
L 550 4863 
z
" transform="scale(0.015625)"/>
       <path id="DejaVuSans-4d" d="M 628 4666 
L 1569 4666 
L 2759 1491 
L 3956 4666 
L 4897 4666 
L 4897 0 
L 4281 0 
L 4281 4097 
L 3078 897 
L 2444 897 
L 1241 4097 
L 1241 0 
L 628 0 
L 628 4666 
z
" transform="scale(0.015625)"/>
       <path id="DejaVuSans-48" d="M 628 4666 
L 1259 4666 
L 1259 2753 
L 3553 2753 
L 3553 4666 
L 4184 4666 
L 4184 0 
L 3553 0 
L 3553 2222 
L 1259 2222 
L 1259 0 
L 628 0 
L 628 4666 
z
" transform="scale(0.015625)"/>
       <path id="DejaVuSans-7a" d="M 353 3500 
L 3084 3500 
L 3084 2975 
L 922 459 
L 3084 459 
L 3084 0 
L 275 0 
L 275 525 
L 2438 3041 
L 353 3041 
L 353 3500 
z
" transform="scale(0.015625)"/>
       <path id="DejaVuSans-5d" d="M 1947 4863 
L 1947 -844 
L 622 -844 
L 622 -397 
L 1369 -397 
L 1369 4416 
L 622 4416 
L 622 4863 
L 1947 4863 
z
" transform="scale(0.015625)"/>
      </defs>
      <use xlink:href="#DejaVuSans-46"/>
      <use xlink:href="#DejaVuSans-72" x="50.269531"/>
      <use xlink:href="#DejaVuSans-65" x="89.132812"/>
      <use xlink:href="#DejaVuSans-71" x="150.65625"/>
      <use xlink:href="#DejaVuSans-75" x="214.132812"/>
      <use xlink:href="#DejaVuSans-65" x="277.511719"/>
      <use xlink:href="#DejaVuSans-6e" x="339.035156"/>
      <use xlink:href="#DejaVuSans-63" x="402.414062"/>
      <use xlink:href="#DejaVuSans-79" x="457.394531"/>
      <use xlink:href="#DejaVuSans-20" x="516.574219"/>
      <use xlink:href="#DejaVuSans-5b" x="548.361328"/>
      <use xlink:href="#DejaVuSans-4d" x="587.375"/>
      <use xlink:href="#DejaVuSans-48" x="673.654297"/>
      <use xlink:href="#DejaVuSans-7a" x="748.849609"/>
      <use xlink:href="#DejaVuSans-5d" x="801.339844"/>
     </g>
    </g>
    <g id="text_9">
     <!-- +5 GHz -->
     <g transform="translate(359.285625 335.148562) scale(0.1 -0.1)">
      <defs>
       <path id="DejaVuSans-2b" d="M 2944 4013 
L 2944 2272 
L 4684 2272 
L 4684 1741 
L 2944 1741 
L 2944 0 
L 2419 0 
L 2419 1741 
L 678 1741 
L 678 2272 
L 2419 2272 
L 2419 4013 
L 2944 4013 
z
" transform="scale(0.015625)"/>
       <path id="DejaVuSans-35" d="M 691 4666 
L 3169 4666 
L 3169 4134 
L 1269 4134 
L 1269 2991 
Q 1406 3038 1543 3061 
Q 1681 3084 1819 3084 
Q 2600 3084 3056 2656 
Q 3513 2228 3513 1497 
Q 3513 744 3044 326 
Q 2575 -91 1722 -91 
Q 1428 -91 1123 -41 
Q 819 9 494 109 
L 494 744 
Q 775 591 1075 516 
Q 1375 441 1709 441 
Q 2250 441 2565 725 
Q 2881 1009 2881 1497 
Q 2881 1984 2565 2268 
Q 2250 2553 1709 2553 
Q 1456 2553 1204 2497 
Q 953 2441 691 2322 
L 691 4666 
z
" transform="scale(0.015625)"/>
       <path id="DejaVuSans-47" d="M 3809 666 
L 3809 1919 
L 2778 1919 
L 2778 2438 
L 4434 2438 
L 4434 434 
Q 4069 175 3628 42 
Q 3188 -91 2688 -91 
Q 1594 -91 976 548 
Q 359 1188 359 2328 
Q 359 3472 976 4111 
Q 1594 4750 2688 4750 
Q 3144 4750 3555 4637 
Q 3966 4525 4313 4306 
L 4313 3634 
Q 3963 3931 3569 4081 
Q 3175 4231 2741 4231 
Q 1884 4231 1454 3753 
Q 1025 3275 1025 2328 
Q 1025 1384 1454 906 
Q 1884 428 2741 428 
Q 3075 428 3337 486 
Q 3600 544 3809 666 
z
" transform="scale(0.015625)"/>
      </defs>
      <use xlink:href="#DejaVuSans-2b"/>
      <use xlink:href="#DejaVuSans-35" x="83.789062"/>
      <use xlink:href="#DejaVuSans-20" x="147.412109"/>
      <use xlink:href="#DejaVuSans-47" x="179.199219"/>
      <use xlink:href="#DejaVuSans-48" x="256.689453"/>
      <use xlink:href="#DejaVuSans-7a" x="331.884766"/>
     </g>
    </g>
   </g>
   <g id="matplotlib.axis_2">
    <g id="ytick_1">
     <g id="line2d_8">
      <defs>
       <path id="m74123ae1fb" d="M 0 0 
L -3.5 0 
" style="stroke: #000000; stroke-width: 0.8"/>
      </defs>
      <g>
       <use xlink:href="#m74123ae1fb" x="40.603125" y="291.460225" style="stroke: #000000; stroke-width: 0.8"/>
      </g>
     </g>
     <g id="text_10">
      <!-- 5 -->
      <g transform="translate(27.240625 295.259443) scale(0.1 -0.1)">
       <use xlink:href="#DejaVuSans-35"/>
      </g>
     </g>
    </g>
    <g id="ytick_2">
     <g id="line2d_9">
      <g>
       <use xlink:href="#m74123ae1fb" x="40.603125" y="249.120673" style="stroke: #000000; stroke-width: 0.8"/>
      </g>
     </g>
     <g id="text_11">
      <!-- 10 -->
      <g transform="translate(20.878125 252.919891) scale(0.1 -0.1)">
       <use xlink:href="#DejaVuSans-31"/>
       <use xlink:href="#DejaVuSans-30" x="63.623047"/>
      </g>
     </g>
    </g>
    <g id="ytick_3">
     <g id="line2d_10">
      <g>
       <use xlink:href="#m74123ae1fb" x="40.603125" y="206.781121" style="stroke: #000000; stroke-width: 0.8"/>
      </g>
     </g>
     <g id="text_12">
      <!-- 15 -->
      <g transform="translate(20.878125 210.58034) scale(0.1 -0.1)">
       <use xlink:href="#DejaVuSans-31"/>
       <use xlink:href="#DejaVuSans-35" x="63.623047"/>
      </g>
     </g>
    </g>
    <g id="ytick_4">
     <g id="line2d_11">
      <g>
       <use xlink:href="#m74123ae1fb" x="40.603125" y="164.441569" style="stroke: #000000; stroke-width: 0.8"/>
      </g>
     </g>
     <g id="text_13">
      <!-- 20 -->
      <g transform="translate(20.878125 168.240788) scale(0.1 -0.1)">
       <use xlink:href="#DejaVuSans-32"/>
       <use xlink:href="#DejaVuSans-30" x="63.623047"/>
      </g>
     </g>
    </g>
    <g id="ytick_5">
     <g id="line2d_12">
      <g>
       <use xlink:href="#m74123ae1fb" x="40.603125" y="122.102017" style="stroke: #000000; stroke-width: 0.8"/>
      </g>
     </g>
     <g id="text_14">
      <!-- 25 -->
      <g transform="translate(20.878125 125.901236) scale(0.1 -0.1)">
       <use xlink:href="#DejaVuSans-32"/>
       <use xlink:href="#DejaVuSans-35" x="63.623047"/>
      </g>
     </g>
    </g>
    <g id="ytick_6">
     <g id="line2d_13">
      <g>
       <use xlink:href="#m74123ae1fb" x="40.603125" y="79.762465" style="stroke: #000000; stroke-width: 0.8"/>
      </g>
     </g>
     <g id="text_15">
      <!-- 30 -->
      <g transform="translate(20.878125 83.561684) scale(0.1 -0.1)">
       <use xlink:href="#DejaVuSans-33"/>
       <use xlink:href="#DejaVuSans-30" x="63.623047"/>
      </g>
     </g>
    </g>
    <g id="text_16">
     <!-- Magnitude0 [mV] -->
     <g transform="translate(14.798438 218.268344) rotate(-90) scale(0.1 -0.1)">
      <defs>
       <path id="DejaVuSans-61" d="M 2194 1759 
Q 1497 1759 1228 1600 
Q 959 1441 959 1056 
Q 959 750 1161 570 
Q 1363 391 1709 391 
Q 2188 391 2477 730 
Q 2766 1069 2766 1631 
L 2766 1759 
L 2194 1759 
z
M 3341 1997 
L 3341 0 
L 2766 0 
L 2766 531 
Q 2569 213 2275 61 
Q 1981 -91 1556 -91 
Q 1019 -91 701 211 
Q 384 513 384 1019 
Q 384 1609 779 1909 
Q 1175 2209 1959 2209 
L 2766 2209 
L 2766 2266 
Q 2766 2663 2505 2880 
Q 2244 3097 1772 3097 
Q 1472 3097 1187 3025 
Q 903 2953 641 2809 
L 641 3341 
Q 956 3463 1253 3523 
Q 1550 3584 1831 3584 
Q 2591 3584 2966 3190 
Q 3341 2797 3341 1997 
z
" transform="scale(0.015625)"/>
       <path id="DejaVuSans-67" d="M 2906 1791 
Q 2906 2416 2648 2759 
Q 2391 3103 1925 3103 
Q 1463 3103 1205 2759 
Q 947 2416 947 1791 
Q 947 1169 1205 825 
Q 1463 481 1925 481 
Q 2391 481 2648 825 
Q 2906 1169 2906 1791 
z
M 3481 434 
Q 3481 -459 3084 -895 
Q 2688 -1331 1869 -1331 
Q 1566 -1331 1297 -1286 
Q 1028 -1241 775 -1147 
L 775 -588 
Q 1028 -725 1275 -790 
Q 1522 -856 1778 -856 
Q 2344 -856 2625 -561 
Q 2906 -266 2906 331 
L 2906 616 
Q 2728 306 2450 153 
Q 2172 0 1784 0 
Q 1141 0 747 490 
Q 353 981 353 1791 
Q 353 2603 747 3093 
Q 1141 3584 1784 3584 
Q 2172 3584 2450 3431 
Q 2728 3278 2906 2969 
L 2906 3500 
L 3481 3500 
L 3481 434 
z
" transform="scale(0.015625)"/>
       <path id="DejaVuSans-69" d="M 603 3500 
L 1178 3500 
L 1178 0 
L 603 0 
L 603 3500 
z
M 603 4863 
L 1178 4863 
L 1178 4134 
L 603 4134 
L 603 4863 
z
" transform="scale(0.015625)"/>
       <path id="DejaVuSans-74" d="M 1172 4494 
L 1172 3500 
L 2356 3500 
L 2356 3053 
L 1172 3053 
L 1172 1153 
Q 1172 725 1289 603 
Q 1406 481 1766 481 
L 2356 481 
L 2356 0 
L 1766 0 
Q 1100 0 847 248 
Q 594 497 594 1153 
L 594 3053 
L 172 3053 
L 172 3500 
L 594 3500 
L 594 4494 
L 1172 4494 
z
" transform="scale(0.015625)"/>
       <path id="DejaVuSans-64" d="M 2906 2969 
L 2906 4863 
L 3481 4863 
L 3481 0 
L 2906 0 
L 2906 525 
Q 2725 213 2448 61 
Q 2172 -91 1784 -91 
Q 1150 -91 751 415 
Q 353 922 353 1747 
Q 353 2572 751 3078 
Q 1150 3584 1784 3584 
Q 2172 3584 2448 3432 
Q 2725 3281 2906 2969 
z
M 947 1747 
Q 947 1113 1208 752 
Q 1469 391 1925 391 
Q 2381 391 2643 752 
Q 2906 1113 2906 1747 
Q 2906 2381 2643 2742 
Q 2381 3103 1925 3103 
Q 1469 3103 1208 2742 
Q 947 2381 947 1747 
z
" transform="scale(0.015625)"/>
       <path id="DejaVuSans-6d" d="M 3328 2828 
Q 3544 3216 3844 3400 
Q 4144 3584 4550 3584 
Q 5097 3584 5394 3201 
Q 5691 2819 5691 2113 
L 5691 0 
L 5113 0 
L 5113 2094 
Q 5113 2597 4934 2840 
Q 4756 3084 4391 3084 
Q 3944 3084 3684 2787 
Q 3425 2491 3425 1978 
L 3425 0 
L 2847 0 
L 2847 2094 
Q 2847 2600 2669 2842 
Q 2491 3084 2119 3084 
Q 1678 3084 1418 2786 
Q 1159 2488 1159 1978 
L 1159 0 
L 581 0 
L 581 3500 
L 1159 3500 
L 1159 2956 
Q 1356 3278 1631 3431 
Q 1906 3584 2284 3584 
Q 2666 3584 2933 3390 
Q 3200 3197 3328 2828 
z
" transform="scale(0.015625)"/>
       <path id="DejaVuSans-56" d="M 1831 0 
L 50 4666 
L 709 4666 
L 2188 738 
L 3669 4666 
L 4325 4666 
L 2547 0 
L 1831 0 
z
" transform="scale(0.015625)"/>
      </defs>
      <use xlink:href="#DejaVuSans-4d"/>
      <use xlink:href="#DejaVuSans-61" x="86.279297"/>
      <use xlink:href="#DejaVuSans-67" x="147.558594"/>
      <use xlink:href="#DejaVuSans-6e" x="211.035156"/>
      <use xlink:href="#DejaVuSans-69" x="274.414062"/>
      <use xlink:href="#DejaVuSans-74" x="302.197266"/>
      <use xlink:href="#DejaVuSans-75" x="341.40625"/>
      <use xlink:href="#DejaVuSans-64" x="404.785156"/>
      <use xlink:href="#DejaVuSans-65" x="468.261719"/>
      <use xlink:href="#DejaVuSans-30" x="529.785156"/>
      <use xlink:href="#DejaVuSans-20" x="593.408203"/>
      <use xlink:href="#DejaVuSans-5b" x="625.195312"/>
      <use xlink:href="#DejaVuSans-6d" x="664.208984"/>
      <use xlink:href="#DejaVuSans-56" x="761.621094"/>
      <use xlink:href="#DejaVuSans-5d" x="830.029297"/>
     </g>
    </g>
   </g>
   <g id="line2d_14">
    <path d="M 56.835852 295.063579 
L 68.030837 294.890207 
L 79.225821 294.273181 
L 90.420805 294.227373 
L 101.61579 294.081686 
L 112.810774 295.776 
L 124.005758 295.453884 
L 135.200743 294.506408 
L 146.395727 295.414176 
L 157.590711 294.699396 
L 168.785696 294.236807 
L 179.98068 294.603931 
L 191.175664 294.32674 
L 202.370649 294.167554 
L 213.565633 295.391041 
L 224.760617 294.708263 
L 235.955601 293.915874 
L 247.150586 294.982164 
L 258.34557 295.215031 
L 269.540554 294.126414 
L 280.735539 293.851333 
L 291.930523 293.169977 
L 303.125507 294.253047 
L 314.320492 294.001026 
L 325.515476 293.72814 
L 336.71046 294.237371 
L 347.905445 293.124924 
L 359.100429 293.375496 
L 370.295413 293.702677 
L 381.490398 292.540479 
" clip-path="url(#p29926d9a36)" style="fill: none; stroke: #440154; stroke-width: 1.5; stroke-linecap: square"/>
   </g>
   <g id="line2d_15">
    <path d="M 56.835852 287.64239 
L 68.030837 287.53512 
L 79.225821 285.976816 
L 90.420805 287.509759 
L 101.61579 287.026943 
L 112.810774 287.185669 
L 124.005758 286.236412 
L 135.200743 286.816932 
L 146.395727 286.226567 
L 157.590711 286.342386 
L 168.785696 285.725058 
L 179.98068 286.076703 
L 191.175664 286.668865 
L 202.370649 285.338368 
L 213.565633 285.452817 
L 224.760617 285.436068 
L 235.955601 285.064242 
L 247.150586 286.300792 
L 258.34557 286.12926 
L 269.540554 286.258775 
L 280.735539 285.446404 
L 291.930523 286.467172 
L 303.125507 285.746937 
L 314.320492 286.2069 
L 325.515476 285.642143 
L 336.71046 285.05335 
L 347.905445 285.695998 
L 359.100429 285.555371 
L 370.295413 284.004594 
L 381.490398 285.184654 
" clip-path="url(#p29926d9a36)" style="fill: none; stroke: #470d60; stroke-width: 1.5; stroke-linecap: square"/>
   </g>
   <g id="line2d_16">
    <path d="M 56.835852 279.275135 
L 68.030837 279.82276 
L 79.225821 277.776867 
L 90.420805 278.886803 
L 101.61579 278.858425 
L 112.810774 278.062131 
L 124.005758 279.221302 
L 135.200743 278.564449 
L 146.395727 278.058894 
L 157.590711 278.768932 
L 168.785696 278.82841 
L 179.98068 278.886877 
L 191.175664 277.98718 
L 202.370649 278.444304 
L 213.565633 278.17701 
L 224.760617 278.253975 
L 235.955601 276.695516 
L 247.150586 277.2991 
L 258.34557 277.493839 
L 269.540554 277.969284 
L 280.735539 276.819732 
L 291.930523 277.480048 
L 303.125507 278.027972 
L 314.320492 277.016007 
L 325.515476 277.357384 
L 336.71046 276.738382 
L 347.905445 276.640137 
L 359.100429 276.945204 
L 370.295413 276.454015 
L 381.490398 276.33459 
" clip-path="url(#p29926d9a36)" style="fill: none; stroke: #481a6c; stroke-width: 1.5; stroke-linecap: square"/>
   </g>
   <g id="line2d_17">
    <path d="M 56.835852 270.108494 
L 68.030837 270.43979 
L 79.225821 271.396651 
L 90.420805 270.355958 
L 101.61579 271.662293 
L 112.810774 270.322928 
L 124.005758 270.081263 
L 135.200743 270.714242 
L 146.395727 271.158923 
L 157.590711 270.832427 
L 168.785696 269.67324 
L 179.98068 269.718757 
L 191.175664 269.845954 
L 202.370649 269.401108 
L 213.565633 270.222193 
L 224.760617 270.297364 
L 235.955601 269.109173 
L 247.150586 269.741113 
L 258.34557 269.965094 
L 269.540554 269.575071 
L 280.735539 269.892109 
L 291.930523 269.519812 
L 303.125507 269.899541 
L 314.320492 268.956563 
L 325.515476 268.644214 
L 336.71046 269.079478 
L 347.905445 268.161196 
L 359.100429 267.932231 
L 370.295413 268.358678 
L 381.490398 269.074304 
" clip-path="url(#p29926d9a36)" style="fill: none; stroke: #482576; stroke-width: 1.5; stroke-linecap: square"/>
   </g>
   <g id="line2d_18">
    <path d="M 56.835852 263.773194 
L 68.030837 263.015485 
L 79.225821 263.173293 
L 90.420805 262.360318 
L 101.61579 261.749725 
L 112.810774 262.909608 
L 124.005758 263.015873 
L 135.200743 262.001641 
L 146.395727 262.419811 
L 157.590711 261.290964 
L 168.785696 261.760547 
L 179.98068 261.081073 
L 191.175664 264.212979 
L 202.370649 262.211548 
L 213.565633 262.52742 
L 224.760617 262.456911 
L 235.955601 262.130366 
L 247.150586 262.370537 
L 258.34557 262.001252 
L 269.540554 262.524558 
L 280.735539 261.480925 
L 291.930523 260.786274 
L 303.125507 261.214847 
L 314.320492 261.074695 
L 325.515476 261.074702 
L 336.71046 260.781575 
L 347.905445 259.201621 
L 359.100429 261.184725 
L 370.295413 260.300097 
L 381.490398 260.309333 
" clip-path="url(#p29926d9a36)" style="fill: none; stroke: #46307e; stroke-width: 1.5; stroke-linecap: square"/>
   </g>
   <g id="line2d_19">
    <path d="M 56.835852 255.23934 
L 68.030837 254.608135 
L 79.225821 255.162159 
L 90.420805 254.331211 
L 101.61579 254.463531 
L 112.810774 253.13221 
L 124.005758 255.162282 
L 135.200743 253.556726 
L 146.395727 254.573266 
L 157.590711 253.657032 
L 168.785696 253.53616 
L 179.98068 253.999724 
L 191.175664 254.257791 
L 202.370649 253.590036 
L 213.565633 253.01428 
L 224.760617 254.43536 
L 235.955601 254.209191 
L 247.150586 252.307256 
L 258.34557 252.858324 
L 269.540554 253.311125 
L 280.735539 253.101815 
L 291.930523 252.929535 
L 303.125507 252.620521 
L 314.320492 251.376829 
L 325.515476 252.673542 
L 336.71046 252.166269 
L 347.905445 251.8945 
L 359.100429 251.928867 
L 370.295413 251.485335 
L 381.490398 251.989142 
" clip-path="url(#p29926d9a36)" style="fill: none; stroke: #443b84; stroke-width: 1.5; stroke-linecap: square"/>
   </g>
   <g id="line2d_20">
    <path d="M 56.835852 246.527325 
L 68.030837 248.44886 
L 79.225821 247.60383 
L 90.420805 247.243573 
L 101.61579 246.216329 
L 112.810774 245.851932 
L 124.005758 246.933856 
L 135.200743 246.709801 
L 146.395727 246.568207 
L 157.590711 245.926512 
L 168.785696 246.663414 
L 179.98068 246.2148 
L 191.175664 245.713379 
L 202.370649 244.847473 
L 213.565633 245.246046 
L 224.760617 245.759598 
L 235.955601 245.822053 
L 247.150586 244.327781 
L 258.34557 244.773554 
L 269.540554 244.940178 
L 280.735539 243.855131 
L 291.930523 245.413485 
L 303.125507 245.410223 
L 314.320492 244.609283 
L 325.515476 244.423414 
L 336.71046 244.461589 
L 347.905445 242.756707 
L 359.100429 244.010344 
L 370.295413 242.9302 
L 381.490398 243.389673 
" clip-path="url(#p29926d9a36)" style="fill: none; stroke: #404588; stroke-width: 1.5; stroke-linecap: square"/>
   </g>
   <g id="line2d_21">
    <path d="M 56.835852 239.416194 
L 68.030837 240.250893 
L 79.225821 238.665396 
L 90.420805 239.185239 
L 101.61579 237.414093 
L 112.810774 238.837476 
L 124.005758 238.229827 
L 135.200743 238.138238 
L 146.395727 238.324874 
L 157.590711 237.913393 
L 168.785696 237.967949 
L 179.98068 238.278841 
L 191.175664 237.453284 
L 202.370649 237.874864 
L 213.565633 237.285913 
L 224.760617 237.553199 
L 235.955601 237.027031 
L 247.150586 236.516855 
L 258.34557 236.180651 
L 269.540554 236.06358 
L 280.735539 236.048018 
L 291.930523 237.300463 
L 303.125507 236.232823 
L 314.320492 235.467776 
L 325.515476 235.483482 
L 336.71046 235.814141 
L 347.905445 235.328449 
L 359.100429 235.370306 
L 370.295413 235.024607 
L 381.490398 234.189128 
" clip-path="url(#p29926d9a36)" style="fill: none; stroke: #3c4f8a; stroke-width: 1.5; stroke-linecap: square"/>
   </g>
   <g id="line2d_22">
    <path d="M 56.835852 230.847339 
L 68.030837 231.963468 
L 79.225821 231.634948 
L 90.420805 230.040111 
L 101.61579 231.263234 
L 112.810774 230.364912 
L 124.005758 230.447681 
L 135.200743 230.648885 
L 146.395727 229.600941 
L 157.590711 229.998474 
L 168.785696 230.224155 
L 179.98068 229.671805 
L 191.175664 229.188551 
L 202.370649 230.350937 
L 213.565633 229.557986 
L 224.760617 228.690358 
L 235.955601 229.603029 
L 247.150586 229.152405 
L 258.34557 229.365308 
L 269.540554 229.384102 
L 280.735539 228.46438 
L 291.930523 229.215833 
L 303.125507 228.948561 
L 314.320492 228.01412 
L 325.515476 227.970657 
L 336.71046 227.556217 
L 347.905445 226.541609 
L 359.100429 227.332999 
L 370.295413 228.285668 
L 381.490398 226.111143 
" clip-path="url(#p29926d9a36)" style="fill: none; stroke: #38598c; stroke-width: 1.5; stroke-linecap: square"/>
   </g>
   <g id="line2d_23">
    <path d="M 56.835852 223.401405 
L 68.030837 222.772404 
L 79.225821 222.87789 
L 90.420805 223.451459 
L 101.61579 221.984639 
L 112.810774 221.456454 
L 124.005758 221.537823 
L 135.200743 221.979633 
L 146.395727 222.079577 
L 157.590711 221.728412 
L 168.785696 221.078678 
L 179.98068 220.980345 
L 191.175664 221.743895 
L 202.370649 220.850133 
L 213.565633 222.288893 
L 224.760617 220.699896 
L 235.955601 220.458104 
L 247.150586 220.926441 
L 258.34557 219.959415 
L 269.540554 220.141462 
L 280.735539 220.468271 
L 291.930523 220.204358 
L 303.125507 219.534233 
L 314.320492 219.263767 
L 325.515476 220.13125 
L 336.71046 219.773692 
L 347.905445 219.673913 
L 359.100429 219.764673 
L 370.295413 219.317968 
L 381.490398 218.376505 
" clip-path="url(#p29926d9a36)" style="fill: none; stroke: #33628d; stroke-width: 1.5; stroke-linecap: square"/>
   </g>
   <g id="line2d_24">
    <path d="M 56.835852 215.362838 
L 68.030837 213.817011 
L 79.225821 215.256148 
L 90.420805 216.340859 
L 101.61579 214.163379 
L 112.810774 215.470009 
L 124.005758 215.186512 
L 135.200743 214.784544 
L 146.395727 213.928154 
L 157.590711 214.200469 
L 168.785696 212.706413 
L 179.98068 214.879755 
L 191.175664 212.881163 
L 202.370649 213.090108 
L 213.565633 212.590881 
L 224.760617 211.965138 
L 235.955601 212.171696 
L 247.150586 212.79984 
L 258.34557 212.980044 
L 269.540554 211.839601 
L 280.735539 211.141209 
L 291.930523 212.033258 
L 303.125507 212.306467 
L 314.320492 211.251265 
L 325.515476 211.296971 
L 336.71046 209.709494 
L 347.905445 212.230668 
L 359.100429 210.050608 
L 370.295413 210.07643 
L 381.490398 210.825658 
" clip-path="url(#p29926d9a36)" style="fill: none; stroke: #2f6b8e; stroke-width: 1.5; stroke-linecap: square"/>
   </g>
   <g id="line2d_25">
    <path d="M 56.835852 208.340369 
L 68.030837 206.805977 
L 79.225821 206.810261 
L 90.420805 206.825525 
L 101.61579 207.436203 
L 112.810774 206.29647 
L 124.005758 206.843448 
L 135.200743 205.917437 
L 146.395727 205.534659 
L 157.590711 204.916186 
L 168.785696 204.779893 
L 179.98068 205.225306 
L 191.175664 205.586951 
L 202.370649 205.066701 
L 213.565633 204.460234 
L 224.760617 203.844558 
L 235.955601 204.609484 
L 247.150586 203.525239 
L 258.34557 203.248916 
L 269.540554 203.87216 
L 280.735539 203.793129 
L 291.930523 202.639227 
L 303.125507 203.304212 
L 314.320492 203.185165 
L 325.515476 202.162626 
L 336.71046 202.991002 
L 347.905445 201.95151 
L 359.100429 202.153109 
L 370.295413 201.470324 
L 381.490398 201.235831 
" clip-path="url(#p29926d9a36)" style="fill: none; stroke: #2c738e; stroke-width: 1.5; stroke-linecap: square"/>
   </g>
   <g id="line2d_26">
    <path d="M 56.835852 198.841739 
L 68.030837 199.382422 
L 79.225821 199.055843 
L 90.420805 199.24088 
L 101.61579 197.738547 
L 112.810774 198.232741 
L 124.005758 198.032177 
L 135.200743 198.206049 
L 146.395727 197.277973 
L 157.590711 198.917962 
L 168.785696 196.21349 
L 179.98068 197.618598 
L 191.175664 195.937737 
L 202.370649 197.048672 
L 213.565633 197.49383 
L 224.760617 195.672026 
L 235.955601 196.923656 
L 247.150586 196.567943 
L 258.34557 195.805351 
L 269.540554 195.684838 
L 280.735539 194.92588 
L 291.930523 195.155716 
L 303.125507 195.682388 
L 314.320492 193.731893 
L 325.515476 194.732969 
L 336.71046 194.682541 
L 347.905445 193.99496 
L 359.100429 193.625065 
L 370.295413 192.597363 
L 381.490398 194.477886 
" clip-path="url(#p29926d9a36)" style="fill: none; stroke: #297b8e; stroke-width: 1.5; stroke-linecap: square"/>
   </g>
   <g id="line2d_27">
    <path d="M 56.835852 191.154781 
L 68.030837 191.865166 
L 79.225821 190.293002 
L 90.420805 191.438556 
L 101.61579 190.89191 
L 112.810774 191.430252 
L 124.005758 190.085639 
L 135.200743 189.458394 
L 146.395727 190.032114 
L 157.590711 189.985553 
L 168.785696 189.444161 
L 179.98068 188.187981 
L 191.175664 189.39503 
L 202.370649 189.294361 
L 213.565633 188.547922 
L 224.760617 187.597012 
L 235.955601 188.926422 
L 247.150586 188.38049 
L 258.34557 188.037386 
L 269.540554 188.486734 
L 280.735539 188.280743 
L 291.930523 188.429392 
L 303.125507 187.000771 
L 314.320492 186.314345 
L 325.515476 186.921286 
L 336.71046 186.403175 
L 347.905445 185.940484 
L 359.100429 186.53365 
L 370.295413 185.870345 
L 381.490398 185.89642 
" clip-path="url(#p29926d9a36)" style="fill: none; stroke: #25838e; stroke-width: 1.5; stroke-linecap: square"/>
   </g>
   <g id="line2d_28">
    <path d="M 56.835852 182.380943 
L 68.030837 182.908167 
L 79.225821 183.381978 
L 90.420805 183.085743 
L 101.61579 182.237753 
L 112.810774 182.164089 
L 124.005758 182.6268 
L 135.200743 182.909389 
L 146.395727 182.002209 
L 157.590711 180.480776 
L 168.785696 180.408964 
L 179.98068 181.609289 
L 191.175664 179.899964 
L 202.370649 181.614196 
L 213.565633 180.083975 
L 224.760617 180.60876 
L 235.955601 179.869297 
L 247.150586 179.74974 
L 258.34557 181.060565 
L 269.540554 179.634087 
L 280.735539 179.020745 
L 291.930523 179.207972 
L 303.125507 178.492686 
L 314.320492 179.585714 
L 325.515476 178.79658 
L 336.71046 178.618534 
L 347.905445 177.660384 
L 359.100429 176.720185 
L 370.295413 177.032226 
L 381.490398 176.125486 
" clip-path="url(#p29926d9a36)" style="fill: none; stroke: #228c8d; stroke-width: 1.5; stroke-linecap: square"/>
   </g>
   <g id="line2d_29">
    <path d="M 56.835852 174.94109 
L 68.030837 174.268153 
L 79.225821 176.334053 
L 90.420805 175.12657 
L 101.61579 174.171037 
L 112.810774 174.69263 
L 124.005758 173.686424 
L 135.200743 174.371895 
L 146.395727 174.679476 
L 157.590711 173.477202 
L 168.785696 174.72246 
L 179.98068 172.442327 
L 191.175664 172.762172 
L 202.370649 173.416573 
L 213.565633 172.27752 
L 224.760617 173.329847 
L 235.955601 171.382101 
L 247.150586 172.455623 
L 258.34557 171.055666 
L 269.540554 171.201385 
L 280.735539 171.380551 
L 291.930523 170.902313 
L 303.125507 169.256774 
L 314.320492 169.631433 
L 325.515476 170.637782 
L 336.71046 169.04531 
L 347.905445 168.206773 
L 359.100429 168.416572 
L 370.295413 169.211617 
L 381.490398 169.411083 
" clip-path="url(#p29926d9a36)" style="fill: none; stroke: #1f948c; stroke-width: 1.5; stroke-linecap: square"/>
   </g>
   <g id="line2d_30">
    <path d="M 56.835852 168.283239 
L 68.030837 167.068208 
L 79.225821 166.853355 
L 90.420805 167.449873 
L 101.61579 166.624935 
L 112.810774 167.117901 
L 124.005758 167.155977 
L 135.200743 166.136501 
L 146.395727 164.639719 
L 157.590711 165.3377 
L 168.785696 165.236735 
L 179.98068 164.480695 
L 191.175664 165.565845 
L 202.370649 165.358447 
L 213.565633 164.504203 
L 224.760617 163.780317 
L 235.955601 164.26083 
L 247.150586 163.960683 
L 258.34557 163.423847 
L 269.540554 163.568459 
L 280.735539 162.332921 
L 291.930523 162.509439 
L 303.125507 162.741559 
L 314.320492 162.21022 
L 325.515476 160.765281 
L 336.71046 161.957708 
L 347.905445 160.880052 
L 359.100429 161.395058 
L 370.295413 161.114273 
L 381.490398 160.207911 
" clip-path="url(#p29926d9a36)" style="fill: none; stroke: #1e9d89; stroke-width: 1.5; stroke-linecap: square"/>
   </g>
   <g id="line2d_31">
    <path d="M 56.835852 159.463793 
L 68.030837 159.720798 
L 79.225821 158.96934 
L 90.420805 158.330247 
L 101.61579 158.766436 
L 112.810774 158.102924 
L 124.005758 158.102496 
L 135.200743 157.177573 
L 146.395727 157.097445 
L 157.590711 158.303616 
L 168.785696 157.959642 
L 179.98068 156.970205 
L 191.175664 156.162182 
L 202.370649 155.717231 
L 213.565633 156.640947 
L 224.760617 156.139382 
L 235.955601 156.412475 
L 247.150586 154.91256 
L 258.34557 155.848178 
L 269.540554 154.495896 
L 280.735539 154.268352 
L 291.930523 154.161565 
L 303.125507 153.880089 
L 314.320492 153.316616 
L 325.515476 153.630435 
L 336.71046 152.895706 
L 347.905445 153.311454 
L 359.100429 152.628734 
L 370.295413 151.71568 
L 381.490398 151.811257 
" clip-path="url(#p29926d9a36)" style="fill: none; stroke: #21a585; stroke-width: 1.5; stroke-linecap: square"/>
   </g>
   <g id="line2d_32">
    <path d="M 56.835852 150.756458 
L 68.030837 152.082652 
L 79.225821 151.029926 
L 90.420805 151.137424 
L 101.61579 150.970725 
L 112.810774 149.896403 
L 124.005758 150.430994 
L 135.200743 149.609025 
L 146.395727 150.139493 
L 157.590711 149.696005 
L 168.785696 149.614683 
L 179.98068 148.80273 
L 191.175664 148.162835 
L 202.370649 149.322444 
L 213.565633 147.447352 
L 224.760617 148.892574 
L 235.955601 147.645181 
L 247.150586 147.258323 
L 258.34557 147.519689 
L 269.540554 147.078856 
L 280.735539 147.305296 
L 291.930523 146.375205 
L 303.125507 145.342748 
L 314.320492 144.592422 
L 325.515476 145.254857 
L 336.71046 144.139417 
L 347.905445 144.307929 
L 359.100429 143.826721 
L 370.295413 143.040162 
L 381.490398 143.423926 
" clip-path="url(#p29926d9a36)" style="fill: none; stroke: #26ad81; stroke-width: 1.5; stroke-linecap: square"/>
   </g>
   <g id="line2d_33">
    <path d="M 56.835852 143.259899 
L 68.030837 143.317531 
L 79.225821 142.90818 
L 90.420805 143.449831 
L 101.61579 143.277209 
L 112.810774 144.303326 
L 124.005758 142.905338 
L 135.200743 141.600871 
L 146.395727 141.492373 
L 157.590711 142.711423 
L 168.785696 142.166325 
L 179.98068 140.651702 
L 191.175664 140.375674 
L 202.370649 140.821137 
L 213.565633 140.333794 
L 224.760617 140.369548 
L 235.955601 141.063934 
L 247.150586 138.854281 
L 258.34557 139.281038 
L 269.540554 138.425328 
L 280.735539 137.72429 
L 291.930523 137.097294 
L 303.125507 138.703351 
L 314.320492 138.76192 
L 325.515476 137.237599 
L 336.71046 136.37297 
L 347.905445 136.399951 
L 359.100429 135.711534 
L 370.295413 136.131873 
L 381.490398 135.432937 
" clip-path="url(#p29926d9a36)" style="fill: none; stroke: #31b57b; stroke-width: 1.5; stroke-linecap: square"/>
   </g>
   <g id="line2d_34">
    <path d="M 56.835852 135.759224 
L 68.030837 135.482938 
L 79.225821 135.960947 
L 90.420805 133.488995 
L 101.61579 135.722635 
L 112.810774 133.18297 
L 124.005758 133.598587 
L 135.200743 133.775285 
L 146.395727 134.24066 
L 157.590711 133.564468 
L 168.785696 134.548596 
L 179.98068 132.522202 
L 191.175664 133.207702 
L 202.370649 132.383547 
L 213.565633 132.548652 
L 224.760617 131.59519 
L 235.955601 130.991027 
L 247.150586 130.977801 
L 258.34557 131.462927 
L 269.540554 131.708969 
L 280.735539 130.159046 
L 291.930523 129.684895 
L 303.125507 129.421033 
L 314.320492 130.612564 
L 325.515476 128.843301 
L 336.71046 128.950011 
L 347.905445 127.702171 
L 359.100429 127.820991 
L 370.295413 128.283834 
L 381.490398 127.076802 
" clip-path="url(#p29926d9a36)" style="fill: none; stroke: #3fbc73; stroke-width: 1.5; stroke-linecap: square"/>
   </g>
   <g id="line2d_35">
    <path d="M 56.835852 127.206954 
L 68.030837 128.077591 
L 79.225821 125.257607 
L 90.420805 125.98212 
L 101.61579 127.035108 
L 112.810774 125.6014 
L 124.005758 126.793239 
L 135.200743 125.99769 
L 146.395727 125.306265 
L 157.590711 125.754469 
L 168.785696 124.412444 
L 179.98068 125.32019 
L 191.175664 123.921047 
L 202.370649 124.622064 
L 213.565633 123.066233 
L 224.760617 122.585326 
L 235.955601 123.165732 
L 247.150586 122.208561 
L 258.34557 122.845109 
L 269.540554 121.897054 
L 280.735539 122.305418 
L 291.930523 122.286474 
L 303.125507 120.264341 
L 314.320492 121.316701 
L 325.515476 119.488557 
L 336.71046 120.989701 
L 347.905445 119.04171 
L 359.100429 119.995012 
L 370.295413 120.057853 
L 381.490398 118.495283 
" clip-path="url(#p29926d9a36)" style="fill: none; stroke: #50c46a; stroke-width: 1.5; stroke-linecap: square"/>
   </g>
   <g id="line2d_36">
    <path d="M 56.835852 119.176364 
L 68.030837 121.202756 
L 79.225821 119.199968 
L 90.420805 119.587264 
L 101.61579 117.85548 
L 112.810774 118.971655 
L 124.005758 118.941909 
L 135.200743 117.722337 
L 146.395727 118.906531 
L 157.590711 117.587394 
L 168.785696 117.680758 
L 179.98068 116.265733 
L 191.175664 116.026021 
L 202.370649 116.431584 
L 213.565633 114.766706 
L 224.760617 116.874311 
L 235.955601 115.730622 
L 247.150586 115.491218 
L 258.34557 114.98604 
L 269.540554 115.078494 
L 280.735539 113.632888 
L 291.930523 113.985515 
L 303.125507 113.498026 
L 314.320492 112.779204 
L 325.515476 111.96398 
L 336.71046 112.178056 
L 347.905445 112.722818 
L 359.100429 111.622894 
L 370.295413 111.566456 
L 381.490398 109.88088 
" clip-path="url(#p29926d9a36)" style="fill: none; stroke: #63cb5f; stroke-width: 1.5; stroke-linecap: square"/>
   </g>
   <g id="line2d_37">
    <path d="M 56.835852 111.881748 
L 68.030837 111.750017 
L 79.225821 111.445663 
L 90.420805 110.810515 
L 101.61579 110.94196 
L 112.810774 111.877308 
L 124.005758 111.777083 
L 135.200743 110.15721 
L 146.395727 110.296543 
L 157.590711 109.095863 
L 168.785696 109.39666 
L 179.98068 109.362294 
L 191.175664 107.999012 
L 202.370649 108.18222 
L 213.565633 107.475881 
L 224.760617 106.918716 
L 235.955601 106.411582 
L 247.150586 106.293205 
L 258.34557 107.827712 
L 269.540554 107.800749 
L 280.735539 106.082412 
L 291.930523 104.776053 
L 303.125507 105.59744 
L 314.320492 104.065872 
L 325.515476 104.679304 
L 336.71046 104.616275 
L 347.905445 102.971622 
L 359.100429 103.731549 
L 370.295413 102.491538 
L 381.490398 102.767971 
" clip-path="url(#p29926d9a36)" style="fill: none; stroke: #77d153; stroke-width: 1.5; stroke-linecap: square"/>
   </g>
   <g id="line2d_38">
    <path d="M 56.835852 103.229419 
L 68.030837 104.034626 
L 79.225821 103.170179 
L 90.420805 104.370702 
L 101.61579 103.372865 
L 112.810774 103.129145 
L 124.005758 101.677703 
L 135.200743 101.201643 
L 146.395727 101.815778 
L 157.590711 101.07225 
L 168.785696 100.620438 
L 179.98068 101.574512 
L 191.175664 100.617187 
L 202.370649 99.651324 
L 213.565633 99.909132 
L 224.760617 100.713403 
L 235.955601 99.831237 
L 247.150586 99.718973 
L 258.34557 98.162345 
L 269.540554 97.886886 
L 280.735539 98.498506 
L 291.930523 98.063377 
L 303.125507 98.27188 
L 314.320492 96.360074 
L 325.515476 96.319092 
L 336.71046 95.745099 
L 347.905445 95.01189 
L 359.100429 95.60071 
L 370.295413 93.588598 
L 381.490398 94.94313 
" clip-path="url(#p29926d9a36)" style="fill: none; stroke: #8bd646; stroke-width: 1.5; stroke-linecap: square"/>
   </g>
   <g id="line2d_39">
    <path d="M 56.835852 97.750322 
L 68.030837 95.727309 
L 79.225821 96.788786 
L 90.420805 95.666072 
L 101.61579 95.725251 
L 112.810774 95.084688 
L 124.005758 94.691477 
L 135.200743 95.293673 
L 146.395727 94.930468 
L 157.590711 93.519166 
L 168.785696 94.402774 
L 179.98068 93.187485 
L 191.175664 92.317943 
L 202.370649 92.716059 
L 213.565633 91.740183 
L 224.760617 91.804614 
L 235.955601 90.744637 
L 247.150586 91.361537 
L 258.34557 92.303571 
L 269.540554 90.133148 
L 280.735539 89.97076 
L 291.930523 89.417362 
L 303.125507 89.187434 
L 314.320492 89.636489 
L 325.515476 88.540963 
L 336.71046 87.797236 
L 347.905445 87.543504 
L 359.100429 87.787922 
L 370.295413 86.019877 
L 381.490398 86.527061 
" clip-path="url(#p29926d9a36)" style="fill: none; stroke: #a2da37; stroke-width: 1.5; stroke-linecap: square"/>
   </g>
   <g id="line2d_40">
    <path d="M 56.835852 88.470808 
L 68.030837 88.52915 
L 79.225821 87.405249 
L 90.420805 87.610318 
L 101.61579 87.096493 
L 112.810774 85.758728 
L 124.005758 85.800027 
L 135.200743 86.185961 
L 146.395727 86.002401 
L 157.590711 87.303129 
L 168.785696 85.682735 
L 179.98068 86.160004 
L 191.175664 84.350952 
L 202.370649 84.13181 
L 213.565633 83.270354 
L 224.760617 83.499314 
L 235.955601 82.958177 
L 247.150586 82.80945 
L 258.34557 82.152887 
L 269.540554 81.92355 
L 280.735539 81.435266 
L 291.930523 79.881347 
L 303.125507 80.710923 
L 314.320492 81.154153 
L 325.515476 79.698274 
L 336.71046 79.021235 
L 347.905445 79.68103 
L 359.100429 79.625642 
L 370.295413 78.608514 
L 381.490398 77.722546 
" clip-path="url(#p29926d9a36)" style="fill: none; stroke: #bade28; stroke-width: 1.5; stroke-linecap: square"/>
   </g>
   <g id="line2d_41">
    <path d="M 56.835852 81.591317 
L 68.030837 80.447365 
L 79.225821 80.652342 
L 90.420805 79.791692 
L 101.61579 78.675975 
L 112.810774 78.012884 
L 124.005758 78.47316 
L 135.200743 79.11492 
L 146.395727 78.515493 
L 157.590711 77.872965 
L 168.785696 78.289357 
L 179.98068 77.671572 
L 191.175664 77.318534 
L 202.370649 75.953915 
L 213.565633 75.605774 
L 224.760617 76.134885 
L 235.955601 74.900172 
L 247.150586 74.319414 
L 258.34557 73.716998 
L 269.540554 73.328567 
L 280.735539 72.833056 
L 291.930523 74.062295 
L 303.125507 72.686007 
L 314.320492 73.260241 
L 325.515476 71.43061 
L 336.71046 71.836021 
L 347.905445 71.69321 
L 359.100429 70.116649 
L 370.295413 69.324942 
L 381.490398 68.808579 
" clip-path="url(#p29926d9a36)" style="fill: none; stroke: #d2e21b; stroke-width: 1.5; stroke-linecap: square"/>
   </g>
   <g id="line2d_42">
    <path d="M 56.835852 73.054795 
L 68.030837 72.890661 
L 79.225821 71.878278 
L 90.420805 71.268107 
L 101.61579 72.729759 
L 112.810774 70.786723 
L 124.005758 71.263303 
L 135.200743 69.86261 
L 146.395727 70.424368 
L 157.590711 70.45633 
L 168.785696 70.047984 
L 179.98068 69.776321 
L 191.175664 69.454661 
L 202.370649 69.291895 
L 213.565633 67.76158 
L 224.760617 66.650432 
L 235.955601 66.882105 
L 247.150586 66.236344 
L 258.34557 65.519604 
L 269.540554 66.712223 
L 280.735539 66.803981 
L 291.930523 65.500716 
L 303.125507 65.511553 
L 314.320492 64.409443 
L 325.515476 64.511309 
L 336.71046 63.955637 
L 347.905445 63.250257 
L 359.100429 62.999349 
L 370.295413 60.638355 
L 381.490398 62.84652 
" clip-path="url(#p29926d9a36)" style="fill: none; stroke: #eae51a; stroke-width: 1.5; stroke-linecap: square"/>
   </g>
   <g id="line2d_43">
    <path d="M 56.835852 63.325058 
L 68.030837 64.909629 
L 79.225821 64.53375 
L 90.420805 64.225786 
L 101.61579 64.300157 
L 112.810774 63.677363 
L 124.005758 62.960614 
L 135.200743 62.967194 
L 146.395727 61.33204 
L 157.590711 62.413761 
L 168.785696 60.915759 
L 179.98068 61.536973 
L 191.175664 60.981034 
L 202.370649 60.021564 
L 213.565633 60.6513 
L 224.760617 60.353406 
L 235.955601 59.431237 
L 247.150586 58.924269 
L 258.34557 57.999829 
L 269.540554 57.741315 
L 280.735539 58.590565 
L 291.930523 58.266712 
L 303.125507 57.302546 
L 314.320492 56.843108 
L 325.515476 56.376741 
L 336.71046 54.297088 
L 347.905445 55.295497 
L 359.100429 54.21146 
L 370.295413 54.352472 
L 381.490398 53.856 
" clip-path="url(#p29926d9a36)" style="fill: none; stroke: #fde725; stroke-width: 1.5; stroke-linecap: square"/>
   </g>
   <g id="patch_3">
    <path d="M 40.603125 307.872 
L 40.603125 41.76 
" style="fill: none; stroke: #000000; stroke-width: 0.8; stroke-linejoin: miter; stroke-linecap: square"/>
   </g>
   <g id="patch_4">
    <path d="M 397.723125 307.872 
L 397.723125 41.76 
" style="fill: none; stroke: #000000; stroke-width: 0.8; stroke-linejoin: miter; stroke-linecap: square"/>
   </g>
   <g id="patch_5">
    <path d="M 40.603125 307.872 
L 397.723125 307.872 
" style="fill: none; stroke: #000000; stroke-width: 0.8; stroke-linejoin: miter; stroke-linecap: square"/>
   </g>
   <g id="patch_6">
    <path d="M 40.603125 41.76 
L 397.723125 41.76 
" style="fill: none; stroke: #000000; stroke-width: 0.8; stroke-linejoin: miter; stroke-linecap: square"/>
   </g>
   <g id="legend_1">
    <g id="patch_7">
     <path d="M 417.579125 307.872 
L 631.4635 307.872 
Q 633.4635 307.872 633.4635 305.872 
L 633.4635 145.412625 
Q 633.4635 143.412625 631.4635 143.412625 
L 417.579125 143.412625 
Q 415.579125 143.412625 415.579125 145.412625 
L 415.579125 305.872 
Q 415.579125 307.872 417.579125 307.872 
z
" style="fill: #ffffff; opacity: 0.8; stroke: #cccccc; stroke-linejoin: miter"/>
    </g>
    <g id="text_17">
     <!-- Readout pulse amplitude () -->
     <g transform="translate(456.420531 155.011063) scale(0.1 -0.1)">
      <defs>
       <path id="DejaVuSans-52" d="M 2841 2188 
Q 3044 2119 3236 1894 
Q 3428 1669 3622 1275 
L 4263 0 
L 3584 0 
L 2988 1197 
Q 2756 1666 2539 1819 
Q 2322 1972 1947 1972 
L 1259 1972 
L 1259 0 
L 628 0 
L 628 4666 
L 2053 4666 
Q 2853 4666 3247 4331 
Q 3641 3997 3641 3322 
Q 3641 2881 3436 2590 
Q 3231 2300 2841 2188 
z
M 1259 4147 
L 1259 2491 
L 2053 2491 
Q 2509 2491 2742 2702 
Q 2975 2913 2975 3322 
Q 2975 3731 2742 3939 
Q 2509 4147 2053 4147 
L 1259 4147 
z
" transform="scale(0.015625)"/>
       <path id="DejaVuSans-6f" d="M 1959 3097 
Q 1497 3097 1228 2736 
Q 959 2375 959 1747 
Q 959 1119 1226 758 
Q 1494 397 1959 397 
Q 2419 397 2687 759 
Q 2956 1122 2956 1747 
Q 2956 2369 2687 2733 
Q 2419 3097 1959 3097 
z
M 1959 3584 
Q 2709 3584 3137 3096 
Q 3566 2609 3566 1747 
Q 3566 888 3137 398 
Q 2709 -91 1959 -91 
Q 1206 -91 779 398 
Q 353 888 353 1747 
Q 353 2609 779 3096 
Q 1206 3584 1959 3584 
z
" transform="scale(0.015625)"/>
       <path id="DejaVuSans-70" d="M 1159 525 
L 1159 -1331 
L 581 -1331 
L 581 3500 
L 1159 3500 
L 1159 2969 
Q 1341 3281 1617 3432 
Q 1894 3584 2278 3584 
Q 2916 3584 3314 3078 
Q 3713 2572 3713 1747 
Q 3713 922 3314 415 
Q 2916 -91 2278 -91 
Q 1894 -91 1617 61 
Q 1341 213 1159 525 
z
M 3116 1747 
Q 3116 2381 2855 2742 
Q 2594 3103 2138 3103 
Q 1681 3103 1420 2742 
Q 1159 2381 1159 1747 
Q 1159 1113 1420 752 
Q 1681 391 2138 391 
Q 2594 391 2855 752 
Q 3116 1113 3116 1747 
z
" transform="scale(0.015625)"/>
       <path id="DejaVuSans-6c" d="M 603 4863 
L 1178 4863 
L 1178 0 
L 603 0 
L 603 4863 
z
" transform="scale(0.015625)"/>
       <path id="DejaVuSans-73" d="M 2834 3397 
L 2834 2853 
Q 2591 2978 2328 3040 
Q 2066 3103 1784 3103 
Q 1356 3103 1142 2972 
Q 928 2841 928 2578 
Q 928 2378 1081 2264 
Q 1234 2150 1697 2047 
L 1894 2003 
Q 2506 1872 2764 1633 
Q 3022 1394 3022 966 
Q 3022 478 2636 193 
Q 2250 -91 1575 -91 
Q 1294 -91 989 -36 
Q 684 19 347 128 
L 347 722 
Q 666 556 975 473 
Q 1284 391 1588 391 
Q 1994 391 2212 530 
Q 2431 669 2431 922 
Q 2431 1156 2273 1281 
Q 2116 1406 1581 1522 
L 1381 1569 
Q 847 1681 609 1914 
Q 372 2147 372 2553 
Q 372 3047 722 3315 
Q 1072 3584 1716 3584 
Q 2034 3584 2315 3537 
Q 2597 3491 2834 3397 
z
" transform="scale(0.015625)"/>
       <path id="DejaVuSans-28" d="M 1984 4856 
Q 1566 4138 1362 3434 
Q 1159 2731 1159 2009 
Q 1159 1288 1364 580 
Q 1569 -128 1984 -844 
L 1484 -844 
Q 1016 -109 783 600 
Q 550 1309 550 2009 
Q 550 2706 781 3412 
Q 1013 4119 1484 4856 
L 1984 4856 
z
" transform="scale(0.015625)"/>
       <path id="DejaVuSans-29" d="M 513 4856 
L 1013 4856 
Q 1481 4119 1714 3412 
Q 1947 2706 1947 2009 
Q 1947 1309 1714 600 
Q 1481 -109 1013 -844 
L 513 -844 
Q 928 -128 1133 580 
Q 1338 1288 1338 2009 
Q 1338 2731 1133 3434 
Q 928 4138 513 4856 
z
" transform="scale(0.015625)"/>
      </defs>
      <use xlink:href="#DejaVuSans-52"/>
      <use xlink:href="#DejaVuSans-65" x="64.982422"/>
      <use xlink:href="#DejaVuSans-61" x="126.505859"/>
      <use xlink:href="#DejaVuSans-64" x="187.785156"/>
      <use xlink:href="#DejaVuSans-6f" x="251.261719"/>
      <use xlink:href="#DejaVuSans-75" x="312.443359"/>
      <use xlink:href="#DejaVuSans-74" x="375.822266"/>
      <use xlink:href="#DejaVuSans-20" x="415.03125"/>
      <use xlink:href="#DejaVuSans-70" x="446.818359"/>
      <use xlink:href="#DejaVuSans-75" x="510.294922"/>
      <use xlink:href="#DejaVuSans-6c" x="573.673828"/>
      <use xlink:href="#DejaVuSans-73" x="601.457031"/>
      <use xlink:href="#DejaVuSans-65" x="653.556641"/>
      <use xlink:href="#DejaVuSans-20" x="715.080078"/>
      <use xlink:href="#DejaVuSans-61" x="746.867188"/>
      <use xlink:href="#DejaVuSans-6d" x="808.146484"/>
      <use xlink:href="#DejaVuSans-70" x="905.558594"/>
      <use xlink:href="#DejaVuSans-6c" x="969.035156"/>
      <use xlink:href="#DejaVuSans-69" x="996.818359"/>
      <use xlink:href="#DejaVuSans-74" x="1024.601562"/>
      <use xlink:href="#DejaVuSans-75" x="1063.810547"/>
      <use xlink:href="#DejaVuSans-64" x="1127.189453"/>
      <use xlink:href="#DejaVuSans-65" x="1190.666016"/>
      <use xlink:href="#DejaVuSans-20" x="1252.189453"/>
      <use xlink:href="#DejaVuSans-28" x="1283.976562"/>
      <use xlink:href="#DejaVuSans-29" x="1322.990234"/>
     </g>
    </g>
    <g id="line2d_44">
     <path d="M 419.579125 166.189188 
L 429.579125 166.189188 
L 439.579125 166.189188 
" style="fill: none; stroke: #440154; stroke-width: 1.5; stroke-linecap: square"/>
    </g>
    <g id="text_18">
     <!-- 0.1 -->
     <g transform="translate(447.579125 169.689188) scale(0.1 -0.1)">
      <defs>
       <path id="DejaVuSans-2e" d="M 684 794 
L 1344 794 
L 1344 0 
L 684 0 
L 684 794 
z
" transform="scale(0.015625)"/>
      </defs>
      <use xlink:href="#DejaVuSans-30"/>
      <use xlink:href="#DejaVuSans-2e" x="63.623047"/>
      <use xlink:href="#DejaVuSans-31" x="95.410156"/>
     </g>
    </g>
    <g id="line2d_45">
     <path d="M 419.579125 180.867313 
L 429.579125 180.867313 
L 439.579125 180.867313 
" style="fill: none; stroke: #470d60; stroke-width: 1.5; stroke-linecap: square"/>
    </g>
    <g id="text_19">
     <!-- 0.121 -->
     <g transform="translate(447.579125 184.367313) scale(0.1 -0.1)">
      <use xlink:href="#DejaVuSans-30"/>
      <use xlink:href="#DejaVuSans-2e" x="63.623047"/>
      <use xlink:href="#DejaVuSans-31" x="95.410156"/>
      <use xlink:href="#DejaVuSans-32" x="159.033203"/>
      <use xlink:href="#DejaVuSans-31" x="222.65625"/>
     </g>
    </g>
    <g id="line2d_46">
     <path d="M 419.579125 195.545438 
L 429.579125 195.545438 
L 439.579125 195.545438 
" style="fill: none; stroke: #481a6c; stroke-width: 1.5; stroke-linecap: square"/>
    </g>
    <g id="text_20">
     <!-- 0.141 -->
     <g transform="translate(447.579125 199.045438) scale(0.1 -0.1)">
      <defs>
       <path id="DejaVuSans-34" d="M 2419 4116 
L 825 1625 
L 2419 1625 
L 2419 4116 
z
M 2253 4666 
L 3047 4666 
L 3047 1625 
L 3713 1625 
L 3713 1100 
L 3047 1100 
L 3047 0 
L 2419 0 
L 2419 1100 
L 313 1100 
L 313 1709 
L 2253 4666 
z
" transform="scale(0.015625)"/>
      </defs>
      <use xlink:href="#DejaVuSans-30"/>
      <use xlink:href="#DejaVuSans-2e" x="63.623047"/>
      <use xlink:href="#DejaVuSans-31" x="95.410156"/>
      <use xlink:href="#DejaVuSans-34" x="159.033203"/>
      <use xlink:href="#DejaVuSans-31" x="222.65625"/>
     </g>
    </g>
    <g id="line2d_47">
     <path d="M 419.579125 210.223563 
L 429.579125 210.223563 
L 439.579125 210.223563 
" style="fill: none; stroke: #482576; stroke-width: 1.5; stroke-linecap: square"/>
    </g>
    <g id="text_21">
     <!-- 0.162 -->
     <g transform="translate(447.579125 213.723563) scale(0.1 -0.1)">
      <defs>
       <path id="DejaVuSans-36" d="M 2113 2584 
Q 1688 2584 1439 2293 
Q 1191 2003 1191 1497 
Q 1191 994 1439 701 
Q 1688 409 2113 409 
Q 2538 409 2786 701 
Q 3034 994 3034 1497 
Q 3034 2003 2786 2293 
Q 2538 2584 2113 2584 
z
M 3366 4563 
L 3366 3988 
Q 3128 4100 2886 4159 
Q 2644 4219 2406 4219 
Q 1781 4219 1451 3797 
Q 1122 3375 1075 2522 
Q 1259 2794 1537 2939 
Q 1816 3084 2150 3084 
Q 2853 3084 3261 2657 
Q 3669 2231 3669 1497 
Q 3669 778 3244 343 
Q 2819 -91 2113 -91 
Q 1303 -91 875 529 
Q 447 1150 447 2328 
Q 447 3434 972 4092 
Q 1497 4750 2381 4750 
Q 2619 4750 2861 4703 
Q 3103 4656 3366 4563 
z
" transform="scale(0.015625)"/>
      </defs>
      <use xlink:href="#DejaVuSans-30"/>
      <use xlink:href="#DejaVuSans-2e" x="63.623047"/>
      <use xlink:href="#DejaVuSans-31" x="95.410156"/>
      <use xlink:href="#DejaVuSans-36" x="159.033203"/>
      <use xlink:href="#DejaVuSans-32" x="222.65625"/>
     </g>
    </g>
    <g id="line2d_48">
     <path d="M 419.579125 224.901688 
L 429.579125 224.901688 
L 439.579125 224.901688 
" style="fill: none; stroke: #46307e; stroke-width: 1.5; stroke-linecap: square"/>
    </g>
    <g id="text_22">
     <!-- 0.183 -->
     <g transform="translate(447.579125 228.401688) scale(0.1 -0.1)">
      <use xlink:href="#DejaVuSans-30"/>
      <use xlink:href="#DejaVuSans-2e" x="63.623047"/>
      <use xlink:href="#DejaVuSans-31" x="95.410156"/>
      <use xlink:href="#DejaVuSans-38" x="159.033203"/>
      <use xlink:href="#DejaVuSans-33" x="222.65625"/>
     </g>
    </g>
    <g id="line2d_49">
     <path d="M 419.579125 239.579813 
L 429.579125 239.579813 
L 439.579125 239.579813 
" style="fill: none; stroke: #443b84; stroke-width: 1.5; stroke-linecap: square"/>
    </g>
    <g id="text_23">
     <!-- 0.203 -->
     <g transform="translate(447.579125 243.079813) scale(0.1 -0.1)">
      <use xlink:href="#DejaVuSans-30"/>
      <use xlink:href="#DejaVuSans-2e" x="63.623047"/>
      <use xlink:href="#DejaVuSans-32" x="95.410156"/>
      <use xlink:href="#DejaVuSans-30" x="159.033203"/>
      <use xlink:href="#DejaVuSans-33" x="222.65625"/>
     </g>
    </g>
    <g id="line2d_50">
     <path d="M 419.579125 254.257938 
L 429.579125 254.257938 
L 439.579125 254.257938 
" style="fill: none; stroke: #404588; stroke-width: 1.5; stroke-linecap: square"/>
    </g>
    <g id="text_24">
     <!-- 0.224 -->
     <g transform="translate(447.579125 257.757938) scale(0.1 -0.1)">
      <use xlink:href="#DejaVuSans-30"/>
      <use xlink:href="#DejaVuSans-2e" x="63.623047"/>
      <use xlink:href="#DejaVuSans-32" x="95.410156"/>
      <use xlink:href="#DejaVuSans-32" x="159.033203"/>
      <use xlink:href="#DejaVuSans-34" x="222.65625"/>
     </g>
    </g>
    <g id="line2d_51">
     <path d="M 419.579125 268.936062 
L 429.579125 268.936062 
L 439.579125 268.936062 
" style="fill: none; stroke: #3c4f8a; stroke-width: 1.5; stroke-linecap: square"/>
    </g>
    <g id="text_25">
     <!-- 0.245 -->
     <g transform="translate(447.579125 272.436062) scale(0.1 -0.1)">
      <use xlink:href="#DejaVuSans-30"/>
      <use xlink:href="#DejaVuSans-2e" x="63.623047"/>
      <use xlink:href="#DejaVuSans-32" x="95.410156"/>
      <use xlink:href="#DejaVuSans-34" x="159.033203"/>
      <use xlink:href="#DejaVuSans-35" x="222.65625"/>
     </g>
    </g>
    <g id="line2d_52">
     <path d="M 419.579125 283.614188 
L 429.579125 283.614188 
L 439.579125 283.614188 
" style="fill: none; stroke: #38598c; stroke-width: 1.5; stroke-linecap: square"/>
    </g>
    <g id="text_26">
     <!-- 0.266 -->
     <g transform="translate(447.579125 287.114188) scale(0.1 -0.1)">
      <use xlink:href="#DejaVuSans-30"/>
      <use xlink:href="#DejaVuSans-2e" x="63.623047"/>
      <use xlink:href="#DejaVuSans-32" x="95.410156"/>
      <use xlink:href="#DejaVuSans-36" x="159.033203"/>
      <use xlink:href="#DejaVuSans-36" x="222.65625"/>
     </g>
    </g>
    <g id="line2d_53">
     <path d="M 419.579125 298.292312 
L 429.579125 298.292312 
L 439.579125 298.292312 
" style="fill: none; stroke: #33628d; stroke-width: 1.5; stroke-linecap: square"/>
    </g>
    <g id="text_27">
     <!-- 0.286 -->
     <g transform="translate(447.579125 301.792312) scale(0.1 -0.1)">
      <use xlink:href="#DejaVuSans-30"/>
      <use xlink:href="#DejaVuSans-2e" x="63.623047"/>
      <use xlink:href="#DejaVuSans-32" x="95.410156"/>
      <use xlink:href="#DejaVuSans-38" x="159.033203"/>
      <use xlink:href="#DejaVuSans-36" x="222.65625"/>
     </g>
    </g>
    <g id="line2d_54">
     <path d="M 496.20725 166.189188 
L 506.20725 166.189188 
L 516.20725 166.189188 
" style="fill: none; stroke: #2f6b8e; stroke-width: 1.5; stroke-linecap: square"/>
    </g>
    <g id="text_28">
     <!-- 0.307 -->
     <g transform="translate(524.20725 169.689188) scale(0.1 -0.1)">
      <use xlink:href="#DejaVuSans-30"/>
      <use xlink:href="#DejaVuSans-2e" x="63.623047"/>
      <use xlink:href="#DejaVuSans-33" x="95.410156"/>
      <use xlink:href="#DejaVuSans-30" x="159.033203"/>
      <use xlink:href="#DejaVuSans-37" x="222.65625"/>
     </g>
    </g>
    <g id="line2d_55">
     <path d="M 496.20725 180.867313 
L 506.20725 180.867313 
L 516.20725 180.867313 
" style="fill: none; stroke: #2c738e; stroke-width: 1.5; stroke-linecap: square"/>
    </g>
    <g id="text_29">
     <!-- 0.328 -->
     <g transform="translate(524.20725 184.367313) scale(0.1 -0.1)">
      <use xlink:href="#DejaVuSans-30"/>
      <use xlink:href="#DejaVuSans-2e" x="63.623047"/>
      <use xlink:href="#DejaVuSans-33" x="95.410156"/>
      <use xlink:href="#DejaVuSans-32" x="159.033203"/>
      <use xlink:href="#DejaVuSans-38" x="222.65625"/>
     </g>
    </g>
    <g id="line2d_56">
     <path d="M 496.20725 195.545438 
L 506.20725 195.545438 
L 516.20725 195.545438 
" style="fill: none; stroke: #297b8e; stroke-width: 1.5; stroke-linecap: square"/>
    </g>
    <g id="text_30">
     <!-- 0.348 -->
     <g transform="translate(524.20725 199.045438) scale(0.1 -0.1)">
      <use xlink:href="#DejaVuSans-30"/>
      <use xlink:href="#DejaVuSans-2e" x="63.623047"/>
      <use xlink:href="#DejaVuSans-33" x="95.410156"/>
      <use xlink:href="#DejaVuSans-34" x="159.033203"/>
      <use xlink:href="#DejaVuSans-38" x="222.65625"/>
     </g>
    </g>
    <g id="line2d_57">
     <path d="M 496.20725 210.223563 
L 506.20725 210.223563 
L 516.20725 210.223563 
" style="fill: none; stroke: #25838e; stroke-width: 1.5; stroke-linecap: square"/>
    </g>
    <g id="text_31">
     <!-- 0.369 -->
     <g transform="translate(524.20725 213.723563) scale(0.1 -0.1)">
      <use xlink:href="#DejaVuSans-30"/>
      <use xlink:href="#DejaVuSans-2e" x="63.623047"/>
      <use xlink:href="#DejaVuSans-33" x="95.410156"/>
      <use xlink:href="#DejaVuSans-36" x="159.033203"/>
      <use xlink:href="#DejaVuSans-39" x="222.65625"/>
     </g>
    </g>
    <g id="line2d_58">
     <path d="M 496.20725 224.901688 
L 506.20725 224.901688 
L 516.20725 224.901688 
" style="fill: none; stroke: #228c8d; stroke-width: 1.5; stroke-linecap: square"/>
    </g>
    <g id="text_32">
     <!-- 0.39 -->
     <g transform="translate(524.20725 228.401688) scale(0.1 -0.1)">
      <use xlink:href="#DejaVuSans-30"/>
      <use xlink:href="#DejaVuSans-2e" x="63.623047"/>
      <use xlink:href="#DejaVuSans-33" x="95.410156"/>
      <use xlink:href="#DejaVuSans-39" x="159.033203"/>
     </g>
    </g>
    <g id="line2d_59">
     <path d="M 496.20725 239.579813 
L 506.20725 239.579813 
L 516.20725 239.579813 
" style="fill: none; stroke: #1f948c; stroke-width: 1.5; stroke-linecap: square"/>
    </g>
    <g id="text_33">
     <!-- 0.41 -->
     <g transform="translate(524.20725 243.079813) scale(0.1 -0.1)">
      <use xlink:href="#DejaVuSans-30"/>
      <use xlink:href="#DejaVuSans-2e" x="63.623047"/>
      <use xlink:href="#DejaVuSans-34" x="95.410156"/>
      <use xlink:href="#DejaVuSans-31" x="159.033203"/>
     </g>
    </g>
    <g id="line2d_60">
     <path d="M 496.20725 254.257938 
L 506.20725 254.257938 
L 516.20725 254.257938 
" style="fill: none; stroke: #1e9d89; stroke-width: 1.5; stroke-linecap: square"/>
    </g>
    <g id="text_34">
     <!-- 0.431 -->
     <g transform="translate(524.20725 257.757938) scale(0.1 -0.1)">
      <use xlink:href="#DejaVuSans-30"/>
      <use xlink:href="#DejaVuSans-2e" x="63.623047"/>
      <use xlink:href="#DejaVuSans-34" x="95.410156"/>
      <use xlink:href="#DejaVuSans-33" x="159.033203"/>
      <use xlink:href="#DejaVuSans-31" x="222.65625"/>
     </g>
    </g>
    <g id="line2d_61">
     <path d="M 496.20725 268.936062 
L 506.20725 268.936062 
L 516.20725 268.936062 
" style="fill: none; stroke: #21a585; stroke-width: 1.5; stroke-linecap: square"/>
    </g>
    <g id="text_35">
     <!-- 0.452 -->
     <g transform="translate(524.20725 272.436062) scale(0.1 -0.1)">
      <use xlink:href="#DejaVuSans-30"/>
      <use xlink:href="#DejaVuSans-2e" x="63.623047"/>
      <use xlink:href="#DejaVuSans-34" x="95.410156"/>
      <use xlink:href="#DejaVuSans-35" x="159.033203"/>
      <use xlink:href="#DejaVuSans-32" x="222.65625"/>
     </g>
    </g>
    <g id="line2d_62">
     <path d="M 496.20725 283.614188 
L 506.20725 283.614188 
L 516.20725 283.614188 
" style="fill: none; stroke: #26ad81; stroke-width: 1.5; stroke-linecap: square"/>
    </g>
    <g id="text_36">
     <!-- 0.472 -->
     <g transform="translate(524.20725 287.114188) scale(0.1 -0.1)">
      <use xlink:href="#DejaVuSans-30"/>
      <use xlink:href="#DejaVuSans-2e" x="63.623047"/>
      <use xlink:href="#DejaVuSans-34" x="95.410156"/>
      <use xlink:href="#DejaVuSans-37" x="159.033203"/>
      <use xlink:href="#DejaVuSans-32" x="222.65625"/>
     </g>
    </g>
    <g id="line2d_63">
     <path d="M 496.20725 298.292312 
L 506.20725 298.292312 
L 516.20725 298.292312 
" style="fill: none; stroke: #31b57b; stroke-width: 1.5; stroke-linecap: square"/>
    </g>
    <g id="text_37">
     <!-- 0.493 -->
     <g transform="translate(524.20725 301.792312) scale(0.1 -0.1)">
      <use xlink:href="#DejaVuSans-30"/>
      <use xlink:href="#DejaVuSans-2e" x="63.623047"/>
      <use xlink:href="#DejaVuSans-34" x="95.410156"/>
      <use xlink:href="#DejaVuSans-39" x="159.033203"/>
      <use xlink:href="#DejaVuSans-33" x="222.65625"/>
     </g>
    </g>
    <g id="line2d_64">
     <path d="M 572.835375 166.189188 
L 582.835375 166.189188 
L 592.835375 166.189188 
" style="fill: none; stroke: #3fbc73; stroke-width: 1.5; stroke-linecap: square"/>
    </g>
    <g id="text_38">
     <!-- 0.514 -->
     <g transform="translate(600.835375 169.689188) scale(0.1 -0.1)">
      <use xlink:href="#DejaVuSans-30"/>
      <use xlink:href="#DejaVuSans-2e" x="63.623047"/>
      <use xlink:href="#DejaVuSans-35" x="95.410156"/>
      <use xlink:href="#DejaVuSans-31" x="159.033203"/>
      <use xlink:href="#DejaVuSans-34" x="222.65625"/>
     </g>
    </g>
    <g id="line2d_65">
     <path d="M 572.835375 180.867313 
L 582.835375 180.867313 
L 592.835375 180.867313 
" style="fill: none; stroke: #50c46a; stroke-width: 1.5; stroke-linecap: square"/>
    </g>
    <g id="text_39">
     <!-- 0.534 -->
     <g transform="translate(600.835375 184.367313) scale(0.1 -0.1)">
      <use xlink:href="#DejaVuSans-30"/>
      <use xlink:href="#DejaVuSans-2e" x="63.623047"/>
      <use xlink:href="#DejaVuSans-35" x="95.410156"/>
      <use xlink:href="#DejaVuSans-33" x="159.033203"/>
      <use xlink:href="#DejaVuSans-34" x="222.65625"/>
     </g>
    </g>
    <g id="line2d_66">
     <path d="M 572.835375 195.545438 
L 582.835375 195.545438 
L 592.835375 195.545438 
" style="fill: none; stroke: #63cb5f; stroke-width: 1.5; stroke-linecap: square"/>
    </g>
    <g id="text_40">
     <!-- 0.555 -->
     <g transform="translate(600.835375 199.045438) scale(0.1 -0.1)">
      <use xlink:href="#DejaVuSans-30"/>
      <use xlink:href="#DejaVuSans-2e" x="63.623047"/>
      <use xlink:href="#DejaVuSans-35" x="95.410156"/>
      <use xlink:href="#DejaVuSans-35" x="159.033203"/>
      <use xlink:href="#DejaVuSans-35" x="222.65625"/>
     </g>
    </g>
    <g id="line2d_67">
     <path d="M 572.835375 210.223563 
L 582.835375 210.223563 
L 592.835375 210.223563 
" style="fill: none; stroke: #77d153; stroke-width: 1.5; stroke-linecap: square"/>
    </g>
    <g id="text_41">
     <!-- 0.576 -->
     <g transform="translate(600.835375 213.723563) scale(0.1 -0.1)">
      <use xlink:href="#DejaVuSans-30"/>
      <use xlink:href="#DejaVuSans-2e" x="63.623047"/>
      <use xlink:href="#DejaVuSans-35" x="95.410156"/>
      <use xlink:href="#DejaVuSans-37" x="159.033203"/>
      <use xlink:href="#DejaVuSans-36" x="222.65625"/>
     </g>
    </g>
    <g id="line2d_68">
     <path d="M 572.835375 224.901688 
L 582.835375 224.901688 
L 592.835375 224.901688 
" style="fill: none; stroke: #8bd646; stroke-width: 1.5; stroke-linecap: square"/>
    </g>
    <g id="text_42">
     <!-- 0.597 -->
     <g transform="translate(600.835375 228.401688) scale(0.1 -0.1)">
      <use xlink:href="#DejaVuSans-30"/>
      <use xlink:href="#DejaVuSans-2e" x="63.623047"/>
      <use xlink:href="#DejaVuSans-35" x="95.410156"/>
      <use xlink:href="#DejaVuSans-39" x="159.033203"/>
      <use xlink:href="#DejaVuSans-37" x="222.65625"/>
     </g>
    </g>
    <g id="line2d_69">
     <path d="M 572.835375 239.579813 
L 582.835375 239.579813 
L 592.835375 239.579813 
" style="fill: none; stroke: #a2da37; stroke-width: 1.5; stroke-linecap: square"/>
    </g>
    <g id="text_43">
     <!-- 0.617 -->
     <g transform="translate(600.835375 243.079813) scale(0.1 -0.1)">
      <use xlink:href="#DejaVuSans-30"/>
      <use xlink:href="#DejaVuSans-2e" x="63.623047"/>
      <use xlink:href="#DejaVuSans-36" x="95.410156"/>
      <use xlink:href="#DejaVuSans-31" x="159.033203"/>
      <use xlink:href="#DejaVuSans-37" x="222.65625"/>
     </g>
    </g>
    <g id="line2d_70">
     <path d="M 572.835375 254.257938 
L 582.835375 254.257938 
L 592.835375 254.257938 
" style="fill: none; stroke: #bade28; stroke-width: 1.5; stroke-linecap: square"/>
    </g>
    <g id="text_44">
     <!-- 0.638 -->
     <g transform="translate(600.835375 257.757938) scale(0.1 -0.1)">
      <use xlink:href="#DejaVuSans-30"/>
      <use xlink:href="#DejaVuSans-2e" x="63.623047"/>
      <use xlink:href="#DejaVuSans-36" x="95.410156"/>
      <use xlink:href="#DejaVuSans-33" x="159.033203"/>
      <use xlink:href="#DejaVuSans-38" x="222.65625"/>
     </g>
    </g>
    <g id="line2d_71">
     <path d="M 572.835375 268.936062 
L 582.835375 268.936062 
L 592.835375 268.936062 
" style="fill: none; stroke: #d2e21b; stroke-width: 1.5; stroke-linecap: square"/>
    </g>
    <g id="text_45">
     <!-- 0.659 -->
     <g transform="translate(600.835375 272.436062) scale(0.1 -0.1)">
      <use xlink:href="#DejaVuSans-30"/>
      <use xlink:href="#DejaVuSans-2e" x="63.623047"/>
      <use xlink:href="#DejaVuSans-36" x="95.410156"/>
      <use xlink:href="#DejaVuSans-35" x="159.033203"/>
      <use xlink:href="#DejaVuSans-39" x="222.65625"/>
     </g>
    </g>
    <g id="line2d_72">
     <path d="M 572.835375 283.614188 
L 582.835375 283.614188 
L 592.835375 283.614188 
" style="fill: none; stroke: #eae51a; stroke-width: 1.5; stroke-linecap: square"/>
    </g>
    <g id="text_46">
     <!-- 0.679 -->
     <g transform="translate(600.835375 287.114188) scale(0.1 -0.1)">
      <use xlink:href="#DejaVuSans-30"/>
      <use xlink:href="#DejaVuSans-2e" x="63.623047"/>
      <use xlink:href="#DejaVuSans-36" x="95.410156"/>
      <use xlink:href="#DejaVuSans-37" x="159.033203"/>
      <use xlink:href="#DejaVuSans-39" x="222.65625"/>
     </g>
    </g>
    <g id="line2d_73">
     <path d="M 572.835375 298.292312 
L 582.835375 298.292312 
L 592.835375 298.292312 
" style="fill: none; stroke: #fde725; stroke-width: 1.5; stroke-linecap: square"/>
    </g>
    <g id="text_47">
     <!-- 0.7 -->
     <g transform="translate(600.835375 301.792312) scale(0.1 -0.1)">
      <use xlink:href="#DejaVuSans-30"/>
      <use xlink:href="#DejaVuSans-2e" x="63.623047"/>
      <use xlink:href="#DejaVuSans-37" x="95.410156"/>
     </g>
    </g>
   </g>
  </g>
  <g id="text_48">
   <!-- x0x1-y0 One-tone-powerDep -->
   <g transform="translate(126.599063 16.318125) scale(0.12 -0.12)">
    <defs>
     <path id="DejaVuSans-78" d="M 3513 3500 
L 2247 1797 
L 3578 0 
L 2900 0 
L 1881 1375 
L 863 0 
L 184 0 
L 1544 1831 
L 300 3500 
L 978 3500 
L 1906 2253 
L 2834 3500 
L 3513 3500 
z
" transform="scale(0.015625)"/>
     <path id="DejaVuSans-2d" d="M 313 2009 
L 1997 2009 
L 1997 1497 
L 313 1497 
L 313 2009 
z
" transform="scale(0.015625)"/>
     <path id="DejaVuSans-4f" d="M 2522 4238 
Q 1834 4238 1429 3725 
Q 1025 3213 1025 2328 
Q 1025 1447 1429 934 
Q 1834 422 2522 422 
Q 3209 422 3611 934 
Q 4013 1447 4013 2328 
Q 4013 3213 3611 3725 
Q 3209 4238 2522 4238 
z
M 2522 4750 
Q 3503 4750 4090 4092 
Q 4678 3434 4678 2328 
Q 4678 1225 4090 567 
Q 3503 -91 2522 -91 
Q 1538 -91 948 565 
Q 359 1222 359 2328 
Q 359 3434 948 4092 
Q 1538 4750 2522 4750 
z
" transform="scale(0.015625)"/>
     <path id="DejaVuSans-77" d="M 269 3500 
L 844 3500 
L 1563 769 
L 2278 3500 
L 2956 3500 
L 3675 769 
L 4391 3500 
L 4966 3500 
L 4050 0 
L 3372 0 
L 2619 2869 
L 1863 0 
L 1184 0 
L 269 3500 
z
" transform="scale(0.015625)"/>
     <path id="DejaVuSans-44" d="M 1259 4147 
L 1259 519 
L 2022 519 
Q 2988 519 3436 956 
Q 3884 1394 3884 2338 
Q 3884 3275 3436 3711 
Q 2988 4147 2022 4147 
L 1259 4147 
z
M 628 4666 
L 1925 4666 
Q 3281 4666 3915 4102 
Q 4550 3538 4550 2338 
Q 4550 1131 3912 565 
Q 3275 0 1925 0 
L 628 0 
L 628 4666 
z
" transform="scale(0.015625)"/>
    </defs>
    <use xlink:href="#DejaVuSans-78"/>
    <use xlink:href="#DejaVuSans-30" x="59.179688"/>
    <use xlink:href="#DejaVuSans-78" x="122.802734"/>
    <use xlink:href="#DejaVuSans-31" x="181.982422"/>
    <use xlink:href="#DejaVuSans-2d" x="245.605469"/>
    <use xlink:href="#DejaVuSans-79" x="279.939453"/>
    <use xlink:href="#DejaVuSans-30" x="339.119141"/>
    <use xlink:href="#DejaVuSans-20" x="402.742188"/>
    <use xlink:href="#DejaVuSans-4f" x="434.529297"/>
    <use xlink:href="#DejaVuSans-6e" x="513.240234"/>
    <use xlink:href="#DejaVuSans-65" x="576.619141"/>
    <use xlink:href="#DejaVuSans-2d" x="638.142578"/>
    <use xlink:href="#DejaVuSans-74" x="674.226562"/>
    <use xlink:href="#DejaVuSans-6f" x="713.435547"/>
    <use xlink:href="#DejaVuSans-6e" x="774.617188"/>
    <use xlink:href="#DejaVuSans-65" x="837.996094"/>
    <use xlink:href="#DejaVuSans-2d" x="899.519531"/>
    <use xlink:href="#DejaVuSans-70" x="935.603516"/>
    <use xlink:href="#DejaVuSans-6f" x="999.080078"/>
    <use xlink:href="#DejaVuSans-77" x="1060.261719"/>
    <use xlink:href="#DejaVuSans-65" x="1142.048828"/>
    <use xlink:href="#DejaVuSans-72" x="1203.572266"/>
    <use xlink:href="#DejaVuSans-44" x="1244.685547"/>
    <use xlink:href="#DejaVuSans-65" x="1321.6875"/>
    <use xlink:href="#DejaVuSans-70" x="1383.210938"/>
   </g>
   <!-- tuid: 20240223-104708-311-ee5c75 -->
   <g transform="translate(104.3175 29.7555) scale(0.12 -0.12)">
    <defs>
     <path id="DejaVuSans-3a" d="M 750 794 
L 1409 794 
L 1409 0 
L 750 0 
L 750 794 
z
M 750 3309 
L 1409 3309 
L 1409 2516 
L 750 2516 
L 750 3309 
z
" transform="scale(0.015625)"/>
    </defs>
    <use xlink:href="#DejaVuSans-74"/>
    <use xlink:href="#DejaVuSans-75" x="39.208984"/>
    <use xlink:href="#DejaVuSans-69" x="102.587891"/>
    <use xlink:href="#DejaVuSans-64" x="130.371094"/>
    <use xlink:href="#DejaVuSans-3a" x="193.847656"/>
    <use xlink:href="#DejaVuSans-20" x="227.539062"/>
    <use xlink:href="#DejaVuSans-32" x="259.326172"/>
    <use xlink:href="#DejaVuSans-30" x="322.949219"/>
    <use xlink:href="#DejaVuSans-32" x="386.572266"/>
    <use xlink:href="#DejaVuSans-34" x="450.195312"/>
    <use xlink:href="#DejaVuSans-30" x="513.818359"/>
    <use xlink:href="#DejaVuSans-32" x="577.441406"/>
    <use xlink:href="#DejaVuSans-32" x="641.064453"/>
    <use xlink:href="#DejaVuSans-33" x="704.6875"/>
    <use xlink:href="#DejaVuSans-2d" x="768.310547"/>
    <use xlink:href="#DejaVuSans-31" x="804.394531"/>
    <use xlink:href="#DejaVuSans-30" x="868.017578"/>
    <use xlink:href="#DejaVuSans-34" x="931.640625"/>
    <use xlink:href="#DejaVuSans-37" x="995.263672"/>
    <use xlink:href="#DejaVuSans-30" x="1058.886719"/>
    <use xlink:href="#DejaVuSans-38" x="1122.509766"/>
    <use xlink:href="#DejaVuSans-2d" x="1186.132812"/>
    <use xlink:href="#DejaVuSans-33" x="1222.216797"/>
    <use xlink:href="#DejaVuSans-31" x="1285.839844"/>
    <use xlink:href="#DejaVuSans-31" x="1349.462891"/>
    <use xlink:href="#DejaVuSans-2d" x="1413.085938"/>
    <use xlink:href="#DejaVuSans-65" x="1449.169922"/>
    <use xlink:href="#DejaVuSans-65" x="1510.693359"/>
    <use xlink:href="#DejaVuSans-35" x="1572.216797"/>
    <use xlink:href="#DejaVuSans-63" x="1635.839844"/>
    <use xlink:href="#DejaVuSans-37" x="1690.820312"/>
    <use xlink:href="#DejaVuSans-35" x="1754.443359"/>
   </g>
  </g>
 </g>
 <defs>
  <clipPath id="p29926d9a36">
   <rect x="40.603125" y="41.76" width="357.12" height="266.112"/>
  </clipPath>
 </defs>
</svg>
