<?xml version="1.0" encoding="utf-8" standalone="no"?>
<!DOCTYPE svg PUBLIC "-//W3C//DTD SVG 1.1//EN"
  "http://www.w3.org/Graphics/SVG/1.1/DTD/svg11.dtd">
<svg xmlns:xlink="http://www.w3.org/1999/xlink" width="571.649437pt" height="345.42825pt" viewBox="0 0 571.649437 345.42825" xmlns="http://www.w3.org/2000/svg" version="1.1">
 <metadata>
  <rdf:RDF xmlns:dc="http://purl.org/dc/elements/1.1/" xmlns:cc="http://creativecommons.org/ns#" xmlns:rdf="http://www.w3.org/1999/02/22-rdf-syntax-ns#">
   <cc:Work>
    <dc:type rdf:resource="http://purl.org/dc/dcmitype/StillImage"/>
    <dc:date>2024-03-11T11:31:28.240408</dc:date>
    <dc:format>image/svg+xml</dc:format>
    <dc:creator>
     <cc:Agent>
      <dc:title>Matplotlib v3.8.2, https://matplotlib.org/</dc:title>
     </cc:Agent>
    </dc:creator>
   </cc:Work>
  </rdf:RDF>
 </metadata>
 <defs>
  <style type="text/css">*{stroke-linejoin: round; stroke-linecap: butt}</style>
 </defs>
 <g id="figure_1">
  <g id="patch_1">
   <path d="M 0 345.42825 
L 571.649437 345.42825 
L 571.649437 -0 
L 0 -0 
L 0 345.42825 
z
" style="fill: none; opacity: 0"/>
  </g>
  <g id="axes_1">
   <g id="patch_2">
    <path d="M 50.573438 307.872 
L 407.693438 307.872 
L 407.693438 41.76 
L 50.573438 41.76 
z
" style="fill: #ffffff"/>
   </g>
   <g id="matplotlib.axis_1">
    <g id="xtick_1">
     <g id="line2d_1">
      <defs>
       <path id="mc26e3d2a9a" d="M 0 0 
L 0 3.5 
" style="stroke: #000000; stroke-width: 0.8"/>
      </defs>
      <g>
       <use xlink:href="#mc26e3d2a9a" x="69.389416" y="307.872" style="stroke: #000000; stroke-width: 0.8"/>
      </g>
     </g>
     <g id="text_1">
      <!-- -300 -->
      <g transform="translate(58.04176 322.470438) scale(0.1 -0.1)">
       <defs>
        <path id="DejaVuSans-2d" d="M 313 2009 
L 1997 2009 
L 1997 1497 
L 313 1497 
L 313 2009 
z
" transform="scale(0.015625)"/>
        <path id="DejaVuSans-33" d="M 2597 2516 
Q 3050 2419 3304 2112 
Q 3559 1806 3559 1356 
Q 3559 666 3084 287 
Q 2609 -91 1734 -91 
Q 1441 -91 1130 -33 
Q 819 25 488 141 
L 488 750 
Q 750 597 1062 519 
Q 1375 441 1716 441 
Q 2309 441 2620 675 
Q 2931 909 2931 1356 
Q 2931 1769 2642 2001 
Q 2353 2234 1838 2234 
L 1294 2234 
L 1294 2753 
L 1863 2753 
Q 2328 2753 2575 2939 
Q 2822 3125 2822 3475 
Q 2822 3834 2567 4026 
Q 2313 4219 1838 4219 
Q 1578 4219 1281 4162 
Q 984 4106 628 3988 
L 628 4550 
Q 988 4650 1302 4700 
Q 1616 4750 1894 4750 
Q 2613 4750 3031 4423 
Q 3450 4097 3450 3541 
Q 3450 3153 3228 2886 
Q 3006 2619 2597 2516 
z
" transform="scale(0.015625)"/>
        <path id="DejaVuSans-30" d="M 2034 4250 
Q 1547 4250 1301 3770 
Q 1056 3291 1056 2328 
Q 1056 1369 1301 889 
Q 1547 409 2034 409 
Q 2525 409 2770 889 
Q 3016 1369 3016 2328 
Q 3016 3291 2770 3770 
Q 2525 4250 2034 4250 
z
M 2034 4750 
Q 2819 4750 3233 4129 
Q 3647 3509 3647 2328 
Q 3647 1150 3233 529 
Q 2819 -91 2034 -91 
Q 1250 -91 836 529 
Q 422 1150 422 2328 
Q 422 3509 836 4129 
Q 1250 4750 2034 4750 
z
" transform="scale(0.015625)"/>
       </defs>
       <use xlink:href="#DejaVuSans-2d"/>
       <use xlink:href="#DejaVuSans-33" x="36.083984"/>
       <use xlink:href="#DejaVuSans-30" x="99.707031"/>
       <use xlink:href="#DejaVuSans-30" x="163.330078"/>
      </g>
     </g>
    </g>
    <g id="xtick_2">
     <g id="line2d_2">
      <g>
       <use xlink:href="#mc26e3d2a9a" x="136.492559" y="307.872" style="stroke: #000000; stroke-width: 0.8"/>
      </g>
     </g>
     <g id="text_2">
      <!-- -200 -->
      <g transform="translate(125.144903 322.470438) scale(0.1 -0.1)">
       <defs>
        <path id="DejaVuSans-32" d="M 1228 531 
L 3431 531 
L 3431 0 
L 469 0 
L 469 531 
Q 828 903 1448 1529 
Q 2069 2156 2228 2338 
Q 2531 2678 2651 2914 
Q 2772 3150 2772 3378 
Q 2772 3750 2511 3984 
Q 2250 4219 1831 4219 
Q 1534 4219 1204 4116 
Q 875 4013 500 3803 
L 500 4441 
Q 881 4594 1212 4672 
Q 1544 4750 1819 4750 
Q 2544 4750 2975 4387 
Q 3406 4025 3406 3419 
Q 3406 3131 3298 2873 
Q 3191 2616 2906 2266 
Q 2828 2175 2409 1742 
Q 1991 1309 1228 531 
z
" transform="scale(0.015625)"/>
       </defs>
       <use xlink:href="#DejaVuSans-2d"/>
       <use xlink:href="#DejaVuSans-32" x="36.083984"/>
       <use xlink:href="#DejaVuSans-30" x="99.707031"/>
       <use xlink:href="#DejaVuSans-30" x="163.330078"/>
      </g>
     </g>
    </g>
    <g id="xtick_3">
     <g id="line2d_3">
      <g>
       <use xlink:href="#mc26e3d2a9a" x="203.595702" y="307.872" style="stroke: #000000; stroke-width: 0.8"/>
      </g>
     </g>
     <g id="text_3">
      <!-- -100 -->
      <g transform="translate(192.248045 322.470438) scale(0.1 -0.1)">
       <defs>
        <path id="DejaVuSans-31" d="M 794 531 
L 1825 531 
L 1825 4091 
L 703 3866 
L 703 4441 
L 1819 4666 
L 2450 4666 
L 2450 531 
L 3481 531 
L 3481 0 
L 794 0 
L 794 531 
z
" transform="scale(0.015625)"/>
       </defs>
       <use xlink:href="#DejaVuSans-2d"/>
       <use xlink:href="#DejaVuSans-31" x="36.083984"/>
       <use xlink:href="#DejaVuSans-30" x="99.707031"/>
       <use xlink:href="#DejaVuSans-30" x="163.330078"/>
      </g>
     </g>
    </g>
    <g id="xtick_4">
     <g id="line2d_4">
      <g>
       <use xlink:href="#mc26e3d2a9a" x="270.698844" y="307.872" style="stroke: #000000; stroke-width: 0.8"/>
      </g>
     </g>
     <g id="text_4">
      <!-- 0 -->
      <g transform="translate(267.517594 322.470438) scale(0.1 -0.1)">
       <use xlink:href="#DejaVuSans-30"/>
      </g>
     </g>
    </g>
    <g id="xtick_5">
     <g id="line2d_5">
      <g>
       <use xlink:href="#mc26e3d2a9a" x="337.801987" y="307.872" style="stroke: #000000; stroke-width: 0.8"/>
      </g>
     </g>
     <g id="text_5">
      <!-- 100 -->
      <g transform="translate(328.258237 322.470438) scale(0.1 -0.1)">
       <use xlink:href="#DejaVuSans-31"/>
       <use xlink:href="#DejaVuSans-30" x="63.623047"/>
       <use xlink:href="#DejaVuSans-30" x="127.246094"/>
      </g>
     </g>
    </g>
    <g id="xtick_6">
     <g id="line2d_6">
      <g>
       <use xlink:href="#mc26e3d2a9a" x="404.90513" y="307.872" style="stroke: #000000; stroke-width: 0.8"/>
      </g>
     </g>
     <g id="text_6">
      <!-- 200 -->
      <g transform="translate(395.36138 322.470438) scale(0.1 -0.1)">
       <use xlink:href="#DejaVuSans-32"/>
       <use xlink:href="#DejaVuSans-30" x="63.623047"/>
       <use xlink:href="#DejaVuSans-30" x="127.246094"/>
      </g>
     </g>
    </g>
    <g id="text_7">
     <!-- Re$(S_{21})$ [mV] -->
     <g transform="translate(197.133438 336.148562) scale(0.1 -0.1)">
      <defs>
       <path id="DejaVuSans-52" d="M 2841 2188 
Q 3044 2119 3236 1894 
Q 3428 1669 3622 1275 
L 4263 0 
L 3584 0 
L 2988 1197 
Q 2756 1666 2539 1819 
Q 2322 1972 1947 1972 
L 1259 1972 
L 1259 0 
L 628 0 
L 628 4666 
L 2053 4666 
Q 2853 4666 3247 4331 
Q 3641 3997 3641 3322 
Q 3641 2881 3436 2590 
Q 3231 2300 2841 2188 
z
M 1259 4147 
L 1259 2491 
L 2053 2491 
Q 2509 2491 2742 2702 
Q 2975 2913 2975 3322 
Q 2975 3731 2742 3939 
Q 2509 4147 2053 4147 
L 1259 4147 
z
" transform="scale(0.015625)"/>
       <path id="DejaVuSans-65" d="M 3597 1894 
L 3597 1613 
L 953 1613 
Q 991 1019 1311 708 
Q 1631 397 2203 397 
Q 2534 397 2845 478 
Q 3156 559 3463 722 
L 3463 178 
Q 3153 47 2828 -22 
Q 2503 -91 2169 -91 
Q 1331 -91 842 396 
Q 353 884 353 1716 
Q 353 2575 817 3079 
Q 1281 3584 2069 3584 
Q 2775 3584 3186 3129 
Q 3597 2675 3597 1894 
z
M 3022 2063 
Q 3016 2534 2758 2815 
Q 2500 3097 2075 3097 
Q 1594 3097 1305 2825 
Q 1016 2553 972 2059 
L 3022 2063 
z
" transform="scale(0.015625)"/>
       <path id="DejaVuSans-28" d="M 1984 4856 
Q 1566 4138 1362 3434 
Q 1159 2731 1159 2009 
Q 1159 1288 1364 580 
Q 1569 -128 1984 -844 
L 1484 -844 
Q 1016 -109 783 600 
Q 550 1309 550 2009 
Q 550 2706 781 3412 
Q 1013 4119 1484 4856 
L 1984 4856 
z
" transform="scale(0.015625)"/>
       <path id="DejaVuSans-Oblique-53" d="M 3859 4513 
L 3738 3897 
Q 3422 4066 3111 4152 
Q 2800 4238 2509 4238 
Q 1944 4238 1609 3991 
Q 1275 3744 1275 3334 
Q 1275 3109 1398 2989 
Q 1522 2869 2034 2731 
L 2413 2638 
Q 3053 2472 3303 2217 
Q 3553 1963 3553 1503 
Q 3553 797 2998 353 
Q 2444 -91 1538 -91 
Q 1166 -91 791 -17 
Q 416 56 38 206 
L 166 856 
Q 513 641 861 531 
Q 1209 422 1556 422 
Q 2147 422 2503 684 
Q 2859 947 2859 1369 
Q 2859 1650 2717 1795 
Q 2575 1941 2106 2059 
L 1728 2156 
Q 1081 2325 845 2545 
Q 609 2766 609 3163 
Q 609 3859 1145 4304 
Q 1681 4750 2541 4750 
Q 2875 4750 3203 4690 
Q 3531 4631 3859 4513 
z
" transform="scale(0.015625)"/>
       <path id="DejaVuSans-29" d="M 513 4856 
L 1013 4856 
Q 1481 4119 1714 3412 
Q 1947 2706 1947 2009 
Q 1947 1309 1714 600 
Q 1481 -109 1013 -844 
L 513 -844 
Q 928 -128 1133 580 
Q 1338 1288 1338 2009 
Q 1338 2731 1133 3434 
Q 928 4138 513 4856 
z
" transform="scale(0.015625)"/>
       <path id="DejaVuSans-20" transform="scale(0.015625)"/>
       <path id="DejaVuSans-5b" d="M 550 4863 
L 1875 4863 
L 1875 4416 
L 1125 4416 
L 1125 -397 
L 1875 -397 
L 1875 -844 
L 550 -844 
L 550 4863 
z
" transform="scale(0.015625)"/>
       <path id="DejaVuSans-6d" d="M 3328 2828 
Q 3544 3216 3844 3400 
Q 4144 3584 4550 3584 
Q 5097 3584 5394 3201 
Q 5691 2819 5691 2113 
L 5691 0 
L 5113 0 
L 5113 2094 
Q 5113 2597 4934 2840 
Q 4756 3084 4391 3084 
Q 3944 3084 3684 2787 
Q 3425 2491 3425 1978 
L 3425 0 
L 2847 0 
L 2847 2094 
Q 2847 2600 2669 2842 
Q 2491 3084 2119 3084 
Q 1678 3084 1418 2786 
Q 1159 2488 1159 1978 
L 1159 0 
L 581 0 
L 581 3500 
L 1159 3500 
L 1159 2956 
Q 1356 3278 1631 3431 
Q 1906 3584 2284 3584 
Q 2666 3584 2933 3390 
Q 3200 3197 3328 2828 
z
" transform="scale(0.015625)"/>
       <path id="DejaVuSans-56" d="M 1831 0 
L 50 4666 
L 709 4666 
L 2188 738 
L 3669 4666 
L 4325 4666 
L 2547 0 
L 1831 0 
z
" transform="scale(0.015625)"/>
       <path id="DejaVuSans-5d" d="M 1947 4863 
L 1947 -844 
L 622 -844 
L 622 -397 
L 1369 -397 
L 1369 4416 
L 622 4416 
L 622 4863 
L 1947 4863 
z
" transform="scale(0.015625)"/>
      </defs>
      <use xlink:href="#DejaVuSans-52" transform="translate(0 0.015625)"/>
      <use xlink:href="#DejaVuSans-65" transform="translate(69.482422 0.015625)"/>
      <use xlink:href="#DejaVuSans-28" transform="translate(131.005859 0.015625)"/>
      <use xlink:href="#DejaVuSans-Oblique-53" transform="translate(170.019531 0.015625)"/>
      <use xlink:href="#DejaVuSans-32" transform="translate(233.496094 -16.390625) scale(0.7)"/>
      <use xlink:href="#DejaVuSans-31" transform="translate(278.032227 -16.390625) scale(0.7)"/>
      <use xlink:href="#DejaVuSans-29" transform="translate(325.302734 0.015625)"/>
      <use xlink:href="#DejaVuSans-20" transform="translate(364.316406 0.015625)"/>
      <use xlink:href="#DejaVuSans-5b" transform="translate(396.103516 0.015625)"/>
      <use xlink:href="#DejaVuSans-6d" transform="translate(435.117188 0.015625)"/>
      <use xlink:href="#DejaVuSans-56" transform="translate(532.529297 0.015625)"/>
      <use xlink:href="#DejaVuSans-5d" transform="translate(600.9375 0.015625)"/>
     </g>
    </g>
   </g>
   <g id="matplotlib.axis_2">
    <g id="ytick_1">
     <g id="line2d_7">
      <defs>
       <path id="m4da14ee584" d="M 0 0 
L -3.5 0 
" style="stroke: #000000; stroke-width: 0.8"/>
      </defs>
      <g>
       <use xlink:href="#m4da14ee584" x="50.573438" y="292.569879" style="stroke: #000000; stroke-width: 0.8"/>
      </g>
     </g>
     <g id="text_8">
      <!-- -300 -->
      <g transform="translate(20.878125 296.369098) scale(0.1 -0.1)">
       <use xlink:href="#DejaVuSans-2d"/>
       <use xlink:href="#DejaVuSans-33" x="36.083984"/>
       <use xlink:href="#DejaVuSans-30" x="99.707031"/>
       <use xlink:href="#DejaVuSans-30" x="163.330078"/>
      </g>
     </g>
    </g>
    <g id="ytick_2">
     <g id="line2d_8">
      <g>
       <use xlink:href="#m4da14ee584" x="50.573438" y="249.75321" style="stroke: #000000; stroke-width: 0.8"/>
      </g>
     </g>
     <g id="text_9">
      <!-- -200 -->
      <g transform="translate(20.878125 253.552428) scale(0.1 -0.1)">
       <use xlink:href="#DejaVuSans-2d"/>
       <use xlink:href="#DejaVuSans-32" x="36.083984"/>
       <use xlink:href="#DejaVuSans-30" x="99.707031"/>
       <use xlink:href="#DejaVuSans-30" x="163.330078"/>
      </g>
     </g>
    </g>
    <g id="ytick_3">
     <g id="line2d_9">
      <g>
       <use xlink:href="#m4da14ee584" x="50.573438" y="206.93654" style="stroke: #000000; stroke-width: 0.8"/>
      </g>
     </g>
     <g id="text_10">
      <!-- -100 -->
      <g transform="translate(20.878125 210.735759) scale(0.1 -0.1)">
       <use xlink:href="#DejaVuSans-2d"/>
       <use xlink:href="#DejaVuSans-31" x="36.083984"/>
       <use xlink:href="#DejaVuSans-30" x="99.707031"/>
       <use xlink:href="#DejaVuSans-30" x="163.330078"/>
      </g>
     </g>
    </g>
    <g id="ytick_4">
     <g id="line2d_10">
      <g>
       <use xlink:href="#m4da14ee584" x="50.573438" y="164.119871" style="stroke: #000000; stroke-width: 0.8"/>
      </g>
     </g>
     <g id="text_11">
      <!-- 0 -->
      <g transform="translate(37.210938 167.919089) scale(0.1 -0.1)">
       <use xlink:href="#DejaVuSans-30"/>
      </g>
     </g>
    </g>
    <g id="ytick_5">
     <g id="line2d_11">
      <g>
       <use xlink:href="#m4da14ee584" x="50.573438" y="121.303201" style="stroke: #000000; stroke-width: 0.8"/>
      </g>
     </g>
     <g id="text_12">
      <!-- 100 -->
      <g transform="translate(24.485938 125.10242) scale(0.1 -0.1)">
       <use xlink:href="#DejaVuSans-31"/>
       <use xlink:href="#DejaVuSans-30" x="63.623047"/>
       <use xlink:href="#DejaVuSans-30" x="127.246094"/>
      </g>
     </g>
    </g>
    <g id="ytick_6">
     <g id="line2d_12">
      <g>
       <use xlink:href="#m4da14ee584" x="50.573438" y="78.486531" style="stroke: #000000; stroke-width: 0.8"/>
      </g>
     </g>
     <g id="text_13">
      <!-- 200 -->
      <g transform="translate(24.485938 82.28575) scale(0.1 -0.1)">
       <use xlink:href="#DejaVuSans-32"/>
       <use xlink:href="#DejaVuSans-30" x="63.623047"/>
       <use xlink:href="#DejaVuSans-30" x="127.246094"/>
      </g>
     </g>
    </g>
    <g id="text_14">
     <!-- Im$(S_{21})$ [mV] -->
     <g transform="translate(14.798438 206.466) rotate(-90) scale(0.1 -0.1)">
      <defs>
       <path id="DejaVuSans-49" d="M 628 4666 
L 1259 4666 
L 1259 0 
L 628 0 
L 628 4666 
z
" transform="scale(0.015625)"/>
      </defs>
      <use xlink:href="#DejaVuSans-49" transform="translate(0 0.015625)"/>
      <use xlink:href="#DejaVuSans-6d" transform="translate(25.867188 0.015625)"/>
      <use xlink:href="#DejaVuSans-28" transform="translate(123.279297 0.015625)"/>
      <use xlink:href="#DejaVuSans-Oblique-53" transform="translate(162.292969 0.015625)"/>
      <use xlink:href="#DejaVuSans-32" transform="translate(225.769531 -16.390625) scale(0.7)"/>
      <use xlink:href="#DejaVuSans-31" transform="translate(270.305664 -16.390625) scale(0.7)"/>
      <use xlink:href="#DejaVuSans-29" transform="translate(317.576172 0.015625)"/>
      <use xlink:href="#DejaVuSans-20" transform="translate(356.589844 0.015625)"/>
      <use xlink:href="#DejaVuSans-5b" transform="translate(388.376953 0.015625)"/>
      <use xlink:href="#DejaVuSans-6d" transform="translate(427.390625 0.015625)"/>
      <use xlink:href="#DejaVuSans-56" transform="translate(524.802734 0.015625)"/>
      <use xlink:href="#DejaVuSans-5d" transform="translate(593.210938 0.015625)"/>
     </g>
    </g>
   </g>
   <g id="line2d_13">
    <path d="M 391.46071 276.255298 
L 384.668965 278.796843 
L 377.997817 281.023739 
L 374.588638 282.02349 
L 371.402754 283.09351 
L 358.002663 286.605313 
L 344.459809 289.51232 
L 334.192476 291.420062 
L 323.818826 292.942212 
L 309.818059 294.491969 
L 299.222737 295.183976 
L 292.075552 295.545624 
L 281.652286 295.748651 
L 278.154357 295.776 
L 260.518975 295.23306 
L 257.023624 294.925978 
L 253.215991 294.742564 
L 235.055986 292.747675 
L 231.463354 292.112799 
L 224.289162 291.032266 
L 206.609474 287.314538 
L 192.622741 283.514795 
L 185.555039 281.308851 
L 171.90392 276.209944 
L 168.474913 274.845376 
L 158.434672 270.233488 
L 151.821791 266.775654 
L 148.491157 264.955026 
L 142.01769 261.093278 
L 135.835801 256.932842 
L 132.677545 254.727166 
L 129.658174 252.228323 
L 126.54297 249.823534 
L 120.773091 244.494456 
L 118.041395 241.579814 
L 115.45245 238.478752 
L 112.845184 235.16508 
L 110.448476 231.6763 
L 108.172411 228.075697 
L 106.273838 224.123508 
L 104.593434 219.829945 
L 103.256974 215.255091 
L 102.368524 210.46401 
L 102.17668 205.254377 
L 102.706896 199.630557 
L 104.128763 193.590953 
L 106.775433 187.207802 
L 111.16781 180.414721 
L 117.60465 173.339606 
L 126.567924 166.350139 
L 138.8312 159.734582 
L 154.769401 154.231453 
L 174.518031 150.829601 
L 197.598455 150.741384 
L 221.835565 155.099268 
L 243.972358 164.308663 
L 260.744816 177.298198 
L 270.552438 193.469473 
L 271.645832 210.697549 
L 264.909945 226.221395 
L 252.432643 238.797972 
L 236.986697 247.73784 
L 220.794518 253.498886 
L 205.022563 256.818934 
L 190.156884 258.0697 
L 176.740614 257.965503 
L 164.784315 256.822964 
L 154.144053 254.900015 
L 144.787504 252.650479 
L 136.33839 250.028685 
L 128.853394 247.17881 
L 122.254509 244.152547 
L 116.174172 241.13686 
L 110.710387 237.988013 
L 105.82019 234.764554 
L 101.498361 231.60777 
L 97.492728 228.30496 
L 93.866907 225.1019 
L 90.5962 221.915034 
L 87.682863 218.781108 
L 82.383354 212.459363 
L 80.233699 209.355836 
L 76.473687 203.197217 
L 74.827604 200.083961 
L 73.426687 197.147329 
L 70.999622 191.122531 
L 69.150423 185.24821 
L 67.443398 176.55093 
L 66.806165 168.16586 
L 66.827309 165.3581 
L 67.554675 157.234194 
L 68.50227 151.884399 
L 69.08913 149.287699 
L 70.606333 144.151502 
L 72.480195 139.06176 
L 75.67342 131.748434 
L 81.301227 122.5594 
L 82.64826 120.356182 
L 85.910237 116.021569 
L 89.475761 111.675208 
L 97.165522 103.589816 
L 101.190827 100.003758 
L 107.66881 94.550223 
L 116.746183 87.961929 
L 124.168037 83.16216 
L 131.998671 78.771328 
L 134.469054 77.38369 
L 147.822065 71.001 
L 156.137501 67.548921 
L 161.78666 65.487465 
L 167.54258 63.472063 
L 172.928203 61.707287 
L 172.928203 61.707287 
" clip-path="url(#p3e7141824a)" style="fill: none; stroke: #1f77b4; stroke-width: 1.5; stroke-linecap: square"/>
    <defs>
     <path id="m5e8c6217f9" d="M 0 1.5 
C 0.397805 1.5 0.77937 1.341951 1.06066 1.06066 
C 1.341951 0.77937 1.5 0.397805 1.5 0 
C 1.5 -0.397805 1.341951 -0.77937 1.06066 -1.06066 
C 0.77937 -1.341951 0.397805 -1.5 0 -1.5 
C -0.397805 -1.5 -0.77937 -1.341951 -1.06066 -1.06066 
C -1.341951 -0.77937 -1.5 -0.397805 -1.5 0 
C -1.5 0.397805 -1.341951 0.77937 -1.06066 1.06066 
C -0.77937 1.341951 -0.397805 1.5 0 1.5 
z
" style="stroke: #1f77b4"/>
    </defs>
    <g clip-path="url(#p3e7141824a)">
     <use xlink:href="#m5e8c6217f9" x="391.46071" y="276.255298" style="fill: #1f77b4; stroke: #1f77b4"/>
     <use xlink:href="#m5e8c6217f9" x="388.017259" y="277.565857" style="fill: #1f77b4; stroke: #1f77b4"/>
     <use xlink:href="#m5e8c6217f9" x="384.668965" y="278.796843" style="fill: #1f77b4; stroke: #1f77b4"/>
     <use xlink:href="#m5e8c6217f9" x="381.300767" y="279.927761" style="fill: #1f77b4; stroke: #1f77b4"/>
     <use xlink:href="#m5e8c6217f9" x="377.997817" y="281.023739" style="fill: #1f77b4; stroke: #1f77b4"/>
     <use xlink:href="#m5e8c6217f9" x="374.588638" y="282.02349" style="fill: #1f77b4; stroke: #1f77b4"/>
     <use xlink:href="#m5e8c6217f9" x="371.402754" y="283.09351" style="fill: #1f77b4; stroke: #1f77b4"/>
     <use xlink:href="#m5e8c6217f9" x="367.996487" y="284.00581" style="fill: #1f77b4; stroke: #1f77b4"/>
     <use xlink:href="#m5e8c6217f9" x="364.673601" y="284.902512" style="fill: #1f77b4; stroke: #1f77b4"/>
     <use xlink:href="#m5e8c6217f9" x="361.30491" y="285.763618" style="fill: #1f77b4; stroke: #1f77b4"/>
     <use xlink:href="#m5e8c6217f9" x="358.002663" y="286.605313" style="fill: #1f77b4; stroke: #1f77b4"/>
     <use xlink:href="#m5e8c6217f9" x="354.597178" y="287.362753" style="fill: #1f77b4; stroke: #1f77b4"/>
     <use xlink:href="#m5e8c6217f9" x="351.236403" y="288.120197" style="fill: #1f77b4; stroke: #1f77b4"/>
     <use xlink:href="#m5e8c6217f9" x="347.927338" y="288.841955" style="fill: #1f77b4; stroke: #1f77b4"/>
     <use xlink:href="#m5e8c6217f9" x="344.459809" y="289.51232" style="fill: #1f77b4; stroke: #1f77b4"/>
     <use xlink:href="#m5e8c6217f9" x="340.968704" y="290.199489" style="fill: #1f77b4; stroke: #1f77b4"/>
     <use xlink:href="#m5e8c6217f9" x="337.531699" y="290.822943" style="fill: #1f77b4; stroke: #1f77b4"/>
     <use xlink:href="#m5e8c6217f9" x="334.192476" y="291.420062" style="fill: #1f77b4; stroke: #1f77b4"/>
     <use xlink:href="#m5e8c6217f9" x="330.664172" y="291.955027" style="fill: #1f77b4; stroke: #1f77b4"/>
     <use xlink:href="#m5e8c6217f9" x="327.18009" y="292.44554" style="fill: #1f77b4; stroke: #1f77b4"/>
     <use xlink:href="#m5e8c6217f9" x="323.818826" y="292.942212" style="fill: #1f77b4; stroke: #1f77b4"/>
     <use xlink:href="#m5e8c6217f9" x="320.270073" y="293.358455" style="fill: #1f77b4; stroke: #1f77b4"/>
     <use xlink:href="#m5e8c6217f9" x="316.714164" y="293.747154" style="fill: #1f77b4; stroke: #1f77b4"/>
     <use xlink:href="#m5e8c6217f9" x="313.164676" y="294.121254" style="fill: #1f77b4; stroke: #1f77b4"/>
     <use xlink:href="#m5e8c6217f9" x="309.818059" y="294.491969" style="fill: #1f77b4; stroke: #1f77b4"/>
     <use xlink:href="#m5e8c6217f9" x="306.249704" y="294.757768" style="fill: #1f77b4; stroke: #1f77b4"/>
     <use xlink:href="#m5e8c6217f9" x="302.66643" y="294.957664" style="fill: #1f77b4; stroke: #1f77b4"/>
     <use xlink:href="#m5e8c6217f9" x="299.222737" y="295.183976" style="fill: #1f77b4; stroke: #1f77b4"/>
     <use xlink:href="#m5e8c6217f9" x="295.670577" y="295.406358" style="fill: #1f77b4; stroke: #1f77b4"/>
     <use xlink:href="#m5e8c6217f9" x="292.075552" y="295.545624" style="fill: #1f77b4; stroke: #1f77b4"/>
     <use xlink:href="#m5e8c6217f9" x="288.66326" y="295.647862" style="fill: #1f77b4; stroke: #1f77b4"/>
     <use xlink:href="#m5e8c6217f9" x="285.124537" y="295.711613" style="fill: #1f77b4; stroke: #1f77b4"/>
     <use xlink:href="#m5e8c6217f9" x="281.652286" y="295.748651" style="fill: #1f77b4; stroke: #1f77b4"/>
     <use xlink:href="#m5e8c6217f9" x="278.154357" y="295.776" style="fill: #1f77b4; stroke: #1f77b4"/>
     <use xlink:href="#m5e8c6217f9" x="274.628486" y="295.686031" style="fill: #1f77b4; stroke: #1f77b4"/>
     <use xlink:href="#m5e8c6217f9" x="271.127281" y="295.661004" style="fill: #1f77b4; stroke: #1f77b4"/>
     <use xlink:href="#m5e8c6217f9" x="267.694809" y="295.510715" style="fill: #1f77b4; stroke: #1f77b4"/>
     <use xlink:href="#m5e8c6217f9" x="264.132489" y="295.423369" style="fill: #1f77b4; stroke: #1f77b4"/>
     <use xlink:href="#m5e8c6217f9" x="260.518975" y="295.23306" style="fill: #1f77b4; stroke: #1f77b4"/>
     <use xlink:href="#m5e8c6217f9" x="257.023624" y="294.925978" style="fill: #1f77b4; stroke: #1f77b4"/>
     <use xlink:href="#m5e8c6217f9" x="253.215991" y="294.742564" style="fill: #1f77b4; stroke: #1f77b4"/>
     <use xlink:href="#m5e8c6217f9" x="249.644808" y="294.351114" style="fill: #1f77b4; stroke: #1f77b4"/>
     <use xlink:href="#m5e8c6217f9" x="246.058198" y="294.067619" style="fill: #1f77b4; stroke: #1f77b4"/>
     <use xlink:href="#m5e8c6217f9" x="242.286845" y="293.621635" style="fill: #1f77b4; stroke: #1f77b4"/>
     <use xlink:href="#m5e8c6217f9" x="238.763497" y="293.155309" style="fill: #1f77b4; stroke: #1f77b4"/>
     <use xlink:href="#m5e8c6217f9" x="235.055986" y="292.747675" style="fill: #1f77b4; stroke: #1f77b4"/>
     <use xlink:href="#m5e8c6217f9" x="231.463354" y="292.112799" style="fill: #1f77b4; stroke: #1f77b4"/>
     <use xlink:href="#m5e8c6217f9" x="227.832043" y="291.603214" style="fill: #1f77b4; stroke: #1f77b4"/>
     <use xlink:href="#m5e8c6217f9" x="224.289162" y="291.032266" style="fill: #1f77b4; stroke: #1f77b4"/>
     <use xlink:href="#m5e8c6217f9" x="220.753002" y="290.307116" style="fill: #1f77b4; stroke: #1f77b4"/>
     <use xlink:href="#m5e8c6217f9" x="217.103492" y="289.562799" style="fill: #1f77b4; stroke: #1f77b4"/>
     <use xlink:href="#m5e8c6217f9" x="213.571937" y="288.886629" style="fill: #1f77b4; stroke: #1f77b4"/>
     <use xlink:href="#m5e8c6217f9" x="210.174231" y="288.121944" style="fill: #1f77b4; stroke: #1f77b4"/>
     <use xlink:href="#m5e8c6217f9" x="206.609474" y="287.314538" style="fill: #1f77b4; stroke: #1f77b4"/>
     <use xlink:href="#m5e8c6217f9" x="203.105017" y="286.358343" style="fill: #1f77b4; stroke: #1f77b4"/>
     <use xlink:href="#m5e8c6217f9" x="199.722296" y="285.491331" style="fill: #1f77b4; stroke: #1f77b4"/>
     <use xlink:href="#m5e8c6217f9" x="196.172151" y="284.533711" style="fill: #1f77b4; stroke: #1f77b4"/>
     <use xlink:href="#m5e8c6217f9" x="192.622741" y="283.514795" style="fill: #1f77b4; stroke: #1f77b4"/>
     <use xlink:href="#m5e8c6217f9" x="189.106691" y="282.40029" style="fill: #1f77b4; stroke: #1f77b4"/>
     <use xlink:href="#m5e8c6217f9" x="185.555039" y="281.308851" style="fill: #1f77b4; stroke: #1f77b4"/>
     <use xlink:href="#m5e8c6217f9" x="182.158618" y="280.055591" style="fill: #1f77b4; stroke: #1f77b4"/>
     <use xlink:href="#m5e8c6217f9" x="178.652396" y="278.818891" style="fill: #1f77b4; stroke: #1f77b4"/>
     <use xlink:href="#m5e8c6217f9" x="175.186917" y="277.5607" style="fill: #1f77b4; stroke: #1f77b4"/>
     <use xlink:href="#m5e8c6217f9" x="171.90392" y="276.209944" style="fill: #1f77b4; stroke: #1f77b4"/>
     <use xlink:href="#m5e8c6217f9" x="168.474913" y="274.845376" style="fill: #1f77b4; stroke: #1f77b4"/>
     <use xlink:href="#m5e8c6217f9" x="165.293265" y="273.392029" style="fill: #1f77b4; stroke: #1f77b4"/>
     <use xlink:href="#m5e8c6217f9" x="161.885889" y="271.901215" style="fill: #1f77b4; stroke: #1f77b4"/>
     <use xlink:href="#m5e8c6217f9" x="158.434672" y="270.233488" style="fill: #1f77b4; stroke: #1f77b4"/>
     <use xlink:href="#m5e8c6217f9" x="155.075286" y="268.524523" style="fill: #1f77b4; stroke: #1f77b4"/>
     <use xlink:href="#m5e8c6217f9" x="151.821791" y="266.775654" style="fill: #1f77b4; stroke: #1f77b4"/>
     <use xlink:href="#m5e8c6217f9" x="148.491157" y="264.955026" style="fill: #1f77b4; stroke: #1f77b4"/>
     <use xlink:href="#m5e8c6217f9" x="145.274416" y="263.053721" style="fill: #1f77b4; stroke: #1f77b4"/>
     <use xlink:href="#m5e8c6217f9" x="142.01769" y="261.093278" style="fill: #1f77b4; stroke: #1f77b4"/>
     <use xlink:href="#m5e8c6217f9" x="138.988608" y="259.115037" style="fill: #1f77b4; stroke: #1f77b4"/>
     <use xlink:href="#m5e8c6217f9" x="135.835801" y="256.932842" style="fill: #1f77b4; stroke: #1f77b4"/>
     <use xlink:href="#m5e8c6217f9" x="132.677545" y="254.727166" style="fill: #1f77b4; stroke: #1f77b4"/>
     <use xlink:href="#m5e8c6217f9" x="129.658174" y="252.228323" style="fill: #1f77b4; stroke: #1f77b4"/>
     <use xlink:href="#m5e8c6217f9" x="126.54297" y="249.823534" style="fill: #1f77b4; stroke: #1f77b4"/>
     <use xlink:href="#m5e8c6217f9" x="123.685973" y="247.246292" style="fill: #1f77b4; stroke: #1f77b4"/>
     <use xlink:href="#m5e8c6217f9" x="120.773091" y="244.494456" style="fill: #1f77b4; stroke: #1f77b4"/>
     <use xlink:href="#m5e8c6217f9" x="118.041395" y="241.579814" style="fill: #1f77b4; stroke: #1f77b4"/>
     <use xlink:href="#m5e8c6217f9" x="115.45245" y="238.478752" style="fill: #1f77b4; stroke: #1f77b4"/>
     <use xlink:href="#m5e8c6217f9" x="112.845184" y="235.16508" style="fill: #1f77b4; stroke: #1f77b4"/>
     <use xlink:href="#m5e8c6217f9" x="110.448476" y="231.6763" style="fill: #1f77b4; stroke: #1f77b4"/>
     <use xlink:href="#m5e8c6217f9" x="108.172411" y="228.075697" style="fill: #1f77b4; stroke: #1f77b4"/>
     <use xlink:href="#m5e8c6217f9" x="106.273838" y="224.123508" style="fill: #1f77b4; stroke: #1f77b4"/>
     <use xlink:href="#m5e8c6217f9" x="104.593434" y="219.829945" style="fill: #1f77b4; stroke: #1f77b4"/>
     <use xlink:href="#m5e8c6217f9" x="103.256974" y="215.255091" style="fill: #1f77b4; stroke: #1f77b4"/>
     <use xlink:href="#m5e8c6217f9" x="102.368524" y="210.46401" style="fill: #1f77b4; stroke: #1f77b4"/>
     <use xlink:href="#m5e8c6217f9" x="102.17668" y="205.254377" style="fill: #1f77b4; stroke: #1f77b4"/>
     <use xlink:href="#m5e8c6217f9" x="102.706896" y="199.630557" style="fill: #1f77b4; stroke: #1f77b4"/>
     <use xlink:href="#m5e8c6217f9" x="104.128763" y="193.590953" style="fill: #1f77b4; stroke: #1f77b4"/>
     <use xlink:href="#m5e8c6217f9" x="106.775433" y="187.207802" style="fill: #1f77b4; stroke: #1f77b4"/>
     <use xlink:href="#m5e8c6217f9" x="111.16781" y="180.414721" style="fill: #1f77b4; stroke: #1f77b4"/>
     <use xlink:href="#m5e8c6217f9" x="117.60465" y="173.339606" style="fill: #1f77b4; stroke: #1f77b4"/>
     <use xlink:href="#m5e8c6217f9" x="126.567924" y="166.350139" style="fill: #1f77b4; stroke: #1f77b4"/>
     <use xlink:href="#m5e8c6217f9" x="138.8312" y="159.734582" style="fill: #1f77b4; stroke: #1f77b4"/>
     <use xlink:href="#m5e8c6217f9" x="154.769401" y="154.231453" style="fill: #1f77b4; stroke: #1f77b4"/>
     <use xlink:href="#m5e8c6217f9" x="174.518031" y="150.829601" style="fill: #1f77b4; stroke: #1f77b4"/>
     <use xlink:href="#m5e8c6217f9" x="197.598455" y="150.741384" style="fill: #1f77b4; stroke: #1f77b4"/>
     <use xlink:href="#m5e8c6217f9" x="221.835565" y="155.099268" style="fill: #1f77b4; stroke: #1f77b4"/>
     <use xlink:href="#m5e8c6217f9" x="243.972358" y="164.308663" style="fill: #1f77b4; stroke: #1f77b4"/>
     <use xlink:href="#m5e8c6217f9" x="260.744816" y="177.298198" style="fill: #1f77b4; stroke: #1f77b4"/>
     <use xlink:href="#m5e8c6217f9" x="270.552438" y="193.469473" style="fill: #1f77b4; stroke: #1f77b4"/>
     <use xlink:href="#m5e8c6217f9" x="271.645832" y="210.697549" style="fill: #1f77b4; stroke: #1f77b4"/>
     <use xlink:href="#m5e8c6217f9" x="264.909945" y="226.221395" style="fill: #1f77b4; stroke: #1f77b4"/>
     <use xlink:href="#m5e8c6217f9" x="252.432643" y="238.797972" style="fill: #1f77b4; stroke: #1f77b4"/>
     <use xlink:href="#m5e8c6217f9" x="236.986697" y="247.73784" style="fill: #1f77b4; stroke: #1f77b4"/>
     <use xlink:href="#m5e8c6217f9" x="220.794518" y="253.498886" style="fill: #1f77b4; stroke: #1f77b4"/>
     <use xlink:href="#m5e8c6217f9" x="205.022563" y="256.818934" style="fill: #1f77b4; stroke: #1f77b4"/>
     <use xlink:href="#m5e8c6217f9" x="190.156884" y="258.0697" style="fill: #1f77b4; stroke: #1f77b4"/>
     <use xlink:href="#m5e8c6217f9" x="176.740614" y="257.965503" style="fill: #1f77b4; stroke: #1f77b4"/>
     <use xlink:href="#m5e8c6217f9" x="164.784315" y="256.822964" style="fill: #1f77b4; stroke: #1f77b4"/>
     <use xlink:href="#m5e8c6217f9" x="154.144053" y="254.900015" style="fill: #1f77b4; stroke: #1f77b4"/>
     <use xlink:href="#m5e8c6217f9" x="144.787504" y="252.650479" style="fill: #1f77b4; stroke: #1f77b4"/>
     <use xlink:href="#m5e8c6217f9" x="136.33839" y="250.028685" style="fill: #1f77b4; stroke: #1f77b4"/>
     <use xlink:href="#m5e8c6217f9" x="128.853394" y="247.17881" style="fill: #1f77b4; stroke: #1f77b4"/>
     <use xlink:href="#m5e8c6217f9" x="122.254509" y="244.152547" style="fill: #1f77b4; stroke: #1f77b4"/>
     <use xlink:href="#m5e8c6217f9" x="116.174172" y="241.13686" style="fill: #1f77b4; stroke: #1f77b4"/>
     <use xlink:href="#m5e8c6217f9" x="110.710387" y="237.988013" style="fill: #1f77b4; stroke: #1f77b4"/>
     <use xlink:href="#m5e8c6217f9" x="105.82019" y="234.764554" style="fill: #1f77b4; stroke: #1f77b4"/>
     <use xlink:href="#m5e8c6217f9" x="101.498361" y="231.60777" style="fill: #1f77b4; stroke: #1f77b4"/>
     <use xlink:href="#m5e8c6217f9" x="97.492728" y="228.30496" style="fill: #1f77b4; stroke: #1f77b4"/>
     <use xlink:href="#m5e8c6217f9" x="93.866907" y="225.1019" style="fill: #1f77b4; stroke: #1f77b4"/>
     <use xlink:href="#m5e8c6217f9" x="90.5962" y="221.915034" style="fill: #1f77b4; stroke: #1f77b4"/>
     <use xlink:href="#m5e8c6217f9" x="87.682863" y="218.781108" style="fill: #1f77b4; stroke: #1f77b4"/>
     <use xlink:href="#m5e8c6217f9" x="84.937735" y="215.565501" style="fill: #1f77b4; stroke: #1f77b4"/>
     <use xlink:href="#m5e8c6217f9" x="82.383354" y="212.459363" style="fill: #1f77b4; stroke: #1f77b4"/>
     <use xlink:href="#m5e8c6217f9" x="80.233699" y="209.355836" style="fill: #1f77b4; stroke: #1f77b4"/>
     <use xlink:href="#m5e8c6217f9" x="78.330984" y="206.286347" style="fill: #1f77b4; stroke: #1f77b4"/>
     <use xlink:href="#m5e8c6217f9" x="76.473687" y="203.197217" style="fill: #1f77b4; stroke: #1f77b4"/>
     <use xlink:href="#m5e8c6217f9" x="74.827604" y="200.083961" style="fill: #1f77b4; stroke: #1f77b4"/>
     <use xlink:href="#m5e8c6217f9" x="73.426687" y="197.147329" style="fill: #1f77b4; stroke: #1f77b4"/>
     <use xlink:href="#m5e8c6217f9" x="72.199574" y="194.154734" style="fill: #1f77b4; stroke: #1f77b4"/>
     <use xlink:href="#m5e8c6217f9" x="70.999622" y="191.122531" style="fill: #1f77b4; stroke: #1f77b4"/>
     <use xlink:href="#m5e8c6217f9" x="70.047005" y="188.150661" style="fill: #1f77b4; stroke: #1f77b4"/>
     <use xlink:href="#m5e8c6217f9" x="69.150423" y="185.24821" style="fill: #1f77b4; stroke: #1f77b4"/>
     <use xlink:href="#m5e8c6217f9" x="68.592715" y="182.389666" style="fill: #1f77b4; stroke: #1f77b4"/>
     <use xlink:href="#m5e8c6217f9" x="67.925703" y="179.546733" style="fill: #1f77b4; stroke: #1f77b4"/>
     <use xlink:href="#m5e8c6217f9" x="67.443398" y="176.55093" style="fill: #1f77b4; stroke: #1f77b4"/>
     <use xlink:href="#m5e8c6217f9" x="67.215137" y="173.712582" style="fill: #1f77b4; stroke: #1f77b4"/>
     <use xlink:href="#m5e8c6217f9" x="67.041053" y="170.82389" style="fill: #1f77b4; stroke: #1f77b4"/>
     <use xlink:href="#m5e8c6217f9" x="66.806165" y="168.16586" style="fill: #1f77b4; stroke: #1f77b4"/>
     <use xlink:href="#m5e8c6217f9" x="66.827309" y="165.3581" style="fill: #1f77b4; stroke: #1f77b4"/>
     <use xlink:href="#m5e8c6217f9" x="67.043932" y="162.584993" style="fill: #1f77b4; stroke: #1f77b4"/>
     <use xlink:href="#m5e8c6217f9" x="67.161245" y="159.902964" style="fill: #1f77b4; stroke: #1f77b4"/>
     <use xlink:href="#m5e8c6217f9" x="67.554675" y="157.234194" style="fill: #1f77b4; stroke: #1f77b4"/>
     <use xlink:href="#m5e8c6217f9" x="68.002234" y="154.610517" style="fill: #1f77b4; stroke: #1f77b4"/>
     <use xlink:href="#m5e8c6217f9" x="68.50227" y="151.884399" style="fill: #1f77b4; stroke: #1f77b4"/>
     <use xlink:href="#m5e8c6217f9" x="69.08913" y="149.287699" style="fill: #1f77b4; stroke: #1f77b4"/>
     <use xlink:href="#m5e8c6217f9" x="69.822034" y="146.70815" style="fill: #1f77b4; stroke: #1f77b4"/>
     <use xlink:href="#m5e8c6217f9" x="70.606333" y="144.151502" style="fill: #1f77b4; stroke: #1f77b4"/>
     <use xlink:href="#m5e8c6217f9" x="71.539364" y="141.597455" style="fill: #1f77b4; stroke: #1f77b4"/>
     <use xlink:href="#m5e8c6217f9" x="72.480195" y="139.06176" style="fill: #1f77b4; stroke: #1f77b4"/>
     <use xlink:href="#m5e8c6217f9" x="73.564408" y="136.627168" style="fill: #1f77b4; stroke: #1f77b4"/>
     <use xlink:href="#m5e8c6217f9" x="74.60888" y="134.207223" style="fill: #1f77b4; stroke: #1f77b4"/>
     <use xlink:href="#m5e8c6217f9" x="75.67342" y="131.748434" style="fill: #1f77b4; stroke: #1f77b4"/>
     <use xlink:href="#m5e8c6217f9" x="76.976129" y="129.575775" style="fill: #1f77b4; stroke: #1f77b4"/>
     <use xlink:href="#m5e8c6217f9" x="78.346144" y="127.173392" style="fill: #1f77b4; stroke: #1f77b4"/>
     <use xlink:href="#m5e8c6217f9" x="79.749061" y="124.862613" style="fill: #1f77b4; stroke: #1f77b4"/>
     <use xlink:href="#m5e8c6217f9" x="81.301227" y="122.5594" style="fill: #1f77b4; stroke: #1f77b4"/>
     <use xlink:href="#m5e8c6217f9" x="82.64826" y="120.356182" style="fill: #1f77b4; stroke: #1f77b4"/>
     <use xlink:href="#m5e8c6217f9" x="84.26744" y="118.152973" style="fill: #1f77b4; stroke: #1f77b4"/>
     <use xlink:href="#m5e8c6217f9" x="85.910237" y="116.021569" style="fill: #1f77b4; stroke: #1f77b4"/>
     <use xlink:href="#m5e8c6217f9" x="87.667925" y="113.86948" style="fill: #1f77b4; stroke: #1f77b4"/>
     <use xlink:href="#m5e8c6217f9" x="89.475761" y="111.675208" style="fill: #1f77b4; stroke: #1f77b4"/>
     <use xlink:href="#m5e8c6217f9" x="91.369391" y="109.693733" style="fill: #1f77b4; stroke: #1f77b4"/>
     <use xlink:href="#m5e8c6217f9" x="93.189688" y="107.699077" style="fill: #1f77b4; stroke: #1f77b4"/>
     <use xlink:href="#m5e8c6217f9" x="95.195449" y="105.679205" style="fill: #1f77b4; stroke: #1f77b4"/>
     <use xlink:href="#m5e8c6217f9" x="97.165522" y="103.589816" style="fill: #1f77b4; stroke: #1f77b4"/>
     <use xlink:href="#m5e8c6217f9" x="99.129445" y="101.781682" style="fill: #1f77b4; stroke: #1f77b4"/>
     <use xlink:href="#m5e8c6217f9" x="101.190827" y="100.003758" style="fill: #1f77b4; stroke: #1f77b4"/>
     <use xlink:href="#m5e8c6217f9" x="103.28856" y="98.200805" style="fill: #1f77b4; stroke: #1f77b4"/>
     <use xlink:href="#m5e8c6217f9" x="105.467654" y="96.31651" style="fill: #1f77b4; stroke: #1f77b4"/>
     <use xlink:href="#m5e8c6217f9" x="107.66881" y="94.550223" style="fill: #1f77b4; stroke: #1f77b4"/>
     <use xlink:href="#m5e8c6217f9" x="109.76704" y="92.99724" style="fill: #1f77b4; stroke: #1f77b4"/>
     <use xlink:href="#m5e8c6217f9" x="112.101169" y="91.239269" style="fill: #1f77b4; stroke: #1f77b4"/>
     <use xlink:href="#m5e8c6217f9" x="114.485029" y="89.588905" style="fill: #1f77b4; stroke: #1f77b4"/>
     <use xlink:href="#m5e8c6217f9" x="116.746183" y="87.961929" style="fill: #1f77b4; stroke: #1f77b4"/>
     <use xlink:href="#m5e8c6217f9" x="119.290621" y="86.313246" style="fill: #1f77b4; stroke: #1f77b4"/>
     <use xlink:href="#m5e8c6217f9" x="121.758012" y="84.724354" style="fill: #1f77b4; stroke: #1f77b4"/>
     <use xlink:href="#m5e8c6217f9" x="124.168037" y="83.16216" style="fill: #1f77b4; stroke: #1f77b4"/>
     <use xlink:href="#m5e8c6217f9" x="126.670539" y="81.718714" style="fill: #1f77b4; stroke: #1f77b4"/>
     <use xlink:href="#m5e8c6217f9" x="129.294638" y="80.202671" style="fill: #1f77b4; stroke: #1f77b4"/>
     <use xlink:href="#m5e8c6217f9" x="131.998671" y="78.771328" style="fill: #1f77b4; stroke: #1f77b4"/>
     <use xlink:href="#m5e8c6217f9" x="134.469054" y="77.38369" style="fill: #1f77b4; stroke: #1f77b4"/>
     <use xlink:href="#m5e8c6217f9" x="137.254886" y="76.037752" style="fill: #1f77b4; stroke: #1f77b4"/>
     <use xlink:href="#m5e8c6217f9" x="139.906064" y="74.648909" style="fill: #1f77b4; stroke: #1f77b4"/>
     <use xlink:href="#m5e8c6217f9" x="142.489929" y="73.409947" style="fill: #1f77b4; stroke: #1f77b4"/>
     <use xlink:href="#m5e8c6217f9" x="145.023809" y="72.222127" style="fill: #1f77b4; stroke: #1f77b4"/>
     <use xlink:href="#m5e8c6217f9" x="147.822065" y="71.001" style="fill: #1f77b4; stroke: #1f77b4"/>
     <use xlink:href="#m5e8c6217f9" x="150.649126" y="69.805529" style="fill: #1f77b4; stroke: #1f77b4"/>
     <use xlink:href="#m5e8c6217f9" x="153.294094" y="68.705341" style="fill: #1f77b4; stroke: #1f77b4"/>
     <use xlink:href="#m5e8c6217f9" x="156.137501" y="67.548921" style="fill: #1f77b4; stroke: #1f77b4"/>
     <use xlink:href="#m5e8c6217f9" x="158.93565" y="66.482763" style="fill: #1f77b4; stroke: #1f77b4"/>
     <use xlink:href="#m5e8c6217f9" x="161.78666" y="65.487465" style="fill: #1f77b4; stroke: #1f77b4"/>
     <use xlink:href="#m5e8c6217f9" x="164.666066" y="64.459009" style="fill: #1f77b4; stroke: #1f77b4"/>
     <use xlink:href="#m5e8c6217f9" x="167.54258" y="63.472063" style="fill: #1f77b4; stroke: #1f77b4"/>
     <use xlink:href="#m5e8c6217f9" x="170.218533" y="62.613258" style="fill: #1f77b4; stroke: #1f77b4"/>
     <use xlink:href="#m5e8c6217f9" x="172.928203" y="61.707287" style="fill: #1f77b4; stroke: #1f77b4"/>
    </g>
   </g>
   <g id="line2d_14">
    <path d="M 389.108934 269.804015 
L 382.733659 272.563294 
L 376.189929 275.168915 
L 369.485936 277.616584 
L 361.999569 280.101749 
L 354.343594 282.388805 
L 346.529387 284.472754 
L 338.568544 286.348793 
L 330.47286 288.012297 
L 322.254309 289.458813 
L 313.925026 290.684039 
L 305.497283 291.683805 
L 296.983471 292.454047 
L 288.396078 292.990772 
L 279.747674 293.290017 
L 271.77716 293.352306 
L 263.775759 293.208574 
L 255.753263 292.855585 
L 247.719488 292.289935 
L 239.684273 291.50797 
L 231.65749 290.505702 
L 223.649054 289.278686 
L 215.668961 287.821879 
L 207.727329 286.129462 
L 200.549716 284.380723 
L 193.420386 282.425589 
L 186.347633 280.256896 
L 179.340225 277.866078 
L 173.097231 275.515919 
L 166.92241 272.968412 
L 160.824297 270.212643 
L 154.812755 267.235407 
L 149.55129 264.390126 
L 144.377498 261.343525 
L 139.303723 258.079124 
L 134.958369 255.028519 
L 130.714708 251.779883 
L 126.58961 248.314059 
L 123.164559 245.15323 
L 119.860217 241.798978 
L 116.699166 238.231288 
L 114.195222 235.078357 
L 111.832387 231.745295 
L 109.637701 228.214237 
L 108.025747 225.233301 
L 106.564929 222.101172 
L 105.281823 218.805221 
L 104.209008 215.331784 
L 103.566184 212.6015 
L 103.084297 209.756823 
L 102.787159 206.791302 
L 102.702759 203.698601 
L 102.864024 200.472777 
L 103.309712 197.108677 
L 104.08543 193.602508 
L 104.812024 191.185211 
L 105.727024 188.704253 
L 106.850515 186.160735 
L 108.204722 183.556824 
L 109.814163 180.896039 
L 111.705757 178.183598 
L 113.908893 175.426841 
L 116.455406 172.63573 
L 119.379447 169.823436 
L 122.717171 167.007031 
L 126.506191 164.208258 
L 130.784714 161.4544 
L 135.590263 158.77919 
L 140.957867 156.223734 
L 146.917615 153.837349 
L 150.126826 152.725379 
L 153.491465 151.678203 
L 157.01235 150.704515 
L 160.689249 149.813568 
L 164.52071 149.015133 
L 168.503889 148.319466 
L 172.63437 147.737233 
L 176.905981 147.279431 
L 181.31062 146.957278 
L 185.838087 146.782081 
L 190.475934 146.765076 
L 195.209345 146.917248 
L 200.021049 147.249116 
L 204.891277 147.770509 
L 209.797782 148.490309 
L 214.715919 149.416193 
L 219.618794 150.55436 
L 224.477506 151.909269 
L 229.261457 153.483385 
L 233.938756 155.27695 
L 238.476694 157.287799 
L 242.842292 159.511213 
L 247.0029 161.93984 
L 250.92683 164.563683 
L 254.58401 167.370164 
L 257.946618 170.344256 
L 260.989678 173.468706 
L 263.691601 176.724315 
L 266.034624 180.090288 
L 268.00516 183.544622 
L 269.594013 187.064541 
L 270.796476 190.62693 
L 271.612295 194.208776 
L 272.045515 197.787593 
L 272.104217 201.341798 
L 271.800155 204.851058 
L 271.148331 208.296569 
L 270.166508 211.661277 
L 268.874702 214.930036 
L 267.294662 218.089704 
L 265.449359 221.129178 
L 263.362507 224.039378 
L 261.058116 226.813186 
L 258.560095 229.445345 
L 255.891912 231.932334 
L 253.076304 234.272216 
L 250.135041 236.464482 
L 247.088754 238.509879 
L 243.956797 240.410242 
L 240.757163 242.168335 
L 237.506441 243.78769 
L 234.219794 245.272464 
L 230.910979 246.627304 
L 227.592378 247.857226 
L 220.968815 249.963608 
L 214.422987 251.635408 
L 208.011174 252.916827 
L 201.77468 253.850784 
L 195.742407 254.477801 
L 189.933223 254.835358 
L 184.358052 254.95758 
L 179.021659 254.875157 
L 173.924131 254.61543 
L 169.062087 254.202575 
L 162.197194 253.341933 
L 155.821956 252.244755 
L 149.905162 250.960439 
L 144.41379 249.528901 
L 139.314856 247.982265 
L 134.576545 246.346321 
L 128.768228 244.061237 
L 123.48284 241.691572 
L 118.662428 239.265444 
L 114.25598 236.803656 
L 110.218901 234.321553 
L 105.633298 231.207241 
L 101.499632 228.094168 
L 97.763461 224.992729 
L 94.379051 221.909719 
L 91.307893 218.849437 
L 87.990564 215.21063 
L 85.030803 211.610454 
L 82.389906 208.049603 
L 80.035777 204.527812 
L 77.941643 201.044252 
L 75.797325 197.026898 
L 73.946724 193.058021 
L 72.365257 189.135583 
L 71.032445 185.257658 
L 69.931098 181.422502 
L 69.046676 177.62859 
L 68.285727 173.341548 
L 67.776272 169.105137 
L 67.50499 164.918175 
L 67.460476 160.779827 
L 67.632874 156.689577 
L 68.013582 152.647192 
L 68.595018 148.652694 
L 69.480686 144.216437 
L 70.603278 139.841751 
L 71.955068 135.529553 
L 73.529027 131.280996 
L 75.318681 127.09743 
L 77.318 122.980372 
L 79.521303 118.931477 
L 81.923185 114.95252 
L 84.518456 111.045366 
L 87.622798 106.790663 
L 90.952971 102.629754 
L 94.502387 98.565452 
L 98.264544 94.60061 
L 102.232981 90.738105 
L 106.401259 86.980817 
L 110.762928 83.331614 
L 115.311509 79.79334 
L 120.523049 76.032707 
L 125.944105 72.413352 
L 131.565824 68.938847 
L 137.379248 65.612659 
L 143.375303 62.438136 
L 149.544799 59.418494 
L 155.878425 56.556809 
L 162.366752 53.856 
L 162.366752 53.856 
" clip-path="url(#p3e7141824a)" style="fill: none; stroke: #d62728; stroke-width: 1.5; stroke-linecap: square"/>
   </g>
   <g id="patch_3">
    <path d="M 50.573438 307.872 
L 50.573438 41.76 
" style="fill: none; stroke: #000000; stroke-width: 0.8; stroke-linejoin: miter; stroke-linecap: square"/>
   </g>
   <g id="patch_4">
    <path d="M 407.693438 307.872 
L 407.693438 41.76 
" style="fill: none; stroke: #000000; stroke-width: 0.8; stroke-linejoin: miter; stroke-linecap: square"/>
   </g>
   <g id="patch_5">
    <path d="M 50.573437 307.872 
L 407.693437 307.872 
" style="fill: none; stroke: #000000; stroke-width: 0.8; stroke-linejoin: miter; stroke-linecap: square"/>
   </g>
   <g id="patch_6">
    <path d="M 50.573437 41.76 
L 407.693437 41.76 
" style="fill: none; stroke: #000000; stroke-width: 0.8; stroke-linejoin: miter; stroke-linecap: square"/>
   </g>
   <g id="text_15">
    <g id="patch_7">
     <path d="M 425.549438 102.337163 
L 564.449438 102.337163 
Q 568.449438 102.337163 568.449438 98.337163 
L 568.449438 55.0656 
Q 568.449438 51.0656 564.449438 51.0656 
L 425.549438 51.0656 
Q 421.549438 51.0656 421.549438 55.0656 
L 421.549438 98.337163 
Q 421.549438 102.337163 425.549438 102.337163 
z
" style="fill: #ffffff; opacity: 0.5; stroke: #000000; stroke-linejoin: miter"/>
    </g>
    <!-- Summary -->
    <g transform="translate(425.549438 62.664038) scale(0.1 -0.1)">
     <defs>
      <path id="DejaVuSans-53" d="M 3425 4513 
L 3425 3897 
Q 3066 4069 2747 4153 
Q 2428 4238 2131 4238 
Q 1616 4238 1336 4038 
Q 1056 3838 1056 3469 
Q 1056 3159 1242 3001 
Q 1428 2844 1947 2747 
L 2328 2669 
Q 3034 2534 3370 2195 
Q 3706 1856 3706 1288 
Q 3706 609 3251 259 
Q 2797 -91 1919 -91 
Q 1588 -91 1214 -16 
Q 841 59 441 206 
L 441 856 
Q 825 641 1194 531 
Q 1563 422 1919 422 
Q 2459 422 2753 634 
Q 3047 847 3047 1241 
Q 3047 1584 2836 1778 
Q 2625 1972 2144 2069 
L 1759 2144 
Q 1053 2284 737 2584 
Q 422 2884 422 3419 
Q 422 4038 858 4394 
Q 1294 4750 2059 4750 
Q 2388 4750 2728 4690 
Q 3069 4631 3425 4513 
z
" transform="scale(0.015625)"/>
      <path id="DejaVuSans-75" d="M 544 1381 
L 544 3500 
L 1119 3500 
L 1119 1403 
Q 1119 906 1312 657 
Q 1506 409 1894 409 
Q 2359 409 2629 706 
Q 2900 1003 2900 1516 
L 2900 3500 
L 3475 3500 
L 3475 0 
L 2900 0 
L 2900 538 
Q 2691 219 2414 64 
Q 2138 -91 1772 -91 
Q 1169 -91 856 284 
Q 544 659 544 1381 
z
M 1991 3584 
L 1991 3584 
z
" transform="scale(0.015625)"/>
      <path id="DejaVuSans-61" d="M 2194 1759 
Q 1497 1759 1228 1600 
Q 959 1441 959 1056 
Q 959 750 1161 570 
Q 1363 391 1709 391 
Q 2188 391 2477 730 
Q 2766 1069 2766 1631 
L 2766 1759 
L 2194 1759 
z
M 3341 1997 
L 3341 0 
L 2766 0 
L 2766 531 
Q 2569 213 2275 61 
Q 1981 -91 1556 -91 
Q 1019 -91 701 211 
Q 384 513 384 1019 
Q 384 1609 779 1909 
Q 1175 2209 1959 2209 
L 2766 2209 
L 2766 2266 
Q 2766 2663 2505 2880 
Q 2244 3097 1772 3097 
Q 1472 3097 1187 3025 
Q 903 2953 641 2809 
L 641 3341 
Q 956 3463 1253 3523 
Q 1550 3584 1831 3584 
Q 2591 3584 2966 3190 
Q 3341 2797 3341 1997 
z
" transform="scale(0.015625)"/>
      <path id="DejaVuSans-72" d="M 2631 2963 
Q 2534 3019 2420 3045 
Q 2306 3072 2169 3072 
Q 1681 3072 1420 2755 
Q 1159 2438 1159 1844 
L 1159 0 
L 581 0 
L 581 3500 
L 1159 3500 
L 1159 2956 
Q 1341 3275 1631 3429 
Q 1922 3584 2338 3584 
Q 2397 3584 2469 3576 
Q 2541 3569 2628 3553 
L 2631 2963 
z
" transform="scale(0.015625)"/>
      <path id="DejaVuSans-79" d="M 2059 -325 
Q 1816 -950 1584 -1140 
Q 1353 -1331 966 -1331 
L 506 -1331 
L 506 -850 
L 844 -850 
Q 1081 -850 1212 -737 
Q 1344 -625 1503 -206 
L 1606 56 
L 191 3500 
L 800 3500 
L 1894 763 
L 2988 3500 
L 3597 3500 
L 2059 -325 
z
" transform="scale(0.015625)"/>
     </defs>
     <use xlink:href="#DejaVuSans-53"/>
     <use xlink:href="#DejaVuSans-75" x="63.476562"/>
     <use xlink:href="#DejaVuSans-6d" x="126.855469"/>
     <use xlink:href="#DejaVuSans-6d" x="224.267578"/>
     <use xlink:href="#DejaVuSans-61" x="321.679688"/>
     <use xlink:href="#DejaVuSans-72" x="382.958984"/>
     <use xlink:href="#DejaVuSans-79" x="424.072266"/>
    </g>
    <!-- $Q_I$: 39.4$\pm$4.0 k -->
    <g transform="translate(425.549438 73.86185) scale(0.1 -0.1)">
     <defs>
      <path id="DejaVuSans-Oblique-51" d="M 2309 -84 
Q 2275 -88 2237 -89 
Q 2200 -91 2125 -91 
Q 1250 -91 756 411 
Q 263 913 263 1797 
Q 263 2319 452 2844 
Q 641 3369 978 3788 
Q 1369 4269 1858 4509 
Q 2347 4750 2938 4750 
Q 3794 4750 4287 4245 
Q 4781 3741 4781 2869 
Q 4781 1928 4265 1147 
Q 3750 366 2919 44 
L 3553 -825 
L 2847 -825 
L 2309 -84 
z
M 2919 4238 
Q 2400 4238 2003 3986 
Q 1606 3734 1313 3219 
Q 1125 2891 1026 2522 
Q 928 2153 928 1778 
Q 928 1128 1239 775 
Q 1550 422 2119 422 
Q 2631 422 3032 676 
Q 3434 931 3719 1434 
Q 3909 1772 4009 2142 
Q 4109 2513 4109 2881 
Q 4109 3528 3796 3883 
Q 3484 4238 2919 4238 
z
" transform="scale(0.015625)"/>
      <path id="DejaVuSans-Oblique-49" d="M 1081 4666 
L 1716 4666 
L 806 0 
L 172 0 
L 1081 4666 
z
" transform="scale(0.015625)"/>
      <path id="DejaVuSans-3a" d="M 750 794 
L 1409 794 
L 1409 0 
L 750 0 
L 750 794 
z
M 750 3309 
L 1409 3309 
L 1409 2516 
L 750 2516 
L 750 3309 
z
" transform="scale(0.015625)"/>
      <path id="DejaVuSans-39" d="M 703 97 
L 703 672 
Q 941 559 1184 500 
Q 1428 441 1663 441 
Q 2288 441 2617 861 
Q 2947 1281 2994 2138 
Q 2813 1869 2534 1725 
Q 2256 1581 1919 1581 
Q 1219 1581 811 2004 
Q 403 2428 403 3163 
Q 403 3881 828 4315 
Q 1253 4750 1959 4750 
Q 2769 4750 3195 4129 
Q 3622 3509 3622 2328 
Q 3622 1225 3098 567 
Q 2575 -91 1691 -91 
Q 1453 -91 1209 -44 
Q 966 3 703 97 
z
M 1959 2075 
Q 2384 2075 2632 2365 
Q 2881 2656 2881 3163 
Q 2881 3666 2632 3958 
Q 2384 4250 1959 4250 
Q 1534 4250 1286 3958 
Q 1038 3666 1038 3163 
Q 1038 2656 1286 2365 
Q 1534 2075 1959 2075 
z
" transform="scale(0.015625)"/>
      <path id="DejaVuSans-2e" d="M 684 794 
L 1344 794 
L 1344 0 
L 684 0 
L 684 794 
z
" transform="scale(0.015625)"/>
      <path id="DejaVuSans-34" d="M 2419 4116 
L 825 1625 
L 2419 1625 
L 2419 4116 
z
M 2253 4666 
L 3047 4666 
L 3047 1625 
L 3713 1625 
L 3713 1100 
L 3047 1100 
L 3047 0 
L 2419 0 
L 2419 1100 
L 313 1100 
L 313 1709 
L 2253 4666 
z
" transform="scale(0.015625)"/>
      <path id="DejaVuSans-b1" d="M 2944 4013 
L 2944 2803 
L 4684 2803 
L 4684 2272 
L 2944 2272 
L 2944 1063 
L 2419 1063 
L 2419 2272 
L 678 2272 
L 678 2803 
L 2419 2803 
L 2419 4013 
L 2944 4013 
z
M 678 531 
L 4684 531 
L 4684 0 
L 678 0 
L 678 531 
z
" transform="scale(0.015625)"/>
      <path id="DejaVuSans-6b" d="M 581 4863 
L 1159 4863 
L 1159 1991 
L 2875 3500 
L 3609 3500 
L 1753 1863 
L 3688 0 
L 2938 0 
L 1159 1709 
L 1159 0 
L 581 0 
L 581 4863 
z
" transform="scale(0.015625)"/>
     </defs>
     <use xlink:href="#DejaVuSans-Oblique-51" transform="translate(0 0.015625)"/>
     <use xlink:href="#DejaVuSans-Oblique-49" transform="translate(78.710938 -16.390625) scale(0.7)"/>
     <use xlink:href="#DejaVuSans-3a" transform="translate(102.089844 0.015625)"/>
     <use xlink:href="#DejaVuSans-20" transform="translate(135.78125 0.015625)"/>
     <use xlink:href="#DejaVuSans-33" transform="translate(167.568359 0.015625)"/>
     <use xlink:href="#DejaVuSans-39" transform="translate(231.191406 0.015625)"/>
     <use xlink:href="#DejaVuSans-2e" transform="translate(294.814453 0.015625)"/>
     <use xlink:href="#DejaVuSans-34" transform="translate(326.601562 0.015625)"/>
     <use xlink:href="#DejaVuSans-b1" transform="translate(390.224609 0.015625)"/>
     <use xlink:href="#DejaVuSans-34" transform="translate(474.013672 0.015625)"/>
     <use xlink:href="#DejaVuSans-2e" transform="translate(537.636719 0.015625)"/>
     <use xlink:href="#DejaVuSans-30" transform="translate(569.423828 0.015625)"/>
     <use xlink:href="#DejaVuSans-20" transform="translate(633.046875 0.015625)"/>
     <use xlink:href="#DejaVuSans-6b" transform="translate(664.833984 0.015625)"/>
    </g>
    <!-- $Q_C$: 3.360$\pm$0.032 k -->
    <g transform="translate(425.549438 85.059663) scale(0.1 -0.1)">
     <defs>
      <path id="DejaVuSans-Oblique-43" d="M 4447 4306 
L 4319 3641 
Q 4019 3944 3683 4091 
Q 3347 4238 2956 4238 
Q 2422 4238 2017 3981 
Q 1613 3725 1319 3200 
Q 1131 2863 1032 2486 
Q 934 2109 934 1728 
Q 934 1091 1264 756 
Q 1594 422 2222 422 
Q 2656 422 3056 561 
Q 3456 700 3834 978 
L 3688 231 
Q 3316 72 2936 -9 
Q 2556 -91 2175 -91 
Q 1278 -91 773 396 
Q 269 884 269 1753 
Q 269 2309 461 2846 
Q 653 3384 1013 3828 
Q 1394 4300 1883 4525 
Q 2372 4750 3022 4750 
Q 3422 4750 3780 4639 
Q 4138 4528 4447 4306 
z
" transform="scale(0.015625)"/>
      <path id="DejaVuSans-36" d="M 2113 2584 
Q 1688 2584 1439 2293 
Q 1191 2003 1191 1497 
Q 1191 994 1439 701 
Q 1688 409 2113 409 
Q 2538 409 2786 701 
Q 3034 994 3034 1497 
Q 3034 2003 2786 2293 
Q 2538 2584 2113 2584 
z
M 3366 4563 
L 3366 3988 
Q 3128 4100 2886 4159 
Q 2644 4219 2406 4219 
Q 1781 4219 1451 3797 
Q 1122 3375 1075 2522 
Q 1259 2794 1537 2939 
Q 1816 3084 2150 3084 
Q 2853 3084 3261 2657 
Q 3669 2231 3669 1497 
Q 3669 778 3244 343 
Q 2819 -91 2113 -91 
Q 1303 -91 875 529 
Q 447 1150 447 2328 
Q 447 3434 972 4092 
Q 1497 4750 2381 4750 
Q 2619 4750 2861 4703 
Q 3103 4656 3366 4563 
z
" transform="scale(0.015625)"/>
     </defs>
     <use xlink:href="#DejaVuSans-Oblique-51" transform="translate(0 0.015625)"/>
     <use xlink:href="#DejaVuSans-Oblique-43" transform="translate(78.710938 -16.390625) scale(0.7)"/>
     <use xlink:href="#DejaVuSans-3a" transform="translate(130.322266 0.015625)"/>
     <use xlink:href="#DejaVuSans-20" transform="translate(164.013672 0.015625)"/>
     <use xlink:href="#DejaVuSans-33" transform="translate(195.800781 0.015625)"/>
     <use xlink:href="#DejaVuSans-2e" transform="translate(259.423828 0.015625)"/>
     <use xlink:href="#DejaVuSans-33" transform="translate(291.210938 0.015625)"/>
     <use xlink:href="#DejaVuSans-36" transform="translate(354.833984 0.015625)"/>
     <use xlink:href="#DejaVuSans-30" transform="translate(418.457031 0.015625)"/>
     <use xlink:href="#DejaVuSans-b1" transform="translate(482.080078 0.015625)"/>
     <use xlink:href="#DejaVuSans-30" transform="translate(565.869141 0.015625)"/>
     <use xlink:href="#DejaVuSans-2e" transform="translate(629.492188 0.015625)"/>
     <use xlink:href="#DejaVuSans-30" transform="translate(661.279297 0.015625)"/>
     <use xlink:href="#DejaVuSans-33" transform="translate(724.902344 0.015625)"/>
     <use xlink:href="#DejaVuSans-32" transform="translate(788.525391 0.015625)"/>
     <use xlink:href="#DejaVuSans-20" transform="translate(852.148438 0.015625)"/>
     <use xlink:href="#DejaVuSans-6b" transform="translate(883.935547 0.015625)"/>
    </g>
    <!-- $f_{res}$: 6.013153$\pm$1.2e-05 GHz -->
    <g transform="translate(425.549438 96.257475) scale(0.1 -0.1)">
     <defs>
      <path id="DejaVuSans-Oblique-66" d="M 3059 4863 
L 2969 4384 
L 2419 4384 
Q 2106 4384 1964 4261 
Q 1822 4138 1753 3809 
L 1691 3500 
L 2638 3500 
L 2553 3053 
L 1606 3053 
L 1013 0 
L 434 0 
L 1031 3053 
L 481 3053 
L 563 3500 
L 1113 3500 
L 1159 3744 
Q 1278 4363 1576 4613 
Q 1875 4863 2516 4863 
L 3059 4863 
z
" transform="scale(0.015625)"/>
      <path id="DejaVuSans-Oblique-72" d="M 2853 2969 
Q 2766 3016 2653 3041 
Q 2541 3066 2413 3066 
Q 1953 3066 1609 2717 
Q 1266 2369 1153 1784 
L 800 0 
L 225 0 
L 909 3500 
L 1484 3500 
L 1375 2956 
Q 1603 3259 1920 3421 
Q 2238 3584 2597 3584 
Q 2691 3584 2781 3573 
Q 2872 3563 2963 3538 
L 2853 2969 
z
" transform="scale(0.015625)"/>
      <path id="DejaVuSans-Oblique-65" d="M 3078 2063 
Q 3088 2113 3092 2166 
Q 3097 2219 3097 2272 
Q 3097 2653 2873 2875 
Q 2650 3097 2266 3097 
Q 1838 3097 1509 2826 
Q 1181 2556 1013 2059 
L 3078 2063 
z
M 3578 1613 
L 903 1613 
Q 884 1494 878 1425 
Q 872 1356 872 1306 
Q 872 872 1139 634 
Q 1406 397 1894 397 
Q 2269 397 2603 481 
Q 2938 566 3225 728 
L 3116 159 
Q 2806 34 2476 -28 
Q 2147 -91 1806 -91 
Q 1078 -91 686 257 
Q 294 606 294 1247 
Q 294 1794 489 2264 
Q 684 2734 1063 3103 
Q 1306 3334 1642 3459 
Q 1978 3584 2356 3584 
Q 2950 3584 3301 3228 
Q 3653 2872 3653 2272 
Q 3653 2128 3634 1964 
Q 3616 1800 3578 1613 
z
" transform="scale(0.015625)"/>
      <path id="DejaVuSans-Oblique-73" d="M 3200 3397 
L 3091 2853 
Q 2863 2978 2609 3040 
Q 2356 3103 2088 3103 
Q 1634 3103 1373 2948 
Q 1113 2794 1113 2528 
Q 1113 2219 1719 2053 
Q 1766 2041 1788 2034 
L 1972 1978 
Q 2547 1819 2739 1644 
Q 2931 1469 2931 1166 
Q 2931 609 2489 259 
Q 2047 -91 1331 -91 
Q 1053 -91 747 -37 
Q 441 16 72 128 
L 184 722 
Q 500 559 806 475 
Q 1113 391 1394 391 
Q 1816 391 2080 572 
Q 2344 753 2344 1031 
Q 2344 1331 1650 1516 
L 1591 1531 
L 1394 1581 
Q 956 1697 753 1886 
Q 550 2075 550 2369 
Q 550 2928 970 3256 
Q 1391 3584 2113 3584 
Q 2397 3584 2667 3537 
Q 2938 3491 3200 3397 
z
" transform="scale(0.015625)"/>
      <path id="DejaVuSans-35" d="M 691 4666 
L 3169 4666 
L 3169 4134 
L 1269 4134 
L 1269 2991 
Q 1406 3038 1543 3061 
Q 1681 3084 1819 3084 
Q 2600 3084 3056 2656 
Q 3513 2228 3513 1497 
Q 3513 744 3044 326 
Q 2575 -91 1722 -91 
Q 1428 -91 1123 -41 
Q 819 9 494 109 
L 494 744 
Q 775 591 1075 516 
Q 1375 441 1709 441 
Q 2250 441 2565 725 
Q 2881 1009 2881 1497 
Q 2881 1984 2565 2268 
Q 2250 2553 1709 2553 
Q 1456 2553 1204 2497 
Q 953 2441 691 2322 
L 691 4666 
z
" transform="scale(0.015625)"/>
      <path id="DejaVuSans-47" d="M 3809 666 
L 3809 1919 
L 2778 1919 
L 2778 2438 
L 4434 2438 
L 4434 434 
Q 4069 175 3628 42 
Q 3188 -91 2688 -91 
Q 1594 -91 976 548 
Q 359 1188 359 2328 
Q 359 3472 976 4111 
Q 1594 4750 2688 4750 
Q 3144 4750 3555 4637 
Q 3966 4525 4313 4306 
L 4313 3634 
Q 3963 3931 3569 4081 
Q 3175 4231 2741 4231 
Q 1884 4231 1454 3753 
Q 1025 3275 1025 2328 
Q 1025 1384 1454 906 
Q 1884 428 2741 428 
Q 3075 428 3337 486 
Q 3600 544 3809 666 
z
" transform="scale(0.015625)"/>
      <path id="DejaVuSans-48" d="M 628 4666 
L 1259 4666 
L 1259 2753 
L 3553 2753 
L 3553 4666 
L 4184 4666 
L 4184 0 
L 3553 0 
L 3553 2222 
L 1259 2222 
L 1259 0 
L 628 0 
L 628 4666 
z
" transform="scale(0.015625)"/>
      <path id="DejaVuSans-7a" d="M 353 3500 
L 3084 3500 
L 3084 2975 
L 922 459 
L 3084 459 
L 3084 0 
L 275 0 
L 275 525 
L 2438 3041 
L 353 3041 
L 353 3500 
z
" transform="scale(0.015625)"/>
     </defs>
     <use xlink:href="#DejaVuSans-Oblique-66" transform="translate(0 0.015625)"/>
     <use xlink:href="#DejaVuSans-Oblique-72" transform="translate(35.205078 -16.390625) scale(0.7)"/>
     <use xlink:href="#DejaVuSans-Oblique-65" transform="translate(63.984375 -16.390625) scale(0.7)"/>
     <use xlink:href="#DejaVuSans-Oblique-73" transform="translate(107.050781 -16.390625) scale(0.7)"/>
     <use xlink:href="#DejaVuSans-3a" transform="translate(146.254883 0.015625)"/>
     <use xlink:href="#DejaVuSans-20" transform="translate(179.946289 0.015625)"/>
     <use xlink:href="#DejaVuSans-36" transform="translate(211.733398 0.015625)"/>
     <use xlink:href="#DejaVuSans-2e" transform="translate(275.356445 0.015625)"/>
     <use xlink:href="#DejaVuSans-30" transform="translate(307.143555 0.015625)"/>
     <use xlink:href="#DejaVuSans-31" transform="translate(370.766602 0.015625)"/>
     <use xlink:href="#DejaVuSans-33" transform="translate(434.389648 0.015625)"/>
     <use xlink:href="#DejaVuSans-31" transform="translate(498.012695 0.015625)"/>
     <use xlink:href="#DejaVuSans-35" transform="translate(561.635742 0.015625)"/>
     <use xlink:href="#DejaVuSans-33" transform="translate(625.258789 0.015625)"/>
     <use xlink:href="#DejaVuSans-b1" transform="translate(688.881836 0.015625)"/>
     <use xlink:href="#DejaVuSans-31" transform="translate(772.670898 0.015625)"/>
     <use xlink:href="#DejaVuSans-2e" transform="translate(836.293945 0.015625)"/>
     <use xlink:href="#DejaVuSans-32" transform="translate(862.581055 0.015625)"/>
     <use xlink:href="#DejaVuSans-65" transform="translate(926.204102 0.015625)"/>
     <use xlink:href="#DejaVuSans-2d" transform="translate(987.727539 0.015625)"/>
     <use xlink:href="#DejaVuSans-30" transform="translate(1023.811523 0.015625)"/>
     <use xlink:href="#DejaVuSans-35" transform="translate(1087.43457 0.015625)"/>
     <use xlink:href="#DejaVuSans-20" transform="translate(1151.057617 0.015625)"/>
     <use xlink:href="#DejaVuSans-47" transform="translate(1182.844727 0.015625)"/>
     <use xlink:href="#DejaVuSans-48" transform="translate(1260.334961 0.015625)"/>
     <use xlink:href="#DejaVuSans-7a" transform="translate(1335.530273 0.015625)"/>
    </g>
   </g>
  </g>
  <g id="text_16">
   <!-- S21 One-tone -->
   <g transform="translate(182.1225 16.318125) scale(0.12 -0.12)">
    <defs>
     <path id="DejaVuSans-4f" d="M 2522 4238 
Q 1834 4238 1429 3725 
Q 1025 3213 1025 2328 
Q 1025 1447 1429 934 
Q 1834 422 2522 422 
Q 3209 422 3611 934 
Q 4013 1447 4013 2328 
Q 4013 3213 3611 3725 
Q 3209 4238 2522 4238 
z
M 2522 4750 
Q 3503 4750 4090 4092 
Q 4678 3434 4678 2328 
Q 4678 1225 4090 567 
Q 3503 -91 2522 -91 
Q 1538 -91 948 565 
Q 359 1222 359 2328 
Q 359 3434 948 4092 
Q 1538 4750 2522 4750 
z
" transform="scale(0.015625)"/>
     <path id="DejaVuSans-6e" d="M 3513 2113 
L 3513 0 
L 2938 0 
L 2938 2094 
Q 2938 2591 2744 2837 
Q 2550 3084 2163 3084 
Q 1697 3084 1428 2787 
Q 1159 2491 1159 1978 
L 1159 0 
L 581 0 
L 581 3500 
L 1159 3500 
L 1159 2956 
Q 1366 3272 1645 3428 
Q 1925 3584 2291 3584 
Q 2894 3584 3203 3211 
Q 3513 2838 3513 2113 
z
" transform="scale(0.015625)"/>
     <path id="DejaVuSans-74" d="M 1172 4494 
L 1172 3500 
L 2356 3500 
L 2356 3053 
L 1172 3053 
L 1172 1153 
Q 1172 725 1289 603 
Q 1406 481 1766 481 
L 2356 481 
L 2356 0 
L 1766 0 
Q 1100 0 847 248 
Q 594 497 594 1153 
L 594 3053 
L 172 3053 
L 172 3500 
L 594 3500 
L 594 4494 
L 1172 4494 
z
" transform="scale(0.015625)"/>
     <path id="DejaVuSans-6f" d="M 1959 3097 
Q 1497 3097 1228 2736 
Q 959 2375 959 1747 
Q 959 1119 1226 758 
Q 1494 397 1959 397 
Q 2419 397 2687 759 
Q 2956 1122 2956 1747 
Q 2956 2369 2687 2733 
Q 2419 3097 1959 3097 
z
M 1959 3584 
Q 2709 3584 3137 3096 
Q 3566 2609 3566 1747 
Q 3566 888 3137 398 
Q 2709 -91 1959 -91 
Q 1206 -91 779 398 
Q 353 888 353 1747 
Q 353 2609 779 3096 
Q 1206 3584 1959 3584 
z
" transform="scale(0.015625)"/>
    </defs>
    <use xlink:href="#DejaVuSans-53"/>
    <use xlink:href="#DejaVuSans-32" x="63.476562"/>
    <use xlink:href="#DejaVuSans-31" x="127.099609"/>
    <use xlink:href="#DejaVuSans-20" x="190.722656"/>
    <use xlink:href="#DejaVuSans-4f" x="222.509766"/>
    <use xlink:href="#DejaVuSans-6e" x="301.220703"/>
    <use xlink:href="#DejaVuSans-65" x="364.599609"/>
    <use xlink:href="#DejaVuSans-2d" x="426.123047"/>
    <use xlink:href="#DejaVuSans-74" x="462.207031"/>
    <use xlink:href="#DejaVuSans-6f" x="501.416016"/>
    <use xlink:href="#DejaVuSans-6e" x="562.597656"/>
    <use xlink:href="#DejaVuSans-65" x="625.976562"/>
   </g>
   <!-- tuid: 20240311-113115-337-ee9716 -->
   <g transform="translate(113.769375 29.7555) scale(0.12 -0.12)">
    <defs>
     <path id="DejaVuSans-69" d="M 603 3500 
L 1178 3500 
L 1178 0 
L 603 0 
L 603 3500 
z
M 603 4863 
L 1178 4863 
L 1178 4134 
L 603 4134 
L 603 4863 
z
" transform="scale(0.015625)"/>
     <path id="DejaVuSans-64" d="M 2906 2969 
L 2906 4863 
L 3481 4863 
L 3481 0 
L 2906 0 
L 2906 525 
Q 2725 213 2448 61 
Q 2172 -91 1784 -91 
Q 1150 -91 751 415 
Q 353 922 353 1747 
Q 353 2572 751 3078 
Q 1150 3584 1784 3584 
Q 2172 3584 2448 3432 
Q 2725 3281 2906 2969 
z
M 947 1747 
Q 947 1113 1208 752 
Q 1469 391 1925 391 
Q 2381 391 2643 752 
Q 2906 1113 2906 1747 
Q 2906 2381 2643 2742 
Q 2381 3103 1925 3103 
Q 1469 3103 1208 2742 
Q 947 2381 947 1747 
z
" transform="scale(0.015625)"/>
     <path id="DejaVuSans-37" d="M 525 4666 
L 3525 4666 
L 3525 4397 
L 1831 0 
L 1172 0 
L 2766 4134 
L 525 4134 
L 525 4666 
z
" transform="scale(0.015625)"/>
    </defs>
    <use xlink:href="#DejaVuSans-74"/>
    <use xlink:href="#DejaVuSans-75" x="39.208984"/>
    <use xlink:href="#DejaVuSans-69" x="102.587891"/>
    <use xlink:href="#DejaVuSans-64" x="130.371094"/>
    <use xlink:href="#DejaVuSans-3a" x="193.847656"/>
    <use xlink:href="#DejaVuSans-20" x="227.539062"/>
    <use xlink:href="#DejaVuSans-32" x="259.326172"/>
    <use xlink:href="#DejaVuSans-30" x="322.949219"/>
    <use xlink:href="#DejaVuSans-32" x="386.572266"/>
    <use xlink:href="#DejaVuSans-34" x="450.195312"/>
    <use xlink:href="#DejaVuSans-30" x="513.818359"/>
    <use xlink:href="#DejaVuSans-33" x="577.441406"/>
    <use xlink:href="#DejaVuSans-31" x="641.064453"/>
    <use xlink:href="#DejaVuSans-31" x="704.6875"/>
    <use xlink:href="#DejaVuSans-2d" x="768.310547"/>
    <use xlink:href="#DejaVuSans-31" x="804.394531"/>
    <use xlink:href="#DejaVuSans-31" x="868.017578"/>
    <use xlink:href="#DejaVuSans-33" x="931.640625"/>
    <use xlink:href="#DejaVuSans-31" x="995.263672"/>
    <use xlink:href="#DejaVuSans-31" x="1058.886719"/>
    <use xlink:href="#DejaVuSans-35" x="1122.509766"/>
    <use xlink:href="#DejaVuSans-2d" x="1186.132812"/>
    <use xlink:href="#DejaVuSans-33" x="1222.216797"/>
    <use xlink:href="#DejaVuSans-33" x="1285.839844"/>
    <use xlink:href="#DejaVuSans-37" x="1349.462891"/>
    <use xlink:href="#DejaVuSans-2d" x="1413.085938"/>
    <use xlink:href="#DejaVuSans-65" x="1449.169922"/>
    <use xlink:href="#DejaVuSans-65" x="1510.693359"/>
    <use xlink:href="#DejaVuSans-39" x="1572.216797"/>
    <use xlink:href="#DejaVuSans-37" x="1635.839844"/>
    <use xlink:href="#DejaVuSans-31" x="1699.462891"/>
    <use xlink:href="#DejaVuSans-36" x="1763.085938"/>
   </g>
  </g>
 </g>
 <defs>
  <clipPath id="p3e7141824a">
   <rect x="50.573438" y="41.76" width="357.12" height="266.112"/>
  </clipPath>
 </defs>
</svg>
