<?xml version="1.0" encoding="utf-8" standalone="no"?>
<!DOCTYPE svg PUBLIC "-//W3C//DTD SVG 1.1//EN"
  "http://www.w3.org/Graphics/SVG/1.1/DTD/svg11.dtd">
<svg xmlns:xlink="http://www.w3.org/1999/xlink" width="591.926pt" height="345.42825pt" viewBox="0 0 591.926 345.42825" xmlns="http://www.w3.org/2000/svg" version="1.1">
 <metadata>
  <rdf:RDF xmlns:dc="http://purl.org/dc/elements/1.1/" xmlns:cc="http://creativecommons.org/ns#" xmlns:rdf="http://www.w3.org/1999/02/22-rdf-syntax-ns#">
   <cc:Work>
    <dc:type rdf:resource="http://purl.org/dc/dcmitype/StillImage"/>
    <dc:date>2024-01-05T12:22:29.686531</dc:date>
    <dc:format>image/svg+xml</dc:format>
    <dc:creator>
     <cc:Agent>
      <dc:title>Matplotlib v3.8.1, https://matplotlib.org/</dc:title>
     </cc:Agent>
    </dc:creator>
   </cc:Work>
  </rdf:RDF>
 </metadata>
 <defs>
  <style type="text/css">*{stroke-linejoin: round; stroke-linecap: butt}</style>
 </defs>
 <g id="figure_1">
  <g id="patch_1">
   <path d="M 0 345.42825 
L 591.926 345.42825 
L 591.926 -0 
L 0 -0 
L 0 345.42825 
z
" style="fill: none; opacity: 0"/>
  </g>
  <g id="axes_1">
   <g id="patch_2">
    <path d="M 53.75 307.872 
L 410.87 307.872 
L 410.87 41.76 
L 53.75 41.76 
z
" style="fill: #ffffff"/>
   </g>
   <g id="matplotlib.axis_1">
    <g id="xtick_1">
     <g id="line2d_1">
      <defs>
       <path id="m518765dcf9" d="M 0 0 
L 0 3.5 
" style="stroke: #000000; stroke-width: 0.8"/>
      </defs>
      <g>
       <use xlink:href="#m518765dcf9" x="69.171091" y="307.872" style="stroke: #000000; stroke-width: 0.8"/>
      </g>
     </g>
     <g id="text_1">
      <!-- 0 -->
      <g transform="translate(65.989841 322.470438) scale(0.1 -0.1)">
       <defs>
        <path id="DejaVuSans-30" d="M 2034 4250 
Q 1547 4250 1301 3770 
Q 1056 3291 1056 2328 
Q 1056 1369 1301 889 
Q 1547 409 2034 409 
Q 2525 409 2770 889 
Q 3016 1369 3016 2328 
Q 3016 3291 2770 3770 
Q 2525 4250 2034 4250 
z
M 2034 4750 
Q 2819 4750 3233 4129 
Q 3647 3509 3647 2328 
Q 3647 1150 3233 529 
Q 2819 -91 2034 -91 
Q 1250 -91 836 529 
Q 422 1150 422 2328 
Q 422 3509 836 4129 
Q 1250 4750 2034 4750 
z
" transform="scale(0.015625)"/>
       </defs>
       <use xlink:href="#DejaVuSans-30"/>
      </g>
     </g>
    </g>
    <g id="xtick_2">
     <g id="line2d_2">
      <g>
       <use xlink:href="#m518765dcf9" x="109.752909" y="307.872" style="stroke: #000000; stroke-width: 0.8"/>
      </g>
     </g>
     <g id="text_2">
      <!-- 2 -->
      <g transform="translate(106.571659 322.470438) scale(0.1 -0.1)">
       <defs>
        <path id="DejaVuSans-32" d="M 1228 531 
L 3431 531 
L 3431 0 
L 469 0 
L 469 531 
Q 828 903 1448 1529 
Q 2069 2156 2228 2338 
Q 2531 2678 2651 2914 
Q 2772 3150 2772 3378 
Q 2772 3750 2511 3984 
Q 2250 4219 1831 4219 
Q 1534 4219 1204 4116 
Q 875 4013 500 3803 
L 500 4441 
Q 881 4594 1212 4672 
Q 1544 4750 1819 4750 
Q 2544 4750 2975 4387 
Q 3406 4025 3406 3419 
Q 3406 3131 3298 2873 
Q 3191 2616 2906 2266 
Q 2828 2175 2409 1742 
Q 1991 1309 1228 531 
z
" transform="scale(0.015625)"/>
       </defs>
       <use xlink:href="#DejaVuSans-32"/>
      </g>
     </g>
    </g>
    <g id="xtick_3">
     <g id="line2d_3">
      <g>
       <use xlink:href="#m518765dcf9" x="150.334727" y="307.872" style="stroke: #000000; stroke-width: 0.8"/>
      </g>
     </g>
     <g id="text_3">
      <!-- 4 -->
      <g transform="translate(147.153477 322.470438) scale(0.1 -0.1)">
       <defs>
        <path id="DejaVuSans-34" d="M 2419 4116 
L 825 1625 
L 2419 1625 
L 2419 4116 
z
M 2253 4666 
L 3047 4666 
L 3047 1625 
L 3713 1625 
L 3713 1100 
L 3047 1100 
L 3047 0 
L 2419 0 
L 2419 1100 
L 313 1100 
L 313 1709 
L 2253 4666 
z
" transform="scale(0.015625)"/>
       </defs>
       <use xlink:href="#DejaVuSans-34"/>
      </g>
     </g>
    </g>
    <g id="xtick_4">
     <g id="line2d_4">
      <g>
       <use xlink:href="#m518765dcf9" x="190.916545" y="307.872" style="stroke: #000000; stroke-width: 0.8"/>
      </g>
     </g>
     <g id="text_4">
      <!-- 6 -->
      <g transform="translate(187.735295 322.470438) scale(0.1 -0.1)">
       <defs>
        <path id="DejaVuSans-36" d="M 2113 2584 
Q 1688 2584 1439 2293 
Q 1191 2003 1191 1497 
Q 1191 994 1439 701 
Q 1688 409 2113 409 
Q 2538 409 2786 701 
Q 3034 994 3034 1497 
Q 3034 2003 2786 2293 
Q 2538 2584 2113 2584 
z
M 3366 4563 
L 3366 3988 
Q 3128 4100 2886 4159 
Q 2644 4219 2406 4219 
Q 1781 4219 1451 3797 
Q 1122 3375 1075 2522 
Q 1259 2794 1537 2939 
Q 1816 3084 2150 3084 
Q 2853 3084 3261 2657 
Q 3669 2231 3669 1497 
Q 3669 778 3244 343 
Q 2819 -91 2113 -91 
Q 1303 -91 875 529 
Q 447 1150 447 2328 
Q 447 3434 972 4092 
Q 1497 4750 2381 4750 
Q 2619 4750 2861 4703 
Q 3103 4656 3366 4563 
z
" transform="scale(0.015625)"/>
       </defs>
       <use xlink:href="#DejaVuSans-36"/>
      </g>
     </g>
    </g>
    <g id="xtick_5">
     <g id="line2d_5">
      <g>
       <use xlink:href="#m518765dcf9" x="231.498364" y="307.872" style="stroke: #000000; stroke-width: 0.8"/>
      </g>
     </g>
     <g id="text_5">
      <!-- 8 -->
      <g transform="translate(228.317114 322.470438) scale(0.1 -0.1)">
       <defs>
        <path id="DejaVuSans-38" d="M 2034 2216 
Q 1584 2216 1326 1975 
Q 1069 1734 1069 1313 
Q 1069 891 1326 650 
Q 1584 409 2034 409 
Q 2484 409 2743 651 
Q 3003 894 3003 1313 
Q 3003 1734 2745 1975 
Q 2488 2216 2034 2216 
z
M 1403 2484 
Q 997 2584 770 2862 
Q 544 3141 544 3541 
Q 544 4100 942 4425 
Q 1341 4750 2034 4750 
Q 2731 4750 3128 4425 
Q 3525 4100 3525 3541 
Q 3525 3141 3298 2862 
Q 3072 2584 2669 2484 
Q 3125 2378 3379 2068 
Q 3634 1759 3634 1313 
Q 3634 634 3220 271 
Q 2806 -91 2034 -91 
Q 1263 -91 848 271 
Q 434 634 434 1313 
Q 434 1759 690 2068 
Q 947 2378 1403 2484 
z
M 1172 3481 
Q 1172 3119 1398 2916 
Q 1625 2713 2034 2713 
Q 2441 2713 2670 2916 
Q 2900 3119 2900 3481 
Q 2900 3844 2670 4047 
Q 2441 4250 2034 4250 
Q 1625 4250 1398 4047 
Q 1172 3844 1172 3481 
z
" transform="scale(0.015625)"/>
       </defs>
       <use xlink:href="#DejaVuSans-38"/>
      </g>
     </g>
    </g>
    <g id="xtick_6">
     <g id="line2d_6">
      <g>
       <use xlink:href="#m518765dcf9" x="272.080182" y="307.872" style="stroke: #000000; stroke-width: 0.8"/>
      </g>
     </g>
     <g id="text_6">
      <!-- 10 -->
      <g transform="translate(265.717682 322.470438) scale(0.1 -0.1)">
       <defs>
        <path id="DejaVuSans-31" d="M 794 531 
L 1825 531 
L 1825 4091 
L 703 3866 
L 703 4441 
L 1819 4666 
L 2450 4666 
L 2450 531 
L 3481 531 
L 3481 0 
L 794 0 
L 794 531 
z
" transform="scale(0.015625)"/>
       </defs>
       <use xlink:href="#DejaVuSans-31"/>
       <use xlink:href="#DejaVuSans-30" x="63.623047"/>
      </g>
     </g>
    </g>
    <g id="xtick_7">
     <g id="line2d_7">
      <g>
       <use xlink:href="#m518765dcf9" x="312.662" y="307.872" style="stroke: #000000; stroke-width: 0.8"/>
      </g>
     </g>
     <g id="text_7">
      <!-- 12 -->
      <g transform="translate(306.2995 322.470438) scale(0.1 -0.1)">
       <use xlink:href="#DejaVuSans-31"/>
       <use xlink:href="#DejaVuSans-32" x="63.623047"/>
      </g>
     </g>
    </g>
    <g id="xtick_8">
     <g id="line2d_8">
      <g>
       <use xlink:href="#m518765dcf9" x="353.243818" y="307.872" style="stroke: #000000; stroke-width: 0.8"/>
      </g>
     </g>
     <g id="text_8">
      <!-- 14 -->
      <g transform="translate(346.881318 322.470438) scale(0.1 -0.1)">
       <use xlink:href="#DejaVuSans-31"/>
       <use xlink:href="#DejaVuSans-34" x="63.623047"/>
      </g>
     </g>
    </g>
    <g id="xtick_9">
     <g id="line2d_9">
      <g>
       <use xlink:href="#m518765dcf9" x="393.825636" y="307.872" style="stroke: #000000; stroke-width: 0.8"/>
      </g>
     </g>
     <g id="text_9">
      <!-- 16 -->
      <g transform="translate(387.463136 322.470438) scale(0.1 -0.1)">
       <use xlink:href="#DejaVuSans-31"/>
       <use xlink:href="#DejaVuSans-36" x="63.623047"/>
      </g>
     </g>
    </g>
    <g id="text_10">
     <!-- Time [μs] -->
     <g transform="translate(208.799844 336.148562) scale(0.1 -0.1)">
      <defs>
       <path id="DejaVuSans-54" d="M -19 4666 
L 3928 4666 
L 3928 4134 
L 2272 4134 
L 2272 0 
L 1638 0 
L 1638 4134 
L -19 4134 
L -19 4666 
z
" transform="scale(0.015625)"/>
       <path id="DejaVuSans-69" d="M 603 3500 
L 1178 3500 
L 1178 0 
L 603 0 
L 603 3500 
z
M 603 4863 
L 1178 4863 
L 1178 4134 
L 603 4134 
L 603 4863 
z
" transform="scale(0.015625)"/>
       <path id="DejaVuSans-6d" d="M 3328 2828 
Q 3544 3216 3844 3400 
Q 4144 3584 4550 3584 
Q 5097 3584 5394 3201 
Q 5691 2819 5691 2113 
L 5691 0 
L 5113 0 
L 5113 2094 
Q 5113 2597 4934 2840 
Q 4756 3084 4391 3084 
Q 3944 3084 3684 2787 
Q 3425 2491 3425 1978 
L 3425 0 
L 2847 0 
L 2847 2094 
Q 2847 2600 2669 2842 
Q 2491 3084 2119 3084 
Q 1678 3084 1418 2786 
Q 1159 2488 1159 1978 
L 1159 0 
L 581 0 
L 581 3500 
L 1159 3500 
L 1159 2956 
Q 1356 3278 1631 3431 
Q 1906 3584 2284 3584 
Q 2666 3584 2933 3390 
Q 3200 3197 3328 2828 
z
" transform="scale(0.015625)"/>
       <path id="DejaVuSans-65" d="M 3597 1894 
L 3597 1613 
L 953 1613 
Q 991 1019 1311 708 
Q 1631 397 2203 397 
Q 2534 397 2845 478 
Q 3156 559 3463 722 
L 3463 178 
Q 3153 47 2828 -22 
Q 2503 -91 2169 -91 
Q 1331 -91 842 396 
Q 353 884 353 1716 
Q 353 2575 817 3079 
Q 1281 3584 2069 3584 
Q 2775 3584 3186 3129 
Q 3597 2675 3597 1894 
z
M 3022 2063 
Q 3016 2534 2758 2815 
Q 2500 3097 2075 3097 
Q 1594 3097 1305 2825 
Q 1016 2553 972 2059 
L 3022 2063 
z
" transform="scale(0.015625)"/>
       <path id="DejaVuSans-20" transform="scale(0.015625)"/>
       <path id="DejaVuSans-5b" d="M 550 4863 
L 1875 4863 
L 1875 4416 
L 1125 4416 
L 1125 -397 
L 1875 -397 
L 1875 -844 
L 550 -844 
L 550 4863 
z
" transform="scale(0.015625)"/>
       <path id="DejaVuSans-3bc" d="M 544 -1331 
L 544 3500 
L 1119 3500 
L 1119 1325 
Q 1119 872 1334 640 
Q 1550 409 1972 409 
Q 2434 409 2667 671 
Q 2900 934 2900 1459 
L 2900 3500 
L 3475 3500 
L 3475 806 
Q 3475 619 3529 530 
Q 3584 441 3700 441 
Q 3728 441 3778 458 
Q 3828 475 3916 513 
L 3916 50 
Q 3788 -22 3673 -56 
Q 3559 -91 3450 -91 
Q 3234 -91 3106 31 
Q 2978 153 2931 403 
Q 2775 156 2548 32 
Q 2322 -91 2016 -91 
Q 1697 -91 1473 31 
Q 1250 153 1119 397 
L 1119 -1331 
L 544 -1331 
z
" transform="scale(0.015625)"/>
       <path id="DejaVuSans-73" d="M 2834 3397 
L 2834 2853 
Q 2591 2978 2328 3040 
Q 2066 3103 1784 3103 
Q 1356 3103 1142 2972 
Q 928 2841 928 2578 
Q 928 2378 1081 2264 
Q 1234 2150 1697 2047 
L 1894 2003 
Q 2506 1872 2764 1633 
Q 3022 1394 3022 966 
Q 3022 478 2636 193 
Q 2250 -91 1575 -91 
Q 1294 -91 989 -36 
Q 684 19 347 128 
L 347 722 
Q 666 556 975 473 
Q 1284 391 1588 391 
Q 1994 391 2212 530 
Q 2431 669 2431 922 
Q 2431 1156 2273 1281 
Q 2116 1406 1581 1522 
L 1381 1569 
Q 847 1681 609 1914 
Q 372 2147 372 2553 
Q 372 3047 722 3315 
Q 1072 3584 1716 3584 
Q 2034 3584 2315 3537 
Q 2597 3491 2834 3397 
z
" transform="scale(0.015625)"/>
       <path id="DejaVuSans-5d" d="M 1947 4863 
L 1947 -844 
L 622 -844 
L 622 -397 
L 1369 -397 
L 1369 4416 
L 622 4416 
L 622 4863 
L 1947 4863 
z
" transform="scale(0.015625)"/>
      </defs>
      <use xlink:href="#DejaVuSans-54"/>
      <use xlink:href="#DejaVuSans-69" x="57.958984"/>
      <use xlink:href="#DejaVuSans-6d" x="85.742188"/>
      <use xlink:href="#DejaVuSans-65" x="183.154297"/>
      <use xlink:href="#DejaVuSans-20" x="244.677734"/>
      <use xlink:href="#DejaVuSans-5b" x="276.464844"/>
      <use xlink:href="#DejaVuSans-3bc" x="315.478516"/>
      <use xlink:href="#DejaVuSans-73" x="379.101562"/>
      <use xlink:href="#DejaVuSans-5d" x="431.201172"/>
     </g>
    </g>
   </g>
   <g id="matplotlib.axis_2">
    <g id="ytick_1">
     <g id="line2d_10">
      <defs>
       <path id="m987dc09a35" d="M 0 0 
L -3.5 0 
" style="stroke: #000000; stroke-width: 0.8"/>
      </defs>
      <g>
       <use xlink:href="#m987dc09a35" x="53.75" y="291.333778" style="stroke: #000000; stroke-width: 0.8"/>
      </g>
     </g>
     <g id="text_11">
      <!-- 1200 -->
      <g transform="translate(21.3 295.132996) scale(0.1 -0.1)">
       <use xlink:href="#DejaVuSans-31"/>
       <use xlink:href="#DejaVuSans-32" x="63.623047"/>
       <use xlink:href="#DejaVuSans-30" x="127.246094"/>
       <use xlink:href="#DejaVuSans-30" x="190.869141"/>
      </g>
     </g>
    </g>
    <g id="ytick_2">
     <g id="line2d_11">
      <g>
       <use xlink:href="#m987dc09a35" x="53.75" y="261.127491" style="stroke: #000000; stroke-width: 0.8"/>
      </g>
     </g>
     <g id="text_12">
      <!-- 1250 -->
      <g transform="translate(21.3 264.92671) scale(0.1 -0.1)">
       <defs>
        <path id="DejaVuSans-35" d="M 691 4666 
L 3169 4666 
L 3169 4134 
L 1269 4134 
L 1269 2991 
Q 1406 3038 1543 3061 
Q 1681 3084 1819 3084 
Q 2600 3084 3056 2656 
Q 3513 2228 3513 1497 
Q 3513 744 3044 326 
Q 2575 -91 1722 -91 
Q 1428 -91 1123 -41 
Q 819 9 494 109 
L 494 744 
Q 775 591 1075 516 
Q 1375 441 1709 441 
Q 2250 441 2565 725 
Q 2881 1009 2881 1497 
Q 2881 1984 2565 2268 
Q 2250 2553 1709 2553 
Q 1456 2553 1204 2497 
Q 953 2441 691 2322 
L 691 4666 
z
" transform="scale(0.015625)"/>
       </defs>
       <use xlink:href="#DejaVuSans-31"/>
       <use xlink:href="#DejaVuSans-32" x="63.623047"/>
       <use xlink:href="#DejaVuSans-35" x="127.246094"/>
       <use xlink:href="#DejaVuSans-30" x="190.869141"/>
      </g>
     </g>
    </g>
    <g id="ytick_3">
     <g id="line2d_12">
      <g>
       <use xlink:href="#m987dc09a35" x="53.75" y="230.921205" style="stroke: #000000; stroke-width: 0.8"/>
      </g>
     </g>
     <g id="text_13">
      <!-- 1300 -->
      <g transform="translate(21.3 234.720424) scale(0.1 -0.1)">
       <defs>
        <path id="DejaVuSans-33" d="M 2597 2516 
Q 3050 2419 3304 2112 
Q 3559 1806 3559 1356 
Q 3559 666 3084 287 
Q 2609 -91 1734 -91 
Q 1441 -91 1130 -33 
Q 819 25 488 141 
L 488 750 
Q 750 597 1062 519 
Q 1375 441 1716 441 
Q 2309 441 2620 675 
Q 2931 909 2931 1356 
Q 2931 1769 2642 2001 
Q 2353 2234 1838 2234 
L 1294 2234 
L 1294 2753 
L 1863 2753 
Q 2328 2753 2575 2939 
Q 2822 3125 2822 3475 
Q 2822 3834 2567 4026 
Q 2313 4219 1838 4219 
Q 1578 4219 1281 4162 
Q 984 4106 628 3988 
L 628 4550 
Q 988 4650 1302 4700 
Q 1616 4750 1894 4750 
Q 2613 4750 3031 4423 
Q 3450 4097 3450 3541 
Q 3450 3153 3228 2886 
Q 3006 2619 2597 2516 
z
" transform="scale(0.015625)"/>
       </defs>
       <use xlink:href="#DejaVuSans-31"/>
       <use xlink:href="#DejaVuSans-33" x="63.623047"/>
       <use xlink:href="#DejaVuSans-30" x="127.246094"/>
       <use xlink:href="#DejaVuSans-30" x="190.869141"/>
      </g>
     </g>
    </g>
    <g id="ytick_4">
     <g id="line2d_13">
      <g>
       <use xlink:href="#m987dc09a35" x="53.75" y="200.714919" style="stroke: #000000; stroke-width: 0.8"/>
      </g>
     </g>
     <g id="text_14">
      <!-- 1350 -->
      <g transform="translate(21.3 204.514137) scale(0.1 -0.1)">
       <use xlink:href="#DejaVuSans-31"/>
       <use xlink:href="#DejaVuSans-33" x="63.623047"/>
       <use xlink:href="#DejaVuSans-35" x="127.246094"/>
       <use xlink:href="#DejaVuSans-30" x="190.869141"/>
      </g>
     </g>
    </g>
    <g id="ytick_5">
     <g id="line2d_14">
      <g>
       <use xlink:href="#m987dc09a35" x="53.75" y="170.508632" style="stroke: #000000; stroke-width: 0.8"/>
      </g>
     </g>
     <g id="text_15">
      <!-- 1400 -->
      <g transform="translate(21.3 174.307851) scale(0.1 -0.1)">
       <use xlink:href="#DejaVuSans-31"/>
       <use xlink:href="#DejaVuSans-34" x="63.623047"/>
       <use xlink:href="#DejaVuSans-30" x="127.246094"/>
       <use xlink:href="#DejaVuSans-30" x="190.869141"/>
      </g>
     </g>
    </g>
    <g id="ytick_6">
     <g id="line2d_15">
      <g>
       <use xlink:href="#m987dc09a35" x="53.75" y="140.302346" style="stroke: #000000; stroke-width: 0.8"/>
      </g>
     </g>
     <g id="text_16">
      <!-- 1450 -->
      <g transform="translate(21.3 144.101565) scale(0.1 -0.1)">
       <use xlink:href="#DejaVuSans-31"/>
       <use xlink:href="#DejaVuSans-34" x="63.623047"/>
       <use xlink:href="#DejaVuSans-35" x="127.246094"/>
       <use xlink:href="#DejaVuSans-30" x="190.869141"/>
      </g>
     </g>
    </g>
    <g id="ytick_7">
     <g id="line2d_16">
      <g>
       <use xlink:href="#m987dc09a35" x="53.75" y="110.09606" style="stroke: #000000; stroke-width: 0.8"/>
      </g>
     </g>
     <g id="text_17">
      <!-- 1500 -->
      <g transform="translate(21.3 113.895279) scale(0.1 -0.1)">
       <use xlink:href="#DejaVuSans-31"/>
       <use xlink:href="#DejaVuSans-35" x="63.623047"/>
       <use xlink:href="#DejaVuSans-30" x="127.246094"/>
       <use xlink:href="#DejaVuSans-30" x="190.869141"/>
      </g>
     </g>
    </g>
    <g id="ytick_8">
     <g id="line2d_17">
      <g>
       <use xlink:href="#m987dc09a35" x="53.75" y="79.889774" style="stroke: #000000; stroke-width: 0.8"/>
      </g>
     </g>
     <g id="text_18">
      <!-- 1550 -->
      <g transform="translate(21.3 83.688992) scale(0.1 -0.1)">
       <use xlink:href="#DejaVuSans-31"/>
       <use xlink:href="#DejaVuSans-35" x="63.623047"/>
       <use xlink:href="#DejaVuSans-35" x="127.246094"/>
       <use xlink:href="#DejaVuSans-30" x="190.869141"/>
      </g>
     </g>
    </g>
    <g id="ytick_9">
     <g id="line2d_18">
      <g>
       <use xlink:href="#m987dc09a35" x="53.75" y="49.683487" style="stroke: #000000; stroke-width: 0.8"/>
      </g>
     </g>
     <g id="text_19">
      <!-- 1600 -->
      <g transform="translate(21.3 53.482706) scale(0.1 -0.1)">
       <use xlink:href="#DejaVuSans-31"/>
       <use xlink:href="#DejaVuSans-36" x="63.623047"/>
       <use xlink:href="#DejaVuSans-30" x="127.246094"/>
       <use xlink:href="#DejaVuSans-30" x="190.869141"/>
      </g>
     </g>
    </g>
    <g id="text_20">
     <!-- Magnitude |$S_{21}|$ [μV] -->
     <g transform="translate(14.9 226.166) rotate(-90) scale(0.1 -0.1)">
      <defs>
       <path id="DejaVuSans-4d" d="M 628 4666 
L 1569 4666 
L 2759 1491 
L 3956 4666 
L 4897 4666 
L 4897 0 
L 4281 0 
L 4281 4097 
L 3078 897 
L 2444 897 
L 1241 4097 
L 1241 0 
L 628 0 
L 628 4666 
z
" transform="scale(0.015625)"/>
       <path id="DejaVuSans-61" d="M 2194 1759 
Q 1497 1759 1228 1600 
Q 959 1441 959 1056 
Q 959 750 1161 570 
Q 1363 391 1709 391 
Q 2188 391 2477 730 
Q 2766 1069 2766 1631 
L 2766 1759 
L 2194 1759 
z
M 3341 1997 
L 3341 0 
L 2766 0 
L 2766 531 
Q 2569 213 2275 61 
Q 1981 -91 1556 -91 
Q 1019 -91 701 211 
Q 384 513 384 1019 
Q 384 1609 779 1909 
Q 1175 2209 1959 2209 
L 2766 2209 
L 2766 2266 
Q 2766 2663 2505 2880 
Q 2244 3097 1772 3097 
Q 1472 3097 1187 3025 
Q 903 2953 641 2809 
L 641 3341 
Q 956 3463 1253 3523 
Q 1550 3584 1831 3584 
Q 2591 3584 2966 3190 
Q 3341 2797 3341 1997 
z
" transform="scale(0.015625)"/>
       <path id="DejaVuSans-67" d="M 2906 1791 
Q 2906 2416 2648 2759 
Q 2391 3103 1925 3103 
Q 1463 3103 1205 2759 
Q 947 2416 947 1791 
Q 947 1169 1205 825 
Q 1463 481 1925 481 
Q 2391 481 2648 825 
Q 2906 1169 2906 1791 
z
M 3481 434 
Q 3481 -459 3084 -895 
Q 2688 -1331 1869 -1331 
Q 1566 -1331 1297 -1286 
Q 1028 -1241 775 -1147 
L 775 -588 
Q 1028 -725 1275 -790 
Q 1522 -856 1778 -856 
Q 2344 -856 2625 -561 
Q 2906 -266 2906 331 
L 2906 616 
Q 2728 306 2450 153 
Q 2172 0 1784 0 
Q 1141 0 747 490 
Q 353 981 353 1791 
Q 353 2603 747 3093 
Q 1141 3584 1784 3584 
Q 2172 3584 2450 3431 
Q 2728 3278 2906 2969 
L 2906 3500 
L 3481 3500 
L 3481 434 
z
" transform="scale(0.015625)"/>
       <path id="DejaVuSans-6e" d="M 3513 2113 
L 3513 0 
L 2938 0 
L 2938 2094 
Q 2938 2591 2744 2837 
Q 2550 3084 2163 3084 
Q 1697 3084 1428 2787 
Q 1159 2491 1159 1978 
L 1159 0 
L 581 0 
L 581 3500 
L 1159 3500 
L 1159 2956 
Q 1366 3272 1645 3428 
Q 1925 3584 2291 3584 
Q 2894 3584 3203 3211 
Q 3513 2838 3513 2113 
z
" transform="scale(0.015625)"/>
       <path id="DejaVuSans-74" d="M 1172 4494 
L 1172 3500 
L 2356 3500 
L 2356 3053 
L 1172 3053 
L 1172 1153 
Q 1172 725 1289 603 
Q 1406 481 1766 481 
L 2356 481 
L 2356 0 
L 1766 0 
Q 1100 0 847 248 
Q 594 497 594 1153 
L 594 3053 
L 172 3053 
L 172 3500 
L 594 3500 
L 594 4494 
L 1172 4494 
z
" transform="scale(0.015625)"/>
       <path id="DejaVuSans-75" d="M 544 1381 
L 544 3500 
L 1119 3500 
L 1119 1403 
Q 1119 906 1312 657 
Q 1506 409 1894 409 
Q 2359 409 2629 706 
Q 2900 1003 2900 1516 
L 2900 3500 
L 3475 3500 
L 3475 0 
L 2900 0 
L 2900 538 
Q 2691 219 2414 64 
Q 2138 -91 1772 -91 
Q 1169 -91 856 284 
Q 544 659 544 1381 
z
M 1991 3584 
L 1991 3584 
z
" transform="scale(0.015625)"/>
       <path id="DejaVuSans-64" d="M 2906 2969 
L 2906 4863 
L 3481 4863 
L 3481 0 
L 2906 0 
L 2906 525 
Q 2725 213 2448 61 
Q 2172 -91 1784 -91 
Q 1150 -91 751 415 
Q 353 922 353 1747 
Q 353 2572 751 3078 
Q 1150 3584 1784 3584 
Q 2172 3584 2448 3432 
Q 2725 3281 2906 2969 
z
M 947 1747 
Q 947 1113 1208 752 
Q 1469 391 1925 391 
Q 2381 391 2643 752 
Q 2906 1113 2906 1747 
Q 2906 2381 2643 2742 
Q 2381 3103 1925 3103 
Q 1469 3103 1208 2742 
Q 947 2381 947 1747 
z
" transform="scale(0.015625)"/>
       <path id="DejaVuSans-7c" d="M 1344 4891 
L 1344 -1509 
L 813 -1509 
L 813 4891 
L 1344 4891 
z
" transform="scale(0.015625)"/>
       <path id="DejaVuSans-Oblique-53" d="M 3859 4513 
L 3738 3897 
Q 3422 4066 3111 4152 
Q 2800 4238 2509 4238 
Q 1944 4238 1609 3991 
Q 1275 3744 1275 3334 
Q 1275 3109 1398 2989 
Q 1522 2869 2034 2731 
L 2413 2638 
Q 3053 2472 3303 2217 
Q 3553 1963 3553 1503 
Q 3553 797 2998 353 
Q 2444 -91 1538 -91 
Q 1166 -91 791 -17 
Q 416 56 38 206 
L 166 856 
Q 513 641 861 531 
Q 1209 422 1556 422 
Q 2147 422 2503 684 
Q 2859 947 2859 1369 
Q 2859 1650 2717 1795 
Q 2575 1941 2106 2059 
L 1728 2156 
Q 1081 2325 845 2545 
Q 609 2766 609 3163 
Q 609 3859 1145 4304 
Q 1681 4750 2541 4750 
Q 2875 4750 3203 4690 
Q 3531 4631 3859 4513 
z
" transform="scale(0.015625)"/>
       <path id="DejaVuSans-56" d="M 1831 0 
L 50 4666 
L 709 4666 
L 2188 738 
L 3669 4666 
L 4325 4666 
L 2547 0 
L 1831 0 
z
" transform="scale(0.015625)"/>
      </defs>
      <use xlink:href="#DejaVuSans-4d" transform="translate(0 0.578125)"/>
      <use xlink:href="#DejaVuSans-61" transform="translate(86.279297 0.578125)"/>
      <use xlink:href="#DejaVuSans-67" transform="translate(147.558594 0.578125)"/>
      <use xlink:href="#DejaVuSans-6e" transform="translate(211.035156 0.578125)"/>
      <use xlink:href="#DejaVuSans-69" transform="translate(274.414062 0.578125)"/>
      <use xlink:href="#DejaVuSans-74" transform="translate(302.197266 0.578125)"/>
      <use xlink:href="#DejaVuSans-75" transform="translate(341.40625 0.578125)"/>
      <use xlink:href="#DejaVuSans-64" transform="translate(404.785156 0.578125)"/>
      <use xlink:href="#DejaVuSans-65" transform="translate(468.261719 0.578125)"/>
      <use xlink:href="#DejaVuSans-20" transform="translate(529.785156 0.578125)"/>
      <use xlink:href="#DejaVuSans-7c" transform="translate(561.572266 0.578125)"/>
      <use xlink:href="#DejaVuSans-Oblique-53" transform="translate(595.263672 0.578125)"/>
      <use xlink:href="#DejaVuSans-32" transform="translate(658.740234 -15.828125) scale(0.7)"/>
      <use xlink:href="#DejaVuSans-31" transform="translate(703.276367 -15.828125) scale(0.7)"/>
      <use xlink:href="#DejaVuSans-7c" transform="translate(750.546875 0.578125)"/>
      <use xlink:href="#DejaVuSans-20" transform="translate(784.238281 0.578125)"/>
      <use xlink:href="#DejaVuSans-5b" transform="translate(816.025391 0.578125)"/>
      <use xlink:href="#DejaVuSans-3bc" transform="translate(855.039062 0.578125)"/>
      <use xlink:href="#DejaVuSans-56" transform="translate(918.662109 0.578125)"/>
      <use xlink:href="#DejaVuSans-5d" transform="translate(987.070312 0.578125)"/>
     </g>
    </g>
   </g>
   <g id="line2d_19">
    <defs>
     <path id="mb6b496740a" d="M 0 1.5 
C 0.397805 1.5 0.77937 1.341951 1.06066 1.06066 
C 1.341951 0.77937 1.5 0.397805 1.5 0 
C 1.5 -0.397805 1.341951 -0.77937 1.06066 -1.06066 
C 0.77937 -1.341951 0.397805 -1.5 0 -1.5 
C -0.397805 -1.5 -0.77937 -1.341951 -1.06066 -1.06066 
C -1.341951 -0.77937 -1.5 -0.397805 -1.5 0 
C -1.5 0.397805 -1.341951 0.77937 -1.06066 1.06066 
C -0.77937 1.341951 -0.397805 1.5 0 1.5 
z
" style="stroke: #1f77b4"/>
    </defs>
    <g clip-path="url(#pe794715002)">
     <use xlink:href="#mb6b496740a" x="69.982727" y="63.557015" style="fill: #1f77b4; stroke: #1f77b4"/>
     <use xlink:href="#mb6b496740a" x="73.229273" y="86.347284" style="fill: #1f77b4; stroke: #1f77b4"/>
     <use xlink:href="#mb6b496740a" x="76.475818" y="69.524421" style="fill: #1f77b4; stroke: #1f77b4"/>
     <use xlink:href="#mb6b496740a" x="79.722364" y="84.058002" style="fill: #1f77b4; stroke: #1f77b4"/>
     <use xlink:href="#mb6b496740a" x="82.968909" y="108.954204" style="fill: #1f77b4; stroke: #1f77b4"/>
     <use xlink:href="#mb6b496740a" x="86.215455" y="107.202152" style="fill: #1f77b4; stroke: #1f77b4"/>
     <use xlink:href="#mb6b496740a" x="89.462" y="114.657202" style="fill: #1f77b4; stroke: #1f77b4"/>
     <use xlink:href="#mb6b496740a" x="92.708545" y="120.98246" style="fill: #1f77b4; stroke: #1f77b4"/>
     <use xlink:href="#mb6b496740a" x="95.955091" y="160.214715" style="fill: #1f77b4; stroke: #1f77b4"/>
     <use xlink:href="#mb6b496740a" x="99.201636" y="173.658279" style="fill: #1f77b4; stroke: #1f77b4"/>
     <use xlink:href="#mb6b496740a" x="102.448182" y="146.269807" style="fill: #1f77b4; stroke: #1f77b4"/>
     <use xlink:href="#mb6b496740a" x="105.694727" y="171.420739" style="fill: #1f77b4; stroke: #1f77b4"/>
     <use xlink:href="#mb6b496740a" x="108.941273" y="188.556524" style="fill: #1f77b4; stroke: #1f77b4"/>
     <use xlink:href="#mb6b496740a" x="112.187818" y="204.395135" style="fill: #1f77b4; stroke: #1f77b4"/>
     <use xlink:href="#mb6b496740a" x="115.434364" y="201.898053" style="fill: #1f77b4; stroke: #1f77b4"/>
     <use xlink:href="#mb6b496740a" x="118.680909" y="211.814102" style="fill: #1f77b4; stroke: #1f77b4"/>
     <use xlink:href="#mb6b496740a" x="121.927455" y="207.576692" style="fill: #1f77b4; stroke: #1f77b4"/>
     <use xlink:href="#mb6b496740a" x="125.174" y="212.40047" style="fill: #1f77b4; stroke: #1f77b4"/>
     <use xlink:href="#mb6b496740a" x="128.420545" y="233.235329" style="fill: #1f77b4; stroke: #1f77b4"/>
     <use xlink:href="#mb6b496740a" x="131.667091" y="224.675999" style="fill: #1f77b4; stroke: #1f77b4"/>
     <use xlink:href="#mb6b496740a" x="134.913636" y="250.372165" style="fill: #1f77b4; stroke: #1f77b4"/>
     <use xlink:href="#mb6b496740a" x="138.160182" y="233.126617" style="fill: #1f77b4; stroke: #1f77b4"/>
     <use xlink:href="#mb6b496740a" x="141.406727" y="275.665604" style="fill: #1f77b4; stroke: #1f77b4"/>
     <use xlink:href="#mb6b496740a" x="144.653273" y="260.625144" style="fill: #1f77b4; stroke: #1f77b4"/>
     <use xlink:href="#mb6b496740a" x="147.899818" y="257.699136" style="fill: #1f77b4; stroke: #1f77b4"/>
     <use xlink:href="#mb6b496740a" x="151.146364" y="271.382757" style="fill: #1f77b4; stroke: #1f77b4"/>
     <use xlink:href="#mb6b496740a" x="154.392909" y="247.186229" style="fill: #1f77b4; stroke: #1f77b4"/>
     <use xlink:href="#mb6b496740a" x="157.639455" y="267.380881" style="fill: #1f77b4; stroke: #1f77b4"/>
     <use xlink:href="#mb6b496740a" x="160.886" y="260.704746" style="fill: #1f77b4; stroke: #1f77b4"/>
     <use xlink:href="#mb6b496740a" x="164.132545" y="280.299286" style="fill: #1f77b4; stroke: #1f77b4"/>
     <use xlink:href="#mb6b496740a" x="167.379091" y="274.561861" style="fill: #1f77b4; stroke: #1f77b4"/>
     <use xlink:href="#mb6b496740a" x="170.625636" y="263.777568" style="fill: #1f77b4; stroke: #1f77b4"/>
     <use xlink:href="#mb6b496740a" x="173.872182" y="273.502198" style="fill: #1f77b4; stroke: #1f77b4"/>
     <use xlink:href="#mb6b496740a" x="177.118727" y="264.916049" style="fill: #1f77b4; stroke: #1f77b4"/>
     <use xlink:href="#mb6b496740a" x="180.365273" y="268.284315" style="fill: #1f77b4; stroke: #1f77b4"/>
     <use xlink:href="#mb6b496740a" x="183.611818" y="276.599216" style="fill: #1f77b4; stroke: #1f77b4"/>
     <use xlink:href="#mb6b496740a" x="186.858364" y="263.568497" style="fill: #1f77b4; stroke: #1f77b4"/>
     <use xlink:href="#mb6b496740a" x="190.104909" y="278.827135" style="fill: #1f77b4; stroke: #1f77b4"/>
     <use xlink:href="#mb6b496740a" x="193.351455" y="274.279819" style="fill: #1f77b4; stroke: #1f77b4"/>
     <use xlink:href="#mb6b496740a" x="196.598" y="262.47011" style="fill: #1f77b4; stroke: #1f77b4"/>
     <use xlink:href="#mb6b496740a" x="199.844545" y="260.947699" style="fill: #1f77b4; stroke: #1f77b4"/>
     <use xlink:href="#mb6b496740a" x="203.091091" y="265.625816" style="fill: #1f77b4; stroke: #1f77b4"/>
     <use xlink:href="#mb6b496740a" x="206.337636" y="295.776" style="fill: #1f77b4; stroke: #1f77b4"/>
     <use xlink:href="#mb6b496740a" x="209.584182" y="278.626796" style="fill: #1f77b4; stroke: #1f77b4"/>
     <use xlink:href="#mb6b496740a" x="212.830727" y="262.628876" style="fill: #1f77b4; stroke: #1f77b4"/>
     <use xlink:href="#mb6b496740a" x="216.077273" y="281.757877" style="fill: #1f77b4; stroke: #1f77b4"/>
     <use xlink:href="#mb6b496740a" x="219.323818" y="275.979069" style="fill: #1f77b4; stroke: #1f77b4"/>
     <use xlink:href="#mb6b496740a" x="222.570364" y="270.214102" style="fill: #1f77b4; stroke: #1f77b4"/>
     <use xlink:href="#mb6b496740a" x="225.816909" y="279.871869" style="fill: #1f77b4; stroke: #1f77b4"/>
     <use xlink:href="#mb6b496740a" x="229.063455" y="275.899003" style="fill: #1f77b4; stroke: #1f77b4"/>
     <use xlink:href="#mb6b496740a" x="232.31" y="263.59065" style="fill: #1f77b4; stroke: #1f77b4"/>
     <use xlink:href="#mb6b496740a" x="235.556545" y="287.898645" style="fill: #1f77b4; stroke: #1f77b4"/>
     <use xlink:href="#mb6b496740a" x="238.803091" y="262.306641" style="fill: #1f77b4; stroke: #1f77b4"/>
     <use xlink:href="#mb6b496740a" x="242.049636" y="247.788726" style="fill: #1f77b4; stroke: #1f77b4"/>
     <use xlink:href="#mb6b496740a" x="245.296182" y="263.107631" style="fill: #1f77b4; stroke: #1f77b4"/>
     <use xlink:href="#mb6b496740a" x="248.542727" y="249.944304" style="fill: #1f77b4; stroke: #1f77b4"/>
     <use xlink:href="#mb6b496740a" x="251.789273" y="260.26227" style="fill: #1f77b4; stroke: #1f77b4"/>
     <use xlink:href="#mb6b496740a" x="255.035818" y="265.184076" style="fill: #1f77b4; stroke: #1f77b4"/>
     <use xlink:href="#mb6b496740a" x="258.282364" y="261.635597" style="fill: #1f77b4; stroke: #1f77b4"/>
     <use xlink:href="#mb6b496740a" x="261.528909" y="272.656153" style="fill: #1f77b4; stroke: #1f77b4"/>
     <use xlink:href="#mb6b496740a" x="264.775455" y="254.667388" style="fill: #1f77b4; stroke: #1f77b4"/>
     <use xlink:href="#mb6b496740a" x="268.022" y="259.560657" style="fill: #1f77b4; stroke: #1f77b4"/>
     <use xlink:href="#mb6b496740a" x="271.268545" y="245.762321" style="fill: #1f77b4; stroke: #1f77b4"/>
     <use xlink:href="#mb6b496740a" x="274.515091" y="242.471867" style="fill: #1f77b4; stroke: #1f77b4"/>
     <use xlink:href="#mb6b496740a" x="277.761636" y="259.413114" style="fill: #1f77b4; stroke: #1f77b4"/>
     <use xlink:href="#mb6b496740a" x="281.008182" y="240.003906" style="fill: #1f77b4; stroke: #1f77b4"/>
     <use xlink:href="#mb6b496740a" x="284.254727" y="251.404146" style="fill: #1f77b4; stroke: #1f77b4"/>
     <use xlink:href="#mb6b496740a" x="287.501273" y="258.338844" style="fill: #1f77b4; stroke: #1f77b4"/>
     <use xlink:href="#mb6b496740a" x="290.747818" y="249.170146" style="fill: #1f77b4; stroke: #1f77b4"/>
     <use xlink:href="#mb6b496740a" x="293.994364" y="269.654078" style="fill: #1f77b4; stroke: #1f77b4"/>
     <use xlink:href="#mb6b496740a" x="297.240909" y="265.387425" style="fill: #1f77b4; stroke: #1f77b4"/>
     <use xlink:href="#mb6b496740a" x="300.487455" y="241.979766" style="fill: #1f77b4; stroke: #1f77b4"/>
     <use xlink:href="#mb6b496740a" x="303.734" y="250.318931" style="fill: #1f77b4; stroke: #1f77b4"/>
     <use xlink:href="#mb6b496740a" x="306.980545" y="254.718702" style="fill: #1f77b4; stroke: #1f77b4"/>
     <use xlink:href="#mb6b496740a" x="310.227091" y="254.528896" style="fill: #1f77b4; stroke: #1f77b4"/>
     <use xlink:href="#mb6b496740a" x="313.473636" y="252.761943" style="fill: #1f77b4; stroke: #1f77b4"/>
     <use xlink:href="#mb6b496740a" x="316.720182" y="246.827759" style="fill: #1f77b4; stroke: #1f77b4"/>
     <use xlink:href="#mb6b496740a" x="319.966727" y="250.853932" style="fill: #1f77b4; stroke: #1f77b4"/>
     <use xlink:href="#mb6b496740a" x="323.213273" y="244.102337" style="fill: #1f77b4; stroke: #1f77b4"/>
     <use xlink:href="#mb6b496740a" x="326.459818" y="242.824228" style="fill: #1f77b4; stroke: #1f77b4"/>
     <use xlink:href="#mb6b496740a" x="329.706364" y="238.386132" style="fill: #1f77b4; stroke: #1f77b4"/>
     <use xlink:href="#mb6b496740a" x="332.952909" y="238.941912" style="fill: #1f77b4; stroke: #1f77b4"/>
     <use xlink:href="#mb6b496740a" x="336.199455" y="246.202754" style="fill: #1f77b4; stroke: #1f77b4"/>
     <use xlink:href="#mb6b496740a" x="339.446" y="250.06945" style="fill: #1f77b4; stroke: #1f77b4"/>
     <use xlink:href="#mb6b496740a" x="342.692545" y="246.298744" style="fill: #1f77b4; stroke: #1f77b4"/>
     <use xlink:href="#mb6b496740a" x="345.939091" y="263.882408" style="fill: #1f77b4; stroke: #1f77b4"/>
     <use xlink:href="#mb6b496740a" x="349.185636" y="261.92108" style="fill: #1f77b4; stroke: #1f77b4"/>
     <use xlink:href="#mb6b496740a" x="352.432182" y="238.199558" style="fill: #1f77b4; stroke: #1f77b4"/>
     <use xlink:href="#mb6b496740a" x="355.678727" y="239.066874" style="fill: #1f77b4; stroke: #1f77b4"/>
     <use xlink:href="#mb6b496740a" x="358.925273" y="247.963143" style="fill: #1f77b4; stroke: #1f77b4"/>
     <use xlink:href="#mb6b496740a" x="362.171818" y="229.6001" style="fill: #1f77b4; stroke: #1f77b4"/>
     <use xlink:href="#mb6b496740a" x="365.418364" y="264.110091" style="fill: #1f77b4; stroke: #1f77b4"/>
     <use xlink:href="#mb6b496740a" x="368.664909" y="230.735448" style="fill: #1f77b4; stroke: #1f77b4"/>
     <use xlink:href="#mb6b496740a" x="371.911455" y="242.708413" style="fill: #1f77b4; stroke: #1f77b4"/>
     <use xlink:href="#mb6b496740a" x="375.158" y="232.865734" style="fill: #1f77b4; stroke: #1f77b4"/>
     <use xlink:href="#mb6b496740a" x="378.404545" y="238.092892" style="fill: #1f77b4; stroke: #1f77b4"/>
     <use xlink:href="#mb6b496740a" x="381.651091" y="230.104676" style="fill: #1f77b4; stroke: #1f77b4"/>
     <use xlink:href="#mb6b496740a" x="384.897636" y="217.447683" style="fill: #1f77b4; stroke: #1f77b4"/>
     <use xlink:href="#mb6b496740a" x="388.144182" y="237.655858" style="fill: #1f77b4; stroke: #1f77b4"/>
     <use xlink:href="#mb6b496740a" x="391.390727" y="238.112231" style="fill: #1f77b4; stroke: #1f77b4"/>
     <use xlink:href="#mb6b496740a" x="394.637273" y="229.542081" style="fill: #1f77b4; stroke: #1f77b4"/>
    </g>
   </g>
   <g id="line2d_20">
    <path d="M 69.982727 53.856 
L 75.507379 76.147611 
L 80.382072 94.928359 
L 84.931785 111.641456 
L 89.481499 127.522711 
L 93.706233 141.496774 
L 97.930966 154.708539 
L 101.830721 166.218203 
L 105.730475 177.065816 
L 109.630229 187.252066 
L 113.529984 196.78141 
L 117.104758 204.946206 
L 120.679533 212.573836 
L 124.254308 219.674466 
L 127.829083 226.259938 
L 131.078878 231.810872 
L 134.328673 236.957971 
L 137.578468 241.712921 
L 140.828264 246.088054 
L 144.078059 250.096251 
L 147.327854 253.750842 
L 150.577649 257.065516 
L 153.827445 260.05424 
L 157.07724 262.731176 
L 160.327035 265.110608 
L 163.57683 267.206876 
L 166.826626 269.034314 
L 170.076421 270.60719 
L 173.326216 271.939652 
L 176.576011 273.045686 
L 180.150786 274.017232 
L 183.725561 274.749448 
L 187.300336 275.259901 
L 191.20009 275.583918 
L 195.099844 275.685863 
L 199.324578 275.569722 
L 203.874292 275.209315 
L 208.748984 274.585584 
L 213.948657 273.687651 
L 219.798288 272.43841 
L 226.297879 270.813847 
L 234.097387 268.622563 
L 244.496732 265.447836 
L 274.394848 256.180117 
L 284.469214 253.36561 
L 293.56864 251.048399 
L 302.343088 249.039175 
L 311.117535 247.261665 
L 319.891982 245.717744 
L 328.666429 244.402474 
L 337.765856 243.269021 
L 347.190262 242.325745 
L 356.939648 241.574637 
L 367.338993 240.996517 
L 378.713276 240.590117 
L 391.387477 240.365064 
L 394.637273 240.339535 
L 394.637273 240.339535 
" clip-path="url(#pe794715002)" style="fill: none; stroke: #d62728; stroke-width: 1.5; stroke-linecap: square"/>
   </g>
   <g id="patch_3">
    <path d="M 53.75 307.872 
L 53.75 41.76 
" style="fill: none; stroke: #000000; stroke-width: 0.8; stroke-linejoin: miter; stroke-linecap: square"/>
   </g>
   <g id="patch_4">
    <path d="M 410.87 307.872 
L 410.87 41.76 
" style="fill: none; stroke: #000000; stroke-width: 0.8; stroke-linejoin: miter; stroke-linecap: square"/>
   </g>
   <g id="patch_5">
    <path d="M 53.75 307.872 
L 410.87 307.872 
" style="fill: none; stroke: #000000; stroke-width: 0.8; stroke-linejoin: miter; stroke-linecap: square"/>
   </g>
   <g id="patch_6">
    <path d="M 53.75 41.76 
L 410.87 41.76 
" style="fill: none; stroke: #000000; stroke-width: 0.8; stroke-linejoin: miter; stroke-linecap: square"/>
   </g>
   <g id="text_21">
    <g id="patch_7">
     <path d="M 428.726 138.497163 
L 584.726 138.497163 
Q 588.726 138.497163 588.726 134.497163 
L 588.726 55.0656 
Q 588.726 51.0656 584.726 51.0656 
L 428.726 51.0656 
Q 424.726 51.0656 424.726 55.0656 
L 424.726 134.497163 
Q 424.726 138.497163 428.726 138.497163 
z
" style="fill: #ffffff; opacity: 0.5; stroke: #000000; stroke-linejoin: miter"/>
    </g>
    <!-- Summary -->
    <g transform="translate(428.726 62.664038) scale(0.1 -0.1)">
     <defs>
      <path id="DejaVuSans-53" d="M 3425 4513 
L 3425 3897 
Q 3066 4069 2747 4153 
Q 2428 4238 2131 4238 
Q 1616 4238 1336 4038 
Q 1056 3838 1056 3469 
Q 1056 3159 1242 3001 
Q 1428 2844 1947 2747 
L 2328 2669 
Q 3034 2534 3370 2195 
Q 3706 1856 3706 1288 
Q 3706 609 3251 259 
Q 2797 -91 1919 -91 
Q 1588 -91 1214 -16 
Q 841 59 441 206 
L 441 856 
Q 825 641 1194 531 
Q 1563 422 1919 422 
Q 2459 422 2753 634 
Q 3047 847 3047 1241 
Q 3047 1584 2836 1778 
Q 2625 1972 2144 2069 
L 1759 2144 
Q 1053 2284 737 2584 
Q 422 2884 422 3419 
Q 422 4038 858 4394 
Q 1294 4750 2059 4750 
Q 2388 4750 2728 4690 
Q 3069 4631 3425 4513 
z
" transform="scale(0.015625)"/>
      <path id="DejaVuSans-72" d="M 2631 2963 
Q 2534 3019 2420 3045 
Q 2306 3072 2169 3072 
Q 1681 3072 1420 2755 
Q 1159 2438 1159 1844 
L 1159 0 
L 581 0 
L 581 3500 
L 1159 3500 
L 1159 2956 
Q 1341 3275 1631 3429 
Q 1922 3584 2338 3584 
Q 2397 3584 2469 3576 
Q 2541 3569 2628 3553 
L 2631 2963 
z
" transform="scale(0.015625)"/>
      <path id="DejaVuSans-79" d="M 2059 -325 
Q 1816 -950 1584 -1140 
Q 1353 -1331 966 -1331 
L 506 -1331 
L 506 -850 
L 844 -850 
Q 1081 -850 1212 -737 
Q 1344 -625 1503 -206 
L 1606 56 
L 191 3500 
L 800 3500 
L 1894 763 
L 2988 3500 
L 3597 3500 
L 2059 -325 
z
" transform="scale(0.015625)"/>
     </defs>
     <use xlink:href="#DejaVuSans-53"/>
     <use xlink:href="#DejaVuSans-75" x="63.476562"/>
     <use xlink:href="#DejaVuSans-6d" x="126.855469"/>
     <use xlink:href="#DejaVuSans-6d" x="224.267578"/>
     <use xlink:href="#DejaVuSans-61" x="321.679688"/>
     <use xlink:href="#DejaVuSans-72" x="382.958984"/>
     <use xlink:href="#DejaVuSans-79" x="424.072266"/>
    </g>
    <!-- $T_2^*$: 3.81$\pm$0.22 μs -->
    <g transform="translate(428.726 75.663725) scale(0.1 -0.1)">
     <defs>
      <path id="DejaVuSans-Oblique-54" d="M 378 4666 
L 4325 4666 
L 4225 4134 
L 2559 4134 
L 1759 0 
L 1125 0 
L 1925 4134 
L 275 4134 
L 378 4666 
z
" transform="scale(0.015625)"/>
      <path id="DejaVuSans-2a" d="M 3009 3897 
L 1888 3291 
L 3009 2681 
L 2828 2375 
L 1778 3009 
L 1778 1831 
L 1422 1831 
L 1422 3009 
L 372 2375 
L 191 2681 
L 1313 3291 
L 191 3897 
L 372 4206 
L 1422 3572 
L 1422 4750 
L 1778 4750 
L 1778 3572 
L 2828 4206 
L 3009 3897 
z
" transform="scale(0.015625)"/>
      <path id="DejaVuSans-3a" d="M 750 794 
L 1409 794 
L 1409 0 
L 750 0 
L 750 794 
z
M 750 3309 
L 1409 3309 
L 1409 2516 
L 750 2516 
L 750 3309 
z
" transform="scale(0.015625)"/>
      <path id="DejaVuSans-2e" d="M 684 794 
L 1344 794 
L 1344 0 
L 684 0 
L 684 794 
z
" transform="scale(0.015625)"/>
      <path id="DejaVuSans-b1" d="M 2944 4013 
L 2944 2803 
L 4684 2803 
L 4684 2272 
L 2944 2272 
L 2944 1063 
L 2419 1063 
L 2419 2272 
L 678 2272 
L 678 2803 
L 2419 2803 
L 2419 4013 
L 2944 4013 
z
M 678 531 
L 4684 531 
L 4684 0 
L 678 0 
L 678 531 
z
" transform="scale(0.015625)"/>
     </defs>
     <use xlink:href="#DejaVuSans-Oblique-54" transform="translate(0 0.765625)"/>
     <use xlink:href="#DejaVuSans-2a" transform="translate(81.738451 39.046875) scale(0.7)"/>
     <use xlink:href="#DejaVuSans-32" transform="translate(61.083984 -26.578125) scale(0.7)"/>
     <use xlink:href="#DejaVuSans-3a" transform="translate(133.110521 0.765625)"/>
     <use xlink:href="#DejaVuSans-20" transform="translate(166.801927 0.765625)"/>
     <use xlink:href="#DejaVuSans-33" transform="translate(198.589036 0.765625)"/>
     <use xlink:href="#DejaVuSans-2e" transform="translate(262.212083 0.765625)"/>
     <use xlink:href="#DejaVuSans-38" transform="translate(291.374193 0.765625)"/>
     <use xlink:href="#DejaVuSans-31" transform="translate(354.99724 0.765625)"/>
     <use xlink:href="#DejaVuSans-b1" transform="translate(418.620286 0.765625)"/>
     <use xlink:href="#DejaVuSans-30" transform="translate(502.409349 0.765625)"/>
     <use xlink:href="#DejaVuSans-2e" transform="translate(566.032396 0.765625)"/>
     <use xlink:href="#DejaVuSans-32" transform="translate(592.319505 0.765625)"/>
     <use xlink:href="#DejaVuSans-32" transform="translate(655.942552 0.765625)"/>
     <use xlink:href="#DejaVuSans-20" transform="translate(719.565599 0.765625)"/>
     <use xlink:href="#DejaVuSans-3bc" transform="translate(751.352708 0.765625)"/>
     <use xlink:href="#DejaVuSans-73" transform="translate(814.975755 0.765625)"/>
    </g>
    <!--  -->
    <g transform="translate(428.726 87.58185) scale(0.1 -0.1)"/>
    <!-- artificial detuning: 100 kHz -->
    <g transform="translate(428.726 98.779663) scale(0.1 -0.1)">
     <defs>
      <path id="DejaVuSans-66" d="M 2375 4863 
L 2375 4384 
L 1825 4384 
Q 1516 4384 1395 4259 
Q 1275 4134 1275 3809 
L 1275 3500 
L 2222 3500 
L 2222 3053 
L 1275 3053 
L 1275 0 
L 697 0 
L 697 3053 
L 147 3053 
L 147 3500 
L 697 3500 
L 697 3744 
Q 697 4328 969 4595 
Q 1241 4863 1831 4863 
L 2375 4863 
z
" transform="scale(0.015625)"/>
      <path id="DejaVuSans-63" d="M 3122 3366 
L 3122 2828 
Q 2878 2963 2633 3030 
Q 2388 3097 2138 3097 
Q 1578 3097 1268 2742 
Q 959 2388 959 1747 
Q 959 1106 1268 751 
Q 1578 397 2138 397 
Q 2388 397 2633 464 
Q 2878 531 3122 666 
L 3122 134 
Q 2881 22 2623 -34 
Q 2366 -91 2075 -91 
Q 1284 -91 818 406 
Q 353 903 353 1747 
Q 353 2603 823 3093 
Q 1294 3584 2113 3584 
Q 2378 3584 2631 3529 
Q 2884 3475 3122 3366 
z
" transform="scale(0.015625)"/>
      <path id="DejaVuSans-6c" d="M 603 4863 
L 1178 4863 
L 1178 0 
L 603 0 
L 603 4863 
z
" transform="scale(0.015625)"/>
      <path id="DejaVuSans-6b" d="M 581 4863 
L 1159 4863 
L 1159 1991 
L 2875 3500 
L 3609 3500 
L 1753 1863 
L 3688 0 
L 2938 0 
L 1159 1709 
L 1159 0 
L 581 0 
L 581 4863 
z
" transform="scale(0.015625)"/>
      <path id="DejaVuSans-48" d="M 628 4666 
L 1259 4666 
L 1259 2753 
L 3553 2753 
L 3553 4666 
L 4184 4666 
L 4184 0 
L 3553 0 
L 3553 2222 
L 1259 2222 
L 1259 0 
L 628 0 
L 628 4666 
z
" transform="scale(0.015625)"/>
      <path id="DejaVuSans-7a" d="M 353 3500 
L 3084 3500 
L 3084 2975 
L 922 459 
L 3084 459 
L 3084 0 
L 275 0 
L 275 525 
L 2438 3041 
L 353 3041 
L 353 3500 
z
" transform="scale(0.015625)"/>
     </defs>
     <use xlink:href="#DejaVuSans-61"/>
     <use xlink:href="#DejaVuSans-72" x="61.279297"/>
     <use xlink:href="#DejaVuSans-74" x="102.392578"/>
     <use xlink:href="#DejaVuSans-69" x="141.601562"/>
     <use xlink:href="#DejaVuSans-66" x="169.384766"/>
     <use xlink:href="#DejaVuSans-69" x="204.589844"/>
     <use xlink:href="#DejaVuSans-63" x="232.373047"/>
     <use xlink:href="#DejaVuSans-69" x="287.353516"/>
     <use xlink:href="#DejaVuSans-61" x="315.136719"/>
     <use xlink:href="#DejaVuSans-6c" x="376.416016"/>
     <use xlink:href="#DejaVuSans-20" x="404.199219"/>
     <use xlink:href="#DejaVuSans-64" x="435.986328"/>
     <use xlink:href="#DejaVuSans-65" x="499.462891"/>
     <use xlink:href="#DejaVuSans-74" x="560.986328"/>
     <use xlink:href="#DejaVuSans-75" x="600.195312"/>
     <use xlink:href="#DejaVuSans-6e" x="663.574219"/>
     <use xlink:href="#DejaVuSans-69" x="726.953125"/>
     <use xlink:href="#DejaVuSans-6e" x="754.736328"/>
     <use xlink:href="#DejaVuSans-67" x="818.115234"/>
     <use xlink:href="#DejaVuSans-3a" x="881.591797"/>
     <use xlink:href="#DejaVuSans-20" x="915.283203"/>
     <use xlink:href="#DejaVuSans-31" x="947.070312"/>
     <use xlink:href="#DejaVuSans-30" x="1010.693359"/>
     <use xlink:href="#DejaVuSans-30" x="1074.316406"/>
     <use xlink:href="#DejaVuSans-20" x="1137.939453"/>
     <use xlink:href="#DejaVuSans-6b" x="1169.726562"/>
     <use xlink:href="#DejaVuSans-48" x="1227.636719"/>
     <use xlink:href="#DejaVuSans-7a" x="1302.832031"/>
    </g>
    <!-- fitted detuning: 49.3$\pm$6.8 kHz -->
    <g transform="translate(428.726 109.97935) scale(0.1 -0.1)">
     <defs>
      <path id="DejaVuSans-39" d="M 703 97 
L 703 672 
Q 941 559 1184 500 
Q 1428 441 1663 441 
Q 2288 441 2617 861 
Q 2947 1281 2994 2138 
Q 2813 1869 2534 1725 
Q 2256 1581 1919 1581 
Q 1219 1581 811 2004 
Q 403 2428 403 3163 
Q 403 3881 828 4315 
Q 1253 4750 1959 4750 
Q 2769 4750 3195 4129 
Q 3622 3509 3622 2328 
Q 3622 1225 3098 567 
Q 2575 -91 1691 -91 
Q 1453 -91 1209 -44 
Q 966 3 703 97 
z
M 1959 2075 
Q 2384 2075 2632 2365 
Q 2881 2656 2881 3163 
Q 2881 3666 2632 3958 
Q 2384 4250 1959 4250 
Q 1534 4250 1286 3958 
Q 1038 3666 1038 3163 
Q 1038 2656 1286 2365 
Q 1534 2075 1959 2075 
z
" transform="scale(0.015625)"/>
     </defs>
     <use xlink:href="#DejaVuSans-66" transform="translate(0 0.015625)"/>
     <use xlink:href="#DejaVuSans-69" transform="translate(35.205078 0.015625)"/>
     <use xlink:href="#DejaVuSans-74" transform="translate(62.988281 0.015625)"/>
     <use xlink:href="#DejaVuSans-74" transform="translate(102.197266 0.015625)"/>
     <use xlink:href="#DejaVuSans-65" transform="translate(141.40625 0.015625)"/>
     <use xlink:href="#DejaVuSans-64" transform="translate(202.929688 0.015625)"/>
     <use xlink:href="#DejaVuSans-20" transform="translate(266.40625 0.015625)"/>
     <use xlink:href="#DejaVuSans-64" transform="translate(298.193359 0.015625)"/>
     <use xlink:href="#DejaVuSans-65" transform="translate(361.669922 0.015625)"/>
     <use xlink:href="#DejaVuSans-74" transform="translate(423.193359 0.015625)"/>
     <use xlink:href="#DejaVuSans-75" transform="translate(462.402344 0.015625)"/>
     <use xlink:href="#DejaVuSans-6e" transform="translate(525.78125 0.015625)"/>
     <use xlink:href="#DejaVuSans-69" transform="translate(589.160156 0.015625)"/>
     <use xlink:href="#DejaVuSans-6e" transform="translate(616.943359 0.015625)"/>
     <use xlink:href="#DejaVuSans-67" transform="translate(680.322266 0.015625)"/>
     <use xlink:href="#DejaVuSans-3a" transform="translate(743.798828 0.015625)"/>
     <use xlink:href="#DejaVuSans-20" transform="translate(777.490234 0.015625)"/>
     <use xlink:href="#DejaVuSans-34" transform="translate(809.277344 0.015625)"/>
     <use xlink:href="#DejaVuSans-39" transform="translate(872.900391 0.015625)"/>
     <use xlink:href="#DejaVuSans-2e" transform="translate(936.523438 0.015625)"/>
     <use xlink:href="#DejaVuSans-33" transform="translate(968.310547 0.015625)"/>
     <use xlink:href="#DejaVuSans-b1" transform="translate(1031.933594 0.015625)"/>
     <use xlink:href="#DejaVuSans-36" transform="translate(1115.722656 0.015625)"/>
     <use xlink:href="#DejaVuSans-2e" transform="translate(1179.345703 0.015625)"/>
     <use xlink:href="#DejaVuSans-38" transform="translate(1208.507812 0.015625)"/>
     <use xlink:href="#DejaVuSans-20" transform="translate(1272.130859 0.015625)"/>
     <use xlink:href="#DejaVuSans-6b" transform="translate(1303.917969 0.015625)"/>
     <use xlink:href="#DejaVuSans-48" transform="translate(1361.828125 0.015625)"/>
     <use xlink:href="#DejaVuSans-7a" transform="translate(1437.023438 0.015625)"/>
    </g>
    <!-- actual detuning: -50.7$\pm$6.8 kHz -->
    <g transform="translate(428.726 121.19935) scale(0.1 -0.1)">
     <defs>
      <path id="DejaVuSans-2d" d="M 313 2009 
L 1997 2009 
L 1997 1497 
L 313 1497 
L 313 2009 
z
" transform="scale(0.015625)"/>
      <path id="DejaVuSans-37" d="M 525 4666 
L 3525 4666 
L 3525 4397 
L 1831 0 
L 1172 0 
L 2766 4134 
L 525 4134 
L 525 4666 
z
" transform="scale(0.015625)"/>
     </defs>
     <use xlink:href="#DejaVuSans-61" transform="translate(0 0.015625)"/>
     <use xlink:href="#DejaVuSans-63" transform="translate(61.279297 0.015625)"/>
     <use xlink:href="#DejaVuSans-74" transform="translate(116.259766 0.015625)"/>
     <use xlink:href="#DejaVuSans-75" transform="translate(155.46875 0.015625)"/>
     <use xlink:href="#DejaVuSans-61" transform="translate(218.847656 0.015625)"/>
     <use xlink:href="#DejaVuSans-6c" transform="translate(280.126953 0.015625)"/>
     <use xlink:href="#DejaVuSans-20" transform="translate(307.910156 0.015625)"/>
     <use xlink:href="#DejaVuSans-64" transform="translate(339.697266 0.015625)"/>
     <use xlink:href="#DejaVuSans-65" transform="translate(403.173828 0.015625)"/>
     <use xlink:href="#DejaVuSans-74" transform="translate(464.697266 0.015625)"/>
     <use xlink:href="#DejaVuSans-75" transform="translate(503.90625 0.015625)"/>
     <use xlink:href="#DejaVuSans-6e" transform="translate(567.285156 0.015625)"/>
     <use xlink:href="#DejaVuSans-69" transform="translate(630.664062 0.015625)"/>
     <use xlink:href="#DejaVuSans-6e" transform="translate(658.447266 0.015625)"/>
     <use xlink:href="#DejaVuSans-67" transform="translate(721.826172 0.015625)"/>
     <use xlink:href="#DejaVuSans-3a" transform="translate(785.302734 0.015625)"/>
     <use xlink:href="#DejaVuSans-20" transform="translate(818.994141 0.015625)"/>
     <use xlink:href="#DejaVuSans-2d" transform="translate(850.78125 0.015625)"/>
     <use xlink:href="#DejaVuSans-35" transform="translate(886.865234 0.015625)"/>
     <use xlink:href="#DejaVuSans-30" transform="translate(950.488281 0.015625)"/>
     <use xlink:href="#DejaVuSans-2e" transform="translate(1014.111328 0.015625)"/>
     <use xlink:href="#DejaVuSans-37" transform="translate(1038.148438 0.015625)"/>
     <use xlink:href="#DejaVuSans-b1" transform="translate(1101.771484 0.015625)"/>
     <use xlink:href="#DejaVuSans-36" transform="translate(1185.560547 0.015625)"/>
     <use xlink:href="#DejaVuSans-2e" transform="translate(1249.183594 0.015625)"/>
     <use xlink:href="#DejaVuSans-38" transform="translate(1278.345703 0.015625)"/>
     <use xlink:href="#DejaVuSans-20" transform="translate(1341.96875 0.015625)"/>
     <use xlink:href="#DejaVuSans-6b" transform="translate(1373.755859 0.015625)"/>
     <use xlink:href="#DejaVuSans-48" transform="translate(1431.666016 0.015625)"/>
     <use xlink:href="#DejaVuSans-7a" transform="translate(1506.861328 0.015625)"/>
    </g>
    <!--  -->
    <g transform="translate(428.726 132.417475) scale(0.1 -0.1)"/>
   </g>
  </g>
  <g id="text_22">
   <!--  ramsey -->
   <g transform="translate(202.286563 16.318125) scale(0.12 -0.12)">
    <use xlink:href="#DejaVuSans-20"/>
    <use xlink:href="#DejaVuSans-72" x="31.787109"/>
    <use xlink:href="#DejaVuSans-61" x="72.900391"/>
    <use xlink:href="#DejaVuSans-6d" x="134.179688"/>
    <use xlink:href="#DejaVuSans-73" x="231.591797"/>
    <use xlink:href="#DejaVuSans-65" x="283.691406"/>
    <use xlink:href="#DejaVuSans-79" x="345.214844"/>
   </g>
   <!-- tuid: 20240105-122142-006-508872 -->
   <g transform="translate(116.694688 29.7555) scale(0.12 -0.12)">
    <use xlink:href="#DejaVuSans-74"/>
    <use xlink:href="#DejaVuSans-75" x="39.208984"/>
    <use xlink:href="#DejaVuSans-69" x="102.587891"/>
    <use xlink:href="#DejaVuSans-64" x="130.371094"/>
    <use xlink:href="#DejaVuSans-3a" x="193.847656"/>
    <use xlink:href="#DejaVuSans-20" x="227.539062"/>
    <use xlink:href="#DejaVuSans-32" x="259.326172"/>
    <use xlink:href="#DejaVuSans-30" x="322.949219"/>
    <use xlink:href="#DejaVuSans-32" x="386.572266"/>
    <use xlink:href="#DejaVuSans-34" x="450.195312"/>
    <use xlink:href="#DejaVuSans-30" x="513.818359"/>
    <use xlink:href="#DejaVuSans-31" x="577.441406"/>
    <use xlink:href="#DejaVuSans-30" x="641.064453"/>
    <use xlink:href="#DejaVuSans-35" x="704.6875"/>
    <use xlink:href="#DejaVuSans-2d" x="768.310547"/>
    <use xlink:href="#DejaVuSans-31" x="804.394531"/>
    <use xlink:href="#DejaVuSans-32" x="868.017578"/>
    <use xlink:href="#DejaVuSans-32" x="931.640625"/>
    <use xlink:href="#DejaVuSans-31" x="995.263672"/>
    <use xlink:href="#DejaVuSans-34" x="1058.886719"/>
    <use xlink:href="#DejaVuSans-32" x="1122.509766"/>
    <use xlink:href="#DejaVuSans-2d" x="1186.132812"/>
    <use xlink:href="#DejaVuSans-30" x="1222.216797"/>
    <use xlink:href="#DejaVuSans-30" x="1285.839844"/>
    <use xlink:href="#DejaVuSans-36" x="1349.462891"/>
    <use xlink:href="#DejaVuSans-2d" x="1413.085938"/>
    <use xlink:href="#DejaVuSans-35" x="1449.169922"/>
    <use xlink:href="#DejaVuSans-30" x="1512.792969"/>
    <use xlink:href="#DejaVuSans-38" x="1576.416016"/>
    <use xlink:href="#DejaVuSans-38" x="1640.039062"/>
    <use xlink:href="#DejaVuSans-37" x="1703.662109"/>
    <use xlink:href="#DejaVuSans-32" x="1767.285156"/>
   </g>
  </g>
 </g>
 <defs>
  <clipPath id="pe794715002">
   <rect x="53.75" y="41.76" width="357.12" height="266.112"/>
  </clipPath>
 </defs>
</svg>
