<?xml version="1.0" encoding="utf-8" standalone="no"?>
<!DOCTYPE svg PUBLIC "-//W3C//DTD SVG 1.1//EN"
  "http://www.w3.org/Graphics/SVG/1.1/DTD/svg11.dtd">
<svg xmlns:xlink="http://www.w3.org/1999/xlink" width="647.026pt" height="345.42825pt" viewBox="0 0 647.026 345.42825" xmlns="http://www.w3.org/2000/svg" version="1.1">
 <metadata>
  <rdf:RDF xmlns:dc="http://purl.org/dc/elements/1.1/" xmlns:cc="http://creativecommons.org/ns#" xmlns:rdf="http://www.w3.org/1999/02/22-rdf-syntax-ns#">
   <cc:Work>
    <dc:type rdf:resource="http://purl.org/dc/dcmitype/StillImage"/>
    <dc:date>2024-03-04T15:58:08.333219</dc:date>
    <dc:format>image/svg+xml</dc:format>
    <dc:creator>
     <cc:Agent>
      <dc:title>Matplotlib v3.8.2, https://matplotlib.org/</dc:title>
     </cc:Agent>
    </dc:creator>
   </cc:Work>
  </rdf:RDF>
 </metadata>
 <defs>
  <style type="text/css">*{stroke-linejoin: round; stroke-linecap: butt}</style>
 </defs>
 <g id="figure_1">
  <g id="patch_1">
   <path d="M 0 345.42825 
L 647.026 345.42825 
L 647.026 -0 
L 0 -0 
L 0 345.42825 
z
" style="fill: none; opacity: 0"/>
  </g>
  <g id="axes_1">
   <g id="patch_2">
    <path d="M 46.965625 307.872 
L 404.085625 307.872 
L 404.085625 41.76 
L 46.965625 41.76 
z
" style="fill: #ffffff"/>
   </g>
   <g id="matplotlib.axis_1">
    <g id="xtick_1">
     <g id="line2d_1">
      <defs>
       <path id="m44970d71fa" d="M 0 0 
L 0 3.5 
" style="stroke: #000000; stroke-width: 0.8"/>
      </defs>
      <g>
       <use xlink:href="#m44970d71fa" x="55.041772" y="307.872" style="stroke: #000000; stroke-width: 0.8"/>
      </g>
     </g>
     <g id="text_1">
      <!-- 356 -->
      <g transform="translate(45.498022 322.470438) scale(0.1 -0.1)">
       <defs>
        <path id="DejaVuSans-33" d="M 2597 2516 
Q 3050 2419 3304 2112 
Q 3559 1806 3559 1356 
Q 3559 666 3084 287 
Q 2609 -91 1734 -91 
Q 1441 -91 1130 -33 
Q 819 25 488 141 
L 488 750 
Q 750 597 1062 519 
Q 1375 441 1716 441 
Q 2309 441 2620 675 
Q 2931 909 2931 1356 
Q 2931 1769 2642 2001 
Q 2353 2234 1838 2234 
L 1294 2234 
L 1294 2753 
L 1863 2753 
Q 2328 2753 2575 2939 
Q 2822 3125 2822 3475 
Q 2822 3834 2567 4026 
Q 2313 4219 1838 4219 
Q 1578 4219 1281 4162 
Q 984 4106 628 3988 
L 628 4550 
Q 988 4650 1302 4700 
Q 1616 4750 1894 4750 
Q 2613 4750 3031 4423 
Q 3450 4097 3450 3541 
Q 3450 3153 3228 2886 
Q 3006 2619 2597 2516 
z
" transform="scale(0.015625)"/>
        <path id="DejaVuSans-35" d="M 691 4666 
L 3169 4666 
L 3169 4134 
L 1269 4134 
L 1269 2991 
Q 1406 3038 1543 3061 
Q 1681 3084 1819 3084 
Q 2600 3084 3056 2656 
Q 3513 2228 3513 1497 
Q 3513 744 3044 326 
Q 2575 -91 1722 -91 
Q 1428 -91 1123 -41 
Q 819 9 494 109 
L 494 744 
Q 775 591 1075 516 
Q 1375 441 1709 441 
Q 2250 441 2565 725 
Q 2881 1009 2881 1497 
Q 2881 1984 2565 2268 
Q 2250 2553 1709 2553 
Q 1456 2553 1204 2497 
Q 953 2441 691 2322 
L 691 4666 
z
" transform="scale(0.015625)"/>
        <path id="DejaVuSans-36" d="M 2113 2584 
Q 1688 2584 1439 2293 
Q 1191 2003 1191 1497 
Q 1191 994 1439 701 
Q 1688 409 2113 409 
Q 2538 409 2786 701 
Q 3034 994 3034 1497 
Q 3034 2003 2786 2293 
Q 2538 2584 2113 2584 
z
M 3366 4563 
L 3366 3988 
Q 3128 4100 2886 4159 
Q 2644 4219 2406 4219 
Q 1781 4219 1451 3797 
Q 1122 3375 1075 2522 
Q 1259 2794 1537 2939 
Q 1816 3084 2150 3084 
Q 2853 3084 3261 2657 
Q 3669 2231 3669 1497 
Q 3669 778 3244 343 
Q 2819 -91 2113 -91 
Q 1303 -91 875 529 
Q 447 1150 447 2328 
Q 447 3434 972 4092 
Q 1497 4750 2381 4750 
Q 2619 4750 2861 4703 
Q 3103 4656 3366 4563 
z
" transform="scale(0.015625)"/>
       </defs>
       <use xlink:href="#DejaVuSans-33"/>
       <use xlink:href="#DejaVuSans-35" x="63.623047"/>
       <use xlink:href="#DejaVuSans-36" x="127.246094"/>
      </g>
     </g>
    </g>
    <g id="xtick_2">
     <g id="line2d_2">
      <g>
       <use xlink:href="#m44970d71fa" x="109.150863" y="307.872" style="stroke: #000000; stroke-width: 0.8"/>
      </g>
     </g>
     <g id="text_2">
      <!-- 357 -->
      <g transform="translate(99.607113 322.470438) scale(0.1 -0.1)">
       <defs>
        <path id="DejaVuSans-37" d="M 525 4666 
L 3525 4666 
L 3525 4397 
L 1831 0 
L 1172 0 
L 2766 4134 
L 525 4134 
L 525 4666 
z
" transform="scale(0.015625)"/>
       </defs>
       <use xlink:href="#DejaVuSans-33"/>
       <use xlink:href="#DejaVuSans-35" x="63.623047"/>
       <use xlink:href="#DejaVuSans-37" x="127.246094"/>
      </g>
     </g>
    </g>
    <g id="xtick_3">
     <g id="line2d_3">
      <g>
       <use xlink:href="#m44970d71fa" x="163.259954" y="307.872" style="stroke: #000000; stroke-width: 0.8"/>
      </g>
     </g>
     <g id="text_3">
      <!-- 358 -->
      <g transform="translate(153.716204 322.470438) scale(0.1 -0.1)">
       <defs>
        <path id="DejaVuSans-38" d="M 2034 2216 
Q 1584 2216 1326 1975 
Q 1069 1734 1069 1313 
Q 1069 891 1326 650 
Q 1584 409 2034 409 
Q 2484 409 2743 651 
Q 3003 894 3003 1313 
Q 3003 1734 2745 1975 
Q 2488 2216 2034 2216 
z
M 1403 2484 
Q 997 2584 770 2862 
Q 544 3141 544 3541 
Q 544 4100 942 4425 
Q 1341 4750 2034 4750 
Q 2731 4750 3128 4425 
Q 3525 4100 3525 3541 
Q 3525 3141 3298 2862 
Q 3072 2584 2669 2484 
Q 3125 2378 3379 2068 
Q 3634 1759 3634 1313 
Q 3634 634 3220 271 
Q 2806 -91 2034 -91 
Q 1263 -91 848 271 
Q 434 634 434 1313 
Q 434 1759 690 2068 
Q 947 2378 1403 2484 
z
M 1172 3481 
Q 1172 3119 1398 2916 
Q 1625 2713 2034 2713 
Q 2441 2713 2670 2916 
Q 2900 3119 2900 3481 
Q 2900 3844 2670 4047 
Q 2441 4250 2034 4250 
Q 1625 4250 1398 4047 
Q 1172 3844 1172 3481 
z
" transform="scale(0.015625)"/>
       </defs>
       <use xlink:href="#DejaVuSans-33"/>
       <use xlink:href="#DejaVuSans-35" x="63.623047"/>
       <use xlink:href="#DejaVuSans-38" x="127.246094"/>
      </g>
     </g>
    </g>
    <g id="xtick_4">
     <g id="line2d_4">
      <g>
       <use xlink:href="#m44970d71fa" x="217.369044" y="307.872" style="stroke: #000000; stroke-width: 0.8"/>
      </g>
     </g>
     <g id="text_4">
      <!-- 359 -->
      <g transform="translate(207.825294 322.470438) scale(0.1 -0.1)">
       <defs>
        <path id="DejaVuSans-39" d="M 703 97 
L 703 672 
Q 941 559 1184 500 
Q 1428 441 1663 441 
Q 2288 441 2617 861 
Q 2947 1281 2994 2138 
Q 2813 1869 2534 1725 
Q 2256 1581 1919 1581 
Q 1219 1581 811 2004 
Q 403 2428 403 3163 
Q 403 3881 828 4315 
Q 1253 4750 1959 4750 
Q 2769 4750 3195 4129 
Q 3622 3509 3622 2328 
Q 3622 1225 3098 567 
Q 2575 -91 1691 -91 
Q 1453 -91 1209 -44 
Q 966 3 703 97 
z
M 1959 2075 
Q 2384 2075 2632 2365 
Q 2881 2656 2881 3163 
Q 2881 3666 2632 3958 
Q 2384 4250 1959 4250 
Q 1534 4250 1286 3958 
Q 1038 3666 1038 3163 
Q 1038 2656 1286 2365 
Q 1534 2075 1959 2075 
z
" transform="scale(0.015625)"/>
       </defs>
       <use xlink:href="#DejaVuSans-33"/>
       <use xlink:href="#DejaVuSans-35" x="63.623047"/>
       <use xlink:href="#DejaVuSans-39" x="127.246094"/>
      </g>
     </g>
    </g>
    <g id="xtick_5">
     <g id="line2d_5">
      <g>
       <use xlink:href="#m44970d71fa" x="271.478135" y="307.872" style="stroke: #000000; stroke-width: 0.8"/>
      </g>
     </g>
     <g id="text_5">
      <!-- 360 -->
      <g transform="translate(261.934385 322.470438) scale(0.1 -0.1)">
       <defs>
        <path id="DejaVuSans-30" d="M 2034 4250 
Q 1547 4250 1301 3770 
Q 1056 3291 1056 2328 
Q 1056 1369 1301 889 
Q 1547 409 2034 409 
Q 2525 409 2770 889 
Q 3016 1369 3016 2328 
Q 3016 3291 2770 3770 
Q 2525 4250 2034 4250 
z
M 2034 4750 
Q 2819 4750 3233 4129 
Q 3647 3509 3647 2328 
Q 3647 1150 3233 529 
Q 2819 -91 2034 -91 
Q 1250 -91 836 529 
Q 422 1150 422 2328 
Q 422 3509 836 4129 
Q 1250 4750 2034 4750 
z
" transform="scale(0.015625)"/>
       </defs>
       <use xlink:href="#DejaVuSans-33"/>
       <use xlink:href="#DejaVuSans-36" x="63.623047"/>
       <use xlink:href="#DejaVuSans-30" x="127.246094"/>
      </g>
     </g>
    </g>
    <g id="xtick_6">
     <g id="line2d_6">
      <g>
       <use xlink:href="#m44970d71fa" x="325.587226" y="307.872" style="stroke: #000000; stroke-width: 0.8"/>
      </g>
     </g>
     <g id="text_6">
      <!-- 361 -->
      <g transform="translate(316.043476 322.470438) scale(0.1 -0.1)">
       <defs>
        <path id="DejaVuSans-31" d="M 794 531 
L 1825 531 
L 1825 4091 
L 703 3866 
L 703 4441 
L 1819 4666 
L 2450 4666 
L 2450 531 
L 3481 531 
L 3481 0 
L 794 0 
L 794 531 
z
" transform="scale(0.015625)"/>
       </defs>
       <use xlink:href="#DejaVuSans-33"/>
       <use xlink:href="#DejaVuSans-36" x="63.623047"/>
       <use xlink:href="#DejaVuSans-31" x="127.246094"/>
      </g>
     </g>
    </g>
    <g id="xtick_7">
     <g id="line2d_7">
      <g>
       <use xlink:href="#m44970d71fa" x="379.696317" y="307.872" style="stroke: #000000; stroke-width: 0.8"/>
      </g>
     </g>
     <g id="text_7">
      <!-- 362 -->
      <g transform="translate(370.152567 322.470438) scale(0.1 -0.1)">
       <defs>
        <path id="DejaVuSans-32" d="M 1228 531 
L 3431 531 
L 3431 0 
L 469 0 
L 469 531 
Q 828 903 1448 1529 
Q 2069 2156 2228 2338 
Q 2531 2678 2651 2914 
Q 2772 3150 2772 3378 
Q 2772 3750 2511 3984 
Q 2250 4219 1831 4219 
Q 1534 4219 1204 4116 
Q 875 4013 500 3803 
L 500 4441 
Q 881 4594 1212 4672 
Q 1544 4750 1819 4750 
Q 2544 4750 2975 4387 
Q 3406 4025 3406 3419 
Q 3406 3131 3298 2873 
Q 3191 2616 2906 2266 
Q 2828 2175 2409 1742 
Q 1991 1309 1228 531 
z
" transform="scale(0.015625)"/>
       </defs>
       <use xlink:href="#DejaVuSans-33"/>
       <use xlink:href="#DejaVuSans-36" x="63.623047"/>
       <use xlink:href="#DejaVuSans-32" x="127.246094"/>
      </g>
     </g>
    </g>
    <g id="text_8">
     <!-- Frequency [MHz] -->
     <g transform="translate(183.506875 336.148562) scale(0.1 -0.1)">
      <defs>
       <path id="DejaVuSans-46" d="M 628 4666 
L 3309 4666 
L 3309 4134 
L 1259 4134 
L 1259 2759 
L 3109 2759 
L 3109 2228 
L 1259 2228 
L 1259 0 
L 628 0 
L 628 4666 
z
" transform="scale(0.015625)"/>
       <path id="DejaVuSans-72" d="M 2631 2963 
Q 2534 3019 2420 3045 
Q 2306 3072 2169 3072 
Q 1681 3072 1420 2755 
Q 1159 2438 1159 1844 
L 1159 0 
L 581 0 
L 581 3500 
L 1159 3500 
L 1159 2956 
Q 1341 3275 1631 3429 
Q 1922 3584 2338 3584 
Q 2397 3584 2469 3576 
Q 2541 3569 2628 3553 
L 2631 2963 
z
" transform="scale(0.015625)"/>
       <path id="DejaVuSans-65" d="M 3597 1894 
L 3597 1613 
L 953 1613 
Q 991 1019 1311 708 
Q 1631 397 2203 397 
Q 2534 397 2845 478 
Q 3156 559 3463 722 
L 3463 178 
Q 3153 47 2828 -22 
Q 2503 -91 2169 -91 
Q 1331 -91 842 396 
Q 353 884 353 1716 
Q 353 2575 817 3079 
Q 1281 3584 2069 3584 
Q 2775 3584 3186 3129 
Q 3597 2675 3597 1894 
z
M 3022 2063 
Q 3016 2534 2758 2815 
Q 2500 3097 2075 3097 
Q 1594 3097 1305 2825 
Q 1016 2553 972 2059 
L 3022 2063 
z
" transform="scale(0.015625)"/>
       <path id="DejaVuSans-71" d="M 947 1747 
Q 947 1113 1208 752 
Q 1469 391 1925 391 
Q 2381 391 2643 752 
Q 2906 1113 2906 1747 
Q 2906 2381 2643 2742 
Q 2381 3103 1925 3103 
Q 1469 3103 1208 2742 
Q 947 2381 947 1747 
z
M 2906 525 
Q 2725 213 2448 61 
Q 2172 -91 1784 -91 
Q 1150 -91 751 415 
Q 353 922 353 1747 
Q 353 2572 751 3078 
Q 1150 3584 1784 3584 
Q 2172 3584 2448 3432 
Q 2725 3281 2906 2969 
L 2906 3500 
L 3481 3500 
L 3481 -1331 
L 2906 -1331 
L 2906 525 
z
" transform="scale(0.015625)"/>
       <path id="DejaVuSans-75" d="M 544 1381 
L 544 3500 
L 1119 3500 
L 1119 1403 
Q 1119 906 1312 657 
Q 1506 409 1894 409 
Q 2359 409 2629 706 
Q 2900 1003 2900 1516 
L 2900 3500 
L 3475 3500 
L 3475 0 
L 2900 0 
L 2900 538 
Q 2691 219 2414 64 
Q 2138 -91 1772 -91 
Q 1169 -91 856 284 
Q 544 659 544 1381 
z
M 1991 3584 
L 1991 3584 
z
" transform="scale(0.015625)"/>
       <path id="DejaVuSans-6e" d="M 3513 2113 
L 3513 0 
L 2938 0 
L 2938 2094 
Q 2938 2591 2744 2837 
Q 2550 3084 2163 3084 
Q 1697 3084 1428 2787 
Q 1159 2491 1159 1978 
L 1159 0 
L 581 0 
L 581 3500 
L 1159 3500 
L 1159 2956 
Q 1366 3272 1645 3428 
Q 1925 3584 2291 3584 
Q 2894 3584 3203 3211 
Q 3513 2838 3513 2113 
z
" transform="scale(0.015625)"/>
       <path id="DejaVuSans-63" d="M 3122 3366 
L 3122 2828 
Q 2878 2963 2633 3030 
Q 2388 3097 2138 3097 
Q 1578 3097 1268 2742 
Q 959 2388 959 1747 
Q 959 1106 1268 751 
Q 1578 397 2138 397 
Q 2388 397 2633 464 
Q 2878 531 3122 666 
L 3122 134 
Q 2881 22 2623 -34 
Q 2366 -91 2075 -91 
Q 1284 -91 818 406 
Q 353 903 353 1747 
Q 353 2603 823 3093 
Q 1294 3584 2113 3584 
Q 2378 3584 2631 3529 
Q 2884 3475 3122 3366 
z
" transform="scale(0.015625)"/>
       <path id="DejaVuSans-79" d="M 2059 -325 
Q 1816 -950 1584 -1140 
Q 1353 -1331 966 -1331 
L 506 -1331 
L 506 -850 
L 844 -850 
Q 1081 -850 1212 -737 
Q 1344 -625 1503 -206 
L 1606 56 
L 191 3500 
L 800 3500 
L 1894 763 
L 2988 3500 
L 3597 3500 
L 2059 -325 
z
" transform="scale(0.015625)"/>
       <path id="DejaVuSans-20" transform="scale(0.015625)"/>
       <path id="DejaVuSans-5b" d="M 550 4863 
L 1875 4863 
L 1875 4416 
L 1125 4416 
L 1125 -397 
L 1875 -397 
L 1875 -844 
L 550 -844 
L 550 4863 
z
" transform="scale(0.015625)"/>
       <path id="DejaVuSans-4d" d="M 628 4666 
L 1569 4666 
L 2759 1491 
L 3956 4666 
L 4897 4666 
L 4897 0 
L 4281 0 
L 4281 4097 
L 3078 897 
L 2444 897 
L 1241 4097 
L 1241 0 
L 628 0 
L 628 4666 
z
" transform="scale(0.015625)"/>
       <path id="DejaVuSans-48" d="M 628 4666 
L 1259 4666 
L 1259 2753 
L 3553 2753 
L 3553 4666 
L 4184 4666 
L 4184 0 
L 3553 0 
L 3553 2222 
L 1259 2222 
L 1259 0 
L 628 0 
L 628 4666 
z
" transform="scale(0.015625)"/>
       <path id="DejaVuSans-7a" d="M 353 3500 
L 3084 3500 
L 3084 2975 
L 922 459 
L 3084 459 
L 3084 0 
L 275 0 
L 275 525 
L 2438 3041 
L 353 3041 
L 353 3500 
z
" transform="scale(0.015625)"/>
       <path id="DejaVuSans-5d" d="M 1947 4863 
L 1947 -844 
L 622 -844 
L 622 -397 
L 1369 -397 
L 1369 4416 
L 622 4416 
L 622 4863 
L 1947 4863 
z
" transform="scale(0.015625)"/>
      </defs>
      <use xlink:href="#DejaVuSans-46"/>
      <use xlink:href="#DejaVuSans-72" x="50.269531"/>
      <use xlink:href="#DejaVuSans-65" x="89.132812"/>
      <use xlink:href="#DejaVuSans-71" x="150.65625"/>
      <use xlink:href="#DejaVuSans-75" x="214.132812"/>
      <use xlink:href="#DejaVuSans-65" x="277.511719"/>
      <use xlink:href="#DejaVuSans-6e" x="339.035156"/>
      <use xlink:href="#DejaVuSans-63" x="402.414062"/>
      <use xlink:href="#DejaVuSans-79" x="457.394531"/>
      <use xlink:href="#DejaVuSans-20" x="516.574219"/>
      <use xlink:href="#DejaVuSans-5b" x="548.361328"/>
      <use xlink:href="#DejaVuSans-4d" x="587.375"/>
      <use xlink:href="#DejaVuSans-48" x="673.654297"/>
      <use xlink:href="#DejaVuSans-7a" x="748.849609"/>
      <use xlink:href="#DejaVuSans-5d" x="801.339844"/>
     </g>
    </g>
    <g id="text_9">
     <!-- +5 GHz -->
     <g transform="translate(365.648125 335.148562) scale(0.1 -0.1)">
      <defs>
       <path id="DejaVuSans-2b" d="M 2944 4013 
L 2944 2272 
L 4684 2272 
L 4684 1741 
L 2944 1741 
L 2944 0 
L 2419 0 
L 2419 1741 
L 678 1741 
L 678 2272 
L 2419 2272 
L 2419 4013 
L 2944 4013 
z
" transform="scale(0.015625)"/>
       <path id="DejaVuSans-47" d="M 3809 666 
L 3809 1919 
L 2778 1919 
L 2778 2438 
L 4434 2438 
L 4434 434 
Q 4069 175 3628 42 
Q 3188 -91 2688 -91 
Q 1594 -91 976 548 
Q 359 1188 359 2328 
Q 359 3472 976 4111 
Q 1594 4750 2688 4750 
Q 3144 4750 3555 4637 
Q 3966 4525 4313 4306 
L 4313 3634 
Q 3963 3931 3569 4081 
Q 3175 4231 2741 4231 
Q 1884 4231 1454 3753 
Q 1025 3275 1025 2328 
Q 1025 1384 1454 906 
Q 1884 428 2741 428 
Q 3075 428 3337 486 
Q 3600 544 3809 666 
z
" transform="scale(0.015625)"/>
      </defs>
      <use xlink:href="#DejaVuSans-2b"/>
      <use xlink:href="#DejaVuSans-35" x="83.789062"/>
      <use xlink:href="#DejaVuSans-20" x="147.412109"/>
      <use xlink:href="#DejaVuSans-47" x="179.199219"/>
      <use xlink:href="#DejaVuSans-48" x="256.689453"/>
      <use xlink:href="#DejaVuSans-7a" x="331.884766"/>
     </g>
    </g>
   </g>
   <g id="matplotlib.axis_2">
    <g id="ytick_1">
     <g id="line2d_8">
      <defs>
       <path id="m274b0c6ebf" d="M 0 0 
L -3.5 0 
" style="stroke: #000000; stroke-width: 0.8"/>
      </defs>
      <g>
       <use xlink:href="#m274b0c6ebf" x="46.965625" y="300.45938" style="stroke: #000000; stroke-width: 0.8"/>
      </g>
     </g>
     <g id="text_10">
      <!-- 20 -->
      <g transform="translate(27.240625 304.258598) scale(0.1 -0.1)">
       <use xlink:href="#DejaVuSans-32"/>
       <use xlink:href="#DejaVuSans-30" x="63.623047"/>
      </g>
     </g>
    </g>
    <g id="ytick_2">
     <g id="line2d_9">
      <g>
       <use xlink:href="#m274b0c6ebf" x="46.965625" y="254.760039" style="stroke: #000000; stroke-width: 0.8"/>
      </g>
     </g>
     <g id="text_11">
      <!-- 40 -->
      <g transform="translate(27.240625 258.559258) scale(0.1 -0.1)">
       <defs>
        <path id="DejaVuSans-34" d="M 2419 4116 
L 825 1625 
L 2419 1625 
L 2419 4116 
z
M 2253 4666 
L 3047 4666 
L 3047 1625 
L 3713 1625 
L 3713 1100 
L 3047 1100 
L 3047 0 
L 2419 0 
L 2419 1100 
L 313 1100 
L 313 1709 
L 2253 4666 
z
" transform="scale(0.015625)"/>
       </defs>
       <use xlink:href="#DejaVuSans-34"/>
       <use xlink:href="#DejaVuSans-30" x="63.623047"/>
      </g>
     </g>
    </g>
    <g id="ytick_3">
     <g id="line2d_10">
      <g>
       <use xlink:href="#m274b0c6ebf" x="46.965625" y="209.060699" style="stroke: #000000; stroke-width: 0.8"/>
      </g>
     </g>
     <g id="text_12">
      <!-- 60 -->
      <g transform="translate(27.240625 212.859918) scale(0.1 -0.1)">
       <use xlink:href="#DejaVuSans-36"/>
       <use xlink:href="#DejaVuSans-30" x="63.623047"/>
      </g>
     </g>
    </g>
    <g id="ytick_4">
     <g id="line2d_11">
      <g>
       <use xlink:href="#m274b0c6ebf" x="46.965625" y="163.361359" style="stroke: #000000; stroke-width: 0.8"/>
      </g>
     </g>
     <g id="text_13">
      <!-- 80 -->
      <g transform="translate(27.240625 167.160577) scale(0.1 -0.1)">
       <use xlink:href="#DejaVuSans-38"/>
       <use xlink:href="#DejaVuSans-30" x="63.623047"/>
      </g>
     </g>
    </g>
    <g id="ytick_5">
     <g id="line2d_12">
      <g>
       <use xlink:href="#m274b0c6ebf" x="46.965625" y="117.662018" style="stroke: #000000; stroke-width: 0.8"/>
      </g>
     </g>
     <g id="text_14">
      <!-- 100 -->
      <g transform="translate(20.878125 121.461237) scale(0.1 -0.1)">
       <use xlink:href="#DejaVuSans-31"/>
       <use xlink:href="#DejaVuSans-30" x="63.623047"/>
       <use xlink:href="#DejaVuSans-30" x="127.246094"/>
      </g>
     </g>
    </g>
    <g id="ytick_6">
     <g id="line2d_13">
      <g>
       <use xlink:href="#m274b0c6ebf" x="46.965625" y="71.962678" style="stroke: #000000; stroke-width: 0.8"/>
      </g>
     </g>
     <g id="text_15">
      <!-- 120 -->
      <g transform="translate(20.878125 75.761897) scale(0.1 -0.1)">
       <use xlink:href="#DejaVuSans-31"/>
       <use xlink:href="#DejaVuSans-32" x="63.623047"/>
       <use xlink:href="#DejaVuSans-30" x="127.246094"/>
      </g>
     </g>
    </g>
    <g id="text_16">
     <!-- Phase0 [deg] -->
     <g transform="translate(14.798438 207.841781) rotate(-90) scale(0.1 -0.1)">
      <defs>
       <path id="DejaVuSans-50" d="M 1259 4147 
L 1259 2394 
L 2053 2394 
Q 2494 2394 2734 2622 
Q 2975 2850 2975 3272 
Q 2975 3691 2734 3919 
Q 2494 4147 2053 4147 
L 1259 4147 
z
M 628 4666 
L 2053 4666 
Q 2838 4666 3239 4311 
Q 3641 3956 3641 3272 
Q 3641 2581 3239 2228 
Q 2838 1875 2053 1875 
L 1259 1875 
L 1259 0 
L 628 0 
L 628 4666 
z
" transform="scale(0.015625)"/>
       <path id="DejaVuSans-68" d="M 3513 2113 
L 3513 0 
L 2938 0 
L 2938 2094 
Q 2938 2591 2744 2837 
Q 2550 3084 2163 3084 
Q 1697 3084 1428 2787 
Q 1159 2491 1159 1978 
L 1159 0 
L 581 0 
L 581 4863 
L 1159 4863 
L 1159 2956 
Q 1366 3272 1645 3428 
Q 1925 3584 2291 3584 
Q 2894 3584 3203 3211 
Q 3513 2838 3513 2113 
z
" transform="scale(0.015625)"/>
       <path id="DejaVuSans-61" d="M 2194 1759 
Q 1497 1759 1228 1600 
Q 959 1441 959 1056 
Q 959 750 1161 570 
Q 1363 391 1709 391 
Q 2188 391 2477 730 
Q 2766 1069 2766 1631 
L 2766 1759 
L 2194 1759 
z
M 3341 1997 
L 3341 0 
L 2766 0 
L 2766 531 
Q 2569 213 2275 61 
Q 1981 -91 1556 -91 
Q 1019 -91 701 211 
Q 384 513 384 1019 
Q 384 1609 779 1909 
Q 1175 2209 1959 2209 
L 2766 2209 
L 2766 2266 
Q 2766 2663 2505 2880 
Q 2244 3097 1772 3097 
Q 1472 3097 1187 3025 
Q 903 2953 641 2809 
L 641 3341 
Q 956 3463 1253 3523 
Q 1550 3584 1831 3584 
Q 2591 3584 2966 3190 
Q 3341 2797 3341 1997 
z
" transform="scale(0.015625)"/>
       <path id="DejaVuSans-73" d="M 2834 3397 
L 2834 2853 
Q 2591 2978 2328 3040 
Q 2066 3103 1784 3103 
Q 1356 3103 1142 2972 
Q 928 2841 928 2578 
Q 928 2378 1081 2264 
Q 1234 2150 1697 2047 
L 1894 2003 
Q 2506 1872 2764 1633 
Q 3022 1394 3022 966 
Q 3022 478 2636 193 
Q 2250 -91 1575 -91 
Q 1294 -91 989 -36 
Q 684 19 347 128 
L 347 722 
Q 666 556 975 473 
Q 1284 391 1588 391 
Q 1994 391 2212 530 
Q 2431 669 2431 922 
Q 2431 1156 2273 1281 
Q 2116 1406 1581 1522 
L 1381 1569 
Q 847 1681 609 1914 
Q 372 2147 372 2553 
Q 372 3047 722 3315 
Q 1072 3584 1716 3584 
Q 2034 3584 2315 3537 
Q 2597 3491 2834 3397 
z
" transform="scale(0.015625)"/>
       <path id="DejaVuSans-64" d="M 2906 2969 
L 2906 4863 
L 3481 4863 
L 3481 0 
L 2906 0 
L 2906 525 
Q 2725 213 2448 61 
Q 2172 -91 1784 -91 
Q 1150 -91 751 415 
Q 353 922 353 1747 
Q 353 2572 751 3078 
Q 1150 3584 1784 3584 
Q 2172 3584 2448 3432 
Q 2725 3281 2906 2969 
z
M 947 1747 
Q 947 1113 1208 752 
Q 1469 391 1925 391 
Q 2381 391 2643 752 
Q 2906 1113 2906 1747 
Q 2906 2381 2643 2742 
Q 2381 3103 1925 3103 
Q 1469 3103 1208 2742 
Q 947 2381 947 1747 
z
" transform="scale(0.015625)"/>
       <path id="DejaVuSans-67" d="M 2906 1791 
Q 2906 2416 2648 2759 
Q 2391 3103 1925 3103 
Q 1463 3103 1205 2759 
Q 947 2416 947 1791 
Q 947 1169 1205 825 
Q 1463 481 1925 481 
Q 2391 481 2648 825 
Q 2906 1169 2906 1791 
z
M 3481 434 
Q 3481 -459 3084 -895 
Q 2688 -1331 1869 -1331 
Q 1566 -1331 1297 -1286 
Q 1028 -1241 775 -1147 
L 775 -588 
Q 1028 -725 1275 -790 
Q 1522 -856 1778 -856 
Q 2344 -856 2625 -561 
Q 2906 -266 2906 331 
L 2906 616 
Q 2728 306 2450 153 
Q 2172 0 1784 0 
Q 1141 0 747 490 
Q 353 981 353 1791 
Q 353 2603 747 3093 
Q 1141 3584 1784 3584 
Q 2172 3584 2450 3431 
Q 2728 3278 2906 2969 
L 2906 3500 
L 3481 3500 
L 3481 434 
z
" transform="scale(0.015625)"/>
      </defs>
      <use xlink:href="#DejaVuSans-50"/>
      <use xlink:href="#DejaVuSans-68" x="60.302734"/>
      <use xlink:href="#DejaVuSans-61" x="123.681641"/>
      <use xlink:href="#DejaVuSans-73" x="184.960938"/>
      <use xlink:href="#DejaVuSans-65" x="237.060547"/>
      <use xlink:href="#DejaVuSans-30" x="298.583984"/>
      <use xlink:href="#DejaVuSans-20" x="362.207031"/>
      <use xlink:href="#DejaVuSans-5b" x="393.994141"/>
      <use xlink:href="#DejaVuSans-64" x="433.007812"/>
      <use xlink:href="#DejaVuSans-65" x="496.484375"/>
      <use xlink:href="#DejaVuSans-67" x="558.007812"/>
      <use xlink:href="#DejaVuSans-5d" x="621.484375"/>
     </g>
    </g>
   </g>
   <g id="line2d_14">
    <path d="M 63.198352 62.212565 
L 74.393337 64.555254 
L 85.588321 67.93313 
L 96.783305 75.325097 
L 107.97829 79.859333 
L 119.173274 83.141303 
L 130.368258 94.366169 
L 141.563243 99.668073 
L 152.758227 106.043111 
L 163.953211 122.468341 
L 175.148196 133.331522 
L 186.34318 148.068832 
L 197.538164 164.663927 
L 208.733149 196.61072 
L 219.928133 231.623508 
L 231.123117 269.763873 
L 242.318101 294.857977 
L 253.513086 176.943531 
L 264.70807 81.036294 
L 275.903054 82.663343 
L 287.098039 85.932523 
L 298.293023 96.907768 
L 309.488007 106.697496 
L 320.682992 114.78471 
L 331.877976 114.224692 
L 343.07296 123.46569 
L 354.267945 124.132921 
L 365.462929 137.324472 
L 376.657913 138.135479 
L 387.852898 150.488155 
" clip-path="url(#pa83a741e32)" style="fill: none; stroke: #440154; stroke-width: 1.5; stroke-linecap: square"/>
   </g>
   <g id="line2d_15">
    <path d="M 63.198352 55.993876 
L 74.393337 63.126905 
L 85.588321 66.744278 
L 96.783305 75.807846 
L 107.97829 81.226345 
L 119.173274 89.307772 
L 130.368258 96.22967 
L 141.563243 104.875426 
L 152.758227 111.23105 
L 163.953211 121.05309 
L 175.148196 133.562308 
L 186.34318 144.325196 
L 197.538164 166.436931 
L 208.733149 194.904076 
L 219.928133 232.129833 
L 231.123117 264.646229 
L 242.318101 295.776 
L 253.513086 184.229295 
L 264.70807 92.907634 
L 275.903054 80.546244 
L 287.098039 89.289111 
L 298.293023 101.130886 
L 309.488007 98.556104 
L 320.682992 114.614852 
L 331.877976 119.422537 
L 343.07296 123.055 
L 354.267945 126.646582 
L 365.462929 139.200984 
L 376.657913 141.112701 
L 387.852898 144.91224 
" clip-path="url(#pa83a741e32)" style="fill: none; stroke: #470d60; stroke-width: 1.5; stroke-linecap: square"/>
   </g>
   <g id="line2d_16">
    <path d="M 63.198352 53.856 
L 74.393337 57.503229 
L 85.588321 68.520036 
L 96.783305 71.234107 
L 107.97829 79.44344 
L 119.173274 85.586238 
L 130.368258 92.292323 
L 141.563243 102.841649 
L 152.758227 110.318684 
L 163.953211 117.119971 
L 175.148196 130.170515 
L 186.34318 150.540557 
L 197.538164 168.450452 
L 208.733149 193.372575 
L 219.928133 228.233412 
L 231.123117 267.401165 
L 242.318101 283.817171 
L 253.513086 184.117635 
L 264.70807 98.982279 
L 275.903054 88.012207 
L 287.098039 82.67906 
L 298.293023 96.2738 
L 309.488007 99.457721 
L 320.682992 105.291143 
L 331.877976 113.642845 
L 343.07296 126.222329 
L 354.267945 125.369536 
L 365.462929 134.598695 
L 376.657913 139.571336 
L 387.852898 146.947764 
" clip-path="url(#pa83a741e32)" style="fill: none; stroke: #481a6c; stroke-width: 1.5; stroke-linecap: square"/>
   </g>
   <g id="line2d_17">
    <path d="M 63.198352 57.193488 
L 74.393337 65.160749 
L 85.588321 68.232285 
L 96.783305 73.967572 
L 107.97829 77.335893 
L 119.173274 87.803369 
L 130.368258 94.194834 
L 141.563243 101.601333 
L 152.758227 108.380175 
L 163.953211 118.888634 
L 175.148196 134.731696 
L 186.34318 145.613859 
L 197.538164 167.137615 
L 208.733149 197.28441 
L 219.928133 235.248694 
L 231.123117 271.220226 
L 242.318101 276.74773 
L 253.513086 166.387984 
L 264.70807 90.858876 
L 275.903054 88.889454 
L 287.098039 88.344238 
L 298.293023 98.124843 
L 309.488007 98.192908 
L 320.682992 110.043122 
L 331.877976 120.41407 
L 343.07296 120.016347 
L 354.267945 127.983419 
L 365.462929 132.160899 
L 376.657913 142.647039 
L 387.852898 143.350271 
" clip-path="url(#pa83a741e32)" style="fill: none; stroke: #482576; stroke-width: 1.5; stroke-linecap: square"/>
   </g>
   <g id="line2d_18">
    <path d="M 63.198352 59.366816 
L 74.393337 62.006499 
L 85.588321 67.641917 
L 96.783305 72.34219 
L 107.97829 81.370559 
L 119.173274 86.782245 
L 130.368258 93.233178 
L 141.563243 98.514675 
L 152.758227 109.000015 
L 163.953211 119.238878 
L 175.148196 133.365711 
L 186.34318 145.497319 
L 197.538164 164.654762 
L 208.733149 197.927323 
L 219.928133 232.60888 
L 231.123117 267.725719 
L 242.318101 279.600834 
L 253.513086 181.596418 
L 264.70807 88.657742 
L 275.903054 87.380127 
L 287.098039 88.79474 
L 298.293023 97.070645 
L 309.488007 102.003015 
L 320.682992 107.578341 
L 331.877976 110.918117 
L 343.07296 121.16785 
L 354.267945 127.130347 
L 365.462929 135.622166 
L 376.657913 141.383274 
L 387.852898 145.882902 
" clip-path="url(#pa83a741e32)" style="fill: none; stroke: #46307e; stroke-width: 1.5; stroke-linecap: square"/>
   </g>
   <g id="line2d_19">
    <path d="M 63.198352 56.240025 
L 74.393337 65.965968 
L 85.588321 67.062419 
L 96.783305 75.924209 
L 107.97829 81.043515 
L 119.173274 86.388337 
L 130.368258 92.906726 
L 141.563243 101.08454 
L 152.758227 108.616936 
L 163.953211 119.198001 
L 175.148196 130.109078 
L 186.34318 149.471956 
L 197.538164 167.833152 
L 208.733149 191.901272 
L 219.928133 231.104268 
L 231.123117 263.458663 
L 242.318101 280.191281 
L 253.513086 187.430533 
L 264.70807 93.735737 
L 275.903054 79.181363 
L 287.098039 89.174032 
L 298.293023 95.005439 
L 309.488007 105.50513 
L 320.682992 108.407979 
L 331.877976 116.84416 
L 343.07296 124.471803 
L 354.267945 129.473797 
L 365.462929 133.508005 
L 376.657913 141.436821 
L 387.852898 150.638854 
" clip-path="url(#pa83a741e32)" style="fill: none; stroke: #443b84; stroke-width: 1.5; stroke-linecap: square"/>
   </g>
   <g id="line2d_20">
    <path d="M 63.198352 56.327791 
L 74.393337 63.436087 
L 85.588321 69.682135 
L 96.783305 72.823937 
L 107.97829 80.460862 
L 119.173274 86.351862 
L 130.368258 94.75491 
L 141.563243 103.356791 
L 152.758227 108.924095 
L 163.953211 119.894925 
L 175.148196 133.073352 
L 186.34318 148.928993 
L 197.538164 167.480346 
L 208.733149 197.341035 
L 219.928133 231.018387 
L 231.123117 267.66138 
L 242.318101 279.583903 
L 253.513086 165.822295 
L 264.70807 93.601262 
L 275.903054 81.312275 
L 287.098039 86.870326 
L 298.293023 93.997827 
L 309.488007 105.652316 
L 320.682992 109.807609 
L 331.877976 117.005269 
L 343.07296 123.375735 
L 354.267945 126.416806 
L 365.462929 134.585961 
L 376.657913 141.855918 
L 387.852898 148.388466 
" clip-path="url(#pa83a741e32)" style="fill: none; stroke: #404588; stroke-width: 1.5; stroke-linecap: square"/>
   </g>
   <g id="line2d_21">
    <path d="M 63.198352 58.115643 
L 74.393337 61.114075 
L 85.588321 69.523871 
L 96.783305 73.828359 
L 107.97829 78.171172 
L 119.173274 87.329179 
L 130.368258 94.31659 
L 141.563243 99.965882 
L 152.758227 108.454512 
L 163.953211 119.162363 
L 175.148196 130.910073 
L 186.34318 147.564702 
L 197.538164 167.825677 
L 208.733149 197.987499 
L 219.928133 235.301712 
L 231.123117 266.201646 
L 242.318101 285.854807 
L 253.513086 179.788071 
L 264.70807 90.071398 
L 275.903054 86.926059 
L 287.098039 85.43834 
L 298.293023 97.156244 
L 309.488007 100.496234 
L 320.682992 111.871596 
L 331.877976 121.029402 
L 343.07296 122.468663 
L 354.267945 127.682478 
L 365.462929 134.799347 
L 376.657913 140.635911 
L 387.852898 146.168127 
" clip-path="url(#pa83a741e32)" style="fill: none; stroke: #3c4f8a; stroke-width: 1.5; stroke-linecap: square"/>
   </g>
   <g id="line2d_22">
    <path d="M 63.198352 57.906854 
L 74.393337 63.577248 
L 85.588321 68.658873 
L 96.783305 76.491852 
L 107.97829 79.02224 
L 119.173274 87.502504 
L 130.368258 92.978565 
L 141.563243 99.588166 
L 152.758227 111.290777 
L 163.953211 120.563492 
L 175.148196 131.810728 
L 186.34318 147.684719 
L 197.538164 166.738178 
L 208.733149 196.714454 
L 219.928133 235.217127 
L 231.123117 268.381361 
L 242.318101 282.072835 
L 253.513086 184.064144 
L 264.70807 94.887586 
L 275.903054 82.705285 
L 287.098039 87.319578 
L 298.293023 94.043347 
L 309.488007 100.341667 
L 320.682992 109.242149 
L 331.877976 118.73582 
L 343.07296 123.188888 
L 354.267945 128.641575 
L 365.462929 132.953436 
L 376.657913 142.030139 
L 387.852898 144.534283 
" clip-path="url(#pa83a741e32)" style="fill: none; stroke: #38598c; stroke-width: 1.5; stroke-linecap: square"/>
   </g>
   <g id="line2d_23">
    <path d="M 63.198352 56.901754 
L 74.393337 63.086109 
L 85.588321 68.514019 
L 96.783305 72.884494 
L 107.97829 78.900226 
L 119.173274 87.39854 
L 130.368258 93.190164 
L 141.563243 102.153123 
L 152.758227 109.329355 
L 163.953211 118.904827 
L 175.148196 130.748978 
L 186.34318 147.736399 
L 197.538164 167.679357 
L 208.733149 195.420972 
L 219.928133 232.472553 
L 231.123117 269.279298 
L 242.318101 283.679751 
L 253.513086 175.01636 
L 264.70807 88.257082 
L 275.903054 80.11695 
L 287.098039 91.726853 
L 298.293023 95.753152 
L 309.488007 103.514228 
L 320.682992 108.420795 
L 331.877976 111.241058 
L 343.07296 125.150212 
L 354.267945 128.368534 
L 365.462929 139.222769 
L 376.657913 141.016644 
L 387.852898 148.125363 
" clip-path="url(#pa83a741e32)" style="fill: none; stroke: #33628d; stroke-width: 1.5; stroke-linecap: square"/>
   </g>
   <g id="line2d_24">
    <path d="M 63.198352 56.703988 
L 74.393337 63.369517 
L 85.588321 68.214911 
L 96.783305 73.804179 
L 107.97829 80.270209 
L 119.173274 87.063676 
L 130.368258 94.187868 
L 141.563243 102.236723 
L 152.758227 109.480609 
L 163.953211 121.056835 
L 175.148196 131.11977 
L 186.34318 147.083281 
L 197.538164 168.000748 
L 208.733149 197.455356 
L 219.928133 234.091729 
L 231.123117 267.494263 
L 242.318101 281.130455 
L 253.513086 150.565631 
L 264.70807 79.178131 
L 275.903054 82.016633 
L 287.098039 88.920706 
L 298.293023 94.238793 
L 309.488007 102.863761 
L 320.682992 110.476562 
L 331.877976 116.19917 
L 343.07296 121.342791 
L 354.267945 127.909603 
L 365.462929 136.614281 
L 376.657913 137.666797 
L 387.852898 145.720566 
" clip-path="url(#pa83a741e32)" style="fill: none; stroke: #2f6b8e; stroke-width: 1.5; stroke-linecap: square"/>
   </g>
   <g id="line2d_25">
    <path d="M 63.198352 55.556896 
L 74.393337 62.526735 
L 85.588321 69.069507 
L 96.783305 74.794612 
L 107.97829 80.16838 
L 119.173274 86.371491 
L 130.368258 92.192708 
L 141.563243 100.900844 
L 152.758227 110.551257 
L 163.953211 119.376045 
L 175.148196 131.569642 
L 186.34318 148.656078 
L 197.538164 168.168599 
L 208.733149 199.629553 
L 219.928133 236.756967 
L 231.123117 268.367859 
L 242.318101 279.734917 
L 253.513086 189.145986 
L 264.70807 87.400143 
L 275.903054 78.741444 
L 287.098039 88.916936 
L 298.293023 95.488403 
L 309.488007 106.235304 
L 320.682992 109.793303 
L 331.877976 116.484303 
L 343.07296 124.337306 
L 354.267945 130.422185 
L 365.462929 134.59615 
L 376.657913 140.678431 
L 387.852898 145.007157 
" clip-path="url(#pa83a741e32)" style="fill: none; stroke: #2c738e; stroke-width: 1.5; stroke-linecap: square"/>
   </g>
   <g id="line2d_26">
    <path d="M 63.198352 59.894426 
L 74.393337 64.683198 
L 85.588321 68.716623 
L 96.783305 72.821017 
L 107.97829 80.393725 
L 119.173274 86.709491 
L 130.368258 95.503337 
L 141.563243 101.482724 
L 152.758227 110.636057 
L 163.953211 120.844512 
L 175.148196 132.715944 
L 186.34318 147.994175 
L 197.538164 168.909641 
L 208.733149 196.86704 
L 219.928133 234.910711 
L 231.123117 270.127064 
L 242.318101 283.879238 
L 253.513086 171.447188 
L 264.70807 88.199793 
L 275.903054 85.052365 
L 287.098039 88.431667 
L 298.293023 94.626062 
L 309.488007 101.175902 
L 320.682992 108.334297 
L 331.877976 116.357659 
L 343.07296 123.98112 
L 354.267945 129.205197 
L 365.462929 134.193973 
L 376.657913 140.759176 
L 387.852898 146.146971 
" clip-path="url(#pa83a741e32)" style="fill: none; stroke: #297b8e; stroke-width: 1.5; stroke-linecap: square"/>
   </g>
   <g id="line2d_27">
    <path d="M 63.198352 58.33833 
L 74.393337 65.016055 
L 85.588321 69.567584 
L 96.783305 73.057989 
L 107.97829 80.415171 
L 119.173274 87.52831 
L 130.368258 93.430343 
L 141.563243 101.173946 
L 152.758227 109.497656 
L 163.953211 120.695913 
L 175.148196 130.420965 
L 186.34318 146.997219 
L 197.538164 168.494637 
L 208.733149 196.734559 
L 219.928133 232.427105 
L 231.123117 268.852558 
L 242.318101 281.123033 
L 253.513086 180.026195 
L 264.70807 92.433308 
L 275.903054 82.960472 
L 287.098039 90.548595 
L 298.293023 98.440248 
L 309.488007 99.092129 
L 320.682992 110.517207 
L 331.877976 118.242085 
L 343.07296 121.859912 
L 354.267945 129.151924 
L 365.462929 136.06318 
L 376.657913 139.5426 
L 387.852898 146.83936 
" clip-path="url(#pa83a741e32)" style="fill: none; stroke: #25838e; stroke-width: 1.5; stroke-linecap: square"/>
   </g>
   <g id="line2d_28">
    <path d="M 63.198352 57.799369 
L 74.393337 63.989327 
L 85.588321 68.654451 
L 96.783305 74.901602 
L 107.97829 79.90585 
L 119.173274 87.755365 
L 130.368258 93.59541 
L 141.563243 100.63625 
L 152.758227 109.867381 
L 163.953211 119.507607 
L 175.148196 132.004177 
L 186.34318 147.295372 
L 197.538164 166.961407 
L 208.733149 196.046788 
L 219.928133 232.992262 
L 231.123117 270.939379 
L 242.318101 278.922027 
L 253.513086 171.098284 
L 264.70807 87.57452 
L 275.903054 81.958209 
L 287.098039 91.356786 
L 298.293023 95.050252 
L 309.488007 104.368925 
L 320.682992 109.705333 
L 331.877976 117.854718 
L 343.07296 122.368887 
L 354.267945 128.056721 
L 365.462929 134.942897 
L 376.657913 139.344885 
L 387.852898 146.294249 
" clip-path="url(#pa83a741e32)" style="fill: none; stroke: #228c8d; stroke-width: 1.5; stroke-linecap: square"/>
   </g>
   <g id="line2d_29">
    <path d="M 63.198352 56.841265 
L 74.393337 62.614815 
L 85.588321 67.505887 
L 96.783305 72.990183 
L 107.97829 81.347109 
L 119.173274 86.252063 
L 130.368258 91.983307 
L 141.563243 102.365012 
L 152.758227 109.729606 
L 163.953211 120.024964 
L 175.148196 132.551219 
L 186.34318 148.304659 
L 197.538164 167.772163 
L 208.733149 199.351221 
L 219.928133 233.593639 
L 231.123117 272.014143 
L 242.318101 280.199713 
L 253.513086 158.51223 
L 264.70807 86.553389 
L 275.903054 85.637238 
L 287.098039 91.663441 
L 298.293023 95.158563 
L 309.488007 103.240607 
L 320.682992 109.958433 
L 331.877976 115.943472 
L 343.07296 120.686906 
L 354.267945 130.243865 
L 365.462929 133.892398 
L 376.657913 140.611978 
L 387.852898 147.007156 
" clip-path="url(#pa83a741e32)" style="fill: none; stroke: #1f948c; stroke-width: 1.5; stroke-linecap: square"/>
   </g>
   <g id="line2d_30">
    <path d="M 63.198352 57.033904 
L 74.393337 64.399774 
L 85.588321 68.566127 
L 96.783305 74.103033 
L 107.97829 80.210685 
L 119.173274 87.305347 
L 130.368258 92.563589 
L 141.563243 101.463015 
L 152.758227 109.882077 
L 163.953211 119.417376 
L 175.148196 131.413932 
L 186.34318 147.254001 
L 197.538164 167.070098 
L 208.733149 197.770172 
L 219.928133 236.134183 
L 231.123117 270.619934 
L 242.318101 278.892005 
L 253.513086 165.120716 
L 264.70807 88.179271 
L 275.903054 83.535433 
L 287.098039 89.501197 
L 298.293023 97.004136 
L 309.488007 101.982573 
L 320.682992 108.047423 
L 331.877976 114.408108 
L 343.07296 121.460537 
L 354.267945 129.39191 
L 365.462929 133.92107 
L 376.657913 141.381661 
L 387.852898 145.228917 
" clip-path="url(#pa83a741e32)" style="fill: none; stroke: #1e9d89; stroke-width: 1.5; stroke-linecap: square"/>
   </g>
   <g id="line2d_31">
    <path d="M 63.198352 57.509405 
L 74.393337 64.385989 
L 85.588321 69.013396 
L 96.783305 74.741491 
L 107.97829 81.004349 
L 119.173274 86.597758 
L 130.368258 95.050751 
L 141.563243 101.13339 
L 152.758227 109.31591 
L 163.953211 120.166188 
L 175.148196 132.071054 
L 186.34318 147.732864 
L 197.538164 168.504669 
L 208.733149 198.023229 
L 219.928133 235.371469 
L 231.123117 270.935563 
L 242.318101 277.836759 
L 253.513086 163.487967 
L 264.70807 87.124844 
L 275.903054 82.860612 
L 287.098039 90.456971 
L 298.293023 95.851316 
L 309.488007 104.012375 
L 320.682992 110.069216 
L 331.877976 115.894085 
L 343.07296 123.712917 
L 354.267945 126.634341 
L 365.462929 134.447452 
L 376.657913 139.736009 
L 387.852898 146.590935 
" clip-path="url(#pa83a741e32)" style="fill: none; stroke: #21a585; stroke-width: 1.5; stroke-linecap: square"/>
   </g>
   <g id="line2d_32">
    <path d="M 63.198352 58.14984 
L 74.393337 63.474105 
L 85.588321 68.771308 
L 96.783305 73.675892 
L 107.97829 80.005888 
L 119.173274 87.385086 
L 130.368258 93.730141 
L 141.563243 100.713135 
L 152.758227 110.45852 
L 163.953211 119.188449 
L 175.148196 132.94767 
L 186.34318 148.079843 
L 197.538164 169.579857 
L 208.733149 199.657276 
L 219.928133 235.931434 
L 231.123117 272.131022 
L 242.318101 278.050692 
L 253.513086 161.289026 
L 264.70807 90.300771 
L 275.903054 84.061369 
L 287.098039 90.346598 
L 298.293023 94.169649 
L 309.488007 103.704614 
L 320.682992 109.485263 
L 331.877976 115.905999 
L 343.07296 123.555323 
L 354.267945 129.549525 
L 365.462929 135.533027 
L 376.657913 139.886315 
L 387.852898 147.163774 
" clip-path="url(#pa83a741e32)" style="fill: none; stroke: #26ad81; stroke-width: 1.5; stroke-linecap: square"/>
   </g>
   <g id="line2d_33">
    <path d="M 63.198352 58.683246 
L 74.393337 63.150885 
L 85.588321 68.964493 
L 96.783305 73.807833 
L 107.97829 80.417717 
L 119.173274 85.943673 
L 130.368258 94.023595 
L 141.563243 101.662113 
L 152.758227 109.805251 
L 163.953211 121.915379 
L 175.148196 130.300367 
L 186.34318 146.771375 
L 197.538164 168.118245 
L 208.733149 198.667143 
L 219.928133 236.787271 
L 231.123117 271.181207 
L 242.318101 278.258063 
L 253.513086 158.850203 
L 264.70807 85.725154 
L 275.903054 82.797421 
L 287.098039 87.50126 
L 298.293023 95.586206 
L 309.488007 103.952315 
L 320.682992 110.357978 
L 331.877976 117.535209 
L 343.07296 123.851774 
L 354.267945 128.992847 
L 365.462929 135.062857 
L 376.657913 141.373162 
L 387.852898 146.080359 
" clip-path="url(#pa83a741e32)" style="fill: none; stroke: #31b57b; stroke-width: 1.5; stroke-linecap: square"/>
   </g>
   <g id="line2d_34">
    <path d="M 63.198352 56.637976 
L 74.393337 62.964545 
L 85.588321 68.693316 
L 96.783305 74.459098 
L 107.97829 81.688812 
L 119.173274 86.947185 
L 130.368258 93.615106 
L 141.563243 101.639804 
L 152.758227 109.810682 
L 163.953211 120.017987 
L 175.148196 131.135351 
L 186.34318 147.60435 
L 197.538164 170.608887 
L 208.733149 200.110035 
L 219.928133 236.033567 
L 231.123117 271.770841 
L 242.318101 277.560271 
L 253.513086 170.452446 
L 264.70807 89.222653 
L 275.903054 81.471031 
L 287.098039 89.257126 
L 298.293023 97.010794 
L 309.488007 103.596097 
L 320.682992 109.482816 
L 331.877976 117.194348 
L 343.07296 122.071425 
L 354.267945 128.042083 
L 365.462929 134.29439 
L 376.657913 139.528777 
L 387.852898 144.883829 
" clip-path="url(#pa83a741e32)" style="fill: none; stroke: #3fbc73; stroke-width: 1.5; stroke-linecap: square"/>
   </g>
   <g id="line2d_35">
    <path d="M 63.198352 57.411917 
L 74.393337 63.283762 
L 85.588321 68.921871 
L 96.783305 75.015286 
L 107.97829 79.972617 
L 119.173274 86.235866 
L 130.368258 93.789487 
L 141.563243 100.98809 
L 152.758227 108.719838 
L 163.953211 119.587175 
L 175.148196 132.335262 
L 186.34318 147.84524 
L 197.538164 169.511913 
L 208.733149 200.304123 
L 219.928133 236.971661 
L 231.123117 272.2007 
L 242.318101 280.553746 
L 253.513086 158.688268 
L 264.70807 88.431167 
L 275.903054 84.52457 
L 287.098039 90.502248 
L 298.293023 95.331181 
L 309.488007 104.096464 
L 320.682992 109.800402 
L 331.877976 115.291515 
L 343.07296 123.037601 
L 354.267945 128.733314 
L 365.462929 134.787057 
L 376.657913 140.605879 
L 387.852898 145.399171 
" clip-path="url(#pa83a741e32)" style="fill: none; stroke: #50c46a; stroke-width: 1.5; stroke-linecap: square"/>
   </g>
   <g id="line2d_36">
    <path d="M 63.198352 57.589249 
L 74.393337 62.164068 
L 85.588321 67.529305 
L 96.783305 74.118571 
L 107.97829 80.923114 
L 119.173274 86.311667 
L 130.368258 94.697986 
L 141.563243 101.236582 
L 152.758227 108.994975 
L 163.953211 120.010298 
L 175.148196 132.261671 
L 186.34318 147.193241 
L 197.538164 167.665797 
L 208.733149 199.596556 
L 219.928133 236.529939 
L 231.123117 272.127165 
L 242.318101 277.618618 
L 253.513086 168.561866 
L 264.70807 88.15504 
L 275.903054 83.098839 
L 287.098039 88.348635 
L 298.293023 94.896492 
L 309.488007 102.611733 
L 320.682992 109.868931 
L 331.877976 117.037071 
L 343.07296 122.517421 
L 354.267945 130.986898 
L 365.462929 133.230465 
L 376.657913 138.499106 
L 387.852898 145.876897 
" clip-path="url(#pa83a741e32)" style="fill: none; stroke: #63cb5f; stroke-width: 1.5; stroke-linecap: square"/>
   </g>
   <g id="line2d_37">
    <path d="M 63.198352 57.454368 
L 74.393337 62.305953 
L 85.588321 67.722494 
L 96.783305 73.962013 
L 107.97829 80.404053 
L 119.173274 86.499351 
L 130.368258 93.629981 
L 141.563243 100.249114 
L 152.758227 109.566716 
L 163.953211 119.629199 
L 175.148196 131.763561 
L 186.34318 148.504555 
L 197.538164 168.833841 
L 208.733149 198.61941 
L 219.928133 237.171769 
L 231.123117 271.663873 
L 242.318101 279.680346 
L 253.513086 161.535934 
L 264.70807 90.512449 
L 275.903054 83.694176 
L 287.098039 88.643885 
L 298.293023 96.166339 
L 309.488007 103.186314 
L 320.682992 108.083201 
L 331.877976 116.028283 
L 343.07296 123.982211 
L 354.267945 129.912136 
L 365.462929 135.19844 
L 376.657913 140.856806 
L 387.852898 146.585063 
" clip-path="url(#pa83a741e32)" style="fill: none; stroke: #77d153; stroke-width: 1.5; stroke-linecap: square"/>
   </g>
   <g id="line2d_38">
    <path d="M 63.198352 57.248789 
L 74.393337 63.069536 
L 85.588321 68.198959 
L 96.783305 73.841291 
L 107.97829 79.905308 
L 119.173274 86.500097 
L 130.368258 92.802784 
L 141.563243 101.204454 
L 152.758227 109.763744 
L 163.953211 119.474936 
L 175.148196 132.590513 
L 186.34318 147.17632 
L 197.538164 169.466226 
L 208.733149 199.193947 
L 219.928133 238.827375 
L 231.123117 272.285197 
L 242.318101 278.37454 
L 253.513086 167.597115 
L 264.70807 88.703113 
L 275.903054 83.956152 
L 287.098039 90.106258 
L 298.293023 95.738988 
L 309.488007 102.614353 
L 320.682992 109.273662 
L 331.877976 116.225058 
L 343.07296 124.100709 
L 354.267945 127.921808 
L 365.462929 135.49012 
L 376.657913 140.793256 
L 387.852898 145.601586 
" clip-path="url(#pa83a741e32)" style="fill: none; stroke: #8bd646; stroke-width: 1.5; stroke-linecap: square"/>
   </g>
   <g id="line2d_39">
    <path d="M 63.198352 58.212001 
L 74.393337 63.703987 
L 85.588321 68.267419 
L 96.783305 75.251513 
L 107.97829 80.301403 
L 119.173274 86.532187 
L 130.368258 93.618698 
L 141.563243 101.276664 
L 152.758227 110.03193 
L 163.953211 119.941863 
L 175.148196 132.629797 
L 186.34318 147.211292 
L 197.538164 171.099768 
L 208.733149 199.117694 
L 219.928133 237.489115 
L 231.123117 271.442448 
L 242.318101 278.194536 
L 253.513086 150.949304 
L 264.70807 87.82331 
L 275.903054 83.872668 
L 287.098039 89.721879 
L 298.293023 96.660514 
L 309.488007 103.313782 
L 320.682992 109.931072 
L 331.877976 116.389701 
L 343.07296 123.537349 
L 354.267945 128.616124 
L 365.462929 133.832677 
L 376.657913 138.588427 
L 387.852898 145.071918 
" clip-path="url(#pa83a741e32)" style="fill: none; stroke: #a2da37; stroke-width: 1.5; stroke-linecap: square"/>
   </g>
   <g id="line2d_40">
    <path d="M 63.198352 57.421194 
L 74.393337 62.210961 
L 85.588321 68.885305 
L 96.783305 73.97265 
L 107.97829 79.449161 
L 119.173274 87.300417 
L 130.368258 93.076731 
L 141.563243 101.148091 
L 152.758227 110.57199 
L 163.953211 119.434704 
L 175.148196 132.72916 
L 186.34318 149.815342 
L 197.538164 170.914844 
L 208.733149 200.607717 
L 219.928133 237.91721 
L 231.123117 273.071223 
L 242.318101 277.259483 
L 253.513086 151.986123 
L 264.70807 85.33259 
L 275.903054 83.106158 
L 287.098039 88.42314 
L 298.293023 96.14825 
L 309.488007 103.803272 
L 320.682992 109.874408 
L 331.877976 116.551712 
L 343.07296 122.605246 
L 354.267945 128.846112 
L 365.462929 134.462395 
L 376.657913 140.935538 
L 387.852898 145.196163 
" clip-path="url(#pa83a741e32)" style="fill: none; stroke: #bade28; stroke-width: 1.5; stroke-linecap: square"/>
   </g>
   <g id="line2d_41">
    <path d="M 63.198352 57.866412 
L 74.393337 62.258496 
L 85.588321 69.055314 
L 96.783305 74.313663 
L 107.97829 80.792749 
L 119.173274 86.230026 
L 130.368258 94.208164 
L 141.563243 101.497652 
L 152.758227 110.631595 
L 163.953211 120.11444 
L 175.148196 132.583639 
L 186.34318 148.42783 
L 197.538164 169.165175 
L 208.733149 198.839086 
L 219.928133 238.009267 
L 231.123117 272.700634 
L 242.318101 276.705639 
L 253.513086 161.486324 
L 264.70807 88.960088 
L 275.903054 82.917128 
L 287.098039 87.987283 
L 298.293023 95.601358 
L 309.488007 103.825146 
L 320.682992 109.917695 
L 331.877976 116.675018 
L 343.07296 122.874832 
L 354.267945 127.86885 
L 365.462929 133.704474 
L 376.657913 140.811361 
L 387.852898 145.973905 
" clip-path="url(#pa83a741e32)" style="fill: none; stroke: #d2e21b; stroke-width: 1.5; stroke-linecap: square"/>
   </g>
   <g id="line2d_42">
    <path d="M 63.198352 57.685404 
L 74.393337 62.549311 
L 85.588321 68.763555 
L 96.783305 73.823664 
L 107.97829 80.929628 
L 119.173274 86.255854 
L 130.368258 93.581386 
L 141.563243 100.759642 
L 152.758227 109.847663 
L 163.953211 119.926146 
L 175.148196 132.915778 
L 186.34318 148.070482 
L 197.538164 170.695285 
L 208.733149 199.720347 
L 219.928133 237.611413 
L 231.123117 274.912291 
L 242.318101 273.991196 
L 253.513086 157.0635 
L 264.70807 89.396511 
L 275.903054 83.116979 
L 287.098039 89.568395 
L 298.293023 95.27429 
L 309.488007 103.277731 
L 320.682992 110.527089 
L 331.877976 117.189986 
L 343.07296 122.846097 
L 354.267945 129.00759 
L 365.462929 134.988182 
L 376.657913 140.744464 
L 387.852898 145.972617 
" clip-path="url(#pa83a741e32)" style="fill: none; stroke: #eae51a; stroke-width: 1.5; stroke-linecap: square"/>
   </g>
   <g id="line2d_43">
    <path d="M 63.198352 57.914699 
L 74.393337 62.398327 
L 85.588321 69.421903 
L 96.783305 74.433526 
L 107.97829 80.549895 
L 119.173274 86.455487 
L 130.368258 93.169332 
L 141.563243 101.325172 
L 152.758227 109.780243 
L 163.953211 121.082911 
L 175.148196 132.848419 
L 186.34318 148.866079 
L 197.538164 170.991454 
L 208.733149 201.084887 
L 219.928133 240.425218 
L 231.123117 273.509865 
L 242.318101 276.091369 
L 253.513086 150.654439 
L 264.70807 85.733627 
L 275.903054 84.149023 
L 287.098039 90.104303 
L 298.293023 96.871692 
L 309.488007 102.704191 
L 320.682992 110.813292 
L 331.877976 116.769866 
L 343.07296 123.492645 
L 354.267945 128.391601 
L 365.462929 133.954934 
L 376.657913 140.419249 
L 387.852898 145.09006 
" clip-path="url(#pa83a741e32)" style="fill: none; stroke: #fde725; stroke-width: 1.5; stroke-linecap: square"/>
   </g>
   <g id="patch_3">
    <path d="M 46.965625 307.872 
L 46.965625 41.76 
" style="fill: none; stroke: #000000; stroke-width: 0.8; stroke-linejoin: miter; stroke-linecap: square"/>
   </g>
   <g id="patch_4">
    <path d="M 404.085625 307.872 
L 404.085625 41.76 
" style="fill: none; stroke: #000000; stroke-width: 0.8; stroke-linejoin: miter; stroke-linecap: square"/>
   </g>
   <g id="patch_5">
    <path d="M 46.965625 307.872 
L 404.085625 307.872 
" style="fill: none; stroke: #000000; stroke-width: 0.8; stroke-linejoin: miter; stroke-linecap: square"/>
   </g>
   <g id="patch_6">
    <path d="M 46.965625 41.76 
L 404.085625 41.76 
" style="fill: none; stroke: #000000; stroke-width: 0.8; stroke-linejoin: miter; stroke-linecap: square"/>
   </g>
   <g id="legend_1">
    <g id="patch_7">
     <path d="M 423.941625 307.872 
L 637.826 307.872 
Q 639.826 307.872 639.826 305.872 
L 639.826 145.412625 
Q 639.826 143.412625 637.826 143.412625 
L 423.941625 143.412625 
Q 421.941625 143.412625 421.941625 145.412625 
L 421.941625 305.872 
Q 421.941625 307.872 423.941625 307.872 
z
" style="fill: #ffffff; opacity: 0.8; stroke: #cccccc; stroke-linejoin: miter"/>
    </g>
    <g id="text_17">
     <!-- Readout pulse amplitude () -->
     <g transform="translate(462.783031 155.011063) scale(0.1 -0.1)">
      <defs>
       <path id="DejaVuSans-52" d="M 2841 2188 
Q 3044 2119 3236 1894 
Q 3428 1669 3622 1275 
L 4263 0 
L 3584 0 
L 2988 1197 
Q 2756 1666 2539 1819 
Q 2322 1972 1947 1972 
L 1259 1972 
L 1259 0 
L 628 0 
L 628 4666 
L 2053 4666 
Q 2853 4666 3247 4331 
Q 3641 3997 3641 3322 
Q 3641 2881 3436 2590 
Q 3231 2300 2841 2188 
z
M 1259 4147 
L 1259 2491 
L 2053 2491 
Q 2509 2491 2742 2702 
Q 2975 2913 2975 3322 
Q 2975 3731 2742 3939 
Q 2509 4147 2053 4147 
L 1259 4147 
z
" transform="scale(0.015625)"/>
       <path id="DejaVuSans-6f" d="M 1959 3097 
Q 1497 3097 1228 2736 
Q 959 2375 959 1747 
Q 959 1119 1226 758 
Q 1494 397 1959 397 
Q 2419 397 2687 759 
Q 2956 1122 2956 1747 
Q 2956 2369 2687 2733 
Q 2419 3097 1959 3097 
z
M 1959 3584 
Q 2709 3584 3137 3096 
Q 3566 2609 3566 1747 
Q 3566 888 3137 398 
Q 2709 -91 1959 -91 
Q 1206 -91 779 398 
Q 353 888 353 1747 
Q 353 2609 779 3096 
Q 1206 3584 1959 3584 
z
" transform="scale(0.015625)"/>
       <path id="DejaVuSans-74" d="M 1172 4494 
L 1172 3500 
L 2356 3500 
L 2356 3053 
L 1172 3053 
L 1172 1153 
Q 1172 725 1289 603 
Q 1406 481 1766 481 
L 2356 481 
L 2356 0 
L 1766 0 
Q 1100 0 847 248 
Q 594 497 594 1153 
L 594 3053 
L 172 3053 
L 172 3500 
L 594 3500 
L 594 4494 
L 1172 4494 
z
" transform="scale(0.015625)"/>
       <path id="DejaVuSans-70" d="M 1159 525 
L 1159 -1331 
L 581 -1331 
L 581 3500 
L 1159 3500 
L 1159 2969 
Q 1341 3281 1617 3432 
Q 1894 3584 2278 3584 
Q 2916 3584 3314 3078 
Q 3713 2572 3713 1747 
Q 3713 922 3314 415 
Q 2916 -91 2278 -91 
Q 1894 -91 1617 61 
Q 1341 213 1159 525 
z
M 3116 1747 
Q 3116 2381 2855 2742 
Q 2594 3103 2138 3103 
Q 1681 3103 1420 2742 
Q 1159 2381 1159 1747 
Q 1159 1113 1420 752 
Q 1681 391 2138 391 
Q 2594 391 2855 752 
Q 3116 1113 3116 1747 
z
" transform="scale(0.015625)"/>
       <path id="DejaVuSans-6c" d="M 603 4863 
L 1178 4863 
L 1178 0 
L 603 0 
L 603 4863 
z
" transform="scale(0.015625)"/>
       <path id="DejaVuSans-6d" d="M 3328 2828 
Q 3544 3216 3844 3400 
Q 4144 3584 4550 3584 
Q 5097 3584 5394 3201 
Q 5691 2819 5691 2113 
L 5691 0 
L 5113 0 
L 5113 2094 
Q 5113 2597 4934 2840 
Q 4756 3084 4391 3084 
Q 3944 3084 3684 2787 
Q 3425 2491 3425 1978 
L 3425 0 
L 2847 0 
L 2847 2094 
Q 2847 2600 2669 2842 
Q 2491 3084 2119 3084 
Q 1678 3084 1418 2786 
Q 1159 2488 1159 1978 
L 1159 0 
L 581 0 
L 581 3500 
L 1159 3500 
L 1159 2956 
Q 1356 3278 1631 3431 
Q 1906 3584 2284 3584 
Q 2666 3584 2933 3390 
Q 3200 3197 3328 2828 
z
" transform="scale(0.015625)"/>
       <path id="DejaVuSans-69" d="M 603 3500 
L 1178 3500 
L 1178 0 
L 603 0 
L 603 3500 
z
M 603 4863 
L 1178 4863 
L 1178 4134 
L 603 4134 
L 603 4863 
z
" transform="scale(0.015625)"/>
       <path id="DejaVuSans-28" d="M 1984 4856 
Q 1566 4138 1362 3434 
Q 1159 2731 1159 2009 
Q 1159 1288 1364 580 
Q 1569 -128 1984 -844 
L 1484 -844 
Q 1016 -109 783 600 
Q 550 1309 550 2009 
Q 550 2706 781 3412 
Q 1013 4119 1484 4856 
L 1984 4856 
z
" transform="scale(0.015625)"/>
       <path id="DejaVuSans-29" d="M 513 4856 
L 1013 4856 
Q 1481 4119 1714 3412 
Q 1947 2706 1947 2009 
Q 1947 1309 1714 600 
Q 1481 -109 1013 -844 
L 513 -844 
Q 928 -128 1133 580 
Q 1338 1288 1338 2009 
Q 1338 2731 1133 3434 
Q 928 4138 513 4856 
z
" transform="scale(0.015625)"/>
      </defs>
      <use xlink:href="#DejaVuSans-52"/>
      <use xlink:href="#DejaVuSans-65" x="64.982422"/>
      <use xlink:href="#DejaVuSans-61" x="126.505859"/>
      <use xlink:href="#DejaVuSans-64" x="187.785156"/>
      <use xlink:href="#DejaVuSans-6f" x="251.261719"/>
      <use xlink:href="#DejaVuSans-75" x="312.443359"/>
      <use xlink:href="#DejaVuSans-74" x="375.822266"/>
      <use xlink:href="#DejaVuSans-20" x="415.03125"/>
      <use xlink:href="#DejaVuSans-70" x="446.818359"/>
      <use xlink:href="#DejaVuSans-75" x="510.294922"/>
      <use xlink:href="#DejaVuSans-6c" x="573.673828"/>
      <use xlink:href="#DejaVuSans-73" x="601.457031"/>
      <use xlink:href="#DejaVuSans-65" x="653.556641"/>
      <use xlink:href="#DejaVuSans-20" x="715.080078"/>
      <use xlink:href="#DejaVuSans-61" x="746.867188"/>
      <use xlink:href="#DejaVuSans-6d" x="808.146484"/>
      <use xlink:href="#DejaVuSans-70" x="905.558594"/>
      <use xlink:href="#DejaVuSans-6c" x="969.035156"/>
      <use xlink:href="#DejaVuSans-69" x="996.818359"/>
      <use xlink:href="#DejaVuSans-74" x="1024.601562"/>
      <use xlink:href="#DejaVuSans-75" x="1063.810547"/>
      <use xlink:href="#DejaVuSans-64" x="1127.189453"/>
      <use xlink:href="#DejaVuSans-65" x="1190.666016"/>
      <use xlink:href="#DejaVuSans-20" x="1252.189453"/>
      <use xlink:href="#DejaVuSans-28" x="1283.976562"/>
      <use xlink:href="#DejaVuSans-29" x="1322.990234"/>
     </g>
    </g>
    <g id="line2d_44">
     <path d="M 425.941625 166.189188 
L 435.941625 166.189188 
L 445.941625 166.189188 
" style="fill: none; stroke: #440154; stroke-width: 1.5; stroke-linecap: square"/>
    </g>
    <g id="text_18">
     <!-- 0.1 -->
     <g transform="translate(453.941625 169.689188) scale(0.1 -0.1)">
      <defs>
       <path id="DejaVuSans-2e" d="M 684 794 
L 1344 794 
L 1344 0 
L 684 0 
L 684 794 
z
" transform="scale(0.015625)"/>
      </defs>
      <use xlink:href="#DejaVuSans-30"/>
      <use xlink:href="#DejaVuSans-2e" x="63.623047"/>
      <use xlink:href="#DejaVuSans-31" x="95.410156"/>
     </g>
    </g>
    <g id="line2d_45">
     <path d="M 425.941625 180.867313 
L 435.941625 180.867313 
L 445.941625 180.867313 
" style="fill: none; stroke: #470d60; stroke-width: 1.5; stroke-linecap: square"/>
    </g>
    <g id="text_19">
     <!-- 0.121 -->
     <g transform="translate(453.941625 184.367313) scale(0.1 -0.1)">
      <use xlink:href="#DejaVuSans-30"/>
      <use xlink:href="#DejaVuSans-2e" x="63.623047"/>
      <use xlink:href="#DejaVuSans-31" x="95.410156"/>
      <use xlink:href="#DejaVuSans-32" x="159.033203"/>
      <use xlink:href="#DejaVuSans-31" x="222.65625"/>
     </g>
    </g>
    <g id="line2d_46">
     <path d="M 425.941625 195.545438 
L 435.941625 195.545438 
L 445.941625 195.545438 
" style="fill: none; stroke: #481a6c; stroke-width: 1.5; stroke-linecap: square"/>
    </g>
    <g id="text_20">
     <!-- 0.141 -->
     <g transform="translate(453.941625 199.045438) scale(0.1 -0.1)">
      <use xlink:href="#DejaVuSans-30"/>
      <use xlink:href="#DejaVuSans-2e" x="63.623047"/>
      <use xlink:href="#DejaVuSans-31" x="95.410156"/>
      <use xlink:href="#DejaVuSans-34" x="159.033203"/>
      <use xlink:href="#DejaVuSans-31" x="222.65625"/>
     </g>
    </g>
    <g id="line2d_47">
     <path d="M 425.941625 210.223563 
L 435.941625 210.223563 
L 445.941625 210.223563 
" style="fill: none; stroke: #482576; stroke-width: 1.5; stroke-linecap: square"/>
    </g>
    <g id="text_21">
     <!-- 0.162 -->
     <g transform="translate(453.941625 213.723563) scale(0.1 -0.1)">
      <use xlink:href="#DejaVuSans-30"/>
      <use xlink:href="#DejaVuSans-2e" x="63.623047"/>
      <use xlink:href="#DejaVuSans-31" x="95.410156"/>
      <use xlink:href="#DejaVuSans-36" x="159.033203"/>
      <use xlink:href="#DejaVuSans-32" x="222.65625"/>
     </g>
    </g>
    <g id="line2d_48">
     <path d="M 425.941625 224.901688 
L 435.941625 224.901688 
L 445.941625 224.901688 
" style="fill: none; stroke: #46307e; stroke-width: 1.5; stroke-linecap: square"/>
    </g>
    <g id="text_22">
     <!-- 0.183 -->
     <g transform="translate(453.941625 228.401688) scale(0.1 -0.1)">
      <use xlink:href="#DejaVuSans-30"/>
      <use xlink:href="#DejaVuSans-2e" x="63.623047"/>
      <use xlink:href="#DejaVuSans-31" x="95.410156"/>
      <use xlink:href="#DejaVuSans-38" x="159.033203"/>
      <use xlink:href="#DejaVuSans-33" x="222.65625"/>
     </g>
    </g>
    <g id="line2d_49">
     <path d="M 425.941625 239.579813 
L 435.941625 239.579813 
L 445.941625 239.579813 
" style="fill: none; stroke: #443b84; stroke-width: 1.5; stroke-linecap: square"/>
    </g>
    <g id="text_23">
     <!-- 0.203 -->
     <g transform="translate(453.941625 243.079813) scale(0.1 -0.1)">
      <use xlink:href="#DejaVuSans-30"/>
      <use xlink:href="#DejaVuSans-2e" x="63.623047"/>
      <use xlink:href="#DejaVuSans-32" x="95.410156"/>
      <use xlink:href="#DejaVuSans-30" x="159.033203"/>
      <use xlink:href="#DejaVuSans-33" x="222.65625"/>
     </g>
    </g>
    <g id="line2d_50">
     <path d="M 425.941625 254.257938 
L 435.941625 254.257938 
L 445.941625 254.257938 
" style="fill: none; stroke: #404588; stroke-width: 1.5; stroke-linecap: square"/>
    </g>
    <g id="text_24">
     <!-- 0.224 -->
     <g transform="translate(453.941625 257.757938) scale(0.1 -0.1)">
      <use xlink:href="#DejaVuSans-30"/>
      <use xlink:href="#DejaVuSans-2e" x="63.623047"/>
      <use xlink:href="#DejaVuSans-32" x="95.410156"/>
      <use xlink:href="#DejaVuSans-32" x="159.033203"/>
      <use xlink:href="#DejaVuSans-34" x="222.65625"/>
     </g>
    </g>
    <g id="line2d_51">
     <path d="M 425.941625 268.936062 
L 435.941625 268.936062 
L 445.941625 268.936062 
" style="fill: none; stroke: #3c4f8a; stroke-width: 1.5; stroke-linecap: square"/>
    </g>
    <g id="text_25">
     <!-- 0.245 -->
     <g transform="translate(453.941625 272.436062) scale(0.1 -0.1)">
      <use xlink:href="#DejaVuSans-30"/>
      <use xlink:href="#DejaVuSans-2e" x="63.623047"/>
      <use xlink:href="#DejaVuSans-32" x="95.410156"/>
      <use xlink:href="#DejaVuSans-34" x="159.033203"/>
      <use xlink:href="#DejaVuSans-35" x="222.65625"/>
     </g>
    </g>
    <g id="line2d_52">
     <path d="M 425.941625 283.614188 
L 435.941625 283.614188 
L 445.941625 283.614188 
" style="fill: none; stroke: #38598c; stroke-width: 1.5; stroke-linecap: square"/>
    </g>
    <g id="text_26">
     <!-- 0.266 -->
     <g transform="translate(453.941625 287.114188) scale(0.1 -0.1)">
      <use xlink:href="#DejaVuSans-30"/>
      <use xlink:href="#DejaVuSans-2e" x="63.623047"/>
      <use xlink:href="#DejaVuSans-32" x="95.410156"/>
      <use xlink:href="#DejaVuSans-36" x="159.033203"/>
      <use xlink:href="#DejaVuSans-36" x="222.65625"/>
     </g>
    </g>
    <g id="line2d_53">
     <path d="M 425.941625 298.292312 
L 435.941625 298.292312 
L 445.941625 298.292312 
" style="fill: none; stroke: #33628d; stroke-width: 1.5; stroke-linecap: square"/>
    </g>
    <g id="text_27">
     <!-- 0.286 -->
     <g transform="translate(453.941625 301.792312) scale(0.1 -0.1)">
      <use xlink:href="#DejaVuSans-30"/>
      <use xlink:href="#DejaVuSans-2e" x="63.623047"/>
      <use xlink:href="#DejaVuSans-32" x="95.410156"/>
      <use xlink:href="#DejaVuSans-38" x="159.033203"/>
      <use xlink:href="#DejaVuSans-36" x="222.65625"/>
     </g>
    </g>
    <g id="line2d_54">
     <path d="M 502.56975 166.189188 
L 512.56975 166.189188 
L 522.56975 166.189188 
" style="fill: none; stroke: #2f6b8e; stroke-width: 1.5; stroke-linecap: square"/>
    </g>
    <g id="text_28">
     <!-- 0.307 -->
     <g transform="translate(530.56975 169.689188) scale(0.1 -0.1)">
      <use xlink:href="#DejaVuSans-30"/>
      <use xlink:href="#DejaVuSans-2e" x="63.623047"/>
      <use xlink:href="#DejaVuSans-33" x="95.410156"/>
      <use xlink:href="#DejaVuSans-30" x="159.033203"/>
      <use xlink:href="#DejaVuSans-37" x="222.65625"/>
     </g>
    </g>
    <g id="line2d_55">
     <path d="M 502.56975 180.867313 
L 512.56975 180.867313 
L 522.56975 180.867313 
" style="fill: none; stroke: #2c738e; stroke-width: 1.5; stroke-linecap: square"/>
    </g>
    <g id="text_29">
     <!-- 0.328 -->
     <g transform="translate(530.56975 184.367313) scale(0.1 -0.1)">
      <use xlink:href="#DejaVuSans-30"/>
      <use xlink:href="#DejaVuSans-2e" x="63.623047"/>
      <use xlink:href="#DejaVuSans-33" x="95.410156"/>
      <use xlink:href="#DejaVuSans-32" x="159.033203"/>
      <use xlink:href="#DejaVuSans-38" x="222.65625"/>
     </g>
    </g>
    <g id="line2d_56">
     <path d="M 502.56975 195.545438 
L 512.56975 195.545438 
L 522.56975 195.545438 
" style="fill: none; stroke: #297b8e; stroke-width: 1.5; stroke-linecap: square"/>
    </g>
    <g id="text_30">
     <!-- 0.348 -->
     <g transform="translate(530.56975 199.045438) scale(0.1 -0.1)">
      <use xlink:href="#DejaVuSans-30"/>
      <use xlink:href="#DejaVuSans-2e" x="63.623047"/>
      <use xlink:href="#DejaVuSans-33" x="95.410156"/>
      <use xlink:href="#DejaVuSans-34" x="159.033203"/>
      <use xlink:href="#DejaVuSans-38" x="222.65625"/>
     </g>
    </g>
    <g id="line2d_57">
     <path d="M 502.56975 210.223563 
L 512.56975 210.223563 
L 522.56975 210.223563 
" style="fill: none; stroke: #25838e; stroke-width: 1.5; stroke-linecap: square"/>
    </g>
    <g id="text_31">
     <!-- 0.369 -->
     <g transform="translate(530.56975 213.723563) scale(0.1 -0.1)">
      <use xlink:href="#DejaVuSans-30"/>
      <use xlink:href="#DejaVuSans-2e" x="63.623047"/>
      <use xlink:href="#DejaVuSans-33" x="95.410156"/>
      <use xlink:href="#DejaVuSans-36" x="159.033203"/>
      <use xlink:href="#DejaVuSans-39" x="222.65625"/>
     </g>
    </g>
    <g id="line2d_58">
     <path d="M 502.56975 224.901688 
L 512.56975 224.901688 
L 522.56975 224.901688 
" style="fill: none; stroke: #228c8d; stroke-width: 1.5; stroke-linecap: square"/>
    </g>
    <g id="text_32">
     <!-- 0.39 -->
     <g transform="translate(530.56975 228.401688) scale(0.1 -0.1)">
      <use xlink:href="#DejaVuSans-30"/>
      <use xlink:href="#DejaVuSans-2e" x="63.623047"/>
      <use xlink:href="#DejaVuSans-33" x="95.410156"/>
      <use xlink:href="#DejaVuSans-39" x="159.033203"/>
     </g>
    </g>
    <g id="line2d_59">
     <path d="M 502.56975 239.579813 
L 512.56975 239.579813 
L 522.56975 239.579813 
" style="fill: none; stroke: #1f948c; stroke-width: 1.5; stroke-linecap: square"/>
    </g>
    <g id="text_33">
     <!-- 0.41 -->
     <g transform="translate(530.56975 243.079813) scale(0.1 -0.1)">
      <use xlink:href="#DejaVuSans-30"/>
      <use xlink:href="#DejaVuSans-2e" x="63.623047"/>
      <use xlink:href="#DejaVuSans-34" x="95.410156"/>
      <use xlink:href="#DejaVuSans-31" x="159.033203"/>
     </g>
    </g>
    <g id="line2d_60">
     <path d="M 502.56975 254.257938 
L 512.56975 254.257938 
L 522.56975 254.257938 
" style="fill: none; stroke: #1e9d89; stroke-width: 1.5; stroke-linecap: square"/>
    </g>
    <g id="text_34">
     <!-- 0.431 -->
     <g transform="translate(530.56975 257.757938) scale(0.1 -0.1)">
      <use xlink:href="#DejaVuSans-30"/>
      <use xlink:href="#DejaVuSans-2e" x="63.623047"/>
      <use xlink:href="#DejaVuSans-34" x="95.410156"/>
      <use xlink:href="#DejaVuSans-33" x="159.033203"/>
      <use xlink:href="#DejaVuSans-31" x="222.65625"/>
     </g>
    </g>
    <g id="line2d_61">
     <path d="M 502.56975 268.936062 
L 512.56975 268.936062 
L 522.56975 268.936062 
" style="fill: none; stroke: #21a585; stroke-width: 1.5; stroke-linecap: square"/>
    </g>
    <g id="text_35">
     <!-- 0.452 -->
     <g transform="translate(530.56975 272.436062) scale(0.1 -0.1)">
      <use xlink:href="#DejaVuSans-30"/>
      <use xlink:href="#DejaVuSans-2e" x="63.623047"/>
      <use xlink:href="#DejaVuSans-34" x="95.410156"/>
      <use xlink:href="#DejaVuSans-35" x="159.033203"/>
      <use xlink:href="#DejaVuSans-32" x="222.65625"/>
     </g>
    </g>
    <g id="line2d_62">
     <path d="M 502.56975 283.614188 
L 512.56975 283.614188 
L 522.56975 283.614188 
" style="fill: none; stroke: #26ad81; stroke-width: 1.5; stroke-linecap: square"/>
    </g>
    <g id="text_36">
     <!-- 0.472 -->
     <g transform="translate(530.56975 287.114188) scale(0.1 -0.1)">
      <use xlink:href="#DejaVuSans-30"/>
      <use xlink:href="#DejaVuSans-2e" x="63.623047"/>
      <use xlink:href="#DejaVuSans-34" x="95.410156"/>
      <use xlink:href="#DejaVuSans-37" x="159.033203"/>
      <use xlink:href="#DejaVuSans-32" x="222.65625"/>
     </g>
    </g>
    <g id="line2d_63">
     <path d="M 502.56975 298.292312 
L 512.56975 298.292312 
L 522.56975 298.292312 
" style="fill: none; stroke: #31b57b; stroke-width: 1.5; stroke-linecap: square"/>
    </g>
    <g id="text_37">
     <!-- 0.493 -->
     <g transform="translate(530.56975 301.792312) scale(0.1 -0.1)">
      <use xlink:href="#DejaVuSans-30"/>
      <use xlink:href="#DejaVuSans-2e" x="63.623047"/>
      <use xlink:href="#DejaVuSans-34" x="95.410156"/>
      <use xlink:href="#DejaVuSans-39" x="159.033203"/>
      <use xlink:href="#DejaVuSans-33" x="222.65625"/>
     </g>
    </g>
    <g id="line2d_64">
     <path d="M 579.197875 166.189188 
L 589.197875 166.189188 
L 599.197875 166.189188 
" style="fill: none; stroke: #3fbc73; stroke-width: 1.5; stroke-linecap: square"/>
    </g>
    <g id="text_38">
     <!-- 0.514 -->
     <g transform="translate(607.197875 169.689188) scale(0.1 -0.1)">
      <use xlink:href="#DejaVuSans-30"/>
      <use xlink:href="#DejaVuSans-2e" x="63.623047"/>
      <use xlink:href="#DejaVuSans-35" x="95.410156"/>
      <use xlink:href="#DejaVuSans-31" x="159.033203"/>
      <use xlink:href="#DejaVuSans-34" x="222.65625"/>
     </g>
    </g>
    <g id="line2d_65">
     <path d="M 579.197875 180.867313 
L 589.197875 180.867313 
L 599.197875 180.867313 
" style="fill: none; stroke: #50c46a; stroke-width: 1.5; stroke-linecap: square"/>
    </g>
    <g id="text_39">
     <!-- 0.534 -->
     <g transform="translate(607.197875 184.367313) scale(0.1 -0.1)">
      <use xlink:href="#DejaVuSans-30"/>
      <use xlink:href="#DejaVuSans-2e" x="63.623047"/>
      <use xlink:href="#DejaVuSans-35" x="95.410156"/>
      <use xlink:href="#DejaVuSans-33" x="159.033203"/>
      <use xlink:href="#DejaVuSans-34" x="222.65625"/>
     </g>
    </g>
    <g id="line2d_66">
     <path d="M 579.197875 195.545438 
L 589.197875 195.545438 
L 599.197875 195.545438 
" style="fill: none; stroke: #63cb5f; stroke-width: 1.5; stroke-linecap: square"/>
    </g>
    <g id="text_40">
     <!-- 0.555 -->
     <g transform="translate(607.197875 199.045438) scale(0.1 -0.1)">
      <use xlink:href="#DejaVuSans-30"/>
      <use xlink:href="#DejaVuSans-2e" x="63.623047"/>
      <use xlink:href="#DejaVuSans-35" x="95.410156"/>
      <use xlink:href="#DejaVuSans-35" x="159.033203"/>
      <use xlink:href="#DejaVuSans-35" x="222.65625"/>
     </g>
    </g>
    <g id="line2d_67">
     <path d="M 579.197875 210.223563 
L 589.197875 210.223563 
L 599.197875 210.223563 
" style="fill: none; stroke: #77d153; stroke-width: 1.5; stroke-linecap: square"/>
    </g>
    <g id="text_41">
     <!-- 0.576 -->
     <g transform="translate(607.197875 213.723563) scale(0.1 -0.1)">
      <use xlink:href="#DejaVuSans-30"/>
      <use xlink:href="#DejaVuSans-2e" x="63.623047"/>
      <use xlink:href="#DejaVuSans-35" x="95.410156"/>
      <use xlink:href="#DejaVuSans-37" x="159.033203"/>
      <use xlink:href="#DejaVuSans-36" x="222.65625"/>
     </g>
    </g>
    <g id="line2d_68">
     <path d="M 579.197875 224.901688 
L 589.197875 224.901688 
L 599.197875 224.901688 
" style="fill: none; stroke: #8bd646; stroke-width: 1.5; stroke-linecap: square"/>
    </g>
    <g id="text_42">
     <!-- 0.597 -->
     <g transform="translate(607.197875 228.401688) scale(0.1 -0.1)">
      <use xlink:href="#DejaVuSans-30"/>
      <use xlink:href="#DejaVuSans-2e" x="63.623047"/>
      <use xlink:href="#DejaVuSans-35" x="95.410156"/>
      <use xlink:href="#DejaVuSans-39" x="159.033203"/>
      <use xlink:href="#DejaVuSans-37" x="222.65625"/>
     </g>
    </g>
    <g id="line2d_69">
     <path d="M 579.197875 239.579813 
L 589.197875 239.579813 
L 599.197875 239.579813 
" style="fill: none; stroke: #a2da37; stroke-width: 1.5; stroke-linecap: square"/>
    </g>
    <g id="text_43">
     <!-- 0.617 -->
     <g transform="translate(607.197875 243.079813) scale(0.1 -0.1)">
      <use xlink:href="#DejaVuSans-30"/>
      <use xlink:href="#DejaVuSans-2e" x="63.623047"/>
      <use xlink:href="#DejaVuSans-36" x="95.410156"/>
      <use xlink:href="#DejaVuSans-31" x="159.033203"/>
      <use xlink:href="#DejaVuSans-37" x="222.65625"/>
     </g>
    </g>
    <g id="line2d_70">
     <path d="M 579.197875 254.257938 
L 589.197875 254.257938 
L 599.197875 254.257938 
" style="fill: none; stroke: #bade28; stroke-width: 1.5; stroke-linecap: square"/>
    </g>
    <g id="text_44">
     <!-- 0.638 -->
     <g transform="translate(607.197875 257.757938) scale(0.1 -0.1)">
      <use xlink:href="#DejaVuSans-30"/>
      <use xlink:href="#DejaVuSans-2e" x="63.623047"/>
      <use xlink:href="#DejaVuSans-36" x="95.410156"/>
      <use xlink:href="#DejaVuSans-33" x="159.033203"/>
      <use xlink:href="#DejaVuSans-38" x="222.65625"/>
     </g>
    </g>
    <g id="line2d_71">
     <path d="M 579.197875 268.936062 
L 589.197875 268.936062 
L 599.197875 268.936062 
" style="fill: none; stroke: #d2e21b; stroke-width: 1.5; stroke-linecap: square"/>
    </g>
    <g id="text_45">
     <!-- 0.659 -->
     <g transform="translate(607.197875 272.436062) scale(0.1 -0.1)">
      <use xlink:href="#DejaVuSans-30"/>
      <use xlink:href="#DejaVuSans-2e" x="63.623047"/>
      <use xlink:href="#DejaVuSans-36" x="95.410156"/>
      <use xlink:href="#DejaVuSans-35" x="159.033203"/>
      <use xlink:href="#DejaVuSans-39" x="222.65625"/>
     </g>
    </g>
    <g id="line2d_72">
     <path d="M 579.197875 283.614188 
L 589.197875 283.614188 
L 599.197875 283.614188 
" style="fill: none; stroke: #eae51a; stroke-width: 1.5; stroke-linecap: square"/>
    </g>
    <g id="text_46">
     <!-- 0.679 -->
     <g transform="translate(607.197875 287.114188) scale(0.1 -0.1)">
      <use xlink:href="#DejaVuSans-30"/>
      <use xlink:href="#DejaVuSans-2e" x="63.623047"/>
      <use xlink:href="#DejaVuSans-36" x="95.410156"/>
      <use xlink:href="#DejaVuSans-37" x="159.033203"/>
      <use xlink:href="#DejaVuSans-39" x="222.65625"/>
     </g>
    </g>
    <g id="line2d_73">
     <path d="M 579.197875 298.292312 
L 589.197875 298.292312 
L 599.197875 298.292312 
" style="fill: none; stroke: #fde725; stroke-width: 1.5; stroke-linecap: square"/>
    </g>
    <g id="text_47">
     <!-- 0.7 -->
     <g transform="translate(607.197875 301.792312) scale(0.1 -0.1)">
      <use xlink:href="#DejaVuSans-30"/>
      <use xlink:href="#DejaVuSans-2e" x="63.623047"/>
      <use xlink:href="#DejaVuSans-37" x="95.410156"/>
     </g>
    </g>
   </g>
  </g>
  <g id="text_48">
   <!-- x0x1-y1 One-tone-powerDep -->
   <g transform="translate(132.961563 16.318125) scale(0.12 -0.12)">
    <defs>
     <path id="DejaVuSans-78" d="M 3513 3500 
L 2247 1797 
L 3578 0 
L 2900 0 
L 1881 1375 
L 863 0 
L 184 0 
L 1544 1831 
L 300 3500 
L 978 3500 
L 1906 2253 
L 2834 3500 
L 3513 3500 
z
" transform="scale(0.015625)"/>
     <path id="DejaVuSans-2d" d="M 313 2009 
L 1997 2009 
L 1997 1497 
L 313 1497 
L 313 2009 
z
" transform="scale(0.015625)"/>
     <path id="DejaVuSans-4f" d="M 2522 4238 
Q 1834 4238 1429 3725 
Q 1025 3213 1025 2328 
Q 1025 1447 1429 934 
Q 1834 422 2522 422 
Q 3209 422 3611 934 
Q 4013 1447 4013 2328 
Q 4013 3213 3611 3725 
Q 3209 4238 2522 4238 
z
M 2522 4750 
Q 3503 4750 4090 4092 
Q 4678 3434 4678 2328 
Q 4678 1225 4090 567 
Q 3503 -91 2522 -91 
Q 1538 -91 948 565 
Q 359 1222 359 2328 
Q 359 3434 948 4092 
Q 1538 4750 2522 4750 
z
" transform="scale(0.015625)"/>
     <path id="DejaVuSans-77" d="M 269 3500 
L 844 3500 
L 1563 769 
L 2278 3500 
L 2956 3500 
L 3675 769 
L 4391 3500 
L 4966 3500 
L 4050 0 
L 3372 0 
L 2619 2869 
L 1863 0 
L 1184 0 
L 269 3500 
z
" transform="scale(0.015625)"/>
     <path id="DejaVuSans-44" d="M 1259 4147 
L 1259 519 
L 2022 519 
Q 2988 519 3436 956 
Q 3884 1394 3884 2338 
Q 3884 3275 3436 3711 
Q 2988 4147 2022 4147 
L 1259 4147 
z
M 628 4666 
L 1925 4666 
Q 3281 4666 3915 4102 
Q 4550 3538 4550 2338 
Q 4550 1131 3912 565 
Q 3275 0 1925 0 
L 628 0 
L 628 4666 
z
" transform="scale(0.015625)"/>
    </defs>
    <use xlink:href="#DejaVuSans-78"/>
    <use xlink:href="#DejaVuSans-30" x="59.179688"/>
    <use xlink:href="#DejaVuSans-78" x="122.802734"/>
    <use xlink:href="#DejaVuSans-31" x="181.982422"/>
    <use xlink:href="#DejaVuSans-2d" x="245.605469"/>
    <use xlink:href="#DejaVuSans-79" x="279.939453"/>
    <use xlink:href="#DejaVuSans-31" x="339.119141"/>
    <use xlink:href="#DejaVuSans-20" x="402.742188"/>
    <use xlink:href="#DejaVuSans-4f" x="434.529297"/>
    <use xlink:href="#DejaVuSans-6e" x="513.240234"/>
    <use xlink:href="#DejaVuSans-65" x="576.619141"/>
    <use xlink:href="#DejaVuSans-2d" x="638.142578"/>
    <use xlink:href="#DejaVuSans-74" x="674.226562"/>
    <use xlink:href="#DejaVuSans-6f" x="713.435547"/>
    <use xlink:href="#DejaVuSans-6e" x="774.617188"/>
    <use xlink:href="#DejaVuSans-65" x="837.996094"/>
    <use xlink:href="#DejaVuSans-2d" x="899.519531"/>
    <use xlink:href="#DejaVuSans-70" x="935.603516"/>
    <use xlink:href="#DejaVuSans-6f" x="999.080078"/>
    <use xlink:href="#DejaVuSans-77" x="1060.261719"/>
    <use xlink:href="#DejaVuSans-65" x="1142.048828"/>
    <use xlink:href="#DejaVuSans-72" x="1203.572266"/>
    <use xlink:href="#DejaVuSans-44" x="1244.685547"/>
    <use xlink:href="#DejaVuSans-65" x="1321.6875"/>
    <use xlink:href="#DejaVuSans-70" x="1383.210938"/>
   </g>
   <!-- tuid: 20240304-155726-137-33c2ce -->
   <g transform="translate(111.072812 29.7555) scale(0.12 -0.12)">
    <defs>
     <path id="DejaVuSans-3a" d="M 750 794 
L 1409 794 
L 1409 0 
L 750 0 
L 750 794 
z
M 750 3309 
L 1409 3309 
L 1409 2516 
L 750 2516 
L 750 3309 
z
" transform="scale(0.015625)"/>
    </defs>
    <use xlink:href="#DejaVuSans-74"/>
    <use xlink:href="#DejaVuSans-75" x="39.208984"/>
    <use xlink:href="#DejaVuSans-69" x="102.587891"/>
    <use xlink:href="#DejaVuSans-64" x="130.371094"/>
    <use xlink:href="#DejaVuSans-3a" x="193.847656"/>
    <use xlink:href="#DejaVuSans-20" x="227.539062"/>
    <use xlink:href="#DejaVuSans-32" x="259.326172"/>
    <use xlink:href="#DejaVuSans-30" x="322.949219"/>
    <use xlink:href="#DejaVuSans-32" x="386.572266"/>
    <use xlink:href="#DejaVuSans-34" x="450.195312"/>
    <use xlink:href="#DejaVuSans-30" x="513.818359"/>
    <use xlink:href="#DejaVuSans-33" x="577.441406"/>
    <use xlink:href="#DejaVuSans-30" x="641.064453"/>
    <use xlink:href="#DejaVuSans-34" x="704.6875"/>
    <use xlink:href="#DejaVuSans-2d" x="768.310547"/>
    <use xlink:href="#DejaVuSans-31" x="804.394531"/>
    <use xlink:href="#DejaVuSans-35" x="868.017578"/>
    <use xlink:href="#DejaVuSans-35" x="931.640625"/>
    <use xlink:href="#DejaVuSans-37" x="995.263672"/>
    <use xlink:href="#DejaVuSans-32" x="1058.886719"/>
    <use xlink:href="#DejaVuSans-36" x="1122.509766"/>
    <use xlink:href="#DejaVuSans-2d" x="1186.132812"/>
    <use xlink:href="#DejaVuSans-31" x="1222.216797"/>
    <use xlink:href="#DejaVuSans-33" x="1285.839844"/>
    <use xlink:href="#DejaVuSans-37" x="1349.462891"/>
    <use xlink:href="#DejaVuSans-2d" x="1413.085938"/>
    <use xlink:href="#DejaVuSans-33" x="1449.169922"/>
    <use xlink:href="#DejaVuSans-33" x="1512.792969"/>
    <use xlink:href="#DejaVuSans-63" x="1576.416016"/>
    <use xlink:href="#DejaVuSans-32" x="1631.396484"/>
    <use xlink:href="#DejaVuSans-63" x="1695.019531"/>
    <use xlink:href="#DejaVuSans-65" x="1750"/>
   </g>
  </g>
 </g>
 <defs>
  <clipPath id="pa83a741e32">
   <rect x="46.965625" y="41.76" width="357.12" height="266.112"/>
  </clipPath>
 </defs>
</svg>
