<?xml version="1.0" encoding="utf-8" standalone="no"?>
<!DOCTYPE svg PUBLIC "-//W3C//DTD SVG 1.1//EN"
  "http://www.w3.org/Graphics/SVG/1.1/DTD/svg11.dtd">
<svg xmlns:xlink="http://www.w3.org/1999/xlink" width="571.371312pt" height="345.42825pt" viewBox="0 0 571.371312 345.42825" xmlns="http://www.w3.org/2000/svg" version="1.1">
 <metadata>
  <rdf:RDF xmlns:dc="http://purl.org/dc/elements/1.1/" xmlns:cc="http://creativecommons.org/ns#" xmlns:rdf="http://www.w3.org/1999/02/22-rdf-syntax-ns#">
   <cc:Work>
    <dc:type rdf:resource="http://purl.org/dc/dcmitype/StillImage"/>
    <dc:date>2024-01-08T15:24:06.378929</dc:date>
    <dc:format>image/svg+xml</dc:format>
    <dc:creator>
     <cc:Agent>
      <dc:title>Matplotlib v3.8.1, https://matplotlib.org/</dc:title>
     </cc:Agent>
    </dc:creator>
   </cc:Work>
  </rdf:RDF>
 </metadata>
 <defs>
  <style type="text/css">*{stroke-linejoin: round; stroke-linecap: butt}</style>
 </defs>
 <g id="figure_1">
  <g id="patch_1">
   <path d="M 0 345.42825 
L 571.371312 345.42825 
L 571.371312 -0 
L 0 -0 
L 0 345.42825 
z
" style="fill: none; opacity: 0"/>
  </g>
  <g id="axes_1">
   <g id="patch_2">
    <path d="M 50.595313 162.72 
L 407.715312 162.72 
L 407.715312 41.76 
L 50.595313 41.76 
z
" style="fill: #ffffff"/>
   </g>
   <g id="matplotlib.axis_1">
    <g id="xtick_1">
     <g id="line2d_1">
      <defs>
       <path id="m1956277940" d="M 0 0 
L 0 3.5 
" style="stroke: #000000; stroke-width: 0.8"/>
      </defs>
      <g>
       <use xlink:href="#m1956277940" x="87.930585" y="162.72" style="stroke: #000000; stroke-width: 0.8"/>
      </g>
     </g>
    </g>
    <g id="xtick_2">
     <g id="line2d_2">
      <g>
       <use xlink:href="#m1956277940" x="152.861494" y="162.72" style="stroke: #000000; stroke-width: 0.8"/>
      </g>
     </g>
    </g>
    <g id="xtick_3">
     <g id="line2d_3">
      <g>
       <use xlink:href="#m1956277940" x="217.792403" y="162.72" style="stroke: #000000; stroke-width: 0.8"/>
      </g>
     </g>
    </g>
    <g id="xtick_4">
     <g id="line2d_4">
      <g>
       <use xlink:href="#m1956277940" x="282.723312" y="162.72" style="stroke: #000000; stroke-width: 0.8"/>
      </g>
     </g>
    </g>
    <g id="xtick_5">
     <g id="line2d_5">
      <g>
       <use xlink:href="#m1956277940" x="347.654222" y="162.72" style="stroke: #000000; stroke-width: 0.8"/>
      </g>
     </g>
    </g>
   </g>
   <g id="matplotlib.axis_2">
    <g id="ytick_1">
     <g id="line2d_6">
      <defs>
       <path id="mfd5a7613c2" d="M 0 0 
L -3.5 0 
" style="stroke: #000000; stroke-width: 0.8"/>
      </defs>
      <g>
       <use xlink:href="#mfd5a7613c2" x="50.595313" y="143.38254" style="stroke: #000000; stroke-width: 0.8"/>
      </g>
     </g>
     <g id="text_1">
      <!-- 2 -->
      <g transform="translate(37.232813 147.181759) scale(0.1 -0.1)">
       <defs>
        <path id="DejaVuSans-32" d="M 1228 531 
L 3431 531 
L 3431 0 
L 469 0 
L 469 531 
Q 828 903 1448 1529 
Q 2069 2156 2228 2338 
Q 2531 2678 2651 2914 
Q 2772 3150 2772 3378 
Q 2772 3750 2511 3984 
Q 2250 4219 1831 4219 
Q 1534 4219 1204 4116 
Q 875 4013 500 3803 
L 500 4441 
Q 881 4594 1212 4672 
Q 1544 4750 1819 4750 
Q 2544 4750 2975 4387 
Q 3406 4025 3406 3419 
Q 3406 3131 3298 2873 
Q 3191 2616 2906 2266 
Q 2828 2175 2409 1742 
Q 1991 1309 1228 531 
z
" transform="scale(0.015625)"/>
       </defs>
       <use xlink:href="#DejaVuSans-32"/>
      </g>
     </g>
    </g>
    <g id="ytick_2">
     <g id="line2d_7">
      <g>
       <use xlink:href="#mfd5a7613c2" x="50.595313" y="103.135993" style="stroke: #000000; stroke-width: 0.8"/>
      </g>
     </g>
     <g id="text_2">
      <!-- 3 -->
      <g transform="translate(37.232813 106.935211) scale(0.1 -0.1)">
       <defs>
        <path id="DejaVuSans-33" d="M 2597 2516 
Q 3050 2419 3304 2112 
Q 3559 1806 3559 1356 
Q 3559 666 3084 287 
Q 2609 -91 1734 -91 
Q 1441 -91 1130 -33 
Q 819 25 488 141 
L 488 750 
Q 750 597 1062 519 
Q 1375 441 1716 441 
Q 2309 441 2620 675 
Q 2931 909 2931 1356 
Q 2931 1769 2642 2001 
Q 2353 2234 1838 2234 
L 1294 2234 
L 1294 2753 
L 1863 2753 
Q 2328 2753 2575 2939 
Q 2822 3125 2822 3475 
Q 2822 3834 2567 4026 
Q 2313 4219 1838 4219 
Q 1578 4219 1281 4162 
Q 984 4106 628 3988 
L 628 4550 
Q 988 4650 1302 4700 
Q 1616 4750 1894 4750 
Q 2613 4750 3031 4423 
Q 3450 4097 3450 3541 
Q 3450 3153 3228 2886 
Q 3006 2619 2597 2516 
z
" transform="scale(0.015625)"/>
       </defs>
       <use xlink:href="#DejaVuSans-33"/>
      </g>
     </g>
    </g>
    <g id="ytick_3">
     <g id="line2d_8">
      <g>
       <use xlink:href="#mfd5a7613c2" x="50.595313" y="62.889446" style="stroke: #000000; stroke-width: 0.8"/>
      </g>
     </g>
     <g id="text_3">
      <!-- 4 -->
      <g transform="translate(37.232813 66.688664) scale(0.1 -0.1)">
       <defs>
        <path id="DejaVuSans-34" d="M 2419 4116 
L 825 1625 
L 2419 1625 
L 2419 4116 
z
M 2253 4666 
L 3047 4666 
L 3047 1625 
L 3713 1625 
L 3713 1100 
L 3047 1100 
L 3047 0 
L 2419 0 
L 2419 1100 
L 313 1100 
L 313 1709 
L 2253 4666 
z
" transform="scale(0.015625)"/>
       </defs>
       <use xlink:href="#DejaVuSans-34"/>
      </g>
     </g>
    </g>
    <g id="text_4">
     <!-- $|S_{21}|$ [mV] -->
     <g transform="translate(30.832813 127.19) rotate(-90) scale(0.1 -0.1)">
      <defs>
       <path id="DejaVuSans-7c" d="M 1344 4891 
L 1344 -1509 
L 813 -1509 
L 813 4891 
L 1344 4891 
z
" transform="scale(0.015625)"/>
       <path id="DejaVuSans-Oblique-53" d="M 3859 4513 
L 3738 3897 
Q 3422 4066 3111 4152 
Q 2800 4238 2509 4238 
Q 1944 4238 1609 3991 
Q 1275 3744 1275 3334 
Q 1275 3109 1398 2989 
Q 1522 2869 2034 2731 
L 2413 2638 
Q 3053 2472 3303 2217 
Q 3553 1963 3553 1503 
Q 3553 797 2998 353 
Q 2444 -91 1538 -91 
Q 1166 -91 791 -17 
Q 416 56 38 206 
L 166 856 
Q 513 641 861 531 
Q 1209 422 1556 422 
Q 2147 422 2503 684 
Q 2859 947 2859 1369 
Q 2859 1650 2717 1795 
Q 2575 1941 2106 2059 
L 1728 2156 
Q 1081 2325 845 2545 
Q 609 2766 609 3163 
Q 609 3859 1145 4304 
Q 1681 4750 2541 4750 
Q 2875 4750 3203 4690 
Q 3531 4631 3859 4513 
z
" transform="scale(0.015625)"/>
       <path id="DejaVuSans-31" d="M 794 531 
L 1825 531 
L 1825 4091 
L 703 3866 
L 703 4441 
L 1819 4666 
L 2450 4666 
L 2450 531 
L 3481 531 
L 3481 0 
L 794 0 
L 794 531 
z
" transform="scale(0.015625)"/>
       <path id="DejaVuSans-20" transform="scale(0.015625)"/>
       <path id="DejaVuSans-5b" d="M 550 4863 
L 1875 4863 
L 1875 4416 
L 1125 4416 
L 1125 -397 
L 1875 -397 
L 1875 -844 
L 550 -844 
L 550 4863 
z
" transform="scale(0.015625)"/>
       <path id="DejaVuSans-6d" d="M 3328 2828 
Q 3544 3216 3844 3400 
Q 4144 3584 4550 3584 
Q 5097 3584 5394 3201 
Q 5691 2819 5691 2113 
L 5691 0 
L 5113 0 
L 5113 2094 
Q 5113 2597 4934 2840 
Q 4756 3084 4391 3084 
Q 3944 3084 3684 2787 
Q 3425 2491 3425 1978 
L 3425 0 
L 2847 0 
L 2847 2094 
Q 2847 2600 2669 2842 
Q 2491 3084 2119 3084 
Q 1678 3084 1418 2786 
Q 1159 2488 1159 1978 
L 1159 0 
L 581 0 
L 581 3500 
L 1159 3500 
L 1159 2956 
Q 1356 3278 1631 3431 
Q 1906 3584 2284 3584 
Q 2666 3584 2933 3390 
Q 3200 3197 3328 2828 
z
" transform="scale(0.015625)"/>
       <path id="DejaVuSans-56" d="M 1831 0 
L 50 4666 
L 709 4666 
L 2188 738 
L 3669 4666 
L 4325 4666 
L 2547 0 
L 1831 0 
z
" transform="scale(0.015625)"/>
       <path id="DejaVuSans-5d" d="M 1947 4863 
L 1947 -844 
L 622 -844 
L 622 -397 
L 1369 -397 
L 1369 4416 
L 622 4416 
L 622 4863 
L 1947 4863 
z
" transform="scale(0.015625)"/>
      </defs>
      <use xlink:href="#DejaVuSans-7c" transform="translate(0 0.578125)"/>
      <use xlink:href="#DejaVuSans-Oblique-53" transform="translate(33.691406 0.578125)"/>
      <use xlink:href="#DejaVuSans-32" transform="translate(97.167969 -15.828125) scale(0.7)"/>
      <use xlink:href="#DejaVuSans-31" transform="translate(141.704102 -15.828125) scale(0.7)"/>
      <use xlink:href="#DejaVuSans-7c" transform="translate(188.974609 0.578125)"/>
      <use xlink:href="#DejaVuSans-20" transform="translate(222.666016 0.578125)"/>
      <use xlink:href="#DejaVuSans-5b" transform="translate(254.453125 0.578125)"/>
      <use xlink:href="#DejaVuSans-6d" transform="translate(293.466797 0.578125)"/>
      <use xlink:href="#DejaVuSans-56" transform="translate(390.878906 0.578125)"/>
      <use xlink:href="#DejaVuSans-5d" transform="translate(459.287109 0.578125)"/>
     </g>
    </g>
   </g>
   <g id="line2d_9">
    <path d="M 66.82804 61.181943 
L 68.45947 65.317946 
L 70.0909 59.977504 
L 71.722329 62.411552 
L 73.353759 62.580479 
L 74.985189 65.729894 
L 76.616619 67.026929 
L 78.248049 63.899244 
L 79.879479 64.716764 
L 81.510909 62.390873 
L 83.142339 66.773231 
L 84.773768 62.573063 
L 86.405198 63.379404 
L 88.036628 63.953426 
L 89.668058 64.00774 
L 91.299488 57.720013 
L 92.930918 60.806779 
L 94.562348 60.576839 
L 96.193778 61.597649 
L 97.825207 60.668676 
L 99.456637 62.778336 
L 101.088067 64.678718 
L 102.719497 59.610935 
L 104.350927 63.508666 
L 105.982357 58.943909 
L 107.613787 59.327541 
L 109.245217 60.639612 
L 110.876646 64.787502 
L 112.508076 62.808956 
L 114.139506 59.120413 
L 115.770936 58.084912 
L 117.402366 65.444247 
L 119.033796 60.9161 
L 120.665226 59.907581 
L 122.296656 61.66257 
L 123.928085 62.016458 
L 125.559515 58.348986 
L 127.190945 60.640206 
L 128.822375 58.139419 
L 130.453805 56.646864 
L 132.085235 59.25437 
L 133.716665 56.902709 
L 135.348095 59.077405 
L 136.979524 55.288096 
L 140.242384 64.162311 
L 141.873814 59.965448 
L 145.136674 59.239722 
L 146.768104 59.643871 
L 148.399534 55.804902 
L 150.030963 60.715892 
L 151.662393 62.635942 
L 153.293823 56.380876 
L 154.925253 57.736081 
L 156.556683 54.630854 
L 158.188113 55.22606 
L 159.819543 55.424058 
L 161.450973 55.845869 
L 163.082402 51.021768 
L 164.713832 52.417278 
L 166.345262 55.828733 
L 167.976692 50.056392 
L 169.608122 52.353136 
L 171.239552 55.449207 
L 172.870982 47.258182 
L 174.502412 54.202356 
L 176.133842 52.976825 
L 177.765271 57.558944 
L 179.396701 53.181388 
L 181.028131 52.635136 
L 182.659561 50.711074 
L 184.290991 53.572226 
L 185.922421 58.076796 
L 187.553851 54.549154 
L 189.185281 53.238349 
L 190.81671 57.588036 
L 192.44814 50.936404 
L 194.07957 59.561346 
L 195.711 54.985668 
L 197.34243 64.502955 
L 198.97386 63.57228 
L 200.60529 74.561453 
L 202.23672 82.659843 
L 203.868149 89.95023 
L 205.499579 104.448408 
L 207.131009 113.28157 
L 208.762439 127.860295 
L 210.393869 127.07756 
L 212.025299 135.981949 
L 213.656729 142.581793 
L 215.288159 153.705216 
L 216.919588 151.527209 
L 218.551018 154.745803 
L 220.182448 154.765155 
L 221.813878 156.611772 
L 223.445308 157.221818 
L 225.076738 150.007821 
L 226.708168 149.323368 
L 228.339598 144.467514 
L 229.971027 136.235473 
L 231.602457 131.906189 
L 233.233887 124.883214 
L 234.865317 124.158118 
L 236.496747 120.501493 
L 238.128177 113.750095 
L 239.759607 110.796739 
L 241.391037 112.109506 
L 243.022466 103.451025 
L 244.653896 107.606304 
L 246.285326 103.22038 
L 247.916756 102.36039 
L 249.548186 96.49425 
L 251.179616 99.540115 
L 252.811046 97.582851 
L 254.442476 97.022062 
L 256.073905 100.927165 
L 257.705335 95.403165 
L 259.336765 94.229582 
L 262.599625 95.148505 
L 264.231055 86.223672 
L 265.862485 90.823301 
L 267.493915 85.610725 
L 269.125344 85.045262 
L 270.756774 91.587866 
L 272.388204 85.899199 
L 274.019634 83.477533 
L 275.651064 82.498017 
L 277.282494 89.315864 
L 278.913924 87.831865 
L 280.545354 81.161925 
L 282.176783 83.054843 
L 283.808213 82.88952 
L 285.439643 82.946443 
L 287.071073 87.880706 
L 288.702503 88.515565 
L 290.333933 78.944364 
L 291.965363 84.768942 
L 293.596793 83.13592 
L 295.228223 82.283723 
L 296.859652 81.827067 
L 300.122512 82.249725 
L 301.753942 85.369387 
L 305.016802 80.344538 
L 306.648232 80.525087 
L 308.279662 80.348529 
L 309.911091 77.538723 
L 311.542521 79.509753 
L 313.173951 76.400834 
L 314.805381 78.579725 
L 316.436811 78.044546 
L 318.068241 76.495919 
L 319.699671 81.469337 
L 321.331101 78.414157 
L 322.96253 79.419874 
L 324.59396 77.911612 
L 326.22539 77.647573 
L 327.85682 75.426216 
L 329.48825 74.446191 
L 331.11968 76.241999 
L 332.75111 76.923523 
L 334.38254 76.459304 
L 336.013969 79.057159 
L 337.645399 77.143235 
L 339.276829 71.177958 
L 340.908259 77.425437 
L 342.539689 79.469374 
L 344.171119 79.465241 
L 345.802549 73.319601 
L 347.433979 80.050208 
L 349.065408 73.93658 
L 350.696838 75.506359 
L 352.328268 78.027826 
L 353.959698 76.535534 
L 355.591128 78.694708 
L 357.222558 76.50447 
L 358.853988 75.779913 
L 360.485418 74.128666 
L 362.116847 74.93699 
L 363.748277 74.716366 
L 365.379707 74.965813 
L 367.011137 77.781447 
L 368.642567 77.075209 
L 370.273997 74.610898 
L 371.905427 70.799274 
L 373.536857 74.509492 
L 375.168286 71.828021 
L 376.799716 74.616054 
L 378.431146 73.084374 
L 380.062576 72.480539 
L 381.694006 74.966696 
L 383.325436 73.835693 
L 384.956866 77.029734 
L 386.588296 75.224146 
L 388.219725 72.281992 
L 389.851155 73.232041 
L 391.482585 73.569757 
L 391.482585 73.569757 
" clip-path="url(#p580694c9c0)" style="fill: none; stroke: #1f77b4; stroke-width: 1.5; stroke-linecap: square"/>
    <defs>
     <path id="m94bb076f39" d="M 0 1.5 
C 0.397805 1.5 0.77937 1.341951 1.06066 1.06066 
C 1.341951 0.77937 1.5 0.397805 1.5 0 
C 1.5 -0.397805 1.341951 -0.77937 1.06066 -1.06066 
C 0.77937 -1.341951 0.397805 -1.5 0 -1.5 
C -0.397805 -1.5 -0.77937 -1.341951 -1.06066 -1.06066 
C -1.341951 -0.77937 -1.5 -0.397805 -1.5 0 
C -1.5 0.397805 -1.341951 0.77937 -1.06066 1.06066 
C -0.77937 1.341951 -0.397805 1.5 0 1.5 
z
" style="stroke: #1f77b4"/>
    </defs>
    <g clip-path="url(#p580694c9c0)">
     <use xlink:href="#m94bb076f39" x="66.82804" y="61.181943" style="fill: #1f77b4; stroke: #1f77b4"/>
     <use xlink:href="#m94bb076f39" x="68.45947" y="65.317946" style="fill: #1f77b4; stroke: #1f77b4"/>
     <use xlink:href="#m94bb076f39" x="70.0909" y="59.977504" style="fill: #1f77b4; stroke: #1f77b4"/>
     <use xlink:href="#m94bb076f39" x="71.722329" y="62.411552" style="fill: #1f77b4; stroke: #1f77b4"/>
     <use xlink:href="#m94bb076f39" x="73.353759" y="62.580479" style="fill: #1f77b4; stroke: #1f77b4"/>
     <use xlink:href="#m94bb076f39" x="74.985189" y="65.729894" style="fill: #1f77b4; stroke: #1f77b4"/>
     <use xlink:href="#m94bb076f39" x="76.616619" y="67.026929" style="fill: #1f77b4; stroke: #1f77b4"/>
     <use xlink:href="#m94bb076f39" x="78.248049" y="63.899244" style="fill: #1f77b4; stroke: #1f77b4"/>
     <use xlink:href="#m94bb076f39" x="79.879479" y="64.716764" style="fill: #1f77b4; stroke: #1f77b4"/>
     <use xlink:href="#m94bb076f39" x="81.510909" y="62.390873" style="fill: #1f77b4; stroke: #1f77b4"/>
     <use xlink:href="#m94bb076f39" x="83.142339" y="66.773231" style="fill: #1f77b4; stroke: #1f77b4"/>
     <use xlink:href="#m94bb076f39" x="84.773768" y="62.573063" style="fill: #1f77b4; stroke: #1f77b4"/>
     <use xlink:href="#m94bb076f39" x="86.405198" y="63.379404" style="fill: #1f77b4; stroke: #1f77b4"/>
     <use xlink:href="#m94bb076f39" x="88.036628" y="63.953426" style="fill: #1f77b4; stroke: #1f77b4"/>
     <use xlink:href="#m94bb076f39" x="89.668058" y="64.00774" style="fill: #1f77b4; stroke: #1f77b4"/>
     <use xlink:href="#m94bb076f39" x="91.299488" y="57.720013" style="fill: #1f77b4; stroke: #1f77b4"/>
     <use xlink:href="#m94bb076f39" x="92.930918" y="60.806779" style="fill: #1f77b4; stroke: #1f77b4"/>
     <use xlink:href="#m94bb076f39" x="94.562348" y="60.576839" style="fill: #1f77b4; stroke: #1f77b4"/>
     <use xlink:href="#m94bb076f39" x="96.193778" y="61.597649" style="fill: #1f77b4; stroke: #1f77b4"/>
     <use xlink:href="#m94bb076f39" x="97.825207" y="60.668676" style="fill: #1f77b4; stroke: #1f77b4"/>
     <use xlink:href="#m94bb076f39" x="99.456637" y="62.778336" style="fill: #1f77b4; stroke: #1f77b4"/>
     <use xlink:href="#m94bb076f39" x="101.088067" y="64.678718" style="fill: #1f77b4; stroke: #1f77b4"/>
     <use xlink:href="#m94bb076f39" x="102.719497" y="59.610935" style="fill: #1f77b4; stroke: #1f77b4"/>
     <use xlink:href="#m94bb076f39" x="104.350927" y="63.508666" style="fill: #1f77b4; stroke: #1f77b4"/>
     <use xlink:href="#m94bb076f39" x="105.982357" y="58.943909" style="fill: #1f77b4; stroke: #1f77b4"/>
     <use xlink:href="#m94bb076f39" x="107.613787" y="59.327541" style="fill: #1f77b4; stroke: #1f77b4"/>
     <use xlink:href="#m94bb076f39" x="109.245217" y="60.639612" style="fill: #1f77b4; stroke: #1f77b4"/>
     <use xlink:href="#m94bb076f39" x="110.876646" y="64.787502" style="fill: #1f77b4; stroke: #1f77b4"/>
     <use xlink:href="#m94bb076f39" x="112.508076" y="62.808956" style="fill: #1f77b4; stroke: #1f77b4"/>
     <use xlink:href="#m94bb076f39" x="114.139506" y="59.120413" style="fill: #1f77b4; stroke: #1f77b4"/>
     <use xlink:href="#m94bb076f39" x="115.770936" y="58.084912" style="fill: #1f77b4; stroke: #1f77b4"/>
     <use xlink:href="#m94bb076f39" x="117.402366" y="65.444247" style="fill: #1f77b4; stroke: #1f77b4"/>
     <use xlink:href="#m94bb076f39" x="119.033796" y="60.9161" style="fill: #1f77b4; stroke: #1f77b4"/>
     <use xlink:href="#m94bb076f39" x="120.665226" y="59.907581" style="fill: #1f77b4; stroke: #1f77b4"/>
     <use xlink:href="#m94bb076f39" x="122.296656" y="61.66257" style="fill: #1f77b4; stroke: #1f77b4"/>
     <use xlink:href="#m94bb076f39" x="123.928085" y="62.016458" style="fill: #1f77b4; stroke: #1f77b4"/>
     <use xlink:href="#m94bb076f39" x="125.559515" y="58.348986" style="fill: #1f77b4; stroke: #1f77b4"/>
     <use xlink:href="#m94bb076f39" x="127.190945" y="60.640206" style="fill: #1f77b4; stroke: #1f77b4"/>
     <use xlink:href="#m94bb076f39" x="128.822375" y="58.139419" style="fill: #1f77b4; stroke: #1f77b4"/>
     <use xlink:href="#m94bb076f39" x="130.453805" y="56.646864" style="fill: #1f77b4; stroke: #1f77b4"/>
     <use xlink:href="#m94bb076f39" x="132.085235" y="59.25437" style="fill: #1f77b4; stroke: #1f77b4"/>
     <use xlink:href="#m94bb076f39" x="133.716665" y="56.902709" style="fill: #1f77b4; stroke: #1f77b4"/>
     <use xlink:href="#m94bb076f39" x="135.348095" y="59.077405" style="fill: #1f77b4; stroke: #1f77b4"/>
     <use xlink:href="#m94bb076f39" x="136.979524" y="55.288096" style="fill: #1f77b4; stroke: #1f77b4"/>
     <use xlink:href="#m94bb076f39" x="138.610954" y="59.590067" style="fill: #1f77b4; stroke: #1f77b4"/>
     <use xlink:href="#m94bb076f39" x="140.242384" y="64.162311" style="fill: #1f77b4; stroke: #1f77b4"/>
     <use xlink:href="#m94bb076f39" x="141.873814" y="59.965448" style="fill: #1f77b4; stroke: #1f77b4"/>
     <use xlink:href="#m94bb076f39" x="143.505244" y="59.582318" style="fill: #1f77b4; stroke: #1f77b4"/>
     <use xlink:href="#m94bb076f39" x="145.136674" y="59.239722" style="fill: #1f77b4; stroke: #1f77b4"/>
     <use xlink:href="#m94bb076f39" x="146.768104" y="59.643871" style="fill: #1f77b4; stroke: #1f77b4"/>
     <use xlink:href="#m94bb076f39" x="148.399534" y="55.804902" style="fill: #1f77b4; stroke: #1f77b4"/>
     <use xlink:href="#m94bb076f39" x="150.030963" y="60.715892" style="fill: #1f77b4; stroke: #1f77b4"/>
     <use xlink:href="#m94bb076f39" x="151.662393" y="62.635942" style="fill: #1f77b4; stroke: #1f77b4"/>
     <use xlink:href="#m94bb076f39" x="153.293823" y="56.380876" style="fill: #1f77b4; stroke: #1f77b4"/>
     <use xlink:href="#m94bb076f39" x="154.925253" y="57.736081" style="fill: #1f77b4; stroke: #1f77b4"/>
     <use xlink:href="#m94bb076f39" x="156.556683" y="54.630854" style="fill: #1f77b4; stroke: #1f77b4"/>
     <use xlink:href="#m94bb076f39" x="158.188113" y="55.22606" style="fill: #1f77b4; stroke: #1f77b4"/>
     <use xlink:href="#m94bb076f39" x="159.819543" y="55.424058" style="fill: #1f77b4; stroke: #1f77b4"/>
     <use xlink:href="#m94bb076f39" x="161.450973" y="55.845869" style="fill: #1f77b4; stroke: #1f77b4"/>
     <use xlink:href="#m94bb076f39" x="163.082402" y="51.021768" style="fill: #1f77b4; stroke: #1f77b4"/>
     <use xlink:href="#m94bb076f39" x="164.713832" y="52.417278" style="fill: #1f77b4; stroke: #1f77b4"/>
     <use xlink:href="#m94bb076f39" x="166.345262" y="55.828733" style="fill: #1f77b4; stroke: #1f77b4"/>
     <use xlink:href="#m94bb076f39" x="167.976692" y="50.056392" style="fill: #1f77b4; stroke: #1f77b4"/>
     <use xlink:href="#m94bb076f39" x="169.608122" y="52.353136" style="fill: #1f77b4; stroke: #1f77b4"/>
     <use xlink:href="#m94bb076f39" x="171.239552" y="55.449207" style="fill: #1f77b4; stroke: #1f77b4"/>
     <use xlink:href="#m94bb076f39" x="172.870982" y="47.258182" style="fill: #1f77b4; stroke: #1f77b4"/>
     <use xlink:href="#m94bb076f39" x="174.502412" y="54.202356" style="fill: #1f77b4; stroke: #1f77b4"/>
     <use xlink:href="#m94bb076f39" x="176.133842" y="52.976825" style="fill: #1f77b4; stroke: #1f77b4"/>
     <use xlink:href="#m94bb076f39" x="177.765271" y="57.558944" style="fill: #1f77b4; stroke: #1f77b4"/>
     <use xlink:href="#m94bb076f39" x="179.396701" y="53.181388" style="fill: #1f77b4; stroke: #1f77b4"/>
     <use xlink:href="#m94bb076f39" x="181.028131" y="52.635136" style="fill: #1f77b4; stroke: #1f77b4"/>
     <use xlink:href="#m94bb076f39" x="182.659561" y="50.711074" style="fill: #1f77b4; stroke: #1f77b4"/>
     <use xlink:href="#m94bb076f39" x="184.290991" y="53.572226" style="fill: #1f77b4; stroke: #1f77b4"/>
     <use xlink:href="#m94bb076f39" x="185.922421" y="58.076796" style="fill: #1f77b4; stroke: #1f77b4"/>
     <use xlink:href="#m94bb076f39" x="187.553851" y="54.549154" style="fill: #1f77b4; stroke: #1f77b4"/>
     <use xlink:href="#m94bb076f39" x="189.185281" y="53.238349" style="fill: #1f77b4; stroke: #1f77b4"/>
     <use xlink:href="#m94bb076f39" x="190.81671" y="57.588036" style="fill: #1f77b4; stroke: #1f77b4"/>
     <use xlink:href="#m94bb076f39" x="192.44814" y="50.936404" style="fill: #1f77b4; stroke: #1f77b4"/>
     <use xlink:href="#m94bb076f39" x="194.07957" y="59.561346" style="fill: #1f77b4; stroke: #1f77b4"/>
     <use xlink:href="#m94bb076f39" x="195.711" y="54.985668" style="fill: #1f77b4; stroke: #1f77b4"/>
     <use xlink:href="#m94bb076f39" x="197.34243" y="64.502955" style="fill: #1f77b4; stroke: #1f77b4"/>
     <use xlink:href="#m94bb076f39" x="198.97386" y="63.57228" style="fill: #1f77b4; stroke: #1f77b4"/>
     <use xlink:href="#m94bb076f39" x="200.60529" y="74.561453" style="fill: #1f77b4; stroke: #1f77b4"/>
     <use xlink:href="#m94bb076f39" x="202.23672" y="82.659843" style="fill: #1f77b4; stroke: #1f77b4"/>
     <use xlink:href="#m94bb076f39" x="203.868149" y="89.95023" style="fill: #1f77b4; stroke: #1f77b4"/>
     <use xlink:href="#m94bb076f39" x="205.499579" y="104.448408" style="fill: #1f77b4; stroke: #1f77b4"/>
     <use xlink:href="#m94bb076f39" x="207.131009" y="113.28157" style="fill: #1f77b4; stroke: #1f77b4"/>
     <use xlink:href="#m94bb076f39" x="208.762439" y="127.860295" style="fill: #1f77b4; stroke: #1f77b4"/>
     <use xlink:href="#m94bb076f39" x="210.393869" y="127.07756" style="fill: #1f77b4; stroke: #1f77b4"/>
     <use xlink:href="#m94bb076f39" x="212.025299" y="135.981949" style="fill: #1f77b4; stroke: #1f77b4"/>
     <use xlink:href="#m94bb076f39" x="213.656729" y="142.581793" style="fill: #1f77b4; stroke: #1f77b4"/>
     <use xlink:href="#m94bb076f39" x="215.288159" y="153.705216" style="fill: #1f77b4; stroke: #1f77b4"/>
     <use xlink:href="#m94bb076f39" x="216.919588" y="151.527209" style="fill: #1f77b4; stroke: #1f77b4"/>
     <use xlink:href="#m94bb076f39" x="218.551018" y="154.745803" style="fill: #1f77b4; stroke: #1f77b4"/>
     <use xlink:href="#m94bb076f39" x="220.182448" y="154.765155" style="fill: #1f77b4; stroke: #1f77b4"/>
     <use xlink:href="#m94bb076f39" x="221.813878" y="156.611772" style="fill: #1f77b4; stroke: #1f77b4"/>
     <use xlink:href="#m94bb076f39" x="223.445308" y="157.221818" style="fill: #1f77b4; stroke: #1f77b4"/>
     <use xlink:href="#m94bb076f39" x="225.076738" y="150.007821" style="fill: #1f77b4; stroke: #1f77b4"/>
     <use xlink:href="#m94bb076f39" x="226.708168" y="149.323368" style="fill: #1f77b4; stroke: #1f77b4"/>
     <use xlink:href="#m94bb076f39" x="228.339598" y="144.467514" style="fill: #1f77b4; stroke: #1f77b4"/>
     <use xlink:href="#m94bb076f39" x="229.971027" y="136.235473" style="fill: #1f77b4; stroke: #1f77b4"/>
     <use xlink:href="#m94bb076f39" x="231.602457" y="131.906189" style="fill: #1f77b4; stroke: #1f77b4"/>
     <use xlink:href="#m94bb076f39" x="233.233887" y="124.883214" style="fill: #1f77b4; stroke: #1f77b4"/>
     <use xlink:href="#m94bb076f39" x="234.865317" y="124.158118" style="fill: #1f77b4; stroke: #1f77b4"/>
     <use xlink:href="#m94bb076f39" x="236.496747" y="120.501493" style="fill: #1f77b4; stroke: #1f77b4"/>
     <use xlink:href="#m94bb076f39" x="238.128177" y="113.750095" style="fill: #1f77b4; stroke: #1f77b4"/>
     <use xlink:href="#m94bb076f39" x="239.759607" y="110.796739" style="fill: #1f77b4; stroke: #1f77b4"/>
     <use xlink:href="#m94bb076f39" x="241.391037" y="112.109506" style="fill: #1f77b4; stroke: #1f77b4"/>
     <use xlink:href="#m94bb076f39" x="243.022466" y="103.451025" style="fill: #1f77b4; stroke: #1f77b4"/>
     <use xlink:href="#m94bb076f39" x="244.653896" y="107.606304" style="fill: #1f77b4; stroke: #1f77b4"/>
     <use xlink:href="#m94bb076f39" x="246.285326" y="103.22038" style="fill: #1f77b4; stroke: #1f77b4"/>
     <use xlink:href="#m94bb076f39" x="247.916756" y="102.36039" style="fill: #1f77b4; stroke: #1f77b4"/>
     <use xlink:href="#m94bb076f39" x="249.548186" y="96.49425" style="fill: #1f77b4; stroke: #1f77b4"/>
     <use xlink:href="#m94bb076f39" x="251.179616" y="99.540115" style="fill: #1f77b4; stroke: #1f77b4"/>
     <use xlink:href="#m94bb076f39" x="252.811046" y="97.582851" style="fill: #1f77b4; stroke: #1f77b4"/>
     <use xlink:href="#m94bb076f39" x="254.442476" y="97.022062" style="fill: #1f77b4; stroke: #1f77b4"/>
     <use xlink:href="#m94bb076f39" x="256.073905" y="100.927165" style="fill: #1f77b4; stroke: #1f77b4"/>
     <use xlink:href="#m94bb076f39" x="257.705335" y="95.403165" style="fill: #1f77b4; stroke: #1f77b4"/>
     <use xlink:href="#m94bb076f39" x="259.336765" y="94.229582" style="fill: #1f77b4; stroke: #1f77b4"/>
     <use xlink:href="#m94bb076f39" x="260.968195" y="94.657928" style="fill: #1f77b4; stroke: #1f77b4"/>
     <use xlink:href="#m94bb076f39" x="262.599625" y="95.148505" style="fill: #1f77b4; stroke: #1f77b4"/>
     <use xlink:href="#m94bb076f39" x="264.231055" y="86.223672" style="fill: #1f77b4; stroke: #1f77b4"/>
     <use xlink:href="#m94bb076f39" x="265.862485" y="90.823301" style="fill: #1f77b4; stroke: #1f77b4"/>
     <use xlink:href="#m94bb076f39" x="267.493915" y="85.610725" style="fill: #1f77b4; stroke: #1f77b4"/>
     <use xlink:href="#m94bb076f39" x="269.125344" y="85.045262" style="fill: #1f77b4; stroke: #1f77b4"/>
     <use xlink:href="#m94bb076f39" x="270.756774" y="91.587866" style="fill: #1f77b4; stroke: #1f77b4"/>
     <use xlink:href="#m94bb076f39" x="272.388204" y="85.899199" style="fill: #1f77b4; stroke: #1f77b4"/>
     <use xlink:href="#m94bb076f39" x="274.019634" y="83.477533" style="fill: #1f77b4; stroke: #1f77b4"/>
     <use xlink:href="#m94bb076f39" x="275.651064" y="82.498017" style="fill: #1f77b4; stroke: #1f77b4"/>
     <use xlink:href="#m94bb076f39" x="277.282494" y="89.315864" style="fill: #1f77b4; stroke: #1f77b4"/>
     <use xlink:href="#m94bb076f39" x="278.913924" y="87.831865" style="fill: #1f77b4; stroke: #1f77b4"/>
     <use xlink:href="#m94bb076f39" x="280.545354" y="81.161925" style="fill: #1f77b4; stroke: #1f77b4"/>
     <use xlink:href="#m94bb076f39" x="282.176783" y="83.054843" style="fill: #1f77b4; stroke: #1f77b4"/>
     <use xlink:href="#m94bb076f39" x="283.808213" y="82.88952" style="fill: #1f77b4; stroke: #1f77b4"/>
     <use xlink:href="#m94bb076f39" x="285.439643" y="82.946443" style="fill: #1f77b4; stroke: #1f77b4"/>
     <use xlink:href="#m94bb076f39" x="287.071073" y="87.880706" style="fill: #1f77b4; stroke: #1f77b4"/>
     <use xlink:href="#m94bb076f39" x="288.702503" y="88.515565" style="fill: #1f77b4; stroke: #1f77b4"/>
     <use xlink:href="#m94bb076f39" x="290.333933" y="78.944364" style="fill: #1f77b4; stroke: #1f77b4"/>
     <use xlink:href="#m94bb076f39" x="291.965363" y="84.768942" style="fill: #1f77b4; stroke: #1f77b4"/>
     <use xlink:href="#m94bb076f39" x="293.596793" y="83.13592" style="fill: #1f77b4; stroke: #1f77b4"/>
     <use xlink:href="#m94bb076f39" x="295.228223" y="82.283723" style="fill: #1f77b4; stroke: #1f77b4"/>
     <use xlink:href="#m94bb076f39" x="296.859652" y="81.827067" style="fill: #1f77b4; stroke: #1f77b4"/>
     <use xlink:href="#m94bb076f39" x="298.491082" y="82.079969" style="fill: #1f77b4; stroke: #1f77b4"/>
     <use xlink:href="#m94bb076f39" x="300.122512" y="82.249725" style="fill: #1f77b4; stroke: #1f77b4"/>
     <use xlink:href="#m94bb076f39" x="301.753942" y="85.369387" style="fill: #1f77b4; stroke: #1f77b4"/>
     <use xlink:href="#m94bb076f39" x="303.385372" y="82.954354" style="fill: #1f77b4; stroke: #1f77b4"/>
     <use xlink:href="#m94bb076f39" x="305.016802" y="80.344538" style="fill: #1f77b4; stroke: #1f77b4"/>
     <use xlink:href="#m94bb076f39" x="306.648232" y="80.525087" style="fill: #1f77b4; stroke: #1f77b4"/>
     <use xlink:href="#m94bb076f39" x="308.279662" y="80.348529" style="fill: #1f77b4; stroke: #1f77b4"/>
     <use xlink:href="#m94bb076f39" x="309.911091" y="77.538723" style="fill: #1f77b4; stroke: #1f77b4"/>
     <use xlink:href="#m94bb076f39" x="311.542521" y="79.509753" style="fill: #1f77b4; stroke: #1f77b4"/>
     <use xlink:href="#m94bb076f39" x="313.173951" y="76.400834" style="fill: #1f77b4; stroke: #1f77b4"/>
     <use xlink:href="#m94bb076f39" x="314.805381" y="78.579725" style="fill: #1f77b4; stroke: #1f77b4"/>
     <use xlink:href="#m94bb076f39" x="316.436811" y="78.044546" style="fill: #1f77b4; stroke: #1f77b4"/>
     <use xlink:href="#m94bb076f39" x="318.068241" y="76.495919" style="fill: #1f77b4; stroke: #1f77b4"/>
     <use xlink:href="#m94bb076f39" x="319.699671" y="81.469337" style="fill: #1f77b4; stroke: #1f77b4"/>
     <use xlink:href="#m94bb076f39" x="321.331101" y="78.414157" style="fill: #1f77b4; stroke: #1f77b4"/>
     <use xlink:href="#m94bb076f39" x="322.96253" y="79.419874" style="fill: #1f77b4; stroke: #1f77b4"/>
     <use xlink:href="#m94bb076f39" x="324.59396" y="77.911612" style="fill: #1f77b4; stroke: #1f77b4"/>
     <use xlink:href="#m94bb076f39" x="326.22539" y="77.647573" style="fill: #1f77b4; stroke: #1f77b4"/>
     <use xlink:href="#m94bb076f39" x="327.85682" y="75.426216" style="fill: #1f77b4; stroke: #1f77b4"/>
     <use xlink:href="#m94bb076f39" x="329.48825" y="74.446191" style="fill: #1f77b4; stroke: #1f77b4"/>
     <use xlink:href="#m94bb076f39" x="331.11968" y="76.241999" style="fill: #1f77b4; stroke: #1f77b4"/>
     <use xlink:href="#m94bb076f39" x="332.75111" y="76.923523" style="fill: #1f77b4; stroke: #1f77b4"/>
     <use xlink:href="#m94bb076f39" x="334.38254" y="76.459304" style="fill: #1f77b4; stroke: #1f77b4"/>
     <use xlink:href="#m94bb076f39" x="336.013969" y="79.057159" style="fill: #1f77b4; stroke: #1f77b4"/>
     <use xlink:href="#m94bb076f39" x="337.645399" y="77.143235" style="fill: #1f77b4; stroke: #1f77b4"/>
     <use xlink:href="#m94bb076f39" x="339.276829" y="71.177958" style="fill: #1f77b4; stroke: #1f77b4"/>
     <use xlink:href="#m94bb076f39" x="340.908259" y="77.425437" style="fill: #1f77b4; stroke: #1f77b4"/>
     <use xlink:href="#m94bb076f39" x="342.539689" y="79.469374" style="fill: #1f77b4; stroke: #1f77b4"/>
     <use xlink:href="#m94bb076f39" x="344.171119" y="79.465241" style="fill: #1f77b4; stroke: #1f77b4"/>
     <use xlink:href="#m94bb076f39" x="345.802549" y="73.319601" style="fill: #1f77b4; stroke: #1f77b4"/>
     <use xlink:href="#m94bb076f39" x="347.433979" y="80.050208" style="fill: #1f77b4; stroke: #1f77b4"/>
     <use xlink:href="#m94bb076f39" x="349.065408" y="73.93658" style="fill: #1f77b4; stroke: #1f77b4"/>
     <use xlink:href="#m94bb076f39" x="350.696838" y="75.506359" style="fill: #1f77b4; stroke: #1f77b4"/>
     <use xlink:href="#m94bb076f39" x="352.328268" y="78.027826" style="fill: #1f77b4; stroke: #1f77b4"/>
     <use xlink:href="#m94bb076f39" x="353.959698" y="76.535534" style="fill: #1f77b4; stroke: #1f77b4"/>
     <use xlink:href="#m94bb076f39" x="355.591128" y="78.694708" style="fill: #1f77b4; stroke: #1f77b4"/>
     <use xlink:href="#m94bb076f39" x="357.222558" y="76.50447" style="fill: #1f77b4; stroke: #1f77b4"/>
     <use xlink:href="#m94bb076f39" x="358.853988" y="75.779913" style="fill: #1f77b4; stroke: #1f77b4"/>
     <use xlink:href="#m94bb076f39" x="360.485418" y="74.128666" style="fill: #1f77b4; stroke: #1f77b4"/>
     <use xlink:href="#m94bb076f39" x="362.116847" y="74.93699" style="fill: #1f77b4; stroke: #1f77b4"/>
     <use xlink:href="#m94bb076f39" x="363.748277" y="74.716366" style="fill: #1f77b4; stroke: #1f77b4"/>
     <use xlink:href="#m94bb076f39" x="365.379707" y="74.965813" style="fill: #1f77b4; stroke: #1f77b4"/>
     <use xlink:href="#m94bb076f39" x="367.011137" y="77.781447" style="fill: #1f77b4; stroke: #1f77b4"/>
     <use xlink:href="#m94bb076f39" x="368.642567" y="77.075209" style="fill: #1f77b4; stroke: #1f77b4"/>
     <use xlink:href="#m94bb076f39" x="370.273997" y="74.610898" style="fill: #1f77b4; stroke: #1f77b4"/>
     <use xlink:href="#m94bb076f39" x="371.905427" y="70.799274" style="fill: #1f77b4; stroke: #1f77b4"/>
     <use xlink:href="#m94bb076f39" x="373.536857" y="74.509492" style="fill: #1f77b4; stroke: #1f77b4"/>
     <use xlink:href="#m94bb076f39" x="375.168286" y="71.828021" style="fill: #1f77b4; stroke: #1f77b4"/>
     <use xlink:href="#m94bb076f39" x="376.799716" y="74.616054" style="fill: #1f77b4; stroke: #1f77b4"/>
     <use xlink:href="#m94bb076f39" x="378.431146" y="73.084374" style="fill: #1f77b4; stroke: #1f77b4"/>
     <use xlink:href="#m94bb076f39" x="380.062576" y="72.480539" style="fill: #1f77b4; stroke: #1f77b4"/>
     <use xlink:href="#m94bb076f39" x="381.694006" y="74.966696" style="fill: #1f77b4; stroke: #1f77b4"/>
     <use xlink:href="#m94bb076f39" x="383.325436" y="73.835693" style="fill: #1f77b4; stroke: #1f77b4"/>
     <use xlink:href="#m94bb076f39" x="384.956866" y="77.029734" style="fill: #1f77b4; stroke: #1f77b4"/>
     <use xlink:href="#m94bb076f39" x="386.588296" y="75.224146" style="fill: #1f77b4; stroke: #1f77b4"/>
     <use xlink:href="#m94bb076f39" x="388.219725" y="72.281992" style="fill: #1f77b4; stroke: #1f77b4"/>
     <use xlink:href="#m94bb076f39" x="389.851155" y="73.232041" style="fill: #1f77b4; stroke: #1f77b4"/>
     <use xlink:href="#m94bb076f39" x="391.482585" y="73.569757" style="fill: #1f77b4; stroke: #1f77b4"/>
    </g>
   </g>
   <g id="line2d_10">
    <path d="M 66.82804 78.965047 
L 89.901586 78.314323 
L 107.77546 77.596632 
L 121.749579 76.822965 
L 133.123863 75.976701 
L 142.22329 75.087913 
L 150.022798 74.105703 
L 156.522389 73.064968 
L 162.047041 71.958449 
L 166.921733 70.751044 
L 171.146467 69.470856 
L 174.721242 68.16735 
L 177.971037 66.761295 
L 180.895853 65.276248 
L 183.820669 63.546486 
L 186.745484 61.547415 
L 189.99528 59.038984 
L 193.895034 56.006328 
L 195.194952 55.215192 
L 196.169891 54.80666 
L 197.144829 54.639584 
L 197.794788 54.709028 
L 198.444747 54.961512 
L 199.094706 55.433606 
L 199.744665 56.163772 
L 200.394625 57.190197 
L 201.044584 58.547667 
L 202.019522 61.261155 
L 202.994461 64.813873 
L 204.294379 70.736843 
L 206.244256 81.128928 
L 208.194133 91.107987 
L 209.494051 96.468804 
L 210.46899 99.600407 
L 211.443928 101.973131 
L 212.418867 103.659128 
L 213.393806 104.762254 
L 214.368744 105.3944 
L 215.343683 105.660577 
L 216.318621 105.651554 
L 217.618539 105.337615 
L 219.243437 104.640272 
L 221.843273 103.198041 
L 228.017884 99.689265 
L 231.592659 97.965334 
L 235.167434 96.496289 
L 239.067188 95.145923 
L 243.291922 93.925838 
L 248.166615 92.764855 
L 253.691267 91.693514 
L 259.865878 90.725828 
L 267.340407 89.791381 
L 276.114854 88.93094 
L 286.514199 88.141435 
L 299.1884 87.408783 
L 314.787417 86.736064 
L 334.611168 86.114298 
L 359.959571 85.55334 
L 391.482585 85.073644 
L 391.482585 85.073644 
" clip-path="url(#p580694c9c0)" style="fill: none; stroke: #d62728; stroke-width: 1.5; stroke-linecap: square"/>
   </g>
   <g id="patch_3">
    <path d="M 50.595313 162.72 
L 50.595313 41.76 
" style="fill: none; stroke: #000000; stroke-width: 0.8; stroke-linejoin: miter; stroke-linecap: square"/>
   </g>
   <g id="patch_4">
    <path d="M 407.715312 162.72 
L 407.715312 41.76 
" style="fill: none; stroke: #000000; stroke-width: 0.8; stroke-linejoin: miter; stroke-linecap: square"/>
   </g>
   <g id="patch_5">
    <path d="M 50.595312 162.72 
L 407.715312 162.72 
" style="fill: none; stroke: #000000; stroke-width: 0.8; stroke-linejoin: miter; stroke-linecap: square"/>
   </g>
   <g id="patch_6">
    <path d="M 50.595312 41.76 
L 407.715312 41.76 
" style="fill: none; stroke: #000000; stroke-width: 0.8; stroke-linejoin: miter; stroke-linecap: square"/>
   </g>
   <g id="text_5">
    <g id="patch_7">
     <path d="M 425.571312 95.079562 
L 564.171312 95.079562 
Q 568.171312 95.079562 568.171312 91.079562 
L 568.171312 47.808 
Q 568.171312 43.808 564.171312 43.808 
L 425.571312 43.808 
Q 421.571312 43.808 421.571312 47.808 
L 421.571312 91.079562 
Q 421.571312 95.079562 425.571312 95.079562 
z
" style="fill: #ffffff; opacity: 0.5; stroke: #000000; stroke-linejoin: miter"/>
    </g>
    <!-- Summary -->
    <g transform="translate(425.571312 55.406437) scale(0.1 -0.1)">
     <defs>
      <path id="DejaVuSans-53" d="M 3425 4513 
L 3425 3897 
Q 3066 4069 2747 4153 
Q 2428 4238 2131 4238 
Q 1616 4238 1336 4038 
Q 1056 3838 1056 3469 
Q 1056 3159 1242 3001 
Q 1428 2844 1947 2747 
L 2328 2669 
Q 3034 2534 3370 2195 
Q 3706 1856 3706 1288 
Q 3706 609 3251 259 
Q 2797 -91 1919 -91 
Q 1588 -91 1214 -16 
Q 841 59 441 206 
L 441 856 
Q 825 641 1194 531 
Q 1563 422 1919 422 
Q 2459 422 2753 634 
Q 3047 847 3047 1241 
Q 3047 1584 2836 1778 
Q 2625 1972 2144 2069 
L 1759 2144 
Q 1053 2284 737 2584 
Q 422 2884 422 3419 
Q 422 4038 858 4394 
Q 1294 4750 2059 4750 
Q 2388 4750 2728 4690 
Q 3069 4631 3425 4513 
z
" transform="scale(0.015625)"/>
      <path id="DejaVuSans-75" d="M 544 1381 
L 544 3500 
L 1119 3500 
L 1119 1403 
Q 1119 906 1312 657 
Q 1506 409 1894 409 
Q 2359 409 2629 706 
Q 2900 1003 2900 1516 
L 2900 3500 
L 3475 3500 
L 3475 0 
L 2900 0 
L 2900 538 
Q 2691 219 2414 64 
Q 2138 -91 1772 -91 
Q 1169 -91 856 284 
Q 544 659 544 1381 
z
M 1991 3584 
L 1991 3584 
z
" transform="scale(0.015625)"/>
      <path id="DejaVuSans-61" d="M 2194 1759 
Q 1497 1759 1228 1600 
Q 959 1441 959 1056 
Q 959 750 1161 570 
Q 1363 391 1709 391 
Q 2188 391 2477 730 
Q 2766 1069 2766 1631 
L 2766 1759 
L 2194 1759 
z
M 3341 1997 
L 3341 0 
L 2766 0 
L 2766 531 
Q 2569 213 2275 61 
Q 1981 -91 1556 -91 
Q 1019 -91 701 211 
Q 384 513 384 1019 
Q 384 1609 779 1909 
Q 1175 2209 1959 2209 
L 2766 2209 
L 2766 2266 
Q 2766 2663 2505 2880 
Q 2244 3097 1772 3097 
Q 1472 3097 1187 3025 
Q 903 2953 641 2809 
L 641 3341 
Q 956 3463 1253 3523 
Q 1550 3584 1831 3584 
Q 2591 3584 2966 3190 
Q 3341 2797 3341 1997 
z
" transform="scale(0.015625)"/>
      <path id="DejaVuSans-72" d="M 2631 2963 
Q 2534 3019 2420 3045 
Q 2306 3072 2169 3072 
Q 1681 3072 1420 2755 
Q 1159 2438 1159 1844 
L 1159 0 
L 581 0 
L 581 3500 
L 1159 3500 
L 1159 2956 
Q 1341 3275 1631 3429 
Q 1922 3584 2338 3584 
Q 2397 3584 2469 3576 
Q 2541 3569 2628 3553 
L 2631 2963 
z
" transform="scale(0.015625)"/>
      <path id="DejaVuSans-79" d="M 2059 -325 
Q 1816 -950 1584 -1140 
Q 1353 -1331 966 -1331 
L 506 -1331 
L 506 -850 
L 844 -850 
Q 1081 -850 1212 -737 
Q 1344 -625 1503 -206 
L 1606 56 
L 191 3500 
L 800 3500 
L 1894 763 
L 2988 3500 
L 3597 3500 
L 2059 -325 
z
" transform="scale(0.015625)"/>
     </defs>
     <use xlink:href="#DejaVuSans-53"/>
     <use xlink:href="#DejaVuSans-75" x="63.476562"/>
     <use xlink:href="#DejaVuSans-6d" x="126.855469"/>
     <use xlink:href="#DejaVuSans-6d" x="224.267578"/>
     <use xlink:href="#DejaVuSans-61" x="321.679688"/>
     <use xlink:href="#DejaVuSans-72" x="382.958984"/>
     <use xlink:href="#DejaVuSans-79" x="424.072266"/>
    </g>
    <!-- $Q_I$: 10.2$\pm$3.2 k -->
    <g transform="translate(425.571312 66.60425) scale(0.1 -0.1)">
     <defs>
      <path id="DejaVuSans-Oblique-51" d="M 2309 -84 
Q 2275 -88 2237 -89 
Q 2200 -91 2125 -91 
Q 1250 -91 756 411 
Q 263 913 263 1797 
Q 263 2319 452 2844 
Q 641 3369 978 3788 
Q 1369 4269 1858 4509 
Q 2347 4750 2938 4750 
Q 3794 4750 4287 4245 
Q 4781 3741 4781 2869 
Q 4781 1928 4265 1147 
Q 3750 366 2919 44 
L 3553 -825 
L 2847 -825 
L 2309 -84 
z
M 2919 4238 
Q 2400 4238 2003 3986 
Q 1606 3734 1313 3219 
Q 1125 2891 1026 2522 
Q 928 2153 928 1778 
Q 928 1128 1239 775 
Q 1550 422 2119 422 
Q 2631 422 3032 676 
Q 3434 931 3719 1434 
Q 3909 1772 4009 2142 
Q 4109 2513 4109 2881 
Q 4109 3528 3796 3883 
Q 3484 4238 2919 4238 
z
" transform="scale(0.015625)"/>
      <path id="DejaVuSans-Oblique-49" d="M 1081 4666 
L 1716 4666 
L 806 0 
L 172 0 
L 1081 4666 
z
" transform="scale(0.015625)"/>
      <path id="DejaVuSans-3a" d="M 750 794 
L 1409 794 
L 1409 0 
L 750 0 
L 750 794 
z
M 750 3309 
L 1409 3309 
L 1409 2516 
L 750 2516 
L 750 3309 
z
" transform="scale(0.015625)"/>
      <path id="DejaVuSans-30" d="M 2034 4250 
Q 1547 4250 1301 3770 
Q 1056 3291 1056 2328 
Q 1056 1369 1301 889 
Q 1547 409 2034 409 
Q 2525 409 2770 889 
Q 3016 1369 3016 2328 
Q 3016 3291 2770 3770 
Q 2525 4250 2034 4250 
z
M 2034 4750 
Q 2819 4750 3233 4129 
Q 3647 3509 3647 2328 
Q 3647 1150 3233 529 
Q 2819 -91 2034 -91 
Q 1250 -91 836 529 
Q 422 1150 422 2328 
Q 422 3509 836 4129 
Q 1250 4750 2034 4750 
z
" transform="scale(0.015625)"/>
      <path id="DejaVuSans-2e" d="M 684 794 
L 1344 794 
L 1344 0 
L 684 0 
L 684 794 
z
" transform="scale(0.015625)"/>
      <path id="DejaVuSans-b1" d="M 2944 4013 
L 2944 2803 
L 4684 2803 
L 4684 2272 
L 2944 2272 
L 2944 1063 
L 2419 1063 
L 2419 2272 
L 678 2272 
L 678 2803 
L 2419 2803 
L 2419 4013 
L 2944 4013 
z
M 678 531 
L 4684 531 
L 4684 0 
L 678 0 
L 678 531 
z
" transform="scale(0.015625)"/>
      <path id="DejaVuSans-6b" d="M 581 4863 
L 1159 4863 
L 1159 1991 
L 2875 3500 
L 3609 3500 
L 1753 1863 
L 3688 0 
L 2938 0 
L 1159 1709 
L 1159 0 
L 581 0 
L 581 4863 
z
" transform="scale(0.015625)"/>
     </defs>
     <use xlink:href="#DejaVuSans-Oblique-51" transform="translate(0 0.015625)"/>
     <use xlink:href="#DejaVuSans-Oblique-49" transform="translate(78.710938 -16.390625) scale(0.7)"/>
     <use xlink:href="#DejaVuSans-3a" transform="translate(102.089844 0.015625)"/>
     <use xlink:href="#DejaVuSans-20" transform="translate(135.78125 0.015625)"/>
     <use xlink:href="#DejaVuSans-31" transform="translate(167.568359 0.015625)"/>
     <use xlink:href="#DejaVuSans-30" transform="translate(231.191406 0.015625)"/>
     <use xlink:href="#DejaVuSans-2e" transform="translate(294.814453 0.015625)"/>
     <use xlink:href="#DejaVuSans-32" transform="translate(321.101562 0.015625)"/>
     <use xlink:href="#DejaVuSans-b1" transform="translate(384.724609 0.015625)"/>
     <use xlink:href="#DejaVuSans-33" transform="translate(468.513672 0.015625)"/>
     <use xlink:href="#DejaVuSans-2e" transform="translate(532.136719 0.015625)"/>
     <use xlink:href="#DejaVuSans-32" transform="translate(558.423828 0.015625)"/>
     <use xlink:href="#DejaVuSans-20" transform="translate(622.046875 0.015625)"/>
     <use xlink:href="#DejaVuSans-6b" transform="translate(653.833984 0.015625)"/>
    </g>
    <!-- $Q_C$: 1.2e+02$\pm$1.1e+05 M -->
    <g transform="translate(425.571312 77.802062) scale(0.1 -0.1)">
     <defs>
      <path id="DejaVuSans-Oblique-43" d="M 4447 4306 
L 4319 3641 
Q 4019 3944 3683 4091 
Q 3347 4238 2956 4238 
Q 2422 4238 2017 3981 
Q 1613 3725 1319 3200 
Q 1131 2863 1032 2486 
Q 934 2109 934 1728 
Q 934 1091 1264 756 
Q 1594 422 2222 422 
Q 2656 422 3056 561 
Q 3456 700 3834 978 
L 3688 231 
Q 3316 72 2936 -9 
Q 2556 -91 2175 -91 
Q 1278 -91 773 396 
Q 269 884 269 1753 
Q 269 2309 461 2846 
Q 653 3384 1013 3828 
Q 1394 4300 1883 4525 
Q 2372 4750 3022 4750 
Q 3422 4750 3780 4639 
Q 4138 4528 4447 4306 
z
" transform="scale(0.015625)"/>
      <path id="DejaVuSans-65" d="M 3597 1894 
L 3597 1613 
L 953 1613 
Q 991 1019 1311 708 
Q 1631 397 2203 397 
Q 2534 397 2845 478 
Q 3156 559 3463 722 
L 3463 178 
Q 3153 47 2828 -22 
Q 2503 -91 2169 -91 
Q 1331 -91 842 396 
Q 353 884 353 1716 
Q 353 2575 817 3079 
Q 1281 3584 2069 3584 
Q 2775 3584 3186 3129 
Q 3597 2675 3597 1894 
z
M 3022 2063 
Q 3016 2534 2758 2815 
Q 2500 3097 2075 3097 
Q 1594 3097 1305 2825 
Q 1016 2553 972 2059 
L 3022 2063 
z
" transform="scale(0.015625)"/>
      <path id="DejaVuSans-2b" d="M 2944 4013 
L 2944 2272 
L 4684 2272 
L 4684 1741 
L 2944 1741 
L 2944 0 
L 2419 0 
L 2419 1741 
L 678 1741 
L 678 2272 
L 2419 2272 
L 2419 4013 
L 2944 4013 
z
" transform="scale(0.015625)"/>
      <path id="DejaVuSans-35" d="M 691 4666 
L 3169 4666 
L 3169 4134 
L 1269 4134 
L 1269 2991 
Q 1406 3038 1543 3061 
Q 1681 3084 1819 3084 
Q 2600 3084 3056 2656 
Q 3513 2228 3513 1497 
Q 3513 744 3044 326 
Q 2575 -91 1722 -91 
Q 1428 -91 1123 -41 
Q 819 9 494 109 
L 494 744 
Q 775 591 1075 516 
Q 1375 441 1709 441 
Q 2250 441 2565 725 
Q 2881 1009 2881 1497 
Q 2881 1984 2565 2268 
Q 2250 2553 1709 2553 
Q 1456 2553 1204 2497 
Q 953 2441 691 2322 
L 691 4666 
z
" transform="scale(0.015625)"/>
      <path id="DejaVuSans-4d" d="M 628 4666 
L 1569 4666 
L 2759 1491 
L 3956 4666 
L 4897 4666 
L 4897 0 
L 4281 0 
L 4281 4097 
L 3078 897 
L 2444 897 
L 1241 4097 
L 1241 0 
L 628 0 
L 628 4666 
z
" transform="scale(0.015625)"/>
     </defs>
     <use xlink:href="#DejaVuSans-Oblique-51" transform="translate(0 0.78125)"/>
     <use xlink:href="#DejaVuSans-Oblique-43" transform="translate(78.710938 -15.625) scale(0.7)"/>
     <use xlink:href="#DejaVuSans-3a" transform="translate(130.322266 0.78125)"/>
     <use xlink:href="#DejaVuSans-20" transform="translate(164.013672 0.78125)"/>
     <use xlink:href="#DejaVuSans-31" transform="translate(195.800781 0.78125)"/>
     <use xlink:href="#DejaVuSans-2e" transform="translate(259.423828 0.78125)"/>
     <use xlink:href="#DejaVuSans-32" transform="translate(285.710938 0.78125)"/>
     <use xlink:href="#DejaVuSans-65" transform="translate(349.333984 0.78125)"/>
     <use xlink:href="#DejaVuSans-2b" transform="translate(410.857422 0.78125)"/>
     <use xlink:href="#DejaVuSans-30" transform="translate(494.646484 0.78125)"/>
     <use xlink:href="#DejaVuSans-32" transform="translate(558.269531 0.78125)"/>
     <use xlink:href="#DejaVuSans-b1" transform="translate(621.892578 0.78125)"/>
     <use xlink:href="#DejaVuSans-31" transform="translate(705.681641 0.78125)"/>
     <use xlink:href="#DejaVuSans-2e" transform="translate(769.304688 0.78125)"/>
     <use xlink:href="#DejaVuSans-31" transform="translate(801.091797 0.78125)"/>
     <use xlink:href="#DejaVuSans-65" transform="translate(864.714844 0.78125)"/>
     <use xlink:href="#DejaVuSans-2b" transform="translate(926.238281 0.78125)"/>
     <use xlink:href="#DejaVuSans-30" transform="translate(1010.027344 0.78125)"/>
     <use xlink:href="#DejaVuSans-35" transform="translate(1073.650391 0.78125)"/>
     <use xlink:href="#DejaVuSans-20" transform="translate(1137.273438 0.78125)"/>
     <use xlink:href="#DejaVuSans-4d" transform="translate(1169.060547 0.78125)"/>
    </g>
    <!-- $f_{res}$: 5.719601$\pm$8.6e-05 GHz -->
    <g transform="translate(425.571312 88.999875) scale(0.1 -0.1)">
     <defs>
      <path id="DejaVuSans-Oblique-66" d="M 3059 4863 
L 2969 4384 
L 2419 4384 
Q 2106 4384 1964 4261 
Q 1822 4138 1753 3809 
L 1691 3500 
L 2638 3500 
L 2553 3053 
L 1606 3053 
L 1013 0 
L 434 0 
L 1031 3053 
L 481 3053 
L 563 3500 
L 1113 3500 
L 1159 3744 
Q 1278 4363 1576 4613 
Q 1875 4863 2516 4863 
L 3059 4863 
z
" transform="scale(0.015625)"/>
      <path id="DejaVuSans-Oblique-72" d="M 2853 2969 
Q 2766 3016 2653 3041 
Q 2541 3066 2413 3066 
Q 1953 3066 1609 2717 
Q 1266 2369 1153 1784 
L 800 0 
L 225 0 
L 909 3500 
L 1484 3500 
L 1375 2956 
Q 1603 3259 1920 3421 
Q 2238 3584 2597 3584 
Q 2691 3584 2781 3573 
Q 2872 3563 2963 3538 
L 2853 2969 
z
" transform="scale(0.015625)"/>
      <path id="DejaVuSans-Oblique-65" d="M 3078 2063 
Q 3088 2113 3092 2166 
Q 3097 2219 3097 2272 
Q 3097 2653 2873 2875 
Q 2650 3097 2266 3097 
Q 1838 3097 1509 2826 
Q 1181 2556 1013 2059 
L 3078 2063 
z
M 3578 1613 
L 903 1613 
Q 884 1494 878 1425 
Q 872 1356 872 1306 
Q 872 872 1139 634 
Q 1406 397 1894 397 
Q 2269 397 2603 481 
Q 2938 566 3225 728 
L 3116 159 
Q 2806 34 2476 -28 
Q 2147 -91 1806 -91 
Q 1078 -91 686 257 
Q 294 606 294 1247 
Q 294 1794 489 2264 
Q 684 2734 1063 3103 
Q 1306 3334 1642 3459 
Q 1978 3584 2356 3584 
Q 2950 3584 3301 3228 
Q 3653 2872 3653 2272 
Q 3653 2128 3634 1964 
Q 3616 1800 3578 1613 
z
" transform="scale(0.015625)"/>
      <path id="DejaVuSans-Oblique-73" d="M 3200 3397 
L 3091 2853 
Q 2863 2978 2609 3040 
Q 2356 3103 2088 3103 
Q 1634 3103 1373 2948 
Q 1113 2794 1113 2528 
Q 1113 2219 1719 2053 
Q 1766 2041 1788 2034 
L 1972 1978 
Q 2547 1819 2739 1644 
Q 2931 1469 2931 1166 
Q 2931 609 2489 259 
Q 2047 -91 1331 -91 
Q 1053 -91 747 -37 
Q 441 16 72 128 
L 184 722 
Q 500 559 806 475 
Q 1113 391 1394 391 
Q 1816 391 2080 572 
Q 2344 753 2344 1031 
Q 2344 1331 1650 1516 
L 1591 1531 
L 1394 1581 
Q 956 1697 753 1886 
Q 550 2075 550 2369 
Q 550 2928 970 3256 
Q 1391 3584 2113 3584 
Q 2397 3584 2667 3537 
Q 2938 3491 3200 3397 
z
" transform="scale(0.015625)"/>
      <path id="DejaVuSans-37" d="M 525 4666 
L 3525 4666 
L 3525 4397 
L 1831 0 
L 1172 0 
L 2766 4134 
L 525 4134 
L 525 4666 
z
" transform="scale(0.015625)"/>
      <path id="DejaVuSans-39" d="M 703 97 
L 703 672 
Q 941 559 1184 500 
Q 1428 441 1663 441 
Q 2288 441 2617 861 
Q 2947 1281 2994 2138 
Q 2813 1869 2534 1725 
Q 2256 1581 1919 1581 
Q 1219 1581 811 2004 
Q 403 2428 403 3163 
Q 403 3881 828 4315 
Q 1253 4750 1959 4750 
Q 2769 4750 3195 4129 
Q 3622 3509 3622 2328 
Q 3622 1225 3098 567 
Q 2575 -91 1691 -91 
Q 1453 -91 1209 -44 
Q 966 3 703 97 
z
M 1959 2075 
Q 2384 2075 2632 2365 
Q 2881 2656 2881 3163 
Q 2881 3666 2632 3958 
Q 2384 4250 1959 4250 
Q 1534 4250 1286 3958 
Q 1038 3666 1038 3163 
Q 1038 2656 1286 2365 
Q 1534 2075 1959 2075 
z
" transform="scale(0.015625)"/>
      <path id="DejaVuSans-36" d="M 2113 2584 
Q 1688 2584 1439 2293 
Q 1191 2003 1191 1497 
Q 1191 994 1439 701 
Q 1688 409 2113 409 
Q 2538 409 2786 701 
Q 3034 994 3034 1497 
Q 3034 2003 2786 2293 
Q 2538 2584 2113 2584 
z
M 3366 4563 
L 3366 3988 
Q 3128 4100 2886 4159 
Q 2644 4219 2406 4219 
Q 1781 4219 1451 3797 
Q 1122 3375 1075 2522 
Q 1259 2794 1537 2939 
Q 1816 3084 2150 3084 
Q 2853 3084 3261 2657 
Q 3669 2231 3669 1497 
Q 3669 778 3244 343 
Q 2819 -91 2113 -91 
Q 1303 -91 875 529 
Q 447 1150 447 2328 
Q 447 3434 972 4092 
Q 1497 4750 2381 4750 
Q 2619 4750 2861 4703 
Q 3103 4656 3366 4563 
z
" transform="scale(0.015625)"/>
      <path id="DejaVuSans-38" d="M 2034 2216 
Q 1584 2216 1326 1975 
Q 1069 1734 1069 1313 
Q 1069 891 1326 650 
Q 1584 409 2034 409 
Q 2484 409 2743 651 
Q 3003 894 3003 1313 
Q 3003 1734 2745 1975 
Q 2488 2216 2034 2216 
z
M 1403 2484 
Q 997 2584 770 2862 
Q 544 3141 544 3541 
Q 544 4100 942 4425 
Q 1341 4750 2034 4750 
Q 2731 4750 3128 4425 
Q 3525 4100 3525 3541 
Q 3525 3141 3298 2862 
Q 3072 2584 2669 2484 
Q 3125 2378 3379 2068 
Q 3634 1759 3634 1313 
Q 3634 634 3220 271 
Q 2806 -91 2034 -91 
Q 1263 -91 848 271 
Q 434 634 434 1313 
Q 434 1759 690 2068 
Q 947 2378 1403 2484 
z
M 1172 3481 
Q 1172 3119 1398 2916 
Q 1625 2713 2034 2713 
Q 2441 2713 2670 2916 
Q 2900 3119 2900 3481 
Q 2900 3844 2670 4047 
Q 2441 4250 2034 4250 
Q 1625 4250 1398 4047 
Q 1172 3844 1172 3481 
z
" transform="scale(0.015625)"/>
      <path id="DejaVuSans-2d" d="M 313 2009 
L 1997 2009 
L 1997 1497 
L 313 1497 
L 313 2009 
z
" transform="scale(0.015625)"/>
      <path id="DejaVuSans-47" d="M 3809 666 
L 3809 1919 
L 2778 1919 
L 2778 2438 
L 4434 2438 
L 4434 434 
Q 4069 175 3628 42 
Q 3188 -91 2688 -91 
Q 1594 -91 976 548 
Q 359 1188 359 2328 
Q 359 3472 976 4111 
Q 1594 4750 2688 4750 
Q 3144 4750 3555 4637 
Q 3966 4525 4313 4306 
L 4313 3634 
Q 3963 3931 3569 4081 
Q 3175 4231 2741 4231 
Q 1884 4231 1454 3753 
Q 1025 3275 1025 2328 
Q 1025 1384 1454 906 
Q 1884 428 2741 428 
Q 3075 428 3337 486 
Q 3600 544 3809 666 
z
" transform="scale(0.015625)"/>
      <path id="DejaVuSans-48" d="M 628 4666 
L 1259 4666 
L 1259 2753 
L 3553 2753 
L 3553 4666 
L 4184 4666 
L 4184 0 
L 3553 0 
L 3553 2222 
L 1259 2222 
L 1259 0 
L 628 0 
L 628 4666 
z
" transform="scale(0.015625)"/>
      <path id="DejaVuSans-7a" d="M 353 3500 
L 3084 3500 
L 3084 2975 
L 922 459 
L 3084 459 
L 3084 0 
L 275 0 
L 275 525 
L 2438 3041 
L 353 3041 
L 353 3500 
z
" transform="scale(0.015625)"/>
     </defs>
     <use xlink:href="#DejaVuSans-Oblique-66" transform="translate(0 0.015625)"/>
     <use xlink:href="#DejaVuSans-Oblique-72" transform="translate(35.205078 -16.390625) scale(0.7)"/>
     <use xlink:href="#DejaVuSans-Oblique-65" transform="translate(63.984375 -16.390625) scale(0.7)"/>
     <use xlink:href="#DejaVuSans-Oblique-73" transform="translate(107.050781 -16.390625) scale(0.7)"/>
     <use xlink:href="#DejaVuSans-3a" transform="translate(146.254883 0.015625)"/>
     <use xlink:href="#DejaVuSans-20" transform="translate(179.946289 0.015625)"/>
     <use xlink:href="#DejaVuSans-35" transform="translate(211.733398 0.015625)"/>
     <use xlink:href="#DejaVuSans-2e" transform="translate(275.356445 0.015625)"/>
     <use xlink:href="#DejaVuSans-37" transform="translate(299.393555 0.015625)"/>
     <use xlink:href="#DejaVuSans-31" transform="translate(363.016602 0.015625)"/>
     <use xlink:href="#DejaVuSans-39" transform="translate(426.639648 0.015625)"/>
     <use xlink:href="#DejaVuSans-36" transform="translate(490.262695 0.015625)"/>
     <use xlink:href="#DejaVuSans-30" transform="translate(553.885742 0.015625)"/>
     <use xlink:href="#DejaVuSans-31" transform="translate(617.508789 0.015625)"/>
     <use xlink:href="#DejaVuSans-b1" transform="translate(681.131836 0.015625)"/>
     <use xlink:href="#DejaVuSans-38" transform="translate(764.920898 0.015625)"/>
     <use xlink:href="#DejaVuSans-2e" transform="translate(828.543945 0.015625)"/>
     <use xlink:href="#DejaVuSans-36" transform="translate(860.331055 0.015625)"/>
     <use xlink:href="#DejaVuSans-65" transform="translate(923.954102 0.015625)"/>
     <use xlink:href="#DejaVuSans-2d" transform="translate(985.477539 0.015625)"/>
     <use xlink:href="#DejaVuSans-30" transform="translate(1021.561523 0.015625)"/>
     <use xlink:href="#DejaVuSans-35" transform="translate(1085.18457 0.015625)"/>
     <use xlink:href="#DejaVuSans-20" transform="translate(1148.807617 0.015625)"/>
     <use xlink:href="#DejaVuSans-47" transform="translate(1180.594727 0.015625)"/>
     <use xlink:href="#DejaVuSans-48" transform="translate(1258.084961 0.015625)"/>
     <use xlink:href="#DejaVuSans-7a" transform="translate(1333.280273 0.015625)"/>
    </g>
   </g>
  </g>
  <g id="axes_2">
   <g id="patch_8">
    <path d="M 50.595313 307.872 
L 407.715312 307.872 
L 407.715312 186.912 
L 50.595313 186.912 
z
" style="fill: #ffffff"/>
   </g>
   <g id="matplotlib.axis_3">
    <g id="xtick_6">
     <g id="line2d_11">
      <g>
       <use xlink:href="#m1956277940" x="87.930585" y="307.872" style="stroke: #000000; stroke-width: 0.8"/>
      </g>
     </g>
     <g id="text_6">
      <!-- 716 -->
      <g transform="translate(78.386835 322.470438) scale(0.1 -0.1)">
       <use xlink:href="#DejaVuSans-37"/>
       <use xlink:href="#DejaVuSans-31" x="63.623047"/>
       <use xlink:href="#DejaVuSans-36" x="127.246094"/>
      </g>
     </g>
    </g>
    <g id="xtick_7">
     <g id="line2d_12">
      <g>
       <use xlink:href="#m1956277940" x="152.861494" y="307.872" style="stroke: #000000; stroke-width: 0.8"/>
      </g>
     </g>
     <g id="text_7">
      <!-- 718 -->
      <g transform="translate(143.317744 322.470438) scale(0.1 -0.1)">
       <use xlink:href="#DejaVuSans-37"/>
       <use xlink:href="#DejaVuSans-31" x="63.623047"/>
       <use xlink:href="#DejaVuSans-38" x="127.246094"/>
      </g>
     </g>
    </g>
    <g id="xtick_8">
     <g id="line2d_13">
      <g>
       <use xlink:href="#m1956277940" x="217.792403" y="307.872" style="stroke: #000000; stroke-width: 0.8"/>
      </g>
     </g>
     <g id="text_8">
      <!-- 720 -->
      <g transform="translate(208.248653 322.470438) scale(0.1 -0.1)">
       <use xlink:href="#DejaVuSans-37"/>
       <use xlink:href="#DejaVuSans-32" x="63.623047"/>
       <use xlink:href="#DejaVuSans-30" x="127.246094"/>
      </g>
     </g>
    </g>
    <g id="xtick_9">
     <g id="line2d_14">
      <g>
       <use xlink:href="#m1956277940" x="282.723312" y="307.872" style="stroke: #000000; stroke-width: 0.8"/>
      </g>
     </g>
     <g id="text_9">
      <!-- 722 -->
      <g transform="translate(273.179562 322.470438) scale(0.1 -0.1)">
       <use xlink:href="#DejaVuSans-37"/>
       <use xlink:href="#DejaVuSans-32" x="63.623047"/>
       <use xlink:href="#DejaVuSans-32" x="127.246094"/>
      </g>
     </g>
    </g>
    <g id="xtick_10">
     <g id="line2d_15">
      <g>
       <use xlink:href="#m1956277940" x="347.654222" y="307.872" style="stroke: #000000; stroke-width: 0.8"/>
      </g>
     </g>
     <g id="text_10">
      <!-- 724 -->
      <g transform="translate(338.110472 322.470438) scale(0.1 -0.1)">
       <use xlink:href="#DejaVuSans-37"/>
       <use xlink:href="#DejaVuSans-32" x="63.623047"/>
       <use xlink:href="#DejaVuSans-34" x="127.246094"/>
      </g>
     </g>
    </g>
    <g id="text_11">
     <!-- Frequency [MHz] -->
     <g transform="translate(187.136562 336.148562) scale(0.1 -0.1)">
      <defs>
       <path id="DejaVuSans-46" d="M 628 4666 
L 3309 4666 
L 3309 4134 
L 1259 4134 
L 1259 2759 
L 3109 2759 
L 3109 2228 
L 1259 2228 
L 1259 0 
L 628 0 
L 628 4666 
z
" transform="scale(0.015625)"/>
       <path id="DejaVuSans-71" d="M 947 1747 
Q 947 1113 1208 752 
Q 1469 391 1925 391 
Q 2381 391 2643 752 
Q 2906 1113 2906 1747 
Q 2906 2381 2643 2742 
Q 2381 3103 1925 3103 
Q 1469 3103 1208 2742 
Q 947 2381 947 1747 
z
M 2906 525 
Q 2725 213 2448 61 
Q 2172 -91 1784 -91 
Q 1150 -91 751 415 
Q 353 922 353 1747 
Q 353 2572 751 3078 
Q 1150 3584 1784 3584 
Q 2172 3584 2448 3432 
Q 2725 3281 2906 2969 
L 2906 3500 
L 3481 3500 
L 3481 -1331 
L 2906 -1331 
L 2906 525 
z
" transform="scale(0.015625)"/>
       <path id="DejaVuSans-6e" d="M 3513 2113 
L 3513 0 
L 2938 0 
L 2938 2094 
Q 2938 2591 2744 2837 
Q 2550 3084 2163 3084 
Q 1697 3084 1428 2787 
Q 1159 2491 1159 1978 
L 1159 0 
L 581 0 
L 581 3500 
L 1159 3500 
L 1159 2956 
Q 1366 3272 1645 3428 
Q 1925 3584 2291 3584 
Q 2894 3584 3203 3211 
Q 3513 2838 3513 2113 
z
" transform="scale(0.015625)"/>
       <path id="DejaVuSans-63" d="M 3122 3366 
L 3122 2828 
Q 2878 2963 2633 3030 
Q 2388 3097 2138 3097 
Q 1578 3097 1268 2742 
Q 959 2388 959 1747 
Q 959 1106 1268 751 
Q 1578 397 2138 397 
Q 2388 397 2633 464 
Q 2878 531 3122 666 
L 3122 134 
Q 2881 22 2623 -34 
Q 2366 -91 2075 -91 
Q 1284 -91 818 406 
Q 353 903 353 1747 
Q 353 2603 823 3093 
Q 1294 3584 2113 3584 
Q 2378 3584 2631 3529 
Q 2884 3475 3122 3366 
z
" transform="scale(0.015625)"/>
      </defs>
      <use xlink:href="#DejaVuSans-46"/>
      <use xlink:href="#DejaVuSans-72" x="50.269531"/>
      <use xlink:href="#DejaVuSans-65" x="89.132812"/>
      <use xlink:href="#DejaVuSans-71" x="150.65625"/>
      <use xlink:href="#DejaVuSans-75" x="214.132812"/>
      <use xlink:href="#DejaVuSans-65" x="277.511719"/>
      <use xlink:href="#DejaVuSans-6e" x="339.035156"/>
      <use xlink:href="#DejaVuSans-63" x="402.414062"/>
      <use xlink:href="#DejaVuSans-79" x="457.394531"/>
      <use xlink:href="#DejaVuSans-20" x="516.574219"/>
      <use xlink:href="#DejaVuSans-5b" x="548.361328"/>
      <use xlink:href="#DejaVuSans-4d" x="587.375"/>
      <use xlink:href="#DejaVuSans-48" x="673.654297"/>
      <use xlink:href="#DejaVuSans-7a" x="748.849609"/>
      <use xlink:href="#DejaVuSans-5d" x="801.339844"/>
     </g>
    </g>
    <g id="text_12">
     <!-- +5 GHz -->
     <g transform="translate(369.277812 335.148562) scale(0.1 -0.1)">
      <use xlink:href="#DejaVuSans-2b"/>
      <use xlink:href="#DejaVuSans-35" x="83.789062"/>
      <use xlink:href="#DejaVuSans-20" x="147.412109"/>
      <use xlink:href="#DejaVuSans-47" x="179.199219"/>
      <use xlink:href="#DejaVuSans-48" x="256.689453"/>
      <use xlink:href="#DejaVuSans-7a" x="331.884766"/>
     </g>
    </g>
   </g>
   <g id="matplotlib.axis_4">
    <g id="ytick_4">
     <g id="line2d_16">
      <g>
       <use xlink:href="#mfd5a7613c2" x="50.595313" y="304.03183" style="stroke: #000000; stroke-width: 0.8"/>
      </g>
     </g>
     <g id="text_13">
      <!-- -150 -->
      <g transform="translate(20.9 307.831048) scale(0.1 -0.1)">
       <use xlink:href="#DejaVuSans-2d"/>
       <use xlink:href="#DejaVuSans-31" x="36.083984"/>
       <use xlink:href="#DejaVuSans-35" x="99.707031"/>
       <use xlink:href="#DejaVuSans-30" x="163.330078"/>
      </g>
     </g>
    </g>
    <g id="ytick_5">
     <g id="line2d_17">
      <g>
       <use xlink:href="#mfd5a7613c2" x="50.595313" y="267.593641" style="stroke: #000000; stroke-width: 0.8"/>
      </g>
     </g>
     <g id="text_14">
      <!-- -100 -->
      <g transform="translate(20.9 271.392859) scale(0.1 -0.1)">
       <use xlink:href="#DejaVuSans-2d"/>
       <use xlink:href="#DejaVuSans-31" x="36.083984"/>
       <use xlink:href="#DejaVuSans-30" x="99.707031"/>
       <use xlink:href="#DejaVuSans-30" x="163.330078"/>
      </g>
     </g>
    </g>
    <g id="ytick_6">
     <g id="line2d_18">
      <g>
       <use xlink:href="#mfd5a7613c2" x="50.595313" y="231.155452" style="stroke: #000000; stroke-width: 0.8"/>
      </g>
     </g>
     <g id="text_15">
      <!-- -50 -->
      <g transform="translate(27.2625 234.954671) scale(0.1 -0.1)">
       <use xlink:href="#DejaVuSans-2d"/>
       <use xlink:href="#DejaVuSans-35" x="36.083984"/>
       <use xlink:href="#DejaVuSans-30" x="99.707031"/>
      </g>
     </g>
    </g>
    <g id="ytick_7">
     <g id="line2d_19">
      <g>
       <use xlink:href="#mfd5a7613c2" x="50.595313" y="194.717263" style="stroke: #000000; stroke-width: 0.8"/>
      </g>
     </g>
     <g id="text_16">
      <!-- 0 -->
      <g transform="translate(37.232813 198.516482) scale(0.1 -0.1)">
       <use xlink:href="#DejaVuSans-30"/>
      </g>
     </g>
    </g>
    <g id="text_17">
     <!-- $\angle S_{21}$ [deg] -->
     <g transform="translate(14.8 274.592) rotate(-90) scale(0.1 -0.1)">
      <defs>
       <path id="DejaVuSans-2220" d="M 5028 631 
L 5028 0 
L 547 0 
L 3525 4666 
L 4281 4666 
L 1716 631 
L 5028 631 
z
" transform="scale(0.015625)"/>
       <path id="DejaVuSans-64" d="M 2906 2969 
L 2906 4863 
L 3481 4863 
L 3481 0 
L 2906 0 
L 2906 525 
Q 2725 213 2448 61 
Q 2172 -91 1784 -91 
Q 1150 -91 751 415 
Q 353 922 353 1747 
Q 353 2572 751 3078 
Q 1150 3584 1784 3584 
Q 2172 3584 2448 3432 
Q 2725 3281 2906 2969 
z
M 947 1747 
Q 947 1113 1208 752 
Q 1469 391 1925 391 
Q 2381 391 2643 752 
Q 2906 1113 2906 1747 
Q 2906 2381 2643 2742 
Q 2381 3103 1925 3103 
Q 1469 3103 1208 2742 
Q 947 2381 947 1747 
z
" transform="scale(0.015625)"/>
       <path id="DejaVuSans-67" d="M 2906 1791 
Q 2906 2416 2648 2759 
Q 2391 3103 1925 3103 
Q 1463 3103 1205 2759 
Q 947 2416 947 1791 
Q 947 1169 1205 825 
Q 1463 481 1925 481 
Q 2391 481 2648 825 
Q 2906 1169 2906 1791 
z
M 3481 434 
Q 3481 -459 3084 -895 
Q 2688 -1331 1869 -1331 
Q 1566 -1331 1297 -1286 
Q 1028 -1241 775 -1147 
L 775 -588 
Q 1028 -725 1275 -790 
Q 1522 -856 1778 -856 
Q 2344 -856 2625 -561 
Q 2906 -266 2906 331 
L 2906 616 
Q 2728 306 2450 153 
Q 2172 0 1784 0 
Q 1141 0 747 490 
Q 353 981 353 1791 
Q 353 2603 747 3093 
Q 1141 3584 1784 3584 
Q 2172 3584 2450 3431 
Q 2728 3278 2906 2969 
L 2906 3500 
L 3481 3500 
L 3481 434 
z
" transform="scale(0.015625)"/>
      </defs>
      <use xlink:href="#DejaVuSans-2220" transform="translate(0 0.015625)"/>
      <use xlink:href="#DejaVuSans-Oblique-53" transform="translate(89.648438 0.015625)"/>
      <use xlink:href="#DejaVuSans-32" transform="translate(153.125 -16.390625) scale(0.7)"/>
      <use xlink:href="#DejaVuSans-31" transform="translate(197.661133 -16.390625) scale(0.7)"/>
      <use xlink:href="#DejaVuSans-20" transform="translate(244.931641 0.015625)"/>
      <use xlink:href="#DejaVuSans-5b" transform="translate(276.71875 0.015625)"/>
      <use xlink:href="#DejaVuSans-64" transform="translate(315.732422 0.015625)"/>
      <use xlink:href="#DejaVuSans-65" transform="translate(379.208984 0.015625)"/>
      <use xlink:href="#DejaVuSans-67" transform="translate(440.732422 0.015625)"/>
      <use xlink:href="#DejaVuSans-5d" transform="translate(504.208984 0.015625)"/>
     </g>
    </g>
   </g>
   <g id="line2d_20">
    <path d="M 66.82804 203.437877 
L 68.45947 203.291527 
L 70.0909 202.385001 
L 71.722329 203.458922 
L 73.353759 202.623077 
L 74.985189 203.402917 
L 76.616619 202.301868 
L 78.248049 204.43615 
L 79.879479 204.21881 
L 81.510909 203.707553 
L 83.142339 204.309271 
L 84.773768 205.4775 
L 86.405198 205.370523 
L 88.036628 204.289229 
L 89.668058 205.383419 
L 94.562348 205.376797 
L 96.193778 205.13278 
L 97.825207 205.55707 
L 99.456637 206.694226 
L 101.088067 206.277241 
L 102.719497 206.422186 
L 104.350927 205.964116 
L 105.982357 207.437595 
L 107.613787 207.373488 
L 109.245217 206.647146 
L 110.876646 207.998018 
L 112.508076 209.184643 
L 114.139506 208.855238 
L 115.770936 208.768971 
L 117.402366 208.40998 
L 119.033796 209.175823 
L 120.665226 209.697766 
L 122.296656 208.54726 
L 123.928085 208.801821 
L 125.559515 209.817912 
L 127.190945 210.14761 
L 130.453805 209.099906 
L 132.085235 208.958011 
L 133.716665 211.040566 
L 135.348095 211.356783 
L 136.979524 210.71321 
L 138.610954 210.993641 
L 140.242384 211.128239 
L 141.873814 212.532214 
L 143.505244 211.640268 
L 145.136674 212.112471 
L 146.768104 212.910464 
L 148.399534 212.930869 
L 150.030963 213.43003 
L 151.662393 213.350708 
L 153.293823 213.06497 
L 154.925253 213.328149 
L 156.556683 215.361793 
L 158.188113 214.694434 
L 161.450973 215.700994 
L 163.082402 215.050346 
L 164.713832 216.750717 
L 166.345262 216.839823 
L 167.976692 217.836622 
L 169.608122 217.824623 
L 174.502412 219.593644 
L 176.133842 218.852328 
L 177.765271 221.363868 
L 179.396701 220.860602 
L 181.028131 223.189513 
L 182.659561 223.737656 
L 184.290991 223.525647 
L 185.922421 224.101699 
L 187.553851 226.616493 
L 189.185281 226.866313 
L 190.81671 227.814558 
L 192.44814 229.843673 
L 194.07957 231.389525 
L 195.711 231.577041 
L 197.34243 233.897354 
L 198.97386 235.255351 
L 202.23672 239.345992 
L 203.868149 240.274843 
L 208.762439 235.815448 
L 210.393869 239.453736 
L 212.025299 236.925258 
L 213.656729 234.618071 
L 215.288159 232.898127 
L 216.919588 229.072736 
L 218.551018 220.055102 
L 220.182448 215.458848 
L 221.813878 215.985621 
L 223.445308 211.969482 
L 225.076738 210.367026 
L 226.708168 206.667734 
L 228.339598 204.44819 
L 229.971027 270.271216 
L 231.602457 269.72775 
L 233.233887 270.431733 
L 234.865317 270.152162 
L 236.496747 270.574136 
L 238.128177 271.682196 
L 239.759607 271.129882 
L 241.391037 272.545028 
L 244.653896 272.980262 
L 246.285326 272.488223 
L 247.916756 273.827793 
L 249.548186 273.594031 
L 252.811046 274.306467 
L 254.442476 274.363539 
L 256.073905 275.809327 
L 257.705335 274.325089 
L 259.336765 274.632554 
L 262.599625 276.503233 
L 264.231055 276.08169 
L 265.862485 276.874481 
L 267.493915 277.066263 
L 269.125344 277.848022 
L 270.756774 277.337553 
L 272.388204 278.307944 
L 274.019634 277.164044 
L 275.651064 278.941634 
L 277.282494 278.98529 
L 278.913924 278.39316 
L 280.545354 278.087863 
L 282.176783 279.519347 
L 283.808213 279.426661 
L 285.439643 280.076398 
L 287.071073 280.922998 
L 288.702503 279.951382 
L 290.333933 279.643977 
L 291.965363 279.558583 
L 293.596793 282.356264 
L 295.228223 281.279654 
L 296.859652 282.593269 
L 298.491082 281.229289 
L 300.122512 281.615686 
L 301.753942 279.565016 
L 303.385372 282.321877 
L 305.016802 281.730772 
L 306.648232 281.954351 
L 308.279662 283.05745 
L 309.911091 282.958381 
L 311.542521 283.203209 
L 313.173951 282.777455 
L 314.805381 284.017252 
L 316.436811 284.308242 
L 319.699671 282.976846 
L 321.331101 283.975238 
L 322.96253 284.663284 
L 324.59396 284.870649 
L 326.22539 284.771854 
L 327.85682 285.545729 
L 329.48825 285.044919 
L 331.11968 286.302597 
L 332.75111 285.724812 
L 334.38254 286.469607 
L 336.013969 284.497793 
L 337.645399 286.117925 
L 339.276829 286.077029 
L 340.908259 285.72442 
L 342.539689 287.054168 
L 344.171119 287.010041 
L 345.802549 287.415973 
L 347.433979 286.637689 
L 349.065408 288.223007 
L 350.696838 285.915872 
L 352.328268 287.94208 
L 353.959698 288.185055 
L 355.591128 286.880587 
L 357.222558 288.222647 
L 360.485418 289.61269 
L 362.116847 289.238771 
L 363.748277 289.120548 
L 365.379707 288.414148 
L 367.011137 289.53608 
L 368.642567 289.574285 
L 370.273997 288.847694 
L 371.905427 290.349929 
L 373.536857 290.268487 
L 375.168286 289.664859 
L 376.799716 289.67644 
L 378.431146 290.920759 
L 380.062576 291.02099 
L 381.694006 292.383624 
L 383.325436 290.87165 
L 384.956866 290.810527 
L 386.588296 290.628915 
L 388.219725 291.110864 
L 389.851155 290.689196 
L 391.482585 291.415486 
L 391.482585 291.415486 
" clip-path="url(#p84a3786bf3)" style="fill: none; stroke: #1f77b4; stroke-width: 1.5; stroke-linecap: square"/>
    <g clip-path="url(#p84a3786bf3)">
     <use xlink:href="#m94bb076f39" x="66.82804" y="203.437877" style="fill: #1f77b4; stroke: #1f77b4"/>
     <use xlink:href="#m94bb076f39" x="68.45947" y="203.291527" style="fill: #1f77b4; stroke: #1f77b4"/>
     <use xlink:href="#m94bb076f39" x="70.0909" y="202.385001" style="fill: #1f77b4; stroke: #1f77b4"/>
     <use xlink:href="#m94bb076f39" x="71.722329" y="203.458922" style="fill: #1f77b4; stroke: #1f77b4"/>
     <use xlink:href="#m94bb076f39" x="73.353759" y="202.623077" style="fill: #1f77b4; stroke: #1f77b4"/>
     <use xlink:href="#m94bb076f39" x="74.985189" y="203.402917" style="fill: #1f77b4; stroke: #1f77b4"/>
     <use xlink:href="#m94bb076f39" x="76.616619" y="202.301868" style="fill: #1f77b4; stroke: #1f77b4"/>
     <use xlink:href="#m94bb076f39" x="78.248049" y="204.43615" style="fill: #1f77b4; stroke: #1f77b4"/>
     <use xlink:href="#m94bb076f39" x="79.879479" y="204.21881" style="fill: #1f77b4; stroke: #1f77b4"/>
     <use xlink:href="#m94bb076f39" x="81.510909" y="203.707553" style="fill: #1f77b4; stroke: #1f77b4"/>
     <use xlink:href="#m94bb076f39" x="83.142339" y="204.309271" style="fill: #1f77b4; stroke: #1f77b4"/>
     <use xlink:href="#m94bb076f39" x="84.773768" y="205.4775" style="fill: #1f77b4; stroke: #1f77b4"/>
     <use xlink:href="#m94bb076f39" x="86.405198" y="205.370523" style="fill: #1f77b4; stroke: #1f77b4"/>
     <use xlink:href="#m94bb076f39" x="88.036628" y="204.289229" style="fill: #1f77b4; stroke: #1f77b4"/>
     <use xlink:href="#m94bb076f39" x="89.668058" y="205.383419" style="fill: #1f77b4; stroke: #1f77b4"/>
     <use xlink:href="#m94bb076f39" x="91.299488" y="205.411916" style="fill: #1f77b4; stroke: #1f77b4"/>
     <use xlink:href="#m94bb076f39" x="92.930918" y="205.350483" style="fill: #1f77b4; stroke: #1f77b4"/>
     <use xlink:href="#m94bb076f39" x="94.562348" y="205.376797" style="fill: #1f77b4; stroke: #1f77b4"/>
     <use xlink:href="#m94bb076f39" x="96.193778" y="205.13278" style="fill: #1f77b4; stroke: #1f77b4"/>
     <use xlink:href="#m94bb076f39" x="97.825207" y="205.55707" style="fill: #1f77b4; stroke: #1f77b4"/>
     <use xlink:href="#m94bb076f39" x="99.456637" y="206.694226" style="fill: #1f77b4; stroke: #1f77b4"/>
     <use xlink:href="#m94bb076f39" x="101.088067" y="206.277241" style="fill: #1f77b4; stroke: #1f77b4"/>
     <use xlink:href="#m94bb076f39" x="102.719497" y="206.422186" style="fill: #1f77b4; stroke: #1f77b4"/>
     <use xlink:href="#m94bb076f39" x="104.350927" y="205.964116" style="fill: #1f77b4; stroke: #1f77b4"/>
     <use xlink:href="#m94bb076f39" x="105.982357" y="207.437595" style="fill: #1f77b4; stroke: #1f77b4"/>
     <use xlink:href="#m94bb076f39" x="107.613787" y="207.373488" style="fill: #1f77b4; stroke: #1f77b4"/>
     <use xlink:href="#m94bb076f39" x="109.245217" y="206.647146" style="fill: #1f77b4; stroke: #1f77b4"/>
     <use xlink:href="#m94bb076f39" x="110.876646" y="207.998018" style="fill: #1f77b4; stroke: #1f77b4"/>
     <use xlink:href="#m94bb076f39" x="112.508076" y="209.184643" style="fill: #1f77b4; stroke: #1f77b4"/>
     <use xlink:href="#m94bb076f39" x="114.139506" y="208.855238" style="fill: #1f77b4; stroke: #1f77b4"/>
     <use xlink:href="#m94bb076f39" x="115.770936" y="208.768971" style="fill: #1f77b4; stroke: #1f77b4"/>
     <use xlink:href="#m94bb076f39" x="117.402366" y="208.40998" style="fill: #1f77b4; stroke: #1f77b4"/>
     <use xlink:href="#m94bb076f39" x="119.033796" y="209.175823" style="fill: #1f77b4; stroke: #1f77b4"/>
     <use xlink:href="#m94bb076f39" x="120.665226" y="209.697766" style="fill: #1f77b4; stroke: #1f77b4"/>
     <use xlink:href="#m94bb076f39" x="122.296656" y="208.54726" style="fill: #1f77b4; stroke: #1f77b4"/>
     <use xlink:href="#m94bb076f39" x="123.928085" y="208.801821" style="fill: #1f77b4; stroke: #1f77b4"/>
     <use xlink:href="#m94bb076f39" x="125.559515" y="209.817912" style="fill: #1f77b4; stroke: #1f77b4"/>
     <use xlink:href="#m94bb076f39" x="127.190945" y="210.14761" style="fill: #1f77b4; stroke: #1f77b4"/>
     <use xlink:href="#m94bb076f39" x="128.822375" y="209.585931" style="fill: #1f77b4; stroke: #1f77b4"/>
     <use xlink:href="#m94bb076f39" x="130.453805" y="209.099906" style="fill: #1f77b4; stroke: #1f77b4"/>
     <use xlink:href="#m94bb076f39" x="132.085235" y="208.958011" style="fill: #1f77b4; stroke: #1f77b4"/>
     <use xlink:href="#m94bb076f39" x="133.716665" y="211.040566" style="fill: #1f77b4; stroke: #1f77b4"/>
     <use xlink:href="#m94bb076f39" x="135.348095" y="211.356783" style="fill: #1f77b4; stroke: #1f77b4"/>
     <use xlink:href="#m94bb076f39" x="136.979524" y="210.71321" style="fill: #1f77b4; stroke: #1f77b4"/>
     <use xlink:href="#m94bb076f39" x="138.610954" y="210.993641" style="fill: #1f77b4; stroke: #1f77b4"/>
     <use xlink:href="#m94bb076f39" x="140.242384" y="211.128239" style="fill: #1f77b4; stroke: #1f77b4"/>
     <use xlink:href="#m94bb076f39" x="141.873814" y="212.532214" style="fill: #1f77b4; stroke: #1f77b4"/>
     <use xlink:href="#m94bb076f39" x="143.505244" y="211.640268" style="fill: #1f77b4; stroke: #1f77b4"/>
     <use xlink:href="#m94bb076f39" x="145.136674" y="212.112471" style="fill: #1f77b4; stroke: #1f77b4"/>
     <use xlink:href="#m94bb076f39" x="146.768104" y="212.910464" style="fill: #1f77b4; stroke: #1f77b4"/>
     <use xlink:href="#m94bb076f39" x="148.399534" y="212.930869" style="fill: #1f77b4; stroke: #1f77b4"/>
     <use xlink:href="#m94bb076f39" x="150.030963" y="213.43003" style="fill: #1f77b4; stroke: #1f77b4"/>
     <use xlink:href="#m94bb076f39" x="151.662393" y="213.350708" style="fill: #1f77b4; stroke: #1f77b4"/>
     <use xlink:href="#m94bb076f39" x="153.293823" y="213.06497" style="fill: #1f77b4; stroke: #1f77b4"/>
     <use xlink:href="#m94bb076f39" x="154.925253" y="213.328149" style="fill: #1f77b4; stroke: #1f77b4"/>
     <use xlink:href="#m94bb076f39" x="156.556683" y="215.361793" style="fill: #1f77b4; stroke: #1f77b4"/>
     <use xlink:href="#m94bb076f39" x="158.188113" y="214.694434" style="fill: #1f77b4; stroke: #1f77b4"/>
     <use xlink:href="#m94bb076f39" x="159.819543" y="215.208687" style="fill: #1f77b4; stroke: #1f77b4"/>
     <use xlink:href="#m94bb076f39" x="161.450973" y="215.700994" style="fill: #1f77b4; stroke: #1f77b4"/>
     <use xlink:href="#m94bb076f39" x="163.082402" y="215.050346" style="fill: #1f77b4; stroke: #1f77b4"/>
     <use xlink:href="#m94bb076f39" x="164.713832" y="216.750717" style="fill: #1f77b4; stroke: #1f77b4"/>
     <use xlink:href="#m94bb076f39" x="166.345262" y="216.839823" style="fill: #1f77b4; stroke: #1f77b4"/>
     <use xlink:href="#m94bb076f39" x="167.976692" y="217.836622" style="fill: #1f77b4; stroke: #1f77b4"/>
     <use xlink:href="#m94bb076f39" x="169.608122" y="217.824623" style="fill: #1f77b4; stroke: #1f77b4"/>
     <use xlink:href="#m94bb076f39" x="171.239552" y="218.387205" style="fill: #1f77b4; stroke: #1f77b4"/>
     <use xlink:href="#m94bb076f39" x="172.870982" y="218.941885" style="fill: #1f77b4; stroke: #1f77b4"/>
     <use xlink:href="#m94bb076f39" x="174.502412" y="219.593644" style="fill: #1f77b4; stroke: #1f77b4"/>
     <use xlink:href="#m94bb076f39" x="176.133842" y="218.852328" style="fill: #1f77b4; stroke: #1f77b4"/>
     <use xlink:href="#m94bb076f39" x="177.765271" y="221.363868" style="fill: #1f77b4; stroke: #1f77b4"/>
     <use xlink:href="#m94bb076f39" x="179.396701" y="220.860602" style="fill: #1f77b4; stroke: #1f77b4"/>
     <use xlink:href="#m94bb076f39" x="181.028131" y="223.189513" style="fill: #1f77b4; stroke: #1f77b4"/>
     <use xlink:href="#m94bb076f39" x="182.659561" y="223.737656" style="fill: #1f77b4; stroke: #1f77b4"/>
     <use xlink:href="#m94bb076f39" x="184.290991" y="223.525647" style="fill: #1f77b4; stroke: #1f77b4"/>
     <use xlink:href="#m94bb076f39" x="185.922421" y="224.101699" style="fill: #1f77b4; stroke: #1f77b4"/>
     <use xlink:href="#m94bb076f39" x="187.553851" y="226.616493" style="fill: #1f77b4; stroke: #1f77b4"/>
     <use xlink:href="#m94bb076f39" x="189.185281" y="226.866313" style="fill: #1f77b4; stroke: #1f77b4"/>
     <use xlink:href="#m94bb076f39" x="190.81671" y="227.814558" style="fill: #1f77b4; stroke: #1f77b4"/>
     <use xlink:href="#m94bb076f39" x="192.44814" y="229.843673" style="fill: #1f77b4; stroke: #1f77b4"/>
     <use xlink:href="#m94bb076f39" x="194.07957" y="231.389525" style="fill: #1f77b4; stroke: #1f77b4"/>
     <use xlink:href="#m94bb076f39" x="195.711" y="231.577041" style="fill: #1f77b4; stroke: #1f77b4"/>
     <use xlink:href="#m94bb076f39" x="197.34243" y="233.897354" style="fill: #1f77b4; stroke: #1f77b4"/>
     <use xlink:href="#m94bb076f39" x="198.97386" y="235.255351" style="fill: #1f77b4; stroke: #1f77b4"/>
     <use xlink:href="#m94bb076f39" x="200.60529" y="237.382368" style="fill: #1f77b4; stroke: #1f77b4"/>
     <use xlink:href="#m94bb076f39" x="202.23672" y="239.345992" style="fill: #1f77b4; stroke: #1f77b4"/>
     <use xlink:href="#m94bb076f39" x="203.868149" y="240.274843" style="fill: #1f77b4; stroke: #1f77b4"/>
     <use xlink:href="#m94bb076f39" x="205.499579" y="238.817693" style="fill: #1f77b4; stroke: #1f77b4"/>
     <use xlink:href="#m94bb076f39" x="207.131009" y="237.379228" style="fill: #1f77b4; stroke: #1f77b4"/>
     <use xlink:href="#m94bb076f39" x="208.762439" y="235.815448" style="fill: #1f77b4; stroke: #1f77b4"/>
     <use xlink:href="#m94bb076f39" x="210.393869" y="239.453736" style="fill: #1f77b4; stroke: #1f77b4"/>
     <use xlink:href="#m94bb076f39" x="212.025299" y="236.925258" style="fill: #1f77b4; stroke: #1f77b4"/>
     <use xlink:href="#m94bb076f39" x="213.656729" y="234.618071" style="fill: #1f77b4; stroke: #1f77b4"/>
     <use xlink:href="#m94bb076f39" x="215.288159" y="232.898127" style="fill: #1f77b4; stroke: #1f77b4"/>
     <use xlink:href="#m94bb076f39" x="216.919588" y="229.072736" style="fill: #1f77b4; stroke: #1f77b4"/>
     <use xlink:href="#m94bb076f39" x="218.551018" y="220.055102" style="fill: #1f77b4; stroke: #1f77b4"/>
     <use xlink:href="#m94bb076f39" x="220.182448" y="215.458848" style="fill: #1f77b4; stroke: #1f77b4"/>
     <use xlink:href="#m94bb076f39" x="221.813878" y="215.985621" style="fill: #1f77b4; stroke: #1f77b4"/>
     <use xlink:href="#m94bb076f39" x="223.445308" y="211.969482" style="fill: #1f77b4; stroke: #1f77b4"/>
     <use xlink:href="#m94bb076f39" x="225.076738" y="210.367026" style="fill: #1f77b4; stroke: #1f77b4"/>
     <use xlink:href="#m94bb076f39" x="226.708168" y="206.667734" style="fill: #1f77b4; stroke: #1f77b4"/>
     <use xlink:href="#m94bb076f39" x="228.339598" y="204.44819" style="fill: #1f77b4; stroke: #1f77b4"/>
     <use xlink:href="#m94bb076f39" x="229.971027" y="270.271216" style="fill: #1f77b4; stroke: #1f77b4"/>
     <use xlink:href="#m94bb076f39" x="231.602457" y="269.72775" style="fill: #1f77b4; stroke: #1f77b4"/>
     <use xlink:href="#m94bb076f39" x="233.233887" y="270.431733" style="fill: #1f77b4; stroke: #1f77b4"/>
     <use xlink:href="#m94bb076f39" x="234.865317" y="270.152162" style="fill: #1f77b4; stroke: #1f77b4"/>
     <use xlink:href="#m94bb076f39" x="236.496747" y="270.574136" style="fill: #1f77b4; stroke: #1f77b4"/>
     <use xlink:href="#m94bb076f39" x="238.128177" y="271.682196" style="fill: #1f77b4; stroke: #1f77b4"/>
     <use xlink:href="#m94bb076f39" x="239.759607" y="271.129882" style="fill: #1f77b4; stroke: #1f77b4"/>
     <use xlink:href="#m94bb076f39" x="241.391037" y="272.545028" style="fill: #1f77b4; stroke: #1f77b4"/>
     <use xlink:href="#m94bb076f39" x="243.022466" y="272.717666" style="fill: #1f77b4; stroke: #1f77b4"/>
     <use xlink:href="#m94bb076f39" x="244.653896" y="272.980262" style="fill: #1f77b4; stroke: #1f77b4"/>
     <use xlink:href="#m94bb076f39" x="246.285326" y="272.488223" style="fill: #1f77b4; stroke: #1f77b4"/>
     <use xlink:href="#m94bb076f39" x="247.916756" y="273.827793" style="fill: #1f77b4; stroke: #1f77b4"/>
     <use xlink:href="#m94bb076f39" x="249.548186" y="273.594031" style="fill: #1f77b4; stroke: #1f77b4"/>
     <use xlink:href="#m94bb076f39" x="251.179616" y="273.957018" style="fill: #1f77b4; stroke: #1f77b4"/>
     <use xlink:href="#m94bb076f39" x="252.811046" y="274.306467" style="fill: #1f77b4; stroke: #1f77b4"/>
     <use xlink:href="#m94bb076f39" x="254.442476" y="274.363539" style="fill: #1f77b4; stroke: #1f77b4"/>
     <use xlink:href="#m94bb076f39" x="256.073905" y="275.809327" style="fill: #1f77b4; stroke: #1f77b4"/>
     <use xlink:href="#m94bb076f39" x="257.705335" y="274.325089" style="fill: #1f77b4; stroke: #1f77b4"/>
     <use xlink:href="#m94bb076f39" x="259.336765" y="274.632554" style="fill: #1f77b4; stroke: #1f77b4"/>
     <use xlink:href="#m94bb076f39" x="260.968195" y="275.610151" style="fill: #1f77b4; stroke: #1f77b4"/>
     <use xlink:href="#m94bb076f39" x="262.599625" y="276.503233" style="fill: #1f77b4; stroke: #1f77b4"/>
     <use xlink:href="#m94bb076f39" x="264.231055" y="276.08169" style="fill: #1f77b4; stroke: #1f77b4"/>
     <use xlink:href="#m94bb076f39" x="265.862485" y="276.874481" style="fill: #1f77b4; stroke: #1f77b4"/>
     <use xlink:href="#m94bb076f39" x="267.493915" y="277.066263" style="fill: #1f77b4; stroke: #1f77b4"/>
     <use xlink:href="#m94bb076f39" x="269.125344" y="277.848022" style="fill: #1f77b4; stroke: #1f77b4"/>
     <use xlink:href="#m94bb076f39" x="270.756774" y="277.337553" style="fill: #1f77b4; stroke: #1f77b4"/>
     <use xlink:href="#m94bb076f39" x="272.388204" y="278.307944" style="fill: #1f77b4; stroke: #1f77b4"/>
     <use xlink:href="#m94bb076f39" x="274.019634" y="277.164044" style="fill: #1f77b4; stroke: #1f77b4"/>
     <use xlink:href="#m94bb076f39" x="275.651064" y="278.941634" style="fill: #1f77b4; stroke: #1f77b4"/>
     <use xlink:href="#m94bb076f39" x="277.282494" y="278.98529" style="fill: #1f77b4; stroke: #1f77b4"/>
     <use xlink:href="#m94bb076f39" x="278.913924" y="278.39316" style="fill: #1f77b4; stroke: #1f77b4"/>
     <use xlink:href="#m94bb076f39" x="280.545354" y="278.087863" style="fill: #1f77b4; stroke: #1f77b4"/>
     <use xlink:href="#m94bb076f39" x="282.176783" y="279.519347" style="fill: #1f77b4; stroke: #1f77b4"/>
     <use xlink:href="#m94bb076f39" x="283.808213" y="279.426661" style="fill: #1f77b4; stroke: #1f77b4"/>
     <use xlink:href="#m94bb076f39" x="285.439643" y="280.076398" style="fill: #1f77b4; stroke: #1f77b4"/>
     <use xlink:href="#m94bb076f39" x="287.071073" y="280.922998" style="fill: #1f77b4; stroke: #1f77b4"/>
     <use xlink:href="#m94bb076f39" x="288.702503" y="279.951382" style="fill: #1f77b4; stroke: #1f77b4"/>
     <use xlink:href="#m94bb076f39" x="290.333933" y="279.643977" style="fill: #1f77b4; stroke: #1f77b4"/>
     <use xlink:href="#m94bb076f39" x="291.965363" y="279.558583" style="fill: #1f77b4; stroke: #1f77b4"/>
     <use xlink:href="#m94bb076f39" x="293.596793" y="282.356264" style="fill: #1f77b4; stroke: #1f77b4"/>
     <use xlink:href="#m94bb076f39" x="295.228223" y="281.279654" style="fill: #1f77b4; stroke: #1f77b4"/>
     <use xlink:href="#m94bb076f39" x="296.859652" y="282.593269" style="fill: #1f77b4; stroke: #1f77b4"/>
     <use xlink:href="#m94bb076f39" x="298.491082" y="281.229289" style="fill: #1f77b4; stroke: #1f77b4"/>
     <use xlink:href="#m94bb076f39" x="300.122512" y="281.615686" style="fill: #1f77b4; stroke: #1f77b4"/>
     <use xlink:href="#m94bb076f39" x="301.753942" y="279.565016" style="fill: #1f77b4; stroke: #1f77b4"/>
     <use xlink:href="#m94bb076f39" x="303.385372" y="282.321877" style="fill: #1f77b4; stroke: #1f77b4"/>
     <use xlink:href="#m94bb076f39" x="305.016802" y="281.730772" style="fill: #1f77b4; stroke: #1f77b4"/>
     <use xlink:href="#m94bb076f39" x="306.648232" y="281.954351" style="fill: #1f77b4; stroke: #1f77b4"/>
     <use xlink:href="#m94bb076f39" x="308.279662" y="283.05745" style="fill: #1f77b4; stroke: #1f77b4"/>
     <use xlink:href="#m94bb076f39" x="309.911091" y="282.958381" style="fill: #1f77b4; stroke: #1f77b4"/>
     <use xlink:href="#m94bb076f39" x="311.542521" y="283.203209" style="fill: #1f77b4; stroke: #1f77b4"/>
     <use xlink:href="#m94bb076f39" x="313.173951" y="282.777455" style="fill: #1f77b4; stroke: #1f77b4"/>
     <use xlink:href="#m94bb076f39" x="314.805381" y="284.017252" style="fill: #1f77b4; stroke: #1f77b4"/>
     <use xlink:href="#m94bb076f39" x="316.436811" y="284.308242" style="fill: #1f77b4; stroke: #1f77b4"/>
     <use xlink:href="#m94bb076f39" x="318.068241" y="283.653675" style="fill: #1f77b4; stroke: #1f77b4"/>
     <use xlink:href="#m94bb076f39" x="319.699671" y="282.976846" style="fill: #1f77b4; stroke: #1f77b4"/>
     <use xlink:href="#m94bb076f39" x="321.331101" y="283.975238" style="fill: #1f77b4; stroke: #1f77b4"/>
     <use xlink:href="#m94bb076f39" x="322.96253" y="284.663284" style="fill: #1f77b4; stroke: #1f77b4"/>
     <use xlink:href="#m94bb076f39" x="324.59396" y="284.870649" style="fill: #1f77b4; stroke: #1f77b4"/>
     <use xlink:href="#m94bb076f39" x="326.22539" y="284.771854" style="fill: #1f77b4; stroke: #1f77b4"/>
     <use xlink:href="#m94bb076f39" x="327.85682" y="285.545729" style="fill: #1f77b4; stroke: #1f77b4"/>
     <use xlink:href="#m94bb076f39" x="329.48825" y="285.044919" style="fill: #1f77b4; stroke: #1f77b4"/>
     <use xlink:href="#m94bb076f39" x="331.11968" y="286.302597" style="fill: #1f77b4; stroke: #1f77b4"/>
     <use xlink:href="#m94bb076f39" x="332.75111" y="285.724812" style="fill: #1f77b4; stroke: #1f77b4"/>
     <use xlink:href="#m94bb076f39" x="334.38254" y="286.469607" style="fill: #1f77b4; stroke: #1f77b4"/>
     <use xlink:href="#m94bb076f39" x="336.013969" y="284.497793" style="fill: #1f77b4; stroke: #1f77b4"/>
     <use xlink:href="#m94bb076f39" x="337.645399" y="286.117925" style="fill: #1f77b4; stroke: #1f77b4"/>
     <use xlink:href="#m94bb076f39" x="339.276829" y="286.077029" style="fill: #1f77b4; stroke: #1f77b4"/>
     <use xlink:href="#m94bb076f39" x="340.908259" y="285.72442" style="fill: #1f77b4; stroke: #1f77b4"/>
     <use xlink:href="#m94bb076f39" x="342.539689" y="287.054168" style="fill: #1f77b4; stroke: #1f77b4"/>
     <use xlink:href="#m94bb076f39" x="344.171119" y="287.010041" style="fill: #1f77b4; stroke: #1f77b4"/>
     <use xlink:href="#m94bb076f39" x="345.802549" y="287.415973" style="fill: #1f77b4; stroke: #1f77b4"/>
     <use xlink:href="#m94bb076f39" x="347.433979" y="286.637689" style="fill: #1f77b4; stroke: #1f77b4"/>
     <use xlink:href="#m94bb076f39" x="349.065408" y="288.223007" style="fill: #1f77b4; stroke: #1f77b4"/>
     <use xlink:href="#m94bb076f39" x="350.696838" y="285.915872" style="fill: #1f77b4; stroke: #1f77b4"/>
     <use xlink:href="#m94bb076f39" x="352.328268" y="287.94208" style="fill: #1f77b4; stroke: #1f77b4"/>
     <use xlink:href="#m94bb076f39" x="353.959698" y="288.185055" style="fill: #1f77b4; stroke: #1f77b4"/>
     <use xlink:href="#m94bb076f39" x="355.591128" y="286.880587" style="fill: #1f77b4; stroke: #1f77b4"/>
     <use xlink:href="#m94bb076f39" x="357.222558" y="288.222647" style="fill: #1f77b4; stroke: #1f77b4"/>
     <use xlink:href="#m94bb076f39" x="358.853988" y="288.931856" style="fill: #1f77b4; stroke: #1f77b4"/>
     <use xlink:href="#m94bb076f39" x="360.485418" y="289.61269" style="fill: #1f77b4; stroke: #1f77b4"/>
     <use xlink:href="#m94bb076f39" x="362.116847" y="289.238771" style="fill: #1f77b4; stroke: #1f77b4"/>
     <use xlink:href="#m94bb076f39" x="363.748277" y="289.120548" style="fill: #1f77b4; stroke: #1f77b4"/>
     <use xlink:href="#m94bb076f39" x="365.379707" y="288.414148" style="fill: #1f77b4; stroke: #1f77b4"/>
     <use xlink:href="#m94bb076f39" x="367.011137" y="289.53608" style="fill: #1f77b4; stroke: #1f77b4"/>
     <use xlink:href="#m94bb076f39" x="368.642567" y="289.574285" style="fill: #1f77b4; stroke: #1f77b4"/>
     <use xlink:href="#m94bb076f39" x="370.273997" y="288.847694" style="fill: #1f77b4; stroke: #1f77b4"/>
     <use xlink:href="#m94bb076f39" x="371.905427" y="290.349929" style="fill: #1f77b4; stroke: #1f77b4"/>
     <use xlink:href="#m94bb076f39" x="373.536857" y="290.268487" style="fill: #1f77b4; stroke: #1f77b4"/>
     <use xlink:href="#m94bb076f39" x="375.168286" y="289.664859" style="fill: #1f77b4; stroke: #1f77b4"/>
     <use xlink:href="#m94bb076f39" x="376.799716" y="289.67644" style="fill: #1f77b4; stroke: #1f77b4"/>
     <use xlink:href="#m94bb076f39" x="378.431146" y="290.920759" style="fill: #1f77b4; stroke: #1f77b4"/>
     <use xlink:href="#m94bb076f39" x="380.062576" y="291.02099" style="fill: #1f77b4; stroke: #1f77b4"/>
     <use xlink:href="#m94bb076f39" x="381.694006" y="292.383624" style="fill: #1f77b4; stroke: #1f77b4"/>
     <use xlink:href="#m94bb076f39" x="383.325436" y="290.87165" style="fill: #1f77b4; stroke: #1f77b4"/>
     <use xlink:href="#m94bb076f39" x="384.956866" y="290.810527" style="fill: #1f77b4; stroke: #1f77b4"/>
     <use xlink:href="#m94bb076f39" x="386.588296" y="290.628915" style="fill: #1f77b4; stroke: #1f77b4"/>
     <use xlink:href="#m94bb076f39" x="388.219725" y="291.110864" style="fill: #1f77b4; stroke: #1f77b4"/>
     <use xlink:href="#m94bb076f39" x="389.851155" y="290.689196" style="fill: #1f77b4; stroke: #1f77b4"/>
     <use xlink:href="#m94bb076f39" x="391.482585" y="291.415486" style="fill: #1f77b4; stroke: #1f77b4"/>
    </g>
   </g>
   <g id="line2d_21">
    <path d="M 66.82804 192.410182 
L 135.07374 215.710646 
L 157.497327 223.572511 
L 169.19659 227.884649 
L 176.671119 230.859671 
L 181.870792 233.155973 
L 185.770546 235.111373 
L 188.695362 236.799153 
L 191.295198 238.545653 
L 193.570055 240.347261 
L 195.519932 242.163614 
L 197.469809 244.287059 
L 199.419686 246.731412 
L 203.969399 252.71287 
L 204.944338 253.653083 
L 205.919276 254.321144 
L 206.894215 254.677802 
L 207.869154 254.719873 
L 208.844092 254.481119 
L 210.14401 253.834745 
L 212.093887 252.5179 
L 214.368744 251.013436 
L 215.993642 250.163162 
L 217.618539 249.539852 
L 219.243437 249.127888 
L 221.193314 248.868264 
L 223.468171 248.818205 
L 226.068007 249.004243 
L 229.317802 249.486224 
L 233.217557 250.300056 
L 238.417229 251.623187 
L 245.566779 253.684258 
L 256.291103 257.026227 
L 273.839997 262.75284 
L 307.637868 274.052873 
L 391.482585 302.373818 
L 391.482585 302.373818 
" clip-path="url(#p84a3786bf3)" style="fill: none; stroke: #d62728; stroke-width: 1.5; stroke-linecap: square"/>
   </g>
   <g id="patch_9">
    <path d="M 50.595313 307.872 
L 50.595313 186.912 
" style="fill: none; stroke: #000000; stroke-width: 0.8; stroke-linejoin: miter; stroke-linecap: square"/>
   </g>
   <g id="patch_10">
    <path d="M 407.715312 307.872 
L 407.715312 186.912 
" style="fill: none; stroke: #000000; stroke-width: 0.8; stroke-linejoin: miter; stroke-linecap: square"/>
   </g>
   <g id="patch_11">
    <path d="M 50.595312 307.872 
L 407.715312 307.872 
" style="fill: none; stroke: #000000; stroke-width: 0.8; stroke-linejoin: miter; stroke-linecap: square"/>
   </g>
   <g id="patch_12">
    <path d="M 50.595312 186.912 
L 407.715312 186.912 
" style="fill: none; stroke: #000000; stroke-width: 0.8; stroke-linejoin: miter; stroke-linecap: square"/>
   </g>
  </g>
  <g id="text_18">
   <!-- S21 resonator spectroscopy -->
   <g transform="translate(139.610938 16.318125) scale(0.12 -0.12)">
    <defs>
     <path id="DejaVuSans-73" d="M 2834 3397 
L 2834 2853 
Q 2591 2978 2328 3040 
Q 2066 3103 1784 3103 
Q 1356 3103 1142 2972 
Q 928 2841 928 2578 
Q 928 2378 1081 2264 
Q 1234 2150 1697 2047 
L 1894 2003 
Q 2506 1872 2764 1633 
Q 3022 1394 3022 966 
Q 3022 478 2636 193 
Q 2250 -91 1575 -91 
Q 1294 -91 989 -36 
Q 684 19 347 128 
L 347 722 
Q 666 556 975 473 
Q 1284 391 1588 391 
Q 1994 391 2212 530 
Q 2431 669 2431 922 
Q 2431 1156 2273 1281 
Q 2116 1406 1581 1522 
L 1381 1569 
Q 847 1681 609 1914 
Q 372 2147 372 2553 
Q 372 3047 722 3315 
Q 1072 3584 1716 3584 
Q 2034 3584 2315 3537 
Q 2597 3491 2834 3397 
z
" transform="scale(0.015625)"/>
     <path id="DejaVuSans-6f" d="M 1959 3097 
Q 1497 3097 1228 2736 
Q 959 2375 959 1747 
Q 959 1119 1226 758 
Q 1494 397 1959 397 
Q 2419 397 2687 759 
Q 2956 1122 2956 1747 
Q 2956 2369 2687 2733 
Q 2419 3097 1959 3097 
z
M 1959 3584 
Q 2709 3584 3137 3096 
Q 3566 2609 3566 1747 
Q 3566 888 3137 398 
Q 2709 -91 1959 -91 
Q 1206 -91 779 398 
Q 353 888 353 1747 
Q 353 2609 779 3096 
Q 1206 3584 1959 3584 
z
" transform="scale(0.015625)"/>
     <path id="DejaVuSans-74" d="M 1172 4494 
L 1172 3500 
L 2356 3500 
L 2356 3053 
L 1172 3053 
L 1172 1153 
Q 1172 725 1289 603 
Q 1406 481 1766 481 
L 2356 481 
L 2356 0 
L 1766 0 
Q 1100 0 847 248 
Q 594 497 594 1153 
L 594 3053 
L 172 3053 
L 172 3500 
L 594 3500 
L 594 4494 
L 1172 4494 
z
" transform="scale(0.015625)"/>
     <path id="DejaVuSans-70" d="M 1159 525 
L 1159 -1331 
L 581 -1331 
L 581 3500 
L 1159 3500 
L 1159 2969 
Q 1341 3281 1617 3432 
Q 1894 3584 2278 3584 
Q 2916 3584 3314 3078 
Q 3713 2572 3713 1747 
Q 3713 922 3314 415 
Q 2916 -91 2278 -91 
Q 1894 -91 1617 61 
Q 1341 213 1159 525 
z
M 3116 1747 
Q 3116 2381 2855 2742 
Q 2594 3103 2138 3103 
Q 1681 3103 1420 2742 
Q 1159 2381 1159 1747 
Q 1159 1113 1420 752 
Q 1681 391 2138 391 
Q 2594 391 2855 752 
Q 3116 1113 3116 1747 
z
" transform="scale(0.015625)"/>
    </defs>
    <use xlink:href="#DejaVuSans-53"/>
    <use xlink:href="#DejaVuSans-32" x="63.476562"/>
    <use xlink:href="#DejaVuSans-31" x="127.099609"/>
    <use xlink:href="#DejaVuSans-20" x="190.722656"/>
    <use xlink:href="#DejaVuSans-72" x="222.509766"/>
    <use xlink:href="#DejaVuSans-65" x="261.373047"/>
    <use xlink:href="#DejaVuSans-73" x="322.896484"/>
    <use xlink:href="#DejaVuSans-6f" x="374.996094"/>
    <use xlink:href="#DejaVuSans-6e" x="436.177734"/>
    <use xlink:href="#DejaVuSans-61" x="499.556641"/>
    <use xlink:href="#DejaVuSans-74" x="560.835938"/>
    <use xlink:href="#DejaVuSans-6f" x="600.044922"/>
    <use xlink:href="#DejaVuSans-72" x="661.226562"/>
    <use xlink:href="#DejaVuSans-20" x="702.339844"/>
    <use xlink:href="#DejaVuSans-73" x="734.126953"/>
    <use xlink:href="#DejaVuSans-70" x="786.226562"/>
    <use xlink:href="#DejaVuSans-65" x="849.703125"/>
    <use xlink:href="#DejaVuSans-63" x="911.226562"/>
    <use xlink:href="#DejaVuSans-74" x="966.207031"/>
    <use xlink:href="#DejaVuSans-72" x="1005.416016"/>
    <use xlink:href="#DejaVuSans-6f" x="1044.279297"/>
    <use xlink:href="#DejaVuSans-73" x="1105.460938"/>
    <use xlink:href="#DejaVuSans-63" x="1157.560547"/>
    <use xlink:href="#DejaVuSans-6f" x="1212.541016"/>
    <use xlink:href="#DejaVuSans-70" x="1273.722656"/>
    <use xlink:href="#DejaVuSans-79" x="1337.199219"/>
   </g>
   <!-- tuid: 20240108-152400-199-b95c0b -->
   <g transform="translate(114.075313 29.7555) scale(0.12 -0.12)">
    <defs>
     <path id="DejaVuSans-69" d="M 603 3500 
L 1178 3500 
L 1178 0 
L 603 0 
L 603 3500 
z
M 603 4863 
L 1178 4863 
L 1178 4134 
L 603 4134 
L 603 4863 
z
" transform="scale(0.015625)"/>
     <path id="DejaVuSans-62" d="M 3116 1747 
Q 3116 2381 2855 2742 
Q 2594 3103 2138 3103 
Q 1681 3103 1420 2742 
Q 1159 2381 1159 1747 
Q 1159 1113 1420 752 
Q 1681 391 2138 391 
Q 2594 391 2855 752 
Q 3116 1113 3116 1747 
z
M 1159 2969 
Q 1341 3281 1617 3432 
Q 1894 3584 2278 3584 
Q 2916 3584 3314 3078 
Q 3713 2572 3713 1747 
Q 3713 922 3314 415 
Q 2916 -91 2278 -91 
Q 1894 -91 1617 61 
Q 1341 213 1159 525 
L 1159 0 
L 581 0 
L 581 4863 
L 1159 4863 
L 1159 2969 
z
" transform="scale(0.015625)"/>
    </defs>
    <use xlink:href="#DejaVuSans-74"/>
    <use xlink:href="#DejaVuSans-75" x="39.208984"/>
    <use xlink:href="#DejaVuSans-69" x="102.587891"/>
    <use xlink:href="#DejaVuSans-64" x="130.371094"/>
    <use xlink:href="#DejaVuSans-3a" x="193.847656"/>
    <use xlink:href="#DejaVuSans-20" x="227.539062"/>
    <use xlink:href="#DejaVuSans-32" x="259.326172"/>
    <use xlink:href="#DejaVuSans-30" x="322.949219"/>
    <use xlink:href="#DejaVuSans-32" x="386.572266"/>
    <use xlink:href="#DejaVuSans-34" x="450.195312"/>
    <use xlink:href="#DejaVuSans-30" x="513.818359"/>
    <use xlink:href="#DejaVuSans-31" x="577.441406"/>
    <use xlink:href="#DejaVuSans-30" x="641.064453"/>
    <use xlink:href="#DejaVuSans-38" x="704.6875"/>
    <use xlink:href="#DejaVuSans-2d" x="768.310547"/>
    <use xlink:href="#DejaVuSans-31" x="804.394531"/>
    <use xlink:href="#DejaVuSans-35" x="868.017578"/>
    <use xlink:href="#DejaVuSans-32" x="931.640625"/>
    <use xlink:href="#DejaVuSans-34" x="995.263672"/>
    <use xlink:href="#DejaVuSans-30" x="1058.886719"/>
    <use xlink:href="#DejaVuSans-30" x="1122.509766"/>
    <use xlink:href="#DejaVuSans-2d" x="1186.132812"/>
    <use xlink:href="#DejaVuSans-31" x="1222.216797"/>
    <use xlink:href="#DejaVuSans-39" x="1285.839844"/>
    <use xlink:href="#DejaVuSans-39" x="1349.462891"/>
    <use xlink:href="#DejaVuSans-2d" x="1413.085938"/>
    <use xlink:href="#DejaVuSans-62" x="1449.169922"/>
    <use xlink:href="#DejaVuSans-39" x="1512.646484"/>
    <use xlink:href="#DejaVuSans-35" x="1576.269531"/>
    <use xlink:href="#DejaVuSans-63" x="1639.892578"/>
    <use xlink:href="#DejaVuSans-30" x="1694.873047"/>
    <use xlink:href="#DejaVuSans-62" x="1758.496094"/>
   </g>
  </g>
 </g>
 <defs>
  <clipPath id="p580694c9c0">
   <rect x="50.595313" y="41.76" width="357.12" height="120.96"/>
  </clipPath>
  <clipPath id="p84a3786bf3">
   <rect x="50.595313" y="186.912" width="357.12" height="120.96"/>
  </clipPath>
 </defs>
</svg>
