<?xml version="1.0" encoding="utf-8" standalone="no"?>
<!DOCTYPE svg PUBLIC "-//W3C//DTD SVG 1.1//EN"
  "http://www.w3.org/Graphics/SVG/1.1/DTD/svg11.dtd">
<svg xmlns:xlink="http://www.w3.org/1999/xlink" width="558.624437pt" height="345.42825pt" viewBox="0 0 558.624437 345.42825" xmlns="http://www.w3.org/2000/svg" version="1.1">
 <metadata>
  <rdf:RDF xmlns:dc="http://purl.org/dc/elements/1.1/" xmlns:cc="http://creativecommons.org/ns#" xmlns:rdf="http://www.w3.org/1999/02/22-rdf-syntax-ns#">
   <cc:Work>
    <dc:type rdf:resource="http://purl.org/dc/dcmitype/StillImage"/>
    <dc:date>2024-02-23T16:40:36.884849</dc:date>
    <dc:format>image/svg+xml</dc:format>
    <dc:creator>
     <cc:Agent>
      <dc:title>Matplotlib v3.8.2, https://matplotlib.org/</dc:title>
     </cc:Agent>
    </dc:creator>
   </cc:Work>
  </rdf:RDF>
 </metadata>
 <defs>
  <style type="text/css">*{stroke-linejoin: round; stroke-linecap: butt}</style>
 </defs>
 <g id="figure_1">
  <g id="patch_1">
   <path d="M 0 345.42825 
L 558.624437 345.42825 
L 558.624437 -0 
L 0 -0 
L 0 345.42825 
z
" style="fill: none; opacity: 0"/>
  </g>
  <g id="axes_1">
   <g id="patch_2">
    <path d="M 37.848438 162.72 
L 394.968438 162.72 
L 394.968438 41.76 
L 37.848438 41.76 
z
" style="fill: #ffffff"/>
   </g>
   <g id="matplotlib.axis_1">
    <g id="xtick_1">
     <g id="line2d_1">
      <defs>
       <path id="m33e5768d12" d="M 0 0 
L 0 3.5 
" style="stroke: #000000; stroke-width: 0.8"/>
      </defs>
      <g>
       <use xlink:href="#m33e5768d12" x="54.081165" y="162.72" style="stroke: #000000; stroke-width: 0.8"/>
      </g>
     </g>
    </g>
    <g id="xtick_2">
     <g id="line2d_2">
      <g>
       <use xlink:href="#m33e5768d12" x="108.190256" y="162.72" style="stroke: #000000; stroke-width: 0.8"/>
      </g>
     </g>
    </g>
    <g id="xtick_3">
     <g id="line2d_3">
      <g>
       <use xlink:href="#m33e5768d12" x="162.299347" y="162.72" style="stroke: #000000; stroke-width: 0.8"/>
      </g>
     </g>
    </g>
    <g id="xtick_4">
     <g id="line2d_4">
      <g>
       <use xlink:href="#m33e5768d12" x="216.408438" y="162.72" style="stroke: #000000; stroke-width: 0.8"/>
      </g>
     </g>
    </g>
    <g id="xtick_5">
     <g id="line2d_5">
      <g>
       <use xlink:href="#m33e5768d12" x="270.517528" y="162.72" style="stroke: #000000; stroke-width: 0.8"/>
      </g>
     </g>
    </g>
    <g id="xtick_6">
     <g id="line2d_6">
      <g>
       <use xlink:href="#m33e5768d12" x="324.626619" y="162.72" style="stroke: #000000; stroke-width: 0.8"/>
      </g>
     </g>
    </g>
    <g id="xtick_7">
     <g id="line2d_7">
      <g>
       <use xlink:href="#m33e5768d12" x="378.73571" y="162.72" style="stroke: #000000; stroke-width: 0.8"/>
      </g>
     </g>
    </g>
   </g>
   <g id="matplotlib.axis_2">
    <g id="ytick_1">
     <g id="line2d_8">
      <defs>
       <path id="mbb341e93f9" d="M 0 0 
L -3.5 0 
" style="stroke: #000000; stroke-width: 0.8"/>
      </defs>
      <g>
       <use xlink:href="#mbb341e93f9" x="37.848438" y="132.574601" style="stroke: #000000; stroke-width: 0.8"/>
      </g>
     </g>
     <g id="text_1">
      <!-- -2 -->
      <g transform="translate(20.878125 136.37382) scale(0.1 -0.1)">
       <defs>
        <path id="DejaVuSans-2d" d="M 313 2009 
L 1997 2009 
L 1997 1497 
L 313 1497 
L 313 2009 
z
" transform="scale(0.015625)"/>
        <path id="DejaVuSans-32" d="M 1228 531 
L 3431 531 
L 3431 0 
L 469 0 
L 469 531 
Q 828 903 1448 1529 
Q 2069 2156 2228 2338 
Q 2531 2678 2651 2914 
Q 2772 3150 2772 3378 
Q 2772 3750 2511 3984 
Q 2250 4219 1831 4219 
Q 1534 4219 1204 4116 
Q 875 4013 500 3803 
L 500 4441 
Q 881 4594 1212 4672 
Q 1544 4750 1819 4750 
Q 2544 4750 2975 4387 
Q 3406 4025 3406 3419 
Q 3406 3131 3298 2873 
Q 3191 2616 2906 2266 
Q 2828 2175 2409 1742 
Q 1991 1309 1228 531 
z
" transform="scale(0.015625)"/>
       </defs>
       <use xlink:href="#DejaVuSans-2d"/>
       <use xlink:href="#DejaVuSans-32" x="36.083984"/>
      </g>
     </g>
    </g>
    <g id="ytick_2">
     <g id="line2d_9">
      <g>
       <use xlink:href="#mbb341e93f9" x="37.848438" y="101.819231" style="stroke: #000000; stroke-width: 0.8"/>
      </g>
     </g>
     <g id="text_2">
      <!-- 0 -->
      <g transform="translate(24.485938 105.61845) scale(0.1 -0.1)">
       <defs>
        <path id="DejaVuSans-30" d="M 2034 4250 
Q 1547 4250 1301 3770 
Q 1056 3291 1056 2328 
Q 1056 1369 1301 889 
Q 1547 409 2034 409 
Q 2525 409 2770 889 
Q 3016 1369 3016 2328 
Q 3016 3291 2770 3770 
Q 2525 4250 2034 4250 
z
M 2034 4750 
Q 2819 4750 3233 4129 
Q 3647 3509 3647 2328 
Q 3647 1150 3233 529 
Q 2819 -91 2034 -91 
Q 1250 -91 836 529 
Q 422 1150 422 2328 
Q 422 3509 836 4129 
Q 1250 4750 2034 4750 
z
" transform="scale(0.015625)"/>
       </defs>
       <use xlink:href="#DejaVuSans-30"/>
      </g>
     </g>
    </g>
    <g id="ytick_3">
     <g id="line2d_10">
      <g>
       <use xlink:href="#mbb341e93f9" x="37.848438" y="71.06386" style="stroke: #000000; stroke-width: 0.8"/>
      </g>
     </g>
     <g id="text_3">
      <!-- 2 -->
      <g transform="translate(24.485938 74.863079) scale(0.1 -0.1)">
       <use xlink:href="#DejaVuSans-32"/>
      </g>
     </g>
    </g>
    <g id="text_4">
     <!-- Re$(S_{21})$ [mV] -->
     <g transform="translate(14.798438 134.24) rotate(-90) scale(0.1 -0.1)">
      <defs>
       <path id="DejaVuSans-52" d="M 2841 2188 
Q 3044 2119 3236 1894 
Q 3428 1669 3622 1275 
L 4263 0 
L 3584 0 
L 2988 1197 
Q 2756 1666 2539 1819 
Q 2322 1972 1947 1972 
L 1259 1972 
L 1259 0 
L 628 0 
L 628 4666 
L 2053 4666 
Q 2853 4666 3247 4331 
Q 3641 3997 3641 3322 
Q 3641 2881 3436 2590 
Q 3231 2300 2841 2188 
z
M 1259 4147 
L 1259 2491 
L 2053 2491 
Q 2509 2491 2742 2702 
Q 2975 2913 2975 3322 
Q 2975 3731 2742 3939 
Q 2509 4147 2053 4147 
L 1259 4147 
z
" transform="scale(0.015625)"/>
       <path id="DejaVuSans-65" d="M 3597 1894 
L 3597 1613 
L 953 1613 
Q 991 1019 1311 708 
Q 1631 397 2203 397 
Q 2534 397 2845 478 
Q 3156 559 3463 722 
L 3463 178 
Q 3153 47 2828 -22 
Q 2503 -91 2169 -91 
Q 1331 -91 842 396 
Q 353 884 353 1716 
Q 353 2575 817 3079 
Q 1281 3584 2069 3584 
Q 2775 3584 3186 3129 
Q 3597 2675 3597 1894 
z
M 3022 2063 
Q 3016 2534 2758 2815 
Q 2500 3097 2075 3097 
Q 1594 3097 1305 2825 
Q 1016 2553 972 2059 
L 3022 2063 
z
" transform="scale(0.015625)"/>
       <path id="DejaVuSans-28" d="M 1984 4856 
Q 1566 4138 1362 3434 
Q 1159 2731 1159 2009 
Q 1159 1288 1364 580 
Q 1569 -128 1984 -844 
L 1484 -844 
Q 1016 -109 783 600 
Q 550 1309 550 2009 
Q 550 2706 781 3412 
Q 1013 4119 1484 4856 
L 1984 4856 
z
" transform="scale(0.015625)"/>
       <path id="DejaVuSans-Oblique-53" d="M 3859 4513 
L 3738 3897 
Q 3422 4066 3111 4152 
Q 2800 4238 2509 4238 
Q 1944 4238 1609 3991 
Q 1275 3744 1275 3334 
Q 1275 3109 1398 2989 
Q 1522 2869 2034 2731 
L 2413 2638 
Q 3053 2472 3303 2217 
Q 3553 1963 3553 1503 
Q 3553 797 2998 353 
Q 2444 -91 1538 -91 
Q 1166 -91 791 -17 
Q 416 56 38 206 
L 166 856 
Q 513 641 861 531 
Q 1209 422 1556 422 
Q 2147 422 2503 684 
Q 2859 947 2859 1369 
Q 2859 1650 2717 1795 
Q 2575 1941 2106 2059 
L 1728 2156 
Q 1081 2325 845 2545 
Q 609 2766 609 3163 
Q 609 3859 1145 4304 
Q 1681 4750 2541 4750 
Q 2875 4750 3203 4690 
Q 3531 4631 3859 4513 
z
" transform="scale(0.015625)"/>
       <path id="DejaVuSans-31" d="M 794 531 
L 1825 531 
L 1825 4091 
L 703 3866 
L 703 4441 
L 1819 4666 
L 2450 4666 
L 2450 531 
L 3481 531 
L 3481 0 
L 794 0 
L 794 531 
z
" transform="scale(0.015625)"/>
       <path id="DejaVuSans-29" d="M 513 4856 
L 1013 4856 
Q 1481 4119 1714 3412 
Q 1947 2706 1947 2009 
Q 1947 1309 1714 600 
Q 1481 -109 1013 -844 
L 513 -844 
Q 928 -128 1133 580 
Q 1338 1288 1338 2009 
Q 1338 2731 1133 3434 
Q 928 4138 513 4856 
z
" transform="scale(0.015625)"/>
       <path id="DejaVuSans-20" transform="scale(0.015625)"/>
       <path id="DejaVuSans-5b" d="M 550 4863 
L 1875 4863 
L 1875 4416 
L 1125 4416 
L 1125 -397 
L 1875 -397 
L 1875 -844 
L 550 -844 
L 550 4863 
z
" transform="scale(0.015625)"/>
       <path id="DejaVuSans-6d" d="M 3328 2828 
Q 3544 3216 3844 3400 
Q 4144 3584 4550 3584 
Q 5097 3584 5394 3201 
Q 5691 2819 5691 2113 
L 5691 0 
L 5113 0 
L 5113 2094 
Q 5113 2597 4934 2840 
Q 4756 3084 4391 3084 
Q 3944 3084 3684 2787 
Q 3425 2491 3425 1978 
L 3425 0 
L 2847 0 
L 2847 2094 
Q 2847 2600 2669 2842 
Q 2491 3084 2119 3084 
Q 1678 3084 1418 2786 
Q 1159 2488 1159 1978 
L 1159 0 
L 581 0 
L 581 3500 
L 1159 3500 
L 1159 2956 
Q 1356 3278 1631 3431 
Q 1906 3584 2284 3584 
Q 2666 3584 2933 3390 
Q 3200 3197 3328 2828 
z
" transform="scale(0.015625)"/>
       <path id="DejaVuSans-56" d="M 1831 0 
L 50 4666 
L 709 4666 
L 2188 738 
L 3669 4666 
L 4325 4666 
L 2547 0 
L 1831 0 
z
" transform="scale(0.015625)"/>
       <path id="DejaVuSans-5d" d="M 1947 4863 
L 1947 -844 
L 622 -844 
L 622 -397 
L 1369 -397 
L 1369 4416 
L 622 4416 
L 622 4863 
L 1947 4863 
z
" transform="scale(0.015625)"/>
      </defs>
      <use xlink:href="#DejaVuSans-52" transform="translate(0 0.015625)"/>
      <use xlink:href="#DejaVuSans-65" transform="translate(69.482422 0.015625)"/>
      <use xlink:href="#DejaVuSans-28" transform="translate(131.005859 0.015625)"/>
      <use xlink:href="#DejaVuSans-Oblique-53" transform="translate(170.019531 0.015625)"/>
      <use xlink:href="#DejaVuSans-32" transform="translate(233.496094 -16.390625) scale(0.7)"/>
      <use xlink:href="#DejaVuSans-31" transform="translate(278.032227 -16.390625) scale(0.7)"/>
      <use xlink:href="#DejaVuSans-29" transform="translate(325.302734 0.015625)"/>
      <use xlink:href="#DejaVuSans-20" transform="translate(364.316406 0.015625)"/>
      <use xlink:href="#DejaVuSans-5b" transform="translate(396.103516 0.015625)"/>
      <use xlink:href="#DejaVuSans-6d" transform="translate(435.117188 0.015625)"/>
      <use xlink:href="#DejaVuSans-56" transform="translate(532.529297 0.015625)"/>
      <use xlink:href="#DejaVuSans-5d" transform="translate(600.9375 0.015625)"/>
     </g>
    </g>
   </g>
   <g id="line2d_11">
    <path d="M 54.081165 49.297975 
L 55.712595 49.770812 
L 57.344025 49.741264 
L 58.975454 49.929873 
L 60.606884 49.519763 
L 62.238314 48.782443 
L 63.869744 49.672789 
L 65.501174 50.104934 
L 67.132604 49.88565 
L 68.764034 51.251637 
L 70.395464 51.509647 
L 72.026893 51.267338 
L 73.658323 52.917804 
L 75.289753 53.558929 
L 78.552613 52.641226 
L 80.184043 55.064444 
L 81.815473 54.771377 
L 83.446903 56.343702 
L 85.078332 55.990774 
L 86.709762 54.827945 
L 88.341192 56.488326 
L 89.972622 57.537657 
L 91.604052 58.434802 
L 93.235482 57.049258 
L 94.866912 57.161153 
L 96.498342 58.609826 
L 98.129771 58.736922 
L 99.761201 57.98966 
L 101.392631 59.977103 
L 103.024061 61.365464 
L 104.655491 59.874985 
L 109.549781 61.982587 
L 111.18121 61.828447 
L 114.44407 64.560697 
L 117.70693 65.29957 
L 119.33836 66.634331 
L 120.96979 65.981211 
L 122.60122 66.623864 
L 124.232649 67.429934 
L 125.864079 68.561111 
L 127.495509 66.19451 
L 129.126939 68.271199 
L 130.758369 68.06595 
L 132.389799 69.484661 
L 134.021229 70.73372 
L 135.652659 70.503806 
L 137.284088 72.078447 
L 138.915518 72.656782 
L 140.546948 74.128404 
L 142.178378 73.690813 
L 143.809808 74.536473 
L 147.072668 75.655443 
L 148.704098 76.64003 
L 150.335527 75.987499 
L 151.966957 78.982266 
L 153.598387 78.475512 
L 155.229817 78.705188 
L 156.861247 79.566962 
L 158.492677 80.937519 
L 160.124107 80.885171 
L 161.755537 81.509681 
L 163.386967 82.797903 
L 165.018396 82.375937 
L 166.649826 83.206685 
L 168.281256 84.425181 
L 169.912686 84.964827 
L 171.544116 84.023673 
L 173.175546 86.061999 
L 174.806976 87.185564 
L 176.438406 88.935856 
L 178.069835 88.670546 
L 179.701265 91.423655 
L 181.332695 91.086516 
L 182.964125 92.293505 
L 184.595555 92.373311 
L 186.226985 93.768871 
L 187.858415 96.053701 
L 191.121274 96.697518 
L 192.752704 98.673166 
L 194.384134 99.14738 
L 196.015564 100.940216 
L 197.646994 101.932216 
L 199.278424 105.631086 
L 200.909854 107.129803 
L 205.804143 115.713787 
L 207.435573 119.661878 
L 209.067003 124.076584 
L 210.698433 127.201877 
L 212.329863 128.687736 
L 213.961293 122.090944 
L 215.592723 110.409951 
L 217.224152 101.061265 
L 218.855582 95.158034 
L 220.487012 92.450525 
L 222.118442 93.849691 
L 223.749872 93.430354 
L 225.381302 95.600947 
L 227.012732 97.189336 
L 228.644162 98.029812 
L 230.275591 98.424859 
L 231.907021 100.375466 
L 233.538451 101.284054 
L 236.801311 103.598332 
L 238.432741 103.2961 
L 240.064171 104.474379 
L 241.695601 106.213165 
L 243.32703 107.021238 
L 244.95846 107.377146 
L 248.22132 109.76701 
L 249.85275 110.266365 
L 251.48418 111.551996 
L 253.11561 112.453673 
L 254.74704 112.618918 
L 256.378469 113.619708 
L 258.009899 115.339324 
L 259.641329 114.828963 
L 261.272759 116.695645 
L 262.904189 117.134176 
L 264.535619 117.202087 
L 266.167049 118.953543 
L 267.798479 118.206432 
L 271.061338 121.109374 
L 272.692768 121.209425 
L 274.324198 121.680973 
L 275.955628 123.688122 
L 277.587058 123.342481 
L 280.849918 124.592792 
L 282.481348 124.83182 
L 284.112777 125.761255 
L 285.744207 127.253412 
L 287.375637 127.691592 
L 289.007067 127.640796 
L 290.638497 129.057504 
L 292.269927 128.064753 
L 293.901357 130.171578 
L 295.532787 130.753719 
L 297.164216 131.786348 
L 298.795646 131.453941 
L 300.427076 132.875219 
L 302.058506 133.925714 
L 303.689936 134.431042 
L 305.321366 135.217467 
L 306.952796 136.247579 
L 308.584226 135.608658 
L 310.215655 137.630507 
L 311.847085 137.344764 
L 315.109945 137.296923 
L 316.741375 138.29184 
L 318.372805 138.561807 
L 320.004235 139.840464 
L 321.635665 139.821282 
L 323.267094 142.014024 
L 324.898524 141.688353 
L 326.529954 141.951872 
L 328.161384 143.27241 
L 331.424244 143.62202 
L 333.055674 144.132243 
L 334.687104 143.886628 
L 336.318533 144.82494 
L 337.949963 145.360104 
L 339.581393 146.054879 
L 341.212823 147.506519 
L 342.844253 147.239394 
L 344.475683 147.107791 
L 346.107113 147.808839 
L 347.738543 148.164422 
L 349.369972 149.42456 
L 351.001402 151.118572 
L 352.632832 149.624688 
L 354.264262 149.6777 
L 355.895692 151.870867 
L 357.527122 149.966673 
L 359.158552 151.749093 
L 362.421411 151.873246 
L 364.052841 153.747929 
L 365.684271 154.083115 
L 367.315701 153.735033 
L 368.947131 155.183367 
L 370.578561 153.611255 
L 372.209991 154.992417 
L 373.841421 154.732654 
L 375.47285 155.02924 
L 377.10428 155.663591 
L 378.73571 157.221818 
L 378.73571 157.221818 
" clip-path="url(#p66581c7d92)" style="fill: none; stroke: #1f77b4; stroke-width: 1.5; stroke-linecap: square"/>
    <defs>
     <path id="m2d68aa26e9" d="M 0 1.5 
C 0.397805 1.5 0.77937 1.341951 1.06066 1.06066 
C 1.341951 0.77937 1.5 0.397805 1.5 0 
C 1.5 -0.397805 1.341951 -0.77937 1.06066 -1.06066 
C 0.77937 -1.341951 0.397805 -1.5 0 -1.5 
C -0.397805 -1.5 -0.77937 -1.341951 -1.06066 -1.06066 
C -1.341951 -0.77937 -1.5 -0.397805 -1.5 0 
C -1.5 0.397805 -1.341951 0.77937 -1.06066 1.06066 
C -0.77937 1.341951 -0.397805 1.5 0 1.5 
z
" style="stroke: #1f77b4"/>
    </defs>
    <g clip-path="url(#p66581c7d92)">
     <use xlink:href="#m2d68aa26e9" x="54.081165" y="49.297975" style="fill: #1f77b4; stroke: #1f77b4"/>
     <use xlink:href="#m2d68aa26e9" x="55.712595" y="49.770812" style="fill: #1f77b4; stroke: #1f77b4"/>
     <use xlink:href="#m2d68aa26e9" x="57.344025" y="49.741264" style="fill: #1f77b4; stroke: #1f77b4"/>
     <use xlink:href="#m2d68aa26e9" x="58.975454" y="49.929873" style="fill: #1f77b4; stroke: #1f77b4"/>
     <use xlink:href="#m2d68aa26e9" x="60.606884" y="49.519763" style="fill: #1f77b4; stroke: #1f77b4"/>
     <use xlink:href="#m2d68aa26e9" x="62.238314" y="48.782443" style="fill: #1f77b4; stroke: #1f77b4"/>
     <use xlink:href="#m2d68aa26e9" x="63.869744" y="49.672789" style="fill: #1f77b4; stroke: #1f77b4"/>
     <use xlink:href="#m2d68aa26e9" x="65.501174" y="50.104934" style="fill: #1f77b4; stroke: #1f77b4"/>
     <use xlink:href="#m2d68aa26e9" x="67.132604" y="49.88565" style="fill: #1f77b4; stroke: #1f77b4"/>
     <use xlink:href="#m2d68aa26e9" x="68.764034" y="51.251637" style="fill: #1f77b4; stroke: #1f77b4"/>
     <use xlink:href="#m2d68aa26e9" x="70.395464" y="51.509647" style="fill: #1f77b4; stroke: #1f77b4"/>
     <use xlink:href="#m2d68aa26e9" x="72.026893" y="51.267338" style="fill: #1f77b4; stroke: #1f77b4"/>
     <use xlink:href="#m2d68aa26e9" x="73.658323" y="52.917804" style="fill: #1f77b4; stroke: #1f77b4"/>
     <use xlink:href="#m2d68aa26e9" x="75.289753" y="53.558929" style="fill: #1f77b4; stroke: #1f77b4"/>
     <use xlink:href="#m2d68aa26e9" x="76.921183" y="53.135097" style="fill: #1f77b4; stroke: #1f77b4"/>
     <use xlink:href="#m2d68aa26e9" x="78.552613" y="52.641226" style="fill: #1f77b4; stroke: #1f77b4"/>
     <use xlink:href="#m2d68aa26e9" x="80.184043" y="55.064444" style="fill: #1f77b4; stroke: #1f77b4"/>
     <use xlink:href="#m2d68aa26e9" x="81.815473" y="54.771377" style="fill: #1f77b4; stroke: #1f77b4"/>
     <use xlink:href="#m2d68aa26e9" x="83.446903" y="56.343702" style="fill: #1f77b4; stroke: #1f77b4"/>
     <use xlink:href="#m2d68aa26e9" x="85.078332" y="55.990774" style="fill: #1f77b4; stroke: #1f77b4"/>
     <use xlink:href="#m2d68aa26e9" x="86.709762" y="54.827945" style="fill: #1f77b4; stroke: #1f77b4"/>
     <use xlink:href="#m2d68aa26e9" x="88.341192" y="56.488326" style="fill: #1f77b4; stroke: #1f77b4"/>
     <use xlink:href="#m2d68aa26e9" x="89.972622" y="57.537657" style="fill: #1f77b4; stroke: #1f77b4"/>
     <use xlink:href="#m2d68aa26e9" x="91.604052" y="58.434802" style="fill: #1f77b4; stroke: #1f77b4"/>
     <use xlink:href="#m2d68aa26e9" x="93.235482" y="57.049258" style="fill: #1f77b4; stroke: #1f77b4"/>
     <use xlink:href="#m2d68aa26e9" x="94.866912" y="57.161153" style="fill: #1f77b4; stroke: #1f77b4"/>
     <use xlink:href="#m2d68aa26e9" x="96.498342" y="58.609826" style="fill: #1f77b4; stroke: #1f77b4"/>
     <use xlink:href="#m2d68aa26e9" x="98.129771" y="58.736922" style="fill: #1f77b4; stroke: #1f77b4"/>
     <use xlink:href="#m2d68aa26e9" x="99.761201" y="57.98966" style="fill: #1f77b4; stroke: #1f77b4"/>
     <use xlink:href="#m2d68aa26e9" x="101.392631" y="59.977103" style="fill: #1f77b4; stroke: #1f77b4"/>
     <use xlink:href="#m2d68aa26e9" x="103.024061" y="61.365464" style="fill: #1f77b4; stroke: #1f77b4"/>
     <use xlink:href="#m2d68aa26e9" x="104.655491" y="59.874985" style="fill: #1f77b4; stroke: #1f77b4"/>
     <use xlink:href="#m2d68aa26e9" x="106.286921" y="60.614797" style="fill: #1f77b4; stroke: #1f77b4"/>
     <use xlink:href="#m2d68aa26e9" x="107.918351" y="61.453721" style="fill: #1f77b4; stroke: #1f77b4"/>
     <use xlink:href="#m2d68aa26e9" x="109.549781" y="61.982587" style="fill: #1f77b4; stroke: #1f77b4"/>
     <use xlink:href="#m2d68aa26e9" x="111.18121" y="61.828447" style="fill: #1f77b4; stroke: #1f77b4"/>
     <use xlink:href="#m2d68aa26e9" x="112.81264" y="63.257625" style="fill: #1f77b4; stroke: #1f77b4"/>
     <use xlink:href="#m2d68aa26e9" x="114.44407" y="64.560697" style="fill: #1f77b4; stroke: #1f77b4"/>
     <use xlink:href="#m2d68aa26e9" x="116.0755" y="64.945628" style="fill: #1f77b4; stroke: #1f77b4"/>
     <use xlink:href="#m2d68aa26e9" x="117.70693" y="65.29957" style="fill: #1f77b4; stroke: #1f77b4"/>
     <use xlink:href="#m2d68aa26e9" x="119.33836" y="66.634331" style="fill: #1f77b4; stroke: #1f77b4"/>
     <use xlink:href="#m2d68aa26e9" x="120.96979" y="65.981211" style="fill: #1f77b4; stroke: #1f77b4"/>
     <use xlink:href="#m2d68aa26e9" x="122.60122" y="66.623864" style="fill: #1f77b4; stroke: #1f77b4"/>
     <use xlink:href="#m2d68aa26e9" x="124.232649" y="67.429934" style="fill: #1f77b4; stroke: #1f77b4"/>
     <use xlink:href="#m2d68aa26e9" x="125.864079" y="68.561111" style="fill: #1f77b4; stroke: #1f77b4"/>
     <use xlink:href="#m2d68aa26e9" x="127.495509" y="66.19451" style="fill: #1f77b4; stroke: #1f77b4"/>
     <use xlink:href="#m2d68aa26e9" x="129.126939" y="68.271199" style="fill: #1f77b4; stroke: #1f77b4"/>
     <use xlink:href="#m2d68aa26e9" x="130.758369" y="68.06595" style="fill: #1f77b4; stroke: #1f77b4"/>
     <use xlink:href="#m2d68aa26e9" x="132.389799" y="69.484661" style="fill: #1f77b4; stroke: #1f77b4"/>
     <use xlink:href="#m2d68aa26e9" x="134.021229" y="70.73372" style="fill: #1f77b4; stroke: #1f77b4"/>
     <use xlink:href="#m2d68aa26e9" x="135.652659" y="70.503806" style="fill: #1f77b4; stroke: #1f77b4"/>
     <use xlink:href="#m2d68aa26e9" x="137.284088" y="72.078447" style="fill: #1f77b4; stroke: #1f77b4"/>
     <use xlink:href="#m2d68aa26e9" x="138.915518" y="72.656782" style="fill: #1f77b4; stroke: #1f77b4"/>
     <use xlink:href="#m2d68aa26e9" x="140.546948" y="74.128404" style="fill: #1f77b4; stroke: #1f77b4"/>
     <use xlink:href="#m2d68aa26e9" x="142.178378" y="73.690813" style="fill: #1f77b4; stroke: #1f77b4"/>
     <use xlink:href="#m2d68aa26e9" x="143.809808" y="74.536473" style="fill: #1f77b4; stroke: #1f77b4"/>
     <use xlink:href="#m2d68aa26e9" x="145.441238" y="75.078886" style="fill: #1f77b4; stroke: #1f77b4"/>
     <use xlink:href="#m2d68aa26e9" x="147.072668" y="75.655443" style="fill: #1f77b4; stroke: #1f77b4"/>
     <use xlink:href="#m2d68aa26e9" x="148.704098" y="76.64003" style="fill: #1f77b4; stroke: #1f77b4"/>
     <use xlink:href="#m2d68aa26e9" x="150.335527" y="75.987499" style="fill: #1f77b4; stroke: #1f77b4"/>
     <use xlink:href="#m2d68aa26e9" x="151.966957" y="78.982266" style="fill: #1f77b4; stroke: #1f77b4"/>
     <use xlink:href="#m2d68aa26e9" x="153.598387" y="78.475512" style="fill: #1f77b4; stroke: #1f77b4"/>
     <use xlink:href="#m2d68aa26e9" x="155.229817" y="78.705188" style="fill: #1f77b4; stroke: #1f77b4"/>
     <use xlink:href="#m2d68aa26e9" x="156.861247" y="79.566962" style="fill: #1f77b4; stroke: #1f77b4"/>
     <use xlink:href="#m2d68aa26e9" x="158.492677" y="80.937519" style="fill: #1f77b4; stroke: #1f77b4"/>
     <use xlink:href="#m2d68aa26e9" x="160.124107" y="80.885171" style="fill: #1f77b4; stroke: #1f77b4"/>
     <use xlink:href="#m2d68aa26e9" x="161.755537" y="81.509681" style="fill: #1f77b4; stroke: #1f77b4"/>
     <use xlink:href="#m2d68aa26e9" x="163.386967" y="82.797903" style="fill: #1f77b4; stroke: #1f77b4"/>
     <use xlink:href="#m2d68aa26e9" x="165.018396" y="82.375937" style="fill: #1f77b4; stroke: #1f77b4"/>
     <use xlink:href="#m2d68aa26e9" x="166.649826" y="83.206685" style="fill: #1f77b4; stroke: #1f77b4"/>
     <use xlink:href="#m2d68aa26e9" x="168.281256" y="84.425181" style="fill: #1f77b4; stroke: #1f77b4"/>
     <use xlink:href="#m2d68aa26e9" x="169.912686" y="84.964827" style="fill: #1f77b4; stroke: #1f77b4"/>
     <use xlink:href="#m2d68aa26e9" x="171.544116" y="84.023673" style="fill: #1f77b4; stroke: #1f77b4"/>
     <use xlink:href="#m2d68aa26e9" x="173.175546" y="86.061999" style="fill: #1f77b4; stroke: #1f77b4"/>
     <use xlink:href="#m2d68aa26e9" x="174.806976" y="87.185564" style="fill: #1f77b4; stroke: #1f77b4"/>
     <use xlink:href="#m2d68aa26e9" x="176.438406" y="88.935856" style="fill: #1f77b4; stroke: #1f77b4"/>
     <use xlink:href="#m2d68aa26e9" x="178.069835" y="88.670546" style="fill: #1f77b4; stroke: #1f77b4"/>
     <use xlink:href="#m2d68aa26e9" x="179.701265" y="91.423655" style="fill: #1f77b4; stroke: #1f77b4"/>
     <use xlink:href="#m2d68aa26e9" x="181.332695" y="91.086516" style="fill: #1f77b4; stroke: #1f77b4"/>
     <use xlink:href="#m2d68aa26e9" x="182.964125" y="92.293505" style="fill: #1f77b4; stroke: #1f77b4"/>
     <use xlink:href="#m2d68aa26e9" x="184.595555" y="92.373311" style="fill: #1f77b4; stroke: #1f77b4"/>
     <use xlink:href="#m2d68aa26e9" x="186.226985" y="93.768871" style="fill: #1f77b4; stroke: #1f77b4"/>
     <use xlink:href="#m2d68aa26e9" x="187.858415" y="96.053701" style="fill: #1f77b4; stroke: #1f77b4"/>
     <use xlink:href="#m2d68aa26e9" x="189.489845" y="96.32805" style="fill: #1f77b4; stroke: #1f77b4"/>
     <use xlink:href="#m2d68aa26e9" x="191.121274" y="96.697518" style="fill: #1f77b4; stroke: #1f77b4"/>
     <use xlink:href="#m2d68aa26e9" x="192.752704" y="98.673166" style="fill: #1f77b4; stroke: #1f77b4"/>
     <use xlink:href="#m2d68aa26e9" x="194.384134" y="99.14738" style="fill: #1f77b4; stroke: #1f77b4"/>
     <use xlink:href="#m2d68aa26e9" x="196.015564" y="100.940216" style="fill: #1f77b4; stroke: #1f77b4"/>
     <use xlink:href="#m2d68aa26e9" x="197.646994" y="101.932216" style="fill: #1f77b4; stroke: #1f77b4"/>
     <use xlink:href="#m2d68aa26e9" x="199.278424" y="105.631086" style="fill: #1f77b4; stroke: #1f77b4"/>
     <use xlink:href="#m2d68aa26e9" x="200.909854" y="107.129803" style="fill: #1f77b4; stroke: #1f77b4"/>
     <use xlink:href="#m2d68aa26e9" x="202.541284" y="110.053429" style="fill: #1f77b4; stroke: #1f77b4"/>
     <use xlink:href="#m2d68aa26e9" x="204.172713" y="112.806325" style="fill: #1f77b4; stroke: #1f77b4"/>
     <use xlink:href="#m2d68aa26e9" x="205.804143" y="115.713787" style="fill: #1f77b4; stroke: #1f77b4"/>
     <use xlink:href="#m2d68aa26e9" x="207.435573" y="119.661878" style="fill: #1f77b4; stroke: #1f77b4"/>
     <use xlink:href="#m2d68aa26e9" x="209.067003" y="124.076584" style="fill: #1f77b4; stroke: #1f77b4"/>
     <use xlink:href="#m2d68aa26e9" x="210.698433" y="127.201877" style="fill: #1f77b4; stroke: #1f77b4"/>
     <use xlink:href="#m2d68aa26e9" x="212.329863" y="128.687736" style="fill: #1f77b4; stroke: #1f77b4"/>
     <use xlink:href="#m2d68aa26e9" x="213.961293" y="122.090944" style="fill: #1f77b4; stroke: #1f77b4"/>
     <use xlink:href="#m2d68aa26e9" x="215.592723" y="110.409951" style="fill: #1f77b4; stroke: #1f77b4"/>
     <use xlink:href="#m2d68aa26e9" x="217.224152" y="101.061265" style="fill: #1f77b4; stroke: #1f77b4"/>
     <use xlink:href="#m2d68aa26e9" x="218.855582" y="95.158034" style="fill: #1f77b4; stroke: #1f77b4"/>
     <use xlink:href="#m2d68aa26e9" x="220.487012" y="92.450525" style="fill: #1f77b4; stroke: #1f77b4"/>
     <use xlink:href="#m2d68aa26e9" x="222.118442" y="93.849691" style="fill: #1f77b4; stroke: #1f77b4"/>
     <use xlink:href="#m2d68aa26e9" x="223.749872" y="93.430354" style="fill: #1f77b4; stroke: #1f77b4"/>
     <use xlink:href="#m2d68aa26e9" x="225.381302" y="95.600947" style="fill: #1f77b4; stroke: #1f77b4"/>
     <use xlink:href="#m2d68aa26e9" x="227.012732" y="97.189336" style="fill: #1f77b4; stroke: #1f77b4"/>
     <use xlink:href="#m2d68aa26e9" x="228.644162" y="98.029812" style="fill: #1f77b4; stroke: #1f77b4"/>
     <use xlink:href="#m2d68aa26e9" x="230.275591" y="98.424859" style="fill: #1f77b4; stroke: #1f77b4"/>
     <use xlink:href="#m2d68aa26e9" x="231.907021" y="100.375466" style="fill: #1f77b4; stroke: #1f77b4"/>
     <use xlink:href="#m2d68aa26e9" x="233.538451" y="101.284054" style="fill: #1f77b4; stroke: #1f77b4"/>
     <use xlink:href="#m2d68aa26e9" x="235.169881" y="102.449025" style="fill: #1f77b4; stroke: #1f77b4"/>
     <use xlink:href="#m2d68aa26e9" x="236.801311" y="103.598332" style="fill: #1f77b4; stroke: #1f77b4"/>
     <use xlink:href="#m2d68aa26e9" x="238.432741" y="103.2961" style="fill: #1f77b4; stroke: #1f77b4"/>
     <use xlink:href="#m2d68aa26e9" x="240.064171" y="104.474379" style="fill: #1f77b4; stroke: #1f77b4"/>
     <use xlink:href="#m2d68aa26e9" x="241.695601" y="106.213165" style="fill: #1f77b4; stroke: #1f77b4"/>
     <use xlink:href="#m2d68aa26e9" x="243.32703" y="107.021238" style="fill: #1f77b4; stroke: #1f77b4"/>
     <use xlink:href="#m2d68aa26e9" x="244.95846" y="107.377146" style="fill: #1f77b4; stroke: #1f77b4"/>
     <use xlink:href="#m2d68aa26e9" x="246.58989" y="108.523874" style="fill: #1f77b4; stroke: #1f77b4"/>
     <use xlink:href="#m2d68aa26e9" x="248.22132" y="109.76701" style="fill: #1f77b4; stroke: #1f77b4"/>
     <use xlink:href="#m2d68aa26e9" x="249.85275" y="110.266365" style="fill: #1f77b4; stroke: #1f77b4"/>
     <use xlink:href="#m2d68aa26e9" x="251.48418" y="111.551996" style="fill: #1f77b4; stroke: #1f77b4"/>
     <use xlink:href="#m2d68aa26e9" x="253.11561" y="112.453673" style="fill: #1f77b4; stroke: #1f77b4"/>
     <use xlink:href="#m2d68aa26e9" x="254.74704" y="112.618918" style="fill: #1f77b4; stroke: #1f77b4"/>
     <use xlink:href="#m2d68aa26e9" x="256.378469" y="113.619708" style="fill: #1f77b4; stroke: #1f77b4"/>
     <use xlink:href="#m2d68aa26e9" x="258.009899" y="115.339324" style="fill: #1f77b4; stroke: #1f77b4"/>
     <use xlink:href="#m2d68aa26e9" x="259.641329" y="114.828963" style="fill: #1f77b4; stroke: #1f77b4"/>
     <use xlink:href="#m2d68aa26e9" x="261.272759" y="116.695645" style="fill: #1f77b4; stroke: #1f77b4"/>
     <use xlink:href="#m2d68aa26e9" x="262.904189" y="117.134176" style="fill: #1f77b4; stroke: #1f77b4"/>
     <use xlink:href="#m2d68aa26e9" x="264.535619" y="117.202087" style="fill: #1f77b4; stroke: #1f77b4"/>
     <use xlink:href="#m2d68aa26e9" x="266.167049" y="118.953543" style="fill: #1f77b4; stroke: #1f77b4"/>
     <use xlink:href="#m2d68aa26e9" x="267.798479" y="118.206432" style="fill: #1f77b4; stroke: #1f77b4"/>
     <use xlink:href="#m2d68aa26e9" x="269.429908" y="119.699753" style="fill: #1f77b4; stroke: #1f77b4"/>
     <use xlink:href="#m2d68aa26e9" x="271.061338" y="121.109374" style="fill: #1f77b4; stroke: #1f77b4"/>
     <use xlink:href="#m2d68aa26e9" x="272.692768" y="121.209425" style="fill: #1f77b4; stroke: #1f77b4"/>
     <use xlink:href="#m2d68aa26e9" x="274.324198" y="121.680973" style="fill: #1f77b4; stroke: #1f77b4"/>
     <use xlink:href="#m2d68aa26e9" x="275.955628" y="123.688122" style="fill: #1f77b4; stroke: #1f77b4"/>
     <use xlink:href="#m2d68aa26e9" x="277.587058" y="123.342481" style="fill: #1f77b4; stroke: #1f77b4"/>
     <use xlink:href="#m2d68aa26e9" x="279.218488" y="123.968682" style="fill: #1f77b4; stroke: #1f77b4"/>
     <use xlink:href="#m2d68aa26e9" x="280.849918" y="124.592792" style="fill: #1f77b4; stroke: #1f77b4"/>
     <use xlink:href="#m2d68aa26e9" x="282.481348" y="124.83182" style="fill: #1f77b4; stroke: #1f77b4"/>
     <use xlink:href="#m2d68aa26e9" x="284.112777" y="125.761255" style="fill: #1f77b4; stroke: #1f77b4"/>
     <use xlink:href="#m2d68aa26e9" x="285.744207" y="127.253412" style="fill: #1f77b4; stroke: #1f77b4"/>
     <use xlink:href="#m2d68aa26e9" x="287.375637" y="127.691592" style="fill: #1f77b4; stroke: #1f77b4"/>
     <use xlink:href="#m2d68aa26e9" x="289.007067" y="127.640796" style="fill: #1f77b4; stroke: #1f77b4"/>
     <use xlink:href="#m2d68aa26e9" x="290.638497" y="129.057504" style="fill: #1f77b4; stroke: #1f77b4"/>
     <use xlink:href="#m2d68aa26e9" x="292.269927" y="128.064753" style="fill: #1f77b4; stroke: #1f77b4"/>
     <use xlink:href="#m2d68aa26e9" x="293.901357" y="130.171578" style="fill: #1f77b4; stroke: #1f77b4"/>
     <use xlink:href="#m2d68aa26e9" x="295.532787" y="130.753719" style="fill: #1f77b4; stroke: #1f77b4"/>
     <use xlink:href="#m2d68aa26e9" x="297.164216" y="131.786348" style="fill: #1f77b4; stroke: #1f77b4"/>
     <use xlink:href="#m2d68aa26e9" x="298.795646" y="131.453941" style="fill: #1f77b4; stroke: #1f77b4"/>
     <use xlink:href="#m2d68aa26e9" x="300.427076" y="132.875219" style="fill: #1f77b4; stroke: #1f77b4"/>
     <use xlink:href="#m2d68aa26e9" x="302.058506" y="133.925714" style="fill: #1f77b4; stroke: #1f77b4"/>
     <use xlink:href="#m2d68aa26e9" x="303.689936" y="134.431042" style="fill: #1f77b4; stroke: #1f77b4"/>
     <use xlink:href="#m2d68aa26e9" x="305.321366" y="135.217467" style="fill: #1f77b4; stroke: #1f77b4"/>
     <use xlink:href="#m2d68aa26e9" x="306.952796" y="136.247579" style="fill: #1f77b4; stroke: #1f77b4"/>
     <use xlink:href="#m2d68aa26e9" x="308.584226" y="135.608658" style="fill: #1f77b4; stroke: #1f77b4"/>
     <use xlink:href="#m2d68aa26e9" x="310.215655" y="137.630507" style="fill: #1f77b4; stroke: #1f77b4"/>
     <use xlink:href="#m2d68aa26e9" x="311.847085" y="137.344764" style="fill: #1f77b4; stroke: #1f77b4"/>
     <use xlink:href="#m2d68aa26e9" x="313.478515" y="137.313888" style="fill: #1f77b4; stroke: #1f77b4"/>
     <use xlink:href="#m2d68aa26e9" x="315.109945" y="137.296923" style="fill: #1f77b4; stroke: #1f77b4"/>
     <use xlink:href="#m2d68aa26e9" x="316.741375" y="138.29184" style="fill: #1f77b4; stroke: #1f77b4"/>
     <use xlink:href="#m2d68aa26e9" x="318.372805" y="138.561807" style="fill: #1f77b4; stroke: #1f77b4"/>
     <use xlink:href="#m2d68aa26e9" x="320.004235" y="139.840464" style="fill: #1f77b4; stroke: #1f77b4"/>
     <use xlink:href="#m2d68aa26e9" x="321.635665" y="139.821282" style="fill: #1f77b4; stroke: #1f77b4"/>
     <use xlink:href="#m2d68aa26e9" x="323.267094" y="142.014024" style="fill: #1f77b4; stroke: #1f77b4"/>
     <use xlink:href="#m2d68aa26e9" x="324.898524" y="141.688353" style="fill: #1f77b4; stroke: #1f77b4"/>
     <use xlink:href="#m2d68aa26e9" x="326.529954" y="141.951872" style="fill: #1f77b4; stroke: #1f77b4"/>
     <use xlink:href="#m2d68aa26e9" x="328.161384" y="143.27241" style="fill: #1f77b4; stroke: #1f77b4"/>
     <use xlink:href="#m2d68aa26e9" x="329.792814" y="143.412865" style="fill: #1f77b4; stroke: #1f77b4"/>
     <use xlink:href="#m2d68aa26e9" x="331.424244" y="143.62202" style="fill: #1f77b4; stroke: #1f77b4"/>
     <use xlink:href="#m2d68aa26e9" x="333.055674" y="144.132243" style="fill: #1f77b4; stroke: #1f77b4"/>
     <use xlink:href="#m2d68aa26e9" x="334.687104" y="143.886628" style="fill: #1f77b4; stroke: #1f77b4"/>
     <use xlink:href="#m2d68aa26e9" x="336.318533" y="144.82494" style="fill: #1f77b4; stroke: #1f77b4"/>
     <use xlink:href="#m2d68aa26e9" x="337.949963" y="145.360104" style="fill: #1f77b4; stroke: #1f77b4"/>
     <use xlink:href="#m2d68aa26e9" x="339.581393" y="146.054879" style="fill: #1f77b4; stroke: #1f77b4"/>
     <use xlink:href="#m2d68aa26e9" x="341.212823" y="147.506519" style="fill: #1f77b4; stroke: #1f77b4"/>
     <use xlink:href="#m2d68aa26e9" x="342.844253" y="147.239394" style="fill: #1f77b4; stroke: #1f77b4"/>
     <use xlink:href="#m2d68aa26e9" x="344.475683" y="147.107791" style="fill: #1f77b4; stroke: #1f77b4"/>
     <use xlink:href="#m2d68aa26e9" x="346.107113" y="147.808839" style="fill: #1f77b4; stroke: #1f77b4"/>
     <use xlink:href="#m2d68aa26e9" x="347.738543" y="148.164422" style="fill: #1f77b4; stroke: #1f77b4"/>
     <use xlink:href="#m2d68aa26e9" x="349.369972" y="149.42456" style="fill: #1f77b4; stroke: #1f77b4"/>
     <use xlink:href="#m2d68aa26e9" x="351.001402" y="151.118572" style="fill: #1f77b4; stroke: #1f77b4"/>
     <use xlink:href="#m2d68aa26e9" x="352.632832" y="149.624688" style="fill: #1f77b4; stroke: #1f77b4"/>
     <use xlink:href="#m2d68aa26e9" x="354.264262" y="149.6777" style="fill: #1f77b4; stroke: #1f77b4"/>
     <use xlink:href="#m2d68aa26e9" x="355.895692" y="151.870867" style="fill: #1f77b4; stroke: #1f77b4"/>
     <use xlink:href="#m2d68aa26e9" x="357.527122" y="149.966673" style="fill: #1f77b4; stroke: #1f77b4"/>
     <use xlink:href="#m2d68aa26e9" x="359.158552" y="151.749093" style="fill: #1f77b4; stroke: #1f77b4"/>
     <use xlink:href="#m2d68aa26e9" x="360.789982" y="151.765933" style="fill: #1f77b4; stroke: #1f77b4"/>
     <use xlink:href="#m2d68aa26e9" x="362.421411" y="151.873246" style="fill: #1f77b4; stroke: #1f77b4"/>
     <use xlink:href="#m2d68aa26e9" x="364.052841" y="153.747929" style="fill: #1f77b4; stroke: #1f77b4"/>
     <use xlink:href="#m2d68aa26e9" x="365.684271" y="154.083115" style="fill: #1f77b4; stroke: #1f77b4"/>
     <use xlink:href="#m2d68aa26e9" x="367.315701" y="153.735033" style="fill: #1f77b4; stroke: #1f77b4"/>
     <use xlink:href="#m2d68aa26e9" x="368.947131" y="155.183367" style="fill: #1f77b4; stroke: #1f77b4"/>
     <use xlink:href="#m2d68aa26e9" x="370.578561" y="153.611255" style="fill: #1f77b4; stroke: #1f77b4"/>
     <use xlink:href="#m2d68aa26e9" x="372.209991" y="154.992417" style="fill: #1f77b4; stroke: #1f77b4"/>
     <use xlink:href="#m2d68aa26e9" x="373.841421" y="154.732654" style="fill: #1f77b4; stroke: #1f77b4"/>
     <use xlink:href="#m2d68aa26e9" x="375.47285" y="155.02924" style="fill: #1f77b4; stroke: #1f77b4"/>
     <use xlink:href="#m2d68aa26e9" x="377.10428" y="155.663591" style="fill: #1f77b4; stroke: #1f77b4"/>
     <use xlink:href="#m2d68aa26e9" x="378.73571" y="157.221818" style="fill: #1f77b4; stroke: #1f77b4"/>
    </g>
   </g>
   <g id="line2d_12">
    <path d="M 54.081165 47.258182 
L 63.180591 48.921395 
L 72.280018 50.814697 
L 81.379445 52.932343 
L 90.803851 55.355593 
L 100.228257 58.005988 
L 109.977643 60.979707 
L 119.727029 64.183054 
L 129.801394 67.730248 
L 139.875759 71.519322 
L 149.625145 75.426976 
L 158.724572 79.312932 
L 166.84906 83.020374 
L 173.67363 86.365884 
L 179.523261 89.473646 
L 184.397954 92.315001 
L 188.297709 94.835149 
L 191.547504 97.184295 
L 194.47232 99.582255 
L 196.747176 101.713589 
L 198.697053 103.799461 
L 200.646931 106.212514 
L 202.271828 108.558976 
L 203.896726 111.309265 
L 205.521623 114.575482 
L 207.146521 118.452057 
L 210.721296 127.761878 
L 211.371255 128.668287 
L 211.696234 128.842932 
L 212.021214 128.779889 
L 212.346193 128.441624 
L 212.671173 127.796104 
L 213.321132 125.509023 
L 213.971091 121.932852 
L 214.94603 114.895999 
L 216.245948 105.298184 
L 217.220886 99.785708 
L 217.870845 97.151267 
L 218.520804 95.265675 
L 219.170763 93.997326 
L 219.820723 93.21125 
L 220.470682 92.789352 
L 221.120641 92.636389 
L 221.7706 92.679002 
L 222.745538 92.993334 
L 224.045456 93.694695 
L 226.320313 95.261254 
L 233.469863 100.372544 
L 238.019576 103.280597 
L 243.219248 106.315851 
L 249.06888 109.468322 
L 256.218429 113.060783 
L 264.667897 117.047377 
L 274.417283 121.389687 
L 284.816628 125.774644 
L 295.540952 130.057125 
L 306.265276 134.103724 
L 316.9896 137.910852 
L 327.388945 141.365302 
L 337.463311 144.478753 
L 347.212696 147.263273 
L 356.962082 149.813173 
L 366.386488 152.046163 
L 375.485915 153.978192 
L 378.73571 154.613573 
L 378.73571 154.613573 
" clip-path="url(#p66581c7d92)" style="fill: none; stroke: #d62728; stroke-width: 1.5; stroke-linecap: square"/>
   </g>
   <g id="patch_3">
    <path d="M 37.848438 162.72 
L 37.848438 41.76 
" style="fill: none; stroke: #000000; stroke-width: 0.8; stroke-linejoin: miter; stroke-linecap: square"/>
   </g>
   <g id="patch_4">
    <path d="M 394.968438 162.72 
L 394.968438 41.76 
" style="fill: none; stroke: #000000; stroke-width: 0.8; stroke-linejoin: miter; stroke-linecap: square"/>
   </g>
   <g id="patch_5">
    <path d="M 37.848438 162.72 
L 394.968437 162.72 
" style="fill: none; stroke: #000000; stroke-width: 0.8; stroke-linejoin: miter; stroke-linecap: square"/>
   </g>
   <g id="patch_6">
    <path d="M 37.848438 41.76 
L 394.968437 41.76 
" style="fill: none; stroke: #000000; stroke-width: 0.8; stroke-linejoin: miter; stroke-linecap: square"/>
   </g>
   <g id="text_5">
    <g id="patch_7">
     <path d="M 412.824438 95.079562 
L 551.424438 95.079562 
Q 555.424438 95.079562 555.424438 91.079562 
L 555.424438 47.808 
Q 555.424438 43.808 551.424438 43.808 
L 412.824438 43.808 
Q 408.824438 43.808 408.824438 47.808 
L 408.824438 91.079562 
Q 408.824438 95.079562 412.824438 95.079562 
z
" style="fill: #ffffff; opacity: 0.5; stroke: #000000; stroke-linejoin: miter"/>
    </g>
    <!-- Summary -->
    <g transform="translate(412.824438 55.406437) scale(0.1 -0.1)">
     <defs>
      <path id="DejaVuSans-53" d="M 3425 4513 
L 3425 3897 
Q 3066 4069 2747 4153 
Q 2428 4238 2131 4238 
Q 1616 4238 1336 4038 
Q 1056 3838 1056 3469 
Q 1056 3159 1242 3001 
Q 1428 2844 1947 2747 
L 2328 2669 
Q 3034 2534 3370 2195 
Q 3706 1856 3706 1288 
Q 3706 609 3251 259 
Q 2797 -91 1919 -91 
Q 1588 -91 1214 -16 
Q 841 59 441 206 
L 441 856 
Q 825 641 1194 531 
Q 1563 422 1919 422 
Q 2459 422 2753 634 
Q 3047 847 3047 1241 
Q 3047 1584 2836 1778 
Q 2625 1972 2144 2069 
L 1759 2144 
Q 1053 2284 737 2584 
Q 422 2884 422 3419 
Q 422 4038 858 4394 
Q 1294 4750 2059 4750 
Q 2388 4750 2728 4690 
Q 3069 4631 3425 4513 
z
" transform="scale(0.015625)"/>
      <path id="DejaVuSans-75" d="M 544 1381 
L 544 3500 
L 1119 3500 
L 1119 1403 
Q 1119 906 1312 657 
Q 1506 409 1894 409 
Q 2359 409 2629 706 
Q 2900 1003 2900 1516 
L 2900 3500 
L 3475 3500 
L 3475 0 
L 2900 0 
L 2900 538 
Q 2691 219 2414 64 
Q 2138 -91 1772 -91 
Q 1169 -91 856 284 
Q 544 659 544 1381 
z
M 1991 3584 
L 1991 3584 
z
" transform="scale(0.015625)"/>
      <path id="DejaVuSans-61" d="M 2194 1759 
Q 1497 1759 1228 1600 
Q 959 1441 959 1056 
Q 959 750 1161 570 
Q 1363 391 1709 391 
Q 2188 391 2477 730 
Q 2766 1069 2766 1631 
L 2766 1759 
L 2194 1759 
z
M 3341 1997 
L 3341 0 
L 2766 0 
L 2766 531 
Q 2569 213 2275 61 
Q 1981 -91 1556 -91 
Q 1019 -91 701 211 
Q 384 513 384 1019 
Q 384 1609 779 1909 
Q 1175 2209 1959 2209 
L 2766 2209 
L 2766 2266 
Q 2766 2663 2505 2880 
Q 2244 3097 1772 3097 
Q 1472 3097 1187 3025 
Q 903 2953 641 2809 
L 641 3341 
Q 956 3463 1253 3523 
Q 1550 3584 1831 3584 
Q 2591 3584 2966 3190 
Q 3341 2797 3341 1997 
z
" transform="scale(0.015625)"/>
      <path id="DejaVuSans-72" d="M 2631 2963 
Q 2534 3019 2420 3045 
Q 2306 3072 2169 3072 
Q 1681 3072 1420 2755 
Q 1159 2438 1159 1844 
L 1159 0 
L 581 0 
L 581 3500 
L 1159 3500 
L 1159 2956 
Q 1341 3275 1631 3429 
Q 1922 3584 2338 3584 
Q 2397 3584 2469 3576 
Q 2541 3569 2628 3553 
L 2631 2963 
z
" transform="scale(0.015625)"/>
      <path id="DejaVuSans-79" d="M 2059 -325 
Q 1816 -950 1584 -1140 
Q 1353 -1331 966 -1331 
L 506 -1331 
L 506 -850 
L 844 -850 
Q 1081 -850 1212 -737 
Q 1344 -625 1503 -206 
L 1606 56 
L 191 3500 
L 800 3500 
L 1894 763 
L 2988 3500 
L 3597 3500 
L 2059 -325 
z
" transform="scale(0.015625)"/>
     </defs>
     <use xlink:href="#DejaVuSans-53"/>
     <use xlink:href="#DejaVuSans-75" x="63.476562"/>
     <use xlink:href="#DejaVuSans-6d" x="126.855469"/>
     <use xlink:href="#DejaVuSans-6d" x="224.267578"/>
     <use xlink:href="#DejaVuSans-61" x="321.679688"/>
     <use xlink:href="#DejaVuSans-72" x="382.958984"/>
     <use xlink:href="#DejaVuSans-79" x="424.072266"/>
    </g>
    <!-- $Q_I$: 15.44$\pm$0.70 k -->
    <g transform="translate(412.824438 66.60425) scale(0.1 -0.1)">
     <defs>
      <path id="DejaVuSans-Oblique-51" d="M 2309 -84 
Q 2275 -88 2237 -89 
Q 2200 -91 2125 -91 
Q 1250 -91 756 411 
Q 263 913 263 1797 
Q 263 2319 452 2844 
Q 641 3369 978 3788 
Q 1369 4269 1858 4509 
Q 2347 4750 2938 4750 
Q 3794 4750 4287 4245 
Q 4781 3741 4781 2869 
Q 4781 1928 4265 1147 
Q 3750 366 2919 44 
L 3553 -825 
L 2847 -825 
L 2309 -84 
z
M 2919 4238 
Q 2400 4238 2003 3986 
Q 1606 3734 1313 3219 
Q 1125 2891 1026 2522 
Q 928 2153 928 1778 
Q 928 1128 1239 775 
Q 1550 422 2119 422 
Q 2631 422 3032 676 
Q 3434 931 3719 1434 
Q 3909 1772 4009 2142 
Q 4109 2513 4109 2881 
Q 4109 3528 3796 3883 
Q 3484 4238 2919 4238 
z
" transform="scale(0.015625)"/>
      <path id="DejaVuSans-Oblique-49" d="M 1081 4666 
L 1716 4666 
L 806 0 
L 172 0 
L 1081 4666 
z
" transform="scale(0.015625)"/>
      <path id="DejaVuSans-3a" d="M 750 794 
L 1409 794 
L 1409 0 
L 750 0 
L 750 794 
z
M 750 3309 
L 1409 3309 
L 1409 2516 
L 750 2516 
L 750 3309 
z
" transform="scale(0.015625)"/>
      <path id="DejaVuSans-35" d="M 691 4666 
L 3169 4666 
L 3169 4134 
L 1269 4134 
L 1269 2991 
Q 1406 3038 1543 3061 
Q 1681 3084 1819 3084 
Q 2600 3084 3056 2656 
Q 3513 2228 3513 1497 
Q 3513 744 3044 326 
Q 2575 -91 1722 -91 
Q 1428 -91 1123 -41 
Q 819 9 494 109 
L 494 744 
Q 775 591 1075 516 
Q 1375 441 1709 441 
Q 2250 441 2565 725 
Q 2881 1009 2881 1497 
Q 2881 1984 2565 2268 
Q 2250 2553 1709 2553 
Q 1456 2553 1204 2497 
Q 953 2441 691 2322 
L 691 4666 
z
" transform="scale(0.015625)"/>
      <path id="DejaVuSans-2e" d="M 684 794 
L 1344 794 
L 1344 0 
L 684 0 
L 684 794 
z
" transform="scale(0.015625)"/>
      <path id="DejaVuSans-34" d="M 2419 4116 
L 825 1625 
L 2419 1625 
L 2419 4116 
z
M 2253 4666 
L 3047 4666 
L 3047 1625 
L 3713 1625 
L 3713 1100 
L 3047 1100 
L 3047 0 
L 2419 0 
L 2419 1100 
L 313 1100 
L 313 1709 
L 2253 4666 
z
" transform="scale(0.015625)"/>
      <path id="DejaVuSans-b1" d="M 2944 4013 
L 2944 2803 
L 4684 2803 
L 4684 2272 
L 2944 2272 
L 2944 1063 
L 2419 1063 
L 2419 2272 
L 678 2272 
L 678 2803 
L 2419 2803 
L 2419 4013 
L 2944 4013 
z
M 678 531 
L 4684 531 
L 4684 0 
L 678 0 
L 678 531 
z
" transform="scale(0.015625)"/>
      <path id="DejaVuSans-37" d="M 525 4666 
L 3525 4666 
L 3525 4397 
L 1831 0 
L 1172 0 
L 2766 4134 
L 525 4134 
L 525 4666 
z
" transform="scale(0.015625)"/>
      <path id="DejaVuSans-6b" d="M 581 4863 
L 1159 4863 
L 1159 1991 
L 2875 3500 
L 3609 3500 
L 1753 1863 
L 3688 0 
L 2938 0 
L 1159 1709 
L 1159 0 
L 581 0 
L 581 4863 
z
" transform="scale(0.015625)"/>
     </defs>
     <use xlink:href="#DejaVuSans-Oblique-51" transform="translate(0 0.015625)"/>
     <use xlink:href="#DejaVuSans-Oblique-49" transform="translate(78.710938 -16.390625) scale(0.7)"/>
     <use xlink:href="#DejaVuSans-3a" transform="translate(102.089844 0.015625)"/>
     <use xlink:href="#DejaVuSans-20" transform="translate(135.78125 0.015625)"/>
     <use xlink:href="#DejaVuSans-31" transform="translate(167.568359 0.015625)"/>
     <use xlink:href="#DejaVuSans-35" transform="translate(231.191406 0.015625)"/>
     <use xlink:href="#DejaVuSans-2e" transform="translate(294.814453 0.015625)"/>
     <use xlink:href="#DejaVuSans-34" transform="translate(326.601562 0.015625)"/>
     <use xlink:href="#DejaVuSans-34" transform="translate(390.224609 0.015625)"/>
     <use xlink:href="#DejaVuSans-b1" transform="translate(453.847656 0.015625)"/>
     <use xlink:href="#DejaVuSans-30" transform="translate(537.636719 0.015625)"/>
     <use xlink:href="#DejaVuSans-2e" transform="translate(601.259766 0.015625)"/>
     <use xlink:href="#DejaVuSans-37" transform="translate(625.296875 0.015625)"/>
     <use xlink:href="#DejaVuSans-30" transform="translate(688.919922 0.015625)"/>
     <use xlink:href="#DejaVuSans-20" transform="translate(752.542969 0.015625)"/>
     <use xlink:href="#DejaVuSans-6b" transform="translate(784.330078 0.015625)"/>
    </g>
    <!-- $Q_C$: 11.44$\pm$0.24 k -->
    <g transform="translate(412.824438 77.802062) scale(0.1 -0.1)">
     <defs>
      <path id="DejaVuSans-Oblique-43" d="M 4447 4306 
L 4319 3641 
Q 4019 3944 3683 4091 
Q 3347 4238 2956 4238 
Q 2422 4238 2017 3981 
Q 1613 3725 1319 3200 
Q 1131 2863 1032 2486 
Q 934 2109 934 1728 
Q 934 1091 1264 756 
Q 1594 422 2222 422 
Q 2656 422 3056 561 
Q 3456 700 3834 978 
L 3688 231 
Q 3316 72 2936 -9 
Q 2556 -91 2175 -91 
Q 1278 -91 773 396 
Q 269 884 269 1753 
Q 269 2309 461 2846 
Q 653 3384 1013 3828 
Q 1394 4300 1883 4525 
Q 2372 4750 3022 4750 
Q 3422 4750 3780 4639 
Q 4138 4528 4447 4306 
z
" transform="scale(0.015625)"/>
     </defs>
     <use xlink:href="#DejaVuSans-Oblique-51" transform="translate(0 0.015625)"/>
     <use xlink:href="#DejaVuSans-Oblique-43" transform="translate(78.710938 -16.390625) scale(0.7)"/>
     <use xlink:href="#DejaVuSans-3a" transform="translate(130.322266 0.015625)"/>
     <use xlink:href="#DejaVuSans-20" transform="translate(164.013672 0.015625)"/>
     <use xlink:href="#DejaVuSans-31" transform="translate(195.800781 0.015625)"/>
     <use xlink:href="#DejaVuSans-31" transform="translate(259.423828 0.015625)"/>
     <use xlink:href="#DejaVuSans-2e" transform="translate(323.046875 0.015625)"/>
     <use xlink:href="#DejaVuSans-34" transform="translate(354.833984 0.015625)"/>
     <use xlink:href="#DejaVuSans-34" transform="translate(418.457031 0.015625)"/>
     <use xlink:href="#DejaVuSans-b1" transform="translate(482.080078 0.015625)"/>
     <use xlink:href="#DejaVuSans-30" transform="translate(565.869141 0.015625)"/>
     <use xlink:href="#DejaVuSans-2e" transform="translate(629.492188 0.015625)"/>
     <use xlink:href="#DejaVuSans-32" transform="translate(655.779297 0.015625)"/>
     <use xlink:href="#DejaVuSans-34" transform="translate(719.402344 0.015625)"/>
     <use xlink:href="#DejaVuSans-20" transform="translate(783.025391 0.015625)"/>
     <use xlink:href="#DejaVuSans-6b" transform="translate(814.8125 0.015625)"/>
    </g>
    <!-- $f_{res}$: 5.719797$\pm$1.1e-05 GHz -->
    <g transform="translate(412.824438 88.999875) scale(0.1 -0.1)">
     <defs>
      <path id="DejaVuSans-Oblique-66" d="M 3059 4863 
L 2969 4384 
L 2419 4384 
Q 2106 4384 1964 4261 
Q 1822 4138 1753 3809 
L 1691 3500 
L 2638 3500 
L 2553 3053 
L 1606 3053 
L 1013 0 
L 434 0 
L 1031 3053 
L 481 3053 
L 563 3500 
L 1113 3500 
L 1159 3744 
Q 1278 4363 1576 4613 
Q 1875 4863 2516 4863 
L 3059 4863 
z
" transform="scale(0.015625)"/>
      <path id="DejaVuSans-Oblique-72" d="M 2853 2969 
Q 2766 3016 2653 3041 
Q 2541 3066 2413 3066 
Q 1953 3066 1609 2717 
Q 1266 2369 1153 1784 
L 800 0 
L 225 0 
L 909 3500 
L 1484 3500 
L 1375 2956 
Q 1603 3259 1920 3421 
Q 2238 3584 2597 3584 
Q 2691 3584 2781 3573 
Q 2872 3563 2963 3538 
L 2853 2969 
z
" transform="scale(0.015625)"/>
      <path id="DejaVuSans-Oblique-65" d="M 3078 2063 
Q 3088 2113 3092 2166 
Q 3097 2219 3097 2272 
Q 3097 2653 2873 2875 
Q 2650 3097 2266 3097 
Q 1838 3097 1509 2826 
Q 1181 2556 1013 2059 
L 3078 2063 
z
M 3578 1613 
L 903 1613 
Q 884 1494 878 1425 
Q 872 1356 872 1306 
Q 872 872 1139 634 
Q 1406 397 1894 397 
Q 2269 397 2603 481 
Q 2938 566 3225 728 
L 3116 159 
Q 2806 34 2476 -28 
Q 2147 -91 1806 -91 
Q 1078 -91 686 257 
Q 294 606 294 1247 
Q 294 1794 489 2264 
Q 684 2734 1063 3103 
Q 1306 3334 1642 3459 
Q 1978 3584 2356 3584 
Q 2950 3584 3301 3228 
Q 3653 2872 3653 2272 
Q 3653 2128 3634 1964 
Q 3616 1800 3578 1613 
z
" transform="scale(0.015625)"/>
      <path id="DejaVuSans-Oblique-73" d="M 3200 3397 
L 3091 2853 
Q 2863 2978 2609 3040 
Q 2356 3103 2088 3103 
Q 1634 3103 1373 2948 
Q 1113 2794 1113 2528 
Q 1113 2219 1719 2053 
Q 1766 2041 1788 2034 
L 1972 1978 
Q 2547 1819 2739 1644 
Q 2931 1469 2931 1166 
Q 2931 609 2489 259 
Q 2047 -91 1331 -91 
Q 1053 -91 747 -37 
Q 441 16 72 128 
L 184 722 
Q 500 559 806 475 
Q 1113 391 1394 391 
Q 1816 391 2080 572 
Q 2344 753 2344 1031 
Q 2344 1331 1650 1516 
L 1591 1531 
L 1394 1581 
Q 956 1697 753 1886 
Q 550 2075 550 2369 
Q 550 2928 970 3256 
Q 1391 3584 2113 3584 
Q 2397 3584 2667 3537 
Q 2938 3491 3200 3397 
z
" transform="scale(0.015625)"/>
      <path id="DejaVuSans-39" d="M 703 97 
L 703 672 
Q 941 559 1184 500 
Q 1428 441 1663 441 
Q 2288 441 2617 861 
Q 2947 1281 2994 2138 
Q 2813 1869 2534 1725 
Q 2256 1581 1919 1581 
Q 1219 1581 811 2004 
Q 403 2428 403 3163 
Q 403 3881 828 4315 
Q 1253 4750 1959 4750 
Q 2769 4750 3195 4129 
Q 3622 3509 3622 2328 
Q 3622 1225 3098 567 
Q 2575 -91 1691 -91 
Q 1453 -91 1209 -44 
Q 966 3 703 97 
z
M 1959 2075 
Q 2384 2075 2632 2365 
Q 2881 2656 2881 3163 
Q 2881 3666 2632 3958 
Q 2384 4250 1959 4250 
Q 1534 4250 1286 3958 
Q 1038 3666 1038 3163 
Q 1038 2656 1286 2365 
Q 1534 2075 1959 2075 
z
" transform="scale(0.015625)"/>
      <path id="DejaVuSans-47" d="M 3809 666 
L 3809 1919 
L 2778 1919 
L 2778 2438 
L 4434 2438 
L 4434 434 
Q 4069 175 3628 42 
Q 3188 -91 2688 -91 
Q 1594 -91 976 548 
Q 359 1188 359 2328 
Q 359 3472 976 4111 
Q 1594 4750 2688 4750 
Q 3144 4750 3555 4637 
Q 3966 4525 4313 4306 
L 4313 3634 
Q 3963 3931 3569 4081 
Q 3175 4231 2741 4231 
Q 1884 4231 1454 3753 
Q 1025 3275 1025 2328 
Q 1025 1384 1454 906 
Q 1884 428 2741 428 
Q 3075 428 3337 486 
Q 3600 544 3809 666 
z
" transform="scale(0.015625)"/>
      <path id="DejaVuSans-48" d="M 628 4666 
L 1259 4666 
L 1259 2753 
L 3553 2753 
L 3553 4666 
L 4184 4666 
L 4184 0 
L 3553 0 
L 3553 2222 
L 1259 2222 
L 1259 0 
L 628 0 
L 628 4666 
z
" transform="scale(0.015625)"/>
      <path id="DejaVuSans-7a" d="M 353 3500 
L 3084 3500 
L 3084 2975 
L 922 459 
L 3084 459 
L 3084 0 
L 275 0 
L 275 525 
L 2438 3041 
L 353 3041 
L 353 3500 
z
" transform="scale(0.015625)"/>
     </defs>
     <use xlink:href="#DejaVuSans-Oblique-66" transform="translate(0 0.015625)"/>
     <use xlink:href="#DejaVuSans-Oblique-72" transform="translate(35.205078 -16.390625) scale(0.7)"/>
     <use xlink:href="#DejaVuSans-Oblique-65" transform="translate(63.984375 -16.390625) scale(0.7)"/>
     <use xlink:href="#DejaVuSans-Oblique-73" transform="translate(107.050781 -16.390625) scale(0.7)"/>
     <use xlink:href="#DejaVuSans-3a" transform="translate(146.254883 0.015625)"/>
     <use xlink:href="#DejaVuSans-20" transform="translate(179.946289 0.015625)"/>
     <use xlink:href="#DejaVuSans-35" transform="translate(211.733398 0.015625)"/>
     <use xlink:href="#DejaVuSans-2e" transform="translate(275.356445 0.015625)"/>
     <use xlink:href="#DejaVuSans-37" transform="translate(299.393555 0.015625)"/>
     <use xlink:href="#DejaVuSans-31" transform="translate(363.016602 0.015625)"/>
     <use xlink:href="#DejaVuSans-39" transform="translate(426.639648 0.015625)"/>
     <use xlink:href="#DejaVuSans-37" transform="translate(490.262695 0.015625)"/>
     <use xlink:href="#DejaVuSans-39" transform="translate(553.885742 0.015625)"/>
     <use xlink:href="#DejaVuSans-37" transform="translate(617.508789 0.015625)"/>
     <use xlink:href="#DejaVuSans-b1" transform="translate(681.131836 0.015625)"/>
     <use xlink:href="#DejaVuSans-31" transform="translate(764.920898 0.015625)"/>
     <use xlink:href="#DejaVuSans-2e" transform="translate(828.543945 0.015625)"/>
     <use xlink:href="#DejaVuSans-31" transform="translate(860.331055 0.015625)"/>
     <use xlink:href="#DejaVuSans-65" transform="translate(923.954102 0.015625)"/>
     <use xlink:href="#DejaVuSans-2d" transform="translate(985.477539 0.015625)"/>
     <use xlink:href="#DejaVuSans-30" transform="translate(1021.561523 0.015625)"/>
     <use xlink:href="#DejaVuSans-35" transform="translate(1085.18457 0.015625)"/>
     <use xlink:href="#DejaVuSans-20" transform="translate(1148.807617 0.015625)"/>
     <use xlink:href="#DejaVuSans-47" transform="translate(1180.594727 0.015625)"/>
     <use xlink:href="#DejaVuSans-48" transform="translate(1258.084961 0.015625)"/>
     <use xlink:href="#DejaVuSans-7a" transform="translate(1333.280273 0.015625)"/>
    </g>
   </g>
  </g>
  <g id="axes_2">
   <g id="patch_8">
    <path d="M 37.848438 307.872 
L 394.968438 307.872 
L 394.968438 186.912 
L 37.848438 186.912 
z
" style="fill: #ffffff"/>
   </g>
   <g id="matplotlib.axis_3">
    <g id="xtick_8">
     <g id="line2d_13">
      <g>
       <use xlink:href="#m33e5768d12" x="54.081165" y="307.872" style="stroke: #000000; stroke-width: 0.8"/>
      </g>
     </g>
     <g id="text_6">
      <!-- 705 -->
      <g transform="translate(44.537415 322.470438) scale(0.1 -0.1)">
       <use xlink:href="#DejaVuSans-37"/>
       <use xlink:href="#DejaVuSans-30" x="63.623047"/>
       <use xlink:href="#DejaVuSans-35" x="127.246094"/>
      </g>
     </g>
    </g>
    <g id="xtick_9">
     <g id="line2d_14">
      <g>
       <use xlink:href="#m33e5768d12" x="108.190256" y="307.872" style="stroke: #000000; stroke-width: 0.8"/>
      </g>
     </g>
     <g id="text_7">
      <!-- 710 -->
      <g transform="translate(98.646506 322.470438) scale(0.1 -0.1)">
       <use xlink:href="#DejaVuSans-37"/>
       <use xlink:href="#DejaVuSans-31" x="63.623047"/>
       <use xlink:href="#DejaVuSans-30" x="127.246094"/>
      </g>
     </g>
    </g>
    <g id="xtick_10">
     <g id="line2d_15">
      <g>
       <use xlink:href="#m33e5768d12" x="162.299347" y="307.872" style="stroke: #000000; stroke-width: 0.8"/>
      </g>
     </g>
     <g id="text_8">
      <!-- 715 -->
      <g transform="translate(152.755597 322.470438) scale(0.1 -0.1)">
       <use xlink:href="#DejaVuSans-37"/>
       <use xlink:href="#DejaVuSans-31" x="63.623047"/>
       <use xlink:href="#DejaVuSans-35" x="127.246094"/>
      </g>
     </g>
    </g>
    <g id="xtick_11">
     <g id="line2d_16">
      <g>
       <use xlink:href="#m33e5768d12" x="216.408438" y="307.872" style="stroke: #000000; stroke-width: 0.8"/>
      </g>
     </g>
     <g id="text_9">
      <!-- 720 -->
      <g transform="translate(206.864688 322.470438) scale(0.1 -0.1)">
       <use xlink:href="#DejaVuSans-37"/>
       <use xlink:href="#DejaVuSans-32" x="63.623047"/>
       <use xlink:href="#DejaVuSans-30" x="127.246094"/>
      </g>
     </g>
    </g>
    <g id="xtick_12">
     <g id="line2d_17">
      <g>
       <use xlink:href="#m33e5768d12" x="270.517528" y="307.872" style="stroke: #000000; stroke-width: 0.8"/>
      </g>
     </g>
     <g id="text_10">
      <!-- 725 -->
      <g transform="translate(260.973778 322.470438) scale(0.1 -0.1)">
       <use xlink:href="#DejaVuSans-37"/>
       <use xlink:href="#DejaVuSans-32" x="63.623047"/>
       <use xlink:href="#DejaVuSans-35" x="127.246094"/>
      </g>
     </g>
    </g>
    <g id="xtick_13">
     <g id="line2d_18">
      <g>
       <use xlink:href="#m33e5768d12" x="324.626619" y="307.872" style="stroke: #000000; stroke-width: 0.8"/>
      </g>
     </g>
     <g id="text_11">
      <!-- 730 -->
      <g transform="translate(315.082869 322.470438) scale(0.1 -0.1)">
       <defs>
        <path id="DejaVuSans-33" d="M 2597 2516 
Q 3050 2419 3304 2112 
Q 3559 1806 3559 1356 
Q 3559 666 3084 287 
Q 2609 -91 1734 -91 
Q 1441 -91 1130 -33 
Q 819 25 488 141 
L 488 750 
Q 750 597 1062 519 
Q 1375 441 1716 441 
Q 2309 441 2620 675 
Q 2931 909 2931 1356 
Q 2931 1769 2642 2001 
Q 2353 2234 1838 2234 
L 1294 2234 
L 1294 2753 
L 1863 2753 
Q 2328 2753 2575 2939 
Q 2822 3125 2822 3475 
Q 2822 3834 2567 4026 
Q 2313 4219 1838 4219 
Q 1578 4219 1281 4162 
Q 984 4106 628 3988 
L 628 4550 
Q 988 4650 1302 4700 
Q 1616 4750 1894 4750 
Q 2613 4750 3031 4423 
Q 3450 4097 3450 3541 
Q 3450 3153 3228 2886 
Q 3006 2619 2597 2516 
z
" transform="scale(0.015625)"/>
       </defs>
       <use xlink:href="#DejaVuSans-37"/>
       <use xlink:href="#DejaVuSans-33" x="63.623047"/>
       <use xlink:href="#DejaVuSans-30" x="127.246094"/>
      </g>
     </g>
    </g>
    <g id="xtick_14">
     <g id="line2d_19">
      <g>
       <use xlink:href="#m33e5768d12" x="378.73571" y="307.872" style="stroke: #000000; stroke-width: 0.8"/>
      </g>
     </g>
     <g id="text_12">
      <!-- 735 -->
      <g transform="translate(369.19196 322.470438) scale(0.1 -0.1)">
       <use xlink:href="#DejaVuSans-37"/>
       <use xlink:href="#DejaVuSans-33" x="63.623047"/>
       <use xlink:href="#DejaVuSans-35" x="127.246094"/>
      </g>
     </g>
    </g>
    <g id="text_13">
     <!-- Frequency [MHz] -->
     <g transform="translate(174.389688 336.148562) scale(0.1 -0.1)">
      <defs>
       <path id="DejaVuSans-46" d="M 628 4666 
L 3309 4666 
L 3309 4134 
L 1259 4134 
L 1259 2759 
L 3109 2759 
L 3109 2228 
L 1259 2228 
L 1259 0 
L 628 0 
L 628 4666 
z
" transform="scale(0.015625)"/>
       <path id="DejaVuSans-71" d="M 947 1747 
Q 947 1113 1208 752 
Q 1469 391 1925 391 
Q 2381 391 2643 752 
Q 2906 1113 2906 1747 
Q 2906 2381 2643 2742 
Q 2381 3103 1925 3103 
Q 1469 3103 1208 2742 
Q 947 2381 947 1747 
z
M 2906 525 
Q 2725 213 2448 61 
Q 2172 -91 1784 -91 
Q 1150 -91 751 415 
Q 353 922 353 1747 
Q 353 2572 751 3078 
Q 1150 3584 1784 3584 
Q 2172 3584 2448 3432 
Q 2725 3281 2906 2969 
L 2906 3500 
L 3481 3500 
L 3481 -1331 
L 2906 -1331 
L 2906 525 
z
" transform="scale(0.015625)"/>
       <path id="DejaVuSans-6e" d="M 3513 2113 
L 3513 0 
L 2938 0 
L 2938 2094 
Q 2938 2591 2744 2837 
Q 2550 3084 2163 3084 
Q 1697 3084 1428 2787 
Q 1159 2491 1159 1978 
L 1159 0 
L 581 0 
L 581 3500 
L 1159 3500 
L 1159 2956 
Q 1366 3272 1645 3428 
Q 1925 3584 2291 3584 
Q 2894 3584 3203 3211 
Q 3513 2838 3513 2113 
z
" transform="scale(0.015625)"/>
       <path id="DejaVuSans-63" d="M 3122 3366 
L 3122 2828 
Q 2878 2963 2633 3030 
Q 2388 3097 2138 3097 
Q 1578 3097 1268 2742 
Q 959 2388 959 1747 
Q 959 1106 1268 751 
Q 1578 397 2138 397 
Q 2388 397 2633 464 
Q 2878 531 3122 666 
L 3122 134 
Q 2881 22 2623 -34 
Q 2366 -91 2075 -91 
Q 1284 -91 818 406 
Q 353 903 353 1747 
Q 353 2603 823 3093 
Q 1294 3584 2113 3584 
Q 2378 3584 2631 3529 
Q 2884 3475 3122 3366 
z
" transform="scale(0.015625)"/>
       <path id="DejaVuSans-4d" d="M 628 4666 
L 1569 4666 
L 2759 1491 
L 3956 4666 
L 4897 4666 
L 4897 0 
L 4281 0 
L 4281 4097 
L 3078 897 
L 2444 897 
L 1241 4097 
L 1241 0 
L 628 0 
L 628 4666 
z
" transform="scale(0.015625)"/>
      </defs>
      <use xlink:href="#DejaVuSans-46"/>
      <use xlink:href="#DejaVuSans-72" x="50.269531"/>
      <use xlink:href="#DejaVuSans-65" x="89.132812"/>
      <use xlink:href="#DejaVuSans-71" x="150.65625"/>
      <use xlink:href="#DejaVuSans-75" x="214.132812"/>
      <use xlink:href="#DejaVuSans-65" x="277.511719"/>
      <use xlink:href="#DejaVuSans-6e" x="339.035156"/>
      <use xlink:href="#DejaVuSans-63" x="402.414062"/>
      <use xlink:href="#DejaVuSans-79" x="457.394531"/>
      <use xlink:href="#DejaVuSans-20" x="516.574219"/>
      <use xlink:href="#DejaVuSans-5b" x="548.361328"/>
      <use xlink:href="#DejaVuSans-4d" x="587.375"/>
      <use xlink:href="#DejaVuSans-48" x="673.654297"/>
      <use xlink:href="#DejaVuSans-7a" x="748.849609"/>
      <use xlink:href="#DejaVuSans-5d" x="801.339844"/>
     </g>
    </g>
    <g id="text_14">
     <!-- +5 GHz -->
     <g transform="translate(356.530938 335.148562) scale(0.1 -0.1)">
      <defs>
       <path id="DejaVuSans-2b" d="M 2944 4013 
L 2944 2272 
L 4684 2272 
L 4684 1741 
L 2944 1741 
L 2944 0 
L 2419 0 
L 2419 1741 
L 678 1741 
L 678 2272 
L 2419 2272 
L 2419 4013 
L 2944 4013 
z
" transform="scale(0.015625)"/>
      </defs>
      <use xlink:href="#DejaVuSans-2b"/>
      <use xlink:href="#DejaVuSans-35" x="83.789062"/>
      <use xlink:href="#DejaVuSans-20" x="147.412109"/>
      <use xlink:href="#DejaVuSans-47" x="179.199219"/>
      <use xlink:href="#DejaVuSans-48" x="256.689453"/>
      <use xlink:href="#DejaVuSans-7a" x="331.884766"/>
     </g>
    </g>
   </g>
   <g id="matplotlib.axis_4">
    <g id="ytick_4">
     <g id="line2d_20">
      <g>
       <use xlink:href="#mbb341e93f9" x="37.848438" y="296.753847" style="stroke: #000000; stroke-width: 0.8"/>
      </g>
     </g>
     <g id="text_15">
      <!-- -4 -->
      <g transform="translate(20.878125 300.553066) scale(0.1 -0.1)">
       <use xlink:href="#DejaVuSans-2d"/>
       <use xlink:href="#DejaVuSans-34" x="36.083984"/>
      </g>
     </g>
    </g>
    <g id="ytick_5">
     <g id="line2d_21">
      <g>
       <use xlink:href="#mbb341e93f9" x="37.848438" y="257.369126" style="stroke: #000000; stroke-width: 0.8"/>
      </g>
     </g>
     <g id="text_16">
      <!-- -3 -->
      <g transform="translate(20.878125 261.168345) scale(0.1 -0.1)">
       <use xlink:href="#DejaVuSans-2d"/>
       <use xlink:href="#DejaVuSans-33" x="36.083984"/>
      </g>
     </g>
    </g>
    <g id="ytick_6">
     <g id="line2d_22">
      <g>
       <use xlink:href="#mbb341e93f9" x="37.848438" y="217.984405" style="stroke: #000000; stroke-width: 0.8"/>
      </g>
     </g>
     <g id="text_17">
      <!-- -2 -->
      <g transform="translate(20.878125 221.783623) scale(0.1 -0.1)">
       <use xlink:href="#DejaVuSans-2d"/>
       <use xlink:href="#DejaVuSans-32" x="36.083984"/>
      </g>
     </g>
    </g>
    <g id="text_18">
     <!-- Im$(S_{21})$ [mV] -->
     <g transform="translate(14.798438 279.042) rotate(-90) scale(0.1 -0.1)">
      <defs>
       <path id="DejaVuSans-49" d="M 628 4666 
L 1259 4666 
L 1259 0 
L 628 0 
L 628 4666 
z
" transform="scale(0.015625)"/>
      </defs>
      <use xlink:href="#DejaVuSans-49" transform="translate(0 0.015625)"/>
      <use xlink:href="#DejaVuSans-6d" transform="translate(25.867188 0.015625)"/>
      <use xlink:href="#DejaVuSans-28" transform="translate(123.279297 0.015625)"/>
      <use xlink:href="#DejaVuSans-Oblique-53" transform="translate(162.292969 0.015625)"/>
      <use xlink:href="#DejaVuSans-32" transform="translate(225.769531 -16.390625) scale(0.7)"/>
      <use xlink:href="#DejaVuSans-31" transform="translate(270.305664 -16.390625) scale(0.7)"/>
      <use xlink:href="#DejaVuSans-29" transform="translate(317.576172 0.015625)"/>
      <use xlink:href="#DejaVuSans-20" transform="translate(356.589844 0.015625)"/>
      <use xlink:href="#DejaVuSans-5b" transform="translate(388.376953 0.015625)"/>
      <use xlink:href="#DejaVuSans-6d" transform="translate(427.390625 0.015625)"/>
      <use xlink:href="#DejaVuSans-56" transform="translate(524.802734 0.015625)"/>
      <use xlink:href="#DejaVuSans-5d" transform="translate(593.210938 0.015625)"/>
     </g>
    </g>
   </g>
   <g id="line2d_23">
    <path d="M 54.081165 192.410182 
L 55.712595 195.473769 
L 57.344025 193.403843 
L 58.975454 197.91112 
L 60.606884 196.96572 
L 62.238314 205.236575 
L 63.869744 201.559642 
L 65.501174 203.978169 
L 67.132604 205.230483 
L 68.764034 208.459504 
L 70.395464 210.389586 
L 72.026893 209.606221 
L 73.658323 215.360456 
L 75.289753 216.811104 
L 76.921183 218.082818 
L 78.552613 220.388053 
L 80.184043 217.685155 
L 81.815473 223.752974 
L 83.446903 226.447919 
L 85.078332 226.156398 
L 86.709762 225.532918 
L 88.341192 226.801714 
L 89.972622 231.261789 
L 91.604052 231.509763 
L 93.235482 235.85026 
L 94.866912 237.426867 
L 96.498342 238.406354 
L 98.129771 235.511439 
L 99.761201 239.852513 
L 101.392631 239.855848 
L 103.024061 240.711108 
L 104.655491 246.447289 
L 106.286921 245.057761 
L 107.918351 245.878869 
L 109.549781 248.298102 
L 111.18121 252.794829 
L 112.81264 251.707436 
L 114.44407 253.812989 
L 116.0755 250.406124 
L 117.70693 256.472981 
L 119.33836 259.552377 
L 120.96979 257.942965 
L 122.60122 260.134298 
L 124.232649 258.040417 
L 125.864079 263.660516 
L 127.495509 262.491352 
L 129.126939 263.551841 
L 130.758369 264.9676 
L 134.021229 266.667922 
L 135.652659 268.702992 
L 137.284088 267.723986 
L 138.915518 269.777718 
L 140.546948 272.913809 
L 142.178378 271.374977 
L 143.809808 271.582066 
L 145.441238 275.583421 
L 147.072668 276.074624 
L 148.704098 277.37026 
L 150.335527 277.138063 
L 151.966957 278.247422 
L 153.598387 278.998816 
L 155.229817 282.061506 
L 156.861247 279.440187 
L 158.492677 281.480804 
L 160.124107 283.01008 
L 161.755537 284.240588 
L 163.386967 286.67826 
L 165.018396 287.921049 
L 166.649826 285.514964 
L 168.281256 288.12538 
L 169.912686 285.643745 
L 171.544116 289.857352 
L 173.175546 291.811389 
L 174.806976 288.206606 
L 176.438406 292.325648 
L 178.069835 293.640941 
L 179.701265 294.346223 
L 181.332695 295.425888 
L 182.964125 294.55902 
L 184.595555 294.765564 
L 186.226985 299.523541 
L 187.858415 297.813053 
L 189.489845 296.900971 
L 191.121274 297.887192 
L 192.752704 302.323729 
L 194.384134 300.698733 
L 196.015564 302.373818 
L 197.646994 300.020612 
L 199.278424 301.40735 
L 200.909854 301.395774 
L 202.541284 301.686109 
L 204.172713 300.024011 
L 205.804143 297.63367 
L 207.435573 298.778559 
L 209.067003 285.967911 
L 210.698433 267.534053 
L 212.329863 232.757235 
L 213.961293 210.596322 
L 215.592723 197.465196 
L 217.224152 207.984206 
L 218.855582 228.880588 
L 220.487012 238.186022 
L 222.118442 248.336486 
L 223.749872 253.824661 
L 227.012732 266.513199 
L 228.644162 269.546355 
L 230.275591 272.043703 
L 231.907021 275.43851 
L 233.538451 273.333278 
L 235.169881 276.322053 
L 238.432741 279.556911 
L 240.064171 281.184024 
L 241.695601 280.12671 
L 243.32703 280.156596 
L 244.95846 281.437 
L 246.58989 280.588314 
L 248.22132 283.001005 
L 249.85275 286.958493 
L 251.48418 282.440442 
L 253.11561 279.20055 
L 254.74704 284.237991 
L 256.378469 284.950809 
L 258.009899 282.20818 
L 259.641329 284.272912 
L 261.272759 282.714775 
L 262.904189 282.98308 
L 264.535619 281.427573 
L 266.167049 280.975171 
L 267.798479 281.246234 
L 269.429908 279.885373 
L 271.061338 282.269973 
L 272.692768 278.740452 
L 274.324198 277.391777 
L 275.955628 279.527826 
L 277.587058 279.709582 
L 279.218488 279.320064 
L 280.849918 276.866102 
L 282.481348 275.839957 
L 284.112777 275.789548 
L 285.744207 275.257717 
L 287.375637 275.399934 
L 289.007067 274.928356 
L 290.638497 274.182894 
L 292.269927 268.92294 
L 293.901357 270.125485 
L 295.532787 272.494854 
L 297.164216 270.261065 
L 298.795646 270.057952 
L 300.427076 266.104184 
L 302.058506 267.967535 
L 303.689936 267.262766 
L 305.321366 266.906693 
L 306.952796 266.263653 
L 308.584226 264.177757 
L 310.215655 263.84301 
L 311.847085 266.826526 
L 313.478515 261.117377 
L 315.109945 262.158272 
L 316.741375 259.959789 
L 318.372805 261.15544 
L 320.004235 257.446857 
L 321.635665 256.697963 
L 323.267094 255.394823 
L 324.898524 253.146412 
L 326.529954 253.138555 
L 328.161384 255.348679 
L 329.792814 248.683355 
L 331.424244 246.233466 
L 334.687104 249.631224 
L 336.318533 245.105669 
L 337.949963 244.993178 
L 339.581393 245.66697 
L 341.212823 243.472816 
L 342.844253 241.924203 
L 344.475683 240.940419 
L 346.107113 238.424152 
L 347.738543 239.094256 
L 349.369972 238.41187 
L 351.001402 236.587064 
L 352.632832 234.065473 
L 354.264262 232.587696 
L 355.895692 235.779039 
L 357.527122 229.218542 
L 359.158552 228.716565 
L 360.789982 228.02722 
L 364.052841 224.647388 
L 365.684271 220.006487 
L 367.315701 222.50794 
L 368.947131 219.358381 
L 370.578561 217.351337 
L 372.209991 218.862592 
L 373.841421 214.915943 
L 375.47285 215.99378 
L 377.10428 215.19592 
L 378.73571 212.494818 
L 378.73571 212.494818 
" clip-path="url(#pf7a4ed70df)" style="fill: none; stroke: #1f77b4; stroke-width: 1.5; stroke-linecap: square"/>
    <g clip-path="url(#pf7a4ed70df)">
     <use xlink:href="#m2d68aa26e9" x="54.081165" y="192.410182" style="fill: #1f77b4; stroke: #1f77b4"/>
     <use xlink:href="#m2d68aa26e9" x="55.712595" y="195.473769" style="fill: #1f77b4; stroke: #1f77b4"/>
     <use xlink:href="#m2d68aa26e9" x="57.344025" y="193.403843" style="fill: #1f77b4; stroke: #1f77b4"/>
     <use xlink:href="#m2d68aa26e9" x="58.975454" y="197.91112" style="fill: #1f77b4; stroke: #1f77b4"/>
     <use xlink:href="#m2d68aa26e9" x="60.606884" y="196.96572" style="fill: #1f77b4; stroke: #1f77b4"/>
     <use xlink:href="#m2d68aa26e9" x="62.238314" y="205.236575" style="fill: #1f77b4; stroke: #1f77b4"/>
     <use xlink:href="#m2d68aa26e9" x="63.869744" y="201.559642" style="fill: #1f77b4; stroke: #1f77b4"/>
     <use xlink:href="#m2d68aa26e9" x="65.501174" y="203.978169" style="fill: #1f77b4; stroke: #1f77b4"/>
     <use xlink:href="#m2d68aa26e9" x="67.132604" y="205.230483" style="fill: #1f77b4; stroke: #1f77b4"/>
     <use xlink:href="#m2d68aa26e9" x="68.764034" y="208.459504" style="fill: #1f77b4; stroke: #1f77b4"/>
     <use xlink:href="#m2d68aa26e9" x="70.395464" y="210.389586" style="fill: #1f77b4; stroke: #1f77b4"/>
     <use xlink:href="#m2d68aa26e9" x="72.026893" y="209.606221" style="fill: #1f77b4; stroke: #1f77b4"/>
     <use xlink:href="#m2d68aa26e9" x="73.658323" y="215.360456" style="fill: #1f77b4; stroke: #1f77b4"/>
     <use xlink:href="#m2d68aa26e9" x="75.289753" y="216.811104" style="fill: #1f77b4; stroke: #1f77b4"/>
     <use xlink:href="#m2d68aa26e9" x="76.921183" y="218.082818" style="fill: #1f77b4; stroke: #1f77b4"/>
     <use xlink:href="#m2d68aa26e9" x="78.552613" y="220.388053" style="fill: #1f77b4; stroke: #1f77b4"/>
     <use xlink:href="#m2d68aa26e9" x="80.184043" y="217.685155" style="fill: #1f77b4; stroke: #1f77b4"/>
     <use xlink:href="#m2d68aa26e9" x="81.815473" y="223.752974" style="fill: #1f77b4; stroke: #1f77b4"/>
     <use xlink:href="#m2d68aa26e9" x="83.446903" y="226.447919" style="fill: #1f77b4; stroke: #1f77b4"/>
     <use xlink:href="#m2d68aa26e9" x="85.078332" y="226.156398" style="fill: #1f77b4; stroke: #1f77b4"/>
     <use xlink:href="#m2d68aa26e9" x="86.709762" y="225.532918" style="fill: #1f77b4; stroke: #1f77b4"/>
     <use xlink:href="#m2d68aa26e9" x="88.341192" y="226.801714" style="fill: #1f77b4; stroke: #1f77b4"/>
     <use xlink:href="#m2d68aa26e9" x="89.972622" y="231.261789" style="fill: #1f77b4; stroke: #1f77b4"/>
     <use xlink:href="#m2d68aa26e9" x="91.604052" y="231.509763" style="fill: #1f77b4; stroke: #1f77b4"/>
     <use xlink:href="#m2d68aa26e9" x="93.235482" y="235.85026" style="fill: #1f77b4; stroke: #1f77b4"/>
     <use xlink:href="#m2d68aa26e9" x="94.866912" y="237.426867" style="fill: #1f77b4; stroke: #1f77b4"/>
     <use xlink:href="#m2d68aa26e9" x="96.498342" y="238.406354" style="fill: #1f77b4; stroke: #1f77b4"/>
     <use xlink:href="#m2d68aa26e9" x="98.129771" y="235.511439" style="fill: #1f77b4; stroke: #1f77b4"/>
     <use xlink:href="#m2d68aa26e9" x="99.761201" y="239.852513" style="fill: #1f77b4; stroke: #1f77b4"/>
     <use xlink:href="#m2d68aa26e9" x="101.392631" y="239.855848" style="fill: #1f77b4; stroke: #1f77b4"/>
     <use xlink:href="#m2d68aa26e9" x="103.024061" y="240.711108" style="fill: #1f77b4; stroke: #1f77b4"/>
     <use xlink:href="#m2d68aa26e9" x="104.655491" y="246.447289" style="fill: #1f77b4; stroke: #1f77b4"/>
     <use xlink:href="#m2d68aa26e9" x="106.286921" y="245.057761" style="fill: #1f77b4; stroke: #1f77b4"/>
     <use xlink:href="#m2d68aa26e9" x="107.918351" y="245.878869" style="fill: #1f77b4; stroke: #1f77b4"/>
     <use xlink:href="#m2d68aa26e9" x="109.549781" y="248.298102" style="fill: #1f77b4; stroke: #1f77b4"/>
     <use xlink:href="#m2d68aa26e9" x="111.18121" y="252.794829" style="fill: #1f77b4; stroke: #1f77b4"/>
     <use xlink:href="#m2d68aa26e9" x="112.81264" y="251.707436" style="fill: #1f77b4; stroke: #1f77b4"/>
     <use xlink:href="#m2d68aa26e9" x="114.44407" y="253.812989" style="fill: #1f77b4; stroke: #1f77b4"/>
     <use xlink:href="#m2d68aa26e9" x="116.0755" y="250.406124" style="fill: #1f77b4; stroke: #1f77b4"/>
     <use xlink:href="#m2d68aa26e9" x="117.70693" y="256.472981" style="fill: #1f77b4; stroke: #1f77b4"/>
     <use xlink:href="#m2d68aa26e9" x="119.33836" y="259.552377" style="fill: #1f77b4; stroke: #1f77b4"/>
     <use xlink:href="#m2d68aa26e9" x="120.96979" y="257.942965" style="fill: #1f77b4; stroke: #1f77b4"/>
     <use xlink:href="#m2d68aa26e9" x="122.60122" y="260.134298" style="fill: #1f77b4; stroke: #1f77b4"/>
     <use xlink:href="#m2d68aa26e9" x="124.232649" y="258.040417" style="fill: #1f77b4; stroke: #1f77b4"/>
     <use xlink:href="#m2d68aa26e9" x="125.864079" y="263.660516" style="fill: #1f77b4; stroke: #1f77b4"/>
     <use xlink:href="#m2d68aa26e9" x="127.495509" y="262.491352" style="fill: #1f77b4; stroke: #1f77b4"/>
     <use xlink:href="#m2d68aa26e9" x="129.126939" y="263.551841" style="fill: #1f77b4; stroke: #1f77b4"/>
     <use xlink:href="#m2d68aa26e9" x="130.758369" y="264.9676" style="fill: #1f77b4; stroke: #1f77b4"/>
     <use xlink:href="#m2d68aa26e9" x="132.389799" y="265.833763" style="fill: #1f77b4; stroke: #1f77b4"/>
     <use xlink:href="#m2d68aa26e9" x="134.021229" y="266.667922" style="fill: #1f77b4; stroke: #1f77b4"/>
     <use xlink:href="#m2d68aa26e9" x="135.652659" y="268.702992" style="fill: #1f77b4; stroke: #1f77b4"/>
     <use xlink:href="#m2d68aa26e9" x="137.284088" y="267.723986" style="fill: #1f77b4; stroke: #1f77b4"/>
     <use xlink:href="#m2d68aa26e9" x="138.915518" y="269.777718" style="fill: #1f77b4; stroke: #1f77b4"/>
     <use xlink:href="#m2d68aa26e9" x="140.546948" y="272.913809" style="fill: #1f77b4; stroke: #1f77b4"/>
     <use xlink:href="#m2d68aa26e9" x="142.178378" y="271.374977" style="fill: #1f77b4; stroke: #1f77b4"/>
     <use xlink:href="#m2d68aa26e9" x="143.809808" y="271.582066" style="fill: #1f77b4; stroke: #1f77b4"/>
     <use xlink:href="#m2d68aa26e9" x="145.441238" y="275.583421" style="fill: #1f77b4; stroke: #1f77b4"/>
     <use xlink:href="#m2d68aa26e9" x="147.072668" y="276.074624" style="fill: #1f77b4; stroke: #1f77b4"/>
     <use xlink:href="#m2d68aa26e9" x="148.704098" y="277.37026" style="fill: #1f77b4; stroke: #1f77b4"/>
     <use xlink:href="#m2d68aa26e9" x="150.335527" y="277.138063" style="fill: #1f77b4; stroke: #1f77b4"/>
     <use xlink:href="#m2d68aa26e9" x="151.966957" y="278.247422" style="fill: #1f77b4; stroke: #1f77b4"/>
     <use xlink:href="#m2d68aa26e9" x="153.598387" y="278.998816" style="fill: #1f77b4; stroke: #1f77b4"/>
     <use xlink:href="#m2d68aa26e9" x="155.229817" y="282.061506" style="fill: #1f77b4; stroke: #1f77b4"/>
     <use xlink:href="#m2d68aa26e9" x="156.861247" y="279.440187" style="fill: #1f77b4; stroke: #1f77b4"/>
     <use xlink:href="#m2d68aa26e9" x="158.492677" y="281.480804" style="fill: #1f77b4; stroke: #1f77b4"/>
     <use xlink:href="#m2d68aa26e9" x="160.124107" y="283.01008" style="fill: #1f77b4; stroke: #1f77b4"/>
     <use xlink:href="#m2d68aa26e9" x="161.755537" y="284.240588" style="fill: #1f77b4; stroke: #1f77b4"/>
     <use xlink:href="#m2d68aa26e9" x="163.386967" y="286.67826" style="fill: #1f77b4; stroke: #1f77b4"/>
     <use xlink:href="#m2d68aa26e9" x="165.018396" y="287.921049" style="fill: #1f77b4; stroke: #1f77b4"/>
     <use xlink:href="#m2d68aa26e9" x="166.649826" y="285.514964" style="fill: #1f77b4; stroke: #1f77b4"/>
     <use xlink:href="#m2d68aa26e9" x="168.281256" y="288.12538" style="fill: #1f77b4; stroke: #1f77b4"/>
     <use xlink:href="#m2d68aa26e9" x="169.912686" y="285.643745" style="fill: #1f77b4; stroke: #1f77b4"/>
     <use xlink:href="#m2d68aa26e9" x="171.544116" y="289.857352" style="fill: #1f77b4; stroke: #1f77b4"/>
     <use xlink:href="#m2d68aa26e9" x="173.175546" y="291.811389" style="fill: #1f77b4; stroke: #1f77b4"/>
     <use xlink:href="#m2d68aa26e9" x="174.806976" y="288.206606" style="fill: #1f77b4; stroke: #1f77b4"/>
     <use xlink:href="#m2d68aa26e9" x="176.438406" y="292.325648" style="fill: #1f77b4; stroke: #1f77b4"/>
     <use xlink:href="#m2d68aa26e9" x="178.069835" y="293.640941" style="fill: #1f77b4; stroke: #1f77b4"/>
     <use xlink:href="#m2d68aa26e9" x="179.701265" y="294.346223" style="fill: #1f77b4; stroke: #1f77b4"/>
     <use xlink:href="#m2d68aa26e9" x="181.332695" y="295.425888" style="fill: #1f77b4; stroke: #1f77b4"/>
     <use xlink:href="#m2d68aa26e9" x="182.964125" y="294.55902" style="fill: #1f77b4; stroke: #1f77b4"/>
     <use xlink:href="#m2d68aa26e9" x="184.595555" y="294.765564" style="fill: #1f77b4; stroke: #1f77b4"/>
     <use xlink:href="#m2d68aa26e9" x="186.226985" y="299.523541" style="fill: #1f77b4; stroke: #1f77b4"/>
     <use xlink:href="#m2d68aa26e9" x="187.858415" y="297.813053" style="fill: #1f77b4; stroke: #1f77b4"/>
     <use xlink:href="#m2d68aa26e9" x="189.489845" y="296.900971" style="fill: #1f77b4; stroke: #1f77b4"/>
     <use xlink:href="#m2d68aa26e9" x="191.121274" y="297.887192" style="fill: #1f77b4; stroke: #1f77b4"/>
     <use xlink:href="#m2d68aa26e9" x="192.752704" y="302.323729" style="fill: #1f77b4; stroke: #1f77b4"/>
     <use xlink:href="#m2d68aa26e9" x="194.384134" y="300.698733" style="fill: #1f77b4; stroke: #1f77b4"/>
     <use xlink:href="#m2d68aa26e9" x="196.015564" y="302.373818" style="fill: #1f77b4; stroke: #1f77b4"/>
     <use xlink:href="#m2d68aa26e9" x="197.646994" y="300.020612" style="fill: #1f77b4; stroke: #1f77b4"/>
     <use xlink:href="#m2d68aa26e9" x="199.278424" y="301.40735" style="fill: #1f77b4; stroke: #1f77b4"/>
     <use xlink:href="#m2d68aa26e9" x="200.909854" y="301.395774" style="fill: #1f77b4; stroke: #1f77b4"/>
     <use xlink:href="#m2d68aa26e9" x="202.541284" y="301.686109" style="fill: #1f77b4; stroke: #1f77b4"/>
     <use xlink:href="#m2d68aa26e9" x="204.172713" y="300.024011" style="fill: #1f77b4; stroke: #1f77b4"/>
     <use xlink:href="#m2d68aa26e9" x="205.804143" y="297.63367" style="fill: #1f77b4; stroke: #1f77b4"/>
     <use xlink:href="#m2d68aa26e9" x="207.435573" y="298.778559" style="fill: #1f77b4; stroke: #1f77b4"/>
     <use xlink:href="#m2d68aa26e9" x="209.067003" y="285.967911" style="fill: #1f77b4; stroke: #1f77b4"/>
     <use xlink:href="#m2d68aa26e9" x="210.698433" y="267.534053" style="fill: #1f77b4; stroke: #1f77b4"/>
     <use xlink:href="#m2d68aa26e9" x="212.329863" y="232.757235" style="fill: #1f77b4; stroke: #1f77b4"/>
     <use xlink:href="#m2d68aa26e9" x="213.961293" y="210.596322" style="fill: #1f77b4; stroke: #1f77b4"/>
     <use xlink:href="#m2d68aa26e9" x="215.592723" y="197.465196" style="fill: #1f77b4; stroke: #1f77b4"/>
     <use xlink:href="#m2d68aa26e9" x="217.224152" y="207.984206" style="fill: #1f77b4; stroke: #1f77b4"/>
     <use xlink:href="#m2d68aa26e9" x="218.855582" y="228.880588" style="fill: #1f77b4; stroke: #1f77b4"/>
     <use xlink:href="#m2d68aa26e9" x="220.487012" y="238.186022" style="fill: #1f77b4; stroke: #1f77b4"/>
     <use xlink:href="#m2d68aa26e9" x="222.118442" y="248.336486" style="fill: #1f77b4; stroke: #1f77b4"/>
     <use xlink:href="#m2d68aa26e9" x="223.749872" y="253.824661" style="fill: #1f77b4; stroke: #1f77b4"/>
     <use xlink:href="#m2d68aa26e9" x="225.381302" y="260.112011" style="fill: #1f77b4; stroke: #1f77b4"/>
     <use xlink:href="#m2d68aa26e9" x="227.012732" y="266.513199" style="fill: #1f77b4; stroke: #1f77b4"/>
     <use xlink:href="#m2d68aa26e9" x="228.644162" y="269.546355" style="fill: #1f77b4; stroke: #1f77b4"/>
     <use xlink:href="#m2d68aa26e9" x="230.275591" y="272.043703" style="fill: #1f77b4; stroke: #1f77b4"/>
     <use xlink:href="#m2d68aa26e9" x="231.907021" y="275.43851" style="fill: #1f77b4; stroke: #1f77b4"/>
     <use xlink:href="#m2d68aa26e9" x="233.538451" y="273.333278" style="fill: #1f77b4; stroke: #1f77b4"/>
     <use xlink:href="#m2d68aa26e9" x="235.169881" y="276.322053" style="fill: #1f77b4; stroke: #1f77b4"/>
     <use xlink:href="#m2d68aa26e9" x="236.801311" y="278.008009" style="fill: #1f77b4; stroke: #1f77b4"/>
     <use xlink:href="#m2d68aa26e9" x="238.432741" y="279.556911" style="fill: #1f77b4; stroke: #1f77b4"/>
     <use xlink:href="#m2d68aa26e9" x="240.064171" y="281.184024" style="fill: #1f77b4; stroke: #1f77b4"/>
     <use xlink:href="#m2d68aa26e9" x="241.695601" y="280.12671" style="fill: #1f77b4; stroke: #1f77b4"/>
     <use xlink:href="#m2d68aa26e9" x="243.32703" y="280.156596" style="fill: #1f77b4; stroke: #1f77b4"/>
     <use xlink:href="#m2d68aa26e9" x="244.95846" y="281.437" style="fill: #1f77b4; stroke: #1f77b4"/>
     <use xlink:href="#m2d68aa26e9" x="246.58989" y="280.588314" style="fill: #1f77b4; stroke: #1f77b4"/>
     <use xlink:href="#m2d68aa26e9" x="248.22132" y="283.001005" style="fill: #1f77b4; stroke: #1f77b4"/>
     <use xlink:href="#m2d68aa26e9" x="249.85275" y="286.958493" style="fill: #1f77b4; stroke: #1f77b4"/>
     <use xlink:href="#m2d68aa26e9" x="251.48418" y="282.440442" style="fill: #1f77b4; stroke: #1f77b4"/>
     <use xlink:href="#m2d68aa26e9" x="253.11561" y="279.20055" style="fill: #1f77b4; stroke: #1f77b4"/>
     <use xlink:href="#m2d68aa26e9" x="254.74704" y="284.237991" style="fill: #1f77b4; stroke: #1f77b4"/>
     <use xlink:href="#m2d68aa26e9" x="256.378469" y="284.950809" style="fill: #1f77b4; stroke: #1f77b4"/>
     <use xlink:href="#m2d68aa26e9" x="258.009899" y="282.20818" style="fill: #1f77b4; stroke: #1f77b4"/>
     <use xlink:href="#m2d68aa26e9" x="259.641329" y="284.272912" style="fill: #1f77b4; stroke: #1f77b4"/>
     <use xlink:href="#m2d68aa26e9" x="261.272759" y="282.714775" style="fill: #1f77b4; stroke: #1f77b4"/>
     <use xlink:href="#m2d68aa26e9" x="262.904189" y="282.98308" style="fill: #1f77b4; stroke: #1f77b4"/>
     <use xlink:href="#m2d68aa26e9" x="264.535619" y="281.427573" style="fill: #1f77b4; stroke: #1f77b4"/>
     <use xlink:href="#m2d68aa26e9" x="266.167049" y="280.975171" style="fill: #1f77b4; stroke: #1f77b4"/>
     <use xlink:href="#m2d68aa26e9" x="267.798479" y="281.246234" style="fill: #1f77b4; stroke: #1f77b4"/>
     <use xlink:href="#m2d68aa26e9" x="269.429908" y="279.885373" style="fill: #1f77b4; stroke: #1f77b4"/>
     <use xlink:href="#m2d68aa26e9" x="271.061338" y="282.269973" style="fill: #1f77b4; stroke: #1f77b4"/>
     <use xlink:href="#m2d68aa26e9" x="272.692768" y="278.740452" style="fill: #1f77b4; stroke: #1f77b4"/>
     <use xlink:href="#m2d68aa26e9" x="274.324198" y="277.391777" style="fill: #1f77b4; stroke: #1f77b4"/>
     <use xlink:href="#m2d68aa26e9" x="275.955628" y="279.527826" style="fill: #1f77b4; stroke: #1f77b4"/>
     <use xlink:href="#m2d68aa26e9" x="277.587058" y="279.709582" style="fill: #1f77b4; stroke: #1f77b4"/>
     <use xlink:href="#m2d68aa26e9" x="279.218488" y="279.320064" style="fill: #1f77b4; stroke: #1f77b4"/>
     <use xlink:href="#m2d68aa26e9" x="280.849918" y="276.866102" style="fill: #1f77b4; stroke: #1f77b4"/>
     <use xlink:href="#m2d68aa26e9" x="282.481348" y="275.839957" style="fill: #1f77b4; stroke: #1f77b4"/>
     <use xlink:href="#m2d68aa26e9" x="284.112777" y="275.789548" style="fill: #1f77b4; stroke: #1f77b4"/>
     <use xlink:href="#m2d68aa26e9" x="285.744207" y="275.257717" style="fill: #1f77b4; stroke: #1f77b4"/>
     <use xlink:href="#m2d68aa26e9" x="287.375637" y="275.399934" style="fill: #1f77b4; stroke: #1f77b4"/>
     <use xlink:href="#m2d68aa26e9" x="289.007067" y="274.928356" style="fill: #1f77b4; stroke: #1f77b4"/>
     <use xlink:href="#m2d68aa26e9" x="290.638497" y="274.182894" style="fill: #1f77b4; stroke: #1f77b4"/>
     <use xlink:href="#m2d68aa26e9" x="292.269927" y="268.92294" style="fill: #1f77b4; stroke: #1f77b4"/>
     <use xlink:href="#m2d68aa26e9" x="293.901357" y="270.125485" style="fill: #1f77b4; stroke: #1f77b4"/>
     <use xlink:href="#m2d68aa26e9" x="295.532787" y="272.494854" style="fill: #1f77b4; stroke: #1f77b4"/>
     <use xlink:href="#m2d68aa26e9" x="297.164216" y="270.261065" style="fill: #1f77b4; stroke: #1f77b4"/>
     <use xlink:href="#m2d68aa26e9" x="298.795646" y="270.057952" style="fill: #1f77b4; stroke: #1f77b4"/>
     <use xlink:href="#m2d68aa26e9" x="300.427076" y="266.104184" style="fill: #1f77b4; stroke: #1f77b4"/>
     <use xlink:href="#m2d68aa26e9" x="302.058506" y="267.967535" style="fill: #1f77b4; stroke: #1f77b4"/>
     <use xlink:href="#m2d68aa26e9" x="303.689936" y="267.262766" style="fill: #1f77b4; stroke: #1f77b4"/>
     <use xlink:href="#m2d68aa26e9" x="305.321366" y="266.906693" style="fill: #1f77b4; stroke: #1f77b4"/>
     <use xlink:href="#m2d68aa26e9" x="306.952796" y="266.263653" style="fill: #1f77b4; stroke: #1f77b4"/>
     <use xlink:href="#m2d68aa26e9" x="308.584226" y="264.177757" style="fill: #1f77b4; stroke: #1f77b4"/>
     <use xlink:href="#m2d68aa26e9" x="310.215655" y="263.84301" style="fill: #1f77b4; stroke: #1f77b4"/>
     <use xlink:href="#m2d68aa26e9" x="311.847085" y="266.826526" style="fill: #1f77b4; stroke: #1f77b4"/>
     <use xlink:href="#m2d68aa26e9" x="313.478515" y="261.117377" style="fill: #1f77b4; stroke: #1f77b4"/>
     <use xlink:href="#m2d68aa26e9" x="315.109945" y="262.158272" style="fill: #1f77b4; stroke: #1f77b4"/>
     <use xlink:href="#m2d68aa26e9" x="316.741375" y="259.959789" style="fill: #1f77b4; stroke: #1f77b4"/>
     <use xlink:href="#m2d68aa26e9" x="318.372805" y="261.15544" style="fill: #1f77b4; stroke: #1f77b4"/>
     <use xlink:href="#m2d68aa26e9" x="320.004235" y="257.446857" style="fill: #1f77b4; stroke: #1f77b4"/>
     <use xlink:href="#m2d68aa26e9" x="321.635665" y="256.697963" style="fill: #1f77b4; stroke: #1f77b4"/>
     <use xlink:href="#m2d68aa26e9" x="323.267094" y="255.394823" style="fill: #1f77b4; stroke: #1f77b4"/>
     <use xlink:href="#m2d68aa26e9" x="324.898524" y="253.146412" style="fill: #1f77b4; stroke: #1f77b4"/>
     <use xlink:href="#m2d68aa26e9" x="326.529954" y="253.138555" style="fill: #1f77b4; stroke: #1f77b4"/>
     <use xlink:href="#m2d68aa26e9" x="328.161384" y="255.348679" style="fill: #1f77b4; stroke: #1f77b4"/>
     <use xlink:href="#m2d68aa26e9" x="329.792814" y="248.683355" style="fill: #1f77b4; stroke: #1f77b4"/>
     <use xlink:href="#m2d68aa26e9" x="331.424244" y="246.233466" style="fill: #1f77b4; stroke: #1f77b4"/>
     <use xlink:href="#m2d68aa26e9" x="333.055674" y="247.861349" style="fill: #1f77b4; stroke: #1f77b4"/>
     <use xlink:href="#m2d68aa26e9" x="334.687104" y="249.631224" style="fill: #1f77b4; stroke: #1f77b4"/>
     <use xlink:href="#m2d68aa26e9" x="336.318533" y="245.105669" style="fill: #1f77b4; stroke: #1f77b4"/>
     <use xlink:href="#m2d68aa26e9" x="337.949963" y="244.993178" style="fill: #1f77b4; stroke: #1f77b4"/>
     <use xlink:href="#m2d68aa26e9" x="339.581393" y="245.66697" style="fill: #1f77b4; stroke: #1f77b4"/>
     <use xlink:href="#m2d68aa26e9" x="341.212823" y="243.472816" style="fill: #1f77b4; stroke: #1f77b4"/>
     <use xlink:href="#m2d68aa26e9" x="342.844253" y="241.924203" style="fill: #1f77b4; stroke: #1f77b4"/>
     <use xlink:href="#m2d68aa26e9" x="344.475683" y="240.940419" style="fill: #1f77b4; stroke: #1f77b4"/>
     <use xlink:href="#m2d68aa26e9" x="346.107113" y="238.424152" style="fill: #1f77b4; stroke: #1f77b4"/>
     <use xlink:href="#m2d68aa26e9" x="347.738543" y="239.094256" style="fill: #1f77b4; stroke: #1f77b4"/>
     <use xlink:href="#m2d68aa26e9" x="349.369972" y="238.41187" style="fill: #1f77b4; stroke: #1f77b4"/>
     <use xlink:href="#m2d68aa26e9" x="351.001402" y="236.587064" style="fill: #1f77b4; stroke: #1f77b4"/>
     <use xlink:href="#m2d68aa26e9" x="352.632832" y="234.065473" style="fill: #1f77b4; stroke: #1f77b4"/>
     <use xlink:href="#m2d68aa26e9" x="354.264262" y="232.587696" style="fill: #1f77b4; stroke: #1f77b4"/>
     <use xlink:href="#m2d68aa26e9" x="355.895692" y="235.779039" style="fill: #1f77b4; stroke: #1f77b4"/>
     <use xlink:href="#m2d68aa26e9" x="357.527122" y="229.218542" style="fill: #1f77b4; stroke: #1f77b4"/>
     <use xlink:href="#m2d68aa26e9" x="359.158552" y="228.716565" style="fill: #1f77b4; stroke: #1f77b4"/>
     <use xlink:href="#m2d68aa26e9" x="360.789982" y="228.02722" style="fill: #1f77b4; stroke: #1f77b4"/>
     <use xlink:href="#m2d68aa26e9" x="362.421411" y="226.352488" style="fill: #1f77b4; stroke: #1f77b4"/>
     <use xlink:href="#m2d68aa26e9" x="364.052841" y="224.647388" style="fill: #1f77b4; stroke: #1f77b4"/>
     <use xlink:href="#m2d68aa26e9" x="365.684271" y="220.006487" style="fill: #1f77b4; stroke: #1f77b4"/>
     <use xlink:href="#m2d68aa26e9" x="367.315701" y="222.50794" style="fill: #1f77b4; stroke: #1f77b4"/>
     <use xlink:href="#m2d68aa26e9" x="368.947131" y="219.358381" style="fill: #1f77b4; stroke: #1f77b4"/>
     <use xlink:href="#m2d68aa26e9" x="370.578561" y="217.351337" style="fill: #1f77b4; stroke: #1f77b4"/>
     <use xlink:href="#m2d68aa26e9" x="372.209991" y="218.862592" style="fill: #1f77b4; stroke: #1f77b4"/>
     <use xlink:href="#m2d68aa26e9" x="373.841421" y="214.915943" style="fill: #1f77b4; stroke: #1f77b4"/>
     <use xlink:href="#m2d68aa26e9" x="375.47285" y="215.99378" style="fill: #1f77b4; stroke: #1f77b4"/>
     <use xlink:href="#m2d68aa26e9" x="377.10428" y="215.19592" style="fill: #1f77b4; stroke: #1f77b4"/>
     <use xlink:href="#m2d68aa26e9" x="378.73571" y="212.494818" style="fill: #1f77b4; stroke: #1f77b4"/>
    </g>
   </g>
   <g id="line2d_24">
    <path d="M 54.081165 201.132117 
L 64.48051 211.465867 
L 73.904916 220.522366 
L 82.679363 228.656489 
L 91.128831 236.190591 
L 99.253319 243.136008 
L 107.052827 249.509555 
L 114.527356 255.332638 
L 121.676906 260.630419 
L 128.826456 265.653278 
L 135.651026 270.185298 
L 142.475596 274.457369 
L 149.300166 278.468908 
L 156.124736 282.223083 
L 162.949306 285.728028 
L 170.098855 289.148462 
L 177.573384 292.475917 
L 185.372893 295.70518 
L 191.547504 298.043762 
L 195.122279 299.19853 
L 197.722115 299.807799 
L 199.347012 299.991166 
L 200.646931 299.950965 
L 201.621869 299.757602 
L 202.596808 299.365264 
L 203.571746 298.695975 
L 204.546685 297.637271 
L 205.196644 296.637207 
L 205.846603 295.327388 
L 206.496562 293.623619 
L 207.146521 291.418388 
L 207.79648 288.575972 
L 208.446439 284.928672 
L 209.096398 280.277154 
L 209.746357 274.400692 
L 210.721296 262.842839 
L 211.696234 247.776398 
L 213.971091 208.602846 
L 214.62105 201.55481 
L 214.94603 199.391085 
L 215.271009 198.171716 
L 215.595989 197.860543 
L 215.920968 198.379501 
L 216.245948 199.621195 
L 216.895907 203.776143 
L 217.870845 212.403848 
L 220.145702 233.214121 
L 221.44562 242.67108 
L 222.745538 250.195089 
L 224.045456 256.136145 
L 225.345374 260.849546 
L 226.645293 264.624392 
L 227.945211 267.680031 
L 229.245129 270.179245 
L 230.545047 272.242502 
L 231.844965 273.959488 
L 233.469863 275.719894 
L 235.09476 277.140863 
L 236.719658 278.29284 
L 238.669535 279.39221 
L 240.619412 280.243864 
L 242.894269 280.986921 
L 245.494105 281.57087 
L 248.093941 281.926239 
L 251.018757 282.102853 
L 254.268552 282.069348 
L 257.843327 281.798458 
L 261.743081 281.265191 
L 265.967815 280.445387 
L 270.192549 279.403379 
L 274.742262 278.057871 
L 279.616955 276.381599 
L 284.816628 274.346591 
L 290.0163 272.073763 
L 295.540952 269.413873 
L 301.390583 266.337338 
L 307.240215 263.006826 
L 313.414826 259.229288 
L 319.589437 255.195562 
L 326.089027 250.686272 
L 332.913597 245.675688 
L 340.063147 240.140075 
L 347.537676 234.058332 
L 355.337184 227.412695 
L 363.461673 220.189505 
L 371.91114 212.380033 
L 378.73571 205.871433 
L 378.73571 205.871433 
" clip-path="url(#pf7a4ed70df)" style="fill: none; stroke: #d62728; stroke-width: 1.5; stroke-linecap: square"/>
   </g>
   <g id="patch_9">
    <path d="M 37.848438 307.872 
L 37.848438 186.912 
" style="fill: none; stroke: #000000; stroke-width: 0.8; stroke-linejoin: miter; stroke-linecap: square"/>
   </g>
   <g id="patch_10">
    <path d="M 394.968438 307.872 
L 394.968438 186.912 
" style="fill: none; stroke: #000000; stroke-width: 0.8; stroke-linejoin: miter; stroke-linecap: square"/>
   </g>
   <g id="patch_11">
    <path d="M 37.848438 307.872 
L 394.968437 307.872 
" style="fill: none; stroke: #000000; stroke-width: 0.8; stroke-linejoin: miter; stroke-linecap: square"/>
   </g>
   <g id="patch_12">
    <path d="M 37.848438 186.912 
L 394.968437 186.912 
" style="fill: none; stroke: #000000; stroke-width: 0.8; stroke-linejoin: miter; stroke-linecap: square"/>
   </g>
  </g>
  <g id="text_19">
   <!-- S21 One-tone -->
   <g transform="translate(169.3975 16.318125) scale(0.12 -0.12)">
    <defs>
     <path id="DejaVuSans-4f" d="M 2522 4238 
Q 1834 4238 1429 3725 
Q 1025 3213 1025 2328 
Q 1025 1447 1429 934 
Q 1834 422 2522 422 
Q 3209 422 3611 934 
Q 4013 1447 4013 2328 
Q 4013 3213 3611 3725 
Q 3209 4238 2522 4238 
z
M 2522 4750 
Q 3503 4750 4090 4092 
Q 4678 3434 4678 2328 
Q 4678 1225 4090 567 
Q 3503 -91 2522 -91 
Q 1538 -91 948 565 
Q 359 1222 359 2328 
Q 359 3434 948 4092 
Q 1538 4750 2522 4750 
z
" transform="scale(0.015625)"/>
     <path id="DejaVuSans-74" d="M 1172 4494 
L 1172 3500 
L 2356 3500 
L 2356 3053 
L 1172 3053 
L 1172 1153 
Q 1172 725 1289 603 
Q 1406 481 1766 481 
L 2356 481 
L 2356 0 
L 1766 0 
Q 1100 0 847 248 
Q 594 497 594 1153 
L 594 3053 
L 172 3053 
L 172 3500 
L 594 3500 
L 594 4494 
L 1172 4494 
z
" transform="scale(0.015625)"/>
     <path id="DejaVuSans-6f" d="M 1959 3097 
Q 1497 3097 1228 2736 
Q 959 2375 959 1747 
Q 959 1119 1226 758 
Q 1494 397 1959 397 
Q 2419 397 2687 759 
Q 2956 1122 2956 1747 
Q 2956 2369 2687 2733 
Q 2419 3097 1959 3097 
z
M 1959 3584 
Q 2709 3584 3137 3096 
Q 3566 2609 3566 1747 
Q 3566 888 3137 398 
Q 2709 -91 1959 -91 
Q 1206 -91 779 398 
Q 353 888 353 1747 
Q 353 2609 779 3096 
Q 1206 3584 1959 3584 
z
" transform="scale(0.015625)"/>
    </defs>
    <use xlink:href="#DejaVuSans-53"/>
    <use xlink:href="#DejaVuSans-32" x="63.476562"/>
    <use xlink:href="#DejaVuSans-31" x="127.099609"/>
    <use xlink:href="#DejaVuSans-20" x="190.722656"/>
    <use xlink:href="#DejaVuSans-4f" x="222.509766"/>
    <use xlink:href="#DejaVuSans-6e" x="301.220703"/>
    <use xlink:href="#DejaVuSans-65" x="364.599609"/>
    <use xlink:href="#DejaVuSans-2d" x="426.123047"/>
    <use xlink:href="#DejaVuSans-74" x="462.207031"/>
    <use xlink:href="#DejaVuSans-6f" x="501.416016"/>
    <use xlink:href="#DejaVuSans-6e" x="562.597656"/>
    <use xlink:href="#DejaVuSans-65" x="625.976562"/>
   </g>
   <!-- tuid: 20240223-164023-294-3c4ecf -->
   <g transform="translate(103.660938 29.7555) scale(0.12 -0.12)">
    <defs>
     <path id="DejaVuSans-69" d="M 603 3500 
L 1178 3500 
L 1178 0 
L 603 0 
L 603 3500 
z
M 603 4863 
L 1178 4863 
L 1178 4134 
L 603 4134 
L 603 4863 
z
" transform="scale(0.015625)"/>
     <path id="DejaVuSans-64" d="M 2906 2969 
L 2906 4863 
L 3481 4863 
L 3481 0 
L 2906 0 
L 2906 525 
Q 2725 213 2448 61 
Q 2172 -91 1784 -91 
Q 1150 -91 751 415 
Q 353 922 353 1747 
Q 353 2572 751 3078 
Q 1150 3584 1784 3584 
Q 2172 3584 2448 3432 
Q 2725 3281 2906 2969 
z
M 947 1747 
Q 947 1113 1208 752 
Q 1469 391 1925 391 
Q 2381 391 2643 752 
Q 2906 1113 2906 1747 
Q 2906 2381 2643 2742 
Q 2381 3103 1925 3103 
Q 1469 3103 1208 2742 
Q 947 2381 947 1747 
z
" transform="scale(0.015625)"/>
     <path id="DejaVuSans-36" d="M 2113 2584 
Q 1688 2584 1439 2293 
Q 1191 2003 1191 1497 
Q 1191 994 1439 701 
Q 1688 409 2113 409 
Q 2538 409 2786 701 
Q 3034 994 3034 1497 
Q 3034 2003 2786 2293 
Q 2538 2584 2113 2584 
z
M 3366 4563 
L 3366 3988 
Q 3128 4100 2886 4159 
Q 2644 4219 2406 4219 
Q 1781 4219 1451 3797 
Q 1122 3375 1075 2522 
Q 1259 2794 1537 2939 
Q 1816 3084 2150 3084 
Q 2853 3084 3261 2657 
Q 3669 2231 3669 1497 
Q 3669 778 3244 343 
Q 2819 -91 2113 -91 
Q 1303 -91 875 529 
Q 447 1150 447 2328 
Q 447 3434 972 4092 
Q 1497 4750 2381 4750 
Q 2619 4750 2861 4703 
Q 3103 4656 3366 4563 
z
" transform="scale(0.015625)"/>
     <path id="DejaVuSans-66" d="M 2375 4863 
L 2375 4384 
L 1825 4384 
Q 1516 4384 1395 4259 
Q 1275 4134 1275 3809 
L 1275 3500 
L 2222 3500 
L 2222 3053 
L 1275 3053 
L 1275 0 
L 697 0 
L 697 3053 
L 147 3053 
L 147 3500 
L 697 3500 
L 697 3744 
Q 697 4328 969 4595 
Q 1241 4863 1831 4863 
L 2375 4863 
z
" transform="scale(0.015625)"/>
    </defs>
    <use xlink:href="#DejaVuSans-74"/>
    <use xlink:href="#DejaVuSans-75" x="39.208984"/>
    <use xlink:href="#DejaVuSans-69" x="102.587891"/>
    <use xlink:href="#DejaVuSans-64" x="130.371094"/>
    <use xlink:href="#DejaVuSans-3a" x="193.847656"/>
    <use xlink:href="#DejaVuSans-20" x="227.539062"/>
    <use xlink:href="#DejaVuSans-32" x="259.326172"/>
    <use xlink:href="#DejaVuSans-30" x="322.949219"/>
    <use xlink:href="#DejaVuSans-32" x="386.572266"/>
    <use xlink:href="#DejaVuSans-34" x="450.195312"/>
    <use xlink:href="#DejaVuSans-30" x="513.818359"/>
    <use xlink:href="#DejaVuSans-32" x="577.441406"/>
    <use xlink:href="#DejaVuSans-32" x="641.064453"/>
    <use xlink:href="#DejaVuSans-33" x="704.6875"/>
    <use xlink:href="#DejaVuSans-2d" x="768.310547"/>
    <use xlink:href="#DejaVuSans-31" x="804.394531"/>
    <use xlink:href="#DejaVuSans-36" x="868.017578"/>
    <use xlink:href="#DejaVuSans-34" x="931.640625"/>
    <use xlink:href="#DejaVuSans-30" x="995.263672"/>
    <use xlink:href="#DejaVuSans-32" x="1058.886719"/>
    <use xlink:href="#DejaVuSans-33" x="1122.509766"/>
    <use xlink:href="#DejaVuSans-2d" x="1186.132812"/>
    <use xlink:href="#DejaVuSans-32" x="1222.216797"/>
    <use xlink:href="#DejaVuSans-39" x="1285.839844"/>
    <use xlink:href="#DejaVuSans-34" x="1349.462891"/>
    <use xlink:href="#DejaVuSans-2d" x="1413.085938"/>
    <use xlink:href="#DejaVuSans-33" x="1449.169922"/>
    <use xlink:href="#DejaVuSans-63" x="1512.792969"/>
    <use xlink:href="#DejaVuSans-34" x="1567.773438"/>
    <use xlink:href="#DejaVuSans-65" x="1631.396484"/>
    <use xlink:href="#DejaVuSans-63" x="1692.919922"/>
    <use xlink:href="#DejaVuSans-66" x="1747.900391"/>
   </g>
  </g>
 </g>
 <defs>
  <clipPath id="p66581c7d92">
   <rect x="37.848438" y="41.76" width="357.12" height="120.96"/>
  </clipPath>
  <clipPath id="pf7a4ed70df">
   <rect x="37.848438" y="186.912" width="357.12" height="120.96"/>
  </clipPath>
 </defs>
</svg>
