<?xml version="1.0" encoding="utf-8" standalone="no"?>
<!DOCTYPE svg PUBLIC "-//W3C//DTD SVG 1.1//EN"
  "http://www.w3.org/Graphics/SVG/1.1/DTD/svg11.dtd">
<svg xmlns:xlink="http://www.w3.org/1999/xlink" width="650.633813pt" height="345.42825pt" viewBox="0 0 650.633813 345.42825" xmlns="http://www.w3.org/2000/svg" version="1.1">
 <metadata>
  <rdf:RDF xmlns:dc="http://purl.org/dc/elements/1.1/" xmlns:cc="http://creativecommons.org/ns#" xmlns:rdf="http://www.w3.org/1999/02/22-rdf-syntax-ns#">
   <cc:Work>
    <dc:type rdf:resource="http://purl.org/dc/dcmitype/StillImage"/>
    <dc:date>2024-03-04T14:02:48.376134</dc:date>
    <dc:format>image/svg+xml</dc:format>
    <dc:creator>
     <cc:Agent>
      <dc:title>Matplotlib v3.8.2, https://matplotlib.org/</dc:title>
     </cc:Agent>
    </dc:creator>
   </cc:Work>
  </rdf:RDF>
 </metadata>
 <defs>
  <style type="text/css">*{stroke-linejoin: round; stroke-linecap: butt}</style>
 </defs>
 <g id="figure_1">
  <g id="patch_1">
   <path d="M 0 345.42825 
L 650.633813 345.42825 
L 650.633813 -0 
L 0 -0 
L 0 345.42825 
z
" style="fill: none; opacity: 0"/>
  </g>
  <g id="axes_1">
   <g id="patch_2">
    <path d="M 50.573438 307.872 
L 407.693438 307.872 
L 407.693438 41.76 
L 50.573438 41.76 
z
" style="fill: #ffffff"/>
   </g>
   <g id="matplotlib.axis_1">
    <g id="xtick_1">
     <g id="line2d_1">
      <defs>
       <path id="mff2dbfe3f5" d="M 0 0 
L 0 3.5 
" style="stroke: #000000; stroke-width: 0.8"/>
      </defs>
      <g>
       <use xlink:href="#mff2dbfe3f5" x="57.802198" y="307.872" style="stroke: #000000; stroke-width: 0.8"/>
      </g>
     </g>
     <g id="text_1">
      <!-- 524 -->
      <g transform="translate(48.258448 322.470438) scale(0.1 -0.1)">
       <defs>
        <path id="DejaVuSans-35" d="M 691 4666 
L 3169 4666 
L 3169 4134 
L 1269 4134 
L 1269 2991 
Q 1406 3038 1543 3061 
Q 1681 3084 1819 3084 
Q 2600 3084 3056 2656 
Q 3513 2228 3513 1497 
Q 3513 744 3044 326 
Q 2575 -91 1722 -91 
Q 1428 -91 1123 -41 
Q 819 9 494 109 
L 494 744 
Q 775 591 1075 516 
Q 1375 441 1709 441 
Q 2250 441 2565 725 
Q 2881 1009 2881 1497 
Q 2881 1984 2565 2268 
Q 2250 2553 1709 2553 
Q 1456 2553 1204 2497 
Q 953 2441 691 2322 
L 691 4666 
z
" transform="scale(0.015625)"/>
        <path id="DejaVuSans-32" d="M 1228 531 
L 3431 531 
L 3431 0 
L 469 0 
L 469 531 
Q 828 903 1448 1529 
Q 2069 2156 2228 2338 
Q 2531 2678 2651 2914 
Q 2772 3150 2772 3378 
Q 2772 3750 2511 3984 
Q 2250 4219 1831 4219 
Q 1534 4219 1204 4116 
Q 875 4013 500 3803 
L 500 4441 
Q 881 4594 1212 4672 
Q 1544 4750 1819 4750 
Q 2544 4750 2975 4387 
Q 3406 4025 3406 3419 
Q 3406 3131 3298 2873 
Q 3191 2616 2906 2266 
Q 2828 2175 2409 1742 
Q 1991 1309 1228 531 
z
" transform="scale(0.015625)"/>
        <path id="DejaVuSans-34" d="M 2419 4116 
L 825 1625 
L 2419 1625 
L 2419 4116 
z
M 2253 4666 
L 3047 4666 
L 3047 1625 
L 3713 1625 
L 3713 1100 
L 3047 1100 
L 3047 0 
L 2419 0 
L 2419 1100 
L 313 1100 
L 313 1709 
L 2253 4666 
z
" transform="scale(0.015625)"/>
       </defs>
       <use xlink:href="#DejaVuSans-35"/>
       <use xlink:href="#DejaVuSans-32" x="63.623047"/>
       <use xlink:href="#DejaVuSans-34" x="127.246094"/>
      </g>
     </g>
    </g>
    <g id="xtick_2">
     <g id="line2d_2">
      <g>
       <use xlink:href="#mff2dbfe3f5" x="111.911289" y="307.872" style="stroke: #000000; stroke-width: 0.8"/>
      </g>
     </g>
     <g id="text_2">
      <!-- 525 -->
      <g transform="translate(102.367539 322.470438) scale(0.1 -0.1)">
       <use xlink:href="#DejaVuSans-35"/>
       <use xlink:href="#DejaVuSans-32" x="63.623047"/>
       <use xlink:href="#DejaVuSans-35" x="127.246094"/>
      </g>
     </g>
    </g>
    <g id="xtick_3">
     <g id="line2d_3">
      <g>
       <use xlink:href="#mff2dbfe3f5" x="166.02038" y="307.872" style="stroke: #000000; stroke-width: 0.8"/>
      </g>
     </g>
     <g id="text_3">
      <!-- 526 -->
      <g transform="translate(156.47663 322.470438) scale(0.1 -0.1)">
       <defs>
        <path id="DejaVuSans-36" d="M 2113 2584 
Q 1688 2584 1439 2293 
Q 1191 2003 1191 1497 
Q 1191 994 1439 701 
Q 1688 409 2113 409 
Q 2538 409 2786 701 
Q 3034 994 3034 1497 
Q 3034 2003 2786 2293 
Q 2538 2584 2113 2584 
z
M 3366 4563 
L 3366 3988 
Q 3128 4100 2886 4159 
Q 2644 4219 2406 4219 
Q 1781 4219 1451 3797 
Q 1122 3375 1075 2522 
Q 1259 2794 1537 2939 
Q 1816 3084 2150 3084 
Q 2853 3084 3261 2657 
Q 3669 2231 3669 1497 
Q 3669 778 3244 343 
Q 2819 -91 2113 -91 
Q 1303 -91 875 529 
Q 447 1150 447 2328 
Q 447 3434 972 4092 
Q 1497 4750 2381 4750 
Q 2619 4750 2861 4703 
Q 3103 4656 3366 4563 
z
" transform="scale(0.015625)"/>
       </defs>
       <use xlink:href="#DejaVuSans-35"/>
       <use xlink:href="#DejaVuSans-32" x="63.623047"/>
       <use xlink:href="#DejaVuSans-36" x="127.246094"/>
      </g>
     </g>
    </g>
    <g id="xtick_4">
     <g id="line2d_4">
      <g>
       <use xlink:href="#mff2dbfe3f5" x="220.129471" y="307.872" style="stroke: #000000; stroke-width: 0.8"/>
      </g>
     </g>
     <g id="text_4">
      <!-- 527 -->
      <g transform="translate(210.585721 322.470438) scale(0.1 -0.1)">
       <defs>
        <path id="DejaVuSans-37" d="M 525 4666 
L 3525 4666 
L 3525 4397 
L 1831 0 
L 1172 0 
L 2766 4134 
L 525 4134 
L 525 4666 
z
" transform="scale(0.015625)"/>
       </defs>
       <use xlink:href="#DejaVuSans-35"/>
       <use xlink:href="#DejaVuSans-32" x="63.623047"/>
       <use xlink:href="#DejaVuSans-37" x="127.246094"/>
      </g>
     </g>
    </g>
    <g id="xtick_5">
     <g id="line2d_5">
      <g>
       <use xlink:href="#mff2dbfe3f5" x="274.238562" y="307.872" style="stroke: #000000; stroke-width: 0.8"/>
      </g>
     </g>
     <g id="text_5">
      <!-- 528 -->
      <g transform="translate(264.694812 322.470438) scale(0.1 -0.1)">
       <defs>
        <path id="DejaVuSans-38" d="M 2034 2216 
Q 1584 2216 1326 1975 
Q 1069 1734 1069 1313 
Q 1069 891 1326 650 
Q 1584 409 2034 409 
Q 2484 409 2743 651 
Q 3003 894 3003 1313 
Q 3003 1734 2745 1975 
Q 2488 2216 2034 2216 
z
M 1403 2484 
Q 997 2584 770 2862 
Q 544 3141 544 3541 
Q 544 4100 942 4425 
Q 1341 4750 2034 4750 
Q 2731 4750 3128 4425 
Q 3525 4100 3525 3541 
Q 3525 3141 3298 2862 
Q 3072 2584 2669 2484 
Q 3125 2378 3379 2068 
Q 3634 1759 3634 1313 
Q 3634 634 3220 271 
Q 2806 -91 2034 -91 
Q 1263 -91 848 271 
Q 434 634 434 1313 
Q 434 1759 690 2068 
Q 947 2378 1403 2484 
z
M 1172 3481 
Q 1172 3119 1398 2916 
Q 1625 2713 2034 2713 
Q 2441 2713 2670 2916 
Q 2900 3119 2900 3481 
Q 2900 3844 2670 4047 
Q 2441 4250 2034 4250 
Q 1625 4250 1398 4047 
Q 1172 3844 1172 3481 
z
" transform="scale(0.015625)"/>
       </defs>
       <use xlink:href="#DejaVuSans-35"/>
       <use xlink:href="#DejaVuSans-32" x="63.623047"/>
       <use xlink:href="#DejaVuSans-38" x="127.246094"/>
      </g>
     </g>
    </g>
    <g id="xtick_6">
     <g id="line2d_6">
      <g>
       <use xlink:href="#mff2dbfe3f5" x="328.347653" y="307.872" style="stroke: #000000; stroke-width: 0.8"/>
      </g>
     </g>
     <g id="text_6">
      <!-- 529 -->
      <g transform="translate(318.803903 322.470438) scale(0.1 -0.1)">
       <defs>
        <path id="DejaVuSans-39" d="M 703 97 
L 703 672 
Q 941 559 1184 500 
Q 1428 441 1663 441 
Q 2288 441 2617 861 
Q 2947 1281 2994 2138 
Q 2813 1869 2534 1725 
Q 2256 1581 1919 1581 
Q 1219 1581 811 2004 
Q 403 2428 403 3163 
Q 403 3881 828 4315 
Q 1253 4750 1959 4750 
Q 2769 4750 3195 4129 
Q 3622 3509 3622 2328 
Q 3622 1225 3098 567 
Q 2575 -91 1691 -91 
Q 1453 -91 1209 -44 
Q 966 3 703 97 
z
M 1959 2075 
Q 2384 2075 2632 2365 
Q 2881 2656 2881 3163 
Q 2881 3666 2632 3958 
Q 2384 4250 1959 4250 
Q 1534 4250 1286 3958 
Q 1038 3666 1038 3163 
Q 1038 2656 1286 2365 
Q 1534 2075 1959 2075 
z
" transform="scale(0.015625)"/>
       </defs>
       <use xlink:href="#DejaVuSans-35"/>
       <use xlink:href="#DejaVuSans-32" x="63.623047"/>
       <use xlink:href="#DejaVuSans-39" x="127.246094"/>
      </g>
     </g>
    </g>
    <g id="xtick_7">
     <g id="line2d_7">
      <g>
       <use xlink:href="#mff2dbfe3f5" x="382.456744" y="307.872" style="stroke: #000000; stroke-width: 0.8"/>
      </g>
     </g>
     <g id="text_7">
      <!-- 530 -->
      <g transform="translate(372.912994 322.470438) scale(0.1 -0.1)">
       <defs>
        <path id="DejaVuSans-33" d="M 2597 2516 
Q 3050 2419 3304 2112 
Q 3559 1806 3559 1356 
Q 3559 666 3084 287 
Q 2609 -91 1734 -91 
Q 1441 -91 1130 -33 
Q 819 25 488 141 
L 488 750 
Q 750 597 1062 519 
Q 1375 441 1716 441 
Q 2309 441 2620 675 
Q 2931 909 2931 1356 
Q 2931 1769 2642 2001 
Q 2353 2234 1838 2234 
L 1294 2234 
L 1294 2753 
L 1863 2753 
Q 2328 2753 2575 2939 
Q 2822 3125 2822 3475 
Q 2822 3834 2567 4026 
Q 2313 4219 1838 4219 
Q 1578 4219 1281 4162 
Q 984 4106 628 3988 
L 628 4550 
Q 988 4650 1302 4700 
Q 1616 4750 1894 4750 
Q 2613 4750 3031 4423 
Q 3450 4097 3450 3541 
Q 3450 3153 3228 2886 
Q 3006 2619 2597 2516 
z
" transform="scale(0.015625)"/>
        <path id="DejaVuSans-30" d="M 2034 4250 
Q 1547 4250 1301 3770 
Q 1056 3291 1056 2328 
Q 1056 1369 1301 889 
Q 1547 409 2034 409 
Q 2525 409 2770 889 
Q 3016 1369 3016 2328 
Q 3016 3291 2770 3770 
Q 2525 4250 2034 4250 
z
M 2034 4750 
Q 2819 4750 3233 4129 
Q 3647 3509 3647 2328 
Q 3647 1150 3233 529 
Q 2819 -91 2034 -91 
Q 1250 -91 836 529 
Q 422 1150 422 2328 
Q 422 3509 836 4129 
Q 1250 4750 2034 4750 
z
" transform="scale(0.015625)"/>
       </defs>
       <use xlink:href="#DejaVuSans-35"/>
       <use xlink:href="#DejaVuSans-33" x="63.623047"/>
       <use xlink:href="#DejaVuSans-30" x="127.246094"/>
      </g>
     </g>
    </g>
    <g id="text_8">
     <!-- Frequency [MHz] -->
     <g transform="translate(187.114688 336.148562) scale(0.1 -0.1)">
      <defs>
       <path id="DejaVuSans-46" d="M 628 4666 
L 3309 4666 
L 3309 4134 
L 1259 4134 
L 1259 2759 
L 3109 2759 
L 3109 2228 
L 1259 2228 
L 1259 0 
L 628 0 
L 628 4666 
z
" transform="scale(0.015625)"/>
       <path id="DejaVuSans-72" d="M 2631 2963 
Q 2534 3019 2420 3045 
Q 2306 3072 2169 3072 
Q 1681 3072 1420 2755 
Q 1159 2438 1159 1844 
L 1159 0 
L 581 0 
L 581 3500 
L 1159 3500 
L 1159 2956 
Q 1341 3275 1631 3429 
Q 1922 3584 2338 3584 
Q 2397 3584 2469 3576 
Q 2541 3569 2628 3553 
L 2631 2963 
z
" transform="scale(0.015625)"/>
       <path id="DejaVuSans-65" d="M 3597 1894 
L 3597 1613 
L 953 1613 
Q 991 1019 1311 708 
Q 1631 397 2203 397 
Q 2534 397 2845 478 
Q 3156 559 3463 722 
L 3463 178 
Q 3153 47 2828 -22 
Q 2503 -91 2169 -91 
Q 1331 -91 842 396 
Q 353 884 353 1716 
Q 353 2575 817 3079 
Q 1281 3584 2069 3584 
Q 2775 3584 3186 3129 
Q 3597 2675 3597 1894 
z
M 3022 2063 
Q 3016 2534 2758 2815 
Q 2500 3097 2075 3097 
Q 1594 3097 1305 2825 
Q 1016 2553 972 2059 
L 3022 2063 
z
" transform="scale(0.015625)"/>
       <path id="DejaVuSans-71" d="M 947 1747 
Q 947 1113 1208 752 
Q 1469 391 1925 391 
Q 2381 391 2643 752 
Q 2906 1113 2906 1747 
Q 2906 2381 2643 2742 
Q 2381 3103 1925 3103 
Q 1469 3103 1208 2742 
Q 947 2381 947 1747 
z
M 2906 525 
Q 2725 213 2448 61 
Q 2172 -91 1784 -91 
Q 1150 -91 751 415 
Q 353 922 353 1747 
Q 353 2572 751 3078 
Q 1150 3584 1784 3584 
Q 2172 3584 2448 3432 
Q 2725 3281 2906 2969 
L 2906 3500 
L 3481 3500 
L 3481 -1331 
L 2906 -1331 
L 2906 525 
z
" transform="scale(0.015625)"/>
       <path id="DejaVuSans-75" d="M 544 1381 
L 544 3500 
L 1119 3500 
L 1119 1403 
Q 1119 906 1312 657 
Q 1506 409 1894 409 
Q 2359 409 2629 706 
Q 2900 1003 2900 1516 
L 2900 3500 
L 3475 3500 
L 3475 0 
L 2900 0 
L 2900 538 
Q 2691 219 2414 64 
Q 2138 -91 1772 -91 
Q 1169 -91 856 284 
Q 544 659 544 1381 
z
M 1991 3584 
L 1991 3584 
z
" transform="scale(0.015625)"/>
       <path id="DejaVuSans-6e" d="M 3513 2113 
L 3513 0 
L 2938 0 
L 2938 2094 
Q 2938 2591 2744 2837 
Q 2550 3084 2163 3084 
Q 1697 3084 1428 2787 
Q 1159 2491 1159 1978 
L 1159 0 
L 581 0 
L 581 3500 
L 1159 3500 
L 1159 2956 
Q 1366 3272 1645 3428 
Q 1925 3584 2291 3584 
Q 2894 3584 3203 3211 
Q 3513 2838 3513 2113 
z
" transform="scale(0.015625)"/>
       <path id="DejaVuSans-63" d="M 3122 3366 
L 3122 2828 
Q 2878 2963 2633 3030 
Q 2388 3097 2138 3097 
Q 1578 3097 1268 2742 
Q 959 2388 959 1747 
Q 959 1106 1268 751 
Q 1578 397 2138 397 
Q 2388 397 2633 464 
Q 2878 531 3122 666 
L 3122 134 
Q 2881 22 2623 -34 
Q 2366 -91 2075 -91 
Q 1284 -91 818 406 
Q 353 903 353 1747 
Q 353 2603 823 3093 
Q 1294 3584 2113 3584 
Q 2378 3584 2631 3529 
Q 2884 3475 3122 3366 
z
" transform="scale(0.015625)"/>
       <path id="DejaVuSans-79" d="M 2059 -325 
Q 1816 -950 1584 -1140 
Q 1353 -1331 966 -1331 
L 506 -1331 
L 506 -850 
L 844 -850 
Q 1081 -850 1212 -737 
Q 1344 -625 1503 -206 
L 1606 56 
L 191 3500 
L 800 3500 
L 1894 763 
L 2988 3500 
L 3597 3500 
L 2059 -325 
z
" transform="scale(0.015625)"/>
       <path id="DejaVuSans-20" transform="scale(0.015625)"/>
       <path id="DejaVuSans-5b" d="M 550 4863 
L 1875 4863 
L 1875 4416 
L 1125 4416 
L 1125 -397 
L 1875 -397 
L 1875 -844 
L 550 -844 
L 550 4863 
z
" transform="scale(0.015625)"/>
       <path id="DejaVuSans-4d" d="M 628 4666 
L 1569 4666 
L 2759 1491 
L 3956 4666 
L 4897 4666 
L 4897 0 
L 4281 0 
L 4281 4097 
L 3078 897 
L 2444 897 
L 1241 4097 
L 1241 0 
L 628 0 
L 628 4666 
z
" transform="scale(0.015625)"/>
       <path id="DejaVuSans-48" d="M 628 4666 
L 1259 4666 
L 1259 2753 
L 3553 2753 
L 3553 4666 
L 4184 4666 
L 4184 0 
L 3553 0 
L 3553 2222 
L 1259 2222 
L 1259 0 
L 628 0 
L 628 4666 
z
" transform="scale(0.015625)"/>
       <path id="DejaVuSans-7a" d="M 353 3500 
L 3084 3500 
L 3084 2975 
L 922 459 
L 3084 459 
L 3084 0 
L 275 0 
L 275 525 
L 2438 3041 
L 353 3041 
L 353 3500 
z
" transform="scale(0.015625)"/>
       <path id="DejaVuSans-5d" d="M 1947 4863 
L 1947 -844 
L 622 -844 
L 622 -397 
L 1369 -397 
L 1369 4416 
L 622 4416 
L 622 4863 
L 1947 4863 
z
" transform="scale(0.015625)"/>
      </defs>
      <use xlink:href="#DejaVuSans-46"/>
      <use xlink:href="#DejaVuSans-72" x="50.269531"/>
      <use xlink:href="#DejaVuSans-65" x="89.132812"/>
      <use xlink:href="#DejaVuSans-71" x="150.65625"/>
      <use xlink:href="#DejaVuSans-75" x="214.132812"/>
      <use xlink:href="#DejaVuSans-65" x="277.511719"/>
      <use xlink:href="#DejaVuSans-6e" x="339.035156"/>
      <use xlink:href="#DejaVuSans-63" x="402.414062"/>
      <use xlink:href="#DejaVuSans-79" x="457.394531"/>
      <use xlink:href="#DejaVuSans-20" x="516.574219"/>
      <use xlink:href="#DejaVuSans-5b" x="548.361328"/>
      <use xlink:href="#DejaVuSans-4d" x="587.375"/>
      <use xlink:href="#DejaVuSans-48" x="673.654297"/>
      <use xlink:href="#DejaVuSans-7a" x="748.849609"/>
      <use xlink:href="#DejaVuSans-5d" x="801.339844"/>
     </g>
    </g>
    <g id="text_9">
     <!-- +5 GHz -->
     <g transform="translate(369.255938 335.148562) scale(0.1 -0.1)">
      <defs>
       <path id="DejaVuSans-2b" d="M 2944 4013 
L 2944 2272 
L 4684 2272 
L 4684 1741 
L 2944 1741 
L 2944 0 
L 2419 0 
L 2419 1741 
L 678 1741 
L 678 2272 
L 2419 2272 
L 2419 4013 
L 2944 4013 
z
" transform="scale(0.015625)"/>
       <path id="DejaVuSans-47" d="M 3809 666 
L 3809 1919 
L 2778 1919 
L 2778 2438 
L 4434 2438 
L 4434 434 
Q 4069 175 3628 42 
Q 3188 -91 2688 -91 
Q 1594 -91 976 548 
Q 359 1188 359 2328 
Q 359 3472 976 4111 
Q 1594 4750 2688 4750 
Q 3144 4750 3555 4637 
Q 3966 4525 4313 4306 
L 4313 3634 
Q 3963 3931 3569 4081 
Q 3175 4231 2741 4231 
Q 1884 4231 1454 3753 
Q 1025 3275 1025 2328 
Q 1025 1384 1454 906 
Q 1884 428 2741 428 
Q 3075 428 3337 486 
Q 3600 544 3809 666 
z
" transform="scale(0.015625)"/>
      </defs>
      <use xlink:href="#DejaVuSans-2b"/>
      <use xlink:href="#DejaVuSans-35" x="83.789062"/>
      <use xlink:href="#DejaVuSans-20" x="147.412109"/>
      <use xlink:href="#DejaVuSans-47" x="179.199219"/>
      <use xlink:href="#DejaVuSans-48" x="256.689453"/>
      <use xlink:href="#DejaVuSans-7a" x="331.884766"/>
     </g>
    </g>
   </g>
   <g id="matplotlib.axis_2">
    <g id="ytick_1">
     <g id="line2d_8">
      <defs>
       <path id="mb5b56575b2" d="M 0 0 
L -3.5 0 
" style="stroke: #000000; stroke-width: 0.8"/>
      </defs>
      <g>
       <use xlink:href="#mb5b56575b2" x="50.573438" y="275.627494" style="stroke: #000000; stroke-width: 0.8"/>
      </g>
     </g>
     <g id="text_10">
      <!-- -150 -->
      <g transform="translate(20.878125 279.426713) scale(0.1 -0.1)">
       <defs>
        <path id="DejaVuSans-2d" d="M 313 2009 
L 1997 2009 
L 1997 1497 
L 313 1497 
L 313 2009 
z
" transform="scale(0.015625)"/>
        <path id="DejaVuSans-31" d="M 794 531 
L 1825 531 
L 1825 4091 
L 703 3866 
L 703 4441 
L 1819 4666 
L 2450 4666 
L 2450 531 
L 3481 531 
L 3481 0 
L 794 0 
L 794 531 
z
" transform="scale(0.015625)"/>
       </defs>
       <use xlink:href="#DejaVuSans-2d"/>
       <use xlink:href="#DejaVuSans-31" x="36.083984"/>
       <use xlink:href="#DejaVuSans-35" x="99.707031"/>
       <use xlink:href="#DejaVuSans-30" x="163.330078"/>
      </g>
     </g>
    </g>
    <g id="ytick_2">
     <g id="line2d_9">
      <g>
       <use xlink:href="#mb5b56575b2" x="50.573438" y="242.016715" style="stroke: #000000; stroke-width: 0.8"/>
      </g>
     </g>
     <g id="text_11">
      <!-- -100 -->
      <g transform="translate(20.878125 245.815933) scale(0.1 -0.1)">
       <use xlink:href="#DejaVuSans-2d"/>
       <use xlink:href="#DejaVuSans-31" x="36.083984"/>
       <use xlink:href="#DejaVuSans-30" x="99.707031"/>
       <use xlink:href="#DejaVuSans-30" x="163.330078"/>
      </g>
     </g>
    </g>
    <g id="ytick_3">
     <g id="line2d_10">
      <g>
       <use xlink:href="#mb5b56575b2" x="50.573438" y="208.405935" style="stroke: #000000; stroke-width: 0.8"/>
      </g>
     </g>
     <g id="text_12">
      <!-- -50 -->
      <g transform="translate(27.240625 212.205154) scale(0.1 -0.1)">
       <use xlink:href="#DejaVuSans-2d"/>
       <use xlink:href="#DejaVuSans-35" x="36.083984"/>
       <use xlink:href="#DejaVuSans-30" x="99.707031"/>
      </g>
     </g>
    </g>
    <g id="ytick_4">
     <g id="line2d_11">
      <g>
       <use xlink:href="#mb5b56575b2" x="50.573438" y="174.795156" style="stroke: #000000; stroke-width: 0.8"/>
      </g>
     </g>
     <g id="text_13">
      <!-- 0 -->
      <g transform="translate(37.210938 178.594374) scale(0.1 -0.1)">
       <use xlink:href="#DejaVuSans-30"/>
      </g>
     </g>
    </g>
    <g id="ytick_5">
     <g id="line2d_12">
      <g>
       <use xlink:href="#mb5b56575b2" x="50.573438" y="141.184376" style="stroke: #000000; stroke-width: 0.8"/>
      </g>
     </g>
     <g id="text_14">
      <!-- 50 -->
      <g transform="translate(30.848438 144.983595) scale(0.1 -0.1)">
       <use xlink:href="#DejaVuSans-35"/>
       <use xlink:href="#DejaVuSans-30" x="63.623047"/>
      </g>
     </g>
    </g>
    <g id="ytick_6">
     <g id="line2d_13">
      <g>
       <use xlink:href="#mb5b56575b2" x="50.573438" y="107.573597" style="stroke: #000000; stroke-width: 0.8"/>
      </g>
     </g>
     <g id="text_15">
      <!-- 100 -->
      <g transform="translate(24.485938 111.372815) scale(0.1 -0.1)">
       <use xlink:href="#DejaVuSans-31"/>
       <use xlink:href="#DejaVuSans-30" x="63.623047"/>
       <use xlink:href="#DejaVuSans-30" x="127.246094"/>
      </g>
     </g>
    </g>
    <g id="ytick_7">
     <g id="line2d_14">
      <g>
       <use xlink:href="#mb5b56575b2" x="50.573438" y="73.962817" style="stroke: #000000; stroke-width: 0.8"/>
      </g>
     </g>
     <g id="text_16">
      <!-- 150 -->
      <g transform="translate(24.485938 77.762036) scale(0.1 -0.1)">
       <use xlink:href="#DejaVuSans-31"/>
       <use xlink:href="#DejaVuSans-35" x="63.623047"/>
       <use xlink:href="#DejaVuSans-30" x="127.246094"/>
      </g>
     </g>
    </g>
    <g id="text_17">
     <!-- Phase0 [deg] -->
     <g transform="translate(14.798438 207.841781) rotate(-90) scale(0.1 -0.1)">
      <defs>
       <path id="DejaVuSans-50" d="M 1259 4147 
L 1259 2394 
L 2053 2394 
Q 2494 2394 2734 2622 
Q 2975 2850 2975 3272 
Q 2975 3691 2734 3919 
Q 2494 4147 2053 4147 
L 1259 4147 
z
M 628 4666 
L 2053 4666 
Q 2838 4666 3239 4311 
Q 3641 3956 3641 3272 
Q 3641 2581 3239 2228 
Q 2838 1875 2053 1875 
L 1259 1875 
L 1259 0 
L 628 0 
L 628 4666 
z
" transform="scale(0.015625)"/>
       <path id="DejaVuSans-68" d="M 3513 2113 
L 3513 0 
L 2938 0 
L 2938 2094 
Q 2938 2591 2744 2837 
Q 2550 3084 2163 3084 
Q 1697 3084 1428 2787 
Q 1159 2491 1159 1978 
L 1159 0 
L 581 0 
L 581 4863 
L 1159 4863 
L 1159 2956 
Q 1366 3272 1645 3428 
Q 1925 3584 2291 3584 
Q 2894 3584 3203 3211 
Q 3513 2838 3513 2113 
z
" transform="scale(0.015625)"/>
       <path id="DejaVuSans-61" d="M 2194 1759 
Q 1497 1759 1228 1600 
Q 959 1441 959 1056 
Q 959 750 1161 570 
Q 1363 391 1709 391 
Q 2188 391 2477 730 
Q 2766 1069 2766 1631 
L 2766 1759 
L 2194 1759 
z
M 3341 1997 
L 3341 0 
L 2766 0 
L 2766 531 
Q 2569 213 2275 61 
Q 1981 -91 1556 -91 
Q 1019 -91 701 211 
Q 384 513 384 1019 
Q 384 1609 779 1909 
Q 1175 2209 1959 2209 
L 2766 2209 
L 2766 2266 
Q 2766 2663 2505 2880 
Q 2244 3097 1772 3097 
Q 1472 3097 1187 3025 
Q 903 2953 641 2809 
L 641 3341 
Q 956 3463 1253 3523 
Q 1550 3584 1831 3584 
Q 2591 3584 2966 3190 
Q 3341 2797 3341 1997 
z
" transform="scale(0.015625)"/>
       <path id="DejaVuSans-73" d="M 2834 3397 
L 2834 2853 
Q 2591 2978 2328 3040 
Q 2066 3103 1784 3103 
Q 1356 3103 1142 2972 
Q 928 2841 928 2578 
Q 928 2378 1081 2264 
Q 1234 2150 1697 2047 
L 1894 2003 
Q 2506 1872 2764 1633 
Q 3022 1394 3022 966 
Q 3022 478 2636 193 
Q 2250 -91 1575 -91 
Q 1294 -91 989 -36 
Q 684 19 347 128 
L 347 722 
Q 666 556 975 473 
Q 1284 391 1588 391 
Q 1994 391 2212 530 
Q 2431 669 2431 922 
Q 2431 1156 2273 1281 
Q 2116 1406 1581 1522 
L 1381 1569 
Q 847 1681 609 1914 
Q 372 2147 372 2553 
Q 372 3047 722 3315 
Q 1072 3584 1716 3584 
Q 2034 3584 2315 3537 
Q 2597 3491 2834 3397 
z
" transform="scale(0.015625)"/>
       <path id="DejaVuSans-64" d="M 2906 2969 
L 2906 4863 
L 3481 4863 
L 3481 0 
L 2906 0 
L 2906 525 
Q 2725 213 2448 61 
Q 2172 -91 1784 -91 
Q 1150 -91 751 415 
Q 353 922 353 1747 
Q 353 2572 751 3078 
Q 1150 3584 1784 3584 
Q 2172 3584 2448 3432 
Q 2725 3281 2906 2969 
z
M 947 1747 
Q 947 1113 1208 752 
Q 1469 391 1925 391 
Q 2381 391 2643 752 
Q 2906 1113 2906 1747 
Q 2906 2381 2643 2742 
Q 2381 3103 1925 3103 
Q 1469 3103 1208 2742 
Q 947 2381 947 1747 
z
" transform="scale(0.015625)"/>
       <path id="DejaVuSans-67" d="M 2906 1791 
Q 2906 2416 2648 2759 
Q 2391 3103 1925 3103 
Q 1463 3103 1205 2759 
Q 947 2416 947 1791 
Q 947 1169 1205 825 
Q 1463 481 1925 481 
Q 2391 481 2648 825 
Q 2906 1169 2906 1791 
z
M 3481 434 
Q 3481 -459 3084 -895 
Q 2688 -1331 1869 -1331 
Q 1566 -1331 1297 -1286 
Q 1028 -1241 775 -1147 
L 775 -588 
Q 1028 -725 1275 -790 
Q 1522 -856 1778 -856 
Q 2344 -856 2625 -561 
Q 2906 -266 2906 331 
L 2906 616 
Q 2728 306 2450 153 
Q 2172 0 1784 0 
Q 1141 0 747 490 
Q 353 981 353 1791 
Q 353 2603 747 3093 
Q 1141 3584 1784 3584 
Q 2172 3584 2450 3431 
Q 2728 3278 2906 2969 
L 2906 3500 
L 3481 3500 
L 3481 434 
z
" transform="scale(0.015625)"/>
      </defs>
      <use xlink:href="#DejaVuSans-50"/>
      <use xlink:href="#DejaVuSans-68" x="60.302734"/>
      <use xlink:href="#DejaVuSans-61" x="123.681641"/>
      <use xlink:href="#DejaVuSans-73" x="184.960938"/>
      <use xlink:href="#DejaVuSans-65" x="237.060547"/>
      <use xlink:href="#DejaVuSans-30" x="298.583984"/>
      <use xlink:href="#DejaVuSans-20" x="362.207031"/>
      <use xlink:href="#DejaVuSans-5b" x="393.994141"/>
      <use xlink:href="#DejaVuSans-64" x="433.007812"/>
      <use xlink:href="#DejaVuSans-65" x="496.484375"/>
      <use xlink:href="#DejaVuSans-67" x="558.007812"/>
      <use xlink:href="#DejaVuSans-5d" x="621.484375"/>
     </g>
    </g>
   </g>
   <g id="line2d_15">
    <path d="M 66.806165 112.290236 
L 78.001149 105.237983 
L 89.196133 106.162141 
L 100.391118 107.18434 
L 111.586102 99.85722 
L 122.781086 92.592856 
L 133.976071 86.353368 
L 145.171055 79.549355 
L 156.366039 73.437712 
L 167.561024 69.460434 
L 178.756008 65.619005 
L 189.950992 62.921234 
L 201.145977 63.714472 
L 212.340961 60.770203 
L 223.535945 64.550401 
L 234.73093 62.954991 
L 245.925914 64.634701 
L 257.120898 65.80587 
L 268.315883 61.395728 
L 279.510867 57.809221 
L 290.705851 57.863112 
L 301.900836 55.929495 
L 313.09582 291.542453 
L 324.290804 292.229486 
L 335.485789 286.672376 
L 346.680773 279.598867 
L 357.875757 281.41789 
L 369.070742 276.850798 
L 380.265726 273.544494 
L 391.46071 275.886957 
" clip-path="url(#p75329b961c)" style="fill: none; stroke: #440154; stroke-width: 1.5; stroke-linecap: square"/>
   </g>
   <g id="line2d_16">
    <path d="M 66.806165 112.793789 
L 78.001149 105.243494 
L 89.196133 100.414574 
L 100.391118 100.631955 
L 111.586102 90.5616 
L 122.781086 85.917185 
L 133.976071 83.381108 
L 145.171055 77.588812 
L 156.366039 73.668087 
L 167.561024 69.520502 
L 178.756008 65.973557 
L 189.950992 62.664423 
L 201.145977 59.628587 
L 212.340961 59.551088 
L 223.535945 63.44014 
L 234.73093 67.401164 
L 245.925914 68.180513 
L 257.120898 67.025988 
L 268.315883 60.992747 
L 279.510867 58.983893 
L 290.705851 295.603586 
L 301.900836 295.628515 
L 313.09582 290.325131 
L 324.290804 287.945903 
L 335.485789 288.495092 
L 346.680773 282.272774 
L 357.875757 281.3921 
L 369.070742 277.900875 
L 380.265726 273.482663 
L 391.46071 272.493033 
" clip-path="url(#p75329b961c)" style="fill: none; stroke: #470d60; stroke-width: 1.5; stroke-linecap: square"/>
   </g>
   <g id="line2d_17">
    <path d="M 66.806165 113.408948 
L 78.001149 107.258964 
L 89.196133 104.252973 
L 100.391118 98.125488 
L 111.586102 91.34546 
L 122.781086 86.544018 
L 133.976071 87.525075 
L 145.171055 82.380638 
L 156.366039 75.471258 
L 167.561024 71.48263 
L 178.756008 60.94487 
L 189.950992 64.714793 
L 201.145977 60.978508 
L 212.340961 60.818652 
L 223.535945 62.734304 
L 234.73093 66.80834 
L 245.925914 67.916033 
L 257.120898 66.189956 
L 268.315883 63.182415 
L 279.510867 58.81161 
L 290.705851 53.856 
L 301.900836 291.325718 
L 313.09582 287.69043 
L 324.290804 287.174737 
L 335.485789 283.4317 
L 346.680773 279.164198 
L 357.875757 278.991046 
L 369.070742 275.306067 
L 380.265726 275.983081 
L 391.46071 274.772658 
" clip-path="url(#p75329b961c)" style="fill: none; stroke: #481a6c; stroke-width: 1.5; stroke-linecap: square"/>
   </g>
   <g id="line2d_18">
    <path d="M 66.806165 115.16922 
L 78.001149 108.498189 
L 89.196133 106.888228 
L 100.391118 98.748842 
L 111.586102 90.706999 
L 122.781086 89.604623 
L 133.976071 83.455162 
L 145.171055 79.976394 
L 156.366039 79.733902 
L 167.561024 70.823246 
L 178.756008 65.800723 
L 189.950992 68.092026 
L 201.145977 59.19236 
L 212.340961 60.58185 
L 223.535945 64.534989 
L 234.73093 67.754475 
L 245.925914 65.320387 
L 257.120898 67.054333 
L 268.315883 62.517496 
L 279.510867 59.888934 
L 290.705851 54.272116 
L 301.900836 54.13516 
L 313.09582 287.178816 
L 324.290804 288.611033 
L 335.485789 284.194907 
L 346.680773 283.118984 
L 357.875757 278.821281 
L 369.070742 277.418494 
L 380.265726 275.207822 
L 391.46071 271.876259 
" clip-path="url(#p75329b961c)" style="fill: none; stroke: #482576; stroke-width: 1.5; stroke-linecap: square"/>
   </g>
   <g id="line2d_19">
    <path d="M 66.806165 116.474114 
L 78.001149 108.100557 
L 89.196133 105.106104 
L 100.391118 97.70574 
L 111.586102 92.457003 
L 122.781086 90.095703 
L 133.976071 82.231294 
L 145.171055 80.072945 
L 156.366039 72.230281 
L 167.561024 67.062664 
L 178.756008 65.691989 
L 189.950992 62.993946 
L 201.145977 61.633882 
L 212.340961 61.432911 
L 223.535945 64.679913 
L 234.73093 66.632107 
L 245.925914 67.794037 
L 257.120898 68.202548 
L 268.315883 61.753427 
L 279.510867 59.999792 
L 290.705851 55.011491 
L 301.900836 293.172114 
L 313.09582 290.561361 
L 324.290804 285.774147 
L 335.485789 282.995883 
L 346.680773 280.6659 
L 357.875757 280.138849 
L 369.070742 275.128021 
L 380.265726 273.154057 
L 391.46071 271.570724 
" clip-path="url(#p75329b961c)" style="fill: none; stroke: #46307e; stroke-width: 1.5; stroke-linecap: square"/>
   </g>
   <g id="line2d_20">
    <path d="M 66.806165 113.634604 
L 78.001149 111.921407 
L 89.196133 105.181245 
L 100.391118 100.698851 
L 111.586102 95.580255 
L 122.781086 91.732077 
L 133.976071 85.930001 
L 145.171055 79.273397 
L 156.366039 74.486715 
L 167.561024 71.110994 
L 178.756008 66.927297 
L 189.950992 62.038873 
L 201.145977 62.107286 
L 212.340961 61.719197 
L 223.535945 63.808959 
L 234.73093 66.681093 
L 245.925914 68.108038 
L 257.120898 67.614621 
L 268.315883 64.198613 
L 279.510867 58.15897 
L 290.705851 295.776 
L 301.900836 293.703592 
L 313.09582 289.108755 
L 324.290804 288.843112 
L 335.485789 281.805893 
L 346.680773 282.53053 
L 357.875757 280.33779 
L 369.070742 277.738213 
L 380.265726 275.221978 
L 391.46071 274.186905 
" clip-path="url(#p75329b961c)" style="fill: none; stroke: #443b84; stroke-width: 1.5; stroke-linecap: square"/>
   </g>
   <g id="line2d_21">
    <path d="M 66.806165 116.780852 
L 78.001149 108.622134 
L 89.196133 108.861067 
L 100.391118 103.454382 
L 111.586102 96.774227 
L 122.781086 91.701612 
L 133.976071 84.961195 
L 145.171055 75.727588 
L 156.366039 73.724289 
L 167.561024 68.561776 
L 178.756008 66.612436 
L 189.950992 65.361474 
L 201.145977 59.212131 
L 212.340961 60.599775 
L 223.535945 63.252127 
L 234.73093 66.328827 
L 245.925914 66.584236 
L 257.120898 66.264727 
L 268.315883 61.673013 
L 279.510867 58.073044 
L 290.705851 55.308202 
L 301.900836 292.822373 
L 313.09582 288.672337 
L 324.290804 287.852523 
L 335.485789 284.163812 
L 346.680773 283.200009 
L 357.875757 280.772956 
L 369.070742 277.934191 
L 380.265726 275.265655 
L 391.46071 272.380359 
" clip-path="url(#p75329b961c)" style="fill: none; stroke: #404588; stroke-width: 1.5; stroke-linecap: square"/>
   </g>
   <g id="line2d_22">
    <path d="M 66.806165 116.172761 
L 78.001149 110.793024 
L 89.196133 107.326661 
L 100.391118 101.347447 
L 111.586102 94.005062 
L 122.781086 90.914928 
L 133.976071 83.552257 
L 145.171055 79.509784 
L 156.366039 74.228621 
L 167.561024 71.658397 
L 178.756008 66.649084 
L 189.950992 65.770691 
L 201.145977 60.836655 
L 212.340961 61.835489 
L 223.535945 63.123488 
L 234.73093 66.273903 
L 245.925914 69.271441 
L 257.120898 67.657588 
L 268.315883 61.798416 
L 279.510867 58.318493 
L 290.705851 56.176364 
L 301.900836 294.521709 
L 313.09582 290.772574 
L 324.290804 287.384171 
L 335.485789 283.357767 
L 346.680773 282.354078 
L 357.875757 279.810938 
L 369.070742 277.905888 
L 380.265726 275.857972 
L 391.46071 273.497662 
" clip-path="url(#p75329b961c)" style="fill: none; stroke: #3c4f8a; stroke-width: 1.5; stroke-linecap: square"/>
   </g>
   <g id="line2d_23">
    <path d="M 66.806165 115.521574 
L 78.001149 110.742345 
L 89.196133 104.57399 
L 100.391118 103.325601 
L 111.586102 96.933702 
L 122.781086 92.502684 
L 133.976071 83.437517 
L 145.171055 79.504002 
L 156.366039 74.489284 
L 167.561024 70.894552 
L 178.756008 66.626214 
L 189.950992 64.616695 
L 201.145977 61.03831 
L 212.340961 60.748677 
L 223.535945 64.975314 
L 234.73093 66.864244 
L 245.925914 66.65667 
L 257.120898 67.769835 
L 268.315883 62.872296 
L 279.510867 58.202273 
L 290.705851 55.968981 
L 301.900836 293.853278 
L 313.09582 289.935485 
L 324.290804 286.261835 
L 335.485789 283.758531 
L 346.680773 280.525261 
L 357.875757 280.474501 
L 369.070742 276.499351 
L 380.265726 274.716492 
L 391.46071 271.629101 
" clip-path="url(#p75329b961c)" style="fill: none; stroke: #38598c; stroke-width: 1.5; stroke-linecap: square"/>
   </g>
   <g id="line2d_24">
    <path d="M 66.806165 114.382702 
L 78.001149 109.899368 
L 89.196133 107.76539 
L 100.391118 99.504904 
L 111.586102 94.688226 
L 122.781086 91.988547 
L 133.976071 88.682478 
L 145.171055 76.916757 
L 156.366039 72.599352 
L 167.561024 70.258391 
L 178.756008 64.508467 
L 189.950992 62.090614 
L 201.145977 60.702295 
L 212.340961 60.697474 
L 223.535945 63.043877 
L 234.73093 66.21101 
L 245.925914 67.895744 
L 257.120898 66.474018 
L 268.315883 61.589397 
L 279.510867 57.004881 
L 290.705851 55.273631 
L 301.900836 292.470846 
L 313.09582 289.793128 
L 324.290804 285.552313 
L 335.485789 284.862711 
L 346.680773 281.528635 
L 357.875757 279.288313 
L 369.070742 275.954777 
L 380.265726 275.698711 
L 391.46071 271.773314 
" clip-path="url(#p75329b961c)" style="fill: none; stroke: #33628d; stroke-width: 1.5; stroke-linecap: square"/>
   </g>
   <g id="line2d_25">
    <path d="M 66.806165 116.267824 
L 78.001149 109.390119 
L 89.196133 107.329937 
L 100.391118 99.738534 
L 111.586102 94.063174 
L 122.781086 89.787612 
L 133.976071 83.810267 
L 145.171055 80.033719 
L 156.366039 75.283751 
L 167.561024 69.96525 
L 178.756008 65.680076 
L 189.950992 62.797701 
L 201.145977 60.542017 
L 212.340961 61.115652 
L 223.535945 63.485955 
L 234.73093 65.83681 
L 245.925914 66.379637 
L 257.120898 64.185804 
L 268.315883 62.751641 
L 279.510867 58.164049 
L 290.705851 55.15419 
L 301.900836 292.111903 
L 313.09582 288.743439 
L 324.290804 286.583402 
L 335.485789 283.720398 
L 346.680773 281.602578 
L 357.875757 278.797155 
L 369.070742 275.903703 
L 380.265726 274.147881 
L 391.46071 272.195869 
" clip-path="url(#p75329b961c)" style="fill: none; stroke: #2f6b8e; stroke-width: 1.5; stroke-linecap: square"/>
   </g>
   <g id="line2d_26">
    <path d="M 66.806165 116.326611 
L 78.001149 111.592801 
L 89.196133 104.915696 
L 100.391118 101.201147 
L 111.586102 96.876065 
L 122.781086 92.878366 
L 133.976071 84.615742 
L 145.171055 80.193591 
L 156.366039 75.149111 
L 167.561024 70.339352 
L 178.756008 68.115543 
L 189.950992 62.911695 
L 201.145977 60.552105 
L 212.340961 61.101772 
L 223.535945 63.502238 
L 234.73093 66.419717 
L 245.925914 67.597733 
L 257.120898 67.099134 
L 268.315883 63.73032 
L 279.510867 58.419561 
L 290.705851 56.110307 
L 301.900836 293.155141 
L 313.09582 290.002419 
L 324.290804 286.996975 
L 335.485789 283.267981 
L 346.680773 281.574213 
L 357.875757 280.023626 
L 369.070742 276.219313 
L 380.265726 274.677271 
L 391.46071 272.660805 
" clip-path="url(#p75329b961c)" style="fill: none; stroke: #2c738e; stroke-width: 1.5; stroke-linecap: square"/>
   </g>
   <g id="line2d_27">
    <path d="M 66.806165 115.753125 
L 78.001149 110.842372 
L 89.196133 105.396769 
L 100.391118 100.225623 
L 111.586102 95.122796 
L 122.781086 89.992591 
L 133.976071 84.016848 
L 145.171055 80.009484 
L 156.366039 73.985667 
L 167.561024 71.157007 
L 178.756008 66.520576 
L 189.950992 62.568729 
L 201.145977 60.091419 
L 212.340961 61.588009 
L 223.535945 63.070558 
L 234.73093 66.006526 
L 245.925914 67.658682 
L 257.120898 66.165328 
L 268.315883 62.297137 
L 279.510867 57.589065 
L 290.705851 54.925031 
L 301.900836 292.669869 
L 313.09582 288.875057 
L 324.290804 286.81232 
L 335.485789 283.446528 
L 346.680773 281.739963 
L 357.875757 279.541518 
L 369.070742 277.275049 
L 380.265726 274.798616 
L 391.46071 273.192153 
" clip-path="url(#p75329b961c)" style="fill: none; stroke: #297b8e; stroke-width: 1.5; stroke-linecap: square"/>
   </g>
   <g id="line2d_28">
    <path d="M 66.806165 115.385012 
L 78.001149 110.053976 
L 89.196133 104.310777 
L 100.391118 100.83034 
L 111.586102 96.000214 
L 122.781086 88.582695 
L 133.976071 85.79571 
L 145.171055 80.348504 
L 156.366039 75.71106 
L 167.561024 68.038292 
L 178.756008 65.586018 
L 189.950992 62.661425 
L 201.145977 61.443923 
L 212.340961 61.847089 
L 223.535945 63.024558 
L 234.73093 67.423391 
L 245.925914 67.543266 
L 257.120898 65.973961 
L 268.315883 61.943559 
L 279.510867 58.351751 
L 290.705851 55.134396 
L 301.900836 291.237842 
L 313.09582 290.159217 
L 324.290804 285.791922 
L 335.485789 283.44865 
L 346.680773 281.374518 
L 357.875757 277.970235 
L 369.070742 276.558624 
L 380.265726 275.421778 
L 391.46071 272.375228 
" clip-path="url(#p75329b961c)" style="fill: none; stroke: #25838e; stroke-width: 1.5; stroke-linecap: square"/>
   </g>
   <g id="line2d_29">
    <path d="M 66.806165 114.411138 
L 78.001149 110.812287 
L 89.196133 104.705908 
L 100.391118 99.913452 
L 111.586102 96.317948 
L 122.781086 91.490816 
L 133.976071 85.362857 
L 145.171055 79.794702 
L 156.366039 74.088797 
L 167.561024 68.098445 
L 178.756008 66.788749 
L 189.950992 61.730628 
L 201.145977 60.648339 
L 212.340961 60.666253 
L 223.535945 63.43643 
L 234.73093 66.004804 
L 245.925914 67.190103 
L 257.120898 65.449253 
L 268.315883 61.346678 
L 279.510867 58.072697 
L 290.705851 294.905682 
L 301.900836 292.15908 
L 313.09582 288.0533 
L 324.290804 285.485301 
L 335.485789 284.249228 
L 346.680773 280.534149 
L 357.875757 277.776845 
L 369.070742 275.711657 
L 380.265726 273.544069 
L 391.46071 272.189918 
" clip-path="url(#p75329b961c)" style="fill: none; stroke: #228c8d; stroke-width: 1.5; stroke-linecap: square"/>
   </g>
   <g id="line2d_30">
    <path d="M 66.806165 116.373509 
L 78.001149 109.7523 
L 89.196133 105.590306 
L 100.391118 100.330766 
L 111.586102 93.608159 
L 122.781086 88.603407 
L 133.976071 83.698432 
L 145.171055 80.566923 
L 156.366039 74.718226 
L 167.561024 69.943645 
L 178.756008 66.037484 
L 189.950992 62.540138 
L 201.145977 61.030823 
L 212.340961 61.561023 
L 223.535945 63.923492 
L 234.73093 66.686508 
L 245.925914 67.004804 
L 257.120898 66.257914 
L 268.315883 61.674651 
L 279.510867 56.997937 
L 290.705851 54.356038 
L 301.900836 291.929248 
L 313.09582 289.596746 
L 324.290804 285.712933 
L 335.485789 284.505003 
L 346.680773 281.456196 
L 357.875757 279.292259 
L 369.070742 277.225883 
L 380.265726 274.889909 
L 391.46071 271.759068 
" clip-path="url(#p75329b961c)" style="fill: none; stroke: #1f948c; stroke-width: 1.5; stroke-linecap: square"/>
   </g>
   <g id="line2d_31">
    <path d="M 66.806165 114.67198 
L 78.001149 111.249497 
L 89.196133 104.271353 
L 100.391118 99.94884 
L 111.586102 94.258095 
L 122.781086 90.387942 
L 133.976071 84.808759 
L 145.171055 79.491882 
L 156.366039 75.545273 
L 167.561024 70.083152 
L 178.756008 66.836359 
L 189.950992 62.418105 
L 201.145977 61.132366 
L 212.340961 61.239604 
L 223.535945 63.742592 
L 234.73093 66.326498 
L 245.925914 66.242136 
L 257.120898 65.699051 
L 268.315883 62.839894 
L 279.510867 58.52459 
L 290.705851 54.791624 
L 301.900836 292.344798 
L 313.09582 289.441491 
L 324.290804 286.651098 
L 335.485789 284.196688 
L 346.680773 280.462237 
L 357.875757 279.924651 
L 369.070742 276.07488 
L 380.265726 273.419796 
L 391.46071 273.223306 
" clip-path="url(#p75329b961c)" style="fill: none; stroke: #1e9d89; stroke-width: 1.5; stroke-linecap: square"/>
   </g>
   <g id="line2d_32">
    <path d="M 66.806165 113.619173 
L 78.001149 109.82403 
L 89.196133 106.644107 
L 100.391118 101.77222 
L 111.586102 94.316293 
L 122.781086 90.426 
L 133.976071 84.877563 
L 145.171055 80.540995 
L 156.366039 75.25278 
L 167.561024 69.828381 
L 178.756008 65.79901 
L 189.950992 61.932528 
L 201.145977 61.860729 
L 212.340961 60.837444 
L 223.535945 63.215155 
L 234.73093 66.481046 
L 245.925914 67.836247 
L 257.120898 64.763653 
L 268.315883 62.782598 
L 279.510867 57.767589 
L 290.705851 54.361345 
L 301.900836 293.100771 
L 313.09582 288.446868 
L 324.290804 285.644051 
L 335.485789 283.527871 
L 346.680773 280.208025 
L 357.875757 278.804689 
L 369.070742 276.187989 
L 380.265726 274.964071 
L 391.46071 272.538362 
" clip-path="url(#p75329b961c)" style="fill: none; stroke: #21a585; stroke-width: 1.5; stroke-linecap: square"/>
   </g>
   <g id="line2d_33">
    <path d="M 66.806165 112.77982 
L 78.001149 109.942684 
L 89.196133 104.538387 
L 100.391118 99.856414 
L 111.586102 95.912905 
L 122.781086 88.881975 
L 133.976071 83.858451 
L 145.171055 79.239753 
L 156.366039 73.009451 
L 167.561024 69.912931 
L 178.756008 66.119849 
L 189.950992 61.839099 
L 201.145977 60.735221 
L 212.340961 60.140392 
L 223.535945 62.86206 
L 234.73093 66.513064 
L 245.925914 67.182772 
L 257.120898 65.32814 
L 268.315883 61.055139 
L 279.510867 56.74299 
L 290.705851 54.017731 
L 301.900836 291.789413 
L 313.09582 288.739935 
L 324.290804 285.984516 
L 335.485789 282.551956 
L 346.680773 280.891623 
L 357.875757 278.346531 
L 369.070742 276.648733 
L 380.265726 274.028172 
L 391.46071 272.582972 
" clip-path="url(#p75329b961c)" style="fill: none; stroke: #26ad81; stroke-width: 1.5; stroke-linecap: square"/>
   </g>
   <g id="line2d_34">
    <path d="M 66.806165 114.357587 
L 78.001149 109.850245 
L 89.196133 105.642736 
L 100.391118 99.546321 
L 111.586102 96.41614 
L 122.781086 89.596165 
L 133.976071 83.845476 
L 145.171055 79.750329 
L 156.366039 74.106671 
L 167.561024 68.992484 
L 178.756008 65.800088 
L 189.950992 61.837595 
L 201.145977 60.142908 
L 212.340961 61.357515 
L 223.535945 63.633882 
L 234.73093 66.92469 
L 245.925914 67.443546 
L 257.120898 65.123282 
L 268.315883 62.177882 
L 279.510867 57.70119 
L 290.705851 54.073652 
L 301.900836 292.308151 
L 313.09582 288.645419 
L 324.290804 285.435593 
L 335.485789 283.384479 
L 346.680773 281.671158 
L 357.875757 277.468654 
L 369.070742 276.440201 
L 380.265726 274.533782 
L 391.46071 272.379578 
" clip-path="url(#p75329b961c)" style="fill: none; stroke: #31b57b; stroke-width: 1.5; stroke-linecap: square"/>
   </g>
   <g id="line2d_35">
    <path d="M 66.806165 115.088974 
L 78.001149 109.304176 
L 89.196133 105.085799 
L 100.391118 98.771305 
L 111.586102 94.760237 
L 122.781086 90.160883 
L 133.976071 84.473125 
L 145.171055 79.766315 
L 156.366039 73.325792 
L 167.561024 69.203132 
L 178.756008 64.707694 
L 189.950992 62.136985 
L 201.145977 60.714732 
L 212.340961 61.687792 
L 223.535945 63.828525 
L 234.73093 66.333696 
L 245.925914 67.235074 
L 257.120898 65.2523 
L 268.315883 62.021031 
L 279.510867 58.473032 
L 290.705851 53.985934 
L 301.900836 291.864279 
L 313.09582 289.022084 
L 324.290804 286.606542 
L 335.485789 283.152751 
L 346.680773 280.60338 
L 357.875757 278.453971 
L 369.070742 275.836566 
L 380.265726 274.389005 
L 391.46071 272.070955 
" clip-path="url(#p75329b961c)" style="fill: none; stroke: #3fbc73; stroke-width: 1.5; stroke-linecap: square"/>
   </g>
   <g id="line2d_36">
    <path d="M 66.806165 115.318672 
L 78.001149 110.608826 
L 89.196133 105.112927 
L 100.391118 101.571878 
L 111.586102 94.627863 
L 122.781086 90.612807 
L 133.976071 84.650142 
L 145.171055 79.223837 
L 156.366039 75.257722 
L 167.561024 70.056108 
L 178.756008 65.112504 
L 189.950992 60.815839 
L 201.145977 60.499817 
L 212.340961 61.156748 
L 223.535945 63.74042 
L 234.73093 66.355342 
L 245.925914 67.314813 
L 257.120898 65.867493 
L 268.315883 61.847666 
L 279.510867 58.265386 
L 290.705851 54.172814 
L 301.900836 292.445921 
L 313.09582 289.740178 
L 324.290804 286.256359 
L 335.485789 283.605331 
L 346.680773 280.530042 
L 357.875757 278.813358 
L 369.070742 276.255672 
L 380.265726 274.292604 
L 391.46071 272.365355 
" clip-path="url(#p75329b961c)" style="fill: none; stroke: #50c46a; stroke-width: 1.5; stroke-linecap: square"/>
   </g>
   <g id="line2d_37">
    <path d="M 66.806165 115.493059 
L 78.001149 109.845964 
L 89.196133 106.428127 
L 100.391118 99.368911 
L 111.586102 95.438429 
L 122.781086 90.309196 
L 133.976071 84.559365 
L 145.171055 79.933287 
L 156.366039 73.360922 
L 167.561024 70.119509 
L 178.756008 65.170362 
L 189.950992 61.3946 
L 201.145977 60.238917 
L 212.340961 61.916294 
L 223.535945 62.872734 
L 234.73093 67.590194 
L 245.925914 67.829376 
L 257.120898 64.820878 
L 268.315883 62.122512 
L 279.510867 57.62716 
L 290.705851 295.656465 
L 301.900836 292.30284 
L 313.09582 288.889932 
L 324.290804 286.462902 
L 335.485789 282.91976 
L 346.680773 280.883287 
L 357.875757 278.623418 
L 369.070742 276.06328 
L 380.265726 273.807884 
L 391.46071 271.786557 
" clip-path="url(#p75329b961c)" style="fill: none; stroke: #63cb5f; stroke-width: 1.5; stroke-linecap: square"/>
   </g>
   <g id="line2d_38">
    <path d="M 66.806165 115.303109 
L 78.001149 109.450399 
L 89.196133 104.95175 
L 100.391118 99.927942 
L 111.586102 95.819504 
L 122.781086 90.06206 
L 133.976071 84.25954 
L 145.171055 78.885828 
L 156.366039 75.112742 
L 167.561024 68.381281 
L 178.756008 64.615729 
L 189.950992 62.449402 
L 201.145977 61.015682 
L 212.340961 60.858828 
L 223.535945 64.378303 
L 234.73093 66.498442 
L 245.925914 67.085134 
L 257.120898 65.403871 
L 268.315883 61.686823 
L 279.510867 57.409924 
L 290.705851 295.264354 
L 301.900836 291.606098 
L 313.09582 290.0672 
L 324.290804 285.541614 
L 335.485789 283.413671 
L 346.680773 280.363041 
L 357.875757 278.491762 
L 369.070742 275.909397 
L 380.265726 274.366515 
L 391.46071 272.630141 
" clip-path="url(#p75329b961c)" style="fill: none; stroke: #77d153; stroke-width: 1.5; stroke-linecap: square"/>
   </g>
   <g id="line2d_39">
    <path d="M 66.806165 114.780656 
L 78.001149 111.59543 
L 89.196133 103.617125 
L 100.391118 100.619136 
L 111.586102 96.091369 
L 122.781086 90.092222 
L 133.976071 83.540845 
L 145.171055 78.807594 
L 156.366039 74.770811 
L 167.561024 69.372535 
L 178.756008 65.217311 
L 189.950992 62.625034 
L 201.145977 60.020218 
L 212.340961 61.068991 
L 223.535945 63.90722 
L 234.73093 66.578015 
L 245.925914 67.666865 
L 257.120898 65.887948 
L 268.315883 61.354017 
L 279.510867 56.63777 
L 290.705851 54.694354 
L 301.900836 291.744551 
L 313.09582 288.587317 
L 324.290804 286.089905 
L 335.485789 283.523808 
L 346.680773 280.027846 
L 357.875757 278.422873 
L 369.070742 275.833723 
L 380.265726 274.29864 
L 391.46071 272.088645 
" clip-path="url(#p75329b961c)" style="fill: none; stroke: #8bd646; stroke-width: 1.5; stroke-linecap: square"/>
   </g>
   <g id="line2d_40">
    <path d="M 66.806165 114.412551 
L 78.001149 109.199089 
L 89.196133 105.460635 
L 100.391118 100.504616 
L 111.586102 94.47804 
L 122.781086 89.51729 
L 133.976071 83.930543 
L 145.171055 79.334375 
L 156.366039 74.189488 
L 167.561024 69.24943 
L 178.756008 64.38722 
L 189.950992 61.994465 
L 201.145977 60.413632 
L 212.340961 61.376788 
L 223.535945 63.785062 
L 234.73093 67.327454 
L 245.925914 66.521546 
L 257.120898 65.173083 
L 268.315883 62.269225 
L 279.510867 57.297344 
L 290.705851 295.717114 
L 301.900836 292.038034 
L 313.09582 288.966159 
L 324.290804 285.519624 
L 335.485789 282.525493 
L 346.680773 280.742824 
L 357.875757 278.114823 
L 369.070742 276.325663 
L 380.265726 274.664693 
L 391.46071 271.808018 
" clip-path="url(#p75329b961c)" style="fill: none; stroke: #a2da37; stroke-width: 1.5; stroke-linecap: square"/>
   </g>
   <g id="line2d_41">
    <path d="M 66.806165 115.38011 
L 78.001149 109.693386 
L 89.196133 105.86869 
L 100.391118 100.108259 
L 111.586102 94.672269 
L 122.781086 89.805134 
L 133.976071 82.772414 
L 145.171055 78.571671 
L 156.366039 73.860282 
L 167.561024 68.378087 
L 178.756008 64.45463 
L 189.950992 62.076726 
L 201.145977 59.995265 
L 212.340961 61.454958 
L 223.535945 63.839803 
L 234.73093 66.482809 
L 245.925914 67.496599 
L 257.120898 65.787488 
L 268.315883 61.933194 
L 279.510867 58.065351 
L 290.705851 295.234748 
L 301.900836 291.84664 
L 313.09582 289.092942 
L 324.290804 286.29579 
L 335.485789 282.365248 
L 346.680773 280.694437 
L 357.875757 277.381424 
L 369.070742 275.678952 
L 380.265726 273.87254 
L 391.46071 272.020916 
" clip-path="url(#p75329b961c)" style="fill: none; stroke: #bade28; stroke-width: 1.5; stroke-linecap: square"/>
   </g>
   <g id="line2d_42">
    <path d="M 66.806165 113.506026 
L 78.001149 109.927044 
L 89.196133 105.356808 
L 100.391118 100.646014 
L 111.586102 93.853555 
L 122.781086 88.760173 
L 133.976071 83.720874 
L 145.171055 78.994683 
L 156.366039 73.877591 
L 167.561024 69.334791 
L 178.756008 65.741522 
L 189.950992 61.382858 
L 201.145977 59.742124 
L 212.340961 60.922265 
L 223.535945 63.586842 
L 234.73093 66.087457 
L 245.925914 67.288391 
L 257.120898 65.214395 
L 268.315883 61.145323 
L 279.510867 57.365759 
L 290.705851 295.384768 
L 301.900836 292.12815 
L 313.09582 288.829842 
L 324.290804 284.710873 
L 335.485789 283.269589 
L 346.680773 281.16321 
L 357.875757 278.248184 
L 369.070742 275.637881 
L 380.265726 273.329597 
L 391.46071 272.26697 
" clip-path="url(#p75329b961c)" style="fill: none; stroke: #d2e21b; stroke-width: 1.5; stroke-linecap: square"/>
   </g>
   <g id="line2d_43">
    <path d="M 66.806165 114.355443 
L 78.001149 109.999707 
L 89.196133 105.094985 
L 100.391118 100.305378 
L 111.586102 94.649658 
L 122.781086 89.226201 
L 133.976071 82.148013 
L 145.171055 79.802837 
L 156.366039 73.153304 
L 167.561024 68.804401 
L 178.756008 65.145231 
L 189.950992 62.500837 
L 201.145977 59.677438 
L 212.340961 61.111982 
L 223.535945 63.657197 
L 234.73093 66.556331 
L 245.925914 67.281046 
L 257.120898 64.993425 
L 268.315883 61.638157 
L 279.510867 57.82243 
L 290.705851 54.030988 
L 301.900836 292.017856 
L 313.09582 288.223894 
L 324.290804 285.539067 
L 335.485789 283.320679 
L 346.680773 280.587755 
L 357.875757 277.885719 
L 369.070742 275.606054 
L 380.265726 273.781064 
L 391.46071 272.196328 
" clip-path="url(#p75329b961c)" style="fill: none; stroke: #eae51a; stroke-width: 1.5; stroke-linecap: square"/>
   </g>
   <g id="line2d_44">
    <path d="M 66.806165 115.027598 
L 78.001149 109.536249 
L 89.196133 104.111125 
L 100.391118 100.481116 
L 111.586102 93.954669 
L 122.781086 89.160863 
L 133.976071 83.651645 
L 145.171055 77.986455 
L 156.366039 73.389747 
L 167.561024 69.64591 
L 178.756008 64.631682 
L 189.950992 61.198234 
L 201.145977 59.845296 
L 212.340961 60.885976 
L 223.535945 63.366118 
L 234.73093 66.903691 
L 245.925914 66.704458 
L 257.120898 65.188145 
L 268.315883 61.326584 
L 279.510867 57.268042 
L 290.705851 53.885897 
L 301.900836 291.545679 
L 313.09582 288.935481 
L 324.290804 285.6652 
L 335.485789 281.941471 
L 346.680773 280.407332 
L 357.875757 278.107087 
L 369.070742 276.457464 
L 380.265726 273.554872 
L 391.46071 271.484016 
" clip-path="url(#p75329b961c)" style="fill: none; stroke: #fde725; stroke-width: 1.5; stroke-linecap: square"/>
   </g>
   <g id="patch_3">
    <path d="M 50.573438 307.872 
L 50.573438 41.76 
" style="fill: none; stroke: #000000; stroke-width: 0.8; stroke-linejoin: miter; stroke-linecap: square"/>
   </g>
   <g id="patch_4">
    <path d="M 407.693438 307.872 
L 407.693438 41.76 
" style="fill: none; stroke: #000000; stroke-width: 0.8; stroke-linejoin: miter; stroke-linecap: square"/>
   </g>
   <g id="patch_5">
    <path d="M 50.573437 307.872 
L 407.693437 307.872 
" style="fill: none; stroke: #000000; stroke-width: 0.8; stroke-linejoin: miter; stroke-linecap: square"/>
   </g>
   <g id="patch_6">
    <path d="M 50.573437 41.76 
L 407.693437 41.76 
" style="fill: none; stroke: #000000; stroke-width: 0.8; stroke-linejoin: miter; stroke-linecap: square"/>
   </g>
   <g id="legend_1">
    <g id="patch_7">
     <path d="M 427.549438 307.872 
L 641.433812 307.872 
Q 643.433812 307.872 643.433812 305.872 
L 643.433812 145.412625 
Q 643.433812 143.412625 641.433812 143.412625 
L 427.549438 143.412625 
Q 425.549438 143.412625 425.549438 145.412625 
L 425.549438 305.872 
Q 425.549438 307.872 427.549438 307.872 
z
" style="fill: #ffffff; opacity: 0.8; stroke: #cccccc; stroke-linejoin: miter"/>
    </g>
    <g id="text_18">
     <!-- Readout pulse amplitude () -->
     <g transform="translate(466.390844 155.011063) scale(0.1 -0.1)">
      <defs>
       <path id="DejaVuSans-52" d="M 2841 2188 
Q 3044 2119 3236 1894 
Q 3428 1669 3622 1275 
L 4263 0 
L 3584 0 
L 2988 1197 
Q 2756 1666 2539 1819 
Q 2322 1972 1947 1972 
L 1259 1972 
L 1259 0 
L 628 0 
L 628 4666 
L 2053 4666 
Q 2853 4666 3247 4331 
Q 3641 3997 3641 3322 
Q 3641 2881 3436 2590 
Q 3231 2300 2841 2188 
z
M 1259 4147 
L 1259 2491 
L 2053 2491 
Q 2509 2491 2742 2702 
Q 2975 2913 2975 3322 
Q 2975 3731 2742 3939 
Q 2509 4147 2053 4147 
L 1259 4147 
z
" transform="scale(0.015625)"/>
       <path id="DejaVuSans-6f" d="M 1959 3097 
Q 1497 3097 1228 2736 
Q 959 2375 959 1747 
Q 959 1119 1226 758 
Q 1494 397 1959 397 
Q 2419 397 2687 759 
Q 2956 1122 2956 1747 
Q 2956 2369 2687 2733 
Q 2419 3097 1959 3097 
z
M 1959 3584 
Q 2709 3584 3137 3096 
Q 3566 2609 3566 1747 
Q 3566 888 3137 398 
Q 2709 -91 1959 -91 
Q 1206 -91 779 398 
Q 353 888 353 1747 
Q 353 2609 779 3096 
Q 1206 3584 1959 3584 
z
" transform="scale(0.015625)"/>
       <path id="DejaVuSans-74" d="M 1172 4494 
L 1172 3500 
L 2356 3500 
L 2356 3053 
L 1172 3053 
L 1172 1153 
Q 1172 725 1289 603 
Q 1406 481 1766 481 
L 2356 481 
L 2356 0 
L 1766 0 
Q 1100 0 847 248 
Q 594 497 594 1153 
L 594 3053 
L 172 3053 
L 172 3500 
L 594 3500 
L 594 4494 
L 1172 4494 
z
" transform="scale(0.015625)"/>
       <path id="DejaVuSans-70" d="M 1159 525 
L 1159 -1331 
L 581 -1331 
L 581 3500 
L 1159 3500 
L 1159 2969 
Q 1341 3281 1617 3432 
Q 1894 3584 2278 3584 
Q 2916 3584 3314 3078 
Q 3713 2572 3713 1747 
Q 3713 922 3314 415 
Q 2916 -91 2278 -91 
Q 1894 -91 1617 61 
Q 1341 213 1159 525 
z
M 3116 1747 
Q 3116 2381 2855 2742 
Q 2594 3103 2138 3103 
Q 1681 3103 1420 2742 
Q 1159 2381 1159 1747 
Q 1159 1113 1420 752 
Q 1681 391 2138 391 
Q 2594 391 2855 752 
Q 3116 1113 3116 1747 
z
" transform="scale(0.015625)"/>
       <path id="DejaVuSans-6c" d="M 603 4863 
L 1178 4863 
L 1178 0 
L 603 0 
L 603 4863 
z
" transform="scale(0.015625)"/>
       <path id="DejaVuSans-6d" d="M 3328 2828 
Q 3544 3216 3844 3400 
Q 4144 3584 4550 3584 
Q 5097 3584 5394 3201 
Q 5691 2819 5691 2113 
L 5691 0 
L 5113 0 
L 5113 2094 
Q 5113 2597 4934 2840 
Q 4756 3084 4391 3084 
Q 3944 3084 3684 2787 
Q 3425 2491 3425 1978 
L 3425 0 
L 2847 0 
L 2847 2094 
Q 2847 2600 2669 2842 
Q 2491 3084 2119 3084 
Q 1678 3084 1418 2786 
Q 1159 2488 1159 1978 
L 1159 0 
L 581 0 
L 581 3500 
L 1159 3500 
L 1159 2956 
Q 1356 3278 1631 3431 
Q 1906 3584 2284 3584 
Q 2666 3584 2933 3390 
Q 3200 3197 3328 2828 
z
" transform="scale(0.015625)"/>
       <path id="DejaVuSans-69" d="M 603 3500 
L 1178 3500 
L 1178 0 
L 603 0 
L 603 3500 
z
M 603 4863 
L 1178 4863 
L 1178 4134 
L 603 4134 
L 603 4863 
z
" transform="scale(0.015625)"/>
       <path id="DejaVuSans-28" d="M 1984 4856 
Q 1566 4138 1362 3434 
Q 1159 2731 1159 2009 
Q 1159 1288 1364 580 
Q 1569 -128 1984 -844 
L 1484 -844 
Q 1016 -109 783 600 
Q 550 1309 550 2009 
Q 550 2706 781 3412 
Q 1013 4119 1484 4856 
L 1984 4856 
z
" transform="scale(0.015625)"/>
       <path id="DejaVuSans-29" d="M 513 4856 
L 1013 4856 
Q 1481 4119 1714 3412 
Q 1947 2706 1947 2009 
Q 1947 1309 1714 600 
Q 1481 -109 1013 -844 
L 513 -844 
Q 928 -128 1133 580 
Q 1338 1288 1338 2009 
Q 1338 2731 1133 3434 
Q 928 4138 513 4856 
z
" transform="scale(0.015625)"/>
      </defs>
      <use xlink:href="#DejaVuSans-52"/>
      <use xlink:href="#DejaVuSans-65" x="64.982422"/>
      <use xlink:href="#DejaVuSans-61" x="126.505859"/>
      <use xlink:href="#DejaVuSans-64" x="187.785156"/>
      <use xlink:href="#DejaVuSans-6f" x="251.261719"/>
      <use xlink:href="#DejaVuSans-75" x="312.443359"/>
      <use xlink:href="#DejaVuSans-74" x="375.822266"/>
      <use xlink:href="#DejaVuSans-20" x="415.03125"/>
      <use xlink:href="#DejaVuSans-70" x="446.818359"/>
      <use xlink:href="#DejaVuSans-75" x="510.294922"/>
      <use xlink:href="#DejaVuSans-6c" x="573.673828"/>
      <use xlink:href="#DejaVuSans-73" x="601.457031"/>
      <use xlink:href="#DejaVuSans-65" x="653.556641"/>
      <use xlink:href="#DejaVuSans-20" x="715.080078"/>
      <use xlink:href="#DejaVuSans-61" x="746.867188"/>
      <use xlink:href="#DejaVuSans-6d" x="808.146484"/>
      <use xlink:href="#DejaVuSans-70" x="905.558594"/>
      <use xlink:href="#DejaVuSans-6c" x="969.035156"/>
      <use xlink:href="#DejaVuSans-69" x="996.818359"/>
      <use xlink:href="#DejaVuSans-74" x="1024.601562"/>
      <use xlink:href="#DejaVuSans-75" x="1063.810547"/>
      <use xlink:href="#DejaVuSans-64" x="1127.189453"/>
      <use xlink:href="#DejaVuSans-65" x="1190.666016"/>
      <use xlink:href="#DejaVuSans-20" x="1252.189453"/>
      <use xlink:href="#DejaVuSans-28" x="1283.976562"/>
      <use xlink:href="#DejaVuSans-29" x="1322.990234"/>
     </g>
    </g>
    <g id="line2d_45">
     <path d="M 429.549438 166.189188 
L 439.549438 166.189188 
L 449.549438 166.189188 
" style="fill: none; stroke: #440154; stroke-width: 1.5; stroke-linecap: square"/>
    </g>
    <g id="text_19">
     <!-- 0.1 -->
     <g transform="translate(457.549438 169.689188) scale(0.1 -0.1)">
      <defs>
       <path id="DejaVuSans-2e" d="M 684 794 
L 1344 794 
L 1344 0 
L 684 0 
L 684 794 
z
" transform="scale(0.015625)"/>
      </defs>
      <use xlink:href="#DejaVuSans-30"/>
      <use xlink:href="#DejaVuSans-2e" x="63.623047"/>
      <use xlink:href="#DejaVuSans-31" x="95.410156"/>
     </g>
    </g>
    <g id="line2d_46">
     <path d="M 429.549438 180.867313 
L 439.549438 180.867313 
L 449.549438 180.867313 
" style="fill: none; stroke: #470d60; stroke-width: 1.5; stroke-linecap: square"/>
    </g>
    <g id="text_20">
     <!-- 0.121 -->
     <g transform="translate(457.549438 184.367313) scale(0.1 -0.1)">
      <use xlink:href="#DejaVuSans-30"/>
      <use xlink:href="#DejaVuSans-2e" x="63.623047"/>
      <use xlink:href="#DejaVuSans-31" x="95.410156"/>
      <use xlink:href="#DejaVuSans-32" x="159.033203"/>
      <use xlink:href="#DejaVuSans-31" x="222.65625"/>
     </g>
    </g>
    <g id="line2d_47">
     <path d="M 429.549438 195.545438 
L 439.549438 195.545438 
L 449.549438 195.545438 
" style="fill: none; stroke: #481a6c; stroke-width: 1.5; stroke-linecap: square"/>
    </g>
    <g id="text_21">
     <!-- 0.141 -->
     <g transform="translate(457.549438 199.045438) scale(0.1 -0.1)">
      <use xlink:href="#DejaVuSans-30"/>
      <use xlink:href="#DejaVuSans-2e" x="63.623047"/>
      <use xlink:href="#DejaVuSans-31" x="95.410156"/>
      <use xlink:href="#DejaVuSans-34" x="159.033203"/>
      <use xlink:href="#DejaVuSans-31" x="222.65625"/>
     </g>
    </g>
    <g id="line2d_48">
     <path d="M 429.549438 210.223563 
L 439.549438 210.223563 
L 449.549438 210.223563 
" style="fill: none; stroke: #482576; stroke-width: 1.5; stroke-linecap: square"/>
    </g>
    <g id="text_22">
     <!-- 0.162 -->
     <g transform="translate(457.549438 213.723563) scale(0.1 -0.1)">
      <use xlink:href="#DejaVuSans-30"/>
      <use xlink:href="#DejaVuSans-2e" x="63.623047"/>
      <use xlink:href="#DejaVuSans-31" x="95.410156"/>
      <use xlink:href="#DejaVuSans-36" x="159.033203"/>
      <use xlink:href="#DejaVuSans-32" x="222.65625"/>
     </g>
    </g>
    <g id="line2d_49">
     <path d="M 429.549438 224.901688 
L 439.549438 224.901688 
L 449.549438 224.901688 
" style="fill: none; stroke: #46307e; stroke-width: 1.5; stroke-linecap: square"/>
    </g>
    <g id="text_23">
     <!-- 0.183 -->
     <g transform="translate(457.549438 228.401688) scale(0.1 -0.1)">
      <use xlink:href="#DejaVuSans-30"/>
      <use xlink:href="#DejaVuSans-2e" x="63.623047"/>
      <use xlink:href="#DejaVuSans-31" x="95.410156"/>
      <use xlink:href="#DejaVuSans-38" x="159.033203"/>
      <use xlink:href="#DejaVuSans-33" x="222.65625"/>
     </g>
    </g>
    <g id="line2d_50">
     <path d="M 429.549438 239.579813 
L 439.549438 239.579813 
L 449.549438 239.579813 
" style="fill: none; stroke: #443b84; stroke-width: 1.5; stroke-linecap: square"/>
    </g>
    <g id="text_24">
     <!-- 0.203 -->
     <g transform="translate(457.549438 243.079813) scale(0.1 -0.1)">
      <use xlink:href="#DejaVuSans-30"/>
      <use xlink:href="#DejaVuSans-2e" x="63.623047"/>
      <use xlink:href="#DejaVuSans-32" x="95.410156"/>
      <use xlink:href="#DejaVuSans-30" x="159.033203"/>
      <use xlink:href="#DejaVuSans-33" x="222.65625"/>
     </g>
    </g>
    <g id="line2d_51">
     <path d="M 429.549438 254.257938 
L 439.549438 254.257938 
L 449.549438 254.257938 
" style="fill: none; stroke: #404588; stroke-width: 1.5; stroke-linecap: square"/>
    </g>
    <g id="text_25">
     <!-- 0.224 -->
     <g transform="translate(457.549438 257.757938) scale(0.1 -0.1)">
      <use xlink:href="#DejaVuSans-30"/>
      <use xlink:href="#DejaVuSans-2e" x="63.623047"/>
      <use xlink:href="#DejaVuSans-32" x="95.410156"/>
      <use xlink:href="#DejaVuSans-32" x="159.033203"/>
      <use xlink:href="#DejaVuSans-34" x="222.65625"/>
     </g>
    </g>
    <g id="line2d_52">
     <path d="M 429.549438 268.936062 
L 439.549438 268.936062 
L 449.549438 268.936062 
" style="fill: none; stroke: #3c4f8a; stroke-width: 1.5; stroke-linecap: square"/>
    </g>
    <g id="text_26">
     <!-- 0.245 -->
     <g transform="translate(457.549438 272.436062) scale(0.1 -0.1)">
      <use xlink:href="#DejaVuSans-30"/>
      <use xlink:href="#DejaVuSans-2e" x="63.623047"/>
      <use xlink:href="#DejaVuSans-32" x="95.410156"/>
      <use xlink:href="#DejaVuSans-34" x="159.033203"/>
      <use xlink:href="#DejaVuSans-35" x="222.65625"/>
     </g>
    </g>
    <g id="line2d_53">
     <path d="M 429.549438 283.614188 
L 439.549438 283.614188 
L 449.549438 283.614188 
" style="fill: none; stroke: #38598c; stroke-width: 1.5; stroke-linecap: square"/>
    </g>
    <g id="text_27">
     <!-- 0.266 -->
     <g transform="translate(457.549438 287.114188) scale(0.1 -0.1)">
      <use xlink:href="#DejaVuSans-30"/>
      <use xlink:href="#DejaVuSans-2e" x="63.623047"/>
      <use xlink:href="#DejaVuSans-32" x="95.410156"/>
      <use xlink:href="#DejaVuSans-36" x="159.033203"/>
      <use xlink:href="#DejaVuSans-36" x="222.65625"/>
     </g>
    </g>
    <g id="line2d_54">
     <path d="M 429.549438 298.292312 
L 439.549438 298.292312 
L 449.549438 298.292312 
" style="fill: none; stroke: #33628d; stroke-width: 1.5; stroke-linecap: square"/>
    </g>
    <g id="text_28">
     <!-- 0.286 -->
     <g transform="translate(457.549438 301.792312) scale(0.1 -0.1)">
      <use xlink:href="#DejaVuSans-30"/>
      <use xlink:href="#DejaVuSans-2e" x="63.623047"/>
      <use xlink:href="#DejaVuSans-32" x="95.410156"/>
      <use xlink:href="#DejaVuSans-38" x="159.033203"/>
      <use xlink:href="#DejaVuSans-36" x="222.65625"/>
     </g>
    </g>
    <g id="line2d_55">
     <path d="M 506.177563 166.189188 
L 516.177563 166.189188 
L 526.177563 166.189188 
" style="fill: none; stroke: #2f6b8e; stroke-width: 1.5; stroke-linecap: square"/>
    </g>
    <g id="text_29">
     <!-- 0.307 -->
     <g transform="translate(534.177563 169.689188) scale(0.1 -0.1)">
      <use xlink:href="#DejaVuSans-30"/>
      <use xlink:href="#DejaVuSans-2e" x="63.623047"/>
      <use xlink:href="#DejaVuSans-33" x="95.410156"/>
      <use xlink:href="#DejaVuSans-30" x="159.033203"/>
      <use xlink:href="#DejaVuSans-37" x="222.65625"/>
     </g>
    </g>
    <g id="line2d_56">
     <path d="M 506.177563 180.867313 
L 516.177563 180.867313 
L 526.177563 180.867313 
" style="fill: none; stroke: #2c738e; stroke-width: 1.5; stroke-linecap: square"/>
    </g>
    <g id="text_30">
     <!-- 0.328 -->
     <g transform="translate(534.177563 184.367313) scale(0.1 -0.1)">
      <use xlink:href="#DejaVuSans-30"/>
      <use xlink:href="#DejaVuSans-2e" x="63.623047"/>
      <use xlink:href="#DejaVuSans-33" x="95.410156"/>
      <use xlink:href="#DejaVuSans-32" x="159.033203"/>
      <use xlink:href="#DejaVuSans-38" x="222.65625"/>
     </g>
    </g>
    <g id="line2d_57">
     <path d="M 506.177563 195.545438 
L 516.177563 195.545438 
L 526.177563 195.545438 
" style="fill: none; stroke: #297b8e; stroke-width: 1.5; stroke-linecap: square"/>
    </g>
    <g id="text_31">
     <!-- 0.348 -->
     <g transform="translate(534.177563 199.045438) scale(0.1 -0.1)">
      <use xlink:href="#DejaVuSans-30"/>
      <use xlink:href="#DejaVuSans-2e" x="63.623047"/>
      <use xlink:href="#DejaVuSans-33" x="95.410156"/>
      <use xlink:href="#DejaVuSans-34" x="159.033203"/>
      <use xlink:href="#DejaVuSans-38" x="222.65625"/>
     </g>
    </g>
    <g id="line2d_58">
     <path d="M 506.177563 210.223563 
L 516.177563 210.223563 
L 526.177563 210.223563 
" style="fill: none; stroke: #25838e; stroke-width: 1.5; stroke-linecap: square"/>
    </g>
    <g id="text_32">
     <!-- 0.369 -->
     <g transform="translate(534.177563 213.723563) scale(0.1 -0.1)">
      <use xlink:href="#DejaVuSans-30"/>
      <use xlink:href="#DejaVuSans-2e" x="63.623047"/>
      <use xlink:href="#DejaVuSans-33" x="95.410156"/>
      <use xlink:href="#DejaVuSans-36" x="159.033203"/>
      <use xlink:href="#DejaVuSans-39" x="222.65625"/>
     </g>
    </g>
    <g id="line2d_59">
     <path d="M 506.177563 224.901688 
L 516.177563 224.901688 
L 526.177563 224.901688 
" style="fill: none; stroke: #228c8d; stroke-width: 1.5; stroke-linecap: square"/>
    </g>
    <g id="text_33">
     <!-- 0.39 -->
     <g transform="translate(534.177563 228.401688) scale(0.1 -0.1)">
      <use xlink:href="#DejaVuSans-30"/>
      <use xlink:href="#DejaVuSans-2e" x="63.623047"/>
      <use xlink:href="#DejaVuSans-33" x="95.410156"/>
      <use xlink:href="#DejaVuSans-39" x="159.033203"/>
     </g>
    </g>
    <g id="line2d_60">
     <path d="M 506.177563 239.579813 
L 516.177563 239.579813 
L 526.177563 239.579813 
" style="fill: none; stroke: #1f948c; stroke-width: 1.5; stroke-linecap: square"/>
    </g>
    <g id="text_34">
     <!-- 0.41 -->
     <g transform="translate(534.177563 243.079813) scale(0.1 -0.1)">
      <use xlink:href="#DejaVuSans-30"/>
      <use xlink:href="#DejaVuSans-2e" x="63.623047"/>
      <use xlink:href="#DejaVuSans-34" x="95.410156"/>
      <use xlink:href="#DejaVuSans-31" x="159.033203"/>
     </g>
    </g>
    <g id="line2d_61">
     <path d="M 506.177563 254.257938 
L 516.177563 254.257938 
L 526.177563 254.257938 
" style="fill: none; stroke: #1e9d89; stroke-width: 1.5; stroke-linecap: square"/>
    </g>
    <g id="text_35">
     <!-- 0.431 -->
     <g transform="translate(534.177563 257.757938) scale(0.1 -0.1)">
      <use xlink:href="#DejaVuSans-30"/>
      <use xlink:href="#DejaVuSans-2e" x="63.623047"/>
      <use xlink:href="#DejaVuSans-34" x="95.410156"/>
      <use xlink:href="#DejaVuSans-33" x="159.033203"/>
      <use xlink:href="#DejaVuSans-31" x="222.65625"/>
     </g>
    </g>
    <g id="line2d_62">
     <path d="M 506.177563 268.936062 
L 516.177563 268.936062 
L 526.177563 268.936062 
" style="fill: none; stroke: #21a585; stroke-width: 1.5; stroke-linecap: square"/>
    </g>
    <g id="text_36">
     <!-- 0.452 -->
     <g transform="translate(534.177563 272.436062) scale(0.1 -0.1)">
      <use xlink:href="#DejaVuSans-30"/>
      <use xlink:href="#DejaVuSans-2e" x="63.623047"/>
      <use xlink:href="#DejaVuSans-34" x="95.410156"/>
      <use xlink:href="#DejaVuSans-35" x="159.033203"/>
      <use xlink:href="#DejaVuSans-32" x="222.65625"/>
     </g>
    </g>
    <g id="line2d_63">
     <path d="M 506.177563 283.614188 
L 516.177563 283.614188 
L 526.177563 283.614188 
" style="fill: none; stroke: #26ad81; stroke-width: 1.5; stroke-linecap: square"/>
    </g>
    <g id="text_37">
     <!-- 0.472 -->
     <g transform="translate(534.177563 287.114188) scale(0.1 -0.1)">
      <use xlink:href="#DejaVuSans-30"/>
      <use xlink:href="#DejaVuSans-2e" x="63.623047"/>
      <use xlink:href="#DejaVuSans-34" x="95.410156"/>
      <use xlink:href="#DejaVuSans-37" x="159.033203"/>
      <use xlink:href="#DejaVuSans-32" x="222.65625"/>
     </g>
    </g>
    <g id="line2d_64">
     <path d="M 506.177563 298.292312 
L 516.177563 298.292312 
L 526.177563 298.292312 
" style="fill: none; stroke: #31b57b; stroke-width: 1.5; stroke-linecap: square"/>
    </g>
    <g id="text_38">
     <!-- 0.493 -->
     <g transform="translate(534.177563 301.792312) scale(0.1 -0.1)">
      <use xlink:href="#DejaVuSans-30"/>
      <use xlink:href="#DejaVuSans-2e" x="63.623047"/>
      <use xlink:href="#DejaVuSans-34" x="95.410156"/>
      <use xlink:href="#DejaVuSans-39" x="159.033203"/>
      <use xlink:href="#DejaVuSans-33" x="222.65625"/>
     </g>
    </g>
    <g id="line2d_65">
     <path d="M 582.805687 166.189188 
L 592.805687 166.189188 
L 602.805687 166.189188 
" style="fill: none; stroke: #3fbc73; stroke-width: 1.5; stroke-linecap: square"/>
    </g>
    <g id="text_39">
     <!-- 0.514 -->
     <g transform="translate(610.805687 169.689188) scale(0.1 -0.1)">
      <use xlink:href="#DejaVuSans-30"/>
      <use xlink:href="#DejaVuSans-2e" x="63.623047"/>
      <use xlink:href="#DejaVuSans-35" x="95.410156"/>
      <use xlink:href="#DejaVuSans-31" x="159.033203"/>
      <use xlink:href="#DejaVuSans-34" x="222.65625"/>
     </g>
    </g>
    <g id="line2d_66">
     <path d="M 582.805687 180.867313 
L 592.805687 180.867313 
L 602.805687 180.867313 
" style="fill: none; stroke: #50c46a; stroke-width: 1.5; stroke-linecap: square"/>
    </g>
    <g id="text_40">
     <!-- 0.534 -->
     <g transform="translate(610.805687 184.367313) scale(0.1 -0.1)">
      <use xlink:href="#DejaVuSans-30"/>
      <use xlink:href="#DejaVuSans-2e" x="63.623047"/>
      <use xlink:href="#DejaVuSans-35" x="95.410156"/>
      <use xlink:href="#DejaVuSans-33" x="159.033203"/>
      <use xlink:href="#DejaVuSans-34" x="222.65625"/>
     </g>
    </g>
    <g id="line2d_67">
     <path d="M 582.805687 195.545438 
L 592.805687 195.545438 
L 602.805687 195.545438 
" style="fill: none; stroke: #63cb5f; stroke-width: 1.5; stroke-linecap: square"/>
    </g>
    <g id="text_41">
     <!-- 0.555 -->
     <g transform="translate(610.805687 199.045438) scale(0.1 -0.1)">
      <use xlink:href="#DejaVuSans-30"/>
      <use xlink:href="#DejaVuSans-2e" x="63.623047"/>
      <use xlink:href="#DejaVuSans-35" x="95.410156"/>
      <use xlink:href="#DejaVuSans-35" x="159.033203"/>
      <use xlink:href="#DejaVuSans-35" x="222.65625"/>
     </g>
    </g>
    <g id="line2d_68">
     <path d="M 582.805687 210.223563 
L 592.805687 210.223563 
L 602.805687 210.223563 
" style="fill: none; stroke: #77d153; stroke-width: 1.5; stroke-linecap: square"/>
    </g>
    <g id="text_42">
     <!-- 0.576 -->
     <g transform="translate(610.805687 213.723563) scale(0.1 -0.1)">
      <use xlink:href="#DejaVuSans-30"/>
      <use xlink:href="#DejaVuSans-2e" x="63.623047"/>
      <use xlink:href="#DejaVuSans-35" x="95.410156"/>
      <use xlink:href="#DejaVuSans-37" x="159.033203"/>
      <use xlink:href="#DejaVuSans-36" x="222.65625"/>
     </g>
    </g>
    <g id="line2d_69">
     <path d="M 582.805687 224.901688 
L 592.805687 224.901688 
L 602.805687 224.901688 
" style="fill: none; stroke: #8bd646; stroke-width: 1.5; stroke-linecap: square"/>
    </g>
    <g id="text_43">
     <!-- 0.597 -->
     <g transform="translate(610.805687 228.401688) scale(0.1 -0.1)">
      <use xlink:href="#DejaVuSans-30"/>
      <use xlink:href="#DejaVuSans-2e" x="63.623047"/>
      <use xlink:href="#DejaVuSans-35" x="95.410156"/>
      <use xlink:href="#DejaVuSans-39" x="159.033203"/>
      <use xlink:href="#DejaVuSans-37" x="222.65625"/>
     </g>
    </g>
    <g id="line2d_70">
     <path d="M 582.805687 239.579813 
L 592.805687 239.579813 
L 602.805687 239.579813 
" style="fill: none; stroke: #a2da37; stroke-width: 1.5; stroke-linecap: square"/>
    </g>
    <g id="text_44">
     <!-- 0.617 -->
     <g transform="translate(610.805687 243.079813) scale(0.1 -0.1)">
      <use xlink:href="#DejaVuSans-30"/>
      <use xlink:href="#DejaVuSans-2e" x="63.623047"/>
      <use xlink:href="#DejaVuSans-36" x="95.410156"/>
      <use xlink:href="#DejaVuSans-31" x="159.033203"/>
      <use xlink:href="#DejaVuSans-37" x="222.65625"/>
     </g>
    </g>
    <g id="line2d_71">
     <path d="M 582.805687 254.257938 
L 592.805687 254.257938 
L 602.805687 254.257938 
" style="fill: none; stroke: #bade28; stroke-width: 1.5; stroke-linecap: square"/>
    </g>
    <g id="text_45">
     <!-- 0.638 -->
     <g transform="translate(610.805687 257.757938) scale(0.1 -0.1)">
      <use xlink:href="#DejaVuSans-30"/>
      <use xlink:href="#DejaVuSans-2e" x="63.623047"/>
      <use xlink:href="#DejaVuSans-36" x="95.410156"/>
      <use xlink:href="#DejaVuSans-33" x="159.033203"/>
      <use xlink:href="#DejaVuSans-38" x="222.65625"/>
     </g>
    </g>
    <g id="line2d_72">
     <path d="M 582.805687 268.936062 
L 592.805687 268.936062 
L 602.805687 268.936062 
" style="fill: none; stroke: #d2e21b; stroke-width: 1.5; stroke-linecap: square"/>
    </g>
    <g id="text_46">
     <!-- 0.659 -->
     <g transform="translate(610.805687 272.436062) scale(0.1 -0.1)">
      <use xlink:href="#DejaVuSans-30"/>
      <use xlink:href="#DejaVuSans-2e" x="63.623047"/>
      <use xlink:href="#DejaVuSans-36" x="95.410156"/>
      <use xlink:href="#DejaVuSans-35" x="159.033203"/>
      <use xlink:href="#DejaVuSans-39" x="222.65625"/>
     </g>
    </g>
    <g id="line2d_73">
     <path d="M 582.805687 283.614188 
L 592.805687 283.614188 
L 602.805687 283.614188 
" style="fill: none; stroke: #eae51a; stroke-width: 1.5; stroke-linecap: square"/>
    </g>
    <g id="text_47">
     <!-- 0.679 -->
     <g transform="translate(610.805687 287.114188) scale(0.1 -0.1)">
      <use xlink:href="#DejaVuSans-30"/>
      <use xlink:href="#DejaVuSans-2e" x="63.623047"/>
      <use xlink:href="#DejaVuSans-36" x="95.410156"/>
      <use xlink:href="#DejaVuSans-37" x="159.033203"/>
      <use xlink:href="#DejaVuSans-39" x="222.65625"/>
     </g>
    </g>
    <g id="line2d_74">
     <path d="M 582.805687 298.292312 
L 592.805687 298.292312 
L 602.805687 298.292312 
" style="fill: none; stroke: #fde725; stroke-width: 1.5; stroke-linecap: square"/>
    </g>
    <g id="text_48">
     <!-- 0.7 -->
     <g transform="translate(610.805687 301.792312) scale(0.1 -0.1)">
      <use xlink:href="#DejaVuSans-30"/>
      <use xlink:href="#DejaVuSans-2e" x="63.623047"/>
      <use xlink:href="#DejaVuSans-37" x="95.410156"/>
     </g>
    </g>
   </g>
  </g>
  <g id="text_49">
   <!-- x0x1-y1 One-tone-powerDep -->
   <g transform="translate(136.569375 16.318125) scale(0.12 -0.12)">
    <defs>
     <path id="DejaVuSans-78" d="M 3513 3500 
L 2247 1797 
L 3578 0 
L 2900 0 
L 1881 1375 
L 863 0 
L 184 0 
L 1544 1831 
L 300 3500 
L 978 3500 
L 1906 2253 
L 2834 3500 
L 3513 3500 
z
" transform="scale(0.015625)"/>
     <path id="DejaVuSans-4f" d="M 2522 4238 
Q 1834 4238 1429 3725 
Q 1025 3213 1025 2328 
Q 1025 1447 1429 934 
Q 1834 422 2522 422 
Q 3209 422 3611 934 
Q 4013 1447 4013 2328 
Q 4013 3213 3611 3725 
Q 3209 4238 2522 4238 
z
M 2522 4750 
Q 3503 4750 4090 4092 
Q 4678 3434 4678 2328 
Q 4678 1225 4090 567 
Q 3503 -91 2522 -91 
Q 1538 -91 948 565 
Q 359 1222 359 2328 
Q 359 3434 948 4092 
Q 1538 4750 2522 4750 
z
" transform="scale(0.015625)"/>
     <path id="DejaVuSans-77" d="M 269 3500 
L 844 3500 
L 1563 769 
L 2278 3500 
L 2956 3500 
L 3675 769 
L 4391 3500 
L 4966 3500 
L 4050 0 
L 3372 0 
L 2619 2869 
L 1863 0 
L 1184 0 
L 269 3500 
z
" transform="scale(0.015625)"/>
     <path id="DejaVuSans-44" d="M 1259 4147 
L 1259 519 
L 2022 519 
Q 2988 519 3436 956 
Q 3884 1394 3884 2338 
Q 3884 3275 3436 3711 
Q 2988 4147 2022 4147 
L 1259 4147 
z
M 628 4666 
L 1925 4666 
Q 3281 4666 3915 4102 
Q 4550 3538 4550 2338 
Q 4550 1131 3912 565 
Q 3275 0 1925 0 
L 628 0 
L 628 4666 
z
" transform="scale(0.015625)"/>
    </defs>
    <use xlink:href="#DejaVuSans-78"/>
    <use xlink:href="#DejaVuSans-30" x="59.179688"/>
    <use xlink:href="#DejaVuSans-78" x="122.802734"/>
    <use xlink:href="#DejaVuSans-31" x="181.982422"/>
    <use xlink:href="#DejaVuSans-2d" x="245.605469"/>
    <use xlink:href="#DejaVuSans-79" x="279.939453"/>
    <use xlink:href="#DejaVuSans-31" x="339.119141"/>
    <use xlink:href="#DejaVuSans-20" x="402.742188"/>
    <use xlink:href="#DejaVuSans-4f" x="434.529297"/>
    <use xlink:href="#DejaVuSans-6e" x="513.240234"/>
    <use xlink:href="#DejaVuSans-65" x="576.619141"/>
    <use xlink:href="#DejaVuSans-2d" x="638.142578"/>
    <use xlink:href="#DejaVuSans-74" x="674.226562"/>
    <use xlink:href="#DejaVuSans-6f" x="713.435547"/>
    <use xlink:href="#DejaVuSans-6e" x="774.617188"/>
    <use xlink:href="#DejaVuSans-65" x="837.996094"/>
    <use xlink:href="#DejaVuSans-2d" x="899.519531"/>
    <use xlink:href="#DejaVuSans-70" x="935.603516"/>
    <use xlink:href="#DejaVuSans-6f" x="999.080078"/>
    <use xlink:href="#DejaVuSans-77" x="1060.261719"/>
    <use xlink:href="#DejaVuSans-65" x="1142.048828"/>
    <use xlink:href="#DejaVuSans-72" x="1203.572266"/>
    <use xlink:href="#DejaVuSans-44" x="1244.685547"/>
    <use xlink:href="#DejaVuSans-65" x="1321.6875"/>
    <use xlink:href="#DejaVuSans-70" x="1383.210938"/>
   </g>
   <!-- tuid: 20240304-140207-676-fd3e7d -->
   <g transform="translate(115.365938 29.7555) scale(0.12 -0.12)">
    <defs>
     <path id="DejaVuSans-3a" d="M 750 794 
L 1409 794 
L 1409 0 
L 750 0 
L 750 794 
z
M 750 3309 
L 1409 3309 
L 1409 2516 
L 750 2516 
L 750 3309 
z
" transform="scale(0.015625)"/>
     <path id="DejaVuSans-66" d="M 2375 4863 
L 2375 4384 
L 1825 4384 
Q 1516 4384 1395 4259 
Q 1275 4134 1275 3809 
L 1275 3500 
L 2222 3500 
L 2222 3053 
L 1275 3053 
L 1275 0 
L 697 0 
L 697 3053 
L 147 3053 
L 147 3500 
L 697 3500 
L 697 3744 
Q 697 4328 969 4595 
Q 1241 4863 1831 4863 
L 2375 4863 
z
" transform="scale(0.015625)"/>
    </defs>
    <use xlink:href="#DejaVuSans-74"/>
    <use xlink:href="#DejaVuSans-75" x="39.208984"/>
    <use xlink:href="#DejaVuSans-69" x="102.587891"/>
    <use xlink:href="#DejaVuSans-64" x="130.371094"/>
    <use xlink:href="#DejaVuSans-3a" x="193.847656"/>
    <use xlink:href="#DejaVuSans-20" x="227.539062"/>
    <use xlink:href="#DejaVuSans-32" x="259.326172"/>
    <use xlink:href="#DejaVuSans-30" x="322.949219"/>
    <use xlink:href="#DejaVuSans-32" x="386.572266"/>
    <use xlink:href="#DejaVuSans-34" x="450.195312"/>
    <use xlink:href="#DejaVuSans-30" x="513.818359"/>
    <use xlink:href="#DejaVuSans-33" x="577.441406"/>
    <use xlink:href="#DejaVuSans-30" x="641.064453"/>
    <use xlink:href="#DejaVuSans-34" x="704.6875"/>
    <use xlink:href="#DejaVuSans-2d" x="768.310547"/>
    <use xlink:href="#DejaVuSans-31" x="804.394531"/>
    <use xlink:href="#DejaVuSans-34" x="868.017578"/>
    <use xlink:href="#DejaVuSans-30" x="931.640625"/>
    <use xlink:href="#DejaVuSans-32" x="995.263672"/>
    <use xlink:href="#DejaVuSans-30" x="1058.886719"/>
    <use xlink:href="#DejaVuSans-37" x="1122.509766"/>
    <use xlink:href="#DejaVuSans-2d" x="1186.132812"/>
    <use xlink:href="#DejaVuSans-36" x="1222.216797"/>
    <use xlink:href="#DejaVuSans-37" x="1285.839844"/>
    <use xlink:href="#DejaVuSans-36" x="1349.462891"/>
    <use xlink:href="#DejaVuSans-2d" x="1413.085938"/>
    <use xlink:href="#DejaVuSans-66" x="1449.169922"/>
    <use xlink:href="#DejaVuSans-64" x="1484.375"/>
    <use xlink:href="#DejaVuSans-33" x="1547.851562"/>
    <use xlink:href="#DejaVuSans-65" x="1611.474609"/>
    <use xlink:href="#DejaVuSans-37" x="1672.998047"/>
    <use xlink:href="#DejaVuSans-64" x="1736.621094"/>
   </g>
  </g>
 </g>
 <defs>
  <clipPath id="p75329b961c">
   <rect x="50.573438" y="41.76" width="357.12" height="266.112"/>
  </clipPath>
 </defs>
</svg>
