<?xml version="1.0" encoding="utf-8" standalone="no"?>
<!DOCTYPE svg PUBLIC "-//W3C//DTD SVG 1.1//EN"
  "http://www.w3.org/Graphics/SVG/1.1/DTD/svg11.dtd">
<svg xmlns:xlink="http://www.w3.org/1999/xlink" width="647.026pt" height="345.42825pt" viewBox="0 0 647.026 345.42825" xmlns="http://www.w3.org/2000/svg" version="1.1">
 <metadata>
  <rdf:RDF xmlns:dc="http://purl.org/dc/elements/1.1/" xmlns:cc="http://creativecommons.org/ns#" xmlns:rdf="http://www.w3.org/1999/02/22-rdf-syntax-ns#">
   <cc:Work>
    <dc:type rdf:resource="http://purl.org/dc/dcmitype/StillImage"/>
    <dc:date>2024-03-04T14:16:17.175719</dc:date>
    <dc:format>image/svg+xml</dc:format>
    <dc:creator>
     <cc:Agent>
      <dc:title>Matplotlib v3.8.2, https://matplotlib.org/</dc:title>
     </cc:Agent>
    </dc:creator>
   </cc:Work>
  </rdf:RDF>
 </metadata>
 <defs>
  <style type="text/css">*{stroke-linejoin: round; stroke-linecap: butt}</style>
 </defs>
 <g id="figure_1">
  <g id="patch_1">
   <path d="M 0 345.42825 
L 647.026 345.42825 
L 647.026 -0 
L 0 -0 
L 0 345.42825 
z
" style="fill: none; opacity: 0"/>
  </g>
  <g id="axes_1">
   <g id="patch_2">
    <path d="M 46.965625 307.872 
L 404.085625 307.872 
L 404.085625 41.76 
L 46.965625 41.76 
z
" style="fill: #ffffff"/>
   </g>
   <g id="matplotlib.axis_1">
    <g id="xtick_1">
     <g id="line2d_1">
      <defs>
       <path id="ma86a83fc06" d="M 0 0 
L 0 3.5 
" style="stroke: #000000; stroke-width: 0.8"/>
      </defs>
      <g>
       <use xlink:href="#ma86a83fc06" x="54.194386" y="307.872" style="stroke: #000000; stroke-width: 0.8"/>
      </g>
     </g>
     <g id="text_1">
      <!-- 524 -->
      <g transform="translate(44.650636 322.470438) scale(0.1 -0.1)">
       <defs>
        <path id="DejaVuSans-35" d="M 691 4666 
L 3169 4666 
L 3169 4134 
L 1269 4134 
L 1269 2991 
Q 1406 3038 1543 3061 
Q 1681 3084 1819 3084 
Q 2600 3084 3056 2656 
Q 3513 2228 3513 1497 
Q 3513 744 3044 326 
Q 2575 -91 1722 -91 
Q 1428 -91 1123 -41 
Q 819 9 494 109 
L 494 744 
Q 775 591 1075 516 
Q 1375 441 1709 441 
Q 2250 441 2565 725 
Q 2881 1009 2881 1497 
Q 2881 1984 2565 2268 
Q 2250 2553 1709 2553 
Q 1456 2553 1204 2497 
Q 953 2441 691 2322 
L 691 4666 
z
" transform="scale(0.015625)"/>
        <path id="DejaVuSans-32" d="M 1228 531 
L 3431 531 
L 3431 0 
L 469 0 
L 469 531 
Q 828 903 1448 1529 
Q 2069 2156 2228 2338 
Q 2531 2678 2651 2914 
Q 2772 3150 2772 3378 
Q 2772 3750 2511 3984 
Q 2250 4219 1831 4219 
Q 1534 4219 1204 4116 
Q 875 4013 500 3803 
L 500 4441 
Q 881 4594 1212 4672 
Q 1544 4750 1819 4750 
Q 2544 4750 2975 4387 
Q 3406 4025 3406 3419 
Q 3406 3131 3298 2873 
Q 3191 2616 2906 2266 
Q 2828 2175 2409 1742 
Q 1991 1309 1228 531 
z
" transform="scale(0.015625)"/>
        <path id="DejaVuSans-34" d="M 2419 4116 
L 825 1625 
L 2419 1625 
L 2419 4116 
z
M 2253 4666 
L 3047 4666 
L 3047 1625 
L 3713 1625 
L 3713 1100 
L 3047 1100 
L 3047 0 
L 2419 0 
L 2419 1100 
L 313 1100 
L 313 1709 
L 2253 4666 
z
" transform="scale(0.015625)"/>
       </defs>
       <use xlink:href="#DejaVuSans-35"/>
       <use xlink:href="#DejaVuSans-32" x="63.623047"/>
       <use xlink:href="#DejaVuSans-34" x="127.246094"/>
      </g>
     </g>
    </g>
    <g id="xtick_2">
     <g id="line2d_2">
      <g>
       <use xlink:href="#ma86a83fc06" x="108.303477" y="307.872" style="stroke: #000000; stroke-width: 0.8"/>
      </g>
     </g>
     <g id="text_2">
      <!-- 525 -->
      <g transform="translate(98.759727 322.470438) scale(0.1 -0.1)">
       <use xlink:href="#DejaVuSans-35"/>
       <use xlink:href="#DejaVuSans-32" x="63.623047"/>
       <use xlink:href="#DejaVuSans-35" x="127.246094"/>
      </g>
     </g>
    </g>
    <g id="xtick_3">
     <g id="line2d_3">
      <g>
       <use xlink:href="#ma86a83fc06" x="162.412568" y="307.872" style="stroke: #000000; stroke-width: 0.8"/>
      </g>
     </g>
     <g id="text_3">
      <!-- 526 -->
      <g transform="translate(152.868818 322.470438) scale(0.1 -0.1)">
       <defs>
        <path id="DejaVuSans-36" d="M 2113 2584 
Q 1688 2584 1439 2293 
Q 1191 2003 1191 1497 
Q 1191 994 1439 701 
Q 1688 409 2113 409 
Q 2538 409 2786 701 
Q 3034 994 3034 1497 
Q 3034 2003 2786 2293 
Q 2538 2584 2113 2584 
z
M 3366 4563 
L 3366 3988 
Q 3128 4100 2886 4159 
Q 2644 4219 2406 4219 
Q 1781 4219 1451 3797 
Q 1122 3375 1075 2522 
Q 1259 2794 1537 2939 
Q 1816 3084 2150 3084 
Q 2853 3084 3261 2657 
Q 3669 2231 3669 1497 
Q 3669 778 3244 343 
Q 2819 -91 2113 -91 
Q 1303 -91 875 529 
Q 447 1150 447 2328 
Q 447 3434 972 4092 
Q 1497 4750 2381 4750 
Q 2619 4750 2861 4703 
Q 3103 4656 3366 4563 
z
" transform="scale(0.015625)"/>
       </defs>
       <use xlink:href="#DejaVuSans-35"/>
       <use xlink:href="#DejaVuSans-32" x="63.623047"/>
       <use xlink:href="#DejaVuSans-36" x="127.246094"/>
      </g>
     </g>
    </g>
    <g id="xtick_4">
     <g id="line2d_4">
      <g>
       <use xlink:href="#ma86a83fc06" x="216.521659" y="307.872" style="stroke: #000000; stroke-width: 0.8"/>
      </g>
     </g>
     <g id="text_4">
      <!-- 527 -->
      <g transform="translate(206.977909 322.470438) scale(0.1 -0.1)">
       <defs>
        <path id="DejaVuSans-37" d="M 525 4666 
L 3525 4666 
L 3525 4397 
L 1831 0 
L 1172 0 
L 2766 4134 
L 525 4134 
L 525 4666 
z
" transform="scale(0.015625)"/>
       </defs>
       <use xlink:href="#DejaVuSans-35"/>
       <use xlink:href="#DejaVuSans-32" x="63.623047"/>
       <use xlink:href="#DejaVuSans-37" x="127.246094"/>
      </g>
     </g>
    </g>
    <g id="xtick_5">
     <g id="line2d_5">
      <g>
       <use xlink:href="#ma86a83fc06" x="270.630749" y="307.872" style="stroke: #000000; stroke-width: 0.8"/>
      </g>
     </g>
     <g id="text_5">
      <!-- 528 -->
      <g transform="translate(261.086999 322.470438) scale(0.1 -0.1)">
       <defs>
        <path id="DejaVuSans-38" d="M 2034 2216 
Q 1584 2216 1326 1975 
Q 1069 1734 1069 1313 
Q 1069 891 1326 650 
Q 1584 409 2034 409 
Q 2484 409 2743 651 
Q 3003 894 3003 1313 
Q 3003 1734 2745 1975 
Q 2488 2216 2034 2216 
z
M 1403 2484 
Q 997 2584 770 2862 
Q 544 3141 544 3541 
Q 544 4100 942 4425 
Q 1341 4750 2034 4750 
Q 2731 4750 3128 4425 
Q 3525 4100 3525 3541 
Q 3525 3141 3298 2862 
Q 3072 2584 2669 2484 
Q 3125 2378 3379 2068 
Q 3634 1759 3634 1313 
Q 3634 634 3220 271 
Q 2806 -91 2034 -91 
Q 1263 -91 848 271 
Q 434 634 434 1313 
Q 434 1759 690 2068 
Q 947 2378 1403 2484 
z
M 1172 3481 
Q 1172 3119 1398 2916 
Q 1625 2713 2034 2713 
Q 2441 2713 2670 2916 
Q 2900 3119 2900 3481 
Q 2900 3844 2670 4047 
Q 2441 4250 2034 4250 
Q 1625 4250 1398 4047 
Q 1172 3844 1172 3481 
z
" transform="scale(0.015625)"/>
       </defs>
       <use xlink:href="#DejaVuSans-35"/>
       <use xlink:href="#DejaVuSans-32" x="63.623047"/>
       <use xlink:href="#DejaVuSans-38" x="127.246094"/>
      </g>
     </g>
    </g>
    <g id="xtick_6">
     <g id="line2d_6">
      <g>
       <use xlink:href="#ma86a83fc06" x="324.73984" y="307.872" style="stroke: #000000; stroke-width: 0.8"/>
      </g>
     </g>
     <g id="text_6">
      <!-- 529 -->
      <g transform="translate(315.19609 322.470438) scale(0.1 -0.1)">
       <defs>
        <path id="DejaVuSans-39" d="M 703 97 
L 703 672 
Q 941 559 1184 500 
Q 1428 441 1663 441 
Q 2288 441 2617 861 
Q 2947 1281 2994 2138 
Q 2813 1869 2534 1725 
Q 2256 1581 1919 1581 
Q 1219 1581 811 2004 
Q 403 2428 403 3163 
Q 403 3881 828 4315 
Q 1253 4750 1959 4750 
Q 2769 4750 3195 4129 
Q 3622 3509 3622 2328 
Q 3622 1225 3098 567 
Q 2575 -91 1691 -91 
Q 1453 -91 1209 -44 
Q 966 3 703 97 
z
M 1959 2075 
Q 2384 2075 2632 2365 
Q 2881 2656 2881 3163 
Q 2881 3666 2632 3958 
Q 2384 4250 1959 4250 
Q 1534 4250 1286 3958 
Q 1038 3666 1038 3163 
Q 1038 2656 1286 2365 
Q 1534 2075 1959 2075 
z
" transform="scale(0.015625)"/>
       </defs>
       <use xlink:href="#DejaVuSans-35"/>
       <use xlink:href="#DejaVuSans-32" x="63.623047"/>
       <use xlink:href="#DejaVuSans-39" x="127.246094"/>
      </g>
     </g>
    </g>
    <g id="xtick_7">
     <g id="line2d_7">
      <g>
       <use xlink:href="#ma86a83fc06" x="378.848931" y="307.872" style="stroke: #000000; stroke-width: 0.8"/>
      </g>
     </g>
     <g id="text_7">
      <!-- 530 -->
      <g transform="translate(369.305181 322.470438) scale(0.1 -0.1)">
       <defs>
        <path id="DejaVuSans-33" d="M 2597 2516 
Q 3050 2419 3304 2112 
Q 3559 1806 3559 1356 
Q 3559 666 3084 287 
Q 2609 -91 1734 -91 
Q 1441 -91 1130 -33 
Q 819 25 488 141 
L 488 750 
Q 750 597 1062 519 
Q 1375 441 1716 441 
Q 2309 441 2620 675 
Q 2931 909 2931 1356 
Q 2931 1769 2642 2001 
Q 2353 2234 1838 2234 
L 1294 2234 
L 1294 2753 
L 1863 2753 
Q 2328 2753 2575 2939 
Q 2822 3125 2822 3475 
Q 2822 3834 2567 4026 
Q 2313 4219 1838 4219 
Q 1578 4219 1281 4162 
Q 984 4106 628 3988 
L 628 4550 
Q 988 4650 1302 4700 
Q 1616 4750 1894 4750 
Q 2613 4750 3031 4423 
Q 3450 4097 3450 3541 
Q 3450 3153 3228 2886 
Q 3006 2619 2597 2516 
z
" transform="scale(0.015625)"/>
        <path id="DejaVuSans-30" d="M 2034 4250 
Q 1547 4250 1301 3770 
Q 1056 3291 1056 2328 
Q 1056 1369 1301 889 
Q 1547 409 2034 409 
Q 2525 409 2770 889 
Q 3016 1369 3016 2328 
Q 3016 3291 2770 3770 
Q 2525 4250 2034 4250 
z
M 2034 4750 
Q 2819 4750 3233 4129 
Q 3647 3509 3647 2328 
Q 3647 1150 3233 529 
Q 2819 -91 2034 -91 
Q 1250 -91 836 529 
Q 422 1150 422 2328 
Q 422 3509 836 4129 
Q 1250 4750 2034 4750 
z
" transform="scale(0.015625)"/>
       </defs>
       <use xlink:href="#DejaVuSans-35"/>
       <use xlink:href="#DejaVuSans-33" x="63.623047"/>
       <use xlink:href="#DejaVuSans-30" x="127.246094"/>
      </g>
     </g>
    </g>
    <g id="text_8">
     <!-- Frequency [MHz] -->
     <g transform="translate(183.506875 336.148562) scale(0.1 -0.1)">
      <defs>
       <path id="DejaVuSans-46" d="M 628 4666 
L 3309 4666 
L 3309 4134 
L 1259 4134 
L 1259 2759 
L 3109 2759 
L 3109 2228 
L 1259 2228 
L 1259 0 
L 628 0 
L 628 4666 
z
" transform="scale(0.015625)"/>
       <path id="DejaVuSans-72" d="M 2631 2963 
Q 2534 3019 2420 3045 
Q 2306 3072 2169 3072 
Q 1681 3072 1420 2755 
Q 1159 2438 1159 1844 
L 1159 0 
L 581 0 
L 581 3500 
L 1159 3500 
L 1159 2956 
Q 1341 3275 1631 3429 
Q 1922 3584 2338 3584 
Q 2397 3584 2469 3576 
Q 2541 3569 2628 3553 
L 2631 2963 
z
" transform="scale(0.015625)"/>
       <path id="DejaVuSans-65" d="M 3597 1894 
L 3597 1613 
L 953 1613 
Q 991 1019 1311 708 
Q 1631 397 2203 397 
Q 2534 397 2845 478 
Q 3156 559 3463 722 
L 3463 178 
Q 3153 47 2828 -22 
Q 2503 -91 2169 -91 
Q 1331 -91 842 396 
Q 353 884 353 1716 
Q 353 2575 817 3079 
Q 1281 3584 2069 3584 
Q 2775 3584 3186 3129 
Q 3597 2675 3597 1894 
z
M 3022 2063 
Q 3016 2534 2758 2815 
Q 2500 3097 2075 3097 
Q 1594 3097 1305 2825 
Q 1016 2553 972 2059 
L 3022 2063 
z
" transform="scale(0.015625)"/>
       <path id="DejaVuSans-71" d="M 947 1747 
Q 947 1113 1208 752 
Q 1469 391 1925 391 
Q 2381 391 2643 752 
Q 2906 1113 2906 1747 
Q 2906 2381 2643 2742 
Q 2381 3103 1925 3103 
Q 1469 3103 1208 2742 
Q 947 2381 947 1747 
z
M 2906 525 
Q 2725 213 2448 61 
Q 2172 -91 1784 -91 
Q 1150 -91 751 415 
Q 353 922 353 1747 
Q 353 2572 751 3078 
Q 1150 3584 1784 3584 
Q 2172 3584 2448 3432 
Q 2725 3281 2906 2969 
L 2906 3500 
L 3481 3500 
L 3481 -1331 
L 2906 -1331 
L 2906 525 
z
" transform="scale(0.015625)"/>
       <path id="DejaVuSans-75" d="M 544 1381 
L 544 3500 
L 1119 3500 
L 1119 1403 
Q 1119 906 1312 657 
Q 1506 409 1894 409 
Q 2359 409 2629 706 
Q 2900 1003 2900 1516 
L 2900 3500 
L 3475 3500 
L 3475 0 
L 2900 0 
L 2900 538 
Q 2691 219 2414 64 
Q 2138 -91 1772 -91 
Q 1169 -91 856 284 
Q 544 659 544 1381 
z
M 1991 3584 
L 1991 3584 
z
" transform="scale(0.015625)"/>
       <path id="DejaVuSans-6e" d="M 3513 2113 
L 3513 0 
L 2938 0 
L 2938 2094 
Q 2938 2591 2744 2837 
Q 2550 3084 2163 3084 
Q 1697 3084 1428 2787 
Q 1159 2491 1159 1978 
L 1159 0 
L 581 0 
L 581 3500 
L 1159 3500 
L 1159 2956 
Q 1366 3272 1645 3428 
Q 1925 3584 2291 3584 
Q 2894 3584 3203 3211 
Q 3513 2838 3513 2113 
z
" transform="scale(0.015625)"/>
       <path id="DejaVuSans-63" d="M 3122 3366 
L 3122 2828 
Q 2878 2963 2633 3030 
Q 2388 3097 2138 3097 
Q 1578 3097 1268 2742 
Q 959 2388 959 1747 
Q 959 1106 1268 751 
Q 1578 397 2138 397 
Q 2388 397 2633 464 
Q 2878 531 3122 666 
L 3122 134 
Q 2881 22 2623 -34 
Q 2366 -91 2075 -91 
Q 1284 -91 818 406 
Q 353 903 353 1747 
Q 353 2603 823 3093 
Q 1294 3584 2113 3584 
Q 2378 3584 2631 3529 
Q 2884 3475 3122 3366 
z
" transform="scale(0.015625)"/>
       <path id="DejaVuSans-79" d="M 2059 -325 
Q 1816 -950 1584 -1140 
Q 1353 -1331 966 -1331 
L 506 -1331 
L 506 -850 
L 844 -850 
Q 1081 -850 1212 -737 
Q 1344 -625 1503 -206 
L 1606 56 
L 191 3500 
L 800 3500 
L 1894 763 
L 2988 3500 
L 3597 3500 
L 2059 -325 
z
" transform="scale(0.015625)"/>
       <path id="DejaVuSans-20" transform="scale(0.015625)"/>
       <path id="DejaVuSans-5b" d="M 550 4863 
L 1875 4863 
L 1875 4416 
L 1125 4416 
L 1125 -397 
L 1875 -397 
L 1875 -844 
L 550 -844 
L 550 4863 
z
" transform="scale(0.015625)"/>
       <path id="DejaVuSans-4d" d="M 628 4666 
L 1569 4666 
L 2759 1491 
L 3956 4666 
L 4897 4666 
L 4897 0 
L 4281 0 
L 4281 4097 
L 3078 897 
L 2444 897 
L 1241 4097 
L 1241 0 
L 628 0 
L 628 4666 
z
" transform="scale(0.015625)"/>
       <path id="DejaVuSans-48" d="M 628 4666 
L 1259 4666 
L 1259 2753 
L 3553 2753 
L 3553 4666 
L 4184 4666 
L 4184 0 
L 3553 0 
L 3553 2222 
L 1259 2222 
L 1259 0 
L 628 0 
L 628 4666 
z
" transform="scale(0.015625)"/>
       <path id="DejaVuSans-7a" d="M 353 3500 
L 3084 3500 
L 3084 2975 
L 922 459 
L 3084 459 
L 3084 0 
L 275 0 
L 275 525 
L 2438 3041 
L 353 3041 
L 353 3500 
z
" transform="scale(0.015625)"/>
       <path id="DejaVuSans-5d" d="M 1947 4863 
L 1947 -844 
L 622 -844 
L 622 -397 
L 1369 -397 
L 1369 4416 
L 622 4416 
L 622 4863 
L 1947 4863 
z
" transform="scale(0.015625)"/>
      </defs>
      <use xlink:href="#DejaVuSans-46"/>
      <use xlink:href="#DejaVuSans-72" x="50.269531"/>
      <use xlink:href="#DejaVuSans-65" x="89.132812"/>
      <use xlink:href="#DejaVuSans-71" x="150.65625"/>
      <use xlink:href="#DejaVuSans-75" x="214.132812"/>
      <use xlink:href="#DejaVuSans-65" x="277.511719"/>
      <use xlink:href="#DejaVuSans-6e" x="339.035156"/>
      <use xlink:href="#DejaVuSans-63" x="402.414062"/>
      <use xlink:href="#DejaVuSans-79" x="457.394531"/>
      <use xlink:href="#DejaVuSans-20" x="516.574219"/>
      <use xlink:href="#DejaVuSans-5b" x="548.361328"/>
      <use xlink:href="#DejaVuSans-4d" x="587.375"/>
      <use xlink:href="#DejaVuSans-48" x="673.654297"/>
      <use xlink:href="#DejaVuSans-7a" x="748.849609"/>
      <use xlink:href="#DejaVuSans-5d" x="801.339844"/>
     </g>
    </g>
    <g id="text_9">
     <!-- +5 GHz -->
     <g transform="translate(365.648125 335.148562) scale(0.1 -0.1)">
      <defs>
       <path id="DejaVuSans-2b" d="M 2944 4013 
L 2944 2272 
L 4684 2272 
L 4684 1741 
L 2944 1741 
L 2944 0 
L 2419 0 
L 2419 1741 
L 678 1741 
L 678 2272 
L 2419 2272 
L 2419 4013 
L 2944 4013 
z
" transform="scale(0.015625)"/>
       <path id="DejaVuSans-47" d="M 3809 666 
L 3809 1919 
L 2778 1919 
L 2778 2438 
L 4434 2438 
L 4434 434 
Q 4069 175 3628 42 
Q 3188 -91 2688 -91 
Q 1594 -91 976 548 
Q 359 1188 359 2328 
Q 359 3472 976 4111 
Q 1594 4750 2688 4750 
Q 3144 4750 3555 4637 
Q 3966 4525 4313 4306 
L 4313 3634 
Q 3963 3931 3569 4081 
Q 3175 4231 2741 4231 
Q 1884 4231 1454 3753 
Q 1025 3275 1025 2328 
Q 1025 1384 1454 906 
Q 1884 428 2741 428 
Q 3075 428 3337 486 
Q 3600 544 3809 666 
z
" transform="scale(0.015625)"/>
      </defs>
      <use xlink:href="#DejaVuSans-2b"/>
      <use xlink:href="#DejaVuSans-35" x="83.789062"/>
      <use xlink:href="#DejaVuSans-20" x="147.412109"/>
      <use xlink:href="#DejaVuSans-47" x="179.199219"/>
      <use xlink:href="#DejaVuSans-48" x="256.689453"/>
      <use xlink:href="#DejaVuSans-7a" x="331.884766"/>
     </g>
    </g>
   </g>
   <g id="matplotlib.axis_2">
    <g id="ytick_1">
     <g id="line2d_8">
      <defs>
       <path id="m8f96f27370" d="M 0 0 
L -3.5 0 
" style="stroke: #000000; stroke-width: 0.8"/>
      </defs>
      <g>
       <use xlink:href="#m8f96f27370" x="46.965625" y="299.155727" style="stroke: #000000; stroke-width: 0.8"/>
      </g>
     </g>
     <g id="text_10">
      <!-- 0 -->
      <g transform="translate(33.603125 302.954945) scale(0.1 -0.1)">
       <use xlink:href="#DejaVuSans-30"/>
      </g>
     </g>
    </g>
    <g id="ytick_2">
     <g id="line2d_9">
      <g>
       <use xlink:href="#m8f96f27370" x="46.965625" y="267.97229" style="stroke: #000000; stroke-width: 0.8"/>
      </g>
     </g>
     <g id="text_11">
      <!-- 50 -->
      <g transform="translate(27.240625 271.771508) scale(0.1 -0.1)">
       <use xlink:href="#DejaVuSans-35"/>
       <use xlink:href="#DejaVuSans-30" x="63.623047"/>
      </g>
     </g>
    </g>
    <g id="ytick_3">
     <g id="line2d_10">
      <g>
       <use xlink:href="#m8f96f27370" x="46.965625" y="236.788853" style="stroke: #000000; stroke-width: 0.8"/>
      </g>
     </g>
     <g id="text_12">
      <!-- 100 -->
      <g transform="translate(20.878125 240.588071) scale(0.1 -0.1)">
       <defs>
        <path id="DejaVuSans-31" d="M 794 531 
L 1825 531 
L 1825 4091 
L 703 3866 
L 703 4441 
L 1819 4666 
L 2450 4666 
L 2450 531 
L 3481 531 
L 3481 0 
L 794 0 
L 794 531 
z
" transform="scale(0.015625)"/>
       </defs>
       <use xlink:href="#DejaVuSans-31"/>
       <use xlink:href="#DejaVuSans-30" x="63.623047"/>
       <use xlink:href="#DejaVuSans-30" x="127.246094"/>
      </g>
     </g>
    </g>
    <g id="ytick_4">
     <g id="line2d_11">
      <g>
       <use xlink:href="#m8f96f27370" x="46.965625" y="205.605415" style="stroke: #000000; stroke-width: 0.8"/>
      </g>
     </g>
     <g id="text_13">
      <!-- 150 -->
      <g transform="translate(20.878125 209.404634) scale(0.1 -0.1)">
       <use xlink:href="#DejaVuSans-31"/>
       <use xlink:href="#DejaVuSans-35" x="63.623047"/>
       <use xlink:href="#DejaVuSans-30" x="127.246094"/>
      </g>
     </g>
    </g>
    <g id="ytick_5">
     <g id="line2d_12">
      <g>
       <use xlink:href="#m8f96f27370" x="46.965625" y="174.421978" style="stroke: #000000; stroke-width: 0.8"/>
      </g>
     </g>
     <g id="text_14">
      <!-- 200 -->
      <g transform="translate(20.878125 178.221197) scale(0.1 -0.1)">
       <use xlink:href="#DejaVuSans-32"/>
       <use xlink:href="#DejaVuSans-30" x="63.623047"/>
       <use xlink:href="#DejaVuSans-30" x="127.246094"/>
      </g>
     </g>
    </g>
    <g id="ytick_6">
     <g id="line2d_13">
      <g>
       <use xlink:href="#m8f96f27370" x="46.965625" y="143.238541" style="stroke: #000000; stroke-width: 0.8"/>
      </g>
     </g>
     <g id="text_15">
      <!-- 250 -->
      <g transform="translate(20.878125 147.03776) scale(0.1 -0.1)">
       <use xlink:href="#DejaVuSans-32"/>
       <use xlink:href="#DejaVuSans-35" x="63.623047"/>
       <use xlink:href="#DejaVuSans-30" x="127.246094"/>
      </g>
     </g>
    </g>
    <g id="ytick_7">
     <g id="line2d_14">
      <g>
       <use xlink:href="#m8f96f27370" x="46.965625" y="112.055104" style="stroke: #000000; stroke-width: 0.8"/>
      </g>
     </g>
     <g id="text_16">
      <!-- 300 -->
      <g transform="translate(20.878125 115.854323) scale(0.1 -0.1)">
       <use xlink:href="#DejaVuSans-33"/>
       <use xlink:href="#DejaVuSans-30" x="63.623047"/>
       <use xlink:href="#DejaVuSans-30" x="127.246094"/>
      </g>
     </g>
    </g>
    <g id="ytick_8">
     <g id="line2d_15">
      <g>
       <use xlink:href="#m8f96f27370" x="46.965625" y="80.871667" style="stroke: #000000; stroke-width: 0.8"/>
      </g>
     </g>
     <g id="text_17">
      <!-- 350 -->
      <g transform="translate(20.878125 84.670886) scale(0.1 -0.1)">
       <use xlink:href="#DejaVuSans-33"/>
       <use xlink:href="#DejaVuSans-35" x="63.623047"/>
       <use xlink:href="#DejaVuSans-30" x="127.246094"/>
      </g>
     </g>
    </g>
    <g id="ytick_9">
     <g id="line2d_16">
      <g>
       <use xlink:href="#m8f96f27370" x="46.965625" y="49.68823" style="stroke: #000000; stroke-width: 0.8"/>
      </g>
     </g>
     <g id="text_18">
      <!-- 400 -->
      <g transform="translate(20.878125 53.487449) scale(0.1 -0.1)">
       <use xlink:href="#DejaVuSans-34"/>
       <use xlink:href="#DejaVuSans-30" x="63.623047"/>
       <use xlink:href="#DejaVuSans-30" x="127.246094"/>
      </g>
     </g>
    </g>
    <g id="text_19">
     <!-- Magnitude0 [μV] -->
     <g transform="translate(14.798438 216.579281) rotate(-90) scale(0.1 -0.1)">
      <defs>
       <path id="DejaVuSans-61" d="M 2194 1759 
Q 1497 1759 1228 1600 
Q 959 1441 959 1056 
Q 959 750 1161 570 
Q 1363 391 1709 391 
Q 2188 391 2477 730 
Q 2766 1069 2766 1631 
L 2766 1759 
L 2194 1759 
z
M 3341 1997 
L 3341 0 
L 2766 0 
L 2766 531 
Q 2569 213 2275 61 
Q 1981 -91 1556 -91 
Q 1019 -91 701 211 
Q 384 513 384 1019 
Q 384 1609 779 1909 
Q 1175 2209 1959 2209 
L 2766 2209 
L 2766 2266 
Q 2766 2663 2505 2880 
Q 2244 3097 1772 3097 
Q 1472 3097 1187 3025 
Q 903 2953 641 2809 
L 641 3341 
Q 956 3463 1253 3523 
Q 1550 3584 1831 3584 
Q 2591 3584 2966 3190 
Q 3341 2797 3341 1997 
z
" transform="scale(0.015625)"/>
       <path id="DejaVuSans-67" d="M 2906 1791 
Q 2906 2416 2648 2759 
Q 2391 3103 1925 3103 
Q 1463 3103 1205 2759 
Q 947 2416 947 1791 
Q 947 1169 1205 825 
Q 1463 481 1925 481 
Q 2391 481 2648 825 
Q 2906 1169 2906 1791 
z
M 3481 434 
Q 3481 -459 3084 -895 
Q 2688 -1331 1869 -1331 
Q 1566 -1331 1297 -1286 
Q 1028 -1241 775 -1147 
L 775 -588 
Q 1028 -725 1275 -790 
Q 1522 -856 1778 -856 
Q 2344 -856 2625 -561 
Q 2906 -266 2906 331 
L 2906 616 
Q 2728 306 2450 153 
Q 2172 0 1784 0 
Q 1141 0 747 490 
Q 353 981 353 1791 
Q 353 2603 747 3093 
Q 1141 3584 1784 3584 
Q 2172 3584 2450 3431 
Q 2728 3278 2906 2969 
L 2906 3500 
L 3481 3500 
L 3481 434 
z
" transform="scale(0.015625)"/>
       <path id="DejaVuSans-69" d="M 603 3500 
L 1178 3500 
L 1178 0 
L 603 0 
L 603 3500 
z
M 603 4863 
L 1178 4863 
L 1178 4134 
L 603 4134 
L 603 4863 
z
" transform="scale(0.015625)"/>
       <path id="DejaVuSans-74" d="M 1172 4494 
L 1172 3500 
L 2356 3500 
L 2356 3053 
L 1172 3053 
L 1172 1153 
Q 1172 725 1289 603 
Q 1406 481 1766 481 
L 2356 481 
L 2356 0 
L 1766 0 
Q 1100 0 847 248 
Q 594 497 594 1153 
L 594 3053 
L 172 3053 
L 172 3500 
L 594 3500 
L 594 4494 
L 1172 4494 
z
" transform="scale(0.015625)"/>
       <path id="DejaVuSans-64" d="M 2906 2969 
L 2906 4863 
L 3481 4863 
L 3481 0 
L 2906 0 
L 2906 525 
Q 2725 213 2448 61 
Q 2172 -91 1784 -91 
Q 1150 -91 751 415 
Q 353 922 353 1747 
Q 353 2572 751 3078 
Q 1150 3584 1784 3584 
Q 2172 3584 2448 3432 
Q 2725 3281 2906 2969 
z
M 947 1747 
Q 947 1113 1208 752 
Q 1469 391 1925 391 
Q 2381 391 2643 752 
Q 2906 1113 2906 1747 
Q 2906 2381 2643 2742 
Q 2381 3103 1925 3103 
Q 1469 3103 1208 2742 
Q 947 2381 947 1747 
z
" transform="scale(0.015625)"/>
       <path id="DejaVuSans-3bc" d="M 544 -1331 
L 544 3500 
L 1119 3500 
L 1119 1325 
Q 1119 872 1334 640 
Q 1550 409 1972 409 
Q 2434 409 2667 671 
Q 2900 934 2900 1459 
L 2900 3500 
L 3475 3500 
L 3475 806 
Q 3475 619 3529 530 
Q 3584 441 3700 441 
Q 3728 441 3778 458 
Q 3828 475 3916 513 
L 3916 50 
Q 3788 -22 3673 -56 
Q 3559 -91 3450 -91 
Q 3234 -91 3106 31 
Q 2978 153 2931 403 
Q 2775 156 2548 32 
Q 2322 -91 2016 -91 
Q 1697 -91 1473 31 
Q 1250 153 1119 397 
L 1119 -1331 
L 544 -1331 
z
" transform="scale(0.015625)"/>
       <path id="DejaVuSans-56" d="M 1831 0 
L 50 4666 
L 709 4666 
L 2188 738 
L 3669 4666 
L 4325 4666 
L 2547 0 
L 1831 0 
z
" transform="scale(0.015625)"/>
      </defs>
      <use xlink:href="#DejaVuSans-4d"/>
      <use xlink:href="#DejaVuSans-61" x="86.279297"/>
      <use xlink:href="#DejaVuSans-67" x="147.558594"/>
      <use xlink:href="#DejaVuSans-6e" x="211.035156"/>
      <use xlink:href="#DejaVuSans-69" x="274.414062"/>
      <use xlink:href="#DejaVuSans-74" x="302.197266"/>
      <use xlink:href="#DejaVuSans-75" x="341.40625"/>
      <use xlink:href="#DejaVuSans-64" x="404.785156"/>
      <use xlink:href="#DejaVuSans-65" x="468.261719"/>
      <use xlink:href="#DejaVuSans-30" x="529.785156"/>
      <use xlink:href="#DejaVuSans-20" x="593.408203"/>
      <use xlink:href="#DejaVuSans-5b" x="625.195312"/>
      <use xlink:href="#DejaVuSans-3bc" x="664.208984"/>
      <use xlink:href="#DejaVuSans-56" x="727.832031"/>
      <use xlink:href="#DejaVuSans-5d" x="796.240234"/>
     </g>
    </g>
   </g>
   <g id="line2d_17">
    <path d="M 63.198352 293.002877 
L 74.393337 295.655568 
L 85.588321 294.920321 
L 96.783305 295.46484 
L 107.97829 295.776 
L 119.173274 293.195951 
L 130.368258 290.807133 
L 141.563243 287.382966 
L 152.758227 284.912351 
L 163.953211 281.316379 
L 175.148196 276.413871 
L 186.34318 271.784264 
L 197.538164 266.215635 
L 208.733149 263.39932 
L 219.928133 263.102065 
L 231.123117 268.046584 
L 242.318101 272.015054 
L 253.513086 279.268917 
L 264.70807 282.529665 
L 275.903054 282.731975 
L 287.098039 281.171176 
L 298.293023 280.024992 
L 309.488007 278.099311 
L 320.682992 278.652334 
L 331.877976 275.050032 
L 343.07296 275.417979 
L 354.267945 273.716584 
L 365.462929 271.145434 
L 376.657913 270.697982 
L 387.852898 268.459225 
" clip-path="url(#pe5d430888e)" style="fill: none; stroke: #440154; stroke-width: 1.5; stroke-linecap: square"/>
   </g>
   <g id="line2d_18">
    <path d="M 63.198352 291.363522 
L 74.393337 292.35424 
L 85.588321 293.962855 
L 96.783305 294.501727 
L 107.97829 293.500912 
L 119.173274 290.210876 
L 130.368258 287.660907 
L 141.563243 283.869913 
L 152.758227 281.389528 
L 163.953211 278.216123 
L 175.148196 273.426353 
L 186.34318 267.648476 
L 197.538164 260.483965 
L 208.733149 259.252432 
L 219.928133 255.946512 
L 231.123117 261.36319 
L 242.318101 266.610705 
L 253.513086 274.610592 
L 264.70807 278.490959 
L 275.903054 279.836866 
L 287.098039 279.341377 
L 298.293023 276.501811 
L 309.488007 277.853592 
L 320.682992 271.833494 
L 331.877976 271.503491 
L 343.07296 268.846326 
L 354.267945 266.971863 
L 365.462929 265.305175 
L 376.657913 261.77827 
L 387.852898 264.443105 
" clip-path="url(#pe5d430888e)" style="fill: none; stroke: #470d60; stroke-width: 1.5; stroke-linecap: square"/>
   </g>
   <g id="line2d_19">
    <path d="M 63.198352 287.351426 
L 74.393337 290.933513 
L 85.588321 293.384254 
L 96.783305 292.89054 
L 107.97829 292.424038 
L 119.173274 286.627356 
L 130.368258 285.995088 
L 141.563243 283.52427 
L 152.758227 278.089832 
L 163.953211 273.012463 
L 175.148196 269.173998 
L 186.34318 262.534244 
L 197.538164 253.24476 
L 208.733149 251.657344 
L 219.928133 247.160918 
L 231.123117 254.397688 
L 242.318101 261.57114 
L 253.513086 270.03877 
L 264.70807 274.813302 
L 275.903054 277.704178 
L 287.098039 276.769961 
L 298.293023 275.405432 
L 309.488007 271.074169 
L 320.682992 268.449247 
L 331.877976 266.06905 
L 343.07296 265.797268 
L 354.267945 262.812942 
L 365.462929 260.447317 
L 376.657913 259.319482 
L 387.852898 256.845487 
" clip-path="url(#pe5d430888e)" style="fill: none; stroke: #481a6c; stroke-width: 1.5; stroke-linecap: square"/>
   </g>
   <g id="line2d_20">
    <path d="M 63.198352 286.227891 
L 74.393337 289.488424 
L 85.588321 289.711953 
L 96.783305 291.283143 
L 107.97829 290.400697 
L 119.173274 287.186048 
L 130.368258 283.475936 
L 141.563243 280.920279 
L 152.758227 275.687587 
L 163.953211 269.460391 
L 175.148196 263.841033 
L 186.34318 257.03253 
L 197.538164 251.006242 
L 208.733149 245.087655 
L 219.928133 241.140764 
L 231.123117 246.012108 
L 242.318101 258.623897 
L 253.513086 266.894833 
L 264.70807 273.838615 
L 275.903054 274.937989 
L 287.098039 275.202376 
L 298.293023 272.132832 
L 309.488007 266.725572 
L 320.682992 265.946711 
L 331.877976 262.273609 
L 343.07296 259.659117 
L 354.267945 259.137174 
L 365.462929 256.074003 
L 376.657913 253.338847 
L 387.852898 249.419836 
" clip-path="url(#pe5d430888e)" style="fill: none; stroke: #482576; stroke-width: 1.5; stroke-linecap: square"/>
   </g>
   <g id="line2d_21">
    <path d="M 63.198352 284.38004 
L 74.393337 289.262921 
L 85.588321 288.69059 
L 96.783305 290.264986 
L 107.97829 286.069682 
L 119.173274 286.175679 
L 130.368258 282.435482 
L 141.563243 277.344775 
L 152.758227 270.765821 
L 163.953211 265.273808 
L 175.148196 259.020541 
L 186.34318 252.440417 
L 197.538164 244.444875 
L 208.733149 236.787503 
L 219.928133 235.558893 
L 231.123117 241.465707 
L 242.318101 254.460445 
L 253.513086 265.274992 
L 264.70807 269.486622 
L 275.903054 270.144705 
L 287.098039 269.231195 
L 298.293023 267.959398 
L 309.488007 263.180227 
L 320.682992 260.406517 
L 331.877976 258.745397 
L 343.07296 255.622239 
L 354.267945 251.071824 
L 365.462929 249.925909 
L 376.657913 247.677325 
L 387.852898 243.568729 
" clip-path="url(#pe5d430888e)" style="fill: none; stroke: #46307e; stroke-width: 1.5; stroke-linecap: square"/>
   </g>
   <g id="line2d_22">
    <path d="M 63.198352 285.132439 
L 74.393337 286.676656 
L 85.588321 288.768367 
L 96.783305 289.074523 
L 107.97829 286.889633 
L 119.173274 286.025423 
L 130.368258 282.693678 
L 141.563243 275.462584 
L 152.758227 270.347619 
L 163.953211 261.936107 
L 175.148196 254.635279 
L 186.34318 246.629831 
L 197.538164 237.087539 
L 208.733149 228.743095 
L 219.928133 228.155682 
L 231.123117 235.541904 
L 242.318101 248.457385 
L 253.513086 259.165903 
L 264.70807 266.085759 
L 275.903054 267.749196 
L 287.098039 265.851052 
L 298.293023 262.198231 
L 309.488007 258.471106 
L 320.682992 256.476241 
L 331.877976 251.520264 
L 343.07296 247.701871 
L 354.267945 245.174575 
L 365.462929 242.680929 
L 376.657913 240.556902 
L 387.852898 237.885213 
" clip-path="url(#pe5d430888e)" style="fill: none; stroke: #443b84; stroke-width: 1.5; stroke-linecap: square"/>
   </g>
   <g id="line2d_23">
    <path d="M 63.198352 280.35039 
L 74.393337 285.324489 
L 85.588321 287.042351 
L 96.783305 287.645091 
L 107.97829 286.25547 
L 119.173274 285.416249 
L 130.368258 277.880878 
L 141.563243 273.345036 
L 152.758227 265.31138 
L 163.953211 260.173303 
L 175.148196 249.677799 
L 186.34318 240.531844 
L 197.538164 229.288432 
L 208.733149 220.656692 
L 219.928133 219.922021 
L 231.123117 228.445527 
L 242.318101 243.019798 
L 253.513086 256.194674 
L 264.70807 262.956026 
L 275.903054 263.589007 
L 287.098039 261.688953 
L 298.293023 260.728705 
L 309.488007 256.284308 
L 320.682992 250.527722 
L 331.877976 247.062476 
L 343.07296 244.512625 
L 354.267945 240.68081 
L 365.462929 237.63432 
L 376.657913 234.687962 
L 387.852898 232.238406 
" clip-path="url(#pe5d430888e)" style="fill: none; stroke: #404588; stroke-width: 1.5; stroke-linecap: square"/>
   </g>
   <g id="line2d_24">
    <path d="M 63.198352 278.125985 
L 74.393337 281.996308 
L 85.588321 284.221409 
L 96.783305 286.688497 
L 107.97829 284.256869 
L 119.173274 284.109219 
L 130.368258 277.183449 
L 141.563243 270.51789 
L 152.758227 266.936957 
L 163.953211 258.016824 
L 175.148196 246.333791 
L 186.34318 235.268618 
L 197.538164 224.630302 
L 208.733149 215.009839 
L 219.928133 213.547119 
L 231.123117 226.036949 
L 242.318101 237.218452 
L 253.513086 251.28616 
L 264.70807 260.6821 
L 275.903054 263.131966 
L 287.098039 259.181081 
L 298.293023 258.291687 
L 309.488007 253.149854 
L 320.682992 249.31116 
L 331.877976 245.402695 
L 343.07296 239.656867 
L 354.267945 234.806314 
L 365.462929 234.792296 
L 376.657913 227.151271 
L 387.852898 224.443899 
" clip-path="url(#pe5d430888e)" style="fill: none; stroke: #3c4f8a; stroke-width: 1.5; stroke-linecap: square"/>
   </g>
   <g id="line2d_25">
    <path d="M 63.198352 276.279412 
L 74.393337 280.908324 
L 85.588321 282.989933 
L 96.783305 284.797447 
L 107.97829 286.086337 
L 119.173274 280.991715 
L 130.368258 274.19248 
L 141.563243 267.948957 
L 152.758227 260.652277 
L 163.953211 252.647733 
L 175.148196 242.041318 
L 186.34318 229.258079 
L 197.538164 217.297533 
L 208.733149 209.262511 
L 219.928133 203.986776 
L 231.123117 217.014468 
L 242.318101 236.304665 
L 253.513086 250.297741 
L 264.70807 257.291927 
L 275.903054 257.645581 
L 287.098039 256.229139 
L 298.293023 252.284581 
L 309.488007 250.48791 
L 320.682992 244.050728 
L 331.877976 239.539195 
L 343.07296 235.512764 
L 354.267945 230.877932 
L 365.462929 229.090778 
L 376.657913 223.708838 
L 387.852898 221.61201 
" clip-path="url(#pe5d430888e)" style="fill: none; stroke: #38598c; stroke-width: 1.5; stroke-linecap: square"/>
   </g>
   <g id="line2d_26">
    <path d="M 63.198352 277.157529 
L 74.393337 280.793349 
L 85.588321 281.87063 
L 96.783305 286.302322 
L 107.97829 280.130989 
L 119.173274 275.783614 
L 130.368258 271.270267 
L 141.563243 267.257714 
L 152.758227 258.71504 
L 163.953211 249.531789 
L 175.148196 238.132841 
L 186.34318 223.134388 
L 197.538164 210.555042 
L 208.733149 199.498057 
L 219.928133 200.123431 
L 231.123117 211.818879 
L 242.318101 230.958486 
L 253.513086 244.9863 
L 264.70807 253.088206 
L 275.903054 255.93424 
L 287.098039 251.885708 
L 298.293023 248.949828 
L 309.488007 245.208758 
L 320.682992 240.41647 
L 331.877976 236.153088 
L 343.07296 229.311544 
L 354.267945 226.287977 
L 365.462929 222.023359 
L 376.657913 216.98776 
L 387.852898 214.268153 
" clip-path="url(#pe5d430888e)" style="fill: none; stroke: #33628d; stroke-width: 1.5; stroke-linecap: square"/>
   </g>
   <g id="line2d_27">
    <path d="M 63.198352 274.062868 
L 74.393337 277.681771 
L 85.588321 281.266186 
L 96.783305 280.818882 
L 107.97829 279.842346 
L 119.173274 274.832531 
L 130.368258 269.736965 
L 141.563243 264.643644 
L 152.758227 254.37327 
L 163.953211 244.460223 
L 175.148196 233.563189 
L 186.34318 218.840836 
L 197.538164 204.09825 
L 208.733149 194.530075 
L 219.928133 192.373504 
L 231.123117 200.953281 
L 242.318101 223.930557 
L 253.513086 241.017714 
L 264.70807 250.305614 
L 275.903054 252.694124 
L 287.098039 251.257308 
L 298.293023 244.442843 
L 309.488007 241.083081 
L 320.682992 235.314716 
L 331.877976 228.163673 
L 343.07296 225.020356 
L 354.267945 220.97972 
L 365.462929 214.734119 
L 376.657913 209.93502 
L 387.852898 209.004788 
" clip-path="url(#pe5d430888e)" style="fill: none; stroke: #2f6b8e; stroke-width: 1.5; stroke-linecap: square"/>
   </g>
   <g id="line2d_28">
    <path d="M 63.198352 273.494072 
L 74.393337 277.024574 
L 85.588321 281.543697 
L 96.783305 281.714191 
L 107.97829 279.559233 
L 119.173274 274.714544 
L 130.368258 268.963164 
L 141.563243 262.155514 
L 152.758227 251.695511 
L 163.953211 239.252066 
L 175.148196 228.888162 
L 186.34318 214.425585 
L 197.538164 201.016629 
L 208.733149 187.151825 
L 219.928133 184.781802 
L 231.123117 199.567914 
L 242.318101 221.036494 
L 253.513086 239.273501 
L 264.70807 247.528815 
L 275.903054 250.719203 
L 287.098039 245.914761 
L 298.293023 241.188619 
L 309.488007 237.766967 
L 320.682992 230.462531 
L 331.877976 223.713539 
L 343.07296 221.252867 
L 354.267945 214.340536 
L 365.462929 208.917805 
L 376.657913 204.763515 
L 387.852898 202.263351 
" clip-path="url(#pe5d430888e)" style="fill: none; stroke: #2c738e; stroke-width: 1.5; stroke-linecap: square"/>
   </g>
   <g id="line2d_29">
    <path d="M 63.198352 270.861348 
L 74.393337 275.676024 
L 85.588321 277.396543 
L 96.783305 279.926514 
L 107.97829 279.212277 
L 119.173274 273.184004 
L 130.368258 266.762241 
L 141.563243 257.348808 
L 152.758227 248.107097 
L 163.953211 238.548608 
L 175.148196 225.569075 
L 186.34318 210.556283 
L 197.538164 193.610986 
L 208.733149 178.124014 
L 219.928133 180.963189 
L 231.123117 192.759228 
L 242.318101 213.714007 
L 253.513086 233.828835 
L 264.70807 243.297224 
L 275.903054 247.371308 
L 287.098039 244.887486 
L 298.293023 237.891438 
L 309.488007 232.005835 
L 320.682992 227.557689 
L 331.877976 220.996333 
L 343.07296 216.505408 
L 354.267945 210.312651 
L 365.462929 204.947641 
L 376.657913 200.600841 
L 387.852898 197.986722 
" clip-path="url(#pe5d430888e)" style="fill: none; stroke: #297b8e; stroke-width: 1.5; stroke-linecap: square"/>
   </g>
   <g id="line2d_30">
    <path d="M 63.198352 270.12671 
L 74.393337 272.798438 
L 85.588321 278.928517 
L 96.783305 279.668986 
L 107.97829 275.942511 
L 119.173274 272.324474 
L 130.368258 264.774169 
L 141.563243 253.658829 
L 152.758227 246.214354 
L 163.953211 233.632261 
L 175.148196 218.672627 
L 186.34318 202.738125 
L 197.538164 183.449701 
L 208.733149 171.778383 
L 219.928133 171.734033 
L 231.123117 189.364915 
L 242.318101 211.723786 
L 253.513086 232.293659 
L 264.70807 241.205578 
L 275.903054 242.38676 
L 287.098039 238.991807 
L 298.293023 236.073455 
L 309.488007 229.139796 
L 320.682992 222.562334 
L 331.877976 216.487991 
L 343.07296 210.081758 
L 354.267945 203.559208 
L 365.462929 198.589523 
L 376.657913 193.666309 
L 387.852898 189.554159 
" clip-path="url(#pe5d430888e)" style="fill: none; stroke: #25838e; stroke-width: 1.5; stroke-linecap: square"/>
   </g>
   <g id="line2d_31">
    <path d="M 63.198352 268.774253 
L 74.393337 275.83229 
L 85.588321 277.473233 
L 96.783305 278.494675 
L 107.97829 275.110261 
L 119.173274 270.684611 
L 130.368258 261.574026 
L 141.563243 251.06323 
L 152.758227 243.645361 
L 163.953211 229.129843 
L 175.148196 213.994887 
L 186.34318 199.281187 
L 197.538164 177.727545 
L 208.733149 166.532677 
L 219.928133 163.807643 
L 231.123117 181.514373 
L 242.318101 209.149282 
L 253.513086 226.255556 
L 264.70807 236.796371 
L 275.903054 238.494346 
L 287.098039 235.897523 
L 298.293023 234.244914 
L 309.488007 223.497681 
L 320.682992 217.77454 
L 331.877976 210.657027 
L 343.07296 206.550314 
L 354.267945 197.754005 
L 365.462929 194.327728 
L 376.657913 187.586987 
L 387.852898 185.221121 
" clip-path="url(#pe5d430888e)" style="fill: none; stroke: #228c8d; stroke-width: 1.5; stroke-linecap: square"/>
   </g>
   <g id="line2d_32">
    <path d="M 63.198352 265.23461 
L 74.393337 272.234278 
L 85.588321 275.277005 
L 96.783305 276.937019 
L 107.97829 274.40853 
L 119.173274 268.193184 
L 130.368258 259.387097 
L 141.563243 249.632604 
L 152.758227 237.681337 
L 163.953211 224.261373 
L 175.148196 207.335087 
L 186.34318 192.545014 
L 197.538164 172.688727 
L 208.733149 157.748339 
L 219.928133 157.725133 
L 231.123117 178.506504 
L 242.318101 203.101751 
L 253.513086 224.429199 
L 264.70807 234.898517 
L 275.903054 235.315035 
L 287.098039 234.278257 
L 298.293023 227.889307 
L 309.488007 218.334011 
L 320.682992 211.997342 
L 331.877976 206.863138 
L 343.07296 201.164637 
L 354.267945 192.859683 
L 365.462929 189.511426 
L 376.657913 181.973791 
L 387.852898 176.709934 
" clip-path="url(#pe5d430888e)" style="fill: none; stroke: #1f948c; stroke-width: 1.5; stroke-linecap: square"/>
   </g>
   <g id="line2d_33">
    <path d="M 63.198352 263.824333 
L 74.393337 270.126421 
L 85.588321 272.521078 
L 96.783305 275.337975 
L 107.97829 272.21615 
L 119.173274 267.345876 
L 130.368258 255.725212 
L 141.563243 248.344839 
L 152.758227 234.469046 
L 163.953211 222.824107 
L 175.148196 206.92393 
L 186.34318 185.755084 
L 197.538164 166.263172 
L 208.733149 150.401848 
L 219.928133 149.921412 
L 231.123117 170.812229 
L 242.318101 199.288657 
L 253.513086 219.902307 
L 264.70807 230.780338 
L 275.903054 234.523931 
L 287.098039 231.589432 
L 298.293023 226.457685 
L 309.488007 215.427227 
L 320.682992 209.162549 
L 331.877976 201.442171 
L 343.07296 194.16956 
L 354.267945 188.961513 
L 365.462929 181.207638 
L 376.657913 176.510812 
L 387.852898 170.404936 
" clip-path="url(#pe5d430888e)" style="fill: none; stroke: #1e9d89; stroke-width: 1.5; stroke-linecap: square"/>
   </g>
   <g id="line2d_34">
    <path d="M 63.198352 263.137744 
L 74.393337 269.510645 
L 85.588321 272.213548 
L 96.783305 274.357006 
L 107.97829 271.673126 
L 119.173274 263.995959 
L 130.368258 257.512324 
L 141.563243 247.252521 
L 152.758227 234.347823 
L 163.953211 218.519814 
L 175.148196 200.488668 
L 186.34318 183.787102 
L 197.538164 158.525147 
L 208.733149 141.843279 
L 219.928133 144.364289 
L 231.123117 163.943293 
L 242.318101 193.140894 
L 253.513086 215.365267 
L 264.70807 227.45874 
L 275.903054 233.119358 
L 287.098039 226.232354 
L 298.293023 217.477523 
L 309.488007 211.200133 
L 320.682992 203.699231 
L 331.877976 196.253341 
L 343.07296 193.082595 
L 354.267945 186.099557 
L 365.462929 176.830133 
L 376.657913 168.174274 
L 387.852898 164.533705 
" clip-path="url(#pe5d430888e)" style="fill: none; stroke: #21a585; stroke-width: 1.5; stroke-linecap: square"/>
   </g>
   <g id="line2d_35">
    <path d="M 63.198352 264.078065 
L 74.393337 269.670865 
L 85.588321 272.607206 
L 96.783305 271.121367 
L 107.97829 270.009185 
L 119.173274 261.953627 
L 130.368258 255.42218 
L 141.563243 243.452675 
L 152.758227 230.292206 
L 163.953211 213.78372 
L 175.148196 197.072874 
L 186.34318 174.312218 
L 197.538164 150.506056 
L 208.733149 132.148858 
L 219.928133 134.809153 
L 231.123117 156.722042 
L 242.318101 189.649913 
L 253.513086 214.719204 
L 264.70807 226.811548 
L 275.903054 227.564287 
L 287.098039 223.746426 
L 298.293023 216.768594 
L 309.488007 209.067043 
L 320.682992 198.860343 
L 331.877976 192.26769 
L 343.07296 184.39095 
L 354.267945 176.044008 
L 365.462929 167.9824 
L 376.657913 161.61698 
L 387.852898 158.609082 
" clip-path="url(#pe5d430888e)" style="fill: none; stroke: #26ad81; stroke-width: 1.5; stroke-linecap: square"/>
   </g>
   <g id="line2d_36">
    <path d="M 63.198352 260.410315 
L 74.393337 265.196235 
L 85.588321 270.712973 
L 96.783305 271.942928 
L 107.97829 270.302722 
L 119.173274 263.395913 
L 130.368258 250.584509 
L 141.563243 239.722746 
L 152.758227 226.786265 
L 163.953211 207.064805 
L 175.148196 189.055202 
L 186.34318 169.128498 
L 197.538164 144.169454 
L 208.733149 126.885791 
L 219.928133 129.058553 
L 231.123117 153.820831 
L 242.318101 185.471312 
L 253.513086 212.046203 
L 264.70807 221.501043 
L 275.903054 223.792728 
L 287.098039 221.132302 
L 298.293023 213.668537 
L 309.488007 205.995066 
L 320.682992 195.836902 
L 331.877976 185.804597 
L 343.07296 181.028095 
L 354.267945 171.473508 
L 365.462929 164.032047 
L 376.657913 156.293602 
L 387.852898 152.391372 
" clip-path="url(#pe5d430888e)" style="fill: none; stroke: #31b57b; stroke-width: 1.5; stroke-linecap: square"/>
   </g>
   <g id="line2d_37">
    <path d="M 63.198352 257.60386 
L 74.393337 265.778271 
L 85.588321 268.534665 
L 96.783305 271.40801 
L 107.97829 267.833985 
L 119.173274 260.032272 
L 130.368258 249.014053 
L 141.563243 237.173206 
L 152.758227 222.100974 
L 163.953211 203.794015 
L 175.148196 185.596118 
L 186.34318 164.013079 
L 197.538164 136.081368 
L 208.733149 119.512204 
L 219.928133 121.812626 
L 231.123117 145.866717 
L 242.318101 178.500655 
L 253.513086 207.412729 
L 264.70807 221.516929 
L 275.903054 221.859662 
L 287.098039 216.54967 
L 298.293023 210.738063 
L 309.488007 201.52751 
L 320.682992 192.129576 
L 331.877976 182.021386 
L 343.07296 176.791191 
L 354.267945 163.79952 
L 365.462929 159.709795 
L 376.657913 151.833715 
L 387.852898 146.658851 
" clip-path="url(#pe5d430888e)" style="fill: none; stroke: #3fbc73; stroke-width: 1.5; stroke-linecap: square"/>
   </g>
   <g id="line2d_38">
    <path d="M 63.198352 254.917089 
L 74.393337 262.741436 
L 85.588321 269.350439 
L 96.783305 270.502395 
L 107.97829 265.164844 
L 119.173274 258.227419 
L 130.368258 245.304735 
L 141.563243 233.592275 
L 152.758227 221.809013 
L 163.953211 200.457692 
L 175.148196 180.808955 
L 186.34318 157.357244 
L 197.538164 131.203578 
L 208.733149 110.987354 
L 219.928133 113.486561 
L 231.123117 139.340799 
L 242.318101 176.677032 
L 253.513086 203.827331 
L 264.70807 216.462214 
L 275.903054 218.720087 
L 287.098039 212.061125 
L 298.293023 206.611349 
L 309.488007 196.186924 
L 320.682992 187.138552 
L 331.877976 177.036336 
L 343.07296 169.790415 
L 354.267945 161.895202 
L 365.462929 153.365634 
L 376.657913 146.415468 
L 387.852898 140.622775 
" clip-path="url(#pe5d430888e)" style="fill: none; stroke: #50c46a; stroke-width: 1.5; stroke-linecap: square"/>
   </g>
   <g id="line2d_39">
    <path d="M 63.198352 255.352311 
L 74.393337 258.799762 
L 85.588321 266.721856 
L 96.783305 267.703056 
L 107.97829 264.848802 
L 119.173274 256.728748 
L 130.368258 246.816791 
L 141.563243 230.48858 
L 152.758227 216.874792 
L 163.953211 199.150552 
L 175.148196 176.13233 
L 186.34318 151.152632 
L 197.538164 123.247284 
L 208.733149 104.964507 
L 219.928133 107.65626 
L 231.123117 134.901846 
L 242.318101 169.946522 
L 253.513086 202.071556 
L 264.70807 212.97435 
L 275.903054 214.978934 
L 287.098039 211.066772 
L 298.293023 198.893111 
L 309.488007 192.615099 
L 320.682992 183.41163 
L 331.877976 172.38366 
L 343.07296 164.227579 
L 354.267945 156.13203 
L 365.462929 148.908199 
L 376.657913 137.965427 
L 387.852898 133.602774 
" clip-path="url(#pe5d430888e)" style="fill: none; stroke: #63cb5f; stroke-width: 1.5; stroke-linecap: square"/>
   </g>
   <g id="line2d_40">
    <path d="M 63.198352 251.892293 
L 74.393337 259.997129 
L 85.588321 265.074414 
L 96.783305 268.216281 
L 107.97829 262.841048 
L 119.173274 255.917976 
L 130.368258 241.913533 
L 141.563243 228.135072 
L 152.758227 213.520724 
L 163.953211 195.653771 
L 175.148196 171.512823 
L 186.34318 146.304939 
L 197.538164 116.843494 
L 208.733149 98.465957 
L 219.928133 98.923778 
L 231.123117 129.299418 
L 242.318101 167.801122 
L 253.513086 197.933317 
L 264.70807 211.722536 
L 275.903054 211.38188 
L 287.098039 207.694225 
L 298.293023 197.954798 
L 309.488007 189.052514 
L 320.682992 177.513025 
L 331.877976 168.08343 
L 343.07296 159.890483 
L 354.267945 151.609605 
L 365.462929 143.398435 
L 376.657913 134.753618 
L 387.852898 128.986631 
" clip-path="url(#pe5d430888e)" style="fill: none; stroke: #77d153; stroke-width: 1.5; stroke-linecap: square"/>
   </g>
   <g id="line2d_41">
    <path d="M 63.198352 251.30751 
L 74.393337 259.063304 
L 85.588321 264.605174 
L 96.783305 265.89611 
L 107.97829 259.609644 
L 119.173274 253.187954 
L 130.368258 244.141675 
L 141.563243 227.924062 
L 152.758227 211.720319 
L 163.953211 190.000186 
L 175.148196 168.144946 
L 186.34318 142.528092 
L 197.538164 110.956806 
L 208.733149 94.683084 
L 219.928133 93.609241 
L 231.123117 122.701596 
L 242.318101 161.474478 
L 253.513086 194.445302 
L 264.70807 210.354561 
L 275.903054 210.937196 
L 287.098039 203.316107 
L 298.293023 195.39496 
L 309.488007 184.176425 
L 320.682992 174.958955 
L 331.877976 163.670965 
L 343.07296 154.849336 
L 354.267945 144.610139 
L 365.462929 135.184868 
L 376.657913 128.328195 
L 387.852898 121.008088 
" clip-path="url(#pe5d430888e)" style="fill: none; stroke: #8bd646; stroke-width: 1.5; stroke-linecap: square"/>
   </g>
   <g id="line2d_42">
    <path d="M 63.198352 249.204321 
L 74.393337 255.474713 
L 85.588321 264.052147 
L 96.783305 264.803115 
L 107.97829 260.149406 
L 119.173274 251.833062 
L 130.368258 237.157083 
L 141.563243 224.819581 
L 152.758227 206.699783 
L 163.953211 185.671456 
L 175.148196 161.884922 
L 186.34318 134.242368 
L 197.538164 106.471041 
L 208.733149 83.101187 
L 219.928133 86.246662 
L 231.123117 116.063436 
L 242.318101 157.771258 
L 253.513086 190.395326 
L 264.70807 204.655693 
L 275.903054 205.351917 
L 287.098039 202.336868 
L 298.293023 192.743425 
L 309.488007 182.602694 
L 320.682992 172.222018 
L 331.877976 158.788088 
L 343.07296 147.361117 
L 354.267945 140.18915 
L 365.462929 130.542285 
L 376.657913 124.199403 
L 387.852898 115.584016 
" clip-path="url(#pe5d430888e)" style="fill: none; stroke: #a2da37; stroke-width: 1.5; stroke-linecap: square"/>
   </g>
   <g id="line2d_43">
    <path d="M 63.198352 248.645286 
L 74.393337 255.358372 
L 85.588321 261.609377 
L 96.783305 261.09256 
L 107.97829 259.475971 
L 119.173274 249.416876 
L 130.368258 237.290531 
L 141.563243 222.787564 
L 152.758227 202.375091 
L 163.953211 182.336836 
L 175.148196 158.026716 
L 186.34318 130.235673 
L 197.538164 99.064694 
L 208.733149 72.541652 
L 219.928133 79.993141 
L 231.123117 111.112215 
L 242.318101 153.342312 
L 253.513086 185.689929 
L 264.70807 203.269181 
L 275.903054 202.503604 
L 287.098039 197.54306 
L 298.293023 188.500674 
L 309.488007 177.185263 
L 320.682992 163.392781 
L 331.877976 156.826509 
L 343.07296 142.671956 
L 354.267945 136.320262 
L 365.462929 125.153164 
L 376.657913 117.802893 
L 387.852898 107.505198 
" clip-path="url(#pe5d430888e)" style="fill: none; stroke: #bade28; stroke-width: 1.5; stroke-linecap: square"/>
   </g>
   <g id="line2d_44">
    <path d="M 63.198352 245.424719 
L 74.393337 253.712691 
L 85.588321 261.329813 
L 96.783305 263.981771 
L 107.97829 257.333177 
L 119.173274 248.796237 
L 130.368258 234.731662 
L 141.563243 220.609827 
L 152.758227 199.14992 
L 163.953211 178.062786 
L 175.148196 153.543257 
L 186.34318 121.404192 
L 197.538164 90.188162 
L 208.733149 68.216546 
L 219.928133 75.718092 
L 231.123117 105.105979 
L 242.318101 149.340598 
L 253.513086 183.814154 
L 264.70807 198.757486 
L 275.903054 199.516503 
L 287.098039 193.244193 
L 298.293023 183.612314 
L 309.488007 173.922101 
L 320.682992 160.32652 
L 331.877976 148.996909 
L 343.07296 139.284595 
L 354.267945 129.104294 
L 365.462929 121.425828 
L 376.657913 110.772311 
L 387.852898 102.895296 
" clip-path="url(#pe5d430888e)" style="fill: none; stroke: #d2e21b; stroke-width: 1.5; stroke-linecap: square"/>
   </g>
   <g id="line2d_45">
    <path d="M 63.198352 247.044565 
L 74.393337 254.074749 
L 85.588321 262.085686 
L 96.783305 260.661531 
L 107.97829 255.578651 
L 119.173274 246.659771 
L 130.368258 231.377797 
L 141.563243 216.419496 
L 152.758227 198.049501 
L 163.953211 175.014616 
L 175.148196 147.366678 
L 186.34318 118.989525 
L 197.538164 85.714297 
L 208.733149 63.856674 
L 219.928133 68.482495 
L 231.123117 102.791092 
L 242.318101 145.644704 
L 253.513086 179.71032 
L 264.70807 198.693947 
L 275.903054 198.189692 
L 287.098039 191.698599 
L 298.293023 180.330227 
L 309.488007 169.951313 
L 320.682992 155.612965 
L 331.877976 145.02657 
L 343.07296 135.563138 
L 354.267945 123.531924 
L 365.462929 113.260404 
L 376.657913 106.222188 
L 387.852898 96.887538 
" clip-path="url(#pe5d430888e)" style="fill: none; stroke: #eae51a; stroke-width: 1.5; stroke-linecap: square"/>
   </g>
   <g id="line2d_46">
    <path d="M 63.198352 243.194507 
L 74.393337 251.026919 
L 85.588321 259.122715 
L 96.783305 259.469101 
L 107.97829 254.736077 
L 119.173274 244.877893 
L 130.368258 232.969805 
L 141.563243 213.598397 
L 152.758227 194.190244 
L 163.953211 171.682333 
L 175.148196 145.797237 
L 186.34318 114.057177 
L 197.538164 75.307555 
L 208.733149 53.856 
L 219.928133 60.700169 
L 231.123117 95.394389 
L 242.318101 142.596197 
L 253.513086 177.14684 
L 264.70807 194.593042 
L 275.903054 195.577234 
L 287.098039 188.221099 
L 298.293023 178.514328 
L 309.488007 165.956298 
L 320.682992 155.407337 
L 331.877976 141.5467 
L 343.07296 128.25481 
L 354.267945 119.400318 
L 365.462929 110.823301 
L 376.657913 100.284358 
L 387.852898 94.600458 
" clip-path="url(#pe5d430888e)" style="fill: none; stroke: #fde725; stroke-width: 1.5; stroke-linecap: square"/>
   </g>
   <g id="patch_3">
    <path d="M 46.965625 307.872 
L 46.965625 41.76 
" style="fill: none; stroke: #000000; stroke-width: 0.8; stroke-linejoin: miter; stroke-linecap: square"/>
   </g>
   <g id="patch_4">
    <path d="M 404.085625 307.872 
L 404.085625 41.76 
" style="fill: none; stroke: #000000; stroke-width: 0.8; stroke-linejoin: miter; stroke-linecap: square"/>
   </g>
   <g id="patch_5">
    <path d="M 46.965625 307.872 
L 404.085625 307.872 
" style="fill: none; stroke: #000000; stroke-width: 0.8; stroke-linejoin: miter; stroke-linecap: square"/>
   </g>
   <g id="patch_6">
    <path d="M 46.965625 41.76 
L 404.085625 41.76 
" style="fill: none; stroke: #000000; stroke-width: 0.8; stroke-linejoin: miter; stroke-linecap: square"/>
   </g>
   <g id="legend_1">
    <g id="patch_7">
     <path d="M 423.941625 307.872 
L 637.826 307.872 
Q 639.826 307.872 639.826 305.872 
L 639.826 145.412625 
Q 639.826 143.412625 637.826 143.412625 
L 423.941625 143.412625 
Q 421.941625 143.412625 421.941625 145.412625 
L 421.941625 305.872 
Q 421.941625 307.872 423.941625 307.872 
z
" style="fill: #ffffff; opacity: 0.8; stroke: #cccccc; stroke-linejoin: miter"/>
    </g>
    <g id="text_20">
     <!-- Readout pulse amplitude () -->
     <g transform="translate(462.783031 155.011063) scale(0.1 -0.1)">
      <defs>
       <path id="DejaVuSans-52" d="M 2841 2188 
Q 3044 2119 3236 1894 
Q 3428 1669 3622 1275 
L 4263 0 
L 3584 0 
L 2988 1197 
Q 2756 1666 2539 1819 
Q 2322 1972 1947 1972 
L 1259 1972 
L 1259 0 
L 628 0 
L 628 4666 
L 2053 4666 
Q 2853 4666 3247 4331 
Q 3641 3997 3641 3322 
Q 3641 2881 3436 2590 
Q 3231 2300 2841 2188 
z
M 1259 4147 
L 1259 2491 
L 2053 2491 
Q 2509 2491 2742 2702 
Q 2975 2913 2975 3322 
Q 2975 3731 2742 3939 
Q 2509 4147 2053 4147 
L 1259 4147 
z
" transform="scale(0.015625)"/>
       <path id="DejaVuSans-6f" d="M 1959 3097 
Q 1497 3097 1228 2736 
Q 959 2375 959 1747 
Q 959 1119 1226 758 
Q 1494 397 1959 397 
Q 2419 397 2687 759 
Q 2956 1122 2956 1747 
Q 2956 2369 2687 2733 
Q 2419 3097 1959 3097 
z
M 1959 3584 
Q 2709 3584 3137 3096 
Q 3566 2609 3566 1747 
Q 3566 888 3137 398 
Q 2709 -91 1959 -91 
Q 1206 -91 779 398 
Q 353 888 353 1747 
Q 353 2609 779 3096 
Q 1206 3584 1959 3584 
z
" transform="scale(0.015625)"/>
       <path id="DejaVuSans-70" d="M 1159 525 
L 1159 -1331 
L 581 -1331 
L 581 3500 
L 1159 3500 
L 1159 2969 
Q 1341 3281 1617 3432 
Q 1894 3584 2278 3584 
Q 2916 3584 3314 3078 
Q 3713 2572 3713 1747 
Q 3713 922 3314 415 
Q 2916 -91 2278 -91 
Q 1894 -91 1617 61 
Q 1341 213 1159 525 
z
M 3116 1747 
Q 3116 2381 2855 2742 
Q 2594 3103 2138 3103 
Q 1681 3103 1420 2742 
Q 1159 2381 1159 1747 
Q 1159 1113 1420 752 
Q 1681 391 2138 391 
Q 2594 391 2855 752 
Q 3116 1113 3116 1747 
z
" transform="scale(0.015625)"/>
       <path id="DejaVuSans-6c" d="M 603 4863 
L 1178 4863 
L 1178 0 
L 603 0 
L 603 4863 
z
" transform="scale(0.015625)"/>
       <path id="DejaVuSans-73" d="M 2834 3397 
L 2834 2853 
Q 2591 2978 2328 3040 
Q 2066 3103 1784 3103 
Q 1356 3103 1142 2972 
Q 928 2841 928 2578 
Q 928 2378 1081 2264 
Q 1234 2150 1697 2047 
L 1894 2003 
Q 2506 1872 2764 1633 
Q 3022 1394 3022 966 
Q 3022 478 2636 193 
Q 2250 -91 1575 -91 
Q 1294 -91 989 -36 
Q 684 19 347 128 
L 347 722 
Q 666 556 975 473 
Q 1284 391 1588 391 
Q 1994 391 2212 530 
Q 2431 669 2431 922 
Q 2431 1156 2273 1281 
Q 2116 1406 1581 1522 
L 1381 1569 
Q 847 1681 609 1914 
Q 372 2147 372 2553 
Q 372 3047 722 3315 
Q 1072 3584 1716 3584 
Q 2034 3584 2315 3537 
Q 2597 3491 2834 3397 
z
" transform="scale(0.015625)"/>
       <path id="DejaVuSans-6d" d="M 3328 2828 
Q 3544 3216 3844 3400 
Q 4144 3584 4550 3584 
Q 5097 3584 5394 3201 
Q 5691 2819 5691 2113 
L 5691 0 
L 5113 0 
L 5113 2094 
Q 5113 2597 4934 2840 
Q 4756 3084 4391 3084 
Q 3944 3084 3684 2787 
Q 3425 2491 3425 1978 
L 3425 0 
L 2847 0 
L 2847 2094 
Q 2847 2600 2669 2842 
Q 2491 3084 2119 3084 
Q 1678 3084 1418 2786 
Q 1159 2488 1159 1978 
L 1159 0 
L 581 0 
L 581 3500 
L 1159 3500 
L 1159 2956 
Q 1356 3278 1631 3431 
Q 1906 3584 2284 3584 
Q 2666 3584 2933 3390 
Q 3200 3197 3328 2828 
z
" transform="scale(0.015625)"/>
       <path id="DejaVuSans-28" d="M 1984 4856 
Q 1566 4138 1362 3434 
Q 1159 2731 1159 2009 
Q 1159 1288 1364 580 
Q 1569 -128 1984 -844 
L 1484 -844 
Q 1016 -109 783 600 
Q 550 1309 550 2009 
Q 550 2706 781 3412 
Q 1013 4119 1484 4856 
L 1984 4856 
z
" transform="scale(0.015625)"/>
       <path id="DejaVuSans-29" d="M 513 4856 
L 1013 4856 
Q 1481 4119 1714 3412 
Q 1947 2706 1947 2009 
Q 1947 1309 1714 600 
Q 1481 -109 1013 -844 
L 513 -844 
Q 928 -128 1133 580 
Q 1338 1288 1338 2009 
Q 1338 2731 1133 3434 
Q 928 4138 513 4856 
z
" transform="scale(0.015625)"/>
      </defs>
      <use xlink:href="#DejaVuSans-52"/>
      <use xlink:href="#DejaVuSans-65" x="64.982422"/>
      <use xlink:href="#DejaVuSans-61" x="126.505859"/>
      <use xlink:href="#DejaVuSans-64" x="187.785156"/>
      <use xlink:href="#DejaVuSans-6f" x="251.261719"/>
      <use xlink:href="#DejaVuSans-75" x="312.443359"/>
      <use xlink:href="#DejaVuSans-74" x="375.822266"/>
      <use xlink:href="#DejaVuSans-20" x="415.03125"/>
      <use xlink:href="#DejaVuSans-70" x="446.818359"/>
      <use xlink:href="#DejaVuSans-75" x="510.294922"/>
      <use xlink:href="#DejaVuSans-6c" x="573.673828"/>
      <use xlink:href="#DejaVuSans-73" x="601.457031"/>
      <use xlink:href="#DejaVuSans-65" x="653.556641"/>
      <use xlink:href="#DejaVuSans-20" x="715.080078"/>
      <use xlink:href="#DejaVuSans-61" x="746.867188"/>
      <use xlink:href="#DejaVuSans-6d" x="808.146484"/>
      <use xlink:href="#DejaVuSans-70" x="905.558594"/>
      <use xlink:href="#DejaVuSans-6c" x="969.035156"/>
      <use xlink:href="#DejaVuSans-69" x="996.818359"/>
      <use xlink:href="#DejaVuSans-74" x="1024.601562"/>
      <use xlink:href="#DejaVuSans-75" x="1063.810547"/>
      <use xlink:href="#DejaVuSans-64" x="1127.189453"/>
      <use xlink:href="#DejaVuSans-65" x="1190.666016"/>
      <use xlink:href="#DejaVuSans-20" x="1252.189453"/>
      <use xlink:href="#DejaVuSans-28" x="1283.976562"/>
      <use xlink:href="#DejaVuSans-29" x="1322.990234"/>
     </g>
    </g>
    <g id="line2d_47">
     <path d="M 425.941625 166.189188 
L 435.941625 166.189188 
L 445.941625 166.189188 
" style="fill: none; stroke: #440154; stroke-width: 1.5; stroke-linecap: square"/>
    </g>
    <g id="text_21">
     <!-- 0.1 -->
     <g transform="translate(453.941625 169.689188) scale(0.1 -0.1)">
      <defs>
       <path id="DejaVuSans-2e" d="M 684 794 
L 1344 794 
L 1344 0 
L 684 0 
L 684 794 
z
" transform="scale(0.015625)"/>
      </defs>
      <use xlink:href="#DejaVuSans-30"/>
      <use xlink:href="#DejaVuSans-2e" x="63.623047"/>
      <use xlink:href="#DejaVuSans-31" x="95.410156"/>
     </g>
    </g>
    <g id="line2d_48">
     <path d="M 425.941625 180.867313 
L 435.941625 180.867313 
L 445.941625 180.867313 
" style="fill: none; stroke: #470d60; stroke-width: 1.5; stroke-linecap: square"/>
    </g>
    <g id="text_22">
     <!-- 0.121 -->
     <g transform="translate(453.941625 184.367313) scale(0.1 -0.1)">
      <use xlink:href="#DejaVuSans-30"/>
      <use xlink:href="#DejaVuSans-2e" x="63.623047"/>
      <use xlink:href="#DejaVuSans-31" x="95.410156"/>
      <use xlink:href="#DejaVuSans-32" x="159.033203"/>
      <use xlink:href="#DejaVuSans-31" x="222.65625"/>
     </g>
    </g>
    <g id="line2d_49">
     <path d="M 425.941625 195.545438 
L 435.941625 195.545438 
L 445.941625 195.545438 
" style="fill: none; stroke: #481a6c; stroke-width: 1.5; stroke-linecap: square"/>
    </g>
    <g id="text_23">
     <!-- 0.141 -->
     <g transform="translate(453.941625 199.045438) scale(0.1 -0.1)">
      <use xlink:href="#DejaVuSans-30"/>
      <use xlink:href="#DejaVuSans-2e" x="63.623047"/>
      <use xlink:href="#DejaVuSans-31" x="95.410156"/>
      <use xlink:href="#DejaVuSans-34" x="159.033203"/>
      <use xlink:href="#DejaVuSans-31" x="222.65625"/>
     </g>
    </g>
    <g id="line2d_50">
     <path d="M 425.941625 210.223563 
L 435.941625 210.223563 
L 445.941625 210.223563 
" style="fill: none; stroke: #482576; stroke-width: 1.5; stroke-linecap: square"/>
    </g>
    <g id="text_24">
     <!-- 0.162 -->
     <g transform="translate(453.941625 213.723563) scale(0.1 -0.1)">
      <use xlink:href="#DejaVuSans-30"/>
      <use xlink:href="#DejaVuSans-2e" x="63.623047"/>
      <use xlink:href="#DejaVuSans-31" x="95.410156"/>
      <use xlink:href="#DejaVuSans-36" x="159.033203"/>
      <use xlink:href="#DejaVuSans-32" x="222.65625"/>
     </g>
    </g>
    <g id="line2d_51">
     <path d="M 425.941625 224.901688 
L 435.941625 224.901688 
L 445.941625 224.901688 
" style="fill: none; stroke: #46307e; stroke-width: 1.5; stroke-linecap: square"/>
    </g>
    <g id="text_25">
     <!-- 0.183 -->
     <g transform="translate(453.941625 228.401688) scale(0.1 -0.1)">
      <use xlink:href="#DejaVuSans-30"/>
      <use xlink:href="#DejaVuSans-2e" x="63.623047"/>
      <use xlink:href="#DejaVuSans-31" x="95.410156"/>
      <use xlink:href="#DejaVuSans-38" x="159.033203"/>
      <use xlink:href="#DejaVuSans-33" x="222.65625"/>
     </g>
    </g>
    <g id="line2d_52">
     <path d="M 425.941625 239.579813 
L 435.941625 239.579813 
L 445.941625 239.579813 
" style="fill: none; stroke: #443b84; stroke-width: 1.5; stroke-linecap: square"/>
    </g>
    <g id="text_26">
     <!-- 0.203 -->
     <g transform="translate(453.941625 243.079813) scale(0.1 -0.1)">
      <use xlink:href="#DejaVuSans-30"/>
      <use xlink:href="#DejaVuSans-2e" x="63.623047"/>
      <use xlink:href="#DejaVuSans-32" x="95.410156"/>
      <use xlink:href="#DejaVuSans-30" x="159.033203"/>
      <use xlink:href="#DejaVuSans-33" x="222.65625"/>
     </g>
    </g>
    <g id="line2d_53">
     <path d="M 425.941625 254.257938 
L 435.941625 254.257938 
L 445.941625 254.257938 
" style="fill: none; stroke: #404588; stroke-width: 1.5; stroke-linecap: square"/>
    </g>
    <g id="text_27">
     <!-- 0.224 -->
     <g transform="translate(453.941625 257.757938) scale(0.1 -0.1)">
      <use xlink:href="#DejaVuSans-30"/>
      <use xlink:href="#DejaVuSans-2e" x="63.623047"/>
      <use xlink:href="#DejaVuSans-32" x="95.410156"/>
      <use xlink:href="#DejaVuSans-32" x="159.033203"/>
      <use xlink:href="#DejaVuSans-34" x="222.65625"/>
     </g>
    </g>
    <g id="line2d_54">
     <path d="M 425.941625 268.936062 
L 435.941625 268.936062 
L 445.941625 268.936062 
" style="fill: none; stroke: #3c4f8a; stroke-width: 1.5; stroke-linecap: square"/>
    </g>
    <g id="text_28">
     <!-- 0.245 -->
     <g transform="translate(453.941625 272.436062) scale(0.1 -0.1)">
      <use xlink:href="#DejaVuSans-30"/>
      <use xlink:href="#DejaVuSans-2e" x="63.623047"/>
      <use xlink:href="#DejaVuSans-32" x="95.410156"/>
      <use xlink:href="#DejaVuSans-34" x="159.033203"/>
      <use xlink:href="#DejaVuSans-35" x="222.65625"/>
     </g>
    </g>
    <g id="line2d_55">
     <path d="M 425.941625 283.614188 
L 435.941625 283.614188 
L 445.941625 283.614188 
" style="fill: none; stroke: #38598c; stroke-width: 1.5; stroke-linecap: square"/>
    </g>
    <g id="text_29">
     <!-- 0.266 -->
     <g transform="translate(453.941625 287.114188) scale(0.1 -0.1)">
      <use xlink:href="#DejaVuSans-30"/>
      <use xlink:href="#DejaVuSans-2e" x="63.623047"/>
      <use xlink:href="#DejaVuSans-32" x="95.410156"/>
      <use xlink:href="#DejaVuSans-36" x="159.033203"/>
      <use xlink:href="#DejaVuSans-36" x="222.65625"/>
     </g>
    </g>
    <g id="line2d_56">
     <path d="M 425.941625 298.292312 
L 435.941625 298.292312 
L 445.941625 298.292312 
" style="fill: none; stroke: #33628d; stroke-width: 1.5; stroke-linecap: square"/>
    </g>
    <g id="text_30">
     <!-- 0.286 -->
     <g transform="translate(453.941625 301.792312) scale(0.1 -0.1)">
      <use xlink:href="#DejaVuSans-30"/>
      <use xlink:href="#DejaVuSans-2e" x="63.623047"/>
      <use xlink:href="#DejaVuSans-32" x="95.410156"/>
      <use xlink:href="#DejaVuSans-38" x="159.033203"/>
      <use xlink:href="#DejaVuSans-36" x="222.65625"/>
     </g>
    </g>
    <g id="line2d_57">
     <path d="M 502.56975 166.189188 
L 512.56975 166.189188 
L 522.56975 166.189188 
" style="fill: none; stroke: #2f6b8e; stroke-width: 1.5; stroke-linecap: square"/>
    </g>
    <g id="text_31">
     <!-- 0.307 -->
     <g transform="translate(530.56975 169.689188) scale(0.1 -0.1)">
      <use xlink:href="#DejaVuSans-30"/>
      <use xlink:href="#DejaVuSans-2e" x="63.623047"/>
      <use xlink:href="#DejaVuSans-33" x="95.410156"/>
      <use xlink:href="#DejaVuSans-30" x="159.033203"/>
      <use xlink:href="#DejaVuSans-37" x="222.65625"/>
     </g>
    </g>
    <g id="line2d_58">
     <path d="M 502.56975 180.867313 
L 512.56975 180.867313 
L 522.56975 180.867313 
" style="fill: none; stroke: #2c738e; stroke-width: 1.5; stroke-linecap: square"/>
    </g>
    <g id="text_32">
     <!-- 0.328 -->
     <g transform="translate(530.56975 184.367313) scale(0.1 -0.1)">
      <use xlink:href="#DejaVuSans-30"/>
      <use xlink:href="#DejaVuSans-2e" x="63.623047"/>
      <use xlink:href="#DejaVuSans-33" x="95.410156"/>
      <use xlink:href="#DejaVuSans-32" x="159.033203"/>
      <use xlink:href="#DejaVuSans-38" x="222.65625"/>
     </g>
    </g>
    <g id="line2d_59">
     <path d="M 502.56975 195.545438 
L 512.56975 195.545438 
L 522.56975 195.545438 
" style="fill: none; stroke: #297b8e; stroke-width: 1.5; stroke-linecap: square"/>
    </g>
    <g id="text_33">
     <!-- 0.348 -->
     <g transform="translate(530.56975 199.045438) scale(0.1 -0.1)">
      <use xlink:href="#DejaVuSans-30"/>
      <use xlink:href="#DejaVuSans-2e" x="63.623047"/>
      <use xlink:href="#DejaVuSans-33" x="95.410156"/>
      <use xlink:href="#DejaVuSans-34" x="159.033203"/>
      <use xlink:href="#DejaVuSans-38" x="222.65625"/>
     </g>
    </g>
    <g id="line2d_60">
     <path d="M 502.56975 210.223563 
L 512.56975 210.223563 
L 522.56975 210.223563 
" style="fill: none; stroke: #25838e; stroke-width: 1.5; stroke-linecap: square"/>
    </g>
    <g id="text_34">
     <!-- 0.369 -->
     <g transform="translate(530.56975 213.723563) scale(0.1 -0.1)">
      <use xlink:href="#DejaVuSans-30"/>
      <use xlink:href="#DejaVuSans-2e" x="63.623047"/>
      <use xlink:href="#DejaVuSans-33" x="95.410156"/>
      <use xlink:href="#DejaVuSans-36" x="159.033203"/>
      <use xlink:href="#DejaVuSans-39" x="222.65625"/>
     </g>
    </g>
    <g id="line2d_61">
     <path d="M 502.56975 224.901688 
L 512.56975 224.901688 
L 522.56975 224.901688 
" style="fill: none; stroke: #228c8d; stroke-width: 1.5; stroke-linecap: square"/>
    </g>
    <g id="text_35">
     <!-- 0.39 -->
     <g transform="translate(530.56975 228.401688) scale(0.1 -0.1)">
      <use xlink:href="#DejaVuSans-30"/>
      <use xlink:href="#DejaVuSans-2e" x="63.623047"/>
      <use xlink:href="#DejaVuSans-33" x="95.410156"/>
      <use xlink:href="#DejaVuSans-39" x="159.033203"/>
     </g>
    </g>
    <g id="line2d_62">
     <path d="M 502.56975 239.579813 
L 512.56975 239.579813 
L 522.56975 239.579813 
" style="fill: none; stroke: #1f948c; stroke-width: 1.5; stroke-linecap: square"/>
    </g>
    <g id="text_36">
     <!-- 0.41 -->
     <g transform="translate(530.56975 243.079813) scale(0.1 -0.1)">
      <use xlink:href="#DejaVuSans-30"/>
      <use xlink:href="#DejaVuSans-2e" x="63.623047"/>
      <use xlink:href="#DejaVuSans-34" x="95.410156"/>
      <use xlink:href="#DejaVuSans-31" x="159.033203"/>
     </g>
    </g>
    <g id="line2d_63">
     <path d="M 502.56975 254.257938 
L 512.56975 254.257938 
L 522.56975 254.257938 
" style="fill: none; stroke: #1e9d89; stroke-width: 1.5; stroke-linecap: square"/>
    </g>
    <g id="text_37">
     <!-- 0.431 -->
     <g transform="translate(530.56975 257.757938) scale(0.1 -0.1)">
      <use xlink:href="#DejaVuSans-30"/>
      <use xlink:href="#DejaVuSans-2e" x="63.623047"/>
      <use xlink:href="#DejaVuSans-34" x="95.410156"/>
      <use xlink:href="#DejaVuSans-33" x="159.033203"/>
      <use xlink:href="#DejaVuSans-31" x="222.65625"/>
     </g>
    </g>
    <g id="line2d_64">
     <path d="M 502.56975 268.936062 
L 512.56975 268.936062 
L 522.56975 268.936062 
" style="fill: none; stroke: #21a585; stroke-width: 1.5; stroke-linecap: square"/>
    </g>
    <g id="text_38">
     <!-- 0.452 -->
     <g transform="translate(530.56975 272.436062) scale(0.1 -0.1)">
      <use xlink:href="#DejaVuSans-30"/>
      <use xlink:href="#DejaVuSans-2e" x="63.623047"/>
      <use xlink:href="#DejaVuSans-34" x="95.410156"/>
      <use xlink:href="#DejaVuSans-35" x="159.033203"/>
      <use xlink:href="#DejaVuSans-32" x="222.65625"/>
     </g>
    </g>
    <g id="line2d_65">
     <path d="M 502.56975 283.614188 
L 512.56975 283.614188 
L 522.56975 283.614188 
" style="fill: none; stroke: #26ad81; stroke-width: 1.5; stroke-linecap: square"/>
    </g>
    <g id="text_39">
     <!-- 0.472 -->
     <g transform="translate(530.56975 287.114188) scale(0.1 -0.1)">
      <use xlink:href="#DejaVuSans-30"/>
      <use xlink:href="#DejaVuSans-2e" x="63.623047"/>
      <use xlink:href="#DejaVuSans-34" x="95.410156"/>
      <use xlink:href="#DejaVuSans-37" x="159.033203"/>
      <use xlink:href="#DejaVuSans-32" x="222.65625"/>
     </g>
    </g>
    <g id="line2d_66">
     <path d="M 502.56975 298.292312 
L 512.56975 298.292312 
L 522.56975 298.292312 
" style="fill: none; stroke: #31b57b; stroke-width: 1.5; stroke-linecap: square"/>
    </g>
    <g id="text_40">
     <!-- 0.493 -->
     <g transform="translate(530.56975 301.792312) scale(0.1 -0.1)">
      <use xlink:href="#DejaVuSans-30"/>
      <use xlink:href="#DejaVuSans-2e" x="63.623047"/>
      <use xlink:href="#DejaVuSans-34" x="95.410156"/>
      <use xlink:href="#DejaVuSans-39" x="159.033203"/>
      <use xlink:href="#DejaVuSans-33" x="222.65625"/>
     </g>
    </g>
    <g id="line2d_67">
     <path d="M 579.197875 166.189188 
L 589.197875 166.189188 
L 599.197875 166.189188 
" style="fill: none; stroke: #3fbc73; stroke-width: 1.5; stroke-linecap: square"/>
    </g>
    <g id="text_41">
     <!-- 0.514 -->
     <g transform="translate(607.197875 169.689188) scale(0.1 -0.1)">
      <use xlink:href="#DejaVuSans-30"/>
      <use xlink:href="#DejaVuSans-2e" x="63.623047"/>
      <use xlink:href="#DejaVuSans-35" x="95.410156"/>
      <use xlink:href="#DejaVuSans-31" x="159.033203"/>
      <use xlink:href="#DejaVuSans-34" x="222.65625"/>
     </g>
    </g>
    <g id="line2d_68">
     <path d="M 579.197875 180.867313 
L 589.197875 180.867313 
L 599.197875 180.867313 
" style="fill: none; stroke: #50c46a; stroke-width: 1.5; stroke-linecap: square"/>
    </g>
    <g id="text_42">
     <!-- 0.534 -->
     <g transform="translate(607.197875 184.367313) scale(0.1 -0.1)">
      <use xlink:href="#DejaVuSans-30"/>
      <use xlink:href="#DejaVuSans-2e" x="63.623047"/>
      <use xlink:href="#DejaVuSans-35" x="95.410156"/>
      <use xlink:href="#DejaVuSans-33" x="159.033203"/>
      <use xlink:href="#DejaVuSans-34" x="222.65625"/>
     </g>
    </g>
    <g id="line2d_69">
     <path d="M 579.197875 195.545438 
L 589.197875 195.545438 
L 599.197875 195.545438 
" style="fill: none; stroke: #63cb5f; stroke-width: 1.5; stroke-linecap: square"/>
    </g>
    <g id="text_43">
     <!-- 0.555 -->
     <g transform="translate(607.197875 199.045438) scale(0.1 -0.1)">
      <use xlink:href="#DejaVuSans-30"/>
      <use xlink:href="#DejaVuSans-2e" x="63.623047"/>
      <use xlink:href="#DejaVuSans-35" x="95.410156"/>
      <use xlink:href="#DejaVuSans-35" x="159.033203"/>
      <use xlink:href="#DejaVuSans-35" x="222.65625"/>
     </g>
    </g>
    <g id="line2d_70">
     <path d="M 579.197875 210.223563 
L 589.197875 210.223563 
L 599.197875 210.223563 
" style="fill: none; stroke: #77d153; stroke-width: 1.5; stroke-linecap: square"/>
    </g>
    <g id="text_44">
     <!-- 0.576 -->
     <g transform="translate(607.197875 213.723563) scale(0.1 -0.1)">
      <use xlink:href="#DejaVuSans-30"/>
      <use xlink:href="#DejaVuSans-2e" x="63.623047"/>
      <use xlink:href="#DejaVuSans-35" x="95.410156"/>
      <use xlink:href="#DejaVuSans-37" x="159.033203"/>
      <use xlink:href="#DejaVuSans-36" x="222.65625"/>
     </g>
    </g>
    <g id="line2d_71">
     <path d="M 579.197875 224.901688 
L 589.197875 224.901688 
L 599.197875 224.901688 
" style="fill: none; stroke: #8bd646; stroke-width: 1.5; stroke-linecap: square"/>
    </g>
    <g id="text_45">
     <!-- 0.597 -->
     <g transform="translate(607.197875 228.401688) scale(0.1 -0.1)">
      <use xlink:href="#DejaVuSans-30"/>
      <use xlink:href="#DejaVuSans-2e" x="63.623047"/>
      <use xlink:href="#DejaVuSans-35" x="95.410156"/>
      <use xlink:href="#DejaVuSans-39" x="159.033203"/>
      <use xlink:href="#DejaVuSans-37" x="222.65625"/>
     </g>
    </g>
    <g id="line2d_72">
     <path d="M 579.197875 239.579813 
L 589.197875 239.579813 
L 599.197875 239.579813 
" style="fill: none; stroke: #a2da37; stroke-width: 1.5; stroke-linecap: square"/>
    </g>
    <g id="text_46">
     <!-- 0.617 -->
     <g transform="translate(607.197875 243.079813) scale(0.1 -0.1)">
      <use xlink:href="#DejaVuSans-30"/>
      <use xlink:href="#DejaVuSans-2e" x="63.623047"/>
      <use xlink:href="#DejaVuSans-36" x="95.410156"/>
      <use xlink:href="#DejaVuSans-31" x="159.033203"/>
      <use xlink:href="#DejaVuSans-37" x="222.65625"/>
     </g>
    </g>
    <g id="line2d_73">
     <path d="M 579.197875 254.257938 
L 589.197875 254.257938 
L 599.197875 254.257938 
" style="fill: none; stroke: #bade28; stroke-width: 1.5; stroke-linecap: square"/>
    </g>
    <g id="text_47">
     <!-- 0.638 -->
     <g transform="translate(607.197875 257.757938) scale(0.1 -0.1)">
      <use xlink:href="#DejaVuSans-30"/>
      <use xlink:href="#DejaVuSans-2e" x="63.623047"/>
      <use xlink:href="#DejaVuSans-36" x="95.410156"/>
      <use xlink:href="#DejaVuSans-33" x="159.033203"/>
      <use xlink:href="#DejaVuSans-38" x="222.65625"/>
     </g>
    </g>
    <g id="line2d_74">
     <path d="M 579.197875 268.936062 
L 589.197875 268.936062 
L 599.197875 268.936062 
" style="fill: none; stroke: #d2e21b; stroke-width: 1.5; stroke-linecap: square"/>
    </g>
    <g id="text_48">
     <!-- 0.659 -->
     <g transform="translate(607.197875 272.436062) scale(0.1 -0.1)">
      <use xlink:href="#DejaVuSans-30"/>
      <use xlink:href="#DejaVuSans-2e" x="63.623047"/>
      <use xlink:href="#DejaVuSans-36" x="95.410156"/>
      <use xlink:href="#DejaVuSans-35" x="159.033203"/>
      <use xlink:href="#DejaVuSans-39" x="222.65625"/>
     </g>
    </g>
    <g id="line2d_75">
     <path d="M 579.197875 283.614188 
L 589.197875 283.614188 
L 599.197875 283.614188 
" style="fill: none; stroke: #eae51a; stroke-width: 1.5; stroke-linecap: square"/>
    </g>
    <g id="text_49">
     <!-- 0.679 -->
     <g transform="translate(607.197875 287.114188) scale(0.1 -0.1)">
      <use xlink:href="#DejaVuSans-30"/>
      <use xlink:href="#DejaVuSans-2e" x="63.623047"/>
      <use xlink:href="#DejaVuSans-36" x="95.410156"/>
      <use xlink:href="#DejaVuSans-37" x="159.033203"/>
      <use xlink:href="#DejaVuSans-39" x="222.65625"/>
     </g>
    </g>
    <g id="line2d_76">
     <path d="M 579.197875 298.292312 
L 589.197875 298.292312 
L 599.197875 298.292312 
" style="fill: none; stroke: #fde725; stroke-width: 1.5; stroke-linecap: square"/>
    </g>
    <g id="text_50">
     <!-- 0.7 -->
     <g transform="translate(607.197875 301.792312) scale(0.1 -0.1)">
      <use xlink:href="#DejaVuSans-30"/>
      <use xlink:href="#DejaVuSans-2e" x="63.623047"/>
      <use xlink:href="#DejaVuSans-37" x="95.410156"/>
     </g>
    </g>
   </g>
  </g>
  <g id="text_51">
   <!-- x0x1-y0 One-tone-powerDep -->
   <g transform="translate(132.961563 16.318125) scale(0.12 -0.12)">
    <defs>
     <path id="DejaVuSans-78" d="M 3513 3500 
L 2247 1797 
L 3578 0 
L 2900 0 
L 1881 1375 
L 863 0 
L 184 0 
L 1544 1831 
L 300 3500 
L 978 3500 
L 1906 2253 
L 2834 3500 
L 3513 3500 
z
" transform="scale(0.015625)"/>
     <path id="DejaVuSans-2d" d="M 313 2009 
L 1997 2009 
L 1997 1497 
L 313 1497 
L 313 2009 
z
" transform="scale(0.015625)"/>
     <path id="DejaVuSans-4f" d="M 2522 4238 
Q 1834 4238 1429 3725 
Q 1025 3213 1025 2328 
Q 1025 1447 1429 934 
Q 1834 422 2522 422 
Q 3209 422 3611 934 
Q 4013 1447 4013 2328 
Q 4013 3213 3611 3725 
Q 3209 4238 2522 4238 
z
M 2522 4750 
Q 3503 4750 4090 4092 
Q 4678 3434 4678 2328 
Q 4678 1225 4090 567 
Q 3503 -91 2522 -91 
Q 1538 -91 948 565 
Q 359 1222 359 2328 
Q 359 3434 948 4092 
Q 1538 4750 2522 4750 
z
" transform="scale(0.015625)"/>
     <path id="DejaVuSans-77" d="M 269 3500 
L 844 3500 
L 1563 769 
L 2278 3500 
L 2956 3500 
L 3675 769 
L 4391 3500 
L 4966 3500 
L 4050 0 
L 3372 0 
L 2619 2869 
L 1863 0 
L 1184 0 
L 269 3500 
z
" transform="scale(0.015625)"/>
     <path id="DejaVuSans-44" d="M 1259 4147 
L 1259 519 
L 2022 519 
Q 2988 519 3436 956 
Q 3884 1394 3884 2338 
Q 3884 3275 3436 3711 
Q 2988 4147 2022 4147 
L 1259 4147 
z
M 628 4666 
L 1925 4666 
Q 3281 4666 3915 4102 
Q 4550 3538 4550 2338 
Q 4550 1131 3912 565 
Q 3275 0 1925 0 
L 628 0 
L 628 4666 
z
" transform="scale(0.015625)"/>
    </defs>
    <use xlink:href="#DejaVuSans-78"/>
    <use xlink:href="#DejaVuSans-30" x="59.179688"/>
    <use xlink:href="#DejaVuSans-78" x="122.802734"/>
    <use xlink:href="#DejaVuSans-31" x="181.982422"/>
    <use xlink:href="#DejaVuSans-2d" x="245.605469"/>
    <use xlink:href="#DejaVuSans-79" x="279.939453"/>
    <use xlink:href="#DejaVuSans-30" x="339.119141"/>
    <use xlink:href="#DejaVuSans-20" x="402.742188"/>
    <use xlink:href="#DejaVuSans-4f" x="434.529297"/>
    <use xlink:href="#DejaVuSans-6e" x="513.240234"/>
    <use xlink:href="#DejaVuSans-65" x="576.619141"/>
    <use xlink:href="#DejaVuSans-2d" x="638.142578"/>
    <use xlink:href="#DejaVuSans-74" x="674.226562"/>
    <use xlink:href="#DejaVuSans-6f" x="713.435547"/>
    <use xlink:href="#DejaVuSans-6e" x="774.617188"/>
    <use xlink:href="#DejaVuSans-65" x="837.996094"/>
    <use xlink:href="#DejaVuSans-2d" x="899.519531"/>
    <use xlink:href="#DejaVuSans-70" x="935.603516"/>
    <use xlink:href="#DejaVuSans-6f" x="999.080078"/>
    <use xlink:href="#DejaVuSans-77" x="1060.261719"/>
    <use xlink:href="#DejaVuSans-65" x="1142.048828"/>
    <use xlink:href="#DejaVuSans-72" x="1203.572266"/>
    <use xlink:href="#DejaVuSans-44" x="1244.685547"/>
    <use xlink:href="#DejaVuSans-65" x="1321.6875"/>
    <use xlink:href="#DejaVuSans-70" x="1383.210938"/>
   </g>
   <!-- tuid: 20240304-141536-062-b90a1c -->
   <g transform="translate(110.577813 29.7555) scale(0.12 -0.12)">
    <defs>
     <path id="DejaVuSans-3a" d="M 750 794 
L 1409 794 
L 1409 0 
L 750 0 
L 750 794 
z
M 750 3309 
L 1409 3309 
L 1409 2516 
L 750 2516 
L 750 3309 
z
" transform="scale(0.015625)"/>
     <path id="DejaVuSans-62" d="M 3116 1747 
Q 3116 2381 2855 2742 
Q 2594 3103 2138 3103 
Q 1681 3103 1420 2742 
Q 1159 2381 1159 1747 
Q 1159 1113 1420 752 
Q 1681 391 2138 391 
Q 2594 391 2855 752 
Q 3116 1113 3116 1747 
z
M 1159 2969 
Q 1341 3281 1617 3432 
Q 1894 3584 2278 3584 
Q 2916 3584 3314 3078 
Q 3713 2572 3713 1747 
Q 3713 922 3314 415 
Q 2916 -91 2278 -91 
Q 1894 -91 1617 61 
Q 1341 213 1159 525 
L 1159 0 
L 581 0 
L 581 4863 
L 1159 4863 
L 1159 2969 
z
" transform="scale(0.015625)"/>
    </defs>
    <use xlink:href="#DejaVuSans-74"/>
    <use xlink:href="#DejaVuSans-75" x="39.208984"/>
    <use xlink:href="#DejaVuSans-69" x="102.587891"/>
    <use xlink:href="#DejaVuSans-64" x="130.371094"/>
    <use xlink:href="#DejaVuSans-3a" x="193.847656"/>
    <use xlink:href="#DejaVuSans-20" x="227.539062"/>
    <use xlink:href="#DejaVuSans-32" x="259.326172"/>
    <use xlink:href="#DejaVuSans-30" x="322.949219"/>
    <use xlink:href="#DejaVuSans-32" x="386.572266"/>
    <use xlink:href="#DejaVuSans-34" x="450.195312"/>
    <use xlink:href="#DejaVuSans-30" x="513.818359"/>
    <use xlink:href="#DejaVuSans-33" x="577.441406"/>
    <use xlink:href="#DejaVuSans-30" x="641.064453"/>
    <use xlink:href="#DejaVuSans-34" x="704.6875"/>
    <use xlink:href="#DejaVuSans-2d" x="768.310547"/>
    <use xlink:href="#DejaVuSans-31" x="804.394531"/>
    <use xlink:href="#DejaVuSans-34" x="868.017578"/>
    <use xlink:href="#DejaVuSans-31" x="931.640625"/>
    <use xlink:href="#DejaVuSans-35" x="995.263672"/>
    <use xlink:href="#DejaVuSans-33" x="1058.886719"/>
    <use xlink:href="#DejaVuSans-36" x="1122.509766"/>
    <use xlink:href="#DejaVuSans-2d" x="1186.132812"/>
    <use xlink:href="#DejaVuSans-30" x="1222.216797"/>
    <use xlink:href="#DejaVuSans-36" x="1285.839844"/>
    <use xlink:href="#DejaVuSans-32" x="1349.462891"/>
    <use xlink:href="#DejaVuSans-2d" x="1413.085938"/>
    <use xlink:href="#DejaVuSans-62" x="1449.169922"/>
    <use xlink:href="#DejaVuSans-39" x="1512.646484"/>
    <use xlink:href="#DejaVuSans-30" x="1576.269531"/>
    <use xlink:href="#DejaVuSans-61" x="1639.892578"/>
    <use xlink:href="#DejaVuSans-31" x="1701.171875"/>
    <use xlink:href="#DejaVuSans-63" x="1764.794922"/>
   </g>
  </g>
 </g>
 <defs>
  <clipPath id="pe5d430888e">
   <rect x="46.965625" y="41.76" width="357.12" height="266.112"/>
  </clipPath>
 </defs>
</svg>
