<?xml version="1.0" encoding="utf-8" standalone="no"?>
<!DOCTYPE svg PUBLIC "-//W3C//DTD SVG 1.1//EN"
  "http://www.w3.org/Graphics/SVG/1.1/DTD/svg11.dtd">
<svg xmlns:xlink="http://www.w3.org/1999/xlink" width="571.386937pt" height="345.42825pt" viewBox="0 0 571.386937 345.42825" xmlns="http://www.w3.org/2000/svg" version="1.1">
 <metadata>
  <rdf:RDF xmlns:dc="http://purl.org/dc/elements/1.1/" xmlns:cc="http://creativecommons.org/ns#" xmlns:rdf="http://www.w3.org/1999/02/22-rdf-syntax-ns#">
   <cc:Work>
    <dc:type rdf:resource="http://purl.org/dc/dcmitype/StillImage"/>
    <dc:date>2024-02-21T08:54:34.808747</dc:date>
    <dc:format>image/svg+xml</dc:format>
    <dc:creator>
     <cc:Agent>
      <dc:title>Matplotlib v3.8.2, https://matplotlib.org/</dc:title>
     </cc:Agent>
    </dc:creator>
   </cc:Work>
  </rdf:RDF>
 </metadata>
 <defs>
  <style type="text/css">*{stroke-linejoin: round; stroke-linecap: butt}</style>
 </defs>
 <g id="figure_1">
  <g id="patch_1">
   <path d="M 0 345.42825 
L 571.386937 345.42825 
L 571.386937 -0 
L 0 -0 
L 0 345.42825 
z
" style="fill: none; opacity: 0"/>
  </g>
  <g id="axes_1">
   <g id="patch_2">
    <path d="M 44.210938 307.872 
L 401.330938 307.872 
L 401.330938 41.76 
L 44.210938 41.76 
z
" style="fill: #ffffff"/>
   </g>
   <g id="matplotlib.axis_1">
    <g id="xtick_1">
     <g id="line2d_1">
      <defs>
       <path id="ma77ca99619" d="M 0 0 
L 0 3.5 
" style="stroke: #000000; stroke-width: 0.8"/>
      </defs>
      <g>
       <use xlink:href="#ma77ca99619" x="54.364346" y="307.872" style="stroke: #000000; stroke-width: 0.8"/>
      </g>
     </g>
     <g id="text_1">
      <!-- -40 -->
      <g transform="translate(46.19794 322.470438) scale(0.1 -0.1)">
       <defs>
        <path id="DejaVuSans-2d" d="M 313 2009 
L 1997 2009 
L 1997 1497 
L 313 1497 
L 313 2009 
z
" transform="scale(0.015625)"/>
        <path id="DejaVuSans-34" d="M 2419 4116 
L 825 1625 
L 2419 1625 
L 2419 4116 
z
M 2253 4666 
L 3047 4666 
L 3047 1625 
L 3713 1625 
L 3713 1100 
L 3047 1100 
L 3047 0 
L 2419 0 
L 2419 1100 
L 313 1100 
L 313 1709 
L 2253 4666 
z
" transform="scale(0.015625)"/>
        <path id="DejaVuSans-30" d="M 2034 4250 
Q 1547 4250 1301 3770 
Q 1056 3291 1056 2328 
Q 1056 1369 1301 889 
Q 1547 409 2034 409 
Q 2525 409 2770 889 
Q 3016 1369 3016 2328 
Q 3016 3291 2770 3770 
Q 2525 4250 2034 4250 
z
M 2034 4750 
Q 2819 4750 3233 4129 
Q 3647 3509 3647 2328 
Q 3647 1150 3233 529 
Q 2819 -91 2034 -91 
Q 1250 -91 836 529 
Q 422 1150 422 2328 
Q 422 3509 836 4129 
Q 1250 4750 2034 4750 
z
" transform="scale(0.015625)"/>
       </defs>
       <use xlink:href="#DejaVuSans-2d"/>
       <use xlink:href="#DejaVuSans-34" x="36.083984"/>
       <use xlink:href="#DejaVuSans-30" x="99.707031"/>
      </g>
     </g>
    </g>
    <g id="xtick_2">
     <g id="line2d_2">
      <g>
       <use xlink:href="#ma77ca99619" x="98.862158" y="307.872" style="stroke: #000000; stroke-width: 0.8"/>
      </g>
     </g>
     <g id="text_2">
      <!-- -30 -->
      <g transform="translate(90.695752 322.470438) scale(0.1 -0.1)">
       <defs>
        <path id="DejaVuSans-33" d="M 2597 2516 
Q 3050 2419 3304 2112 
Q 3559 1806 3559 1356 
Q 3559 666 3084 287 
Q 2609 -91 1734 -91 
Q 1441 -91 1130 -33 
Q 819 25 488 141 
L 488 750 
Q 750 597 1062 519 
Q 1375 441 1716 441 
Q 2309 441 2620 675 
Q 2931 909 2931 1356 
Q 2931 1769 2642 2001 
Q 2353 2234 1838 2234 
L 1294 2234 
L 1294 2753 
L 1863 2753 
Q 2328 2753 2575 2939 
Q 2822 3125 2822 3475 
Q 2822 3834 2567 4026 
Q 2313 4219 1838 4219 
Q 1578 4219 1281 4162 
Q 984 4106 628 3988 
L 628 4550 
Q 988 4650 1302 4700 
Q 1616 4750 1894 4750 
Q 2613 4750 3031 4423 
Q 3450 4097 3450 3541 
Q 3450 3153 3228 2886 
Q 3006 2619 2597 2516 
z
" transform="scale(0.015625)"/>
       </defs>
       <use xlink:href="#DejaVuSans-2d"/>
       <use xlink:href="#DejaVuSans-33" x="36.083984"/>
       <use xlink:href="#DejaVuSans-30" x="99.707031"/>
      </g>
     </g>
    </g>
    <g id="xtick_3">
     <g id="line2d_3">
      <g>
       <use xlink:href="#ma77ca99619" x="143.35997" y="307.872" style="stroke: #000000; stroke-width: 0.8"/>
      </g>
     </g>
     <g id="text_3">
      <!-- -20 -->
      <g transform="translate(135.193563 322.470438) scale(0.1 -0.1)">
       <defs>
        <path id="DejaVuSans-32" d="M 1228 531 
L 3431 531 
L 3431 0 
L 469 0 
L 469 531 
Q 828 903 1448 1529 
Q 2069 2156 2228 2338 
Q 2531 2678 2651 2914 
Q 2772 3150 2772 3378 
Q 2772 3750 2511 3984 
Q 2250 4219 1831 4219 
Q 1534 4219 1204 4116 
Q 875 4013 500 3803 
L 500 4441 
Q 881 4594 1212 4672 
Q 1544 4750 1819 4750 
Q 2544 4750 2975 4387 
Q 3406 4025 3406 3419 
Q 3406 3131 3298 2873 
Q 3191 2616 2906 2266 
Q 2828 2175 2409 1742 
Q 1991 1309 1228 531 
z
" transform="scale(0.015625)"/>
       </defs>
       <use xlink:href="#DejaVuSans-2d"/>
       <use xlink:href="#DejaVuSans-32" x="36.083984"/>
       <use xlink:href="#DejaVuSans-30" x="99.707031"/>
      </g>
     </g>
    </g>
    <g id="xtick_4">
     <g id="line2d_4">
      <g>
       <use xlink:href="#ma77ca99619" x="187.857781" y="307.872" style="stroke: #000000; stroke-width: 0.8"/>
      </g>
     </g>
     <g id="text_4">
      <!-- -10 -->
      <g transform="translate(179.691375 322.470438) scale(0.1 -0.1)">
       <defs>
        <path id="DejaVuSans-31" d="M 794 531 
L 1825 531 
L 1825 4091 
L 703 3866 
L 703 4441 
L 1819 4666 
L 2450 4666 
L 2450 531 
L 3481 531 
L 3481 0 
L 794 0 
L 794 531 
z
" transform="scale(0.015625)"/>
       </defs>
       <use xlink:href="#DejaVuSans-2d"/>
       <use xlink:href="#DejaVuSans-31" x="36.083984"/>
       <use xlink:href="#DejaVuSans-30" x="99.707031"/>
      </g>
     </g>
    </g>
    <g id="xtick_5">
     <g id="line2d_5">
      <g>
       <use xlink:href="#ma77ca99619" x="232.355593" y="307.872" style="stroke: #000000; stroke-width: 0.8"/>
      </g>
     </g>
     <g id="text_5">
      <!-- 0 -->
      <g transform="translate(229.174343 322.470438) scale(0.1 -0.1)">
       <use xlink:href="#DejaVuSans-30"/>
      </g>
     </g>
    </g>
    <g id="xtick_6">
     <g id="line2d_6">
      <g>
       <use xlink:href="#ma77ca99619" x="276.853404" y="307.872" style="stroke: #000000; stroke-width: 0.8"/>
      </g>
     </g>
     <g id="text_6">
      <!-- 10 -->
      <g transform="translate(270.490904 322.470438) scale(0.1 -0.1)">
       <use xlink:href="#DejaVuSans-31"/>
       <use xlink:href="#DejaVuSans-30" x="63.623047"/>
      </g>
     </g>
    </g>
    <g id="xtick_7">
     <g id="line2d_7">
      <g>
       <use xlink:href="#ma77ca99619" x="321.351216" y="307.872" style="stroke: #000000; stroke-width: 0.8"/>
      </g>
     </g>
     <g id="text_7">
      <!-- 20 -->
      <g transform="translate(314.988716 322.470438) scale(0.1 -0.1)">
       <use xlink:href="#DejaVuSans-32"/>
       <use xlink:href="#DejaVuSans-30" x="63.623047"/>
      </g>
     </g>
    </g>
    <g id="xtick_8">
     <g id="line2d_8">
      <g>
       <use xlink:href="#ma77ca99619" x="365.849028" y="307.872" style="stroke: #000000; stroke-width: 0.8"/>
      </g>
     </g>
     <g id="text_8">
      <!-- 30 -->
      <g transform="translate(359.486528 322.470438) scale(0.1 -0.1)">
       <use xlink:href="#DejaVuSans-33"/>
       <use xlink:href="#DejaVuSans-30" x="63.623047"/>
      </g>
     </g>
    </g>
    <g id="text_9">
     <!-- Re$(S_{21})$ [mV] -->
     <g transform="translate(190.770938 336.148562) scale(0.1 -0.1)">
      <defs>
       <path id="DejaVuSans-52" d="M 2841 2188 
Q 3044 2119 3236 1894 
Q 3428 1669 3622 1275 
L 4263 0 
L 3584 0 
L 2988 1197 
Q 2756 1666 2539 1819 
Q 2322 1972 1947 1972 
L 1259 1972 
L 1259 0 
L 628 0 
L 628 4666 
L 2053 4666 
Q 2853 4666 3247 4331 
Q 3641 3997 3641 3322 
Q 3641 2881 3436 2590 
Q 3231 2300 2841 2188 
z
M 1259 4147 
L 1259 2491 
L 2053 2491 
Q 2509 2491 2742 2702 
Q 2975 2913 2975 3322 
Q 2975 3731 2742 3939 
Q 2509 4147 2053 4147 
L 1259 4147 
z
" transform="scale(0.015625)"/>
       <path id="DejaVuSans-65" d="M 3597 1894 
L 3597 1613 
L 953 1613 
Q 991 1019 1311 708 
Q 1631 397 2203 397 
Q 2534 397 2845 478 
Q 3156 559 3463 722 
L 3463 178 
Q 3153 47 2828 -22 
Q 2503 -91 2169 -91 
Q 1331 -91 842 396 
Q 353 884 353 1716 
Q 353 2575 817 3079 
Q 1281 3584 2069 3584 
Q 2775 3584 3186 3129 
Q 3597 2675 3597 1894 
z
M 3022 2063 
Q 3016 2534 2758 2815 
Q 2500 3097 2075 3097 
Q 1594 3097 1305 2825 
Q 1016 2553 972 2059 
L 3022 2063 
z
" transform="scale(0.015625)"/>
       <path id="DejaVuSans-28" d="M 1984 4856 
Q 1566 4138 1362 3434 
Q 1159 2731 1159 2009 
Q 1159 1288 1364 580 
Q 1569 -128 1984 -844 
L 1484 -844 
Q 1016 -109 783 600 
Q 550 1309 550 2009 
Q 550 2706 781 3412 
Q 1013 4119 1484 4856 
L 1984 4856 
z
" transform="scale(0.015625)"/>
       <path id="DejaVuSans-Oblique-53" d="M 3859 4513 
L 3738 3897 
Q 3422 4066 3111 4152 
Q 2800 4238 2509 4238 
Q 1944 4238 1609 3991 
Q 1275 3744 1275 3334 
Q 1275 3109 1398 2989 
Q 1522 2869 2034 2731 
L 2413 2638 
Q 3053 2472 3303 2217 
Q 3553 1963 3553 1503 
Q 3553 797 2998 353 
Q 2444 -91 1538 -91 
Q 1166 -91 791 -17 
Q 416 56 38 206 
L 166 856 
Q 513 641 861 531 
Q 1209 422 1556 422 
Q 2147 422 2503 684 
Q 2859 947 2859 1369 
Q 2859 1650 2717 1795 
Q 2575 1941 2106 2059 
L 1728 2156 
Q 1081 2325 845 2545 
Q 609 2766 609 3163 
Q 609 3859 1145 4304 
Q 1681 4750 2541 4750 
Q 2875 4750 3203 4690 
Q 3531 4631 3859 4513 
z
" transform="scale(0.015625)"/>
       <path id="DejaVuSans-29" d="M 513 4856 
L 1013 4856 
Q 1481 4119 1714 3412 
Q 1947 2706 1947 2009 
Q 1947 1309 1714 600 
Q 1481 -109 1013 -844 
L 513 -844 
Q 928 -128 1133 580 
Q 1338 1288 1338 2009 
Q 1338 2731 1133 3434 
Q 928 4138 513 4856 
z
" transform="scale(0.015625)"/>
       <path id="DejaVuSans-20" transform="scale(0.015625)"/>
       <path id="DejaVuSans-5b" d="M 550 4863 
L 1875 4863 
L 1875 4416 
L 1125 4416 
L 1125 -397 
L 1875 -397 
L 1875 -844 
L 550 -844 
L 550 4863 
z
" transform="scale(0.015625)"/>
       <path id="DejaVuSans-6d" d="M 3328 2828 
Q 3544 3216 3844 3400 
Q 4144 3584 4550 3584 
Q 5097 3584 5394 3201 
Q 5691 2819 5691 2113 
L 5691 0 
L 5113 0 
L 5113 2094 
Q 5113 2597 4934 2840 
Q 4756 3084 4391 3084 
Q 3944 3084 3684 2787 
Q 3425 2491 3425 1978 
L 3425 0 
L 2847 0 
L 2847 2094 
Q 2847 2600 2669 2842 
Q 2491 3084 2119 3084 
Q 1678 3084 1418 2786 
Q 1159 2488 1159 1978 
L 1159 0 
L 581 0 
L 581 3500 
L 1159 3500 
L 1159 2956 
Q 1356 3278 1631 3431 
Q 1906 3584 2284 3584 
Q 2666 3584 2933 3390 
Q 3200 3197 3328 2828 
z
" transform="scale(0.015625)"/>
       <path id="DejaVuSans-56" d="M 1831 0 
L 50 4666 
L 709 4666 
L 2188 738 
L 3669 4666 
L 4325 4666 
L 2547 0 
L 1831 0 
z
" transform="scale(0.015625)"/>
       <path id="DejaVuSans-5d" d="M 1947 4863 
L 1947 -844 
L 622 -844 
L 622 -397 
L 1369 -397 
L 1369 4416 
L 622 4416 
L 622 4863 
L 1947 4863 
z
" transform="scale(0.015625)"/>
      </defs>
      <use xlink:href="#DejaVuSans-52" transform="translate(0 0.015625)"/>
      <use xlink:href="#DejaVuSans-65" transform="translate(69.482422 0.015625)"/>
      <use xlink:href="#DejaVuSans-28" transform="translate(131.005859 0.015625)"/>
      <use xlink:href="#DejaVuSans-Oblique-53" transform="translate(170.019531 0.015625)"/>
      <use xlink:href="#DejaVuSans-32" transform="translate(233.496094 -16.390625) scale(0.7)"/>
      <use xlink:href="#DejaVuSans-31" transform="translate(278.032227 -16.390625) scale(0.7)"/>
      <use xlink:href="#DejaVuSans-29" transform="translate(325.302734 0.015625)"/>
      <use xlink:href="#DejaVuSans-20" transform="translate(364.316406 0.015625)"/>
      <use xlink:href="#DejaVuSans-5b" transform="translate(396.103516 0.015625)"/>
      <use xlink:href="#DejaVuSans-6d" transform="translate(435.117188 0.015625)"/>
      <use xlink:href="#DejaVuSans-56" transform="translate(532.529297 0.015625)"/>
      <use xlink:href="#DejaVuSans-5d" transform="translate(600.9375 0.015625)"/>
     </g>
    </g>
   </g>
   <g id="matplotlib.axis_2">
    <g id="ytick_1">
     <g id="line2d_9">
      <defs>
       <path id="mffe2d091fc" d="M 0 0 
L -3.5 0 
" style="stroke: #000000; stroke-width: 0.8"/>
      </defs>
      <g>
       <use xlink:href="#mffe2d091fc" x="44.210938" y="303.423291" style="stroke: #000000; stroke-width: 0.8"/>
      </g>
     </g>
     <g id="text_10">
      <!-- -40 -->
      <g transform="translate(20.878125 307.22251) scale(0.1 -0.1)">
       <use xlink:href="#DejaVuSans-2d"/>
       <use xlink:href="#DejaVuSans-34" x="36.083984"/>
       <use xlink:href="#DejaVuSans-30" x="99.707031"/>
      </g>
     </g>
    </g>
    <g id="ytick_2">
     <g id="line2d_10">
      <g>
       <use xlink:href="#mffe2d091fc" x="44.210938" y="272.255413" style="stroke: #000000; stroke-width: 0.8"/>
      </g>
     </g>
     <g id="text_11">
      <!-- -30 -->
      <g transform="translate(20.878125 276.054632) scale(0.1 -0.1)">
       <use xlink:href="#DejaVuSans-2d"/>
       <use xlink:href="#DejaVuSans-33" x="36.083984"/>
       <use xlink:href="#DejaVuSans-30" x="99.707031"/>
      </g>
     </g>
    </g>
    <g id="ytick_3">
     <g id="line2d_11">
      <g>
       <use xlink:href="#mffe2d091fc" x="44.210938" y="241.087535" style="stroke: #000000; stroke-width: 0.8"/>
      </g>
     </g>
     <g id="text_12">
      <!-- -20 -->
      <g transform="translate(20.878125 244.886753) scale(0.1 -0.1)">
       <use xlink:href="#DejaVuSans-2d"/>
       <use xlink:href="#DejaVuSans-32" x="36.083984"/>
       <use xlink:href="#DejaVuSans-30" x="99.707031"/>
      </g>
     </g>
    </g>
    <g id="ytick_4">
     <g id="line2d_12">
      <g>
       <use xlink:href="#mffe2d091fc" x="44.210938" y="209.919656" style="stroke: #000000; stroke-width: 0.8"/>
      </g>
     </g>
     <g id="text_13">
      <!-- -10 -->
      <g transform="translate(20.878125 213.718875) scale(0.1 -0.1)">
       <use xlink:href="#DejaVuSans-2d"/>
       <use xlink:href="#DejaVuSans-31" x="36.083984"/>
       <use xlink:href="#DejaVuSans-30" x="99.707031"/>
      </g>
     </g>
    </g>
    <g id="ytick_5">
     <g id="line2d_13">
      <g>
       <use xlink:href="#mffe2d091fc" x="44.210938" y="178.751778" style="stroke: #000000; stroke-width: 0.8"/>
      </g>
     </g>
     <g id="text_14">
      <!-- 0 -->
      <g transform="translate(30.848437 182.550997) scale(0.1 -0.1)">
       <use xlink:href="#DejaVuSans-30"/>
      </g>
     </g>
    </g>
    <g id="ytick_6">
     <g id="line2d_14">
      <g>
       <use xlink:href="#mffe2d091fc" x="44.210938" y="147.5839" style="stroke: #000000; stroke-width: 0.8"/>
      </g>
     </g>
     <g id="text_15">
      <!-- 10 -->
      <g transform="translate(24.485937 151.383119) scale(0.1 -0.1)">
       <use xlink:href="#DejaVuSans-31"/>
       <use xlink:href="#DejaVuSans-30" x="63.623047"/>
      </g>
     </g>
    </g>
    <g id="ytick_7">
     <g id="line2d_15">
      <g>
       <use xlink:href="#mffe2d091fc" x="44.210938" y="116.416022" style="stroke: #000000; stroke-width: 0.8"/>
      </g>
     </g>
     <g id="text_16">
      <!-- 20 -->
      <g transform="translate(24.485937 120.215241) scale(0.1 -0.1)">
       <use xlink:href="#DejaVuSans-32"/>
       <use xlink:href="#DejaVuSans-30" x="63.623047"/>
      </g>
     </g>
    </g>
    <g id="ytick_8">
     <g id="line2d_16">
      <g>
       <use xlink:href="#mffe2d091fc" x="44.210938" y="85.248144" style="stroke: #000000; stroke-width: 0.8"/>
      </g>
     </g>
     <g id="text_17">
      <!-- 30 -->
      <g transform="translate(24.485937 89.047363) scale(0.1 -0.1)">
       <use xlink:href="#DejaVuSans-33"/>
       <use xlink:href="#DejaVuSans-30" x="63.623047"/>
      </g>
     </g>
    </g>
    <g id="ytick_9">
     <g id="line2d_17">
      <g>
       <use xlink:href="#mffe2d091fc" x="44.210938" y="54.080266" style="stroke: #000000; stroke-width: 0.8"/>
      </g>
     </g>
     <g id="text_18">
      <!-- 40 -->
      <g transform="translate(24.485937 57.879485) scale(0.1 -0.1)">
       <use xlink:href="#DejaVuSans-34"/>
       <use xlink:href="#DejaVuSans-30" x="63.623047"/>
      </g>
     </g>
    </g>
    <g id="text_19">
     <!-- Im$(S_{21})$ [mV] -->
     <g transform="translate(14.798437 206.466) rotate(-90) scale(0.1 -0.1)">
      <defs>
       <path id="DejaVuSans-49" d="M 628 4666 
L 1259 4666 
L 1259 0 
L 628 0 
L 628 4666 
z
" transform="scale(0.015625)"/>
      </defs>
      <use xlink:href="#DejaVuSans-49" transform="translate(0 0.015625)"/>
      <use xlink:href="#DejaVuSans-6d" transform="translate(25.867188 0.015625)"/>
      <use xlink:href="#DejaVuSans-28" transform="translate(123.279297 0.015625)"/>
      <use xlink:href="#DejaVuSans-Oblique-53" transform="translate(162.292969 0.015625)"/>
      <use xlink:href="#DejaVuSans-32" transform="translate(225.769531 -16.390625) scale(0.7)"/>
      <use xlink:href="#DejaVuSans-31" transform="translate(270.305664 -16.390625) scale(0.7)"/>
      <use xlink:href="#DejaVuSans-29" transform="translate(317.576172 0.015625)"/>
      <use xlink:href="#DejaVuSans-20" transform="translate(356.589844 0.015625)"/>
      <use xlink:href="#DejaVuSans-5b" transform="translate(388.376953 0.015625)"/>
      <use xlink:href="#DejaVuSans-6d" transform="translate(427.390625 0.015625)"/>
      <use xlink:href="#DejaVuSans-56" transform="translate(524.802734 0.015625)"/>
      <use xlink:href="#DejaVuSans-5d" transform="translate(593.210938 0.015625)"/>
     </g>
    </g>
   </g>
   <g id="line2d_18">
    <path d="M 345.526935 263.69213 
L 337.294539 268.842212 
L 328.495765 273.440771 
L 319.548347 277.633752 
L 309.823754 281.672482 
L 300.113985 285.266565 
L 289.928183 288.244604 
L 279.436348 290.79765 
L 268.719063 292.728531 
L 257.463779 294.130029 
L 246.560133 295.326454 
L 235.181444 295.732877 
L 224.474028 295.776 
L 213.008353 295.197576 
L 201.92716 294.16498 
L 191.017947 292.56688 
L 179.860546 290.510884 
L 169.693767 288.06131 
L 159.31136 284.894956 
L 149.167944 281.160563 
L 139.539384 277.012281 
L 130.451623 272.877153 
L 121.171544 267.905621 
L 105.23027 256.71766 
L 97.797422 250.853704 
L 90.904574 244.301373 
L 79.415496 230.536211 
L 74.639314 223.248542 
L 70.333739 215.503826 
L 66.804974 207.615239 
L 64.188803 199.883091 
L 61.977898 191.708333 
L 60.443665 175.342278 
L 61.100719 167.067712 
L 64.769613 150.829573 
L 67.856776 142.718065 
L 71.903728 134.474253 
L 75.88696 126.664017 
L 82.067642 119.171502 
L 87.667729 111.349927 
L 103.011926 97.099822 
L 111.228382 90.495496 
L 120.960682 84.760289 
L 132.171137 78.591125 
L 143.905144 71.231155 
L 155.622245 67.228103 
L 168.059117 64.461466 
L 180.631396 61.381161 
L 195.714606 58.655639 
L 211.746704 57.075405 
L 224.334986 57.570964 
L 246.380093 59.377662 
L 273.067687 65.19233 
L 303.752692 77.688087 
L 324.852486 94.805641 
L 336.231913 110.946574 
L 336.452006 126.140455 
L 331.237975 139.05243 
L 322.16615 149.103449 
L 310.502014 155.706068 
L 297.409726 159.432345 
L 285.453828 159.726692 
L 276.701213 156.956734 
L 269.738606 153.264377 
L 266.446323 148.215661 
L 267.572771 143.277204 
L 270.159729 139.11244 
L 275.664531 135.668745 
L 282.199853 132.548945 
L 290.696283 131.309874 
L 298.673563 131.570366 
L 306.219022 132.850949 
L 313.814108 134.740885 
L 320.855096 137.729166 
L 327.577866 140.990779 
L 333.899394 144.842503 
L 339.557277 149.198475 
L 344.791416 154.152164 
L 349.299915 159.520486 
L 352.686155 165.435582 
L 355.214796 171.230328 
L 357.031912 177.130973 
L 358.36634 183.241619 
L 358.928158 189.24099 
L 358.87602 195.871762 
L 357.953711 202.186448 
L 356.197855 208.326064 
L 354.021843 214.527573 
L 350.918133 220.445 
L 347.241309 226.491005 
L 343.016552 231.967069 
L 337.746005 237.575113 
L 326.450629 247.489214 
L 319.696544 252.056152 
L 312.892072 256.330125 
L 305.654549 260.148209 
L 289.710275 266.935332 
L 272.380724 272.003178 
L 263.91069 273.753383 
L 254.681726 275.196866 
L 245.407593 276.209904 
L 235.861477 276.898486 
L 226.976765 276.818486 
L 208.357919 275.845758 
L 199.129284 274.30087 
L 190.671826 272.679862 
L 181.884484 270.783738 
L 173.124684 268.435384 
L 165.254448 265.343747 
L 156.38674 262.283893 
L 148.476787 258.508759 
L 140.686161 254.587617 
L 128.588976 245.436444 
L 122.461376 240.661416 
L 117.42767 235.600966 
L 112.845241 230.601194 
L 108.587305 224.733146 
L 103.528012 218.895861 
L 99.4612 212.680994 
L 95.828178 206.442644 
L 91.305486 193.454001 
L 90.018725 186.767825 
L 89.222495 180.139893 
L 88.738844 173.356524 
L 89.394363 166.737916 
L 90.578486 159.963076 
L 92.312913 153.427382 
L 95.113851 147.061507 
L 98.123464 140.532856 
L 101.957581 134.263728 
L 106.299985 127.969084 
L 111.159136 122.29291 
L 122.5699 111.135329 
L 129.095624 105.991235 
L 136.087212 101.221241 
L 143.278086 96.825863 
L 151.240572 92.67395 
L 159.581569 88.87533 
L 176.915495 82.583056 
L 186.209724 80.158531 
L 195.875944 78.064112 
L 205.375249 76.240481 
L 225.121859 74.522163 
L 234.687998 74.368764 
L 244.711243 74.444651 
L 254.908087 75.03684 
L 274.368814 77.929267 
L 283.915995 80.018302 
L 293.172205 82.571245 
L 302.324309 85.345217 
L 310.877588 88.73135 
L 319.466972 92.434146 
L 335.254773 101.211535 
L 342.417522 106.05743 
L 349.226661 111.38738 
L 355.605384 116.838073 
L 360.988591 122.607433 
L 366.431372 128.817101 
L 371.159767 134.909639 
L 374.937513 141.435439 
L 378.410108 148.185106 
L 380.695676 154.753253 
L 382.868675 161.867425 
L 384.241868 168.906306 
L 384.94586 175.894872 
L 385.09821 182.968361 
L 384.468877 190.051584 
L 383.423827 197.346586 
L 378.846455 211.010721 
L 375.338501 217.928775 
L 371.609177 224.386267 
L 367.034988 230.792151 
L 361.873494 236.887503 
L 356.087186 242.993879 
L 349.837996 248.418335 
L 343.135567 253.731 
L 335.919463 258.701126 
L 328.031322 263.412624 
L 319.882612 267.689204 
L 311.576919 271.664602 
L 302.559225 275.157394 
L 293.390238 278.265636 
L 283.850519 280.959452 
L 283.850519 280.959452 
" clip-path="url(#p032bcc722d)" style="fill: none; stroke: #1f77b4; stroke-width: 1.5; stroke-linecap: square"/>
    <defs>
     <path id="m2039f08069" d="M 0 1.5 
C 0.397805 1.5 0.77937 1.341951 1.06066 1.06066 
C 1.341951 0.77937 1.5 0.397805 1.5 0 
C 1.5 -0.397805 1.341951 -0.77937 1.06066 -1.06066 
C 0.77937 -1.341951 0.397805 -1.5 0 -1.5 
C -0.397805 -1.5 -0.77937 -1.341951 -1.06066 -1.06066 
C -1.341951 -0.77937 -1.5 -0.397805 -1.5 0 
C -1.5 0.397805 -1.341951 0.77937 -1.06066 1.06066 
C -0.77937 1.341951 -0.397805 1.5 0 1.5 
z
" style="stroke: #1f77b4"/>
    </defs>
    <g clip-path="url(#p032bcc722d)">
     <use xlink:href="#m2039f08069" x="345.526935" y="263.69213" style="fill: #1f77b4; stroke: #1f77b4"/>
     <use xlink:href="#m2039f08069" x="337.294539" y="268.842212" style="fill: #1f77b4; stroke: #1f77b4"/>
     <use xlink:href="#m2039f08069" x="328.495765" y="273.440771" style="fill: #1f77b4; stroke: #1f77b4"/>
     <use xlink:href="#m2039f08069" x="319.548347" y="277.633752" style="fill: #1f77b4; stroke: #1f77b4"/>
     <use xlink:href="#m2039f08069" x="309.823754" y="281.672482" style="fill: #1f77b4; stroke: #1f77b4"/>
     <use xlink:href="#m2039f08069" x="300.113985" y="285.266565" style="fill: #1f77b4; stroke: #1f77b4"/>
     <use xlink:href="#m2039f08069" x="289.928183" y="288.244604" style="fill: #1f77b4; stroke: #1f77b4"/>
     <use xlink:href="#m2039f08069" x="279.436348" y="290.79765" style="fill: #1f77b4; stroke: #1f77b4"/>
     <use xlink:href="#m2039f08069" x="268.719063" y="292.728531" style="fill: #1f77b4; stroke: #1f77b4"/>
     <use xlink:href="#m2039f08069" x="257.463779" y="294.130029" style="fill: #1f77b4; stroke: #1f77b4"/>
     <use xlink:href="#m2039f08069" x="246.560133" y="295.326454" style="fill: #1f77b4; stroke: #1f77b4"/>
     <use xlink:href="#m2039f08069" x="235.181444" y="295.732877" style="fill: #1f77b4; stroke: #1f77b4"/>
     <use xlink:href="#m2039f08069" x="224.474028" y="295.776" style="fill: #1f77b4; stroke: #1f77b4"/>
     <use xlink:href="#m2039f08069" x="213.008353" y="295.197576" style="fill: #1f77b4; stroke: #1f77b4"/>
     <use xlink:href="#m2039f08069" x="201.92716" y="294.16498" style="fill: #1f77b4; stroke: #1f77b4"/>
     <use xlink:href="#m2039f08069" x="191.017947" y="292.56688" style="fill: #1f77b4; stroke: #1f77b4"/>
     <use xlink:href="#m2039f08069" x="179.860546" y="290.510884" style="fill: #1f77b4; stroke: #1f77b4"/>
     <use xlink:href="#m2039f08069" x="169.693767" y="288.06131" style="fill: #1f77b4; stroke: #1f77b4"/>
     <use xlink:href="#m2039f08069" x="159.31136" y="284.894956" style="fill: #1f77b4; stroke: #1f77b4"/>
     <use xlink:href="#m2039f08069" x="149.167944" y="281.160563" style="fill: #1f77b4; stroke: #1f77b4"/>
     <use xlink:href="#m2039f08069" x="139.539384" y="277.012281" style="fill: #1f77b4; stroke: #1f77b4"/>
     <use xlink:href="#m2039f08069" x="130.451623" y="272.877153" style="fill: #1f77b4; stroke: #1f77b4"/>
     <use xlink:href="#m2039f08069" x="121.171544" y="267.905621" style="fill: #1f77b4; stroke: #1f77b4"/>
     <use xlink:href="#m2039f08069" x="113.527311" y="262.477104" style="fill: #1f77b4; stroke: #1f77b4"/>
     <use xlink:href="#m2039f08069" x="105.23027" y="256.71766" style="fill: #1f77b4; stroke: #1f77b4"/>
     <use xlink:href="#m2039f08069" x="97.797422" y="250.853704" style="fill: #1f77b4; stroke: #1f77b4"/>
     <use xlink:href="#m2039f08069" x="90.904574" y="244.301373" style="fill: #1f77b4; stroke: #1f77b4"/>
     <use xlink:href="#m2039f08069" x="85.382823" y="237.611701" style="fill: #1f77b4; stroke: #1f77b4"/>
     <use xlink:href="#m2039f08069" x="79.415496" y="230.536211" style="fill: #1f77b4; stroke: #1f77b4"/>
     <use xlink:href="#m2039f08069" x="74.639314" y="223.248542" style="fill: #1f77b4; stroke: #1f77b4"/>
     <use xlink:href="#m2039f08069" x="70.333739" y="215.503826" style="fill: #1f77b4; stroke: #1f77b4"/>
     <use xlink:href="#m2039f08069" x="66.804974" y="207.615239" style="fill: #1f77b4; stroke: #1f77b4"/>
     <use xlink:href="#m2039f08069" x="64.188803" y="199.883091" style="fill: #1f77b4; stroke: #1f77b4"/>
     <use xlink:href="#m2039f08069" x="61.977898" y="191.708333" style="fill: #1f77b4; stroke: #1f77b4"/>
     <use xlink:href="#m2039f08069" x="61.216216" y="183.499015" style="fill: #1f77b4; stroke: #1f77b4"/>
     <use xlink:href="#m2039f08069" x="60.443665" y="175.342278" style="fill: #1f77b4; stroke: #1f77b4"/>
     <use xlink:href="#m2039f08069" x="61.100719" y="167.067712" style="fill: #1f77b4; stroke: #1f77b4"/>
     <use xlink:href="#m2039f08069" x="62.930884" y="158.872319" style="fill: #1f77b4; stroke: #1f77b4"/>
     <use xlink:href="#m2039f08069" x="64.769613" y="150.829573" style="fill: #1f77b4; stroke: #1f77b4"/>
     <use xlink:href="#m2039f08069" x="67.856776" y="142.718065" style="fill: #1f77b4; stroke: #1f77b4"/>
     <use xlink:href="#m2039f08069" x="71.903728" y="134.474253" style="fill: #1f77b4; stroke: #1f77b4"/>
     <use xlink:href="#m2039f08069" x="75.88696" y="126.664017" style="fill: #1f77b4; stroke: #1f77b4"/>
     <use xlink:href="#m2039f08069" x="82.067642" y="119.171502" style="fill: #1f77b4; stroke: #1f77b4"/>
     <use xlink:href="#m2039f08069" x="87.667729" y="111.349927" style="fill: #1f77b4; stroke: #1f77b4"/>
     <use xlink:href="#m2039f08069" x="94.836739" y="104.730397" style="fill: #1f77b4; stroke: #1f77b4"/>
     <use xlink:href="#m2039f08069" x="103.011926" y="97.099822" style="fill: #1f77b4; stroke: #1f77b4"/>
     <use xlink:href="#m2039f08069" x="111.228382" y="90.495496" style="fill: #1f77b4; stroke: #1f77b4"/>
     <use xlink:href="#m2039f08069" x="120.960682" y="84.760289" style="fill: #1f77b4; stroke: #1f77b4"/>
     <use xlink:href="#m2039f08069" x="132.171137" y="78.591125" style="fill: #1f77b4; stroke: #1f77b4"/>
     <use xlink:href="#m2039f08069" x="143.905144" y="71.231155" style="fill: #1f77b4; stroke: #1f77b4"/>
     <use xlink:href="#m2039f08069" x="155.622245" y="67.228103" style="fill: #1f77b4; stroke: #1f77b4"/>
     <use xlink:href="#m2039f08069" x="168.059117" y="64.461466" style="fill: #1f77b4; stroke: #1f77b4"/>
     <use xlink:href="#m2039f08069" x="180.631396" y="61.381161" style="fill: #1f77b4; stroke: #1f77b4"/>
     <use xlink:href="#m2039f08069" x="195.714606" y="58.655639" style="fill: #1f77b4; stroke: #1f77b4"/>
     <use xlink:href="#m2039f08069" x="211.746704" y="57.075405" style="fill: #1f77b4; stroke: #1f77b4"/>
     <use xlink:href="#m2039f08069" x="224.334986" y="57.570964" style="fill: #1f77b4; stroke: #1f77b4"/>
     <use xlink:href="#m2039f08069" x="246.380093" y="59.377662" style="fill: #1f77b4; stroke: #1f77b4"/>
     <use xlink:href="#m2039f08069" x="273.067687" y="65.19233" style="fill: #1f77b4; stroke: #1f77b4"/>
     <use xlink:href="#m2039f08069" x="303.752692" y="77.688087" style="fill: #1f77b4; stroke: #1f77b4"/>
     <use xlink:href="#m2039f08069" x="324.852486" y="94.805641" style="fill: #1f77b4; stroke: #1f77b4"/>
     <use xlink:href="#m2039f08069" x="336.231913" y="110.946574" style="fill: #1f77b4; stroke: #1f77b4"/>
     <use xlink:href="#m2039f08069" x="336.452006" y="126.140455" style="fill: #1f77b4; stroke: #1f77b4"/>
     <use xlink:href="#m2039f08069" x="331.237975" y="139.05243" style="fill: #1f77b4; stroke: #1f77b4"/>
     <use xlink:href="#m2039f08069" x="322.16615" y="149.103449" style="fill: #1f77b4; stroke: #1f77b4"/>
     <use xlink:href="#m2039f08069" x="310.502014" y="155.706068" style="fill: #1f77b4; stroke: #1f77b4"/>
     <use xlink:href="#m2039f08069" x="297.409726" y="159.432345" style="fill: #1f77b4; stroke: #1f77b4"/>
     <use xlink:href="#m2039f08069" x="285.453828" y="159.726692" style="fill: #1f77b4; stroke: #1f77b4"/>
     <use xlink:href="#m2039f08069" x="276.701213" y="156.956734" style="fill: #1f77b4; stroke: #1f77b4"/>
     <use xlink:href="#m2039f08069" x="269.738606" y="153.264377" style="fill: #1f77b4; stroke: #1f77b4"/>
     <use xlink:href="#m2039f08069" x="266.446323" y="148.215661" style="fill: #1f77b4; stroke: #1f77b4"/>
     <use xlink:href="#m2039f08069" x="267.572771" y="143.277204" style="fill: #1f77b4; stroke: #1f77b4"/>
     <use xlink:href="#m2039f08069" x="270.159729" y="139.11244" style="fill: #1f77b4; stroke: #1f77b4"/>
     <use xlink:href="#m2039f08069" x="275.664531" y="135.668745" style="fill: #1f77b4; stroke: #1f77b4"/>
     <use xlink:href="#m2039f08069" x="282.199853" y="132.548945" style="fill: #1f77b4; stroke: #1f77b4"/>
     <use xlink:href="#m2039f08069" x="290.696283" y="131.309874" style="fill: #1f77b4; stroke: #1f77b4"/>
     <use xlink:href="#m2039f08069" x="298.673563" y="131.570366" style="fill: #1f77b4; stroke: #1f77b4"/>
     <use xlink:href="#m2039f08069" x="306.219022" y="132.850949" style="fill: #1f77b4; stroke: #1f77b4"/>
     <use xlink:href="#m2039f08069" x="313.814108" y="134.740885" style="fill: #1f77b4; stroke: #1f77b4"/>
     <use xlink:href="#m2039f08069" x="320.855096" y="137.729166" style="fill: #1f77b4; stroke: #1f77b4"/>
     <use xlink:href="#m2039f08069" x="327.577866" y="140.990779" style="fill: #1f77b4; stroke: #1f77b4"/>
     <use xlink:href="#m2039f08069" x="333.899394" y="144.842503" style="fill: #1f77b4; stroke: #1f77b4"/>
     <use xlink:href="#m2039f08069" x="339.557277" y="149.198475" style="fill: #1f77b4; stroke: #1f77b4"/>
     <use xlink:href="#m2039f08069" x="344.791416" y="154.152164" style="fill: #1f77b4; stroke: #1f77b4"/>
     <use xlink:href="#m2039f08069" x="349.299915" y="159.520486" style="fill: #1f77b4; stroke: #1f77b4"/>
     <use xlink:href="#m2039f08069" x="352.686155" y="165.435582" style="fill: #1f77b4; stroke: #1f77b4"/>
     <use xlink:href="#m2039f08069" x="355.214796" y="171.230328" style="fill: #1f77b4; stroke: #1f77b4"/>
     <use xlink:href="#m2039f08069" x="357.031912" y="177.130973" style="fill: #1f77b4; stroke: #1f77b4"/>
     <use xlink:href="#m2039f08069" x="358.36634" y="183.241619" style="fill: #1f77b4; stroke: #1f77b4"/>
     <use xlink:href="#m2039f08069" x="358.928158" y="189.24099" style="fill: #1f77b4; stroke: #1f77b4"/>
     <use xlink:href="#m2039f08069" x="358.87602" y="195.871762" style="fill: #1f77b4; stroke: #1f77b4"/>
     <use xlink:href="#m2039f08069" x="357.953711" y="202.186448" style="fill: #1f77b4; stroke: #1f77b4"/>
     <use xlink:href="#m2039f08069" x="356.197855" y="208.326064" style="fill: #1f77b4; stroke: #1f77b4"/>
     <use xlink:href="#m2039f08069" x="354.021843" y="214.527573" style="fill: #1f77b4; stroke: #1f77b4"/>
     <use xlink:href="#m2039f08069" x="350.918133" y="220.445" style="fill: #1f77b4; stroke: #1f77b4"/>
     <use xlink:href="#m2039f08069" x="347.241309" y="226.491005" style="fill: #1f77b4; stroke: #1f77b4"/>
     <use xlink:href="#m2039f08069" x="343.016552" y="231.967069" style="fill: #1f77b4; stroke: #1f77b4"/>
     <use xlink:href="#m2039f08069" x="337.746005" y="237.575113" style="fill: #1f77b4; stroke: #1f77b4"/>
     <use xlink:href="#m2039f08069" x="332.226844" y="242.3738" style="fill: #1f77b4; stroke: #1f77b4"/>
     <use xlink:href="#m2039f08069" x="326.450629" y="247.489214" style="fill: #1f77b4; stroke: #1f77b4"/>
     <use xlink:href="#m2039f08069" x="319.696544" y="252.056152" style="fill: #1f77b4; stroke: #1f77b4"/>
     <use xlink:href="#m2039f08069" x="312.892072" y="256.330125" style="fill: #1f77b4; stroke: #1f77b4"/>
     <use xlink:href="#m2039f08069" x="305.654549" y="260.148209" style="fill: #1f77b4; stroke: #1f77b4"/>
     <use xlink:href="#m2039f08069" x="297.609576" y="263.596515" style="fill: #1f77b4; stroke: #1f77b4"/>
     <use xlink:href="#m2039f08069" x="289.710275" y="266.935332" style="fill: #1f77b4; stroke: #1f77b4"/>
     <use xlink:href="#m2039f08069" x="281.300549" y="269.361787" style="fill: #1f77b4; stroke: #1f77b4"/>
     <use xlink:href="#m2039f08069" x="272.380724" y="272.003178" style="fill: #1f77b4; stroke: #1f77b4"/>
     <use xlink:href="#m2039f08069" x="263.91069" y="273.753383" style="fill: #1f77b4; stroke: #1f77b4"/>
     <use xlink:href="#m2039f08069" x="254.681726" y="275.196866" style="fill: #1f77b4; stroke: #1f77b4"/>
     <use xlink:href="#m2039f08069" x="245.407593" y="276.209904" style="fill: #1f77b4; stroke: #1f77b4"/>
     <use xlink:href="#m2039f08069" x="235.861477" y="276.898486" style="fill: #1f77b4; stroke: #1f77b4"/>
     <use xlink:href="#m2039f08069" x="226.976765" y="276.818486" style="fill: #1f77b4; stroke: #1f77b4"/>
     <use xlink:href="#m2039f08069" x="218.091205" y="276.39402" style="fill: #1f77b4; stroke: #1f77b4"/>
     <use xlink:href="#m2039f08069" x="208.357919" y="275.845758" style="fill: #1f77b4; stroke: #1f77b4"/>
     <use xlink:href="#m2039f08069" x="199.129284" y="274.30087" style="fill: #1f77b4; stroke: #1f77b4"/>
     <use xlink:href="#m2039f08069" x="190.671826" y="272.679862" style="fill: #1f77b4; stroke: #1f77b4"/>
     <use xlink:href="#m2039f08069" x="181.884484" y="270.783738" style="fill: #1f77b4; stroke: #1f77b4"/>
     <use xlink:href="#m2039f08069" x="173.124684" y="268.435384" style="fill: #1f77b4; stroke: #1f77b4"/>
     <use xlink:href="#m2039f08069" x="165.254448" y="265.343747" style="fill: #1f77b4; stroke: #1f77b4"/>
     <use xlink:href="#m2039f08069" x="156.38674" y="262.283893" style="fill: #1f77b4; stroke: #1f77b4"/>
     <use xlink:href="#m2039f08069" x="148.476787" y="258.508759" style="fill: #1f77b4; stroke: #1f77b4"/>
     <use xlink:href="#m2039f08069" x="140.686161" y="254.587617" style="fill: #1f77b4; stroke: #1f77b4"/>
     <use xlink:href="#m2039f08069" x="134.414704" y="249.876401" style="fill: #1f77b4; stroke: #1f77b4"/>
     <use xlink:href="#m2039f08069" x="128.588976" y="245.436444" style="fill: #1f77b4; stroke: #1f77b4"/>
     <use xlink:href="#m2039f08069" x="122.461376" y="240.661416" style="fill: #1f77b4; stroke: #1f77b4"/>
     <use xlink:href="#m2039f08069" x="117.42767" y="235.600966" style="fill: #1f77b4; stroke: #1f77b4"/>
     <use xlink:href="#m2039f08069" x="112.845241" y="230.601194" style="fill: #1f77b4; stroke: #1f77b4"/>
     <use xlink:href="#m2039f08069" x="108.587305" y="224.733146" style="fill: #1f77b4; stroke: #1f77b4"/>
     <use xlink:href="#m2039f08069" x="103.528012" y="218.895861" style="fill: #1f77b4; stroke: #1f77b4"/>
     <use xlink:href="#m2039f08069" x="99.4612" y="212.680994" style="fill: #1f77b4; stroke: #1f77b4"/>
     <use xlink:href="#m2039f08069" x="95.828178" y="206.442644" style="fill: #1f77b4; stroke: #1f77b4"/>
     <use xlink:href="#m2039f08069" x="93.616926" y="199.969942" style="fill: #1f77b4; stroke: #1f77b4"/>
     <use xlink:href="#m2039f08069" x="91.305486" y="193.454001" style="fill: #1f77b4; stroke: #1f77b4"/>
     <use xlink:href="#m2039f08069" x="90.018725" y="186.767825" style="fill: #1f77b4; stroke: #1f77b4"/>
     <use xlink:href="#m2039f08069" x="89.222495" y="180.139893" style="fill: #1f77b4; stroke: #1f77b4"/>
     <use xlink:href="#m2039f08069" x="88.738844" y="173.356524" style="fill: #1f77b4; stroke: #1f77b4"/>
     <use xlink:href="#m2039f08069" x="89.394363" y="166.737916" style="fill: #1f77b4; stroke: #1f77b4"/>
     <use xlink:href="#m2039f08069" x="90.578486" y="159.963076" style="fill: #1f77b4; stroke: #1f77b4"/>
     <use xlink:href="#m2039f08069" x="92.312913" y="153.427382" style="fill: #1f77b4; stroke: #1f77b4"/>
     <use xlink:href="#m2039f08069" x="95.113851" y="147.061507" style="fill: #1f77b4; stroke: #1f77b4"/>
     <use xlink:href="#m2039f08069" x="98.123464" y="140.532856" style="fill: #1f77b4; stroke: #1f77b4"/>
     <use xlink:href="#m2039f08069" x="101.957581" y="134.263728" style="fill: #1f77b4; stroke: #1f77b4"/>
     <use xlink:href="#m2039f08069" x="106.299985" y="127.969084" style="fill: #1f77b4; stroke: #1f77b4"/>
     <use xlink:href="#m2039f08069" x="111.159136" y="122.29291" style="fill: #1f77b4; stroke: #1f77b4"/>
     <use xlink:href="#m2039f08069" x="116.970361" y="116.585221" style="fill: #1f77b4; stroke: #1f77b4"/>
     <use xlink:href="#m2039f08069" x="122.5699" y="111.135329" style="fill: #1f77b4; stroke: #1f77b4"/>
     <use xlink:href="#m2039f08069" x="129.095624" y="105.991235" style="fill: #1f77b4; stroke: #1f77b4"/>
     <use xlink:href="#m2039f08069" x="136.087212" y="101.221241" style="fill: #1f77b4; stroke: #1f77b4"/>
     <use xlink:href="#m2039f08069" x="143.278086" y="96.825863" style="fill: #1f77b4; stroke: #1f77b4"/>
     <use xlink:href="#m2039f08069" x="151.240572" y="92.67395" style="fill: #1f77b4; stroke: #1f77b4"/>
     <use xlink:href="#m2039f08069" x="159.581569" y="88.87533" style="fill: #1f77b4; stroke: #1f77b4"/>
     <use xlink:href="#m2039f08069" x="168.504032" y="85.647207" style="fill: #1f77b4; stroke: #1f77b4"/>
     <use xlink:href="#m2039f08069" x="176.915495" y="82.583056" style="fill: #1f77b4; stroke: #1f77b4"/>
     <use xlink:href="#m2039f08069" x="186.209724" y="80.158531" style="fill: #1f77b4; stroke: #1f77b4"/>
     <use xlink:href="#m2039f08069" x="195.875944" y="78.064112" style="fill: #1f77b4; stroke: #1f77b4"/>
     <use xlink:href="#m2039f08069" x="205.375249" y="76.240481" style="fill: #1f77b4; stroke: #1f77b4"/>
     <use xlink:href="#m2039f08069" x="215.015076" y="75.371085" style="fill: #1f77b4; stroke: #1f77b4"/>
     <use xlink:href="#m2039f08069" x="225.121859" y="74.522163" style="fill: #1f77b4; stroke: #1f77b4"/>
     <use xlink:href="#m2039f08069" x="234.687998" y="74.368764" style="fill: #1f77b4; stroke: #1f77b4"/>
     <use xlink:href="#m2039f08069" x="244.711243" y="74.444651" style="fill: #1f77b4; stroke: #1f77b4"/>
     <use xlink:href="#m2039f08069" x="254.908087" y="75.03684" style="fill: #1f77b4; stroke: #1f77b4"/>
     <use xlink:href="#m2039f08069" x="264.482296" y="76.426043" style="fill: #1f77b4; stroke: #1f77b4"/>
     <use xlink:href="#m2039f08069" x="274.368814" y="77.929267" style="fill: #1f77b4; stroke: #1f77b4"/>
     <use xlink:href="#m2039f08069" x="283.915995" y="80.018302" style="fill: #1f77b4; stroke: #1f77b4"/>
     <use xlink:href="#m2039f08069" x="293.172205" y="82.571245" style="fill: #1f77b4; stroke: #1f77b4"/>
     <use xlink:href="#m2039f08069" x="302.324309" y="85.345217" style="fill: #1f77b4; stroke: #1f77b4"/>
     <use xlink:href="#m2039f08069" x="310.877588" y="88.73135" style="fill: #1f77b4; stroke: #1f77b4"/>
     <use xlink:href="#m2039f08069" x="319.466972" y="92.434146" style="fill: #1f77b4; stroke: #1f77b4"/>
     <use xlink:href="#m2039f08069" x="327.54961" y="96.863519" style="fill: #1f77b4; stroke: #1f77b4"/>
     <use xlink:href="#m2039f08069" x="335.254773" y="101.211535" style="fill: #1f77b4; stroke: #1f77b4"/>
     <use xlink:href="#m2039f08069" x="342.417522" y="106.05743" style="fill: #1f77b4; stroke: #1f77b4"/>
     <use xlink:href="#m2039f08069" x="349.226661" y="111.38738" style="fill: #1f77b4; stroke: #1f77b4"/>
     <use xlink:href="#m2039f08069" x="355.605384" y="116.838073" style="fill: #1f77b4; stroke: #1f77b4"/>
     <use xlink:href="#m2039f08069" x="360.988591" y="122.607433" style="fill: #1f77b4; stroke: #1f77b4"/>
     <use xlink:href="#m2039f08069" x="366.431372" y="128.817101" style="fill: #1f77b4; stroke: #1f77b4"/>
     <use xlink:href="#m2039f08069" x="371.159767" y="134.909639" style="fill: #1f77b4; stroke: #1f77b4"/>
     <use xlink:href="#m2039f08069" x="374.937513" y="141.435439" style="fill: #1f77b4; stroke: #1f77b4"/>
     <use xlink:href="#m2039f08069" x="378.410108" y="148.185106" style="fill: #1f77b4; stroke: #1f77b4"/>
     <use xlink:href="#m2039f08069" x="380.695676" y="154.753253" style="fill: #1f77b4; stroke: #1f77b4"/>
     <use xlink:href="#m2039f08069" x="382.868675" y="161.867425" style="fill: #1f77b4; stroke: #1f77b4"/>
     <use xlink:href="#m2039f08069" x="384.241868" y="168.906306" style="fill: #1f77b4; stroke: #1f77b4"/>
     <use xlink:href="#m2039f08069" x="384.94586" y="175.894872" style="fill: #1f77b4; stroke: #1f77b4"/>
     <use xlink:href="#m2039f08069" x="385.09821" y="182.968361" style="fill: #1f77b4; stroke: #1f77b4"/>
     <use xlink:href="#m2039f08069" x="384.468877" y="190.051584" style="fill: #1f77b4; stroke: #1f77b4"/>
     <use xlink:href="#m2039f08069" x="383.423827" y="197.346586" style="fill: #1f77b4; stroke: #1f77b4"/>
     <use xlink:href="#m2039f08069" x="381.191666" y="204.13701" style="fill: #1f77b4; stroke: #1f77b4"/>
     <use xlink:href="#m2039f08069" x="378.846455" y="211.010721" style="fill: #1f77b4; stroke: #1f77b4"/>
     <use xlink:href="#m2039f08069" x="375.338501" y="217.928775" style="fill: #1f77b4; stroke: #1f77b4"/>
     <use xlink:href="#m2039f08069" x="371.609177" y="224.386267" style="fill: #1f77b4; stroke: #1f77b4"/>
     <use xlink:href="#m2039f08069" x="367.034988" y="230.792151" style="fill: #1f77b4; stroke: #1f77b4"/>
     <use xlink:href="#m2039f08069" x="361.873494" y="236.887503" style="fill: #1f77b4; stroke: #1f77b4"/>
     <use xlink:href="#m2039f08069" x="356.087186" y="242.993879" style="fill: #1f77b4; stroke: #1f77b4"/>
     <use xlink:href="#m2039f08069" x="349.837996" y="248.418335" style="fill: #1f77b4; stroke: #1f77b4"/>
     <use xlink:href="#m2039f08069" x="343.135567" y="253.731" style="fill: #1f77b4; stroke: #1f77b4"/>
     <use xlink:href="#m2039f08069" x="335.919463" y="258.701126" style="fill: #1f77b4; stroke: #1f77b4"/>
     <use xlink:href="#m2039f08069" x="328.031322" y="263.412624" style="fill: #1f77b4; stroke: #1f77b4"/>
     <use xlink:href="#m2039f08069" x="319.882612" y="267.689204" style="fill: #1f77b4; stroke: #1f77b4"/>
     <use xlink:href="#m2039f08069" x="311.576919" y="271.664602" style="fill: #1f77b4; stroke: #1f77b4"/>
     <use xlink:href="#m2039f08069" x="302.559225" y="275.157394" style="fill: #1f77b4; stroke: #1f77b4"/>
     <use xlink:href="#m2039f08069" x="293.390238" y="278.265636" style="fill: #1f77b4; stroke: #1f77b4"/>
     <use xlink:href="#m2039f08069" x="283.850519" y="280.959452" style="fill: #1f77b4; stroke: #1f77b4"/>
    </g>
   </g>
   <g id="line2d_19">
    <path d="M 346.41385 259.545572 
L 341.76593 262.706939 
L 336.93867 265.738662 
L 331.939324 268.635766 
L 326.775426 271.393475 
L 321.454772 274.007217 
L 315.985414 276.472629 
L 310.375647 278.785568 
L 304.633995 280.942114 
L 298.769202 282.938575 
L 292.790216 284.771497 
L 286.706179 286.437668 
L 280.526411 287.934118 
L 274.260398 289.258131 
L 267.917781 290.407245 
L 261.508337 291.379256 
L 255.041967 292.172222 
L 248.528683 292.784468 
L 241.978595 293.214583 
L 235.40189 293.46143 
L 228.808826 293.524142 
L 222.209711 293.402125 
L 215.614892 293.095061 
L 209.034738 292.602906 
L 202.479627 291.925892 
L 195.959931 291.064525 
L 189.486002 290.019587 
L 183.068157 288.792132 
L 176.716664 287.383487 
L 170.441728 285.795251 
L 164.253475 284.02929 
L 158.161945 282.087735 
L 152.17707 279.972981 
L 146.308666 277.687683 
L 140.566419 275.234751 
L 134.959875 272.617348 
L 129.498422 269.838884 
L 124.191283 266.903013 
L 119.047504 263.813626 
L 114.075944 260.574848 
L 109.28526 257.191032 
L 104.683903 253.666751 
L 100.280107 250.006795 
L 96.081877 246.216163 
L 92.096987 242.300057 
L 88.332967 238.263876 
L 84.797102 234.113208 
L 81.49642 229.853826 
L 78.437692 225.491678 
L 75.627427 221.03288 
L 73.071866 216.483713 
L 70.776984 211.850613 
L 68.748485 207.140164 
L 66.991805 202.359095 
L 65.512112 197.514271 
L 64.314307 192.612688 
L 63.403028 187.661468 
L 62.78266 182.667854 
L 62.457333 177.639207 
L 62.430936 172.583003 
L 62.707127 167.506831 
L 63.289342 162.41839 
L 64.180808 157.325496 
L 65.384562 152.236078 
L 66.903467 147.158188 
L 68.740229 142.100006 
L 70.897425 137.069853 
L 73.377522 132.076204 
L 76.182907 127.127707 
L 79.315916 122.233209 
L 82.778863 117.401786 
L 86.57408 112.642781 
L 90.703946 107.965851 
L 95.170926 103.381026 
L 99.97761 98.89878 
L 105.126746 94.530119 
L 110.621271 90.286683 
L 116.464339 86.180878 
L 122.659335 82.226029 
L 129.209872 78.436567 
L 133.776299 76.009861 
L 138.503604 73.668686 
L 143.392973 71.418452 
L 148.445579 69.264971 
L 153.662569 67.214513 
L 159.045015 65.273858 
L 164.593873 63.450367 
L 170.30992 61.752051 
L 176.193667 60.187652 
L 182.245265 58.766727 
L 188.464366 57.499747 
L 194.849962 56.398191 
L 201.40018 55.474657 
L 208.112025 54.742967 
L 214.981064 54.218268 
L 222.001042 53.917138 
L 229.163409 53.857656 
L 236.456753 54.05946 
L 243.866123 54.543746 
L 251.372228 55.333206 
L 258.950512 56.451857 
L 266.570098 57.92474 
L 274.192619 59.777433 
L 281.770971 62.035312 
L 285.526161 63.323825 
L 289.248047 64.72252 
L 292.927735 66.233991 
L 296.55557 67.860554 
L 300.121119 69.604182 
L 303.613158 71.466425 
L 307.019672 73.448331 
L 310.327872 75.550352 
L 313.524224 77.772247 
L 316.594504 80.112984 
L 319.523871 82.570631 
L 322.29697 85.142251 
L 324.898059 87.823795 
L 327.311171 90.610001 
L 329.520307 93.494304 
L 331.50966 96.468758 
L 333.263874 99.523971 
L 334.768328 102.649076 
L 336.009451 105.831716 
L 336.975055 109.058079 
L 337.654673 112.312958 
L 338.03991 115.579867 
L 338.124769 118.841193 
L 337.905965 122.078398 
L 337.383192 125.272264 
L 336.559343 128.403181 
L 335.440655 131.451468 
L 334.036789 134.397719 
L 332.360806 137.22316 
L 330.429068 139.910018 
L 328.261029 142.441863 
L 325.87895 144.803939 
L 323.307521 146.98345 
L 320.573426 148.969789 
L 317.704839 150.754724 
L 314.730905 152.332502 
L 311.681192 153.699896 
L 308.58516 154.856177 
L 305.471646 155.803033 
L 302.368401 156.544414 
L 299.301681 157.086348 
L 296.295895 157.436704 
L 293.373339 157.604935 
L 290.553995 157.60181 
L 287.855405 157.439128 
L 285.292617 157.12945 
L 282.878187 156.685839 
L 280.622242 156.121613 
L 278.532579 155.450132 
L 276.614812 154.684602 
L 274.872531 153.837916 
L 273.307491 152.922516 
L 271.919801 151.950286 
L 270.708122 150.932472 
L 269.669861 149.879621 
L 268.801359 148.801546 
L 268.098068 147.707307 
L 267.554712 146.605208 
L 267.165443 145.502804 
L 266.923975 144.406924 
L 266.823701 143.323697 
L 266.857805 142.258585 
L 267.019349 141.216421 
L 267.301358 140.201453 
L 267.696876 139.217377 
L 268.801081 137.354221 
L 270.278703 135.64719 
L 272.079463 134.110363 
L 274.156679 132.752805 
L 276.467541 131.579569 
L 278.973165 130.592547 
L 281.638493 129.79119 
L 284.432091 129.173086 
L 287.325889 128.73444 
L 290.294902 128.470454 
L 293.316935 128.375621 
L 296.372303 128.443967 
L 299.44356 128.669224 
L 304.046912 129.287265 
L 308.606708 130.222127 
L 313.085438 131.45231 
L 317.451752 132.956934 
L 321.679399 134.715926 
L 325.746356 136.710108 
L 329.634118 138.921223 
L 333.327114 141.331921 
L 336.812237 143.925721 
L 340.078463 146.686955 
L 343.116535 149.600712 
L 345.918716 152.652775 
L 348.47858 155.829567 
L 350.790849 159.118092 
L 352.851252 162.505885 
L 354.656418 165.980966 
L 356.203782 169.531803 
L 357.491513 173.147267 
L 358.518448 176.816609 
L 359.284043 180.529429 
L 359.788331 184.275649 
L 360.031884 188.045499 
L 360.015781 191.829495 
L 359.741588 195.618428 
L 359.211326 199.403349 
L 358.42746 203.175563 
L 357.392875 206.92662 
L 356.110865 210.648307 
L 354.585113 214.332648 
L 352.819684 217.971897 
L 350.819005 221.558538 
L 348.587859 225.085285 
L 346.131371 228.545078 
L 343.454996 231.931089 
L 340.564506 235.236718 
L 337.465984 238.455598 
L 334.165808 241.581598 
L 330.670639 244.60882 
L 326.987415 247.531607 
L 323.123334 250.344545 
L 319.085843 253.042464 
L 314.882628 255.620441 
L 310.521601 258.073804 
L 306.010886 260.398136 
L 301.358808 262.589277 
L 296.573879 264.643326 
L 291.664786 266.556643 
L 286.640377 268.325855 
L 281.509645 269.947856 
L 276.28172 271.419807 
L 270.965849 272.739143 
L 265.571387 273.903571 
L 260.107778 274.911071 
L 252.731872 276.007319 
L 245.272711 276.818146 
L 237.753169 277.341056 
L 230.196197 277.574427 
L 222.624756 277.517508 
L 215.06176 277.170418 
L 207.530015 276.534137 
L 200.052152 275.610501 
L 192.650575 274.40219 
L 185.347391 272.912717 
L 179.947678 271.613675 
L 174.62459 270.161023 
L 169.387013 268.557138 
L 164.243679 266.804639 
L 159.203149 264.906388 
L 154.273801 262.86548 
L 149.463818 260.685242 
L 144.781175 258.369225 
L 140.233629 255.921197 
L 135.828705 253.345137 
L 131.573684 250.645231 
L 127.475597 247.82586 
L 123.541208 244.891597 
L 119.77701 241.847195 
L 116.189209 238.697586 
L 112.783721 235.447865 
L 109.56616 232.103286 
L 106.541828 228.669254 
L 103.715712 225.151313 
L 101.092474 221.55514 
L 98.67644 217.886534 
L 96.471604 214.151408 
L 94.481611 210.355777 
L 92.709758 206.505753 
L 91.15899 202.607529 
L 89.831892 198.667374 
L 88.730687 194.691621 
L 87.857236 190.686658 
L 87.213028 186.658915 
L 86.799187 182.614857 
L 86.616464 178.560973 
L 86.665241 174.503764 
L 86.945525 170.449735 
L 87.456955 166.405382 
L 88.198798 162.377186 
L 89.169954 158.371597 
L 90.368954 154.39503 
L 91.793967 150.453848 
L 93.442799 146.554358 
L 95.312902 142.702801 
L 97.401374 138.905335 
L 99.704964 135.168034 
L 102.22008 131.496874 
L 104.942794 127.897723 
L 107.868845 124.376337 
L 110.993653 120.938341 
L 114.31232 117.589233 
L 117.81964 114.334365 
L 121.510108 111.178938 
L 125.377931 108.127996 
L 129.417031 105.186416 
L 133.621062 102.358901 
L 137.983415 99.649972 
L 142.49723 97.063961 
L 147.155409 94.605007 
L 151.950624 92.277043 
L 156.875333 90.083799 
L 161.921785 88.028788 
L 167.082041 86.115305 
L 172.347978 84.346421 
L 177.711311 82.724978 
L 183.163596 81.253585 
L 188.696253 79.934612 
L 196.183081 78.416727 
L 203.776347 77.177944 
L 211.454802 76.221851 
L 219.196959 75.551244 
L 226.981152 75.168118 
L 234.785597 75.07366 
L 242.588452 75.268251 
L 250.367881 75.751458 
L 258.10211 76.522043 
L 265.769492 77.577961 
L 273.348566 78.91637 
L 280.818119 80.533636 
L 286.335818 81.926959 
L 291.771452 83.472525 
L 297.116459 85.16795 
L 302.362422 87.010611 
L 307.501075 88.997655 
L 312.524324 91.126003 
L 317.424254 93.392352 
L 322.193142 95.793181 
L 326.823474 98.324762 
L 331.307951 100.983156 
L 335.639501 103.764228 
L 339.811293 106.66365 
L 343.816748 109.676907 
L 347.649545 112.799305 
L 351.303634 116.025979 
L 354.773246 119.3519 
L 358.052899 122.771882 
L 361.13741 126.280593 
L 364.021901 129.872559 
L 366.701806 133.542178 
L 369.172882 137.283724 
L 371.431211 141.091358 
L 373.473207 144.959137 
L 375.295624 148.881024 
L 376.89556 152.850895 
L 378.270459 156.862552 
L 379.41812 160.909731 
L 380.336696 164.986111 
L 381.024698 169.085325 
L 381.480997 173.200971 
L 381.70483 177.326617 
L 381.695793 181.45582 
L 381.453849 185.582127 
L 380.979326 189.699089 
L 380.272912 193.800274 
L 379.335663 197.879271 
L 378.16899 201.929705 
L 376.774668 205.945243 
L 375.154825 209.919609 
L 373.311943 213.846587 
L 371.248852 217.720038 
L 368.968726 221.533903 
L 366.475079 225.282218 
L 363.771759 228.95912 
L 360.862942 232.558856 
L 357.753125 236.075794 
L 354.447119 239.50443 
L 350.950041 242.839398 
L 347.26731 246.075478 
L 343.404632 249.207603 
L 339.367995 252.230867 
L 335.163661 255.140536 
L 330.798152 257.932051 
L 326.278244 260.601036 
L 321.610954 263.143308 
L 316.803528 265.55488 
L 311.863434 267.831969 
L 306.798345 269.970999 
L 301.616132 271.968614 
L 296.324848 273.821673 
L 290.932718 275.527263 
L 285.448124 277.0827 
L 283.600848 277.567381 
L 283.600848 277.567381 
" clip-path="url(#p032bcc722d)" style="fill: none; stroke: #d62728; stroke-width: 1.5; stroke-linecap: square"/>
   </g>
   <g id="patch_3">
    <path d="M 44.210938 307.872 
L 44.210938 41.76 
" style="fill: none; stroke: #000000; stroke-width: 0.8; stroke-linejoin: miter; stroke-linecap: square"/>
   </g>
   <g id="patch_4">
    <path d="M 401.330938 307.872 
L 401.330938 41.76 
" style="fill: none; stroke: #000000; stroke-width: 0.8; stroke-linejoin: miter; stroke-linecap: square"/>
   </g>
   <g id="patch_5">
    <path d="M 44.210938 307.872 
L 401.330938 307.872 
" style="fill: none; stroke: #000000; stroke-width: 0.8; stroke-linejoin: miter; stroke-linecap: square"/>
   </g>
   <g id="patch_6">
    <path d="M 44.210938 41.76 
L 401.330938 41.76 
" style="fill: none; stroke: #000000; stroke-width: 0.8; stroke-linejoin: miter; stroke-linecap: square"/>
   </g>
   <g id="text_20">
    <g id="patch_7">
     <path d="M 419.186937 102.337163 
L 564.186937 102.337163 
Q 568.186937 102.337163 568.186937 98.337163 
L 568.186937 55.0656 
Q 568.186937 51.0656 564.186937 51.0656 
L 419.186937 51.0656 
Q 415.186937 51.0656 415.186937 55.0656 
L 415.186937 98.337163 
Q 415.186937 102.337163 419.186937 102.337163 
z
" style="fill: #ffffff; opacity: 0.5; stroke: #000000; stroke-linejoin: miter"/>
    </g>
    <!-- Summary -->
    <g transform="translate(419.186937 62.664038) scale(0.1 -0.1)">
     <defs>
      <path id="DejaVuSans-53" d="M 3425 4513 
L 3425 3897 
Q 3066 4069 2747 4153 
Q 2428 4238 2131 4238 
Q 1616 4238 1336 4038 
Q 1056 3838 1056 3469 
Q 1056 3159 1242 3001 
Q 1428 2844 1947 2747 
L 2328 2669 
Q 3034 2534 3370 2195 
Q 3706 1856 3706 1288 
Q 3706 609 3251 259 
Q 2797 -91 1919 -91 
Q 1588 -91 1214 -16 
Q 841 59 441 206 
L 441 856 
Q 825 641 1194 531 
Q 1563 422 1919 422 
Q 2459 422 2753 634 
Q 3047 847 3047 1241 
Q 3047 1584 2836 1778 
Q 2625 1972 2144 2069 
L 1759 2144 
Q 1053 2284 737 2584 
Q 422 2884 422 3419 
Q 422 4038 858 4394 
Q 1294 4750 2059 4750 
Q 2388 4750 2728 4690 
Q 3069 4631 3425 4513 
z
" transform="scale(0.015625)"/>
      <path id="DejaVuSans-75" d="M 544 1381 
L 544 3500 
L 1119 3500 
L 1119 1403 
Q 1119 906 1312 657 
Q 1506 409 1894 409 
Q 2359 409 2629 706 
Q 2900 1003 2900 1516 
L 2900 3500 
L 3475 3500 
L 3475 0 
L 2900 0 
L 2900 538 
Q 2691 219 2414 64 
Q 2138 -91 1772 -91 
Q 1169 -91 856 284 
Q 544 659 544 1381 
z
M 1991 3584 
L 1991 3584 
z
" transform="scale(0.015625)"/>
      <path id="DejaVuSans-61" d="M 2194 1759 
Q 1497 1759 1228 1600 
Q 959 1441 959 1056 
Q 959 750 1161 570 
Q 1363 391 1709 391 
Q 2188 391 2477 730 
Q 2766 1069 2766 1631 
L 2766 1759 
L 2194 1759 
z
M 3341 1997 
L 3341 0 
L 2766 0 
L 2766 531 
Q 2569 213 2275 61 
Q 1981 -91 1556 -91 
Q 1019 -91 701 211 
Q 384 513 384 1019 
Q 384 1609 779 1909 
Q 1175 2209 1959 2209 
L 2766 2209 
L 2766 2266 
Q 2766 2663 2505 2880 
Q 2244 3097 1772 3097 
Q 1472 3097 1187 3025 
Q 903 2953 641 2809 
L 641 3341 
Q 956 3463 1253 3523 
Q 1550 3584 1831 3584 
Q 2591 3584 2966 3190 
Q 3341 2797 3341 1997 
z
" transform="scale(0.015625)"/>
      <path id="DejaVuSans-72" d="M 2631 2963 
Q 2534 3019 2420 3045 
Q 2306 3072 2169 3072 
Q 1681 3072 1420 2755 
Q 1159 2438 1159 1844 
L 1159 0 
L 581 0 
L 581 3500 
L 1159 3500 
L 1159 2956 
Q 1341 3275 1631 3429 
Q 1922 3584 2338 3584 
Q 2397 3584 2469 3576 
Q 2541 3569 2628 3553 
L 2631 2963 
z
" transform="scale(0.015625)"/>
      <path id="DejaVuSans-79" d="M 2059 -325 
Q 1816 -950 1584 -1140 
Q 1353 -1331 966 -1331 
L 506 -1331 
L 506 -850 
L 844 -850 
Q 1081 -850 1212 -737 
Q 1344 -625 1503 -206 
L 1606 56 
L 191 3500 
L 800 3500 
L 1894 763 
L 2988 3500 
L 3597 3500 
L 2059 -325 
z
" transform="scale(0.015625)"/>
     </defs>
     <use xlink:href="#DejaVuSans-53"/>
     <use xlink:href="#DejaVuSans-75" x="63.476562"/>
     <use xlink:href="#DejaVuSans-6d" x="126.855469"/>
     <use xlink:href="#DejaVuSans-6d" x="224.267578"/>
     <use xlink:href="#DejaVuSans-61" x="321.679688"/>
     <use xlink:href="#DejaVuSans-72" x="382.958984"/>
     <use xlink:href="#DejaVuSans-79" x="424.072266"/>
    </g>
    <!-- $Q_I$: 20.73$\pm$0.66 k -->
    <g transform="translate(419.186937 73.86185) scale(0.1 -0.1)">
     <defs>
      <path id="DejaVuSans-Oblique-51" d="M 2309 -84 
Q 2275 -88 2237 -89 
Q 2200 -91 2125 -91 
Q 1250 -91 756 411 
Q 263 913 263 1797 
Q 263 2319 452 2844 
Q 641 3369 978 3788 
Q 1369 4269 1858 4509 
Q 2347 4750 2938 4750 
Q 3794 4750 4287 4245 
Q 4781 3741 4781 2869 
Q 4781 1928 4265 1147 
Q 3750 366 2919 44 
L 3553 -825 
L 2847 -825 
L 2309 -84 
z
M 2919 4238 
Q 2400 4238 2003 3986 
Q 1606 3734 1313 3219 
Q 1125 2891 1026 2522 
Q 928 2153 928 1778 
Q 928 1128 1239 775 
Q 1550 422 2119 422 
Q 2631 422 3032 676 
Q 3434 931 3719 1434 
Q 3909 1772 4009 2142 
Q 4109 2513 4109 2881 
Q 4109 3528 3796 3883 
Q 3484 4238 2919 4238 
z
" transform="scale(0.015625)"/>
      <path id="DejaVuSans-Oblique-49" d="M 1081 4666 
L 1716 4666 
L 806 0 
L 172 0 
L 1081 4666 
z
" transform="scale(0.015625)"/>
      <path id="DejaVuSans-3a" d="M 750 794 
L 1409 794 
L 1409 0 
L 750 0 
L 750 794 
z
M 750 3309 
L 1409 3309 
L 1409 2516 
L 750 2516 
L 750 3309 
z
" transform="scale(0.015625)"/>
      <path id="DejaVuSans-2e" d="M 684 794 
L 1344 794 
L 1344 0 
L 684 0 
L 684 794 
z
" transform="scale(0.015625)"/>
      <path id="DejaVuSans-37" d="M 525 4666 
L 3525 4666 
L 3525 4397 
L 1831 0 
L 1172 0 
L 2766 4134 
L 525 4134 
L 525 4666 
z
" transform="scale(0.015625)"/>
      <path id="DejaVuSans-b1" d="M 2944 4013 
L 2944 2803 
L 4684 2803 
L 4684 2272 
L 2944 2272 
L 2944 1063 
L 2419 1063 
L 2419 2272 
L 678 2272 
L 678 2803 
L 2419 2803 
L 2419 4013 
L 2944 4013 
z
M 678 531 
L 4684 531 
L 4684 0 
L 678 0 
L 678 531 
z
" transform="scale(0.015625)"/>
      <path id="DejaVuSans-36" d="M 2113 2584 
Q 1688 2584 1439 2293 
Q 1191 2003 1191 1497 
Q 1191 994 1439 701 
Q 1688 409 2113 409 
Q 2538 409 2786 701 
Q 3034 994 3034 1497 
Q 3034 2003 2786 2293 
Q 2538 2584 2113 2584 
z
M 3366 4563 
L 3366 3988 
Q 3128 4100 2886 4159 
Q 2644 4219 2406 4219 
Q 1781 4219 1451 3797 
Q 1122 3375 1075 2522 
Q 1259 2794 1537 2939 
Q 1816 3084 2150 3084 
Q 2853 3084 3261 2657 
Q 3669 2231 3669 1497 
Q 3669 778 3244 343 
Q 2819 -91 2113 -91 
Q 1303 -91 875 529 
Q 447 1150 447 2328 
Q 447 3434 972 4092 
Q 1497 4750 2381 4750 
Q 2619 4750 2861 4703 
Q 3103 4656 3366 4563 
z
" transform="scale(0.015625)"/>
      <path id="DejaVuSans-6b" d="M 581 4863 
L 1159 4863 
L 1159 1991 
L 2875 3500 
L 3609 3500 
L 1753 1863 
L 3688 0 
L 2938 0 
L 1159 1709 
L 1159 0 
L 581 0 
L 581 4863 
z
" transform="scale(0.015625)"/>
     </defs>
     <use xlink:href="#DejaVuSans-Oblique-51" transform="translate(0 0.015625)"/>
     <use xlink:href="#DejaVuSans-Oblique-49" transform="translate(78.710938 -16.390625) scale(0.7)"/>
     <use xlink:href="#DejaVuSans-3a" transform="translate(102.089844 0.015625)"/>
     <use xlink:href="#DejaVuSans-20" transform="translate(135.78125 0.015625)"/>
     <use xlink:href="#DejaVuSans-32" transform="translate(167.568359 0.015625)"/>
     <use xlink:href="#DejaVuSans-30" transform="translate(231.191406 0.015625)"/>
     <use xlink:href="#DejaVuSans-2e" transform="translate(294.814453 0.015625)"/>
     <use xlink:href="#DejaVuSans-37" transform="translate(318.851562 0.015625)"/>
     <use xlink:href="#DejaVuSans-33" transform="translate(382.474609 0.015625)"/>
     <use xlink:href="#DejaVuSans-b1" transform="translate(446.097656 0.015625)"/>
     <use xlink:href="#DejaVuSans-30" transform="translate(529.886719 0.015625)"/>
     <use xlink:href="#DejaVuSans-2e" transform="translate(593.509766 0.015625)"/>
     <use xlink:href="#DejaVuSans-36" transform="translate(625.296875 0.015625)"/>
     <use xlink:href="#DejaVuSans-36" transform="translate(688.919922 0.015625)"/>
     <use xlink:href="#DejaVuSans-20" transform="translate(752.542969 0.015625)"/>
     <use xlink:href="#DejaVuSans-6b" transform="translate(784.330078 0.015625)"/>
    </g>
    <!-- $Q_C$: 14.63$\pm$0.26 k -->
    <g transform="translate(419.186937 85.059663) scale(0.1 -0.1)">
     <defs>
      <path id="DejaVuSans-Oblique-43" d="M 4447 4306 
L 4319 3641 
Q 4019 3944 3683 4091 
Q 3347 4238 2956 4238 
Q 2422 4238 2017 3981 
Q 1613 3725 1319 3200 
Q 1131 2863 1032 2486 
Q 934 2109 934 1728 
Q 934 1091 1264 756 
Q 1594 422 2222 422 
Q 2656 422 3056 561 
Q 3456 700 3834 978 
L 3688 231 
Q 3316 72 2936 -9 
Q 2556 -91 2175 -91 
Q 1278 -91 773 396 
Q 269 884 269 1753 
Q 269 2309 461 2846 
Q 653 3384 1013 3828 
Q 1394 4300 1883 4525 
Q 2372 4750 3022 4750 
Q 3422 4750 3780 4639 
Q 4138 4528 4447 4306 
z
" transform="scale(0.015625)"/>
     </defs>
     <use xlink:href="#DejaVuSans-Oblique-51" transform="translate(0 0.015625)"/>
     <use xlink:href="#DejaVuSans-Oblique-43" transform="translate(78.710938 -16.390625) scale(0.7)"/>
     <use xlink:href="#DejaVuSans-3a" transform="translate(130.322266 0.015625)"/>
     <use xlink:href="#DejaVuSans-20" transform="translate(164.013672 0.015625)"/>
     <use xlink:href="#DejaVuSans-31" transform="translate(195.800781 0.015625)"/>
     <use xlink:href="#DejaVuSans-34" transform="translate(259.423828 0.015625)"/>
     <use xlink:href="#DejaVuSans-2e" transform="translate(323.046875 0.015625)"/>
     <use xlink:href="#DejaVuSans-36" transform="translate(354.833984 0.015625)"/>
     <use xlink:href="#DejaVuSans-33" transform="translate(418.457031 0.015625)"/>
     <use xlink:href="#DejaVuSans-b1" transform="translate(482.080078 0.015625)"/>
     <use xlink:href="#DejaVuSans-30" transform="translate(565.869141 0.015625)"/>
     <use xlink:href="#DejaVuSans-2e" transform="translate(629.492188 0.015625)"/>
     <use xlink:href="#DejaVuSans-32" transform="translate(655.779297 0.015625)"/>
     <use xlink:href="#DejaVuSans-36" transform="translate(719.402344 0.015625)"/>
     <use xlink:href="#DejaVuSans-20" transform="translate(783.025391 0.015625)"/>
     <use xlink:href="#DejaVuSans-6b" transform="translate(814.8125 0.015625)"/>
    </g>
    <!-- $f_{res}$: 5.7181719$\pm$5.6e-06 GHz -->
    <g transform="translate(419.186937 96.257475) scale(0.1 -0.1)">
     <defs>
      <path id="DejaVuSans-Oblique-66" d="M 3059 4863 
L 2969 4384 
L 2419 4384 
Q 2106 4384 1964 4261 
Q 1822 4138 1753 3809 
L 1691 3500 
L 2638 3500 
L 2553 3053 
L 1606 3053 
L 1013 0 
L 434 0 
L 1031 3053 
L 481 3053 
L 563 3500 
L 1113 3500 
L 1159 3744 
Q 1278 4363 1576 4613 
Q 1875 4863 2516 4863 
L 3059 4863 
z
" transform="scale(0.015625)"/>
      <path id="DejaVuSans-Oblique-72" d="M 2853 2969 
Q 2766 3016 2653 3041 
Q 2541 3066 2413 3066 
Q 1953 3066 1609 2717 
Q 1266 2369 1153 1784 
L 800 0 
L 225 0 
L 909 3500 
L 1484 3500 
L 1375 2956 
Q 1603 3259 1920 3421 
Q 2238 3584 2597 3584 
Q 2691 3584 2781 3573 
Q 2872 3563 2963 3538 
L 2853 2969 
z
" transform="scale(0.015625)"/>
      <path id="DejaVuSans-Oblique-65" d="M 3078 2063 
Q 3088 2113 3092 2166 
Q 3097 2219 3097 2272 
Q 3097 2653 2873 2875 
Q 2650 3097 2266 3097 
Q 1838 3097 1509 2826 
Q 1181 2556 1013 2059 
L 3078 2063 
z
M 3578 1613 
L 903 1613 
Q 884 1494 878 1425 
Q 872 1356 872 1306 
Q 872 872 1139 634 
Q 1406 397 1894 397 
Q 2269 397 2603 481 
Q 2938 566 3225 728 
L 3116 159 
Q 2806 34 2476 -28 
Q 2147 -91 1806 -91 
Q 1078 -91 686 257 
Q 294 606 294 1247 
Q 294 1794 489 2264 
Q 684 2734 1063 3103 
Q 1306 3334 1642 3459 
Q 1978 3584 2356 3584 
Q 2950 3584 3301 3228 
Q 3653 2872 3653 2272 
Q 3653 2128 3634 1964 
Q 3616 1800 3578 1613 
z
" transform="scale(0.015625)"/>
      <path id="DejaVuSans-Oblique-73" d="M 3200 3397 
L 3091 2853 
Q 2863 2978 2609 3040 
Q 2356 3103 2088 3103 
Q 1634 3103 1373 2948 
Q 1113 2794 1113 2528 
Q 1113 2219 1719 2053 
Q 1766 2041 1788 2034 
L 1972 1978 
Q 2547 1819 2739 1644 
Q 2931 1469 2931 1166 
Q 2931 609 2489 259 
Q 2047 -91 1331 -91 
Q 1053 -91 747 -37 
Q 441 16 72 128 
L 184 722 
Q 500 559 806 475 
Q 1113 391 1394 391 
Q 1816 391 2080 572 
Q 2344 753 2344 1031 
Q 2344 1331 1650 1516 
L 1591 1531 
L 1394 1581 
Q 956 1697 753 1886 
Q 550 2075 550 2369 
Q 550 2928 970 3256 
Q 1391 3584 2113 3584 
Q 2397 3584 2667 3537 
Q 2938 3491 3200 3397 
z
" transform="scale(0.015625)"/>
      <path id="DejaVuSans-35" d="M 691 4666 
L 3169 4666 
L 3169 4134 
L 1269 4134 
L 1269 2991 
Q 1406 3038 1543 3061 
Q 1681 3084 1819 3084 
Q 2600 3084 3056 2656 
Q 3513 2228 3513 1497 
Q 3513 744 3044 326 
Q 2575 -91 1722 -91 
Q 1428 -91 1123 -41 
Q 819 9 494 109 
L 494 744 
Q 775 591 1075 516 
Q 1375 441 1709 441 
Q 2250 441 2565 725 
Q 2881 1009 2881 1497 
Q 2881 1984 2565 2268 
Q 2250 2553 1709 2553 
Q 1456 2553 1204 2497 
Q 953 2441 691 2322 
L 691 4666 
z
" transform="scale(0.015625)"/>
      <path id="DejaVuSans-38" d="M 2034 2216 
Q 1584 2216 1326 1975 
Q 1069 1734 1069 1313 
Q 1069 891 1326 650 
Q 1584 409 2034 409 
Q 2484 409 2743 651 
Q 3003 894 3003 1313 
Q 3003 1734 2745 1975 
Q 2488 2216 2034 2216 
z
M 1403 2484 
Q 997 2584 770 2862 
Q 544 3141 544 3541 
Q 544 4100 942 4425 
Q 1341 4750 2034 4750 
Q 2731 4750 3128 4425 
Q 3525 4100 3525 3541 
Q 3525 3141 3298 2862 
Q 3072 2584 2669 2484 
Q 3125 2378 3379 2068 
Q 3634 1759 3634 1313 
Q 3634 634 3220 271 
Q 2806 -91 2034 -91 
Q 1263 -91 848 271 
Q 434 634 434 1313 
Q 434 1759 690 2068 
Q 947 2378 1403 2484 
z
M 1172 3481 
Q 1172 3119 1398 2916 
Q 1625 2713 2034 2713 
Q 2441 2713 2670 2916 
Q 2900 3119 2900 3481 
Q 2900 3844 2670 4047 
Q 2441 4250 2034 4250 
Q 1625 4250 1398 4047 
Q 1172 3844 1172 3481 
z
" transform="scale(0.015625)"/>
      <path id="DejaVuSans-39" d="M 703 97 
L 703 672 
Q 941 559 1184 500 
Q 1428 441 1663 441 
Q 2288 441 2617 861 
Q 2947 1281 2994 2138 
Q 2813 1869 2534 1725 
Q 2256 1581 1919 1581 
Q 1219 1581 811 2004 
Q 403 2428 403 3163 
Q 403 3881 828 4315 
Q 1253 4750 1959 4750 
Q 2769 4750 3195 4129 
Q 3622 3509 3622 2328 
Q 3622 1225 3098 567 
Q 2575 -91 1691 -91 
Q 1453 -91 1209 -44 
Q 966 3 703 97 
z
M 1959 2075 
Q 2384 2075 2632 2365 
Q 2881 2656 2881 3163 
Q 2881 3666 2632 3958 
Q 2384 4250 1959 4250 
Q 1534 4250 1286 3958 
Q 1038 3666 1038 3163 
Q 1038 2656 1286 2365 
Q 1534 2075 1959 2075 
z
" transform="scale(0.015625)"/>
      <path id="DejaVuSans-47" d="M 3809 666 
L 3809 1919 
L 2778 1919 
L 2778 2438 
L 4434 2438 
L 4434 434 
Q 4069 175 3628 42 
Q 3188 -91 2688 -91 
Q 1594 -91 976 548 
Q 359 1188 359 2328 
Q 359 3472 976 4111 
Q 1594 4750 2688 4750 
Q 3144 4750 3555 4637 
Q 3966 4525 4313 4306 
L 4313 3634 
Q 3963 3931 3569 4081 
Q 3175 4231 2741 4231 
Q 1884 4231 1454 3753 
Q 1025 3275 1025 2328 
Q 1025 1384 1454 906 
Q 1884 428 2741 428 
Q 3075 428 3337 486 
Q 3600 544 3809 666 
z
" transform="scale(0.015625)"/>
      <path id="DejaVuSans-48" d="M 628 4666 
L 1259 4666 
L 1259 2753 
L 3553 2753 
L 3553 4666 
L 4184 4666 
L 4184 0 
L 3553 0 
L 3553 2222 
L 1259 2222 
L 1259 0 
L 628 0 
L 628 4666 
z
" transform="scale(0.015625)"/>
      <path id="DejaVuSans-7a" d="M 353 3500 
L 3084 3500 
L 3084 2975 
L 922 459 
L 3084 459 
L 3084 0 
L 275 0 
L 275 525 
L 2438 3041 
L 353 3041 
L 353 3500 
z
" transform="scale(0.015625)"/>
     </defs>
     <use xlink:href="#DejaVuSans-Oblique-66" transform="translate(0 0.015625)"/>
     <use xlink:href="#DejaVuSans-Oblique-72" transform="translate(35.205078 -16.390625) scale(0.7)"/>
     <use xlink:href="#DejaVuSans-Oblique-65" transform="translate(63.984375 -16.390625) scale(0.7)"/>
     <use xlink:href="#DejaVuSans-Oblique-73" transform="translate(107.050781 -16.390625) scale(0.7)"/>
     <use xlink:href="#DejaVuSans-3a" transform="translate(146.254883 0.015625)"/>
     <use xlink:href="#DejaVuSans-20" transform="translate(179.946289 0.015625)"/>
     <use xlink:href="#DejaVuSans-35" transform="translate(211.733398 0.015625)"/>
     <use xlink:href="#DejaVuSans-2e" transform="translate(275.356445 0.015625)"/>
     <use xlink:href="#DejaVuSans-37" transform="translate(299.393555 0.015625)"/>
     <use xlink:href="#DejaVuSans-31" transform="translate(363.016602 0.015625)"/>
     <use xlink:href="#DejaVuSans-38" transform="translate(426.639648 0.015625)"/>
     <use xlink:href="#DejaVuSans-31" transform="translate(490.262695 0.015625)"/>
     <use xlink:href="#DejaVuSans-37" transform="translate(553.885742 0.015625)"/>
     <use xlink:href="#DejaVuSans-31" transform="translate(617.508789 0.015625)"/>
     <use xlink:href="#DejaVuSans-39" transform="translate(681.131836 0.015625)"/>
     <use xlink:href="#DejaVuSans-b1" transform="translate(744.754883 0.015625)"/>
     <use xlink:href="#DejaVuSans-35" transform="translate(828.543945 0.015625)"/>
     <use xlink:href="#DejaVuSans-2e" transform="translate(892.166992 0.015625)"/>
     <use xlink:href="#DejaVuSans-36" transform="translate(923.954102 0.015625)"/>
     <use xlink:href="#DejaVuSans-65" transform="translate(987.577148 0.015625)"/>
     <use xlink:href="#DejaVuSans-2d" transform="translate(1049.100586 0.015625)"/>
     <use xlink:href="#DejaVuSans-30" transform="translate(1085.18457 0.015625)"/>
     <use xlink:href="#DejaVuSans-36" transform="translate(1148.807617 0.015625)"/>
     <use xlink:href="#DejaVuSans-20" transform="translate(1212.430664 0.015625)"/>
     <use xlink:href="#DejaVuSans-47" transform="translate(1244.217773 0.015625)"/>
     <use xlink:href="#DejaVuSans-48" transform="translate(1321.708008 0.015625)"/>
     <use xlink:href="#DejaVuSans-7a" transform="translate(1396.90332 0.015625)"/>
    </g>
   </g>
  </g>
  <g id="text_21">
   <!-- S21 One-tone -->
   <g transform="translate(175.76 16.318125) scale(0.12 -0.12)">
    <defs>
     <path id="DejaVuSans-4f" d="M 2522 4238 
Q 1834 4238 1429 3725 
Q 1025 3213 1025 2328 
Q 1025 1447 1429 934 
Q 1834 422 2522 422 
Q 3209 422 3611 934 
Q 4013 1447 4013 2328 
Q 4013 3213 3611 3725 
Q 3209 4238 2522 4238 
z
M 2522 4750 
Q 3503 4750 4090 4092 
Q 4678 3434 4678 2328 
Q 4678 1225 4090 567 
Q 3503 -91 2522 -91 
Q 1538 -91 948 565 
Q 359 1222 359 2328 
Q 359 3434 948 4092 
Q 1538 4750 2522 4750 
z
" transform="scale(0.015625)"/>
     <path id="DejaVuSans-6e" d="M 3513 2113 
L 3513 0 
L 2938 0 
L 2938 2094 
Q 2938 2591 2744 2837 
Q 2550 3084 2163 3084 
Q 1697 3084 1428 2787 
Q 1159 2491 1159 1978 
L 1159 0 
L 581 0 
L 581 3500 
L 1159 3500 
L 1159 2956 
Q 1366 3272 1645 3428 
Q 1925 3584 2291 3584 
Q 2894 3584 3203 3211 
Q 3513 2838 3513 2113 
z
" transform="scale(0.015625)"/>
     <path id="DejaVuSans-74" d="M 1172 4494 
L 1172 3500 
L 2356 3500 
L 2356 3053 
L 1172 3053 
L 1172 1153 
Q 1172 725 1289 603 
Q 1406 481 1766 481 
L 2356 481 
L 2356 0 
L 1766 0 
Q 1100 0 847 248 
Q 594 497 594 1153 
L 594 3053 
L 172 3053 
L 172 3500 
L 594 3500 
L 594 4494 
L 1172 4494 
z
" transform="scale(0.015625)"/>
     <path id="DejaVuSans-6f" d="M 1959 3097 
Q 1497 3097 1228 2736 
Q 959 2375 959 1747 
Q 959 1119 1226 758 
Q 1494 397 1959 397 
Q 2419 397 2687 759 
Q 2956 1122 2956 1747 
Q 2956 2369 2687 2733 
Q 2419 3097 1959 3097 
z
M 1959 3584 
Q 2709 3584 3137 3096 
Q 3566 2609 3566 1747 
Q 3566 888 3137 398 
Q 2709 -91 1959 -91 
Q 1206 -91 779 398 
Q 353 888 353 1747 
Q 353 2609 779 3096 
Q 1206 3584 1959 3584 
z
" transform="scale(0.015625)"/>
    </defs>
    <use xlink:href="#DejaVuSans-53"/>
    <use xlink:href="#DejaVuSans-32" x="63.476562"/>
    <use xlink:href="#DejaVuSans-31" x="127.099609"/>
    <use xlink:href="#DejaVuSans-20" x="190.722656"/>
    <use xlink:href="#DejaVuSans-4f" x="222.509766"/>
    <use xlink:href="#DejaVuSans-6e" x="301.220703"/>
    <use xlink:href="#DejaVuSans-65" x="364.599609"/>
    <use xlink:href="#DejaVuSans-2d" x="426.123047"/>
    <use xlink:href="#DejaVuSans-74" x="462.207031"/>
    <use xlink:href="#DejaVuSans-6f" x="501.416016"/>
    <use xlink:href="#DejaVuSans-6e" x="562.597656"/>
    <use xlink:href="#DejaVuSans-65" x="625.976562"/>
   </g>
   <!-- tuid: 20240221-085357-848-868a94 -->
   <g transform="translate(107.29625 29.7555) scale(0.12 -0.12)">
    <defs>
     <path id="DejaVuSans-69" d="M 603 3500 
L 1178 3500 
L 1178 0 
L 603 0 
L 603 3500 
z
M 603 4863 
L 1178 4863 
L 1178 4134 
L 603 4134 
L 603 4863 
z
" transform="scale(0.015625)"/>
     <path id="DejaVuSans-64" d="M 2906 2969 
L 2906 4863 
L 3481 4863 
L 3481 0 
L 2906 0 
L 2906 525 
Q 2725 213 2448 61 
Q 2172 -91 1784 -91 
Q 1150 -91 751 415 
Q 353 922 353 1747 
Q 353 2572 751 3078 
Q 1150 3584 1784 3584 
Q 2172 3584 2448 3432 
Q 2725 3281 2906 2969 
z
M 947 1747 
Q 947 1113 1208 752 
Q 1469 391 1925 391 
Q 2381 391 2643 752 
Q 2906 1113 2906 1747 
Q 2906 2381 2643 2742 
Q 2381 3103 1925 3103 
Q 1469 3103 1208 2742 
Q 947 2381 947 1747 
z
" transform="scale(0.015625)"/>
    </defs>
    <use xlink:href="#DejaVuSans-74"/>
    <use xlink:href="#DejaVuSans-75" x="39.208984"/>
    <use xlink:href="#DejaVuSans-69" x="102.587891"/>
    <use xlink:href="#DejaVuSans-64" x="130.371094"/>
    <use xlink:href="#DejaVuSans-3a" x="193.847656"/>
    <use xlink:href="#DejaVuSans-20" x="227.539062"/>
    <use xlink:href="#DejaVuSans-32" x="259.326172"/>
    <use xlink:href="#DejaVuSans-30" x="322.949219"/>
    <use xlink:href="#DejaVuSans-32" x="386.572266"/>
    <use xlink:href="#DejaVuSans-34" x="450.195312"/>
    <use xlink:href="#DejaVuSans-30" x="513.818359"/>
    <use xlink:href="#DejaVuSans-32" x="577.441406"/>
    <use xlink:href="#DejaVuSans-32" x="641.064453"/>
    <use xlink:href="#DejaVuSans-31" x="704.6875"/>
    <use xlink:href="#DejaVuSans-2d" x="768.310547"/>
    <use xlink:href="#DejaVuSans-30" x="804.394531"/>
    <use xlink:href="#DejaVuSans-38" x="868.017578"/>
    <use xlink:href="#DejaVuSans-35" x="931.640625"/>
    <use xlink:href="#DejaVuSans-33" x="995.263672"/>
    <use xlink:href="#DejaVuSans-35" x="1058.886719"/>
    <use xlink:href="#DejaVuSans-37" x="1122.509766"/>
    <use xlink:href="#DejaVuSans-2d" x="1186.132812"/>
    <use xlink:href="#DejaVuSans-38" x="1222.216797"/>
    <use xlink:href="#DejaVuSans-34" x="1285.839844"/>
    <use xlink:href="#DejaVuSans-38" x="1349.462891"/>
    <use xlink:href="#DejaVuSans-2d" x="1413.085938"/>
    <use xlink:href="#DejaVuSans-38" x="1449.169922"/>
    <use xlink:href="#DejaVuSans-36" x="1512.792969"/>
    <use xlink:href="#DejaVuSans-38" x="1576.416016"/>
    <use xlink:href="#DejaVuSans-61" x="1640.039062"/>
    <use xlink:href="#DejaVuSans-39" x="1701.318359"/>
    <use xlink:href="#DejaVuSans-34" x="1764.941406"/>
   </g>
  </g>
 </g>
 <defs>
  <clipPath id="p032bcc722d">
   <rect x="44.210938" y="41.76" width="357.12" height="266.112"/>
  </clipPath>
 </defs>
</svg>
